<svg viewBox="0 0 800 300" xmlns="http://www.w3.org/2000/svg"><defs><clipPath id="v"><rect width="800" height="300"/></clipPath></defs><rect width="800" height="300" fill="#DCEEF8"/><g clip-path="url(#v)"><path d="M964,-346L966,-328L956,-302L987,-284L1023,-281L1017,-239L987,-222L935,-235L920,-194L887,-191L875,-207L835,-173L802,-168L772,-189L748,-234L714,-218L715,-264L767,-321L764,-347L796,-338L815,-356L875,-355L889,-377Z" fill="#E0E0E0" stroke="#fff" stroke-width=".4"/><path d="M-337,209L-311,185L-283,172L-265,218L-224,218L-212,206L-172,209L-152,256L-185,281L-185,353L-197,366L-199,409L-230,417L-202,471L-221,530L-197,556L-206,580L-232,613L-226,642L-255,665L-291,653L-327,662L-317,594L-323,539L-354,531L-371,497L-366,438L-338,405L-333,369L-318,313L-320,274L-334,241Z" fill="#E0E0E0" stroke="#fff" stroke-width=".4"/><path d="M-226,642L-232,613L-206,580L-197,556L-221,530L-202,471L-230,417L-199,409L-197,366L-185,353L-185,281L-152,256L-172,209L-212,206L-224,218L-265,218L-283,172L-311,185L-337,209L-333,142L-362,101L-263,32L-178,49L-84,48L-10,65L48,60L161,63L189,100L317,143L343,123L421,166L502,153L506,208L440,270L351,290L344,321L301,372L274,446L302,497L261,537L246,594L193,612L144,679L55,681L-11,679L-55,710L-81,742L-116,735L-142,706L-161,656Z" fill="#E0E0E0" stroke="#fff" stroke-width=".4"/><path d="M1023,-281L1065,-266L1073,-286L1142,-304L1158,-268L1258,-242L1250,-192L1267,-149L1211,-164L1155,-129L1158,-79L1150,-51L1173,-2L1238,47L1273,126L1351,202L1406,202L1423,222L1403,241L1466,275L1517,303L1577,351L1584,368L1571,400L1532,358L1471,343L1442,402L1493,435L1484,482L1455,488L1418,564L1389,571L1389,544L1403,496L1418,477L1391,425L1370,379L1341,367L1320,328L1275,311L1245,274L1194,268L1139,226L1075,165L1028,110L1006,15L971,4L915,-28L882,-15L842,30L813,37L821,-5L783,-18L765,-93L789,-124L769,-161L772,-189L802,-168L835,-173L875,-207L887,-191L920,-194L935,-235L987,-222L1017,-239ZM1324,550L1377,542L1352,612L1363,639L1348,684L1295,651L1259,642L1162,597L1171,552L1253,560ZM902,301L937,272L979,337L969,458L937,452L909,482L882,458L880,349L864,296Z" fill="#E0E0E0" stroke="#fff" stroke-width=".4"/></g><g clip-path="url(#v)"><path d="M412.9,150.6L411.1,151.3L404.6,155.1L401.1,156.4L397.6,157.2L395.0,156.9L393.5,154.6L393.8,151.1L393.0,148.0L392.8,146.4L393.5,141.9L395.8,139.5L398.8,137.5L403.3,138.1L413.1,141.1L415.4,143.7L415.4,145.5L413.6,148.5Z" fill="#4ECDC4" stroke="#2C3E50" stroke-width="1"/></g><circle cx="400.0" cy="150.0" r="4" fill="#E74C3C" stroke="#fff" stroke-width="2"/><text x="400.0" y="140.0" text-anchor="middle" font-family="sans-serif" font-weight="700" font-size="10" fill="#2D3436">Andorra la Vella</text></svg>