<svg viewBox="0 0 800 300" xmlns="http://www.w3.org/2000/svg"><defs><clipPath id="v"><rect width="800" height="300"/></clipPath></defs><rect width="800" height="300" fill="#DCEEF8"/><g clip-path="url(#v)"><path d="M-524,671L-547,658L-558,649L-560,639L-555,626L-555,613L-573,594L-576,580L-576,573L-587,564L-588,545L-594,533L-605,535L-602,524L-594,510L-597,497L-587,488L-594,480L-586,461L-571,437L-545,439L-546,311L-546,298L-511,298L-511,232L-387,232L-268,232L-146,232L-136,264L-143,270L-139,304L-127,343L-116,351L-99,363L-114,381L-137,386L-147,396L-150,418L-163,464L-160,477L-165,504L-177,535L-196,551L-209,575L-212,588L-226,597L-236,629L-235,657L-235,633L-240,632L-239,617L-243,606L-259,594L-262,571L-259,548L-273,546L-275,553L-293,554L-286,564L-284,582L-300,600L-316,622L-332,625L-357,607L-369,614L-372,623L-388,629L-389,635L-420,635L-424,629L-446,627L-457,633L-465,630L-481,612L-487,603L-509,608L-517,622L-525,650L-536,656L-545,659Z" fill="#E0E0E0" stroke="#fff" stroke-width=".4"/><path d="M-181,-139L-187,-128L-198,-133L-204,-109L-197,-105L-205,-100L-206,-90L-191,-95L-191,-81L-206,-24L-209,-33L-226,-85L-217,-97L-219,-99L-211,-116L-205,-144L-201,-153L-200,-153L-189,-153L-187,-160L-178,-160L-178,-145L-182,-140Z" fill="#E0E0E0" stroke="#fff" stroke-width=".4"/><path d="M-178,-160L-187,-160L-189,-153L-200,-153L-189,-183L-173,-209L-173,-211L-159,-209L-154,-194L-171,-180Z" fill="#E0E0E0" stroke="#fff" stroke-width=".4"/><path d="M-191,-95L-206,-90L-205,-100L-197,-105L-204,-109L-198,-133L-187,-128L-187,-106Z" fill="#E0E0E0" stroke="#fff" stroke-width=".4"/><path d="M-187,-128L-181,-139L-147,-125L-87,-164L-75,-119L-81,-114L-142,-96L-111,-60L-122,-54L-127,-42L-150,-37L-157,-24L-171,-13L-205,-19L-206,-24L-191,-81L-191,-95L-187,-106Z" fill="#E0E0E0" stroke="#fff" stroke-width=".4"/><path d="M282,140L280,115L288,97L297,93L306,104L307,124L300,144L291,146Z" fill="#E0E0E0" stroke="#fff" stroke-width=".4"/><path d="M195,-41L201,-25L199,-17L208,9L187,10L179,-7L152,-10L174,-44Z" fill="#E0E0E0" stroke="#fff" stroke-width=".4"/><path d="M-75,-119L-87,-164L-19,-202L-7,-248L-10,-275L6,-285L22,-309L35,-315L71,-310L82,-300L97,-307L116,-261L137,-250L139,-228L124,-215L116,-186L138,-151L175,-131L191,-103L186,-77L196,-77L196,-58L213,-39L195,-41L174,-44L152,-10L95,-13L8,-84L-38,-110Z" fill="#E0E0E0" stroke="#fff" stroke-width=".4"/><path d="M417,208L418,195L427,181L427,167L441,161L435,156L438,134L454,134L467,157L485,169L507,174L525,180L539,199L547,210L558,214L558,222L547,241L542,251L529,261L518,284L504,282L498,290L493,306L496,328L494,332L479,332L460,344L457,360L450,367L431,366L419,375L419,388L404,397L387,393L367,404L353,406L343,384L319,330L411,298L431,232ZM449,107L444,95L453,84L456,87L454,101Z" fill="#E0E0E0" stroke="#fff" stroke-width=".4"/><path d="M1711,19L1713,33L1702,39L1705,60L1683,54L1643,78L1644,97L1627,126L1626,142L1612,170L1588,163L1587,197L1580,209L1583,223L1568,231L1552,178L1543,178L1538,199L1521,182L1531,163L1545,161L1559,132L1541,126L1513,127L1483,122L1481,99L1466,97L1442,82L1431,105L1453,123L1434,136L1427,148L1446,157L1441,178L1451,203L1456,230L1452,242L1431,242L1393,249L1395,273L1378,293L1334,315L1300,353L1277,373L1246,394L1246,409L1231,417L1203,428L1189,430L1179,454L1186,496L1187,522L1174,552L1174,605L1158,607L1144,630L1154,641L1126,649L1115,671L1103,679L1074,650L1060,607L1048,575L1037,560L1021,530L1013,491L1008,471L980,427L967,365L958,324L958,284L952,253L908,273L886,269L846,229L861,217L852,204L815,176L836,153L904,153L897,124L880,107L877,80L857,65L890,29L926,31L958,-5L977,-41L1007,-77L1007,-102L1033,-123L1008,-141L998,-166L987,-199L1002,-215L1048,-206L1083,-211L1112,-243L1145,-199L1142,-169L1154,-150L1153,-131L1131,-136L1140,-96L1170,-73L1213,-48L1193,-32L1181,1L1211,14L1240,31L1280,50L1322,55L1340,72L1364,76L1401,84L1426,83L1430,70L1426,48L1428,33L1447,25L1449,53L1450,60L1478,73L1497,67L1523,70L1548,69L1551,47L1538,36L1563,32L1591,6L1626,-16L1652,-8L1674,-22L1688,-1L1678,14Z" fill="#E0E0E0" stroke="#fff" stroke-width=".4"/><path d="M1112,-243L1083,-211L1048,-206L1002,-215L987,-199L998,-166L1008,-141L1033,-123L1007,-102L1007,-77L977,-41L958,-5L926,31L890,29L857,65L877,80L880,107L897,124L904,153L836,153L815,176L793,167L784,143L760,117L703,123L654,124L610,129L622,89L666,71L664,56L649,50L648,19L619,4L606,-17L591,-36L643,-18L673,-23L692,-19L698,-26L719,-23L759,-38L760,-68L777,-88L800,-88L804,-98L827,-103L839,-100L851,-110L849,-132L862,-154L881,-163L869,-187L899,-186L907,-200L906,-214L921,-230L918,-249L910,-265L928,-281L961,-289L997,-294L1012,-301L1030,-305L1053,-287L1062,-258Z" fill="#E0E0E0" stroke="#fff" stroke-width=".4"/><path d="M765,-314L782,-314L805,-306L814,-301L836,-313L847,-306L857,-324L875,-323L880,-328L883,-344L896,-358L913,-349L910,-337L919,-335L916,-303L928,-290L939,-298L952,-302L972,-319L993,-316L1024,-316L1030,-305L1012,-301L997,-294L961,-289L928,-281L910,-265L918,-249L921,-230L906,-214L907,-200L899,-186L869,-187L881,-163L862,-154L849,-132L851,-110L839,-100L827,-103L804,-98L800,-88L777,-88L760,-68L759,-38L719,-23L698,-26L692,-19L673,-23L643,-18L591,-36L619,-68L617,-91L593,-97L591,-120L581,-149L594,-169L581,-175L589,-202L601,-248L633,-234L656,-239L662,-256L687,-262L704,-274L710,-304L736,-312L741,-326L755,-315Z" fill="#E0E0E0" stroke="#fff" stroke-width=".4"/><path d="M213,-39L196,-58L196,-77L186,-77L191,-103L175,-131L138,-151L116,-186L124,-215L139,-228L137,-250L116,-261L97,-307L80,-338L86,-350L76,-395L97,-406L102,-391L118,-373L139,-368L150,-369L186,-398L198,-401L207,-389L196,-370L215,-349L223,-351L233,-322L262,-314L283,-295L327,-288L375,-299L378,-308L405,-315L426,-337L447,-336L461,-343L482,-340L516,-320L541,-316L576,-282L599,-281L601,-248L589,-202L581,-175L594,-169L581,-149L591,-120L593,-97L617,-91L619,-68L591,-36L606,-17L619,4L648,19L649,50L664,56L666,71L622,89L610,129L553,118L519,111L484,106L471,64L457,58L433,64L402,81L365,70L333,43L304,33L283,-0L261,-47L244,-41L225,-53Z" fill="#E0E0E0" stroke="#fff" stroke-width=".4"/><path d="M-181,-139L-182,-140L-178,-145L-178,-160L-171,-180L-154,-194L-159,-209L-173,-211L-176,-239L-168,-255L-160,-263L-152,-272L-150,-293L-140,-286L-106,-296L-90,-289L-65,-289L-29,-304L-13,-303L22,-309L6,-285L-10,-275L-7,-248L-19,-202L-87,-164L-147,-125Z" fill="#E0E0E0" stroke="#fff" stroke-width=".4"/><path d="M2084,356L2059,346L2058,318L2073,304L2107,294L2124,295L2131,308L2118,322L2111,341ZM1187,-514L1184,-538L1205,-548L1178,-623L1238,-640L1254,-650L1276,-730L1337,-715L1354,-735L1356,-781L1381,-786L1405,-817L1417,-821L1425,-788L1451,-763L1494,-746L1516,-710L1504,-658L1515,-639L1551,-631L1593,-625L1630,-598L1649,-594L1663,-554L1681,-529L1715,-530L1778,-521L1819,-527L1849,-521L1895,-495L1932,-495L1946,-483L1981,-505L2031,-519L2077,-521L2113,-535L2135,-558L2156,-572L2151,-586L2142,-603L2158,-631L2175,-627L2207,-618L2237,-641L2284,-658L2307,-687L2328,-700L2373,-706L2397,-701L2400,-717L2373,-749L2348,-763L2324,-746L2294,-753L2277,-748L2269,-766L2290,-813L2305,-849L2342,-831L2386,-861L2385,-882L2413,-934L2430,-950L2430,-977L2413,-989L2438,-1015L2476,-1024L2517,-1025L2563,-1010L2590,-991L2609,-941L2621,-920L2631,-890L2643,-842L2696,-827L2732,-794L2745,-751L2792,-751L2818,-769L2869,-782L2853,-741L2841,-724L2830,-675L2810,-633L2772,-640L2746,-625L2754,-588L2750,-538L2734,-537L2734,-516L2714,-540L2702,-517L2655,-499L2660,-477L2633,-479L2618,-492L2597,-463L2563,-441L2538,-415L2495,-403L2473,-385L2440,-374L2456,-392L2450,-408L2474,-435L2458,-456L2431,-442L2396,-414L2377,-388L2347,-386L2332,-368L2348,-341L2373,-335L2374,-317L2398,-306L2433,-334L2460,-319L2480,-318L2485,-297L2441,-287L2427,-266L2397,-247L2381,-221L2414,-200L2426,-164L2445,-130L2466,-102L2466,-76L2446,-66L2454,-47L2472,-36L2467,-7L2459,21L2442,24L2420,61L2395,106L2366,147L2324,178L2281,206L2247,210L2228,224L2217,214L2200,230L2157,247L2124,252L2114,287L2097,288L2089,265L2096,252L2055,241L2040,247L2009,238L1995,225L2000,206L1972,199L1957,187L1931,205L1901,209L1876,208L1860,216L1844,221L1848,259L1832,258L1829,251L1828,237L1806,247L1792,240L1770,228L1779,200L1759,194L1752,163L1720,169L1723,129L1752,100L1753,72L1753,45L1739,37L1729,17L1711,19L1678,14L1688,-1L1674,-22L1652,-8L1626,-16L1591,6L1563,32L1538,36L1525,27L1508,26L1486,18L1470,27L1449,53L1447,25L1428,33L1392,29L1358,21L1333,6L1309,-1L1299,-18L1281,-23L1250,-46L1226,-57L1213,-48L1170,-73L1140,-96L1131,-136L1153,-131L1154,-150L1142,-169L1145,-199L1112,-243L1062,-258L1053,-287L1030,-305L1024,-316L1020,-338L1021,-354L1002,-362L992,-359L984,-395L993,-404L989,-414L1018,-433L1040,-440L1072,-435L1084,-461L1123,-466L1134,-482L1182,-504Z" fill="#E0E0E0" stroke="#fff" stroke-width=".4"/><path d="M-160,477L-163,464L-150,418L-147,396L-137,386L-114,381L-99,363L-81,400L-73,429L-56,445L-14,475L3,493L20,511L30,522L45,532L35,539L22,537L12,526L-1,508L-15,498L-22,487L-49,474L-70,474L-78,467L-96,475L-114,460L-124,484Z" fill="#E0E0E0" stroke="#fff" stroke-width=".4"/><path d="M319,330L343,384L353,406L330,415L324,429L324,440L293,453L244,468L217,490L203,492L194,490L176,503L156,510L131,511L123,513L116,521L108,524L103,532L88,531L78,535L57,534L49,515L50,498L45,489L39,465L30,452L36,450L33,436L37,430L35,416L49,406L46,392L54,376L66,385L75,382L110,381L116,384L146,387L157,386L165,397L179,391L201,357L230,343Z" fill="#E0E0E0" stroke="#fff" stroke-width=".4"/><path d="M-205,-19L-171,-13L-157,-24L-150,-37L-127,-42L-122,-54L-111,-60L-142,-96L-81,-114L-75,-119L-38,-110L8,-84L95,-13L152,-10L179,-7L187,10L208,9L221,39L236,47L241,59L262,74L264,88L261,99L265,111L273,120L277,131L282,140L291,146L300,144L306,157L307,165L319,199L411,215L417,208L431,232L411,298L319,330L230,343L201,357L179,391L165,397L157,386L146,387L116,384L110,381L75,382L66,385L54,376L46,392L49,406L35,416L31,402L22,392L20,380L4,368L-12,341L-21,314L-42,292L-56,287L-77,255L-80,232L-79,213L-96,176L-111,163L-127,156L-137,136L-136,129L-144,111L-153,103L-165,78L-184,50L-200,26L-215,26L-210,7L-209,-5Z" fill="#E0E0E0" stroke="#fff" stroke-width=".4"/><path d="M-146,232L-268,232L-387,232L-511,232L-511,108L-511,-15L-520,-43L-512,-65L-517,-81L-506,-98L-465,-99L-435,-89L-405,-78L-391,-73L-367,-84L-354,-95L-327,-97L-305,-93L-297,-75L-290,-87L-265,-78L-241,-76L-226,-85L-209,-33L-206,-24L-215,-10L-221,16L-230,35L-237,41L-247,29L-261,14L-283,-37L-286,-33L-273,4L-254,39L-231,93L-220,111L-210,130L-182,168L-188,173L-187,195L-152,225Z" fill="#E0E0E0" stroke="#fff" stroke-width=".4"/><path d="M189,678L102,771L62,772L35,794L15,795L7,804L-14,804L-26,794L-54,807L-64,820L-84,817L-91,814L-98,815L-108,814L-147,788L-168,788L-178,778L-178,761L-194,756L-213,722L-227,715L-232,702L-248,687L-266,685L-256,667L-240,667L-235,657L-236,629L-226,597L-212,588L-209,575L-196,551L-177,535L-165,504L-160,477L-124,484L-114,460L-96,475L-78,467L-70,474L-49,474L-22,487L-15,498L-1,508L12,526L22,537L11,550L1,565L3,574L4,583L21,584L28,582L35,587L29,598L40,615L51,631L63,642L163,679Z" fill="#E0E0E0" stroke="#fff" stroke-width=".4"/></g><g clip-path="url(#v)"><path d="M450.7,109.3L452.6,112.0L452.9,130.8L453.4,132.1L452.3,132.3L451.1,133.7L449.7,135.9L447.8,137.0L446.2,138.3L444.7,139.9L443.5,140.2L441.7,138.3L440.6,136.2L440.8,135.7L441.7,135.6L442.0,134.5L441.5,133.0L440.4,132.4L438.9,132.4L437.5,133.0L436.1,134.4L435.2,135.8L435.1,138.8L435.5,142.1L435.4,143.7L434.6,145.7L434.4,148.6L435.0,150.9L435.4,152.3L435.5,153.4L434.1,157.0L435.3,157.7L439.3,157.9L440.5,160.3L441.3,162.0L441.0,163.0L438.2,163.8L434.7,164.6L432.2,164.4L427.5,165.4L425.1,167.1L425.9,168.2L426.7,169.0L427.1,171.3L426.3,174.4L425.1,177.5L423.5,181.3L421.6,185.7L419.0,192.3L416.9,197.5L416.7,201.2L416.7,203.7L416.5,208.5L414.4,211.2L413.9,211.3L411.5,210.9L410.7,210.8L408.4,210.5L404.8,210.1L400.1,209.4L394.5,208.7L388.3,207.9L381.8,207.0L374.9,206.1L368.1,205.2L361.4,204.3L355.2,203.5L349.7,202.7L344.9,202.2L341.4,201.6L339.1,201.3L338.2,201.2L335.6,200.9L334.2,199.1L332.6,196.9L330.9,194.7L329.2,192.5L327.5,190.3L325.8,188.1L324.1,186.0L322.4,183.8L320.7,181.6L319.1,179.3L317.4,177.2L315.6,175.0L314.0,172.8L312.3,170.6L310.5,168.4L308.9,166.2L307.2,164.0L306.1,162.5L305.5,160.9L305.4,156.5L305.4,155.5L306.5,153.8L307.0,155.0L308.3,156.7L310.4,156.3L311.4,156.6L312.2,162.6L313.8,164.8L315.7,165.7L322.3,166.1L326.3,165.3L334.3,161.4L338.5,159.9L350.1,160.2L359.4,161.9L373.9,162.8L376.8,162.6L384.5,159.4L389.4,156.6L392.3,155.8L394.1,153.1L395.4,149.6L396.5,147.3L397.9,146.2L399.2,144.2L400.2,141.0L403.0,137.8L413.7,130.0L420.0,123.4L420.6,121.2L424.1,118.0L426.8,114.5L439.7,104.4L442.3,100.2L443.8,95.6L443.9,95.2L445.0,95.0L446.6,95.7L446.8,99.2L446.2,102.6L446.1,106.1L445.9,107.9L447.1,109.5L449.1,110.1L450.0,110.1ZM450.1,123.4L450.3,121.9L450.0,121.2L448.7,121.1L448.1,122.4L447.9,124.2L448.9,124.3ZM359.5,156.5L357.2,156.7L355.2,155.4L359.5,153.7L360.8,152.9L362.0,151.3L363.0,152.7L361.9,154.8L361.1,155.7ZM337.5,155.4L337.0,155.7L336.5,153.8L336.5,153.3L338.0,152.4L338.7,154.0ZM377.8,159.2L377.8,160.3L374.7,160.0L373.9,160.6L371.3,160.3L368.8,159.5L370.5,158.1L374.9,156.4L376.8,157.9ZM394.4,150.2L394.0,150.9L393.2,150.9L391.1,150.2L390.3,149.3L391.7,148.2L392.3,148.1L393.2,149.3Z" fill="#4ECDC4" stroke="#2C3E50" stroke-width="1"/></g><circle cx="400.0" cy="150.0" r="4" fill="#E74C3C" stroke="#fff" stroke-width="2"/><text x="400.0" y="140.0" text-anchor="middle" font-family="sans-serif" font-weight="700" font-size="10" fill="#2D3436">Abu Dhabi</text></svg>