<svg viewBox="0 0 800 300" xmlns="http://www.w3.org/2000/svg"><defs><clipPath id="v"><rect width="800" height="300"/></clipPath></defs><rect width="800" height="300" fill="#DCEEF8"/><g clip-path="url(#v)"><path d="M597,-65L589,-54L580,-53L579,-37L573,-29L552,-35L544,-6L538,-3L517,3L527,29L519,33L520,42L514,39L508,34L492,33L474,32L470,34L455,28L448,31L447,39L429,34L422,36L419,43L413,46L399,56L394,66L390,66L387,59L373,59L371,47L366,47L367,32L354,21L335,22L322,25L312,11L303,5L286,-6L284,-7L256,2L257,57L251,57L244,46L236,42L224,45L219,50L219,46L221,40L219,35L207,30L202,17L196,13L196,8L206,9L206,-2L216,-4L225,-2L227,-17L225,-27L214,-26L205,-30L193,-23L183,-20L177,-22L178,-31L171,-41L163,-41L154,-52L160,-64L157,-68L166,-86L177,-76L178,-89L201,-107L217,-108L241,-96L254,-89L266,-96L283,-97L297,-88L300,-93L315,-92L318,-100L300,-112L311,-121L309,-126L319,-130L311,-143L316,-149L357,-155L362,-160L389,-167L399,-175L418,-171L422,-151L433,-156L447,-150L446,-140L457,-141L484,-158L480,-152L494,-138L518,-93L524,-102L538,-92L554,-97L560,-94L565,-84L573,-80L577,-73L591,-75Z" fill="#E0E0E0" stroke="#fff" stroke-width=".4"/><path d="M257,57L256,2L284,-7L286,-6L303,5L312,11L322,25L335,22L354,21L367,32L366,47L371,47L373,59L387,59L390,66L394,66L399,56L413,46L419,43L423,44L414,54L422,59L429,56L442,63L428,73L420,72L416,72L414,68L416,62L402,65L398,74L393,82L384,81L381,88L389,91L392,101L385,115L377,112L371,112L372,104L357,98L346,91L339,84L326,75L321,60L317,57L306,58L302,55L300,43L286,36L277,44L267,49L269,57Z" fill="#E0E0E0" stroke="#fff" stroke-width=".4"/><path d="M1179,577L1179,613L1179,648L1169,639L1158,637L1156,640L1142,641L1146,632L1153,629L1150,617L1145,608L1124,599L1115,598L1099,588L1096,593L1092,594L1089,590L1089,585L1081,580L1093,576L1100,576L1099,573L1083,573L1079,567L1070,565L1065,559L1080,557L1085,553L1102,558L1104,562L1107,579L1118,586L1128,574L1140,568L1150,568L1159,571L1167,575ZM1005,646L1006,648L1006,651L999,660L990,662L988,661L989,657L994,650ZM1105,624L1104,616L1106,612L1108,608L1111,611L1111,617ZM928,504L922,514L930,524L928,529L940,539L927,541L924,548L924,558L914,565L913,576L909,593L908,589L895,594L891,587L883,587L878,583L865,587L861,582L854,582L845,581L843,566L838,563L833,554L831,545L832,535L839,527L841,535L848,541L855,539L862,539L868,534L874,533L884,536L893,534L898,519L902,515L906,502L919,502ZM1053,580L1064,583L1068,591L1059,587L1050,586L1044,586L1037,586L1039,580ZM1025,590L1018,588L1016,584L1027,583L1029,587ZM1037,526L1038,532L1044,533L1045,537L1045,546L1039,545L1037,552L1042,558L1039,559L1034,552L1031,538L1033,530ZM983,540L995,539L1006,531L1008,534L999,545L991,547L980,545L962,545L953,547L951,555L961,564L967,560L987,556L986,561L982,559L977,566L967,570L978,584L976,587L985,600L985,607L979,610L975,607L980,598L970,602L967,599L968,595L961,588L961,578L954,581L955,594L956,609L949,611L944,608L947,598L945,587L941,587L938,580L942,572L944,564L949,548L951,543L961,535L969,538ZM954,661L940,653L950,651L956,654L959,658L959,661ZM965,642L973,641L982,637L981,643L965,646L950,645L950,641L959,639ZM932,640L939,639L941,644L929,646L921,648L916,648L919,641L925,641L928,637ZM826,619L828,623L848,624L851,619L871,625L875,632L891,634L904,640L892,644L880,640L870,640L859,640L849,638L836,633L828,632L824,634L804,629L802,624L792,624L800,613L813,614L822,618ZM782,561L783,569L787,575L795,576L800,582L798,596L797,613L785,613L776,604L762,595L758,588L749,580L744,571L736,556L726,547L723,538L719,529L709,523L704,513L695,507L684,495L683,490L690,490L707,492L716,503L725,510L731,515L741,526L752,527L761,534L768,543L776,548L771,557L778,561Z" fill="#E0E0E0" stroke="#fff" stroke-width=".4"/><path d="M-32,598L-30,608L-31,614L-29,620L-22,626L-17,640L-21,639L-35,641L-38,642L-41,649L-39,654L-41,667L-42,678L-39,680L-32,684L-29,682L-28,694L-36,694L-41,688L-45,683L-53,682L-55,676L-62,679L-71,678L-74,673L-81,672L-86,672L-87,669L-91,668L-95,668L-102,669L-107,669L-110,670L-109,657L-113,653L-113,646L-112,640L-114,635L-114,628L-127,629L-126,625L-132,625L-133,627L-139,627L-142,633L-144,636L-150,635L-153,636L-160,637L-164,631L-167,628L-170,621L-173,613L-205,613L-209,614L-212,614L-216,615L-218,612L-215,611L-215,606L-213,603L-209,601L-206,602L-202,598L-196,598L-196,601L-192,603L-185,596L-179,591L-176,588L-177,579L-172,568L-167,563L-160,557L-159,554L-158,550L-156,546L-157,540L-156,530L-154,524L-150,518L-150,511L-149,504L-145,498L-139,495L-130,498L-123,502L-115,503L-107,506L-104,499L-102,498L-97,499L-85,494L-81,496L-77,496L-76,493L-72,492L-64,493L-57,494L-53,492L-46,501L-42,503L-39,501L-34,502L-28,499L-25,504L-16,511L-16,524L-12,525L-15,529L-19,532L-24,538L-26,543L-26,551L-29,556L-29,564L-32,567L-33,573L-34,574L-35,580L-32,585Z" fill="#E0E0E0" stroke="#fff" stroke-width=".4"/><path d="M101,567L95,559L94,519L104,507L107,503L114,503L124,495L138,495L168,462L176,453L181,446L181,441L181,429L181,425L181,425L184,424L189,423L195,422L200,418L204,418L205,421L204,427L204,433L201,437L198,449L193,461L186,475L177,491L168,503L155,518L144,527L128,538L118,546L106,559L103,565Z" fill="#E0E0E0" stroke="#fff" stroke-width=".4"/><path d="M75,600L60,589L59,583L20,561L18,560L18,548L21,544L26,536L30,529L25,516L24,511L19,503L26,497L33,489L39,491L39,497L42,501L50,501L63,510L67,510L69,510L72,511L79,512L82,508L92,503L97,507L104,507L94,519L95,559L101,567L93,572L91,576L87,577L85,585L82,589L80,596Z" fill="#E0E0E0" stroke="#fff" stroke-width=".4"/><path d="M-83,460L-92,455L-95,452L-96,448L-94,444L-94,439L-101,432L-102,428L-102,425L-106,422L-106,415L-108,411L-112,412L-111,408L-108,403L-109,398L-106,395L-108,392L-105,385L-100,377L-91,378L-91,333L-91,328L-79,328L-79,305L-35,305L7,305L50,305L53,316L51,318L53,330L57,344L61,347L67,351L61,357L53,359L50,363L49,370L44,387L45,391L43,401L39,412L32,417L28,426L27,430L22,433L18,445L19,455L18,446L17,446L17,440L16,437L10,432L9,424L10,416L5,415L4,418L-2,418L1,422L1,428L-4,434L-10,442L-15,443L-25,437L-29,439L-30,443L-35,445L-36,447L-47,447L-48,445L-56,444L-60,446L-63,445L-68,439L-70,436L-78,437L-81,442L-84,452L-87,454L-91,455Z" fill="#E0E0E0" stroke="#fff" stroke-width=".4"/><path d="M-91,333L-91,378L-100,377L-105,385L-108,392L-106,395L-109,398L-108,403L-111,408L-112,412L-108,411L-106,415L-106,422L-102,425L-102,428L-109,430L-114,434L-122,446L-132,451L-143,450L-146,451L-145,455L-150,459L-155,463L-169,468L-171,465L-173,465L-175,468L-184,469L-182,466L-186,458L-187,453L-192,452L-198,445L-196,440L-191,441L-188,440L-182,440L-188,430L-188,423L-188,416L-193,409L-191,403L-198,403L-198,396L-203,392L-198,377L-184,366L-184,352L-180,328L-177,323L-182,319L-182,316L-186,313L-189,295L-178,288L-135,311Z" fill="#E0E0E0" stroke="#fff" stroke-width=".4"/><path d="M667,-1031L690,-1047L711,-1012L736,-950L733,-897L710,-891L680,-907L662,-929L653,-973L639,-985ZM765,-920L792,-888L789,-866L758,-856L728,-846L748,-918L757,-924ZM1155,-759L1184,-757L1223,-734L1214,-702L1174,-704L1156,-694L1135,-721L1141,-751ZM1257,-725L1284,-713L1271,-697L1254,-701L1234,-717L1237,-731ZM1166,-645L1176,-660L1190,-664L1205,-649L1207,-639L1190,-639L1168,-643ZM136,-1002L158,-1014L174,-1015L176,-997L182,-1013L193,-1024L209,-1009L205,-999L190,-990L180,-985L179,-975L166,-964L154,-979L160,-1000ZM-103,-155L-123,-155L-137,-157L-134,-165L-119,-171L-108,-168L-103,-165L-104,-160ZM230,-660L256,-694L253,-713L278,-736L313,-765L349,-773L368,-791L389,-797L397,-778L389,-764L351,-742L318,-721L284,-682L268,-644L251,-608L253,-579L274,-552L267,-549L232,-553L229,-568L210,-577L208,-596L219,-603L219,-623L240,-655ZM1199,-143L1203,-126L1203,-109L1207,-91L1218,-61L1202,-67L1195,-43L1206,-27L1206,-16L1197,-25L1190,-13L1188,-26L1190,-42L1188,-59L1191,-72L1191,-95L1185,-112L1186,-136L1196,-145L1192,-153L1196,-156ZM-2301,-496L-2301,-496L-2274,-474L-2246,-445L-2247,-428L-2239,-421L-2242,-441L-2212,-437L-2191,-412L-2202,-400L-2220,-398L-2220,-373L-2224,-367L-2234,-368L-2243,-377L-2257,-384L-2260,-396L-2271,-400L-2283,-396L-2289,-406L-2286,-415L-2299,-409L-2294,-397L-2301,-386L-2301,-386L-2301,-496ZM1601,-386L1601,-386L1587,-374L1573,-376L1583,-363L1589,-343L1594,-336L1596,-327L1593,-320L1573,-326L1542,-308L1533,-305L1516,-290L1500,-276L1496,-266L1481,-281L1453,-264L1448,-272L1437,-263L1423,-266L1419,-252L1406,-232L1407,-223L1419,-219L1418,-190L1408,-189L1403,-173L1407,-165L1388,-155L1385,-134L1369,-130L1365,-112L1350,-96L1346,-108L1341,-134L1335,-175L1340,-202L1349,-214L1350,-223L1367,-228L1386,-254L1405,-276L1424,-294L1433,-326L1420,-324L1413,-305L1386,-280L1377,-308L1349,-300L1322,-263L1331,-250L1307,-245L1290,-243L1291,-258L1274,-261L1260,-251L1227,-254L1191,-248L1156,-208L1115,-162L1132,-160L1137,-148L1148,-144L1155,-154L1167,-152L1182,-132L1183,-117L1174,-100L1173,-79L1168,-53L1152,-29L1148,-18L1134,-0L1119,17L1112,26L1098,35L1091,35L1084,28L1069,39L1068,44L1068,44L1066,41L1066,33L1072,33L1073,15L1070,2L1080,-3L1093,-0L1100,-15L1104,-33L1108,-39L1114,-53L1096,-48L1086,-42L1070,-42L1066,-57L1053,-69L1034,-74L1030,-91L1026,-102L1022,-109L1015,-127L1006,-134L990,-139L975,-138L962,-135L953,-126L959,-122L959,-112L953,-107L943,-88L943,-81L928,-70L915,-77L902,-75L896,-81L890,-83L874,-71L860,-68L850,-64L836,-67L826,-66L819,-75L809,-83L798,-85L784,-83L774,-80L759,-87L757,-100L744,-104L734,-106L722,-114L711,-96L715,-86L704,-74L689,-78L678,-79L671,-87L659,-87L650,-92L633,-84L613,-70L601,-67L597,-65L591,-75L577,-73L573,-80L565,-84L560,-94L554,-97L538,-92L524,-102L518,-93L494,-138L480,-152L484,-158L457,-141L446,-140L447,-150L433,-156L422,-151L418,-171L399,-175L389,-167L362,-160L357,-155L316,-149L311,-143L319,-130L309,-126L311,-121L300,-112L318,-100L315,-92L300,-93L297,-88L283,-97L266,-96L254,-89L241,-96L217,-108L201,-107L178,-89L177,-76L166,-86L157,-68L160,-64L154,-52L163,-41L171,-41L178,-31L177,-22L183,-20L178,-11L167,-8L156,8L166,22L165,32L177,50L170,55L169,59L164,58L156,49L153,49L146,45L143,39L133,36L126,39L125,36L110,29L94,26L85,24L83,26L70,13L57,7L48,-2L56,-4L65,-17L59,-24L75,-30L74,-34L65,-31L65,-38L71,-43L81,-44L83,-49L80,-58L85,-67L85,-72L69,-77L62,-77L56,-85L47,-82L34,-88L34,-92L30,-99L21,-100L20,-105L23,-109L16,-119L5,-117L2,-118L-1,-114L-5,-115L-8,-126L-10,-132L-8,-134L0,-133L5,-137L2,-142L-6,-145L-5,-148L-10,-152L-16,-164L-14,-169L-15,-178L-26,-183L-31,-180L-33,-185L-44,-190L-48,-202L-49,-211L-54,-216L-49,-222L-53,-241L-45,-254L-46,-257L-34,-269L-45,-280L-22,-308L-12,-322L-8,-334L-24,-350L-20,-366L-29,-385L-22,-407L-35,-438L-25,-459L-41,-479L-40,-500L-31,-502L-13,-515L-1,-526L16,-507L46,-499L87,-466L95,-452L96,-434L84,-420L66,-412L18,-433L10,-430L28,-410L28,-398L29,-371L43,-364L51,-357L53,-369L46,-380L53,-390L79,-374L89,-380L81,-399L107,-425L117,-424L127,-414L133,-433L124,-449L129,-467L121,-485L152,-475L158,-459L144,-456L144,-440L153,-430L169,-436L172,-454L195,-468L233,-493L241,-492L230,-474L243,-471L251,-481L272,-482L288,-494L300,-476L312,-496L301,-513L307,-524L339,-514L354,-505L393,-471L400,-486L389,-502L389,-508L376,-511L379,-526L373,-551L373,-562L393,-593L400,-625L408,-633L437,-623L439,-603L429,-575L436,-564L439,-541L437,-498L449,-480L444,-460L423,-421L435,-417L440,-427L451,-434L454,-448L464,-461L457,-478L463,-497L451,-500L448,-517L457,-549L443,-576L462,-599L459,-625L465,-626L471,-606L466,-572L478,-566L473,-591L491,-605L514,-606L534,-586L524,-616L523,-656L542,-663L568,-662L591,-667L583,-688L595,-715L607,-716L629,-737L657,-743L661,-755L689,-760L698,-749L722,-774L742,-773L745,-793L756,-814L781,-834L800,-818L785,-806L810,-798L813,-775L823,-786L854,-786L879,-763L887,-746L885,-724L873,-711L844,-688L836,-676L849,-671L865,-661L875,-668L881,-644L886,-654L903,-660L938,-653L940,-636L986,-630L986,-659L1009,-652L1027,-653L1044,-633L1049,-609L1043,-594L1056,-567L1073,-554L1084,-589L1101,-574L1120,-583L1141,-573L1149,-582L1166,-577L1158,-610L1173,-626L1223,-616L1271,-602L1280,-581L1308,-556L1352,-562L1374,-557L1383,-543L1381,-520L1395,-511L1409,-517L1428,-518L1449,-512L1469,-515L1488,-488L1502,-498L1493,-518L1498,-532L1532,-523L1555,-525L1586,-510L1601,-496L1601,-386ZM1601,-555L1589,-554L1587,-564L1601,-578L1601,-555ZM-2301,-578L-2301,-578L-2301,-578L-2299,-580L-2290,-580L-2274,-570L-2275,-565L-2286,-557L-2301,-555L-2301,-555L-2301,-578ZM13,-13L16,-17L23,-14L27,-13L28,-10L30,-9L30,-8L35,-4L46,-5L44,0L32,3L18,12L12,9L14,1L2,-3L4,-6L14,-11Z" fill="#E0E0E0" stroke="#fff" stroke-width=".4"/><path d="M-189,295L-186,313L-182,316L-182,319L-177,323L-180,328L-184,352L-184,366L-198,377L-203,392L-198,396L-198,403L-191,403L-193,409L-196,409L-196,413L-198,413L-205,401L-208,400L-216,407L-225,403L-231,403L-234,404L-240,404L-246,409L-252,409L-265,403L-270,406L-276,406L-280,402L-291,397L-302,399L-305,401L-307,408L-310,412L-311,422L-319,416L-323,416L-326,419L-326,411L-339,409L-339,403L-345,396L-346,391L-346,386L-339,385L-335,381L-320,380L-310,378L-309,371L-303,364L-303,338L-288,333L-257,310L-220,287L-203,292L-196,299Z" fill="#E0E0E0" stroke="#fff" stroke-width=".4"/><path d="M-321,481L-320,464L-320,457L-318,450L-315,446L-310,440L-311,437L-309,432L-311,426L-311,422L-310,412L-307,408L-305,401L-302,399L-291,397L-280,402L-276,406L-270,406L-265,403L-252,409L-246,409L-240,404L-234,404L-231,403L-225,403L-216,407L-208,400L-205,401L-198,413L-196,413L-192,417L-193,419L-193,423L-203,431L-205,438L-207,444L-209,447L-211,454L-217,459L-219,464L-221,469L-222,473L-230,477L-236,473L-240,473L-246,479L-250,479L-255,490L-258,497L-269,501L-273,501L-277,503L-286,503L-292,496L-295,488L-303,481L-311,481Z" fill="#E0E0E0" stroke="#fff" stroke-width=".4"/><path d="M-193,409L-188,416L-188,423L-188,430L-182,440L-188,440L-191,441L-196,440L-198,445L-192,452L-187,453L-186,458L-182,466L-184,469L-190,480L-192,482L-193,490L-192,495L-193,498L-188,504L-187,507L-183,513L-178,517L-177,521L-176,525L-177,530L-186,528L-194,525L-208,525L-209,524L-216,525L-222,524L-227,525L-245,524L-244,516L-248,509L-253,507L-255,502L-258,500L-258,497L-255,490L-250,479L-246,479L-240,473L-236,473L-230,477L-222,473L-221,469L-219,464L-217,459L-211,454L-209,447L-207,444L-205,438L-203,431L-193,423L-193,419L-192,417L-196,413L-196,409Z" fill="#E0E0E0" stroke="#fff" stroke-width=".4"/><path d="M-53,492L-57,494L-64,493L-72,492L-76,493L-77,496L-81,496L-85,494L-97,499L-102,498L-104,499L-107,506L-115,503L-123,502L-130,498L-139,495L-145,498L-149,504L-150,511L-157,511L-164,509L-170,515L-176,525L-177,521L-178,517L-183,513L-187,507L-188,504L-193,498L-192,495L-193,490L-192,482L-190,480L-184,469L-175,468L-173,465L-171,465L-169,468L-155,463L-150,459L-145,455L-146,451L-143,450L-132,451L-122,446L-114,434L-109,430L-102,428L-101,432L-94,439L-94,444L-96,448L-95,452L-92,455L-83,460L-77,464L-77,468L-70,473L-66,478L-63,485L-55,489Z" fill="#E0E0E0" stroke="#fff" stroke-width=".4"/><path d="M37,174L36,178L32,176L29,185L32,186L29,188L29,191L34,189L34,194L29,214L28,211L22,193L25,189L24,188L27,182L29,172L31,169L31,169L35,169L36,167L39,166L39,172L37,174Z" fill="#E0E0E0" stroke="#fff" stroke-width=".4"/><path d="M39,166L36,167L35,169L31,169L35,158L40,149L40,148L45,149L47,154L41,159Z" fill="#E0E0E0" stroke="#fff" stroke-width=".4"/><path d="M34,189L29,191L29,188L32,186L29,185L32,176L36,178L36,186Z" fill="#E0E0E0" stroke="#fff" stroke-width=".4"/><path d="M36,178L37,174L50,179L71,165L75,181L73,183L51,189L62,202L59,204L57,208L49,210L46,214L41,218L29,216L29,214L34,194L34,189L36,186Z" fill="#E0E0E0" stroke="#fff" stroke-width=".4"/><path d="M209,278L211,278L212,281L220,279L229,279L236,280L243,272L251,264L258,257L260,261L262,270L256,270L255,278L257,280L252,282L252,287L249,292L249,296L246,299L214,293L210,281Z" fill="#E0E0E0" stroke="#fff" stroke-width=".4"/><path d="M201,272L200,263L203,257L206,256L209,260L210,267L207,274L204,275Z" fill="#E0E0E0" stroke="#fff" stroke-width=".4"/><path d="M170,208L173,214L172,217L175,226L167,226L165,221L155,219L163,207Z" fill="#E0E0E0" stroke="#fff" stroke-width=".4"/><path d="M75,181L71,165L95,151L99,135L98,126L104,122L109,114L114,112L127,114L130,117L136,115L143,131L150,135L151,143L145,147L143,157L150,170L163,177L169,187L167,196L171,196L171,202L177,209L170,208L163,207L155,219L135,218L104,193L88,184Z" fill="#E0E0E0" stroke="#fff" stroke-width=".4"/><path d="M249,296L249,292L252,287L252,282L257,280L255,278L256,270L262,270L266,278L272,283L280,284L287,286L292,293L295,297L299,298L299,301L295,308L293,311L288,315L284,323L279,322L277,325L275,331L277,339L276,340L271,340L264,344L263,350L260,352L254,352L249,355L249,360L244,363L238,362L231,366L226,366L222,358L214,339L246,328L254,305ZM260,261L258,257L261,252L263,253L262,258Z" fill="#E0E0E0" stroke="#fff" stroke-width=".4"/><path d="M762,416L760,403L767,393L781,391L791,393L800,397L805,390L814,394L817,401L815,414L797,423L802,430L790,430L781,435L772,433L768,428Z" fill="#E0E0E0" stroke="#fff" stroke-width=".4"/><path d="M791,393L781,391L767,393L760,403L762,416L752,411L743,411L745,402L735,403L734,415L728,431L725,441L726,449L733,449L737,459L739,468L745,475L752,476L757,482L754,486L747,487L746,482L737,477L735,479L731,475L729,469L723,463L718,458L716,464L714,458L715,452L718,441L724,430L730,419L725,409L726,404L724,398L717,389L715,383L718,381L722,371L718,364L711,356L706,346L710,344L715,331L723,331L729,326L735,323L740,327L741,334L748,334L745,346L746,356L757,350L760,352L767,351L769,347L777,348L785,357L786,369L795,378L794,388Z" fill="#E0E0E0" stroke="#fff" stroke-width=".4"/><path d="M814,394L805,390L800,397L791,393L794,388L795,378L786,369L785,357L777,348L769,347L767,351L760,352L757,350L746,356L745,346L748,334L741,334L740,327L735,323L738,319L747,311L748,314L754,314L752,301L758,299L764,308L769,319L782,319L786,329L779,332L776,336L789,343L798,357L805,367L813,375L816,382Z" fill="#E0E0E0" stroke="#fff" stroke-width=".4"/><path d="M735,323L729,326L723,331L715,331L710,344L706,346L711,356L718,364L722,371L718,381L715,383L717,389L724,398L726,404L725,409L730,419L724,430L718,441L717,433L721,424L717,418L718,406L714,400L710,387L708,372L703,363L696,369L684,377L678,376L671,373L675,359L673,348L664,335L665,331L659,330L651,320L651,311L655,313L655,304L660,301L659,296L661,292L662,280L670,283L675,273L676,267L682,257L681,250L695,242L703,244L702,237L706,234L705,230L712,229L715,236L720,239L720,248L720,258L709,268L708,282L720,280L722,291L729,294L726,303L734,308L739,310L747,306L747,311L738,319Z" fill="#E0E0E0" stroke="#fff" stroke-width=".4"/><path d="M781,435L790,430L802,430L797,423L815,414L817,401L814,394L816,382L813,375L805,367L798,357L789,343L776,336L779,332L786,329L782,319L769,319L764,308L758,299L763,296L772,296L783,295L792,289L797,293L807,295L805,302L810,307L821,310L807,320L798,331L796,339L804,351L814,366L824,373L830,382L835,402L834,422L825,429L812,436L804,445L790,456L786,449L789,441Z" fill="#E0E0E0" stroke="#fff" stroke-width=".4"/><path d="M1068,44L1068,44L1068,44ZM1066,41L1068,44L1064,43L1059,48L1056,53L1056,63L1051,66L1049,69L1045,73L1037,75L1033,79L1032,85L1031,87L1035,89L1041,95L1040,98L1035,99L1028,100L1023,106L1019,106L1018,107L1013,104L1011,107L1008,108L1008,105L1005,104L1002,102L1005,96L1008,94L1007,92L1009,84L1009,82L1002,80L997,76L1006,67L1018,60L1025,49L1031,54L1040,54L1038,47L1055,41L1059,32Z" fill="#E0E0E0" stroke="#fff" stroke-width=".4"/><path d="M601,-67L613,-70L633,-84L650,-92L659,-87L671,-87L678,-79L689,-78L704,-74L715,-86L711,-96L722,-114L734,-106L744,-104L757,-100L759,-87L774,-80L784,-83L798,-85L809,-83L819,-75L826,-66L836,-67L850,-64L860,-68L874,-71L890,-83L896,-81L902,-75L915,-77L910,-64L902,-48L905,-41L911,-43L922,-40L930,-46L939,-41L948,-30L947,-24L939,-26L923,-24L915,-20L907,-9L891,-3L880,5L869,2L863,0L857,10L861,16L862,21L855,26L847,34L834,39L818,40L801,45L788,53L783,48L770,48L754,39L743,37L729,39L707,36L695,36L688,27L683,13L677,12L663,2L649,0L636,-3L632,-9L636,-28L629,-40L613,-46L604,-55Z" fill="#E0E0E0" stroke="#fff" stroke-width=".4"/><path d="M705,230L706,234L702,237L703,244L695,242L681,250L682,257L676,267L675,273L670,283L662,280L661,292L659,296L660,301L655,304L649,286L646,286L644,293L638,287L642,280L647,280L652,270L645,267L635,268L625,266L624,258L619,257L610,252L606,260L614,266L607,271L605,275L612,278L610,286L614,294L615,304L614,308L606,308L593,311L594,319L588,326L572,334L560,347L552,355L541,362L541,367L536,370L526,374L521,375L518,383L520,398L520,407L516,418L516,436L510,437L505,445L509,449L499,452L495,459L491,463L480,452L475,437L471,426L467,421L462,410L459,396L457,389L447,374L443,352L440,337L440,323L437,312L422,319L414,318L400,304L405,299L402,295L389,285L396,277L420,277L418,267L412,261L411,251L404,246L416,233L428,234L440,221L446,208L457,196L457,187L466,179L457,173L453,164L450,153L455,147L471,150L483,148L494,137L506,153L504,163L509,170L508,177L501,175L504,189L514,197L529,206L523,211L518,223L529,228L539,234L553,241L568,242L574,248L583,250L596,252L605,252L606,247L605,240L605,234L612,232L613,241L613,244L623,249L630,247L639,247L648,247L649,240L644,236L653,234L663,225L675,217L684,220L692,215L697,223L693,228Z" fill="#E0E0E0" stroke="#fff" stroke-width=".4"/><path d="M655,304L655,313L651,311L651,320L648,314L648,308L646,303L641,296L631,295L632,300L629,307L624,304L623,306L619,305L615,304L614,294L610,286L612,278L605,275L607,271L614,266L606,260L610,252L619,257L624,258L625,266L635,268L645,267L652,270L647,280L642,280L638,287L644,293L646,286L649,286Z" fill="#E0E0E0" stroke="#fff" stroke-width=".4"/><path d="M644,236L649,240L648,247L639,247L630,247L623,249L613,244L613,241L620,232L626,229L634,232L639,232Z" fill="#E0E0E0" stroke="#fff" stroke-width=".4"/><path d="M605,234L605,240L606,247L605,252L596,252L583,250L574,248L568,242L553,241L539,234L529,228L518,223L523,211L529,206L534,203L543,207L554,215L560,217L563,223L572,225L580,230L593,233Z" fill="#E0E0E0" stroke="#fff" stroke-width=".4"/><path d="M494,137L483,148L471,150L455,147L450,153L453,164L457,173L466,179L457,187L457,196L446,208L440,221L428,234L416,233L404,246L411,251L412,261L418,267L420,277L396,277L389,285L381,282L378,273L370,264L350,266L332,267L317,268L321,254L337,248L336,242L330,240L330,230L320,224L315,217L310,210L328,217L339,215L346,216L348,214L355,215L369,209L370,199L376,192L384,192L385,188L393,186L397,188L402,184L401,176L406,169L413,165L408,157L419,157L422,152L421,147L426,142L425,135L423,129L429,124L441,121L453,119L459,117L465,115L473,122L476,132Z" fill="#E0E0E0" stroke="#fff" stroke-width=".4"/><path d="M385,115L392,101L389,91L381,88L384,81L393,82L398,74L402,65L416,62L414,68L416,72L420,72L416,76L404,74L403,82L415,81L428,86L449,83L452,96L455,95L462,98L461,103L463,111L452,111L444,110L438,116L433,118L429,121L425,116L426,105L422,104L424,100L418,97L413,101L412,107L410,109L404,109L400,115L397,112L389,117Z" fill="#E0E0E0" stroke="#fff" stroke-width=".4"/><path d="M419,43L422,36L429,34L447,39L448,31L455,28L470,34L474,32L492,33L508,34L514,39L520,42L519,45L502,53L498,59L484,60L480,69L468,67L461,70L450,77L452,80L449,83L428,86L415,81L403,82L404,74L416,76L420,72L428,73L442,63L429,56L422,59L414,54L423,44Z" fill="#E0E0E0" stroke="#fff" stroke-width=".4"/><path d="M219,50L224,45L236,42L244,46L251,57L257,57L269,57L267,49L277,44L286,36L300,43L302,55L306,58L317,57L321,60L326,75L339,84L346,91L357,98L372,104L371,112L368,112L363,108L361,113L352,115L350,126L344,130L335,132L333,138L325,140L314,135L313,124L305,123L292,111L284,110L272,103L264,102L259,104L252,104L244,112L235,114L233,105L234,90L226,85L229,76L221,75L224,63L234,66L244,62L236,53L233,45L224,49L223,59Z" fill="#E0E0E0" stroke="#fff" stroke-width=".4"/><path d="M177,209L171,202L171,196L167,196L169,187L163,177L150,170L143,157L145,147L151,143L150,135L143,131L136,115L130,104L132,99L128,83L136,79L138,85L143,91L150,93L154,93L167,82L171,81L174,85L171,92L177,100L180,99L184,109L194,112L201,119L217,121L234,117L235,114L244,112L252,104L259,104L264,102L272,103L284,110L292,111L305,123L313,124L314,135L309,152L306,161L311,163L306,170L310,180L311,189L319,191L320,199L310,210L315,217L320,224L330,230L330,240L336,242L337,248L321,254L317,268L296,265L285,262L272,260L268,246L263,243L254,246L243,251L230,247L219,238L209,235L201,223L193,206L188,208L181,204Z" fill="#E0E0E0" stroke="#fff" stroke-width=".4"/><path d="M37,174L37,174L39,172L39,166L41,159L47,154L45,149L40,148L39,138L42,133L45,130L48,127L49,119L52,122L64,118L70,121L79,121L91,116L97,116L109,114L104,122L98,126L99,135L95,151L71,165L50,179Z" fill="#E0E0E0" stroke="#fff" stroke-width=".4"/><path d="M154,93L150,93L146,85L146,83L141,83L138,79L136,79L132,75L123,72L125,65L123,60L138,58L140,61L144,64L142,67L148,72L145,77L149,81L154,83Z" fill="#E0E0E0" stroke="#fff" stroke-width=".4"/><path d="M-230,-244L-225,-256L-216,-271L-213,-297L-220,-309L-220,-340L-213,-363L-203,-362L-199,-372L-203,-381L-186,-418L-175,-448L-168,-468L-158,-468L-155,-485L-134,-480L-133,-500L-126,-501L-111,-486L-95,-466L-94,-423L-91,-413L-109,-405L-120,-387L-118,-371L-135,-352L-156,-331L-164,-298L-156,-283L-146,-270L-156,-246L-167,-241L-171,-207L-178,-189L-191,-191L-197,-175L-209,-174L-213,-193L-222,-215Z" fill="#E0E0E0" stroke="#fff" stroke-width=".4"/><path d="M-44,-190L-33,-185L-31,-180L-26,-183L-15,-178L-14,-169L-16,-164L-10,-152L-5,-148L-6,-145L2,-142L5,-137L0,-133L-8,-134L-10,-132L-8,-126L-5,-115L-15,-114L-18,-110L-19,-101L-23,-103L-33,-102L-35,-106L-40,-103L-44,-105L-52,-106L-64,-110L-75,-111L-84,-111L-90,-106L-95,-105L-95,-113L-98,-121L-92,-125L-92,-132L-95,-139L-95,-147L-85,-147L-73,-154L-70,-165L-62,-171L-63,-179L-56,-183Z" fill="#E0E0E0" stroke="#fff" stroke-width=".4"/><path d="M-5,-115L-1,-114L2,-118L5,-117L16,-119L23,-109L20,-105L21,-100L30,-99L34,-92L34,-88L47,-82L56,-85L62,-77L69,-77L85,-72L85,-67L80,-58L83,-49L81,-44L71,-43L65,-38L65,-31L56,-30L49,-25L39,-24L29,-18L30,-9L28,-10L27,-13L23,-14L16,-17L13,-13L11,-15L-6,-19L-6,-25L-16,-23L-20,-14L-29,-3L-34,-5L-39,-3L-44,-6L-41,-7L-39,-13L-36,-18L-37,-20L-35,-22L-34,-20L-27,-19L-24,-20L-26,-22L-26,-24L-29,-28L-31,-35L-35,-37L-34,-43L-39,-47L-43,-48L-51,-53L-59,-51L-61,-49L-66,-49L-68,-45L-76,-44L-80,-41L-85,-45L-92,-45L-99,-47L-104,-43L-104,-48L-110,-52L-108,-59L-105,-63L-103,-62L-106,-70L-96,-84L-90,-86L-89,-90L-95,-105L-90,-106L-84,-111L-75,-111L-64,-110L-52,-106L-44,-105L-40,-103L-35,-106L-33,-102L-23,-103L-19,-101L-18,-110L-15,-114Z" fill="#E0E0E0" stroke="#fff" stroke-width=".4"/><path d="M-95,-147L-95,-139L-92,-132L-92,-125L-98,-121L-95,-113L-95,-105L-89,-90L-90,-86L-96,-84L-106,-70L-103,-62L-105,-63L-115,-70L-123,-67L-128,-69L-135,-65L-140,-71L-145,-69L-145,-70L-150,-78L-158,-79L-159,-85L-167,-86L-168,-82L-174,-86L-174,-90L-182,-92L-187,-97L-191,-108L-191,-114L-193,-124L-197,-130L-194,-135L-197,-144L-189,-150L-172,-158L-159,-165L-148,-162L-147,-157L-137,-157L-123,-155L-103,-155L-98,-153Z" fill="#E0E0E0" stroke="#fff" stroke-width=".4"/><path d="M-166,-47L-166,-41L-173,-41L-171,-37L-174,-27L-176,-24L-186,-24L-191,-20L-200,-22L-216,-26L-218,-31L-229,-28L-230,-25L-237,-28L-242,-28L-247,-31L-245,-35L-246,-38L-242,-39L-237,-34L-235,-38L-226,-38L-218,-41L-213,-40L-210,-37L-209,-40L-210,-50L-206,-52L-202,-60L-194,-54L-188,-61L-184,-62L-176,-57L-171,-58L-166,-55L-167,-53Z" fill="#E0E0E0" stroke="#fff" stroke-width=".4"/><path d="M-110,-52L-104,-48L-104,-43L-110,-40L-115,-29L-122,-19L-131,-16L-137,-16L-146,-12L-150,-10L-159,-13L-167,-20L-170,-21L-172,-27L-174,-27L-171,-37L-173,-41L-166,-41L-166,-47L-160,-43L-156,-41L-147,-43L-146,-47L-142,-47L-137,-50L-135,-49L-130,-51L-128,-55L-124,-56L-113,-51Z" fill="#E0E0E0" stroke="#fff" stroke-width=".4"/><path d="M-61,-49L-59,-51L-51,-53L-43,-48L-39,-47L-34,-43L-35,-37L-31,-35L-29,-28L-26,-24L-26,-22L-24,-20L-27,-19L-34,-20L-35,-22L-37,-20L-36,-18L-39,-13L-41,-7L-44,-6L-46,-13L-44,-19L-45,-26L-51,-36L-55,-43L-58,-47Z" fill="#E0E0E0" stroke="#fff" stroke-width=".4"/><path d="M-44,-6L-39,-3L-34,-5L-29,-3L-29,1L-34,5L-37,3L-40,21L-47,20L-54,14L-67,18L-73,22L-88,21L-97,19L-101,20L-104,14L-106,11L-104,8L-106,6L-110,10L-116,5L-117,-1L-123,-5L-125,-9L-131,-16L-122,-19L-115,-29L-110,-40L-104,-43L-99,-47L-92,-45L-85,-45L-80,-41L-76,-44L-68,-45L-66,-49L-61,-49L-58,-47L-55,-43L-51,-36L-45,-26L-44,-19L-46,-13Z" fill="#E0E0E0" stroke="#fff" stroke-width=".4"/><path d="M-63,-179L-62,-171L-70,-165L-73,-154L-85,-147L-95,-147L-98,-153L-103,-155L-104,-160L-103,-165L-108,-168L-119,-171L-121,-187L-109,-193L-91,-192L-80,-194L-79,-190L-73,-189Z" fill="#E0E0E0" stroke="#fff" stroke-width=".4"/><path d="M-54,-216L-49,-211L-48,-202L-44,-190L-56,-183L-63,-179L-73,-189L-79,-190L-80,-194L-91,-192L-109,-193L-121,-187L-121,-202L-116,-215L-106,-222L-97,-206L-88,-207L-86,-222L-77,-226L-72,-223L-63,-216Z" fill="#E0E0E0" stroke="#fff" stroke-width=".4"/><path d="M-197,-144L-194,-135L-197,-130L-193,-124L-191,-114L-191,-108L-187,-97L-192,-96L-195,-97L-197,-94L-205,-91L-209,-87L-217,-83L-215,-78L-214,-71L-208,-67L-202,-60L-206,-52L-210,-50L-209,-40L-210,-37L-213,-40L-218,-41L-226,-38L-235,-38L-237,-34L-242,-39L-246,-38L-257,-43L-260,-39L-269,-39L-267,-51L-262,-62L-278,-65L-283,-69L-282,-77L-284,-81L-283,-92L-285,-110L-278,-110L-276,-117L-273,-133L-275,-139L-273,-143L-264,-144L-262,-140L-254,-149L-257,-156L-257,-167L-249,-164L-242,-167L-242,-160L-231,-156L-231,-149L-220,-153L-214,-158L-202,-150Z" fill="#E0E0E0" stroke="#fff" stroke-width=".4"/><path d="M-104,14L-101,20L-97,19L-88,21L-73,22L-67,18L-54,14L-47,20L-40,21L-46,28L-50,38L-46,47L-56,45L-67,49L-67,56L-77,58L-84,53L-93,57L-101,56L-102,47L-107,42L-105,40L-107,38L-105,34L-101,29L-106,22L-107,17Z" fill="#E0E0E0" stroke="#fff" stroke-width=".4"/><path d="M-65,140L-66,144L-82,145L-82,143L-95,140L-93,134L-87,139L-78,138L-70,139L-71,141ZM-101,56L-93,57L-84,53L-77,58L-67,56L-67,49L-61,53L-65,62L-67,64L-74,63L-80,62L-93,66L-85,74L-91,76L-97,76L-102,69L-104,72L-102,80L-97,87L-101,90L-95,96L-89,100L-89,108L-99,104L-96,111L-103,113L-99,125L-106,125L-115,119L-119,108L-121,99L-125,93L-131,85L-131,81L-126,74L-126,69L-122,67L-122,63L-115,62L-111,59L-105,59L-103,57Z" fill="#E0E0E0" stroke="#fff" stroke-width=".4"/><path d="M136,115L130,117L127,114L114,112L109,114L97,116L91,116L79,121L70,121L64,118L52,122L49,119L48,127L45,130L42,133L38,127L42,122L36,123L27,120L19,128L3,129L-6,122L-18,121L-20,127L-28,129L-38,121L-50,122L-57,108L-64,100L-59,90L-66,83L-54,69L-37,69L-33,58L-12,60L1,51L14,46L31,46L50,56L66,62L79,60L88,61L101,53L112,53L123,60L125,65L123,72L132,75L136,79L128,83L132,99L130,104ZM-67,49L-56,45L-46,47L-45,52L-35,57L-37,60L-50,61L-55,66L-64,73L-67,67L-67,64L-65,62L-61,53Z" fill="#E0E0E0" stroke="#fff" stroke-width=".4"/><path d="M-122,63L-122,67L-126,69L-126,74L-131,81L-133,80L-133,77L-139,72L-140,65L-139,55L-138,51L-140,48L-140,44L-136,37L-135,39L-132,38L-130,42L-127,44L-127,49L-128,54L-126,60Z" fill="#E0E0E0" stroke="#fff" stroke-width=".4"/><path d="M-170,-21L-167,-20L-159,-13L-150,-10L-146,-12L-143,-6L-140,-2L-144,4L-149,1L-156,1L-165,-2L-171,-1L-173,2L-177,-2L-179,5L-174,12L-171,16L-166,22L-162,25L-158,32L-149,37L-150,40L-160,34L-166,29L-176,24L-185,13L-183,12L-188,6L-188,1L-195,-2L-198,5L-202,-0L-201,-6L-201,-6L-193,-5L-191,-8L-188,-5L-184,-5L-184,-9L-180,-11L-179,-17Z" fill="#E0E0E0" stroke="#fff" stroke-width=".4"/><path d="M537,467L535,479L531,482L521,484L516,476L514,460L519,442L526,448L532,456Z" fill="#E0E0E0" stroke="#fff" stroke-width=".4"/><path d="M837,349L828,345L828,335L833,330L845,327L851,327L853,331L849,336L846,343ZM520,42L519,33L527,29L517,3L538,-3L544,-6L552,-35L573,-29L579,-37L580,-53L589,-54L597,-65L601,-67L604,-55L613,-46L629,-40L636,-28L632,-9L636,-3L649,0L663,2L677,12L683,13L688,27L695,36L707,36L729,39L743,37L754,39L770,48L783,48L788,53L801,45L818,40L834,39L847,34L855,26L862,21L861,16L857,10L863,0L869,2L880,5L891,-3L907,-9L915,-20L923,-24L939,-26L947,-24L948,-30L939,-41L930,-46L922,-40L911,-43L905,-41L902,-48L910,-64L915,-77L928,-70L943,-81L943,-88L953,-107L959,-112L959,-122L953,-126L962,-135L975,-138L990,-139L1006,-134L1015,-127L1022,-109L1026,-102L1030,-91L1034,-74L1053,-69L1066,-57L1070,-42L1086,-42L1096,-48L1114,-53L1108,-39L1104,-33L1100,-15L1093,-0L1080,-3L1070,2L1073,15L1072,33L1066,33L1066,41L1059,32L1055,41L1038,47L1040,54L1031,54L1025,49L1018,60L1006,67L997,76L982,81L974,87L962,91L968,84L966,79L974,69L969,62L959,67L947,77L940,86L930,87L924,93L930,102L939,105L939,111L948,115L960,105L969,110L976,111L978,118L963,122L958,129L947,136L942,145L953,152L958,165L964,177L972,187L971,196L965,200L967,206L974,210L972,220L969,230L963,231L955,244L946,260L936,275L921,286L906,296L894,297L888,302L884,298L878,304L863,310L851,312L847,324L841,325L838,316L841,312L827,308L821,310L810,307L805,302L807,295L797,293L792,289L783,295L772,296L763,296L758,299L752,301L754,314L748,314L747,311L747,306L739,310L734,308L726,303L729,294L722,291L720,280L708,282L709,268L720,258L720,248L720,239L715,236L712,229L705,230L693,228L697,223L692,215L684,220L675,217L663,225L653,234L644,236L639,232L634,232L626,229L620,232L613,241L612,232L605,234L593,233L580,230L572,225L563,223L560,217L554,215L543,207L534,203L529,206L514,197L504,189L501,175L508,177L509,170L504,163L506,153L494,137L476,132L473,122L465,115L463,111L461,103L462,98L455,95L452,96L449,83L452,80L450,77L461,70L468,67L480,69L484,60L498,59L502,53L519,45Z" fill="#E0E0E0" stroke="#fff" stroke-width=".4"/><path d="M970,276L964,295L959,305L953,295L952,286L958,275L967,266L972,269Z" fill="#E0E0E0" stroke="#fff" stroke-width=".4"/><path d="M-237,-28L-230,-25L-229,-28L-218,-31L-216,-26L-200,-22L-201,-14L-199,-7L-207,-9L-216,-4L-215,4L-217,8L-213,16L-203,23L-198,36L-186,47L-177,47L-174,50L-177,53L-168,59L-160,63L-151,70L-149,73L-151,78L-157,71L-167,69L-171,78L-164,84L-165,91L-169,92L-175,104L-180,105L-180,100L-177,93L-175,90L-179,82L-183,75L-187,73L-190,67L-197,64L-202,58L-210,58L-218,51L-228,42L-236,33L-239,18L-245,17L-253,12L-258,14L-265,21L-269,22L-268,15L-274,13L-277,1L-273,-3L-276,-9L-276,-13L-271,-10L-266,-11L-260,-16L-258,-14L-253,-14L-250,-20L-242,-19L-237,-21ZM-190,101L-181,100L-185,111L-184,115L-186,122L-194,117L-200,116L-215,109L-213,102L-201,103ZM-255,63L-250,58L-243,68L-245,87L-250,86L-254,91L-258,87L-259,70L-261,62Z" fill="#E0E0E0" stroke="#fff" stroke-width=".4"/><path d="M153,49L156,49L164,58L169,59L170,55L177,50L183,57L188,67L193,68L196,72L188,73L186,84L184,89L180,92L180,99L177,100L171,92L174,85L171,81L167,82L154,93L154,83L149,81L145,77L148,72L142,67L144,64L140,61L138,58L140,55L148,59L154,60L156,59L150,51ZM150,93L143,91L138,85L136,79L138,79L141,83L146,83L146,85Z" fill="#E0E0E0" stroke="#fff" stroke-width=".4"/><path d="M83,26L85,24L94,26L110,29L125,36L126,39L133,36L143,39L146,45L153,49L150,51L156,59L154,60L148,59L140,55L138,58L123,60L112,53L101,53L102,47L100,37L93,32L87,30Z" fill="#E0E0E0" stroke="#fff" stroke-width=".4"/><path d="M960,410L954,402L964,402L967,406L965,416ZM979,440L982,437L983,431L989,430L987,437L995,427L994,437L990,441L987,448L983,451L977,443ZM1020,458L1021,465L1022,471L1018,481L1014,470L1009,475L1013,484L1009,489L997,482L994,474L997,469L990,464L987,469L982,468L974,474L972,471L976,462L983,459L989,455L993,460L1001,457L1003,452L1010,451L1010,443L1018,448L1019,454ZM935,448L920,458L926,451L933,444L940,436L946,425L948,434L940,440ZM976,348L974,353L978,361L975,371L969,374L967,383L970,392L975,394L980,392L994,398L993,404L996,407L995,412L987,407L983,401L980,405L973,398L963,400L958,398L958,393L962,390L958,387L957,392L952,385L950,380L950,369L954,373L955,355L959,345L965,345L972,348L975,345ZM973,425L971,419L978,423L985,423L985,427L980,432L973,435L972,430ZM1011,416L1014,429L1005,426L1005,430L1008,436L1003,439L1003,431L999,430L998,424L1004,425L1004,420L997,412L1008,412Z" fill="#E0E0E0" stroke="#fff" stroke-width=".4"/><path d="M735,479L737,477L746,482L747,487L754,486L757,482L760,483L766,489L771,497L771,504L770,509L771,513L772,519L776,522L780,532L780,535L772,536L762,528L749,519L748,514L742,506L740,497L736,492L737,484ZM928,504L919,502L906,502L902,515L898,519L893,534L884,536L874,533L868,534L862,539L855,539L848,541L841,535L839,527L847,531L855,529L857,520L862,518L875,516L883,507L888,500L893,506L895,502L900,502L901,495L902,490L910,483L915,474L920,474L925,479L926,484L933,487L942,491L941,495L934,495L936,501Z" fill="#E0E0E0" stroke="#fff" stroke-width=".4"/><path d="M902,490L901,495L900,502L895,502L893,506L888,500L892,496Z" fill="#E0E0E0" stroke="#fff" stroke-width=".4"/><path d="M-200,-22L-191,-20L-186,-24L-176,-24L-174,-27L-172,-27L-170,-21L-179,-17L-180,-11L-184,-9L-184,-5L-188,-5L-191,-8L-193,-5L-201,-6L-199,-7L-201,-14Z" fill="#E0E0E0" stroke="#fff" stroke-width=".4"/><path d="M-105,-63L-108,-59L-110,-52L-113,-51L-124,-56L-128,-55L-130,-51L-135,-49L-137,-50L-142,-47L-146,-47L-147,-43L-156,-41L-160,-43L-166,-47L-167,-53L-166,-55L-164,-59L-160,-58L-156,-60L-156,-62L-153,-62L-153,-66L-150,-67L-149,-70L-145,-70L-145,-69L-140,-71L-135,-65L-128,-69L-123,-67L-115,-70Z" fill="#E0E0E0" stroke="#fff" stroke-width=".4"/><path d="M-187,-97L-182,-92L-174,-90L-174,-86L-168,-82L-167,-86L-159,-85L-158,-79L-150,-78L-145,-70L-149,-70L-150,-67L-153,-66L-153,-62L-156,-62L-156,-60L-160,-58L-164,-59L-166,-55L-171,-58L-176,-57L-184,-62L-188,-61L-194,-54L-202,-60L-208,-67L-214,-71L-215,-78L-217,-83L-209,-87L-205,-91L-197,-94L-195,-97L-192,-96Z" fill="#E0E0E0" stroke="#fff" stroke-width=".4"/><path d="M45,391L44,387L49,370L50,363L53,359L61,357L67,351L73,364L76,374L82,380L97,390L103,397L109,403L112,407L117,410L114,413L109,412L106,409L101,402L96,398L94,395L84,390L77,390L74,388L68,390L61,385L58,394Z" fill="#E0E0E0" stroke="#fff" stroke-width=".4"/><path d="M214,339L222,358L226,366L218,369L216,374L216,378L205,383L188,388L178,396L173,397L170,396L164,400L157,403L148,403L145,404L142,407L140,408L138,410L133,410L129,412L122,411L119,405L119,399L117,395L115,387L112,382L114,382L113,377L114,374L114,370L119,366L118,361L120,356L125,359L128,358L140,357L142,358L153,360L157,359L160,363L165,361L173,349L183,344Z" fill="#E0E0E0" stroke="#fff" stroke-width=".4"/><path d="M29,216L41,218L46,214L49,210L57,208L59,204L62,202L51,189L73,183L75,181L88,184L104,193L135,218L155,219L165,221L167,226L175,226L179,237L185,239L186,244L194,249L195,254L193,258L195,262L198,265L199,269L201,272L204,275L207,274L209,278L210,281L214,293L246,299L249,296L254,305L246,328L214,339L183,344L173,349L165,361L160,363L157,359L153,360L142,358L140,357L128,358L125,359L120,356L118,361L119,366L114,370L113,365L109,361L108,357L103,353L97,343L94,334L87,326L82,324L74,313L73,305L74,298L68,285L62,280L57,278L53,271L54,268L51,262L47,259L43,250L37,241L31,232L26,232L27,225L28,221Z" fill="#E0E0E0" stroke="#fff" stroke-width=".4"/><path d="M5,142L6,142L7,139L15,139L25,135L18,141L19,143L17,143L15,144L14,143L13,144L13,142L12,142L10,141L7,143Z" fill="#E0E0E0" stroke="#fff" stroke-width=".4"/><path d="M5,142L7,143L10,141L12,142L13,142L13,144L14,143L15,144L17,143L19,143L19,144L8,149L2,148L-0,142Z" fill="#E0E0E0" stroke="#fff" stroke-width=".4"/><path d="M50,305L7,305L-35,305L-79,305L-79,261L-79,218L-82,208L-79,200L-81,194L-77,188L-63,188L-52,191L-41,195L-36,197L-28,193L-24,190L-14,188L-6,190L-3,196L-1,192L8,195L16,196L22,193L28,211L29,214L26,219L23,229L20,235L18,237L14,233L9,228L2,210L1,211L5,224L12,237L20,255L24,262L27,269L37,282L35,284L35,292L48,302Z" fill="#E0E0E0" stroke="#fff" stroke-width=".4"/><path d="M-79,305L-79,328L-91,328L-91,333L-135,311L-178,288L-189,295L-196,299L-203,292L-220,287L-224,280L-233,274L-238,277L-242,270L-242,265L-249,256L-244,251L-245,243L-244,237L-245,231L-243,221L-243,215L-247,204L-242,201L-241,196L-242,191L-234,186L-231,182L-226,178L-225,168L-212,173L-208,172L-199,174L-184,179L-179,191L-170,193L-154,199L-143,205L-138,201L-132,196L-135,186L-131,180L-124,174L-116,172L-102,175L-98,180L-94,180L-90,183L-80,184L-77,188L-81,194L-79,200L-82,208L-79,218L-79,261Z" fill="#E0E0E0" stroke="#fff" stroke-width=".4"/><path d="M168,462L138,495L124,495L114,503L107,503L104,507L97,507L92,503L82,508L79,512L72,511L69,510L67,510L63,510L50,501L42,501L39,497L39,491L33,489L26,478L22,475L20,471L14,465L7,465L11,458L17,458L19,455L18,445L22,433L27,430L28,426L32,417L39,412L43,401L45,391L58,394L61,385L68,390L74,388L77,390L84,390L94,395L96,398L101,402L106,409L109,412L106,417L102,422L103,425L103,429L109,429L112,428L114,430L112,434L116,440L120,445L124,449L159,462Z" fill="#E0E0E0" stroke="#fff" stroke-width=".4"/><path d="M109,412L114,413L117,410L120,414L119,418L113,421L118,424L114,430L112,428L109,429L103,429L103,425L102,422L106,417Z" fill="#E0E0E0" stroke="#fff" stroke-width=".4"/><path d="M181,425L181,425L181,429L181,441L181,446L176,453L168,462L159,462L124,449L120,445L116,440L112,434L114,430L118,424L121,426L124,431L128,435L134,435L144,433L156,431L165,428L171,427L175,425Z" fill="#E0E0E0" stroke="#fff" stroke-width=".4"/><path d="M-149,37L-158,32L-162,25L-166,22L-171,16L-174,12L-179,5L-177,-2L-173,2L-171,-1L-165,-2L-156,1L-149,1L-144,4L-140,4L-142,11L-137,16L-139,24L-141,24L-143,26L-147,29Z" fill="#E0E0E0" stroke="#fff" stroke-width=".4"/><path d="M-107,42L-102,47L-101,56L-103,57L-105,59L-111,59L-115,62L-122,63L-126,60L-128,54L-127,49L-125,49L-125,46L-118,44L-116,43L-112,42Z" fill="#E0E0E0" stroke="#fff" stroke-width=".4"/><path d="M-146,-12L-137,-16L-131,-16L-125,-9L-123,-5L-117,-1L-116,5L-110,10L-106,6L-104,8L-106,11L-104,14L-107,17L-106,22L-101,29L-105,34L-107,38L-105,40L-107,42L-112,42L-116,43L-116,42L-115,40L-114,37L-115,37L-117,34L-119,33L-121,31L-123,30L-124,28L-126,29L-128,34L-130,35L-129,34L-133,30L-137,29L-139,27L-141,24L-139,24L-137,16L-142,11L-140,4L-144,4L-140,-2L-143,-6Z" fill="#E0E0E0" stroke="#fff" stroke-width=".4"/><path d="M-132,38L-135,39L-136,37L-140,44L-140,48L-142,47L-145,43L-150,40L-149,37L-147,29L-143,26L-141,24L-139,27L-137,29L-133,30L-129,34L-130,35Z" fill="#E0E0E0" stroke="#fff" stroke-width=".4"/><path d="M-127,49L-127,44L-130,42L-132,38L-130,35L-128,34L-126,29L-124,28L-123,30L-121,31L-119,33L-117,34L-115,37L-114,37L-115,40L-116,42L-116,43L-118,44L-125,46L-125,49Z" fill="#E0E0E0" stroke="#fff" stroke-width=".4"/><path d="M-16,511L-25,504L-28,499L-34,502L-39,501L-42,503L-46,501L-53,492L-55,489L-63,485L-66,478L-70,473L-77,468L-77,464L-83,460L-91,455L-87,454L-84,452L-81,442L-78,437L-70,436L-68,439L-63,445L-60,446L-56,444L-48,445L-47,447L-36,447L-35,445L-30,443L-29,439L-25,437L-15,443L-10,442L-4,434L1,428L1,422L-2,418L4,418L5,415L10,416L9,424L10,432L16,437L17,440L17,446L18,446L19,455L17,458L11,458L7,465L14,465L20,471L22,475L26,478L33,489L26,497L19,503L12,508L5,508L-4,511L-11,508Z" fill="#E0E0E0" stroke="#fff" stroke-width=".4"/></g><g clip-path="url(#v)"><path d="M371.3,112.3L374.6,111.9L377.2,112.4L378.6,113.8L379.9,114.1L381.3,113.5L382.1,113.4L382.4,113.8L383.1,114.0L384.1,113.9L384.7,114.3L384.7,114.7L384.8,115.1L385.5,116.1L386.9,117.4L388.1,117.7L389.6,116.7L390.2,116.8L390.4,116.5L390.6,115.8L391.5,115.1L393.2,114.5L394.2,114.0L394.6,113.5L395.2,113.4L395.8,113.5L396.2,113.3L396.4,112.9L396.6,112.7L396.9,112.5L397.2,112.5L397.7,112.6L398.7,113.4L400.1,114.9L401.0,115.5L401.4,115.4L402.0,115.0L402.6,114.2L402.8,113.0L402.5,111.6L402.7,110.4L403.5,109.5L404.9,108.9L407.1,108.7L408.3,108.8L408.9,109.3L409.5,109.6L410.3,109.6L411.0,109.1L411.7,107.9L411.8,106.6L411.2,104.9L411.3,104.4L411.6,104.2L412.4,103.6L413.5,102.3L414.6,100.7L415.7,98.7L417.0,97.5L418.5,97.0L420.4,97.6L422.6,99.1L423.4,101.0L422.9,103.2L422.9,104.5L423.3,104.7L424.1,104.6L425.1,104.3L425.8,104.3L426.1,104.6L426.1,105.2L425.7,106.2L425.3,108.8L425.0,111.1L424.8,113.3L424.5,115.3L425.0,116.8L425.6,119.1L426.3,120.6L427.0,121.1L427.8,121.3L428.5,121.1L430.0,120.2L432.3,118.3L434.6,117.2L437.8,116.6L438.9,114.7L440.4,113.4L443.8,111.5L445.6,110.7L446.7,110.6L448.1,110.9L448.4,111.0L448.6,111.1L449.3,111.3L449.5,111.9L449.3,112.5L448.5,113.0L448.3,113.4L448.6,113.7L449.6,113.9L451.8,113.2L453.2,112.7L454.2,112.5L454.5,111.9L455.2,111.4L456.1,111.3L457.2,111.6L458.0,111.8L459.5,111.6L460.3,112.1L461.4,113.1L461.8,113.7L462.0,113.9L461.4,113.9L460.7,113.6L460.4,113.1L460.2,113.1L459.6,113.4L458.4,113.8L456.4,114.9L456.4,115.1L457.7,116.2L458.1,116.6L458.2,116.7L457.0,117.2L454.5,118.4L452.8,119.4L452.4,119.4L451.3,119.0L449.9,118.5L449.4,118.5L446.0,118.6L442.8,118.8L441.4,119.0L439.0,119.2L437.4,119.3L436.4,119.7L435.3,120.2L434.2,120.5L433.4,120.6L432.4,121.0L431.7,122.0L429.8,123.3L428.7,124.0L428.2,124.7L427.6,124.7L426.6,124.6L425.7,125.4L424.8,126.5L423.2,128.2L422.4,128.9L421.8,129.9L422.2,130.5L423.6,131.3L424.1,132.1L424.5,132.7L425.1,134.3L425.5,135.9L426.0,136.5L426.2,137.7L426.3,138.4L426.0,138.9L425.7,139.4L425.7,140.0L426.1,140.5L426.4,141.0L426.6,141.4L426.4,141.8L425.7,142.5L425.4,143.1L424.8,144.2L423.7,145.0L423.0,145.5L422.3,146.7L421.1,148.0L420.6,149.1L420.0,149.7L419.5,150.0L419.6,150.6L420.1,151.3L420.9,152.1L420.8,153.4L420.8,154.3L420.8,155.4L420.4,156.3L418.2,157.2L416.1,157.6L413.5,157.6L412.5,157.5L411.7,157.3L408.9,156.3L407.8,156.9L407.6,158.3L409.6,160.6L410.4,161.9L411.4,164.1L412.1,165.2L411.8,166.2L410.0,167.4L408.1,168.5L405.8,168.7L404.3,169.1L403.6,169.7L403.1,172.1L402.5,173.0L402.6,174.0L402.1,175.2L401.3,176.0L400.8,177.2L400.9,179.6L401.2,183.6L400.2,184.9L399.1,186.1L397.9,187.0L396.8,187.5L395.8,187.3L395.0,186.5L394.6,185.9L393.8,185.3L393.0,185.4L392.1,185.9L390.8,185.8L389.7,185.3L389.1,185.3L388.7,185.8L387.5,186.9L384.5,188.6L383.3,188.7L382.7,189.1L382.9,189.8L383.5,190.3L384.4,190.7L384.5,191.2L383.6,191.5L382.9,192.0L381.4,192.5L379.6,192.8L377.8,192.4L376.8,191.7L375.6,191.6L374.6,192.2L373.6,193.0L372.4,194.9L372.1,195.3L371.8,195.6L371.0,196.0L369.9,196.6L369.4,198.0L368.7,200.5L368.9,201.8L369.0,204.1L368.7,205.7L368.2,206.7L368.3,207.5L369.1,208.5L368.7,209.1L368.2,209.8L367.6,210.1L365.2,210.9L362.0,211.8L359.9,212.4L356.8,213.4L355.8,213.6L353.9,213.7L352.9,213.5L351.6,213.5L349.6,213.5L348.2,213.8L346.8,214.2L345.8,214.8L345.2,215.4L345.1,215.7L343.6,215.2L339.3,214.3L327.5,215.5L326.3,215.3L322.3,214.0L317.1,212.3L313.9,211.2L309.7,209.9L312.6,206.5L315.0,203.5L317.5,200.6L320.0,197.6L320.2,196.6L320.3,194.6L319.7,191.9L318.6,190.7L315.2,190.2L312.7,189.8L309.9,189.4L309.5,189.2L309.2,187.1L309.3,186.2L309.2,184.4L309.2,183.0L309.6,180.6L309.6,179.6L308.3,175.1L307.6,172.6L306.9,170.0L306.7,169.2L306.7,168.2L308.4,165.8L308.9,165.2L309.9,164.0L310.6,163.4L310.4,163.0L309.4,162.7L307.7,162.7L306.8,162.3L306.2,161.7L305.9,160.7L306.3,159.0L305.9,155.7L306.8,154.1L307.6,152.9L310.2,152.8L309.3,151.5L308.9,150.7L308.6,150.5L308.5,150.2L308.6,149.8L309.3,149.7L309.8,149.3L310.5,148.6L310.9,148.4L311.0,147.6L311.3,147.1L311.9,146.5L312.3,145.7L312.2,144.8L312.6,143.8L312.8,143.1L313.1,142.6L312.8,141.7L312.6,141.0L312.6,140.2L313.0,140.0L313.5,139.7L313.6,139.0L313.9,138.2L314.1,137.5L314.5,137.0L314.5,136.4L314.3,135.6L315.2,135.4L315.6,135.9L316.0,136.6L317.4,137.7L318.2,138.1L319.3,138.2L320.6,138.1L321.6,137.9L322.1,137.9L323.2,138.8L324.6,140.0L325.0,140.5L325.2,141.3L325.6,141.5L326.5,140.7L327.3,140.5L328.1,140.6L328.9,140.7L329.8,140.4L330.1,140.2L331.6,139.2L332.9,138.4L333.7,137.9L334.1,136.3L334.4,135.3L334.9,134.8L334.8,134.1L334.5,133.6L334.3,132.9L334.5,132.6L335.1,132.4L336.4,132.4L338.7,131.6L340.7,130.9L342.5,130.3L343.3,130.2L344.1,130.3L344.4,130.2L344.5,129.6L345.0,129.0L346.0,128.5L347.9,127.5L349.5,125.9L350.1,124.7L350.5,123.0L351.3,120.4L352.1,117.5L352.4,116.2L352.8,115.2L354.3,114.4L355.8,113.8L358.1,113.7L360.8,113.6L361.4,112.0L361.8,110.6L362.2,109.9L362.8,109.4L363.1,109.2L364.6,110.1L366.8,111.4L369.4,112.0L370.8,112.3Z" fill="#4ECDC4" stroke="#2C3E50" stroke-width="1"/></g><circle cx="400.0" cy="150.0" r="4" fill="#E74C3C" stroke="#fff" stroke-width="2"/><text x="400.0" y="140.0" text-anchor="middle" font-family="sans-serif" font-weight="700" font-size="10" fill="#2D3436">Kabul</text></svg>