<svg viewBox="0 0 800 300" xmlns="http://www.w3.org/2000/svg"><defs><clipPath id="v"><rect width="800" height="300"/></clipPath></defs><rect width="800" height="300" fill="#DCEEF8"/><g clip-path="url(#v)"><path d="M-288,82L-287,62L-305,40L-288,28L-282,-1L-288,-41L-280,-54L-225,-53L-184,-34L-166,-36L-153,-10L-115,-11L-117,11L-86,13L-52,41L-78,70L-111,55L-143,58L-166,54L-178,67L-205,72L-216,54L-239,65L-267,115L-285,103Z" fill="#E0E0E0" stroke="#fff" stroke-width=".4"/><path d="M49,1276L36,1285L22,1243L3,1221L-20,1245L-156,1244L-155,1287L-115,1295L-117,1321L-131,1314L-170,1326L-170,1376L-139,1402L-129,1442L-130,1472L-162,1664L-196,1627L-217,1625L-172,1554L-226,1521L-268,1527L-293,1515L-331,1533L-383,1525L-424,1451L-457,1433L-479,1400L-525,1367L-544,1374L-574,1357L-608,1334L-628,1346L-687,1336L-704,1306L-717,1307L-787,1267L-797,1245L-771,1240L-774,1205L-757,1180L-723,1175L-693,1131L-667,1094L-692,1078L-679,1037L-695,973L-680,955L-691,895L-719,858L-710,823L-688,829L-675,808L-691,766L-682,756L-646,758L-594,709L-565,701L-564,678L-552,618L-512,585L-468,583L-462,569L-407,575L-353,539L-325,523L-291,488L-267,493L-248,511L-262,535L-307,547L-325,583L-352,603L-372,630L-380,680L-400,722L-364,726L-355,759L-339,774L-334,803L-342,829L-340,844L-322,849L-306,874L-216,867L-176,876L-126,937L-98,929L-48,933L-8,925L17,937L4,975L-11,998L-17,1049L-3,1095L17,1116L19,1132L-16,1166L9,1182L28,1206Z" fill="#E0E0E0" stroke="#fff" stroke-width=".4"/><path d="M91,48L126,54L139,69L121,87L68,87L28,89L23,58L34,47Z" fill="#E0E0E0" stroke="#fff" stroke-width=".4"/></g><g clip-path="url(#v)"><path d="M409.3,156.0L407.0,158.9L399.2,157.8L397.7,154.1L397.5,151.6L402.2,146.4L407.8,148.7L410.0,151.1L411.5,151.6L411.5,153.7L410.8,155.2ZM407.3,116.8L406.3,118.7L400.5,115.1L398.7,108.6L399.0,107.2L399.7,106.5L402.0,107.8L405.0,108.3L407.0,110.4Z" fill="#4ECDC4" stroke="#2C3E50" stroke-width="1"/></g><circle cx="400.0" cy="150.0" r="4" fill="#E74C3C" stroke="#fff" stroke-width="2"/><text x="400.0" y="140.0" text-anchor="middle" font-family="sans-serif" font-weight="700" font-size="10" fill="#2D3436">St. John's</text></svg>