<svg viewBox="0 0 800 300" xmlns="http://www.w3.org/2000/svg"><defs><clipPath id="v"><rect width="800" height="300"/></clipPath></defs><rect width="800" height="300" fill="#DCEEF8"/><g clip-path="url(#v)"><path d="M-1707,1368L-1724,1395L-1734,1416L-1745,1428L-1759,1430L-1763,1421L-1770,1420L-1779,1428L-1792,1422L-1784,1410L-1781,1396L-1776,1383L-1788,1366L-1790,1346L-1775,1320L-1765,1324L-1743,1331L-1712,1356ZM-2,-192L12,-180L54,-172L40,-142L36,-110L28,-103L14,-107L15,-96L-6,-71L-7,-52L7,-59L17,-40L16,-28L25,-12L15,0L22,32L38,38L35,55L8,78L-50,67L-93,81L-96,105L-130,110L-164,92L-174,100L-229,82L-240,66L-225,42L-219,-41L-250,-86L-272,-108L-317,-125L-320,-157L-281,-167L-232,-155L-241,-207L-213,-187L-145,-223L-136,-261L-110,-270L-106,-254L-92,-253L-79,-234L-58,-213L-43,-216L-17,-195L-10,-191ZM74,99L93,83L98,118L88,148L74,140L68,113Z" fill="#E0E0E0" stroke="#fff" stroke-width=".4"/><path d="M869,469L864,480L853,475L847,498L854,502L847,507L845,516L859,511L860,525L845,579L842,571L826,521L834,509L832,507L840,491L846,465L850,456L851,456L861,456L864,449L872,449L872,463L868,469Z" fill="#E0E0E0" stroke="#fff" stroke-width=".4"/><path d="M872,449L864,449L861,456L851,456L862,427L876,402L877,400L890,402L895,416L879,430Z" fill="#E0E0E0" stroke="#fff" stroke-width=".4"/><path d="M859,511L845,516L847,507L854,502L847,498L853,475L864,480L864,501Z" fill="#E0E0E0" stroke="#fff" stroke-width=".4"/><path d="M95,552L83,490L65,476L64,468L40,447L38,420L56,400L63,370L58,336L64,317L96,302L117,306L116,325L141,311L143,318L128,336L128,353L138,362L134,394L115,412L121,431L136,432L143,448L154,454L153,481L138,491L129,502L109,515L112,530L110,544Z" fill="#E0E0E0" stroke="#fff" stroke-width=".4"/><path d="M-440,650L-440,644L-440,641L-440,602L-392,577L-363,572L-339,562L-327,545L-293,532L-292,506L-275,503L-261,490L-223,485L-217,471L-225,464L-235,426L-237,405L-248,382L-220,362L-188,355L-169,340L-141,329L-91,323L-42,320L-27,325L0,311L32,310L44,319L64,317L58,336L63,370L56,400L38,420L40,447L64,468L65,476L83,490L95,552L105,582L106,598L101,625L103,640L100,658L102,679L90,693L108,717L109,731L120,749L133,743L157,758L169,778L68,839L-17,901L-58,915L-91,918L-91,898L-105,893L-124,884L-131,869L-230,800L-329,730Z" fill="#E0E0E0" stroke="#fff" stroke-width=".4"/><path d="M864,480L869,469L902,483L959,445L971,488L966,493L907,511L936,545L926,551L921,562L899,567L892,579L879,590L846,584L845,579L860,525L859,511L864,501Z" fill="#E0E0E0" stroke="#fff" stroke-width=".4"/><path d="M971,488L959,445L1025,408L1036,365L1033,338L1049,329L1064,306L1077,300L1111,305L1121,315L1136,308L1155,352L1174,363L1176,384L1161,397L1155,424L1175,458L1211,477L1226,504L1221,529L1231,529L1231,547L1247,565L1230,563L1210,560L1189,593L1134,590L1051,522L1007,497Z" fill="#E0E0E0" stroke="#fff" stroke-width=".4"/><path d="M869,469L868,469L872,463L872,449L879,430L895,416L890,402L877,400L874,373L881,358L889,350L897,342L899,321L908,329L941,318L957,325L981,325L1015,311L1031,312L1064,306L1049,329L1033,338L1036,365L1025,408L959,445L902,483Z" fill="#E0E0E0" stroke="#fff" stroke-width=".4"/><path d="M753,-315L764,-313L771,-324L780,-322L811,-327L830,-299L822,-290L825,-275L848,-273L859,-253L858,-243L895,-227L918,-235L936,-213L953,-213L997,-199L997,-185L985,-162L992,-137L987,-122L959,-119L943,-107L943,-88L919,-84L899,-70L872,-68L846,-52L848,-29L843,-31L840,-39L830,-41L809,-50L801,-39L797,-44L751,-55L749,-71L722,-65L711,-42L688,-11L675,-18L661,-11L648,-19L655,-23L661,-38L669,-51L667,-59L673,-63L676,-57L693,-55L701,-59L695,-63L697,-69L687,-80L683,-98L672,-105L674,-120L661,-132L649,-134L627,-148L607,-143L600,-137L588,-137L581,-126L559,-122L549,-115L535,-126L516,-126L498,-131L485,-122L483,-134L467,-146L473,-164L481,-175L487,-173L480,-193L506,-231L521,-236L524,-249L509,-290L523,-292L540,-305L562,-306L592,-302L625,-291L648,-290L659,-283L670,-292L678,-280L705,-283L716,-278L718,-302L727,-312Z" fill="#E0E0E0" stroke="#fff" stroke-width=".4"/><path d="M508,-404L509,-382L517,-363L517,-344L500,-334L509,-312L509,-290L524,-249L521,-236L506,-231L480,-193L487,-173L481,-175L453,-193L432,-186L418,-191L400,-181L385,-197L373,-191L371,-194L358,-216L336,-219L333,-233L313,-239L309,-227L293,-236L294,-249L272,-253L258,-268L246,-298L249,-315L241,-341L231,-358L239,-371L232,-396L252,-411L298,-434L335,-452L365,-443L367,-431L395,-430L432,-424L486,-425L501,-420Z" fill="#E0E0E0" stroke="#fff" stroke-width=".4"/><path d="M316,-132L314,-114L297,-114L303,-105L293,-77L288,-70L262,-69L247,-59L223,-62L181,-73L174,-88L145,-81L141,-73L124,-79L108,-80L95,-88L100,-98L99,-106L107,-108L122,-96L127,-108L153,-106L174,-114L188,-113L197,-104L200,-111L195,-140L206,-145L217,-166L238,-152L255,-170L265,-173L288,-160L302,-162L316,-153L313,-148Z" fill="#E0E0E0" stroke="#fff" stroke-width=".4"/><path d="M467,-146L483,-134L485,-122L467,-113L453,-83L435,-54L412,-46L393,-48L371,-37L360,-30L335,-38L313,-57L304,-62L298,-76L293,-77L303,-105L297,-114L314,-114L316,-132L331,-121L342,-116L367,-122L369,-130L381,-132L395,-139L399,-136L412,-141L419,-152L429,-155L460,-141Z" fill="#E0E0E0" stroke="#fff" stroke-width=".4"/><path d="M600,-137L607,-143L627,-148L649,-134L661,-132L674,-120L672,-105L683,-98L687,-80L697,-69L695,-63L701,-59L693,-55L676,-57L673,-63L667,-59L669,-51L661,-38L655,-23L648,-19L643,-38L646,-56L645,-75L628,-101L619,-119L609,-132Z" fill="#E0E0E0" stroke="#fff" stroke-width=".4"/><path d="M648,-19L661,-11L675,-18L688,-11L689,0L675,9L666,5L658,55L640,51L619,36L584,45L569,56L526,54L504,47L492,50L484,33L478,26L485,19L478,14L469,23L451,11L449,-6L431,-16L428,-29L412,-46L435,-54L453,-83L467,-113L485,-122L498,-131L516,-126L535,-126L549,-115L559,-122L581,-126L588,-137L600,-137L609,-132L619,-119L628,-101L645,-75L646,-56L643,-38Z" fill="#E0E0E0" stroke="#fff" stroke-width=".4"/><path d="M232,-396L239,-371L231,-358L241,-341L249,-315L246,-298L258,-268L245,-263L238,-269L230,-260L209,-251L198,-239L177,-229L182,-215L185,-196L200,-185L217,-166L206,-145L195,-140L200,-111L197,-104L188,-113L174,-114L153,-106L127,-108L122,-96L107,-108L99,-106L67,-119L61,-110L36,-110L40,-142L54,-172L12,-180L-2,-192L-0,-212L-6,-223L-3,-254L-8,-303L10,-303L17,-321L25,-366L19,-383L25,-393L50,-396L55,-385L75,-410L68,-428L67,-457L89,-451L108,-458L109,-439L139,-427L138,-409L168,-418L185,-432L218,-412Z" fill="#E0E0E0" stroke="#fff" stroke-width=".4"/><path d="M484,33L492,50L504,47L526,54L569,56L584,45L619,36L640,51L658,55L642,72L632,101L641,123L616,118L586,130L585,150L559,154L538,140L514,151L492,150L490,124L475,111L480,105L477,100L482,88L493,75L479,58L476,43Z" fill="#E0E0E0" stroke="#fff" stroke-width=".4"/><path d="M591,377L587,387L545,390L545,385L509,378L514,362L531,374L553,372L575,375L575,381ZM492,150L514,151L538,140L559,154L585,150L586,130L600,141L591,165L584,170L566,169L550,165L515,175L535,197L520,203L504,203L488,183L483,192L489,215L504,233L493,241L509,258L524,269L524,290L497,281L506,300L487,303L498,336L479,336L455,320L444,291L438,266L427,249L412,227L410,216L423,197L425,185L435,179L435,169L455,166L466,157L482,158L487,151Z" fill="#E0E0E0" stroke="#fff" stroke-width=".4"/><path d="M1136,308L1121,315L1111,305L1077,300L1064,306L1031,312L1015,311L981,325L957,325L941,318L908,329L899,321L897,342L889,350L881,358L871,341L882,328L864,331L839,322L819,343L774,347L750,328L718,327L712,342L691,346L663,327L631,327L613,291L592,270L606,240L587,222L620,185L665,184L678,154L734,160L769,134L804,123L852,122L904,150L946,165L980,159L1006,162L1041,142L1072,140L1101,159L1106,173L1103,192L1125,202L1136,213L1116,224L1125,267L1119,279ZM586,130L616,118L641,123L645,139L670,151L665,161L630,163L617,175L593,196L583,178L584,170L591,165L600,141Z" fill="#E0E0E0" stroke="#fff" stroke-width=".4"/><path d="M304,-62L313,-57L335,-38L360,-30L371,-37L378,-20L387,-8L376,7L363,-2L342,-1L317,-8L303,-7L297,1L286,-8L280,9L294,29L301,41L314,57L326,65L337,82L363,98L360,104L332,90L315,75L288,63L263,33L269,30L256,12L255,-2L236,-8L227,10L218,-4L219,-19L220,-19L241,-18L246,-25L256,-18L268,-17L267,-29L278,-33L281,-51Z" fill="#E0E0E0" stroke="#fff" stroke-width=".4"/><path d="M99,-106L100,-98L95,-88L108,-80L124,-79L121,-61L108,-54L86,-59L80,-42L66,-41L61,-47L44,-33L30,-31L17,-40L7,-59L-7,-52L-6,-71L15,-96L14,-107L28,-103L36,-110L61,-110L67,-119Z" fill="#E0E0E0" stroke="#fff" stroke-width=".4"/><path d="M-6,-223L-0,-212L-2,-192L-10,-191L-17,-195L-14,-221Z" fill="#E0E0E0" stroke="#fff" stroke-width=".4"/><path d="M-3,-254L-6,-223L-14,-221L-17,-195L-43,-216L-58,-213L-79,-234L-92,-253L-106,-254L-110,-270L-87,-279L-65,-276L-38,-285L-19,-265Z" fill="#E0E0E0" stroke="#fff" stroke-width=".4"/><path d="M-404,311L-406,299L-396,285L-391,275L-402,264L-393,239L-405,216L-393,213L-391,195L-387,189L-386,159L-373,148L-381,128L-398,127L-403,132L-420,132L-428,112L-440,118L-451,128L-449,100L-461,82L-419,53L-383,61L-344,60L-312,67L-288,65L-240,66L-229,82L-174,100L-164,92L-130,110L-96,105L-95,128L-123,154L-160,162L-163,175L-181,197L-192,228L-181,250L-198,267L-204,291L-227,298L-248,327L-285,327L-313,327L-332,340L-343,353L-357,350L-368,338L-377,317Z" fill="#E0E0E0" stroke="#fff" stroke-width=".4"/><path d="M124,-79L141,-73L145,-81L174,-88L181,-73L223,-62L219,-41L227,-23L203,-29L179,-14L181,6L177,18L187,39L214,60L229,93L262,125L285,125L292,134L284,142L311,156L332,168L357,188L361,195L355,209L339,191L313,185L301,210L322,224L318,244L306,246L290,278L278,281L278,270L284,249L291,241L279,219L270,200L258,195L249,178L230,171L217,156L196,153L173,135L146,109L126,86L116,46L102,41L78,28L64,33L47,52L35,55L38,38L22,32L15,0L25,-12L16,-28L17,-40L30,-31L44,-33L61,-47L66,-41L80,-42L86,-59L108,-54L121,-61ZM251,272L273,269L263,298L267,310L261,329L238,315L223,311L182,292L186,273L221,276ZM73,167L87,155L105,182L101,233L87,231L75,243L64,233L63,187L56,165Z" fill="#E0E0E0" stroke="#fff" stroke-width=".4"/><path d="M994,66L997,61L1022,68L1066,75L1106,94L1111,101L1129,95L1156,104L1165,120L1184,129L1176,135L1191,156L1186,160L1171,158L1149,147L1141,153L1101,159L1072,140L1041,142L1045,125L1038,98L1021,83L1004,78Z" fill="#E0E0E0" stroke="#fff" stroke-width=".4"/><path d="M223,-62L247,-59L262,-69L288,-70L293,-77L298,-76L304,-62L281,-51L278,-33L267,-29L268,-17L256,-18L246,-25L241,-18L220,-19L227,-23L219,-41Z" fill="#E0E0E0" stroke="#fff" stroke-width=".4"/><path d="M481,-175L473,-164L467,-146L460,-141L429,-155L419,-152L412,-141L399,-136L395,-139L381,-132L369,-130L367,-122L342,-116L331,-121L316,-132L313,-148L316,-153L320,-163L333,-162L343,-167L344,-171L349,-173L351,-184L358,-186L363,-194L371,-194L373,-191L385,-197L400,-181L418,-191L432,-186L453,-193Z" fill="#E0E0E0" stroke="#fff" stroke-width=".4"/><path d="M258,-268L272,-253L294,-249L293,-236L309,-227L313,-239L333,-233L336,-219L358,-216L371,-194L363,-194L358,-186L351,-184L349,-173L344,-171L343,-167L333,-162L320,-163L316,-153L302,-162L288,-160L265,-173L255,-170L238,-152L217,-166L200,-185L185,-196L182,-215L177,-229L198,-239L209,-251L230,-260L238,-269L245,-263Z" fill="#E0E0E0" stroke="#fff" stroke-width=".4"/><path d="M846,584L879,590L892,579L899,567L921,562L926,551L936,545L907,511L966,493L971,488L1007,497L1051,522L1134,590L1189,593L1215,596L1222,612L1243,611L1255,640L1269,648L1274,659L1294,673L1296,687L1293,698L1297,709L1305,718L1309,729L1314,737L1322,743L1331,741L1336,753L1337,761L1349,793L1437,809L1443,803L1457,825L1437,888L1349,920L1264,932L1236,946L1215,978L1201,983L1194,973L1183,974L1154,971L1149,968L1115,969L1107,972L1095,964L1087,979L1090,992L1077,1002L1073,989L1064,979L1062,967L1047,956L1031,930L1023,904L1002,883L989,878L969,848L966,826L967,807L950,771L937,759L921,752L911,733L913,726L904,709L896,702L884,677L866,651L851,628L837,628L841,610L843,598Z" fill="#E0E0E0" stroke="#fff" stroke-width=".4"/><path d="M781,383L783,382L787,374L808,374L835,363L815,379L817,385L814,384L808,387L804,386L803,388L802,384L800,382L794,381L786,384Z" fill="#E0E0E0" stroke="#fff" stroke-width=".4"/><path d="M781,383L786,384L794,381L800,382L802,384L803,388L804,386L808,387L814,384L817,385L818,388L788,403L773,398L767,384Z" fill="#E0E0E0" stroke="#fff" stroke-width=".4"/><path d="M553,825L553,888L519,888L518,901L401,841L283,780L254,798L233,810L216,792L169,778L157,758L133,743L120,749L109,731L108,717L90,693L102,679L100,658L103,640L101,625L106,598L105,582L95,552L110,544L112,530L109,515L129,502L138,491L153,481L154,454L189,466L201,463L226,469L265,484L279,515L305,522L347,536L378,553L393,545L407,529L400,502L409,485L430,469L451,464L491,471L501,487L512,487L521,493L550,497L558,509L547,525L551,540L544,561L553,588L553,706Z" fill="#E0E0E0" stroke="#fff" stroke-width=".4"/><path d="M363,98L337,82L326,65L314,57L301,41L294,29L280,9L286,-8L297,1L303,-7L317,-8L342,-1L363,-2L376,7L387,7L379,26L394,41L389,61L382,62L377,66L367,76Z" fill="#E0E0E0" stroke="#fff" stroke-width=".4"/><path d="M475,111L490,124L492,150L487,151L482,158L466,157L455,166L435,169L423,160L419,143L423,129L426,130L428,121L445,115L452,114L462,111Z" fill="#E0E0E0" stroke="#fff" stroke-width=".4"/><path d="M371,-37L393,-48L412,-46L428,-29L431,-16L449,-6L451,11L469,23L478,14L485,19L478,26L484,33L476,43L479,58L493,75L482,88L477,100L480,105L475,111L462,111L452,114L451,111L454,106L458,96L453,97L448,89L443,87L439,81L434,78L429,73L424,75L420,88L413,91L415,88L404,79L394,75L390,69L382,62L389,61L394,41L379,26L387,7L376,7L387,-8L378,-20Z" fill="#E0E0E0" stroke="#fff" stroke-width=".4"/><path d="M407,100L399,104L398,96L385,116L387,128L381,125L372,112L360,104L363,98L367,76L377,66L382,62L390,69L394,75L404,79L415,88L413,91Z" fill="#E0E0E0" stroke="#fff" stroke-width=".4"/><path d="M423,129L421,115L414,111L407,100L413,91L420,88L424,75L429,73L434,78L439,81L443,87L448,89L453,97L458,96L454,106L451,111L452,114L445,115L428,121L426,130Z" fill="#E0E0E0" stroke="#fff" stroke-width=".4"/></g><g clip-path="url(#v)"><path d="M385.9,128.7L386.0,126.8L386.5,123.6L386.2,122.6L386.5,120.8L385.6,118.4L384.1,116.7L385.6,113.6L387.6,110.0L389.5,107.1L391.8,103.9L393.4,101.0L395.1,98.5L396.6,97.8L397.2,98.2L397.7,99.4L397.6,102.6L398.1,103.8L399.0,104.6L401.2,104.2L403.5,103.4L406.7,101.6L407.2,101.8L408.4,102.7L410.8,106.6L412.4,110.1L415.6,111.3L417.3,112.6L419.6,114.7L420.7,116.7L422.3,123.0L422.5,126.8L422.0,128.6L421.6,129.0L420.2,135.2L420.5,138.3L420.5,140.4L419.3,141.2L418.6,142.5L419.8,147.6L419.6,149.7L419.7,152.3L422.1,157.9L423.5,159.7L424.6,160.5L426.2,165.7L427.2,166.6L431.0,166.1L432.8,166.7L433.5,167.9L433.7,168.8L433.4,171.7L434.4,173.9L435.7,176.3L435.7,177.6L434.8,179.9L433.3,182.6L431.3,183.6L429.1,184.5L428.0,186.6L427.5,188.8L426.4,190.4L425.9,192.2L424.9,195.9L424.7,197.1L423.1,198.5L420.8,199.0L418.8,199.2L417.3,199.8L416.7,201.0L415.3,202.0L414.4,202.5L414.4,203.6L415.5,205.9L416.6,207.8L416.6,209.3L416.0,209.7L414.3,209.5L414.0,210.0L413.8,211.8L413.4,213.2L412.6,214.0L411.4,215.0L409.1,214.7L407.1,213.2L405.9,212.8L405.3,212.8L405.2,209.4L404.2,206.6L401.0,200.0L390.1,193.6L387.6,190.7L386.4,188.3L385.4,185.9L386.4,185.9L387.5,186.5L388.9,187.2L389.4,186.0L388.8,183.5L386.0,177.7L385.8,176.1L387.2,171.1L389.4,165.5L389.3,158.8L390.0,153.7L389.2,150.4L388.9,146.3L390.4,140.9L391.9,139.5L392.8,137.8L392.9,132.0L389.6,129.3Z" fill="#4ECDC4" stroke="#2C3E50" stroke-width="1"/></g><circle cx="400.0" cy="150.0" r="4" fill="#E74C3C" stroke="#fff" stroke-width="2"/><text x="400.0" y="140.0" text-anchor="middle" font-family="sans-serif" font-weight="700" font-size="10" fill="#2D3436">Tirana</text></svg>