<svg viewBox="0 0 800 300" xmlns="http://www.w3.org/2000/svg"><defs><clipPath id="v"><rect width="800" height="300"/></clipPath></defs><rect width="800" height="300" fill="#DCEEF8"/><g clip-path="url(#v)"><path d="M1971,-318L1943,-280L1913,-275L1911,-220L1891,-196L1818,-214L1792,-118L1773,-107L1700,-86L1733,3L1708,16L1711,44L1688,37L1670,19L1616,14L1555,12L1541,18L1489,-3L1468,7L1463,37L1402,19L1378,27L1370,48L1349,57L1301,92L1285,126L1271,127L1261,104L1214,102L1207,62L1189,62L1192,12L1148,-25L1085,-21L1042,-14L1007,-60L977,-79L920,-116L913,-121L819,-90L820,95L801,98L776,59L751,45L709,56L693,72L691,60L700,39L693,22L651,5L634,-40L614,-53L613,-70L648,-65L650,-103L681,-112L713,-104L719,-155L713,-188L676,-185L645,-198L603,-175L568,-164L550,-172L553,-200L530,-236L503,-235L472,-272L493,-314L482,-325L512,-388L549,-355L554,-397L629,-460L687,-462L767,-421L811,-398L850,-422L908,-423L955,-393L966,-410L1017,-408L1026,-436L967,-476L1002,-505L995,-522L1030,-537L1004,-580L1021,-601L1089,-613L1158,-623L1176,-638L1268,-662L1301,-688L1366,-674L1378,-609L1416,-624L1463,-603L1460,-569L1496,-572L1587,-631L1574,-612L1621,-563L1703,-412L1722,-442L1773,-409L1825,-424L1846,-413L1863,-380L1889,-369L1905,-344L1952,-352Z" fill="#E0E0E0" stroke="#fff" stroke-width=".4"/><path d="M820,95L819,-90L913,-121L920,-116L977,-79L1007,-60L1042,-14L1085,-21L1148,-25L1192,12L1189,62L1207,62L1214,102L1261,104L1271,127L1285,126L1301,92L1349,57L1370,48L1381,53L1350,85L1377,103L1403,91L1447,117L1400,152L1372,147L1357,148L1352,135L1359,112L1310,124L1298,155L1281,181L1250,179L1241,200L1268,211L1276,246L1255,293L1227,283L1207,283L1208,254L1159,234L1121,211L1097,189L1055,156L1037,106L1025,97L985,100L971,90L967,50L918,24L887,53L856,70L861,95Z" fill="#E0E0E0" stroke="#fff" stroke-width=".4"/><path d="M78,491L71,505L58,499L50,528L60,532L50,538L49,550L66,544L67,561L48,628L45,618L24,555L35,541L32,539L42,519L50,486L55,475L56,474L68,474L72,467L81,466L82,484L77,491Z" fill="#E0E0E0" stroke="#fff" stroke-width=".4"/><path d="M81,466L72,467L68,474L56,474L69,439L87,407L88,406L104,408L110,425L90,442Z" fill="#E0E0E0" stroke="#fff" stroke-width=".4"/><path d="M66,544L49,550L50,538L60,532L50,528L58,499L71,505L71,531Z" fill="#E0E0E0" stroke="#fff" stroke-width=".4"/><path d="M71,505L78,491L119,508L190,462L205,515L198,521L125,543L161,586L149,593L143,607L115,613L106,628L91,641L50,635L48,628L67,561L66,544L71,531Z" fill="#E0E0E0" stroke="#fff" stroke-width=".4"/><path d="M205,515L190,462L272,416L285,362L282,329L302,317L321,289L336,281L379,287L392,299L410,291L433,346L457,359L460,386L442,401L433,436L459,478L504,502L522,534L516,566L528,566L529,588L549,611L527,608L502,605L475,645L407,642L304,557L249,527Z" fill="#E0E0E0" stroke="#fff" stroke-width=".4"/><path d="M1207,283L1227,283L1255,293L1266,298L1293,283L1305,292L1317,271L1339,272L1345,265L1348,247L1364,230L1384,241L1380,255L1391,257L1388,296L1402,311L1415,302L1431,297L1454,276L1480,280L1517,280L1524,293L1503,298L1484,307L1442,312L1402,322L1381,341L1390,361L1394,383L1376,402L1377,419L1367,435L1332,434L1347,463L1323,474L1308,500L1310,526L1295,538L1282,534L1254,540L1250,552L1222,552L1202,576L1201,612L1153,630L1127,626L1120,635L1098,630L1061,636L1000,615L1033,576L1030,549L1003,541L1000,514L988,479L1003,455L987,449L997,416L1012,361L1050,378L1077,372L1085,351L1114,344L1135,331L1142,294L1173,285L1179,269L1196,281Z" fill="#E0E0E0" stroke="#fff" stroke-width=".4"/><path d="M693,72L709,56L751,45L776,59L801,98L820,95L861,95L856,70L887,53L918,24L967,50L971,90L985,100L1025,97L1037,106L1055,156L1097,189L1121,211L1159,234L1208,254L1207,283L1196,281L1179,269L1173,285L1142,294L1135,331L1114,344L1085,351L1077,372L1050,378L1012,361L1009,322L982,321L940,280L911,275L870,252L844,247L828,256L803,255L777,281L745,290L738,257L744,208L715,192L724,160L700,157L708,116L743,128L775,113L748,84L738,55L708,68L705,104Z" fill="#E0E0E0" stroke="#fff" stroke-width=".4"/><path d="M549,611L529,588L528,566L516,566L522,534L504,502L459,478L433,436L442,401L460,386L457,359L433,346L410,291L390,254L397,240L385,186L410,172L416,190L435,212L460,218L473,217L516,182L530,179L541,193L528,216L551,240L560,238L572,272L607,282L632,305L684,313L742,301L745,290L777,281L803,255L828,256L844,247L870,252L911,275L940,280L982,321L1009,322L1012,361L997,416L987,449L1003,455L988,479L1000,514L1003,541L1030,549L1033,576L1000,615L1018,637L1033,662L1068,680L1069,717L1087,724L1090,743L1037,764L1023,811L954,799L914,789L873,784L857,734L839,727L811,734L774,754L729,740L692,709L657,697L633,657L606,601L586,608L562,594Z" fill="#E0E0E0" stroke="#fff" stroke-width=".4"/><path d="M78,491L77,491L82,484L81,466L90,442L110,425L104,408L88,406L84,371L93,353L103,343L113,333L115,308L127,317L167,304L187,312L217,312L259,295L279,296L321,289L302,317L282,329L285,362L272,416L190,462L119,508Z" fill="#E0E0E0" stroke="#fff" stroke-width=".4"/><path d="M-67,-485L-53,-482L-44,-496L-33,-493L6,-499L29,-465L20,-453L23,-435L52,-432L65,-406L64,-395L111,-375L139,-384L162,-357L183,-358L237,-339L238,-323L223,-293L231,-263L225,-245L190,-241L171,-225L169,-201L140,-197L116,-180L81,-177L50,-157L52,-129L46,-130L41,-141L30,-143L4,-154L-6,-141L-11,-147L-68,-160L-71,-180L-105,-174L-118,-144L-147,-106L-163,-114L-180,-106L-197,-116L-188,-121L-181,-139L-171,-156L-174,-166L-166,-170L-163,-163L-141,-161L-131,-165L-138,-170L-135,-178L-148,-192L-154,-215L-167,-223L-164,-242L-181,-257L-196,-259L-223,-276L-247,-270L-256,-262L-272,-262L-281,-249L-308,-244L-320,-236L-337,-249L-361,-249L-384,-255L-399,-244L-402,-258L-422,-273L-415,-296L-405,-310L-397,-307L-406,-332L-373,-380L-355,-386L-351,-403L-369,-453L-352,-456L-332,-472L-303,-473L-266,-469L-225,-454L-197,-453L-183,-445L-169,-455L-159,-441L-126,-444L-112,-438L-109,-468L-98,-481Z" fill="#E0E0E0" stroke="#fff" stroke-width=".4"/><path d="M-256,-262L-247,-270L-223,-276L-196,-259L-181,-257L-164,-242L-167,-223L-154,-215L-148,-192L-135,-178L-138,-170L-131,-165L-141,-161L-163,-163L-166,-170L-174,-166L-171,-156L-181,-139L-188,-121L-197,-116L-203,-140L-199,-162L-201,-186L-222,-218L-234,-241L-245,-257Z" fill="#E0E0E0" stroke="#fff" stroke-width=".4"/><path d="M-197,-116L-180,-106L-163,-114L-147,-106L-146,-92L-164,-81L-175,-86L-185,-24L-206,-29L-233,-48L-276,-36L-295,-23L-348,-26L-377,-34L-391,-30L-401,-51L-408,-60L-399,-68L-409,-75L-420,-63L-441,-78L-444,-100L-467,-112L-471,-129L-491,-149L-461,-159L-439,-196L-422,-232L-399,-244L-384,-255L-361,-249L-337,-249L-320,-236L-308,-244L-281,-249L-272,-262L-256,-262L-245,-257L-234,-241L-222,-218L-201,-186L-199,-162L-203,-140Z" fill="#E0E0E0" stroke="#fff" stroke-width=".4"/><path d="M-401,-51L-391,-30L-377,-34L-348,-26L-295,-23L-276,-36L-233,-48L-206,-29L-185,-24L-204,-3L-217,33L-206,61L-237,54L-274,70L-275,94L-308,99L-334,82L-363,95L-391,94L-393,61L-412,46L-405,39L-409,33L-403,17L-389,1L-407,-21L-410,-39Z" fill="#E0E0E0" stroke="#fff" stroke-width=".4"/><path d="M410,291L392,299L379,287L336,281L321,289L279,296L259,295L217,312L187,312L167,304L127,317L115,308L113,333L103,343L93,353L80,332L94,315L72,319L41,309L16,335L-40,340L-70,316L-109,314L-118,333L-143,338L-179,314L-219,315L-240,269L-267,243L-249,207L-272,184L-232,138L-175,137L-160,100L-90,106L-46,74L-3,61L57,59L121,94L174,113L217,105L248,110L292,84L331,82L366,106L372,123L369,146L396,158L410,172L385,186L397,240L390,254ZM-274,70L-237,54L-206,61L-201,80L-169,96L-176,108L-219,110L-235,125L-266,151L-277,129L-277,119L-268,113L-257,83Z" fill="#E0E0E0" stroke="#fff" stroke-width=".4"/><path d="M470,68L480,70L505,100L521,103L527,91L549,71L569,97L587,131L604,133L616,146L586,150L579,187L573,204L559,215L560,238L551,240L528,216L541,193L530,179L516,182L473,217L472,184L456,176L440,163L451,148L431,132L439,120L425,111L417,98L426,90L453,104L473,107L478,102L460,75ZM460,218L435,212L416,190L410,172L418,171L429,184L445,184L445,191Z" fill="#E0E0E0" stroke="#fff" stroke-width=".4"/><path d="M233,-10L237,-16L268,-8L322,1L372,25L379,34L401,26L435,37L446,57L470,68L460,75L478,102L473,107L453,104L426,90L417,98L366,106L331,82L292,84L297,63L288,29L267,11L246,5Z" fill="#E0E0E0" stroke="#fff" stroke-width=".4"/><path d="M-32,384L-29,383L-24,373L2,373L36,360L11,379L14,387L10,386L3,389L-3,388L-5,390L-5,385L-8,383L-15,382L-25,386Z" fill="#E0E0E0" stroke="#fff" stroke-width=".4"/><path d="M-32,384L-25,386L-15,382L-8,383L-5,385L-5,390L-3,388L3,389L10,386L14,387L15,391L-23,409L-41,403L-49,385Z" fill="#E0E0E0" stroke="#fff" stroke-width=".4"/></g><g clip-path="url(#v)"><path d="M409.5,172.8L408.1,170.7L401.8,164.0L396.0,158.8L391.9,156.7L387.8,156.9L381.5,158.0L379.1,157.6L373.7,155.2L369.1,152.6L369.7,151.5L370.7,150.6L369.5,147.1L367.0,141.6L367.2,139.7L366.4,137.3L365.5,135.4L369.1,131.0L370.8,127.5L371.2,124.0L370.1,120.3L367.8,113.9L366.3,111.9L363.7,110.2L361.3,107.3L360.8,105.2L362.6,104.8L368.3,104.8L373.7,104.0L377.9,102.6L384.1,101.5L386.6,100.5L389.7,100.0L398.6,101.1L401.9,100.3L412.1,100.1L412.4,99.7L411.1,98.3L411.1,97.7L417.1,96.9L418.1,96.2L418.8,98.4L421.1,100.9L423.6,101.9L424.9,103.2L424.9,104.2L420.6,105.5L420.3,106.1L420.6,106.7L421.9,107.0L428.0,110.1L431.5,110.2L433.4,111.1L434.3,112.9L437.2,115.4L439.6,117.8L439.7,118.7L439.2,119.9L432.7,124.6L431.9,126.2L431.8,127.9L434.7,133.0L438.9,138.6L445.0,142.8L453.3,147.4L453.4,150.2L452.1,153.6L450.9,155.9L450.4,157.5L449.5,158.1L441.0,158.0L439.8,158.5L439.3,159.1L439.2,159.7L442.2,160.7L447.0,164.3L449.6,167.8L452.4,169.3L455.5,172.1L458.1,174.6L462.0,178.0L466.5,176.9L472.3,179.8L472.6,181.9L472.2,183.6L468.5,185.6L468.1,186.4L468.1,187.1L468.5,188.1L470.7,189.6L473.2,192.0L476.1,195.6L474.8,196.6L472.2,196.8L470.1,196.4L469.3,197.0L469.4,198.2L472.0,200.9L472.6,202.9L472.4,206.2L472.6,210.6L466.2,210.2L460.8,212.3L458.8,211.9L457.5,208.3L456.3,205.3L452.9,197.7L453.8,194.6L451.8,192.9L447.2,189.6L446.0,188.2L446.7,186.4L447.2,183.1L446.7,180.3L445.5,179.5L443.1,179.4L440.4,180.1L434.7,182.7L430.9,181.1L428.5,179.3L427.3,177.9L424.3,179.1L423.6,178.5L423.5,175.0L422.5,173.1L420.8,170.9L419.1,169.8L413.0,172.1ZM418.8,109.1L419.0,107.8L418.7,106.6L417.8,106.3L416.6,106.5L416.5,107.9L416.9,109.1L418.1,109.7ZM438.2,129.0L436.8,129.8L435.5,129.4L435.5,127.4L436.5,126.6L437.6,126.6L438.6,127.4Z" fill="#4ECDC4" stroke="#2C3E50" stroke-width="1"/></g><circle cx="400.0" cy="150.0" r="4" fill="#E74C3C" stroke="#fff" stroke-width="2"/><text x="400.0" y="140.0" text-anchor="middle" font-family="sans-serif" font-weight="700" font-size="10" fill="#2D3436">Yerevan</text></svg>