<svg viewBox="0 0 800 300" xmlns="http://www.w3.org/2000/svg"><defs><clipPath id="v"><rect width="800" height="300"/></clipPath></defs><rect width="800" height="300" fill="#DCEEF8"/><g clip-path="url(#v)"><path d="M1836,228L1838,226L1841,229L1840,233L1834,235L1830,234L1829,230L1832,226ZM1852,219L1847,221L1841,223L1840,220L1845,218L1847,217L1852,215L1852,215L1852,219ZM-1283,215L-1283,215L-1283,215L-1281,214L-1282,218L-1283,219L-1283,219L-1283,215Z" fill="#E0E0E0" stroke="#fff" stroke-width=".4"/><path d="M580,81L582,82L613,100L614,105L626,113L622,124L623,129L628,132L629,135L626,140L627,143L626,147L629,152L633,161L636,163L629,168L619,172L614,171L611,174L605,174L603,175L592,173L586,174L583,162L580,158L579,155L570,153L565,151L560,149L556,148L552,146L548,135L543,130L541,125L542,120L540,112L544,112L547,108L550,104L553,102L553,99L551,97L550,94L553,93L553,88L550,83L553,82L562,82Z" fill="#E0E0E0" stroke="#fff" stroke-width=".4"/><path d="M209,-178L209,-177L209,-176L209,-161L181,-161L181,-137L173,-136L171,-131L172,-117L138,-118L136,-114L137,-118L137,-118L156,-119L157,-122L161,-127L164,-140L176,-150L180,-162L183,-163L186,-171L193,-172L196,-170L200,-170L203,-173L208,-173L208,-178Z" fill="#E0E0E0" stroke="#fff" stroke-width=".4"/><path d="M-313,614L-310,620L-305,631L-294,640L-282,644L-286,652L-294,652L-298,647L-304,647L-313,647ZM-217,349L-219,357L-222,368L-222,378L-223,380L-224,387L-225,392L-214,402L-215,409L-209,414L-210,419L-218,433L-231,439L-249,441L-258,440L-256,447L-258,455L-256,461L-262,465L-271,467L-279,463L-282,466L-281,477L-275,481L-270,477L-268,483L-276,487L-283,494L-284,506L-286,513L-294,513L-301,519L-304,529L-295,538L-287,541L-290,552L-300,560L-306,575L-314,581L-317,587L-315,601L-309,610L-312,609L-320,607L-342,605L-345,597L-345,586L-351,587L-354,582L-355,568L-348,562L-345,554L-346,547L-342,536L-338,519L-339,512L-336,510L-336,505L-340,503L-338,498L-342,493L-344,479L-340,477L-342,463L-340,451L-337,441L-332,437L-335,426L-335,416L-328,409L-328,400L-323,390L-323,380L-326,378L-330,361L-324,350L-325,340L-322,331L-316,322L-310,316L-313,312L-311,309L-311,293L-302,288L-299,278L-300,276L-292,268L-281,270L-276,277L-272,269L-263,270L-261,272L-245,287L-238,288L-227,295L-218,299L-217,304L-226,318L-217,321L-207,322L-200,321L-192,313L-191,305L-187,303L-182,309L-182,316L-190,322L-196,326L-205,335Z" fill="#E0E0E0" stroke="#fff" stroke-width=".4"/><path d="M540,112L542,120L541,125L543,130L548,135L552,146L549,145L537,146L535,147L533,153L534,157L533,167L532,176L534,178L540,181L543,180L543,189L537,189L533,184L530,180L523,179L521,175L516,177L509,176L506,172L501,171L497,171L496,169L493,168L489,168L484,169L480,169L478,170L478,159L475,156L475,151L476,145L474,142L474,136L463,136L464,133L460,133L459,135L454,135L452,140L450,143L446,141L443,143L437,143L434,139L432,136L429,131L427,124L401,124L398,125L396,125L392,126L391,123L393,122L393,118L395,116L398,114L400,115L403,112L408,112L409,114L412,116L417,111L422,106L424,104L424,96L428,88L432,83L437,79L438,76L439,73L440,70L440,65L441,58L442,52L445,47L445,42L446,36L450,32L454,29L462,32L467,35L473,36L480,38L483,32L484,32L488,33L497,28L501,30L504,30L505,28L508,27L515,28L520,28L523,27L528,34L532,35L535,34L539,34L544,33L546,36L553,42L553,52L556,54L553,57L550,59L547,63L545,67L544,74L542,78L542,84L540,87L540,92L538,93L538,97L540,101Z" fill="#E0E0E0" stroke="#fff" stroke-width=".4"/><path d="M647,87L642,80L642,48L649,39L652,36L657,36L665,29L676,29L701,3L707,-5L711,-10L711,-15L711,-24L711,-27L711,-27L714,-28L718,-29L722,-30L727,-33L730,-33L730,-30L729,-25L729,-21L728,-17L725,-8L721,2L715,13L708,26L701,36L690,48L682,55L669,64L660,70L651,81L649,85Z" fill="#E0E0E0" stroke="#fff" stroke-width=".4"/><path d="M626,113L614,105L613,100L582,82L580,81L580,72L582,68L587,62L590,56L586,46L585,42L581,36L586,30L592,25L597,26L597,31L600,34L606,34L617,41L620,41L622,41L624,42L629,43L632,39L640,36L643,39L649,39L642,48L642,80L647,87L641,91L639,94L635,95L634,101L631,105L630,111Z" fill="#E0E0E0" stroke="#fff" stroke-width=".4"/><path d="M499,1L492,-3L489,-6L489,-8L490,-12L490,-16L485,-21L484,-25L484,-27L481,-30L481,-35L479,-38L476,-38L477,-41L479,-45L478,-49L481,-51L479,-53L481,-59L485,-66L493,-65L492,-101L492,-105L503,-105L503,-124L538,-124L571,-124L606,-124L609,-115L607,-113L608,-103L611,-92L615,-90L619,-87L615,-81L608,-80L606,-77L605,-71L601,-58L602,-54L601,-47L597,-38L592,-33L588,-27L587,-23L583,-20L581,-11L581,-3L581,-10L579,-10L580,-15L578,-18L574,-21L573,-28L574,-34L570,-35L569,-33L564,-32L566,-30L567,-24L562,-20L558,-13L553,-12L546,-17L543,-16L542,-13L537,-11L537,-10L528,-10L527,-11L521,-12L518,-10L515,-11L511,-16L509,-18L503,-17L501,-13L498,-5L495,-4L493,-3Z" fill="#E0E0E0" stroke="#fff" stroke-width=".4"/><path d="M492,-101L493,-65L485,-66L481,-59L479,-53L481,-51L478,-49L479,-45L477,-41L476,-38L479,-38L481,-35L481,-30L484,-27L484,-25L478,-23L474,-20L468,-10L459,-6L451,-7L449,-6L449,-3L445,0L441,4L430,7L428,5L427,5L425,7L418,8L419,5L416,-1L415,-4L411,-6L406,-11L408,-15L412,-14L415,-15L419,-15L415,-23L415,-29L415,-35L411,-40L412,-44L406,-45L406,-50L403,-54L406,-66L418,-74L418,-86L421,-105L423,-109L420,-112L420,-115L416,-117L414,-132L423,-137L458,-119Z" fill="#E0E0E0" stroke="#fff" stroke-width=".4"/><path d="M427,333L431,328L435,330L436,335L440,335L446,337L450,337L458,331L458,295L460,297L466,306L465,312L467,315L473,314L477,310L481,307L484,303L488,300L491,301L496,304L503,305L508,302L509,299L511,295L515,294L518,290L521,284L529,277L541,270L545,270L549,272L552,271L556,272L561,285L563,292L561,302L562,306L558,304L555,305L554,308L552,311L552,315L557,320L562,319L564,314L571,315L569,322L568,330L565,334L559,339L558,341L554,346L551,351L547,358L537,369L531,375L524,380L515,384L510,384L509,387L504,386L500,388L490,386L485,387L481,386L472,391L465,392L460,396L456,397L452,393L449,393L445,388L445,389L444,387L444,380L441,373L444,372L443,364L438,354L433,346L433,346ZM537,336L533,333L529,335L525,339L520,346L526,353L530,352L531,349L536,348L538,344L540,339Z" fill="#E0E0E0" stroke="#fff" stroke-width=".4"/><path d="M537,336L540,339L538,344L536,348L531,349L530,352L526,353L520,346L525,339L529,335L533,333Z" fill="#E0E0E0" stroke="#fff" stroke-width=".4"/><path d="M-217,349L-211,348L-203,356L-199,355L-190,362L-184,368L-179,375L-182,380L-180,385L-184,392L-194,398L-200,396L-205,397L-213,392L-219,393L-224,387L-223,380L-222,378L-222,368L-219,357Z" fill="#E0E0E0" stroke="#fff" stroke-width=".4"/><path d="M-180,385L-182,380L-179,375L-184,368L-190,362L-199,355L-203,356L-211,348L-217,349L-205,335L-196,326L-190,322L-182,316L-182,309L-187,303L-191,305L-189,299L-188,294L-188,288L-191,287L-194,288L-198,288L-199,284L-200,275L-201,273L-207,270L-211,272L-220,270L-219,257L-222,252L-219,250L-220,245L-218,241L-216,234L-218,228L-223,225L-224,222L-222,217L-239,216L-243,206L-240,206L-240,202L-242,199L-242,194L-247,191L-253,191L-256,189L-262,187L-266,184L-275,182L-285,174L-284,168L-285,165L-284,158L-296,160L-300,163L-308,167L-310,169L-314,169L-321,169L-326,170L-330,169L-329,156L-336,161L-344,161L-347,156L-353,155L-351,152L-356,146L-360,138L-357,137L-357,133L-352,131L-353,126L-351,123L-350,119L-340,113L-333,111L-332,110L-324,110L-320,86L-320,82L-321,77L-325,74L-325,68L-320,67L-318,67L-318,64L-323,63L-323,58L-306,58L-303,55L-301,58L-299,63L-298,62L-293,66L-286,66L-284,63L-278,61L-274,60L-273,56L-267,54L-268,52L-275,51L-276,45L-276,40L-280,37L-278,37L-272,38L-265,40L-262,38L-256,36L-246,33L-243,30L-244,27L-240,27L-238,29L-239,33L-236,34L-234,38L-236,41L-238,49L-235,53L-235,57L-229,61L-225,62L-224,60L-221,60L-217,58L-215,56L-210,56L-208,56L-203,57L-202,55L-204,53L-203,51L-199,52L-195,51L-190,53L-186,54L-184,52L-182,52L-180,55L-176,54L-173,51L-170,44L-165,36L-162,36L-160,41L-155,56L-150,58L-150,64L-157,71L-154,73L-139,75L-138,83L-132,78L-121,81L-106,86L-102,91L-103,96L-93,93L-76,98L-63,98L-51,105L-39,115L-33,117L-25,118L-22,120L-19,132L-18,137L-21,151L-26,157L-38,169L-43,180L-50,187L-52,187L-54,194L-54,211L-56,225L-57,231L-60,235L-62,247L-70,259L-72,269L-79,273L-81,278L-90,278L-104,282L-110,286L-120,289L-130,297L-138,306L-139,313L-137,319L-139,329L-141,334L-147,339L-157,357L-164,365L-170,370L-174,380Z" fill="#E0E0E0" stroke="#fff" stroke-width=".4"/><path d="M-190,53L-195,51L-199,52L-203,51L-204,53L-202,55L-203,57L-208,56L-213,49L-214,44L-217,44L-221,37L-219,33L-220,31L-214,28L-213,21L-203,22L-202,21L-195,20L-185,22L-190,30L-189,36L-186,41L-187,45L-188,49Z" fill="#E0E0E0" stroke="#fff" stroke-width=".4"/><path d="M-165,36L-170,44L-173,51L-176,54L-180,55L-182,52L-184,52L-186,54L-190,53L-188,49L-187,45L-186,41L-189,36L-190,30L-185,22L-182,23L-176,26L-167,33ZM339,-424L343,-421L355,-418L351,-409L350,-400L347,-398L343,-399L344,-396L337,-389L337,-383L341,-385L344,-379L344,-376L347,-371L344,-367L346,-358L351,-356L350,-351L342,-344L324,-348L312,-344L311,-337L301,-335L291,-340L288,-338L272,-343L268,-348L273,-355L274,-380L265,-393L259,-399L246,-404L245,-414L256,-417L271,-414L268,-429L276,-423L296,-433L299,-445L307,-447L308,-443L312,-442L316,-437L322,-430L327,-431L334,-425L336,-424ZM361,-338L367,-343L368,-333L365,-324L361,-326L359,-334Z" fill="#E0E0E0" stroke="#fff" stroke-width=".4"/><path d="M556,272L552,271L549,272L545,270L541,270L536,266L529,264L526,258L526,255L523,254L513,244L510,239L508,237L505,230L515,231L517,232L520,232L525,226L533,218L536,217L537,214L542,211L548,209L549,213L556,213L560,215L562,217L566,217L571,220L571,232L569,238L569,245L570,248L569,253L568,254L566,261Z" fill="#E0E0E0" stroke="#fff" stroke-width=".4"/><path d="M541,270L529,277L521,284L518,290L515,294L511,295L509,299L508,302L503,305L496,304L491,301L488,300L484,303L481,307L477,310L473,314L467,315L465,312L466,306L460,297L458,295L458,268L467,267L467,234L473,234L487,231L490,235L496,231L498,231L503,229L505,230L508,237L510,239L513,244L523,254L526,255L526,258L529,264L536,266Z" fill="#E0E0E0" stroke="#fff" stroke-width=".4"/><path d="M458,295L458,331L450,337L446,337L440,335L436,335L435,330L431,328L427,333L421,325L417,318L415,308L413,301L410,287L410,275L409,270L406,266L401,259L396,248L395,242L388,233L387,226L391,224L396,222L402,223L407,227L409,226L444,226L450,230L471,231L487,228L494,226L500,226L503,228L503,229L498,231L496,231L490,235L487,231L473,234L467,234L467,267L458,268Z" fill="#E0E0E0" stroke="#fff" stroke-width=".4"/><path d="M139,-47L136,-54L131,-57L135,-59L139,-65L141,-70L144,-73L149,-72L153,-74L158,-74L162,-71L168,-69L173,-62L179,-56L179,-50L181,-45L184,-43L185,-39L184,-37L183,-36L179,-37L178,-36L176,-36L170,-38L165,-38L149,-38L147,-37L144,-37L140,-36L138,-43L146,-43L148,-44L150,-44L153,-46L157,-44L160,-44L164,-46L162,-49L160,-47L157,-47L153,-49L151,-49L149,-47Z" fill="#E0E0E0" stroke="#fff" stroke-width=".4"/><path d="M184,-37L185,-39L184,-43L181,-45L179,-50L179,-56L182,-58L183,-63L186,-63L192,-61L197,-62L200,-62L202,-64L237,-64L238,-70L237,-71L233,-111L229,-152L242,-152L271,-131L301,-111L303,-106L308,-104L312,-102L312,-96L322,-97L322,-76L317,-70L316,-65L309,-63L297,-62L294,-59L288,-59L282,-59L280,-61L275,-59L267,-55L266,-53L259,-49L258,-46L254,-45L250,-46L248,-44L246,-37L239,-30L240,-27L237,-23L238,-18L234,-17L232,-16L231,-19L228,-18L227,-19L225,-16L218,-16L216,-17L215,-17L212,-19L213,-22L212,-23L210,-22L210,-25L212,-27L208,-31L207,-33L205,-35L204,-36L201,-34L199,-33L196,-31L193,-32L190,-34L189,-34L186,-33L185,-33Z" fill="#E0E0E0" stroke="#fff" stroke-width=".4"/><path d="M136,-114L138,-118L172,-117L171,-131L173,-136L181,-137L181,-161L209,-161L209,-176L242,-152L229,-152L233,-111L237,-71L238,-70L237,-64L202,-64L200,-62L197,-62L192,-61L186,-63L183,-63L182,-58L179,-56L173,-62L168,-69L162,-71L158,-74L153,-74L149,-72L144,-73L141,-70L141,-75L143,-79L144,-88L143,-97L142,-101L143,-106L141,-110Z" fill="#E0E0E0" stroke="#fff" stroke-width=".4"/><path d="M308,18L301,19L299,13L299,-7L298,-9L297,-13L294,-16L292,-19L293,-24L296,-25L297,-29L302,-29L304,-32L306,-35L310,-35L316,-30L316,-27L318,-21L316,-18L317,-15L313,-10L310,-7L308,-2L309,4Z" fill="#E0E0E0" stroke="#fff" stroke-width=".4"/><path d="M414,-132L416,-117L420,-115L420,-112L423,-109L421,-105L418,-86L418,-74L406,-66L403,-54L406,-50L406,-45L412,-44L411,-40L409,-40L408,-37L407,-37L401,-46L399,-47L392,-42L385,-44L380,-45L378,-44L373,-44L368,-40L363,-40L353,-45L349,-42L344,-43L341,-46L332,-49L323,-48L321,-46L319,-41L317,-38L316,-30L310,-35L306,-35L304,-32L304,-38L294,-40L293,-45L289,-50L287,-54L288,-59L294,-59L297,-62L309,-63L316,-65L317,-70L322,-76L322,-97L334,-101L359,-120L389,-138L403,-134L408,-128Z" fill="#E0E0E0" stroke="#fff" stroke-width=".4"/><path d="M308,18L309,4L308,-2L310,-7L313,-10L317,-15L316,-18L318,-21L316,-27L316,-30L317,-38L319,-41L321,-46L323,-48L332,-49L341,-46L344,-43L349,-42L353,-45L363,-40L368,-40L373,-44L378,-44L380,-45L385,-44L392,-42L399,-47L401,-46L407,-37L408,-37L412,-33L411,-32L410,-29L403,-22L401,-16L399,-12L398,-10L396,-4L391,0L390,5L388,8L387,12L381,15L376,11L373,11L368,16L365,16L361,25L359,31L350,34L346,34L343,36L336,36L331,30L329,24L322,18L316,18Z" fill="#E0E0E0" stroke="#fff" stroke-width=".4"/><path d="M411,-40L415,-35L415,-29L415,-23L419,-15L415,-15L412,-14L408,-15L406,-11L411,-6L415,-4L416,-1L419,5L418,8L413,17L411,18L411,25L412,29L411,31L415,36L416,39L419,44L423,46L423,50L424,53L424,58L417,56L410,53L399,53L398,52L392,54L387,52L383,53L369,53L370,46L367,40L363,39L361,35L359,34L359,31L361,25L365,16L368,16L373,11L376,11L381,15L387,12L388,8L390,5L391,0L396,-4L398,-10L399,-12L401,-16L403,-22L410,-29L411,-32L412,-33L408,-37L409,-40Z" fill="#E0E0E0" stroke="#fff" stroke-width=".4"/><path d="M293,-24L292,-19L294,-16L297,-13L298,-9L299,-7L299,13L301,19L294,21L292,18L290,12L289,8L291,0L289,-3L288,-10L288,-17L284,-21L285,-24Z" fill="#E0E0E0" stroke="#fff" stroke-width=".4"/><path d="M285,-24L284,-21L288,-17L288,-10L289,-3L291,0L289,8L290,12L292,18L294,21L280,26L276,29L268,32L260,29L260,26L257,18L259,8L262,1L260,-12L259,-18L259,-23L274,-24L278,-23L281,-25Z" fill="#E0E0E0" stroke="#fff" stroke-width=".4"/><path d="M215,-17L216,-17L218,-16L225,-16L227,-19L228,-18L231,-19L232,-16L234,-17L238,-18L242,-16L243,-13L247,-11L250,-14L254,-14L260,-12L262,1L259,8L257,18L260,26L260,29L256,29L250,28L244,28L234,29L228,32L219,35L218,35L218,27L219,26L219,23L215,19L212,19L210,16L212,12L211,8L211,6L213,6L213,2L212,0L213,-1L217,-2L214,-9L212,-13L213,-16Z" fill="#E0E0E0" stroke="#fff" stroke-width=".4"/><path d="M165,-38L170,-38L176,-36L178,-36L179,-37L183,-36L184,-37L185,-33L186,-33L189,-34L190,-34L193,-32L196,-31L199,-33L201,-34L204,-36L205,-35L207,-33L208,-31L212,-27L210,-25L210,-22L212,-23L213,-22L212,-19L215,-17L213,-16L212,-13L214,-9L217,-2L213,-1L212,0L213,2L213,6L211,6L209,5L207,9L205,9L203,7L203,3L200,-2L198,-1L196,-1L193,-0L193,-3L192,-6L192,-8L190,-12L188,-15L181,-15L179,-14L177,-13L175,-11L174,-9L169,-5L166,-10L162,-14L160,-15L158,-17L157,-21L156,-23L153,-24L157,-28L160,-28L162,-30L164,-30L165,-31L164,-34L165,-35Z" fill="#E0E0E0" stroke="#fff" stroke-width=".4"/><path d="M140,-36L144,-37L147,-37L149,-38L165,-38L165,-35L164,-34L165,-31L164,-30L162,-30L160,-28L157,-28L153,-24L148,-28L145,-28L143,-31L143,-32L140,-34Z" fill="#E0E0E0" stroke="#fff" stroke-width=".4"/><path d="M211,6L211,8L212,12L210,16L212,19L215,19L219,23L219,26L218,27L218,35L215,35L206,31L198,24L191,19L185,13L187,11L188,8L192,3L196,-1L198,-1L200,-2L203,3L203,7L205,9L207,9L209,5Z" fill="#E0E0E0" stroke="#fff" stroke-width=".4"/><path d="M169,-5L174,-9L175,-11L177,-13L179,-14L181,-15L188,-15L190,-12L192,-8L192,-6L193,-3L193,-0L196,-1L192,3L188,8L187,11L185,13L183,13L177,9L172,5L170,1Z" fill="#E0E0E0" stroke="#fff" stroke-width=".4"/><path d="M238,-18L237,-23L240,-27L239,-30L246,-37L248,-44L250,-46L254,-45L258,-46L259,-49L266,-53L267,-55L275,-59L280,-61L282,-59L288,-59L287,-54L289,-50L293,-45L294,-40L304,-38L304,-32L302,-29L297,-29L296,-25L293,-24L285,-24L281,-25L278,-23L274,-24L259,-23L259,-18L260,-12L254,-14L250,-14L247,-11L243,-13L242,-16Z" fill="#E0E0E0" stroke="#fff" stroke-width=".4"/><path d="M523,27L520,28L515,28L508,27L505,28L504,30L501,30L497,28L488,33L484,32L483,32L480,38L473,36L467,35L462,32L454,29L450,32L446,36L445,42L440,42L434,40L429,45L424,53L423,50L423,46L419,44L416,39L415,36L411,31L412,29L411,25L411,18L413,17L418,8L425,7L427,5L428,5L430,7L441,4L445,0L449,-3L449,-6L451,-7L459,-6L468,-10L474,-20L478,-23L484,-25L485,-21L490,-16L490,-12L489,-8L489,-6L492,-3L499,1L504,4L504,7L509,12L513,16L515,21L522,24Z" fill="#E0E0E0" stroke="#fff" stroke-width=".4"/><path d="M445,42L445,47L442,52L441,58L440,65L440,70L439,73L438,76L437,79L432,83L428,88L424,96L424,104L422,106L417,111L412,116L409,114L408,112L403,112L400,115L398,114L395,111L392,113L389,117L381,107L388,103L385,97L388,95L394,94L394,90L399,94L407,94L409,90L410,84L409,78L405,72L409,62L407,61L400,61L398,57L399,53L410,53L417,56L424,58L424,53L429,45L434,40L440,42Z" fill="#E0E0E0" stroke="#fff" stroke-width=".4"/><path d="M383,53L387,52L392,54L398,52L399,53L398,57L400,61L407,61L409,62L405,72L409,78L410,84L409,90L407,94L399,94L394,90L394,94L388,95L385,97L388,103L381,107L372,99L367,91L361,82L362,79L364,77L366,70L367,64L370,63L383,63Z" fill="#E0E0E0" stroke="#fff" stroke-width=".4"/><path d="M369,53L383,53L383,63L370,63L367,64L366,63Z" fill="#E0E0E0" stroke="#fff" stroke-width=".4"/><path d="M552,146L556,148L560,149L565,151L570,153L574,157L576,165L575,167L573,174L575,182L572,185L569,193L574,196L548,203L548,209L542,211L537,214L536,217L533,218L525,226L520,232L517,232L515,231L505,230L503,229L503,228L500,226L494,226L487,228L481,222L475,215L476,186L494,186L493,183L494,180L493,176L494,171L493,168L496,169L497,171L501,171L506,172L509,176L516,177L521,175L523,179L530,180L533,184L537,189L543,189L543,180L540,181L534,178L532,176L533,167L534,157L533,153L535,147L537,146L549,145Z" fill="#E0E0E0" stroke="#fff" stroke-width=".4"/><path d="M570,153L579,155L580,158L583,162L586,174L583,180L586,192L589,192L592,195L596,201L596,213L593,215L590,221L584,216L584,209L585,205L585,201L581,199L579,200L574,196L569,193L572,185L575,182L573,174L575,167L576,165L574,157Z" fill="#E0E0E0" stroke="#fff" stroke-width=".4"/><path d="M586,174L592,173L603,175L605,174L611,174L614,171L619,172L629,168L636,163L637,167L637,176L638,184L638,198L640,202L637,209L634,215L628,220L620,224L611,228L601,238L597,240L591,246L588,249L587,255L591,262L593,268L593,271L595,270L594,279L593,284L595,285L594,289L590,293L583,296L572,301L568,305L569,309L571,309L571,315L564,314L563,310L562,306L561,302L563,292L561,285L556,272L566,261L568,254L569,253L570,248L569,245L569,238L571,232L571,220L566,217L562,217L560,215L556,213L549,213L548,209L548,203L574,196L579,200L581,199L585,201L585,205L584,209L584,216L590,221L593,215L596,213L596,201L592,195L589,192L586,192L583,180Z" fill="#E0E0E0" stroke="#fff" stroke-width=".4"/><path d="M564,314L562,319L557,320L552,315L552,311L554,308L555,305L558,304L562,306L563,310Z" fill="#E0E0E0" stroke="#fff" stroke-width=".4"/><path d="M550,94L551,97L553,99L553,102L550,104L547,108L544,112L540,112L540,101L538,97L543,98L546,93Z" fill="#E0E0E0" stroke="#fff" stroke-width=".4"/><path d="M596,-229L594,-226L591,-227L589,-220L592,-219L589,-218L589,-215L593,-216L593,-213L589,-196L588,-199L583,-214L586,-217L585,-218L587,-222L589,-230L590,-233L591,-233L594,-233L594,-235L597,-235L597,-231L596,-229Z" fill="#E0E0E0" stroke="#fff" stroke-width=".4"/><path d="M716,182L719,186L721,192L722,203L724,207L724,211L722,214L719,209L717,211L719,218L718,222L716,224L715,232L712,242L708,255L702,273L699,286L695,297L688,299L680,303L675,301L668,298L666,293L665,284L662,277L661,270L663,263L667,261L667,258L671,251L672,245L670,241L668,235L668,227L671,222L672,216L676,216L681,214L684,212L688,212L693,207L700,201L703,197L702,193L705,194L710,188L710,182L713,178Z" fill="#E0E0E0" stroke="#fff" stroke-width=".4"/><path d="M139,-47L149,-47L151,-49L153,-49L157,-47L160,-47L162,-49L164,-46L160,-44L157,-44L153,-46L150,-44L148,-44L146,-43L138,-43Z" fill="#E0E0E0" stroke="#fff" stroke-width=".4"/><path d="M209,-176L209,-177L209,-178L209,-190L223,-197L232,-199L239,-201L242,-206L253,-210L253,-218L258,-219L262,-223L273,-224L275,-228L273,-231L270,-242L269,-248L266,-255L274,-261L284,-263L289,-267L298,-270L312,-272L327,-273L331,-272L339,-276L349,-276L352,-273L358,-274L356,-268L358,-258L356,-249L350,-244L351,-236L358,-229L358,-227L364,-223L367,-204L370,-196L371,-191L369,-183L370,-178L369,-173L369,-167L366,-163L371,-156L371,-152L375,-146L379,-148L385,-144L389,-138L359,-120L334,-101L322,-97L312,-96L312,-102L308,-104L303,-106L301,-111L271,-131L242,-152Z" fill="#E0E0E0" stroke="#fff" stroke-width=".4"/><path d="M594,-226L596,-229L606,-225L623,-236L626,-223L624,-222L607,-217L616,-207L613,-205L611,-201L605,-200L603,-196L599,-193L589,-195L589,-196L593,-213L593,-216L594,-219Z" fill="#E0E0E0" stroke="#fff" stroke-width=".4"/><path d="M734,-145L736,-146L736,-143L743,-144L750,-144L755,-144L761,-150L768,-157L773,-162L775,-159L776,-152L771,-152L771,-145L772,-144L768,-142L768,-138L766,-134L766,-130L764,-128L738,-133L734,-143Z" fill="#E0E0E0" stroke="#fff" stroke-width=".4"/><path d="M727,-150L727,-157L729,-162L731,-163L734,-160L734,-154L732,-149L730,-148Z" fill="#E0E0E0" stroke="#fff" stroke-width=".4"/><path d="M703,-201L704,-197L704,-194L706,-187L700,-187L698,-191L690,-192L697,-202Z" fill="#E0E0E0" stroke="#fff" stroke-width=".4"/><path d="M626,-223L623,-236L642,-247L645,-260L644,-268L649,-270L654,-277L657,-279L667,-277L671,-275L675,-276L680,-264L686,-260L687,-254L682,-250L680,-242L686,-232L697,-227L702,-219L700,-211L703,-211L703,-206L708,-201L703,-201L697,-202L690,-192L674,-193L650,-213L637,-221Z" fill="#E0E0E0" stroke="#fff" stroke-width=".4"/><path d="M766,-130L766,-134L768,-138L768,-142L772,-144L771,-145L771,-152L776,-152L780,-145L785,-142L791,-140L796,-139L800,-133L803,-130L806,-129L806,-127L802,-121L801,-118L797,-115L794,-109L790,-110L788,-107L787,-103L788,-97L787,-95L783,-95L778,-92L777,-88L775,-86L770,-86L766,-83L766,-80L762,-77L757,-78L751,-75L747,-74L744,-81L738,-96L764,-105L770,-124ZM775,-159L773,-162L776,-166L777,-165L776,-161Z" fill="#E0E0E0" stroke="#fff" stroke-width=".4"/><path d="M1132,-184L1133,-180L1130,-179L1131,-172L1125,-174L1113,-168L1113,-162L1109,-154L1108,-149L1104,-141L1098,-143L1097,-134L1095,-130L1096,-126L1092,-124L1087,-139L1085,-139L1083,-133L1079,-138L1081,-143L1085,-144L1089,-152L1084,-154L1076,-154L1068,-155L1067,-162L1063,-162L1056,-166L1053,-160L1059,-155L1054,-151L1052,-148L1057,-145L1056,-139L1059,-132L1060,-124L1059,-121L1053,-121L1042,-119L1043,-112L1038,-107L1026,-100L1016,-89L1009,-84L1001,-78L1001,-74L996,-71L988,-68L984,-68L982,-61L984,-49L984,-42L980,-33L980,-18L976,-18L972,-11L974,-8L967,-5L964,1L960,3L952,-5L948,-17L944,-26L941,-31L937,-39L935,-50L933,-56L925,-68L922,-86L919,-98L919,-109L917,-118L905,-112L899,-113L887,-125L891,-128L889,-132L879,-140L884,-146L904,-146L902,-154L897,-159L896,-167L890,-171L900,-181L910,-181L919,-191L924,-201L933,-211L933,-219L940,-225L933,-230L930,-237L927,-246L931,-250L945,-248L954,-249L963,-258L972,-246L971,-237L975,-232L974,-227L968,-228L971,-217L979,-210L991,-203L986,-199L982,-189L991,-186L999,-181L1010,-175L1022,-174L1027,-169L1034,-168L1044,-166L1052,-166L1053,-170L1052,-176L1052,-180L1058,-182L1058,-175L1058,-173L1066,-169L1072,-170L1079,-170L1086,-170L1087,-176L1083,-179L1090,-180L1098,-188L1108,-194L1116,-192L1122,-196L1126,-190L1123,-186Z" fill="#E0E0E0" stroke="#fff" stroke-width=".4"/><path d="M1052,-180L1052,-176L1053,-170L1052,-166L1044,-166L1034,-168L1027,-169L1022,-174L1010,-175L999,-181L991,-186L982,-189L986,-199L991,-203L995,-206L1002,-203L1011,-196L1015,-195L1018,-190L1025,-188L1032,-183L1042,-181Z" fill="#E0E0E0" stroke="#fff" stroke-width=".4"/><path d="M963,-258L954,-249L945,-248L931,-250L927,-246L930,-237L933,-230L940,-225L933,-219L933,-211L924,-201L919,-191L910,-181L900,-181L890,-171L896,-167L897,-159L902,-154L904,-146L884,-146L879,-140L872,-142L870,-149L863,-156L847,-155L833,-154L820,-153L824,-164L836,-169L835,-174L831,-175L831,-184L823,-188L819,-194L815,-200L830,-195L838,-196L843,-195L845,-197L851,-196L863,-200L863,-209L868,-215L874,-215L875,-217L882,-219L885,-218L888,-221L888,-227L892,-233L897,-236L894,-243L902,-242L904,-246L904,-250L908,-255L907,-260L905,-265L911,-269L920,-272L930,-273L934,-275L939,-276L946,-271L948,-263Z" fill="#E0E0E0" stroke="#fff" stroke-width=".4"/><path d="M864,-279L869,-278L876,-276L878,-275L884,-278L887,-276L890,-281L895,-281L897,-283L898,-287L901,-291L906,-288L905,-285L908,-285L907,-275L910,-272L914,-274L917,-275L923,-280L929,-279L938,-279L939,-276L934,-275L930,-273L920,-272L911,-269L905,-265L907,-260L908,-255L904,-250L904,-246L902,-242L894,-243L897,-236L892,-233L888,-227L888,-221L885,-218L882,-219L875,-217L874,-215L868,-215L863,-209L863,-200L851,-196L845,-197L843,-195L838,-196L830,-195L815,-200L823,-209L822,-215L816,-217L815,-224L812,-232L816,-238L812,-239L814,-247L818,-260L827,-256L833,-257L835,-262L842,-264L847,-267L849,-276L856,-278L857,-282L861,-279Z" fill="#E0E0E0" stroke="#fff" stroke-width=".4"/><path d="M708,-201L703,-206L703,-211L700,-211L702,-219L697,-227L686,-232L680,-242L682,-250L687,-254L686,-260L680,-264L675,-276L670,-285L672,-289L669,-302L675,-305L676,-300L681,-295L687,-294L690,-294L700,-302L703,-303L706,-300L703,-294L708,-289L711,-289L713,-281L722,-279L728,-273L740,-271L754,-274L754,-277L762,-279L768,-285L774,-285L778,-287L784,-286L794,-280L801,-279L811,-269L817,-269L818,-260L814,-247L812,-239L816,-238L812,-232L815,-224L816,-217L822,-215L823,-209L815,-200L819,-194L823,-188L831,-184L831,-175L835,-174L836,-169L824,-164L820,-153L804,-156L794,-158L785,-159L781,-171L777,-173L770,-171L761,-167L751,-170L742,-177L733,-180L728,-190L721,-203L717,-201L711,-205Z" fill="#E0E0E0" stroke="#fff" stroke-width=".4"/><path d="M997,7L996,16L992,19L985,21L980,14L979,1L983,-13L989,-8L993,-2Z" fill="#E0E0E0" stroke="#fff" stroke-width=".4"/><path d="M1238,-89L1231,-91L1231,-99L1235,-103L1245,-106L1250,-106L1252,-102L1248,-98L1246,-93ZM984,-335L983,-342L989,-345L981,-366L998,-371L1003,-374L1009,-396L1026,-392L1031,-398L1032,-411L1039,-412L1046,-421L1049,-422L1051,-413L1059,-406L1071,-401L1077,-391L1074,-376L1077,-371L1087,-369L1099,-367L1109,-359L1115,-358L1119,-347L1124,-340L1133,-340L1151,-337L1163,-339L1172,-337L1185,-330L1195,-330L1199,-326L1209,-333L1223,-337L1236,-337L1246,-341L1253,-348L1259,-352L1257,-356L1255,-360L1259,-368L1264,-367L1273,-365L1282,-371L1295,-376L1301,-384L1307,-388L1320,-390L1327,-388L1328,-393L1320,-402L1313,-406L1306,-401L1298,-403L1293,-402L1291,-407L1297,-420L1301,-430L1311,-425L1324,-434L1324,-440L1331,-454L1336,-459L1336,-467L1331,-470L1339,-477L1349,-480L1361,-480L1374,-476L1382,-471L1387,-456L1390,-450L1393,-442L1397,-428L1412,-424L1422,-415L1426,-402L1439,-402L1446,-407L1461,-411L1456,-400L1453,-395L1450,-381L1444,-369L1433,-371L1426,-367L1428,-356L1427,-342L1422,-342L1423,-336L1417,-343L1413,-336L1400,-331L1401,-325L1394,-325L1390,-329L1384,-321L1374,-314L1367,-307L1355,-304L1348,-299L1339,-296L1344,-301L1342,-305L1349,-313L1344,-319L1337,-315L1327,-307L1321,-300L1313,-299L1308,-294L1313,-286L1320,-284L1320,-279L1327,-276L1337,-284L1345,-280L1350,-280L1352,-274L1339,-271L1335,-265L1327,-260L1322,-252L1332,-246L1335,-236L1341,-226L1347,-219L1346,-211L1341,-208L1343,-203L1348,-200L1347,-192L1345,-184L1340,-183L1333,-172L1326,-159L1318,-148L1306,-139L1294,-131L1284,-130L1279,-126L1276,-129L1271,-124L1259,-120L1250,-118L1247,-108L1242,-108L1240,-115L1242,-118L1230,-121L1226,-120L1217,-122L1213,-126L1214,-131L1206,-133L1202,-137L1195,-132L1186,-130L1179,-130L1175,-128L1170,-127L1171,-116L1167,-116L1166,-119L1166,-122L1159,-120L1156,-121L1149,-125L1152,-133L1146,-135L1144,-143L1135,-142L1136,-153L1144,-161L1144,-169L1144,-177L1140,-179L1138,-185L1132,-184L1123,-186L1126,-190L1122,-196L1116,-192L1108,-194L1098,-188L1090,-180L1083,-179L1080,-182L1075,-182L1069,-184L1064,-182L1058,-175L1058,-182L1052,-180L1042,-181L1032,-183L1025,-188L1018,-190L1015,-195L1011,-196L1002,-203L995,-206L991,-203L979,-210L971,-217L968,-228L974,-227L975,-232L971,-237L972,-246L963,-258L948,-263L946,-271L939,-276L938,-279L936,-285L937,-290L931,-292L929,-291L926,-302L929,-304L928,-307L936,-312L942,-314L951,-313L955,-320L966,-322L969,-326L983,-333Z" fill="#E0E0E0" stroke="#fff" stroke-width=".4"/><path d="M602,-54L601,-58L605,-71L606,-77L608,-80L615,-81L619,-87L624,-76L627,-68L632,-63L643,-55L648,-50L653,-45L656,-42L660,-39L657,-37L654,-37L651,-40L647,-46L643,-48L641,-52L633,-55L627,-55L625,-57L620,-55L615,-59L612,-52Z" fill="#E0E0E0" stroke="#fff" stroke-width=".4"/><path d="M-222,252L-219,257L-220,270L-211,272L-207,270L-201,273L-200,275L-199,284L-198,288L-194,288L-191,287L-188,288L-188,294L-189,299L-191,305L-192,313L-200,321L-207,322L-217,321L-226,318L-217,304L-218,299L-227,295L-238,288L-245,287L-261,272L-258,260L-257,255L-253,247L-238,244L-230,245L-222,249Z" fill="#E0E0E0" stroke="#fff" stroke-width=".4"/><path d="M738,-96L744,-81L747,-74L741,-72L739,-68L739,-65L730,-61L717,-57L709,-50L705,-50L702,-51L697,-47L692,-45L684,-45L682,-44L680,-42L678,-41L677,-39L672,-39L669,-38L663,-38L661,-43L661,-48L660,-51L658,-58L656,-61L658,-62L657,-66L658,-68L657,-72L661,-75L660,-78L663,-83L666,-80L669,-81L679,-82L680,-81L689,-80L692,-80L694,-77L698,-79L704,-88L713,-92Z" fill="#E0E0E0" stroke="#fff" stroke-width=".4"/><path d="M589,-195L599,-193L603,-196L605,-200L611,-201L613,-205L616,-207L607,-217L624,-222L626,-223L637,-221L650,-213L674,-193L690,-192L698,-191L700,-187L706,-187L710,-178L714,-176L716,-173L722,-169L722,-165L721,-161L722,-158L725,-155L726,-152L727,-150L730,-148L732,-149L734,-145L734,-143L738,-133L764,-128L766,-130L770,-124L764,-105L738,-96L713,-92L704,-88L698,-79L694,-77L692,-80L689,-80L680,-81L679,-82L669,-81L666,-80L663,-83L660,-78L661,-75L657,-72L656,-76L654,-78L653,-82L648,-85L644,-93L641,-100L635,-107L631,-108L626,-117L625,-124L625,-129L620,-140L616,-143L611,-145L608,-151L609,-153L606,-158L604,-160L600,-167L595,-175L591,-182L586,-182L588,-188L588,-191Z" fill="#E0E0E0" stroke="#fff" stroke-width=".4"/><path d="M266,-255L269,-248L270,-242L273,-231L275,-228L273,-224L262,-223L258,-219L253,-218L253,-210L242,-206L239,-201L232,-199L223,-197L209,-190L209,-178L208,-178L208,-173L203,-173L200,-170L196,-170L193,-172L186,-171L183,-163L180,-162L176,-150L164,-140L161,-127L157,-122L156,-119L137,-118L137,-118L137,-123L140,-125L143,-130L143,-133L146,-140L150,-146L153,-148L156,-153L156,-158L159,-164L165,-168L170,-178L171,-178L175,-182L183,-183L190,-190L194,-192L201,-201L199,-213L203,-222L204,-228L209,-235L218,-239L225,-244L230,-255L233,-261L240,-261L245,-257L253,-257L262,-255Z" fill="#E0E0E0" stroke="#fff" stroke-width=".4"/><path d="M606,-124L571,-124L538,-124L503,-124L503,-159L503,-194L500,-202L502,-208L501,-212L504,-217L516,-217L524,-215L533,-212L537,-210L543,-213L547,-216L555,-217L561,-216L563,-211L565,-214L572,-212L579,-211L583,-214L588,-199L589,-196L586,-192L585,-185L582,-180L580,-178L577,-181L573,-186L567,-200L566,-199L570,-188L575,-179L582,-163L585,-158L588,-153L596,-142L594,-140L594,-134L604,-126Z" fill="#E0E0E0" stroke="#fff" stroke-width=".4"/><path d="M503,-124L503,-105L492,-105L492,-101L458,-119L423,-137L414,-132L408,-128L403,-134L389,-138L385,-144L379,-148L375,-146L371,-152L371,-156L366,-163L369,-167L369,-173L370,-178L369,-183L371,-191L370,-196L367,-204L372,-207L372,-211L371,-215L377,-219L380,-223L384,-226L385,-233L395,-230L399,-231L406,-229L418,-224L422,-215L429,-213L442,-209L451,-204L455,-207L459,-211L457,-219L460,-224L466,-229L472,-230L484,-228L487,-224L490,-224L493,-222L502,-221L504,-217L501,-212L502,-208L500,-202L503,-194L503,-159Z" fill="#E0E0E0" stroke="#fff" stroke-width=".4"/><path d="M701,3L676,29L665,29L657,36L652,36L649,39L643,39L640,36L632,39L629,43L624,42L622,41L620,41L617,41L606,34L600,34L597,31L597,26L592,25L587,15L583,13L582,10L577,5L572,5L575,-0L579,-1L581,-3L581,-11L583,-20L587,-23L588,-27L592,-33L597,-38L601,-47L602,-54L612,-52L615,-59L620,-55L625,-57L627,-55L633,-55L641,-52L643,-48L647,-46L651,-40L654,-37L651,-33L648,-29L648,-27L648,-24L653,-24L655,-25L657,-23L655,-20L659,-15L662,-11L665,-8L694,3Z" fill="#E0E0E0" stroke="#fff" stroke-width=".4"/><path d="M654,-37L657,-37L660,-39L662,-36L662,-32L657,-30L661,-28L657,-23L655,-25L653,-24L648,-24L648,-27L648,-29L651,-33Z" fill="#E0E0E0" stroke="#fff" stroke-width=".4"/><path d="M711,-27L711,-27L711,-24L711,-15L711,-10L707,-5L701,3L694,3L665,-8L662,-11L659,-15L655,-20L657,-23L661,-28L663,-26L665,-22L669,-19L673,-19L682,-21L691,-22L699,-25L703,-25L706,-27Z" fill="#E0E0E0" stroke="#fff" stroke-width=".4"/><path d="M580,81L562,82L553,82L550,83L544,85L542,84L542,78L544,74L545,67L547,63L550,59L553,57L556,54L553,52L553,42L557,40L562,42L569,40L576,40L581,36L585,42L586,46L590,56L587,62L582,68L580,72Z" fill="#E0E0E0" stroke="#fff" stroke-width=".4"/><path d="M550,83L553,88L553,93L550,94L546,93L543,98L538,97L538,93L540,92L540,87L542,84L544,85Z" fill="#E0E0E0" stroke="#fff" stroke-width=".4"/><path d="M553,42L546,36L544,33L539,34L535,34L532,35L528,34L523,27L522,24L515,21L513,16L509,12L504,7L504,4L499,1L493,-3L495,-4L498,-5L501,-13L503,-17L509,-18L511,-16L515,-11L518,-10L521,-12L527,-11L528,-10L537,-10L537,-11L542,-13L543,-16L546,-17L553,-12L558,-13L562,-20L567,-24L566,-30L564,-32L569,-33L570,-35L574,-34L573,-28L574,-21L578,-18L580,-15L579,-10L581,-10L581,-3L579,-1L575,-0L572,5L577,5L582,10L583,13L587,15L592,25L586,30L581,36L576,40L569,40L562,42L557,40Z" fill="#E0E0E0" stroke="#fff" stroke-width=".4"/></g><g clip-path="url(#v)"><path d="M398.6,113.1L398.5,113.3L397.5,113.6L396.5,114.0L395.2,115.5L394.5,116.1L394.3,116.3L393.7,116.6L393.2,116.9L393.2,117.1L393.5,117.3L393.8,117.6L393.8,120.0L393.7,122.4L393.5,122.6L392.6,122.7L391.5,122.8L391.1,122.9L391.0,122.7L390.6,121.8L390.9,121.0L391.1,120.4L390.8,119.2L390.3,118.0L389.6,116.6L389.5,116.3L390.0,115.9L390.7,114.9L391.1,114.4L392.0,114.2L392.3,113.9L392.6,113.3L392.6,113.0L393.7,112.7L394.9,112.2L395.6,111.7L396.3,111.3L396.7,111.3L397.0,111.5L397.8,112.4L398.4,113.0ZM493.5,168.0L493.7,169.1L493.9,170.7L494.0,171.9L494.2,172.4L494.2,172.7L494.0,173.0L493.9,173.7L493.7,174.3L493.5,174.7L493.7,175.5L493.6,176.7L493.5,177.9L493.4,179.0L493.8,181.1L493.7,181.7L493.3,182.8L493.0,183.7L492.8,184.6L492.8,185.1L493.5,186.5L493.5,186.8L492.9,186.9L492.4,186.9L490.6,186.9L488.0,186.9L485.5,186.9L482.9,186.9L480.5,186.9L478.2,186.9L476.2,186.9L476.2,188.3L476.2,191.2L476.2,194.1L476.2,196.9L476.2,199.8L476.2,202.7L476.2,205.6L476.2,208.5L476.2,211.4L476.2,213.5L476.7,216.3L477.7,219.3L478.1,219.6L479.0,220.2L480.4,221.3L481.1,222.2L482.7,223.7L484.7,225.6L486.7,227.3L488.4,228.8L485.7,229.4L481.8,230.1L479.2,230.6L476.0,231.2L473.9,231.6L471.3,232.1L470.9,232.1L470.2,231.8L468.6,231.7L466.9,232.2L465.5,232.3L464.4,232.1L463.4,231.7L462.4,231.1L460.7,230.9L458.2,231.0L455.8,230.9L453.5,230.5L451.9,230.4L450.9,230.4L449.9,230.3L448.7,230.0L447.8,229.4L446.7,228.2L445.8,227.0L445.5,226.9L445.3,226.7L445.0,226.6L442.5,226.6L440.1,226.6L438.7,226.6L435.4,226.6L432.1,226.5L428.7,226.5L425.4,226.5L422.1,226.5L418.8,226.5L415.4,226.5L412.1,226.5L410.3,226.5L408.7,226.6L406.9,226.7L406.6,226.7L406.2,226.5L405.9,226.3L404.9,225.6L404.0,225.1L402.9,224.3L402.1,223.3L401.5,223.0L400.4,222.9L399.5,222.7L398.9,222.7L397.7,223.1L396.8,223.6L396.1,224.0L395,224.4L394.1,224.9L392.4,224.9L392.1,224.9L391.1,224.9L390.3,224.5L389.4,224.5L388.4,225.0L387.0,225.3L387.4,221.8L387.7,220.3L387.7,218.5L387.5,213.8L387.3,213.1L387.1,212.4L388.0,211.8L388.4,211.4L389.0,210.6L389.4,209.5L389.9,207.1L391.7,201.6L392.6,196.2L393.7,193.7L394.1,190.8L397.1,187.2L397.9,184.9L399.4,183.8L401.6,182.6L403.2,180.5L404.0,179.1L404.8,176.3L404.8,173.4L405.4,169.6L405.3,168.5L404.4,166.9L404.3,165.9L403.5,164.8L402.7,164.0L402.3,162.5L400.9,160.2L400.5,158.7L399.8,157.6L399.7,156.3L399.4,154.8L398.7,153.4L398.0,151.8L398.0,151.3L398.4,150.7L398.8,150.5L398.7,150.8L398.4,151.2L398.5,151.5L401.1,148.7L401.3,148.1L401.2,147.5L401.2,146.7L401.3,145.9L398.8,140.7L396.8,135.9L396.5,133.4L393.8,130.2L392.8,128.1L392.2,126.7L391.7,126.1L391.9,125.9L392.6,125.8L394.1,125.5L396.2,125.1L398.1,124.2L398.6,123.9L399.6,123.8L400.6,124.0L401.0,123.9L401.2,123.8L403.7,123.8L404.7,123.8L406.5,123.8L407.7,123.9L408.4,124.0L410.2,124.1L412.4,124.1L413.2,124.0L416.2,124.0L419.1,123.9L421.7,123.9L424.7,123.9L426.9,123.9L427.9,124.2L428.8,124.8L429.2,125.3L429.4,125.5L429.7,126.1L430.2,126.5L430.4,127.2L430.2,128.1L430.3,129.2L430.6,130.5L431.2,131.8L432.1,133.2L432.5,134.4L432.4,135.2L432.7,136.1L433.4,137.0L433.9,137.5L434.2,137.9L435.0,139.3L436.4,141.6L437.5,143.3L437.9,143.5L438.4,143.4L439.6,143.2L440.8,143.2L441.6,143.6L442.0,143.5L443.2,142.8L444.4,142.6L445.8,142.3L446.5,142.0L447.2,142.0L449.4,142.6L449.8,142.6L451.5,142.6L453.2,142.3L453.5,140.0L453.5,139.6L453.9,138.7L454.4,138.0L454.5,137.3L454.5,136.3L454.9,135.1L456.0,134.1L457.9,133.7L458.9,133.6L460.6,133.4L463.2,133.1L464.1,133.1L464.2,133.2L463.6,134.9L463.6,135.4L463.8,136.0L464.3,136.3L466.9,136.3L469.3,136.3L472.1,136.4L474.2,136.5L474.5,136.6L474.7,136.7L475.0,137.5L474.9,139.1L474.4,141.4L474.6,143.6L475.5,145.6L475.5,148.7L475.3,150.6L474.9,152.9L474.8,155.6L475.1,156.7L475.9,157.8L477.1,159.0L478.1,160.6L478.8,162.5L479.0,163.7L478.8,164.3L478.8,165.1L479.1,166.4L478.8,167.2L478.1,167.6L477.9,168.1L478.3,169.2L478.3,170.2L478.6,170.6L478.8,170.8L479.1,170.9L479.8,170.5L480.6,169.9L481.3,169.6L482.2,169.6L483.5,169.8L485.8,169.9L486.5,169.8L488.6,168.9L489.1,168.8L490.0,168.9L491.2,169.2L492.4,169.2L492.9,168.9L493.0,168.6L493.2,168.1Z" fill="#4ECDC4" stroke="#2C3E50" stroke-width="1"/></g><circle cx="400.0" cy="150.0" r="4" fill="#E74C3C" stroke="#fff" stroke-width="2"/><text x="400.0" y="140.0" text-anchor="middle" font-family="sans-serif" font-weight="700" font-size="10" fill="#2D3436">Luanda</text></svg>