<svg viewBox="0 0 800 300" xmlns="http://www.w3.org/2000/svg"><defs><clipPath id="v"><rect width="800" height="300"/></clipPath></defs><rect width="800" height="300" fill="#DCEEF8"/><g clip-path="url(#v)"><path d="M-1706,1729L-1725,1758L-1734,1781L-1746,1792L-1761,1795L-1765,1786L-1772,1785L-1782,1793L-1795,1787L-1787,1774L-1784,1759L-1779,1746L-1791,1728L-1794,1706L-1778,1680L-1767,1683L-1744,1691L-1711,1717ZM85,91L99,103L144,112L128,144L124,177L116,185L102,181L103,192L80,218L80,238L94,231L105,251L104,264L113,280L102,294L110,327L127,333L123,351L95,375L34,364L-11,378L-14,403L-50,408L-85,389L-96,399L-153,379L-166,363L-150,337L-144,250L-176,203L-199,180L-246,162L-249,128L-209,118L-157,130L-167,76L-137,97L-65,59L-56,19L-29,9L-25,27L-10,27L4,47L26,70L42,66L69,88L76,92ZM164,397L184,380L189,416L179,449L165,440L158,412Z" fill="#E0E0E0" stroke="#fff" stroke-width=".4"/><path d="M766,-253L798,-239L803,-226L819,-232L849,-219L852,-194L845,-179L865,-144L877,-135L876,-125L897,-116L905,-102L893,-91L868,-93L862,-88L870,-71L877,-38L851,-35L841,-24L839,1L827,-4L799,-2L791,-13L779,-4L768,-12L743,-13L709,-25L677,-29L653,-27L636,-14L622,-12L621,-34L611,-58L630,-68L630,-89L622,-108L620,-131L650,-131L684,-151L691,-181L716,-198L713,-223L732,-232Z" fill="#E0E0E0" stroke="#fff" stroke-width=".4"/><path d="M877,-38L889,-36L897,-48L906,-45L938,-50L958,-22L950,-11L953,4L978,6L989,28L988,37L1027,54L1051,47L1070,69L1088,69L1134,84L1134,98L1122,123L1128,149L1124,164L1094,168L1078,181L1077,201L1052,205L1031,219L1002,222L976,238L977,262L973,261L969,252L959,250L937,241L928,252L924,247L876,236L874,219L845,224L834,249L810,282L796,274L781,281L767,273L775,268L781,253L789,239L787,231L793,227L796,234L815,235L823,232L817,227L819,220L808,209L804,190L793,182L795,167L781,154L768,153L745,138L725,143L717,149L704,149L697,160L674,165L663,172L649,161L629,160L610,155L596,165L594,153L577,140L583,121L592,109L598,112L590,90L619,50L634,45L637,31L622,-12L636,-14L653,-27L677,-29L709,-25L743,-13L768,-12L779,-4L791,-13L799,-2L827,-4L839,1L841,-24L851,-35Z" fill="#E0E0E0" stroke="#fff" stroke-width=".4"/><path d="M620,-131L622,-108L630,-89L630,-68L611,-58L621,-34L622,-12L637,31L634,45L619,50L590,90L598,112L592,109L562,91L540,97L525,93L507,103L491,86L479,92L477,89L463,66L440,63L437,48L415,42L411,55L394,45L396,31L373,27L358,11L345,-20L348,-38L340,-65L329,-83L338,-97L330,-123L351,-139L400,-163L439,-181L470,-172L472,-159L502,-159L540,-153L597,-153L613,-148Z" fill="#E0E0E0" stroke="#fff" stroke-width=".4"/><path d="M577,140L594,153L596,165L577,175L563,206L544,236L519,245L500,243L476,255L465,261L439,253L416,234L406,228L400,213L395,212L405,183L399,173L417,173L419,154L435,166L446,171L472,165L474,156L487,155L502,147L505,150L520,145L527,134L537,131L570,145Z" fill="#E0E0E0" stroke="#fff" stroke-width=".4"/><path d="M717,149L725,143L745,138L768,153L781,154L795,167L793,182L804,190L808,209L819,220L817,227L823,232L815,235L796,234L793,227L787,231L789,239L781,253L775,268L767,273L762,253L765,234L764,214L746,187L736,168L727,154Z" fill="#E0E0E0" stroke="#fff" stroke-width=".4"/><path d="M767,273L781,281L796,274L810,282L810,293L795,303L786,298L777,351L759,346L737,331L700,341L685,351L639,349L616,343L604,346L595,328L589,320L596,313L589,308L579,317L561,305L558,287L539,276L536,262L519,245L544,236L563,206L577,175L596,165L610,155L629,160L649,161L663,172L674,165L697,160L704,149L717,149L727,154L736,168L746,187L764,214L765,234L762,253Z" fill="#E0E0E0" stroke="#fff" stroke-width=".4"/><path d="M713,-223L716,-198L691,-181L684,-151L650,-131L620,-131L613,-148L597,-153L594,-167L598,-182L584,-190L552,-200L545,-246L580,-263L632,-259L663,-265L667,-253L684,-250Z" fill="#E0E0E0" stroke="#fff" stroke-width=".4"/><path d="M330,-123L338,-97L329,-83L340,-65L348,-38L345,-20L358,11L344,17L336,11L328,20L306,30L295,42L272,52L278,67L281,87L297,98L314,119L303,140L292,146L296,176L294,184L284,175L269,173L247,182L220,180L215,192L200,179L190,182L157,168L151,178L124,177L128,144L144,112L99,103L85,91L86,70L80,59L84,26L79,-26L97,-26L105,-45L113,-91L107,-109L113,-120L139,-123L145,-111L166,-137L159,-157L157,-187L181,-180L200,-188L201,-168L232,-155L232,-136L263,-146L281,-161L316,-140Z" fill="#E0E0E0" stroke="#fff" stroke-width=".4"/><path d="M595,328L604,346L616,343L639,349L685,351L700,341L737,331L759,346L777,351L761,368L750,399L760,422L733,417L702,430L701,451L673,455L652,440L627,451L604,450L602,423L586,409L591,404L588,399L593,385L605,372L590,353L587,338Z" fill="#E0E0E0" stroke="#fff" stroke-width=".4"/><path d="M707,689L703,700L659,703L659,697L621,690L627,673L644,686L668,684L691,687L690,693ZM604,450L627,451L652,440L673,455L701,451L702,430L717,441L707,467L700,471L681,470L665,466L627,477L649,500L633,506L616,506L600,486L594,494L601,519L616,537L604,546L622,564L637,576L637,598L609,588L618,608L598,612L610,646L590,646L564,630L553,598L547,572L535,554L519,531L517,520L531,500L533,487L543,481L544,471L564,467L576,458L593,459L598,452Z" fill="#E0E0E0" stroke="#fff" stroke-width=".4"/><path d="M1279,617L1265,624L1254,614L1218,609L1204,615L1169,621L1153,620L1117,635L1091,635L1075,627L1041,638L1031,631L1029,652L1021,661L1012,669L1001,652L1013,637L994,640L968,632L947,654L900,658L875,637L841,636L834,652L813,657L783,636L749,637L731,598L708,576L723,546L703,526L738,488L785,486L799,455L857,461L895,434L931,422L982,421L1036,450L1081,466L1117,460L1143,464L1180,442L1213,440L1243,460L1248,475L1245,495L1268,505L1280,516L1259,528L1269,574L1262,586ZM702,430L733,417L760,422L764,439L791,452L785,462L748,464L735,477L709,499L700,480L700,471L707,467L717,441Z" fill="#E0E0E0" stroke="#fff" stroke-width=".4"/><path d="M544,471L543,481L533,487L531,500L517,520L512,517L511,508L494,495L491,475L494,447L498,434L493,428L491,415L504,394L506,402L515,398L521,409L529,414L531,429L527,443L531,461Z" fill="#E0E0E0" stroke="#fff" stroke-width=".4"/><path d="M406,228L416,234L439,253L465,261L476,255L484,272L494,284L482,301L468,291L446,292L420,284L405,285L398,295L387,284L381,303L396,323L403,336L417,352L429,362L440,380L468,396L464,403L435,387L417,372L389,359L363,328L369,324L355,306L355,291L335,284L325,303L316,289L317,273L318,273L339,274L345,267L356,274L368,275L368,262L378,258L381,240Z" fill="#E0E0E0" stroke="#fff" stroke-width=".4"/><path d="M190,182L191,190L187,201L201,209L216,210L214,229L200,237L177,231L171,249L156,250L151,243L133,258L118,260L105,251L94,231L80,238L80,218L103,192L102,181L116,185L124,177L151,178L157,168Z" fill="#E0E0E0" stroke="#fff" stroke-width=".4"/><path d="M80,59L86,70L85,91L76,92L69,88L72,61Z" fill="#E0E0E0" stroke="#fff" stroke-width=".4"/><path d="M84,26L80,59L72,61L69,88L42,66L26,70L4,47L-10,27L-25,27L-29,9L-4,-0L18,4L47,-7L67,15Z" fill="#E0E0E0" stroke="#fff" stroke-width=".4"/><path d="M107,-109L113,-91L105,-45L97,-26L79,-26L84,26L67,15L47,-7L18,4L-4,-0L12,-14L39,-89L81,-110Z" fill="#E0E0E0" stroke="#fff" stroke-width=".4"/><path d="M-338,620L-340,607L-329,592L-324,582L-335,570L-327,544L-339,520L-326,517L-324,497L-319,491L-319,460L-305,448L-313,428L-331,426L-337,431L-355,431L-363,411L-375,417L-387,428L-385,398L-398,380L-354,349L-316,357L-274,356L-241,364L-216,361L-166,363L-153,379L-96,399L-85,389L-50,408L-14,403L-13,427L-42,455L-82,464L-85,477L-104,500L-115,533L-103,555L-121,573L-128,599L-151,606L-173,636L-213,637L-242,636L-262,650L-273,664L-288,661L-300,648L-309,626Z" fill="#E0E0E0" stroke="#fff" stroke-width=".4"/><path d="M216,210L235,217L239,208L269,200L276,216L321,228L317,250L325,269L300,262L275,278L277,300L273,312L283,334L312,356L328,391L362,425L386,424L394,434L385,442L413,457L436,469L462,490L465,498L460,513L442,494L415,487L402,513L425,528L421,549L408,551L392,585L379,588L379,576L385,555L392,546L380,523L370,503L358,498L348,480L328,473L315,456L292,454L268,435L240,408L219,384L209,342L194,337L168,322L154,328L136,348L123,351L127,333L110,327L102,294L113,280L104,264L105,251L118,260L133,258L151,243L156,250L171,249L177,231L200,237L214,229ZM350,579L374,576L363,606L367,618L361,638L337,624L321,620L278,600L282,580L319,583ZM163,468L178,456L197,485L192,538L178,535L166,549L154,538L153,490L146,466Z" fill="#E0E0E0" stroke="#fff" stroke-width=".4"/><path d="M200,-188L181,-180L157,-187L145,-217L144,-274L149,-289L158,-306L185,-310L196,-326L221,-342L220,-312L211,-294L214,-278L231,-270L223,-249L214,-255L192,-215ZM276,-250L286,-222L268,-179L235,-209L231,-232Z" fill="#E0E0E0" stroke="#fff" stroke-width=".4"/><path d="M-299,-129L-322,-140L-341,-139L-335,-168L-341,-196L-315,-199L-282,-165ZM-203,-105L-203,-105L-198,-135L-219,-168L-219,-169L-257,-178L-264,-193L-253,-217L-263,-232L-280,-206L-282,-259L-297,-288L-286,-347L-262,-395L-237,-390L-200,-395L-233,-332L-201,-340L-168,-339L-176,-293L-203,-243L-171,-239L-169,-233L-141,-169L-120,-161L-101,-101L-92,-80L-55,-71L-59,-38L-74,-23L-62,2L-90,28L-131,28L-184,41L-198,32L-219,54L-247,49L-269,67L-286,58L-240,6L-213,-4L-213,-4L-261,-13L-270,-33L-238,-48L-254,-76L-249,-110Z" fill="#E0E0E0" stroke="#fff" stroke-width=".4"/><path d="M321,228L346,231L362,221L389,220L395,212L400,213L406,228L381,240L378,258L368,262L368,275L356,274L345,267L339,274L318,273L325,269L317,250Z" fill="#E0E0E0" stroke="#fff" stroke-width=".4"/><path d="M592,109L583,121L577,140L570,145L537,131L527,134L520,145L505,150L502,147L487,155L474,156L472,165L446,171L435,166L419,154L416,138L418,132L423,122L436,122L447,118L448,113L454,111L456,100L463,98L468,90L477,89L479,92L491,86L507,103L525,93L540,97L562,91Z" fill="#E0E0E0" stroke="#fff" stroke-width=".4"/><path d="M358,11L373,27L396,31L394,45L411,55L415,42L437,48L440,63L463,66L477,89L468,90L463,98L456,100L454,111L448,113L447,118L436,122L423,122L418,132L404,123L389,126L365,111L355,115L337,134L314,119L297,98L281,87L278,67L272,52L295,42L306,30L328,20L336,11L344,17Z" fill="#E0E0E0" stroke="#fff" stroke-width=".4"/><path d="M468,396L440,380L429,362L417,352L403,336L396,323L381,303L387,284L398,295L405,285L420,284L446,292L468,291L482,301L493,301L485,320L500,336L495,357L488,359L482,362L472,372Z" fill="#E0E0E0" stroke="#fff" stroke-width=".4"/><path d="M586,409L602,423L604,450L598,452L593,459L576,458L564,467L544,471L531,461L527,443L531,429L535,429L536,421L554,414L561,413L572,410Z" fill="#E0E0E0" stroke="#fff" stroke-width=".4"/><path d="M476,255L500,243L519,245L536,262L539,276L558,287L561,305L579,317L589,308L596,313L589,320L595,328L587,338L590,353L605,372L593,385L588,399L591,404L586,409L572,410L561,413L560,409L564,404L567,394L563,394L557,387L552,385L548,378L542,375L538,369L532,372L528,386L520,389L523,385L511,376L501,372L496,366L488,359L495,357L500,336L485,320L493,301L482,301L494,284L484,272Z" fill="#E0E0E0" stroke="#fff" stroke-width=".4"/><path d="M515,398L506,402L504,394L491,415L493,428L486,425L478,411L464,403L468,396L472,372L482,362L488,359L496,366L501,372L511,376L523,385L520,389Z" fill="#E0E0E0" stroke="#fff" stroke-width=".4"/><path d="M531,429L529,414L521,409L515,398L520,389L528,386L532,372L538,369L542,375L548,378L552,385L557,387L563,394L567,394L564,404L560,409L561,413L554,414L536,421L535,429Z" fill="#E0E0E0" stroke="#fff" stroke-width=".4"/></g><g clip-path="url(#v)"><path d="M188.1,193.3L190.7,187.7L191.2,184.3L188.9,182.2L188.0,181.7L188.8,181.2L191.9,181.6L193.9,180.4L195.1,179.3L197.8,180.4L201.9,182.6L203.9,184.0L204.6,185.1L205.1,186.0L204.9,187.6L205.8,188.3L207.6,188.5L209.0,189.0L208.5,191.1L208.4,192.9L210.2,192.6L212.4,191.3L214.2,188.9L215.2,186.5L216.1,180.9L216.3,180.4L217.7,180.9L223.1,180.6L225.7,181.7L229.8,181.8L229.7,182.7L230.5,184.1L232.3,186.1L233.2,187.4L235.1,187.6L238.0,186.9L239.6,186.2L240.3,186.7L243.0,186.2L245.3,184.6L245.9,183.3L248.3,182.5L251.5,180.5L255.9,179.0L270.4,177.3L271.0,176.0L270.7,173.1L271.2,172.7L273.0,173.5L276.0,174.1L278.2,175.1L279.7,176.5L281.0,176.5L283.1,175.6L285.9,175.0L288.6,176.3L289.4,177.9L288.9,178.6L288.9,179.8L289.8,180.8L291.9,182.5L294.7,183.9L296.2,183.7L296.6,182.4L297.2,179.1L297.4,175.6L296.7,173.6L295.3,173.1L293.5,173.0L292.5,172.6L292.8,171.5L294.3,168.6L294.3,164.8L291.0,160.4L288.2,156.2L288.2,154.8L289.9,152.3L292.5,150.3L298.2,147.0L300.1,146.3L302.3,145.7L305.6,144.4L307.3,142.9L308.3,141.5L309.9,133.4L310.3,133.1L310.8,132.6L316.5,135.4L317.1,135.0L318.1,134.5L320.0,132.4L320.3,130.8L320.3,127.7L320.6,124.9L320.9,124.0L321.8,124.3L324.2,125.8L326.2,127.5L328.1,131.7L332.5,132.8L337.9,132.9L340.0,131.1L341.7,130.6L343.7,131.2L348.0,131.8L348.5,128.5L351.0,124.9L352.1,123.7L355.2,123.7L356.0,121.1L356.7,113.8L357.3,113.0L359.7,113.1L361.9,114.4L362.6,115.6L363.8,115.4L365.4,114.7L367.2,114.3L370.1,115.0L376.2,118.4L379.3,119.6L381.3,119.3L383.1,119.4L390.3,124.6L395.4,125.3L399.9,125.3L401.4,123.7L403.4,122.4L405.4,122.6L407.2,123.3L410.6,125.5L412.2,126.1L414.3,126.4L415.9,126.9L417.3,130.8L418.1,131.9L417.9,132.4L417.8,134.1L416.5,136.4L415.3,139.2L415.3,141.8L418.7,150.6L421.7,155.9L422.2,157.9L424.1,159.4L422.2,161.5L421.9,164.3L420.8,165.6L420.4,167.2L420.9,168.7L420.9,170.7L421.5,173.2L418.7,173.8L415.3,173.7L414.1,173.9L412.9,174.6L411.7,174.2L408.6,171.8L406.8,171.2L405.6,171.4L404.7,172.4L403.0,173.8L401.6,174.7L401.9,175.6L408.4,177.8L409.5,181.1L408.3,183.8L407.8,185.2L406.3,186.2L404.5,187.2L402.3,187.4L402.0,188.8L402.8,193.1L402.2,194.1L401.5,195.4L402.2,199.0L403.5,199.2L403.8,200.0L403.6,201.4L403.3,202.9L402.8,204.6L402.6,205.3L401.7,205.7L398.8,205.4L396.4,206.9L391.5,211.7L389.7,212.6L387.8,214.6L387.9,218.9L387.7,219.3L387.2,220.1L381.3,218.6L381.1,218.6L377.2,219.2L374.5,221.2L371.2,222.3L364.3,221.7L357.6,222.5L356.0,223.0L354.2,223.4L352.7,224.5L351.7,226.2L350.1,228.2L347.6,229.8L345.1,231.1L344.5,232.1L343.6,232.6L342.2,231.9L341.1,231.9L339.6,231.4L334.9,230.8L329.7,229.9L327.3,229.0L324.5,228.3L321.5,227.6L318.7,227.5L317.3,227.2L310.9,225.7L306.5,225.5L300.8,224.9L289.7,222.5L286.3,221.5L283.2,221.2L279.5,220.4L276.8,219.0L274.9,216.4L273.0,213.0L269.5,208.5L268.7,206.2L269.8,204.3L271.0,202.8L270.8,202.1L270.0,201.8L263.7,203.8L257.7,206.2L255.4,206.3L253.1,205.8L250.1,205.7L247.1,206.3L241.3,206.7L237.9,208.4L235.7,212.0L234.5,214.8L233.5,215.7L231.5,216.0L228.4,215.7L226.3,215.0L224.1,212.5L220.7,212.2L217.6,212.1L216.8,211.7L216.9,210.2L215.7,207.2L213.6,206.2L208.3,211.8L206.9,212.3L202.6,210.8L199.0,208.4L198.6,206.7L197.9,205.2L194.8,203.9L191.0,203.0L189.8,203.0L190.3,202.1L190.7,200.7L190.4,199.6L189.5,198.4L189.0,197.1L188.9,195.9L188.6,194.9L188.5,194.0Z" fill="#4ECDC4" stroke="#2C3E50" stroke-width="1"/></g><circle cx="400.0" cy="150.0" r="4" fill="#E74C3C" stroke="#fff" stroke-width="2"/><text x="400.0" y="140.0" text-anchor="middle" font-family="sans-serif" font-weight="700" font-size="10" fill="#2D3436">Vienna</text></svg>