<svg viewBox="0 0 800 300" xmlns="http://www.w3.org/2000/svg"><defs><clipPath id="v"><rect width="800" height="300"/></clipPath></defs><rect width="800" height="300" fill="#DCEEF8"/><g clip-path="url(#v)"><path d="M492,87L493,86L494,87L493,89L491,89L490,89L489,87L491,86ZM498,83L496,84L494,85L494,84L495,83L496,83L498,82L498,82L498,83ZM-645,82L-645,82L-645,82L-645,82L-645,83L-645,83L-645,83L-645,82Z" fill="#E0E0E0" stroke="#fff" stroke-width=".4"/><path d="M34,33L35,33L46,40L46,42L51,45L49,49L50,51L52,52L52,53L51,55L51,56L51,57L52,59L53,62L54,63L52,65L48,66L46,66L45,67L43,67L42,68L38,67L36,67L35,63L34,61L33,60L30,60L29,59L27,58L25,57L24,57L22,53L20,51L20,49L20,47L19,44L21,44L22,43L23,41L24,41L24,40L23,39L23,38L24,37L24,35L23,34L24,33L28,33Z" fill="#E0E0E0" stroke="#fff" stroke-width=".4"/><path d="M-101,-61L-101,-61L-101,-60L-101,-55L-112,-55L-112,-46L-115,-46L-115,-44L-115,-39L-127,-39L-128,-38L-128,-40L-128,-40L-121,-40L-120,-41L-119,-43L-118,-47L-113,-51L-112,-56L-111,-56L-110,-59L-107,-59L-106,-59L-105,-59L-104,-59L-102,-59L-102,-61Z" fill="#E0E0E0" stroke="#fff" stroke-width=".4"/><path d="M204,-150L201,-147L199,-146L199,-142L197,-139L191,-141L188,-133L187,-132L180,-130L183,-122L181,-121L181,-119L179,-119L178,-121L173,-121L168,-121L167,-121L162,-123L160,-122L160,-119L155,-121L152,-120L152,-118L150,-118L146,-115L144,-112L143,-112L142,-114L138,-114L138,-117L136,-117L136,-121L132,-125L127,-124L123,-124L120,-128L118,-129L113,-133L112,-133L104,-130L104,-114L102,-114L100,-117L98,-119L94,-118L93,-116L93,-117L94,-119L93,-121L89,-122L88,-126L86,-127L86,-129L89,-128L89,-131L92,-132L95,-131L95,-136L95,-139L92,-139L89,-140L85,-138L82,-137L81,-137L81,-140L79,-143L77,-143L74,-146L76,-150L75,-151L77,-156L81,-153L81,-157L88,-162L93,-162L100,-159L103,-157L107,-159L112,-159L116,-157L117,-158L121,-158L122,-160L117,-164L120,-166L119,-168L122,-169L120,-173L121,-175L133,-176L135,-178L143,-180L146,-182L151,-181L152,-175L156,-177L160,-175L160,-172L163,-172L171,-177L169,-175L173,-171L181,-158L182,-161L187,-158L191,-159L193,-158L194,-155L197,-154L198,-152L202,-153Z" fill="#E0E0E0" stroke="#fff" stroke-width=".4"/><path d="M104,-114L104,-130L112,-133L113,-133L118,-129L120,-128L123,-124L127,-124L132,-125L136,-121L136,-117L138,-117L138,-114L142,-114L143,-112L144,-112L146,-115L150,-118L152,-118L153,-118L150,-115L152,-114L155,-115L158,-112L154,-109L152,-110L151,-110L150,-111L151,-113L147,-112L146,-109L144,-107L141,-107L141,-105L143,-104L144,-101L142,-97L139,-98L138,-98L138,-100L133,-102L130,-104L128,-106L124,-109L123,-113L122,-114L118,-114L117,-115L117,-118L113,-120L110,-118L107,-116L108,-114Z" fill="#E0E0E0" stroke="#fff" stroke-width=".4"/><path d="M374,38L380,41L386,42L388,44L390,46L390,47L395,49L396,51L393,51L394,54L397,56L399,59L401,59L400,60L403,61L402,62L405,63L405,64L403,64L402,63L399,63L396,62L394,60L392,59L390,56L386,54L383,55L381,56L382,59L379,60L378,59L374,59L374,49ZM411,42L412,43L413,44L412,45L411,43L410,42L409,41L407,40L405,39L406,38L407,39L409,40L410,40ZM407,49L405,49L404,50L402,50L399,49L397,48L398,47L401,48L402,48L403,46L403,46L404,48L405,47L406,46L408,45L408,43L410,43L410,44L410,46L409,48L407,48ZM418,47L419,48L420,50L422,51L421,52L421,52L419,51L418,49L417,46L418,46Z" fill="#E0E0E0" stroke="#fff" stroke-width=".4"/><path d="M374,38L374,49L374,59L371,57L368,56L367,57L363,57L365,54L367,53L366,50L364,47L358,45L356,44L351,41L350,43L349,43L348,42L348,41L346,39L349,38L351,38L351,37L346,37L345,35L342,35L341,33L345,32L347,31L352,33L352,34L353,39L357,41L359,37L363,36L366,36L368,37L371,38ZM323,58L324,59L324,60L322,62L319,63L318,63L319,62L320,60ZM353,52L352,50L353,48L354,47L354,48L354,50ZM301,17L299,20L301,23L301,24L304,27L301,28L299,30L300,33L297,35L296,38L295,43L295,42L291,43L290,41L288,41L286,40L282,41L281,40L279,40L276,39L276,35L274,34L273,32L272,29L273,26L275,24L275,26L277,28L279,27L281,27L283,26L285,25L288,26L290,26L292,21L293,20L294,16L298,16ZM337,39L341,40L342,42L339,41L337,41L335,41L333,41L333,39ZM329,42L327,42L326,40L330,40L330,41ZM333,23L333,25L335,25L335,26L335,29L333,29L333,31L334,33L333,33L332,31L331,27L332,24ZM317,27L320,27L324,25L324,26L322,29L319,29L316,29L311,29L308,29L308,32L310,35L312,33L318,32L318,34L316,33L315,35L312,36L315,40L315,41L318,45L318,47L316,48L315,47L316,44L313,46L312,45L313,43L310,42L311,38L308,39L309,43L309,48L307,48L305,47L306,44L306,41L305,41L304,39L305,37L305,34L307,30L308,28L310,26L313,27ZM308,63L304,61L307,60L309,61L310,62L310,63ZM312,57L314,57L317,56L316,58L311,59L307,58L307,57L310,56ZM302,57L304,56L305,58L301,59L299,59L297,59L298,57L300,57L301,56ZM271,51L271,52L277,52L278,51L284,52L285,54L290,55L294,57L290,58L287,57L284,57L281,57L278,56L274,55L272,54L270,55L264,54L264,52L261,52L263,49L267,49L270,50ZM258,34L258,36L259,38L262,38L263,40L263,44L262,49L259,49L256,46L252,44L251,42L248,39L247,37L244,32L242,30L241,27L239,24L237,22L235,20L233,18L229,14L229,13L231,13L236,13L239,17L241,19L243,20L246,23L249,23L252,26L254,28L256,30L255,32L257,33Z" fill="#E0E0E0" stroke="#fff" stroke-width=".4"/><path d="M19,44L20,47L20,49L20,51L22,53L24,57L23,56L18,57L18,57L17,59L17,61L17,65L16,68L17,68L19,70L20,69L21,73L18,73L17,71L16,69L13,69L13,67L11,68L8,68L7,66L5,66L4,66L3,65L2,65L1,65L-1,65L-3,65L-3,66L-3,62L-4,60L-4,59L-4,57L-5,55L-5,53L-9,53L-8,52L-10,52L-10,53L-12,53L-13,55L-13,56L-15,55L-16,56L-18,56L-19,54L-20,53L-21,51L-22,49L-31,49L-32,49L-33,49L-35,50L-35,49L-34,48L-34,47L-34,46L-32,45L-32,46L-31,44L-29,44L-29,45L-27,46L-26,44L-24,42L-23,41L-23,39L-22,36L-20,34L-18,32L-18,31L-18,30L-17,29L-17,27L-17,25L-16,23L-15,21L-15,19L-15,17L-14,15L-12,14L-9,15L-7,16L-5,17L-3,17L-2,15L-1,15L0,15L4,14L5,15L6,14L7,14L8,13L10,14L12,14L13,13L15,16L17,16L17,16L19,16L21,15L21,17L24,19L24,23L25,23L24,24L23,25L22,27L21,28L21,31L20,32L20,34L19,35L19,37L19,37L18,39L19,41Z" fill="#E0E0E0" stroke="#fff" stroke-width=".4"/><path d="M58,35L56,33L56,21L59,18L60,17L62,17L65,14L69,14L78,5L80,2L82,-0L82,-2L82,-5L82,-6L82,-6L83,-6L84,-7L86,-7L87,-8L89,-8L89,-7L88,-6L88,-4L88,-3L87,1L85,4L83,8L81,13L78,17L74,21L71,24L66,27L63,29L60,33L59,35Z" fill="#E0E0E0" stroke="#fff" stroke-width=".4"/><path d="M51,45L46,42L46,40L35,33L34,33L34,30L35,28L36,26L38,24L36,20L36,19L34,17L36,15L38,13L40,13L40,15L41,16L43,16L47,19L48,19L49,19L50,19L52,19L53,18L56,17L57,18L59,18L56,21L56,33L58,35L56,37L55,38L54,38L54,41L53,42L52,44Z" fill="#E0E0E0" stroke="#fff" stroke-width=".4"/><path d="M4,4L2,2L1,2L1,1L1,-1L1,-2L-1,-4L-1,-6L-1,-6L-2,-7L-2,-9L-3,-10L-4,-10L-4,-11L-3,-13L-3,-14L-2,-15L-3,-16L-2,-18L-1,-20L2,-20L2,-33L2,-35L6,-35L6,-42L18,-42L31,-42L43,-42L44,-38L44,-38L44,-34L45,-30L47,-29L48,-28L47,-26L44,-26L43,-25L43,-22L42,-18L42,-16L41,-13L40,-10L38,-9L37,-6L37,-5L35,-4L34,-0L34,2L34,-0L34,-0L34,-2L33,-3L32,-4L31,-6L32,-9L30,-9L30,-8L28,-8L29,-7L29,-5L27,-4L26,-1L24,-1L22,-3L20,-2L20,-1L18,-1L18,0L15,0L15,-1L12,-1L11,-0L10,-0L9,-2L8,-3L6,-3L5,-1L4,2L3,2L2,3Z" fill="#E0E0E0" stroke="#fff" stroke-width=".4"/><path d="M2,-33L2,-20L-1,-20L-2,-18L-3,-16L-2,-15L-3,-14L-3,-13L-4,-11L-4,-10L-3,-10L-2,-9L-2,-7L-1,-6L-1,-6L-3,-5L-5,-4L-7,-0L-10,1L-13,1L-14,1L-14,3L-15,4L-17,5L-21,6L-21,5L-22,5L-23,6L-25,6L-25,6L-26,3L-26,2L-28,1L-29,-0L-29,-2L-27,-2L-26,-2L-25,-2L-26,-5L-26,-7L-26,-9L-28,-11L-27,-13L-29,-13L-29,-15L-31,-16L-29,-20L-25,-23L-25,-28L-24,-35L-23,-36L-25,-37L-25,-38L-26,-39L-27,-45L-23,-46L-11,-40Z" fill="#E0E0E0" stroke="#fff" stroke-width=".4"/><path d="M224,-433L231,-438L237,-428L245,-409L244,-394L237,-392L228,-397L223,-403L220,-416L216,-420ZM253,-401L261,-391L260,-385L242,-379L248,-400L251,-402ZM367,-353L376,-353L387,-346L385,-337L373,-337L368,-334L361,-342L363,-351ZM397,-343L405,-340L401,-335L396,-336L390,-341L391,-345ZM371,-320L374,-324L378,-325L382,-321L382,-318L378,-318L371,-319ZM69,-424L75,-428L80,-428L80,-423L82,-428L85,-431L90,-427L89,-424L84,-421L82,-420L81,-417L77,-413L74,-418L76,-424ZM-2,-176L-7,-176L-11,-177L-11,-179L-6,-181L-3,-180L-1,-179L-2,-178ZM96,-324L104,-334L103,-340L110,-347L121,-355L131,-357L137,-363L143,-364L145,-359L143,-355L132,-348L122,-342L112,-331L107,-319L102,-309L103,-301L109,-293L107,-292L97,-293L96,-297L90,-300L90,-305L93,-308L93,-313L99,-323ZM380,-173L381,-168L381,-163L383,-158L386,-149L381,-150L379,-144L382,-139L382,-135L380,-138L378,-135L377,-139L377,-143L377,-148L378,-152L378,-159L376,-164L376,-171L379,-173L378,-176L379,-176ZM-645,-276L-645,-276L-638,-270L-629,-261L-630,-256L-628,-254L-628,-260L-620,-259L-613,-252L-617,-248L-622,-247L-622,-240L-623,-239L-626,-239L-628,-241L-633,-243L-633,-247L-637,-248L-640,-247L-642,-250L-641,-253L-645,-251L-644,-247L-645,-244L-645,-244L-645,-276ZM498,-244L498,-244L494,-241L490,-241L493,-237L495,-231L496,-229L496,-227L496,-225L490,-226L481,-221L478,-220L473,-216L469,-212L467,-209L463,-213L455,-208L453,-211L450,-208L446,-209L445,-205L441,-199L441,-196L445,-195L444,-186L441,-186L440,-182L441,-179L436,-176L435,-170L430,-169L429,-164L424,-159L423,-162L422,-170L420,-182L422,-190L424,-193L424,-196L429,-198L435,-205L440,-212L446,-217L449,-226L445,-226L443,-220L435,-213L432,-221L424,-219L416,-208L419,-204L412,-203L407,-202L407,-206L402,-207L398,-204L388,-205L378,-204L368,-192L356,-178L361,-178L362,-174L365,-173L367,-176L371,-176L375,-170L375,-165L373,-160L373,-154L371,-146L366,-139L365,-136L361,-131L357,-126L355,-123L350,-121L348,-121L346,-123L342,-120L342,-118L342,-118L341,-119L341,-121L343,-121L343,-126L342,-130L345,-132L349,-131L351,-135L352,-140L354,-142L355,-146L350,-145L347,-143L342,-143L341,-148L337,-151L332,-153L331,-158L330,-161L328,-163L326,-168L324,-170L319,-172L315,-171L311,-170L308,-168L310,-167L310,-164L308,-162L305,-157L305,-155L301,-151L297,-153L293,-153L291,-155L290,-155L285,-152L281,-151L278,-150L274,-150L271,-150L269,-153L266,-155L263,-156L259,-155L256,-154L251,-156L251,-160L247,-161L244,-162L240,-164L237,-159L238,-156L235,-152L231,-154L227,-154L225,-156L222,-156L219,-158L214,-155L208,-151L205,-150L204,-150L202,-153L198,-152L197,-154L194,-155L193,-158L191,-159L187,-158L182,-161L181,-158L173,-171L169,-175L171,-177L163,-172L160,-172L160,-175L156,-177L152,-175L151,-181L146,-182L143,-180L135,-178L133,-176L121,-175L120,-173L122,-169L119,-168L120,-166L117,-164L122,-160L121,-158L117,-158L116,-157L112,-159L107,-159L103,-157L100,-159L93,-162L88,-162L81,-157L81,-153L77,-156L75,-151L76,-150L74,-146L77,-143L79,-143L81,-140L81,-137L82,-137L81,-134L78,-133L75,-129L77,-124L77,-121L81,-116L79,-115L78,-114L77,-114L75,-116L74,-117L72,-118L71,-119L68,-120L66,-120L65,-120L61,-122L56,-123L54,-124L53,-123L49,-127L46,-129L43,-131L45,-132L48,-136L46,-138L51,-140L51,-141L48,-140L48,-142L49,-143L53,-144L53,-145L52,-148L54,-150L54,-152L49,-153L47,-153L45,-156L43,-155L39,-157L39,-158L38,-160L35,-160L35,-162L36,-163L34,-166L30,-165L29,-165L28,-164L27,-164L26,-168L26,-170L26,-170L29,-170L30,-171L29,-172L27,-173L27,-174L26,-175L24,-179L25,-180L24,-183L21,-184L20,-184L19,-185L16,-187L15,-190L14,-193L13,-194L14,-196L13,-202L16,-205L15,-206L19,-210L15,-213L22,-221L25,-225L26,-229L22,-233L23,-238L20,-244L22,-250L19,-259L22,-265L17,-271L17,-277L20,-278L25,-282L28,-285L34,-279L42,-277L54,-267L57,-263L57,-258L53,-254L48,-252L34,-258L32,-257L37,-251L37,-247L37,-240L41,-237L44,-236L44,-239L42,-242L44,-245L52,-241L55,-242L53,-248L60,-255L63,-255L66,-252L68,-258L65,-263L67,-268L64,-273L73,-270L75,-265L71,-264L71,-260L74,-257L78,-259L79,-264L86,-268L97,-275L99,-275L96,-270L100,-269L102,-272L108,-272L113,-276L117,-270L120,-276L117,-281L119,-284L128,-282L132,-279L144,-269L146,-273L143,-278L143,-280L139,-281L140,-285L138,-292L138,-296L144,-305L146,-314L148,-316L157,-313L158,-308L155,-299L156,-296L158,-289L157,-277L160,-272L159,-266L153,-254L156,-253L158,-256L161,-258L162,-262L165,-266L163,-271L164,-277L161,-277L160,-282L163,-292L158,-300L164,-307L163,-314L165,-314L167,-308L165,-299L169,-297L167,-304L173,-308L179,-309L185,-303L182,-311L182,-323L188,-325L195,-325L202,-326L200,-332L203,-340L207,-341L213,-347L221,-349L222,-352L231,-353L233,-351L241,-358L246,-357L247,-363L250,-369L258,-375L263,-371L259,-367L266,-365L267,-358L270,-361L279,-361L286,-355L289,-350L288,-343L285,-339L276,-333L274,-329L278,-327L282,-325L285,-327L287,-320L288,-322L293,-324L304,-322L304,-317L318,-316L318,-324L325,-322L330,-322L335,-316L336,-309L334,-305L338,-297L343,-293L346,-304L351,-299L357,-302L363,-299L365,-301L371,-300L368,-310L372,-314L401,-307L404,-301L412,-294L425,-296L431,-294L434,-290L434,-283L438,-281L442,-282L447,-283L453,-281L459,-282L465,-274L469,-277L466,-283L468,-287L478,-284L484,-285L494,-280L498,-276L498,-244ZM498,-294L495,-293L494,-296L498,-300L498,-294ZM-645,-300L-645,-300L-645,-300L-645,-301L-642,-301L-638,-298L-638,-297L-641,-294L-645,-294L-645,-294L-645,-300ZM32,-135L33,-136L36,-135L37,-135L37,-134L38,-134L38,-133L39,-132L42,-132L42,-131L38,-130L34,-127L32,-128L33,-130L29,-132L30,-133L33,-134Z" fill="#E0E0E0" stroke="#fff" stroke-width=".4"/><path d="M-26,-407L-24,-414L-20,-414L-16,-408L-5,-395L-13,-389L-15,-377L-18,-374L-19,-363L-23,-362L-30,-371L-27,-376L-32,-380L-38,-394L-41,-407L-32,-414L-30,-407ZM25,-282L20,-278L17,-277L18,-284L14,-287L9,-284L8,-277L5,-274L1,-276L-3,-275L-6,-280L-8,-278L-10,-277L-11,-271L-17,-273L-17,-268L-20,-268L-23,-262L-26,-253L-31,-242L-29,-240L-31,-237L-34,-237L-36,-230L-36,-221L-34,-218L-35,-210L-37,-206L-39,-202L-41,-206L-47,-199L-51,-198L-56,-201L-57,-207L-58,-222L-55,-227L-47,-233L-40,-240L-34,-251L-27,-266L-22,-273L-13,-284L-6,-288L-1,-288L4,-296L10,-295L16,-297L26,-290L22,-287ZM13,-414L9,-405L-1,-403L-10,-406L-11,-410L-15,-411L-19,-419L-9,-425L-4,-420L-1,-426L7,-421ZM5,-378L-2,-372L-8,-375L-6,-379L-8,-384L-1,-387L0,-381Z" fill="#E0E0E0" stroke="#fff" stroke-width=".4"/><path d="M145,207L147,209L150,209L150,210L150,213L145,213L145,210L145,208Z" fill="#E0E0E0" stroke="#fff" stroke-width=".4"/><path d="M323,58L324,58L326,57L329,57L330,56L331,57L330,58L326,59L324,60L324,59Z" fill="#E0E0E0" stroke="#fff" stroke-width=".4"/><path d="M-22,125L-20,123L-19,124L-18,126L-17,126L-15,127L-13,126L-11,124L-11,111L-10,112L-8,115L-8,117L-7,119L-5,118L-3,117L-2,116L-1,114L0,113L2,114L3,115L6,115L8,114L8,113L9,111L10,111L11,110L12,107L15,105L20,102L21,102L23,103L24,102L25,103L27,107L28,110L27,114L27,115L26,114L25,115L25,116L24,117L24,118L26,120L28,120L28,118L31,118L30,121L29,124L29,126L26,127L26,128L24,130L24,132L22,134L18,138L16,140L14,142L10,144L9,144L8,145L6,144L5,145L1,144L-1,145L-2,145L-5,146L-8,147L-10,148L-11,148L-13,147L-14,147L-15,145L-15,146L-16,145L-16,142L-17,140L-16,139L-16,136L-18,133L-20,130L-20,130ZM18,126L17,125L15,126L14,127L12,130L14,132L16,132L16,131L18,130L18,129L19,127Z" fill="#E0E0E0" stroke="#fff" stroke-width=".4"/><path d="M18,126L19,127L18,129L18,130L16,131L16,132L14,132L12,130L14,127L15,126L17,125Z" fill="#E0E0E0" stroke="#fff" stroke-width=".4"/><path d="M-243,144L-244,142L-243,140L-245,138L-247,136L-250,133L-252,133L-255,130L-257,131L-253,126L-249,122L-247,121L-244,119L-244,116L-246,114L-247,115L-247,113L-246,111L-246,109L-247,108L-249,109L-250,109L-250,107L-250,104L-251,103L-253,102L-254,103L-258,102L-258,97L-258,96L-257,95L-258,93L-257,91L-256,89L-257,87L-259,86L-259,85L-259,83L-265,82L-266,79L-265,79L-265,77L-266,76L-266,74L-268,73L-270,73L-271,72L-273,72L-274,71L-278,70L-281,67L-281,65L-282,64L-281,61L-285,62L-287,63L-290,64L-291,65L-292,65L-295,65L-296,66L-298,65L-298,60L-300,62L-303,62L-304,60L-306,60L-306,59L-307,57L-309,54L-308,53L-308,52L-306,51L-306,49L-305,48L-305,47L-302,45L-299,44L-299,44L-296,44L-294,35L-294,34L-295,32L-296,31L-296,28L-294,28L-294,28L-294,27L-295,27L-295,25L-289,25L-288,24L-287,25L-287,27L-286,26L-284,28L-282,28L-281,27L-279,26L-278,25L-277,24L-275,23L-275,22L-278,22L-278,20L-278,18L-280,17L-279,17L-277,17L-274,18L-273,17L-271,17L-267,16L-266,14L-267,14L-265,13L-264,14L-265,16L-264,16L-263,18L-264,19L-264,21L-263,23L-263,24L-261,26L-260,26L-259,25L-258,25L-257,25L-256,24L-254,24L-253,24L-252,24L-251,24L-252,23L-252,22L-250,22L-249,22L-247,23L-246,23L-245,23L-244,23L-243,24L-242,23L-241,22L-240,20L-238,17L-237,17L-236,18L-234,24L-232,25L-232,27L-235,29L-234,30L-228,31L-228,34L-226,32L-222,33L-216,35L-215,37L-215,39L-212,38L-205,39L-201,39L-196,42L-192,45L-190,46L-187,46L-186,47L-185,52L-184,53L-185,59L-187,61L-191,65L-193,69L-196,72L-197,72L-197,74L-197,80L-198,86L-198,88L-199,89L-200,94L-203,98L-204,102L-206,103L-207,105L-211,105L-216,106L-218,108L-221,109L-225,112L-228,115L-228,118L-228,120L-228,123L-229,125L-231,127L-235,134L-238,137L-240,138L-241,142Z" fill="#E0E0E0" stroke="#fff" stroke-width=".4"/><path d="M-238,17L-240,20L-241,22L-242,23L-243,24L-244,23L-245,23L-246,23L-247,23L-246,21L-246,20L-245,19L-247,17L-247,15L-245,12L-244,12L-242,13L-238,16ZM-54,-151L-53,-150L-48,-149L-50,-146L-50,-142L-51,-142L-52,-142L-52,-141L-55,-138L-55,-136L-53,-137L-52,-135L-52,-134L-51,-132L-52,-130L-51,-127L-50,-126L-50,-125L-53,-122L-59,-123L-64,-122L-64,-119L-68,-119L-71,-121L-73,-120L-78,-122L-80,-123L-78,-126L-78,-135L-81,-140L-83,-142L-88,-144L-88,-147L-84,-148L-79,-147L-80,-153L-77,-151L-69,-154L-69,-159L-66,-160L-65,-158L-64,-158L-62,-156L-60,-153L-58,-154L-56,-152L-55,-151ZM-46,-120L-44,-122L-43,-118L-44,-115L-46,-115L-47,-118Z" fill="#E0E0E0" stroke="#fff" stroke-width=".4"/><path d="M25,103L24,102L23,103L21,102L20,102L18,101L15,100L14,98L14,97L13,96L9,93L8,91L8,90L7,87L10,88L11,88L12,88L14,86L17,83L18,83L18,82L20,80L22,80L23,81L25,81L27,82L27,83L29,83L31,84L31,88L30,90L30,93L30,94L30,96L30,96L29,99Z" fill="#E0E0E0" stroke="#fff" stroke-width=".4"/><path d="M20,102L15,105L12,107L11,110L10,111L9,111L8,113L8,114L6,115L3,115L2,114L0,113L-1,114L-2,116L-3,117L-5,118L-7,119L-8,117L-8,115L-10,112L-11,111L-11,101L-7,101L-7,89L-5,89L-0,88L1,89L3,88L4,88L6,87L7,87L8,90L8,91L9,93L13,96L14,97L14,98L15,100L18,101Z" fill="#E0E0E0" stroke="#fff" stroke-width=".4"/><path d="M-11,111L-11,124L-13,126L-15,127L-17,126L-18,126L-19,124L-20,123L-22,125L-24,122L-25,120L-26,116L-27,114L-28,108L-28,104L-28,102L-30,101L-31,98L-33,94L-34,92L-36,88L-36,86L-35,85L-33,85L-31,85L-29,86L-29,86L-16,86L-13,88L-6,88L0,87L3,86L5,86L6,87L6,87L4,88L3,88L1,89L-0,88L-5,89L-7,89L-7,101L-11,101Z" fill="#E0E0E0" stroke="#fff" stroke-width=".4"/><path d="M-127,-14L-128,-16L-130,-17L-128,-18L-127,-20L-126,-22L-125,-23L-123,-23L-122,-23L-120,-23L-118,-22L-116,-22L-114,-19L-112,-17L-112,-15L-112,-13L-110,-12L-110,-11L-110,-10L-111,-10L-112,-10L-113,-9L-113,-9L-116,-10L-117,-10L-123,-10L-124,-10L-125,-10L-127,-10L-127,-12L-124,-12L-124,-12L-123,-12L-122,-13L-120,-13L-119,-12L-118,-13L-118,-14L-119,-14L-120,-14L-122,-14L-123,-14L-123,-14Z" fill="#E0E0E0" stroke="#fff" stroke-width=".4"/><path d="M-110,-10L-110,-11L-110,-12L-112,-13L-112,-15L-112,-17L-111,-17L-111,-19L-110,-19L-108,-19L-106,-19L-105,-19L-104,-20L-91,-20L-91,-22L-91,-22L-93,-37L-94,-52L-89,-52L-79,-44L-68,-37L-67,-35L-65,-34L-64,-34L-64,-32L-60,-32L-60,-24L-62,-22L-62,-20L-65,-19L-69,-19L-70,-18L-73,-18L-75,-18L-75,-18L-77,-18L-80,-17L-81,-16L-83,-14L-84,-13L-85,-13L-86,-13L-87,-12L-88,-10L-90,-7L-90,-6L-91,-5L-91,-3L-92,-3L-93,-2L-93,-4L-94,-3L-95,-3L-95,-2L-98,-2L-99,-3L-99,-2L-100,-3L-100,-4L-100,-5L-101,-4L-101,-6L-100,-6L-102,-8L-102,-9L-103,-9L-103,-9L-104,-9L-105,-8L-106,-8L-107,-8L-108,-9L-109,-9L-110,-9L-110,-9Z" fill="#E0E0E0" stroke="#fff" stroke-width=".4"/><path d="M-128,-38L-127,-39L-115,-39L-115,-44L-115,-46L-112,-46L-112,-55L-101,-55L-101,-60L-89,-52L-94,-52L-93,-37L-91,-22L-91,-22L-91,-20L-104,-20L-105,-19L-106,-19L-108,-19L-110,-19L-111,-19L-111,-17L-112,-17L-114,-19L-116,-22L-118,-22L-120,-23L-122,-23L-123,-23L-125,-23L-126,-22L-126,-24L-125,-25L-125,-28L-125,-32L-126,-33L-125,-35L-126,-37Z" fill="#E0E0E0" stroke="#fff" stroke-width=".4"/><path d="M-65,10L-68,11L-69,8L-68,1L-69,0L-69,-1L-70,-2L-71,-3L-71,-5L-70,-5L-69,-7L-68,-7L-67,-8L-66,-9L-65,-9L-62,-7L-62,-6L-62,-4L-62,-3L-62,-2L-63,-0L-64,1L-65,3L-65,5Z" fill="#E0E0E0" stroke="#fff" stroke-width=".4"/><path d="M-27,-45L-26,-39L-25,-38L-25,-37L-23,-36L-24,-35L-25,-28L-25,-23L-29,-20L-31,-16L-29,-15L-29,-13L-27,-13L-28,-11L-29,-11L-29,-10L-29,-10L-31,-13L-32,-14L-35,-12L-37,-13L-39,-13L-40,-12L-42,-12L-43,-11L-45,-11L-49,-13L-50,-12L-52,-12L-53,-13L-56,-14L-60,-14L-61,-13L-61,-11L-62,-10L-62,-7L-65,-9L-66,-9L-67,-8L-67,-10L-70,-11L-71,-13L-72,-15L-73,-16L-73,-18L-70,-18L-69,-19L-65,-19L-62,-20L-62,-22L-60,-24L-60,-32L-56,-33L-46,-40L-36,-47L-31,-45L-29,-43Z" fill="#E0E0E0" stroke="#fff" stroke-width=".4"/><path d="M-65,10L-65,5L-65,3L-64,1L-63,-0L-62,-2L-62,-3L-62,-4L-62,-6L-62,-7L-62,-10L-61,-11L-61,-13L-60,-14L-56,-14L-53,-13L-52,-12L-50,-12L-49,-13L-45,-11L-43,-11L-42,-12L-40,-12L-39,-13L-37,-13L-35,-12L-32,-14L-31,-13L-29,-10L-29,-10L-27,-9L-28,-8L-28,-7L-31,-4L-31,-2L-32,-1L-33,0L-33,2L-35,4L-35,5L-36,7L-36,8L-39,9L-40,8L-42,8L-43,10L-44,10L-46,13L-47,15L-50,16L-51,16L-52,17L-55,17L-57,15L-58,12L-60,10L-62,10Z" fill="#E0E0E0" stroke="#fff" stroke-width=".4"/><path d="M-28,-11L-26,-9L-26,-7L-26,-5L-25,-2L-26,-2L-27,-2L-29,-2L-29,-0L-28,1L-26,2L-26,3L-25,6L-25,6L-27,10L-28,10L-28,13L-27,14L-28,15L-26,17L-26,18L-25,19L-23,21L-23,22L-23,23L-23,25L-26,24L-28,23L-32,23L-33,23L-34,23L-36,23L-38,23L-43,23L-43,20L-44,18L-45,18L-46,16L-47,16L-47,15L-46,13L-44,10L-43,10L-42,8L-40,8L-39,9L-36,8L-36,7L-35,5L-35,4L-33,2L-33,0L-32,-1L-31,-2L-31,-4L-28,-7L-28,-8L-27,-9L-29,-10L-29,-11Z" fill="#E0E0E0" stroke="#fff" stroke-width=".4"/><path d="M-71,-5L-71,-3L-70,-2L-69,-1L-69,0L-68,1L-69,8L-68,11L-70,11L-71,10L-72,8L-72,6L-71,4L-72,2L-73,-0L-73,-2L-74,-4L-74,-5Z" fill="#E0E0E0" stroke="#fff" stroke-width=".4"/><path d="M-74,-5L-74,-4L-73,-2L-73,-0L-72,2L-71,4L-72,6L-72,8L-71,10L-70,11L-75,13L-77,14L-80,15L-83,14L-83,13L-84,10L-83,7L-82,4L-83,-1L-83,-3L-83,-5L-78,-5L-76,-5L-75,-5Z" fill="#E0E0E0" stroke="#fff" stroke-width=".4"/><path d="M-99,-2L-99,-3L-98,-2L-95,-2L-95,-3L-94,-3L-93,-4L-93,-2L-92,-3L-91,-3L-89,-2L-89,-1L-87,-1L-86,-1L-85,-2L-83,-1L-82,4L-83,7L-84,10L-83,13L-83,14L-84,14L-86,14L-88,14L-92,14L-94,15L-98,16L-98,16L-98,14L-98,13L-98,12L-99,11L-100,10L-101,10L-100,8L-101,7L-101,6L-100,6L-100,4L-100,4L-100,3L-99,3L-99,0L-100,-1L-100,-2Z" fill="#E0E0E0" stroke="#fff" stroke-width=".4"/><path d="M-117,-10L-116,-10L-113,-9L-113,-9L-112,-10L-111,-10L-110,-10L-110,-9L-110,-9L-109,-9L-108,-9L-107,-8L-106,-8L-105,-8L-104,-9L-103,-9L-103,-9L-102,-9L-102,-8L-100,-6L-101,-6L-101,-4L-100,-5L-100,-4L-100,-3L-99,-2L-100,-2L-100,-1L-99,0L-99,3L-100,3L-100,4L-100,4L-100,6L-101,6L-101,6L-102,7L-103,7L-104,6L-103,5L-105,3L-106,3L-106,3L-107,3L-107,2L-108,1L-107,1L-108,-1L-109,-2L-112,-2L-112,-1L-113,-1L-114,-1L-114,0L-116,2L-117,-0L-118,-1L-119,-2L-120,-3L-120,-4L-121,-5L-122,-5L-120,-7L-119,-7L-119,-7L-118,-7L-117,-8L-118,-9L-117,-9Z" fill="#E0E0E0" stroke="#fff" stroke-width=".4"/><path d="M-127,-10L-125,-10L-124,-10L-123,-10L-117,-10L-117,-9L-118,-9L-117,-8L-118,-7L-119,-7L-119,-7L-120,-7L-122,-5L-123,-7L-125,-7L-126,-8L-126,-8L-126,-9Z" fill="#E0E0E0" stroke="#fff" stroke-width=".4"/><path d="M-101,6L-101,7L-100,8L-101,10L-100,10L-99,11L-98,12L-98,13L-98,14L-98,16L-99,16L-102,15L-105,12L-108,11L-110,8L-109,7L-109,7L-108,5L-106,3L-106,3L-105,3L-103,5L-104,6L-103,7L-102,7L-101,6Z" fill="#E0E0E0" stroke="#fff" stroke-width=".4"/><path d="M-116,2L-114,0L-114,-1L-113,-1L-112,-1L-112,-2L-109,-2L-108,-1L-107,1L-108,1L-107,2L-107,3L-106,3L-108,5L-109,7L-109,7L-110,8L-111,8L-113,7L-115,5L-115,4Z" fill="#E0E0E0" stroke="#fff" stroke-width=".4"/><path d="M-91,-3L-91,-5L-90,-6L-90,-7L-88,-10L-87,-12L-86,-13L-85,-13L-84,-13L-83,-14L-81,-16L-80,-17L-77,-18L-75,-18L-75,-18L-73,-18L-73,-16L-72,-15L-71,-13L-70,-11L-67,-10L-67,-8L-68,-7L-69,-7L-70,-5L-71,-5L-74,-5L-75,-5L-76,-5L-78,-5L-83,-5L-83,-3L-83,-1L-85,-2L-86,-1L-87,-1L-89,-1L-89,-2Z" fill="#E0E0E0" stroke="#fff" stroke-width=".4"/><path d="M13,13L12,14L10,14L8,13L7,14L6,14L5,15L4,14L0,15L-1,15L-2,15L-3,17L-5,17L-7,16L-9,15L-12,14L-14,15L-15,17L-15,19L-17,19L-19,18L-21,20L-23,23L-23,22L-23,21L-25,19L-26,18L-26,17L-28,15L-27,14L-28,13L-28,10L-27,10L-25,6L-23,6L-22,5L-21,5L-21,6L-17,5L-15,4L-14,3L-14,1L-13,1L-10,1L-7,-0L-5,-4L-3,-5L-1,-6L-1,-4L1,-2L1,-1L1,1L1,2L2,2L4,4L6,5L6,6L8,8L10,9L10,11L13,12Z" fill="#E0E0E0" stroke="#fff" stroke-width=".4"/><path d="M-15,19L-15,21L-16,23L-17,25L-17,27L-17,29L-18,30L-18,31L-18,32L-20,34L-22,36L-23,39L-23,41L-24,42L-26,44L-27,46L-29,45L-29,44L-31,44L-32,46L-32,45L-34,44L-35,45L-36,46L-38,43L-36,41L-37,39L-36,38L-34,38L-34,36L-32,38L-29,38L-28,36L-28,34L-28,32L-30,30L-28,26L-29,26L-32,26L-32,24L-32,23L-28,23L-26,24L-23,25L-23,23L-21,20L-19,18L-17,19Z" fill="#E0E0E0" stroke="#fff" stroke-width=".4"/><path d="M-38,23L-36,23L-34,23L-33,23L-32,23L-32,24L-32,26L-29,26L-28,26L-30,30L-28,32L-28,34L-28,36L-29,38L-32,38L-34,36L-34,38L-36,38L-37,39L-36,41L-38,43L-42,40L-44,37L-46,34L-46,33L-45,32L-44,29L-44,27L-42,27L-38,27Z" fill="#E0E0E0" stroke="#fff" stroke-width=".4"/><path d="M-43,23L-38,23L-38,27L-42,27L-44,27L-44,26Z" fill="#E0E0E0" stroke="#fff" stroke-width=".4"/><path d="M24,57L25,57L27,58L29,59L30,60L32,61L33,64L32,65L31,67L32,70L31,71L30,74L32,75L22,78L22,80L20,80L18,82L18,83L17,83L14,86L12,88L11,88L10,88L7,87L6,87L6,87L5,86L3,86L0,87L-2,85L-4,82L-4,71L3,71L2,70L3,69L2,68L3,66L2,65L3,65L4,66L5,66L7,66L8,68L11,68L13,67L13,69L16,69L17,71L18,73L21,73L20,69L19,70L17,68L16,68L17,65L17,61L17,59L18,57L18,57L23,56Z" fill="#E0E0E0" stroke="#fff" stroke-width=".4"/><path d="M30,60L33,60L34,61L35,63L36,67L35,69L36,74L37,74L38,75L40,77L40,81L39,82L38,84L36,82L35,80L36,78L36,77L34,76L34,76L32,75L30,74L31,71L32,70L31,67L32,65L33,64L32,61Z" fill="#E0E0E0" stroke="#fff" stroke-width=".4"/><path d="M36,67L38,67L42,68L43,67L45,67L46,66L48,66L52,65L54,63L55,64L55,68L55,71L55,76L56,77L55,80L54,82L52,84L49,85L45,87L42,90L40,91L38,93L37,94L37,97L38,99L39,101L39,102L39,102L39,105L39,107L39,108L39,109L38,110L35,112L31,113L30,115L30,116L31,116L31,118L28,118L28,117L27,115L27,114L28,110L27,107L25,103L29,99L30,96L30,96L30,94L30,93L30,90L31,88L31,84L29,83L27,83L27,82L25,81L23,81L22,80L22,78L32,75L34,76L34,76L36,77L36,78L35,80L36,82L38,84L39,82L40,81L40,77L38,75L37,74L36,74L35,69Z" fill="#E0E0E0" stroke="#fff" stroke-width=".4"/><path d="M28,118L28,120L26,120L24,118L24,117L25,116L25,115L26,114L27,115L28,117Z" fill="#E0E0E0" stroke="#fff" stroke-width=".4"/><path d="M-32,45L-34,46L-34,47L-34,48L-35,49L-36,46L-35,45L-34,44ZM-35,50L-33,49L-32,49L-31,49L-22,49L-21,51L-20,53L-19,54L-18,56L-16,56L-15,55L-13,56L-13,55L-12,53L-10,53L-10,52L-8,52L-9,53L-5,53L-5,55L-4,57L-4,59L-4,60L-3,62L-3,66L-3,65L-1,65L1,65L2,65L3,66L2,68L3,69L2,70L3,71L-4,71L-4,82L-2,85L0,87L-6,88L-13,88L-16,86L-29,86L-29,86L-31,85L-33,85L-35,85L-36,86L-37,84L-36,81L-35,78L-35,76L-34,74L-33,72L-31,70L-30,69L-30,66L-30,64L-31,63L-32,61L-33,59L-33,59L-32,57L-33,54L-33,52L-35,50Z" fill="#E0E0E0" stroke="#fff" stroke-width=".4"/><path d="M23,38L23,39L24,40L24,41L23,41L22,43L21,44L19,44L19,41L18,39L20,39L21,38Z" fill="#E0E0E0" stroke="#fff" stroke-width=".4"/><path d="M40,-80L39,-79L38,-79L37,-77L38,-76L37,-76L37,-75L39,-75L39,-74L37,-68L37,-69L35,-74L36,-76L36,-76L37,-78L37,-80L38,-81L38,-81L39,-81L39,-82L40,-82L40,-81L40,-80Z" fill="#E0E0E0" stroke="#fff" stroke-width=".4"/><path d="M40,-82L39,-82L39,-81L38,-81L39,-85L41,-87L41,-87L42,-87L43,-86L41,-84Z" fill="#E0E0E0" stroke="#fff" stroke-width=".4"/><path d="M84,70L85,71L85,74L86,78L87,79L86,81L86,82L85,80L84,81L85,83L84,84L84,85L83,88L82,92L81,97L79,103L77,108L76,112L73,113L71,114L69,113L66,112L65,110L65,107L64,104L64,102L64,99L66,99L66,98L67,95L68,93L67,91L66,89L66,86L67,84L67,82L69,82L71,82L72,81L73,81L75,79L78,77L79,75L78,74L80,74L81,72L82,70L83,69Z" fill="#E0E0E0" stroke="#fff" stroke-width=".4"/><path d="M39,-75L37,-75L37,-76L38,-76L37,-77L38,-79L39,-79L39,-76Z" fill="#E0E0E0" stroke="#fff" stroke-width=".4"/><path d="M-127,-14L-123,-14L-123,-14L-122,-14L-120,-14L-119,-14L-118,-14L-118,-13L-119,-12L-120,-13L-122,-13L-123,-12L-124,-12L-124,-12L-127,-12Z" fill="#E0E0E0" stroke="#fff" stroke-width=".4"/><path d="M-44,-71L-45,-78L-47,-79L-47,-80L-50,-82L-50,-85L-48,-87L-47,-91L-48,-94L-47,-96L-44,-98L-41,-97L-41,-95L-39,-97L-38,-96L-40,-94L-40,-92L-39,-91L-39,-88L-41,-86L-41,-84L-39,-84L-38,-82L-37,-82L-37,-79L-39,-78L-40,-76L-42,-75L-42,-73L-42,-72Z" fill="#E0E0E0" stroke="#fff" stroke-width=".4"/><path d="M-101,-60L-101,-61L-101,-61L-101,-66L-96,-68L-93,-69L-90,-70L-89,-72L-85,-73L-85,-76L-83,-76L-82,-78L-78,-78L-77,-80L-78,-81L-79,-85L-79,-87L-81,-89L-78,-92L-74,-92L-72,-94L-69,-95L-64,-96L-58,-96L-57,-95L-54,-97L-50,-97L-49,-96L-47,-96L-48,-94L-47,-91L-48,-87L-50,-85L-50,-82L-47,-80L-47,-79L-45,-78L-44,-71L-43,-68L-42,-66L-43,-63L-43,-61L-43,-60L-43,-57L-44,-56L-42,-53L-42,-52L-41,-50L-39,-50L-37,-49L-36,-47L-46,-40L-56,-33L-60,-32L-64,-32L-64,-34L-65,-34L-67,-35L-68,-37L-79,-44L-89,-52Z" fill="#E0E0E0" stroke="#fff" stroke-width=".4"/><path d="M39,-79L40,-80L43,-78L50,-82L51,-78L50,-77L44,-75L47,-72L46,-71L45,-70L43,-69L42,-68L41,-67L37,-68L37,-68L39,-74L39,-75L39,-76Z" fill="#E0E0E0" stroke="#fff" stroke-width=".4"/><path d="M90,-49L91,-49L91,-49L93,-49L96,-49L98,-49L100,-51L102,-54L104,-56L105,-54L105,-52L104,-52L104,-49L104,-49L103,-48L103,-47L102,-45L102,-44L101,-43L91,-45L90,-49Z" fill="#E0E0E0" stroke="#fff" stroke-width=".4"/><path d="M88,-51L87,-54L88,-56L89,-56L90,-55L90,-53L90,-51L89,-50Z" fill="#E0E0E0" stroke="#fff" stroke-width=".4"/><path d="M79,-70L79,-68L79,-67L80,-65L78,-65L77,-66L74,-67L77,-70Z" fill="#E0E0E0" stroke="#fff" stroke-width=".4"/><path d="M51,-78L50,-82L57,-86L58,-91L57,-94L59,-95L61,-97L62,-98L66,-98L67,-97L69,-97L71,-93L73,-91L73,-89L71,-88L71,-85L73,-81L77,-79L78,-76L78,-74L79,-74L79,-72L81,-70L79,-70L77,-70L74,-67L68,-67L59,-74L55,-77Z" fill="#E0E0E0" stroke="#fff" stroke-width=".4"/><path d="M102,-44L102,-45L103,-47L103,-48L104,-49L104,-49L104,-52L105,-52L107,-49L109,-48L111,-48L113,-47L114,-45L115,-44L116,-43L116,-43L115,-41L115,-40L113,-39L112,-36L111,-36L110,-36L109,-34L110,-32L110,-31L108,-31L106,-30L106,-28L105,-28L103,-28L102,-27L102,-25L100,-25L99,-25L96,-24L95,-24L94,-26L91,-31L101,-35L103,-42ZM105,-54L104,-56L105,-57L106,-57L105,-55Z" fill="#E0E0E0" stroke="#fff" stroke-width=".4"/><path d="M457,81L459,83L458,84L457,82ZM456,81L456,80L456,77L457,78L458,81L457,80Z" fill="#E0E0E0" stroke="#fff" stroke-width=".4"/><path d="M252,-9L251,-13L253,-16L258,-16L261,-16L263,-14L265,-17L267,-15L268,-13L268,-9L262,-7L264,-5L260,-5L258,-3L255,-4L254,-6Z" fill="#E0E0E0" stroke="#fff" stroke-width=".4"/><path d="M261,-16L258,-16L253,-16L251,-13L252,-9L249,-10L247,-10L247,-13L244,-13L244,-9L242,-5L241,-2L241,1L244,1L245,4L245,6L247,8L249,9L251,10L250,12L248,12L247,10L245,9L244,10L243,8L242,7L241,5L239,3L239,5L238,3L238,1L239,-2L241,-5L243,-8L241,-11L241,-12L241,-14L239,-17L238,-19L239,-19L240,-22L239,-24L237,-27L236,-30L237,-30L238,-34L241,-34L242,-35L244,-36L246,-35L246,-33L248,-33L247,-29L247,-26L251,-28L252,-28L253,-28L254,-29L257,-29L259,-26L259,-23L262,-20L262,-17Z" fill="#E0E0E0" stroke="#fff" stroke-width=".4"/><path d="M267,-15L265,-17L263,-14L261,-16L262,-17L262,-20L259,-23L259,-26L257,-29L254,-29L253,-28L252,-28L251,-28L247,-26L247,-29L248,-33L246,-33L246,-35L244,-36L245,-37L248,-40L248,-39L250,-39L249,-43L251,-43L253,-40L254,-37L258,-37L259,-34L257,-33L256,-32L260,-30L263,-26L265,-23L267,-21L268,-19Z" fill="#E0E0E0" stroke="#fff" stroke-width=".4"/><path d="M244,-36L242,-35L241,-34L238,-34L237,-30L236,-30L237,-27L239,-24L240,-22L239,-19L238,-19L239,-17L241,-14L241,-12L241,-11L243,-8L241,-5L239,-2L239,-4L240,-6L239,-8L239,-12L238,-14L237,-18L236,-22L235,-24L233,-23L229,-20L227,-21L225,-22L227,-26L226,-29L223,-33L224,-34L222,-34L220,-37L219,-40L221,-39L221,-42L222,-43L222,-44L223,-45L223,-49L225,-48L227,-51L227,-53L229,-55L228,-58L233,-60L235,-59L235,-62L236,-62L235,-64L237,-64L238,-62L240,-61L240,-58L240,-55L237,-52L236,-48L240,-49L240,-46L242,-45L242,-42L244,-41L245,-40L248,-41L248,-40L245,-37Z" fill="#E0E0E0" stroke="#fff" stroke-width=".4"/><path d="M258,-3L260,-5L264,-5L262,-7L268,-9L268,-13L267,-15L268,-19L267,-21L265,-23L263,-26L260,-30L256,-32L257,-33L259,-34L258,-37L254,-37L253,-40L251,-43L253,-44L255,-44L258,-44L261,-46L262,-45L265,-44L265,-42L266,-41L270,-40L265,-37L263,-34L262,-32L264,-28L267,-24L270,-22L272,-19L274,-13L273,-7L271,-5L267,-3L264,-0L260,3L259,1L260,-2Z" fill="#E0E0E0" stroke="#fff" stroke-width=".4"/><path d="M342,-118L342,-118L342,-118ZM341,-119L342,-118L341,-118L339,-117L338,-115L338,-112L337,-112L336,-111L335,-110L333,-109L331,-108L331,-106L331,-106L332,-105L334,-103L334,-102L332,-102L330,-102L329,-100L327,-100L327,-100L326,-100L325,-100L324,-99L324,-100L323,-100L322,-101L323,-103L324,-103L324,-104L325,-106L324,-107L323,-107L321,-108L324,-111L327,-113L329,-116L331,-115L334,-115L333,-117L338,-119L339,-121Z" fill="#E0E0E0" stroke="#fff" stroke-width=".4"/><path d="M327,-100L327,-100L329,-100L330,-102L332,-102L334,-102L334,-103L337,-98L338,-96L338,-91L336,-89L333,-88L331,-87L328,-86L328,-88L328,-91L327,-95L329,-96Z" fill="#E0E0E0" stroke="#fff" stroke-width=".4"/><path d="M205,-150L208,-151L214,-155L219,-158L222,-156L225,-156L227,-154L231,-154L235,-152L238,-156L237,-159L240,-164L244,-162L247,-161L251,-160L251,-156L256,-154L259,-155L263,-156L266,-155L269,-153L271,-150L274,-150L278,-150L281,-151L285,-152L290,-155L291,-155L293,-153L297,-153L295,-150L293,-145L294,-143L296,-143L299,-143L301,-144L304,-143L307,-140L306,-138L304,-139L299,-138L297,-137L295,-134L290,-132L287,-129L283,-130L282,-131L280,-128L281,-126L282,-125L279,-123L277,-121L273,-119L269,-119L263,-118L260,-115L258,-117L254,-117L250,-119L247,-120L242,-119L236,-120L232,-120L230,-123L229,-127L227,-127L223,-130L219,-131L215,-132L214,-134L215,-139L213,-143L209,-144L206,-147Z" fill="#E0E0E0" stroke="#fff" stroke-width=".4"/><path d="M235,-64L236,-62L235,-62L235,-59L233,-60L228,-58L229,-55L227,-53L227,-51L225,-48L223,-49L223,-45L222,-44L222,-43L221,-42L219,-47L218,-47L218,-45L216,-47L217,-49L218,-49L220,-52L218,-52L215,-52L212,-53L212,-55L210,-56L208,-57L206,-55L209,-53L207,-51L206,-50L208,-49L208,-47L209,-45L209,-42L209,-41L206,-41L203,-40L203,-37L201,-35L196,-33L193,-29L191,-27L187,-25L187,-23L186,-22L183,-21L181,-21L180,-19L181,-14L181,-12L180,-8L180,-3L178,-3L177,-0L178,1L175,2L174,4L173,5L170,2L168,-3L167,-6L166,-8L164,-11L163,-15L163,-17L160,-21L159,-28L158,-32L158,-36L157,-39L152,-37L150,-38L146,-42L148,-43L147,-44L143,-47L145,-50L152,-50L151,-53L150,-55L149,-57L147,-59L151,-63L154,-62L158,-66L160,-70L163,-73L163,-76L165,-78L163,-80L162,-83L161,-86L162,-88L167,-87L170,-87L174,-91L177,-86L177,-83L178,-81L178,-79L176,-80L176,-75L180,-73L184,-71L182,-69L181,-65L184,-64L187,-62L191,-60L195,-60L197,-58L200,-58L203,-57L206,-57L206,-58L206,-61L206,-62L208,-63L208,-60L208,-59L211,-58L213,-59L216,-58L219,-58L219,-61L218,-62L220,-62L223,-65L227,-67L229,-66L232,-68L233,-66L232,-64Z" fill="#E0E0E0" stroke="#fff" stroke-width=".4"/><path d="M221,-42L221,-39L219,-40L220,-37L219,-39L219,-41L218,-42L217,-44L214,-44L214,-43L213,-41L212,-42L211,-41L210,-41L209,-42L209,-45L208,-47L208,-49L206,-50L207,-51L209,-53L206,-55L208,-57L210,-56L212,-55L212,-53L215,-52L218,-52L220,-52L218,-49L217,-49L216,-47L218,-45L218,-47L219,-47Z" fill="#E0E0E0" stroke="#fff" stroke-width=".4"/><path d="M218,-62L219,-61L219,-58L216,-58L213,-59L211,-58L208,-59L208,-60L211,-63L212,-64L214,-63L216,-63Z" fill="#E0E0E0" stroke="#fff" stroke-width=".4"/><path d="M206,-62L206,-61L206,-58L206,-57L203,-57L200,-58L197,-58L195,-60L191,-60L187,-62L184,-64L181,-65L182,-69L184,-71L185,-71L188,-70L191,-68L193,-67L194,-66L196,-65L199,-63L202,-63Z" fill="#E0E0E0" stroke="#fff" stroke-width=".4"/><path d="M174,-91L170,-87L167,-87L162,-88L161,-86L162,-83L163,-80L165,-78L163,-76L163,-73L160,-70L158,-66L154,-62L151,-63L147,-59L149,-57L150,-55L151,-53L152,-50L145,-50L143,-47L141,-48L140,-51L137,-53L131,-53L126,-53L122,-52L123,-56L127,-58L127,-60L126,-60L126,-64L123,-65L121,-67L120,-69L125,-67L128,-68L130,-67L131,-68L133,-68L137,-69L137,-73L139,-75L141,-75L142,-76L144,-76L145,-76L146,-77L146,-79L148,-81L150,-82L148,-85L151,-85L152,-86L152,-88L154,-89L153,-91L153,-93L155,-95L158,-95L162,-96L163,-97L165,-97L167,-95L168,-92Z" fill="#E0E0E0" stroke="#fff" stroke-width=".4"/><path d="M138,-98L139,-98L142,-97L143,-97L145,-98L146,-97L147,-99L149,-99L150,-100L150,-101L151,-103L153,-102L153,-100L154,-100L153,-97L155,-96L156,-96L157,-97L159,-99L161,-98L164,-98L165,-97L163,-97L162,-96L158,-95L155,-95L153,-93L153,-91L154,-89L152,-88L152,-86L151,-85L148,-85L150,-82L148,-81L146,-79L146,-77L145,-76L144,-76L142,-76L141,-75L139,-75L137,-73L137,-69L133,-68L131,-68L130,-67L128,-68L125,-67L120,-69L123,-73L122,-75L120,-76L120,-78L119,-81L120,-83L119,-84L119,-86L121,-91L124,-90L126,-90L127,-92L130,-93L131,-94L132,-97L135,-98L135,-99L137,-98Z" fill="#E0E0E0" stroke="#fff" stroke-width=".4"/><path d="M142,-97L144,-101L143,-104L141,-105L141,-107L144,-107L146,-109L147,-112L151,-113L150,-111L151,-110L152,-110L151,-108L147,-109L147,-107L150,-107L154,-106L160,-106L161,-103L162,-103L164,-102L164,-101L164,-98L161,-98L159,-99L157,-97L156,-96L155,-96L153,-97L154,-100L153,-100L153,-102L151,-103L150,-101L150,-100L149,-99L147,-99L146,-97L145,-98L143,-97Z" fill="#E0E0E0" stroke="#fff" stroke-width=".4"/><path d="M152,-118L152,-120L155,-121L160,-119L160,-122L162,-123L167,-121L168,-121L173,-121L178,-121L179,-119L181,-119L181,-118L176,-115L175,-114L171,-113L169,-111L166,-111L164,-110L161,-108L161,-107L160,-106L154,-106L150,-107L147,-107L147,-109L151,-108L152,-110L154,-109L158,-112L155,-115L152,-114L150,-115L153,-118Z" fill="#E0E0E0" stroke="#fff" stroke-width=".4"/><path d="M93,-116L94,-118L98,-119L100,-117L102,-114L104,-114L108,-114L107,-116L110,-118L113,-120L117,-118L117,-115L118,-114L122,-114L123,-113L124,-109L128,-106L130,-104L133,-102L138,-100L138,-98L137,-98L135,-99L135,-98L132,-97L131,-94L130,-93L127,-92L126,-90L124,-90L121,-91L120,-95L118,-95L114,-98L112,-99L108,-101L106,-101L105,-100L103,-100L100,-98L98,-97L97,-100L97,-104L95,-106L96,-109L94,-109L94,-112L97,-111L100,-113L98,-115L97,-118L94,-117L94,-113Z" fill="#E0E0E0" stroke="#fff" stroke-width=".4"/><path d="M81,-70L79,-72L79,-74L78,-74L78,-76L77,-79L73,-81L71,-85L71,-88L73,-89L73,-91L71,-93L69,-97L67,-100L67,-102L66,-106L69,-108L69,-106L71,-104L73,-104L74,-104L78,-107L79,-107L80,-106L79,-104L81,-102L82,-102L83,-99L86,-98L88,-96L92,-95L97,-96L98,-97L100,-98L103,-100L105,-100L106,-101L108,-101L112,-99L114,-98L118,-95L120,-95L121,-91L119,-86L119,-84L120,-83L119,-81L120,-78L120,-76L122,-75L123,-73L120,-69L121,-67L123,-65L126,-64L126,-60L127,-60L127,-58L123,-56L122,-52L116,-53L112,-54L109,-55L107,-59L106,-60L103,-59L100,-57L96,-58L93,-61L90,-62L88,-66L85,-70L84,-70L82,-71Z" fill="#E0E0E0" stroke="#fff" stroke-width=".4"/><path d="M40,-80L40,-80L40,-81L40,-82L41,-84L43,-86L42,-87L41,-87L40,-90L41,-92L42,-93L43,-94L43,-96L44,-95L48,-96L49,-95L52,-95L55,-97L57,-97L61,-97L59,-95L57,-94L58,-91L57,-86L50,-82L43,-78Z" fill="#E0E0E0" stroke="#fff" stroke-width=".4"/><path d="M74,-104L73,-104L72,-106L72,-107L70,-107L69,-108L69,-108L67,-109L65,-110L65,-112L65,-113L69,-114L70,-113L71,-112L70,-111L72,-110L71,-108L73,-107L74,-107Z" fill="#E0E0E0" stroke="#fff" stroke-width=".4"/><path d="M-39,-202L-37,-206L-35,-210L-34,-218L-36,-221L-36,-230L-34,-237L-31,-237L-29,-240L-31,-242L-26,-253L-23,-262L-20,-268L-17,-268L-17,-273L-11,-271L-10,-277L-8,-278L-4,-273L1,-267L1,-255L2,-252L-3,-250L-6,-244L-6,-240L-11,-234L-17,-228L-19,-218L-17,-214L-14,-210L-17,-203L-20,-202L-21,-192L-23,-186L-27,-187L-29,-182L-33,-182L-34,-187L-36,-194Z" fill="#E0E0E0" stroke="#fff" stroke-width=".4"/><path d="M16,-187L19,-185L20,-184L21,-184L24,-183L25,-180L24,-179L26,-175L27,-174L27,-173L29,-172L30,-171L29,-170L26,-170L26,-170L26,-168L27,-164L25,-164L24,-163L23,-160L22,-161L19,-161L18,-162L17,-161L16,-162L14,-162L10,-163L7,-163L4,-163L3,-162L1,-162L1,-164L-0,-166L2,-168L2,-170L1,-172L1,-174L4,-174L7,-176L8,-179L11,-181L10,-183L12,-184Z" fill="#E0E0E0" stroke="#fff" stroke-width=".4"/><path d="M27,-164L28,-164L29,-165L30,-165L34,-166L36,-163L35,-162L35,-160L38,-160L39,-158L39,-157L43,-155L45,-156L47,-153L49,-153L54,-152L54,-150L52,-148L53,-145L53,-144L49,-143L48,-142L48,-140L45,-140L43,-138L40,-138L37,-136L38,-134L37,-134L37,-135L36,-135L33,-136L32,-135L32,-135L27,-136L27,-138L24,-138L23,-135L20,-132L19,-132L17,-132L16,-133L17,-133L17,-135L18,-136L18,-137L19,-137L19,-137L21,-136L22,-137L21,-137L21,-138L20,-139L20,-141L19,-142L19,-143L17,-145L16,-145L14,-146L12,-146L11,-145L9,-145L9,-144L6,-144L5,-143L4,-144L2,-144L-0,-145L-2,-144L-2,-145L-4,-146L-3,-148L-2,-149L-1,-149L-2,-151L1,-155L2,-156L3,-157L1,-162L3,-162L4,-163L7,-163L10,-163L14,-162L16,-162L17,-161L18,-162L19,-161L22,-161L23,-160L24,-163L25,-164Z" fill="#E0E0E0" stroke="#fff" stroke-width=".4"/><path d="M1,-174L1,-172L2,-170L2,-168L-0,-166L1,-164L1,-162L3,-157L2,-156L1,-155L-2,-151L-1,-149L-2,-149L-5,-151L-7,-151L-9,-151L-11,-150L-12,-152L-14,-151L-14,-151L-15,-154L-18,-154L-18,-156L-20,-156L-21,-155L-22,-156L-22,-157L-24,-158L-26,-159L-27,-163L-27,-164L-28,-167L-29,-169L-28,-170L-29,-173L-27,-175L-22,-177L-18,-179L-15,-178L-14,-177L-11,-177L-7,-176L-2,-176L0,-176Z" fill="#E0E0E0" stroke="#fff" stroke-width=".4"/><path d="M-20,-145L-20,-143L-22,-143L-21,-142L-22,-139L-23,-138L-26,-138L-27,-137L-30,-137L-34,-138L-35,-140L-38,-139L-39,-138L-41,-139L-42,-139L-44,-140L-43,-141L-43,-142L-42,-142L-41,-141L-40,-142L-37,-142L-35,-143L-34,-143L-33,-142L-32,-142L-33,-146L-32,-146L-31,-148L-28,-147L-26,-149L-25,-149L-23,-148L-21,-148L-20,-147L-20,-146Z" fill="#E0E0E0" stroke="#fff" stroke-width=".4"/><path d="M-4,-146L-2,-145L-2,-144L-4,-143L-5,-139L-7,-136L-9,-135L-11,-136L-14,-134L-15,-134L-18,-135L-20,-137L-21,-137L-22,-139L-22,-139L-21,-142L-22,-143L-20,-143L-20,-145L-18,-144L-17,-143L-14,-144L-14,-145L-13,-145L-11,-145L-11,-145L-9,-146L-9,-147L-8,-147L-4,-146Z" fill="#E0E0E0" stroke="#fff" stroke-width=".4"/><path d="M11,-145L12,-146L14,-146L16,-145L17,-145L19,-143L19,-142L20,-141L20,-139L21,-138L21,-137L22,-137L21,-136L19,-137L19,-137L18,-137L18,-136L17,-135L17,-133L16,-133L15,-135L16,-137L16,-139L14,-141L13,-143L12,-145Z" fill="#E0E0E0" stroke="#fff" stroke-width=".4"/><path d="M16,-133L17,-132L19,-132L20,-132L20,-130L19,-130L18,-130L17,-125L15,-125L13,-127L9,-126L8,-124L3,-125L0,-125L-1,-125L-2,-127L-2,-128L-2,-128L-2,-129L-3,-128L-5,-129L-5,-131L-7,-132L-8,-134L-9,-135L-7,-136L-5,-139L-4,-143L-2,-144L-0,-145L2,-144L4,-144L5,-143L6,-144L9,-144L9,-145L11,-145L12,-145L13,-143L14,-141L16,-139L16,-137L15,-135Z" fill="#E0E0E0" stroke="#fff" stroke-width=".4"/><path d="M10,-183L11,-181L8,-179L7,-176L4,-174L1,-174L0,-176L-2,-176L-2,-178L-1,-179L-3,-180L-6,-181L-7,-186L-3,-188L2,-187L5,-188L6,-187L7,-186Z" fill="#E0E0E0" stroke="#fff" stroke-width=".4"/><path d="M13,-194L14,-193L15,-190L16,-187L12,-184L10,-183L7,-186L6,-187L5,-188L2,-187L-3,-188L-7,-186L-7,-190L-5,-194L-2,-196L0,-191L3,-191L4,-196L6,-197L8,-196L10,-194Z" fill="#E0E0E0" stroke="#fff" stroke-width=".4"/><path d="M15,-206L16,-205L13,-202L14,-196L13,-194L10,-194L8,-196L6,-197L4,-196L4,-200L3,-199L1,-201L0,-204L4,-206L8,-207L12,-206Z" fill="#E0E0E0" stroke="#fff" stroke-width=".4"/><path d="M-29,-173L-28,-170L-29,-169L-28,-167L-27,-164L-27,-163L-26,-159L-27,-159L-28,-159L-29,-158L-31,-158L-33,-156L-35,-155L-34,-154L-34,-152L-32,-150L-31,-148L-32,-146L-33,-146L-32,-142L-33,-142L-34,-143L-35,-143L-37,-142L-40,-142L-41,-141L-42,-142L-43,-142L-47,-143L-47,-142L-50,-142L-50,-146L-48,-149L-53,-150L-54,-151L-54,-153L-55,-154L-54,-158L-55,-163L-53,-163L-52,-165L-51,-170L-52,-172L-51,-173L-49,-173L-48,-172L-46,-175L-46,-177L-47,-180L-44,-179L-42,-180L-42,-178L-39,-176L-39,-175L-36,-176L-34,-177L-30,-175Z" fill="#E0E0E0" stroke="#fff" stroke-width=".4"/><path d="M-2,-127L-1,-125L0,-125L3,-125L8,-124L9,-126L13,-127L15,-125L17,-125L15,-123L14,-120L15,-117L12,-118L9,-116L9,-114L6,-114L4,-115L2,-114L-1,-114L-1,-117L-3,-119L-2,-119L-2,-120L-2,-121L-1,-122L-2,-124L-3,-126Z" fill="#E0E0E0" stroke="#fff" stroke-width=".4"/><path d="M10,-90L9,-89L5,-88L5,-89L1,-90L2,-91L3,-90L6,-90L8,-90L8,-89ZM-1,-114L2,-114L4,-115L6,-114L9,-114L9,-116L11,-115L10,-113L9,-112L7,-112L5,-113L2,-112L4,-109L2,-109L0,-109L-1,-111L-2,-110L-1,-107L0,-105L-1,-105L1,-103L3,-101L3,-99L-0,-100L1,-98L-1,-98L-0,-94L-2,-94L-5,-96L-6,-99L-7,-102L-8,-104L-9,-106L-10,-107L-8,-109L-8,-111L-7,-111L-7,-112L-5,-113L-4,-114L-2,-113L-1,-114Z" fill="#E0E0E0" stroke="#fff" stroke-width=".4"/><path d="M69,-97L67,-97L66,-98L62,-98L61,-97L57,-97L55,-97L52,-95L49,-95L48,-96L44,-95L43,-96L43,-94L42,-93L41,-92L40,-94L41,-95L39,-95L37,-96L34,-93L30,-93L27,-95L24,-95L23,-94L21,-93L18,-95L14,-95L12,-99L10,-101L11,-105L9,-107L13,-111L18,-111L19,-114L25,-113L29,-116L33,-117L38,-117L44,-114L48,-113L52,-113L55,-113L58,-115L62,-115L65,-113L65,-112L65,-110L67,-109L69,-108L66,-106L67,-102L67,-100ZM9,-116L12,-118L15,-117L16,-116L18,-114L18,-113L14,-113L13,-112L10,-109L9,-111L9,-112L10,-113L11,-115Z" fill="#E0E0E0" stroke="#fff" stroke-width=".4"/><path d="M-7,-112L-7,-111L-8,-111L-8,-109L-10,-107L-10,-107L-10,-108L-12,-110L-12,-112L-12,-115L-12,-116L-12,-117L-12,-118L-11,-120L-11,-119L-10,-120L-9,-119L-9,-118L-8,-117L-9,-115L-8,-113Z" fill="#E0E0E0" stroke="#fff" stroke-width=".4"/><path d="M-21,-137L-20,-137L-18,-135L-15,-134L-14,-134L-13,-133L-12,-131L-13,-130L-15,-131L-17,-131L-20,-131L-21,-131L-22,-130L-23,-131L-24,-130L-22,-127L-21,-126L-20,-124L-19,-123L-18,-122L-15,-120L-15,-119L-18,-121L-20,-122L-23,-124L-26,-127L-25,-127L-26,-129L-26,-131L-28,-131L-29,-129L-30,-131L-30,-133L-30,-133L-28,-132L-27,-133L-26,-132L-25,-132L-25,-134L-24,-134L-24,-136Z" fill="#E0E0E0" stroke="#fff" stroke-width=".4"/><path d="M-43,-142L-43,-141L-44,-140L-42,-139L-41,-139L-41,-137L-42,-136L-45,-137L-45,-135L-47,-135L-47,-136L-49,-134L-51,-134L-52,-135L-53,-137L-55,-136L-55,-138L-52,-141L-52,-142L-51,-142L-50,-142L-47,-142L-47,-143Z" fill="#E0E0E0" stroke="#fff" stroke-width=".4"/><path d="M-55,-154L-54,-153L-54,-151L-55,-151L-56,-152L-55,-154Z" fill="#E0E0E0" stroke="#fff" stroke-width=".4"/><path d="M-54,-158L-55,-154L-55,-154L-56,-152L-58,-154L-60,-153L-62,-156L-64,-158L-65,-158L-66,-160L-63,-161L-61,-160L-58,-161L-56,-159Z" fill="#E0E0E0" stroke="#fff" stroke-width=".4"/><path d="M-52,-172L-51,-170L-52,-165L-53,-163L-55,-163L-54,-158L-56,-159L-58,-161L-61,-160L-63,-161L-62,-162L-59,-170L-54,-172Z" fill="#E0E0E0" stroke="#fff" stroke-width=".4"/><path d="M-102,-117L-101,-118L-100,-118L-99,-116L-97,-116L-97,-117L-95,-117L-94,-115L-95,-113L-96,-110L-96,-110L-96,-108L-98,-107L-96,-105L-97,-102L-96,-101L-96,-100L-98,-98L-97,-97L-99,-96L-100,-96L-102,-96L-101,-99L-102,-102L-103,-102L-104,-104L-104,-106L-102,-108L-102,-109L-102,-112L-102,-114L-102,-115Z" fill="#E0E0E0" stroke="#fff" stroke-width=".4"/><path d="M-97,-97L-98,-98L-96,-100L-96,-101L-97,-102L-96,-105L-98,-107L-96,-108L-96,-110L-96,-110L-95,-113L-94,-115L-95,-117L-97,-117L-97,-116L-99,-116L-100,-118L-101,-118L-102,-117L-102,-120L-104,-122L-99,-125L-95,-124L-91,-124L-88,-123L-85,-123L-80,-123L-78,-122L-73,-120L-71,-121L-68,-119L-64,-119L-64,-117L-67,-114L-71,-113L-71,-112L-73,-109L-75,-106L-73,-104L-75,-102L-76,-99L-78,-98L-81,-95L-85,-95L-88,-95L-90,-94L-91,-92L-92,-93L-94,-94L-94,-96Z" fill="#E0E0E0" stroke="#fff" stroke-width=".4"/><path d="M-93,-174L-93,-170L-95,-165L-101,-162L-105,-163L-103,-168L-104,-174L-100,-178L-98,-181L-97,-178L-98,-175L-96,-175Z" fill="#E0E0E0" stroke="#fff" stroke-width=".4"/><path d="M453,99L455,101L457,102L456,103L454,102L452,101L450,99L448,96L447,95L449,95L450,97L452,98Z" fill="#E0E0E0" stroke="#fff" stroke-width=".4"/><path d="M441,64L442,65L440,65L439,63L441,63ZM440,61L439,61L437,59L436,57L437,57L439,59ZM437,62L436,62L434,61L433,61L434,60L436,60L437,61ZM433,56L434,57L434,57L432,56L430,55L429,54L429,53L431,54ZM425,52L427,54L426,54L425,53L423,52L424,51Z" fill="#E0E0E0" stroke="#fff" stroke-width=".4"/><path d="M488,169L487,171L485,174L483,176L482,175L481,174L483,171L482,169L478,167L479,165L481,164L481,161L481,158L480,156L480,155L478,153L476,150L475,147L476,147L478,149L480,150L481,153L483,158L483,155L485,156L485,159L488,160L490,161L492,159L493,160L493,163L492,166L489,165L488,167L489,168ZM465,184L468,182L470,180L471,176L472,175L473,173L475,171L476,173L477,175L479,173L480,175L480,176L479,178L477,182L475,183L476,185L474,185L471,187L470,190L468,195L466,197L464,198L461,198L459,196L456,196L455,194L457,191L461,187L463,186Z" fill="#E0E0E0" stroke="#fff" stroke-width=".4"/><path d="M186,6L186,9L184,10L182,11L180,9L179,4L181,-1L183,1L185,3Z" fill="#E0E0E0" stroke="#fff" stroke-width=".4"/><path d="M274,-29L271,-30L271,-33L273,-34L276,-35L278,-35L279,-34L278,-32L277,-30ZM181,-119L181,-121L183,-122L180,-130L187,-132L188,-133L191,-141L197,-139L199,-142L199,-146L201,-147L204,-150L205,-150L206,-147L209,-144L213,-143L215,-139L214,-134L215,-132L219,-131L223,-130L227,-127L229,-127L230,-123L232,-120L236,-120L242,-119L247,-120L250,-119L254,-117L258,-117L260,-115L263,-118L269,-119L273,-119L277,-121L279,-123L282,-125L281,-126L280,-128L282,-131L283,-130L287,-129L290,-132L295,-134L297,-137L299,-138L304,-139L306,-138L307,-140L304,-143L301,-144L299,-143L296,-143L294,-143L293,-145L295,-150L297,-153L301,-151L305,-155L305,-157L308,-162L310,-164L310,-167L308,-168L311,-170L315,-171L319,-172L324,-170L326,-168L328,-163L330,-161L331,-158L332,-153L337,-151L341,-148L342,-143L347,-143L350,-145L355,-146L354,-142L352,-140L351,-135L349,-131L345,-132L342,-130L343,-126L343,-121L341,-121L341,-119L339,-121L338,-119L333,-117L334,-115L331,-115L329,-116L327,-113L324,-111L321,-108L317,-107L314,-105L311,-104L313,-106L312,-108L314,-111L313,-113L310,-111L306,-108L304,-106L301,-105L300,-104L301,-101L304,-100L304,-98L307,-97L310,-100L313,-98L315,-98L315,-96L311,-95L309,-93L306,-91L305,-88L308,-86L309,-82L311,-79L314,-76L313,-73L311,-72L312,-70L314,-69L314,-66L313,-63L311,-63L309,-59L306,-55L303,-50L299,-47L294,-44L291,-44L289,-42L288,-43L286,-42L282,-40L278,-40L277,-36L275,-36L275,-38L275,-40L271,-41L270,-40L266,-41L265,-42L265,-44L262,-45L261,-46L258,-44L255,-44L253,-44L251,-43L249,-43L250,-39L248,-39L248,-40L248,-41L245,-40L244,-41L242,-42L242,-45L240,-46L240,-49L236,-48L237,-52L240,-55L240,-58L240,-61L238,-62L237,-64L235,-64L232,-64L233,-66L232,-68L229,-66L227,-67L223,-65L220,-62L218,-62L216,-63L214,-63L212,-64L211,-63L208,-60L208,-63L206,-62L202,-63L199,-63L196,-65L194,-66L193,-67L191,-68L188,-70L185,-71L184,-71L180,-73L176,-75L176,-80L178,-79L178,-81L177,-83L177,-86L174,-91L168,-92L167,-95L165,-97L164,-98L164,-101L164,-102L162,-103L161,-103L160,-106L161,-107L161,-108L164,-110L166,-111L169,-111L171,-113L175,-114L176,-115L181,-118Z" fill="#E0E0E0" stroke="#fff" stroke-width=".4"/><path d="M313,-50L311,-44L310,-41L308,-44L308,-47L310,-50L312,-53L314,-52Z" fill="#E0E0E0" stroke="#fff" stroke-width=".4"/><path d="M-41,-139L-39,-138L-38,-139L-35,-140L-34,-138L-30,-137L-30,-135L-29,-133L-32,-134L-35,-132L-34,-130L-35,-129L-34,-126L-31,-124L-29,-120L-26,-117L-23,-117L-22,-116L-23,-115L-20,-114L-18,-112L-15,-110L-15,-109L-16,-108L-17,-110L-20,-111L-21,-108L-19,-106L-20,-104L-21,-104L-23,-101L-24,-100L-24,-101L-23,-104L-23,-104L-24,-107L-25,-109L-26,-109L-27,-111L-29,-112L-30,-114L-33,-114L-35,-116L-38,-119L-40,-121L-41,-126L-43,-126L-45,-127L-47,-127L-49,-125L-50,-125L-50,-126L-51,-127L-52,-130L-51,-132L-52,-134L-52,-135L-51,-134L-49,-134L-47,-136L-47,-135L-45,-135L-45,-137L-42,-136L-41,-137ZM-27,-101L-24,-102L-26,-98L-25,-97L-26,-95L-28,-97L-30,-97L-34,-99L-34,-101L-30,-101ZM-46,-113L-44,-114L-43,-111L-43,-105L-44,-106L-46,-104L-47,-105L-47,-110L-48,-113Z" fill="#E0E0E0" stroke="#fff" stroke-width=".4"/><path d="M-42,-180L-44,-179L-47,-180L-48,-183L-48,-189L-47,-190L-47,-192L-44,-192L-43,-194L-40,-196L-40,-193L-41,-191L-41,-189L-39,-188L-40,-186L-41,-187L-43,-183ZM-34,-186L-33,-183L-35,-179L-39,-182L-39,-184Z" fill="#E0E0E0" stroke="#fff" stroke-width=".4"/><path d="M-93,-174L-96,-175L-98,-175L-97,-178L-98,-181L-95,-181L-92,-178ZM-84,-171L-84,-171L-83,-174L-85,-178L-85,-178L-89,-179L-90,-180L-89,-183L-90,-184L-91,-182L-92,-187L-93,-190L-92,-196L-90,-201L-87,-201L-83,-201L-87,-195L-83,-195L-80,-195L-81,-191L-84,-185L-80,-185L-80,-184L-77,-178L-75,-177L-73,-171L-72,-169L-68,-168L-69,-164L-70,-163L-69,-160L-72,-158L-76,-158L-82,-156L-83,-157L-85,-155L-88,-156L-90,-154L-92,-155L-87,-160L-85,-161L-85,-161L-90,-162L-90,-164L-87,-166L-89,-168L-88,-172Z" fill="#E0E0E0" stroke="#fff" stroke-width=".4"/><path d="M74,-117L75,-116L77,-114L78,-114L79,-115L81,-116L82,-114L84,-111L85,-111L86,-110L84,-109L83,-106L83,-105L81,-104L82,-102L81,-102L79,-104L80,-106L79,-107L78,-107L74,-104L74,-107L73,-107L71,-108L72,-110L70,-111L71,-112L70,-113L69,-114L70,-115L72,-113L74,-113L74,-114L73,-116ZM73,-104L71,-104L69,-106L69,-108L69,-108L70,-107L72,-107L72,-106Z" fill="#E0E0E0" stroke="#fff" stroke-width=".4"/><path d="M53,-123L54,-124L56,-123L61,-122L65,-120L66,-120L68,-120L71,-119L72,-118L74,-117L73,-116L74,-114L74,-113L72,-113L70,-115L69,-114L65,-113L62,-115L58,-115L59,-117L58,-120L56,-122L54,-122Z" fill="#E0E0E0" stroke="#fff" stroke-width=".4"/><path d="M310,-11L308,-13L311,-13L312,-12L311,-9ZM316,-2L316,-3L317,-5L319,-5L318,-3L320,-6L320,-3L319,-2L318,0L317,1L315,-1ZM328,3L328,5L328,7L327,10L326,7L325,8L326,11L325,12L321,10L320,8L321,7L319,5L318,6L316,6L314,8L314,7L315,4L317,4L319,2L320,4L322,3L323,2L325,1L325,-1L327,0L327,2ZM303,0L298,3L300,1L302,-1L304,-3L306,-6L306,-4L304,-2ZM315,-29L314,-27L315,-25L315,-22L313,-21L312,-19L313,-16L315,-16L316,-16L320,-14L320,-12L321,-12L320,-10L318,-12L317,-13L316,-12L314,-14L311,-14L309,-14L310,-16L311,-17L310,-17L309,-16L308,-18L307,-19L307,-23L308,-22L309,-27L310,-30L312,-30L314,-29L315,-30ZM314,-6L313,-8L315,-7L317,-7L317,-6L316,-4L314,-3L314,-5ZM325,-9L326,-5L323,-6L323,-5L324,-3L323,-2L323,-5L322,-5L321,-7L323,-6L323,-8L321,-10L324,-10Z" fill="#E0E0E0" stroke="#fff" stroke-width=".4"/><path d="M244,10L245,9L247,10L248,12L250,12L251,10L251,11L253,13L255,15L255,17L255,18L255,19L255,21L256,22L257,25L257,26L255,26L252,24L248,21L248,20L246,18L246,15L245,13L245,11ZM301,17L298,16L294,16L293,20L292,21L290,26L288,26L285,25L283,26L281,27L279,27L277,28L275,26L275,24L277,25L279,24L280,22L281,21L285,20L287,18L289,16L291,17L291,16L293,16L293,14L293,13L295,11L297,8L298,8L300,10L300,11L302,12L305,13L305,14L303,14L303,16Z" fill="#E0E0E0" stroke="#fff" stroke-width=".4"/><path d="M293,13L293,14L293,16L291,16L291,17L289,16L290,15Z" fill="#E0E0E0" stroke="#fff" stroke-width=".4"/><path d="M-30,-137L-27,-137L-26,-138L-23,-138L-22,-139L-22,-139L-21,-137L-24,-136L-24,-134L-25,-134L-25,-132L-26,-132L-27,-133L-28,-132L-30,-133L-29,-133L-30,-135Z" fill="#E0E0E0" stroke="#fff" stroke-width=".4"/><path d="M-2,-149L-3,-148L-4,-146L-4,-146L-8,-147L-9,-147L-9,-146L-11,-145L-11,-145L-13,-145L-14,-145L-14,-144L-17,-143L-18,-144L-20,-145L-20,-146L-20,-147L-19,-148L-18,-148L-17,-148L-17,-149L-16,-149L-16,-150L-15,-150L-15,-151L-14,-151L-14,-151L-12,-152L-11,-150L-9,-151L-7,-151L-5,-151Z" fill="#E0E0E0" stroke="#fff" stroke-width=".4"/><path d="M-26,-159L-24,-158L-22,-157L-22,-156L-21,-155L-20,-156L-18,-156L-18,-154L-15,-154L-14,-151L-15,-151L-15,-150L-16,-150L-16,-149L-17,-149L-17,-148L-18,-148L-19,-148L-20,-147L-21,-148L-23,-148L-25,-149L-26,-149L-28,-147L-31,-148L-32,-150L-34,-152L-34,-154L-35,-155L-33,-156L-31,-158L-29,-158L-28,-159L-27,-159Z" fill="#E0E0E0" stroke="#fff" stroke-width=".4"/><path d="M42,-16L42,-18L43,-22L43,-25L44,-26L47,-26L48,-28L50,-24L51,-21L53,-20L57,-16L59,-15L61,-13L62,-12L63,-11L62,-10L61,-10L60,-11L58,-13L57,-14L56,-15L53,-17L51,-17L50,-17L49,-16L47,-18L46,-16Z" fill="#E0E0E0" stroke="#fff" stroke-width=".4"/><path d="M377,-105L374,-101L374,-97L373,-94L373,-92L372,-89L368,-87L362,-87L358,-83L356,-84L355,-87L350,-86L346,-84L342,-84L346,-82L343,-75L341,-74L340,-75L341,-78L339,-80L337,-82L340,-83L342,-86L345,-88L348,-90L354,-92L357,-91L361,-98L363,-96L367,-100L369,-101L371,-106L371,-111L372,-114L375,-115L377,-109ZM386,-126L388,-128L389,-123L384,-121L381,-117L376,-120L374,-115L371,-115L370,-120L372,-123L375,-123L376,-129L377,-133L381,-128L383,-127ZM347,-83L349,-85L350,-85L352,-86L354,-85L354,-84L353,-82L351,-83L350,-82L349,-80L347,-81Z" fill="#E0E0E0" stroke="#fff" stroke-width=".4"/><path d="M91,-31L94,-26L95,-24L93,-23L92,-21L92,-20L89,-19L84,-17L81,-15L80,-15L79,-15L77,-13L75,-13L72,-13L71,-13L71,-12L70,-11L69,-11L68,-11L67,-10L64,-10L64,-12L64,-14L63,-15L63,-17L62,-19L62,-19L62,-20L62,-21L62,-23L64,-24L63,-25L64,-27L65,-26L66,-26L70,-26L70,-26L74,-25L75,-26L76,-25L77,-25L79,-29L82,-30Z" fill="#E0E0E0" stroke="#fff" stroke-width=".4"/><path d="M37,-68L41,-67L42,-68L43,-69L45,-70L46,-71L47,-72L44,-75L50,-77L51,-78L55,-77L59,-74L68,-67L74,-67L77,-66L78,-65L80,-65L81,-61L83,-61L83,-59L86,-58L86,-56L85,-55L86,-54L87,-53L87,-52L88,-51L89,-50L90,-51L90,-49L90,-49L91,-45L101,-43L102,-44L103,-42L101,-35L91,-31L82,-30L79,-29L77,-25L76,-25L75,-26L74,-25L70,-26L70,-26L66,-26L65,-26L64,-27L63,-25L64,-24L62,-23L62,-24L61,-25L61,-26L59,-27L57,-30L56,-33L54,-35L53,-36L51,-39L50,-42L50,-44L49,-47L47,-49L45,-49L44,-51L44,-52L44,-54L43,-55L41,-58L39,-60L38,-63L36,-63L37,-65L37,-66Z" fill="#E0E0E0" stroke="#fff" stroke-width=".4"/><path d="M-228,441L-227,441L-222,438L-217,441L-213,448L-212,457L-211,465L-211,474L-216,480L-221,485L-227,489L-234,493L-242,492L-246,485L-245,478L-238,473L-236,467L-234,459L-232,453L-230,447ZM-284,478L-277,479L-270,481L-268,473L-266,467L-263,474L-264,484L-265,493L-271,490L-279,491L-283,485L-283,484ZM-309,358L-306,357L-303,357L-302,352L-302,349L-302,341L-300,337L-297,336L-295,339L-294,342L-293,347L-292,351L-291,355L-291,359L-291,363L-292,367L-296,369L-299,371L-304,371L-302,366L-306,368L-309,369L-312,366L-312,362ZM-399,364L-397,363L-393,364L-388,365L-385,366L-381,365L-379,371L-382,370L-386,370L-390,370L-394,371L-397,369ZM-463,383L-463,380L-459,382L-455,383L-451,381L-453,385L-456,388L-460,387ZM-478,381L-476,379L-473,381L-468,386L-470,385L-474,384ZM-594,449L-592,444L-586,446L-583,451L-580,457L-579,465L-586,467L-590,461L-592,455L-592,454ZM-529,602L-528,601L-528,585L-540,584L-550,576L-553,564L-562,558L-561,545L-560,534L-559,525L-559,515L-565,509L-567,501L-572,495L-564,496L-557,493L-552,500L-547,494L-541,486L-539,480L-540,472L-544,467L-549,462L-555,461L-561,459L-567,457L-569,451L-573,446L-576,441L-577,424L-575,425L-572,430L-567,428L-562,426L-559,433L-554,431L-550,428L-546,424L-543,420L-538,418L-538,413L-539,408L-538,404L-534,402L-532,406L-527,403L-524,400L-519,400L-515,399L-510,396L-507,393L-503,391L-501,391L-499,392L-494,391L-490,393L-485,393L-481,391L-477,392L-472,393L-468,393L-463,393L-458,393L-454,393L-451,389L-447,388L-443,390L-439,388L-436,384L-434,388L-432,392L-430,396L-427,392L-423,397L-419,398L-415,401L-411,401L-407,398L-402,399L-398,401L-393,403L-392,398L-394,394L-395,389L-399,388L-401,384L-402,380L-403,372L-401,373L-396,374L-392,373L-389,375L-385,378L-384,382L-380,383L-376,381L-371,379L-367,378L-364,380L-360,380L-357,371L-355,376L-351,378L-347,377L-344,381L-340,382L-336,383L-333,386L-330,381L-329,377L-326,382L-321,381L-318,383L-316,387L-312,386L-308,383L-305,380L-301,379L-297,378L-293,376L-290,374L-288,370L-287,366L-287,362L-288,358L-289,354L-290,350L-291,347L-291,343L-291,340L-290,336L-288,333L-288,329L-289,326L-289,323L-287,319L-286,317L-284,314L-281,311L-279,309L-278,306L-276,304L-274,302L-271,301L-269,299L-267,297L-264,297L-262,295L-260,293L-257,292L-255,293L-257,296L-260,298L-261,300L-264,298L-266,299L-268,301L-271,303L-272,305L-273,308L-273,311L-271,313L-273,315L-276,316L-278,319L-280,321L-282,325L-282,328L-281,331L-279,334L-277,336L-274,339L-273,342L-272,346L-272,350L-270,353L-269,356L-269,366L-268,369L-267,374L-266,378L-267,384L-269,388L-271,392L-275,394L-276,398L-278,402L-283,407L-287,409L-291,412L-295,415L-298,420L-303,421L-309,420L-314,421L-319,421L-318,427L-313,429L-310,433L-308,439L-311,444L-317,442L-321,446L-321,453L-322,459L-318,465L-317,471L-313,478L-306,481L-301,487L-296,493L-290,499L-282,503L-275,509L-269,515L-263,523L-260,535L-259,544L-255,535L-250,528L-244,520L-237,514L-232,508L-224,508L-216,511L-210,516L-208,506L-203,500L-195,500L-189,495L-183,491L-176,488L-169,485L-164,480L-167,473L-168,467L-168,460L-174,461L-181,464L-187,464L-188,457L-187,445L-186,442L-181,438L-176,435L-172,431L-168,426L-165,421L-161,418L-157,417L-155,416L-150,415L-145,413L-141,411L-137,408L-134,405L-129,401L-127,397L-124,393L-123,388L-126,386L-125,381L-123,378L-119,376L-116,373L-113,370L-110,366L-109,361L-106,358L-103,359L-101,362L-97,362L-97,359L-96,355L-92,356L-91,359L-88,360L-83,358L-79,357L-76,358L-74,362L-71,358L-68,357L-64,355L-61,354L-57,352L-54,350L-51,348L-49,345L-47,347L-43,346L-41,350L-39,354L-36,352L-34,348L-31,346L-27,346L-26,350L-23,346L-20,345L-16,345L-13,345L-9,346L-6,347L-4,350L-2,353L1,351L5,350L9,350L12,350L16,349L19,348L22,345L25,344L28,343L30,340L32,335L34,333L37,334L38,337L41,339L44,338L47,342L49,344L52,342L53,338L56,336L60,333L63,332L66,330L69,329L72,327L74,325L77,326L80,323L82,321L85,321L88,319L88,316L91,314L93,312L97,311L100,311L102,311L105,312L108,314L108,317L111,320L113,322L117,323L119,326L121,328L124,328L127,327L130,323L133,325L136,326L139,327L142,328L145,328L148,337L148,339L147,343L144,345L142,349L142,353L146,352L145,356L144,360L142,364L145,367L148,368L152,366L154,362L155,359L156,356L158,353L159,349L161,345L163,344L167,344L170,342L173,341L174,338L175,334L178,331L181,329L183,327L185,324L187,323L189,322L192,322L195,322L198,321L202,321L204,319L206,314L207,316L208,320L211,321L214,322L217,321L220,321L223,322L225,321L228,321L231,323L233,322L237,322L240,321L243,322L245,319L247,317L249,314L253,309L255,310L257,312L260,315L264,319L267,320L270,320L273,319L276,317L279,315L281,313L285,313L287,311L290,313L291,315L294,317L297,317L299,319L303,321L307,322L310,321L313,319L315,316L318,316L321,317L324,318L327,316L330,316L333,317L335,318L338,317L342,315L345,315L349,315L351,314L354,314L355,310L355,307L357,309L358,312L359,315L360,318L363,320L367,319L371,319L374,318L378,318L381,318L385,319L388,319L391,322L390,325L392,327L396,329L399,331L403,333L407,334L411,336L414,336L416,333L419,335L422,338L424,340L428,341L432,342L433,346L437,348L440,351L443,353L447,353L450,353L454,353L458,354L461,355L465,357L468,359L470,362L470,366L468,370L467,375L466,379L464,383L460,385L458,389L454,392L452,396L450,401L448,405L447,410L446,415L446,421L446,426L447,432L448,438L450,443L456,445L457,452L451,455L446,458L440,459L437,469L437,477L436,484L434,492L438,498L440,507L442,516L446,524L451,531L456,539L463,548L464,562L474,568L474,570L477,580L485,572L493,582L498,590L498,590L498,602L498,602ZM-645,602L-645,590L-645,590L-645,590L-645,590L-645,590L-642,571L-637,581L-636,580L-633,570L-633,570L-632,570L-628,584L-624,570L-623,569L-614,563L-611,570L-609,574L-604,585L-595,594L-590,602L-645,602Z" fill="#E0E0E0" stroke="#fff" stroke-width=".4"/><path d="M30,-89L30,-89L31,-90L33,-90L36,-91L34,-90L34,-89L34,-89L33,-89L33,-89L33,-89L33,-89L32,-89L32,-89L31,-89Z" fill="#E0E0E0" stroke="#fff" stroke-width=".4"/><path d="M30,-89L31,-89L32,-89L32,-89L33,-89L33,-89L33,-89L33,-89L34,-89L34,-89L34,-89L31,-87L29,-88L29,-89Z" fill="#E0E0E0" stroke="#fff" stroke-width=".4"/><path d="M-81,-89L-79,-87L-79,-85L-78,-81L-77,-80L-78,-78L-82,-78L-83,-76L-85,-76L-85,-73L-89,-72L-90,-70L-93,-69L-96,-68L-101,-66L-101,-61L-102,-61L-102,-59L-104,-59L-105,-59L-106,-59L-107,-59L-110,-59L-111,-56L-112,-56L-113,-51L-118,-47L-119,-43L-120,-41L-121,-40L-128,-40L-128,-40L-128,-41L-126,-42L-125,-44L-126,-45L-124,-48L-123,-50L-122,-50L-121,-52L-121,-54L-120,-56L-117,-58L-115,-61L-115,-61L-114,-63L-111,-63L-108,-66L-107,-67L-104,-70L-105,-74L-104,-77L-103,-79L-101,-82L-98,-84L-96,-85L-94,-89L-93,-92L-90,-92L-88,-90L-85,-90L-82,-89Z" fill="#E0E0E0" stroke="#fff" stroke-width=".4"/><path d="M43,-42L31,-42L18,-42L6,-42L6,-54L6,-67L5,-70L6,-72L5,-74L6,-76L10,-76L14,-75L17,-74L18,-73L21,-74L22,-75L25,-76L27,-75L28,-73L29,-75L31,-74L34,-73L35,-74L37,-69L37,-68L36,-67L36,-64L35,-62L34,-61L33,-63L32,-64L29,-69L29,-69L30,-65L32,-62L35,-56L36,-54L37,-52L40,-48L39,-48L39,-45L43,-42Z" fill="#E0E0E0" stroke="#fff" stroke-width=".4"/><path d="M6,-42L6,-35L2,-35L2,-33L-11,-40L-23,-46L-27,-45L-29,-43L-31,-45L-36,-47L-37,-49L-39,-50L-41,-50L-42,-52L-42,-53L-44,-56L-43,-57L-43,-60L-43,-61L-43,-63L-42,-66L-43,-68L-44,-71L-42,-72L-42,-73L-42,-75L-40,-76L-39,-78L-37,-79L-37,-82L-33,-80L-32,-81L-29,-80L-25,-78L-24,-75L-21,-74L-16,-73L-13,-71L-12,-72L-10,-74L-11,-76L-10,-78L-7,-80L-5,-80L-1,-80L0,-78L1,-78L2,-77L5,-77L6,-76L5,-74L6,-72L5,-70L6,-67L6,-54Z" fill="#E0E0E0" stroke="#fff" stroke-width=".4"/><path d="M78,5L69,14L65,14L62,17L60,17L59,18L57,18L56,17L53,18L52,19L50,19L49,19L48,19L47,19L43,16L41,16L40,15L40,13L38,13L37,9L35,8L35,7L33,6L31,5L32,3L34,3L34,2L34,-0L35,-4L37,-5L37,-6L38,-9L40,-10L41,-13L42,-16L46,-16L47,-18L49,-16L50,-17L51,-17L53,-17L56,-15L57,-14L58,-13L60,-11L61,-10L60,-9L59,-7L59,-6L59,-5L61,-5L61,-5L62,-5L61,-4L63,-2L64,-0L65,1L75,5Z" fill="#E0E0E0" stroke="#fff" stroke-width=".4"/><path d="M61,-10L62,-10L63,-11L64,-10L64,-8L62,-7L63,-7L62,-5L61,-5L61,-5L59,-5L59,-6L59,-7L60,-9Z" fill="#E0E0E0" stroke="#fff" stroke-width=".4"/><path d="M82,-6L82,-6L82,-5L82,-2L82,-0L80,2L78,5L75,5L65,1L64,-0L63,-2L61,-4L62,-5L63,-7L64,-6L65,-5L66,-3L68,-3L71,-4L74,-4L77,-5L79,-6L80,-6Z" fill="#E0E0E0" stroke="#fff" stroke-width=".4"/><path d="M34,33L28,33L24,33L23,34L21,35L20,34L20,32L21,31L21,28L22,27L23,25L24,24L25,23L24,23L24,19L26,18L28,19L30,18L32,18L34,17L36,19L36,20L38,24L36,26L35,28L34,30Z" fill="#E0E0E0" stroke="#fff" stroke-width=".4"/><path d="M23,34L24,35L24,37L23,38L21,38L20,39L18,39L19,37L19,37L19,35L20,34L21,35Z" fill="#E0E0E0" stroke="#fff" stroke-width=".4"/><path d="M-15,-120L-18,-122L-19,-123L-20,-124L-21,-126L-22,-127L-24,-130L-23,-131L-22,-130L-21,-131L-20,-131L-17,-131L-15,-131L-13,-130L-12,-130L-13,-128L-11,-126L-12,-124L-13,-124L-13,-123L-14,-122Z" fill="#E0E0E0" stroke="#fff" stroke-width=".4"/><path d="M-3,-119L-1,-117L-1,-114L-1,-114L-2,-113L-4,-114L-5,-113L-7,-112L-8,-113L-9,-115L-8,-117L-8,-117L-8,-117L-6,-118L-5,-118L-4,-118Z" fill="#E0E0E0" stroke="#fff" stroke-width=".4"/><path d="M-14,-134L-11,-136L-9,-135L-8,-134L-7,-132L-5,-131L-5,-129L-3,-128L-2,-129L-2,-128L-2,-128L-2,-127L-3,-126L-2,-124L-1,-122L-2,-121L-2,-120L-2,-119L-3,-119L-4,-118L-5,-118L-5,-119L-5,-119L-5,-120L-5,-120L-6,-121L-6,-121L-7,-122L-7,-122L-8,-123L-8,-122L-9,-121L-9,-121L-9,-121L-10,-122L-11,-122L-12,-123L-13,-124L-12,-124L-11,-126L-13,-128L-12,-130L-13,-130L-12,-131L-13,-133Z" fill="#E0E0E0" stroke="#fff" stroke-width=".4"/><path d="M-10,-120L-11,-119L-11,-120L-12,-118L-12,-117L-13,-117L-14,-118L-15,-119L-15,-120L-14,-122L-13,-123L-13,-124L-12,-123L-11,-122L-10,-122L-9,-121L-9,-121Z" fill="#E0E0E0" stroke="#fff" stroke-width=".4"/><path d="M-8,-117L-9,-118L-9,-119L-10,-120L-9,-121L-9,-121L-8,-122L-8,-123L-7,-122L-7,-122L-6,-121L-6,-121L-5,-120L-5,-120L-5,-119L-5,-119L-5,-118L-6,-118L-8,-117L-8,-117Z" fill="#E0E0E0" stroke="#fff" stroke-width=".4"/><path d="M24,19L21,17L21,15L19,16L17,16L17,16L15,16L13,13L13,12L10,11L10,9L8,8L6,6L6,5L4,4L2,3L3,2L4,2L5,-1L6,-3L8,-3L9,-2L10,-0L11,-0L12,-1L15,-1L15,0L18,0L18,-1L20,-1L20,-2L22,-3L24,-1L26,-1L27,-4L29,-5L29,-7L28,-8L30,-8L30,-9L32,-9L31,-6L32,-4L33,-3L34,-2L34,-0L34,-0L34,2L34,3L32,3L31,5L33,6L35,7L35,8L37,9L38,13L36,15L34,17L32,18L30,18L28,19L26,18Z" fill="#E0E0E0" stroke="#fff" stroke-width=".4"/></g><g clip-path="url(#v)"><path d="M381.1,68.3L381.0,68.7L380.9,69.0L380.8,69.2L380.9,69.5L381.1,69.7L381.3,69.8L381.5,70.1L381.8,70.6L381.8,70.9L382.0,71.3L382.2,72.1L382.2,72.7L382.4,73.2L382.3,74.2L382.4,74.6L382.6,74.9L382.8,75.6L382.9,76.2L383.1,76.3L383.6,76.5L384.0,76.3L384.4,76.0L384.7,75.9L385.2,75.8L385.6,76.2L385.8,76.6L386.6,77.2L387.1,77.6L387.5,77.8L387.8,78.1L387.8,78.4L387.7,78.6L387.8,79.0L387.8,79.4L387.7,79.9L388.0,80.6L388.1,81.2L388.3,81.8L388.3,82.4L388.3,82.6L388.2,82.9L388.4,83.4L388.6,83.7L388.9,84.0L389.3,84.5L389.5,84.6L389.8,84.6L389.7,85.1L390.2,86.2L390.5,87.0L390.3,88.2L390.1,88.8L390.2,89.1L390.8,89.9L391.1,90.1L391.0,90.5L391.0,91.1L391.3,91.5L391.6,91.8L391.9,92.1L392.3,92.2L392.7,92.4L393.2,92.5L393.5,92.7L393.7,92.9L394.1,93.0L394.3,92.9L394.6,92.9L394.7,93L394.9,93.2L395.1,93.7L395.6,94.2L395.9,94.3L396.1,94.5L396.4,94.6L396.7,94.6L397.0,94.8L397.6,95.3L398.1,95.3L398.3,95.5L398.8,95.9L399.0,96.2L399.2,96.6L399.0,96.6L398.7,96.5L398.6,96.9L398.9,97.5L399.3,97.8L399.8,98.2L400.2,98.8L400.4,99.2L400.5,99.4L400.6,100.0L401.0,100.3L401.1,101.0L401.3,101.8L401.5,102.6L401.6,102.9L401.8,103.3L402.0,103.2L402.2,103.1L402.5,103.5L402.7,103.7L402.8,103.6L402.6,102.8L402.7,102.4L402.8,102.3L403.0,102.3L403.2,102.7L403.5,103.0L404.0,103.4L404.5,103.7L404.6,103.7L404.6,103.4L404.6,103.1L404.7,103.0L404.9,103.2L405.2,103.7L405.2,104.9L405.2,105.8L405.4,106.8L405.7,107.0L405.9,107.3L406.2,107.6L406.4,107.9L406.7,108.1L407.5,108.7L407.8,108.8L408.1,108.8L408.6,109.1L408.8,109.4L409.3,110.4L409.5,110.7L410.0,111.1L410.2,111.2L410.6,111.5L410.7,111.8L410.7,112.0L410.9,112.4L411.2,112.9L411.6,113.1L412.0,113.7L412.0,114.6L412.2,115.0L412.4,115.2L412.7,115.4L412.8,115.5L412.6,116.7L412.8,119.2L412.7,119.9L412.9,120.7L413.5,122.0L413.7,122.4L413.7,123.0L414.1,123.7L414.1,124.7L414.2,125.2L414.2,125.9L413.8,126.6L413.4,127.5L413.4,128.2L413.2,129.7L413.0,130.1L412.9,130.7L412.4,132.1L412.4,132.7L412.4,133.4L412.4,134.1L412.2,134.5L412.1,135.4L411.6,136.7L410.9,137.7L410.9,138.4L410.8,138.7L410.6,139.1L410.2,139.6L409.9,139.8L409.8,140.0L409.5,140.0L409.5,140.1L409.7,140.2L409.6,140.3L409.0,140.6L408.5,140.9L408.1,141.6L407.9,142.0L407.6,142.4L407.5,142.6L407.4,142.8L407.3,143.2L407.1,143.3L406.9,143.5L407.0,143.9L406.9,144.4L406.8,144.8L406.7,145.0L406.6,144.9L406.5,145.0L406.3,145.1L406.6,145.1L406.7,145.2L406.2,145.7L405.8,146.2L405.7,146.5L405.5,147.0L405.4,147.9L405.2,148.5L405.3,148.9L405.3,149.0L405.2,149.0L405.2,148.9L405.0,149.1L404.9,149.2L405.0,149.4L405.1,149.4L405.0,149.5L405.0,149.6L404.8,149.6L404.6,149.7L404.0,151.2L403.7,151.6L403.4,152.2L403.3,152.7L403.2,153.3L403.1,154.3L403.0,155.0L402.7,155.7L402.6,156.2L402.6,157.1L402.7,157.8L402.6,158.2L402.6,158.5L402.5,158.9L402.2,159.0L401.8,159.2L401.4,159.7L401.1,159.8L400.5,160.0L399.4,159.9L397.2,160.1L396.8,160.2L396.0,160.5L395.2,161.0L394.5,161.7L392.8,163.5L391.4,163.7L391.2,163.7L391.0,163.6L390.7,163.7L390.7,163.9L391.0,164.2L391.1,164.4L391.4,164.1L391.5,164.2L391.6,164.7L391.6,165.1L391.5,165.3L391.3,165.4L391.1,165.3L391.1,165.1L390.9,164.7L390.6,164.3L390.3,164.2L390.1,164.3L389.9,164.4L389.6,163.9L389.4,163.5L389.1,163.4L388.8,163.4L388.6,163.2L388.1,162.9L388.2,162.7L388.3,162.5L388.6,162.4L388.5,162.0L388.4,161.8L388.0,161.7L387.8,161.7L387.7,161.9L387.5,162.3L386.8,162.8L386.4,162.5L386.0,162.1L386.2,162.2L386.6,162.2L386.9,161.8L387.1,161.6L387.3,161.1L387.0,160.8L386.8,160.6L386.5,160.4L385.4,161.1L385.2,161.2L385.0,161.3L385.4,161.4L385.6,161.4L385.8,161.6L385.4,161.9L385.1,162.0L384.7,162.2L384.0,162.6L383.1,163.6L382.7,163.9L382.2,164.1L381.6,163.8L381.2,163.8L380.8,163.4L380.0,163.1L379.3,162.6L378.8,162.3L378.4,162.3L378.0,162.4L377.1,161.9L376.5,161.9L376.1,162.3L375.7,162.3L375.5,162.2L374.9,161.5L374.2,161.1L373.0,160.9L372.2,160.4L371.7,159.3L370.6,158.2L370.3,157.7L370.2,157.3L370.2,157.0L370.3,156.4L370.5,155.8L370.5,155.4L370.1,154.3L369.6,153.2L369.3,152.9L368.6,152.1L367.9,151.6L367.8,151.3L367.7,151.2L368.0,151.2L368.2,151.0L368.4,150.9L368.6,151.2L368.7,151.3L368.7,150.8L368.9,150.6L368.8,150.5L368.7,150.4L368.4,150.3L368.1,150.4L367.9,150.6L367.6,150.8L367.4,151.0L367.1,151.0L367.0,151.1L366.3,151.4L365.9,151.4L365.2,151.3L365.4,150.8L365.7,150.5L365.9,150.2L366.3,149.0L366.2,148.0L366.0,147.6L365.5,146.7L365.2,146.2L364.9,145.7L364.8,146.0L364.7,146.3L364.4,146.8L364.2,147.9L363.7,149.5L363.3,149.5L362.9,149.4L362.3,149.6L361.9,149.8L361.6,149.8L361.4,149.9L361.1,149.8L361.5,148.6L361.9,148.6L362.3,148.6L362.4,148.6L362.7,148.6L362.9,148.0L363.0,147.4L363.0,146.9L362.9,146.5L363.0,146.0L363.0,145.7L363.5,144.5L364.0,143.9L364.4,143.4L364.4,143.0L364.2,142.4L364.2,142.0L364.4,141.9L364.6,141.6L364.4,140.4L364.2,140.0L364.0,139.7L364.0,140.1L364.0,140.6L363.6,141.2L363.2,141.6L362.9,142.0L362.6,142.9L362.2,143.6L361.9,143.9L361.6,144.0L361.3,144.1L360.8,144.4L360.3,144.7L360.0,145.0L359.7,145.2L358.7,146.7L358.2,147.2L358.1,147.4L358.0,147.6L358.0,147.8L358.1,148.0L358.3,148.7L358.2,148.8L358.0,148.8L357.6,148.4L357.4,148.5L357.2,148.7L356.6,148.0L356.4,147.8L356.1,147.5L355.8,147.3L355.7,147.3L355.5,147.3L355.5,147.1L355.7,147.0L355.8,146.9L356.0,147.2L356.3,147.4L356.5,147.4L356.5,147.3L356.3,146.5L356.1,145.8L356.0,145.6L355.8,144.9L355.7,144.7L355.3,144.2L354.8,143.6L354.6,142.9L354.5,142.5L354.2,142.2L353.9,142.0L352.9,141.9L352.5,141.2L352.3,140.3L352.4,140.2L352.7,140.2L352.7,140.0L352.7,139.5L351.7,139.0L351.3,138.5L350.9,138.3L350.5,138.2L350.0,138.2L349.4,138.2L348.0,137.3L347.6,137.3L346.6,137.6L346.3,137.5L344.7,136.3L343.7,135.8L343.3,135.7L342.9,135.6L342.5,135.7L342.3,135.9L341.7,136.0L339.6,135.9L337.9,136.1L336.7,136.2L335.9,136.4L334.6,137.1L333.1,137.7L331.9,138.1L330.7,138.5L330.0,138.6L329.0,138.7L327.0,138.4L326.3,138.6L325.2,139.4L324.8,139.6L324.2,139.8L322.6,140.8L321.8,141.0L321.4,141.1L320.9,141.3L320.6,141.7L320.1,142.9L319.8,143.5L319.1,144.4L318.6,144.7L318.2,144.7L317.7,145.0L317.2,144.7L316.9,144.6L316.3,144.6L314.3,145.0L314.0,144.6L313.6,144.5L313.0,144.5L311.9,144.4L310.1,144.6L309.2,144.7L308.8,144.9L308.1,144.8L307.0,145.0L306.6,145.2L306.3,145.4L305.7,146.5L305.1,146.8L304.5,146.8L304.0,146.9L302.8,147.9L301.6,148.9L301.1,149.0L300.7,149.1L300.1,149.2L299.8,149.3L298.4,149.0L297.5,149.0L296.4,148.9L295.5,148.4L294.7,148.1L293.9,147.1L293.4,146.7L292.5,146.2L292.2,146.2L292.0,146.4L291.6,146.0L291.6,145.6L291.5,145.3L291.5,144.3L291.6,143.2L291.9,143.5L292.2,143.7L292.7,143.7L293.2,143.3L293.5,142.7L293.8,142.0L293.7,141.3L293.5,140.0L293.7,139.7L293.8,139.6L293.9,139.0L293.9,137.1L293.8,136.3L293.0,134.9L292.5,133.6L292.2,133.0L291.8,132.1L291.6,130.9L291.5,130.2L291.4,129.1L291.5,128.4L291.5,128.0L291.1,126.9L290.4,126.0L290.3,125.6L290.3,125.2L290.1,124.8L289.5,123.9L288.9,123.1L288.8,122.7L288.7,121.2L288.5,120.5L287.5,118.7L286.3,117.2L286.0,116.5L285.8,116.3L285.9,116.3L286.0,116.4L286.2,116.5L286.3,116.5L286.3,116.4L286.3,116.1L286.4,116.0L286.5,116.0L286.6,116.4L287.0,117.2L287.1,117.7L287.6,117.8L287.7,117.7L287.9,117.5L287.9,116.9L287.7,116.6L287.5,116.5L287.1,116.0L286.9,115.3L286.5,114.7L286.5,114.4L286.7,114.3L286.9,114.3L287.2,114.7L287.5,115.1L287.5,115.7L287.4,115.9L287.4,116.0L287.5,116.1L287.7,116.2L287.8,116.1L287.9,115.7L288.0,115.8L288.2,116.6L288.4,116.8L288.7,117.1L289.0,116.9L289.1,116.7L289.1,116.1L289.1,115.6L289.1,115.2L288.4,114.1L287.7,112.7L287.4,112.1L287.0,111.1L286.8,110.7L286.6,110.2L286.5,109.6L286.6,109.1L286.8,108.2L287.0,107.7L287.6,106.6L287.7,106.2L287.7,105.8L287.8,105.3L287.8,104.9L287.7,104.6L287.4,104.0L287.8,102.9L288.3,101.6L288.5,101.4L288.8,101.2L288.9,101.5L288.7,102.4L288.9,102.9L288.9,103.4L289.1,103.3L289.4,103.2L289.6,102.9L289.7,102.7L290.3,101.6L290.7,101.2L291.1,100.9L292.1,100.5L293.0,100.0L293.5,99.6L294.0,99.2L294.4,98.7L294.8,98.5L296.7,97.4L297.0,97.2L297.4,97.2L297.9,97.2L298.4,97.1L298.9,97.4L299.2,97.4L300.1,97.1L300.6,96.9L301.4,96.4L301.7,96.2L302.6,96.1L303.5,95.8L304.6,94.9L305.4,95.0L306.1,95.1L306.7,94.8L308.1,94.7L308.8,94.4L310.3,93.8L310.6,93.6L311.2,93.2L311.7,92.7L312.2,91.9L312.5,91.3L312.6,91.0L312.9,90.4L313.1,90.0L313.3,89.8L313.8,89.6L314.7,88.8L314.9,88.6L315.0,88.4L314.8,88.2L314.6,88.1L314.4,87.3L314.3,86.7L314.3,86.3L314.3,86.0L314.7,85.4L314.9,85.1L315.2,84.8L315.5,84.7L315.7,84.5L316.1,84.2L316.3,83.9L316.5,83.4L316.7,83.0L316.9,83.0L317.2,84.0L317.4,84.5L317.8,85.0L318.2,85.9L318.5,86.3L318.7,86.5L318.8,86.6L318.8,86.5L318.8,86.3L318.9,85.6L318.9,85.2L318.9,85.0L319.0,84.9L319.1,85.0L319.4,85.2L319.5,85.3L319.6,85.3L319.6,84.9L319.8,84.6L319.7,84.5L319.5,84.5L319.4,84.2L319.2,84.0L318.9,83.8L318.6,83.4L318.6,83.2L318.7,83.1L318.8,83.2L319.0,83.0L319.0,82.7L318.9,82.3L319.1,82.2L319.3,82.2L319.7,82.9L319.9,82.8L320.1,82.5L320.3,82.5L320.6,82.5L320.8,82.7L321.1,82.9L321.6,82.9L321.9,82.9L322.4,82.9L322.6,82.9L322.6,82.8L322.3,82.7L322.0,82.7L321.6,82.7L321.5,82.6L321.4,82.3L321.5,82.0L321.6,81.9L321.8,82.0L322.0,82.0L322.0,81.7L322.1,81.4L322.2,81.2L322.2,81.0L322.1,81.0L321.8,81.5L321.6,81.1L321.4,80.8L321.4,80.4L321.6,79.9L321.8,79.9L322.0,79.9L322.2,79.7L322.4,79.5L322.3,79.3L322.4,79.2L322.6,79.2L323.3,79.6L323.4,79.8L323.6,79.8L323.6,79.5L323.6,79.3L323.4,79.3L323.1,79.3L323.0,79.2L323.0,79.1L322.8,78.8L323.1,78.7L323.3,78.6L323.4,78.5L323.4,78.4L323.5,78.3L323.6,78.4L324.0,78.4L324.3,78.6L324.5,78.7L324.5,78.6L324.6,78.3L324.1,78.1L324.1,77.9L323.9,77.6L323.9,77.4L324.2,77.1L324.3,76.9L324.4,76.8L324.7,76.8L324.9,76.7L325.2,76.6L325.3,76.2L325.2,75.9L325.3,75.9L325.6,76.0L325.5,76.3L325.5,76.6L325.5,76.8L325.5,76.7L325.6,76.7L325.7,76.5L326.0,76.6L326.0,76.8L326.1,77.0L326.2,77.0L326.4,76.7L326.6,76.6L326.6,76.2L326.7,75.9L326.7,75.7L326.8,75.6L326.9,75.4L326.8,75.2L326.7,74.9L326.9,74.9L327.1,75.0L327.3,75.4L327.3,75.6L327.5,75.5L327.6,75.2L327.8,75.1L328.1,75.3L328.3,75.5L328.7,75.3L329.0,74.9L328.9,74.6L329.0,74.3L329.4,74.2L329.7,74.3L330.0,74.6L330.6,74.8L331.2,75.1L331.4,75.3L331.8,75.7L332.1,76.0L332.5,76.6L333.5,77.4L333.5,77.5L333.4,77.7L333.3,78.0L333.1,78.6L333.1,79.4L333.2,79.3L333.4,79.0L333.5,79.1L333.7,79.3L333.7,79.1L333.6,79.0L333.4,78.6L333.4,78.4L333.6,78.3L333.8,78.1L334.0,78.0L334.2,77.9L334.2,77.7L334.4,77.6L334.7,77.6L334.9,77.6L336.2,77.9L336.6,78.3L336.6,78.7L336.7,78.8L336.8,78.6L336.8,78.0L336.9,77.9L337.3,78.0L337.5,78.1L337.9,78.5L337.9,78.6L338.1,78.8L338.1,78.6L338.1,78.3L338.0,78.1L338.1,77.8L338.5,77.8L338.8,77.7L338.6,77.6L338.5,77.6L338.2,77.4L338.0,77.1L338.3,76.9L338.3,76.8L338.0,76.8L337.6,76.6L337.3,76.3L337.5,75.7L338.0,75.1L338.3,74.9L338.3,74.8L338.5,74.4L338.6,74.1L338.6,73.9L338.7,73.6L339.0,73.4L339.5,73.3L339.7,73.2L339.9,73.0L340.1,72.7L339.7,72.2L339.7,71.9L339.8,71.6L340.2,71.4L340.5,70.7L340.7,70.6L341.0,70.7L341.2,70.6L341.2,70.1L341.2,69.9L341.4,69.8L341.6,69.9L341.7,70.1L342.0,70.3L342.1,70.2L342.0,70.0L342.0,69.7L342.3,69.6L342.5,69.6L342.5,69.4L342.5,69.2L342.6,69.1L343.1,69.1L343.3,68.9L343.3,68.7L343.4,68.8L343.5,69.2L343.8,69.4L344.7,69.4L345.2,69.2L345.5,69.3L345.8,69.4L346.2,69.2L346.4,69.1L346.8,69.3L346.9,69.5L347.0,69.1L347.2,68.9L347.4,68.9L347.7,68.9L347.9,68.9L347.6,68.6L347.6,68.3L347.6,68.0L347.6,67.6L347.7,67.4L347.1,66.8L346.5,66.8L346.0,66.9L345.8,66.8L345.4,66.4L345.0,66.2L345.0,66.1L345.5,65.8L345.6,65.9L345.9,66.2L346.1,66.3L346.2,66.2L346.3,66.0L346.4,65.9L346.7,66.0L347.4,66.4L347.8,66.9L348.0,66.8L348.3,66.5L348.6,66.6L348.8,66.7L349.1,67.3L349.4,67.5L349.9,67.6L350.2,67.7L350.5,67.9L350.8,67.9L351.6,68.0L352.4,68.3L352.7,68.5L353.1,68.6L353.3,68.7L353.7,68.7L354.3,68.4L354.5,68.7L354.7,68.8L355.2,69.1L355.8,69.2L356.2,68.9L356.9,68.7L357.3,68.4L357.6,68.2L357.9,67.9L358.0,67.9L357.8,68.2L357.8,68.3L358.0,68.4L357.9,68.5L357.7,68.7L357.3,69.0L357.4,69.2L357.5,69.3L357.6,69.2L357.8,69.1L358.1,69.0L358.3,69.1L358.4,69.6L358.6,69.9L358.9,69.9L359.1,69.9L359.3,69.5L359.2,69.1L359.1,69.1L359.2,68.9L359.7,68.3L360.0,68.4L360.2,68.9L360.6,69.2L360.9,69.2L361.1,69.3L361.3,69.6L360.0,71.0L359.9,71.2L360.1,71.5L360.2,71.8L359.8,72.5L359.6,72.5L359.4,72.3L359.2,72.2L359.0,72.3L358.8,72.3L358.1,72.7L358.1,73.8L358.3,74.4L358.1,74.8L357.9,75.5L357.7,75.8L357.5,76.0L356.8,76.9L356.6,77.2L356.4,77.5L356.5,77.8L356.6,78.0L356.8,78.3L357.8,78.8L358.2,79.2L358.9,79.6L359.1,79.9L359.2,80.2L359.8,80.5L360.1,80.6L360.3,80.6L360.3,80.5L360.4,80.5L360.5,80.6L360.5,80.8L360.5,80.9L360.5,81.0L360.8,81.2L361.2,81.2L361.5,81.2L361.8,81.4L362.0,81.5L362.4,81.8L363.1,82.1L363.7,82.4L364.4,83.2L364.9,83.6L365.4,84.0L366.3,84.2L366.6,84.2L367.2,84.4L367.9,84.6L368.2,85.0L368.3,85.2L368.3,85.5L368.6,86.0L369.2,86.2L370.0,86.7L370.7,86.9L370.8,87.1L371.1,87.2L371.7,87.3L372.6,87.0L373.1,86.7L373.6,86.3L373.9,85.5L374.1,85.0L374.9,83.7L375.1,83.1L375.3,82.3L375.5,81.8L375.4,81.3L375.6,80.3L376.0,78.9L376.2,78.5L376.1,77.8L375.8,76.6L375.9,76.1L376.1,75.5L375.9,75.1L375.7,74.8L375.7,74.4L375.9,73.6L376.0,73.1L376.2,72.6L376.1,71.6L376.5,71.2L376.7,71.0L377.0,71.0L377.1,71.1L377.1,70.9L377.0,70.7L377.0,70.5L376.9,70.4L376.7,70.3L376.5,70.2L376.3,70.1L376.4,69.6L376.7,68.8L376.9,68.4L377.1,68.6L377.2,68.7L377.3,68.4L377.2,68.2L377.5,67.3L377.8,66.1L377.9,65.1L378.4,64.9L378.6,64.6L378.8,64.3L379.1,64.3L379.3,64.4L379.2,64.7L379.1,64.8L379.6,65.3L379.8,65.6L379.9,65.9L380.0,66.3L380.1,66.7L380.1,67.3L380.1,67.9L380.3,68.1L380.5,68.2L380.7,68.2ZM412.5,114.8L412.5,114.9L412.3,114.7L412.2,114.1L412.3,113.7L412.5,113.4L412.5,113.2L412.4,112.8L412.9,112.4L413.0,112.2L413.1,111.9L412.9,111.6L412.8,111.5L412.9,111.3L413.0,111.2L413.1,111.2L413.2,111.2L413.2,111.9L413.4,112.1L413.4,112.4L412.7,114.0L412.6,114.6ZM369.4,83.5L369.2,83.8L369.1,83.7L369.0,83.9L368.7,84.0L368.6,84.0L368.3,84.0L368.3,84.0L368.3,83.7L368.6,83.3L368.8,83.1L369.3,83.0L369.7,82.9L369.7,82.9L370.0,83.3L369.6,83.3ZM360.6,74.4L360.7,74.5L360.8,74.5L361.0,74.2L361.1,74.2L361.1,74.3L361.2,74.4L361.0,74.7L360.9,74.7L360.8,74.8L360.7,75.3L360.7,75.4L360.8,75.5L361.1,75.7L361.3,75.6L361.3,75.6L361.3,75.8L361.1,76.0L360.7,75.9L360.4,75.9L359.8,75.8L359.4,75.8L359.4,75.7L359.5,75.6L359.7,75.4L359.6,75.1L359.6,74.6L360.0,74.3L360.1,74.1L360.4,74.0L360.5,74.0L360.5,74.1ZM340.7,67.5L341.0,67.5L341.1,67.6L341.2,67.8L341.2,67.9L340.8,68.0L340.2,67.8L339.7,67.9L339.5,67.9L339.4,67.8L339.5,67.5L339.7,67.5L339.9,67.4L339.8,67.0L339.7,66.8L340.0,66.4L340.2,66.3L340.3,66.3L340.4,66.6L340.5,66.9L340.6,67.2ZM341.2,66.5L341.6,66.5L342.1,66.3L342.4,66.4L342.5,66.3L342.9,66.1L343.1,66.0L343.3,65.9L343.4,66.1L343.8,66.3L343.9,66.5L344.1,66.6L344.1,66.7L343.9,66.9L343.9,67.2L343.6,67.1L343.3,67.6L342.3,68.3L341.3,67.7L340.9,67.3L340.6,66.7L340.5,66.2L340.4,66.0L340.5,65.9L340.5,65.8L340.6,65.8L340.9,66.2L341.0,66.2ZM285.8,115.9L285.7,116.0L285.1,114.9L284.9,114.2L285.1,114.0L285.2,114.0L285.5,115.0L285.7,115.3L285.7,115.5L285.7,115.6ZM363.4,151.8L364.1,151.9L364.4,151.7L364.8,151.9L365.0,152.2L364.9,152.4L364.7,152.4L364.1,152.3L363.6,152.4L363.5,152.6L363.3,152.9L362.9,153.1L362.7,152.9L362.1,152.7L361.9,153.0L361.6,152.9L361.2,153.0L360.7,152.9L360.2,152.6L360.0,152.4L360.1,152.1L360.3,151.8L361.8,151.5L362.5,151.2L363.2,151.3L363.3,151.3L363.5,151.5L363.4,151.7ZM388.4,162.2L387.9,162.5L387.8,162.4L387.8,162.1L387.8,162.1L388.2,162.0ZM387.9,162.8L388.0,162.9L388.0,163.0L387.7,162.9L387.3,162.9L387.6,162.6L387.8,162.7ZM399.7,95.9L399.7,96.0L399.5,96.0L399.4,95.9L399.5,95.5L399.6,95.7L399.7,95.9ZM399.4,95.5L399.3,95.5L399.2,95.4L399.3,95.3L399.4,95.2L399.5,95.1L399.4,95.4ZM406.4,106.9L406.5,107.0L406.6,107.0L406.7,107.0L406.7,107.3L406.8,107.5L406.9,107.7L406.8,107.8L406.7,107.9L406.5,107.8L406.0,107.0L406.1,106.8ZM404.4,102.9L404.3,102.9L404.2,102.8L404.3,102.7L404.3,102.5L404.4,102.5L404.5,102.8ZM402.5,102.4L402.4,102.5L402.4,102.3L402.4,102.0L402.5,101.9L402.5,102.3ZM414.0,120.8L413.7,121.8L413.7,121.7L413.6,121.6L413.6,121.0L413.7,120.7L413.9,120.7ZM413.7,120.3L413.6,120.4L413.5,120.1L413.4,119.7L413.5,119.4L413.7,119.3L413.8,119.4L413.7,119.9ZM378.2,64.3L378.0,64.5L377.8,64.4L377.7,64.2L377.8,64.1L378.0,63.9ZM378.4,62.6L378.2,62.8L378.0,62.8L378.0,62.7L378.0,62.5L378.3,62.5ZM377.9,62.5L377.8,62.6L377.7,62.4L377.8,62.2L378.0,62.3ZM390.9,89.0L391.0,89.3L391.1,89.6L391.1,89.7L391.0,89.9L390.8,89.7L390.7,89.5L390.4,89.2L390.4,89.1L390.7,89.1L390.8,89.0L390.9,89.0ZM360.2,66.5L360.0,66.7L360.0,66.5L360.1,66.4L360.4,65.9L360.5,65.8L360.5,65.8L360.6,65.6L360.6,65.3L360.8,65.3L360.6,65.9ZM359.4,67.2L358.9,67.4L359.1,67.1L359.7,66.8L359.8,66.8L359.8,66.9L359.5,67.1ZM361.8,80.9L361.6,81.0L361.5,80.9L361.4,80.7L361.3,80.6L361.4,80.5L361.4,80.4L361.5,80.3L361.7,80.5L361.7,80.7ZM361.0,80.3L361.0,80.4L361.0,80.1L361.1,80.0L361.1,80.2ZM360.2,80.4L360.0,80.4L359.9,80.4L359.9,80.2L360.0,80.1L360.2,80.1L360.2,80.1ZM369.3,85.3L369.2,85.3L369.1,85.2L369.3,85.1L369.4,84.9L369.6,85.0L369.6,85.2ZM359.0,74.4L359.0,74.5L358.7,74.4L358.7,74.3L358.7,74.2L358.8,74.2L359.0,73.9L359.1,74.1L359.2,74.3ZM347.5,66.2L347.4,66.3L347.2,65.8L347.2,65.6L347.1,65.4L347.3,65.3L347.4,65.2L347.5,65.2L347.5,65.6L347.6,65.8ZM324.0,76.9L323.8,77.1L323.6,77.0L323.7,76.6L323.9,76.5L324.0,76.6L324.0,76.8ZM322.1,79.6L322.0,79.7L321.8,79.7L321.8,79.6L321.7,79.4L321.8,79.3L321.8,79.2L321.9,79.2L322.0,79.3L322.1,79.5ZM293.0,97.6L292.8,97.9L292.6,97.8L292.6,97.7L292.7,97.5L293.0,97.2L293.0,97.4ZM387.0,172.2L387.4,172.2L387.6,172.1L387.8,172.2L388.0,172.4L388.2,172.5L388.4,172.5L388.6,172.5L388.7,172.7L389.1,172.9L389.2,173.0L389.3,173.1L389.5,173.2L390.4,173.6L391.1,173.8L391.9,173.7L392.1,173.6L392.4,173.5L392.6,173.6L392.7,173.8L392.7,173.6L392.8,173.4L393.0,173.2L393.2,173.1L393.6,173.1L393.9,173.1L394.1,173.0L394.2,172.9L394.5,173.1L394.7,173.1L394.8,173.0L395.1,172.6L395.2,172.5L395.8,172.6L396.0,172.6L396.3,172.2L396.5,172.2L397.1,172.5L397.3,172.9L397.3,173.6L397.3,173.9L397.4,174.1L397.4,174.6L397.3,175.1L397.3,175.5L397.4,175.9L397.3,176.6L397.4,177.1L397.4,177.4L397.4,177.5L397.4,177.7L397.5,177.8L397.5,178.0L397.5,178.3L397.5,178.5L397.3,178.5L397.3,178.3L397.3,178.1L397.3,177.9L397.2,177.8L397.0,177.6L397.1,177.5L397.2,177.5L397.1,177.2L396.9,177.4L396.9,177.7L396.9,177.7L396.8,177.8L396.6,178.1L396.5,178.5L396.4,178.8L396.4,179.2L396.3,179.5L396.2,179.8L396.1,180.2L396.1,180.9L396.3,181.5L396.4,182.4L396.2,182.5L395.9,182.5L395.7,182.6L395.5,182.2L395.3,181.8L395.4,181.6L395.7,181.7L395.8,181.6L395.8,181.5L395.8,181.4L395.4,181.1L395.1,181.0L394.9,181.1L395.0,181.6L394.9,181.7L394.7,181.8L394.5,181.2L394.2,180.8L394.2,181.0L394.3,181.4L394.3,181.5L394.3,181.7L394.1,181.8L394.1,182.0L394.1,182.2L394.0,182.6L393.8,182.8L393.2,182.4L393.2,182.5L393.2,182.6L393.5,182.9L393.3,183.1L393.3,183.3L393.1,183.9L392.8,184.3L392.7,184.4L392.3,184.3L391.8,183.9L391.4,183.9L390.7,183.9L390.2,184.1L390.1,183.6L390.0,183.5L390.0,183.3L390.4,183.2L390.8,183.2L390.7,183.1L390.6,183.0L390.4,183.0L390.0,182.9L389.6,182.9L389.4,182.7L389.0,182.0L388.8,181.7L388.7,181.5L388.5,181.5L388.4,181.4L387.7,179.7L387.6,179.3L387.5,178.4L388.1,178.8L388.3,179.1L388.4,179.5L388.6,179.0L388.5,178.9L388.0,178.3L388.0,178.2L387.9,178.0L387.8,178.2L387.6,178.2L387.7,177.8L387.6,177.4L387.1,176.6L386.6,175.8L386.2,174.9L386.1,174.8L386.1,174.6L385.9,173.9L385.8,173.5L385.8,173.0L386.0,172.2L386.0,171.7L386.3,172.0ZM383.5,169.4L383.4,169.4L383.3,169.2L383.3,168.9L383.2,168.6L383.3,168.2L383.3,167.9L383.3,167.7L383.5,167.5L383.5,167.2L383.7,167.2L384.0,167.4L384.1,168.1L384.0,168.4L384.1,168.8L384.1,169.0L383.8,169.3ZM396.4,167.9L397.0,168.7L397.3,168.8L397.4,168.9L397.3,169.2L397.2,169.4L397.4,169.5L397.4,169.7L397.4,169.7L397.1,169.9L396.8,170.0L396.6,169.9L396.6,169.8L396.5,169.7L396.1,169.0L396.1,168.8L396.0,168.6L395.8,168.6L395.7,168.4L395.9,168.3L396.2,167.8ZM394.4,183.4L394.2,183.9L394.0,183.8L393.7,183.9L393.6,183.6L393.6,183.5L393.8,183.6L393.8,183.5L393.9,183.3L393.9,183.3L394.0,183.1L394.1,182.9L394.2,182.9L394.3,183.2ZM396.7,180.4L396.6,180.5L396.5,180.4L396.5,180.2L396.5,180.1L396.6,179.9L396.9,180.0L396.9,180.2L396.7,180.3ZM394.6,182.7L394.4,182.7L394.3,182.7L394.3,182.5L394.2,182.4L394.2,182.3L394.3,182.2L394.4,182.0L394.5,182.2ZM386.2,171.1L386.1,171.4L386.0,171.0L386.1,170.9L386.2,170.8L386.2,170.8ZM397.4,170.2L397.7,170.5L397.9,170.7L397.7,171.0L397.5,171.0L397.4,170.8L397.1,170.8L396.7,170.8L396.5,170.6L396.4,170.5L396.6,170.4L397.0,170.4ZM397.2,171.1L397.0,171.4L396.8,171.2L396.8,171.1L397.0,171.0L397.1,171.1ZM431.0,238.6L430.9,238.8L430.8,238.5L431.0,237.4L431.2,237.3L431.2,237.8Z" fill="#4ECDC4" stroke="#2C3E50" stroke-width="1"/><path d="M318.9,69.9L318.9,69.9L318.8,69.9L318.8,69.9Z" fill="#4ECDC4" stroke="#2C3E50" stroke-width="1"/></g><circle cx="400.0" cy="150.0" r="4" fill="#E74C3C" stroke="#fff" stroke-width="2"/><text x="400.0" y="140.0" text-anchor="middle" font-family="sans-serif" font-weight="700" font-size="10" fill="#2D3436">Canberra</text></svg>