<svg viewBox="0 0 800 300" xmlns="http://www.w3.org/2000/svg"><defs><clipPath id="v"><rect width="800" height="300"/></clipPath></defs><rect width="800" height="300" fill="#DCEEF8"/><g clip-path="url(#v)"><path d="M1359,-168L1339,-142L1318,-139L1317,-101L1302,-83L1252,-96L1233,-29L1220,-21L1170,-7L1193,55L1175,64L1177,84L1161,79L1148,66L1111,63L1068,62L1059,66L1022,51L1008,58L1004,79L962,67L945,72L939,87L925,93L891,117L880,141L870,142L863,125L831,124L825,96L813,96L815,61L784,36L740,38L710,44L686,12L665,-2L626,-28L621,-31L555,-10L556,120L543,121L525,94L508,85L479,92L467,103L466,95L472,81L467,69L438,57L426,25L412,16L411,4L436,8L437,-19L459,-25L481,-19L486,-55L481,-78L455,-76L434,-85L404,-69L380,-61L367,-67L370,-86L354,-112L335,-110L313,-136L328,-166L320,-174L341,-217L367,-194L370,-223L423,-268L463,-269L519,-241L549,-224L577,-241L617,-242L650,-221L657,-233L693,-231L700,-251L658,-279L683,-299L678,-311L702,-322L684,-351L696,-366L791,-381L804,-392L868,-408L891,-427L937,-417L945,-371L972,-382L1004,-367L1002,-344L1027,-346L1091,-387L1082,-373L1114,-340L1171,-234L1185,-255L1220,-232L1257,-242L1271,-235L1283,-212L1301,-204L1312,-187L1345,-192Z" fill="#E0E0E0" stroke="#fff" stroke-width=".4"/><path d="M556,120L555,-10L621,-31L626,-28L665,-2L686,12L710,44L740,38L784,36L815,61L813,96L825,96L831,124L863,125L870,142L880,141L891,117L925,93L939,87L947,90L925,112L944,125L963,117L993,135L960,159L941,156L930,156L926,147L932,131L898,139L889,161L877,179L856,178L849,192L868,200L874,224L859,257L840,250L826,250L826,230L792,216L766,200L749,185L720,162L707,127L699,121L671,123L661,116L658,88L624,70L602,90L581,102L585,119Z" fill="#E0E0E0" stroke="#fff" stroke-width=".4"/><path d="M38,396L34,405L25,401L19,421L26,424L19,428L18,436L30,432L31,444L18,491L15,484L1,440L8,431L7,429L13,415L19,392L22,384L23,384L32,384L34,379L41,378L41,391L38,395Z" fill="#E0E0E0" stroke="#fff" stroke-width=".4"/><path d="M41,378L34,379L32,384L23,384L32,359L45,337L45,336L57,338L61,350L47,361Z" fill="#E0E0E0" stroke="#fff" stroke-width=".4"/><path d="M30,432L18,436L19,428L26,424L19,421L25,401L34,405L34,424Z" fill="#E0E0E0" stroke="#fff" stroke-width=".4"/><path d="M34,405L38,396L67,408L117,375L127,412L122,417L71,432L97,462L88,467L84,477L64,481L58,491L47,500L19,496L18,491L31,444L30,432L34,424Z" fill="#E0E0E0" stroke="#fff" stroke-width=".4"/><path d="M352,477L357,490L355,497L363,519L345,520L338,506L316,503L334,475Z" fill="#E0E0E0" stroke="#fff" stroke-width=".4"/><path d="M127,412L117,375L173,343L183,305L181,282L195,274L208,254L219,249L248,254L257,262L270,256L286,294L303,304L305,322L292,333L286,357L304,386L335,403L348,426L344,447L352,447L353,463L367,479L352,477L334,475L316,503L268,501L196,441L158,420Z" fill="#E0E0E0" stroke="#fff" stroke-width=".4"/><path d="M1613,528L1615,539L1606,544L1609,562L1590,556L1557,576L1558,592L1544,616L1543,630L1531,653L1511,647L1510,676L1504,685L1507,697L1494,703L1481,659L1474,659L1470,677L1456,663L1464,647L1475,645L1487,622L1472,617L1448,617L1424,613L1422,594L1410,592L1389,580L1380,599L1399,614L1383,625L1377,635L1393,642L1389,659L1397,680L1401,703L1398,713L1380,713L1349,718L1350,739L1337,755L1300,773L1271,805L1252,822L1227,840L1226,852L1214,859L1191,868L1179,870L1171,890L1176,924L1178,946L1167,971L1167,1015L1154,1016L1142,1036L1150,1045L1126,1052L1118,1070L1107,1077L1083,1053L1071,1017L1062,990L1053,978L1039,953L1033,920L1028,904L1005,867L994,815L987,781L987,748L982,722L945,739L927,735L893,702L906,692L898,681L868,658L885,639L941,639L936,615L922,600L919,578L902,566L930,535L960,538L987,507L1003,477L1028,448L1027,426L1049,409L1029,394L1020,373L1011,346L1023,333L1062,340L1090,336L1115,310L1143,346L1140,371L1150,387L1149,402L1131,398L1138,432L1163,450L1199,471L1183,485L1173,512L1197,523L1222,537L1255,553L1290,557L1305,572L1324,575L1355,581L1376,581L1379,569L1376,551L1378,539L1394,533L1396,555L1396,561L1420,572L1436,568L1457,569L1478,569L1480,551L1470,542L1490,538L1513,517L1543,498L1564,505L1583,493L1595,511L1586,523Z" fill="#E0E0E0" stroke="#fff" stroke-width=".4"/><path d="M1115,310L1090,336L1062,340L1023,333L1011,346L1020,373L1029,394L1049,409L1027,426L1028,448L1003,477L987,507L960,538L930,535L902,566L919,578L922,600L936,615L941,639L885,639L868,658L849,650L842,630L822,609L775,614L733,615L697,619L707,586L744,571L742,558L729,553L729,528L704,515L694,497L681,482L724,497L750,492L765,496L770,490L788,492L821,480L822,455L836,438L855,438L858,430L878,426L887,428L897,420L896,402L907,383L923,376L913,355L937,356L944,345L943,333L956,320L953,305L947,291L962,277L989,271L1019,267L1032,261L1047,257L1066,272L1073,297Z" fill="#E0E0E0" stroke="#fff" stroke-width=".4"/><path d="M826,250L840,250L859,257L867,261L886,251L894,257L902,242L918,243L922,238L924,225L935,214L949,221L946,231L954,233L952,260L962,270L971,263L982,260L998,246L1016,248L1042,248L1047,257L1032,261L1019,267L989,271L962,277L947,291L953,305L956,320L943,333L944,345L937,356L913,355L923,376L907,383L896,402L897,420L887,428L878,426L858,430L855,438L836,438L822,455L821,480L788,492L770,490L765,496L750,492L724,497L681,482L705,455L702,436L683,431L681,411L673,387L684,371L673,366L680,344L690,305L716,317L735,312L741,298L761,293L775,284L780,258L802,252L806,240L818,249Z" fill="#E0E0E0" stroke="#fff" stroke-width=".4"/><path d="M859,257L874,224L868,200L849,192L856,178L877,179L889,161L898,139L932,131L926,147L930,156L941,156L931,166L903,160L901,179L929,177L960,188L1009,183L1015,213L1024,210L1039,217L1038,230L1042,248L1016,248L998,246L982,260L971,263L962,270L952,260L954,233L946,231L949,221L935,214L924,225L922,238L918,243L902,242L894,257L886,251L867,261Z" fill="#E0E0E0" stroke="#fff" stroke-width=".4"/><path d="M939,87L945,72L962,67L1004,79L1008,58L1022,51L1059,66L1068,62L1111,63L1148,66L1161,79L1177,84L1173,92L1133,110L1124,124L1091,128L1082,149L1055,145L1037,151L1012,167L1016,175L1009,183L960,188L929,177L901,179L903,160L931,166L941,156L960,159L993,135L963,117L944,125L925,112L947,90Z" fill="#E0E0E0" stroke="#fff" stroke-width=".4"/><path d="M467,103L479,92L508,85L525,94L543,121L556,120L585,119L581,102L602,90L624,70L658,88L661,116L671,123L699,121L707,127L720,162L749,185L766,200L792,216L826,230L826,250L818,249L806,240L802,252L780,258L775,284L761,293L741,298L735,312L716,317L690,305L688,278L669,277L639,249L619,245L591,229L573,226L561,232L544,231L526,249L504,255L499,233L503,198L483,187L489,165L472,163L478,134L502,143L524,132L506,111L498,92L478,101L475,126Z" fill="#E0E0E0" stroke="#fff" stroke-width=".4"/><path d="M367,479L353,463L352,447L344,447L348,426L335,403L304,386L286,357L292,333L305,322L303,304L286,294L270,256L256,230L261,220L253,183L270,173L274,186L287,201L305,205L314,204L344,180L354,178L361,187L352,204L368,221L375,219L383,243L407,250L425,266L461,271L501,263L504,255L526,249L544,231L561,232L573,226L591,229L619,245L639,249L669,277L688,278L690,305L680,344L673,366L684,371L673,387L681,411L683,431L702,436L705,455L681,482L694,497L704,515L729,528L729,553L742,558L744,571L707,586L697,619L649,610L621,604L592,600L582,565L569,560L550,565L524,579L493,569L467,547L442,539L425,511L406,472L393,477L376,467Z" fill="#E0E0E0" stroke="#fff" stroke-width=".4"/><path d="M38,396L38,395L41,391L41,378L47,361L61,350L57,338L45,336L43,312L49,299L56,292L63,285L64,268L73,274L101,265L114,271L135,271L165,259L179,259L208,254L195,274L181,282L183,305L173,343L117,375L67,408Z" fill="#E0E0E0" stroke="#fff" stroke-width=".4"/><path d="M314,204L305,205L294,186L294,181L283,181L276,172L270,173L260,164L241,155L244,139L239,127L275,122L280,131L290,136L285,145L298,156L291,167L302,176L313,182Z" fill="#E0E0E0" stroke="#fff" stroke-width=".4"/><path d="M-62,-285L-53,-283L-46,-293L-39,-290L-12,-294L4,-271L-2,-263L-0,-250L20,-248L29,-230L29,-222L61,-208L81,-215L97,-196L112,-196L149,-183L150,-172L139,-151L145,-130L141,-117L116,-115L103,-104L102,-87L82,-84L65,-72L41,-70L19,-56L20,-37L16,-38L13,-45L5,-46L-14,-54L-20,-45L-24,-49L-63,-59L-65,-72L-89,-68L-98,-48L-118,-20L-130,-27L-142,-21L-153,-28L-147,-32L-142,-44L-135,-56L-137,-62L-132,-65L-129,-60L-114,-59L-107,-62L-112,-66L-110,-71L-119,-81L-123,-96L-132,-103L-130,-116L-142,-126L-153,-127L-171,-139L-188,-135L-194,-130L-205,-130L-212,-121L-231,-117L-239,-111L-251,-121L-268,-121L-283,-125L-294,-117L-296,-127L-310,-138L-305,-153L-298,-163L-293,-161L-299,-179L-276,-212L-263,-216L-261,-228L-274,-263L-261,-265L-247,-276L-228,-277L-202,-274L-173,-264L-153,-263L-143,-257L-134,-264L-127,-254L-104,-256L-94,-252L-92,-273L-84,-282Z" fill="#E0E0E0" stroke="#fff" stroke-width=".4"/><path d="M-194,-130L-188,-135L-171,-139L-153,-127L-142,-126L-130,-116L-132,-103L-123,-96L-119,-81L-110,-71L-112,-66L-107,-62L-114,-59L-129,-60L-132,-65L-137,-62L-135,-56L-142,-44L-147,-32L-153,-28L-158,-44L-155,-60L-156,-76L-171,-99L-179,-115L-187,-126Z" fill="#E0E0E0" stroke="#fff" stroke-width=".4"/><path d="M-153,-28L-142,-21L-130,-27L-118,-20L-118,-11L-130,-3L-138,-7L-145,36L-160,33L-179,20L-209,28L-221,37L-259,35L-279,30L-288,32L-296,18L-301,11L-295,5L-301,1L-309,9L-324,-1L-326,-16L-341,-25L-344,-37L-358,-51L-338,-58L-322,-83L-310,-109L-294,-117L-283,-125L-268,-121L-251,-121L-239,-111L-231,-117L-212,-121L-205,-130L-194,-130L-187,-126L-179,-115L-171,-99L-156,-76L-155,-60L-158,-44Z" fill="#E0E0E0" stroke="#fff" stroke-width=".4"/><path d="M-296,18L-288,32L-279,30L-259,35L-221,37L-209,28L-179,20L-160,33L-145,36L-158,51L-167,76L-159,96L-181,91L-207,102L-208,119L-231,122L-249,110L-269,120L-288,119L-290,96L-303,85L-299,80L-301,76L-297,65L-287,54L-300,39L-302,26Z" fill="#E0E0E0" stroke="#fff" stroke-width=".4"/><path d="M-203,316L-206,325L-243,327L-243,322L-274,316L-269,303L-255,313L-235,312L-216,314L-217,319ZM-288,119L-269,120L-249,110L-231,122L-208,119L-207,102L-195,111L-203,132L-209,136L-224,135L-238,132L-269,141L-251,160L-264,165L-278,165L-292,148L-297,155L-291,175L-278,191L-288,198L-273,213L-261,222L-260,241L-284,232L-277,249L-293,252L-283,280L-300,281L-321,267L-331,241L-335,219L-345,204L-358,186L-360,176L-348,160L-347,149L-338,144L-338,135L-321,132L-311,125L-297,126L-293,120Z" fill="#E0E0E0" stroke="#fff" stroke-width=".4"/><path d="M270,256L257,262L248,254L219,249L208,254L179,259L165,259L135,271L114,271L101,265L73,274L64,268L63,285L56,292L49,299L40,285L49,273L34,276L12,268L-5,287L-44,290L-65,273L-92,272L-98,285L-116,289L-140,272L-168,273L-184,241L-202,223L-190,197L-206,182L-178,150L-138,148L-127,123L-79,127L-48,105L-18,95L24,95L69,119L105,132L135,127L157,130L187,112L215,110L239,127L244,139L241,155L260,164L270,173L253,183L261,220L256,230ZM-207,102L-181,91L-159,96L-156,109L-134,120L-139,128L-169,130L-180,141L-201,159L-209,143L-209,136L-203,132L-195,111Z" fill="#E0E0E0" stroke="#fff" stroke-width=".4"/><path d="M146,46L150,42L171,48L209,54L244,70L248,77L264,71L288,79L295,93L311,101L305,105L317,124L314,128L300,126L281,116L275,122L239,127L215,110L187,112L191,97L185,74L170,61L156,57Z" fill="#E0E0E0" stroke="#fff" stroke-width=".4"/><path d="M19,496L47,500L58,491L64,481L84,477L88,467L97,462L71,432L122,417L127,412L158,420L196,441L268,501L316,503L338,506L345,520L363,519L373,544L385,551L390,561L407,573L409,585L406,594L409,604L417,612L420,621L424,628L432,633L439,631L444,642L445,649L454,677L531,691L536,685L548,705L531,759L454,786L381,797L357,809L339,837L327,842L320,833L310,834L286,831L281,829L252,829L245,832L234,825L227,838L230,849L219,858L215,846L208,838L206,827L193,818L179,795L172,773L154,755L143,750L126,724L123,705L124,689L109,658L97,647L83,641L75,625L76,618L69,604L62,597L52,576L36,553L23,533L10,533L14,517L15,507Z" fill="#E0E0E0" stroke="#fff" stroke-width=".4"/><path d="M-38,321L-36,320L-33,313L-14,313L9,304L-8,317L-6,323L-9,322L-14,324L-18,324L-19,325L-20,322L-22,320L-26,320L-33,322Z" fill="#E0E0E0" stroke="#fff" stroke-width=".4"/><path d="M-38,321L-33,322L-26,320L-22,320L-20,322L-19,325L-18,324L-14,324L-9,322L-6,323L-6,326L-32,338L-44,334L-50,322Z" fill="#E0E0E0" stroke="#fff" stroke-width=".4"/><path d="M68,705L-34,705L-133,705L-236,705L-236,602L-236,499L-244,475L-237,457L-241,444L-232,430L-198,429L-173,437L-148,446L-136,451L-116,441L-106,433L-83,430L-65,434L-58,449L-52,439L-32,446L-12,448L1,440L15,484L18,491L11,503L5,525L-2,540L-8,545L-16,536L-28,523L-46,481L-49,484L-38,515L-22,544L-3,588L6,604L15,620L37,651L32,656L33,674L63,699Z" fill="#E0E0E0" stroke="#fff" stroke-width=".4"/></g><g clip-path="url(#v)"><path d="M270.8,175.3L269.9,174.3L269.6,173.6L272.0,173.1L276.3,171.5L277.5,172.3L278.7,173.8L279.3,175.2L279.4,177.6L279.9,178.0L282.0,177.2L282.8,178.2L284.5,179.4L287.1,180.5L291.1,178.7L293.0,178.2L294.7,178.3L295.5,178.9L295.9,180.8L295.5,183.1L295.1,184.4L295.9,185.3L299.1,187.6L300.5,188.8L299.8,191.0L302.2,196.3L303.1,198.3L304.0,200.9L299.0,199.9L290.2,197.8L287.8,196.6L285.5,193.7L284.1,192.3L282.0,190.5L280.3,189.8L279.1,188.5L278.4,186.6L277.3,184.9L275.4,182.9L271.3,176.1ZM374.4,215.4L373.7,215.3L368.4,216.5L367.3,216.1L362.9,210.4L362.0,209.8L360.0,209.6L358.8,208.6L357.9,207.1L357.5,205.9L352.8,202.8L352.1,201.7L352.0,200.7L352.7,199.8L353.5,199.0L355.7,198.2L358.4,197.6L359.2,197.1L359.7,196.2L359.7,194.9L359.2,193.6L355.4,191.2L355.0,190.2L354.9,188.9L355.1,187.6L355.6,186.6L358.7,185.1L360.4,183.7L359.4,182.1L356.1,178.3L352.1,174.3L349.5,174.2L346.4,175.4L341.5,178.9L338.8,180.4L335.3,182.9L331.4,185.6L328.3,188.5L326.3,190.9L322.9,191.9L321.1,194.0L315.2,200.0L313.6,199.9L313.5,196.9L313.6,194.6L313.2,193.2L311.3,191.3L311.3,190.5L311.8,190.1L313.3,190.3L315.1,190.2L316.0,189.5L314.0,187.0L312.3,185.4L310.7,184.3L310.4,183.6L310.4,183.1L310.7,182.5L313.3,181.2L313.6,180.0L313.4,178.5L309.3,176.4L306.2,177.2L303.4,174.9L301.7,173.1L299.5,171.2L297.5,170.1L295.7,167.7L292.4,165.2L290.3,164.5L290.4,164.1L290.7,163.6L291.6,163.3L297.4,163.3L298.1,162.9L298.5,161.8L299.3,160.3L300.2,157.9L300.1,155.9L294.3,152.7L290.1,149.8L287.1,145.9L285.1,142.3L285.2,141.1L285.8,140.0L290.3,136.7L290.6,135.9L290.5,135.3L288.9,133.6L286.9,131.9L286.2,130.6L284.9,129.9L282.4,129.9L278.2,127.8L277.3,127.5L277.1,127.1L277.3,126.7L280.3,125.8L280.3,125.1L279.4,124.2L277.7,123.5L276.1,121.7L275.5,120.2L281.1,115.7L282.6,114.8L286.3,115.6L293.8,118.6L293.3,120.3L294.0,121.2L295.8,122.5L299.0,123.7L301.9,124.5L303.2,123.9L305.5,123.4L308.2,124.9L310.8,126.8L312.1,127.5L312.7,127.7L314.7,127.1L317.1,124.7L318.0,121.7L318.2,120.4L316.9,118.4L314.0,116.3L310.9,114.5L308.9,112.8L307.6,109.6L306.3,109.2L305.9,108.8L305.7,107.7L305.7,106.2L306.2,105.0L307.5,104.5L308.8,104.3L310.0,103.2L311.4,100.9L312.1,99.7L314.8,100.4L315.2,102.4L315.7,102.8L316.8,102.6L318.7,101.8L320.2,102.4L322.1,104.8L324.9,107.3L326.3,109.0L326.9,110.1L328.3,111.2L330.3,112.6L331.9,114.6L333.3,119.4L334.7,120.5L340.0,122.3L341.7,122.7L346.9,123.3L348.6,122.9L351.3,118.8L353.6,114.5L355.8,113.6L359.9,111.6L362.2,109.6L363.2,107.5L365.5,103.5L366.8,101.3L369.2,103.3L373.3,108.7L379.1,117.4L380.5,119.8L381.4,122.7L382.2,126.2L383.5,129.2L389.4,136.9L392.0,139.7L396.1,143.4L397.6,144.2L399.5,144.4L403.1,144.4L406.3,145.8L408.0,146.8L409.7,148.3L411.1,149.9L412.7,154.4L407.0,152.9L401.3,153.2L398.0,154.1L394.8,155.4L391.9,157.2L390.0,160.8L388.4,169.1L386.1,176.8L386.1,180.3L387.2,183.7L387.0,185.4L386.0,186.0L384.6,187.5L382.9,194.5L381.9,195.9L380.8,196.8L380.6,195.9L380.6,194.1L378.1,192.5L376.8,194.3L375.9,198.1L374.0,202.2L373.9,202.9ZM289.6,143.1L289.9,142.0L289.2,141.4L288.4,141.4L287.7,142.0L287.7,143.4L288.6,143.7ZM276.1,129.2L275.5,129.6L274.7,129.2L274.4,128.3L274.5,127.4L275.4,127.2L276.0,127.5L276.2,128.3Z" fill="#4ECDC4" stroke="#2C3E50" stroke-width="1"/></g><circle cx="400.0" cy="150.0" r="4" fill="#E74C3C" stroke="#fff" stroke-width="2"/><text x="400.0" y="140.0" text-anchor="middle" font-family="sans-serif" font-weight="700" font-size="10" fill="#2D3436">Baku</text></svg>