<svg viewBox="0 0 800 300" xmlns="http://www.w3.org/2000/svg"><defs><clipPath id="v"><rect width="800" height="300"/></clipPath></defs><rect width="800" height="300" fill="#DCEEF8"/><g clip-path="url(#v)"><path d="M-1942,1645L-1962,1676L-1972,1701L-1985,1713L-2001,1716L-2005,1706L-2013,1705L-2023,1714L-2038,1707L-2029,1693L-2026,1678L-2020,1663L-2033,1644L-2036,1621L-2019,1592L-2007,1595L-1983,1603L-1947,1632ZM-9,-123L7,-110L55,-100L39,-66L34,-30L25,-22L10,-26L11,-14L-13,14L-14,36L2,28L13,49L12,63L22,81L10,95L19,132L37,138L33,158L3,184L-63,171L-112,186L-116,214L-154,219L-192,199L-204,209L-266,188L-279,170L-262,142L-255,48L-290,-3L-314,-28L-365,-47L-369,-83L-325,-95L-269,-81L-280,-139L-248,-117L-171,-158L-161,-201L-131,-211L-126,-193L-111,-192L-95,-171L-72,-146L-55,-150L-26,-127L-18,-122ZM77,207L99,189L104,228L93,263L78,254L70,223Z" fill="#E0E0E0" stroke="#fff" stroke-width=".4"/><path d="M102,721L87,650L67,635L66,625L39,601L36,571L57,548L65,515L59,475L66,454L103,437L126,442L125,463L153,448L156,456L139,476L139,495L150,506L146,541L124,561L130,583L148,584L156,603L169,609L167,640L151,651L140,664L117,679L121,695L118,712Z" fill="#E0E0E0" stroke="#fff" stroke-width=".4"/><path d="M-506,832L-505,825L-505,822L-505,777L-451,749L-418,743L-391,733L-378,713L-339,698L-337,669L-318,665L-303,651L-259,644L-253,629L-262,620L-273,578L-275,554L-288,527L-256,505L-220,498L-199,481L-166,468L-110,461L-54,457L-38,463L-6,447L30,447L43,456L66,454L59,475L65,515L57,548L36,571L39,601L66,625L67,635L87,650L102,721L112,755L114,772L108,804L111,821L106,841L109,865L96,880L116,908L117,923L129,944L145,937L171,954L186,977L71,1046L-26,1116L-73,1132L-110,1135L-110,1113L-126,1107L-146,1097L-154,1080L-267,1002L-380,922Z" fill="#E0E0E0" stroke="#fff" stroke-width=".4"/><path d="M979,626L978,626L982,620L982,604L990,582L1008,567L1003,551L988,549L985,517L993,501L1002,492L1011,482L1013,459L1024,467L1060,456L1078,464L1106,464L1144,448L1162,449L1200,442L1183,468L1165,478L1168,509L1155,558L1081,600L1016,642Z" fill="#E0E0E0" stroke="#fff" stroke-width=".4"/><path d="M847,-263L860,-261L868,-273L878,-270L913,-275L934,-245L926,-234L929,-217L955,-215L967,-192L966,-181L1009,-163L1034,-171L1055,-147L1075,-147L1124,-130L1124,-115L1111,-89L1118,-61L1113,-44L1081,-40L1063,-27L1062,-5L1036,-1L1013,15L982,18L953,36L955,62L950,60L946,51L935,49L911,38L902,50L898,45L846,33L843,15L812,21L800,47L774,83L759,75L743,82L728,73L737,68L743,52L752,37L749,28L756,24L760,31L779,32L788,28L782,24L784,16L773,4L768,-17L756,-25L758,-42L743,-55L729,-57L705,-73L682,-68L674,-60L660,-60L652,-48L627,-44L616,-36L600,-48L579,-48L558,-54L544,-43L541,-57L523,-70L529,-91L539,-104L546,-101L537,-124L568,-167L584,-173L588,-188L571,-234L587,-237L605,-251L631,-252L665,-248L702,-235L729,-234L741,-226L754,-236L762,-223L793,-226L806,-221L808,-248L818,-259Z" fill="#E0E0E0" stroke="#fff" stroke-width=".4"/><path d="M570,-363L571,-338L580,-317L580,-295L560,-284L570,-258L571,-234L588,-188L584,-173L568,-167L537,-124L546,-101L539,-104L507,-124L483,-116L467,-122L447,-111L430,-129L417,-122L415,-125L399,-150L375,-154L371,-170L348,-176L344,-162L325,-173L327,-188L302,-192L287,-209L273,-243L276,-262L267,-291L255,-311L264,-326L257,-355L279,-371L332,-398L374,-417L407,-407L410,-393L442,-393L483,-386L544,-387L562,-381Z" fill="#E0E0E0" stroke="#fff" stroke-width=".4"/><path d="M352,-55L350,-35L331,-35L337,-24L326,8L320,16L291,17L274,28L246,24L198,12L191,-5L158,3L154,13L134,6L117,4L102,-5L107,-17L105,-25L115,-28L132,-14L137,-28L167,-25L190,-34L206,-33L217,-23L220,-31L215,-64L227,-70L239,-93L264,-77L283,-98L295,-102L320,-86L336,-89L352,-79L349,-73Z" fill="#E0E0E0" stroke="#fff" stroke-width=".4"/><path d="M523,-70L541,-57L544,-43L523,-33L508,1L487,34L460,43L440,41L414,53L402,61L374,51L349,31L338,25L332,8L326,8L337,-24L331,-35L350,-35L352,-55L369,-42L382,-37L410,-43L412,-53L426,-55L442,-62L445,-59L461,-66L469,-77L480,-80L516,-65Z" fill="#E0E0E0" stroke="#fff" stroke-width=".4"/><path d="M674,-60L682,-68L705,-73L729,-57L743,-55L758,-42L756,-25L768,-17L773,4L784,16L782,24L788,28L779,32L760,31L756,24L749,28L752,37L743,52L737,68L728,73L722,52L726,31L725,10L706,-20L695,-40L685,-55Z" fill="#E0E0E0" stroke="#fff" stroke-width=".4"/><path d="M728,73L743,82L759,75L774,83L775,95L759,105L749,101L739,157L720,152L695,135L656,146L639,158L590,155L565,148L552,152L542,133L536,124L544,117L535,111L525,121L505,108L503,88L482,77L479,62L460,43L487,34L508,1L523,-33L544,-43L558,-54L579,-48L600,-48L616,-36L627,-44L652,-48L660,-60L674,-60L685,-55L695,-40L706,-20L725,10L726,31L722,52Z" fill="#E0E0E0" stroke="#fff" stroke-width=".4"/><path d="M257,-355L264,-326L255,-311L267,-291L276,-262L273,-243L287,-209L272,-204L263,-210L254,-200L230,-189L218,-176L194,-165L200,-149L203,-128L220,-115L239,-93L227,-70L215,-64L220,-31L217,-23L206,-33L190,-34L167,-25L137,-28L132,-14L115,-28L105,-25L70,-41L63,-30L34,-30L39,-66L55,-100L7,-110L-9,-123L-7,-146L-13,-158L-10,-193L-15,-249L5,-249L13,-270L22,-320L16,-339L22,-351L50,-354L56,-342L79,-369L71,-391L70,-424L95,-416L116,-425L117,-403L151,-389L150,-369L184,-380L203,-395L241,-373Z" fill="#E0E0E0" stroke="#fff" stroke-width=".4"/><path d="M542,133L552,152L565,148L590,155L639,158L656,146L695,135L720,152L739,157L722,176L710,209L720,235L692,229L658,243L657,265L627,269L603,254L577,266L552,265L549,235L533,221L538,214L535,209L540,194L553,180L537,160L534,143Z" fill="#E0E0E0" stroke="#fff" stroke-width=".4"/><path d="M663,522L659,534L611,538L611,531L571,523L577,505L595,519L621,517L646,520L645,527ZM552,265L577,266L603,254L627,269L657,265L658,243L674,255L663,282L656,287L635,286L618,282L577,293L600,318L583,325L565,325L547,303L541,312L548,338L565,359L553,368L571,388L588,400L588,424L557,413L567,434L546,439L559,476L536,476L509,458L496,425L491,396L478,377L460,352L458,340L474,319L476,304L487,298L487,287L509,283L522,273L540,274L545,266Z" fill="#E0E0E0" stroke="#fff" stroke-width=".4"/><path d="M1281,444L1265,452L1253,441L1214,435L1200,442L1162,449L1144,448L1106,464L1078,464L1060,456L1024,467L1013,459L1011,482L1002,492L993,501L981,482L993,466L973,470L945,460L922,484L871,489L844,466L808,465L800,482L777,487L745,465L709,466L689,424L664,401L681,367L659,347L696,305L748,303L762,270L826,276L866,247L905,234L960,233L1018,265L1066,282L1105,275L1134,279L1174,256L1209,254L1241,275L1247,291L1244,312L1269,323L1282,336L1259,348L1269,398L1263,411ZM658,243L692,229L720,235L724,252L754,266L747,277L708,280L694,293L666,317L655,296L656,287L663,282L674,255Z" fill="#E0E0E0" stroke="#fff" stroke-width=".4"/><path d="M487,287L487,298L476,304L474,319L458,340L452,337L452,327L433,313L430,292L433,261L438,247L432,240L430,226L444,204L447,212L456,208L463,221L471,225L473,241L469,257L473,276Z" fill="#E0E0E0" stroke="#fff" stroke-width=".4"/><path d="M338,25L349,31L374,51L402,61L414,53L422,72L433,85L420,103L405,93L382,93L353,86L337,87L330,96L318,86L311,105L327,127L335,142L350,159L363,169L375,188L405,206L401,213L370,196L351,180L320,166L292,132L299,129L283,109L283,93L261,86L251,106L241,90L242,74L243,73L266,75L273,66L284,74L297,75L297,62L309,57L312,37Z" fill="#E0E0E0" stroke="#fff" stroke-width=".4"/><path d="M105,-25L107,-17L102,-5L117,4L134,6L131,26L116,34L92,28L84,47L68,49L63,41L44,57L28,60L13,49L2,28L-14,36L-13,14L11,-14L10,-26L25,-22L34,-30L63,-30L70,-41Z" fill="#E0E0E0" stroke="#fff" stroke-width=".4"/><path d="M-13,-158L-7,-146L-9,-123L-18,-122L-26,-127L-22,-156Z" fill="#E0E0E0" stroke="#fff" stroke-width=".4"/><path d="M-10,-193L-13,-158L-22,-156L-26,-127L-55,-150L-72,-146L-95,-171L-111,-192L-126,-193L-131,-211L-105,-222L-80,-218L-49,-229L-28,-206Z" fill="#E0E0E0" stroke="#fff" stroke-width=".4"/><path d="M16,-339L22,-320L13,-270L5,-249L-15,-249L-10,-193L-28,-206L-49,-229L-80,-218L-105,-222L-87,-237L-58,-317L-12,-341Z" fill="#E0E0E0" stroke="#fff" stroke-width=".4"/><path d="M-464,448L-467,434L-455,418L-450,406L-462,394L-453,366L-466,340L-451,336L-450,315L-445,309L-444,275L-429,263L-438,240L-458,239L-463,244L-483,244L-492,222L-505,229L-517,240L-516,208L-529,188L-482,155L-441,163L-396,163L-361,171L-333,169L-279,170L-266,188L-204,209L-192,199L-154,219L-116,214L-114,240L-145,270L-188,279L-191,294L-212,318L-225,353L-212,378L-231,397L-238,425L-263,433L-287,465L-329,466L-361,465L-382,480L-395,495L-411,492L-424,478L-433,454Z" fill="#E0E0E0" stroke="#fff" stroke-width=".4"/><path d="M134,6L154,13L158,3L191,-5L198,12L246,24L242,48L251,69L224,62L197,79L199,102L194,115L205,139L237,163L254,200L291,237L317,237L325,247L316,255L346,272L370,285L399,308L402,316L396,332L378,311L348,304L335,332L359,348L355,371L341,374L323,410L309,413L309,400L316,377L323,368L310,343L300,321L286,316L276,297L255,289L240,271L215,268L189,248L159,219L136,193L126,147L109,142L82,126L66,133L47,154L33,158L37,138L19,132L10,95L22,81L12,63L13,49L28,60L44,57L63,41L68,49L84,47L92,28L116,34L131,26ZM278,403L303,400L291,433L296,446L289,467L264,452L247,447L200,426L205,404L244,408ZM76,284L93,270L113,302L108,359L93,356L79,371L66,359L65,307L57,282Z" fill="#E0E0E0" stroke="#fff" stroke-width=".4"/><path d="M-422,-361L-448,-373L-468,-372L-462,-402L-468,-434L-440,-436L-405,-400ZM-319,-335L-319,-335L-314,-367L-336,-403L-337,-404L-377,-414L-385,-429L-373,-456L-384,-472L-402,-444L-404,-501L-421,-532L-409,-596L-383,-648L-356,-643L-316,-648L-351,-580L-317,-588L-281,-588L-289,-538L-320,-483L-285,-479L-282,-473L-253,-404L-230,-395L-209,-330L-200,-308L-159,-298L-163,-263L-180,-247L-167,-219L-197,-191L-242,-192L-299,-177L-314,-187L-336,-163L-367,-169L-391,-149L-408,-159L-359,-215L-329,-226L-330,-226L-382,-235L-391,-257L-356,-274L-375,-303L-368,-340Z" fill="#E0E0E0" stroke="#fff" stroke-width=".4"/><path d="M246,24L274,28L291,17L320,16L326,8L332,8L338,25L312,37L309,57L297,62L297,75L284,74L273,66L266,75L243,73L251,69L242,48Z" fill="#E0E0E0" stroke="#fff" stroke-width=".4"/><path d="M539,-104L529,-91L523,-70L516,-65L480,-80L469,-77L461,-66L445,-59L442,-62L426,-55L412,-53L410,-43L382,-37L369,-42L352,-55L349,-73L352,-79L356,-90L371,-89L383,-95L383,-99L390,-102L392,-113L400,-116L405,-125L415,-125L417,-122L430,-129L447,-111L467,-122L483,-116L507,-124Z" fill="#E0E0E0" stroke="#fff" stroke-width=".4"/><path d="M287,-209L302,-192L327,-188L325,-173L344,-162L348,-176L371,-170L375,-154L399,-150L415,-125L405,-125L400,-116L392,-113L390,-102L383,-99L383,-95L371,-89L356,-90L352,-79L336,-89L320,-86L295,-102L283,-98L264,-77L239,-93L220,-115L203,-128L200,-149L194,-165L218,-176L230,-189L254,-200L263,-210L272,-204Z" fill="#E0E0E0" stroke="#fff" stroke-width=".4"/><path d="M533,221L549,235L552,265L545,266L540,274L522,273L509,283L487,287L473,276L469,257L473,241L477,242L479,233L498,226L506,224L517,221Z" fill="#E0E0E0" stroke="#fff" stroke-width=".4"/><path d="M414,53L440,41L460,43L479,62L482,77L503,88L505,108L525,121L535,111L544,117L536,124L542,133L534,143L537,160L553,180L540,194L535,209L538,214L533,221L517,221L506,224L505,221L509,215L512,204L508,204L501,196L496,194L491,186L485,184L480,177L474,180L470,195L462,198L464,194L452,185L441,180L436,173L427,166L435,163L440,142L424,124L432,103L420,103L433,85L422,72Z" fill="#E0E0E0" stroke="#fff" stroke-width=".4"/><path d="M456,208L447,212L444,204L430,226L432,240L425,237L416,222L401,213L405,206L410,180L421,170L427,166L436,173L441,180L452,185L464,194L462,198Z" fill="#E0E0E0" stroke="#fff" stroke-width=".4"/><path d="M473,241L471,225L463,221L456,208L462,198L470,195L474,180L480,177L485,184L491,186L496,194L501,196L508,204L512,204L509,215L505,221L506,224L498,226L479,233L477,242Z" fill="#E0E0E0" stroke="#fff" stroke-width=".4"/></g><g clip-path="url(#v)"><path d="M426.2,165.1L425.2,165.0L423.5,165.4L422.3,165.9L420.7,165.1L418.9,164.7L418.1,165.4L417.8,166.8L418.9,169.3L420.9,173.2L420.7,176.2L419.0,176.5L417.5,174.0L416.2,173.6L414.8,173.7L411.4,176.6L408.9,179.0L408.3,180.7L407.3,182.5L407.1,183.9L407.2,188.3L402.6,189.0L401.6,189.7L401.2,191.0L401.5,196.7L401.9,199.7L404.4,204.5L404.5,205.9L404.2,206.9L402.4,208.7L401.5,209.4L400.9,209.6L397.9,208.4L396.5,207.9L390.5,203.7L387.8,201.4L383.6,198.4L380.9,196.6L379.6,194.0L377.6,193.5L375.2,194.3L372.4,192.4L374.3,191.4L374.8,190.5L374.6,189.3L373.7,187.6L366.3,180.5L362.7,175.6L362.1,173.8L362.1,169.1L361.2,168.0L355.7,165.9L349.5,159.8L343.3,153.7L342.4,152.1L339.2,147.6L335.2,143.4L332.1,140.7L329.4,137.7L326.6,133.5L325.1,127.1L323.8,121.4L323.0,119.2L321.1,118.4L315.5,111.6L310.7,107.7L310.7,103.4L311.5,96.3L312.4,88.2L313.6,87.0L315.7,86.4L318.3,86.6L320.4,87.7L324.8,93.2L327.2,95.3L329.2,96.3L331.6,93.9L334.6,88.9L337.1,86.4L345.9,87.3L350.1,83.5L357.1,88.5L359.9,89.3L361.6,88.6L363.7,88.9L368.6,90.3L369.6,90.9L371.1,90.8L374.7,88.9L375.9,89.2L380.0,93.0L382.2,93.0L384.6,91.3L386.1,89.9L390.9,91.0L393.6,90.3L395.9,90.3L398.3,90.9L400.4,91.8L402.6,92.6L408.5,93.0L411.3,95.3L412.4,97.7L412.4,99.1L412.6,100.7L414.3,102.2L417.8,103.0L419.9,102.8L421.1,102.7L424.1,101.4L427.6,100.7L430.2,101.5L431.4,102.2L431.6,103.3L430.9,107.0L429.4,110.9L427.2,115.1L424.7,118.9L424.1,120.9L424.0,124.2L423.7,126.7L424.0,128.2L424.7,129.4L427.5,130.4L431.0,133.0L434.1,136.3L438.0,140.0L439.2,141.5L439.2,143.0L438.1,144.1L434.7,144.5L431.2,144.2L429.9,143.8L428.7,144.2L427.9,145.1L428.4,146.1L431.8,150.7L436.1,157.3L436.3,160.1L435.8,162.3L434.9,163.8L433.0,163.5L431.7,162.3L429.8,162.4L428.2,162.7Z" fill="#4ECDC4" stroke="#2C3E50" stroke-width="1"/></g><circle cx="400.0" cy="150.0" r="4" fill="#E74C3C" stroke="#fff" stroke-width="2"/><text x="400.0" y="140.0" text-anchor="middle" font-family="sans-serif" font-weight="700" font-size="10" fill="#2D3436">Sarajevo</text></svg>