<svg viewBox="0 0 800 300" xmlns="http://www.w3.org/2000/svg"><defs><clipPath id="v"><rect width="800" height="300"/></clipPath></defs><rect width="800" height="300" fill="#DCEEF8"/><g clip-path="url(#v)"><path d="M-107,985L-120,994L-134,953L-154,930L-177,954L-313,953L-312,997L-271,1004L-273,1031L-287,1023L-326,1035L-327,1086L-296,1111L-285,1151L-286,1181L-318,1373L-353,1336L-374,1334L-329,1263L-382,1230L-424,1236L-449,1224L-488,1243L-540,1234L-581,1161L-613,1143L-636,1110L-682,1077L-700,1083L-730,1067L-765,1044L-785,1055L-844,1045L-861,1015L-874,1016L-944,976L-953,955L-927,949L-930,914L-914,889L-879,884L-850,840L-823,804L-849,787L-836,746L-851,682L-836,664L-847,604L-876,567L-867,533L-844,538L-831,517L-847,475L-839,465L-803,467L-750,418L-722,410L-721,387L-708,327L-668,294L-624,293L-618,278L-564,284L-509,248L-481,232L-448,197L-423,202L-405,221L-418,245L-463,257L-481,292L-508,313L-528,339L-537,390L-556,431L-520,436L-511,468L-496,484L-490,512L-499,538L-496,553L-479,559L-462,583L-372,577L-332,586L-283,646L-255,638L-204,642L-165,634L-140,646L-152,684L-168,708L-173,758L-159,804L-139,825L-137,841L-172,876L-147,891L-129,916Z" fill="#E0E0E0" stroke="#fff" stroke-width=".4"/><path d="M322,709L331,729L305,756L227,782L177,793L157,809L101,792L50,783L36,789L68,807L65,854L75,898L134,904L138,919L88,939L80,968L51,980L-1,996L-15,1018L-69,1022L-107,985L-129,916L-147,891L-172,876L-137,841L-139,825L-159,804L-173,758L-168,708L-152,684L-140,646L-165,634L-204,642L-255,638L-283,646L-332,586L-372,577L-462,583L-479,559L-496,553L-499,538L-490,512L-496,484L-511,468L-520,436L-556,431L-537,390L-528,339L-508,313L-481,292L-463,257L-418,245L-420,261L-461,270L-439,302L-439,339L-470,381L-444,437L-414,432L-398,381L-420,356L-423,302L-336,273L-346,240L-321,217L-296,267L-247,268L-202,308L-199,332L-137,332L-62,325L-22,357L31,366L70,343L71,325L158,321L242,320L182,341L206,375L262,380L315,415L326,471L362,470L390,486L334,528L328,553L352,580L335,593L292,604L293,637L274,656Z" fill="#E0E0E0" stroke="#fff" stroke-width=".4"/><path d="M614,940L597,942L559,937L536,955L504,967L482,970L475,984L440,981L397,948L392,916L375,880L386,821L405,796L389,764L365,753L374,722L358,706L322,709L274,656L293,637L292,604L335,593L352,580L328,553L334,528L390,486L436,512L479,558L481,594L507,596L544,630L572,655L561,718L518,736L522,753L509,789L540,840L563,840L572,879Z" fill="#E0E0E0" stroke="#fff" stroke-width=".4"/><path d="M255,317L296,308L310,310L307,363L249,371L237,365L257,345Z" fill="#E0E0E0" stroke="#fff" stroke-width=".4"/></g><g clip-path="url(#v)"><path d="M408.2,151.3L406.2,152.7L399.9,149.8L397.7,146.4L397.4,135.4L401.2,134.4L408.5,143.1L412.7,146.2Z" fill="#4ECDC4" stroke="#2C3E50" stroke-width="1"/></g><circle cx="400.0" cy="150.0" r="4" fill="#E74C3C" stroke="#fff" stroke-width="2"/><text x="400.0" y="140.0" text-anchor="middle" font-family="sans-serif" font-weight="700" font-size="10" fill="#2D3436">Bridgetown</text></svg>