<svg viewBox="0 0 800 300" xmlns="http://www.w3.org/2000/svg"><defs><clipPath id="v"><rect width="800" height="300"/></clipPath></defs><rect width="800" height="300" fill="#DCEEF8"/><g clip-path="url(#v)"><path d="M-255,-248L-256,-344L-207,-360L-203,-358L-174,-338L-158,-328L-140,-304L-118,-308L-85,-310L-63,-291L-64,-265L-55,-265L-51,-244L-27,-243L-21,-232L-14,-232L-6,-250L19,-267L30,-272L36,-270L20,-253L34,-244L47,-250L70,-237L46,-219L31,-221L23,-220L20,-227L24,-239L-1,-233L-7,-217L-16,-203L-32,-205L-37,-194L-23,-188L-19,-170L-30,-146L-44,-151L-54,-151L-54,-165L-79,-176L-99,-188L-112,-199L-133,-216L-143,-242L-149,-247L-170,-246L-177,-251L-179,-271L-205,-285L-221,-270L-237,-261L-234,-248Z" fill="#E0E0E0" stroke="#fff" stroke-width=".4"/><path d="M-270,173L-269,165L-264,156L-264,147L-255,143L-258,140L-257,127L-247,127L-239,141L-228,149L-214,151L-203,155L-194,167L-189,174L-182,176L-182,181L-189,193L-192,199L-200,206L-207,219L-216,218L-220,223L-223,233L-221,247L-222,249L-231,249L-243,257L-245,267L-249,271L-261,271L-269,276L-268,284L-278,289L-288,287L-301,294L-310,295L-316,281L-331,248L-274,228L-261,187ZM-250,110L-253,103L-248,96L-245,97L-247,106Z" fill="#E0E0E0" stroke="#fff" stroke-width=".4"/><path d="M632,383L627,359L639,343L664,339L682,342L697,350L706,336L723,344L727,357L725,380L693,395L701,407L681,408L665,416L649,413L641,403Z" fill="#E0E0E0" stroke="#fff" stroke-width=".4"/><path d="M682,342L664,339L639,343L627,359L632,383L615,374L598,374L601,359L584,359L583,381L573,409L566,426L568,440L580,441L588,458L591,475L602,486L613,488L623,498L617,506L604,508L603,498L587,490L584,493L577,486L573,477L563,466L554,457L551,468L547,457L549,445L555,427L564,407L575,389L567,371L567,362L565,351L553,335L548,325L555,322L562,305L554,292L542,277L533,259L541,256L549,234L563,233L574,224L585,220L593,226L594,238L607,239L602,260L603,278L623,266L628,270L639,269L643,262L658,264L672,280L673,299L689,317L688,333Z" fill="#E0E0E0" stroke="#fff" stroke-width=".4"/><path d="M723,344L706,336L697,350L682,342L688,333L689,317L673,299L672,280L658,264L643,262L639,269L628,270L623,266L603,278L602,260L607,239L594,238L593,226L585,220L589,212L605,199L607,204L617,204L614,181L624,178L635,194L643,213L667,213L674,230L662,236L657,243L679,255L695,279L707,296L722,310L726,324Z" fill="#E0E0E0" stroke="#fff" stroke-width=".4"/><path d="M585,220L574,224L563,233L549,234L541,256L533,259L542,277L554,292L562,305L555,322L548,325L553,335L565,351L567,362L567,371L575,389L564,407L555,427L553,412L559,397L553,386L554,365L546,355L540,331L537,306L528,290L516,300L494,314L484,312L472,307L478,283L475,264L460,241L462,234L451,231L437,215L436,198L443,201L443,187L452,182L450,173L455,166L455,144L470,149L479,132L480,122L490,104L490,92L514,77L528,81L526,68L533,64L532,56L543,54L549,67L557,72L558,88L557,106L539,123L537,148L557,145L561,164L574,168L568,185L582,193L590,196L604,190L605,199L589,212Z" fill="#E0E0E0" stroke="#fff" stroke-width=".4"/><path d="M665,416L681,408L701,407L693,395L725,380L727,357L723,344L726,324L722,310L707,296L695,279L679,255L657,243L662,236L674,230L667,213L643,213L635,194L624,178L634,173L649,173L668,171L684,159L693,167L710,171L707,183L716,191L736,197L710,214L694,233L690,247L705,268L722,294L740,307L751,322L760,359L757,393L742,406L720,418L704,434L681,452L674,440L679,427Z" fill="#E0E0E0" stroke="#fff" stroke-width=".4"/><path d="M532,56L533,64L526,68L528,81L514,77L490,92L490,104L480,122L479,132L470,149L455,144L455,166L450,173L452,182L443,187L433,154L428,154L425,167L414,156L420,145L429,143L437,126L426,122L409,122L391,119L389,105L380,104L365,95L358,109L372,120L360,128L356,136L367,141L364,154L371,169L374,186L371,194L358,193L335,198L336,213L326,225L298,239L277,262L263,275L244,288L244,297L234,302L217,309L208,310L202,325L206,351L207,367L199,386L199,418L189,419L181,434L187,440L169,446L163,459L155,465L137,447L128,420L121,400L114,391L104,372L100,348L96,335L79,308L71,270L65,244L65,220L62,201L34,213L21,210L-4,186L5,178L-1,170L-23,152L-10,139L32,139L28,121L17,110L15,94L2,84L23,62L46,63L65,41L77,18L96,-4L96,-20L112,-33L96,-44L90,-59L83,-79L92,-89L121,-84L142,-87L161,-106L181,-79L179,-61L187,-49L186,-37L173,-40L178,-16L197,-2L223,14L211,24L204,44L222,52L240,63L265,75L291,78L302,89L317,91L339,96L355,95L357,87L355,73L356,64L368,59L370,76L370,81L387,89L399,85L415,87L431,86L432,73L425,66L440,64L457,48L479,34L495,39L509,30L518,43L511,52Z" fill="#E0E0E0" stroke="#fff" stroke-width=".4"/><path d="M425,66L432,73L431,86L415,87L399,85L387,89L370,81L370,76L382,60L393,55L406,60L416,60Z" fill="#E0E0E0" stroke="#fff" stroke-width=".4"/><path d="M356,64L355,73L357,87L355,95L339,96L317,91L302,89L291,78L265,75L240,63L222,52L204,44L211,24L223,14L231,9L246,15L265,30L276,33L283,43L297,47L313,57L334,62Z" fill="#E0E0E0" stroke="#fff" stroke-width=".4"/><path d="M161,-106L142,-87L121,-84L92,-89L83,-79L90,-59L96,-44L112,-33L96,-20L96,-4L77,18L65,41L46,63L23,62L2,84L15,94L17,110L28,121L32,139L-10,139L-23,152L-37,147L-43,132L-57,116L-92,120L-123,121L-150,124L-143,99L-115,88L-117,78L-126,75L-127,56L-145,46L-152,33L-162,22L-130,33L-111,30L-100,32L-96,28L-83,29L-58,20L-57,2L-47,-11L-32,-11L-30,-17L-16,-20L-9,-18L-1,-24L-2,-38L6,-51L18,-57L10,-72L29,-72L34,-80L33,-89L42,-99L40,-110L36,-120L47,-130L67,-135L89,-138L99,-143L110,-145L124,-134L130,-116Z" fill="#E0E0E0" stroke="#fff" stroke-width=".4"/><path d="M-54,-151L-44,-151L-30,-146L-24,-143L-10,-150L-4,-146L3,-157L14,-156L17,-160L19,-169L27,-178L37,-172L35,-165L41,-164L39,-144L47,-136L53,-141L62,-143L74,-154L87,-152L106,-152L110,-145L99,-143L89,-138L67,-135L47,-130L36,-120L40,-110L42,-99L33,-89L34,-80L29,-72L10,-72L18,-57L6,-51L-2,-38L-1,-24L-9,-18L-16,-20L-30,-17L-32,-11L-47,-11L-57,2L-58,20L-83,29L-96,28L-100,32L-111,30L-130,33L-162,22L-145,2L-146,-13L-161,-16L-162,-31L-168,-49L-160,-61L-168,-64L-163,-81L-156,-110L-136,-101L-122,-104L-118,-115L-103,-119L-92,-126L-88,-145L-72,-149L-69,-158L-60,-151Z" fill="#E0E0E0" stroke="#fff" stroke-width=".4"/><path d="M-30,-146L-19,-170L-23,-188L-37,-194L-32,-205L-16,-203L-7,-217L-1,-233L24,-239L20,-227L23,-220L31,-221L24,-213L3,-218L2,-203L22,-205L46,-197L82,-201L86,-178L93,-181L104,-175L104,-166L106,-152L87,-152L74,-154L62,-143L53,-141L47,-136L39,-144L41,-164L35,-165L37,-172L27,-178L19,-169L17,-160L14,-156L3,-157L-4,-146L-10,-150L-24,-143Z" fill="#E0E0E0" stroke="#fff" stroke-width=".4"/><path d="M30,-272L34,-284L47,-287L78,-278L81,-294L92,-299L119,-288L126,-291L157,-290L186,-287L195,-278L207,-274L204,-269L174,-255L167,-245L143,-242L136,-226L116,-229L103,-224L84,-212L87,-207L82,-201L46,-197L22,-205L2,-203L3,-218L24,-213L31,-221L46,-219L70,-237L47,-250L34,-244L20,-253L36,-270Z" fill="#E0E0E0" stroke="#fff" stroke-width=".4"/><path d="M-321,-260L-313,-268L-291,-274L-278,-267L-265,-247L-255,-248L-234,-248L-237,-261L-221,-270L-205,-285L-179,-271L-177,-251L-170,-246L-149,-247L-143,-242L-133,-216L-112,-199L-99,-188L-79,-176L-54,-165L-54,-151L-60,-151L-69,-158L-72,-149L-88,-145L-92,-126L-103,-119L-118,-115L-122,-104L-136,-101L-156,-110L-157,-130L-171,-131L-193,-152L-208,-155L-229,-167L-243,-169L-251,-164L-264,-165L-277,-151L-294,-147L-298,-164L-295,-189L-310,-197L-305,-214L-317,-216L-313,-237L-295,-231L-279,-239L-292,-254L-298,-269L-313,-262L-315,-243Z" fill="#E0E0E0" stroke="#fff" stroke-width=".4"/><path d="M-396,19L-407,8L-407,-4L-413,-4L-410,-20L-419,-37L-443,-49L-456,-71L-452,-89L-442,-97L-443,-111L-456,-118L-468,-146L-479,-165L-475,-173L-481,-201L-468,-208L-465,-199L-455,-187L-442,-184L-435,-185L-413,-203L-406,-205L-400,-197L-407,-185L-395,-173L-390,-174L-384,-156L-366,-151L-353,-139L-326,-135L-296,-141L-294,-147L-277,-151L-264,-165L-251,-164L-243,-169L-229,-167L-208,-155L-193,-152L-171,-131L-157,-130L-156,-110L-163,-81L-168,-64L-160,-61L-168,-49L-162,-31L-161,-16L-146,-13L-145,2L-162,22L-152,33L-145,46L-127,56L-126,75L-117,78L-115,88L-143,99L-150,124L-186,117L-207,112L-228,110L-236,84L-245,80L-260,84L-279,94L-302,87L-322,70L-340,64L-353,44L-367,15L-377,18L-389,11Z" fill="#E0E0E0" stroke="#fff" stroke-width=".4"/><path d="M236,473L233,493L225,498L209,503L200,488L196,460L205,429L218,439L227,453Z" fill="#E0E0E0" stroke="#fff" stroke-width=".4"/><path d="M763,264L747,258L747,241L756,232L777,226L788,227L792,234L784,243L779,255ZM207,-274L205,-289L218,-296L201,-342L239,-353L249,-359L262,-408L300,-399L311,-412L312,-440L327,-443L342,-462L349,-464L354,-444L370,-429L398,-418L411,-396L403,-364L410,-352L433,-347L458,-343L481,-327L493,-324L502,-300L513,-284L534,-285L573,-279L599,-282L617,-279L645,-263L668,-263L677,-255L699,-269L730,-278L758,-279L781,-288L794,-302L807,-311L804,-319L798,-330L808,-347L819,-344L839,-339L858,-353L887,-364L900,-382L914,-390L942,-393L957,-390L959,-400L941,-420L926,-429L911,-418L893,-423L882,-419L877,-431L890,-460L900,-482L923,-471L949,-489L949,-502L966,-535L977,-544L977,-562L966,-569L982,-585L1006,-590L1031,-591L1059,-582L1076,-570L1088,-539L1095,-526L1102,-507L1109,-478L1142,-469L1164,-448L1172,-421L1201,-421L1217,-432L1249,-441L1239,-415L1231,-405L1225,-374L1212,-348L1189,-353L1173,-343L1178,-320L1175,-289L1165,-289L1165,-276L1153,-291L1145,-276L1116,-265L1119,-252L1103,-253L1094,-261L1081,-243L1060,-229L1044,-213L1017,-206L1004,-194L983,-188L993,-199L989,-209L1004,-225L994,-239L978,-230L956,-212L944,-197L926,-195L916,-184L926,-167L942,-164L942,-153L957,-146L979,-163L995,-154L1008,-153L1011,-140L984,-134L975,-121L957,-109L947,-93L967,-80L975,-58L986,-37L999,-20L999,-3L987,3L992,15L1003,22L1000,39L995,56L984,58L970,82L955,110L937,135L911,154L885,171L863,174L852,183L845,176L834,186L808,197L788,200L781,221L771,222L766,208L770,200L745,193L736,197L716,191L707,183L710,171L693,167L684,159L668,171L649,173L634,173L624,178L614,181L617,204L607,204L605,199L604,190L590,196L582,193L568,185L574,168L561,164L557,145L537,148L539,123L557,106L558,88L557,72L549,67L543,54L532,56L511,52L518,43L509,30L495,39L479,34L457,48L440,64L425,66L416,60L406,60L393,55L382,60L370,76L368,59L356,64L334,62L313,57L297,47L283,43L276,33L265,30L246,15L231,9L223,14L197,-2L178,-16L173,-40L186,-37L187,-49L179,-61L181,-79L161,-106L130,-116L124,-134L110,-145L106,-152L104,-166L104,-175L93,-181L86,-178L82,-201L87,-207L84,-212L103,-224L116,-229L136,-226L143,-242L167,-245L174,-255L204,-269Z" fill="#E0E0E0" stroke="#fff" stroke-width=".4"/><path d="M997,138L985,171L977,188L967,171L965,155L976,135L991,119L1000,125Z" fill="#E0E0E0" stroke="#fff" stroke-width=".4"/><path d="M979,373L969,358L985,359L992,366L987,383ZM1012,426L1017,420L1019,408L1029,407L1026,420L1040,402L1039,420L1032,426L1026,439L1020,444L1008,431ZM1084,456L1086,469L1087,479L1081,497L1074,477L1065,487L1071,501L1066,510L1043,499L1038,485L1044,476L1032,467L1026,475L1017,474L1003,485L999,479L1007,463L1019,458L1029,451L1036,459L1050,454L1054,445L1067,445L1066,430L1081,439L1083,449ZM934,439L909,457L919,443L932,431L944,418L954,399L957,415L944,425ZM1007,264L1004,272L1011,286L1006,303L995,310L992,325L996,341L1006,343L1014,341L1038,352L1036,362L1042,367L1040,376L1026,367L1019,356L1014,364L1002,352L984,355L975,350L976,342L982,337L976,333L974,340L964,328L961,320L961,301L968,307L970,276L977,258L988,258L1000,264L1006,259ZM1002,398L999,389L1010,395L1022,395L1022,403L1013,411L1001,417L1000,408ZM1068,383L1073,405L1058,400L1059,407L1063,418L1054,423L1053,409L1048,408L1045,396L1056,398L1056,391L1044,376L1062,376Z" fill="#E0E0E0" stroke="#fff" stroke-width=".4"/><path d="M584,493L587,490L603,498L604,508L617,506L623,498L628,500L639,511L647,524L648,537L646,546L648,552L649,563L656,569L663,586L663,592L649,593L631,579L609,564L607,554L596,542L593,526L586,515L588,501ZM923,538L906,535L884,535L878,556L870,563L861,589L845,593L827,588L818,590L807,599L795,598L782,602L769,591L766,578L780,585L795,581L799,565L807,562L830,558L843,542L853,530L861,540L865,534L874,534L875,522L876,513L891,500L901,485L908,484L918,494L919,502L932,508L947,514L946,521L933,522L937,531Z" fill="#E0E0E0" stroke="#fff" stroke-width=".4"/></g><g clip-path="url(#v)"><path d="M374.2,185.5L374.2,183.5L374.1,181.7L372.7,176.9L371.6,174.4L371.8,173.6L371.7,173.3L371.3,170.0L370.7,168.1L370.3,165.9L371.8,162.9L371.2,162.4L369.5,162.0L367.9,161.5L367.5,160.7L368.2,157.8L367.4,156.6L366.2,155.4L365.9,154.9L365.5,154.3L364.9,152.8L366.0,149.7L367.5,146.0L367.7,144.6L368.0,142.2L368.1,141.2L367.9,140.3L366.4,139.3L363.6,138.8L361.7,137.9L360.5,136.6L359.6,136.0L358.4,136.4L356.9,135.9L355.7,134.6L354.6,132.9L354.7,132.2L355.0,131.2L357.0,126.9L357.7,126.8L359.4,127.6L360.1,127.6L361.2,126.0L362.8,121.2L365.1,121.2L367.0,121.4L368.3,121.6L369.7,121.4L371.1,121.0L371.8,120.5L372.3,119.7L372.1,119.0L370.4,118.1L369.8,117.5L369.3,115.6L368.8,114.8L365.5,114.7L363.7,113.8L362.7,113.1L361.1,110.4L359.0,108.5L357.0,108.0L356.2,107.4L355.7,106.4L356.0,105.0L356.6,103.7L357.0,102.2L358.6,100.3L360.5,98.6L361.4,97.5L362.5,96.2L362.7,95.5L362.5,94.8L361.5,94.1L360.8,93.8L360.7,93.4L361.2,92.1L362.1,91.9L364.0,93.1L366.0,94.9L367.1,96.6L367.1,97.9L367.9,98.1L368.6,98.1L369.9,98.7L371.2,98.5L372.0,98.9L372.6,98.7L372.8,98.0L372.2,96.9L371.7,96.1L372.3,95.3L372.9,95.2L373.6,95.4L374.4,96.1L375.1,97.5L375.3,99.8L376.7,101.8L378.7,103.3L380.2,103.9L382.0,104.4L383.6,103.9L384.4,102.5L384.1,101.3L384.3,100.1L384.9,99.5L386.0,99.5L386.7,100.4L388.8,105.3L388.4,107.5L388.9,113.4L388.3,117.2L388.4,118.1L388.7,118.7L389.0,119.0L389.6,119.0L392.3,119.7L394.4,120.5L397.0,121.3L400.5,121.8L402.7,121.6L403.9,121.6L406.1,121.8L412.0,121.5L416.8,121.4L418.8,122.0L420.3,122.2L425.7,121.8L431.2,121.6L434.2,122.8L437.4,124.8L439.2,126.3L439.5,127.2L439.3,127.9L438.7,128.3L437.6,128.3L435.1,127.3L434.6,127.6L434.6,129.6L434.6,129.9L434.0,131.7L432.5,135.7L432.2,137.5L431.8,138.0L431.5,138.2L430.3,138.3L429.3,138.6L429.0,139.3L428.3,140.6L427.9,142.0L427.3,142.4L425.9,141.7L425.1,141.8L424.0,142.1L422.9,142.8L422.1,143.8L421.2,144.1L418.7,144.0L418.2,144.1L417.9,144.8L417.6,145.7L415.6,147.7L414.9,151.0L414.3,153.1L414.4,154.8L416.1,159.0L417.2,164.6L417.7,165.2L418.1,165.4L418.2,165.3L418.2,164.1L418.3,162.7L418.8,162.4L419.5,162.6L420.2,163.9L420.9,166.1L421.8,167.0L423.0,167.2L424.4,166.7L425.5,165.7L425.9,164.6L425.7,162.5L425.6,160.8L426.2,159.3L428.7,157.0L429.1,156.3L428.9,154.4L428.9,152.6L429.9,152.5L431.1,152.7L432.7,151.8L433.1,151.8L433.8,152.8L434.9,152.6L435.7,156.6L436.6,160.1L436.6,161.8L436.8,165.3L437.1,168.2L437.7,168.9L438.4,170.5L439.1,172.3L439.6,173.3L439.9,176.6L440.4,178.9L440.9,186.4L441.2,187.8L441.4,188.6L441.4,195.4L441.6,198.3L442.1,200.7L442.2,201.6L441.6,202.3L441.1,202.5L440.5,201.3L439.2,200.4L437.3,199.5L436.6,198.8L435.5,199.1L434.2,200.5L433.7,201.9L433.9,203.7L434.3,205.5L435.3,206.6L435.3,207.7L435.7,209.2L436.2,210.6L436.4,212.1L436.1,212.1L435.0,210.2L434.0,208.2L431.3,204.3L430.5,197.3L430.4,193.8L428.6,189.8L427.4,184.2L426.9,182.7L427.5,180.9L427.7,180.2L427.3,180.3L426.4,181.3L425.2,179.0L424.4,177.0L421.3,172.8L420.4,171.0L420.3,169.2L419.0,171.0L417.2,172.3L415.3,174.2L414.1,174.8L410.2,175.1L407.9,172.5L404.7,166.3L404.2,164.8L404.6,161.1L403.9,157.6L403.9,155.8L403.7,154.5L403.1,154.8L402.9,155.7L403.0,157.0L402.8,158.1L400.0,157.9L397.3,157.4L399.6,159.2L402.1,159.6L403.4,161.3L403.6,162.6L403.6,164.0L402.3,165.0L401.1,165.7L401.3,167.1L402.7,168.7L400.9,169.2L400.5,170.4L400.5,171.9L401.4,173.3L401.7,174.3L401.5,175.3L402.3,176.3L403.6,178.4L403.9,179.9L403.4,182.1L402.7,182.9L401.6,183.7L399.0,186.4L397.7,189.5L396.6,190.9L395.2,191.1L394.7,190.5L393.6,189.7L393.6,188.2L393.9,187.0L396.2,184.2L394.9,184.5L393.5,185.4L391.4,186.9L390.6,185.0L390.2,183.2L390.2,181.1L391.9,177.8L389.9,179.4L389.4,181.4L389.6,183.8L389.4,185.5L388.6,187.7L387.6,189.0L385.9,189.9L385.1,191.2L384.0,192.2L384.0,190.2L383.6,187.7L382.4,181.7L382.1,183.0L382.7,186.7L382.7,189.1L381.8,191.1L379.9,193.1L378.5,193.4L377.7,193.1L376.4,191.8L375.0,190.0L374.7,187.1ZM414.1,183.8L412.0,185.2L412.7,176.7L414.2,179.9L414.6,181.6ZM421.8,179.5L420.9,180.1L420.1,179.6L419.0,177.6L419.6,175.1L419.9,174.7L420.4,175.5L421.2,177.3L421.6,178.7ZM407.0,185.5L403.7,186.3L402.0,186.0L405.1,180.7L405.1,178.2L404.6,176.3L402.9,174.7L402.9,173.5L402.1,172.0L401.8,170.2L403.6,169.6L405.0,170.6L405.2,171.2L405.5,172.7L406.2,174.3L408.7,177.4L408.7,179.4L408.0,184.1ZM427.9,190.8L427.2,192.5L426.8,191.3L427.1,189.7L427.4,188.9L427.6,188.9L428.0,189.8ZM429.3,197.5L428.1,197.6L427.6,197.0L427.9,196.1L427.5,193.3L428.5,193.1L429.0,193.1L429.3,193.9L429.5,195.4ZM404.4,167.6L404.7,168.5L403.7,167.9L402.9,167.3L402.4,166.5L403.2,166.1Z" fill="#4ECDC4" stroke="#2C3E50" stroke-width="1"/></g><circle cx="400.0" cy="150.0" r="4" fill="#E74C3C" stroke="#fff" stroke-width="2"/><text x="400.0" y="140.0" text-anchor="middle" font-family="sans-serif" font-weight="700" font-size="10" fill="#2D3436">Dhaka</text></svg>