<svg viewBox="0 0 800 300" xmlns="http://www.w3.org/2000/svg"><defs><clipPath id="v"><rect width="800" height="300"/></clipPath></defs><rect width="800" height="300" fill="#DCEEF8"/><g clip-path="url(#v)"><path d="M-1798,2311L-1821,2347L-1833,2376L-1848,2391L-1867,2394L-1872,2383L-1881,2381L-1893,2392L-1910,2384L-1900,2367L-1897,2349L-1890,2332L-1905,2309L-1908,2282L-1888,2248L-1874,2252L-1846,2262L-1804,2295ZM472,235L491,251L547,262L527,302L522,344L511,354L494,349L495,363L466,396L466,422L484,413L498,438L496,454L508,475L494,491L504,534L526,541L521,565L485,595L408,581L351,598L346,630L301,637L257,613L243,625L170,600L155,579L175,547L183,436L142,376L113,347L53,325L49,282L100,269L166,284L153,216L191,242L282,195L294,144L328,131L334,153L352,154L370,179L397,208L418,203L452,231L461,236ZM572,622L598,602L604,647L591,688L574,677L565,642Z" fill="#E0E0E0" stroke="#fff" stroke-width=".4"/><path d="M662,-398L679,-442L712,-495L725,-590L700,-631L697,-744L723,-827L762,-825L775,-861L761,-892L822,-1025L861,-1136L887,-1209L925,-1209L935,-1268L1009,-1251L1015,-1322L1039,-1326L1092,-1273L1153,-1201L1154,-1045L1167,-1007L1100,-980L1062,-914L1068,-858L1005,-786L930,-711L901,-594L929,-537L966,-493L930,-405L890,-388L875,-264L852,-197L805,-204L783,-148L737,-145L725,-211L692,-293Z" fill="#E0E0E0" stroke="#fff" stroke-width=".4"/><path d="M1151,-47L1152,-18L1163,7L1163,33L1140,46L1152,76L1152,104L1172,159L1168,176L1148,183L1113,234L1123,261L1114,258L1077,234L1049,243L1030,237L1007,250L987,228L971,237L969,233L951,203L922,199L918,180L891,173L885,189L864,176L866,159L837,154L819,134L802,94L806,72L796,37L782,14L792,-3L783,-37L810,-56L871,-87L921,-110L960,-99L963,-82L1001,-81L1049,-74L1121,-75L1141,-68Z" fill="#E0E0E0" stroke="#fff" stroke-width=".4"/><path d="M896,315L893,339L871,339L878,351L865,389L858,398L823,400L803,413L771,408L715,393L706,373L667,383L663,394L639,386L619,385L601,374L607,360L606,350L618,347L637,363L643,347L678,350L706,339L724,341L737,353L740,343L735,305L749,297L763,270L792,289L814,265L828,260L858,279L877,276L895,287L892,294Z" fill="#E0E0E0" stroke="#fff" stroke-width=".4"/><path d="M1096,297L1118,313L1120,329L1096,341L1078,380L1054,419L1023,430L998,427L968,442L953,451L921,440L892,416L879,408L872,389L865,389L878,351L871,339L893,339L896,315L915,330L930,336L963,329L966,317L982,315L1001,306L1005,310L1023,303L1033,289L1046,285L1087,303Z" fill="#E0E0E0" stroke="#fff" stroke-width=".4"/><path d="M783,-37L792,-3L782,14L796,37L806,72L802,94L819,134L801,141L791,133L781,145L753,157L738,173L709,186L716,204L721,230L741,244L763,270L749,297L735,305L740,343L737,353L724,341L706,339L678,350L643,347L637,363L618,347L606,350L564,332L556,345L522,344L527,302L547,262L491,251L472,235L474,208L466,195L471,153L464,87L488,87L498,63L508,4L500,-18L508,-32L541,-36L548,-21L575,-54L566,-79L564,-118L594,-109L619,-119L619,-93L659,-77L659,-53L698,-66L721,-84L765,-58Z" fill="#E0E0E0" stroke="#fff" stroke-width=".4"/><path d="M879,408L892,416L921,440L953,451L968,442L978,464L990,480L975,501L957,488L930,489L896,480L878,481L870,493L856,480L847,503L866,529L875,546L893,566L908,578L923,601L958,621L953,630L916,610L894,591L858,575L825,535L833,531L815,508L814,489L789,480L777,504L765,485L766,466L767,465L795,467L802,458L815,467L831,468L831,452L844,446L848,424Z" fill="#E0E0E0" stroke="#fff" stroke-width=".4"/><path d="M606,350L607,360L601,374L619,385L639,386L636,410L619,419L590,412L581,435L562,437L556,428L534,447L515,450L498,438L484,413L466,422L466,396L495,363L494,349L511,354L522,344L556,345L564,332Z" fill="#E0E0E0" stroke="#fff" stroke-width=".4"/><path d="M466,195L474,208L472,235L461,236L452,231L456,197Z" fill="#E0E0E0" stroke="#fff" stroke-width=".4"/><path d="M500,-18L508,4L498,63L488,87L464,87L471,153L449,138L424,111L388,124L359,119L380,102L414,7L468,-20Z" fill="#E0E0E0" stroke="#fff" stroke-width=".4"/><path d="M-14,-44L-7,3L-37,61L-107,99L-162,89L-130,22L-151,-45L-97,-98L-68,-129L-60,-93L-68,-57L-43,-58Z" fill="#E0E0E0" stroke="#fff" stroke-width=".4"/><path d="M639,386L663,394L667,383L706,373L715,393L771,408L767,436L776,460L745,452L713,472L715,499L710,515L723,543L760,570L780,615L823,658L854,657L864,669L853,680L888,698L917,714L950,741L954,751L947,769L925,745L891,737L875,770L903,789L898,815L882,818L861,861L845,865L845,850L853,823L861,812L846,783L834,757L818,750L806,728L781,719L764,698L735,695L704,671L668,637L642,606L630,552L610,546L578,528L560,535L537,561L521,565L526,541L504,534L494,491L508,475L496,454L498,438L515,450L534,447L556,428L562,437L581,435L590,412L619,419L636,410ZM809,853L838,849L824,888L830,903L822,928L792,910L772,905L717,880L722,854L768,859ZM571,713L591,697L614,734L609,801L591,798L575,815L560,802L559,740L549,710Z" fill="#E0E0E0" stroke="#fff" stroke-width=".4"/><path d="M619,-119L594,-109L564,-118L548,-156L547,-228L553,-247L565,-269L599,-273L613,-293L644,-314L643,-276L632,-253L636,-233L658,-222L648,-195L636,-203L608,-153ZM715,-197L727,-162L704,-107L663,-145L657,-174Z" fill="#E0E0E0" stroke="#fff" stroke-width=".4"/><path d="M-14,-44L-43,-58L-68,-57L-60,-93L-68,-129L-35,-132L7,-90ZM108,-13L108,-13L114,-52L87,-93L87,-94L39,-106L30,-125L44,-155L31,-175L10,-142L8,-209L-12,-245L2,-320L33,-381L64,-375L111,-381L70,-301L109,-311L152,-311L142,-251L107,-188L147,-183L151,-176L186,-95L212,-84L237,-8L248,18L295,30L291,71L271,90L286,123L251,155L198,155L132,172L113,160L87,188L51,181L24,205L3,193L60,128L95,114L95,114L34,103L23,78L64,58L42,24L50,-19Z" fill="#E0E0E0" stroke="#fff" stroke-width=".4"/><path d="M771,408L803,413L823,400L858,398L865,389L872,389L879,408L848,424L844,446L831,452L831,468L815,467L802,458L795,467L767,465L776,460L767,436Z" fill="#E0E0E0" stroke="#fff" stroke-width=".4"/><path d="M1114,258L1104,273L1096,297L1087,303L1046,285L1033,289L1023,303L1005,310L1001,306L982,315L966,317L963,329L930,336L915,330L896,315L892,294L895,287L900,274L918,275L931,269L932,263L940,260L942,247L951,244L957,233L969,233L971,237L987,228L1007,250L1030,237L1049,243L1077,234Z" fill="#E0E0E0" stroke="#fff" stroke-width=".4"/><path d="M819,134L837,154L866,159L864,176L885,189L891,173L918,180L922,199L951,203L969,233L957,233L951,244L942,247L940,260L932,263L931,269L918,275L900,274L895,287L877,276L858,279L828,260L814,265L792,289L763,270L741,244L721,230L716,204L709,186L738,173L753,157L781,145L791,133L801,141Z" fill="#E0E0E0" stroke="#fff" stroke-width=".4"/><path d="M958,621L923,601L908,578L893,566L875,546L866,529L847,503L856,480L870,493L878,481L896,480L930,489L957,488L975,501L989,501L979,525L998,546L993,571L983,574L976,579L963,591Z" fill="#E0E0E0" stroke="#fff" stroke-width=".4"/><path d="M968,442L998,427L1023,430L1044,452L1048,470L1072,483L1075,506L1098,522L1111,509L1120,516L1111,526L1118,535L1109,548L1112,567L1131,591L1116,608L1110,625L1114,631L1107,638L1089,639L1076,642L1075,638L1079,632L1084,619L1078,619L1071,609L1064,607L1059,598L1052,595L1046,587L1039,590L1034,608L1024,612L1027,608L1012,596L999,591L994,583L983,574L993,571L998,546L979,525L989,501L975,501L990,480L978,464Z" fill="#E0E0E0" stroke="#fff" stroke-width=".4"/></g><g clip-path="url(#v)"><path d="M395.1,116.5L398.2,118.0L400.9,118.3L402.1,117.7L401.3,113.9L403.6,111.9L406.0,110.9L407.1,112.5L409.3,114.2L411.2,114.3L416.0,109.9L417.0,110.8L418.1,112.3L418.2,113.5L418.5,114.8L419.5,115.4L423.3,115.2L425.2,112.8L426.7,111.2L427.9,112.3L428.4,115.2L429.4,119.0L433.9,123.2L437.7,124.4L442.4,123.6L444.2,122.8L445.5,123.5L446.6,125.7L449.3,128.2L455.0,130.1L456.8,131.1L457.9,132.8L457.7,135.3L455.0,141.4L454.5,143.2L455.0,143.7L454.4,144.9L450.9,148.9L450.6,150.4L451.7,152.7L452.7,154.6L454.8,155.6L456.8,155.9L460.5,156.0L464.4,156.1L465.0,157.3L469.4,160.6L470.8,163.1L474.0,165.7L471.4,168.8L471.8,170.3L472.8,171.7L476.3,172.6L478.1,174.6L478.3,177.8L479.0,182.9L471.6,188.2L469.5,193.8L469.4,195.0L469.1,194.8L468.2,192.9L466.8,192.9L463.9,192.1L459.5,197.3L457.5,201.5L456.4,204.7L454.7,207.3L454.4,209.9L454.5,211.1L454.0,212.5L454.0,214.0L456.4,217.0L457.1,218.7L460.1,223.9L459.1,225.9L458.4,227.9L457.5,229.5L456.5,230.4L453.4,230.3L449.5,231.0L446.8,232.0L445.4,232.0L442.5,229.4L439.4,225.5L437.3,223.6L436.5,221.9L433.9,221.3L430.4,219.3L427.9,217.2L425.7,215.8L422.8,215.2L420.4,215.3L419.5,211.7L419.2,207.6L417.3,204.8L420.1,194.0L418.4,192.9L416.6,193.8L414.0,196.5L412.7,199.5L412.0,202.2L407.7,204.7L400.7,205.7L393.2,204.7L392.1,204.1L391.7,203.3L391.7,202.4L392.1,200.9L393.5,199.1L393.8,196.6L392.4,194.4L391.6,193.6L392.0,191.5L393.0,188.8L393.1,187.3L388.0,182.6L384.3,181.8L380.7,181.7L378.0,181.1L376.4,181.3L375.3,182.6L374.0,183.6L373.2,182.4L371.6,174.3L370.4,173.1L365.7,171.7L359.5,171.2L357.8,169.7L356.8,166.0L356.2,161.6L354.1,157.3L353.1,156.3L351.3,154.4L347.9,155.2L343.9,157.7L341.7,158.3L340.7,158.6L337.6,156.1L334.1,152.4L331.2,148.4L330.5,146.1L331.4,143.4L330.4,141.4L328.8,137.6L328.4,134.6L345.5,124.1L355.8,118.7L360.8,117.0L361.9,122.5L362.9,124.2L364.0,125.3L365.6,125.5L367.3,124.2L369.8,122.8L373.8,123.5L376.7,124.8L377.7,126.1L379.7,127.4L382.4,127.7L387.9,125.2L393.1,121.5L394.5,118.9Z" fill="#4ECDC4" stroke="#2C3E50" stroke-width="1"/></g><circle cx="400.0" cy="150.0" r="4" fill="#E74C3C" stroke="#fff" stroke-width="2"/><text x="400.0" y="140.0" text-anchor="middle" font-family="sans-serif" font-weight="700" font-size="10" fill="#2D3436">Brussels</text></svg>