<svg viewBox="0 0 800 300" xmlns="http://www.w3.org/2000/svg"><defs><clipPath id="v"><rect width="800" height="300"/></clipPath></defs><rect width="800" height="300" fill="#DCEEF8"/><g clip-path="url(#v)"><path d="M248,-197L248,-196L248,-191L247,-155L178,-156L178,-96L158,-94L153,-82L157,-49L74,-50L69,-42L70,-52L71,-51L119,-53L121,-62L130,-72L137,-104L166,-129L176,-159L183,-160L190,-179L208,-181L216,-178L225,-178L232,-184L245,-185L245,-197Z" fill="#E0E0E0" stroke="#fff" stroke-width=".4"/><path d="M1057,511L1060,531L1058,542L1063,554L1075,566L1086,593L1078,591L1049,595L1044,597L1038,611L1042,621L1039,646L1036,668L1042,672L1057,680L1062,676L1064,700L1048,700L1039,688L1031,678L1015,675L1010,664L997,671L980,668L973,658L960,656L950,656L948,650L941,649L931,648L918,651L909,651L904,653L905,627L898,619L896,606L899,593L895,584L895,571L869,571L871,563L860,563L859,567L845,568L840,580L837,586L825,583L818,586L804,587L796,576L791,569L785,556L780,541L717,540L709,543L703,542L694,545L691,539L697,536L698,527L701,522L709,517L714,519L722,511L733,511L735,517L743,521L755,508L767,497L773,491L772,473L781,452L791,441L805,431L808,424L808,416L812,409L811,397L813,378L817,365L824,354L825,341L827,326L835,315L847,308L864,315L878,323L893,325L909,329L915,317L918,315L928,317L952,306L960,311L967,310L970,305L978,303L994,306L1008,306L1015,304L1028,321L1037,324L1043,320L1053,322L1065,317L1070,326L1088,341L1087,365L1096,368L1089,376L1081,382L1072,393L1068,403L1067,420L1062,428L1062,444L1056,450L1055,462L1052,464L1050,476L1055,485Z" fill="#E0E0E0" stroke="#fff" stroke-width=".4"/><path d="M955,240L939,230L931,224L930,217L934,208L933,199L921,186L919,177L919,171L911,165L911,152L907,144L899,145L901,137L907,128L904,119L911,112L907,107L912,94L922,77L941,79L939,-10L940,-19L964,-19L964,-65L1050,-65L1132,-65L1217,-65L1224,-42L1219,-38L1222,-15L1230,12L1238,18L1250,26L1239,39L1223,42L1216,49L1214,64L1205,96L1207,105L1204,124L1195,145L1183,156L1173,173L1171,182L1161,188L1155,210L1155,230L1155,213L1152,213L1152,202L1150,194L1139,186L1136,170L1139,154L1129,153L1128,158L1115,159L1120,165L1122,178L1110,190L1099,205L1088,208L1071,195L1063,200L1060,206L1049,210L1049,214L1027,214L1025,210L1009,209L1002,213L996,211L985,198L981,193L966,195L960,205L954,225L947,229L941,231Z" fill="#E0E0E0" stroke="#fff" stroke-width=".4"/><path d="M939,-10L941,79L922,77L912,94L907,107L911,112L904,119L907,128L901,137L899,145L907,144L911,152L911,165L919,171L919,177L905,180L895,189L879,213L859,223L839,221L833,223L835,231L824,238L815,247L788,255L782,250L779,250L775,255L757,257L761,251L754,236L751,227L742,224L729,211L734,201L744,203L750,202L761,202L750,182L751,168L749,153L741,139L743,129L729,129L729,114L720,106L730,77L757,56L758,27L766,-18L771,-28L762,-36L761,-43L754,-49L748,-85L770,-97L855,-53Z" fill="#E0E0E0" stroke="#fff" stroke-width=".4"/><path d="M-667,327L-679,346L-686,362L-694,370L-704,372L-707,366L-712,365L-718,370L-728,366L-722,357L-720,347L-717,338L-725,326L-727,311L-716,293L-708,295L-693,300L-670,318ZM564,-799L574,-791L605,-785L594,-763L591,-740L585,-735L576,-737L576,-729L561,-712L560,-698L571,-703L578,-689L577,-681L583,-669L576,-660L581,-637L593,-633L591,-620L571,-604L529,-612L498,-602L496,-585L471,-581L447,-594L440,-588L400,-601L392,-612L403,-630L407,-690L385,-722L369,-738L337,-750L335,-774L362,-781L398,-773L391,-809L411,-795L461,-821L467,-848L486,-855L489,-843L499,-843L509,-829L524,-814L534,-816L553,-801L558,-798ZM618,-589L632,-600L636,-575L629,-553L619,-559L614,-579Z" fill="#E0E0E0" stroke="#fff" stroke-width=".4"/><path d="M77,123L68,106L57,98L67,94L77,79L82,67L89,60L100,62L110,57L122,57L132,64L146,69L159,86L173,101L174,114L179,127L187,133L188,142L187,148L184,150L173,148L171,150L166,151L151,146L141,145L102,144L96,147L89,146L78,150L74,133L93,133L99,130L102,130L110,125L119,130L129,130L138,125L134,119L126,123L120,122L111,117L105,117L100,123Z" fill="#E0E0E0" stroke="#fff" stroke-width=".4"/><path d="M187,148L188,142L187,133L179,127L174,114L173,101L181,97L184,84L191,83L206,89L218,85L226,87L229,82L315,81L319,66L316,63L305,-34L295,-133L328,-134L399,-83L471,-33L476,-22L489,-16L499,-12L500,2L523,-0L523,51L512,66L510,80L491,83L462,85L454,93L440,94L427,94L421,90L410,93L390,102L386,109L369,119L366,124L357,129L347,126L341,131L338,146L321,164L322,172L316,181L317,193L309,197L304,199L300,190L294,193L291,192L287,198L270,198L264,195L261,197L255,191L256,184L253,182L249,184L250,177L254,171L245,162L243,156L238,151L234,151L229,154L222,157L216,161L207,160L201,154L198,153L192,156L189,156Z" fill="#E0E0E0" stroke="#fff" stroke-width=".4"/><path d="M69,-42L74,-50L157,-49L153,-82L158,-94L178,-96L178,-156L247,-155L248,-191L328,-134L295,-133L305,-34L316,63L319,66L315,81L229,82L226,87L218,85L206,89L191,83L184,84L181,97L173,101L159,86L146,69L132,64L122,57L110,57L100,62L89,60L82,67L80,55L86,44L89,23L86,1L84,-10L86,-21L81,-32Z" fill="#E0E0E0" stroke="#fff" stroke-width=".4"/><path d="M490,282L472,284L467,270L468,220L463,216L463,205L455,198L449,191L451,180L459,177L463,168L474,166L478,159L485,153L493,153L509,165L508,173L513,186L509,194L511,200L501,213L494,220L490,234L491,247Z" fill="#E0E0E0" stroke="#fff" stroke-width=".4"/><path d="M748,-85L754,-49L761,-43L762,-36L771,-28L766,-18L758,27L757,56L730,77L720,106L729,114L729,129L743,129L741,139L735,141L734,148L730,148L716,124L711,123L694,135L678,129L666,128L660,131L648,130L635,140L624,140L598,129L588,134L577,134L569,126L548,117L525,120L520,125L517,137L511,146L509,165L493,153L485,153L478,159L479,144L454,139L453,129L441,115L439,105L440,94L454,93L462,85L491,83L510,80L512,66L523,51L523,-0L553,-10L615,-55L688,-99L721,-89L733,-76Z" fill="#E0E0E0" stroke="#fff" stroke-width=".4"/><path d="M490,282L491,247L490,234L494,220L501,213L511,200L509,194L513,186L508,173L509,165L511,146L517,137L520,125L525,120L548,117L569,126L577,134L588,134L598,129L624,140L635,140L648,130L660,131L666,128L678,129L694,135L711,123L716,124L730,148L734,148L743,156L740,160L739,167L721,184L715,198L712,209L708,214L704,229L692,238L689,249L684,257L682,266L668,274L656,265L648,265L635,278L629,278L619,298L613,314L591,321L583,320L575,325L558,324L546,311L539,296L524,282L508,282Z" fill="#E0E0E0" stroke="#fff" stroke-width=".4"/><path d="M741,139L749,153L751,168L750,182L761,202L750,202L744,203L734,201L729,211L742,224L751,227L754,236L761,251L757,257L747,279L742,282L740,299L742,308L740,314L750,326L752,333L760,344L770,351L771,361L773,367L771,378L755,373L737,368L711,367L708,366L695,369L682,366L672,367L638,367L641,350L632,336L623,332L618,323L613,319L613,314L619,298L629,278L635,278L648,265L656,265L668,274L682,266L684,257L689,249L692,238L704,229L708,214L712,209L715,198L721,184L739,167L740,160L743,156L734,148L735,141Z" fill="#E0E0E0" stroke="#fff" stroke-width=".4"/><path d="M451,180L449,191L455,198L463,205L463,216L468,220L467,270L472,284L455,289L450,281L444,268L443,257L447,238L442,230L440,213L440,197L431,186L433,179Z" fill="#E0E0E0" stroke="#fff" stroke-width=".4"/><path d="M433,179L431,186L440,197L440,213L442,230L447,238L443,257L444,268L450,281L455,289L422,301L410,309L391,315L372,309L373,300L363,282L369,258L378,240L372,209L369,193L370,181L407,180L416,181L423,178Z" fill="#E0E0E0" stroke="#fff" stroke-width=".4"/><path d="M261,197L264,195L270,198L287,198L291,192L294,193L300,190L304,199L309,197L317,193L327,198L331,205L340,210L348,204L358,204L372,209L378,240L369,258L363,282L373,300L372,309L362,309L347,305L333,305L308,309L293,315L272,323L268,322L270,305L272,302L271,294L262,285L256,283L249,277L254,268L252,257L253,251L256,251L257,242L256,238L258,235L266,232L260,215L256,206L257,199Z" fill="#E0E0E0" stroke="#fff" stroke-width=".4"/><path d="M141,145L151,146L166,151L171,150L173,148L184,150L187,148L189,156L192,156L198,153L201,154L207,160L216,161L222,157L229,154L234,151L238,151L243,156L245,162L254,171L250,177L249,184L253,182L256,184L255,191L261,197L257,199L256,206L260,215L266,232L258,235L256,238L257,242L256,251L253,251L247,251L242,259L236,259L232,255L234,246L225,233L219,235L215,236L209,237L209,229L206,223L206,217L202,208L196,200L179,200L174,204L168,205L164,210L162,216L151,225L141,212L133,204L127,201L122,197L120,187L117,182L110,179L120,168L126,169L132,165L137,165L140,162L138,155L140,153Z" fill="#E0E0E0" stroke="#fff" stroke-width=".4"/><path d="M78,150L89,146L96,147L102,144L141,145L140,153L138,155L140,162L137,165L132,165L126,169L120,168L110,179L99,170L90,168L85,162L85,159L79,154Z" fill="#E0E0E0" stroke="#fff" stroke-width=".4"/><path d="M253,251L252,257L254,268L249,277L256,283L262,285L271,294L272,302L270,305L268,322L263,322L241,312L221,296L203,284L189,271L194,264L195,257L205,246L215,236L219,235L225,233L234,246L232,255L236,259L242,259L247,251Z" fill="#E0E0E0" stroke="#fff" stroke-width=".4"/><path d="M151,225L162,216L164,210L168,205L174,204L179,200L196,200L202,208L206,217L206,223L209,229L209,237L215,236L205,246L195,257L194,264L189,271L183,269L168,260L157,249L153,241Z" fill="#E0E0E0" stroke="#fff" stroke-width=".4"/><path d="M1015,304L1008,306L994,306L978,303L970,305L967,310L960,311L952,306L928,317L918,315L915,317L909,329L893,325L878,323L864,315L847,308L835,315L827,326L825,341L811,339L797,336L784,347L773,367L771,361L770,351L760,344L752,333L750,326L740,314L742,308L740,299L742,282L747,279L757,257L775,255L779,250L782,250L788,255L815,247L824,238L835,231L833,223L839,221L859,223L879,213L895,189L905,180L919,177L921,186L933,199L934,208L930,217L931,224L939,230L955,240L967,248L967,255L981,266L990,276L995,289L1011,297Z" fill="#E0E0E0" stroke="#fff" stroke-width=".4"/><path d="M825,341L824,354L817,365L813,378L811,397L812,409L808,416L808,424L805,431L791,441L781,452L772,473L773,491L767,497L755,508L743,521L735,517L733,511L722,511L714,519L709,517L701,510L694,513L686,523L668,500L685,488L677,474L684,469L698,466L700,457L711,467L730,468L737,458L739,444L737,427L727,414L736,390L731,386L715,387L709,376L711,367L737,368L755,373L771,378L773,367L784,347L797,336L811,339Z" fill="#E0E0E0" stroke="#fff" stroke-width=".4"/><path d="M672,367L682,366L695,369L708,366L711,367L709,376L715,387L731,386L736,390L727,414L737,427L739,444L737,458L730,468L711,467L700,457L698,466L684,469L677,474L685,488L668,500L647,478L632,461L619,439L620,432L625,425L630,410L634,394L641,393L672,393Z" fill="#E0E0E0" stroke="#fff" stroke-width=".4"/><path d="M638,367L672,367L672,393L641,393L634,394L630,391Z" fill="#E0E0E0" stroke="#fff" stroke-width=".4"/><path d="M77,123L100,123L105,117L111,117L120,122L126,123L134,119L138,125L129,130L119,130L110,125L102,130L99,130L93,133L74,133Z" fill="#E0E0E0" stroke="#fff" stroke-width=".4"/><path d="M248,-191L248,-196L248,-197L248,-226L282,-244L303,-248L321,-254L329,-267L354,-276L355,-295L367,-297L377,-306L404,-311L408,-320L403,-326L395,-353L394,-368L386,-385L407,-399L430,-404L443,-415L464,-423L500,-427L535,-430L546,-426L566,-436L588,-436L597,-430L612,-432L607,-418L611,-393L606,-372L592,-357L594,-338L612,-323L612,-317L625,-307L634,-262L641,-240L642,-229L638,-209L640,-198L637,-185L639,-170L631,-160L643,-143L644,-133L652,-120L662,-124L678,-113L688,-99L615,-55L553,-10L523,-0L500,2L499,-12L489,-16L476,-22L471,-33L399,-83L328,-134Z" fill="#E0E0E0" stroke="#fff" stroke-width=".4"/><path d="M386,-385L394,-368L395,-353L403,-326L408,-320L404,-311L377,-306L367,-297L355,-295L354,-276L329,-267L321,-254L303,-248L282,-244L248,-226L248,-197L245,-197L245,-185L232,-184L225,-178L216,-178L208,-181L190,-179L183,-160L176,-159L166,-129L137,-104L130,-72L121,-62L119,-53L71,-51L70,-52L71,-62L79,-68L86,-80L85,-88L92,-105L104,-119L111,-123L117,-137L117,-149L125,-164L139,-173L153,-197L153,-197L164,-207L184,-209L200,-226L211,-232L229,-253L224,-283L232,-305L234,-318L248,-335L269,-347L285,-358L299,-384L306,-400L322,-400L335,-389L355,-391L377,-385Z" fill="#E0E0E0" stroke="#fff" stroke-width=".4"/><path d="M1217,-65L1132,-65L1050,-65L964,-65L964,-150L964,-236L958,-255L963,-271L960,-281L968,-293L996,-294L1017,-287L1038,-280L1047,-276L1064,-284L1073,-291L1091,-293L1107,-290L1112,-277L1117,-286L1134,-280L1151,-278L1161,-285L1173,-248L1175,-242L1169,-232L1165,-214L1159,-201L1154,-197L1147,-205L1137,-216L1122,-251L1120,-248L1129,-223L1142,-198L1158,-161L1166,-148L1173,-135L1192,-109L1188,-105L1188,-90L1213,-69Z" fill="#E0E0E0" stroke="#fff" stroke-width=".4"/><path d="M964,-65L964,-19L940,-19L939,-10L855,-53L770,-97L748,-85L733,-76L721,-89L688,-99L678,-113L662,-124L652,-120L644,-133L643,-143L631,-160L639,-170L637,-185L640,-198L638,-209L642,-229L641,-240L634,-262L644,-268L646,-278L644,-288L659,-298L665,-306L676,-313L677,-333L702,-324L711,-326L728,-322L757,-311L767,-288L786,-284L816,-273L838,-261L849,-267L859,-279L854,-298L861,-310L876,-322L891,-325L919,-320L927,-309L935,-309L941,-304L963,-301L968,-293L960,-281L963,-271L958,-255L964,-236L964,-150Z" fill="#E0E0E0" stroke="#fff" stroke-width=".4"/><path d="M1088,341L1070,326L1065,317L1053,322L1043,320L1037,324L1028,321L1015,304L1011,297L995,289L990,276L981,266L967,255L967,248L955,240L941,231L947,229L954,225L960,205L966,195L981,193L985,198L996,211L1002,213L1009,209L1025,210L1027,214L1049,214L1049,210L1060,206L1063,200L1071,195L1088,208L1099,205L1110,190L1122,178L1120,165L1115,159L1128,158L1129,153L1139,154L1136,170L1139,186L1150,194L1152,202L1152,213L1155,213L1155,230L1152,236L1141,237L1133,249L1147,251L1157,261L1161,270L1171,275L1183,298L1169,312L1156,325L1143,335L1128,335L1111,339L1097,335Z" fill="#E0E0E0" stroke="#fff" stroke-width=".4"/></g><g clip-path="url(#v)"><path d="M451.5,179.9L446.0,180.1L444.0,180.7L442.8,180.7L442.8,180.3L442.6,180.0L435.7,178.3L430.8,177.2L425.9,176.2L425.7,177.2L424.9,177.8L424.0,177.9L423.2,177.7L422.7,178.6L421.9,179.6L420.7,180.1L419.6,180.8L419.0,181.3L418.5,181.3L417.4,180.0L415.9,179.9L413.2,180.1L411.9,179.7L410.2,179.5L406.1,179.8L399.7,179.3L398.6,179.6L398.3,179.8L391.9,179.9L384.9,180.0L379.0,180.0L373.8,180.1L373.8,179.8L372.1,179.8L371.9,180.3L370.5,185.7L370.3,188.6L371.1,190.4L371.9,191.6L372.9,192.1L373.0,192.7L372.3,193.6L372.3,194.4L373.2,195.3L373.5,196.3L373.0,197.2L373.1,199.6L373.8,203.4L373.9,205.8L373.2,206.9L373.5,208.8L374.8,211.4L375.0,212.6L374.6,213.1L373.5,213.8L372.4,213.8L371.2,212.2L370.6,211.4L369.6,209.8L368.7,208.2L367.6,207.4L366.5,206.8L365.1,204.7L363.8,203.7L362.4,204.0L360.3,203.5L356.2,203.1L351.7,203.2L349.8,203.7L348.0,204.4L343.4,206.1L341.5,207.0L340.2,209.1L338.6,209.0L337.0,208.3L336.0,207.4L334.0,207.6L331.9,206.7L329.9,204.9L328.4,204.2L326.6,202.9L326.1,200.4L324.9,198.6L323.8,196.2L322.2,195.1L320.4,194.5L317.8,194.6L316.1,193.6L314.8,192.2L315.2,191.0L315.8,189.2L315.8,187.5L316.3,184.7L316.0,181.3L315.5,178.9L317.0,177.8L318.6,176.9L319.6,175.3L320.6,171.6L321.1,168.4L320.8,167.3L320.2,166.3L319.8,164.9L319.6,163.3L319.9,161.8L321.1,160.4L322.6,159.3L323.7,158.8L326.6,158.2L330.3,157.3L332.3,156.4L333.9,155.4L334.7,154.7L335.6,153.1L337.0,151.9L338.1,150.7L338.2,147.3L338.2,145.4L337.5,144.3L337.0,143.4L342.4,140.8L342.5,138.9L341.7,136.8L340.6,135.1L340.2,133.6L341.8,131.9L343.1,130.7L344.0,129.6L346.1,127.9L348.4,127.5L350.3,128.1L356.2,132.0L357.3,132.3L358.5,132.0L360.1,131.0L362.1,130.1L362.8,127.5L362.8,123.6L363.2,121.9L364.3,121.5L367.7,122.3L368.6,122.3L369.6,122.1L370.3,121.4L370.3,120.2L370.1,119.1L371.2,115.5L373.2,112.7L377.3,109.4L378.6,108.7L380.1,108.4L387.3,110.7L388.6,110.1L390.3,104.4L392.3,103.8L394.7,103.7L396.3,103.2L397.1,102.8L400.6,100.6L406.7,97.6L410.0,96.4L410.6,95.9L413.0,93.8L416.1,91.3L418.1,90.9L420.9,90.7L422.6,91.1L423.1,91.8L423.7,92.1L427.3,91.1L432.5,92.8L437.0,94.4L436.7,95.4L436.7,97.2L436.3,100.1L435.8,103.4L437.7,105.7L439.9,108.1L440.5,109.0L439.9,111.3L440.3,112.7L441.5,115.0L443.5,117.9L445.5,120.9L446.9,121.3L448.2,121.5L449.1,122.0L450.2,122.6L451.4,122.9L452.4,123.6L453.1,124.2L454.0,126.0L456.3,127.2L457.9,128.5L457.3,129.1L455.3,128.8L453.4,128.3L453.1,129.2L453.1,132.5L453.4,135.4L453.7,135.7L455.7,136.2L460.2,139.9L464.2,143.3L465.6,144.2L467.9,144.6L470.4,144.7L471.5,144.4L474.0,142.6L475.3,142.4L476.5,142.5L477.1,142.8L478.3,144.2L479.4,146.3L479.7,147.9L479.6,148.8L479.3,149.1L477.2,149.5L476.3,149.8L476.1,150.3L476.4,151.3L476.8,152.0L479.0,155.1L482.2,159.2L483.2,160.3L482.6,161.5L481.0,164.8L479.8,166.1L474.5,170.7L471.8,170.2L466.4,171.1L465.5,170.0L464.3,169.9L462.7,170.1L462.1,170.5L461.9,170.9L461.4,171.6L460.3,173.4L459.6,173.8L458.6,174.1L457.4,174.1L456.7,174.3L456.7,175.2L456.5,176.0L455.7,176.4L455.4,177.2L455.4,178.1L455.0,178.5L453.9,178.3L453.3,178.0L452.8,179.2L452.0,179.9Z" fill="#4ECDC4" stroke="#2C3E50" stroke-width="1"/></g><circle cx="400.0" cy="150.0" r="4" fill="#E74C3C" stroke="#fff" stroke-width="2"/><text x="400.0" y="140.0" text-anchor="middle" font-family="sans-serif" font-weight="700" font-size="10" fill="#2D3436">Ouagadougou</text></svg>