<svg viewBox="0 0 800 300" xmlns="http://www.w3.org/2000/svg"><defs><clipPath id="v"><rect width="800" height="300"/></clipPath></defs><rect width="800" height="300" fill="#DCEEF8"/><g clip-path="url(#v)"><path d="M-1801,1417L-1818,1444L-1827,1465L-1839,1476L-1853,1479L-1857,1470L-1863,1469L-1872,1477L-1885,1471L-1878,1459L-1875,1445L-1870,1433L-1882,1415L-1884,1395L-1869,1370L-1859,1373L-1837,1380L-1806,1405ZM-103,-137L-89,-125L-47,-117L-62,-86L-65,-55L-73,-48L-87,-52L-86,-41L-107,-16L-108,3L-94,-4L-84,15L-85,27L-76,43L-86,55L-79,87L-63,92L-66,110L-93,133L-151,122L-194,135L-197,159L-231,164L-264,146L-275,155L-329,137L-340,121L-325,97L-320,14L-350,-31L-372,-53L-416,-70L-419,-102L-381,-112L-332,-100L-341,-151L-314,-132L-245,-167L-236,-205L-211,-214L-207,-198L-193,-197L-179,-179L-159,-157L-144,-160L-118,-140L-111,-136ZM-28,153L-9,138L-4,172L-14,202L-27,194L-34,168Z" fill="#E0E0E0" stroke="#fff" stroke-width=".4"/><path d="M767,502L759,502L756,508L747,508L757,480L772,455L772,453L785,455L790,469L774,483Z" fill="#E0E0E0" stroke="#fff" stroke-width=".4"/><path d="M-6,604L-19,543L-37,529L-37,520L-61,500L-64,473L-46,453L-39,424L-43,389L-37,370L-5,355L15,360L14,378L39,365L41,372L27,390L26,407L37,416L33,447L13,465L19,484L34,485L41,501L53,507L51,534L37,544L28,555L7,568L11,582L8,597Z" fill="#E0E0E0" stroke="#fff" stroke-width=".4"/><path d="M-540,702L-539,696L-539,693L-539,654L-492,629L-463,624L-439,615L-427,598L-393,584L-392,559L-375,556L-361,543L-323,537L-318,524L-325,516L-335,479L-337,458L-348,435L-320,415L-288,409L-270,394L-242,383L-192,376L-143,373L-128,379L-101,364L-69,364L-57,372L-37,370L-43,389L-39,424L-46,453L-64,473L-61,500L-37,520L-37,529L-19,543L-6,604L3,634L5,650L-0,677L2,692L-2,710L1,731L-11,745L6,769L7,782L18,801L32,795L55,810L68,830L-33,890L-118,952L-159,966L-192,969L-192,949L-206,944L-224,935L-231,920L-330,851L-429,781Z" fill="#E0E0E0" stroke="#fff" stroke-width=".4"/><path d="M759,533L764,522L797,536L854,498L866,541L860,546L802,563L831,598L821,603L816,615L794,619L787,632L774,642L742,637L741,632L755,577L755,564L759,554Z" fill="#E0E0E0" stroke="#fff" stroke-width=".4"/><path d="M866,541L854,498L919,462L930,418L928,392L944,383L959,360L971,354L1005,359L1016,368L1030,362L1049,406L1068,416L1070,437L1056,450L1049,477L1069,511L1105,530L1120,556L1115,581L1125,581L1125,599L1141,617L1124,616L1104,613L1082,645L1028,643L945,574L901,550Z" fill="#E0E0E0" stroke="#fff" stroke-width=".4"/><path d="M764,522L763,522L767,516L767,502L774,483L790,469L785,455L772,453L769,426L777,411L784,403L792,395L794,375L804,382L836,372L851,379L876,379L909,365L925,365L959,360L944,383L928,392L930,418L919,462L854,498L797,536Z" fill="#E0E0E0" stroke="#fff" stroke-width=".4"/><path d="M1081,302L1070,303L1058,282L1058,276L1045,276L1037,266L1030,267L1019,255L997,246L1000,227L995,213L1036,207L1042,218L1053,224L1047,234L1063,247L1054,259L1067,270L1080,276Z" fill="#E0E0E0" stroke="#fff" stroke-width=".4"/><path d="M649,-259L660,-257L667,-268L676,-266L706,-270L725,-243L718,-234L720,-219L744,-217L754,-197L753,-188L791,-171L813,-179L831,-157L848,-158L892,-143L892,-130L880,-106L887,-82L882,-67L854,-64L838,-52L838,-33L814,-29L794,-15L767,-13L742,3L743,26L739,24L735,16L726,14L705,5L697,16L693,11L647,0L645,-16L618,-10L607,13L585,44L571,37L557,44L544,36L552,31L557,17L565,4L563,-4L569,-7L572,-2L589,-0L597,-4L591,-8L593,-14L583,-25L579,-43L568,-50L570,-65L557,-77L545,-78L523,-92L504,-88L497,-81L484,-81L477,-71L455,-67L445,-60L432,-71L413,-71L395,-76L382,-66L380,-78L364,-90L370,-108L378,-120L384,-117L377,-137L403,-175L418,-181L421,-194L406,-234L420,-236L436,-249L459,-250L489,-246L521,-235L544,-234L556,-227L567,-236L574,-225L601,-227L612,-222L614,-246L623,-256Z" fill="#E0E0E0" stroke="#fff" stroke-width=".4"/><path d="M405,-348L406,-326L414,-307L414,-288L396,-278L405,-256L406,-234L421,-194L418,-181L403,-175L377,-137L384,-117L378,-120L350,-137L329,-131L315,-135L297,-126L283,-142L271,-135L269,-138L255,-161L234,-163L231,-178L211,-183L206,-171L190,-180L192,-193L170,-197L156,-212L144,-242L147,-259L139,-285L129,-302L137,-315L130,-340L150,-355L196,-378L233,-395L262,-386L264,-374L293,-373L329,-368L383,-369L398,-363Z" fill="#E0E0E0" stroke="#fff" stroke-width=".4"/><path d="M214,-77L212,-59L195,-59L201,-50L191,-22L185,-15L160,-14L145,-4L121,-7L79,-18L72,-33L43,-26L40,-17L22,-24L7,-25L-6,-33L-2,-43L-3,-51L6,-53L21,-41L25,-53L51,-51L72,-59L86,-57L95,-48L98,-56L94,-84L104,-90L115,-110L136,-96L153,-114L163,-118L186,-104L200,-106L213,-98L211,-92Z" fill="#E0E0E0" stroke="#fff" stroke-width=".4"/><path d="M364,-90L380,-78L382,-66L364,-57L350,-28L333,1L309,9L291,7L268,18L257,25L233,17L211,-2L202,-7L196,-21L191,-22L201,-50L195,-59L212,-59L214,-77L229,-66L240,-61L264,-66L267,-75L278,-77L293,-83L296,-81L310,-86L316,-96L326,-99L357,-86Z" fill="#E0E0E0" stroke="#fff" stroke-width=".4"/><path d="M497,-81L504,-88L523,-92L545,-78L557,-77L570,-65L568,-50L579,-43L583,-25L593,-14L591,-8L597,-4L589,-0L572,-2L569,-7L563,-4L565,4L557,17L552,31L544,36L539,17L542,-1L541,-20L524,-46L515,-64L506,-77Z" fill="#E0E0E0" stroke="#fff" stroke-width=".4"/><path d="M544,36L557,44L571,37L585,44L585,55L571,64L562,60L554,109L537,105L515,90L481,100L466,110L423,108L400,102L389,105L381,88L375,81L382,74L375,69L366,78L348,66L346,49L328,39L325,26L309,9L333,1L350,-28L364,-57L382,-66L395,-76L413,-71L432,-71L445,-60L455,-67L477,-71L484,-81L497,-81L506,-77L515,-64L524,-46L541,-20L542,-1L539,17Z" fill="#E0E0E0" stroke="#fff" stroke-width=".4"/><path d="M130,-340L137,-315L129,-302L139,-285L147,-259L144,-242L156,-212L143,-207L135,-213L128,-204L107,-195L96,-183L75,-173L80,-160L83,-141L98,-130L115,-110L104,-90L94,-84L98,-56L95,-48L86,-57L72,-59L51,-51L25,-53L21,-41L6,-53L-3,-51L-34,-64L-40,-55L-65,-55L-62,-86L-47,-117L-89,-125L-103,-137L-101,-157L-107,-167L-104,-198L-109,-247L-91,-247L-84,-265L-76,-310L-82,-326L-76,-337L-52,-339L-46,-329L-26,-353L-33,-372L-34,-401L-12,-394L7,-402L7,-382L37,-370L37,-352L66,-362L83,-376L116,-356Z" fill="#E0E0E0" stroke="#fff" stroke-width=".4"/><path d="M487,430L483,441L441,444L442,438L406,431L411,415L427,428L450,425L472,428L471,434ZM389,204L411,205L434,194L455,208L482,204L482,185L496,195L487,219L480,224L462,223L447,219L412,229L432,251L417,257L401,257L385,237L380,246L386,269L401,286L390,295L406,312L421,323L421,344L394,334L403,353L384,357L395,389L376,390L352,374L341,344L335,320L324,302L309,281L307,270L321,251L322,239L332,233L332,223L352,220L363,211L379,212L384,205Z" fill="#E0E0E0" stroke="#fff" stroke-width=".4"/><path d="M1030,362L1016,368L1005,359L971,354L959,360L925,365L909,365L876,379L851,379L836,372L804,382L794,375L792,395L784,403L777,411L766,395L777,381L759,384L734,376L714,397L670,401L646,381L614,380L608,395L587,399L559,380L527,381L509,344L488,323L502,294L484,276L516,239L561,238L574,208L630,214L665,188L699,177L748,176L799,204L841,219L875,213L901,216L935,196L967,194L995,213L1000,227L997,246L1019,255L1030,267L1010,277L1019,321L1014,332ZM482,185L512,172L537,177L541,193L566,205L561,215L526,217L514,229L489,250L480,232L480,224L487,219L496,195Z" fill="#E0E0E0" stroke="#fff" stroke-width=".4"/><path d="M332,223L332,233L322,239L321,251L307,270L302,267L301,259L285,246L283,228L285,201L289,189L284,183L282,170L295,150L297,158L305,154L311,165L318,169L320,183L316,197L320,214Z" fill="#E0E0E0" stroke="#fff" stroke-width=".4"/><path d="M202,-7L211,-2L233,17L257,25L268,18L275,35L285,47L273,62L260,53L240,54L215,47L201,48L194,56L184,47L178,64L192,83L199,96L212,111L223,120L234,137L260,152L257,159L229,144L212,130L186,118L161,88L167,84L153,67L153,53L134,47L125,65L116,51L117,36L118,36L139,37L144,30L154,37L165,37L165,26L176,22L178,4Z" fill="#E0E0E0" stroke="#fff" stroke-width=".4"/><path d="M-3,-51L-2,-43L-6,-33L7,-25L22,-24L20,-6L7,1L-15,-4L-21,13L-35,14L-40,8L-57,22L-71,24L-84,15L-94,-4L-108,3L-107,-16L-86,-41L-87,-52L-73,-48L-65,-55L-40,-55L-34,-64Z" fill="#E0E0E0" stroke="#fff" stroke-width=".4"/><path d="M-107,-167L-101,-157L-103,-137L-111,-136L-118,-140L-115,-165Z" fill="#E0E0E0" stroke="#fff" stroke-width=".4"/><path d="M-104,-198L-107,-167L-115,-165L-118,-140L-144,-160L-159,-157L-179,-179L-193,-197L-207,-198L-211,-214L-187,-224L-166,-220L-139,-230L-120,-209Z" fill="#E0E0E0" stroke="#fff" stroke-width=".4"/><path d="M-82,-326L-76,-310L-84,-265L-91,-247L-109,-247L-104,-198L-120,-209L-139,-230L-166,-220L-187,-224L-172,-236L-146,-307L-106,-328Z" fill="#E0E0E0" stroke="#fff" stroke-width=".4"/><path d="M-503,365L-506,352L-495,338L-491,328L-501,317L-493,293L-505,270L-492,267L-491,249L-486,243L-486,213L-472,202L-480,182L-497,181L-502,186L-520,186L-527,167L-539,172L-550,182L-548,154L-560,137L-519,108L-483,115L-443,115L-412,122L-388,120L-340,121L-329,137L-275,155L-264,146L-231,164L-197,159L-195,182L-223,208L-261,216L-263,230L-281,251L-293,282L-281,304L-298,320L-305,344L-327,352L-348,380L-385,381L-413,380L-431,393L-442,407L-457,404L-468,391L-476,370Z" fill="#E0E0E0" stroke="#fff" stroke-width=".4"/><path d="M22,-24L40,-17L43,-26L72,-33L79,-18L121,-7L117,14L125,32L101,26L77,40L79,61L75,73L85,94L113,114L127,148L160,180L183,179L190,188L182,196L208,210L230,222L255,242L258,249L252,263L236,245L211,239L198,263L219,278L216,297L204,300L188,332L176,335L176,323L182,303L188,295L177,273L168,254L156,249L147,232L128,225L115,210L94,207L71,189L44,164L24,141L15,101L0,96L-24,83L-37,88L-54,107L-66,110L-63,92L-79,87L-86,55L-76,43L-85,27L-84,15L-71,24L-57,22L-40,8L-35,14L-21,13L-15,-4L7,1L20,-6ZM149,326L171,323L160,352L165,363L159,382L136,368L121,364L80,346L84,326L119,330ZM-29,221L-14,209L3,236L-1,287L-14,285L-26,297L-37,287L-38,241L-45,219Z" fill="#E0E0E0" stroke="#fff" stroke-width=".4"/><path d="M888,120L892,116L917,123L960,129L1000,148L1005,156L1023,150L1050,158L1059,174L1078,183L1070,189L1084,210L1080,215L1065,212L1043,201L1036,207L995,213L967,194L935,196L940,179L932,152L915,137L899,133Z" fill="#E0E0E0" stroke="#fff" stroke-width=".4"/><path d="M121,-7L145,-4L160,-14L185,-15L191,-22L196,-21L202,-7L178,4L176,22L165,26L165,37L154,37L144,30L139,37L118,36L125,32L117,14Z" fill="#E0E0E0" stroke="#fff" stroke-width=".4"/><path d="M378,-120L370,-108L364,-90L357,-86L326,-99L316,-96L310,-86L296,-81L293,-83L278,-77L267,-75L264,-66L240,-61L229,-66L214,-77L211,-92L213,-98L217,-108L230,-107L241,-112L241,-116L247,-118L249,-128L256,-130L260,-138L269,-138L271,-135L283,-142L297,-126L315,-135L329,-131L350,-137Z" fill="#E0E0E0" stroke="#fff" stroke-width=".4"/><path d="M156,-212L170,-197L192,-193L190,-180L206,-171L211,-183L231,-178L234,-163L255,-161L269,-138L260,-138L256,-130L249,-128L247,-118L241,-116L241,-112L230,-107L217,-108L213,-98L200,-106L186,-104L163,-118L153,-114L136,-96L115,-110L98,-130L83,-141L80,-160L75,-173L96,-183L107,-195L128,-204L135,-213L143,-207Z" fill="#E0E0E0" stroke="#fff" stroke-width=".4"/><path d="M676,436L678,436L683,427L704,427L730,417L711,432L713,439L710,437L704,440L700,439L698,441L698,437L695,435L690,435L682,438Z" fill="#E0E0E0" stroke="#fff" stroke-width=".4"/><path d="M676,436L682,438L690,435L695,435L698,437L698,441L700,439L704,440L710,437L713,439L714,442L684,456L669,451L662,437Z" fill="#E0E0E0" stroke="#fff" stroke-width=".4"/><path d="M260,152L234,137L223,120L212,111L199,96L192,83L178,64L184,47L194,56L201,48L215,47L240,54L260,53L273,62L284,62L277,80L291,96L286,115L280,117L274,121L265,130Z" fill="#E0E0E0" stroke="#fff" stroke-width=".4"/><path d="M372,165L387,178L389,204L384,205L379,212L363,211L352,220L332,223L320,214L316,197L320,183L324,184L325,176L342,170L349,168L359,166Z" fill="#E0E0E0" stroke="#fff" stroke-width=".4"/><path d="M268,18L291,7L309,9L325,26L328,39L346,49L348,66L366,78L375,69L382,74L375,81L381,88L373,97L376,112L390,129L379,142L374,155L377,159L372,165L359,166L349,168L348,165L351,160L355,151L351,151L345,143L340,142L336,135L331,133L326,127L321,129L317,143L310,146L312,142L301,134L292,129L287,124L280,117L286,115L291,96L277,80L284,62L273,62L285,47L275,35Z" fill="#E0E0E0" stroke="#fff" stroke-width=".4"/><path d="M305,154L297,158L295,150L282,170L284,183L278,180L270,167L257,159L260,152L265,130L274,121L280,117L287,124L292,129L301,134L312,142L310,146Z" fill="#E0E0E0" stroke="#fff" stroke-width=".4"/><path d="M320,183L318,169L311,165L305,154L310,146L317,143L321,129L326,127L331,133L336,135L340,142L345,143L351,151L355,151L351,160L348,165L349,168L342,170L325,176L324,184Z" fill="#E0E0E0" stroke="#fff" stroke-width=".4"/></g><g clip-path="url(#v)"><path d="M537.8,179.1L533.9,178.4L532.5,178.6L531.6,179.5L529.8,179.3L527.4,179.3L525.1,180.5L523.7,180.9L521.9,179.9L518.7,176.8L516.7,174.7L515.2,174.1L513.7,174.7L508.4,175.5L507.1,176.7L504.6,178.2L502.2,178.8L498.6,179.3L496.8,179.2L495.7,179.9L494.8,181.9L494.2,183.8L493.7,184.7L489.3,185.6L488.3,186.8L488.0,187.9L488.1,189.0L484.5,187.9L481.8,188.6L481.1,189.4L480.6,190.7L480.9,192.0L482.0,193.3L482.9,196.6L483.3,200.0L482.6,202.0L480.6,203.3L476.4,204.8L472.4,204.1L470.6,204.7L467.6,204.9L464.8,205.3L460.5,206.7L456.7,207.5L453.2,204.7L449.1,202.8L444.8,201.6L443.3,202.5L442.7,203.1L439.1,200.6L437.5,199.7L436.6,198.8L435.2,195.4L434.3,195.3L431.4,196.5L428.5,196.5L426.7,196.3L421.6,196.4L420.9,198.7L420.3,199.1L419.2,199.3L416.5,199.2L413.0,200.9L409.3,201.9L406.3,202.0L403.4,201.4L401.6,201.8L397.7,202.0L395.2,204.4L391.3,204.3L388.1,203.9L388.6,203.1L389.2,193.3L390.8,189.0L390.7,188.1L390.4,187.4L389.0,186.6L387.9,184.3L385.8,178.1L384.7,176.8L381.3,175.5L378.3,173.6L375.9,171.3L371.3,165.4L373.7,164.8L374.3,163.6L376.6,160.3L376.8,158.7L376.6,157.8L375.1,156.3L374.1,152.8L374.8,149.6L374.9,147.9L374.2,146.3L374.9,144.3L376.6,143.2L377.7,142.9L382.0,142.7L384.8,138.6L386.4,137.2L388.1,134.9L388.9,134.1L389.6,132.3L389.9,130.5L386.4,127.8L385.3,125.9L383.8,123.7L381.7,122.3L377.6,119.7L375.9,117.1L375.1,113.7L374.1,111.1L372.8,109.5L372.6,108.1L372.1,106.4L372.0,103.1L372.9,98.7L373.6,97.2L375.0,96.8L378.8,94.4L378.9,91.4L379.7,89.6L380.8,88.5L381.9,87.8L384.0,89.5L389.0,92.3L391.4,94.3L391.3,95.6L390.1,96.8L388.0,98.0L386.8,99.7L386.3,101.6L386.8,103.0L388.2,104.3L397.2,102.6L406.3,103.5L418.5,106.2L426.6,107.1L432.6,105.9L443.7,108.1L454.0,110.2L463.9,110.9L469.4,109.3L473.3,107.0L476.7,102.8L485.1,97.2L493.1,94.1L503.5,91.6L510.6,90.6L511.6,91.6L520.6,96.7L524.5,96.7L527.8,97.6L528.9,98.9L529.8,99.3L534.0,98.0L535.9,100.9L538.8,104.7L543.9,106.8L548.4,107.9L549.8,108.1L554.6,108.0L553.9,117.8L551,122.3L546.8,120.8L541.3,122.1L538.4,127.2L536.7,128.7L535.3,130.5L534.3,137.2L534.1,148.0L532.1,149.3L530.2,149.7L522.3,159.2L526.8,161.9L528.8,163.9L532.2,169.6L536.8,176.0Z" fill="#4ECDC4" stroke="#2C3E50" stroke-width="1"/></g><circle cx="400.0" cy="150.0" r="4" fill="#E74C3C" stroke="#fff" stroke-width="2"/><text x="400.0" y="140.0" text-anchor="middle" font-family="sans-serif" font-weight="700" font-size="10" fill="#2D3436">Sofia</text></svg>