<svg viewBox="0 0 800 300" xmlns="http://www.w3.org/2000/svg"><defs><clipPath id="v"><rect width="800" height="300"/></clipPath></defs><rect width="800" height="300" fill="#DCEEF8"/><g clip-path="url(#v)"><path d="M470,303L482,299L485,320L539,308L597,310L639,313L687,261L739,211L783,164L797,190L806,251L770,251L765,301L777,312L745,327L745,358L725,390L723,420L709,436L499,398L473,321Z" fill="#E0E0E0" stroke="#fff" stroke-width=".4"/><path d="M416,264L411,208L430,167L449,159L471,183L472,229L456,274L437,279Z" fill="#E0E0E0" stroke="#fff" stroke-width=".4"/><path d="M218,-147L233,-111L226,-93L249,-33L200,-30L182,-68L120,-76L171,-153Z" fill="#E0E0E0" stroke="#fff" stroke-width=".4"/><path d="M-395,-325L-423,-426L-268,-513L-242,-616L-249,-679L-210,-701L-175,-755L-145,-769L-63,-758L-39,-735L-5,-750L40,-646L85,-621L91,-571L56,-541L40,-475L88,-396L173,-350L209,-287L198,-228L220,-228L221,-185L259,-143L218,-147L171,-153L120,-76L-10,-83L-107,-164L-207,-245L-311,-302Z" fill="#E0E0E0" stroke="#fff" stroke-width=".4"/><path d="M723,420L725,390L745,358L745,327L777,312L765,301L770,251L806,251L837,303L876,331L927,341L969,355L1000,399L1019,424L1044,433L1044,450L1019,495L1008,516L978,540L952,591L920,587L906,605L895,643L903,692L897,701L865,701L821,729L814,764L798,780L755,779L727,798L728,827L694,848L656,841L609,865L577,870L554,819L499,697L709,623L755,474ZM797,190L783,164L804,137L812,144L806,176Z" fill="#E0E0E0" stroke="#fff" stroke-width=".4"/><path d="M259,-143L221,-185L220,-228L198,-228L209,-287L173,-350L88,-396L40,-475L56,-541L91,-571L85,-621L40,-646L-5,-750L-44,-821L-30,-848L-52,-951L-4,-977L7,-943L43,-901L90,-889L116,-892L198,-958L224,-965L245,-938L221,-894L264,-847L282,-852L304,-786L370,-768L418,-724L518,-709L627,-732L633,-753L695,-770L744,-820L791,-818L822,-834L871,-826L949,-781L1004,-771L1084,-694L1136,-691L1142,-618L1114,-512L1095,-451L1125,-438L1095,-393L1118,-326L1123,-274L1176,-260L1182,-208L1119,-135L1153,-93L1181,-44L1248,-9L1250,60L1283,73L1289,109L1189,149L1162,239L1031,216L955,198L876,188L846,93L813,79L759,93L689,130L603,105L533,44L466,22L419,-53L367,-160L330,-147L286,-174Z" fill="#E0E0E0" stroke="#fff" stroke-width=".4"/><path d="M-691,-97L-613,-84L-583,-109L-566,-138L-513,-149L-501,-176L-478,-190L-548,-271L-408,-312L-395,-325L-311,-302L-207,-245L-107,-164L-10,-83L120,-76L182,-68L200,-30L249,-33L276,36L311,54L323,81L370,114L374,146L367,172L376,198L396,220L406,245L416,264L437,279L456,274L470,303L473,321L499,398L709,436L723,420L755,474L709,623L499,697L298,726L233,759L183,836L150,848L132,823L106,827L38,820L26,812L-55,814L-74,821L-102,802L-121,838L-114,868L-144,892L-154,861L-175,839L-180,809L-216,783L-253,722L-273,661L-321,610L-353,598L-399,527L-407,475L-404,430L-444,346L-476,316L-514,300L-537,256L-534,239L-553,199L-573,181L-600,123L-643,60L-679,6L-713,7L-702,-37L-699,-65Z" fill="#E0E0E0" stroke="#fff" stroke-width=".4"/></g><g clip-path="url(#v)"><path d="M401.9,177.0L399.7,182.9L397.4,180.8L392.1,170.5L393.6,163.4L391.1,153.1L392.4,150.1L398.9,148.7L400.4,149.2L398.4,152.4L402.2,158.2L402.7,167.7Z" fill="#4ECDC4" stroke="#2C3E50" stroke-width="1"/></g><circle cx="400.0" cy="150.0" r="4" fill="#E74C3C" stroke="#fff" stroke-width="2"/><text x="400.0" y="140.0" text-anchor="middle" font-family="sans-serif" font-weight="700" font-size="10" fill="#2D3436">Manama</text></svg>