<svg viewBox="0 0 800 300" xmlns="http://www.w3.org/2000/svg"><defs><clipPath id="v"><rect width="800" height="300"/></clipPath></defs><rect width="800" height="300" fill="#DCEEF8"/><g clip-path="url(#v)"><path d="M653,15L662,21L864,134L868,167L948,222L922,291L926,323L961,343L963,358L948,392L951,409L947,436L967,471L990,527L1010,539L966,572L905,594L871,593L852,610L813,612L798,619L731,603L689,607L674,530L655,504L644,488L589,478L558,461L522,451L500,442L477,428L447,357L414,326L403,293L409,264L399,213L422,210L442,190L464,161L478,149L477,131L465,118L462,96L478,89L481,56L459,25L479,18L540,19Z" fill="#E0E0E0" stroke="#fff" stroke-width=".4"/><path d="M399,213L409,264L403,293L414,326L447,357L477,428L455,422L380,431L365,438L349,474L362,499L352,566L345,623L360,633L399,655L414,645L419,706L376,706L354,675L333,650L290,642L278,612L244,630L199,623L181,597L145,591L119,593L116,575L97,574L71,570L37,579L13,578L-1,583L2,515L-17,494L-21,460L-13,426L-24,404L-25,369L-92,369L-88,349L-116,349L-119,359L-154,361L-167,394L-176,408L-207,400L-225,408L-262,412L-283,383L-296,365L-312,331L-326,290L-490,289L-510,295L-526,294L-549,302L-556,285L-542,279L-540,254L-531,240L-511,228L-497,234L-478,213L-447,213L-444,229L-423,239L-390,204L-358,177L-343,159L-345,113L-321,59L-296,30L-259,3L-253,-15L-251,-35L-242,-54L-245,-86L-238,-135L-227,-170L-211,-200L-207,-234L-202,-272L-181,-301L-151,-319L-105,-300L-69,-279L-29,-274L13,-263L29,-297L37,-301L62,-295L124,-323L146,-311L164,-313L173,-327L194,-331L235,-325L271,-324L289,-330L323,-284L348,-277L363,-287L389,-283L420,-295L433,-271L482,-234L479,-169L501,-161L483,-141L462,-126L440,-97L429,-72L426,-27L413,-6L412,36L396,52L394,85L387,89L381,120L395,145Z" fill="#E0E0E0" stroke="#fff" stroke-width=".4"/><path d="M948,222L868,167L864,134L662,21L653,15L652,-44L668,-67L696,-104L716,-144L691,-208L685,-236L659,-275L693,-308L731,-345L760,-336L760,-305L779,-286L817,-286L888,-239L905,-238L918,-240L931,-233L968,-229L984,-252L1035,-276L1058,-257L1096,-257L1047,-193L1048,9L1081,55L1042,78L1028,101L1007,105L999,144L981,167L970,204Z" fill="#E0E0E0" stroke="#fff" stroke-width=".4"/><path d="M289,-330L271,-324L235,-325L194,-331L173,-327L164,-313L146,-311L124,-323L62,-295L37,-301L29,-297L13,-263L-29,-274L-69,-279L-105,-300L-151,-319L-181,-301L-202,-272L-207,-234L-243,-237L-281,-246L-314,-216L-343,-165L-349,-181L-351,-206L-377,-224L-398,-253L-402,-273L-429,-302L-424,-319L-430,-342L-425,-386L-412,-396L-384,-453L-338,-457L-328,-471L-318,-470L-305,-458L-234,-479L-211,-501L-182,-521L-187,-540L-172,-546L-118,-542L-65,-568L-25,-630L3,-653L38,-663L45,-638L77,-603L77,-580L68,-556L71,-539L91,-523L133,-498L164,-475L164,-457L202,-428L225,-404L239,-370L281,-348Z" fill="#E0E0E0" stroke="#fff" stroke-width=".4"/><path d="M477,428L500,442L522,451L558,461L589,478L615,503L630,551L620,566L609,612L620,660L602,679L585,733L615,747L446,795L451,836L409,844L377,867L370,887L350,891L302,939L271,977L252,978L234,972L172,965L162,961L161,956L140,943L104,940L58,953L22,916L-16,869L-13,686L103,687L98,667L106,646L96,619L103,591L97,574L116,575L119,593L145,591L181,597L199,623L244,630L278,612L290,642L333,650L354,675L376,706L419,706L414,645L399,655L360,633L345,623L352,566L362,499L349,474L365,438L380,431L455,422Z" fill="#E0E0E0" stroke="#fff" stroke-width=".4"/><path d="M589,478L644,488L655,504L674,530L689,607L674,651L689,725L709,724L729,743L752,784L757,858L733,871L716,911L680,875L675,834L687,807L684,784L662,770L647,775L615,747L585,733L602,679L620,660L609,612L620,566L630,551L615,503Z" fill="#E0E0E0" stroke="#fff" stroke-width=".4"/><path d="M-511,228L-531,240L-540,254L-542,279L-556,285L-571,243L-549,218L-532,209ZM-549,302L-526,294L-510,295L-490,289L-326,290L-312,331L-296,365L-283,383L-262,412L-225,408L-207,400L-176,408L-167,394L-154,361L-119,359L-116,349L-88,349L-92,369L-25,369L-24,404L-13,426L-21,460L-17,494L2,515L-1,583L13,578L37,579L71,570L97,574L103,591L96,619L106,646L98,667L103,687L-13,686L-16,869L22,916L58,953L-44,977L-179,968L-218,940L-443,943L-452,947L-485,921L-521,919L-554,929L-581,940L-587,903L-579,852L-560,800L-557,775L-539,723L-525,700L-494,662L-475,637L-470,595L-473,563L-489,542L-504,508L-518,474L-515,463L-498,440L-515,386L-526,348L-554,313Z" fill="#E0E0E0" stroke="#fff" stroke-width=".4"/><path d="M653,15L540,19L479,18L459,25L426,42L412,36L413,-6L426,-27L429,-72L440,-97L462,-126L483,-141L501,-161L479,-169L482,-234L505,-249L540,-237L585,-250L624,-249L659,-275L685,-236L691,-208L716,-144L696,-104L668,-67L652,-44Z" fill="#E0E0E0" stroke="#fff" stroke-width=".4"/><path d="M459,25L481,56L478,89L462,96L432,93L415,124L381,120L387,89L394,85L396,52L412,36L426,42Z" fill="#E0E0E0" stroke="#fff" stroke-width=".4"/></g><g clip-path="url(#v)"><path d="M466.6,95.4L465.3,96.8L460.3,107.3L459.3,108.8L459.7,109.8L461.9,111.7L460.7,115.0L460.1,115.9L459.3,119.0L459.7,121.8L460.9,122.9L464.3,124.2L469.4,125.2L475.2,127.5L479.0,128.0L480.0,129.6L479.8,132.6L480.8,135.3L480.8,140.0L479.6,144.2L473.6,146.1L470.6,148.2L469.6,149.3L470.4,150.4L470.8,152.2L465.1,156.3L459.3,161.7L457.9,165.3L456.7,169.5L455.1,172.3L450.5,176.2L446.1,184.2L443.9,189.4L432.7,201.8L422.9,207.9L419.8,210.0L402.4,209.6L401.0,201.3L398.4,189.9L392.4,179.6L391.8,175.3L392.0,167.0L392.0,155.3L391.6,149.1L391.8,144.4L392.6,136.5L392.4,131.8L388.6,126.3L383.6,120.5L381.0,117.6L380.8,115.3L380.8,113.2L381.6,110.1L383.6,106.7L385.6,106.3L391.0,107.7L396.4,110.6L399.4,117.2L401.6,118.1L405.8,118.1L416.2,117.2L418.8,117.3L423.7,115.8L428.3,113.0L429.7,110.1L430.7,103.6L431.7,92.0L434.1,91.9L440.7,96.0L442.1,96.3L443.5,96.2L445.9,94.1L448.7,92.4L450.7,92.5L458.3,90.5L462.5,94.0L465.1,95.1Z" fill="#4ECDC4" stroke="#2C3E50" stroke-width="1"/></g><circle cx="400.0" cy="150.0" r="4" fill="#E74C3C" stroke="#fff" stroke-width="2"/><text x="400.0" y="140.0" text-anchor="middle" font-family="sans-serif" font-weight="700" font-size="10" fill="#2D3436">Gitega</text></svg>