<svg viewBox="0 0 800 300" xmlns="http://www.w3.org/2000/svg"><defs><clipPath id="v"><rect width="800" height="300"/></clipPath></defs><rect width="800" height="300" fill="#DCEEF8"/><g clip-path="url(#v)"><path d="M1008,295L1011,297L1081,337L1083,348L1110,367L1101,392L1103,403L1115,410L1116,415L1110,427L1111,433L1110,442L1117,454L1125,474L1132,478L1117,489L1095,497L1084,497L1077,503L1063,503L1058,506L1035,500L1020,502L1015,475L1008,466L1004,460L985,457L974,451L962,447L954,444L946,439L936,414L924,403L920,392L922,382L919,364L927,363L934,356L941,346L946,342L946,336L942,331L941,323L946,321L947,310L940,299L947,296L968,296Z" fill="#E0E0E0" stroke="#fff" stroke-width=".4"/><path d="M181,-283L181,-281L180,-277L180,-244L116,-245L117,-191L99,-189L94,-178L98,-148L22,-148L17,-141L18,-150L19,-150L62,-151L65,-159L73,-168L79,-197L106,-220L115,-247L121,-249L128,-266L144,-268L151,-265L160,-265L166,-270L178,-271L178,-283Z" fill="#E0E0E0" stroke="#fff" stroke-width=".4"/><path d="M919,364L922,382L920,392L924,403L936,414L946,439L938,437L912,440L907,443L902,455L906,464L902,487L900,507L905,511L919,519L924,515L926,536L911,536L903,525L896,517L881,514L877,504L865,510L849,507L843,498L830,496L821,497L820,491L813,490L805,489L793,492L784,491L779,493L780,470L774,462L772,450L775,438L771,431L771,419L747,419L749,412L739,412L738,415L726,416L721,427L718,432L708,429L701,432L688,434L681,424L676,417L671,405L666,391L609,391L602,393L596,393L588,395L586,389L590,387L591,379L594,374L601,370L606,371L613,364L624,364L625,370L632,373L644,361L655,351L660,345L659,329L668,310L677,300L689,291L692,285L692,278L695,271L694,260L697,243L700,231L706,220L707,208L709,195L717,185L727,179L743,185L755,192L770,194L784,198L790,186L793,185L801,187L823,177L831,181L837,181L840,176L847,174L862,176L874,177L881,175L892,191L901,193L906,190L915,191L926,187L931,195L948,208L947,231L954,234L948,241L941,246L933,256L929,265L928,281L924,288L924,303L918,308L917,320L915,321L913,332L918,341Z" fill="#E0E0E0" stroke="#fff" stroke-width=".4"/><path d="M826,116L811,108L805,102L803,96L807,88L806,80L795,67L793,59L793,54L786,48L786,37L782,29L775,30L777,23L782,14L780,6L786,-0L782,-5L787,-17L796,-32L813,-31L812,-111L812,-120L835,-120L835,-162L913,-162L988,-162L1065,-162L1071,-141L1067,-137L1070,-116L1077,-92L1084,-87L1095,-79L1085,-67L1071,-64L1065,-58L1063,-44L1054,-15L1057,-7L1053,11L1046,30L1034,40L1026,55L1024,63L1014,69L1009,89L1009,107L1009,92L1006,91L1006,82L1004,75L994,67L992,53L994,38L985,37L984,41L972,42L977,48L978,60L968,71L958,85L948,87L932,76L924,80L922,85L912,89L912,93L892,93L890,89L876,88L869,92L863,90L853,79L850,73L836,76L831,85L826,103L819,106L813,108Z" fill="#E0E0E0" stroke="#fff" stroke-width=".4"/><path d="M812,-111L813,-31L796,-32L787,-17L782,-5L786,-0L780,6L782,14L777,23L775,30L782,29L786,37L786,48L793,54L793,59L781,62L771,70L757,92L739,101L720,100L714,101L716,108L706,115L698,123L673,130L669,126L665,125L662,130L646,132L649,127L643,113L640,105L631,102L620,90L624,81L633,83L639,81L649,82L639,64L640,51L638,37L630,25L632,15L620,15L620,2L612,-6L620,-32L645,-51L646,-78L654,-119L658,-128L650,-135L649,-142L642,-147L637,-180L657,-191L734,-151Z" fill="#E0E0E0" stroke="#fff" stroke-width=".4"/><path d="M-655,196L-666,214L-672,228L-679,235L-689,237L-691,231L-696,230L-702,236L-710,232L-705,223L-704,215L-700,206L-708,195L-709,181L-699,165L-693,167L-678,171L-658,188ZM469,-832L478,-824L506,-819L496,-799L494,-778L489,-773L480,-776L480,-769L466,-753L466,-740L475,-744L482,-732L481,-724L487,-714L480,-705L485,-684L496,-681L493,-669L476,-654L437,-661L409,-652L407,-636L384,-633L363,-645L355,-639L320,-651L312,-662L322,-678L326,-733L306,-762L291,-777L262,-788L260,-809L285,-816L317,-808L311,-842L330,-829L375,-852L381,-877L398,-883L401,-873L410,-872L419,-860L432,-846L442,-848L459,-834L463,-832ZM519,-641L531,-651L535,-628L528,-608L519,-613L515,-631Z" fill="#E0E0E0" stroke="#fff" stroke-width=".4"/><path d="M24,10L16,-6L7,-13L15,-17L24,-31L29,-41L36,-48L45,-46L55,-50L66,-50L75,-45L88,-39L100,-24L113,-11L113,2L117,13L124,19L126,27L125,33L122,34L112,32L110,35L106,35L92,30L83,30L47,29L42,31L35,31L25,34L22,19L39,19L44,16L48,16L55,12L63,16L72,16L80,12L76,6L70,9L64,9L56,4L50,5L45,9Z" fill="#E0E0E0" stroke="#fff" stroke-width=".4"/><path d="M125,33L126,27L124,19L117,13L113,2L113,-11L119,-14L122,-26L128,-27L142,-21L153,-25L160,-24L163,-28L241,-28L246,-42L242,-45L233,-133L224,-224L253,-225L319,-178L384,-133L389,-123L401,-117L410,-114L410,-101L432,-103L432,-56L421,-42L420,-30L402,-26L376,-25L369,-18L356,-17L344,-17L339,-21L328,-18L310,-9L306,-3L291,6L289,11L280,15L271,12L266,17L263,31L247,47L248,54L243,62L244,74L236,77L231,79L228,71L223,73L219,73L216,79L201,78L195,75L193,77L187,72L188,66L186,63L181,65L182,59L186,54L178,45L176,40L172,36L168,35L163,38L157,41L151,45L143,43L138,38L135,38L129,40L126,40Z" fill="#E0E0E0" stroke="#fff" stroke-width=".4"/><path d="M17,-141L22,-148L98,-148L94,-178L99,-189L117,-191L116,-245L180,-244L180,-277L253,-225L224,-224L233,-133L242,-45L246,-42L241,-28L163,-28L160,-24L153,-25L142,-21L128,-27L122,-26L119,-14L113,-11L100,-24L88,-39L75,-45L66,-50L55,-50L45,-46L36,-48L29,-41L27,-52L33,-62L35,-81L33,-101L31,-112L33,-122L28,-132Z" fill="#E0E0E0" stroke="#fff" stroke-width=".4"/><path d="M637,-180L642,-147L649,-142L650,-135L658,-128L654,-119L646,-78L645,-51L620,-32L612,-6L620,2L620,15L632,15L630,25L625,26L624,32L621,33L608,11L603,10L588,21L573,15L562,14L557,17L545,16L534,25L524,25L500,15L491,20L481,20L474,12L455,5L434,7L429,11L426,23L420,31L419,48L404,37L397,37L391,43L391,29L369,25L368,15L357,2L355,-7L356,-17L369,-18L376,-25L402,-26L420,-30L421,-42L432,-56L432,-103L459,-112L515,-153L582,-193L613,-184L624,-172Z" fill="#E0E0E0" stroke="#fff" stroke-width=".4"/><path d="M401,155L402,123L402,111L405,98L411,92L421,80L419,75L423,67L418,55L419,48L420,31L426,23L429,11L434,7L455,5L474,12L481,20L491,20L500,15L524,25L534,25L545,16L557,17L562,14L573,15L588,21L603,10L608,11L621,33L624,32L632,40L630,44L629,50L613,66L607,78L605,88L601,93L597,107L586,115L583,125L579,132L577,141L564,147L553,139L545,139L534,151L528,151L519,170L514,184L494,191L487,190L479,194L463,194L453,181L447,167L433,154L418,155Z" fill="#E0E0E0" stroke="#fff" stroke-width=".4"/><path d="M630,25L638,37L640,51L639,64L649,82L639,81L633,83L624,81L620,90L631,102L640,105L643,113L649,127L646,132L636,152L631,155L630,170L632,179L630,184L639,195L641,202L648,212L657,218L658,227L660,232L659,243L643,238L627,233L603,232L600,231L589,234L577,231L568,233L536,232L539,217L532,204L523,201L519,192L514,189L514,184L519,170L528,151L534,151L545,139L553,139L564,147L577,141L579,132L583,125L586,115L597,107L601,93L605,88L607,78L613,66L629,50L630,44L632,40L624,32L625,26Z" fill="#E0E0E0" stroke="#fff" stroke-width=".4"/><path d="M366,62L364,72L370,78L377,85L377,94L381,98L380,144L385,157L370,161L365,154L360,142L358,132L363,114L358,107L356,92L356,78L348,67L349,61Z" fill="#E0E0E0" stroke="#fff" stroke-width=".4"/><path d="M349,61L348,67L356,78L356,92L358,107L363,114L358,132L360,142L365,154L370,161L339,173L328,179L311,185L293,179L294,172L286,155L291,133L299,116L294,88L291,74L292,62L326,61L334,63L340,60Z" fill="#E0E0E0" stroke="#fff" stroke-width=".4"/><path d="M193,77L195,75L201,78L216,79L219,73L223,73L228,71L231,79L236,77L244,74L253,78L256,85L265,89L272,84L281,83L294,88L299,116L291,133L286,155L294,172L293,179L285,180L271,176L259,176L236,179L222,185L203,192L199,192L201,176L202,173L202,165L194,157L187,156L182,151L186,142L184,132L185,127L188,127L189,118L188,114L190,112L197,109L192,94L187,85L189,79Z" fill="#E0E0E0" stroke="#fff" stroke-width=".4"/><path d="M83,30L92,30L106,35L110,35L112,32L122,34L125,33L126,40L129,40L135,38L138,38L143,43L151,45L157,41L163,38L168,35L172,36L176,40L178,45L186,54L182,59L181,65L186,63L188,66L187,72L193,77L189,79L187,85L192,94L197,109L190,112L188,114L189,118L188,127L185,127L179,126L176,134L170,134L166,130L168,122L159,110L154,112L150,113L145,114L145,107L142,101L143,96L138,87L133,80L117,80L113,84L108,85L104,89L102,94L92,103L83,91L76,84L71,81L66,77L63,68L61,64L55,61L64,51L69,51L75,48L79,48L82,45L80,39L82,37Z" fill="#E0E0E0" stroke="#fff" stroke-width=".4"/><path d="M25,34L35,31L42,31L47,29L83,30L82,37L80,39L82,45L79,48L75,48L69,51L64,51L55,61L45,52L36,51L32,46L32,43L26,38Z" fill="#E0E0E0" stroke="#fff" stroke-width=".4"/><path d="M185,127L184,132L186,142L182,151L187,156L194,157L202,165L202,173L201,176L199,192L194,192L174,183L156,168L140,157L127,144L131,138L132,132L141,122L150,113L154,112L159,110L168,122L166,130L170,134L176,134L179,126Z" fill="#E0E0E0" stroke="#fff" stroke-width=".4"/><path d="M92,103L102,94L104,89L108,85L113,84L117,80L133,80L138,87L143,96L142,101L145,107L145,114L150,113L141,122L132,132L131,138L127,144L121,143L107,135L97,125L94,117Z" fill="#E0E0E0" stroke="#fff" stroke-width=".4"/><path d="M244,74L243,62L248,54L247,47L263,31L266,17L271,12L280,15L289,11L291,6L306,-3L310,-9L328,-18L339,-21L344,-17L356,-17L355,-7L357,2L368,15L369,25L391,29L391,43L387,49L377,51L373,59L366,62L349,61L340,60L334,63L326,61L292,62L291,74L294,88L281,83L272,84L265,89L256,85L253,78Z" fill="#E0E0E0" stroke="#fff" stroke-width=".4"/><path d="M881,175L874,177L862,176L847,174L840,176L837,181L831,181L823,177L801,187L793,185L790,186L784,198L770,194L755,192L743,185L727,179L717,185L709,195L707,208L695,207L682,204L670,214L660,232L658,227L657,218L648,212L641,202L639,195L630,184L632,179L630,170L631,155L636,152L646,132L662,130L665,125L669,126L673,130L698,123L706,115L716,108L714,101L720,100L739,101L757,92L771,70L781,62L793,59L795,67L806,80L807,88L803,96L805,102L811,108L826,116L837,124L837,130L850,141L858,149L863,161L878,169Z" fill="#E0E0E0" stroke="#fff" stroke-width=".4"/><path d="M707,208L706,220L700,231L697,243L694,260L695,271L692,278L692,285L689,291L677,300L668,310L659,329L660,345L655,351L644,361L632,373L625,370L624,364L613,364L606,371L601,370L594,363L588,366L580,375L564,354L579,343L572,330L579,325L592,323L593,314L604,324L621,325L627,315L629,302L627,287L618,276L626,253L621,249L607,251L601,241L603,232L627,233L643,238L659,243L660,232L670,214L682,204L695,207Z" fill="#E0E0E0" stroke="#fff" stroke-width=".4"/><path d="M568,233L577,231L589,234L600,231L603,232L601,241L607,251L621,249L626,253L618,276L627,287L629,302L627,315L621,325L604,324L593,314L592,323L579,325L572,330L579,343L564,354L544,334L532,318L520,298L520,292L525,285L529,271L533,257L540,256L568,256Z" fill="#E0E0E0" stroke="#fff" stroke-width=".4"/><path d="M536,232L568,233L568,256L540,256L533,257L530,254Z" fill="#E0E0E0" stroke="#fff" stroke-width=".4"/><path d="M946,439L954,444L962,447L974,451L985,457L994,465L999,482L996,488L992,504L996,520L990,527L984,545L994,551L935,567L937,582L922,584L911,592L909,599L902,601L885,618L874,631L868,631L861,629L840,627L836,625L836,623L828,619L816,618L800,622L787,610L774,593L775,529L815,529L814,523L817,515L813,506L815,496L813,490L820,491L821,497L830,496L843,498L849,507L865,510L877,504L881,514L896,517L903,525L911,536L926,536L924,515L919,519L905,511L900,507L902,487L906,464L902,455L907,443L912,440L938,437Z" fill="#E0E0E0" stroke="#fff" stroke-width=".4"/><path d="M985,457L1004,460L1008,466L1015,475L1020,502L1015,517L1020,543L1027,543L1034,549L1042,563L1044,589L1035,594L1029,608L1017,595L1015,581L1019,572L1018,564L1011,558L1005,560L994,551L984,545L990,527L996,520L992,504L996,488L999,482L994,465Z" fill="#E0E0E0" stroke="#fff" stroke-width=".4"/><path d="M1020,502L1035,500L1058,506L1063,503L1077,503L1084,497L1095,497L1117,489L1132,478L1135,487L1134,507L1137,524L1138,555L1141,565L1135,579L1128,594L1115,606L1098,614L1076,624L1054,646L1046,649L1033,664L1025,669L1023,683L1032,699L1036,711L1036,718L1040,717L1039,737L1036,747L1041,751L1038,760L1030,767L1014,774L990,786L982,794L983,803L988,805L987,816L972,816L970,806L967,796L966,789L969,765L964,750L955,720L975,696L980,681L983,679L986,667L982,661L983,646L987,632L987,606L977,599L968,598L963,593L954,589L938,589L937,582L935,567L994,551L1005,560L1011,558L1018,564L1019,572L1015,581L1017,595L1029,608L1035,594L1044,589L1042,563L1034,549L1027,543L1020,543L1015,517Z" fill="#E0E0E0" stroke="#fff" stroke-width=".4"/><path d="M601,370L594,374L591,379L590,387L586,389L580,375L588,366L594,363ZM588,395L596,393L602,393L609,391L666,391L671,405L676,417L681,424L688,434L701,432L708,429L718,432L721,427L726,416L738,415L739,412L749,412L747,419L771,419L771,431L775,438L772,450L774,462L780,470L779,493L784,491L793,492L805,489L813,490L815,496L813,506L817,515L814,523L815,529L775,529L774,593L787,610L800,622L764,631L717,628L704,618L625,619L622,620L610,611L598,611L586,614L577,618L575,605L578,587L584,569L585,560L592,542L596,534L607,521L614,512L616,497L615,486L609,479L604,467L599,455L600,451L606,443L600,425L596,411L586,399Z" fill="#E0E0E0" stroke="#fff" stroke-width=".4"/><path d="M941,323L942,331L946,336L946,342L941,346L934,356L927,363L919,364L918,341L913,332L925,333L931,322Z" fill="#E0E0E0" stroke="#fff" stroke-width=".4"/><path d="M24,10L45,9L50,5L56,4L64,9L70,9L76,6L80,12L72,16L63,16L55,12L48,16L44,16L39,19L22,19Z" fill="#E0E0E0" stroke="#fff" stroke-width=".4"/><path d="M180,-277L181,-281L181,-283L180,-309L212,-325L231,-329L247,-335L255,-346L277,-355L278,-372L289,-374L298,-382L323,-386L327,-395L322,-400L315,-425L314,-439L307,-454L325,-467L346,-471L359,-481L377,-489L410,-493L442,-495L452,-491L471,-501L491,-501L499,-495L513,-497L509,-484L512,-461L507,-442L495,-429L497,-411L513,-397L513,-392L525,-383L533,-342L539,-322L540,-312L537,-294L538,-284L536,-272L538,-258L530,-249L541,-233L542,-224L549,-212L558,-216L573,-206L582,-193L515,-153L459,-112L432,-103L410,-101L410,-114L401,-117L389,-123L384,-133L319,-178L253,-225Z" fill="#E0E0E0" stroke="#fff" stroke-width=".4"/><path d="M307,-454L314,-439L315,-425L322,-400L327,-395L323,-386L298,-382L289,-374L278,-372L277,-355L255,-346L247,-335L231,-329L212,-325L180,-309L181,-283L178,-283L178,-271L166,-270L160,-265L151,-265L144,-268L128,-266L121,-249L115,-247L106,-220L79,-197L73,-168L65,-159L62,-151L19,-150L18,-150L19,-159L27,-165L33,-176L32,-183L38,-198L49,-212L56,-215L61,-227L61,-239L68,-252L81,-260L94,-283L94,-283L104,-291L122,-294L137,-309L147,-315L163,-333L158,-361L166,-381L168,-393L181,-409L200,-419L215,-429L228,-454L234,-468L248,-468L260,-458L278,-460L298,-454Z" fill="#E0E0E0" stroke="#fff" stroke-width=".4"/><path d="M1065,-162L988,-162L913,-162L835,-162L835,-240L835,-318L829,-336L834,-350L831,-359L838,-370L864,-371L882,-365L902,-358L911,-354L926,-362L934,-368L951,-370L964,-367L970,-356L974,-363L990,-358L1005,-357L1015,-362L1025,-329L1027,-324L1022,-315L1018,-298L1012,-287L1008,-283L1001,-290L993,-300L979,-331L977,-329L985,-306L997,-284L1011,-250L1019,-238L1025,-226L1042,-202L1038,-199L1039,-185L1062,-166Z" fill="#E0E0E0" stroke="#fff" stroke-width=".4"/><path d="M835,-162L835,-120L812,-120L812,-111L734,-151L657,-191L637,-180L624,-172L613,-184L582,-193L573,-206L558,-216L549,-212L542,-224L541,-233L530,-249L538,-258L536,-272L538,-284L537,-294L540,-312L539,-322L533,-342L543,-347L544,-357L542,-366L556,-375L562,-382L571,-389L572,-406L595,-398L603,-400L619,-397L645,-386L654,-366L672,-362L699,-352L720,-341L729,-347L738,-357L734,-374L740,-386L754,-396L767,-400L794,-395L800,-385L808,-384L814,-381L833,-378L838,-370L831,-359L834,-350L829,-336L835,-318L835,-240Z" fill="#E0E0E0" stroke="#fff" stroke-width=".4"/><path d="M1277,121L1222,179L1197,180L1180,194L1167,194L1162,200L1149,200L1141,194L1123,202L1117,210L1104,208L1100,206L1096,207L1089,207L1065,190L1051,190L1045,184L1045,173L1035,169L1023,148L1014,144L1011,136L1001,126L989,125L996,114L1006,113L1009,107L1009,89L1014,69L1024,63L1026,55L1034,40L1046,30L1053,11L1057,-7L1079,-2L1085,-17L1097,-8L1108,-13L1113,-9L1126,-9L1143,-1L1148,6L1157,13L1165,24L1172,31L1165,40L1158,49L1160,54L1160,61L1171,61L1176,59L1180,63L1176,70L1183,81L1190,90L1197,97L1261,121Z" fill="#E0E0E0" stroke="#fff" stroke-width=".4"/><path d="M1008,295L968,296L947,296L940,299L928,305L924,303L924,288L928,281L929,265L933,256L941,246L948,241L954,234L947,231L948,208L956,203L968,207L984,203L998,203L1009,194L1019,207L1021,217L1030,239L1022,254L1013,267L1007,274Z" fill="#E0E0E0" stroke="#fff" stroke-width=".4"/><path d="M940,299L947,310L946,321L941,323L931,322L925,333L913,332L915,321L917,320L918,308L924,303L928,305Z" fill="#E0E0E0" stroke="#fff" stroke-width=".4"/><path d="M948,208L931,195L926,187L915,191L906,190L901,193L892,191L881,175L878,169L863,161L858,149L850,141L837,130L837,124L826,116L813,108L819,106L826,103L831,85L836,76L850,73L853,79L863,90L869,92L876,88L890,89L892,93L912,93L912,89L922,85L924,80L932,76L948,87L958,85L968,71L978,60L977,48L972,42L984,41L985,37L994,38L992,53L994,67L1004,75L1006,82L1006,91L1009,92L1009,107L1006,113L996,114L989,125L1001,126L1011,136L1014,144L1023,148L1035,169L1021,182L1009,194L998,203L984,203L968,207L956,203Z" fill="#E0E0E0" stroke="#fff" stroke-width=".4"/></g><g clip-path="url(#v)"><path d="M380.4,155.5L380.2,154.9L383.4,154L382.8,151.5L380.8,148.4L380.0,147.9L379.6,146.3L380.1,145.3L379.8,144.7L379.6,142.6L378.7,140.4L380.5,140.3L380.5,133.0L380.5,126.0L380.5,120.0L380.5,115.3L380.1,109.7L380.1,105.5L380.0,100.0L379.4,98.3L376.6,95.4L375.8,93.9L375.7,91.9L375.1,89.8L375.0,86.2L375.0,82.0L374.8,81.4L371.7,79.3L367.5,76.5L364.3,74.3L364.1,74.2L363.8,73.6L364.2,67.3L364.9,66.4L365.9,63.8L366.4,61.7L366.8,61.7L367.5,61.0L368.0,60.0L368.6,60.2L369.6,60.4L370.0,60.0L369.9,59.2L370.2,58.4L371.0,58.1L371.2,57.4L371.2,56.5L371.8,56.3L372.9,56.4L373.8,56.1L374.5,55.7L375.4,54.0L375.9,53.5L376.1,53.0L376.6,52.7L378.1,52.5L379.2,52.6L380.0,53.6L385.0,52.8L387.4,53.2L392.2,49.1L393.4,47.8L394.8,44.9L395.3,43.7L395.8,41.7L394.8,38.0L394.9,37.3L396.9,36.5L399.4,35.8L400.3,35.8L401.0,35.5L401.9,34.7L403.4,34.1L404.3,34.3L404.8,34.4L410.1,39.4L412.4,41.9L413.0,43.2L414.2,44.1L415.9,44.6L417.6,45.9L418.7,47.7L418.0,49.0L416.7,51.6L416.6,53.7L419.6,58.0L419.9,58.5L420.7,59.2L421.1,60.0L421.5,62.1L421.7,64.5L421.9,66.1L423.3,68.4L423.4,69.3L422.4,72.7L422.2,73.0L422.0,73.1L420.4,72.9L419.7,73.2L418.9,74.4L418.4,75.5L418.4,76.0L419.7,78.1L418.9,81.2L418.0,83.1L416.4,84.2L415.0,84.5L414.1,85.0L413.5,85.7L413.6,87.9L411.5,89.8L410.4,91.2L409.9,92.1L410.1,94.7L409.4,97.3L408.0,99.3L405.2,99.8L402.8,100.0L402.0,105.3L402.0,108.6L401.8,112.0L401.4,113.3L401.6,115.3L401.4,119.6L401.1,123.1L401.5,124.0L401.7,126.1L401.7,128.1L402.4,129.6L403.0,130.9L403.0,131.5L402.7,132.0L402.4,132.5L402.4,137.4L402.4,138.9L402.3,139.8L401.7,140.6L402.0,143.1L402.4,144.7L402.8,145.9L402.4,146.8L402.0,148.1L401.5,151.4L401.5,152.5L393.4,153.4L384.3,154.7Z" fill="#4ECDC4" stroke="#2C3E50" stroke-width="1"/></g><circle cx="400.0" cy="150.0" r="4" fill="#E74C3C" stroke="#fff" stroke-width="2"/><text x="400.0" y="140.0" text-anchor="middle" font-family="sans-serif" font-weight="700" font-size="10" fill="#2D3436">Porto-Novo</text></svg>