<svg viewBox="0 0 800 300" xmlns="http://www.w3.org/2000/svg"><defs><clipPath id="v"><rect width="800" height="300"/></clipPath></defs><rect width="800" height="300" fill="#DCEEF8"/><g clip-path="url(#v)"><path d="M2219,677L2220,905L2221,1135L2159,1077L2088,1062L2071,1083L1982,1085L2012,1027L2056,1008L2038,931L2004,872L1869,813L1811,807L1706,743L1686,776L1659,783L1643,757L1643,727L1590,692L1665,667L1715,668L1709,650L1606,650L1579,608L1516,595L1487,561L1581,544L1617,521L1729,550L1740,576L1760,689L1832,731L1890,656L1970,614L2032,614L2092,639L2144,664ZM1100,1119L1107,1133L1108,1154L1062,1207L1003,1223L994,1214L1000,1190L1030,1147ZM1745,978L1738,925L1750,900L1765,876L1781,897L1781,930ZM605,206L565,269L616,336L604,368L683,432L600,441L577,488L580,551L512,599L511,669L484,776L473,751L394,782L366,740L317,736L282,713L199,738L173,705L128,708L70,700L59,606L25,587L-9,527L-19,466L-11,402L31,355L43,402L90,441L135,427L180,432L221,397L254,391L320,410L377,395L413,298L440,274L464,194L544,194ZM1407,691L1484,711L1509,765L1450,736L1392,730L1352,735L1304,732L1320,694ZM1232,760L1184,747L1171,717L1241,714L1259,737ZM1306,344L1311,382L1353,388L1359,416L1355,477L1319,470L1309,513L1338,550L1318,558L1290,514L1269,425L1283,369ZM957,434L1037,431L1106,381L1118,396L1062,465L1010,479L943,465L826,469L765,479L755,532L818,594L855,562L986,538L980,570L950,560L919,601L858,628L924,718L911,742L974,823L973,869L936,889L909,865L942,807L874,834L856,815L866,788L815,747L821,679L774,700L780,782L783,882L738,892L708,871L728,807L717,739L688,739L666,691L695,645L705,590L740,485L755,456L815,404L869,424ZM773,1215L681,1166L746,1152L782,1173L807,1195L802,1214ZM846,1093L893,1088L955,1062L945,1102L840,1122L747,1113L747,1087L802,1072ZM631,1081L674,1075L692,1105L611,1120L562,1129L525,1129L549,1088L587,1087L606,1062ZM-51,945L-42,970L92,977L108,948L237,981L262,1027L367,1040L453,1082L373,1109L296,1080L233,1082L161,1077L95,1064L15,1037L-37,1030L-66,1039L-193,1010L-205,980L-269,975L-221,908L-137,912L-80,939ZM-339,571L-327,620L-302,659L-251,665L-217,709L-235,796L-238,905L-315,906L-374,847L-463,790L-493,748L-546,691L-581,639L-634,541L-695,483L-716,422L-741,368L-804,324L-841,264L-893,225L-966,148L-972,112L-927,115L-819,129L-758,197L-704,244L-665,274L-599,349L-528,350L-469,398L-429,456L-376,488L-404,545L-364,569Z" fill="#E0E0E0" stroke="#fff" stroke-width=".4"/><path d="M-341,-241L-281,-269L-207,-275L-238,-318L-121,-373L-112,-459L-128,-507L-116,-579L-133,-630L-186,-680L-230,-745L-288,-832L-372,-876L-352,-902L-307,-922L-334,-987L-420,-987L-451,-1055L-492,-1115L-455,-1133L-399,-1133L-331,-1142L-272,-1182L-238,-1154L-174,-1140L-185,-1096L-152,-1066L-82,-1046L-175,-982L-233,-912L-248,-860L-195,-783L-130,-687L-66,-642L-24,-584L8,-451L-1,-325L-60,-278L-140,-232L-197,-173L-284,-107L-309,-153L-289,-201Z" fill="#E0E0E0" stroke="#fff" stroke-width=".4"/><path d="M811,-399L775,-454L835,-451L859,-425L841,-363ZM933,-205L951,-225L958,-269L997,-273L986,-225L1037,-294L1031,-226L1006,-203L984,-158L962,-137L919,-186ZM1198,-94L1205,-47L1209,-8L1185,56L1160,-15L1127,20L1149,72L1129,105L1047,64L1028,13L1049,-20L1005,-53L983,-24L950,-27L898,12L887,-8L914,-68L958,-87L996,-114L1021,-82L1074,-101L1085,-133L1134,-135L1130,-189L1187,-156L1193,-120ZM648,-158L555,-91L590,-140L640,-184L682,-233L719,-304L731,-246L685,-207ZM916,-799L904,-769L928,-716L910,-656L869,-631L858,-573L873,-516L910,-508L941,-516L1028,-476L1022,-437L1044,-420L1037,-387L983,-422L957,-460L939,-433L895,-476L831,-466L796,-482L800,-511L822,-530L801,-546L792,-520L757,-562L747,-593L744,-663L773,-639L780,-753L802,-820L845,-820L888,-799L909,-818ZM895,-307L884,-341L926,-319L970,-319L969,-289L937,-259L892,-238L890,-271ZM1137,-360L1156,-281L1103,-300L1104,-276L1121,-232L1088,-216L1085,-266L1064,-270L1053,-313L1094,-307L1093,-334L1051,-388L1117,-387Z" fill="#E0E0E0" stroke="#fff" stroke-width=".4"/><path d="M-638,43L-626,31L-569,61L-563,97L-517,89L-494,60L-478,67L-437,109L-408,156L-404,203L-411,235L-404,259L-399,300L-375,320L-347,381L-348,405L-398,410L-464,358L-547,302L-555,267L-595,220L-605,162L-630,124L-622,73ZM605,206L544,194L464,194L440,274L413,298L377,395L320,410L254,391L221,397L180,432L135,427L90,441L43,402L31,355L82,379L136,366L150,307L180,294L264,279L314,223L348,179L380,215L394,191L428,194L432,149L435,114L489,66L524,11L552,10L588,46L591,77L637,96L695,117L690,145L644,148L656,182Z" fill="#E0E0E0" stroke="#fff" stroke-width=".4"/></g><g clip-path="url(#v)"><path d="M413.4,152.8L415.1,155.1L419.4,163.3L422.2,171.4L422.9,183.8L426.2,189.2L425.7,190.3L423.7,191.1L420.7,191.5L415.4,190.3L410.9,188.5L407.1,175.1L405.3,167.4L405.6,158.3L405.3,152.8ZM405.3,152.8L399.6,155.9L394.0,159.6L388.5,162.9L385.7,165.6L386.7,169.1L388.0,177.2L388.8,183.4L390.8,185.8L392.3,188.3L391.8,191.0L388.3,196.1L390.3,197.2L387.8,204.0L384.2,209.1L379.5,213.2L376.2,214.1L373.7,212.4L369.4,207.9L364.9,201.6L362.9,197.9L356.3,197.5L353.8,194.5L353.8,191.0L351.8,186.9L349.3,182.4L345.5,179.0L340.3,176.3L338.2,174.4L346.0,174.5L354.6,173.3L363.4,169.6L371.7,165.1L378.7,159.9L385.5,154.2L392.3,149.5L403.1,144.2L406.9,144.7L406.9,148.4Z" fill="#4ECDC4" stroke="#2C3E50" stroke-width="1"/></g><circle cx="400.0" cy="150.0" r="4" fill="#E74C3C" stroke="#fff" stroke-width="2"/><text x="400.0" y="140.0" text-anchor="middle" font-family="sans-serif" font-weight="700" font-size="10" fill="#2D3436">Bandar Seri Begawan</text></svg>