<svg viewBox="0 0 800 300" xmlns="http://www.w3.org/2000/svg"><defs><clipPath id="v"><rect width="800" height="300"/></clipPath></defs><rect width="800" height="300" fill="#DCEEF8"/><g clip-path="url(#v)"><path d="M2532,136L2535,134L2538,137L2536,142L2531,143L2526,142L2525,138L2528,135ZM2549,127L2543,129L2538,131L2537,128L2541,126L2544,126L2549,123L2549,123L2549,127ZM-605,123L-605,123L-605,123L-604,122L-605,127L-605,127L-605,127L-605,123Z" fill="#E0E0E0" stroke="#fff" stroke-width=".4"/><path d="M-104,-514L-80,-514L-54,-514L-45,-514L-18,-514L8,-514L34,-514L60,-514L90,-514L120,-514L138,-514L138,-519L141,-519L143,-512L145,-509L151,-509L160,-507L169,-502L176,-504L187,-501L190,-501L197,-505L206,-500L214,-495L221,-490L228,-486L229,-483L231,-482L230,-480L233,-480L235,-481L235,-478L237,-476L239,-476L240,-475L239,-473L249,-467L250,-456L252,-445L250,-438L245,-431L244,-427L243,-426L244,-424L247,-422L249,-422L260,-429L269,-431L280,-436L280,-438L280,-441L278,-444L282,-446L291,-446L299,-446L302,-450L303,-451L312,-460L316,-462L329,-463L345,-463L346,-466L349,-466L353,-468L356,-474L358,-484L365,-493L368,-490L374,-492L378,-489L378,-471L384,-464L385,-460L376,-454L367,-450L357,-446L353,-439L351,-436L351,-430L354,-424L358,-424L357,-428L359,-425L359,-422L353,-420L349,-420L342,-418L338,-418L333,-417L326,-414L339,-416L341,-414L329,-410L324,-410L324,-412L321,-408L324,-408L322,-400L315,-391L315,-394L313,-394L310,-397L312,-391L314,-389L314,-385L311,-381L306,-372L306,-372L308,-380L304,-384L303,-393L301,-388L303,-381L297,-383L303,-379L304,-369L306,-368L307,-364L308,-354L303,-346L294,-342L288,-336L284,-336L279,-332L278,-328L268,-321L263,-317L259,-310L258,-303L259,-296L262,-287L266,-280L266,-276L270,-265L270,-258L270,-254L268,-248L265,-247L261,-248L259,-253L256,-255L251,-263L247,-271L246,-275L248,-281L245,-287L238,-295L235,-297L226,-292L225,-293L220,-297L215,-300L205,-299L197,-300L190,-299L187,-297L188,-295L188,-291L190,-289L188,-287L185,-289L182,-287L176,-287L169,-292L161,-291L155,-294L150,-293L142,-290L134,-283L125,-279L121,-274L119,-270L119,-263L119,-258L121,-255L117,-254L111,-257L104,-260L102,-264L100,-271L95,-277L92,-283L87,-289L81,-294L74,-293L68,-285L61,-288L57,-291L54,-297L51,-302L46,-307L42,-310L39,-314L23,-314L23,-309L16,-309L-1,-309L-21,-317L-34,-322L-33,-324L-44,-323L-54,-322L-56,-327L-62,-333L-66,-334L-67,-337L-72,-338L-75,-341L-83,-342L-85,-344L-86,-349L-95,-360L-102,-375L-102,-378L-105,-382L-112,-391L-113,-400L-118,-407L-116,-416L-117,-426L-119,-435L-116,-447L-115,-458L-114,-469L-115,-486L-118,-497L-121,-503L-120,-506L-107,-501L-102,-489L-100,-492L-102,-503ZM-390,-200L-388,-199L-387,-198L-385,-194L-385,-194L-388,-192L-391,-190L-392,-189L-394,-190L-394,-193L-396,-196L-395,-197L-394,-199L-394,-201L-394,-201L-393,-201ZM-395,-206L-396,-205L-399,-204L-400,-206L-401,-207L-401,-208L-400,-208L-397,-207ZM-402,-210L-402,-209L-407,-209L-406,-210ZM-413,-215L-412,-214L-410,-211L-410,-211L-411,-211L-414,-211L-415,-213L-415,-214ZM-425,-220L-424,-217L-425,-217L-428,-218L-428,-219L-427,-220ZM-487,-688L-480,-686L-479,-680L-484,-677L-490,-680L-495,-685ZM-371,-647L-365,-645L-361,-640L-369,-633L-378,-627L-382,-631L-383,-638L-375,-644ZM-263,-884L-264,-797L-264,-686L-255,-686L-246,-681L-240,-673L-233,-662L-224,-672L-215,-677L-211,-668L-205,-661L-197,-654L-191,-642L-182,-624L-167,-614L-167,-604L-172,-596L-177,-602L-184,-607L-187,-621L-198,-634L-203,-649L-211,-650L-225,-651L-236,-655L-254,-673L-262,-676L-277,-683L-290,-681L-307,-689L-317,-697L-327,-693L-325,-681L-330,-680L-340,-676L-348,-670L-358,-666L-359,-677L-355,-694L-345,-700L-348,-704L-359,-694L-365,-682L-378,-670L-371,-662L-380,-649L-389,-643L-398,-638L-400,-630L-414,-622L-416,-615L-427,-608L-433,-609L-441,-605L-450,-600L-457,-595L-472,-590L-473,-593L-464,-600L-455,-605L-446,-613L-435,-615L-431,-621L-419,-631L-417,-634L-410,-640L-409,-653L-404,-662L-414,-657L-417,-660L-422,-654L-428,-663L-430,-657L-433,-665L-442,-658L-447,-658L-448,-668L-446,-675L-452,-681L-464,-678L-471,-686L-477,-690L-477,-700L-484,-708L-480,-719L-473,-729L-470,-739L-463,-740L-457,-737L-450,-747L-444,-745L-437,-751L-438,-760L-443,-764L-437,-772L-442,-772L-452,-767L-454,-763L-461,-767L-474,-765L-486,-770L-490,-778L-501,-790L-489,-799L-469,-810L-462,-810L-463,-799L-445,-800L-452,-813L-463,-822L-469,-833L-477,-843L-489,-851L-484,-863L-469,-864L-458,-875L-456,-888L-447,-900L-438,-903L-422,-915L-414,-913L-400,-927L-387,-921L-381,-909L-377,-914L-362,-913L-362,-907L-349,-902L-340,-905L-322,-897L-305,-894L-298,-891L-286,-895L-273,-887ZM-533,-752L-527,-748L-522,-750L-515,-745L-506,-742L-507,-740L-514,-736L-520,-740L-524,-744L-531,-742L-533,-744Z" fill="#E0E0E0" stroke="#fff" stroke-width=".4"/><path d="M370,524L374,531L378,542L390,551L402,555L398,563L390,563L385,558L380,557L370,557ZM467,258L465,266L462,277L462,287L461,289L460,296L459,302L470,311L469,318L475,323L474,328L466,342L453,348L435,351L426,350L427,356L426,365L427,371L422,375L413,376L405,372L401,375L402,387L408,390L413,387L416,393L408,397L401,404L399,416L397,423L389,423L382,429L380,439L388,448L397,451L394,462L383,470L378,486L370,491L366,497L369,512L375,520L371,520L363,517L342,515L338,507L338,497L332,498L329,493L329,478L335,472L338,464L337,457L342,446L345,429L344,422L348,420L347,415L343,413L346,408L342,403L340,389L343,387L342,373L344,361L346,351L351,347L349,336L349,326L355,319L355,310L360,299L360,289L358,288L354,270L359,259L358,249L361,240L367,231L373,225L371,221L373,218L372,202L382,197L385,187L384,185L391,176L403,178L408,185L411,178L421,178L423,180L439,196L446,197L457,204L466,208L467,212L458,227L467,230L477,231L484,230L492,222L493,214L498,212L502,217L502,225L494,231L488,235L479,244Z" fill="#E0E0E0" stroke="#fff" stroke-width=".4"/><path d="M370,524L370,557L380,557L385,558L382,564L375,569L370,568L365,567L359,562L350,560L339,552L330,544L318,527L325,530L337,540L349,545L353,539L356,529L364,523ZM362,137L366,143L368,149L372,153L369,162L374,173L378,186L384,185L385,187L382,197L372,202L373,218L371,221L373,225L367,231L361,240L358,249L359,259L354,270L358,288L360,289L360,299L355,310L355,319L349,326L349,336L351,347L346,351L344,361L342,373L343,387L340,389L342,403L346,408L343,413L347,415L348,420L344,422L345,429L342,446L337,457L338,464L335,472L329,478L329,493L332,498L338,497L338,507L342,515L363,517L371,520L363,519L359,523L351,528L350,542L346,542L336,537L326,527L315,519L312,510L315,502L310,493L309,470L313,457L322,447L309,443L317,432L320,411L330,416L335,391L329,388L326,403L321,401L323,384L326,362L330,355L328,344L327,331L331,331L336,313L342,296L346,281L344,265L346,257L345,244L351,232L352,213L355,193L358,172L357,157L355,144L360,141Z" fill="#E0E0E0" stroke="#fff" stroke-width=".4"/><path d="M343,-196L344,-191L344,-188L341,-186L344,-183L344,-181L338,-182L334,-182L328,-182L324,-181L319,-184L320,-186L328,-185L335,-184L338,-187L334,-191L334,-194L329,-196L331,-198L336,-198Z" fill="#E0E0E0" stroke="#fff" stroke-width=".4"/><path d="M344,-181L344,-183L341,-186L344,-188L344,-191L343,-196L345,-198L351,-198L357,-195L359,-196L360,-192L365,-192L365,-190L369,-189L373,-186L370,-182L366,-184L362,-184L359,-184L357,-183L354,-182L353,-184L350,-183L346,-177L344,-178Z" fill="#E0E0E0" stroke="#fff" stroke-width=".4"/><path d="M-54,-322L-44,-323L-33,-324L-34,-322L-21,-317L-1,-309L16,-309L23,-309L23,-314L39,-314L42,-310L46,-307L51,-302L54,-297L57,-291L61,-288L68,-285L74,-293L81,-294L87,-289L92,-283L95,-277L100,-271L102,-264L104,-260L111,-257L117,-254L121,-255L117,-246L116,-239L115,-226L114,-222L116,-217L118,-212L120,-205L126,-198L128,-193L132,-188L141,-186L144,-182L152,-184L159,-185L165,-187L171,-188L176,-192L179,-198L179,-205L181,-208L187,-211L196,-213L204,-213L209,-213L211,-211L211,-207L206,-201L204,-196L206,-194L204,-190L202,-183L200,-185L198,-185L196,-185L193,-179L192,-180L191,-180L191,-179L183,-179L174,-179L174,-173L171,-173L174,-170L177,-168L178,-166L179,-166L179,-163L168,-163L164,-155L165,-154L164,-151L164,-149L154,-159L149,-161L142,-164L137,-163L130,-160L126,-159L120,-161L113,-163L105,-167L98,-168L88,-173L81,-177L79,-180L74,-180L65,-183L61,-187L52,-193L47,-198L45,-203L48,-204L47,-207L49,-209L49,-212L47,-216L46,-220L43,-225L35,-234L26,-242L22,-248L14,-252L13,-254L14,-260L10,-263L5,-267L2,-274L-2,-275L-7,-280L-12,-285L-12,-288L-17,-296L-20,-304L-20,-308L-26,-312L-29,-311L-34,-314L-35,-310L-34,-305L-33,-297L-30,-293L-23,-286L-22,-284L-21,-283L-20,-280L-18,-280L-16,-274L-14,-271L-12,-268L-6,-263L-3,-253L-1,-249L2,-245L2,-240L6,-239L10,-235L13,-231L13,-229L9,-225L8,-225L5,-231L-0,-237L-7,-241L-11,-244L-11,-251L-12,-256L-16,-259L-22,-264L-24,-262L-26,-265L-31,-267L-36,-273L-36,-274L-32,-273L-29,-277L-28,-281L-35,-288L-40,-291L-44,-298L-47,-304L-51,-312Z" fill="#E0E0E0" stroke="#fff" stroke-width=".4"/><path d="M467,258L473,257L481,265L485,264L494,271L501,277L506,284L502,289L504,295L500,301L490,307L484,305L479,306L471,302L465,302L460,296L461,289L462,287L462,277L465,266Z" fill="#E0E0E0" stroke="#fff" stroke-width=".4"/><path d="M504,295L502,289L506,284L501,277L494,271L485,264L481,265L473,257L467,258L479,244L488,235L494,231L502,225L502,217L498,212L493,214L495,208L496,202L496,197L493,195L490,197L486,196L485,193L485,184L483,181L477,179L473,180L464,179L465,166L462,161L465,159L464,153L466,149L468,142L466,136L461,134L460,130L462,125L445,124L441,114L444,114L444,110L442,107L442,102L437,99L431,99L427,97L422,95L418,92L408,90L399,82L399,76L398,73L399,66L388,67L383,71L376,74L374,77L369,77L363,77L358,78L354,77L354,64L347,69L339,69L336,64L330,63L332,59L327,54L324,46L326,45L326,41L331,38L330,33L333,30L333,26L343,20L350,19L351,17L359,18L363,-6L364,-10L362,-15L358,-18L358,-25L363,-26L365,-25L365,-29L360,-30L360,-35L377,-35L380,-38L382,-35L384,-30L386,-31L391,-26L397,-27L399,-30L406,-32L409,-33L410,-37L417,-39L416,-41L409,-42L407,-47L408,-53L404,-56L406,-56L412,-55L419,-53L422,-55L428,-56L438,-60L441,-63L440,-66L444,-66L446,-64L445,-60L448,-59L450,-55L448,-52L446,-44L449,-40L449,-36L455,-32L459,-31L460,-33L463,-33L467,-35L469,-37L474,-36L476,-37L481,-36L482,-38L480,-39L481,-42L485,-41L489,-42L494,-40L498,-38L501,-41L503,-40L504,-38L508,-39L511,-42L514,-48L519,-56L522,-57L524,-52L529,-37L534,-35L534,-29L528,-22L530,-19L546,-18L546,-9L553,-15L564,-12L578,-6L583,-1L581,4L591,1L608,6L621,5L634,12L646,22L652,25L660,25L663,28L666,39L667,45L664,59L660,65L647,77L642,87L635,95L633,95L630,102L631,119L629,133L628,139L625,143L623,155L615,167L613,177L606,181L604,187L594,187L581,191L574,195L565,198L554,205L547,215L546,222L547,228L545,238L543,242L537,248L528,266L520,274L514,279L510,289Z" fill="#E0E0E0" stroke="#fff" stroke-width=".4"/><path d="M359,18L351,17L350,19L343,20L333,26L333,30L330,33L331,38L326,41L326,45L324,46L327,54L332,59L330,63L336,64L339,69L347,69L354,64L354,77L358,78L363,77L370,91L368,94L368,100L368,108L364,113L366,116L364,119L368,127L362,137L360,141L355,144L346,138L346,135L328,125L313,115L306,110L302,102L304,100L296,88L288,71L279,54L276,50L273,43L266,37L260,34L263,30L259,22L261,15L268,10L269,14L267,16L267,19L271,18L274,19L278,24L283,20L284,14L290,6L300,3L310,-6L313,-12L311,-19L314,-19L320,-15L322,-11L326,-9L332,0L338,1L343,-1L346,1L351,-0L358,4L352,13L355,13Z" fill="#E0E0E0" stroke="#fff" stroke-width=".4"/><path d="M386,-31L384,-30L382,-35L380,-38L377,-35L360,-35L360,-30L365,-29L365,-25L363,-26L358,-25L358,-18L362,-15L364,-10L363,-6L359,18L355,13L352,13L358,4L351,-0L346,1L343,-1L338,1L332,0L326,-9L322,-11L320,-15L314,-19L311,-19L308,-21L303,-24L301,-22L293,-23L291,-27L290,-27L281,-32L280,-35L283,-35L283,-40L285,-43L289,-44L293,-49L296,-54L293,-56L294,-61L292,-69L294,-71L293,-79L289,-83L291,-88L293,-87L295,-90L293,-95L294,-96L299,-96L305,-102L309,-103L309,-106L310,-114L315,-118L321,-118L322,-120L329,-119L335,-123L339,-125L343,-130L346,-129L348,-127L347,-124L341,-122L339,-118L336,-115L333,-112L332,-106L330,-101L334,-100L335,-96L337,-94L338,-90L337,-87L337,-85L339,-84L341,-81L353,-82L358,-81L364,-74L367,-74L374,-74L379,-75L382,-73L380,-69L378,-66L378,-59L379,-54L382,-51L382,-49L378,-45L381,-43L383,-40Z" fill="#E0E0E0" stroke="#fff" stroke-width=".4"/><path d="M294,-96L293,-95L295,-90L293,-87L291,-88L289,-83L286,-86L285,-91L287,-93L285,-94L283,-97L279,-99L275,-99L273,-95L269,-93L267,-93L267,-91L271,-86L268,-85L267,-84L263,-83L262,-89L260,-87L258,-88L256,-91L252,-92L250,-93L246,-93L246,-91L245,-92L245,-94L246,-96L246,-97L247,-98L245,-100L245,-103L249,-104L252,-101L252,-99L255,-99L256,-99L258,-97L263,-98L266,-100L272,-102L275,-105L279,-104L279,-103L284,-103L288,-101L291,-99Z" fill="#E0E0E0" stroke="#fff" stroke-width=".4"/><path d="M249,-104L245,-103L245,-100L247,-98L246,-97L246,-96L245,-94L245,-92L240,-94L238,-96L239,-98L239,-100L237,-102L233,-103L230,-105L230,-107L227,-109L228,-106L226,-104L224,-107L221,-107L220,-109L220,-112L221,-115L219,-116L221,-118L222,-119L228,-117L230,-118L233,-117L234,-115L237,-115L239,-116L241,-112L244,-108Z" fill="#E0E0E0" stroke="#fff" stroke-width=".4"/><path d="M239,-116L237,-115L234,-115L233,-117L230,-118L228,-117L222,-119L221,-118L218,-121L214,-124L212,-127L208,-130L204,-134L205,-135L206,-134L207,-135L209,-135L211,-137L212,-137L212,-142L214,-142L216,-142L217,-144L220,-142L221,-144L223,-145L226,-147L226,-149L227,-149L228,-151L229,-151L230,-150L232,-149L234,-151L236,-151L239,-152L240,-153L243,-153L243,-152L242,-150L243,-147L241,-144L240,-140L240,-136L240,-134L240,-130L239,-129L238,-125L239,-123L237,-120L237,-118Z" fill="#E0E0E0" stroke="#fff" stroke-width=".4"/><path d="M243,-153L240,-153L239,-152L236,-151L234,-151L232,-149L230,-150L229,-151L228,-151L227,-149L226,-149L226,-147L223,-145L221,-144L220,-142L217,-144L216,-142L214,-142L212,-142L212,-137L211,-137L209,-135L207,-135L205,-138L203,-138L203,-142L202,-143L200,-144L196,-142L196,-144L193,-145L191,-147L189,-148L191,-150L190,-152L191,-154L195,-156L199,-160L200,-159L202,-161L204,-161L205,-160L206,-161L210,-160L214,-160L217,-161L218,-162L221,-162L223,-161L225,-161L227,-162L231,-161L233,-161L235,-159L238,-157L241,-155Z" fill="#E0E0E0" stroke="#fff" stroke-width=".4"/><path d="M189,-148L191,-147L193,-145L196,-144L196,-142L200,-144L202,-143L203,-142L203,-138L202,-136L197,-136L193,-137L190,-139L185,-140L182,-141L183,-143L186,-145L187,-146L187,-147Z" fill="#E0E0E0" stroke="#fff" stroke-width=".4"/><path d="M164,-149L164,-151L165,-154L164,-155L168,-163L179,-163L179,-166L178,-166L177,-168L174,-170L171,-173L174,-173L174,-179L183,-179L191,-179L191,-171L190,-161L193,-161L195,-159L196,-161L199,-160L195,-156L191,-154L190,-152L191,-150L189,-148L187,-147L187,-146L186,-145L183,-143L182,-141L178,-143L172,-143L168,-145Z" fill="#E0E0E0" stroke="#fff" stroke-width=".4"/><path d="M191,-179L191,-180L192,-180L193,-179L196,-185L198,-185L198,-184L200,-184L200,-181L198,-177L199,-176L198,-172L199,-171L198,-167L196,-164L194,-164L193,-161L190,-161L191,-171Z" fill="#E0E0E0" stroke="#fff" stroke-width=".4"/><path d="M440,-66L441,-63L438,-60L428,-56L422,-55L419,-53L412,-55L406,-56L404,-56L408,-53L407,-47L409,-42L416,-41L417,-39L410,-37L409,-33L406,-32L399,-30L397,-27L391,-26L386,-31L383,-40L381,-43L378,-45L382,-49L382,-51L379,-54L378,-59L378,-66L380,-69L382,-73L379,-75L374,-74L367,-74L364,-74L358,-81L353,-82L341,-81L339,-84L337,-85L337,-87L338,-90L337,-94L335,-96L334,-100L330,-101L332,-106L333,-112L336,-115L339,-118L341,-122L347,-124L347,-122L341,-121L344,-117L344,-112L340,-107L344,-100L347,-100L349,-107L347,-110L346,-117L357,-120L356,-125L359,-127L362,-121L368,-121L374,-116L374,-113L382,-113L392,-114L397,-110L403,-109L408,-112L408,-114L419,-114L430,-114L422,-112L425,-108L432,-107L439,-103L440,-95L445,-96L448,-94L441,-88L441,-85L443,-82L441,-80L436,-79L436,-75L434,-72Z" fill="#E0E0E0" stroke="#fff" stroke-width=".4"/><path d="M476,-37L474,-36L469,-37L467,-35L463,-33L460,-33L459,-31L455,-32L449,-36L449,-40L446,-44L448,-52L450,-55L448,-59L445,-60L446,-64L444,-66L440,-66L434,-72L436,-75L436,-79L441,-80L443,-82L441,-85L441,-88L448,-94L454,-90L459,-85L460,-80L463,-80L468,-75L471,-72L470,-64L464,-62L465,-60L463,-56L467,-49L470,-49L471,-44Z" fill="#E0E0E0" stroke="#fff" stroke-width=".4"/><path d="M494,-40L489,-42L485,-41L481,-42L480,-39L482,-38L481,-36L476,-37L471,-44L470,-49L467,-49L463,-56L465,-60L464,-62L470,-64L471,-72L482,-71L483,-72L490,-73L499,-71L494,-63L495,-57L499,-52L497,-48L496,-44Z" fill="#E0E0E0" stroke="#fff" stroke-width=".4"/><path d="M519,-56L514,-48L511,-42L508,-39L504,-38L503,-40L501,-41L498,-38L494,-40L496,-44L497,-48L499,-52L495,-57L494,-63L499,-71L502,-70L508,-67L518,-60ZM1026,-520L1030,-517L1043,-514L1038,-505L1037,-496L1035,-493L1031,-495L1031,-491L1025,-484L1025,-478L1029,-480L1032,-475L1031,-471L1034,-467L1031,-463L1033,-453L1038,-452L1037,-446L1029,-440L1012,-443L999,-439L998,-432L988,-430L978,-436L975,-433L959,-438L955,-443L960,-450L961,-475L952,-488L946,-495L932,-500L932,-510L943,-513L958,-509L955,-524L963,-519L983,-529L986,-540L994,-543L995,-538L999,-538L1003,-533L1009,-526L1014,-527L1022,-521L1023,-520ZM1048,-434L1054,-438L1056,-428L1053,-419L1049,-421L1047,-429Z" fill="#E0E0E0" stroke="#fff" stroke-width=".4"/><path d="M311,-19L313,-12L310,-6L300,3L290,6L284,14L283,20L278,24L274,19L271,18L267,19L267,16L269,14L268,10L273,3L271,-1L268,4L262,-0L264,-3L263,-11L266,-12L267,-17L271,-23L270,-27L275,-29L281,-32L290,-27L291,-27L293,-23L301,-22L303,-24L308,-21Z" fill="#E0E0E0" stroke="#fff" stroke-width=".4"/><path d="M391,-185L396,-184L397,-182L395,-180L388,-180L383,-180L383,-184L384,-185Z" fill="#E0E0E0" stroke="#fff" stroke-width=".4"/><path d="M292,-185L298,-184L303,-182L304,-179L298,-179L295,-178L290,-179L285,-182L286,-185L290,-185Z" fill="#E0E0E0" stroke="#fff" stroke-width=".4"/><path d="M251,-229L259,-228L265,-228L274,-225L277,-221L285,-222L288,-220L296,-214L301,-210L304,-210L309,-208L309,-206L315,-205L322,-202L321,-199L315,-198L309,-198L303,-198L291,-198L296,-203L293,-205L287,-206L284,-209L282,-214L277,-213L269,-216L266,-218L255,-219L252,-221L255,-224L247,-224L240,-219L237,-219L235,-217L231,-216L227,-217L232,-220L234,-223L238,-225L242,-227L249,-228Z" fill="#E0E0E0" stroke="#fff" stroke-width=".4"/><path d="M825,-140L822,-147L817,-150L821,-152L825,-159L828,-163L831,-166L835,-165L839,-167L844,-167L848,-165L854,-162L859,-156L865,-149L866,-144L867,-139L871,-136L871,-133L871,-130L870,-129L865,-130L864,-129L862,-129L856,-131L852,-131L836,-132L833,-131L830,-131L826,-129L824,-136L832,-136L834,-137L836,-137L839,-139L843,-138L847,-137L850,-139L849,-142L846,-141L843,-141L840,-143L837,-143L835,-140Z" fill="#E0E0E0" stroke="#fff" stroke-width=".4"/><path d="M871,-130L871,-133L871,-136L867,-139L866,-144L865,-149L868,-151L870,-156L872,-157L878,-154L883,-156L887,-155L888,-157L923,-157L925,-164L924,-165L919,-205L915,-246L929,-246L958,-225L988,-205L990,-200L995,-198L999,-196L999,-190L1009,-191L1009,-170L1004,-164L1004,-158L996,-157L984,-156L981,-153L975,-152L969,-152L967,-154L962,-153L954,-149L953,-146L946,-142L945,-140L941,-138L937,-139L934,-137L933,-131L926,-123L926,-120L924,-117L924,-111L921,-110L919,-109L917,-113L915,-112L913,-112L912,-109L905,-109L903,-111L901,-110L899,-112L899,-115L898,-116L896,-115L897,-118L898,-120L895,-124L894,-127L892,-129L890,-129L888,-128L885,-126L883,-124L879,-125L877,-127L875,-128L873,-127L871,-127Z" fill="#E0E0E0" stroke="#fff" stroke-width=".4"/><path d="M822,-208L824,-211L858,-211L857,-225L859,-230L867,-231L867,-255L896,-255L896,-270L929,-246L915,-246L919,-205L924,-165L925,-164L923,-157L888,-157L887,-155L883,-156L878,-154L872,-157L870,-156L868,-151L865,-149L859,-156L854,-162L848,-165L844,-167L839,-167L835,-165L831,-166L828,-163L827,-168L829,-173L830,-181L829,-190L828,-195L829,-200L827,-204Z" fill="#E0E0E0" stroke="#fff" stroke-width=".4"/><path d="M995,-75L988,-74L986,-80L986,-100L985,-102L984,-106L981,-110L979,-112L980,-117L983,-118L984,-122L989,-123L991,-125L994,-128L997,-128L1003,-123L1003,-120L1005,-115L1003,-111L1004,-109L1000,-103L997,-100L996,-95L996,-89Z" fill="#E0E0E0" stroke="#fff" stroke-width=".4"/><path d="M1102,-226L1104,-211L1107,-209L1107,-206L1111,-202L1109,-198L1106,-180L1105,-168L1094,-159L1090,-147L1094,-144L1094,-138L1100,-138L1099,-134L1096,-133L1096,-130L1094,-130L1088,-140L1086,-140L1080,-135L1073,-138L1068,-138L1066,-137L1060,-137L1055,-134L1051,-133L1040,-138L1036,-136L1032,-136L1028,-139L1019,-143L1010,-142L1008,-140L1007,-134L1004,-131L1003,-123L997,-128L994,-128L991,-125L991,-132L981,-134L980,-138L976,-144L974,-148L975,-152L981,-153L984,-156L996,-157L1004,-158L1004,-164L1009,-170L1009,-191L1022,-195L1047,-214L1077,-232L1091,-228L1096,-222Z" fill="#E0E0E0" stroke="#fff" stroke-width=".4"/><path d="M995,-75L996,-89L996,-95L997,-100L1000,-103L1004,-109L1003,-111L1005,-115L1003,-120L1003,-123L1004,-131L1007,-134L1008,-140L1010,-142L1019,-143L1028,-139L1032,-136L1036,-136L1040,-138L1051,-133L1055,-134L1060,-137L1066,-137L1068,-138L1073,-138L1080,-135L1086,-140L1088,-140L1094,-130L1096,-130L1100,-127L1099,-125L1098,-122L1091,-115L1088,-109L1087,-105L1085,-103L1084,-97L1079,-93L1077,-89L1076,-85L1075,-81L1069,-78L1064,-82L1060,-82L1055,-77L1053,-77L1049,-68L1046,-62L1037,-59L1034,-59L1030,-57L1023,-57L1019,-63L1016,-69L1010,-75L1003,-75Z" fill="#E0E0E0" stroke="#fff" stroke-width=".4"/><path d="M980,-117L979,-112L981,-110L984,-106L985,-102L986,-100L986,-80L988,-74L981,-72L979,-75L977,-81L976,-85L978,-93L976,-96L975,-103L975,-110L971,-114L972,-117Z" fill="#E0E0E0" stroke="#fff" stroke-width=".4"/><path d="M972,-117L971,-114L975,-110L975,-103L976,-96L978,-93L976,-85L977,-81L979,-75L981,-72L967,-67L962,-64L955,-61L947,-64L947,-67L943,-75L946,-85L949,-92L947,-105L946,-112L946,-117L961,-117L965,-116L968,-118Z" fill="#E0E0E0" stroke="#fff" stroke-width=".4"/><path d="M901,-110L903,-111L905,-109L912,-109L913,-112L915,-112L917,-113L919,-109L921,-110L924,-111L928,-109L930,-106L934,-105L937,-107L941,-107L947,-105L949,-92L946,-85L943,-75L947,-67L947,-64L943,-64L937,-65L931,-65L921,-64L915,-61L906,-58L904,-58L905,-65L906,-67L905,-70L902,-74L899,-74L896,-77L898,-81L897,-85L898,-88L899,-88L900,-91L899,-93L900,-94L903,-95L901,-102L899,-106L900,-109Z" fill="#E0E0E0" stroke="#fff" stroke-width=".4"/><path d="M852,-131L856,-131L862,-129L864,-129L865,-130L870,-129L871,-130L871,-127L873,-127L875,-128L877,-127L879,-125L883,-124L885,-126L888,-128L890,-129L892,-129L894,-127L895,-124L898,-120L897,-118L896,-115L898,-116L899,-115L899,-112L901,-110L900,-109L899,-106L901,-102L903,-95L900,-94L899,-93L900,-91L899,-88L898,-88L895,-88L894,-84L891,-84L889,-86L890,-90L886,-95L884,-94L882,-94L880,-93L880,-97L878,-99L879,-102L877,-105L874,-108L867,-108L865,-107L863,-107L861,-105L860,-102L856,-98L852,-104L848,-107L846,-108L844,-110L843,-114L842,-116L839,-117L843,-122L846,-122L848,-123L850,-123L851,-124L851,-127L852,-128Z" fill="#E0E0E0" stroke="#fff" stroke-width=".4"/><path d="M826,-129L830,-131L833,-131L836,-132L852,-131L852,-128L851,-127L851,-124L850,-123L848,-123L846,-122L843,-122L839,-117L835,-121L831,-122L829,-124L829,-126L826,-127Z" fill="#E0E0E0" stroke="#fff" stroke-width=".4"/><path d="M898,-88L897,-85L898,-81L896,-77L899,-74L902,-74L905,-70L906,-67L905,-65L904,-58L902,-58L893,-62L885,-69L877,-74L872,-80L874,-82L874,-85L878,-90L882,-94L884,-94L886,-95L890,-90L889,-86L891,-84L894,-84L895,-88Z" fill="#E0E0E0" stroke="#fff" stroke-width=".4"/><path d="M856,-98L860,-102L861,-105L863,-107L865,-107L867,-108L874,-108L877,-105L879,-102L878,-99L880,-97L880,-93L882,-94L878,-90L874,-85L874,-82L872,-80L869,-80L863,-84L858,-89L857,-92Z" fill="#E0E0E0" stroke="#fff" stroke-width=".4"/><path d="M924,-111L924,-117L926,-120L926,-123L933,-131L934,-137L937,-139L941,-138L945,-140L946,-142L953,-146L954,-149L962,-153L967,-154L969,-152L975,-152L974,-148L976,-144L980,-138L981,-134L991,-132L991,-125L989,-123L984,-122L983,-118L980,-117L972,-117L968,-118L965,-116L961,-117L946,-117L946,-112L947,-105L941,-107L937,-107L934,-105L930,-106L928,-109Z" fill="#E0E0E0" stroke="#fff" stroke-width=".4"/><path d="M825,-140L835,-140L837,-143L840,-143L843,-141L846,-141L849,-142L850,-139L847,-137L843,-138L839,-139L836,-137L834,-137L832,-136L824,-136Z" fill="#E0E0E0" stroke="#fff" stroke-width=".4"/><path d="M896,-270L896,-272L896,-272L896,-284L910,-291L919,-293L926,-296L929,-301L939,-305L940,-312L945,-313L949,-317L960,-319L962,-323L960,-325L957,-336L956,-343L953,-350L961,-355L971,-357L976,-362L985,-365L999,-367L1014,-368L1018,-366L1027,-371L1036,-371L1040,-368L1046,-369L1044,-363L1045,-353L1043,-344L1038,-338L1038,-330L1046,-324L1046,-321L1051,-317L1055,-299L1058,-290L1058,-285L1057,-277L1057,-273L1056,-267L1057,-261L1053,-257L1059,-250L1059,-246L1062,-240L1066,-242L1073,-238L1077,-232L1047,-214L1022,-195L1009,-191L999,-190L999,-196L995,-198L990,-200L988,-205L958,-225L929,-246Z" fill="#E0E0E0" stroke="#fff" stroke-width=".4"/><path d="M462,161L465,166L464,179L473,180L477,179L483,181L485,184L485,193L486,196L490,197L493,195L496,197L496,202L495,208L493,214L492,222L484,230L477,231L467,230L458,227L467,212L466,208L457,204L446,197L439,196L423,180L426,169L426,164L430,156L446,153L454,153L462,158Z" fill="#E0E0E0" stroke="#fff" stroke-width=".4"/><path d="M431,-115L436,-116L438,-116L438,-109L431,-108L429,-109L432,-111Z" fill="#E0E0E0" stroke="#fff" stroke-width=".4"/></g><g clip-path="url(#v)"><path d="M362.8,135.8L362.8,135.4L362.7,134.8L362.3,134.3L361.7,133.9L361.6,133.5L361.7,133.0L362.8,132.2L363.4,132.0L363.5,131.6L363.9,131.2L364.9,129.9L365.5,129.1L366.1,128.6L366.8,128.2L367.0,127.9L366.9,127.0L366.9,126.4L367.2,126.0L367.9,125.6L368.5,125.3L368.6,125.2L368.6,124.9L368.0,124.5L366.8,124.0L366.1,124.1L365.6,123.7L365.3,123.4L363.8,119.7L363.5,118.8L363.6,118.4L364.6,116.6L365.0,116L365.7,115.1L365.6,114.8L364.3,113.3L364.0,112.6L364.0,112.0L364.1,111.1L364.8,110.7L365.0,110.0L365.2,109.3L365.5,109.1L365.8,108.7L366.2,108.2L366.8,107.7L367.1,107.3L367.2,106.3L367.5,106.0L368.3,105.7L368.4,105.5L368.2,104.8L367.8,104.1L367.5,103.7L367.0,101.9L366.6,101.1L366.8,100.7L367.1,100.3L367.4,99.4L367.5,98.4L367.4,94.6L367.4,93.8L367.8,93.3L368.4,92.7L368.9,92.5L369.3,92.1L369.3,91.4L369.6,91.0L370.0,90.4L368.8,88.4L367.8,86.5L366.8,84.8L365.7,82.8L365.0,81.5L364.0,79.9L363.3,78.5L362.2,76.6L363.2,76.5L365.2,76.6L367.2,76.9L368.6,77.1L369.1,77.4L369.3,77.9L369.6,78.1L370.0,78.0L370.5,78.0L371.6,77.5L372.5,77.2L373.3,76.8L373.7,76.4L374.6,75.1L375.4,74.4L376.1,74.1L377.5,74.0L377.9,74.2L378.4,74.2L378.9,73.4L379.7,72.6L381.1,71.6L381.8,71.3L382.3,70.9L383.1,70.9L383.8,70.5L387.1,67.9L388.5,67.2L389.3,67.1L390.0,66.9L391.2,66.5L394.2,66.2L396.1,66.0L396.7,66.4L397.4,66.3L398.0,65.7L398.5,65.5L398.8,65.5L399.3,66.2L399.6,66.9L399.4,67.5L399.4,68.3L399.7,69.4L399.5,70.3L398.8,71.6L398.5,72.1L398.4,72.6L398.4,73.3L398.7,74.4L399.3,76.0L399.4,77.2L399.0,78.0L398.8,78.6L398.9,79.2L399.0,79.6L399.3,79.8L399.4,80.3L399.5,80.9L399.8,81.6L400.5,82.2L400.7,82.8L400.6,83.3L400.7,83.7L400.9,83.8L401.0,83.7L401.3,83.6L401.5,83.6L402.0,84.4L402.0,84.6L402.3,85.2L402.3,85.7L403.0,86.0L403.8,86.2L404.2,86.5L405.0,87.2L405.7,87.8L406.5,88.2L406.8,88.9L407.4,89.9L408.8,90.3L410.5,90.5L411.6,90.7L412.9,90.1L413.8,90.2L414.7,90.6L415.0,90.8L415.7,91.4L416.8,92.0L417.6,92.3L418.2,91.9L418.8,91.8L419.2,91.9L419.4,92.7L419.7,93.2L420.2,93.5L421.2,94.5L421.9,94.9L422.6,94.9L423.9,95.5L425.5,96.1L426.2,96.2L427.0,96.1L427.5,96.4L427.7,97.1L429.1,98.6L429.7,99.1L430.4,99.7L432.3,99.6L432.8,99.8L433.7,99.7L436.2,99.4L436.7,99.3L438.1,100.0L439.7,100.9L440.9,101.6L441.6,102.0L442.0,102.7L442.4,103.4L442.6,104.1L442.3,104.8L442.0,105.1L441.9,105.6L442.0,106.3L442.6,106.9L442.8,107.7L443.1,109.1L443.5,109.5L443.7,113.8L442.6,113.8L441.0,113.9L441.4,114.3L442.7,115.9L444.0,117.3L444.2,119.7L444.3,121.2L444.4,123.3L444.5,124.5L447.6,124.6L451.0,124.8L455.2,124.9L458.9,125.1L459.3,125.0L459.9,124.9L460.3,124.6L460.6,124.7L460.6,125.2L460.5,125.8L460.5,126.5L459.5,128.0L459.4,128.5L459.6,130.4L460.0,131.9L460.2,133.4L460.6,133.8L461.8,134.5L463.7,135.9L464.4,136.1L465.1,135.9L465.5,136.5L465.5,137.4L466.6,139.9L467.2,141.5L467.5,142.1L468.0,142.4L467.9,142.6L467.5,142.7L467.3,143.0L466.8,144.8L466.0,147.2L465.5,148.8L466.0,148.9L466.0,149.3L466.1,150.0L465.5,150.1L465.4,150.4L464.7,151.8L463.8,153.6L463.0,155.4L462.5,156.5L463.3,157.4L464.8,158.7L464.6,159.1L464.0,159.3L463.4,159.4L463.0,160.0L462.8,160.3L462.2,160.5L462.4,158.9L462.2,157.6L462.0,157.2L459.5,155.6L457.1,154.2L454.1,152.3L450.1,152.3L446.0,152.4L442.1,153.2L438.3,154.1L436.5,154.5L432.8,155.3L430.7,155.6L430.1,157.1L429.3,159.4L428.5,160.8L427.5,162.2L426.2,164.2L426.2,166.6L426.2,168.9L425.2,172.1L424.4,174.9L423.6,177.6L423.1,179.4L422.9,179.9L422.7,179.8L422.1,179.2L421.4,178.2L421.3,177.7L421.2,177.7L417.4,177.7L413.9,177.7L413.5,178.0L413.0,178.0L412.6,177.7L412.3,177.8L411.7,178.0L411.3,178.4L409.9,181.2L409.2,182.3L408.7,183.4L408.3,185.2L408.2,185.5L407.8,184.9L407.1,183.2L406.8,182.3L406.4,181.2L405.7,179.9L404.9,179.4L404.4,179.3L403.7,179.1L402.3,178.7L401.8,178.7L398.0,178.6L397.7,178.6L396.3,178.7L395.5,178.6L394.7,177.9L393.0,176.6L392.7,176.1L392.0,175.9L391.6,175.8L391.4,176.1L391.0,177.2L390.7,178.2L390.3,178.8L389.1,179.2L387.9,179.6L387.3,179.7L386.9,180.2L386.8,180.9L386.5,181.6L384.8,182.5L384.5,182.9L384.3,183.9L383.3,185.0L383.0,185.5L381.6,185.8L379.7,186.2L378.6,186.1L377.8,186.0L377.6,185.8L377.0,185.5L377.0,185.1L376.9,184.6L377.1,183.7L377.0,182.4L376.4,180.8L376.5,180.4L376.4,179.6L376.1,178.2L375.3,177.5L375.1,176.4L375.0,175.4L374.4,174.1L374.3,172.5L374.3,171.1L373.3,169.5L372.2,167.8L371.3,167.6L371.1,167.4L371.0,166.9L371.0,166.1L371.0,165.7L371.7,164.9L371.7,164.8L371.6,164.6L369.9,163.5L369.5,163.2L369.3,162.8L369.3,162.5L369.8,162.1L370.0,161.8L369.6,161.0L369.6,160.3L369.3,160.0L369.4,159.8L369.6,159.6L370.7,159.3L371.1,158.6L371.1,158.0L370.9,157.6L369.9,156.5L369.9,156.3L371.0,154.8L371.7,153.8L371.9,153.6L371.9,153.4L371.7,153.2L371.2,152.8L370.5,152.4L370.0,151.9L369.3,151.1L368.5,150.5L367.8,149.9L367.5,149.3L367.5,148.8L367.4,147.9L367.0,146.4L366.9,145.5L366.7,144.4L366.5,143.7L366.4,143.0L366.1,142.3L366.0,141.7L366.2,141.3L366.4,141.0L366.4,140.9L364.8,140.1L364.5,139.9L364.1,138.3L362.9,136.9Z" fill="#4ECDC4" stroke="#2C3E50" stroke-width="1"/></g><circle cx="400.0" cy="150.0" r="4" fill="#E74C3C" stroke="#fff" stroke-width="2"/><text x="400.0" y="140.0" text-anchor="middle" font-family="sans-serif" font-weight="700" font-size="10" fill="#2D3436">Sucre</text></svg>