<svg viewBox="0 0 800 300" xmlns="http://www.w3.org/2000/svg"><defs><clipPath id="v"><rect width="800" height="300"/></clipPath></defs><rect width="800" height="300" fill="#DCEEF8"/><g clip-path="url(#v)"><path d="M583,338L586,357L584,370L576,376L584,386L583,395L562,390L546,392L527,390L511,396L494,385L497,374L527,379L551,382L563,374L548,359L548,346L528,341L535,331L555,333Z" fill="#E0E0E0" stroke="#fff" stroke-width=".4"/><path d="M583,395L584,386L576,376L584,370L586,357L583,338L587,332L613,332L632,341L641,340L647,353L664,352L663,362L678,363L694,376L682,390L666,383L651,384L641,382L635,389L622,391L617,382L606,387L593,411L585,405Z" fill="#E0E0E0" stroke="#fff" stroke-width=".4"/><path d="M-896,-128L-859,-131L-817,-136L-820,-128L-771,-109L-697,-82L-632,-83L-606,-83L-606,-98L-550,-98L-538,-85L-521,-73L-502,-56L-491,-36L-483,-16L-466,-5L-439,7L-419,-23L-392,-24L-369,-9L-353,17L-342,39L-322,60L-315,85L-306,102L-281,114L-258,122L-245,120L-257,152L-263,178L-266,225L-269,243L-263,262L-253,279L-246,306L-225,332L-217,352L-204,369L-170,378L-156,392L-128,382L-103,379L-79,373L-58,367L-37,353L-30,333L-27,304L-21,293L1,284L35,276L64,277L84,274L91,282L90,299L73,319L65,340L71,346L66,361L58,388L50,379L43,380L37,380L25,401L19,397L15,399L16,404L-15,403L-45,403L-45,422L-60,423L-48,434L-35,442L-32,449L-27,451L-27,463L-69,463L-85,490L-80,497L-84,505L-85,514L-122,478L-139,467L-165,458L-183,461L-209,474L-226,477L-249,468L-273,462L-304,446L-328,441L-365,425L-392,409L-400,400L-419,398L-452,387L-466,371L-501,352L-517,330L-525,313L-514,310L-517,300L-510,291L-510,279L-520,263L-523,249L-534,231L-563,196L-596,168L-612,146L-640,131L-646,122L-641,100L-657,91L-676,73L-685,48L-702,45L-721,25L-736,7L-738,-4L-755,-33L-767,-62L-766,-76L-790,-91L-801,-90L-819,-100L-824,-85L-819,-66L-816,-38L-805,-23L-781,3L-775,12L-770,15L-766,27L-760,27L-754,51L-744,60L-737,73L-716,92L-706,125L-696,141L-687,158L-685,177L-669,178L-656,194L-644,210L-645,217L-659,230L-665,229L-673,208L-695,188L-718,170L-735,161L-734,135L-739,115L-754,104L-776,88L-781,92L-789,83L-809,74L-828,53L-826,50L-812,52L-800,38L-799,22L-824,-5L-843,-15L-855,-39L-867,-63L-883,-94Z" fill="#E0E0E0" stroke="#fff" stroke-width=".4"/><path d="M194,635L187,642L177,639L172,633L161,630L154,634L132,625L127,630L116,619L101,606L94,595L80,584L64,569L67,564L73,569L75,567L85,565L89,558L94,557L93,541L101,540L108,540L115,531L124,538L128,534L134,530L145,521L146,514L149,514L153,506L156,505L162,510L169,512L176,507L184,507L195,503L200,498L211,499L208,502L206,510L210,522L202,534L199,547L198,562L199,570L200,585L195,589L192,603L194,612L188,620L189,629Z" fill="#E0E0E0" stroke="#fff" stroke-width=".4"/><path d="M211,499L200,498L195,503L184,507L176,507L169,512L162,510L156,505L153,506L149,514L146,514L145,521L134,530L128,534L124,538L115,531L108,540L101,540L93,541L94,557L89,558L85,565L75,567L69,556L60,553L62,540L57,536L51,534L36,538L35,533L25,528L18,521L9,518L16,510L13,503L15,497L31,487L46,474L49,476L56,470L65,469L68,472L73,470L89,473L104,473L114,469L118,465L128,467L136,469L145,468L151,465L166,470L171,471L181,477L190,485L202,490Z" fill="#E0E0E0" stroke="#fff" stroke-width=".4"/><path d="M-85,514L-84,505L-80,497L-85,490L-69,463L-27,463L-27,451L-32,449L-35,442L-48,434L-60,423L-45,422L-45,403L-15,403L16,404L15,431L13,469L23,469L33,475L36,470L46,474L31,487L15,497L13,503L16,510L9,518L1,520L3,524L-3,528L-14,537L-15,541L-32,536L-52,535L-67,528Z" fill="#E0E0E0" stroke="#fff" stroke-width=".4"/><path d="M16,404L15,399L19,397L25,401L37,380L43,380L43,385L49,385L49,394L44,409L46,414L43,427L45,430L41,447L35,456L29,457L23,469L13,469L15,431Z" fill="#E0E0E0" stroke="#fff" stroke-width=".4"/><path d="M760,379L777,382L783,389L774,398L750,398L731,399L729,384L734,379Z" fill="#E0E0E0" stroke="#fff" stroke-width=".4"/><path d="M393,380L414,383L432,392L437,401L414,402L404,407L386,402L367,389L371,381L385,379Z" fill="#E0E0E0" stroke="#fff" stroke-width=".4"/><path d="M239,216L268,219L293,219L324,231L337,244L367,240L379,249L406,270L427,286L437,286L457,293L454,303L478,304L503,318L499,326L477,331L456,332L433,330L386,333L408,314L395,305L374,302L363,292L355,272L337,274L306,264L297,257L254,252L243,245L255,236L223,234L200,252L186,253L181,261L165,265L151,262L169,251L176,238L190,231L207,224L232,220Z" fill="#E0E0E0" stroke="#fff" stroke-width=".4"/></g><g clip-path="url(#v)"><path d="M389.6,178.7L389.8,179.5L386.5,181.7L388.8,183.3L391.0,179.9L392.8,182.7L393.7,188.1L393.6,189.0L393.7,189.7L394.1,190.8L394.2,192.3L392.3,196.9L386.0,196.4L385.8,192.5L384.8,191.8L383.3,186.1L381.3,184.3L378.5,179.8L380.1,178.6L382.3,178.9L383.4,178.4L386.4,178.0L388.2,177.3ZM403.7,119.2L403.0,119.5L400.2,115.9L398.0,114.8L401.5,112.2L403.0,110.0L403.0,105.2L403.8,102.6L403.6,100.3L404.4,98.0L403.4,95.3L400.3,93.2L394.4,84.9L385.2,82.9L380.4,82.8L383.0,81.5L385.4,81.6L389.2,82.5L393.7,82.8L396.4,85.3L399.0,88.5L401.5,89.8L402.4,90.7L402.3,91.6L402.7,92.5L405.8,94.0L408.9,96.5L409.8,103.6L405.6,107.0L404.9,117.3ZM540.4,286.7L539.5,289.2L536.0,294.1L528.3,295.3L519.8,295.6L519.2,294.2L519.0,293.0L519.5,291.2L519.5,290.5L519.2,289.7L522.2,289.0L524.4,286.7L527.5,286.3L531.5,287.9L533.7,288.0L536.9,286.2L539.5,282.4L541.0,282.9ZM386.8,162.3L386.8,166.7L387.2,169.9L386.8,171.1L383.3,173.2L382.4,174.4L379.1,175.7L377.1,177.3L376.0,174.5L374.0,172.9L373.8,169.9L372.3,170.9L370.1,170.3L366.5,168.1L364.3,165.2L367.5,164.7L368.1,166.5L370.6,164.2L370.1,163.0L369.6,162.9L368.8,160.6L372.5,154.8L373.3,151.0L371.6,144.9L373.2,144.5L377.4,146.7L379.3,148.8L379.3,151.6L381.2,153.8L383.7,159.2ZM362.4,89.2L366.4,90.3L368.5,90.2L369.8,89.4L375.6,89.8L380.4,88.7L381.1,90.6L381.0,91.6L370.9,92.5L361.7,95.4L356.7,97.3L354.2,97.5L352.5,96.5L346.4,90.6L348.0,91.3L352.5,94.6L355.3,93.9L357.9,91.8L358.3,90.1L357.9,89.3L359.0,86.7ZM399.7,151.3L396.1,152.0L393.4,151.3L392.8,150.7L393.9,149.7L396.3,148.9L400.3,148.8L402.1,149.8L402.3,150.2ZM506.9,232.9L507.6,233.5L505.6,234.9L500.9,233.2L499.8,233.3L498.9,231.4L498.6,230.1L498.8,228.8L501.6,229.8L503.0,231.6ZM494.8,185.1L492.2,189.0L490.8,188.7L491.6,183.8L493.4,183.1L494.1,183.1ZM502.1,250.8L499.7,251.9L500.3,250.1L504.7,247.0L507.1,244.3L508.4,243.3L509.0,242.6L510.9,241.5L511.8,239.8L511.6,238.3L509.6,236.0L509.6,234.4L510.3,233.1L513.7,232.6L512.7,234.4L514.2,239.4L509.6,245.7L505.7,247.6ZM422.5,134.3L427.9,138.3L432.4,139.8L437.4,145.0L439.5,146.8L439.9,148.4L439.1,155.9L437.9,160.4L438.2,164.4L437.0,163.2L435.8,160.6L433.8,159.1L433.3,158.3L436.7,158.2L437.0,154.1L438.6,150.9L438.4,147.5L434.4,143.8L431.6,140.5L427.4,139.5L423.4,136.3L421.1,135.8L418.2,136.5L419.3,134.5L420.0,131.9L420.5,131.4ZM454.6,207.1L453.2,207.4L450.7,206.4L445.1,202.1L442.4,201.7L443.3,199.3L445.3,200.2L449.9,203.9L451.7,205.7ZM481.4,226.8L481.2,227.7L477.1,220.7L471.9,219.0L468.9,217.2L469.6,216.3L471.6,215.9L471.9,213.6L471.1,211.2L468.3,206.3L466.8,202.9L466.1,202.2L466.0,199.4L469.1,203.7L470.5,207.6L472.6,211.3L474.2,217.8L478.3,220.0L481.2,223.1ZM466.2,180.4L466.4,182.3L464.2,181.9L460.9,182.6L459.9,182.6L460.6,181.4L462.8,179.7L462.9,178.1L460.1,175.8L456.9,170.1L455.4,168.7L454.7,166.5L452.0,164.2L452.6,162.9L453.1,162.7L454.9,163.2L459.0,171.6L459.3,172.3ZM540.1,243.2L542.1,243.8L543.1,243.7L546.9,244.8L549.1,246.2L549.6,246.8L548.4,248.1L545.0,245.7L541.9,245.4L537.7,245.4L536.1,244.9L537.3,242.3ZM544.0,275.7L539.7,277.4L539.4,275.4L541.5,273.7Z" fill="#4ECDC4" stroke="#2C3E50" stroke-width="1"/></g><circle cx="400.0" cy="150.0" r="4" fill="#E74C3C" stroke="#fff" stroke-width="2"/><text x="400.0" y="140.0" text-anchor="middle" font-family="sans-serif" font-weight="700" font-size="10" fill="#2D3436">Nassau</text></svg>