<svg viewBox="0 0 800 300" xmlns="http://www.w3.org/2000/svg"><defs><clipPath id="v"><rect width="800" height="300"/></clipPath></defs><rect width="800" height="300" fill="#DCEEF8"/><g clip-path="url(#v)"><path d="M1107,671L1068,688L1029,719L981,722L950,799L922,812L955,875L997,926L1025,973L1000,1033L977,1046L993,1081L1038,1137L1046,1176L1045,1208L1071,1271L1034,1335L1001,1405L995,1354L1016,1302L993,1261L998,1186L971,1150L949,1066L937,978L908,920L863,955L787,1005L749,999L707,982L730,895L716,829L663,747L672,721L632,711L584,653L580,595L603,606L605,554L638,536L631,505L646,480L649,404L701,421L732,360L735,324L772,261L770,218L857,166L906,179L900,133L924,119L919,90L958,84L981,129L1010,147L1012,205L1009,267L946,330L938,418L1009,405L1025,473L1067,487L1048,548L1098,575L1127,589L1177,568L1179,597L1121,645Z" fill="#E0E0E0" stroke="#fff" stroke-width=".4"/><path d="M919,90L924,119L900,133L906,179L857,166L770,218L772,261L735,324L732,360L701,421L649,404L646,480L631,505L638,536L605,554L569,437L551,438L539,485L502,447L523,405L553,400L585,338L546,325L483,326L419,316L413,264L381,260L327,227L304,278L352,318L310,346L295,373L337,393L325,437L348,492L359,552L349,579L304,578L220,593L224,648L188,690L91,739L15,822L-35,867L-102,914L-103,946L-136,963L-197,988L-228,992L-249,1045L-235,1136L-231,1194L-260,1259L-260,1376L-295,1380L-326,1432L-305,1454L-367,1474L-389,1520L-416,1540L-480,1476L-511,1380L-537,1311L-561,1278L-597,1212L-614,1125L-625,1082L-687,986L-715,849L-735,758L-735,671L-748,603L-846,647L-894,638L-981,550L-949,524L-969,495L-1048,433L-1003,383L-855,384L-868,320L-906,282L-914,224L-958,190L-884,110L-805,116L-735,36L-692,-43L-627,-121L-628,-178L-570,-224L-625,-263L-648,-318L-672,-389L-639,-424L-537,-404L-461,-417L-396,-486L-324,-389L-331,-323L-304,-282L-306,-241L-355,-251L-336,-164L-269,-114L-176,-59L-218,-24L-245,49L-179,78L-116,115L-28,158L65,168L104,206L156,214L237,231L293,230L301,200L292,152L297,119L339,103L344,163L346,178L407,207L449,195L506,200L561,198L566,151L539,127L593,117L655,61L732,11L789,30L837,-2L869,46L846,78Z" fill="#E0E0E0" stroke="#fff" stroke-width=".4"/><path d="M605,554L603,606L580,595L584,653L565,615L561,578L548,543L520,501L458,498L464,528L443,568L414,554L404,567L385,559L359,552L348,492L325,437L337,393L295,373L310,346L352,318L304,278L327,227L381,260L413,264L419,316L483,326L546,325L585,338L553,400L523,405L502,447L539,485L551,438L569,437Z" fill="#E0E0E0" stroke="#fff" stroke-width=".4"/><path d="M297,119L292,152L301,200L293,230L237,231L156,214L104,206L65,168L-28,158L-116,115L-179,78L-245,49L-218,-24L-176,-59L-148,-78L-93,-54L-25,-3L13,8L35,45L88,60L142,94L219,112Z" fill="#E0E0E0" stroke="#fff" stroke-width=".4"/></g><g clip-path="url(#v)"><path d="M534.5,128.0L534.0,129.7L532.1,134.2L530.9,139.2L531.8,143.3L536.2,148.2L541.8,152.0L549.1,152.4L555.9,150.8L558.6,151.5L562.2,158.0L564.9,163.6L561.2,169.4L559.5,174.6L558.8,178.1L559.0,179.7L561.2,182.6L563.9,187.6L564.1,192.1L562.7,195.1L559.0,196.7L555.4,196.3L552.5,196.3L548.6,196.8L542.5,198.5L537.2,200.6L526.7,200.2L522.6,195.7L520.7,195.7L511.2,201.5L500.7,200.6L482.0,202.4L474.3,203.0L466.3,202.3L462.1,201.1L454.6,196.9L447.5,194.0L440.7,196.7L438.1,197.2L432.5,204.3L420.3,206.5L408.4,208.2L404.8,207.3L398.0,206.9L397.8,205.3L398.0,203.6L396.3,202.4L393.6,201.1L388.8,200.6L382.7,198.8L379.3,197.2L366.9,199.5L359.6,195.9L351.4,190.7L347.2,188.6L345.8,180.8L344.3,178.1L340.9,175.5L339.2,172.3L340.7,169.2L348.9,163.1L349.4,161.7L353.3,150.4L358.6,146.3L363.7,140.7L367.6,131.7L375.2,122.3L383.4,112.7L389.3,105.0L393.1,101.3L400.9,97.5L407.5,95.2L411.8,90.0L417.4,87.1L423.0,85.8L431.3,86.4L439.3,88.3L447.8,91.0L448.8,93.1L448.0,96.7L446.8,100.5L446.8,102.4L448.0,103.4L456.5,104.2L466.7,103.6L472.6,104.1L485.4,107.6L489.3,109.9L493.2,111.9L497.1,111.5L502.0,107.6L507.1,104.1L510.2,103.6L512.4,104.6L516.5,108.0L525.0,111.0L532.6,113.3L535.0,115.5L534.3,124.8Z" fill="#4ECDC4" stroke="#2C3E50" stroke-width="1"/></g><circle cx="400.0" cy="150.0" r="4" fill="#E74C3C" stroke="#fff" stroke-width="2"/><text x="400.0" y="140.0" text-anchor="middle" font-family="sans-serif" font-weight="700" font-size="10" fill="#2D3436">Thimphu</text></svg>