<svg viewBox="0 0 800 300" xmlns="http://www.w3.org/2000/svg"><defs><clipPath id="v"><rect width="800" height="300"/></clipPath></defs><rect width="800" height="300" fill="#DCEEF8"/><g clip-path="url(#v)"><path d="M2241,57L2244,55L2248,59L2246,66L2239,67L2232,66L2231,60L2236,56ZM2264,45L2256,48L2248,51L2247,46L2253,44L2257,43L2264,39L2264,39L2264,45ZM-2091,39L-2091,39L-2091,39L-2088,39L-2090,45L-2091,45L-2091,45L-2091,39Z" fill="#E0E0E0" stroke="#fff" stroke-width=".4"/><path d="M497,-146L499,-145L543,-120L543,-113L561,-101L555,-86L556,-79L564,-75L564,-72L561,-64L561,-61L561,-55L565,-47L570,-35L574,-32L565,-25L551,-20L544,-21L540,-17L531,-17L528,-15L514,-19L505,-18L501,-34L497,-40L495,-43L483,-46L476,-49L468,-51L463,-53L458,-57L452,-72L445,-79L442,-86L444,-92L441,-103L446,-104L451,-108L456,-115L459,-117L458,-121L456,-124L455,-129L459,-130L459,-137L455,-144L459,-146L472,-145Z" fill="#E0E0E0" stroke="#fff" stroke-width=".4"/><path d="M441,-103L444,-92L442,-86L445,-79L452,-72L458,-57L454,-58L437,-56L434,-54L431,-46L433,-41L431,-27L430,-14L433,-12L442,-7L445,-9L446,4L437,4L432,-3L427,-8L418,-10L415,-16L408,-13L398,-14L394,-20L386,-21L381,-21L380,-25L376,-25L370,-26L363,-24L358,-24L355,-23L355,-38L351,-42L350,-50L352,-57L350,-62L349,-69L335,-69L336,-74L330,-74L329,-71L321,-71L318,-64L317,-61L310,-63L306,-61L298,-60L293,-66L291,-70L287,-78L284,-87L248,-87L244,-85L241,-86L236,-84L234,-88L237,-89L237,-94L239,-97L244,-100L247,-99L251,-103L258,-103L258,-100L263,-98L270,-105L277,-111L280,-115L280,-125L285,-137L291,-143L299,-149L300,-153L300,-157L302,-161L302,-168L303,-179L305,-186L309,-193L310,-200L311,-209L316,-215L322,-219L332,-215L340,-210L349,-209L358,-207L361,-214L363,-215L368,-214L382,-220L387,-217L391,-217L392,-220L397,-221L406,-220L414,-220L418,-221L425,-211L430,-210L434,-212L439,-211L446,-214L449,-208L460,-200L459,-186L464,-184L460,-180L455,-177L451,-171L448,-165L447,-155L444,-151L444,-142L441,-138L440,-131L439,-130L438,-123L441,-118Z" fill="#E0E0E0" stroke="#fff" stroke-width=".4"/><path d="M590,-137L582,-147L582,-191L593,-205L596,-209L604,-209L615,-218L630,-218L665,-255L673,-265L679,-273L679,-279L679,-291L679,-297L679,-297L683,-297L688,-299L694,-300L700,-304L705,-304L705,-301L704,-294L704,-287L701,-283L698,-270L692,-256L685,-240L674,-222L664,-209L650,-192L638,-183L620,-171L608,-161L595,-147L592,-140Z" fill="#E0E0E0" stroke="#fff" stroke-width=".4"/><path d="M561,-101L543,-113L543,-120L499,-145L497,-146L497,-159L500,-164L506,-172L510,-181L505,-195L504,-201L498,-209L505,-216L514,-224L520,-222L520,-216L524,-212L532,-212L548,-201L552,-201L554,-202L557,-200L565,-199L569,-204L580,-209L585,-205L593,-205L582,-191L582,-147L590,-137L581,-133L578,-128L574,-127L572,-118L568,-113L566,-105Z" fill="#E0E0E0" stroke="#fff" stroke-width=".4"/><path d="M284,203L290,196L295,200L297,206L302,207L310,210L316,209L327,202L327,152L331,154L338,166L337,175L339,179L348,178L354,172L360,168L363,161L369,158L374,160L379,164L389,164L397,161L398,157L400,151L407,150L411,145L415,136L425,126L443,116L448,116L453,119L457,117L464,118L470,137L473,146L471,161L472,166L466,164L462,164L461,168L458,173L458,178L465,185L472,184L475,178L484,178L481,188L479,199L476,206L468,213L466,215L460,222L457,229L450,239L436,254L428,262L419,269L406,274L400,275L398,279L391,277L385,280L372,277L365,279L360,278L347,284L337,286L329,292L324,292L319,287L315,286L309,280L309,282L307,278L307,270L303,260L307,257L307,246L299,233L293,221L293,221ZM437,208L432,204L426,207L420,212L413,221L422,232L427,231L429,226L436,224L438,219L441,213Z" fill="#E0E0E0" stroke="#fff" stroke-width=".4"/><path d="M437,208L441,213L438,219L436,224L429,226L427,231L422,232L413,221L420,212L426,207L432,204Z" fill="#E0E0E0" stroke="#fff" stroke-width=".4"/><path d="M-538,-208L-545,-197L-549,-188L-554,-183L-559,-183L-561,-186L-564,-187L-568,-183L-573,-186L-570,-191L-569,-196L-567,-202L-571,-209L-572,-217L-566,-228L-562,-226L-553,-223L-540,-213ZM161,-848L167,-843L185,-840L178,-827L177,-814L174,-811L168,-813L168,-809L160,-799L159,-791L165,-793L169,-786L169,-781L172,-774L168,-769L171,-756L178,-754L177,-746L166,-737L142,-742L124,-736L123,-726L109,-724L95,-732L91,-728L68,-736L64,-742L70,-752L72,-786L60,-805L51,-814L32,-820L31,-834L47,-838L67,-833L63,-854L75,-846L103,-861L106,-876L117,-880L119,-873L124,-873L130,-865L138,-856L145,-858L155,-849L158,-848ZM192,-729L200,-735L202,-721L198,-709L193,-712L190,-723Z" fill="#E0E0E0" stroke="#fff" stroke-width=".4"/><path d="M464,118L457,117L453,119L448,116L443,116L435,110L426,108L422,100L422,96L417,94L403,80L399,73L397,70L392,60L406,62L410,63L414,63L420,55L431,44L435,43L437,39L444,34L453,32L454,37L464,37L469,39L472,42L478,43L484,47L484,63L482,72L481,82L483,86L482,93L480,94L477,104Z" fill="#E0E0E0" stroke="#fff" stroke-width=".4"/><path d="M327,152L327,202L316,209L310,210L302,207L297,206L295,200L290,196L284,203L275,193L271,183L268,170L265,160L261,139L261,124L259,117L254,111L248,100L242,85L239,77L229,64L229,55L234,52L242,50L249,51L257,56L259,55L308,55L316,61L345,63L367,58L377,55L385,55L390,58L390,59L383,62L380,62L372,67L367,62L349,66L340,67L339,113L327,113Z" fill="#E0E0E0" stroke="#fff" stroke-width=".4"/><path d="M262,-315L267,-307L268,-299L267,-290L274,-279L267,-279L264,-278L258,-280L255,-274L263,-267L268,-265L270,-260L273,-251L271,-248L265,-235L262,-233L262,-224L263,-219L262,-215L267,-209L268,-204L273,-198L278,-194L279,-189L280,-185L279,-179L270,-182L260,-185L245,-185L243,-186L236,-184L229,-186L223,-185L203,-185L205,-195L200,-203L195,-205L192,-210L189,-212L189,-216L193,-224L198,-236L202,-236L209,-243L214,-243L220,-238L229,-242L230,-248L233,-252L234,-259L241,-264L243,-272L246,-275L248,-281L251,-289L261,-299L262,-303L263,-305L258,-310L259,-314Z" fill="#E0E0E0" stroke="#fff" stroke-width=".4"/><path d="M418,-221L414,-220L406,-220L397,-221L392,-220L391,-217L387,-217L382,-220L368,-214L363,-215L361,-214L358,-207L349,-209L340,-210L332,-215L322,-219L316,-215L311,-209L310,-200L302,-201L294,-203L287,-196L280,-185L279,-189L278,-194L273,-198L268,-204L267,-209L262,-215L263,-219L262,-224L262,-233L265,-235L271,-248L281,-249L284,-252L286,-252L289,-249L304,-254L309,-258L315,-263L314,-267L318,-268L329,-267L341,-273L349,-286L356,-291L363,-293L365,-288L371,-280L372,-275L370,-270L370,-267L375,-263L384,-258L390,-253L390,-249L399,-242L404,-237L407,-230L416,-225Z" fill="#E0E0E0" stroke="#fff" stroke-width=".4"/><path d="M310,-200L309,-193L305,-186L303,-179L302,-168L302,-161L300,-157L300,-153L299,-149L291,-143L285,-137L280,-125L280,-115L277,-111L270,-105L263,-98L258,-100L258,-103L251,-103L247,-99L244,-100L239,-104L236,-102L231,-97L221,-110L230,-116L225,-124L230,-127L238,-129L239,-134L245,-128L256,-128L260,-134L261,-142L260,-151L254,-158L259,-172L256,-175L247,-174L244,-180L245,-185L260,-185L270,-182L279,-179L280,-185L287,-196L294,-203L302,-201Z" fill="#E0E0E0" stroke="#fff" stroke-width=".4"/><path d="M223,-185L229,-186L236,-184L243,-186L245,-185L244,-180L247,-174L256,-175L259,-172L254,-158L260,-151L261,-142L260,-134L256,-128L245,-128L239,-134L238,-129L230,-127L225,-124L230,-116L221,-110L208,-122L200,-132L193,-144L193,-148L196,-152L199,-161L201,-170L206,-171L223,-171Z" fill="#E0E0E0" stroke="#fff" stroke-width=".4"/><path d="M203,-185L223,-185L223,-171L206,-171L201,-170L199,-172Z" fill="#E0E0E0" stroke="#fff" stroke-width=".4"/><path d="M458,-57L463,-53L468,-51L476,-49L483,-46L489,-40L492,-30L490,-26L487,-16L489,-6L486,-2L482,10L488,13L452,23L453,32L444,34L437,39L435,43L431,44L420,55L414,63L410,63L406,62L392,60L390,59L390,58L385,55L377,55L367,58L360,50L351,39L352,-0L377,-0L376,-5L378,-9L376,-15L377,-21L376,-25L380,-25L381,-21L386,-21L394,-20L398,-14L408,-13L415,-16L418,-10L427,-8L432,-3L437,4L446,4L445,-9L442,-7L433,-12L430,-14L431,-27L433,-41L431,-46L434,-54L437,-56L454,-58Z" fill="#E0E0E0" stroke="#fff" stroke-width=".4"/><path d="M483,-46L495,-43L497,-40L501,-34L505,-18L501,-8L505,8L509,8L513,12L518,21L519,37L514,40L510,48L502,41L502,32L504,26L503,21L499,18L495,19L488,13L482,10L486,-2L489,-6L487,-16L490,-26L492,-30L489,-40Z" fill="#E0E0E0" stroke="#fff" stroke-width=".4"/><path d="M505,-18L514,-19L528,-15L531,-17L540,-17L544,-21L551,-20L565,-25L574,-32L576,-27L576,-15L577,-4L578,16L580,22L576,31L571,40L564,47L553,52L539,58L525,72L521,74L512,83L507,86L506,96L512,105L514,113L515,117L517,116L516,129L514,135L517,137L515,143L510,148L500,152L486,159L481,164L482,170L485,171L484,178L475,178L473,172L472,166L471,161L473,146L470,137L464,118L477,104L480,94L482,93L483,86L481,82L482,72L484,63L484,47L478,43L472,42L469,39L464,37L454,37L453,32L452,23L488,13L495,19L499,18L503,21L504,26L502,32L502,41L510,48L514,40L519,37L518,21L513,12L509,8L505,8L501,-8Z" fill="#E0E0E0" stroke="#fff" stroke-width=".4"/><path d="M475,178L472,184L465,185L458,178L458,173L461,168L462,164L466,164L472,166L473,172Z" fill="#E0E0E0" stroke="#fff" stroke-width=".4"/><path d="M244,-100L239,-97L237,-94L237,-89L234,-88L231,-97L236,-102L239,-104ZM236,-84L241,-86L244,-85L248,-87L284,-87L287,-78L291,-70L293,-66L298,-60L306,-61L310,-63L317,-61L318,-64L321,-71L329,-71L330,-74L336,-74L335,-69L349,-69L350,-62L352,-57L350,-50L351,-42L355,-38L355,-23L358,-24L363,-24L370,-26L376,-25L377,-21L376,-15L378,-9L376,-5L377,-0L352,-0L351,39L360,50L367,58L345,63L316,61L308,55L259,55L257,56L249,51L242,50L234,52L229,55L227,47L229,36L233,24L234,19L238,8L241,3L248,-6L252,-11L253,-20L252,-27L249,-32L245,-39L242,-46L243,-49L247,-54L243,-66L241,-74L235,-82Z" fill="#E0E0E0" stroke="#fff" stroke-width=".4"/><path d="M455,-129L456,-124L458,-121L459,-117L456,-115L451,-108L446,-104L441,-103L441,-118L438,-123L445,-122L449,-129Z" fill="#E0E0E0" stroke="#fff" stroke-width=".4"/><path d="M686,-6L689,-0L692,8L694,23L697,29L696,35L694,38L690,31L687,35L690,44L689,49L685,52L685,63L680,78L674,96L666,120L662,138L656,154L646,157L636,163L629,159L619,155L616,147L615,136L611,125L610,116L612,106L618,104L618,100L623,90L624,82L622,76L619,68L618,56L623,49L624,41L630,41L637,38L641,36L647,36L654,28L664,21L667,14L666,9L671,11L677,2L678,-6L682,-11Z" fill="#E0E0E0" stroke="#fff" stroke-width=".4"/><path d="M665,-255L630,-218L615,-218L604,-209L596,-209L593,-205L585,-205L580,-209L569,-204L565,-199L557,-200L554,-202L552,-201L548,-201L532,-212L524,-212L520,-216L520,-222L514,-224L506,-238L501,-241L499,-245L493,-251L485,-252L489,-259L496,-259L498,-263L497,-274L501,-287L507,-291L508,-296L513,-305L520,-311L525,-323L527,-334L541,-331L545,-341L552,-335L560,-338L562,-335L571,-335L581,-330L584,-326L590,-322L595,-315L599,-311L595,-305L591,-299L591,-296L592,-292L598,-292L601,-293L604,-291L601,-286L606,-280L610,-274L615,-269L654,-255Z" fill="#E0E0E0" stroke="#fff" stroke-width=".4"/><path d="M497,-146L472,-145L459,-146L455,-144L447,-140L444,-142L444,-151L447,-155L448,-165L451,-171L455,-177L460,-180L464,-184L459,-186L460,-200L465,-204L472,-201L482,-204L490,-204L498,-209L504,-201L505,-195L510,-181L506,-172L500,-164L497,-159Z" fill="#E0E0E0" stroke="#fff" stroke-width=".4"/><path d="M455,-144L459,-137L459,-130L455,-129L449,-129L445,-122L438,-123L439,-130L440,-131L441,-138L444,-142L447,-140Z" fill="#E0E0E0" stroke="#fff" stroke-width=".4"/></g><g clip-path="url(#v)"><path d="M392.1,61.0L391.9,61.6L391.7,62.5L391.9,63.2L392.4,64.1L393.1,64.9L393.7,65.4L394.3,66.6L394.9,68.1L395.7,69.2L398.2,71.9L398.5,72.8L398.8,73.7L400.4,75.6L400.6,76.2L400.5,77.4L402.1,81.1L403.1,83.2L404.0,83.6L406.8,85.9L409.3,87.8L412.2,89.0L414.3,89.9L415.3,90.5L415.9,91.1L416.3,92.2L416.5,94.1L416.6,95.4L418.9,95.3L420.7,95.4L421.4,95.7L421.7,96.0L421.6,96.9L421.6,98.1L421.7,99.1L421.5,100.1L421.4,101.4L421.3,102.9L421.6,103.5L423.4,105.5L424.1,106.8L425.0,108.7L425.4,109.3L425.8,109.5L427.5,109.8L431.7,110.5L434.3,111.3L436.4,112.0L437.2,112.2L437.7,112.4L437.8,112.6L437.5,114.3L437.6,114.8L437.9,115.3L438.2,115.7L438.7,115.9L440.2,116.1L441.2,117.2L441.8,117.6L438.9,117.9L437.5,118.7L436.7,120.3L435.4,121.4L433.7,122.1L431.8,122.6L429.9,122.8L427.8,124.2L425.6,126.5L424.5,128.0L424.4,128.6L424.0,129.2L423.0,129.6L422.5,130.1L422.4,130.8L421.9,131.1L421.0,131.1L420.4,131.5L420.0,132.4L419.2,133.0L418.0,133.2L417.0,133.8L416.1,134.6L415.4,135.1L414.9,135.1L414.2,135.8L413.0,137.5L412.8,138.2L411.2,144.6L410.3,145.3L408.6,146.6L407.2,148.2L406.5,149.1L405.9,149.5L402.7,150.3L401.5,150.7L400.0,151.3L399.7,151.8L399.3,153.8L398.3,156.6L397.5,158.7L397.0,160.5L396.1,162.8L395.3,163.5L394.4,164.2L393.2,164.6L391.6,164.8L390.1,164.7L389.0,164.8L387.4,165.6L386.0,165.6L383.6,165.1L381.7,164.7L380.9,164.6L379.2,163.1L378.2,163.2L376.5,163.0L375.6,162.7L374.8,161.9L372.9,160.5L371.1,159.3L369.5,158.6L368.0,158.2L366.6,158.5L365.5,158.8L365.1,159.0L364.2,159.6L363.4,160.8L362.6,162.6L362.4,163.7L361.5,166.1L360.4,169.0L360.0,169.9L359.3,170.5L358.4,171.0L355.3,173.3L353.8,175.9L352.9,176.7L351.7,177.0L350.7,177.2L350.2,177.6L349.5,179.0L349.0,179.4L348.4,179.6L346.7,179.5L346.1,179.3L341.4,179.6L340.1,179.1L339.1,179.0L337.5,179.5L336.8,179.2L336.3,178.1L336.0,175.9L336.1,174.1L337.0,172.6L337.7,171.6L338.4,170.3L338.5,169.7L338.3,169.2L338.2,168.1L338.1,166.9L337.1,164.5L335.9,161.2L334.2,157.6L333.7,156.6L332.7,155.1L328.9,152.1L328.3,151.7L328.3,151.3L328.3,148.5L328.3,144.7L328.3,140.9L328.3,137.1L328.3,133.3L328.3,129.5L328.3,125.8L328.3,122.0L328.3,118.3L328.3,115.1L331,115.1L334.4,115.1L338.5,115.1L340.3,115.1L340.4,114.6L340.4,112.3L340.4,107.0L340.4,101.7L340.4,96.4L340.3,91.1L340.3,85.9L340.3,80.7L340.3,75.4L340.3,70.2L340.3,67.7L343.4,67.5L347.0,67.0L352.9,66.1L358.3,65.1L361.8,64.5L366.0,63.7L367.4,63.6L367.8,63.7L368.4,63.9L370.4,66.5L371.6,68.5L371.8,69.4L372.1,69.5L372.6,69.3L373.3,69.0L375.2,67.0L375.7,66.5L376.9,65.6L378.5,64.6L379.9,63.9L381.2,63.3L381.9,63.5L382.6,63.9L383.3,64.3L386.5,61.9L387.9,61.3L391.6,60.9Z" fill="#4ECDC4" stroke="#2C3E50" stroke-width="1"/></g><circle cx="400.0" cy="150.0" r="4" fill="#E74C3C" stroke="#fff" stroke-width="2"/><text x="400.0" y="140.0" text-anchor="middle" font-family="sans-serif" font-weight="700" font-size="10" fill="#2D3436">Gaborone</text></svg>