<svg viewBox="0 0 800 300" xmlns="http://www.w3.org/2000/svg"><defs><clipPath id="v"><rect width="800" height="300"/></clipPath></defs><rect width="800" height="300" fill="#DCEEF8"/><g clip-path="url(#v)"><path d="M1273,260L1262,275L1250,277L1250,299L1241,309L1212,302L1202,340L1194,344L1165,352L1179,388L1169,393L1170,404L1161,401L1153,394L1132,392L1107,392L1102,394L1081,385L1073,390L1071,401L1047,394L1037,397L1034,406L1026,410L1006,423L1000,437L994,437L990,428L972,427L969,411L962,411L963,391L945,377L920,378L903,381L889,363L877,355L855,340L852,339L814,351L815,425L807,426L797,410L787,405L771,409L764,415L763,411L767,402L764,396L747,389L741,371L733,365L732,359L746,361L747,346L759,342L772,345L775,325L772,312L757,313L745,308L728,317L715,321L707,318L709,307L699,293L688,293L676,278L684,262L680,257L692,232L707,245L709,229L739,203L762,203L794,219L811,228L827,219L850,218L869,230L873,223L893,224L897,213L873,197L887,185L885,179L899,173L888,156L895,147L949,139L957,132L993,123L1006,113L1032,118L1037,144L1052,138L1071,147L1070,160L1084,159L1121,135L1115,143L1134,162L1166,223L1174,210L1194,224L1215,218L1223,222L1230,235L1241,240L1247,249L1266,246Z" fill="#E0E0E0" stroke="#fff" stroke-width=".4"/><path d="M815,425L814,351L852,339L855,340L877,355L889,363L903,381L920,378L945,377L963,391L962,411L969,411L972,427L990,428L994,437L1000,437L1006,423L1026,410L1034,406L1038,408L1026,421L1037,428L1047,423L1064,433L1046,447L1035,445L1029,446L1027,440L1030,431L1010,436L1005,448L998,459L986,458L982,466L993,471L996,485L988,503L977,499L969,499L969,488L950,480L935,471L925,462L908,449L901,429L896,426L881,426L875,422L873,407L854,396L841,408L829,415L831,424Z" fill="#E0E0E0" stroke="#fff" stroke-width=".4"/><path d="M1367,-1042L1399,-1063L1427,-1016L1461,-932L1457,-861L1425,-852L1385,-874L1360,-904L1349,-963L1329,-980ZM1500,-892L1537,-849L1532,-819L1490,-806L1450,-792L1477,-889L1489,-897ZM2025,-675L2064,-673L2117,-641L2105,-599L2051,-600L2027,-587L1998,-624L2006,-664ZM2163,-628L2199,-613L2182,-591L2159,-596L2132,-618L2135,-637ZM2040,-521L2054,-542L2073,-546L2093,-527L2095,-513L2073,-513L2043,-518ZM652,-1002L681,-1018L703,-1019L706,-995L714,-1017L728,-1032L750,-1012L744,-998L725,-986L712,-980L709,-966L692,-951L677,-972L685,-999ZM329,139L302,140L284,137L288,126L308,118L323,122L330,126L328,133ZM779,-541L814,-588L810,-613L843,-644L891,-682L939,-694L964,-717L993,-726L1003,-701L993,-681L941,-651L897,-623L852,-570L830,-519L807,-472L810,-432L838,-395L829,-392L781,-397L778,-417L751,-429L749,-455L764,-465L763,-491L792,-534ZM2085,155L2090,178L2090,202L2096,225L2110,266L2089,258L2080,290L2094,312L2094,327L2083,314L2073,331L2070,313L2072,292L2070,268L2074,251L2074,221L2066,198L2067,165L2080,153L2075,142L2081,138ZM-2632,-321L-2632,-321L-2596,-290L-2558,-252L-2559,-229L-2550,-220L-2553,-247L-2513,-241L-2485,-207L-2499,-191L-2523,-188L-2524,-154L-2529,-147L-2543,-148L-2554,-160L-2574,-170L-2577,-185L-2592,-191L-2608,-186L-2616,-198L-2613,-212L-2631,-203L-2624,-187L-2632,-172L-2632,-172L-2632,-321ZM2627,-172L2627,-172L2608,-156L2589,-159L2602,-141L2611,-114L2618,-105L2619,-92L2616,-84L2588,-91L2547,-67L2534,-63L2512,-42L2491,-24L2486,-10L2465,-31L2427,-8L2420,-19L2406,-6L2386,-10L2382,9L2364,36L2365,47L2381,53L2379,92L2366,93L2359,115L2366,126L2340,139L2335,167L2313,173L2309,197L2288,219L2282,203L2276,168L2268,113L2275,76L2287,60L2288,48L2311,41L2337,6L2362,-24L2388,-48L2400,-91L2382,-89L2373,-63L2336,-30L2324,-67L2287,-57L2250,-7L2262,11L2230,18L2207,21L2208,1L2185,-4L2167,10L2123,5L2075,14L2027,68L1971,129L1994,132L2001,148L2016,154L2025,141L2041,143L2062,170L2063,190L2051,214L2050,241L2043,277L2021,309L2016,323L1997,348L1977,371L1967,383L1948,395L1939,395L1930,386L1910,400L1908,407L1908,407L1906,403L1906,393L1913,393L1915,369L1911,351L1924,344L1942,348L1951,327L1956,304L1962,296L1970,277L1946,283L1933,292L1911,292L1905,271L1888,255L1862,248L1857,226L1852,211L1846,201L1837,177L1824,168L1802,161L1783,162L1765,166L1753,178L1761,184L1761,197L1753,204L1740,229L1740,239L1719,254L1702,245L1684,247L1677,239L1668,237L1647,253L1627,257L1614,262L1595,258L1582,259L1573,247L1559,236L1544,233L1526,236L1512,240L1491,231L1488,213L1471,207L1458,205L1441,195L1426,219L1432,233L1418,249L1397,243L1382,242L1373,232L1357,231L1345,224L1322,235L1295,254L1279,258L1273,260L1266,246L1247,249L1241,240L1230,235L1223,222L1215,218L1194,224L1174,210L1166,223L1134,162L1115,143L1121,135L1084,159L1070,160L1071,147L1052,138L1037,144L1032,118L1006,113L993,123L957,132L949,139L895,147L888,156L899,173L885,179L887,185L873,197L897,213L893,224L873,223L869,230L850,218L827,219L811,228L794,219L762,203L739,203L709,229L707,245L692,232L680,257L684,262L676,278L688,293L699,293L709,307L707,318L715,321L708,334L694,337L679,359L692,378L691,392L707,415L698,423L696,428L689,426L679,415L675,414L666,409L661,401L648,397L639,400L636,397L617,387L595,384L583,380L581,383L562,366L546,358L533,346L544,342L556,325L548,316L569,308L569,303L556,306L556,297L564,291L578,289L580,282L577,270L583,258L583,252L561,244L553,244L543,234L532,237L514,229L514,225L509,215L497,214L496,206L500,202L490,188L475,190L471,189L467,195L462,194L458,178L455,170L457,168L469,169L475,164L471,157L461,153L462,148L456,144L447,127L450,120L448,108L434,102L426,105L424,99L409,92L404,77L403,64L396,57L402,49L398,23L408,6L406,1L423,-15L407,-29L439,-67L452,-85L458,-102L436,-124L442,-145L429,-171L439,-201L422,-242L435,-271L413,-297L415,-325L427,-329L452,-345L467,-360L491,-335L531,-325L586,-280L597,-262L598,-237L582,-217L558,-208L493,-235L482,-231L506,-204L507,-188L508,-152L527,-142L538,-134L540,-150L531,-164L540,-177L576,-156L588,-164L578,-190L612,-225L626,-223L639,-210L648,-235L636,-258L643,-281L632,-305L673,-292L681,-270L663,-266L663,-245L674,-232L697,-240L700,-264L731,-282L782,-317L793,-315L779,-290L797,-286L807,-300L835,-301L856,-318L873,-293L889,-320L874,-344L882,-358L925,-345L945,-332L998,-286L1008,-307L993,-328L993,-337L975,-341L980,-361L972,-395L972,-409L998,-451L1008,-495L1019,-504L1058,-491L1061,-464L1047,-426L1056,-412L1061,-381L1057,-323L1073,-299L1067,-272L1039,-219L1055,-214L1061,-227L1077,-236L1081,-255L1094,-273L1085,-295L1092,-322L1076,-325L1072,-348L1084,-391L1065,-428L1091,-460L1088,-494L1095,-495L1103,-468L1097,-423L1113,-415L1106,-448L1130,-467L1161,-469L1188,-442L1175,-482L1173,-536L1199,-546L1234,-544L1266,-551L1254,-579L1271,-615L1287,-617L1316,-645L1354,-653L1359,-670L1398,-676L1410,-662L1442,-694L1469,-693L1473,-721L1487,-749L1522,-776L1547,-754L1527,-738L1560,-728L1564,-697L1577,-712L1620,-711L1653,-680L1665,-658L1661,-627L1645,-610L1606,-580L1595,-564L1614,-556L1635,-543L1648,-553L1656,-519L1662,-533L1685,-541L1732,-532L1736,-509L1797,-501L1798,-540L1829,-531L1852,-531L1876,-504L1882,-473L1874,-453L1892,-417L1915,-398L1929,-446L1953,-425L1978,-438L2006,-424L2017,-436L2041,-430L2030,-474L2049,-495L2116,-482L2181,-463L2194,-435L2232,-401L2291,-409L2320,-402L2332,-384L2330,-352L2348,-340L2368,-349L2394,-350L2421,-342L2449,-346L2475,-310L2493,-323L2481,-349L2487,-368L2534,-356L2564,-359L2606,-339L2627,-321L2627,-172ZM2627,-400L2611,-398L2608,-412L2627,-431L2627,-400ZM-2632,-431L-2632,-431L-2632,-431L-2630,-433L-2618,-433L-2597,-420L-2598,-414L-2613,-403L-2632,-400L-2632,-400L-2632,-431ZM486,330L490,325L500,330L505,331L507,335L509,335L509,337L516,342L531,341L528,348L512,352L492,364L484,360L487,350L471,344L474,340L488,333Z" fill="#E0E0E0" stroke="#fff" stroke-width=".4"/><path d="M218,-924L224,-952L245,-955L264,-926L312,-867L275,-838L267,-785L254,-772L247,-717L230,-715L198,-755L212,-779L190,-799L161,-860L150,-922L190,-952L198,-923ZM452,-345L427,-329L415,-325L421,-354L402,-371L380,-357L373,-326L359,-308L343,-318L324,-316L308,-338L299,-327L290,-325L288,-299L260,-305L256,-283L242,-283L233,-256L218,-215L195,-165L201,-153L195,-140L181,-141L172,-110L172,-68L182,-52L177,-17L165,3L158,19L149,2L120,34L100,41L80,27L75,-4L70,-73L84,-93L122,-121L151,-155L178,-203L213,-275L237,-305L277,-356L310,-375L334,-373L356,-409L382,-407L409,-416L454,-384L436,-372ZM398,-955L376,-911L334,-902L291,-915L288,-937L267,-939L251,-978L296,-1003L317,-981L332,-1008L369,-986ZM358,-787L326,-759L300,-775L310,-793L301,-815L332,-830L337,-803Z" fill="#E0E0E0" stroke="#fff" stroke-width=".4"/><path d="M-686,-1207L-637,-1278L-586,-1272L-567,-1319L-515,-1331L-456,-1325L-399,-1315L-350,-1266L-307,-1218L-334,-1175L-390,-1170L-430,-1166L-469,-1159L-461,-1141L-410,-1152L-366,-1116L-337,-1148L-325,-1111L-341,-1054L-304,-1090L-269,-1110L-233,-1129L-189,-1109L-181,-1067L-212,-1034L-241,-1001L-249,-981L-296,-966L-262,-962L-279,-902L-291,-852L-290,-772L-273,-729L-295,-726L-319,-706L-293,-673L-289,-623L-305,-617L-286,-570L-318,-566L-301,-544L-306,-526L-327,-518L-347,-518L-329,-484L-329,-463L-357,-483L-365,-470L-345,-458L-326,-429L-321,-393L-347,-384L-358,-401L-376,-427L-371,-397L-388,-374L-349,-372L-329,-370L-368,-333L-408,-301L-451,-287L-467,-287L-482,-272L-502,-232L-534,-207L-544,-205L-563,-197L-584,-188L-597,-167L-597,-143L-604,-121L-628,-96L-622,-71L-629,-46L-636,-17L-657,-15L-679,-39L-708,-39L-722,-56L-732,-86L-757,-126L-764,-148L-766,-179L-787,-211L-781,-238L-791,-251L-777,-297L-755,-311L-749,-328L-746,-361L-763,-346L-771,-340L-784,-334L-802,-348L-803,-377L-797,-400L-783,-401L-753,-389L-779,-417L-792,-433L-806,-426L-818,-438L-802,-482L-811,-500L-823,-536L-840,-592L-859,-614L-859,-638L-898,-673L-929,-678L-968,-675L-1003,-671L-1020,-690L-1046,-730L-1007,-751L-978,-754L-1041,-772L-1074,-800L-1071,-828L-1016,-864L-963,-901L-957,-931L-996,-961L-984,-995L-933,-1060L-912,-1070L-918,-1114L-883,-1142L-838,-1159L-794,-1159L-778,-1127L-739,-1186L-704,-1145L-684,-1137L-653,-1103L-688,-1159Z" fill="#E0E0E0" stroke="#fff" stroke-width=".4"/><path d="M-757,1028L-766,1041L-771,1052L-776,1057L-783,1058L-785,1054L-788,1054L-793,1058L-799,1055L-796,1049L-794,1042L-792,1036L-797,1027L-799,1017L-791,1004L-786,1006L-775,1009L-760,1022ZM88,255L95,261L116,265L108,280L106,295L102,299L96,297L96,303L85,315L85,324L92,321L97,330L97,336L101,344L96,350L100,366L108,369L106,377L93,389L64,383L43,390L41,402L24,404L7,395L2,400L-25,391L-31,383L-23,371L-20,330L-35,307L-46,296L-68,288L-70,272L-51,267L-26,273L-31,248L-17,257L17,240L21,221L34,216L36,224L43,225L50,234L60,245L67,243L80,253L83,255ZM125,399L134,391L137,408L132,423L125,419L122,406Z" fill="#E0E0E0" stroke="#fff" stroke-width=".4"/><path d="M136,623L130,593L121,586L120,582L108,571L107,558L116,548L120,533L117,516L120,507L136,499L146,502L146,511L158,504L159,508L152,517L152,525L157,530L155,545L146,554L148,564L156,564L160,572L165,575L164,588L157,593L153,599L143,605L144,612L143,620Z" fill="#E0E0E0" stroke="#fff" stroke-width=".4"/><path d="M570,592L564,571L596,552L602,531L600,518L608,513L616,502L622,499L639,501L644,506L651,503L661,524L670,530L671,540L664,547L661,560L671,577L689,586L696,600L694,612L699,612L699,621L707,630L698,629L688,628L678,644L650,642L609,609L587,596Z" fill="#E0E0E0" stroke="#fff" stroke-width=".4"/><path d="M969,499L977,499L988,503L993,505L1003,500L1008,503L1013,495L1022,495L1024,492L1025,485L1032,478L1040,483L1038,488L1042,489L1041,505L1047,511L1052,507L1058,505L1067,497L1078,498L1093,498L1095,503L1087,506L1079,509L1062,511L1047,515L1038,523L1042,530L1043,539L1036,547L1037,554L1033,560L1019,559L1025,571L1015,575L1009,586L1010,596L1004,601L999,600L988,602L986,607L975,607L967,616L966,631L947,638L937,636L934,640L926,638L911,640L887,632L900,616L899,605L888,602L886,591L882,578L888,568L881,565L885,553L891,530L906,537L917,535L920,527L932,524L940,518L943,504L955,500L958,494L965,499Z" fill="#E0E0E0" stroke="#fff" stroke-width=".4"/><path d="M988,503L996,485L993,471L982,466L986,458L998,459L1005,448L1010,436L1030,431L1027,440L1029,446L1035,445L1029,451L1013,448L1012,459L1028,457L1046,464L1074,461L1077,478L1082,476L1091,480L1090,488L1093,498L1078,498L1067,497L1058,505L1052,507L1047,511L1041,505L1042,489L1038,488L1040,483L1032,478L1025,485L1024,492L1022,495L1013,495L1008,503L1003,500L993,505Z" fill="#E0E0E0" stroke="#fff" stroke-width=".4"/><path d="M764,415L771,409L787,405L797,410L807,426L815,425L831,424L829,415L841,408L854,396L873,407L875,422L881,426L896,426L901,429L908,449L925,462L935,471L950,480L969,488L969,499L965,499L958,494L955,500L943,504L940,518L932,524L920,527L917,535L906,537L891,530L890,515L879,515L863,498L851,496L835,487L824,485L818,489L808,488L798,499L785,502L782,489L784,470L773,463L777,450L767,449L770,433L784,438L797,432L786,420L782,409L770,414L769,428Z" fill="#E0E0E0" stroke="#fff" stroke-width=".4"/><path d="M707,630L699,621L699,612L694,612L696,600L689,586L671,577L661,560L664,547L671,540L670,530L661,524L651,503L643,488L646,482L642,461L652,455L654,463L661,471L671,474L677,473L694,459L699,458L704,463L699,473L708,482L711,482L716,495L730,499L740,508L761,511L784,507L785,502L798,499L808,488L818,489L824,485L835,487L851,496L863,498L879,515L890,515L891,530L885,553L881,565L888,568L882,578L886,591L888,602L899,605L900,616L887,632L894,640L900,650L914,658L914,672L921,675L922,683L901,691L896,710L868,705L852,701L836,699L830,679L823,676L811,679L797,687L779,682L764,669L750,664L740,649L729,626L722,629L712,623Z" fill="#E0E0E0" stroke="#fff" stroke-width=".4"/><path d="M677,473L671,474L665,463L665,460L659,460L655,455L652,455L646,450L635,445L636,436L634,429L654,426L657,431L663,434L660,439L668,446L664,452L670,457L676,460Z" fill="#E0E0E0" stroke="#fff" stroke-width=".4"/><path d="M158,19L165,3L177,-17L182,-52L172,-68L172,-110L181,-141L195,-140L201,-153L195,-165L218,-215L233,-256L242,-283L256,-283L260,-305L288,-299L290,-325L299,-327L318,-307L341,-280L342,-222L346,-208L321,-198L307,-173L309,-152L286,-126L258,-98L247,-54L258,-33L272,-16L258,16L243,23L238,69L229,94L212,91L203,112L186,113L182,89L169,58Z" fill="#E0E0E0" stroke="#fff" stroke-width=".4"/><path d="M462,194L467,195L471,189L475,190L490,188L500,202L496,206L497,214L509,215L514,225L514,229L532,237L543,234L553,244L561,244L583,252L583,258L577,270L580,282L578,289L564,291L556,297L556,306L544,308L534,315L521,316L508,324L509,335L507,335L505,331L500,330L490,325L486,330L484,328L461,323L460,315L446,318L441,329L430,345L423,341L416,344L410,341L413,338L416,331L420,324L419,321L422,319L423,322L432,323L436,321L433,319L434,316L429,310L427,301L422,298L423,290L416,284L410,284L399,277L390,279L386,282L380,282L376,287L366,289L361,293L354,287L344,287L335,285L329,290L328,284L320,278L323,269L327,263L330,264L326,254L339,235L347,233L348,226L341,206L348,205L356,199L367,198L382,200L398,206L410,206L415,210L421,205L425,211L438,210L444,212L445,200L449,195Z" fill="#E0E0E0" stroke="#fff" stroke-width=".4"/><path d="M340,150L341,161L345,170L345,180L336,184L341,196L341,206L348,226L347,233L339,235L326,254L330,264L327,263L313,254L302,258L296,255L287,260L279,252L273,255L273,254L266,243L255,241L254,234L244,232L242,238L234,233L234,227L224,225L217,217L211,202L212,194L208,181L203,173L207,166L204,154L213,146L236,135L255,126L269,130L270,137L284,137L302,140L329,139L337,142Z" fill="#E0E0E0" stroke="#fff" stroke-width=".4"/><path d="M245,284L244,293L236,293L239,298L234,312L231,315L218,316L211,321L199,319L178,314L175,306L160,310L159,314L150,311L142,310L136,306L138,301L137,297L142,296L149,302L151,296L164,297L175,294L182,294L186,299L188,295L185,281L191,278L196,268L207,275L215,266L220,264L231,271L238,270L245,274L244,277Z" fill="#E0E0E0" stroke="#fff" stroke-width=".4"/><path d="M320,278L328,284L329,290L320,294L313,309L304,323L293,327L284,326L272,332L267,335L255,331L244,322L239,319L236,312L234,312L239,298L236,293L244,293L245,284L253,290L258,292L270,290L272,285L277,285L284,281L286,283L293,280L296,275L301,273L317,280Z" fill="#E0E0E0" stroke="#fff" stroke-width=".4"/><path d="M386,282L390,279L399,277L410,284L416,284L423,290L422,298L427,301L429,310L434,316L433,319L436,321L432,323L423,322L422,319L419,321L420,324L416,331L413,338L410,341L407,331L409,322L408,313L400,300L395,291L391,284Z" fill="#E0E0E0" stroke="#fff" stroke-width=".4"/><path d="M410,341L416,344L423,341L430,345L430,350L423,354L419,353L414,377L406,375L395,368L378,372L371,378L349,376L338,373L332,375L328,366L326,363L329,359L325,357L321,361L312,356L311,347L302,342L301,335L293,327L304,323L313,309L320,294L329,290L335,285L344,287L354,287L361,293L366,289L376,287L380,282L386,282L391,284L395,291L400,300L408,313L409,322L407,331Z" fill="#E0E0E0" stroke="#fff" stroke-width=".4"/><path d="M384,107L386,118L374,126L370,140L354,150L340,150L337,142L329,139L328,133L330,126L323,122L308,118L305,96L322,88L346,89L360,87L362,92L370,94Z" fill="#E0E0E0" stroke="#fff" stroke-width=".4"/><path d="M396,57L403,64L404,77L409,92L393,102L384,107L370,94L362,92L360,87L346,89L322,88L305,96L305,76L313,59L326,50L338,70L350,69L352,49L365,44L371,47L384,57Z" fill="#E0E0E0" stroke="#fff" stroke-width=".4"/><path d="M406,1L408,6L398,23L402,49L396,57L384,57L371,47L365,44L352,49L354,32L349,36L339,26L338,10L357,2L375,-3L391,2Z" fill="#E0E0E0" stroke="#fff" stroke-width=".4"/><path d="M204,154L207,166L203,173L208,181L212,194L211,202L217,217L210,219L206,217L203,221L192,226L187,231L176,236L179,243L180,253L188,258L196,268L191,278L185,281L188,295L186,299L182,294L175,294L164,297L151,296L149,302L142,296L137,297L122,291L119,295L106,295L108,280L116,265L95,261L88,255L88,245L86,240L87,224L85,200L94,200L97,191L101,169L98,160L101,155L113,154L116,159L126,147L122,138L122,123L133,127L142,123L142,133L157,138L157,147L172,143L180,136L197,146Z" fill="#E0E0E0" stroke="#fff" stroke-width=".4"/><path d="M328,366L332,375L338,373L349,376L371,378L378,372L395,368L406,375L414,377L407,386L402,400L406,411L394,408L379,415L379,424L365,426L355,419L343,425L333,424L331,411L324,405L327,402L325,400L327,393L333,387L326,378L325,371Z" fill="#E0E0E0" stroke="#fff" stroke-width=".4"/><path d="M381,537L379,542L358,543L359,541L341,537L343,529L351,535L363,534L374,536L373,539ZM333,424L343,425L355,419L365,426L379,424L379,415L386,420L381,432L378,434L369,434L361,432L344,437L354,448L346,451L338,451L331,441L328,445L331,456L338,465L333,469L341,478L348,483L348,494L335,489L339,498L330,500L335,516L326,517L314,509L308,494L306,482L300,473L293,462L292,457L298,448L299,442L304,439L304,434L314,432L319,428L327,428L330,425Z" fill="#E0E0E0" stroke="#fff" stroke-width=".4"/><path d="M651,503L644,506L639,501L622,499L616,502L599,505L591,504L575,511L563,511L555,508L539,513L534,509L533,519L529,523L525,527L520,519L525,512L517,514L504,510L494,520L472,522L460,512L445,512L441,519L431,521L417,512L401,512L392,494L382,484L389,469L380,460L396,442L418,441L424,426L452,429L470,416L487,411L511,410L536,424L557,432L574,429L587,430L604,420L620,419L634,429L636,436L635,445L646,450L652,455L642,461L646,482L643,488ZM379,415L394,408L406,411L408,419L421,425L418,430L401,431L394,437L382,447L378,438L378,434L381,432L386,420Z" fill="#E0E0E0" stroke="#fff" stroke-width=".4"/><path d="M304,434L304,439L299,442L298,448L292,457L289,456L289,452L281,445L279,436L281,423L283,417L280,414L279,407L286,398L287,401L290,400L294,405L297,407L298,414L296,421L298,429Z" fill="#E0E0E0" stroke="#fff" stroke-width=".4"/><path d="M239,319L244,322L255,331L267,335L272,332L276,340L281,346L275,354L268,349L258,349L246,346L239,346L236,351L230,346L227,354L234,364L238,370L244,378L250,382L255,391L268,398L267,402L253,394L245,387L231,381L219,366L222,365L215,356L215,349L206,346L201,355L197,348L197,341L198,340L208,341L210,338L215,341L221,341L221,336L226,333L228,325Z" fill="#E0E0E0" stroke="#fff" stroke-width=".4"/><path d="M137,297L138,301L136,306L142,310L150,311L149,320L142,323L131,321L128,329L121,330L119,326L111,334L104,335L97,330L92,321L85,324L85,315L96,303L96,297L102,299L106,295L119,295L122,291Z" fill="#E0E0E0" stroke="#fff" stroke-width=".4"/><path d="M86,240L88,245L88,255L83,255L80,253L82,240Z" fill="#E0E0E0" stroke="#fff" stroke-width=".4"/><path d="M87,224L86,240L82,240L80,253L67,243L60,245L50,234L43,225L36,224L34,216L46,211L56,213L70,208L79,219Z" fill="#E0E0E0" stroke="#fff" stroke-width=".4"/><path d="M98,160L101,169L97,191L94,200L85,200L87,224L79,219L70,208L56,213L46,211L53,205L66,170L86,160Z" fill="#E0E0E0" stroke="#fff" stroke-width=".4"/><path d="M-135,414L-129,409L-123,406L-120,415L-111,415L-109,413L-100,413L-96,423L-103,429L-103,444L-105,446L-106,455L-112,457L-106,468L-110,481L-105,486L-107,491L-113,498L-112,504L-118,509L-125,506L-133,508L-131,494L-132,483L-138,481L-142,474L-141,461L-135,455L-134,447L-131,435L-131,427L-134,420Z" fill="#E0E0E0" stroke="#fff" stroke-width=".4"/><path d="M-112,504L-113,498L-107,491L-105,486L-110,481L-106,468L-112,457L-106,455L-105,446L-103,444L-103,429L-96,423L-100,413L-109,413L-111,415L-120,415L-123,406L-129,409L-135,414L-134,399L-140,391L-119,376L-101,380L-82,380L-66,383L-54,382L-31,383L-25,391L2,400L7,395L24,404L41,402L42,413L28,426L9,430L8,437L-1,448L-7,463L-1,474L-10,482L-13,494L-24,498L-34,512L-53,512L-67,512L-76,518L-81,525L-88,524L-94,517L-98,507Z" fill="#E0E0E0" stroke="#fff" stroke-width=".4"/><path d="M-93,151L-91,168L-102,190L-128,204L-149,200L-137,175L-144,150L-124,131L-113,119L-110,133L-113,146L-104,146Z" fill="#E0E0E0" stroke="#fff" stroke-width=".4"/><path d="M150,311L159,314L160,310L175,306L178,314L199,319L197,330L201,338L189,335L177,343L178,353L176,359L181,369L195,380L202,396L218,412L230,412L233,416L229,420L242,427L253,433L266,443L267,447L264,453L256,445L244,441L238,454L248,461L246,471L240,472L232,488L226,489L226,484L229,473L233,469L227,459L222,449L216,447L212,438L203,435L196,427L185,426L174,417L161,404L151,393L146,373L139,370L127,364L120,367L112,376L106,377L108,369L100,366L96,350L101,344L97,336L97,330L104,335L111,334L119,326L121,330L128,329L131,321L142,323L149,320ZM213,485L224,483L219,498L221,503L218,513L207,506L199,504L179,495L181,485L198,487ZM124,433L132,427L141,440L138,466L132,464L126,471L120,466L120,443L116,432Z" fill="#E0E0E0" stroke="#fff" stroke-width=".4"/><path d="M142,123L133,127L122,123L116,109L115,82L118,75L122,67L135,65L140,58L152,50L151,64L147,73L149,81L157,84L153,94L149,92L138,110ZM178,94L183,107L174,127L159,113L157,102Z" fill="#E0E0E0" stroke="#fff" stroke-width=".4"/><path d="M-93,151L-104,146L-113,146L-110,133L-113,119L-101,118L-85,134ZM-48,162L-48,162L-46,148L-56,132L-56,132L-74,128L-77,121L-72,109L-77,102L-84,114L-85,89L-93,76L-87,48L-76,25L-64,28L-47,25L-62,55L-47,51L-31,52L-35,74L-48,97L-33,99L-32,102L-19,132L-9,136L-0,164L4,174L22,178L20,194L13,201L18,213L5,225L-14,225L-39,231L-46,227L-56,237L-69,235L-79,243L-87,239L-66,215L-53,210L-53,210L-76,206L-80,196L-64,189L-72,176L-70,160Z" fill="#E0E0E0" stroke="#fff" stroke-width=".4"/><path d="M675,414L679,415L689,426L696,428L698,423L707,415L715,425L722,439L729,440L733,445L721,447L719,461L716,468L711,472L711,482L708,482L699,473L704,463L699,458L694,459L677,473L676,460L670,457L664,452L668,446L660,439L663,434L657,431L654,426L658,423L669,428L677,429L679,427L671,417ZM671,474L661,471L654,463L652,455L655,455L659,460L665,460L665,463Z" fill="#E0E0E0" stroke="#fff" stroke-width=".4"/><path d="M581,383L583,380L595,384L617,387L636,397L639,400L648,397L661,401L666,409L675,414L671,417L679,427L677,429L669,428L658,423L654,426L634,429L620,419L604,420L606,412L603,398L594,391L586,389Z" fill="#E0E0E0" stroke="#fff" stroke-width=".4"/><path d="M199,319L211,321L218,316L231,315L234,312L236,312L239,319L228,325L226,333L221,336L221,341L215,341L210,338L208,341L198,340L201,338L197,330Z" fill="#E0E0E0" stroke="#fff" stroke-width=".4"/><path d="M415,-325L413,-297L435,-271L422,-242L439,-201L429,-171L442,-145L436,-124L458,-102L452,-85L439,-67L407,-29L381,-26L355,-16L331,-9L323,-25L309,-35L312,-65L305,-93L312,-112L325,-132L359,-169L368,-176L367,-191L346,-208L342,-222L341,-280L318,-307L299,-327L308,-338L324,-316L343,-318L359,-308L373,-326L380,-357L402,-371L421,-354Z" fill="#E0E0E0" stroke="#fff" stroke-width=".4"/><path d="M327,263L323,269L320,278L317,280L301,273L296,275L293,280L286,283L284,281L277,285L272,285L270,290L258,292L253,290L245,284L244,277L245,274L247,269L254,269L259,267L259,265L262,264L263,259L266,258L268,254L273,254L273,255L279,252L287,260L296,255L302,258L313,254Z" fill="#E0E0E0" stroke="#fff" stroke-width=".4"/><path d="M217,217L224,225L234,227L234,233L242,238L244,232L254,234L255,241L266,243L273,254L268,254L266,258L263,259L262,264L259,265L259,267L254,269L247,269L245,274L238,270L231,271L220,264L215,266L207,275L196,268L188,258L180,253L179,243L176,236L187,231L192,226L203,221L206,217L210,219Z" fill="#E0E0E0" stroke="#fff" stroke-width=".4"/><path d="M268,398L255,391L250,382L244,378L238,370L234,364L227,354L230,346L236,351L239,346L246,346L258,349L268,349L275,354L280,354L277,363L284,370L281,380L278,381L275,383L271,387Z" fill="#E0E0E0" stroke="#fff" stroke-width=".4"/><path d="M324,405L331,411L333,424L330,425L327,428L319,428L314,432L304,434L298,429L296,421L298,414L300,414L301,410L309,407L312,406L317,405Z" fill="#E0E0E0" stroke="#fff" stroke-width=".4"/><path d="M272,332L284,326L293,327L301,335L302,342L311,347L312,356L321,361L325,357L329,359L326,363L328,366L325,371L326,378L333,387L327,393L325,400L327,402L324,405L317,405L312,406L312,405L314,403L315,398L313,398L310,394L308,393L306,390L303,389L301,386L299,387L297,394L293,395L294,393L289,389L284,387L282,384L278,381L281,380L284,370L277,363L280,354L275,354L281,346L276,340Z" fill="#E0E0E0" stroke="#fff" stroke-width=".4"/><path d="M290,400L287,401L286,398L279,407L280,414L277,412L273,406L267,402L268,398L271,387L275,383L278,381L282,384L284,387L289,389L294,393L293,395Z" fill="#E0E0E0" stroke="#fff" stroke-width=".4"/><path d="M298,414L297,407L294,405L290,400L293,395L297,394L299,387L301,386L303,389L306,390L308,393L310,394L313,398L315,398L314,403L312,405L312,406L309,407L301,410L300,414Z" fill="#E0E0E0" stroke="#fff" stroke-width=".4"/></g><g clip-path="url(#v)"><path d="M461.3,193.7L458.5,193.5L455.2,193.6L453.3,194.9L452.6,194.6L451.3,194.2L449.8,195.0L447.9,197.2L446.6,198.6L445.2,200.5L444.8,201.5L444.0,203.4L443.3,205.6L443.7,207.1L444.3,208.5L444.5,210.1L444.7,211.3L443.9,212.1L443.5,213.4L442.1,213.2L440.4,212.0L440.0,210.2L438.7,209.0L437.8,208.4L436.4,208.3L434.1,208.9L431.2,209.3L429.0,209.4L427.7,210.0L425.9,210.6L425.3,209.9L424.3,207.9L423.4,206.0L422.9,205.1L422.4,204.9L421.8,204.9L421.1,205.6L420.6,206.2L419.8,206.4L418.7,206.9L417.9,207.7L416.9,209.4L416.4,209.3L415.7,208.9L415.1,206.9L414.1,206.4L412.5,206.4L410.5,205.9L409.0,205.3L408.4,205.5L407.4,206.3L406.4,206.5L404.2,205.7L403.8,206.1L403.2,207.2L402.5,208.3L401.9,208.4L401.5,208.1L401.7,206.2L400.4,205.5L398.3,205.4L396.8,205.7L396.0,205.6L395.6,205.2L393.8,201.9L392.8,201.7L391.0,201.9L388.3,201.5L385.3,200.8L383.7,200.5L382.8,199.8L381.0,199.5L376.0,198.1L373.9,197.9L370.9,197.9L366.4,197.5L363.4,197.7L362.1,198.2L360.5,198.5L357.8,198.7L356.8,198.7L355.1,198.9L353.2,199.2L352.6,199.9L351.9,201.4L349.7,204.0L347.5,205.7L347.2,205.9L345.8,205.0L344.8,204.7L343.6,204.5L342.7,204.8L342.1,205.3L342.2,207.3L342.1,207.4L341.1,205.1L341.2,202.9L341.7,201.7L342.4,200.6L342.1,198.9L342.7,196.7L342.8,195.1L342.5,194.4L342.0,193.6L340.6,192.8L340.0,192.1L338.0,191.1L336.1,190.0L335.8,189.2L335.9,188.8L336.2,188.0L337.7,185.9L339.2,183.8L340.3,182.9L345.6,180.2L346.4,179.2L346.6,177.6L346.6,176.5L346.5,174.4L346.2,171.4L345.8,169.4L344.8,165.5L342.0,157.4L340.3,149.0L341.4,149.5L344.0,149.7L346.0,149.1L347.1,149.1L347.9,149.2L349.4,148.9L350.6,148.7L351.3,149.5L352.5,150.2L354.8,149.2L356.9,148.0L359.0,148.1L359.4,147.5L359.9,144.6L360.6,143.9L363.1,144.2L364.1,143.7L365.1,142.2L366.6,141.3L367.9,141.3L369.2,140.2L369.8,140.9L370.1,142.2L369.7,143.1L369.9,143.5L370.8,144.0L372.4,144.0L373.4,143.6L373.6,143.0L373.6,142.0L373.4,141.1L372.7,140.2L371.5,139.8L370.6,139.7L370.5,139.2L370.8,138.1L371.5,136.0L372.5,134.1L373.0,133.4L373.1,132.7L373.0,131.6L373.0,129.5L373.9,126.6L375.0,124.4L376.6,123.7L378.4,123.3L379.6,122.3L380.2,121.1L380.4,120.0L380.7,119.2L381.3,118.8L385.9,119.0L386.6,117.2L386.9,116.6L387.8,116.0L388.4,115.4L388.2,114.8L387.0,114.5L384.3,114.2L383.8,113.6L383.9,112.8L384.7,110.9L385.3,108.4L385.7,106.4L385.8,105.2L386.1,104.9L388.3,104.5L389.1,104.1L391.0,101.4L392.4,101.0L396.2,101.7L397.9,101.6L398.4,101.7L400.1,101.8L400.3,101.5L401.1,98.9L401.8,98.1L404.7,94.6L406.7,93.1L408.0,92.7L408.4,92.8L410.4,95.1L410.9,95.2L412.0,94.3L412.2,94.2L414.5,94.1L415.6,95.0L416.4,96.5L417.1,97.7L417.9,98.0L420.1,96.5L421.4,96.0L422.2,96.0L425.0,97.4L426.4,98.2L426.7,98.9L426.7,99.7L426.4,100.9L426.0,102.2L426.9,103.7L427.9,104.8L430.1,103.1L430.9,102.6L431.8,102.6L432.9,101.9L433.8,100.9L434.6,100.6L436.1,100.8L438.9,100.6L442.1,102.1L442.5,102.6L444.1,104.4L444.7,105.3L445.2,105.5L446.0,106.4L447.2,106.9L448.0,106.7L448.4,107.1L448.8,107.7L448.8,108.9L448.7,112.2L448.1,113.1L447.5,113.9L447.3,114.5L447.4,115.2L448.3,116.7L449.5,118.8L449.8,120.1L449.8,121.1L448.2,123.9L447.6,124.5L447.2,125.9L447.0,127.3L447.2,127.9L449.9,130.1L451.9,131.3L452.3,131.8L452.4,132.2L451.3,134.6L451.2,135.2L452.8,136.2L453.7,137.7L454.5,140.2L456.0,142.7L459.3,144.7L461.7,146.1L462.2,146.8L462.3,147.5L462.2,149.1L461.5,151.1L461.1,152.2L462.1,152.7L464.6,152.5L467.6,152.9L471.3,155.1L471.3,156.1L470.9,157.0L471.2,157.9L471.6,158.7L474.7,161.1L475.1,161.9L475.1,163.0L475.0,163.9L474.1,164.1L473.2,164.5L471.6,165.5L471.0,166.9L468.4,169.0L466.8,169.9L465.5,169.9L462.5,169.5L461.4,168.5L461.0,167.6L459.9,167.2L458.3,167.2L456.2,167.3L455.8,167.6L455.4,168.7L454.5,170.6L453.9,171.7L454.4,172.3L455.3,173.7L456.6,175.4L457.9,177.0L458.3,177.9L458.3,178.6L457.7,179.4L457.8,181.0L459.1,183.0L458.7,183.4L458.5,185.9L458.5,188.7L458.9,189.3L459.6,189.8L460.2,190.8L461.2,193.1Z" fill="#4ECDC4" stroke="#2C3E50" stroke-width="1"/></g><circle cx="400.0" cy="150.0" r="4" fill="#E74C3C" stroke="#fff" stroke-width="2"/><text x="400.0" y="140.0" text-anchor="middle" font-family="sans-serif" font-weight="700" font-size="10" fill="#2D3436">Minsk</text></svg>