<svg viewBox="0 0 800 300" xmlns="http://www.w3.org/2000/svg"><defs><clipPath id="v"><rect width="800" height="300"/></clipPath></defs><rect width="800" height="300" fill="#DCEEF8"/><g clip-path="url(#v)"><path d="M829,-302L850,-306L879,-304L880,-292L832,-284ZM882,-314L916,-292L909,-257L901,-264L901,-289L882,-309ZM864,-225L877,-223L893,-183L893,-155L882,-153L871,-180L855,-194Z" fill="#E0E0E0" stroke="#fff" stroke-width=".4"/><path d="M-844,-592L-794,-596L-738,-602L-742,-592L-676,-566L-576,-530L-489,-531L-454,-531L-454,-552L-378,-552L-362,-533L-340,-517L-313,-495L-299,-468L-288,-440L-265,-425L-229,-410L-201,-450L-165,-451L-135,-431L-113,-397L-97,-367L-72,-339L-62,-304L-50,-281L-15,-266L16,-256L33,-257L16,-214L8,-180L5,-116L1,-92L8,-66L22,-43L31,-7L60,28L70,54L87,77L134,89L152,109L190,96L224,91L257,83L284,75L312,56L323,29L326,-10L334,-24L363,-36L410,-47L449,-46L475,-50L486,-40L484,-17L461,11L450,39L459,47L452,67L441,103L430,92L421,92L412,93L397,121L389,115L383,118L384,124L343,124L302,124L302,150L282,150L299,165L315,176L320,186L327,188L326,204L269,204L248,241L255,250L249,260L248,274L199,225L176,210L140,198L116,201L81,219L58,223L27,211L-5,202L-46,181L-79,175L-129,154L-166,132L-177,119L-201,117L-246,102L-264,81L-312,55L-334,25L-344,2L-329,-2L-334,-16L-324,-28L-324,-44L-338,-65L-342,-84L-357,-108L-396,-155L-440,-193L-461,-223L-499,-243L-507,-255L-500,-285L-523,-296L-548,-320L-559,-355L-583,-359L-608,-385L-629,-409L-631,-425L-654,-463L-670,-502L-669,-522L-701,-542L-716,-540L-741,-554L-748,-533L-740,-509L-736,-470L-721,-450L-689,-415L-681,-403L-675,-399L-669,-382L-661,-383L-652,-351L-639,-338L-630,-321L-602,-296L-588,-250L-574,-229L-562,-206L-560,-181L-539,-179L-521,-158L-505,-136L-506,-128L-525,-110L-532,-110L-544,-139L-573,-167L-604,-190L-627,-202L-625,-238L-632,-264L-653,-279L-683,-301L-689,-295L-700,-307L-727,-319L-753,-348L-750,-352L-732,-349L-715,-368L-714,-390L-748,-426L-773,-440L-789,-471L-806,-505L-826,-546Z" fill="#E0E0E0" stroke="#fff" stroke-width=".4"/><path d="M1360,863L1352,869L1343,843L1331,829L1317,844L1231,843L1232,871L1257,875L1256,892L1247,887L1223,895L1222,926L1242,942L1249,968L1248,987L1228,1107L1206,1084L1193,1083L1221,1038L1188,1017L1161,1021L1145,1013L1121,1025L1089,1020L1063,974L1042,962L1028,942L999,921L988,925L969,915L947,900L935,907L898,901L887,882L879,883L835,858L829,844L845,841L843,819L854,803L875,800L894,772L911,749L894,739L903,713L893,673L902,661L895,624L878,601L883,579L897,582L906,569L895,543L901,537L923,538L956,507L974,502L975,488L983,450L1008,429L1036,428L1039,419L1074,423L1108,400L1125,390L1146,368L1162,371L1173,383L1165,398L1137,406L1125,428L1109,441L1096,457L1090,489L1078,515L1101,518L1107,539L1116,548L1120,566L1114,583L1116,592L1127,595L1137,611L1194,607L1219,612L1250,650L1268,646L1299,648L1324,643L1340,650L1332,674L1322,689L1319,721L1328,750L1340,763L1341,773L1319,795L1335,804L1347,820Z" fill="#E0E0E0" stroke="#fff" stroke-width=".4"/><path d="M901,537L895,543L906,569L897,582L883,579L878,601L863,588L854,564L864,552L853,549L845,534L823,522L804,525L795,540L777,551L768,553L764,562L784,586L773,592L766,598L746,601L738,574L732,582L718,579L709,561L691,558L680,553L661,553L660,563L655,556L657,548L660,539L659,530L665,525L656,519L656,501L673,497L689,513L688,522L705,524L709,520L722,531L743,528L762,517L788,508L803,495L828,497L826,502L850,503L870,511L884,524Z" fill="#E0E0E0" stroke="#fff" stroke-width=".4"/><path d="M673,497L656,501L656,519L665,525L659,530L660,539L657,548L655,556L631,546L622,537L627,529L625,520L613,509L596,500L581,495L578,481L566,474L569,487L561,497L550,485L536,480L530,471L531,458L536,444L524,437L534,429L541,423L570,435L580,429L594,433L601,442L614,445L624,436L635,460L652,478Z" fill="#E0E0E0" stroke="#fff" stroke-width=".4"/><path d="M624,436L614,445L601,442L594,433L580,429L570,435L541,423L534,429L519,415L498,397L489,382L470,368L448,347L453,340L460,347L464,344L477,342L483,332L489,331L488,309L499,308L508,308L517,296L530,305L535,300L543,294L558,282L559,273L563,273L569,262L573,261L581,268L590,270L599,264L610,264L626,258L632,252L647,253L643,257L641,267L645,284L635,299L630,318L629,337L631,349L632,369L626,374L621,393L624,405L616,416L618,428Z" fill="#E0E0E0" stroke="#fff" stroke-width=".4"/><path d="M647,253L632,252L626,258L610,264L599,264L590,270L581,268L573,261L569,262L563,273L559,273L558,282L543,294L535,300L530,305L517,296L508,308L499,308L488,309L489,331L483,332L477,342L464,344L456,330L443,326L446,308L440,303L431,300L412,305L410,299L397,292L387,283L374,279L384,267L380,258L383,250L404,237L424,220L429,221L438,213L451,213L455,216L462,214L482,218L502,217L516,212L521,207L535,209L546,212L557,211L566,207L586,214L593,215L606,223L619,233L635,240Z" fill="#E0E0E0" stroke="#fff" stroke-width=".4"/><path d="M374,279L387,283L397,292L410,299L412,305L431,300L440,303L446,308L443,326L438,336L413,336L397,331L379,323L354,320L342,310L343,303L358,292L366,287L364,282Z" fill="#E0E0E0" stroke="#fff" stroke-width=".4"/><path d="M248,274L249,260L255,250L248,241L269,204L326,204L327,188L320,186L315,176L299,165L282,150L302,150L302,124L343,124L384,124L383,161L380,212L393,212L407,221L411,214L424,220L404,237L383,250L380,258L384,267L374,279L364,282L366,287L358,292L343,303L342,310L319,302L292,301L272,292Z" fill="#E0E0E0" stroke="#fff" stroke-width=".4"/><path d="M891,93L921,97L944,108L951,121L921,122L907,129L883,122L858,105L863,94L881,91Z" fill="#E0E0E0" stroke="#fff" stroke-width=".4"/><path d="M685,-128L723,-124L758,-124L799,-108L816,-90L857,-96L873,-84L910,-55L937,-34L952,-34L978,-25L975,-12L1007,-10L1040,9L1035,20L1006,26L976,29L946,25L883,29L912,3L895,-9L866,-12L851,-25L841,-52L816,-50L775,-63L762,-73L705,-80L690,-90L706,-101L663,-104L631,-79L613,-79L607,-67L585,-62L567,-66L590,-81L599,-98L619,-109L641,-118L675,-122Z" fill="#E0E0E0" stroke="#fff" stroke-width=".4"/></g><g clip-path="url(#v)"><path d="M382.9,124.0L382.7,120.0L384.0,116.9L387.8,115.5L392.4,118.2L394.4,119.4L396.1,118.8L398.4,117.1L401.2,112.1L408.0,102.0L410.8,94.9L413.5,93.5L417.5,93.2L420.8,93.7L418.4,98.9L420.8,99.6L423.0,99.1L428.0,99.3L430.1,105.0L429.5,109.9L424.7,122.5L424.1,126.9L421.9,133.4L424.9,137.7L422.0,143.5L421.1,147.2L420.9,152.7L422.4,163.2L420.0,178.3L416.0,184.9L413.5,187.4L409.1,193.9L403.3,195.9L395.2,206.4L393.8,209.2L394.6,212.2L392.7,212.2L384.9,211.7L379.7,212.3L379.6,212.1L379.9,200.7L380.7,183.1L381.1,170.2L381.6,157.6L381.9,148.1L382.4,135.2ZM435.9,118.9L433.9,119.8L435.6,117.1L435.8,115.4L438.3,108.3L439.9,108.4L440.4,109.0ZM440.2,142.0L436.9,148.5L436.6,146.7L438.0,141.9L439.9,140.2L441.1,138.5L441.5,136.4L443.0,137.4L442.6,139.4Z" fill="#4ECDC4" stroke="#2C3E50" stroke-width="1"/></g><circle cx="400.0" cy="150.0" r="4" fill="#E74C3C" stroke="#fff" stroke-width="2"/><text x="400.0" y="140.0" text-anchor="middle" font-family="sans-serif" font-weight="700" font-size="10" fill="#2D3436">Belmopan</text></svg>