<svg viewBox="0 0 800 300" xmlns="http://www.w3.org/2000/svg"><defs><clipPath id="v"><rect width="800" height="300"/></clipPath></defs><rect width="800" height="300" fill="#DCEEF8"/><g clip-path="url(#v)"><path d="M1449,237L1450,236L1452,238L1451,241L1447,242L1444,241L1443,238L1446,236ZM1461,230L1457,232L1452,233L1452,231L1455,229L1457,229L1461,227L1461,227L1461,230ZM-858,227L-858,227L-858,227L-857,227L-857,230L-858,230L-858,230L-858,227Z" fill="#E0E0E0" stroke="#fff" stroke-width=".4"/><path d="M520,128L521,129L544,142L545,146L554,152L551,160L551,164L555,166L556,168L554,172L554,174L554,177L556,181L559,188L561,189L556,193L549,195L545,195L543,197L538,197L537,198L529,196L524,197L522,188L520,185L519,183L512,182L509,180L505,179L502,178L499,176L496,168L492,164L491,160L492,157L490,151L493,151L495,149L498,145L499,144L499,142L498,140L498,138L499,137L500,133L497,129L500,129L507,129Z" fill="#E0E0E0" stroke="#fff" stroke-width=".4"/><path d="M246,-63L246,-63L245,-61L245,-51L224,-51L225,-33L218,-32L217,-29L218,-18L193,-19L192,-16L192,-19L192,-19L206,-20L207,-22L210,-25L212,-35L221,-43L224,-52L226,-52L228,-58L233,-58L236,-58L239,-58L241,-59L245,-59L245,-63Z" fill="#E0E0E0" stroke="#fff" stroke-width=".4"/><path d="M-490,-241L-491,-241L-503,-251L-508,-255L-519,-259L-523,-268L-522,-275L-530,-279L-531,-288L-539,-296L-539,-302L-536,-307L-536,-314L-547,-322L-553,-335L-557,-344L-563,-349L-568,-355L-571,-361L-578,-357L-584,-350L-590,-358L-594,-364L-600,-367L-607,-368L-607,-449L-607,-513L-595,-508L-584,-500L-578,-498L-572,-506L-564,-511L-555,-509L-545,-517L-535,-522L-530,-514L-525,-518L-524,-527L-519,-525L-508,-509L-500,-521L-499,-507L-491,-510L-489,-516L-481,-514L-471,-507L-456,-500L-447,-497L-441,-498L-432,-489L-441,-481L-430,-477L-412,-479L-407,-482L-400,-472L-393,-480L-399,-488L-395,-494L-387,-494L-382,-496L-377,-492L-371,-483L-363,-484L-352,-476L-342,-479L-333,-479L-333,-489L-328,-492L-318,-486L-318,-470L-314,-484L-308,-483L-305,-501L-312,-512L-320,-520L-319,-541L-312,-556L-303,-553L-297,-544L-288,-522L-294,-513L-282,-509L-282,-490L-273,-504L-265,-493L-267,-480L-261,-469L-254,-481L-250,-496L-249,-516L-240,-515L-231,-512L-222,-503L-222,-494L-226,-485L-222,-475L-223,-467L-235,-456L-244,-453L-251,-458L-253,-450L-259,-437L-261,-430L-268,-420L-278,-419L-283,-413L-283,-404L-291,-402L-299,-391L-306,-376L-308,-365L-308,-350L-299,-348L-296,-337L-293,-328L-284,-330L-272,-325L-266,-321L-261,-315L-253,-312L-246,-307L-235,-307L-228,-305L-230,-296L-228,-285L-223,-273L-213,-263L-208,-266L-205,-277L-208,-294L-213,-300L-202,-305L-195,-313L-192,-321L-192,-329L-196,-339L-204,-349L-197,-362L-199,-374L-202,-395L-197,-398L-186,-394L-179,-393L-174,-397L-168,-392L-160,-384L-158,-379L-147,-378L-147,-367L-145,-351L-139,-349L-134,-341L-125,-348L-119,-362L-115,-368L-110,-357L-101,-341L-94,-326L-97,-319L-88,-313L-82,-306L-72,-303L-68,-300L-65,-290L-60,-289L-58,-285L-57,-273L-62,-269L-67,-265L-77,-262L-85,-253L-96,-252L-110,-254L-120,-254L-126,-253L-132,-246L-140,-242L-149,-229L-157,-220L-151,-221L-141,-234L-127,-242L-118,-243L-112,-238L-118,-232L-116,-222L-114,-214L-105,-210L-95,-211L-88,-222L-88,-215L-84,-212L-92,-205L-106,-200L-112,-196L-120,-190L-124,-191L-125,-198L-114,-206L-124,-205L-131,-204L-135,-210L-135,-222L-138,-225L-142,-223L-145,-226L-149,-219L-151,-211L-154,-207L-156,-206L-158,-205L-159,-203L-171,-203L-181,-203L-184,-201L-190,-195L-191,-194L-193,-191L-199,-191L-206,-191L-208,-189L-207,-188L-207,-185L-207,-184L-215,-180L-222,-178L-230,-174L-231,-174L-233,-175L-234,-176L-234,-177L-232,-180L-229,-185L-228,-190L-229,-198L-230,-206L-237,-211L-236,-212L-237,-213L-239,-213L-240,-215L-240,-217L-242,-216L-243,-216L-243,-217L-245,-218L-245,-221L-250,-224L-255,-227L-262,-231L-268,-234L-274,-231L-276,-231L-284,-234L-289,-233L-295,-236L-302,-237L-306,-238L-308,-239L-309,-245L-311,-245L-311,-241L-325,-241L-347,-241L-369,-241L-388,-241L-407,-241L-426,-241L-446,-241L-452,-241L-471,-241ZM-240,-397L-235,-403L-226,-403L-226,-400L-234,-393L-238,-393ZM-212,-575L-219,-587L-219,-595L-216,-596L-201,-594L-190,-581L-190,-575L-197,-576L-203,-577L-211,-574ZM-216,-392L-213,-396L-211,-395L-209,-393L-212,-385L-214,-387L-216,-391ZM-301,-626L-305,-616L-314,-618L-322,-624L-319,-636L-309,-642L-304,-633ZM-303,-695L-306,-694L-318,-696L-320,-704L-307,-704L-302,-698ZM-322,-734L-314,-722L-316,-711L-325,-705L-331,-712L-333,-724L-334,-737L-325,-736ZM-266,-611L-277,-614L-294,-622L-296,-636L-297,-649L-303,-660L-317,-664L-324,-672L-322,-684L-308,-682L-301,-673L-289,-673L-283,-664L-284,-654L-277,-648L-273,-642L-264,-640L-255,-638L-245,-644L-232,-646L-221,-644L-214,-634L-213,-624L-217,-618L-226,-612L-235,-615L-253,-612ZM-415,-714L-406,-709L-408,-700L-420,-691L-430,-701L-425,-711ZM-413,-735L-405,-728L-413,-722L-423,-722L-423,-727L-417,-736ZM-57,-264L-60,-258L-64,-249L-60,-252L-56,-250L-58,-247L-52,-244L-49,-246L-43,-243L-45,-236L-41,-238L-40,-233L-38,-227L-40,-218L-43,-218L-48,-220L-46,-228L-48,-229L-55,-221L-59,-221L-55,-225L-61,-228L-68,-227L-80,-227L-81,-230L-77,-234L-80,-236L-75,-242L-68,-258L-64,-264L-58,-267L-55,-267ZM-239,-435L-232,-430L-224,-426L-224,-418L-219,-420L-214,-415L-220,-410L-230,-414L-234,-420L-240,-412L-249,-405L-252,-413L-260,-412L-255,-419L-254,-431L-252,-445L-247,-444L-246,-437L-243,-439ZM-206,-565L-200,-574L-186,-563L-177,-553L-176,-544L-164,-549L-157,-536L-142,-528L-136,-521L-130,-503L-142,-495L-127,-483L-116,-480L-107,-464L-97,-463L-99,-452L-110,-434L-118,-440L-128,-455L-137,-453L-137,-444L-131,-435L-122,-428L-119,-424L-115,-410L-117,-400L-125,-404L-142,-415L-132,-403L-126,-394L-125,-389L-142,-395L-156,-403L-164,-410L-162,-414L-171,-422L-181,-429L-180,-425L-199,-422L-205,-427L-200,-438L-188,-439L-175,-441L-177,-446L-175,-454L-166,-470L-168,-478L-171,-483L-181,-492L-194,-498L-190,-502L-196,-514L-202,-515L-207,-521L-211,-516L-222,-513L-246,-518L-259,-523L-270,-526L-275,-533L-268,-542L-278,-542L-280,-563L-275,-582L-268,-591L-251,-597L-256,-583L-251,-569L-245,-587L-229,-596L-218,-573L-219,-559ZM-307,-605L-294,-604L-282,-599L-291,-579L-299,-574L-306,-558L-313,-559L-317,-578L-317,-589L-314,-599ZM-490,-655L-479,-676L-466,-694L-456,-694L-447,-698L-448,-676L-453,-666L-459,-665L-471,-653L-481,-649ZM-553,-293L-547,-294L-549,-282L-543,-273L-546,-273L-550,-278L-552,-283L-556,-286L-557,-291L-556,-295ZM-378,-752L-365,-747L-348,-735L-343,-719L-341,-706L-351,-710L-362,-720L-376,-721L-370,-731L-378,-739ZM-494,-236L-497,-235L-508,-239L-510,-243L-516,-246L-517,-249L-523,-251L-526,-256L-525,-259L-519,-256L-515,-255L-508,-254L-506,-250L-503,-246L-497,-241ZM-481,-613L-472,-608L-456,-606L-449,-599L-443,-590L-451,-584L-466,-569L-474,-554L-474,-545L-491,-536L-495,-544L-510,-555L-507,-564L-502,-580L-497,-595L-503,-609ZM-393,-648L-387,-652L-381,-651L-379,-638L-383,-626L-405,-622L-421,-612L-431,-611L-432,-619L-419,-630L-448,-627L-457,-632L-448,-657L-442,-665L-424,-656L-412,-640L-401,-638L-410,-663L-404,-673L-398,-670L-396,-657ZM-385,-581L-377,-572L-373,-552L-371,-537L-361,-528L-349,-519L-350,-510L-360,-509L-356,-502L-358,-495L-370,-498L-381,-503L-388,-502L-401,-496L-417,-493L-428,-492L-432,-500L-441,-505L-446,-503L-454,-517L-450,-519L-440,-523L-431,-522L-423,-525L-435,-530L-449,-528L-458,-529L-461,-536L-446,-544L-456,-543L-468,-549L-462,-564L-458,-573L-440,-586L-434,-582L-437,-572L-423,-578L-414,-567L-407,-578L-401,-571L-395,-551L-392,-559L-397,-581L-391,-584ZM-345,-573L-353,-587L-345,-598L-337,-593L-326,-596L-324,-590L-330,-579L-320,-570L-322,-551L-332,-543L-338,-545L-343,-552L-359,-569L-359,-576ZM-385,-593L-377,-594L-372,-589L-377,-574L-387,-589ZM-333,-671L-328,-659L-328,-645L-331,-626L-341,-623L-348,-627L-348,-642L-359,-640L-359,-661L-352,-660L-343,-669L-333,-668ZM-317,-800L-313,-812L-306,-815L-309,-824L-294,-827L-286,-805L-275,-796L-264,-789L-259,-764L-251,-753L-260,-743L-272,-718L-283,-716L-297,-720L-304,-733L-304,-745L-298,-755L-310,-754L-317,-766L-321,-783ZM-288,-855L-279,-863L-271,-865L-259,-873L-249,-891L-241,-888L-234,-875L-229,-902L-221,-910L-209,-916L-190,-918L-186,-912L-168,-921L-154,-918L-140,-915L-123,-910L-109,-904L-97,-890L-97,-877L-113,-856L-129,-847L-134,-837L-120,-837L-136,-812L-146,-800L-157,-769L-170,-763L-174,-756L-194,-752L-185,-748L-189,-742L-184,-726L-190,-715L-200,-706L-203,-694L-212,-685L-211,-679L-200,-680L-200,-673L-217,-657L-234,-664L-253,-660L-263,-663L-275,-665L-276,-678L-264,-684L-267,-706L-263,-708L-246,-695L-255,-715L-265,-721L-260,-733L-248,-741L-247,-753L-256,-767L-258,-786L-241,-785L-236,-781L-226,-794L-240,-799L-263,-796L-274,-810L-280,-827L-287,-839ZM-183,-473L-187,-468L-194,-467L-196,-475L-193,-485L-187,-487L-182,-482L-182,-475ZM-319,-509L-315,-502L-319,-495L-327,-501L-333,-499L-341,-507L-336,-513L-331,-521L-324,-516L-320,-512ZM-114,-250L-112,-250L-103,-248L-97,-244L-97,-242L-100,-242L-108,-245ZM-111,-222L-109,-217L-104,-216L-98,-216L-101,-213L-104,-212L-112,-216L-113,-219Z" fill="#E0E0E0" stroke="#fff" stroke-width=".4"/><path d="M-490,-241L-471,-241L-452,-241L-446,-241L-426,-241L-407,-241L-388,-241L-369,-241L-347,-241L-325,-241L-311,-241L-311,-245L-309,-245L-308,-239L-306,-238L-302,-237L-295,-236L-289,-233L-284,-234L-276,-231L-274,-231L-268,-234L-262,-231L-255,-227L-250,-224L-245,-221L-245,-218L-243,-217L-243,-216L-242,-216L-240,-217L-240,-215L-239,-213L-237,-213L-236,-212L-237,-211L-230,-206L-229,-198L-228,-190L-229,-185L-232,-180L-234,-177L-234,-176L-233,-175L-231,-174L-230,-174L-222,-178L-215,-180L-207,-184L-207,-185L-207,-188L-208,-189L-206,-191L-199,-191L-193,-191L-191,-194L-190,-195L-184,-201L-181,-203L-171,-203L-159,-203L-158,-205L-156,-206L-154,-207L-151,-211L-149,-219L-145,-226L-142,-223L-138,-225L-135,-222L-135,-210L-131,-204L-130,-201L-137,-197L-143,-194L-150,-191L-154,-186L-155,-184L-155,-179L-153,-175L-150,-175L-151,-178L-149,-176L-149,-173L-154,-172L-157,-172L-161,-171L-164,-170L-168,-170L-173,-167L-164,-169L-162,-167L-171,-165L-175,-165L-175,-166L-177,-163L-175,-163L-176,-157L-181,-151L-181,-153L-183,-153L-185,-155L-184,-151L-182,-149L-182,-146L-184,-143L-188,-136L-188,-137L-186,-142L-190,-145L-190,-152L-192,-149L-190,-143L-194,-145L-190,-142L-190,-134L-188,-134L-187,-131L-186,-123L-190,-117L-197,-115L-201,-110L-205,-110L-208,-107L-209,-104L-216,-99L-219,-96L-222,-91L-223,-86L-222,-81L-220,-74L-217,-69L-217,-66L-214,-58L-214,-53L-215,-50L-216,-46L-218,-45L-221,-46L-222,-49L-225,-50L-228,-57L-231,-62L-232,-65L-231,-70L-233,-74L-238,-80L-240,-81L-247,-78L-248,-78L-251,-82L-255,-84L-262,-83L-268,-83L-273,-83L-276,-82L-274,-80L-275,-77L-273,-75L-274,-74L-277,-75L-279,-74L-284,-74L-289,-78L-294,-77L-299,-79L-303,-78L-308,-77L-314,-71L-321,-68L-324,-65L-326,-61L-326,-56L-325,-53L-324,-50L-327,-50L-331,-52L-336,-54L-338,-57L-340,-62L-343,-67L-346,-71L-349,-76L-353,-79L-359,-79L-363,-73L-368,-75L-371,-77L-373,-81L-375,-85L-379,-89L-382,-91L-385,-94L-396,-94L-396,-91L-401,-91L-414,-91L-428,-96L-438,-100L-437,-101L-446,-100L-453,-100L-454,-104L-458,-108L-461,-109L-462,-111L-466,-112L-468,-114L-474,-114L-475,-116L-476,-120L-482,-128L-488,-139L-488,-141L-490,-144L-495,-151L-496,-157L-500,-162L-498,-169L-499,-176L-501,-183L-498,-191L-497,-200L-497,-208L-498,-220L-500,-228L-502,-233L-501,-235L-492,-232L-488,-223L-486,-225L-488,-233ZM-699,-10L-698,-9L-697,-8L-696,-6L-696,-6L-698,-4L-700,-3L-701,-2L-703,-3L-703,-5L-704,-7L-703,-8L-702,-9L-703,-11L-702,-11L-702,-11ZM-703,-15L-704,-14L-706,-13L-707,-15L-708,-15L-708,-16L-707,-16L-705,-16ZM-708,-17L-708,-17L-712,-17L-711,-18ZM-716,-21L-716,-21L-714,-18L-714,-18L-715,-18L-717,-18L-718,-20L-718,-20ZM-725,-25L-725,-23L-726,-22L-728,-24L-727,-24L-726,-25ZM-771,-369L-766,-368L-765,-363L-769,-361L-773,-363L-777,-367ZM-685,-338L-681,-338L-678,-334L-684,-328L-690,-324L-694,-327L-695,-332L-689,-337ZM-607,-513L-607,-449L-607,-368L-600,-367L-594,-364L-590,-358L-584,-350L-578,-357L-571,-361L-568,-355L-563,-349L-557,-344L-553,-335L-547,-322L-536,-314L-536,-307L-539,-302L-543,-306L-549,-309L-550,-319L-559,-329L-562,-340L-568,-341L-579,-341L-586,-345L-599,-358L-606,-360L-617,-365L-626,-364L-638,-370L-646,-375L-653,-373L-652,-364L-655,-363L-663,-360L-669,-356L-676,-353L-677,-361L-674,-373L-667,-377L-669,-381L-677,-373L-681,-365L-691,-356L-686,-349L-692,-341L-699,-335L-705,-332L-707,-327L-717,-321L-719,-315L-726,-310L-731,-311L-737,-308L-743,-304L-749,-300L-760,-297L-761,-299L-754,-304L-748,-308L-741,-314L-733,-315L-729,-320L-721,-327L-719,-329L-714,-334L-713,-343L-710,-350L-717,-346L-720,-348L-723,-344L-727,-350L-729,-346L-731,-352L-738,-347L-742,-347L-742,-354L-741,-359L-745,-364L-754,-361L-759,-367L-763,-370L-764,-378L-768,-384L-766,-391L-761,-399L-758,-406L-753,-407L-749,-405L-744,-412L-739,-411L-734,-415L-735,-422L-739,-425L-734,-431L-738,-430L-745,-427L-747,-424L-752,-427L-761,-425L-770,-429L-773,-435L-781,-444L-772,-451L-758,-459L-753,-459L-753,-450L-740,-451L-745,-461L-753,-467L-758,-476L-764,-483L-773,-488L-769,-498L-758,-498L-749,-507L-748,-516L-741,-525L-735,-527L-723,-535L-717,-534L-707,-545L-697,-540L-693,-532L-690,-535L-679,-534L-679,-530L-669,-526L-663,-528L-649,-522L-637,-520L-632,-518L-623,-521L-614,-515ZM-805,-416L-801,-413L-797,-414L-791,-410L-785,-409L-786,-407L-790,-404L-795,-407L-798,-410L-803,-409L-805,-410Z" fill="#E0E0E0" stroke="#fff" stroke-width=".4"/><path d="M864,-243L859,-236L854,-236L853,-226L850,-222L837,-225L832,-208L829,-206L816,-202L822,-187L818,-184L818,-179L814,-181L811,-184L802,-185L791,-185L789,-184L779,-188L776,-186L775,-181L764,-184L760,-183L758,-179L755,-177L746,-171L743,-165L741,-165L739,-169L731,-169L730,-176L727,-176L727,-185L719,-192L708,-191L701,-190L695,-198L689,-201L679,-208L678,-208L662,-203L662,-170L659,-170L654,-177L650,-179L642,-177L640,-175L639,-177L641,-180L640,-183L632,-186L629,-194L626,-197L625,-200L632,-199L632,-205L637,-207L643,-205L644,-214L643,-220L637,-220L631,-222L624,-218L618,-216L614,-217L615,-222L611,-229L606,-228L601,-235L604,-242L602,-244L608,-255L614,-250L615,-257L628,-268L638,-268L653,-261L660,-257L667,-261L677,-262L686,-256L687,-259L696,-259L698,-264L688,-271L694,-276L693,-279L699,-282L694,-289L697,-293L721,-297L724,-299L740,-303L746,-308L758,-306L760,-294L767,-297L775,-293L774,-287L780,-288L797,-298L794,-295L802,-286L817,-260L820,-265L829,-259L838,-262L842,-260L845,-254L850,-252L852,-248L861,-249Z" fill="#E0E0E0" stroke="#fff" stroke-width=".4"/><path d="M662,-170L662,-203L678,-208L679,-208L689,-201L695,-198L701,-190L708,-191L719,-192L727,-185L727,-176L730,-176L731,-169L739,-169L741,-165L743,-165L746,-171L755,-177L758,-179L760,-178L755,-172L760,-169L764,-171L772,-167L764,-161L759,-161L756,-161L755,-164L757,-167L748,-166L746,-160L743,-155L737,-156L736,-152L740,-150L742,-144L738,-136L733,-138L730,-138L730,-143L721,-146L715,-150L710,-154L703,-160L700,-169L698,-170L691,-170L688,-171L688,-178L679,-183L674,-178L668,-175L669,-171Z" fill="#E0E0E0" stroke="#fff" stroke-width=".4"/><path d="M1209,139L1210,160L1210,181L1204,176L1197,174L1196,176L1188,177L1190,171L1194,169L1193,162L1190,157L1177,151L1172,151L1162,145L1160,148L1158,149L1156,146L1156,143L1151,140L1158,138L1163,138L1162,136L1153,136L1150,133L1145,131L1142,128L1151,127L1154,125L1164,127L1165,130L1167,140L1174,144L1179,137L1187,133L1192,133L1198,135L1203,138ZM1106,180L1107,181L1107,183L1103,188L1097,189L1097,188L1097,186L1100,182ZM1166,167L1165,162L1166,159L1168,157L1169,159L1169,162ZM1061,95L1057,101L1062,107L1061,110L1068,116L1060,117L1058,121L1058,127L1052,132L1052,138L1049,148L1048,146L1041,149L1039,145L1034,144L1031,142L1023,145L1021,141L1017,142L1011,141L1010,132L1007,131L1004,125L1003,119L1004,114L1008,109L1009,114L1013,117L1017,116L1021,116L1025,113L1028,113L1034,114L1040,113L1043,104L1045,102L1048,94L1055,94ZM1135,140L1142,142L1144,147L1139,144L1133,144L1130,144L1125,144L1127,140ZM1119,147L1114,145L1113,143L1119,142L1121,144ZM1125,108L1126,112L1130,112L1130,115L1130,120L1127,120L1126,124L1128,127L1126,128L1124,124L1122,116L1123,110ZM1093,117L1100,116L1107,112L1108,113L1103,119L1098,121L1092,119L1081,120L1075,121L1074,125L1080,131L1084,128L1096,126L1095,129L1092,128L1090,132L1084,134L1090,143L1089,145L1095,152L1095,157L1091,158L1089,156L1092,151L1085,153L1084,152L1085,149L1080,145L1081,139L1076,141L1077,149L1077,158L1073,159L1070,157L1072,151L1071,145L1068,145L1066,140L1069,136L1070,131L1073,121L1074,119L1080,114L1085,116ZM1076,189L1068,184L1074,183L1077,185L1079,187L1079,188ZM1083,177L1087,177L1093,174L1092,178L1082,180L1074,179L1074,177L1079,175ZM1063,176L1067,176L1069,178L1061,180L1057,181L1053,181L1055,177L1059,177L1061,174ZM1000,164L1001,166L1013,167L1015,164L1027,167L1029,171L1039,172L1047,176L1039,179L1032,176L1026,176L1020,176L1014,175L1006,172L1001,172L999,172L987,170L986,167L980,166L984,160L992,161L997,163ZM974,129L975,134L977,137L982,138L985,142L983,150L983,160L976,160L970,155L962,149L959,145L954,140L951,135L946,126L941,121L939,115L936,110L931,106L927,101L922,97L916,90L915,87L919,87L929,88L935,95L940,99L943,102L950,109L956,109L962,113L965,119L970,121L968,127L971,129Z" fill="#E0E0E0" stroke="#fff" stroke-width=".4"/><path d="M-141,522L-138,527L-135,535L-127,542L-118,545L-120,550L-127,551L-130,547L-134,547L-141,547ZM-70,326L-71,332L-73,340L-73,348L-74,350L-75,355L-75,359L-67,365L-68,371L-64,374L-64,378L-71,389L-80,393L-93,395L-100,394L-99,399L-100,405L-99,409L-103,412L-109,414L-115,410L-118,413L-117,421L-113,424L-109,421L-107,426L-113,428L-118,434L-119,443L-121,448L-127,448L-132,452L-134,459L-128,466L-121,468L-124,477L-131,482L-135,494L-141,498L-144,502L-142,513L-138,519L-140,519L-146,517L-162,516L-164,510L-164,502L-169,503L-171,499L-171,488L-166,484L-164,478L-165,473L-162,465L-159,453L-160,447L-157,445L-158,442L-161,440L-159,436L-162,433L-163,423L-161,421L-162,411L-160,402L-159,395L-155,392L-157,384L-157,376L-152,371L-152,364L-148,357L-148,350L-150,348L-153,335L-149,327L-150,320L-147,313L-143,307L-138,302L-140,299L-139,297L-139,285L-132,282L-130,274L-131,273L-125,266L-117,268L-113,273L-111,267L-103,268L-102,269L-90,281L-85,282L-77,287L-71,290L-70,293L-76,304L-70,306L-62,307L-57,306L-51,300L-50,294L-47,292L-44,297L-44,302L-50,306L-54,309L-61,316Z" fill="#E0E0E0" stroke="#fff" stroke-width=".4"/><path d="M-141,522L-141,547L-134,547L-130,547L-132,551L-137,555L-141,555L-144,554L-149,550L-156,549L-164,542L-171,537L-179,524L-174,527L-165,534L-157,538L-153,533L-151,525L-145,521ZM-147,237L-144,242L-143,247L-139,250L-141,256L-138,264L-135,274L-131,273L-130,274L-132,282L-139,285L-139,297L-140,299L-138,302L-143,307L-147,313L-150,320L-149,327L-153,335L-150,348L-148,350L-148,357L-152,364L-152,371L-157,376L-157,384L-155,392L-159,395L-160,402L-162,411L-161,421L-163,423L-162,433L-159,436L-161,440L-158,442L-157,445L-160,447L-159,453L-162,465L-165,473L-164,478L-166,484L-171,488L-171,499L-169,503L-164,502L-164,510L-162,516L-146,517L-140,519L-146,519L-149,521L-155,525L-156,535L-159,535L-166,532L-173,524L-181,518L-183,512L-181,506L-185,499L-186,482L-183,473L-176,465L-186,463L-180,454L-177,439L-170,442L-167,424L-171,422L-173,433L-177,431L-175,419L-173,403L-170,397L-172,389L-173,380L-170,380L-166,367L-161,355L-159,343L-160,332L-158,326L-159,316L-155,308L-154,294L-152,279L-150,263L-150,252L-152,242L-148,241Z" fill="#E0E0E0" stroke="#fff" stroke-width=".4"/><path d="M569,133L565,128L565,104L571,97L573,95L577,95L583,90L591,90L609,70L614,65L617,61L617,58L617,51L617,48L617,48L619,48L622,47L625,46L628,44L631,44L631,46L630,50L630,53L629,56L627,63L624,70L620,78L614,88L609,95L601,104L595,109L585,115L579,120L572,128L571,131Z" fill="#E0E0E0" stroke="#fff" stroke-width=".4"/><path d="M554,152L545,146L544,142L521,129L520,128L520,121L522,119L525,115L527,110L524,102L523,99L520,95L524,91L529,87L532,88L532,91L534,93L539,93L547,99L549,99L550,99L552,100L556,100L558,97L564,95L567,97L571,97L565,104L565,128L569,133L565,136L563,138L561,139L560,143L558,146L556,150Z" fill="#E0E0E0" stroke="#fff" stroke-width=".4"/><path d="M460,69L455,66L452,64L452,62L453,59L453,57L449,53L449,50L449,48L446,46L446,43L445,40L443,40L443,38L445,35L444,32L446,30L445,29L447,25L450,20L455,20L455,-6L455,-9L462,-9L462,-23L488,-23L513,-23L539,-23L541,-16L540,-15L540,-8L543,0L545,2L549,4L546,8L541,9L539,11L538,16L535,26L536,28L535,34L532,40L528,44L526,49L525,51L522,53L520,60L520,66L520,61L519,61L519,58L519,55L515,53L514,48L515,43L512,43L512,44L508,44L510,46L510,50L507,54L503,59L500,59L495,56L492,57L491,59L488,60L488,61L482,61L481,60L476,60L474,61L472,60L469,57L467,55L463,56L461,59L459,64L457,66L455,66Z" fill="#E0E0E0" stroke="#fff" stroke-width=".4"/><path d="M455,-6L455,20L450,20L447,25L445,29L446,30L444,32L445,35L443,38L443,40L445,40L446,43L446,46L449,48L449,50L445,51L441,54L437,61L431,64L424,63L423,64L423,66L420,69L417,71L409,74L407,72L406,72L405,74L400,74L401,72L399,68L398,65L395,64L391,60L393,57L396,58L397,57L401,58L398,52L398,47L397,43L395,39L395,36L391,35L391,31L389,29L391,20L400,14L400,5L402,-9L404,-12L401,-14L401,-17L399,-18L397,-29L404,-33L429,-20Z" fill="#E0E0E0" stroke="#fff" stroke-width=".4"/><path d="M-160,-7L-160,-4L-160,-1L-162,0L-160,2L-160,4L-165,3L-168,3L-172,3L-175,4L-178,2L-178,-0L-172,1L-167,1L-164,-0L-167,-3L-167,-6L-171,-7L-170,-9L-166,-8Z" fill="#E0E0E0" stroke="#fff" stroke-width=".4"/><path d="M-160,4L-160,2L-162,0L-160,-1L-160,-4L-160,-7L-160,-9L-155,-9L-151,-7L-149,-7L-148,-5L-144,-5L-145,-3L-142,-2L-139,0L-141,3L-144,1L-147,2L-149,1L-150,3L-153,3L-154,1L-156,2L-158,7L-160,6Z" fill="#E0E0E0" stroke="#fff" stroke-width=".4"/><path d="M905,-817L919,-826L932,-806L947,-769L945,-737L931,-733L913,-743L902,-756L897,-782L889,-790ZM964,-751L980,-732L978,-719L942,-707L954,-749L959,-753ZM1196,-655L1213,-654L1236,-640L1231,-622L1207,-622L1196,-616L1184,-633L1187,-650ZM1256,-635L1272,-628L1265,-618L1254,-621L1242,-630L1244,-639ZM1202,-587L1208,-596L1216,-599L1225,-590L1226,-584L1216,-584L1203,-586ZM590,-799L603,-807L613,-807L614,-796L618,-806L624,-813L633,-804L631,-798L622,-793L616,-790L615,-783L608,-777L601,-786L605,-798ZM448,-296L436,-296L428,-297L429,-302L438,-306L445,-304L448,-302L447,-299ZM646,-596L661,-617L660,-628L674,-641L695,-659L717,-664L728,-674L740,-678L745,-667L740,-658L718,-645L698,-633L678,-609L668,-587L658,-566L660,-548L672,-532L668,-530L647,-533L645,-542L634,-547L633,-558L639,-563L639,-574L652,-593ZM1222,-289L1224,-279L1224,-269L1227,-258L1233,-241L1223,-244L1220,-230L1226,-220L1226,-214L1221,-219L1217,-212L1215,-220L1216,-229L1215,-239L1217,-247L1217,-260L1213,-271L1214,-285L1220,-290L1217,-295L1220,-297ZM-858,-499L-858,-499L-842,-486L-825,-469L-826,-459L-821,-455L-823,-466L-805,-464L-793,-449L-799,-442L-810,-440L-810,-426L-812,-423L-819,-423L-823,-428L-832,-433L-833,-439L-840,-442L-847,-440L-851,-445L-849,-451L-857,-447L-854,-440L-858,-433L-858,-433L-858,-499ZM1461,-433L1461,-433L1452,-427L1444,-428L1450,-420L1454,-408L1457,-404L1457,-398L1456,-395L1444,-398L1426,-387L1420,-386L1410,-376L1401,-368L1398,-362L1389,-371L1372,-361L1369,-366L1363,-360L1355,-362L1353,-354L1345,-342L1345,-337L1352,-334L1352,-317L1346,-317L1343,-307L1345,-302L1334,-296L1332,-284L1322,-281L1320,-271L1311,-261L1309,-268L1306,-284L1302,-308L1306,-324L1311,-331L1311,-337L1321,-339L1333,-355L1344,-368L1355,-379L1361,-398L1353,-397L1349,-386L1333,-371L1327,-387L1311,-383L1295,-361L1300,-353L1286,-350L1276,-348L1276,-357L1266,-359L1258,-353L1238,-355L1217,-352L1196,-328L1172,-301L1182,-299L1185,-292L1191,-290L1195,-295L1202,-295L1212,-283L1212,-274L1207,-263L1206,-251L1203,-235L1194,-222L1192,-215L1183,-204L1174,-194L1170,-189L1161,-184L1157,-183L1153,-188L1145,-181L1144,-178L1144,-178L1143,-180L1143,-184L1146,-185L1147,-195L1145,-203L1151,-206L1159,-204L1163,-213L1165,-224L1168,-227L1171,-236L1160,-233L1155,-229L1145,-229L1142,-238L1135,-245L1124,-248L1121,-258L1119,-265L1117,-269L1113,-280L1107,-284L1097,-287L1089,-286L1081,-285L1075,-279L1079,-277L1079,-271L1075,-268L1070,-257L1070,-252L1061,-246L1053,-250L1045,-249L1042,-252L1038,-253L1028,-246L1020,-245L1014,-242L1006,-244L1000,-244L996,-249L990,-254L983,-255L975,-254L969,-252L960,-256L959,-264L951,-266L945,-267L938,-272L931,-261L934,-255L928,-248L918,-251L912,-251L908,-256L901,-256L895,-259L886,-254L873,-246L867,-244L864,-243L861,-249L852,-248L850,-252L845,-254L842,-260L838,-262L829,-259L820,-265L817,-260L802,-286L794,-295L797,-298L780,-288L774,-287L775,-293L767,-297L760,-294L758,-306L746,-308L740,-303L724,-299L721,-297L697,-293L694,-289L699,-282L693,-279L694,-276L688,-271L698,-264L696,-259L687,-259L686,-256L677,-262L667,-261L660,-257L653,-261L638,-268L628,-268L615,-257L614,-250L608,-255L602,-244L604,-242L601,-235L606,-228L611,-229L615,-222L614,-217L618,-216L615,-210L608,-209L602,-200L608,-191L607,-185L614,-175L610,-171L609,-169L607,-170L602,-175L600,-175L596,-177L594,-181L588,-183L584,-181L583,-183L574,-187L565,-189L560,-190L559,-189L551,-197L543,-200L538,-205L542,-207L548,-215L544,-218L554,-222L553,-224L548,-223L548,-227L551,-229L557,-230L558,-233L557,-239L560,-244L559,-247L550,-250L546,-250L542,-255L537,-253L529,-257L529,-259L527,-263L522,-264L521,-267L523,-269L519,-275L512,-274L510,-274L509,-272L506,-272L505,-279L503,-283L504,-284L509,-283L512,-286L510,-288L506,-290L506,-292L504,-294L499,-302L501,-305L500,-310L494,-313L491,-311L490,-314L483,-317L481,-324L480,-330L477,-332L480,-336L478,-348L483,-355L482,-357L489,-364L482,-370L496,-387L502,-395L504,-402L495,-412L497,-422L492,-433L496,-446L489,-465L494,-477L485,-489L486,-501L491,-503L502,-510L508,-516L519,-505L537,-501L561,-481L566,-473L566,-462L559,-453L549,-449L520,-461L515,-459L526,-448L526,-440L526,-425L535,-420L540,-417L541,-424L537,-430L541,-436L556,-426L562,-430L557,-441L572,-457L578,-456L584,-450L588,-461L583,-471L586,-481L581,-492L599,-487L603,-477L595,-475L595,-466L600,-460L610,-464L611,-474L625,-482L647,-497L652,-496L646,-486L654,-484L658,-490L671,-490L680,-498L687,-487L695,-499L688,-509L691,-515L710,-510L719,-504L743,-484L747,-493L740,-502L740,-506L732,-508L735,-517L731,-532L731,-538L743,-556L747,-576L752,-580L769,-574L770,-562L764,-546L768,-539L770,-526L769,-500L776,-489L773,-478L760,-454L768,-452L770,-458L777,-462L779,-470L785,-478L781,-488L784,-500L777,-501L775,-511L781,-530L772,-546L784,-560L782,-576L785,-576L789,-564L786,-544L793,-541L790,-555L801,-563L814,-565L826,-553L821,-570L820,-594L831,-598L847,-597L861,-600L855,-613L863,-629L870,-630L883,-642L900,-646L902,-653L919,-656L924,-650L938,-664L950,-663L952,-675L958,-688L973,-700L984,-690L976,-683L990,-679L992,-665L998,-672L1017,-671L1031,-658L1036,-648L1035,-634L1028,-627L1011,-613L1006,-606L1014,-603L1023,-597L1029,-601L1033,-587L1035,-593L1046,-596L1066,-592L1068,-582L1095,-579L1095,-596L1109,-592L1119,-592L1130,-580L1133,-566L1129,-557L1137,-541L1147,-533L1153,-554L1163,-545L1174,-551L1187,-544L1192,-550L1202,-547L1198,-567L1206,-576L1236,-570L1264,-562L1270,-550L1287,-534L1313,-538L1325,-535L1331,-527L1330,-513L1338,-508L1347,-512L1358,-512L1370,-508L1382,-510L1394,-494L1402,-500L1396,-512L1399,-520L1420,-515L1433,-516L1452,-507L1461,-499L1461,-433ZM1461,-534L1454,-533L1452,-539L1461,-548L1461,-534ZM-858,-548L-858,-548L-858,-548L-857,-549L-852,-549L-842,-543L-843,-540L-849,-535L-858,-534L-858,-534L-858,-548ZM517,-212L518,-214L523,-212L525,-212L526,-210L527,-210L527,-209L530,-207L537,-207L535,-204L528,-203L520,-197L516,-199L517,-203L510,-206L512,-208L518,-211Z" fill="#E0E0E0" stroke="#fff" stroke-width=".4"/><path d="M-207,-57L-204,-58L-200,-57L-200,-56L-207,-54ZM-200,-59L-194,-56L-196,-50L-197,-51L-197,-55L-200,-58ZM-202,-46L-200,-45L-198,-40L-198,-35L-200,-35L-201,-39L-204,-41Z" fill="#E0E0E0" stroke="#fff" stroke-width=".4"/><path d="M745,482L750,485L756,486L756,488L754,492L744,493L744,488L745,484Z" fill="#E0E0E0" stroke="#fff" stroke-width=".4"/><path d="M407,314L410,311L412,313L413,316L416,316L420,318L424,317L430,313L430,287L431,288L435,295L434,299L436,302L441,301L444,298L447,296L448,292L452,290L454,291L457,293L463,294L467,292L467,290L468,286L472,286L474,283L476,278L482,273L491,268L494,268L497,269L499,269L502,269L505,279L507,284L506,292L506,295L503,293L501,294L501,296L499,299L499,301L503,305L507,304L508,301L513,301L511,306L510,312L509,316L504,319L503,320L500,324L499,328L495,333L488,341L483,346L478,349L472,352L468,353L467,355L464,354L460,355L453,354L449,355L447,354L440,357L435,358L431,361L428,362L425,359L423,359L420,355L420,356L419,354L419,350L417,345L419,343L419,337L415,330L411,324L411,324ZM488,317L485,315L482,316L479,319L475,324L480,330L482,329L484,327L487,325L488,323L490,319Z" fill="#E0E0E0" stroke="#fff" stroke-width=".4"/><path d="M488,317L490,319L488,323L487,325L484,327L482,329L480,330L475,324L479,319L482,316L485,315Z" fill="#E0E0E0" stroke="#fff" stroke-width=".4"/><path d="M-70,326L-66,326L-59,331L-57,331L-50,336L-45,340L-41,345L-44,349L-42,353L-45,358L-52,363L-57,361L-61,362L-67,359L-71,359L-75,355L-74,350L-73,348L-73,340L-71,332Z" fill="#E0E0E0" stroke="#fff" stroke-width=".4"/><path d="M-42,353L-44,349L-41,345L-45,340L-50,336L-57,331L-59,331L-66,326L-70,326L-61,316L-54,309L-50,306L-44,302L-44,297L-47,292L-50,294L-49,290L-48,285L-48,282L-51,280L-53,281L-55,281L-56,278L-57,272L-58,270L-62,268L-65,269L-72,268L-71,259L-73,255L-71,253L-72,250L-70,247L-69,241L-70,237L-74,235L-75,232L-74,229L-86,228L-89,221L-87,220L-87,218L-88,216L-88,212L-92,210L-96,210L-99,208L-103,207L-106,204L-113,203L-120,197L-119,193L-120,190L-119,185L-128,186L-131,189L-137,192L-138,194L-142,194L-146,193L-150,194L-153,193L-153,184L-158,187L-163,187L-166,184L-170,183L-169,181L-172,177L-175,171L-173,170L-173,167L-170,165L-170,161L-169,159L-168,156L-161,152L-155,151L-155,150L-149,150L-146,132L-146,129L-147,126L-150,123L-150,119L-146,118L-145,118L-144,116L-148,115L-148,111L-136,111L-134,109L-132,111L-131,115L-129,114L-126,117L-121,117L-119,115L-115,114L-112,113L-111,110L-107,108L-107,107L-113,106L-113,102L-113,98L-116,96L-115,95L-110,96L-105,98L-103,96L-98,95L-91,93L-89,90L-90,89L-86,88L-85,90L-86,93L-84,94L-82,97L-84,99L-85,104L-83,108L-83,111L-79,114L-76,114L-75,113L-73,112L-70,111L-68,110L-64,110L-63,110L-59,110L-59,109L-60,108L-59,106L-56,107L-53,106L-50,107L-47,109L-45,107L-44,107L-43,109L-40,108L-37,106L-35,101L-31,95L-29,95L-27,99L-24,110L-20,111L-20,115L-25,121L-23,123L-12,124L-11,130L-7,126L1,128L12,132L15,136L14,139L22,138L34,141L44,141L53,146L62,153L67,155L72,155L74,157L77,166L78,170L75,180L72,185L63,194L59,201L54,207L52,207L51,212L51,224L49,235L49,239L46,242L45,251L39,260L38,267L32,270L31,274L24,274L14,277L9,280L2,282L-5,288L-11,295L-12,300L-11,304L-12,311L-13,315L-18,319L-25,332L-31,338L-35,342L-38,349Z" fill="#E0E0E0" stroke="#fff" stroke-width=".4"/><path d="M-146,193L-142,194L-138,194L-137,192L-131,189L-128,186L-119,185L-120,190L-119,193L-120,197L-113,203L-106,204L-103,207L-99,208L-96,210L-92,210L-88,212L-88,216L-87,218L-87,220L-89,221L-86,228L-74,229L-75,232L-74,235L-70,237L-69,241L-70,247L-72,250L-71,253L-73,255L-73,253L-79,249L-85,249L-97,251L-100,257L-100,261L-102,269L-103,268L-111,267L-113,273L-117,268L-125,266L-131,273L-135,274L-138,264L-141,256L-139,250L-143,247L-144,242L-147,237L-143,230L-145,224L-144,222L-145,220L-143,216L-143,211L-142,206L-141,204Z" fill="#E0E0E0" stroke="#fff" stroke-width=".4"/><path d="M-149,150L-155,150L-155,151L-161,152L-168,156L-169,159L-170,161L-170,165L-173,167L-173,170L-175,171L-172,177L-169,181L-170,183L-166,184L-163,187L-158,187L-153,184L-153,193L-150,194L-146,193L-141,204L-142,206L-143,211L-143,216L-145,220L-144,222L-145,224L-143,230L-147,237L-148,241L-152,242L-158,238L-159,236L-172,229L-183,222L-188,218L-191,212L-190,210L-195,201L-202,189L-208,176L-210,173L-212,169L-217,164L-222,162L-220,159L-223,153L-221,148L-216,144L-215,147L-217,148L-217,151L-214,150L-211,151L-209,154L-205,151L-204,147L-200,142L-192,139L-185,132L-183,128L-184,123L-182,123L-178,126L-176,129L-173,130L-169,137L-164,138L-161,136L-159,137L-155,137L-150,140L-154,146L-152,146Z" fill="#E0E0E0" stroke="#fff" stroke-width=".4"/><path d="M-129,114L-131,115L-132,111L-134,109L-136,111L-148,111L-148,115L-144,116L-145,118L-146,118L-150,119L-150,123L-147,126L-146,129L-146,132L-149,150L-152,146L-154,146L-150,140L-155,137L-159,137L-161,136L-164,138L-169,137L-173,130L-176,129L-178,126L-182,123L-184,123L-187,122L-190,119L-192,121L-197,120L-199,117L-200,117L-206,113L-207,111L-205,111L-205,108L-204,105L-201,105L-198,101L-195,97L-198,96L-196,92L-198,86L-197,84L-198,79L-200,76L-199,72L-197,73L-196,71L-198,67L-197,66L-193,66L-189,62L-186,61L-186,59L-185,53L-181,50L-177,50L-176,49L-171,49L-166,46L-164,45L-161,41L-158,42L-157,44L-158,46L-162,47L-164,50L-166,52L-168,54L-169,59L-171,63L-167,63L-167,66L-165,68L-165,70L-165,73L-165,74L-164,75L-162,77L-154,76L-150,77L-145,83L-143,82L-138,82L-135,82L-132,83L-133,86L-135,88L-135,93L-134,97L-132,99L-132,101L-135,104L-133,105L-131,108Z" fill="#E0E0E0" stroke="#fff" stroke-width=".4"/><path d="M-197,66L-198,67L-196,71L-197,73L-199,72L-200,76L-202,74L-204,70L-202,68L-204,68L-205,66L-208,64L-211,64L-212,67L-215,68L-216,69L-217,70L-214,73L-216,74L-217,75L-220,76L-221,72L-221,73L-224,72L-225,70L-228,69L-229,69L-232,69L-232,70L-233,69L-233,68L-232,66L-232,65L-231,64L-233,63L-233,61L-230,60L-228,63L-228,64L-225,64L-225,64L-223,65L-220,65L-217,63L-213,62L-211,60L-208,60L-208,61L-204,61L-201,62L-199,64Z" fill="#E0E0E0" stroke="#fff" stroke-width=".4"/><path d="M-90,89L-89,90L-91,93L-98,95L-103,96L-105,98L-110,96L-115,95L-116,96L-113,98L-113,102L-113,106L-107,107L-107,108L-111,110L-112,113L-115,114L-119,115L-121,117L-126,117L-129,114L-131,108L-133,105L-135,104L-132,101L-132,99L-134,97L-135,93L-135,88L-133,86L-132,83L-135,82L-138,82L-143,82L-145,83L-150,77L-154,76L-162,77L-164,75L-165,74L-165,73L-165,70L-165,68L-167,66L-167,63L-171,63L-169,59L-168,54L-166,52L-164,50L-162,47L-158,46L-158,47L-162,48L-160,51L-160,54L-163,58L-160,63L-158,63L-156,58L-158,56L-158,51L-150,48L-151,45L-149,43L-147,48L-142,48L-138,52L-138,54L-132,54L-125,53L-121,56L-117,57L-113,55L-113,53L-105,53L-97,53L-103,55L-100,58L-95,58L-90,61L-89,67L-86,67L-83,68L-89,72L-89,74L-87,77L-89,78L-92,79L-92,82L-94,84Z" fill="#E0E0E0" stroke="#fff" stroke-width=".4"/><path d="M-63,110L-64,110L-68,110L-70,111L-73,112L-75,113L-76,114L-79,114L-83,111L-83,108L-85,104L-84,99L-82,97L-84,94L-86,93L-85,90L-86,88L-90,89L-94,84L-92,82L-92,79L-89,78L-87,77L-89,74L-89,72L-83,68L-79,70L-75,75L-75,78L-73,78L-69,81L-67,84L-68,89L-72,91L-71,93L-72,96L-70,101L-68,101L-67,104Z" fill="#E0E0E0" stroke="#fff" stroke-width=".4"/><path d="M-50,107L-53,106L-56,107L-59,106L-60,108L-59,109L-59,110L-63,110L-67,104L-68,101L-70,101L-72,96L-71,93L-72,91L-68,89L-67,84L-59,85L-58,84L-53,83L-46,85L-49,91L-49,95L-46,99L-48,102L-48,105Z" fill="#E0E0E0" stroke="#fff" stroke-width=".4"/><path d="M-31,95L-35,101L-37,106L-40,108L-43,109L-44,107L-45,107L-47,109L-50,107L-48,105L-48,102L-46,99L-49,95L-49,91L-46,85L-44,86L-39,87L-32,93ZM341,-245L344,-243L354,-241L350,-234L349,-228L348,-226L345,-227L345,-224L340,-219L340,-215L343,-216L345,-212L345,-210L347,-206L345,-203L347,-196L350,-195L349,-191L343,-186L331,-189L321,-186L321,-181L313,-179L306,-183L304,-181L292,-185L289,-189L292,-194L294,-212L287,-222L282,-227L272,-231L272,-238L280,-240L291,-237L289,-249L295,-244L310,-252L312,-260L318,-262L319,-259L322,-259L325,-255L329,-250L332,-251L338,-246L339,-245ZM358,-182L362,-185L363,-178L361,-171L358,-173L356,-179Z" fill="#E0E0E0" stroke="#fff" stroke-width=".4"/><path d="M-184,123L-183,128L-185,132L-192,139L-200,142L-204,147L-205,151L-209,154L-211,151L-214,150L-217,151L-217,148L-215,147L-216,144L-212,139L-214,136L-216,139L-220,137L-219,135L-220,129L-218,128L-216,124L-214,120L-214,117L-211,116L-206,113L-200,117L-199,117L-197,120L-192,121L-190,119L-187,122Z" fill="#E0E0E0" stroke="#fff" stroke-width=".4"/><path d="M-125,1L-122,1L-121,3L-123,4L-128,4L-131,5L-132,2L-131,1Z" fill="#E0E0E0" stroke="#fff" stroke-width=".4"/><path d="M-198,1L-194,2L-190,3L-189,5L-194,5L-196,6L-199,5L-203,3L-202,1L-200,1Z" fill="#E0E0E0" stroke="#fff" stroke-width=".4"/><path d="M-228,-31L-223,-31L-218,-31L-212,-28L-209,-26L-203,-27L-201,-25L-195,-21L-191,-18L-189,-18L-185,-16L-186,-14L-181,-14L-176,-11L-177,-10L-181,-9L-186,-8L-190,-9L-199,-8L-195,-12L-198,-14L-202,-14L-204,-16L-206,-20L-209,-20L-215,-22L-217,-23L-226,-24L-228,-26L-225,-28L-232,-28L-236,-24L-239,-24L-240,-23L-243,-22L-246,-22L-242,-25L-241,-27L-238,-29L-235,-30L-230,-31Z" fill="#E0E0E0" stroke="#fff" stroke-width=".4"/><path d="M502,269L499,269L497,269L494,268L491,268L487,265L482,264L480,260L480,257L477,256L470,249L468,245L467,244L464,238L471,239L473,240L476,240L479,235L485,230L487,229L488,227L492,224L496,223L497,226L502,226L505,227L507,229L510,229L513,231L513,240L512,245L511,250L512,252L512,256L511,256L509,261Z" fill="#E0E0E0" stroke="#fff" stroke-width=".4"/><path d="M491,268L482,273L476,278L474,283L472,286L468,286L467,290L467,292L463,294L457,293L454,291L452,290L448,292L447,296L444,298L441,301L436,302L434,299L435,295L431,288L430,287L430,266L436,266L436,242L441,242L451,239L453,242L457,239L459,239L463,238L464,238L467,244L468,245L470,249L477,256L480,257L480,260L482,264L487,265Z" fill="#E0E0E0" stroke="#fff" stroke-width=".4"/><path d="M430,287L430,313L424,317L420,318L416,316L413,316L412,313L410,311L407,314L402,309L399,304L398,297L396,291L394,280L394,272L393,268L391,265L387,260L384,251L383,247L377,241L377,235L380,234L384,233L388,233L392,236L393,236L419,235L423,239L439,240L451,237L456,235L460,236L463,237L463,238L459,239L457,239L453,242L451,239L441,242L436,242L436,266L430,266Z" fill="#E0E0E0" stroke="#fff" stroke-width=".4"/><path d="M194,34L191,29L188,26L191,25L194,20L195,17L198,15L201,15L204,14L208,14L211,16L215,17L219,22L223,27L223,31L225,35L227,37L228,39L227,41L226,42L223,41L222,42L221,42L216,40L213,40L201,40L200,41L197,41L194,42L193,37L199,37L200,36L202,36L204,34L207,36L209,36L212,34L211,32L209,34L207,34L204,32L202,32L201,34Z" fill="#E0E0E0" stroke="#fff" stroke-width=".4"/><path d="M227,41L228,39L227,37L225,35L223,31L223,27L225,26L226,22L228,22L233,24L236,22L239,23L240,21L266,21L267,16L266,16L263,-14L260,-44L270,-44L291,-29L313,-14L315,-10L319,-8L322,-7L322,-3L329,-4L329,12L325,17L325,21L319,22L310,22L308,25L304,25L300,25L298,24L295,25L289,27L287,29L282,32L281,34L279,35L276,35L274,36L273,41L268,46L268,48L266,51L267,55L264,56L262,57L261,54L260,55L258,55L257,57L252,56L251,55L250,56L248,54L248,52L247,51L246,52L246,50L247,48L245,46L244,44L243,42L241,42L240,43L238,44L236,45L233,45L231,43L230,43L229,44L228,44Z" fill="#E0E0E0" stroke="#fff" stroke-width=".4"/><path d="M192,-16L193,-19L218,-18L217,-29L218,-32L225,-33L224,-51L245,-51L245,-61L270,-44L260,-44L263,-14L266,16L267,16L266,21L240,21L239,23L236,22L233,24L228,22L226,22L225,26L223,27L219,22L215,17L211,16L208,14L204,14L201,15L198,15L195,17L195,13L197,10L197,4L197,-3L196,-7L197,-10L195,-13Z" fill="#E0E0E0" stroke="#fff" stroke-width=".4"/><path d="M319,82L313,83L312,78L312,63L311,62L311,59L308,56L306,54L307,51L309,50L311,47L314,47L315,45L317,43L320,43L325,47L324,49L326,53L325,55L325,57L322,61L320,63L319,67L319,71Z" fill="#E0E0E0" stroke="#fff" stroke-width=".4"/><path d="M397,-29L399,-18L401,-17L401,-14L404,-12L402,-9L400,5L400,14L391,20L389,29L391,31L391,35L395,36L395,39L393,39L393,41L392,41L387,34L386,34L381,37L376,36L372,35L370,36L367,36L363,39L359,39L352,35L349,37L345,37L343,34L336,32L330,33L328,34L327,38L325,41L325,47L320,43L317,43L315,45L315,40L308,39L308,35L304,31L303,28L304,25L308,25L310,22L319,22L325,21L325,17L329,12L329,-4L338,-7L357,-20L379,-33L389,-30L392,-27Z" fill="#E0E0E0" stroke="#fff" stroke-width=".4"/><path d="M319,82L319,71L319,67L320,63L322,61L325,57L325,55L326,53L324,49L325,47L325,41L327,38L328,34L330,33L336,32L343,34L345,37L349,37L352,35L359,39L363,39L367,36L370,36L372,35L376,36L381,37L386,34L387,34L392,41L393,41L395,44L395,45L394,47L389,52L387,56L386,60L385,61L384,66L380,68L379,72L378,74L377,77L373,79L369,77L367,77L363,80L361,81L358,87L356,91L349,94L347,93L345,95L339,95L336,91L334,86L329,82L324,82Z" fill="#E0E0E0" stroke="#fff" stroke-width=".4"/><path d="M395,39L397,43L398,47L398,52L401,58L397,57L396,58L393,57L391,60L395,64L398,65L399,68L401,72L400,74L397,81L395,82L395,87L395,90L395,92L398,95L398,97L401,101L404,103L404,106L405,108L404,111L399,110L394,108L386,108L385,107L381,108L377,107L374,108L364,107L364,102L362,98L359,97L358,94L356,93L356,91L358,87L361,81L363,80L367,77L369,77L373,79L377,77L378,74L379,72L380,68L384,66L385,61L386,60L387,56L389,52L394,47L395,45L395,44L393,41L393,39Z" fill="#E0E0E0" stroke="#fff" stroke-width=".4"/><path d="M307,51L306,54L308,56L311,59L311,62L312,63L312,78L313,83L308,84L307,82L305,78L305,74L306,68L304,66L304,61L304,56L301,53L302,51Z" fill="#E0E0E0" stroke="#fff" stroke-width=".4"/><path d="M302,51L301,53L304,56L304,61L304,66L306,68L305,74L305,78L307,82L308,84L298,88L295,90L289,92L283,90L283,87L280,82L282,74L285,69L283,60L282,55L282,51L294,51L296,51L299,50Z" fill="#E0E0E0" stroke="#fff" stroke-width=".4"/><path d="M250,56L251,55L252,56L257,57L258,55L260,55L261,54L262,57L264,56L267,55L269,56L271,59L274,60L276,58L279,58L283,60L285,69L282,74L280,82L283,87L283,90L280,90L276,89L271,89L264,90L259,92L253,94L252,94L252,89L253,88L253,85L250,83L248,82L246,80L247,78L247,74L247,72L248,72L248,70L248,68L249,68L251,67L249,61L248,59L248,57Z" fill="#E0E0E0" stroke="#fff" stroke-width=".4"/><path d="M213,40L216,40L221,42L222,42L223,41L226,42L227,41L228,44L229,44L230,43L231,43L233,45L236,45L238,44L240,43L241,42L243,42L244,44L245,46L247,48L246,50L246,52L247,51L248,52L248,54L250,56L248,57L248,59L249,61L251,67L249,68L248,68L248,70L248,72L247,72L245,72L244,75L242,75L241,74L241,71L239,67L237,68L236,68L234,68L234,66L233,64L233,62L232,59L230,57L225,57L223,58L221,58L220,60L220,62L216,65L213,61L211,58L209,57L208,56L207,53L206,52L204,51L207,47L209,48L210,46L212,46L213,46L212,43L213,43Z" fill="#E0E0E0" stroke="#fff" stroke-width=".4"/><path d="M194,42L197,41L200,41L201,40L213,40L213,43L212,43L213,46L212,46L210,46L209,48L207,47L204,51L201,48L198,47L196,46L196,45L194,43Z" fill="#E0E0E0" stroke="#fff" stroke-width=".4"/><path d="M247,72L247,74L247,78L246,80L248,82L250,83L253,85L253,88L252,89L252,94L250,94L243,91L238,86L232,83L228,78L229,76L230,74L233,71L236,68L237,68L239,67L241,71L241,74L242,75L244,75L245,72Z" fill="#E0E0E0" stroke="#fff" stroke-width=".4"/><path d="M216,65L220,62L220,60L221,58L223,58L225,57L230,57L232,59L233,62L233,64L234,66L234,68L236,68L233,71L230,74L229,76L228,78L226,78L221,75L218,72L217,69Z" fill="#E0E0E0" stroke="#fff" stroke-width=".4"/><path d="M267,55L266,51L268,48L268,46L273,41L274,36L276,35L279,35L281,34L282,32L287,29L289,27L295,25L298,24L300,25L304,25L303,28L304,31L308,35L308,39L315,40L315,45L314,47L311,47L309,50L307,51L302,51L299,50L296,51L294,51L282,51L282,55L283,60L279,58L276,58L274,60L271,59L269,56Z" fill="#E0E0E0" stroke="#fff" stroke-width=".4"/><path d="M478,88L476,89L471,89L467,88L464,89L463,90L461,91L459,89L451,92L448,92L448,92L446,96L441,95L436,94L432,92L427,90L423,92L421,95L420,100L416,99L412,98L408,102L405,108L404,106L404,103L401,101L398,97L398,95L395,92L395,90L395,87L395,82L397,81L400,74L405,74L406,72L407,72L409,74L417,71L420,69L423,66L423,64L424,63L431,64L437,61L441,54L445,51L449,50L449,53L453,57L453,59L452,62L452,64L455,66L460,69L463,72L463,74L468,77L470,80L472,84L477,86Z" fill="#E0E0E0" stroke="#fff" stroke-width=".4"/><path d="M420,100L420,103L418,107L417,111L416,117L416,120L415,123L415,125L414,127L410,130L407,133L404,140L404,145L403,147L399,150L395,154L393,153L393,151L389,151L387,154L385,153L383,151L381,152L378,155L373,148L378,144L375,140L378,138L382,138L382,135L386,138L392,138L393,135L394,131L394,126L391,122L393,114L392,113L387,114L385,110L386,108L394,108L399,110L404,111L405,108L408,102L412,98L416,99Z" fill="#E0E0E0" stroke="#fff" stroke-width=".4"/><path d="M374,108L377,107L381,108L385,107L386,108L385,110L387,114L392,113L393,114L391,122L394,126L394,131L393,135L392,138L386,138L382,135L382,138L378,138L375,140L378,144L373,148L366,141L362,136L358,129L358,127L360,125L361,120L363,116L365,115L374,115Z" fill="#E0E0E0" stroke="#fff" stroke-width=".4"/><path d="M364,107L374,108L374,115L365,115L363,116L361,115Z" fill="#E0E0E0" stroke="#fff" stroke-width=".4"/><path d="M499,176L502,178L505,179L509,180L512,182L515,185L517,190L516,192L515,197L516,203L514,205L512,211L515,213L496,219L496,223L492,224L488,227L487,229L485,230L479,235L476,240L473,240L471,239L464,238L463,238L463,237L460,236L456,235L451,237L447,233L442,227L443,206L456,206L456,204L456,201L455,198L456,195L455,193L458,193L458,195L461,195L465,196L467,199L472,200L476,197L478,201L483,202L485,205L488,208L493,208L492,201L490,202L486,200L484,199L485,192L486,184L485,181L486,177L488,176L497,175Z" fill="#E0E0E0" stroke="#fff" stroke-width=".4"/><path d="M512,182L519,183L520,185L522,188L524,197L522,202L524,210L526,210L529,212L531,217L532,226L529,227L527,232L523,228L522,223L524,220L523,217L521,216L519,216L515,213L512,211L514,205L516,203L515,197L516,192L517,190L515,185Z" fill="#E0E0E0" stroke="#fff" stroke-width=".4"/><path d="M524,197L529,196L537,198L538,197L543,197L545,195L549,195L556,193L561,189L562,192L562,198L563,204L563,215L564,218L562,223L560,227L555,231L550,234L542,237L535,245L533,246L528,251L525,252L525,257L528,262L529,266L529,268L530,268L530,275L529,278L531,279L530,282L527,285L522,287L514,291L511,294L512,297L513,297L513,301L508,301L507,298L506,295L506,292L507,284L505,279L502,269L509,261L511,256L512,256L512,252L511,250L512,245L513,240L513,231L510,229L507,229L505,227L502,226L497,226L496,223L496,219L515,213L519,216L521,216L523,217L524,220L522,223L523,228L527,232L529,227L532,226L531,217L529,212L526,210L524,210L522,202Z" fill="#E0E0E0" stroke="#fff" stroke-width=".4"/><path d="M508,301L507,304L503,305L499,301L499,299L501,296L501,294L503,293L506,295L507,298Z" fill="#E0E0E0" stroke="#fff" stroke-width=".4"/><path d="M385,153L383,154L382,156L381,159L380,160L378,155L381,152L383,151ZM381,162L383,161L385,161L388,160L407,160L408,165L410,169L411,171L414,174L418,174L420,173L424,174L425,172L426,168L430,168L431,167L434,167L434,169L441,169L441,173L443,176L442,180L442,184L444,186L444,194L446,193L448,194L452,193L455,193L456,195L455,198L456,201L456,204L456,206L443,206L442,227L447,233L451,237L439,240L423,239L419,235L393,236L392,236L388,233L384,233L380,234L377,235L376,231L377,225L379,219L380,216L382,210L383,208L387,203L389,200L390,195L390,192L388,189L386,185L384,181L385,180L387,178L385,171L383,167L380,163Z" fill="#E0E0E0" stroke="#fff" stroke-width=".4"/><path d="M498,138L498,140L499,142L499,144L498,145L495,149L493,151L490,151L490,143L488,140L492,141L494,137Z" fill="#E0E0E0" stroke="#fff" stroke-width=".4"/><path d="M531,-101L530,-99L528,-100L527,-95L528,-94L527,-93L526,-91L529,-92L530,-89L526,-77L526,-79L522,-90L524,-92L524,-93L525,-96L527,-102L527,-104L528,-104L530,-104L530,-105L532,-105L532,-102L531,-101Z" fill="#E0E0E0" stroke="#fff" stroke-width=".4"/><path d="M532,-105L530,-105L530,-104L528,-104L530,-110L533,-116L533,-116L536,-116L537,-113L534,-110Z" fill="#E0E0E0" stroke="#fff" stroke-width=".4"/><path d="M620,203L622,206L624,210L625,218L626,221L626,225L625,227L623,223L621,225L623,230L622,232L620,234L620,240L617,248L614,257L610,270L608,280L605,288L599,290L594,293L590,291L585,288L583,285L583,278L581,273L580,268L581,263L584,262L584,259L587,254L588,250L586,247L585,242L585,236L587,232L588,228L591,228L594,226L597,225L600,225L603,221L609,217L611,214L610,211L612,212L616,207L616,203L618,200Z" fill="#E0E0E0" stroke="#fff" stroke-width=".4"/><path d="M529,-92L526,-91L527,-93L528,-94L527,-95L528,-100L530,-99L530,-94Z" fill="#E0E0E0" stroke="#fff" stroke-width=".4"/><path d="M194,34L201,34L202,32L204,32L207,34L209,34L211,32L212,34L209,36L207,36L204,34L202,36L200,36L199,37L193,37Z" fill="#E0E0E0" stroke="#fff" stroke-width=".4"/><path d="M362,-83L360,-96L356,-99L356,-101L350,-106L350,-112L354,-116L355,-123L354,-130L356,-134L363,-137L367,-137L367,-132L372,-135L373,-134L370,-130L370,-126L372,-124L371,-117L367,-114L368,-109L371,-109L373,-105L375,-104L375,-98L372,-96L370,-94L365,-91L366,-88L366,-85Z" fill="#E0E0E0" stroke="#fff" stroke-width=".4"/><path d="M245,-61L246,-63L246,-63L246,-72L256,-77L262,-79L268,-81L270,-84L278,-87L278,-93L282,-93L285,-96L293,-98L294,-101L292,-102L290,-110L290,-115L287,-120L294,-124L301,-126L305,-129L311,-131L322,-133L332,-134L336,-132L342,-136L349,-136L351,-134L356,-134L354,-130L355,-123L354,-116L350,-112L350,-106L356,-101L356,-99L360,-96L362,-83L365,-76L365,-73L364,-67L364,-64L363,-60L364,-55L361,-52L365,-47L365,-44L368,-40L371,-41L376,-38L379,-33L357,-20L338,-7L329,-4L322,-3L322,-7L319,-8L315,-10L313,-14L291,-29L270,-44Z" fill="#E0E0E0" stroke="#fff" stroke-width=".4"/><path d="M530,-99L531,-101L539,-98L551,-106L554,-97L553,-96L540,-92L546,-84L544,-83L543,-81L538,-80L536,-77L534,-75L527,-76L526,-77L530,-89L529,-92L530,-94Z" fill="#E0E0E0" stroke="#fff" stroke-width=".4"/><path d="M634,-39L635,-39L635,-37L640,-38L645,-38L649,-38L654,-43L658,-47L663,-52L664,-49L665,-44L661,-44L661,-39L662,-38L659,-37L659,-34L657,-31L657,-28L656,-27L636,-30L634,-37Z" fill="#E0E0E0" stroke="#fff" stroke-width=".4"/><path d="M629,-42L628,-48L630,-51L632,-52L634,-50L634,-46L632,-42L631,-41Z" fill="#E0E0E0" stroke="#fff" stroke-width=".4"/><path d="M610,-80L612,-77L611,-75L613,-70L609,-70L607,-73L601,-74L606,-81Z" fill="#E0E0E0" stroke="#fff" stroke-width=".4"/><path d="M554,-97L551,-106L565,-114L568,-124L567,-130L571,-131L574,-137L577,-138L584,-137L587,-135L590,-136L594,-126L598,-124L599,-119L595,-117L594,-111L598,-103L606,-99L610,-93L608,-88L611,-88L611,-84L614,-80L610,-80L606,-81L601,-74L589,-74L571,-89L562,-95Z" fill="#E0E0E0" stroke="#fff" stroke-width=".4"/><path d="M657,-28L657,-31L659,-34L659,-37L662,-38L661,-39L661,-44L665,-44L668,-39L671,-36L676,-35L680,-34L683,-30L684,-28L687,-27L687,-25L684,-21L683,-19L680,-17L678,-12L675,-13L674,-11L673,-8L674,-3L673,-2L670,-2L666,0L665,4L664,5L660,5L657,7L657,9L654,11L651,11L646,13L643,13L641,9L636,-3L656,-9L660,-23ZM664,-49L663,-52L664,-54L665,-54L665,-51Z" fill="#E0E0E0" stroke="#fff" stroke-width=".4"/><path d="M962,43L961,35L965,30L973,28L979,29L984,32L987,27L993,30L994,34L994,42L983,47L986,51L979,52L973,54L968,53L965,50Z" fill="#E0E0E0" stroke="#fff" stroke-width=".4"/><path d="M979,29L973,28L965,30L961,35L962,43L956,40L951,40L952,35L946,35L946,42L942,52L940,58L940,62L945,63L947,69L948,74L952,78L956,79L959,82L957,85L953,85L952,82L947,79L946,80L943,78L942,75L939,71L936,68L935,72L934,68L934,64L936,58L939,51L943,45L940,39L940,36L940,32L935,27L934,24L936,22L938,17L936,12L932,7L929,1L931,0L934,-7L939,-8L942,-11L946,-12L949,-10L949,-6L954,-6L952,2L952,8L959,4L961,5L965,5L966,2L971,3L976,8L976,15L981,21L981,26Z" fill="#E0E0E0" stroke="#fff" stroke-width=".4"/><path d="M993,30L987,27L984,32L979,29L981,26L981,21L976,15L976,8L971,3L966,2L965,5L961,5L959,4L952,8L952,2L954,-6L949,-6L949,-10L946,-12L948,-15L953,-19L954,-18L957,-17L956,-25L959,-26L963,-21L966,-15L974,-15L976,-9L972,-7L971,-4L978,-0L984,8L988,14L993,18L994,23Z" fill="#E0E0E0" stroke="#fff" stroke-width=".4"/><path d="M946,-12L942,-11L939,-8L934,-7L931,0L929,1L932,7L936,12L938,17L936,22L934,24L935,27L940,32L940,36L940,39L943,45L939,51L936,58L935,53L937,48L935,44L936,37L933,33L931,26L930,17L927,11L923,15L916,20L912,19L908,17L910,9L909,3L904,-5L905,-7L901,-8L896,-14L896,-20L898,-18L898,-23L901,-25L901,-28L902,-30L902,-38L907,-36L910,-42L911,-45L914,-51L914,-55L922,-60L927,-59L926,-64L929,-65L928,-68L932,-68L934,-64L937,-62L937,-57L937,-51L931,-45L930,-36L937,-38L938,-31L942,-30L941,-24L945,-21L948,-20L953,-22L953,-19L948,-15Z" fill="#E0E0E0" stroke="#fff" stroke-width=".4"/><path d="M973,54L979,52L986,51L983,47L994,42L994,34L993,30L994,23L993,18L988,14L984,8L978,-0L971,-4L972,-7L976,-9L974,-15L966,-15L963,-21L959,-26L963,-28L968,-28L974,-29L980,-33L983,-30L989,-29L988,-25L991,-22L997,-20L989,-14L983,-8L982,-3L987,4L993,13L999,17L1003,23L1006,35L1005,46L999,51L992,55L987,60L979,67L976,62L978,58Z" fill="#E0E0E0" stroke="#fff" stroke-width=".4"/><path d="M867,-244L873,-246L886,-254L895,-259L901,-256L908,-256L912,-251L918,-251L928,-248L934,-255L931,-261L938,-272L945,-267L951,-266L959,-264L960,-256L969,-252L975,-254L983,-255L990,-254L996,-249L1000,-244L1006,-244L1014,-242L1020,-245L1028,-246L1038,-253L1042,-252L1045,-249L1053,-250L1050,-242L1045,-232L1047,-229L1050,-230L1057,-228L1062,-232L1067,-229L1073,-222L1072,-219L1067,-220L1058,-219L1053,-216L1048,-210L1039,-206L1032,-201L1026,-203L1022,-204L1019,-198L1021,-195L1022,-192L1017,-189L1012,-184L1005,-181L995,-181L985,-178L977,-173L975,-176L967,-176L957,-181L951,-182L942,-181L929,-183L922,-183L918,-188L915,-196L911,-197L903,-203L895,-204L887,-206L885,-210L887,-221L883,-228L874,-232L868,-237Z" fill="#E0E0E0" stroke="#fff" stroke-width=".4"/><path d="M928,-68L929,-65L926,-64L927,-59L922,-60L914,-55L914,-51L911,-45L910,-42L907,-36L902,-38L902,-30L901,-28L901,-25L898,-23L895,-35L893,-34L892,-30L888,-34L890,-38L893,-38L896,-44L893,-45L887,-45L881,-46L880,-51L877,-51L872,-55L869,-50L874,-46L870,-43L869,-41L873,-39L872,-35L874,-29L875,-24L874,-21L869,-21L862,-20L862,-14L858,-10L849,-6L842,2L837,6L831,11L831,14L828,16L822,18L819,18L817,24L818,32L818,38L816,44L816,55L812,55L809,60L811,63L806,64L803,69L801,71L795,65L792,55L789,49L787,46L784,39L782,31L781,27L775,18L772,5L770,-4L770,-12L769,-19L760,-15L755,-15L747,-24L750,-26L748,-29L740,-35L745,-40L759,-40L758,-46L754,-49L753,-55L749,-58L756,-66L764,-65L770,-73L774,-80L781,-88L781,-93L786,-98L781,-101L779,-107L776,-113L780,-117L789,-115L796,-116L803,-123L810,-113L809,-107L812,-103L811,-99L807,-100L808,-92L815,-87L824,-82L820,-79L817,-72L823,-69L830,-65L838,-61L847,-60L850,-57L855,-56L863,-54L869,-54L869,-57L868,-62L869,-65L873,-66L873,-61L874,-59L879,-57L883,-58L889,-57L894,-57L895,-62L892,-64L897,-65L903,-70L910,-75L916,-73L920,-76L923,-72L921,-69Z" fill="#E0E0E0" stroke="#fff" stroke-width=".4"/><path d="M898,-23L898,-18L896,-20L896,-14L894,-18L894,-21L893,-24L890,-28L884,-29L885,-26L883,-22L880,-23L879,-22L877,-23L875,-24L874,-29L872,-35L873,-39L869,-41L870,-43L874,-46L869,-50L872,-55L877,-51L880,-51L881,-46L887,-45L893,-45L896,-44L893,-38L890,-38L888,-34L892,-30L893,-34L895,-35Z" fill="#E0E0E0" stroke="#fff" stroke-width=".4"/><path d="M892,-64L895,-62L894,-57L889,-57L883,-58L879,-57L874,-59L873,-61L878,-66L881,-68L886,-66L889,-66Z" fill="#E0E0E0" stroke="#fff" stroke-width=".4"/><path d="M869,-65L868,-62L869,-57L869,-54L863,-54L855,-56L850,-57L847,-60L838,-61L830,-65L823,-69L817,-72L820,-79L824,-82L826,-84L832,-81L838,-77L842,-76L844,-72L849,-71L854,-67L861,-66Z" fill="#E0E0E0" stroke="#fff" stroke-width=".4"/><path d="M803,-123L796,-116L789,-115L780,-117L776,-113L779,-107L781,-101L786,-98L781,-93L781,-88L774,-80L770,-73L764,-65L756,-66L749,-58L753,-55L754,-49L758,-46L759,-40L745,-40L740,-35L736,-37L734,-42L729,-47L717,-46L707,-46L697,-45L700,-53L709,-57L709,-60L706,-61L705,-68L699,-71L697,-75L693,-79L704,-75L711,-77L715,-76L716,-77L720,-77L729,-80L729,-86L732,-90L737,-90L738,-92L743,-93L745,-93L748,-95L747,-99L750,-104L754,-106L752,-111L758,-111L760,-114L759,-117L763,-120L762,-124L760,-127L764,-131L771,-132L778,-133L782,-135L785,-136L790,-132L792,-126Z" fill="#E0E0E0" stroke="#fff" stroke-width=".4"/><path d="M730,-138L733,-138L738,-136L740,-135L745,-137L747,-136L749,-140L753,-139L754,-141L755,-144L757,-147L761,-145L760,-142L762,-142L762,-135L764,-133L766,-134L769,-135L773,-139L778,-138L784,-138L785,-136L782,-135L778,-133L771,-132L764,-131L760,-127L762,-124L763,-120L759,-117L760,-114L758,-111L752,-111L754,-106L750,-104L747,-99L748,-95L745,-93L743,-93L738,-92L737,-90L732,-90L729,-86L729,-80L720,-77L716,-77L715,-76L711,-77L704,-75L693,-79L699,-86L699,-91L694,-92L693,-97L691,-103L694,-107L691,-108L693,-114L696,-124L702,-121L707,-122L708,-126L713,-127L717,-129L718,-136L724,-137L725,-140L728,-138Z" fill="#E0E0E0" stroke="#fff" stroke-width=".4"/><path d="M738,-136L742,-144L740,-150L736,-152L737,-156L743,-155L746,-160L748,-166L757,-167L755,-164L756,-161L759,-161L756,-159L749,-160L749,-155L756,-156L764,-153L776,-155L778,-147L780,-148L784,-146L783,-143L784,-138L778,-138L773,-139L769,-135L766,-134L764,-133L762,-135L762,-142L760,-142L761,-145L757,-147L755,-144L754,-141L753,-139L749,-140L747,-136L745,-137L740,-135Z" fill="#E0E0E0" stroke="#fff" stroke-width=".4"/><path d="M758,-179L760,-183L764,-184L775,-181L776,-186L779,-188L789,-184L791,-185L802,-185L811,-184L814,-181L818,-179L817,-178L807,-173L805,-169L797,-168L794,-163L787,-164L783,-162L777,-158L778,-157L776,-155L764,-153L756,-156L749,-155L749,-160L756,-159L759,-161L764,-161L772,-167L764,-171L760,-169L755,-172L760,-178Z" fill="#E0E0E0" stroke="#fff" stroke-width=".4"/><path d="M640,-175L642,-177L650,-179L654,-177L659,-170L662,-170L669,-171L668,-175L674,-178L679,-183L688,-178L688,-171L691,-170L698,-170L700,-169L703,-160L710,-154L715,-150L721,-146L730,-143L730,-138L728,-138L725,-140L724,-137L718,-136L717,-129L713,-127L708,-126L707,-122L702,-121L696,-124L695,-131L690,-131L683,-138L678,-139L671,-143L666,-144L663,-142L659,-142L654,-138L649,-136L647,-142L648,-151L643,-153L645,-159L641,-160L642,-167L648,-165L654,-167L649,-173L647,-178L642,-175L642,-169Z" fill="#E0E0E0" stroke="#fff" stroke-width=".4"/><path d="M614,-80L611,-84L611,-88L608,-88L610,-93L606,-99L598,-103L594,-111L595,-117L599,-119L598,-124L594,-126L590,-136L586,-143L587,-145L585,-155L590,-157L591,-154L594,-150L599,-149L601,-149L608,-155L611,-156L613,-153L611,-149L615,-145L616,-145L618,-139L624,-138L629,-134L638,-132L648,-134L649,-136L654,-138L659,-142L663,-142L666,-144L671,-143L678,-139L683,-138L690,-131L695,-131L696,-124L693,-114L691,-108L694,-107L691,-103L693,-97L694,-92L699,-91L699,-86L693,-79L697,-75L699,-71L705,-68L706,-61L709,-60L709,-57L700,-53L697,-45L685,-47L678,-49L671,-49L668,-58L665,-60L660,-58L654,-55L646,-57L639,-63L633,-65L629,-72L624,-82L621,-80L617,-83Z" fill="#E0E0E0" stroke="#fff" stroke-width=".4"/><path d="M531,-101L531,-101L532,-102L532,-105L534,-110L537,-113L536,-116L533,-116L533,-122L534,-125L536,-127L538,-129L538,-133L540,-132L547,-134L551,-132L556,-132L563,-135L567,-135L574,-137L571,-131L567,-130L568,-124L565,-114L551,-106L539,-98Z" fill="#E0E0E0" stroke="#fff" stroke-width=".4"/><path d="M601,-149L599,-149L596,-154L596,-155L593,-155L591,-157L590,-157L587,-159L583,-161L583,-166L582,-169L591,-170L592,-168L595,-166L594,-164L597,-161L595,-159L598,-156L601,-155Z" fill="#E0E0E0" stroke="#fff" stroke-width=".4"/><path d="M483,-208L486,-206L489,-207L492,-206L492,-203L489,-201L487,-202L485,-191L482,-192L477,-196L469,-194L466,-191L457,-192L452,-193L449,-192L447,-196L446,-198L448,-199L446,-200L444,-198L440,-201L440,-205L436,-207L435,-210L432,-213L437,-215L441,-222L444,-228L448,-230L450,-232L454,-231L459,-231L462,-229L464,-230L469,-231L470,-233L473,-233L475,-232L477,-229L479,-225L483,-220L483,-216L482,-212Z" fill="#E0E0E0" stroke="#fff" stroke-width=".4"/><path d="M447,-196L449,-192L452,-193L457,-192L466,-191L469,-194L477,-196L482,-192L485,-191L482,-188L480,-181L482,-177L476,-178L470,-175L470,-171L464,-170L459,-173L454,-170L449,-171L449,-176L446,-179L447,-180L446,-181L447,-184L449,-187L446,-191L446,-194Z" fill="#E0E0E0" stroke="#fff" stroke-width=".4"/><path d="M471,-121L470,-119L461,-118L461,-119L453,-121L454,-124L458,-122L463,-122L467,-122L467,-120ZM449,-171L454,-170L459,-173L464,-170L470,-171L470,-175L473,-173L471,-167L469,-166L465,-167L462,-167L454,-165L459,-160L455,-159L452,-159L448,-163L447,-162L449,-157L452,-153L449,-151L453,-147L456,-145L456,-140L450,-142L452,-138L448,-137L451,-130L446,-130L441,-133L439,-140L437,-145L435,-149L432,-154L431,-156L434,-160L435,-163L437,-164L437,-166L441,-167L443,-169L447,-169L448,-170Z" fill="#E0E0E0" stroke="#fff" stroke-width=".4"/><path d="M590,-136L587,-135L584,-137L577,-138L574,-137L567,-135L563,-135L556,-132L551,-132L547,-134L540,-132L538,-133L538,-129L536,-127L534,-125L532,-129L534,-132L530,-131L525,-133L521,-128L511,-128L506,-132L499,-132L497,-129L493,-128L486,-132L479,-132L476,-140L471,-144L474,-151L470,-155L477,-163L487,-163L490,-170L502,-169L510,-174L517,-177L528,-177L539,-171L548,-167L556,-169L561,-168L569,-172L576,-173L582,-169L583,-166L583,-161L587,-159L590,-157L585,-155L587,-145L586,-143ZM470,-175L476,-178L482,-177L482,-173L488,-170L487,-168L479,-168L477,-165L471,-161L469,-165L469,-166L471,-167L473,-173Z" fill="#E0E0E0" stroke="#fff" stroke-width=".4"/><path d="M437,-166L437,-164L435,-163L434,-160L431,-156L430,-157L430,-159L426,-161L426,-166L426,-171L427,-174L426,-175L426,-178L429,-182L429,-181L431,-182L432,-179L434,-178L434,-175L433,-172L434,-169Z" fill="#E0E0E0" stroke="#fff" stroke-width=".4"/><path d="M408,-217L410,-216L415,-212L420,-210L423,-211L424,-208L426,-205L424,-202L421,-204L416,-204L411,-205L408,-205L406,-203L404,-205L403,-201L406,-197L407,-194L410,-191L413,-189L415,-185L421,-182L420,-181L414,-184L410,-187L405,-190L399,-196L400,-197L397,-201L397,-204L393,-205L391,-201L389,-204L389,-208L390,-208L394,-207L395,-209L398,-207L400,-207L400,-210L402,-211L403,-214Z" fill="#E0E0E0" stroke="#fff" stroke-width=".4"/><path d="M243,-175L246,-178L248,-179L250,-175L254,-175L255,-176L258,-175L260,-171L257,-169L257,-162L256,-161L256,-157L253,-156L256,-151L254,-146L256,-143L255,-141L253,-138L253,-135L251,-133L247,-135L244,-134L245,-140L244,-145L242,-146L240,-149L241,-154L243,-157L244,-161L245,-166L245,-169L243,-172Z" fill="#E0E0E0" stroke="#fff" stroke-width=".4"/><path d="M253,-135L253,-138L255,-141L256,-143L254,-146L256,-151L253,-156L256,-157L256,-161L257,-162L257,-169L260,-171L258,-175L255,-176L254,-175L250,-175L248,-179L246,-178L243,-175L244,-182L241,-185L250,-192L258,-190L267,-190L273,-189L279,-189L289,-189L292,-185L304,-181L306,-183L313,-179L321,-181L321,-175L315,-170L307,-168L306,-165L302,-160L300,-154L302,-149L298,-145L297,-140L292,-138L288,-132L279,-132L273,-132L269,-129L267,-126L264,-127L261,-130L259,-134Z" fill="#E0E0E0" stroke="#fff" stroke-width=".4"/><path d="M828,74L827,80L824,82L819,84L816,78L815,69L818,59L822,62L825,67Z" fill="#E0E0E0" stroke="#fff" stroke-width=".4"/><path d="M1006,3L1001,1L1001,-5L1004,-8L1011,-10L1015,-10L1016,-7L1013,-4L1012,-0ZM818,-179L818,-184L822,-187L816,-202L829,-206L832,-208L837,-225L850,-222L853,-226L854,-236L859,-236L864,-243L867,-244L868,-237L874,-232L883,-228L887,-221L885,-210L887,-206L895,-204L903,-203L911,-197L915,-196L918,-188L922,-183L929,-183L942,-181L951,-182L957,-181L967,-176L975,-176L977,-173L985,-178L995,-181L1005,-181L1012,-184L1017,-189L1022,-192L1021,-195L1019,-198L1022,-204L1026,-203L1032,-201L1039,-206L1048,-210L1053,-216L1058,-219L1067,-220L1072,-219L1073,-222L1067,-229L1062,-232L1057,-228L1050,-230L1047,-229L1045,-232L1050,-242L1053,-250L1061,-246L1070,-252L1070,-257L1075,-268L1079,-271L1079,-277L1075,-279L1081,-285L1089,-286L1097,-287L1107,-284L1113,-280L1117,-269L1119,-265L1121,-258L1124,-248L1135,-245L1142,-238L1145,-229L1155,-229L1160,-233L1171,-236L1168,-227L1165,-224L1163,-213L1159,-204L1151,-206L1145,-203L1147,-195L1146,-185L1143,-184L1143,-180L1139,-185L1136,-180L1126,-176L1127,-172L1122,-172L1118,-175L1114,-169L1107,-164L1102,-159L1093,-156L1088,-152L1081,-150L1084,-154L1083,-157L1088,-163L1085,-167L1079,-164L1072,-159L1068,-153L1062,-153L1058,-149L1062,-143L1067,-142L1067,-138L1072,-136L1080,-142L1085,-139L1089,-138L1090,-134L1081,-132L1078,-128L1072,-124L1069,-118L1076,-114L1078,-106L1082,-99L1087,-93L1086,-88L1082,-86L1084,-82L1088,-79L1087,-73L1085,-67L1081,-67L1077,-59L1072,-50L1066,-41L1057,-35L1048,-29L1041,-28L1037,-25L1034,-27L1031,-24L1022,-20L1015,-19L1013,-12L1009,-11L1007,-16L1009,-19L1000,-21L997,-20L991,-22L988,-25L989,-29L983,-30L980,-33L974,-29L968,-28L963,-28L959,-26L956,-25L957,-17L954,-18L953,-19L953,-22L948,-20L945,-21L941,-24L942,-30L938,-31L937,-38L930,-36L931,-45L937,-51L937,-57L937,-62L934,-64L932,-68L928,-68L921,-69L923,-72L920,-76L916,-73L910,-75L903,-70L897,-65L892,-64L889,-66L886,-66L881,-68L878,-66L873,-61L873,-66L869,-65L861,-66L854,-67L849,-71L844,-72L842,-76L838,-77L832,-81L826,-84L824,-82L815,-87L808,-92L807,-100L811,-99L812,-103L809,-107L810,-113L803,-123L792,-126L790,-132L785,-136L784,-138L783,-143L784,-146L780,-148L778,-147L776,-155L778,-157L777,-158L783,-162L787,-164L794,-163L797,-168L805,-169L807,-173L817,-178Z" fill="#E0E0E0" stroke="#fff" stroke-width=".4"/><path d="M369,-221L373,-219L373,-221L380,-223L381,-219L390,-217L390,-212L391,-208L386,-210L381,-207L381,-202L380,-199L382,-195L389,-190L392,-183L399,-176L404,-176L406,-174L404,-172L410,-169L414,-167L420,-162L420,-161L419,-158L416,-162L410,-163L407,-158L412,-155L411,-150L409,-150L405,-143L402,-142L402,-145L404,-149L405,-151L403,-156L401,-160L398,-161L396,-164L392,-166L389,-169L384,-170L379,-174L373,-180L369,-185L367,-193L364,-194L359,-197L356,-196L352,-192L349,-191L350,-195L347,-196L345,-203L347,-206L345,-210L345,-212L348,-210L351,-211L355,-214L356,-212L359,-213L361,-216L365,-215L368,-217ZM396,-144L401,-145L399,-138L400,-136L399,-132L394,-135L390,-136L381,-140L382,-144L390,-143ZM357,-167L361,-170L365,-164L364,-152L361,-153L358,-150L356,-152L355,-163L354,-167Z" fill="#E0E0E0" stroke="#fff" stroke-width=".4"/><path d="M600,-175L602,-175L607,-170L609,-169L610,-171L614,-175L618,-170L621,-164L624,-164L626,-162L621,-161L620,-154L618,-151L616,-149L616,-145L615,-145L611,-149L613,-153L611,-156L608,-155L601,-149L601,-155L598,-156L595,-159L597,-161L594,-164L595,-166L592,-168L591,-170L593,-171L597,-169L601,-168L602,-169L599,-174ZM599,-149L594,-150L591,-154L590,-157L591,-157L593,-155L596,-155L596,-154Z" fill="#E0E0E0" stroke="#fff" stroke-width=".4"/><path d="M559,-189L560,-190L565,-189L574,-187L583,-183L584,-181L588,-183L594,-181L596,-177L600,-175L599,-174L602,-169L601,-168L597,-169L593,-171L591,-170L582,-169L576,-173L569,-172L570,-176L568,-182L565,-185L561,-186Z" fill="#E0E0E0" stroke="#fff" stroke-width=".4"/><path d="M946,80L947,79L952,82L953,85L957,85L959,82L961,83L965,87L967,91L968,95L967,98L968,100L968,104L970,106L973,112L973,114L968,114L962,109L954,104L954,101L950,97L949,91L947,88L947,83ZM1061,95L1055,94L1048,94L1045,102L1043,104L1040,113L1034,114L1028,113L1025,113L1021,116L1017,116L1013,117L1009,114L1008,109L1012,111L1017,110L1019,105L1021,104L1029,102L1034,97L1037,93L1040,96L1041,94L1044,94L1045,90L1045,87L1050,83L1053,77L1056,77L1059,81L1059,84L1064,85L1069,87L1068,90L1064,90L1065,93Z" fill="#E0E0E0" stroke="#fff" stroke-width=".4"/><path d="M536,28L535,26L538,16L539,11L541,9L546,8L549,4L553,12L554,18L558,22L567,28L570,32L574,35L576,38L579,40L577,41L574,41L572,39L569,35L566,33L565,30L559,28L555,28L553,26L549,28L546,25L544,30Z" fill="#E0E0E0" stroke="#fff" stroke-width=".4"/><path d="M-73,255L-71,259L-72,268L-65,269L-62,268L-58,270L-57,272L-56,278L-55,281L-53,281L-51,280L-48,282L-48,285L-49,290L-50,294L-51,300L-57,306L-62,307L-70,306L-76,304L-70,293L-71,290L-77,287L-85,282L-90,281L-102,269L-100,261L-100,257L-97,251L-85,249L-79,249L-73,253Z" fill="#E0E0E0" stroke="#fff" stroke-width=".4"/><path d="M636,-3L641,9L643,13L639,15L638,18L637,20L631,23L621,26L615,31L612,31L610,31L606,34L602,35L597,35L595,36L594,38L592,38L591,40L588,40L586,40L581,40L580,36L580,33L579,31L578,26L576,23L577,23L576,20L577,18L577,15L580,13L579,10L581,7L583,9L585,8L593,8L594,9L600,9L602,9L604,11L607,10L612,3L618,0Z" fill="#E0E0E0" stroke="#fff" stroke-width=".4"/><path d="M527,-76L534,-75L536,-77L538,-80L543,-81L544,-83L546,-84L540,-92L553,-96L554,-97L562,-95L571,-89L589,-74L601,-74L607,-73L609,-70L613,-70L616,-64L619,-62L620,-59L624,-56L625,-53L624,-51L625,-49L627,-47L628,-44L629,-42L631,-41L632,-42L634,-39L634,-37L636,-30L656,-27L657,-28L660,-23L656,-9L636,-3L618,0L612,3L607,10L604,11L602,9L600,9L594,9L593,8L585,8L583,9L581,7L579,10L580,13L577,15L576,13L574,11L574,8L570,5L567,-0L565,-6L561,-11L558,-12L553,-18L553,-23L553,-27L549,-35L546,-38L543,-39L541,-43L541,-45L539,-49L537,-50L535,-55L531,-61L528,-66L524,-66L525,-70L526,-73Z" fill="#E0E0E0" stroke="#fff" stroke-width=".4"/><path d="M512,-120L513,-120L514,-122L518,-122L524,-124L520,-121L520,-119L520,-119L518,-119L517,-119L517,-119L517,-120L516,-120L515,-120L513,-119Z" fill="#E0E0E0" stroke="#fff" stroke-width=".4"/><path d="M512,-120L513,-119L515,-120L516,-120L517,-120L517,-119L517,-119L518,-119L520,-119L520,-119L520,-119L514,-115L511,-116L509,-120Z" fill="#E0E0E0" stroke="#fff" stroke-width=".4"/><path d="M287,-120L290,-115L290,-110L292,-102L294,-101L293,-98L285,-96L282,-93L278,-93L278,-87L270,-84L268,-81L262,-79L256,-77L246,-72L246,-63L245,-63L245,-59L241,-59L239,-58L236,-58L233,-58L228,-58L226,-52L224,-52L221,-43L212,-35L210,-25L207,-22L206,-20L192,-19L192,-19L192,-22L195,-24L197,-28L196,-30L198,-35L202,-40L204,-41L206,-45L206,-49L208,-53L213,-56L217,-63L217,-63L220,-66L226,-67L231,-72L234,-74L240,-80L238,-89L241,-96L242,-100L246,-105L252,-109L257,-112L261,-120L263,-125L268,-125L272,-121L278,-122L285,-120Z" fill="#E0E0E0" stroke="#fff" stroke-width=".4"/><path d="M539,-23L513,-23L488,-23L462,-23L462,-49L462,-75L460,-81L462,-85L461,-89L463,-92L472,-92L478,-90L485,-88L488,-87L493,-89L495,-92L501,-92L505,-91L507,-88L509,-90L514,-88L519,-88L522,-90L526,-79L526,-77L524,-74L523,-68L521,-65L520,-63L518,-66L515,-69L510,-79L510,-79L512,-71L516,-64L521,-52L523,-48L525,-44L531,-37L530,-35L530,-31L538,-25Z" fill="#E0E0E0" stroke="#fff" stroke-width=".4"/><path d="M462,-23L462,-9L455,-9L455,-6L429,-20L404,-33L397,-29L392,-27L389,-30L379,-33L376,-38L371,-41L368,-40L365,-44L365,-47L361,-52L364,-55L363,-60L364,-64L364,-67L365,-73L365,-76L362,-83L366,-85L366,-88L365,-91L370,-94L372,-96L375,-98L375,-104L383,-102L386,-102L391,-101L400,-98L403,-91L408,-89L417,-86L424,-83L427,-84L431,-88L429,-94L431,-97L436,-101L440,-102L449,-100L451,-97L453,-97L456,-96L462,-95L463,-92L461,-89L462,-85L460,-81L462,-75L462,-49Z" fill="#E0E0E0" stroke="#fff" stroke-width=".4"/><path d="M609,70L591,90L583,90L577,95L573,95L571,97L567,97L564,95L558,97L556,100L552,100L550,99L549,99L547,99L539,93L534,93L532,91L532,88L529,87L525,80L522,78L521,75L518,72L514,72L516,68L519,68L520,66L520,60L522,53L525,51L526,49L528,44L532,40L535,34L536,28L544,30L546,25L549,28L553,26L555,28L559,28L565,30L566,33L569,35L572,39L574,41L572,44L570,47L570,49L570,51L574,51L575,50L577,51L575,54L578,57L580,60L583,63L604,70Z" fill="#E0E0E0" stroke="#fff" stroke-width=".4"/><path d="M574,41L577,41L579,40L580,42L580,44L577,46L579,48L577,51L575,50L574,51L570,51L570,49L570,47L572,44Z" fill="#E0E0E0" stroke="#fff" stroke-width=".4"/><path d="M617,48L617,48L617,51L617,58L617,61L614,65L609,70L604,70L583,63L580,60L578,57L575,54L577,51L579,48L581,49L583,52L586,55L589,55L595,53L602,52L607,50L611,50L613,48Z" fill="#E0E0E0" stroke="#fff" stroke-width=".4"/><path d="M520,128L507,129L500,129L497,129L493,131L492,131L492,126L493,123L494,118L495,115L498,112L500,110L502,108L500,107L500,100L503,98L507,99L512,98L516,98L520,95L523,99L524,102L527,110L525,115L522,119L520,121Z" fill="#E0E0E0" stroke="#fff" stroke-width=".4"/><path d="M497,129L500,133L499,137L498,138L494,137L492,141L488,140L489,137L490,136L490,133L492,131L493,131Z" fill="#E0E0E0" stroke="#fff" stroke-width=".4"/><path d="M421,-182L415,-185L413,-189L410,-191L407,-194L406,-197L403,-201L404,-205L406,-203L408,-205L411,-205L416,-204L421,-204L424,-202L426,-202L425,-198L428,-194L427,-190L425,-190L424,-189L422,-187Z" fill="#E0E0E0" stroke="#fff" stroke-width=".4"/><path d="M446,-179L449,-176L449,-171L448,-170L447,-169L443,-169L441,-167L437,-166L434,-169L433,-172L434,-175L435,-175L435,-177L439,-178L440,-179L443,-179Z" fill="#E0E0E0" stroke="#fff" stroke-width=".4"/><path d="M423,-211L428,-214L432,-213L435,-210L436,-207L440,-205L440,-201L444,-198L446,-200L448,-199L446,-198L447,-196L446,-194L446,-191L449,-187L447,-184L446,-181L447,-180L446,-179L443,-179L440,-179L440,-179L441,-180L442,-182L441,-182L439,-184L438,-184L438,-186L436,-186L435,-188L434,-187L433,-184L432,-184L432,-184L430,-186L428,-187L427,-188L425,-190L427,-190L428,-194L425,-198L426,-202L424,-202L426,-205L424,-208Z" fill="#E0E0E0" stroke="#fff" stroke-width=".4"/><path d="M431,-182L429,-181L429,-182L426,-178L426,-175L425,-176L423,-179L420,-181L421,-182L422,-187L424,-189L425,-190L427,-188L428,-187L430,-186L432,-184L432,-184Z" fill="#E0E0E0" stroke="#fff" stroke-width=".4"/><path d="M434,-175L434,-178L432,-179L431,-182L432,-184L433,-184L434,-187L435,-188L436,-186L438,-186L438,-184L439,-184L441,-182L442,-182L441,-180L440,-179L440,-179L439,-178L435,-177L435,-175Z" fill="#E0E0E0" stroke="#fff" stroke-width=".4"/><path d="M-96,52L-92,52L-91,52L-91,57L-96,57L-98,57L-96,55Z" fill="#E0E0E0" stroke="#fff" stroke-width=".4"/><path d="M500,100L494,95L493,92L489,94L486,93L484,95L482,94L478,88L477,86L472,84L470,80L468,77L463,74L463,72L460,69L455,66L457,66L459,64L461,59L463,56L467,55L469,57L472,60L474,61L476,60L481,60L482,61L488,61L488,60L491,59L492,57L495,56L500,59L503,59L507,54L510,50L510,46L508,44L512,44L512,43L515,43L514,48L515,53L519,55L519,58L519,61L520,61L520,66L519,68L516,68L514,72L518,72L521,75L522,78L525,80L529,87L524,91L520,95L516,98L512,98L507,99L503,98Z" fill="#E0E0E0" stroke="#fff" stroke-width=".4"/></g><g clip-path="url(#v)"><path d="M499.4,175.1L498.3,175.3L496.7,175.5L494.9,175.8L493.1,176.1L491.3,176.4L489.6,176.6L488.0,176.9L487.5,177.0L487.8,177.7L487.6,178.4L487.3,179.0L486.8,179.6L486.6,179.9L486.1,180.4L485.7,180.8L484.9,181.5L484.3,181.8L484.3,182.1L485.2,183.7L485.6,184.8L485.8,185.8L485.8,186.4L485.7,187.5L485.7,188.9L485.6,189.5L485.9,190.5L485.8,191.3L485.2,192.1L485.1,193.0L484.8,194.2L484.3,195.8L484.0,196.6L484.2,197.2L484.3,197.5L484.5,198.0L484.8,198.8L485.2,199.2L485.4,199.4L486.7,200.3L487.2,200.8L488.0,201.7L488.6,202.3L489.4,202.4L490.4,202.7L490.9,202.8L491.3,202.8L491.4,202.5L491.4,202.1L491.3,201.8L491.4,201.5L491.8,201.3L492.6,201.3L493.0,201.1L493.3,201.0L493.3,202.0L493.3,203.0L493.3,204.1L493.3,205.5L493.3,206.5L493.3,207.7L493.3,209.1L493.3,209.2L493.2,209.5L492.8,209.6L492.4,209.3L492.3,209.1L492.2,208.6L492.0,208.3L491.7,208.2L491.3,208.4L490.6,208.7L489.8,209.1L489.5,209.2L488.9,209.2L488.3,209.0L487.8,208.6L487.7,208.0L487.3,207.4L486.7,206.5L486.4,206.1L486.1,205.7L485.7,205.6L485.3,205.5L485.0,204.9L484.8,204.1L484.6,203.8L484.4,203.4L484.0,203.2L483.3,202.9L482.2,202.4L480.8,201.9L480.2,201.9L479.4,201.8L479.0,201.5L478.7,201.3L478.4,200.5L478.0,199.6L476.8,198.6L476.6,197.4L476.3,197.2L475.9,197.3L475.6,197.5L475.5,197.8L475.1,198.9L475.0,199.3L474.8,199.5L474.6,199.6L474.2,199.8L473.5,199.8L472.7,199.8L471.6,199.7L471.0,199.5L469.5,199.4L469.0,199.3L468.4,199.0L467.9,198.8L466.4,198.3L465.7,198.4L465.4,198.0L465.1,197.9L464.7,197.5L464.5,197.1L464.2,196.1L464.3,195.6L464.5,195.0L464.3,194.8L464.0,194.8L463.6,195.0L462.9,195.1L461.6,195.4L461.2,195.5L460.6,195.6L460.3,195.8L459.3,196.3L459.0,196.4L458.4,196.2L458.1,195.9L458.4,195.5L458.5,195.1L458.3,194.3L458.0,193.9L457.2,193.6L456.8,193.6L456.7,193.1L456.5,192.7L456.0,192.6L455.8,192.6L455.5,192.7L455.4,193.1L455.3,193.3L454.9,193.5L454.0,193.5L453.1,193.3L452.5,193.2L452.1,193.3L450.5,193.9L450.0,194.0L448.3,194.0L447.4,193.8L446.7,193.8L446.2,194.0L445.6,194.5L445.1,194.7L444.9,194.7L444.7,194.5L444.5,194.2L444.5,193.5L444.2,192.7L444.4,192.3L444.9,192.0L445.1,191.4L444.9,190.5L444.9,189.9L445.0,189.5L444.9,188.6L444.3,187.1L443.7,186.0L442.7,185.1L442.2,184.2L441.9,183.4L442.0,181.5L442.3,179.7L442.5,178.4L442.4,176.1L441.8,174.6L441.7,173.0L442.0,171.3L442.1,170.1L441.8,169.5L441.7,169.4L441.5,169.3L439.9,169.3L437.9,169.2L436.1,169.2L434.1,169.2L433.8,168.9L433.7,168.5L433.7,168.1L434.1,166.9L434.0,166.8L433.3,166.8L431.4,167.0L430.2,167.2L429.4,167.3L428.0,167.6L427.2,168.3L426.9,169.2L426.9,169.9L426.9,170.4L426.5,171.0L426.1,171.6L426.1,171.9L426.0,173.6L424.7,173.8L423.4,173.8L423.1,173.8L421.5,173.4L421.0,173.4L420.4,173.6L419.5,173.8L418.6,174.0L417.6,174.5L417.4,174.5L416.8,174.3L415.9,174.3L415.0,174.4L414.6,174.5L414.3,174.3L413.5,173.1L412.5,171.4L411.9,170.3L411.7,170.1L411.3,169.7L410.8,169.0L410.6,168.4L410.7,167.7L410.4,166.9L409.7,165.9L409.2,164.9L409.0,163.9L409.0,163.1L409.1,162.4L408.9,161.9L408.6,161.6L408.4,161.2L408.2,161.0L407.9,160.6L407.2,160.2L406.5,160.0L404.8,160.0L402.7,160.0L400.7,160.0L398.6,160.0L396.4,160.1L395.8,160.1L394.1,160.2L392.8,160.1L392.3,160.0L391.4,159.9L390.0,159.9L389.3,160.0L387.5,160.0L387.4,160.0L387.1,160.1L386.3,159.9L385.6,160.0L385.1,159.8L384.2,159.9L383.8,160.1L383.1,160.6L382.0,160.9L381.6,160.9L381.3,160.8L380.7,160.2L380.2,159.6L380.1,159.3L380.3,159.2L381.2,159.1L381.8,159.0L381.9,158.9L382.0,157.1L382.0,155.4L381.8,155.1L381.6,155.0L381.6,154.9L381.9,154.6L382.4,154.4L382.5,154.3L383.0,153.8L384.0,152.7L384.8,152.4L385.5,152.1L385.6,152.0L385.7,151.8L386.0,151.8L386.1,151.9L386.3,152.2L386.5,152.5L387.0,152.9L387.5,153.3L387.8,153.3L388.2,153.1L388.7,152.8L389.4,152.6L389.5,152.4L389.6,151.9L389.7,151.4L389.7,150.9L389.9,150.8L390.1,150.7L390.6,150.9L390.8,151.1L391.2,151.1L391.4,150.9L391.9,150.6L392.4,150.5L393.0,150.2L393.6,149.9L393.9,149.9L394.2,150.3L394.4,150.6L394.5,150.8L394.2,151.2L393.9,151.7L394.2,152.3L394.2,152.9L394.2,153.3L394.4,153.4L394.5,153.5L394.8,153.4L395.1,153.5L395.6,153.6L396.1,153.6L396.6,153.4L397.4,152.5L398.7,150.9L399.7,149.9L400.6,149.5L401.1,149.0L401.4,148.5L401.9,148.1L402.9,147.8L403.6,147.5L404.4,146.4L405.4,144.5L405.7,142.7L405.8,141.7L405.7,138.0L405.7,136.8L405.8,136.2L406.2,135.7L407.2,134.8L407.9,134.0L408.5,133.1L409.5,131.0L409.9,130.3L410.1,130.1L410.7,129.5L411.6,129.0L412.7,128.6L414.4,127.1L415.7,125.7L415.6,123.9L415.9,122.5L416.6,120.6L416.9,118.7L416.6,116.6L416.7,114.9L417.4,113.0L417.7,112.3L417.8,111.1L417.8,109.2L418.7,106.6L419.5,105.0L420.5,103.3L420.8,102.3L421.3,100.9L421.3,99.7L421.2,98.4L421.4,96.7L421.3,95.6L421.0,94.7L421.1,94.1L421.8,93.9L422.7,93.0L424.2,90.6L425.8,89.4L427.0,89.1L428.2,89.1L429.0,89.3L429.3,89.7L430.2,90.3L431.7,91.0L432.7,91.9L433.3,92.9L433.8,93.4L434.4,93.6L435.3,93.5L436.3,93.7L437.5,94.2L438.1,94.4L438.4,94.3L438.9,94.4L440.1,94.8L441.1,94.6L442.5,94.7L445.8,95.5L446.0,95.4L446.1,95.3L446.3,95.0L447.1,93.5L447.7,92.5L447.9,92.2L448.7,91.7L449.5,91.6L450.3,91.6L450.9,91.8L451.5,92.1L452.2,92.1L452.9,91.8L453.9,91.4L455.0,91.1L455.9,90.8L457.4,90.2L458.0,90.0L458.8,89.8L460.9,90.4L462.3,90.0L462.8,90.1L464.0,89.8L464.2,89.5L465.0,88.3L465.8,87.9L467,88.1L467.7,88.3L470.0,88.8L472.9,89.4L473.8,89.4L474.1,89.5L474.4,89.4L475.4,88.7L475.7,88.6L476.0,88.6L477.9,89.2L478.1,89.7L478.5,90.1L479.6,90.9L479.9,91.3L480.2,91.8L480.4,92.2L480.7,92.5L481.2,92.7L481.6,92.9L481.9,93.3L482.2,93.6L483.0,94.1L483.3,94.1L483.7,94.2L484.1,94.3L484.5,94.3L485.1,94.0L485.8,93.4L486.4,93.1L487.8,93.2L488.5,93.5L489.1,93.9L489.6,93.8L490.6,93.2L491.2,92.4L491.7,92.3L492.5,92.6L493.2,93.3L493.8,94.3L494.2,94.6L494.8,95.2L495.9,96.5L497.3,97.1L497.9,97.4L498.1,97.7L498.2,98.2L498.2,98.6L498.4,98.8L498.8,98.7L499.1,98.7L499.5,98.8L499.7,99.1L499.9,99.4L500.0,99.7L500.4,99.8L500.5,100.2L500.2,100.6L499.9,101.0L499.6,101.8L499.5,102.5L499.7,102.8L499.9,103.0L500.0,103.3L500.1,103.5L500.1,103.8L499.6,104.9L499.3,105.9L499.3,106.3L499.9,106.7L500.8,106.7L501.1,106.9L501.3,107.2L501.6,107.4L501.9,107.4L502.2,107.5L502.3,107.8L502.6,108.0L502.8,108.3L502.7,108.7L502.7,109.0L502.1,109.8L500.7,111.3L497.7,114.2L497.7,114.2L496.7,114.5L496.1,115.0L495.8,115.9L494.9,116.6L494.2,116.9L494.2,117.0L494.1,117.8L494.2,118.9L493.9,119.5L493.4,120.5L493.2,121.1L493.0,121.2L492.8,121.5L492.7,122.5L492.6,122.9L492.2,125.0L492.3,125.6L492.1,126.6L492.1,127.2L492.0,127.9L491.8,128.4L491.8,129.4L491.9,130.9L491.9,131.1L491.6,131.2L491.2,131.6L490.8,131.9L490.4,131.9L489.9,132.6L489.4,133.2L489.1,133.8L489.0,134.1L489.1,134.9L489.1,135.9L489.0,136.3L488.9,136.5L488.1,137.1L487.6,137.4L487.4,137.6L487.2,137.9L487.5,138.6L487.5,139.1L487.7,139.4L488.3,139.7L488.3,139.9L488.3,140.2L488.6,140.5L489.2,141.2L489.6,141.8L489.6,142.4L489.5,143.3L489.5,143.8L489.6,144.5L489.6,145.9L489.5,146.9L489.6,147.4L490.3,148.5L490.6,149.9L490.8,150.8L490.8,151.1L490.5,152.3L490.3,153.3L490.3,153.7L490.4,154.3L490.9,155.5L491.2,156.4L491.4,157.0L491.7,157.6L492.0,158.6L492.1,159.1L492.0,159.4L491.3,160.6L491.3,161.0L491.4,162.0L491.6,162.9L492.0,163.4L492.7,164.9L493.3,165.3L494.4,166.1L495.3,166.8L495.7,167.2L496.0,167.6L496.6,168.7L497.0,169.5L497.2,170.3L497.7,171.4L498.2,172.4L498.8,173.7L499.3,174.5Z" fill="#4ECDC4" stroke="#2C3E50" stroke-width="1"/></g><circle cx="400.0" cy="150.0" r="4" fill="#E74C3C" stroke="#fff" stroke-width="2"/><text x="400.0" y="140.0" text-anchor="middle" font-family="sans-serif" font-weight="700" font-size="10" fill="#2D3436">Kinshasa</text></svg>