<svg viewBox="0 0 800 300" xmlns="http://www.w3.org/2000/svg"><defs><clipPath id="v"><rect width="800" height="300"/></clipPath></defs><rect width="800" height="300" fill="#DCEEF8"/><g clip-path="url(#v)"><path d="M2542,447L2545,445L2550,449L2547,456L2539,458L2532,457L2530,450L2536,446ZM2567,434L2558,437L2550,440L2548,435L2555,432L2559,431L2567,427L2567,427L2567,434ZM-2265,427L-2265,427L-2265,427L-2262,426L-2264,433L-2265,434L-2265,434L-2265,427Z" fill="#E0E0E0" stroke="#fff" stroke-width=".4"/><path d="M606,221L608,223L657,250L658,258L677,271L671,288L672,296L680,301L681,304L677,312L678,316L677,323L682,331L687,345L692,348L681,356L667,361L659,361L654,365L644,365L641,367L625,363L615,364L611,346L606,339L604,336L591,333L583,329L574,327L569,324L563,321L556,304L548,296L546,288L547,281L545,269L550,268L555,264L560,257L564,254L564,249L561,246L560,241L564,239L564,231L559,224L564,222L579,222Z" fill="#E0E0E0" stroke="#fff" stroke-width=".4"/><path d="M35,-178L35,-177L34,-174L34,-151L-10,-152L-9,-114L-22,-113L-25,-105L-23,-85L-75,-85L-78,-80L-78,-86L-77,-86L-47,-87L-45,-92L-40,-99L-36,-119L-17,-135L-11,-153L-6,-155L-2,-166L9,-168L14,-166L20,-166L25,-169L33,-170L33,-178Z" fill="#E0E0E0" stroke="#fff" stroke-width=".4"/><path d="M545,269L547,281L546,288L548,296L556,304L563,321L558,320L540,322L537,323L533,332L536,338L533,354L532,368L535,370L545,376L548,373L549,388L539,388L534,380L529,375L518,373L515,365L507,370L497,368L492,362L484,360L477,361L476,356L472,356L466,355L457,357L452,357L448,358L449,342L445,337L443,329L445,320L443,315L443,307L426,307L427,302L421,302L420,304L412,305L408,313L406,316L399,314L394,316L385,317L380,310L377,306L373,298L370,288L330,287L326,289L322,289L316,291L314,286L318,285L318,279L320,276L325,273L329,274L333,269L341,269L342,273L347,275L355,267L362,260L366,256L365,245L371,232L377,225L386,219L388,214L388,209L390,205L389,197L391,185L394,177L398,170L399,162L400,152L405,145L412,141L423,146L432,150L442,152L452,154L456,146L457,145L464,147L479,140L484,143L488,142L490,139L495,138L505,139L514,140L518,138L526,149L532,151L536,149L542,150L550,147L553,152L565,161L564,177L569,179L565,184L560,187L555,194L552,201L551,211L548,216L548,227L544,230L544,238L542,239L540,247L544,253Z" fill="#E0E0E0" stroke="#fff" stroke-width=".4"/><path d="M709,231L701,220L701,171L713,156L716,152L725,151L737,142L754,141L792,101L802,89L808,81L808,74L808,60L808,55L808,54L812,54L818,52L825,51L832,46L837,46L837,50L836,58L836,65L833,70L829,85L823,100L815,117L803,137L792,152L776,170L762,181L742,194L730,205L715,221L712,228Z" fill="#E0E0E0" stroke="#fff" stroke-width=".4"/><path d="M677,271L658,258L657,250L608,223L606,221L606,207L610,202L616,193L621,183L615,168L614,161L607,151L616,143L625,135L632,137L632,144L636,149L646,149L663,160L667,160L670,160L673,162L682,163L686,157L698,151L703,156L713,156L701,171L701,220L709,231L700,237L696,242L691,243L689,253L685,258L682,267Z" fill="#E0E0E0" stroke="#fff" stroke-width=".4"/><path d="M481,98L470,92L466,88L465,84L467,78L467,72L459,64L458,58L458,55L453,51L453,43L450,37L445,38L447,33L450,27L449,22L453,17L450,14L454,6L460,-5L472,-4L471,-59L471,-65L486,-66L486,-94L540,-94L592,-94L646,-94L650,-80L647,-77L649,-63L654,-46L659,-42L666,-37L660,-29L650,-27L646,-22L644,-13L638,7L640,13L638,25L632,38L624,45L618,56L617,61L611,65L607,79L607,92L607,81L605,81L605,74L604,69L597,64L595,54L597,44L590,43L589,46L581,47L585,51L586,59L578,66L572,76L565,78L554,70L548,73L547,76L540,79L540,82L526,82L524,79L515,79L510,81L506,80L499,72L497,68L487,70L484,76L480,88L476,91L472,92Z" fill="#E0E0E0" stroke="#fff" stroke-width=".4"/><path d="M471,-59L472,-4L460,-5L454,6L450,14L453,17L449,22L450,27L447,33L445,38L450,37L453,43L453,51L458,55L458,58L449,60L442,66L433,81L420,87L407,86L403,88L405,92L398,97L392,102L375,108L372,104L370,104L367,108L356,109L358,105L354,96L352,90L346,88L338,80L341,73L347,75L351,74L358,74L351,62L352,52L351,43L345,35L347,28L338,28L338,19L333,14L338,-5L356,-18L356,-36L361,-65L364,-71L359,-76L359,-81L354,-84L350,-107L364,-115L417,-87Z" fill="#E0E0E0" stroke="#fff" stroke-width=".4"/><path d="M-542,153L-550,165L-554,175L-560,180L-566,181L-568,177L-571,177L-575,180L-581,178L-577,172L-576,166L-574,160L-579,152L-580,143L-573,131L-569,133L-559,136L-545,147ZM234,-558L240,-552L260,-548L253,-534L251,-520L247,-517L241,-519L242,-514L232,-502L232,-494L238,-497L243,-488L242,-483L246,-476L241,-470L245,-455L252,-453L251,-445L239,-434L212,-439L193,-433L191,-422L175,-420L160,-428L155,-424L131,-433L125,-440L132,-451L135,-489L121,-509L111,-519L91,-527L89,-542L107,-546L129,-541L125,-564L138,-555L169,-571L173,-589L185,-593L187,-585L193,-585L199,-577L208,-567L215,-568L227,-559L230,-557ZM268,-425L277,-432L279,-416L275,-403L269,-406L266,-418Z" fill="#E0E0E0" stroke="#fff" stroke-width=".4"/><path d="M570,515L562,514L558,515L551,513L546,513L537,506L527,504L523,495L523,490L517,488L502,473L498,464L495,462L490,451L505,452L509,454L514,453L521,444L533,433L538,432L539,427L547,421L557,419L558,425L569,424L575,427L578,431L585,432L592,436L592,454L589,464L589,474L591,479L589,487L587,488L584,499Z" fill="#E0E0E0" stroke="#fff" stroke-width=".4"/><path d="M546,513L527,523L515,534L510,544L506,550L499,551L497,558L495,563L487,566L476,565L469,561L464,559L457,563L454,570L448,574L441,581L431,583L428,577L430,568L422,554L418,552L418,509L431,509L432,458L442,457L462,452L467,458L476,453L480,453L488,449L490,451L495,462L498,464L502,473L517,488L523,490L523,495L527,504L537,506Z" fill="#E0E0E0" stroke="#fff" stroke-width=".4"/><path d="M418,552L418,607L406,615L399,616L390,613L384,612L382,606L377,602L370,609L360,598L355,587L352,572L349,561L344,538L344,521L342,513L337,507L330,495L323,478L320,469L309,455L308,444L315,442L323,439L332,440L340,446L342,445L396,445L405,451L438,453L462,448L473,444L482,445L487,448L488,449L480,453L476,453L467,458L462,452L442,457L432,458L431,509L418,509Z" fill="#E0E0E0" stroke="#fff" stroke-width=".4"/><path d="M-73,24L-79,14L-86,9L-80,6L-73,-4L-70,-11L-65,-15L-59,-14L-52,-17L-45,-17L-38,-13L-29,-10L-21,1L-12,10L-12,19L-9,27L-4,31L-3,36L-4,40L-6,41L-13,40L-14,41L-17,42L-27,38L-33,38L-58,38L-61,39L-66,39L-73,41L-75,30L-63,31L-60,29L-57,29L-52,26L-47,28L-41,29L-35,26L-38,22L-42,24L-46,24L-52,20L-56,21L-59,24Z" fill="#E0E0E0" stroke="#fff" stroke-width=".4"/><path d="M-4,40L-3,36L-4,31L-9,27L-12,19L-12,10L-8,8L-6,-0L-1,-1L8,3L16,0L21,1L23,-2L77,-2L80,-12L77,-14L71,-75L64,-138L85,-138L130,-106L175,-74L179,-68L187,-63L193,-61L193,-52L208,-53L208,-21L201,-12L200,-3L188,-1L169,0L165,5L156,6L147,6L144,3L137,5L124,11L121,15L111,22L109,25L104,28L97,26L93,29L91,39L81,50L81,55L77,61L78,69L73,71L70,72L68,67L64,68L61,68L59,72L49,72L45,70L43,71L39,67L40,63L38,61L35,63L36,58L38,55L33,49L31,45L28,42L26,42L22,44L18,46L14,48L9,47L5,44L3,43L-1,45L-3,45Z" fill="#E0E0E0" stroke="#fff" stroke-width=".4"/><path d="M-78,-80L-75,-85L-23,-85L-25,-105L-22,-113L-9,-114L-10,-152L34,-151L34,-174L85,-138L64,-138L71,-75L77,-14L80,-12L77,-2L23,-2L21,1L16,0L8,3L-1,-1L-6,-0L-8,8L-12,10L-21,1L-29,-10L-38,-13L-45,-17L-52,-17L-59,-14L-65,-15L-70,-11L-71,-18L-67,-25L-66,-39L-67,-53L-69,-60L-68,-67L-71,-74Z" fill="#E0E0E0" stroke="#fff" stroke-width=".4"/><path d="M187,124L176,126L173,117L173,86L171,83L170,76L165,71L161,67L163,60L168,59L170,53L177,51L180,47L184,43L189,43L199,51L199,56L202,64L199,69L201,73L194,81L190,85L187,94L188,103Z" fill="#E0E0E0" stroke="#fff" stroke-width=".4"/><path d="M350,-107L354,-84L359,-81L359,-76L364,-71L361,-65L356,-36L356,-18L338,-5L333,14L338,19L338,28L347,28L345,35L342,35L341,40L339,40L330,25L327,24L316,32L306,28L298,27L295,29L287,29L279,35L272,35L256,28L249,31L242,31L237,26L224,21L210,22L206,25L204,33L200,39L199,51L189,43L184,43L180,47L180,38L165,35L164,28L157,19L155,13L156,6L165,5L169,0L188,-1L200,-3L201,-12L208,-21L208,-53L227,-60L266,-88L312,-116L333,-109L341,-101Z" fill="#E0E0E0" stroke="#fff" stroke-width=".4"/><path d="M187,124L188,103L187,94L190,85L194,81L201,73L199,69L202,64L199,56L199,51L200,39L204,33L206,25L210,22L224,21L237,26L242,31L249,31L256,28L272,35L279,35L287,29L295,29L298,27L306,28L316,32L327,24L330,25L339,40L341,40L347,45L345,48L344,52L333,63L330,71L328,79L325,82L322,91L315,97L313,104L310,109L309,115L299,119L292,114L287,114L279,122L275,122L268,135L265,144L251,149L246,149L241,152L230,151L223,143L218,133L209,124L199,124Z" fill="#E0E0E0" stroke="#fff" stroke-width=".4"/><path d="M345,35L351,43L352,52L351,62L358,74L351,74L347,75L341,73L338,80L346,88L352,90L354,96L358,105L356,109L349,122L346,125L345,135L346,141L345,145L352,152L353,157L358,164L364,168L364,174L366,178L365,185L354,182L343,179L326,178L325,177L317,179L309,177L302,178L280,178L282,167L277,158L271,156L268,150L265,148L265,144L268,135L275,122L279,122L287,114L292,114L299,119L309,115L310,109L313,104L315,97L322,91L325,82L328,79L330,71L333,63L344,52L345,48L347,45L341,40L342,35Z" fill="#E0E0E0" stroke="#fff" stroke-width=".4"/><path d="M163,60L161,67L165,71L170,76L171,83L173,86L173,117L176,126L165,129L162,124L159,116L157,109L160,97L157,92L156,81L156,71L150,64L151,60Z" fill="#E0E0E0" stroke="#fff" stroke-width=".4"/><path d="M151,60L150,64L156,71L156,81L157,92L160,97L157,109L159,116L162,124L165,129L144,137L137,141L125,145L113,141L113,136L107,125L111,109L117,98L113,79L111,68L111,61L135,60L141,61L145,59Z" fill="#E0E0E0" stroke="#fff" stroke-width=".4"/><path d="M43,71L45,70L49,72L59,72L61,68L64,68L68,67L70,72L73,71L78,69L84,72L87,76L93,79L97,76L104,75L113,79L117,98L111,109L107,125L113,136L113,141L106,142L97,139L88,139L73,141L63,145L50,150L47,150L48,139L50,137L49,132L44,126L39,125L35,122L38,116L37,109L38,105L40,105L41,99L39,97L41,95L46,93L42,82L39,77L40,72Z" fill="#E0E0E0" stroke="#fff" stroke-width=".4"/><path d="M-33,38L-27,38L-17,42L-14,41L-13,40L-6,41L-4,40L-3,45L-1,45L3,43L5,44L9,47L14,48L18,46L22,44L26,42L28,42L31,45L33,49L38,55L36,58L35,63L38,61L40,63L39,67L43,71L40,72L39,77L42,82L46,93L41,95L39,97L41,99L40,105L38,105L34,105L31,110L27,110L25,107L26,102L20,94L16,95L14,95L10,96L10,91L8,88L8,84L5,78L2,73L-9,73L-12,76L-16,76L-18,79L-20,83L-27,89L-33,81L-38,75L-41,73L-45,71L-46,65L-48,62L-52,59L-46,53L-42,53L-39,51L-36,51L-34,49L-35,44L-33,43Z" fill="#E0E0E0" stroke="#fff" stroke-width=".4"/><path d="M-73,41L-66,39L-61,39L-58,38L-33,38L-33,43L-35,44L-34,49L-36,51L-39,51L-42,53L-46,53L-52,59L-59,54L-65,53L-68,49L-68,47L-72,44Z" fill="#E0E0E0" stroke="#fff" stroke-width=".4"/><path d="M38,105L37,109L38,116L35,122L39,125L44,126L49,132L50,137L48,139L47,150L44,150L30,144L18,133L6,126L-3,117L1,113L1,109L7,102L14,95L16,95L20,94L26,102L25,107L27,110L31,110L34,105Z" fill="#E0E0E0" stroke="#fff" stroke-width=".4"/><path d="M-27,89L-20,83L-18,79L-16,76L-12,76L-9,73L2,73L5,78L8,84L8,88L10,91L10,96L14,95L7,102L1,109L1,113L-3,117L-6,116L-16,111L-23,104L-25,99Z" fill="#E0E0E0" stroke="#fff" stroke-width=".4"/><path d="M78,69L77,61L81,55L81,50L91,39L93,29L97,26L104,28L109,25L111,22L121,15L124,11L137,5L144,3L147,6L156,6L155,13L157,19L164,28L165,35L180,38L180,47L177,51L170,53L168,59L163,60L151,60L145,59L141,61L135,60L111,61L111,68L113,79L104,75L97,76L93,79L87,76L84,72Z" fill="#E0E0E0" stroke="#fff" stroke-width=".4"/><path d="M399,162L398,170L394,177L391,185L389,197L390,205L388,209L388,214L386,219L377,225L371,232L365,245L366,256L362,260L355,267L347,275L342,273L341,269L333,269L329,274L325,273L320,268L316,270L311,276L300,262L310,255L305,246L310,242L319,241L320,235L327,241L339,242L343,235L345,226L343,216L337,208L343,193L339,190L329,191L325,184L326,178L343,179L354,182L365,185L366,178L373,166L381,159L390,161Z" fill="#E0E0E0" stroke="#fff" stroke-width=".4"/><path d="M302,178L309,177L317,179L325,177L326,178L325,184L329,191L339,190L343,193L337,208L343,216L345,226L343,235L339,242L327,241L320,235L319,241L310,242L305,246L310,255L300,262L286,248L277,237L269,223L269,219L272,215L276,205L278,195L283,194L302,194Z" fill="#E0E0E0" stroke="#fff" stroke-width=".4"/><path d="M280,178L302,178L302,194L283,194L278,195L276,193Z" fill="#E0E0E0" stroke="#fff" stroke-width=".4"/><path d="M563,321L569,324L574,327L583,329L591,333L597,339L600,351L598,354L595,365L598,377L594,382L590,394L597,398L556,409L557,419L547,421L539,427L538,432L533,433L521,444L514,453L509,454L505,452L490,451L488,449L487,448L482,445L473,444L462,448L454,439L445,427L445,383L473,383L472,379L474,373L472,367L473,360L472,356L476,356L477,361L484,360L492,362L497,368L507,370L515,365L518,373L529,375L534,380L539,388L549,388L548,373L545,376L535,370L532,368L533,354L536,338L533,332L537,323L540,322L558,320Z" fill="#E0E0E0" stroke="#fff" stroke-width=".4"/><path d="M591,333L604,336L606,339L611,346L615,364L611,375L615,393L619,392L624,397L630,407L631,425L625,428L621,437L612,429L611,419L614,412L613,407L608,403L604,405L597,398L590,394L594,382L598,377L595,365L598,354L600,351L597,339Z" fill="#E0E0E0" stroke="#fff" stroke-width=".4"/><path d="M615,364L625,363L641,367L644,365L654,365L659,361L667,361L681,356L692,348L694,354L694,368L695,380L696,401L698,408L694,418L689,428L680,436L668,442L653,448L638,464L633,466L623,476L618,480L617,490L623,501L626,509L626,513L628,513L628,527L626,534L629,536L627,542L621,548L610,553L594,561L588,566L589,572L593,573L592,581L581,581L580,575L578,568L577,562L579,546L576,536L570,515L584,499L587,488L589,487L591,479L589,474L589,464L592,454L592,436L585,432L578,431L575,427L569,424L558,425L557,419L556,409L597,398L604,405L608,403L613,407L614,412L611,419L612,429L621,437L625,428L631,425L630,407L624,397L619,392L615,393L611,375Z" fill="#E0E0E0" stroke="#fff" stroke-width=".4"/><path d="M325,273L320,276L318,279L318,285L314,286L311,276L316,270L320,268ZM316,291L322,289L326,289L330,287L370,288L373,298L377,306L380,310L385,317L394,316L399,314L406,316L408,313L412,305L420,304L421,302L427,302L426,307L443,307L443,315L445,320L443,329L445,337L449,342L448,358L452,357L457,357L466,355L472,356L473,360L472,367L474,373L472,379L473,383L445,383L445,427L454,439L462,448L438,453L405,451L396,445L342,445L340,446L332,440L323,439L315,442L308,444L307,436L309,423L314,411L314,405L319,392L322,386L330,377L334,371L335,361L335,353L331,349L327,340L324,332L324,329L329,324L324,311L322,302L315,293Z" fill="#E0E0E0" stroke="#fff" stroke-width=".4"/><path d="M560,241L561,246L564,249L564,254L560,257L555,264L550,268L545,269L544,253L540,247L549,248L553,240Z" fill="#E0E0E0" stroke="#fff" stroke-width=".4"/><path d="M816,377L819,383L823,392L825,409L828,415L827,422L825,426L820,418L818,422L820,432L819,438L815,442L814,454L809,470L802,490L794,517L789,537L783,554L772,558L760,564L753,560L742,555L738,547L737,534L733,523L731,512L734,502L740,499L740,495L746,484L748,475L745,468L742,459L741,446L746,438L747,429L754,429L762,426L767,423L772,423L780,415L791,407L795,400L793,394L799,395L806,386L807,378L811,371Z" fill="#E0E0E0" stroke="#fff" stroke-width=".4"/><path d="M-73,24L-59,24L-56,21L-52,20L-46,24L-42,24L-38,22L-35,26L-41,29L-47,28L-52,26L-57,29L-60,29L-63,31L-75,30Z" fill="#E0E0E0" stroke="#fff" stroke-width=".4"/><path d="M34,-174L35,-177L35,-178L34,-196L56,-207L70,-210L81,-214L86,-222L101,-228L102,-239L110,-241L116,-247L133,-249L136,-256L132,-259L128,-276L127,-286L122,-296L135,-305L149,-308L158,-315L171,-320L193,-323L216,-324L222,-322L235,-328L249,-329L255,-325L264,-326L261,-317L263,-301L260,-288L252,-279L253,-267L264,-257L264,-253L272,-247L278,-219L282,-205L283,-198L281,-185L282,-178L280,-170L281,-161L276,-154L284,-144L284,-137L289,-129L295,-132L306,-125L312,-116L266,-88L227,-60L208,-53L193,-52L193,-61L187,-63L179,-68L175,-74L130,-106L85,-138Z" fill="#E0E0E0" stroke="#fff" stroke-width=".4"/><path d="M843,-127L846,-128L846,-124L857,-126L868,-126L876,-125L885,-135L895,-145L903,-154L906,-149L908,-137L901,-137L900,-127L902,-125L896,-122L896,-116L892,-110L892,-105L889,-101L849,-109L844,-124Z" fill="#E0E0E0" stroke="#fff" stroke-width=".4"/><path d="M833,-135L832,-145L836,-153L839,-155L843,-150L844,-141L841,-133L837,-132Z" fill="#E0E0E0" stroke="#fff" stroke-width=".4"/><path d="M795,-213L798,-207L796,-203L801,-192L791,-191L788,-198L776,-200L786,-215Z" fill="#E0E0E0" stroke="#fff" stroke-width=".4"/><path d="M677,-248L672,-267L701,-284L706,-304L705,-316L712,-320L719,-331L725,-333L741,-331L745,-327L752,-330L761,-310L769,-305L770,-295L764,-289L760,-277L770,-261L786,-253L793,-241L791,-229L795,-229L795,-221L803,-213L795,-213L786,-215L776,-200L751,-201L713,-232L693,-243Z" fill="#E0E0E0" stroke="#fff" stroke-width=".4"/><path d="M892,-105L892,-110L896,-116L896,-122L902,-125L900,-127L901,-137L908,-137L914,-127L921,-122L931,-120L939,-117L945,-109L949,-104L954,-102L954,-99L949,-90L947,-86L941,-81L936,-72L930,-72L927,-69L925,-62L927,-52L925,-50L919,-51L911,-45L909,-38L906,-35L898,-35L893,-32L893,-26L886,-22L879,-24L870,-19L864,-18L859,-28L849,-51L889,-65L898,-94ZM906,-149L903,-154L907,-159L909,-158L908,-151Z" fill="#E0E0E0" stroke="#fff" stroke-width=".4"/><path d="M1196,-302L1183,-288L1168,-285L1147,-289L1141,-282L1146,-268L1150,-257L1161,-249L1150,-240L1150,-229L1137,-213L1128,-198L1114,-182L1099,-183L1084,-167L1093,-160L1094,-149L1102,-141L1104,-129L1075,-129L1066,-119L1056,-123L1052,-133L1042,-144L1017,-142L995,-141L976,-139L981,-157L1001,-164L1000,-171L993,-174L993,-187L980,-194L975,-203L968,-211L990,-203L1004,-206L1012,-204L1015,-207L1024,-206L1041,-212L1042,-225L1049,-234L1059,-234L1061,-239L1071,-241L1076,-239L1081,-244L1081,-253L1086,-263L1095,-267L1089,-277L1102,-277L1106,-283L1105,-289L1112,-296L1111,-304L1107,-311L1115,-318L1130,-322L1145,-324L1152,-327L1160,-329L1170,-321L1174,-308Z" fill="#E0E0E0" stroke="#fff" stroke-width=".4"/><path d="M803,-213L795,-221L795,-229L791,-229L793,-241L786,-253L770,-261L760,-277L764,-289L770,-295L769,-305L761,-310L752,-330L744,-343L747,-348L743,-368L752,-373L754,-367L761,-359L770,-356L775,-357L791,-370L796,-371L800,-366L795,-357L804,-348L807,-349L811,-336L824,-333L833,-325L852,-322L873,-326L875,-330L886,-333L896,-343L905,-342L911,-346L920,-344L935,-335L946,-334L961,-319L971,-318L972,-304L967,-284L963,-272L969,-270L963,-261L968,-248L969,-238L979,-235L980,-225L968,-211L975,-203L980,-194L993,-187L993,-174L1000,-171L1001,-164L981,-157L976,-139L951,-144L936,-147L921,-149L916,-168L909,-170L899,-167L885,-160L869,-165L855,-177L842,-181L833,-196L824,-216L816,-214L808,-219Z" fill="#E0E0E0" stroke="#fff" stroke-width=".4"/><path d="M640,13L638,7L644,-13L646,-22L650,-27L660,-29L666,-37L674,-21L678,-8L685,-1L704,12L711,20L718,28L723,33L729,37L725,40L719,39L715,34L709,26L703,22L700,17L688,12L679,11L676,9L668,12L660,5L655,16Z" fill="#E0E0E0" stroke="#fff" stroke-width=".4"/><path d="M849,-51L859,-28L864,-18L854,-14L851,-8L851,-3L838,2L816,9L804,19L798,20L794,19L786,24L778,27L767,28L763,29L760,32L757,33L755,37L748,36L744,38L735,38L731,30L731,22L729,18L727,8L723,2L725,1L724,-5L726,-8L725,-14L731,-18L730,-24L733,-31L739,-28L742,-29L758,-29L760,-28L773,-26L778,-27L782,-22L788,-25L798,-39L810,-46Z" fill="#E0E0E0" stroke="#fff" stroke-width=".4"/><path d="M620,-204L635,-201L641,-206L644,-212L654,-214L656,-219L661,-222L648,-237L674,-245L677,-248L693,-243L713,-232L751,-201L776,-200L788,-198L791,-191L801,-192L806,-178L813,-175L815,-170L824,-163L825,-157L824,-152L825,-147L829,-143L831,-138L833,-135L837,-132L841,-133L843,-127L844,-124L849,-109L889,-101L892,-105L898,-94L889,-65L849,-51L810,-46L798,-39L788,-25L782,-22L778,-27L773,-26L760,-28L758,-29L742,-29L739,-28L733,-31L730,-24L731,-18L725,-14L723,-20L719,-24L718,-30L711,-35L704,-47L700,-58L691,-68L685,-70L676,-84L675,-94L675,-103L668,-119L661,-125L654,-128L650,-136L650,-139L647,-147L643,-150L637,-162L629,-174L622,-184L616,-184L618,-192L618,-198Z" fill="#E0E0E0" stroke="#fff" stroke-width=".4"/><path d="M122,-296L127,-286L128,-276L132,-259L136,-256L133,-249L116,-247L110,-241L102,-239L101,-228L86,-222L81,-214L70,-210L56,-207L34,-196L35,-178L33,-178L33,-170L25,-169L20,-166L14,-166L9,-168L-2,-166L-6,-155L-11,-153L-17,-135L-36,-119L-40,-99L-45,-92L-47,-87L-77,-86L-78,-86L-77,-93L-72,-97L-67,-104L-68,-109L-64,-119L-56,-129L-52,-131L-48,-140L-48,-148L-43,-157L-34,-162L-25,-178L-25,-178L-18,-184L-6,-185L5,-196L11,-200L23,-213L19,-232L24,-246L26,-254L35,-265L48,-272L58,-279L67,-296L71,-306L81,-306L89,-299L102,-300L116,-296Z" fill="#E0E0E0" stroke="#fff" stroke-width=".4"/><path d="M646,-94L592,-94L540,-94L486,-94L486,-148L486,-202L482,-215L486,-224L484,-231L489,-238L506,-239L519,-234L533,-230L539,-227L549,-232L555,-237L567,-238L576,-236L580,-228L583,-234L594,-230L604,-229L611,-233L618,-210L620,-206L616,-200L613,-188L609,-180L606,-178L602,-183L596,-189L586,-212L585,-210L590,-194L598,-179L609,-155L614,-147L618,-139L630,-122L627,-120L628,-110L643,-97Z" fill="#E0E0E0" stroke="#fff" stroke-width=".4"/><path d="M486,-94L486,-66L471,-65L471,-59L417,-87L364,-115L350,-107L341,-101L333,-109L312,-116L306,-125L295,-132L289,-129L284,-137L284,-144L276,-154L281,-161L280,-170L282,-178L281,-185L283,-198L282,-205L278,-219L285,-222L286,-229L284,-235L294,-241L298,-246L304,-251L305,-263L321,-258L327,-259L338,-256L355,-249L362,-235L374,-232L393,-226L407,-218L414,-222L420,-229L417,-241L421,-249L431,-256L440,-259L458,-255L463,-248L468,-248L472,-245L485,-244L489,-238L484,-231L486,-224L482,-215L486,-202L486,-148Z" fill="#E0E0E0" stroke="#fff" stroke-width=".4"/><path d="M792,101L754,141L737,142L725,151L716,152L713,156L703,156L698,151L686,157L682,163L673,162L670,160L667,160L663,160L646,149L636,149L632,144L632,137L625,135L617,120L611,117L608,111L601,105L593,104L598,96L605,96L607,92L607,79L611,65L617,61L618,56L624,45L632,38L638,25L640,13L655,16L660,5L668,12L676,9L679,11L688,12L700,17L703,22L709,26L715,34L719,39L715,45L710,51L711,55L711,59L719,60L722,59L725,61L722,66L727,73L732,80L737,85L781,101Z" fill="#E0E0E0" stroke="#fff" stroke-width=".4"/><path d="M719,39L725,40L729,37L732,41L732,47L724,50L730,54L725,61L722,59L719,60L711,59L711,55L710,51L715,45Z" fill="#E0E0E0" stroke="#fff" stroke-width=".4"/><path d="M808,54L808,55L808,60L808,74L808,81L802,89L792,101L781,101L737,85L732,80L727,73L722,66L725,61L730,54L734,56L737,62L743,68L750,68L762,64L777,63L789,58L795,57L800,55Z" fill="#E0E0E0" stroke="#fff" stroke-width=".4"/><path d="M606,221L579,222L564,222L559,224L551,228L548,227L548,216L551,211L552,201L555,194L560,187L565,184L569,179L564,177L565,161L570,158L579,161L590,158L599,158L607,151L614,161L615,168L621,183L616,193L610,202L606,207Z" fill="#E0E0E0" stroke="#fff" stroke-width=".4"/><path d="M559,224L564,231L564,239L560,241L553,240L549,248L540,247L542,239L544,238L544,230L548,227L551,228Z" fill="#E0E0E0" stroke="#fff" stroke-width=".4"/><path d="M565,161L553,152L550,147L542,150L536,149L532,151L526,149L518,138L516,134L506,129L503,121L497,115L488,108L488,103L481,98L472,92L476,91L480,88L484,76L487,70L497,68L499,72L506,80L510,81L515,79L524,79L526,82L540,82L540,79L547,76L548,73L554,70L565,78L572,76L578,66L586,59L585,51L581,47L589,46L590,43L597,44L595,54L597,64L604,69L605,74L605,81L607,81L607,92L605,96L598,96L593,104L601,105L608,111L611,117L617,120L625,135L616,143L607,151L599,158L590,158L579,161L570,158Z" fill="#E0E0E0" stroke="#fff" stroke-width=".4"/></g><g clip-path="url(#v)"><path d="M475.0,91.8L475.6,92.0L476.0,92.6L475.4,94.6L475.8,95.8L476.9,96.9L478.0,97.3L479.1,97.6L482.9,98.3L484.5,99.0L486.5,101.3L489.1,103.5L489.8,104.6L489.6,105.6L488.9,106.8L489.0,107.4L490.2,108.6L491.6,109.9L494.0,111.3L498.4,113.5L500.4,115.0L501.0,116.1L502.1,117.3L503.7,118.4L504.7,119.3L504.0,121.8L504.2,122.6L504.6,123.2L505.5,124.2L505.9,125.4L506.7,127.0L507.8,127.7L509.6,127.9L510.6,128.6L512.5,129.9L514.4,130.9L515.2,131.6L515.7,132.3L516.2,133.0L516.4,133.8L516.4,135.4L516.7,137.5L517.8,138.9L518.7,139.9L514.8,138.7L514.2,138.7L513.5,138.9L511.5,140.4L510.9,140.5L510.2,140.4L508.3,140.2L502.2,139.1L497.5,138.0L496.0,137.6L493.5,137.2L491.8,137.9L490.3,140.5L489.8,141.1L487.3,141.8L486.2,141.6L483.3,142.3L478.9,141.2L477.3,141.5L476.1,142.0L472.9,143.2L471.0,143.9L468.8,144.5L466.6,145.4L465.2,145.9L463.8,145.9L462.5,145.4L461.2,144.9L459.5,144.8L457.8,145.1L456.3,146.1L455.7,146.9L454.5,148.9L453.0,152.1L452.4,152.7L452.2,152.8L451.8,153.0L444.9,151.4L442.0,151.1L440.0,151.5L437.4,150.7L436.3,150.5L435.9,150.8L434.5,150.4L432.1,149.3L430.0,148.8L428.0,149.0L426.8,148.6L425.9,147.6L424.6,145.6L422.4,143.7L419.4,142.1L417.5,141.0L416.7,140.2L415.1,139.7L412.6,139.7L410.2,140.4L406.8,142.9L403.6,147.8L401.9,149.7L400.4,150.2L400.1,151.4L400.8,153.3L401.0,155.5L400.5,159.2L400.7,161.9L399.9,161.4L399.2,160.2L398.8,159.9L396.8,160.5L395.7,161.0L395.1,161.5L394.6,161.6L394.0,160.9L393.5,160.7L392.6,160.9L391.8,160.9L391.3,160.8L390.9,160.8L389.9,160.4L386.3,159.4L385.6,159.0L384.9,159.1L383.1,160L382.1,160.3L379.1,160.8L375.9,161.1L374.7,161.1L373.9,161.5L373.3,162.1L372.9,163.3L372.3,165.5L372.0,166.1L372.1,166.9L371.9,168.4L371.8,169.7L371.9,170.5L371.0,172.3L369.9,174.4L369.0,176.3L368.1,178.1L367.5,176.8L367.1,175.4L366.9,173.7L367.0,173.2L366.8,172.7L366.8,172.6L366.4,171.3L366.8,170.5L366.5,169.5L365.7,168.6L365.1,167.9L364.7,167.3L364.3,167.0L363.6,166.9L362.6,166.6L361.3,165.2L360.0,163.9L358.4,162.1L357.0,160.7L355.4,158.9L354.0,157.2L353.0,155.6L352.7,154.6L353.1,154.5L353.8,154.5L354.0,154.3L354.0,153.9L353.4,152.6L353.1,151.0L352.5,150.0L350.8,148.5L349.1,147.3L348.6,146.7L348.3,145.9L347.7,140.5L347.4,139.0L346.9,138.3L346.5,138.0L346.4,137.6L346.4,136.7L346.7,135.8L346.6,135.5L347.1,134.7L347.1,129.7L346.9,129.5L346.6,129.0L346.1,129.1L345.5,129.0L345.0,128.3L344.6,127.4L344.7,126.7L345.2,126.2L345.7,125.7L346.3,125.3L348.2,124.5L348.7,124.1L349.1,123.6L349.3,122.9L350.4,120.4L352.0,117.8L352.7,117.3L353.4,115.6L354.3,113.5L354.7,112.6L355.0,111.6L355.5,110.8L357.3,109.5L358.6,107.3L360.1,107.4L361.6,107.8L363.6,108.0L365.1,107.5L366.0,106.7L368.2,106.0L370.7,105.1L371.1,103.9L371.8,103.3L372.7,102.8L372.9,102.7L373.0,103.1L373.5,104.3L374.6,105.6L376.2,106.9L376.6,106.8L377.6,105.8L380.0,105.2L380.6,104.9L382.4,103.4L384.4,102.4L384.9,102.3L385.7,102.1L387.8,101.1L389.3,101.2L391.7,101.0L395.7,100.6L398.6,100.4L400.0,100.2L400.4,100.0L401.0,98.6L401.4,98.2L402.5,97.6L404.6,95.4L406.0,93.5L406.4,92.9L406.5,92.8L406.8,92.7L407.3,91.9L406.8,91.1L404.4,89.5L404.4,89.3L404.3,89.0L404.4,88.8L405.3,88.1L406.6,87.3L407.9,87.1L411.3,87.1L414.2,86.9L414.9,87.0L417.2,86.6L418.7,86.3L420.3,85.5L423.9,85.6L426.9,83.6L427.8,83.2L428.2,82.9L428.3,82.6L429.7,81.8L431.3,80.1L432.5,78.6L432.9,77.6L436.3,74.0L437.5,74.1L438.1,73.6L439.4,71.3L439.8,70.8L440.5,70.7L441.3,70.4L441.9,69.7L442.5,68.7L442.5,67.4L442.2,66.3L442.2,65.8L442.6,65.4L443.1,64.9L445.7,63.6L446.3,63.0L446.8,62.4L447.5,62.3L448.3,62.4L448.8,62.1L449.3,61.5L451.1,60.7L452.8,60.1L454.6,60.3L456.0,60.6L457.2,61.0L457.7,61.1L458.7,62.8L459.1,63.4L463.0,67.4L463.8,68.4L465.7,71.3L466.9,73.3L468.3,76.1L468.4,77.6L468.2,78.9L467.9,82.7L467.6,83.7L465.9,85.7L465.8,86.6L466.1,87.4L466.7,87.7L467.0,88.1L466.8,89.8L467.4,90.5L468.7,90.9L471.9,91.2L473.6,91.5Z" fill="#4ECDC4" stroke="#2C3E50" stroke-width="1"/></g><circle cx="400.0" cy="150.0" r="4" fill="#E74C3C" stroke="#fff" stroke-width="2"/><text x="400.0" y="140.0" text-anchor="middle" font-family="sans-serif" font-weight="700" font-size="10" fill="#2D3436">Bangui</text></svg>