<svg viewBox="0 0 800 300" xmlns="http://www.w3.org/2000/svg"><defs><clipPath id="v"><rect width="800" height="300"/></clipPath></defs><rect width="800" height="300" fill="#DCEEF8"/><g clip-path="url(#v)"><path d="M2628,335L2632,332L2636,337L2634,344L2626,346L2618,344L2617,338L2622,333ZM2654,321L2645,325L2636,328L2635,322L2642,320L2646,319L2654,314L2654,314L2654,321ZM-2272,314L-2272,314L-2272,314L-2269,314L-2271,321L-2272,321L-2272,321L-2272,314Z" fill="#E0E0E0" stroke="#fff" stroke-width=".4"/><path d="M655,105L657,106L707,134L708,142L727,156L721,173L722,180L731,185L731,189L727,197L728,201L727,208L732,217L738,230L743,233L732,242L717,247L709,247L704,251L694,251L691,253L674,249L664,250L660,231L655,225L653,221L639,218L631,214L623,212L617,210L612,206L604,189L596,181L594,173L595,166L592,153L598,153L603,148L608,140L612,138L612,133L609,130L608,125L612,123L613,115L607,107L612,105L627,106Z" fill="#E0E0E0" stroke="#fff" stroke-width=".4"/><path d="M592,153L595,166L594,173L596,181L604,189L612,206L606,205L588,207L584,209L580,217L583,224L581,240L579,254L583,257L592,262L596,259L597,275L587,274L581,267L576,261L566,259L563,251L554,256L543,254L539,248L530,246L524,247L523,242L518,242L512,241L503,243L497,243L494,244L495,228L490,222L489,214L491,206L488,200L488,192L472,192L473,187L466,187L465,189L457,190L453,198L451,201L444,199L439,201L430,202L425,195L422,191L418,182L414,172L374,172L369,174L365,173L360,175L358,171L361,169L362,163L364,160L369,157L372,158L377,153L384,153L385,157L390,160L399,151L406,144L410,140L409,129L415,115L422,108L431,102L432,97L433,92L435,88L434,80L436,68L439,59L443,52L443,44L445,34L450,27L457,23L469,27L477,32L487,34L497,36L502,28L503,27L510,28L525,22L530,24L535,24L537,21L542,19L552,21L561,21L565,20L574,31L580,33L584,30L590,31L598,28L601,34L613,43L612,59L617,61L613,66L608,70L603,77L600,83L599,94L596,100L596,110L592,114L591,122L589,123L588,130L592,137Z" fill="#E0E0E0" stroke="#fff" stroke-width=".4"/><path d="M760,115L752,103L752,53L764,38L767,34L776,33L788,24L806,23L845,-18L854,-30L861,-38L861,-46L861,-60L861,-65L861,-66L865,-66L871,-68L879,-69L885,-74L890,-74L891,-70L889,-62L889,-55L887,-50L883,-35L876,-19L868,-2L856,18L844,34L828,52L814,64L794,77L781,88L766,104L763,111Z" fill="#E0E0E0" stroke="#fff" stroke-width=".4"/><path d="M727,156L708,142L707,134L657,106L655,105L655,90L659,84L665,75L670,65L664,50L663,43L656,33L665,25L674,16L681,18L681,26L686,31L695,31L713,42L717,42L720,42L723,44L732,45L736,39L749,33L754,38L764,38L752,53L752,103L760,115L750,120L747,126L742,127L740,136L736,142L733,151Z" fill="#E0E0E0" stroke="#fff" stroke-width=".4"/><path d="M527,-21L517,-28L512,-32L511,-36L513,-42L513,-47L505,-56L504,-62L504,-65L499,-69L499,-78L496,-83L491,-82L492,-87L496,-93L494,-99L499,-103L496,-107L500,-115L506,-126L518,-125L517,-182L517,-188L533,-188L533,-217L588,-217L641,-217L695,-217L700,-203L697,-200L699,-185L704,-168L709,-164L717,-159L710,-151L700,-148L695,-144L694,-134L688,-114L689,-108L687,-96L682,-82L673,-75L668,-64L666,-59L660,-55L656,-40L656,-28L656,-39L654,-39L654,-46L652,-51L645,-56L644,-66L645,-76L639,-77L638,-74L630,-74L633,-69L634,-61L627,-53L620,-43L613,-42L601,-50L596,-47L595,-43L588,-41L587,-38L574,-38L572,-41L562,-41L557,-39L553,-40L546,-48L544,-52L534,-50L530,-43L527,-31L522,-28L518,-27Z" fill="#E0E0E0" stroke="#fff" stroke-width=".4"/><path d="M517,-182L518,-125L506,-126L500,-115L496,-107L499,-103L494,-99L496,-93L492,-87L491,-82L496,-83L499,-78L499,-69L504,-65L504,-62L495,-60L488,-54L478,-39L465,-32L452,-33L448,-32L450,-27L443,-22L437,-17L420,-12L416,-15L414,-15L411,-11L400,-10L402,-14L398,-24L396,-29L390,-32L382,-40L385,-46L391,-45L395,-46L403,-46L395,-58L396,-68L395,-77L389,-86L391,-93L382,-93L382,-102L376,-107L382,-126L400,-139L400,-158L406,-187L409,-194L403,-199L403,-203L397,-207L394,-230L408,-238L463,-210Z" fill="#E0E0E0" stroke="#fff" stroke-width=".4"/><path d="M415,500L421,492L427,496L429,503L435,504L444,507L451,506L463,498L463,442L467,444L475,458L474,467L477,473L487,471L493,464L500,460L503,453L510,449L516,451L522,455L533,456L542,452L544,448L546,440L553,439L557,434L562,424L574,412L594,402L599,402L606,404L610,402L618,404L624,425L628,436L625,452L627,458L620,455L616,456L614,461L611,466L611,472L619,480L627,478L630,471L640,471L637,483L635,496L632,503L622,510L620,513L614,521L610,529L602,540L587,557L577,567L567,574L552,580L545,581L544,586L535,583L529,587L514,583L505,585L500,584L486,591L474,594L466,600L459,600L454,594L449,594L443,587L442,589L441,585L441,575L436,564L441,561L440,549L431,534L424,520L424,520ZM587,506L581,501L575,504L568,510L560,520L571,532L576,531L578,526L586,523L588,518L592,510Z" fill="#E0E0E0" stroke="#fff" stroke-width=".4"/><path d="M-516,35L-524,47L-528,57L-533,62L-540,63L-542,60L-545,59L-549,63L-555,60L-552,54L-550,48L-548,42L-553,34L-555,24L-547,13L-543,14L-533,17L-518,29ZM276,-690L282,-684L302,-680L295,-666L293,-651L289,-648L283,-650L284,-645L274,-633L273,-624L280,-627L285,-619L284,-613L288,-606L283,-600L287,-585L294,-583L293,-574L280,-564L253,-569L233,-563L232,-552L216,-549L200,-558L196,-554L170,-562L165,-569L172,-581L175,-619L160,-640L150,-650L129,-658L128,-673L146,-678L169,-672L164,-696L177,-687L209,-704L213,-721L225,-726L227,-718L234,-718L240,-709L250,-699L257,-701L269,-691L272,-689ZM311,-554L319,-562L322,-546L317,-532L311,-535L308,-548Z" fill="#E0E0E0" stroke="#fff" stroke-width=".4"/><path d="M618,404L610,402L606,404L599,402L594,402L585,395L574,393L570,383L570,378L564,377L549,361L545,352L542,350L537,338L552,340L556,341L561,341L569,332L580,320L585,319L587,314L595,308L605,306L606,312L617,311L624,314L627,318L633,319L640,324L640,342L638,352L637,362L639,367L638,375L636,377L632,387Z" fill="#E0E0E0" stroke="#fff" stroke-width=".4"/><path d="M594,402L574,412L562,424L557,434L553,439L546,440L544,448L542,452L533,456L522,455L516,451L510,449L503,453L500,460L493,464L487,471L477,473L474,467L475,458L467,444L463,442L463,398L477,398L477,346L487,345L508,340L514,346L522,340L526,340L534,337L537,338L542,350L545,352L549,361L564,377L570,378L570,383L574,393L585,395Z" fill="#E0E0E0" stroke="#fff" stroke-width=".4"/><path d="M463,442L463,498L451,506L444,507L435,504L429,503L427,496L421,492L415,500L404,488L399,477L396,462L393,451L388,428L388,410L386,402L381,396L374,384L366,366L363,357L352,343L351,332L358,329L366,327L375,327L383,334L385,333L441,332L450,339L483,341L509,335L520,332L529,333L534,336L534,337L526,340L522,340L514,346L508,340L487,345L477,346L477,398L463,398Z" fill="#E0E0E0" stroke="#fff" stroke-width=".4"/><path d="M-38,-96L-43,-107L-50,-112L-44,-115L-38,-125L-34,-132L-30,-137L-23,-136L-16,-139L-9,-139L-2,-135L7,-131L15,-120L24,-111L25,-102L28,-94L33,-90L34,-84L33,-80L31,-79L24,-80L23,-79L20,-79L10,-82L3,-82L-22,-83L-26,-81L-30,-82L-37,-79L-40,-90L-27,-90L-24,-92L-21,-92L-16,-95L-10,-92L-4,-92L1,-95L-1,-99L-6,-97L-10,-97L-15,-100L-20,-100L-23,-97Z" fill="#E0E0E0" stroke="#fff" stroke-width=".4"/><path d="M33,-80L34,-84L33,-90L28,-94L25,-102L24,-111L29,-113L31,-122L36,-122L45,-118L53,-121L58,-120L60,-123L115,-123L118,-133L116,-135L109,-197L103,-261L124,-262L170,-229L216,-197L219,-190L228,-186L234,-183L234,-174L249,-176L249,-142L242,-133L241,-124L229,-122L210,-121L205,-116L196,-115L187,-115L184,-118L176,-116L164,-110L161,-105L150,-99L148,-96L143,-93L136,-95L132,-91L130,-81L119,-70L120,-65L116,-59L117,-51L111,-49L108,-47L106,-53L102,-52L100,-52L97,-48L87,-48L83,-50L81,-49L77,-53L78,-57L76,-59L73,-57L74,-62L76,-65L71,-71L69,-75L66,-78L63,-79L60,-77L56,-75L52,-72L46,-73L42,-76L40,-77L36,-75L34,-75Z" fill="#E0E0E0" stroke="#fff" stroke-width=".4"/><path d="M-43,-202L-40,-207L14,-207L11,-229L15,-236L28,-238L27,-276L72,-275L72,-299L124,-262L103,-261L109,-197L116,-135L118,-133L115,-123L60,-123L58,-120L53,-121L45,-118L36,-122L31,-122L29,-113L24,-111L15,-120L7,-131L-2,-135L-9,-139L-16,-139L-23,-136L-30,-137L-34,-132L-36,-140L-32,-147L-30,-161L-32,-175L-33,-182L-32,-189L-35,-196Z" fill="#E0E0E0" stroke="#fff" stroke-width=".4"/><path d="M228,6L216,7L213,-2L214,-34L211,-37L210,-44L206,-48L201,-53L203,-60L208,-61L211,-68L217,-69L220,-73L225,-77L230,-77L240,-69L240,-64L243,-56L240,-51L242,-47L235,-38L231,-34L228,-25L229,-17Z" fill="#E0E0E0" stroke="#fff" stroke-width=".4"/><path d="M394,-230L397,-207L403,-203L403,-199L409,-194L406,-187L400,-158L400,-139L382,-126L376,-107L382,-102L382,-93L391,-93L389,-86L385,-85L385,-81L382,-80L373,-96L370,-96L359,-88L349,-93L341,-93L337,-91L329,-92L321,-86L314,-85L298,-93L291,-89L284,-90L279,-95L265,-100L251,-98L247,-95L245,-87L241,-82L240,-69L230,-77L225,-77L220,-73L221,-83L205,-86L204,-93L197,-102L195,-108L196,-115L205,-116L210,-121L229,-122L241,-124L242,-133L249,-142L249,-176L269,-182L308,-211L355,-239L377,-233L384,-224Z" fill="#E0E0E0" stroke="#fff" stroke-width=".4"/><path d="M228,6L229,-17L228,-25L231,-34L235,-38L242,-47L240,-51L243,-56L240,-64L240,-69L241,-82L245,-87L247,-95L251,-98L265,-100L279,-95L284,-90L291,-89L298,-93L314,-85L321,-86L329,-92L337,-91L341,-93L349,-93L359,-88L370,-96L373,-96L382,-80L385,-81L390,-75L389,-73L388,-68L377,-57L373,-48L371,-41L368,-38L365,-28L358,-23L356,-16L353,-10L352,-4L342,0L335,-5L329,-5L321,3L317,3L311,16L307,26L293,31L288,30L283,33L272,33L264,25L260,15L250,6L240,6Z" fill="#E0E0E0" stroke="#fff" stroke-width=".4"/><path d="M389,-86L395,-77L396,-68L395,-58L403,-46L395,-46L391,-45L385,-46L382,-40L390,-32L396,-29L398,-24L402,-14L400,-10L393,4L390,6L389,17L390,23L389,27L396,34L397,39L402,46L408,50L409,57L410,60L409,68L398,65L387,61L370,60L368,60L360,62L352,60L345,61L323,60L325,49L320,40L313,38L311,32L307,30L307,26L311,16L317,3L321,3L329,-5L335,-5L342,0L352,-4L353,-10L356,-16L358,-23L365,-28L368,-38L371,-41L373,-48L377,-57L388,-68L389,-73L390,-75L385,-81L385,-85Z" fill="#E0E0E0" stroke="#fff" stroke-width=".4"/><path d="M203,-60L201,-53L206,-48L210,-44L211,-37L214,-34L213,-2L216,7L205,10L202,5L199,-3L198,-10L201,-23L197,-28L196,-39L196,-49L190,-56L191,-60Z" fill="#E0E0E0" stroke="#fff" stroke-width=".4"/><path d="M191,-60L190,-56L196,-49L196,-39L197,-28L201,-23L198,-10L199,-3L202,5L205,10L184,18L176,23L164,27L152,23L152,18L147,6L150,-10L156,-21L152,-41L150,-52L151,-59L174,-60L180,-59L185,-61Z" fill="#E0E0E0" stroke="#fff" stroke-width=".4"/><path d="M81,-49L83,-50L87,-48L97,-48L100,-52L102,-52L106,-53L108,-47L111,-49L117,-51L123,-48L126,-44L132,-41L136,-44L143,-45L152,-41L156,-21L150,-10L147,6L152,18L152,23L146,23L136,21L127,21L111,23L102,27L88,32L85,32L86,20L88,19L87,13L82,8L77,7L73,3L76,-3L75,-10L75,-14L78,-14L78,-20L77,-23L79,-25L84,-26L80,-37L77,-43L78,-48Z" fill="#E0E0E0" stroke="#fff" stroke-width=".4"/><path d="M3,-82L10,-82L20,-79L23,-79L24,-80L31,-79L33,-80L34,-75L36,-75L40,-77L42,-76L46,-73L52,-72L56,-75L60,-77L63,-79L66,-78L69,-75L71,-71L76,-65L74,-62L73,-57L76,-59L78,-57L77,-53L81,-49L78,-48L77,-43L80,-37L84,-26L79,-25L77,-23L78,-20L78,-14L75,-14L72,-14L69,-9L65,-9L62,-12L63,-17L57,-26L54,-24L51,-24L47,-23L47,-28L45,-32L46,-36L43,-42L39,-47L28,-47L25,-44L21,-44L19,-41L17,-37L10,-31L4,-39L-2,-44L-5,-46L-9,-49L-10,-55L-12,-58L-16,-61L-10,-67L-6,-67L-2,-69L1,-69L3,-71L2,-76L3,-77Z" fill="#E0E0E0" stroke="#fff" stroke-width=".4"/><path d="M-37,-79L-30,-82L-26,-81L-22,-83L3,-82L3,-77L2,-76L3,-71L1,-69L-2,-69L-6,-67L-10,-67L-16,-61L-23,-66L-29,-67L-32,-71L-32,-73L-36,-76Z" fill="#E0E0E0" stroke="#fff" stroke-width=".4"/><path d="M75,-14L75,-10L76,-3L73,3L77,7L82,8L87,13L88,19L86,20L85,32L82,32L68,25L55,15L44,7L34,-2L38,-6L38,-10L45,-17L51,-24L54,-24L57,-26L63,-17L62,-12L65,-9L69,-9L72,-14Z" fill="#E0E0E0" stroke="#fff" stroke-width=".4"/><path d="M10,-31L17,-37L19,-41L21,-44L25,-44L28,-47L39,-47L43,-42L46,-36L45,-32L47,-28L47,-23L51,-24L45,-17L38,-10L38,-6L34,-2L31,-3L21,-8L14,-16L11,-21Z" fill="#E0E0E0" stroke="#fff" stroke-width=".4"/><path d="M117,-51L116,-59L120,-65L119,-70L130,-81L132,-91L136,-95L143,-93L148,-96L150,-99L161,-105L164,-110L176,-116L184,-118L187,-115L196,-115L195,-108L197,-102L204,-93L205,-86L221,-83L220,-73L217,-69L211,-68L208,-61L203,-60L191,-60L185,-61L180,-59L174,-60L151,-59L150,-52L152,-41L143,-45L136,-44L132,-41L126,-44L123,-48Z" fill="#E0E0E0" stroke="#fff" stroke-width=".4"/><path d="M565,20L561,21L552,21L542,19L537,21L535,24L530,24L525,22L510,28L503,27L502,28L497,36L487,34L477,32L469,27L457,23L450,27L445,34L443,44L435,43L425,40L417,48L410,60L409,57L408,50L402,46L397,39L396,34L389,27L390,23L389,17L390,6L393,4L400,-10L411,-11L414,-15L416,-15L420,-12L437,-17L443,-22L450,-27L448,-32L452,-33L465,-32L478,-39L488,-54L495,-60L504,-62L505,-56L513,-47L513,-42L511,-36L512,-32L517,-28L527,-21L535,-16L535,-11L544,-4L550,2L553,10L563,15Z" fill="#E0E0E0" stroke="#fff" stroke-width=".4"/><path d="M345,61L352,60L360,62L368,60L370,60L369,66L373,74L383,72L386,75L380,91L387,99L388,110L387,119L382,125L370,125L363,118L362,124L353,126L348,129L353,138L343,146L329,132L320,121L311,107L312,102L315,98L318,88L321,78L325,77L345,77Z" fill="#E0E0E0" stroke="#fff" stroke-width=".4"/><path d="M323,60L345,61L345,77L325,77L321,78L318,76Z" fill="#E0E0E0" stroke="#fff" stroke-width=".4"/><path d="M612,206L617,210L623,212L631,214L639,218L646,225L649,236L647,240L644,251L647,263L642,268L638,281L645,285L604,296L605,306L595,308L587,314L585,319L580,320L569,332L561,341L556,341L552,340L537,338L534,337L534,336L529,333L520,332L509,335L500,326L490,314L491,270L520,270L518,265L520,260L518,253L520,246L518,242L523,242L524,247L530,246L539,248L543,254L554,256L563,251L566,259L576,261L581,267L587,274L597,275L596,259L592,262L583,257L579,254L581,240L583,224L580,217L584,209L588,207L606,205Z" fill="#E0E0E0" stroke="#fff" stroke-width=".4"/><path d="M639,218L653,221L655,225L660,231L664,250L660,261L664,279L669,279L674,283L679,294L680,312L674,315L670,325L661,316L660,306L663,299L662,294L657,290L653,291L645,285L638,281L642,268L647,263L644,251L647,240L649,236L646,225Z" fill="#E0E0E0" stroke="#fff" stroke-width=".4"/><path d="M664,250L674,249L691,253L694,251L704,251L709,247L717,247L732,242L743,233L745,240L744,254L746,266L746,288L749,295L745,305L739,315L731,324L718,329L703,336L687,351L682,354L673,364L667,368L666,378L672,389L675,398L675,402L678,402L677,416L675,423L678,426L676,432L670,437L659,442L643,450L637,456L638,462L641,463L640,471L630,471L629,465L627,458L625,452L628,436L624,425L618,404L632,387L636,377L638,375L639,367L637,362L638,352L640,342L640,324L633,319L627,318L624,314L617,311L606,312L605,306L604,296L645,285L653,291L657,290L662,294L663,299L660,306L661,316L670,325L674,315L680,312L679,294L674,283L669,279L664,279L660,261Z" fill="#E0E0E0" stroke="#fff" stroke-width=".4"/><path d="M630,471L627,478L619,480L611,472L611,466L614,461L616,456L620,455L627,458L629,465Z" fill="#E0E0E0" stroke="#fff" stroke-width=".4"/><path d="M369,157L364,160L362,163L361,169L358,171L354,161L359,155L364,152ZM360,175L365,173L369,174L374,172L414,172L418,182L422,191L425,195L430,202L439,201L444,199L451,201L453,198L457,190L465,189L466,187L473,187L472,192L488,192L488,200L491,206L489,214L490,222L495,228L494,244L497,243L503,243L512,241L518,242L520,246L518,253L520,260L518,265L520,270L491,270L490,314L500,326L509,335L483,341L450,339L441,332L385,333L383,334L375,327L366,327L358,329L351,332L350,323L352,310L357,297L358,291L362,279L365,273L373,264L377,257L379,247L378,239L374,234L370,226L367,217L368,215L372,209L368,196L365,187L358,178Z" fill="#E0E0E0" stroke="#fff" stroke-width=".4"/><path d="M608,125L609,130L612,133L612,138L608,140L603,148L598,153L592,153L592,137L588,130L596,131L601,124Z" fill="#E0E0E0" stroke="#fff" stroke-width=".4"/><path d="M869,264L872,269L876,279L878,296L882,302L880,309L878,313L873,305L871,309L873,320L872,326L868,329L867,341L862,358L855,378L847,406L842,427L835,444L824,448L812,454L804,450L794,445L790,437L789,424L784,412L783,401L785,390L792,388L792,383L798,372L799,363L796,356L794,347L792,334L797,325L799,316L806,316L814,313L819,310L825,310L832,302L844,293L848,286L846,280L852,282L859,272L860,264L864,257Z" fill="#E0E0E0" stroke="#fff" stroke-width=".4"/><path d="M-38,-96L-23,-97L-20,-100L-15,-100L-10,-97L-6,-97L-1,-99L1,-95L-4,-92L-10,-92L-16,-95L-21,-92L-24,-92L-27,-90L-40,-90Z" fill="#E0E0E0" stroke="#fff" stroke-width=".4"/><path d="M72,-299L72,-301L72,-303L72,-321L94,-333L108,-335L119,-339L124,-347L140,-353L141,-365L149,-367L155,-373L173,-375L176,-382L172,-385L167,-402L166,-412L161,-423L174,-432L189,-435L198,-442L211,-447L234,-450L257,-452L264,-449L277,-456L291,-456L297,-452L306,-453L303,-444L306,-428L302,-415L294,-405L295,-393L306,-383L306,-379L315,-373L321,-344L325,-330L326,-323L323,-310L324,-303L323,-295L324,-285L318,-279L327,-267L327,-261L332,-253L338,-255L349,-248L355,-239L308,-211L269,-182L249,-176L234,-174L234,-183L228,-186L219,-190L216,-197L170,-229L124,-262Z" fill="#E0E0E0" stroke="#fff" stroke-width=".4"/><path d="M946,-228L947,-234L951,-240L951,-246L957,-249L954,-251L956,-261L963,-261L969,-251L976,-245L986,-243L995,-240L1001,-232L1004,-227L1009,-225L1009,-222L1004,-213L1002,-209L996,-204L991,-194L985,-195L982,-191L980,-184L982,-174L980,-173L974,-173L966,-167L964,-160L961,-157L953,-157L947,-154L947,-148L941,-144L933,-145L924,-140L918,-140L913,-150L902,-173L943,-188L953,-217ZM961,-273L958,-278L962,-283L964,-282L963,-276Z" fill="#E0E0E0" stroke="#fff" stroke-width=".4"/><path d="M689,-108L688,-114L694,-134L695,-144L700,-148L710,-151L717,-159L724,-142L728,-129L736,-122L754,-109L762,-101L769,-93L774,-88L780,-84L776,-80L770,-81L766,-86L760,-94L754,-99L751,-104L739,-109L729,-109L726,-112L718,-109L710,-116L705,-105Z" fill="#E0E0E0" stroke="#fff" stroke-width=".4"/><path d="M902,-173L913,-150L918,-140L908,-136L905,-129L905,-125L891,-119L869,-112L857,-102L851,-101L847,-102L839,-96L830,-94L819,-93L815,-92L812,-88L809,-87L807,-84L800,-84L795,-82L786,-83L782,-91L783,-99L780,-103L778,-113L774,-119L777,-120L775,-126L777,-129L776,-135L782,-140L781,-146L785,-153L790,-149L794,-150L810,-151L812,-149L825,-148L831,-149L834,-144L840,-146L850,-161L863,-168Z" fill="#E0E0E0" stroke="#fff" stroke-width=".4"/><path d="M669,-329L684,-327L690,-331L694,-337L704,-339L706,-344L711,-347L697,-363L725,-371L727,-374L744,-369L764,-358L803,-326L828,-325L840,-323L844,-316L853,-316L859,-303L866,-300L868,-294L877,-288L878,-281L877,-276L878,-271L882,-267L884,-262L886,-258L890,-255L894,-256L897,-251L897,-247L902,-232L944,-225L946,-228L953,-217L943,-188L902,-173L863,-168L850,-161L840,-146L834,-144L831,-149L825,-148L812,-149L810,-151L794,-150L790,-149L785,-153L781,-146L782,-140L776,-135L774,-141L770,-146L769,-151L762,-157L755,-169L751,-180L742,-190L736,-193L726,-207L725,-217L725,-226L718,-242L711,-248L704,-251L699,-260L700,-263L696,-271L692,-274L687,-286L679,-298L672,-309L665,-309L667,-317L668,-323Z" fill="#E0E0E0" stroke="#fff" stroke-width=".4"/><path d="M533,-217L533,-188L517,-188L517,-182L463,-210L408,-238L394,-230L384,-224L377,-233L355,-239L349,-248L338,-255L332,-253L327,-261L327,-267L318,-279L324,-285L323,-295L324,-303L323,-310L326,-323L325,-330L321,-344L327,-348L329,-354L327,-361L336,-367L341,-372L347,-377L348,-390L364,-384L370,-385L381,-383L400,-375L406,-361L418,-358L437,-351L452,-343L459,-347L465,-355L462,-367L466,-375L476,-383L486,-385L504,-381L509,-374L514,-374L518,-371L532,-369L535,-364L530,-356L532,-350L529,-340L533,-327L533,-272Z" fill="#E0E0E0" stroke="#fff" stroke-width=".4"/><path d="M845,-18L806,23L788,24L776,33L767,34L764,38L754,38L749,33L736,39L732,45L723,44L720,42L717,42L713,42L695,31L686,31L681,26L681,18L674,16L666,1L660,-2L657,-8L650,-14L642,-15L647,-23L654,-24L656,-28L656,-40L660,-55L666,-59L668,-64L673,-75L682,-82L687,-96L689,-108L705,-105L710,-116L718,-109L726,-112L729,-109L739,-109L751,-104L754,-99L760,-94L766,-86L770,-81L766,-75L761,-69L762,-65L762,-61L770,-60L773,-61L776,-59L773,-54L778,-46L783,-40L789,-35L833,-18Z" fill="#E0E0E0" stroke="#fff" stroke-width=".4"/><path d="M770,-81L776,-80L780,-84L784,-79L783,-74L775,-70L781,-66L776,-59L773,-61L770,-60L762,-61L762,-65L761,-69L766,-75Z" fill="#E0E0E0" stroke="#fff" stroke-width=".4"/><path d="M861,-66L861,-65L861,-60L861,-46L861,-38L854,-30L845,-18L833,-18L789,-35L783,-40L778,-46L773,-54L776,-59L781,-66L786,-64L788,-58L795,-52L801,-52L814,-56L829,-57L841,-62L848,-63L853,-65Z" fill="#E0E0E0" stroke="#fff" stroke-width=".4"/><path d="M655,105L627,106L612,105L607,107L599,111L596,110L596,100L599,94L600,83L603,77L608,70L613,66L617,61L612,59L613,43L618,40L627,43L638,40L648,40L656,33L663,43L664,50L670,65L665,75L659,84L655,90Z" fill="#E0E0E0" stroke="#fff" stroke-width=".4"/><path d="M607,107L613,115L612,123L608,125L601,124L596,131L588,130L589,123L591,122L592,114L596,110L599,111Z" fill="#E0E0E0" stroke="#fff" stroke-width=".4"/><path d="M613,43L601,34L598,28L590,31L584,30L580,33L574,31L565,20L563,15L553,10L550,2L544,-4L535,-11L535,-16L527,-21L518,-27L522,-28L527,-31L530,-43L534,-50L544,-52L546,-48L553,-40L557,-39L562,-41L572,-41L574,-38L587,-38L588,-41L595,-43L596,-47L601,-50L613,-42L620,-43L627,-53L634,-61L633,-69L630,-74L638,-74L639,-77L645,-76L644,-66L645,-56L652,-51L654,-46L654,-39L656,-39L656,-28L654,-24L647,-23L642,-15L650,-14L657,-8L660,-2L666,1L674,16L665,25L656,33L648,40L638,40L627,43L618,40Z" fill="#E0E0E0" stroke="#fff" stroke-width=".4"/></g><g clip-path="url(#v)"><path d="M343.2,145.1L344.0,143.0L344.6,142.0L345.4,141.4L348.3,139.7L348.8,139.8L350.8,141.9L351.5,142.1L352.2,142.0L353.1,142.1L353.5,141.7L353.6,141.2L352.9,140.5L352.8,139.9L353.3,139.1L353.5,138.4L354.1,137.4L354.2,137.0L353.6,136.5L352.2,135.7L351.2,135.0L350.8,134.3L351.1,133.5L351.9,132.7L351.8,132.4L351.2,131.7L350.7,131.0L350.2,130.6L348.8,130.3L349.1,129.4L349.6,128.1L349.7,127.0L349.3,124.3L349.4,123.8L349.7,123.6L350.5,123.9L351.4,124.3L353.7,123.7L354.4,123.6L355.1,124.1L356.0,124.5L361.2,123.4L361.3,122.3L361.6,121.2L361.7,120.4L361.4,119.9L361.2,119.5L361.0,118.8L361.0,117.9L361.5,117.5L363.2,116.5L363.7,116.6L364.9,117.1L366.0,118.0L367.0,119.8L367.6,121.3L368.7,123.2L371.0,123.9L373.7,124.4L375.2,124.3L377.2,122.7L378.5,121.4L378.8,120.8L379.5,121.1L380.3,122.8L380.8,123.4L380.9,124.0L380.6,124.8L380.9,125.3L382.4,125.6L383.7,125.3L384.2,124.6L385.2,123.7L385.2,123.0L384.7,122.5L384.7,121.9L385.2,121.4L385.8,119.9L385.9,118.9L386.4,118.3L387.4,117.8L387.7,117.4L388.3,114.9L388.0,114.1L388.0,113.3L388.6,112.4L388.7,110.8L388.5,108.4L388.3,106.6L388.1,104.8L388.6,102.5L389.1,100.0L389.0,99.4L388.3,98.6L387.4,97.9L385.3,97.4L384.5,96.5L383.9,95.5L383.5,95.2L381.1,94.8L380.5,94.3L380.8,92.8L381.0,90.5L380.9,88.9L381.3,87.6L381.8,86.7L382.8,85.7L383.4,84.5L383.7,84.2L385.7,84.0L386.4,83.5L386.9,83.0L387.1,82.3L387.8,81.2L388.4,80.4L388.5,79.9L388.4,79.2L387.8,77.8L387.0,76.6L386.7,76.2L385.8,73.4L385.0,72.8L383.4,72.4L380.4,72.1L378.7,72.6L376.0,73.5L373.9,74.2L372.6,74.5L371.8,74.4L371.4,74.0L371.9,73.6L372.2,72.8L371.8,71.6L371.3,70.5L371.0,69.0L371.1,67.0L371.7,65.2L372.8,62.9L372.8,61.9L376.1,62.0L379.4,62.0L383.0,62.0L386.4,62.0L389.1,62.0L390.4,61.4L391.6,62.3L392.2,62.5L392.5,62.5L392.9,63.1L394.4,63.0L394.7,63.2L394.8,64.0L396.3,63.9L397.0,64.1L397.5,64.1L398.4,63.7L399.0,63.8L400.1,64.4L400.8,64.9L401.9,64.7L404.4,64.8L406.3,65.3L408.2,66.7L409.5,67.4L410.6,68.6L411.1,68.4L411.5,68.1L411.7,67.9L411.7,66.9L411.0,65.3L410.8,63.9L410.9,62.7L411.4,61.9L412.3,61.3L412.4,60.5L412.4,60.5L413.3,58.6L414.2,56.7L415.3,54.5L416.3,52.8L416.2,51.9L416.2,50.5L416.4,49.1L416.4,48.2L416.7,47.6L417.3,45.4L417.6,44.1L418.2,43.5L419.1,43.1L420.3,43.1L423.6,42.8L426.6,42.3L427.6,42.0L429.5,41.1L430.3,41.0L430.9,41.4L434.6,42.4L435.6,42.9L436.0,42.8L436.5,42.9L437.3,42.9L438.2,42.8L438.7,42.9L439.4,43.6L439.9,43.5L440.4,43.0L441.6,42.5L443.7,41.9L444.0,42.2L444.8,43.4L445.6,43.9L445.7,46.3L444.7,49.3L443.9,51.5L441.9,55.2L440.1,58.5L438.2,64.0L438.2,68.0L438.0,70.5L437.4,72.1L435.9,76.2L435.7,79.8L436.2,84.2L435.7,88.3L434.1,92.2L433.5,95.3L433.8,99.0L430.9,102.1L427.3,105.2L425.0,106.1L423.2,107.1L421.9,108.3L421.5,108.9L420.5,110.3L418.4,114.8L417.2,116.7L415.8,118.4L413.6,120.4L412.8,121.3L412.5,122.7L412.6,125.3L412.8,133.0L412.5,135.2L411.9,139.0L409.7,143.1L408.1,145.4L406.5,146.1L404.4,146.7L403.4,147.5L402.8,148.6L401.6,149.7L399.8,150.5L397.6,152.6L395.0,156.0L393.2,157.9L392.2,158.4L391.1,158.4L390.1,158.0L389.3,158.0L388.8,158.2L388.5,158.0L388.1,157.7L388.1,156.9L388.0,155.6L387.5,154.3L388.1,153.3L388.6,152.5L388.5,152.0L388.0,151.4L387.4,150.4L386.8,150.5L385.6,151.2L384.3,151.8L383.1,152.0L382.2,152.6L381.7,153.0L380.9,153.0L380.4,152.6L379.5,152.2L378.9,152.4L378.6,152.5L378.5,153.7L378.4,154.8L378.2,155.7L377.8,156.2L376.4,156.7L375.3,157.3L374.5,157.8L373.9,157.7L372.9,156.8L371.8,156.0L371.2,155.3L370.9,154.8L370.7,154.6L370.0,154.6L369.8,155.0L369.5,154.8L368.4,153.9L367.2,152.4L366.7,152.2L366.1,152.2L365.0,152.7L363.9,153.6L362.0,154.4L360.4,154.8L360.3,155.3L359.9,156.2L359.3,156.8L357.9,157.0L357.4,157.8L356.2,159.4L355.4,160.1L355.2,159.8L354.7,159.4L353.7,158.2L352.7,156.7L352.4,156.0L352.1,155.6L352.1,154.0L350.6,152.3L346.8,149.0L346.4,148.1Z" fill="#4ECDC4" stroke="#2C3E50" stroke-width="1"/></g><circle cx="400.0" cy="150.0" r="4" fill="#E74C3C" stroke="#fff" stroke-width="2"/><text x="400.0" y="140.0" text-anchor="middle" font-family="sans-serif" font-weight="700" font-size="10" fill="#2D3436">Brazzaville</text></svg>