<svg viewBox="0 0 800 300" xmlns="http://www.w3.org/2000/svg"><defs><clipPath id="v"><rect width="800" height="300"/></clipPath></defs><rect width="800" height="300" fill="#DCEEF8"/><g clip-path="url(#v)"><path d="M-1965,2116L-1988,2153L-2000,2182L-2016,2197L-2035,2200L-2040,2189L-2049,2187L-2062,2198L-2079,2190L-2069,2173L-2065,2155L-2058,2137L-2074,2114L-2077,2086L-2057,2052L-2043,2056L-2013,2066L-1971,2100ZM349,-1L368,15L426,26L406,68L401,110L390,121L371,115L373,130L344,163L343,189L362,180L376,206L374,222L386,243L372,261L382,304L404,311L399,335L363,366L284,352L226,369L221,402L175,409L130,385L115,396L42,372L26,350L47,317L54,204L13,143L-17,113L-78,91L-82,47L-30,33L37,49L25,-20L62,6L155,-42L168,-94L203,-106L208,-84L227,-83L245,-58L273,-28L294,-33L329,-5L338,0ZM452,394L478,373L484,420L471,461L453,450L444,414Z" fill="#E0E0E0" stroke="#fff" stroke-width=".4"/><path d="M1374,-168L1389,-165L1399,-180L1411,-177L1452,-183L1478,-146L1468,-133L1471,-113L1503,-110L1517,-83L1516,-70L1567,-48L1598,-58L1623,-29L1646,-30L1705,-9L1705,9L1689,41L1698,74L1692,94L1653,98L1632,115L1631,141L1599,146L1572,165L1535,168L1501,189L1503,220L1497,219L1491,207L1479,205L1450,193L1439,207L1434,201L1372,186L1369,164L1332,171L1317,203L1286,246L1268,236L1249,245L1231,235L1241,228L1249,209L1259,190L1257,180L1265,175L1269,183L1292,185L1303,181L1296,175L1298,166L1284,151L1279,127L1264,117L1267,97L1249,81L1232,79L1203,60L1176,66L1167,75L1150,75L1140,89L1110,94L1097,104L1078,89L1053,89L1028,82L1010,95L1008,79L985,62L993,38L1004,22L1013,26L1003,-2L1039,-53L1059,-61L1063,-78L1043,-134L1062,-136L1084,-154L1115,-156L1156,-150L1200,-135L1232,-134L1247,-124L1262,-136L1272,-120L1308,-124L1324,-117L1327,-150L1339,-164Z" fill="#E0E0E0" stroke="#fff" stroke-width=".4"/><path d="M1041,-288L1043,-258L1054,-233L1054,-207L1030,-193L1042,-163L1043,-134L1063,-78L1059,-61L1039,-53L1003,-2L1013,26L1004,22L966,-1L938,7L919,1L895,14L875,-8L858,1L856,-3L838,-33L808,-37L804,-57L777,-64L771,-48L749,-60L752,-78L722,-83L703,-104L686,-145L689,-167L680,-202L665,-226L676,-244L667,-278L694,-298L757,-329L807,-353L847,-341L850,-324L889,-323L938,-316L1011,-317L1032,-309Z" fill="#E0E0E0" stroke="#fff" stroke-width=".4"/><path d="M781,80L778,105L756,105L763,118L750,156L742,166L707,167L687,180L654,176L597,161L588,140L549,150L544,162L520,153L499,152L481,141L487,127L486,116L498,113L518,129L524,114L559,116L588,106L607,107L619,119L623,109L617,71L632,63L646,35L676,54L698,30L712,25L743,44L762,41L780,52L777,60Z" fill="#E0E0E0" stroke="#fff" stroke-width=".4"/><path d="M985,62L1008,79L1010,95L986,107L967,147L943,187L911,198L886,195L855,210L840,219L807,208L777,183L765,176L757,156L750,156L763,118L756,105L778,105L781,80L802,96L816,102L850,95L853,83L869,81L889,72L893,76L912,68L921,54L934,50L977,69Z" fill="#E0E0E0" stroke="#fff" stroke-width=".4"/><path d="M1231,235L1249,245L1268,236L1286,246L1287,260L1268,272L1256,267L1244,335L1221,329L1192,309L1145,322L1125,336L1066,333L1035,324L1020,328L1008,305L1001,295L1010,286L1000,279L988,292L965,275L961,252L937,239L933,220L911,198L943,187L967,147L986,107L1010,95L1028,82L1053,89L1078,89L1097,104L1110,94L1140,89L1150,75L1167,75L1179,80L1191,98L1204,123L1227,158L1229,184L1224,208Z" fill="#E0E0E0" stroke="#fff" stroke-width=".4"/><path d="M667,-278L676,-244L665,-226L680,-202L689,-167L686,-145L703,-104L685,-97L674,-104L664,-92L635,-80L621,-64L592,-51L599,-32L603,-6L623,9L646,35L632,63L617,71L623,109L619,119L607,107L588,106L559,116L524,114L518,129L498,113L486,116L443,98L435,111L401,110L406,68L426,26L368,15L349,-1L352,-28L344,-42L348,-85L342,-152L366,-152L376,-176L386,-237L378,-259L386,-273L419,-277L427,-262L454,-296L445,-321L443,-361L473,-351L499,-362L500,-335L540,-319L540,-295L580,-308L603,-326L648,-299Z" fill="#E0E0E0" stroke="#fff" stroke-width=".4"/><path d="M1008,305L1020,328L1035,324L1066,333L1125,336L1145,322L1192,309L1221,329L1244,335L1224,357L1209,396L1222,427L1187,420L1147,437L1146,464L1110,469L1082,450L1050,465L1020,463L1017,428L997,411L1004,403L1000,396L1006,379L1021,362L1002,338L999,318Z" fill="#E0E0E0" stroke="#fff" stroke-width=".4"/><path d="M1154,771L1149,786L1091,790L1091,782L1043,772L1050,751L1072,768L1103,765L1133,769L1132,777ZM1020,463L1050,465L1082,450L1110,469L1146,464L1147,437L1166,451L1154,485L1144,491L1120,489L1099,484L1051,498L1078,527L1058,536L1036,536L1015,509L1007,520L1016,552L1036,576L1021,587L1043,611L1063,626L1064,654L1027,641L1038,667L1013,672L1028,716L1002,717L969,695L954,655L947,621L931,597L911,568L908,553L927,528L929,511L942,503L943,490L969,485L984,473L1006,474L1012,465Z" fill="#E0E0E0" stroke="#fff" stroke-width=".4"/><path d="M943,490L942,503L929,511L927,528L908,553L901,550L900,538L878,521L875,496L878,459L884,443L877,434L874,417L892,390L894,401L905,396L913,411L923,416L926,436L921,454L926,477Z" fill="#E0E0E0" stroke="#fff" stroke-width=".4"/><path d="M765,176L777,183L807,208L840,219L855,210L865,233L878,249L862,270L844,258L816,258L782,249L763,250L755,262L740,249L732,272L752,299L760,316L779,337L794,349L809,372L844,393L840,402L802,382L779,362L743,346L709,305L717,301L699,277L698,258L672,249L660,273L648,254L649,235L651,234L679,236L686,226L699,235L715,237L715,221L729,215L733,191Z" fill="#E0E0E0" stroke="#fff" stroke-width=".4"/><path d="M344,-42L352,-28L349,-1L338,0L329,-5L333,-40Z" fill="#E0E0E0" stroke="#fff" stroke-width=".4"/><path d="M348,-85L344,-42L333,-40L329,-5L294,-33L273,-28L245,-58L227,-83L208,-84L203,-106L235,-119L264,-114L301,-127L326,-99Z" fill="#E0E0E0" stroke="#fff" stroke-width=".4"/><path d="M378,-259L386,-237L376,-176L366,-152L342,-152L348,-85L326,-99L301,-127L264,-114L235,-119L255,-137L290,-233L345,-261Z" fill="#E0E0E0" stroke="#fff" stroke-width=".4"/><path d="M-259,434L-245,420L-229,413L-219,439L-195,439L-188,432L-165,434L-154,461L-172,475L-173,516L-179,524L-181,549L-198,553L-182,584L-193,618L-179,633L-185,647L-200,666L-196,682L-212,695L-233,688L-254,694L-248,654L-252,623L-270,618L-279,599L-276,565L-260,547L-257,525L-249,494L-250,471L-258,452Z" fill="#E0E0E0" stroke="#fff" stroke-width=".4"/><path d="M-196,682L-200,666L-185,647L-179,633L-193,618L-182,584L-198,553L-181,549L-179,524L-173,516L-172,475L-154,461L-165,434L-188,432L-195,439L-219,439L-229,413L-245,420L-259,434L-257,396L-274,372L-217,332L-168,342L-115,342L-72,351L-39,348L26,350L42,372L115,396L130,385L175,409L221,402L224,434L186,469L134,480L131,498L106,527L91,570L106,599L83,622L75,655L44,665L16,703L-35,704L-73,703L-98,721L-113,740L-133,735L-148,719L-159,690Z" fill="#E0E0E0" stroke="#fff" stroke-width=".4"/><path d="M-146,-285L-139,-237L-170,-178L-241,-140L-297,-150L-265,-218L-286,-286L-231,-340L-201,-372L-193,-335L-201,-298L-176,-299Z" fill="#E0E0E0" stroke="#fff" stroke-width=".4"/><path d="M520,153L544,162L549,150L588,140L597,161L654,176L650,204L660,229L628,220L595,241L597,269L592,285L606,313L643,341L663,387L708,430L739,430L749,442L738,452L773,472L803,488L837,515L841,525L834,544L812,519L777,511L760,544L789,564L784,591L767,594L746,637L729,641L730,626L738,598L746,587L731,558L719,531L702,525L690,502L664,492L647,471L617,468L586,444L550,409L522,377L510,323L490,316L458,298L439,306L416,331L399,335L404,311L382,304L372,261L386,243L374,222L376,206L393,218L412,215L435,196L442,205L461,203L469,180L499,187L517,177ZM692,629L723,625L708,665L714,680L706,706L675,687L655,682L599,656L605,630L652,635ZM450,486L470,470L494,508L489,577L471,573L454,590L439,577L438,514L428,484Z" fill="#E0E0E0" stroke="#fff" stroke-width=".4"/><path d="M-146,-285L-176,-299L-201,-298L-193,-335L-201,-372L-167,-375L-124,-332ZM-22,-254L-22,-254L-16,-293L-43,-335L-43,-336L-92,-349L-101,-367L-87,-399L-100,-418L-121,-385L-124,-453L-144,-490L-130,-567L-98,-629L-66,-623L-18,-629L-61,-547L-20,-557L24,-557L13,-497L-23,-432L19,-427L22,-420L57,-337L85,-326L109,-249L121,-222L169,-210L164,-168L144,-149L160,-116L124,-82L71,-83L2,-65L-16,-78L-43,-48L-80,-55L-108,-32L-129,-44L-70,-110L-35,-124L-35,-124L-97,-135L-109,-161L-67,-181L-89,-216L-81,-260Z" fill="#E0E0E0" stroke="#fff" stroke-width=".4"/><path d="M654,176L687,180L707,167L742,166L750,156L757,156L765,176L733,191L729,215L715,221L715,237L699,235L686,226L679,236L651,234L660,229L650,204Z" fill="#E0E0E0" stroke="#fff" stroke-width=".4"/><path d="M1004,22L993,38L985,62L977,69L934,50L921,54L912,68L893,76L889,72L869,81L853,83L850,95L816,102L802,96L781,80L777,60L780,52L786,39L804,40L818,33L819,28L826,25L829,11L838,8L844,-3L856,-3L858,1L875,-8L895,14L919,1L938,7L966,-1Z" fill="#E0E0E0" stroke="#fff" stroke-width=".4"/><path d="M703,-104L722,-83L752,-78L749,-60L771,-48L777,-64L804,-57L808,-37L838,-33L856,-3L844,-3L838,8L829,11L826,25L819,28L818,33L804,40L786,39L780,52L762,41L743,44L712,25L698,30L676,54L646,35L623,9L603,-6L599,-32L592,-51L621,-64L635,-80L664,-92L674,-104L685,-97Z" fill="#E0E0E0" stroke="#fff" stroke-width=".4"/><path d="M844,393L809,372L794,349L779,337L760,316L752,299L732,272L740,249L755,262L763,250L782,249L816,258L844,258L862,270L877,270L867,295L886,316L880,342L871,345L863,350L850,363Z" fill="#E0E0E0" stroke="#fff" stroke-width=".4"/><path d="M997,411L1017,428L1020,463L1012,465L1006,474L984,473L969,485L943,490L926,477L921,454L926,436L931,436L933,425L956,417L965,415L979,411Z" fill="#E0E0E0" stroke="#fff" stroke-width=".4"/><path d="M855,210L886,195L911,198L933,220L937,239L961,252L965,275L988,292L1000,279L1010,286L1001,295L1008,305L999,318L1002,338L1021,362L1006,379L1000,396L1004,403L997,411L979,411L965,415L964,411L969,404L973,391L967,391L960,381L953,378L948,370L940,366L935,359L927,362L922,380L912,384L916,379L900,368L887,362L881,354L871,345L880,342L886,316L867,295L877,270L862,270L878,249L865,233Z" fill="#E0E0E0" stroke="#fff" stroke-width=".4"/><path d="M905,396L894,401L892,390L874,417L877,434L868,430L857,413L840,402L844,393L850,363L863,350L871,345L881,354L887,362L900,368L916,379L912,384Z" fill="#E0E0E0" stroke="#fff" stroke-width=".4"/><path d="M926,436L923,416L913,411L905,396L912,384L922,380L927,362L935,359L940,366L948,370L953,378L960,381L967,391L973,391L969,404L964,411L965,415L956,417L933,425L931,436Z" fill="#E0E0E0" stroke="#fff" stroke-width=".4"/></g><g clip-path="url(#v)"><path d="M483.0,116.2L484.1,116.9L487.0,119.6L486.4,124.0L483.1,131.2L481.4,136.9L481.2,141.4L481.5,143.4L482.1,143.4L485.3,143.7L486.9,143.7L491.7,144.9L495.8,146.6L496.6,148.5L497.1,150.8L501.8,153.8L507.3,155.7L509.2,155.1L515.9,147.9L518.7,149.1L520.3,153.0L520.1,154.9L518.2,162.5L518.0,166.7L519.5,169.3L519.7,171.4L519.3,173.4L516.5,173.6L512.9,172.5L509.9,169.2L507.4,169.6L505.4,170.4L504.4,173.6L503.6,177.2L503.8,179.3L505.3,180.8L506.4,184.3L507.2,188.6L507.9,190.6L507.2,191.4L505.3,192.0L503.7,191.5L500.8,186.3L499.5,184.3L497.4,183.9L493.5,185.2L487.6,188.1L485.1,188.1L483.1,187.5L481.2,185.1L479.6,180.3L479.1,177.3L477.9,177.4L474.2,176.5L472.4,177.7L472.4,182.5L472.0,188.7L470.1,192.5L464.8,199.3L462.9,202.2L462.1,204.3L461.9,206.1L462.8,209.3L463.8,212.3L462.9,214.1L460.2,215.0L458.2,213.1L457.5,209.9L453.2,205.4L455.0,201.7L454.7,200.7L447.7,198.8L444.7,196.0L440.3,191.0L439.5,188.9L439.8,181.9L439.5,180.2L438.9,179.4L436.9,179.4L434.0,181.8L431.3,185.5L425.8,189.6L425.2,190.4L427.1,194.4L426.9,195.9L422.6,202.2L421.8,204.3L416.1,208.2L413.5,209.7L405.8,206.8L403.6,206.4L400.0,208.4L395.1,210.2L387.2,212.1L384.2,210.7L382.9,209.4L382.2,207.5L380.1,204.2L377.8,202.2L376.2,200.0L374.2,197.6L372.9,195.7L374.7,189.3L373.4,187.1L372.6,183.8L373.1,181.6L372.4,181.1L365.2,179.9L359.1,180.3L354.9,182.4L351.3,186.0L350.9,186.8L351.2,187.4L352.9,190.6L350.0,194.1L345.4,196.7L342.3,197.0L340.8,196.5L340.8,192.8L343.4,191.5L345.9,189.1L346.6,185.7L346.9,183.3L344.4,180.4L344.7,178.7L346.3,175.3L347.2,172.4L348.5,169.8L353.4,165.6L358.4,161.4L359.1,156.9L359.5,151.4L360.3,150.1L367.0,146.8L368.6,145.5L369.5,143.6L374.8,137.5L380.1,131.4L381.1,129.3L382.0,128.1L382.0,127.1L381.4,126.4L378.8,125.8L378.0,123.9L380.7,120.4L384.2,118.3L387.5,118.3L388.8,119.2L388.6,120.3L390.1,121.5L392.7,122.0L395.7,121.5L398.9,120.2L400.7,117.1L401.7,114.8L406.6,112.1L409.9,113.4L419.0,113.8L425.8,113.1L430.0,111.3L435.1,111.3L438.6,112.3L439.2,112.2L440.2,111.9L441.1,110.9L444.4,110.2L444.8,109.4L444.7,108.6L444.1,108.2L440.0,108.6L438.5,108.0L438.2,106.4L439.5,103.8L442.4,101.8L444.9,101.3L446.7,101.8L451.1,105.7L452.1,105.9L452.9,105.2L453.7,104.8L455.3,105.5L456.9,108.0L457.2,108.4L467.1,107.4L469.3,107.4L476.0,111.8Z" fill="#4ECDC4" stroke="#2C3E50" stroke-width="1"/></g><circle cx="400.0" cy="150.0" r="4" fill="#E74C3C" stroke="#fff" stroke-width="2"/><text x="400.0" y="140.0" text-anchor="middle" font-family="sans-serif" font-weight="700" font-size="10" fill="#2D3436">Bern</text></svg>