<svg viewBox="0 0 800 300" xmlns="http://www.w3.org/2000/svg"><defs><clipPath id="v"><rect width="800" height="300"/></clipPath></defs><rect width="800" height="300" fill="#DCEEF8"/><g clip-path="url(#v)"><path d="M335,-272L335,-271L335,-267L334,-234L271,-235L272,-181L254,-179L249,-168L253,-139L178,-139L173,-132L174,-140L175,-140L218,-142L220,-150L228,-159L234,-188L261,-210L270,-237L276,-239L282,-256L299,-258L306,-255L314,-255L321,-260L332,-261L332,-272Z" fill="#E0E0E0" stroke="#fff" stroke-width=".4"/><path d="M1066,368L1069,386L1067,396L1071,407L1082,418L1093,442L1085,440L1059,444L1054,446L1049,459L1053,467L1050,490L1047,510L1052,513L1066,521L1071,518L1073,539L1058,539L1050,528L1043,519L1028,517L1024,506L1012,513L997,510L990,501L978,499L969,500L968,493L961,493L953,492L941,495L932,494L928,496L929,473L922,466L921,454L924,442L920,434L919,422L896,422L898,415L888,415L887,419L875,419L870,431L867,436L857,433L850,436L838,437L830,427L826,421L820,409L816,395L759,394L752,397L746,396L739,399L736,393L741,391L741,383L744,378L751,374L757,376L763,368L774,368L775,374L782,377L793,365L805,356L809,350L809,334L817,315L826,305L839,296L841,290L841,283L844,276L843,265L846,248L850,236L855,226L856,214L858,201L866,191L876,185L892,191L904,198L918,200L932,204L938,192L941,191L950,193L971,183L979,187L985,187L988,182L995,180L1009,182L1022,183L1028,181L1040,197L1048,199L1054,196L1062,197L1073,193L1078,201L1095,214L1093,236L1101,239L1095,246L1088,251L1080,261L1076,270L1075,285L1071,293L1070,307L1065,313L1064,324L1062,326L1060,336L1065,345Z" fill="#E0E0E0" stroke="#fff" stroke-width=".4"/><path d="M974,123L959,114L953,109L952,102L955,94L955,86L943,74L941,66L942,61L934,55L934,44L930,36L923,37L925,30L930,22L928,14L935,8L931,3L936,-9L944,-24L961,-23L960,-103L960,-111L982,-111L982,-152L1060,-152L1134,-152L1211,-152L1217,-132L1213,-128L1215,-107L1222,-83L1230,-78L1240,-71L1231,-59L1216,-56L1210,-50L1208,-36L1200,-7L1202,1L1199,18L1191,38L1180,47L1171,62L1170,70L1160,76L1155,96L1155,114L1155,99L1152,98L1152,89L1150,82L1140,74L1138,60L1140,45L1131,44L1130,48L1118,49L1123,55L1125,67L1114,78L1105,92L1095,94L1079,82L1071,87L1069,92L1059,96L1059,100L1040,100L1037,96L1023,95L1016,99L1011,97L1001,86L998,80L984,83L978,92L973,109L967,113L961,115Z" fill="#E0E0E0" stroke="#fff" stroke-width=".4"/><path d="M960,-103L961,-23L944,-24L936,-9L931,3L935,8L928,14L930,22L925,30L923,37L930,36L934,44L934,55L942,61L941,66L929,69L919,77L905,98L887,107L869,106L863,108L865,115L855,122L847,129L823,137L818,132L815,132L811,137L795,138L798,133L792,120L790,112L781,108L770,97L774,88L783,90L788,88L799,89L789,71L789,58L788,45L780,32L782,23L770,22L770,10L762,2L770,-24L795,-43L796,-69L803,-110L807,-119L799,-126L799,-133L792,-138L787,-170L807,-182L883,-142Z" fill="#E0E0E0" stroke="#fff" stroke-width=".4"/><path d="M-525,972L-530,959L-522,948L-533,933L-548,920L-568,906L-575,907L-594,889L-607,892L-581,861L-559,840L-547,831L-530,819L-530,802L-540,790L-549,794L-545,782L-543,769L-543,758L-550,754L-557,757L-564,756L-566,748L-568,729L-572,723L-585,717L-592,721L-613,717L-612,689L-617,678L-611,674L-613,662L-608,653L-604,637L-609,624L-619,619L-621,611L-619,599L-656,598L-663,575L-657,575L-658,566L-661,560L-662,549L-673,543L-685,543L-693,538L-706,534L-714,526L-735,523L-756,505L-755,492L-757,485L-755,470L-780,473L-790,481L-807,489L-812,495L-821,495L-836,493L-847,497L-855,495L-854,465L-870,476L-887,476L-894,465L-907,464L-903,456L-913,444L-921,427L-916,423L-916,415L-905,409L-907,399L-902,392L-900,383L-878,370L-863,366L-860,363L-843,364L-834,311L-834,303L-837,292L-845,285L-845,271L-834,268L-830,270L-830,263L-841,261L-841,248L-804,249L-797,242L-792,248L-788,260L-785,257L-774,268L-759,266L-755,260L-741,256L-733,253L-731,245L-717,239L-718,235L-735,233L-737,221L-736,208L-745,203L-742,202L-727,204L-712,209L-706,204L-693,201L-671,194L-664,187L-667,181L-657,180L-652,185L-655,193L-648,196L-644,205L-649,212L-652,228L-647,238L-646,247L-634,256L-624,257L-622,253L-616,252L-607,249L-601,244L-591,246L-586,245L-575,247L-574,243L-577,239L-575,233L-567,235L-558,233L-547,237L-539,241L-533,236L-529,237L-526,242L-517,241L-509,233L-503,219L-492,201L-485,201L-481,211L-470,245L-460,248L-459,261L-474,277L-468,283L-434,286L-433,305L-418,293L-394,300L-362,311L-353,323L-356,333L-334,327L-296,338L-267,337L-239,353L-214,374L-200,380L-183,381L-176,387L-170,411L-166,423L-174,455L-184,468L-211,495L-223,517L-237,534L-242,535L-248,549L-246,587L-252,618L-254,631L-260,639L-263,666L-283,693L-286,714L-302,723L-306,736L-327,736L-357,744L-371,753L-392,759L-415,776L-431,797L-434,813L-431,825L-434,847L-439,858L-452,870L-474,909L-490,927L-504,937L-512,959Z" fill="#E0E0E0" stroke="#fff" stroke-width=".4"/><path d="M-492,201L-503,219L-509,233L-517,241L-526,242L-529,237L-533,236L-539,241L-547,237L-542,229L-541,220L-537,212L-545,200L-546,187L-536,171L-530,173L-516,177L-495,194ZM621,-816L630,-809L657,-803L648,-783L645,-763L640,-758L631,-761L632,-753L618,-737L617,-725L627,-729L633,-717L632,-709L638,-699L631,-691L636,-670L647,-666L645,-655L627,-640L589,-647L561,-638L559,-623L537,-619L515,-631L508,-625L473,-637L465,-647L475,-663L479,-718L459,-747L445,-761L415,-772L413,-793L438,-800L470,-792L464,-826L483,-813L527,-836L533,-861L550,-867L553,-856L562,-856L571,-844L584,-830L594,-832L611,-818L615,-816ZM670,-627L682,-637L685,-614L679,-594L670,-599L666,-617Z" fill="#E0E0E0" stroke="#fff" stroke-width=".4"/><path d="M180,18L172,2L163,-5L171,-9L180,-23L185,-33L192,-39L201,-38L210,-42L221,-42L230,-36L243,-31L255,-16L267,-3L268,10L272,21L279,26L281,34L280,40L277,41L267,40L265,42L261,42L247,38L238,37L203,37L197,39L191,38L181,41L178,26L195,27L200,24L203,24L210,19L219,23L227,24L235,19L231,14L225,17L219,17L211,12L205,12L201,17Z" fill="#E0E0E0" stroke="#fff" stroke-width=".4"/><path d="M280,40L281,34L279,26L272,21L268,10L267,-3L274,-6L277,-18L283,-19L297,-13L308,-17L315,-16L318,-20L395,-20L399,-34L396,-37L387,-124L377,-214L407,-215L472,-169L537,-124L541,-114L553,-108L562,-105L562,-92L584,-94L584,-47L573,-34L572,-22L554,-19L528,-17L521,-10L509,-9L496,-9L492,-13L481,-10L463,-2L459,5L444,13L442,19L434,23L425,20L419,25L416,38L401,55L402,61L396,70L398,81L390,84L385,86L382,78L377,80L373,80L370,85L355,85L350,82L347,84L341,79L342,73L340,70L336,72L337,66L340,61L333,53L330,47L326,43L322,42L318,45L311,48L306,52L298,50L292,45L289,45L284,47L281,47Z" fill="#E0E0E0" stroke="#fff" stroke-width=".4"/><path d="M173,-132L178,-139L253,-139L249,-168L254,-179L272,-181L271,-235L334,-234L335,-267L407,-215L377,-214L387,-124L396,-37L399,-34L395,-20L318,-20L315,-16L308,-17L297,-13L283,-19L277,-18L274,-6L267,-3L255,-16L243,-31L230,-36L221,-42L210,-42L201,-38L192,-39L185,-33L183,-44L189,-54L191,-73L189,-93L187,-103L188,-113L183,-123Z" fill="#E0E0E0" stroke="#fff" stroke-width=".4"/><path d="M553,161L537,163L533,150L534,105L530,101L529,92L522,85L516,79L519,69L525,66L529,58L539,56L543,50L549,44L556,44L571,56L570,62L575,74L571,82L573,87L563,99L558,105L554,117L554,130Z" fill="#E0E0E0" stroke="#fff" stroke-width=".4"/><path d="M787,-170L792,-138L799,-133L799,-126L807,-119L803,-110L796,-69L795,-43L770,-24L762,2L770,10L770,22L782,23L780,32L775,33L774,39L771,40L758,18L753,17L738,29L723,23L713,22L707,24L696,24L685,32L675,33L652,22L643,27L633,27L626,20L606,12L586,14L581,19L578,30L572,38L571,56L556,44L549,44L543,50L543,37L521,32L521,23L510,10L507,1L509,-9L521,-10L528,-17L554,-19L572,-22L573,-34L584,-47L584,-94L611,-103L666,-143L732,-183L763,-174L774,-163Z" fill="#E0E0E0" stroke="#fff" stroke-width=".4"/><path d="M553,161L554,130L554,117L558,105L563,99L573,87L571,82L575,74L570,62L571,56L572,38L578,30L581,19L586,14L606,12L626,20L633,27L643,27L652,22L675,33L685,32L696,24L707,24L713,22L723,23L738,29L753,17L758,18L771,40L774,39L782,47L780,51L779,57L763,73L758,85L755,95L751,100L747,113L737,121L734,131L729,139L727,147L714,153L703,145L696,146L685,157L679,157L670,176L665,190L645,197L638,196L630,200L615,199L605,187L598,173L585,161L570,161Z" fill="#E0E0E0" stroke="#fff" stroke-width=".4"/><path d="M780,32L788,45L789,58L789,71L799,89L788,88L783,90L774,88L770,97L781,108L790,112L792,120L798,133L795,138L786,158L781,161L780,176L782,185L780,190L789,200L791,207L798,217L807,224L807,232L810,238L808,248L793,244L777,239L753,238L751,237L739,239L728,237L718,238L687,238L690,222L682,210L674,206L670,198L665,195L665,190L670,176L679,157L685,157L696,146L703,145L714,153L727,147L729,139L734,131L737,121L747,113L751,100L755,95L758,85L763,73L779,57L780,51L782,47L774,39L775,33Z" fill="#E0E0E0" stroke="#fff" stroke-width=".4"/><path d="M519,69L516,79L522,85L529,92L530,101L534,105L533,150L537,163L522,167L518,160L513,148L511,139L515,121L510,114L509,99L509,84L501,74L502,68Z" fill="#E0E0E0" stroke="#fff" stroke-width=".4"/><path d="M502,68L501,74L509,84L509,99L510,114L515,121L511,139L513,148L518,160L522,167L492,179L481,185L464,191L447,185L448,178L439,161L444,139L452,123L447,95L445,80L445,69L478,68L487,70L493,67Z" fill="#E0E0E0" stroke="#fff" stroke-width=".4"/><path d="M238,37L247,38L261,42L265,42L267,40L277,41L280,40L281,47L284,47L289,45L292,45L298,50L306,52L311,48L318,45L322,42L326,43L330,47L333,53L340,61L337,66L336,72L340,70L342,73L341,79L347,84L343,86L342,92L346,100L351,116L344,118L342,121L343,125L342,133L339,133L334,133L330,141L324,140L321,136L322,129L314,117L309,119L305,119L299,120L300,113L297,108L297,102L293,94L288,87L272,87L268,91L263,91L259,96L257,101L247,110L238,98L231,90L226,88L221,84L219,75L216,71L211,68L219,58L225,59L230,55L234,55L237,53L236,46L238,44Z" fill="#E0E0E0" stroke="#fff" stroke-width=".4"/><path d="M181,41L191,38L197,39L203,37L238,37L238,44L236,46L237,53L234,55L230,55L225,59L219,58L211,68L200,60L192,58L188,53L188,50L182,46Z" fill="#E0E0E0" stroke="#fff" stroke-width=".4"/><path d="M339,133L338,139L340,148L336,157L342,162L348,163L356,172L357,179L355,182L353,197L348,198L328,188L311,174L294,163L282,151L286,144L287,139L296,128L305,119L309,119L314,117L322,129L321,136L324,140L330,141L334,133Z" fill="#E0E0E0" stroke="#fff" stroke-width=".4"/><path d="M247,110L257,101L259,96L263,91L268,91L272,87L288,87L293,94L297,102L297,108L300,113L299,120L305,119L296,128L287,139L286,144L282,151L276,149L262,141L253,131L249,124Z" fill="#E0E0E0" stroke="#fff" stroke-width=".4"/><path d="M398,81L396,70L402,61L401,55L416,38L419,25L425,20L434,23L442,19L444,13L459,5L463,-2L481,-10L492,-13L496,-9L509,-9L507,1L510,10L521,23L521,32L543,37L543,50L539,56L529,58L525,66L519,69L502,68L493,67L487,70L478,68L445,69L445,80L447,95L434,90L425,91L418,96L410,92L406,85Z" fill="#E0E0E0" stroke="#fff" stroke-width=".4"/><path d="M1028,181L1022,183L1009,182L995,180L988,182L985,187L979,187L971,183L950,193L941,191L938,192L932,204L918,200L904,198L892,191L876,185L866,191L858,201L856,214L844,213L831,210L820,220L810,238L807,232L807,224L798,217L791,207L789,200L780,190L782,185L780,176L781,161L786,158L795,138L811,137L815,132L818,132L823,137L847,129L855,122L865,115L863,108L869,106L887,107L905,98L919,77L929,69L941,66L943,74L955,86L955,94L952,102L953,109L959,114L974,123L985,131L985,137L998,147L1006,155L1011,167L1025,175Z" fill="#E0E0E0" stroke="#fff" stroke-width=".4"/><path d="M856,214L855,226L850,236L846,248L843,265L844,276L841,283L841,290L839,296L826,305L817,315L809,334L809,350L805,356L793,365L782,377L775,374L774,368L763,368L757,376L751,374L744,367L738,370L731,379L715,358L730,347L722,335L729,330L742,327L743,319L754,328L771,329L777,320L779,307L777,292L768,281L776,258L771,255L757,256L752,246L753,238L777,239L793,244L808,248L810,238L820,220L831,210L844,213Z" fill="#E0E0E0" stroke="#fff" stroke-width=".4"/><path d="M718,238L728,237L739,239L751,237L753,238L752,246L757,256L771,255L776,258L768,281L777,292L779,307L777,320L771,329L754,328L743,319L742,327L729,330L722,335L730,347L715,358L695,339L682,323L671,303L671,296L676,290L680,276L684,262L691,261L719,261Z" fill="#E0E0E0" stroke="#fff" stroke-width=".4"/><path d="M687,238L718,238L719,261L691,261L684,262L681,259Z" fill="#E0E0E0" stroke="#fff" stroke-width=".4"/><path d="M1093,442L1101,447L1108,451L1121,454L1132,460L1141,469L1146,485L1142,490L1138,506L1142,523L1136,529L1130,548L1140,553L1082,569L1084,583L1069,586L1058,594L1056,601L1049,603L1032,619L1022,632L1015,633L1009,630L987,628L984,627L984,625L976,620L964,619L948,624L936,611L923,595L923,532L963,532L962,525L965,518L961,509L963,499L961,493L968,493L969,500L978,499L990,501L997,510L1012,513L1024,506L1028,517L1043,519L1050,528L1058,539L1073,539L1071,518L1066,521L1052,513L1047,510L1050,490L1053,467L1049,459L1054,446L1059,444L1085,440Z" fill="#E0E0E0" stroke="#fff" stroke-width=".4"/><path d="M751,374L744,378L741,383L741,391L736,393L731,379L738,370L744,367ZM739,399L746,396L752,397L759,394L816,395L820,409L826,421L830,427L838,437L850,436L857,433L867,436L870,431L875,419L887,419L888,415L898,415L896,422L919,422L920,434L924,442L921,454L922,466L929,473L928,496L932,494L941,495L953,492L961,493L963,499L961,509L965,518L962,525L963,532L923,532L923,595L936,611L948,624L913,632L866,629L853,620L775,620L772,622L760,613L748,612L737,616L727,619L725,607L728,589L735,571L736,562L742,545L747,536L758,524L764,515L766,500L765,489L759,482L754,470L749,459L750,455L756,447L750,428L746,415L737,403Z" fill="#E0E0E0" stroke="#fff" stroke-width=".4"/><path d="M180,18L201,17L205,12L211,12L219,17L225,17L231,14L235,19L227,24L219,23L210,19L203,24L200,24L195,27L178,26Z" fill="#E0E0E0" stroke="#fff" stroke-width=".4"/><path d="M335,-267L335,-271L335,-272L335,-298L366,-315L385,-318L401,-324L408,-335L431,-344L431,-361L443,-362L451,-371L476,-375L480,-384L475,-388L468,-413L467,-427L460,-442L478,-455L499,-459L511,-469L530,-476L562,-480L594,-482L604,-479L622,-488L643,-488L650,-483L664,-484L660,-472L663,-449L658,-430L646,-417L648,-399L664,-386L664,-380L676,-371L684,-331L690,-311L691,-301L688,-283L689,-273L687,-261L688,-248L681,-239L692,-223L693,-214L700,-202L709,-206L724,-196L732,-183L666,-143L611,-103L584,-94L562,-92L562,-105L553,-108L541,-114L537,-124L472,-169L407,-215Z" fill="#E0E0E0" stroke="#fff" stroke-width=".4"/><path d="M460,-442L467,-427L468,-413L475,-388L480,-384L476,-375L451,-371L443,-362L431,-361L431,-344L408,-335L401,-324L385,-318L366,-315L335,-298L335,-272L332,-272L332,-261L321,-260L314,-255L306,-255L299,-258L282,-256L276,-239L270,-237L261,-210L234,-188L228,-159L220,-150L218,-142L175,-140L174,-140L175,-150L182,-156L189,-167L188,-174L194,-188L205,-202L211,-205L216,-218L217,-229L224,-242L237,-250L249,-272L249,-272L259,-281L277,-283L292,-298L302,-304L318,-322L313,-350L320,-370L323,-382L335,-397L354,-408L369,-417L381,-441L387,-456L402,-456L413,-446L432,-447L451,-442Z" fill="#E0E0E0" stroke="#fff" stroke-width=".4"/><path d="M1211,-152L1134,-152L1060,-152L982,-152L982,-230L982,-307L977,-325L982,-339L979,-348L986,-359L1011,-359L1030,-353L1049,-347L1058,-343L1072,-350L1080,-357L1097,-359L1111,-356L1116,-345L1121,-352L1136,-347L1151,-345L1161,-351L1171,-319L1173,-313L1168,-304L1164,-287L1158,-276L1154,-272L1148,-279L1139,-289L1125,-321L1123,-319L1131,-295L1143,-273L1158,-240L1165,-228L1171,-216L1188,-193L1184,-189L1185,-175L1207,-157Z" fill="#E0E0E0" stroke="#fff" stroke-width=".4"/><path d="M982,-152L982,-111L960,-111L960,-103L883,-142L807,-182L787,-170L774,-163L763,-174L732,-183L724,-196L709,-206L700,-202L693,-214L692,-223L681,-239L688,-248L687,-261L689,-273L688,-283L691,-301L690,-311L684,-331L693,-336L695,-345L693,-355L706,-363L712,-371L721,-377L723,-395L745,-387L753,-389L769,-385L795,-375L804,-355L821,-350L848,-341L869,-330L878,-336L887,-346L883,-363L889,-374L903,-385L916,-388L942,-383L948,-373L956,-373L962,-369L981,-366L986,-359L979,-348L982,-339L977,-325L982,-307L982,-230Z" fill="#E0E0E0" stroke="#fff" stroke-width=".4"/><path d="M1095,214L1078,201L1073,193L1062,197L1054,196L1048,199L1040,197L1028,181L1025,175L1011,167L1006,155L998,147L985,137L985,131L974,123L961,115L967,113L973,109L978,92L984,83L998,80L1001,86L1011,97L1016,99L1023,95L1037,96L1040,100L1059,100L1059,96L1069,92L1071,87L1079,82L1095,94L1105,92L1114,78L1125,67L1123,55L1118,49L1130,48L1131,44L1140,45L1138,60L1140,74L1150,82L1152,89L1152,98L1155,99L1155,114L1152,120L1142,120L1135,131L1147,133L1157,142L1160,150L1169,154L1180,175L1167,188L1156,200L1144,209L1130,208L1115,213L1103,209Z" fill="#E0E0E0" stroke="#fff" stroke-width=".4"/></g><g clip-path="url(#v)"><path d="M442.2,182.7L441.7,183.5L439.1,183.0L439.7,182.3ZM347.9,85.0L348.4,85.0L349.9,84.5L351.3,83.6L352.5,81.5L354.2,79.8L356.1,79.9L356.7,79.6L357.4,79.6L358.1,80.7L358.9,81.5L359.5,81.5L359.9,83.1L363.4,83.8L364.9,84.2L366.2,85.3L366.6,85.3L367.1,85.1L367.5,84.7L367.6,84.3L367.1,83.2L367.3,82.3L367.9,81.5L368.8,81.4L370.1,81.2L371.7,81.2L372.8,81.3L373.3,80.5L372.9,78.2L372.9,76.9L373.1,75.8L373.6,75.3L375.3,76.7L376.9,77.2L378.0,77.2L378.3,77.0L377.9,75.5L378.0,75.0L378.4,74.8L379.1,74.6L381.1,74.0L381.3,74.1L381.7,76.5L381.5,77.3L381.9,78.9L382.5,80.3L382.4,80.9L382.0,81.9L381.5,82.7L381.6,83.0L382.4,83.6L383.9,84.2L385.5,84.4L386.4,83.5L387.3,82.8L388.0,82.2L388.2,81.2L389.1,80.6L392.0,79.7L394.7,79.6L395.3,79.9L396.5,81.1L398.0,82.0L400.4,81.9L402.0,82.4L403.5,83.5L404.4,85.7L405.5,87.2L406.0,89.5L407.6,90.7L408.9,91.3L410.7,92.9L412.6,93.8L414.5,93.6L415.4,94.4L416.8,95.0L418.2,95.1L419.5,93.2L421.1,92.4L425.4,90.9L426.9,90.2L428.7,89.8L432.7,89.7L436.4,90.1L438.3,90.5L439.5,90.2L440.8,91.1L442.0,93.0L443.0,93.6L444.0,94.3L444.9,95.8L445.8,97.2L446.3,97.9L447.4,99.4L448.3,99.4L449.3,98.8L449.7,98.3L449.9,99.2L449.5,100.8L449.6,101.8L450.1,102.2L449.9,103.4L448.8,105.5L448.7,106.8L449.8,107.2L450.6,108.5L451.0,110.8L451.5,111.6L451.6,112.0L452.4,117.5L453.3,123.1L452.7,123.8L451.9,124.0L451.3,124.2L451.2,124.8L451.5,125.5L451.3,126.2L450.2,126.7L447.9,128.4L447.7,129.1L447.1,130.6L446.6,131.5L445.8,133.2L444.7,137.7L444.2,141.4L444.1,142.5L443.6,143.3L443.1,144.5L440.6,147.7L439.3,150.2L439.5,151.4L439.5,152.5L439.1,153.3L439.2,155.5L439.5,157.3L440.0,159.1L441.8,164.2L442.8,167.3L443.4,169.8L443.9,171.4L444.4,172.1L444.6,172.8L447.3,173.3L447.8,173.6L448.5,176.8L448.4,178.3L447.9,178.9L447.9,180.1L447.8,181.6L447.4,182.2L445.8,182.3L444.9,182.9L443.5,182.7L443.4,182.3L442.6,182.1L440.6,181.3L440.9,178.5L440.0,178.3L439.3,178.7L437.9,182.1L437.2,182.7L427.1,180.9L424.9,179.5L422.3,179.2L417.7,179.4L414.0,179.8L412.9,180.6L422.4,180.1L423.4,180.2L423.9,180.8L411.9,181.9L407.3,182.5L406.0,182.3L404.9,181.3L399.9,181.1L398.9,181.5L398.3,182.3L400.3,182.1L403.3,182.1L404.2,182.7L394.5,183.5L387.8,185.0L385.0,186.1L375.6,189.8L369.9,191.5L368.4,192.2L365.8,194.0L362.5,195.1L358.7,197.2L356.5,197.7L355.9,197.0L355.8,193.5L355.6,188.6L355.7,186.8L356.0,185.1L356.0,183.6L357.1,183.1L357.4,182.5L357.6,180.6L358.7,178.9L358.7,176.0L359.0,175.3L359.2,174.6L358.7,172.6L358.2,169.0L357.9,168.7L357.6,168.9L357.0,168.9L354.7,167.6L352.9,167.4L351.6,166.3L351.5,165.1L350.9,164.4L350.4,163.0L349.8,161.3L348.0,160.3L346.3,160.1L345.2,160.3L343.8,160.3L342.2,159.7L341.1,159.1L340.0,157.9L339.0,156.9L338.2,157.0L337.3,156.8L336.4,156.4L336.1,156.1L340.0,152.2L341.3,150.3L341.4,149.2L341.4,148.1L341.8,146.9L342.0,145.1L339.8,138.5L339.3,136.5L338.7,135.9L338.3,135.7L339.4,134.8L340.9,135.1L343.2,135.7L343.7,135.1L345.4,131.8L345.4,130.5L345.2,129.7L346.3,127.4L347.0,126.5L347.5,125.6L347.4,124.3L346.8,123.8L345.9,123.9L345.0,123.6L343.5,122.9L342.7,122.2L343.0,119.2L343.1,118.3L343.6,117.7L344.5,117.6L346.8,117.5L348.6,117.8L350.2,118.0L351.1,118.0L351.7,118.9L352.7,119.8L353.6,119.8L353.8,119.1L353.6,116.2L353.1,114.6L351.8,113.1L348.6,111.8L348.6,110.0L348.8,108.1L349.5,107.3L352.0,106.1L351.5,105.4L350.8,104.7L349.3,104.0L349.6,101.6L349.7,99.5L348.4,99.8L347.1,99.9L346.0,99.3L345.0,98.0L344.9,94.5L344.9,90.5L344.7,88.7L345.0,87.7L346.2,86.8L347.5,85.7Z" fill="#4ECDC4" stroke="#2C3E50" stroke-width="1"/></g><circle cx="400.0" cy="150.0" r="4" fill="#E74C3C" stroke="#fff" stroke-width="2"/><text x="400.0" y="140.0" text-anchor="middle" font-family="sans-serif" font-weight="700" font-size="10" fill="#2D3436">Yamoussoukro</text></svg>