<svg viewBox="0 0 800 300" xmlns="http://www.w3.org/2000/svg"><defs><clipPath id="v"><rect width="800" height="300"/></clipPath></defs><rect width="800" height="300" fill="#DCEEF8"/><g clip-path="url(#v)"><path d="M1486,73L1487,72L1488,73L1487,76L1485,76L1482,76L1482,74L1484,72ZM1494,68L1491,69L1488,70L1488,69L1490,68L1491,67L1494,66L1494,66L1494,68ZM-77,66L-77,66L-77,66L-76,66L-77,68L-77,68L-77,68L-77,66Z" fill="#E0E0E0" stroke="#fff" stroke-width=".4"/><path d="M856,-1L857,-0L873,8L873,11L879,15L877,21L878,23L880,25L881,26L879,29L880,30L879,32L881,35L883,39L884,40L881,43L876,45L873,44L872,46L869,46L868,46L862,45L859,46L858,40L856,37L856,36L851,35L849,34L846,33L844,33L842,31L840,26L838,23L837,21L837,19L836,15L838,14L840,13L841,11L843,10L842,8L842,7L841,6L843,5L843,2L841,-0L843,-1L847,-1Z" fill="#E0E0E0" stroke="#fff" stroke-width=".4"/><path d="M671,-131L671,-130L670,-129L670,-122L656,-122L656,-110L652,-110L651,-107L652,-100L635,-100L634,-99L634,-101L634,-101L644,-101L645,-103L646,-105L648,-111L654,-117L656,-123L657,-123L659,-127L662,-127L664,-127L666,-127L667,-128L670,-128L670,-131Z" fill="#E0E0E0" stroke="#fff" stroke-width=".4"/><path d="M172,-251L185,-251L198,-251L202,-251L215,-251L228,-251L241,-251L254,-251L269,-251L284,-251L293,-251L293,-254L295,-254L295,-250L297,-249L300,-248L304,-247L308,-245L312,-246L317,-244L319,-245L323,-246L327,-244L331,-241L335,-239L338,-237L338,-236L339,-235L339,-234L340,-234L341,-235L341,-233L342,-232L344,-232L344,-232L344,-230L348,-228L349,-222L350,-217L349,-213L347,-210L346,-208L346,-207L346,-206L348,-205L349,-205L354,-209L358,-209L364,-212L364,-213L364,-215L363,-216L365,-217L369,-217L373,-217L375,-219L375,-220L380,-224L382,-225L388,-225L396,-225L397,-227L398,-227L400,-228L402,-231L403,-236L406,-241L408,-239L411,-240L413,-238L413,-230L415,-226L416,-224L412,-221L407,-219L402,-217L400,-214L399,-212L399,-209L401,-206L403,-206L402,-208L403,-207L403,-205L400,-204L398,-204L395,-203L393,-203L390,-203L387,-201L393,-202L394,-201L388,-199L386,-199L386,-200L384,-198L386,-198L385,-194L382,-190L381,-191L380,-191L379,-193L380,-190L381,-189L381,-187L379,-185L377,-180L377,-180L378,-184L376,-186L375,-191L374,-189L375,-185L372,-186L375,-184L376,-179L377,-178L377,-177L378,-171L375,-167L371,-166L368,-163L366,-162L363,-160L363,-159L358,-155L356,-153L353,-150L353,-146L354,-143L355,-138L357,-135L357,-133L359,-127L359,-124L359,-122L358,-119L356,-118L354,-119L353,-121L352,-122L350,-126L347,-130L347,-132L348,-135L347,-138L343,-142L341,-143L337,-141L336,-141L334,-143L331,-144L326,-144L323,-144L319,-144L317,-143L318,-142L318,-140L319,-139L318,-138L317,-139L315,-138L312,-138L309,-141L305,-140L302,-141L299,-141L295,-140L291,-136L287,-134L284,-132L284,-129L283,-126L284,-124L284,-122L283,-122L280,-123L276,-124L275,-127L274,-130L272,-133L270,-136L268,-139L265,-141L261,-141L258,-137L255,-139L253,-140L251,-143L250,-146L247,-148L245,-149L244,-151L236,-151L236,-149L233,-149L224,-149L214,-153L207,-155L208,-156L202,-156L197,-155L197,-158L194,-161L192,-162L191,-163L189,-163L187,-165L183,-165L182,-166L182,-169L177,-174L174,-182L174,-183L172,-185L168,-190L168,-194L166,-198L167,-202L166,-207L165,-212L167,-217L167,-223L168,-229L167,-237L166,-243L164,-246L165,-247L171,-245L173,-239L175,-240L174,-246ZM30,-94L31,-94L32,-93L33,-92L33,-92L31,-91L30,-90L29,-89L28,-90L28,-91L27,-93L28,-93L28,-94L28,-95L28,-95L29,-95ZM28,-98L27,-97L26,-97L25,-98L25,-98L25,-98L25,-99L27,-98ZM24,-100L24,-99L22,-99L22,-100ZM19,-102L19,-102L20,-100L20,-100L20,-100L18,-100L18,-101L18,-101ZM13,-104L13,-103L13,-103L11,-104L11,-104L12,-105ZM-18,-338L-15,-337L-14,-333L-17,-332L-20,-334L-22,-336ZM40,-317L43,-317L45,-314L41,-310L36,-307L34,-309L33,-313L37,-316ZM93,-435L93,-392L93,-337L97,-337L102,-334L105,-330L109,-325L113,-330L117,-332L120,-328L122,-324L126,-321L129,-315L134,-306L141,-301L141,-296L139,-292L136,-295L133,-297L131,-304L126,-311L123,-318L119,-319L112,-319L107,-321L98,-330L94,-332L86,-335L80,-334L72,-338L66,-342L62,-340L63,-334L60,-334L55,-332L51,-329L46,-327L46,-332L48,-341L52,-343L51,-346L46,-341L43,-335L36,-329L40,-325L35,-319L31,-315L26,-313L25,-309L18,-305L17,-301L12,-298L9,-299L5,-296L0,-294L-3,-291L-11,-289L-11,-290L-7,-294L-2,-296L2,-300L8,-301L10,-305L16,-309L17,-311L20,-314L21,-320L23,-325L18,-322L17,-324L14,-321L11,-325L10,-322L9,-326L4,-323L2,-323L1,-328L2,-331L-1,-334L-6,-333L-10,-337L-13,-339L-13,-344L-16,-348L-15,-353L-11,-358L-10,-363L-6,-364L-3,-362L0,-367L4,-366L7,-369L6,-374L4,-376L7,-379L4,-379L-0,-377L-2,-375L-5,-377L-11,-376L-18,-378L-20,-383L-25,-389L-19,-393L-9,-398L-6,-398L-6,-393L3,-393L-1,-400L-6,-404L-9,-410L-13,-415L-19,-419L-17,-425L-9,-425L-4,-431L-3,-437L2,-443L6,-445L14,-451L18,-450L25,-457L32,-454L35,-448L37,-450L44,-450L44,-447L51,-444L55,-446L64,-442L73,-440L76,-439L82,-441L88,-437ZM-41,-369L-38,-367L-36,-368L-32,-366L-28,-365L-28,-364L-31,-362L-35,-364L-36,-365L-40,-365L-41,-366Z" fill="#E0E0E0" stroke="#fff" stroke-width=".4"/><path d="M1090,-252L1086,-248L1083,-247L1082,-241L1080,-238L1071,-240L1068,-229L1066,-227L1057,-225L1061,-214L1058,-213L1059,-209L1056,-210L1054,-212L1047,-213L1040,-213L1038,-213L1032,-215L1030,-214L1029,-210L1022,-212L1019,-211L1018,-209L1015,-208L1010,-204L1008,-200L1006,-200L1005,-202L999,-202L999,-207L996,-207L997,-213L992,-218L984,-217L979,-216L975,-222L971,-224L964,-228L964,-229L952,-225L953,-203L950,-203L947,-208L944,-209L939,-208L937,-206L937,-207L938,-210L937,-212L932,-214L930,-219L928,-221L928,-223L932,-222L932,-227L936,-228L940,-227L941,-233L940,-237L935,-237L932,-238L927,-235L923,-234L920,-235L921,-238L918,-243L915,-243L911,-247L914,-252L912,-253L916,-261L920,-257L921,-262L930,-269L937,-270L946,-265L951,-262L956,-265L963,-265L969,-261L970,-263L976,-263L977,-266L970,-271L974,-275L973,-277L978,-279L974,-284L976,-286L993,-289L995,-291L1006,-293L1010,-297L1018,-295L1019,-287L1024,-289L1029,-286L1029,-282L1033,-283L1044,-290L1042,-287L1048,-282L1058,-264L1060,-267L1066,-263L1072,-265L1075,-264L1077,-260L1080,-258L1082,-256L1087,-257Z" fill="#E0E0E0" stroke="#fff" stroke-width=".4"/><path d="M953,-203L952,-225L964,-229L964,-228L971,-224L975,-222L979,-216L984,-217L992,-218L997,-213L996,-207L999,-207L999,-202L1005,-202L1006,-200L1008,-200L1010,-204L1015,-208L1018,-209L1019,-208L1016,-205L1019,-202L1022,-204L1027,-201L1022,-197L1018,-197L1016,-197L1016,-199L1017,-201L1011,-200L1009,-196L1007,-193L1004,-193L1003,-191L1006,-190L1007,-185L1004,-180L1001,-181L999,-181L999,-184L993,-187L988,-189L986,-192L981,-196L978,-202L977,-203L972,-203L971,-204L970,-209L964,-212L960,-208L957,-206L957,-203Z" fill="#E0E0E0" stroke="#fff" stroke-width=".4"/><path d="M409,266L411,269L413,275L418,279L425,281L423,285L418,285L416,283L414,283L409,283ZM457,133L456,137L455,143L455,148L454,149L453,152L453,155L459,160L458,163L461,166L461,168L456,175L450,178L441,180L436,179L437,182L436,187L437,190L435,192L430,192L426,190L424,192L425,198L428,199L430,198L431,201L427,202L424,206L423,212L422,216L418,216L415,219L413,223L418,228L422,229L420,235L415,239L412,247L408,249L407,253L408,260L411,264L409,264L405,263L395,262L393,257L393,252L390,253L388,250L388,243L391,240L393,236L392,233L395,227L396,219L396,215L398,214L397,212L395,210L397,208L395,206L394,199L395,198L395,190L396,185L397,180L399,178L398,172L398,167L401,164L401,159L404,154L404,149L403,148L401,139L403,134L403,129L404,125L407,120L410,117L409,115L410,113L410,105L415,103L416,98L416,97L419,93L425,94L427,97L429,93L434,94L435,95L443,102L446,103L452,107L456,108L457,111L453,118L457,119L462,120L465,119L469,116L470,111L472,110L474,113L474,117L471,120L468,122L463,127Z" fill="#E0E0E0" stroke="#fff" stroke-width=".4"/><path d="M836,15L837,19L837,21L838,23L840,26L842,31L841,31L835,32L834,32L832,35L833,37L833,42L832,47L833,48L836,49L838,49L838,53L835,53L833,51L831,49L828,48L827,46L824,47L821,47L819,45L816,44L814,44L814,43L813,43L811,43L808,43L806,43L805,44L805,38L804,37L803,34L804,31L803,30L803,27L798,27L798,25L796,25L796,26L793,26L792,29L791,30L789,29L787,30L785,30L783,28L782,27L781,24L780,21L767,21L765,21L764,21L762,22L762,20L763,20L763,18L763,17L765,16L766,16L768,15L770,15L770,16L772,17L775,14L777,12L778,10L778,7L780,3L782,0L785,-2L785,-3L785,-5L786,-6L786,-9L786,-13L787,-15L789,-18L789,-20L789,-23L791,-26L793,-27L797,-26L800,-24L803,-23L806,-23L807,-25L808,-26L810,-25L815,-27L817,-26L818,-27L819,-28L820,-28L824,-28L826,-27L828,-28L830,-24L832,-24L834,-24L836,-24L838,-25L839,-23L843,-20L843,-15L844,-15L843,-13L841,-12L840,-10L839,-8L838,-4L837,-2L837,1L836,2L836,5L835,5L835,7L836,9Z" fill="#E0E0E0" stroke="#fff" stroke-width=".4"/><path d="M890,2L887,-1L887,-17L891,-22L892,-24L895,-24L899,-27L905,-27L917,-40L920,-44L922,-46L922,-49L922,-53L922,-55L922,-55L923,-55L925,-56L928,-56L930,-58L931,-58L931,-57L931,-54L931,-52L930,-50L929,-45L927,-40L924,-35L920,-28L917,-23L912,-17L907,-14L901,-10L897,-6L892,-1L891,1Z" fill="#E0E0E0" stroke="#fff" stroke-width=".4"/><path d="M879,15L873,11L873,8L857,-0L856,-1L856,-6L857,-7L860,-10L861,-13L859,-18L859,-21L857,-24L859,-26L862,-29L865,-28L865,-26L866,-24L869,-24L875,-21L876,-21L877,-21L878,-20L881,-20L882,-22L886,-24L888,-22L891,-22L887,-17L887,-1L890,2L887,4L886,6L884,6L883,9L882,11L881,14Z" fill="#E0E0E0" stroke="#fff" stroke-width=".4"/><path d="M816,-41L812,-43L811,-44L810,-46L811,-47L811,-49L809,-52L808,-54L808,-55L807,-56L807,-59L806,-61L804,-60L805,-62L806,-64L805,-66L807,-67L806,-68L807,-71L809,-74L813,-74L812,-92L812,-94L817,-94L817,-103L835,-103L852,-103L869,-103L871,-99L870,-98L870,-93L872,-88L874,-87L876,-85L874,-82L871,-82L869,-80L869,-77L867,-70L867,-69L867,-65L865,-60L862,-58L860,-55L860,-53L858,-52L857,-47L857,-43L857,-47L856,-47L856,-49L856,-50L853,-52L853,-55L853,-59L851,-59L851,-58L848,-58L849,-56L850,-54L847,-51L845,-48L843,-48L839,-50L838,-49L837,-48L835,-47L835,-46L830,-46L830,-47L827,-47L825,-47L824,-47L822,-49L821,-51L818,-50L817,-48L815,-44L814,-43L813,-43Z" fill="#E0E0E0" stroke="#fff" stroke-width=".4"/><path d="M812,-92L813,-74L809,-74L807,-71L806,-68L807,-67L805,-66L806,-64L805,-62L804,-60L806,-61L807,-59L807,-56L808,-55L808,-54L805,-53L803,-51L800,-47L796,-45L792,-45L790,-44L791,-43L789,-41L787,-40L781,-38L780,-39L779,-39L779,-38L775,-38L776,-39L774,-42L774,-44L772,-44L769,-47L770,-49L772,-49L773,-49L776,-49L773,-53L774,-56L773,-59L772,-62L772,-64L769,-64L769,-67L767,-68L769,-74L775,-79L775,-85L777,-94L778,-96L776,-98L776,-99L774,-100L773,-108L778,-110L795,-101Z" fill="#E0E0E0" stroke="#fff" stroke-width=".4"/><path d="M395,-93L396,-90L396,-89L394,-88L396,-86L395,-85L393,-86L391,-86L388,-86L386,-85L383,-86L384,-88L388,-87L391,-87L393,-88L391,-90L391,-92L388,-92L389,-94L392,-94Z" fill="#E0E0E0" stroke="#fff" stroke-width=".4"/><path d="M395,-85L396,-86L394,-88L396,-89L396,-90L395,-93L396,-94L399,-94L402,-92L403,-92L404,-91L406,-91L406,-90L408,-89L410,-88L409,-86L407,-87L405,-87L403,-87L402,-86L401,-86L400,-87L399,-86L397,-83L396,-84Z" fill="#E0E0E0" stroke="#fff" stroke-width=".4"/><path d="M364,-126L366,-127L369,-127L369,-125L364,-125ZM369,-128L372,-125L372,-122L371,-123L371,-125L369,-127ZM367,-119L369,-119L370,-115L370,-112L369,-112L368,-114L366,-116Z" fill="#E0E0E0" stroke="#fff" stroke-width=".4"/><path d="M441,260L447,256L450,258L453,255L456,258L455,261L449,263L447,260L444,264Z" fill="#E0E0E0" stroke="#fff" stroke-width=".4"/><path d="M780,125L782,123L783,124L784,126L786,127L789,128L791,127L795,125L795,107L796,107L799,112L799,115L800,117L803,116L805,114L807,112L808,110L810,109L812,110L814,111L818,111L820,110L821,109L822,106L824,106L825,104L827,101L831,97L837,94L839,94L841,95L842,94L844,95L847,101L848,105L847,110L847,112L845,111L844,111L843,113L842,114L842,116L845,119L847,118L848,116L852,116L851,120L850,124L849,126L846,129L845,129L843,132L842,134L839,138L835,143L831,146L828,149L824,151L821,151L821,153L818,152L816,153L811,152L809,152L807,152L802,154L799,155L796,157L794,157L792,155L791,155L789,153L789,154L788,152L788,149L787,146L788,145L788,141L785,136L783,132L783,132ZM835,127L833,126L831,127L828,129L826,132L829,136L831,135L832,133L834,133L835,131L836,129Z" fill="#E0E0E0" stroke="#fff" stroke-width=".4"/><path d="M835,127L836,129L835,131L834,133L832,133L831,135L829,136L826,132L828,129L831,127L833,126Z" fill="#E0E0E0" stroke="#fff" stroke-width=".4"/><path d="M197,-155L202,-156L208,-156L207,-155L214,-153L224,-149L233,-149L236,-149L236,-151L244,-151L245,-149L247,-148L250,-146L251,-143L253,-140L255,-139L258,-137L261,-141L265,-141L268,-139L270,-136L272,-133L274,-130L275,-127L276,-124L280,-123L283,-122L284,-122L283,-118L282,-114L282,-108L281,-106L282,-103L283,-101L284,-97L287,-94L288,-91L290,-89L295,-87L296,-86L300,-87L304,-87L307,-88L310,-89L312,-91L313,-94L314,-97L314,-99L317,-100L322,-101L326,-101L329,-101L330,-100L329,-98L327,-95L326,-92L327,-92L326,-90L325,-86L324,-87L323,-87L322,-87L321,-84L320,-85L319,-85L319,-84L315,-84L311,-84L311,-81L309,-81L311,-80L313,-79L313,-78L314,-78L314,-76L308,-76L306,-72L307,-72L306,-70L306,-69L301,-74L299,-75L295,-77L293,-76L289,-75L287,-74L284,-75L281,-76L277,-78L273,-79L268,-81L265,-83L264,-85L261,-85L257,-86L255,-88L250,-91L248,-94L247,-96L248,-97L248,-98L249,-99L249,-101L248,-103L247,-105L246,-107L242,-112L237,-116L235,-119L232,-121L231,-122L231,-125L229,-126L227,-128L226,-132L223,-132L221,-135L219,-137L218,-139L216,-142L215,-146L215,-148L212,-150L210,-150L208,-152L207,-149L208,-147L208,-143L209,-141L213,-138L213,-136L214,-136L215,-134L215,-134L216,-131L218,-130L219,-128L221,-126L223,-121L224,-119L225,-117L226,-114L228,-114L229,-112L231,-110L231,-109L229,-107L228,-107L227,-110L224,-113L221,-115L219,-116L219,-120L218,-123L216,-124L213,-126L213,-126L212,-127L209,-128L206,-131L207,-131L208,-131L210,-133L210,-135L207,-139L204,-140L203,-143L201,-147L199,-151Z" fill="#E0E0E0" stroke="#fff" stroke-width=".4"/><path d="M457,133L460,133L464,137L466,137L470,140L474,143L476,146L474,149L475,152L474,155L469,158L465,157L463,157L459,155L456,155L453,152L454,149L455,148L455,143L456,137Z" fill="#E0E0E0" stroke="#fff" stroke-width=".4"/><path d="M475,152L474,149L476,146L474,143L470,140L466,137L464,137L460,133L457,133L463,127L468,122L471,120L474,117L474,113L472,110L470,111L471,108L471,106L471,103L470,102L468,103L467,103L466,101L466,97L465,95L462,94L460,95L456,94L456,87L455,85L456,84L455,81L457,79L457,76L456,73L454,72L454,70L454,67L446,67L444,62L445,62L445,60L445,58L444,56L442,54L439,54L437,53L434,52L433,51L428,50L423,46L423,43L423,41L423,38L418,39L415,40L411,42L410,43L408,43L405,43L403,44L401,43L401,37L397,39L393,39L392,37L389,36L390,35L387,32L386,28L387,27L387,25L389,24L389,22L390,20L390,18L395,15L399,14L399,14L403,14L405,2L405,-0L405,-3L403,-4L403,-7L405,-8L406,-8L406,-9L404,-10L404,-13L412,-12L414,-14L415,-13L416,-10L417,-10L419,-8L422,-8L423,-10L426,-11L428,-12L429,-13L432,-15L432,-16L428,-16L427,-19L428,-22L426,-23L426,-23L430,-23L433,-21L434,-23L437,-23L442,-25L444,-27L443,-28L446,-28L447,-27L446,-25L448,-24L449,-22L447,-21L447,-17L448,-15L448,-13L451,-11L453,-11L453,-11L455,-12L457,-12L458,-14L461,-13L462,-13L464,-13L464,-14L464,-15L464,-16L466,-16L468,-16L470,-15L472,-14L474,-15L475,-15L475,-14L477,-14L479,-16L480,-19L483,-23L484,-23L486,-21L488,-13L490,-13L490,-10L487,-6L488,-5L496,-4L496,0L500,-2L505,-1L512,2L515,4L514,7L519,5L527,8L534,8L540,11L546,16L549,17L553,17L555,19L556,24L557,27L555,34L553,37L547,43L544,48L541,52L540,52L538,56L539,64L537,71L537,74L536,76L535,82L530,88L530,93L526,95L525,98L520,98L514,100L510,102L506,103L500,107L497,112L496,116L497,118L496,123L495,126L492,128L487,137L483,141L480,144L478,149Z" fill="#E0E0E0" stroke="#fff" stroke-width=".4"/><path d="M405,43L408,43L410,43L411,42L415,40L418,39L423,38L423,41L423,43L423,46L428,50L433,51L434,52L437,53L439,54L442,54L444,56L445,58L445,60L445,62L444,62L446,67L454,67L454,70L454,72L456,73L457,76L457,79L455,81L456,84L455,85L454,83L450,81L446,81L439,82L437,86L437,89L435,95L434,94L429,93L427,97L425,94L419,93L416,97L412,98L411,91L408,86L410,81L407,79L407,76L405,73L407,68L406,64L407,63L406,61L408,59L408,55L408,52L409,50Z" fill="#E0E0E0" stroke="#fff" stroke-width=".4"/><path d="M403,14L399,14L399,14L395,15L390,18L390,20L389,22L389,24L387,25L387,27L386,28L387,32L390,35L389,36L392,37L393,39L397,39L401,37L401,43L403,44L405,43L409,50L408,52L408,55L408,59L406,61L407,63L406,64L407,68L405,73L404,75L401,76L397,74L397,72L388,67L380,62L377,60L375,56L376,55L372,49L368,41L363,32L362,30L360,26L357,24L354,22L355,20L353,16L354,13L358,10L358,12L357,13L357,14L359,14L361,14L363,17L365,15L366,12L369,8L374,6L379,2L380,-1L379,-4L381,-5L384,-3L385,-1L387,0L390,5L393,6L395,4L397,5L399,5L403,7L400,11L401,11Z" fill="#E0E0E0" stroke="#fff" stroke-width=".4"/><path d="M417,-10L416,-10L415,-13L414,-14L412,-12L404,-13L404,-10L406,-9L406,-8L405,-8L403,-7L403,-4L405,-3L405,-0L405,2L403,14L401,11L400,11L403,7L399,5L397,5L395,4L393,6L390,5L387,0L385,-1L384,-3L381,-5L379,-4L378,-5L375,-7L374,-6L371,-7L369,-9L369,-9L364,-11L364,-12L365,-13L365,-15L366,-17L368,-17L370,-20L372,-22L370,-23L371,-25L370,-29L371,-31L370,-34L369,-37L369,-39L370,-38L371,-40L370,-42L371,-43L373,-43L376,-46L378,-46L378,-48L379,-52L382,-54L384,-54L385,-55L388,-54L391,-57L393,-58L395,-60L397,-59L398,-58L397,-57L394,-56L393,-54L392,-53L390,-51L390,-48L388,-45L391,-45L391,-43L392,-42L393,-40L392,-38L392,-38L393,-37L394,-36L400,-36L403,-35L406,-32L407,-32L410,-32L413,-32L415,-32L414,-29L413,-28L412,-25L413,-22L415,-20L415,-20L412,-17L414,-16L415,-15Z" fill="#E0E0E0" stroke="#fff" stroke-width=".4"/><path d="M371,-43L370,-42L371,-40L370,-38L369,-39L369,-37L367,-38L366,-40L367,-41L366,-42L365,-43L363,-44L361,-44L360,-43L359,-42L358,-41L357,-40L359,-38L358,-37L357,-37L355,-37L355,-39L354,-38L353,-39L352,-41L350,-41L349,-41L347,-41L347,-40L346,-41L347,-42L347,-43L347,-44L347,-44L347,-45L346,-47L348,-47L350,-45L350,-44L351,-44L352,-45L353,-44L355,-44L357,-45L360,-46L361,-47L364,-47L363,-46L366,-46L368,-46L369,-44Z" fill="#E0E0E0" stroke="#fff" stroke-width=".4"/><path d="M348,-47L346,-47L347,-45L347,-44L347,-44L347,-43L347,-42L346,-41L344,-42L343,-43L344,-44L343,-45L342,-46L341,-47L339,-47L339,-48L338,-49L338,-48L337,-47L336,-48L335,-49L334,-49L334,-51L335,-52L333,-53L334,-54L335,-54L338,-53L339,-54L340,-53L341,-52L342,-52L343,-53L344,-51L346,-49Z" fill="#E0E0E0" stroke="#fff" stroke-width=".4"/><path d="M343,-53L342,-52L341,-52L340,-53L339,-54L338,-53L335,-54L334,-54L333,-55L331,-57L330,-58L328,-60L326,-62L326,-63L327,-62L327,-62L329,-62L329,-63L330,-63L330,-66L331,-66L332,-66L333,-67L334,-66L334,-67L335,-67L337,-68L337,-69L337,-69L338,-70L338,-70L339,-70L340,-70L341,-70L342,-70L343,-71L344,-71L346,-71L345,-71L345,-70L345,-68L344,-67L344,-65L344,-63L344,-62L344,-60L343,-59L343,-57L343,-56L342,-55L343,-54Z" fill="#E0E0E0" stroke="#fff" stroke-width=".4"/><path d="M346,-71L344,-71L343,-71L342,-70L341,-70L340,-70L339,-70L338,-70L338,-70L337,-69L337,-69L337,-68L335,-67L334,-67L334,-66L333,-67L332,-66L331,-66L330,-66L330,-63L329,-63L329,-62L327,-62L327,-64L325,-64L326,-66L325,-66L324,-67L322,-66L322,-67L321,-67L320,-68L318,-69L319,-70L319,-71L319,-72L321,-73L323,-75L324,-74L325,-75L326,-75L326,-75L327,-75L329,-75L331,-75L333,-75L333,-76L334,-76L336,-75L337,-75L338,-76L340,-75L340,-75L342,-74L343,-73L344,-72Z" fill="#E0E0E0" stroke="#fff" stroke-width=".4"/><path d="M318,-69L320,-68L321,-67L322,-67L322,-66L324,-67L325,-66L326,-66L325,-64L325,-63L322,-63L321,-63L319,-64L316,-65L315,-66L315,-66L317,-67L318,-68L317,-68Z" fill="#E0E0E0" stroke="#fff" stroke-width=".4"/><path d="M306,-69L306,-70L307,-72L306,-72L308,-76L314,-76L314,-78L313,-78L313,-79L311,-80L309,-81L311,-81L311,-84L315,-84L319,-84L319,-80L319,-75L320,-75L322,-74L322,-75L323,-75L321,-73L319,-72L319,-71L319,-70L318,-69L317,-68L318,-68L317,-67L315,-66L315,-66L313,-66L310,-66L308,-67Z" fill="#E0E0E0" stroke="#fff" stroke-width=".4"/><path d="M319,-84L319,-85L320,-85L321,-84L322,-87L323,-87L323,-87L324,-86L324,-85L323,-83L324,-83L323,-81L323,-80L323,-78L322,-77L321,-77L320,-75L319,-75L319,-80Z" fill="#E0E0E0" stroke="#fff" stroke-width=".4"/><path d="M443,-28L444,-27L442,-25L437,-23L434,-23L433,-21L430,-23L426,-23L426,-23L428,-22L427,-19L428,-16L432,-16L432,-15L429,-13L428,-12L426,-11L423,-10L422,-8L419,-8L417,-10L415,-15L414,-16L412,-17L415,-20L415,-20L413,-22L412,-25L413,-28L414,-29L415,-32L413,-32L410,-32L407,-32L406,-32L403,-35L400,-36L394,-36L393,-37L392,-38L392,-38L393,-40L392,-42L391,-43L391,-45L388,-45L390,-48L390,-51L392,-53L393,-54L394,-56L397,-57L397,-56L394,-55L396,-53L396,-51L394,-48L396,-45L397,-45L398,-48L397,-50L397,-53L402,-55L402,-57L403,-58L405,-55L408,-55L411,-53L411,-51L415,-51L419,-52L422,-50L425,-49L428,-51L428,-52L433,-52L438,-52L435,-51L436,-49L440,-48L443,-46L444,-43L446,-43L448,-42L444,-39L444,-37L445,-36L444,-35L441,-34L442,-32L440,-31Z" fill="#E0E0E0" stroke="#fff" stroke-width=".4"/><path d="M462,-13L461,-13L458,-14L457,-12L455,-12L453,-11L453,-11L451,-11L448,-13L448,-15L447,-17L447,-21L449,-22L448,-24L446,-25L447,-27L446,-28L443,-28L440,-31L442,-32L441,-34L444,-35L445,-36L444,-37L444,-39L448,-42L450,-40L453,-37L453,-35L455,-35L457,-33L459,-31L458,-27L456,-26L456,-25L455,-23L457,-20L458,-20L459,-17Z" fill="#E0E0E0" stroke="#fff" stroke-width=".4"/><path d="M470,-15L468,-16L466,-16L464,-16L464,-15L464,-14L464,-13L462,-13L459,-17L458,-20L457,-20L455,-23L456,-25L456,-26L458,-27L459,-31L464,-30L465,-31L468,-31L473,-30L471,-26L471,-23L473,-21L472,-19L472,-17Z" fill="#E0E0E0" stroke="#fff" stroke-width=".4"/><path d="M483,-23L480,-19L479,-16L477,-14L475,-14L475,-15L474,-15L472,-14L470,-15L472,-17L472,-19L473,-21L471,-23L471,-26L473,-30L474,-30L478,-29L482,-25ZM735,-254L737,-252L744,-251L741,-247L741,-242L740,-241L738,-241L738,-240L735,-236L735,-233L737,-234L738,-232L738,-230L739,-227L738,-226L739,-221L741,-220L741,-217L737,-214L728,-216L722,-214L721,-210L716,-209L711,-212L710,-211L702,-213L700,-216L702,-219L703,-232L699,-238L695,-242L689,-244L688,-249L694,-250L701,-249L700,-256L704,-253L714,-259L716,-264L719,-266L720,-263L722,-263L724,-260L727,-257L729,-258L733,-255L734,-254ZM747,-211L749,-213L750,-208L749,-204L747,-205L746,-209Z" fill="#E0E0E0" stroke="#fff" stroke-width=".4"/><path d="M379,-4L380,-1L379,2L374,6L369,8L366,12L365,15L363,17L361,14L359,14L357,14L357,13L358,12L358,10L360,7L359,5L358,7L355,5L356,4L355,-0L357,-1L358,-4L359,-7L359,-8L361,-9L364,-11L369,-9L369,-9L371,-7L374,-6L375,-7L378,-5Z" fill="#E0E0E0" stroke="#fff" stroke-width=".4"/><path d="M419,-87L421,-87L422,-86L421,-85L418,-85L415,-85L415,-87L416,-87Z" fill="#E0E0E0" stroke="#fff" stroke-width=".4"/><path d="M370,-87L373,-87L375,-86L376,-84L373,-84L371,-84L369,-84L367,-86L367,-87L369,-87Z" fill="#E0E0E0" stroke="#fff" stroke-width=".4"/><path d="M349,-109L353,-109L357,-109L361,-107L362,-105L367,-106L368,-105L372,-102L374,-100L376,-100L378,-99L378,-98L381,-97L385,-95L384,-94L381,-94L378,-94L375,-94L369,-93L372,-96L370,-97L367,-98L366,-99L365,-102L362,-101L358,-103L357,-104L351,-104L350,-105L351,-106L347,-107L344,-104L342,-104L342,-103L339,-103L338,-103L340,-104L341,-106L343,-107L345,-108L348,-109Z" fill="#E0E0E0" stroke="#fff" stroke-width=".4"/><path d="M844,95L842,94L841,95L839,94L837,94L834,92L831,91L829,88L829,86L827,86L823,81L821,78L820,77L819,74L823,74L825,75L826,75L829,72L833,68L834,67L835,66L837,64L840,63L841,65L844,65L846,66L847,67L849,67L852,69L852,75L851,78L851,81L851,83L851,85L850,86L849,89Z" fill="#E0E0E0" stroke="#fff" stroke-width=".4"/><path d="M837,94L831,97L827,101L825,104L824,106L822,106L821,109L820,110L818,111L814,111L812,110L810,109L808,110L807,112L805,114L803,116L800,117L799,115L799,112L796,107L795,107L795,93L799,93L800,76L803,76L810,74L811,76L814,74L815,74L818,73L819,74L820,77L821,78L823,81L827,86L829,86L829,88L831,91L834,92Z" fill="#E0E0E0" stroke="#fff" stroke-width=".4"/><path d="M795,107L795,125L791,127L789,128L786,127L784,126L783,124L782,123L780,125L776,121L775,118L774,113L773,110L771,102L771,97L771,94L769,92L767,88L764,83L763,80L760,75L760,72L762,71L764,70L767,70L770,72L770,72L788,72L791,74L802,75L810,73L813,72L816,72L818,73L818,73L815,74L814,74L811,76L810,74L803,76L800,76L799,93L795,93Z" fill="#E0E0E0" stroke="#fff" stroke-width=".4"/><path d="M635,-65L634,-68L631,-70L633,-71L635,-74L637,-76L638,-78L640,-77L642,-78L645,-78L647,-77L650,-76L652,-73L655,-70L655,-67L656,-64L658,-63L658,-61L658,-60L657,-60L655,-60L655,-59L654,-59L651,-60L649,-60L641,-61L639,-60L638,-60L636,-59L635,-63L639,-63L640,-63L641,-63L642,-65L644,-64L646,-64L648,-65L647,-66L646,-65L644,-65L643,-66L641,-66L640,-65Z" fill="#E0E0E0" stroke="#fff" stroke-width=".4"/><path d="M658,-60L658,-61L658,-63L656,-64L655,-67L655,-70L657,-70L657,-73L659,-73L662,-72L664,-73L666,-72L667,-73L684,-74L685,-77L684,-77L682,-97L680,-118L687,-118L702,-107L716,-97L717,-95L720,-93L722,-93L722,-90L727,-90L727,-80L725,-77L724,-74L720,-73L714,-73L713,-71L710,-71L707,-71L706,-72L704,-71L700,-69L699,-68L695,-66L695,-65L693,-64L691,-64L690,-63L689,-60L686,-56L686,-55L684,-53L685,-51L683,-50L682,-49L681,-51L680,-51L679,-51L678,-50L675,-50L674,-50L673,-50L672,-51L672,-52L672,-53L671,-52L671,-54L672,-55L670,-57L670,-58L669,-59L668,-59L667,-59L665,-58L664,-57L662,-57L661,-59L660,-59L659,-58L658,-58Z" fill="#E0E0E0" stroke="#fff" stroke-width=".4"/><path d="M634,-99L635,-100L652,-100L651,-107L652,-110L656,-110L656,-122L670,-122L670,-129L687,-118L680,-118L682,-97L684,-77L685,-77L684,-74L667,-73L666,-72L664,-73L662,-72L659,-73L657,-73L657,-70L655,-70L652,-73L650,-76L647,-77L645,-78L642,-78L640,-77L638,-78L637,-76L636,-79L637,-81L638,-85L637,-90L637,-92L637,-95L636,-97Z" fill="#E0E0E0" stroke="#fff" stroke-width=".4"/><path d="M720,-32L717,-32L715,-35L716,-45L715,-46L715,-48L713,-50L712,-51L712,-53L714,-54L715,-56L717,-56L718,-58L719,-59L721,-59L724,-56L724,-55L725,-52L724,-50L725,-49L722,-46L721,-45L720,-42L720,-39Z" fill="#E0E0E0" stroke="#fff" stroke-width=".4"/><path d="M773,-108L774,-100L776,-99L776,-98L778,-96L777,-94L775,-85L775,-79L769,-74L767,-68L769,-67L769,-64L772,-64L772,-62L770,-61L770,-60L769,-60L766,-65L765,-65L762,-62L759,-64L756,-64L755,-63L752,-63L750,-62L748,-61L742,-64L740,-63L738,-63L736,-64L732,-66L727,-66L726,-65L726,-62L724,-60L724,-56L721,-59L719,-59L718,-58L718,-61L713,-62L713,-64L710,-67L710,-69L710,-71L713,-71L714,-73L720,-73L724,-74L725,-77L727,-80L727,-90L733,-92L746,-101L761,-110L768,-108L770,-106Z" fill="#E0E0E0" stroke="#fff" stroke-width=".4"/><path d="M720,-32L720,-39L720,-42L721,-45L722,-46L725,-49L724,-50L725,-52L724,-55L724,-56L724,-60L726,-62L726,-65L727,-66L732,-66L736,-64L738,-63L740,-63L742,-64L748,-61L750,-62L752,-63L755,-63L756,-64L759,-64L762,-62L765,-65L766,-65L769,-60L770,-60L772,-58L771,-57L771,-56L768,-52L766,-50L766,-47L765,-46L764,-43L762,-41L761,-39L760,-37L760,-36L757,-34L754,-36L753,-36L750,-33L749,-33L747,-29L745,-26L741,-24L739,-25L738,-24L734,-24L732,-26L730,-30L727,-32L724,-32Z" fill="#E0E0E0" stroke="#fff" stroke-width=".4"/><path d="M772,-62L773,-59L774,-56L773,-53L776,-49L773,-49L772,-49L770,-49L769,-47L772,-44L774,-44L774,-42L776,-39L775,-38L773,-33L772,-32L771,-29L772,-27L772,-26L774,-23L774,-22L776,-20L778,-18L778,-16L778,-15L778,-13L774,-14L771,-15L765,-15L765,-15L762,-15L760,-15L758,-15L750,-15L751,-18L749,-21L747,-22L747,-24L745,-25L745,-26L747,-29L749,-33L750,-33L753,-36L754,-36L757,-34L760,-36L760,-37L761,-39L762,-41L764,-43L765,-46L766,-47L766,-50L768,-52L771,-56L771,-57L772,-58L770,-60L770,-61Z" fill="#E0E0E0" stroke="#fff" stroke-width=".4"/><path d="M712,-53L712,-51L713,-50L715,-48L715,-46L716,-45L715,-35L717,-32L713,-31L712,-32L711,-35L711,-37L711,-41L710,-43L710,-47L710,-50L708,-52L708,-53Z" fill="#E0E0E0" stroke="#fff" stroke-width=".4"/><path d="M708,-53L708,-52L710,-50L710,-47L710,-43L711,-41L711,-37L711,-35L712,-32L713,-31L706,-28L704,-27L700,-26L696,-27L696,-29L694,-32L695,-37L697,-41L696,-47L695,-51L696,-53L703,-53L705,-53L706,-54Z" fill="#E0E0E0" stroke="#fff" stroke-width=".4"/><path d="M673,-50L674,-50L675,-50L678,-50L679,-51L680,-51L681,-51L682,-49L683,-50L685,-51L687,-50L688,-48L689,-47L691,-48L693,-48L696,-47L697,-41L695,-37L694,-32L696,-29L696,-27L694,-27L691,-28L688,-28L683,-27L680,-26L676,-24L675,-24L675,-28L675,-28L675,-30L673,-32L672,-32L671,-33L672,-35L671,-37L672,-39L672,-39L672,-41L672,-41L673,-42L674,-43L673,-46L672,-48L672,-49Z" fill="#E0E0E0" stroke="#fff" stroke-width=".4"/><path d="M649,-60L651,-60L654,-59L655,-59L655,-60L657,-60L658,-60L658,-58L659,-58L660,-59L661,-59L662,-57L664,-57L665,-58L667,-59L668,-59L669,-59L670,-58L670,-57L672,-55L671,-54L671,-52L672,-53L672,-52L672,-51L673,-50L672,-49L672,-48L673,-46L674,-43L673,-42L672,-41L672,-41L672,-39L672,-39L670,-39L669,-37L668,-37L667,-38L668,-40L666,-42L665,-42L664,-42L663,-42L663,-43L662,-44L662,-46L661,-48L660,-49L656,-49L655,-48L654,-48L653,-47L653,-46L651,-44L649,-47L647,-48L646,-49L645,-50L644,-52L644,-53L642,-54L644,-56L646,-56L647,-56L648,-56L648,-57L648,-58L649,-59Z" fill="#E0E0E0" stroke="#fff" stroke-width=".4"/><path d="M636,-59L638,-60L639,-60L641,-61L649,-60L649,-59L648,-58L648,-57L648,-56L647,-56L646,-56L644,-56L642,-54L640,-55L638,-56L637,-57L637,-58L636,-59Z" fill="#E0E0E0" stroke="#fff" stroke-width=".4"/><path d="M672,-39L671,-37L672,-35L671,-33L672,-32L673,-32L675,-30L675,-28L675,-28L675,-24L674,-24L669,-26L665,-29L661,-32L658,-35L659,-36L660,-37L662,-40L664,-42L665,-42L666,-42L668,-40L667,-38L668,-37L669,-37L670,-39Z" fill="#E0E0E0" stroke="#fff" stroke-width=".4"/><path d="M651,-44L653,-46L653,-47L654,-48L655,-48L656,-49L660,-49L661,-48L662,-46L662,-44L663,-43L663,-42L664,-42L662,-40L660,-37L659,-36L658,-35L657,-35L654,-37L652,-39L651,-41Z" fill="#E0E0E0" stroke="#fff" stroke-width=".4"/><path d="M685,-51L684,-53L686,-55L686,-56L689,-60L690,-63L691,-64L693,-64L695,-65L695,-66L699,-68L700,-69L704,-71L706,-72L707,-71L710,-71L710,-69L710,-67L713,-64L713,-62L718,-61L718,-58L717,-56L715,-56L714,-54L712,-53L708,-53L706,-54L705,-53L703,-53L696,-53L695,-51L696,-47L693,-48L691,-48L689,-47L688,-48L687,-50Z" fill="#E0E0E0" stroke="#fff" stroke-width=".4"/><path d="M828,-28L826,-27L824,-28L820,-28L819,-28L818,-27L817,-26L815,-27L810,-25L808,-26L807,-25L806,-23L803,-23L800,-24L797,-26L793,-27L791,-26L789,-23L789,-20L786,-21L783,-21L781,-19L778,-15L778,-16L778,-18L776,-20L774,-22L774,-23L772,-26L772,-27L771,-29L772,-32L773,-33L775,-38L779,-38L779,-39L780,-39L781,-38L787,-40L789,-41L791,-43L790,-44L792,-45L796,-45L800,-47L803,-51L805,-53L808,-54L809,-52L811,-49L811,-47L810,-46L811,-44L812,-43L816,-41L818,-39L818,-38L821,-36L823,-34L824,-31L827,-29Z" fill="#E0E0E0" stroke="#fff" stroke-width=".4"/><path d="M789,-20L789,-18L787,-15L786,-13L786,-9L786,-6L785,-5L785,-3L785,-2L782,0L780,3L778,7L778,10L777,12L775,14L772,17L770,16L770,15L768,15L766,16L765,16L763,14L762,15L760,17L757,12L760,10L758,7L760,6L763,5L763,3L766,6L769,6L771,4L771,1L771,-3L769,-5L771,-10L770,-11L766,-11L765,-13L765,-15L771,-15L774,-14L778,-13L778,-15L781,-19L783,-21L786,-21Z" fill="#E0E0E0" stroke="#fff" stroke-width=".4"/><path d="M758,-15L760,-15L762,-15L765,-15L765,-15L765,-13L766,-11L770,-11L771,-10L769,-5L771,-3L771,1L771,4L769,6L766,6L763,3L763,5L760,6L758,7L760,10L757,12L752,8L749,4L747,-0L747,-2L748,-3L749,-6L750,-9L751,-10L758,-10Z" fill="#E0E0E0" stroke="#fff" stroke-width=".4"/><path d="M750,-15L758,-15L758,-10L751,-10L750,-9L749,-10Z" fill="#E0E0E0" stroke="#fff" stroke-width=".4"/><path d="M842,31L844,33L846,33L849,34L851,35L853,37L854,41L854,42L853,46L854,50L852,51L851,55L853,57L840,60L840,63L837,64L835,66L834,67L833,68L829,72L826,75L825,75L823,74L819,74L818,73L818,73L816,72L813,72L810,73L807,70L804,66L804,52L813,52L813,50L813,49L813,46L813,44L813,43L814,43L814,44L816,44L819,45L821,47L824,47L827,46L828,48L831,49L833,51L835,53L838,53L838,49L836,49L833,48L832,47L833,42L833,37L832,35L834,32L835,32L841,31Z" fill="#E0E0E0" stroke="#fff" stroke-width=".4"/><path d="M851,35L856,36L856,37L858,40L859,46L858,49L859,55L861,55L862,56L864,59L864,65L863,66L861,69L858,67L858,63L859,61L859,59L857,58L856,59L853,57L851,55L852,51L854,50L853,46L854,42L854,41L853,37Z" fill="#E0E0E0" stroke="#fff" stroke-width=".4"/><path d="M859,46L862,45L868,46L869,46L872,46L873,44L876,45L881,43L884,40L885,42L885,47L885,51L886,58L886,60L885,63L883,66L880,69L877,71L872,73L867,78L865,79L862,82L860,83L860,86L862,90L863,93L863,94L864,94L863,98L863,101L864,101L863,103L861,105L858,107L852,109L850,111L851,113L852,114L852,116L848,116L848,114L847,112L847,110L848,105L847,101L844,95L849,89L850,86L851,85L851,83L851,81L851,78L852,75L852,69L849,67L847,67L846,66L844,65L841,65L840,63L840,60L853,57L856,59L857,58L859,59L859,61L858,63L858,67L861,69L863,66L864,65L864,59L862,56L861,55L859,55L858,49Z" fill="#E0E0E0" stroke="#fff" stroke-width=".4"/><path d="M848,116L847,118L845,119L842,116L842,114L843,113L844,111L845,111L847,112L848,114Z" fill="#E0E0E0" stroke="#fff" stroke-width=".4"/><path d="M765,16L763,17L763,18L763,20L762,20L760,17L762,15L763,14ZM762,22L764,21L765,21L767,21L780,21L781,24L782,27L783,28L785,30L787,30L789,29L791,30L792,29L793,26L796,26L796,25L798,25L798,27L803,27L803,30L804,31L803,34L804,37L805,38L805,44L806,43L808,43L811,43L813,43L813,44L813,46L813,49L813,50L813,52L804,52L804,66L807,70L810,73L802,75L791,74L788,72L770,72L770,72L767,70L764,70L762,71L760,72L759,69L760,65L761,61L761,59L763,55L764,53L766,50L768,48L768,45L768,42L767,40L766,38L765,35L765,34L766,32L765,28L764,25L762,22Z" fill="#E0E0E0" stroke="#fff" stroke-width=".4"/><path d="M841,6L842,7L842,8L843,10L841,11L840,13L838,14L836,15L836,9L835,7L838,8L839,5Z" fill="#E0E0E0" stroke="#fff" stroke-width=".4"/><path d="M864,-156L863,-155L862,-155L861,-152L862,-151L861,-151L861,-149L863,-150L863,-148L861,-140L860,-141L858,-149L859,-150L859,-151L860,-153L861,-157L862,-158L862,-158L863,-158L863,-159L865,-159L865,-157L864,-156Z" fill="#E0E0E0" stroke="#fff" stroke-width=".4"/><path d="M865,-159L863,-159L863,-158L862,-158L863,-162L865,-166L865,-166L867,-166L868,-164L866,-162Z" fill="#E0E0E0" stroke="#fff" stroke-width=".4"/><path d="M925,50L926,52L927,55L927,60L929,62L928,64L927,66L926,63L925,64L926,68L926,70L924,71L924,75L922,80L920,86L917,95L916,102L914,107L910,109L906,111L904,109L901,108L899,105L899,101L897,97L897,94L898,90L900,89L900,88L902,84L902,81L901,79L901,76L900,72L902,70L902,67L904,67L907,66L909,65L910,65L913,62L917,59L918,57L917,55L919,56L921,53L922,50L923,48Z" fill="#E0E0E0" stroke="#fff" stroke-width=".4"/><path d="M863,-150L861,-149L861,-151L862,-151L861,-152L862,-155L863,-155L863,-151Z" fill="#E0E0E0" stroke="#fff" stroke-width=".4"/><path d="M635,-65L640,-65L641,-66L643,-66L644,-65L646,-65L647,-66L648,-65L646,-64L644,-64L642,-65L641,-63L640,-63L639,-63L635,-63Z" fill="#E0E0E0" stroke="#fff" stroke-width=".4"/><path d="M750,-144L748,-153L745,-155L745,-156L742,-160L741,-163L744,-166L745,-171L744,-176L745,-179L750,-181L753,-180L753,-178L756,-180L757,-178L755,-176L755,-173L756,-172L756,-167L753,-165L753,-162L756,-162L757,-159L758,-158L758,-154L756,-153L755,-151L752,-149L752,-147L752,-145Z" fill="#E0E0E0" stroke="#fff" stroke-width=".4"/><path d="M670,-129L671,-130L671,-131L671,-137L678,-140L682,-141L685,-142L687,-145L692,-147L692,-151L695,-151L697,-153L703,-154L703,-156L702,-157L701,-163L701,-166L699,-169L703,-172L708,-173L711,-175L715,-177L722,-178L729,-178L732,-177L736,-180L740,-180L742,-178L745,-179L744,-176L745,-171L744,-166L741,-163L742,-160L745,-156L745,-155L748,-153L750,-144L751,-139L751,-137L751,-133L751,-131L750,-128L751,-125L749,-123L752,-120L752,-117L753,-115L755,-116L759,-113L761,-110L746,-101L733,-92L727,-90L722,-90L722,-93L720,-93L717,-95L716,-97L702,-107L687,-118Z" fill="#E0E0E0" stroke="#fff" stroke-width=".4"/><path d="M863,-155L864,-156L869,-154L878,-160L879,-153L879,-153L870,-150L874,-145L873,-144L872,-142L869,-142L868,-140L866,-138L861,-139L861,-140L863,-148L863,-150L863,-151Z" fill="#E0E0E0" stroke="#fff" stroke-width=".4"/><path d="M933,-114L934,-114L934,-113L938,-114L941,-114L944,-114L947,-117L950,-120L953,-123L954,-121L954,-117L952,-117L952,-114L953,-114L951,-113L951,-111L949,-109L949,-107L948,-106L935,-108L934,-113Z" fill="#E0E0E0" stroke="#fff" stroke-width=".4"/><path d="M930,-117L930,-120L931,-123L932,-123L933,-122L934,-119L933,-116L931,-116Z" fill="#E0E0E0" stroke="#fff" stroke-width=".4"/><path d="M918,-142L919,-140L918,-139L920,-135L917,-135L915,-137L912,-138L915,-143Z" fill="#E0E0E0" stroke="#fff" stroke-width=".4"/><path d="M879,-153L878,-160L887,-165L889,-172L889,-176L891,-177L893,-180L895,-181L900,-180L902,-179L904,-180L907,-173L909,-172L910,-169L908,-167L907,-163L910,-158L915,-155L917,-151L916,-147L918,-147L918,-145L920,-142L918,-142L915,-143L912,-138L903,-138L891,-148L885,-152Z" fill="#E0E0E0" stroke="#fff" stroke-width=".4"/><path d="M949,-107L949,-109L951,-111L951,-113L953,-114L952,-114L952,-117L954,-117L956,-114L959,-112L962,-112L965,-111L967,-108L968,-107L969,-106L969,-105L968,-102L967,-101L965,-99L964,-96L962,-96L961,-95L960,-93L961,-90L960,-89L958,-89L955,-88L955,-85L954,-84L951,-84L950,-83L950,-81L947,-80L945,-81L942,-79L940,-79L939,-82L935,-89L948,-94L951,-103ZM954,-121L953,-123L954,-125L955,-124L954,-122Z" fill="#E0E0E0" stroke="#fff" stroke-width=".4"/><path d="M1048,-171L1044,-166L1039,-166L1032,-167L1030,-165L1032,-160L1033,-156L1037,-154L1033,-151L1033,-147L1029,-142L1026,-137L1022,-132L1016,-132L1012,-127L1015,-125L1015,-121L1017,-119L1018,-115L1009,-115L1006,-111L1003,-113L1001,-116L998,-120L990,-119L983,-119L977,-118L978,-124L985,-126L984,-129L982,-129L982,-134L978,-136L976,-139L974,-141L981,-139L986,-140L988,-139L989,-140L992,-140L998,-142L998,-146L1000,-149L1004,-149L1004,-150L1007,-151L1009,-151L1011,-152L1011,-155L1012,-158L1015,-160L1013,-163L1018,-163L1019,-165L1019,-167L1021,-169L1020,-172L1019,-174L1022,-176L1027,-178L1032,-178L1034,-179L1036,-180L1040,-177L1041,-173Z" fill="#E0E0E0" stroke="#fff" stroke-width=".4"/><path d="M999,-181L1001,-181L1004,-180L1006,-179L1009,-181L1010,-180L1012,-182L1014,-182L1015,-183L1015,-185L1017,-187L1020,-186L1019,-184L1021,-184L1020,-179L1022,-178L1023,-179L1025,-179L1028,-182L1031,-181L1036,-181L1036,-180L1034,-179L1032,-178L1027,-178L1022,-176L1019,-174L1020,-172L1021,-169L1019,-167L1019,-165L1018,-163L1013,-163L1015,-160L1012,-158L1011,-155L1011,-152L1009,-151L1007,-151L1004,-150L1004,-149L1000,-149L998,-146L998,-142L992,-140L989,-140L988,-139L986,-140L981,-139L974,-141L978,-146L978,-149L974,-150L974,-153L972,-158L974,-160L972,-161L974,-165L975,-172L980,-170L983,-170L984,-173L988,-174L990,-175L991,-180L995,-181L995,-183L997,-181Z" fill="#E0E0E0" stroke="#fff" stroke-width=".4"/><path d="M937,-206L939,-208L944,-209L947,-208L950,-203L953,-203L957,-203L957,-206L960,-208L964,-212L970,-209L971,-204L972,-203L977,-203L978,-202L981,-196L986,-192L988,-189L993,-187L999,-184L999,-181L997,-181L995,-183L995,-181L991,-180L990,-175L988,-174L984,-173L983,-170L980,-170L975,-172L975,-176L972,-176L967,-181L963,-182L959,-185L955,-185L953,-184L951,-184L947,-181L944,-180L943,-184L943,-190L940,-192L941,-196L938,-196L939,-201L943,-199L947,-201L944,-205L943,-208L939,-207L939,-202Z" fill="#E0E0E0" stroke="#fff" stroke-width=".4"/><path d="M920,-142L918,-145L918,-147L916,-147L917,-151L915,-155L910,-158L907,-163L908,-167L910,-169L909,-172L907,-173L904,-180L901,-184L902,-186L901,-193L904,-194L904,-192L907,-189L910,-189L911,-189L916,-193L918,-193L919,-192L918,-189L921,-186L922,-186L923,-182L927,-181L930,-178L936,-177L943,-179L944,-180L947,-181L951,-184L953,-184L955,-185L959,-185L963,-182L967,-181L972,-176L975,-176L975,-172L974,-165L972,-161L974,-160L972,-158L974,-153L974,-150L978,-149L978,-146L974,-141L976,-139L978,-136L982,-134L982,-129L984,-129L985,-126L978,-124L977,-118L968,-120L964,-121L959,-121L957,-127L955,-128L951,-127L947,-125L942,-127L937,-130L933,-132L930,-136L927,-143L925,-142L922,-144Z" fill="#E0E0E0" stroke="#fff" stroke-width=".4"/><path d="M864,-156L864,-156L865,-157L865,-159L866,-162L868,-164L867,-166L865,-166L865,-170L866,-173L867,-174L868,-175L869,-178L870,-177L875,-178L877,-177L881,-177L886,-180L888,-179L893,-180L891,-177L889,-176L889,-172L887,-165L878,-160L869,-154Z" fill="#E0E0E0" stroke="#fff" stroke-width=".4"/><path d="M911,-189L910,-189L908,-192L908,-193L906,-193L905,-194L904,-194L902,-196L899,-197L899,-200L899,-202L905,-203L905,-201L907,-200L906,-199L909,-197L907,-195L909,-194L911,-193Z" fill="#E0E0E0" stroke="#fff" stroke-width=".4"/><path d="M823,-170L823,-168L816,-168L816,-169L811,-170L812,-172L814,-170L818,-171L821,-170L821,-169ZM809,-203L812,-203L815,-205L818,-203L822,-203L822,-206L824,-205L823,-201L822,-200L819,-201L817,-201L812,-200L815,-196L813,-196L810,-196L808,-198L807,-197L808,-194L810,-191L809,-190L811,-187L813,-186L813,-183L809,-184L810,-181L808,-181L809,-176L806,-176L803,-178L801,-183L801,-186L799,-189L797,-192L796,-194L798,-196L799,-198L800,-199L800,-201L803,-201L805,-202L807,-202L808,-203Z" fill="#E0E0E0" stroke="#fff" stroke-width=".4"/><path d="M904,-180L902,-179L900,-180L895,-181L893,-180L888,-179L886,-180L881,-177L877,-177L875,-178L870,-177L869,-178L868,-175L867,-174L866,-173L864,-175L866,-177L863,-177L860,-178L857,-175L850,-174L847,-177L842,-177L841,-175L838,-174L834,-177L829,-177L826,-183L823,-186L825,-190L823,-193L827,-198L834,-198L836,-203L844,-202L850,-206L855,-207L862,-208L869,-203L876,-201L881,-202L885,-202L890,-205L894,-205L899,-202L899,-200L899,-197L902,-196L904,-194L901,-193L902,-186L901,-184ZM822,-206L827,-208L831,-207L831,-205L835,-203L834,-202L829,-201L827,-200L823,-197L822,-199L822,-200L823,-201L824,-205Z" fill="#E0E0E0" stroke="#fff" stroke-width=".4"/><path d="M800,-201L800,-199L799,-198L798,-196L796,-194L796,-194L795,-195L793,-197L793,-200L793,-204L794,-206L793,-207L793,-208L794,-211L795,-210L796,-211L797,-209L798,-209L798,-206L798,-204L798,-202Z" fill="#E0E0E0" stroke="#fff" stroke-width=".4"/><path d="M669,-207L671,-208L672,-209L673,-206L676,-206L677,-207L679,-207L680,-204L678,-202L678,-198L678,-197L678,-194L676,-194L677,-190L676,-187L678,-185L677,-183L675,-181L676,-180L674,-178L672,-179L670,-178L670,-183L670,-186L668,-187L667,-189L667,-192L669,-194L669,-197L670,-200L670,-203L669,-205Z" fill="#E0E0E0" stroke="#fff" stroke-width=".4"/><path d="M676,-180L675,-181L677,-183L678,-185L676,-187L677,-190L676,-194L678,-194L678,-197L678,-198L678,-202L680,-204L679,-207L677,-207L676,-206L673,-206L672,-209L671,-208L669,-207L669,-211L667,-213L674,-218L679,-217L685,-217L689,-216L693,-216L700,-216L702,-213L710,-211L711,-212L716,-209L721,-210L722,-207L717,-203L712,-202L712,-200L709,-196L707,-192L709,-189L706,-186L705,-183L702,-181L699,-177L693,-177L689,-177L687,-175L685,-173L683,-174L681,-176L680,-179Z" fill="#E0E0E0" stroke="#fff" stroke-width=".4"/><path d="M754,-237L757,-236L757,-238L761,-239L762,-236L769,-235L768,-232L769,-229L766,-230L762,-228L762,-225L762,-223L763,-220L767,-217L770,-212L774,-207L778,-207L779,-206L778,-205L782,-203L785,-201L789,-198L789,-197L788,-195L786,-197L782,-198L780,-195L783,-192L783,-190L781,-189L779,-184L777,-184L777,-186L778,-189L779,-190L777,-193L776,-196L774,-197L773,-199L770,-200L768,-203L765,-203L761,-206L757,-209L754,-213L753,-219L751,-219L747,-221L745,-221L743,-218L741,-217L741,-220L739,-221L738,-226L739,-227L738,-230L738,-232L740,-230L742,-231L745,-233L745,-232L747,-232L748,-234L752,-234L754,-235ZM773,-185L776,-186L775,-181L775,-180L774,-177L771,-179L769,-180L763,-182L763,-185L768,-185ZM746,-201L749,-203L751,-199L751,-191L749,-191L747,-190L745,-191L745,-198L744,-201Z" fill="#E0E0E0" stroke="#fff" stroke-width=".4"/><path d="M911,-207L912,-206L915,-203L917,-202L918,-204L920,-206L923,-203L925,-199L927,-199L928,-197L925,-197L924,-192L923,-190L922,-189L922,-186L921,-186L918,-189L919,-192L918,-193L916,-193L911,-189L911,-193L909,-194L907,-195L909,-197L906,-199L907,-200L905,-201L905,-203L906,-204L909,-202L911,-202L912,-203L910,-206ZM910,-189L907,-189L904,-192L904,-194L905,-194L906,-193L908,-193L908,-192Z" fill="#E0E0E0" stroke="#fff" stroke-width=".4"/><path d="M867,-69L867,-70L869,-77L869,-80L871,-82L874,-82L876,-85L878,-80L880,-75L882,-73L888,-69L890,-66L893,-64L894,-62L896,-61L895,-60L893,-60L892,-62L890,-64L888,-66L887,-67L883,-69L880,-69L879,-70L876,-69L874,-71L872,-68Z" fill="#E0E0E0" stroke="#fff" stroke-width=".4"/><path d="M455,85L456,87L456,94L460,95L462,94L465,95L466,97L466,101L467,103L468,103L470,102L471,103L471,106L471,108L470,111L469,116L465,119L462,120L457,119L453,118L457,111L456,108L452,107L446,103L443,102L435,95L437,89L437,86L439,82L446,81L450,81L454,83Z" fill="#E0E0E0" stroke="#fff" stroke-width=".4"/><path d="M935,-89L939,-82L940,-79L937,-78L936,-75L936,-74L932,-72L925,-70L921,-67L919,-66L918,-67L915,-65L912,-64L909,-64L907,-64L906,-62L905,-62L905,-61L903,-61L901,-60L898,-61L897,-63L897,-66L896,-67L896,-70L894,-72L895,-72L895,-74L895,-75L895,-77L897,-79L896,-81L898,-83L899,-82L901,-82L906,-82L906,-82L911,-81L912,-82L913,-80L915,-81L919,-86L923,-88Z" fill="#E0E0E0" stroke="#fff" stroke-width=".4"/><path d="M861,-139L866,-138L868,-140L869,-142L872,-142L873,-144L874,-145L870,-150L879,-153L879,-153L885,-152L891,-148L903,-138L912,-138L915,-137L917,-135L920,-135L921,-131L923,-130L924,-128L927,-126L927,-124L927,-122L928,-121L929,-119L929,-118L930,-117L931,-116L933,-116L933,-114L934,-113L935,-108L948,-106L949,-107L951,-103L948,-94L935,-89L923,-88L919,-86L915,-81L913,-80L912,-82L911,-81L906,-82L906,-82L901,-82L899,-82L898,-83L896,-81L897,-79L895,-77L894,-79L893,-81L893,-82L891,-84L888,-88L887,-92L884,-95L882,-96L879,-100L879,-103L879,-106L876,-111L874,-113L872,-114L870,-117L871,-118L869,-121L868,-122L867,-125L864,-129L862,-133L859,-133L860,-135L860,-137Z" fill="#E0E0E0" stroke="#fff" stroke-width=".4"/><path d="M496,559L498,559L505,555L511,559L517,568L519,582L519,592L519,605L513,613L505,619L497,626L488,631L478,630L472,620L473,610L482,603L486,595L489,584L491,576L493,568ZM419,611L429,612L438,614L442,604L444,595L448,605L447,618L446,630L437,627L427,628L422,619L422,618ZM386,446L389,444L394,444L395,438L395,433L395,423L398,417L402,415L404,419L405,424L407,430L408,435L410,441L410,447L409,453L408,458L403,460L398,463L393,463L395,457L390,459L385,461L381,457L381,451ZM262,454L265,452L270,454L276,455L281,457L286,455L289,463L285,462L280,463L275,462L269,463L264,460ZM173,480L174,475L179,478L185,480L190,477L188,483L184,487L178,486ZM153,477L156,474L160,477L167,484L165,483L159,481ZM-6,571L-3,563L5,566L9,573L12,581L14,592L5,595L-0,587L-3,578L-3,577ZM83,780L84,780L85,757L68,755L54,745L50,728L38,719L39,702L41,687L42,675L41,661L34,653L31,642L24,633L35,635L45,631L51,640L59,632L66,622L69,613L68,602L62,595L56,588L47,587L39,584L31,582L28,573L22,566L19,559L17,536L20,538L23,544L31,542L38,539L41,548L48,546L54,542L59,536L64,530L71,528L71,521L69,515L70,508L76,505L79,511L85,508L90,503L97,503L102,501L108,497L113,494L118,490L122,491L125,493L131,490L137,493L143,493L149,491L155,492L161,494L167,493L174,494L180,494L186,493L190,488L196,486L201,489L206,487L211,481L214,486L216,492L218,497L223,492L228,498L234,500L239,505L245,504L251,501L257,502L263,504L269,507L272,500L269,494L267,488L261,487L258,481L257,476L256,465L259,467L265,467L271,467L276,469L280,473L282,479L288,480L294,477L300,474L305,473L309,476L315,475L319,464L323,470L328,473L333,471L337,477L342,478L348,480L353,483L356,477L358,472L362,478L368,477L373,480L376,485L382,484L386,480L391,476L396,474L402,472L408,470L412,467L414,463L415,456L415,451L414,445L412,440L411,435L410,430L409,425L410,420L412,416L413,411L414,406L413,401L413,397L415,392L417,388L420,384L423,381L427,378L428,373L431,371L433,368L438,367L440,364L443,362L447,361L450,359L453,355L456,354L459,357L457,360L453,363L451,365L447,364L444,365L441,367L438,370L436,373L435,377L435,381L437,384L434,387L430,388L428,391L425,395L423,400L422,404L423,409L426,412L429,415L433,419L434,424L435,429L437,434L439,438L440,443L441,456L442,461L442,467L444,473L443,481L441,487L438,493L432,495L430,501L428,506L421,513L415,516L410,519L404,523L400,531L393,532L386,531L379,532L371,532L373,540L379,544L384,549L387,556L382,563L375,561L368,566L368,575L368,584L373,592L374,601L380,611L389,615L397,622L403,631L411,640L422,644L432,652L440,661L448,672L452,688L454,701L460,689L467,679L474,668L483,660L491,652L502,651L513,655L522,663L524,649L530,641L541,640L550,634L558,628L567,624L577,619L584,613L581,604L579,595L579,586L570,587L561,591L553,591L552,582L552,565L554,561L560,556L568,551L573,545L578,539L582,532L588,528L594,526L597,524L604,524L610,521L616,518L621,513L626,509L632,504L636,498L640,494L641,487L637,484L638,477L641,472L645,469L650,466L655,461L658,456L660,449L663,445L669,446L671,451L676,451L676,446L678,441L683,442L684,447L689,448L695,446L701,444L705,445L707,451L712,446L717,444L722,442L726,440L731,437L736,435L739,432L742,427L745,431L750,429L753,435L756,440L761,437L762,432L767,428L773,429L774,434L778,429L783,428L788,427L792,427L797,429L802,430L804,434L807,438L812,436L817,435L822,435L827,435L831,433L836,431L839,428L844,426L848,425L851,421L854,414L856,410L861,412L862,417L866,419L871,418L874,423L877,426L881,423L883,418L887,416L891,412L896,410L901,408L904,405L908,402L911,400L915,401L919,397L922,394L926,394L930,392L931,388L934,385L938,383L942,381L946,380L950,381L954,382L958,385L958,389L962,393L965,396L970,398L973,401L976,404L981,405L984,402L988,398L992,400L996,401L1000,403L1005,404L1009,404L1013,416L1012,419L1012,425L1008,428L1004,433L1005,438L1010,438L1009,443L1007,448L1005,454L1008,458L1013,459L1018,457L1021,451L1022,446L1025,442L1027,438L1028,434L1031,427L1033,426L1038,425L1043,424L1047,422L1049,417L1051,413L1054,408L1058,405L1061,403L1064,399L1066,397L1070,395L1074,397L1078,395L1082,394L1087,395L1090,392L1092,384L1094,387L1096,393L1100,395L1104,396L1108,394L1112,395L1117,395L1119,394L1123,395L1126,397L1130,396L1135,396L1139,394L1143,396L1146,392L1149,388L1152,385L1157,377L1160,379L1163,382L1166,386L1172,392L1176,393L1180,393L1185,391L1189,390L1193,387L1196,384L1201,383L1204,381L1207,383L1210,386L1213,390L1218,389L1221,392L1226,395L1231,396L1236,395L1239,392L1242,388L1246,387L1250,389L1254,390L1259,388L1262,388L1266,389L1270,390L1274,388L1279,387L1283,386L1288,386L1292,385L1296,384L1298,379L1298,375L1300,378L1301,382L1303,387L1304,391L1308,393L1313,392L1319,392L1323,391L1328,391L1333,391L1338,391L1343,392L1346,396L1345,400L1348,403L1353,406L1358,409L1363,411L1369,413L1374,415L1379,415L1382,411L1385,414L1389,418L1393,421L1398,422L1403,424L1405,429L1410,432L1413,436L1418,438L1423,438L1428,439L1433,439L1438,440L1443,442L1448,445L1452,447L1455,451L1455,457L1453,462L1451,469L1449,474L1447,480L1441,483L1439,488L1433,492L1431,498L1428,504L1425,510L1423,517L1422,524L1422,532L1422,539L1424,547L1425,555L1427,562L1435,565L1437,574L1429,578L1422,583L1414,584L1411,597L1410,609L1408,619L1406,629L1411,638L1414,651L1417,662L1423,673L1429,683L1435,694L1445,706L1448,725L1460,734L1461,737L1464,750L1476,739L1486,753L1494,764L1494,764L1494,780L1494,780ZM-77,780L-77,764L-77,764L-77,764L-77,764L-77,764L-73,738L-65,752L-65,750L-60,736L-59,737L-59,737L-53,756L-47,737L-46,735L-33,727L-29,737L-27,742L-20,757L-8,769L-1,780L-77,780Z" fill="#E0E0E0" stroke="#fff" stroke-width=".4"/><path d="M851,-169L851,-169L852,-170L855,-170L859,-172L856,-170L857,-169L856,-169L855,-168L855,-168L854,-168L854,-169L854,-169L853,-169L852,-169Z" fill="#E0E0E0" stroke="#fff" stroke-width=".4"/><path d="M851,-169L852,-169L853,-169L854,-169L854,-169L854,-168L855,-168L855,-168L856,-169L857,-169L857,-168L852,-166L850,-167L849,-169Z" fill="#E0E0E0" stroke="#fff" stroke-width=".4"/><path d="M699,-169L701,-166L701,-163L702,-157L703,-156L703,-154L697,-153L695,-151L692,-151L692,-147L687,-145L685,-142L682,-141L678,-140L671,-137L671,-131L670,-131L670,-128L667,-128L666,-127L664,-127L662,-127L659,-127L657,-123L656,-123L654,-117L648,-111L646,-105L645,-103L644,-101L634,-101L634,-101L634,-103L636,-104L637,-107L637,-108L639,-112L641,-115L643,-115L644,-118L644,-121L645,-124L648,-126L651,-131L651,-131L653,-133L657,-133L661,-137L663,-138L667,-142L666,-148L667,-153L668,-155L671,-159L675,-161L678,-164L681,-169L682,-172L686,-172L688,-170L692,-170L697,-169Z" fill="#E0E0E0" stroke="#fff" stroke-width=".4"/><path d="M869,-103L852,-103L835,-103L817,-103L817,-121L817,-139L816,-143L817,-146L817,-148L818,-150L824,-150L828,-149L832,-148L835,-147L838,-148L840,-150L844,-150L847,-150L848,-147L849,-149L852,-148L856,-147L858,-149L860,-141L861,-140L860,-138L859,-134L857,-132L856,-131L855,-132L853,-134L850,-142L849,-141L851,-136L854,-131L857,-123L859,-121L860,-118L864,-113L863,-112L863,-109L868,-104Z" fill="#E0E0E0" stroke="#fff" stroke-width=".4"/><path d="M817,-103L817,-94L812,-94L812,-92L795,-101L778,-110L773,-108L770,-106L768,-108L761,-110L759,-113L755,-116L753,-115L752,-117L752,-120L749,-123L751,-125L750,-128L751,-131L751,-133L751,-137L751,-139L750,-144L752,-145L752,-147L752,-149L755,-151L756,-153L758,-154L758,-158L764,-157L765,-157L769,-156L775,-154L777,-149L781,-148L787,-146L792,-144L794,-145L796,-147L795,-151L796,-154L799,-156L802,-157L808,-156L810,-154L811,-154L813,-153L817,-152L818,-150L817,-148L817,-146L816,-143L817,-139L817,-121Z" fill="#E0E0E0" stroke="#fff" stroke-width=".4"/><path d="M917,-40L905,-27L899,-27L895,-24L892,-24L891,-22L888,-22L886,-24L882,-22L881,-20L878,-20L877,-21L876,-21L875,-21L869,-24L866,-24L865,-26L865,-28L862,-29L860,-34L858,-35L857,-37L855,-39L852,-39L854,-42L856,-42L857,-43L857,-47L858,-52L860,-53L860,-55L862,-58L865,-60L867,-65L867,-69L872,-68L874,-71L876,-69L879,-70L880,-69L883,-69L887,-67L888,-66L890,-64L892,-62L893,-60L892,-58L890,-56L890,-55L891,-54L893,-53L894,-54L895,-53L894,-51L896,-49L897,-47L899,-45L913,-40Z" fill="#E0E0E0" stroke="#fff" stroke-width=".4"/><path d="M893,-60L895,-60L896,-61L897,-60L897,-58L895,-57L897,-55L895,-53L894,-54L893,-53L891,-54L890,-55L890,-56L892,-58Z" fill="#E0E0E0" stroke="#fff" stroke-width=".4"/><path d="M922,-55L922,-55L922,-53L922,-49L922,-46L920,-44L917,-40L913,-40L899,-45L897,-47L896,-49L894,-51L895,-53L897,-55L898,-55L899,-53L901,-51L903,-51L907,-52L912,-53L916,-54L918,-54L919,-55Z" fill="#E0E0E0" stroke="#fff" stroke-width=".4"/><path d="M856,-1L847,-1L843,-1L841,-0L838,1L837,1L837,-2L838,-4L839,-8L840,-10L841,-12L843,-13L844,-15L843,-15L843,-20L845,-22L847,-21L851,-22L854,-22L857,-24L859,-21L859,-18L861,-13L860,-10L857,-7L856,-6Z" fill="#E0E0E0" stroke="#fff" stroke-width=".4"/><path d="M841,-0L843,2L843,5L841,6L839,5L838,8L835,7L835,5L836,5L836,2L837,1L838,1Z" fill="#E0E0E0" stroke="#fff" stroke-width=".4"/><path d="M439,-52L442,-53L443,-53L442,-49L439,-49L438,-49L439,-51Z" fill="#E0E0E0" stroke="#fff" stroke-width=".4"/><path d="M843,-20L839,-23L838,-25L836,-24L834,-24L832,-24L830,-24L828,-28L827,-29L824,-31L823,-34L821,-36L818,-38L818,-39L816,-41L813,-43L814,-43L815,-44L817,-48L818,-50L821,-51L822,-49L824,-47L825,-47L827,-47L830,-47L830,-46L835,-46L835,-47L837,-48L838,-49L839,-50L843,-48L845,-48L847,-51L850,-54L849,-56L848,-58L851,-58L851,-59L853,-59L853,-55L853,-52L856,-50L856,-49L856,-47L857,-47L857,-43L856,-42L854,-42L852,-39L855,-39L857,-37L858,-35L860,-34L862,-29L859,-26L857,-24L854,-22L851,-22L847,-21L845,-22Z" fill="#E0E0E0" stroke="#fff" stroke-width=".4"/></g><g clip-path="url(#v)"><path d="M231.5,118.1L230.9,118.2L230.9,118.0L231.1,117.7L231.5,117.9L231.8,117.9ZM364.5,151.0L363.7,151.1L363.7,151.1L363.7,151.0L363.9,150.9L364.1,150.7L364.2,150.7L364.3,150.7L364.4,150.7L364.6,150.8L364.7,150.9L364.6,151.0ZM401.1,76.4L401.3,76.4L401.7,76.3L402.1,76.3L402.7,76.1L403.2,75.8L403.6,75.3L403.8,74.8L403.8,74.4L403.6,73.8L403.6,73.5L403.8,73.3L404.3,73.2L404.7,72.9L405.1,72.6L405.1,73.1L405.7,73.8L405.9,74.6L406.1,74.7L406.9,75.1L406.9,75.2L406.8,75.3L406.7,75.5L406.7,75.8L406.9,76.1L406.9,76.5L407.0,76.8L407.1,77.4L407.2,77.9L407.4,78.6L407.4,79.0L407.4,79.3L407.6,79.6L407.9,79.9L408.3,80.2L408.7,80.6L408.9,80.8L409.3,81.0L409.5,81.2L409.6,81.3L409.6,81.4L409.5,81.5L409.1,82.0L408.6,82.8L408.6,82.9L409.1,83.4L409.2,83.6L409.2,83.9L409.0,84.3L408.5,84.4L408.4,84.5L408.3,84.6L408.5,84.8L408.4,85.1L408.7,85.5L408.5,85.6L408.3,85.8L408.3,86.0L408.4,86.2L408.6,86.4L409.5,86.9L409.5,87.0L409.5,87.0L409.2,87.4L409.2,87.6L409.2,88.0L409.2,88.3L409.3,88.4L409.8,88.5L410.3,89.3L410.8,90.1L410.8,90.8L410.8,91.6L411.2,92.3L411.2,92.8L411.3,93.3L411.7,93.7L411.9,94.4L411.9,94.7L411.9,95.0L412.2,95.7L412.2,96.4L412.1,96.9L412.1,97.1L412.2,97.3L412.4,97.5L412.5,97.6L412.9,97.6L413.5,97.6L414.4,97.5L415.2,97.3L416.0,98.1L415.6,99.3L415.1,101.1L414.6,102.6L414.5,102.8L414.5,103.1L413.5,103.5L412.1,104.1L411.4,104.4L410.6,104.8L410.3,105.1L410.1,105.3L409.8,105.5L409.7,105.8L409.4,105.9L409.2,106.5L409.2,106.9L409.3,107.2L409.6,107.3L409.7,107.7L409.8,107.9L410.0,108.1L409.9,108.3L409.8,108.4L409.5,108.5L409.3,108.8L409.1,109.7L409.0,110.0L409.3,110.8L409.4,111.3L409.8,112.8L409.8,113.3L409.3,113.9L409.1,114.2L409.1,114.6L409.1,114.8L409.1,115.0L409.5,115.8L410.0,116.5L410.3,116.8L410.3,117.3L410.1,117.5L409.9,117.6L409.3,117.8L409.1,118.1L408.8,118.1L408.6,117.9L408.3,118.0L408.0,118.2L407.8,118.6L407.5,119.4L407.3,119.6L407.1,120.2L406.8,121.1L406.6,121.6L406.5,121.9L406.2,122.2L405.8,122.7L405.5,123.1L405.4,123.3L405.1,123.3L405.0,123.7L404.4,124.4L404.3,125.1L404.1,125.5L404.1,126.2L403.7,127.5L403.7,127.8L403.4,128.0L402.9,128.5L402.8,128.9L403.0,130.0L403.2,131.1L403.2,131.7L403.2,132.4L403.1,132.7L403.2,132.8L403.5,132.9L403.6,133.2L403.4,133.4L403.3,133.7L403.1,134.1L402.5,134.3L402.3,134.1L402.2,134.2L402.2,134.5L402.1,134.8L401.7,135.7L401.5,136.5L401.4,136.9L401.5,137.2L401.6,137.3L401.6,137.5L401.4,137.7L401.2,138.0L401.1,138.0L400.9,137.9L400.7,138.1L400.6,138.5L400.5,139.0L400.5,139.5L400.4,140.3L400.6,140.8L401.0,141.7L401.2,141.9L401.5,141.9L401.7,142.0L401.8,142.3L401.6,142.6L401.4,142.7L401.3,142.9L401.4,143.4L401.5,143.9L401.8,144.1L401.9,144.7L402.2,144.9L402.1,145.7L402.4,146.7L402.7,146.9L402.8,147.1L402.7,147.5L402.5,147.8L402.5,148.3L402.6,148.7L402.8,149.1L403.1,149.1L403.4,149.0L403.7,149.1L403.8,149.4L403.8,149.7L403.6,150.1L403.4,150.8L403.4,151.5L403.4,152.5L403.5,153.3L403.5,153.8L403.6,154.1L403.5,154.2L403.2,154.3L402.9,154.3L402.7,154.5L402.7,154.7L402.5,155.2L402.3,155.5L402.0,156.0L401.8,156.4L401.7,156.8L401.7,157.0L401.6,157.4L401.4,157.8L401.2,159.0L400.9,159.2L400.6,159.3L400.5,159.5L400.6,159.8L400.9,159.9L401.0,160.2L400.9,160.6L401.1,161.0L401.1,161.4L401.3,162.3L401.1,162.9L401.2,163.4L401.2,163.9L400.9,164.3L400.5,164.3L400.2,164.7L399.8,165.1L399.7,165.4L399.7,165.7L399.5,165.8L399.2,165.8L399.0,165.8L398.7,166.2L398.3,166.4L398.2,166.7L398.3,167.0L398.1,167.2L397.9,167.7L397.7,168.1L397.9,168.5L398.0,169.3L398.1,169.6L397.8,170.2L397.7,170.6L397.8,171.1L398.0,171.4L397.8,172.0L397.8,172.4L397.8,173.2L398.1,174.0L398.4,174.7L398.5,175.5L398.6,176.2L398.7,176.9L399.0,177.2L399.2,177.5L399.2,177.8L399.0,178.3L398.8,178.6L398.2,178.7L397.7,179.0L397.3,179.2L397.0,179.4L396.8,179.7L396.7,180.0L396.8,181.2L396.7,181.7L396.5,182.3L396.3,182.8L396.3,183.0L396.2,183.2L396.2,183.4L396.0,183.5L395.7,183.4L395.5,183.5L395.4,183.6L395.5,184.0L395.6,184.8L395.8,185.1L395.7,185.3L395.7,185.8L395.5,186.2L395.2,186.2L395.1,186.4L395.0,186.7L395.1,187.1L395.4,187.4L395.5,187.6L395.5,187.9L395.2,188.0L395.1,188.2L394.9,188.7L394.7,189.2L394.5,189.7L394.5,190.2L394.8,190.8L394.7,191.4L394.7,193.1L394.7,193.7L394.8,194.7L394.6,195.0L394.6,195.2L394.9,195.9L395.2,197.1L395.3,197.5L395.2,197.9L394.8,198.1L394.4,198.2L394.2,198.1L394.1,198.1L393.9,198.5L393.7,198.7L393.7,199.0L393.9,199.4L394.0,200.0L393.7,200.3L393.6,200.7L393.6,201.1L393.7,201.8L393.6,203.1L393.7,203.6L394.0,203.8L394.6,204.1L395.1,204.2L395.3,204.6L395.2,204.9L395.0,205.1L394.6,205.3L394.6,205.8L394.9,206.3L395.3,206.7L395.4,207.1L395.3,207.4L395.1,207.7L395.4,208.3L395.6,208.8L395.4,209.1L395.2,209.6L395.0,209.8L395.0,210.1L394.9,210.7L394.9,211.2L395.0,211.5L397.1,211.8L397.6,211.9L397.9,212.2L397.9,212.6L397.6,213.0L397.4,213.8L397.0,214.0L396.6,213.8L396.1,213.8L395.7,213.9L395.1,213.9L394.4,214.0L393.9,213.9L393.9,214.2L394.0,214.7L395.0,214.9L396.0,215.2L396.2,215.7L396.6,216.4L397.0,216.7L397.0,217.4L396.4,218.0L396.3,218.5L395.5,218.6L395.3,218.9L395.2,219.8L395.3,220.5L395.6,220.8L395.8,221.2L395.6,221.8L395.0,222.2L394.7,222.5L394.9,222.8L395.2,223.3L395.2,223.6L395.4,224.2L395.5,225.2L395.5,225.7L395.4,226.0L394.8,226.5L394.5,226.8L394.4,227.5L394.4,228.0L394.4,228.4L394.6,228.8L394.6,229.2L394.3,229.2L394.0,229.4L393.7,230.1L393.0,230.7L392.7,231.0L392.7,231.6L392.4,232.3L392.1,232.9L391.9,233.5L392.0,234.2L392.4,234.4L392.8,235.1L392.9,235.8L392.6,236.7L392.0,237.1L391.7,237.5L391.5,237.7L391.6,238.7L391.6,239.1L391.5,239.6L391.4,239.9L391.0,240.2L390.4,240.6L389.9,240.8L389.7,241.0L389.4,241.6L389.2,242.2L389.2,242.9L387.8,243.0L387.7,243.6L387.4,244.0L387.3,244.8L387.6,245.6L387.8,246.3L387.5,247.0L387.6,247.9L387.7,248.5L388.2,249.2L388.5,250.1L388.6,250.9L388.7,251.5L388.9,251.8L389.1,252.2L389.2,252.7L389.5,252.8L390.0,252.4L390.4,252.1L390.7,252.0L391.5,252.1L392.0,251.8L392.2,251.8L392.5,252.0L392.7,252.3L392.9,253.0L393.0,253.9L392.9,254.7L392.6,254.9L392.6,255.2L392.6,255.7L392.9,256.1L392.9,256.6L392.6,257.8L392.4,258.3L392.7,258.8L393.0,259.3L393.6,259.7L394.1,260.2L394.4,260.7L394.3,261.3L394.5,261.4L395.4,261.4L396.7,261.5L398.8,261.5L400.8,261.5L403.1,261.6L404.2,262.1L405.1,262.5L406.4,262.5L407.6,263.0L408.5,263.3L409.1,263.5L409.6,263.6L409.7,264.1L407.3,263.4L406.7,263.0L406.2,263.0L405.3,263.4L404.8,264.5L404.6,264.8L404.0,265.1L403.3,265.2L401.2,266.2L400.5,266.3L400.0,266.6L399.4,267.0L399.3,267.9L399.3,268.4L398.8,270.3L398.6,271.4L398.6,272.0L398.8,272.8L398.6,274.4L398.2,274.7L397.3,275.1L396.6,274.8L395.5,274.6L394.8,274.0L393.8,273.5L393.4,273.3L392.6,272.1L392.5,271.7L392.4,271.2L392.9,270.5L393.1,270.5L393.8,270.5L394.5,270.4L394.8,270.8L394.9,271.6L394.8,272.0L394.6,272.3L394.7,272.5L395.1,272.2L395.3,270.4L396.8,269.5L397.3,268.9L397.8,268.1L397.8,267.9L397.9,267.6L397.6,267.3L396.9,267.0L394.6,268.7L393.6,269.1L393.0,269.6L392.2,270.5L392.0,270.8L391.9,271.4L391.8,272.0L391.0,271.7L389.8,270.8L389.6,270.4L389.8,270.0L390.2,269.6L390.2,268.2L390.3,267.7L390.6,267.4L391.0,267.0L391.2,266.9L391.4,267.0L391.5,267.4L392.2,267.3L393.7,266.2L394.3,266.1L395.1,266.4L396.0,266.2L396.1,266.1L396.3,265.8L395.7,265.5L395.0,265.3L393.2,265.2L392.8,265.3L392.3,266.0L392.1,265.8L392.0,265.5L391.4,265.3L391.1,265.3L390.8,265.6L390.9,266.1L390.7,266.6L390.1,267.1L389.7,267.9L389.8,268.5L389.7,268.8L389.6,269.0L389.3,269.2L388.4,269.1L387.8,268.4L387.6,268.0L387.0,267.5L388.3,266.9L388.8,266.6L389.2,265.8L389.5,265.3L389.3,265.0L389.0,265.0L389.0,265.5L388.8,266.0L388.2,265.8L387.3,266.4L386.7,266.2L385.8,266.4L385.4,266.1L385.3,265.6L385.5,265.2L385.3,264.4L385.1,264.2L384.8,264.2L384.7,263.8L384.4,263.0L384.3,262.7L384.2,262.3L384.3,262.3L384.6,262.4L384.9,262.6L385.3,262.6L386.2,263.2L386.6,263.1L386.8,262.9L386.9,262.5L386.9,262.1L387.0,262.1L387.5,262.6L387.8,262.5L388.4,262.7L388.7,262.6L389.2,262.4L390.1,261.8L390.5,261.2L390.7,261.2L391.0,261.2L391.2,261.4L391.2,261.8L391.4,262.2L391.6,262.5L391.7,262.9L391.7,263.3L391.2,263.9L391.1,264.1L391.2,264.3L391.4,264.2L391.7,263.9L391.9,263.5L391.9,263.3L391.9,263.1L391.9,262.7L391.5,261.8L391.5,261.6L391.5,261.1L391.9,260.7L392.0,260.4L392.1,259.8L391.8,259.4L390.9,258.5L389.3,257.6L389.1,257.7L389.0,257.8L389.1,258.0L389.3,258.0L390.7,258.8L391.1,259.2L391.4,259.4L391.7,259.7L391.6,260.1L390.1,260.5L389.0,261.4L388.2,262.0L387.6,261.8L387.3,261.2L387.0,260.5L386.6,260.1L386.3,260.1L386.1,260.0L385.9,259.8L385.6,260.0L384.8,259.5L384.6,259.3L385.2,258.5L385.8,258.8L385.9,256.8L385.7,256.4L384.9,255.9L384.6,255.9L384.0,255.9L383.7,255.6L383.3,255.5L382.9,255.4L382.5,255.1L381.9,254.9L381.2,253.7L380.9,253.0L380.7,252.3L381.8,252.3L382.5,252.2L382.6,251.9L382.4,251.3L382.1,250.8L382.3,250.4L382.7,250.1L383.0,250.2L383.9,251.0L384.0,251.5L384.6,253.0L384.8,253.1L384.9,253.2L386.1,254.1L386.3,254.1L386.2,253.4L386.6,252.4L387.0,252.1L387.1,252.1L387.1,251.9L386.8,251.5L387.0,251.0L386.9,251.0L386.6,251.3L385.9,253.0L385.6,253.3L385.0,252.5L384.8,252.0L384.6,251.8L384.7,251.0L385.7,251.1L385.3,250.8L384.1,250.3L383.8,250.1L383.6,250.0L383.2,249.4L382.7,249.0L383.6,248.1L384.0,247.5L385.4,247.8L385.7,247.6L385.4,247.2L385.2,247.3L384.7,247.0L384.1,246.2L384.1,245.7L384.2,245.0L384.5,244.8L385.0,244.6L385.7,244.9L385.9,245.1L386.2,245.0L385.9,244.4L385.5,244.2L385.1,243.8L385.1,243.3L385.2,243.0L385.4,242.6L385.5,242.0L385.4,241.5L385.5,241.3L385.7,241.2L385.8,241.1L385.3,241.1L385.2,241.7L385.2,242.2L384.9,242.6L384.7,243.1L384.7,243.6L384.5,244.3L384.1,244.0L383.9,243.8L383.9,243.6L383.9,243.3L383.8,241.2L383.8,239.6L384.0,238.2L384.5,237.7L384.7,237.6L384.9,237.6L385.2,237.6L385.4,237.5L384.7,237.1L384.3,237.3L384.0,237.6L383.4,237.4L383.3,236.7L383.0,236.1L382.9,235.4L382.9,234.3L383.7,234.4L384.4,234.6L386.1,234.6L387.5,235.6L388.2,235.5L388.1,235.3L387.7,235.0L387.4,234.5L387.2,234.3L387.1,234.0L387.1,233.6L386.7,232.1L386.6,232.1L386.4,232.6L386.1,233.5L385.7,233.9L385.1,234.0L384.5,234.1L383.9,234.0L383.8,233.6L383.8,233.2L383.6,233.0L383.0,232.9L382.8,232.8L382.6,232.4L382.9,231.9L383.1,231.5L383.4,231.6L383.7,231.7L384.1,232.2L384.4,232.2L384.8,231.9L384.9,231.7L384.6,231.5L384.4,231.5L384.1,231.3L383.4,230.6L383.7,230.0L384.5,229.2L384.8,229.0L384.6,228.4L384.8,227.7L384.6,227.1L384.1,226.5L383.5,226.4L383.4,226.6L383.3,226.8L383.4,227.0L383.4,227.1L383.2,227.1L382.5,227.0L381.9,226.6L381.1,226.2L381.0,225.9L380.9,225.5L381.2,224.8L381.0,224.8L380.5,225.3L379.6,225.6L379.0,225.7L378.7,226.0L378.6,226.2L378.8,226.3L379.2,226.3L379.4,227.0L379.4,227.3L379.2,227.5L378.9,227.5L378.3,227.0L378.0,226.4L378.0,226.0L378.2,225.4L379.2,224.6L379.5,224.2L380.0,223.9L380.8,223.0L381.4,222.5L381.1,222.2L380.8,221.6L380.8,220.8L382.1,220.4L382.7,220.6L383.5,220.5L383.9,220.3L384.1,220.3L384.8,220.1L385.0,219.8L385.1,219.5L385.1,219.3L385.0,219.1L384.9,218.4L385.0,218.2L385.3,217.9L385.7,217.8L385.8,217.8L386.2,218.1L386.1,218.4L386.0,218.8L385.6,220.5L385.5,220.9L385.2,221.2L385.4,221.9L385.1,222.4L383.9,222.9L383.8,222.9L383.9,223.1L384.5,223.0L385.1,222.9L385.6,222.5L385.8,221.9L386.0,220.6L386.3,220.4L386.6,220.4L386.8,220.7L386.7,221.3L386.7,222.0L386.3,223.9L385.8,224.7L385.7,224.9L385.7,225.1L386.1,225.1L386.5,224.7L386.7,224.2L386.9,223.4L386.9,222.9L387.0,222.5L387.1,221.5L387.3,220.9L387.2,220.1L386.9,219.9L386.5,219.7L386.4,219.2L386.6,218.3L387.4,218.3L388.2,217.7L388.7,217.5L389.0,217.5L389.9,218.1L390.1,218.1L390.1,217.9L389.9,217.7L389.6,217.5L388.8,216.9L387.9,216.8L388.1,215.9L388.2,215.2L388.7,215.1L389.5,214.8L391.0,213.7L391.2,212.8L391.3,211.8L390.6,211.6L389.8,211.0L389.2,210.6L388.7,210.2L388.8,209.6L388.9,208.6L389.5,208.4L389.9,207.0L389.4,205.9L389.5,205.1L390.1,204.4L390.2,204.0L390.4,203.5L390.9,203.4L390.9,203.1L390.9,202.6L390.5,202.0L390.5,201.2L390.8,200.2L391.3,200.3L391.4,200.3L391.1,199.7L390.8,199.0L390.8,198.8L391.1,198.6L391.4,198.4L391.8,198.8L392.3,199.8L392.4,199.5L392.2,198.5L392.0,197.2L391.5,197.3L391.0,197.2L390.8,197.0L390.6,196.7L390.8,196.4L390.9,196.1L391.3,195.8L392.1,195.6L392.6,195.2L392.8,194.3L392.6,194.4L392.3,195.2L391.8,195.5L391.6,195.4L391.3,195.3L390.7,194.6L390.4,194.4L390.0,194.4L389.8,194.6L389.1,195.8L388.8,196.0L387.6,196.1L387.1,195.9L386.6,195.8L386.7,195.5L386.8,195.2L387.1,195.0L387.1,194.8L386.7,194.8L386.3,194.4L386.1,194.0L386.0,193.3L385.6,192.1L385.5,191.3L385.8,190.7L386.4,188.4L386.6,187.2L386.9,186.2L386.9,185.5L387.7,184.9L388.0,184.5L388.8,182.4L388.8,181.3L387.7,177.9L387.6,177.3L387.5,176.5L387.8,175.2L387.8,174.7L387.6,174.0L386.9,172.8L386.9,172.2L387.2,171.6L386.9,170.8L387.1,170.4L387.2,170.0L388.2,170.2L388.7,170.1L388.9,169.9L389.1,169.3L389.2,168.3L389.2,167.9L389.3,167.3L389.8,167.0L390.0,166.4L390.4,165.7L390.8,163.4L391.2,162.9L391.6,162.2L391.5,161.3L391.8,160.9L392.0,160.6L392.2,160L392.5,159.5L393.2,158.7L393.4,157.8L393.9,156.1L394.1,155.1L394.2,154.4L394.2,153.8L394.5,153.0L394.8,152.3L394.9,151.9L395.7,151.1L395.8,150.4L395.5,149.9L395.5,149.2L395.3,148.1L395.8,147.8L396.0,147.5L396.6,145.9L396.5,145.3L396.7,144.5L396.3,143.5L396.3,141.5L396.0,139.9L395.7,138.2L395.7,137.3L395.5,136.1L395.5,135.5L395.6,134.0L396.8,133.0L397.0,132.0L397.2,130.5L397.1,129.5L397.0,129.0L396.4,128.3L396.3,126.9L396.4,126.6L396.9,126.2L397.2,125.7L397.4,124.8L397.8,124.2L397.9,122.6L398.2,121.4L398.3,121.0L398.8,120.4L398.9,120.3L399.0,119.9L398.9,118.9L399.0,118.3L399.4,117.2L399.4,116.6L399.8,115.4L399.9,114.6L400.1,114.1L400.0,113.6L400.2,112.5L399.9,111.8L399.8,111.5L400.2,110.3L400.4,110.0L400.8,109.5L401.0,108.9L401.0,108.5L400.5,106.6L400.4,106.0L400.5,104.5L400.7,103.5L400.7,102.7L400.7,102.3L400.8,101.8L401.1,101.3L401.2,100.8L401.1,100.7L400.7,100.4L400.4,99.9L400.3,99.3L400.4,99.0L400.5,98.4L401.0,98.3L401.2,98.0L401.5,97.4L401.8,96.0L401.9,94.3L402.1,93.3L402.2,92.8L402.4,91.7L402.5,91.0L402.6,90.4L402.5,89.9L402.1,87.4L402.1,86.5L402.3,85.1L402.3,83.2L402.2,82.7L402.1,82.3L402.0,81.7L401.7,80.7L401.5,78.6L401.5,77.6L401.3,76.7ZM408.9,266.2L408.9,268.3L408.9,270.4L408.9,272.4L408.9,274.5L408.9,276.4L408.9,278.4L408.8,280.7L408.8,282.4L408.1,282.4L408.0,282.6L406.9,282.8L405.2,282.5L404.7,282.1L404.1,281.3L403.9,281.6L403.4,281.9L402.8,282.1L402.3,282.2L401.9,281.8L401.8,281.7L401.7,281.6L400.8,282.1L399.7,281.6L398.9,281.4L397.6,281.2L396.6,280.6L394.9,280.7L394.6,280.5L394.5,280.0L394.6,279.7L395.0,279.6L395.1,279.3L395.4,279.3L395.9,279.7L396.1,279.7L396.4,279.3L396.8,279.0L397.0,279.0L397.9,279.4L398.2,279.3L398.7,279.1L398.8,279.0L398.9,278.7L399.0,278.5L399.4,278.5L399.9,278.6L399.9,279.1L399.9,279.6L400.4,279.8L401.1,279.8L401.6,280.0L401.6,279.6L400.9,278.8L400.6,278.3L400.2,278.0L399.6,277.8L399.2,276.8L399.2,276.0L399.1,275.2L400.1,274.7L399.9,274.0L400.2,273.5L400.6,273.3L401.0,275.2L401.3,275.9L400.9,276.1L400.2,276.1L400.6,277.0L401.3,277.4L401.9,278.1L401.9,278.6L402.2,278.8L403.0,278.9L403.5,278.8L403.8,278.4L404.1,278.3L404.6,278.7L405.5,279.1L405.7,279.3L405.9,279.7L405.9,280.1L405.9,280.3L406.2,280.2L406.5,279.6L406.7,279.4L407.0,279.3L407.1,279.2L407.1,279.1L406.4,278.7L403.0,276.8L402.5,276.1L402.3,275.2L402.3,274.3L402.5,274.0L403.1,273.6L404.3,273.1L405.6,272.3L405.7,272.2L405.7,271.7L405.6,271.4L405.1,271.2L404.5,271.1L404.0,271.1L403.5,271.2L402.5,271.7L402.0,271.7L401.5,271.4L401.1,270.9L400.9,270.2L400.9,269.7L401.0,269.3L401.2,268.9L401.5,268.7L401.8,268.7L402.1,268.6L402.2,268.5L402.4,268.3L402.3,268.1L402.2,267.9L401.8,267.6L401.6,267.4L401.3,266.9L401.5,266.8L402.1,266.7L402.5,267.0L403.0,267.4L403.2,267.4L403.4,267.2L404.0,266.7L404.4,266.1L404.8,265.4L405.1,265.0L405.5,265.0L406.6,266.3L406.9,266.3L408.2,265.6L408.3,265.7L408.8,266.0ZM415.7,284.7L415.5,285.0L415.3,285.4L414.9,285.7L414.5,285.8L414.3,285.6L414.1,285.3L414.1,285.1L414.0,284.9L413.9,284.9L413.7,284.9L413.5,285.0L413.0,285.4L412.8,285.5L412.7,285.5L411.3,285.2L411.2,285.1L411.1,284.8L410.9,284.1L410.3,283.4L411.2,283.0L412.2,283.0L414.2,283.3L414.9,283.4L415.5,284.0L415.6,284.4ZM386.5,205.2L386.1,205.4L385.8,205.4L385.5,205.3L385.0,205.3L384.4,205.1L383.9,204.8L383.8,204.6L383.8,204.3L384.2,203.7L384.6,202.5L384.8,200.7L384.6,200.1L384.6,199.8L384.7,199.5L384.7,199.2L384.7,198.8L384.8,198.5L385.2,197.9L385.2,197.6L385.2,197.3L385.4,196.6L385.3,196.4L385.2,196.2L385.3,196.1L386.6,196.5L387.5,196.7L387.6,197.2L387.7,197.5L387.9,198.2L388.0,198.4L387.9,198.9L387.5,199.1L387.5,199.6L387.8,200.0L387.4,200.2L387.1,200.3L387.0,200.4L386.7,200.5L386.4,200.7L386.5,200.9L386.9,201.4L387.4,201.8L387.6,202.3L387.9,202.8L387.8,203.1L387.5,203.6L387.0,203.9L386.6,204.1L386.6,204.9ZM383.4,241.9L383.4,242.9L383.4,243.9L383.2,245.1L383.2,245.3L383.4,245.4L383.5,245.5L383.4,246.2L383.3,246.7L383.1,247.1L383.0,247.6L382.9,247.7L382.4,247.8L382.1,247.7L381.9,247.2L381.9,246.8L381.9,246.4L381.6,245.8L381.6,245.6L381.7,245.2L381.9,245.0L382.0,244.4L382.1,244.2L382.3,243.9L382.3,243.8L382.3,243.8L382.2,243.7L381.3,244.5L381.2,244.7L381.1,245.0L381.1,246.0L381.0,246.5L380.8,246.6L380.4,246.7L379.8,246.6L379.1,246.1L378.7,246.2L378.6,245.6L378.8,245.1L379.6,245.1L379.8,244.2L379.5,244.0L379.2,243.6L379.1,243.3L379.2,243.1L379.7,242.7L379.9,242.7L380.2,242.9L380.7,242.7L380.7,242.2L380.2,241.9L380.3,241.5L380.9,241.1L381.3,240.7L381.4,240.2L381.2,239.7L381.2,239.5L381.6,239.1L382.0,239.0L382.2,239.0L382.6,239.3L383.0,239.3L383.1,239.4L383.2,239.7ZM378.9,239.4L378.4,239.4L378.3,238.2L378.8,236.5L378.9,235.8L378.7,235.4L378.6,235.0L378.7,234.8L379.4,234.5L379.6,234.8L379.9,235.8L380.4,237.1L380.4,238.4L380.1,238.7L379.2,239.1ZM383.8,268.1L383.9,268.2L384.0,268.2L384.3,268.3L385.2,268.4L386.0,268.8L386.4,269.1L387.0,269.2L387.4,269.6L387.6,269.7L387.9,269.7L388.5,270.5L388.5,270.6L389.2,271.2L389.2,271.3L388.8,271.3L388.0,271.0L387.7,271.0L387.4,270.9L387.3,270.9L387.2,270.5L387.1,270.4L386.4,269.6L386.0,269.4L385.5,269.2L384.9,269.3L384.4,269.2L384.3,269.3L383.7,268.6L383.0,268.1L382.8,267.5L382.4,267.0L382.4,266.9L382.5,266.8L383.0,267.0L383.4,267.5L383.6,267.7ZM383.0,238.2L382.9,238.4L382.4,238.3L381.4,238.4L381.1,237.9L380.9,236.9L380.8,236.7L380.5,236.2L380.4,235.8L380.2,235.3L380.1,234.7L380.0,234.5L380.2,234.2L381.2,233.8L381.6,233.3L381.9,233.4L381.8,234.5L381.9,234.8L382.3,235.2L382.3,235.3L382.4,235.7L382.6,236.3L382.8,236.6L382.8,236.8L382.8,236.9L382.8,237.1ZM390.2,272.2L390.3,272.8L390.4,272.9L390.7,272.8L391.2,272.8L392.1,273.0L392.2,273.0L392.6,273.7L392.9,274.0L393.3,274.6L392.9,275.0L392.6,275.6L392.6,275.9L392.4,276.0L392.1,276.2L391.7,276.6L391.2,276.6L390.8,276.8L390.5,276.9L390.4,277.0L390.2,276.9L390.1,276.7L390.0,276.5L390.4,276.3L390.8,275.7L390.9,275.0L390.4,274.9L390.1,275.0L389.9,275.0L389.7,274.8L389.5,275.1L389.5,275.4L389.5,275.9L389.5,276.0L389.3,276.1L388.9,275.9L388.5,275.6L388.5,275.4L388.6,274.8L388.5,274.5L388.5,274.0L388.4,274.0L388.3,274.0L387.8,274.1L387.3,273.5L387.0,272.8L386.1,272.7L386.8,271.8L387.9,271.7L388.2,272.1L389.4,272.4L389.3,271.9L389.3,271.8L389.5,271.6L389.6,271.5L389.7,271.7L390.0,271.8L390.1,271.9ZM381.9,258.9L382.1,260.3L382.2,260.5L382.6,260.6L383.1,261.3L383.1,261.5L382.6,262.6L382.4,263.5L381.8,263.4L381.5,262.6L381.0,261.8L380.9,260.8L380.6,260.0L381.1,259.6L381.5,259.7L381.5,259.0ZM404.2,282.9L407.7,283.7L408.8,283.2L409.7,283.2L409.9,283.9L409.0,284.5L409.0,284.7L409.1,284.9L410.0,285.0L410.2,285.2L410.4,285.5L410.2,285.9L410.2,286.1L410.3,286.3L411.0,286.9L411.3,287.2L411.4,287.5L411.4,288.0L411.4,288.5L411.3,288.5L411.0,288.4L410.6,288.1L410.4,287.5L410.2,287.4L409.6,287.3L409.1,287.0L408.6,287.0L408.2,286.9L407.9,287.0L407.7,286.8L407.6,286.4L407.6,286.2L407.8,285.5L407.8,285.4L407.7,285.4L407.3,285.5L407.1,285.4L406.6,284.9L406.5,284.8L406.0,284.8L405.7,285.6L405.7,285.8L406.0,286.4L406.5,287.2L406.2,287.2L405.5,286.9L405.3,286.8L405.1,286.4L404.6,286.1L404.5,286.0L404.4,285.8L404.4,285.3L404.3,285.2L403.7,285.3L403.6,285.2L403.5,285.0L403.4,284.9L403.0,284.6L403.0,284.5L403.2,284.4L403.3,284.0L403.4,282.6ZM396.9,276.3L397.8,276.9L398.5,276.9L398.5,277.2L398.5,277.8L398.4,278.1L398.2,278.4L398.1,278.7L397.9,278.8L397.2,278.4L396.5,277.7L396.1,277.8L395.6,277.7L395.2,277.7L395.0,278.1L394.4,278.3L394.3,277.6L393.8,276.9L393.3,276.4L393.6,275.6L393.9,275.4L394.2,275.2L395.5,275.4L396.1,275.7ZM386.6,211.6L386.4,211.9L386.1,211.9L385.5,212.2L385.5,212.5L385.5,212.8L385.8,213.2L386.0,213.6L386.2,214.3L386.4,215.0L386.4,215.2L386.4,215.5L386.7,216.1L386.7,216.3L386.7,216.5L386.6,217.0L386.5,217.0L386.2,217.1L386.2,217.3L386.1,217.4L385.4,217.5L385.0,217.3L385.1,216.5L384.6,216.2L384.3,215.7L383.9,214.8L383.6,214.5L383.3,213.8L382.8,213.1L383.4,212.8L383.3,212.1L383.6,211.8L384.1,211.6L384.5,211.8L384.9,211.7L385.0,211.6L385.0,210.9L385.1,210.3L385.5,210.1L385.9,210.0L386.1,210.3L386.3,210.6L386.8,210.9L386.8,211.2ZM389.9,214.0L388.8,214.4L388.3,214.3L388.1,213.9L388.0,213.6L387.9,213.1L388.1,212.8L388.5,212.4L388.6,212.2L388.7,211.9L388.6,211.6L388.7,211.3L388.9,211.2L389.7,211.5L390.5,212.0L390.8,212.3L390.9,212.5L390.5,213.1L390.3,213.5ZM380.9,214.6L380.8,214.7L380.7,214.7L380.6,214.5L380.5,214.2L380.6,214.1L380.8,214.1L380.9,214.2L381.0,214.5ZM379.8,252.3L379.7,252.9L379.3,252.9L379.2,252.7L379.1,252.3L379.0,252.1L379.2,251.7L379.3,251.3L379.2,250.9L379.8,250.9L380.4,251.0L380.6,251.1L380.4,251.4L380.2,251.6L379.8,251.7ZM380.6,239.8L380.6,240.4L380.0,241.4L379.4,242.0L378.9,242.5L378.6,242.5L378.3,242.2L378.6,241.8L379.0,241.5L378.9,241.0L378.7,240.8L378.6,240.8L378.3,240.5L378.4,240.2L378.6,240.0L378.8,239.8L379.0,239.9L379.8,239.7L380.1,239.5L380.6,239.4ZM380.6,233.3L380.3,233.4L380.3,233.2L380.0,232.8L380.2,232.6L380.7,232.3L381.1,232.3L381.4,232.5L381.5,232.8L380.9,233.0L380.7,233.2ZM382.5,206.8L381.9,206.9L381.8,206.8L381.8,206.6L381.9,206.5L382.2,206.4L382.4,206.5L382.5,206.6L382.6,206.8ZM387.1,214.2L386.9,214.3L386.8,214.3L386.7,214.1L386.6,213.8L386.3,213.4L386.3,213.2L386.3,212.9L386.4,212.6L386.7,212.5L386.8,212.5L387.0,212.9L387.1,213.3L387.1,213.8ZM383.0,256.4L383.0,257.0L382.9,257.2L382.8,257.3L382.5,257.1L382.3,257.1L382.0,257.4L381.7,257.5L381.4,257.5L380.9,257.3L380.5,258.2L380.3,258.5L379.8,258.9L379.8,258.4L380.1,257.7L380.2,257.2L380.4,256.4L380.9,256.7L381.6,256.4L382.3,255.9L382.8,255.9L383.0,256.2ZM380.9,249.7L380.0,250.2L379.8,250.0L379.2,250.0L379.3,249.4L379.4,249.0L379.5,248.8L379.5,248.4L379.7,247.7L380.2,247.9L380.6,248.0L381.1,248.2L381.7,248.4L381.8,249.0L381.3,249.3ZM386.3,208.1L386.4,208.4L386.2,208.5L385.9,208.4L385.7,208.7L385.7,208.7L384.9,208.5L384.8,208.4L384.9,208.1L385.6,208.1L386.1,207.9L386.2,207.9ZM384.9,261.0L384.7,261.1L384.2,260.9L384.0,260.8L383.6,260.4L383.6,260.0L383.4,259.6L383.5,259.6L383.9,259.8L384.1,259.9L384.3,260.2L384.9,260.6L385.0,260.7L384.9,260.9ZM384.1,219.6L383.9,219.9L383.4,220.0L383.0,219.8L382.5,219.9L382.5,219.4L382.7,219.0L383.0,218.6L383.3,217.9L383.3,217.1L383.5,216.9L383.6,216.6L384.1,216.4L384.2,217.0L384.1,218.2L384.4,218.9L384.5,219.1L384.4,219.4ZM413.5,290.4L413.4,290.4L413.0,290.2L412.4,290.2L412.3,290.1L412.3,290.0L412.4,289.9L412.7,289.8L413.6,289.9L413.8,289.9L413.8,290.0L413.6,290.3ZM418.3,285.3L418.0,285.6L417.7,285.6L417.6,285.5L417.6,285.3L417.7,285.2L417.8,285.0L418.0,284.8L418.1,284.8L418.5,285.0ZM398.6,282.5L398.8,283.0L398.9,283.1L399.4,283.3L399.7,283.2L400.2,283.1L400.6,282.9L401.1,282.8L401.7,284.0L401.6,284.4L401.2,284.8L400.8,284.9L400.5,284.8L400.6,284.6L400.5,284.4L400.3,284.2L400.1,284.2L399.8,284.3L399.7,284.3L399.4,284.1L398.8,284.0L398.7,283.8L398.7,283.6L398.6,283.5L398.0,283.1L397.7,282.7L397.4,282.7L397.2,282.7L397.1,282.9L396.9,283.0L396.8,283.0L396.7,282.9L396.7,282.7L396.8,282.3L396.9,282.3L397.7,282.4L398.2,282.5ZM414.7,289.5L414.6,289.6L414.5,289.4L414.3,289.3L413.6,289.1L413.6,289.0L413.6,288.8L413.8,288.6L414.1,288.4L414.3,288.0L414.4,288.0L414.5,288.2L414.7,288.8L414.9,289.2L414.8,289.4Z" fill="#4ECDC4" stroke="#2C3E50" stroke-width="1"/></g><circle cx="400.0" cy="150.0" r="4" fill="#E74C3C" stroke="#fff" stroke-width="2"/><text x="400.0" y="140.0" text-anchor="middle" font-family="sans-serif" font-weight="700" font-size="10" fill="#2D3436">Santiago</text></svg>