<svg viewBox="0 0 800 300" xmlns="http://www.w3.org/2000/svg"><defs><clipPath id="v"><rect width="800" height="300"/></clipPath></defs><rect width="800" height="300" fill="#DCEEF8"/><g clip-path="url(#v)"><path d="M2180,381L2182,379L2186,383L2184,389L2178,390L2172,389L2171,384L2175,380ZM2200,371L2193,373L2186,376L2185,372L2190,369L2193,369L2200,365L2200,365L2200,371ZM-1646,365L-1646,365L-1646,365L-1644,365L-1645,370L-1646,371L-1646,371L-1646,365Z" fill="#E0E0E0" stroke="#fff" stroke-width=".4"/><path d="M639,202L641,203L680,224L680,231L696,241L691,255L691,261L698,265L699,267L696,274L696,277L696,282L699,289L704,300L708,302L699,308L687,313L681,313L677,316L670,316L667,317L654,314L646,315L643,300L639,295L637,292L627,290L621,287L614,285L610,284L605,281L600,267L593,261L591,255L592,249L590,239L595,239L599,235L603,230L605,227L605,224L603,221L602,217L605,216L606,210L602,203L606,202L617,202Z" fill="#E0E0E0" stroke="#fff" stroke-width=".4"/><path d="M184,-116L184,-115L184,-113L184,-95L149,-96L149,-66L139,-64L137,-59L139,-42L97,-42L95,-38L95,-43L95,-43L119,-44L121,-48L125,-53L129,-69L143,-82L148,-97L152,-98L155,-107L164,-108L168,-107L173,-107L176,-109L183,-110L183,-116Z" fill="#E0E0E0" stroke="#fff" stroke-width=".4"/><path d="M590,239L592,249L591,255L593,261L600,267L605,281L601,280L587,281L584,283L581,290L583,294L581,307L580,318L583,320L590,324L593,322L594,334L586,334L582,328L578,323L569,322L567,316L561,320L552,318L548,313L542,312L537,312L536,309L532,309L527,308L521,310L516,310L514,311L514,298L511,294L510,287L511,280L509,276L509,269L496,270L497,266L492,266L491,268L484,268L482,274L480,277L474,275L471,277L464,278L460,272L457,269L454,262L451,254L420,254L416,255L413,255L409,257L407,253L410,252L410,248L412,245L416,242L419,244L422,239L428,240L429,243L433,245L439,238L445,233L448,229L448,220L452,210L457,204L464,199L465,196L466,192L467,188L467,182L468,173L470,166L473,160L474,154L475,146L479,141L485,138L494,141L500,145L508,146L516,148L519,142L521,141L526,142L538,137L542,139L545,139L547,136L551,135L559,136L566,137L569,135L576,144L581,146L583,144L588,144L594,142L597,147L606,154L606,166L610,168L607,172L602,174L598,180L596,185L595,194L593,198L593,206L590,209L589,215L588,216L587,222L590,227Z" fill="#E0E0E0" stroke="#fff" stroke-width=".4"/><path d="M721,209L715,201L715,162L724,149L727,146L734,146L743,138L757,138L787,106L795,97L800,90L800,84L800,73L800,69L800,69L803,68L808,67L814,66L819,62L823,62L823,65L822,71L822,77L820,81L817,93L812,105L805,119L796,134L787,146L774,161L764,170L748,180L738,188L726,201L724,207Z" fill="#E0E0E0" stroke="#fff" stroke-width=".4"/><path d="M696,241L680,231L680,224L641,203L639,202L639,190L642,186L647,179L651,171L646,159L645,153L640,146L647,140L654,132L660,134L660,140L663,144L671,144L684,153L687,153L690,153L692,154L699,155L703,150L712,146L717,149L724,149L715,162L715,201L721,209L714,214L711,218L707,219L705,226L702,231L700,238Z" fill="#E0E0E0" stroke="#fff" stroke-width=".4"/><path d="M539,103L531,98L528,95L527,92L529,87L529,83L522,76L521,72L521,69L517,66L517,59L515,55L511,56L512,52L515,47L514,43L517,39L515,37L518,30L523,22L532,23L532,-22L532,-27L544,-27L544,-50L587,-50L628,-50L671,-50L674,-38L672,-36L673,-25L677,-11L681,-8L687,-4L682,2L674,4L671,8L670,15L665,31L666,36L664,45L660,56L654,61L649,70L648,74L643,77L640,89L640,98L640,90L638,90L638,84L637,80L632,76L630,68L632,60L627,60L626,62L620,63L622,66L623,72L617,78L612,86L606,87L597,81L593,83L592,86L587,88L586,91L576,91L574,88L567,88L563,90L560,89L554,83L552,80L545,81L542,86L539,96L535,98L532,99Z" fill="#E0E0E0" stroke="#fff" stroke-width=".4"/><path d="M532,-22L532,23L523,22L518,30L515,37L517,39L514,43L515,47L512,52L511,56L515,55L517,59L517,66L521,69L521,72L514,73L509,78L501,90L491,95L481,94L478,95L479,99L473,103L469,107L455,111L453,108L451,108L449,111L440,112L442,109L438,102L437,97L432,95L426,89L428,84L433,85L436,84L442,84L436,74L437,67L436,60L432,53L433,48L426,47L426,40L422,36L426,22L440,11L440,-3L445,-26L447,-31L442,-35L442,-39L438,-42L436,-60L446,-66L489,-44Z" fill="#E0E0E0" stroke="#fff" stroke-width=".4"/><path d="M452,510L457,504L461,507L463,513L467,514L474,516L480,515L489,509L489,465L492,466L499,478L498,485L500,489L508,488L513,482L518,479L521,473L526,470L530,472L536,475L544,476L551,473L552,469L554,464L560,463L563,458L567,451L576,442L591,433L596,434L601,435L604,434L610,435L615,452L618,460L616,473L617,477L612,475L609,476L608,479L605,484L605,488L611,494L617,493L620,488L628,488L625,497L624,507L621,512L614,518L612,520L607,526L604,533L598,542L586,555L578,562L570,568L559,573L554,574L552,577L546,575L541,578L529,575L522,577L518,576L507,581L498,583L491,588L486,589L482,584L478,584L474,578L473,580L472,576L472,569L468,560L472,558L472,548L465,537L459,526L459,526ZM586,515L582,511L577,513L571,518L565,526L573,536L577,534L579,530L585,528L587,524L590,518Z" fill="#E0E0E0" stroke="#fff" stroke-width=".4"/><path d="M-293,575L-296,568L-291,562L-298,553L-306,546L-317,538L-321,538L-332,529L-339,530L-324,513L-312,502L-305,497L-296,490L-296,481L-301,474L-307,476L-304,469L-303,462L-303,456L-307,454L-311,456L-315,455L-316,451L-317,440L-319,436L-326,433L-331,436L-342,433L-341,418L-344,411L-341,409L-342,403L-339,398L-337,389L-340,382L-346,379L-347,374L-345,368L-366,367L-370,354L-367,354L-367,350L-369,346L-369,340L-376,337L-382,337L-387,334L-394,331L-398,327L-410,326L-422,316L-421,308L-422,304L-421,296L-435,298L-441,302L-450,306L-452,310L-458,310L-466,309L-472,311L-477,310L-476,293L-485,300L-494,299L-498,294L-505,293L-503,288L-509,282L-513,272L-511,270L-511,265L-504,262L-505,257L-502,253L-502,248L-489,240L-481,238L-479,237L-470,237L-465,208L-465,203L-466,197L-471,193L-471,186L-465,184L-463,185L-462,181L-469,180L-469,173L-448,173L-444,170L-441,173L-439,179L-437,178L-431,184L-423,183L-421,180L-413,177L-409,175L-408,171L-400,168L-401,166L-410,165L-411,158L-411,151L-415,148L-413,147L-405,148L-397,151L-394,149L-386,147L-374,143L-370,139L-372,136L-366,135L-364,138L-365,142L-361,144L-359,149L-362,153L-364,162L-361,167L-360,172L-354,177L-348,178L-347,176L-344,175L-339,173L-335,171L-330,171L-327,171L-321,172L-320,170L-322,168L-321,165L-317,166L-312,164L-305,167L-301,169L-297,166L-295,166L-294,169L-289,169L-284,165L-281,157L-275,147L-271,146L-269,152L-263,171L-257,173L-257,180L-265,189L-261,192L-242,194L-242,205L-234,198L-220,201L-203,208L-198,214L-199,220L-187,217L-166,222L-150,222L-134,231L-121,243L-112,246L-103,246L-99,250L-96,264L-94,270L-98,288L-104,295L-119,310L-126,322L-133,332L-136,332L-139,340L-138,361L-141,378L-142,385L-146,390L-148,405L-159,420L-160,432L-169,437L-172,444L-183,444L-200,448L-207,453L-219,457L-232,466L-241,478L-243,487L-241,493L-243,505L-245,511L-253,518L-265,540L-274,550L-281,556L-286,568Z" fill="#E0E0E0" stroke="#fff" stroke-width=".4"/><path d="M-275,147L-281,157L-284,165L-289,169L-294,169L-295,166L-297,166L-301,169L-305,167L-303,162L-302,157L-300,153L-304,146L-305,139L-299,130L-296,131L-288,133L-277,143ZM343,-418L348,-414L363,-411L358,-400L357,-389L354,-386L349,-387L349,-383L341,-374L341,-367L346,-370L350,-363L350,-359L353,-353L349,-348L352,-337L358,-335L356,-329L347,-320L326,-324L310,-319L309,-311L296,-309L284,-315L281,-312L261,-319L257,-325L262,-333L264,-363L253,-380L245,-388L229,-394L228,-406L242,-409L260,-405L256,-423L266,-416L291,-429L294,-443L304,-446L305,-441L310,-440L315,-434L323,-426L328,-427L338,-419L340,-418ZM370,-313L377,-318L379,-306L376,-295L371,-298L368,-308Z" fill="#E0E0E0" stroke="#fff" stroke-width=".4"/><path d="M610,435L604,434L601,435L596,434L591,433L585,428L576,426L573,419L573,415L569,414L556,401L553,395L551,393L547,384L559,385L562,386L566,386L572,379L581,370L585,369L586,365L592,361L600,359L601,363L610,363L615,365L617,368L622,369L628,372L628,387L626,394L625,403L627,406L626,413L624,414L621,422Z" fill="#E0E0E0" stroke="#fff" stroke-width=".4"/><path d="M591,433L576,442L567,451L563,458L560,463L554,464L552,469L551,473L544,476L536,475L530,472L526,470L521,473L518,479L513,482L508,488L500,489L498,485L499,478L492,466L489,465L489,431L500,430L500,390L508,389L525,385L529,390L536,386L539,386L545,383L547,384L551,393L553,395L556,401L569,414L573,415L573,419L576,426L585,428Z" fill="#E0E0E0" stroke="#fff" stroke-width=".4"/><path d="M489,465L489,509L480,515L474,516L467,514L463,513L461,507L457,504L452,510L444,501L439,492L437,481L434,472L431,454L431,440L429,434L425,429L420,419L414,406L412,399L403,388L402,379L407,377L414,375L421,375L427,380L429,380L472,379L479,385L505,386L525,382L534,379L541,380L545,382L545,383L539,386L536,386L529,390L525,385L508,389L500,390L500,430L489,431Z" fill="#E0E0E0" stroke="#fff" stroke-width=".4"/><path d="M98,45L94,36L89,32L93,30L99,22L101,17L105,13L110,14L115,12L121,12L126,15L133,18L140,26L147,34L147,40L150,47L154,50L154,54L154,57L152,58L147,57L146,58L143,59L136,56L131,56L111,55L108,57L104,56L99,58L97,50L107,50L109,48L111,48L115,46L120,48L124,48L129,46L127,43L123,44L120,44L116,42L112,42L110,44Z" fill="#E0E0E0" stroke="#fff" stroke-width=".4"/><path d="M154,57L154,54L154,50L150,47L147,40L147,34L151,32L152,25L156,25L163,28L169,26L173,26L175,24L218,24L220,16L218,15L213,-34L208,-84L224,-84L260,-59L296,-34L299,-28L306,-25L311,-23L311,-16L323,-17L323,9L317,16L316,23L306,25L292,26L288,30L281,30L274,30L271,28L266,30L256,34L254,38L245,43L244,45L239,48L234,46L231,49L230,56L221,65L221,69L219,74L219,80L215,82L212,83L211,78L208,80L206,79L204,83L196,82L193,81L191,82L188,79L188,75L187,74L185,75L185,72L187,69L183,64L182,61L179,59L177,59L175,60L171,62L168,64L164,63L161,60L159,60L156,61L155,61Z" fill="#E0E0E0" stroke="#fff" stroke-width=".4"/><path d="M95,-38L97,-42L139,-42L137,-59L139,-64L149,-66L149,-96L184,-95L184,-113L224,-84L208,-84L213,-34L218,15L220,16L218,24L175,24L173,26L169,26L163,28L156,25L152,25L151,32L147,34L140,26L133,18L126,15L121,12L115,12L110,14L105,13L101,17L100,11L103,5L104,-5L103,-16L102,-22L103,-28L100,-33Z" fill="#E0E0E0" stroke="#fff" stroke-width=".4"/><path d="M306,124L297,126L294,118L295,93L293,91L292,86L288,82L285,79L287,73L290,72L292,67L298,66L300,63L304,60L307,60L316,66L315,70L317,76L315,80L317,83L311,90L308,93L306,100L306,107Z" fill="#E0E0E0" stroke="#fff" stroke-width=".4"/><path d="M436,-60L438,-42L442,-39L442,-35L447,-31L445,-26L440,-3L440,11L426,22L422,36L426,40L426,47L433,48L432,53L429,53L428,57L426,57L419,45L417,45L408,51L400,48L394,47L391,49L385,48L379,53L373,53L360,48L355,50L350,50L346,46L335,42L324,43L321,45L319,52L316,56L316,66L307,60L304,60L300,63L300,55L288,53L288,48L282,40L280,35L281,30L288,30L292,26L306,25L316,23L317,16L323,9L323,-17L338,-22L369,-45L405,-67L422,-62L428,-55Z" fill="#E0E0E0" stroke="#fff" stroke-width=".4"/><path d="M306,124L306,107L306,100L308,93L311,90L317,83L315,80L317,76L315,70L316,66L316,56L319,52L321,45L324,43L335,42L346,46L350,50L355,50L360,48L373,53L379,53L385,48L391,49L394,47L400,48L408,51L417,45L419,45L426,57L428,57L433,61L431,63L431,67L422,75L419,82L418,88L415,90L413,98L407,102L406,108L403,112L402,117L395,120L389,116L385,116L379,122L376,122L370,133L368,140L357,144L353,144L348,146L340,146L334,139L331,131L323,124L315,124Z" fill="#E0E0E0" stroke="#fff" stroke-width=".4"/><path d="M287,73L285,79L288,82L292,86L293,91L295,93L294,118L297,126L288,128L286,124L283,117L282,112L285,102L282,98L281,90L281,82L276,76L277,73Z" fill="#E0E0E0" stroke="#fff" stroke-width=".4"/><path d="M277,73L276,76L281,82L281,90L282,98L285,102L282,112L283,117L286,124L288,128L272,134L266,138L256,141L246,138L247,134L242,124L245,112L250,103L247,88L245,80L246,74L264,73L269,74L272,72Z" fill="#E0E0E0" stroke="#fff" stroke-width=".4"/><path d="M191,82L193,81L196,82L204,83L206,79L208,80L211,78L212,83L215,82L219,80L224,82L226,86L231,88L234,85L239,85L247,88L250,103L245,112L242,124L247,134L246,138L242,138L234,136L227,136L215,138L207,141L197,145L195,145L195,136L196,135L196,130L192,126L188,125L185,122L187,117L186,112L187,109L188,109L189,104L188,102L189,101L193,99L191,91L188,86L189,83Z" fill="#E0E0E0" stroke="#fff" stroke-width=".4"/><path d="M131,56L136,56L143,59L146,58L147,57L152,58L154,57L155,61L156,61L159,60L161,60L164,63L168,64L171,62L175,60L177,59L179,59L182,61L183,64L187,69L185,72L185,75L187,74L188,75L188,79L191,82L189,83L188,86L191,91L193,99L189,101L188,102L189,104L188,109L187,109L184,109L182,113L179,113L176,111L177,106L173,100L170,101L168,101L165,102L165,98L163,95L163,92L161,87L158,84L150,83L147,86L144,86L142,88L141,91L135,96L131,89L127,85L124,84L121,82L120,77L118,74L115,73L120,67L123,68L126,66L128,66L130,64L129,61L130,60Z" fill="#E0E0E0" stroke="#fff" stroke-width=".4"/><path d="M99,58L104,56L108,57L111,55L131,56L130,60L129,61L130,64L128,66L126,66L123,68L120,67L115,73L110,68L105,67L103,64L103,63L100,60Z" fill="#E0E0E0" stroke="#fff" stroke-width=".4"/><path d="M187,109L186,112L187,117L185,122L188,125L192,126L196,130L196,135L195,136L195,145L192,145L181,140L171,132L162,126L155,119L157,115L158,112L163,106L168,101L170,101L173,100L177,106L176,111L179,113L182,113L184,109Z" fill="#E0E0E0" stroke="#fff" stroke-width=".4"/><path d="M135,96L141,91L142,88L144,86L147,86L150,83L158,84L161,87L163,92L163,95L165,98L165,102L168,101L163,106L158,112L157,115L155,119L152,118L144,114L139,108L137,104Z" fill="#E0E0E0" stroke="#fff" stroke-width=".4"/><path d="M219,80L219,74L221,69L221,65L230,56L231,49L234,46L239,48L244,45L245,43L254,38L256,34L266,30L271,28L274,30L281,30L280,35L282,40L288,48L288,53L300,55L300,63L298,66L292,67L290,72L287,73L277,73L272,72L269,74L264,73L246,74L245,80L247,88L239,85L234,85L231,88L226,86L224,82Z" fill="#E0E0E0" stroke="#fff" stroke-width=".4"/><path d="M569,135L566,137L559,136L551,135L547,136L545,139L542,139L538,137L526,142L521,141L519,142L516,148L508,146L500,145L494,141L485,138L479,141L475,146L474,154L467,153L460,152L454,157L448,167L447,164L446,159L442,156L438,150L437,146L432,141L432,138L431,133L432,125L435,123L440,112L449,111L451,108L453,108L455,111L469,107L473,103L479,99L478,95L481,94L491,95L501,90L509,78L514,73L521,72L522,76L529,83L529,87L527,92L528,95L531,98L539,103L545,108L545,111L552,117L557,121L560,128L568,132Z" fill="#E0E0E0" stroke="#fff" stroke-width=".4"/><path d="M474,154L473,160L470,166L468,173L467,182L467,188L466,192L465,196L464,199L457,204L452,210L448,220L448,229L445,233L439,238L433,245L429,243L428,240L422,239L419,244L416,242L412,239L409,241L404,245L395,234L404,228L400,221L403,218L410,217L411,212L417,217L426,218L430,213L431,206L430,197L425,191L429,179L427,176L419,177L416,172L417,167L430,168L439,170L447,173L448,167L454,157L460,152L467,153Z" fill="#E0E0E0" stroke="#fff" stroke-width=".4"/><path d="M397,167L402,167L409,168L415,167L417,167L416,172L419,177L427,176L429,179L425,191L430,197L431,206L430,213L426,218L417,217L411,212L410,217L403,218L400,221L404,228L395,234L384,223L377,214L371,203L371,200L374,196L376,189L378,181L382,180L397,180Z" fill="#E0E0E0" stroke="#fff" stroke-width=".4"/><path d="M380,167L397,167L397,180L382,180L378,181L376,179Z" fill="#E0E0E0" stroke="#fff" stroke-width=".4"/><path d="M605,281L610,284L614,285L621,287L627,290L632,295L635,304L633,307L631,316L633,325L629,329L626,339L632,342L599,351L600,359L592,361L586,365L585,369L581,370L572,379L566,386L562,386L559,385L547,384L545,383L545,382L541,380L534,379L525,382L518,375L511,365L511,330L533,330L533,327L534,323L532,317L533,312L532,309L536,309L537,312L542,312L548,313L552,318L561,320L567,316L569,322L578,323L582,328L586,334L594,334L593,322L590,324L583,320L580,318L581,307L583,294L581,290L584,283L587,281L601,280Z" fill="#E0E0E0" stroke="#fff" stroke-width=".4"/><path d="M627,290L637,292L639,295L643,300L646,315L643,324L646,338L650,338L654,341L658,349L659,363L654,366L651,373L644,367L643,359L646,354L645,349L641,346L638,347L632,342L626,339L629,329L633,325L631,316L633,307L635,304L632,295Z" fill="#E0E0E0" stroke="#fff" stroke-width=".4"/><path d="M646,315L654,314L667,317L670,316L677,316L681,313L687,313L699,308L708,302L709,307L709,318L710,327L711,345L712,350L709,358L705,366L698,373L689,377L677,382L665,394L660,396L653,404L649,407L648,415L653,424L655,431L655,434L657,433L657,445L655,450L657,452L656,457L651,461L642,465L630,472L625,476L626,481L629,482L628,488L620,488L619,483L617,477L616,473L618,460L615,452L610,435L621,422L624,414L626,413L627,406L625,403L626,394L628,387L628,372L622,369L617,368L615,365L610,363L601,363L600,359L599,351L632,342L638,347L641,346L645,349L646,354L643,359L644,367L651,373L654,366L659,363L658,349L654,341L650,338L646,338L643,324Z" fill="#E0E0E0" stroke="#fff" stroke-width=".4"/><path d="M620,488L617,493L611,494L605,488L605,484L608,479L609,476L612,475L617,477L619,483Z" fill="#E0E0E0" stroke="#fff" stroke-width=".4"/><path d="M416,242L412,245L410,248L410,252L407,253L404,245L409,241L412,239ZM409,257L413,255L416,255L420,254L451,254L454,262L457,269L460,272L464,278L471,277L474,275L480,277L482,274L484,268L491,268L492,266L497,266L496,270L509,269L509,276L511,280L510,287L511,294L514,298L514,311L516,310L521,310L527,308L532,309L533,312L532,317L534,323L533,327L533,330L511,330L511,365L518,375L525,382L505,386L479,385L472,379L429,380L427,380L421,375L414,375L407,377L402,379L401,372L403,362L406,352L407,347L410,337L413,333L419,326L423,321L424,313L423,307L420,303L417,296L414,290L415,287L418,283L415,273L413,266L408,259Z" fill="#E0E0E0" stroke="#fff" stroke-width=".4"/><path d="M602,217L603,221L605,224L605,227L603,230L599,235L595,239L590,239L590,227L587,222L593,223L597,216Z" fill="#E0E0E0" stroke="#fff" stroke-width=".4"/><path d="M659,-179L657,-175L653,-176L651,-168L653,-167L650,-165L650,-162L655,-163L655,-158L650,-139L649,-142L643,-160L646,-164L645,-165L648,-171L650,-180L652,-183L652,-184L656,-184L657,-186L660,-186L660,-181L658,-179Z" fill="#E0E0E0" stroke="#fff" stroke-width=".4"/><path d="M660,-186L657,-186L656,-184L652,-184L656,-194L661,-203L661,-204L666,-203L668,-198L662,-193Z" fill="#E0E0E0" stroke="#fff" stroke-width=".4"/><path d="M806,326L809,330L812,338L813,351L816,356L815,361L813,365L810,358L808,361L810,370L809,374L806,377L805,386L801,399L796,415L789,437L785,453L780,467L771,469L762,474L756,471L747,467L744,461L744,451L740,441L739,433L741,425L746,423L746,419L751,410L752,403L749,398L747,391L747,380L750,374L752,367L757,367L763,364L767,362L772,362L778,356L787,349L790,343L788,339L793,340L799,332L799,326L802,321Z" fill="#E0E0E0" stroke="#fff" stroke-width=".4"/><path d="M655,-163L650,-162L650,-165L653,-167L651,-168L653,-176L657,-175L657,-167Z" fill="#E0E0E0" stroke="#fff" stroke-width=".4"/><path d="M98,45L110,44L112,42L116,42L120,44L123,44L127,43L129,46L124,48L120,48L115,46L111,48L109,48L107,50L97,50Z" fill="#E0E0E0" stroke="#fff" stroke-width=".4"/><path d="M378,-149L374,-171L367,-176L367,-179L358,-187L357,-196L364,-204L366,-214L365,-227L367,-234L379,-239L386,-238L386,-231L395,-236L396,-233L390,-227L390,-221L394,-217L392,-206L385,-199L387,-192L393,-192L396,-186L400,-184L399,-174L394,-171L391,-167L383,-162L384,-157L383,-151Z" fill="#E0E0E0" stroke="#fff" stroke-width=".4"/><path d="M184,-113L184,-115L184,-116L184,-131L202,-140L212,-142L221,-145L225,-151L238,-156L238,-165L244,-166L249,-171L263,-173L265,-178L262,-181L258,-194L258,-202L254,-210L264,-218L276,-220L282,-225L293,-229L311,-232L328,-233L334,-231L344,-236L355,-236L360,-233L367,-234L365,-227L366,-214L364,-204L357,-196L358,-187L367,-179L367,-176L374,-171L378,-149L382,-138L382,-132L380,-122L381,-117L380,-110L381,-103L376,-98L383,-89L383,-84L387,-77L392,-79L400,-74L405,-67L369,-45L338,-22L323,-17L311,-16L311,-23L306,-25L299,-28L296,-34L260,-59L224,-84Z" fill="#E0E0E0" stroke="#fff" stroke-width=".4"/><path d="M657,-175L659,-179L670,-174L691,-187L696,-172L694,-170L672,-164L683,-151L679,-149L678,-145L669,-143L667,-139L662,-135L650,-137L650,-139L655,-158L655,-163L657,-167Z" fill="#E0E0E0" stroke="#fff" stroke-width=".4"/><path d="M828,-76L830,-76L830,-73L839,-75L847,-75L854,-74L861,-82L869,-90L876,-97L878,-93L879,-84L874,-84L873,-76L875,-74L870,-72L870,-67L867,-62L867,-58L865,-55L832,-61L828,-73Z" fill="#E0E0E0" stroke="#fff" stroke-width=".4"/><path d="M820,-82L819,-90L822,-96L825,-98L828,-94L828,-87L826,-80L823,-79Z" fill="#E0E0E0" stroke="#fff" stroke-width=".4"/><path d="M789,-145L792,-139L791,-136L794,-127L787,-127L784,-133L774,-134L782,-146Z" fill="#E0E0E0" stroke="#fff" stroke-width=".4"/><path d="M696,-172L691,-187L715,-201L719,-216L718,-226L724,-229L729,-238L734,-240L746,-238L750,-235L755,-237L762,-221L769,-217L770,-209L765,-205L762,-195L769,-183L783,-176L788,-166L786,-157L790,-157L790,-150L796,-144L789,-145L782,-146L774,-134L755,-135L724,-160L708,-168Z" fill="#E0E0E0" stroke="#fff" stroke-width=".4"/><path d="M867,-58L867,-62L870,-67L870,-72L875,-74L873,-76L874,-84L879,-84L884,-76L890,-71L898,-70L904,-68L909,-61L912,-57L916,-56L916,-53L912,-46L910,-43L906,-39L902,-32L897,-32L895,-30L893,-24L894,-16L893,-15L888,-15L882,-11L881,-5L878,-3L871,-3L867,-0L867,4L862,8L856,7L849,10L844,11L841,3L832,-15L864,-27L872,-50ZM878,-93L876,-97L879,-101L880,-100L879,-95Z" fill="#E0E0E0" stroke="#fff" stroke-width=".4"/><path d="M1108,-215L1098,-204L1086,-202L1070,-205L1065,-199L1068,-188L1072,-179L1081,-173L1072,-166L1072,-157L1061,-145L1055,-132L1044,-119L1031,-120L1019,-108L1026,-102L1028,-93L1034,-87L1036,-77L1012,-77L1005,-69L997,-72L994,-81L986,-90L966,-87L949,-87L934,-85L938,-99L953,-105L952,-111L947,-113L947,-124L937,-129L932,-136L927,-143L945,-136L956,-138L962,-137L964,-139L972,-138L986,-143L986,-154L992,-161L1000,-161L1001,-165L1009,-166L1013,-165L1017,-168L1017,-176L1021,-184L1028,-187L1024,-195L1034,-195L1037,-200L1037,-205L1042,-210L1041,-217L1038,-222L1044,-228L1056,-231L1068,-232L1074,-235L1080,-236L1088,-230L1091,-220Z" fill="#E0E0E0" stroke="#fff" stroke-width=".4"/><path d="M987,-239L993,-239L1001,-237L1005,-235L1012,-239L1016,-237L1020,-243L1026,-242L1028,-244L1029,-250L1033,-255L1039,-252L1038,-247L1041,-247L1040,-235L1044,-231L1048,-234L1053,-235L1059,-241L1067,-240L1078,-240L1080,-236L1074,-235L1068,-232L1056,-231L1044,-228L1038,-222L1041,-217L1042,-210L1037,-205L1037,-200L1034,-195L1024,-195L1028,-187L1021,-184L1017,-176L1017,-168L1013,-165L1009,-166L1001,-165L1000,-161L992,-161L986,-154L986,-143L972,-138L964,-139L962,-137L956,-138L945,-136L927,-143L937,-154L936,-162L928,-164L927,-172L924,-182L928,-189L923,-191L926,-200L931,-217L942,-212L950,-213L952,-219L960,-221L966,-225L969,-236L978,-239L979,-243L984,-240Z" fill="#E0E0E0" stroke="#fff" stroke-width=".4"/><path d="M796,-144L790,-150L790,-157L786,-157L788,-166L783,-176L769,-183L762,-195L765,-205L770,-209L769,-217L762,-221L755,-237L749,-248L751,-252L748,-268L755,-272L757,-266L763,-260L770,-258L774,-259L786,-269L790,-270L793,-266L790,-259L796,-252L799,-252L802,-242L813,-240L820,-233L835,-231L852,-234L853,-237L862,-240L870,-248L877,-247L882,-250L889,-248L901,-242L910,-240L922,-228L930,-228L931,-217L926,-200L923,-191L928,-189L924,-182L927,-172L928,-164L936,-162L937,-154L927,-143L932,-136L937,-129L947,-124L947,-113L952,-111L953,-105L938,-99L934,-85L914,-89L902,-92L890,-93L885,-108L880,-110L872,-108L861,-102L848,-106L838,-115L827,-119L820,-130L812,-147L807,-145L800,-149Z" fill="#E0E0E0" stroke="#fff" stroke-width=".4"/><path d="M659,-179L658,-179L660,-181L660,-186L662,-193L668,-198L666,-203L661,-204L660,-214L663,-219L666,-222L669,-225L669,-232L673,-230L685,-233L690,-231L699,-231L711,-236L717,-236L729,-238L724,-229L718,-226L719,-216L715,-201L691,-187L670,-174Z" fill="#E0E0E0" stroke="#fff" stroke-width=".4"/><path d="M666,36L665,31L670,15L671,8L674,4L682,2L687,-4L693,9L696,19L702,24L717,35L723,41L729,48L732,51L737,55L734,57L729,56L726,53L721,46L717,43L714,39L704,35L697,34L695,32L688,35L682,30L679,38Z" fill="#E0E0E0" stroke="#fff" stroke-width=".4"/><path d="M832,-15L841,3L844,11L837,14L834,19L834,23L824,27L806,33L797,40L792,41L789,40L783,45L776,47L767,47L764,48L762,51L759,52L757,55L752,54L749,56L741,55L739,49L739,43L737,40L735,31L732,27L734,26L733,21L734,19L734,14L739,11L737,6L740,1L745,3L748,2L760,2L762,3L772,4L776,4L779,8L784,6L792,-6L802,-11Z" fill="#E0E0E0" stroke="#fff" stroke-width=".4"/><path d="M650,-137L662,-135L667,-139L669,-143L678,-145L679,-149L683,-151L672,-164L694,-170L696,-172L708,-168L724,-160L755,-135L774,-134L784,-133L787,-127L794,-127L798,-117L804,-114L805,-110L813,-105L813,-100L812,-96L814,-92L817,-88L818,-85L820,-82L823,-79L826,-80L828,-76L828,-73L832,-61L865,-55L867,-58L872,-50L864,-27L832,-15L802,-11L792,-6L784,6L779,8L776,4L772,4L762,3L760,2L748,2L745,3L740,1L737,6L739,11L734,14L732,10L729,6L728,2L723,-2L717,-12L714,-21L707,-29L702,-31L695,-41L694,-49L694,-56L688,-69L683,-74L677,-76L674,-83L674,-86L671,-92L668,-94L664,-103L658,-113L652,-121L647,-121L649,-128L649,-132Z" fill="#E0E0E0" stroke="#fff" stroke-width=".4"/><path d="M254,-210L258,-202L258,-194L262,-181L265,-178L263,-173L249,-171L244,-166L238,-165L238,-156L225,-151L221,-145L212,-142L202,-140L184,-131L184,-116L183,-116L183,-110L176,-109L173,-107L168,-107L164,-108L155,-107L152,-98L148,-97L143,-82L129,-69L125,-53L121,-48L119,-44L95,-43L95,-43L96,-48L100,-51L103,-57L103,-61L106,-70L112,-77L116,-79L119,-86L119,-92L123,-99L130,-104L137,-116L137,-116L142,-121L152,-122L160,-130L166,-134L175,-144L172,-159L176,-170L178,-177L184,-185L195,-191L203,-197L210,-210L214,-218L221,-218L228,-212L238,-213L249,-211Z" fill="#E0E0E0" stroke="#fff" stroke-width=".4"/><path d="M671,-50L628,-50L587,-50L544,-50L544,-93L544,-135L541,-145L544,-153L542,-158L546,-164L560,-165L570,-161L581,-158L586,-156L594,-160L598,-163L608,-164L615,-163L618,-156L621,-160L629,-157L638,-157L643,-160L649,-142L650,-139L647,-134L645,-125L642,-118L639,-116L636,-120L631,-125L623,-143L622,-142L627,-129L633,-117L641,-98L645,-92L649,-85L658,-72L656,-70L656,-62L669,-52Z" fill="#E0E0E0" stroke="#fff" stroke-width=".4"/><path d="M544,-50L544,-27L532,-27L532,-22L489,-44L446,-66L436,-60L428,-55L422,-62L405,-67L400,-74L392,-79L387,-77L383,-84L383,-89L376,-98L381,-103L380,-110L381,-117L380,-122L382,-132L382,-138L378,-149L383,-151L384,-157L383,-162L391,-167L394,-171L399,-174L400,-184L412,-180L417,-181L426,-179L440,-173L445,-162L454,-159L469,-154L481,-148L486,-151L491,-157L489,-167L492,-173L500,-179L507,-180L521,-178L525,-172L529,-172L533,-170L543,-168L546,-164L542,-158L544,-153L541,-145L544,-135L544,-93Z" fill="#E0E0E0" stroke="#fff" stroke-width=".4"/><path d="M787,106L757,138L743,138L734,146L727,146L724,149L717,149L712,146L703,150L699,155L692,154L690,153L687,153L684,153L671,144L663,144L660,140L660,134L654,132L648,121L643,118L641,114L636,109L629,108L633,102L638,102L640,98L640,89L643,77L648,74L649,70L654,61L660,56L664,45L666,36L679,38L682,30L688,35L695,32L697,34L704,35L714,39L717,43L721,46L726,53L729,56L726,61L722,66L723,69L723,73L729,73L731,72L734,74L732,78L735,84L739,89L743,93L778,106Z" fill="#E0E0E0" stroke="#fff" stroke-width=".4"/><path d="M729,56L734,57L737,55L740,58L739,63L733,65L738,68L734,74L731,72L729,73L723,73L723,69L722,66L726,61Z" fill="#E0E0E0" stroke="#fff" stroke-width=".4"/><path d="M800,69L800,69L800,73L800,84L800,90L795,97L787,106L778,106L743,93L739,89L735,84L732,78L734,74L738,68L741,70L743,75L748,79L753,79L764,76L775,75L785,72L790,71L794,69Z" fill="#E0E0E0" stroke="#fff" stroke-width=".4"/><path d="M639,202L617,202L606,202L602,203L595,207L593,206L593,198L595,194L596,185L598,180L602,174L607,172L610,168L606,166L606,154L611,151L617,153L626,151L634,151L640,146L645,153L646,159L651,171L647,179L642,186L639,190Z" fill="#E0E0E0" stroke="#fff" stroke-width=".4"/><path d="M602,203L606,210L605,216L602,217L597,216L593,223L587,222L588,216L589,215L590,209L593,206L595,207Z" fill="#E0E0E0" stroke="#fff" stroke-width=".4"/><path d="M606,154L597,147L594,142L588,144L583,144L581,146L576,144L569,135L568,132L560,128L557,121L552,117L545,111L545,108L539,103L532,99L535,98L539,96L542,86L545,81L552,80L554,83L560,89L563,90L567,88L574,88L576,91L586,91L587,88L592,86L593,83L597,81L606,87L612,86L617,78L623,72L622,66L620,63L626,62L627,60L632,60L630,68L632,76L637,80L638,84L638,90L640,90L640,98L638,102L633,102L629,108L636,109L641,114L643,118L648,121L654,132L647,140L640,146L634,151L626,151L617,153L611,151Z" fill="#E0E0E0" stroke="#fff" stroke-width=".4"/></g><g clip-path="url(#v)"><path d="M368.3,140.5L368.6,139.7L369.3,138.7L370.0,137.4L370.9,135.8L371.6,132.9L372.0,131.1L372.4,129.5L373.1,128.1L373.7,127.1L375.6,125.2L377.1,123.7L377.8,123.2L378.3,122.7L379.2,122.1L380.1,121.5L380.8,120.2L381.4,119.0L381.8,118.7L382.4,118.5L384.2,117.3L385.3,116.4L385.6,116.9L385.8,117.3L385.9,117.6L386.9,117.7L388.2,117.7L388.9,117.6L389.3,117.2L389.7,116.0L389.9,115.8L390.3,115.7L391.6,116.5L392.8,117.7L393.9,118.8L394.5,119.2L394.8,119.7L395.3,121.7L395.6,122.2L396.1,122.5L397.0,122.3L397.9,122.0L398.8,121.4L399.6,120.7L400.1,120.1L400.3,119.7L400.4,118.0L400.6,117.6L401.5,116.9L402.9,115.8L403.6,115.2L403.6,114.9L403.1,114.2L402.6,113.5L403.1,112.7L403.6,112.1L405.3,110.1L405.3,109.4L405.4,108.6L406.8,106.3L407.6,103.2L407.6,102.6L408.4,101.1L409.4,99.2L411.4,98.9L412.1,98.4L412.9,97.6L413.5,96.8L413.7,96.1L413.9,94.6L414.3,93.0L414.5,91.5L415.1,90.2L416.0,89.6L417.7,89.0L417.9,88.7L418.2,87.8L418.4,86.0L418.4,84.9L418.5,84.4L418.7,83.6L420.2,82.1L420.9,79.8L421.5,77.4L423.3,74.5L425.3,71.6L426.3,70.8L427.1,70.5L428.0,70.4L428.7,70.2L430.9,68.8L431.8,68.3L432.5,67.8L432.6,67.3L432.7,66.7L432.5,65.2L432.9,64.1L433.1,62.4L433.2,61.1L433.1,60.6L432.7,60.0L432.7,59.8L432.1,59.0L430.9,58.5L429.4,58.4L428.6,58.1L428.5,57.4L428.4,57.0L428.3,56.5L428.2,55.5L427.2,50.4L429.1,50.4L431.4,51.1L432.0,51.5L432.3,53.3L433.1,54.3L434.6,55.1L435.6,56.8L435.9,59.3L436.7,60.8L436.9,61.1L437.8,63.3L438.1,63.9L438.1,65.3L438.0,66.1L438.5,67.2L437.8,69.1L437.6,70.3L437.5,71.9L437.9,74.8L438.6,77.0L439.3,78.8L440.1,80.1L441.4,81.7L442.9,83.0L444.2,83.9L442.9,84.4L440.6,84.5L439.2,84.2L438.6,84.2L437.9,84.4L435.4,84.6L432.9,84.5L430.5,84.2L429.1,84.2L428.0,85.1L427.1,86.3L426.2,87.4L426.6,88.5L427.2,89.1L428.4,90.4L429.5,91.8L430.1,92.6L432.2,94.6L434.3,96.3L434.7,96.6L435.3,96.9L435.7,97.0L436.8,98.0L438.4,99.6L439.9,102.2L440.9,104.7L441.9,107.2L442.4,107.7L443.1,107.9L443.1,108.5L443.1,109.2L442.9,109.9L442.3,110.8L441.2,112.6L439.8,113.6L439.4,114.2L439.2,115.0L438.9,115.7L438.1,117.4L437.6,118.7L437.0,119.2L435.7,121.2L434.8,123.2L434.7,123.8L434.4,124.2L434.0,124.5L432.5,125.1L432.0,125.4L431.6,125.8L431.2,126.2L431.1,126.8L431.4,127.5L431.9,128.1L432.3,128.1L432.7,128.1L432.9,128.4L433.1,128.6L433.1,132.6L432.7,133.2L432.7,133.4L432.6,134.1L432.5,134.9L432.6,135.2L432.9,135.4L433.3,136.0L433.6,137.2L434.1,141.5L434.3,142.2L434.7,142.6L436.1,143.5L437.4,144.8L437.9,145.6L438.1,146.9L438.6,147.9L438.6,148.2L438.4,148.3L437.9,148.4L437.6,148.4L437.8,149.2L438.6,150.5L439.7,151.8L441.0,153.3L442.1,154.4L443.4,155.8L444.4,156.9L445.4,157.9L446.2,158.2L446.8,158.3L447.1,158.5L447.4,159.0L447.9,159.6L448.5,160.3L448.7,161.0L448.5,161.7L448.7,162.8L448.7,162.8L448.9,163.2L448.9,163.6L449.0,164.9L449.3,166.1L449.8,167.1L449.8,167.2L449.7,167.8L449.1,168.2L448.7,168.9L448.6,169.8L448.8,170.9L449.3,172.2L449.3,172.9L449.1,173.1L448.8,173.3L448.5,173.5L447.6,172.6L446.6,172.0L445.1,170.9L443.6,170.5L441.6,170.5L440.8,170.6L440.2,170.2L439.4,169.7L438.9,169.6L438.2,170.0L437.8,170.0L437.2,169.8L436.1,169.9L436.0,169.3L435.8,169.1L434.6,169.2L434.3,168.7L434.1,168.8L433.6,168.6L432.7,167.9L431.7,168.3L429.6,168.3L426.9,168.3L424.1,168.3L421.5,168.3L418.9,168.3L418.7,167.6L418.2,167.3L417.2,167.2L414.4,167.4L412.2,167.3L411.6,167.2L410.8,167.0L409.0,166.8L406.8,167.0L406.3,166.9L404.5,167.0L400.4,166.8L398.2,166.8L398.2,167.2L398.1,167.5L397.9,168.2L395.5,168.2L392.2,168.2L389.1,168.2L387.1,168.2L383.6,168.2L382.4,167.7L382.0,167.4L381.9,167.1L381.9,166.8L381.6,166.7L381.9,164.2L382.3,162.1L382.5,160.2L383.2,158.5L382.9,156.7L382.4,156.0L380.3,153.6L381.3,152.6L379.9,152.8L379.7,151.9L379.0,150.8L379.4,150.6L379.8,150.0L381.0,150.2L380.9,149.9L379.9,149.0L380.0,148.5L380.4,148.0L380.2,147.8L379.5,148.3L378.9,148.3L378.6,148.0L378.3,147.9L378.4,148.6L378.0,149.2L377.6,149.4L376.9,149.4L376.4,149.3L376.3,148.9L375.8,148.6L374.3,148.2L373.1,147.6L372.8,146.1L372.4,145.5L372.1,144.8L372.0,144.0L372.2,142.7L371.9,142.5L371.6,142.4L371.0,142.5L370.5,142.4L369.9,141.7L369.4,141.4L369.8,142.7L369.4,143.1L368.5,143.0L368.2,142.5L368.1,142.1L368.5,140.6Z" fill="#4ECDC4" stroke="#2C3E50" stroke-width="1"/></g><circle cx="400.0" cy="150.0" r="4" fill="#E74C3C" stroke="#fff" stroke-width="2"/><text x="400.0" y="140.0" text-anchor="middle" font-family="sans-serif" font-weight="700" font-size="10" fill="#2D3436">Yaoundé</text></svg>