<svg viewBox="0 0 800 300" xmlns="http://www.w3.org/2000/svg"><defs><clipPath id="v"><rect width="800" height="300"/></clipPath></defs><rect width="800" height="300" fill="#DCEEF8"/><g clip-path="url(#v)"><path d="M2196,310L2198,309L2200,311L2199,315L2195,316L2191,315L2190,312L2193,309ZM2209,303L2205,305L2200,307L2199,304L2203,302L2205,302L2209,300L2209,300L2209,303ZM-354,300L-354,300L-354,300L-353,299L-354,303L-354,303L-354,303L-354,300Z" fill="#E0E0E0" stroke="#fff" stroke-width=".4"/><path d="M866,-21L866,-21L866,-19L866,-7L842,-8L842,12L836,13L834,17L835,28L807,28L806,31L806,27L806,27L822,27L823,24L826,21L829,10L838,1L842,-9L844,-9L846,-15L852,-16L855,-15L858,-15L860,-17L865,-17L865,-21Z" fill="#E0E0E0" stroke="#fff" stroke-width=".4"/><path d="M53,-218L52,-218L38,-229L33,-233L20,-238L16,-248L17,-255L8,-260L7,-270L-2,-279L-2,-285L2,-291L2,-299L-10,-307L-18,-322L-22,-332L-29,-338L-33,-343L-37,-351L-44,-346L-51,-338L-58,-348L-63,-354L-70,-358L-77,-358L-77,-448L-77,-519L-63,-514L-52,-504L-45,-502L-38,-510L-30,-517L-19,-514L-8,-523L3,-529L8,-520L13,-525L15,-535L20,-532L32,-514L41,-528L42,-512L51,-515L54,-521L62,-520L73,-512L90,-504L100,-501L107,-502L116,-492L106,-483L119,-479L138,-481L145,-484L152,-473L160,-483L153,-491L157,-497L166,-498L172,-500L177,-495L184,-485L192,-487L205,-478L216,-481L226,-481L226,-492L232,-496L243,-489L243,-471L247,-486L253,-486L256,-506L249,-518L240,-526L241,-550L249,-566L259,-563L266,-553L276,-528L269,-518L283,-514L283,-494L292,-509L301,-497L299,-482L305,-470L313,-483L318,-500L318,-522L329,-520L339,-517L349,-507L349,-498L344,-487L349,-477L348,-468L334,-455L324,-453L317,-458L315,-449L308,-435L306,-427L297,-416L287,-415L282,-408L281,-398L273,-396L264,-383L256,-367L254,-355L253,-339L264,-337L267,-324L270,-314L280,-317L293,-311L301,-306L306,-300L315,-296L322,-291L334,-290L342,-289L340,-279L343,-266L348,-253L358,-242L364,-246L368,-258L364,-277L359,-283L370,-289L378,-298L382,-307L382,-315L377,-327L368,-337L377,-352L374,-365L371,-388L376,-392L388,-387L396,-386L402,-390L408,-385L417,-376L419,-370L432,-369L432,-357L434,-339L441,-337L446,-329L456,-337L463,-352L468,-359L473,-346L482,-328L490,-312L487,-304L497,-297L503,-290L515,-287L519,-283L522,-272L528,-271L530,-266L531,-253L526,-249L521,-245L509,-241L500,-231L488,-230L473,-232L462,-232L455,-231L449,-223L440,-219L429,-204L421,-195L427,-196L439,-210L454,-219L464,-220L470,-215L464,-208L466,-196L468,-189L478,-184L489,-185L497,-197L497,-189L502,-185L493,-179L477,-173L470,-169L462,-162L457,-162L456,-171L469,-179L457,-179L449,-177L445,-183L445,-197L442,-200L437,-198L434,-201L429,-193L427,-185L424,-181L421,-179L419,-179L418,-176L405,-176L394,-176L391,-174L384,-167L383,-166L380,-162L374,-162L367,-162L364,-161L365,-159L365,-156L365,-155L356,-150L349,-149L340,-143L339,-143L336,-145L335,-146L336,-147L337,-151L340,-156L343,-162L341,-170L340,-180L332,-184L333,-186L332,-187L330,-187L329,-189L328,-191L327,-190L325,-191L325,-192L324,-193L323,-195L318,-199L312,-202L305,-206L298,-210L292,-207L289,-207L281,-210L275,-209L268,-212L261,-214L256,-214L254,-216L252,-222L250,-222L250,-218L235,-218L211,-218L187,-218L165,-218L144,-218L123,-218L101,-218L94,-218L73,-218ZM329,-390L335,-397L344,-397L344,-394L336,-386L331,-386ZM359,-587L352,-600L352,-609L355,-611L372,-608L384,-594L384,-588L377,-588L369,-589L361,-586ZM356,-384L358,-389L361,-389L363,-386L360,-378L357,-379L355,-383ZM261,-643L257,-633L247,-635L238,-642L242,-654L252,-662L258,-652ZM259,-719L256,-718L243,-721L241,-730L255,-729L260,-723ZM238,-763L247,-750L245,-737L235,-730L229,-738L226,-752L225,-767L234,-765ZM300,-627L288,-631L269,-639L267,-654L266,-669L259,-682L244,-685L236,-695L239,-708L253,-706L261,-696L275,-696L281,-686L280,-674L288,-668L292,-661L302,-660L312,-657L324,-663L338,-666L350,-664L357,-653L359,-642L355,-634L344,-629L335,-632L314,-628ZM135,-741L145,-735L143,-725L130,-716L119,-727L125,-737ZM137,-764L147,-757L138,-750L126,-750L126,-755L133,-766ZM532,-244L528,-236L523,-227L528,-230L532,-228L530,-224L536,-221L540,-224L547,-221L544,-213L549,-214L550,-209L553,-202L550,-193L546,-193L542,-195L543,-203L541,-204L533,-195L529,-196L534,-201L527,-203L519,-203L505,-203L504,-206L509,-210L506,-213L512,-219L519,-237L523,-243L530,-247L533,-247ZM330,-433L338,-427L346,-422L347,-414L352,-415L357,-410L351,-405L340,-409L336,-416L329,-408L318,-399L316,-409L306,-407L313,-415L313,-428L316,-444L321,-442L322,-435L326,-437ZM367,-576L373,-586L389,-574L399,-563L400,-553L413,-558L420,-544L438,-536L444,-527L451,-508L437,-499L454,-486L466,-482L476,-465L487,-464L485,-451L472,-431L464,-438L452,-455L443,-453L442,-443L450,-433L459,-425L462,-421L467,-405L464,-393L456,-398L438,-410L448,-397L455,-387L456,-382L437,-388L422,-397L413,-405L416,-409L405,-418L395,-426L395,-421L374,-418L368,-424L373,-436L386,-437L401,-439L398,-445L401,-454L410,-471L408,-480L405,-486L394,-495L380,-502L385,-507L377,-520L371,-521L365,-528L361,-522L348,-519L323,-524L307,-530L296,-533L290,-541L297,-551L287,-551L285,-574L291,-595L298,-605L316,-612L311,-596L317,-581L323,-600L341,-611L354,-585L352,-570ZM255,-621L269,-620L283,-613L272,-591L264,-586L256,-569L248,-570L244,-590L244,-603L247,-613ZM53,-676L65,-698L79,-719L90,-719L100,-724L99,-699L94,-688L87,-687L74,-674L62,-669ZM-18,-276L-11,-277L-13,-263L-7,-254L-10,-254L-14,-259L-16,-264L-20,-268L-21,-273L-21,-277ZM176,-783L190,-778L209,-764L215,-747L218,-732L206,-736L194,-748L178,-749L185,-759L177,-768ZM48,-213L44,-211L33,-216L31,-220L24,-224L23,-227L16,-229L13,-235L13,-237L21,-235L25,-233L32,-232L34,-228L38,-223L45,-218ZM62,-629L72,-623L90,-622L97,-614L105,-604L96,-597L78,-580L70,-564L70,-554L51,-544L47,-553L31,-565L34,-575L39,-592L45,-609L38,-625ZM160,-668L166,-673L173,-671L175,-657L170,-644L146,-640L128,-628L117,-627L117,-636L131,-648L99,-645L89,-650L99,-678L106,-686L126,-676L138,-659L151,-657L141,-685L147,-696L154,-693L157,-678ZM169,-594L177,-584L181,-561L184,-546L196,-535L208,-525L208,-516L196,-514L200,-507L198,-499L185,-502L173,-508L165,-507L151,-500L133,-497L121,-495L117,-504L107,-510L101,-507L92,-524L97,-526L108,-529L118,-529L127,-532L113,-537L98,-535L88,-536L84,-544L101,-553L90,-552L77,-558L83,-575L88,-585L107,-600L114,-595L111,-584L127,-591L137,-579L145,-591L151,-583L157,-560L161,-570L156,-594L162,-598ZM212,-585L204,-601L213,-613L221,-608L234,-611L236,-604L229,-592L240,-581L239,-560L227,-552L220,-554L215,-562L198,-580L198,-588ZM168,-607L178,-608L183,-602L177,-586L166,-603ZM226,-694L231,-680L232,-665L228,-644L217,-641L209,-645L209,-662L198,-659L197,-682L205,-681L215,-692L225,-690ZM244,-836L249,-849L256,-853L253,-863L269,-865L278,-841L290,-832L302,-824L308,-797L316,-784L307,-773L293,-745L281,-743L266,-748L258,-762L259,-776L264,-786L251,-785L243,-798L239,-817ZM275,-896L286,-906L294,-908L308,-916L319,-937L327,-934L335,-919L341,-948L350,-958L363,-964L384,-967L388,-960L409,-970L424,-966L440,-963L459,-958L474,-951L487,-935L487,-921L469,-898L452,-888L446,-877L461,-877L444,-849L433,-837L421,-802L406,-796L401,-788L380,-784L390,-779L385,-772L391,-754L384,-742L373,-732L369,-719L359,-709L360,-702L373,-703L373,-696L354,-677L335,-686L314,-681L304,-685L290,-686L289,-701L302,-708L299,-732L303,-735L322,-720L313,-742L301,-748L307,-762L319,-771L321,-784L311,-800L308,-821L328,-819L334,-815L345,-830L329,-835L304,-832L291,-847L285,-866L277,-880ZM392,-474L387,-469L379,-468L377,-477L380,-488L387,-490L393,-485L393,-477ZM242,-514L246,-506L242,-499L232,-505L227,-503L217,-512L223,-518L228,-527L236,-522L240,-518ZM468,-227L470,-228L480,-226L487,-221L487,-219L484,-219L475,-222ZM472,-197L474,-192L479,-190L486,-191L482,-187L480,-186L471,-190L469,-194Z" fill="#E0E0E0" stroke="#fff" stroke-width=".4"/><path d="M53,-218L73,-218L94,-218L101,-218L123,-218L144,-218L165,-218L187,-218L211,-218L235,-218L250,-218L250,-222L252,-222L254,-216L256,-214L261,-214L268,-212L275,-209L281,-210L289,-207L292,-207L298,-210L305,-206L312,-202L318,-199L323,-195L324,-193L325,-192L325,-191L327,-190L328,-191L329,-189L330,-187L332,-187L333,-186L332,-184L340,-180L341,-170L343,-162L340,-156L337,-151L336,-147L335,-146L336,-145L339,-143L340,-143L349,-149L356,-150L365,-155L365,-156L365,-159L364,-161L367,-162L374,-162L380,-162L383,-166L384,-167L391,-174L394,-176L405,-176L418,-176L419,-179L421,-179L424,-181L427,-185L429,-193L434,-201L437,-198L442,-200L445,-197L445,-183L449,-177L451,-174L443,-169L436,-166L428,-163L424,-157L423,-155L423,-150L425,-145L428,-144L428,-148L430,-146L429,-143L424,-142L421,-142L416,-140L413,-140L408,-139L403,-136L413,-138L415,-136L405,-134L401,-134L401,-135L399,-132L401,-132L399,-125L394,-118L394,-120L392,-121L390,-123L391,-118L393,-116L393,-113L391,-110L387,-102L386,-103L388,-109L385,-112L384,-120L382,-116L384,-110L379,-112L384,-109L384,-100L386,-99L387,-96L388,-88L384,-81L376,-79L372,-74L368,-73L364,-70L363,-67L356,-61L352,-57L348,-52L347,-47L348,-41L351,-34L354,-28L354,-25L357,-15L357,-10L357,-7L355,-2L353,-1L349,-2L348,-5L346,-7L342,-14L339,-20L337,-23L339,-29L337,-33L331,-40L329,-41L321,-38L320,-38L317,-42L312,-44L304,-43L298,-44L292,-43L289,-42L291,-40L291,-36L292,-35L291,-34L288,-35L285,-33L280,-34L275,-38L269,-37L264,-39L259,-38L253,-36L247,-30L240,-27L236,-23L234,-19L234,-14L234,-10L236,-7L233,-7L228,-9L222,-11L220,-15L219,-21L215,-25L212,-30L209,-35L204,-39L198,-39L193,-32L187,-35L184,-37L182,-42L179,-46L175,-50L172,-52L169,-55L157,-55L157,-52L151,-52L137,-52L121,-57L110,-62L111,-63L101,-62L93,-62L92,-66L88,-71L84,-72L83,-74L79,-75L77,-77L70,-78L68,-79L68,-84L61,-93L55,-105L55,-107L52,-110L46,-118L45,-126L42,-131L43,-138L43,-147L41,-154L43,-163L44,-172L45,-181L44,-195L42,-204L40,-209L40,-211L51,-208L55,-198L56,-200L55,-209ZM-179,38L-178,38L-177,39L-175,42L-175,42L-178,44L-180,45L-181,46L-183,45L-183,43L-184,40L-184,40L-182,38L-183,37L-182,36L-182,36ZM-183,32L-184,33L-186,34L-188,32L-188,32L-188,31L-188,30L-185,31ZM-189,29L-189,30L-193,30L-192,29ZM-198,25L-197,26L-195,28L-196,29L-196,28L-199,28L-199,26L-200,26ZM-207,21L-207,23L-208,24L-210,22L-210,22L-209,21ZM-258,-359L-252,-358L-252,-352L-256,-350L-261,-353L-265,-357ZM-164,-326L-159,-325L-156,-321L-162,-314L-169,-309L-173,-313L-174,-319L-167,-324ZM-77,-519L-77,-448L-77,-358L-70,-358L-63,-354L-58,-348L-51,-338L-44,-346L-37,-351L-33,-343L-29,-338L-22,-332L-18,-322L-10,-307L2,-299L2,-291L-2,-285L-6,-290L-12,-294L-14,-305L-23,-315L-27,-328L-34,-329L-45,-329L-54,-333L-69,-347L-75,-350L-88,-355L-98,-354L-112,-360L-120,-367L-128,-363L-127,-353L-131,-353L-139,-350L-145,-345L-153,-342L-154,-350L-151,-364L-143,-369L-145,-372L-154,-364L-159,-355L-169,-345L-164,-338L-171,-328L-178,-322L-186,-318L-187,-313L-199,-306L-201,-300L-209,-294L-214,-295L-221,-292L-228,-288L-234,-284L-246,-280L-247,-282L-239,-288L-232,-292L-225,-299L-216,-300L-212,-305L-203,-313L-201,-316L-196,-320L-194,-331L-191,-339L-199,-334L-201,-337L-205,-332L-210,-339L-212,-334L-214,-341L-222,-335L-226,-335L-227,-343L-225,-349L-230,-354L-239,-351L-245,-358L-250,-361L-250,-369L-255,-376L-253,-384L-247,-393L-244,-401L-239,-402L-234,-399L-228,-407L-223,-406L-217,-411L-219,-418L-223,-421L-217,-428L-222,-427L-229,-424L-232,-420L-237,-424L-247,-422L-258,-426L-261,-433L-270,-442L-260,-450L-244,-458L-238,-458L-239,-450L-224,-450L-230,-461L-238,-468L-243,-477L-250,-486L-260,-492L-256,-502L-243,-502L-234,-512L-233,-522L-226,-531L-219,-534L-205,-543L-199,-542L-188,-554L-177,-549L-172,-539L-168,-543L-156,-542L-157,-537L-146,-534L-139,-536L-124,-529L-110,-527L-105,-524L-95,-528L-84,-521ZM-295,-411L-291,-408L-287,-410L-281,-405L-274,-403L-274,-402L-280,-398L-285,-402L-288,-404L-294,-404L-296,-405Z" fill="#E0E0E0" stroke="#fff" stroke-width=".4"/><path d="M439,626L441,631L445,640L454,648L464,651L461,657L454,658L451,653L446,653L439,653ZM517,409L515,416L513,425L513,433L512,435L511,441L511,445L520,452L519,458L523,462L523,467L516,478L506,483L491,485L484,484L485,490L484,496L485,501L481,504L473,506L467,502L464,505L465,514L470,517L473,514L476,519L469,522L463,528L462,538L461,544L454,544L448,549L446,556L453,564L460,566L458,576L449,582L445,594L438,599L435,604L437,616L442,623L439,622L433,620L415,619L412,612L413,603L408,604L405,600L405,588L410,584L412,577L412,571L415,562L418,549L417,543L420,541L420,537L416,535L419,531L415,527L414,516L417,514L415,503L417,493L419,485L423,482L421,473L421,465L426,459L426,451L430,443L430,435L428,434L425,419L430,410L429,403L431,395L436,388L441,383L439,379L440,377L440,364L448,360L450,352L450,350L456,343L465,345L469,350L472,344L480,345L481,346L494,359L500,360L509,366L516,369L517,372L510,384L517,387L525,388L531,386L537,380L538,373L542,372L546,376L545,383L539,387L535,390L527,398Z" fill="#E0E0E0" stroke="#fff" stroke-width=".4"/><path d="M439,626L439,653L446,653L451,653L448,658L442,662L439,662L434,661L429,657L422,655L413,648L406,642L396,628L402,631L412,639L421,643L425,638L427,629L434,625ZM432,311L435,316L436,321L440,324L438,332L442,340L444,351L450,350L450,352L448,360L440,364L440,377L439,379L441,383L436,388L431,395L429,403L430,410L425,419L428,434L430,435L430,443L426,451L426,459L421,465L421,473L423,482L419,485L417,493L415,503L417,514L414,516L415,527L419,531L416,535L420,537L420,541L417,543L418,549L415,562L412,571L412,577L410,584L405,588L405,600L408,604L413,603L412,612L415,619L433,620L439,622L433,622L429,625L423,629L422,640L419,641L411,637L403,628L394,622L392,614L394,608L390,600L389,581L392,571L400,563L389,560L396,551L398,534L406,538L410,517L405,515L403,527L398,526L400,512L403,494L406,488L404,479L403,469L406,469L411,454L416,441L419,428L417,415L419,408L418,398L423,389L424,373L426,357L428,340L428,327L426,317L430,315Z" fill="#E0E0E0" stroke="#fff" stroke-width=".4"/><path d="M417,40L417,44L417,47L415,49L417,51L417,53L412,52L409,52L404,52L401,53L397,51L398,48L404,49L410,50L412,48L409,45L409,42L405,41L406,39L411,39Z" fill="#E0E0E0" stroke="#fff" stroke-width=".4"/><path d="M417,53L417,51L415,49L417,47L417,44L417,40L418,39L423,39L427,41L429,41L431,44L435,43L434,46L437,46L441,49L438,52L435,50L432,50L429,50L428,51L425,52L424,50L422,51L419,56L417,55Z" fill="#E0E0E0" stroke="#fff" stroke-width=".4"/><path d="M1595,-855L1611,-865L1624,-842L1641,-801L1639,-767L1624,-762L1604,-773L1592,-788L1586,-816L1577,-825ZM1660,-782L1678,-761L1676,-746L1636,-733L1649,-780L1654,-784ZM1916,-676L1935,-675L1961,-659L1955,-639L1929,-639L1917,-633L1903,-651L1907,-671ZM1983,-653L2001,-646L1993,-635L1981,-638L1968,-648L1970,-658ZM1923,-601L1930,-611L1939,-613L1949,-604L1950,-597L1939,-597L1925,-600ZM1247,-835L1261,-843L1272,-844L1273,-832L1277,-843L1284,-850L1294,-840L1292,-834L1282,-828L1276,-825L1275,-818L1266,-811L1259,-821L1263,-834ZM1089,-279L1076,-279L1067,-280L1069,-286L1079,-290L1086,-288L1090,-286L1089,-282ZM1308,-611L1326,-634L1324,-646L1340,-661L1363,-680L1387,-685L1399,-697L1413,-701L1418,-688L1413,-679L1388,-664L1366,-651L1344,-625L1333,-600L1322,-577L1324,-558L1337,-540L1333,-538L1310,-541L1308,-550L1295,-556L1294,-569L1301,-574L1301,-587L1315,-607ZM1945,-272L1948,-260L1947,-249L1950,-237L1958,-218L1947,-221L1943,-206L1950,-195L1949,-188L1944,-194L1939,-186L1938,-195L1939,-205L1938,-216L1940,-225L1940,-239L1936,-251L1936,-267L1943,-272L1940,-278L1943,-280ZM-354,-503L-354,-503L-337,-489L-318,-470L-319,-459L-314,-454L-316,-467L-296,-464L-282,-448L-289,-440L-301,-439L-301,-422L-304,-419L-311,-419L-316,-425L-326,-430L-327,-437L-335,-440L-343,-438L-347,-444L-345,-450L-354,-446L-350,-438L-354,-431L-354,-431L-354,-503ZM2209,-431L2209,-431L2200,-423L2191,-425L2197,-416L2201,-403L2205,-398L2206,-392L2204,-388L2190,-391L2171,-380L2164,-378L2153,-367L2143,-359L2140,-352L2130,-362L2112,-351L2108,-356L2102,-350L2092,-352L2090,-343L2081,-329L2081,-324L2090,-321L2089,-302L2082,-301L2079,-291L2082,-286L2069,-279L2067,-266L2056,-263L2054,-251L2044,-240L2041,-248L2038,-265L2034,-292L2038,-310L2044,-318L2044,-324L2055,-327L2068,-344L2080,-359L2093,-370L2099,-392L2090,-390L2086,-378L2068,-362L2062,-380L2043,-375L2026,-350L2032,-342L2016,-338L2005,-337L2005,-347L1994,-349L1985,-342L1963,-344L1940,-340L1917,-314L1890,-284L1901,-282L1904,-275L1911,-272L1916,-278L1924,-277L1934,-264L1934,-254L1929,-243L1928,-229L1925,-212L1914,-197L1912,-189L1902,-177L1892,-166L1888,-160L1878,-154L1874,-154L1869,-159L1860,-152L1859,-149L1859,-149L1858,-150L1858,-155L1861,-156L1862,-167L1860,-176L1867,-179L1875,-177L1880,-187L1882,-199L1885,-203L1889,-212L1877,-209L1871,-205L1860,-205L1857,-215L1849,-223L1837,-226L1834,-237L1831,-244L1829,-249L1824,-261L1818,-265L1807,-269L1798,-268L1789,-266L1783,-260L1787,-257L1787,-251L1783,-247L1777,-235L1777,-230L1767,-223L1758,-228L1750,-227L1746,-230L1742,-232L1731,-224L1722,-222L1715,-219L1707,-221L1700,-221L1696,-227L1689,-232L1681,-233L1672,-232L1666,-230L1656,-234L1654,-243L1646,-246L1639,-247L1631,-252L1624,-240L1627,-233L1620,-226L1610,-229L1603,-229L1598,-234L1590,-234L1584,-238L1573,-232L1560,-223L1552,-221L1550,-220L1546,-227L1537,-225L1534,-230L1529,-232L1525,-239L1521,-241L1511,-238L1501,-244L1497,-238L1481,-268L1472,-277L1475,-281L1457,-270L1450,-269L1451,-276L1442,-280L1434,-277L1432,-289L1419,-292L1413,-287L1395,-282L1392,-279L1365,-275L1362,-271L1367,-263L1360,-260L1361,-257L1354,-251L1366,-243L1364,-238L1354,-238L1352,-235L1343,-241L1332,-240L1324,-236L1316,-240L1300,-248L1289,-248L1274,-236L1273,-227L1266,-234L1260,-222L1262,-219L1258,-211L1264,-204L1270,-204L1274,-197L1273,-192L1277,-190L1274,-184L1267,-183L1260,-172L1266,-163L1266,-156L1273,-145L1269,-141L1268,-138L1265,-139L1260,-145L1258,-145L1253,-147L1251,-151L1245,-153L1240,-152L1239,-154L1229,-158L1219,-160L1213,-162L1212,-160L1203,-169L1195,-173L1189,-178L1194,-180L1200,-189L1196,-193L1206,-197L1206,-199L1200,-198L1200,-202L1204,-205L1210,-206L1212,-210L1210,-215L1213,-221L1213,-224L1202,-228L1198,-228L1194,-233L1188,-231L1179,-235L1179,-237L1177,-242L1171,-243L1171,-246L1172,-249L1168,-255L1160,-254L1158,-255L1156,-252L1154,-253L1152,-260L1150,-264L1152,-265L1157,-265L1160,-267L1158,-270L1153,-273L1154,-275L1151,-277L1146,-285L1148,-288L1147,-294L1140,-297L1137,-296L1136,-299L1128,-302L1126,-310L1125,-316L1122,-319L1125,-323L1123,-336L1128,-344L1127,-346L1135,-354L1127,-361L1143,-380L1149,-389L1152,-396L1141,-407L1144,-418L1138,-430L1143,-445L1134,-465L1141,-479L1130,-492L1131,-505L1137,-507L1149,-515L1156,-523L1168,-510L1187,-505L1214,-483L1220,-475L1220,-462L1212,-453L1201,-448L1169,-462L1164,-459L1175,-446L1176,-438L1176,-421L1185,-416L1191,-412L1192,-420L1188,-427L1192,-433L1209,-423L1215,-427L1211,-440L1227,-457L1234,-456L1240,-449L1245,-462L1239,-473L1242,-484L1237,-496L1257,-489L1261,-479L1252,-477L1252,-466L1257,-460L1268,-464L1270,-476L1285,-485L1310,-501L1315,-500L1308,-489L1317,-487L1322,-493L1336,-494L1346,-502L1354,-490L1362,-503L1355,-515L1359,-521L1380,-515L1390,-509L1415,-486L1420,-497L1413,-507L1413,-511L1404,-513L1406,-523L1403,-539L1402,-546L1416,-567L1420,-588L1425,-593L1444,-587L1446,-573L1439,-555L1444,-548L1446,-533L1444,-505L1452,-493L1449,-480L1435,-454L1443,-451L1446,-458L1454,-462L1456,-471L1462,-480L1458,-491L1461,-504L1453,-506L1452,-517L1457,-538L1448,-556L1461,-571L1459,-588L1463,-588L1466,-575L1464,-553L1471,-549L1468,-565L1480,-574L1495,-576L1508,-563L1501,-582L1501,-608L1513,-613L1530,-612L1546,-615L1540,-629L1548,-647L1556,-648L1570,-662L1589,-666L1591,-674L1610,-676L1616,-670L1632,-685L1645,-685L1647,-698L1654,-712L1671,-725L1683,-715L1673,-707L1689,-702L1691,-687L1698,-694L1718,-694L1734,-679L1740,-668L1738,-653L1731,-645L1712,-630L1706,-622L1715,-618L1726,-612L1732,-616L1736,-600L1739,-607L1750,-611L1773,-607L1775,-595L1805,-591L1805,-610L1820,-606L1832,-606L1843,-593L1846,-578L1842,-568L1851,-550L1862,-541L1869,-564L1881,-554L1893,-560L1907,-553L1912,-560L1923,-557L1918,-578L1928,-588L1960,-582L1992,-573L1998,-559L2017,-542L2045,-547L2060,-543L2066,-534L2065,-519L2074,-513L2083,-517L2096,-518L2109,-514L2123,-516L2135,-498L2144,-504L2138,-517L2141,-526L2164,-521L2179,-522L2199,-512L2209,-503L2209,-431ZM2209,-542L2201,-541L2200,-548L2209,-557L2209,-542ZM-354,-557L-354,-557L-354,-557L-353,-558L-347,-558L-337,-552L-338,-549L-345,-543L-354,-542L-354,-542L-354,-557ZM1166,-186L1167,-188L1172,-186L1175,-186L1176,-184L1177,-183L1177,-183L1180,-180L1188,-181L1186,-177L1178,-175L1169,-170L1165,-172L1166,-176L1159,-179L1160,-181L1167,-185Z" fill="#E0E0E0" stroke="#fff" stroke-width=".4"/><path d="M365,-15L368,-15L373,-15L373,-13L366,-12ZM374,-17L379,-13L378,-7L377,-8L377,-12L374,-16ZM371,-2L373,-2L375,5L375,9L374,10L372,5L369,3Z" fill="#E0E0E0" stroke="#fff" stroke-width=".4"/><path d="M93,-62L101,-62L111,-63L110,-62L121,-57L137,-52L151,-52L157,-52L157,-55L169,-55L172,-52L175,-50L179,-46L182,-42L184,-37L187,-35L193,-32L198,-39L204,-39L209,-35L212,-30L215,-25L219,-21L220,-15L222,-11L228,-9L233,-7L236,-7L233,-0L232,5L231,16L231,20L232,24L234,27L235,33L240,39L242,43L245,47L252,49L255,52L261,50L267,49L272,48L277,47L281,44L283,39L283,33L285,31L289,29L297,27L303,27L308,26L309,28L309,32L305,36L304,41L305,42L304,45L302,51L300,49L299,49L297,50L295,54L293,53L293,54L293,55L286,55L279,55L279,59L276,59L279,61L281,63L282,65L283,65L283,68L274,68L271,74L272,75L271,77L271,79L263,71L259,69L253,67L249,67L243,70L240,71L235,69L230,67L223,64L218,63L209,59L203,56L202,54L198,53L190,51L187,48L180,43L176,39L175,35L177,34L176,32L178,30L178,27L175,24L175,21L172,17L166,9L159,3L156,-2L149,-5L148,-7L149,-12L146,-14L141,-18L140,-23L136,-24L132,-28L128,-32L128,-35L124,-41L122,-47L122,-50L117,-54L114,-53L110,-55L109,-52L110,-48L111,-42L113,-38L119,-33L120,-31L121,-30L122,-28L123,-28L124,-22L127,-20L128,-18L133,-14L135,-6L137,-3L139,1L139,5L143,5L146,9L148,12L148,14L145,17L144,17L142,12L137,7L132,4L129,2L129,-4L128,-8L124,-11L119,-14L119,-13L117,-15L112,-17L108,-22L109,-23L112,-22L114,-25L115,-29L109,-35L105,-37L102,-42L100,-47L96,-54Z" fill="#E0E0E0" stroke="#fff" stroke-width=".4"/><path d="M517,409L522,409L529,415L532,415L539,420L544,425L549,430L545,434L547,439L544,445L536,450L531,448L527,449L521,445L516,445L511,441L512,435L513,433L513,425L515,416Z" fill="#E0E0E0" stroke="#fff" stroke-width=".4"/><path d="M547,439L545,434L549,430L544,425L539,420L532,415L529,415L522,409L517,409L527,398L535,390L539,387L545,383L546,376L542,372L538,373L540,369L541,364L541,360L538,358L536,360L533,359L532,356L531,349L530,347L525,345L522,346L515,345L515,335L513,330L515,329L515,324L517,321L518,315L516,311L512,308L512,306L513,301L499,301L496,292L498,292L498,289L497,287L497,283L492,280L488,281L485,278L480,277L477,274L469,273L462,267L462,262L461,259L462,253L453,255L449,257L443,260L441,262L438,263L432,262L428,263L425,262L426,251L420,256L413,256L411,252L406,251L408,248L404,244L401,237L402,236L402,233L407,231L406,227L408,225L408,221L417,216L422,215L423,214L430,214L433,195L433,192L432,187L429,185L429,180L433,179L434,179L435,177L430,176L430,171L444,172L447,169L448,171L450,176L451,175L455,178L461,178L462,176L467,174L470,173L471,170L476,168L476,166L470,166L469,161L469,157L466,155L467,154L473,155L478,157L480,155L485,154L493,151L496,149L495,146L499,146L500,148L499,151L502,152L503,155L501,158L500,164L502,168L503,171L507,174L511,175L511,173L514,173L517,172L519,170L523,170L525,170L529,171L529,169L528,168L529,166L532,166L535,166L539,167L542,169L544,167L546,167L547,169L550,168L553,166L555,160L560,154L562,154L564,158L568,170L572,171L572,176L566,182L569,184L581,185L581,192L587,188L596,190L608,195L611,199L610,203L618,201L632,204L643,204L653,210L662,218L668,220L674,220L677,223L679,232L680,236L677,248L674,253L664,263L659,271L654,277L652,277L650,283L651,297L649,308L648,313L646,316L644,326L637,336L636,344L630,347L628,352L621,352L610,355L605,358L597,360L588,367L582,374L581,380L582,385L581,393L579,397L574,401L566,416L560,422L555,426L552,434Z" fill="#E0E0E0" stroke="#fff" stroke-width=".4"/><path d="M432,262L438,263L441,262L443,260L449,257L453,255L462,253L461,259L462,262L462,267L469,273L477,274L480,277L485,278L488,281L492,280L497,283L497,287L498,289L498,292L496,292L499,301L513,301L512,306L512,308L516,311L518,315L517,321L515,324L515,329L513,330L513,328L506,324L500,324L487,326L484,333L484,337L481,346L480,345L472,344L469,350L465,345L456,343L450,350L444,351L442,340L438,332L440,324L436,321L435,316L432,311L436,303L433,297L435,294L434,291L436,288L437,281L437,276L438,274Z" fill="#E0E0E0" stroke="#fff" stroke-width=".4"/><path d="M430,214L423,214L422,215L417,216L408,221L408,225L406,227L407,231L402,233L402,236L401,237L404,244L408,248L406,251L411,252L413,256L420,256L426,251L425,262L428,263L432,262L438,274L437,276L437,281L436,288L434,291L435,294L433,297L436,303L432,311L430,315L426,317L419,312L419,309L404,302L392,294L386,289L383,283L384,281L378,271L371,258L365,244L362,240L359,235L354,230L349,227L351,224L348,217L350,212L356,208L356,211L354,213L355,215L358,215L360,215L363,219L367,216L369,211L373,205L382,202L389,195L392,190L391,185L393,184L397,187L400,191L403,193L407,200L412,201L416,199L419,200L423,200L429,203L424,210L426,210Z" fill="#E0E0E0" stroke="#fff" stroke-width=".4"/><path d="M377,122L376,123L377,127L376,129L374,129L373,132L370,130L369,126L371,124L369,124L368,121L364,119L361,120L359,122L357,124L355,124L354,126L358,130L356,131L355,132L351,132L350,128L349,129L347,129L346,126L343,125L341,124L338,124L337,126L337,125L337,123L338,122L337,121L338,120L337,119L337,116L340,115L342,118L342,119L345,120L346,119L348,121L351,120L354,118L358,117L361,115L365,115L364,116L368,116L372,117L374,120Z" fill="#E0E0E0" stroke="#fff" stroke-width=".4"/><path d="M340,115L337,116L337,119L338,120L337,121L338,122L337,123L337,125L333,123L331,122L332,120L332,119L330,117L327,116L325,115L324,113L322,111L323,113L321,115L320,113L317,112L316,111L317,109L317,107L315,106L317,104L318,103L323,105L324,104L327,105L328,106L330,107L332,105L334,109L336,112Z" fill="#E0E0E0" stroke="#fff" stroke-width=".4"/><path d="M332,105L330,107L328,106L327,105L324,104L323,105L318,103L317,104L315,102L311,99L310,96L307,94L303,91L304,90L305,91L306,90L308,90L309,88L310,88L310,85L311,85L313,85L314,83L316,84L317,83L319,82L321,80L321,79L322,79L323,77L323,77L325,78L326,78L328,77L329,77L332,76L333,75L335,76L335,76L334,78L335,81L333,83L333,86L332,89L333,91L333,94L332,95L331,98L332,100L330,102L331,104Z" fill="#E0E0E0" stroke="#fff" stroke-width=".4"/><path d="M335,76L333,75L332,76L329,77L328,77L326,78L325,78L323,77L323,77L322,79L321,79L321,80L319,82L317,83L316,84L314,83L313,85L311,85L310,85L310,88L309,88L308,90L306,90L304,88L302,87L303,84L302,84L300,83L297,84L297,83L295,82L293,80L291,80L293,78L292,76L293,75L296,73L299,70L300,70L302,69L304,69L304,70L305,69L309,70L312,70L314,69L315,68L317,68L319,69L321,69L322,68L326,69L327,69L329,71L331,72L333,74Z" fill="#E0E0E0" stroke="#fff" stroke-width=".4"/><path d="M291,80L293,80L295,82L297,83L297,84L300,83L302,84L303,84L302,87L301,89L297,89L295,88L292,87L288,86L286,85L286,84L289,82L290,81L289,80Z" fill="#E0E0E0" stroke="#fff" stroke-width=".4"/><path d="M271,79L271,77L272,75L271,74L274,68L283,68L283,65L282,65L281,63L279,61L276,59L279,59L279,55L286,55L293,55L293,61L292,69L294,69L296,70L297,69L299,70L296,73L293,75L292,76L293,78L291,80L289,80L290,81L289,82L286,84L286,85L282,84L278,83L275,82Z" fill="#E0E0E0" stroke="#fff" stroke-width=".4"/><path d="M293,55L293,54L293,53L295,54L297,50L299,49L299,51L300,51L300,53L299,56L299,57L299,60L299,60L298,64L297,66L296,66L294,69L292,69L293,61Z" fill="#E0E0E0" stroke="#fff" stroke-width=".4"/><path d="M495,146L496,149L493,151L485,154L480,155L478,157L473,155L467,154L466,155L469,157L469,161L470,166L476,166L476,168L471,170L470,173L467,174L462,176L461,178L455,178L451,175L449,168L447,165L445,163L448,160L448,158L446,156L444,151L445,146L447,144L448,140L445,139L441,140L436,139L433,140L428,134L424,133L415,134L413,131L412,131L411,129L412,126L412,124L410,122L409,119L405,118L407,114L408,109L410,106L413,104L415,100L419,99L419,101L415,102L417,105L417,109L414,113L417,119L420,118L422,113L419,110L419,105L428,102L427,99L429,96L432,101L437,102L442,106L442,108L448,108L456,107L460,111L465,111L469,109L469,107L478,107L487,107L481,109L483,112L489,113L494,116L495,122L499,122L502,124L496,128L496,131L498,133L496,135L492,136L492,139L490,141Z" fill="#E0E0E0" stroke="#fff" stroke-width=".4"/><path d="M525,170L523,170L519,170L517,172L514,173L511,173L511,175L507,174L503,171L502,168L500,164L501,158L503,155L502,152L499,151L500,148L499,146L495,146L490,141L492,139L492,136L496,135L498,133L496,131L496,128L502,124L507,126L511,131L511,135L514,135L518,138L520,141L519,147L515,149L515,151L514,155L517,160L520,160L520,164Z" fill="#E0E0E0" stroke="#fff" stroke-width=".4"/><path d="M539,167L535,166L532,166L529,166L528,168L529,169L529,171L525,170L520,164L520,160L517,160L514,155L515,151L515,149L519,147L520,141L529,142L530,141L536,141L543,143L540,149L540,154L543,158L542,161L541,164Z" fill="#E0E0E0" stroke="#fff" stroke-width=".4"/><path d="M560,154L555,160L553,166L550,168L547,169L546,167L544,167L542,169L539,167L541,164L542,161L543,158L540,154L540,149L543,143L546,143L551,145L558,151ZM972,-223L975,-220L985,-218L982,-211L981,-203L979,-201L975,-202L976,-200L970,-194L970,-189L974,-191L976,-186L976,-183L978,-179L976,-176L977,-169L981,-167L980,-163L974,-157L960,-160L950,-157L949,-151L940,-150L932,-154L930,-152L917,-157L914,-160L918,-166L919,-186L912,-197L906,-203L895,-207L895,-214L904,-217L916,-214L914,-226L920,-222L937,-230L939,-239L945,-242L946,-238L950,-238L953,-233L958,-228L962,-229L968,-224L969,-223ZM990,-153L994,-156L996,-148L993,-141L990,-143L988,-149Z" fill="#E0E0E0" stroke="#fff" stroke-width=".4"/><path d="M391,185L392,190L389,195L382,202L373,205L369,211L367,216L363,219L360,215L358,215L355,215L354,213L356,211L356,208L359,203L358,199L355,203L351,200L352,198L351,191L354,190L355,186L358,181L357,178L361,177L366,174L373,178L374,178L376,181L382,182L384,181L388,183Z" fill="#E0E0E0" stroke="#fff" stroke-width=".4"/><path d="M455,49L459,50L460,52L459,53L453,53L449,54L449,50L450,49Z" fill="#E0E0E0" stroke="#fff" stroke-width=".4"/><path d="M375,50L380,50L384,52L385,54L380,54L378,55L374,54L370,52L370,50L373,49Z" fill="#E0E0E0" stroke="#fff" stroke-width=".4"/><path d="M342,14L348,14L353,14L360,17L363,20L370,19L372,21L378,26L383,29L385,29L389,30L389,33L394,33L399,36L398,38L394,39L389,39L384,39L374,39L379,35L376,33L371,33L369,30L367,26L363,26L356,24L354,23L345,21L342,20L345,18L338,18L333,22L330,22L329,24L325,24L322,24L326,21L328,19L331,17L335,15L340,15Z" fill="#E0E0E0" stroke="#fff" stroke-width=".4"/><path d="M808,86L805,80L802,78L805,76L809,71L810,67L813,65L816,65L820,64L824,64L827,66L832,68L836,73L841,78L841,83L843,87L845,89L846,92L845,94L844,95L841,94L840,95L838,95L833,93L830,93L817,93L815,94L812,94L809,95L808,89L814,89L816,88L817,88L820,86L823,88L826,88L829,87L827,84L825,86L823,86L820,84L818,84L816,86Z" fill="#E0E0E0" stroke="#fff" stroke-width=".4"/><path d="M845,94L846,92L845,89L843,87L841,83L841,78L843,77L844,73L847,72L852,75L856,73L858,74L859,72L888,72L890,67L888,66L885,33L881,-0L892,-0L916,17L940,34L942,37L947,39L950,40L950,45L958,45L958,62L954,67L953,71L947,72L937,73L935,76L930,76L926,76L924,75L920,76L913,79L912,81L906,84L905,86L902,88L899,87L897,89L896,94L890,100L890,102L888,105L889,109L886,110L884,111L883,108L881,109L880,109L879,111L873,111L871,110L870,111L868,108L868,106L868,105L866,106L866,104L868,102L865,99L864,97L862,95L861,95L859,96L857,97L855,99L852,98L850,96L849,96L847,97L846,97Z" fill="#E0E0E0" stroke="#fff" stroke-width=".4"/><path d="M806,31L807,28L835,28L834,17L836,13L842,12L842,-8L866,-7L866,-19L892,-0L881,-0L885,33L888,66L890,67L888,72L859,72L858,74L856,73L852,75L847,72L844,73L843,77L841,78L836,73L832,68L827,66L824,64L820,64L816,65L813,65L810,67L810,63L812,59L812,52L812,45L811,41L812,37L810,34Z" fill="#E0E0E0" stroke="#fff" stroke-width=".4"/><path d="M947,139L941,140L939,135L939,118L938,117L938,113L935,111L933,109L934,105L936,104L938,101L941,100L943,98L945,96L948,96L953,100L953,102L954,107L953,110L954,112L950,116L948,118L947,123L947,127Z" fill="#E0E0E0" stroke="#fff" stroke-width=".4"/><path d="M1033,16L1035,28L1038,30L1038,33L1041,35L1039,38L1036,54L1036,63L1027,70L1024,80L1027,83L1027,88L1031,88L1031,91L1029,92L1028,94L1027,94L1022,86L1021,86L1015,90L1010,88L1006,87L1004,88L999,88L995,91L992,91L983,88L980,89L976,89L973,87L966,84L959,85L957,86L956,91L954,93L953,100L948,96L945,96L943,98L943,93L935,91L935,88L931,83L930,80L930,76L935,76L937,73L947,72L953,71L954,67L958,62L958,45L968,41L989,26L1013,12L1024,15L1028,19Z" fill="#E0E0E0" stroke="#fff" stroke-width=".4"/><path d="M947,139L947,127L947,123L948,118L950,116L954,112L953,110L954,107L953,102L953,100L954,93L956,91L957,86L959,85L966,84L973,87L976,89L980,89L983,88L992,91L995,91L999,88L1004,88L1006,87L1010,88L1015,90L1021,86L1022,86L1027,94L1028,94L1031,97L1030,98L1030,101L1024,106L1022,111L1021,115L1020,116L1018,121L1014,124L1013,128L1012,131L1011,134L1006,136L1002,133L999,133L995,138L993,138L990,144L988,150L981,152L978,152L975,153L969,153L966,149L963,144L958,139L953,139Z" fill="#E0E0E0" stroke="#fff" stroke-width=".4"/><path d="M1031,91L1034,96L1034,101L1034,106L1038,112L1034,112L1032,113L1028,112L1027,115L1031,119L1034,121L1035,124L1037,129L1036,131L1033,138L1031,139L1030,145L1031,148L1031,150L1034,154L1035,156L1037,160L1040,162L1041,165L1041,167L1041,171L1035,170L1030,168L1021,167L1020,167L1015,168L1011,167L1008,167L996,167L997,162L994,157L991,156L990,153L988,152L988,150L990,144L993,138L995,138L999,133L1002,133L1006,136L1011,134L1012,131L1013,128L1014,124L1018,121L1020,116L1021,115L1022,111L1024,106L1030,101L1030,98L1031,97L1028,94L1029,92Z" fill="#E0E0E0" stroke="#fff" stroke-width=".4"/><path d="M934,105L933,109L935,111L938,113L938,117L939,118L939,135L941,140L935,141L933,139L932,134L931,131L933,124L931,122L930,116L930,111L927,107L928,105Z" fill="#E0E0E0" stroke="#fff" stroke-width=".4"/><path d="M928,105L927,107L930,111L930,116L931,122L933,124L931,131L932,134L933,139L935,141L924,145L920,148L913,150L907,148L907,145L904,139L906,131L909,125L907,115L906,109L907,105L919,105L922,105L924,104Z" fill="#E0E0E0" stroke="#fff" stroke-width=".4"/><path d="M870,111L871,110L873,111L879,111L880,109L881,109L883,108L884,111L886,110L889,109L892,111L893,113L897,115L899,113L902,113L907,115L909,125L906,131L904,139L907,145L907,148L904,148L899,147L894,147L886,148L881,150L874,153L873,152L873,147L874,146L874,143L871,140L868,139L866,137L868,134L867,131L867,129L868,129L869,126L868,124L869,123L872,122L870,117L868,114L869,111Z" fill="#E0E0E0" stroke="#fff" stroke-width=".4"/><path d="M830,93L833,93L838,95L840,95L841,94L844,95L845,94L846,97L847,97L849,96L850,96L852,98L855,99L857,97L859,96L861,95L862,95L864,97L865,99L868,102L866,104L866,106L868,105L868,106L868,108L870,111L869,111L868,114L870,117L872,122L869,123L868,124L869,126L868,129L867,129L865,128L864,131L862,131L860,130L861,127L858,123L856,123L855,124L853,124L853,121L852,119L852,117L850,114L848,112L843,112L841,113L839,113L838,115L837,117L833,120L830,116L827,113L825,112L824,110L823,107L822,106L820,104L823,101L825,101L827,100L828,100L830,99L829,96L830,96Z" fill="#E0E0E0" stroke="#fff" stroke-width=".4"/><path d="M809,95L812,94L815,94L817,93L830,93L830,96L829,96L830,99L828,100L827,100L825,101L823,101L820,104L816,101L813,101L811,99L811,98L809,96Z" fill="#E0E0E0" stroke="#fff" stroke-width=".4"/><path d="M867,129L867,131L868,134L866,137L868,139L871,140L874,143L874,146L873,147L873,152L871,153L863,149L857,144L851,140L846,135L848,133L848,131L851,127L855,124L856,123L858,123L861,127L860,130L862,131L864,131L865,128Z" fill="#E0E0E0" stroke="#fff" stroke-width=".4"/><path d="M833,120L837,117L838,115L839,113L841,113L843,112L848,112L850,114L852,117L852,119L853,121L853,124L855,124L851,127L848,131L848,133L846,135L844,135L839,132L835,128L834,125Z" fill="#E0E0E0" stroke="#fff" stroke-width=".4"/><path d="M889,109L888,105L890,102L890,100L896,94L897,89L899,87L902,88L905,86L906,84L912,81L913,79L920,76L924,75L926,76L930,76L930,80L931,83L935,88L935,91L943,93L943,98L941,100L938,101L936,104L934,105L928,105L924,104L922,105L919,105L907,105L906,109L907,115L902,113L899,113L897,115L893,113L892,111Z" fill="#E0E0E0" stroke="#fff" stroke-width=".4"/><path d="M1008,167L1011,167L1015,168L1020,167L1021,167L1020,171L1022,174L1027,174L1029,175L1026,183L1029,188L1030,193L1029,198L1027,201L1021,201L1017,197L1016,201L1012,201L1009,203L1012,208L1006,212L999,205L994,199L990,191L990,189L992,187L994,182L995,176L997,176L1008,176Z" fill="#E0E0E0" stroke="#fff" stroke-width=".4"/><path d="M996,167L1008,167L1008,176L997,176L995,176L994,175Z" fill="#E0E0E0" stroke="#fff" stroke-width=".4"/><path d="M808,86L816,86L818,84L820,84L823,86L825,86L827,84L829,87L826,88L823,88L820,86L817,88L816,88L814,89L808,89Z" fill="#E0E0E0" stroke="#fff" stroke-width=".4"/><path d="M995,-43L992,-58L988,-61L987,-63L982,-69L981,-75L985,-80L987,-87L986,-95L987,-100L995,-104L1000,-102L1000,-98L1006,-101L1006,-99L1003,-95L1003,-91L1005,-89L1004,-81L1000,-77L1001,-72L1005,-72L1007,-68L1009,-67L1009,-60L1005,-58L1003,-55L998,-52L999,-48L998,-45Z" fill="#E0E0E0" stroke="#fff" stroke-width=".4"/><path d="M866,-19L866,-21L866,-21L866,-31L877,-37L884,-38L890,-41L893,-45L901,-48L901,-54L906,-55L909,-58L918,-59L919,-63L918,-64L915,-73L915,-79L912,-84L919,-89L927,-91L931,-94L938,-97L950,-98L962,-99L965,-98L972,-101L980,-101L983,-99L987,-100L986,-95L987,-87L985,-80L981,-75L982,-69L987,-63L988,-61L992,-58L995,-43L997,-36L998,-32L996,-25L997,-22L996,-17L997,-12L994,-9L998,-3L998,0L1001,4L1004,3L1010,7L1013,12L989,26L968,41L958,45L950,45L950,40L947,39L942,37L940,34L916,17L892,-0Z" fill="#E0E0E0" stroke="#fff" stroke-width=".4"/><path d="M1048,-208L1048,-204L1044,-204L1045,-202L1043,-195L1041,-193L1035,-193L1032,-191L1026,-191L1016,-194L1014,-198L1007,-196L1006,-194L1002,-195L998,-196L995,-198L996,-200L996,-202L998,-203L1002,-200L1003,-202L1009,-202L1014,-204L1017,-204L1020,-201L1020,-203L1019,-210L1022,-212L1024,-216L1030,-213L1034,-217L1036,-218L1042,-215L1045,-215L1048,-213L1048,-212Z" fill="#E0E0E0" stroke="#fff" stroke-width=".4"/><path d="M1028,-272L1030,-266L1028,-263L1030,-259L1032,-252L1031,-248L1034,-241L1031,-240L1029,-241L1028,-239L1022,-237L1020,-234L1015,-232L1016,-228L1017,-224L1020,-221L1024,-216L1022,-212L1019,-210L1020,-203L1020,-201L1017,-204L1014,-204L1009,-202L1003,-202L1002,-200L998,-203L996,-202L988,-205L987,-203L981,-203L982,-211L985,-218L975,-220L972,-223L972,-228L970,-230L971,-238L970,-250L974,-250L976,-254L978,-265L977,-269L978,-271L984,-272L985,-269L990,-275L989,-280L988,-287L994,-285L998,-287L998,-282L1005,-280L1005,-275L1013,-277L1017,-281L1025,-276Z" fill="#E0E0E0" stroke="#fff" stroke-width=".4"/><path d="M996,-202L996,-200L995,-198L998,-196L1002,-195L1001,-191L998,-189L993,-191L991,-187L988,-186L987,-188L983,-184L979,-184L976,-186L974,-191L970,-189L970,-194L976,-200L975,-202L979,-201L981,-203L987,-203L988,-205Z" fill="#E0E0E0" stroke="#fff" stroke-width=".4"/><path d="M863,-145L866,-148L869,-149L870,-145L875,-145L876,-146L880,-145L882,-141L879,-138L879,-131L877,-129L877,-125L874,-124L877,-119L875,-113L877,-110L876,-108L874,-104L874,-101L871,-99L868,-100L864,-99L865,-106L865,-112L861,-113L860,-116L860,-122L863,-125L864,-129L865,-135L865,-139L863,-142Z" fill="#E0E0E0" stroke="#fff" stroke-width=".4"/><path d="M874,-101L874,-104L876,-108L877,-110L875,-113L877,-119L874,-124L877,-125L877,-129L879,-131L879,-138L882,-141L880,-145L876,-146L875,-145L870,-145L869,-149L866,-148L863,-145L863,-152L861,-156L871,-164L879,-162L889,-162L896,-160L902,-161L914,-160L917,-157L930,-152L932,-154L940,-150L949,-151L949,-146L942,-139L933,-137L933,-134L928,-129L925,-121L928,-116L924,-112L923,-106L917,-104L912,-97L903,-97L896,-98L892,-94L889,-91L886,-92L883,-95L881,-100Z" fill="#E0E0E0" stroke="#fff" stroke-width=".4"/><path d="M1002,-195L1006,-194L1007,-196L1014,-198L1016,-194L1026,-191L1025,-186L1027,-182L1021,-183L1015,-180L1016,-175L1015,-172L1017,-167L1024,-162L1027,-154L1035,-146L1041,-146L1043,-144L1041,-142L1047,-139L1052,-136L1058,-131L1059,-129L1058,-126L1054,-130L1048,-132L1045,-126L1050,-122L1049,-118L1046,-117L1042,-109L1039,-109L1039,-111L1041,-116L1042,-118L1039,-123L1037,-128L1034,-129L1032,-133L1028,-135L1024,-139L1019,-139L1014,-144L1007,-150L1002,-156L1000,-165L997,-166L991,-170L987,-168L983,-164L980,-163L981,-167L977,-169L976,-176L978,-179L976,-183L976,-186L979,-184L983,-184L987,-188L988,-186L991,-187L993,-191L998,-189L1001,-191ZM1033,-111L1038,-111L1035,-104L1036,-102L1035,-97L1030,-100L1026,-101L1016,-106L1017,-111L1025,-110ZM989,-136L993,-139L997,-132L996,-120L993,-121L990,-118L987,-120L987,-131L986,-137Z" fill="#E0E0E0" stroke="#fff" stroke-width=".4"/><path d="M513,330L515,335L515,345L522,346L525,345L530,347L531,349L532,356L533,359L536,360L538,358L541,360L541,364L540,369L538,373L537,380L531,386L525,388L517,387L510,384L517,372L516,369L509,366L500,360L494,359L481,346L484,337L484,333L487,326L500,324L506,324L513,328Z" fill="#E0E0E0" stroke="#fff" stroke-width=".4"/><path d="M912,-84L915,-79L915,-73L918,-64L919,-63L918,-59L909,-58L906,-55L901,-54L901,-48L893,-45L890,-41L884,-38L877,-37L866,-31L866,-21L865,-21L865,-17L860,-17L858,-15L855,-15L852,-16L846,-15L844,-9L842,-9L838,1L829,10L826,21L823,24L822,27L806,27L806,27L807,24L809,22L812,18L811,15L814,10L818,5L820,3L822,-1L822,-5L825,-10L829,-13L834,-21L834,-21L838,-25L844,-25L850,-31L853,-33L859,-40L858,-50L860,-57L861,-62L866,-68L873,-72L878,-75L883,-84L885,-89L890,-89L895,-86L902,-86L909,-84Z" fill="#E0E0E0" stroke="#fff" stroke-width=".4"/><path d="M1105,23L1105,38L1097,38L1097,41L1069,27L1040,12L1033,16L1028,19L1024,15L1013,12L1010,7L1004,3L1001,4L998,0L998,-3L994,-9L997,-12L996,-17L997,-22L996,-25L998,-32L997,-36L995,-43L998,-45L999,-48L998,-52L1003,-55L1005,-58L1009,-60L1009,-67L1018,-64L1021,-65L1027,-63L1036,-59L1039,-52L1046,-50L1056,-47L1063,-43L1067,-45L1070,-49L1069,-55L1071,-59L1076,-63L1081,-64L1090,-63L1093,-59L1096,-59L1098,-57L1105,-56L1107,-54L1104,-50L1105,-46L1103,-41L1105,-34L1105,-6Z" fill="#E0E0E0" stroke="#fff" stroke-width=".4"/><path d="M488,107L492,106L494,106L494,111L488,112L486,111L488,109Z" fill="#E0E0E0" stroke="#fff" stroke-width=".4"/></g><g clip-path="url(#v)"><path d="M419.6,98.5L419.3,98.6L419.0,98.8L418.1,99.1L416.7,99.5L415.0,99.9L414.6,100.4L413.0,103.3L411.6,103.9L411.1,104.4L410.7,104.9L409.8,106.0L409.5,106.7L408.5,108.4L408.0,110.6L407.9,111.8L407.6,113.5L407.2,114.4L406.6,115.2L406.0,116.0L405.5,116.9L405.1,117.6L405.0,117.8L405.2,118.0L406.2,117.8L406.6,117.6L407.2,117.4L407.5,117.5L407.9,118.2L408.3,118.3L408.7,118.2L409.1,118.4L409.6,120.3L410.0,121.9L411.0,122.9L411.8,123.7L412.0,124.4L412.2,125.3L412.2,125.8L412.0,126.1L411.6,126.7L411.5,127.8L411.4,128.2L411.3,129.2L411.4,129.8L411.6,130.3L411.9,130.6L412.6,130.8L413.3,131.0L413.6,131.8L414.1,132.9L414.7,133.4L415.5,133.7L416.1,133.6L417.4,133.4L418.6,133.4L420.3,133.7L421.0,133.7L421.8,133.6L423.2,133.0L423.7,133.0L424.3,133.0L425.2,133.3L425.6,133.6L426.2,133.8L427.1,134.0L427.6,134.0L428.1,133.9L428.3,134.1L429.7,135.8L430.8,137.2L431.9,138.5L433.0,139.8L433.1,139.9L433.6,139.7L433.9,139.8L434.2,140.1L434.7,140.0L435.5,139.5L436.5,139.4L438.0,139.7L439.9,139.7L442.2,139.4L443.7,139.0L444.2,138.7L445.2,138.7L446.3,139.0L446.9,139.5L447.0,139.9L447.2,140.6L447.0,141.3L446.3,142.0L445.8,142.9L445.8,143.9L445.4,144.7L444.7,145.2L444.5,146.0L444.6,147.0L444.5,148.4L444.3,150.3L444.3,151.4L444.5,151.8L444.7,152.4L444.7,153.0L444.8,153.7L445.1,154.4L445.6,156.0L446.0,156.7L446.4,157.0L446.8,157.3L447.9,158.9L448.1,159.2L448.0,159.5L447.9,159.8L447.8,159.9L446.7,160.9L444.4,163.0L444.2,163.2L444.2,163.7L444.9,163.4L445.6,163.6L445.9,163.7L446.1,163.8L446.3,164.4L446.5,164.5L446.9,164.8L447.6,165.3L448.1,166.0L448.5,166.3L448.8,166.6L448.9,167.0L448.8,167.4L449.2,168.3L449.4,168.6L449.5,169.0L449.4,169.3L449.7,169.8L450.0,170.6L450.4,171.6L450.5,172.2L450.6,172.4L450.8,173.2L451.2,173.9L451.1,174.4L451.2,174.9L449.9,175.2L449.8,175.1L449.7,175.0L449.7,173.6L449.7,172.1L449.5,171.4L448.9,170.4L448.1,169.1L447.8,168.7L447.5,168.5L447.1,168.5L446.8,168.6L446.4,168.8L446.0,169.1L445.3,169.9L444.5,170.8L444.1,171.0L443.7,171.1L443.3,171.1L443.0,170.8L442.7,170.3L442.3,169.7L441.8,169.4L441.7,169.6L441.5,170.0L441.4,170.4L441.7,170.9L442.0,171.3L441.5,171.3L440.1,171.3L438.4,171.3L436.7,171.3L435.2,171.3L433.8,171.3L433.3,171.3L432.7,171.1L432.2,170.9L432.0,171.0L431.5,171.2L430.8,171.2L430.4,171.4L430.1,171.4L430.1,172.6L430.1,174.3L430.0,176.0L430.4,175.9L430.7,175.9L431.0,176.0L431.7,175.9L432.1,176.0L432.4,176.0L432.7,176.0L432.9,176.2L433.2,176.2L433.5,176.0L433.9,176.1L434.3,176.3L434.5,176.7L434.7,177.2L434.9,177.4L434.9,177.9L434.9,178.2L434.8,178.5L434.9,178.7L435,178.9L435,179.0L434.9,179.0L434.6,179.1L434.3,179.1L434.1,179.1L433.9,178.9L433.8,178.9L433.5,178.9L433.3,178.8L433.1,178.6L432.7,178.4L432.4,178.5L432.1,178.6L431.8,178.7L431.6,178.9L431.3,178.8L431.0,178.9L430.7,179.1L430.4,179.2L430.0,179.3L429.5,179.4L429.1,179.4L428.6,179.5L428.6,180.4L428.5,182.2L428.5,183.4L428.5,184.6L428.7,185.0L429.5,185.8L430.2,186.3L430.8,186.8L431.4,187.0L431.6,187.2L431.7,187.5L431.8,187.8L431.9,188.1L431.8,188.4L431.7,188.7L431.7,189.0L431.9,189.2L432.0,189.5L432.2,189.8L432.2,190.1L432.4,190.3L432.6,190.5L432.9,190.7L432.9,190.9L432.9,191.2L432.9,191.3L433.2,191.8L433.3,192.1L433.1,192.4L433.0,193.7L432.7,195.1L432.5,196.2L432.2,198.0L431.8,200.1L431.3,202.6L430.9,205.1L430.4,207.5L430.1,209.7L429.6,212.1L429.4,213.5L429.2,213.8L428.8,213.2L428.3,212.7L427.8,212.4L427.6,212.1L427.3,211.2L426.8,211.0L426.6,210.8L426.3,210.8L426.0,211.0L425.5,211.1L425.2,211.1L424.0,210.6L423.7,210.5L424.6,209.3L426.0,207.0L426.9,205.6L427.9,204.0L428.5,203.2L428.5,203.0L428.5,202.8L428.3,202.5L427.8,202.4L427.2,202.1L426.9,201.8L426.4,201.6L426.0,201.3L425.3,201.0L424.9,200.8L424.4,200.7L424.0,200.3L422.5,199.4L422.1,199.3L421.7,199.4L421.1,199.6L420.5,200.1L419.7,200.2L419.0,200.2L418.7,199.9L418.3,199.8L417.9,199.4L417.1,199.1L416.5,198.9L416.1,199.0L415.7,199.4L415.2,199.9L414.9,200.2L414.4,200.1L413.8,200.5L413.2,200.7L412.6,200.7L411.9,200.9L411.2,200.6L410.6,200.4L410.3,200.3L410.0,200.4L409.6,200.6L409.0,200.7L408.4,200.7L408.0,200.6L407.7,200.2L407.1,200.0L406.5,199.8L406.4,199.3L406.5,198.9L406.7,198.4L406.6,197.8L406.3,197.0L406.2,196.6L406.0,196.3L405.7,196.2L405.1,196.3L404.5,195.9L404.1,195.6L403.9,195.2L404.1,194.5L403.9,193.9L403.5,193.6L403.3,193.0L402.9,192.5L402.4,192.2L401.9,192.3L401.5,192.1L401.0,191.6L400.6,191.4L400.1,190.9L399.2,190.7L398.8,190.5L398.5,190.2L398.1,189.6L398.2,189.3L398.0,189.0L397.8,188.5L397.5,187.7L397.2,187.3L396.8,186.9L396.5,186.6L396.1,186.2L395.6,186.0L395.1,185.7L394.9,185.3L394.8,185.0L394.5,185.0L394.2,185.0L393.8,184.9L393.3,184.7L393.0,184.4L392.4,183.9L392.1,183.9L391.8,183.9L391.3,184.3L390.1,183.8L389.0,183.1L387.9,182.9L387.1,182.5L386.4,181.8L386.1,181.3L385.8,181.1L384.3,180.4L384.0,180.4L383.5,180.7L383.3,180.9L383.3,181.4L383.2,181.7L382.7,181.9L382.0,181.9L381.4,181.7L381.1,181.6L381.0,181.8L380.8,181.9L380.3,181.8L379.7,181.7L379.1,181.5L378.3,181.1L378.0,181.1L377.1,181.0L376.3,180.8L376.1,180.6L375.8,179.0L375.7,178.9L375.4,178.9L374.9,178.7L374.5,178.4L374.3,178.0L374.1,177.6L373.2,177.7L371.8,177.2L370.7,176.7L369.8,176.1L368.4,175.0L367.8,174.8L367.2,174.4L366.8,173.9L366.1,173.4L365.9,173.2L365.7,172.7L364.7,172.0L365.2,171.1L366.4,170.4L367.9,170.9L368.1,169.9L367.5,168.9L367.6,167.2L367.8,166.8L368.2,166.3L368.7,166.0L369.0,165.9L369.6,166.1L369.9,165.7L371.2,165.9L371.6,165.7L371.8,165.5L372.1,165.3L372.5,164.8L372.7,164.4L372.9,164.2L373.3,164.2L373.4,164.0L373.6,163.7L374.4,163.1L374.3,162.8L374.1,162.2L374.2,161.9L374.6,161.8L375.2,161.7L375.4,161.1L375.8,160.5L376.2,159.8L376.6,159.7L376.8,158.8L377.4,158.0L378.6,155.7L378.2,155.7L378.0,156.1L377.6,156.0L377.3,155.8L377.4,154.8L377.2,154.7L376.6,155.5L376.1,154.6L376.0,154.1L376.2,153.6L376.2,153.3L375.4,153.6L375.5,153.2L376.0,152.9L376.2,152.6L376.6,152.2L376.8,151.7L376.9,150.8L377.1,149.9L377.0,149.5L376.7,149.1L376.5,147.4L376.6,146.4L376.5,145.6L376.3,144.9L375.3,144.1L376.8,143.1L377.4,142.3L376.7,140.8L375.8,139.5L375.8,138.7L376.0,138.8L376.3,138.8L376.6,137.2L376.5,136.7L376.0,135.8L375.4,135.8L374.9,134.8L374.5,134.5L374.3,133.9L373.4,132.6L372.7,132.0L373.2,130.4L373.7,130.1L373.8,129.8L373.7,128.8L373.7,128.6L373.8,128.5L373.9,128.5L374.1,128.6L374.4,129.1L374.7,129.6L375.0,129.7L375.3,129.5L376.6,128.5L376.6,128.2L376.7,127.6L377.1,127.1L377.6,126.9L377.7,126.6L377.6,126.2L377.1,125.1L376.7,124.5L376.4,123.9L376.2,123.3L375.7,122.8L375.9,122.3L376.3,121.8L376.5,121.7L376.7,121.8L377.3,122.9L378.2,123.5L379.2,124.6L379.6,125.4L379.9,125.5L380.2,125.8L380.1,126.0L379.8,126.2L379.7,126.6L379.9,126.9L380.1,127.0L380.7,126.9L381.0,126.4L380.8,124.2L380.4,123.1L380.0,122.7L379.7,122.3L379.9,122.0L380.6,121.8L381.3,121.4L384.3,119.3L385.3,117.3L386.1,116.6L386.9,116.1L388.0,116.2L388.8,116.0L389.1,115.3L388.9,114.5L388.5,114.0L388.8,113.2L389.2,112.1L389.1,111.1L389.5,110.5L389.4,110.3L388.8,110.8L388.3,111.0L388.6,110.6L389.4,109.6L389.9,108.2L390.2,107.6L391.4,106.7L391.6,106.3L392.5,105.7L393.9,104.3L394.5,104.0L397.3,104.8L398.1,104.8L398.0,105.0L397.6,105.0L397.0,105.2L396.8,105.8L397.2,106.3L397.6,106.5L398.0,106.1L398.4,105.1L398.9,104.0L399.1,102.8L399.5,102.4L400.1,102.3L401.1,102.5L402.0,102.8L402.8,102.8L405.4,102.6L409.6,99.6L411.6,98.9L412.8,98.3L413.6,97.1L413.8,96.1L414.3,95.8L415.0,95.8L415.2,95.5L415.3,95.2L416.8,94.4L417.6,94.3L418.3,94.3L420.0,95.1L420.7,96.3L420.9,97.2L419.9,98.1ZM371.2,165.5L371.0,165.6L370.7,165.3L370.5,165.0L370.7,164.7L371.0,164.8L371.2,165.0Z" fill="#4ECDC4" stroke="#2C3E50" stroke-width="1"/></g><circle cx="400.0" cy="150.0" r="4" fill="#E74C3C" stroke="#fff" stroke-width="2"/><text x="400.0" y="140.0" text-anchor="middle" font-family="sans-serif" font-weight="700" font-size="10" fill="#2D3436">Bogotá</text></svg>