<svg viewBox="0 0 800 300" xmlns="http://www.w3.org/2000/svg"><defs><clipPath id="v"><rect width="800" height="300"/></clipPath></defs><rect width="800" height="300" fill="#DCEEF8"/><g clip-path="url(#v)"><path d="M889,-250L892,-228L889,-212L880,-205L890,-192L889,-181L863,-188L844,-185L820,-188L801,-180L780,-193L784,-207L820,-201L850,-197L864,-207L846,-225L846,-241L821,-247L830,-259L854,-257Z" fill="#E0E0E0" stroke="#fff" stroke-width=".4"/><path d="M889,-181L890,-192L880,-205L889,-212L892,-228L889,-250L894,-258L924,-257L948,-247L958,-248L965,-233L987,-234L986,-221L1003,-220L1023,-204L1008,-187L989,-196L971,-195L958,-197L951,-189L936,-187L930,-197L917,-191L901,-162L891,-169Z" fill="#E0E0E0" stroke="#fff" stroke-width=".4"/><path d="M-906,-816L-861,-820L-811,-825L-814,-816L-755,-793L-665,-761L-586,-761L-555,-761L-555,-780L-486,-780L-472,-764L-452,-749L-428,-729L-415,-705L-405,-680L-385,-666L-352,-653L-327,-688L-295,-689L-267,-671L-247,-640L-233,-614L-210,-588L-201,-557L-190,-537L-160,-523L-131,-513L-116,-514L-131,-476L-138,-445L-141,-387L-145,-366L-138,-343L-126,-322L-118,-289L-92,-258L-83,-234L-67,-213L-25,-202L-9,-185L26,-197L56,-201L86,-208L110,-215L136,-232L145,-257L148,-292L155,-305L182,-316L224,-326L259,-324L283,-328L292,-319L291,-298L270,-273L260,-248L267,-240L261,-222L252,-190L242,-200L233,-200L226,-199L212,-174L204,-179L200,-177L200,-171L163,-171L127,-171L126,-148L109,-148L123,-134L138,-125L142,-116L149,-113L148,-99L97,-99L78,-66L84,-58L79,-48L78,-36L33,-80L13,-94L-19,-105L-41,-102L-73,-86L-93,-82L-121,-93L-151,-101L-188,-120L-217,-125L-262,-145L-295,-164L-305,-175L-327,-178L-367,-191L-384,-210L-426,-234L-446,-260L-456,-281L-442,-285L-446,-297L-437,-308L-437,-323L-450,-342L-454,-359L-467,-380L-502,-423L-542,-457L-561,-484L-595,-502L-602,-513L-596,-540L-616,-550L-640,-572L-650,-603L-671,-606L-694,-630L-712,-652L-714,-666L-735,-700L-749,-735L-749,-753L-777,-771L-790,-769L-813,-782L-819,-763L-813,-741L-809,-707L-795,-688L-766,-657L-760,-646L-754,-643L-748,-627L-741,-628L-733,-599L-721,-588L-713,-572L-688,-549L-675,-508L-663,-489L-652,-469L-650,-446L-631,-444L-615,-425L-601,-406L-602,-398L-618,-382L-625,-382L-636,-408L-662,-433L-690,-454L-710,-465L-709,-497L-715,-521L-734,-534L-761,-554L-766,-548L-776,-560L-801,-571L-824,-597L-821,-600L-805,-597L-790,-614L-789,-634L-819,-667L-842,-679L-857,-708L-871,-738L-890,-775Z" fill="#E0E0E0" stroke="#fff" stroke-width=".4"/><path d="M1613,1963L1602,1937L1620,1914L1597,1882L1566,1857L1525,1827L1511,1828L1471,1793L1445,1798L1498,1736L1543,1692L1569,1674L1602,1650L1603,1614L1584,1589L1564,1597L1572,1572L1577,1546L1577,1523L1563,1515L1548,1522L1533,1520L1529,1503L1525,1464L1518,1451L1491,1440L1475,1448L1433,1440L1436,1382L1424,1359L1436,1350L1432,1326L1443,1308L1450,1275L1441,1249L1420,1237L1415,1221L1421,1197L1345,1196L1330,1148L1342,1147L1341,1129L1333,1118L1332,1094L1309,1082L1284,1082L1267,1071L1241,1063L1225,1047L1181,1041L1138,1005L1141,978L1136,962L1141,932L1089,939L1068,954L1033,970L1025,982L1004,983L975,980L953,987L935,982L937,921L905,945L870,944L855,922L829,920L837,903L815,878L799,843L809,835L809,818L833,807L829,785L839,772L842,753L887,726L920,718L925,712L961,714L978,606L979,589L973,566L956,552L956,523L978,516L986,521L987,505L964,501L964,477L1041,477L1054,464L1065,476L1072,500L1080,495L1102,516L1132,513L1140,501L1169,492L1186,485L1190,469L1218,457L1216,449L1183,446L1177,421L1179,394L1161,384L1169,380L1198,385L1229,395L1241,386L1269,380L1313,365L1328,350L1322,339L1343,337L1352,346L1347,363L1361,369L1370,388L1359,402L1352,435L1363,455L1365,474L1390,492L1409,494L1414,486L1426,485L1444,478L1457,467L1479,471L1488,469L1510,472L1513,464L1507,457L1511,445L1527,449L1545,445L1568,453L1585,461L1597,450L1606,452L1612,463L1630,460L1646,445L1658,416L1681,380L1695,378L1704,400L1726,469L1748,476L1749,503L1719,536L1731,547L1801,554L1803,593L1833,567L1882,582L1948,606L1967,629L1961,651L2007,639L2084,659L2143,658L2201,691L2252,735L2282,747L2316,748L2330,761L2343,811L2350,835L2334,901L2314,927L2259,983L2233,1029L2204,1064L2194,1065L2183,1095L2186,1171L2175,1235L2171,1262L2158,1279L2151,1334L2111,1389L2104,1433L2072,1452L2063,1477L2020,1477L1958,1494L1930,1513L1886,1526L1840,1560L1806,1604L1800,1636L1807,1661L1800,1706L1791,1728L1763,1753L1719,1833L1684,1870L1657,1892L1639,1936Z" fill="#E0E0E0" stroke="#fff" stroke-width=".4"/><path d="M1080,495L1072,500L1065,476L1054,464L1041,477L964,477L964,501L987,505L986,521L978,516L956,523L956,552L973,566L979,589L978,606L961,714L941,693L929,692L954,652L924,634L901,637L886,630L864,641L835,636L812,594L793,584L781,565L755,547L744,550L727,541L708,528L696,534L663,529L653,512L646,512L606,490L601,478L616,475L614,455L623,440L643,438L660,413L675,392L660,383L668,360L659,323L667,313L661,279L645,258L650,239L663,242L670,230L661,206L666,200L686,202L716,174L732,170L733,156L740,122L762,104L787,103L790,95L821,98L852,78L868,68L887,49L901,51L911,62L904,76L878,82L868,103L853,114L842,129L837,158L826,181L846,184L851,202L860,211L863,227L858,242L860,250L870,253L879,267L930,264L953,269L981,303L996,299L1025,301L1047,296L1061,303L1054,324L1046,338L1042,366L1050,393L1062,404L1063,413L1043,433L1057,442L1068,455Z" fill="#E0E0E0" stroke="#fff" stroke-width=".4"/><path d="M666,200L661,206L670,230L663,242L650,239L645,258L632,247L623,225L633,214L623,212L616,198L596,187L579,190L571,204L555,214L546,215L542,224L561,245L550,250L545,256L526,258L519,234L514,241L501,239L493,223L477,220L467,216L450,216L449,224L444,218L446,210L449,202L448,195L454,190L445,184L445,168L461,165L475,179L474,187L490,189L493,186L504,196L524,193L541,183L565,175L578,163L600,165L598,169L620,170L638,177L651,189Z" fill="#E0E0E0" stroke="#fff" stroke-width=".4"/><path d="M417,109L407,118L396,115L389,107L377,104L368,109L342,98L336,103L322,91L303,75L295,61L278,48L258,30L263,24L269,30L272,27L284,25L289,16L295,16L294,-4L304,-5L312,-5L320,-16L332,-8L336,-13L343,-18L357,-29L358,-37L362,-37L367,-47L371,-48L377,-42L385,-40L394,-45L404,-45L418,-50L423,-56L437,-55L433,-51L431,-42L436,-27L426,-13L422,3L421,21L423,32L424,50L418,54L414,71L417,82L409,92L411,103Z" fill="#E0E0E0" stroke="#fff" stroke-width=".4"/><path d="M437,-55L423,-56L418,-50L404,-45L394,-45L385,-40L377,-42L371,-48L367,-47L362,-37L358,-37L357,-29L343,-18L336,-13L332,-8L320,-16L312,-5L304,-5L294,-4L295,16L289,16L284,25L272,27L265,14L253,11L256,-6L251,-10L243,-13L225,-8L224,-14L212,-20L203,-28L192,-32L200,-42L197,-50L200,-58L218,-69L236,-85L240,-83L249,-91L260,-91L264,-88L270,-90L288,-86L307,-87L319,-92L324,-96L337,-94L346,-92L356,-93L364,-96L382,-90L389,-89L401,-82L412,-73L426,-66Z" fill="#E0E0E0" stroke="#fff" stroke-width=".4"/><path d="M192,-32L203,-28L212,-20L224,-14L225,-8L243,-13L251,-10L256,-6L253,11L249,20L226,20L212,16L195,8L174,5L162,-4L164,-10L177,-20L184,-24L182,-29Z" fill="#E0E0E0" stroke="#fff" stroke-width=".4"/><path d="M78,-36L79,-48L84,-58L78,-66L97,-99L148,-99L149,-113L142,-116L138,-125L123,-134L109,-148L126,-148L127,-171L163,-171L200,-171L200,-138L197,-92L208,-92L221,-84L225,-90L236,-85L218,-69L200,-58L197,-50L200,-42L192,-32L182,-29L184,-24L177,-20L164,-10L162,-4L142,-11L117,-12L99,-20Z" fill="#E0E0E0" stroke="#fff" stroke-width=".4"/><path d="M200,-171L200,-177L204,-179L212,-174L226,-199L233,-200L233,-194L241,-193L240,-182L234,-164L237,-158L233,-143L236,-139L231,-118L223,-107L216,-106L208,-92L197,-92L200,-138Z" fill="#E0E0E0" stroke="#fff" stroke-width=".4"/><path d="M1322,339L1328,350L1313,365L1269,380L1241,386L1229,395L1198,385L1169,380L1161,384L1179,394L1177,421L1183,446L1216,449L1218,457L1190,469L1186,485L1169,492L1140,501L1132,513L1102,516L1080,495L1068,455L1057,442L1043,433L1063,413L1062,404L1050,393L1042,366L1046,338L1054,324L1061,303L1047,296L1025,301L996,299L981,303L953,269L930,264L879,267L870,253L860,250L858,242L863,227L860,211L851,202L846,184L826,181L837,158L842,129L853,114L868,103L878,82L904,76L903,85L879,90L892,108L892,129L874,153L889,184L906,182L915,153L903,139L901,108L950,92L945,73L959,60L973,89L1001,89L1026,112L1028,125L1063,125L1105,121L1128,139L1158,144L1180,132L1181,121L1230,119L1277,118L1244,130L1257,149L1289,152L1319,172L1325,204L1346,203L1361,213L1330,236L1326,251L1340,265L1330,273L1306,279L1306,298L1296,308Z" fill="#E0E0E0" stroke="#fff" stroke-width=".4"/><path d="M744,550L749,580L737,606L694,647L647,663L622,698L615,724L593,741L576,721L560,716L544,719L543,705L554,695L549,679L570,649L562,632L547,651L523,633L531,622L524,586L538,580L545,556L560,530L558,514L579,506L606,490L646,512L653,512L663,529L696,534L708,528L727,541Z" fill="#E0E0E0" stroke="#fff" stroke-width=".4"/><path d="M657,-199L684,-196L705,-186L711,-174L684,-173L672,-167L649,-173L627,-188L632,-198L648,-201Z" fill="#E0E0E0" stroke="#fff" stroke-width=".4"/></g><g clip-path="url(#v)"><path d="M459.9,164.2L459.7,164.9L459.0,165.7L458.0,166.5L456.7,167.0L453.6,165.4L450.5,163.6L448.9,164.4L448.2,166.8L447.1,168.0L445.6,168.5L445.1,169.3L444.9,177.3L445.1,184.8L447.3,185.0L451.2,187.7L452.9,189.2L453.5,190.6L452.9,191.3L450.0,192.9L447.3,195.0L445.9,197.7L448.3,201.8L448.9,204.7L448.8,207.7L448.2,209.1L442.8,212.5L441.7,213.8L441.8,214.6L444.6,216.9L446.1,219.2L447.3,222.0L447.5,224.4L444.8,219.9L441.1,215.7L437.8,213.1L437.5,207.0L436.2,203.7L431.4,200.7L427.1,198.6L424.2,199.0L426.0,202.5L430.8,207.0L431.3,208.7L431.1,211.0L427.9,210.6L424.9,209.7L421.2,209.4L418.8,208.0L413.6,202.7L417.3,198.1L418.5,195.1L418.3,188.8L417.5,185.9L413.5,181.2L407.2,176.2L398.6,172.0L394.4,168.8L384.0,166.2L380.2,164.5L377.1,161.4L376.6,159.1L377.8,155.6L374.9,151.2L362.7,142.5L355.9,139.3L354.3,137.5L353.3,136.9L354.3,142.9L357.3,146.5L365.1,149.8L367.3,151.8L368.1,154.4L363.6,159.2L361.3,160.5L360.6,163.1L359.1,164.0L357.6,162.4L351.2,154.8L338.9,151.1L336.7,148.9L332.1,141.8L330.1,135.5L330.8,131.2L335.8,124.5L337.4,121.7L337.1,119.9L337.2,117.3L335.4,115.5L330.7,113.0L327.7,111.1L328.6,110.2L334.0,107.6L334.3,105.3L334.3,104.5L335.1,104.3L335.8,103.7L336.4,103.1L337.8,100.9L339.1,99.6L340.5,99.4L342.4,100.3L349.0,102.7L356.6,105.4L367.3,109.2L371.7,106.8L375.5,104.9L378.1,105.2L383.9,107.4L387.3,108.1L389.4,107.8L393.0,111.0L395.0,113.4L395.4,115.0L396.6,115.8L399.4,116.0L406.4,117.6L410.6,117.3L414.5,115.6L416.6,113.6L417.3,110.4L418.3,112.0L419.5,114.5L419.9,117.7L425.0,128.5L429.0,134.5L437.8,145.5L441.5,147.5L447.9,156.4L450.2,157.8L451.5,160.4L458.0,162.6Z" fill="#4ECDC4" stroke="#2C3E50" stroke-width="1"/></g><circle cx="400.0" cy="150.0" r="4" fill="#E74C3C" stroke="#fff" stroke-width="2"/><text x="400.0" y="140.0" text-anchor="middle" font-family="sans-serif" font-weight="700" font-size="10" fill="#2D3436">San José</text></svg>