<svg viewBox="0 0 800 300" xmlns="http://www.w3.org/2000/svg"><defs><clipPath id="v"><rect width="800" height="300"/></clipPath></defs><rect width="800" height="300" fill="#DCEEF8"/><g clip-path="url(#v)"><path d="M-560,-623L-493,-623L-422,-623L-399,-623L-327,-623L-257,-623L-185,-623L-114,-623L-34,-623L48,-623L97,-623L97,-637L105,-637L109,-618L116,-611L133,-609L157,-604L180,-593L199,-597L229,-588L236,-588L257,-598L280,-585L303,-572L322,-560L341,-549L343,-540L348,-536L347,-533L353,-532L358,-536L359,-527L364,-522L370,-522L374,-518L371,-512L396,-496L401,-465L406,-437L399,-418L387,-400L382,-389L382,-385L384,-381L392,-376L398,-376L426,-393L450,-398L481,-414L482,-417L480,-427L476,-433L487,-439L510,-439L532,-439L539,-452L542,-454L567,-478L578,-484L614,-484L658,-484L660,-493L668,-494L678,-500L686,-515L693,-542L711,-568L719,-559L735,-565L746,-555L746,-508L761,-489L765,-478L740,-462L716,-450L691,-440L678,-421L674,-414L674,-397L682,-380L692,-379L689,-391L696,-384L694,-374L678,-369L667,-370L649,-364L639,-363L625,-361L605,-352L640,-358L647,-352L614,-343L599,-343L600,-347L592,-338L599,-336L594,-314L577,-291L575,-298L570,-300L562,-308L567,-291L573,-286L573,-274L566,-263L552,-239L550,-240L558,-260L546,-272L543,-297L538,-284L543,-265L528,-269L544,-260L545,-231L552,-229L554,-219L558,-190L543,-168L518,-159L502,-143L490,-141L478,-130L475,-121L449,-103L436,-89L424,-73L421,-53L425,-34L433,-11L444,9L444,20L455,51L454,69L453,79L447,96L440,99L428,96L425,84L416,78L403,55L392,35L388,24L393,7L387,-8L368,-31L359,-35L335,-23L331,-24L319,-37L304,-44L278,-40L257,-43L238,-42L229,-37L233,-30L233,-19L238,-13L233,-10L224,-14L215,-9L198,-10L180,-24L160,-21L143,-27L128,-25L108,-19L86,1L63,13L50,26L44,38L44,56L45,69L50,78L40,79L24,73L5,65L-2,52L-7,34L-21,18L-29,3L-41,-16L-58,-27L-77,-26L-92,-5L-112,-13L-124,-21L-130,-36L-138,-51L-152,-63L-164,-71L-173,-81L-214,-81L-214,-70L-232,-70L-280,-70L-334,-89L-370,-103L-367,-108L-397,-105L-424,-103L-428,-118L-444,-134L-455,-137L-457,-146L-471,-147L-479,-155L-501,-158L-507,-162L-510,-178L-533,-207L-553,-249L-552,-256L-563,-266L-581,-291L-584,-316L-597,-333L-592,-359L-592,-386L-600,-411L-591,-441L-588,-471L-585,-502L-589,-548L-597,-578L-604,-594L-601,-601L-567,-589L-554,-556L-548,-565L-552,-594ZM-1332,227L-1328,230L-1324,233L-1318,242L-1319,243L-1328,248L-1336,252L-1339,257L-1345,253L-1344,246L-1348,237L-1347,234L-1343,230L-1345,225L-1343,223L-1341,223ZM-1346,210L-1348,213L-1356,215L-1360,209L-1363,207L-1363,206L-1361,204L-1353,206ZM-1364,200L-1365,202L-1378,202L-1376,198ZM-1394,186L-1393,187L-1386,196L-1387,197L-1389,197L-1397,196L-1400,190L-1401,189ZM-1426,173L-1426,179L-1429,181L-1437,177L-1435,175L-1432,172ZM-1595,-1094L-1576,-1090L-1574,-1072L-1588,-1065L-1604,-1073L-1618,-1086ZM-1281,-983L-1265,-980L-1255,-966L-1275,-945L-1299,-928L-1311,-939L-1315,-960L-1293,-976ZM-990,-1625L-990,-1391L-991,-1091L-967,-1089L-944,-1076L-928,-1055L-906,-1025L-883,-1051L-860,-1066L-847,-1042L-831,-1023L-809,-1002L-795,-970L-770,-920L-730,-893L-729,-867L-742,-847L-756,-862L-776,-876L-783,-913L-814,-948L-826,-989L-849,-992L-887,-994L-915,-1007L-964,-1054L-986,-1063L-1028,-1080L-1061,-1076L-1107,-1098L-1136,-1119L-1162,-1108L-1157,-1075L-1170,-1072L-1198,-1062L-1219,-1046L-1245,-1037L-1248,-1064L-1238,-1111L-1212,-1126L-1219,-1138L-1249,-1111L-1265,-1079L-1299,-1046L-1282,-1023L-1304,-991L-1330,-972L-1354,-958L-1360,-939L-1397,-917L-1404,-897L-1432,-879L-1448,-882L-1470,-870L-1494,-856L-1514,-842L-1555,-831L-1559,-837L-1533,-857L-1509,-869L-1484,-892L-1455,-897L-1443,-915L-1410,-941L-1405,-949L-1387,-965L-1383,-999L-1371,-1026L-1398,-1012L-1406,-1020L-1419,-1003L-1434,-1026L-1441,-1010L-1450,-1033L-1473,-1014L-1488,-1014L-1490,-1042L-1486,-1059L-1501,-1076L-1532,-1067L-1552,-1089L-1568,-1100L-1568,-1128L-1587,-1149L-1577,-1178L-1558,-1206L-1550,-1233L-1530,-1237L-1514,-1229L-1495,-1254L-1478,-1249L-1460,-1266L-1464,-1291L-1477,-1300L-1460,-1322L-1474,-1321L-1500,-1309L-1507,-1297L-1525,-1309L-1559,-1303L-1594,-1316L-1604,-1339L-1634,-1372L-1600,-1396L-1547,-1425L-1528,-1425L-1531,-1395L-1481,-1398L-1500,-1434L-1530,-1457L-1546,-1488L-1569,-1515L-1602,-1535L-1588,-1569L-1546,-1571L-1516,-1602L-1511,-1635L-1487,-1668L-1463,-1676L-1419,-1708L-1397,-1703L-1360,-1742L-1324,-1727L-1307,-1694L-1297,-1708L-1257,-1704L-1258,-1687L-1222,-1675L-1197,-1682L-1148,-1660L-1102,-1653L-1084,-1644L-1052,-1655L-1016,-1635ZM-1720,-1267L-1705,-1257L-1690,-1262L-1671,-1248L-1647,-1241L-1649,-1235L-1667,-1224L-1685,-1236L-1694,-1245L-1715,-1242L-1721,-1247Z" fill="#E0E0E0" stroke="#fff" stroke-width=".4"/><path d="M653,237L655,250L653,260L647,264L653,272L653,278L637,274L626,276L611,274L600,279L588,271L590,263L612,266L630,268L638,263L627,252L627,242L612,238L618,231L632,233Z" fill="#E0E0E0" stroke="#fff" stroke-width=".4"/><path d="M653,278L653,272L647,264L653,260L655,250L653,237L656,232L674,232L688,239L695,238L699,247L712,247L711,254L722,255L733,264L724,274L713,269L702,270L694,269L690,273L681,275L678,269L670,272L660,290L654,286Z" fill="#E0E0E0" stroke="#fff" stroke-width=".4"/><path d="M480,54L492,52L507,52L508,59L482,64ZM509,47L527,59L523,78L519,74L519,61L509,50ZM499,95L506,96L515,118L515,133L509,134L503,120L494,112Z" fill="#E0E0E0" stroke="#fff" stroke-width=".4"/><path d="M-424,-103L-397,-105L-367,-108L-370,-103L-334,-89L-280,-70L-232,-70L-214,-70L-214,-81L-173,-81L-164,-71L-152,-63L-138,-51L-130,-36L-124,-21L-112,-13L-92,-5L-77,-26L-58,-27L-41,-16L-29,3L-21,18L-7,34L-2,52L5,65L24,73L40,79L50,78L40,101L36,120L35,155L32,167L36,181L44,194L49,213L64,232L70,246L79,259L104,265L114,276L135,269L153,266L171,262L186,258L201,247L206,233L208,211L212,204L228,197L254,191L275,192L289,190L295,196L294,208L281,223L275,238L280,243L276,253L270,273L264,267L259,267L255,267L246,282L242,279L239,281L239,284L217,284L195,284L195,298L185,298L193,306L202,312L205,317L209,319L208,327L178,327L166,348L170,352L167,358L166,365L139,339L127,331L108,324L94,326L75,335L63,338L47,331L29,326L7,315L-11,312L-38,300L-58,288L-64,282L-77,280L-101,272L-111,261L-137,247L-148,231L-154,218L-146,216L-149,209L-143,202L-143,193L-151,182L-153,172L-161,159L-182,133L-206,113L-217,96L-238,86L-242,79L-239,63L-251,57L-265,44L-271,25L-283,23L-297,9L-308,-4L-309,-13L-322,-33L-330,-54L-330,-65L-347,-76L-355,-75L-369,-83L-372,-71L-369,-58L-366,-37L-358,-26L-341,-7L-337,-1L-333,1L-330,10L-326,10L-321,27L-314,34L-309,44L-294,57L-286,82L-279,93L-272,105L-271,119L-259,120L-250,132L-241,143L-242,148L-252,158L-256,157L-262,142L-278,127L-295,114L-307,108L-306,89L-310,74L-321,66L-338,54L-341,58L-347,51L-361,44L-375,29L-374,27L-364,28L-355,18L-354,6L-372,-13L-386,-21L-395,-38L-404,-56L-415,-78Z" fill="#E0E0E0" stroke="#fff" stroke-width=".4"/><path d="M768,684L763,687L758,673L752,665L744,673L698,673L698,688L712,690L711,699L706,697L693,701L693,718L703,727L707,740L707,751L696,816L684,803L677,802L692,778L674,767L660,769L651,765L638,771L621,768L607,744L596,737L588,726L572,715L566,717L556,712L544,704L537,708L517,704L512,694L507,694L483,681L480,674L489,672L488,660L493,651L505,650L515,635L524,622L516,617L520,603L515,581L520,575L516,555L506,542L510,530L517,532L522,525L516,511L519,507L531,508L549,491L559,489L559,481L563,460L577,449L592,449L594,444L612,446L631,433L640,428L652,416L660,418L666,424L662,432L647,436L641,448L631,455L624,464L622,482L615,496L627,497L630,508L636,514L637,523L635,532L635,537L641,539L647,547L677,545L691,548L708,569L717,566L735,567L748,565L756,569L752,582L747,590L745,607L750,623L757,630L757,635L745,647L754,652L760,660Z" fill="#E0E0E0" stroke="#fff" stroke-width=".4"/><path d="M519,507L516,511L522,525L517,532L510,530L506,542L499,535L493,522L499,516L493,514L489,506L477,499L467,501L462,509L452,515L447,516L445,521L456,534L450,537L446,541L435,542L431,528L428,532L420,530L415,521L406,519L399,516L389,516L389,521L386,518L387,513L389,508L388,504L392,501L387,498L387,488L396,486L404,494L404,499L413,500L416,499L422,504L434,503L444,497L458,492L466,485L479,486L479,488L492,489L502,493L510,501Z" fill="#E0E0E0" stroke="#fff" stroke-width=".4"/><path d="M396,486L387,488L387,498L392,501L388,504L389,508L387,513L386,518L373,513L368,508L371,503L370,498L363,492L354,488L346,484L344,477L338,473L340,480L335,486L330,479L322,477L319,472L319,465L322,457L315,454L321,449L324,446L340,452L345,449L353,451L357,456L364,458L370,453L375,466L385,475Z" fill="#E0E0E0" stroke="#fff" stroke-width=".4"/><path d="M370,453L364,458L357,456L353,451L345,449L340,452L324,446L321,449L313,441L301,432L296,423L286,416L274,405L277,401L281,405L283,403L290,402L293,396L296,396L296,384L302,384L306,384L312,377L319,382L321,379L325,376L334,370L334,365L336,365L339,359L342,358L346,362L351,363L356,360L362,360L370,357L373,353L382,354L379,356L378,362L381,371L375,379L373,389L372,400L373,406L374,417L370,419L368,430L370,436L365,442L366,449Z" fill="#E0E0E0" stroke="#fff" stroke-width=".4"/><path d="M382,354L373,353L370,357L362,360L356,360L351,363L346,362L342,358L339,359L336,365L334,365L334,370L325,376L321,379L319,382L312,377L306,384L302,384L296,384L296,396L293,396L290,402L283,403L279,395L271,393L273,383L270,381L265,379L254,382L254,379L246,375L241,370L234,368L239,362L237,357L239,352L250,345L261,336L264,337L269,332L276,332L278,334L281,333L292,335L303,334L311,332L314,329L321,330L327,332L333,331L338,329L349,333L353,333L360,338L367,343L375,347Z" fill="#E0E0E0" stroke="#fff" stroke-width=".4"/><path d="M234,368L241,370L246,375L254,379L254,382L265,379L270,381L273,383L271,393L269,399L255,399L246,396L237,391L223,390L217,385L218,381L226,375L230,372L229,369Z" fill="#E0E0E0" stroke="#fff" stroke-width=".4"/><path d="M166,365L167,358L170,352L166,348L178,327L208,327L209,319L205,317L202,312L193,306L185,298L195,298L195,284L217,284L239,284L239,304L237,332L244,332L252,336L254,333L261,336L250,345L239,352L237,357L239,362L234,368L229,369L230,372L226,375L218,381L217,385L205,380L190,380L179,375Z" fill="#E0E0E0" stroke="#fff" stroke-width=".4"/><path d="M239,284L239,281L242,279L246,282L255,267L259,267L259,271L264,271L264,278L260,288L262,292L259,301L261,303L258,316L253,323L249,323L244,332L237,332L239,304Z" fill="#E0E0E0" stroke="#fff" stroke-width=".4"/><path d="M913,590L916,597L908,606L881,615L864,619L857,624L838,618L821,615L816,617L827,624L826,639L829,654L849,656L851,661L834,668L831,678L821,682L804,688L799,695L781,696L768,684L760,660L754,652L745,647L757,635L757,630L750,623L745,607L747,590L752,582L756,569L748,565L735,567L717,566L708,569L691,548L677,545L647,547L641,539L635,537L635,532L637,523L636,514L630,508L627,497L615,496L622,482L624,464L631,455L641,448L647,436L662,432L661,438L647,441L655,452L655,464L644,478L653,498L663,496L669,479L661,470L660,452L690,442L686,431L695,423L703,440L720,440L735,454L736,462L758,462L783,460L796,470L815,473L828,466L828,460L858,458L886,458L866,465L874,476L893,478L911,490L915,509L927,509L936,514L918,529L915,537L924,546L918,551L903,554L904,565L897,572Z" fill="#E0E0E0" stroke="#fff" stroke-width=".4"/><path d="M782,267L794,269L798,274L792,280L774,280L760,281L759,270L762,266Z" fill="#E0E0E0" stroke="#fff" stroke-width=".4"/><path d="M514,267L530,270L542,276L546,282L530,283L523,287L509,283L496,274L499,268L508,266Z" fill="#E0E0E0" stroke="#fff" stroke-width=".4"/><path d="M891,457L904,454L909,455L908,473L889,475L884,473L891,466Z" fill="#E0E0E0" stroke="#fff" stroke-width=".4"/></g><g clip-path="url(#v)"><path d="M412.6,148.6L418.9,149.8L423.9,149.5L426.3,148.8L426.0,149.5L428.2,151.3L429.1,151.4L432.3,150.5L440.8,150.2L441.7,150.7L443.2,152.4L445.3,153.5L447.5,154.3L449.9,154.5L452.2,154.2L454.5,154.3L457.2,156.0L458.1,156.2L460.4,155.8L459.8,157.3L463.9,159.5L466.9,163.7L469.1,165.4L471.5,167.0L473.4,168.1L475.6,168.6L482.3,168.3L483.8,168.5L485.3,169.1L486.6,169.3L487.3,169.1L500.2,175.7L504.3,179.2L506.9,181.1L512.3,183.7L514.4,184.3L515.6,183.9L515.3,183.3L513.8,181.9L513.6,181.3L515.6,181.8L519.3,184.8L520.3,185.8L522.1,186.9L524.0,187.6L523.0,188.8L521.6,188.9L518.7,188.4L521.0,190.3L521.4,191.7L522.4,191.8L524.1,190.3L525.0,189.0L529.1,192.3L531.2,193.8L530.7,194.7L530.5,195.6L532.9,194.8L533.9,194.9L534.7,195.4L535.8,196.8L538.0,197.1L540.3,197.0L545.0,198.2L549.3,200.6L553.5,201.1L557.7,201.2L559.7,202.4L560.7,204.2L559.7,205.3L559.1,206.6L560.6,208.1L557.3,208.8L556.8,209.7L556.9,210.7L557.6,211.2L559.6,210.8L562.4,211.2L566.8,211.6L569.7,211.2L575.8,212.3L577.6,212.9L581.2,214.8L582.8,216.1L586.4,219.6L589.4,221.0L592.0,221.3L593.0,221.1L593.8,221.4L594.6,221.9L595.3,223.5L594.8,225.1L593.4,226.4L592.5,227.3L588.8,227.4L583.5,227.9L578.4,229.3L575.9,230.4L574.7,231.1L572.0,231.8L571.9,231.2L571.9,230.5L571.2,229.1L570.6,230.3L569.6,231.3L567.9,232.0L561.7,232.1L559.2,231.1L556.7,230.3L547.4,229.6L545.1,229.6L538.8,230.4L532.6,230.8L529.9,231.3L527.4,232.0L522.3,232.0L516.4,232.8L510.4,233.0L514.2,227.2L522.3,221.8L523.8,220.6L524.9,219.0L525.2,217.9L524.8,216.9L522.9,215.2L522.5,213.9L521.9,213.1L519.1,212.3L516.3,211.9L513.3,211.9L507.1,211.3L503.7,211.2L500.9,210.1L496.2,205.8L494.0,204.7L492.9,203.7L492.0,202.7L490.9,196.5L490.0,193.5L488.5,190.9L486.4,188.9L484.1,188.2L475.5,189.9L473.4,189.7L471.5,189.1L458.3,185.1L452.9,182.9L450.7,181.8L448.8,180.2L446.9,177.6L444.7,175.3L444.7,176.3L444.4,176.9L433.4,177.2L431.7,176.6L430.6,176.0L429.7,175.1L429.1,173.2L428.1,171.6L427.7,173.3L427.2,174.8L425.8,175.7L424.1,175.9L422.0,173.8L413.1,173.4L412.4,173.0L409.5,171.1L406.9,168.6L409.4,167.7L414.5,166.6L415.6,165.8L416.3,164.8L415.9,163.4L414.8,162.3L413.7,161.7L412.6,161.3L411.1,161.1L391.3,160.9L390.2,161.6L388.4,163.3L384.9,165.3L382.5,167.5L381.6,168.6L380.6,169.4L378.1,170.7L376.1,172.8L373.5,173.7L372.1,173.2L370.8,173.2L369.8,173.7L368.7,173.9L363.7,174.2L362.9,174.7L362.2,176.2L361.4,179.0L360.6,179.9L358.1,180.3L355.7,181.1L350.7,183.9L349.4,184.3L349.7,182.3L349.4,180.3L348.1,180.2L346.4,180.5L345.2,181.1L342.7,182.5L341.5,182.9L340.3,182.2L340.6,181.2L348.7,177.7L349.6,177.5L351.1,177.7L352.5,177.6L353.6,176.6L352.3,171.9L352.8,168.8L354.6,166.3L358.5,162.6L360.3,161.4L379.0,153.7L380.9,153.3L393.0,151.7L394.9,151.2L400.5,148.9L406.4,147.9ZM511.5,179.7L510.6,180.5L509.5,179.4L508.8,179.3L507.8,178.8L506.0,177.6L505.6,176.3L507.1,176.2L509.0,176.4L512.4,177.1L512.0,178.6ZM503.1,171.2L502.5,171.6L501.3,170.7L499.4,170.3L498.3,168.8L497.2,168.2L497.2,167.7L498.9,167.3L500.1,167.5L501.4,168.6L502.2,170.7ZM488.7,164.3L491.9,164.9L493.1,164.6L494.2,164.5L495.3,164.7L496.9,166.8L495.5,167.1L494.4,167.1L493.6,166.7L490.7,166.6L488.7,166.0L487.7,165.4L487.2,164.8ZM506.6,175.2L505.7,175.3L503.4,174.3L502.6,173.4L503.5,172.2L503.6,170.8L504.0,170.8L504.3,172.3L506.2,173.0L506.3,173.4L507.4,174.7ZM395.5,189.4L393.2,190.8L388.5,192.7L386.0,192.8L383.4,192.0L381.7,190.5L380.7,188.9L380.8,188.2L382.4,189.4L383.8,190.0L384.9,189.6L385.7,188.9L383.1,183.9L383.2,182.7L385.3,180.0L390.8,180.8L391.8,181.3L392.6,183.1L393.8,184.5L395.3,188.2ZM471.6,161.5L471.7,162.1L467.5,160.3L465.7,158.3L465.1,157.9L466.2,157.8L470.9,161.0Z" fill="#4ECDC4" stroke="#2C3E50" stroke-width="1"/></g><circle cx="400.0" cy="150.0" r="4" fill="#E74C3C" stroke="#fff" stroke-width="2"/><text x="400.0" y="140.0" text-anchor="middle" font-family="sans-serif" font-weight="700" font-size="10" fill="#2D3436">Havana</text></svg>