<svg viewBox="0 0 800 300" xmlns="http://www.w3.org/2000/svg"><defs><clipPath id="v"><rect width="800" height="300"/></clipPath></defs><rect width="800" height="300" fill="#DCEEF8"/><g clip-path="url(#v)"><path d="M1120,-515L1121,-511L1120,-501L1119,-418L960,-421L962,-284L916,-280L904,-253L914,-177L723,-177L713,-160L715,-182L716,-182L825,-186L831,-205L851,-228L867,-301L934,-359L957,-426L972,-430L988,-473L1029,-478L1047,-471L1069,-471L1084,-484L1114,-485L1113,-515Z" fill="#E0E0E0" stroke="#fff" stroke-width=".4"/><path d="M730,217L710,178L686,160L707,151L730,115L742,89L759,73L783,77L806,66L834,66L857,81L889,94L918,131L950,166L953,197L962,225L980,239L984,259L982,274L975,277L949,273L945,279L935,280L900,268L876,267L787,265L773,271L757,269L732,277L724,239L768,240L780,233L788,233L806,221L827,232L848,233L869,221L859,207L843,215L828,215L809,203L794,204L783,215Z" fill="#E0E0E0" stroke="#fff" stroke-width=".4"/><path d="M982,274L984,259L980,239L962,225L953,197L950,166L967,157L975,127L990,126L1024,140L1052,130L1070,133L1078,122L1272,121L1283,86L1275,80L1251,-141L1228,-369L1302,-369L1466,-254L1630,-140L1641,-115L1671,-101L1694,-92L1694,-60L1748,-65L1748,53L1722,87L1718,118L1675,126L1608,130L1590,148L1559,150L1528,150L1516,141L1489,148L1444,169L1435,184L1397,207L1390,220L1370,230L1347,223L1333,235L1326,269L1288,310L1289,327L1276,348L1279,377L1259,384L1247,390L1240,369L1226,375L1218,374L1209,388L1171,388L1158,380L1151,385L1137,371L1139,356L1133,350L1123,355L1125,339L1135,326L1115,306L1109,292L1098,281L1088,280L1077,287L1061,293L1048,304L1027,300L1014,287L1005,286L993,292L985,292Z" fill="#E0E0E0" stroke="#fff" stroke-width=".4"/><path d="M713,-160L723,-177L914,-177L904,-253L916,-280L962,-284L960,-421L1119,-418L1120,-501L1212,-435L1302,-369L1228,-369L1251,-141L1275,80L1283,86L1272,121L1078,122L1070,133L1052,130L1024,140L990,126L975,127L967,157L950,166L918,131L889,94L857,81L834,66L806,66L783,77L759,73L742,89L738,62L751,37L757,-11L752,-62L746,-87L751,-113L738,-138Z" fill="#E0E0E0" stroke="#fff" stroke-width=".4"/><path d="M876,267L900,268L935,280L945,279L949,273L975,277L982,274L985,292L993,292L1005,286L1014,287L1027,300L1048,304L1061,293L1077,287L1088,280L1098,281L1109,292L1115,306L1135,326L1125,339L1123,355L1133,350L1139,356L1137,371L1151,385L1142,389L1138,405L1149,426L1161,465L1143,471L1138,478L1142,487L1139,509L1131,509L1118,508L1108,527L1094,527L1085,517L1088,497L1068,467L1055,472L1045,474L1031,476L1032,458L1024,445L1026,431L1015,410L1001,393L963,393L951,402L938,403L930,414L924,427L898,449L877,420L858,401L846,394L834,385L828,363L821,352L807,344L828,320L843,321L856,312L866,312L874,306L870,289L875,284Z" fill="#E0E0E0" stroke="#fff" stroke-width=".4"/><path d="M732,277L757,269L773,271L787,265L876,267L875,284L870,289L874,306L866,312L856,312L843,321L828,320L807,344L781,323L760,320L749,306L749,298L735,288Z" fill="#E0E0E0" stroke="#fff" stroke-width=".4"/><path d="M1131,509L1129,523L1134,547L1124,568L1138,582L1153,585L1174,606L1175,625L1171,631L1167,671L1154,671L1104,648L1060,611L1019,584L986,553L997,537L1000,523L1022,496L1045,474L1055,472L1068,467L1088,497L1085,517L1094,527L1108,527L1118,508Z" fill="#E0E0E0" stroke="#fff" stroke-width=".4"/><path d="M898,449L924,427L930,414L938,403L951,402L963,393L1001,393L1015,410L1026,431L1024,445L1032,458L1031,476L1045,474L1022,496L1000,523L997,537L986,553L973,549L938,530L913,503L904,485Z" fill="#E0E0E0" stroke="#fff" stroke-width=".4"/><path d="M730,217L783,215L794,204L809,203L828,215L843,215L859,207L869,221L848,233L827,232L806,221L788,233L780,233L768,240L724,239Z" fill="#E0E0E0" stroke="#fff" stroke-width=".4"/><path d="M1436,-943L1454,-905L1457,-869L1474,-808L1487,-795L1478,-773L1414,-763L1392,-742L1364,-737L1362,-695L1305,-673L1287,-645L1247,-630L1199,-621L1120,-580L1120,-515L1113,-515L1114,-485L1084,-484L1069,-471L1047,-471L1029,-478L988,-473L972,-430L957,-426L934,-359L867,-301L851,-228L831,-205L825,-186L716,-182L715,-182L717,-206L736,-220L752,-248L749,-266L765,-303L792,-337L809,-345L822,-376L823,-405L840,-438L872,-458L903,-514L904,-515L929,-536L974,-542L1012,-580L1036,-594L1077,-641L1065,-711L1083,-760L1090,-790L1121,-829L1170,-856L1206,-880L1238,-941L1253,-978L1289,-978L1318,-952L1364,-956L1415,-943Z" fill="#E0E0E0" stroke="#fff" stroke-width=".4"/></g><g clip-path="url(#v)"><path d="M319.4,48.2L314.7,49.2L312.6,48.8L312.1,44.7L311.1,42.1L311.2,40.8L322.2,35.6L325.9,36.5L328.7,40.7L326.8,43.0ZM403.1,146.1L400.2,150.7L393.9,150.3L390.6,148.4L386.7,142.7L386.7,138.1L388.1,134.3L387.9,130.9L388.5,130.0L390.4,130.5L390.7,132.8L396.7,138.4L398.8,139.5ZM333.1,54.8L329.2,55.9L326.8,55.8L323.1,54.0L324.3,52.0L328.2,49.9L330.8,49.5L332.9,53.3ZM428.8,84.1L432.8,85.1L434.2,84.7L436.9,84.9L439.7,87.5L440.2,90.4L438.8,93.9L433.5,96.8L430.4,96.5L426.7,93.9L428.8,88.6ZM361.2,153.7L357.5,155.7L354.9,154.8L352.3,152.8L351.1,149.9L352.1,147.5L357.2,144.6L360.2,145.5L361.9,150.0ZM372.0,64.6L374.0,66.1L374.7,67.2L371.7,67.8L364.4,65.8L362.4,67.0L360.5,71.2L356.8,64.9L357.2,62.5L357.9,61.8L363.1,63.5ZM430.2,62.8L428.7,65.4L426.7,61.5L425.7,60.7L425.2,55.2L428.0,53.5L429.4,53.4L429.4,59.1ZM415.9,139.6L414.5,139.8L412.6,137.5L412.9,134.4L412.8,133.6L414.5,130.2L418.0,130.5L419.0,133.0L419.0,138.1Z" fill="#4ECDC4" stroke="#2C3E50" stroke-width="1"/></g><circle cx="400.0" cy="150.0" r="4" fill="#E74C3C" stroke="#fff" stroke-width="2"/><text x="400.0" y="140.0" text-anchor="middle" font-family="sans-serif" font-weight="700" font-size="10" fill="#2D3436">Praia</text></svg>