<svg viewBox="0 0 800 300" xmlns="http://www.w3.org/2000/svg"><defs><clipPath id="v"><rect width="800" height="300"/></clipPath></defs><rect width="800" height="300" fill="#DCEEF8"/><g clip-path="url(#v)"><path d="M-1595,1777L-1613,1804L-1623,1827L-1634,1838L-1649,1840L-1653,1832L-1660,1830L-1669,1839L-1682,1832L-1674,1820L-1672,1806L-1666,1793L-1678,1775L-1681,1754L-1665,1728L-1655,1731L-1632,1739L-1600,1764ZM151,179L165,191L209,199L194,231L190,263L181,271L168,266L169,278L147,303L146,322L161,316L171,335L170,347L179,363L168,376L176,409L192,414L189,433L161,456L102,445L58,458L54,483L19,488L-15,470L-26,479L-81,460L-93,444L-77,419L-72,334L-103,288L-125,265L-171,248L-174,215L-135,205L-85,217L-94,164L-66,184L5,148L14,109L40,99L45,116L59,117L73,136L94,158L109,154L136,176L142,180ZM228,477L248,461L253,496L243,527L229,519L222,492Z" fill="#E0E0E0" stroke="#fff" stroke-width=".4"/><path d="M297,-308L311,-342L336,-383L346,-456L326,-488L325,-575L344,-638L374,-637L385,-665L374,-689L420,-791L451,-876L471,-933L500,-932L508,-978L564,-964L569,-1019L588,-1023L628,-982L675,-926L676,-806L686,-777L634,-756L605,-706L609,-663L562,-607L503,-549L481,-459L503,-415L532,-381L504,-314L472,-300L461,-205L444,-154L407,-159L390,-116L355,-114L345,-165L320,-227Z" fill="#E0E0E0" stroke="#fff" stroke-width=".4"/><path d="M815,-157L847,-143L851,-130L867,-137L897,-124L900,-99L893,-85L912,-51L924,-41L922,-32L943,-23L951,-10L940,1L915,-0L910,4L917,21L924,53L898,56L889,66L887,91L875,86L848,89L840,77L828,86L817,79L793,78L760,66L729,62L706,63L689,76L675,78L674,57L665,34L683,24L683,4L675,-16L673,-38L703,-38L735,-57L742,-87L767,-103L764,-127L783,-136Z" fill="#E0E0E0" stroke="#fff" stroke-width=".4"/><path d="M924,53L935,55L943,44L952,46L983,41L1003,69L995,79L998,94L1022,96L1033,117L1032,126L1070,143L1093,136L1112,158L1130,157L1174,172L1175,186L1162,210L1169,235L1164,250L1135,254L1119,266L1118,286L1094,290L1074,304L1046,306L1020,322L1021,346L1017,344L1013,336L1003,334L982,325L974,336L970,331L923,320L921,303L893,309L882,333L858,365L844,358L830,364L817,357L824,352L830,337L838,323L836,315L842,312L845,318L863,319L871,316L865,311L867,305L857,294L852,275L841,268L844,253L830,240L818,239L795,225L775,229L768,236L755,236L748,246L725,251L715,258L701,247L682,246L663,241L650,251L648,239L631,227L637,208L645,196L652,199L644,178L672,139L687,134L690,120L675,78L689,76L706,63L729,62L760,66L793,78L817,79L828,86L840,77L848,89L875,86L887,91L889,66L898,56Z" fill="#E0E0E0" stroke="#fff" stroke-width=".4"/><path d="M673,-38L675,-16L683,4L683,24L665,34L674,57L675,78L690,120L687,134L672,139L644,178L652,199L645,196L617,178L595,185L581,180L563,190L548,174L535,180L534,177L520,154L497,151L494,137L474,131L469,144L453,134L455,121L432,117L418,101L405,70L408,53L400,27L389,9L398,-4L391,-30L411,-45L458,-69L496,-87L527,-78L529,-65L558,-65L595,-59L651,-60L666,-54Z" fill="#E0E0E0" stroke="#fff" stroke-width=".4"/><path d="M477,240L475,259L458,259L464,268L454,297L448,305L421,306L406,316L381,312L338,301L331,285L301,293L298,302L280,295L264,294L251,286L255,275L254,267L263,265L278,277L283,265L309,267L331,259L345,261L355,270L358,262L353,233L364,227L375,206L397,221L414,202L425,198L448,212L463,210L476,219L474,225Z" fill="#E0E0E0" stroke="#fff" stroke-width=".4"/><path d="M631,227L648,239L650,251L632,261L617,291L599,321L575,329L556,327L533,338L522,345L497,336L474,318L464,312L459,297L454,297L464,268L458,259L475,259L477,240L492,252L504,257L529,251L531,242L543,241L558,234L561,237L575,231L583,220L592,217L625,231Z" fill="#E0E0E0" stroke="#fff" stroke-width=".4"/><path d="M768,236L775,229L795,225L818,239L830,240L844,253L841,268L852,275L857,294L867,305L865,311L871,316L863,319L845,318L842,312L836,315L838,323L830,337L824,352L817,357L811,337L815,318L814,299L796,272L787,254L777,240Z" fill="#E0E0E0" stroke="#fff" stroke-width=".4"/><path d="M817,357L830,364L844,358L858,365L859,376L844,385L835,381L827,432L809,428L787,412L751,422L736,433L692,431L669,424L657,427L648,410L643,403L650,395L642,390L633,400L615,387L613,370L595,360L591,346L575,329L599,321L617,291L632,261L650,251L663,241L682,246L701,247L715,258L725,251L748,246L755,236L768,236L777,240L787,254L796,272L814,299L815,318L811,337Z" fill="#E0E0E0" stroke="#fff" stroke-width=".4"/><path d="M764,-127L767,-103L742,-87L735,-57L703,-38L673,-38L666,-54L651,-60L648,-73L651,-87L638,-95L606,-105L600,-150L635,-166L685,-163L715,-168L719,-157L735,-153Z" fill="#E0E0E0" stroke="#fff" stroke-width=".4"/><path d="M788,-229L803,-216L805,-189L815,-157L783,-136L764,-127L735,-153L719,-157L715,-168L685,-163L635,-166L600,-150L601,-191L616,-226L644,-245L668,-203L693,-204L698,-247L724,-257L737,-250L763,-229Z" fill="#E0E0E0" stroke="#fff" stroke-width=".4"/><path d="M391,-30L398,-4L389,9L400,27L408,53L405,70L418,101L404,106L396,101L389,110L367,119L356,131L334,141L339,155L342,175L358,186L375,206L364,227L353,233L358,262L355,270L345,261L331,259L309,267L283,265L278,277L263,265L254,267L222,253L215,263L190,263L194,231L209,199L165,191L151,179L153,158L147,148L150,116L145,65L163,65L171,47L178,1L173,-16L179,-27L204,-30L210,-18L230,-44L223,-63L222,-93L245,-86L264,-94L264,-73L295,-61L295,-43L325,-53L342,-67L376,-46Z" fill="#E0E0E0" stroke="#fff" stroke-width=".4"/><path d="M648,410L657,427L669,424L692,431L736,433L751,422L787,412L809,428L827,432L811,449L800,479L810,502L784,497L753,509L753,529L725,533L704,519L680,530L657,529L655,502L640,489L645,484L642,479L647,466L658,453L644,435L641,419Z" fill="#E0E0E0" stroke="#fff" stroke-width=".4"/><path d="M1316,692L1302,698L1291,689L1256,684L1243,689L1209,695L1192,695L1158,709L1133,709L1117,702L1084,712L1074,705L1072,726L1064,734L1056,742L1045,725L1056,711L1038,715L1012,706L992,728L946,732L921,712L889,710L882,726L861,730L832,710L799,711L781,673L759,652L774,622L754,603L788,566L834,564L847,534L905,539L941,513L976,502L1026,501L1079,529L1122,545L1157,539L1183,542L1219,521L1251,519L1280,539L1285,553L1282,572L1305,582L1317,594L1296,605L1306,649L1300,661ZM753,509L784,497L810,502L813,518L840,531L834,540L798,543L785,555L760,576L751,558L751,550L758,545L768,520Z" fill="#E0E0E0" stroke="#fff" stroke-width=".4"/><path d="M599,549L598,559L589,565L587,578L573,597L568,594L567,586L550,572L548,554L550,526L554,514L549,507L547,494L560,474L562,482L570,478L577,489L584,494L586,508L582,522L586,539Z" fill="#E0E0E0" stroke="#fff" stroke-width=".4"/><path d="M464,312L474,318L497,336L522,345L533,338L540,355L550,367L538,383L524,374L504,375L478,367L464,368L457,377L446,367L440,385L455,405L461,418L475,434L487,443L498,460L525,476L521,483L493,468L475,453L448,440L423,410L429,406L415,389L414,374L395,367L386,386L377,372L377,357L378,356L399,357L405,350L415,357L427,358L427,346L438,342L440,324Z" fill="#E0E0E0" stroke="#fff" stroke-width=".4"/><path d="M254,267L255,275L251,286L264,294L280,295L277,313L264,321L242,315L235,333L221,334L215,327L198,342L184,344L171,335L161,316L146,322L147,303L169,278L168,266L181,271L190,263L215,263L222,253Z" fill="#E0E0E0" stroke="#fff" stroke-width=".4"/><path d="M147,148L153,158L151,179L142,180L136,176L139,150Z" fill="#E0E0E0" stroke="#fff" stroke-width=".4"/><path d="M150,116L147,148L139,150L136,176L109,154L94,158L73,136L59,117L45,116L40,99L64,90L87,93L114,83L134,104Z" fill="#E0E0E0" stroke="#fff" stroke-width=".4"/><path d="M173,-16L178,1L171,47L163,65L145,65L150,116L134,104L114,83L87,93L64,90L80,76L106,4L148,-18Z" fill="#E0E0E0" stroke="#fff" stroke-width=".4"/><path d="M-261,694L-263,682L-252,668L-248,657L-258,646L-250,620L-262,597L-249,594L-248,575L-243,569L-243,538L-229,527L-237,507L-255,506L-260,511L-278,511L-285,491L-298,497L-308,507L-307,478L-319,460L-277,430L-240,438L-199,438L-167,445L-142,443L-93,444L-81,460L-26,479L-15,470L19,488L54,483L56,507L28,534L-11,542L-14,556L-32,578L-44,609L-32,632L-50,649L-56,674L-79,681L-101,710L-139,711L-168,710L-187,724L-198,738L-213,735L-224,722L-233,700Z" fill="#E0E0E0" stroke="#fff" stroke-width=".4"/><path d="M280,295L298,302L301,293L331,285L338,301L381,312L378,334L385,352L361,346L337,361L338,382L334,394L344,416L373,437L388,471L422,504L445,504L453,513L444,521L471,536L493,548L519,568L522,576L517,590L500,571L474,565L461,590L483,605L479,625L467,628L450,661L438,664L438,652L444,631L451,623L439,600L430,581L417,576L408,558L389,551L376,535L353,533L330,514L302,488L282,464L272,423L257,418L233,404L219,410L201,430L189,433L192,414L176,409L168,376L179,363L170,347L171,335L184,344L198,342L215,327L221,334L235,333L242,315L264,321L277,313ZM410,655L433,651L422,681L427,693L420,712L397,698L382,694L340,675L344,655L379,659ZM227,547L242,534L260,563L256,615L243,612L230,625L219,615L218,567L211,545Z" fill="#E0E0E0" stroke="#fff" stroke-width=".4"/><path d="M264,-94L245,-86L222,-93L209,-122L209,-177L214,-192L222,-209L249,-212L259,-228L284,-243L283,-215L274,-197L277,-181L294,-173L286,-152L277,-158L256,-120ZM338,-154L347,-127L329,-84L298,-114L293,-136Z" fill="#E0E0E0" stroke="#fff" stroke-width=".4"/><path d="M-223,-36L-246,-46L-264,-46L-258,-73L-264,-102L-239,-104L-207,-71ZM-129,-12L-129,-12L-125,-42L-145,-74L-145,-74L-182,-84L-189,-98L-178,-121L-188,-136L-204,-111L-206,-163L-221,-191L-210,-248L-187,-295L-163,-290L-126,-295L-159,-233L-128,-241L-95,-241L-103,-195L-130,-146L-99,-143L-96,-137L-69,-75L-49,-67L-30,-8L-22,12L15,21L11,53L-4,67L8,92L-19,118L-59,117L-111,130L-125,121L-145,143L-173,138L-194,156L-210,146L-166,96L-139,86L-139,86L-186,78L-195,58L-163,43L-180,16L-174,-17Z" fill="#E0E0E0" stroke="#fff" stroke-width=".4"/><path d="M381,312L406,316L421,306L448,305L454,297L459,297L464,312L440,324L438,342L427,346L427,358L415,357L405,350L399,357L378,356L385,352L378,334Z" fill="#E0E0E0" stroke="#fff" stroke-width=".4"/><path d="M645,196L637,208L631,227L625,231L592,217L583,220L575,231L561,237L558,234L543,241L531,242L529,251L504,257L492,252L477,240L474,225L476,219L481,209L494,209L504,205L505,200L511,198L513,188L520,186L525,177L534,177L535,180L548,174L563,190L581,180L595,185L617,178Z" fill="#E0E0E0" stroke="#fff" stroke-width=".4"/><path d="M525,476L498,460L487,443L475,434L461,418L455,405L440,385L446,367L457,377L464,368L478,367L504,375L524,374L538,383L549,383L542,402L556,418L552,438L545,440L539,443L529,453Z" fill="#E0E0E0" stroke="#fff" stroke-width=".4"/><path d="M640,489L655,502L657,529L652,531L647,538L630,537L619,545L599,549L586,539L582,522L586,508L590,509L591,500L609,494L616,492L626,490Z" fill="#E0E0E0" stroke="#fff" stroke-width=".4"/><path d="M533,338L556,327L575,329L591,346L595,360L613,370L615,387L633,400L642,390L650,395L643,403L648,410L641,419L644,435L658,453L647,466L642,479L645,484L640,489L626,490L616,492L615,489L618,484L622,474L618,475L612,467L607,465L603,459L597,456L593,450L587,452L583,466L576,469L578,466L567,457L557,453L553,447L545,440L552,438L556,418L542,402L549,383L538,383L550,367L540,355Z" fill="#E0E0E0" stroke="#fff" stroke-width=".4"/><path d="M570,478L562,482L560,474L547,494L549,507L543,504L534,491L521,483L525,476L529,453L539,443L545,440L553,447L557,453L567,457L578,466L576,469Z" fill="#E0E0E0" stroke="#fff" stroke-width=".4"/><path d="M586,508L584,494L577,489L570,478L576,469L583,466L587,452L593,450L597,456L603,459L607,465L612,467L618,475L622,474L618,484L615,489L616,492L609,494L591,500L590,509Z" fill="#E0E0E0" stroke="#fff" stroke-width=".4"/></g><g clip-path="url(#v)"><path d="M533.0,176.6L532.2,176.7L530.5,177.4L528.2,177.6L525.8,177.6L523.9,178.8L522.2,180.8L520.4,182.2L519.4,183.4L518.8,184.7L512.6,188.4L511.8,189.9L511.1,192.0L510.8,194.8L510.4,197.2L509.4,198.6L506.0,199.7L505.1,200.3L504.6,201.6L502.6,203.6L500.5,205.4L496.4,207.5L492.2,208.2L486.5,207.5L483.3,206.7L481.7,207.5L479.5,210.3L477.2,215.1L476.2,218.7L475.5,217.6L474.0,213.8L472.5,213.4L470.5,213.0L468.9,212.5L465.6,210.3L463.8,209.6L461.9,209.5L459.9,210.7L458.5,212.2L454.0,212.2L449.2,211.5L442.1,206.5L440.4,206.4L438.4,206.7L435.4,205.5L429.4,202.2L426.5,201.5L424.8,201.9L423.3,202.6L422.1,202.8L421.4,201.6L419.3,200.4L417.0,200.2L416.3,201.0L415.7,208.2L414.9,210.7L411.9,210.6L410.8,211.8L408.4,215.3L407.8,218.6L403.7,218.0L401.8,217.4L400.0,217.9L398.1,219.7L392.7,219.5L388.5,218.5L386.7,214.4L384.7,212.7L382.3,211.3L381.4,211.0L380.0,208.7L377.5,206.0L373.4,202.1L370.1,202.3L368.9,201.3L368.4,199.9L367.1,197.5L365.6,195.7L363.7,195.1L361.1,192.9L357.5,188.3L354.3,185.0L351.2,185.1L349.3,183.4L347.2,181.1L345.7,178.9L343.4,173.6L341.8,170.6L340.5,168.8L338.9,167.2L338.4,166.0L340.2,163.2L340.9,161.7L341.6,160.6L342.1,159.5L342.1,158.7L340.5,155.8L338.3,153.8L335.0,151.8L333.0,149.1L332.1,146.8L331.9,145.5L330.5,143.7L329.4,141.1L329.4,139.6L329.6,139.1L330.7,139.1L331.9,140.1L333.6,142.3L335.0,145.2L335.9,144.1L337.4,140.9L340.3,137.3L343.2,135.2L345.8,135.0L348.0,134.5L349.7,133.4L352.8,133.8L355.1,134.6L355.8,134.1L356.8,132.2L357.3,130.6L362.3,129.7L364.0,126.5L364.9,126.6L366.1,126.1L367.1,124.8L368.2,124.3L368.9,125.0L370.0,125.3L371.1,124.6L372.7,120.9L373.6,120.4L378.0,119.9L383.9,117.7L387.0,115.8L389.9,114.8L393.1,112.9L398.2,111.2L398.4,110.4L396.1,108.6L395.2,107.4L394.7,106.2L395.6,104.9L396.7,104.5L398.1,105.0L402.3,105.8L403.5,106.6L403.9,108.5L405.0,110.2L405.9,110.4L405.6,113.2L406.9,114.3L408.8,115.1L410.1,115.0L411.1,113.8L411.4,113.1L414.0,112.9L416.7,111.7L416.9,109.7L416.8,106.2L417.0,105.6L421.0,106.7L425.0,108.2L425.6,111.9L426.7,113.6L428.0,115.3L429.2,116.1L431.2,116.1L436.7,118.3L439.3,118.7L442.0,120.2L444.2,121.8L445.9,122.0L446.7,123.8L447.6,124.8L449.4,124.0L455.9,122.8L458.3,124.4L459.8,126.1L460.0,126.6L459.3,128.2L458.8,129.4L458.2,130.1L455.9,130.9L454.7,132.3L453.7,133.7L454.4,135.2L456.2,136.2L457.5,136.4L458.0,137.5L462.1,142.0L465.5,148.0L466.7,149.0L468.0,149.1L469.3,148.3L470.9,146.4L472.9,145.0L474.5,144.2L477.3,142.6L477.4,141.5L475.0,137.5L473.6,134.2L473.9,133.6L477.0,134.1L482.2,135.9L490.1,141.8L491.5,141.8L494.4,141.3L497.4,140.4L498.8,139.3L499.4,139.7L499.8,142.9L499.0,144.6L495.4,146.4L495.6,147.2L496.5,148.3L498.2,149.1L500.1,151.1L501.5,153.5L502.7,154.5L504.0,155.1L507.3,153.8L508.3,152.8L508.6,152.1L509.3,152.2L510.5,153.4L510.8,154.1L513.9,155.4L515.8,157.1L517.0,157.8L518.3,157.1L523.4,158.4L524.8,159.4L525.2,161.2L524.9,162.3L525.8,165.1L532.2,171.8L532.9,175.2Z" fill="#4ECDC4" stroke="#2C3E50" stroke-width="1"/></g><circle cx="400.0" cy="150.0" r="4" fill="#E74C3C" stroke="#fff" stroke-width="2"/><text x="400.0" y="140.0" text-anchor="middle" font-family="sans-serif" font-weight="700" font-size="10" fill="#2D3436">Prague</text></svg>