<svg viewBox="0 0 800 300" xmlns="http://www.w3.org/2000/svg"><defs><clipPath id="v"><rect width="800" height="300"/></clipPath></defs><rect width="800" height="300" fill="#DCEEF8"/><g clip-path="url(#v)"><path d="M184,474L184,475L184,477L184,493L152,493L152,520L143,521L141,527L143,542L104,542L102,545L103,541L103,541L125,540L126,536L130,532L133,517L147,505L151,492L154,491L158,482L166,481L169,483L174,483L177,480L183,480L183,474Z" fill="#E0E0E0" stroke="#fff" stroke-width=".4"/><path d="M1123,201L1115,211L1107,212L1107,227L1101,234L1082,229L1075,254L1070,257L1051,263L1059,287L1053,290L1053,298L1047,296L1042,291L1028,289L1012,289L1008,291L994,285L989,288L987,296L971,291L965,293L963,299L957,301L944,310L940,320L936,320L933,314L921,313L919,302L914,302L915,289L903,279L887,280L875,282L866,270L858,265L843,255L841,254L816,262L816,311L811,312L804,302L797,298L786,301L782,305L782,302L784,296L782,292L771,287L766,275L761,272L761,267L770,268L770,258L779,256L787,258L789,245L787,236L778,236L769,233L758,239L749,242L744,240L745,233L739,223L731,223L723,213L729,202L726,199L734,182L744,191L745,180L765,163L780,163L802,174L813,180L824,173L839,173L852,181L855,176L868,177L871,170L855,159L864,151L863,147L872,143L865,131L869,126L906,120L911,116L935,109L944,102L962,106L965,124L975,120L987,125L987,134L996,133L1020,118L1017,123L1029,136L1051,176L1056,168L1070,177L1084,173L1089,176L1094,185L1101,188L1105,194L1118,192Z" fill="#E0E0E0" stroke="#fff" stroke-width=".4"/><path d="M816,311L816,262L841,254L843,255L858,265L866,270L875,282L887,280L903,279L915,289L914,302L919,302L921,313L933,314L936,320L940,320L944,310L957,301L963,299L965,300L957,309L964,313L971,310L983,317L970,326L963,325L959,325L958,322L960,316L947,319L943,327L939,334L931,333L928,339L935,342L937,351L932,364L925,361L919,361L919,354L906,348L896,342L890,336L879,327L874,314L870,312L860,312L856,310L855,299L842,292L834,300L825,305L827,311Z" fill="#E0E0E0" stroke="#fff" stroke-width=".4"/><path d="M1186,-670L1207,-684L1226,-653L1248,-597L1246,-549L1224,-543L1197,-558L1181,-578L1173,-617L1160,-628ZM1274,-570L1299,-541L1296,-521L1241,-503L1259,-567L1267,-573ZM1626,-425L1652,-423L1687,-402L1679,-373L1643,-374L1627,-366L1608,-390L1613,-417ZM1718,-393L1742,-383L1731,-368L1715,-372L1697,-387L1699,-399ZM1636,-322L1645,-335L1657,-338L1671,-325L1672,-316L1658,-316L1638,-320ZM707,-643L726,-654L741,-655L743,-639L749,-653L758,-663L773,-650L769,-641L756,-633L747,-628L745,-619L734,-609L723,-623L729,-641ZM491,120L473,121L461,119L463,111L477,106L487,109L491,111L490,116ZM792,-335L815,-366L813,-383L835,-404L867,-429L899,-437L916,-453L935,-458L942,-442L935,-429L901,-409L871,-390L840,-355L826,-320L811,-288L813,-262L831,-237L825,-235L794,-239L791,-252L773,-260L772,-277L782,-284L782,-302L801,-330ZM1666,131L1669,146L1669,162L1673,178L1683,205L1668,200L1662,221L1672,236L1672,246L1664,237L1658,248L1656,236L1657,222L1656,207L1658,195L1659,175L1653,159L1654,137L1663,130L1659,122L1663,120ZM-1490,-188L-1490,-188L-1466,-167L-1441,-142L-1442,-126L-1435,-120L-1437,-138L-1411,-134L-1392,-111L-1401,-101L-1417,-98L-1418,-76L-1422,-71L-1431,-72L-1438,-80L-1451,-86L-1453,-97L-1463,-100L-1474,-97L-1480,-106L-1478,-115L-1489,-109L-1485,-98L-1490,-88L-1490,-88L-1490,-188ZM2028,-88L2028,-88L2016,-78L2003,-79L2012,-67L2018,-49L2022,-43L2023,-34L2021,-29L2002,-33L1975,-18L1966,-15L1951,-1L1937,11L1934,20L1920,7L1894,22L1890,15L1880,23L1867,20L1864,33L1852,51L1853,59L1864,63L1863,89L1854,90L1849,104L1853,111L1836,120L1833,139L1818,143L1815,159L1801,174L1798,163L1794,140L1788,102L1793,78L1801,67L1802,59L1817,55L1834,31L1851,11L1869,-5L1876,-34L1865,-32L1859,-15L1834,7L1826,-18L1801,-11L1776,23L1784,34L1762,39L1747,41L1748,27L1733,25L1721,34L1691,31L1659,36L1627,72L1590,114L1605,116L1610,126L1619,130L1626,122L1636,123L1650,141L1651,155L1643,170L1642,189L1638,213L1623,234L1620,244L1607,260L1593,276L1587,284L1574,291L1568,292L1562,285L1549,295L1547,299L1547,299L1546,297L1546,290L1551,290L1552,274L1550,262L1558,257L1570,260L1576,246L1580,231L1584,225L1589,212L1572,217L1564,222L1549,222L1545,208L1534,198L1517,193L1513,178L1510,168L1506,162L1500,146L1491,140L1477,135L1464,135L1452,138L1444,146L1449,150L1449,159L1444,164L1435,180L1435,187L1421,197L1409,191L1398,192L1393,187L1387,186L1372,196L1360,199L1351,202L1338,200L1329,200L1323,192L1314,185L1304,183L1291,185L1282,188L1268,182L1267,170L1255,166L1246,164L1235,158L1225,174L1229,183L1220,194L1205,190L1196,189L1189,182L1179,182L1170,177L1156,184L1137,197L1127,200L1123,201L1118,192L1105,194L1101,188L1094,185L1089,176L1084,173L1070,177L1056,168L1051,176L1029,136L1017,123L1020,118L996,133L987,134L987,125L975,120L965,124L962,106L944,102L935,109L911,116L906,120L869,126L865,131L872,143L863,147L864,151L855,159L871,170L868,177L855,176L852,181L839,173L824,173L813,180L802,174L780,163L765,163L745,180L744,191L734,182L726,199L729,202L723,213L731,223L739,223L745,233L744,240L749,242L744,251L735,253L725,267L734,280L733,289L744,305L738,310L736,313L732,312L725,304L723,304L716,301L713,296L704,293L698,295L697,292L683,286L669,284L661,282L659,283L647,272L636,267L627,258L635,256L643,244L637,239L652,233L651,230L643,232L643,226L648,222L657,221L659,216L657,208L661,200L661,195L646,190L640,191L634,183L627,186L615,181L615,178L611,171L603,170L603,165L605,162L599,153L589,155L586,154L583,157L580,157L577,146L575,141L577,140L585,140L588,137L586,132L579,129L580,126L576,123L570,112L572,108L571,100L561,95L556,97L555,93L544,89L541,78L540,70L536,65L540,60L537,42L544,31L542,28L554,17L543,8L564,-18L573,-30L577,-41L563,-56L566,-70L558,-87L564,-107L553,-135L562,-154L547,-171L548,-190L556,-193L573,-204L583,-214L599,-197L626,-190L663,-160L670,-148L671,-131L660,-118L644,-112L600,-130L593,-127L609,-109L610,-98L610,-75L623,-68L631,-62L632,-73L626,-83L632,-92L656,-77L664,-83L658,-100L680,-123L689,-122L699,-114L704,-130L696,-145L701,-161L694,-177L721,-168L727,-154L714,-151L714,-137L722,-128L737,-133L739,-150L760,-162L794,-185L801,-183L792,-167L804,-164L811,-173L829,-174L844,-185L855,-169L866,-187L856,-203L861,-212L890,-204L903,-195L939,-164L945,-178L935,-193L935,-198L923,-201L926,-214L921,-237L921,-247L939,-275L945,-304L953,-310L978,-302L980,-284L971,-258L977,-248L980,-228L978,-189L989,-173L985,-155L966,-120L977,-116L981,-125L991,-131L994,-144L1002,-156L997,-171L1001,-188L991,-191L988,-206L996,-235L983,-259L1001,-280L999,-304L1004,-304L1009,-286L1005,-256L1015,-250L1011,-273L1027,-285L1047,-287L1065,-269L1057,-295L1056,-331L1073,-338L1096,-337L1118,-341L1110,-360L1121,-385L1132,-386L1151,-405L1177,-410L1180,-421L1206,-425L1214,-416L1236,-437L1254,-437L1256,-455L1266,-474L1289,-492L1306,-478L1292,-467L1314,-460L1317,-439L1326,-449L1355,-449L1377,-428L1384,-413L1382,-393L1371,-381L1346,-361L1338,-350L1350,-345L1365,-336L1374,-343L1379,-320L1383,-329L1398,-335L1430,-329L1432,-313L1473,-308L1474,-334L1494,-328L1510,-328L1526,-310L1530,-289L1524,-276L1537,-252L1552,-239L1562,-271L1577,-257L1594,-266L1613,-256L1620,-265L1636,-261L1629,-290L1642,-304L1687,-295L1730,-283L1738,-264L1764,-241L1803,-247L1823,-242L1831,-230L1830,-209L1842,-201L1855,-206L1872,-207L1891,-202L1909,-205L1926,-180L1938,-189L1931,-207L1935,-219L1966,-211L1986,-213L2015,-200L2028,-188L2028,-88ZM2028,-241L2017,-239L2016,-249L2028,-261L2028,-241ZM-1490,-261L-1490,-261L-1490,-261L-1489,-263L-1481,-263L-1467,-254L-1468,-250L-1478,-243L-1490,-241L-1490,-241L-1490,-261ZM596,248L598,245L605,248L608,248L610,251L611,252L611,253L616,256L626,255L624,260L613,263L600,271L595,268L597,261L586,257L588,255L597,250Z" fill="#E0E0E0" stroke="#fff" stroke-width=".4"/><path d="M417,-591L421,-610L435,-612L447,-592L480,-553L455,-533L449,-498L441,-489L436,-453L424,-451L403,-478L412,-494L398,-507L379,-549L371,-590L398,-610L403,-590ZM573,-204L556,-193L548,-190L553,-210L540,-221L525,-212L520,-191L511,-179L500,-186L487,-184L477,-199L471,-191L465,-190L463,-173L445,-177L442,-162L433,-162L426,-144L417,-116L401,-83L405,-76L402,-67L392,-67L386,-46L386,-18L392,-8L389,16L381,29L377,40L370,28L351,50L338,54L324,45L321,24L318,-22L327,-35L353,-54L372,-76L390,-109L413,-157L430,-177L456,-211L478,-224L494,-222L509,-247L527,-245L544,-251L575,-230L562,-222ZM537,-612L522,-582L494,-576L465,-585L463,-600L449,-601L439,-627L469,-644L483,-629L493,-647L518,-632ZM511,-499L489,-481L472,-491L478,-503L472,-518L493,-528L496,-510Z" fill="#E0E0E0" stroke="#fff" stroke-width=".4"/><path d="M-188,-780L-155,-828L-121,-824L-109,-855L-74,-864L-35,-860L4,-853L36,-820L65,-788L47,-759L10,-756L-43,-749L-38,-736L-3,-744L26,-720L45,-741L53,-716L42,-678L67,-702L115,-728L144,-715L150,-687L110,-643L104,-629L73,-619L96,-616L84,-576L76,-543L77,-489L88,-460L73,-459L57,-445L75,-423L77,-390L67,-386L80,-354L58,-352L69,-337L66,-325L52,-320L39,-319L51,-297L51,-282L32,-296L27,-287L40,-279L53,-260L56,-236L39,-230L31,-241L19,-259L23,-238L11,-223L37,-222L51,-220L24,-196L-2,-174L-31,-165L-42,-165L-52,-155L-65,-128L-86,-111L-93,-110L-106,-104L-120,-99L-129,-85L-129,-69L-134,-54L-150,-37L-146,-20L-150,-4L-155,16L-169,17L-183,1L-203,1L-212,-10L-219,-31L-236,-57L-241,-72L-242,-92L-256,-114L-252,-132L-259,-141L-249,-171L-234,-181L-230,-193L-228,-214L-239,-204L-245,-200L-254,-196L-266,-205L-266,-225L-262,-240L-253,-241L-233,-233L-250,-252L-259,-262L-269,-258L-277,-266L-266,-295L-272,-308L-280,-331L-291,-369L-304,-384L-304,-400L-330,-423L-351,-426L-377,-425L-401,-422L-412,-435L-429,-461L-403,-475L-384,-478L-425,-489L-447,-508L-446,-527L-409,-551L-373,-576L-370,-595L-396,-616L-387,-639L-354,-682L-339,-689L-343,-718L-320,-737L-290,-748L-260,-749L-250,-727L-224,-766L-200,-739L-187,-733L-166,-711L-189,-749Z" fill="#E0E0E0" stroke="#fff" stroke-width=".4"/><path d="M-236,715L-242,724L-245,731L-248,735L-253,735L-255,733L-257,732L-260,735L-264,733L-261,729L-261,724L-259,720L-263,714L-264,707L-258,699L-255,700L-248,702L-238,711ZM329,197L334,201L348,204L343,214L342,225L339,227L335,226L335,230L328,238L328,244L332,242L336,248L335,252L338,257L335,261L337,272L343,274L342,280L333,287L313,284L299,288L298,296L287,298L276,292L272,295L254,289L250,283L255,275L257,248L247,233L240,225L225,220L224,209L237,206L253,210L250,193L259,199L282,187L285,175L294,172L295,177L299,177L304,184L311,191L316,190L324,196L327,198ZM354,294L361,289L362,300L359,310L355,308L352,299Z" fill="#E0E0E0" stroke="#fff" stroke-width=".4"/><path d="M102,545L104,542L143,542L141,527L143,521L152,520L152,493L184,493L184,477L221,503L206,503L211,549L215,594L217,595L215,602L176,602L174,604L170,604L165,606L158,603L155,603L153,609L150,611L144,604L138,597L131,594L126,591L121,591L116,593L111,592L108,596L107,590L110,585L111,575L110,565L109,560L110,555L107,550Z" fill="#E0E0E0" stroke="#fff" stroke-width=".4"/><path d="M618,417L616,420L613,419L611,426L613,428L611,429L610,432L615,431L615,435L610,453L609,450L604,434L607,430L606,429L609,424L611,415L612,412L612,412L616,412L616,410L619,410L619,415L618,417Z" fill="#E0E0E0" stroke="#fff" stroke-width=".4"/><path d="M619,410L616,410L616,412L612,412L616,403L621,394L621,394L625,395L627,399L621,404Z" fill="#E0E0E0" stroke="#fff" stroke-width=".4"/><path d="M615,431L610,432L611,429L613,428L611,426L613,419L616,420L616,427Z" fill="#E0E0E0" stroke="#fff" stroke-width=".4"/><path d="M362,444L357,424L351,419L351,416L343,409L342,400L349,394L351,384L349,373L351,366L362,361L369,363L368,369L377,364L377,367L373,373L372,378L376,381L375,392L368,398L370,404L375,404L378,410L381,412L381,421L376,424L373,428L366,432L367,437L366,442Z" fill="#E0E0E0" stroke="#fff" stroke-width=".4"/><path d="M184,477L184,475L184,474L184,461L200,452L210,451L218,448L221,442L233,438L233,429L239,428L243,424L256,422L258,417L255,415L252,403L251,395L248,388L257,381L268,379L274,374L283,370L300,368L316,367L321,369L330,364L341,364L345,367L351,366L349,373L351,384L349,394L342,400L343,409L351,416L351,419L357,424L362,444L365,454L365,459L364,468L364,474L363,480L364,486L360,491L366,499L366,504L370,510L374,508L382,513L386,519L353,539L324,560L311,565L300,566L300,559L295,557L289,554L287,549L254,526L221,503Z" fill="#E0E0E0" stroke="#fff" stroke-width=".4"/><path d="M616,420L618,417L629,421L648,409L652,423L650,425L631,431L640,442L637,444L635,448L628,449L626,453L621,457L611,455L610,453L615,435L615,431L616,427Z" fill="#E0E0E0" stroke="#fff" stroke-width=".4"/><path d="M773,511L775,510L775,513L783,512L791,512L797,512L803,505L811,498L817,491L819,495L820,504L815,504L814,511L816,512L812,514L812,519L809,523L809,527L807,530L777,524L773,513Z" fill="#E0E0E0" stroke="#fff" stroke-width=".4"/><path d="M766,506L765,498L768,492L770,491L773,494L773,501L771,507L768,508Z" fill="#E0E0E0" stroke="#fff" stroke-width=".4"/><path d="M738,448L740,453L739,456L742,464L735,464L733,459L724,458L731,447Z" fill="#E0E0E0" stroke="#fff" stroke-width=".4"/><path d="M652,423L648,409L670,397L673,382L673,373L678,370L683,363L687,361L698,362L702,366L707,364L713,378L719,382L720,389L715,393L713,402L720,413L732,420L737,428L735,437L738,437L738,443L744,449L738,448L731,447L724,458L706,457L678,434L664,426Z" fill="#E0E0E0" stroke="#fff" stroke-width=".4"/><path d="M809,527L809,523L812,519L812,514L816,512L814,511L815,504L820,504L825,511L830,515L837,516L843,518L847,524L850,528L853,529L853,532L850,538L848,541L844,544L841,551L836,551L834,553L833,559L834,565L833,567L828,567L822,571L821,576L819,578L813,578L809,580L809,584L804,587L799,586L793,590L788,590L785,583L777,566L806,556L813,535ZM819,495L817,491L820,488L821,489L820,493Z" fill="#E0E0E0" stroke="#fff" stroke-width=".4"/><path d="M1220,467L1221,471L1218,473L1218,480L1211,478L1199,486L1199,492L1194,501L1193,506L1189,515L1181,513L1181,524L1178,527L1180,532L1175,534L1170,518L1167,518L1165,524L1160,519L1163,513L1167,512L1172,503L1166,501L1157,501L1148,500L1147,492L1142,492L1135,487L1131,495L1138,500L1132,504L1130,508L1136,511L1134,518L1138,526L1139,534L1138,538L1131,538L1119,540L1120,548L1114,554L1100,561L1089,573L1082,580L1072,587L1072,591L1067,594L1059,597L1054,598L1051,606L1053,619L1054,627L1049,637L1049,654L1044,654L1040,662L1043,665L1034,668L1031,674L1027,677L1018,668L1013,654L1009,644L1006,639L1001,630L998,617L997,611L988,597L984,577L981,564L981,551L979,542L965,548L958,547L945,534L950,530L947,526L935,517L942,510L963,510L961,501L956,495L955,487L948,482L959,470L970,471L981,459L987,448L996,437L996,428L1004,422L997,416L993,408L990,398L995,393L1009,396L1020,394L1030,384L1040,398L1039,407L1043,413L1043,419L1036,418L1039,430L1048,438L1062,446L1056,451L1052,461L1061,465L1070,471L1083,477L1097,479L1102,484L1110,485L1121,488L1130,488L1131,483L1129,476L1130,471L1136,469L1137,478L1137,480L1146,484L1152,482L1160,483L1168,483L1169,476L1165,473L1173,471L1182,463L1193,456L1201,459L1208,454L1213,461L1210,466Z" fill="#E0E0E0" stroke="#fff" stroke-width=".4"/><path d="M1030,384L1020,394L1009,396L995,393L990,398L993,408L997,416L1004,422L996,428L996,437L987,448L981,459L970,471L959,470L948,482L955,487L956,495L961,501L963,510L942,510L935,517L928,514L925,506L918,498L900,500L884,501L870,502L874,489L888,484L887,479L882,477L882,467L873,462L869,456L864,450L880,455L890,454L896,455L898,453L905,454L917,449L918,439L923,433L930,433L932,430L939,428L943,429L946,426L946,419L950,412L956,409L952,401L962,402L964,397L964,393L969,388L968,382L965,377L971,372L982,369L993,368L998,365L1004,364L1011,370L1014,379Z" fill="#E0E0E0" stroke="#fff" stroke-width=".4"/><path d="M919,361L925,361L932,364L935,365L942,361L945,364L948,358L954,358L956,357L957,352L961,347L966,350L965,354L968,354L967,365L971,369L975,366L979,365L985,360L992,360L1002,360L1004,364L998,365L993,368L982,369L971,372L965,377L968,382L969,388L964,393L964,397L962,402L952,401L956,409L950,412L946,419L946,426L943,429L939,428L932,430L930,433L923,433L918,439L917,449L905,454L898,453L896,455L890,454L880,455L864,450L873,439L872,432L865,430L864,423L861,414L865,407L861,405L863,397L867,382L877,387L885,385L887,379L894,378L900,374L902,364L910,362L912,357L916,361Z" fill="#E0E0E0" stroke="#fff" stroke-width=".4"/><path d="M932,364L937,351L935,342L928,339L931,333L939,334L943,327L947,319L960,316L958,322L959,325L963,325L959,329L949,327L948,334L958,333L971,337L989,335L991,347L995,346L1001,349L1000,353L1002,360L992,360L985,360L979,365L975,366L971,369L967,365L968,354L965,354L966,350L961,347L957,352L956,357L954,358L948,358L945,364L942,361L935,365Z" fill="#E0E0E0" stroke="#fff" stroke-width=".4"/><path d="M963,299L965,293L971,291L987,296L989,288L994,285L1008,291L1012,289L1028,289L1042,291L1047,296L1053,298L1052,301L1037,308L1033,313L1021,314L1017,323L1007,321L1000,323L990,329L992,332L989,335L971,337L958,333L948,334L949,327L959,329L963,325L970,326L983,317L971,310L964,313L957,309L965,300Z" fill="#E0E0E0" stroke="#fff" stroke-width=".4"/><path d="M782,305L786,301L797,298L804,302L811,312L816,311L827,311L825,305L834,300L842,292L855,299L856,310L860,312L870,312L874,314L879,327L890,336L896,342L906,348L919,354L919,361L916,361L912,357L910,362L902,364L900,374L894,378L887,379L885,385L877,387L867,382L866,372L859,371L848,361L840,359L829,353L822,352L818,354L811,354L805,361L796,363L794,354L796,341L788,337L790,328L784,328L786,317L795,320L804,316L797,308L794,301L786,304L785,314Z" fill="#E0E0E0" stroke="#fff" stroke-width=".4"/><path d="M744,449L738,443L738,437L735,437L737,428L732,420L720,413L713,402L715,393L720,389L719,382L713,378L707,364L701,354L703,350L700,335L707,332L708,337L713,342L720,344L723,344L735,334L739,333L742,337L738,343L744,350L747,349L750,358L759,361L766,367L780,369L795,366L796,363L805,361L811,354L818,354L822,352L829,353L840,359L848,361L859,371L866,372L867,382L863,397L861,405L865,407L861,414L864,423L865,430L872,432L873,439L864,450L869,456L873,462L882,467L882,477L887,479L888,484L874,489L870,502L852,499L841,496L830,495L826,481L821,480L814,482L804,487L792,483L782,475L773,472L766,461L759,446L753,448L747,444Z" fill="#E0E0E0" stroke="#fff" stroke-width=".4"/><path d="M618,417L618,417L619,415L619,410L621,404L627,399L625,395L621,394L620,385L622,380L625,377L627,375L628,368L631,370L642,367L647,369L655,369L666,364L672,365L683,363L678,370L673,373L673,382L670,397L648,409L629,421Z" fill="#E0E0E0" stroke="#fff" stroke-width=".4"/><path d="M723,344L720,344L716,337L716,335L712,335L709,331L707,332L703,328L696,325L697,319L695,314L708,312L711,315L714,318L712,321L717,325L715,329L719,333L723,335Z" fill="#E0E0E0" stroke="#fff" stroke-width=".4"/><path d="M377,40L381,29L389,16L392,-8L386,-18L386,-46L392,-67L402,-67L405,-76L401,-83L417,-116L426,-144L433,-162L442,-162L445,-177L463,-173L465,-190L471,-191L484,-178L499,-160L499,-121L503,-112L486,-105L476,-89L478,-75L462,-57L443,-38L436,-9L443,5L453,16L444,38L433,42L430,73L424,90L412,88L407,102L395,103L392,86L384,66Z" fill="#E0E0E0" stroke="#fff" stroke-width=".4"/><path d="M544,89L555,93L556,97L561,95L571,100L572,108L570,112L576,123L580,126L579,129L586,132L588,137L585,140L577,140L575,141L577,146L580,157L571,158L568,161L568,169L564,168L555,168L552,165L549,167L545,165L537,165L526,161L516,160L509,160L504,164L499,165L499,158L496,151L502,147L502,141L499,135L498,127L508,127L519,121L521,112L529,106L528,98L534,95Z" fill="#E0E0E0" stroke="#fff" stroke-width=".4"/><path d="M580,157L583,157L586,154L589,155L599,153L605,162L603,165L603,170L611,171L615,178L615,181L627,186L634,183L640,191L646,190L661,195L661,200L657,208L659,216L657,221L648,222L643,226L643,232L635,233L628,238L619,239L611,244L611,252L610,251L608,248L605,248L598,245L596,248L594,247L579,243L579,238L569,240L566,247L558,258L554,255L549,258L545,255L547,253L549,249L552,244L551,242L553,241L554,242L560,243L562,242L561,240L561,238L558,235L556,229L553,226L554,221L549,217L545,217L538,212L531,214L529,216L525,216L523,219L515,221L512,223L507,219L501,219L495,218L491,221L490,217L485,213L487,207L489,203L492,204L489,197L498,185L503,183L504,179L499,165L504,164L509,160L516,160L526,161L537,165L545,165L549,167L552,165L555,168L564,168L568,169L568,161L571,158Z" fill="#E0E0E0" stroke="#fff" stroke-width=".4"/><path d="M498,127L499,135L502,141L502,147L496,151L499,158L499,165L504,179L503,183L498,185L489,197L492,204L489,203L480,197L473,200L468,198L463,201L458,196L454,198L453,197L449,190L441,189L441,184L434,182L432,186L427,183L428,179L420,177L416,172L412,162L412,157L410,148L406,143L409,138L407,130L414,125L429,117L441,112L451,114L452,118L461,119L473,121L491,120L496,122Z" fill="#E0E0E0" stroke="#fff" stroke-width=".4"/><path d="M435,217L434,223L429,223L431,227L427,236L425,238L417,239L412,242L404,241L390,237L388,232L378,234L377,237L371,235L366,235L362,232L363,229L363,226L366,225L371,229L372,225L381,226L388,223L392,224L395,227L396,224L395,215L398,213L402,206L409,211L415,205L418,204L426,208L430,208L435,210L434,212Z" fill="#E0E0E0" stroke="#fff" stroke-width=".4"/><path d="M485,213L490,217L491,221L485,224L480,234L474,243L467,246L460,245L453,249L449,251L441,249L434,242L431,241L429,236L427,236L431,227L429,223L434,223L435,217L440,221L443,223L452,221L452,218L456,218L461,215L462,216L467,214L469,211L472,210L483,214Z" fill="#E0E0E0" stroke="#fff" stroke-width=".4"/><path d="M529,216L531,214L538,212L545,217L549,217L554,221L553,226L556,229L558,235L561,238L561,240L562,242L560,243L554,242L553,241L551,242L552,244L549,249L547,253L545,255L543,249L544,243L544,236L538,228L535,222L532,217Z" fill="#E0E0E0" stroke="#fff" stroke-width=".4"/><path d="M545,255L549,258L554,255L558,258L558,261L554,264L551,263L548,279L542,278L535,273L524,276L519,280L504,279L497,277L493,278L490,272L489,270L491,268L488,266L485,269L480,265L479,259L473,256L472,252L467,246L474,243L480,234L485,224L491,221L495,218L501,219L507,219L512,223L515,221L523,219L525,216L529,216L532,217L535,222L538,228L544,236L544,243L543,249Z" fill="#E0E0E0" stroke="#fff" stroke-width=".4"/><path d="M528,98L529,106L521,112L519,121L508,127L498,127L496,122L491,120L490,116L491,111L487,109L477,106L475,91L486,86L502,87L512,85L513,89L518,90Z" fill="#E0E0E0" stroke="#fff" stroke-width=".4"/><path d="M536,65L540,70L541,78L544,89L534,95L528,98L518,90L513,89L512,85L502,87L486,86L475,91L475,78L480,67L489,60L497,74L505,74L507,60L515,56L519,59L528,65Z" fill="#E0E0E0" stroke="#fff" stroke-width=".4"/><path d="M542,28L544,31L537,42L540,60L536,65L528,65L519,59L515,56L507,60L508,49L504,51L498,44L497,34L509,28L522,25L532,29Z" fill="#E0E0E0" stroke="#fff" stroke-width=".4"/><path d="M490,272L493,278L497,277L504,279L519,280L524,276L535,273L542,278L548,279L543,285L539,295L543,302L534,300L524,304L524,311L515,312L508,308L501,311L493,311L493,302L488,298L489,296L488,295L490,290L494,286L489,280L488,275Z" fill="#E0E0E0" stroke="#fff" stroke-width=".4"/><path d="M526,386L525,390L511,391L511,389L499,386L501,381L506,385L514,385L521,386L521,388ZM493,311L501,311L508,308L515,312L524,311L524,304L529,308L526,316L524,318L518,317L513,316L501,319L507,327L503,329L497,329L492,322L490,325L492,332L497,338L493,341L499,347L504,351L504,358L495,354L498,361L492,362L495,373L489,373L481,368L477,358L475,349L472,344L467,336L466,333L470,327L471,323L474,321L474,317L481,316L485,313L490,314L491,311Z" fill="#E0E0E0" stroke="#fff" stroke-width=".4"/><path d="M707,364L702,366L698,362L687,361L683,363L672,365L666,364L655,369L647,369L642,367L631,370L628,368L627,375L625,377L622,380L619,374L622,370L616,371L608,368L601,375L587,376L579,370L568,370L566,375L559,376L550,370L539,370L533,358L526,351L531,341L525,335L536,323L551,322L555,312L573,314L585,306L596,302L613,302L630,311L644,316L655,314L664,315L675,308L685,308L695,314L697,319L696,325L703,328L707,332L700,335L703,350L701,354ZM524,304L534,300L543,302L544,307L552,311L550,315L539,315L535,319L527,326L523,320L524,318L526,316L529,308Z" fill="#E0E0E0" stroke="#fff" stroke-width=".4"/><path d="M474,317L474,321L471,323L470,327L466,333L464,332L464,329L459,325L458,319L459,310L460,306L458,304L458,300L462,293L462,296L465,294L467,298L470,299L470,304L469,309L470,314Z" fill="#E0E0E0" stroke="#fff" stroke-width=".4"/><path d="M431,241L434,242L441,249L449,251L453,249L455,255L458,259L455,264L450,261L444,261L435,259L431,259L428,262L425,259L423,264L428,271L430,275L434,280L438,283L442,289L450,294L449,296L440,291L434,286L425,282L417,272L419,271L415,265L415,261L408,259L405,265L402,260L403,255L403,255L410,255L412,253L415,255L419,256L419,252L422,250L423,244Z" fill="#E0E0E0" stroke="#fff" stroke-width=".4"/><path d="M363,226L363,229L362,232L366,235L371,235L370,241L366,243L359,242L357,247L352,248L350,246L345,250L340,251L336,248L332,242L328,244L328,238L335,230L335,226L339,227L342,225L350,225L352,222Z" fill="#E0E0E0" stroke="#fff" stroke-width=".4"/><path d="M328,187L330,191L329,197L327,198L324,196L325,188Z" fill="#E0E0E0" stroke="#fff" stroke-width=".4"/><path d="M329,177L328,187L325,188L324,196L316,190L311,191L304,184L299,177L295,177L294,172L301,169L309,170L318,167L324,173Z" fill="#E0E0E0" stroke="#fff" stroke-width=".4"/><path d="M336,134L338,140L336,155L333,161L327,161L329,177L324,173L318,167L309,170L301,169L306,164L315,141L328,134Z" fill="#E0E0E0" stroke="#fff" stroke-width=".4"/><path d="M181,304L184,300L188,299L191,305L196,305L198,303L204,304L206,310L202,314L202,324L200,326L200,332L196,333L200,340L197,349L200,352L199,356L195,360L196,364L192,368L187,366L182,367L183,358L183,350L178,349L176,344L177,336L180,331L181,326L183,318L183,313L181,308Z" fill="#E0E0E0" stroke="#fff" stroke-width=".4"/><path d="M196,364L195,360L199,356L200,352L197,349L200,340L196,333L200,332L200,326L202,324L202,314L206,310L204,304L198,303L196,305L191,305L188,299L184,300L181,304L181,294L177,289L191,279L203,281L216,281L226,284L235,283L250,283L254,289L272,295L276,292L287,298L298,296L299,304L289,312L277,315L276,319L270,327L266,337L270,344L264,350L262,358L255,360L248,370L236,370L226,370L220,374L216,378L212,377L208,373L205,366Z" fill="#E0E0E0" stroke="#fff" stroke-width=".4"/><path d="M208,128L210,140L203,154L185,164L171,161L179,144L174,128L188,115L195,107L197,116L195,125L201,125Z" fill="#E0E0E0" stroke="#fff" stroke-width=".4"/><path d="M1339,574L1331,571L1331,562L1335,558L1346,555L1352,555L1354,559L1350,564L1347,569ZM1053,298L1053,290L1059,287L1051,263L1070,257L1075,254L1082,229L1101,234L1107,227L1107,212L1115,211L1123,201L1127,200L1129,210L1137,218L1151,224L1158,235L1154,252L1158,258L1169,260L1183,262L1194,271L1200,272L1205,285L1211,293L1221,292L1242,295L1255,293L1264,295L1279,303L1291,303L1295,308L1306,300L1322,296L1337,295L1348,291L1355,284L1362,279L1360,274L1357,269L1362,260L1368,262L1378,264L1388,257L1403,252L1410,242L1417,238L1431,236L1439,238L1440,233L1431,223L1423,218L1415,224L1406,221L1400,223L1398,217L1405,202L1409,191L1421,197L1435,187L1435,180L1444,164L1449,159L1449,150L1444,146L1452,138L1464,135L1477,135L1491,140L1500,146L1506,162L1510,168L1513,178L1517,193L1534,198L1545,208L1549,222L1564,222L1572,217L1589,212L1584,225L1580,231L1576,246L1570,260L1558,257L1550,262L1552,274L1551,290L1546,290L1546,297L1539,289L1536,297L1520,302L1522,309L1514,309L1509,305L1502,314L1491,321L1483,329L1470,333L1463,339L1452,342L1457,336L1455,331L1463,323L1458,316L1449,321L1438,329L1432,338L1423,338L1418,344L1423,353L1431,355L1431,360L1439,364L1450,355L1459,360L1465,360L1466,366L1453,370L1448,376L1439,382L1434,391L1444,397L1448,409L1454,420L1460,428L1460,437L1454,440L1456,446L1462,450L1461,459L1458,468L1453,469L1446,481L1438,495L1429,508L1415,518L1402,527L1391,528L1385,532L1381,529L1376,534L1362,540L1352,541L1348,552L1343,553L1340,545L1343,541L1330,538L1325,540L1315,537L1310,533L1312,526L1303,525L1298,521L1290,526L1281,527L1273,527L1268,530L1262,531L1264,544L1259,543L1258,541L1258,536L1250,539L1246,538L1239,534L1242,525L1236,523L1233,513L1223,515L1224,502L1233,493L1234,484L1233,476L1229,473L1226,466L1220,467L1210,466L1213,461L1208,454L1201,459L1193,456L1182,463L1173,471L1165,473L1161,470L1156,469L1149,467L1143,470L1137,478L1136,469L1130,471L1119,470L1108,468L1100,463L1092,461L1089,455L1083,454L1074,446L1066,443L1062,446L1048,438L1039,430L1036,418L1043,419L1043,413L1039,407L1040,398L1030,384L1014,379L1011,370L1004,364L1002,360L1000,353L1001,349L995,346L991,347L989,335L992,332L990,329L1000,323L1007,321L1017,323L1021,314L1033,313L1037,308L1052,301Z" fill="#E0E0E0" stroke="#fff" stroke-width=".4"/><path d="M371,235L377,237L378,234L388,232L390,237L404,241L403,248L405,254L397,252L389,256L390,263L389,267L392,274L401,281L406,292L417,303L425,303L427,306L424,308L433,313L440,317L449,324L450,326L448,331L442,325L434,322L430,331L437,335L436,342L432,343L426,353L422,354L422,351L424,344L426,341L423,334L420,328L416,326L413,320L406,318L402,313L395,312L387,306L378,298L372,290L369,277L364,275L356,271L351,272L346,279L342,280L343,274L337,272L335,261L338,257L335,252L336,248L340,251L345,250L350,246L352,248L357,247L359,242L366,243L370,241ZM413,351L421,350L417,360L419,364L417,370L409,366L404,364L390,358L392,352L403,353ZM354,317L359,313L365,322L363,339L359,338L355,342L351,339L351,323L349,316Z" fill="#E0E0E0" stroke="#fff" stroke-width=".4"/><path d="M366,109L360,112L352,110L348,100L348,82L350,77L352,72L361,71L364,66L372,61L372,70L369,76L370,81L376,84L373,90L370,88L363,101ZM390,90L393,99L387,112L377,103L375,96Z" fill="#E0E0E0" stroke="#fff" stroke-width=".4"/><path d="M208,128L201,125L195,125L197,116L195,107L203,106L214,117ZM239,136L239,136L240,126L234,116L233,116L222,113L219,108L223,100L220,95L214,104L214,87L209,78L212,59L220,44L228,46L240,44L229,64L239,62L250,62L247,76L238,92L249,93L249,95L258,115L265,118L271,137L274,143L285,146L284,157L279,161L283,169L274,178L261,177L245,182L240,179L234,186L225,184L218,190L212,187L227,171L236,167L235,167L220,165L217,158L228,154L222,145L224,134Z" fill="#E0E0E0" stroke="#fff" stroke-width=".4"/><path d="M127,-123L125,-107L136,-91L123,-74L95,-58L87,-54L74,-58L46,-65L56,-75L35,-86L52,-90L52,-97L31,-103L38,-118L53,-122L68,-105L83,-119L95,-112L111,-125Z" fill="#E0E0E0" stroke="#fff" stroke-width=".4"/><path d="M723,304L725,304L732,312L736,313L738,310L744,305L749,312L754,321L758,321L761,325L753,326L752,336L750,340L746,343L747,349L744,350L738,343L742,337L739,333L735,334L723,344L723,335L719,333L715,329L717,325L712,321L714,318L711,315L708,312L711,310L718,314L723,314L725,313L720,306ZM720,344L713,342L708,337L707,332L709,331L712,335L716,335L716,337Z" fill="#E0E0E0" stroke="#fff" stroke-width=".4"/><path d="M659,283L661,282L669,284L683,286L697,292L698,295L704,293L713,296L716,301L723,304L720,306L725,313L723,314L718,314L711,310L708,312L695,314L685,308L675,308L677,303L674,294L668,289L663,287Z" fill="#E0E0E0" stroke="#fff" stroke-width=".4"/><path d="M404,241L412,242L417,239L425,238L427,236L429,236L431,241L423,244L422,250L419,252L419,256L415,255L412,253L410,255L403,255L405,254L403,248Z" fill="#E0E0E0" stroke="#fff" stroke-width=".4"/><path d="M548,-190L547,-171L562,-154L553,-135L564,-107L558,-87L566,-70L563,-56L577,-41L573,-30L564,-18L543,8L526,10L508,17L492,21L487,10L477,4L480,-16L475,-35L479,-48L488,-62L511,-86L517,-91L516,-101L503,-112L499,-121L499,-160L484,-178L471,-191L477,-199L487,-184L500,-186L511,-179L520,-191L525,-212L540,-221L553,-210Z" fill="#E0E0E0" stroke="#fff" stroke-width=".4"/><path d="M489,203L487,207L485,213L483,214L472,210L469,211L467,214L462,216L461,215L456,218L452,218L452,221L443,223L440,221L435,217L434,212L435,210L436,207L440,207L444,206L444,204L446,204L447,200L449,200L450,197L453,197L454,198L458,196L463,201L468,198L473,200L480,197Z" fill="#E0E0E0" stroke="#fff" stroke-width=".4"/><path d="M416,172L420,177L428,179L427,183L432,186L434,182L441,184L441,189L449,190L453,197L450,197L449,200L447,200L446,204L444,204L444,206L440,207L436,207L435,210L430,208L426,208L418,204L415,205L409,211L402,206L396,200L391,196L390,190L389,185L396,182L399,178L406,175L409,172L411,174Z" fill="#E0E0E0" stroke="#fff" stroke-width=".4"/><path d="M611,455L621,457L626,453L628,449L635,448L637,444L640,442L631,431L650,425L652,423L664,426L678,434L706,457L724,458L733,459L735,464L742,464L746,474L751,476L752,480L759,485L760,489L759,493L760,496L763,499L764,503L766,506L768,508L771,507L773,511L773,513L777,524L807,530L809,527L813,535L806,556L777,566L749,570L740,575L733,586L728,587L726,584L722,584L713,583L711,582L700,583L697,583L693,581L690,586L691,590L687,593L686,589L683,586L682,582L677,578L672,570L669,561L662,554L658,552L651,542L650,535L651,529L645,517L641,513L635,511L632,504L633,502L630,496L627,494L623,486L617,477L612,469L607,469L609,463L609,459Z" fill="#E0E0E0" stroke="#fff" stroke-width=".4"/><path d="M589,388L590,388L591,385L598,385L607,382L600,387L601,389L600,389L598,390L597,389L596,390L596,389L595,388L593,388L591,389Z" fill="#E0E0E0" stroke="#fff" stroke-width=".4"/><path d="M589,388L591,389L593,388L595,388L596,389L596,390L597,389L598,390L600,389L601,389L601,390L591,395L586,393L584,389Z" fill="#E0E0E0" stroke="#fff" stroke-width=".4"/><path d="M248,388L251,395L252,403L255,415L258,417L256,422L243,424L239,428L233,429L233,438L221,442L218,448L210,451L200,452L184,461L184,474L183,474L183,480L177,480L174,483L169,483L166,481L158,482L154,491L151,492L147,505L133,517L130,532L126,536L125,540L103,541L103,541L103,536L107,533L110,528L109,524L113,517L118,510L121,508L124,502L124,496L128,489L134,485L141,474L141,474L146,470L155,468L162,461L167,458L175,448L173,434L177,425L178,418L184,411L194,405L201,400L208,388L211,381L218,381L224,386L233,385L243,388Z" fill="#E0E0E0" stroke="#fff" stroke-width=".4"/><path d="M629,535L590,535L553,535L513,535L513,495L513,456L510,447L513,440L511,435L515,430L528,430L537,433L547,436L552,438L559,434L563,431L572,430L579,431L581,437L584,433L591,436L599,437L604,434L609,450L610,453L608,458L605,466L603,472L600,474L597,470L593,465L586,449L585,450L589,462L595,473L602,490L606,496L609,503L618,514L616,516L616,523L628,533Z" fill="#E0E0E0" stroke="#fff" stroke-width=".4"/><path d="M513,535L513,556L502,556L502,560L463,540L424,520L414,526L407,530L402,524L386,519L382,513L374,508L370,510L366,504L366,499L360,491L364,486L363,480L364,474L364,468L365,459L365,454L362,444L366,442L367,437L366,432L373,428L376,424L381,421L381,412L393,416L397,415L405,417L418,422L423,432L431,434L445,439L455,445L460,442L465,437L463,428L466,422L473,417L480,415L493,418L496,423L500,423L503,425L513,426L515,430L511,435L513,440L510,447L513,456L513,495Z" fill="#E0E0E0" stroke="#fff" stroke-width=".4"/><path d="M450,294L442,289L438,283L434,280L430,275L428,271L423,264L425,259L428,262L431,259L435,259L444,261L450,261L455,264L458,264L456,270L461,275L459,281L457,282L455,283L452,286Z" fill="#E0E0E0" stroke="#fff" stroke-width=".4"/><path d="M488,298L493,302L493,311L491,311L490,314L485,313L481,316L474,317L470,314L469,309L470,304L471,304L472,302L478,300L480,299L483,298Z" fill="#E0E0E0" stroke="#fff" stroke-width=".4"/><path d="M453,249L460,245L467,246L472,252L473,256L479,259L480,265L485,269L488,266L491,268L489,270L490,272L488,275L489,280L494,286L490,290L488,295L489,296L488,298L483,298L480,299L480,298L481,296L482,293L480,293L478,291L477,290L476,288L474,287L472,285L471,286L469,291L467,291L468,290L464,288L461,286L459,284L457,282L459,281L461,275L456,270L458,264L455,264L458,259L455,255Z" fill="#E0E0E0" stroke="#fff" stroke-width=".4"/><path d="M465,294L462,296L462,293L458,300L458,304L456,303L453,299L449,296L450,294L452,286L455,283L457,282L459,284L461,286L464,288L468,290L467,291Z" fill="#E0E0E0" stroke="#fff" stroke-width=".4"/><path d="M470,304L470,299L467,298L465,294L467,291L469,291L471,286L472,285L474,287L476,288L477,290L478,291L480,293L482,293L481,296L480,298L480,299L478,300L472,302L471,304Z" fill="#E0E0E0" stroke="#fff" stroke-width=".4"/></g><g clip-path="url(#v)"><path d="M362.0,226.1L360.3,225.0L358.7,224.0L358.1,224.0L355.7,224.2L355.6,224.1L355.3,223.5L354.9,223.3L354.7,223.4L354.5,223.6L354.2,223.5L353.2,222.6L352.7,222.4L352.1,222.6L351.4,223.1L351.1,223.7L351.1,224.1L351.5,224.2L352.5,224.1L352.7,224.2L352.7,224.4L352.6,224.6L351.8,224.8L351.6,225.0L351.3,225.1L351.2,225.1L350.3,224.9L349.1,224.9L348.0,225.3L346.4,225.5L344.2,225.4L343.4,225.1L342.9,224.9L342.5,223.9L342.6,222.5L343.2,220.6L343.3,219.1L343.1,218.2L343.4,216.9L344.2,215.1L344.8,213.1L345.1,211.2L345.6,209.8L346.4,208.9L348.3,206.3L348.5,206.1L348.4,204.8L347.9,204.6L347.1,204.3L345.2,203.8L343.3,203.5L342.5,203.1L341.8,202.2L341.3,202.1L340.4,202.5L339.3,202.7L338.5,202.5L338.0,202.6L337.7,202.7L337.6,202.6L337.4,201.7L336.9,201.5L336.3,201.3L335.9,201.4L335.6,201.8L335.2,202.1L334.7,202.0L333.5,200.1L333.2,199.6L333.1,199.2L332.8,198.5L332.0,197.8L331.3,197.6L330.9,197.7L331.0,196.7L331.3,195.4L331.5,194.7L331.9,194.2L332.3,193.8L332.4,193.1L332.4,192.4L331.9,192.3L330.7,191.8L330.1,191.3L329.6,190.6L328.9,189.8L328.7,188.9L328.6,187.9L328.7,187.5L328.8,187.2L329.3,185.8L331.1,184.5L330.9,183.3L330.9,182.5L330.5,182.0L329.6,181.7L329.3,181.4L329.2,181.0L329.9,180.2L329.1,179.6L328.7,179.0L327.6,178.2L327.5,177.9L328.1,175.5L327.6,174.8L327.1,174.4L326.6,174.3L326.3,173.9L326.2,173.5L326.3,173.3L327.0,173.4L327.2,173.1L328.8,171.7L328.9,171.5L328.7,171.3L328.4,171.2L328.3,170.9L328.3,170.5L329.2,168.5L329.5,167.6L329.5,167.0L329.5,166.4L328.9,165.4L328.4,164.7L328.4,164.0L328.1,163.7L327.1,162.1L327.1,161.4L327.6,160.9L328.4,160.6L328.7,160.4L329.2,160.2L330.5,160.7L331.1,161.1L331.2,161.0L331.7,160.5L332.6,160.6L334.8,159.7L335.1,159.3L335.4,158.8L335.4,158.6L334.6,157.7L334.5,157.4L334.6,157.0L334.9,156.7L335.4,156.5L335.9,156.1L337.1,155.0L337.5,154.1L337.7,153.0L337.7,152.2L337.4,151.6L337.0,151.2L336.6,151.3L335.7,151.3L334.9,150.9L334.4,150.3L334.3,149.8L334.5,149.5L334.6,149.1L334.5,148.7L334.5,148.4L334.9,148.2L337.5,148.2L337.7,147.9L337.8,146.4L338.5,144.1L339.1,142.8L339.2,142.3L339.2,139.2L339.3,137.7L338.8,136.9L337.9,136.1L338.1,134.4L338.4,133.2L339.4,131.5L340.1,131.1L343.5,130.8L347.2,131.0L348.8,133.4L348.2,134.6L349.1,135.2L349.5,135.0L349.8,133.9L350.1,132.7L350.4,132.3L351.5,133.2L352.0,133.8L352.0,135.8L352.4,133.2L352.1,131.3L352.3,129.5L352.8,128.5L353.2,127.9L355.9,128.5L358.9,128.2L360.0,128.9L362.6,132.4L363.5,133.0L364.6,133.2L363.1,132.4L359.9,128.2L359.0,127.6L357.6,127.5L356.7,127.0L356.1,126.4L356.0,125.8L356.0,121.5L355.4,120.8L354.7,120.6L354.3,120.9L353.4,120.9L353.3,119.9L353.5,119.2L355.3,118.7L356.4,118.0L356.5,116.8L355.7,115.9L354.8,114.2L353.8,112.5L353.7,110.6L355.5,110.7L356.0,110.7L358.7,111.6L359.4,112.2L360.2,112.3L361.8,111.7L362.9,111.5L363.4,111.8L364.0,112.0L364.1,112.0L364.2,112.2L365.6,112.7L366.2,113.4L366.9,114.5L366.9,116.1L366.1,117.2L365.4,117.9L368.1,117.6L368.4,118.3L368.7,119.0L370.2,118.5L373.8,120.5L376.0,119.5L376.6,119.5L377.1,121.1L376.5,122.8L374.6,124.6L375.0,125.7L375.6,125.9L377.5,125.7L380.4,126.7L380.9,126.4L383.3,123.9L384.2,123.4L387.3,123.0L387.9,122.0L389.1,121.1L389.9,120.0L391.9,118.0L393.8,118.4L395.0,118.8L396.3,119.0L397.4,121.1L400.4,123.5L403.1,123.3L404.0,125.5L404.5,128.3L405.3,129.1L406.0,129.7L408.2,130.3L408.3,130.3L408.4,130.7L408.5,132.0L408.7,133.2L409.8,137.6L409.8,138.7L409.8,139.0L409.4,140.5L408.6,141.8L407.7,142.5L407.1,143.3L407.0,144.2L408.3,145.8L410.8,148.0L411.8,149.9L411.3,151.4L411.2,152.6L411.4,153.3L411.8,153.9L412.4,154.3L412.7,155.0L412.5,155.9L412.7,156.6L413.1,157.0L413.1,157.2L412.9,157.8L412.5,159.0L412.4,159.8L411.6,161.0L411.9,161.9L412.4,163.1L412.9,163.6L413.0,164.2L412.7,165.5L412.9,165.8L414.6,166.8L414.9,167.2L415.1,168.1L415.7,170.1L415.2,172.5L414.7,173.9L413.7,176.0L413.7,176.2L413.6,176.4L413.2,176.8L412.8,176.9L412.2,176.6L411.8,176.3L411.9,175.3L411.6,175.3L411.2,174.7L411.1,174.1L410.7,173.9L409.3,173.6L408.9,173.4L408.5,173.6L408.3,174.0L408.4,174.4L408.7,174.7L409.4,175.3L409.4,175.6L407.7,176.1L406.7,176.8L405.8,177.1L404.8,177.7L402.8,178.4L401.4,178.6L401.1,178.7L400.6,179.9L400.3,180.2L399.9,180.1L399.7,179.8L399.3,180.0L399.0,180.4L398.6,180.6L398.3,180.5L397.8,181.6L396.1,181.9L396.0,182.4L395.7,183.0L395.4,183.2L394.7,182.9L393.7,182.8L393.1,183.1L392.4,183.3L391.6,183.4L390.7,184.0L389.7,185.2L389.2,186.2L388.9,186.6L388.5,185.7L387.9,185.0L387.5,184.6L387.2,184.6L387.1,184.8L387.1,185.3L387.5,186.1L387.9,186.7L388.0,187.1L388.3,187.9L388.9,188.7L390.0,189.4L390.7,190.0L391.2,191.0L391.2,191.2L391.1,191.6L390.8,191.9L390.6,192.4L390.0,193.3L390.2,193.7L390.7,194.2L391.1,194.8L391.6,195.8L392.4,197.5L392.9,198.2L393.5,199.0L394.2,199.5L395.2,199.5L396.2,200.5L397.4,202.0L398.2,202.7L398.8,203.0L399.3,203.5L399.7,204.3L399.9,204.8L400.3,205.1L401.4,205.0L402.7,206.3L403.5,207.2L404.0,207.9L403.9,208.2L403.8,209.1L403.8,210.0L403.7,210.5L403.1,211.2L402.8,211.4L402.6,211.5L400.8,210.6L400.6,210.8L400.5,210.9L400.0,213.4L399.7,213.9L399.1,214.3L398.1,214.8L397.4,214.9L396.8,215.1L395.0,216.2L394.2,216.8L393.6,217.6L393.6,218.1L394.5,219.4L395.6,220.8L395.6,222.0L395.1,222.9L395.0,223.2L395.3,223.4L395.9,223.4L396.3,223.6L396.5,224.2L396.5,225.3L396.3,226.3L396.1,226.8L395.7,226.8L394.8,226.3L394.1,225.8L393.9,225.5L393.9,225.1L394.0,224.9L393.8,224.4L392.9,224.0L392.0,224.2L391.4,224.5L390.9,224.5L390.5,224.0L389.8,223.7L388.8,223.5L388.3,223.3L388.1,223.4L388.2,224.3L388.0,224.7L383.4,225.2L382.0,225.7L381.1,226.3L380.3,226.6L380.1,227.0L379.4,227.5L378.5,227.7L378.3,227.5L377.8,227.8L376.9,228.0L376.3,227.9L376.0,227.5L375.4,226.9L375.2,226.4L375.2,226.1L373.9,226.1L373.1,225.7L371.4,225.8L371.0,225.7L370.9,225.8L370.6,227.6L370.3,228.4L369.7,229.1L369.0,229.6L368.5,229.6L368.5,229.1L368.6,228.4L368.2,228.3L367.6,228.2L367.3,228.0L367.4,227.5L367.3,227.2L367.0,226.8L366.4,226.4L365.1,225.7L364.2,225.3L363.9,225.7L363.2,226.1L362.3,225.9ZM402.9,119.4L403.2,120.6L402.9,121.1L401.8,120.2L400.7,120.2L400.1,121.7L399.6,121.7L397.8,120.4L397.6,119.7L397.5,119.2L397.8,117.3L397.7,116.7L398.3,116.1L398.3,115.1L399.3,114.1L400.1,114.1L400.4,114.9L400.8,115.5L402.2,116.2L402.4,116.4L402.6,116.9L401.9,117.6L401.7,118.1L401.9,118.7ZM407.8,126.6L407.7,127.2L407.9,128.0L407.4,127.9L406.2,128.1L405.1,127.8L404.8,126.8L405.0,125.9L404.5,125.2L404.1,124.8L404.0,124.3L404.1,123.7L406.1,125.3ZM379.2,118.8L377.7,118.9L377.1,118.2L376.6,118.0L376.9,117.2L377.3,116.9L378.7,117.4L379.2,118.5ZM350.1,112.6L349.9,113.0L350.0,110.5L351.1,108.0L351.5,108.1L351.1,108.7L350.9,109.2L350.8,110.2L350.8,110.7L353.3,110.8L353.0,111.3L350.5,111.6ZM352.9,113.9L352.5,114.3L351.6,114.2L351.0,113.8L351.2,113.4L351.7,113.1L352.1,113.0L352.7,113.2Z" fill="#4ECDC4" stroke="#2C3E50" stroke-width="1"/></g><circle cx="400.0" cy="150.0" r="4" fill="#E74C3C" stroke="#fff" stroke-width="2"/><text x="400.0" y="140.0" text-anchor="middle" font-family="sans-serif" font-weight="700" font-size="10" fill="#2D3436">Berlin</text></svg>