<svg viewBox="0 0 800 300" xmlns="http://www.w3.org/2000/svg"><defs><clipPath id="v"><rect width="800" height="300"/></clipPath></defs><rect width="800" height="300" fill="#DCEEF8"/><g clip-path="url(#v)"><path d="M296,1034L257,980L256,738L314,663L332,642L375,641L434,594L520,591L707,391L753,335L783,294L783,259L783,191L783,163L784,162L805,161L836,151L871,144L902,121L927,121L929,139L923,179L923,214L909,238L890,311L858,386L817,471L761,569L704,643L626,734L560,787L461,853L399,903L327,984L311,1019Z" fill="#E0E0E0" stroke="#fff" stroke-width=".4"/><path d="M-830,376L-881,347L-904,327L-908,307L-897,279L-898,251L-936,209L-943,180L-942,164L-967,144L-968,105L-981,79L-1005,82L-998,57L-981,29L-988,1L-967,-20L-980,-36L-963,-78L-933,-129L-875,-124L-879,-400L-878,-429L-802,-430L-802,-571L-669,-572L-536,-571L-407,-572L-279,-571L-147,-572L-16,-571L5,-501L-9,-489L0,-416L25,-332L50,-315L86,-289L53,-249L4,-238L-17,-217L-23,-171L-52,-70L-45,-43L-56,16L-82,83L-122,117L-151,168L-157,196L-189,215L-208,285L-208,345L-208,293L-218,292L-216,258L-224,235L-258,209L-266,160L-258,110L-289,105L-294,121L-333,124L-317,144L-312,184L-348,221L-381,270L-415,277L-471,238L-496,251L-503,271L-537,284L-539,298L-605,298L-614,284L-662,282L-686,293L-704,287L-738,248L-750,230L-797,239L-815,270L-833,330L-855,342L-875,350Z" fill="#E0E0E0" stroke="#fff" stroke-width=".4"/><path d="M1198,-622L1200,-651L1219,-681L1220,-710L1250,-725L1238,-735L1243,-782L1277,-782L1307,-733L1344,-706L1392,-697L1432,-684L1461,-642L1479,-619L1503,-609L1503,-593L1479,-551L1468,-531L1440,-508L1416,-460L1386,-463L1372,-447L1361,-411L1369,-364L1363,-355L1333,-356L1291,-329L1285,-295L1270,-281L1229,-281L1203,-264L1203,-236L1171,-216L1134,-223L1090,-200L1059,-196L1038,-244L986,-359L1185,-429L1229,-571ZM1268,-840L1256,-865L1275,-890L1283,-884L1277,-854Z" fill="#E0E0E0" stroke="#fff" stroke-width=".4"/><path d="M-45,-43L-52,-70L-23,-171L-17,-217L4,-238L53,-249L86,-289L125,-209L143,-145L179,-112L269,-47L306,-8L342,31L363,54L395,75L376,91L347,86L325,64L297,24L268,2L251,-22L193,-49L148,-50L132,-64L93,-48L53,-79L32,-28Z" fill="#E0E0E0" stroke="#fff" stroke-width=".4"/><path d="M986,-359L1038,-244L1059,-196L1012,-177L999,-146L997,-123L931,-94L825,-62L766,-14L737,-10L717,-14L678,14L636,27L581,31L564,35L549,53L532,58L522,75L489,73L468,83L422,79L405,39L407,2L396,-18L383,-68L364,-97L377,-100L370,-131L378,-145L376,-175L404,-197L398,-226L415,-260L443,-242L460,-248L537,-250L549,-243L613,-236L638,-239L655,-216L686,-228L733,-301L795,-332Z" fill="#E0E0E0" stroke="#fff" stroke-width=".4"/><path d="M-143,-1112L-69,-1100L-40,-1124L-24,-1151L26,-1162L37,-1187L59,-1200L-7,-1278L126,-1317L138,-1328L218,-1307L316,-1253L411,-1176L503,-1099L626,-1093L685,-1085L702,-1049L749,-1051L775,-987L807,-970L818,-943L864,-912L868,-882L861,-857L870,-832L889,-812L897,-788L907,-770L927,-756L946,-761L958,-733L961,-716L986,-643L1185,-607L1198,-622L1229,-571L1185,-429L986,-359L795,-332L733,-301L686,-228L655,-216L638,-239L613,-236L549,-243L537,-250L460,-248L443,-242L415,-260L398,-226L404,-197L376,-175L367,-204L347,-225L342,-253L308,-278L272,-336L254,-393L208,-442L178,-453L134,-521L127,-570L130,-613L92,-693L61,-721L25,-736L3,-778L7,-794L-12,-832L-31,-848L-57,-903L-97,-963L-131,-1015L-164,-1014L-154,-1056L-151,-1082Z" fill="#E0E0E0" stroke="#fff" stroke-width=".4"/><path d="M707,391L520,591L434,594L375,641L332,642L314,663L269,663L242,641L182,668L162,696L118,691L103,683L88,685L67,684L-17,628L-63,628L-85,606L-85,569L-120,558L-159,485L-189,470L-201,443L-234,410L-275,406L-253,368L-218,366L-208,345L-208,285L-189,215L-157,196L-151,168L-122,117L-82,83L-56,16L-45,-43L32,-28L53,-79L93,-48L132,-64L148,-50L193,-49L251,-22L268,2L297,24L325,64L347,86L324,115L301,147L307,166L308,186L345,188L361,183L375,195L361,219L385,256L410,288L435,312L652,392Z" fill="#E0E0E0" stroke="#fff" stroke-width=".4"/><path d="M784,162L783,163L783,191L783,259L783,294L753,335L707,391L652,392L435,312L410,288L385,256L361,219L375,195L400,159L421,171L434,199L464,227L497,227L559,210L631,202L690,181L723,177L746,164Z" fill="#E0E0E0" stroke="#fff" stroke-width=".4"/><path d="M-416,690L-474,646L-490,618L-526,632L-557,627L-575,639L-604,631L-645,576L-655,555L-705,528L-721,488L-749,459L-794,425L-794,403L-830,376L-875,350L-855,342L-833,330L-815,270L-797,239L-750,230L-738,248L-704,287L-686,293L-662,282L-614,284L-605,298L-539,298L-537,284L-503,271L-496,251L-471,238L-415,277L-381,270L-348,221L-312,184L-317,144L-333,124L-294,121L-289,105L-258,110L-266,160L-258,209L-224,235L-216,258L-218,292L-208,293L-208,345L-218,366L-253,368L-275,406L-234,410L-201,443L-189,470L-159,485L-120,558L-165,601L-206,641L-246,672L-293,671L-346,687L-388,672Z" fill="#E0E0E0" stroke="#fff" stroke-width=".4"/></g><g clip-path="url(#v)"><path d="M406.3,156.1L400.6,165.1L393.2,176.7L384.9,189.8L379.9,190.0L375.8,189.3L372.9,187.0L367.2,184.6L360.8,184.3L354.6,186.7L344.3,189.5L334.8,190.4L327.4,192.0L321.0,193.8L315.5,192.8L310.5,191.1L309.5,177.2L308.3,162.0L308.3,150.1L310.0,143.5L311.7,140.9L320.5,131.9L323.6,128.1L333.6,113.2L342.4,100.3L348.9,90.6L351.0,88.7L353.6,87.0L355.5,87.5L368.2,96.8L370.6,96.5L374.6,93.6L378.4,83.7L381.3,80.0L382.2,80.2L390.3,77.3L397.7,74.3L398.7,77.4L409.9,90.9L413.5,97.5L417.3,109.5L415.1,116.0L412.3,120.4L408.0,124.3L393.2,133.8L376.8,139.9L366.3,152.0L358.4,151.2L359.6,155.7L362.5,156.3L367.0,155.4L376.0,151.9L384.1,150.2L393.0,150.1L400.8,151.6Z" fill="#4ECDC4" stroke="#2C3E50" stroke-width="1"/></g><circle cx="400.0" cy="150.0" r="4" fill="#E74C3C" stroke="#fff" stroke-width="2"/><text x="400.0" y="140.0" text-anchor="middle" font-family="sans-serif" font-weight="700" font-size="10" fill="#2D3436">Djibouti</text></svg>