<svg viewBox="0 0 800 300" xmlns="http://www.w3.org/2000/svg"><defs><clipPath id="v"><rect width="800" height="300"/></clipPath></defs><rect width="800" height="300" fill="#DCEEF8"/><g clip-path="url(#v)"><path d="M449,-1202L457,-1239L485,-1243L509,-1205L572,-1127L524,-1089L513,-1020L496,-1003L487,-931L464,-927L423,-980L440,-1011L412,-1038L374,-1119L359,-1199L412,-1238L422,-1200ZM756,-442L723,-420L708,-415L716,-453L691,-476L661,-457L652,-416L634,-393L613,-406L588,-403L567,-432L555,-417L543,-415L540,-380L504,-389L499,-360L481,-360L468,-324L449,-270L419,-205L426,-190L419,-172L400,-173L388,-132L389,-77L401,-57L395,-11L379,16L370,37L357,14L320,57L294,66L267,47L261,7L255,-84L272,-111L323,-146L361,-191L396,-255L442,-349L474,-388L527,-456L569,-481L601,-478L630,-526L665,-523L699,-535L759,-492L735,-477ZM685,-1244L656,-1185L601,-1173L544,-1190L541,-1220L513,-1222L492,-1273L551,-1305L579,-1278L599,-1312L647,-1283ZM633,-1022L590,-985L557,-1006L570,-1029L558,-1059L598,-1078L606,-1043Z" fill="#E0E0E0" stroke="#fff" stroke-width=".4"/><path d="M-739,-1574L-708,-1620L-675,-1667L-607,-1660L-583,-1721L-515,-1738L-438,-1729L-362,-1716L-298,-1652L-242,-1589L-277,-1532L-350,-1526L-402,-1520L-454,-1512L-444,-1487L-376,-1502L-318,-1455L-281,-1497L-265,-1448L-286,-1372L-237,-1420L-192,-1446L-144,-1472L-87,-1446L-76,-1390L-116,-1346L-154,-1303L-165,-1277L-226,-1257L-182,-1252L-204,-1173L-220,-1107L-219,-1003L-196,-945L-226,-942L-258,-915L-222,-872L-218,-806L-238,-799L-213,-737L-256,-732L-234,-703L-240,-679L-267,-669L-294,-669L-270,-624L-269,-596L-307,-622L-317,-605L-291,-589L-266,-552L-259,-504L-293,-493L-308,-515L-332,-550L-325,-509L-347,-479L-297,-477L-270,-474L-322,-425L-374,-383L-430,-366L-451,-365L-471,-346L-498,-293L-539,-260L-552,-258L-578,-246L-606,-235L-622,-207L-622,-176L-632,-147L-663,-114L-656,-81L-664,-48L-674,-10L-701,-7L-729,-39L-768,-39L-787,-61L-799,-101L-833,-154L-842,-182L-845,-223L-872,-266L-865,-301L-877,-318L-858,-378L-830,-397L-822,-419L-818,-462L-840,-443L-850,-435L-868,-427L-891,-445L-892,-483L-885,-513L-867,-514L-828,-499L-861,-536L-878,-557L-897,-548L-913,-563L-892,-621L-904,-646L-919,-692L-942,-766L-966,-795L-966,-827L-1018,-873L-1058,-878L-1110,-875L-1156,-869L-1179,-895L-1212,-947L-1162,-975L-1123,-979L-1164,-992L-1205,-1002L-1249,-1040L-1246,-1076L-1173,-1123L-1103,-1172L-1095,-1211L-1147,-1250L-1131,-1296L-1099,-1338L-1064,-1380L-1036,-1394L-1044,-1452L-999,-1488L-940,-1510L-881,-1512L-860,-1468L-809,-1546L-763,-1493L-736,-1482L-696,-1438L-742,-1512Z" fill="#E0E0E0" stroke="#fff" stroke-width=".4"/><path d="M-833,1363L-844,1380L-850,1395L-858,1402L-867,1403L-870,1398L-874,1397L-880,1402L-888,1398L-883,1390L-882,1381L-878,1373L-886,1362L-887,1348L-877,1332L-871,1334L-857,1339L-836,1355ZM277,347L287,355L314,360L304,380L302,400L297,405L288,403L289,410L275,426L274,438L283,434L290,446L289,454L295,464L288,472L293,493L304,497L301,508L284,523L246,516L218,525L216,540L194,544L172,532L165,537L130,526L122,515L132,499L136,445L116,416L102,402L72,391L71,370L95,363L128,371L122,338L140,350L184,327L190,302L207,296L210,307L219,307L228,319L241,334L251,331L268,345L272,347ZM327,536L339,526L342,549L336,568L327,563L323,546Z" fill="#E0E0E0" stroke="#fff" stroke-width=".4"/><path d="M370,37L379,16L395,-11L401,-57L389,-77L388,-132L400,-173L419,-172L426,-190L419,-205L449,-270L468,-324L481,-360L499,-360L504,-389L540,-380L543,-415L555,-417L581,-391L611,-356L611,-280L618,-261L585,-248L566,-216L569,-188L538,-153L501,-116L487,-59L501,-31L519,-9L502,34L482,42L474,103L464,135L440,132L429,159L407,161L401,128L385,89Z" fill="#E0E0E0" stroke="#fff" stroke-width=".4"/><path d="M700,133L720,142L723,150L733,146L751,154L753,170L749,179L761,201L769,207L768,213L781,218L786,227L779,234L763,233L760,236L764,246L769,267L752,269L747,275L745,291L738,288L720,289L715,282L708,288L701,283L686,282L664,275L645,273L630,273L620,282L610,283L610,269L604,255L616,248L616,235L610,223L610,209L628,209L649,197L653,178L669,167L667,152L679,146Z" fill="#E0E0E0" stroke="#fff" stroke-width=".4"/><path d="M769,267L776,268L781,261L787,262L807,259L819,277L814,283L816,293L831,294L838,308L837,314L862,324L877,319L888,333L900,333L928,343L928,351L920,367L925,383L922,392L903,394L893,402L893,415L877,417L864,426L846,428L830,438L831,453L828,452L825,447L819,446L806,440L801,446L798,443L768,436L767,426L749,430L742,445L727,465L718,460L709,465L701,460L706,457L709,447L714,439L713,434L717,431L719,435L730,436L735,434L732,431L733,427L726,420L723,408L716,403L718,394L709,386L701,385L687,376L674,379L670,383L662,383L657,390L643,393L636,397L627,390L615,390L603,387L595,393L593,385L583,377L586,366L592,358L596,360L591,346L608,322L618,318L620,310L610,283L620,282L630,273L645,273L664,275L686,282L701,283L708,288L715,282L720,289L738,288L745,291L747,275L752,269Z" fill="#E0E0E0" stroke="#fff" stroke-width=".4"/><path d="M610,209L610,223L616,235L616,248L604,255L610,269L610,283L620,310L618,318L608,322L591,346L596,360L592,358L574,347L560,351L551,348L539,354L530,344L522,348L521,346L512,331L498,329L496,320L483,317L480,324L469,318L470,310L456,307L447,297L439,278L441,267L436,250L429,239L434,230L430,214L443,204L473,189L497,178L516,184L518,192L536,192L560,196L595,195L605,199Z" fill="#E0E0E0" stroke="#fff" stroke-width=".4"/><path d="M485,386L483,398L472,398L476,404L470,422L466,427L449,427L440,434L424,432L396,424L392,415L373,419L371,425L359,421L349,420L341,415L344,408L343,403L349,401L358,409L361,402L378,403L392,398L401,399L407,405L409,400L406,381L413,377L420,364L434,373L445,361L452,359L466,368L475,367L484,372L483,376Z" fill="#E0E0E0" stroke="#fff" stroke-width=".4"/><path d="M583,377L593,385L595,393L583,399L574,418L562,437L547,442L535,441L520,448L513,452L497,447L483,435L477,432L473,422L470,422L476,404L472,398L483,398L485,386L494,393L502,396L518,393L519,387L527,386L536,382L538,384L547,380L552,373L558,371L579,380Z" fill="#E0E0E0" stroke="#fff" stroke-width=".4"/><path d="M670,383L674,379L687,376L701,385L709,386L718,394L716,403L723,408L726,420L733,427L732,431L735,434L730,436L719,435L717,431L713,434L714,439L709,447L706,457L701,460L697,447L699,435L699,423L688,406L681,394L676,386Z" fill="#E0E0E0" stroke="#fff" stroke-width=".4"/><path d="M701,460L709,465L718,460L727,465L727,472L718,478L712,475L707,508L696,505L682,495L659,502L650,508L621,507L607,503L599,505L594,494L590,489L595,485L590,481L584,487L573,479L571,468L559,462L557,453L547,442L562,437L574,418L583,399L595,393L603,387L615,390L627,390L636,397L643,393L657,390L662,383L670,383L676,386L681,394L688,406L699,423L699,435L697,447Z" fill="#E0E0E0" stroke="#fff" stroke-width=".4"/><path d="M667,152L669,167L653,178L649,197L628,209L610,209L605,199L595,195L594,187L596,178L587,172L567,167L563,138L585,127L617,130L636,126L639,133L649,136Z" fill="#E0E0E0" stroke="#fff" stroke-width=".4"/><path d="M683,87L692,96L693,113L700,133L679,146L667,152L649,136L639,133L636,126L617,130L585,127L563,138L564,112L573,90L591,77L606,104L622,103L625,76L642,70L650,74L667,87Z" fill="#E0E0E0" stroke="#fff" stroke-width=".4"/><path d="M696,14L699,21L685,42L691,76L683,87L667,87L650,74L642,70L625,76L628,55L621,59L608,46L607,25L631,14L655,9L676,15Z" fill="#E0E0E0" stroke="#fff" stroke-width=".4"/><path d="M430,214L434,230L429,239L436,250L441,267L439,278L447,297L438,301L433,297L429,303L415,309L408,316L394,323L397,332L399,344L409,351L420,364L413,377L406,381L409,400L407,405L401,399L392,398L378,403L361,402L358,409L349,401L343,403L322,394L318,400L302,400L304,380L314,360L287,355L277,347L279,334L275,327L277,307L274,274L285,274L290,263L295,234L291,223L295,216L311,214L315,221L328,205L323,193L322,174L337,179L349,174L349,186L369,194L369,206L388,200L399,191L421,204Z" fill="#E0E0E0" stroke="#fff" stroke-width=".4"/><path d="M594,494L599,505L607,503L621,507L650,508L659,502L682,495L696,505L707,508L697,519L690,538L696,552L680,549L660,557L660,570L642,572L629,563L614,570L599,570L598,553L588,544L592,541L589,537L593,529L600,521L591,510L589,500Z" fill="#E0E0E0" stroke="#fff" stroke-width=".4"/><path d="M477,432L483,435L497,447L513,452L520,448L525,459L531,467L524,477L515,471L502,471L485,467L476,467L472,473L465,467L461,478L470,491L475,499L483,509L491,515L498,526L515,536L513,540L495,530L484,521L466,513L450,494L454,491L445,480L445,471L432,467L427,478L421,469L421,460L422,459L435,460L439,456L445,460L453,461L453,453L460,450L461,439Z" fill="#E0E0E0" stroke="#fff" stroke-width=".4"/><path d="M343,403L344,408L341,415L349,420L359,421L358,432L349,437L335,433L331,445L322,446L318,441L308,451L298,452L290,446L283,434L274,438L275,426L289,410L288,403L297,405L302,400L318,400L322,394Z" fill="#E0E0E0" stroke="#fff" stroke-width=".4"/><path d="M275,327L279,334L277,347L272,347L268,345L270,328Z" fill="#E0E0E0" stroke="#fff" stroke-width=".4"/><path d="M277,307L275,327L270,328L268,345L251,331L241,334L228,319L219,307L210,307L207,296L222,290L236,293L254,286L266,300Z" fill="#E0E0E0" stroke="#fff" stroke-width=".4"/><path d="M291,223L295,234L290,263L285,274L274,274L277,307L266,300L254,286L236,293L222,290L232,282L249,235L275,222Z" fill="#E0E0E0" stroke="#fff" stroke-width=".4"/><path d="M40,210L43,233L28,262L-6,280L-33,275L-17,243L-27,210L-1,184L13,169L17,186L13,204L25,204Z" fill="#E0E0E0" stroke="#fff" stroke-width=".4"/><path d="M359,421L371,425L373,419L392,415L396,424L424,432L422,445L426,457L411,453L395,463L396,476L394,484L400,498L418,511L428,533L449,554L464,554L469,559L464,564L481,574L495,581L511,594L513,599L510,608L499,596L483,592L474,609L488,618L486,631L478,632L468,653L460,655L460,648L464,634L468,629L460,615L455,602L447,599L441,588L429,584L420,573L406,572L391,560L374,543L360,528L355,502L345,499L329,490L321,494L309,506L301,508L304,497L293,493L288,472L295,464L289,454L290,446L298,452L308,451L318,441L322,446L331,445L335,433L349,437L358,432ZM442,649L457,647L450,666L453,674L449,686L434,677L424,675L397,662L400,650L422,652ZM326,581L336,573L347,591L344,624L336,622L328,631L321,624L320,594L315,579Z" fill="#E0E0E0" stroke="#fff" stroke-width=".4"/><path d="M40,210L25,204L13,204L17,186L13,169L29,167L50,188ZM99,225L99,225L102,207L89,186L89,186L66,180L61,171L68,156L62,146L51,162L50,130L41,112L48,75L62,45L78,48L101,45L80,85L100,80L121,80L116,109L99,140L119,142L120,146L137,185L150,191L162,228L168,241L191,247L189,267L179,276L186,292L169,308L144,308L111,316L102,310L89,324L71,321L58,332L48,326L76,294L93,288L93,288L63,282L58,270L78,260L67,243L71,222Z" fill="#E0E0E0" stroke="#fff" stroke-width=".4"/><path d="M-120,-282L-124,-252L-103,-220L-128,-186L-183,-156L-200,-148L-225,-154L-278,-168L-259,-188L-301,-210L-267,-218L-268,-232L-308,-243L-295,-273L-266,-280L-236,-248L-207,-274L-183,-260L-152,-286Z" fill="#E0E0E0" stroke="#fff" stroke-width=".4"/><path d="M424,432L440,434L449,427L466,427L470,422L473,422L477,432L461,439L460,450L453,453L453,461L445,460L439,456L435,460L422,459L426,457L422,445Z" fill="#E0E0E0" stroke="#fff" stroke-width=".4"/><path d="M708,-415L705,-378L734,-344L716,-306L739,-252L726,-212L743,-179L735,-150L764,-121L756,-100L739,-76L698,-25L663,-22L629,-8L598,-0L587,-21L568,-34L572,-73L563,-110L572,-135L590,-162L633,-210L646,-220L644,-239L618,-261L611,-280L611,-356L581,-391L555,-417L567,-432L588,-403L613,-406L634,-393L652,-416L661,-457L691,-476L716,-453Z" fill="#E0E0E0" stroke="#fff" stroke-width=".4"/><path d="M592,358L586,366L583,377L579,380L558,371L552,373L547,380L538,384L536,382L527,386L519,387L518,393L502,396L494,393L485,386L483,376L484,372L487,366L496,366L502,363L503,361L506,359L508,352L512,351L515,346L521,346L522,348L530,344L539,354L551,348L560,351L574,347Z" fill="#E0E0E0" stroke="#fff" stroke-width=".4"/><path d="M447,297L456,307L470,310L469,318L480,324L483,317L496,320L498,329L512,331L521,346L515,346L512,351L508,352L506,359L503,361L502,363L496,366L487,366L484,372L475,367L466,368L452,359L445,361L434,373L420,364L409,351L399,344L397,332L394,323L408,316L415,309L429,303L433,297L438,301Z" fill="#E0E0E0" stroke="#fff" stroke-width=".4"/><path d="M515,536L498,526L491,515L483,509L475,499L470,491L461,478L465,467L472,473L476,467L485,467L502,471L515,471L524,477L530,477L526,489L535,499L532,511L528,513L524,515L518,521Z" fill="#E0E0E0" stroke="#fff" stroke-width=".4"/><path d="M520,448L535,441L547,442L557,453L559,462L571,468L573,479L584,487L590,481L595,485L590,489L594,494L589,500L591,510L600,521L593,529L589,537L592,541L588,544L579,545L573,546L572,544L575,541L577,535L574,535L570,530L567,529L565,525L561,523L558,519L555,521L552,530L548,531L549,529L542,524L536,521L533,517L528,513L532,511L535,499L526,489L530,477L524,477L531,467L525,459Z" fill="#E0E0E0" stroke="#fff" stroke-width=".4"/></g><g clip-path="url(#v)"><path d="M400.0,146.4L400.0,149.8L399.5,150.8L398.8,151.5L396.9,152.1L395.2,153.1L393.7,154.9L393.2,157.3L394.3,159.0L396.5,160.0L397.0,163.4L395.2,165.0L390.8,166.6L390.3,170.6L390.5,173.7L390.4,176.0L390.0,179.1L386.4,180.5L384.1,175.8L384.1,173.9L383.3,171.7L383.3,169.7L382.4,166.7L379.0,165.9L377.7,165.8L375.8,166.3L375.4,166.1L373.1,161.9L373.5,157.3L372.3,154.9L372.1,153.9L372.2,152.7L371.2,151.7L370.0,151.2L369.4,148.6L370.8,147.9L374.1,148.2L375.2,148.1L376.1,147.5L378.8,143.2L378.7,142.3L379.0,141.0L381.9,140.5L383.2,142.2L383.0,144.9L383.1,148.3L384.9,149.3L385.6,149.4L386.3,146.9L386.9,145.6L387.6,144.9L387.8,142.6L387.4,141.2L386.5,140.2L389.8,137.2L393.3,135.0L395.3,134.9L397.3,135.4L399.2,136.2L400.2,136.8L400.8,137.9L399.5,140.5L399.2,141.8ZM345.7,178.8L345.4,178.8L344.1,178.5L343.3,177.8L341.0,178.3L338.0,179.4L336.3,179.4L335.0,178.2L329.6,176.4L328.7,176.2L325.1,176.2L324.9,173.4L324.5,171.4L323.3,168.5L325.1,167.8L324.8,161.9L324.1,158.9L318.9,155.7L314.8,152.7L315.7,142.4L316.2,139.7L314.6,134.3L314.8,128.0L315.4,118.1L316.7,117.6L317.7,117.7L321.3,119.5L322.9,119.7L323.9,121.3L325.1,121.9L326.0,120.2L326.4,117.3L329.3,113.6L331.4,112.2L332.7,111.5L334.1,113.0L335.2,114.7L335.5,111.0L336.3,103.9L333.6,102.7L331.3,103.7L329.1,108.2L327.1,113.9L323.8,114.4L321.3,116.1L318.9,114.4L317.4,112.9L317.4,110.8L317.7,109.4L320.4,104.8L324.2,100.3L327.8,100.4L330.5,99.0L332.2,98.8L337.2,99.1L339.8,98.1L342.1,96.0L347.1,87.3L350.0,83.7L355.6,82.3L360.9,78.1L362.4,78.0L359.9,81.2L359.5,82.4L359.2,84.3L360.9,88.4L360.6,90.8L360.7,95.7L359.1,98.2L357.1,103.5L356.3,104.3L356.2,110.5L356.4,112.0L356.1,117.6L358.0,119.9L360.0,121.1L366.9,121.0L367.6,122.0L368.5,123.8L367.9,126.7L367.1,128.9L365.2,130.7L362.6,132.1L361.0,132.2L358.9,129.5L357.8,130.4L356.8,131.7L355.0,138.9L354.2,143.7L353.8,144.1L352.7,143.4L351.0,143.3L348.8,144.4L350.0,145.5L351.1,147.2L350.6,148.1L348.7,149.1L347.0,151.0L346.3,152.4L344.1,154.2L342.8,156.3L343.5,159.0L343.7,161.4L344.4,164.0L343.8,166.1L341.2,169.0L340.2,171.7L342.4,171.6L343.9,172.2L344.7,172.9L345.5,174.0L345.0,175.4ZM363.0,152.4L363.8,154.2L364.8,157.9L366.4,162.1L365.7,163.9L366.2,166.1L365.7,168.5L362.7,171.2L359.1,171.3L355.5,170.0L350.4,167.5L350.0,166.1L349.3,165.3L347.9,161.0L348.0,155.6L350.6,154.9L356.2,152.4L357.4,152.7L358.8,154.1L360.4,154.2L362.6,152.3ZM376.8,176.6L380.2,178.7L382.5,178.6L384.0,179.4L384.4,180.7L384.6,183.6L382.9,184.5L381.1,184.2L378.6,185.3L370.5,180.5L370.7,176.5L371.0,175.0L374.8,174.6ZM364.7,181.3L363.9,181.4L362.7,178.8L362.6,177.9L364.0,176.2L364.8,174.2L367.1,171.2L368.4,167.6L368.9,167.7L368.3,170.9L365.4,179.7ZM399.6,174.1L398.9,174.6L395.9,174.2L392.6,176.5L391.4,175.8L391.8,174.3L392.2,173.8L393.3,173.2L394.0,172.2L394.3,170.8L395.0,171.6L397.1,171.9L398.1,172.4L398.9,173.1ZM401.9,152.9L400.1,154.3L399.6,154.2L399.0,152.2L400.0,151.0L400.5,150.0L401.0,150.0L401.5,151.1ZM360.0,178.0L358.7,178.4L357.2,177.7L354.8,174.9L354.5,174.2L355.8,174.7L357.3,176.1L358.6,176.4L360.3,177.6ZM351.8,176.8L349.8,177.2L348.8,176.4L346.9,176.1L346.3,171.0L346.4,170.7L347.4,171.0L350.6,173.4L351.7,176.0ZM362.3,146.5L362.0,147.1L360.8,146.5L360.7,144.3L361.1,142.3L360.6,140.5L361.1,139.3L362.9,142.0L363.4,143.3L362.7,144.7ZM370.9,95.3L370.1,96.1L367.4,95.0L368.6,93.4L371.5,92.6L373.2,92.8L371.3,94.5ZM448.3,172.2L447.6,172.8L444.4,171.8L440.6,169.5L441.2,164.9L442.2,163.0L449.2,168.1L449.3,170.0Z" fill="#4ECDC4" stroke="#2C3E50" stroke-width="1"/></g><circle cx="400.0" cy="150.0" r="4" fill="#E74C3C" stroke="#fff" stroke-width="2"/><text x="400.0" y="140.0" text-anchor="middle" font-family="sans-serif" font-weight="700" font-size="10" fill="#2D3436">Copenhagen</text></svg>