<svg viewBox="0 0 800 300" xmlns="http://www.w3.org/2000/svg"><defs><clipPath id="v"><rect width="800" height="300"/></clipPath></defs><rect width="800" height="300" fill="#DCEEF8"/><g clip-path="url(#v)"><path d="M-320,-50L-319,-70L-337,-92L-320,-104L-315,-133L-321,-173L-312,-186L-257,-186L-216,-166L-198,-168L-185,-142L-147,-143L-149,-121L-118,-119L-84,-92L-110,-62L-143,-78L-175,-75L-198,-78L-210,-65L-237,-60L-248,-78L-271,-68L-299,-17L-317,-29Z" fill="#E0E0E0" stroke="#fff" stroke-width=".4"/><path d="M17,1144L4,1152L-10,1111L-29,1089L-52,1113L-188,1111L-187,1155L-147,1162L-149,1189L-163,1182L-202,1193L-202,1244L-171,1269L-161,1309L-162,1340L-194,1531L-229,1494L-249,1493L-204,1421L-258,1389L-300,1395L-325,1383L-364,1401L-416,1392L-457,1319L-489,1301L-511,1268L-558,1235L-576,1242L-606,1225L-640,1202L-660,1213L-719,1203L-736,1173L-750,1175L-819,1135L-829,1113L-803,1108L-806,1073L-790,1047L-755,1043L-725,999L-699,962L-724,945L-711,905L-727,841L-712,822L-723,763L-751,725L-742,691L-720,696L-707,675L-723,634L-714,623L-678,626L-626,576L-597,569L-596,545L-584,485L-544,452L-500,451L-494,436L-439,442L-385,406L-357,390L-324,356L-299,360L-281,379L-294,403L-339,415L-357,451L-384,471L-404,497L-413,548L-432,589L-396,594L-387,627L-371,642L-366,671L-374,697L-372,711L-354,717L-338,742L-248,735L-208,744L-158,804L-130,797L-80,801L-40,793L-15,805L-28,842L-44,866L-49,916L-35,963L-15,984L-13,999L-48,1034L-23,1049L-4,1074Z" fill="#E0E0E0" stroke="#fff" stroke-width=".4"/><path d="M446,868L455,887L429,914L352,940L301,951L281,968L226,950L174,941L161,948L192,966L189,1013L199,1057L258,1063L262,1077L212,1097L204,1127L175,1138L123,1155L110,1176L55,1180L17,1144L-4,1074L-23,1049L-48,1034L-13,999L-15,984L-35,963L-49,916L-44,866L-28,842L-15,805L-40,793L-80,801L-130,797L-158,804L-208,744L-248,735L-338,742L-354,717L-372,711L-374,697L-366,671L-371,642L-387,627L-396,594L-432,589L-413,548L-404,497L-384,471L-357,451L-339,415L-294,403L-296,420L-337,428L-314,460L-315,498L-346,539L-320,595L-289,590L-274,539L-295,514L-299,461L-212,432L-222,398L-197,376L-172,426L-123,427L-78,467L-75,490L-12,491L62,483L102,515L156,524L195,502L196,484L282,480L366,479L307,500L330,533L386,538L439,573L450,630L486,628L514,645L459,686L453,712L476,738L459,751L416,763L417,795L399,814Z" fill="#E0E0E0" stroke="#fff" stroke-width=".4"/><path d="M58,-85L94,-78L107,-63L89,-45L36,-45L-5,-43L-9,-74L1,-85Z" fill="#E0E0E0" stroke="#fff" stroke-width=".4"/><path d="M380,475L420,466L434,469L432,522L373,529L361,523L381,503Z" fill="#E0E0E0" stroke="#fff" stroke-width=".4"/></g><g clip-path="url(#v)"><path d="M407.6,153.6L401.0,155.3L398.3,142.7L393.7,133.7L394.5,128.0L395.3,125.9L404.8,129.4L407.8,133.5L409.6,144.7Z" fill="#4ECDC4" stroke="#2C3E50" stroke-width="1"/></g><circle cx="400.0" cy="150.0" r="4" fill="#E74C3C" stroke="#fff" stroke-width="2"/><text x="400.0" y="140.0" text-anchor="middle" font-family="sans-serif" font-weight="700" font-size="10" fill="#2D3436">Roseau</text></svg>