<svg viewBox="0 0 800 300" xmlns="http://www.w3.org/2000/svg"><defs><clipPath id="v"><rect width="800" height="300"/></clipPath></defs><rect width="800" height="300" fill="#DCEEF8"/><g clip-path="url(#v)"><path d="M310,85L314,113L311,134L298,142L311,158L310,172L277,163L254,167L223,163L200,173L174,157L178,140L224,147L261,151L279,140L256,117L257,97L225,89L236,74L267,76Z" fill="#E0E0E0" stroke="#fff" stroke-width=".4"/><path d="M-51,-298L-28,-303L5,-301L6,-287L-48,-278ZM8,-312L47,-287L39,-248L30,-255L30,-284L8,-306ZM-12,-211L3,-209L20,-163L21,-132L8,-129L-4,-160L-23,-176Z" fill="#E0E0E0" stroke="#fff" stroke-width=".4"/><path d="M550,1022L541,1028L531,999L517,983L501,1000L404,999L405,1030L434,1035L432,1054L422,1049L394,1057L394,1093L416,1111L424,1140L423,1161L400,1298L375,1271L361,1270L393,1220L355,1196L325,1201L307,1192L279,1205L242,1199L213,1147L190,1134L174,1110L141,1087L128,1092L107,1080L82,1063L68,1071L26,1064L14,1043L5,1044L-45,1015L-52,1000L-33,996L-35,971L-24,953L1,950L22,919L41,893L23,881L32,852L21,806L31,793L23,751L3,724L10,700L26,703L35,689L24,659L30,652L55,653L93,618L113,613L114,596L123,553L151,530L182,529L186,518L225,523L264,497L284,486L308,461L325,464L338,478L329,495L297,503L284,529L265,543L251,562L245,598L231,627L257,631L263,654L274,665L278,685L272,704L274,714L286,718L298,736L362,731L390,737L425,780L445,775L481,778L509,772L527,781L518,808L507,824L503,860L513,893L527,908L529,919L504,944L522,955L535,972Z" fill="#E0E0E0" stroke="#fff" stroke-width=".4"/><path d="M855,825L862,839L844,858L788,877L753,885L738,897L699,884L662,878L653,882L675,895L673,929L680,960L722,964L724,975L689,989L683,1010L663,1018L626,1030L616,1045L578,1048L550,1022L535,972L522,955L504,944L529,919L527,908L513,893L503,860L507,824L518,808L527,781L509,772L481,778L445,775L425,780L390,737L362,731L298,736L286,718L274,714L272,704L278,685L274,665L263,654L257,631L231,627L245,598L251,562L265,543L284,529L297,503L329,495L327,507L298,513L314,536L314,562L292,591L311,631L332,628L343,592L328,574L325,536L387,515L380,491L398,475L416,511L451,512L483,540L485,557L529,557L582,552L611,574L649,581L677,565L677,552L739,549L799,548L756,563L773,587L813,591L851,616L859,656L884,655L904,667L865,696L860,715L877,733L865,743L834,751L835,774L822,787Z" fill="#E0E0E0" stroke="#fff" stroke-width=".4"/><path d="M580,148L605,152L614,163L601,176L564,176L535,177L532,155L539,147Z" fill="#E0E0E0" stroke="#fff" stroke-width=".4"/><path d="M19,149L52,154L79,166L87,180L52,181L37,190L9,182L-19,163L-13,151L8,147Z" fill="#E0E0E0" stroke="#fff" stroke-width=".4"/><path d="M-215,-101L-172,-97L-133,-96L-86,-78L-66,-58L-20,-64L-2,-52L40,-19L71,5L87,5L117,16L113,31L150,33L187,54L182,67L148,74L115,76L81,72L10,77L43,48L23,34L-9,30L-26,15L-38,-15L-66,-13L-113,-28L-128,-39L-192,-47L-210,-58L-191,-71L-240,-74L-275,-46L-296,-45L-303,-32L-328,-26L-349,-31L-323,-48L-312,-67L-290,-79L-264,-90L-227,-95Z" fill="#E0E0E0" stroke="#fff" stroke-width=".4"/></g><g clip-path="url(#v)"><path d="M307.2,172.5L307.3,163.9L308.8,160.5L307.5,156.7L302.0,152.8L298.6,147.7L295.7,143.3L296.2,142.6L302.3,142.4L304.5,140.8L308.4,136.3L309.3,132.5L308.9,129.7L306.3,126.4L305.2,122.9L308.4,119.8L312.7,115.3L313.2,113.5L313.2,111.9L308.2,107.2L307.9,105.1L310.2,100.0L310.0,96.5L307.7,85.9L306.6,84.4L308.8,83.5L310.2,80.3L312.2,77.5L314.7,75.9L317.7,75.0L323.4,75.1L331.3,77.6L333.6,77.5L341.3,75.3L347.6,74.0L353.7,75.5L356.0,77.4L361.0,80.4L363.5,81.3L371.2,81.3L373.3,81.5L380.0,86.6L385.3,88.6L388.5,88.7L394.3,86.8L397.1,86.8L400.4,91.1L401.1,97.3L403.8,102.9L408.0,106.4L428.6,105.0L433.1,107.9L431.7,110.4L428.6,111.6L419.0,111.1L414.7,111.4L413.8,113.7L413.8,116.0L419.5,116.6L425.0,117.7L430.8,119.5L436.7,120.7L443.1,121.5L449.5,122.8L460.5,127.2L472.3,137.2L475.5,139.4L477.6,142.5L476.6,146.5L472.3,152.7L469.9,154.7L466.4,156.0L464.0,158.5L461.7,163.0L460.3,163.4L458.7,163.2L455.8,160.6L453.7,156.8L447.9,153.3L441.1,153.7L431.1,151.5L425.0,152.6L419.0,152.8L412.7,151.7L406.4,151.4L400.2,152.7L394.1,155.0L391.9,156.5L388.0,160.1L385.9,161.5L371.2,163.3L366.9,160.6L363.0,157.0L357.2,156.5L349.0,159.3L344.0,160.3L341.9,161.5L341.3,162.8L341.3,167.9L340.1,170.9L332.0,182.4L327.5,190.6L325.8,193.1L323.6,193.6L319.5,188.9L317.0,187.2L314.0,186.4L312.7,184.0L312.7,180.4L311.8,177.0L310.0,174.3Z" fill="#4ECDC4" stroke="#2C3E50" stroke-width="1"/></g><circle cx="400.0" cy="150.0" r="4" fill="#E74C3C" stroke="#fff" stroke-width="2"/><text x="400.0" y="140.0" text-anchor="middle" font-family="sans-serif" font-weight="700" font-size="10" fill="#2D3436">Santo Domingo</text></svg>