<svg viewBox="0 0 800 300" xmlns="http://www.w3.org/2000/svg"><defs><clipPath id="v"><rect width="800" height="300"/></clipPath></defs><rect width="800" height="300" fill="#DCEEF8"/><g clip-path="url(#v)"><path d="M1421,484L1422,483L1424,485L1423,488L1420,489L1416,488L1416,486L1418,484ZM1432,479L1428,480L1424,481L1423,479L1426,478L1428,477L1432,476L1432,476L1432,479ZM-667,476L-667,476L-667,476L-666,475L-667,478L-667,479L-667,479L-667,476Z" fill="#E0E0E0" stroke="#fff" stroke-width=".4"/><path d="M580,386L581,387L602,399L602,402L611,408L608,415L608,418L612,421L612,422L611,426L611,427L611,430L613,434L615,440L617,441L613,445L606,447L603,447L601,449L597,449L595,449L588,448L584,448L582,440L580,437L579,436L573,435L570,433L566,432L564,431L561,429L558,422L555,419L554,415L554,412L553,407L556,407L558,405L560,401L562,400L561,398L560,397L560,395L562,394L562,391L560,387L562,387L568,387Z" fill="#E0E0E0" stroke="#fff" stroke-width=".4"/><path d="M332,213L332,213L332,214L332,224L313,224L313,240L307,241L306,244L307,253L284,253L283,255L283,253L283,253L296,252L297,250L299,247L301,238L309,232L312,223L314,223L316,218L321,217L323,218L326,218L327,216L331,216L331,213Z" fill="#E0E0E0" stroke="#fff" stroke-width=".4"/><path d="M-334,52L-335,52L-346,43L-350,39L-361,35L-364,27L-363,21L-370,17L-371,9L-379,2L-379,-3L-375,-8L-376,-14L-386,-21L-391,-33L-395,-41L-400,-46L-404,-51L-407,-57L-413,-53L-419,-47L-424,-54L-428,-59L-434,-62L-440,-63L-440,-137L-440,-194L-429,-190L-420,-182L-413,-181L-408,-188L-401,-193L-393,-191L-384,-198L-374,-202L-370,-195L-366,-199L-365,-207L-361,-205L-351,-190L-343,-202L-342,-189L-335,-192L-333,-197L-326,-196L-317,-189L-303,-183L-295,-180L-290,-181L-282,-173L-290,-165L-279,-162L-264,-163L-259,-166L-252,-157L-246,-165L-252,-171L-248,-177L-241,-177L-237,-179L-232,-175L-226,-167L-219,-168L-209,-161L-200,-163L-192,-163L-192,-173L-187,-176L-178,-170L-178,-156L-174,-168L-170,-167L-167,-183L-173,-194L-180,-201L-180,-220L-173,-233L-165,-230L-159,-222L-151,-202L-156,-194L-146,-191L-146,-174L-138,-187L-131,-176L-133,-164L-127,-154L-121,-165L-117,-179L-116,-197L-108,-196L-99,-193L-92,-185L-91,-177L-96,-169L-91,-160L-92,-153L-104,-143L-112,-140L-118,-145L-119,-137L-125,-125L-127,-119L-134,-110L-142,-109L-146,-104L-147,-95L-154,-94L-161,-84L-167,-70L-169,-61L-170,-47L-161,-45L-158,-35L-156,-27L-148,-29L-137,-24L-131,-20L-127,-15L-119,-12L-113,-8L-104,-7L-97,-6L-98,2L-96,12L-92,23L-84,32L-79,29L-76,19L-79,4L-83,-2L-74,-6L-67,-13L-64,-21L-64,-28L-68,-37L-75,-46L-69,-58L-71,-68L-73,-87L-69,-90L-59,-87L-53,-86L-48,-89L-43,-85L-36,-77L-34,-73L-23,-72L-24,-62L-22,-47L-16,-46L-12,-39L-4,-45L2,-58L6,-63L10,-53L18,-38L24,-25L22,-19L30,-13L35,-7L44,-4L48,-1L50,7L55,9L57,12L58,23L53,27L49,30L40,33L32,41L22,42L10,40L1,40L-5,41L-10,47L-17,51L-26,63L-32,71L-27,70L-18,58L-6,51L3,50L8,54L3,60L5,70L6,76L14,80L24,79L29,69L30,76L34,79L26,84L14,89L8,92L1,98L-3,98L-3,91L7,84L-3,84L-9,85L-13,80L-13,69L-15,66L-19,68L-21,66L-26,72L-28,79L-30,82L-32,84L-34,84L-35,86L-45,86L-54,86L-57,88L-63,94L-64,94L-66,97L-71,97L-77,97L-79,99L-78,100L-78,103L-78,104L-86,107L-92,109L-98,113L-100,113L-102,112L-102,111L-102,110L-101,107L-98,103L-97,98L-98,91L-99,83L-105,79L-104,78L-105,77L-107,77L-108,76L-108,74L-109,74L-111,74L-111,73L-112,73L-112,70L-117,68L-122,65L-127,61L-133,58L-138,61L-140,61L-147,58L-152,60L-158,57L-164,56L-168,55L-169,53L-170,49L-172,49L-172,52L-185,52L-204,52L-224,52L-242,52L-259,52L-276,52L-294,52L-300,52L-317,52ZM-107,-89L-103,-95L-95,-95L-95,-92L-102,-85L-106,-86ZM-83,-250L-89,-261L-89,-268L-86,-270L-73,-267L-63,-256L-62,-251L-68,-251L-75,-252L-81,-249ZM-86,-84L-84,-88L-81,-88L-80,-85L-82,-79L-85,-80L-86,-83ZM-163,-296L-167,-287L-175,-289L-182,-295L-179,-305L-171,-311L-166,-303ZM-165,-359L-167,-358L-178,-360L-180,-367L-168,-367L-164,-362ZM-182,-394L-175,-384L-176,-373L-185,-368L-190,-374L-192,-385L-193,-397L-185,-396ZM-132,-283L-141,-286L-156,-293L-159,-305L-159,-317L-165,-328L-177,-331L-184,-338L-182,-349L-170,-347L-163,-339L-152,-339L-147,-331L-148,-322L-141,-316L-138,-311L-130,-310L-121,-308L-112,-313L-100,-315L-91,-313L-84,-304L-83,-295L-87,-289L-95,-284L-103,-287L-120,-284ZM-266,-376L-258,-372L-260,-363L-271,-356L-280,-364L-275,-373ZM-265,-395L-257,-389L-264,-383L-274,-383L-274,-388L-268,-397ZM58,31L55,37L51,45L55,42L59,44L57,47L62,49L65,47L71,50L69,56L73,55L74,59L75,65L73,72L70,73L66,71L68,64L66,63L59,70L56,70L60,66L54,64L48,65L37,64L36,62L40,59L37,56L42,51L48,37L52,31L57,28L59,28ZM-107,-124L-100,-119L-94,-115L-93,-109L-89,-110L-85,-105L-90,-101L-99,-104L-102,-110L-108,-103L-116,-97L-118,-104L-126,-103L-121,-109L-120,-120L-118,-133L-114,-132L-113,-126L-110,-128ZM-77,-242L-71,-249L-58,-239L-50,-230L-50,-222L-39,-227L-33,-215L-19,-208L-14,-201L-8,-185L-19,-178L-5,-167L4,-164L13,-150L22,-149L20,-139L10,-122L3,-128L-7,-142L-14,-140L-15,-132L-9,-124L-1,-118L1,-114L5,-101L3,-92L-4,-95L-19,-106L-10,-94L-4,-87L-3,-82L-19,-87L-32,-95L-39,-101L-37,-105L-45,-112L-54,-118L-54,-114L-71,-112L-76,-117L-72,-127L-61,-127L-49,-129L-51,-134L-49,-141L-41,-155L-43,-162L-45,-168L-54,-175L-66,-181L-62,-185L-68,-195L-73,-196L-78,-202L-81,-197L-92,-195L-113,-198L-125,-203L-135,-206L-140,-212L-133,-220L-142,-220L-144,-239L-139,-257L-133,-265L-118,-271L-122,-257L-118,-245L-112,-261L-98,-270L-88,-249L-88,-236ZM-169,-278L-156,-277L-145,-272L-154,-254L-161,-250L-167,-235L-174,-236L-178,-253L-177,-263L-174,-272ZM-334,-323L-324,-341L-312,-358L-303,-358L-295,-362L-296,-342L-300,-333L-306,-332L-317,-321L-326,-317ZM-391,5L-386,4L-388,15L-382,23L-385,23L-388,18L-390,14L-393,11L-394,7L-394,3ZM-233,-410L-221,-406L-205,-395L-201,-381L-199,-369L-208,-372L-218,-382L-231,-383L-225,-391L-232,-399ZM-338,56L-341,58L-350,54L-352,50L-357,47L-358,45L-364,43L-366,38L-366,36L-360,38L-356,39L-351,40L-349,44L-346,48L-340,51ZM-326,-284L-318,-280L-303,-279L-297,-273L-291,-264L-298,-259L-313,-245L-320,-231L-320,-223L-335,-215L-338,-223L-352,-232L-349,-240L-345,-255L-340,-268L-346,-281ZM-246,-316L-241,-320L-235,-319L-234,-308L-237,-297L-257,-293L-272,-284L-281,-283L-282,-290L-269,-300L-296,-298L-304,-302L-296,-325L-290,-332L-274,-323L-264,-309L-254,-307L-262,-330L-257,-340L-251,-337L-249,-325ZM-239,-256L-232,-248L-228,-229L-227,-216L-217,-208L-206,-199L-207,-192L-217,-191L-213,-184L-215,-178L-225,-181L-235,-185L-242,-184L-253,-179L-268,-176L-278,-175L-281,-182L-289,-187L-295,-185L-302,-198L-298,-200L-289,-203L-281,-202L-273,-205L-284,-209L-297,-208L-305,-208L-308,-215L-295,-222L-304,-222L-314,-227L-309,-241L-305,-248L-289,-261L-283,-257L-286,-247L-273,-253L-265,-243L-258,-253L-253,-247L-248,-228L-245,-236L-250,-256L-244,-259ZM-203,-248L-210,-261L-203,-271L-196,-267L-185,-270L-184,-264L-189,-254L-180,-246L-182,-228L-191,-221L-197,-223L-201,-230L-215,-245L-215,-251ZM-239,-266L-231,-267L-227,-263L-232,-249L-241,-264ZM-192,-338L-187,-326L-187,-314L-190,-297L-200,-294L-206,-298L-206,-311L-215,-310L-216,-328L-209,-327L-201,-336L-192,-334ZM-177,-454L-173,-465L-167,-468L-170,-476L-156,-478L-149,-458L-139,-451L-130,-444L-125,-422L-118,-412L-126,-402L-137,-380L-147,-378L-159,-382L-165,-394L-165,-405L-161,-413L-171,-413L-178,-423L-181,-438ZM-152,-504L-143,-511L-136,-513L-125,-520L-116,-536L-109,-534L-103,-522L-98,-546L-90,-554L-80,-559L-62,-561L-59,-556L-42,-564L-30,-561L-17,-558L-1,-554L11,-548L22,-535L21,-523L7,-505L-7,-497L-12,-488L1,-488L-13,-465L-23,-454L-33,-426L-45,-421L-48,-414L-66,-411L-58,-407L-62,-402L-57,-387L-63,-377L-72,-369L-75,-358L-83,-350L-82,-344L-72,-345L-72,-339L-87,-324L-103,-331L-120,-327L-128,-330L-139,-331L-140,-344L-129,-349L-132,-369L-129,-371L-113,-359L-121,-377L-130,-382L-126,-394L-115,-401L-114,-412L-122,-424L-124,-442L-109,-440L-104,-436L-95,-449L-108,-453L-128,-451L-139,-463L-144,-478L-150,-490ZM-56,-158L-60,-153L-67,-153L-68,-160L-65,-169L-60,-171L-56,-167L-56,-160ZM-179,-190L-175,-184L-179,-178L-187,-183L-192,-182L-199,-189L-194,-194L-190,-201L-184,-197L-181,-194ZM6,44L8,43L16,46L22,49L22,51L19,51L12,48ZM9,69L11,73L15,74L21,74L18,78L16,78L8,75L7,72Z" fill="#E0E0E0" stroke="#fff" stroke-width=".4"/><path d="M-334,52L-317,52L-300,52L-294,52L-276,52L-259,52L-242,52L-224,52L-204,52L-185,52L-172,52L-172,49L-170,49L-169,53L-168,55L-164,56L-158,57L-152,60L-147,58L-140,61L-138,61L-133,58L-127,61L-122,65L-117,68L-112,70L-112,73L-111,73L-111,74L-109,74L-108,74L-108,76L-107,77L-105,77L-104,78L-105,79L-99,83L-98,91L-97,98L-98,103L-101,107L-102,110L-102,111L-102,112L-100,113L-98,113L-92,109L-86,107L-78,104L-78,103L-78,100L-79,99L-77,97L-71,97L-66,97L-64,94L-63,94L-57,88L-54,86L-45,86L-35,86L-34,84L-32,84L-30,82L-28,79L-26,72L-21,66L-19,68L-15,66L-13,69L-13,80L-9,85L-8,88L-14,92L-20,95L-26,97L-30,102L-31,104L-31,108L-29,112L-26,112L-27,109L-25,111L-26,113L-30,114L-32,114L-37,116L-39,116L-43,116L-47,119L-39,117L-37,119L-45,121L-49,121L-49,120L-51,122L-49,123L-50,128L-54,134L-55,132L-56,132L-58,130L-57,134L-55,135L-55,138L-57,141L-60,147L-61,146L-59,141L-62,138L-63,132L-64,135L-63,140L-67,139L-63,141L-62,148L-61,149L-60,151L-59,159L-63,164L-69,166L-73,170L-76,171L-79,173L-79,176L-86,180L-89,183L-92,187L-93,192L-92,197L-90,203L-87,207L-87,210L-84,218L-85,222L-85,225L-86,229L-88,230L-91,229L-92,226L-94,224L-97,219L-100,214L-101,211L-100,207L-101,203L-106,198L-108,197L-114,200L-115,199L-118,196L-121,194L-128,195L-133,195L-138,195L-140,196L-139,198L-139,201L-138,202L-139,203L-141,202L-143,203L-148,203L-152,199L-157,200L-161,199L-165,199L-170,201L-175,206L-181,208L-184,212L-185,215L-185,219L-185,222L-184,224L-186,225L-190,223L-195,221L-197,218L-198,214L-201,210L-203,206L-206,201L-210,199L-215,199L-219,204L-224,202L-227,200L-228,196L-230,193L-233,190L-236,188L-239,185L-249,185L-249,188L-253,188L-265,188L-278,183L-287,180L-286,179L-294,179L-301,180L-301,176L-305,172L-308,171L-309,169L-312,169L-314,167L-319,167L-321,165L-322,161L-327,154L-332,144L-332,142L-334,140L-339,134L-340,128L-343,123L-342,117L-342,110L-344,104L-341,97L-341,89L-340,82L-341,71L-343,63L-345,59L-344,58L-335,60L-332,69L-331,66L-332,59ZM-524,261L-523,262L-522,262L-520,265L-520,265L-523,266L-524,267L-525,268L-527,267L-527,266L-528,263L-527,263L-526,262L-527,261L-526,260L-526,260ZM-527,257L-528,258L-530,258L-531,257L-531,256L-531,256L-531,255L-529,256ZM-532,254L-532,255L-535,255L-534,254ZM-539,251L-538,251L-537,253L-537,254L-537,254L-540,253L-540,252L-540,252ZM-547,248L-547,249L-547,250L-549,249L-549,248L-548,248ZM-588,-64L-584,-63L-583,-58L-587,-56L-590,-59L-594,-62ZM-511,-36L-507,-35L-505,-32L-510,-27L-515,-23L-518,-26L-519,-31L-514,-35ZM-440,-194L-440,-137L-440,-63L-434,-62L-428,-59L-424,-54L-419,-47L-413,-53L-407,-57L-404,-51L-400,-46L-395,-41L-391,-33L-386,-21L-376,-14L-375,-8L-379,-3L-382,-7L-387,-10L-389,-19L-396,-28L-399,-38L-405,-39L-414,-39L-421,-42L-433,-54L-439,-56L-449,-60L-457,-59L-468,-65L-475,-70L-482,-67L-481,-59L-484,-58L-491,-56L-496,-52L-502,-50L-503,-56L-500,-68L-494,-71L-496,-75L-503,-68L-507,-60L-516,-52L-511,-46L-517,-38L-523,-34L-529,-30L-530,-26L-539,-20L-541,-15L-548,-11L-552,-11L-558,-9L-563,-5L-568,-2L-578,1L-579,-1L-573,-5L-567,-8L-561,-14L-554,-15L-551,-20L-543,-26L-541,-28L-537,-32L-536,-40L-533,-47L-540,-43L-542,-45L-545,-41L-549,-47L-550,-43L-552,-49L-558,-44L-562,-44L-562,-51L-561,-55L-565,-59L-573,-57L-578,-62L-582,-65L-582,-72L-586,-77L-584,-84L-579,-91L-577,-98L-572,-99L-568,-97L-564,-103L-559,-102L-555,-106L-556,-112L-559,-114L-555,-120L-559,-119L-565,-116L-567,-113L-571,-116L-579,-115L-588,-118L-590,-124L-598,-132L-590,-138L-577,-145L-572,-145L-573,-138L-560,-138L-565,-147L-572,-153L-576,-161L-582,-167L-590,-172L-587,-180L-576,-181L-569,-188L-568,-197L-562,-205L-556,-207L-545,-215L-539,-213L-530,-223L-522,-219L-517,-211L-515,-214L-505,-213L-505,-209L-496,-206L-491,-208L-478,-203L-467,-201L-463,-199L-455,-202L-446,-196ZM-619,-106L-615,-104L-612,-105L-607,-101L-601,-100L-602,-98L-606,-96L-610,-98L-613,-101L-618,-100L-619,-101Z" fill="#E0E0E0" stroke="#fff" stroke-width=".4"/><path d="M892,50L887,56L882,57L882,66L879,69L867,67L863,82L860,84L848,87L854,101L850,103L850,108L847,106L844,104L835,103L825,103L823,103L815,100L812,102L811,106L801,104L797,105L796,108L793,110L785,115L782,121L780,121L779,117L771,117L770,110L767,110L768,102L761,97L751,97L744,98L738,91L733,88L724,82L723,81L708,86L709,116L706,116L701,110L698,108L691,109L688,112L688,110L689,107L688,104L682,101L679,94L676,92L676,89L681,90L681,84L686,83L691,84L693,76L691,71L686,71L681,69L674,73L669,75L666,73L666,69L662,63L658,63L653,57L657,51L655,49L659,39L665,44L666,38L678,27L687,27L700,34L707,37L713,34L722,33L730,38L732,35L740,36L741,31L732,25L737,20L736,18L742,15L738,8L740,5L762,2L765,-1L780,-5L785,-9L795,-7L797,4L803,1L811,5L810,10L816,10L831,0L828,3L836,11L849,35L852,30L860,36L868,33L872,35L874,40L878,42L881,46L888,45Z" fill="#E0E0E0" stroke="#fff" stroke-width=".4"/><path d="M709,116L708,86L723,81L724,82L733,88L738,91L744,98L751,97L761,97L768,102L767,110L770,110L771,117L779,117L780,121L782,121L785,115L793,110L796,108L798,109L793,114L797,117L801,115L808,119L801,125L796,124L794,124L793,122L794,118L786,120L785,125L782,129L777,129L775,132L780,134L781,140L778,147L773,146L770,146L770,141L762,138L756,134L753,131L746,125L743,118L741,116L735,116L733,115L732,109L724,104L719,109L714,112L715,116Z" fill="#E0E0E0" stroke="#fff" stroke-width=".4"/><path d="M1204,396L1204,415L1204,434L1199,429L1193,428L1192,430L1184,430L1187,425L1191,423L1189,417L1186,412L1175,407L1170,407L1161,401L1160,404L1157,405L1156,402L1156,400L1152,397L1158,395L1162,395L1162,394L1153,394L1151,390L1146,389L1143,386L1151,385L1154,383L1163,385L1164,387L1166,397L1172,400L1177,394L1183,391L1189,391L1194,393L1198,395ZM1111,433L1111,434L1111,436L1108,440L1103,441L1102,441L1103,439L1105,435ZM1165,421L1164,417L1165,414L1166,412L1168,414L1168,417ZM1069,357L1066,362L1070,367L1069,370L1076,375L1069,376L1067,380L1067,385L1062,389L1062,395L1059,404L1059,402L1052,405L1050,401L1045,401L1042,399L1036,401L1033,398L1030,398L1025,398L1024,390L1021,388L1018,383L1017,378L1018,373L1022,369L1023,373L1027,376L1030,375L1034,375L1037,372L1040,372L1046,374L1050,372L1053,364L1056,362L1058,356L1064,356ZM1136,397L1143,399L1145,403L1140,401L1135,400L1132,401L1128,400L1129,397ZM1122,403L1118,402L1117,399L1123,399L1124,401ZM1128,368L1128,371L1132,372L1132,374L1132,379L1129,379L1128,382L1131,385L1129,386L1127,382L1125,375L1126,370ZM1099,376L1106,375L1111,371L1112,372L1108,378L1103,379L1098,378L1088,378L1083,379L1082,384L1087,389L1090,386L1101,384L1101,387L1098,386L1096,389L1091,392L1096,399L1095,401L1100,408L1100,412L1097,414L1095,411L1098,407L1092,409L1090,407L1091,405L1087,402L1087,396L1084,398L1084,405L1084,413L1081,414L1078,412L1080,407L1079,401L1076,401L1075,397L1077,393L1078,389L1081,380L1082,377L1087,373L1092,375ZM1084,441L1076,437L1081,435L1084,437L1086,439L1086,441ZM1090,431L1094,430L1099,428L1098,431L1089,433L1081,432L1081,430L1086,429ZM1072,430L1075,429L1077,432L1070,433L1066,434L1063,434L1065,430L1068,430L1070,428ZM1015,418L1015,420L1027,421L1028,418L1039,421L1041,425L1050,426L1057,430L1050,432L1044,429L1038,430L1032,429L1027,428L1020,426L1016,425L1013,426L1003,424L1002,421L996,421L1000,415L1008,415L1012,418ZM991,387L992,391L994,394L998,395L1001,398L999,406L999,415L993,415L988,410L980,405L978,402L973,397L970,393L966,384L961,380L959,375L957,370L952,366L949,361L944,358L938,352L938,349L942,349L951,350L956,356L960,360L963,362L969,368L975,368L980,372L983,377L988,380L985,385L989,387Z" fill="#E0E0E0" stroke="#fff" stroke-width=".4"/><path d="M-18,743L-18,765L-12,765L-8,765L-10,769L-15,772L-18,772L-21,771L-26,768L-32,767L-39,761L-45,756L-53,745L-48,747L-40,753L-32,757L-29,752L-27,746L-22,742ZM-23,485L-21,489L-20,493L-17,496L-19,502L-15,509L-13,518L-9,517L-8,518L-10,525L-17,528L-16,539L-18,541L-16,544L-20,548L-24,554L-26,560L-25,566L-29,573L-26,585L-25,587L-25,593L-28,600L-28,606L-32,611L-32,617L-31,625L-34,627L-36,634L-37,642L-36,651L-38,653L-37,662L-34,665L-36,669L-34,670L-33,673L-35,675L-35,680L-37,691L-40,698L-39,703L-41,708L-46,712L-45,722L-43,725L-39,724L-39,731L-37,737L-23,738L-17,740L-23,740L-25,742L-31,745L-32,754L-34,755L-41,751L-47,745L-55,739L-56,733L-55,728L-58,722L-58,706L-56,698L-50,691L-59,689L-53,681L-51,668L-45,671L-42,654L-46,652L-47,662L-51,661L-49,649L-47,635L-45,630L-46,623L-47,614L-44,614L-41,602L-37,591L-34,581L-36,570L-34,565L-34,556L-31,548L-30,536L-28,522L-26,508L-27,498L-28,489L-25,488Z" fill="#E0E0E0" stroke="#fff" stroke-width=".4"/><path d="M553,407L554,412L554,415L555,419L558,422L561,429L559,429L551,430L550,431L548,434L549,437L548,444L548,450L549,451L553,453L555,452L555,459L551,459L549,455L546,453L542,452L541,449L537,451L532,450L530,447L527,447L524,447L524,445L522,445L519,444L515,445L513,445L511,446L512,439L510,436L509,433L510,429L509,427L509,423L502,423L502,421L499,421L499,422L495,422L494,426L493,427L490,427L488,427L484,428L482,425L481,423L479,419L477,415L460,415L458,416L457,415L454,416L453,414L455,414L455,411L456,410L458,409L460,409L462,407L465,407L465,409L467,410L471,406L474,403L476,401L475,396L478,391L481,388L484,385L485,383L485,381L486,379L486,376L487,370L488,367L490,364L490,360L490,356L493,353L496,351L501,353L504,355L509,356L513,357L515,354L515,353L518,354L525,351L527,352L529,352L530,350L532,350L536,351L540,351L542,350L545,355L548,356L550,355L552,355L556,354L557,356L562,360L562,367L564,368L562,370L560,371L558,374L556,377L556,382L555,384L555,388L553,390L553,394L552,394L551,397L553,400Z" fill="#E0E0E0" stroke="#fff" stroke-width=".4"/><path d="M625,390L621,386L621,364L626,358L628,356L632,356L637,352L644,351L661,334L665,329L668,325L668,322L668,316L668,314L668,314L669,314L672,313L675,312L678,310L680,310L680,312L680,315L680,318L679,320L677,327L674,333L671,341L666,349L661,356L654,364L648,369L639,374L634,379L627,386L626,389Z" fill="#E0E0E0" stroke="#fff" stroke-width=".4"/><path d="M611,408L602,402L602,399L581,387L580,386L580,380L582,378L584,374L587,370L584,363L583,360L581,356L584,352L588,348L591,349L591,353L593,355L597,355L605,360L606,360L608,360L609,360L613,361L615,358L620,356L622,358L626,358L621,364L621,386L625,390L621,393L619,395L617,396L616,400L614,402L613,406Z" fill="#E0E0E0" stroke="#fff" stroke-width=".4"/><path d="M525,332L521,330L519,328L519,326L520,324L520,322L516,318L516,315L516,314L513,312L513,309L512,306L510,307L511,304L512,302L512,299L514,298L512,296L514,293L516,288L522,288L521,264L521,262L528,262L528,249L551,249L574,249L597,249L599,255L598,256L599,263L601,270L603,272L606,274L603,277L599,278L597,280L597,284L594,293L595,296L594,301L591,307L588,310L585,314L585,317L582,318L580,325L580,330L580,325L579,325L580,322L579,320L576,318L575,313L576,309L573,309L573,310L569,310L571,312L571,316L568,319L565,323L562,324L557,320L555,322L554,323L551,324L551,326L545,326L545,324L540,324L538,325L537,325L534,321L533,320L528,320L527,323L525,328L523,330L522,330Z" fill="#E0E0E0" stroke="#fff" stroke-width=".4"/><path d="M521,264L522,288L516,288L514,293L512,296L514,298L512,299L512,302L511,304L510,307L512,306L513,309L513,312L516,314L516,315L512,316L509,319L505,325L499,328L494,328L492,328L493,330L489,332L487,334L480,337L478,335L477,335L476,337L471,337L472,336L470,332L470,329L467,328L464,325L465,322L468,323L469,322L472,322L469,317L469,313L469,309L467,305L467,302L464,302L464,298L461,296L464,288L471,282L471,274L474,262L475,259L473,257L472,255L470,253L469,244L475,240L498,252Z" fill="#E0E0E0" stroke="#fff" stroke-width=".4"/><path d="M-36,263L-35,267L-36,269L-37,270L-36,272L-36,274L-40,273L-42,273L-46,273L-49,274L-52,272L-51,270L-46,271L-41,271L-39,270L-42,267L-42,265L-46,264L-44,262L-41,262Z" fill="#E0E0E0" stroke="#fff" stroke-width=".4"/><path d="M-36,274L-36,272L-37,270L-36,269L-35,267L-36,263L-35,262L-30,262L-27,264L-25,264L-24,266L-21,266L-21,268L-19,268L-16,270L-18,273L-21,271L-24,272L-26,271L-27,272L-29,273L-30,271L-32,272L-34,276L-35,275Z" fill="#E0E0E0" stroke="#fff" stroke-width=".4"/><path d="M929,-469L942,-478L953,-459L966,-426L965,-397L952,-394L936,-402L926,-414L922,-438L914,-445ZM982,-410L997,-392L995,-381L962,-370L973,-408L977,-412ZM1192,-323L1207,-322L1228,-310L1223,-293L1202,-293L1192,-288L1181,-303L1184,-319ZM1246,-304L1261,-298L1254,-290L1245,-292L1234,-300L1235,-308ZM1198,-262L1203,-270L1210,-272L1219,-264L1219,-258L1211,-258L1199,-261ZM644,-453L655,-460L664,-460L665,-451L668,-459L674,-465L683,-457L680,-452L673,-447L667,-445L666,-439L660,-433L653,-441L657,-452ZM515,2L504,2L497,1L498,-4L506,-7L512,-5L515,-3L514,-1ZM694,-270L708,-288L707,-298L720,-311L739,-326L758,-331L768,-340L780,-343L784,-333L780,-326L759,-314L741,-302L723,-281L714,-261L705,-242L707,-226L718,-211L714,-210L695,-212L694,-220L683,-225L682,-235L688,-239L688,-250L700,-267ZM1215,8L1217,17L1217,27L1220,36L1226,52L1217,49L1213,62L1219,71L1219,77L1214,72L1211,78L1210,71L1210,63L1209,53L1211,47L1211,34L1208,25L1208,12L1214,8L1211,3L1214,2ZM-667,-182L-667,-182L-653,-170L-637,-154L-638,-145L-634,-141L-635,-152L-620,-150L-608,-136L-614,-130L-623,-129L-624,-115L-626,-112L-631,-113L-636,-117L-644,-121L-645,-127L-651,-130L-657,-128L-661,-133L-659,-138L-666,-135L-664,-128L-667,-122L-667,-122L-667,-182ZM1432,-122L1432,-122L1424,-116L1416,-117L1422,-110L1425,-99L1428,-96L1429,-90L1427,-87L1416,-90L1400,-80L1395,-79L1386,-70L1377,-63L1375,-58L1367,-66L1352,-57L1349,-61L1343,-56L1336,-58L1334,-50L1327,-39L1327,-35L1334,-32L1333,-17L1327,-16L1325,-8L1327,-3L1317,2L1315,13L1306,15L1305,25L1296,34L1294,27L1292,13L1288,-9L1291,-23L1296,-30L1296,-35L1305,-37L1316,-51L1326,-63L1336,-73L1341,-90L1334,-89L1330,-79L1316,-66L1311,-80L1296,-76L1281,-56L1286,-49L1273,-46L1264,-45L1264,-53L1255,-55L1248,-50L1230,-52L1211,-48L1192,-27L1170,-2L1179,-1L1182,5L1188,8L1191,3L1198,3L1206,14L1206,22L1202,32L1201,43L1199,57L1190,69L1188,75L1180,85L1172,95L1168,99L1161,104L1157,104L1153,100L1146,106L1145,109L1145,109L1144,107L1144,103L1147,103L1148,94L1146,87L1151,84L1158,85L1162,77L1164,68L1166,65L1169,57L1160,59L1155,63L1146,63L1143,54L1137,48L1126,45L1124,36L1122,31L1120,27L1116,17L1111,13L1103,11L1095,11L1088,13L1083,17L1086,20L1086,25L1083,28L1078,38L1078,42L1069,47L1062,44L1056,45L1052,42L1049,41L1040,47L1033,49L1027,51L1020,49L1015,50L1011,45L1005,41L1000,39L992,41L987,42L978,38L977,31L970,29L965,28L959,24L953,34L955,39L949,46L941,43L935,43L931,39L925,39L920,36L911,40L900,48L894,49L892,50L888,45L881,46L878,42L874,40L872,35L868,33L860,36L852,30L849,35L836,11L828,3L831,0L816,10L810,10L811,5L803,1L797,4L795,-7L785,-9L780,-5L765,-1L762,2L740,5L738,8L742,15L736,18L737,20L732,25L741,31L740,36L732,35L730,38L722,33L713,34L707,37L700,34L687,27L678,27L666,38L665,44L659,39L655,49L657,51L653,57L658,63L662,63L666,69L666,73L669,75L666,80L660,81L654,89L660,97L659,103L665,112L662,115L661,117L658,116L654,112L653,111L649,110L647,106L642,105L638,106L637,105L629,101L621,99L616,98L615,99L608,92L601,89L596,84L600,83L605,76L602,73L610,69L610,67L605,69L605,65L608,62L614,62L615,59L614,54L616,49L616,47L607,44L604,44L600,40L596,41L588,38L589,36L586,32L582,32L581,29L583,27L579,21L573,22L571,22L570,24L568,24L566,17L565,14L566,13L571,14L573,12L571,9L567,7L568,5L565,4L562,-3L563,-6L562,-11L557,-13L553,-12L553,-14L547,-17L545,-23L544,-28L541,-31L544,-34L542,-45L546,-51L545,-53L552,-60L546,-65L558,-81L564,-88L566,-94L557,-103L560,-112L555,-122L558,-134L552,-150L557,-162L548,-172L549,-183L554,-185L564,-192L570,-197L579,-187L595,-183L617,-165L622,-158L622,-148L616,-140L606,-137L580,-148L576,-146L585,-135L586,-129L586,-115L593,-110L598,-107L599,-113L595,-119L599,-125L613,-116L618,-119L614,-129L628,-143L633,-143L638,-138L642,-148L637,-156L640,-166L636,-175L652,-170L655,-162L648,-160L648,-151L652,-146L661,-149L663,-159L675,-166L695,-180L700,-179L694,-170L701,-168L705,-173L716,-174L725,-180L732,-171L738,-181L732,-191L735,-196L752,-191L761,-186L782,-168L786,-176L780,-185L779,-188L772,-190L774,-198L771,-211L771,-217L782,-234L786,-251L790,-255L805,-250L807,-239L801,-224L805,-218L807,-206L805,-183L812,-173L809,-162L798,-141L804,-139L807,-144L813,-148L815,-155L820,-163L816,-172L819,-182L813,-184L811,-193L816,-210L808,-225L819,-237L817,-251L820,-251L823,-241L821,-223L827,-219L825,-232L834,-240L847,-241L857,-230L852,-246L852,-267L862,-272L876,-271L888,-273L884,-285L890,-299L897,-300L908,-311L924,-314L926,-321L941,-323L946,-318L959,-331L970,-330L971,-341L977,-352L991,-363L1001,-355L993,-348L1006,-344L1007,-332L1013,-338L1030,-337L1043,-325L1048,-316L1046,-304L1040,-297L1024,-285L1020,-279L1027,-276L1036,-270L1041,-274L1044,-261L1047,-266L1056,-270L1075,-266L1076,-257L1100,-254L1101,-269L1113,-266L1122,-266L1132,-255L1135,-242L1131,-234L1138,-220L1148,-213L1153,-232L1163,-223L1173,-228L1184,-223L1188,-228L1198,-225L1193,-243L1201,-251L1228,-246L1254,-239L1259,-227L1274,-214L1298,-217L1309,-214L1314,-207L1313,-194L1320,-190L1328,-193L1339,-193L1350,-190L1361,-192L1371,-177L1378,-183L1373,-193L1376,-201L1395,-196L1407,-197L1423,-189L1432,-182L1432,-122ZM1432,-213L1425,-213L1424,-218L1432,-226L1432,-213ZM-667,-226L-667,-226L-667,-226L-666,-227L-661,-227L-653,-221L-653,-219L-659,-215L-667,-213L-667,-213L-667,-226ZM577,78L579,76L583,78L585,78L585,80L586,80L586,81L589,83L595,82L594,85L588,87L580,92L577,90L578,86L571,84L573,82L578,79Z" fill="#E0E0E0" stroke="#fff" stroke-width=".4"/><path d="M-78,218L-75,218L-72,218L-71,220L-78,221ZM-71,217L-67,220L-68,224L-69,224L-69,220L-71,218ZM-74,229L-72,229L-70,234L-70,238L-71,238L-73,235L-75,233Z" fill="#E0E0E0" stroke="#fff" stroke-width=".4"/><path d="M471,-422L473,-434L481,-435L489,-423L508,-400L493,-388L490,-367L485,-362L482,-340L475,-339L462,-355L468,-364L459,-372L448,-397L443,-422L459,-433L462,-422ZM564,-192L554,-185L549,-183L551,-195L544,-202L535,-196L532,-184L526,-177L520,-181L513,-180L506,-188L503,-184L499,-183L498,-173L487,-175L486,-167L480,-167L476,-156L470,-139L461,-120L463,-115L461,-110L456,-110L452,-98L452,-81L456,-75L454,-61L449,-53L447,-46L443,-53L431,-40L423,-37L415,-43L413,-55L411,-83L417,-91L432,-102L444,-115L454,-135L468,-164L478,-175L494,-196L507,-203L516,-202L525,-217L536,-216L546,-220L565,-207L557,-202ZM542,-435L533,-417L516,-414L499,-419L498,-428L490,-428L484,-444L502,-454L510,-445L516,-456L531,-447ZM526,-368L513,-357L503,-363L507,-370L504,-379L516,-385L518,-374Z" fill="#E0E0E0" stroke="#fff" stroke-width=".4"/><path d="M110,-535L129,-564L150,-561L157,-580L178,-585L201,-583L224,-578L244,-559L261,-540L250,-523L228,-521L196,-516L199,-509L220,-513L237,-499L249,-512L254,-497L247,-474L262,-489L290,-504L308,-496L311,-479L287,-453L284,-445L265,-439L279,-437L272,-414L267,-394L268,-362L275,-344L265,-343L256,-335L267,-322L268,-302L262,-300L269,-281L256,-280L263,-271L261,-264L253,-260L245,-260L252,-247L252,-238L241,-246L238,-241L246,-236L253,-225L255,-210L245,-207L241,-214L233,-224L235,-212L229,-203L244,-202L252,-201L236,-187L221,-174L203,-168L197,-168L191,-162L183,-146L170,-136L166,-136L159,-132L150,-129L145,-120L145,-111L142,-102L133,-92L135,-82L132,-72L129,-60L121,-60L113,-69L101,-69L95,-76L91,-88L81,-104L78,-113L78,-125L69,-138L72,-149L68,-154L73,-172L82,-178L85,-185L86,-198L79,-192L76,-189L71,-187L64,-192L63,-204L65,-213L71,-214L83,-209L73,-220L67,-226L62,-224L57,-228L63,-246L60,-253L55,-267L48,-290L41,-299L41,-308L25,-322L13,-324L-3,-323L-17,-321L-24,-329L-34,-345L-19,-353L-7,-355L-32,-362L-45,-373L-44,-384L-22,-398L-1,-413L1,-425L-14,-437L-9,-451L11,-477L19,-481L17,-498L31,-509L49,-516L67,-516L73,-503L89,-527L102,-511L111,-507L123,-494L109,-516Z" fill="#E0E0E0" stroke="#fff" stroke-width=".4"/><path d="M-301,180L-294,179L-286,179L-287,180L-278,183L-265,188L-253,188L-249,188L-249,185L-239,185L-236,188L-233,190L-230,193L-228,196L-227,200L-224,202L-219,204L-215,199L-210,199L-206,201L-203,206L-201,210L-198,214L-197,218L-195,221L-190,223L-186,225L-184,224L-186,230L-187,235L-188,243L-188,246L-187,250L-185,253L-184,258L-180,262L-179,266L-177,269L-171,270L-168,273L-163,271L-159,271L-154,270L-151,269L-147,266L-145,262L-145,257L-144,255L-140,254L-134,252L-129,253L-125,252L-124,253L-124,256L-127,260L-128,264L-127,265L-128,268L-130,272L-131,271L-132,271L-134,271L-136,275L-137,274L-137,274L-137,275L-143,275L-148,275L-148,278L-151,279L-149,281L-147,282L-146,283L-145,284L-145,286L-153,286L-155,291L-155,292L-155,293L-155,295L-162,288L-165,286L-170,285L-173,285L-178,288L-181,288L-185,287L-189,285L-195,283L-199,282L-205,279L-210,276L-212,274L-215,274L-221,272L-223,269L-230,266L-233,262L-234,259L-232,258L-233,257L-231,255L-231,253L-233,250L-234,247L-236,244L-241,238L-247,233L-250,229L-255,226L-256,225L-255,221L-258,219L-261,216L-263,211L-266,211L-269,207L-272,204L-272,202L-275,197L-277,192L-277,189L-282,187L-283,187L-287,185L-288,188L-287,191L-286,196L-284,199L-280,203L-279,205L-278,205L-277,208L-276,208L-275,212L-273,214L-272,216L-268,219L-266,225L-265,228L-263,231L-263,235L-260,235L-258,238L-256,240L-256,242L-258,244L-259,244L-261,240L-264,236L-269,233L-272,232L-271,227L-272,224L-275,221L-279,219L-280,219L-281,218L-285,216L-288,212L-288,212L-286,212L-283,210L-283,207L-288,202L-291,200L-293,196L-295,192L-298,186Z" fill="#E0E0E0" stroke="#fff" stroke-width=".4"/><path d="M71,590L70,586L72,583L69,578L64,574L58,570L56,570L50,565L46,566L54,556L61,550L65,547L70,544L70,538L67,535L64,536L65,532L66,528L66,525L64,524L61,525L59,525L59,522L58,516L57,514L53,513L51,514L45,513L45,504L43,501L45,499L44,496L46,493L47,488L46,485L43,483L42,480L43,477L32,477L29,470L31,470L31,467L30,465L30,462L26,460L23,460L20,458L16,457L14,455L7,454L1,449L1,445L1,442L1,438L-6,439L-9,441L-14,443L-16,445L-19,445L-23,445L-26,446L-29,445L-29,436L-33,440L-39,440L-41,436L-45,436L-43,434L-47,430L-49,425L-47,424L-47,421L-44,419L-45,416L-43,414L-43,411L-36,407L-31,406L-30,405L-25,406L-23,390L-22,387L-23,384L-26,382L-26,377L-23,377L-21,377L-21,375L-25,374L-25,371L-13,371L-11,369L-10,371L-9,374L-8,373L-4,376L0,376L1,374L6,373L8,372L9,369L13,368L13,367L8,366L7,362L7,358L4,357L6,356L10,357L14,359L16,357L20,356L27,354L29,352L28,350L31,350L33,351L32,354L34,355L35,358L34,360L33,365L34,368L35,370L38,373L41,373L42,372L44,372L46,371L48,369L51,370L53,370L56,370L56,369L55,368L56,366L58,367L61,366L64,367L67,368L69,367L70,367L71,369L74,368L76,366L78,362L81,356L83,356L85,359L88,370L91,371L91,375L87,379L89,381L99,382L99,388L103,384L111,386L121,390L123,393L122,396L129,395L141,398L149,397L158,402L165,409L170,410L175,411L177,413L179,420L180,424L178,433L175,437L166,445L163,452L158,457L157,457L155,462L156,473L154,482L153,487L152,489L150,497L145,505L144,512L139,514L138,518L131,518L122,521L118,524L111,525L105,530L100,537L99,542L100,545L99,552L97,555L93,559L87,571L82,576L78,579L75,586Z" fill="#E0E0E0" stroke="#fff" stroke-width=".4"/><path d="M-23,445L-19,445L-16,445L-14,443L-9,441L-6,439L1,438L1,442L1,445L1,449L7,454L14,455L16,457L20,458L23,460L26,460L30,462L30,465L31,467L31,470L29,470L32,477L43,477L42,480L43,483L46,485L47,488L46,493L44,496L45,499L43,501L43,499L38,496L32,496L22,497L19,503L19,506L17,514L16,512L9,512L7,517L4,513L-4,511L-9,517L-13,518L-15,509L-19,502L-17,496L-20,493L-21,489L-23,485L-20,478L-22,473L-21,471L-22,469L-20,466L-20,461L-19,456L-18,454Z" fill="#E0E0E0" stroke="#fff" stroke-width=".4"/><path d="M-25,406L-30,405L-31,406L-36,407L-43,411L-43,414L-45,416L-44,419L-47,421L-47,424L-49,425L-47,430L-43,434L-45,436L-41,436L-39,440L-33,440L-29,436L-29,445L-26,446L-23,445L-18,454L-19,456L-20,461L-20,466L-22,469L-21,471L-22,473L-20,478L-23,485L-25,488L-28,489L-34,486L-34,483L-46,477L-56,471L-61,467L-63,462L-62,460L-67,452L-73,441L-78,430L-81,427L-83,423L-87,419L-91,416L-89,414L-92,408L-90,404L-86,400L-85,403L-87,404L-87,406L-84,406L-82,407L-79,410L-76,407L-75,403L-71,398L-64,396L-58,390L-56,386L-57,382L-56,381L-52,384L-50,386L-47,388L-44,394L-39,395L-36,393L-34,394L-31,394L-26,397L-30,402L-28,403Z" fill="#E0E0E0" stroke="#fff" stroke-width=".4"/><path d="M-8,373L-9,374L-10,371L-11,369L-13,371L-25,371L-25,374L-21,375L-21,377L-23,377L-26,377L-26,382L-23,384L-22,387L-23,390L-25,406L-28,403L-30,402L-26,397L-31,394L-34,394L-36,393L-39,395L-44,394L-47,388L-50,386L-52,384L-56,381L-57,382L-60,380L-62,378L-64,379L-69,378L-70,376L-72,376L-77,373L-78,371L-76,370L-76,367L-75,365L-72,365L-70,361L-67,358L-69,357L-68,353L-70,348L-68,347L-69,342L-72,338L-71,336L-69,336L-68,334L-69,331L-69,330L-66,330L-61,326L-59,325L-59,323L-58,318L-54,316L-51,316L-50,314L-46,315L-41,312L-39,310L-36,308L-34,308L-32,309L-34,312L-37,313L-39,315L-41,317L-43,319L-43,324L-45,327L-42,327L-41,330L-40,331L-40,334L-40,336L-40,337L-39,338L-37,340L-30,339L-26,340L-22,345L-20,344L-16,345L-12,344L-10,345L-11,348L-13,350L-13,354L-12,358L-10,360L-10,361L-13,364L-11,365L-9,368Z" fill="#E0E0E0" stroke="#fff" stroke-width=".4"/><path d="M-69,330L-69,331L-68,334L-69,336L-71,336L-72,338L-74,337L-75,334L-73,332L-75,332L-76,330L-79,328L-82,328L-83,330L-85,332L-86,332L-87,333L-84,337L-86,337L-87,338L-89,338L-90,335L-91,336L-93,336L-94,333L-97,333L-98,332L-101,332L-101,333L-101,333L-101,331L-101,330L-101,329L-100,328L-101,328L-101,325L-99,325L-97,327L-97,328L-95,328L-94,328L-92,329L-90,329L-87,327L-84,326L-82,324L-78,325L-79,325L-75,325L-73,326L-71,328Z" fill="#E0E0E0" stroke="#fff" stroke-width=".4"/><path d="M-99,325L-101,325L-101,328L-100,328L-101,329L-101,330L-101,331L-101,333L-105,331L-106,330L-105,329L-105,328L-107,326L-109,325L-111,324L-112,323L-113,322L-113,323L-114,325L-115,323L-117,322L-118,321L-118,319L-117,318L-119,317L-117,316L-116,315L-113,316L-111,316L-109,316L-108,317L-107,318L-105,316L-104,320L-102,322Z" fill="#E0E0E0" stroke="#fff" stroke-width=".4"/><path d="M-105,316L-107,318L-108,317L-109,316L-111,316L-113,316L-116,315L-117,316L-119,314L-122,311L-123,309L-126,307L-129,305L-128,304L-127,305L-127,304L-125,304L-124,303L-123,303L-123,300L-122,300L-121,300L-120,298L-118,299L-117,298L-116,298L-114,296L-114,295L-114,295L-113,293L-112,293L-111,294L-110,294L-109,294L-107,294L-105,293L-104,292L-102,292L-103,293L-103,294L-103,296L-104,298L-105,301L-105,303L-104,305L-104,308L-105,308L-106,311L-105,312L-107,314L-106,316Z" fill="#E0E0E0" stroke="#fff" stroke-width=".4"/><path d="M-102,292L-104,292L-105,293L-107,294L-109,294L-110,294L-111,294L-112,293L-113,293L-114,295L-114,295L-114,296L-116,298L-117,298L-118,299L-120,298L-121,300L-122,300L-123,300L-123,303L-124,303L-125,304L-127,304L-128,302L-129,302L-129,299L-130,299L-131,298L-134,299L-134,298L-136,297L-137,296L-139,296L-137,294L-138,293L-137,292L-135,290L-132,288L-131,288L-130,287L-128,287L-128,287L-127,287L-124,288L-122,287L-120,287L-119,286L-117,286L-116,287L-114,287L-113,286L-110,287L-110,287L-108,288L-106,290L-104,291Z" fill="#E0E0E0" stroke="#fff" stroke-width=".4"/><path d="M-139,296L-137,296L-136,297L-134,298L-134,299L-131,298L-130,299L-129,299L-129,302L-130,303L-134,303L-136,303L-138,301L-141,301L-143,300L-143,299L-141,297L-140,297L-140,296Z" fill="#E0E0E0" stroke="#fff" stroke-width=".4"/><path d="M-155,295L-155,293L-155,292L-155,291L-153,286L-145,286L-145,284L-146,283L-147,282L-149,281L-151,279L-148,278L-148,275L-143,275L-137,275L-137,280L-138,287L-136,287L-134,288L-134,287L-132,288L-135,290L-137,292L-138,293L-137,294L-139,296L-140,296L-140,297L-141,297L-143,299L-143,300L-146,299L-150,299L-152,297Z" fill="#E0E0E0" stroke="#fff" stroke-width=".4"/><path d="M-137,275L-137,274L-137,274L-136,275L-134,271L-132,271L-132,272L-131,272L-131,273L-132,276L-132,277L-132,279L-132,280L-133,283L-134,285L-135,285L-136,287L-138,287L-137,280Z" fill="#E0E0E0" stroke="#fff" stroke-width=".4"/><path d="M28,350L29,352L27,354L20,356L16,357L14,359L10,357L6,356L4,357L7,358L7,362L8,366L13,367L13,368L9,369L8,372L6,373L1,374L0,376L-4,376L-8,373L-9,368L-11,365L-13,364L-10,361L-10,360L-12,358L-13,354L-13,350L-11,348L-10,345L-12,344L-16,345L-20,344L-22,345L-26,340L-30,339L-37,340L-39,338L-40,337L-40,336L-40,334L-40,331L-41,330L-42,327L-45,327L-43,324L-43,319L-41,317L-39,315L-37,313L-34,312L-34,313L-37,314L-35,316L-35,319L-38,323L-36,328L-33,327L-32,323L-34,321L-34,316L-27,314L-27,311L-25,309L-23,313L-19,313L-15,317L-15,319L-10,319L-4,318L-0,321L4,322L7,320L7,318L15,318L22,318L17,320L19,322L23,323L28,326L29,330L32,330L34,332L29,335L29,337L31,339L29,341L26,342L26,344L24,346Z" fill="#E0E0E0" stroke="#fff" stroke-width=".4"/><path d="M53,370L51,370L48,369L46,371L44,372L42,372L41,373L38,373L35,370L34,368L33,365L34,360L35,358L34,355L32,354L33,351L31,350L28,350L24,346L26,344L26,342L29,341L31,339L29,337L29,335L34,332L38,334L41,338L42,341L44,341L47,344L49,346L48,351L45,353L45,354L44,357L46,361L48,361L49,364Z" fill="#E0E0E0" stroke="#fff" stroke-width=".4"/><path d="M64,367L61,366L58,367L56,366L55,368L56,369L56,370L53,370L49,364L48,361L46,361L44,357L45,354L45,353L48,351L49,346L56,347L57,346L61,345L68,347L65,352L65,356L67,360L66,362L66,365Z" fill="#E0E0E0" stroke="#fff" stroke-width=".4"/><path d="M81,356L78,362L76,366L74,368L71,369L70,367L69,367L67,368L64,367L66,365L66,362L67,360L65,356L65,352L68,347L70,348L74,349L80,354ZM418,48L421,50L429,52L427,58L426,64L424,66L422,65L422,67L417,72L417,76L420,74L422,78L422,80L424,84L422,86L423,92L426,93L426,97L420,101L409,99L400,102L400,107L393,108L386,104L384,106L374,102L371,99L374,94L375,78L369,69L365,65L356,61L356,55L363,53L373,55L371,45L377,49L390,42L392,34L397,33L398,36L400,36L403,40L407,44L410,43L415,47L417,48ZM433,105L437,102L438,109L436,115L433,114L432,108Z" fill="#E0E0E0" stroke="#fff" stroke-width=".4"/><path d="M-57,382L-56,386L-58,390L-64,396L-71,398L-75,403L-76,407L-79,410L-82,407L-84,406L-87,406L-87,404L-85,403L-86,400L-83,396L-84,394L-86,396L-90,394L-89,392L-90,387L-87,386L-86,382L-84,379L-85,376L-81,375L-77,373L-72,376L-70,376L-69,378L-64,379L-62,378L-60,380Z" fill="#E0E0E0" stroke="#fff" stroke-width=".4"/><path d="M-4,271L-1,271L-0,273L-2,274L-6,274L-9,274L-10,272L-9,271Z" fill="#E0E0E0" stroke="#fff" stroke-width=".4"/><path d="M-70,271L-66,271L-63,273L-62,275L-66,275L-68,276L-71,275L-74,273L-74,271L-71,271Z" fill="#E0E0E0" stroke="#fff" stroke-width=".4"/><path d="M-97,242L-92,242L-88,242L-82,244L-80,247L-74,246L-72,247L-67,251L-64,254L-62,254L-58,255L-59,257L-55,257L-50,260L-51,261L-55,262L-59,262L-63,262L-71,263L-67,259L-69,257L-73,257L-75,255L-77,252L-80,252L-85,250L-87,249L-95,248L-97,247L-95,245L-100,245L-104,248L-107,248L-108,250L-111,250L-113,250L-110,248L-109,246L-106,244L-103,243L-99,242Z" fill="#E0E0E0" stroke="#fff" stroke-width=".4"/><path d="M564,514L561,513L559,514L556,513L554,513L550,510L546,509L544,505L544,503L541,502L535,495L533,492L532,491L530,486L536,486L538,487L540,487L543,483L548,478L550,478L551,475L554,473L559,472L559,474L564,474L567,476L568,477L571,478L574,479L574,487L573,491L572,496L573,498L573,502L572,502L570,507Z" fill="#E0E0E0" stroke="#fff" stroke-width=".4"/><path d="M554,513L546,517L540,522L538,526L537,529L533,529L532,532L532,534L528,536L523,536L521,534L518,533L515,534L514,538L511,540L508,542L504,543L503,541L503,537L500,531L498,530L498,511L504,511L504,489L509,489L518,487L520,489L523,487L525,487L528,485L530,486L532,491L533,492L535,495L541,502L544,503L544,505L546,509L550,510Z" fill="#E0E0E0" stroke="#fff" stroke-width=".4"/><path d="M498,530L498,554L493,557L490,558L486,556L484,556L483,553L480,551L478,555L473,550L471,545L470,538L468,534L466,524L466,516L465,513L463,510L460,505L457,498L456,494L451,488L451,483L453,482L457,481L461,481L464,484L465,483L489,483L493,486L507,487L518,484L522,483L526,483L528,485L528,485L525,487L523,487L520,489L518,487L509,489L504,489L504,511L498,511Z" fill="#E0E0E0" stroke="#fff" stroke-width=".4"/><path d="M285,301L282,296L280,294L282,293L285,288L286,285L288,283L291,284L294,283L297,283L300,284L304,286L307,290L311,294L312,298L313,302L315,303L315,306L315,308L314,308L311,307L311,308L309,308L305,307L302,307L292,306L290,307L288,307L285,308L284,303L289,303L291,303L292,303L294,301L297,302L299,303L302,301L300,299L298,300L297,300L294,299L293,299L291,300Z" fill="#E0E0E0" stroke="#fff" stroke-width=".4"/><path d="M315,308L315,306L315,303L313,302L312,298L311,294L313,293L314,290L316,290L320,291L323,290L326,291L327,289L350,289L351,285L350,284L347,258L345,230L354,230L373,244L393,258L394,261L398,263L401,264L401,267L407,267L407,281L404,285L403,289L398,290L390,290L388,292L384,293L381,293L379,291L376,292L371,295L370,297L365,299L364,301L362,302L359,301L357,303L356,307L352,312L352,314L350,316L351,320L348,321L347,321L346,319L344,320L343,319L342,321L338,321L336,320L335,321L334,319L334,317L333,317L332,317L332,315L333,314L331,311L330,310L329,308L328,308L327,309L325,310L323,311L321,311L319,309L318,309L316,310L315,310Z" fill="#E0E0E0" stroke="#fff" stroke-width=".4"/><path d="M283,255L284,253L307,253L306,244L307,241L313,240L313,224L332,224L332,214L354,230L345,230L347,258L350,284L351,285L350,289L327,289L326,291L323,290L320,291L316,290L314,290L313,293L311,294L307,290L304,286L300,284L297,283L294,283L291,284L288,283L286,285L286,282L287,279L288,273L288,267L287,264L287,261L286,258Z" fill="#E0E0E0" stroke="#fff" stroke-width=".4"/><path d="M398,344L393,345L392,341L392,327L391,326L391,323L389,321L387,319L388,316L390,315L391,313L394,312L395,311L397,309L399,309L403,312L403,314L404,318L403,320L404,322L401,325L399,327L398,331L398,335Z" fill="#E0E0E0" stroke="#fff" stroke-width=".4"/><path d="M469,244L470,253L472,255L473,257L475,259L474,262L471,274L471,282L464,288L461,296L464,298L464,302L467,302L467,305L465,305L465,307L464,307L460,301L459,301L454,304L449,302L446,302L445,303L441,303L438,305L435,305L428,302L425,304L422,304L420,301L414,299L408,300L406,301L405,304L404,307L403,312L399,309L397,309L395,311L395,306L388,305L388,302L385,298L384,296L384,293L388,292L390,290L398,290L403,289L404,285L407,281L407,267L415,264L432,252L452,240L461,243L465,246Z" fill="#E0E0E0" stroke="#fff" stroke-width=".4"/><path d="M398,344L398,335L398,331L399,327L401,325L404,322L403,320L404,318L403,314L403,312L404,307L405,304L406,301L408,300L414,299L420,301L422,304L425,304L428,302L435,305L438,305L441,303L445,303L446,302L449,302L454,304L459,301L460,301L464,307L465,307L467,310L467,311L466,313L461,317L460,321L459,324L458,325L457,330L454,332L453,335L451,337L451,340L447,342L443,339L441,340L438,343L436,343L433,349L432,353L426,355L424,355L421,356L417,356L414,352L412,348L407,344L403,344Z" fill="#E0E0E0" stroke="#fff" stroke-width=".4"/><path d="M467,305L469,309L469,313L469,317L472,322L469,322L468,323L465,322L464,325L467,328L470,329L470,332L472,336L471,337L468,343L467,344L467,349L467,351L467,353L469,356L470,358L472,361L475,363L475,366L476,367L475,371L471,369L466,368L459,367L458,367L454,368L451,367L448,367L439,367L439,363L437,359L434,358L433,355L432,354L432,353L433,349L436,343L438,343L441,340L443,339L447,342L451,340L451,337L453,335L454,332L457,330L458,325L459,324L460,321L461,317L466,313L467,311L467,310L465,307L465,305Z" fill="#E0E0E0" stroke="#fff" stroke-width=".4"/><path d="M388,316L387,319L389,321L391,323L391,326L392,327L392,341L393,345L388,346L387,344L386,340L385,337L386,332L385,330L384,325L384,321L382,318L382,316Z" fill="#E0E0E0" stroke="#fff" stroke-width=".4"/><path d="M382,316L382,318L384,321L384,325L385,330L386,332L385,337L386,340L387,344L388,346L379,349L376,351L371,353L366,351L366,349L363,344L365,337L367,333L366,324L365,320L365,316L375,316L378,316L380,316Z" fill="#E0E0E0" stroke="#fff" stroke-width=".4"/><path d="M335,321L336,320L338,321L342,321L343,319L344,320L346,319L347,321L348,321L351,320L353,321L354,323L357,324L359,323L362,323L366,324L367,333L365,337L363,344L366,349L366,351L363,352L359,350L355,350L348,351L344,353L338,355L337,355L338,350L338,350L338,347L336,345L334,344L332,343L333,340L333,337L333,336L334,336L334,333L334,332L334,331L337,330L335,326L334,323L334,321Z" fill="#E0E0E0" stroke="#fff" stroke-width=".4"/><path d="M302,307L305,307L309,308L311,308L311,307L314,308L315,308L315,310L316,310L318,309L319,309L321,311L323,311L325,310L327,309L328,308L329,308L330,310L331,311L333,314L332,315L332,317L333,317L334,317L334,319L335,321L334,321L334,323L335,326L337,330L334,331L334,332L334,333L334,336L333,336L331,336L330,338L329,338L327,337L328,334L325,331L324,331L323,331L321,332L321,330L320,328L320,326L319,324L317,322L313,322L311,323L310,323L309,324L308,326L305,329L303,325L300,323L299,322L297,321L297,318L296,317L294,316L297,313L298,313L300,312L301,312L302,311L302,309L302,309Z" fill="#E0E0E0" stroke="#fff" stroke-width=".4"/><path d="M285,308L288,307L290,307L292,306L302,307L302,309L302,309L302,311L301,312L300,312L298,313L297,313L294,316L291,313L289,313L287,311L287,310L285,309Z" fill="#E0E0E0" stroke="#fff" stroke-width=".4"/><path d="M333,336L333,337L333,340L332,343L334,344L336,345L338,347L338,350L338,350L337,355L336,355L330,352L324,348L320,345L316,341L317,339L317,337L320,334L323,331L324,331L325,331L328,334L327,337L329,338L330,338L331,336Z" fill="#E0E0E0" stroke="#fff" stroke-width=".4"/><path d="M305,329L308,326L309,324L310,323L311,323L313,322L317,322L319,324L320,326L320,328L321,330L321,332L323,331L320,334L317,337L317,339L316,341L314,341L310,338L307,335L306,333Z" fill="#E0E0E0" stroke="#fff" stroke-width=".4"/><path d="M351,320L350,316L352,314L352,312L356,307L357,303L359,301L362,302L364,301L365,299L370,297L371,295L376,292L379,291L381,293L384,293L384,296L385,298L388,302L388,305L395,306L395,311L394,312L391,313L390,315L388,316L382,316L380,316L378,316L375,316L365,316L365,320L366,324L362,323L359,323L357,324L354,323L353,321Z" fill="#E0E0E0" stroke="#fff" stroke-width=".4"/><path d="M542,350L540,351L536,351L532,350L530,350L529,352L527,352L525,351L518,354L515,353L515,354L513,357L509,356L504,355L501,353L496,351L493,353L490,356L490,360L486,360L482,359L479,362L476,367L475,366L475,363L472,361L470,358L469,356L467,353L467,351L467,349L467,344L468,343L471,337L476,337L477,335L478,335L480,337L487,334L489,332L493,330L492,328L494,328L499,328L505,325L509,319L512,316L516,315L516,318L520,322L520,324L519,326L519,328L521,330L525,332L529,335L529,337L533,340L535,342L537,346L541,348Z" fill="#E0E0E0" stroke="#fff" stroke-width=".4"/><path d="M490,360L490,364L488,367L487,370L486,376L486,379L485,381L485,383L484,385L481,388L478,391L475,396L476,401L474,403L471,406L467,410L465,409L465,407L462,407L460,409L458,409L456,407L454,408L452,410L447,404L451,401L449,397L451,395L455,395L456,392L459,395L464,395L466,392L466,388L466,384L463,380L465,374L464,373L460,373L458,370L459,367L466,368L471,369L475,371L476,367L479,362L482,359L486,360Z" fill="#E0E0E0" stroke="#fff" stroke-width=".4"/><path d="M448,367L451,367L454,368L458,367L459,367L458,370L460,373L464,373L465,374L463,380L466,384L466,388L466,392L464,395L459,395L456,392L455,395L451,395L449,397L451,401L447,404L441,398L437,393L434,387L434,385L435,383L436,379L438,375L440,374L448,374Z" fill="#E0E0E0" stroke="#fff" stroke-width=".4"/><path d="M439,367L448,367L448,374L440,374L438,375L437,374Z" fill="#E0E0E0" stroke="#fff" stroke-width=".4"/><path d="M561,429L564,431L566,432L570,433L573,435L576,437L577,442L576,444L575,449L576,454L575,456L573,461L576,463L558,468L559,472L554,473L551,475L550,478L548,478L543,483L540,487L538,487L536,486L530,486L528,485L528,485L526,483L522,483L518,484L514,481L510,476L510,456L522,457L522,454L523,452L522,449L522,447L522,445L524,445L524,447L527,447L530,447L532,450L537,451L541,449L542,452L546,453L549,455L551,459L555,459L555,452L553,453L549,451L548,450L548,444L549,437L548,434L550,431L551,430L559,429Z" fill="#E0E0E0" stroke="#fff" stroke-width=".4"/><path d="M573,435L579,436L580,437L582,440L584,448L582,453L584,461L586,460L588,462L590,467L591,475L588,476L587,480L583,476L582,472L584,469L583,467L581,465L579,466L576,463L573,461L575,456L576,454L575,449L576,444L577,442L576,437Z" fill="#E0E0E0" stroke="#fff" stroke-width=".4"/><path d="M584,448L588,448L595,449L597,449L601,449L603,447L606,447L613,445L617,441L618,444L618,450L619,455L619,464L620,467L618,472L616,476L612,480L607,482L600,485L594,491L592,493L587,497L585,498L585,503L587,507L588,511L589,513L590,513L589,519L588,522L590,523L589,526L587,528L582,530L575,534L572,536L573,539L574,539L574,543L569,542L569,540L568,537L567,534L568,527L567,523L564,514L570,507L572,502L573,502L573,498L572,496L573,491L574,487L574,479L571,478L568,477L567,476L564,474L559,474L559,472L558,468L576,463L579,466L581,465L583,467L584,469L582,472L583,476L587,480L588,476L591,475L590,467L588,462L586,460L584,461L582,453Z" fill="#E0E0E0" stroke="#fff" stroke-width=".4"/><path d="M458,409L456,410L455,411L455,414L453,414L452,410L454,408L456,407ZM454,416L457,415L458,416L460,415L477,415L479,419L481,423L482,425L484,428L488,427L490,427L493,427L494,426L495,422L499,422L499,421L502,421L502,423L509,423L509,427L510,429L509,433L510,436L512,439L511,446L513,445L515,445L519,444L522,445L522,447L522,449L523,452L522,454L522,457L510,456L510,476L514,481L518,484L507,487L493,486L489,483L465,483L464,484L461,481L457,481L453,482L451,483L450,479L451,474L453,468L453,466L455,460L457,458L460,454L462,451L462,447L462,444L460,441L459,438L457,434L458,433L459,431L458,425L456,421L454,417Z" fill="#E0E0E0" stroke="#fff" stroke-width=".4"/><path d="M560,395L560,397L561,398L562,400L560,401L558,405L556,407L553,407L553,400L551,397L555,398L557,394Z" fill="#E0E0E0" stroke="#fff" stroke-width=".4"/><path d="M591,179L589,181L587,180L586,184L588,185L586,186L586,188L589,187L589,190L586,201L585,199L582,189L584,187L583,186L585,183L586,178L587,176L587,176L589,176L590,175L591,175L591,178L590,179Z" fill="#E0E0E0" stroke="#fff" stroke-width=".4"/><path d="M591,175L590,175L589,176L587,176L589,170L592,165L592,165L595,165L596,168L593,171Z" fill="#E0E0E0" stroke="#fff" stroke-width=".4"/><path d="M671,454L673,456L674,460L675,468L677,470L676,473L675,475L673,472L672,473L673,478L672,480L671,482L670,487L668,494L665,503L662,515L659,523L657,531L652,532L647,535L644,533L639,531L637,528L637,522L635,517L634,513L635,508L638,507L638,505L641,500L641,496L640,493L639,489L639,484L641,480L641,476L644,476L648,475L650,474L652,474L656,470L660,467L662,464L661,461L664,462L667,458L667,454L669,451Z" fill="#E0E0E0" stroke="#fff" stroke-width=".4"/><path d="M589,187L586,188L586,186L588,185L586,184L587,180L589,181L589,185Z" fill="#E0E0E0" stroke="#fff" stroke-width=".4"/><path d="M285,301L291,300L293,299L294,299L297,300L298,300L300,299L302,301L299,303L297,302L294,301L292,303L291,303L289,303L284,303Z" fill="#E0E0E0" stroke="#fff" stroke-width=".4"/><path d="M438,195L435,183L431,180L431,178L427,174L426,169L430,165L431,159L430,152L431,149L438,146L442,146L442,150L447,148L447,149L444,152L444,156L446,158L445,164L441,167L443,171L446,171L447,175L449,176L449,181L446,183L444,185L440,188L441,191L440,194Z" fill="#E0E0E0" stroke="#fff" stroke-width=".4"/><path d="M589,181L591,179L597,181L608,174L611,182L610,183L598,187L604,194L602,195L601,197L596,198L595,200L593,203L586,201L586,201L589,190L589,187L589,185Z" fill="#E0E0E0" stroke="#fff" stroke-width=".4"/><path d="M683,235L684,235L684,236L689,235L694,235L697,236L701,231L705,227L709,223L710,225L711,231L708,231L708,235L709,236L706,237L706,239L704,242L704,245L703,246L685,243L683,236Z" fill="#E0E0E0" stroke="#fff" stroke-width=".4"/><path d="M678,232L678,227L680,224L681,223L683,225L683,229L682,232L680,233Z" fill="#E0E0E0" stroke="#fff" stroke-width=".4"/><path d="M662,197L663,200L663,202L665,207L660,207L659,204L654,203L658,197Z" fill="#E0E0E0" stroke="#fff" stroke-width=".4"/><path d="M611,182L608,174L621,167L624,158L623,153L626,151L629,146L632,145L638,146L640,148L643,147L647,156L651,158L651,162L648,164L647,170L651,177L658,180L661,186L660,191L662,191L662,194L665,198L662,197L658,197L654,203L643,203L626,189L618,184Z" fill="#E0E0E0" stroke="#fff" stroke-width=".4"/><path d="M704,245L704,242L706,239L706,237L709,236L708,235L708,231L711,231L714,235L717,237L721,238L725,239L727,243L729,245L731,246L731,247L729,251L728,253L725,255L723,259L721,259L719,260L718,263L719,267L719,268L716,268L712,270L712,273L710,275L707,275L704,276L704,279L702,280L698,280L695,282L692,282L690,278L685,268L703,262L707,249ZM710,225L709,223L711,221L712,222L711,224Z" fill="#E0E0E0" stroke="#fff" stroke-width=".4"/><path d="M980,309L979,302L983,297L990,296L996,297L1000,299L1003,295L1008,297L1010,301L1009,308L999,313L1002,316L996,317L990,319L986,318L983,315Z" fill="#E0E0E0" stroke="#fff" stroke-width=".4"/><path d="M996,297L990,296L983,297L979,302L980,309L975,306L970,306L971,302L966,302L965,308L962,317L960,322L961,327L964,327L967,332L968,337L971,341L975,341L978,344L976,347L972,347L971,344L967,342L966,343L963,341L962,338L959,334L956,332L956,335L954,332L955,328L957,322L960,316L963,311L961,305L961,303L960,299L956,294L955,291L957,290L959,285L956,281L953,277L950,271L952,270L955,263L959,263L963,260L966,259L968,261L969,265L973,265L971,271L971,277L978,273L979,274L983,274L984,272L988,272L993,277L993,283L998,289L998,294Z" fill="#E0E0E0" stroke="#fff" stroke-width=".4"/><path d="M1008,297L1003,295L1000,299L996,297L998,294L998,289L993,283L993,277L988,272L984,272L983,274L979,274L978,273L971,277L971,271L973,265L969,265L968,261L966,259L967,257L972,253L973,254L976,254L975,247L978,246L981,251L984,257L991,257L993,262L990,264L988,266L995,270L1000,277L1003,282L1008,287L1009,291Z" fill="#E0E0E0" stroke="#fff" stroke-width=".4"/><path d="M966,259L963,260L959,263L955,263L952,270L950,271L953,277L956,281L959,285L957,290L955,291L956,294L960,299L961,303L961,305L963,311L960,316L957,322L956,318L958,313L956,310L957,303L954,300L952,293L951,286L949,280L945,284L938,288L935,287L931,286L933,278L932,273L928,266L928,263L925,263L921,257L920,252L922,253L923,249L925,247L925,245L926,243L926,236L931,237L933,232L934,229L937,224L937,220L944,215L949,217L948,212L950,211L950,209L953,208L955,212L958,214L958,219L957,224L952,230L951,237L957,236L959,242L962,243L961,248L965,251L968,252L972,250L972,253L967,257Z" fill="#E0E0E0" stroke="#fff" stroke-width=".4"/><path d="M990,319L996,317L1002,316L999,313L1009,308L1010,301L1008,297L1009,291L1008,287L1003,282L1000,277L995,270L988,266L990,264L993,262L991,257L984,257L981,251L978,246L981,245L986,245L991,244L996,241L999,243L1004,244L1003,248L1006,250L1012,252L1004,257L1000,263L998,267L1003,274L1008,282L1013,286L1017,291L1020,302L1019,312L1014,316L1007,320L1003,325L995,330L993,327L995,323Z" fill="#E0E0E0" stroke="#fff" stroke-width=".4"/><path d="M894,49L900,48L911,40L920,36L925,39L931,39L935,43L941,43L949,46L955,39L953,34L959,24L965,28L970,29L977,31L978,38L987,42L992,41L1000,39L1005,41L1011,45L1015,50L1020,49L1027,51L1033,49L1040,47L1049,41L1052,42L1056,45L1062,44L1060,51L1055,60L1057,63L1060,62L1066,63L1071,60L1075,63L1080,69L1080,72L1075,71L1067,72L1063,75L1058,80L1050,83L1044,88L1038,86L1034,85L1031,91L1033,94L1034,97L1030,99L1026,103L1019,106L1010,107L1001,109L994,114L992,111L985,111L976,106L970,105L962,106L950,104L944,105L941,100L938,92L934,92L927,86L919,85L912,84L910,80L913,70L909,64L900,60L895,56Z" fill="#E0E0E0" stroke="#fff" stroke-width=".4"/><path d="M950,209L950,211L948,212L949,217L944,215L937,220L937,224L934,229L933,232L931,237L926,236L926,243L925,245L925,247L923,249L919,239L918,239L917,243L914,240L915,236L918,236L921,230L917,229L912,229L906,228L906,224L903,223L899,221L896,225L901,229L897,231L896,233L899,235L898,239L900,244L901,249L900,251L896,251L889,252L890,257L887,261L878,265L872,272L867,276L861,280L861,283L859,284L853,286L851,287L849,291L850,299L850,304L848,310L848,320L845,320L842,325L844,327L839,328L837,332L834,334L829,329L826,320L824,314L822,311L819,306L817,298L816,294L811,286L809,274L807,267L807,259L806,253L797,257L793,256L785,249L788,246L787,244L780,238L784,234L796,234L795,229L792,225L791,220L788,217L794,211L801,211L807,204L810,197L816,191L816,186L821,182L816,178L814,174L812,167L815,164L824,166L830,165L836,159L842,167L842,173L844,177L844,180L840,179L841,187L847,191L855,196L851,199L849,205L855,208L860,211L868,215L876,216L879,219L884,219L891,221L896,221L896,218L896,214L896,211L900,210L900,215L900,216L905,219L909,218L914,218L919,218L919,214L917,212L922,211L927,206L934,202L938,204L943,201L945,205L943,208Z" fill="#E0E0E0" stroke="#fff" stroke-width=".4"/><path d="M923,249L922,253L920,252L921,257L919,254L919,251L918,248L915,244L910,244L910,247L909,250L906,249L905,250L904,249L901,249L900,244L898,239L899,235L896,233L897,231L901,229L896,225L899,221L903,223L906,224L906,228L912,229L917,229L921,230L918,236L915,236L914,240L917,243L918,239L919,239Z" fill="#E0E0E0" stroke="#fff" stroke-width=".4"/><path d="M917,212L919,214L919,218L914,218L909,218L905,219L900,216L900,215L904,210L907,209L911,210L914,210Z" fill="#E0E0E0" stroke="#fff" stroke-width=".4"/><path d="M896,211L896,214L896,218L896,221L891,221L884,219L879,219L876,216L868,215L860,211L855,208L849,205L851,199L855,196L858,194L862,196L868,201L871,202L873,205L878,206L883,209L889,211Z" fill="#E0E0E0" stroke="#fff" stroke-width=".4"/><path d="M836,159L830,165L824,166L815,164L812,167L814,174L816,178L821,182L816,186L816,191L810,197L807,204L801,211L794,211L788,217L791,220L792,225L795,229L796,234L784,234L780,238L775,237L774,232L769,227L758,229L749,229L741,230L743,222L751,219L751,216L748,215L748,209L742,206L740,202L737,198L747,202L753,201L756,202L757,200L761,201L769,198L769,192L772,188L777,188L777,186L782,186L784,186L786,184L786,180L789,176L792,174L790,170L795,170L797,167L797,164L800,161L799,158L798,155L801,152L807,150L814,149L817,148L820,147L825,151L826,156Z" fill="#E0E0E0" stroke="#fff" stroke-width=".4"/><path d="M770,146L773,146L778,147L779,148L784,146L786,147L788,144L791,144L792,143L793,140L795,137L798,139L798,141L799,142L799,148L801,150L803,149L806,148L809,145L813,145L819,145L820,147L817,148L814,149L807,150L801,152L798,155L799,158L800,161L797,164L797,167L795,170L790,170L792,174L789,176L786,180L786,184L784,186L782,186L777,186L777,188L772,188L769,192L769,198L761,201L757,200L756,202L753,201L747,202L737,198L742,192L742,188L738,187L737,182L735,177L738,173L735,172L737,167L739,158L745,161L749,160L751,156L755,155L759,153L760,147L765,146L766,143L768,145Z" fill="#E0E0E0" stroke="#fff" stroke-width=".4"/><path d="M778,147L781,140L780,134L775,132L777,129L782,129L785,125L786,120L794,118L793,122L794,124L796,124L794,126L788,125L787,129L794,129L801,131L812,130L813,137L815,136L819,138L818,141L819,145L813,145L809,145L806,148L803,149L801,150L799,148L799,142L798,141L798,139L795,137L793,140L792,143L791,144L788,144L786,147L784,146L779,148Z" fill="#E0E0E0" stroke="#fff" stroke-width=".4"/><path d="M796,108L797,105L801,104L811,106L812,102L815,100L823,103L825,103L835,103L844,104L847,106L850,108L849,109L840,114L838,117L831,118L828,123L822,122L818,123L813,127L813,128L812,130L801,131L794,129L787,129L788,125L794,126L796,124L801,125L808,119L801,115L797,117L793,114L798,109Z" fill="#E0E0E0" stroke="#fff" stroke-width=".4"/><path d="M688,112L691,109L698,108L701,110L706,116L709,116L715,116L714,112L719,109L724,104L732,109L733,115L735,116L741,116L743,118L746,125L753,131L756,134L762,138L770,141L770,146L768,145L766,143L765,146L760,147L759,153L755,155L751,156L749,160L745,161L739,158L739,152L734,152L728,145L723,144L716,141L712,140L710,141L706,141L702,145L697,147L696,142L696,134L692,131L693,126L689,126L691,119L696,121L701,119L697,114L695,109L691,111L690,117Z" fill="#E0E0E0" stroke="#fff" stroke-width=".4"/><path d="M665,198L662,194L662,191L660,191L661,186L658,180L651,177L647,170L648,164L651,162L651,158L647,156L643,147L640,141L641,139L639,130L643,128L644,131L647,134L651,135L653,135L660,130L662,129L664,131L662,135L666,139L667,138L669,144L675,145L679,149L687,150L696,148L697,147L702,145L706,141L710,141L712,140L716,141L723,144L728,145L734,152L739,152L739,158L737,167L735,172L738,173L735,177L737,182L738,187L742,188L742,192L737,198L740,202L742,206L748,209L748,215L751,216L751,219L743,222L741,230L730,228L723,226L717,225L714,217L712,216L707,217L701,220L694,218L688,213L683,211L679,205L674,196L671,197L668,195Z" fill="#E0E0E0" stroke="#fff" stroke-width=".4"/><path d="M591,179L590,179L591,178L591,175L593,171L596,168L595,165L592,165L592,160L593,157L595,155L596,154L596,150L598,151L605,149L608,150L613,150L619,148L623,148L629,146L626,151L623,153L624,158L621,167L608,174L597,181Z" fill="#E0E0E0" stroke="#fff" stroke-width=".4"/><path d="M653,135L651,135L649,131L649,130L646,130L645,128L643,128L641,126L637,124L637,120L636,117L644,116L646,118L648,120L647,122L650,124L648,127L651,129L653,130Z" fill="#E0E0E0" stroke="#fff" stroke-width=".4"/><path d="M447,-46L449,-53L454,-61L456,-75L452,-81L452,-98L456,-110L461,-110L463,-115L461,-120L470,-139L476,-156L480,-167L486,-167L487,-175L498,-173L499,-183L503,-184L510,-176L519,-165L520,-142L522,-137L512,-133L506,-123L507,-115L498,-104L486,-93L482,-75L486,-67L492,-60L486,-47L480,-45L478,-26L475,-16L468,-17L464,-9L458,-9L456,-18L451,-30Z" fill="#E0E0E0" stroke="#fff" stroke-width=".4"/><path d="M547,-17L553,-14L553,-12L557,-13L562,-11L563,-6L562,-3L565,4L568,5L567,7L571,9L573,12L571,14L566,13L565,14L566,17L568,24L563,24L561,26L560,31L558,30L553,30L551,28L549,30L547,29L542,28L536,26L530,25L525,26L522,28L519,29L519,24L518,20L521,18L521,14L519,10L519,6L525,6L531,2L532,-3L537,-7L537,-11L540,-13Z" fill="#E0E0E0" stroke="#fff" stroke-width=".4"/><path d="M568,24L570,24L571,22L573,22L579,21L583,27L581,29L582,32L586,32L589,36L588,38L596,41L600,40L604,44L607,44L616,47L616,49L614,54L615,59L614,62L608,62L605,65L605,69L600,69L597,72L591,72L586,76L586,80L585,80L585,78L583,78L579,76L577,78L576,77L567,75L567,72L562,73L559,78L555,84L552,82L549,84L547,82L548,81L549,78L551,76L551,74L552,74L552,75L556,75L557,74L556,74L557,72L555,70L554,67L552,65L552,62L549,60L547,59L543,57L539,58L537,59L535,59L534,61L529,62L527,63L525,61L521,61L517,60L515,62L514,60L511,57L512,54L514,51L515,52L514,48L519,40L522,39L522,37L519,29L522,28L525,26L530,25L536,26L542,28L547,29L549,30L551,28L553,30L558,30L560,31L561,26L563,24Z" fill="#E0E0E0" stroke="#fff" stroke-width=".4"/><path d="M519,6L519,10L521,14L521,18L518,20L519,24L519,29L522,37L522,39L519,40L514,48L515,52L514,51L508,48L504,49L501,48L498,50L495,47L493,48L492,48L490,43L485,43L485,40L481,39L480,41L477,39L477,37L473,36L470,33L467,27L468,24L466,19L464,15L466,13L465,8L469,5L478,0L485,-3L491,-2L491,1L497,1L504,2L515,2L518,3Z" fill="#E0E0E0" stroke="#fff" stroke-width=".4"/><path d="M481,60L481,63L478,63L479,65L477,71L476,72L471,72L468,74L463,74L454,71L453,68L447,70L447,72L443,70L440,70L438,69L438,66L438,65L440,64L443,67L444,65L449,65L453,63L456,64L458,65L458,64L457,58L459,57L462,53L466,56L469,52L471,52L476,54L478,54L481,56L481,57Z" fill="#E0E0E0" stroke="#fff" stroke-width=".4"/><path d="M511,57L514,60L515,62L511,64L508,70L505,75L500,77L497,76L492,79L490,80L485,78L481,75L479,74L478,71L477,71L479,65L478,63L481,63L481,60L484,62L486,63L491,62L492,60L494,60L497,59L498,59L500,58L502,56L504,55L510,58Z" fill="#E0E0E0" stroke="#fff" stroke-width=".4"/><path d="M537,59L539,58L543,57L547,59L549,60L552,62L552,65L554,67L555,70L557,72L556,74L557,74L556,75L552,75L552,74L551,74L551,76L549,78L548,81L547,82L546,78L546,75L546,71L543,66L541,62L539,60Z" fill="#E0E0E0" stroke="#fff" stroke-width=".4"/><path d="M547,82L549,84L552,82L555,84L555,86L552,88L550,87L549,97L545,96L541,93L534,95L531,97L523,97L518,95L516,96L514,93L513,91L515,90L513,89L511,91L508,88L508,85L504,83L503,80L500,77L505,75L508,70L511,64L515,62L517,60L521,61L525,61L527,63L529,62L534,61L535,59L537,59L539,60L541,62L543,66L546,71L546,75L546,78Z" fill="#E0E0E0" stroke="#fff" stroke-width=".4"/><path d="M537,-11L537,-7L532,-3L531,2L525,6L519,6L518,3L515,2L514,-1L515,-3L512,-5L506,-7L505,-15L512,-19L521,-18L527,-19L528,-17L531,-16Z" fill="#E0E0E0" stroke="#fff" stroke-width=".4"/><path d="M541,-31L544,-28L545,-23L547,-17L540,-13L537,-11L531,-16L528,-17L527,-19L521,-18L512,-19L505,-15L505,-23L508,-30L514,-34L518,-26L523,-26L524,-34L529,-36L532,-35L537,-31Z" fill="#E0E0E0" stroke="#fff" stroke-width=".4"/><path d="M545,-53L546,-51L542,-45L544,-34L541,-31L537,-31L532,-35L529,-36L524,-34L525,-41L523,-39L519,-43L518,-50L526,-53L533,-55L539,-53Z" fill="#E0E0E0" stroke="#fff" stroke-width=".4"/><path d="M465,8L466,13L464,15L466,19L468,24L467,27L470,33L467,34L466,33L464,35L460,36L458,39L454,41L455,43L455,47L458,49L462,53L459,57L457,58L458,64L458,65L456,64L453,63L449,65L444,65L443,67L440,64L438,65L432,62L431,64L426,64L427,58L429,52L421,50L418,48L419,44L418,42L418,36L417,26L421,26L422,22L424,14L423,10L424,8L429,8L430,10L434,5L432,1L432,-5L436,-3L440,-5L440,-1L446,2L446,5L452,3L455,0L462,4Z" fill="#E0E0E0" stroke="#fff" stroke-width=".4"/><path d="M514,93L516,96L518,95L523,97L531,97L534,95L541,93L545,96L549,97L546,100L544,106L545,110L540,109L535,112L534,116L529,116L525,114L520,116L516,116L516,110L513,108L514,107L513,106L514,103L516,101L513,97L513,94Z" fill="#E0E0E0" stroke="#fff" stroke-width=".4"/><path d="M536,160L535,163L526,163L526,162L519,161L520,158L524,160L528,160L533,160L532,161ZM516,116L520,116L525,114L529,116L534,116L535,112L537,114L536,119L534,120L531,119L528,119L521,121L525,125L522,126L518,126L515,122L514,124L515,128L518,132L516,134L519,137L522,139L522,143L517,141L519,145L515,146L517,152L513,152L509,149L506,143L505,139L503,135L500,131L500,129L502,125L503,122L505,121L505,119L509,119L511,117L514,117L515,116Z" fill="#E0E0E0" stroke="#fff" stroke-width=".4"/><path d="M643,147L640,148L638,146L632,145L629,146L623,148L619,148L613,150L608,150L605,149L598,151L596,150L596,154L595,155L593,157L591,153L593,151L590,151L585,150L581,154L572,155L567,151L561,151L559,154L555,154L550,151L543,151L540,143L536,139L539,133L535,130L541,123L550,122L553,116L564,117L571,112L578,110L587,110L597,116L606,119L613,117L618,118L625,114L631,114L636,117L637,120L637,124L641,126L643,128L639,130L641,139L640,141ZM535,112L540,109L545,110L546,113L551,116L550,118L543,118L541,121L536,125L534,121L534,120L536,119L537,114Z" fill="#E0E0E0" stroke="#fff" stroke-width=".4"/><path d="M505,119L505,121L503,122L502,125L500,129L499,128L499,126L495,124L495,120L495,115L496,113L495,111L495,109L497,105L498,106L499,106L501,108L502,109L502,112L502,114L502,117Z" fill="#E0E0E0" stroke="#fff" stroke-width=".4"/><path d="M479,74L481,75L485,78L490,80L492,79L493,82L495,84L493,87L490,86L486,86L481,84L479,85L477,86L475,84L474,88L477,92L478,94L481,97L483,99L485,102L490,105L490,107L484,104L481,101L476,98L471,92L472,92L469,88L469,86L465,84L464,88L462,85L462,82L462,82L466,82L467,81L469,82L472,83L472,80L474,79L474,76Z" fill="#E0E0E0" stroke="#fff" stroke-width=".4"/><path d="M438,65L438,66L438,69L440,70L443,70L443,74L440,75L436,74L435,78L432,78L431,77L427,79L425,80L422,78L420,74L417,76L417,72L422,67L422,65L424,66L426,64L431,64L432,62Z" fill="#E0E0E0" stroke="#fff" stroke-width=".4"/><path d="M418,42L419,44L418,48L417,48L415,47L416,42Z" fill="#E0E0E0" stroke="#fff" stroke-width=".4"/><path d="M418,36L418,42L416,42L415,47L410,43L407,44L403,40L400,36L398,36L397,33L402,31L406,31L411,29L415,34Z" fill="#E0E0E0" stroke="#fff" stroke-width=".4"/><path d="M423,10L424,14L422,22L421,26L417,26L418,36L415,34L411,29L406,31L402,31L405,28L410,14L418,10Z" fill="#E0E0E0" stroke="#fff" stroke-width=".4"/><path d="M330,111L332,109L334,108L336,112L339,112L340,111L343,111L345,115L342,117L342,123L341,124L341,128L339,129L341,133L339,138L341,140L341,142L338,145L339,147L336,149L333,148L330,149L331,143L331,139L328,138L327,135L327,130L330,128L330,125L331,120L331,117L330,114Z" fill="#E0E0E0" stroke="#fff" stroke-width=".4"/><path d="M339,147L338,145L341,142L341,140L339,138L341,133L339,129L341,128L341,124L342,123L342,117L345,115L343,111L340,111L339,112L336,112L334,108L332,109L330,111L330,106L328,102L336,96L343,98L351,98L357,99L362,99L371,99L374,102L384,106L386,104L393,108L400,107L400,111L394,116L387,118L386,121L383,125L381,131L383,135L380,139L378,143L374,145L370,151L362,151L357,151L353,153L351,156L348,155L346,153L344,149Z" fill="#E0E0E0" stroke="#fff" stroke-width=".4"/><path d="M346,6L347,13L343,22L332,28L324,26L329,16L326,6L334,-1L338,-6L339,-1L338,5L342,4Z" fill="#E0E0E0" stroke="#fff" stroke-width=".4"/><path d="M859,337L858,343L856,344L851,346L848,341L847,333L850,323L854,326L856,331Z" fill="#E0E0E0" stroke="#fff" stroke-width=".4"/><path d="M1020,273L1016,271L1016,266L1018,263L1025,261L1028,261L1029,263L1027,266L1025,270ZM850,108L850,103L854,101L848,87L860,84L863,82L867,67L879,69L882,66L882,57L887,56L892,50L894,49L895,56L900,60L909,64L913,70L910,80L912,84L919,85L927,86L934,92L938,92L941,100L944,105L950,104L962,106L970,105L976,106L985,111L992,111L994,114L1001,109L1010,107L1019,106L1026,103L1030,99L1034,97L1033,94L1031,91L1034,85L1038,86L1044,88L1050,83L1058,80L1063,75L1067,72L1075,71L1080,72L1080,69L1075,63L1071,60L1066,63L1060,62L1057,63L1055,60L1060,51L1062,44L1069,47L1078,42L1078,38L1083,28L1086,25L1086,20L1083,17L1088,13L1095,11L1103,11L1111,13L1116,17L1120,27L1122,31L1124,36L1126,45L1137,48L1143,54L1146,63L1155,63L1160,59L1169,57L1166,65L1164,68L1162,77L1158,85L1151,84L1146,87L1148,94L1147,103L1144,103L1144,107L1140,103L1138,107L1129,110L1130,115L1125,114L1122,112L1118,117L1111,121L1107,126L1099,129L1094,132L1088,134L1091,131L1090,128L1094,123L1091,119L1086,121L1080,127L1076,131L1070,132L1067,135L1071,140L1075,142L1075,145L1080,147L1087,142L1092,145L1096,145L1096,149L1088,151L1086,155L1080,158L1077,163L1083,167L1085,174L1089,180L1093,186L1093,191L1089,193L1091,196L1094,198L1093,204L1092,209L1088,210L1084,217L1079,225L1074,233L1066,239L1058,244L1051,245L1048,248L1046,246L1042,249L1034,252L1028,253L1026,259L1023,260L1021,255L1023,253L1015,251L1012,252L1006,250L1003,248L1004,244L999,243L996,241L991,244L986,245L981,245L978,246L975,247L976,254L973,254L972,253L972,250L968,252L965,251L961,248L962,243L959,242L957,236L951,237L952,230L957,224L958,219L958,214L955,212L953,208L950,209L943,208L945,205L943,201L938,204L934,202L927,206L922,211L917,212L914,210L911,210L907,209L904,210L900,215L900,210L896,211L889,211L883,209L878,206L873,205L871,202L868,201L862,196L858,194L855,196L847,191L841,187L840,179L844,180L844,177L842,173L842,167L836,159L826,156L825,151L820,147L819,145L818,141L819,138L815,136L813,137L812,130L813,128L813,127L818,123L822,122L828,123L831,118L838,117L840,114L849,109Z" fill="#E0E0E0" stroke="#fff" stroke-width=".4"/><path d="M443,70L447,72L447,70L453,68L454,71L463,74L462,78L464,81L459,80L454,83L454,87L454,90L456,94L461,98L464,104L471,111L475,111L477,112L475,114L480,117L484,119L489,123L490,125L489,127L486,124L481,122L478,127L482,130L482,134L479,135L476,141L474,142L474,139L475,135L476,134L474,129L472,125L470,125L468,121L464,120L462,117L457,116L453,113L448,108L444,103L442,95L439,94L434,91L431,93L428,96L426,97L426,93L423,92L422,86L424,84L422,80L422,78L425,80L427,79L431,77L432,78L435,78L436,74L440,75L443,74ZM468,140L473,139L471,145L472,147L470,151L466,148L463,147L455,144L456,140L462,141ZM433,119L436,117L439,122L439,132L436,132L434,134L431,132L431,123L430,119Z" fill="#E0E0E0" stroke="#fff" stroke-width=".4"/><path d="M440,-5L436,-3L432,-5L430,-10L429,-21L430,-24L432,-27L437,-28L439,-31L444,-34L444,-28L442,-25L443,-22L446,-20L444,-16L443,-17L439,-10ZM454,-16L456,-11L453,-3L447,-9L446,-13Z" fill="#E0E0E0" stroke="#fff" stroke-width=".4"/><path d="M346,6L342,4L338,5L339,-1L338,-6L343,-7L349,-0ZM364,11L364,11L365,5L361,-1L361,-1L354,-3L353,-5L355,-10L353,-13L350,-8L349,-18L346,-23L349,-35L353,-44L358,-43L365,-44L359,-32L364,-33L371,-33L369,-24L364,-15L370,-14L371,-13L376,-1L380,1L383,12L385,16L392,17L391,24L388,26L391,31L385,36L378,36L368,39L365,37L361,41L356,40L352,43L349,42L357,32L362,30L362,30L353,28L352,25L358,22L354,17L356,10Z" fill="#E0E0E0" stroke="#fff" stroke-width=".4"/><path d="M298,-143L296,-134L303,-124L295,-114L279,-105L274,-102L266,-104L250,-108L255,-114L243,-121L253,-124L253,-128L240,-131L244,-140L253,-142L262,-133L271,-141L279,-136L288,-144Z" fill="#E0E0E0" stroke="#fff" stroke-width=".4"/><path d="M653,111L654,112L658,116L661,117L662,115L665,112L669,116L672,121L674,122L676,124L671,124L670,130L669,133L667,135L667,138L666,139L662,135L664,131L662,129L660,130L653,135L653,130L651,129L648,127L650,124L647,122L648,120L646,118L644,116L646,115L650,117L653,118L654,117L651,113ZM651,135L647,134L644,131L643,128L645,128L646,130L649,130L649,131Z" fill="#E0E0E0" stroke="#fff" stroke-width=".4"/><path d="M615,99L616,98L621,99L629,101L637,105L638,106L642,105L647,106L649,110L653,111L651,113L654,117L653,118L650,117L646,115L644,116L636,117L631,114L625,114L625,111L624,105L621,102L617,101Z" fill="#E0E0E0" stroke="#fff" stroke-width=".4"/><path d="M966,343L967,342L971,344L972,347L976,347L978,344L979,345L982,348L985,352L985,356L985,359L985,361L986,364L988,366L990,371L990,373L986,373L980,369L973,365L973,362L969,358L968,353L966,350L967,345ZM1069,357L1064,356L1058,356L1056,362L1053,364L1050,372L1046,374L1040,372L1037,372L1034,375L1030,375L1027,376L1023,373L1022,369L1026,371L1030,370L1031,365L1034,364L1041,363L1045,358L1048,354L1051,357L1052,355L1055,355L1055,352L1055,349L1060,345L1063,340L1065,340L1068,343L1068,346L1072,347L1077,349L1077,351L1073,352L1074,355Z" fill="#E0E0E0" stroke="#fff" stroke-width=".4"/><path d="M463,74L468,74L471,72L476,72L477,71L478,71L479,74L474,76L474,79L472,80L472,83L469,82L467,81L466,82L462,82L464,81L462,78Z" fill="#E0E0E0" stroke="#fff" stroke-width=".4"/><path d="M549,-183L548,-172L557,-162L552,-150L558,-134L555,-122L560,-112L557,-103L566,-94L564,-88L558,-81L546,-65L535,-64L525,-60L516,-57L512,-64L507,-68L508,-80L505,-91L508,-98L513,-107L526,-121L530,-124L530,-130L522,-137L520,-142L519,-165L510,-176L503,-184L506,-188L513,-180L520,-181L526,-177L532,-184L535,-196L544,-202L551,-195Z" fill="#E0E0E0" stroke="#fff" stroke-width=".4"/><path d="M514,51L512,54L511,57L510,58L504,55L502,56L500,58L498,59L497,59L494,60L492,60L491,62L486,63L484,62L481,60L481,57L481,56L482,54L485,54L487,53L487,52L488,52L488,50L490,49L490,48L492,48L493,48L495,47L498,50L501,48L504,49L508,48Z" fill="#E0E0E0" stroke="#fff" stroke-width=".4"/><path d="M470,33L473,36L477,37L477,39L480,41L481,39L485,40L485,43L490,43L492,48L490,48L490,49L488,50L488,52L487,52L487,53L485,54L482,54L481,56L478,54L476,54L471,52L469,52L466,56L462,53L458,49L455,47L455,43L454,41L458,39L460,36L464,35L466,33L467,34Z" fill="#E0E0E0" stroke="#fff" stroke-width=".4"/><path d="M595,296L594,293L597,284L597,280L599,278L603,277L606,274L610,281L611,287L614,290L622,295L626,299L629,302L631,304L633,306L632,307L629,307L627,305L625,301L622,300L621,297L616,295L612,295L610,294L607,295L603,292L601,297Z" fill="#E0E0E0" stroke="#fff" stroke-width=".4"/><path d="M43,501L45,504L45,513L51,514L53,513L57,514L58,516L59,522L59,525L61,525L64,524L66,525L66,528L65,532L64,536L63,542L58,547L53,548L46,547L41,545L46,535L45,532L39,530L32,525L28,524L17,514L19,506L19,503L22,497L32,496L38,496L43,499Z" fill="#E0E0E0" stroke="#fff" stroke-width=".4"/><path d="M685,268L690,278L692,282L688,284L687,287L686,289L681,291L671,294L666,298L663,299L662,298L658,301L655,302L650,302L648,302L647,304L645,304L645,306L642,306L640,307L636,306L634,303L634,300L633,298L632,293L631,291L632,291L631,288L632,287L632,284L634,282L634,280L635,277L638,278L639,278L646,277L647,278L653,279L655,278L656,280L659,279L663,273L669,270Z" fill="#E0E0E0" stroke="#fff" stroke-width=".4"/><path d="M586,201L593,203L595,200L596,198L601,197L602,195L604,194L598,187L610,183L611,182L618,184L626,189L643,203L654,203L659,204L660,207L665,207L667,213L670,214L671,216L675,219L675,222L674,224L675,226L677,228L678,230L678,232L680,233L682,232L683,235L683,236L685,243L703,246L704,245L707,249L703,262L685,268L669,270L663,273L659,279L656,280L655,278L653,279L647,278L646,277L639,278L638,278L635,277L634,280L634,282L632,284L631,281L629,280L629,277L626,275L623,270L621,265L617,261L614,260L610,254L610,249L610,245L607,238L604,236L601,235L599,231L599,230L598,226L596,225L594,220L590,215L587,210L584,210L585,206L585,204Z" fill="#E0E0E0" stroke="#fff" stroke-width=".4"/><path d="M573,162L573,162L574,160L579,160L584,158L580,161L580,162L580,162L579,162L578,162L577,163L577,162L577,161L576,161L574,162Z" fill="#E0E0E0" stroke="#fff" stroke-width=".4"/><path d="M573,162L574,162L576,161L577,161L577,162L577,163L578,162L579,162L580,162L580,162L581,163L575,166L572,165L570,162Z" fill="#E0E0E0" stroke="#fff" stroke-width=".4"/><path d="M370,161L372,166L372,170L374,178L376,179L375,182L367,183L364,185L361,186L361,191L354,194L352,197L347,199L341,200L332,205L332,213L331,213L331,216L327,216L326,218L323,218L321,217L316,218L314,223L312,223L309,232L301,238L299,247L297,250L296,252L283,253L283,253L283,250L286,248L287,245L287,243L289,238L292,234L294,233L296,229L296,226L298,222L302,220L306,213L306,213L309,210L314,210L319,205L322,203L327,198L325,189L327,183L328,180L332,175L338,172L342,169L346,162L348,157L352,157L356,160L361,160L367,161Z" fill="#E0E0E0" stroke="#fff" stroke-width=".4"/><path d="M597,249L574,249L551,249L528,249L528,226L528,202L526,197L528,193L527,190L529,187L537,186L542,188L548,190L551,191L555,189L558,187L563,187L567,187L569,191L570,189L575,190L579,191L582,189L585,199L586,201L584,203L583,208L581,212L580,213L578,211L575,208L571,198L571,199L573,206L577,212L581,223L583,226L585,230L590,237L589,238L589,242L596,248Z" fill="#E0E0E0" stroke="#fff" stroke-width=".4"/><path d="M528,249L528,262L521,262L521,264L498,252L475,240L469,244L465,246L461,243L452,240L450,236L445,233L442,234L440,230L440,228L437,223L439,220L438,216L439,213L439,210L440,204L439,201L438,195L440,194L441,191L440,188L444,185L446,183L449,181L449,176L456,178L459,177L463,179L471,182L474,188L479,189L487,192L494,195L496,194L499,190L498,185L500,182L504,179L508,178L516,179L518,182L520,182L522,183L528,184L529,187L527,190L528,193L526,197L528,202L528,226Z" fill="#E0E0E0" stroke="#fff" stroke-width=".4"/><path d="M661,334L644,351L637,352L632,356L628,356L626,358L622,358L620,356L615,358L613,361L609,360L608,360L606,360L605,360L597,355L593,355L591,353L591,349L588,348L585,342L582,341L581,338L578,336L574,335L576,332L579,332L580,330L580,325L582,318L585,317L585,314L588,310L591,307L594,301L595,296L601,297L603,292L607,295L610,294L612,295L616,295L621,297L622,300L625,301L627,305L629,307L627,310L625,312L626,314L626,316L629,316L630,315L632,317L630,319L633,322L635,325L637,327L656,334Z" fill="#E0E0E0" stroke="#fff" stroke-width=".4"/><path d="M629,307L632,307L633,306L635,308L635,310L631,312L634,313L632,317L630,315L629,316L626,316L626,314L625,312L627,310Z" fill="#E0E0E0" stroke="#fff" stroke-width=".4"/><path d="M668,314L668,314L668,316L668,322L668,325L665,329L661,334L656,334L637,327L635,325L633,322L630,319L632,317L634,313L636,314L637,317L639,319L642,319L648,318L654,317L659,315L662,315L664,314Z" fill="#E0E0E0" stroke="#fff" stroke-width=".4"/><path d="M580,386L568,387L562,387L560,387L556,389L555,388L555,384L556,382L556,377L558,374L560,371L562,370L564,368L562,367L562,360L564,359L568,360L573,359L577,359L581,356L583,360L584,363L587,370L584,374L582,378L580,380Z" fill="#E0E0E0" stroke="#fff" stroke-width=".4"/><path d="M560,387L562,391L562,394L560,395L557,394L555,398L551,397L552,394L553,394L553,390L555,388L556,389Z" fill="#E0E0E0" stroke="#fff" stroke-width=".4"/><path d="M490,105L485,102L483,99L481,97L478,94L477,92L474,88L475,84L477,86L479,85L481,84L486,86L490,86L493,87L495,87L494,91L497,94L496,98L494,98L493,99L491,101Z" fill="#E0E0E0" stroke="#fff" stroke-width=".4"/><path d="M513,108L516,110L516,116L515,116L514,117L511,117L509,119L505,119L502,117L502,114L502,112L503,112L503,110L507,109L508,108L510,108Z" fill="#E0E0E0" stroke="#fff" stroke-width=".4"/><path d="M492,79L497,76L500,77L503,80L504,83L508,85L508,88L511,91L513,89L515,90L513,91L514,93L513,94L513,97L516,101L514,103L513,106L514,107L513,108L510,108L508,108L508,108L509,107L509,105L508,105L507,104L506,103L506,102L504,101L504,100L503,101L502,103L500,104L501,103L499,102L497,101L496,100L494,98L496,98L497,94L494,91L495,87L493,87L495,84L493,82Z" fill="#E0E0E0" stroke="#fff" stroke-width=".4"/><path d="M499,106L498,106L497,105L495,109L495,111L494,111L492,108L490,107L490,105L491,101L493,99L494,98L496,100L497,101L499,102L501,103L500,104Z" fill="#E0E0E0" stroke="#fff" stroke-width=".4"/><path d="M502,112L502,109L501,108L499,106L500,104L502,103L503,101L504,100L504,101L506,102L506,103L507,104L508,105L509,105L509,107L508,108L508,108L507,109L503,110L503,112Z" fill="#E0E0E0" stroke="#fff" stroke-width=".4"/><path d="M23,318L26,317L27,317L27,321L22,322L21,322L23,320Z" fill="#E0E0E0" stroke="#fff" stroke-width=".4"/><path d="M562,360L557,356L556,354L552,355L550,355L548,356L545,355L542,350L541,348L537,346L535,342L533,340L529,337L529,335L525,332L522,330L523,330L525,328L527,323L528,320L533,320L534,321L537,325L538,325L540,324L545,324L545,326L551,326L551,324L554,323L555,322L557,320L562,324L565,323L568,319L571,316L571,312L569,310L573,310L573,309L576,309L575,313L576,318L579,320L580,322L579,325L580,325L580,330L579,332L576,332L574,335L578,336L581,338L582,341L585,342L588,348L584,352L581,356L577,359L573,359L568,360L564,359Z" fill="#E0E0E0" stroke="#fff" stroke-width=".4"/></g><g clip-path="url(#v)"><path d="M432.3,148.6L432.4,149.0L432.4,149.4L431.9,149.7L431.5,149.9L431.1,150.9L430.3,151.5L430.1,151.7L430.1,151.9L430.7,152.1L430.9,152.4L431.0,152.8L430.7,154.1L430.6,155.1L430.3,156.4L430.3,156.9L430.6,157.5L430.8,157.9L430.8,158.4L430.8,159.7L431.0,160.5L431.2,161.1L430.7,162.0L430.5,162.7L430.4,163.8L430.3,164.5L430.0,165.1L429.6,165.7L429.2,166.1L428.6,166.4L428.0,166.8L427.5,167.9L426.3,168.8L426.1,169.1L426.0,169.8L426.0,170.8L426.2,171.6L426.7,172.8L427.2,174.1L427.3,174.8L427.5,175.0L428.2,175.5L429.4,176.0L429.6,176.3L430.1,177.2L430.7,178.8L430.9,179.8L431.9,180.7L432.9,181.4L433.8,182.1L434.9,182.8L435.0,183.1L435.3,184.6L435.7,186.2L436.1,187.9L436.4,189.6L436.9,191.5L437.1,192.7L437.4,194.0L437.8,195.6L437.2,196.0L436.6,196.4L437.0,197.2L437.9,198.5L438.5,199.6L438.7,200.1L439.1,201.4L439.4,202.7L439.5,203.1L439.7,204.1L439.5,206.8L439.7,210.2L440.1,211.9L439.6,213.4L439.1,214.9L439.1,215.6L439.4,216.8L439.6,217.6L440.0,218.1L439.9,219.5L439.7,220.0L438.7,220.7L437.6,221.4L437.3,222.0L437.2,222.6L437.4,223.2L438.1,224.3L439.3,226.0L440.6,227.9L440.7,228.4L440.7,229.7L441.3,231.4L441.8,232.1L442.1,232.7L442.5,233.1L442.9,233.3L443.1,233.4L444.6,232.9L447.0,233.7L449.4,234.4L449.5,234.6L450.0,235.6L450.9,237.1L451.5,238.4L452.0,239.5L449.0,241.5L446.0,243.4L443.0,245.3L440.0,247.3L437.0,249.2L433.9,251.1L430.9,253.0L427.9,254.9L425.9,256.2L424.6,257.3L423.0,258.7L421.5,260.1L420.3,261.2L418.8,262.6L418.0,263.3L416.3,264.8L415.8,265.1L413.5,265.6L411.4,266.0L409.5,266.4L408.2,266.6L406.9,266.9L405.1,267.3L403.8,267.5L402.3,267.8L402.1,267.9L401.8,267.9L401.7,267.9L401.3,267.7L400.8,267.3L400.5,267.2L400.4,266.9L400.6,266.5L400.8,266.1L400.9,265.9L401.1,265.7L401.2,265.5L401.3,265.3L401.1,264.9L400.9,264.3L400.9,263.4L400.9,263.0L400.9,262.9L400.5,262.5L399.7,262.1L399.0,261.9L398.6,261.8L397.8,261.7L396.7,261.4L396.3,261.2L395.6,260.3L395.2,260.1L393.5,259.9L393.0,259.8L392.5,259.6L392.1,259.3L391.9,258.8L391.8,258.4L391.7,258.2L389.8,257.2L389.3,256.8L389.1,256.5L389.1,256.1L389.1,255.5L389.0,255.0L389.0,254.7L388.1,254.2L386.2,252.8L384.3,251.5L382.4,250.1L380.5,248.8L378.6,247.4L376.6,246.1L374.7,244.7L372.8,243.4L370.9,242.0L369.0,240.7L367.1,239.3L365.2,237.9L363.3,236.6L361.4,235.2L359.5,233.8L357.6,232.5L356.0,231.3L354.2,230.1L352.8,229.2L351.5,228.3L350.1,227.3L349.2,226.7L348.1,226.0L347.0,225.3L345.9,224.6L344.8,223.9L343.7,223.1L342.6,222.4L341.5,221.7L340.4,221.0L339.3,220.3L338.2,219.5L337.1,218.8L336.0,218.1L334.9,217.4L333.9,216.6L332.8,215.9L331.6,215.2L331.6,213.9L331.6,212.8L331.6,211.2L331.6,209.8L331.6,208.4L331.6,207.4L331.6,206.4L331.7,205.9L331.8,205.7L332.4,205.4L333.3,204.7L333.7,204.3L334.1,204.0L335.7,203.0L336.0,202.7L337.5,201.5L337.8,201.4L338.6,201.2L339.0,201.0L339.4,200.6L340.1,200.0L340.5,199.8L340.7,199.7L340.9,199.7L342.3,199.8L342.9,200.0L343.6,200.1L343.8,200L344.0,199.8L344.3,199.5L344.3,199.0L344.3,198.6L344.4,198.5L344.5,198.4L344.8,198.4L345.2,198.5L346.0,198.4L346.3,198.4L347.3,198.3L348.6,198.1L349.7,197.7L350.5,197.5L351.4,196.8L352.1,196.1L352.8,195.0L353.3,194.0L354.4,193.4L355.3,193.1L355.9,192.9L357.1,192.5L358.1,191.7L359.0,191.0L359.8,190.9L360.7,190.8L360.9,190.6L361.1,190.4L361.2,190.0L360.9,189.6L360.5,189.5L360.3,189.3L360.1,189.3L359.9,189.1L360.0,188.7L360.0,188.3L360.2,187.9L360.1,187.4L359.9,186.9L359.8,186.5L359.9,186.2L360.0,185.9L360.3,185.7L360.7,185.6L361.3,185.7L362.2,185.6L364.7,184.7L364.9,184.4L365.0,183.8L365.2,183.3L365.5,183.1L365.6,183.1L366.4,182.9L367.6,182.7L368.0,182.7L369.3,182.7L370.2,182.8L371.7,182.8L372.7,182.9L373.7,182.9L374.8,183.0L375.1,182.8L375.1,182.4L374.9,181.7L375.0,181.2L375.5,180.8L376.1,180.3L375.8,179.8L375.3,179.4L374.7,178.9L374.4,178.7L373.8,178.1L373.5,177.5L373.2,176.1L372.8,175.4L372.5,174.4L372.8,172.7L372.3,171.6L372.3,171.2L372.3,170.7L372.4,169.7L372.3,168.4L371.8,167.1L372.1,166.6L372.2,166.4L372.1,166.2L371.7,165.7L371.5,165.4L371.6,165.0L371.8,164.6L371.8,164.4L371.1,163.8L369.8,162.8L369.5,162.4L369.3,161.8L370.5,162.0L371.1,161.9L372.5,161.3L373.6,160.4L374.5,160.0L375.3,159.1L375.9,158.5L376.9,157.8L379.8,156.4L380.2,156.4L381.2,156.7L382.0,156.6L382.6,156.1L383.2,155.0L384.1,154.3L385.3,153.5L386.9,152.9L387.9,152.2L389.6,151.7L393.8,151.3L395.9,151.0L397.4,151.1L398.9,150.1L399.6,149.7L402.8,149.7L404.3,148.9L410.0,148.9L410.7,149.2L411.4,149.6L412.6,150.5L413.1,150.7L413.9,150.5L415.7,149.6L417.6,149.2L418.7,148.6L419.2,147.8L420.1,147.6L420.6,148.2L422.7,148.8L423.9,148.6L424.5,148.4L424.3,147.5L425.6,147.7L426.6,148.2L427.7,149.1L428.4,149.2L429.7,148.8Z" fill="#4ECDC4" stroke="#2C3E50" stroke-width="1"/></g><circle cx="400.0" cy="150.0" r="4" fill="#E74C3C" stroke="#fff" stroke-width="2"/><text x="400.0" y="140.0" text-anchor="middle" font-family="sans-serif" font-weight="700" font-size="10" fill="#2D3436">Algiers</text></svg>