<svg viewBox="0 0 800 300" xmlns="http://www.w3.org/2000/svg"><defs><clipPath id="v"><rect width="800" height="300"/></clipPath></defs><rect width="800" height="300" fill="#DCEEF8"/><g clip-path="url(#v)"><path d="M586,1321L586,1392L606,1392L618,1393L611,1407L595,1417L586,1416L575,1413L561,1403L541,1398L517,1380L498,1363L472,1327L488,1334L514,1355L539,1366L549,1352L555,1330L572,1317ZM568,484L577,498L580,512L590,521L584,540L594,563L601,591L615,588L617,593L611,615L590,625L591,660L587,667L592,675L579,688L567,708L560,728L562,749L550,771L559,810L564,814L564,835L553,858L553,877L539,892L539,914L545,937L533,946L528,968L524,993L527,1024L519,1029L524,1059L532,1069L526,1080L535,1085L537,1095L529,1100L531,1116L524,1152L514,1176L516,1190L510,1209L496,1221L497,1252L504,1263L516,1261L516,1284L524,1302L570,1306L587,1310L570,1310L561,1318L544,1329L541,1359L533,1359L512,1349L490,1327L467,1309L461,1290L466,1272L457,1252L454,1203L462,1175L482,1154L453,1146L471,1122L478,1077L499,1087L509,1033L496,1026L490,1058L478,1054L484,1018L491,971L499,955L494,931L492,904L500,903L512,865L525,829L533,795L529,762L534,744L532,717L543,691L546,650L552,606L558,561L557,528L553,500L563,494Z" fill="#E0E0E0" stroke="#fff" stroke-width=".4"/><path d="M528,-234L529,-223L528,-215L523,-212L528,-206L528,-200L515,-204L506,-202L495,-204L486,-200L476,-206L477,-213L495,-210L509,-208L516,-213L507,-221L507,-229L496,-232L500,-238L511,-237Z" fill="#E0E0E0" stroke="#fff" stroke-width=".4"/><path d="M528,-200L528,-206L523,-212L528,-215L529,-223L528,-234L530,-237L545,-237L556,-232L561,-232L564,-225L575,-226L574,-220L583,-219L592,-212L585,-203L576,-208L567,-207L561,-208L558,-204L550,-203L547,-208L541,-205L534,-191L529,-195Z" fill="#E0E0E0" stroke="#fff" stroke-width=".4"/><path d="M-331,-504L-309,-506L-285,-509L-287,-504L-258,-493L-215,-478L-178,-478L-163,-478L-163,-487L-130,-487L-123,-479L-113,-472L-102,-462L-96,-451L-91,-439L-81,-432L-66,-426L-54,-443L-38,-443L-25,-435L-16,-420L-9,-407L2,-395L6,-380L12,-370L26,-364L40,-359L47,-360L40,-342L36,-327L35,-299L33,-289L37,-278L42,-268L46,-252L59,-237L63,-226L71,-216L91,-211L98,-202L115,-208L129,-210L144,-213L155,-217L167,-225L172,-237L174,-254L177,-260L190,-265L210,-270L226,-269L238,-271L242,-266L242,-256L232,-245L227,-232L231,-229L228,-220L223,-205L218,-210L214,-209L211,-209L204,-197L200,-199L198,-198L198,-196L181,-196L163,-196L163,-185L155,-185L162,-178L169,-173L171,-169L174,-168L173,-161L149,-161L140,-145L143,-141L140,-137L140,-131L119,-152L109,-159L93,-164L83,-162L68,-155L58,-153L45,-158L31,-162L13,-171L-1,-174L-23,-183L-38,-192L-43,-198L-54,-199L-73,-205L-81,-214L-101,-226L-111,-238L-115,-248L-109,-250L-111,-256L-107,-261L-107,-268L-113,-277L-115,-285L-121,-296L-138,-316L-157,-332L-166,-345L-182,-354L-185,-359L-183,-372L-192,-377L-203,-387L-208,-402L-218,-404L-229,-415L-238,-426L-239,-432L-249,-449L-256,-466L-255,-474L-269,-483L-275,-482L-286,-488L-289,-479L-286,-468L-284,-452L-278,-443L-264,-428L-261,-423L-258,-421L-255,-414L-252,-414L-248,-400L-242,-395L-238,-387L-227,-377L-220,-357L-215,-348L-209,-338L-208,-327L-199,-326L-192,-317L-185,-308L-185,-304L-193,-297L-197,-297L-202,-309L-214,-321L-228,-331L-237,-336L-237,-352L-239,-363L-248,-369L-261,-379L-264,-376L-269,-382L-280,-387L-292,-399L-290,-401L-282,-400L-275,-408L-275,-417L-289,-433L-300,-439L-307,-452L-314,-467L-323,-484Z" fill="#E0E0E0" stroke="#fff" stroke-width=".4"/><path d="M874,825L869,813L877,802L867,787L852,774L832,760L825,761L806,744L794,746L819,717L841,696L853,687L869,675L870,658L860,646L851,650L854,638L857,626L857,615L850,611L843,614L836,613L834,605L832,586L829,580L816,575L808,579L788,575L789,547L784,536L790,532L788,521L793,512L796,496L792,484L782,478L780,470L782,459L746,458L739,435L744,435L744,426L740,421L740,410L729,404L717,404L709,398L696,394L689,387L668,384L647,367L649,354L646,346L648,332L624,335L614,342L597,350L593,356L583,357L569,355L558,358L550,356L551,327L535,338L519,338L512,327L499,326L503,318L493,306L485,289L490,286L490,278L501,272L499,262L504,255L505,246L527,234L543,230L545,227L562,228L571,176L571,168L568,157L560,150L560,136L570,133L574,135L575,128L564,126L564,114L600,115L607,108L612,114L616,125L619,123L630,133L644,132L648,126L662,121L670,118L672,110L685,105L684,101L668,99L666,87L667,75L658,70L662,68L676,71L691,75L696,71L710,68L731,61L738,54L735,48L745,47L749,52L747,60L754,63L758,72L753,78L750,94L754,104L756,113L767,122L777,123L779,119L785,118L793,115L799,110L810,111L815,111L825,112L826,108L823,105L825,99L833,101L842,99L853,103L861,107L867,102L871,102L874,108L883,106L890,99L896,85L907,68L913,67L918,78L928,111L939,114L939,127L925,142L931,148L964,151L965,170L979,158L1003,164L1034,176L1044,187L1041,197L1063,192L1099,202L1128,201L1155,217L1180,238L1194,243L1210,244L1217,250L1224,274L1227,286L1219,317L1210,330L1183,357L1171,378L1157,395L1152,396L1147,410L1148,447L1143,477L1141,490L1135,498L1132,525L1112,551L1109,572L1094,581L1090,593L1069,593L1039,601L1026,610L1005,616L983,633L967,653L964,669L967,681L963,702L959,713L946,725L925,763L908,781L895,791L887,812Z" fill="#E0E0E0" stroke="#fff" stroke-width=".4"/><path d="M569,355L583,357L593,356L597,350L614,342L624,335L648,332L646,346L649,354L647,367L668,384L689,387L696,394L709,398L717,404L729,404L740,410L740,421L744,426L744,435L739,435L746,458L782,459L780,470L782,478L792,484L796,496L793,512L788,521L790,532L784,536L783,530L766,520L748,519L715,525L706,543L706,554L698,578L695,574L674,573L666,589L655,575L631,570L615,588L601,591L594,563L584,540L590,521L580,512L577,498L568,484L580,463L572,446L576,440L573,433L580,423L580,406L581,393L585,386Z" fill="#E0E0E0" stroke="#fff" stroke-width=".4"/><path d="M562,228L545,227L543,230L527,234L505,246L504,255L499,262L501,272L490,278L490,286L485,289L493,306L503,318L499,326L512,327L519,338L535,338L551,327L550,356L558,358L569,355L585,386L581,393L580,406L580,423L573,433L576,440L572,446L580,463L568,484L563,494L553,500L534,488L532,480L495,460L461,439L447,427L439,410L442,405L426,379L407,344L389,306L382,297L376,283L361,271L347,263L354,254L344,236L350,223L365,211L368,219L362,223L363,230L371,229L378,231L386,240L397,233L400,220L412,203L435,196L455,176L461,164L459,149L464,148L476,157L482,166L491,170L502,190L516,193L527,188L533,191L545,189L559,198L547,217L553,218Z" fill="#E0E0E0" stroke="#fff" stroke-width=".4"/><path d="M619,123L616,125L612,114L607,108L600,115L564,114L564,126L575,128L574,135L570,133L560,136L560,150L568,157L571,168L571,176L562,228L553,218L547,217L559,198L545,189L533,191L527,188L516,193L502,190L491,170L482,166L476,157L464,148L459,149L450,145L441,139L436,142L420,139L415,131L412,131L393,120L390,115L397,113L396,104L401,97L410,96L418,84L425,74L418,69L422,58L418,41L422,36L419,20L411,10L414,0L420,2L423,-4L419,-15L421,-18L431,-17L445,-31L453,-33L453,-39L457,-55L467,-64L479,-65L481,-69L496,-67L510,-77L518,-81L527,-90L534,-89L539,-84L535,-78L523,-74L518,-65L511,-59L505,-52L503,-38L498,-27L507,-26L510,-17L514,-13L515,-5L513,2L514,6L519,7L523,14L547,12L558,15L572,31L579,29L593,30L604,28L610,31L607,41L603,48L601,61L605,74L610,80L611,84L602,93L608,97L613,104Z" fill="#E0E0E0" stroke="#fff" stroke-width=".4"/><path d="M421,-18L419,-15L423,-4L420,2L414,0L411,10L405,4L401,-6L405,-11L401,-13L397,-19L388,-24L379,-23L376,-16L368,-11L364,-11L362,-7L371,4L366,6L363,9L354,10L351,-2L349,2L342,0L339,-7L331,-8L326,-11L318,-11L317,-7L315,-9L316,-13L318,-17L317,-21L320,-23L316,-26L316,-33L323,-35L330,-28L329,-24L337,-23L339,-25L344,-20L353,-22L361,-26L373,-30L379,-36L390,-35L389,-33L399,-32L408,-29L414,-23Z" fill="#E0E0E0" stroke="#fff" stroke-width=".4"/><path d="M323,-35L316,-33L316,-26L320,-23L317,-21L318,-17L316,-13L315,-9L305,-14L301,-18L303,-21L302,-25L297,-30L290,-34L283,-36L282,-42L277,-45L278,-39L274,-35L270,-40L264,-42L261,-46L262,-52L264,-58L259,-61L263,-64L266,-67L278,-62L283,-64L289,-63L292,-59L297,-57L302,-61L307,-51L314,-43Z" fill="#E0E0E0" stroke="#fff" stroke-width=".4"/><path d="M302,-61L297,-57L292,-59L289,-63L283,-64L278,-62L266,-67L263,-64L257,-70L248,-78L244,-85L236,-91L226,-100L228,-103L231,-100L233,-101L239,-102L241,-106L244,-106L243,-116L248,-116L252,-116L256,-121L261,-118L263,-120L267,-122L273,-128L274,-132L276,-131L278,-136L280,-137L283,-134L287,-133L291,-135L296,-135L303,-138L305,-141L312,-140L310,-138L309,-134L311,-127L307,-120L305,-112L304,-104L305,-99L305,-90L303,-88L301,-80L302,-75L298,-70L299,-65Z" fill="#E0E0E0" stroke="#fff" stroke-width=".4"/><path d="M312,-140L305,-141L303,-138L296,-135L291,-135L287,-133L283,-134L280,-137L278,-136L276,-131L274,-132L273,-128L267,-122L263,-120L261,-118L256,-121L252,-116L248,-116L243,-116L244,-106L241,-106L239,-102L233,-101L230,-107L224,-109L225,-117L222,-119L219,-120L210,-118L210,-120L204,-123L200,-127L194,-129L198,-134L197,-138L198,-142L207,-147L216,-154L218,-154L222,-157L227,-157L229,-156L232,-157L241,-155L249,-156L255,-158L258,-160L264,-159L268,-158L273,-158L277,-160L286,-157L289,-157L294,-153L300,-149L307,-146Z" fill="#E0E0E0" stroke="#fff" stroke-width=".4"/><path d="M194,-129L200,-127L204,-123L210,-120L210,-118L219,-120L222,-119L225,-117L224,-109L222,-104L211,-104L204,-106L196,-110L186,-111L180,-116L181,-118L187,-123L191,-125L190,-128Z" fill="#E0E0E0" stroke="#fff" stroke-width=".4"/><path d="M140,-131L140,-137L143,-141L140,-145L149,-161L173,-161L174,-168L171,-169L169,-173L162,-178L155,-185L163,-185L163,-196L181,-196L198,-196L198,-180L197,-158L202,-158L208,-154L210,-157L216,-154L207,-147L198,-142L197,-138L198,-134L194,-129L190,-128L191,-125L187,-123L181,-118L180,-116L171,-119L159,-119L150,-123Z" fill="#E0E0E0" stroke="#fff" stroke-width=".4"/><path d="M198,-196L198,-198L200,-199L204,-197L211,-209L214,-209L214,-206L218,-206L218,-201L214,-192L216,-189L214,-182L215,-180L213,-170L209,-165L206,-164L202,-158L197,-158L198,-180Z" fill="#E0E0E0" stroke="#fff" stroke-width=".4"/><path d="M735,48L738,54L731,61L710,68L696,71L691,75L676,71L662,68L658,70L667,75L666,87L668,99L684,101L685,105L672,110L670,118L662,121L648,126L644,132L630,133L619,123L613,104L608,97L602,93L611,84L610,80L605,74L601,61L603,48L607,41L610,31L604,28L593,30L579,29L572,31L558,15L547,12L523,14L519,7L514,6L513,2L515,-5L514,-13L510,-17L507,-26L498,-27L503,-38L505,-52L511,-59L518,-65L523,-74L535,-78L534,-73L523,-71L529,-62L529,-52L521,-41L528,-26L536,-27L540,-41L535,-47L534,-62L557,-70L555,-79L561,-85L568,-71L581,-71L593,-60L594,-54L611,-54L631,-56L642,-47L657,-45L667,-51L668,-56L691,-57L714,-57L698,-51L704,-42L719,-41L733,-32L736,-16L746,-17L754,-12L739,-1L737,6L744,13L739,17L727,20L728,29L722,34Z" fill="#E0E0E0" stroke="#fff" stroke-width=".4"/><path d="M815,111L810,111L799,110L793,115L785,118L779,119L777,123L767,122L756,113L754,104L750,94L753,78L758,72L754,63L747,60L749,52L745,47L735,48L722,34L728,29L727,20L739,17L744,13L737,6L739,-1L754,-12L766,-5L778,7L778,17L785,18L796,27L803,33L800,51L789,56L790,60L786,70L794,84L800,84L803,94Z" fill="#E0E0E0" stroke="#fff" stroke-width=".4"/><path d="M853,103L842,99L833,101L825,99L823,105L826,108L825,112L815,111L803,94L800,84L794,84L786,70L790,60L789,56L800,51L803,33L826,37L828,34L843,32L863,38L854,54L855,67L862,78L859,86L857,95Z" fill="#E0E0E0" stroke="#fff" stroke-width=".4"/><path d="M907,68L896,85L890,99L883,106L874,108L871,102L867,102L861,107L853,103L857,95L859,86L862,78L855,67L854,54L863,38L870,40L884,44L904,60ZM2000,-932L2009,-925L2036,-919L2027,-900L2024,-880L2019,-875L2011,-877L2011,-870L1997,-855L1997,-842L2006,-847L2013,-835L2012,-827L2017,-817L2011,-809L2016,-788L2026,-785L2024,-773L2007,-759L1969,-766L1942,-757L1940,-742L1918,-738L1896,-750L1890,-745L1855,-756L1847,-766L1857,-782L1861,-835L1841,-864L1827,-878L1798,-889L1796,-910L1821,-916L1853,-909L1847,-941L1865,-929L1909,-952L1914,-976L1931,-982L1933,-972L1942,-971L1951,-959L1964,-945L1974,-948L1991,-934L1995,-932ZM2049,-746L2061,-756L2064,-734L2058,-714L2049,-719L2045,-736Z" fill="#E0E0E0" stroke="#fff" stroke-width=".4"/><path d="M630,-210L640,-208L643,-204L639,-199L624,-199L613,-198L612,-207L615,-210Z" fill="#E0E0E0" stroke="#fff" stroke-width=".4"/><path d="M417,-209L430,-207L440,-203L443,-197L430,-197L424,-193L413,-197L402,-204L405,-208L413,-210Z" fill="#E0E0E0" stroke="#fff" stroke-width=".4"/><path d="M717,-58L728,-61L732,-60L731,-46L716,-43L712,-45L718,-50Z" fill="#E0E0E0" stroke="#fff" stroke-width=".4"/></g><g clip-path="url(#v)"><path d="M460.2,148.6L459.2,149.3L458.1,149.3L456.6,149.6L454.5,148.9L453.7,148.9L453.7,149.6L455.0,150.4L456.3,151.3L456.8,152.7L457.5,154.3L459.4,156.2L460.6,157.1L460.7,157.7L460.3,159.0L460.3,160.0L460.9,164.6L460.5,164.9L459.7,164.9L459.0,164.9L458.4,164.4L457.9,164.1L457.7,164.8L457.1,166.8L455.9,171.5L454.8,175.5L453.5,177.0L451.5,179.3L448.8,182.4L445.0,186.9L442.2,189.0L439.9,190.7L437.3,192.6L433.9,195.1L430.0,196.4L424.7,198.4L421.0,199.7L418.2,200.7L415.3,201.7L411.5,203.0L410.0,204.2L407.6,207.3L406.4,208.7L405.4,210.0L405.2,210.5L405.3,210.9L405.8,211.5L405.9,212.1L405.2,212.5L404.6,212.6L404.3,212.3L404.1,211.6L403.5,210.9L402.8,210.7L402.3,210.8L402.3,211.5L401.3,214.6L401.3,216.1L400.9,216.7L400.9,218.0L400.0,219.3L399.6,220.4L399.3,221.4L398.5,222.0L398.2,223.0L397.4,225.2L396.6,227.0L396.0,228.4L396.0,229.6L396.4,230.3L396.6,230.9L396.2,232.1L395.9,232.9L394.9,233.5L392.6,234.9L391.7,235.8L391.4,236.9L391.6,237.8L391.5,238.5L390.4,238.8L390.1,239.5L389.4,240.7L388.5,241.0L386.4,240.4L384.9,240.4L383.7,239.9L382.4,238.2L381.4,236.8L380.5,235.0L380.2,232.5L379.1,231.8L377.9,230.9L376.6,231.1L374.9,231.3L374.0,230.7L371.8,229.7L369.9,228.5L368.5,227.9L367.4,228.2L366.7,228.9L365.5,230.2L363.8,231.1L363.1,231.0L362.1,230.4L361.9,229.7L362.7,228.6L364.4,226.2L362.5,226.2L361.9,225.4L361.7,224.5L361.5,223.6L361.8,222.4L362.8,221.9L364.3,222.3L365.3,222.3L366.0,221.3L366.7,220.8L367.4,220.5L367.7,219.9L367.0,218.2L366.8,217.3L367.0,216.8L367.0,215.7L366.9,214.9L366.5,214.3L366.4,213.2L366.1,212.6L365.9,212.1L365.9,211.4L365.5,211.0L364.9,210.7L365.3,210.4L368.1,209.5L369.2,208.5L370.6,207.7L371.8,206.3L372.5,205.0L374.4,199.1L376.2,195.4L375.9,193.6L374.4,191.2L374.1,187.6L374.2,186.5L374.0,185.7L373.1,187.2L373.4,192.4L372.5,194.8L371.3,195.4L370.5,194.9L371.0,191.1L370.1,191.8L368.7,194.4L366.4,196.3L366.3,197.0L365.7,197.8L363.9,197.0L362.5,196.3L358.1,191.9L355.2,191.0L353.5,189.5L353.1,188.9L352.9,188.0L354.6,187.1L356.6,185.9L356.7,183.2L356.7,181.0L355.3,177.5L355.9,172.7L355.6,170.9L354.0,167.0L355.2,165.0L359.3,163.6L360.6,162.6L361.5,159.5L362.5,157.7L364.3,158.4L365.7,158.3L363.8,157.6L362.2,154.9L362.0,153.5L365.0,149.7L366.6,148.8L368.5,146.7L370.2,143.7L370.6,138.8L370.0,135.4L369.4,131.8L370.4,130.8L372.9,130.3L374.9,129.2L375.9,128.1L378.4,128.2L381.2,126.6L385.7,125.7L391.9,123.8L393.2,122.1L392.6,119.1L393.2,119.5L394.9,120.9L396.0,122.3L397.8,123.2L399.2,123.9L403.0,126.8L405.5,128.3L408.2,129.6L412.1,131.0L414.5,130.8L415.1,131.8L415.5,132.9L416.4,133.6L417.9,134.1L418.7,134.3L419.0,134.6L419.8,138.6L420.3,139.1L422.3,139.8L424.7,140.0L425.6,139.9L427.7,141.0L429.3,141.5L431.0,141.9L432.2,142.0L432.7,141.9L432.9,141.5L433.9,141.5L435.3,142.1L437.3,142.2L438.6,141.7L438.8,140.8L438.9,139.4L439.4,138.9L440.8,138.1L441.5,138.3L445.4,140.1L446.2,140.7L447.2,141.9L449.0,143.7L450.9,144.9L453.9,145.4L456.8,147.3ZM368.6,202.8L368.3,203.5L366.4,203.5L365.9,203.2L365.9,202.4L366.4,199.8L366.8,198.6L368.3,197.6L369.5,197.1L371.1,197.2L372.8,198.1L370.8,199.9L369.8,200.2L369.3,200.4ZM391.7,122.9L390.6,123.1L390.2,122.1L391.5,121.1L391.9,120.9ZM175.7,161.2L174.7,161.2L171.8,159.4L172.0,157.6L173.2,156.4L177.0,155.8L178.5,156.9L178.4,159.1L177.1,160.6L176.1,160.9ZM193.0,163.8L190.8,164.6L190.0,164.2L189.6,163.9L189.4,163.4L190.7,162.2L191.9,161.6L193.0,160.2L194.9,159.4L195.6,159.6L195.9,159.9L196.0,160.4L195.4,161.5L194.2,162.2ZM155.1,155.3L153.2,155.6L151.6,155.0L150.9,154.0L150.8,152.5L150.9,152.0L154.5,151.4L155.6,152.7L155.6,154.6ZM174.0,171.9L173.3,172.0L172.2,171.2L173.0,169.7L173.9,170.0L174.5,170.4L174.9,171.0ZM158.0,146.1L159.2,147.3L159.8,150.8L163.6,154.5L164.1,156.5L163.8,157.5L163.9,157.8L165.7,159.3L167.0,160.8L164.9,164.4L160.7,165.9L156.2,165.8L155.3,165.4L154.0,164.1L153.8,162.9L154.5,161.7L156.8,159.9L160.4,158.4L160.8,157.2L159.4,156.0L158.5,153.7L156.2,152.0L155.1,147.0L154.3,146.8L152.7,147.5L152.0,146.9L151.9,146.6L153.6,145.4L153.9,144.6L156.4,144.2L157.4,144.9ZM171.2,152.9L170.3,153.5L166.8,152.8L165.7,151.7L166.6,150.2L167.3,149.6L169.4,150.2L171.6,151.9Z" fill="#4ECDC4" stroke="#2C3E50" stroke-width="1"/></g><circle cx="400.0" cy="150.0" r="4" fill="#E74C3C" stroke="#fff" stroke-width="2"/><text x="400.0" y="140.0" text-anchor="middle" font-family="sans-serif" font-weight="700" font-size="10" fill="#2D3436">Quito</text></svg>