<svg viewBox="0 0 800 300" xmlns="http://www.w3.org/2000/svg"><defs><clipPath id="v"><rect width="800" height="300"/></clipPath></defs><rect width="800" height="300" fill="#DCEEF8"/><g clip-path="url(#v)"><path d="M118,-1708L130,-1765L173,-1770L210,-1712L259,-1653L306,-1594L232,-1535L216,-1429L190,-1404L176,-1294L141,-1289L78,-1369L105,-1417L61,-1457L4,-1581L-19,-1704L61,-1764L77,-1706ZM586,-548L536,-514L513,-507L525,-565L487,-599L442,-570L427,-509L400,-473L368,-493L330,-489L297,-532L280,-510L262,-507L257,-454L202,-466L194,-422L166,-423L147,-368L117,-285L72,-186L83,-163L72,-136L43,-137L24,-75L26,9L45,40L35,110L11,150L-2,183L-22,148L-80,214L-119,227L-159,198L-170,137L-179,-2L-152,-42L-75,-97L-17,-165L37,-263L71,-334L107,-407L156,-466L195,-517L237,-570L301,-607L349,-603L394,-676L447,-672L500,-690L547,-657L592,-624L554,-601ZM478,-1771L434,-1682L349,-1664L263,-1690L258,-1735L216,-1738L184,-1817L274,-1866L317,-1823L346,-1877L420,-1832ZM399,-1433L334,-1377L282,-1409L302,-1445L285,-1490L345,-1519L357,-1465Z" fill="#E0E0E0" stroke="#fff" stroke-width=".4"/><path d="M-2,183L11,150L35,110L45,40L26,9L24,-75L43,-137L72,-136L83,-163L72,-186L117,-285L147,-368L166,-423L194,-422L202,-466L257,-454L262,-507L280,-510L319,-470L365,-417L365,-300L375,-272L325,-252L296,-202L301,-161L254,-107L198,-51L176,37L197,80L225,113L198,178L168,191L157,284L140,333L105,328L88,370L54,372L45,323L20,262Z" fill="#E0E0E0" stroke="#fff" stroke-width=".4"/><path d="M500,330L531,343L535,356L551,350L580,362L582,386L576,400L594,433L606,442L605,451L624,460L633,473L621,484L598,482L592,487L599,503L606,534L581,537L572,547L570,571L558,566L532,568L524,557L513,566L502,559L479,558L447,547L417,543L394,544L378,557L364,559L364,537L355,515L372,505L372,486L364,467L363,446L391,446L423,427L430,399L454,382L451,359L469,350Z" fill="#E0E0E0" stroke="#fff" stroke-width=".4"/><path d="M363,446L364,467L372,486L372,505L355,515L364,537L364,559L379,599L376,612L361,618L335,655L342,676L336,673L308,656L287,662L273,657L256,667L241,651L229,657L227,655L214,632L192,629L189,615L169,610L165,622L149,612L151,600L129,596L115,581L103,551L105,534L98,509L87,491L95,478L89,453L108,439L154,415L191,398L220,407L223,419L251,420L287,425L341,425L356,430Z" fill="#E0E0E0" stroke="#fff" stroke-width=".4"/><path d="M451,359L454,382L430,399L423,427L391,446L363,446L356,430L341,425L338,412L342,398L329,390L298,381L292,337L325,321L374,325L403,319L407,330L423,334Z" fill="#E0E0E0" stroke="#fff" stroke-width=".4"/><path d="M474,260L488,273L491,299L500,330L469,350L451,359L423,334L407,330L403,319L374,325L325,321L292,337L293,297L307,264L335,245L358,286L382,284L387,243L412,233L425,240L450,260Z" fill="#E0E0E0" stroke="#fff" stroke-width=".4"/><path d="M89,453L95,478L87,491L98,509L105,534L103,551L115,581L102,586L94,580L87,589L66,598L55,609L33,620L39,633L42,652L57,663L73,682L63,703L52,708L56,737L54,744L45,735L31,734L10,742L-16,740L-20,751L-35,739L-44,742L-76,728L-82,738L-106,738L-103,706L-88,676L-130,668L-144,656L-142,636L-148,626L-145,595L-150,546L-132,546L-125,528L-118,483L-123,467L-117,456L-93,454L-87,465L-67,440L-74,421L-75,393L-53,399L-34,392L-34,411L-4,423L-5,441L25,431L42,418L75,437Z" fill="#E0E0E0" stroke="#fff" stroke-width=".4"/><path d="M-123,467L-118,483L-125,528L-132,546L-150,546L-145,595L-161,584L-180,563L-207,573L-228,569L-213,557L-187,486L-147,465Z" fill="#E0E0E0" stroke="#fff" stroke-width=".4"/><path d="M-34,392L-53,399L-75,393L-87,364L-88,310L-83,296L-75,280L-49,277L-39,262L-15,246L-16,274L-25,292L-21,307L-5,315L-13,335L-21,329L-42,366ZM37,333L47,359L29,401L-2,372L-6,350Z" fill="#E0E0E0" stroke="#fff" stroke-width=".4"/><path d="M513,-507L508,-450L553,-398L526,-341L560,-257L540,-197L567,-146L555,-103L598,-58L587,-26L560,10L497,88L444,92L393,114L345,126L328,94L300,75L306,15L292,-42L306,-79L332,-121L399,-194L419,-208L416,-238L375,-272L365,-300L365,-417L319,-470L280,-510L297,-532L330,-489L368,-493L400,-473L427,-509L442,-570L487,-599L525,-565Z" fill="#E0E0E0" stroke="#fff" stroke-width=".4"/></g><g clip-path="url(#v)"><path d="M476.2,257.2L475.5,257.4L471.4,256.6L466.9,254.4L464.9,252.7L463.0,252.8L460.6,253.9L452.3,257.0L450.2,256.3L445.3,253.2L442.9,249.9L437.5,243.1L437.1,241.5L436.4,240.3L430.5,238.5L428.4,236.1L426.6,235.7L424.1,234.4L417.3,229.1L415.6,228.6L415.1,229.5L415.4,230.8L414.9,231.5L414.0,231.4L412.5,229.5L410.6,227.8L404.7,231.1L402.6,231.9L400.8,232.1L391.5,236.3L388.7,238.6L387.5,238.4L387.7,236.2L391.6,225.4L392.4,216.8L393.7,215.5L394.2,214.4L393.5,211.6L389.5,209.8L387.9,210.1L386.5,213.0L385.0,215.2L381.4,216.5L378.3,214.3L371.3,211.2L369.4,207.2L368.9,203.1L365.2,199.2L363.7,194.5L364.3,191.3L367.7,189.1L368.6,187.3L364.4,187.6L363.5,187.1L363.2,185.4L361.3,179.7L363.0,177.4L363.8,175.3L362.4,173.4L362.8,171.2L363.9,169.0L363.2,164.1L367.5,161.4L371.7,159.5L380.4,158.5L379.6,153.9L383.2,153.7L389.2,148.1L395.1,149.1L403.8,145.3L420.3,145.3L422.6,143.1L422.2,140.9L422.2,138.5L425.4,139.2L430.5,138.8L450.2,143.4L454.9,143.4L461.6,148.1L465.2,149.4L475.8,149.4L492.1,151.5L495.3,148.3L495.6,147.4L497.1,149.2L499.1,152.1L499.6,153.8L499.0,154.7L497.0,155.6L496.6,156.4L495.7,157.9L493.4,158.2L492.3,159.3L490.8,164.2L488.1,172.2L484.1,178.3L481.0,181.7L479.5,184.2L478.7,187.3L478.4,190.3L481.5,207.1L481.5,210.1L480.8,213.1L480.2,216.3L480.7,219.0L482.7,223.7L484.8,230.5L485.6,234.9L487.1,236.5L488.5,237.7L488.8,238.4L488.7,239.2L488.0,240.1L481.8,242.4L481.0,244.3L480.3,246.5L477.7,249.6L476.9,252.6L476.3,256.0ZM337.5,196.6L339.6,198.0L341.5,197.6L343.4,196.6L347.6,197.5L357.3,204.4L358.2,206.2L352.5,207.0L351.1,209.2L349.7,210.6L348.2,211.1L345.3,214.0L341.6,216.8L340.8,218.4L334.0,218.2L330.3,219.2L327.3,222.4L326.1,228.4L323.9,233.1L321.7,234.8L319.4,235.1L318.7,233.3L319.0,231.5L323.9,224.9L324.9,222.7L322.5,221.7L320.4,219.4L316.0,216.7L315.1,214.6L316.2,214.4L317.2,213.7L318.4,211.9L318.9,209.8L315.3,203.6L317.2,202.6L319.5,202.8L321.8,204.7L324.3,202.5L325.5,202.2L327.3,203.0L329.1,198.9L333.3,197.6L335.4,196.3ZM346.5,185.0L344.0,187.8L342.7,186.7L341.9,185.3L338.8,191.7L335.3,192.8L333.3,191.5L333.5,189.1L331.5,183.0L328.4,181.1L324.2,181.0L321.0,178.4L333.0,176.7L334.2,173.7L336.7,170.5L338.4,170.2L340.0,170.9L340.2,173.4L340.7,174.4L346.0,175.7L348.2,179.7L349,184.6ZM358.8,200.6L356.4,201.2L350.6,197.2L352.0,194.5L353.5,193.5L358.5,195.1L359.1,199.2Z" fill="#4ECDC4" stroke="#2C3E50" stroke-width="1"/></g><circle cx="400.0" cy="150.0" r="4" fill="#E74C3C" stroke="#fff" stroke-width="2"/><text x="400.0" y="140.0" text-anchor="middle" font-family="sans-serif" font-weight="700" font-size="10" fill="#2D3436">Tallinn</text></svg>