<svg viewBox="0 0 800 300" xmlns="http://www.w3.org/2000/svg"><defs><clipPath id="v"><rect width="800" height="300"/></clipPath></defs><rect width="800" height="300" fill="#DCEEF8"/><g clip-path="url(#v)"><path d="M-45,180L-45,181L-45,184L-45,203L-82,202L-82,233L-92,234L-95,241L-93,258L-136,258L-139,262L-138,257L-138,257L-113,256L-112,252L-107,246L-103,229L-88,216L-83,201L-79,200L-75,190L-66,189L-62,190L-57,190L-53,187L-46,187L-47,180Z" fill="#E0E0E0" stroke="#fff" stroke-width=".4"/><path d="M1026,-131L1017,-120L1008,-118L1008,-101L1001,-94L979,-99L971,-70L966,-67L943,-60L953,-33L946,-29L947,-21L940,-23L934,-28L918,-30L899,-30L895,-29L879,-35L873,-32L871,-23L853,-28L845,-26L843,-20L837,-17L822,-6L817,4L813,4L810,-3L796,-3L793,-15L788,-15L789,-31L775,-42L756,-41L743,-38L733,-52L723,-58L706,-70L704,-71L675,-62L676,-5L670,-4L662,-16L655,-20L642,-17L637,-12L637,-16L639,-22L637,-27L624,-33L619,-47L613,-50L613,-56L623,-54L624,-66L633,-68L643,-66L645,-81L643,-91L632,-91L623,-95L610,-87L599,-84L594,-87L595,-95L588,-106L579,-106L570,-117L576,-130L573,-133L582,-152L593,-142L595,-155L618,-174L635,-175L660,-162L673,-155L685,-163L702,-163L717,-154L720,-159L736,-158L738,-167L720,-179L731,-188L729,-193L740,-198L732,-210L737,-217L778,-224L784,-228L812,-235L822,-244L842,-239L845,-219L857,-224L871,-218L870,-207L881,-208L909,-226L905,-220L919,-206L944,-159L950,-169L966,-159L982,-163L988,-160L993,-150L1001,-146L1006,-139L1020,-141Z" fill="#E0E0E0" stroke="#fff" stroke-width=".4"/><path d="M676,-5L675,-62L704,-71L706,-70L723,-58L733,-52L743,-38L756,-41L775,-42L789,-31L788,-15L793,-15L796,-3L810,-3L813,4L817,4L822,-6L837,-17L843,-20L846,-18L837,-8L845,-3L853,-6L866,1L852,12L844,10L839,11L837,7L840,-0L825,3L821,13L816,21L807,20L804,26L812,30L814,40L808,55L800,52L793,52L794,43L779,37L767,30L760,23L747,13L742,-2L738,-5L726,-4L722,-7L720,-19L705,-27L696,-18L687,-13L688,-5Z" fill="#E0E0E0" stroke="#fff" stroke-width=".4"/><path d="M379,552L381,562L380,568L382,574L388,581L394,595L390,594L375,596L372,597L369,604L371,609L369,623L368,634L371,636L379,640L382,638L383,651L374,651L370,644L366,639L357,638L355,632L348,635L339,634L335,629L328,628L323,628L322,624L318,624L313,623L306,625L301,625L299,626L299,612L296,608L295,601L296,594L294,590L294,583L280,583L281,579L276,579L275,581L268,582L265,588L264,591L258,589L254,591L246,592L242,586L240,582L236,576L234,567L201,567L197,568L194,568L189,570L187,566L190,565L191,560L192,557L197,555L199,556L203,552L209,552L210,555L214,557L221,550L227,545L230,541L230,532L235,521L240,515L247,510L248,506L249,502L250,498L250,492L251,482L253,475L257,469L257,462L258,455L263,449L269,445L278,449L285,453L293,454L301,457L305,450L306,449L311,450L324,444L328,447L332,446L334,444L338,443L346,444L353,444L357,443L364,452L369,454L372,452L377,453L383,450L386,455L395,462L395,475L399,477L396,481L391,484L387,490L385,495L384,504L382,508L381,516L378,520L378,526L376,527L375,533L378,538Z" fill="#E0E0E0" stroke="#fff" stroke-width=".4"/><path d="M515,520L509,511L509,470L518,458L521,454L529,454L539,446L553,446L585,412L592,403L597,396L597,390L597,378L597,374L597,373L601,373L606,371L612,370L617,366L622,366L622,370L621,376L621,382L619,386L615,398L610,411L603,425L594,442L584,454L571,470L560,479L543,490L533,498L520,512L518,518Z" fill="#E0E0E0" stroke="#fff" stroke-width=".4"/><path d="M489,554L473,543L472,536L432,513L430,512L430,500L433,496L438,488L442,480L437,467L436,462L431,454L438,447L445,440L451,442L451,448L455,452L463,452L477,461L480,461L483,461L485,462L493,463L496,459L506,454L511,458L518,458L509,470L509,511L515,520L508,525L505,529L501,530L499,538L495,543L493,550Z" fill="#E0E0E0" stroke="#fff" stroke-width=".4"/><path d="M326,409L317,404L313,401L313,398L314,393L314,388L308,381L307,376L307,374L303,370L303,364L300,359L296,360L297,356L300,351L299,346L303,343L300,340L303,333L308,324L318,325L317,279L318,274L330,274L330,250L375,250L419,250L463,250L466,262L464,264L466,276L470,290L474,293L480,297L474,304L466,306L463,310L462,317L457,334L458,339L456,349L452,360L445,366L440,374L439,379L434,382L430,394L431,404L430,395L429,395L429,390L428,386L422,381L421,373L422,365L417,364L416,366L409,367L412,370L413,377L407,383L401,392L395,393L386,386L382,388L381,392L375,394L375,396L364,396L362,394L354,394L350,395L347,394L341,388L339,385L331,386L328,392L325,402L321,404L318,405Z" fill="#E0E0E0" stroke="#fff" stroke-width=".4"/><path d="M317,279L318,325L308,324L303,333L300,340L303,343L299,346L300,351L297,356L296,360L300,359L303,364L303,370L307,374L307,376L300,378L294,383L286,395L275,401L265,400L261,401L263,405L257,409L252,413L238,418L235,415L233,415L231,418L222,419L224,415L220,408L219,403L214,401L207,395L210,389L215,390L218,390L224,390L218,379L218,372L218,364L213,357L214,351L207,351L207,344L203,340L207,324L222,313L222,298L227,274L229,269L224,265L224,261L220,258L217,239L228,233L273,256Z" fill="#E0E0E0" stroke="#fff" stroke-width=".4"/><path d="M1097,-1125L1122,-1141L1143,-1105L1169,-1041L1166,-987L1142,-980L1111,-997L1092,-1019L1084,-1065L1068,-1078ZM1198,-1011L1227,-977L1223,-955L1192,-945L1161,-934L1181,-1008L1190,-1015ZM1600,-845L1629,-843L1670,-819L1661,-786L1620,-788L1601,-778L1579,-805L1585,-836ZM1705,-809L1733,-798L1720,-781L1702,-785L1681,-802L1684,-816ZM1611,-727L1622,-743L1636,-747L1652,-731L1653,-721L1636,-721L1613,-725ZM552,-1094L574,-1107L590,-1108L593,-1089L599,-1106L610,-1117L626,-1102L622,-1091L607,-1083L597,-1077L595,-1067L582,-1056L570,-1071L577,-1092ZM305,-223L285,-223L271,-225L273,-233L289,-240L300,-236L305,-233L304,-228ZM648,-742L675,-778L672,-798L697,-821L734,-850L771,-859L790,-877L812,-883L819,-864L812,-850L772,-827L738,-805L704,-765L687,-726L670,-690L672,-660L693,-631L687,-628L650,-633L647,-648L627,-657L625,-677L637,-684L636,-705L659,-737ZM1645,-211L1649,-193L1649,-175L1654,-157L1665,-127L1648,-132L1642,-108L1652,-91L1652,-80L1644,-90L1636,-77L1634,-91L1635,-107L1634,-125L1637,-138L1637,-161L1631,-179L1632,-204L1642,-212L1638,-221L1643,-224ZM-1956,-574L-1956,-574L-1929,-551L-1899,-522L-1900,-504L-1893,-497L-1895,-518L-1865,-513L-1843,-487L-1854,-476L-1873,-473L-1873,-447L-1877,-442L-1888,-442L-1896,-451L-1911,-459L-1914,-471L-1925,-475L-1938,-471L-1944,-481L-1941,-491L-1955,-485L-1950,-472L-1956,-461L-1956,-461L-1956,-574ZM2059,-461L2059,-460L2045,-449L2030,-451L2040,-437L2047,-416L2052,-410L2053,-400L2050,-393L2030,-399L1998,-381L1989,-378L1972,-362L1955,-348L1951,-337L1935,-353L1906,-335L1901,-344L1890,-334L1876,-337L1872,-323L1859,-302L1859,-293L1872,-289L1870,-259L1860,-258L1855,-242L1860,-233L1840,-223L1836,-202L1820,-197L1816,-179L1800,-162L1796,-174L1791,-201L1785,-243L1790,-271L1800,-283L1800,-293L1818,-298L1838,-325L1857,-348L1877,-366L1886,-399L1872,-397L1866,-378L1837,-352L1828,-381L1799,-373L1772,-335L1781,-321L1756,-316L1739,-313L1739,-329L1722,-332L1708,-322L1674,-325L1637,-319L1601,-278L1559,-231L1576,-228L1582,-216L1592,-212L1600,-222L1612,-220L1628,-200L1628,-184L1620,-166L1619,-145L1614,-118L1597,-94L1593,-83L1578,-64L1563,-46L1556,-37L1541,-28L1534,-28L1527,-35L1512,-24L1510,-19L1510,-19L1509,-21L1508,-29L1514,-30L1516,-48L1513,-61L1522,-67L1536,-64L1543,-79L1547,-97L1552,-103L1557,-118L1539,-113L1529,-107L1512,-107L1508,-123L1495,-135L1475,-140L1471,-157L1467,-168L1463,-176L1456,-194L1446,-201L1430,-207L1415,-206L1401,-203L1392,-194L1398,-189L1398,-179L1392,-173L1382,-154L1382,-147L1366,-136L1353,-142L1340,-141L1334,-147L1327,-149L1311,-136L1296,-134L1286,-129L1272,-132L1261,-132L1255,-141L1244,-149L1233,-151L1218,-149L1208,-146L1192,-153L1190,-166L1177,-171L1167,-173L1154,-181L1143,-162L1147,-152L1136,-140L1120,-144L1109,-145L1102,-153L1090,-153L1080,-158L1063,-150L1042,-135L1030,-132L1026,-131L1020,-141L1006,-139L1001,-146L993,-150L988,-160L982,-163L966,-159L950,-169L944,-159L919,-206L905,-220L909,-226L881,-208L870,-207L871,-218L857,-224L845,-219L842,-239L822,-244L812,-235L784,-228L778,-224L737,-217L732,-210L740,-198L729,-193L731,-188L720,-179L738,-167L736,-158L720,-159L717,-154L702,-163L685,-163L673,-155L660,-162L635,-175L618,-174L595,-155L593,-142L582,-152L573,-133L576,-130L570,-117L579,-106L588,-106L595,-95L594,-87L599,-84L594,-74L583,-72L572,-56L582,-41L581,-30L593,-13L587,-7L585,-3L580,-4L572,-13L569,-13L562,-17L559,-23L548,-26L542,-24L540,-27L524,-34L508,-37L499,-39L497,-37L483,-50L470,-56L461,-66L469,-68L478,-81L472,-88L488,-95L488,-98L478,-95L478,-103L484,-107L495,-109L497,-114L494,-123L499,-132L498,-137L482,-143L476,-143L469,-151L460,-148L446,-154L446,-158L442,-166L433,-166L432,-172L435,-176L428,-186L416,-184L413,-185L410,-181L406,-182L403,-193L401,-199L403,-201L412,-201L416,-205L413,-210L405,-213L406,-216L402,-220L395,-232L397,-238L396,-247L385,-252L379,-249L378,-254L366,-259L362,-271L361,-281L356,-286L361,-292L357,-312L365,-325L364,-328L376,-341L365,-351L389,-381L399,-395L403,-407L387,-424L391,-440L381,-460L389,-483L376,-514L386,-536L369,-556L370,-578L379,-580L398,-593L410,-604L428,-585L459,-578L501,-543L510,-529L510,-510L498,-495L480,-488L430,-509L422,-506L440,-485L441,-473L441,-446L456,-438L464,-431L466,-444L459,-455L466,-465L493,-449L503,-455L495,-474L521,-501L531,-500L542,-490L548,-509L539,-526L544,-544L536,-562L567,-553L574,-536L560,-532L560,-516L569,-507L586,-513L588,-531L612,-545L651,-571L659,-570L648,-551L662,-548L670,-558L691,-559L707,-572L720,-553L733,-574L721,-592L727,-603L760,-593L775,-583L816,-548L823,-564L812,-580L811,-587L798,-590L802,-605L796,-631L795,-642L816,-674L823,-707L832,-715L861,-705L863,-684L853,-655L860,-644L863,-620L861,-576L873,-557L868,-537L847,-497L859,-493L864,-503L876,-510L879,-524L889,-538L882,-555L887,-575L875,-578L872,-595L881,-628L867,-656L887,-680L884,-707L890,-708L896,-687L891,-652L903,-646L898,-671L917,-686L940,-688L961,-667L951,-697L949,-738L969,-746L996,-745L1020,-750L1011,-771L1024,-799L1037,-800L1058,-822L1088,-828L1091,-841L1121,-845L1130,-835L1155,-860L1175,-859L1178,-880L1189,-901L1215,-922L1235,-905L1219,-893L1245,-885L1248,-861L1258,-873L1290,-872L1316,-849L1324,-832L1322,-808L1309,-795L1280,-772L1272,-760L1286,-754L1302,-744L1312,-751L1318,-726L1323,-736L1340,-742L1376,-736L1379,-718L1426,-712L1426,-742L1450,-735L1468,-735L1486,-715L1491,-691L1484,-675L1498,-647L1516,-634L1527,-670L1544,-654L1563,-664L1585,-653L1593,-663L1612,-658L1603,-691L1618,-707L1669,-697L1719,-683L1728,-662L1758,-635L1803,-642L1825,-636L1834,-622L1833,-598L1847,-589L1861,-596L1881,-597L1902,-590L1923,-594L1943,-566L1957,-576L1948,-596L1953,-611L1988,-601L2011,-603L2043,-588L2059,-574L2059,-461ZM2059,-635L2047,-633L2045,-644L2059,-659L2059,-635ZM-1956,-659L-1956,-659L-1956,-659L-1954,-660L-1945,-660L-1929,-650L-1930,-645L-1941,-637L-1956,-635L-1956,-635L-1956,-659ZM424,-77L427,-81L435,-78L439,-77L440,-74L442,-73L442,-72L448,-68L459,-69L457,-63L445,-61L429,-52L423,-55L426,-62L414,-67L416,-70L426,-75Z" fill="#E0E0E0" stroke="#fff" stroke-width=".4"/><path d="M-525,455L-531,465L-535,474L-539,478L-544,479L-546,475L-548,475L-552,478L-557,476L-554,471L-553,466L-551,461L-555,454L-556,447L-550,437L-546,438L-538,441L-526,451ZM121,-135L126,-131L142,-127L136,-116L135,-104L132,-101L127,-103L127,-99L119,-89L119,-82L124,-85L128,-77L127,-73L131,-67L127,-62L130,-50L136,-48L135,-41L124,-33L102,-37L86,-32L85,-23L72,-21L59,-28L55,-24L35,-31L30,-37L36,-46L38,-78L27,-95L19,-103L2,-110L0,-122L15,-125L34,-121L30,-140L41,-133L67,-147L70,-161L80,-164L81,-158L86,-158L92,-151L99,-143L105,-144L115,-136L117,-135ZM149,-25L156,-31L158,-18L155,-6L149,-9L147,-19Z" fill="#E0E0E0" stroke="#fff" stroke-width=".4"/><path d="M-135,348L-139,340L-145,335L-140,333L-135,325L-132,319L-128,315L-123,316L-117,314L-111,314L-106,317L-98,320L-92,329L-84,337L-84,344L-81,350L-77,354L-76,358L-77,362L-78,362L-84,361L-85,363L-88,363L-96,360L-101,360L-122,360L-125,361L-129,360L-134,362L-136,354L-126,354L-123,352L-121,352L-117,349L-112,352L-108,352L-103,349L-105,346L-109,348L-112,348L-117,345L-120,345L-123,348Z" fill="#E0E0E0" stroke="#fff" stroke-width=".4"/><path d="M-77,362L-76,358L-77,354L-81,350L-84,344L-84,337L-80,335L-79,328L-75,328L-67,331L-61,328L-57,329L-55,327L-10,326L-8,318L-10,317L-15,266L-20,214L-3,214L34,240L72,267L75,272L82,276L87,277L87,285L99,284L99,311L93,319L92,326L82,328L67,329L63,333L56,333L49,333L46,331L40,333L29,337L27,341L18,346L17,349L12,351L7,350L4,353L2,361L-7,370L-6,374L-9,379L-9,385L-13,387L-16,388L-18,383L-21,385L-23,385L-25,388L-33,388L-37,386L-38,387L-41,384L-41,380L-42,379L-45,380L-44,377L-42,374L-46,369L-48,366L-50,363L-52,363L-55,364L-59,366L-62,368L-67,368L-70,365L-71,364L-74,366L-76,366Z" fill="#E0E0E0" stroke="#fff" stroke-width=".4"/><path d="M-139,262L-136,258L-93,258L-95,241L-92,234L-82,233L-82,202L-45,203L-45,184L-3,214L-20,214L-15,266L-10,317L-8,318L-10,326L-55,327L-57,329L-61,328L-67,331L-75,328L-79,328L-80,335L-84,337L-92,329L-98,320L-106,317L-111,314L-117,314L-123,316L-128,315L-132,319L-133,313L-130,307L-129,296L-130,284L-131,279L-130,273L-133,267Z" fill="#E0E0E0" stroke="#fff" stroke-width=".4"/><path d="M82,432L72,433L70,425L70,399L68,397L67,391L64,387L60,384L62,378L65,377L68,372L73,371L76,367L79,364L83,364L92,371L91,374L94,381L92,386L93,389L88,396L84,399L82,406L82,413Z" fill="#E0E0E0" stroke="#fff" stroke-width=".4"/><path d="M217,239L220,258L224,261L224,265L229,269L227,274L222,298L222,313L207,324L203,340L207,344L207,351L214,351L213,357L210,358L210,361L208,361L200,349L198,348L189,355L180,352L174,351L171,352L164,352L158,357L152,357L139,351L133,354L128,354L123,350L112,345L100,347L97,349L96,356L93,360L92,371L83,364L79,364L76,367L76,360L63,357L63,351L56,344L55,339L56,333L63,333L67,329L82,328L92,326L93,319L99,311L99,284L115,279L147,255L185,232L203,237L209,244Z" fill="#E0E0E0" stroke="#fff" stroke-width=".4"/><path d="M82,432L82,413L82,406L84,399L88,396L93,389L92,386L94,381L91,374L92,371L93,360L96,356L97,349L100,347L112,345L123,350L128,354L133,354L139,351L152,357L158,357L164,352L171,352L174,351L180,352L189,355L198,348L200,349L208,361L210,361L214,366L213,368L212,372L203,380L200,388L198,393L196,396L194,404L188,409L186,414L184,419L183,423L175,427L169,423L164,423L158,429L155,430L149,440L146,448L135,452L131,452L126,454L117,454L111,447L108,439L100,431L91,432Z" fill="#E0E0E0" stroke="#fff" stroke-width=".4"/><path d="M213,357L218,364L218,372L218,379L224,390L218,390L215,390L210,389L207,395L214,401L219,403L220,408L224,415L222,419L216,430L214,432L213,441L214,445L213,449L218,455L219,459L223,464L229,468L229,473L230,476L229,482L221,480L211,477L197,476L196,476L189,477L183,476L177,476L159,476L161,467L156,460L151,458L149,453L146,451L146,448L149,440L155,430L158,429L164,423L169,423L175,427L183,423L184,419L186,414L188,409L194,404L196,396L198,393L200,388L203,380L212,372L213,368L214,366L210,361L210,358Z" fill="#E0E0E0" stroke="#fff" stroke-width=".4"/><path d="M62,378L60,384L64,387L67,391L68,397L70,399L70,425L72,433L63,435L61,431L58,424L57,419L60,408L57,404L56,395L56,387L51,381L52,378Z" fill="#E0E0E0" stroke="#fff" stroke-width=".4"/><path d="M52,378L51,381L56,387L56,395L57,404L60,408L57,419L58,424L61,431L63,435L46,442L40,446L30,449L20,446L20,441L15,432L18,419L23,410L20,393L19,385L19,378L38,378L43,379L47,377Z" fill="#E0E0E0" stroke="#fff" stroke-width=".4"/><path d="M-38,387L-37,386L-33,388L-25,388L-23,385L-21,385L-18,383L-16,388L-13,387L-9,385L-4,388L-2,391L3,394L7,391L12,391L20,393L23,410L18,419L15,432L20,441L20,446L15,446L7,444L-0,444L-13,446L-21,449L-32,453L-34,453L-34,444L-33,442L-33,438L-38,433L-41,432L-44,429L-42,424L-43,419L-43,416L-41,416L-40,411L-41,408L-40,407L-36,406L-39,396L-41,392L-40,388Z" fill="#E0E0E0" stroke="#fff" stroke-width=".4"/><path d="M-101,360L-96,360L-88,363L-85,363L-84,361L-78,362L-77,362L-76,366L-74,366L-71,364L-70,365L-67,368L-62,368L-59,366L-55,364L-52,363L-50,363L-48,366L-46,369L-42,374L-44,377L-45,380L-42,379L-41,380L-41,384L-38,387L-40,388L-41,392L-39,396L-36,406L-40,407L-41,408L-40,411L-41,416L-43,416L-46,415L-48,420L-51,420L-53,417L-53,413L-57,406L-60,407L-62,407L-66,408L-65,404L-67,401L-67,398L-69,393L-72,389L-81,389L-84,391L-87,391L-89,394L-90,397L-96,402L-101,395L-105,391L-108,389L-111,387L-112,382L-114,379L-117,378L-112,372L-109,372L-106,370L-103,370L-102,369L-103,365L-101,364Z" fill="#E0E0E0" stroke="#fff" stroke-width=".4"/><path d="M-134,362L-129,360L-125,361L-122,360L-101,360L-101,364L-103,365L-102,369L-103,370L-106,370L-109,372L-112,372L-117,378L-123,373L-128,372L-130,369L-130,367L-134,365Z" fill="#E0E0E0" stroke="#fff" stroke-width=".4"/><path d="M-43,416L-43,419L-42,424L-44,429L-41,432L-38,433L-33,438L-33,442L-34,444L-34,453L-37,453L-49,448L-59,439L-68,433L-76,426L-73,422L-73,419L-68,413L-62,407L-60,407L-57,406L-53,413L-53,417L-51,420L-48,420L-46,415Z" fill="#E0E0E0" stroke="#fff" stroke-width=".4"/><path d="M-96,402L-90,397L-89,394L-87,391L-84,391L-81,389L-72,389L-69,393L-67,398L-67,401L-65,404L-66,408L-62,407L-68,413L-73,419L-73,422L-76,426L-79,425L-87,420L-93,414L-95,410Z" fill="#E0E0E0" stroke="#fff" stroke-width=".4"/><path d="M-9,385L-9,379L-6,374L-7,370L2,361L4,353L7,350L12,351L17,349L18,346L27,341L29,337L40,333L46,331L49,333L56,333L55,339L56,344L63,351L63,357L76,360L76,367L73,371L68,372L65,377L62,378L52,378L47,377L43,379L38,378L19,378L19,385L20,393L12,391L7,391L3,394L-2,391L-4,388Z" fill="#E0E0E0" stroke="#fff" stroke-width=".4"/><path d="M357,443L353,444L346,444L338,443L334,444L332,446L328,447L324,444L311,450L306,449L305,450L301,457L293,454L285,453L278,449L269,445L263,449L258,455L257,462L250,462L243,460L236,466L230,476L229,473L229,468L223,464L219,459L218,455L213,449L214,445L213,441L214,432L216,430L222,419L231,418L233,415L235,415L238,418L252,413L257,409L263,405L261,401L265,400L275,401L286,395L294,383L300,378L307,376L308,381L314,388L314,393L313,398L313,401L317,404L326,409L332,414L332,418L339,423L344,428L347,435L355,440Z" fill="#E0E0E0" stroke="#fff" stroke-width=".4"/><path d="M257,462L257,469L253,475L251,482L250,492L250,498L249,502L248,506L247,510L240,515L235,521L230,532L230,541L227,545L221,550L214,557L210,555L209,552L203,552L199,556L197,555L192,551L189,553L184,558L175,546L184,540L180,532L183,530L191,528L192,523L198,529L208,529L211,524L212,516L211,508L206,501L211,488L208,486L200,487L197,481L197,476L211,477L221,480L229,482L230,476L236,466L243,460L250,462Z" fill="#E0E0E0" stroke="#fff" stroke-width=".4"/><path d="M177,476L183,476L189,477L196,476L197,476L197,481L200,487L208,486L211,488L206,501L211,508L212,516L211,524L208,529L198,529L192,523L191,528L183,530L180,532L184,540L175,546L164,535L156,525L150,514L150,510L153,507L155,499L157,490L161,490L177,490Z" fill="#E0E0E0" stroke="#fff" stroke-width=".4"/><path d="M159,476L177,476L177,490L161,490L157,490L155,489Z" fill="#E0E0E0" stroke="#fff" stroke-width=".4"/><path d="M450,115L448,119L444,117L442,126L444,128L442,130L441,133L446,131L447,136L441,157L440,154L434,135L437,130L436,130L439,124L441,114L443,110L443,110L447,110L448,108L451,108L451,113L450,115Z" fill="#E0E0E0" stroke="#fff" stroke-width=".4"/><path d="M451,108L448,108L447,110L443,110L447,99L453,90L453,89L458,90L460,95L454,100Z" fill="#E0E0E0" stroke="#fff" stroke-width=".4"/><path d="M446,131L441,133L442,130L444,128L442,126L444,117L448,119L448,127Z" fill="#E0E0E0" stroke="#fff" stroke-width=".4"/><path d="M-135,348L-123,348L-120,345L-117,345L-112,348L-109,348L-105,346L-103,349L-108,352L-112,352L-117,349L-121,352L-123,352L-126,354L-136,354Z" fill="#E0E0E0" stroke="#fff" stroke-width=".4"/><path d="M157,147L153,123L146,118L146,115L136,107L136,97L142,89L145,78L143,65L146,58L158,52L165,54L165,61L175,56L175,58L170,65L170,71L174,75L172,87L165,93L167,101L173,101L175,107L180,109L179,120L174,123L170,128L163,133L164,138L163,144Z" fill="#E0E0E0" stroke="#fff" stroke-width=".4"/><path d="M-45,184L-45,181L-45,180L-45,165L-27,156L-16,154L-7,151L-3,144L10,139L11,129L17,128L22,123L37,121L39,116L36,113L32,99L32,91L27,82L38,75L50,72L57,67L68,62L87,60L105,59L111,61L121,55L133,55L138,58L146,58L143,65L145,78L142,89L136,97L136,107L146,115L146,118L153,123L157,147L161,158L162,164L160,174L160,180L159,187L160,195L156,200L162,209L163,214L167,221L172,219L181,224L185,232L147,255L115,279L99,284L87,285L87,277L82,276L75,272L72,267L34,240L-3,214Z" fill="#E0E0E0" stroke="#fff" stroke-width=".4"/><path d="M448,119L450,115L462,120L484,106L489,122L487,124L464,131L475,144L472,146L470,150L461,152L459,157L454,161L441,159L441,157L447,136L446,131L448,127Z" fill="#E0E0E0" stroke="#fff" stroke-width=".4"/><path d="M627,223L629,222L629,225L638,224L647,224L654,224L662,216L670,208L677,200L679,205L681,214L675,214L674,222L676,224L671,226L671,231L668,236L667,241L665,244L632,238L627,225Z" fill="#E0E0E0" stroke="#fff" stroke-width=".4"/><path d="M618,216L618,207L621,201L624,200L627,204L627,211L625,218L622,219Z" fill="#E0E0E0" stroke="#fff" stroke-width=".4"/><path d="M587,151L589,157L588,159L592,169L584,169L581,163L571,162L579,150Z" fill="#E0E0E0" stroke="#fff" stroke-width=".4"/><path d="M489,122L484,106L509,92L513,76L512,66L518,62L524,54L529,51L542,53L546,57L551,54L558,71L565,75L566,83L561,88L558,98L566,111L580,118L585,128L583,138L587,138L587,145L593,151L587,151L579,150L571,162L550,161L519,135L502,126Z" fill="#E0E0E0" stroke="#fff" stroke-width=".4"/><path d="M667,241L668,236L671,231L671,226L676,224L674,222L675,214L681,214L686,223L692,227L700,229L707,231L712,238L715,242L719,243L719,246L715,253L713,257L708,261L704,269L699,268L697,271L695,277L696,285L695,286L690,286L683,291L682,296L679,299L672,299L668,302L668,306L663,310L657,309L649,312L644,313L640,305L632,286L665,274L672,250ZM679,205L677,200L680,196L682,197L681,202Z" fill="#E0E0E0" stroke="#fff" stroke-width=".4"/><path d="M1137,173L1138,178L1134,180L1135,188L1127,185L1112,194L1113,201L1107,211L1106,217L1101,227L1092,225L1092,237L1089,241L1091,247L1085,249L1079,230L1076,230L1074,238L1068,232L1072,225L1077,224L1082,214L1075,212L1065,212L1054,210L1053,201L1048,201L1039,196L1035,204L1043,210L1036,215L1034,220L1041,223L1039,230L1043,239L1045,249L1043,254L1035,253L1022,256L1022,265L1016,272L1000,280L988,294L979,301L968,309L968,314L963,317L953,321L947,322L944,331L946,346L947,355L942,366L942,385L936,386L931,395L935,398L925,401L921,409L916,412L906,402L901,386L896,375L892,369L887,358L884,344L882,337L872,321L867,298L864,283L864,269L862,258L845,265L838,263L823,249L828,244L825,240L812,229L819,221L844,221L842,211L835,204L834,195L827,189L839,176L852,177L864,164L871,151L882,138L881,129L891,121L882,114L878,105L874,94L880,88L896,91L909,89L920,78L932,94L931,105L935,111L935,118L927,116L930,131L941,139L956,148L949,154L945,166L956,171L966,177L981,184L996,186L1002,192L1011,193L1024,196L1034,196L1035,191L1034,183L1034,178L1041,175L1042,185L1042,187L1052,192L1059,190L1069,191L1078,191L1079,183L1074,179L1083,177L1093,168L1106,160L1116,163L1124,158L1129,165L1125,171Z" fill="#E0E0E0" stroke="#fff" stroke-width=".4"/><path d="M1034,178L1034,183L1035,191L1034,196L1024,196L1011,193L1002,192L996,186L981,184L966,177L956,171L945,166L949,154L956,148L961,145L970,149L981,157L987,159L991,165L1000,168L1009,173L1021,176Z" fill="#E0E0E0" stroke="#fff" stroke-width=".4"/><path d="M920,78L909,89L896,91L880,88L874,94L878,105L882,114L891,121L881,129L882,138L871,151L864,164L852,177L839,176L827,189L834,195L835,204L842,211L844,221L819,221L812,229L804,226L800,218L792,208L771,210L753,211L737,212L742,198L758,192L757,186L751,184L751,173L741,167L736,159L731,153L749,159L760,157L767,159L769,156L777,157L792,152L792,141L798,134L806,134L808,130L816,128L820,129L825,126L824,118L829,110L836,106L831,98L842,98L845,93L845,88L850,82L849,75L846,70L853,64L865,61L878,59L883,57L890,55L898,61L901,72Z" fill="#E0E0E0" stroke="#fff" stroke-width=".4"/><path d="M793,52L800,52L808,55L811,56L820,52L823,55L827,48L834,49L835,46L836,41L841,36L847,39L846,43L849,44L848,56L853,60L857,57L862,56L869,50L876,51L888,51L890,55L883,57L878,59L865,61L853,64L846,70L849,75L850,82L845,88L845,93L842,98L831,98L836,106L829,110L824,118L825,126L820,129L816,128L808,130L806,134L798,134L792,141L792,152L777,157L769,156L767,159L760,157L749,159L731,153L741,141L740,133L731,130L730,122L727,112L732,104L727,102L730,92L734,75L746,81L754,79L756,73L765,71L771,66L774,55L783,53L785,48L790,51Z" fill="#E0E0E0" stroke="#fff" stroke-width=".4"/><path d="M808,55L814,40L812,30L804,26L807,20L816,21L821,13L825,3L840,-0L837,7L839,11L844,10L840,15L827,13L826,21L838,20L852,24L873,22L876,36L880,34L887,37L886,43L888,51L876,51L869,50L862,56L857,57L853,60L848,56L849,44L846,43L847,39L841,36L836,41L835,46L834,49L827,48L823,55L820,52L811,56Z" fill="#E0E0E0" stroke="#fff" stroke-width=".4"/><path d="M843,-20L845,-26L853,-28L871,-23L873,-32L879,-35L895,-29L899,-30L918,-30L934,-28L940,-23L947,-21L945,-17L928,-9L924,-3L909,-2L905,8L893,6L886,9L875,16L876,19L873,22L852,24L838,20L826,21L827,13L840,15L844,10L852,12L866,1L853,-6L845,-3L837,-8L846,-18Z" fill="#E0E0E0" stroke="#fff" stroke-width=".4"/><path d="M637,-12L642,-17L655,-20L662,-16L670,-4L676,-5L688,-5L687,-13L696,-18L705,-27L720,-19L722,-7L726,-4L738,-5L742,-2L747,13L760,23L767,30L779,37L794,43L793,52L790,51L785,48L783,53L774,55L771,66L765,71L756,73L754,79L746,81L734,75L733,64L725,63L712,51L703,49L691,42L683,41L678,44L671,43L663,51L653,54L651,44L652,29L644,24L647,14L639,14L642,1L652,5L662,0L654,-9L651,-17L642,-14L641,-3Z" fill="#E0E0E0" stroke="#fff" stroke-width=".4"/><path d="M593,151L587,145L587,138L583,138L585,128L580,118L566,111L558,98L561,88L566,83L565,75L558,71L551,54L545,43L547,39L544,22L551,18L553,24L559,30L566,32L570,32L583,21L588,20L591,24L587,31L594,39L597,38L600,49L611,52L619,59L634,61L652,57L653,54L663,51L671,43L678,44L683,41L691,42L703,49L712,51L725,63L733,64L734,75L730,92L727,102L732,104L727,112L730,122L731,130L740,133L741,141L731,153L736,159L741,167L751,173L751,184L757,186L758,192L742,198L737,212L716,209L704,206L692,204L687,189L682,187L673,189L662,195L648,191L637,181L626,178L619,166L610,149L605,151L597,146Z" fill="#E0E0E0" stroke="#fff" stroke-width=".4"/><path d="M450,115L450,115L451,113L451,108L454,100L460,95L458,90L453,89L452,79L455,73L458,70L461,67L461,59L465,62L477,58L483,61L492,61L505,56L511,56L524,54L518,62L512,66L513,76L509,92L484,106L462,120Z" fill="#E0E0E0" stroke="#fff" stroke-width=".4"/><path d="M570,32L566,32L562,24L562,22L557,22L553,18L551,18L547,14L538,10L540,3L538,-2L553,-4L555,-0L560,2L557,6L563,11L560,15L565,19L570,22Z" fill="#E0E0E0" stroke="#fff" stroke-width=".4"/><path d="M366,-259L378,-254L379,-249L385,-252L396,-247L397,-238L395,-232L402,-220L406,-216L405,-213L413,-210L416,-205L412,-201L403,-201L401,-199L403,-193L406,-182L396,-181L393,-177L392,-168L388,-169L378,-168L375,-173L371,-169L367,-172L358,-172L345,-177L334,-178L325,-178L319,-173L314,-172L314,-180L310,-189L317,-192L317,-200L314,-207L314,-215L324,-215L336,-222L339,-233L348,-239L347,-248L354,-251Z" fill="#E0E0E0" stroke="#fff" stroke-width=".4"/><path d="M406,-182L410,-181L413,-185L416,-184L428,-186L435,-176L432,-172L433,-166L442,-166L446,-158L446,-154L460,-148L469,-151L476,-143L482,-143L498,-137L499,-132L494,-123L497,-114L495,-109L484,-107L478,-103L478,-95L469,-94L462,-89L451,-88L442,-82L442,-73L440,-74L439,-77L435,-78L427,-81L424,-77L423,-79L406,-83L405,-89L395,-87L390,-78L382,-66L377,-69L371,-66L366,-69L369,-71L371,-77L374,-82L373,-85L376,-86L377,-84L383,-83L386,-84L384,-86L385,-88L381,-93L380,-99L376,-102L376,-108L371,-112L367,-113L359,-118L351,-116L348,-114L344,-114L341,-110L333,-108L329,-106L324,-110L317,-110L310,-112L305,-108L304,-113L298,-117L300,-124L303,-129L306,-128L303,-135L313,-150L318,-152L320,-157L314,-172L319,-173L325,-178L334,-178L345,-177L358,-172L367,-172L371,-169L375,-173L378,-168L388,-169L392,-168L393,-177L396,-181Z" fill="#E0E0E0" stroke="#fff" stroke-width=".4"/><path d="M314,-215L314,-207L317,-200L317,-192L310,-189L314,-180L314,-172L320,-157L318,-152L313,-150L303,-135L306,-128L303,-129L293,-135L285,-133L279,-135L273,-131L267,-137L262,-135L262,-136L257,-144L248,-145L247,-151L240,-153L238,-148L232,-152L233,-157L224,-158L219,-164L215,-175L215,-181L213,-191L209,-198L212,-203L209,-212L217,-218L234,-227L248,-233L259,-230L260,-225L271,-225L285,-223L305,-223L311,-221Z" fill="#E0E0E0" stroke="#fff" stroke-width=".4"/><path d="M241,-112L240,-106L234,-106L236,-102L232,-91L230,-89L220,-88L215,-85L206,-86L190,-90L187,-96L176,-93L175,-90L168,-92L162,-92L157,-95L159,-100L159,-102L162,-103L168,-99L169,-103L179,-102L187,-105L192,-105L196,-101L197,-104L195,-115L199,-117L203,-125L211,-120L218,-127L222,-128L230,-123L236,-123L241,-120L240,-118Z" fill="#E0E0E0" stroke="#fff" stroke-width=".4"/><path d="M298,-117L304,-113L305,-108L298,-105L293,-94L286,-83L277,-80L270,-80L262,-76L257,-74L248,-77L240,-84L236,-86L234,-91L232,-91L236,-102L234,-106L240,-106L241,-112L247,-108L251,-106L260,-108L261,-112L265,-112L271,-115L272,-114L277,-116L280,-120L284,-121L296,-116Z" fill="#E0E0E0" stroke="#fff" stroke-width=".4"/><path d="M348,-114L351,-116L359,-118L367,-113L371,-112L376,-108L376,-102L380,-99L381,-93L385,-88L384,-86L386,-84L383,-83L377,-84L376,-86L373,-85L374,-82L371,-77L369,-71L366,-69L364,-77L366,-84L365,-91L359,-100L355,-107L352,-112Z" fill="#E0E0E0" stroke="#fff" stroke-width=".4"/><path d="M366,-69L371,-66L377,-69L382,-66L382,-62L377,-59L373,-60L370,-42L364,-43L355,-49L342,-45L337,-41L320,-42L312,-44L307,-43L304,-50L302,-52L305,-55L302,-57L299,-53L292,-58L291,-65L284,-68L283,-73L277,-80L286,-83L293,-94L298,-105L305,-108L310,-112L317,-110L324,-110L329,-106L333,-108L341,-110L344,-114L348,-114L352,-112L355,-107L359,-100L365,-91L366,-84L364,-77Z" fill="#E0E0E0" stroke="#fff" stroke-width=".4"/><path d="M209,-212L212,-203L209,-198L213,-191L215,-181L215,-175L219,-164L214,-162L211,-164L208,-161L200,-157L196,-153L188,-149L190,-144L191,-136L197,-132L203,-125L199,-117L195,-115L197,-104L196,-101L192,-105L187,-105L179,-102L169,-103L168,-99L162,-103L159,-102L147,-107L144,-104L135,-104L136,-116L142,-127L126,-131L121,-135L121,-143L119,-147L120,-158L118,-177L125,-177L128,-184L131,-201L129,-207L131,-211L140,-212L142,-208L150,-217L147,-224L147,-235L155,-233L162,-236L162,-228L174,-224L174,-217L185,-221L191,-226L204,-218Z" fill="#E0E0E0" stroke="#fff" stroke-width=".4"/><path d="M304,-50L307,-43L312,-44L320,-42L337,-41L342,-45L355,-49L364,-43L370,-42L364,-35L360,-24L364,-16L354,-18L343,-13L343,-6L333,-4L325,-9L316,-5L308,-6L307,-16L301,-20L303,-22L302,-24L304,-29L308,-34L303,-41L302,-46Z" fill="#E0E0E0" stroke="#fff" stroke-width=".4"/><path d="M345,80L343,84L327,85L327,83L314,81L316,75L322,79L331,79L339,80L339,82ZM308,-6L316,-5L325,-9L333,-4L343,-6L343,-13L348,-9L345,0L342,2L335,2L330,0L316,4L324,12L318,15L312,15L306,7L304,10L306,19L312,26L308,29L314,35L320,40L320,48L309,44L313,51L306,53L310,65L302,65L293,59L289,48L287,38L283,32L277,24L276,19L282,12L282,8L286,6L286,2L293,0L298,-3L304,-3L305,-5Z" fill="#E0E0E0" stroke="#fff" stroke-width=".4"/><path d="M551,54L546,57L542,53L529,51L524,54L511,56L505,56L492,61L483,61L477,58L465,62L461,59L461,67L458,70L455,73L451,67L455,62L448,63L439,60L431,68L414,69L405,62L393,61L391,67L383,69L372,61L360,62L353,48L345,40L351,29L343,22L356,8L373,7L378,-4L399,-2L412,-12L425,-16L444,-16L463,-6L479,0L492,-2L502,-1L515,-9L527,-9L538,-2L540,3L538,10L547,14L551,18L544,22L547,39L545,43ZM343,-13L354,-18L364,-16L365,-10L375,-5L373,-1L360,-1L355,4L346,12L342,5L342,2L345,0L348,-9Z" fill="#E0E0E0" stroke="#fff" stroke-width=".4"/><path d="M286,2L286,6L282,8L282,12L276,19L274,18L274,15L268,10L267,3L268,-7L270,-11L268,-14L267,-18L272,-26L272,-23L275,-24L278,-20L280,-19L281,-13L280,-8L281,-2Z" fill="#E0E0E0" stroke="#fff" stroke-width=".4"/><path d="M236,-86L240,-84L248,-77L257,-74L262,-76L264,-70L268,-65L264,-59L259,-63L251,-63L241,-65L236,-65L234,-62L230,-65L227,-59L233,-51L235,-47L240,-41L244,-38L249,-31L259,-25L257,-23L247,-28L240,-34L230,-38L221,-50L223,-51L218,-58L218,-63L211,-65L207,-59L204,-64L204,-69L205,-70L212,-69L214,-72L218,-69L223,-69L222,-73L226,-75L227,-81Z" fill="#E0E0E0" stroke="#fff" stroke-width=".4"/><path d="M159,-102L159,-100L157,-95L162,-92L168,-92L167,-85L162,-83L154,-85L152,-78L146,-78L144,-80L138,-75L133,-74L128,-77L124,-85L119,-82L119,-89L127,-99L127,-103L132,-101L135,-104L144,-104L147,-107Z" fill="#E0E0E0" stroke="#fff" stroke-width=".4"/><path d="M119,-147L121,-143L121,-135L117,-135L115,-136L116,-146Z" fill="#E0E0E0" stroke="#fff" stroke-width=".4"/><path d="M120,-158L119,-147L116,-146L115,-136L105,-144L99,-143L92,-151L86,-158L81,-158L80,-164L89,-168L97,-167L107,-170L114,-163Z" fill="#E0E0E0" stroke="#fff" stroke-width=".4"/><path d="M129,-207L131,-201L128,-184L125,-177L118,-177L120,-158L114,-163L107,-170L97,-167L89,-168L94,-173L104,-200L119,-208Z" fill="#E0E0E0" stroke="#fff" stroke-width=".4"/><path d="M-49,-14L-45,-18L-41,-20L-38,-12L-31,-12L-29,-14L-23,-14L-20,-6L-25,-2L-25,9L-27,11L-27,18L-32,19L-28,28L-31,37L-27,42L-28,46L-32,51L-32,55L-36,59L-42,57L-48,59L-46,48L-47,39L-52,38L-55,32L-54,23L-49,18L-49,12L-46,3L-46,-3L-49,-9Z" fill="#E0E0E0" stroke="#fff" stroke-width=".4"/><path d="M-32,55L-32,51L-28,46L-27,42L-31,37L-28,28L-32,19L-27,18L-27,11L-25,9L-25,-2L-20,-6L-23,-14L-29,-14L-31,-12L-38,-12L-41,-20L-45,-18L-49,-14L-49,-24L-53,-31L-37,-42L-24,-39L-9,-39L3,-37L12,-38L30,-37L35,-31L55,-24L59,-28L72,-21L85,-23L85,-14L75,-4L61,-1L60,4L53,12L48,24L53,32L46,39L44,48L36,51L28,61L14,62L3,61L-4,66L-8,71L-14,70L-18,66L-21,58Z" fill="#E0E0E0" stroke="#fff" stroke-width=".4"/><path d="M-18,-214L-16,-201L-24,-184L-44,-174L-60,-177L-51,-196L-56,-215L-41,-230L-33,-239L-31,-228L-33,-218L-26,-218Z" fill="#E0E0E0" stroke="#fff" stroke-width=".4"/><path d="M964,417L962,429L957,432L948,435L942,426L940,410L945,391L953,398L958,406Z" fill="#E0E0E0" stroke="#fff" stroke-width=".4"/><path d="M1273,295L1263,291L1263,281L1269,276L1281,273L1287,273L1290,277L1285,283L1282,289ZM947,-21L946,-29L953,-33L943,-60L966,-67L971,-70L979,-99L1001,-94L1008,-101L1008,-118L1017,-120L1026,-131L1030,-132L1033,-120L1043,-111L1058,-105L1066,-92L1062,-73L1066,-66L1079,-64L1094,-61L1108,-52L1115,-50L1120,-36L1126,-26L1138,-27L1161,-23L1176,-26L1187,-23L1204,-14L1217,-14L1222,-10L1235,-18L1253,-23L1270,-23L1283,-29L1291,-37L1299,-42L1297,-47L1293,-53L1299,-63L1306,-62L1317,-59L1328,-67L1345,-73L1353,-84L1361,-88L1377,-91L1386,-89L1387,-95L1377,-106L1368,-111L1360,-105L1349,-108L1342,-106L1340,-113L1347,-129L1353,-142L1366,-136L1382,-147L1382,-154L1392,-173L1398,-179L1398,-189L1392,-194L1401,-203L1415,-206L1430,-207L1446,-201L1456,-194L1463,-176L1467,-168L1471,-157L1475,-140L1495,-135L1508,-123L1512,-107L1529,-107L1539,-113L1557,-118L1552,-103L1547,-97L1543,-79L1536,-64L1522,-67L1513,-61L1516,-48L1514,-30L1508,-29L1509,-21L1501,-30L1497,-22L1480,-15L1481,-8L1472,-8L1467,-13L1459,-2L1447,6L1437,15L1422,19L1414,26L1402,30L1408,23L1405,18L1414,8L1408,0L1398,5L1386,16L1379,25L1368,26L1362,32L1368,42L1377,44L1378,51L1387,55L1399,45L1409,50L1416,50L1418,58L1402,62L1397,69L1386,76L1380,86L1392,93L1397,106L1404,118L1411,129L1411,138L1404,142L1407,149L1413,153L1412,163L1409,173L1402,174L1394,188L1385,204L1375,219L1360,230L1344,240L1332,242L1325,247L1321,243L1315,249L1299,255L1287,257L1283,270L1277,270L1274,262L1277,257L1262,253L1257,255L1245,252L1240,247L1242,240L1232,238L1226,234L1217,240L1206,241L1197,241L1191,244L1185,246L1187,260L1181,259L1180,257L1180,252L1172,255L1167,253L1158,248L1162,238L1155,236L1152,225L1140,227L1141,212L1152,202L1152,192L1152,182L1147,179L1144,172L1137,173L1125,171L1129,165L1124,158L1116,163L1106,160L1093,168L1083,177L1074,179L1069,176L1063,175L1056,172L1049,175L1042,185L1041,175L1034,178L1021,176L1009,173L1000,168L991,165L987,159L981,157L970,149L961,145L956,148L941,139L930,131L927,116L935,118L935,111L931,105L932,94L920,78L901,72L898,61L890,55L888,51L886,43L887,37L880,34L876,36L873,22L876,19L875,16L886,9L893,6L905,8L909,-2L924,-3L928,-9L945,-17Z" fill="#E0E0E0" stroke="#fff" stroke-width=".4"/><path d="M168,-92L175,-90L176,-93L187,-96L190,-90L206,-86L204,-78L207,-71L198,-73L189,-68L190,-60L188,-55L192,-47L202,-40L208,-27L220,-15L229,-15L232,-12L229,-9L239,-3L247,1L257,9L258,12L256,17L249,10L240,8L235,17L243,22L242,30L237,31L231,43L227,44L227,40L229,32L231,29L227,21L223,13L219,11L216,5L208,3L204,-3L195,-4L187,-11L176,-21L169,-30L165,-45L160,-47L151,-52L146,-50L139,-42L135,-41L136,-48L130,-50L127,-62L131,-67L127,-73L128,-77L133,-74L138,-75L144,-80L146,-78L152,-78L154,-85L162,-83L167,-85ZM216,41L225,39L221,51L222,55L220,62L211,57L206,55L190,48L192,41L205,42ZM149,1L154,-4L161,7L159,26L154,25L150,30L146,26L145,9L143,0Z" fill="#E0E0E0" stroke="#fff" stroke-width=".4"/><path d="M-18,-214L-26,-218L-33,-218L-31,-228L-33,-239L-24,-239L-12,-227ZM17,-206L17,-206L19,-217L11,-228L11,-229L-2,-232L-5,-237L-1,-246L-5,-251L-11,-242L-11,-261L-17,-272L-13,-293L-4,-310L5,-308L18,-310L6,-287L18,-290L30,-290L27,-273L17,-255L28,-254L29,-252L39,-229L47,-226L54,-204L57,-197L70,-193L69,-182L63,-176L68,-167L58,-158L43,-158L24,-153L19,-156L11,-148L1,-150L-7,-144L-13,-147L4,-166L14,-169L13,-169L-4,-172L-7,-180L5,-185L-2,-195L1,-207Z" fill="#E0E0E0" stroke="#fff" stroke-width=".4"/><path d="M569,-13L572,-13L580,-4L585,-3L587,-7L593,-13L599,-5L605,6L610,6L614,10L604,11L602,23L601,28L596,31L597,38L594,39L587,31L591,24L588,20L583,21L570,32L570,22L565,19L560,15L563,11L557,6L560,2L555,-0L553,-4L556,-7L564,-2L570,-2L572,-3L566,-11ZM566,32L559,30L553,24L551,18L553,18L557,22L562,22L562,24Z" fill="#E0E0E0" stroke="#fff" stroke-width=".4"/><path d="M497,-37L499,-39L508,-37L524,-34L540,-27L542,-24L548,-26L559,-23L562,-17L569,-13L566,-11L572,-3L570,-2L564,-2L556,-7L553,-4L538,-2L527,-9L515,-9L517,-15L514,-25L507,-31L501,-33Z" fill="#E0E0E0" stroke="#fff" stroke-width=".4"/><path d="M206,-86L215,-85L220,-88L230,-89L232,-91L234,-91L236,-86L227,-81L226,-75L222,-73L223,-69L218,-69L214,-72L212,-69L205,-70L207,-71L204,-78Z" fill="#E0E0E0" stroke="#fff" stroke-width=".4"/><path d="M303,-129L300,-124L298,-117L296,-116L284,-121L280,-120L277,-116L272,-114L271,-115L265,-112L261,-112L260,-108L251,-106L247,-108L241,-112L240,-118L241,-120L242,-124L247,-124L251,-125L251,-127L254,-128L254,-132L257,-133L259,-136L262,-136L262,-135L267,-137L273,-131L279,-135L285,-133L293,-135Z" fill="#E0E0E0" stroke="#fff" stroke-width=".4"/><path d="M219,-164L224,-158L233,-157L232,-152L238,-148L240,-153L247,-151L248,-145L257,-144L262,-136L259,-136L257,-133L254,-132L254,-128L251,-127L251,-125L247,-124L242,-124L241,-120L236,-123L230,-123L222,-128L218,-127L211,-120L203,-125L197,-132L191,-136L190,-144L188,-149L196,-153L200,-157L208,-161L211,-164L214,-162Z" fill="#E0E0E0" stroke="#fff" stroke-width=".4"/><path d="M458,339L457,334L462,317L463,310L466,306L474,304L480,297L486,311L490,322L496,327L511,338L517,345L523,351L527,355L532,359L529,361L524,361L520,357L516,350L511,346L508,342L498,338L490,338L488,335L481,338L474,333L471,341Z" fill="#E0E0E0" stroke="#fff" stroke-width=".4"/><path d="M632,286L640,305L644,313L636,316L634,321L633,325L622,330L604,336L594,344L590,344L586,344L580,348L573,351L563,351L560,352L558,355L555,356L553,359L548,358L544,360L537,359L534,353L534,346L532,343L530,335L527,330L529,329L528,324L529,322L529,317L534,313L532,308L535,302L540,305L543,304L556,304L558,305L569,306L573,306L576,310L581,308L589,295L599,290Z" fill="#E0E0E0" stroke="#fff" stroke-width=".4"/><path d="M441,159L454,161L459,157L461,152L470,150L472,146L475,144L464,131L487,124L489,122L502,126L519,135L550,161L571,162L581,163L584,169L592,169L596,180L601,183L603,187L611,192L612,198L610,202L612,206L615,209L617,213L618,216L622,219L625,218L627,223L627,225L632,238L665,244L667,241L672,250L665,274L632,286L599,290L589,295L581,308L576,310L573,306L569,306L558,305L556,304L543,304L540,305L535,302L532,308L534,313L529,317L527,312L524,308L523,304L517,299L511,290L508,280L500,272L495,270L488,258L487,250L487,243L481,229L476,225L470,222L466,215L467,212L463,206L460,203L456,194L449,184L443,175L438,175L440,168L440,164Z" fill="#E0E0E0" stroke="#fff" stroke-width=".4"/><path d="M417,82L417,82L419,79L427,79L437,75L430,81L431,84L429,83L427,84L425,84L425,84L425,83L424,82L422,82L419,83Z" fill="#E0E0E0" stroke="#fff" stroke-width=".4"/><path d="M417,82L419,83L422,82L424,82L425,83L425,84L425,84L427,84L429,83L431,84L431,85L419,90L414,88L411,83Z" fill="#E0E0E0" stroke="#fff" stroke-width=".4"/><path d="M27,82L32,91L32,99L36,113L39,116L37,121L22,123L17,128L11,129L10,139L-3,144L-7,151L-16,154L-27,156L-45,165L-45,180L-47,180L-46,187L-53,187L-57,190L-62,190L-66,189L-75,190L-79,200L-83,201L-88,216L-103,229L-107,246L-112,252L-113,256L-138,257L-138,257L-138,251L-133,248L-130,242L-131,238L-127,229L-120,221L-117,219L-114,212L-113,206L-109,198L-102,193L-95,181L-95,180L-89,176L-79,174L-70,165L-64,162L-55,151L-58,135L-54,124L-52,117L-45,108L-34,102L-26,96L-18,82L-15,74L-6,74L0,80L11,79L23,82Z" fill="#E0E0E0" stroke="#fff" stroke-width=".4"/><path d="M330,250L330,274L318,274L317,279L273,256L228,233L217,239L209,244L203,237L185,232L181,224L172,219L167,221L163,214L162,209L156,200L160,195L159,187L160,180L160,174L162,164L161,158L157,147L163,144L164,138L163,133L170,128L174,123L179,120L180,109L193,114L198,113L207,115L222,121L227,133L237,135L253,141L264,147L270,144L275,138L273,128L276,121L284,115L292,113L307,116L311,122L315,122L318,124L330,126L332,130L328,136L330,142L327,150L330,160L330,205Z" fill="#E0E0E0" stroke="#fff" stroke-width=".4"/><path d="M585,412L553,446L539,446L529,454L521,454L518,458L511,458L506,454L496,459L493,463L485,462L483,461L480,461L477,461L463,452L455,452L451,448L451,442L445,440L439,428L434,425L432,421L426,415L419,414L423,408L429,408L431,404L430,394L434,382L439,379L440,374L445,366L452,360L456,349L458,339L471,341L474,333L481,338L488,335L490,338L498,338L508,342L511,346L516,350L520,357L524,361L520,366L516,371L517,374L517,377L523,378L526,377L529,379L526,383L530,389L534,395L539,399L575,412Z" fill="#E0E0E0" stroke="#fff" stroke-width=".4"/><path d="M524,361L529,361L532,359L535,362L534,367L528,370L533,373L529,379L526,377L523,378L517,377L517,374L516,371L520,366Z" fill="#E0E0E0" stroke="#fff" stroke-width=".4"/><path d="M597,373L597,374L597,378L597,390L597,396L592,403L585,412L575,412L539,399L534,395L530,389L526,383L529,379L533,373L536,375L539,380L544,384L549,384L560,382L572,380L582,377L587,376L591,374Z" fill="#E0E0E0" stroke="#fff" stroke-width=".4"/><path d="M430,512L407,513L395,513L391,514L384,518L381,516L382,508L384,504L385,495L387,490L391,484L396,481L399,477L395,475L395,462L400,459L407,462L416,459L424,459L431,454L436,462L437,467L442,480L438,488L433,496L430,500Z" fill="#E0E0E0" stroke="#fff" stroke-width=".4"/><path d="M259,-25L249,-31L244,-38L240,-41L235,-47L233,-51L227,-59L230,-65L234,-62L236,-65L241,-65L251,-63L259,-63L264,-59L268,-60L265,-53L270,-47L269,-39L266,-39L264,-37L260,-34Z" fill="#E0E0E0" stroke="#fff" stroke-width=".4"/><path d="M301,-20L307,-16L308,-6L305,-5L304,-3L298,-3L293,0L286,2L281,-2L280,-8L281,-13L283,-13L283,-16L290,-19L292,-19L296,-20Z" fill="#E0E0E0" stroke="#fff" stroke-width=".4"/><path d="M262,-76L270,-80L277,-80L283,-73L284,-68L291,-65L292,-58L299,-53L302,-57L305,-55L302,-52L304,-50L302,-46L303,-41L308,-34L304,-29L302,-24L303,-22L301,-20L296,-20L292,-19L292,-20L293,-22L294,-26L293,-26L291,-29L289,-29L287,-32L285,-33L284,-35L282,-34L280,-29L278,-28L278,-29L274,-32L271,-34L269,-36L266,-39L269,-39L270,-47L265,-53L268,-60L264,-59L268,-65L264,-70Z" fill="#E0E0E0" stroke="#fff" stroke-width=".4"/><path d="M275,-24L272,-23L272,-26L267,-18L268,-14L265,-15L262,-20L257,-23L259,-25L260,-34L264,-37L266,-39L269,-36L271,-34L274,-32L278,-29L278,-28Z" fill="#E0E0E0" stroke="#fff" stroke-width=".4"/><path d="M281,-13L280,-19L278,-20L275,-24L278,-28L280,-29L282,-34L284,-35L285,-33L287,-32L289,-29L291,-29L293,-26L294,-26L293,-22L292,-20L292,-19L290,-19L283,-16L283,-13Z" fill="#E0E0E0" stroke="#fff" stroke-width=".4"/><path d="M395,462L386,455L383,450L377,453L372,452L369,454L364,452L357,443L355,440L347,435L344,428L339,423L332,418L332,414L326,409L318,405L321,404L325,402L328,392L331,386L339,385L341,388L347,394L350,395L354,394L362,394L364,396L375,396L375,394L381,392L382,388L386,386L395,393L401,392L407,383L413,377L412,370L409,367L416,366L417,364L422,365L421,373L422,381L428,386L429,390L429,395L430,395L431,404L429,408L423,408L419,414L426,415L432,421L434,425L439,428L445,440L438,447L431,454L424,459L416,459L407,462L400,459Z" fill="#E0E0E0" stroke="#fff" stroke-width=".4"/></g><g clip-path="url(#v)"><path d="M462.8,249.9L459.1,250.0L455.5,250.0L451.8,250.0L448.2,250.0L444.5,250.0L440.9,250.0L437.2,250.0L433.5,250.0L429.9,250.0L426.2,250.0L422.6,250.0L418.9,250.0L415.2,250.0L411.6,250.0L407.9,250.0L404.2,250.0L402.2,250.0L402.5,248.9L402.8,248.1L402.5,247.6L401.8,247.5L401.3,247.6L400.2,249.9L399.7,250.0L398.3,250.0L394.1,250.0L389.8,250.0L385.6,250.0L381.3,250.0L377.1,250.0L372.8,250.0L368.5,250.0L364.3,250.0L360.0,250.0L355.7,250.0L351.5,250.0L347.2,250.0L343.0,250.0L338.7,250.0L334.5,250.0L330.2,250.0L330.2,247.3L330.2,244.5L330.2,241.8L330.2,239.1L330.2,236.4L330.2,233.7L330.2,230.9L330.2,228.2L330.2,225.5L330.2,222.7L330.2,220.0L330.2,217.2L330.2,214.4L330.2,211.7L330.2,208.9L330.2,206.1L330.2,203.4L330.2,200.6L330.2,197.8L330.2,195.0L330.2,192.2L330.2,189.4L330.2,186.6L330.2,183.8L330.2,180.9L330.2,178.1L330.2,175.3L330.2,172.4L330.2,169.6L330.2,166.7L330.2,163.9L330.2,161.0L330.1,160.5L329.5,158.5L328.9,156.0L328.3,153.0L328.2,152.0L327.2,148.8L327.1,147.9L327.4,147.3L329.0,144.6L329.5,143.3L330.0,141.7L330.1,140.5L329.6,138.5L329.0,136.8L328.8,135.0L328.8,133.2L329.6,132.0L330.7,130.9L331.1,130.2L331.7,129.4L332.1,129.0L332.9,130.6L334.7,130.9L340.4,129.5L346.7,130.9L350.1,131.4L355.5,132.7L358.7,134.8L359.6,135.1L362.0,135.0L363.5,136.3L369.6,136.9L372.9,138.3L374.7,139.4L375.8,139.8L376.8,139.7L378.1,139.3L379.8,138.5L381.6,137.4L385.4,134.6L386.7,134.1L387.6,134.2L388.7,134.2L389.1,133.4L389.7,132.9L390.0,132.3L390.6,131.6L392.5,131.4L396.5,130.2L396.0,130.7L392.4,132.1L394.0,132.3L395.5,131.8L397.3,131.5L397.7,131.0L397.9,129.8L398.3,129.7L399.5,129.9L403.2,131.6L404.1,131.6L406.7,130.7L407.2,130.5L408.1,131.0L410.0,133.1L409.3,133.1L407.3,131.3L407.1,132.2L405.9,133.8L407.4,134.4L408.6,134.7L409.2,135.6L409.6,136.4L410.8,136.0L411.6,135.0L411.2,134.4L410.9,133.7L411.3,133.7L412.1,134.2L414.4,136.3L415.2,136.7L416.1,136.6L418.0,136.0L418.5,136.1L421.1,135.4L421.4,135.9L421.8,136.5L423.8,135.9L427.1,135.9L429.7,135.2L432.8,133.6L433.0,133.4L433.2,133.8L433.5,134.9L434.4,137.6L435.2,139.8L436.2,142.8L436.6,144.0L436.7,144.8L438.1,148.0L439.0,150.8L439.6,152.9L440.5,156.1L440.9,157.2L440.3,157.8L439.0,159.9L437.7,166.4L435.8,171.5L435.6,174.7L435.2,175.8L434.3,177.4L433.2,179.0L431.3,178.2L428.1,175.4L426.3,172.8L424.3,171.1L422.4,168.8L421.9,167.2L421.9,166.2L421.1,163.6L420.5,162.4L418.2,159.7L417.5,158.2L417.0,157.6L416.5,156.7L415.7,153.1L414.8,150.8L413.8,151.5L413.9,152.4L413.0,153.7L412.5,155.3L412.9,156.5L414.8,158.4L415.2,159.2L415.6,161.0L415.5,163.4L415.8,164.3L417.2,166.0L417.7,167.1L418.0,168.0L418.5,168.9L419.9,170.4L421.9,173.4L423.8,175.4L425.2,176.3L425.7,177.3L425.8,179.8L425.8,181.0L427.0,183.2L427.4,184.3L428.6,185.2L429.1,186.3L429.6,188.0L430.3,193.0L431.3,194.2L434.4,200.7L437.1,204.9L438.4,208.0L440.3,211.7L444.1,219.9L446.4,222.4L447.2,223.8L448.9,224.9L450.7,226.4L449.0,226.3L448.6,226.4L448.0,226.6L447.7,227.6L447.6,228.4L447.8,232.5L448.2,234.5L449.7,238.5L450.8,239.7L451.4,240.4L452.1,241.0L455.6,242.3L457.7,245.2L462.3,248.7L462.8,249.7Z" fill="#4ECDC4" stroke="#2C3E50" stroke-width="1"/></g><circle cx="400.0" cy="150.0" r="4" fill="#E74C3C" stroke="#fff" stroke-width="2"/><text x="400.0" y="140.0" text-anchor="middle" font-family="sans-serif" font-weight="700" font-size="10" fill="#2D3436">Cairo</text></svg>