<svg viewBox="0 0 800 300" xmlns="http://www.w3.org/2000/svg"><defs><clipPath id="v"><rect width="800" height="300"/></clipPath></defs><rect width="800" height="300" fill="#DCEEF8"/><g clip-path="url(#v)"><path d="M295,494L299,497L374,539L376,551L406,572L396,598L397,610L411,618L411,623L406,636L407,642L405,652L413,666L421,686L429,691L412,703L390,712L377,711L370,718L355,718L350,721L324,715L309,717L303,688L296,678L292,672L271,668L259,662L246,658L238,655L229,649L218,623L205,611L201,599L203,588L200,568L208,567L216,560L224,549L229,545L229,538L224,533L223,525L229,522L230,510L222,498L230,496L252,496Z" fill="#E0E0E0" stroke="#fff" stroke-width=".4"/><path d="M200,568L203,588L201,599L205,611L218,623L229,649L221,647L193,651L187,653L181,667L186,676L182,701L179,723L185,726L200,735L205,731L207,754L191,754L183,742L175,733L159,730L154,719L141,725L125,722L118,713L104,711L95,711L93,705L86,704L77,703L64,706L55,705L50,707L51,682L44,674L42,661L45,649L41,640L41,627L15,627L17,620L6,620L5,623L-8,624L-13,637L-16,642L-28,639L-34,642L-48,643L-56,632L-61,626L-67,613L-72,597L-134,597L-141,600L-147,599L-156,602L-159,596L-153,593L-153,584L-149,579L-142,574L-136,577L-129,568L-118,569L-116,575L-109,578L-96,565L-84,555L-79,548L-80,531L-71,511L-61,500L-47,490L-45,483L-44,476L-41,468L-42,457L-39,438L-35,425L-29,414L-28,401L-26,387L-18,376L-7,369L11,376L24,384L39,386L55,390L61,377L64,376L73,378L97,368L105,372L112,371L115,366L123,364L138,367L152,367L159,365L171,382L181,385L186,381L196,383L208,378L212,387L231,401L230,425L238,428L231,436L223,441L215,452L211,462L210,479L205,487L205,502L199,508L198,521L195,522L193,534L198,543Z" fill="#E0E0E0" stroke="#fff" stroke-width=".4"/><path d="M455,510L443,492L443,416L461,392L467,386L480,385L499,371L526,370L585,307L600,289L609,276L609,265L609,244L609,235L609,234L616,234L626,231L637,229L647,221L654,221L655,227L653,240L653,251L649,258L643,281L633,305L620,332L602,363L584,386L560,415L539,432L507,452L488,468L465,494L460,505Z" fill="#E0E0E0" stroke="#fff" stroke-width=".4"/><path d="M406,572L376,551L374,539L299,497L295,494L295,472L301,464L311,450L319,435L309,411L307,400L297,385L310,373L324,359L335,363L335,374L342,381L357,381L383,399L390,399L395,399L399,401L413,403L419,394L438,385L447,392L461,392L443,416L443,492L455,510L441,518L436,527L428,528L425,543L418,551L414,565Z" fill="#E0E0E0" stroke="#fff" stroke-width=".4"/><path d="M100,302L84,293L77,287L75,280L79,271L79,262L67,249L64,240L65,235L57,229L57,216L52,208L45,209L47,201L53,192L50,184L57,177L53,172L58,159L68,143L86,144L85,57L85,48L109,48L109,3L193,3L274,3L357,3L364,25L359,29L362,52L370,78L378,84L389,92L379,105L363,108L357,115L355,129L346,161L348,170L344,188L336,209L323,220L314,236L312,245L302,251L296,273L296,292L296,276L293,275L294,265L291,257L280,249L278,234L280,218L271,217L269,221L257,222L262,229L264,241L252,253L242,268L231,271L213,258L205,263L203,269L193,273L192,277L171,277L168,273L153,272L146,276L140,274L129,262L125,256L110,259L105,268L99,287L92,291L86,294Z" fill="#E0E0E0" stroke="#fff" stroke-width=".4"/><path d="M85,57L86,144L68,143L58,159L53,172L57,177L50,184L53,192L47,201L45,209L52,208L57,216L57,229L65,235L64,240L51,244L41,252L25,276L6,285L-14,284L-20,286L-18,293L-29,301L-38,309L-64,317L-69,312L-73,312L-77,317L-94,319L-91,313L-97,299L-100,290L-109,286L-122,274L-117,264L-108,266L-102,265L-90,265L-102,245L-101,231L-102,217L-110,203L-108,193L-122,193L-122,179L-130,171L-121,143L-95,122L-94,94L-86,49L-81,39L-90,32L-90,24L-98,19L-103,-16L-82,-29L1,14Z" fill="#E0E0E0" stroke="#fff" stroke-width=".4"/><path d="M-103,-16L-98,19L-90,24L-90,32L-81,39L-86,49L-94,94L-95,122L-121,143L-130,171L-122,179L-122,193L-108,193L-110,203L-116,205L-117,211L-121,212L-135,188L-140,188L-156,200L-172,193L-184,192L-190,195L-202,194L-214,204L-225,204L-250,193L-260,198L-271,198L-279,190L-300,182L-322,184L-327,189L-330,201L-336,210L-338,229L-354,217L-361,217L-368,223L-368,208L-392,204L-393,193L-404,179L-407,169L-405,159L-392,158L-384,150L-356,148L-337,145L-336,132L-324,117L-324,67L-295,57L-234,13L-163,-30L-130,-20L-118,-8Z" fill="#E0E0E0" stroke="#fff" stroke-width=".4"/><path d="M-357,343L-356,309L-356,296L-353,283L-346,276L-336,263L-338,257L-334,249L-339,236L-338,229L-336,210L-330,201L-327,189L-322,184L-300,182L-279,190L-271,198L-260,198L-250,193L-225,204L-214,204L-202,194L-190,195L-184,192L-172,193L-156,200L-140,188L-135,188L-121,212L-117,211L-109,220L-111,224L-112,231L-130,247L-135,261L-138,272L-143,277L-147,292L-158,300L-161,311L-166,319L-168,328L-182,335L-194,327L-202,327L-214,339L-220,339L-230,360L-236,375L-257,382L-265,381L-273,386L-290,385L-301,372L-308,357L-323,343L-339,343Z" fill="#E0E0E0" stroke="#fff" stroke-width=".4"/><path d="M-110,203L-102,217L-101,231L-102,245L-90,265L-102,265L-108,266L-117,264L-122,274L-109,286L-100,290L-97,299L-91,313L-94,319L-105,340L-110,344L-111,360L-109,369L-111,375L-101,386L-99,394L-91,405L-82,411L-81,421L-79,427L-80,438L-97,433L-114,428L-140,427L-143,426L-155,429L-168,426L-178,427L-212,427L-209,410L-217,396L-226,393L-231,383L-236,380L-236,375L-230,360L-220,339L-214,339L-202,327L-194,327L-182,335L-168,328L-166,319L-161,311L-158,300L-147,292L-143,277L-138,272L-135,261L-130,247L-112,231L-111,224L-109,220L-117,211L-116,205Z" fill="#E0E0E0" stroke="#fff" stroke-width=".4"/><path d="M159,365L152,367L138,367L123,364L115,366L112,371L105,372L97,368L73,378L64,376L61,377L55,390L39,386L24,384L11,376L-7,369L-18,376L-26,387L-28,401L-41,400L-55,396L-68,408L-79,427L-81,421L-82,411L-91,405L-99,394L-101,386L-111,375L-109,369L-111,360L-110,344L-105,340L-94,319L-77,317L-73,312L-69,312L-64,317L-38,309L-29,301L-18,293L-20,286L-14,284L6,285L25,276L41,252L51,244L64,240L67,249L79,262L79,271L75,280L77,287L84,293L100,302L111,310L112,317L126,328L134,337L140,350L155,358Z" fill="#E0E0E0" stroke="#fff" stroke-width=".4"/><path d="M-28,401L-29,414L-35,425L-39,438L-42,457L-41,468L-44,476L-45,483L-47,490L-61,500L-71,511L-80,531L-79,548L-84,555L-96,565L-109,578L-116,575L-118,569L-129,568L-136,577L-142,574L-150,567L-156,571L-164,580L-182,558L-166,546L-174,532L-166,527L-152,524L-151,515L-139,525L-121,526L-115,516L-112,502L-114,486L-124,474L-115,449L-120,445L-136,447L-142,436L-140,427L-114,428L-97,433L-80,438L-79,427L-68,408L-55,396L-41,400Z" fill="#E0E0E0" stroke="#fff" stroke-width=".4"/><path d="M-178,427L-168,426L-155,429L-143,426L-140,427L-142,436L-136,447L-120,445L-115,449L-124,474L-114,486L-112,502L-115,516L-121,526L-139,525L-151,515L-152,524L-166,527L-174,532L-166,546L-182,558L-203,536L-217,519L-230,498L-229,491L-224,484L-219,469L-215,453L-208,452L-178,452Z" fill="#E0E0E0" stroke="#fff" stroke-width=".4"/><path d="M-212,427L-178,427L-178,452L-208,452L-215,453L-219,450Z" fill="#E0E0E0" stroke="#fff" stroke-width=".4"/><path d="M333,-249L329,-242L322,-245L317,-229L323,-226L317,-222L316,-216L326,-219L327,-210L316,-171L314,-177L303,-213L309,-221L307,-222L313,-234L317,-252L320,-259L321,-259L328,-259L329,-263L335,-264L335,-253L333,-250Z" fill="#E0E0E0" stroke="#fff" stroke-width=".4"/><path d="M-215,-191L-224,-234L-237,-244L-237,-250L-254,-265L-256,-284L-243,-298L-238,-319L-242,-344L-237,-357L-215,-368L-200,-365L-201,-352L-183,-361L-181,-356L-192,-343L-192,-331L-185,-325L-187,-303L-201,-290L-197,-276L-187,-276L-181,-264L-173,-260L-174,-241L-185,-234L-191,-226L-205,-217L-203,-206L-205,-196Z" fill="#E0E0E0" stroke="#fff" stroke-width=".4"/><path d="M-595,-121L-594,-126L-594,-127L-595,-155L-561,-173L-540,-177L-523,-183L-515,-195L-490,-205L-490,-223L-477,-225L-468,-234L-441,-238L-437,-248L-442,-253L-450,-280L-451,-295L-459,-311L-439,-325L-416,-330L-403,-341L-383,-348L-347,-353L-313,-355L-302,-351L-282,-362L-260,-362L-252,-356L-237,-357L-242,-344L-238,-319L-243,-298L-256,-284L-254,-265L-237,-250L-237,-244L-224,-234L-215,-191L-208,-169L-207,-158L-211,-139L-209,-128L-212,-115L-210,-100L-219,-91L-206,-74L-205,-64L-198,-51L-188,-55L-172,-45L-163,-30L-234,13L-295,57L-324,67L-347,69L-348,55L-357,51L-370,45L-375,34L-446,-15L-516,-65Z" fill="#E0E0E0" stroke="#fff" stroke-width=".4"/><path d="M329,-242L333,-249L356,-240L397,-266L406,-236L402,-232L360,-220L381,-195L374,-191L370,-183L354,-180L349,-171L340,-164L317,-168L316,-171L327,-210L326,-219L329,-227Z" fill="#E0E0E0" stroke="#fff" stroke-width=".4"/><path d="M664,-48L668,-49L669,-43L685,-46L702,-46L715,-45L729,-61L745,-75L758,-90L762,-82L765,-64L754,-63L752,-49L756,-45L747,-41L747,-32L741,-22L740,-13L736,-8L673,-20L665,-43Z" fill="#E0E0E0" stroke="#fff" stroke-width=".4"/><path d="M648,-60L647,-76L652,-89L658,-91L664,-84L665,-70L660,-57L654,-55Z" fill="#E0E0E0" stroke="#fff" stroke-width=".4"/><path d="M589,-183L593,-172L591,-166L598,-148L583,-148L578,-159L560,-162L575,-185Z" fill="#E0E0E0" stroke="#fff" stroke-width=".4"/><path d="M406,-236L397,-266L443,-292L451,-323L449,-342L461,-348L471,-365L480,-369L505,-365L512,-359L522,-363L536,-332L549,-324L551,-309L540,-301L536,-281L550,-257L576,-243L586,-225L583,-207L590,-207L590,-194L601,-181L589,-183L575,-185L560,-162L521,-163L462,-212L431,-229Z" fill="#E0E0E0" stroke="#fff" stroke-width=".4"/><path d="M740,-13L741,-22L747,-32L747,-41L756,-45L752,-49L754,-63L765,-64L774,-48L786,-40L801,-37L814,-32L823,-19L829,-12L836,-9L836,-4L829,9L825,16L816,23L809,38L799,37L795,42L791,54L794,68L792,71L782,71L769,79L767,90L763,95L750,95L741,100L741,109L731,115L720,113L706,120L696,122L689,106L673,70L736,48L750,3ZM762,-82L758,-90L764,-98L767,-96L765,-86Z" fill="#E0E0E0" stroke="#fff" stroke-width=".4"/><path d="M1213,-320L1193,-298L1169,-294L1138,-301L1127,-290L1135,-268L1142,-251L1159,-239L1141,-224L1141,-207L1121,-183L1108,-158L1086,-133L1062,-135L1039,-110L1053,-100L1055,-82L1067,-70L1071,-51L1025,-51L1011,-35L996,-41L989,-58L973,-75L935,-71L901,-70L871,-67L879,-94L909,-106L908,-117L898,-121L897,-142L877,-152L869,-166L858,-179L893,-167L914,-170L927,-167L931,-173L946,-170L973,-180L974,-201L985,-215L1001,-215L1003,-222L1019,-225L1027,-223L1035,-229L1034,-244L1043,-259L1056,-266L1048,-282L1068,-281L1073,-291L1072,-300L1083,-311L1080,-324L1075,-335L1088,-346L1110,-351L1134,-354L1145,-359L1157,-362L1172,-350L1178,-330Z" fill="#E0E0E0" stroke="#fff" stroke-width=".4"/><path d="M976,-368L988,-368L1004,-363L1010,-359L1025,-368L1032,-363L1039,-375L1052,-374L1055,-378L1057,-389L1066,-398L1077,-392L1075,-384L1081,-383L1079,-360L1088,-352L1095,-357L1104,-360L1117,-372L1132,-370L1153,-370L1157,-362L1145,-359L1134,-354L1110,-351L1088,-346L1075,-335L1080,-324L1083,-311L1072,-300L1073,-291L1068,-281L1048,-282L1056,-266L1043,-259L1034,-244L1035,-229L1027,-223L1019,-225L1003,-222L1001,-215L985,-215L974,-201L973,-180L946,-170L931,-173L927,-167L914,-170L893,-167L858,-179L877,-201L876,-217L860,-221L858,-236L851,-256L860,-270L851,-274L857,-292L865,-324L887,-314L903,-317L907,-329L923,-333L935,-341L939,-362L957,-367L960,-376L970,-369Z" fill="#E0E0E0" stroke="#fff" stroke-width=".4"/><path d="M601,-181L590,-194L590,-207L583,-207L586,-225L576,-243L550,-257L536,-281L540,-301L551,-309L549,-324L536,-332L522,-363L511,-384L515,-393L508,-423L522,-431L526,-421L536,-408L551,-405L558,-406L583,-425L591,-427L597,-420L590,-406L603,-392L608,-394L615,-374L634,-369L649,-355L679,-351L711,-358L713,-364L732,-369L746,-384L760,-383L770,-388L784,-386L808,-372L824,-370L848,-346L864,-345L865,-324L857,-292L851,-274L860,-270L851,-256L858,-236L860,-221L876,-217L877,-201L858,-179L869,-166L877,-152L897,-142L898,-121L908,-117L909,-106L879,-94L871,-67L832,-74L809,-79L786,-82L777,-111L767,-115L751,-111L730,-100L704,-107L683,-125L663,-132L649,-155L634,-187L622,-183L609,-191Z" fill="#E0E0E0" stroke="#fff" stroke-width=".4"/><path d="M673,70L689,106L696,122L681,127L677,137L677,144L656,154L622,164L604,179L594,180L588,179L576,188L563,192L545,193L540,194L535,200L530,201L527,207L516,206L510,209L495,208L490,196L490,184L487,178L483,162L477,153L481,152L479,142L481,138L480,128L490,121L487,112L493,101L502,107L507,105L531,104L535,107L555,109L563,108L569,115L578,111L593,88L613,78Z" fill="#E0E0E0" stroke="#fff" stroke-width=".4"/><path d="M317,-168L340,-164L349,-171L354,-180L370,-183L374,-191L381,-195L360,-220L402,-232L406,-236L431,-229L462,-212L521,-163L560,-162L578,-159L583,-148L598,-148L606,-128L617,-123L620,-114L634,-105L636,-95L634,-87L636,-79L642,-73L645,-65L648,-60L654,-55L660,-57L664,-48L665,-43L673,-20L736,-8L740,-13L750,3L736,48L673,70L613,78L593,88L578,111L569,115L563,108L555,109L535,107L531,104L507,105L502,107L493,101L487,112L490,121L480,128L478,119L471,112L470,104L459,96L448,77L442,59L428,44L418,40L404,19L402,3L403,-10L391,-35L381,-44L370,-49L363,-62L364,-67L358,-79L352,-84L344,-102L331,-121L321,-137L310,-137L313,-150L314,-158Z" fill="#E0E0E0" stroke="#fff" stroke-width=".4"/><path d="M357,3L274,3L193,3L109,3L109,-81L109,-165L103,-184L108,-199L105,-210L112,-221L140,-222L160,-215L181,-208L191,-204L207,-212L215,-219L234,-221L249,-218L254,-206L259,-214L276,-208L292,-207L303,-213L314,-177L316,-171L310,-162L306,-144L300,-131L295,-127L288,-135L279,-145L264,-180L262,-177L271,-152L283,-128L299,-92L307,-79L314,-66L332,-41L328,-37L329,-22L353,-2Z" fill="#E0E0E0" stroke="#fff" stroke-width=".4"/><path d="M109,3L109,48L85,48L85,57L1,14L-82,-29L-103,-16L-118,-8L-130,-20L-163,-30L-172,-45L-188,-55L-198,-51L-205,-64L-206,-74L-219,-91L-210,-100L-212,-115L-209,-128L-211,-139L-207,-158L-208,-169L-215,-191L-205,-196L-203,-206L-205,-217L-191,-226L-185,-234L-174,-241L-173,-260L-149,-251L-140,-254L-123,-250L-95,-238L-85,-217L-66,-212L-37,-202L-15,-190L-4,-196L6,-207L1,-226L7,-238L22,-249L37,-253L65,-248L72,-237L80,-237L87,-232L107,-229L112,-221L105,-210L108,-199L103,-184L109,-165L109,-81Z" fill="#E0E0E0" stroke="#fff" stroke-width=".4"/><path d="M585,307L526,370L499,371L480,385L467,386L461,392L447,392L438,385L419,394L413,403L399,401L395,399L390,399L383,399L357,381L342,381L335,374L335,363L324,359L312,336L302,331L299,323L288,313L275,311L282,299L293,299L296,292L296,273L302,251L312,245L314,236L323,220L336,209L344,188L348,170L372,174L379,158L391,168L404,163L409,167L423,168L441,176L446,184L456,191L464,203L472,210L464,220L457,230L459,236L459,242L471,242L476,241L480,245L476,252L484,264L491,274L499,282L568,307Z" fill="#E0E0E0" stroke="#fff" stroke-width=".4"/><path d="M472,210L480,212L487,207L492,213L491,222L479,227L488,233L480,245L476,241L471,242L459,242L459,236L457,230L464,220Z" fill="#E0E0E0" stroke="#fff" stroke-width=".4"/><path d="M609,234L609,235L609,244L609,265L609,276L600,289L585,307L568,307L499,282L491,274L484,264L476,252L480,245L488,233L495,237L499,246L508,255L519,255L538,250L561,247L580,240L590,239L597,235Z" fill="#E0E0E0" stroke="#fff" stroke-width=".4"/><path d="M295,494L252,496L230,496L222,498L210,505L205,502L205,487L210,479L211,462L215,452L223,441L231,436L238,428L230,425L231,401L239,395L253,400L270,395L284,395L297,385L307,400L309,411L319,435L311,450L301,464L295,472Z" fill="#E0E0E0" stroke="#fff" stroke-width=".4"/><path d="M222,498L230,510L229,522L223,525L212,523L206,535L193,534L195,522L198,521L199,508L205,502L210,505Z" fill="#E0E0E0" stroke="#fff" stroke-width=".4"/><path d="M231,401L212,387L208,378L196,383L186,381L181,385L171,382L159,365L155,358L140,350L134,337L126,328L112,317L111,310L100,302L86,294L92,291L99,287L105,268L110,259L125,256L129,262L140,274L146,276L153,272L168,273L171,277L192,277L193,273L203,269L205,263L213,258L231,271L242,268L252,253L264,241L262,229L257,222L269,221L271,217L280,218L278,234L280,249L291,257L294,265L293,275L296,276L296,292L293,299L282,299L275,311L288,313L299,323L302,331L312,336L324,359L310,373L297,385L284,395L270,395L253,400L239,395Z" fill="#E0E0E0" stroke="#fff" stroke-width=".4"/></g><g clip-path="url(#v)"><path d="M349.7,173.4L349.1,167.2L348.6,163.1L348.2,158.6L347.7,154.5L349.7,152.0L350.6,149.5L353.0,141.6L353.9,140.1L355.8,135.8L356.1,134.6L357.9,129.2L357.7,125.7L357.3,122.1L358.3,120.0L359.2,118.3L359.1,116.8L359.6,113.4L359.9,112.6L360.9,112.5L363.2,113.0L364.9,112.6L366.8,112.6L368.2,112.5L369.1,111.5L370.3,107.6L371.1,106.8L371.7,106.6L373.4,105.9L374.9,104.7L376.1,103.9L376.4,103.7L377.7,103.6L378.9,103.1L379.5,102.6L381.1,102.1L382.6,102.4L383.7,101.9L384.3,101.6L385.2,101.6L385.8,101.1L386.1,100.4L386.6,100.0L387.8,98.9L388.4,98.2L388.6,97.4L388.8,96.8L389.4,95.8L391.5,93.3L393.3,91.9L399.6,104.6L402.2,112.0L404.4,119.8L406.1,131.5L407.7,137.4L410.3,140.3L412.0,145.8L413.6,146.1L414.6,147.6L416.5,152.7L417.9,154.7L418.6,153.0L418.5,152.1L418.0,150.5L418.5,148.4L419.5,147.2L421.9,148.8L423.2,150.1L423.6,152.7L424.1,154.1L426.6,157.1L428.7,157.9L431.5,158.2L433.7,158.8L435.6,159.9L439.1,162.9L446.9,165.6L453.3,173.7L457.0,179.3L469.2,187.8L471.4,191.9L472.5,195.8L475.0,195.7L479.5,200.0L480.8,203.3L484.4,204.5L485.0,202.6L486.8,204.2L487.4,206.7L485.1,207.6L482.6,208.5L482.3,208.5L481.4,209.7L480.2,212.8L478.9,213.7L478.1,213.8L474.1,210.8L473.5,210.7L472.7,211.2L472.0,211.8L470.2,209.6L468.9,207.7L466.9,205.3L465.1,204.3L463.2,203.0L461.2,199.9L459.2,196.5L456.3,193.7L450.8,189.7L445.8,184.6L441.9,179.3L439.5,176.6L438.4,175.8L433.3,174.1L429.8,171.7L427.0,169.7L425.3,169.1L423.7,169.0L420.1,169.4L417.3,168.2L416.1,168.2L414.1,167.8L412.5,167.4L410.8,167.9L407.1,168.8L405.6,168.6L404.8,167.3L404.3,166.4L403.0,165.4L401.9,165.4L401.4,166.3L397.6,168.5L391.1,169.8L389.6,169.7L388.5,168.8L385.2,164.9L384.3,164.3L383.5,164.2L382.0,163.8L380.6,163.0L379.4,161.5L378.2,160.6L376.8,163.7L374.5,169.1L373.2,172.0L371.6,175.7L371.1,175.8L370.3,175.6L367.0,170.9L365.1,169.1L363.6,169.3L362.4,170.2L361.8,171.7L361.0,172.7L360.2,173.1L358.5,172.9L355.8,172.1L353.0,172.3L350.1,173.4ZM424.0,133.9L424.6,136.0L422.6,135.2L422.2,134.7L423.1,133.9L423.4,133.4ZM425.3,142.3L426.2,143.4L426.8,143.3L427.3,142.9L427.6,142.1L430.9,143.7L430.7,144.8L428.7,144.8L426.5,144.4L424.3,144.5L421.9,144.1L421.3,142.3L422.8,143.2L423.7,142.9L423.8,142.7L422.7,141.5L421.1,141.2L421.2,140.3L421.9,139.9L422.4,139.4L421.4,138.1L423.2,138.4L424.3,139.2L425.1,140.1Z" fill="#4ECDC4" stroke="#2C3E50" stroke-width="1"/></g><circle cx="400.0" cy="150.0" r="4" fill="#E74C3C" stroke="#fff" stroke-width="2"/><text x="400.0" y="140.0" text-anchor="middle" font-family="sans-serif" font-weight="700" font-size="10" fill="#2D3436">Asmara</text></svg>