<svg viewBox="0 0 800 300" xmlns="http://www.w3.org/2000/svg"><defs><clipPath id="v"><rect width="800" height="300"/></clipPath></defs><rect width="800" height="300" fill="#DCEEF8"/><g clip-path="url(#v)"><path d="M341,332L342,333L341,336L341,356L303,355L303,388L292,389L289,396L291,414L245,414L243,418L243,413L243,413L270,412L271,407L276,402L280,384L296,370L302,354L306,353L309,342L319,341L324,343L329,343L333,340L340,339L340,332Z" fill="#E0E0E0" stroke="#fff" stroke-width=".4"/><path d="M-1004,7L-1005,7L-1028,-10L-1036,-18L-1058,-26L-1064,-43L-1063,-55L-1078,-63L-1080,-79L-1094,-93L-1094,-104L-1088,-114L-1088,-127L-1108,-140L-1120,-165L-1127,-181L-1138,-191L-1146,-201L-1152,-213L-1164,-205L-1176,-192L-1186,-207L-1194,-218L-1206,-224L-1217,-225L-1217,-374L-1217,-490L-1195,-482L-1177,-466L-1165,-463L-1154,-477L-1140,-487L-1122,-483L-1105,-498L-1086,-507L-1077,-492L-1069,-500L-1066,-517L-1058,-513L-1038,-482L-1022,-505L-1021,-480L-1006,-485L-1002,-495L-987,-493L-969,-479L-942,-467L-926,-461L-914,-463L-898,-447L-915,-431L-894,-424L-862,-428L-852,-434L-839,-415L-826,-431L-838,-444L-831,-455L-816,-457L-807,-460L-797,-452L-786,-435L-772,-437L-752,-423L-733,-428L-716,-427L-718,-447L-707,-453L-689,-442L-689,-412L-681,-437L-672,-436L-667,-469L-679,-489L-693,-503L-692,-542L-678,-569L-663,-563L-651,-547L-635,-507L-645,-490L-623,-483L-623,-449L-607,-475L-593,-454L-597,-430L-585,-409L-573,-432L-565,-459L-564,-496L-547,-493L-530,-488L-514,-472L-513,-455L-522,-438L-514,-422L-515,-407L-538,-386L-555,-381L-567,-390L-570,-375L-582,-351L-585,-339L-599,-321L-616,-319L-625,-308L-626,-291L-639,-287L-654,-267L-667,-239L-671,-220L-672,-193L-655,-189L-649,-168L-644,-152L-627,-156L-605,-147L-594,-138L-585,-128L-570,-123L-558,-114L-538,-113L-526,-111L-528,-93L-524,-73L-515,-51L-498,-33L-489,-39L-482,-59L-489,-90L-497,-101L-478,-110L-465,-125L-458,-140L-459,-154L-467,-173L-481,-190L-468,-214L-473,-236L-477,-274L-468,-280L-448,-273L-436,-271L-426,-277L-415,-269L-401,-254L-397,-245L-376,-243L-377,-223L-373,-193L-362,-190L-353,-176L-336,-189L-325,-214L-317,-225L-308,-204L-293,-175L-280,-149L-284,-136L-269,-124L-258,-112L-239,-107L-232,-100L-227,-83L-218,-80L-213,-73L-212,-51L-221,-44L-229,-37L-249,-31L-264,-15L-284,-12L-309,-16L-326,-16L-339,-15L-349,-2L-364,6L-381,30L-394,46L-384,43L-365,20L-340,5L-323,3L-312,12L-324,24L-320,43L-316,56L-301,64L-281,62L-269,42L-269,55L-261,61L-276,72L-302,82L-313,89L-326,100L-335,99L-336,85L-315,72L-334,72L-347,74L-355,65L-355,41L-360,36L-368,39L-372,35L-381,48L-385,61L-389,69L-394,71L-398,72L-399,76L-421,76L-438,77L-444,80L-456,91L-458,93L-461,99L-472,99L-484,99L-489,102L-487,105L-486,110L-486,111L-502,119L-514,122L-528,130L-531,130L-535,128L-536,126L-536,124L-533,118L-527,110L-524,100L-526,86L-529,71L-541,63L-540,60L-541,58L-545,58L-547,55L-548,51L-550,53L-553,52L-552,51L-555,49L-556,44L-565,39L-575,33L-587,26L-598,20L-608,25L-612,25L-626,20L-636,23L-647,17L-659,14L-668,13L-671,10L-673,0L-677,0L-677,7L-702,7L-742,7L-782,7L-818,7L-853,7L-888,7L-924,7L-935,7L-970,7ZM-546,-278L-537,-289L-521,-289L-521,-284L-535,-270L-543,-271ZM-496,-604L-509,-625L-509,-640L-503,-643L-476,-638L-456,-616L-455,-605L-467,-606L-480,-607L-493,-601ZM-503,-268L-498,-276L-493,-275L-490,-270L-495,-257L-500,-259L-503,-267ZM-659,-696L-666,-679L-683,-682L-697,-694L-691,-715L-674,-727L-664,-711ZM-662,-823L-667,-821L-689,-824L-693,-840L-669,-839L-661,-829ZM-696,-894L-682,-873L-685,-852L-703,-841L-712,-854L-717,-876L-718,-900L-703,-898ZM-595,-670L-614,-675L-645,-690L-649,-715L-651,-739L-663,-760L-687,-766L-701,-782L-696,-803L-672,-800L-659,-783L-636,-783L-625,-767L-628,-748L-615,-737L-607,-726L-591,-723L-574,-719L-555,-730L-531,-734L-512,-730L-500,-713L-497,-694L-504,-682L-522,-672L-537,-678L-571,-671ZM-867,-858L-851,-849L-855,-832L-877,-817L-894,-834L-884,-852ZM-864,-896L-848,-884L-863,-873L-882,-873L-882,-881L-870,-899ZM-211,-35L-218,-23L-226,-7L-218,-14L-210,-10L-214,-3L-204,2L-198,-3L-186,3L-190,16L-182,13L-180,22L-177,33L-182,49L-187,49L-195,46L-192,32L-195,29L-209,45L-216,44L-208,36L-219,32L-232,33L-255,32L-256,27L-249,21L-254,16L-244,5L-232,-24L-225,-35L-215,-41L-209,-40ZM-545,-348L-532,-339L-518,-330L-517,-317L-509,-320L-500,-311L-511,-302L-529,-309L-536,-321L-547,-307L-564,-293L-568,-308L-584,-306L-574,-319L-572,-340L-568,-366L-560,-364L-558,-352L-551,-356ZM-484,-586L-473,-602L-447,-582L-431,-564L-429,-547L-408,-556L-395,-532L-367,-518L-357,-504L-345,-472L-367,-457L-339,-436L-321,-429L-304,-401L-285,-399L-289,-379L-309,-345L-324,-357L-342,-385L-358,-381L-359,-365L-347,-348L-331,-336L-326,-328L-318,-302L-322,-283L-337,-290L-367,-311L-350,-289L-338,-273L-336,-264L-368,-274L-393,-289L-407,-302L-403,-309L-421,-323L-438,-337L-438,-329L-472,-324L-482,-334L-474,-354L-452,-355L-428,-358L-432,-368L-428,-383L-412,-412L-416,-426L-420,-436L-438,-452L-462,-463L-454,-471L-467,-492L-477,-494L-487,-506L-493,-496L-514,-491L-557,-499L-582,-509L-601,-514L-611,-527L-599,-543L-615,-543L-619,-581L-610,-617L-598,-634L-568,-645L-576,-618L-567,-593L-556,-625L-526,-642L-506,-600L-508,-575ZM-670,-659L-645,-657L-623,-647L-640,-610L-654,-602L-667,-573L-680,-575L-688,-609L-688,-629L-681,-647ZM-1004,-750L-984,-788L-960,-822L-942,-821L-925,-829L-927,-788L-936,-771L-947,-768L-969,-747L-988,-739ZM-1120,-88L-1109,-90L-1112,-67L-1102,-52L-1107,-52L-1114,-61L-1118,-70L-1124,-76L-1126,-84L-1125,-91ZM-799,-927L-776,-919L-744,-896L-735,-868L-731,-844L-750,-850L-769,-869L-795,-871L-784,-889L-798,-903ZM-1011,16L-1017,19L-1037,10L-1040,4L-1051,-2L-1053,-7L-1065,-11L-1070,-21L-1069,-25L-1056,-21L-1049,-18L-1038,-16L-1034,-10L-1028,-1L-1016,6ZM-988,-673L-971,-663L-941,-661L-930,-649L-917,-631L-932,-621L-961,-593L-976,-566L-976,-549L-1007,-532L-1013,-548L-1040,-567L-1035,-584L-1027,-613L-1017,-640L-1028,-666ZM-827,-737L-816,-745L-804,-743L-802,-719L-809,-697L-849,-690L-878,-671L-896,-670L-898,-685L-873,-705L-927,-699L-943,-707L-927,-754L-916,-768L-883,-751L-862,-723L-841,-719L-858,-766L-847,-784L-835,-778L-831,-754ZM-811,-615L-798,-599L-791,-561L-787,-535L-767,-517L-746,-501L-747,-486L-767,-483L-759,-470L-763,-458L-784,-463L-805,-472L-818,-470L-841,-459L-870,-454L-891,-451L-898,-467L-914,-476L-924,-472L-939,-499L-931,-502L-913,-508L-896,-507L-881,-513L-904,-521L-929,-518L-945,-519L-952,-532L-924,-547L-942,-546L-963,-556L-953,-584L-945,-600L-913,-624L-901,-616L-907,-598L-881,-610L-865,-590L-851,-610L-841,-597L-831,-559L-825,-575L-833,-615L-823,-621ZM-740,-600L-753,-626L-739,-646L-725,-638L-704,-643L-701,-631L-712,-611L-694,-594L-696,-560L-715,-545L-727,-548L-735,-562L-764,-592L-764,-605ZM-812,-636L-796,-638L-788,-629L-798,-602L-816,-630ZM-717,-780L-708,-757L-707,-732L-713,-697L-732,-693L-745,-700L-745,-727L-764,-723L-765,-761L-752,-759L-734,-776L-718,-774ZM-688,-1015L-679,-1037L-667,-1043L-673,-1060L-645,-1064L-630,-1024L-610,-1008L-591,-995L-582,-950L-567,-929L-584,-911L-605,-866L-626,-862L-651,-869L-663,-893L-663,-915L-654,-932L-675,-932L-688,-953L-696,-984ZM-635,-1115L-618,-1131L-604,-1134L-581,-1148L-564,-1182L-549,-1177L-536,-1152L-527,-1201L-512,-1217L-491,-1227L-455,-1231L-448,-1221L-414,-1238L-389,-1231L-363,-1225L-332,-1217L-307,-1205L-285,-1180L-286,-1156L-314,-1118L-343,-1101L-353,-1083L-328,-1084L-356,-1037L-375,-1016L-395,-960L-419,-949L-427,-935L-462,-929L-446,-921L-454,-910L-445,-880L-456,-860L-474,-844L-480,-822L-496,-806L-494,-794L-474,-796L-474,-783L-505,-753L-536,-767L-571,-759L-588,-765L-611,-768L-612,-792L-590,-804L-596,-844L-589,-848L-558,-824L-574,-859L-593,-871L-583,-894L-562,-908L-559,-930L-576,-955L-581,-990L-548,-987L-539,-980L-521,-1005L-547,-1014L-588,-1009L-609,-1034L-619,-1064L-633,-1087ZM-443,-417L-450,-408L-463,-406L-466,-421L-461,-439L-451,-443L-441,-435L-441,-421ZM-690,-483L-683,-470L-691,-458L-706,-468L-716,-465L-732,-480L-722,-490L-714,-505L-701,-495L-694,-489ZM-316,-8L-312,-10L-297,-5L-285,2L-285,5L-290,6L-306,0ZM-311,42L-306,50L-298,53L-287,52L-293,59L-297,60L-312,53L-315,47Z" fill="#E0E0E0" stroke="#fff" stroke-width=".4"/><path d="M1473,4L1464,15L1454,17L1453,35L1447,43L1424,37L1415,67L1409,71L1386,78L1396,106L1388,111L1389,120L1382,117L1376,112L1358,110L1339,109L1335,111L1318,104L1311,108L1309,117L1290,112L1282,114L1280,121L1273,124L1257,135L1252,146L1248,146L1245,139L1230,138L1227,125L1221,125L1222,109L1208,97L1188,99L1174,101L1163,86L1153,80L1135,68L1133,67L1102,77L1103,136L1097,137L1089,125L1081,120L1067,123L1062,129L1061,125L1064,118L1062,113L1048,107L1043,93L1037,88L1036,83L1048,85L1048,72L1058,70L1068,72L1071,56L1068,45L1057,46L1047,42L1033,49L1022,53L1016,50L1017,41L1010,30L1001,30L991,18L998,5L994,1L1004,-19L1016,-8L1017,-22L1042,-42L1060,-43L1086,-30L1100,-22L1112,-30L1131,-30L1146,-21L1150,-26L1166,-26L1169,-34L1150,-47L1161,-57L1159,-62L1170,-67L1162,-81L1167,-88L1211,-94L1217,-100L1247,-107L1257,-116L1278,-111L1282,-90L1294,-95L1310,-88L1309,-77L1320,-78L1349,-97L1345,-91L1360,-76L1386,-27L1393,-37L1409,-26L1426,-31L1432,-27L1438,-17L1446,-13L1451,-5L1467,-8Z" fill="#E0E0E0" stroke="#fff" stroke-width=".4"/><path d="M733,574L724,569L720,566L719,562L721,557L721,552L714,544L713,539L713,536L709,533L709,526L706,521L702,522L703,517L706,512L705,507L709,504L706,501L709,493L715,484L725,485L724,436L725,431L738,431L738,406L785,406L831,406L878,406L882,418L879,420L881,433L885,448L890,451L896,456L890,463L881,465L878,469L877,477L872,495L873,500L871,510L866,522L859,528L854,537L853,542L847,545L844,558L844,569L844,559L842,559L842,553L841,549L835,544L833,536L835,527L829,526L829,529L821,529L824,533L825,540L819,547L813,555L807,557L797,550L793,552L791,555L785,558L785,560L773,560L771,558L763,557L759,559L756,558L749,551L747,548L739,550L736,555L733,566L729,568L725,570Z" fill="#E0E0E0" stroke="#fff" stroke-width=".4"/><path d="M724,436L725,485L715,484L709,493L706,501L709,504L705,507L706,512L703,517L702,522L706,521L709,526L709,533L713,536L713,539L706,541L700,546L691,559L680,565L669,564L665,565L666,569L660,574L655,578L640,583L637,580L636,580L633,583L624,584L625,581L622,572L620,567L615,565L608,558L611,553L616,554L619,553L626,553L619,542L620,534L619,526L614,519L616,513L608,513L608,505L603,500L608,484L623,473L624,457L628,431L631,426L626,422L626,418L621,414L619,395L630,388L677,412Z" fill="#E0E0E0" stroke="#fff" stroke-width=".4"/><path d="M1548,-1046L1574,-1064L1597,-1026L1624,-958L1621,-901L1595,-893L1562,-911L1543,-935L1534,-983L1518,-997ZM1655,-926L1685,-891L1681,-867L1648,-856L1615,-845L1637,-923L1646,-930ZM2079,-751L2110,-749L2153,-723L2144,-689L2100,-690L2081,-680L2057,-709L2064,-742ZM2190,-713L2219,-701L2206,-683L2187,-687L2165,-705L2168,-720ZM2091,-627L2102,-643L2117,-647L2134,-631L2135,-620L2118,-620L2093,-624ZM972,-1014L995,-1027L1013,-1028L1015,-1009L1022,-1026L1033,-1038L1051,-1022L1046,-1011L1030,-1002L1020,-996L1018,-985L1004,-974L991,-990L998,-1012ZM711,-94L690,-94L675,-96L678,-105L694,-112L706,-108L712,-105L710,-99ZM1074,-642L1102,-680L1099,-701L1125,-725L1164,-757L1203,-766L1224,-785L1247,-792L1255,-771L1247,-756L1205,-732L1169,-709L1133,-666L1115,-625L1097,-587L1099,-555L1121,-525L1114,-522L1076,-527L1073,-543L1052,-553L1050,-573L1062,-581L1061,-603L1085,-637ZM2127,-81L2131,-63L2131,-44L2136,-25L2148,8L2130,2L2123,28L2135,45L2134,57L2125,47L2118,60L2115,46L2117,29L2115,10L2118,-4L2119,-28L2112,-47L2113,-74L2124,-83L2119,-92L2124,-95ZM-1677,-465L-1677,-465L-1648,-440L-1617,-410L-1618,-391L-1610,-384L-1613,-405L-1581,-401L-1558,-373L-1570,-361L-1589,-358L-1589,-331L-1594,-325L-1605,-326L-1614,-335L-1630,-343L-1632,-355L-1644,-360L-1658,-356L-1664,-366L-1662,-377L-1676,-370L-1670,-357L-1677,-345L-1677,-345L-1677,-465ZM2564,-345L2564,-345L2549,-333L2534,-335L2544,-320L2551,-298L2557,-291L2558,-281L2555,-274L2533,-279L2500,-260L2490,-257L2472,-240L2455,-225L2450,-215L2433,-231L2403,-213L2397,-221L2386,-211L2370,-214L2366,-199L2352,-177L2353,-168L2366,-163L2365,-132L2354,-131L2349,-114L2354,-105L2333,-94L2329,-72L2311,-67L2308,-47L2291,-29L2286,-42L2281,-71L2275,-116L2280,-145L2290,-158L2291,-168L2309,-173L2330,-202L2351,-226L2372,-245L2381,-280L2367,-278L2360,-257L2330,-230L2320,-260L2290,-252L2260,-212L2270,-198L2244,-192L2226,-189L2226,-206L2208,-209L2194,-198L2158,-202L2119,-195L2081,-152L2036,-102L2054,-100L2060,-87L2071,-82L2079,-92L2092,-91L2109,-69L2109,-53L2100,-34L2099,-12L2094,17L2076,43L2072,54L2056,74L2040,93L2032,103L2017,112L2009,113L2002,105L1986,116L1984,122L1984,122L1983,119L1983,111L1989,110L1990,91L1987,77L1997,71L2012,74L2020,58L2024,39L2028,33L2034,17L2015,22L2005,29L1987,29L1982,12L1968,-1L1948,-6L1943,-24L1939,-36L1935,-44L1927,-64L1917,-71L1899,-77L1884,-76L1869,-73L1859,-63L1866,-58L1866,-48L1859,-41L1849,-22L1849,-13L1832,-2L1818,-9L1804,-7L1798,-13L1791,-15L1774,-2L1758,1L1747,5L1732,2L1722,2L1714,-7L1703,-16L1691,-18L1676,-16L1665,-12L1648,-20L1646,-34L1632,-39L1621,-41L1608,-49L1596,-29L1601,-19L1589,-6L1572,-10L1561,-11L1553,-20L1540,-20L1530,-26L1512,-17L1490,-1L1477,2L1473,4L1467,-8L1451,-5L1446,-13L1438,-17L1432,-27L1426,-31L1409,-26L1393,-37L1386,-27L1360,-76L1345,-91L1349,-97L1320,-78L1309,-77L1310,-88L1294,-95L1282,-90L1278,-111L1257,-116L1247,-107L1217,-100L1211,-94L1167,-88L1162,-81L1170,-67L1159,-62L1161,-57L1150,-47L1169,-34L1166,-26L1150,-26L1146,-21L1131,-30L1112,-30L1100,-22L1086,-30L1060,-43L1042,-42L1017,-22L1016,-8L1004,-19L994,1L998,5L991,18L1001,30L1010,30L1017,41L1016,50L1022,53L1017,63L1005,66L994,83L1004,99L1003,109L1016,128L1009,135L1007,139L1002,138L994,128L990,127L983,124L979,117L968,114L961,116L959,113L943,106L926,103L916,100L914,102L899,88L886,82L876,72L884,70L894,56L887,49L905,42L904,38L894,41L894,33L900,28L912,27L914,21L911,11L916,2L916,-3L898,-9L891,-9L884,-18L875,-15L860,-21L860,-25L856,-33L847,-34L846,-40L849,-44L841,-55L829,-53L825,-54L822,-49L818,-50L815,-63L812,-69L815,-71L824,-70L829,-74L825,-80L817,-83L818,-87L813,-91L806,-104L808,-109L807,-119L796,-124L790,-122L788,-127L776,-132L772,-145L771,-155L765,-160L770,-167L767,-188L775,-201L773,-205L787,-218L774,-229L799,-261L810,-275L815,-288L797,-306L802,-324L792,-344L800,-368L786,-402L797,-425L779,-446L780,-468L790,-471L810,-485L822,-497L841,-476L874,-468L918,-432L927,-417L928,-397L915,-382L896,-374L843,-396L835,-392L854,-371L854,-358L855,-329L870,-321L880,-314L881,-327L874,-339L882,-349L910,-332L920,-339L912,-359L939,-388L950,-386L961,-376L968,-396L958,-414L964,-433L956,-452L988,-442L995,-424L980,-421L980,-404L990,-393L1008,-400L1011,-419L1035,-434L1076,-462L1085,-460L1074,-440L1088,-437L1097,-448L1119,-449L1136,-462L1150,-443L1163,-464L1151,-484L1157,-495L1192,-485L1208,-474L1251,-437L1259,-454L1247,-471L1246,-478L1232,-481L1236,-498L1230,-525L1229,-536L1251,-570L1259,-605L1268,-613L1299,-603L1301,-581L1290,-550L1297,-539L1301,-514L1298,-467L1311,-447L1306,-426L1283,-383L1297,-379L1301,-389L1314,-397L1318,-412L1328,-427L1321,-445L1326,-466L1314,-469L1311,-487L1320,-522L1305,-552L1326,-577L1323,-605L1329,-606L1335,-584L1331,-547L1343,-541L1338,-568L1358,-583L1382,-585L1404,-563L1393,-595L1392,-638L1413,-647L1441,-645L1466,-650L1457,-673L1470,-702L1484,-704L1507,-727L1538,-733L1542,-747L1573,-751L1583,-740L1609,-766L1631,-766L1634,-788L1645,-810L1673,-832L1693,-815L1677,-801L1704,-793L1707,-768L1718,-780L1752,-780L1779,-755L1788,-737L1785,-712L1772,-699L1741,-674L1732,-661L1747,-655L1764,-644L1775,-652L1781,-625L1786,-636L1805,-643L1843,-636L1846,-616L1895,-610L1896,-642L1921,-634L1939,-635L1959,-613L1964,-588L1957,-572L1972,-542L1990,-528L2002,-566L2021,-549L2041,-559L2063,-548L2072,-558L2091,-553L2083,-588L2098,-606L2153,-595L2205,-580L2215,-558L2246,-530L2293,-536L2317,-530L2327,-516L2325,-490L2340,-481L2355,-488L2376,-489L2399,-482L2421,-486L2441,-456L2456,-467L2446,-488L2452,-503L2489,-494L2514,-496L2548,-480L2564,-465L2564,-345ZM2564,-529L2551,-527L2549,-539L2564,-554L2564,-529ZM-1677,-554L-1677,-554L-1677,-554L-1675,-556L-1665,-556L-1648,-545L-1649,-540L-1662,-531L-1677,-529L-1677,-529L-1677,-554ZM837,60L841,56L849,60L853,60L854,64L856,64L856,66L862,70L874,69L872,75L859,78L843,87L836,84L839,76L826,71L828,68L839,62Z" fill="#E0E0E0" stroke="#fff" stroke-width=".4"/><path d="M622,-951L626,-974L644,-976L659,-953L697,-906L668,-882L661,-839L651,-829L645,-785L631,-783L606,-815L616,-834L599,-851L576,-900L567,-950L599,-974L605,-950ZM810,-485L790,-471L780,-468L785,-492L770,-506L752,-494L746,-469L735,-455L722,-463L707,-461L694,-479L687,-470L680,-468L678,-447L656,-452L652,-435L641,-435L633,-413L622,-379L603,-339L608,-330L603,-319L592,-320L584,-295L585,-261L592,-249L588,-220L579,-204L574,-191L566,-205L542,-179L527,-173L510,-185L506,-210L502,-265L513,-282L544,-304L568,-331L589,-370L618,-428L637,-452L670,-494L695,-509L715,-507L733,-536L754,-535L775,-542L812,-516L797,-506ZM766,-977L749,-941L715,-933L680,-944L678,-962L661,-964L648,-995L685,-1015L702,-998L714,-1019L743,-1001ZM735,-841L709,-818L688,-831L696,-845L689,-864L713,-876L718,-854Z" fill="#E0E0E0" stroke="#fff" stroke-width=".4"/><path d="M-165,622L-172,633L-176,642L-180,646L-186,647L-187,644L-190,643L-194,647L-199,644L-196,639L-195,634L-193,629L-197,622L-198,614L-192,604L-188,605L-179,608L-167,618ZM516,-1L522,4L539,7L533,19L532,32L528,35L523,33L523,38L515,47L515,55L520,52L524,60L524,65L527,71L523,76L526,89L533,91L531,98L521,107L497,103L480,108L479,118L465,120L452,113L448,116L426,109L421,102L427,93L430,59L417,41L409,33L391,26L389,13L405,9L425,14L421,-7L432,1L459,-13L463,-28L473,-32L475,-26L480,-25L486,-18L494,-9L500,-10L510,-2L513,-1ZM547,115L554,109L556,123L552,135L547,132L544,121Z" fill="#E0E0E0" stroke="#fff" stroke-width=".4"/><path d="M247,510L242,500L236,496L241,494L247,485L250,479L254,475L260,476L265,473L272,473L277,477L285,480L292,489L300,497L301,505L303,512L307,515L308,520L308,524L306,524L300,523L299,525L296,525L288,522L282,522L260,521L257,523L253,522L247,524L245,515L256,515L259,514L261,514L265,511L270,513L275,514L280,511L278,507L274,509L271,509L266,506L262,507L260,509Z" fill="#E0E0E0" stroke="#fff" stroke-width=".4"/><path d="M308,524L308,520L307,515L303,512L301,505L300,497L304,495L306,488L310,488L318,491L325,489L329,489L331,487L378,487L381,478L379,476L373,423L368,368L386,367L425,396L465,423L468,429L475,433L481,435L481,443L494,441L494,470L487,478L486,486L476,488L460,489L456,493L448,494L440,494L438,491L431,493L420,498L418,502L409,507L407,510L402,513L396,511L393,514L391,522L382,532L382,537L379,542L380,549L375,550L372,552L370,547L367,548L365,548L363,551L354,551L351,549L349,551L345,547L346,544L345,542L342,543L343,539L345,536L340,531L339,528L336,525L334,525L331,527L327,528L324,531L319,530L316,527L314,526L310,528L309,528Z" fill="#E0E0E0" stroke="#fff" stroke-width=".4"/><path d="M243,418L245,414L291,414L289,396L292,389L303,388L303,355L341,356L341,336L386,367L368,368L373,423L379,476L381,478L378,487L331,487L329,489L325,489L318,491L310,488L306,488L304,495L300,497L292,489L285,480L277,477L272,473L265,473L260,476L254,475L250,479L249,472L252,466L253,454L252,442L251,436L252,430L249,424Z" fill="#E0E0E0" stroke="#fff" stroke-width=".4"/><path d="M619,395L621,414L626,418L626,422L631,426L628,431L624,457L623,473L608,484L603,500L608,505L608,513L616,513L614,519L611,519L611,523L608,523L600,510L598,510L589,517L579,513L573,512L570,514L563,514L556,519L550,519L536,513L530,516L524,516L520,511L508,506L495,508L492,511L490,517L487,522L486,533L477,526L473,526L469,530L469,521L456,519L455,513L449,505L447,499L448,494L456,493L460,489L476,488L486,486L487,478L494,470L494,441L510,436L545,411L585,387L604,392L610,399Z" fill="#E0E0E0" stroke="#fff" stroke-width=".4"/><path d="M380,549L379,542L382,537L382,532L391,522L393,514L396,511L402,513L407,510L409,507L418,502L420,498L431,493L438,491L440,494L448,494L447,499L449,505L455,513L456,519L469,521L469,530L466,533L461,534L458,540L454,541L444,541L438,540L435,542L429,541L409,541L409,548L410,557L402,554L397,555L393,558L387,555L385,551Z" fill="#E0E0E0" stroke="#fff" stroke-width=".4"/><path d="M864,263L862,268L858,266L856,275L859,277L856,278L855,282L861,280L861,286L855,307L854,304L847,284L851,279L850,279L853,272L855,262L857,258L857,258L861,258L862,255L866,255L866,261L864,263Z" fill="#E0E0E0" stroke="#fff" stroke-width=".4"/><path d="M866,255L862,255L861,258L857,258L862,246L867,236L868,236L873,237L875,242L868,248Z" fill="#E0E0E0" stroke="#fff" stroke-width=".4"/><path d="M861,280L855,282L856,278L859,277L856,275L858,266L862,268L862,276Z" fill="#E0E0E0" stroke="#fff" stroke-width=".4"/><path d="M555,296L550,272L543,266L543,263L533,254L532,244L540,236L542,224L540,210L543,202L556,196L564,198L564,206L574,200L574,203L568,210L568,217L572,221L571,233L563,240L565,248L571,248L574,255L579,257L578,268L573,272L569,276L561,282L562,288L561,293Z" fill="#E0E0E0" stroke="#fff" stroke-width=".4"/><path d="M341,336L342,333L341,332L341,316L360,306L372,304L382,301L386,294L400,288L401,278L407,277L413,272L428,270L430,264L427,261L423,246L422,238L418,228L429,220L442,218L450,212L461,207L481,205L500,204L506,206L517,200L530,200L535,203L543,202L540,210L542,224L540,236L532,244L533,254L543,263L543,266L550,272L555,296L559,308L560,315L558,326L559,332L557,339L558,347L553,353L560,362L561,368L565,375L571,373L580,379L585,387L545,411L510,436L494,441L481,443L481,435L475,433L468,429L465,423L425,396L386,367Z" fill="#E0E0E0" stroke="#fff" stroke-width=".4"/><path d="M862,268L864,263L878,269L901,254L905,271L903,273L880,280L891,294L887,296L885,301L876,302L874,307L869,312L855,309L855,307L861,286L861,280L862,276Z" fill="#E0E0E0" stroke="#fff" stroke-width=".4"/><path d="M1009,301L1011,307L1010,310L1014,320L1006,321L1003,314L992,313L1001,300Z" fill="#E0E0E0" stroke="#fff" stroke-width=".4"/><path d="M905,271L901,254L927,239L931,222L930,211L936,207L943,198L948,196L961,198L965,202L971,199L979,217L986,221L987,229L981,234L979,246L987,259L1001,267L1007,277L1005,287L1009,287L1009,294L1016,302L1009,301L1001,300L992,313L970,312L937,284L920,275Z" fill="#E0E0E0" stroke="#fff" stroke-width=".4"/><path d="M1016,302L1009,294L1009,287L1005,287L1007,277L1001,267L987,259L979,246L981,234L987,229L986,221L979,217L971,199L965,187L967,183L963,165L971,161L973,167L979,174L987,176L991,175L1005,164L1010,163L1013,167L1009,175L1017,183L1019,182L1023,193L1034,196L1043,204L1059,206L1078,202L1079,199L1089,196L1098,187L1105,188L1111,185L1119,186L1132,194L1141,196L1155,209L1164,209L1165,221L1160,239L1157,250L1162,252L1157,259L1161,271L1162,279L1170,282L1171,291L1161,303L1167,310L1171,318L1183,324L1183,336L1189,338L1190,344L1173,351L1168,366L1146,362L1133,359L1120,357L1115,341L1109,339L1100,341L1088,348L1074,343L1062,333L1051,329L1043,317L1034,299L1028,301L1020,296Z" fill="#E0E0E0" stroke="#fff" stroke-width=".4"/><path d="M864,263L864,263L866,261L866,255L868,248L875,242L873,237L868,236L867,225L869,219L873,216L876,213L876,204L880,207L893,203L899,206L909,206L923,200L929,201L943,198L936,207L930,211L931,222L927,239L901,254L878,269Z" fill="#E0E0E0" stroke="#fff" stroke-width=".4"/><path d="M991,175L987,176L982,167L982,165L977,165L974,160L971,161L967,156L958,153L959,145L957,140L973,137L976,141L980,144L978,148L984,153L981,158L986,162L991,165Z" fill="#E0E0E0" stroke="#fff" stroke-width=".4"/><path d="M574,-191L579,-204L588,-220L592,-249L585,-261L584,-295L592,-320L603,-319L608,-330L603,-339L622,-379L633,-413L641,-435L652,-435L656,-452L678,-447L680,-468L687,-470L703,-454L721,-432L721,-385L725,-374L705,-366L694,-346L695,-329L677,-308L654,-285L645,-250L654,-233L665,-219L654,-193L642,-188L637,-151L631,-131L616,-133L610,-116L596,-115L592,-135L582,-159Z" fill="#E0E0E0" stroke="#fff" stroke-width=".4"/><path d="M776,-132L788,-127L790,-122L796,-124L807,-119L808,-109L806,-104L813,-91L818,-87L817,-83L825,-80L829,-74L824,-70L815,-71L812,-69L815,-63L818,-50L808,-49L804,-45L804,-35L799,-37L788,-36L785,-41L781,-37L776,-40L767,-40L754,-45L742,-47L733,-46L726,-41L721,-40L721,-49L717,-58L724,-62L724,-69L721,-77L720,-86L732,-85L744,-93L747,-105L757,-111L756,-120L763,-124Z" fill="#E0E0E0" stroke="#fff" stroke-width=".4"/><path d="M818,-50L822,-49L825,-54L829,-53L841,-55L849,-44L846,-40L847,-34L856,-33L860,-25L860,-21L875,-15L884,-18L891,-9L898,-9L916,-3L916,2L911,11L914,21L912,27L900,28L894,33L894,41L884,42L877,48L866,49L855,55L856,64L854,64L853,60L849,60L841,56L837,60L836,58L818,54L817,48L806,50L801,59L792,72L787,69L781,71L776,68L779,67L781,61L784,55L784,52L786,51L787,53L794,54L797,52L795,51L796,48L792,44L790,37L786,34L787,28L781,23L777,22L768,17L760,19L757,21L752,21L749,25L741,27L737,30L731,25L724,25L716,23L711,27L710,23L704,18L706,10L709,6L712,7L709,-1L720,-16L725,-19L727,-24L721,-40L726,-41L733,-46L742,-47L754,-45L767,-40L776,-40L781,-37L785,-41L788,-36L799,-37L804,-35L804,-45L808,-49Z" fill="#E0E0E0" stroke="#fff" stroke-width=".4"/><path d="M720,-86L721,-77L724,-69L724,-62L717,-58L721,-49L721,-40L727,-24L725,-19L720,-16L709,-1L712,7L709,6L698,-1L690,1L684,-0L677,3L671,-3L666,-0L666,-2L660,-11L652,-12L650,-17L642,-20L641,-15L634,-19L635,-24L626,-25L621,-31L616,-43L617,-50L614,-60L609,-67L613,-72L610,-83L618,-88L636,-98L651,-105L663,-101L664,-96L675,-96L690,-94L711,-94L717,-92Z" fill="#E0E0E0" stroke="#fff" stroke-width=".4"/><path d="M644,23L643,30L636,30L638,34L634,45L632,48L622,48L616,52L606,51L589,47L587,41L575,44L574,47L567,44L561,44L555,41L557,37L557,33L560,33L566,37L568,33L578,33L587,30L592,31L596,34L597,32L595,20L600,18L604,10L612,15L619,8L623,7L632,12L638,11L643,15L642,17Z" fill="#E0E0E0" stroke="#fff" stroke-width=".4"/><path d="M704,18L710,23L711,27L704,31L698,43L691,54L682,58L674,57L665,61L661,64L651,61L642,53L639,51L636,45L634,45L638,34L636,30L643,30L644,23L650,27L654,29L664,27L665,24L669,23L675,20L676,22L682,19L685,15L689,14L701,20Z" fill="#E0E0E0" stroke="#fff" stroke-width=".4"/><path d="M757,21L760,19L768,17L777,22L781,23L787,28L786,34L790,37L792,44L796,48L795,51L797,52L794,54L787,53L786,51L784,52L784,55L781,61L779,67L776,68L774,61L775,53L775,46L768,36L764,28L761,23Z" fill="#E0E0E0" stroke="#fff" stroke-width=".4"/><path d="M776,68L781,71L787,69L792,72L793,76L787,80L783,78L780,98L773,96L765,90L751,94L745,98L728,97L718,95L714,96L711,89L708,86L711,84L708,81L704,85L698,80L697,73L690,70L688,64L682,58L691,54L698,43L704,31L711,27L716,23L724,25L731,25L737,30L741,27L749,25L752,21L757,21L761,23L764,28L768,36L775,46L775,53L774,61Z" fill="#E0E0E0" stroke="#fff" stroke-width=".4"/><path d="M756,-120L757,-111L747,-105L744,-93L732,-85L720,-86L717,-92L711,-94L710,-99L712,-105L706,-108L694,-112L692,-129L705,-136L725,-134L736,-136L738,-132L744,-131Z" fill="#E0E0E0" stroke="#fff" stroke-width=".4"/><path d="M765,-160L771,-155L772,-145L776,-132L763,-124L756,-120L744,-131L738,-132L736,-136L725,-134L705,-136L692,-129L692,-145L698,-159L709,-166L718,-150L728,-150L730,-167L740,-171L745,-168L755,-160Z" fill="#E0E0E0" stroke="#fff" stroke-width=".4"/><path d="M773,-205L775,-201L767,-188L770,-167L765,-160L755,-160L745,-168L740,-171L730,-167L731,-180L727,-177L720,-185L719,-199L733,-205L748,-208L761,-205Z" fill="#E0E0E0" stroke="#fff" stroke-width=".4"/><path d="M610,-83L613,-72L609,-67L614,-60L617,-50L616,-43L621,-31L615,-29L612,-31L609,-28L601,-24L596,-20L588,-16L590,-10L591,-3L597,2L604,10L600,18L595,20L597,32L596,34L592,31L587,30L578,33L568,33L566,37L560,33L557,33L544,28L542,32L532,32L533,19L539,7L522,4L516,-1L517,-9L515,-13L516,-26L514,-45L521,-45L524,-53L527,-70L525,-77L527,-81L537,-82L539,-78L547,-88L545,-95L544,-107L553,-104L560,-107L561,-99L573,-95L572,-88L584,-91L591,-97L604,-89Z" fill="#E0E0E0" stroke="#fff" stroke-width=".4"/><path d="M711,89L714,96L718,95L728,97L745,98L751,94L765,90L773,96L780,98L774,105L770,116L773,125L763,123L751,128L751,136L740,137L732,132L723,136L714,136L713,125L707,120L709,118L708,116L710,111L714,106L709,99L708,93Z" fill="#E0E0E0" stroke="#fff" stroke-width=".4"/><path d="M753,226L752,231L735,232L735,230L721,227L723,221L729,225L738,225L747,226L747,228ZM714,136L723,136L732,132L740,137L751,136L751,128L757,132L753,142L751,144L743,143L737,142L723,146L731,155L725,157L719,157L712,149L710,153L713,162L719,169L714,172L721,179L727,184L727,192L716,188L719,196L712,197L716,210L709,210L699,204L694,192L692,182L688,175L682,167L681,162L686,155L687,150L691,148L691,143L699,142L703,139L710,139L712,136Z" fill="#E0E0E0" stroke="#fff" stroke-width=".4"/><path d="M971,199L965,202L961,198L948,196L943,198L929,201L923,200L909,206L899,206L893,203L880,207L876,204L876,213L873,216L869,219L865,212L870,207L862,208L853,205L844,213L827,215L817,207L804,206L802,212L793,214L782,206L769,207L762,192L754,184L759,172L752,165L765,150L783,149L788,138L811,140L825,129L838,125L858,125L878,136L895,142L909,139L919,141L933,133L946,132L957,140L959,145L958,153L967,156L971,161L963,165L967,183L965,187ZM751,128L763,123L773,125L775,131L785,136L783,140L769,141L764,146L754,154L750,147L751,144L753,142L757,132Z" fill="#E0E0E0" stroke="#fff" stroke-width=".4"/><path d="M691,143L691,148L687,150L686,155L681,162L679,161L679,158L672,153L671,145L672,135L674,130L672,127L671,122L676,114L677,117L680,116L683,120L685,122L686,128L685,133L686,140Z" fill="#E0E0E0" stroke="#fff" stroke-width=".4"/><path d="M639,51L642,53L651,61L661,64L665,61L668,68L672,73L668,79L662,75L654,75L644,73L638,73L636,76L632,73L629,80L635,87L637,92L643,98L647,102L652,109L662,115L661,118L650,112L643,106L632,101L622,89L625,88L619,81L619,75L612,73L608,80L604,74L605,68L605,68L613,69L616,66L620,69L624,69L624,64L628,63L629,56Z" fill="#E0E0E0" stroke="#fff" stroke-width=".4"/><path d="M557,33L557,37L555,41L561,44L567,44L566,51L560,54L552,52L549,59L544,60L542,57L535,63L529,63L524,60L520,52L515,55L515,47L523,38L523,33L528,35L532,32L542,32L544,28Z" fill="#E0E0E0" stroke="#fff" stroke-width=".4"/><path d="M515,-13L517,-9L516,-1L513,-1L510,-2L512,-12Z" fill="#E0E0E0" stroke="#fff" stroke-width=".4"/><path d="M516,-26L515,-13L512,-12L510,-2L500,-10L494,-9L486,-18L480,-25L475,-26L473,-32L483,-36L491,-34L502,-38L510,-30Z" fill="#E0E0E0" stroke="#fff" stroke-width=".4"/><path d="M525,-77L527,-70L524,-53L521,-45L514,-45L516,-26L510,-30L502,-38L491,-34L483,-36L489,-41L499,-69L515,-78Z" fill="#E0E0E0" stroke="#fff" stroke-width=".4"/><path d="M337,127L341,123L346,121L349,129L356,129L358,127L365,127L368,135L363,139L363,151L361,154L360,161L355,162L360,171L357,181L361,186L359,190L355,195L356,200L351,204L345,202L339,204L341,192L339,183L334,181L331,176L332,166L337,160L338,154L340,145L340,138L338,132Z" fill="#E0E0E0" stroke="#fff" stroke-width=".4"/><path d="M371,-85L373,-71L364,-53L343,-42L326,-45L336,-65L329,-85L345,-101L354,-110L357,-99L354,-89L362,-89Z" fill="#E0E0E0" stroke="#fff" stroke-width=".4"/><path d="M567,44L574,47L575,44L587,41L589,47L606,51L605,59L608,67L598,64L589,70L589,78L588,83L592,92L603,100L609,113L622,126L631,126L634,129L631,133L641,138L650,143L660,151L661,154L659,159L653,152L642,150L637,160L646,165L644,173L640,174L633,187L628,188L628,184L631,176L633,172L629,163L625,156L620,154L617,147L609,144L604,138L595,137L586,130L575,120L567,110L564,94L558,92L548,87L543,89L536,97L531,98L533,91L526,89L523,76L527,71L524,65L524,60L529,63L535,63L542,57L544,60L549,59L552,52L560,54L566,51ZM618,185L626,183L622,195L624,200L621,207L612,202L606,200L590,193L592,185L605,186ZM546,143L552,138L559,149L557,169L552,168L547,173L543,169L542,151L540,142Z" fill="#E0E0E0" stroke="#fff" stroke-width=".4"/><path d="M560,-107L553,-104L544,-107L539,-118L539,-140L541,-146L544,-152L555,-154L559,-160L568,-166L568,-154L564,-147L566,-141L572,-138L569,-130L566,-132L557,-117ZM589,-131L593,-120L586,-104L574,-115L572,-124Z" fill="#E0E0E0" stroke="#fff" stroke-width=".4"/><path d="M371,-85L362,-89L354,-89L357,-99L354,-110L364,-111L377,-99ZM407,-76L407,-76L409,-87L401,-100L401,-100L387,-103L384,-109L388,-118L384,-124L378,-114L377,-134L371,-145L375,-168L385,-186L394,-184L408,-186L396,-162L408,-165L420,-165L417,-147L407,-128L419,-127L420,-124L430,-100L439,-97L446,-74L449,-66L463,-62L462,-50L456,-45L461,-35L450,-25L434,-25L414,-20L409,-24L401,-15L390,-17L382,-10L376,-14L393,-33L403,-37L403,-37L385,-40L382,-48L394,-54L387,-64L390,-77Z" fill="#E0E0E0" stroke="#fff" stroke-width=".4"/><path d="M990,127L994,128L1002,138L1007,139L1009,135L1016,128L1022,137L1028,148L1034,148L1037,153L1028,154L1026,166L1023,171L1019,175L1019,182L1017,183L1009,175L1013,167L1010,163L1005,164L991,175L991,165L986,162L981,158L984,153L978,148L980,144L976,141L973,137L976,135L985,139L991,140L993,138L987,130ZM987,176L979,174L973,167L971,161L974,160L977,165L982,165L982,167Z" fill="#E0E0E0" stroke="#fff" stroke-width=".4"/><path d="M914,102L916,100L926,103L943,106L959,113L961,116L968,114L979,117L983,124L990,127L987,130L993,138L991,140L985,139L976,135L973,137L957,140L946,132L933,133L935,126L932,115L925,109L919,107Z" fill="#E0E0E0" stroke="#fff" stroke-width=".4"/><path d="M606,51L616,52L622,48L632,48L634,45L636,45L639,51L629,56L628,63L624,64L624,69L620,69L616,66L613,69L605,68L608,67L605,59Z" fill="#E0E0E0" stroke="#fff" stroke-width=".4"/><path d="M709,6L706,10L704,18L701,20L689,14L685,15L682,19L676,22L675,20L669,23L665,24L664,27L654,29L650,27L644,23L642,17L643,15L645,11L650,11L654,9L655,7L657,7L658,2L660,2L662,-2L666,-2L666,-0L671,-3L677,3L684,-0L690,1L698,-1Z" fill="#E0E0E0" stroke="#fff" stroke-width=".4"/><path d="M621,-31L626,-25L635,-24L634,-19L641,-15L642,-20L650,-17L652,-12L660,-11L666,-2L662,-2L660,2L658,2L657,7L655,7L654,9L650,11L645,11L643,15L638,11L632,12L623,7L619,8L612,15L604,10L597,2L591,-3L590,-10L588,-16L596,-20L601,-24L609,-28L612,-31L615,-29Z" fill="#E0E0E0" stroke="#fff" stroke-width=".4"/><path d="M873,500L872,495L877,477L878,469L881,465L890,463L896,456L903,470L906,481L913,487L929,499L935,506L942,513L945,517L951,521L948,524L943,522L939,519L934,511L928,508L925,503L915,499L907,498L904,496L897,499L890,493L886,502Z" fill="#E0E0E0" stroke="#fff" stroke-width=".4"/><path d="M1056,443L1065,464L1069,472L1061,476L1058,481L1058,485L1046,491L1028,496L1017,505L1012,505L1008,505L1001,510L994,512L984,513L981,513L979,517L975,518L974,521L968,520L964,522L956,521L953,514L953,508L951,504L949,495L946,490L948,489L947,484L948,482L948,476L953,472L952,467L955,461L960,464L963,463L976,463L978,464L990,465L994,465L997,469L1003,467L1011,454L1022,448Z" fill="#E0E0E0" stroke="#fff" stroke-width=".4"/><path d="M855,309L869,312L874,307L876,302L885,301L887,296L891,294L880,280L903,273L905,271L920,275L937,284L970,312L992,313L1003,314L1006,321L1014,320L1019,332L1024,335L1026,339L1034,345L1035,350L1034,355L1035,359L1039,363L1040,367L1042,370L1046,373L1049,372L1051,377L1052,380L1056,393L1092,399L1094,397L1099,406L1092,431L1056,443L1022,448L1011,454L1003,467L997,469L994,465L990,465L978,464L976,463L963,463L960,464L955,461L952,467L953,472L948,476L946,471L943,467L942,462L936,458L929,447L926,437L918,429L912,427L905,415L903,406L904,398L897,384L892,379L885,376L881,369L882,366L879,359L875,356L871,347L863,336L857,327L852,327L853,319L854,315Z" fill="#E0E0E0" stroke="#fff" stroke-width=".4"/><path d="M829,229L830,229L832,225L840,225L851,221L843,227L844,230L843,229L840,231L839,230L838,231L838,229L837,228L835,228L831,230Z" fill="#E0E0E0" stroke="#fff" stroke-width=".4"/><path d="M829,229L831,230L835,228L837,228L838,229L838,231L839,230L840,231L843,229L844,230L844,231L832,237L826,235L824,229Z" fill="#E0E0E0" stroke="#fff" stroke-width=".4"/><path d="M418,228L422,238L423,246L427,261L430,264L428,270L413,272L407,277L401,278L400,288L386,294L382,301L372,304L360,306L341,316L341,332L340,332L340,339L333,340L329,343L324,343L319,341L309,342L306,353L302,354L296,370L280,384L276,402L271,407L270,412L243,413L243,413L244,407L248,404L252,397L251,393L255,384L262,375L266,373L269,366L269,359L273,351L281,346L289,332L289,332L295,327L306,326L315,316L321,313L331,302L328,285L332,273L334,265L342,256L353,249L362,244L370,229L374,220L382,220L389,226L401,225L413,228Z" fill="#E0E0E0" stroke="#fff" stroke-width=".4"/><path d="M878,406L831,406L785,406L738,406L738,358L738,311L735,300L738,292L736,286L740,279L756,279L767,283L779,287L784,289L793,284L798,280L809,279L817,281L820,288L823,283L832,287L841,287L847,284L854,304L855,307L852,313L849,323L846,330L843,332L839,328L834,322L826,303L824,304L829,318L836,332L845,352L850,359L854,367L864,381L862,383L862,392L876,403Z" fill="#E0E0E0" stroke="#fff" stroke-width=".4"/><path d="M738,406L738,431L725,431L724,436L677,412L630,388L619,395L610,399L604,392L585,387L580,379L571,373L565,375L561,368L560,362L553,353L558,347L557,339L559,332L558,326L560,315L559,308L555,296L561,293L562,288L561,282L569,276L573,272L578,268L579,257L593,262L598,261L608,263L623,269L629,282L639,284L656,290L668,297L674,293L680,287L677,277L681,270L689,263L697,261L713,264L717,271L722,271L725,273L737,275L740,279L736,286L738,292L735,300L738,311L738,358Z" fill="#E0E0E0" stroke="#fff" stroke-width=".4"/><path d="M1007,577L973,612L958,613L947,621L940,622L937,625L929,625L924,621L913,626L910,631L902,630L899,629L896,629L893,629L878,619L870,619L866,615L866,608L859,606L852,594L847,591L845,586L839,580L832,579L836,573L842,572L844,569L844,558L847,545L853,542L854,537L859,528L866,522L871,510L873,500L886,502L890,493L897,499L904,496L907,498L915,499L925,503L928,508L934,511L939,519L943,522L938,528L934,533L935,537L936,540L942,541L945,540L948,542L945,546L949,553L954,559L958,563L997,577Z" fill="#E0E0E0" stroke="#fff" stroke-width=".4"/><path d="M662,115L652,109L647,102L643,98L637,92L635,87L629,80L632,73L636,76L638,73L644,73L654,75L662,75L668,79L672,79L669,86L675,92L673,100L670,101L668,102L664,106Z" fill="#E0E0E0" stroke="#fff" stroke-width=".4"/><path d="M707,120L713,125L714,136L712,136L710,139L703,139L699,142L691,143L686,140L685,133L686,128L688,128L688,124L695,122L698,121L702,120Z" fill="#E0E0E0" stroke="#fff" stroke-width=".4"/><path d="M665,61L674,57L682,58L688,64L690,70L697,73L698,80L704,85L708,81L711,84L708,86L711,89L708,93L709,99L714,106L710,111L708,116L709,118L707,120L702,120L698,121L697,120L699,118L700,114L698,114L696,111L694,111L693,108L690,107L689,105L687,106L685,111L682,112L683,111L679,108L675,106L673,104L670,101L673,100L675,92L669,86L672,79L668,79L672,73L668,68Z" fill="#E0E0E0" stroke="#fff" stroke-width=".4"/><path d="M680,116L677,117L676,114L671,122L672,127L669,126L666,121L661,118L662,115L664,106L668,102L670,101L673,104L675,106L679,108L683,111L682,112Z" fill="#E0E0E0" stroke="#fff" stroke-width=".4"/><path d="M686,128L685,122L683,120L680,116L682,112L685,111L687,106L689,105L690,107L693,108L694,111L696,111L698,114L700,114L699,118L697,120L698,121L695,122L688,124L688,128Z" fill="#E0E0E0" stroke="#fff" stroke-width=".4"/></g><g clip-path="url(#v)"><path d="M462.4,176.7L462.1,176.9L461.3,176.7L460.2,176.7L460.1,176.1L460.3,175.7L460.5,175.2L461.2,176.1L462.4,176.3ZM480.6,159.7L481.8,160.2L483.0,159.8L483.6,159.9L484.2,160.1L484.4,161.1L483.8,162.2L483.1,163.3L482.4,164.5L481.8,165.9L480.8,166.7L479.8,167.2L477.8,166.2L476.6,165.9L476.2,165.5L475.9,164.0L475.4,163.5L474.6,163.3L473.9,163.7L473.0,164.5L472.5,163.7L471.8,163.5L471.5,163.0L471.5,162.4L476.4,158.7L477.8,157.9L480.8,156.9L481.3,157.1L480.9,157.7L480.9,157.9L481.3,158.2L481.2,158.6L480.8,159.0ZM494.2,158.9L494.0,159.1L490.3,157.3L489.2,157.1L488.9,156.9L488.9,155.9L489.0,155.5L491.4,155.3L493.4,156.0L494.4,157.8L494.5,158.1ZM460.6,173.0L460.2,173.9L458.4,173.6L458.0,173.2L458.4,172.1L458.9,172.0L458.9,171.3L459.5,170.5L462.0,169.9L462.6,170.4L462.7,171.2L461.2,172.8ZM422.4,102.7L422.5,103.3L422.9,104.0L423.4,104.3L424.4,104.7L425.2,104.8L426.3,105.0L427.0,105.4L427.0,106.1L426.8,106.9L426.4,107.6L426.1,108.1L426.4,108.4L426.8,108.7L427.2,108.7L427.5,108.7L427.7,108.2L428.0,107.7L428.3,107.7L428.3,107.9L428.4,108.3L429.7,108.9L432.6,110.1L433.7,110.1L434.6,110.3L434.9,110.7L436.7,112.5L437.1,112.5L437.9,112.5L438.9,112.4L439.6,112.0L440.0,112.1L440.6,112.4L441.2,112.7L442.0,113.3L442.6,114.0L443.1,114.3L445.9,113.8L446.6,114.2L447.3,114.2L448.0,114.1L449.7,114.3L451.0,114.3L451.2,114.1L451.3,112.5L451.5,111.9L451.8,111.8L452.6,111.9L455.5,112.8L456.7,113.4L457.8,113.9L458.8,113.9L459.5,114.2L460.4,115.8L460.3,116.5L460.3,116.8L460.4,117.3L460.4,117.9L460.7,118.3L461.1,118.4L461.7,118.2L462.3,118.0L463.4,117.4L463.7,117.2L465.5,118.0L466.3,118.5L466.6,119.0L467.0,119.5L467.5,119.6L468.3,119.1L469.5,118.5L471.6,119.0L473.9,119.8L474.8,119.9L474.9,119.5L475.0,119.0L475.4,118.8L476.0,118.7L476.8,118.4L477.7,118.0L478.6,117.8L479.5,118.1L480.7,118.4L481.4,118.4L481.7,119.4L482.3,119.8L482.5,120.7L481.5,121.1L480.9,121.2L480.7,122.7L481.0,123.1L481.6,123.5L481.7,123.9L481.9,126.1L480.7,127.5L479.0,128.9L470.8,133.7L468.8,136.0L468.1,136.5L462.1,137.9L457.8,139.5L455.7,140.0L453.2,142.7L452.0,143.7L453.0,144.0L454.1,145.3L453.7,145.9L452.1,146.7L451.4,147.0L451.0,146.9L450.6,147.0L447.9,151.6L445.4,154.9L444.1,156.3L442.7,158.4L439.8,163.8L439.7,165.4L441.2,170.8L442.0,172.2L443.2,173.4L445.4,174.4L445.9,175.4L445.2,176.3L443.0,178.0L439.1,180.3L437.5,182.0L437.1,183.8L436.0,184.5L435.6,186.9L434.9,188.5L434.7,189.0L434.0,190.2L433.9,191.1L435.1,192.3L434.5,192.8L433.9,193.1L432.5,193.2L428.0,193.3L424.3,195.9L422.4,198.2L420.8,202.4L418.7,204.9L417.8,205.4L416.4,204.3L414.7,204.1L413.0,204.5L412.1,205.4L410.7,205.8L409.4,205.4L406.5,205.2L405.2,205.3L403.1,205.9L401.4,205.5L398.5,205.3L392.1,205.8L391.4,206.1L390.6,207.1L388.5,208.9L385.5,209.0L382.7,210.1L382.0,210.9L380.8,212.9L380.4,214.3L380.2,214.4L379.9,214.0L379.4,214.1L379.2,215.2L378.2,215.7L377.3,215.9L375.2,215.0L373.4,213.6L372.4,213.6L370.9,211.4L370.2,210.1L369.8,208.6L369.9,208.1L369.7,207.6L368.4,207.0L368.0,205.6L369.1,203.9L369.9,203.1L370.4,202.9L369.1,203.0L368.2,204.1L367.1,202.3L362.5,198.8L362.8,198.0L362.7,197.5L362.0,198.5L361.4,198.7L359.0,198.6L356.3,199.0L355.6,195.3L355.3,193.9L355.2,193.0L355.9,190.9L356.7,190.0L357.7,188.2L359.0,186.7L360.3,186.4L360.9,186.1L361.3,185.0L361.6,184.0L361.4,183.9L359.9,184.1L357.1,180.0L357.2,179.3L357.5,178.3L357.8,177.1L357.8,176.1L358.5,175.2L359.6,174.4L360.6,173.2L361.0,172.0L361.2,170.9L360.6,170.1L359.1,169.7L357.5,166.6L357.2,164.7L356.8,164.5L355.9,163.6L354.9,161.9L354.8,161.7L355.8,161.4L359.7,161.4L360.6,161.0L360.7,160.9L361.4,159.6L362.2,157.4L362.4,156.1L362.1,155.6L360.8,154.3L360.7,153.9L360.9,153.3L361.7,152.6L362.8,151.9L363.4,151.2L363.2,150.7L362.9,150.1L362.9,149.7L363.1,149.0L363.1,146.9L363.3,146.4L363.1,144.5L362.8,142.9L362.0,140.9L362.1,140.4L362.5,140.0L363.7,139.3L364.8,137.6L366.3,136.2L368.2,135.1L369.5,133.9L370.0,132.9L370.4,132.6L370.3,132.2L370.0,131.5L369.3,130.9L368.3,130.6L367.2,130.6L366.5,130.4L366.3,129.9L366.4,128.6L366.3,127.2L366.1,126.6L365.6,126.2L364.6,126.3L363.7,125.9L363.1,125.8L362.7,126.1L360.8,126.0L360.0,125.8L359.4,125.6L359.0,125.7L358.8,126.0L358.8,126.4L358.7,126.9L357.9,127.4L356.4,127.9L355.1,127.8L353.9,127.5L353.5,127.2L353.0,127.0L350.6,127.3L350.3,127.1L349.5,127.6L348.2,128.2L347.5,128.2L347.3,128.1L347.2,127.8L346.7,126.9L346.8,126.4L347.8,125.0L347.7,124.6L347.3,124.2L347.0,123.5L346.8,123.1L346.2,123.1L345.6,123.4L343.0,124.2L342.4,124.4L341.3,125.1L340.2,126.2L339.3,126.4L339.0,126.1L338.9,123.6L340.3,121.9L341.2,120.9L340.8,120.7L339.7,120.7L339.8,119.9L340.3,119.6L340.8,118.7L340.2,118.3L339.8,117.8L339.8,116.3L339.9,115.7L339.8,115.1L337.7,115.9L337.2,115.8L337.2,114.7L338.3,113.0L338.4,112.5L337.1,112.3L336.1,111.4L335.5,110.7L334.8,109.6L334.8,108.7L335.5,106.5L336.4,105.8L337.3,105.4L339.1,103.9L341.5,104.2L343.0,103.8L344.4,103.1L345.2,102.9L346.4,102.2L346.4,101.3L345.9,100.5L346.3,99.9L347.7,99.1L349.3,98.0L351.1,97.8L352.9,96.9L354.1,97.5L355.2,97.3L356.4,98.0L358.0,99.6L360.4,100.3L362.3,99.8L365.6,99.7L367.3,99.9L370.3,99.5L372.0,99.6L374.7,98.8L376.9,99.8L381.0,100.3L383.4,101.2L390.3,102.5L392.8,102.6L396.3,101.8L397.8,101.2L399.1,101.6L401.1,100.9L402.1,101.0L403.3,102.0L407.7,103.3L408.9,102.2L409.7,101.9L412.9,102.6L416.0,104.0L417.7,104.1L420.1,103.7L422.1,102.8ZM251.1,322.5L250.2,325.6L249.2,326.8L248.7,327.2L247.3,327.5L245.7,325.6L244.9,323.7L244.4,323.1L245.2,322.6L246.2,322.7L248.5,322.3L249.0,322.1L251.3,320.1L253.6,319.9L253.7,320.5ZM282.0,315.4L281.2,316.3L280.3,316.0L280.7,314.0L281.1,313.4L282.8,312.6L284.1,312.2L284.5,311.4L285.0,311.0L285.5,311.5L285.1,312.2L284.8,314.1L283.9,314.7ZM276.3,325.3L274.7,326.9L273.1,326.5L272.9,326.3L274.5,325.9L275.9,324.7L276.8,322.2L278.3,319.3L278.6,318.1L279.2,317.7L280.0,317.6L280.3,317.7L280.7,318.3L280.7,319.8L280.3,322.1L279.5,324.2ZM262.2,325.6L262.1,326.7L262.3,327.7L262.3,329.3L261.7,330.1L260.3,331.0L259.2,330.8L258.5,330.5L257.4,329.1L257.3,327.7L258.4,326.7L258.8,325.6L261.5,325.8L261.8,325.6L262.0,325.5ZM241.1,327.3L240.7,327.4L240.1,327.1L239.5,326.0L239.9,325.3L240.2,324.9L240.8,325.0L241.8,325.5L242.1,326.1L242.1,326.5ZM232.9,330.1L231.7,332.3L230.3,331.5L229.9,331.2L229.6,330.8L231.0,330.7L232.4,329.6ZM233.5,321.0L233.2,321.1L232.9,320.0L231.5,317.5L232.4,316.3L233.9,316.3L234.6,317.1L234.8,317.9L234.5,318.4L234.6,319.4L234.4,320.0Z" fill="#4ECDC4" stroke="#2C3E50" stroke-width="1"/></g><circle cx="400.0" cy="150.0" r="4" fill="#E74C3C" stroke="#fff" stroke-width="2"/><text x="400.0" y="140.0" text-anchor="middle" font-family="sans-serif" font-weight="700" font-size="10" fill="#2D3436">Madrid</text></svg>