<svg viewBox="0 0 800 300" xmlns="http://www.w3.org/2000/svg"><defs><clipPath id="v"><rect width="800" height="300"/></clipPath></defs><rect width="800" height="300" fill="#DCEEF8"/><g clip-path="url(#v)"><path d="M1828,425L1830,423L1834,426L1832,432L1826,433L1820,432L1819,427L1823,424ZM1847,415L1841,417L1834,420L1833,416L1838,414L1841,413L1847,410L1847,410L1847,415ZM-1841,410L-1841,410L-1841,410L-1839,409L-1840,414L-1841,415L-1841,415L-1841,410Z" fill="#E0E0E0" stroke="#fff" stroke-width=".4"/><path d="M350,253L352,254L389,275L390,280L405,291L400,303L401,309L407,313L407,316L405,322L405,325L404,330L408,337L412,347L416,349L408,355L397,359L391,359L387,362L380,362L377,364L365,361L357,362L354,347L351,343L349,340L339,338L333,335L326,333L322,331L318,329L312,316L306,310L304,304L305,298L304,289L308,288L312,285L316,279L318,277L318,274L316,272L315,268L318,266L319,260L315,254L318,253L329,253Z" fill="#E0E0E0" stroke="#fff" stroke-width=".4"/><path d="M-86,-52L-86,-51L-86,-49L-86,-32L-120,-32L-119,-4L-129,-3L-131,3L-129,19L-170,19L-172,23L-171,18L-171,18L-148,17L-147,13L-143,8L-139,-7L-125,-19L-120,-34L-117,-34L-114,-43L-105,-45L-101,-43L-97,-43L-93,-46L-87,-46L-87,-52Z" fill="#E0E0E0" stroke="#fff" stroke-width=".4"/><path d="M576,-223L576,-275L602,-283L604,-282L620,-271L629,-266L638,-253L650,-255L668,-256L680,-246L679,-232L684,-232L686,-221L700,-220L702,-214L706,-214L711,-224L724,-233L730,-236L733,-234L724,-226L732,-220L739,-224L751,-217L738,-207L731,-208L726,-208L725,-212L727,-218L713,-215L710,-206L705,-199L697,-199L694,-194L701,-190L704,-181L698,-168L690,-170L685,-170L685,-178L671,-184L660,-190L654,-197L642,-206L637,-220L634,-222L622,-222L619,-224L617,-235L604,-243L595,-235L586,-230L588,-223Z" fill="#E0E0E0" stroke="#fff" stroke-width=".4"/><path d="M1448,269L1448,303L1448,337L1439,328L1428,326L1426,329L1413,329L1417,321L1424,318L1421,307L1416,298L1396,289L1388,289L1372,279L1369,284L1365,285L1363,281L1363,277L1355,272L1366,268L1374,268L1373,265L1358,265L1354,259L1345,257L1340,252L1354,250L1359,247L1376,251L1377,255L1380,271L1391,277L1399,266L1411,260L1420,260L1429,264L1437,267ZM1283,334L1284,336L1285,339L1278,347L1269,350L1268,348L1269,345L1273,338ZM1378,314L1377,306L1379,302L1381,299L1383,302L1383,307ZM1211,200L1205,210L1212,219L1211,224L1222,234L1210,235L1207,242L1207,251L1197,258L1197,268L1193,284L1191,280L1180,285L1176,279L1168,278L1163,275L1151,278L1147,273L1141,274L1132,273L1131,259L1126,256L1121,248L1119,239L1120,229L1127,222L1128,229L1135,235L1142,233L1148,234L1154,228L1159,227L1169,230L1177,228L1183,214L1187,210L1190,199L1202,199ZM1328,272L1340,275L1343,282L1335,278L1326,277L1320,278L1313,278L1316,272ZM1303,282L1296,280L1294,275L1304,275L1307,278ZM1314,221L1314,226L1320,227L1321,231L1321,240L1316,239L1314,245L1318,251L1315,252L1311,246L1308,232L1310,224ZM1262,234L1274,233L1284,226L1286,228L1278,238L1270,240L1260,238L1243,239L1234,240L1233,248L1242,257L1248,253L1267,249L1266,254L1261,252L1257,258L1248,262L1258,275L1256,279L1265,291L1265,298L1259,301L1255,297L1260,289L1250,293L1248,290L1249,286L1242,280L1242,270L1236,273L1236,285L1237,300L1230,301L1226,298L1229,289L1227,279L1223,279L1220,272L1224,265L1225,257L1231,241L1233,237L1242,229L1250,232ZM1235,348L1222,341L1231,339L1237,342L1240,345L1240,348ZM1246,331L1253,330L1262,326L1261,332L1245,335L1232,333L1232,330L1240,327ZM1215,329L1221,328L1223,332L1212,334L1205,336L1199,336L1203,330L1208,330L1211,326ZM1114,309L1116,312L1136,313L1138,309L1157,314L1160,321L1176,323L1188,329L1177,333L1165,329L1156,329L1146,328L1136,326L1124,322L1117,321L1112,323L1094,318L1092,314L1082,313L1090,303L1102,304L1110,308ZM1072,254L1074,261L1078,267L1085,268L1090,274L1088,287L1087,303L1076,303L1067,294L1054,286L1050,280L1042,271L1037,264L1029,249L1020,241L1017,232L1013,224L1004,218L999,209L991,203L980,192L979,187L986,187L1002,189L1011,199L1019,206L1024,210L1034,221L1045,221L1053,228L1059,237L1067,242L1063,250L1069,254Z" fill="#E0E0E0" stroke="#fff" stroke-width=".4"/><path d="M304,289L305,298L304,304L306,310L312,316L318,329L314,327L300,329L297,330L294,337L297,342L295,354L294,364L296,366L304,370L306,369L307,380L299,380L295,374L291,369L284,368L281,363L275,366L267,364L263,360L257,359L252,359L252,356L248,355L243,355L237,356L233,356L230,357L231,345L227,341L226,334L228,328L226,324L226,318L213,318L214,314L209,314L208,316L202,316L199,322L198,325L192,323L189,325L182,326L178,320L176,317L173,311L170,303L140,303L136,304L133,304L129,305L128,302L130,301L131,297L132,294L136,292L139,293L142,289L148,289L149,292L152,294L158,287L164,282L167,279L167,271L171,261L176,255L183,250L184,247L184,243L186,240L185,234L186,225L188,219L191,213L192,207L193,200L197,194L202,191L211,195L217,198L225,199L233,201L236,195L237,194L242,196L253,190L257,193L260,192L262,190L266,189L274,190L280,190L283,189L290,198L294,199L297,197L302,198L307,196L310,200L319,207L318,219L322,220L319,224L315,227L311,232L309,237L309,245L306,249L306,257L303,259L303,265L301,266L300,272L303,277Z" fill="#E0E0E0" stroke="#fff" stroke-width=".4"/><path d="M429,260L423,252L423,214L432,203L435,199L441,199L450,192L464,191L493,161L500,152L504,146L504,140L504,130L504,125L504,125L508,125L512,123L518,122L523,119L527,119L527,122L526,128L526,133L524,137L521,148L516,160L510,173L501,188L492,200L480,214L470,222L455,232L445,240L434,252L431,258Z" fill="#E0E0E0" stroke="#fff" stroke-width=".4"/><path d="M405,291L390,280L389,275L352,254L350,253L350,242L353,238L358,231L362,223L357,211L356,206L351,199L358,193L365,186L370,188L370,194L373,197L381,197L394,206L397,206L399,206L401,207L408,208L411,203L421,199L425,203L432,203L423,214L423,252L429,260L422,264L419,268L416,269L414,276L411,281L409,287Z" fill="#E0E0E0" stroke="#fff" stroke-width=".4"/><path d="M255,158L247,154L243,151L243,147L244,143L244,139L238,132L237,128L237,125L234,122L234,116L231,112L228,113L229,109L231,105L230,100L234,97L232,94L234,88L239,80L248,81L247,38L247,34L259,34L259,12L300,12L340,12L381,12L384,22L382,24L383,36L387,49L391,51L397,55L391,61L384,63L381,66L380,74L375,89L376,93L375,103L370,113L364,118L360,126L359,130L354,133L351,144L351,153L351,145L350,145L350,140L349,136L343,132L342,125L343,117L338,116L338,119L332,119L334,122L335,129L329,134L324,142L319,143L310,137L306,139L305,142L300,144L300,146L290,146L288,144L281,144L277,145L274,144L269,138L267,136L260,137L257,142L254,151L251,153L248,154Z" fill="#E0E0E0" stroke="#fff" stroke-width=".4"/><path d="M247,38L248,81L239,80L234,88L232,94L234,97L230,100L231,105L229,109L228,113L231,112L234,116L234,122L237,125L237,128L231,130L226,134L218,145L209,150L199,149L196,150L197,154L191,158L187,162L174,166L172,163L170,163L168,166L160,167L161,164L158,157L156,152L152,151L146,144L148,140L153,141L156,140L161,140L156,131L156,124L156,117L152,110L153,105L146,105L146,98L142,94L146,80L159,70L160,56L164,34L166,29L162,26L162,22L158,19L155,2L165,-4L206,17Z" fill="#E0E0E0" stroke="#fff" stroke-width=".4"/><path d="M170,549L175,543L179,546L181,551L186,552L192,554L198,553L207,547L207,505L210,507L216,517L215,524L217,528L224,527L229,522L234,519L237,513L242,511L246,512L251,515L259,516L266,513L267,509L269,504L274,503L277,499L281,491L290,483L305,475L309,475L314,477L317,476L323,477L327,492L330,500L328,513L329,517L324,515L321,516L320,519L317,523L317,527L323,534L330,532L332,527L339,527L337,536L336,545L333,551L326,556L324,558L320,564L317,570L311,579L299,591L292,599L284,604L274,609L268,609L267,613L261,611L256,613L245,611L239,613L234,612L224,617L215,619L209,623L204,624L200,619L196,619L192,614L191,615L190,612L190,605L187,597L190,594L190,585L183,574L178,564L178,564ZM300,553L295,549L291,552L285,556L280,564L287,573L291,572L293,568L299,566L300,562L303,556Z" fill="#E0E0E0" stroke="#fff" stroke-width=".4"/><path d="M-526,200L-532,210L-535,217L-539,221L-544,222L-546,219L-548,218L-551,221L-556,219L-553,215L-552,210L-550,206L-554,200L-555,193L-550,184L-546,185L-539,187L-528,196ZM66,-342L71,-338L86,-335L81,-324L80,-313L77,-311L72,-312L72,-308L65,-300L65,-293L70,-296L73,-289L73,-285L76,-279L72,-275L75,-264L80,-262L79,-256L70,-248L50,-252L35,-247L34,-239L22,-237L10,-243L6,-240L-12,-247L-16,-252L-11,-261L-9,-289L-20,-305L-27,-313L-43,-319L-44,-330L-31,-333L-14,-329L-17,-347L-7,-340L17,-353L20,-366L29,-369L30,-363L35,-363L40,-357L47,-349L52,-350L61,-343L63,-342ZM93,-241L99,-246L101,-234L98,-224L93,-226L91,-236Z" fill="#E0E0E0" stroke="#fff" stroke-width=".4"/><path d="M323,477L317,476L314,477L309,475L305,475L298,470L290,468L287,461L287,457L283,456L271,444L268,438L266,436L262,427L273,429L277,430L280,430L286,423L295,414L298,413L300,409L305,405L313,404L314,408L322,407L327,410L329,412L334,413L340,417L340,430L338,438L337,446L339,449L338,455L336,456L333,464Z" fill="#E0E0E0" stroke="#fff" stroke-width=".4"/><path d="M305,475L290,483L281,491L277,499L274,503L269,504L267,509L266,513L259,516L251,515L246,512L242,511L237,513L234,519L229,522L224,527L217,528L215,524L216,517L210,507L207,505L207,472L217,472L217,433L225,433L241,429L245,433L251,429L254,429L260,427L262,427L266,436L268,438L271,444L283,456L287,457L287,461L290,468L298,470Z" fill="#E0E0E0" stroke="#fff" stroke-width=".4"/><path d="M207,505L207,547L198,553L192,554L186,552L181,551L179,546L175,543L170,549L163,540L159,531L157,520L154,512L151,495L150,481L149,475L145,471L140,462L134,448L132,442L124,431L123,423L128,421L134,419L141,419L147,424L149,423L190,423L197,428L222,430L241,425L249,423L256,423L260,426L260,427L254,429L251,429L245,433L241,429L225,433L217,433L217,472L207,472Z" fill="#E0E0E0" stroke="#fff" stroke-width=".4"/><path d="M-168,102L-172,94L-178,90L-173,88L-168,81L-166,75L-162,72L-157,73L-152,70L-146,70L-141,73L-135,76L-128,84L-122,91L-121,98L-119,104L-115,107L-114,111L-115,114L-116,115L-122,114L-123,115L-125,115L-132,113L-137,113L-156,112L-159,114L-162,113L-168,115L-170,107L-160,107L-158,106L-156,106L-152,103L-148,105L-143,106L-139,103L-141,100L-144,102L-147,102L-152,99L-155,99L-157,102Z" fill="#E0E0E0" stroke="#fff" stroke-width=".4"/><path d="M-115,114L-114,111L-115,107L-119,104L-121,98L-122,91L-118,89L-117,83L-113,83L-106,86L-100,84L-96,85L-95,82L-54,82L-51,75L-53,73L-58,27L-63,-21L-47,-22L-13,3L22,27L24,32L30,35L35,37L35,44L47,43L47,68L41,75L40,81L31,83L17,84L13,88L7,88L0,88L-2,86L-8,88L-17,92L-19,95L-27,100L-29,103L-33,105L-38,103L-41,106L-42,113L-50,122L-50,125L-53,130L-52,136L-57,138L-59,139L-61,134L-64,136L-65,135L-67,138L-75,138L-78,137L-79,138L-82,135L-82,132L-83,130L-85,131L-85,128L-83,125L-87,121L-88,118L-91,116L-93,115L-95,117L-98,118L-101,121L-106,120L-108,117L-110,117L-113,118L-114,118Z" fill="#E0E0E0" stroke="#fff" stroke-width=".4"/><path d="M-172,23L-170,19L-129,19L-131,3L-129,-3L-119,-4L-120,-32L-86,-32L-86,-49L-47,-22L-63,-21L-58,27L-53,73L-51,75L-54,82L-95,82L-96,85L-100,84L-106,86L-113,83L-117,83L-118,89L-122,91L-128,84L-135,76L-141,73L-146,70L-152,70L-157,73L-162,72L-166,75L-167,70L-164,64L-162,54L-164,43L-165,38L-164,33L-166,27Z" fill="#E0E0E0" stroke="#fff" stroke-width=".4"/><path d="M31,179L22,180L20,173L20,149L18,147L18,142L14,138L11,135L12,129L16,128L18,124L23,123L25,120L29,117L32,116L40,122L40,126L42,132L40,136L41,139L36,146L33,149L31,155L31,162Z" fill="#E0E0E0" stroke="#fff" stroke-width=".4"/><path d="M155,2L158,19L162,22L162,26L166,29L164,34L160,56L159,70L146,80L142,94L146,98L146,105L153,105L152,110L149,111L148,114L146,114L139,103L137,102L129,108L121,105L116,104L113,106L107,106L101,110L95,110L83,105L78,107L73,107L69,103L59,99L48,101L45,103L44,109L41,113L40,122L32,116L29,117L25,120L25,112L13,110L13,105L7,98L6,93L7,88L13,88L17,84L31,83L40,81L41,75L47,68L47,43L61,38L91,16L126,-5L142,0L148,6Z" fill="#E0E0E0" stroke="#fff" stroke-width=".4"/><path d="M31,179L31,162L31,155L33,149L36,146L41,139L40,136L42,132L40,126L40,122L41,113L44,109L45,103L48,101L59,99L69,103L73,107L78,107L83,105L95,110L101,110L107,106L113,106L116,104L121,105L129,108L137,102L139,103L146,114L148,114L152,118L151,120L151,123L142,131L139,138L138,144L136,146L134,153L128,157L127,163L124,167L123,171L116,175L111,170L107,171L101,177L98,177L93,187L90,194L79,198L76,197L72,199L63,199L58,193L55,185L47,178L40,179Z" fill="#E0E0E0" stroke="#fff" stroke-width=".4"/><path d="M152,110L156,117L156,124L156,131L161,140L156,140L153,141L148,140L146,144L152,151L156,152L158,157L161,164L160,167L154,177L152,179L151,187L152,191L151,194L156,200L157,203L161,209L166,212L166,217L167,220L166,225L158,223L150,220L137,220L136,219L130,220L123,219L119,220L102,219L103,211L99,205L95,203L93,198L90,197L90,194L93,187L98,177L101,177L107,171L111,170L116,175L123,171L124,167L127,163L128,157L134,153L136,146L138,144L139,138L142,131L151,123L151,120L152,118L148,114L149,111Z" fill="#E0E0E0" stroke="#fff" stroke-width=".4"/><path d="M12,129L11,135L14,138L18,142L18,147L20,149L20,173L22,180L14,182L12,178L9,172L8,167L10,157L8,154L7,145L7,138L3,132L3,129Z" fill="#E0E0E0" stroke="#fff" stroke-width=".4"/><path d="M3,129L3,132L7,138L7,145L8,154L10,157L8,167L9,172L12,178L14,182L-2,188L-8,192L-17,194L-26,192L-26,187L-30,179L-28,167L-23,158L-26,144L-27,136L-27,130L-9,129L-5,130L-1,128Z" fill="#E0E0E0" stroke="#fff" stroke-width=".4"/><path d="M-79,138L-78,137L-75,138L-67,138L-65,135L-64,136L-61,134L-59,139L-57,138L-52,136L-48,138L-46,142L-41,144L-38,141L-33,141L-26,144L-23,158L-28,167L-30,179L-26,187L-26,192L-31,192L-38,190L-45,190L-57,192L-64,195L-74,198L-76,198L-75,190L-74,188L-75,184L-79,180L-82,179L-85,176L-83,172L-84,167L-83,164L-82,164L-81,159L-82,157L-81,156L-77,155L-80,146L-82,142L-81,138Z" fill="#E0E0E0" stroke="#fff" stroke-width=".4"/><path d="M-137,113L-132,113L-125,115L-123,115L-122,114L-116,115L-115,114L-114,118L-113,118L-110,117L-108,117L-106,120L-101,121L-98,118L-95,117L-93,115L-91,116L-88,118L-87,121L-83,125L-85,128L-85,131L-83,130L-82,132L-82,135L-79,138L-81,138L-82,142L-80,146L-77,155L-81,156L-82,157L-81,159L-82,164L-83,164L-86,164L-88,168L-91,168L-93,165L-93,161L-97,155L-100,156L-102,156L-105,157L-105,153L-106,150L-106,147L-108,143L-111,139L-119,139L-121,141L-124,142L-126,144L-127,147L-133,151L-137,145L-141,141L-144,140L-146,138L-148,133L-149,131L-152,129L-147,124L-144,124L-142,122L-139,122L-138,121L-139,117L-138,116Z" fill="#E0E0E0" stroke="#fff" stroke-width=".4"/><path d="M-168,115L-162,113L-159,114L-156,112L-137,113L-138,116L-139,117L-138,121L-139,122L-142,122L-144,124L-147,124L-152,129L-157,125L-162,124L-164,121L-164,119L-167,117Z" fill="#E0E0E0" stroke="#fff" stroke-width=".4"/><path d="M-83,164L-84,167L-83,172L-85,176L-82,179L-79,180L-75,184L-74,188L-75,190L-76,198L-79,198L-89,193L-99,185L-107,180L-114,173L-112,170L-111,167L-107,161L-102,156L-100,156L-97,155L-93,161L-93,165L-91,168L-88,168L-86,164Z" fill="#E0E0E0" stroke="#fff" stroke-width=".4"/><path d="M-133,151L-127,147L-126,144L-124,142L-121,141L-119,139L-111,139L-108,143L-106,147L-106,150L-105,153L-105,157L-102,156L-107,161L-111,167L-112,170L-114,173L-117,172L-124,168L-130,163L-131,159Z" fill="#E0E0E0" stroke="#fff" stroke-width=".4"/><path d="M-52,136L-53,130L-50,125L-50,122L-42,113L-41,106L-38,103L-33,105L-29,103L-27,100L-19,95L-17,92L-8,88L-2,86L0,88L7,88L6,93L7,98L13,105L13,110L25,112L25,120L23,123L18,124L16,128L12,129L3,129L-1,128L-5,130L-9,129L-27,130L-27,136L-26,144L-33,141L-38,141L-41,144L-46,142L-48,138Z" fill="#E0E0E0" stroke="#fff" stroke-width=".4"/><path d="M283,189L280,190L274,190L266,189L262,190L260,192L257,193L253,190L242,196L237,194L236,195L233,201L225,199L217,198L211,195L202,191L197,194L193,200L192,207L185,206L179,205L172,210L167,220L166,217L166,212L161,209L157,203L156,200L151,194L152,191L151,187L152,179L154,177L160,167L168,166L170,163L172,163L174,166L187,162L191,158L197,154L196,150L199,149L209,150L218,145L226,134L231,130L237,128L238,132L244,139L244,143L243,147L243,151L247,154L255,158L260,162L260,166L267,171L272,176L274,182L282,186Z" fill="#E0E0E0" stroke="#fff" stroke-width=".4"/><path d="M192,207L191,213L188,219L186,225L185,234L186,240L184,243L184,247L183,250L176,255L171,261L167,271L167,279L164,282L158,287L152,294L149,292L148,289L142,289L139,293L136,292L132,288L129,290L125,294L117,284L124,278L121,271L124,269L131,267L132,263L137,268L146,268L149,263L151,256L150,248L145,242L149,231L147,228L139,229L136,224L137,220L150,220L158,223L166,225L167,220L172,210L179,205L185,206Z" fill="#E0E0E0" stroke="#fff" stroke-width=".4"/><path d="M119,220L123,219L130,220L136,219L137,220L136,224L139,229L147,228L149,231L145,242L150,248L151,256L149,263L146,268L137,268L132,263L131,267L124,269L121,271L124,278L117,284L106,273L99,265L93,254L93,251L96,248L98,240L100,232L104,232L119,232Z" fill="#E0E0E0" stroke="#fff" stroke-width=".4"/><path d="M102,219L119,220L119,232L104,232L100,232L98,231Z" fill="#E0E0E0" stroke="#fff" stroke-width=".4"/><path d="M318,329L322,331L326,333L333,335L339,338L343,342L346,351L344,354L342,363L344,371L341,375L338,385L343,387L312,396L313,404L305,405L300,409L298,413L295,414L286,423L280,430L277,430L273,429L262,427L260,427L260,426L256,423L249,423L241,425L234,418L227,410L228,376L249,376L248,373L250,369L248,364L249,359L248,355L252,356L252,359L257,359L263,360L267,364L275,366L281,363L284,368L291,369L295,374L299,380L307,380L306,369L304,370L296,366L294,364L295,354L297,342L294,337L297,330L300,329L314,327Z" fill="#E0E0E0" stroke="#fff" stroke-width=".4"/><path d="M339,338L349,340L351,343L354,347L357,362L354,370L357,383L361,383L364,386L369,394L369,408L365,410L362,417L355,411L354,403L357,398L356,394L352,391L349,392L343,387L338,385L341,375L344,371L342,363L344,354L346,351L343,342Z" fill="#E0E0E0" stroke="#fff" stroke-width=".4"/><path d="M357,362L365,361L377,364L380,362L387,362L391,359L397,359L408,355L416,349L418,354L417,364L419,373L419,390L421,395L418,403L414,410L407,417L398,421L386,426L375,437L371,439L364,447L359,450L359,457L363,466L365,472L366,475L367,475L367,486L365,491L368,493L366,498L362,502L354,505L341,512L337,516L338,520L340,521L339,527L332,527L331,522L329,517L328,513L330,500L327,492L323,477L333,464L336,456L338,455L339,449L337,446L338,438L340,430L340,417L334,413L329,412L327,410L322,407L314,408L313,404L312,396L343,387L349,392L352,391L356,394L357,398L354,403L355,411L362,417L365,410L369,408L369,394L364,386L361,383L357,383L354,370Z" fill="#E0E0E0" stroke="#fff" stroke-width=".4"/><path d="M136,292L132,294L131,297L130,301L128,302L125,294L129,290L132,288ZM129,305L133,304L136,304L140,303L170,303L173,311L176,317L178,320L182,326L189,325L192,323L198,325L199,322L202,316L208,316L209,314L214,314L213,318L226,318L226,324L228,328L226,334L227,341L231,345L230,357L233,356L237,356L243,355L248,355L249,359L248,364L250,369L248,373L249,376L228,376L227,410L234,418L241,425L222,430L197,428L190,423L149,423L147,424L141,419L134,419L128,421L123,423L122,416L124,407L127,397L128,392L131,383L134,379L139,372L143,367L144,359L143,353L140,350L137,343L135,337L135,335L139,331L136,321L133,314L128,307Z" fill="#E0E0E0" stroke="#fff" stroke-width=".4"/><path d="M315,268L316,272L318,274L318,277L316,279L312,285L308,288L304,289L303,277L300,272L307,273L310,267Z" fill="#E0E0E0" stroke="#fff" stroke-width=".4"/><path d="M369,-112L367,-108L363,-110L361,-102L364,-101L361,-99L361,-96L366,-97L366,-93L361,-74L360,-77L354,-94L357,-98L356,-99L359,-104L361,-114L363,-117L363,-117L366,-117L367,-119L370,-119L370,-114L369,-112Z" fill="#E0E0E0" stroke="#fff" stroke-width=".4"/><path d="M370,-119L367,-119L366,-117L363,-117L367,-127L372,-136L372,-136L376,-135L378,-130L373,-126Z" fill="#E0E0E0" stroke="#fff" stroke-width=".4"/><path d="M511,372L513,376L516,383L517,396L520,401L519,406L517,409L514,403L512,406L514,414L513,418L510,421L509,430L505,442L500,457L494,478L490,494L486,507L477,509L468,514L462,511L454,507L451,501L451,491L447,483L446,475L448,467L453,465L453,461L458,453L459,446L456,441L454,434L453,424L457,418L458,411L463,411L469,409L473,407L477,407L483,400L492,394L495,389L493,384L498,385L503,378L504,372L507,367Z" fill="#E0E0E0" stroke="#fff" stroke-width=".4"/><path d="M366,-97L361,-96L361,-99L364,-101L361,-102L363,-110L367,-108L367,-101Z" fill="#E0E0E0" stroke="#fff" stroke-width=".4"/><path d="M-168,102L-157,102L-155,99L-152,99L-147,102L-144,102L-141,100L-139,103L-143,106L-148,105L-152,103L-156,106L-158,106L-160,107L-170,107Z" fill="#E0E0E0" stroke="#fff" stroke-width=".4"/><path d="M100,-83L96,-105L89,-110L89,-113L81,-120L80,-129L86,-136L89,-146L87,-159L89,-165L100,-170L108,-169L107,-162L116,-167L117,-164L112,-158L112,-152L115,-149L114,-138L107,-132L109,-125L114,-125L117,-119L121,-117L120,-108L115,-105L112,-101L105,-96L106,-91L105,-86Z" fill="#E0E0E0" stroke="#fff" stroke-width=".4"/><path d="M-86,-49L-86,-51L-86,-52L-86,-66L-69,-75L-59,-76L-51,-80L-47,-86L-35,-90L-34,-99L-28,-100L-24,-105L-10,-107L-9,-111L-11,-114L-15,-127L-15,-135L-19,-143L-9,-149L2,-152L8,-157L18,-161L35,-163L52,-164L57,-162L67,-167L78,-167L82,-164L89,-165L87,-159L89,-146L86,-136L80,-129L81,-120L89,-113L89,-110L96,-105L100,-83L103,-73L104,-67L102,-58L103,-53L102,-46L103,-39L98,-34L105,-26L105,-21L109,-15L113,-17L121,-12L126,-5L91,16L61,38L47,43L35,44L35,37L30,35L24,32L22,27L-13,3L-47,-22Z" fill="#E0E0E0" stroke="#fff" stroke-width=".4"/><path d="M367,-108L369,-112L380,-107L400,-120L405,-106L403,-104L382,-98L392,-86L389,-84L387,-80L379,-78L377,-74L373,-70L361,-72L361,-74L366,-93L366,-97L367,-101Z" fill="#E0E0E0" stroke="#fff" stroke-width=".4"/><path d="M531,-13L533,-14L534,-11L542,-13L550,-12L556,-12L563,-20L571,-27L577,-34L579,-30L581,-21L576,-21L575,-14L577,-12L572,-10L572,-5L569,-1L569,4L567,6L536,1L532,-11Z" fill="#E0E0E0" stroke="#fff" stroke-width=".4"/><path d="M524,-19L523,-27L526,-33L528,-35L532,-31L532,-24L529,-18L527,-17Z" fill="#E0E0E0" stroke="#fff" stroke-width=".4"/><path d="M495,-79L497,-74L496,-71L499,-63L492,-62L489,-68L480,-69L488,-80Z" fill="#E0E0E0" stroke="#fff" stroke-width=".4"/><path d="M405,-106L400,-120L423,-133L427,-148L426,-158L432,-161L437,-169L441,-171L453,-169L457,-166L462,-168L468,-153L475,-149L476,-142L471,-137L468,-128L475,-116L488,-109L493,-100L492,-91L495,-91L495,-85L501,-79L495,-79L488,-80L480,-69L461,-70L432,-94L417,-102Z" fill="#E0E0E0" stroke="#fff" stroke-width=".4"/><path d="M569,4L569,-1L572,-5L572,-10L577,-12L575,-14L576,-21L581,-21L585,-13L591,-9L599,-8L605,-6L609,1L612,4L616,6L616,8L612,15L610,18L606,21L602,29L598,28L595,31L594,36L595,44L594,45L589,45L583,49L582,54L580,57L573,57L569,59L569,64L564,67L559,66L552,69L547,70L544,62L536,44L566,34L573,12ZM579,-30L577,-34L580,-38L582,-37L581,-32Z" fill="#E0E0E0" stroke="#fff" stroke-width=".4"/><path d="M1029,29L1023,32L1017,36L1010,37L1005,49L1001,50L1006,60L1012,68L1016,75L1013,84L1009,86L1011,91L1018,100L1019,106L1019,111L1023,120L1018,130L1013,141L1012,133L1015,125L1011,119L1012,107L1008,102L1005,89L1003,76L998,67L992,72L980,80L974,79L968,76L972,63L969,53L961,40L963,37L957,35L949,26L949,17L952,19L952,11L958,9L956,4L959,0L959,-11L967,-9L972,-18L972,-24L978,-33L978,-40L991,-48L998,-46L997,-53L1001,-55L1000,-59L1006,-60L1010,-53L1014,-51L1014,-42L1014,-32L1004,-23L1003,-9L1014,-11L1016,-1L1023,1L1020,10L1027,14L1032,17L1039,13L1040,18L1031,25Z" fill="#E0E0E0" stroke="#fff" stroke-width=".4"/><path d="M1000,-59L1001,-55L997,-53L998,-46L991,-48L978,-40L978,-33L972,-24L972,-18L967,-9L959,-11L959,0L956,4L958,9L952,11L947,-6L944,-6L943,1L937,-5L940,-11L945,-12L949,-22L943,-24L934,-23L924,-25L923,-33L918,-33L910,-38L907,-31L914,-25L908,-20L905,-16L912,-13L910,-6L914,2L915,11L914,15L907,15L894,17L895,25L889,32L874,39L863,52L855,59L845,66L845,71L840,73L831,77L826,78L823,86L825,100L826,108L821,118L821,136L816,137L811,145L814,148L805,151L802,158L797,161L788,151L783,137L779,126L775,121L770,111L767,98L766,91L756,77L752,56L749,42L749,29L747,19L732,25L725,24L712,11L717,7L713,2L701,-7L708,-15L731,-15L729,-24L723,-30L722,-39L715,-44L726,-56L738,-55L749,-67L756,-79L765,-91L765,-100L774,-107L766,-113L762,-121L759,-132L764,-137L779,-134L791,-136L800,-147L811,-132L810,-122L815,-116L814,-109L807,-111L810,-98L820,-90L834,-82L827,-76L824,-65L833,-61L843,-55L856,-49L871,-47L876,-42L884,-40L897,-38L905,-38L906,-42L905,-50L906,-55L912,-57L913,-48L913,-46L922,-41L929,-43L938,-42L946,-43L947,-50L942,-54L951,-55L960,-64L972,-71L980,-68L988,-73L993,-66L989,-61Z" fill="#E0E0E0" stroke="#fff" stroke-width=".4"/><path d="M952,11L952,19L949,17L949,26L946,21L946,15L944,10L940,3L930,3L931,7L928,13L924,11L922,13L919,12L915,11L914,2L910,-6L912,-13L905,-16L908,-20L914,-25L907,-31L910,-38L918,-33L923,-33L924,-25L934,-23L943,-24L949,-22L945,-12L940,-11L937,-5L943,1L944,-6L947,-6Z" fill="#E0E0E0" stroke="#fff" stroke-width=".4"/><path d="M942,-54L947,-50L946,-43L938,-42L929,-43L922,-41L913,-46L913,-48L920,-57L925,-60L933,-57L938,-57Z" fill="#E0E0E0" stroke="#fff" stroke-width=".4"/><path d="M906,-55L905,-50L906,-42L905,-38L897,-38L884,-40L876,-42L871,-47L856,-49L843,-55L833,-61L824,-65L827,-76L834,-82L838,-85L846,-81L857,-73L863,-72L866,-66L874,-64L882,-59L894,-56Z" fill="#E0E0E0" stroke="#fff" stroke-width=".4"/><path d="M800,-147L791,-136L779,-134L764,-137L759,-132L762,-121L766,-113L774,-107L765,-100L765,-91L756,-79L749,-67L738,-55L726,-56L715,-44L722,-39L723,-30L729,-24L731,-15L708,-15L701,-7L694,-10L691,-18L683,-27L664,-25L647,-24L633,-23L637,-36L652,-42L651,-47L646,-49L646,-59L636,-64L632,-71L627,-78L644,-72L654,-73L660,-72L662,-74L669,-73L683,-78L683,-88L689,-95L696,-95L698,-99L705,-100L709,-99L713,-102L713,-110L717,-117L723,-120L719,-128L729,-128L732,-132L732,-137L737,-142L736,-149L733,-154L739,-159L750,-162L762,-164L767,-166L773,-167L781,-161L784,-152Z" fill="#E0E0E0" stroke="#fff" stroke-width=".4"/><path d="M685,-170L690,-170L698,-168L701,-166L708,-170L712,-168L715,-174L721,-173L723,-175L724,-180L728,-185L734,-182L733,-178L736,-177L735,-167L739,-162L743,-165L747,-166L754,-172L761,-171L771,-171L773,-167L767,-166L762,-164L750,-162L739,-159L733,-154L736,-149L737,-142L732,-137L732,-132L729,-128L719,-128L723,-120L717,-117L713,-110L713,-102L709,-99L705,-100L698,-99L696,-95L689,-95L683,-88L683,-78L669,-73L662,-74L660,-72L654,-73L644,-72L627,-78L636,-88L635,-96L627,-98L627,-106L623,-115L628,-122L623,-124L626,-133L630,-149L641,-144L648,-145L650,-151L659,-153L664,-157L666,-167L675,-170L677,-174L681,-171Z" fill="#E0E0E0" stroke="#fff" stroke-width=".4"/><path d="M698,-168L704,-181L701,-190L694,-194L697,-199L705,-199L710,-206L713,-215L727,-218L725,-212L726,-208L731,-208L727,-204L716,-206L715,-199L726,-200L738,-195L758,-197L760,-185L764,-187L770,-184L770,-179L771,-171L761,-171L754,-172L747,-166L743,-165L739,-162L735,-167L736,-177L733,-178L734,-182L728,-185L724,-180L723,-175L721,-173L715,-174L712,-168L708,-170L701,-166Z" fill="#E0E0E0" stroke="#fff" stroke-width=".4"/><path d="M730,-236L732,-242L739,-244L756,-239L757,-247L763,-250L778,-244L782,-246L799,-246L814,-244L819,-239L825,-237L824,-234L808,-226L804,-221L791,-219L787,-211L776,-213L769,-210L759,-204L761,-201L758,-197L738,-195L726,-200L715,-199L716,-206L727,-204L731,-208L738,-207L751,-217L739,-224L732,-220L724,-226L733,-234Z" fill="#E0E0E0" stroke="#fff" stroke-width=".4"/><path d="M541,-229L545,-234L557,-237L564,-233L571,-222L576,-223L588,-223L586,-230L595,-235L604,-243L617,-235L619,-224L622,-222L634,-222L637,-220L642,-206L654,-197L660,-190L671,-184L685,-178L685,-170L681,-171L677,-174L675,-170L666,-167L664,-157L659,-153L650,-151L648,-145L641,-144L630,-149L629,-159L622,-160L610,-171L602,-172L590,-179L583,-180L579,-178L572,-178L564,-171L555,-168L554,-177L555,-191L547,-196L550,-205L543,-205L545,-217L555,-214L564,-218L556,-226L553,-234L545,-230L544,-220Z" fill="#E0E0E0" stroke="#fff" stroke-width=".4"/><path d="M501,-79L495,-85L495,-91L492,-91L493,-100L488,-109L475,-116L468,-128L471,-137L476,-142L475,-149L468,-153L462,-168L456,-178L458,-182L455,-197L462,-201L464,-196L469,-190L476,-188L479,-189L492,-198L495,-199L498,-196L495,-189L501,-182L504,-183L507,-173L517,-171L524,-164L538,-162L554,-165L555,-168L564,-171L572,-178L579,-178L583,-180L590,-179L602,-172L610,-171L622,-160L629,-159L630,-149L626,-133L623,-124L628,-122L623,-115L627,-106L627,-98L635,-96L636,-88L627,-78L632,-71L636,-64L646,-59L646,-49L651,-47L652,-42L637,-36L633,-23L614,-26L603,-29L591,-30L587,-44L582,-46L574,-44L564,-39L551,-43L541,-51L531,-55L524,-66L516,-81L511,-79L504,-83Z" fill="#E0E0E0" stroke="#fff" stroke-width=".4"/><path d="M369,-112L369,-112L370,-114L370,-119L373,-126L378,-130L376,-135L372,-136L371,-146L373,-151L376,-154L379,-156L379,-163L383,-161L394,-164L399,-162L408,-162L420,-167L425,-167L437,-169L432,-161L426,-158L427,-148L423,-133L400,-120L380,-107Z" fill="#E0E0E0" stroke="#fff" stroke-width=".4"/><path d="M479,-189L476,-188L472,-196L472,-198L467,-198L464,-202L462,-201L458,-205L450,-208L451,-215L450,-220L464,-222L466,-218L470,-216L468,-213L473,-208L470,-204L475,-200L479,-198Z" fill="#E0E0E0" stroke="#fff" stroke-width=".4"/><path d="M272,-144L271,-140L256,-139L256,-141L244,-144L246,-149L251,-145L259,-146L267,-145L267,-143ZM238,-223L246,-223L254,-226L261,-222L270,-223L271,-230L276,-226L272,-218L270,-216L264,-217L258,-218L246,-214L253,-207L248,-205L242,-205L237,-211L235,-208L237,-200L242,-194L238,-191L244,-185L249,-182L249,-174L240,-178L243,-171L236,-170L240,-158L233,-158L225,-164L221,-174L219,-183L215,-189L210,-196L209,-200L214,-207L215,-211L218,-213L218,-216L225,-218L229,-221L234,-220L236,-223Z" fill="#E0E0E0" stroke="#fff" stroke-width=".4"/><path d="M462,-168L457,-166L453,-169L441,-171L437,-169L425,-167L420,-167L408,-162L399,-162L394,-164L383,-161L379,-163L379,-156L376,-154L373,-151L370,-157L373,-161L367,-160L359,-163L352,-156L336,-154L328,-161L317,-162L314,-156L307,-155L297,-162L286,-161L280,-174L273,-181L278,-192L271,-198L282,-211L298,-211L303,-221L322,-220L334,-229L346,-232L363,-233L381,-223L396,-218L408,-220L417,-219L429,-226L440,-226L450,-220L451,-215L450,-208L458,-205L462,-201L455,-197L458,-182L456,-178ZM271,-230L281,-234L290,-232L291,-227L300,-223L298,-219L286,-218L282,-214L273,-207L270,-213L270,-216L272,-218L276,-226Z" fill="#E0E0E0" stroke="#fff" stroke-width=".4"/><path d="M-90,-231L-86,-234L-82,-236L-79,-229L-73,-229L-71,-231L-65,-231L-62,-224L-67,-220L-67,-209L-69,-208L-69,-201L-74,-200L-70,-192L-73,-184L-69,-180L-70,-176L-74,-171L-73,-167L-77,-164L-83,-165L-88,-164L-87,-174L-88,-182L-92,-183L-95,-188L-94,-197L-90,-202L-89,-207L-87,-215L-87,-221L-89,-226Z" fill="#E0E0E0" stroke="#fff" stroke-width=".4"/><path d="M-73,-167L-74,-171L-70,-176L-69,-180L-73,-184L-70,-192L-74,-200L-69,-201L-69,-208L-67,-209L-67,-220L-62,-224L-65,-231L-71,-231L-73,-229L-79,-229L-82,-236L-86,-234L-90,-231L-89,-240L-93,-246L-79,-257L-66,-254L-52,-254L-42,-252L-33,-252L-16,-252L-12,-247L6,-240L10,-243L22,-237L34,-239L34,-231L24,-222L11,-219L10,-214L4,-207L0,-196L4,-188L-2,-182L-4,-174L-12,-171L-19,-162L-32,-161L-42,-162L-48,-157L-52,-152L-57,-153L-61,-158L-64,-165Z" fill="#E0E0E0" stroke="#fff" stroke-width=".4"/><path d="M841,166L839,176L835,179L826,182L821,173L819,158L824,142L831,147L836,155Z" fill="#E0E0E0" stroke="#fff" stroke-width=".4"/><path d="M1125,53L1116,50L1116,40L1121,36L1132,32L1138,33L1140,37L1136,42L1133,48ZM825,-237L824,-245L831,-249L822,-273L843,-279L848,-282L855,-309L876,-304L881,-311L882,-326L890,-328L898,-338L902,-339L905,-328L913,-320L928,-315L935,-302L931,-285L935,-279L947,-276L961,-274L973,-265L979,-264L984,-251L990,-242L1001,-243L1023,-239L1036,-241L1046,-239L1061,-231L1074,-231L1078,-227L1090,-234L1107,-239L1122,-239L1134,-244L1142,-252L1149,-257L1147,-261L1144,-267L1149,-276L1155,-275L1165,-272L1176,-280L1191,-285L1199,-295L1206,-299L1221,-301L1229,-299L1230,-305L1221,-315L1213,-320L1205,-315L1195,-317L1189,-315L1186,-321L1193,-337L1198,-349L1211,-343L1225,-353L1225,-360L1234,-377L1240,-382L1240,-392L1234,-396L1243,-404L1255,-407L1269,-408L1284,-403L1293,-396L1300,-379L1304,-372L1307,-362L1311,-347L1329,-342L1341,-330L1345,-316L1361,-316L1369,-322L1386,-327L1381,-313L1377,-307L1373,-291L1367,-277L1354,-279L1345,-274L1348,-262L1347,-245L1341,-245L1341,-238L1335,-246L1331,-238L1315,-232L1317,-225L1308,-225L1303,-230L1296,-220L1284,-213L1276,-204L1262,-200L1254,-194L1243,-190L1249,-197L1247,-202L1255,-211L1249,-218L1240,-213L1229,-204L1222,-195L1212,-194L1207,-188L1213,-179L1221,-177L1221,-172L1229,-168L1241,-177L1250,-172L1257,-172L1258,-165L1244,-161L1239,-154L1229,-148L1224,-139L1235,-132L1239,-120L1245,-109L1252,-100L1252,-91L1245,-88L1248,-81L1254,-78L1252,-68L1250,-59L1244,-58L1236,-45L1228,-30L1219,-17L1205,-6L1190,3L1179,4L1172,9L1169,6L1163,11L1149,17L1138,18L1135,30L1129,31L1126,23L1129,18L1115,15L1110,17L1100,14L1095,9L1096,3L1087,1L1082,-3L1073,3L1063,4L1055,4L1050,7L1044,8L1046,21L1041,20L1040,18L1039,13L1032,17L1027,14L1020,10L1023,1L1016,-1L1014,-11L1003,-9L1004,-23L1014,-32L1014,-42L1014,-51L1010,-53L1006,-60L1000,-59L989,-61L993,-66L988,-73L980,-68L972,-71L960,-64L951,-55L942,-54L938,-57L933,-57L925,-60L920,-57L913,-48L912,-57L906,-55L894,-56L882,-59L874,-64L866,-66L863,-72L857,-73L846,-81L838,-85L834,-82L820,-90L810,-98L807,-111L814,-109L815,-116L810,-122L811,-132L800,-147L784,-152L781,-161L773,-167L771,-171L770,-179L770,-184L764,-187L760,-185L758,-197L761,-201L759,-204L769,-210L776,-213L787,-211L791,-219L804,-221L808,-226L824,-234Z" fill="#E0E0E0" stroke="#fff" stroke-width=".4"/><path d="M110,-302L116,-300L117,-303L128,-306L130,-301L144,-297L143,-289L146,-283L138,-285L129,-280L130,-273L129,-269L132,-262L142,-254L147,-243L158,-232L166,-232L169,-229L166,-226L175,-221L182,-217L191,-210L192,-207L190,-203L185,-209L176,-211L172,-202L179,-197L178,-190L173,-190L168,-178L164,-177L164,-181L166,-188L168,-191L164,-199L161,-206L157,-207L154,-213L147,-216L143,-221L135,-222L127,-228L118,-237L111,-245L108,-259L102,-261L94,-265L89,-263L83,-257L79,-256L80,-262L75,-264L72,-275L76,-279L73,-285L73,-289L78,-286L82,-287L88,-292L90,-289L95,-290L97,-296L105,-294L109,-296ZM154,-181L162,-182L158,-171L160,-167L158,-161L150,-166L145,-167L130,-174L132,-180L144,-179ZM92,-217L97,-221L103,-212L102,-194L97,-195L93,-191L89,-194L89,-210L87,-218Z" fill="#E0E0E0" stroke="#fff" stroke-width=".4"/><path d="M478,-230L481,-230L488,-221L493,-221L495,-224L501,-230L506,-222L511,-213L516,-212L519,-208L511,-207L509,-197L507,-192L504,-189L504,-183L501,-182L495,-189L498,-196L495,-199L492,-198L479,-189L479,-198L475,-200L470,-204L473,-208L468,-213L470,-216L466,-218L464,-222L466,-224L474,-220L479,-219L481,-221L476,-228ZM476,-188L469,-190L464,-196L462,-201L464,-202L467,-198L472,-198L472,-196Z" fill="#E0E0E0" stroke="#fff" stroke-width=".4"/><path d="M376,93L375,89L380,74L381,66L384,63L391,61L397,55L402,68L405,78L411,83L425,93L431,99L436,105L439,108L444,112L441,114L437,113L433,110L429,104L425,100L422,97L413,92L406,92L404,90L398,93L391,88L388,96Z" fill="#E0E0E0" stroke="#fff" stroke-width=".4"/><path d="M536,44L544,62L547,70L540,73L538,77L537,81L527,85L511,90L502,98L497,98L494,98L488,102L482,104L473,105L470,105L468,108L465,109L464,112L459,111L456,113L448,112L446,106L446,100L444,97L442,89L439,85L442,85L440,80L442,78L441,73L446,70L445,65L447,60L452,63L454,62L466,61L468,62L478,64L482,63L485,67L489,65L497,53L506,49Z" fill="#E0E0E0" stroke="#fff" stroke-width=".4"/><path d="M361,-72L373,-70L377,-74L379,-78L387,-80L389,-84L392,-86L382,-98L403,-104L405,-106L417,-102L432,-94L461,-70L480,-69L489,-68L492,-62L499,-63L503,-53L508,-50L510,-46L517,-41L517,-36L516,-33L518,-29L521,-26L522,-22L524,-19L527,-17L529,-18L531,-13L532,-11L536,1L567,6L569,4L573,12L566,34L536,44L506,49L497,53L489,65L485,67L482,63L478,64L468,62L466,61L454,62L452,63L447,60L445,65L446,70L441,73L440,68L437,65L436,61L431,57L425,48L422,39L415,32L411,30L404,19L403,12L403,5L397,-7L393,-11L387,-14L384,-20L384,-23L381,-29L378,-31L374,-40L368,-49L363,-57L358,-57L359,-63L360,-67Z" fill="#E0E0E0" stroke="#fff" stroke-width=".4"/><path d="M338,-142L339,-142L341,-145L348,-145L357,-149L350,-144L351,-141L350,-142L348,-141L346,-141L346,-140L346,-142L345,-142L343,-143L340,-142Z" fill="#E0E0E0" stroke="#fff" stroke-width=".4"/><path d="M338,-142L340,-142L343,-143L345,-142L346,-142L346,-140L346,-141L348,-141L350,-142L351,-141L351,-140L341,-135L336,-137L333,-142Z" fill="#E0E0E0" stroke="#fff" stroke-width=".4"/><path d="M-19,-143L-15,-135L-15,-127L-11,-114L-9,-111L-10,-107L-24,-105L-28,-100L-34,-99L-35,-90L-47,-86L-51,-80L-59,-76L-69,-75L-86,-66L-86,-52L-87,-52L-87,-46L-93,-46L-97,-43L-101,-43L-105,-45L-114,-43L-117,-34L-120,-34L-125,-19L-139,-7L-143,8L-147,13L-148,17L-171,18L-171,18L-171,13L-167,10L-164,4L-164,0L-161,-8L-155,-15L-152,-16L-149,-23L-149,-29L-145,-36L-138,-40L-132,-52L-131,-52L-126,-57L-117,-58L-109,-66L-104,-69L-95,-79L-98,-94L-94,-104L-92,-110L-86,-119L-75,-124L-68,-129L-61,-142L-58,-150L-50,-150L-44,-145L-34,-145L-24,-143Z" fill="#E0E0E0" stroke="#fff" stroke-width=".4"/><path d="M381,12L340,12L300,12L259,12L259,-30L259,-71L256,-80L259,-87L257,-93L261,-98L274,-99L284,-95L294,-92L299,-90L307,-94L311,-97L320,-98L328,-97L330,-91L333,-95L341,-92L349,-91L354,-94L360,-77L361,-74L358,-69L356,-60L353,-54L351,-52L347,-56L342,-61L335,-78L334,-77L338,-64L345,-53L352,-35L356,-29L359,-22L369,-10L367,-8L367,-1L379,9Z" fill="#E0E0E0" stroke="#fff" stroke-width=".4"/><path d="M259,12L259,34L247,34L247,38L206,17L165,-4L155,2L148,6L142,0L126,-5L121,-12L113,-17L109,-15L105,-21L105,-26L98,-34L103,-39L102,-46L103,-53L102,-58L104,-67L103,-73L100,-83L105,-86L106,-91L105,-96L112,-101L115,-105L120,-108L121,-117L133,-113L137,-114L146,-112L159,-107L164,-96L173,-94L188,-89L199,-83L204,-86L208,-91L206,-101L209,-106L217,-112L224,-114L238,-111L241,-106L245,-106L248,-104L258,-102L261,-98L257,-93L259,-87L256,-80L259,-71L259,-30Z" fill="#E0E0E0" stroke="#fff" stroke-width=".4"/><path d="M437,113L441,114L444,112L447,115L446,119L441,122L445,125L441,130L439,128L437,129L431,129L431,126L430,123L433,118Z" fill="#E0E0E0" stroke="#fff" stroke-width=".4"/><path d="M504,125L504,125L504,130L504,140L504,146L500,152L493,161L484,161L450,148L447,145L443,140L439,134L441,130L445,125L448,126L450,131L455,135L460,135L470,133L481,131L490,128L495,127L499,125Z" fill="#E0E0E0" stroke="#fff" stroke-width=".4"/><path d="M350,253L329,253L318,253L315,254L309,258L306,257L306,249L309,245L309,237L311,232L315,227L319,224L322,220L318,219L319,207L323,204L330,206L338,204L345,204L351,199L356,206L357,211L362,223L358,231L353,238L350,242Z" fill="#E0E0E0" stroke="#fff" stroke-width=".4"/><path d="M315,254L319,260L318,266L315,268L310,267L307,273L300,272L301,266L303,265L303,259L306,257L309,258Z" fill="#E0E0E0" stroke="#fff" stroke-width=".4"/><path d="M319,207L310,200L307,196L302,198L297,197L294,199L290,198L283,189L282,186L274,182L272,176L267,171L260,166L260,162L255,158L248,154L251,153L254,151L257,142L260,137L267,136L269,138L274,144L277,145L281,144L288,144L290,146L300,146L300,144L305,142L306,139L310,137L319,143L324,142L329,134L335,129L334,122L332,119L338,119L338,116L343,117L342,125L343,132L349,136L350,140L350,145L351,145L351,153L350,157L344,157L341,163L347,164L352,169L354,173L359,175L365,186L358,193L351,199L345,204L338,204L330,206L323,204Z" fill="#E0E0E0" stroke="#fff" stroke-width=".4"/></g><g clip-path="url(#v)"><path d="M364.3,186.4L364.2,186.3L363.3,185.5L362.4,184.6L361.9,183.5L361.4,182.7L361.2,180.7L360.5,179.6L359.9,178.1L359.0,175.4L358.6,174.4L357.9,173.8L357.1,173.2L356.3,172.0L354.2,170.9L353.4,170.0L352.0,168.6L351.6,167.8L351.6,167.1L351.1,166.4L350.3,165.6L347.9,164.0L347.2,163.8L346.4,163.6L345.1,163.4L343.4,163.0L341.9,162.4L341.2,161.9L341.1,161.6L341.2,161.1L341.8,160.2L342.8,158.0L343.5,156.5L344.0,156.0L345.3,155.9L346.7,156.0L347.7,156.1L349.1,156.1L350.9,156.0L351.5,155.5L352.1,154.9L352.3,154.5L352.4,153.6L352.4,152.8L352.3,149.8L352.2,147.9L352.1,145.8L352.2,145.4L352.2,144.9L352.6,142.6L353.0,141.3L353.2,140.7L354.3,138.5L354.5,137.8L354.6,137.2L354.1,134.3L354.8,133.0L355.8,131.6L356.5,131.0L357.2,130.7L357.5,130.8L358.2,131.4L359.2,132.0L359.7,131.9L360.4,131.4L360.9,130.8L360.8,129.8L361.3,127.7L361.2,126.5L361.7,125.0L362.2,122.9L362.4,121.6L362.7,120.9L364.2,119.4L365.4,117.3L366.2,115.8L367.7,113.3L368.5,112.4L369.1,112.0L370.0,111.8L371.7,111.5L372.9,111.3L373.1,111.0L373.2,110.5L373.2,109.4L373.5,107.5L374.0,105.6L374.6,104.2L375.0,103.5L375.4,102.9L375.8,101.9L376.4,99.6L376.4,98.0L377.2,95.2L377.4,95.2L378.8,94.7L380.1,94.6L381.5,94.9L382.3,95.0L382.7,94.9L383.1,94.4L383.4,93.6L384.0,93.2L384.7,93.1L385.7,94.0L387.3,96.3L387.7,96.4L387.9,96.3L388.7,94.5L389.3,93.1L390.5,90.4L391.1,88.9L391.7,89.3L392.4,90.1L393.0,90.5L393.8,90.7L394.1,90.7L394.6,91.1L396.2,92.9L396.7,93.4L397.5,93.4L400.7,92.8L402.5,91.7L402.8,91.3L403.3,91.3L403.9,91.8L404.2,92.2L404.6,92.9L405.3,92.9L407.1,92.5L408.0,92.2L408.8,92.5L409.7,92.6L410.3,92.6L411.7,93.3L413.5,93.1L414.3,93.1L415.1,93.4L416.4,94.3L418.2,95.5L420.7,96.4L421.2,96.7L422.4,98.1L424.3,100.7L426.8,103.2L429.5,105.1L430.9,106.5L431.9,108.2L432.8,109.7L433.8,110.3L434.7,110.9L435.6,112.0L436.3,113.0L437.2,114.1L436.2,115.5L434.8,117.5L433.3,119.9L432.8,120.4L431.4,121.8L431.2,122.2L430.9,123.3L430.9,125.1L431.1,127.4L431.2,129.6L432.0,129.9L432.9,130.0L433.8,129.7L435.0,129.5L436.5,129.3L438.1,128.9L439.0,128.5L440.0,128.6L440.9,129.0L441.3,129.3L442.0,129.4L442.7,129.4L442.6,129.8L442.1,130.4L441.6,131.0L441.1,131.6L440.0,133.3L440.0,133.6L440.2,133.9L440.7,134.7L441.3,136.0L441.7,137.1L441.9,137.7L442.7,138.4L443.7,139.7L444.2,140.6L445.4,141.1L445.8,142.2L446.6,143.9L447.6,145.2L448.5,146.3L449.5,146.7L449.9,146.7L452.0,148.6L453.6,150.1L454.0,150.4L456.9,151.3L460.3,152.4L462.9,153.3L466.3,154.5L469.7,155.6L472.9,156.6L477.3,158.1L480.9,159.3L483.7,160.3L484.3,160.6L487.7,160.6L491.1,160.6L494.6,160.6L492.0,163.1L489.2,165.8L486.1,168.7L484.2,170.6L481.2,173.6L478.6,176.1L476.0,178.8L473.6,181.2L470.5,184.6L468.5,186.8L465.4,190.3L463.4,192.4L463.1,192.5L460.3,192.4L457.6,192.2L454.1,192.0L453.7,192.0L452.7,192.2L452.0,192.4L449.5,193L449.0,193.1L447.0,194.1L444.8,195.2L443.7,196.0L442.8,197.2L442.5,198.1L442.1,198.4L441.4,198.8L436.9,199.6L435.6,199.7L433.6,200.4L432.4,201.5L432.1,202.0L430.6,202.0L428.0,202.2L426.9,202.3L426.3,202.4L425.3,202.4L424.5,202.2L423.9,201.9L423.3,201.2L421.8,199.8L420.6,199.0L418.2,200.0L416.0,200.9L412.9,202.3L411.2,203.3L410.6,204.3L409.3,206.1L408.1,207.2L407.6,207.4L404.9,207.1L403.9,206.9L402.2,206.7L400.0,206.3L398.6,205.9L396.9,205.8L394.6,205.7L393.2,205.4L391.8,204.4L389.9,203.2L388.0,201.9L386.0,200.6L383.7,199.2L381.1,197.6L380.5,197.4L380.3,197.4L377.5,197.3L374.6,197.2L372.7,197.2L372.1,197.0L371.6,196.6L371,195.4L370.3,194.6L369.4,193.5L369.3,192.0L369.6,190.4L369.8,189.9L369.7,189.4L369.7,188.6L369.2,188.0L366.4,187.2L365.9,187.3L365.5,187.5L364.9,187.8L364.5,187.6L364.3,187.3L364.3,186.8Z" fill="#4ECDC4" stroke="#2C3E50" stroke-width="1"/></g><circle cx="400.0" cy="150.0" r="4" fill="#E74C3C" stroke="#fff" stroke-width="2"/><text x="400.0" y="140.0" text-anchor="middle" font-family="sans-serif" font-weight="700" font-size="10" fill="#2D3436">Addis Ababa</text></svg>