<svg viewBox="0 0 800 300" xmlns="http://www.w3.org/2000/svg"><defs><clipPath id="v"><rect width="800" height="300"/></clipPath></defs><rect width="800" height="300" fill="#DCEEF8"/><g clip-path="url(#v)"><path d="M237,378L237,378L237,379L237,388L221,387L221,401L217,402L215,404L216,412L197,412L196,414L196,411L197,411L207,411L208,409L210,407L212,399L218,394L221,387L222,386L224,382L228,382L230,382L232,382L233,381L236,381L236,378Z" fill="#E0E0E0" stroke="#fff" stroke-width=".4"/><path d="M-317,244L-318,244L-327,237L-331,234L-339,230L-342,224L-341,219L-348,215L-348,209L-354,203L-354,199L-352,194L-352,189L-360,183L-365,173L-368,167L-373,163L-376,159L-378,154L-383,157L-388,162L-392,156L-396,152L-400,149L-405,149L-405,87L-405,39L-396,43L-388,49L-383,51L-379,45L-373,41L-366,42L-359,36L-351,33L-347,38L-344,35L-343,28L-339,30L-331,43L-325,33L-324,44L-318,41L-316,37L-310,38L-303,44L-292,49L-285,51L-280,50L-274,57L-280,64L-272,66L-259,65L-254,63L-249,70L-244,64L-249,58L-246,54L-240,53L-236,52L-232,55L-227,62L-222,61L-213,67L-206,65L-199,65L-199,57L-195,55L-187,59L-187,71L-184,61L-180,62L-178,48L-183,40L-189,34L-189,18L-183,7L-177,9L-172,16L-165,33L-169,40L-160,42L-160,56L-154,46L-148,54L-150,64L-145,73L-140,63L-136,52L-136,37L-129,38L-122,40L-115,47L-115,54L-119,61L-115,68L-116,74L-125,82L-132,84L-137,81L-139,87L-143,97L-145,102L-150,109L-157,110L-161,115L-161,122L-167,123L-173,131L-178,143L-180,151L-180,162L-173,163L-171,172L-169,179L-162,177L-153,181L-148,184L-145,188L-139,191L-133,194L-125,195L-120,196L-121,203L-119,211L-116,220L-109,228L-105,225L-102,217L-105,204L-108,200L-101,196L-95,190L-92,184L-93,178L-96,170L-102,163L-96,153L-98,144L-100,128L-97,126L-88,129L-83,130L-79,127L-75,131L-69,137L-67,140L-59,141L-59,149L-57,162L-53,163L-49,169L-42,163L-38,153L-34,148L-31,157L-24,169L-19,180L-21,185L-14,190L-10,195L-2,197L1,200L3,207L7,208L8,211L9,220L5,223L2,226L-6,229L-12,235L-20,236L-31,235L-38,235L-43,235L-47,240L-53,244L-60,253L-66,260L-62,259L-54,249L-44,243L-37,243L-32,246L-37,251L-35,259L-34,264L-28,268L-20,267L-15,259L-14,264L-11,266L-17,271L-28,275L-33,278L-38,283L-42,282L-42,276L-34,271L-41,271L-47,272L-50,268L-50,258L-52,256L-55,257L-57,256L-61,261L-62,266L-64,270L-66,271L-67,271L-68,273L-77,273L-84,273L-86,274L-92,279L-92,279L-94,282L-98,282L-103,282L-105,283L-104,284L-104,286L-104,287L-110,290L-115,291L-121,295L-122,295L-124,294L-124,293L-124,292L-123,290L-121,286L-120,282L-121,277L-122,270L-127,267L-126,266L-127,265L-128,265L-129,264L-129,262L-130,263L-132,263L-131,262L-132,261L-133,259L-137,257L-141,255L-145,252L-150,249L-154,251L-156,252L-162,250L-166,251L-170,248L-175,247L-179,247L-180,245L-181,241L-183,241L-183,244L-193,244L-209,244L-226,244L-240,244L-255,244L-269,244L-284,244L-289,244L-303,244ZM-129,127L-125,122L-118,122L-118,124L-124,130L-127,130ZM-108,-7L-113,-16L-113,-22L-111,-24L-100,-22L-91,-12L-91,-8L-96,-8L-101,-9L-107,-6ZM-111,131L-109,128L-107,128L-106,130L-108,135L-110,135L-111,131ZM-175,-46L-178,-38L-185,-40L-191,-45L-188,-53L-181,-58L-177,-52ZM-176,-98L-179,-97L-188,-98L-189,-105L-179,-104L-176,-100ZM-190,-127L-185,-118L-186,-110L-193,-105L-197,-110L-199,-119L-200,-130L-193,-129ZM-149,-35L-157,-37L-169,-43L-171,-53L-172,-63L-177,-72L-187,-74L-192,-81L-190,-90L-180,-88L-175,-81L-165,-81L-161,-74L-162,-67L-157,-62L-154,-58L-147,-57L-140,-55L-132,-59L-123,-61L-115,-60L-109,-52L-108,-44L-111,-40L-119,-36L-125,-38L-139,-35ZM-261,-112L-254,-108L-256,-102L-265,-95L-272,-102L-268,-110ZM-259,-128L-253,-123L-259,-118L-267,-118L-267,-122L-262,-129ZM9,227L7,232L3,238L7,236L10,237L8,240L12,242L15,240L20,242L18,248L21,247L22,250L24,255L21,261L19,261L16,260L17,254L16,253L10,260L7,259L11,256L6,254L1,255L-9,254L-9,252L-6,250L-8,248L-4,243L1,231L4,227L8,224L10,225ZM-128,98L-123,102L-117,105L-117,110L-113,110L-110,113L-114,117L-122,114L-124,109L-129,115L-136,121L-138,114L-144,115L-140,110L-139,101L-138,90L-134,91L-133,96L-131,95ZM-103,-0L-99,-7L-88,2L-81,9L-81,16L-72,12L-66,22L-55,28L-51,34L-46,47L-55,53L-43,62L-36,64L-29,76L-21,77L-23,85L-31,99L-37,94L-45,83L-51,84L-52,91L-47,98L-40,103L-38,106L-35,117L-36,125L-43,122L-55,113L-48,122L-43,129L-42,132L-55,128L-66,122L-72,117L-70,114L-77,108L-84,103L-84,106L-98,108L-102,104L-99,95L-90,95L-80,94L-81,90L-80,84L-74,72L-75,66L-77,62L-84,55L-94,51L-91,47L-96,39L-100,38L-104,33L-107,37L-116,39L-133,36L-143,32L-151,29L-155,24L-150,18L-157,17L-159,2L-155,-13L-150,-20L-137,-24L-141,-13L-137,-3L-133,-16L-120,-23L-112,-6L-113,5ZM-180,-30L-169,-30L-160,-25L-167,-10L-173,-7L-178,5L-184,5L-187,-10L-187,-18L-184,-25ZM-317,-68L-309,-83L-299,-97L-291,-97L-285,-100L-285,-83L-289,-76L-294,-75L-303,-66L-311,-63ZM-365,205L-360,204L-362,214L-357,220L-359,220L-362,216L-364,213L-367,210L-367,206L-367,204ZM-233,-141L-223,-137L-210,-128L-207,-116L-205,-106L-213,-109L-221,-117L-231,-118L-227,-125L-232,-131ZM-320,248L-323,249L-331,246L-332,243L-336,240L-337,238L-342,237L-344,233L-344,231L-339,233L-336,234L-331,235L-330,237L-327,241L-322,244ZM-311,-36L-304,-32L-291,-31L-287,-26L-281,-19L-288,-14L-299,-3L-305,8L-305,15L-318,22L-321,16L-332,8L-330,1L-327,-11L-322,-22L-327,-33ZM-244,-62L-240,-66L-235,-65L-234,-55L-237,-46L-253,-43L-266,-35L-273,-35L-274,-41L-263,-49L-285,-47L-292,-50L-286,-69L-281,-75L-267,-68L-259,-56L-250,-55L-257,-74L-253,-82L-248,-79L-246,-69ZM-238,-12L-232,-5L-229,10L-228,21L-220,28L-211,35L-212,41L-219,42L-216,48L-218,53L-227,50L-235,47L-241,48L-250,52L-262,54L-271,55L-273,49L-280,45L-284,47L-290,36L-287,34L-280,32L-273,33L-266,30L-276,27L-286,28L-293,28L-296,22L-284,16L-292,16L-300,12L-296,1L-293,-6L-280,-16L-275,-13L-277,-5L-267,-10L-260,-2L-254,-10L-250,-5L-246,11L-244,4L-247,-12L-243,-15ZM-208,-6L-214,-17L-208,-25L-202,-21L-193,-24L-192,-19L-197,-10L-189,-3L-190,11L-198,17L-203,15L-206,10L-218,-3L-218,-8ZM-238,-21L-232,-21L-228,-18L-232,-7L-240,-18ZM-199,-80L-195,-70L-195,-60L-197,-46L-205,-44L-210,-47L-210,-58L-218,-57L-219,-72L-213,-71L-206,-79L-199,-77ZM-187,-177L-184,-186L-179,-188L-181,-195L-169,-197L-163,-180L-155,-174L-147,-169L-143,-150L-137,-142L-144,-134L-153,-115L-162,-114L-172,-117L-177,-127L-177,-136L-173,-143L-182,-143L-187,-151L-190,-164ZM-165,-218L-158,-225L-153,-226L-143,-232L-136,-245L-130,-244L-125,-233L-121,-253L-115,-260L-106,-264L-91,-266L-88,-262L-74,-268L-64,-266L-53,-263L-40,-260L-30,-255L-21,-245L-21,-235L-33,-219L-45,-212L-49,-205L-39,-205L-50,-186L-58,-177L-66,-154L-76,-149L-79,-144L-94,-141L-87,-138L-91,-133L-87,-121L-91,-113L-99,-106L-101,-97L-108,-91L-107,-86L-99,-87L-99,-81L-112,-69L-125,-75L-139,-71L-146,-74L-155,-75L-156,-85L-147,-90L-149,-106L-146,-108L-133,-98L-140,-113L-148,-117L-144,-127L-135,-133L-134,-142L-141,-152L-143,-167L-130,-165L-126,-162L-118,-173L-129,-176L-146,-174L-155,-184L-159,-197L-164,-207ZM-86,70L-89,73L-95,74L-96,68L-94,60L-89,59L-85,62L-85,68ZM-188,42L-185,48L-188,52L-195,48L-199,50L-205,44L-201,39L-198,33L-192,37L-190,40ZM-34,238L-32,237L-26,239L-21,242L-21,243L-23,244L-30,241ZM-32,259L-30,262L-26,263L-22,263L-24,266L-26,266L-32,263L-33,261Z" fill="#E0E0E0" stroke="#fff" stroke-width=".4"/><path d="M-317,244L-303,244L-289,244L-284,244L-269,244L-255,244L-240,244L-226,244L-209,244L-193,244L-183,244L-183,241L-181,241L-180,245L-179,247L-175,247L-170,248L-166,251L-162,250L-156,252L-154,251L-150,249L-145,252L-141,255L-137,257L-133,259L-132,261L-131,262L-132,263L-130,263L-129,262L-129,264L-128,265L-127,265L-126,266L-127,267L-122,270L-121,277L-120,282L-121,286L-123,290L-124,292L-124,293L-124,294L-122,295L-121,295L-115,291L-110,290L-104,287L-104,286L-104,284L-105,283L-103,282L-98,282L-94,282L-92,279L-92,279L-86,274L-84,273L-77,273L-68,273L-67,271L-66,271L-64,270L-62,266L-61,261L-57,256L-55,257L-52,256L-50,258L-50,268L-47,272L-46,274L-51,277L-56,280L-61,282L-64,286L-65,287L-65,291L-63,294L-61,294L-62,292L-60,293L-60,295L-64,296L-66,296L-70,297L-72,298L-75,298L-79,300L-72,299L-70,300L-77,302L-80,302L-80,301L-81,303L-80,303L-81,308L-84,312L-85,311L-86,310L-87,309L-86,312L-85,313L-85,316L-87,318L-89,323L-90,323L-88,319L-91,316L-91,311L-92,314L-91,318L-95,317L-91,319L-91,324L-90,325L-89,327L-88,333L-92,337L-97,339L-100,343L-102,343L-105,345L-105,347L-111,351L-113,354L-116,357L-116,361L-116,365L-114,370L-112,374L-112,376L-109,382L-110,386L-110,388L-111,391L-112,392L-115,391L-116,389L-117,388L-120,383L-122,379L-123,377L-122,373L-123,370L-127,365L-129,365L-134,367L-135,367L-137,364L-140,363L-146,364L-150,363L-154,363L-156,364L-155,366L-155,368L-154,369L-155,370L-157,369L-158,370L-162,370L-166,367L-170,368L-173,366L-176,367L-180,368L-185,372L-190,374L-192,377L-193,380L-193,383L-193,386L-192,388L-194,388L-198,387L-201,385L-203,383L-204,379L-207,376L-208,372L-211,369L-214,366L-218,366L-221,371L-225,369L-228,367L-229,364L-231,361L-234,359L-236,357L-238,355L-246,355L-246,357L-250,357L-260,358L-271,354L-278,351L-278,350L-284,350L-289,351L-290,348L-293,344L-296,344L-296,342L-299,342L-301,340L-305,340L-306,339L-307,335L-312,329L-316,321L-315,319L-318,317L-321,312L-322,307L-325,304L-324,298L-324,293L-325,288L-323,282L-323,275L-322,269L-323,260L-325,254L-326,250L-325,249L-318,251L-316,258L-315,256L-315,250ZM-475,418L-474,419L-473,419L-472,421L-472,422L-474,423L-476,423L-476,424L-478,424L-477,422L-478,420L-478,420L-477,419L-478,418L-477,417L-477,417ZM-478,415L-478,415L-480,416L-481,415L-481,414L-481,414L-481,413L-479,414ZM-482,413L-482,413L-484,413L-484,412ZM-488,410L-487,410L-486,412L-486,412L-487,412L-488,412L-489,411L-489,411ZM-494,407L-494,408L-495,409L-496,408L-496,408L-495,407ZM-529,148L-525,149L-524,153L-527,154L-531,152L-533,150ZM-464,171L-461,171L-459,174L-463,178L-468,182L-471,180L-471,175L-467,172ZM-405,39L-405,87L-405,149L-400,149L-396,152L-392,156L-388,162L-383,157L-378,154L-376,159L-373,163L-368,167L-365,173L-360,183L-352,189L-352,194L-354,199L-357,195L-361,193L-363,185L-369,178L-372,169L-376,169L-384,169L-390,166L-400,156L-404,154L-413,151L-420,152L-429,147L-435,143L-440,145L-439,152L-442,152L-447,154L-452,158L-457,160L-458,154L-456,145L-450,141L-452,139L-458,145L-461,151L-468,158L-465,162L-469,169L-475,173L-479,176L-481,180L-488,184L-490,188L-495,192L-499,191L-503,194L-508,197L-512,199L-521,202L-521,200L-516,197L-511,194L-506,189L-500,188L-498,185L-491,179L-490,178L-486,174L-485,167L-483,162L-489,165L-490,163L-493,167L-496,162L-497,165L-499,161L-504,164L-507,164L-507,159L-506,155L-510,152L-516,154L-520,149L-523,147L-523,141L-527,137L-525,131L-521,125L-519,120L-516,119L-512,120L-508,115L-505,116L-501,113L-502,108L-505,106L-501,101L-504,102L-509,104L-511,106L-515,104L-521,105L-529,103L-531,98L-537,91L-530,86L-519,80L-515,80L-516,86L-505,86L-509,78L-515,74L-519,67L-523,62L-530,58L-527,51L-519,50L-513,44L-512,37L-507,31L-502,29L-493,22L-488,23L-481,15L-473,19L-470,25L-468,22L-460,23L-460,27L-452,29L-447,28L-437,32L-428,34L-424,35L-418,33L-410,37ZM-554,113L-551,115L-548,114L-544,116L-539,118L-540,119L-544,121L-547,119L-549,117L-553,118L-555,117Z" fill="#E0E0E0" stroke="#fff" stroke-width=".4"/><path d="M703,243L699,248L695,248L695,256L692,259L683,256L679,269L677,271L667,273L671,285L668,287L668,291L665,290L663,287L656,286L648,286L646,287L639,284L636,286L636,290L628,287L624,288L623,291L621,292L614,297L612,301L610,301L609,298L603,298L602,293L599,293L600,286L594,281L586,282L580,283L575,277L571,274L564,269L563,269L550,273L551,297L548,298L545,293L541,291L536,292L534,294L533,293L535,290L534,288L528,285L526,279L523,278L523,275L528,276L528,271L532,270L536,271L537,264L536,260L531,260L527,258L522,262L517,263L515,262L515,258L512,253L509,254L504,249L507,243L506,242L510,233L515,238L515,232L525,224L533,224L544,229L549,232L554,229L562,229L568,233L570,230L577,231L578,227L570,222L575,218L574,216L578,214L575,208L577,205L595,202L598,200L610,197L614,194L623,195L624,204L629,202L636,205L635,209L640,209L652,201L650,204L656,210L667,230L670,226L677,231L684,229L686,230L689,234L692,236L694,239L700,238Z" fill="#E0E0E0" stroke="#fff" stroke-width=".4"/><path d="M551,297L550,273L563,269L564,269L571,274L575,277L580,283L586,282L594,281L600,286L599,293L602,293L603,298L609,298L610,301L612,301L614,297L621,292L623,291L625,292L621,296L624,298L628,297L633,300L627,305L624,304L622,304L621,303L622,300L615,301L614,305L612,309L607,308L606,311L610,313L611,317L608,323L604,322L602,322L602,318L595,316L590,313L587,310L582,305L579,299L578,298L572,298L571,297L570,291L563,288L559,292L555,294L556,297Z" fill="#E0E0E0" stroke="#fff" stroke-width=".4"/><path d="M963,530L963,546L963,562L959,558L954,557L953,559L947,559L949,555L952,553L951,548L948,544L939,540L935,539L928,535L926,537L924,538L923,536L923,534L919,531L925,530L928,530L928,529L921,529L919,526L914,525L912,522L919,521L921,520L929,522L930,523L931,531L936,534L940,529L946,526L950,526L954,528L958,529ZM885,561L886,562L886,564L883,567L879,568L878,568L878,566L881,563ZM930,551L930,548L931,546L932,544L933,546L933,548ZM851,498L848,502L852,507L851,509L856,513L851,514L849,517L849,522L845,525L844,530L843,537L842,536L836,538L834,535L831,534L829,533L823,535L821,532L818,533L814,532L813,525L811,524L808,520L808,516L808,511L811,508L812,511L815,514L818,513L821,513L824,511L827,510L831,512L835,511L838,504L839,502L841,497L847,497ZM907,531L912,533L914,537L910,534L906,534L903,534L900,534L901,532ZM895,536L891,535L890,533L895,533L896,535ZM900,507L900,510L903,510L903,512L903,517L901,516L900,519L902,522L901,522L899,519L897,513L898,509ZM875,514L881,513L886,510L887,511L883,516L879,517L874,516L866,516L862,517L861,520L866,525L868,522L877,521L877,523L875,522L873,525L869,527L873,533L872,535L877,541L877,544L874,545L872,543L874,539L870,541L868,540L869,538L866,535L866,531L863,532L863,538L863,545L860,545L858,544L860,539L859,535L857,535L855,531L857,528L858,524L860,517L861,515L866,511L869,513ZM863,568L856,564L861,563L863,565L865,566L865,568ZM868,559L871,559L875,557L875,560L867,561L861,561L861,559L865,558ZM853,558L856,558L857,560L851,561L848,562L845,562L847,559L850,559L851,557ZM805,549L806,551L815,551L816,549L825,552L827,555L834,556L840,559L835,560L830,558L825,559L820,558L816,557L810,555L806,555L804,556L796,554L795,551L790,551L794,546L799,547L803,549ZM785,523L786,526L788,529L791,530L794,533L793,539L792,546L787,546L783,542L777,538L775,535L771,531L769,528L765,521L761,517L759,513L757,509L753,506L750,502L747,499L742,494L741,491L744,491L752,492L756,497L760,500L763,502L767,508L772,508L776,511L779,515L783,517L781,521L784,523Z" fill="#E0E0E0" stroke="#fff" stroke-width=".4"/><path d="M421,540L422,544L422,547L423,549L426,552L428,558L426,558L420,559L418,559L417,562L418,565L417,570L417,575L418,576L421,578L423,577L423,583L419,583L417,580L416,578L412,577L411,574L408,576L404,575L402,573L399,573L397,573L397,571L395,571L393,571L390,572L388,571L386,572L387,566L385,564L385,561L385,558L385,556L384,553L379,553L379,552L376,552L376,552L373,553L372,555L371,557L369,556L367,557L364,557L362,554L361,553L359,550L358,546L344,546L342,547L341,547L339,547L338,546L339,545L339,543L340,542L342,541L343,541L345,540L348,540L348,541L350,542L353,539L355,536L357,535L356,531L359,526L361,524L364,521L365,520L365,518L365,516L365,514L366,509L367,506L368,504L369,501L369,497L371,495L373,493L377,495L381,497L384,497L388,498L389,495L390,495L392,495L397,493L399,494L401,494L402,493L403,492L407,493L410,493L412,492L415,496L417,497L418,496L420,496L423,495L424,497L429,501L428,506L430,507L429,509L427,510L425,513L424,515L424,519L423,521L423,524L421,526L421,529L420,529L420,532L421,534Z" fill="#E0E0E0" stroke="#fff" stroke-width=".4"/><path d="M481,526L478,522L478,504L482,499L483,497L487,497L491,494L497,493L511,479L514,475L516,472L516,469L516,464L516,462L516,462L518,462L520,461L523,461L525,459L527,459L527,460L527,463L527,466L526,468L524,473L522,478L519,485L515,492L511,497L505,504L500,508L493,513L488,516L483,522L482,525Z" fill="#E0E0E0" stroke="#fff" stroke-width=".4"/><path d="M469,540L462,536L462,533L444,523L443,522L443,517L445,515L447,512L449,509L447,503L446,501L444,497L447,494L450,491L453,492L453,495L454,496L458,496L464,500L465,500L467,500L468,501L471,501L472,499L477,497L479,499L482,499L478,504L478,522L481,526L477,528L476,530L474,530L474,534L472,536L471,539Z" fill="#E0E0E0" stroke="#fff" stroke-width=".4"/><path d="M398,478L394,476L393,474L393,473L393,471L393,469L390,465L390,463L390,462L388,461L388,458L387,456L385,456L386,454L387,452L387,450L388,449L387,448L388,444L391,441L395,441L395,421L395,419L400,419L400,408L420,408L439,408L458,408L459,413L458,414L459,420L461,426L463,427L465,429L463,432L459,433L458,434L457,438L455,445L456,447L455,451L453,456L450,459L448,462L448,465L445,466L444,471L444,475L444,472L443,472L443,469L443,467L440,465L440,462L440,458L438,458L438,459L435,459L436,461L436,464L434,466L431,470L429,470L425,468L423,469L422,470L420,471L420,472L415,472L414,471L411,471L409,472L407,471L405,468L404,467L401,468L399,470L398,474L396,475L395,476Z" fill="#E0E0E0" stroke="#fff" stroke-width=".4"/><path d="M395,421L395,441L391,441L388,444L387,448L388,449L387,450L387,452L386,454L385,456L387,456L388,458L388,461L390,462L390,463L387,464L384,466L381,472L376,474L372,474L370,474L371,476L368,477L366,479L360,481L359,480L358,480L357,481L353,482L354,480L352,477L352,475L350,474L347,471L348,469L350,469L351,469L354,469L351,465L352,461L351,458L349,455L350,452L347,452L347,449L345,447L347,441L353,436L353,429L355,419L356,417L354,415L354,413L352,412L351,404L356,401L375,411Z" fill="#E0E0E0" stroke="#fff" stroke-width=".4"/><path d="M-69,420L-69,423L-69,425L-70,426L-69,427L-69,429L-72,428L-74,428L-77,428L-80,429L-82,427L-82,426L-77,426L-74,427L-72,426L-74,423L-74,421L-77,421L-76,419L-73,419Z" fill="#E0E0E0" stroke="#fff" stroke-width=".4"/><path d="M-69,429L-69,427L-70,426L-69,425L-69,423L-69,420L-68,419L-65,419L-62,421L-60,421L-60,422L-57,422L-57,424L-55,424L-52,426L-54,428L-57,427L-59,427L-60,427L-61,428L-63,428L-64,427L-66,428L-67,431L-69,430Z" fill="#E0E0E0" stroke="#fff" stroke-width=".4"/><path d="M734,-190L744,-197L754,-181L765,-153L764,-130L753,-127L740,-134L732,-144L728,-164L721,-169ZM778,-140L790,-126L789,-116L761,-107L770,-139L774,-142ZM953,-68L965,-67L983,-57L979,-43L961,-43L953,-39L944,-51L946,-64ZM998,-52L1010,-47L1005,-40L997,-42L988,-49L989,-55ZM958,-17L962,-24L968,-25L975,-19L976,-14L968,-14L958,-16ZM497,-176L506,-182L513,-182L514,-174L517,-181L522,-186L529,-180L527,-175L521,-171L516,-169L516,-164L510,-160L505,-166L507,-176ZM389,203L380,203L374,202L375,198L382,195L387,197L389,198L389,200ZM539,-23L550,-39L549,-47L560,-58L576,-70L592,-74L600,-82L610,-85L613,-76L610,-70L593,-60L578,-51L563,-33L555,-16L548,-0L549,13L558,25L555,26L539,24L538,18L529,14L529,5L534,2L533,-7L543,-21ZM972,208L974,215L974,223L976,231L981,244L974,242L971,253L975,260L975,265L972,261L968,266L968,260L968,253L968,245L969,240L969,230L966,222L966,211L971,207L969,203L971,202ZM-594,50L-594,50L-582,60L-570,73L-570,80L-567,83L-568,74L-555,76L-545,88L-550,93L-558,94L-558,105L-560,107L-565,107L-568,103L-575,100L-576,95L-581,93L-586,94L-589,90L-588,86L-594,89L-592,94L-594,99L-594,99L-594,50ZM1152,99L1152,99L1146,104L1140,103L1144,109L1147,118L1149,121L1150,126L1149,128L1140,126L1126,134L1122,135L1114,142L1107,148L1105,153L1099,146L1086,154L1084,150L1079,154L1072,153L1071,159L1065,168L1065,172L1071,174L1070,187L1066,187L1064,194L1066,198L1057,202L1055,212L1048,214L1047,222L1040,229L1038,224L1036,212L1033,194L1035,182L1040,176L1040,172L1047,170L1056,158L1064,148L1073,140L1077,126L1071,127L1068,135L1056,146L1052,134L1039,137L1027,154L1031,160L1020,162L1013,163L1013,156L1006,155L1000,160L985,158L969,161L953,179L935,199L942,200L945,205L949,207L952,203L958,204L965,213L965,219L961,227L961,236L959,248L951,259L950,264L943,272L937,280L933,284L927,287L924,288L921,284L914,289L914,291L914,291L913,290L913,287L915,287L916,279L915,273L919,271L925,272L928,265L930,257L932,255L934,248L926,250L922,253L915,253L913,246L907,241L898,239L897,231L895,226L893,223L890,215L886,212L879,210L872,210L866,211L862,215L865,217L865,222L862,224L858,232L858,236L851,240L845,238L839,238L837,236L834,235L827,240L820,241L816,243L810,242L805,242L802,238L798,235L793,234L787,235L782,236L775,233L774,227L769,225L764,224L759,221L754,229L756,234L751,239L744,237L739,237L736,233L731,233L727,231L719,234L710,241L705,242L703,243L700,238L694,239L692,236L689,234L686,230L684,229L677,231L670,226L667,230L656,210L650,204L652,201L640,209L635,209L636,205L629,202L624,204L623,195L614,194L610,197L598,200L595,202L577,205L575,208L578,214L574,216L575,218L570,222L578,227L577,231L570,230L568,233L562,229L554,229L549,232L544,229L533,224L525,224L515,232L515,238L510,233L506,242L507,243L504,249L509,254L512,253L515,258L515,262L517,263L515,267L510,268L506,275L510,282L509,286L515,294L512,297L511,298L509,298L506,294L504,294L501,292L500,290L495,288L492,289L491,288L485,285L478,284L473,283L473,283L467,278L461,275L457,271L460,270L465,264L462,261L469,258L469,257L464,258L465,255L467,253L472,252L473,250L471,246L473,242L473,240L466,237L463,237L460,234L457,235L451,232L451,231L449,228L445,227L445,225L446,223L443,219L438,219L436,219L435,221L433,221L432,215L431,213L432,212L436,212L438,211L436,208L433,207L433,205L431,204L428,198L429,196L429,192L424,190L421,191L421,189L416,187L414,182L414,177L411,175L413,172L412,164L415,158L415,157L420,151L415,147L426,134L430,128L432,123L425,115L427,108L422,100L426,90L420,76L424,66L417,58L418,48L422,47L430,42L435,37L443,45L456,48L474,63L478,69L479,78L473,84L465,87L444,78L440,80L448,88L448,94L449,106L455,109L459,112L459,107L456,102L459,97L471,104L475,102L472,93L483,82L488,82L492,86L495,78L491,71L493,63L490,55L503,59L506,66L500,68L500,75L504,79L511,77L513,69L523,62L540,51L543,52L539,60L545,61L548,57L557,56L564,51L570,59L575,50L570,42L573,37L587,42L594,46L611,61L615,54L610,47L610,44L604,43L605,36L603,25L603,20L612,7L615,-8L618,-11L631,-7L632,2L628,15L631,19L632,30L631,49L636,57L634,66L625,83L630,85L632,81L638,78L639,72L643,66L640,58L643,49L637,48L636,41L640,26L634,14L642,4L641,-8L644,-8L646,1L644,16L649,19L647,7L655,1L665,0L674,9L670,-4L670,-22L678,-25L690,-24L700,-27L696,-36L702,-48L707,-49L717,-58L730,-61L731,-66L744,-68L748,-64L759,-74L768,-74L769,-83L774,-92L785,-102L794,-94L787,-89L798,-86L799,-75L804,-80L818,-80L829,-70L833,-62L832,-52L826,-46L813,-36L810,-31L816,-28L823,-24L827,-27L830,-16L832,-21L840,-23L855,-21L856,-13L877,-10L877,-23L887,-20L895,-20L903,-11L905,-1L902,6L908,18L916,24L921,8L928,15L937,11L946,16L950,11L958,13L954,-1L961,-8L983,-4L1004,2L1008,12L1021,23L1041,20L1050,23L1054,29L1054,39L1060,43L1066,40L1075,40L1084,43L1093,41L1102,53L1108,49L1104,40L1106,34L1122,38L1132,37L1146,44L1152,50L1152,99ZM1152,23L1147,24L1146,19L1152,13L1152,23ZM-594,13L-594,13L-594,13L-594,12L-590,12L-583,17L-583,19L-588,22L-594,23L-594,23L-594,13ZM441,266L442,264L446,266L448,266L448,267L449,268L449,268L451,270L456,270L455,272L450,273L443,277L441,276L442,273L436,270L437,269L442,267Z" fill="#E0E0E0" stroke="#fff" stroke-width=".4"/><path d="M-104,383L-102,382L-99,383L-99,384L-104,385ZM-98,381L-95,384L-95,388L-96,387L-96,384L-98,382ZM-100,391L-99,392L-97,396L-97,399L-98,399L-100,396L-101,395Z" fill="#E0E0E0" stroke="#fff" stroke-width=".4"/><path d="M352,-151L354,-160L361,-161L368,-151L384,-132L371,-122L369,-104L364,-100L362,-82L356,-81L346,-94L350,-102L343,-109L333,-130L330,-150L343,-160L346,-150ZM430,42L422,47L418,48L420,39L414,33L406,38L404,48L399,54L394,51L387,51L382,44L379,48L376,48L375,57L366,55L365,62L360,62L357,71L352,85L345,101L347,105L345,110L340,110L337,120L337,134L340,139L339,151L335,157L333,163L329,157L320,168L313,170L306,165L305,155L303,132L308,125L320,116L330,105L339,89L351,65L359,55L372,38L383,32L391,32L398,20L407,21L416,18L431,29L425,33ZM412,-161L405,-146L391,-143L376,-148L376,-155L369,-156L363,-169L378,-177L385,-170L390,-179L402,-171ZM399,-105L388,-96L380,-101L383,-107L380,-115L390,-119L392,-110Z" fill="#E0E0E0" stroke="#fff" stroke-width=".4"/><path d="M52,-245L68,-268L85,-266L92,-282L109,-286L148,-281L178,-248L169,-234L150,-232L124,-229L127,-223L144,-226L158,-214L168,-225L172,-213L167,-194L179,-206L202,-219L217,-212L220,-198L200,-176L197,-169L182,-165L193,-163L187,-143L183,-127L184,-100L189,-86L182,-85L174,-78L183,-67L184,-51L179,-49L185,-33L174,-32L180,-25L178,-18L171,-16L165,-16L171,-5L171,3L161,-4L159,0L165,4L172,14L173,26L165,29L161,23L155,14L157,24L151,32L164,33L171,33L158,46L144,56L130,61L125,61L120,66L113,79L103,88L99,88L93,91L86,94L82,101L82,109L79,116L71,124L73,133L71,141L69,151L62,151L55,143L45,143L40,138L37,128L28,114L26,107L25,97L19,86L20,77L17,73L22,58L29,53L31,47L32,36L27,41L24,43L20,45L14,41L13,31L15,23L20,23L30,27L21,18L17,13L12,15L8,11L13,-4L11,-10L7,-22L1,-41L-5,-48L-5,-56L-18,-67L-29,-69L-42,-68L-53,-67L-59,-73L-67,-86L-55,-93L-45,-94L-66,-100L-77,-110L-76,-119L-58,-131L-40,-143L-38,-153L-51,-163L-47,-174L-30,-196L-23,-199L-25,-214L-13,-223L1,-229L16,-229L22,-218L34,-238L46,-224L53,-221L63,-210L51,-229Z" fill="#E0E0E0" stroke="#fff" stroke-width=".4"/><path d="M-289,351L-284,350L-278,350L-278,351L-271,354L-260,358L-250,357L-246,357L-246,355L-238,355L-236,357L-234,359L-231,361L-229,364L-228,367L-225,369L-221,371L-218,366L-214,366L-211,369L-208,372L-207,376L-204,379L-203,383L-201,385L-198,387L-194,388L-192,388L-194,392L-195,396L-195,403L-196,406L-195,409L-194,411L-193,415L-189,419L-188,422L-186,425L-181,426L-179,428L-175,427L-171,426L-168,425L-165,424L-161,422L-160,419L-160,415L-159,414L-156,412L-151,411L-146,411L-143,411L-142,412L-142,414L-145,417L-146,421L-145,421L-146,424L-147,428L-148,426L-149,426L-150,426L-152,430L-153,429L-154,429L-154,430L-158,430L-163,430L-163,433L-165,433L-163,434L-161,436L-161,437L-160,437L-160,439L-166,439L-168,443L-168,444L-168,445L-168,446L-174,441L-176,439L-180,438L-183,438L-187,440L-190,441L-193,440L-197,439L-201,436L-205,436L-210,433L-214,431L-216,429L-218,429L-223,427L-225,425L-230,422L-233,419L-234,416L-232,416L-233,414L-232,413L-232,411L-233,409L-234,407L-235,404L-240,399L-245,395L-247,392L-251,389L-252,388L-251,385L-254,383L-257,381L-258,377L-260,376L-263,374L-266,371L-266,369L-268,365L-270,361L-270,358L-274,356L-275,356L-278,355L-279,357L-278,360L-277,364L-276,366L-272,370L-271,372L-271,372L-270,374L-269,374L-268,377L-267,379L-266,381L-263,383L-261,388L-260,391L-258,393L-258,396L-256,396L-254,399L-252,401L-252,402L-254,404L-255,404L-256,401L-259,398L-263,395L-265,394L-265,390L-266,387L-268,385L-272,383L-272,384L-273,382L-276,381L-279,378L-279,377L-277,378L-275,376L-275,373L-279,369L-282,368L-283,364L-285,360L-287,356Z" fill="#E0E0E0" stroke="#fff" stroke-width=".4"/><path d="M20,692L19,689L21,686L18,682L14,679L9,675L7,675L3,671L-1,672L6,664L11,659L15,657L19,653L19,649L16,646L14,647L15,644L16,641L16,638L14,637L12,638L10,638L10,636L9,631L8,629L5,628L3,629L-2,628L-2,621L-3,618L-2,617L-2,614L-1,611L0,607L-1,604L-4,603L-4,601L-4,598L-13,598L-15,592L-13,592L-13,590L-14,588L-15,585L-17,584L-20,584L-22,582L-26,581L-28,580L-33,579L-38,574L-38,571L-39,569L-38,565L-44,566L-47,568L-51,570L-52,572L-55,572L-58,571L-61,572L-63,572L-63,564L-67,567L-71,567L-73,564L-76,564L-75,562L-78,559L-80,554L-79,553L-79,551L-76,550L-76,547L-75,546L-75,543L-69,540L-65,539L-65,538L-60,539L-58,525L-58,523L-59,520L-61,519L-61,515L-58,514L-57,515L-57,513L-60,512L-60,509L-50,510L-49,508L-47,509L-46,512L-45,512L-43,514L-39,514L-38,512L-35,511L-32,511L-32,508L-28,507L-29,506L-33,506L-34,503L-33,499L-36,498L-35,498L-31,498L-27,499L-26,498L-22,498L-17,496L-15,494L-16,493L-13,492L-12,493L-13,496L-11,496L-10,499L-11,500L-12,504L-11,507L-10,509L-7,511L-5,512L-5,511L-3,510L-1,510L1,508L3,509L5,509L7,509L8,508L7,507L7,506L9,506L12,506L14,507L17,508L18,506L19,506L20,508L22,507L24,506L25,502L28,498L30,497L31,500L34,509L37,509L37,513L33,517L35,518L43,519L43,524L47,521L53,522L61,525L63,528L63,531L68,529L78,532L85,532L92,536L98,541L102,543L106,543L108,544L110,551L110,553L109,562L106,565L99,572L96,577L93,582L91,582L90,585L90,595L89,603L88,606L87,608L86,615L81,622L80,627L76,629L75,632L70,632L62,634L59,637L54,638L48,642L44,648L43,652L44,655L43,660L42,663L38,666L33,676L29,681L25,683L23,689Z" fill="#E0E0E0" stroke="#fff" stroke-width=".4"/><path d="M-45,512L-46,512L-47,509L-49,508L-50,510L-60,509L-60,512L-57,513L-57,515L-58,514L-61,515L-61,519L-59,520L-58,523L-58,525L-60,539L-63,536L-64,536L-61,531L-65,529L-68,529L-69,528L-72,530L-76,529L-78,524L-81,523L-82,520L-85,518L-87,519L-89,517L-91,516L-93,517L-97,516L-98,514L-99,514L-104,511L-104,510L-102,509L-103,507L-102,505L-99,505L-97,502L-95,499L-97,498L-96,495L-97,491L-96,489L-97,485L-99,483L-98,480L-97,481L-96,479L-97,476L-96,476L-94,476L-90,472L-88,472L-88,470L-87,466L-84,464L-81,464L-81,463L-77,463L-73,460L-72,459L-69,457L-67,457L-66,459L-67,460L-70,461L-71,464L-73,465L-75,467L-75,470L-77,473L-74,474L-74,476L-72,477L-72,479L-73,481L-73,482L-71,482L-70,484L-64,483L-61,484L-58,488L-56,488L-52,488L-49,487L-48,488L-49,491L-50,492L-50,496L-49,499L-48,501L-48,502L-50,504L-48,505L-47,507Z" fill="#E0E0E0" stroke="#fff" stroke-width=".4"/><path d="M-96,476L-97,476L-96,479L-97,481L-98,480L-99,483L-101,481L-102,479L-100,477L-102,477L-102,475L-105,474L-107,474L-108,476L-110,477L-111,477L-112,478L-109,481L-111,482L-111,482L-113,483L-114,480L-115,481L-117,480L-118,478L-120,478L-121,477L-123,477L-123,478L-124,478L-123,477L-123,476L-123,475L-122,474L-123,474L-123,472L-122,471L-120,473L-120,474L-118,474L-117,474L-116,475L-114,475L-112,473L-109,472L-107,471L-104,471L-105,472L-102,472L-100,473L-98,474Z" fill="#E0E0E0" stroke="#fff" stroke-width=".4"/><path d="M-122,471L-123,472L-123,474L-122,474L-123,475L-123,476L-123,477L-124,478L-126,477L-127,476L-127,475L-127,474L-128,472L-130,472L-132,471L-132,469L-133,469L-133,470L-134,471L-135,470L-137,469L-137,468L-137,467L-137,465L-138,465L-137,464L-136,463L-133,464L-132,464L-130,464L-129,465L-128,465L-127,464L-126,467L-124,469Z" fill="#E0E0E0" stroke="#fff" stroke-width=".4"/><path d="M-127,464L-128,465L-129,465L-130,464L-132,464L-133,464L-136,463L-137,464L-139,462L-141,460L-142,458L-144,457L-146,455L-146,454L-145,455L-145,454L-143,454L-143,453L-142,453L-142,450L-141,450L-140,450L-139,449L-137,450L-137,449L-136,449L-134,447L-134,446L-134,446L-133,445L-133,445L-132,446L-131,446L-130,445L-128,445L-127,445L-126,444L-124,444L-125,445L-125,446L-125,448L-126,449L-126,451L-126,454L-126,455L-126,457L-127,458L-127,460L-127,461L-128,462L-128,464Z" fill="#E0E0E0" stroke="#fff" stroke-width=".4"/><path d="M-124,444L-126,444L-127,445L-128,445L-130,445L-131,446L-132,446L-133,445L-133,445L-134,446L-134,446L-134,447L-136,449L-137,449L-137,450L-139,449L-140,450L-141,450L-142,450L-142,453L-143,453L-143,454L-145,454L-146,453L-147,452L-147,450L-147,450L-148,449L-150,450L-151,449L-152,448L-153,447L-155,447L-154,446L-154,445L-154,444L-151,442L-149,440L-149,441L-148,440L-146,440L-146,440L-145,440L-143,440L-140,440L-139,440L-138,439L-137,439L-136,440L-134,440L-133,439L-131,440L-130,440L-129,441L-127,442L-126,443Z" fill="#E0E0E0" stroke="#fff" stroke-width=".4"/><path d="M-155,447L-153,447L-152,448L-151,449L-150,450L-148,449L-147,450L-147,450L-147,452L-148,453L-150,453L-152,453L-154,452L-157,452L-158,450L-158,450L-156,448L-155,448L-156,447Z" fill="#E0E0E0" stroke="#fff" stroke-width=".4"/><path d="M-168,446L-168,445L-168,444L-168,443L-166,439L-160,439L-160,437L-161,437L-161,436L-163,434L-165,433L-163,433L-163,430L-158,430L-154,430L-154,434L-154,440L-152,440L-151,441L-151,440L-149,440L-151,442L-154,444L-154,445L-154,446L-155,447L-156,447L-155,448L-156,448L-158,450L-158,450L-161,450L-164,450L-166,449Z" fill="#E0E0E0" stroke="#fff" stroke-width=".4"/><path d="M-154,430L-154,429L-153,429L-152,430L-150,426L-149,426L-149,427L-148,427L-149,429L-149,431L-149,432L-149,433L-149,434L-150,436L-151,438L-152,438L-152,440L-154,440L-154,434Z" fill="#E0E0E0" stroke="#fff" stroke-width=".4"/><path d="M-16,493L-15,494L-17,496L-22,498L-26,498L-27,499L-31,498L-35,498L-36,498L-33,499L-34,503L-33,506L-29,506L-28,507L-32,508L-32,511L-35,511L-38,512L-39,514L-43,514L-45,512L-47,507L-48,505L-50,504L-48,502L-48,501L-49,499L-50,496L-50,492L-49,491L-48,488L-49,487L-52,488L-56,488L-58,488L-61,484L-64,483L-70,484L-71,482L-73,482L-73,481L-72,479L-72,477L-74,476L-74,474L-77,473L-75,470L-75,467L-73,465L-71,464L-70,461L-67,460L-67,461L-70,462L-69,464L-69,467L-71,470L-69,474L-67,473L-66,470L-67,468L-67,464L-61,462L-62,460L-60,458L-59,462L-55,462L-52,465L-52,466L-48,466L-42,466L-40,468L-36,469L-33,467L-33,466L-27,466L-21,465L-25,467L-24,469L-20,470L-16,472L-15,476L-13,476L-11,477L-15,480L-15,482L-14,484L-15,484L-18,485L-18,487L-19,489Z" fill="#E0E0E0" stroke="#fff" stroke-width=".4"/><path d="M5,509L3,509L1,508L-1,510L-3,510L-5,511L-5,512L-7,511L-10,509L-11,507L-12,504L-11,500L-10,499L-11,496L-13,496L-12,493L-13,492L-16,493L-19,489L-18,487L-18,485L-15,484L-14,484L-15,482L-15,480L-11,477L-8,479L-5,482L-5,485L-3,485L-0,487L2,489L1,493L-2,494L-2,496L-3,498L-0,502L1,502L2,504Z" fill="#E0E0E0" stroke="#fff" stroke-width=".4"/><path d="M14,507L12,506L9,506L7,506L7,507L8,508L7,509L5,509L2,504L1,502L-0,502L-3,498L-2,496L-2,494L1,493L2,489L8,490L8,489L12,488L17,490L15,494L15,497L17,500L16,502L16,505Z" fill="#E0E0E0" stroke="#fff" stroke-width=".4"/><path d="M28,498L25,502L24,506L22,507L20,508L19,506L18,506L17,508L14,507L16,505L16,502L17,500L15,497L15,494L17,490L19,490L22,491L28,496ZM309,241L311,243L318,244L316,249L315,254L314,256L312,255L312,257L308,261L308,264L311,263L312,266L312,268L313,270L312,273L313,278L316,279L315,282L311,285L301,284L294,286L293,290L288,291L282,288L281,289L272,286L270,283L272,279L273,266L268,258L265,255L257,252L257,247L263,245L271,247L270,238L274,242L285,236L287,230L291,228L292,231L294,231L296,234L300,237L302,237L307,240L308,241ZM321,289L325,286L325,292L324,297L322,296L320,291Z" fill="#E0E0E0" stroke="#fff" stroke-width=".4"/><path d="M-43,426L-40,427L-39,428L-40,429L-44,429L-47,429L-47,427L-47,426Z" fill="#E0E0E0" stroke="#fff" stroke-width=".4"/><path d="M-97,426L-94,427L-92,428L-91,430L-94,430L-96,430L-98,430L-101,428L-101,427L-98,426Z" fill="#E0E0E0" stroke="#fff" stroke-width=".4"/><path d="M-120,402L-116,402L-112,402L-108,404L-106,406L-101,406L-99,407L-95,410L-92,412L-91,412L-88,413L-88,415L-85,415L-81,417L-81,418L-85,419L-88,419L-91,419L-98,419L-95,417L-97,415L-100,415L-102,413L-103,410L-106,411L-110,409L-112,408L-118,407L-120,406L-118,405L-123,405L-126,407L-128,407L-129,409L-131,409L-133,409L-131,407L-130,405L-128,404L-125,403L-121,403Z" fill="#E0E0E0" stroke="#fff" stroke-width=".4"/><path d="M198,451L196,447L193,446L196,445L198,441L199,438L201,437L203,437L206,436L208,436L211,438L214,439L217,443L220,446L220,449L221,452L223,453L223,455L223,457L222,457L220,457L219,457L218,457L215,456L213,456L204,456L202,457L201,456L198,457L197,453L202,453L203,453L204,453L206,452L208,453L210,453L212,452L211,450L209,451L208,451L206,450L204,450L203,451Z" fill="#E0E0E0" stroke="#fff" stroke-width=".4"/><path d="M223,457L223,455L223,453L221,452L220,449L220,446L222,445L222,442L224,442L227,443L230,442L232,443L233,442L252,442L253,438L252,437L250,415L248,393L255,393L271,404L288,416L289,418L292,419L294,420L294,424L300,423L300,435L297,438L297,441L292,442L286,443L284,444L281,444L278,445L276,444L274,444L269,446L268,448L265,450L264,451L262,452L260,452L258,453L258,456L254,461L254,462L252,464L253,467L251,468L250,469L249,466L247,467L247,467L246,468L242,468L241,468L240,468L239,467L239,465L238,465L237,465L237,463L238,462L236,460L236,459L235,458L234,457L233,458L231,459L230,460L228,459L226,458L225,458L224,459L223,459Z" fill="#E0E0E0" stroke="#fff" stroke-width=".4"/><path d="M196,414L197,412L216,412L215,404L217,402L221,401L221,387L237,388L237,379L255,393L248,393L250,415L252,437L253,438L252,442L233,442L232,443L230,442L227,443L224,442L222,442L222,445L220,446L217,443L214,439L211,438L208,436L206,436L203,437L201,437L199,438L199,436L200,433L201,428L200,423L200,421L200,418L199,416Z" fill="#E0E0E0" stroke="#fff" stroke-width=".4"/><path d="M292,487L288,488L287,485L287,473L286,472L286,470L284,468L283,467L283,464L285,464L286,461L288,461L289,459L291,458L293,458L297,461L296,462L297,465L296,467L297,469L295,472L293,473L292,476L292,479Z" fill="#E0E0E0" stroke="#fff" stroke-width=".4"/><path d="M351,404L352,412L354,413L354,415L356,417L355,419L353,429L353,436L347,441L345,447L347,449L347,452L350,452L349,455L348,455L348,457L347,457L344,451L342,451L339,454L335,453L332,452L331,453L328,453L325,455L323,455L317,452L315,454L312,454L310,452L305,450L300,450L299,451L298,454L297,456L297,461L293,458L291,458L289,459L290,456L284,455L284,452L281,449L280,447L281,444L284,444L286,443L292,442L297,441L297,438L300,435L300,423L307,421L321,411L337,401L345,403L348,406Z" fill="#E0E0E0" stroke="#fff" stroke-width=".4"/><path d="M292,487L292,479L292,476L293,473L295,472L297,469L296,467L297,465L296,462L297,461L297,456L298,454L299,451L300,450L305,450L310,452L312,454L315,454L317,452L323,455L325,455L328,453L331,453L332,452L335,453L339,454L342,451L344,451L347,457L348,457L350,459L349,460L349,461L345,465L344,468L343,471L342,472L341,475L338,477L338,480L336,482L336,484L333,485L330,483L328,484L325,486L324,486L321,491L320,495L315,496L313,496L311,497L308,497L305,494L303,490L300,487L296,487Z" fill="#E0E0E0" stroke="#fff" stroke-width=".4"/><path d="M349,455L351,458L352,461L351,465L354,469L351,469L350,469L348,469L347,471L350,474L352,475L352,477L354,480L353,482L351,487L350,487L349,491L350,493L349,495L352,497L352,499L354,502L356,503L356,505L357,507L356,509L352,508L349,507L342,507L342,507L339,507L336,506L334,507L326,507L327,503L325,500L322,499L321,497L320,496L320,495L321,491L324,486L325,486L328,484L330,483L333,485L336,484L336,482L338,480L338,477L341,475L342,472L343,471L344,468L345,465L349,461L349,460L350,459L348,457L348,455Z" fill="#E0E0E0" stroke="#fff" stroke-width=".4"/><path d="M283,464L283,467L284,468L286,470L286,472L287,473L287,485L288,488L284,489L283,487L282,484L281,482L282,477L281,476L281,472L281,468L279,466L279,464Z" fill="#E0E0E0" stroke="#fff" stroke-width=".4"/><path d="M279,464L279,466L281,468L281,472L281,476L282,477L281,482L282,484L283,487L284,489L277,492L274,493L269,495L265,494L265,492L263,487L265,482L267,478L265,471L265,467L265,464L273,464L275,464L277,464Z" fill="#E0E0E0" stroke="#fff" stroke-width=".4"/><path d="M240,468L241,468L242,468L246,468L247,467L247,467L249,466L250,469L251,468L253,467L255,468L256,470L258,471L260,470L262,469L265,471L267,478L265,482L263,487L265,492L265,494L263,494L260,493L256,493L251,494L247,495L243,497L242,497L242,493L242,492L242,490L240,488L239,488L237,486L238,484L238,482L238,480L239,480L239,478L239,477L239,477L241,476L240,472L239,470L239,468Z" fill="#E0E0E0" stroke="#fff" stroke-width=".4"/><path d="M213,456L215,456L218,457L219,457L220,457L222,457L223,457L223,459L224,459L225,458L226,458L228,459L230,460L231,459L233,458L234,457L235,458L236,459L236,460L238,462L237,463L237,465L238,465L239,465L239,467L240,468L239,468L239,470L240,472L241,476L239,477L239,477L239,478L239,480L238,480L237,480L236,482L234,482L233,481L234,479L232,476L230,477L229,477L228,477L228,475L227,474L227,473L226,471L225,469L221,469L220,470L219,470L218,471L217,472L215,474L213,471L211,470L209,469L208,468L208,466L207,465L206,464L208,461L209,462L210,461L212,461L212,460L212,458L212,458Z" fill="#E0E0E0" stroke="#fff" stroke-width=".4"/><path d="M198,457L201,456L202,457L204,456L213,456L212,458L212,458L212,460L212,461L210,461L209,462L208,461L206,464L203,462L201,461L200,460L200,459L198,458Z" fill="#E0E0E0" stroke="#fff" stroke-width=".4"/><path d="M238,480L238,482L238,484L237,486L239,488L240,488L242,490L242,492L242,493L242,497L240,497L235,494L231,491L227,488L223,485L225,483L225,482L227,479L229,477L230,477L232,476L234,479L233,481L234,482L236,482L237,480Z" fill="#E0E0E0" stroke="#fff" stroke-width=".4"/><path d="M215,474L217,472L218,471L219,470L220,470L221,469L225,469L226,471L227,473L227,474L228,475L228,477L229,477L227,479L225,482L225,483L223,485L222,484L219,482L216,480L215,478Z" fill="#E0E0E0" stroke="#fff" stroke-width=".4"/><path d="M253,467L252,464L254,462L254,461L258,456L258,453L260,452L262,452L264,451L265,450L268,448L269,446L274,444L276,444L278,445L281,444L280,447L281,449L284,452L284,455L290,456L289,459L288,461L286,461L285,464L283,464L279,464L277,464L275,464L273,464L265,464L265,467L265,471L262,469L260,470L258,471L256,470L255,468Z" fill="#E0E0E0" stroke="#fff" stroke-width=".4"/><path d="M412,492L410,493L407,493L403,492L402,493L401,494L399,494L397,493L392,495L390,495L389,495L388,498L384,497L381,497L377,495L373,493L371,495L369,497L369,501L365,500L362,500L359,502L357,507L356,505L356,503L354,502L352,499L352,497L349,495L350,493L349,491L350,487L351,487L353,482L357,481L358,480L359,480L360,481L366,479L368,477L371,476L370,474L372,474L376,474L381,472L384,466L387,464L390,463L390,465L393,469L393,471L393,473L393,474L394,476L398,478L401,480L401,481L404,484L406,486L407,489L411,491Z" fill="#E0E0E0" stroke="#fff" stroke-width=".4"/><path d="M369,501L368,504L367,506L366,509L365,514L365,516L365,518L365,520L364,521L361,524L359,526L356,531L357,535L355,536L353,539L350,542L348,541L348,540L345,540L343,541L342,541L340,539L339,540L337,542L333,537L337,534L335,531L336,530L340,529L340,527L343,530L347,530L348,527L349,524L348,520L346,518L348,512L347,511L343,511L342,509L342,507L349,507L352,508L356,509L357,507L359,502L362,500L365,500Z" fill="#E0E0E0" stroke="#fff" stroke-width=".4"/><path d="M452,350L451,351L450,351L449,355L450,355L449,356L448,357L451,357L451,359L448,368L448,366L445,358L447,356L446,356L448,353L449,349L449,348L449,347L451,347L451,346L453,346L453,349L452,350Z" fill="#E0E0E0" stroke="#fff" stroke-width=".4"/><path d="M453,346L451,346L451,347L449,347L451,343L454,339L454,338L456,339L457,341L454,343Z" fill="#E0E0E0" stroke="#fff" stroke-width=".4"/><path d="M451,357L448,357L449,356L450,355L449,355L450,351L451,351L451,355Z" fill="#E0E0E0" stroke="#fff" stroke-width=".4"/><path d="M198,451L203,451L204,450L206,450L208,451L209,451L211,450L212,452L210,453L208,453L206,452L204,453L203,453L202,453L197,453Z" fill="#E0E0E0" stroke="#fff" stroke-width=".4"/><path d="M325,363L323,353L320,351L320,349L316,346L316,342L318,338L320,333L319,328L320,325L325,322L329,323L328,326L333,324L333,325L330,328L330,331L332,332L331,337L328,340L329,343L332,344L333,346L335,347L334,352L332,353L331,355L327,357L328,360L327,362Z" fill="#E0E0E0" stroke="#fff" stroke-width=".4"/><path d="M237,379L237,378L237,378L237,372L245,367L250,367L254,365L255,362L261,360L261,356L264,355L266,353L273,352L274,350L272,349L271,343L270,339L268,335L273,332L278,331L281,329L286,327L294,326L302,325L305,326L309,324L315,324L317,325L320,325L319,328L320,333L318,338L316,342L316,346L320,349L320,351L323,353L325,363L327,368L327,371L326,375L326,378L326,381L326,384L324,387L327,390L327,393L329,396L331,395L335,397L337,401L321,411L307,421L300,423L294,424L294,420L292,419L289,418L288,416L271,404L255,393Z" fill="#E0E0E0" stroke="#fff" stroke-width=".4"/><path d="M451,351L452,350L458,352L467,346L469,353L468,354L459,357L463,362L462,363L461,365L457,366L456,368L454,370L449,369L448,368L451,359L451,357L451,355Z" fill="#E0E0E0" stroke="#fff" stroke-width=".4"/><path d="M529,396L530,396L530,398L534,397L538,397L541,397L544,394L548,390L551,387L552,389L553,393L550,393L550,396L551,397L548,398L548,400L547,402L547,405L546,406L531,403L529,398Z" fill="#E0E0E0" stroke="#fff" stroke-width=".4"/><path d="M526,394L525,390L527,387L528,386L529,388L529,391L528,394L527,395Z" fill="#E0E0E0" stroke="#fff" stroke-width=".4"/><path d="M512,365L513,368L512,369L514,373L510,373L509,371L505,370L509,365Z" fill="#E0E0E0" stroke="#fff" stroke-width=".4"/><path d="M469,353L467,346L478,340L480,333L479,328L482,327L484,323L487,322L492,323L494,324L496,323L499,330L503,332L503,336L500,338L499,342L503,348L509,351L511,355L510,360L512,360L512,363L515,365L512,365L509,365L505,370L496,370L482,358L475,354Z" fill="#E0E0E0" stroke="#fff" stroke-width=".4"/><path d="M547,405L547,402L548,400L548,398L551,397L550,396L550,393L553,393L555,396L558,398L561,399L564,400L566,403L567,405L569,406L569,407L567,410L567,411L565,413L563,416L561,416L560,417L559,420L559,423L559,424L557,424L554,426L553,429L552,430L549,430L547,431L547,433L545,434L542,434L539,436L537,436L535,432L531,424L546,419L549,408ZM552,389L551,387L552,385L553,385L553,388Z" fill="#E0E0E0" stroke="#fff" stroke-width=".4"/><path d="M777,458L776,452L779,448L785,447L790,448L794,450L796,446L800,448L801,451L801,457L792,461L795,464L789,465L785,467L781,466L779,463Z" fill="#E0E0E0" stroke="#fff" stroke-width=".4"/><path d="M790,448L785,447L779,448L776,452L777,458L772,456L768,456L769,452L765,452L764,458L762,465L760,469L760,473L764,473L766,477L766,482L769,484L772,485L775,488L773,490L770,490L769,488L765,485L765,486L763,484L762,482L759,479L757,477L756,480L755,477L756,474L757,469L760,464L762,460L760,455L760,453L760,450L757,446L755,444L757,443L759,438L757,435L754,431L751,427L754,426L756,420L759,420L762,418L765,417L767,418L767,421L770,421L769,427L769,431L774,428L776,429L779,429L780,427L783,428L787,432L787,437L791,441L791,446Z" fill="#E0E0E0" stroke="#fff" stroke-width=".4"/><path d="M800,448L796,446L794,450L790,448L791,446L791,441L787,437L787,432L783,428L780,427L779,429L776,429L774,428L769,431L769,427L770,421L767,421L767,418L765,417L766,415L770,411L770,412L773,413L772,407L775,406L778,410L780,415L786,415L788,419L784,421L783,422L789,426L793,432L796,436L800,440L801,443Z" fill="#E0E0E0" stroke="#fff" stroke-width=".4"/><path d="M765,417L762,418L759,420L756,420L754,426L751,427L754,431L757,435L759,438L757,443L755,444L757,446L760,450L760,453L760,455L762,460L760,464L757,469L757,466L758,462L757,459L757,454L755,451L753,445L753,439L750,434L747,437L742,441L739,440L736,439L738,433L737,428L733,422L733,420L731,419L727,415L727,411L729,412L729,408L731,407L731,405L732,403L732,397L736,399L738,394L738,392L741,387L741,384L747,380L750,381L750,378L752,377L751,375L754,374L756,378L758,379L758,383L758,387L753,392L753,398L758,397L759,402L762,403L761,408L764,410L766,411L770,409L770,411L766,415Z" fill="#E0E0E0" stroke="#fff" stroke-width=".4"/><path d="M785,467L789,465L795,464L792,461L801,457L801,451L800,448L801,443L800,440L796,436L793,432L789,426L783,422L784,421L788,419L786,415L780,415L778,410L775,406L777,405L781,405L786,404L790,401L792,403L797,404L796,407L798,409L803,411L797,415L793,420L792,424L795,429L800,436L804,439L807,443L809,452L809,461L805,464L799,467L795,471L789,476L787,473L789,469Z" fill="#E0E0E0" stroke="#fff" stroke-width=".4"/><path d="M914,291L914,291L914,291ZM913,290L914,291L912,291L910,293L908,295L908,300L906,301L905,303L903,304L900,306L898,307L898,310L897,311L899,312L902,314L901,316L899,316L896,317L894,319L891,319L891,320L889,319L888,320L887,320L887,319L885,318L884,317L885,315L887,314L886,313L887,310L887,309L884,308L882,306L886,302L891,299L895,294L897,296L901,296L900,293L908,290L910,286Z" fill="#E0E0E0" stroke="#fff" stroke-width=".4"/><path d="M891,320L891,319L894,319L896,317L899,316L901,316L902,314L906,322L907,326L907,333L905,336L901,337L897,339L893,340L892,337L893,332L891,326L895,325Z" fill="#E0E0E0" stroke="#fff" stroke-width=".4"/><path d="M705,242L710,241L719,234L727,231L731,233L736,233L739,237L744,237L751,239L756,234L754,229L759,221L764,224L769,225L774,227L775,233L782,236L787,235L793,234L798,235L802,238L805,242L810,242L816,243L820,241L827,240L834,235L837,236L839,238L845,238L843,243L839,251L841,254L843,253L848,254L852,251L856,253L860,258L860,261L856,260L849,261L845,263L842,268L834,270L830,274L825,273L822,272L819,276L821,279L822,281L818,284L815,287L809,289L802,290L794,292L788,295L786,293L780,293L773,289L768,288L762,289L752,288L746,288L744,284L741,278L738,277L733,273L726,272L720,271L719,268L720,260L717,254L710,251L706,247Z" fill="#E0E0E0" stroke="#fff" stroke-width=".4"/><path d="M751,375L752,377L750,378L750,381L747,380L741,384L741,387L738,392L738,394L736,399L732,397L732,403L731,405L731,407L729,408L726,400L725,400L724,403L721,400L723,397L725,397L727,393L724,392L720,392L715,391L715,387L713,387L709,385L707,388L710,391L707,393L706,395L709,397L709,400L710,404L711,408L710,410L707,410L701,411L701,415L699,418L692,421L686,427L683,431L678,434L678,436L675,438L671,439L669,440L667,443L668,450L669,454L666,459L666,467L664,467L662,471L663,473L659,474L657,478L655,479L651,474L648,468L647,463L645,460L642,455L641,449L640,446L636,439L634,429L632,423L632,417L631,412L624,415L621,414L615,408L617,406L615,404L610,399L613,396L624,396L623,391L620,389L619,384L616,382L622,376L627,377L632,371L635,365L640,360L640,355L644,352L640,349L639,345L637,340L639,338L647,339L652,338L657,333L662,340L661,345L663,348L663,351L660,350L661,357L666,360L673,364L669,367L668,372L672,374L677,377L683,380L690,380L693,383L696,384L702,385L706,385L707,383L706,379L707,377L710,376L710,380L710,381L714,383L717,382L722,383L726,383L726,379L724,377L728,377L732,373L738,369L742,370L745,368L748,372L746,374Z" fill="#E0E0E0" stroke="#fff" stroke-width=".4"/><path d="M729,408L729,412L727,411L727,415L726,413L726,410L725,407L723,404L718,404L719,406L717,409L715,408L714,409L713,408L711,408L710,404L709,400L709,397L706,395L707,393L710,391L707,388L709,385L713,387L715,387L715,391L720,392L724,392L727,393L725,397L723,397L721,400L724,403L725,400L726,400Z" fill="#E0E0E0" stroke="#fff" stroke-width=".4"/><path d="M724,377L726,379L726,383L722,383L717,382L714,383L710,381L710,380L713,376L716,375L719,376L722,376Z" fill="#E0E0E0" stroke="#fff" stroke-width=".4"/><path d="M707,377L706,379L707,383L706,385L702,385L696,384L693,383L690,380L683,380L677,377L672,374L668,372L669,367L673,364L675,363L678,364L683,368L686,369L688,372L691,373L695,375L701,376Z" fill="#E0E0E0" stroke="#fff" stroke-width=".4"/><path d="M657,333L652,338L647,339L639,338L637,340L639,345L640,349L644,352L640,355L640,360L635,365L632,371L627,377L622,376L616,382L619,384L620,389L623,391L624,396L613,396L610,399L606,398L605,394L601,390L592,391L584,391L577,392L579,386L586,383L586,380L583,380L583,375L579,372L577,369L574,366L582,369L587,368L590,369L591,368L595,368L601,366L601,361L604,358L607,358L608,356L612,355L613,356L615,354L615,351L617,347L620,346L618,342L623,342L624,340L624,338L626,335L626,332L625,330L628,327L633,326L638,325L641,324L644,323L647,326L649,331Z" fill="#E0E0E0" stroke="#fff" stroke-width=".4"/><path d="M602,322L604,322L608,323L610,324L613,322L615,323L616,321L619,321L620,320L620,317L623,315L625,317L625,318L626,319L626,324L628,326L629,325L631,324L634,321L638,322L643,322L644,323L641,324L638,325L633,326L628,327L625,330L626,332L626,335L624,338L624,340L623,342L618,342L620,346L617,347L615,351L615,354L613,356L612,355L608,356L607,358L604,358L601,361L601,366L595,368L591,368L590,369L587,368L582,369L574,366L579,361L578,357L575,356L574,353L573,348L575,345L573,344L574,340L576,332L581,335L585,334L586,331L589,330L592,328L593,324L597,322L598,320L600,322Z" fill="#E0E0E0" stroke="#fff" stroke-width=".4"/><path d="M608,323L611,317L610,313L606,311L607,308L612,309L614,305L615,301L622,300L621,303L622,304L624,304L622,306L616,305L616,309L621,308L627,310L636,309L638,315L639,314L642,316L642,318L643,322L638,322L634,321L631,324L629,325L628,326L626,324L626,319L625,318L625,317L623,315L620,317L620,320L619,321L616,321L615,323L613,322L610,324Z" fill="#E0E0E0" stroke="#fff" stroke-width=".4"/><path d="M623,291L624,288L628,287L636,290L636,286L639,284L646,287L648,286L656,286L663,287L665,290L668,291L668,292L660,296L658,298L652,299L650,303L645,302L642,303L637,306L638,308L636,309L627,310L621,308L616,309L616,305L622,306L624,304L627,305L633,300L628,297L624,298L621,296L625,292Z" fill="#E0E0E0" stroke="#fff" stroke-width=".4"/><path d="M534,294L536,292L541,291L545,293L548,298L551,297L556,297L555,294L559,292L563,288L570,291L571,297L572,298L578,298L579,299L582,305L587,310L590,313L595,316L602,318L602,322L600,322L598,320L597,322L593,324L592,328L589,330L586,331L585,334L581,335L576,332L576,327L572,327L566,322L563,321L557,318L554,317L552,319L548,318L545,322L541,323L540,319L540,312L537,310L538,306L535,305L536,300L540,302L545,300L541,296L540,292L536,294L535,298Z" fill="#E0E0E0" stroke="#fff" stroke-width=".4"/><path d="M515,365L512,363L512,360L510,360L511,355L509,351L503,348L499,342L500,338L503,336L503,332L499,330L496,323L494,318L495,316L493,309L496,307L497,310L500,313L503,314L505,313L510,309L512,308L514,310L512,313L515,316L516,316L518,321L522,322L526,325L533,326L540,325L541,323L545,322L548,318L552,319L554,317L557,318L563,321L566,322L572,327L576,327L576,332L574,340L573,344L575,345L573,348L574,353L575,356L578,357L579,361L574,366L577,369L579,372L583,375L583,380L586,380L586,383L579,386L577,392L568,390L563,389L557,388L555,382L553,381L549,382L544,384L539,383L534,378L529,377L526,372L522,364L520,365L516,363Z" fill="#E0E0E0" stroke="#fff" stroke-width=".4"/><path d="M452,350L452,350L453,349L453,346L454,343L457,341L456,339L454,338L453,334L454,331L456,330L457,329L457,325L459,327L464,325L467,326L471,326L476,324L479,324L484,323L482,327L479,328L480,333L478,340L467,346L458,352Z" fill="#E0E0E0" stroke="#fff" stroke-width=".4"/><path d="M505,313L503,314L501,310L501,309L499,309L497,307L496,307L494,306L491,304L491,301L490,299L497,298L498,299L500,301L499,302L502,304L500,306L502,308L505,309Z" fill="#E0E0E0" stroke="#fff" stroke-width=".4"/><path d="M333,163L335,157L339,151L340,139L337,134L337,120L340,110L345,110L347,105L345,101L352,85L357,71L360,62L365,62L366,55L375,57L376,48L379,48L386,54L393,63L393,83L395,87L387,91L382,99L383,106L375,115L366,124L362,138L366,145L370,151L366,162L361,164L359,179L356,187L350,187L347,193L342,194L340,186L336,176Z" fill="#E0E0E0" stroke="#fff" stroke-width=".4"/><path d="M416,187L421,189L421,191L424,190L429,192L429,196L428,198L431,204L433,205L433,207L436,208L438,211L436,212L432,212L431,213L432,215L433,221L429,221L428,223L427,227L425,226L421,226L420,225L418,226L416,225L412,225L407,223L402,222L398,222L395,224L393,225L393,221L392,218L394,216L394,213L393,210L393,206L398,206L403,203L404,198L408,195L408,192L410,190Z" fill="#E0E0E0" stroke="#fff" stroke-width=".4"/><path d="M433,221L435,221L436,219L438,219L443,219L446,223L445,225L445,227L449,228L451,231L451,232L457,235L460,234L463,237L466,237L473,240L473,242L471,246L473,250L472,252L467,253L465,255L464,258L461,259L457,261L453,261L449,264L449,268L448,267L448,266L446,266L442,264L441,266L441,265L433,263L433,261L428,262L426,266L423,271L420,270L418,271L416,269L417,269L418,266L419,264L419,263L420,262L421,263L423,263L425,263L424,262L424,261L422,259L422,256L420,255L420,253L418,251L416,250L413,248L409,249L408,250L406,250L405,252L401,252L400,253L397,252L394,252L391,251L389,252L389,251L386,249L387,246L388,244L389,244L388,241L393,234L395,234L396,231L393,225L395,224L398,222L402,222L407,223L412,225L416,225L418,226L420,225L421,226L425,226L427,227L428,223L429,221Z" fill="#E0E0E0" stroke="#fff" stroke-width=".4"/><path d="M393,206L393,210L394,213L394,216L392,218L393,221L393,225L396,231L395,234L393,234L388,241L389,244L388,244L384,241L380,242L378,241L375,243L373,240L371,241L370,241L368,237L365,236L364,234L361,233L360,235L357,234L358,231L354,231L352,228L350,223L350,221L349,216L347,214L349,211L348,207L351,205L358,201L365,198L369,200L370,202L374,202L380,203L389,203L392,203Z" fill="#E0E0E0" stroke="#fff" stroke-width=".4"/><path d="M361,251L361,254L358,254L359,255L358,260L357,261L352,261L350,263L346,262L339,260L338,258L333,259L333,261L330,260L327,259L325,258L326,256L326,255L327,255L329,257L330,255L334,255L338,254L340,254L342,255L342,254L341,249L343,249L345,245L349,248L351,245L353,244L357,246L359,246L361,247L361,248Z" fill="#E0E0E0" stroke="#fff" stroke-width=".4"/><path d="M386,249L389,251L389,252L386,254L384,259L381,264L377,265L374,265L370,266L369,268L365,266L361,263L359,262L358,260L358,260L359,255L358,254L361,254L361,251L364,253L366,253L370,252L370,251L372,251L374,250L375,250L377,249L378,247L380,247L385,249Z" fill="#E0E0E0" stroke="#fff" stroke-width=".4"/><path d="M408,250L409,249L413,248L416,250L418,251L420,253L420,255L422,256L422,259L424,261L424,262L425,263L423,263L421,263L420,262L419,263L419,264L418,266L417,269L416,269L415,266L416,263L415,260L413,256L411,253L410,251Z" fill="#E0E0E0" stroke="#fff" stroke-width=".4"/><path d="M416,269L418,271L420,270L423,271L423,272L420,274L419,273L418,282L415,281L411,278L405,280L403,282L396,281L392,280L390,281L389,278L388,277L389,276L388,275L386,276L384,274L383,271L380,270L380,268L377,265L381,264L384,259L386,254L389,252L391,251L394,252L397,252L400,253L401,252L405,252L406,250L408,250L410,251L411,253L413,256L415,260L416,263L415,266Z" fill="#E0E0E0" stroke="#fff" stroke-width=".4"/><path d="M408,192L408,195L404,198L403,203L398,206L393,206L392,203L389,203L389,200L389,198L387,197L382,195L381,188L387,185L395,186L400,185L400,187L403,187Z" fill="#E0E0E0" stroke="#fff" stroke-width=".4"/><path d="M411,175L414,177L414,182L416,187L410,190L408,192L403,187L400,187L400,185L395,186L387,185L381,188L381,181L384,176L388,173L392,179L396,179L397,172L401,171L403,172L407,175Z" fill="#E0E0E0" stroke="#fff" stroke-width=".4"/><path d="M415,157L415,158L412,164L413,172L411,175L407,175L403,172L401,171L397,172L398,167L396,168L393,165L392,159L398,157L404,155L410,157Z" fill="#E0E0E0" stroke="#fff" stroke-width=".4"/><path d="M348,207L349,211L347,214L349,216L350,221L350,223L352,228L350,229L348,228L347,230L344,231L342,233L338,235L339,237L340,240L342,242L345,245L343,249L341,249L342,254L342,255L340,254L338,254L334,255L330,255L329,257L327,255L326,255L320,253L319,254L315,254L316,249L318,244L311,243L309,241L309,238L308,236L309,231L308,223L311,223L312,220L313,212L313,209L313,208L317,207L318,209L322,205L321,202L320,197L324,198L327,197L327,200L332,202L332,205L337,204L340,201L345,205Z" fill="#E0E0E0" stroke="#fff" stroke-width=".4"/><path d="M389,278L390,281L392,280L396,281L403,282L405,280L411,278L415,281L418,282L415,284L413,289L415,293L411,292L406,294L406,297L401,298L398,296L394,297L390,297L390,293L388,291L388,290L388,289L389,287L391,285L388,282L388,279Z" fill="#E0E0E0" stroke="#fff" stroke-width=".4"/><path d="M407,334L406,336L399,337L399,336L393,335L394,332L397,334L400,334L404,334L404,335ZM390,297L394,297L398,296L401,298L406,297L406,294L408,296L407,300L405,300L402,300L400,300L394,301L397,305L395,306L392,306L390,303L389,304L390,308L392,311L390,312L393,315L396,317L396,320L391,319L393,322L389,322L391,328L388,328L384,325L382,320L381,316L380,313L377,310L377,308L379,305L379,303L381,302L381,300L384,300L386,298L389,298L389,297Z" fill="#E0E0E0" stroke="#fff" stroke-width=".4"/><path d="M496,323L494,324L492,323L487,322L484,323L479,324L476,324L471,326L467,326L464,325L459,327L457,325L457,329L456,330L454,331L453,329L454,326L451,327L447,326L444,329L437,330L433,326L428,326L426,329L423,329L418,326L413,326L410,320L407,317L409,312L406,309L411,303L419,303L421,298L430,299L436,295L442,293L450,293L458,297L465,300L471,299L475,299L481,296L486,296L490,299L491,301L491,304L494,306L496,307L493,309L495,316L494,318ZM406,294L411,292L415,293L415,295L420,297L419,299L413,299L411,301L407,305L405,302L405,300L407,300L408,296Z" fill="#E0E0E0" stroke="#fff" stroke-width=".4"/><path d="M381,300L381,302L379,303L379,305L377,308L376,308L376,306L373,304L373,301L373,297L374,295L373,294L373,292L375,288L375,290L376,289L377,291L379,291L379,294L378,296L379,299Z" fill="#E0E0E0" stroke="#fff" stroke-width=".4"/><path d="M359,262L361,263L365,266L369,268L370,266L372,269L373,271L371,274L369,272L366,272L361,271L359,271L358,273L356,271L355,274L358,277L359,279L361,282L363,283L365,286L369,289L369,290L364,287L361,285L357,283L353,278L354,277L351,275L351,272L348,271L347,274L345,272L345,269L346,269L349,270L350,268L351,270L353,270L353,268L355,267L356,264Z" fill="#E0E0E0" stroke="#fff" stroke-width=".4"/><path d="M326,255L326,256L325,258L327,259L330,260L329,262L327,264L324,263L322,266L320,266L319,265L317,267L314,267L312,266L311,263L308,264L308,261L312,257L312,255L314,256L315,254L319,254L320,253Z" fill="#E0E0E0" stroke="#fff" stroke-width=".4"/><path d="M308,236L309,238L309,241L308,241L307,240L307,236Z" fill="#E0E0E0" stroke="#fff" stroke-width=".4"/><path d="M309,231L308,236L307,236L307,240L302,237L300,237L296,234L294,231L292,231L291,228L295,226L299,227L303,225L306,229Z" fill="#E0E0E0" stroke="#fff" stroke-width=".4"/><path d="M313,209L313,212L312,220L311,223L308,223L309,231L306,229L303,225L299,227L295,226L298,224L302,213L308,209Z" fill="#E0E0E0" stroke="#fff" stroke-width=".4"/><path d="M235,294L237,292L239,291L240,294L243,294L244,293L247,294L248,297L246,299L246,304L245,305L245,308L243,308L245,312L243,316L245,318L244,319L242,322L243,324L241,325L238,324L236,325L237,320L236,317L234,316L233,314L233,310L235,307L235,305L236,301L236,298L235,296Z" fill="#E0E0E0" stroke="#fff" stroke-width=".4"/><path d="M243,324L242,322L244,319L245,318L243,316L245,312L243,308L245,308L245,305L246,304L246,299L248,297L247,294L244,293L243,294L240,294L239,291L237,292L235,294L235,289L233,286L240,281L246,282L253,282L258,284L262,283L270,283L272,286L281,289L282,288L288,291L293,290L294,294L289,298L283,299L282,301L280,305L278,310L280,314L277,316L276,320L272,322L269,326L262,326L258,326L255,328L253,331L251,330L249,328L247,325Z" fill="#E0E0E0" stroke="#fff" stroke-width=".4"/><path d="M249,206L250,212L246,219L237,224L231,223L235,214L232,206L239,200L242,196L243,200L242,205L245,205Z" fill="#E0E0E0" stroke="#fff" stroke-width=".4"/><path d="M676,481L675,486L673,488L669,489L667,485L666,478L668,470L671,473L673,476Z" fill="#E0E0E0" stroke="#fff" stroke-width=".4"/><path d="M810,428L806,426L806,422L808,420L814,418L817,418L818,420L815,423L814,425ZM668,291L668,287L671,285L667,273L677,271L679,269L683,256L692,259L695,256L695,248L699,248L703,243L705,242L706,247L710,251L717,254L720,260L719,268L720,271L726,272L733,273L738,277L741,278L744,284L746,288L752,288L762,289L768,288L773,289L780,293L786,293L788,295L794,292L802,290L809,289L815,287L818,284L822,281L821,279L819,276L822,272L825,273L830,274L834,270L842,268L845,263L849,261L856,260L860,261L860,258L856,253L852,251L848,254L843,253L841,254L839,251L843,243L845,238L851,240L858,236L858,232L862,224L865,222L865,217L862,215L866,211L872,210L879,210L886,212L890,215L893,223L895,226L897,231L898,239L907,241L913,246L915,253L922,253L926,250L934,248L932,255L930,257L928,265L925,272L919,271L915,273L916,279L915,287L913,287L913,290L910,286L908,290L900,293L901,296L897,296L895,294L891,299L886,302L882,306L875,308L872,311L866,313L869,310L868,307L872,303L869,300L865,302L859,306L856,310L852,311L849,314L852,318L856,319L856,322L860,323L865,319L870,321L873,322L873,325L867,326L864,330L860,333L857,337L862,340L864,346L867,351L870,355L870,360L867,361L869,364L871,366L871,371L869,375L867,375L863,381L859,388L855,395L848,400L841,404L836,405L833,407L831,405L828,408L822,411L817,411L815,417L812,417L811,413L812,411L806,410L803,411L798,409L796,407L797,404L792,403L790,401L786,404L781,405L777,405L775,406L772,407L773,413L770,412L770,411L770,409L766,411L764,410L761,408L762,403L759,402L758,397L753,398L753,392L758,387L758,383L758,379L756,378L754,374L751,375L746,374L748,372L745,368L742,370L738,369L732,373L728,377L724,377L722,376L719,376L716,375L713,376L710,380L710,376L707,377L701,376L695,375L691,373L688,372L686,369L683,368L678,364L675,363L673,364L666,360L661,357L660,350L663,351L663,348L661,345L662,340L657,333L649,331L647,326L644,323L643,322L642,318L642,316L639,314L638,315L636,309L638,308L637,306L642,303L645,302L650,303L652,299L658,298L660,296L668,292Z" fill="#E0E0E0" stroke="#fff" stroke-width=".4"/><path d="M870,396L867,404L865,408L862,404L862,400L865,395L868,391L871,392Z" fill="#E0E0E0" stroke="#fff" stroke-width=".4"/><path d="M330,260L333,261L333,259L338,258L339,260L346,262L345,266L347,269L343,268L339,270L339,274L338,275L340,279L345,282L347,288L352,293L356,293L357,295L356,296L360,298L364,300L368,303L369,305L368,307L365,304L361,303L359,307L362,309L362,313L360,313L357,318L355,319L355,317L356,314L357,312L355,309L354,305L352,305L350,302L347,301L345,298L342,298L338,295L333,290L330,287L328,280L326,279L322,277L320,278L317,281L315,282L316,279L313,278L312,273L313,270L312,268L312,266L314,267L317,267L319,265L320,266L322,266L324,263L327,264L329,262ZM351,317L354,317L353,322L353,323L352,327L349,324L346,324L339,321L340,317L346,318ZM321,300L324,298L327,303L326,311L324,310L322,313L320,311L320,303L319,300Z" fill="#E0E0E0" stroke="#fff" stroke-width=".4"/><path d="M327,197L324,198L320,197L318,192L318,184L319,181L320,179L325,178L326,176L330,173L330,178L329,181L329,183L332,184L331,188L329,187L326,193ZM339,187L341,192L338,199L333,194L332,190Z" fill="#E0E0E0" stroke="#fff" stroke-width=".4"/><path d="M249,206L245,205L242,205L243,200L242,196L246,195L252,201ZM264,210L264,210L265,205L261,200L261,200L255,199L254,196L256,193L254,190L252,194L252,186L249,181L251,172L255,165L259,165L264,165L259,175L264,173L269,173L268,181L264,189L269,189L269,190L274,200L277,201L280,211L281,214L287,216L287,221L284,223L286,227L282,231L275,231L267,233L265,232L261,235L257,234L254,237L251,236L258,228L262,226L262,226L255,225L253,221L259,219L256,215L257,209Z" fill="#E0E0E0" stroke="#fff" stroke-width=".4"/><path d="M209,82L207,90L213,98L207,106L193,114L188,116L182,114L169,111L173,106L163,100L171,98L171,95L161,92L164,84L172,82L179,90L187,84L193,87L201,81Z" fill="#E0E0E0" stroke="#fff" stroke-width=".4"/><path d="M504,294L506,294L509,298L511,298L512,297L515,294L517,297L520,302L522,302L523,304L520,305L519,309L518,312L516,313L516,316L515,316L512,313L514,310L512,308L510,309L505,313L505,309L502,308L500,306L502,304L499,302L500,301L498,299L497,298L498,297L502,298L505,299L505,298L503,295ZM503,314L500,313L497,310L496,307L497,307L499,309L501,309L501,310Z" fill="#E0E0E0" stroke="#fff" stroke-width=".4"/><path d="M473,283L473,283L478,284L485,285L491,288L492,289L495,288L500,290L501,292L504,294L503,295L505,298L505,299L502,298L498,297L497,298L490,299L486,296L481,296L481,293L480,289L477,286L475,285Z" fill="#E0E0E0" stroke="#fff" stroke-width=".4"/><path d="M865,456L863,452L867,452L869,454L867,458ZM874,469L875,468L876,465L878,464L877,468L881,463L881,468L879,469L877,472L876,474L873,470ZM892,477L893,480L893,483L891,487L890,482L887,485L889,488L887,491L882,488L880,484L882,482L879,480L877,482L875,481L871,484L871,483L872,479L876,477L878,475L880,478L884,476L884,474L888,474L887,470L891,473L892,475ZM854,472L848,477L850,474L853,471L856,467L859,462L860,466L857,469ZM873,428L872,430L873,434L872,438L869,439L869,444L870,448L872,448L874,447L880,450L880,453L882,454L881,456L877,454L875,451L874,453L871,450L867,451L864,450L865,448L866,447L865,445L864,447L862,444L861,442L861,437L863,439L863,431L865,426L868,426L871,428L872,427ZM871,462L870,460L873,461L876,461L876,463L874,465L871,467L871,465ZM888,458L889,464L886,463L886,464L887,467L885,468L884,465L883,465L882,462L885,462L885,460L882,456L887,456Z" fill="#E0E0E0" stroke="#fff" stroke-width=".4"/><path d="M765,486L765,485L769,488L770,490L773,490L775,488L776,488L779,491L781,494L781,497L780,500L781,501L781,504L783,506L785,510L785,511L781,512L777,508L771,504L770,502L768,499L767,495L765,492L766,488ZM851,498L847,497L841,497L839,502L838,504L835,511L831,512L827,510L824,511L821,513L818,513L815,514L812,511L811,508L815,510L818,509L819,505L821,504L827,503L831,499L833,496L835,498L836,497L839,497L839,494L839,491L843,488L845,484L847,484L850,487L850,489L853,490L857,491L857,493L854,494L855,496Z" fill="#E0E0E0" stroke="#fff" stroke-width=".4"/><path d="M839,491L839,494L839,497L836,497L835,498L833,496L835,494Z" fill="#E0E0E0" stroke="#fff" stroke-width=".4"/><path d="M346,262L350,263L352,261L357,261L358,260L358,260L359,262L356,264L355,267L353,268L353,270L351,270L350,268L349,270L346,269L347,269L345,266Z" fill="#E0E0E0" stroke="#fff" stroke-width=".4"/><path d="M388,244L387,246L386,249L385,249L380,247L378,247L377,249L375,250L374,250L372,251L370,251L370,252L366,253L364,253L361,251L361,248L361,247L362,246L364,246L366,245L366,244L367,244L367,242L368,242L369,241L370,241L371,241L373,240L375,243L378,241L380,242L384,241Z" fill="#E0E0E0" stroke="#fff" stroke-width=".4"/><path d="M352,228L354,231L358,231L357,234L360,235L361,233L364,234L365,236L368,237L370,241L369,241L368,242L367,242L367,244L366,244L366,245L364,246L362,246L361,247L359,246L357,246L353,244L351,245L349,248L345,245L342,242L340,240L339,237L338,235L342,233L344,231L347,230L348,228L350,229Z" fill="#E0E0E0" stroke="#fff" stroke-width=".4"/><path d="M456,447L455,445L457,438L458,434L459,433L463,432L465,429L468,435L470,439L472,442L479,447L481,450L484,452L486,454L488,456L487,457L484,456L483,455L481,452L479,450L477,449L473,447L470,446L469,445L466,447L463,444L461,448Z" fill="#E0E0E0" stroke="#fff" stroke-width=".4"/><path d="M967,311L963,317L963,323L961,328L962,331L959,335L953,338L945,339L938,345L935,343L934,339L926,340L920,343L915,343L919,347L916,357L913,359L911,357L912,352L909,350L907,346L911,344L914,341L919,338L922,334L932,332L937,333L942,322L946,325L953,319L955,317L959,309L958,302L960,298L965,297L968,306ZM981,280L984,277L985,284L978,286L974,293L966,288L963,296L958,296L957,289L960,284L965,284L966,274L968,269L974,276L977,278ZM921,345L924,342L927,342L929,340L932,341L933,343L930,347L928,345L926,346L924,350L921,348Z" fill="#E0E0E0" stroke="#fff" stroke-width=".4"/><path d="M531,424L535,432L537,436L533,437L532,439L532,441L527,443L520,446L515,449L513,449L512,449L509,451L506,452L502,452L500,453L499,454L498,454L497,456L495,456L493,456L490,456L489,453L489,450L488,449L487,445L486,443L487,443L486,441L487,440L487,437L489,436L488,434L489,431L491,432L493,432L498,432L499,432L504,433L506,433L507,434L509,433L513,428L517,426Z" fill="#E0E0E0" stroke="#fff" stroke-width=".4"/><path d="M449,369L454,370L456,368L457,366L461,365L462,363L463,362L459,357L468,354L469,353L475,354L482,358L496,370L505,370L509,371L510,373L514,373L516,378L518,379L519,381L522,383L523,386L522,387L523,389L524,391L525,392L526,394L527,395L528,394L529,396L529,398L531,403L546,406L547,405L549,408L546,419L531,424L517,426L513,428L509,433L507,434L506,433L504,433L499,432L498,432L493,432L491,432L489,431L488,434L489,436L487,437L486,435L484,434L484,432L482,430L479,426L478,421L474,418L472,417L469,412L468,408L469,405L466,399L463,397L461,396L459,393L460,392L458,389L457,388L455,384L452,380L449,376L447,376L448,373L448,371Z" fill="#E0E0E0" stroke="#fff" stroke-width=".4"/><path d="M438,335L438,335L439,334L442,334L447,332L443,335L444,336L443,336L442,336L442,336L441,336L441,336L441,335L440,335L439,336Z" fill="#E0E0E0" stroke="#fff" stroke-width=".4"/><path d="M438,335L439,336L440,335L441,335L441,336L441,336L442,336L442,336L443,336L444,336L444,336L439,339L437,338L436,336Z" fill="#E0E0E0" stroke="#fff" stroke-width=".4"/><path d="M268,335L270,339L271,343L272,349L274,350L273,352L266,353L264,355L261,356L261,360L255,362L254,365L250,367L245,367L237,372L237,378L236,378L236,381L233,381L232,382L230,382L228,382L224,382L222,386L221,387L218,394L212,399L210,407L208,409L207,411L197,411L196,411L197,409L198,407L200,405L200,403L201,399L204,396L206,395L207,392L207,389L209,386L212,384L215,378L215,378L218,376L222,375L226,372L229,370L233,365L231,358L233,354L234,350L237,347L242,344L245,342L249,335L250,332L254,332L257,334L261,334L266,335Z" fill="#E0E0E0" stroke="#fff" stroke-width=".4"/><path d="M458,408L439,408L420,408L400,408L400,389L400,369L399,365L400,361L399,359L401,356L408,356L412,358L417,359L419,360L423,358L425,357L429,356L433,357L434,360L435,358L439,359L443,360L445,358L448,366L448,368L447,370L446,374L445,377L444,378L442,376L440,374L436,366L436,366L438,372L441,378L444,386L446,389L448,392L452,398L451,399L451,403L457,407Z" fill="#E0E0E0" stroke="#fff" stroke-width=".4"/><path d="M400,408L400,419L395,419L395,421L375,411L356,401L351,404L348,406L345,403L337,401L335,397L331,395L329,396L327,393L327,390L324,387L326,384L326,381L326,378L326,375L327,371L327,368L325,363L327,362L328,360L327,357L331,355L332,353L334,352L335,347L340,349L342,349L347,350L353,352L355,357L360,358L366,361L372,364L374,362L376,360L375,355L377,352L380,350L384,349L390,350L392,353L394,353L395,354L400,354L401,356L399,359L400,361L399,365L400,369L400,389Z" fill="#E0E0E0" stroke="#fff" stroke-width=".4"/><path d="M511,479L497,493L491,494L487,497L483,497L482,499L479,499L477,497L472,499L471,501L468,501L467,500L465,500L464,500L458,496L454,496L453,495L453,492L450,491L447,486L445,485L444,483L442,480L439,480L441,477L443,477L444,475L444,471L445,466L448,465L448,462L450,459L453,456L455,451L456,447L461,448L463,444L466,447L469,445L470,446L473,447L477,449L479,450L481,452L483,455L484,456L483,459L481,461L482,462L482,464L484,464L485,464L487,464L485,466L487,469L489,471L491,473L507,479Z" fill="#E0E0E0" stroke="#fff" stroke-width=".4"/><path d="M484,456L487,457L488,456L489,457L489,459L486,460L488,462L487,464L485,464L484,464L482,464L482,462L481,461L483,459Z" fill="#E0E0E0" stroke="#fff" stroke-width=".4"/><path d="M516,462L516,462L516,464L516,469L516,472L514,475L511,479L507,479L491,473L489,471L487,469L485,466L487,464L488,462L490,463L491,465L493,467L495,467L500,466L505,465L510,463L512,463L514,462Z" fill="#E0E0E0" stroke="#fff" stroke-width=".4"/><path d="M443,522L434,523L428,523L427,523L424,525L423,524L423,521L424,519L424,515L425,513L427,510L429,509L430,507L428,506L429,501L431,499L434,500L438,499L441,499L444,497L446,501L447,503L449,509L447,512L445,515L443,517Z" fill="#E0E0E0" stroke="#fff" stroke-width=".4"/><path d="M369,289L365,286L363,283L361,282L359,279L358,277L355,274L356,271L358,273L359,271L361,271L366,272L369,272L371,274L373,274L372,277L374,279L373,282L372,283L371,283L370,285Z" fill="#E0E0E0" stroke="#fff" stroke-width=".4"/><path d="M388,291L390,293L390,297L389,297L389,298L386,298L384,300L381,300L379,299L378,296L379,294L380,294L380,292L383,291L384,291L385,291Z" fill="#E0E0E0" stroke="#fff" stroke-width=".4"/><path d="M370,266L374,265L377,265L380,268L380,270L383,271L384,274L386,276L388,275L389,276L388,277L389,278L388,279L388,282L391,285L389,287L388,289L388,290L388,291L385,291L384,291L384,291L384,290L385,288L384,288L383,287L382,287L382,286L381,285L380,284L379,285L378,287L377,287L378,287L376,286L374,285L374,284L372,283L373,282L374,279L372,277L373,274L371,274L373,271L372,269Z" fill="#E0E0E0" stroke="#fff" stroke-width=".4"/><path d="M376,289L375,290L375,288L373,292L373,294L372,293L371,291L369,290L369,289L370,285L371,283L372,283L374,284L374,285L376,286L378,287L377,287Z" fill="#E0E0E0" stroke="#fff" stroke-width=".4"/><path d="M379,294L379,291L377,291L376,289L377,287L378,287L379,285L380,284L381,285L382,286L382,287L383,287L384,288L385,288L384,290L384,291L384,291L383,291L380,292L380,294Z" fill="#E0E0E0" stroke="#fff" stroke-width=".4"/><path d="M-20,465L-17,465L-16,465L-17,468L-21,469L-22,469L-20,467Z" fill="#E0E0E0" stroke="#fff" stroke-width=".4"/><path d="M429,501L424,497L423,495L420,496L418,496L417,497L415,496L412,492L411,491L407,489L406,486L404,484L401,481L401,480L398,478L395,476L396,475L398,474L399,470L401,468L404,467L405,468L407,471L409,472L411,471L414,471L415,472L420,472L420,471L422,470L423,469L425,468L429,470L431,470L434,466L436,464L436,461L435,459L438,459L438,458L440,458L440,462L440,465L443,467L443,469L443,472L444,472L444,475L443,477L441,477L439,480L442,480L444,483L445,485L447,486L450,491L447,494L444,497L441,499L438,499L434,500L431,499Z" fill="#E0E0E0" stroke="#fff" stroke-width=".4"/></g><g clip-path="url(#v)"><path d="M396.2,89.6L395.7,87.4L395.4,86.5L395.0,85.5L394.2,85.0L394.1,84.7L394.0,84.2L394.0,83.6L393.8,82.7L393.9,81.9L394.0,81.5L394.3,81.2L394.8,80.3L394.9,79.7L394.9,78.7L395.1,77.9L395.4,77.4L395.3,77.1L395.2,76.6L394.8,75.9L394.3,75.1L393.9,74.3L393.7,73.5L393.6,72.8L393.6,72.2L393.8,71.8L394.3,71.2L394.4,71.0L394.1,69.8L393.8,69.6L393.2,69.5L392.9,69.5L392.8,69.3L392.8,69.1L392.9,68.6L393.0,68.0L393.2,67.7L393.2,67.4L393.0,66.3L393.0,65.0L393.0,64.0L393.7,63.3L393.7,63.0L392.9,62.2L392.3,61.3L392.1,60.7L391.5,60.6L391.1,59.1L390.5,58.3L389.9,57.6L389.5,57.3L387.5,56.4L386.7,56.2L385.7,55.6L385.0,54.9L384.4,54.4L383.9,53.9L383.1,53.3L382.9,52.9L382.1,52.0L381.8,51.5L380.5,50.4L380.4,50.0L380.4,49.6L380.4,49.5L379.1,48.7L379.3,48.2L380.3,48.2L381.2,48.6L381.4,48.5L381.5,48.1L381.1,46.6L381.2,46.3L381.6,45.8L382.2,45.4L383.1,45.4L383.8,45.4L383.9,45.5L384.9,47.1L385.7,48.6L386.1,49.3L387.2,51.1L387.6,52.2L387.7,52.9L388.2,52.9L389.7,53.3L390.9,53.5L391.3,54.0L392.2,53.9L392.8,53.5L394.0,53.0L394.3,52.4L394.7,51.8L395.4,51.9L396.2,52.4L397.0,53.1L397.8,53.4L398.8,53.8L399.3,54.5L400.0,54.6L400.7,54.0L401.1,52.3L401.5,51.6L402.0,51.0L402.6,50.8L403.1,50.7L403.4,50.3L403.9,49.3L404.0,48.1L403.9,46.0L404.0,45.3L404.4,44.2L405.0,41.1L405.2,40.2L405.5,39.7L405.9,39.3L406.6,38.4L407.7,36.5L408.0,36.4L408.7,36.3L409.7,36.3L410.5,36.7L410.6,36.7L411.0,36.5L411.7,35.9L412.9,34.7L413.6,34.4L414.3,34.4L415.1,35.7L416.2,37.1L416.9,37.8L418.7,39.1L420.4,39.9L421.3,42.7L420.9,43.8L420.6,44.2L419.8,45.3L418.9,46.8L418.9,47.6L419.2,48.4L419.5,48.9L419.2,49.0L418.2,49.7L417.6,50.1L416.9,50.5L417.0,50.9L418.3,51.0L418.5,51.1L418.6,51.3L418.6,51.7L418.5,52.3L417.2,55.4L417.1,56.0L417.6,57.8L418.2,60.0L420.0,60.9L421.4,61.6L422.3,63.3L423.7,65.6L424.5,66.4L424.5,66.7L424.3,68.2L423.3,69.8L422.5,71.0L421.6,72.6L420.9,73.9L420.1,75.5L420.0,76.0L420.0,76.4L420.2,77.0L421.1,78.9L421.5,79.8L422.0,80.8L422.3,82.0L422.6,83.0L422.9,84.0L423.2,84.5L423.6,85.2L424.1,86.2L424.2,87.0L425.0,89.8L425.0,90.5L425.0,91.0L424.7,91.2L424.0,91.3L423.2,91.6L423.2,91.7L423.7,92.4L423.2,93.5L423.2,95.1L422.7,95.9L422.7,96.1L422.7,96.3L422.8,96.4L423.6,96.6L423.7,96.8L423.7,97.3L423.6,97.7L423.2,98.1L422.7,98.5L422.6,99.0L422.6,99.3L422.8,100.0L423.1,100.7L423.5,101.2L424.9,101.7L425.1,102.0L425.2,102.5L425.1,103.0L424.5,104.0L424.5,104.4L424.7,105.3L425.1,106.2L426.4,107.1L426.9,107.6L427.0,108.0L427.1,108.7L427.1,109.4L427.0,110.0L426.6,110.8L425.6,112.4L424.6,113.0L424.5,113.2L424.8,113.7L426.6,115.7L427.7,116.6L429.3,117.9L430.3,118.9L430.6,119.6L431.0,120.4L431.5,121.0L431.9,121.6L432.0,122.0L432.0,122.3L431.5,123.5L431.3,124.4L430.8,125.7L430.3,126.6L429.1,128.3L427.3,130.3L426.9,130.9L426.0,132.0L424.6,134.1L424.2,134.6L423.1,136.3L422.5,136.8L422.1,137.3L420.9,138.9L419.7,140.1L418.4,141.2L418.1,141.8L417.6,142.2L417.1,142.6L416.8,142.8L415.6,144.3L413.9,146.4L413.7,146.4L413.2,146.8L412.5,146.9L412.2,147.1L411.2,146.4L411.0,146.3L410.4,146.5L409.8,147.1L408.6,147.2L408.1,147.4L407.7,147.6L407.7,147.1L407.8,146.3L408.1,145.8L408.1,145.5L407.9,145.5L407.5,146.2L407.4,147.1L407.0,147.5L406.1,147.7L405.3,147.0L404.9,147.0L405.2,147.5L405.3,148.0L405.3,148.3L404.9,148.3L404.4,148.6L404.0,149.0L403.8,149.0L403.5,148.4L402.9,148.7L402.5,149.1L401.6,149.2L401.0,149.8L400.1,150.1L399.6,150.1L398.4,150.5L398.0,151.2L397.6,151.4L397.1,151.2L395.6,151.6L394.1,152.0L393.5,152.0L392.8,151.8L392.2,152.4L391.5,153.2L390.7,153.4L390.4,153.3L390.6,152.9L391.1,152.5L391.5,151.9L391.5,151.4L391.3,151.2L391.0,151.2L390.6,150.7L390.2,149.6L389.9,149.6L389.8,149.8L389.7,150.7L389.6,150.9L389.4,151.1L389.1,151.3L388.9,151.4L388.0,151.4L387.9,151.0L387.9,150.8L388.0,150.2L387.9,150.1L388.0,149.7L388.2,149.7L388.5,149.7L388.6,149.4L388.6,149.2L388.2,149.1L388.2,148.9L388.5,148.1L388.6,147.9L388.4,147.9L388.3,148.0L387.0,147.7L385.4,146.8L385.0,146.7L384.8,145.8L384.4,145.9L383.9,146.5L383.4,146.1L383.0,145.8L382.9,145.4L382.9,144.8L382.8,144.1L382.7,143.3L382.6,142.1L382.7,141.2L383.1,140.5L383.2,140.1L383.4,139.0L383.4,137.7L383.3,137.2L383.4,136.9L383.6,136.9L383.6,136.7L383.4,136.5L383.3,136.2L383.4,136.1L383.8,136.1L383.8,136.0L383.8,135.8L383.6,135.1L383.5,134.7L383.2,133.6L382.8,132.5L382.1,131.7L382.4,130.5L382.6,129.3L382.5,128.7L382.5,128.1L381.7,127.3L381.6,126.3L381.4,125.1L381.5,124.4L381.6,123.9L381.8,123.4L383.1,121.7L383.2,120.8L384.0,120.7L383.6,119.9L383.5,119.5L383.5,118.9L384.8,118.6L385.2,118.9L386.3,118.5L387.3,117.8L387.3,117.4L387.1,117.1L386.9,116.4L387.1,116.2L387.4,116.4L387.2,116.0L387.3,115.7L387.7,115.8L388.3,114.9L388.3,114.1L389.4,113.7L390.7,112.2L391.2,111.7L391.8,111.4L393.0,109.9L393.5,109.8L393.8,108.8L394.8,107.4L395.1,107.2L395.5,105.9L396.8,104.5L397.6,102.6L398.0,102.0L398.1,101.3L398.6,101.2L399.1,100.7L400.0,100.3L400.9,100.4L401.3,100.6L401.7,100.6L401.7,99.9L401.4,99.5L401.6,99.2L402.1,98.9L402.1,98.2L401.9,97.8L401.5,97.3L401.7,96.2L401.8,94.9L402.0,93.4L401.5,92.6L399.5,91.3L399.1,91.3L398.7,91.2L398.3,90.2L398.5,89.3L398.5,88.9L398.3,89.0L398.0,89.4L397.4,89.9L396.6,89.5ZM385.7,148.4L385.4,148.4L384.9,147.9L384.8,147.7L385.0,147.6L384.9,147.2L384.9,147.1L385.3,147.4L385.5,147.7L385.3,147.8L385.6,148.2ZM381.9,118.5L382.0,118.7L382.3,118.7L382.7,118.3L382.9,118.5L382.9,119.0L382.7,119.0L382.7,118.9L382.4,119.2L382.4,119.4L382.1,119.5L381.6,119.0L381.3,118.1L382.0,118.1L382.0,118.3ZM386.6,148.0L387.2,148.3L387.5,148.2L387.8,148.7L387.2,149.0L387.2,149.4L387.4,149.7L387.5,150.0L387.0,150.0L386.8,149.7L386.7,149.4L386.4,149.1L386.1,148.9L386.3,148.6L386.4,148.2ZM383.1,146.5L383.0,146.9L382.7,146.9L382.3,147.0L382.1,146.5L381.9,145.7L382.0,145.6L382.2,145.4L382.3,145.8ZM384.9,150.3L384.4,150.6L384.3,150.5L384.3,150.0L384.6,149.7L385.1,149.7ZM383.9,150.6L383.5,150.7L383.2,150.4L383.4,150.2L383.6,150.0L384.0,150.0L384.0,150.3ZM399.6,99.1L398.8,99.5L398.3,99.2L398.2,98.5L398.6,98.1L399.2,98.0L400.2,98.3L400.3,98.5L399.8,98.7Z" fill="#4ECDC4" stroke="#2C3E50" stroke-width="1"/></g><circle cx="400.0" cy="150.0" r="4" fill="#E74C3C" stroke="#fff" stroke-width="2"/><text x="400.0" y="140.0" text-anchor="middle" font-family="sans-serif" font-weight="700" font-size="10" fill="#2D3436">Helsinki</text></svg>