<svg viewBox="0 0 800 300" xmlns="http://www.w3.org/2000/svg"><defs><clipPath id="v"><rect width="800" height="300"/></clipPath></defs><rect width="800" height="300" fill="#DCEEF8"/><g clip-path="url(#v)"><path d="M22,104L22,104L32,110L32,111L35,114L34,117L34,119L36,120L36,120L35,122L36,123L35,124L36,126L37,128L38,129L36,130L33,131L32,131L31,132L29,132L28,133L25,132L23,132L23,128L22,127L21,126L19,126L17,125L15,125L14,124L13,124L12,120L10,119L10,117L10,116L10,113L11,113L12,112L13,111L13,110L13,110L13,109L13,108L13,108L14,106L12,105L13,104L16,104Z" fill="#E0E0E0" stroke="#fff" stroke-width=".4"/><path d="M-90,26L-90,27L-90,27L-90,32L-98,31L-98,39L-101,39L-102,40L-101,45L-111,45L-112,45L-112,44L-112,44L-106,44L-105,43L-104,42L-104,38L-100,35L-99,31L-98,31L-97,29L-95,28L-94,29L-93,29L-92,28L-90,28L-90,26Z" fill="#E0E0E0" stroke="#fff" stroke-width=".4"/><path d="M162,-47L160,-44L157,-44L157,-40L156,-38L151,-39L149,-33L147,-32L142,-30L145,-24L143,-23L143,-21L141,-21L140,-23L136,-23L132,-23L131,-23L127,-24L126,-24L125,-21L121,-23L119,-22L119,-21L117,-20L114,-18L113,-15L112,-15L111,-17L108,-17L107,-20L106,-20L106,-23L103,-26L98,-26L95,-25L93,-28L91,-30L86,-32L86,-33L79,-30L79,-17L78,-17L76,-20L74,-21L71,-20L70,-19L70,-20L71,-21L70,-22L67,-24L66,-27L65,-28L65,-29L67,-29L67,-31L69,-32L72,-31L72,-35L72,-37L69,-37L67,-38L64,-37L61,-36L60,-36L60,-38L59,-41L57,-41L54,-43L56,-46L55,-47L57,-52L60,-49L60,-52L66,-57L70,-57L76,-54L79,-52L81,-54L86,-54L89,-52L90,-53L93,-53L94,-55L90,-58L92,-60L92,-61L94,-62L92,-65L94,-67L103,-69L105,-70L111,-71L114,-73L118,-72L119,-68L122,-69L125,-67L125,-65L128,-65L134,-69L133,-68L137,-64L142,-53L144,-56L147,-53L151,-54L153,-54L154,-51L156,-50L157,-49L160,-49Z" fill="#E0E0E0" stroke="#fff" stroke-width=".4"/><path d="M79,-17L79,-30L86,-33L86,-32L91,-30L93,-28L95,-25L98,-26L103,-26L106,-23L106,-20L107,-20L108,-17L111,-17L112,-15L113,-15L114,-18L117,-20L119,-21L119,-20L117,-18L119,-17L121,-18L124,-16L121,-13L119,-14L118,-13L117,-14L118,-16L114,-15L114,-13L112,-11L110,-11L109,-10L111,-9L112,-7L110,-3L108,-4L107,-4L107,-6L104,-7L101,-9L99,-11L96,-13L95,-16L94,-17L91,-17L90,-18L90,-20L86,-22L84,-20L82,-19L82,-17Z" fill="#E0E0E0" stroke="#fff" stroke-width=".4"/><path d="M302,109L307,110L311,112L313,113L315,114L315,116L319,118L320,119L318,119L318,121L321,123L322,126L324,126L324,127L326,127L325,128L328,129L327,130L326,130L325,129L323,129L320,128L318,127L317,125L315,123L312,122L310,122L308,123L308,125L306,126L305,126L302,126L302,117ZM332,111L333,112L334,113L333,114L332,113L332,112L331,111L329,110L327,109L328,108L329,109L330,110L331,110ZM329,117L328,118L326,118L325,118L323,118L321,117L321,116L324,116L325,116L326,115L326,115L326,116L328,116L328,115L330,114L330,113L331,113L332,113L332,114L331,116L329,116ZM338,116L339,116L340,118L341,119L341,120L340,120L339,119L338,117L337,115L338,115Z" fill="#E0E0E0" stroke="#fff" stroke-width=".4"/><path d="M302,109L302,117L302,126L300,123L297,123L296,124L293,124L294,122L296,121L295,118L294,116L289,114L287,113L283,111L282,112L281,112L280,112L280,110L278,109L281,108L283,108L283,107L279,107L278,106L276,105L275,104L278,104L279,103L284,104L284,105L285,109L287,111L290,108L293,106L295,106L297,107L299,108ZM260,125L260,126L260,126L259,128L256,129L256,129L256,128L257,126ZM284,120L284,118L284,117L285,116L286,117L286,118ZM241,91L240,93L242,96L241,97L244,99L241,100L240,101L241,104L238,106L238,108L237,112L237,111L234,112L233,111L231,111L229,110L226,111L225,110L224,110L221,109L221,106L220,105L218,103L218,101L218,98L220,96L220,98L222,100L224,99L226,99L227,98L228,98L231,99L233,98L234,94L235,93L236,90L239,90ZM272,109L274,110L275,112L273,111L271,111L269,111L268,111L268,109ZM265,112L263,111L263,110L265,110L266,111ZM268,96L268,97L270,98L270,99L270,101L268,101L268,102L269,104L268,104L267,102L266,99L267,97ZM255,99L258,99L260,97L261,98L259,101L257,101L254,101L250,101L247,101L247,103L249,105L251,104L256,103L256,105L254,104L253,106L251,107L253,110L253,111L255,114L255,116L254,116L253,116L254,113L252,114L251,114L251,113L249,111L250,109L248,109L248,112L248,116L246,117L245,116L246,113L246,111L245,111L244,109L245,107L245,105L247,101L247,100L249,98L251,99ZM248,129L244,127L247,126L248,127L249,128L249,129ZM251,124L252,124L255,123L254,124L250,125L247,125L247,124L249,123ZM242,124L244,123L245,125L242,125L240,125L238,125L239,124L241,124L242,123ZM217,119L217,119L222,120L223,119L228,120L229,122L233,122L236,124L233,125L230,124L228,124L225,124L222,123L219,122L217,122L216,122L212,121L211,120L209,120L210,117L214,117L216,118ZM206,105L207,106L207,108L209,108L211,110L210,113L210,117L207,117L205,115L201,113L200,111L198,109L197,107L195,103L193,101L192,99L191,97L189,95L187,93L185,92L183,89L182,87L184,87L188,88L190,91L192,92L194,93L196,96L199,96L201,98L203,100L205,101L204,104L205,104Z" fill="#E0E0E0" stroke="#fff" stroke-width=".4"/><path d="M10,113L10,116L10,117L10,119L12,120L13,124L12,123L9,124L8,124L7,126L8,127L7,130L7,133L8,133L10,134L10,134L11,137L9,137L8,135L7,134L5,134L4,132L2,133L0,133L-1,132L-2,131L-4,131L-4,131L-5,130L-6,130L-7,131L-9,131L-9,131L-9,128L-10,127L-10,125L-10,124L-10,122L-10,121L-13,121L-13,120L-15,120L-15,120L-16,120L-17,122L-17,123L-19,122L-20,123L-21,123L-22,122L-23,121L-24,119L-24,117L-32,117L-33,117L-34,117L-35,118L-35,117L-35,117L-35,115L-34,115L-33,114L-32,114L-32,113L-30,114L-30,114L-29,115L-27,113L-26,112L-25,111L-25,109L-24,106L-23,105L-21,104L-21,103L-21,102L-20,101L-21,99L-20,97L-20,96L-19,94L-19,93L-19,91L-18,89L-16,89L-14,89L-12,90L-10,91L-8,91L-8,90L-7,89L-6,90L-3,88L-2,89L-1,89L-1,88L0,88L2,88L4,88L5,88L6,90L7,90L8,90L9,90L11,90L11,91L14,93L13,96L14,96L14,97L13,98L12,99L11,100L11,102L10,103L10,105L10,106L9,107L9,108L9,109L9,110Z" fill="#E0E0E0" stroke="#fff" stroke-width=".4"/><path d="M42,106L40,104L40,94L42,91L43,91L45,91L47,89L51,89L58,81L60,78L61,77L61,75L61,73L61,72L61,72L62,72L63,71L64,71L66,70L67,70L67,71L66,72L66,74L66,75L65,78L64,80L62,84L60,88L58,91L55,94L52,96L48,99L46,101L43,104L42,105Z" fill="#E0E0E0" stroke="#fff" stroke-width=".4"/><path d="M35,114L32,111L32,110L22,104L22,104L22,101L22,100L24,99L25,97L23,94L23,92L22,91L23,89L25,87L27,88L27,89L28,90L29,90L33,92L33,92L34,92L35,93L36,93L37,92L40,91L41,91L42,91L40,94L40,104L42,106L40,107L39,108L38,108L38,110L37,111L37,113Z" fill="#E0E0E0" stroke="#fff" stroke-width=".4"/><path d="M-3,80L-5,79L-6,78L-6,77L-5,76L-5,75L-7,73L-7,72L-7,72L-8,71L-8,69L-9,68L-10,68L-9,67L-9,66L-9,65L-8,64L-9,64L-8,62L-7,60L-5,60L-5,49L-5,48L-2,48L-2,43L9,43L19,43L29,43L30,45L30,46L30,49L31,52L32,53L33,54L32,55L30,56L29,57L29,58L28,62L28,64L28,66L27,68L25,70L24,72L24,73L23,74L22,76L22,79L22,77L21,77L21,75L21,75L20,73L19,72L20,70L19,69L18,70L17,70L17,71L18,73L16,74L15,76L14,76L11,75L10,75L10,76L9,76L9,77L6,77L6,76L4,76L3,77L2,77L1,75L0,74L-2,75L-2,76L-3,78L-4,79L-5,79Z" fill="#E0E0E0" stroke="#fff" stroke-width=".4"/><path d="M-5,49L-5,60L-7,60L-8,62L-9,64L-8,64L-9,65L-9,66L-9,67L-10,68L-9,68L-8,69L-8,71L-7,72L-7,72L-9,73L-10,74L-12,77L-15,78L-17,78L-18,78L-18,79L-19,80L-20,81L-23,82L-24,81L-25,81L-25,82L-27,82L-27,81L-28,80L-28,79L-29,78L-31,77L-30,75L-29,76L-28,75L-27,75L-28,73L-28,71L-28,69L-29,68L-29,66L-31,66L-31,65L-32,64L-31,60L-27,58L-27,54L-26,48L-26,47L-27,46L-27,45L-28,45L-28,40L-26,39L-15,44Z" fill="#E0E0E0" stroke="#fff" stroke-width=".4"/><path d="M178,-280L184,-284L189,-275L195,-260L194,-248L189,-246L181,-250L177,-255L175,-266L172,-269ZM202,-253L209,-245L208,-240L193,-235L198,-253L200,-254ZM296,-214L303,-214L313,-208L311,-201L301,-201L297,-199L291,-205L293,-212ZM321,-206L327,-203L324,-199L320,-200L315,-204L316,-208ZM299,-187L301,-190L305,-191L308,-188L309,-185L305,-185L299,-186ZM50,-273L55,-276L59,-276L60,-272L61,-276L64,-278L68,-275L67,-272L63,-270L61,-269L60,-266L57,-264L55,-268L56,-272ZM-8,-68L-12,-68L-16,-69L-15,-71L-11,-72L-9,-72L-8,-71L-8,-70ZM73,-190L79,-199L78,-203L84,-209L93,-216L102,-218L106,-222L111,-223L113,-219L111,-215L102,-210L94,-205L86,-196L82,-186L78,-178L78,-171L83,-164L82,-164L73,-165L73,-168L68,-170L68,-175L70,-177L70,-181L75,-189ZM307,-66L308,-61L308,-57L309,-53L312,-46L308,-47L306,-41L309,-37L309,-35L307,-37L305,-34L304,-37L305,-41L304,-45L305,-48L305,-54L304,-58L304,-64L306,-66L305,-68L306,-69ZM-538,-151L-538,-151L-532,-145L-525,-139L-525,-134L-524,-133L-524,-138L-517,-137L-512,-130L-515,-128L-519,-127L-519,-121L-520,-120L-522,-120L-524,-122L-528,-124L-528,-126L-531,-128L-534,-127L-536,-129L-535,-131L-538,-130L-537,-127L-538,-124L-538,-124L-538,-151ZM404,-124L404,-124L401,-121L397,-122L400,-119L401,-114L402,-112L403,-110L402,-108L397,-110L390,-105L388,-105L384,-101L380,-98L379,-95L375,-99L368,-95L367,-97L364,-94L361,-95L360,-92L357,-87L357,-85L360,-84L360,-77L357,-77L356,-73L357,-71L353,-68L352,-63L348,-62L347,-58L343,-54L342,-57L341,-63L340,-73L341,-80L343,-83L343,-85L347,-86L352,-92L357,-98L361,-102L363,-110L360,-109L359,-105L352,-99L350,-105L343,-104L337,-95L339,-91L333,-90L329,-90L329,-93L325,-94L322,-92L314,-92L305,-91L297,-81L287,-70L291,-70L292,-67L295,-66L296,-68L299,-68L303,-63L303,-59L301,-55L301,-50L300,-44L296,-38L295,-35L291,-31L288,-27L286,-25L282,-23L281,-23L279,-24L276,-22L275,-20L275,-20L275,-21L275,-23L276,-23L277,-27L276,-30L278,-32L281,-31L283,-35L284,-39L285,-40L286,-44L282,-43L280,-41L276,-41L275,-45L272,-48L267,-49L266,-53L265,-56L264,-57L263,-62L260,-63L256,-65L253,-64L250,-64L247,-61L249,-60L249,-58L247,-57L245,-52L245,-50L241,-48L238,-49L235,-49L234,-50L232,-51L228,-48L225,-47L223,-46L219,-47L217,-47L215,-49L213,-51L210,-52L207,-51L204,-50L201,-52L200,-55L197,-56L195,-57L192,-58L189,-54L190,-52L187,-49L184,-50L181,-50L179,-52L177,-52L174,-53L170,-51L165,-48L163,-47L162,-47L160,-49L157,-49L156,-50L154,-51L153,-54L151,-54L147,-53L144,-56L142,-53L137,-64L133,-68L134,-69L128,-65L125,-65L125,-67L122,-69L119,-68L118,-72L114,-73L111,-71L105,-70L103,-69L94,-67L92,-65L94,-62L92,-61L92,-60L90,-58L94,-55L93,-53L90,-53L89,-52L86,-54L81,-54L79,-52L76,-54L70,-57L66,-57L60,-52L60,-49L57,-52L55,-47L56,-46L54,-43L57,-41L59,-41L60,-38L60,-36L61,-36L60,-34L58,-33L55,-29L57,-26L57,-23L60,-19L58,-18L58,-17L57,-17L55,-19L54,-19L53,-20L52,-21L49,-22L48,-22L47,-22L44,-24L40,-25L38,-25L37,-25L34,-28L31,-29L29,-31L31,-32L33,-35L31,-37L35,-38L35,-39L33,-38L33,-40L34,-41L37,-42L37,-43L37,-45L38,-47L38,-48L34,-50L32,-50L31,-51L29,-51L25,-52L25,-53L25,-55L22,-55L22,-56L23,-57L21,-60L18,-59L18,-59L17,-58L16,-59L15,-61L15,-63L15,-63L17,-63L18,-64L18,-65L16,-66L16,-67L15,-68L13,-71L14,-72L14,-74L11,-75L10,-75L9,-76L7,-77L6,-80L6,-82L4,-83L5,-85L5,-89L6,-92L6,-93L9,-96L6,-99L12,-105L14,-109L15,-112L11,-116L13,-119L10,-124L12,-129L9,-137L11,-142L7,-147L8,-152L10,-152L14,-155L17,-158L21,-153L28,-152L38,-144L40,-140L41,-136L38,-132L33,-131L22,-136L20,-135L24,-130L24,-127L24,-121L28,-119L30,-117L30,-120L29,-123L30,-125L37,-121L39,-123L37,-127L43,-134L45,-133L48,-131L49,-136L47,-140L49,-144L47,-148L54,-146L55,-142L52,-141L52,-137L54,-135L58,-136L59,-141L64,-144L73,-150L75,-150L73,-145L76,-145L78,-147L83,-147L87,-150L90,-146L93,-151L90,-155L91,-157L99,-155L103,-153L112,-145L114,-148L111,-152L111,-154L108,-154L109,-158L108,-164L107,-167L112,-174L114,-182L116,-184L123,-181L123,-177L121,-170L123,-167L123,-162L123,-151L126,-147L125,-142L119,-133L122,-132L123,-134L126,-136L127,-139L129,-142L128,-146L129,-151L126,-152L126,-156L128,-164L124,-170L129,-176L128,-182L130,-182L131,-177L130,-169L133,-168L132,-174L136,-177L141,-177L146,-173L144,-180L144,-189L148,-191L154,-191L160,-192L158,-197L161,-204L164,-204L169,-209L176,-210L177,-213L184,-214L186,-212L192,-218L197,-218L197,-223L200,-228L206,-232L211,-229L207,-226L213,-224L214,-218L216,-221L224,-221L230,-215L232,-211L231,-206L228,-203L221,-197L219,-194L223,-193L226,-191L229,-192L230,-186L231,-189L235,-190L244,-189L244,-185L255,-183L256,-190L261,-189L265,-189L269,-184L271,-178L269,-175L272,-168L277,-165L279,-173L283,-170L288,-172L293,-169L295,-172L299,-170L297,-178L301,-182L324,-176L326,-171L333,-165L344,-167L349,-165L351,-162L351,-157L354,-154L358,-156L362,-156L367,-155L372,-155L377,-149L380,-151L378,-156L379,-159L387,-157L393,-158L400,-154L404,-151L404,-124ZM404,-165L401,-165L401,-167L404,-171L404,-165ZM-538,-171L-538,-171L-538,-171L-538,-171L-536,-171L-532,-169L-532,-168L-535,-166L-538,-165L-538,-165L-538,-171ZM20,-34L21,-35L23,-34L24,-34L24,-33L25,-33L25,-33L26,-32L28,-32L28,-31L25,-30L22,-28L20,-29L21,-31L18,-32L18,-32L21,-34Z" fill="#E0E0E0" stroke="#fff" stroke-width=".4"/><path d="M-28,-259L-27,-264L-23,-264L-19,-259L-11,-249L-17,-243L-19,-234L-21,-232L-22,-222L-25,-221L-31,-229L-29,-233L-33,-237L-38,-248L-40,-259L-33,-264L-31,-259ZM14,-155L10,-152L8,-152L9,-157L5,-160L1,-157L0,-152L-2,-149L-5,-150L-9,-150L-12,-154L-13,-152L-15,-152L-15,-147L-20,-148L-21,-144L-23,-144L-25,-139L-28,-132L-32,-123L-31,-121L-32,-118L-34,-119L-36,-113L-36,-106L-34,-103L-35,-96L-37,-93L-38,-90L-40,-93L-45,-87L-49,-86L-52,-89L-53,-94L-54,-106L-52,-110L-45,-115L-40,-121L-35,-130L-29,-143L-24,-148L-17,-157L-11,-161L-7,-160L-3,-167L2,-166L7,-168L15,-162L11,-160ZM5,-265L1,-257L-7,-255L-15,-257L-15,-261L-19,-262L-22,-269L-14,-273L-10,-269L-7,-274L-1,-270ZM-2,-234L-8,-229L-13,-232L-11,-235L-13,-239L-7,-242L-6,-237Z" fill="#E0E0E0" stroke="#fff" stroke-width=".4"/><path d="M-190,-310L-181,-322L-172,-321L-168,-330L-159,-332L-138,-329L-122,-312L-127,-304L-137,-303L-151,-301L-149,-298L-140,-300L-132,-293L-127,-299L-125,-292L-128,-282L-121,-289L-108,-296L-101,-292L-99,-285L-110,-273L-111,-269L-120,-266L-114,-266L-117,-255L-119,-246L-119,-232L-116,-224L-120,-223L-124,-220L-119,-214L-118,-205L-121,-204L-118,-195L-124,-195L-121,-191L-122,-188L-125,-186L-129,-186L-126,-180L-126,-176L-131,-180L-132,-178L-129,-175L-125,-170L-124,-164L-129,-162L-131,-165L-134,-170L-133,-164L-136,-160L-129,-160L-126,-160L-133,-153L-140,-147L-147,-145L-150,-145L-153,-142L-157,-135L-162,-130L-164,-130L-168,-129L-171,-127L-174,-123L-174,-119L-175,-115L-179,-111L-178,-106L-179,-102L-181,-96L-184,-96L-188,-100L-194,-100L-196,-103L-198,-109L-202,-116L-204,-120L-204,-125L-208,-131L-207,-136L-208,-138L-206,-147L-202,-149L-201,-152L-200,-158L-203,-155L-205,-154L-207,-153L-210,-156L-210,-161L-209,-165L-207,-165L-202,-163L-206,-168L-209,-171L-211,-170L-213,-172L-210,-180L-212,-183L-214,-189L-217,-200L-221,-203L-221,-208L-228,-214L-233,-215L-240,-214L-246,-214L-250,-217L-254,-224L-247,-228L-242,-229L-253,-232L-259,-237L-259,-242L-249,-248L-239,-255L-238,-260L-245,-266L-243,-272L-234,-283L-230,-285L-231,-293L-225,-298L-217,-301L-209,-301L-206,-295L-199,-306L-193,-299L-189,-297L-184,-291L-190,-301Z" fill="#E0E0E0" stroke="#fff" stroke-width=".4"/><path d="M113,248L115,249L117,250L118,250L117,252L113,252L113,250L113,249Z" fill="#E0E0E0" stroke="#fff" stroke-width=".4"/><path d="M260,125L260,124L263,124L264,124L265,123L266,124L265,124L263,126L260,126L260,126Z" fill="#E0E0E0" stroke="#fff" stroke-width=".4"/><path d="M-24,180L-23,178L-22,179L-22,180L-20,181L-19,181L-17,181L-15,179L-15,169L-14,169L-13,172L-13,174L-12,175L-11,174L-9,173L-8,172L-7,171L-6,170L-5,170L-4,171L-2,171L0,171L0,170L1,168L2,168L3,167L4,165L6,163L10,161L11,161L12,162L13,161L15,161L16,165L16,168L16,171L16,172L15,171L14,171L14,172L13,173L13,174L15,176L16,176L17,174L19,174L18,177L18,179L17,180L15,182L15,182L14,184L13,185L12,188L9,191L7,193L5,194L2,195L1,195L0,196L-1,196L-3,196L-5,196L-7,196L-8,196L-11,197L-13,198L-15,199L-16,199L-17,198L-18,198L-19,196L-19,197L-19,196L-19,194L-20,192L-19,192L-19,189L-21,186L-22,184L-22,184ZM9,181L8,180L6,181L5,182L4,184L5,186L6,186L7,185L8,184L9,183L10,182Z" fill="#E0E0E0" stroke="#fff" stroke-width=".4"/><path d="M9,181L10,182L9,183L8,184L7,185L6,186L5,186L4,184L5,182L6,181L8,180Z" fill="#E0E0E0" stroke="#fff" stroke-width=".4"/><path d="M-207,196L-208,194L-206,192L-208,190L-210,189L-213,187L-214,187L-216,184L-218,185L-215,181L-212,178L-210,177L-208,175L-208,173L-209,171L-210,171L-210,170L-209,168L-209,167L-210,166L-211,166L-212,166L-213,165L-213,163L-213,162L-215,161L-216,162L-219,161L-219,157L-219,156L-219,155L-219,153L-218,152L-218,150L-218,148L-220,148L-220,147L-220,145L-225,145L-226,142L-225,142L-225,140L-225,140L-226,138L-227,137L-229,137L-230,137L-232,136L-233,135L-236,135L-238,132L-238,130L-238,129L-238,127L-242,128L-243,129L-245,130L-246,131L-247,131L-249,131L-251,131L-252,131L-252,127L-254,128L-256,128L-257,127L-259,127L-258,125L-260,124L-261,121L-260,121L-260,120L-259,119L-259,118L-258,117L-258,116L-255,114L-253,113L-253,113L-250,113L-249,106L-249,105L-249,103L-250,102L-250,100L-249,100L-248,100L-248,99L-250,99L-250,97L-245,97L-244,96L-243,97L-243,99L-242,98L-241,100L-239,100L-238,99L-236,98L-235,98L-235,97L-233,96L-233,95L-235,95L-236,94L-236,92L-237,91L-236,91L-234,91L-232,92L-232,91L-230,91L-227,90L-226,89L-226,88L-225,88L-224,89L-225,90L-224,90L-223,91L-224,92L-224,94L-223,96L-223,97L-222,98L-220,98L-220,98L-219,98L-218,97L-217,97L-216,97L-215,97L-214,97L-214,96L-214,96L-214,95L-213,95L-211,95L-210,96L-209,96L-208,95L-207,96L-207,96L-206,96L-205,95L-204,93L-202,91L-202,91L-201,92L-199,97L-198,97L-198,99L-200,101L-199,102L-194,102L-194,105L-192,103L-189,104L-185,106L-183,107L-184,109L-181,108L-176,109L-172,109L-168,111L-165,114L-163,115L-160,115L-159,116L-159,119L-158,121L-159,125L-160,127L-164,131L-166,134L-168,136L-168,136L-169,138L-169,143L-170,147L-170,149L-171,150L-171,154L-174,158L-174,161L-176,162L-177,164L-180,164L-184,165L-186,166L-189,167L-192,169L-194,172L-194,174L-194,176L-195,179L-195,180L-197,182L-200,187L-202,190L-204,191L-205,194Z" fill="#E0E0E0" stroke="#fff" stroke-width=".4"/><path d="M-202,91L-204,93L-205,95L-206,96L-207,96L-207,96L-208,95L-209,96L-210,96L-209,95L-209,93L-209,92L-210,91L-210,89L-208,87L-208,87L-206,88L-203,90ZM-51,-48L-50,-47L-46,-46L-47,-43L-48,-40L-48,-40L-50,-40L-49,-39L-51,-37L-51,-35L-50,-36L-49,-34L-49,-33L-49,-32L-49,-31L-49,-28L-47,-27L-48,-26L-50,-24L-55,-25L-59,-23L-59,-21L-62,-21L-65,-22L-66,-22L-71,-23L-72,-25L-71,-27L-70,-34L-73,-38L-75,-40L-79,-42L-79,-45L-76,-45L-71,-44L-72,-49L-70,-47L-64,-50L-63,-54L-61,-55L-60,-53L-59,-53L-58,-51L-56,-50L-55,-50L-52,-48L-52,-48ZM-44,-22L-43,-23L-42,-20L-43,-18L-44,-18L-45,-21Z" fill="#E0E0E0" stroke="#fff" stroke-width=".4"/><path d="M15,161L13,161L12,162L11,161L10,161L8,160L6,159L5,158L5,157L4,156L1,153L1,152L-0,151L-1,149L2,149L3,150L4,149L5,148L7,145L8,145L9,144L10,143L12,143L12,144L14,144L16,144L16,145L17,145L19,146L19,150L18,151L18,154L19,154L18,156L18,156L17,158Z" fill="#E0E0E0" stroke="#fff" stroke-width=".4"/><path d="M10,161L6,163L4,165L3,167L2,168L1,168L0,170L0,171L-2,171L-4,171L-5,170L-6,170L-7,171L-8,172L-9,173L-11,174L-12,175L-13,174L-13,172L-14,169L-15,169L-15,160L-12,160L-12,150L-10,150L-6,149L-5,150L-4,149L-3,149L-1,149L-1,149L-0,151L1,152L1,153L4,156L5,157L5,158L6,159L8,160Z" fill="#E0E0E0" stroke="#fff" stroke-width=".4"/><path d="M-15,169L-15,179L-17,181L-19,181L-20,181L-22,180L-22,179L-23,178L-24,180L-26,178L-27,175L-28,173L-29,170L-29,166L-29,163L-30,161L-31,160L-32,158L-34,154L-34,153L-36,150L-36,148L-35,147L-34,147L-32,147L-30,148L-30,148L-19,148L-18,149L-11,149L-6,148L-4,148L-3,148L-2,148L-1,149L-3,149L-4,149L-5,150L-6,149L-10,150L-12,150L-12,160L-15,160Z" fill="#E0E0E0" stroke="#fff" stroke-width=".4"/><path d="M-111,66L-112,64L-113,63L-112,62L-111,60L-110,59L-109,58L-108,58L-107,58L-105,58L-104,58L-102,59L-101,61L-99,63L-99,65L-98,66L-97,67L-97,68L-97,69L-98,69L-99,69L-99,69L-100,69L-102,69L-103,68L-108,68L-109,69L-109,69L-111,69L-111,67L-109,67L-108,67L-108,67L-107,66L-106,67L-105,67L-103,66L-104,65L-105,66L-106,66L-107,65L-107,65L-108,66Z" fill="#E0E0E0" stroke="#fff" stroke-width=".4"/><path d="M-97,69L-97,68L-97,67L-98,66L-99,65L-99,63L-98,63L-98,61L-97,61L-95,62L-94,61L-93,61L-92,61L-82,61L-81,59L-82,58L-83,46L-84,34L-80,34L-71,40L-62,47L-62,48L-60,49L-59,49L-59,51L-56,51L-56,57L-57,59L-58,60L-60,61L-64,61L-64,62L-66,62L-68,62L-69,62L-70,62L-72,63L-73,64L-75,65L-75,66L-76,66L-78,66L-78,67L-79,69L-81,71L-81,72L-81,73L-81,74L-82,75L-83,75L-83,74L-84,74L-85,74L-85,75L-87,75L-88,75L-88,75L-89,74L-89,73L-89,73L-90,73L-90,72L-89,72L-90,71L-90,70L-91,69L-92,69L-92,70L-93,70L-94,70L-95,70L-96,70L-96,69L-97,70L-97,70Z" fill="#E0E0E0" stroke="#fff" stroke-width=".4"/><path d="M-112,45L-111,45L-101,45L-102,40L-101,39L-98,39L-98,31L-90,32L-90,27L-80,34L-84,34L-83,46L-82,58L-81,59L-82,61L-92,61L-93,61L-94,61L-95,62L-97,61L-98,61L-98,63L-99,63L-101,61L-102,59L-104,58L-105,58L-107,58L-108,58L-109,58L-110,59L-110,57L-110,56L-109,53L-110,51L-110,49L-110,48L-110,47Z" fill="#E0E0E0" stroke="#fff" stroke-width=".4"/><path d="M-60,85L-62,86L-63,84L-63,78L-63,77L-63,76L-64,75L-65,74L-65,73L-64,72L-63,71L-62,71L-62,70L-61,69L-60,69L-58,71L-58,72L-57,73L-58,74L-57,75L-59,77L-60,78L-60,79L-60,81Z" fill="#E0E0E0" stroke="#fff" stroke-width=".4"/><path d="M-28,40L-28,45L-27,45L-27,46L-26,47L-26,48L-27,54L-27,58L-31,60L-32,64L-31,65L-31,66L-29,66L-29,68L-30,68L-30,69L-31,69L-32,66L-33,66L-35,67L-37,66L-38,66L-39,67L-41,67L-42,68L-44,68L-47,66L-48,67L-49,67L-50,66L-53,65L-56,65L-56,66L-57,67L-58,69L-58,71L-60,69L-61,69L-62,70L-61,68L-64,68L-65,66L-66,65L-66,63L-66,62L-64,62L-64,61L-60,61L-58,60L-57,59L-56,57L-56,51L-52,49L-45,44L-36,38L-32,40L-30,41Z" fill="#E0E0E0" stroke="#fff" stroke-width=".4"/><path d="M-60,85L-60,81L-60,79L-60,78L-59,77L-57,75L-58,74L-57,73L-58,72L-58,71L-58,69L-57,67L-56,66L-56,65L-53,65L-50,66L-49,67L-48,67L-47,66L-44,68L-42,68L-41,67L-39,67L-38,66L-37,66L-35,67L-33,66L-32,66L-31,69L-30,69L-29,70L-29,70L-29,71L-32,73L-32,75L-33,76L-33,77L-34,79L-35,80L-36,81L-36,82L-36,83L-38,84L-40,83L-41,83L-42,85L-43,85L-44,87L-45,89L-48,90L-49,90L-50,91L-52,91L-53,89L-54,87L-56,85L-58,85Z" fill="#E0E0E0" stroke="#fff" stroke-width=".4"/><path d="M-29,68L-28,69L-28,71L-28,73L-27,75L-28,75L-29,76L-30,75L-31,77L-29,78L-28,79L-28,80L-27,81L-27,82L-28,85L-29,85L-29,87L-29,89L-29,89L-28,91L-28,92L-27,93L-26,94L-26,95L-25,96L-25,97L-28,97L-30,96L-33,96L-33,96L-35,96L-36,96L-38,96L-42,96L-42,94L-43,92L-44,91L-44,90L-45,90L-45,89L-44,87L-43,85L-42,85L-41,83L-40,83L-38,84L-36,83L-36,82L-36,81L-35,80L-34,79L-33,77L-33,76L-32,75L-32,73L-29,71L-29,70L-29,70L-30,69L-30,68Z" fill="#E0E0E0" stroke="#fff" stroke-width=".4"/><path d="M-65,73L-65,74L-64,75L-63,76L-63,77L-63,78L-63,84L-62,86L-64,86L-65,85L-66,84L-66,82L-65,80L-66,79L-66,77L-66,75L-67,73L-67,73Z" fill="#E0E0E0" stroke="#fff" stroke-width=".4"/><path d="M-67,73L-67,73L-66,75L-66,77L-66,79L-65,80L-66,82L-66,84L-65,85L-64,86L-68,88L-70,89L-72,89L-75,89L-75,88L-76,85L-75,82L-74,80L-75,76L-75,74L-75,73L-70,73L-69,73L-68,72Z" fill="#E0E0E0" stroke="#fff" stroke-width=".4"/><path d="M-88,75L-88,75L-87,75L-85,75L-85,74L-84,74L-83,74L-83,75L-82,75L-81,74L-80,75L-80,76L-78,76L-78,76L-76,76L-75,76L-74,80L-75,82L-76,85L-75,88L-75,89L-76,89L-78,88L-79,88L-82,89L-84,89L-87,90L-87,90L-87,88L-87,88L-87,87L-88,86L-89,85L-90,85L-89,84L-89,82L-89,82L-89,82L-89,80L-89,80L-89,79L-88,79L-88,77L-89,76L-89,75Z" fill="#E0E0E0" stroke="#fff" stroke-width=".4"/><path d="M-103,68L-102,69L-100,69L-99,69L-99,69L-98,69L-97,69L-97,70L-97,70L-96,69L-96,70L-95,70L-94,70L-93,70L-92,70L-92,69L-91,69L-90,70L-90,71L-89,72L-90,72L-90,73L-89,73L-89,73L-89,74L-88,75L-89,75L-89,76L-88,77L-88,79L-89,79L-89,80L-89,80L-89,82L-89,82L-90,81L-91,83L-91,82L-92,82L-92,81L-93,79L-93,80L-94,80L-95,80L-95,79L-95,78L-95,77L-96,76L-96,75L-98,75L-99,76L-100,76L-100,76L-100,77L-102,78L-103,77L-104,76L-105,75L-105,75L-106,74L-106,73L-107,73L-106,71L-105,71L-104,71L-104,71L-103,71L-103,70L-103,69Z" fill="#E0E0E0" stroke="#fff" stroke-width=".4"/><path d="M-111,69L-109,69L-109,69L-108,68L-103,68L-103,69L-103,70L-103,71L-104,71L-104,71L-105,71L-106,71L-107,73L-108,71L-109,71L-110,71L-110,70L-111,70Z" fill="#E0E0E0" stroke="#fff" stroke-width=".4"/><path d="M-89,82L-89,82L-89,84L-90,85L-89,85L-88,86L-87,87L-87,88L-87,88L-87,90L-88,90L-91,89L-93,87L-95,86L-97,84L-96,83L-96,82L-95,81L-94,80L-93,80L-93,79L-92,81L-92,82L-91,82L-91,83L-90,81Z" fill="#E0E0E0" stroke="#fff" stroke-width=".4"/><path d="M-102,78L-100,77L-100,76L-100,76L-99,76L-98,75L-96,75L-96,76L-95,77L-95,78L-95,79L-95,80L-94,80L-95,81L-96,82L-96,83L-97,84L-98,84L-100,83L-101,81L-102,80Z" fill="#E0E0E0" stroke="#fff" stroke-width=".4"/><path d="M-81,74L-81,73L-81,72L-81,71L-79,69L-78,67L-78,66L-76,66L-75,66L-75,65L-73,64L-72,63L-70,62L-69,62L-68,62L-66,62L-66,63L-66,65L-65,66L-64,68L-61,68L-62,70L-62,71L-63,71L-64,72L-65,73L-67,73L-68,72L-69,73L-70,73L-75,73L-75,74L-75,76L-76,76L-78,76L-78,76L-80,76L-80,75Z" fill="#E0E0E0" stroke="#fff" stroke-width=".4"/><path d="M5,88L4,88L2,88L0,88L-1,88L-1,89L-2,89L-3,88L-6,90L-7,89L-8,90L-8,91L-10,91L-12,90L-14,89L-16,89L-18,89L-19,91L-19,93L-21,92L-22,92L-24,93L-25,96L-26,95L-26,94L-27,93L-28,92L-28,91L-29,89L-29,89L-29,87L-29,85L-28,85L-27,82L-25,82L-25,81L-24,81L-23,82L-20,81L-19,80L-18,79L-18,78L-17,78L-15,78L-12,77L-10,74L-9,73L-7,72L-7,73L-5,75L-5,76L-6,77L-6,78L-5,79L-3,80L-1,81L-1,82L0,83L1,85L2,86L4,87Z" fill="#E0E0E0" stroke="#fff" stroke-width=".4"/><path d="M-19,93L-19,94L-20,96L-20,97L-21,99L-20,101L-21,102L-21,103L-21,104L-23,105L-24,106L-25,109L-25,111L-26,112L-27,113L-29,115L-30,114L-30,114L-32,113L-32,114L-33,114L-34,113L-35,114L-36,115L-38,112L-36,111L-37,109L-36,108L-34,108L-34,107L-33,108L-31,108L-30,107L-29,105L-30,103L-31,102L-30,99L-30,98L-32,98L-33,97L-33,96L-30,96L-28,97L-25,97L-25,96L-24,93L-22,92L-21,92Z" fill="#E0E0E0" stroke="#fff" stroke-width=".4"/><path d="M-38,96L-36,96L-35,96L-33,96L-33,96L-33,97L-32,98L-30,98L-30,99L-31,102L-30,103L-29,105L-30,107L-31,108L-33,108L-34,107L-34,108L-36,108L-37,109L-36,111L-38,112L-41,109L-43,107L-44,105L-44,104L-43,103L-43,101L-42,99L-41,99L-38,99Z" fill="#E0E0E0" stroke="#fff" stroke-width=".4"/><path d="M-42,96L-38,96L-38,99L-41,99L-42,99L-43,99Z" fill="#E0E0E0" stroke="#fff" stroke-width=".4"/><path d="M13,124L14,124L15,125L17,125L19,126L20,127L21,129L20,130L20,132L20,135L19,135L18,138L20,139L12,141L12,143L10,143L9,144L8,145L7,145L5,148L4,149L3,150L2,149L-1,149L-1,149L-2,148L-3,148L-4,148L-6,148L-8,147L-10,144L-10,136L-4,136L-5,135L-4,134L-5,133L-4,131L-5,130L-4,131L-4,131L-2,131L-1,132L0,133L2,133L4,132L5,134L7,134L8,135L9,137L11,137L10,134L10,134L8,133L7,133L7,130L8,127L7,126L8,124L9,124L12,123Z" fill="#E0E0E0" stroke="#fff" stroke-width=".4"/><path d="M19,126L21,126L22,127L23,128L23,132L23,134L23,138L24,138L25,138L26,140L26,144L25,144L25,146L23,145L23,143L23,141L23,140L22,140L21,140L20,139L18,138L19,135L20,135L20,132L20,130L21,129L20,127Z" fill="#E0E0E0" stroke="#fff" stroke-width=".4"/><path d="M23,132L25,132L28,133L29,132L31,132L32,131L33,131L36,130L38,129L39,130L39,133L39,135L39,139L40,141L39,143L38,144L36,146L34,147L31,148L28,151L27,152L25,154L24,155L24,157L25,159L25,160L25,161L26,161L26,164L25,165L26,166L26,167L25,168L22,169L19,170L18,171L18,173L19,173L19,174L17,174L17,173L16,172L16,171L16,168L16,165L15,161L17,158L18,156L18,156L19,154L18,154L18,151L19,150L19,146L17,145L16,145L16,144L14,144L12,144L12,143L12,141L20,139L21,140L22,140L23,140L23,141L23,143L23,145L25,146L25,144L26,144L26,140L25,138L24,138L23,138L23,134Z" fill="#E0E0E0" stroke="#fff" stroke-width=".4"/><path d="M17,174L16,176L15,176L13,174L13,173L14,172L14,171L15,171L16,172L17,173Z" fill="#E0E0E0" stroke="#fff" stroke-width=".4"/><path d="M-33,114L-34,115L-35,115L-35,117L-35,117L-36,115L-35,114L-34,113ZM-35,118L-34,117L-33,117L-32,117L-24,117L-24,119L-23,121L-22,122L-21,123L-20,123L-19,122L-17,123L-17,122L-16,120L-15,120L-15,120L-13,120L-13,121L-10,121L-10,122L-10,124L-10,125L-10,127L-9,128L-9,131L-9,131L-7,131L-6,130L-5,130L-4,131L-5,133L-4,134L-5,135L-4,136L-10,136L-10,144L-8,147L-6,148L-11,149L-18,149L-19,148L-30,148L-30,148L-32,147L-34,147L-35,147L-36,148L-37,146L-36,144L-35,141L-35,140L-34,138L-34,136L-32,135L-31,133L-31,131L-31,130L-32,129L-33,127L-33,126L-33,125L-33,124L-33,122L-34,120L-35,118Z" fill="#E0E0E0" stroke="#fff" stroke-width=".4"/><path d="M13,108L13,109L13,110L13,110L13,111L12,112L11,113L10,113L9,110L9,109L10,109L11,108Z" fill="#E0E0E0" stroke="#fff" stroke-width=".4"/><path d="M26,11L26,12L25,12L24,14L25,14L24,14L24,15L26,15L26,16L24,21L24,20L23,16L23,15L23,14L24,13L24,11L25,10L25,10L26,10L26,9L27,9L27,10L26,11Z" fill="#E0E0E0" stroke="#fff" stroke-width=".4"/><path d="M27,9L26,9L26,10L25,10L26,7L27,5L27,5L28,5L29,6L27,8Z" fill="#E0E0E0" stroke="#fff" stroke-width=".4"/><path d="M63,135L63,136L64,138L64,141L65,142L65,143L64,144L63,143L63,143L63,145L63,147L62,147L62,149L61,153L60,157L58,162L57,166L56,169L54,170L52,171L50,170L48,169L47,168L47,165L46,163L46,161L47,159L48,158L48,157L49,155L49,154L49,152L48,151L48,148L49,146L49,145L51,145L52,144L53,144L54,144L56,142L58,140L59,139L58,138L59,138L61,136L61,135L62,133Z" fill="#E0E0E0" stroke="#fff" stroke-width=".4"/><path d="M26,15L24,15L24,14L25,14L24,14L25,12L26,12L26,14Z" fill="#E0E0E0" stroke="#fff" stroke-width=".4"/><path d="M-111,66L-108,66L-107,65L-107,65L-106,66L-105,66L-104,65L-103,66L-105,67L-106,67L-107,66L-108,67L-108,67L-109,67L-111,67Z" fill="#E0E0E0" stroke="#fff" stroke-width=".4"/><path d="M-42,18L-43,13L-45,12L-45,11L-47,9L-47,7L-46,5L-45,2L-46,-1L-45,-3L-42,-4L-40,-3L-41,-2L-38,-3L-38,-2L-39,-1L-39,1L-39,2L-39,4L-41,6L-40,8L-39,8L-38,9L-37,10L-37,12L-38,13L-39,14L-41,15L-41,16L-41,18Z" fill="#E0E0E0" stroke="#fff" stroke-width=".4"/><path d="M-90,27L-90,27L-90,26L-90,23L-86,21L-83,20L-81,19L-80,18L-77,17L-77,14L-75,14L-74,13L-71,12L-70,11L-71,11L-72,7L-72,5L-73,3L-70,1L-67,1L-66,-0L-63,-1L-59,-2L-55,-2L-53,-2L-51,-3L-48,-3L-47,-2L-45,-3L-46,-1L-45,2L-46,5L-47,7L-47,9L-45,11L-45,12L-43,13L-42,18L-41,21L-41,22L-42,25L-42,26L-42,28L-42,30L-43,31L-41,33L-41,34L-40,36L-39,35L-37,37L-36,38L-45,44L-52,49L-56,51L-59,51L-59,49L-60,49L-62,48L-62,47L-71,40L-80,34Z" fill="#E0E0E0" stroke="#fff" stroke-width=".4"/><path d="M26,12L26,11L29,12L34,9L35,13L35,13L30,15L32,18L31,18L31,19L29,20L28,21L27,22L24,21L24,21L26,16L26,15L26,14Z" fill="#E0E0E0" stroke="#fff" stroke-width=".4"/><path d="M68,36L68,36L68,37L70,36L73,37L74,37L76,35L78,33L80,31L80,32L80,34L79,34L79,36L79,37L78,37L78,38L77,39L77,41L77,41L69,40L68,37Z" fill="#E0E0E0" stroke="#fff" stroke-width=".4"/><path d="M66,35L66,33L66,31L67,31L68,32L68,33L67,35L67,35Z" fill="#E0E0E0" stroke="#fff" stroke-width=".4"/><path d="M58,19L59,21L59,21L60,24L58,24L57,22L55,22L57,19Z" fill="#E0E0E0" stroke="#fff" stroke-width=".4"/><path d="M35,13L34,9L40,6L41,2L41,-1L42,-1L44,-3L45,-4L48,-4L49,-3L50,-3L52,1L53,2L54,3L52,5L52,7L54,10L57,12L58,14L58,16L59,16L59,18L60,20L58,19L57,19L55,22L50,22L43,16L39,14Z" fill="#E0E0E0" stroke="#fff" stroke-width=".4"/><path d="M77,41L77,39L78,38L78,37L79,37L79,36L79,34L80,34L82,36L83,37L85,38L87,38L88,40L88,41L89,41L89,42L88,43L88,44L87,45L86,47L85,47L84,48L84,49L84,51L84,51L83,51L81,52L81,54L80,54L79,54L78,55L78,56L76,57L75,56L73,57L72,57L71,56L69,51L77,48L79,43ZM80,32L80,31L80,30L81,30L80,31Z" fill="#E0E0E0" stroke="#fff" stroke-width=".4"/><path d="M371,144L372,145L371,146L371,145ZM370,143L369,142L369,140L370,141L371,143L370,143Z" fill="#E0E0E0" stroke="#fff" stroke-width=".4"/><path d="M201,70L201,66L202,64L206,64L208,64L210,65L212,63L214,64L215,66L214,69L210,71L211,73L208,73L206,74L204,74L203,72Z" fill="#E0E0E0" stroke="#fff" stroke-width=".4"/><path d="M208,64L206,64L202,64L201,66L201,70L199,68L197,68L197,66L195,66L195,69L193,73L192,75L193,77L194,77L195,80L196,82L197,84L199,84L200,85L199,86L198,87L197,85L195,84L195,85L194,84L193,82L192,81L191,80L190,81L190,80L190,78L191,76L192,73L194,70L193,68L193,67L192,65L191,63L190,62L191,61L192,59L191,57L189,55L188,53L189,52L190,49L192,49L193,48L195,47L196,48L196,50L198,50L197,53L197,55L200,53L201,54L202,54L203,53L205,53L207,55L207,58L209,60L209,63Z" fill="#E0E0E0" stroke="#fff" stroke-width=".4"/><path d="M214,64L212,63L210,65L208,64L209,63L209,60L207,58L207,55L205,53L203,53L202,54L201,54L200,53L197,55L197,53L198,50L196,50L196,48L195,47L196,46L198,44L198,45L199,45L199,42L200,41L202,44L203,46L206,46L207,49L206,49L205,50L208,52L210,55L212,58L214,60L214,61Z" fill="#E0E0E0" stroke="#fff" stroke-width=".4"/><path d="M195,47L193,48L192,49L190,49L189,52L188,53L189,55L191,57L192,59L191,61L190,62L191,63L192,65L193,67L193,68L194,70L192,73L191,76L191,74L191,72L191,70L191,67L190,66L189,62L188,59L187,57L185,58L183,60L181,60L179,59L180,56L180,53L178,50L178,49L177,49L175,46L174,44L175,45L175,43L177,42L176,41L177,40L177,37L179,37L180,35L181,34L182,31L182,29L185,27L187,28L187,26L188,26L188,25L189,24L190,26L191,27L191,29L191,31L189,34L188,37L191,37L192,39L193,40L193,42L195,43L196,44L198,43L198,44L196,46Z" fill="#E0E0E0" stroke="#fff" stroke-width=".4"/><path d="M206,74L208,73L211,73L210,71L214,69L215,66L214,64L214,61L214,60L212,58L210,55L208,52L205,50L206,49L207,49L206,46L203,46L202,44L200,41L202,41L204,41L206,40L209,39L210,40L212,40L212,42L213,43L216,44L212,46L210,49L209,51L211,54L214,57L216,59L218,61L219,66L219,71L217,73L214,74L211,77L208,79L207,77L208,76Z" fill="#E0E0E0" stroke="#fff" stroke-width=".4"/><path d="M275,-20L275,-20L275,-20ZM275,-21L275,-20L274,-21L273,-19L272,-18L272,-16L271,-15L271,-14L270,-13L268,-13L267,-12L267,-10L266,-10L267,-10L269,-8L268,-7L267,-7L266,-7L265,-5L263,-5L263,-5L262,-6L262,-5L261,-5L261,-6L260,-6L259,-6L260,-8L261,-8L260,-9L261,-11L261,-11L259,-12L258,-12L260,-15L263,-17L265,-19L266,-18L268,-18L268,-20L272,-21L273,-23Z" fill="#E0E0E0" stroke="#fff" stroke-width=".4"/><path d="M263,-5L263,-5L265,-5L266,-7L267,-7L268,-7L269,-8L271,-4L272,-2L272,2L271,4L268,4L266,5L264,6L264,4L264,2L263,-2L265,-2Z" fill="#E0E0E0" stroke="#fff" stroke-width=".4"/><path d="M163,-47L165,-48L170,-51L174,-53L177,-52L179,-52L181,-50L184,-50L187,-49L190,-52L189,-54L192,-58L195,-57L197,-56L200,-55L201,-52L204,-50L207,-51L210,-52L213,-51L215,-49L217,-47L219,-47L223,-46L225,-47L228,-48L232,-51L234,-50L235,-49L238,-49L237,-46L235,-42L236,-41L237,-41L240,-41L242,-42L244,-41L246,-38L246,-37L244,-37L240,-37L238,-36L236,-33L233,-32L230,-30L227,-31L226,-31L224,-29L225,-27L226,-26L224,-25L222,-23L219,-22L215,-21L211,-20L208,-18L206,-19L203,-19L199,-21L197,-22L193,-22L188,-22L185,-22L184,-24L182,-28L181,-28L178,-30L174,-31L171,-32L170,-33L171,-38L169,-41L165,-42L163,-44Z" fill="#E0E0E0" stroke="#fff" stroke-width=".4"/><path d="M188,25L188,26L187,26L187,28L185,27L182,29L182,31L181,34L180,35L179,37L177,37L177,40L176,41L177,42L175,43L174,38L173,38L173,40L171,38L172,37L173,37L175,34L173,34L171,34L168,33L168,31L167,31L165,30L164,32L166,33L164,34L163,36L165,36L165,38L166,40L166,42L166,44L164,43L161,44L161,46L159,48L156,50L153,53L151,55L148,56L148,58L147,58L144,59L143,60L142,62L143,65L143,67L142,70L142,74L141,75L139,77L140,77L138,78L137,80L136,81L133,78L132,75L131,72L130,71L129,68L128,65L128,63L125,59L124,54L123,50L123,47L123,44L119,46L117,46L114,42L115,41L114,40L111,38L113,36L119,36L118,33L117,32L117,30L115,28L118,25L121,26L123,22L125,19L128,16L128,14L130,12L128,11L127,9L126,6L127,5L131,5L134,5L137,2L139,6L139,9L140,10L140,12L138,11L139,15L142,17L145,19L144,20L143,23L145,24L148,26L151,27L155,28L156,29L158,29L161,30L163,30L164,29L163,27L164,26L165,25L165,27L165,28L168,29L169,29L172,29L174,29L174,27L173,26L175,26L177,23L180,21L183,22L184,21L186,23L185,24Z" fill="#E0E0E0" stroke="#fff" stroke-width=".4"/><path d="M175,43L175,45L174,44L175,46L174,45L174,43L173,42L172,40L170,40L170,42L169,43L168,43L168,43L167,43L166,42L166,40L165,38L165,36L163,36L164,34L166,33L164,32L165,30L167,31L168,31L168,33L171,34L173,34L175,34L173,37L172,37L171,38L173,40L173,38L174,38Z" fill="#E0E0E0" stroke="#fff" stroke-width=".4"/><path d="M173,26L174,27L174,29L172,29L169,29L168,29L165,28L165,27L167,25L169,24L170,25L172,25Z" fill="#E0E0E0" stroke="#fff" stroke-width=".4"/><path d="M164,26L163,27L164,29L163,30L161,30L158,29L156,29L155,28L151,27L148,26L145,24L143,23L144,20L145,19L146,18L148,19L151,21L152,21L153,23L155,23L158,25L160,25Z" fill="#E0E0E0" stroke="#fff" stroke-width=".4"/><path d="M137,2L134,5L131,5L127,5L126,6L127,9L128,11L130,12L128,14L128,16L125,19L123,22L121,26L118,25L115,28L117,30L117,32L118,33L119,36L113,36L111,38L109,37L109,35L107,33L102,33L98,33L94,34L95,30L99,29L98,28L97,27L97,25L95,23L94,21L92,20L97,21L99,21L101,21L101,21L103,21L107,20L107,17L108,15L110,15L110,14L112,14L113,14L114,13L114,12L115,10L117,9L116,7L118,7L119,6L119,5L120,3L120,2L119,0L121,-1L124,-2L127,-2L128,-3L130,-3L132,-2L132,1Z" fill="#E0E0E0" stroke="#fff" stroke-width=".4"/><path d="M107,-4L108,-4L110,-3L111,-3L113,-4L114,-3L115,-5L116,-5L117,-5L117,-6L118,-8L120,-7L119,-6L120,-6L120,-3L121,-2L122,-3L123,-3L125,-4L126,-4L129,-4L130,-3L128,-3L127,-2L124,-2L121,-1L119,0L120,2L120,3L119,5L119,6L118,7L116,7L117,9L115,10L114,12L114,13L113,14L112,14L110,14L110,15L108,15L107,17L107,20L103,21L101,21L101,21L99,21L97,21L92,20L95,17L94,15L92,15L92,13L91,10L92,8L91,8L92,6L93,2L96,3L98,2L98,1L100,1L102,-0L102,-3L105,-4L105,-5L106,-4Z" fill="#E0E0E0" stroke="#fff" stroke-width=".4"/><path d="M110,-3L112,-7L111,-9L109,-10L110,-11L112,-11L114,-13L114,-15L118,-16L117,-14L118,-13L119,-14L118,-13L115,-13L115,-11L118,-11L121,-10L126,-11L126,-8L127,-8L129,-7L129,-6L129,-4L126,-4L125,-4L123,-3L122,-3L121,-2L120,-3L120,-6L119,-6L120,-7L118,-8L117,-6L117,-5L116,-5L115,-5L114,-3L113,-4L111,-3Z" fill="#E0E0E0" stroke="#fff" stroke-width=".4"/><path d="M119,-21L119,-22L121,-23L125,-21L126,-24L127,-24L131,-23L132,-23L136,-23L140,-23L141,-21L143,-21L143,-20L138,-18L138,-17L134,-16L133,-14L130,-15L129,-14L126,-12L126,-12L126,-11L121,-10L118,-11L115,-11L115,-13L118,-13L119,-14L121,-13L124,-16L121,-18L119,-17L117,-18L119,-20Z" fill="#E0E0E0" stroke="#fff" stroke-width=".4"/><path d="M70,-19L71,-20L74,-21L76,-20L78,-17L79,-17L82,-17L82,-19L84,-20L86,-22L90,-20L90,-18L91,-17L94,-17L95,-16L96,-13L99,-11L101,-9L104,-7L107,-6L107,-4L106,-4L105,-5L105,-4L102,-3L102,-0L100,1L98,1L98,2L96,3L93,2L93,-1L91,-1L88,-4L86,-4L83,-6L81,-6L80,-6L78,-6L76,-4L74,-3L74,-6L74,-9L72,-10L73,-13L71,-13L71,-16L74,-15L76,-16L74,-18L73,-20L71,-19L71,-17Z" fill="#E0E0E0" stroke="#fff" stroke-width=".4"/><path d="M60,20L59,18L59,16L58,16L58,14L57,12L54,10L52,7L52,5L54,3L53,2L52,1L50,-3L49,-6L49,-7L48,-11L50,-12L51,-10L52,-9L54,-8L55,-9L58,-11L59,-11L59,-10L59,-9L60,-7L61,-7L62,-5L64,-4L66,-2L70,-2L74,-3L74,-3L76,-4L78,-6L80,-6L81,-6L83,-6L86,-4L88,-4L91,-1L93,-1L93,2L92,6L91,8L92,8L91,10L92,13L92,15L94,15L95,17L92,20L94,21L95,23L97,25L97,27L98,28L99,29L95,30L94,34L89,33L86,32L83,32L82,28L81,28L79,28L76,30L73,29L70,27L68,26L66,23L64,19L63,19L61,18Z" fill="#E0E0E0" stroke="#fff" stroke-width=".4"/><path d="M26,11L26,11L27,10L27,9L27,8L29,6L28,5L27,5L27,2L27,1L28,0L29,-0L29,-2L30,-1L33,-2L34,-2L36,-2L39,-3L41,-3L44,-3L42,-1L41,-1L41,2L40,6L34,9L29,12Z" fill="#E0E0E0" stroke="#fff" stroke-width=".4"/><path d="M55,-9L54,-8L53,-10L53,-11L51,-11L51,-12L50,-12L49,-13L47,-14L47,-15L47,-17L51,-17L51,-16L52,-16L52,-15L53,-13L52,-12L53,-11L55,-11Z" fill="#E0E0E0" stroke="#fff" stroke-width=".4"/><path d="M-38,-90L-37,-93L-35,-96L-34,-103L-36,-106L-36,-113L-34,-119L-32,-118L-31,-121L-32,-123L-28,-132L-25,-139L-23,-144L-21,-144L-20,-148L-15,-147L-15,-152L-13,-152L-10,-148L-6,-144L-5,-133L-5,-131L-9,-129L-12,-124L-11,-121L-15,-116L-20,-111L-22,-103L-20,-99L-18,-96L-20,-90L-23,-89L-24,-81L-26,-77L-29,-77L-30,-73L-33,-73L-34,-78L-36,-83Z" fill="#E0E0E0" stroke="#fff" stroke-width=".4"/><path d="M7,-77L9,-76L10,-75L11,-75L14,-74L14,-72L13,-71L15,-68L16,-67L16,-66L18,-65L18,-64L17,-63L15,-63L15,-63L15,-61L16,-59L14,-58L13,-57L13,-55L12,-56L9,-56L9,-57L8,-56L7,-56L5,-57L2,-58L-1,-58L-3,-58L-4,-57L-6,-56L-6,-58L-6,-60L-5,-61L-5,-63L-6,-65L-6,-67L-3,-67L-0,-68L0,-71L2,-72L2,-74L4,-75Z" fill="#E0E0E0" stroke="#fff" stroke-width=".4"/><path d="M16,-59L17,-58L18,-59L18,-59L21,-60L23,-57L22,-56L22,-55L25,-55L25,-53L25,-52L29,-51L31,-51L32,-50L34,-50L38,-48L38,-47L37,-45L37,-43L37,-42L34,-41L33,-40L33,-38L31,-38L29,-37L27,-37L24,-35L25,-33L24,-33L24,-34L23,-34L21,-35L20,-34L20,-35L16,-36L16,-37L13,-36L12,-34L10,-32L9,-32L8,-32L7,-32L7,-33L8,-34L9,-35L8,-36L9,-36L9,-36L11,-36L11,-36L11,-36L11,-37L10,-38L10,-39L9,-40L9,-41L8,-42L7,-43L5,-44L3,-43L3,-43L1,-43L1,-42L-1,-42L-2,-41L-3,-42L-5,-42L-7,-42L-8,-41L-8,-43L-9,-44L-9,-45L-8,-46L-8,-46L-8,-48L-6,-51L-5,-52L-4,-53L-6,-56L-4,-57L-3,-58L-1,-58L2,-58L5,-57L7,-56L8,-56L9,-57L9,-56L12,-56L13,-55L13,-57L14,-58Z" fill="#E0E0E0" stroke="#fff" stroke-width=".4"/><path d="M-6,-67L-6,-65L-5,-63L-5,-61L-6,-60L-6,-58L-6,-56L-4,-53L-5,-52L-6,-51L-8,-48L-8,-46L-8,-46L-11,-48L-12,-47L-14,-48L-15,-47L-17,-48L-18,-48L-18,-48L-19,-50L-21,-50L-21,-51L-23,-52L-23,-51L-25,-52L-25,-53L-27,-53L-28,-54L-29,-57L-29,-59L-29,-61L-30,-62L-30,-64L-30,-66L-28,-67L-24,-69L-21,-71L-18,-70L-18,-69L-16,-69L-12,-68L-8,-68L-6,-68Z" fill="#E0E0E0" stroke="#fff" stroke-width=".4"/><path d="M-23,-42L-23,-41L-24,-41L-24,-40L-25,-37L-25,-37L-28,-37L-29,-36L-31,-36L-35,-37L-35,-38L-38,-38L-38,-37L-40,-38L-41,-38L-42,-38L-42,-39L-42,-40L-41,-40L-40,-39L-40,-40L-37,-40L-35,-41L-34,-41L-33,-40L-33,-41L-33,-43L-32,-44L-32,-45L-30,-44L-28,-46L-27,-46L-25,-45L-24,-45L-23,-44L-23,-44Z" fill="#E0E0E0" stroke="#fff" stroke-width=".4"/><path d="M-9,-44L-8,-43L-8,-41L-9,-41L-11,-38L-12,-35L-14,-35L-16,-35L-18,-34L-19,-33L-21,-34L-23,-36L-24,-36L-24,-37L-25,-37L-24,-40L-24,-41L-23,-41L-23,-42L-21,-41L-20,-41L-18,-41L-18,-42L-17,-42L-16,-43L-15,-43L-14,-43L-14,-44L-13,-44L-10,-43Z" fill="#E0E0E0" stroke="#fff" stroke-width=".4"/><path d="M3,-43L3,-43L5,-44L7,-43L8,-42L9,-41L9,-40L10,-39L10,-38L11,-37L11,-36L11,-36L11,-36L9,-36L9,-36L8,-36L9,-35L8,-34L7,-33L7,-32L6,-34L7,-36L6,-37L5,-40L4,-41L3,-42Z" fill="#E0E0E0" stroke="#fff" stroke-width=".4"/><path d="M7,-32L8,-32L9,-32L10,-32L10,-31L9,-30L8,-30L8,-26L6,-26L4,-27L1,-27L-0,-26L-4,-26L-6,-26L-7,-26L-8,-28L-8,-28L-8,-29L-8,-29L-9,-29L-11,-30L-11,-31L-13,-32L-13,-33L-14,-35L-12,-35L-11,-38L-9,-41L-8,-41L-7,-42L-5,-42L-3,-42L-2,-41L-1,-42L1,-42L1,-43L3,-43L3,-42L4,-41L5,-40L6,-37L7,-36L6,-34Z" fill="#E0E0E0" stroke="#fff" stroke-width=".4"/><path d="M2,-74L2,-72L0,-71L-0,-68L-3,-67L-6,-67L-6,-68L-8,-68L-8,-70L-8,-71L-9,-72L-11,-72L-12,-76L-9,-78L-5,-77L-2,-78L-2,-77L-0,-77Z" fill="#E0E0E0" stroke="#fff" stroke-width=".4"/><path d="M4,-83L6,-82L6,-80L7,-77L4,-75L2,-74L-0,-77L-2,-77L-2,-78L-5,-77L-9,-78L-12,-76L-12,-80L-11,-83L-8,-84L-6,-81L-4,-81L-4,-85L-1,-86L-0,-85L2,-83Z" fill="#E0E0E0" stroke="#fff" stroke-width=".4"/><path d="M6,-93L6,-92L5,-89L5,-85L4,-83L2,-83L-0,-85L-1,-86L-4,-85L-3,-88L-4,-87L-6,-89L-6,-92L-3,-93L1,-94L3,-93Z" fill="#E0E0E0" stroke="#fff" stroke-width=".4"/><path d="M-30,-66L-30,-64L-30,-62L-29,-61L-29,-59L-29,-57L-28,-54L-29,-54L-30,-55L-30,-54L-32,-53L-33,-52L-35,-51L-35,-50L-34,-48L-33,-47L-32,-45L-32,-44L-33,-43L-33,-41L-33,-40L-34,-41L-35,-41L-37,-40L-40,-40L-40,-39L-41,-40L-42,-40L-45,-41L-45,-40L-48,-40L-47,-43L-46,-46L-50,-47L-51,-48L-51,-50L-51,-50L-51,-53L-51,-58L-50,-58L-49,-59L-49,-63L-49,-65L-49,-66L-46,-66L-46,-65L-44,-67L-45,-69L-45,-71L-43,-71L-41,-71L-41,-70L-38,-69L-39,-67L-36,-68L-34,-69L-31,-67Z" fill="#E0E0E0" stroke="#fff" stroke-width=".4"/><path d="M-8,-28L-7,-26L-6,-26L-4,-26L-0,-26L1,-27L4,-27L6,-26L8,-26L6,-24L5,-22L6,-20L4,-20L1,-19L1,-17L-1,-17L-3,-18L-5,-17L-7,-17L-7,-20L-9,-21L-8,-21L-8,-22L-8,-23L-7,-24L-8,-26L-8,-27Z" fill="#E0E0E0" stroke="#fff" stroke-width=".4"/><path d="M2,3L1,4L-2,4L-2,3L-6,3L-5,2L-4,3L-2,2L0,3L0,3ZM-7,-17L-5,-17L-3,-18L-1,-17L1,-17L1,-19L2,-18L2,-16L1,-16L-1,-16L-2,-16L-5,-15L-3,-13L-5,-13L-6,-13L-7,-14L-8,-14L-7,-12L-6,-10L-7,-9L-6,-8L-4,-7L-4,-5L-7,-6L-6,-4L-8,-4L-7,-1L-8,-1L-10,-2L-11,-5L-12,-7L-13,-9L-14,-10L-14,-11L-13,-13L-13,-14L-12,-15L-12,-16L-10,-16L-9,-17L-8,-17L-8,-17Z" fill="#E0E0E0" stroke="#fff" stroke-width=".4"/><path d="M50,-3L49,-3L48,-4L45,-4L44,-3L41,-3L39,-3L36,-2L34,-2L33,-2L30,-1L29,-2L29,-0L28,0L27,1L27,-0L28,-2L26,-1L24,-2L22,-0L18,0L16,-2L13,-2L12,-0L11,0L8,-2L5,-2L4,-5L2,-7L3,-9L1,-11L4,-14L8,-14L9,-17L14,-16L18,-19L21,-20L25,-20L29,-17L33,-16L36,-17L39,-16L42,-18L44,-18L47,-17L47,-15L47,-14L49,-13L50,-12L48,-11L49,-7L49,-6ZM1,-19L4,-20L6,-20L6,-18L9,-17L8,-16L5,-16L4,-15L2,-13L1,-15L1,-16L2,-16L2,-18Z" fill="#E0E0E0" stroke="#fff" stroke-width=".4"/><path d="M-12,-16L-12,-15L-13,-14L-13,-13L-14,-11L-15,-12L-15,-12L-16,-14L-17,-15L-16,-18L-16,-19L-16,-19L-17,-20L-15,-22L-15,-21L-15,-22L-14,-21L-13,-20L-13,-19L-14,-18L-13,-16Z" fill="#E0E0E0" stroke="#fff" stroke-width=".4"/><path d="M-24,-36L-23,-36L-21,-34L-19,-33L-18,-34L-17,-32L-16,-31L-17,-30L-19,-31L-20,-31L-23,-31L-24,-31L-24,-31L-25,-31L-26,-30L-25,-28L-24,-27L-23,-26L-22,-25L-21,-23L-19,-22L-19,-21L-21,-23L-23,-24L-25,-25L-27,-28L-27,-28L-28,-30L-28,-31L-30,-31L-31,-30L-31,-31L-31,-32L-31,-32L-29,-32L-29,-33L-28,-32L-27,-32L-27,-33L-26,-34L-26,-35Z" fill="#E0E0E0" stroke="#fff" stroke-width=".4"/><path d="M-42,-40L-42,-39L-42,-38L-41,-38L-40,-38L-40,-36L-41,-35L-43,-36L-44,-34L-45,-34L-45,-35L-47,-34L-48,-33L-49,-34L-50,-36L-51,-35L-51,-37L-49,-39L-50,-40L-48,-40L-48,-40L-45,-40L-45,-41Z" fill="#E0E0E0" stroke="#fff" stroke-width=".4"/><path d="M-51,-50L-51,-50L-51,-48L-52,-48L-52,-48L-52,-50Z" fill="#E0E0E0" stroke="#fff" stroke-width=".4"/><path d="M-51,-53L-51,-50L-52,-50L-52,-48L-55,-50L-56,-50L-58,-51L-59,-53L-60,-53L-61,-55L-58,-55L-57,-55L-54,-56L-52,-54Z" fill="#E0E0E0" stroke="#fff" stroke-width=".4"/><path d="M-49,-65L-49,-63L-49,-59L-50,-58L-51,-58L-51,-53L-52,-54L-54,-56L-57,-55L-58,-55L-57,-57L-55,-63L-51,-65Z" fill="#E0E0E0" stroke="#fff" stroke-width=".4"/><path d="M-91,-19L-90,-20L-89,-21L-88,-19L-87,-19L-86,-19L-85,-19L-84,-18L-85,-17L-85,-14L-86,-13L-86,-12L-87,-11L-86,-9L-86,-7L-86,-6L-86,-5L-87,-4L-87,-3L-88,-2L-89,-3L-90,-2L-90,-5L-90,-7L-91,-7L-92,-8L-92,-11L-91,-12L-91,-13L-90,-15L-90,-17L-91,-18Z" fill="#E0E0E0" stroke="#fff" stroke-width=".4"/><path d="M-87,-3L-87,-4L-86,-5L-86,-6L-86,-7L-86,-9L-87,-11L-86,-12L-86,-13L-85,-14L-85,-17L-84,-18L-85,-19L-86,-19L-87,-19L-88,-19L-89,-21L-90,-20L-91,-19L-91,-22L-92,-23L-88,-26L-85,-25L-81,-25L-79,-25L-76,-25L-72,-25L-71,-23L-66,-22L-65,-22L-62,-21L-59,-21L-59,-19L-62,-17L-65,-16L-65,-15L-67,-13L-68,-10L-67,-8L-68,-7L-69,-5L-71,-4L-73,-2L-76,-2L-79,-2L-80,-0L-81,1L-83,0L-83,-1L-84,-3Z" fill="#E0E0E0" stroke="#fff" stroke-width=".4"/><path d="M-83,-66L-83,-63L-85,-59L-90,-57L-93,-57L-91,-62L-93,-66L-89,-70L-87,-72L-86,-70L-87,-67L-85,-67Z" fill="#E0E0E0" stroke="#fff" stroke-width=".4"/><path d="M367,158L369,160L370,161L369,162L368,161L366,160L364,158L363,156L362,155L363,155L365,156L366,157Z" fill="#E0E0E0" stroke="#fff" stroke-width=".4"/><path d="M357,129L358,130L356,130L355,129L357,129ZM356,127L356,127L354,125L353,124L354,124L355,126ZM354,128L353,128L351,127L351,127L351,126L353,126L354,127ZM351,123L351,124L352,124L349,123L348,122L347,121L347,121L349,122ZM344,120L345,121L345,121L344,121L343,119L343,119Z" fill="#E0E0E0" stroke="#fff" stroke-width=".4"/><path d="M396,216L395,218L394,221L392,222L391,221L390,221L392,218L391,216L388,214L388,213L390,212L390,209L390,207L389,205L389,205L388,203L386,200L385,198L386,198L387,200L389,200L390,203L392,207L392,205L393,205L394,208L396,209L397,209L399,208L400,208L400,211L399,213L397,213L396,214L396,216ZM377,229L379,227L381,225L382,222L383,221L383,219L385,218L386,219L386,221L388,219L389,221L389,222L388,224L386,227L385,228L386,230L384,230L382,231L381,234L380,237L377,239L376,240L374,240L372,239L369,238L369,237L370,234L373,231L375,230Z" fill="#E0E0E0" stroke="#fff" stroke-width=".4"/><path d="M319,219L321,219L321,223L320,225L320,227L319,226L317,229L317,229L315,229L314,226L313,223L312,220L312,219L313,219L316,220L317,220ZM263,191L260,192L258,193L258,195L257,196L254,196L253,196L250,196L249,196L247,196L245,198L244,198L243,199L242,200L240,200L238,200L235,198L234,197L234,195L235,195L236,194L236,193L236,191L236,189L234,186L234,184L234,182L233,181L233,180L232,178L231,176L230,174L230,173L231,174L230,171L231,172L232,173L232,172L231,169L230,168L230,168L230,166L231,165L231,164L231,162L232,160L232,162L233,160L235,159L236,158L238,157L240,157L240,157L242,156L244,156L244,155L245,155L246,155L249,154L251,153L251,152L253,150L253,149L253,148L255,145L256,148L257,147L256,146L257,144L258,145L258,143L260,142L261,141L262,140L262,139L263,140L263,139L264,139L266,138L267,139L269,141L271,141L272,141L272,140L273,138L274,137L274,136L275,135L276,134L278,134L280,134L280,132L278,131L279,131L281,132L282,133L285,133L285,133L287,134L289,133L290,133L290,133L291,134L291,136L290,137L289,137L289,138L288,139L287,141L288,141L290,143L292,144L293,145L295,146L296,146L297,147L297,148L300,149L302,148L302,146L303,145L303,144L304,142L303,140L304,139L303,138L304,136L304,135L304,134L304,133L305,132L305,131L306,130L307,131L307,133L308,133L308,134L309,136L309,137L309,138L310,140L311,139L312,140L313,141L313,143L314,145L314,146L315,147L315,149L315,150L316,152L319,154L321,155L323,156L322,157L324,159L325,162L326,161L327,162L327,162L328,165L330,167L331,168L333,170L334,172L334,174L334,176L335,178L335,181L334,182L334,185L334,187L333,189L332,192L330,193L329,196L328,197L327,200L326,202L326,204L325,206L326,207L324,209L321,209L319,210L317,211L316,213L314,211L312,211L313,209L311,210L309,212L307,211L305,211L304,210L301,209L299,207L299,205L298,203L297,202L294,202L295,200L295,198L293,200L291,200L292,199L293,197L294,195L294,193L292,196L290,197L289,199L287,198L287,196L285,194L284,193L284,192L281,190L279,190L277,189L272,189L269,190L266,191Z" fill="#E0E0E0" stroke="#fff" stroke-width=".4"/><path d="M147,82L147,85L145,85L143,86L142,84L141,80L143,76L144,77L146,79Z" fill="#E0E0E0" stroke="#fff" stroke-width=".4"/><path d="M219,53L217,52L217,50L219,49L221,48L223,48L223,49L222,50L222,52ZM143,-21L143,-23L145,-24L142,-30L147,-32L149,-33L151,-39L156,-38L157,-40L157,-44L160,-44L162,-47L163,-47L163,-44L165,-42L169,-41L171,-38L170,-33L171,-32L174,-31L178,-30L181,-28L182,-28L184,-24L185,-22L188,-22L193,-22L197,-22L199,-21L203,-19L206,-19L208,-18L211,-20L215,-21L219,-22L222,-23L224,-25L226,-26L225,-27L224,-29L226,-31L227,-31L230,-30L233,-32L236,-33L238,-36L240,-37L244,-37L246,-37L246,-38L244,-41L242,-42L240,-41L237,-41L236,-41L235,-42L237,-46L238,-49L241,-48L245,-50L245,-52L247,-57L249,-58L249,-60L247,-61L250,-64L253,-64L256,-65L260,-63L263,-62L264,-57L265,-56L266,-53L267,-49L272,-48L275,-45L276,-41L280,-41L282,-43L286,-44L285,-40L284,-39L283,-35L281,-31L278,-32L276,-30L277,-27L276,-23L275,-23L275,-21L273,-23L272,-21L268,-20L268,-18L266,-18L265,-19L263,-17L260,-15L258,-12L255,-12L253,-10L250,-9L251,-11L251,-12L253,-14L251,-16L249,-15L246,-12L244,-10L242,-10L241,-8L242,-6L244,-6L244,-4L246,-3L249,-6L251,-4L253,-4L254,-2L250,-2L249,0L246,2L245,4L248,6L249,9L250,12L252,14L252,16L250,17L251,19L252,20L252,22L251,25L250,25L248,28L246,32L243,35L240,38L236,40L233,41L232,42L231,41L229,42L226,44L223,44L222,47L221,47L220,45L220,44L217,43L216,44L213,43L212,42L212,40L210,40L209,39L206,40L204,41L202,41L200,41L199,42L199,45L198,45L198,44L198,43L196,44L195,43L193,42L193,40L192,39L191,37L188,37L189,34L191,31L191,29L191,27L190,26L189,24L188,25L185,24L186,23L184,21L183,22L180,21L177,23L175,26L173,26L172,25L170,25L169,24L167,25L165,27L165,25L164,26L160,25L158,25L155,23L153,23L152,21L151,21L148,19L146,18L145,19L142,17L139,15L138,11L140,12L140,10L139,9L139,6L137,2L132,1L132,-2L130,-3L129,-4L129,-6L129,-7L127,-8L126,-8L126,-11L126,-12L126,-12L129,-14L130,-15L133,-14L134,-16L138,-17L138,-18L143,-20Z" fill="#E0E0E0" stroke="#fff" stroke-width=".4"/><path d="M252,36L250,40L249,43L248,40L247,38L249,35L251,33L252,34Z" fill="#E0E0E0" stroke="#fff" stroke-width=".4"/><path d="M-40,-38L-38,-37L-38,-38L-35,-38L-35,-37L-31,-36L-31,-34L-31,-33L-33,-33L-35,-32L-35,-30L-35,-29L-34,-27L-32,-25L-30,-22L-28,-20L-25,-20L-25,-19L-26,-18L-23,-17L-21,-16L-19,-14L-19,-13L-19,-12L-21,-14L-23,-14L-24,-12L-22,-11L-23,-9L-24,-9L-25,-6L-26,-6L-26,-7L-26,-9L-25,-9L-26,-11L-27,-13L-28,-13L-29,-15L-30,-15L-31,-17L-33,-17L-35,-19L-38,-21L-40,-23L-40,-27L-42,-27L-44,-28L-45,-28L-47,-26L-48,-26L-47,-27L-49,-28L-49,-31L-49,-32L-49,-33L-49,-34L-48,-33L-47,-34L-45,-35L-45,-34L-44,-34L-43,-36L-41,-35L-40,-36ZM-29,-6L-27,-7L-27,-4L-27,-3L-28,-1L-30,-3L-31,-3L-35,-5L-34,-6L-31,-6ZM-44,-16L-43,-17L-41,-14L-42,-10L-43,-10L-44,-9L-45,-10L-45,-14L-46,-16Z" fill="#E0E0E0" stroke="#fff" stroke-width=".4"/><path d="M-41,-71L-43,-71L-45,-71L-46,-74L-46,-79L-46,-80L-45,-81L-42,-82L-42,-83L-39,-84L-40,-82L-40,-80L-40,-79L-39,-78L-39,-76L-40,-77L-42,-74ZM-35,-77L-34,-74L-36,-71L-38,-73L-39,-75Z" fill="#E0E0E0" stroke="#fff" stroke-width=".4"/><path d="M-83,-66L-85,-67L-87,-67L-86,-70L-87,-72L-85,-72L-82,-69ZM-75,-64L-75,-64L-75,-67L-77,-70L-77,-70L-80,-70L-80,-72L-80,-74L-80,-75L-82,-73L-82,-77L-83,-80L-82,-85L-80,-89L-78,-88L-75,-89L-78,-83L-75,-84L-72,-84L-73,-80L-75,-76L-73,-76L-72,-75L-70,-70L-68,-69L-67,-64L-66,-62L-63,-61L-63,-59L-64,-57L-63,-55L-66,-53L-69,-53L-74,-52L-75,-53L-77,-51L-79,-51L-81,-50L-82,-51L-78,-55L-76,-56L-76,-56L-80,-57L-81,-58L-78,-60L-80,-62L-79,-65Z" fill="#E0E0E0" stroke="#fff" stroke-width=".4"/><path d="M-105,-134L-106,-129L-103,-125L-106,-120L-114,-116L-116,-115L-119,-116L-127,-118L-124,-121L-130,-124L-125,-125L-125,-127L-131,-128L-129,-132L-125,-133L-121,-129L-117,-132L-114,-131L-109,-134Z" fill="#E0E0E0" stroke="#fff" stroke-width=".4"/><path d="M54,-19L55,-19L57,-17L58,-17L58,-18L60,-19L61,-17L63,-15L64,-15L65,-14L63,-13L62,-11L62,-10L61,-9L61,-7L60,-7L59,-9L59,-10L59,-11L58,-11L55,-9L55,-11L53,-11L52,-12L53,-13L52,-15L52,-16L51,-16L51,-17L51,-18L53,-17L55,-16L55,-17L54,-19ZM54,-8L52,-9L51,-10L50,-12L51,-12L51,-11L53,-11L53,-10Z" fill="#E0E0E0" stroke="#fff" stroke-width=".4"/><path d="M37,-25L38,-25L40,-25L44,-24L47,-22L48,-22L49,-22L52,-21L53,-20L54,-19L54,-19L55,-17L55,-16L53,-17L51,-18L51,-17L47,-17L44,-18L42,-18L42,-20L41,-22L40,-23L38,-24Z" fill="#E0E0E0" stroke="#fff" stroke-width=".4"/><path d="M249,68L248,66L250,66L251,67L250,69ZM254,75L254,75L255,73L256,73L256,75L258,72L257,75L256,76L256,77L255,78L253,76ZM264,80L264,81L264,83L263,85L262,83L261,84L262,86L261,87L258,86L257,84L258,82L256,81L256,82L254,82L252,84L252,83L253,81L255,80L256,79L257,80L259,79L259,78L261,78L261,76L263,77L264,79ZM243,77L240,80L241,78L243,76L244,74L246,72L246,74L244,75ZM253,53L253,54L254,56L253,59L251,59L251,62L252,64L253,64L254,64L257,65L257,67L258,67L258,69L256,67L255,66L254,67L252,65L250,66L249,65L249,64L250,63L249,63L248,64L247,62L247,61L247,58L248,59L248,55L249,52L250,52L252,53L253,52ZM252,72L252,70L254,71L255,71L255,72L254,73L252,74L252,73ZM261,70L262,73L260,72L260,73L261,74L260,75L259,73L259,73L258,71L260,72L260,71L258,69L261,69Z" fill="#E0E0E0" stroke="#fff" stroke-width=".4"/><path d="M195,85L195,84L197,85L198,87L199,86L200,85L201,86L202,87L203,89L204,91L203,92L204,93L204,94L205,95L206,97L206,98L204,98L201,97L198,94L198,93L196,91L196,89L195,88L195,86ZM241,91L239,90L236,90L235,93L234,94L233,98L231,99L228,98L227,98L226,99L224,99L222,100L220,98L220,96L222,97L224,97L224,95L226,94L229,94L231,91L232,90L233,91L234,90L235,90L235,89L235,87L237,86L238,84L239,84L241,85L241,86L243,87L245,88L245,89L243,89L243,90Z" fill="#E0E0E0" stroke="#fff" stroke-width=".4"/><path d="M235,87L235,89L235,90L234,90L233,91L232,90L233,89Z" fill="#E0E0E0" stroke="#fff" stroke-width=".4"/><path d="M-31,-36L-29,-36L-28,-37L-25,-37L-25,-37L-24,-37L-24,-36L-26,-35L-26,-34L-27,-33L-27,-32L-28,-32L-29,-33L-29,-32L-31,-32L-31,-33L-31,-34Z" fill="#E0E0E0" stroke="#fff" stroke-width=".4"/><path d="M8,-152L7,-147L11,-142L9,-137L12,-129L10,-124L13,-119L11,-116L15,-112L14,-109L12,-105L6,-99L2,-98L-3,-96L-7,-95L-9,-98L-11,-100L-11,-105L-12,-110L-11,-113L-8,-117L-2,-124L-1,-125L-1,-128L-5,-131L-5,-133L-6,-144L-10,-148L-13,-152L-12,-154L-9,-150L-5,-150L-2,-149L0,-152L1,-157L5,-160L9,-157Z" fill="#E0E0E0" stroke="#fff" stroke-width=".4"/><path d="M-8,-46L-9,-45L-9,-44L-10,-43L-13,-44L-14,-44L-14,-43L-15,-43L-16,-43L-17,-42L-18,-42L-18,-41L-20,-41L-21,-41L-23,-42L-23,-44L-23,-44L-22,-45L-21,-45L-20,-45L-20,-46L-20,-46L-20,-47L-19,-47L-19,-48L-18,-48L-18,-48L-17,-48L-15,-47L-14,-48L-12,-47L-11,-48Z" fill="#E0E0E0" stroke="#fff" stroke-width=".4"/><path d="M-28,-54L-27,-53L-25,-53L-25,-52L-23,-51L-23,-52L-21,-51L-21,-50L-19,-50L-18,-48L-19,-48L-19,-47L-20,-47L-20,-46L-20,-46L-20,-45L-21,-45L-22,-45L-23,-44L-24,-45L-25,-45L-27,-46L-28,-46L-30,-44L-32,-45L-33,-47L-34,-48L-35,-50L-35,-51L-33,-52L-32,-53L-30,-54L-30,-55L-29,-54Z" fill="#E0E0E0" stroke="#fff" stroke-width=".4"/><path d="M28,64L28,62L29,58L29,57L30,56L32,55L33,54L35,57L36,59L37,61L41,63L42,65L44,66L44,67L46,68L45,69L44,69L43,68L42,66L41,65L40,64L38,63L36,63L35,63L34,63L32,62L31,64Z" fill="#E0E0E0" stroke="#fff" stroke-width=".4"/><path d="M304,-10L302,-7L302,-3L301,-1L301,1L300,3L297,5L292,5L288,9L287,7L286,5L282,6L279,7L276,7L278,10L277,15L275,16L274,15L274,12L273,11L272,9L274,8L275,6L278,5L280,2L285,1L288,2L291,-4L293,-2L296,-5L298,-7L300,-11L299,-15L300,-17L303,-18L304,-13ZM311,-27L313,-28L314,-24L310,-23L308,-20L304,-22L302,-18L299,-18L299,-22L300,-24L303,-25L304,-30L305,-33L308,-29L310,-27ZM279,9L281,7L282,7L283,6L285,6L286,8L284,9L283,8L282,9L281,11L279,10Z" fill="#E0E0E0" stroke="#fff" stroke-width=".4"/><path d="M69,51L71,56L72,57L70,58L69,59L69,60L67,61L63,63L60,65L59,65L58,65L57,66L55,66L53,66L52,67L52,67L51,67L51,68L49,68L48,68L47,68L46,67L46,65L46,65L45,63L44,61L45,61L45,60L45,59L45,58L46,57L46,56L46,55L47,56L48,55L51,55L52,56L54,56L55,56L56,57L57,56L59,53L61,52Z" fill="#E0E0E0" stroke="#fff" stroke-width=".4"/><path d="M24,21L27,22L28,21L29,20L31,19L31,18L32,18L30,15L35,13L35,13L39,14L43,16L50,22L55,22L57,22L58,24L60,24L61,26L62,27L62,28L64,29L64,30L64,31L64,32L65,33L65,34L66,35L67,35L67,35L68,36L68,37L69,40L77,41L77,41L79,43L77,48L69,51L61,52L59,53L57,56L56,57L55,56L54,56L52,56L51,55L48,55L47,56L46,55L46,56L46,57L45,58L44,57L44,56L44,55L42,54L41,52L40,50L38,48L37,47L35,45L35,43L35,41L34,38L32,37L31,36L30,34L30,34L30,32L29,32L28,29L26,27L25,25L24,25L24,23L24,22Z" fill="#E0E0E0" stroke="#fff" stroke-width=".4"/><path d="M-195,440L-193,440L-189,438L-185,440L-182,446L-181,454L-181,460L-181,468L-185,472L-189,476L-194,480L-199,483L-206,482L-209,477L-208,471L-203,466L-201,461L-199,455L-198,450L-196,445ZM-241,471L-235,472L-229,473L-227,467L-226,462L-223,468L-224,476L-225,483L-230,481L-236,482L-239,476L-239,476ZM-261,372L-259,371L-256,371L-255,367L-255,364L-255,358L-253,355L-251,354L-250,356L-249,359L-248,363L-247,366L-246,370L-246,373L-247,376L-247,380L-250,381L-253,382L-257,382L-255,379L-258,380L-261,381L-263,379L-264,375ZM-335,377L-333,376L-330,377L-326,378L-323,379L-321,378L-319,383L-321,382L-324,382L-327,382L-331,382L-334,381ZM-388,393L-388,390L-384,391L-381,393L-378,391L-379,394L-382,397L-386,396ZM-400,391L-398,389L-396,391L-392,395L-393,394L-397,394ZM-496,447L-494,442L-489,444L-487,449L-485,453L-484,460L-489,462L-492,457L-494,452L-494,451ZM-442,573L-442,573L-441,559L-452,558L-460,552L-462,542L-469,536L-469,526L-468,517L-467,510L-467,502L-472,496L-474,490L-478,485L-471,486L-465,483L-462,489L-457,484L-453,478L-450,472L-451,466L-455,462L-459,458L-464,457L-469,455L-474,454L-476,449L-479,444L-481,440L-482,426L-480,427L-478,431L-474,430L-470,428L-468,433L-463,432L-460,430L-457,426L-454,423L-450,422L-450,417L-451,413L-450,410L-447,408L-445,411L-441,409L-438,407L-434,407L-431,406L-427,403L-424,401L-421,399L-419,400L-417,400L-413,399L-410,401L-406,400L-403,399L-399,400L-395,401L-392,401L-388,401L-384,401L-381,401L-378,398L-375,396L-371,398L-368,397L-365,393L-364,396L-363,400L-361,403L-358,400L-355,404L-352,405L-349,408L-345,407L-342,405L-338,406L-334,407L-331,409L-329,405L-331,401L-332,398L-336,397L-337,394L-338,390L-339,383L-337,385L-333,385L-330,385L-327,386L-324,389L-323,392L-319,392L-316,391L-312,389L-309,388L-306,390L-303,390L-301,383L-299,387L-296,388L-292,388L-290,391L-287,392L-284,393L-280,395L-278,391L-277,388L-275,392L-271,391L-268,393L-267,396L-263,395L-261,393L-258,390L-255,389L-251,388L-248,387L-245,385L-244,382L-243,379L-243,375L-244,372L-245,369L-246,366L-246,363L-247,360L-246,357L-245,354L-244,351L-244,348L-244,345L-244,343L-243,340L-242,338L-240,335L-238,333L-236,331L-235,329L-234,327L-232,325L-230,325L-228,323L-226,322L-224,321L-222,320L-221,318L-219,317L-217,319L-218,321L-221,322L-222,324L-224,323L-226,323L-228,325L-230,326L-231,328L-231,331L-231,333L-230,335L-232,337L-234,337L-235,339L-237,342L-239,344L-239,347L-238,350L-237,352L-235,354L-233,356L-232,359L-231,362L-230,365L-229,368L-228,371L-228,378L-227,381L-227,385L-226,388L-226,393L-228,397L-229,400L-233,402L-234,405L-236,409L-240,412L-243,414L-246,416L-250,419L-252,423L-256,424L-261,423L-265,424L-269,424L-269,429L-265,431L-262,434L-260,438L-263,442L-267,441L-271,444L-271,450L-271,455L-268,460L-268,465L-264,471L-259,474L-254,478L-250,483L-246,488L-239,491L-233,496L-228,502L-223,508L-221,518L-220,526L-216,518L-212,512L-208,506L-202,501L-197,496L-191,495L-185,498L-179,502L-178,494L-174,489L-167,489L-162,485L-157,481L-152,479L-146,476L-142,472L-144,467L-145,462L-145,456L-150,457L-155,459L-160,459L-161,454L-161,444L-160,441L-156,438L-151,435L-148,432L-145,428L-143,424L-139,422L-136,420L-134,419L-130,419L-126,417L-123,415L-120,413L-117,410L-113,407L-111,404L-108,401L-107,397L-110,395L-109,391L-108,388L-105,386L-102,384L-99,382L-97,378L-96,374L-94,372L-91,372L-90,375L-87,376L-86,372L-85,369L-82,370L-82,373L-79,374L-75,372L-72,371L-69,372L-68,375L-65,372L-62,371L-59,370L-56,369L-54,367L-51,366L-48,364L-47,361L-45,363L-42,362L-40,366L-39,369L-36,367L-35,364L-32,362L-29,362L-28,365L-25,362L-23,361L-20,361L-17,361L-14,362L-11,363L-10,365L-8,367L-5,366L-2,366L1,366L4,366L6,365L9,364L11,361L14,360L17,359L19,357L20,353L22,351L24,352L25,355L28,356L30,356L32,358L34,360L37,359L38,355L40,354L43,352L45,351L48,349L50,348L53,346L55,345L57,345L59,343L61,341L64,341L66,340L66,337L68,336L71,334L73,333L76,333L78,333L80,334L82,336L83,338L85,341L87,342L90,343L92,345L94,347L96,347L98,346L101,343L103,345L106,346L108,346L111,347L113,347L115,354L115,356L115,360L112,361L110,364L111,367L114,367L113,370L112,373L111,377L113,380L116,380L119,379L120,376L121,372L123,370L124,368L125,365L126,361L128,360L131,360L133,359L136,358L137,355L138,352L140,350L143,348L145,347L146,344L148,343L150,342L152,343L155,342L157,341L160,342L162,340L163,335L164,337L165,340L168,342L170,342L173,341L175,342L178,342L179,341L182,342L184,343L186,342L189,342L191,341L194,342L196,340L197,338L199,336L202,331L204,332L206,334L207,336L211,340L213,340L216,340L219,339L221,339L224,337L225,335L228,335L230,333L232,334L234,336L235,339L238,338L240,340L243,342L247,342L249,342L251,340L253,338L255,337L258,338L261,339L263,338L265,338L268,338L270,339L272,338L275,337L278,336L281,336L283,336L286,335L286,332L286,330L288,331L289,334L289,337L291,339L293,340L296,340L299,340L301,339L305,339L307,339L311,339L314,340L316,342L315,345L317,347L320,348L323,350L326,351L329,352L332,354L335,354L337,351L339,353L341,356L343,357L347,358L350,359L351,362L354,364L356,367L359,368L362,368L365,368L368,368L371,369L374,370L376,372L379,373L381,376L381,379L379,382L378,386L377,389L376,393L373,394L371,398L368,400L366,404L365,407L363,411L362,415L361,419L361,424L361,428L362,433L363,437L364,442L369,444L370,449L365,452L361,454L356,455L354,463L354,470L353,476L351,482L355,488L356,495L358,502L361,508L365,515L369,521L375,528L376,540L384,545L384,547L386,555L394,548L400,556L404,563L404,563L404,573L404,573ZM-538,573L-538,563L-538,563L-538,563L-538,563L-538,563L-536,548L-531,556L-531,555L-528,547L-528,547L-527,547L-524,558L-520,547L-520,546L-512,541L-510,547L-508,550L-504,559L-497,566L-493,573L-538,573Z" fill="#E0E0E0" stroke="#fff" stroke-width=".4"/><path d="M19,3L19,3L19,3L21,3L23,2L22,3L22,4L22,3L21,4L21,4L20,4L20,3L20,3L20,3L19,3Z" fill="#E0E0E0" stroke="#fff" stroke-width=".4"/><path d="M19,3L19,3L20,3L20,3L20,3L20,4L21,4L21,4L22,3L22,4L22,4L19,5L18,5L17,3Z" fill="#E0E0E0" stroke="#fff" stroke-width=".4"/><path d="M-73,3L-72,5L-72,7L-71,11L-70,11L-71,12L-74,13L-75,14L-77,14L-77,17L-80,18L-81,19L-83,20L-86,21L-90,23L-90,26L-90,26L-90,28L-92,28L-93,29L-94,29L-95,28L-97,29L-98,31L-99,31L-100,35L-104,38L-104,42L-105,43L-106,44L-112,44L-112,44L-112,43L-111,42L-110,41L-110,40L-109,38L-108,36L-107,35L-106,34L-106,32L-105,30L-103,29L-102,26L-102,26L-100,25L-98,25L-96,23L-94,22L-92,20L-93,16L-92,13L-92,11L-90,9L-87,8L-85,7L-84,3L-83,1L-81,1L-79,3L-77,2L-74,3Z" fill="#E0E0E0" stroke="#fff" stroke-width=".4"/><path d="M29,43L19,43L9,43L-2,43L-2,32L-2,22L-2,19L-2,17L-2,16L-1,15L2,14L5,15L7,16L9,17L11,16L12,15L14,15L16,15L17,16L17,15L19,16L21,16L23,16L24,20L24,21L24,22L23,24L22,26L22,26L21,25L20,24L18,20L17,20L19,23L20,26L22,31L23,32L24,34L26,37L26,38L26,40L29,42Z" fill="#E0E0E0" stroke="#fff" stroke-width=".4"/><path d="M-2,43L-2,48L-5,48L-5,49L-15,44L-26,39L-28,40L-30,41L-32,40L-36,38L-37,37L-39,35L-40,36L-41,34L-41,33L-43,31L-42,30L-42,28L-42,26L-42,25L-41,22L-41,21L-42,18L-41,18L-41,16L-41,15L-39,14L-38,13L-37,12L-37,10L-34,11L-33,10L-31,11L-27,12L-26,15L-24,16L-20,17L-17,18L-16,18L-15,16L-15,14L-14,12L-13,11L-11,11L-7,11L-6,13L-5,13L-5,13L-2,14L-1,15L-2,16L-2,17L-2,19L-2,22L-2,32Z" fill="#E0E0E0" stroke="#fff" stroke-width=".4"/><path d="M58,81L51,89L47,89L45,91L43,91L42,91L41,91L40,91L37,92L36,93L35,93L34,92L33,92L33,92L29,90L28,90L27,89L27,88L25,87L24,84L23,84L22,83L21,81L19,81L20,80L21,80L22,79L22,76L23,74L24,73L24,72L25,70L27,68L28,66L28,64L31,64L32,62L34,63L35,63L36,63L38,63L40,64L41,65L42,66L43,68L44,69L43,70L42,71L42,72L42,73L44,73L44,72L45,73L44,74L45,75L46,77L47,78L56,81Z" fill="#E0E0E0" stroke="#fff" stroke-width=".4"/><path d="M44,69L45,69L46,68L46,69L46,70L45,71L46,71L45,73L44,72L44,73L42,73L42,72L42,71L43,70Z" fill="#E0E0E0" stroke="#fff" stroke-width=".4"/><path d="M61,72L61,72L61,73L61,75L61,77L60,78L58,81L56,81L47,78L46,77L45,75L44,74L45,73L46,71L47,72L47,73L48,74L50,74L52,74L55,73L57,72L59,72L60,72Z" fill="#E0E0E0" stroke="#fff" stroke-width=".4"/><path d="M22,104L16,104L13,104L12,105L11,105L10,105L10,103L11,102L11,100L12,99L13,98L14,97L14,96L13,96L14,93L15,92L16,92L18,92L20,92L22,91L23,92L23,94L25,97L24,99L22,100L22,101Z" fill="#E0E0E0" stroke="#fff" stroke-width=".4"/><path d="M12,105L14,106L13,108L13,108L11,108L10,109L9,109L9,108L9,107L10,106L10,105L11,105Z" fill="#E0E0E0" stroke="#fff" stroke-width=".4"/><path d="M-19,-22L-21,-23L-22,-25L-23,-26L-24,-27L-25,-28L-26,-30L-25,-31L-24,-31L-24,-31L-23,-31L-20,-31L-19,-31L-17,-30L-16,-30L-17,-28L-16,-27L-16,-25L-17,-25L-17,-25L-18,-24Z" fill="#E0E0E0" stroke="#fff" stroke-width=".4"/><path d="M-9,-21L-7,-20L-7,-17L-8,-17L-8,-17L-9,-17L-10,-16L-12,-16L-13,-16L-14,-18L-13,-19L-13,-19L-13,-20L-11,-20L-11,-21L-10,-21Z" fill="#E0E0E0" stroke="#fff" stroke-width=".4"/><path d="M-18,-34L-16,-35L-14,-35L-13,-33L-13,-32L-11,-31L-11,-30L-9,-29L-8,-29L-8,-29L-8,-28L-8,-28L-8,-27L-8,-26L-7,-24L-8,-23L-8,-22L-8,-21L-9,-21L-10,-21L-11,-21L-11,-21L-10,-21L-10,-22L-11,-22L-11,-23L-11,-23L-12,-23L-12,-24L-13,-24L-13,-24L-13,-23L-14,-23L-14,-23L-15,-24L-16,-24L-16,-24L-17,-25L-16,-25L-16,-27L-17,-28L-16,-30L-17,-30L-16,-31L-17,-32Z" fill="#E0E0E0" stroke="#fff" stroke-width=".4"/><path d="M-15,-22L-15,-21L-15,-22L-17,-20L-16,-19L-17,-20L-18,-21L-19,-21L-19,-22L-18,-24L-17,-25L-17,-25L-16,-24L-16,-24L-15,-24L-14,-23L-14,-23Z" fill="#E0E0E0" stroke="#fff" stroke-width=".4"/><path d="M-13,-19L-13,-20L-14,-21L-15,-22L-14,-23L-13,-23L-13,-24L-13,-24L-12,-24L-12,-23L-11,-23L-11,-23L-11,-22L-10,-22L-10,-21L-11,-21L-11,-21L-11,-20L-13,-20L-13,-19Z" fill="#E0E0E0" stroke="#fff" stroke-width=".4"/><path d="M14,93L11,91L11,90L9,90L8,90L7,90L6,90L5,88L4,87L2,86L1,85L0,83L-1,82L-1,81L-3,80L-5,79L-4,79L-3,78L-2,76L-2,75L0,74L1,75L2,77L3,77L4,76L6,76L6,77L9,77L9,76L10,76L10,75L11,75L14,76L15,76L16,74L18,73L17,71L17,70L18,70L19,69L20,70L19,72L20,73L21,75L21,75L21,77L22,77L22,79L21,80L20,80L19,81L21,81L22,83L23,84L24,84L25,87L23,89L22,91L20,92L18,92L16,92L15,92Z" fill="#E0E0E0" stroke="#fff" stroke-width=".4"/></g><g clip-path="url(#v)"><path d="M404.1,144.6L403.7,145.0L403.5,145.1L403.4,145.4L403.1,145.6L402.9,145.9L403.0,146.2L403.3,145.9L403.7,145.6L403.8,145.6L403.9,145.6L403.9,145.6L403.8,145.7L403.8,146.0L403.9,146.2L403.6,146.1L403.3,146.2L403.0,146.3L402.7,146.3L402.6,146.3L402.4,146.3L402.4,146.2L402.3,146.1L402.3,146.1L402.0,146.1L401.6,146.4L401.5,146.6L401.3,146.6L401.2,146.6L400.9,146.7L400.7,146.8L400.6,146.7L400.5,146.5L400.4,146.3L400.2,146.3L400.2,146.1L400.3,146.0L400.3,145.9L400.4,145.8L400.5,145.9L400.6,146.0L400.8,145.9L401.0,145.9L401.1,145.6L401.4,145.5L401.7,145.3L402.1,145.2L402.2,145.2L402.4,145.2L402.7,144.9L402.9,144.8L403.1,144.7L403.3,144.7L403.5,144.7L403.7,144.7L404.1,144.6ZM399.6,147.9L399.6,148.0L399.7,148.1L399.7,148.1L399.9,148.3L400.2,148.5L400.4,148.7L400.4,148.8L400.4,148.9L400.4,149.2L400.5,149.4L400.6,149.8L400.4,149.9L400.1,149.9L400.1,150.0L400.0,150.0L399.7,150.0L399.5,150.1L399.3,150.3L399.0,150.3L398.7,150.3L398.4,150.3L398.3,150.2L397.9,150.1L397.4,150.0L397.2,149.9L397.1,149.8L396.9,149.5L396.9,149.4L396.9,149.2L397.1,149.2L397.2,149.1L397.2,149.0L397.2,149.0L397.3,148.9L397.3,148.9L397.3,148.7L397.3,148.6L397.6,148.3L397.8,148.1L398.4,147.9L398.7,148.0L399.2,147.8L399.3,147.7L399.5,147.8ZM-538.4,146.3L-538.1,146.0L-538.0,146.0L-537.9,146.2L-538.0,146.5L-538.3,146.7L-538.4,146.8ZM404.1,146.8L403.9,146.9L403.8,146.8L403.9,146.5L404.1,146.3L404.1,146.5ZM400.1,152.3L400.1,152.4L399.8,152.5L399.7,152.4L399.6,152.4L399.4,152.6L399.3,152.6L399.3,152.7L399.3,152.7L398.9,152.8L398.7,152.7L398.9,152.7L399.0,152.5L399.1,152.6L399.3,152.5L399.4,152.3L399.6,152.3L399.7,152.2L399.9,152.2ZM-535.7,149.6L-535.8,149.6L-535.9,149.6L-535.9,149.5L-536.0,149.5L-535.9,149.4L-535.8,149.5ZM-535.2,150.3L-535.2,150.3L-535.3,150.2L-535.4,150.2L-535.2,150.1L-535.2,150.1ZM-533.8,149.5L-534.0,149.5L-534.1,149.4L-534.0,149.3L-533.9,149.3L-533.8,149.4ZM-535.7,147.6L-535.7,147.7L-535.8,147.7L-535.7,147.5L-535.7,147.4L-535.8,147.4L-535.8,147.3L-535.8,147.3L-535.7,147.4L-535.6,147.4L-535.6,147.5L-535.6,147.6ZM-534.6,152.8L-534.6,152.9L-534.7,152.8L-534.7,152.8L-534.7,152.8L-534.7,152.7L-534.6,152.7L-534.6,152.7L-534.6,152.7L-534.7,152.7L-534.7,152.8L-534.6,152.8L-534.6,152.8ZM-537.9,152.2L-537.9,152.3L-537.9,152.3L-538.0,152.3L-538.0,152.3L-538.0,152.3L-538.0,152.4L-538.0,152.4L-538.0,152.4L-538.0,152.3L-538.0,152.3L-538.0,152.2L-538.0,152.2ZM396.8,147.3L396.7,147.3L396.8,147.1L396.9,147.0L396.9,147.0L397.0,147.0L396.9,147.2ZM402.6,147.9L402.5,147.9L402.4,147.6L402.5,147.6L402.6,147.6L402.6,147.7ZM402.4,149.9L402.4,149.9L402.1,149.7L402.1,149.6L402.2,149.5L402.3,149.5L402.4,149.6L402.4,149.8ZM401.0,148.9L400.9,148.9L400.8,148.8L400.9,148.6L401.0,148.6L401.1,148.7ZM-538.4,145.5L-538.4,145.5L-538.2,145.3L-538.1,145.3L-538.2,145.4L-538.2,145.5L-538.4,145.6L-538.4,145.6L-538.4,145.5ZM404.1,145.6L404.1,145.6L404.1,145.6L404.0,145.6L404.0,145.6L404.1,145.5L404.1,145.6ZM-538.4,144.6L-538.3,144.5L-538.3,144.5L-538.3,144.5L-538.4,144.6ZM396.5,134.7L396.4,134.7L396.3,134.7L396.2,134.7L396.3,134.7L396.4,134.6L396.5,134.6L396.6,134.7ZM390.0,159.9L390.0,159.9L389.9,159.9L389.9,159.9L390.0,159.8L390.0,159.8ZM-535.0,157.0L-535.0,157.0L-535.0,157.0L-535.0,157.0L-535.1,157.0L-535.1,157.0L-535.1,157.0L-535.1,157.0L-535.0,157.0L-535.0,157.0Z" fill="#4ECDC4" stroke="#2C3E50" stroke-width="1"/></g><circle cx="400.0" cy="150.0" r="4" fill="#E74C3C" stroke="#fff" stroke-width="2"/><text x="400.0" y="140.0" text-anchor="middle" font-family="sans-serif" font-weight="700" font-size="10" fill="#2D3436">Suva</text></svg>