<svg viewBox="0 0 800 300" xmlns="http://www.w3.org/2000/svg"><defs><clipPath id="v"><rect width="800" height="300"/></clipPath></defs><rect width="800" height="300" fill="#DCEEF8"/><g clip-path="url(#v)"><path d="M605,404L607,402L611,405L609,411L603,412L597,411L596,406L600,402ZM624,393L618,396L611,398L610,394L615,392L618,392L624,388L624,388L624,393ZM-3070,388L-3070,388L-3070,388L-3068,388L-3070,393L-3070,393L-3070,393L-3070,388Z" fill="#E0E0E0" stroke="#fff" stroke-width=".4"/><path d="M224,248L242,255L261,261L268,266L273,271L275,277L292,284L295,289L285,290L287,297L297,304L303,315L309,315L309,319L317,321L314,323L324,327L323,330L317,331L314,328L305,327L295,326L287,319L281,313L276,304L262,300L254,303L247,306L249,314L241,317L235,315L224,315L224,281ZM343,259L347,262L348,267L345,270L343,264L341,260L336,257L330,252L323,249L326,247L331,250L335,252L339,254ZM330,281L324,284L319,286L313,286L305,283L299,280L300,277L309,278L315,278L316,273L318,272L319,278L325,277L327,274L333,270L332,264L338,264L340,265L340,271L337,277L331,278ZM365,276L368,278L373,285L378,288L377,291L374,292L369,288L365,282L363,274L364,273Z" fill="#E0E0E0" stroke="#fff" stroke-width=".4"/><path d="M224,248L224,281L224,315L215,307L205,304L202,307L189,308L193,299L200,296L197,285L192,277L172,268L164,267L149,257L146,262L142,263L139,260L139,255L131,250L142,246L150,247L149,244L134,244L130,238L121,236L116,231L130,228L135,225L152,229L154,233L156,250L167,256L176,245L187,239L196,239L205,242L213,246ZM59,313L60,315L61,318L54,326L45,328L44,327L45,323L49,317ZM154,292L153,284L155,281L157,277L160,280L160,285ZM-13,179L-19,188L-12,198L-13,202L-2,212L-14,213L-17,220L-17,229L-27,236L-27,247L-31,262L-33,259L-44,263L-48,257L-56,256L-61,253L-73,257L-77,252L-83,252L-92,251L-94,237L-99,235L-104,226L-105,217L-104,207L-98,200L-96,207L-89,213L-82,211L-76,212L-70,207L-65,206L-55,209L-47,206L-42,192L-38,189L-34,177L-22,177ZM105,250L116,253L120,261L111,256L102,256L97,256L89,256L92,250ZM79,260L72,258L70,254L80,253L83,257ZM90,199L91,204L97,205L98,209L97,218L92,217L90,224L94,229L91,230L87,224L84,211L86,203ZM38,212L50,212L60,204L62,207L54,217L46,219L36,217L19,217L10,219L9,226L18,236L24,231L43,227L42,232L37,231L33,237L24,241L34,254L32,257L41,269L41,276L35,279L31,275L36,267L26,271L24,268L25,264L18,258L18,248L12,251L12,263L13,278L6,279L2,276L5,267L3,257L-1,257L-4,250L-0,243L1,235L7,220L9,215L17,208L26,211ZM11,327L-2,320L7,318L13,321L16,324L16,327ZM22,309L29,308L38,304L37,310L21,313L8,312L8,308L16,306ZM-9,307L-3,306L-1,311L-12,313L-20,314L-25,314L-22,308L-16,308L-13,304ZM-110,287L-108,291L-89,292L-86,288L-67,293L-64,299L-48,301L-36,307L-47,311L-59,307L-68,307L-79,307L-88,305L-100,301L-108,300L-112,301L-131,297L-132,292L-142,292L-135,282L-122,282L-114,286ZM-152,232L-150,239L-147,245L-139,246L-134,253L-137,265L-137,281L-149,281L-157,273L-170,264L-175,258L-182,250L-188,242L-195,228L-204,219L-207,210L-211,202L-220,196L-226,187L-234,181L-244,170L-245,165L-239,165L-223,167L-214,177L-206,184L-200,188L-190,200L-180,200L-171,207L-165,215L-157,220L-162,228L-156,232Z" fill="#E0E0E0" stroke="#fff" stroke-width=".4"/><path d="M59,313L61,310L69,308L77,308L80,306L84,308L80,310L69,315L61,318L60,315Z" fill="#E0E0E0" stroke="#fff" stroke-width=".4"/><path d="M493,386L499,392L496,394L493,389ZM489,384L487,381L487,373L492,376L493,385L491,383Z" fill="#E0E0E0" stroke="#fff" stroke-width=".4"/><path d="M-170,95L-173,82L-166,74L-153,72L-143,73L-135,77L-130,70L-121,74L-119,81L-120,93L-137,102L-133,108L-144,109L-152,113L-161,111L-165,106Z" fill="#E0E0E0" stroke="#fff" stroke-width=".4"/><path d="M-143,73L-153,72L-166,74L-173,82L-170,95L-180,90L-188,90L-187,82L-196,82L-197,94L-202,109L-206,118L-205,126L-198,126L-194,136L-192,145L-186,151L-180,152L-175,157L-178,161L-185,163L-186,157L-194,153L-196,155L-200,151L-202,146L-207,140L-212,135L-214,141L-216,135L-215,129L-212,119L-207,108L-201,98L-205,89L-205,84L-206,78L-213,69L-215,64L-212,62L-208,53L-212,46L-219,38L-224,28L-219,26L-215,15L-208,14L-202,10L-196,7L-191,10L-191,17L-184,17L-186,29L-186,39L-175,32L-172,34L-166,34L-164,30L-156,31L-148,39L-148,50L-140,59L-140,68Z" fill="#E0E0E0" stroke="#fff" stroke-width=".4"/><path d="M-121,74L-130,70L-135,77L-143,73L-140,68L-140,59L-148,50L-148,39L-156,31L-164,30L-166,34L-172,34L-175,32L-186,39L-186,29L-184,17L-191,17L-191,10L-196,7L-194,3L-185,-4L-184,-2L-178,-1L-180,-14L-175,-16L-169,-7L-164,3L-151,3L-147,13L-154,16L-157,20L-145,26L-136,39L-130,48L-122,56L-119,63Z" fill="#E0E0E0" stroke="#fff" stroke-width=".4"/><path d="M-196,7L-202,10L-208,14L-215,15L-219,26L-224,28L-219,38L-212,46L-208,53L-212,62L-215,64L-213,69L-206,78L-205,84L-205,89L-201,98L-207,108L-212,119L-213,111L-210,103L-213,97L-212,85L-216,80L-220,67L-222,54L-226,45L-233,50L-244,58L-250,57L-256,54L-253,41L-255,31L-263,18L-262,15L-268,13L-275,4L-276,-5L-272,-3L-272,-11L-267,-14L-268,-18L-266,-22L-265,-34L-257,-31L-253,-40L-252,-46L-247,-55L-247,-62L-234,-70L-226,-68L-227,-75L-224,-77L-224,-81L-218,-82L-215,-75L-210,-73L-210,-64L-211,-54L-220,-45L-221,-32L-211,-33L-208,-23L-202,-21L-205,-12L-197,-8L-193,-6L-185,-9L-185,-4L-194,3Z" fill="#E0E0E0" stroke="#fff" stroke-width=".4"/><path d="M-152,113L-144,109L-133,108L-137,102L-120,93L-119,81L-121,74L-119,63L-122,56L-130,48L-136,39L-145,26L-157,20L-154,16L-147,13L-151,3L-164,3L-169,-7L-175,-16L-169,-18L-161,-18L-151,-20L-142,-25L-137,-21L-128,-19L-129,-13L-125,-8L-114,-5L-128,4L-137,14L-139,22L-131,33L-121,47L-112,54L-106,62L-101,82L-102,101L-111,107L-123,114L-131,123L-144,132L-148,126L-145,119Z" fill="#E0E0E0" stroke="#fff" stroke-width=".4"/><path d="M119,-258L119,-258L119,-258ZM118,-260L119,-258L115,-259L111,-254L108,-249L108,-239L103,-236L101,-234L97,-230L90,-228L86,-224L85,-218L84,-217L88,-215L94,-209L93,-206L88,-205L81,-204L77,-199L72,-199L72,-198L67,-200L66,-198L63,-197L62,-199L59,-200L57,-203L60,-208L62,-210L61,-212L64,-219L63,-222L57,-223L52,-227L61,-235L72,-242L79,-252L84,-248L93,-247L91,-255L107,-261L111,-268Z" fill="#E0E0E0" stroke="#fff" stroke-width=".4"/><path d="M72,-198L72,-199L77,-199L81,-204L88,-205L93,-206L94,-209L103,-194L105,-185L106,-171L102,-164L92,-161L84,-156L75,-155L74,-162L76,-171L71,-185L79,-187Z" fill="#E0E0E0" stroke="#fff" stroke-width=".4"/><path d="M478,442L487,449L492,454L488,457L482,454L475,449L468,443L462,436L460,432L465,432L470,436L475,439Z" fill="#E0E0E0" stroke="#fff" stroke-width=".4"/><path d="M441,329L444,333L436,333L432,326L439,329ZM436,320L435,322L427,313L425,307L428,307L432,315ZM428,323L424,323L417,322L415,320L416,316L423,318L426,320ZM415,304L418,307L418,309L410,305L404,301L401,297L402,296L407,299ZM390,293L394,297L392,297L387,295L383,291L383,289Z" fill="#E0E0E0" stroke="#fff" stroke-width=".4"/><path d="M293,681L299,681L299,698L296,703L295,714L291,710L284,720L282,719L276,719L269,707L268,697L262,685L262,679L269,680L279,685L285,683ZM71,571L61,577L52,580L50,586L46,591L37,591L31,593L22,590L14,592L7,592L1,599L-2,598L-7,602L-12,606L-19,605L-26,605L-37,597L-43,595L-42,588L-37,586L-36,583L-36,579L-35,571L-36,563L-41,551L-43,544L-43,538L-47,530L-47,527L-51,522L-53,513L-59,504L-60,499L-55,504L-59,493L-54,497L-51,501L-51,495L-56,486L-57,483L-59,479L-58,473L-56,470L-55,464L-56,458L-52,450L-51,458L-47,451L-38,447L-33,442L-25,438L-21,437L-18,439L-10,435L-4,434L-2,431L1,430L6,430L17,427L23,422L25,417L31,411L32,407L32,401L39,392L44,401L48,399L44,394L48,389L52,391L53,383L59,378L61,373L67,372L67,369L71,370L71,367L76,366L81,364L88,369L94,375L101,375L107,376L105,371L110,362L115,359L113,357L117,351L124,347L129,348L137,346L137,341L130,338L135,336L142,339L147,343L156,346L159,345L165,348L171,345L175,346L178,344L182,349L180,354L176,359L172,359L173,363L170,369L167,374L167,377L176,383L184,386L189,390L196,396L199,396L204,399L206,402L216,406L223,402L225,396L227,392L228,386L231,377L230,372L230,369L229,363L231,355L233,353L231,349L233,344L235,338L236,335L239,331L242,336L243,343L246,344L246,349L250,354L251,360L250,364L254,372L260,368L264,373L269,377L268,381L270,391L271,396L274,397L277,406L276,412L279,419L290,425L298,430L304,435L303,438L309,444L313,456L317,454L321,459L324,457L326,469L333,476L338,480L346,489L348,498L349,505L348,512L353,522L352,532L351,538L348,548L348,555L346,564L341,575L334,581L330,590L327,596L324,607L320,613L317,623L316,632L316,636L310,640L299,641L289,646L285,651L278,657L270,651L264,649L265,642L260,644L251,654L242,650L236,648L230,647L220,644L214,636L212,626L209,619L204,614L194,613L198,607L195,597L190,606L181,608L186,601L188,594L192,588L191,579L183,589L176,594L172,604L164,598L165,592L158,583L153,578L155,576L142,568L134,568L125,562L106,563L93,567L81,571Z" fill="#E0E0E0" stroke="#fff" stroke-width=".4"/><path d="M-100,31L-108,28L-108,18L-103,13L-92,10L-86,11L-84,15L-88,20L-91,26ZM-399,-260L-400,-268L-393,-271L-402,-296L-382,-302L-377,-305L-369,-332L-349,-327L-343,-334L-343,-349L-334,-350L-327,-361L-323,-362L-320,-351L-311,-343L-297,-337L-290,-325L-293,-308L-290,-301L-278,-299L-264,-297L-251,-288L-245,-286L-240,-273L-234,-265L-223,-265L-202,-262L-188,-264L-178,-262L-163,-253L-150,-253L-146,-249L-134,-257L-117,-261L-102,-262L-90,-267L-83,-274L-75,-279L-77,-284L-80,-289L-75,-299L-69,-297L-59,-294L-48,-302L-33,-308L-25,-318L-18,-322L-3,-324L5,-322L6,-327L-3,-338L-11,-343L-19,-337L-30,-340L-35,-338L-38,-344L-31,-359L-26,-371L-13,-365L1,-375L1,-383L10,-400L16,-405L16,-414L10,-418L19,-427L31,-430L45,-431L60,-425L69,-419L76,-402L80,-395L83,-385L87,-369L105,-364L117,-353L121,-339L137,-339L146,-345L163,-349L157,-335L153,-330L150,-314L143,-299L130,-302L122,-297L124,-284L123,-268L118,-267L118,-260L111,-268L107,-261L91,-255L93,-247L84,-248L79,-252L72,-242L61,-235L52,-227L38,-223L30,-216L19,-213L25,-219L23,-224L31,-233L25,-240L16,-235L5,-226L-2,-218L-12,-217L-17,-211L-12,-202L-3,-200L-3,-194L5,-190L17,-199L26,-194L33,-194L34,-187L20,-184L15,-177L5,-170L-0,-162L11,-155L15,-143L21,-131L28,-122L28,-113L21,-110L24,-104L30,-100L28,-90L26,-81L20,-80L12,-67L4,-52L-5,-39L-20,-29L-34,-19L-45,-18L-52,-13L-55,-17L-61,-11L-75,-5L-86,-4L-90,8L-95,8L-98,0L-96,-4L-109,-7L-114,-5L-125,-8L-129,-13L-128,-19L-137,-21L-142,-25L-151,-20L-161,-18L-169,-18L-175,-16L-180,-14L-178,-1L-184,-2L-185,-4L-185,-9L-193,-6L-197,-8L-205,-12L-202,-21L-208,-23L-211,-33L-221,-32L-220,-45L-211,-54L-210,-64L-210,-73L-215,-75L-218,-82L-224,-81L-235,-83L-232,-88L-237,-95L-244,-90L-253,-93L-264,-86L-274,-77L-282,-76L-287,-79L-292,-79L-299,-82L-305,-79L-312,-70L-313,-79L-319,-77L-331,-78L-342,-81L-351,-86L-359,-88L-362,-94L-368,-96L-378,-103L-386,-107L-391,-104L-405,-112L-415,-120L-418,-133L-411,-132L-410,-138L-414,-144L-413,-154L-424,-169L-441,-174L-444,-184L-452,-190L-454,-194L-455,-201L-455,-206L-461,-209L-464,-208L-467,-220L-464,-223L-466,-226L-456,-232L-449,-235L-438,-233L-434,-242L-421,-244L-417,-249L-401,-256Z" fill="#E0E0E0" stroke="#fff" stroke-width=".4"/><path d="M27,-37L20,-19L16,-10L11,-19L9,-28L15,-39L24,-47L28,-44Z" fill="#E0E0E0" stroke="#fff" stroke-width=".4"/><path d="M17,90L12,82L20,82L24,86L21,95ZM35,118L38,115L39,109L44,108L43,115L50,105L49,115L46,118L42,125L39,128L33,121ZM74,134L75,141L75,147L72,157L68,146L63,151L67,159L64,164L52,158L49,150L52,145L45,140L42,145L37,144L30,150L28,147L32,138L39,135L44,132L48,136L56,133L57,129L65,128L64,120L72,125L73,131ZM-7,125L-21,135L-16,128L-8,121L-2,114L3,104L5,112L-2,118ZM32,31L31,35L34,43L31,52L25,55L24,64L26,72L32,74L36,72L49,78L48,84L51,87L50,91L42,86L38,81L36,85L29,78L20,80L15,77L15,73L19,70L15,68L14,72L9,66L8,61L7,51L11,54L12,38L16,28L22,28L28,31L31,28ZM29,103L28,98L34,101L40,101L40,106L35,110L29,113L29,108ZM65,95L68,107L60,104L60,108L63,114L58,117L57,109L54,109L53,102L59,103L58,99L52,91L62,91Z" fill="#E0E0E0" stroke="#fff" stroke-width=".4"/><path d="M-196,155L-194,153L-186,157L-185,163L-178,161L-175,157L-173,158L-166,164L-162,171L-162,178L-163,183L-162,186L-161,192L-157,195L-153,204L-153,208L-161,209L-170,201L-183,193L-184,188L-190,181L-191,172L-195,166L-194,159ZM-13,179L-22,177L-34,177L-38,189L-42,192L-47,206L-55,209L-65,206L-70,207L-76,212L-82,211L-89,213L-96,207L-98,200L-90,204L-82,202L-80,193L-76,191L-63,189L-56,181L-51,175L-46,180L-44,176L-39,177L-39,170L-38,165L-30,158L-25,150L-21,150L-16,155L-15,160L-9,162L-0,166L-1,170L-8,170L-6,175Z" fill="#E0E0E0" stroke="#fff" stroke-width=".4"/><path d="M-38,165L-39,170L-39,177L-44,176L-46,180L-51,175L-47,171Z" fill="#E0E0E0" stroke="#fff" stroke-width=".4"/><path d="M233,-217L223,-203L224,-190L220,-180L222,-173L216,-165L203,-159L185,-158L170,-144L164,-148L163,-158L145,-155L133,-149L121,-149L132,-140L125,-119L118,-114L113,-119L116,-130L109,-133L105,-142L115,-145L120,-153L130,-160L138,-168L158,-172L169,-169L180,-192L187,-186L202,-199L208,-204L214,-220L212,-235L217,-244L228,-246L233,-227ZM261,-282L268,-288L271,-272L255,-268L246,-255L230,-264L225,-249L213,-249L212,-263L217,-273L228,-274L231,-294L234,-305L246,-290L254,-285ZM135,-144L141,-151L147,-150L151,-155L159,-152L160,-148L154,-140L150,-144L145,-142L142,-134L135,-138Z" fill="#E0E0E0" stroke="#fff" stroke-width=".4"/></g><g clip-path="url(#v)"><path d="M449.5,166.4L449.6,166.8L448.9,166.6L448.9,166.4L449.2,166.3ZM194.6,123.1L193.8,124.0L193.8,123.7L194.0,123.2L194.3,122.6L194.6,122.3L195.0,122.2L195.3,122.7L195.0,123.1ZM333.2,145.5L333.1,145.6L332.4,145.6L332.4,145.5L332.4,145.4L332.7,145.4L332.7,145.2L332.6,145.2L332.7,145.0L333.0,145.0L333.1,145.2L333.2,145.3ZM335.6,144.6L335.4,144.7L335.3,144.6L335.3,144.3L335.4,144.3L335.6,144.2L335.8,144.3L335.9,144.4ZM401.6,151.0L401.0,151.2L400.2,151.1L400.0,150.3L399.7,150.1L399.7,149.6L400.3,149.3L401.4,149.6L401.8,150.2L401.5,150.6Z" fill="#4ECDC4" stroke="#2C3E50" stroke-width="1"/></g><circle cx="400.0" cy="150.0" r="4" fill="#E74C3C" stroke="#fff" stroke-width="2"/><text x="400.0" y="140.0" text-anchor="middle" font-family="sans-serif" font-weight="700" font-size="10" fill="#2D3436">Palikir</text></svg>