<svg viewBox="0 0 800 300" xmlns="http://www.w3.org/2000/svg"><defs><clipPath id="v"><rect width="800" height="300"/></clipPath></defs><rect width="800" height="300" fill="#DCEEF8"/><g clip-path="url(#v)"><path d="M646,-1416L653,-1454L681,-1457L705,-1419L769,-1342L720,-1303L709,-1234L693,-1217L684,-1145L660,-1142L619,-1194L636,-1226L608,-1252L570,-1333L555,-1414L608,-1453L618,-1415ZM952,-656L919,-634L904,-630L912,-668L887,-690L858,-671L848,-631L830,-607L809,-620L784,-618L763,-646L751,-632L739,-630L737,-595L700,-603L695,-574L677,-574L664,-538L645,-484L615,-419L622,-404L615,-387L596,-387L584,-347L585,-292L597,-271L591,-225L575,-199L567,-177L554,-200L516,-157L490,-149L464,-167L457,-208L451,-299L468,-325L519,-361L557,-406L592,-470L638,-564L670,-603L723,-671L765,-695L797,-692L826,-740L861,-738L896,-749L956,-707L931,-691ZM881,-1458L853,-1400L797,-1387L740,-1405L737,-1434L709,-1436L688,-1488L748,-1520L775,-1492L795,-1527L843,-1498ZM830,-1237L787,-1200L753,-1221L766,-1244L754,-1274L794,-1293L802,-1257Z" fill="#E0E0E0" stroke="#fff" stroke-width=".4"/><path d="M537,617L529,577L517,568L517,562L501,548L499,531L511,518L516,499L513,476L517,464L537,454L551,457L550,469L567,460L568,465L558,477L558,488L565,494L562,514L550,526L553,538L563,539L568,550L575,553L574,571L565,577L559,584L546,593L548,602L546,612Z" fill="#E0E0E0" stroke="#fff" stroke-width=".4"/><path d="M188,681L189,677L188,675L188,649L219,633L239,630L254,624L262,613L284,604L285,587L296,585L305,577L330,573L333,564L328,559L322,535L320,521L313,506L332,493L352,489L365,479L383,472L416,468L447,466L457,469L475,460L496,460L503,465L517,464L513,476L516,499L511,518L499,531L501,548L517,562L517,568L529,577L537,617L543,637L544,647L541,665L542,675L540,686L541,700L534,709L545,724L546,733L553,745L562,741L577,751L585,764L519,804L464,844L437,853L416,855L415,842L406,839L394,833L390,824L325,778L260,733Z" fill="#E0E0E0" stroke="#fff" stroke-width=".4"/><path d="M567,-177L575,-199L591,-225L597,-271L585,-292L584,-347L596,-387L615,-387L622,-404L615,-419L645,-484L664,-538L677,-574L695,-574L700,-603L737,-595L739,-630L751,-632L777,-606L807,-570L807,-494L814,-476L781,-462L762,-430L765,-403L735,-367L698,-331L684,-273L697,-245L716,-224L698,-181L678,-172L671,-112L660,-79L636,-82L626,-55L603,-54L597,-86L581,-126Z" fill="#E0E0E0" stroke="#fff" stroke-width=".4"/><path d="M896,-81L916,-73L919,-64L929,-68L948,-60L950,-44L945,-35L957,-14L965,-8L964,-2L977,4L983,13L975,20L960,18L956,21L960,32L965,52L949,54L943,61L942,76L934,73L917,75L912,68L904,73L897,69L882,68L861,61L841,58L826,59L816,67L807,68L806,55L800,40L812,34L812,21L807,9L806,-6L824,-5L845,-18L850,-36L865,-47L864,-62L875,-68Z" fill="#E0E0E0" stroke="#fff" stroke-width=".4"/><path d="M965,52L972,53L977,46L983,48L1003,45L1015,62L1010,69L1012,78L1027,80L1034,93L1034,99L1058,110L1073,105L1085,119L1096,119L1124,128L1124,137L1117,152L1121,168L1118,178L1099,180L1089,188L1089,200L1073,203L1061,212L1043,213L1026,224L1027,238L1024,238L1022,232L1016,231L1002,225L997,232L994,229L964,222L963,212L945,215L938,230L923,251L915,246L905,250L897,245L902,242L905,233L910,224L909,219L913,217L915,221L926,222L931,219L928,217L929,212L922,205L920,194L913,189L914,179L905,171L897,170L883,161L871,164L866,169L858,169L853,175L839,178L832,182L823,175L811,175L799,172L791,178L790,171L779,163L783,151L788,143L792,145L787,132L805,107L814,104L816,95L807,68L816,67L826,59L841,58L861,61L882,68L897,69L904,73L912,68L917,75L934,73L942,76L943,61L949,54Z" fill="#E0E0E0" stroke="#fff" stroke-width=".4"/><path d="M806,-6L807,9L812,21L812,34L800,40L806,55L807,68L816,95L814,104L805,107L787,132L792,145L788,143L770,132L756,136L747,133L735,140L726,129L718,133L717,131L708,117L694,115L692,105L679,102L676,110L665,104L667,95L652,93L643,83L635,63L637,52L632,36L625,24L630,16L626,-1L639,-10L669,-25L693,-37L712,-31L714,-23L732,-23L756,-19L791,-19L801,-16Z" fill="#E0E0E0" stroke="#fff" stroke-width=".4"/><path d="M681,171L679,183L669,183L672,189L666,207L662,212L645,213L636,219L620,217L592,210L588,200L569,205L567,210L555,206L546,206L537,200L540,193L539,188L545,187L555,195L557,187L574,188L588,183L597,184L603,190L605,185L602,167L609,163L616,150L630,159L641,147L648,145L663,154L672,152L681,158L679,161Z" fill="#E0E0E0" stroke="#fff" stroke-width=".4"/><path d="M779,163L790,171L791,178L779,184L770,203L758,222L743,228L731,226L716,234L709,238L693,233L679,221L673,217L669,208L666,207L672,189L669,183L679,183L681,171L691,179L698,182L714,178L715,173L723,172L732,167L734,169L743,165L748,159L754,157L775,166Z" fill="#E0E0E0" stroke="#fff" stroke-width=".4"/><path d="M866,169L871,164L883,161L897,170L905,171L914,179L913,189L920,194L922,205L929,212L928,217L931,219L926,222L915,221L913,217L909,219L910,224L905,233L902,242L897,245L893,233L896,221L895,209L884,192L878,180L872,171Z" fill="#E0E0E0" stroke="#fff" stroke-width=".4"/><path d="M897,245L905,250L915,246L923,251L924,258L914,263L909,261L903,293L892,291L878,281L855,287L846,294L818,292L803,288L795,290L790,279L786,275L791,270L786,267L780,273L769,265L767,254L756,247L754,238L743,228L758,222L770,203L779,184L791,178L799,172L811,175L823,175L832,182L839,178L853,175L858,169L866,169L872,171L878,180L884,192L895,209L896,221L893,233Z" fill="#E0E0E0" stroke="#fff" stroke-width=".4"/><path d="M864,-62L865,-47L850,-36L845,-18L824,-5L806,-6L801,-16L791,-19L790,-28L792,-37L783,-42L763,-48L759,-77L781,-87L813,-85L832,-88L835,-81L845,-79Z" fill="#E0E0E0" stroke="#fff" stroke-width=".4"/><path d="M879,-127L888,-119L890,-102L896,-81L875,-68L864,-62L845,-79L835,-81L832,-88L813,-85L781,-87L759,-77L760,-103L769,-125L787,-137L803,-110L818,-111L822,-139L838,-145L846,-140L863,-127Z" fill="#E0E0E0" stroke="#fff" stroke-width=".4"/><path d="M892,-201L895,-194L881,-172L887,-138L879,-127L863,-127L846,-140L838,-145L822,-139L824,-160L817,-155L805,-168L803,-190L827,-200L851,-206L872,-199Z" fill="#E0E0E0" stroke="#fff" stroke-width=".4"/><path d="M626,-1L630,16L625,24L632,36L637,52L635,63L643,83L635,86L630,83L625,88L611,94L604,102L590,108L593,117L595,130L605,137L616,150L609,163L602,167L605,185L603,190L597,184L588,183L574,188L557,187L555,195L545,187L539,188L519,180L515,186L498,186L501,165L510,145L483,140L474,132L475,119L471,113L473,92L470,60L481,60L486,48L491,19L487,8L491,1L507,-0L511,7L524,-9L519,-21L519,-40L533,-36L545,-41L546,-28L565,-20L565,-9L584,-15L595,-24L617,-11Z" fill="#E0E0E0" stroke="#fff" stroke-width=".4"/><path d="M790,279L795,290L803,288L818,292L846,294L855,287L878,281L892,291L903,293L893,304L886,323L892,338L876,334L856,342L856,355L839,358L825,349L810,356L796,355L794,338L785,330L788,326L786,323L789,315L796,306L787,295L785,285Z" fill="#E0E0E0" stroke="#fff" stroke-width=".4"/><path d="M860,503L857,510L830,512L830,508L806,503L810,493L820,501L835,500L850,502L849,506ZM796,355L810,356L825,349L839,358L856,355L856,342L866,349L860,365L855,368L843,367L833,365L810,372L823,386L814,390L803,390L793,377L789,382L794,397L803,409L796,414L807,426L816,433L816,447L799,440L804,453L792,455L799,476L787,477L771,466L764,447L760,431L753,419L743,405L742,398L751,386L752,378L758,374L758,368L771,365L778,360L789,360L792,356Z" fill="#E0E0E0" stroke="#fff" stroke-width=".4"/><path d="M1214,458L1205,462L1199,456L1176,453L1168,457L1146,461L1136,460L1114,469L1098,469L1088,465L1067,472L1060,467L1059,480L1054,485L1049,491L1042,480L1049,471L1037,473L1021,467L1008,481L979,484L963,471L943,470L938,480L925,483L907,470L886,471L874,447L860,433L869,414L857,402L879,378L908,377L916,358L953,361L976,345L998,338L1030,337L1064,355L1091,365L1113,361L1130,363L1153,350L1173,349L1192,361L1195,370L1193,383L1207,389L1215,396L1202,403L1208,431L1204,439ZM856,342L876,334L892,338L895,348L911,356L908,362L885,364L877,371L861,385L855,373L855,368L860,365L866,349Z" fill="#E0E0E0" stroke="#fff" stroke-width=".4"/><path d="M758,368L758,374L752,378L751,386L742,398L738,397L738,391L727,383L726,371L727,353L730,345L727,341L726,333L734,320L735,325L740,323L744,330L749,332L750,342L748,350L750,361Z" fill="#E0E0E0" stroke="#fff" stroke-width=".4"/><path d="M673,217L679,221L693,233L709,238L716,234L721,244L727,252L720,262L711,256L698,257L681,252L672,253L668,258L661,252L657,263L667,276L671,284L680,294L687,300L694,311L711,321L709,326L691,316L680,306L662,299L646,279L650,277L641,266L641,257L629,252L623,264L617,255L617,245L618,245L632,246L635,241L642,246L649,246L649,239L656,236L658,225Z" fill="#E0E0E0" stroke="#fff" stroke-width=".4"/><path d="M539,188L540,193L537,200L546,206L555,206L554,218L545,222L531,219L527,230L518,231L515,227L504,236L495,237L486,231L480,219L470,224L471,211L485,195L484,188L493,191L498,186L515,186L519,180Z" fill="#E0E0E0" stroke="#fff" stroke-width=".4"/><path d="M471,113L475,119L474,132L468,133L464,130L466,114Z" fill="#E0E0E0" stroke="#fff" stroke-width=".4"/><path d="M473,92L471,113L466,114L464,130L447,117L437,119L424,105L415,93L406,92L403,82L419,76L433,78L450,72L463,85Z" fill="#E0E0E0" stroke="#fff" stroke-width=".4"/><path d="M487,8L491,19L486,48L481,60L470,60L473,92L463,85L450,72L433,78L419,76L428,67L445,21L472,7Z" fill="#E0E0E0" stroke="#fff" stroke-width=".4"/><path d="M181,341L188,335L196,331L201,343L212,343L216,340L227,341L232,354L223,361L223,381L220,384L219,396L211,398L219,413L213,429L220,436L217,443L210,452L212,460L204,466L194,463L184,466L187,447L185,432L177,430L172,420L173,404L181,395L183,385L187,370L186,359L182,350Z" fill="#E0E0E0" stroke="#fff" stroke-width=".4"/><path d="M212,460L210,452L217,443L220,436L213,429L219,413L211,398L219,396L220,384L223,381L223,361L232,354L227,341L216,340L212,343L201,343L196,331L188,335L181,341L182,323L175,311L202,292L225,297L251,297L271,301L287,300L318,301L326,311L361,323L368,317L390,329L412,326L413,341L395,358L370,363L369,372L357,386L350,406L357,420L346,431L342,447L327,452L314,470L289,471L271,470L259,479L252,488L242,486L235,478L230,464Z" fill="#E0E0E0" stroke="#fff" stroke-width=".4"/><path d="M236,-4L239,19L225,47L190,66L163,61L179,28L169,-5L195,-30L209,-46L213,-28L209,-10L221,-11Z" fill="#E0E0E0" stroke="#fff" stroke-width=".4"/><path d="M555,206L567,210L569,205L588,200L592,210L620,217L618,231L622,242L607,238L592,248L593,262L590,269L597,283L615,296L624,318L646,339L661,339L665,345L660,350L677,359L691,367L708,380L710,385L706,394L695,382L679,378L671,394L685,403L682,416L674,418L664,439L656,441L656,433L660,420L664,415L657,400L651,388L643,385L637,374L625,369L617,359L602,357L587,346L570,329L557,314L551,288L541,285L526,276L517,279L506,292L498,294L500,282L489,279L484,258L491,250L485,239L486,231L495,237L504,236L515,227L518,231L527,230L531,219L545,222L554,218ZM638,435L653,433L646,452L649,459L645,472L630,463L620,460L594,448L596,435L619,437ZM522,366L532,358L543,376L540,409L532,408L524,416L517,410L516,379L512,365Z" fill="#E0E0E0" stroke="#fff" stroke-width=".4"/><path d="M545,-41L533,-36L519,-40L511,-59L510,-94L513,-104L519,-114L536,-116L543,-126L558,-136L557,-118L552,-106L554,-97L564,-91L560,-78L554,-82L540,-57ZM592,-79L598,-62L587,-35L567,-54L564,-68Z" fill="#E0E0E0" stroke="#fff" stroke-width=".4"/><path d="M236,-4L221,-11L209,-10L213,-28L209,-46L226,-47L246,-27ZM295,11L296,11L298,-8L285,-28L285,-29L262,-35L257,-44L264,-59L258,-68L248,-52L246,-85L237,-103L244,-139L259,-169L274,-166L297,-169L277,-130L296,-135L317,-135L312,-106L295,-75L315,-72L316,-69L333,-29L347,-24L358,13L364,26L387,32L385,52L375,61L383,77L365,93L340,93L307,101L298,95L285,109L268,106L254,118L244,112L272,80L289,73L289,73L259,68L254,56L274,46L263,29L267,8Z" fill="#E0E0E0" stroke="#fff" stroke-width=".4"/><path d="M620,217L636,219L645,213L662,212L666,207L669,208L673,217L658,225L656,236L649,239L649,246L642,246L635,241L632,246L618,245L622,242L618,231Z" fill="#E0E0E0" stroke="#fff" stroke-width=".4"/><path d="M788,143L783,151L779,163L775,166L754,157L748,159L743,165L734,169L732,167L723,172L715,173L714,178L698,182L691,179L681,171L679,161L681,158L683,151L692,152L698,149L699,146L703,145L704,138L708,137L711,131L717,131L718,133L726,129L735,140L747,133L756,136L770,132Z" fill="#E0E0E0" stroke="#fff" stroke-width=".4"/><path d="M643,83L652,93L667,95L665,104L676,110L679,102L692,105L694,115L708,117L717,131L711,131L708,137L704,138L703,145L699,146L698,149L692,152L683,151L681,158L672,152L663,154L648,145L641,147L630,159L616,150L605,137L595,130L593,117L590,108L604,102L611,94L625,88L630,83L635,86Z" fill="#E0E0E0" stroke="#fff" stroke-width=".4"/><path d="M983,507L985,507L987,501L1001,501L1019,494L1006,504L1007,509L1005,508L1001,510L999,509L998,510L997,508L996,506L992,506L987,508Z" fill="#E0E0E0" stroke="#fff" stroke-width=".4"/><path d="M313,506L320,521L322,535L328,559L333,564L330,573L305,577L296,585L285,587L284,604L262,613L254,624L239,630L219,633L188,649L188,675L186,675L186,687L174,688L168,692L159,692L152,690L136,692L130,709L124,710L115,737L88,760L82,789L74,798L72,805L28,807L28,807L29,797L36,792L43,781L41,774L48,759L59,746L65,742L70,730L71,719L78,705L90,698L103,676L103,675L113,667L130,665L146,650L155,644L171,625L166,598L174,578L176,566L189,551L208,540L222,531L235,507L241,492L255,492L267,502L285,501L305,506Z" fill="#E0E0E0" stroke="#fff" stroke-width=".4"/><path d="M711,321L694,311L687,300L680,294L671,284L667,276L657,263L661,252L668,258L672,253L681,252L698,257L711,256L720,262L727,262L722,274L731,284L728,297L724,298L720,301L714,307Z" fill="#E0E0E0" stroke="#fff" stroke-width=".4"/><path d="M785,330L794,338L796,355L792,356L789,360L778,360L771,365L758,368L750,361L748,350L750,342L753,342L754,337L765,333L769,332L776,330Z" fill="#E0E0E0" stroke="#fff" stroke-width=".4"/><path d="M716,234L731,226L743,228L754,238L756,247L767,254L769,265L780,273L786,267L791,270L786,275L790,279L785,285L787,295L796,306L789,315L786,323L788,326L785,330L776,330L769,332L769,330L771,327L773,320L770,320L767,316L763,314L761,310L757,309L754,305L751,306L748,315L744,317L745,315L738,309L732,306L729,303L724,298L728,297L731,284L722,274L727,262L720,262L727,252L721,244Z" fill="#E0E0E0" stroke="#fff" stroke-width=".4"/><path d="M740,323L735,325L734,320L726,333L727,341L723,339L717,331L709,326L711,321L714,307L720,301L724,298L729,303L732,306L738,309L745,315L744,317Z" fill="#E0E0E0" stroke="#fff" stroke-width=".4"/><path d="M750,342L749,332L744,330L740,323L744,317L748,315L751,306L754,305L757,309L761,310L763,314L767,316L770,320L773,320L771,327L769,330L769,332L765,333L754,337L753,342Z" fill="#E0E0E0" stroke="#fff" stroke-width=".4"/></g><g clip-path="url(#v)"><path d="M536.9,317.1L536.4,320.9L536.8,322.0L537.5,322.8L537.8,323.7L538.4,333.8L538.2,334.7L535.9,338.7L535.4,339.9L535.2,345.0L534.8,346.3L534.0,347.6L532.5,351.9L531.2,353.8L527.7,351.5L525.6,350.5L524.7,349.4L524.0,348.6L524.4,347.6L525.4,346.6L525.5,345.7L523.3,344.8L522.2,344.2L522.2,343.1L523.0,341.4L522.7,339.9L521.4,340.0L520.4,339.8L520.3,339.1L521.0,338.1L522.0,336.9L521.9,335.6L520.8,335.0L519.8,333.8L519.3,332.4L520.2,331.3L521.4,330.6L520.5,329.1L519.8,329.1L519.3,328.8L519.8,328.0L520.7,326.9L522.2,323.7L524.1,322.2L527.6,321.3L528.5,320.8L529.4,319.7L530.3,319.0L531.4,319.1L532.5,319.5L533.2,320.0L533.7,319.5L534.1,318.1L533.9,316.9L534.0,313.4L534.6,311.5L535.7,311.4L536.6,312.5L536.5,313.4L536.8,315.6ZM501.1,186.5L498.7,187.8L498.3,188.9L497.4,190.4L495.8,191.1L494.4,191.2L493.1,191.1L492.5,190.5L492.5,189.9L491.9,189.5L490.3,189.5L488.7,190.5L487.3,192.2L487.8,193.1L489.0,193.4L489.3,193.7L489.3,194.2L488.9,194.8L488.4,195.8L485.8,198.7L483.3,201.7L482.9,202.5L482.1,203.2L478.8,204.7L478.5,205.4L478.3,208.0L477.9,210.2L475.5,212.2L473.2,214.2L472.6,215.4L472.1,216.8L471.4,218.5L471.2,219.3L472.4,220.7L472.3,221.8L471.9,223.5L470.8,224.6L469.5,225.2L469.5,227.0L470.2,227.3L471.7,227.1L473.9,225.9L475.3,224.2L474.5,222.6L474.4,222.4L474.6,222.0L476.3,220.3L478.3,219.3L481.2,219.1L484.6,219.7L485.0,219.9L484.8,221.0L485.1,222.5L485.8,223.6L484.9,226.6L485.5,227.6L486.5,228.7L487.3,229.8L488.4,230.7L489.3,232.3L489.7,233.2L488.1,234.8L485.5,236.3L485.2,237.2L485.3,238.3L485.5,239.2L487.0,240.3L488.5,242.7L489.6,244.9L491.7,247.1L492.3,247.7L492.1,248.2L491.5,249.1L490.8,252.1L489.9,252.6L488.9,252.7L486.2,254.9L485.1,254.6L483.3,254.7L482.2,255.4L482.2,256.7L483.3,258.0L484.0,259.3L484.2,260.7L485.5,261.8L487.1,262.4L488.1,262.4L488.7,262.8L489.1,263.3L489.8,266.3L489.4,267.0L488.5,267.3L488.0,268.6L486.9,270.4L486.2,271.8L486.9,273.1L487.2,274.0L486.9,275.0L487.3,276.5L488.7,278.0L492.1,280.1L495.4,281.8L496.4,282.1L500.8,281.0L501.5,281.1L502.1,282.4L502.3,283.3L501.8,284.6L500.6,286.4L499.3,287.9L498.5,289.1L498.7,290.2L498.7,291.7L497.7,292.2L497.6,291.8L497.2,291.6L496.9,291.8L496.6,292.1L496.5,292.6L494.3,293.6L492.7,294.6L486.7,300.4L483.8,302.2L483.3,303.2L482.7,305.1L481.1,306.7L479.5,307.5L475.9,308.3L472.3,310.1L470.7,309.3L466.4,309.4L463.8,307.3L458.7,306.0L457.0,302.9L454.7,302.7L453.2,302.8L452.3,302.3L452.0,301.3L452.0,300.3L450.4,300.7L449.2,300.7L448.4,301.1L447.9,301.6L447.2,301.3L446.8,301.4L446.8,302.0L445.3,302.2L443.7,301.8L439.5,300.2L438.9,300.0L436.0,299.4L434.8,298.7L433.8,297.1L433.1,296.6L432.7,296.3L430.0,297.1L429.0,298.3L427.6,299.8L417.5,306.9L415.6,309.8L413.5,314.2L413.3,316.2L414.2,322.7L416.3,326.0L416.6,326.9L415.4,326.9L413.5,326.4L411.9,325.9L410.4,326.2L409.0,326.9L407.7,327.3L406.8,327.4L406.1,327.8L405.9,328.6L405.8,329.2L404.2,329.1L400.5,327.9L397.1,327.1L395.1,328.0L393.9,328.8L393.0,328.7L392.4,327.9L391.9,326.9L390.6,326.2L387.6,325.0L387.8,324.4L388.3,323.6L388.3,323.1L387.7,322.3L385.0,321.5L383.7,321.3L382.9,321.9L382.3,322.6L380.8,320.1L379.7,319.6L378.1,319.5L376.2,318.7L374.3,317.8L369.6,316.2L368.3,316.0L367.8,316.3L367.4,317.2L367.2,319.8L367.0,320.1L364.8,320.2L362.1,319.8L360.9,320.0L359.8,320.0L358.7,319.3L354.1,320.1L353.3,319.7L352.2,318.5L350.9,317.6L349.9,317.1L349.1,316.5L348.4,316.4L347.2,317.0L345.7,317.2L344.3,317.2L343.7,317.3L340.7,314.3L340.3,313.6L338.7,313.3L336.9,313.3L332.3,311.4L330.2,310.4L329.9,309.8L329.9,309.3L329.6,309.4L328.9,310.3L328.6,311.0L328.1,311.1L327.5,311.0L326.9,310.6L326.4,310.1L326.9,309.2L327.5,308.1L327.9,306.8L327.8,305.7L326.6,304.9L324.9,304.6L323.7,304.5L322.0,303.9L321.2,303.4L320.5,302.2L320.4,301.2L323.5,300.5L326.4,297.1L329.1,285.0L331.0,270.5L332.4,267.8L334.2,267.0L332.7,265.0L331.8,266.0L331.5,267.1L331.0,267.6L332.0,254.2L332.8,249.2L334.1,244.1L336.8,246.1L339.0,248.2L340.2,250.0L341.6,256.1L342.7,257.3L344.3,258.6L343.7,257.2L342.5,256.1L340.8,248.1L339.7,245.8L338.0,243.9L332.5,239.9L331.9,239.1L331.6,237.5L333.5,237.6L335.1,238.3L334.9,237.5L334.4,236.6L333.7,233.3L333.1,225.5L333.1,224.2L332.9,222.5L331.1,222.2L329.7,222.1L328.2,221.5L320.6,216.9L318.0,212.1L315.3,208.6L314.7,207.1L314.8,205.5L316.1,202.2L314.9,200.1L313.7,199.7L312.7,198.7L313.7,197.0L314.4,195.9L315.9,195.6L318.0,196.0L319.9,197.0L321.4,197.2L317.0,194.5L309.7,195.4L308.1,195.1L306.8,194.5L306.3,192.5L307.4,191.6L308.3,190.0L307.2,188.8L305.8,188.4L303.7,188.4L301.7,188.8L301.2,188.1L302.4,186.3L301.4,185.6L300.0,185.9L298.0,186.3L296.0,185.7L294.2,183.6L293.1,183.6L292.2,183.9L291.0,183.1L289.7,182.9L288.8,183.1L287.5,182.0L280.0,179.5L276.7,179.2L273.8,180.3L272.1,180.0L270.9,178.4L269.9,175.8L265.1,173.8L266.0,172.4L268.2,172.1L270.8,171.2L271.8,170.0L269.8,168.6L268.2,168.3L267.6,167.8L267.0,166.6L267.9,166.0L268.5,166.3L270.3,166.5L273.4,166.2L272.3,164.9L271.1,164.6L270.5,164.3L268.0,164.2L266.9,164.6L264.3,164.4L263.7,163.0L263.5,161.9L264.2,159.3L267.9,157.0L277.0,154.4L280.8,154.8L283.6,154.3L286.8,152.8L288.2,151.4L292.9,150.5L297.2,152.0L301.3,157.5L303.2,159.4L307.9,156.2L315.0,156.3L316.4,158.1L317.0,156.6L318.3,154.7L319.3,155.5L319.9,156.7L327.3,156.4L328.4,156.1L326.4,154.7L324.9,151.6L324.5,140.0L322.4,136.7L320.1,131.5L319.0,128.4L318.9,127.3L319.3,125.8L322.2,125.8L324.4,126.2L328.7,125.1L330.7,125.9L330.6,128.3L331.2,131.4L332.0,132.8L333.0,134.5L336.5,134.4L340.2,135.3L344.9,135.5L351.7,137.2L354.6,136.2L357.5,134.1L362.9,132.7L363.4,132.0L360.2,132.3L357.3,131.0L357.0,129.5L357.3,128.2L358.4,125.2L366.7,120.5L372.6,119.0L378.8,116.4L381.9,113.7L383.9,110.2L384.6,109.5L385.5,108.8L384.6,107.5L385.2,94.1L385.8,91.7L387.0,89.7L388.9,88.1L391.6,86.5L401.8,84.1L403.4,83.2L403.6,84.6L404.3,86.5L404.8,87.5L404.4,88.8L404.8,89.9L406.1,91.9L407.9,93.7L409.4,95.0L409.9,94.8L411.0,94.5L412.9,93.3L414.6,92.9L415.5,93.8L415.9,94.3L417.0,96.4L417.3,98.6L417.7,100.4L418.6,101.1L421.6,101.4L423.9,102.0L424.5,102.6L425.3,106.6L425.7,107.2L426.3,106.7L426.9,106.1L427.6,106.0L428.9,106.2L430.7,106.3L432.5,106.7L435.0,109.0L435.0,109.7L434.5,111.0L434.3,112.1L434.7,112.5L435.4,113.5L435.2,114.8L434.5,115.6L434.3,116.4L434.3,116.8L434.5,117.2L435.1,117.5L438.8,118.0L442.1,117.5L444.3,116.3L444.6,115.0L445.3,113.5L446.5,112.2L447.4,111.7L448.2,112.3L446.8,117.6L447.8,118.9L447.9,120.9L448.4,122.7L449.5,122.6L451.0,122.9L452.0,123.6L453.3,124.6L455.0,125.6L456.2,125.9L456.7,126.8L457.7,127.7L459.2,129.6L460.6,130.9L461.3,130.9L462.6,130.4L464.5,130.0L466.1,130.1L466.7,131.1L468.2,131.5L468.7,131.9L469.3,132.6L470.3,132.8L471.5,132.6L472.3,131.6L473.5,131.2L474.7,131.4L475.4,131.9L476.7,132.6L477.4,132.5L478.8,132.9L480.4,134.3L480.9,135.7L481.1,136.5L481.7,137.4L484.2,141.2L485.0,141.4L485.8,140.8L486.4,140.0L487.2,139.8L488.4,140.2L489.3,140.6L489.7,142.3L490.0,142.6L490.5,142.3L491.6,142.2L493.1,142.6L495.3,142.1L497.0,141.4L497.9,141.5L499.4,143.4L501.0,144.1L504.6,144.7L508.5,145.6L510.0,146.3L511.1,146.7L511.2,149.2L510.8,149.6L507.0,154.7L505.4,156.5L504.6,159.1L503.9,163.0L502.8,166.8L501.1,170.4L500.5,173.1L501.0,174.8L500.7,177.6L499.6,181.4L499.4,184.2L500.1,186.1ZM332.2,233.8L331.6,236.2L330.3,234.0L328.6,232.1L328.2,230.3L328.2,229.8L330.2,231.1ZM1222.3,1479.4L1221.1,1479.5L1220.5,1479.0L1220.2,1477.8L1220.5,1476.6L1220.6,1475.6L1219.6,1474.0L1220.6,1473.0L1221.4,1474.1L1221.8,1474.2L1223.1,1475.0L1222.7,1476.4L1222.8,1476.8L1222.3,1478.3ZM1426.1,1647.6L1423.4,1648.2L1421.5,1648.0L1417.8,1646.3L1416.7,1645.1L1415.3,1641.8L1415.6,1640.7L1416.8,1638.6L1419.4,1637.8L1422.3,1638.1L1423.5,1638.7L1425.0,1641.0L1426.9,1643.5L1426.6,1646.3ZM-812.9,946.8L-813.1,947.9L-813.6,948.1L-814.3,947.2L-817.4,947.4L-817.9,946.5L-818.0,946.1L-816.5,944.7L-818.3,944.3L-818.9,943.7L-820.5,940.7L-820.3,939.8L-819.7,939.3L-818.7,939.3L-816.7,940.2L-815.4,941.6L-814.9,941.6L-814.7,942.0L-814.9,943.0L-814.1,943.8L-813.8,944.4ZM-822.5,912.2L-824.7,912.4L-826.3,912.3L-826.6,910.9L-825.9,909.6L-826.4,908.2L-826.1,907.3L-825.3,906.7L-824.1,907.5L-823.9,908.6L-823.1,909.6L-819.6,911.7ZM-827.6,916.7L-829.1,917.6L-829.9,917.3L-830.8,915.6L-831.5,910.8L-831.0,910.1L-830.6,909.7L-828.6,910.3L-827.7,911.0L-826.8,911.4L-827.3,912.3L-827.0,915.9ZM-820.7,919.0L-821.7,919.1L-822.2,918.9L-822.3,917.8L-821.5,916.9L-821.0,916.7L-820.3,917.7L-820.1,918.4ZM-693.7,1183.4L-693.4,1183.2L-692.7,1183.1L-692.1,1183.1L-691.1,1181.7L-689.6,1180.8L-686.8,1176.0L-685.6,1174.0L-685.5,1172.9L-685.1,1170.6L-685.8,1167.8L-685.5,1167.0L-683.1,1163.7L-682.0,1161.9L-682.0,1160.3L-681.7,1159.2L-682.0,1158.5L-682.5,1158.4L-683.4,1156.9L-684.0,1155.7L-685.6,1154.4L-686.7,1153.1L-688.6,1150.2L-688.4,1148.6L-688.9,1148.0L-689.5,1147.4L-689.4,1146.6L-689.8,1144.8L-690.3,1143.0L-690.5,1141.9L-690.0,1140.0L-690.3,1137.9L-690.9,1136.8L-691.1,1135.1L-690.9,1133.6L-690.4,1132.8L-690.5,1131.7L-688.2,1128.4L-686.4,1126.4L-684.9,1125.0L-683.5,1124.0L-681.6,1119.0L-680.3,1117.1L-678.9,1116.9L-671.4,1121.1L-667.9,1121.5L-660.7,1123.8L-658.1,1126.7L-652.2,1131.6L-649.1,1133.1L-649.0,1134.4L-649.7,1136.4L-647.7,1134.6L-644.6,1137.4L-643.7,1138.8L-642.7,1141.3L-643.0,1143.0L-643.5,1143.8L-643.5,1144.4L-642.6,1143.5L-642.1,1142.8L-641.9,1141.1L-641.2,1139.0L-640.1,1139L-639.3,1140.3L-637.7,1145.7L-637.0,1146.8L-636.8,1148.6L-636.9,1149.3L-636.8,1150.1L-637.4,1150.5L-639.0,1151.4L-639.7,1152.6L-640.1,1153.7L-641.1,1154.5L-642.1,1155.5L-642.4,1156.3L-643.3,1157.0L-643.5,1158.0L-645.7,1161.8L-646.6,1163.5L-647.9,1165.3L-648.6,1165.9L-649.7,1167.0L-650.3,1168.2L-650.3,1169.5L-651.1,1171.0L-651.5,1172.3L-652.2,1173.1L-654.1,1177.2L-654.2,1178.7L-654.7,1179.5L-656.0,1181.5L-656.9,1182.7L-658.5,1183.6L-660.2,1184.6L-660.8,1185.6L-662.0,1186.2L-662.8,1186.2L-664.2,1185.8L-666.1,1185.6L-667.0,1185.7L-667.5,1185.2L-668.1,1184.0L-669.0,1183.2L-669.7,1183.5L-671.0,1184.3L-672.4,1184.8L-673.5,1184.6L-675.7,1184.1L-676.8,1183.8L-677.0,1183.2L-677.4,1182.9L-677.9,1183.0L-678.6,1183.7L-679.5,1184.3L-680.8,1185.2L-683.5,1186.8L-684.3,1187.4L-685.1,1187.0L-686.2,1186.7L-687.5,1186.7L-690.2,1185.7L-691.7,1185.0L-692.4,1184.0L-693.2,1183.7Z" fill="#4ECDC4" stroke="#2C3E50" stroke-width="1"/></g><circle cx="400.0" cy="150.0" r="4" fill="#E74C3C" stroke="#fff" stroke-width="2"/><text x="400.0" y="140.0" text-anchor="middle" font-family="sans-serif" font-weight="700" font-size="10" fill="#2D3436">Paris</text></svg>