<svg viewBox="0 0 800 300" xmlns="http://www.w3.org/2000/svg"><defs><clipPath id="v"><rect width="800" height="300"/></clipPath></defs><rect width="800" height="300" fill="#DCEEF8"/><g clip-path="url(#v)"><path d="M865,176L868,178L937,216L939,227L966,246L957,270L958,281L971,288L971,293L966,304L967,310L966,319L972,332L980,351L987,355L972,366L951,374L940,373L933,379L920,380L915,382L892,377L878,378L872,352L866,343L862,337L843,334L833,328L821,325L813,322L805,317L795,292L784,282L780,271L782,261L778,243L786,242L793,235L801,225L805,221L805,215L801,211L800,203L805,201L806,190L799,179L806,177L826,177Z" fill="#E0E0E0" stroke="#fff" stroke-width=".4"/><path d="M778,243L782,261L780,271L784,282L795,292L805,317L798,315L772,318L767,320L761,333L766,341L762,364L760,383L765,387L778,394L784,391L785,412L771,412L763,401L756,393L741,390L737,380L725,386L710,383L704,374L692,373L683,373L682,367L675,367L666,365L655,368L646,368L642,370L643,347L636,339L635,328L638,316L634,309L634,296L610,297L612,290L602,290L601,293L590,294L585,305L582,310L571,307L565,310L553,311L545,301L541,295L536,284L531,269L475,269L468,271L462,271L455,274L452,268L457,266L457,257L461,252L467,248L472,250L479,243L489,243L491,249L498,252L509,240L520,231L525,225L524,209L532,191L541,181L554,172L556,165L556,159L559,152L558,141L561,124L564,112L570,102L571,91L573,77L580,68L591,62L606,68L618,75L632,77L646,81L652,69L655,68L663,70L685,60L692,64L698,64L701,59L708,57L723,59L735,60L741,58L753,73L761,76L766,73L775,74L786,70L790,78L807,91L806,113L813,115L807,122L800,127L793,137L789,146L788,161L783,169L783,183L777,188L777,200L774,201L772,211L777,220Z" fill="#E0E0E0" stroke="#fff" stroke-width=".4"/><path d="M1011,189L1000,174L1000,104L1016,83L1022,77L1034,76L1051,63L1076,62L1129,5L1143,-11L1151,-23L1151,-33L1151,-53L1151,-61L1151,-61L1158,-61L1166,-64L1176,-66L1185,-73L1193,-73L1193,-68L1191,-56L1191,-46L1187,-39L1182,-18L1173,3L1161,28L1145,56L1128,77L1106,103L1087,119L1059,137L1041,152L1020,175L1016,185Z" fill="#E0E0E0" stroke="#fff" stroke-width=".4"/><path d="M966,246L939,227L937,216L868,178L865,176L865,155L870,148L880,135L887,121L878,99L876,90L867,76L879,65L892,53L902,56L902,66L908,73L921,73L945,89L951,89L956,89L960,91L973,92L978,84L996,76L1003,83L1016,83L1000,104L1000,174L1011,189L998,197L993,205L986,206L983,220L977,227L974,240Z" fill="#E0E0E0" stroke="#fff" stroke-width=".4"/><path d="M688,0L673,-8L667,-14L665,-20L668,-28L668,-36L657,-48L655,-56L655,-61L648,-66L648,-78L644,-85L638,-84L639,-91L644,-99L642,-107L649,-113L645,-118L650,-130L658,-145L675,-143L674,-223L674,-231L696,-231L696,-272L772,-272L846,-272L922,-272L928,-252L924,-248L926,-227L933,-203L941,-198L951,-191L941,-179L927,-176L921,-170L919,-157L911,-128L913,-120L910,-103L903,-84L891,-74L883,-59L881,-51L872,-46L866,-26L867,-8L866,-23L864,-24L864,-33L862,-40L852,-48L850,-62L852,-76L843,-77L842,-73L830,-72L835,-66L837,-55L826,-44L817,-30L807,-28L791,-39L784,-35L782,-30L772,-26L771,-22L752,-22L750,-26L736,-27L729,-24L724,-25L714,-36L711,-42L697,-39L692,-30L687,-13L680,-9L675,-7Z" fill="#E0E0E0" stroke="#fff" stroke-width=".4"/><path d="M674,-223L675,-143L658,-145L650,-130L645,-118L649,-113L642,-107L644,-99L639,-91L638,-84L644,-85L648,-78L648,-66L655,-61L655,-56L643,-53L634,-45L620,-24L602,-15L583,-16L578,-14L580,-7L570,-1L562,7L538,14L533,10L530,9L527,14L511,16L514,11L508,-3L505,-11L497,-14L486,-25L490,-34L499,-32L504,-34L514,-33L504,-51L505,-64L504,-77L496,-89L498,-99L486,-99L486,-112L478,-119L486,-145L510,-163L511,-189L519,-230L523,-239L515,-246L515,-252L507,-258L503,-290L522,-301L598,-261Z" fill="#E0E0E0" stroke="#fff" stroke-width=".4"/><path d="M-763,78L-774,96L-780,110L-787,117L-796,118L-799,113L-803,112L-809,117L-817,113L-812,105L-811,97L-807,89L-815,77L-816,64L-806,48L-800,50L-786,54L-766,70ZM338,-928L347,-921L374,-915L365,-896L362,-875L357,-871L348,-873L349,-866L335,-850L335,-838L344,-842L350,-830L350,-822L355,-812L349,-804L354,-783L364,-780L362,-769L344,-754L307,-761L279,-752L277,-737L255,-733L234,-745L227,-739L192,-751L184,-761L194,-777L198,-831L178,-860L164,-874L135,-885L133,-906L158,-912L189,-905L183,-938L201,-925L246,-948L251,-973L268,-979L271,-968L280,-968L288,-956L302,-941L312,-944L328,-930L332,-928ZM387,-741L399,-751L402,-728L396,-709L387,-714L383,-731Z" fill="#E0E0E0" stroke="#fff" stroke-width=".4"/><path d="M814,592L803,590L797,592L788,589L780,588L768,579L753,576L748,563L748,556L740,554L718,532L712,520L708,516L701,500L722,503L728,505L735,504L745,491L762,475L769,474L771,467L782,459L796,456L797,463L813,463L822,467L826,472L835,474L845,480L845,505L841,519L841,534L844,540L842,552L839,554L834,569Z" fill="#E0E0E0" stroke="#fff" stroke-width=".4"/><path d="M780,588L753,604L736,619L730,633L724,641L714,642L710,653L709,659L696,664L681,663L672,657L664,655L654,659L650,670L641,676L631,685L618,688L613,680L615,667L604,647L599,644L599,584L617,583L618,511L632,510L662,503L669,511L681,503L687,503L697,499L701,500L708,516L712,520L718,532L740,554L748,556L748,563L753,576L768,579Z" fill="#E0E0E0" stroke="#fff" stroke-width=".4"/><path d="M599,644L599,723L582,734L572,735L560,731L551,730L548,720L540,714L531,725L517,709L510,693L505,672L501,657L494,625L494,600L491,589L484,580L474,564L464,539L460,527L445,507L443,492L453,488L464,485L476,485L488,494L491,493L568,492L581,501L627,504L662,496L677,492L690,493L697,497L697,499L687,503L681,503L669,511L662,503L632,510L618,511L617,583L599,584Z" fill="#E0E0E0" stroke="#fff" stroke-width=".4"/><path d="M-98,-104L-106,-119L-115,-126L-107,-130L-98,-144L-93,-154L-86,-160L-77,-158L-68,-163L-57,-163L-48,-157L-35,-152L-24,-137L-11,-124L-10,-112L-7,-100L0,-95L2,-87L1,-81L-2,-80L-12,-82L-13,-79L-18,-79L-31,-84L-40,-84L-76,-85L-81,-83L-87,-83L-97,-80L-100,-95L-83,-95L-78,-97L-75,-97L-68,-102L-60,-98L-51,-98L-43,-102L-47,-108L-53,-104L-59,-104L-67,-109L-73,-109L-77,-104Z" fill="#E0E0E0" stroke="#fff" stroke-width=".4"/><path d="M1,-81L2,-87L0,-95L-7,-100L-10,-112L-11,-124L-5,-127L-2,-139L4,-139L18,-134L28,-138L36,-136L39,-141L115,-141L119,-155L116,-157L107,-244L97,-333L127,-333L191,-288L255,-243L259,-234L271,-228L280,-225L280,-212L301,-214L301,-168L291,-155L289,-142L273,-139L247,-138L240,-131L227,-130L215,-130L210,-134L200,-131L182,-123L179,-116L164,-108L161,-103L153,-99L144,-101L139,-96L136,-83L121,-67L121,-60L116,-52L117,-41L110,-38L105,-36L102,-44L97,-42L93,-42L90,-36L75,-37L70,-40L67,-38L62,-43L63,-49L60,-51L56,-49L57,-56L61,-61L53,-69L51,-74L47,-79L43,-79L38,-76L32,-74L27,-70L19,-71L13,-76L10,-77L5,-74L2,-74Z" fill="#E0E0E0" stroke="#fff" stroke-width=".4"/><path d="M-104,-251L-100,-258L-26,-258L-29,-288L-25,-298L-7,-300L-7,-354L55,-353L55,-385L127,-333L97,-333L107,-244L116,-157L119,-155L115,-141L39,-141L36,-136L28,-138L18,-134L4,-139L-2,-139L-5,-127L-11,-124L-24,-137L-35,-152L-48,-157L-57,-163L-68,-163L-77,-158L-86,-160L-93,-154L-95,-164L-89,-174L-87,-193L-89,-213L-91,-223L-89,-233L-94,-243Z" fill="#E0E0E0" stroke="#fff" stroke-width=".4"/><path d="M271,38L256,40L251,27L252,-17L248,-21L247,-30L241,-37L235,-43L237,-53L244,-55L248,-64L257,-66L261,-71L268,-77L274,-77L289,-66L288,-59L292,-48L289,-40L291,-35L281,-23L276,-17L272,-5L273,7Z" fill="#E0E0E0" stroke="#fff" stroke-width=".4"/><path d="M503,-290L507,-258L515,-252L515,-246L523,-239L519,-230L511,-189L510,-163L486,-145L478,-119L486,-112L486,-99L498,-99L496,-89L491,-88L490,-82L486,-82L474,-103L469,-104L454,-93L440,-98L429,-100L424,-97L413,-97L401,-89L392,-89L369,-99L360,-94L350,-94L343,-102L324,-109L303,-107L298,-102L296,-91L290,-83L289,-66L274,-77L268,-77L261,-71L262,-85L240,-89L239,-99L228,-111L226,-120L227,-130L240,-131L247,-138L273,-139L289,-142L291,-155L301,-168L301,-214L328,-223L383,-263L449,-302L479,-293L489,-282Z" fill="#E0E0E0" stroke="#fff" stroke-width=".4"/><path d="M271,38L273,7L272,-5L276,-17L281,-23L291,-35L289,-40L292,-48L288,-59L289,-66L290,-83L296,-91L298,-102L303,-107L324,-109L343,-102L350,-94L360,-94L369,-99L392,-89L401,-89L413,-97L424,-97L429,-100L440,-98L454,-93L469,-104L474,-103L486,-82L490,-82L498,-74L495,-71L494,-64L478,-49L473,-37L471,-27L467,-23L463,-9L453,-1L450,9L445,16L444,24L431,31L420,23L413,23L401,34L396,35L387,53L382,67L362,73L355,72L348,77L332,76L322,64L316,50L303,38L288,38Z" fill="#E0E0E0" stroke="#fff" stroke-width=".4"/><path d="M496,-89L504,-77L505,-64L504,-51L514,-33L504,-34L499,-32L490,-34L486,-25L497,-14L505,-11L508,-3L514,11L511,16L501,35L497,39L495,54L497,62L496,67L505,77L506,84L513,94L522,100L523,109L525,114L523,125L508,120L493,115L469,114L467,113L455,116L444,113L435,114L404,114L407,99L399,86L390,83L387,75L382,72L382,67L387,53L396,35L401,34L413,23L420,23L431,31L444,24L445,16L450,9L453,-1L463,-9L467,-23L471,-27L473,-37L478,-49L494,-64L495,-71L498,-74L490,-82L491,-88Z" fill="#E0E0E0" stroke="#fff" stroke-width=".4"/><path d="M237,-53L235,-43L241,-37L247,-30L248,-21L252,-17L251,27L256,40L240,44L236,38L231,26L230,16L234,-1L229,-8L227,-23L227,-37L219,-47L221,-54Z" fill="#E0E0E0" stroke="#fff" stroke-width=".4"/><path d="M221,-54L219,-47L227,-37L227,-23L229,-8L234,-1L230,16L231,26L236,38L240,44L211,56L200,62L183,68L166,62L167,55L158,38L163,17L171,1L166,-27L164,-41L164,-52L197,-53L206,-52L212,-55Z" fill="#E0E0E0" stroke="#fff" stroke-width=".4"/><path d="M67,-38L70,-40L75,-37L90,-36L93,-42L97,-42L102,-44L105,-36L110,-38L117,-41L126,-37L129,-30L138,-26L145,-31L153,-32L166,-27L171,1L163,17L158,38L167,55L166,62L157,62L144,59L132,59L109,62L96,68L77,75L73,74L75,59L77,56L76,49L68,41L62,39L57,34L61,26L59,16L60,11L63,11L64,2L62,-1L64,-4L71,-6L67,-22L62,-30L64,-36Z" fill="#E0E0E0" stroke="#fff" stroke-width=".4"/><path d="M-40,-84L-31,-84L-18,-79L-13,-79L-12,-82L-2,-80L1,-81L2,-74L5,-74L10,-77L13,-76L19,-71L27,-70L32,-74L38,-76L43,-79L47,-79L51,-74L53,-69L61,-61L57,-56L56,-49L60,-51L63,-49L62,-43L67,-38L64,-36L62,-30L67,-22L71,-6L64,-4L62,-1L64,2L63,11L60,11L54,10L50,18L45,18L41,14L43,6L35,-6L30,-3L26,-3L20,-2L21,-9L18,-14L18,-20L14,-28L9,-35L-7,-35L-11,-31L-16,-31L-19,-26L-22,-21L-32,-13L-40,-24L-48,-32L-52,-34L-57,-38L-59,-46L-62,-51L-68,-54L-59,-63L-53,-63L-48,-66L-44,-66L-41,-69L-43,-75L-41,-77Z" fill="#E0E0E0" stroke="#fff" stroke-width=".4"/><path d="M-97,-80L-87,-83L-81,-83L-76,-85L-40,-84L-41,-77L-43,-75L-41,-69L-44,-66L-48,-66L-53,-63L-59,-63L-68,-54L-78,-62L-86,-63L-90,-69L-90,-72L-96,-76Z" fill="#E0E0E0" stroke="#fff" stroke-width=".4"/><path d="M60,11L59,16L61,26L57,34L62,39L68,41L76,49L77,56L75,59L73,74L68,74L49,65L32,51L15,40L3,28L7,22L8,16L17,6L26,-3L30,-3L35,-6L43,6L41,14L45,18L50,18L54,10Z" fill="#E0E0E0" stroke="#fff" stroke-width=".4"/><path d="M-32,-13L-22,-21L-19,-26L-16,-31L-11,-31L-7,-35L9,-35L14,-28L18,-20L18,-14L21,-9L20,-2L26,-3L17,6L8,16L7,22L3,28L-3,27L-16,19L-26,9L-29,2Z" fill="#E0E0E0" stroke="#fff" stroke-width=".4"/><path d="M117,-41L116,-52L121,-60L121,-67L136,-83L139,-96L144,-101L153,-99L161,-103L164,-108L179,-116L182,-123L200,-131L210,-134L215,-130L227,-130L226,-120L228,-111L239,-99L240,-89L262,-85L261,-71L257,-66L248,-64L244,-55L237,-53L221,-54L212,-55L206,-52L197,-53L164,-52L164,-41L166,-27L153,-32L145,-31L138,-26L129,-30L126,-37Z" fill="#E0E0E0" stroke="#fff" stroke-width=".4"/><path d="M741,58L735,60L723,59L708,57L701,59L698,64L692,64L685,60L663,70L655,68L652,69L646,81L632,77L618,75L606,68L591,62L580,68L573,77L571,91L559,90L546,86L535,97L525,114L523,109L522,100L513,94L506,84L505,77L496,67L497,62L495,54L497,39L501,35L511,16L527,14L530,9L533,10L538,14L562,7L570,-1L580,-7L578,-14L583,-16L602,-15L620,-24L634,-45L643,-53L655,-56L657,-48L668,-36L668,-28L665,-20L667,-14L673,-8L688,0L698,8L698,14L711,24L719,33L724,44L738,52Z" fill="#E0E0E0" stroke="#fff" stroke-width=".4"/><path d="M571,91L570,102L564,112L561,124L558,141L559,152L556,159L556,165L554,172L541,181L532,191L524,209L525,225L520,231L509,240L498,252L491,249L489,243L479,243L472,250L467,248L460,242L455,245L447,253L431,233L446,223L439,210L445,205L458,203L459,195L470,204L486,204L492,195L495,183L493,168L484,157L492,135L487,131L473,132L468,123L469,114L493,115L508,120L523,125L525,114L535,97L546,86L559,90Z" fill="#E0E0E0" stroke="#fff" stroke-width=".4"/><path d="M404,114L435,114L435,137L407,137L401,138L397,135Z" fill="#E0E0E0" stroke="#fff" stroke-width=".4"/><path d="M805,317L813,322L821,325L833,328L843,334L852,342L857,359L854,364L850,380L854,396L848,403L842,421L852,426L794,442L796,456L782,459L771,467L769,474L762,475L745,491L735,504L728,505L722,503L701,500L697,499L697,497L690,493L677,492L662,496L649,484L637,467L637,405L677,405L675,398L678,391L675,382L677,373L675,367L682,367L683,373L692,373L704,374L710,383L725,386L737,380L741,390L756,393L763,401L771,412L785,412L784,391L778,394L765,387L760,383L762,364L766,341L761,333L767,320L772,318L798,315Z" fill="#E0E0E0" stroke="#fff" stroke-width=".4"/><path d="M843,334L862,337L866,343L872,352L878,378L872,393L878,418L884,418L891,424L899,438L901,464L893,468L887,482L874,469L873,456L877,446L876,438L868,434L863,435L852,426L842,421L848,403L854,396L850,380L854,364L857,359L852,342Z" fill="#E0E0E0" stroke="#fff" stroke-width=".4"/><path d="M878,378L892,377L915,382L920,380L933,379L940,373L951,374L972,366L987,355L990,363L990,383L992,400L993,430L996,440L990,454L983,468L971,480L953,488L932,497L910,519L903,523L890,537L882,541L880,556L889,571L893,583L893,589L897,588L896,609L893,618L898,622L895,631L887,638L871,645L848,656L840,664L842,673L846,675L845,686L830,686L829,676L826,667L824,659L828,636L823,621L814,592L834,569L839,554L842,552L844,540L841,534L841,519L845,505L845,480L835,474L826,472L822,467L813,463L797,463L796,456L794,442L852,426L863,435L868,434L876,438L877,446L873,456L874,469L887,482L893,468L901,464L899,438L891,424L884,418L878,418L872,393Z" fill="#E0E0E0" stroke="#fff" stroke-width=".4"/><path d="M467,248L461,252L457,257L457,266L452,268L447,253L455,245L460,242ZM455,274L462,271L468,271L475,269L531,269L536,284L541,295L545,301L553,311L565,310L571,307L582,310L585,305L590,294L601,293L602,290L612,290L610,297L634,296L634,309L638,316L635,328L636,339L643,347L642,370L646,368L655,368L666,365L675,367L677,373L675,382L678,391L675,398L677,405L637,405L637,467L649,484L662,496L627,504L581,501L568,492L491,493L488,494L476,485L464,485L453,488L443,492L442,479L444,462L451,444L452,435L458,418L463,410L473,397L480,388L482,374L481,363L475,356L470,344L465,333L466,329L472,321L466,302L462,290L453,277Z" fill="#E0E0E0" stroke="#fff" stroke-width=".4"/><path d="M800,203L801,211L805,215L805,221L801,225L793,235L786,242L778,243L777,220L772,211L784,213L790,202Z" fill="#E0E0E0" stroke="#fff" stroke-width=".4"/><path d="M-98,-104L-77,-104L-73,-109L-67,-109L-59,-104L-53,-104L-47,-108L-43,-102L-51,-98L-60,-98L-68,-102L-75,-97L-78,-97L-83,-95L-100,-95Z" fill="#E0E0E0" stroke="#fff" stroke-width=".4"/><path d="M913,-120L911,-128L919,-157L921,-170L927,-176L941,-179L951,-191L962,-168L967,-149L978,-140L1004,-121L1014,-110L1025,-99L1030,-92L1040,-86L1034,-81L1026,-83L1019,-89L1012,-101L1003,-107L998,-114L982,-122L969,-122L964,-126L953,-122L941,-130L935,-116Z" fill="#E0E0E0" stroke="#fff" stroke-width=".4"/><path d="M885,-427L906,-424L915,-430L919,-438L934,-441L937,-449L943,-453L924,-475L962,-486L966,-489L989,-483L1017,-468L1071,-423L1106,-422L1123,-420L1128,-409L1141,-410L1149,-391L1158,-386L1161,-379L1174,-370L1175,-361L1174,-354L1176,-347L1181,-341L1184,-334L1187,-329L1193,-325L1198,-326L1201,-318L1202,-313L1209,-292L1267,-282L1271,-286L1279,-272L1267,-231L1209,-211L1155,-203L1137,-194L1123,-173L1114,-170L1110,-176L1102,-175L1084,-177L1080,-179L1058,-179L1053,-177L1046,-182L1040,-173L1042,-164L1034,-158L1032,-166L1026,-172L1024,-180L1015,-187L1004,-204L999,-221L986,-235L977,-238L965,-257L963,-272L963,-284L953,-307L944,-315L933,-319L927,-331L928,-336L923,-347L917,-351L910,-367L898,-384L889,-399L879,-399L882,-411L883,-419Z" fill="#E0E0E0" stroke="#fff" stroke-width=".4"/><path d="M1129,5L1076,62L1051,63L1034,76L1022,77L1016,83L1003,83L996,76L978,84L973,92L960,91L956,89L951,89L945,89L921,73L908,73L902,66L902,56L892,53L880,32L872,27L868,20L859,10L847,9L854,-2L864,-3L867,-8L866,-26L872,-46L881,-51L883,-59L891,-74L903,-84L910,-103L913,-120L935,-116L941,-130L953,-122L964,-126L969,-122L982,-122L998,-114L1003,-107L1012,-101L1019,-89L1026,-83L1019,-75L1013,-65L1014,-60L1015,-54L1025,-54L1030,-55L1034,-52L1030,-45L1037,-34L1044,-25L1051,-18L1113,5Z" fill="#E0E0E0" stroke="#fff" stroke-width=".4"/><path d="M865,176L826,177L806,177L799,179L788,185L783,183L783,169L788,161L789,146L793,137L800,127L807,122L813,115L806,113L807,91L815,85L827,90L842,85L855,85L867,76L876,90L878,99L887,121L880,135L870,148L865,155Z" fill="#E0E0E0" stroke="#fff" stroke-width=".4"/><path d="M799,179L806,190L805,201L800,203L790,202L784,213L772,211L774,201L777,200L777,188L783,183L788,185Z" fill="#E0E0E0" stroke="#fff" stroke-width=".4"/><path d="M807,91L790,78L786,70L775,74L766,73L761,76L753,73L741,58L738,52L724,44L719,33L711,24L698,14L698,8L688,0L675,-7L680,-9L687,-13L692,-30L697,-39L711,-42L714,-36L724,-25L729,-24L736,-27L750,-26L752,-22L771,-22L772,-26L782,-30L784,-35L791,-39L807,-28L817,-30L826,-44L837,-55L835,-66L830,-72L842,-73L843,-77L852,-76L850,-62L852,-48L862,-40L864,-33L864,-24L866,-23L867,-8L864,-3L854,-2L847,9L859,10L868,20L872,27L880,32L892,53L879,65L867,76L855,85L842,85L827,90L815,85Z" fill="#E0E0E0" stroke="#fff" stroke-width=".4"/></g><g clip-path="url(#v)"><path d="M473.1,116.3L473.0,117.6L471.5,120.9L470.8,123.4L470.6,126.1L471.1,128.2L471.7,129.7L472.2,131.4L471.9,132.6L471.1,133.1L471.7,133.7L472.8,133.8L474.6,133.3L477.5,132.4L481.3,131.1L483.7,130.4L487.8,130.9L490.0,131.3L491.1,132.3L492.4,136.1L492.9,136.7L493.9,138.3L494.8,140.3L494.9,141.3L494.8,142.0L494.0,143.0L493.0,144.6L492.7,145.6L491.9,146.2L491.0,146.9L488.2,147.2L487.8,147.6L487.0,149.3L485.6,150.7L485.0,152.0L484.3,153.8L484.5,156.0L484.2,159.2L483.9,161.3L484.6,162.0L487.9,162.6L488.5,163.0L489.4,164.3L490.5,165.6L493.5,166.3L494.6,167.3L495.6,168.3L495.7,169.2L495.0,172.6L494.3,175.9L494.6,178.4L494.9,180.8L495.2,184.3L495.1,186.4L494.2,187.7L494.2,188.8L494.6,190.0L493.9,193.4L493.4,193.9L492.0,194.6L491.3,195.5L491.1,196.9L490.4,198.9L489.7,199.6L489.7,200.5L490.4,201.2L490.4,202.2L489.0,203.4L488.2,204.4L486.5,204.8L484.4,204.4L483.9,203.7L484.4,202.6L484.3,201.8L483.5,200.9L482.4,198.6L481.5,198.1L481.0,199.0L479.3,200.8L476.4,203.0L474.3,203.2L470.6,202.5L467.4,201.4L465.9,198.8L465.0,196.7L463.6,194.2L462.1,193.0L460.4,192.2L459.8,192.2L457.4,193.6L456.7,194.1L456.7,195.3L456.9,196.4L457.3,196.9L457.6,197.6L457.6,198.7L457.2,200.2L457.0,201.8L449.8,203.3L448.5,202.8L447.6,202.0L446.5,202.2L443.3,203.0L442.2,202.4L441.0,202.0L440.5,202.3L440.4,203.0L441.0,206.8L440.8,208.3L440.1,210.1L439.7,211.4L441.7,211.8L442.4,212.4L443.0,213.3L443.9,214.2L444.0,214.7L443.0,215.7L442.6,216.9L443.1,217.9L444.4,218.9L446.3,219.9L447.3,220.6L447.2,221.2L446.3,222.5L445.9,223.6L445.3,224.7L445.4,225.6L446.3,226.4L446.2,227.2L445.6,227.8L444.4,227.7L443.5,227.8L442.6,227.5L439.7,224.5L439.1,224.4L435.0,226.7L433.9,227.7L433.1,229.0L432.0,232.0L430.1,230.3L428.5,227.1L426.6,225.2L422.6,222.1L421.6,219.8L417.1,214.8L410.6,209.7L405.9,205.3L405.2,204.4L406.0,204.5L410.5,206.7L411.1,206.4L411.6,205.9L409.7,204.8L407.8,203.9L406.1,203.3L404.3,203.4L403.3,202.5L402.7,201.0L402.4,199.9L401.6,198.6L399.1,196.0L398.5,195.0L397.2,193.6L398.0,193.4L400.7,194.8L400.9,194.2L400.7,193.5L398.0,192.2L396.5,192.2L396.1,191.3L396.3,190.3L394.4,186.5L392.4,183.7L392.2,182.3L397.5,188.5L398.3,188.6L399.1,188.5L401.4,187.8L401.0,187.0L400.0,186.1L399.0,186.5L397.7,186.6L397.1,186.2L396.7,185.6L398.1,182.6L397.5,182.8L397.1,183.3L396.4,183.6L395.3,183.7L392.6,182.1L390.3,177.8L389.7,176.9L389.1,175.4L388.5,174.8L385.8,168.7L386.8,169.1L388.1,170.9L390.4,170.5L391.3,169.5L392.2,169.5L393.0,169.3L394.0,168.3L397.1,164.1L397.9,158.5L397.6,155.2L397.2,151.9L398.2,150.9L398.6,151.6L398.8,152.8L399.3,153.6L400.4,154.4L402.4,154.6L405.5,155.8L406.6,156.6L406.9,155.0L410.5,153.7L409.4,153.2L406.2,153.7L401.8,151.8L400.4,150.5L399.0,148.2L397.6,146.9L397.7,145.8L400.9,144.8L401.7,144.9L402.0,146.1L402.8,146.6L403.2,146.4L403.3,145.4L403.3,142.6L402.4,138.5L402.7,137.8L403.5,137.5L404.3,137.0L404.8,136.9L405.9,137.0L406.5,137.9L406.7,138.4L407.8,138.6L408.7,139.1L409.4,139.0L410.1,138.4L411.0,138.3L413.9,138.3L416.5,138.4L421.6,138.4L426.8,138.4L432.0,138.4L435.9,138.4L435.9,136.1L435.9,132.5L435.8,128.3L435.8,124.3L435.8,120.6L435.7,116.2L435.9,114.9L436.2,114.4L436.1,113.7L440.1,113.6L447.4,113.9L450.5,113.9L451.4,113.9L455.4,113.7L458.6,114L460.0,114.3L461.2,114.5L465.0,114.7L470.0,114.4L471.7,114.5L472.7,115.1Z" fill="#4ECDC4" stroke="#2C3E50" stroke-width="1"/></g><circle cx="400.0" cy="150.0" r="4" fill="#E74C3C" stroke="#fff" stroke-width="2"/><text x="400.0" y="140.0" text-anchor="middle" font-family="sans-serif" font-weight="700" font-size="10" fill="#2D3436">Libreville</text></svg>