<svg viewBox="0 0 800 300" xmlns="http://www.w3.org/2000/svg"><defs><clipPath id="v"><rect width="800" height="300"/></clipPath></defs><rect width="800" height="300" fill="#DCEEF8"/><g clip-path="url(#v)"><path d="M331,403L331,403L331,405L331,419L305,418L305,441L298,442L296,446L297,459L266,459L264,462L264,458L265,458L283,457L284,454L287,450L290,438L301,429L304,418L307,417L310,410L316,409L319,410L323,410L325,408L330,408L330,403Z" fill="#E0E0E0" stroke="#fff" stroke-width=".4"/><path d="M-585,182L-586,182L-602,169L-608,164L-622,159L-627,147L-625,139L-636,134L-637,123L-647,113L-647,106L-643,99L-643,90L-656,81L-665,64L-670,53L-677,46L-682,40L-687,32L-695,37L-702,46L-710,35L-715,28L-723,24L-731,23L-731,-78L-731,-157L-716,-152L-703,-141L-695,-139L-688,-148L-678,-156L-666,-153L-654,-163L-641,-169L-635,-159L-630,-165L-628,-176L-622,-173L-609,-152L-598,-168L-597,-150L-587,-154L-584,-161L-574,-160L-562,-150L-543,-142L-532,-138L-524,-139L-513,-128L-525,-117L-510,-113L-488,-115L-482,-119L-473,-106L-464,-117L-473,-126L-467,-134L-458,-135L-451,-137L-445,-132L-437,-120L-428,-121L-413,-112L-401,-115L-389,-115L-390,-128L-383,-132L-371,-125L-371,-104L-366,-121L-359,-121L-356,-143L-364,-157L-373,-166L-373,-193L-363,-212L-353,-207L-345,-196L-334,-169L-341,-157L-326,-153L-326,-130L-315,-147L-306,-133L-308,-117L-300,-102L-292,-118L-286,-136L-286,-161L-274,-160L-262,-156L-252,-145L-251,-134L-257,-122L-251,-111L-252,-101L-268,-86L-279,-83L-288,-89L-290,-79L-298,-63L-300,-55L-309,-42L-321,-41L-327,-33L-328,-22L-337,-19L-347,-5L-356,14L-359,27L-359,45L-347,47L-344,62L-340,73L-329,70L-314,77L-306,82L-300,89L-290,93L-281,99L-268,100L-259,101L-261,113L-258,127L-252,142L-241,154L-234,150L-230,136L-234,115L-240,108L-227,101L-218,91L-213,81L-214,71L-220,59L-229,47L-220,31L-223,16L-226,-10L-220,-14L-207,-10L-198,-8L-192,-13L-184,-7L-174,3L-172,10L-158,11L-158,25L-155,45L-148,47L-142,56L-130,48L-123,30L-117,23L-111,37L-101,57L-92,75L-95,84L-84,92L-77,100L-64,104L-59,108L-56,120L-50,122L-47,127L-46,142L-52,147L-58,151L-71,156L-81,166L-95,168L-112,166L-124,165L-132,166L-139,175L-149,181L-161,197L-170,208L-163,206L-150,190L-133,180L-121,179L-114,185L-122,193L-119,206L-117,214L-106,220L-93,219L-85,205L-84,214L-79,218L-89,226L-107,232L-115,237L-124,245L-130,244L-130,235L-116,225L-129,226L-138,227L-143,221L-143,205L-147,201L-152,203L-155,200L-161,209L-163,218L-166,223L-170,225L-172,226L-173,229L-188,229L-200,229L-204,231L-212,239L-213,240L-216,244L-223,244L-231,244L-235,246L-233,248L-233,251L-233,252L-243,258L-251,260L-261,265L-263,265L-266,264L-266,262L-266,261L-265,257L-261,251L-258,245L-260,235L-262,225L-270,219L-269,217L-270,216L-272,216L-274,214L-274,211L-276,212L-278,212L-278,211L-280,210L-280,207L-287,203L-293,199L-301,194L-309,190L-316,193L-318,194L-328,190L-335,192L-342,188L-351,186L-356,186L-359,183L-360,177L-363,177L-363,182L-380,182L-407,182L-434,182L-458,182L-483,182L-506,182L-531,182L-539,182L-562,182ZM-273,-13L-267,-21L-256,-21L-256,-17L-266,-8L-272,-8ZM-239,-235L-248,-249L-248,-260L-244,-262L-226,-259L-212,-243L-211,-236L-220,-236L-228,-237L-237,-233ZM-244,-6L-241,-11L-237,-11L-235,-8L-238,1L-242,-0L-244,-5ZM-351,-298L-355,-286L-367,-288L-376,-296L-372,-311L-360,-319L-353,-308ZM-352,-384L-356,-383L-371,-385L-373,-396L-357,-395L-351,-388ZM-376,-433L-366,-419L-368,-404L-380,-396L-387,-405L-390,-420L-391,-437L-380,-435ZM-307,-280L-320,-284L-341,-294L-344,-311L-345,-327L-353,-341L-369,-346L-379,-356L-376,-371L-359,-369L-350,-357L-334,-357L-327,-346L-329,-333L-320,-326L-315,-318L-304,-317L-292,-314L-280,-321L-263,-324L-250,-321L-242,-309L-240,-296L-245,-288L-257,-282L-267,-285L-290,-281ZM-492,-408L-481,-402L-484,-391L-499,-380L-510,-392L-504,-404ZM-490,-434L-479,-426L-489,-418L-503,-418L-502,-424L-494,-436ZM-45,152L-50,161L-55,172L-50,167L-44,170L-47,174L-40,178L-36,175L-28,178L-31,187L-25,185L-24,192L-22,199L-25,210L-29,210L-34,208L-32,198L-34,197L-44,207L-49,206L-43,201L-51,198L-59,199L-75,198L-76,195L-71,191L-75,187L-68,180L-59,160L-54,153L-48,148L-44,149ZM-272,-61L-264,-54L-254,-49L-254,-40L-248,-41L-242,-35L-249,-30L-262,-34L-266,-42L-274,-32L-286,-23L-288,-34L-299,-32L-292,-41L-291,-56L-288,-73L-283,-72L-281,-63L-277,-66ZM-231,-223L-224,-233L-206,-220L-195,-208L-194,-196L-179,-202L-171,-186L-151,-177L-144,-167L-137,-145L-151,-135L-132,-121L-120,-116L-108,-97L-96,-96L-98,-81L-112,-59L-122,-67L-135,-86L-145,-83L-146,-72L-138,-61L-127,-52L-123,-47L-118,-29L-121,-17L-131,-21L-151,-36L-140,-20L-131,-10L-130,-4L-152,-11L-169,-21L-179,-29L-176,-34L-188,-44L-200,-53L-200,-47L-223,-44L-230,-51L-224,-65L-209,-65L-193,-68L-195,-75L-193,-84L-182,-104L-184,-114L-188,-121L-200,-131L-216,-139L-211,-145L-219,-159L-227,-160L-233,-168L-237,-161L-252,-158L-281,-163L-298,-170L-311,-174L-318,-182L-309,-194L-321,-194L-323,-220L-317,-244L-309,-255L-288,-263L-294,-245L-288,-228L-280,-250L-260,-261L-246,-233L-247,-215ZM-358,-272L-341,-272L-326,-264L-338,-239L-347,-234L-356,-214L-365,-215L-370,-239L-370,-252L-366,-265ZM-585,-335L-572,-360L-555,-384L-543,-383L-532,-389L-533,-361L-539,-349L-547,-347L-562,-332L-574,-327ZM-664,116L-657,115L-659,131L-652,141L-655,141L-660,135L-663,129L-667,125L-669,119L-668,115ZM-446,-455L-430,-449L-408,-434L-402,-415L-399,-399L-412,-403L-425,-416L-443,-417L-436,-429L-445,-439ZM-591,188L-595,189L-608,184L-610,179L-617,175L-619,171L-627,169L-630,162L-629,159L-621,162L-616,164L-609,165L-606,170L-602,176L-594,181ZM-575,-282L-563,-276L-543,-274L-535,-266L-526,-253L-536,-246L-556,-227L-566,-209L-566,-198L-587,-186L-591,-197L-610,-210L-607,-221L-601,-241L-594,-259L-602,-277ZM-465,-326L-457,-331L-449,-330L-448,-314L-453,-299L-480,-294L-500,-281L-512,-280L-513,-290L-496,-304L-533,-300L-544,-306L-533,-337L-525,-347L-503,-335L-489,-316L-475,-314L-486,-345L-479,-358L-470,-354L-468,-337ZM-454,-242L-445,-231L-440,-206L-438,-188L-424,-176L-410,-165L-411,-155L-424,-153L-419,-144L-421,-136L-436,-139L-450,-145L-459,-144L-474,-136L-494,-133L-509,-131L-513,-141L-524,-148L-531,-145L-541,-163L-536,-166L-523,-170L-512,-169L-501,-173L-517,-179L-534,-177L-546,-177L-550,-186L-531,-196L-544,-196L-558,-202L-551,-222L-545,-232L-524,-249L-516,-244L-520,-231L-502,-239L-491,-225L-481,-239L-474,-230L-468,-205L-464,-215L-469,-243L-462,-247ZM-405,-232L-414,-250L-405,-264L-395,-258L-381,-262L-379,-253L-386,-240L-374,-228L-375,-205L-389,-195L-396,-197L-402,-207L-422,-227L-422,-236ZM-455,-257L-444,-258L-438,-252L-445,-234L-458,-253ZM-390,-355L-384,-339L-383,-322L-387,-299L-400,-295L-409,-300L-409,-319L-422,-316L-422,-342L-414,-341L-402,-353L-390,-351ZM-370,-515L-364,-531L-356,-534L-360,-546L-341,-549L-331,-521L-317,-511L-304,-502L-298,-471L-288,-457L-299,-444L-314,-413L-328,-411L-345,-416L-353,-432L-353,-447L-347,-459L-361,-458L-370,-473L-375,-494ZM-334,-584L-322,-595L-313,-596L-297,-606L-285,-629L-275,-626L-267,-608L-261,-642L-250,-653L-236,-660L-211,-663L-207,-656L-184,-667L-166,-663L-149,-658L-127,-653L-110,-645L-96,-627L-96,-611L-115,-585L-135,-574L-142,-562L-125,-562L-144,-530L-157,-516L-170,-477L-187,-470L-192,-461L-216,-456L-205,-451L-211,-443L-204,-423L-212,-409L-224,-398L-228,-384L-239,-373L-238,-364L-224,-366L-224,-357L-246,-337L-267,-346L-290,-341L-302,-345L-317,-347L-318,-363L-304,-371L-308,-398L-303,-401L-281,-385L-292,-409L-305,-417L-299,-432L-284,-442L-282,-457L-293,-475L-297,-498L-275,-496L-269,-491L-256,-509L-274,-514L-302,-511L-316,-528L-323,-549L-332,-565ZM-203,-108L-208,-101L-217,-100L-219,-111L-216,-123L-208,-126L-202,-120L-202,-111ZM-372,-152L-367,-144L-372,-136L-383,-143L-389,-140L-400,-150L-393,-157L-388,-168L-379,-161L-374,-157ZM-117,171L-114,170L-104,173L-95,178L-95,180L-99,180L-109,177ZM-113,205L-110,211L-104,212L-97,212L-101,217L-104,218L-114,213L-116,209Z" fill="#E0E0E0" stroke="#fff" stroke-width=".4"/><path d="M-585,182L-562,182L-539,182L-531,182L-506,182L-483,182L-458,182L-434,182L-407,182L-380,182L-363,182L-363,177L-360,177L-359,183L-356,186L-351,186L-342,188L-335,192L-328,190L-318,194L-316,193L-309,190L-301,194L-293,199L-287,203L-280,207L-280,210L-278,211L-278,212L-276,212L-274,211L-274,214L-272,216L-270,216L-269,217L-270,219L-262,225L-260,235L-258,245L-261,251L-265,257L-266,261L-266,262L-266,264L-263,265L-261,265L-251,260L-243,258L-233,252L-233,251L-233,248L-235,246L-231,244L-223,244L-216,244L-213,240L-212,239L-204,231L-200,229L-188,229L-173,229L-172,226L-170,225L-166,223L-163,218L-161,209L-155,200L-152,203L-147,201L-143,205L-143,221L-138,227L-137,231L-145,236L-153,240L-162,243L-166,250L-167,252L-168,258L-165,264L-162,264L-162,260L-160,263L-161,266L-166,268L-170,267L-176,269L-179,270L-184,270L-191,273L-179,271L-177,273L-188,277L-193,277L-193,275L-195,278L-193,279L-194,286L-200,294L-201,292L-203,291L-205,288L-204,294L-202,296L-202,300L-204,304L-209,312L-209,311L-207,304L-211,301L-212,292L-213,296L-212,303L-217,301L-212,305L-211,314L-209,315L-208,318L-207,328L-212,336L-220,339L-226,344L-230,345L-234,348L-235,352L-244,358L-248,362L-252,368L-253,375L-252,381L-249,389L-246,395L-246,399L-242,410L-242,416L-242,419L-244,425L-247,426L-251,425L-252,421L-255,419L-259,411L-263,404L-264,401L-263,395L-265,390L-271,382L-274,381L-282,385L-284,384L-288,380L-293,378L-302,379L-309,378L-315,378L-318,380L-317,382L-317,386L-315,388L-317,389L-320,388L-323,390L-329,389L-335,384L-342,386L-347,383L-352,384L-359,386L-366,393L-374,397L-379,401L-381,405L-381,412L-380,416L-379,419L-382,419L-388,417L-394,414L-396,410L-398,404L-403,399L-405,393L-409,387L-415,383L-422,384L-427,391L-433,388L-438,385L-440,380L-442,375L-447,371L-451,368L-454,365L-468,365L-468,369L-474,369L-490,369L-509,362L-521,358L-520,356L-530,357L-539,358L-541,353L-546,347L-550,346L-550,343L-555,343L-558,340L-565,339L-567,338L-568,332L-576,322L-583,308L-583,306L-586,303L-592,294L-593,286L-598,280L-596,271L-596,262L-599,254L-596,243L-595,233L-594,223L-595,207L-598,197L-600,191L-599,189L-587,193L-583,204L-581,201L-582,191ZM-847,469L-845,470L-844,471L-842,474L-842,475L-845,477L-848,478L-849,479L-851,478L-851,476L-852,473L-852,472L-850,470L-851,469L-850,468L-850,468ZM-851,464L-852,465L-855,465L-856,463L-857,463L-857,462L-856,461L-853,462ZM-857,460L-858,461L-862,461L-861,460ZM-868,455L-867,456L-865,459L-865,459L-866,459L-868,459L-869,457L-870,457ZM-878,451L-878,453L-879,454L-882,452L-882,452L-880,451ZM-935,22L-929,24L-928,30L-933,32L-939,29L-943,25ZM-829,60L-824,61L-820,66L-827,73L-835,78L-839,75L-841,68L-833,62ZM-731,-157L-731,-78L-731,23L-723,24L-715,28L-710,35L-702,46L-695,37L-687,32L-682,40L-677,46L-670,53L-665,64L-656,81L-643,90L-643,99L-647,106L-651,101L-658,96L-661,84L-671,72L-675,58L-683,57L-696,56L-705,52L-722,36L-730,33L-744,27L-755,28L-771,21L-780,14L-789,17L-787,29L-792,30L-801,33L-808,38L-817,42L-818,32L-815,16L-806,11L-808,7L-818,16L-824,27L-835,39L-830,46L-837,57L-846,64L-854,68L-856,75L-868,82L-871,89L-880,95L-886,94L-893,98L-901,103L-908,107L-922,111L-923,109L-914,103L-907,98L-898,90L-888,89L-884,83L-873,74L-871,71L-865,66L-864,54L-860,45L-869,50L-872,47L-876,53L-881,45L-883,51L-886,43L-894,49L-899,49L-900,40L-899,34L-904,28L-914,32L-921,24L-926,20L-926,11L-933,4L-930,-6L-923,-16L-920,-25L-914,-26L-908,-23L-902,-32L-896,-30L-890,-36L-891,-44L-896,-48L-890,-55L-895,-55L-903,-51L-906,-46L-912,-51L-923,-48L-935,-53L-938,-61L-949,-72L-937,-80L-919,-90L-913,-90L-914,-80L-897,-81L-904,-93L-913,-101L-919,-111L-927,-120L-938,-127L-933,-139L-919,-139L-909,-150L-907,-161L-899,-172L-891,-175L-876,-186L-868,-184L-856,-197L-844,-192L-838,-181L-835,-186L-821,-184L-821,-179L-809,-174L-801,-177L-784,-169L-769,-167L-762,-164L-752,-168L-740,-161ZM-978,-36L-973,-33L-968,-35L-961,-30L-953,-28L-954,-26L-960,-22L-966,-26L-969,-29L-976,-28L-978,-29Z" fill="#E0E0E0" stroke="#fff" stroke-width=".4"/><path d="M1102,179L1096,187L1090,188L1089,200L1085,206L1069,202L1063,223L1059,225L1043,230L1050,249L1045,252L1045,258L1040,256L1036,253L1025,251L1011,251L1008,252L997,248L992,250L991,256L978,253L973,254L971,259L966,261L956,268L952,276L949,276L947,271L937,271L935,262L931,262L932,251L922,243L908,244L899,245L891,235L885,231L872,223L871,222L850,229L850,269L846,270L841,261L835,258L826,261L823,264L822,262L824,257L823,253L813,250L810,240L805,237L805,233L813,234L813,226L820,224L827,226L828,214L827,207L819,208L812,205L803,210L795,213L791,211L792,205L787,197L781,197L774,189L779,180L776,177L783,163L791,171L792,162L809,148L821,147L839,156L848,161L857,156L870,156L880,162L882,159L894,159L896,153L882,144L890,138L889,134L896,131L891,122L894,117L924,112L928,109L948,104L956,98L970,101L973,115L981,112L991,116L991,124L998,123L1018,110L1015,115L1026,125L1044,158L1048,152L1059,159L1070,156L1075,158L1079,165L1084,168L1088,173L1098,171Z" fill="#E0E0E0" stroke="#fff" stroke-width=".4"/><path d="M850,269L850,229L871,222L872,223L885,231L891,235L899,245L908,244L922,243L932,251L931,262L935,262L937,271L947,271L949,276L952,276L956,268L966,261L971,259L973,260L966,267L972,271L978,268L988,274L977,282L971,281L968,281L967,278L968,273L958,275L955,282L951,288L945,288L942,292L948,295L950,302L946,312L940,310L935,310L935,304L925,300L916,295L911,290L902,283L898,272L895,270L886,270L883,268L883,259L872,254L865,260L858,264L859,269Z" fill="#E0E0E0" stroke="#fff" stroke-width=".4"/><path d="M598,568L592,564L589,562L589,559L590,556L590,553L586,548L585,544L585,542L582,540L582,535L580,532L577,532L578,529L580,526L579,522L582,520L580,518L582,513L586,507L593,507L592,474L593,470L602,470L602,453L634,453L665,453L697,453L700,461L698,463L699,472L702,482L705,484L709,487L705,492L699,493L697,496L696,501L693,514L694,517L692,524L689,532L684,536L681,543L680,546L676,548L674,557L674,564L674,558L673,558L673,554L672,551L668,548L667,542L668,536L664,535L663,537L659,537L660,540L661,545L657,549L653,555L649,556L642,551L639,553L638,555L634,557L634,558L626,558L625,557L619,556L616,558L614,557L609,552L608,550L602,551L600,555L598,562L595,564L593,565Z" fill="#E0E0E0" stroke="#fff" stroke-width=".4"/><path d="M592,474L593,507L586,507L582,513L580,518L582,520L579,522L580,526L578,529L577,532L580,532L582,535L582,540L585,542L585,544L580,545L575,549L570,558L562,561L554,561L552,562L553,565L549,567L545,571L535,574L533,572L532,572L530,574L524,574L525,572L522,567L521,563L518,562L513,557L515,553L518,554L521,553L525,554L521,546L521,541L521,535L517,530L518,526L513,526L513,521L510,518L513,507L523,499L524,488L527,471L529,467L525,464L525,461L522,459L520,445L528,441L560,457Z" fill="#E0E0E0" stroke="#fff" stroke-width=".4"/><path d="M-175,473L-174,477L-175,480L-177,482L-175,484L-175,487L-180,485L-184,486L-189,485L-192,487L-197,484L-196,482L-189,483L-183,483L-180,481L-183,478L-183,475L-188,473L-187,471L-182,471Z" fill="#E0E0E0" stroke="#fff" stroke-width=".4"/><path d="M-175,487L-175,484L-177,482L-175,480L-174,477L-175,473L-174,471L-167,471L-163,473L-161,473L-159,476L-155,476L-155,479L-151,479L-147,482L-150,485L-154,484L-158,484L-161,484L-162,485L-165,486L-166,484L-169,485L-172,491L-174,489Z" fill="#E0E0E0" stroke="#fff" stroke-width=".4"/><path d="M1154,-537L1171,-548L1187,-522L1205,-477L1203,-438L1186,-432L1164,-444L1150,-461L1144,-493L1133,-503ZM1227,-455L1247,-431L1245,-414L1199,-399L1214,-452L1221,-457ZM1516,-335L1537,-334L1566,-316L1560,-293L1530,-294L1517,-287L1501,-307L1505,-329ZM1591,-309L1611,-301L1602,-289L1589,-292L1574,-304L1576,-314ZM1524,-251L1532,-262L1542,-264L1553,-253L1554,-246L1542,-246L1525,-249ZM761,-515L777,-524L789,-524L791,-511L795,-523L803,-531L815,-520L812,-513L801,-506L794,-503L792,-495L783,-487L774,-498L779,-513ZM584,112L569,113L559,111L561,105L572,100L580,103L584,105L583,109ZM831,-261L850,-287L848,-301L866,-318L892,-339L919,-345L933,-358L948,-363L954,-349L948,-339L920,-322L895,-307L871,-278L859,-249L846,-223L848,-202L863,-181L858,-179L832,-182L830,-193L815,-200L814,-214L822,-220L822,-234L838,-258ZM1548,121L1551,134L1551,147L1554,160L1562,182L1551,178L1546,195L1553,207L1553,216L1547,209L1542,218L1540,208L1541,196L1540,183L1542,174L1543,157L1538,144L1539,126L1546,120L1543,114L1546,112ZM-1044,-140L-1044,-140L-1024,-124L-1003,-103L-1004,-90L-999,-85L-1001,-100L-979,-97L-963,-78L-971,-69L-984,-67L-984,-49L-988,-45L-995,-45L-1001,-52L-1012,-57L-1014,-66L-1022,-69L-1031,-66L-1035,-73L-1034,-80L-1043,-76L-1040,-67L-1044,-59L-1044,-59L-1044,-140ZM1846,-59L1846,-58L1836,-50L1825,-52L1833,-42L1837,-27L1841,-22L1842,-15L1840,-10L1825,-14L1803,-1L1795,1L1783,13L1771,23L1769,30L1757,19L1736,32L1733,26L1725,33L1714,30L1711,41L1702,56L1702,62L1711,65L1710,87L1703,87L1699,99L1703,105L1689,112L1686,128L1674,131L1671,144L1660,156L1657,148L1653,128L1649,98L1653,78L1660,69L1660,62L1672,59L1687,39L1701,23L1715,10L1722,-14L1712,-13L1707,1L1687,19L1680,-1L1659,5L1639,32L1646,42L1628,46L1615,47L1616,36L1604,34L1594,42L1569,39L1543,43L1517,73L1486,107L1499,109L1502,117L1510,120L1515,113L1524,114L1536,129L1536,141L1530,153L1529,169L1526,188L1513,206L1511,214L1500,227L1489,240L1484,247L1473,253L1468,253L1463,248L1452,256L1451,259L1451,259L1450,258L1450,252L1454,252L1455,239L1453,229L1460,225L1470,227L1475,216L1478,203L1481,199L1485,188L1472,191L1465,196L1453,196L1449,185L1440,176L1426,172L1423,160L1420,152L1417,146L1412,133L1405,128L1393,124L1382,125L1373,127L1366,134L1370,137L1370,144L1366,148L1359,162L1359,167L1347,175L1338,171L1328,172L1324,167L1319,166L1307,175L1297,177L1290,180L1279,178L1272,178L1267,172L1259,166L1251,164L1241,166L1233,168L1222,163L1220,153L1211,150L1204,148L1195,143L1186,156L1190,164L1182,173L1170,169L1162,169L1157,163L1149,163L1142,159L1129,165L1114,176L1106,178L1102,179L1098,171L1088,173L1084,168L1079,165L1075,158L1070,156L1059,159L1048,152L1044,158L1026,125L1015,115L1018,110L998,123L991,124L991,116L981,112L973,115L970,101L956,98L948,104L928,109L924,112L894,117L891,122L896,131L889,134L890,138L882,144L896,153L894,159L882,159L880,162L870,156L857,156L848,161L839,156L821,147L809,148L792,162L791,171L783,163L776,177L779,180L774,189L781,197L787,197L792,205L791,211L795,213L792,219L784,221L776,233L783,244L782,251L791,264L786,268L785,271L781,270L776,264L774,263L769,261L766,256L759,254L754,256L752,254L741,249L730,247L723,245L722,246L712,237L702,233L695,226L701,224L708,214L703,210L715,205L715,202L708,204L708,199L712,196L720,195L721,191L720,184L723,178L723,174L711,170L706,170L701,164L695,166L685,162L685,159L682,154L676,153L675,149L677,147L672,139L664,141L661,140L659,143L656,142L654,134L652,129L654,128L660,129L664,126L661,122L656,120L656,117L653,115L648,106L650,102L649,95L641,92L637,94L636,90L627,87L625,78L624,71L620,67L624,63L621,48L627,39L626,37L635,28L626,20L644,-1L651,-11L654,-20L642,-32L645,-44L638,-58L644,-74L634,-97L642,-113L629,-127L631,-143L637,-145L651,-154L659,-162L672,-148L694,-143L725,-118L731,-108L731,-94L722,-84L709,-78L673,-93L667,-91L681,-76L681,-67L682,-48L692,-42L698,-38L699,-46L694,-54L700,-62L719,-50L726,-54L720,-68L739,-88L746,-87L754,-80L759,-93L752,-106L756,-118L750,-132L772,-125L777,-113L767,-110L767,-99L773,-92L786,-96L788,-109L804,-119L832,-138L838,-137L830,-124L840,-121L846,-129L861,-129L873,-139L882,-125L891,-140L883,-153L887,-161L911,-154L922,-147L951,-121L956,-133L948,-145L948,-149L938,-152L941,-163L937,-181L937,-189L951,-212L957,-236L963,-241L984,-234L985,-219L978,-198L983,-190L985,-173L984,-142L992,-128L989,-114L973,-85L982,-82L986,-89L995,-94L997,-104L1004,-114L999,-126L1003,-141L994,-143L992,-156L998,-179L988,-199L1002,-217L1000,-236L1004,-236L1009,-221L1006,-197L1014,-192L1010,-210L1024,-221L1041,-222L1055,-207L1048,-229L1047,-258L1061,-264L1081,-263L1098,-267L1092,-282L1101,-302L1110,-303L1126,-319L1147,-323L1150,-332L1171,-335L1177,-328L1195,-346L1210,-345L1212,-360L1220,-375L1239,-391L1253,-379L1242,-370L1260,-364L1262,-347L1269,-355L1293,-355L1311,-338L1317,-326L1315,-309L1307,-300L1285,-283L1279,-274L1289,-270L1301,-262L1308,-268L1313,-250L1316,-257L1329,-261L1355,-257L1357,-244L1390,-240L1391,-261L1408,-256L1420,-256L1433,-241L1437,-224L1432,-213L1442,-193L1455,-183L1463,-209L1476,-198L1489,-205L1505,-197L1511,-204L1524,-200L1518,-225L1529,-236L1566,-229L1601,-219L1608,-203L1629,-184L1662,-189L1678,-185L1684,-175L1683,-158L1693,-151L1704,-156L1718,-156L1733,-152L1749,-155L1763,-134L1772,-142L1766,-156L1770,-166L1795,-160L1812,-161L1835,-150L1846,-140L1846,-59ZM1846,-184L1837,-183L1836,-191L1846,-201L1846,-184ZM-1044,-201L-1044,-201L-1044,-201L-1043,-202L-1036,-202L-1025,-195L-1025,-192L-1034,-186L-1044,-184L-1044,-184L-1044,-201ZM669,218L672,215L677,217L680,218L681,220L682,220L682,221L686,224L694,223L693,227L684,229L673,236L669,234L670,228L662,225L663,223L671,219Z" fill="#E0E0E0" stroke="#fff" stroke-width=".4"/><path d="M523,-472L526,-487L537,-489L548,-473L574,-441L554,-424L549,-396L542,-388L538,-358L529,-357L512,-379L519,-392L507,-403L491,-437L485,-471L507,-487L511,-471ZM651,-154L637,-145L631,-143L634,-159L624,-168L611,-160L607,-143L600,-133L591,-139L581,-138L572,-150L567,-144L562,-143L561,-128L546,-132L543,-120L536,-120L530,-105L522,-82L510,-55L513,-48L510,-41L502,-41L497,-25L497,-1L502,7L500,26L493,37L490,46L484,37L468,55L458,58L447,50L444,34L441,-4L449,-15L470,-30L486,-49L500,-76L520,-115L533,-132L555,-160L573,-170L586,-169L598,-189L613,-188L627,-193L652,-175L642,-169ZM621,-489L609,-465L586,-460L562,-467L561,-479L549,-480L540,-502L565,-515L577,-503L585,-518L605,-506ZM600,-397L582,-381L567,-390L573,-400L568,-412L585,-420L588,-405Z" fill="#E0E0E0" stroke="#fff" stroke-width=".4"/><path d="M26,-627L53,-666L81,-663L91,-689L119,-696L152,-692L183,-687L210,-660L234,-634L219,-610L188,-607L145,-601L149,-591L177,-597L202,-578L217,-595L224,-575L215,-543L235,-563L274,-585L299,-574L303,-550L270,-514L266,-503L240,-495L259,-493L249,-460L243,-432L243,-388L253,-365L240,-363L227,-352L242,-334L244,-306L235,-303L246,-277L228,-275L237,-263L234,-253L223,-249L212,-249L222,-230L222,-218L206,-229L202,-222L213,-216L223,-200L226,-180L212,-175L206,-185L196,-199L199,-182L189,-170L211,-169L222,-167L200,-147L178,-130L155,-122L146,-122L138,-114L126,-92L109,-78L104,-77L93,-72L81,-68L75,-56L74,-43L70,-31L57,-17L60,-3L57,11L53,27L41,28L30,14L14,14L6,5L0,-11L-13,-33L-18,-45L-19,-62L-30,-80L-27,-95L-32,-102L-24,-127L-12,-135L-9,-145L-7,-163L-17,-154L-21,-151L-28,-148L-38,-155L-39,-171L-35,-184L-28,-184L-12,-178L-25,-193L-33,-202L-41,-198L-47,-205L-38,-229L-43,-239L-50,-258L-59,-290L-69,-302L-69,-315L-91,-334L-108,-337L-129,-335L-149,-333L-158,-343L-172,-365L-151,-377L-135,-379L-169,-388L-187,-404L-186,-419L-156,-439L-127,-459L-123,-476L-145,-492L-138,-511L-110,-546L-99,-552L-102,-577L-83,-592L-58,-601L-34,-601L-25,-583L-4,-616L16,-593L27,-589L44,-571L25,-601Z" fill="#E0E0E0" stroke="#fff" stroke-width=".4"/><path d="M-14,601L-18,608L-21,614L-24,617L-28,618L-29,615L-31,615L-33,617L-37,616L-35,612L-34,608L-33,605L-36,600L-36,595L-32,588L-29,589L-24,591L-15,597ZM451,176L455,179L466,181L462,190L461,198L459,200L455,199L455,202L450,209L449,214L453,212L456,217L456,221L458,225L455,228L457,237L462,238L461,243L453,250L438,247L426,250L425,257L416,258L407,253L404,256L389,251L386,246L390,240L391,217L383,205L377,199L365,194L364,185L375,183L388,186L386,172L393,177L412,168L414,157L421,155L422,159L426,159L430,164L435,170L440,169L447,175L448,176ZM471,255L476,251L478,260L475,269L471,266L470,259Z" fill="#E0E0E0" stroke="#fff" stroke-width=".4"/><path d="M-131,483L-127,484L-126,485L-128,487L-134,487L-138,488L-139,484L-138,483Z" fill="#E0E0E0" stroke="#fff" stroke-width=".4"/><path d="M-259,443L-253,443L-246,443L-239,446L-235,449L-228,449L-225,451L-218,456L-213,460L-211,460L-206,461L-206,464L-201,464L-194,468L-195,470L-201,471L-206,471L-212,471L-223,471L-218,467L-221,464L-226,464L-229,461L-231,456L-236,457L-243,454L-245,453L-256,451L-259,450L-256,447L-264,447L-269,451L-273,452L-274,454L-278,455L-281,454L-277,451L-275,448L-272,446L-267,444L-261,444Z" fill="#E0E0E0" stroke="#fff" stroke-width=".4"/><path d="M267,524L264,517L260,515L263,513L267,507L269,503L272,500L276,501L280,499L284,499L288,501L293,504L298,510L303,515L304,521L305,525L308,528L309,531L309,533L307,534L303,533L302,534L301,534L295,532L291,532L276,532L274,533L271,533L267,534L266,528L273,528L275,527L277,527L279,525L283,526L286,526L290,525L288,522L286,524L283,524L280,522L277,522L276,524Z" fill="#E0E0E0" stroke="#fff" stroke-width=".4"/><path d="M309,533L309,531L308,528L305,525L304,521L303,515L306,514L307,509L310,509L316,511L320,510L323,510L324,508L357,508L358,502L357,501L353,465L349,427L362,427L389,446L416,465L418,469L423,471L426,473L426,478L435,477L435,497L431,502L430,508L423,509L412,510L409,513L404,513L399,513L397,511L392,512L385,516L383,519L377,522L376,524L373,526L369,525L367,527L366,533L359,539L359,542L357,546L358,550L354,552L352,553L351,549L349,550L348,550L346,552L340,552L338,551L337,552L334,549L335,547L334,546L332,547L332,544L334,542L331,539L330,536L328,534L326,534L324,535L322,537L319,538L316,538L314,536L312,535L310,536L309,536Z" fill="#E0E0E0" stroke="#fff" stroke-width=".4"/><path d="M264,462L266,459L297,459L296,446L298,442L305,441L305,418L331,419L331,405L362,427L349,427L353,465L357,501L358,502L357,508L324,508L323,510L320,510L316,511L310,509L307,509L306,514L303,515L298,510L293,504L288,501L284,499L280,499L276,501L272,500L269,503L268,498L270,494L271,486L271,478L270,474L270,469L268,465Z" fill="#E0E0E0" stroke="#fff" stroke-width=".4"/><path d="M520,445L522,459L525,461L525,464L529,467L527,471L524,488L523,499L513,507L510,518L513,521L513,526L518,526L517,530L515,530L515,533L513,533L508,524L506,524L500,528L494,526L489,526L487,527L482,527L478,530L473,530L464,526L460,528L456,528L453,525L445,522L436,523L434,524L433,529L431,532L430,540L424,535L421,535L418,538L419,532L409,530L409,526L404,521L403,517L404,513L409,513L412,510L423,509L430,508L431,502L435,497L435,477L447,474L470,457L497,440L510,444L515,449Z" fill="#E0E0E0" stroke="#fff" stroke-width=".4"/><path d="M688,356L686,359L684,358L682,364L684,365L682,366L681,369L685,367L685,371L681,386L681,384L676,370L678,367L678,366L680,362L682,355L683,352L683,352L686,352L686,351L689,350L689,354L688,356Z" fill="#E0E0E0" stroke="#fff" stroke-width=".4"/><path d="M689,350L686,351L686,352L683,352L686,344L690,338L690,337L694,338L695,342L691,345Z" fill="#E0E0E0" stroke="#fff" stroke-width=".4"/><path d="M685,367L681,369L682,366L684,365L682,364L684,358L686,359L686,365Z" fill="#E0E0E0" stroke="#fff" stroke-width=".4"/><path d="M477,379L474,362L469,358L469,356L462,350L461,343L466,337L468,329L467,320L469,314L477,310L483,312L483,317L490,313L490,315L486,320L486,324L489,327L488,335L483,340L484,346L488,346L490,350L493,352L493,359L489,362L486,365L481,369L482,372L481,376Z" fill="#E0E0E0" stroke="#fff" stroke-width=".4"/><path d="M331,405L331,403L331,403L331,392L344,385L352,384L359,381L362,377L371,373L372,366L376,365L380,362L391,360L392,356L390,354L387,344L387,338L384,332L391,327L400,325L405,321L413,318L426,316L440,315L444,317L451,313L460,313L463,315L469,314L467,320L468,329L466,337L461,343L462,350L469,356L469,358L474,362L477,379L480,387L480,391L479,398L479,403L478,408L479,413L476,417L481,423L481,427L484,432L488,431L494,435L497,440L470,457L447,474L435,477L426,478L426,473L423,471L418,469L416,465L389,446L362,427Z" fill="#E0E0E0" stroke="#fff" stroke-width=".4"/><path d="M686,359L688,356L697,360L712,350L716,361L714,363L698,367L706,377L703,378L702,381L696,383L694,386L691,389L682,387L681,386L685,371L685,367L686,365Z" fill="#E0E0E0" stroke="#fff" stroke-width=".4"/><path d="M815,433L817,433L817,435L823,434L830,434L835,434L840,428L846,423L851,417L853,420L854,427L850,427L849,433L850,434L847,436L847,440L844,443L844,447L843,449L819,444L815,435Z" fill="#E0E0E0" stroke="#fff" stroke-width=".4"/><path d="M809,429L808,422L811,418L813,417L815,420L815,425L814,430L811,431Z" fill="#E0E0E0" stroke="#fff" stroke-width=".4"/><path d="M786,382L788,386L787,388L790,395L784,395L782,391L775,390L781,381Z" fill="#E0E0E0" stroke="#fff" stroke-width=".4"/><path d="M716,361L712,350L730,339L733,328L733,320L737,318L741,312L744,310L754,311L757,314L760,312L766,324L771,327L772,333L768,336L766,344L771,353L781,358L785,365L784,372L786,372L787,377L791,382L786,382L781,381L775,390L760,389L737,370L725,364Z" fill="#E0E0E0" stroke="#fff" stroke-width=".4"/><path d="M844,447L844,443L847,440L847,436L850,434L849,433L850,427L854,427L857,433L862,437L868,438L873,439L876,444L878,447L881,448L881,450L878,455L877,458L874,461L871,466L867,466L865,468L864,472L865,478L864,479L861,479L856,482L855,486L853,488L848,488L845,490L845,494L841,496L837,495L831,498L827,498L825,493L819,479L843,470L848,453ZM853,420L851,417L854,414L855,415L854,419Z" fill="#E0E0E0" stroke="#fff" stroke-width=".4"/><path d="M1182,397L1183,401L1180,402L1181,408L1175,406L1165,413L1165,418L1161,425L1160,430L1157,437L1150,435L1150,444L1148,447L1149,451L1145,453L1141,439L1139,439L1137,444L1133,440L1135,435L1139,434L1143,427L1138,425L1131,425L1123,424L1122,418L1118,418L1112,414L1109,420L1115,425L1110,428L1108,431L1113,433L1112,439L1115,445L1116,452L1115,456L1109,456L1099,457L1100,464L1096,469L1084,475L1075,485L1069,490L1061,495L1061,499L1057,501L1050,504L1046,505L1044,511L1045,522L1046,529L1042,537L1042,550L1038,551L1034,557L1037,560L1029,562L1027,568L1024,570L1016,562L1012,551L1009,543L1006,539L1002,531L1000,521L999,515L991,504L988,488L986,477L986,467L984,459L972,464L967,463L956,452L960,449L958,446L948,438L954,432L971,432L970,425L965,420L964,413L959,409L968,400L977,401L986,391L991,382L999,372L998,366L1005,360L999,355L996,349L993,340L997,336L1009,339L1018,337L1026,329L1035,340L1034,348L1037,353L1037,358L1031,357L1033,367L1041,373L1052,380L1047,384L1044,393L1052,396L1059,400L1070,406L1081,407L1085,411L1092,412L1101,414L1108,414L1109,411L1108,405L1109,401L1113,399L1114,406L1114,408L1122,411L1127,410L1133,411L1140,410L1141,405L1137,402L1144,401L1151,394L1160,388L1167,390L1173,386L1176,392L1174,396Z" fill="#E0E0E0" stroke="#fff" stroke-width=".4"/><path d="M1026,329L1018,337L1009,339L997,336L993,340L996,349L999,355L1005,360L998,366L999,372L991,382L986,391L977,401L968,400L959,409L964,413L965,420L970,425L971,432L954,432L948,438L943,436L940,430L934,423L919,425L906,425L895,426L898,416L909,411L909,407L905,405L905,397L897,393L894,388L890,383L903,388L911,386L916,387L918,385L923,386L934,382L934,375L938,369L944,369L945,367L951,365L954,366L958,364L957,358L961,352L966,350L962,343L970,344L972,340L972,336L976,332L975,327L973,323L978,319L986,317L996,316L1000,314L1004,313L1010,317L1013,325Z" fill="#E0E0E0" stroke="#fff" stroke-width=".4"/><path d="M935,310L940,310L946,312L948,314L954,310L957,312L959,308L964,308L965,307L966,302L970,299L974,301L973,304L975,305L975,313L978,317L981,314L984,313L989,309L995,310L1003,310L1004,313L1000,314L996,316L986,317L978,319L973,323L975,327L976,332L972,336L972,340L970,344L962,343L966,350L961,352L957,358L958,364L954,366L951,365L945,367L944,369L938,369L934,375L934,382L923,386L918,385L916,387L911,386L903,388L890,383L897,375L896,369L890,367L890,361L887,353L891,348L887,347L889,340L892,327L901,331L907,330L908,325L915,324L919,321L921,313L928,311L929,307L933,310Z" fill="#E0E0E0" stroke="#fff" stroke-width=".4"/><path d="M946,312L950,302L948,295L942,292L945,288L951,288L955,282L958,275L968,273L967,278L968,281L971,281L968,284L959,282L959,288L967,287L977,291L993,289L995,299L997,298L1002,300L1002,304L1003,310L995,310L989,309L984,313L981,314L978,317L975,313L975,305L973,304L974,301L970,299L966,302L965,307L964,308L959,308L957,312L954,310L948,314Z" fill="#E0E0E0" stroke="#fff" stroke-width=".4"/><path d="M971,259L973,254L978,253L991,256L992,250L997,248L1008,252L1011,251L1025,251L1036,253L1040,256L1045,258L1044,261L1032,266L1029,271L1018,272L1015,279L1007,277L1001,279L994,284L995,287L993,289L977,291L967,287L959,288L959,282L968,284L971,281L977,282L988,274L978,268L972,271L966,267L973,260Z" fill="#E0E0E0" stroke="#fff" stroke-width=".4"/><path d="M823,264L826,261L835,258L841,261L846,270L850,269L859,269L858,264L865,260L872,254L883,259L883,268L886,270L895,270L898,272L902,283L911,290L916,295L925,300L935,304L935,310L933,310L929,307L928,311L921,313L919,321L915,324L908,325L907,330L901,331L892,327L892,319L886,319L877,310L870,309L861,304L856,303L852,304L847,304L841,310L834,312L832,305L834,294L827,291L829,283L824,283L826,274L833,277L840,273L835,267L832,261L826,263L825,271Z" fill="#E0E0E0" stroke="#fff" stroke-width=".4"/><path d="M791,382L787,377L786,372L784,372L785,365L781,358L771,353L766,344L768,336L772,333L771,327L766,324L760,312L756,304L758,301L755,289L761,286L762,290L766,295L772,296L774,296L784,288L787,288L789,291L787,296L792,301L794,301L796,308L804,310L809,315L821,317L833,314L834,312L841,310L847,304L852,304L856,303L861,304L870,309L877,310L886,319L892,319L892,327L889,340L887,347L891,348L887,353L890,361L890,367L896,369L897,375L890,383L894,388L897,393L905,397L905,405L909,407L909,411L898,416L895,426L880,423L871,421L862,420L858,409L855,408L848,409L840,413L831,410L822,404L815,401L809,392L803,380L799,382L794,378Z" fill="#E0E0E0" stroke="#fff" stroke-width=".4"/><path d="M688,356L688,356L689,354L689,350L691,345L695,342L694,338L690,337L689,330L691,326L693,324L696,321L696,316L699,318L707,315L712,317L718,317L728,313L732,313L741,312L737,318L733,320L733,328L730,339L712,350L697,360Z" fill="#E0E0E0" stroke="#fff" stroke-width=".4"/><path d="M774,296L772,296L768,290L768,289L765,289L762,286L761,286L758,283L752,280L752,275L751,272L762,270L764,273L767,275L765,277L769,281L767,284L771,287L774,289Z" fill="#E0E0E0" stroke="#fff" stroke-width=".4"/><path d="M490,46L493,37L500,26L502,7L497,-1L497,-25L502,-41L510,-41L513,-48L510,-55L522,-82L530,-105L536,-120L543,-120L546,-132L561,-128L562,-143L567,-144L578,-133L590,-118L590,-86L593,-78L579,-73L571,-59L573,-48L560,-33L544,-18L538,6L544,18L552,27L545,45L536,48L533,74L529,87L519,86L514,97L505,98L502,85L496,68Z" fill="#E0E0E0" stroke="#fff" stroke-width=".4"/><path d="M627,87L636,90L637,94L641,92L649,95L650,102L648,106L653,115L656,117L656,120L661,122L664,126L660,129L654,128L652,129L654,134L656,142L649,143L647,146L646,152L643,151L636,152L634,149L631,151L628,149L621,149L613,146L604,145L598,145L594,149L590,149L590,143L587,137L592,135L592,129L590,124L590,118L597,118L606,113L608,105L615,101L614,94L619,92Z" fill="#E0E0E0" stroke="#fff" stroke-width=".4"/><path d="M656,142L659,143L661,140L664,141L672,139L677,147L675,149L676,153L682,154L685,159L685,162L695,166L701,164L706,170L711,170L723,174L723,178L720,184L721,191L720,195L712,196L708,199L708,204L702,205L696,209L689,210L682,214L682,220L681,220L680,218L677,217L672,215L669,218L668,216L656,213L655,209L648,210L645,217L639,225L635,223L631,225L628,223L630,222L631,218L633,214L633,212L634,211L635,213L640,213L642,212L641,211L641,209L638,206L637,201L634,199L635,195L631,192L628,192L622,188L617,189L615,191L611,191L609,194L603,195L601,197L597,194L592,194L587,192L583,195L583,192L578,189L580,184L582,180L584,181L582,176L589,165L593,164L594,160L590,149L594,149L598,145L604,145L613,146L621,149L628,149L631,151L634,149L636,152L643,151L646,152L647,146L649,143Z" fill="#E0E0E0" stroke="#fff" stroke-width=".4"/><path d="M590,118L590,124L592,129L592,135L587,137L590,143L590,149L594,160L593,164L589,165L582,176L584,181L582,180L575,176L569,177L565,176L560,179L556,174L553,176L552,175L549,169L543,169L542,165L536,163L535,166L531,164L531,160L525,159L522,155L518,147L519,142L517,135L514,131L516,127L514,120L520,116L532,110L543,105L551,108L551,111L559,111L569,113L584,112L588,114Z" fill="#E0E0E0" stroke="#fff" stroke-width=".4"/><path d="M537,192L537,197L532,197L534,200L531,207L530,209L523,210L519,212L512,211L500,208L499,204L491,206L490,208L485,207L481,206L477,204L478,201L478,199L480,199L485,202L486,199L493,199L499,197L502,198L505,200L506,198L504,190L507,189L510,183L516,187L521,182L524,181L530,185L534,184L537,186L537,188Z" fill="#E0E0E0" stroke="#fff" stroke-width=".4"/><path d="M578,189L583,192L583,195L578,198L575,206L570,214L563,216L558,215L552,218L549,220L543,218L537,213L534,211L532,207L531,207L534,200L532,197L537,197L537,192L541,195L544,197L551,195L552,193L555,192L559,190L560,191L564,190L565,187L568,186L577,190Z" fill="#E0E0E0" stroke="#fff" stroke-width=".4"/><path d="M615,191L617,189L622,188L628,192L631,192L635,195L634,199L637,201L638,206L641,209L641,211L642,212L640,213L635,213L634,211L633,212L633,214L631,218L630,222L628,223L626,218L627,213L627,208L622,201L620,196L617,192Z" fill="#E0E0E0" stroke="#fff" stroke-width=".4"/><path d="M628,223L631,225L635,223L639,225L639,228L635,231L633,230L630,243L626,242L620,238L610,241L606,243L595,243L588,241L585,242L583,237L581,235L583,233L581,232L579,235L574,231L574,227L569,224L568,220L563,216L570,214L575,206L578,198L583,195L587,192L592,194L597,194L601,197L603,195L609,194L611,191L615,191L617,192L620,196L622,201L627,208L627,213L626,218Z" fill="#E0E0E0" stroke="#fff" stroke-width=".4"/><path d="M614,94L615,101L608,105L606,113L597,118L590,118L588,114L584,112L583,109L584,105L580,103L572,100L570,89L579,84L593,85L601,84L602,87L606,88Z" fill="#E0E0E0" stroke="#fff" stroke-width=".4"/><path d="M620,67L624,71L625,78L627,87L619,92L614,94L606,88L602,87L601,84L593,85L579,84L570,89L570,78L574,68L582,63L588,74L595,74L596,63L603,60L607,62L613,67Z" fill="#E0E0E0" stroke="#fff" stroke-width=".4"/><path d="M626,37L627,39L621,48L624,63L620,67L613,67L607,62L603,60L596,63L597,54L594,56L589,50L588,41L599,37L609,34L617,37Z" fill="#E0E0E0" stroke="#fff" stroke-width=".4"/><path d="M514,120L516,127L514,131L517,135L519,142L518,147L522,155L518,157L516,155L514,157L508,160L505,163L499,166L501,170L502,175L506,178L510,183L507,189L504,190L506,198L505,200L502,198L499,197L493,199L486,199L485,202L480,199L478,199L469,196L468,198L461,198L462,190L466,181L455,179L451,176L451,170L450,168L450,159L449,146L454,146L456,141L458,129L456,124L458,121L465,120L466,123L472,117L470,112L470,104L476,105L481,103L481,109L489,112L489,117L497,114L502,110L511,116Z" fill="#E0E0E0" stroke="#fff" stroke-width=".4"/><path d="M583,237L585,242L588,241L595,243L606,243L610,241L620,238L626,242L630,243L626,248L623,256L626,262L619,260L611,264L611,269L603,270L598,266L591,269L585,269L585,262L581,258L582,257L581,256L583,252L586,249L582,244L581,240Z" fill="#E0E0E0" stroke="#fff" stroke-width=".4"/><path d="M612,331L611,334L600,335L600,333L590,331L591,327L596,330L602,330L608,330L608,332ZM585,269L591,269L598,266L603,270L611,269L611,264L615,267L612,273L610,274L605,274L601,273L591,276L597,282L593,284L588,284L584,278L583,280L585,287L589,292L585,294L590,299L594,302L594,307L587,305L589,310L584,311L587,320L582,320L575,315L572,307L571,301L567,296L563,290L563,287L567,282L567,279L570,277L570,274L575,273L578,271L582,271L584,269Z" fill="#E0E0E0" stroke="#fff" stroke-width=".4"/><path d="M760,312L757,314L754,311L744,310L741,312L732,313L728,313L718,317L712,317L707,315L699,318L696,316L696,321L693,324L691,326L688,321L691,317L686,318L680,316L674,322L662,323L656,317L647,317L645,321L639,322L632,317L623,317L618,307L612,302L616,294L611,289L620,279L632,278L636,270L651,272L661,265L670,262L683,261L697,269L709,273L718,271L725,272L735,267L743,266L751,272L752,275L752,280L758,283L761,286L755,289L758,301L756,304ZM611,264L619,260L626,262L627,266L634,269L632,272L623,273L619,276L613,282L610,277L610,274L612,273L615,267Z" fill="#E0E0E0" stroke="#fff" stroke-width=".4"/><path d="M570,274L570,277L567,279L567,282L563,287L561,286L561,284L557,281L556,275L557,268L558,265L557,263L556,260L560,254L560,256L562,255L564,258L566,260L566,263L565,267L566,272Z" fill="#E0E0E0" stroke="#fff" stroke-width=".4"/><path d="M534,211L537,213L543,218L549,220L552,218L554,223L557,226L554,230L550,228L544,228L538,226L534,226L532,229L529,226L527,231L531,236L533,239L537,244L540,246L543,251L550,255L549,257L542,253L537,249L530,245L523,237L525,236L521,232L521,228L516,226L513,231L511,227L511,223L511,223L517,223L518,221L521,223L524,223L524,220L527,219L528,214Z" fill="#E0E0E0" stroke="#fff" stroke-width=".4"/><path d="M478,199L478,201L477,204L481,206L485,207L484,212L481,214L475,212L473,217L469,217L468,215L463,219L459,220L456,217L453,212L449,214L450,209L455,202L455,199L459,200L461,198L468,198L469,196Z" fill="#E0E0E0" stroke="#fff" stroke-width=".4"/><path d="M450,168L451,170L451,176L448,176L447,175L447,168Z" fill="#E0E0E0" stroke="#fff" stroke-width=".4"/><path d="M450,159L450,168L447,168L447,175L440,169L435,170L430,164L426,159L422,159L421,155L428,152L434,153L441,150L446,156Z" fill="#E0E0E0" stroke="#fff" stroke-width=".4"/><path d="M456,124L458,129L456,141L454,146L449,146L450,159L446,156L441,150L434,153L428,152L432,149L439,129L450,124Z" fill="#E0E0E0" stroke="#fff" stroke-width=".4"/><path d="M329,263L331,260L335,259L337,264L341,264L343,263L348,263L350,269L346,271L346,280L345,281L344,286L341,287L344,293L342,300L345,303L344,306L341,310L341,313L338,316L334,314L330,315L331,307L330,301L326,300L325,296L325,289L328,286L329,281L331,275L330,271L329,267Z" fill="#E0E0E0" stroke="#fff" stroke-width=".4"/><path d="M341,313L341,310L344,306L345,303L342,300L344,293L341,287L344,286L345,281L346,280L346,271L350,269L348,263L343,263L341,264L337,264L335,259L331,260L329,263L329,255L326,251L337,243L347,245L358,245L366,247L373,246L386,246L389,251L404,256L407,253L416,258L425,257L425,263L418,270L408,272L407,276L402,282L399,290L402,296L397,301L396,307L389,309L384,317L374,317L366,317L361,321L358,324L354,324L351,320L349,315Z" fill="#E0E0E0" stroke="#fff" stroke-width=".4"/><path d="M351,119L353,128L347,140L332,148L321,146L327,132L323,119L334,108L340,101L342,109L340,116L345,116Z" fill="#E0E0E0" stroke="#fff" stroke-width=".4"/><path d="M1280,485L1273,483L1273,476L1277,472L1286,469L1290,469L1292,473L1289,476L1287,481ZM1045,258L1045,252L1050,249L1043,230L1059,225L1063,223L1069,202L1085,206L1089,200L1090,188L1096,187L1102,179L1106,178L1108,186L1114,193L1126,197L1131,207L1128,220L1131,225L1141,227L1152,229L1161,236L1166,237L1170,247L1175,254L1183,254L1200,256L1211,255L1219,256L1230,263L1240,263L1244,266L1253,260L1266,257L1278,256L1287,252L1293,246L1299,243L1298,239L1295,235L1299,227L1304,229L1312,231L1320,225L1332,220L1338,213L1344,209L1355,208L1362,209L1363,205L1355,197L1349,193L1343,197L1335,195L1330,197L1328,192L1334,180L1338,171L1347,175L1359,167L1359,162L1366,148L1370,144L1370,137L1366,134L1373,127L1382,125L1393,124L1405,128L1412,133L1417,146L1420,152L1423,160L1426,172L1440,176L1449,185L1453,196L1465,196L1472,191L1485,188L1481,199L1478,203L1475,216L1470,227L1460,225L1453,229L1455,239L1454,252L1450,252L1450,258L1445,251L1442,257L1429,262L1430,268L1423,267L1420,264L1414,271L1405,277L1399,284L1387,287L1382,292L1373,295L1377,290L1376,286L1382,279L1378,273L1371,277L1362,284L1357,291L1349,291L1345,296L1349,303L1355,305L1356,309L1362,312L1371,305L1378,309L1383,309L1385,315L1373,317L1370,323L1362,328L1358,335L1366,340L1369,350L1374,358L1380,366L1380,373L1375,375L1377,380L1381,383L1380,390L1378,398L1373,399L1368,408L1361,420L1354,431L1343,439L1331,446L1322,447L1318,451L1315,448L1310,453L1299,457L1290,458L1288,467L1283,468L1281,462L1283,458L1272,455L1269,457L1260,455L1257,451L1258,446L1251,444L1247,441L1240,446L1232,447L1226,447L1221,449L1217,450L1218,460L1214,460L1213,458L1213,454L1207,457L1204,455L1198,452L1200,445L1195,443L1193,435L1185,436L1186,426L1193,419L1194,411L1193,404L1190,402L1187,397L1182,397L1174,396L1176,392L1173,386L1167,390L1160,388L1151,394L1144,401L1137,402L1134,399L1129,399L1124,397L1119,399L1114,406L1113,399L1109,401L1099,400L1090,398L1084,394L1077,392L1075,388L1070,386L1062,380L1056,377L1052,380L1041,373L1033,367L1031,357L1037,358L1037,353L1034,348L1035,340L1026,329L1013,325L1010,317L1004,313L1003,310L1002,304L1002,300L997,298L995,299L993,289L995,287L994,284L1001,279L1007,277L1015,279L1018,272L1029,271L1032,266L1044,261Z" fill="#E0E0E0" stroke="#fff" stroke-width=".4"/><path d="M485,207L490,208L491,206L499,204L500,208L512,211L511,217L513,222L507,220L500,224L500,230L499,233L502,239L510,244L514,254L523,262L529,262L531,265L529,267L536,271L542,274L549,279L549,281L548,285L543,280L536,278L533,285L539,289L538,295L535,295L530,304L527,305L527,302L529,296L530,294L527,288L525,283L521,281L519,277L514,275L510,271L505,270L498,265L491,258L485,252L483,241L479,240L472,236L469,237L464,243L461,243L462,238L457,237L455,228L458,225L456,221L456,217L459,220L463,219L468,215L469,217L473,217L475,212L481,214L484,212ZM520,302L526,301L523,309L524,313L522,318L516,314L512,313L501,308L502,303L511,303ZM471,274L475,270L480,278L479,292L475,291L472,295L469,292L468,279L467,273Z" fill="#E0E0E0" stroke="#fff" stroke-width=".4"/><path d="M481,103L476,105L470,104L466,96L466,81L467,77L470,73L477,72L480,68L486,64L486,71L483,76L484,80L489,82L487,88L484,86L479,97ZM500,87L503,95L498,106L490,98L489,92Z" fill="#E0E0E0" stroke="#fff" stroke-width=".4"/><path d="M285,-87L283,-74L292,-61L281,-47L258,-34L251,-31L241,-34L218,-40L226,-48L209,-57L223,-60L223,-66L206,-71L211,-83L223,-86L236,-73L248,-84L258,-78L271,-89Z" fill="#E0E0E0" stroke="#fff" stroke-width=".4"/><path d="M774,263L776,264L781,270L785,271L786,268L791,264L795,270L799,277L803,278L806,280L799,281L798,289L796,293L793,295L794,301L792,301L787,296L789,291L787,288L784,288L774,296L774,289L771,287L767,284L769,281L765,277L767,275L764,273L762,270L764,268L770,271L774,272L775,271L772,265ZM772,296L766,295L762,290L761,286L762,286L765,289L768,289L768,290Z" fill="#E0E0E0" stroke="#fff" stroke-width=".4"/><path d="M722,246L723,245L730,247L741,249L752,254L754,256L759,254L766,256L769,261L774,263L772,265L775,271L774,272L770,271L764,268L762,270L751,272L743,266L735,267L736,262L734,255L729,251L725,250Z" fill="#E0E0E0" stroke="#fff" stroke-width=".4"/><path d="M512,211L519,212L523,210L530,209L531,207L532,207L534,211L528,214L527,219L524,220L524,223L521,223L518,221L517,223L511,223L513,222L511,217Z" fill="#E0E0E0" stroke="#fff" stroke-width=".4"/><path d="M631,-143L629,-127L642,-113L634,-97L644,-74L638,-58L645,-44L642,-32L654,-20L651,-11L644,-1L626,20L612,21L598,27L585,31L580,22L572,17L574,0L570,-15L574,-26L581,-37L600,-57L605,-61L604,-69L593,-78L590,-86L590,-118L578,-133L567,-144L572,-150L581,-138L591,-139L600,-133L607,-143L611,-160L624,-168L634,-159Z" fill="#E0E0E0" stroke="#fff" stroke-width=".4"/><path d="M582,180L580,184L578,189L577,190L568,186L565,187L564,190L560,191L559,190L555,192L552,193L551,195L544,197L541,195L537,192L537,188L537,186L538,184L542,184L545,183L545,182L546,181L547,178L549,178L550,175L552,175L553,176L556,174L560,179L565,176L569,177L575,176Z" fill="#E0E0E0" stroke="#fff" stroke-width=".4"/><path d="M522,155L525,159L531,160L531,164L535,166L536,163L542,165L543,169L549,169L552,175L550,175L549,178L547,178L546,181L545,182L545,183L542,184L538,184L537,186L534,184L530,185L524,181L521,182L516,187L510,183L506,178L502,175L501,170L499,166L505,163L508,160L514,157L516,155L518,157Z" fill="#E0E0E0" stroke="#fff" stroke-width=".4"/><path d="M694,517L693,514L696,501L697,496L699,493L705,492L709,487L714,497L716,505L721,509L732,516L736,521L740,526L743,529L747,531L745,533L741,533L738,530L735,525L731,522L729,520L722,516L717,516L715,514L710,516L705,513L703,519Z" fill="#E0E0E0" stroke="#fff" stroke-width=".4"/><path d="M819,479L825,493L827,498L822,501L820,504L820,507L812,511L799,515L792,521L788,521L786,520L781,524L776,526L769,526L767,526L766,529L763,529L762,531L758,531L756,532L750,532L748,527L748,522L747,520L745,514L743,510L745,510L744,506L745,505L745,501L748,498L747,495L749,491L753,493L755,492L764,492L766,493L773,494L776,493L778,496L782,495L788,486L795,482Z" fill="#E0E0E0" stroke="#fff" stroke-width=".4"/><path d="M682,387L691,389L694,386L696,383L702,381L703,378L706,377L698,367L714,363L716,361L725,364L737,370L760,389L775,390L782,391L784,395L790,395L793,403L797,405L798,408L804,412L804,415L803,418L804,421L807,424L808,427L809,429L811,431L814,430L815,433L815,435L819,444L843,449L844,447L848,453L843,470L819,479L795,482L788,486L782,495L778,496L776,493L773,494L766,493L764,492L755,492L753,493L749,491L747,495L748,498L745,501L743,497L741,495L740,492L736,489L732,481L730,475L724,469L721,467L715,459L714,453L715,448L710,438L706,435L702,433L699,428L700,426L698,421L695,419L692,413L687,405L683,399L679,399L680,394L681,391Z" fill="#E0E0E0" stroke="#fff" stroke-width=".4"/><path d="M664,332L664,332L666,330L671,330L679,327L673,331L674,333L673,333L671,334L670,333L670,334L670,333L669,332L668,332L665,333Z" fill="#E0E0E0" stroke="#fff" stroke-width=".4"/><path d="M664,332L665,333L668,332L669,332L670,333L670,334L670,333L671,334L673,333L674,333L674,334L666,338L662,337L660,333Z" fill="#E0E0E0" stroke="#fff" stroke-width=".4"/><path d="M384,332L387,338L387,344L390,354L392,356L391,360L380,362L376,365L372,366L371,373L362,377L359,381L352,384L344,385L331,392L331,403L330,403L330,408L325,408L323,410L319,410L316,409L310,410L307,417L304,418L301,429L290,438L287,450L284,454L283,457L265,458L264,458L265,454L268,452L270,447L270,444L273,438L277,432L280,431L282,426L282,421L285,416L290,412L296,403L296,403L300,399L307,398L314,392L318,390L324,382L322,370L325,362L326,357L332,351L340,346L346,342L351,332L353,326L359,326L364,331L372,330L380,332Z" fill="#E0E0E0" stroke="#fff" stroke-width=".4"/><path d="M697,453L665,453L634,453L602,453L602,421L602,388L599,381L601,375L600,371L603,367L614,367L622,369L629,372L633,373L639,370L643,368L650,367L655,368L658,373L660,370L666,372L672,372L676,370L681,384L681,386L679,390L677,397L675,401L673,403L671,400L667,396L661,383L661,384L664,393L669,402L675,417L678,421L680,426L688,436L686,438L686,443L696,451Z" fill="#E0E0E0" stroke="#fff" stroke-width=".4"/><path d="M602,453L602,470L593,470L592,474L560,457L528,441L520,445L515,449L510,444L497,440L494,435L488,431L484,432L481,427L481,423L476,417L479,413L478,408L479,403L479,398L480,391L480,387L477,379L481,376L482,372L481,369L486,365L489,362L493,359L493,352L503,355L506,354L513,356L523,360L527,369L534,370L546,374L554,379L558,377L562,372L560,365L563,360L568,356L574,355L585,357L588,361L591,361L593,363L601,364L603,367L600,371L601,375L599,381L602,388L602,421Z" fill="#E0E0E0" stroke="#fff" stroke-width=".4"/><path d="M550,255L543,251L540,246L537,244L533,239L531,236L527,231L529,226L532,229L534,226L538,226L544,228L550,228L554,230L557,230L555,235L558,239L557,245L555,245L554,246L551,249Z" fill="#E0E0E0" stroke="#fff" stroke-width=".4"/><path d="M581,258L585,262L585,269L584,269L582,271L578,271L575,273L570,274L566,272L565,267L566,263L567,264L568,261L572,260L574,259L577,259Z" fill="#E0E0E0" stroke="#fff" stroke-width=".4"/><path d="M552,218L558,215L563,216L568,220L569,224L574,227L574,231L579,235L581,232L583,233L581,235L583,237L581,240L582,244L586,249L583,252L581,256L582,257L581,258L577,259L574,259L574,258L575,257L576,254L575,255L573,252L572,252L571,250L569,250L568,248L567,249L566,252L564,253L564,252L561,250L559,249L557,247L555,245L557,245L558,239L555,235L557,230L554,230L557,226L554,223Z" fill="#E0E0E0" stroke="#fff" stroke-width=".4"/><path d="M562,255L560,256L560,254L556,260L557,263L555,262L553,259L549,257L550,255L551,249L554,246L555,245L557,247L559,249L561,250L564,252L564,253Z" fill="#E0E0E0" stroke="#fff" stroke-width=".4"/><path d="M566,263L566,260L564,258L562,255L564,253L566,252L567,249L568,248L569,250L571,250L572,252L573,252L575,255L576,254L575,257L574,258L574,259L572,260L568,261L567,264Z" fill="#E0E0E0" stroke="#fff" stroke-width=".4"/></g><g clip-path="url(#v)"><path d="M379.6,148.5L379.0,149.1L377.1,149.6L376.3,150.2L374.9,151.4L374.6,151.5L372.4,151.2L370.8,149.6L369.8,149.0L369.4,148.9L368.9,149.1L368.0,149.3L367.0,149.2L367.5,148.5L368.2,148.1L366.7,147.8L366.3,147.5L365.8,147.0L364.7,146.9L364.1,147.1L363.2,147.8L361.7,148.5L359.9,147.5L359.6,147.0L359.6,146.1L359.3,145.4L358.8,145.2L359.4,144.3L360.2,143.7L361.9,143.1L364.4,141.7L365.9,141.1L367.2,140.0L367.7,139.4L368.1,138.5L368.5,137.4L369.1,136.5L368.5,136.3L368.3,135.7L368.4,135.0L368.6,134.4L368.4,133.6L368.0,132.8L368.0,132.2L368.1,131.6L367.1,131.6L366.1,131.8L365.1,132.3L364.2,132.9L363.5,133.0L363.5,132.5L363.8,131.9L364.7,131.0L365.7,130.3L366.0,129.7L366.3,129.1L366.8,128.5L368.1,127.5L370.4,126.4L370.8,126.3L371.8,126.5L372.7,126.3L373.5,125.9L374.4,125.8L376.2,127.0L375.6,125.2L376.4,124.7L377.6,126.4L378.1,126.5L379.0,126.3L378.6,126.0L378.2,126.0L377.6,125.8L377.2,125.2L376.4,123.6L376.5,122.6L377.0,121.6L377.6,120.6L377.1,120.4L376.7,120.0L376.6,119.1L376.8,118.3L377.8,117.5L378.1,116.4L378.2,115.1L378.0,114.5L377.0,114.6L376.5,114.9L376.1,115.2L375.6,115.2L374.4,113.8L373.7,112.8L372.4,110.5L372.2,109.2L373.2,106.3L374.8,104.4L376.7,103.8L376.3,103.7L373.5,103.6L372.5,103.9L371.7,104.6L371.2,104.9L370.7,104.9L370.2,105.3L369.8,105.9L369.3,106.2L368.3,106.1L367.8,106.2L367.5,105.9L367.3,105.4L366.9,105.3L366.5,105.4L365.7,106.1L364.8,106.5L363.7,106.1L362.4,105.3L362.1,105.6L361.8,106.3L361.6,107.5L360.7,106.5L359.8,105.1L359.5,104.3L359.5,103.3L360.0,103.0L360.4,103.3L361.2,101.0L362.6,98.1L363.1,97.2L363.5,96.1L363.4,95.3L363.1,94.7L361.8,93.3L361.8,92.1L361.9,90.8L362.3,90.0L362.4,89.8L364.2,89.8L363.5,89.4L362.2,88.2L362.2,87.8L362.5,86.7L362.4,86.8L362.1,87.3L361.5,88.5L361.1,88.8L360.2,89.1L360.0,89.7L359.8,89.9L359.3,90.0L359.2,90.5L359.1,90.6L358.9,90.0L358.9,88.9L359.1,88.0L359.5,87.3L360.9,85.6L360.2,86.1L358.6,87.7L357.8,88.7L357.6,89.0L357.5,89.3L357.5,89.6L357.9,91.4L357.8,92.3L356.4,97.7L356.2,98.2L355.9,98.5L355.7,98.5L355.0,98.4L354.7,98.0L354.7,97.6L354.9,96.9L355.4,94.3L355.7,93.6L356.1,92.9L356.8,91.8L356.8,91.7L356.3,91.9L356.1,91.9L355.9,91.6L356.0,88.2L356.4,87.0L356.6,85.3L357.0,83.9L357.4,82.9L357.8,81.5L358.3,80.9L358.4,80.0L358.9,79.0L359.4,78.0L359.1,78.1L356.4,80.8L355.7,81.3L354.7,81.1L353.9,80.8L353.4,80.2L353.1,79.0L352.4,78.9L351.8,78.7L351.8,78.6L352.6,77.9L353.9,77.6L355.0,76.6L354.0,75.8L354.1,75.6L355.0,75.0L356.1,72.9L356.4,71.0L355.8,70.1L355.6,69.5L354.5,68.8L354.3,67.9L354.5,67.5L354.8,67.0L355.4,66.6L356.2,66.3L355.4,65.9L355.2,65.5L354.9,64.8L354.9,64.5L355.3,62.8L355.6,62.1L356.0,61.3L358.1,61.3L358.3,60.9L358.6,60.9L359.6,61.3L359.5,60.9L357.7,58.8L357.6,58.4L358.1,57.3L358.1,56.8L358.1,56.2L358.2,55.8L358.7,55.6L360.4,55.7L360.8,55.5L360.7,54.9L360.2,54.2L360.2,53.6L360.3,53.1L360.3,52.0L360.4,51.5L360.8,50.8L361.1,50.6L361.5,50.5L362.4,50.7L362.8,51.0L363.2,51.7L363.5,51.6L364.6,50.9L365.0,50.8L365.4,51.6L367.4,50.9L370.0,50.7L371.6,50.2L373.3,50.0L374.9,49.5L376.5,49.8L376.6,50.1L376.5,50.5L376.1,51.6L376.1,52.8L376.1,53.2L375.9,53.7L375.2,54.6L373.7,55.8L370.7,58.7L369.0,60.1L368.8,60.8L368.7,61.7L369.7,61.9L370.1,62.2L369.8,62.7L368.3,64.3L367.8,65.8L369.0,65.8L370.0,65.5L371.9,64.6L373.7,63.9L374.6,63.8L376.3,64.4L376.7,64.4L377.4,64.1L378.1,64.1L383.0,64.3L384.4,64.0L385.3,64.4L386.1,65.3L386.8,67.1L386.8,67.4L386.3,68.2L385.5,69.2L384.8,70.6L384.6,71.3L384.5,72.1L384.3,72.9L382.9,76.4L381.5,78.4L381.0,79.7L380.2,80.8L379.5,81.5L378.8,82.0L376.6,82.5L376.0,82.8L375.2,83.4L374.5,83.7L375.4,83.7L376.3,83.3L377.9,83.2L379.8,84.4L379.6,85.3L378.8,86.0L377.1,86.2L375.5,87.8L374.8,88.3L374.1,88.5L373.1,88.5L371.4,88.0L370.6,87.6L371.3,88.3L372.1,88.7L376.6,89.6L376.8,89.5L378.3,88.6L380.2,88.6L383.8,90.3L384.8,91.7L386.3,93.6L387.2,94.4L387.8,95.1L388.1,96.1L388.8,99.5L389.6,102.8L390.7,106.3L391.1,107.3L391.8,107.9L395.0,109.5L395.7,110.0L396.9,111.5L398.1,113.1L399.2,114.4L400.4,115.3L399.8,115.9L399.4,116.7L399.7,117.8L400.2,118.8L401.1,120.5L402.0,122.3L401.7,122.0L401.3,121.9L400.9,121.9L400.5,121.8L399.6,121.2L398.9,120.5L397.3,120.8L396.5,120.7L395.7,120.7L397.2,121.1L398.7,121.2L402.1,124.2L403.2,126.0L403.9,128.3L403.4,129.4L402.7,130.1L402.0,130.8L401.4,131.7L403.3,133.0L403.7,133.0L404.1,132.8L404.5,132.3L405.2,131.3L405.5,130.9L406.7,130.8L407.7,130.8L408.7,131.1L409.5,131.0L411.3,131.5L412.1,131.9L414.4,133.7L414.8,134.7L415.0,136.0L415.1,137.5L414.7,138.8L414.3,140L414.0,141.5L413.8,142.1L413.6,142.5L412.4,143.7L411.6,144.2L411.3,144.0L410.9,144.0L410.9,144.3L411.3,144.9L411.3,145.7L410.6,146.2L409.9,146.4L408.7,146.1L407.1,147.2L408.3,147.7L408.5,148.2L408.2,149.2L407.5,149.6L406.6,149.8L405.8,149.9L405.1,150.1L404.4,150.6L405.3,150.3L405.9,150.5L406.2,151.3L406.6,151.6L408.2,151.9L409.2,151.9L411.1,151.7L412.1,151.7L412.4,151.9L412.4,152.6L412.3,154.2L412.0,154.6L409.4,155.9L408.9,156.9L408.7,157.5L407.2,157.4L406.6,158.0L405.3,158.4L404.4,158.9L403.5,159.4L402.7,159.6L399.4,158.9L397.4,159.0L394.7,159.5L394.0,159.4L393.0,158.9L392.0,158.5L390.7,158.4L389.7,157.9L390.3,158.8L388.9,159.8L388.2,159.9L387.5,159.9L386.1,160.2L384.7,160.0L384.9,160.7L385.3,161.3L385.0,161.5L384.7,161.6L382.2,161.1L381.8,161.2L381.5,161.6L380.6,161.4L379.7,160.7L378.7,160.3L377.8,160.1L377.0,160.2L373.7,161.2L373.1,162.3L372.7,163.8L372.3,165.1L371.5,166.2L370.6,166.3L369.7,165.6L368.1,164.8L367.5,164.3L367.4,164.2L367.2,164.4L366.5,164.7L365.9,164.7L364.9,164.9L363.1,165.5L362.4,166.0L360.8,167.2L360.5,167.5L360.0,168.7L359.1,168.9L358.3,168.1L357.4,167.8L356.5,168.1L355.9,168.5L355.7,168.2L355.6,167.5L356.3,166.7L358.2,166.1L359.8,164.5L360.6,163.5L360.9,162.9L361.3,162.6L361.8,162.5L362.0,161.8L364.2,159.4L364.4,158.8L364.6,157.8L364.7,156.8L366.5,156.2L367.4,154.1L367.6,154.0L370.2,153.6L372.1,153.6L373.9,154.0L374.9,154.1L375.9,153.9L376.6,153.4L377.9,151.3L378.6,150.5L379.5,149.6L380.2,148.7L381.5,147.0L380.7,147.6ZM367.4,126.1L367.7,126.4L368.5,126.4L368.3,126.9L367.3,127.5L366.7,128.1L365.9,128.7L365.6,128.1L365.1,128.1L364.5,127.0L364.4,125.3L365.2,124.8L366.4,124.9ZM380.6,40.5L379.7,40.5L380.1,39.6L380.7,39.3L381.7,39.4L381.5,39.9ZM392.7,20.0L392.5,20.2L391.7,18.5L392.3,16.6L393.0,16.6L393.1,17.1L393.0,17.6L392.6,17.7L392.6,17.8L392.7,18.7L392.7,19.7ZM390.5,19.6L390.7,20.7L391.1,20.4L391.8,21.5L392.1,21.5L392.6,21.1L392.5,22.1L392.0,24.9L391.8,25.4L391.7,26.3L391.6,26.5L391.4,28.2L391.1,28.7L390.7,30.1L390.6,30.2L390.2,29.7L390.6,27.6L390.8,26.4L390.7,25.8L390.4,25.3L389.7,25.2L389.1,25.5L389.0,25.1L389.0,24.7L388.9,24.6L388.1,24.6L387.9,24.5L387.7,24.0L387.7,23.7L388.4,23.5L389.0,23.6L390.0,22.9L389.4,20.7L388.6,20.5L388.4,20.3L388.6,19.9L389.0,19.7L389.7,18.6L390.1,18.4L390.6,18.4ZM394.8,15.1L394.8,15.3L394.4,16.7L394.4,17.2L393.7,17.1L393.6,17.0L393.5,16.2L393.6,15.3L393.7,15.1L393.9,15.0L394.1,15.2L394.4,14.7L394.6,14.7ZM375.6,47.3L375.2,47.5L374.7,47.5L374.0,46.6L373.7,45.9L373.8,45.5L374.1,45.4L374.8,45.6L375.1,46.3L375.2,46.8L375.2,47.0L375.7,47.2ZM377.5,48.1L377.4,48.2L377.2,47.9L376.7,46.8L377.4,46.7L377.8,46.8L377.6,47.2ZM376.5,43.6L376.4,44.0L377.0,44.0L377.9,44.3L378.4,44.4L378.9,44.8L378.6,45.6L378.3,45.8L378.1,45.8L377.0,45.0L375.6,45.4L375.3,45.3L375.2,45.1L375.1,44.8L375.1,44.3L375.0,44.1L374.5,44.6L374.3,44.6L374.2,44.3L374.1,43.8L374.2,43.1L374.5,42.1L375.0,41.8L375.7,42.0L376.5,42.5L376.8,42.9L376.8,43.2ZM379.1,41.2L378.4,41.6L378.1,41.2L378.1,40.2L377.2,39.8L376.8,39.5L376.5,39.0L376.6,38.9L377.2,38.7L378.1,39.6L378.5,40.3L379.1,40.6L379.2,40.7ZM348.0,80.5L347.5,80.6L347.5,80.4L348.3,79.4L348.8,79.2L349.0,79.3L348.6,79.9ZM360.0,96.8L359.0,96.8L358.7,96.7L358.3,96.3L357.8,94.4L357.9,93.7L358.1,93.4L358.3,93.1L358.9,93.0L359.4,93.4L359.6,93.7L360.0,95.0L360.1,96.2ZM354.7,84.0L351.5,84.8L350.4,84.7L350.2,84.3L350.5,84.1L351.4,83.8L351.8,81.9L350.4,81.0L350.3,80.7L350.4,80.3L350.6,80.1L351.4,79.6L351.8,79.5L352.0,79.6L352.6,80.1L353.3,81.2L354.2,81.4L354.8,81.9ZM351.8,89.9L352.1,91.8L352.4,92.9L352.4,93.3L352.2,93.9L350.9,94.6L350.4,94.6L350.4,94.4L350.7,93.7L350.4,92.8L350.6,92.2L350.4,92.1L350.2,92.2L349.2,93.2L348.9,93.3L348.9,93.1L349.1,92.3L349.1,91.7L349.3,91.4L349.6,91.0L349.9,90.8L350.1,90.8L350.4,91.0L351.1,90.3ZM353.1,91.6L352.9,91.8L352.5,91.7L352.4,91.5L352.3,91.1L352.3,90.5L352.5,90.0L353.6,89.3L353.1,89.1L353.1,88.9L353.4,88.3L354.5,87.4L354.8,87.2L355.1,87.2L354.5,88.9ZM351.3,53.9L350.2,56.6L349.9,56.7L349.5,57.3L348.4,58.1L349.4,58.1L349.6,58.3L349.6,58.8L349.5,59.1L348.2,60.4L347.4,60.8L346.5,62.1L346.0,62.1L345.6,62.9L345.2,63.2L345.0,63.2L344.7,63.1L344.2,62.3L345.2,61.5L345.3,61.1L346.0,60.6L345.9,60.5L344.8,59.9L344.4,59.4L344.4,59.2L345.0,58.7L344.7,58.6L344.5,58.4L344.2,58.3L344.1,58.0L344.1,57.4L344.1,56.7L344.5,56.4L344.6,56.1L344.8,56.0L345.2,56.2L345.8,56.7L346.3,56.5L347.0,56.6L347.1,56.5L346.5,55.2L346.6,54.9L346.9,54.6L348.5,53.6L350.5,52.0L351.0,51.8L351.1,52.0L351.3,52.8ZM350.6,74.9L350.4,75.1L350.1,75.1L349.8,74.8L349.4,74.1L350.3,73.7L350.7,73.9L350.8,74.3L350.8,74.6ZM351.7,66.9L351.7,67.6L351.5,68.4L351.8,69.2L351.8,69.7L352.1,70.0L352.3,70.2L353.8,70.5L355.2,70.4L355.5,70.7L355.5,71.1L355.3,71.5L354.5,72.2L353.6,73.5L353.3,73.7L353.0,73.8L352.8,73.6L352.6,71.4L351.6,71.7L350.7,71.7L350.3,71.4L350.0,70.9L349.3,69.6L347.4,69.0L346.9,68.3L346.8,67.8L346.8,67.6L347.2,67.1L347.7,67.2L348.0,67.1L348.2,66.9L348.2,66.7L347.9,66.2L347.9,66.0L349.8,65.4L350.0,64.5L350.4,64.4L350.9,64.7L351.5,65.7ZM343.2,64.3L344.1,65.1L343.4,66.5L342.3,66.5L340.7,65.5L340.7,65.3L340.8,65.0L341.1,64.7L341.3,64.6L341.7,64.8L342.2,64.5L342.7,64.6ZM342.8,72.7L342.5,72.8L342.1,72.7L341.8,72.5L341.5,71.6L341.5,71.0L341.6,70.0L341.5,68.8L342.5,68.7L342.7,68.9L342.8,72.6ZM341.5,74.9L340.8,75.1L340.5,75.0L340.5,74.8L340.7,74.3L341.2,74.1L341.6,74.4L341.6,74.7ZM351.1,115.7L350.4,115.7L350.0,115.9L349.6,116.1L349.4,116.1L348.5,116.2L347.6,116.2L347.5,115.8L347.7,114.7L347.5,114.4L346.7,114.3L346.4,114.0L346.0,113.3L345.9,112.9L345.8,112.4L345.4,111.8L344.8,111.4L344.4,111.3L343.8,112.1L343.2,112.8L343.4,113.2L343.6,113.7L343.3,114.0L342.4,114.8L342.2,115.1L342.0,115.3L341.5,115.1L340.5,115.1L340.0,115L339.4,114.4L338.0,114.0L337.7,113.1L337.5,112.9L335.9,111.3L335.7,110.7L335.9,110.4L336.5,109.9L338.5,109.1L338.8,108.8L338.9,108.5L338.3,108.2L337.7,107.8L337.6,107.6L337.5,107.3L337.8,107.1L338.5,107.0L338.9,107.2L339.3,106.9L340.0,106.7L340.4,106.4L340.8,105.6L341.2,104.8L341.3,104.5L341.6,103.1L341.8,102.7L343.1,101.8L343.4,102.3L344.0,102.5L344.6,102.0L345.3,100.6L345.7,100.5L346.3,100.6L347.3,100.4L349.1,99.8L349.9,99.7L351.0,100.1L351.8,100.1L352.6,101.1L353.0,102.7L353.9,104.3L355.2,105.7L355.2,106.5L354.8,107.0L353.8,107.5L353.9,108.1L354.4,107.8L355.0,107.7L356.2,107.8L356.7,108.4L357.0,109.3L357.1,110.1L357.0,110.9L356.7,110.6L356.3,109.9L356.0,109.6L355.5,109.4L355.7,110.4L355.6,111.7L355.8,111.8L356.4,111.9L356.0,113.2L355.2,113.6L354.3,113.7L354.0,114.2L353.9,114.8L353.4,115.7L352.7,116.3L351.9,116.2ZM392.5,160.5L391.8,160.9L391.6,161.4L391.4,161.6L391,161.8L390.6,161.8L388.9,160.7L388.5,160.8L388.9,160.3L389.9,159.9L390.5,159.4L391.9,159.9Z" fill="#4ECDC4" stroke="#2C3E50" stroke-width="1"/></g><circle cx="400.0" cy="150.0" r="4" fill="#E74C3C" stroke="#fff" stroke-width="2"/><text x="400.0" y="140.0" text-anchor="middle" font-family="sans-serif" font-weight="700" font-size="10" fill="#2D3436">London</text></svg>