<svg viewBox="0 0 800 300" xmlns="http://www.w3.org/2000/svg"><defs><clipPath id="v"><rect width="800" height="300"/></clipPath></defs><rect width="800" height="300" fill="#DCEEF8"/><g clip-path="url(#v)"><path d="M1917,-232L1890,-196L1860,-191L1859,-137L1839,-114L1768,-131L1743,-38L1724,-27L1654,-7L1686,79L1661,92L1664,120L1642,113L1624,95L1571,90L1512,89L1499,94L1449,74L1428,84L1423,112L1364,96L1341,103L1333,124L1312,133L1265,166L1250,200L1236,200L1227,178L1181,176L1174,137L1157,137L1159,88L1117,53L1056,56L1014,64L980,19L951,0L895,-36L889,-41L797,-11L798,170L780,172L755,135L731,121L691,131L675,147L673,135L682,115L675,98L634,82L617,38L598,25L597,9L631,14L633,-23L663,-32L694,-24L700,-74L694,-106L658,-103L628,-116L587,-93L554,-82L535,-91L539,-117L516,-153L490,-151L460,-187L480,-228L470,-239L498,-300L535,-268L539,-309L613,-370L669,-372L747,-332L789,-310L827,-333L884,-335L929,-305L940,-322L990,-320L999,-346L941,-386L975,-414L969,-430L1003,-446L977,-486L993,-507L1060,-518L1127,-528L1144,-543L1233,-566L1265,-592L1329,-579L1341,-515L1378,-530L1423,-509L1421,-476L1455,-479L1544,-537L1531,-517L1577,-471L1656,-323L1675,-353L1724,-320L1775,-335L1795,-325L1812,-292L1837,-281L1852,-258L1898,-265Z" fill="#E0E0E0" stroke="#fff" stroke-width=".4"/><path d="M798,170L797,-11L889,-41L895,-36L951,0L980,19L1014,64L1056,56L1117,53L1159,88L1157,137L1174,137L1181,176L1227,178L1236,200L1250,200L1265,166L1312,133L1333,124L1343,129L1313,160L1340,177L1365,166L1407,191L1362,224L1335,220L1320,221L1315,208L1322,186L1275,197L1263,227L1246,253L1217,250L1207,271L1233,282L1241,316L1221,361L1194,352L1174,352L1175,324L1128,305L1091,282L1067,261L1027,229L1009,180L997,172L959,174L945,164L941,126L893,100L863,128L833,145L839,169Z" fill="#E0E0E0" stroke="#fff" stroke-width=".4"/><path d="M80,530L71,531L68,538L56,538L68,503L86,473L87,471L103,473L108,490L89,507Z" fill="#E0E0E0" stroke="#fff" stroke-width=".4"/><path d="M201,577L186,526L265,481L279,428L275,396L295,385L313,357L328,350L370,356L382,368L399,360L422,413L446,426L448,452L431,467L422,500L447,541L491,564L509,596L503,627L515,627L515,649L535,670L514,668L490,665L463,704L397,701L297,618L244,589Z" fill="#E0E0E0" stroke="#fff" stroke-width=".4"/><path d="M1578,434L1543,471L1504,477L1450,467L1432,485L1445,523L1457,552L1486,573L1456,597L1456,627L1421,668L1399,710L1362,752L1320,749L1281,791L1305,809L1309,840L1329,860L1336,893L1257,893L1233,919L1207,910L1197,881L1169,852L1103,859L1046,860L995,865L1009,819L1060,799L1057,780L1040,774L1039,738L1005,720L991,696L973,674L1033,695L1069,689L1090,694L1097,685L1122,689L1168,672L1170,637L1189,613L1216,613L1220,602L1247,596L1260,600L1274,588L1272,563L1287,537L1310,527L1296,498L1330,500L1340,484L1338,467L1356,449L1352,427L1343,409L1364,389L1403,380L1443,375L1462,367L1482,362L1509,383L1519,417Z" fill="#E0E0E0" stroke="#fff" stroke-width=".4"/><path d="M1174,352L1194,352L1221,361L1232,367L1258,352L1270,361L1281,340L1303,341L1308,335L1312,316L1327,301L1346,311L1343,325L1353,327L1350,365L1364,379L1377,370L1392,366L1415,346L1439,349L1476,349L1482,362L1462,367L1443,375L1403,380L1364,389L1343,409L1352,427L1356,449L1338,467L1340,484L1330,500L1296,498L1310,527L1287,537L1272,563L1274,588L1260,600L1247,596L1220,602L1216,613L1189,613L1170,637L1168,672L1122,689L1097,685L1090,694L1069,689L1033,695L973,674L1006,637L1003,610L976,603L973,576L961,543L976,519L961,513L971,482L985,427L1022,444L1048,438L1056,418L1084,412L1104,398L1111,363L1141,354L1147,338L1164,350Z" fill="#E0E0E0" stroke="#fff" stroke-width=".4"/><path d="M675,147L691,131L731,121L755,135L780,172L798,170L839,169L833,145L863,128L893,100L941,126L945,164L959,174L997,172L1009,180L1027,229L1067,261L1091,282L1128,305L1175,324L1174,352L1164,350L1147,338L1141,354L1111,363L1104,398L1084,412L1056,418L1048,438L1022,444L985,427L982,390L956,389L915,349L886,344L847,321L822,317L806,326L782,324L757,350L726,359L719,327L724,279L696,264L705,232L682,230L690,190L723,202L754,187L729,158L718,131L690,143L686,178Z" fill="#E0E0E0" stroke="#fff" stroke-width=".4"/><path d="M535,670L515,649L515,627L503,627L509,596L491,564L447,541L422,500L431,467L448,452L446,426L422,413L399,360L380,324L387,310L376,258L400,244L406,262L424,283L448,289L461,288L503,254L516,250L527,264L515,287L537,311L546,308L557,342L591,351L616,373L666,381L722,369L726,359L757,350L782,324L806,326L822,317L847,321L886,344L915,349L956,389L982,390L985,427L971,482L961,513L976,519L961,543L973,576L976,603L1003,610L1006,637L973,674L991,696L1005,720L1039,738L1040,774L1057,780L1060,799L1009,819L995,865L928,853L889,844L849,839L834,790L817,783L790,790L754,810L710,796L674,766L640,754L616,716L590,661L571,668L548,654Z" fill="#E0E0E0" stroke="#fff" stroke-width=".4"/><path d="M77,554L76,554L81,547L80,530L89,507L108,490L103,473L87,471L83,438L92,420L102,410L111,401L113,376L125,385L164,372L183,381L212,380L253,364L272,364L313,357L295,385L275,396L279,428L265,481L186,526L116,571Z" fill="#E0E0E0" stroke="#fff" stroke-width=".4"/><path d="M461,288L448,289L434,263L434,255L418,256L408,243L400,244L386,231L360,219L363,196L357,180L407,172L414,185L427,193L420,205L439,221L429,236L444,248L460,256Z" fill="#E0E0E0" stroke="#fff" stroke-width=".4"/><path d="M-63,-394L-50,-392L-41,-405L-30,-402L7,-408L29,-375L20,-363L23,-345L52,-343L65,-318L64,-307L109,-287L136,-296L158,-270L179,-271L232,-253L232,-237L218,-208L226,-179L220,-161L185,-157L167,-142L166,-119L137,-115L114,-98L80,-95L50,-76L52,-48L46,-50L42,-60L30,-62L5,-73L-5,-60L-10,-66L-65,-79L-67,-98L-100,-92L-114,-63L-141,-26L-157,-34L-174,-26L-190,-36L-181,-41L-175,-59L-165,-75L-168,-84L-160,-88L-157,-81L-136,-80L-126,-84L-133,-89L-130,-97L-143,-110L-148,-132L-161,-140L-158,-158L-174,-173L-189,-175L-215,-191L-239,-186L-248,-178L-263,-178L-272,-165L-298,-160L-310,-152L-327,-165L-349,-165L-371,-171L-387,-160L-389,-174L-409,-189L-402,-211L-392,-225L-385,-221L-394,-246L-361,-292L-344,-299L-340,-314L-358,-364L-341,-366L-321,-382L-294,-383L-258,-378L-218,-365L-190,-364L-176,-355L-163,-365L-154,-352L-122,-355L-107,-349L-105,-378L-94,-391Z" fill="#E0E0E0" stroke="#fff" stroke-width=".4"/><path d="M-248,-178L-239,-186L-215,-191L-189,-175L-174,-173L-158,-158L-161,-140L-148,-132L-143,-110L-130,-97L-133,-89L-126,-84L-136,-80L-157,-81L-160,-88L-168,-84L-165,-75L-175,-59L-181,-41L-190,-36L-196,-59L-193,-81L-194,-104L-214,-135L-226,-157L-237,-173Z" fill="#E0E0E0" stroke="#fff" stroke-width=".4"/><path d="M-190,-36L-174,-26L-157,-34L-141,-26L-140,-13L-158,-2L-169,-7L-179,54L-199,48L-225,30L-267,42L-285,54L-337,52L-365,44L-379,48L-389,27L-395,19L-387,10L-396,4L-407,15L-428,1L-431,-20L-452,-32L-456,-48L-476,-68L-447,-78L-426,-113L-409,-149L-387,-160L-371,-171L-349,-165L-327,-165L-310,-152L-298,-160L-272,-165L-263,-178L-248,-178L-237,-173L-226,-157L-214,-135L-194,-104L-193,-81L-196,-59Z" fill="#E0E0E0" stroke="#fff" stroke-width=".4"/><path d="M-389,27L-379,48L-365,44L-337,52L-285,54L-267,42L-225,30L-199,48L-179,54L-197,74L-210,109L-199,136L-229,130L-266,145L-266,169L-298,173L-323,157L-352,170L-378,168L-381,137L-399,121L-393,114L-397,109L-391,93L-377,78L-394,57L-398,39Z" fill="#E0E0E0" stroke="#fff" stroke-width=".4"/><path d="M399,360L382,368L370,356L328,350L313,357L272,364L253,364L212,380L183,381L164,372L125,385L113,376L111,401L102,410L92,420L79,400L92,383L71,387L41,377L16,402L-38,407L-67,384L-105,382L-113,400L-138,406L-172,382L-211,383L-232,338L-258,313L-241,278L-264,256L-224,211L-169,210L-154,174L-86,180L-43,149L-2,136L57,135L119,168L170,187L212,179L243,184L285,159L323,157L357,180L363,196L360,219L386,231L400,244L376,258L387,310L380,324ZM-266,145L-229,130L-199,136L-194,155L-163,170L-170,182L-212,184L-227,199L-257,224L-268,202L-268,193L-259,187L-248,158Z" fill="#E0E0E0" stroke="#fff" stroke-width=".4"/><path d="M458,143L468,145L492,174L508,177L514,165L535,146L554,171L572,204L589,207L600,219L570,223L564,259L558,275L545,286L546,308L537,311L515,287L527,264L516,250L503,254L461,288L460,256L444,248L429,236L439,221L420,205L427,193L414,185L407,172L415,165L442,178L461,181L466,176L448,150ZM448,289L424,283L406,262L400,244L408,243L418,256L434,255L434,263Z" fill="#E0E0E0" stroke="#fff" stroke-width=".4"/><path d="M-30,450L-27,450L-22,439L4,440L36,427L12,445L15,453L11,452L4,455L-1,454L-3,456L-4,451L-6,449L-13,448L-23,452Z" fill="#E0E0E0" stroke="#fff" stroke-width=".4"/><path d="M-30,450L-23,452L-13,448L-6,449L-4,451L-3,456L-1,454L4,455L11,452L15,453L16,457L-21,474L-38,469L-47,451Z" fill="#E0E0E0" stroke="#fff" stroke-width=".4"/></g><g clip-path="url(#v)"><path d="M351.9,179.1L351.9,178.2L351.6,176.8L350.6,175.8L349.1,175.2L346.1,175.4L343.5,174.8L341.6,173.0L341.2,171.6L342.3,170.6L341.5,169.7L338.3,167.5L332.9,162.1L329.8,160.8L328.7,157.4L327.5,156.7L324.9,156.4L322.2,156.7L321.6,157.1L320.8,157.7L318.6,161.9L317.2,163.4L313.5,162.6L310.6,161.7L308.1,161.2L303.4,160.7L297.9,160.7L294.3,163.7L292.7,163.3L289.9,161.8L285.4,160.6L283.1,159.7L289.9,150.7L292.0,145.3L292.1,142.1L292.1,138.0L288.6,129.5L285.5,117.5L282.3,104.8L279.9,101.0L269.5,96.6L267.1,91.7L259.1,85.1L248.0,82.3L245.8,81.2L236.0,73.0L228.5,67.7L230.1,64.6L232.3,61.2L234.6,60.4L241.5,61.7L247.8,63.2L252.4,62.1L257.8,64.7L262.8,67.8L267.8,69.9L277.7,72.0L281.3,74.8L285.7,77.6L302.4,79.0L303.6,78.5L304.9,78.1L310.6,77.1L315.4,77.3L320.7,80.7L324.0,80.5L327.6,80.0L332.3,81.8L335.8,83.8L336.2,85.8L339.4,88.8L348.5,93.3L356.1,95.8L358.4,97.7L364.1,100.6L364.7,101.5L364.6,102.7L362.9,104.9L362.5,106.8L363.3,108.0L365.6,109.1L370.4,109.3L372.0,107.9L375.5,106.9L379.0,105.1L383.6,102.7L389.9,100.5L392.4,100.5L394.9,101.2L396.5,102.4L399.4,106.9L402.2,100.6L402.9,100.1L405.5,101.4L410.0,103.1L413.2,104.1L414.9,105.3L419.8,111.1L427.6,110.8L430.8,111.7L432.6,112.6L433.4,113.7L432.1,119.4L430.1,125.4L430.3,126.8L433.4,128.9L437.6,131.4L439.9,133.2L441.4,134.9L444.9,136.2L448.9,136.9L450.7,137.1L452.7,138.5L457.7,141.2L458.5,141.9L457.6,143.5L455.6,146.7L453.9,148.2L452.1,148.5L450.3,149.2L449.6,150.8L449.6,153.0L449.9,154.5L450.4,155.1L452.2,155.6L454.0,160.1L456.8,162.4L461.2,165.0L465.2,167.9L467.1,170.6L466.7,172.5L465.4,176.6L462.2,180.0L459.4,180.8L458.5,180.6L456.7,179.5L453.1,176.9L449.3,174.8L446.2,175.5L444.3,176.3L440.3,175.3L435.8,173.6L433.4,171.8L432.3,170.5L433.0,168.2L422.6,164.0L417.4,162.9L415.3,164.1L407.6,170.4L406.7,171.1L400.8,171.9L400.8,172.5L402.0,173.8L401.8,174.2L391.9,174.3L388.7,175.2L380.0,174.1L377.0,174.6L374.6,175.6L368.6,176.6L364.5,178.0L359.2,178.7L353.7,178.7Z" fill="#4ECDC4" stroke="#2C3E50" stroke-width="1"/></g><circle cx="400.0" cy="150.0" r="4" fill="#E74C3C" stroke="#fff" stroke-width="2"/><text x="400.0" y="140.0" text-anchor="middle" font-family="sans-serif" font-weight="700" font-size="10" fill="#2D3436">Tbilisi</text></svg>