<svg viewBox="0 0 800 300" xmlns="http://www.w3.org/2000/svg"><defs><clipPath id="v"><rect width="800" height="300"/></clipPath></defs><rect width="800" height="300" fill="#DCEEF8"/><g clip-path="url(#v)"><path d="M1034,271L1037,273L1105,311L1106,322L1133,341L1124,364L1125,374L1137,381L1138,386L1133,397L1134,403L1133,412L1139,424L1147,442L1154,447L1139,458L1119,465L1107,465L1101,470L1088,471L1083,473L1061,468L1047,469L1041,444L1035,435L1031,430L1013,426L1002,420L991,417L983,414L975,409L965,386L955,375L951,364L953,355L949,337L957,337L964,330L971,320L976,316L976,310L971,306L970,299L976,296L977,285L969,275L976,272L996,273Z" fill="#E0E0E0" stroke="#fff" stroke-width=".4"/><path d="M242,-282L242,-281L242,-277L242,-245L181,-246L181,-194L164,-192L159,-182L163,-153L90,-153L86,-146L87,-155L87,-155L129,-156L131,-163L139,-172L145,-200L171,-222L180,-248L185,-250L192,-266L207,-268L214,-266L222,-266L228,-270L240,-271L239,-282Z" fill="#E0E0E0" stroke="#fff" stroke-width=".4"/><path d="M949,337L953,355L951,364L955,375L965,386L975,409L968,407L943,411L938,413L933,425L937,433L934,456L931,475L936,478L949,485L955,482L956,502L942,502L934,492L927,484L913,481L909,471L898,477L883,474L876,466L865,464L856,465L855,459L848,458L840,457L828,460L820,459L816,461L817,439L811,432L809,420L812,409L808,401L808,390L785,390L787,383L777,383L776,386L765,387L760,398L757,403L747,400L741,403L729,404L722,394L717,388L712,377L707,363L652,363L646,365L640,365L633,367L630,362L635,360L636,351L639,347L645,343L650,345L657,337L667,338L668,343L675,346L686,335L697,325L701,319L701,304L709,286L717,276L730,267L732,262L732,255L735,248L734,238L737,221L740,210L746,200L747,188L749,175L756,166L766,160L781,166L793,173L807,175L820,179L826,167L828,166L837,168L858,158L865,162L871,162L874,157L881,156L895,158L907,158L913,156L924,172L932,174L937,171L946,172L956,168L961,176L977,188L976,210L984,213L978,219L970,224L963,234L959,242L958,257L954,265L954,279L949,284L948,295L945,296L944,306L948,315Z" fill="#E0E0E0" stroke="#fff" stroke-width=".4"/><path d="M861,100L846,92L840,86L839,80L842,73L842,65L831,53L829,45L829,40L822,35L822,24L818,16L812,17L814,10L818,3L816,-5L822,-11L819,-16L823,-28L832,-42L848,-41L847,-118L847,-126L869,-126L869,-166L943,-166L1016,-166L1089,-166L1095,-147L1091,-143L1094,-123L1101,-99L1108,-94L1118,-87L1109,-76L1095,-73L1089,-67L1087,-54L1079,-25L1081,-18L1078,-1L1071,18L1060,27L1052,42L1050,49L1041,55L1035,74L1036,91L1035,77L1033,76L1033,67L1031,60L1021,53L1019,39L1021,25L1013,24L1011,28L1000,29L1005,35L1006,46L996,57L987,70L977,72L962,61L955,65L953,71L943,74L942,78L924,78L921,74L908,73L901,77L896,75L887,64L883,59L870,61L865,70L860,87L854,91L848,93Z" fill="#E0E0E0" stroke="#fff" stroke-width=".4"/><path d="M847,-118L848,-41L832,-42L823,-28L819,-16L822,-11L816,-5L818,3L814,10L812,17L818,16L822,24L822,35L829,40L829,45L817,48L808,56L794,77L777,85L759,84L754,86L755,92L746,99L738,106L714,114L710,109L707,109L703,114L688,115L691,110L685,97L682,89L674,86L663,75L667,66L676,68L681,67L691,67L681,50L682,37L681,25L673,12L675,3L663,3L663,-9L655,-17L664,-42L687,-60L688,-86L695,-125L699,-134L692,-141L691,-147L684,-152L680,-184L699,-195L773,-156Z" fill="#E0E0E0" stroke="#fff" stroke-width=".4"/><path d="M-558,176L-569,193L-574,207L-581,214L-590,215L-593,210L-597,209L-603,214L-611,211L-606,203L-605,194L-601,186L-609,175L-610,162L-600,146L-594,148L-580,153L-561,169ZM519,-808L527,-801L554,-796L545,-776L542,-757L537,-752L529,-754L529,-747L516,-732L516,-720L524,-724L531,-712L530,-705L536,-695L529,-687L534,-666L544,-663L542,-652L525,-637L488,-644L461,-636L459,-621L438,-618L417,-629L410,-624L376,-635L368,-645L378,-660L381,-713L362,-741L348,-755L320,-766L318,-786L342,-792L373,-785L368,-817L385,-805L428,-827L434,-851L450,-857L453,-847L462,-847L470,-835L483,-821L493,-823L509,-810L513,-808ZM566,-625L578,-634L581,-613L575,-594L567,-599L563,-615Z" fill="#E0E0E0" stroke="#fff" stroke-width=".4"/><path d="M93,-2L85,-17L76,-24L84,-27L93,-41L97,-51L104,-57L113,-55L122,-59L132,-60L141,-54L154,-49L165,-35L177,-21L178,-9L182,2L189,7L190,14L189,20L187,21L177,20L175,22L171,22L158,18L149,18L114,17L109,19L103,18L93,21L90,7L107,7L112,4L115,4L122,-0L130,4L138,4L146,-0L142,-6L136,-2L130,-2L123,-7L117,-7L113,-2Z" fill="#E0E0E0" stroke="#fff" stroke-width=".4"/><path d="M189,20L190,14L189,7L182,2L178,-9L177,-21L183,-25L186,-36L192,-37L205,-31L216,-35L223,-34L226,-38L300,-38L305,-52L301,-54L292,-139L283,-226L312,-226L375,-182L437,-138L442,-129L453,-123L462,-120L462,-108L483,-110L483,-65L473,-52L471,-40L455,-37L429,-35L422,-28L411,-27L399,-27L394,-31L384,-28L366,-20L363,-14L348,-6L346,-1L338,3L329,1L324,5L321,18L306,34L307,41L302,49L303,60L295,62L291,65L288,57L283,59L280,58L276,64L262,64L257,61L254,63L248,57L249,52L247,49L243,51L244,45L248,40L240,32L238,27L234,23L230,22L226,25L220,28L214,32L206,30L201,25L198,25L193,27L190,27Z" fill="#E0E0E0" stroke="#fff" stroke-width=".4"/><path d="M86,-146L90,-153L163,-153L159,-182L164,-192L181,-194L181,-246L242,-245L242,-277L312,-226L283,-226L292,-139L301,-54L305,-52L300,-38L226,-38L223,-34L216,-35L205,-31L192,-37L186,-36L183,-25L177,-21L165,-35L154,-49L141,-54L132,-60L122,-59L113,-55L104,-57L97,-51L96,-61L101,-71L103,-89L101,-108L99,-118L101,-128L96,-138Z" fill="#E0E0E0" stroke="#fff" stroke-width=".4"/><path d="M454,137L438,139L434,126L435,83L431,79L430,70L424,63L418,58L420,48L427,46L430,37L440,36L444,30L450,24L457,24L471,35L470,41L474,53L471,60L472,65L463,77L458,83L454,95L455,107Z" fill="#E0E0E0" stroke="#fff" stroke-width=".4"/><path d="M680,-184L684,-152L691,-147L692,-141L699,-134L695,-125L688,-86L687,-60L664,-42L655,-17L663,-9L663,3L675,3L673,12L668,13L667,19L664,20L651,-1L647,-2L632,9L618,3L608,2L603,5L592,4L581,12L571,13L549,3L540,8L530,7L523,0L505,-7L485,-5L480,-1L477,10L472,18L471,35L457,24L450,24L444,30L444,17L423,12L422,3L412,-9L409,-18L411,-27L422,-28L429,-35L455,-37L471,-40L473,-52L483,-65L483,-110L509,-118L563,-157L627,-196L656,-187L667,-176Z" fill="#E0E0E0" stroke="#fff" stroke-width=".4"/><path d="M454,137L455,107L454,95L458,83L463,77L472,65L471,60L474,53L470,41L471,35L472,18L477,10L480,-1L485,-5L505,-7L523,0L530,7L540,8L549,3L571,13L581,12L592,4L603,5L608,2L618,3L632,9L647,-2L651,-1L664,20L667,19L675,27L673,31L672,37L656,51L651,64L649,73L645,78L641,91L631,99L628,108L624,116L622,123L609,130L599,122L592,122L581,133L575,133L566,152L562,165L542,171L535,170L528,175L513,174L503,163L497,149L484,137L470,137Z" fill="#E0E0E0" stroke="#fff" stroke-width=".4"/><path d="M673,12L681,25L682,37L681,50L691,67L681,67L676,68L667,66L663,75L674,86L682,89L685,97L691,110L688,115L678,134L674,138L673,152L674,160L673,165L682,175L683,182L690,192L699,198L699,206L701,211L700,221L685,217L670,212L647,211L644,210L634,213L622,210L613,212L583,211L586,196L579,184L570,181L566,173L561,170L562,165L566,152L575,133L581,133L592,122L599,122L609,130L622,123L624,116L628,108L631,99L641,91L645,78L649,73L651,64L656,51L672,37L673,31L675,27L667,19L668,13Z" fill="#E0E0E0" stroke="#fff" stroke-width=".4"/><path d="M420,48L418,58L424,63L430,70L431,79L435,83L434,126L438,139L423,143L419,137L414,125L413,115L417,98L412,92L410,77L410,63L403,53L404,47Z" fill="#E0E0E0" stroke="#fff" stroke-width=".4"/><path d="M254,63L257,61L262,64L276,64L280,58L283,59L288,57L291,65L295,62L303,60L311,64L315,70L323,74L329,69L338,68L351,73L356,100L348,116L343,137L351,153L350,161L342,161L329,157L317,157L295,161L282,166L264,173L260,172L262,157L263,155L263,147L255,139L249,138L243,133L248,125L246,116L247,110L249,110L251,102L249,98L251,96L258,93L253,78L249,71L250,64Z" fill="#E0E0E0" stroke="#fff" stroke-width=".4"/><path d="M149,18L158,18L171,22L175,22L177,20L187,21L189,20L190,27L193,27L198,25L201,25L206,30L214,32L220,28L226,25L230,22L234,23L238,27L240,32L248,40L244,45L243,51L247,49L249,52L248,57L254,63L250,64L249,71L253,78L258,93L251,96L249,98L251,102L249,110L247,110L241,110L237,117L232,117L229,113L230,106L222,94L217,96L213,97L208,98L208,91L205,86L206,80L202,72L197,66L182,66L177,69L172,70L169,74L167,79L157,87L149,76L142,69L137,66L132,63L130,54L127,50L122,47L130,38L136,38L141,35L145,35L148,32L146,26L148,24Z" fill="#E0E0E0" stroke="#fff" stroke-width=".4"/><path d="M93,21L103,18L109,19L114,17L149,18L148,24L146,26L148,32L145,35L141,35L136,38L130,38L122,47L112,39L104,38L100,32L100,29L94,25Z" fill="#E0E0E0" stroke="#fff" stroke-width=".4"/><path d="M247,110L246,116L248,125L243,133L249,138L255,139L263,147L263,155L262,157L260,172L255,172L236,164L219,149L203,139L191,127L195,121L196,116L205,105L213,97L217,96L222,94L230,106L229,113L232,117L237,117L241,110Z" fill="#E0E0E0" stroke="#fff" stroke-width=".4"/><path d="M157,87L167,79L169,74L172,70L177,69L182,66L197,66L202,72L206,80L205,86L208,91L208,98L213,97L205,105L196,116L195,121L191,127L186,126L172,118L163,108L159,101Z" fill="#E0E0E0" stroke="#fff" stroke-width=".4"/><path d="M303,60L302,49L307,41L306,34L321,18L324,5L329,1L338,3L346,-1L348,-6L363,-14L366,-20L384,-28L394,-31L399,-27L411,-27L409,-18L412,-9L422,3L423,12L444,17L444,30L440,36L430,37L427,46L420,48L404,47L395,46L389,49L381,48L349,48L348,59L351,73L338,68L329,69L323,74L315,70L311,64Z" fill="#E0E0E0" stroke="#fff" stroke-width=".4"/><path d="M913,156L907,158L895,158L881,156L874,157L871,162L865,162L858,158L837,168L828,166L826,167L820,179L807,175L793,173L781,166L766,160L756,166L749,175L747,188L735,187L722,184L711,194L701,211L699,206L699,198L690,192L683,182L682,175L673,165L674,160L673,152L674,138L678,134L688,115L703,114L707,109L710,109L714,114L738,106L746,99L755,92L754,86L759,84L777,85L794,77L808,56L817,48L829,45L831,53L842,65L842,73L839,80L840,86L846,92L861,100L871,108L871,114L883,123L891,132L896,143L910,150Z" fill="#E0E0E0" stroke="#fff" stroke-width=".4"/><path d="M747,188L746,200L740,210L737,221L734,238L735,248L732,255L732,262L730,267L717,276L709,286L701,304L701,319L697,325L686,335L675,346L668,343L667,338L657,337L650,345L645,343L638,336L633,339L625,347L610,328L624,317L617,305L623,300L636,298L638,290L647,299L664,300L670,291L672,278L670,264L661,253L669,231L665,228L651,229L645,220L647,211L670,212L685,217L700,221L701,211L711,194L722,184L735,187Z" fill="#E0E0E0" stroke="#fff" stroke-width=".4"/><path d="M613,212L622,210L634,213L644,210L647,211L645,220L651,229L665,228L669,231L661,253L670,264L672,278L670,291L664,300L647,299L638,290L636,298L623,300L617,305L624,317L610,328L591,309L579,294L567,274L568,268L572,262L576,249L580,235L586,234L613,234Z" fill="#E0E0E0" stroke="#fff" stroke-width=".4"/><path d="M583,211L613,212L613,234L586,234L580,235L577,232Z" fill="#E0E0E0" stroke="#fff" stroke-width=".4"/><path d="M975,409L983,414L991,417L1002,420L1013,426L1022,435L1027,451L1023,456L1020,471L1023,487L1017,493L1012,511L1022,516L965,532L967,546L953,548L942,556L940,563L933,564L917,580L907,593L900,593L894,591L874,589L870,588L870,586L863,582L851,580L835,585L823,573L811,557L812,496L850,496L849,489L852,482L848,473L850,464L848,458L855,459L856,465L865,464L876,466L883,474L898,477L909,471L913,481L927,484L934,492L942,502L956,502L955,482L949,485L936,478L931,475L934,456L937,433L933,425L938,413L943,411L968,407Z" fill="#E0E0E0" stroke="#fff" stroke-width=".4"/><path d="M1047,469L1061,468L1083,473L1088,471L1101,470L1107,465L1119,465L1139,458L1154,447L1157,455L1156,474L1158,491L1159,521L1162,530L1157,544L1149,557L1138,569L1121,577L1100,586L1079,607L1071,611L1058,625L1051,629L1049,643L1058,658L1062,670L1062,676L1065,675L1065,695L1062,704L1066,708L1063,716L1055,724L1040,730L1018,742L1010,749L1011,758L1016,759L1014,770L1000,770L999,761L996,752L994,744L998,721L993,707L984,678L1003,656L1008,641L1011,640L1013,628L1010,622L1011,607L1015,594L1015,569L1005,563L996,561L992,557L984,553L968,553L967,546L965,532L1022,516L1032,525L1037,524L1045,528L1046,536L1042,545L1043,559L1055,571L1061,557L1069,553L1067,528L1060,515L1053,508L1047,509L1041,484Z" fill="#E0E0E0" stroke="#fff" stroke-width=".4"/><path d="M645,343L639,347L636,351L635,360L630,362L625,347L633,339L638,336ZM633,367L640,365L646,365L652,363L707,363L712,377L717,388L722,394L729,404L741,403L747,400L757,403L760,398L765,387L776,386L777,383L787,383L785,390L808,390L808,401L812,409L809,420L811,432L817,439L816,461L820,459L828,460L840,457L848,458L850,464L848,473L852,482L849,489L850,496L812,496L811,557L823,573L835,585L801,593L756,590L743,581L668,582L665,583L654,574L642,574L631,577L622,581L620,568L623,551L629,534L630,525L636,508L641,500L651,488L657,479L659,465L658,454L653,448L648,436L643,425L644,421L650,414L644,395L640,383L631,371Z" fill="#E0E0E0" stroke="#fff" stroke-width=".4"/><path d="M970,299L971,306L976,310L976,316L971,320L964,330L957,337L949,337L948,315L944,306L955,308L961,297Z" fill="#E0E0E0" stroke="#fff" stroke-width=".4"/><path d="M93,-2L113,-2L117,-7L123,-7L130,-2L136,-2L142,-6L146,-0L138,4L130,4L122,-0L115,4L112,4L107,7L90,7Z" fill="#E0E0E0" stroke="#fff" stroke-width=".4"/><path d="M242,-277L242,-281L242,-282L242,-307L272,-323L291,-326L306,-332L313,-343L335,-351L336,-367L346,-369L355,-377L379,-381L383,-390L378,-394L371,-418L370,-432L363,-446L381,-459L401,-463L413,-472L431,-479L462,-483L493,-485L502,-482L520,-491L540,-491L548,-486L560,-487L556,-475L559,-453L555,-435L544,-422L545,-405L560,-392L561,-387L572,-378L580,-339L586,-320L587,-310L584,-292L585,-283L583,-271L584,-258L577,-250L588,-235L589,-226L595,-214L604,-218L619,-209L627,-196L563,-157L509,-118L483,-110L462,-108L462,-120L453,-123L442,-129L437,-138L375,-182L312,-226Z" fill="#E0E0E0" stroke="#fff" stroke-width=".4"/><path d="M363,-446L370,-432L371,-418L378,-394L383,-390L379,-381L355,-377L346,-369L336,-367L335,-351L313,-343L306,-332L291,-326L272,-323L242,-307L242,-282L239,-282L240,-271L228,-270L222,-266L214,-266L207,-268L192,-266L185,-250L180,-248L171,-222L145,-200L139,-172L131,-163L129,-156L87,-155L87,-155L88,-164L95,-169L101,-180L100,-187L106,-201L117,-214L123,-217L128,-229L128,-240L135,-253L147,-260L159,-282L159,-282L169,-290L186,-293L201,-307L210,-313L226,-331L221,-357L228,-376L230,-388L242,-403L261,-413L275,-422L287,-446L293,-460L307,-460L318,-450L336,-451L355,-446Z" fill="#E0E0E0" stroke="#fff" stroke-width=".4"/><path d="M1089,-166L1016,-166L943,-166L869,-166L869,-241L869,-316L863,-333L868,-346L865,-355L872,-366L896,-366L914,-361L933,-354L941,-351L956,-358L963,-364L980,-366L993,-363L998,-352L1002,-359L1017,-354L1032,-353L1041,-358L1051,-327L1053,-321L1048,-313L1044,-297L1039,-286L1035,-282L1028,-289L1020,-298L1007,-329L1005,-327L1013,-304L1024,-283L1038,-251L1045,-239L1051,-228L1068,-205L1064,-202L1065,-188L1086,-170Z" fill="#E0E0E0" stroke="#fff" stroke-width=".4"/><path d="M869,-166L869,-126L847,-126L847,-118L773,-156L699,-195L680,-184L667,-176L656,-187L627,-196L619,-209L604,-218L595,-214L589,-226L588,-235L577,-250L584,-258L583,-271L585,-283L584,-292L587,-310L586,-320L580,-339L589,-344L591,-353L589,-362L601,-370L607,-377L616,-383L617,-400L639,-393L647,-395L663,-391L687,-381L696,-362L713,-358L739,-348L759,-338L768,-343L777,-353L772,-370L778,-381L792,-391L804,-394L829,-389L836,-380L843,-379L849,-376L867,-373L872,-366L865,-355L868,-346L863,-333L869,-316L869,-241Z" fill="#E0E0E0" stroke="#fff" stroke-width=".4"/><path d="M1034,271L996,273L976,272L969,275L958,280L954,279L954,265L958,257L959,242L963,234L970,224L978,219L984,213L976,210L977,188L985,183L997,187L1012,183L1025,183L1036,174L1045,187L1047,197L1055,218L1049,232L1039,244L1034,252Z" fill="#E0E0E0" stroke="#fff" stroke-width=".4"/><path d="M969,275L977,285L976,296L970,299L961,297L955,308L944,306L945,296L948,295L949,284L954,279L958,280Z" fill="#E0E0E0" stroke="#fff" stroke-width=".4"/><path d="M977,188L961,176L956,168L946,172L937,171L932,174L924,172L913,156L910,150L896,143L891,132L883,123L871,114L871,108L861,100L848,93L854,91L860,87L865,70L870,61L883,59L887,64L896,75L901,77L908,73L921,74L924,78L942,78L943,74L953,71L955,65L962,61L977,72L987,70L996,57L1006,46L1005,35L1000,29L1011,28L1013,24L1021,25L1019,39L1021,53L1031,60L1033,67L1033,76L1035,77L1036,91L1033,97L1023,98L1017,108L1028,110L1038,119L1041,126L1049,131L1060,151L1048,163L1036,174L1025,183L1012,183L997,187L985,183Z" fill="#E0E0E0" stroke="#fff" stroke-width=".4"/></g><g clip-path="url(#v)"><path d="M402.2,45.5L403.4,46.6L403.7,47.3L403.3,49.8L402.4,51.5L401.8,53.1L402.0,53.9L402.4,54.7L404.2,55.9L405.2,56.8L406.3,58.0L407.6,59.2L409.7,60.8L410.6,61.1L410.6,61.5L410.3,62.1L410.1,68.0L409.9,69.6L409.7,70.3L409.5,72.5L409.3,72.8L408.9,72.8L408.5,72.9L408.5,73.3L408.6,73.7L409.9,74.1L409.6,74.4L408.7,74.7L408.2,75.4L408.4,76.1L407.9,76.7L408.1,77.1L408.4,77.5L408.9,77.3L410.5,76.3L411.1,76.2L411.9,76.4L413.3,77.9L413.3,78.7L412.8,81.3L412.2,83.3L412.1,86.0L412.7,87.5L412.6,88.3L411.9,89.0L410.5,90.0L410.6,90.7L411.3,92.0L412.5,93.5L415.0,95.3L416.3,97.6L416.4,98.6L415.6,99.5L414.7,100.3L414.4,101.5L414.8,109.4L412.8,112.8L412.8,113.8L413.0,114.9L413.5,115.6L414.6,115.8L415.4,116.4L415.1,118.8L414.6,121.2L414.6,122.4L414.3,123.0L413.5,123.4L413.3,124.2L413.5,125.1L413.3,125.8L413.7,126.8L414.6,127.9L416.0,130.7L416.6,130.9L416.8,131.5L416.7,132.1L417.2,133.3L418.8,134.6L420.5,135.6L421.9,135.8L422.2,136.7L423.1,138.0L423.7,138.5L424.7,138.9L425.6,139.1L425.6,140.1L424.1,140.8L423.1,141.9L422.3,143.5L421.2,145.3L417.5,146.2L416.0,146.3L408.4,146.3L401.2,149.9L397.1,151.1L394.5,153.1L391.1,154.5L388.7,156.2L383.7,157.1L375.6,159.7L373.0,160.8L370.5,162.7L366.3,164.9L364.7,164.9L361.4,162.8L358.9,161.8L352.9,160.2L348.4,159.6L346.2,158.9L345.6,158.8L346.1,158.1L347.4,158.0L348.7,158.3L349.6,157.7L351.1,157.6L351.5,157.0L351.7,155.5L351.7,154.3L352.1,153.8L352.3,152.4L351.5,149.3L351.1,148.9L348.4,148.5L348.2,147.8L347.8,147.2L347.2,145.6L346.7,143.2L345.8,140.2L344.0,135.3L343.6,133.5L343.2,131.8L343.2,129.6L343.6,128.8L343.5,127.8L343.4,126.7L344.6,124.1L347.0,121.1L347.5,120.0L348.0,119.2L348.0,118.1L348.5,114.5L349.6,110.2L350.4,108.5L350.9,107.7L351.5,106.2L351.7,105.5L353.9,103.9L354.9,103.4L355.1,102.7L354.8,102.0L354.9,101.5L355.5,101.2L356.3,101.0L356.9,100.4L355.9,95.0L355.2,89.7L355.1,89.2L354.7,88.5L354.3,86.3L353.5,85.0L352.4,84.6L352.5,83.4L353.5,81.3L353.8,80.1L353.3,79.8L353.2,78.9L353.5,77.3L353.4,76.4L353.2,75.4L352.1,73.1L351.8,71.4L352.4,70.4L352.3,68.3L351.7,65.0L351.7,63.0L352.1,62.1L351.9,61.3L351.1,60.5L351.0,59.7L351.7,59.0L351.6,58.4L350.7,58.0L350.0,57.0L349.3,55.4L349.4,52.8L350.7,48.1L350.9,47.7L352.3,47.7L352.3,47.9L356.9,47.9L362.0,47.8L368.2,47.8L373.8,47.7L374.0,47.5L375.0,47.3L380.6,47.7L384.1,47.5L385.6,47.6L386.8,48.0L389.2,47.8L390.5,47.9L391.4,49.1L391.8,49.1L392.4,48.6L393.4,48.0L394.4,47.6L395.1,46.6L395.5,45.9L396.2,46.1L397.1,46.0L397.7,45.4L397.9,44.5Z" fill="#4ECDC4" stroke="#2C3E50" stroke-width="1"/></g><circle cx="400.0" cy="150.0" r="4" fill="#E74C3C" stroke="#fff" stroke-width="2"/><text x="400.0" y="140.0" text-anchor="middle" font-family="sans-serif" font-weight="700" font-size="10" fill="#2D3436">Accra</text></svg>