<svg viewBox="0 0 800 300" xmlns="http://www.w3.org/2000/svg"><defs><clipPath id="v"><rect width="800" height="300"/></clipPath></defs><rect width="800" height="300" fill="#DCEEF8"/><g clip-path="url(#v)"><path d="M391,140L362,84L327,58L358,44L391,-7L408,-44L432,-67L467,-61L501,-77L540,-78L573,-56L619,-37L662,16L708,66L711,111L725,152L751,172L757,200L754,222L744,226L706,220L700,228L685,230L635,213L601,212L472,209L453,217L430,215L393,226L382,171L445,173L462,163L475,162L501,146L530,161L561,162L591,146L577,125L554,137L532,137L505,119L482,120L467,138Z" fill="#E0E0E0" stroke="#fff" stroke-width=".4"/><path d="M754,222L757,200L751,172L725,152L711,111L708,66L731,53L743,10L765,9L814,29L853,14L880,19L891,3L1171,2L1186,-49L1174,-58L1141,-376L1107,-702L1214,-704L1333,-621L1449,-537L1568,-456L1685,-373L1701,-338L1745,-317L1777,-305L1778,-258L1855,-265L1856,-96L1818,-48L1811,-3L1749,9L1654,15L1629,41L1584,43L1539,44L1521,30L1483,40L1418,70L1405,93L1350,125L1341,143L1312,158L1278,148L1259,166L1248,215L1193,274L1195,298L1176,328L1180,370L1151,380L1135,389L1124,359L1104,367L1092,366L1079,386L1025,386L1006,375L997,381L976,361L979,340L971,331L956,338L958,315L973,297L944,267L936,247L920,232L906,230L890,240L867,249L848,265L818,259L799,241L787,239L769,248L758,248Z" fill="#E0E0E0" stroke="#fff" stroke-width=".4"/><path d="M366,-402L381,-427L518,-428L655,-427L642,-536L659,-575L724,-581L722,-778L836,-777L951,-774L951,-892L1084,-798L1214,-704L1107,-702L1141,-376L1174,-58L1186,-49L1171,2L891,3L880,19L853,14L814,29L765,9L743,10L731,53L708,66L662,16L619,-37L573,-56L540,-78L501,-77L467,-61L432,-67L408,-44L402,-83L422,-119L430,-188L423,-261L414,-298L421,-335L403,-370Z" fill="#E0E0E0" stroke="#fff" stroke-width=".4"/><path d="M997,381L1006,375L1025,386L1079,386L1092,366L1104,367L1124,359L1135,389L1151,380L1180,370L1212,385L1224,409L1255,424L1280,406L1312,403L1360,421L1379,522L1349,581L1331,660L1361,721L1358,749L1326,749L1278,736L1233,736L1150,749L1102,769L1033,795L1019,793L1025,735L1031,726L1029,699L999,669L977,664L957,645L972,614L965,580L968,559L979,559L984,529L978,515L985,505L1011,497L993,440L977,411L983,387Z" fill="#E0E0E0" stroke="#fff" stroke-width=".4"/><path d="M601,212L635,213L685,230L700,228L706,220L744,226L754,222L758,248L769,248L787,239L799,241L818,259L848,265L867,249L890,240L906,230L920,232L936,247L944,267L973,297L958,315L956,338L971,331L979,340L976,361L997,381L983,387L977,411L993,440L1011,497L985,505L978,515L984,529L979,559L968,559L949,558L934,586L915,586L901,571L906,542L877,499L858,507L843,509L824,513L825,487L814,468L816,448L801,418L781,393L725,393L709,406L690,408L678,423L670,443L633,474L602,432L575,404L557,395L540,381L532,349L521,334L501,322L532,287L553,289L572,277L587,277L598,267L592,244L600,236Z" fill="#E0E0E0" stroke="#fff" stroke-width=".4"/><path d="M393,226L430,215L453,217L472,209L601,212L600,236L592,244L598,267L587,277L572,277L553,289L532,287L501,322L464,292L434,288L419,268L419,257L398,242Z" fill="#E0E0E0" stroke="#fff" stroke-width=".4"/><path d="M968,559L965,580L972,614L957,645L977,664L999,669L1029,699L1031,726L1025,735L1019,793L1001,793L929,760L865,707L806,668L759,623L775,600L779,580L811,542L843,509L858,507L877,499L906,542L901,571L915,586L934,586L949,558Z" fill="#E0E0E0" stroke="#fff" stroke-width=".4"/><path d="M633,474L670,443L678,423L690,408L709,406L725,393L781,393L801,418L816,448L814,468L825,487L824,513L843,509L811,542L779,580L775,600L759,623L740,618L690,589L654,552L641,526Z" fill="#E0E0E0" stroke="#fff" stroke-width=".4"/></g><g clip-path="url(#v)"><path d="M401.3,140.2L418.9,139.4L440.5,139.7L463.8,140.1L474.6,140.2L480.4,130.1L491.5,125.6L502.8,124.0L508.6,124.5L514.9,126.0L526.7,134.2L534.0,136.2L540.2,138.1L544.8,142.1L551.8,146.2L557.3,147.2L560.6,146.7L566.1,145.1L569.9,143.8L581.7,143.3L590.5,147.9L592.3,153.0L590.8,158.3L579.2,161.0L562.9,165.4L549.5,163.0L533.2,157.0L523.7,152.8L519.6,151.0L513.9,148.4L508.6,145.4L503.6,143.6L499.8,142.3L497.0,143.9L495.5,147.4L493.2,151.5L490.2,153.9L476.7,155.3L464.3,156.8L457.8,158.0L453.5,159.0L452.0,171.1L438.2,171.0L424.6,170.8L410.3,171.0L395.2,171.2L391.2,173.7L387.2,177.7L386.7,171.6L382.9,157.8L388.2,151.8L393.7,148.2L397.5,151.0L398.7,156.6L401.8,160.5L411.6,163.0L421.6,161.3L427.6,162.0L427.4,158.9L429.4,154.8L441.5,152.9L454.0,151.8L467.1,149.3L477.4,149.4L480.4,148.7L479.7,147.7L470.6,146.4L451.0,149.3L430.9,150.2L415.8,157.6L409.8,156.9L403.5,149.4Z" fill="#4ECDC4" stroke="#2C3E50" stroke-width="1"/></g><circle cx="400.0" cy="150.0" r="4" fill="#E74C3C" stroke="#fff" stroke-width="2"/><text x="400.0" y="140.0" text-anchor="middle" font-family="sans-serif" font-weight="700" font-size="10" fill="#2D3436">Banjul</text></svg>