<svg viewBox="0 0 800 300" xmlns="http://www.w3.org/2000/svg"><defs><clipPath id="v"><rect width="800" height="300"/></clipPath></defs><rect width="800" height="300" fill="#DCEEF8"/><g clip-path="url(#v)"><path d="M510,-278L510,-276L510,-271L510,-233L436,-235L437,-172L416,-169L410,-157L415,-122L327,-122L322,-114L323,-124L323,-124L374,-126L376,-135L386,-146L393,-179L424,-206L435,-237L442,-239L449,-258L468,-261L476,-258L486,-258L493,-264L507,-264L507,-278Z" fill="#E0E0E0" stroke="#fff" stroke-width=".4"/><path d="M1361,468L1365,488L1363,500L1367,513L1380,526L1392,554L1384,552L1354,556L1348,559L1341,573L1346,583L1342,610L1339,633L1345,637L1361,646L1367,642L1369,666L1352,666L1343,654L1335,644L1317,641L1312,629L1299,636L1281,633L1273,622L1259,620L1249,621L1247,614L1240,613L1229,612L1215,615L1206,615L1200,617L1201,590L1194,581L1192,567L1196,554L1191,545L1191,531L1163,531L1165,523L1154,523L1153,527L1139,528L1133,541L1130,546L1118,543L1110,546L1095,548L1087,536L1082,529L1075,516L1070,499L1004,498L996,501L989,501L980,504L977,497L983,494L983,485L987,479L995,474L1001,476L1009,468L1021,468L1022,474L1031,478L1044,464L1057,453L1063,446L1062,428L1071,406L1082,394L1096,384L1099,376L1100,368L1103,360L1102,348L1105,328L1109,314L1116,302L1117,288L1119,273L1128,261L1140,254L1158,262L1173,270L1189,272L1206,277L1212,263L1216,261L1226,264L1251,252L1260,257L1267,256L1270,251L1279,249L1295,251L1310,252L1317,250L1331,268L1341,271L1347,267L1357,269L1370,264L1375,273L1395,288L1393,314L1402,318L1395,325L1386,331L1378,343L1373,353L1372,372L1367,380L1366,397L1360,403L1359,417L1356,418L1354,431L1360,441Z" fill="#E0E0E0" stroke="#fff" stroke-width=".4"/><path d="M-491,1171L-497,1156L-487,1143L-500,1125L-518,1111L-541,1094L-549,1095L-572,1074L-586,1077L-556,1042L-531,1017L-516,1007L-497,993L-497,973L-508,959L-519,964L-515,949L-512,935L-512,921L-520,917L-528,921L-536,920L-539,910L-541,888L-545,881L-560,874L-570,879L-593,874L-592,842L-598,828L-591,823L-594,810L-587,799L-583,781L-589,766L-601,760L-603,750L-600,737L-643,736L-652,709L-645,708L-645,698L-650,692L-651,678L-664,672L-678,672L-687,665L-702,661L-711,652L-736,648L-760,628L-759,612L-761,604L-759,587L-788,590L-800,599L-820,608L-825,615L-836,616L-853,614L-866,618L-876,615L-874,580L-893,594L-912,593L-921,581L-936,580L-931,570L-943,556L-953,536L-947,532L-947,522L-933,516L-935,504L-930,496L-928,485L-903,470L-884,466L-881,462L-861,463L-851,402L-850,392L-854,379L-864,371L-864,355L-851,351L-847,353L-846,345L-859,343L-859,328L-816,329L-808,321L-802,328L-798,342L-793,339L-781,351L-764,349L-759,342L-743,337L-733,333L-731,324L-715,318L-716,313L-735,311L-738,297L-737,282L-747,276L-743,274L-727,277L-709,282L-702,277L-686,274L-661,265L-653,257L-656,250L-644,249L-639,254L-642,264L-634,268L-629,278L-635,286L-639,305L-633,316L-632,327L-618,337L-607,338L-604,334L-597,333L-587,329L-580,323L-567,325L-562,324L-550,326L-548,322L-552,317L-549,311L-540,313L-530,310L-517,315L-507,320L-500,314L-495,315L-492,321L-481,319L-473,311L-466,294L-453,274L-445,273L-439,285L-427,324L-415,328L-414,343L-431,362L-424,369L-385,372L-384,395L-367,380L-339,388L-301,402L-291,415L-294,427L-268,420L-225,432L-191,431L-158,450L-129,475L-112,481L-93,482L-85,489L-77,518L-74,532L-83,569L-94,584L-125,616L-140,641L-156,661L-162,662L-168,679L-167,722L-173,758L-175,774L-182,783L-186,815L-209,846L-213,871L-231,881L-236,896L-260,896L-296,905L-311,916L-337,923L-363,943L-382,967L-385,986L-381,1000L-386,1025L-391,1038L-406,1052L-431,1097L-451,1118L-466,1130L-476,1156Z" fill="#E0E0E0" stroke="#fff" stroke-width=".4"/><path d="M-453,274L-466,294L-473,311L-481,319L-492,321L-495,315L-500,314L-507,320L-517,315L-511,306L-509,295L-505,286L-514,272L-516,257L-504,238L-497,240L-480,246L-456,265ZM843,-911L853,-902L885,-896L874,-873L871,-849L865,-843L855,-846L856,-838L839,-819L839,-805L850,-810L857,-796L856,-786L863,-774L855,-765L861,-740L873,-736L871,-723L850,-706L806,-714L774,-704L771,-686L745,-682L720,-695L712,-689L670,-703L661,-715L673,-733L677,-796L654,-830L638,-847L604,-860L601,-885L630,-892L668,-883L661,-922L682,-907L734,-934L741,-963L760,-970L764,-958L774,-957L784,-943L800,-927L812,-929L831,-914L836,-910ZM900,-690L914,-702L918,-676L911,-653L901,-659L895,-679Z" fill="#E0E0E0" stroke="#fff" stroke-width=".4"/><path d="M330,60L321,42L309,33L319,29L330,13L335,1L343,-7L354,-5L365,-10L378,-10L388,-3L403,3L417,20L432,36L433,50L437,64L445,70L447,79L446,86L443,87L431,86L429,88L424,89L408,83L397,83L356,82L350,84L342,84L331,87L327,70L347,70L353,67L357,67L365,62L375,66L384,67L394,62L390,55L382,59L375,59L366,53L359,53L354,59Z" fill="#E0E0E0" stroke="#fff" stroke-width=".4"/><path d="M446,86L447,79L445,70L437,64L433,50L432,36L439,32L443,18L450,18L466,24L478,19L487,21L490,16L580,15L585,-1L581,-4L570,-106L560,-211L594,-211L669,-158L745,-105L750,-94L764,-87L775,-83L775,-68L800,-70L800,-16L787,-0L786,14L766,18L735,20L727,28L713,29L698,29L693,24L680,28L659,37L655,45L638,55L635,61L625,65L614,62L608,68L605,84L587,103L588,110L582,120L583,133L574,137L569,140L565,130L559,132L555,132L551,139L533,138L527,135L524,137L517,131L519,124L516,121L511,123L512,116L517,110L507,100L505,94L500,89L495,89L490,92L483,95L476,100L467,98L461,92L457,91L451,94L448,94Z" fill="#E0E0E0" stroke="#fff" stroke-width=".4"/><path d="M322,-114L327,-122L415,-122L410,-157L416,-169L437,-172L436,-235L510,-233L510,-271L594,-211L560,-211L570,-106L581,-4L585,-1L580,15L490,16L487,21L478,19L466,24L450,18L443,18L439,32L432,36L417,20L403,3L388,-3L378,-10L365,-10L354,-5L343,-7L335,1L333,-12L340,-23L342,-46L340,-69L337,-81L340,-93L334,-104Z" fill="#E0E0E0" stroke="#fff" stroke-width=".4"/><path d="M764,226L746,229L740,214L741,162L737,157L736,146L728,138L721,131L724,119L732,117L736,107L747,104L752,98L760,91L768,91L785,104L784,112L789,125L785,134L787,140L776,154L769,161L765,176L766,190Z" fill="#E0E0E0" stroke="#fff" stroke-width=".4"/><path d="M1037,-159L1042,-122L1051,-115L1051,-108L1060,-100L1055,-89L1047,-41L1046,-11L1017,11L1007,42L1017,50L1017,65L1031,66L1029,76L1022,78L1022,85L1017,86L1002,60L997,60L980,72L962,66L950,64L944,68L931,67L917,77L906,77L879,65L868,71L857,71L848,62L826,53L802,56L796,61L793,74L787,84L785,104L768,91L760,91L752,98L753,82L727,77L726,66L714,50L711,40L713,29L727,28L735,20L766,18L786,14L787,-0L800,-16L800,-70L831,-81L896,-128L973,-174L1008,-164L1021,-150Z" fill="#E0E0E0" stroke="#fff" stroke-width=".4"/><path d="M764,226L766,190L765,176L769,161L776,154L787,140L785,134L789,125L784,112L785,104L787,84L793,74L796,61L802,56L826,53L848,62L857,71L868,71L879,65L906,77L917,77L931,67L944,68L950,64L962,66L980,72L997,60L1002,60L1017,86L1022,85L1031,94L1028,98L1027,106L1008,124L1002,138L999,150L994,155L990,171L978,180L974,192L969,201L967,210L952,218L939,209L931,209L917,222L911,222L900,244L894,260L871,268L863,267L854,272L836,271L824,257L817,241L801,226L784,226Z" fill="#E0E0E0" stroke="#fff" stroke-width=".4"/><path d="M1029,76L1038,91L1039,106L1038,122L1050,142L1038,142L1032,144L1021,141L1017,152L1030,165L1040,169L1043,179L1050,194L1046,200L1035,223L1030,227L1028,245L1030,254L1028,261L1039,273L1041,281L1049,292L1059,299L1060,310L1063,316L1061,328L1043,323L1025,317L997,316L994,315L981,318L967,315L957,316L920,316L923,298L915,283L904,279L900,269L894,266L894,260L900,244L911,222L917,222L931,209L939,209L952,218L967,210L969,201L974,192L978,180L990,171L994,155L999,150L1002,138L1008,124L1027,106L1028,98L1031,94L1022,85L1022,78Z" fill="#E0E0E0" stroke="#fff" stroke-width=".4"/><path d="M724,119L721,131L728,138L736,146L737,157L741,162L740,214L746,229L728,234L723,226L717,212L715,200L720,180L714,172L712,154L712,137L703,126L705,119Z" fill="#E0E0E0" stroke="#fff" stroke-width=".4"/><path d="M705,119L703,126L712,137L712,154L714,172L720,180L715,200L717,212L723,226L728,234L693,247L680,255L660,261L640,255L641,246L631,227L637,201L647,182L641,150L638,133L638,120L677,119L687,121L694,117Z" fill="#E0E0E0" stroke="#fff" stroke-width=".4"/><path d="M524,137L527,135L533,138L551,139L555,132L559,132L565,130L569,140L574,137L583,133L593,138L597,146L607,151L615,145L625,144L641,150L647,182L637,201L631,227L641,246L640,255L630,255L614,251L600,251L573,255L558,261L536,270L531,269L533,251L535,248L535,239L525,229L518,228L511,222L516,212L514,201L515,194L519,194L520,184L518,180L520,177L529,174L523,156L518,147L520,139Z" fill="#E0E0E0" stroke="#fff" stroke-width=".4"/><path d="M331,87L342,84L350,84L356,82L397,83L397,91L394,93L396,101L393,104L388,104L382,107L375,107L365,118L353,109L344,107L339,101L339,97L332,92Z" fill="#E0E0E0" stroke="#fff" stroke-width=".4"/><path d="M515,194L514,201L516,212L511,222L518,228L525,229L535,239L535,248L533,251L531,269L525,269L502,259L482,241L463,229L448,215L453,207L454,201L465,189L475,178L480,177L486,175L495,189L493,198L498,203L504,203L509,194Z" fill="#E0E0E0" stroke="#fff" stroke-width=".4"/><path d="M407,167L419,157L422,150L426,146L432,145L437,141L455,141L461,149L466,158L466,165L469,171L469,179L475,178L465,189L454,201L453,207L448,215L442,213L426,204L414,192L410,183Z" fill="#E0E0E0" stroke="#fff" stroke-width=".4"/><path d="M583,133L582,120L588,110L587,103L605,84L608,68L614,62L625,65L635,61L638,55L655,45L659,37L680,28L693,24L698,29L713,29L711,40L714,50L726,66L727,77L753,82L752,98L747,104L736,107L732,117L724,119L705,119L694,117L687,121L677,119L638,120L638,133L641,150L625,144L615,145L607,151L597,146L593,138Z" fill="#E0E0E0" stroke="#fff" stroke-width=".4"/><path d="M1117,288L1116,302L1109,314L1105,328L1102,348L1103,360L1100,368L1099,376L1096,384L1082,394L1071,406L1062,428L1063,446L1057,453L1044,464L1031,478L1022,474L1021,468L1009,468L1001,476L995,474L987,466L980,470L971,480L953,456L970,444L961,429L969,423L984,420L986,411L998,421L1017,422L1024,412L1027,397L1025,379L1014,366L1024,340L1018,336L1002,337L995,326L997,316L1025,317L1043,323L1061,328L1063,316L1074,295L1088,283L1103,287Z" fill="#E0E0E0" stroke="#fff" stroke-width=".4"/><path d="M957,316L967,315L981,318L994,315L997,316L995,326L1002,337L1018,336L1024,340L1014,366L1025,379L1027,397L1024,412L1017,422L998,421L986,411L984,420L969,423L961,429L970,444L953,456L930,433L915,415L901,392L902,384L907,377L912,361L917,344L924,343L957,343Z" fill="#E0E0E0" stroke="#fff" stroke-width=".4"/><path d="M920,316L957,316L957,343L924,343L917,344L912,341Z" fill="#E0E0E0" stroke="#fff" stroke-width=".4"/><path d="M995,474L987,479L983,485L983,494L977,497L971,480L980,470L987,466ZM980,504L989,501L996,501L1004,498L1070,499L1075,516L1082,529L1087,536L1095,548L1110,546L1118,543L1130,546L1133,541L1139,528L1153,527L1154,523L1165,523L1163,531L1191,531L1191,545L1196,554L1192,567L1194,581L1201,590L1200,617L1206,615L1215,615L1229,612L1240,613L1242,620L1239,631L1243,642L1240,651L1242,658L1195,658L1194,732L1209,751L1224,766L1183,775L1129,772L1113,761L1022,762L1019,763L1006,753L991,752L978,756L967,760L965,746L968,725L976,704L977,694L984,673L989,664L1002,649L1009,638L1012,622L1011,609L1004,600L998,587L992,573L994,568L1000,559L994,538L989,522L978,508Z" fill="#E0E0E0" stroke="#fff" stroke-width=".4"/><path d="M330,60L354,59L359,53L366,53L375,59L382,59L390,55L394,62L384,67L375,66L365,62L357,67L353,67L347,70L327,70Z" fill="#E0E0E0" stroke="#fff" stroke-width=".4"/><path d="M510,-271L510,-276L510,-278L510,-308L546,-327L568,-331L587,-338L595,-351L621,-361L622,-381L635,-383L646,-393L675,-397L679,-407L673,-413L665,-441L664,-458L656,-475L677,-490L701,-495L715,-507L737,-515L775,-520L812,-522L823,-518L844,-529L868,-529L877,-523L893,-525L888,-510L892,-484L886,-461L873,-446L875,-426L893,-410L893,-404L907,-393L916,-346L924,-323L925,-311L921,-290L923,-279L920,-265L922,-249L913,-239L926,-221L927,-210L935,-196L945,-201L963,-189L973,-174L896,-128L831,-81L800,-70L775,-68L775,-83L764,-87L750,-94L745,-105L669,-158L594,-211Z" fill="#E0E0E0" stroke="#fff" stroke-width=".4"/><path d="M656,-475L664,-458L665,-441L673,-413L679,-407L675,-397L646,-393L635,-383L622,-381L621,-361L595,-351L587,-338L568,-331L546,-327L510,-308L510,-278L507,-278L507,-264L493,-264L486,-258L476,-258L468,-261L449,-258L442,-239L435,-237L424,-206L393,-179L386,-146L376,-135L374,-126L323,-124L323,-124L324,-136L333,-142L340,-155L338,-163L346,-180L359,-196L366,-200L372,-214L373,-227L381,-243L396,-252L410,-278L410,-278L421,-288L442,-290L460,-308L471,-315L490,-336L484,-369L493,-391L496,-405L510,-423L533,-435L549,-447L564,-475L571,-492L588,-491L601,-480L623,-482L646,-476Z" fill="#E0E0E0" stroke="#fff" stroke-width=".4"/><path d="M1264,-138L1264,-90L1238,-90L1238,-80L1149,-126L1059,-173L1037,-159L1021,-150L1008,-164L973,-174L963,-189L945,-201L935,-196L927,-210L926,-221L913,-239L922,-249L920,-265L923,-279L921,-290L925,-311L924,-323L916,-346L927,-352L929,-363L927,-374L942,-384L949,-392L960,-400L961,-420L988,-411L997,-413L1016,-409L1045,-397L1056,-374L1076,-369L1108,-358L1131,-345L1142,-352L1153,-364L1148,-384L1155,-396L1171,-409L1187,-412L1217,-407L1224,-395L1233,-395L1240,-391L1262,-387L1268,-379L1259,-366L1263,-355L1257,-339L1264,-318L1264,-228Z" fill="#E0E0E0" stroke="#fff" stroke-width=".4"/></g><g clip-path="url(#v)"><path d="M473.8,176.2L472.1,176.0L471.3,176.3L469.1,179.0L467.7,180.0L466.6,179.9L465.5,179.7L464.8,179.9L464.2,179.6L464.5,178.9L465.0,178.1L466.1,175.2L468.9,172.2L469.0,171.6L467.8,169.9L466.6,167.5L466.6,165.0L466.4,163.2L463.9,162.7L463.4,162.4L463.3,161.8L464.0,160.1L464.8,158.6L464.9,157.9L464.7,157.4L463.2,155.8L460.8,152.8L458.6,149.5L456.7,146.7L455.2,145.4L453.7,143.5L453.2,142.3L451.6,141.9L447.2,141.9L441.9,141.9L437.4,142.0L437.1,143.6L432.2,144.7L429.2,143.4L425.8,144.1L424.2,144.9L423.7,146.7L422.9,148.5L422.1,149.3L421.9,150.1L421.4,150.9L420.8,151.8L420.0,153.5L418.4,156.1L416.7,157.7L413.9,158.5L413.0,161.2L412.4,162.2L411.3,162.9L410.1,163.5L409.0,163.1L407.7,162.9L406.4,163.4L406.2,162.8L407.0,160.7L406.3,159.6L404.1,157.4L403.9,156.3L403.2,155.0L400.3,152.2L397.5,152.4L398.3,150.0L398.2,146.9L397.3,145.2L397.6,143.5L397.0,143.6L396.1,144.8L394.7,144.4L391.6,142.5L390.1,140.7L389.9,139.2L389.6,138.6L388.7,138.9L386.8,138.9L381.0,136.2L376.9,129.3L376.8,127.8L377.4,125.1L377.3,124.3L375.5,126.1L375.1,124.9L373.6,122.2L373.2,120.6L371.8,119.9L370.7,119.8L369.9,120.3L368.8,123.5L367.9,123.5L367.1,122.8L367.2,120.4L368.2,119.2L369.4,117.4L373.1,109.8L374.5,108.0L375.3,107.4L377.1,107.4L380.5,106.4L383.3,104.7L384.7,104.0L387.9,104.1L391.7,103.9L396.6,102.2L396.7,100.0L396.6,97.1L396.4,96.0L394.7,95.0L393.7,94.0L392.8,92.9L391.8,92.1L391.8,91.3L393.1,90.5L393.9,90.2L395.9,90.2L396.7,89.8L397.2,89.0L397.7,87.2L397.9,85.2L396.6,82.6L396.7,80.8L403.9,81.0L404.6,81.2L407.9,81.6L409.9,81.5L411.1,81.7L411.7,82.1L411.6,82.9L411.2,83.9L411.6,85.0L412.7,85.3L413.3,84.9L413.8,84.4L414.6,84.0L415.5,84.3L417.5,85.9L419.4,86.3L421.5,87.1L423.4,87.6L425.1,87.5L426.4,88.4L428.8,88.7L432.0,87.6L434.4,87.1L437.9,87.0L439.7,87.3L445.0,86.4L447.5,86.6L449.1,86.9L448.4,87.5L447.8,88.9L447.1,90.5L446.5,91.7L446.7,92.4L448.5,93.8L450.9,95.8L452.0,96.1L453.1,95.6L454.9,94.0L456.3,92.3L457.7,91.4L459.3,91.5L460.5,92.7L462.1,95.4L463.5,97.9L463.7,98.1L464.3,98.5L465.0,98.5L465.8,97.9L466.3,97.5L467.0,96.4L469.7,93.0L471.8,92.1L472.5,91.8L474.0,91.3L476.4,92.1L479.9,93.5L484.2,95.2L485.7,95.5L486.6,95.2L487.8,92.9L489.4,92.0L491.6,90.9L493.5,90.4L494.5,90.4L494.9,89.7L495.1,88.8L494.9,87.8L493.7,86.1L493.7,85.5L494.4,85.2L495.8,85.0L497.8,85.1L499.9,85.9L501.6,87.0L502.6,88.3L503.6,91.0L504.4,93.7L506.6,98.0L506.6,100.6L506.5,103.7L507.5,104.3L508.6,104.5L509.0,104.9L510.1,107.3L511.1,108.0L512.2,108.1L514.4,109.7L515.8,110.2L516.1,110.7L516.0,111.3L515.4,112.1L514.6,112.6L513.3,113.7L512.3,115.0L510.1,118.2L510.0,118.8L510.5,119.2L511.4,119.3L512.4,119.1L514.3,117.9L515.9,118.4L517.4,119.2L517.9,120.2L518.1,121.4L517.8,123.0L517.7,124.7L518.2,127.8L519.0,130.8L519.8,131.9L524.8,134.5L525.2,135.5L525.5,136.6L525.2,138.1L524.7,139.0L523.2,140.3L521.9,141.3L521.5,142.4L521.7,144.5L521.7,149.2L521.9,153.3L523.0,154.8L524.3,155.5L525.8,155.3L527.3,155.1L527.2,157.5L526.8,160.2L528.6,161.1L529.4,161.9L529.9,162.7L527.1,164.1L526.3,165.0L526.0,167.2L526.1,169.4L529.8,170.9L531.2,172.6L531.9,174.4L532.1,177.9L531.8,178.7L530.8,178.7L529.7,177.6L528.9,176.6L527.9,176.6L526.0,176.4L523.9,176.0L521.2,176.0L520.3,176.2L519.6,176.9L519.4,177.9L519.2,181.4L520.1,182.2L521.8,183.1L522.9,183.4L523.9,183.3L524.6,183.9L524.8,185.4L524.2,186.5L523.3,187.5L522.1,190.1L522.3,191.1L522.3,192.6L520.3,196.4L519.8,197.2L517.1,196.4L515.3,196.1L514.0,197.1L513.2,196.5L512.4,195.6L512.0,194.5L511.4,194.2L510.2,194.2L509.1,194.9L508.6,196.1L508.6,197.5L508.4,198.6L507.8,199.2L506.4,200.9L505.8,202.5L505.0,203.8L504.0,203.8L503.4,203.6L503.1,203.9L501.4,204.7L499.9,204.9L499.5,204.1L498.7,203.5L497.8,202.2L496.6,201.2L494.6,200.5L493.8,200.9L492.8,200.8L492.2,200.4L492.3,199.8L493.3,198.2L494.0,196.9L494.3,195.3L494.3,193.9L493.7,191.8L492.8,190.2L492.6,189.2L492.7,187.9L492.4,186.7L492.1,186.0L492.0,184.7L491.7,183.6L491.1,183.2L490.8,181.3L491.0,179.3L490.2,178.6L488.9,178.1L488.2,177.3L487.7,176.4L487.3,176.2L486.9,176.2L486.5,176.8L486.1,176.9L485.3,175.1L485.0,175.0L484.5,175.4L478.7,177.4L478.5,176.6L478.0,175.7L476.9,175.4L474.9,176.1Z" fill="#4ECDC4" stroke="#2C3E50" stroke-width="1"/></g><circle cx="400.0" cy="150.0" r="4" fill="#E74C3C" stroke="#fff" stroke-width="2"/><text x="400.0" y="140.0" text-anchor="middle" font-family="sans-serif" font-weight="700" font-size="10" fill="#2D3436">Conakry</text></svg>