<svg viewBox="0 0 800 300" xmlns="http://www.w3.org/2000/svg"><defs><clipPath id="v"><rect width="800" height="300"/></clipPath></defs><rect width="800" height="300" fill="#DCEEF8"/><g clip-path="url(#v)"><path d="M1835,726L1848,791L1841,827L1855,868L1895,907L1933,996L1906,989L1812,1001L1793,1009L1773,1055L1789,1086L1776,1170L1768,1241L1787,1254L1836,1282L1855,1269L1860,1346L1807,1345L1778,1306L1753,1275L1699,1265L1683,1228L1641,1251L1585,1241L1562,1208L1517,1202L1484,1203L1481,1181L1456,1179L1425,1175L1381,1186L1351,1184L1334,1191L1338,1106L1314,1080L1309,1036L1319,994L1305,967L1304,922L1219,923L1225,898L1190,898L1186,910L1143,913L1125,954L1115,971L1076,962L1053,971L1007,977L980,940L964,917L944,875L927,823L721,822L696,831L676,829L647,839L637,817L655,810L658,779L669,761L694,746L713,753L736,726L775,727L779,747L805,759L846,716L887,681L905,659L902,601L932,534L964,498L1010,464L1018,442L1020,416L1032,392L1028,352L1037,290L1050,247L1071,209L1075,167L1082,118L1109,83L1146,60L1204,84L1248,110L1299,117L1351,130L1372,88L1382,83L1414,90L1491,55L1519,70L1541,68L1552,51L1578,45L1630,52L1675,54L1698,46L1741,104L1772,112L1791,101L1823,105L1862,90L1878,120L1940,167L1936,249L1963,258L1941,283L1914,301L1888,338L1873,370L1869,426L1853,453L1852,506L1832,525L1829,567L1820,572L1813,610L1831,642Z" fill="#E0E0E0" stroke="#fff" stroke-width=".4"/><path d="M1451,-982L1455,-692L1394,-697L1363,-643L1344,-599L1359,-582L1336,-560L1344,-530L1326,-500L1319,-474L1343,-478L1358,-451L1358,-409L1384,-388L1383,-371L1339,-359L1304,-330L1253,-253L1188,-220L1120,-224L1100,-218L1107,-193L1071,-168L1041,-141L953,-114L936,-130L924,-131L911,-113L854,-108L865,-127L843,-175L833,-205L803,-217L761,-258L776,-291L808,-284L828,-289L867,-288L829,-353L831,-400L827,-448L799,-493L806,-527L761,-529L761,-575L732,-602L763,-697L852,-765L855,-861L882,-1010L897,-1042L868,-1068L867,-1092L841,-1111L824,-1228L894,-1270L1034,-1198L1173,-1125L1313,-1054Z" fill="#E0E0E0" stroke="#fff" stroke-width=".4"/><path d="M-25,-26L-83,-18L-100,-66L-97,-228L-111,-243L-114,-277L-138,-302L-159,-323L-150,-361L-126,-369L-112,-400L-78,-406L-63,-428L-39,-449L-14,-449L39,-408L36,-384L52,-342L38,-313L46,-294L12,-250L-10,-229L-23,-184L-21,-139Z" fill="#E0E0E0" stroke="#fff" stroke-width=".4"/><path d="M-25,-26L-21,-139L-23,-184L-10,-229L12,-250L46,-294L38,-313L52,-342L36,-384L39,-408L44,-471L64,-500L74,-542L92,-557L167,-566L237,-539L263,-512L299,-510L332,-528L416,-491L452,-493L493,-523L534,-521L554,-531L592,-527L646,-506L700,-546L717,-543L764,-465L777,-466L805,-438L797,-425L793,-401L735,-346L716,-301L706,-264L691,-248L677,-199L640,-170L629,-134L614,-106L607,-77L559,-53L520,-82L493,-81L452,-40L432,-39L398,29L381,78L308,104L282,100L255,116L199,114L161,70L139,20L89,-27L36,-26Z" fill="#E0E0E0" stroke="#fff" stroke-width=".4"/><path d="M799,-493L827,-448L831,-400L829,-353L867,-288L828,-289L808,-284L776,-291L761,-258L803,-217L833,-205L843,-175L865,-127L854,-108L819,-36L802,-24L797,31L804,60L798,81L831,118L837,143L863,179L895,202L898,233L905,254L900,291L845,275L788,256L700,254L691,250L650,259L608,250L574,254L461,253L471,197L444,151L412,139L398,108L380,98L381,78L398,29L432,-39L452,-40L493,-81L520,-82L559,-53L607,-77L614,-106L629,-134L640,-170L677,-199L691,-248L706,-264L716,-301L735,-346L793,-401L797,-425L805,-438L777,-466L779,-489Z" fill="#E0E0E0" stroke="#fff" stroke-width=".4"/><path d="M-150,-361L-159,-323L-138,-302L-114,-277L-111,-243L-97,-228L-100,-66L-83,-18L-139,-3L-155,-27L-173,-72L-179,-107L-163,-170L-181,-196L-187,-252L-187,-303L-216,-340L-211,-362Z" fill="#E0E0E0" stroke="#fff" stroke-width=".4"/><path d="M-211,-362L-216,-340L-187,-303L-187,-252L-181,-196L-163,-170L-179,-107L-173,-72L-155,-27L-139,-3L-249,38L-287,62L-350,83L-412,63L-409,35L-440,-25L-421,-105L-392,-164L-410,-264L-420,-318L-418,-358L-297,-361L-266,-356L-243,-368Z" fill="#E0E0E0" stroke="#fff" stroke-width=".4"/><path d="M1698,46L1675,54L1630,52L1578,45L1552,51L1541,68L1519,70L1491,55L1414,90L1382,83L1372,88L1351,130L1299,117L1248,110L1204,84L1146,60L1109,83L1082,118L1075,167L1030,163L983,152L942,189L905,254L898,233L895,202L863,179L837,143L831,118L798,81L804,60L797,31L802,-24L819,-36L854,-108L911,-113L924,-131L936,-130L953,-114L1041,-141L1071,-168L1107,-193L1100,-218L1120,-224L1188,-220L1253,-253L1304,-330L1339,-359L1383,-371L1391,-340L1431,-296L1432,-267L1420,-238L1425,-216L1449,-195L1502,-165L1540,-136L1541,-113L1588,-76L1617,-46L1635,-4L1687,24Z" fill="#E0E0E0" stroke="#fff" stroke-width=".4"/><path d="M1075,167L1071,209L1050,247L1037,290L1028,352L1032,392L1020,416L1018,442L1010,464L964,498L932,534L902,601L905,659L887,681L846,716L805,759L779,747L775,727L736,726L713,753L694,746L668,722L647,734L619,764L562,690L615,651L588,605L612,588L659,579L665,548L702,582L764,585L785,552L794,505L786,451L754,409L784,328L766,315L714,320L695,284L700,254L788,256L845,275L900,291L905,254L942,189L983,152L1030,163Z" fill="#E0E0E0" stroke="#fff" stroke-width=".4"/><path d="M574,254L608,250L650,259L691,250L700,254L695,284L714,320L766,315L784,328L754,409L786,451L794,505L785,552L764,585L702,582L665,548L659,579L612,588L588,605L615,651L562,690L490,619L444,562L401,490L403,466L419,444L436,393L450,342L473,337L575,338Z" fill="#E0E0E0" stroke="#fff" stroke-width=".4"/></g><g clip-path="url(#v)"><path d="M396.9,149.4L398.7,149.7L409.0,149.5L412.0,153.1L411.7,158.6L400.9,174.5L398.9,181.2L394.6,186.8L391.1,187.2L378.8,184.0L376.5,181.9L375.8,179.2L377.0,172.9L378.0,171.0L383.8,169.8L385.8,168.7L389.1,161.9L390.1,155.7L392.6,150.9ZM577.9,260.7L578.1,276.8L578.1,290.5L578.1,305.3L578.4,320.7L578.4,333.8L578.4,342.1L564.0,342.1L545.2,342.1L526.1,342.0L507.2,342.0L497.7,341.9L487.1,341.9L483.9,342.4L481.3,344.4L478.6,344.9L475.3,343.1L471.5,342.3L470.5,340.4L468.5,336.9L464.5,336.6L462.5,336.9L459.7,338.9L456.7,339.9L457.2,338.4L450.9,334.1L446.4,333.8L442.4,332.4L445.6,321.5L449.9,311.8L456.2,304.4L459.5,302.7L460.5,299.1L465.5,287.1L471.8,277.4L469.8,267.6L471.3,251.1L473.0,251.6L473.3,253.1L473.8,255.4L476.1,257.4L483.9,260.7L506.7,260.7L520.3,260.7L540.4,260.7L561.8,260.7Z" fill="#4ECDC4" stroke="#2C3E50" stroke-width="1"/></g><circle cx="400.0" cy="150.0" r="4" fill="#E74C3C" stroke="#fff" stroke-width="2"/><text x="400.0" y="140.0" text-anchor="middle" font-family="sans-serif" font-weight="700" font-size="10" fill="#2D3436">Malabo</text></svg>