<svg viewBox="0 0 800 300" xmlns="http://www.w3.org/2000/svg"><defs><clipPath id="v"><rect width="800" height="300"/></clipPath></defs><rect width="800" height="300" fill="#DCEEF8"/><g clip-path="url(#v)"><path d="M-40,317L-40,318L-41,321L-41,344L-85,344L-85,382L-98,383L-101,391L-98,412L-152,412L-155,417L-154,411L-154,411L-123,410L-122,404L-116,398L-111,377L-93,361L-86,342L-82,341L-78,329L-66,328L-61,330L-55,330L-51,326L-42,326L-43,317Z" fill="#E0E0E0" stroke="#fff" stroke-width=".4"/><path d="M1265,-62L1255,-48L1243,-46L1243,-26L1235,-17L1208,-23L1199,12L1192,16L1165,24L1177,57L1168,62L1169,72L1160,69L1153,63L1133,61L1111,60L1106,62L1086,55L1079,58L1077,69L1054,63L1045,66L1042,74L1034,77L1016,90L1011,103L1005,103L1002,94L984,94L982,79L975,79L976,60L960,47L936,48L920,51L908,34L896,27L875,13L873,11L838,22L838,91L831,92L822,78L813,73L797,76L791,83L790,78L794,70L791,64L775,58L769,41L762,36L761,30L775,32L775,18L787,14L799,17L801,-2L799,-14L785,-13L773,-18L758,-9L745,-5L738,-8L739,-18L731,-32L721,-31L709,-45L717,-61L713,-65L724,-88L738,-76L740,-91L768,-115L789,-115L819,-100L835,-92L849,-101L871,-101L888,-90L892,-96L911,-95L915,-106L893,-121L906,-132L903,-138L916,-143L906,-159L913,-167L964,-175L970,-181L1004,-189L1016,-199L1041,-194L1045,-170L1059,-176L1077,-168L1076,-155L1089,-156L1123,-178L1118,-171L1135,-153L1166,-97L1173,-108L1192,-96L1211,-101L1219,-97L1225,-85L1235,-81L1240,-72L1258,-75Z" fill="#E0E0E0" stroke="#fff" stroke-width=".4"/><path d="M838,91L838,22L873,11L875,13L896,27L908,34L920,51L936,48L960,47L976,60L975,79L982,79L984,94L1002,94L1005,103L1011,103L1016,90L1034,77L1042,74L1046,76L1035,87L1045,94L1055,90L1071,99L1053,112L1043,110L1037,111L1035,106L1038,97L1020,102L1016,113L1009,123L998,122L994,130L1004,134L1007,147L1000,164L989,161L982,161L982,150L964,143L950,134L941,126L925,114L919,95L914,92L899,93L894,89L893,75L874,65L863,76L851,82L854,91Z" fill="#E0E0E0" stroke="#fff" stroke-width=".4"/><path d="M411,597L401,591L396,587L395,582L398,577L398,571L390,562L388,557L388,553L383,549L383,541L380,536L376,536L377,531L381,525L379,520L383,515L381,512L384,503L390,493L402,494L401,437L402,431L417,431L417,402L472,402L525,402L579,402L583,417L580,419L582,434L587,451L592,455L600,460L593,468L583,471L578,475L577,484L571,505L573,511L570,523L565,537L557,543L551,554L550,560L543,564L539,578L539,590L539,580L537,579L537,573L536,568L529,562L527,552L529,542L523,541L522,544L513,545L517,549L518,557L510,565L504,575L497,576L485,568L480,571L479,575L472,578L471,581L458,581L456,578L446,577L441,580L437,578L430,570L428,567L418,569L414,575L411,587L406,590L402,591Z" fill="#E0E0E0" stroke="#fff" stroke-width=".4"/><path d="M401,437L402,494L390,493L384,503L381,512L383,515L379,520L381,525L377,531L376,536L380,536L383,541L383,549L388,553L388,557L380,559L373,564L363,580L350,586L337,585L333,586L335,591L327,596L322,601L305,607L301,603L299,603L296,607L285,608L287,604L283,595L281,589L275,587L267,579L270,572L276,573L280,572L288,573L280,560L281,551L280,542L274,533L276,526L267,526L267,517L261,512L267,493L285,480L285,461L291,432L294,426L288,421L288,416L283,412L279,390L293,381L347,410Z" fill="#E0E0E0" stroke="#fff" stroke-width=".4"/><path d="M1352,-1274L1382,-1293L1408,-1250L1440,-1172L1436,-1106L1406,-1097L1369,-1117L1346,-1145L1336,-1200L1317,-1216ZM1476,-1135L1510,-1094L1506,-1066L1467,-1054L1429,-1041L1454,-1131L1465,-1139ZM1965,-933L2001,-930L2050,-901L2039,-861L1989,-863L1967,-850L1940,-884L1947,-922ZM2093,-889L2127,-875L2111,-854L2089,-859L2064,-880L2067,-897ZM1979,-789L1992,-808L2009,-813L2028,-794L2030,-782L2009,-781L1981,-787ZM687,-1236L714,-1252L734,-1253L737,-1230L745,-1250L758,-1264L778,-1246L773,-1233L754,-1222L742,-1216L740,-1203L724,-1190L710,-1208L717,-1234ZM386,-174L361,-174L345,-177L348,-187L367,-195L381,-191L387,-187L385,-180ZM805,-807L837,-851L834,-875L864,-903L909,-939L954,-950L978,-972L1004,-979L1013,-956L1004,-938L956,-910L915,-884L872,-835L852,-787L831,-743L834,-707L860,-672L852,-668L807,-674L804,-692L779,-704L777,-727L791,-737L790,-761L817,-801ZM2020,-160L2025,-138L2025,-116L2030,-94L2044,-57L2024,-64L2016,-34L2029,-14L2028,0L2018,-12L2009,4L2007,-13L2008,-32L2007,-55L2010,-70L2010,-99L2003,-120L2004,-151L2016,-161L2011,-172L2017,-175ZM-2370,-603L-2370,-603L-2337,-574L-2301,-539L-2302,-517L-2293,-509L-2296,-534L-2259,-528L-2233,-497L-2246,-482L-2268,-479L-2269,-447L-2274,-441L-2287,-442L-2297,-453L-2315,-462L-2318,-476L-2332,-481L-2348,-477L-2355,-489L-2352,-501L-2368,-493L-2362,-478L-2370,-464L-2370,-464L-2370,-603ZM2525,-464L2525,-464L2507,-450L2489,-452L2502,-435L2510,-410L2516,-402L2518,-390L2514,-382L2489,-388L2451,-366L2439,-363L2418,-343L2398,-326L2393,-314L2374,-333L2338,-311L2332,-321L2319,-310L2301,-313L2296,-296L2280,-270L2281,-260L2296,-254L2294,-218L2282,-217L2276,-197L2282,-187L2258,-175L2253,-148L2233,-143L2229,-120L2209,-100L2204,-115L2198,-148L2191,-199L2197,-233L2209,-248L2209,-260L2230,-266L2255,-298L2278,-326L2303,-349L2314,-389L2297,-387L2289,-363L2254,-332L2243,-367L2208,-357L2174,-310L2185,-294L2155,-287L2134,-284L2135,-304L2114,-308L2097,-294L2055,-299L2011,-291L1967,-241L1915,-184L1936,-181L1943,-166L1956,-161L1965,-173L1979,-171L1999,-146L2000,-127L1989,-105L1988,-79L1982,-46L1961,-17L1957,-3L1938,20L1920,42L1911,53L1893,64L1884,64L1876,55L1858,68L1855,75L1855,75L1854,71L1853,62L1860,61L1862,39L1859,23L1870,16L1887,20L1896,1L1901,-21L1906,-28L1913,-47L1891,-41L1879,-33L1858,-33L1853,-52L1837,-67L1813,-73L1808,-94L1803,-107L1798,-117L1790,-139L1778,-148L1757,-154L1739,-154L1723,-150L1711,-138L1719,-133L1719,-121L1711,-114L1699,-91L1699,-81L1680,-68L1664,-76L1648,-74L1640,-81L1632,-84L1612,-69L1594,-65L1582,-60L1565,-64L1552,-63L1544,-74L1531,-84L1517,-87L1500,-84L1487,-80L1468,-89L1465,-105L1449,-111L1437,-114L1422,-123L1407,-100L1413,-87L1400,-73L1380,-78L1366,-79L1357,-89L1343,-89L1331,-95L1311,-85L1285,-67L1270,-64L1265,-62L1258,-75L1240,-72L1235,-81L1225,-85L1219,-97L1211,-101L1192,-96L1173,-108L1166,-97L1135,-153L1118,-171L1123,-178L1089,-156L1076,-155L1077,-168L1059,-176L1045,-170L1041,-194L1016,-199L1004,-189L970,-181L964,-175L913,-167L906,-159L916,-143L903,-138L906,-132L893,-121L915,-106L911,-95L892,-96L888,-90L871,-101L849,-101L835,-92L819,-100L789,-115L768,-115L740,-91L738,-76L724,-88L713,-65L717,-61L709,-45L721,-31L731,-32L739,-18L738,-8L745,-5L739,7L726,10L712,30L724,48L723,60L738,82L730,89L727,94L721,93L712,82L708,81L700,77L696,69L683,66L675,68L672,65L654,56L634,53L622,50L621,52L603,36L588,29L576,18L586,15L597,-2L590,-10L610,-18L609,-22L597,-19L597,-28L604,-33L618,-35L620,-42L617,-53L622,-64L622,-70L602,-77L594,-77L586,-87L575,-83L558,-91L558,-95L554,-104L543,-105L542,-112L545,-116L536,-129L522,-127L518,-128L515,-123L510,-124L506,-138L503,-146L506,-148L517,-147L522,-152L518,-158L509,-162L510,-166L504,-170L496,-186L498,-192L497,-203L484,-209L477,-206L475,-212L460,-218L456,-233L455,-245L448,-251L454,-259L450,-283L460,-298L458,-303L473,-318L459,-331L488,-367L501,-383L506,-399L486,-419L491,-439L479,-463L488,-491L472,-530L485,-556L464,-580L466,-607L477,-610L500,-626L514,-639L537,-616L574,-607L625,-565L636,-548L637,-524L621,-506L599,-497L539,-523L529,-519L551,-494L552,-479L552,-446L570,-436L581,-428L582,-443L574,-457L583,-469L616,-449L627,-457L618,-481L650,-513L662,-511L675,-500L683,-523L672,-544L678,-565L668,-588L706,-576L714,-556L697,-551L697,-532L708,-520L729,-527L732,-550L760,-567L808,-599L818,-597L805,-574L821,-571L831,-583L857,-584L877,-600L892,-577L908,-602L894,-624L901,-637L941,-625L960,-613L1009,-570L1018,-590L1004,-610L1004,-618L987,-622L992,-640L985,-672L984,-685L1009,-724L1018,-764L1028,-774L1064,-761L1067,-736L1054,-701L1063,-687L1067,-659L1064,-605L1079,-582L1073,-558L1046,-508L1062,-503L1067,-515L1082,-524L1086,-541L1098,-558L1090,-579L1096,-604L1081,-607L1078,-628L1089,-668L1071,-703L1096,-732L1092,-764L1099,-765L1106,-740L1101,-698L1116,-690L1109,-721L1132,-738L1160,-741L1185,-716L1173,-753L1172,-802L1196,-812L1228,-810L1258,-817L1247,-843L1262,-877L1278,-878L1305,-905L1340,-912L1345,-928L1381,-933L1392,-920L1422,-950L1447,-949L1451,-975L1464,-1001L1496,-1026L1519,-1006L1501,-991L1532,-982L1535,-952L1548,-967L1588,-966L1618,-937L1629,-916L1626,-888L1611,-872L1575,-843L1565,-829L1582,-822L1602,-809L1614,-819L1621,-788L1627,-800L1649,-807L1692,-800L1696,-777L1752,-770L1753,-807L1782,-798L1804,-798L1826,-774L1832,-744L1824,-726L1841,-692L1862,-675L1875,-719L1897,-700L1920,-711L1947,-698L1957,-710L1979,-704L1969,-745L1987,-765L2050,-752L2110,-735L2122,-709L2157,-677L2212,-685L2239,-678L2250,-661L2249,-632L2266,-621L2284,-629L2308,-630L2334,-622L2359,-627L2383,-593L2400,-605L2389,-629L2395,-647L2438,-636L2467,-638L2506,-619L2525,-603L2525,-464ZM2525,-677L2510,-675L2507,-688L2525,-706L2525,-677ZM-2370,-706L-2370,-706L-2370,-706L-2368,-707L-2357,-707L-2337,-695L-2338,-689L-2352,-679L-2370,-677L-2370,-677L-2370,-706ZM532,4L536,-1L545,3L550,4L551,8L553,8L553,10L560,14L574,13L571,20L556,24L538,35L530,31L533,22L519,16L521,12L534,6Z" fill="#E0E0E0" stroke="#fff" stroke-width=".4"/><path d="M-625,652L-633,665L-637,675L-642,680L-649,681L-651,677L-654,677L-658,680L-664,678L-660,672L-659,666L-657,660L-662,652L-663,642L-656,631L-652,632L-642,635L-627,647ZM161,-67L168,-62L187,-58L181,-44L179,-29L175,-26L169,-28L169,-23L159,-11L159,-2L166,-5L170,3L170,9L174,16L169,22L173,37L180,39L178,47L166,58L139,53L120,59L118,70L102,72L87,64L82,68L57,60L51,52L59,41L61,3L47,-18L37,-28L16,-36L15,-51L33,-55L55,-50L51,-74L64,-65L96,-81L100,-99L112,-103L114,-95L120,-95L126,-86L136,-76L143,-78L155,-68L158,-67ZM196,67L205,60L207,76L203,90L197,86L194,74Z" fill="#E0E0E0" stroke="#fff" stroke-width=".4"/><path d="M-150,522L-155,511L-162,506L-156,504L-150,494L-146,487L-142,482L-135,483L-128,480L-121,480L-114,484L-105,488L-97,498L-88,508L-87,517L-85,525L-80,529L-79,534L-79,538L-81,539L-89,538L-90,540L-93,540L-102,537L-109,536L-134,536L-138,537L-142,537L-149,539L-152,529L-139,529L-136,527L-134,527L-128,524L-123,527L-117,527L-111,524L-114,520L-118,522L-122,522L-128,518L-132,519L-135,522Z" fill="#E0E0E0" stroke="#fff" stroke-width=".4"/><path d="M-79,538L-79,534L-80,529L-85,525L-87,517L-88,508L-84,505L-81,497L-77,497L-67,501L-60,498L-55,499L-52,496L2,496L5,486L3,484L-4,422L-10,358L10,358L56,391L102,422L105,429L114,433L120,436L120,445L135,444L135,476L128,486L127,495L115,497L96,498L91,503L82,504L74,504L70,501L63,503L50,509L48,513L37,520L35,523L29,526L23,524L19,528L17,537L6,549L7,553L3,559L4,567L-2,569L-5,571L-7,565L-11,567L-13,566L-16,570L-26,570L-30,568L-32,569L-36,565L-35,561L-37,560L-40,561L-39,557L-37,553L-42,547L-44,543L-47,540L-49,540L-53,542L-57,544L-61,547L-67,546L-70,542L-73,542L-76,544L-78,544Z" fill="#E0E0E0" stroke="#fff" stroke-width=".4"/><path d="M-155,417L-152,412L-98,412L-101,391L-98,383L-85,382L-85,344L-41,344L-41,321L10,358L-10,358L-4,422L3,484L5,486L2,496L-52,496L-55,499L-60,498L-67,501L-77,497L-81,497L-84,505L-88,508L-97,498L-105,488L-114,484L-121,480L-128,480L-135,483L-142,482L-146,487L-148,479L-144,472L-142,459L-144,444L-145,437L-144,430L-147,423Z" fill="#E0E0E0" stroke="#fff" stroke-width=".4"/><path d="M279,390L283,412L288,416L288,421L294,426L291,432L285,461L285,480L267,493L261,512L267,517L267,526L276,526L274,533L271,533L270,538L268,538L258,523L255,522L245,530L234,526L227,525L223,527L215,527L207,533L200,533L183,526L177,529L170,529L165,524L151,519L137,520L133,523L131,531L127,537L126,549L116,541L111,541L107,545L107,536L91,533L91,526L83,517L81,510L82,504L91,503L96,498L115,497L127,495L128,486L135,476L135,444L155,437L194,409L241,381L262,387L270,395Z" fill="#E0E0E0" stroke="#fff" stroke-width=".4"/><path d="M563,238L561,243L556,241L553,251L556,253L553,255L552,260L559,258L559,264L552,289L551,285L543,262L547,257L546,256L550,248L553,236L555,232L555,232L560,232L561,229L564,229L565,235L563,238Z" fill="#E0E0E0" stroke="#fff" stroke-width=".4"/><path d="M564,229L561,229L560,232L555,232L560,218L567,207L567,206L573,207L575,214L568,220Z" fill="#E0E0E0" stroke="#fff" stroke-width=".4"/><path d="M559,258L552,260L553,255L556,253L553,251L556,241L561,243L561,253Z" fill="#E0E0E0" stroke="#fff" stroke-width=".4"/><path d="M206,276L200,248L192,241L192,237L181,228L180,215L188,206L191,192L189,176L192,168L207,161L216,163L216,171L227,165L228,168L221,177L221,185L226,189L224,203L215,211L218,220L225,221L228,228L234,231L233,243L226,248L222,253L213,259L214,266L213,273Z" fill="#E0E0E0" stroke="#fff" stroke-width=".4"/><path d="M-41,321L-40,318L-40,317L-41,299L-19,288L-5,285L6,281L11,273L27,267L28,255L36,254L42,248L60,245L62,239L58,235L54,218L53,208L48,198L61,188L76,186L84,179L97,173L120,170L143,169L150,172L163,165L177,165L183,169L192,168L189,176L191,192L188,206L180,215L181,228L192,237L192,241L200,248L206,276L211,290L211,297L209,310L210,317L208,325L209,335L204,341L212,352L213,359L217,367L224,364L235,371L241,381L194,409L155,437L135,444L120,445L120,436L114,433L105,429L102,422L56,391L10,358Z" fill="#E0E0E0" stroke="#fff" stroke-width=".4"/><path d="M561,243L563,238L578,244L605,227L610,247L608,249L580,257L594,273L590,276L587,281L577,283L574,289L568,294L553,291L552,289L559,264L559,258L561,253Z" fill="#E0E0E0" stroke="#fff" stroke-width=".4"/><path d="M779,369L781,368L782,372L792,370L803,370L812,371L821,361L831,351L840,342L842,347L844,359L837,359L836,369L839,371L832,374L832,380L828,386L828,392L825,395L784,387L779,372Z" fill="#E0E0E0" stroke="#fff" stroke-width=".4"/><path d="M768,361L767,350L771,343L775,341L779,346L779,354L776,363L772,364Z" fill="#E0E0E0" stroke="#fff" stroke-width=".4"/><path d="M730,281L732,288L731,292L736,304L726,304L723,297L711,295L720,280Z" fill="#E0E0E0" stroke="#fff" stroke-width=".4"/><path d="M610,247L605,227L635,210L640,190L639,178L646,173L653,163L659,160L675,162L680,167L686,164L695,184L704,189L705,199L698,205L695,217L704,233L721,242L728,254L726,266L730,266L730,274L738,282L730,281L720,280L711,295L685,294L647,262L627,251Z" fill="#E0E0E0" stroke="#fff" stroke-width=".4"/><path d="M828,392L828,386L832,380L832,374L839,371L836,369L837,359L844,359L850,369L858,374L868,376L876,379L882,388L886,393L891,394L890,398L886,406L883,411L878,415L873,425L866,424L864,428L861,435L863,445L862,447L856,447L847,452L846,459L843,462L834,462L829,465L829,471L822,475L815,474L806,479L799,479L795,469L784,446L825,431L834,402ZM842,347L840,342L844,337L845,338L844,344Z" fill="#E0E0E0" stroke="#fff" stroke-width=".4"/><path d="M1136,192L1123,206L1107,209L1087,205L1080,212L1085,226L1090,237L1101,245L1089,254L1089,266L1076,281L1067,297L1053,313L1037,312L1022,328L1031,335L1033,347L1041,355L1043,367L1013,367L1004,377L994,373L990,363L980,351L955,354L933,354L913,357L919,339L938,331L937,324L931,322L930,308L917,301L912,292L905,284L928,292L941,289L950,291L952,288L962,289L979,283L980,269L987,260L998,260L999,256L1009,254L1015,255L1020,251L1019,241L1025,232L1034,227L1028,217L1041,217L1045,211L1044,205L1051,198L1049,190L1046,182L1054,175L1069,172L1084,170L1091,166L1099,165L1109,172L1113,185Z" fill="#E0E0E0" stroke="#fff" stroke-width=".4"/><path d="M982,161L989,161L1000,164L1004,166L1014,161L1018,164L1023,156L1031,157L1033,154L1034,147L1040,141L1047,145L1046,150L1050,151L1049,166L1054,171L1059,168L1065,166L1073,158L1083,160L1097,160L1099,165L1091,166L1084,170L1069,172L1054,175L1046,182L1049,190L1051,198L1044,205L1045,211L1041,217L1028,217L1034,227L1025,232L1019,241L1020,251L1015,255L1009,254L999,256L998,260L987,260L980,269L979,283L962,289L952,288L950,291L941,289L928,292L905,284L917,269L916,259L906,257L905,246L900,234L906,225L900,222L904,210L910,190L923,196L934,194L937,186L947,184L955,178L958,165L969,162L971,155L978,160Z" fill="#E0E0E0" stroke="#fff" stroke-width=".4"/><path d="M1000,164L1007,147L1004,134L994,130L998,122L1009,123L1016,113L1020,102L1038,97L1035,106L1037,111L1043,110L1038,116L1023,113L1022,123L1037,122L1053,127L1079,125L1083,141L1087,139L1095,143L1095,150L1097,160L1083,160L1073,158L1065,166L1059,168L1054,171L1049,166L1050,151L1046,150L1047,145L1040,141L1034,147L1033,154L1031,157L1023,156L1018,164L1014,161L1004,166Z" fill="#E0E0E0" stroke="#fff" stroke-width=".4"/><path d="M791,83L797,76L813,73L822,78L831,92L838,91L854,91L851,82L863,76L874,65L893,75L894,89L899,93L914,92L919,95L925,114L941,126L950,134L964,143L982,150L982,161L978,160L971,155L969,162L958,165L955,178L947,184L937,186L934,194L923,196L910,190L908,175L898,175L883,160L872,158L857,149L847,148L841,151L832,150L822,160L811,163L808,151L810,133L799,127L803,115L794,114L797,99L810,103L822,98L812,87L808,76L797,81L795,94Z" fill="#E0E0E0" stroke="#fff" stroke-width=".4"/><path d="M738,282L730,274L730,266L726,266L728,254L721,242L704,233L695,217L698,205L705,199L704,189L695,184L686,164L679,150L681,145L677,125L686,120L689,126L695,134L705,137L710,136L726,123L731,122L735,127L730,136L739,145L742,144L746,157L759,160L769,169L788,172L809,167L811,163L822,160L832,150L841,151L847,148L857,149L872,158L883,160L898,175L908,175L910,190L904,210L900,222L906,225L900,234L905,246L906,257L916,259L917,269L905,284L912,292L917,301L930,308L931,322L937,324L938,331L919,339L913,357L888,352L873,349L858,347L852,328L845,325L835,328L821,335L805,330L791,319L778,314L769,300L759,279L751,281L743,276Z" fill="#E0E0E0" stroke="#fff" stroke-width=".4"/><path d="M563,238L563,238L565,235L564,229L568,220L575,214L573,207L567,206L566,194L569,187L572,183L576,179L577,170L581,173L596,168L604,172L615,172L630,165L638,166L653,163L646,173L639,178L640,190L635,210L605,227L578,244Z" fill="#E0E0E0" stroke="#fff" stroke-width=".4"/><path d="M710,136L705,137L699,127L699,124L693,124L689,119L686,120L681,115L671,110L672,101L670,95L689,92L692,97L697,100L694,105L701,111L697,116L703,121L709,124Z" fill="#E0E0E0" stroke="#fff" stroke-width=".4"/><path d="M227,-286L233,-302L245,-320L249,-353L240,-367L240,-406L248,-435L262,-434L267,-447L262,-458L283,-504L296,-542L305,-568L318,-567L322,-588L348,-582L350,-607L358,-608L376,-590L397,-565L398,-511L402,-498L379,-488L366,-465L368,-446L346,-421L320,-395L310,-354L320,-334L333,-319L320,-289L306,-283L301,-240L293,-217L277,-219L269,-200L253,-199L249,-222L238,-250Z" fill="#E0E0E0" stroke="#fff" stroke-width=".4"/><path d="M460,-218L475,-212L477,-206L484,-209L497,-203L498,-192L496,-186L504,-170L510,-166L509,-162L518,-158L522,-152L517,-147L506,-148L503,-146L506,-138L510,-124L498,-122L494,-118L493,-107L487,-109L475,-108L472,-113L466,-109L461,-112L451,-113L435,-118L422,-120L411,-119L404,-113L397,-112L397,-122L393,-132L401,-137L401,-146L397,-155L397,-165L410,-165L425,-173L428,-187L439,-194L438,-205L446,-209Z" fill="#E0E0E0" stroke="#fff" stroke-width=".4"/><path d="M510,-124L515,-123L518,-128L522,-127L536,-129L545,-116L542,-112L543,-105L554,-104L558,-95L558,-91L575,-83L586,-87L594,-77L602,-77L622,-70L622,-64L617,-53L620,-42L618,-35L604,-33L597,-28L597,-19L586,-17L577,-11L564,-10L553,-2L553,8L551,8L550,4L545,3L536,-1L532,4L530,1L509,-4L508,-11L495,-8L490,2L480,17L474,13L467,17L461,13L465,11L467,4L471,-2L470,-6L473,-7L474,-4L482,-4L486,-5L483,-7L484,-10L479,-15L477,-24L472,-27L473,-34L467,-39L462,-40L452,-46L443,-44L439,-41L434,-41L430,-37L420,-35L415,-32L409,-37L400,-37L392,-39L386,-34L385,-40L378,-46L380,-54L384,-59L387,-58L384,-67L396,-85L403,-87L404,-93L397,-112L404,-113L411,-119L422,-120L435,-118L451,-113L461,-112L466,-109L472,-113L475,-108L487,-109L493,-107L494,-118L498,-122Z" fill="#E0E0E0" stroke="#fff" stroke-width=".4"/><path d="M397,-165L397,-155L401,-146L401,-137L393,-132L397,-122L397,-112L404,-93L403,-87L396,-85L384,-67L387,-58L384,-59L371,-67L361,-64L355,-66L347,-62L340,-69L334,-66L334,-68L327,-78L317,-79L316,-86L307,-88L305,-83L297,-87L298,-93L288,-95L282,-102L276,-116L277,-124L274,-135L269,-143L272,-150L269,-161L279,-168L300,-179L317,-187L331,-183L332,-177L345,-177L361,-174L386,-174L393,-172Z" fill="#E0E0E0" stroke="#fff" stroke-width=".4"/><path d="M308,-39L307,-31L300,-31L302,-27L298,-14L295,-10L283,-10L276,-6L265,-7L246,-12L243,-19L229,-16L228,-12L219,-15L212,-15L206,-19L208,-24L208,-27L212,-28L219,-23L221,-28L233,-27L242,-31L249,-30L253,-26L254,-30L253,-43L257,-45L262,-55L272,-48L280,-57L285,-58L295,-52L302,-53L308,-49L307,-47Z" fill="#E0E0E0" stroke="#fff" stroke-width=".4"/><path d="M378,-46L385,-40L386,-34L378,-30L371,-17L363,-3L352,0L344,-0L333,5L328,8L317,4L307,-4L303,-7L300,-14L298,-14L302,-27L300,-31L307,-31L308,-39L315,-34L320,-32L332,-34L333,-39L338,-39L345,-42L346,-41L353,-44L356,-48L360,-50L375,-43Z" fill="#E0E0E0" stroke="#fff" stroke-width=".4"/><path d="M439,-41L443,-44L452,-46L462,-40L467,-39L473,-34L472,-27L477,-24L479,-15L484,-10L483,-7L486,-5L482,-4L474,-4L473,-7L470,-6L471,-2L467,4L465,11L461,13L459,4L460,-4L460,-13L452,-25L448,-33L443,-39Z" fill="#E0E0E0" stroke="#fff" stroke-width=".4"/><path d="M461,13L467,17L474,13L480,17L480,22L474,26L469,24L466,47L458,45L448,38L432,43L425,47L405,46L395,43L389,45L385,37L383,34L386,30L383,28L378,32L371,27L369,19L361,14L360,8L352,0L363,-3L371,-17L378,-30L386,-34L392,-39L400,-37L409,-37L415,-32L420,-35L430,-37L434,-41L439,-41L443,-39L448,-33L452,-25L460,-13L460,-4L459,4Z" fill="#E0E0E0" stroke="#fff" stroke-width=".4"/><path d="M438,-205L439,-194L428,-187L425,-173L410,-165L397,-165L393,-172L386,-174L385,-180L387,-187L381,-191L367,-195L364,-215L379,-222L402,-221L415,-223L417,-218L425,-217Z" fill="#E0E0E0" stroke="#fff" stroke-width=".4"/><path d="M269,-161L272,-150L269,-143L274,-135L277,-124L276,-116L282,-102L275,-100L272,-102L268,-98L259,-94L254,-89L244,-84L246,-78L248,-69L255,-64L262,-55L257,-45L253,-43L254,-30L253,-26L249,-30L242,-31L233,-27L221,-28L219,-23L212,-28L208,-27L193,-33L190,-29L179,-29L181,-44L187,-58L168,-62L161,-67L162,-76L160,-81L161,-96L159,-118L167,-118L170,-127L174,-147L171,-155L174,-160L185,-161L188,-156L197,-167L194,-176L193,-189L204,-186L212,-190L212,-181L226,-175L226,-167L240,-171L248,-178L263,-169Z" fill="#E0E0E0" stroke="#fff" stroke-width=".4"/><path d="M385,37L389,45L395,43L405,46L425,47L432,43L448,38L458,45L466,47L459,55L454,68L458,78L446,76L432,82L432,91L420,93L410,86L400,91L389,91L388,79L382,73L384,70L382,68L385,62L390,56L383,48L382,41Z" fill="#E0E0E0" stroke="#fff" stroke-width=".4"/><path d="M686,164L680,167L675,162L659,160L653,163L638,166L630,165L615,172L604,172L596,168L581,173L577,170L576,179L572,183L569,187L564,179L569,173L561,174L549,170L540,180L519,182L508,173L494,172L491,179L481,181L468,172L453,173L445,156L435,146L442,133L433,124L448,107L469,106L475,93L501,95L517,83L533,78L555,78L579,91L599,98L615,95L626,97L642,87L657,86L670,95L672,101L671,110L681,115L686,120L677,125L681,145L679,150ZM432,82L446,76L458,78L460,86L472,91L469,96L453,97L447,102L436,112L431,104L432,100L435,98L439,87Z" fill="#E0E0E0" stroke="#fff" stroke-width=".4"/><path d="M363,100L363,104L358,107L358,113L351,121L349,120L349,116L341,110L340,102L341,89L343,84L341,81L340,75L346,66L347,69L350,68L353,73L356,75L357,81L356,87L358,95Z" fill="#E0E0E0" stroke="#fff" stroke-width=".4"/><path d="M303,-7L307,-4L317,4L328,8L333,5L337,12L341,18L336,25L330,21L320,21L309,18L302,18L299,22L294,18L291,26L298,35L301,41L307,48L313,52L318,60L330,67L328,70L315,63L308,56L295,51L284,37L286,35L280,27L280,21L271,18L267,26L263,20L263,13L264,13L273,13L276,10L280,13L286,14L286,8L290,6L292,-2Z" fill="#E0E0E0" stroke="#fff" stroke-width=".4"/><path d="M208,-27L208,-24L206,-19L212,-15L219,-15L218,-7L212,-3L202,-6L199,2L193,3L190,-0L183,6L176,7L170,3L166,-5L159,-2L159,-11L169,-23L169,-28L175,-26L179,-29L190,-29L193,-33Z" fill="#E0E0E0" stroke="#fff" stroke-width=".4"/><path d="M160,-81L162,-76L161,-67L158,-67L155,-68L156,-80Z" fill="#E0E0E0" stroke="#fff" stroke-width=".4"/><path d="M161,-96L160,-81L156,-80L155,-68L143,-78L136,-76L126,-86L120,-95L114,-95L112,-103L122,-107L132,-106L145,-110L154,-101Z" fill="#E0E0E0" stroke="#fff" stroke-width=".4"/><path d="M171,-155L174,-147L170,-127L167,-118L159,-118L161,-96L154,-101L145,-110L132,-106L122,-107L129,-113L141,-146L160,-156Z" fill="#E0E0E0" stroke="#fff" stroke-width=".4"/><path d="M-45,81L-41,76L-35,73L-32,82L-24,82L-21,80L-13,81L-9,90L-16,95L-16,109L-18,111L-19,120L-25,121L-19,132L-23,143L-18,148L-20,153L-25,159L-24,165L-29,170L-37,167L-44,169L-42,156L-43,145L-49,143L-52,137L-51,125L-46,119L-45,112L-42,101L-42,93L-45,87Z" fill="#E0E0E0" stroke="#fff" stroke-width=".4"/><path d="M-24,165L-25,159L-20,153L-18,148L-23,143L-19,132L-25,121L-19,120L-18,111L-16,109L-16,95L-9,90L-13,81L-21,80L-24,82L-32,82L-35,73L-41,76L-45,81L-45,68L-50,60L-31,46L-14,50L4,49L18,53L30,52L51,52L57,60L82,68L87,64L102,72L118,70L119,81L106,93L88,97L87,103L79,112L74,127L79,137L71,145L68,156L58,159L48,172L31,173L18,172L9,178L4,185L-2,183L-7,178L-11,168Z" fill="#E0E0E0" stroke="#fff" stroke-width=".4"/><path d="M-7,-164L-5,-147L-15,-127L-39,-114L-58,-118L-47,-141L-54,-164L-36,-182L-26,-193L-23,-181L-26,-168L-17,-168Z" fill="#E0E0E0" stroke="#fff" stroke-width=".4"/><path d="M219,-15L228,-12L229,-16L243,-19L246,-12L265,-7L264,3L267,11L256,8L245,15L246,25L244,30L249,40L261,49L268,65L283,79L294,79L297,83L293,87L306,94L316,99L327,108L329,112L326,118L319,110L307,107L301,118L311,125L309,134L304,135L296,150L291,151L291,146L293,137L296,133L291,123L287,114L281,112L277,104L269,101L263,93L253,92L242,84L230,72L220,61L216,43L209,41L198,35L192,37L184,46L178,47L180,39L173,37L169,22L174,16L170,9L170,3L176,7L183,6L190,-0L193,3L199,2L202,-6L212,-3L218,-7ZM278,147L288,146L284,159L286,165L283,173L272,167L265,165L246,156L248,147L264,149ZM196,99L203,93L211,106L209,129L203,128L197,134L192,129L191,108L188,98Z" fill="#E0E0E0" stroke="#fff" stroke-width=".4"/><path d="M212,-190L204,-186L193,-189L188,-203L187,-227L190,-234L194,-242L205,-243L210,-250L221,-257L221,-244L217,-236L218,-229L226,-225L222,-216L218,-219L209,-201ZM246,-217L250,-205L242,-185L228,-199L226,-209Z" fill="#E0E0E0" stroke="#fff" stroke-width=".4"/><path d="M-7,-164L-17,-168L-26,-168L-23,-181L-26,-193L-14,-194L0,-180ZM35,-153L35,-153L37,-166L28,-181L28,-181L12,-185L8,-192L13,-202L9,-209L1,-198L1,-221L-6,-233L-1,-259L9,-280L20,-278L37,-281L22,-253L36,-256L51,-256L47,-236L35,-214L49,-212L50,-209L62,-181L72,-178L80,-151L84,-142L100,-138L99,-124L92,-117L97,-106L85,-95L67,-95L44,-89L37,-93L28,-83L16,-86L6,-78L-1,-82L19,-104L31,-109L31,-109L10,-113L6,-121L20,-128L13,-140L15,-155Z" fill="#E0E0E0" stroke="#fff" stroke-width=".4"/><path d="M708,81L712,82L721,93L727,94L730,89L738,82L745,92L752,104L758,105L762,110L751,112L749,125L747,131L742,135L742,144L739,145L730,136L735,127L731,122L726,123L710,136L709,124L703,121L697,116L701,111L694,105L697,100L692,97L689,92L692,89L702,95L710,96L711,93L705,84ZM705,137L695,134L689,126L686,120L689,119L693,124L699,124L699,127Z" fill="#E0E0E0" stroke="#fff" stroke-width=".4"/><path d="M621,52L622,50L634,53L654,56L672,65L675,68L683,66L696,69L700,77L708,81L705,84L711,93L710,96L702,95L692,89L689,92L670,95L657,86L642,87L644,79L641,67L633,60L626,58Z" fill="#E0E0E0" stroke="#fff" stroke-width=".4"/><path d="M265,-7L276,-6L283,-10L295,-10L298,-14L300,-14L303,-7L292,-2L290,6L286,8L286,14L280,13L276,10L273,13L264,13L267,11L264,3Z" fill="#E0E0E0" stroke="#fff" stroke-width=".4"/><path d="M384,-59L380,-54L378,-46L375,-43L360,-50L356,-48L353,-44L346,-41L345,-42L338,-39L333,-39L332,-34L320,-32L315,-34L308,-39L307,-47L308,-49L310,-54L316,-53L321,-55L321,-57L324,-58L324,-63L328,-64L330,-68L334,-68L334,-66L340,-69L347,-62L355,-66L361,-64L371,-67Z" fill="#E0E0E0" stroke="#fff" stroke-width=".4"/><path d="M282,-102L288,-95L298,-93L297,-87L305,-83L307,-88L316,-86L317,-79L327,-78L334,-68L330,-68L328,-64L324,-63L324,-58L321,-57L321,-55L316,-53L310,-54L308,-49L302,-53L295,-52L285,-58L280,-57L272,-48L262,-55L255,-64L248,-69L246,-78L244,-84L254,-89L259,-94L268,-98L272,-102L275,-100Z" fill="#E0E0E0" stroke="#fff" stroke-width=".4"/><path d="M573,511L571,505L577,484L578,475L583,471L593,468L600,460L607,477L611,490L619,497L637,510L645,518L652,526L656,531L663,535L659,538L653,537L649,533L643,524L637,520L633,515L622,509L612,509L609,506L601,510L593,503L588,514Z" fill="#E0E0E0" stroke="#fff" stroke-width=".4"/><path d="M784,446L795,469L799,479L790,483L787,489L787,494L773,500L751,507L739,517L733,517L729,517L721,522L713,525L701,526L698,527L695,530L691,531L689,535L682,535L678,536L669,536L665,528L665,520L663,516L661,505L657,500L659,499L658,493L660,490L659,484L665,479L664,473L667,466L673,470L676,469L692,468L695,470L708,471L713,470L716,475L723,473L732,458L745,451Z" fill="#E0E0E0" stroke="#fff" stroke-width=".4"/><path d="M553,291L568,294L574,289L577,283L587,281L590,276L594,273L580,257L608,249L610,247L627,251L647,262L685,294L711,295L723,297L726,304L736,304L741,317L748,320L750,326L759,332L760,338L759,344L760,349L764,353L766,358L768,361L772,364L776,363L779,369L779,372L784,387L825,395L828,392L834,402L825,431L784,446L745,451L732,458L723,473L716,475L713,470L708,471L695,470L692,468L676,469L673,470L667,466L664,473L665,479L659,484L657,478L653,473L652,468L645,462L638,450L634,439L625,429L618,426L609,413L608,402L609,394L601,377L594,372L587,368L583,360L583,356L579,349L576,345L570,334L562,322L555,311L548,311L550,303L551,297Z" fill="#E0E0E0" stroke="#fff" stroke-width=".4"/><path d="M522,198L523,198L525,194L535,194L547,189L538,196L539,199L538,199L535,200L533,200L532,200L532,199L531,198L529,198L525,199Z" fill="#E0E0E0" stroke="#fff" stroke-width=".4"/><path d="M522,198L525,199L529,198L531,198L532,199L532,200L533,200L535,200L538,199L539,199L540,201L526,208L519,205L516,199Z" fill="#E0E0E0" stroke="#fff" stroke-width=".4"/><path d="M48,198L53,208L54,218L58,235L62,239L60,245L42,248L36,254L28,255L27,267L11,273L6,281L-5,285L-19,288L-41,299L-40,317L-43,317L-42,326L-51,326L-55,330L-61,330L-66,328L-78,329L-82,341L-86,342L-93,361L-111,377L-116,398L-122,404L-123,410L-154,411L-154,411L-153,404L-148,400L-144,392L-145,387L-140,377L-132,367L-128,365L-124,356L-124,348L-119,339L-110,333L-101,318L-101,317L-94,312L-82,310L-71,299L-64,295L-53,282L-56,262L-51,249L-49,240L-40,229L-27,222L-17,215L-8,198L-3,188L7,188L15,195L28,194L42,197Z" fill="#E0E0E0" stroke="#fff" stroke-width=".4"/><path d="M579,402L525,402L472,402L417,402L417,347L417,293L413,280L417,271L415,264L420,256L438,256L451,260L464,265L470,267L481,262L487,258L499,256L508,258L512,266L515,261L526,265L537,266L543,262L551,285L552,289L548,295L545,307L542,315L539,318L534,313L528,306L518,283L517,285L522,301L531,317L541,341L546,349L550,357L563,374L560,376L560,386L576,399Z" fill="#E0E0E0" stroke="#fff" stroke-width=".4"/><path d="M417,402L417,431L402,431L401,437L347,410L293,381L279,390L270,395L262,387L241,381L235,371L224,364L217,367L213,359L212,352L204,341L209,335L208,325L210,317L209,310L211,297L211,290L206,276L213,273L214,266L213,259L222,253L226,248L233,243L234,231L250,237L255,235L267,238L285,245L291,259L303,262L322,269L337,277L344,273L350,265L347,253L351,245L361,238L370,236L389,239L393,246L398,246L403,249L416,251L420,256L415,264L417,271L413,280L417,293L417,347Z" fill="#E0E0E0" stroke="#fff" stroke-width=".4"/><path d="M330,67L318,60L313,52L307,48L301,41L298,35L291,26L294,18L299,22L302,18L309,18L320,21L330,21L336,25L341,25L337,33L344,41L342,50L339,50L336,52L332,56Z" fill="#E0E0E0" stroke="#fff" stroke-width=".4"/><path d="M382,73L388,79L389,91L387,91L385,94L377,94L372,98L363,100L358,95L356,87L357,81L359,81L360,78L368,75L371,74L375,73Z" fill="#E0E0E0" stroke="#fff" stroke-width=".4"/><path d="M333,5L344,-0L352,0L360,8L361,14L369,19L371,27L378,32L383,28L386,30L383,34L385,37L382,41L383,48L390,56L385,62L382,68L384,70L382,73L375,73L371,74L370,73L372,71L373,66L372,66L369,63L367,62L365,59L362,58L360,55L358,56L356,62L353,64L354,62L349,58L344,56L342,54L339,50L342,50L344,41L337,33L341,25L336,25L341,18L337,12Z" fill="#E0E0E0" stroke="#fff" stroke-width=".4"/><path d="M350,68L347,69L346,66L340,75L341,81L338,79L334,73L328,70L330,67L332,56L336,52L339,50L342,54L344,56L349,58L354,62L353,64Z" fill="#E0E0E0" stroke="#fff" stroke-width=".4"/><path d="M357,81L356,75L353,73L350,68L353,64L356,62L358,56L360,55L362,58L365,59L367,62L369,63L372,66L373,66L372,71L370,73L371,74L368,75L360,78L359,81Z" fill="#E0E0E0" stroke="#fff" stroke-width=".4"/></g><g clip-path="url(#v)"><path d="M456.1,174.4L455.8,174.6L455.2,173.9L455.2,173.5L455.8,173.0L456.2,172.9L456.3,173.2L456.3,173.9ZM357.6,143.0L357.8,145.0L358.7,145.4L360.0,147.2L359.9,148.1L359.6,148.4L357.5,147.6L357.0,148.0L356.4,147.8L356.0,146.8L356.1,146.5L355.7,145.9L355.5,145.6L354.6,146.4L354.1,146.5L354.1,145.8L354.9,143.8L355.2,143.5L355.8,144.2L356.3,143.9L356.7,142.8L356.8,141.8L356.9,141.4ZM361.4,153.0L362.8,154.7L361.7,154.3L360.4,155.4L358.9,154.1L357.9,152.7L357.7,152.2L358.7,150.9L359.6,152.2L360.7,152.4ZM358.6,139.1L358.1,139.2L357.7,139.2L357.2,139.2L356.8,139.6L356.9,138.2L357.4,136.5L357.9,135.5L358.7,135.0L359.1,135.8L359.0,138.6ZM359.6,144.0L358.9,144.1L358.1,142.5L357.8,141.3L358.1,141.3L358.4,141.4L358.8,141.8L358.8,142.3L359.0,142.7L359.3,143.3ZM350.4,124.7L350.7,125.7L348.9,125.1L347.7,124.2L346.7,122.0L344.5,119.5L344.5,118.8L345.3,118.2L347.1,117.9L347.8,118.3L348.3,118.7L348.4,119.2L347.4,120.1L347.2,120.5L348.0,121.4L348.0,121.7L348.3,123.4L348.7,124.0L349.7,124.5ZM395.7,133.0L396.5,134.9L397.2,135.5L398.7,136.3L399.5,136.4L402.0,137.8L405.0,138.0L405.4,138.4L405.8,139.5L406.4,140.3L406.6,140.9L406.2,141.6L406.7,143.8L407.4,145.8L408.6,146.8L410.0,147.1L411.4,147.1L411.7,147.5L411.5,149.3L411.0,150.0L410.5,150.2L410.1,150.0L409.7,149.6L409.3,149.4L408.6,149.3L408.0,148.6L406.6,147.6L406.3,147.0L406.3,146.1L405.6,145.5L405.1,144.2L404.5,143.8L404.3,143.2L404.2,142.9L402.1,142.7L400.4,142.7L398.9,142.0L398.5,140.1L397.6,139.6L397.0,139.0L396.4,138.3L395.0,136.9L393.5,135.7L392.0,135.0L390.5,134.5L389.2,135.1L388.4,135.0L388.3,134.6L389.9,133.7L392.1,132.2L393.6,131.7L394.3,131.7ZM400.7,130.3L400.1,130.9L399.1,130.6L398.1,128.6ZM402.1,129.5L401.5,129.7L402.1,128.3L403.3,127.6L402.8,128.8ZM412.9,135.6L411.4,136.0L411.0,136.0L411.4,135.4L411.4,135.2L409.9,134.2L410.1,133.0L410.3,132.6L411.4,133.3L411.6,134.4ZM414.2,103.7L412.5,104.3L410.7,103.1L410.7,102.4L411.6,100.9L412.1,100.5L413.5,100.6L414.2,101.6L414.4,102.1L414.1,102.9ZM397.5,150.9L397.0,151.4L396.4,151.3L396.0,151.2L395.8,150.9L396.0,150.7L396.4,150.0L396.7,149.8L397.1,149.9L397.4,150.2ZM390.8,180.5L390.6,181.3L389.3,180.8L388.9,180.0L388.8,178.3L389.2,177.5L389.4,177.2L390.1,178.2L391.4,179.6ZM446.8,192.7L446.3,193.6L445.8,192.8L446.1,191.9L445.4,190.5L446.6,188.3L446.6,187.3L447.5,186.7L447.3,188.5L446.6,189.9L447.3,191.1L447.6,192.4ZM444.7,167.5L443.4,167.7L443.6,166.4L443.0,165.3L444.0,165.9L444.7,166.6L445.0,166.8L444.9,167.2ZM443.8,171.4L443.4,171.5L443.9,170.6L445.3,169.5L447.4,168.5L448.1,168.4L449.2,169.0L447.1,170.0L446.5,170.6L444.9,170.7ZM424.7,167.4L423.5,168.0L422.7,167.1L422.2,165.6L424.4,163.4L425.0,163.6L425.3,164.2L425.2,166.1ZM421.0,165.6L420.0,166.9L419.1,166.8L418.7,166.2L419.3,165.0L420.5,164.2L421.0,164.5L420.9,165.4ZM423.8,177.1L423.2,178.0L422.3,177.7L422.7,177.3L422.9,176.9L422.9,176.2L422.7,175.9L422.8,175.7L423.6,176.4ZM422.5,172.3L422.2,172.6L421.2,171.5L420.8,170.9L421.3,170.4L422.8,171.6ZM442.1,152.9L443.8,153.5L444.2,153.4L445.0,153.6L445.2,154.6L444.1,154.8L442.3,155.8L441.6,155.6L440.7,154.7L439.2,154.6L438.8,154.4L439.5,153.4L441.0,152.9ZM431.3,157.7L430.6,157.8L430.8,157.1L432.1,155.9L433.7,155.9L435.3,155.3L435.6,155.3L434.9,156.2L433.7,157.1ZM429.0,170.4L427.7,170.5L427.4,170.4L428.1,170.1L428.6,169.8L428.9,169.4L430.1,168.7L430.9,167.9L431.8,168.4L430.6,168.8ZM437.1,173.8L436.1,174.2L435.4,175.1L434.6,174.5L434.6,173.7L435.4,173.9L436.1,173.5L435.9,172.9L436.6,173.2ZM408.5,156.9L407.6,157.8L407.4,156.5L408.0,155.2L408.8,155.1L409.1,155.7ZM409.6,160.9L408.8,161.4L409.1,160.2L408.7,159.6L409.1,159.1L409.5,158.7L409.8,159.1L410.2,159.8ZM411.0,170.8L411.0,171.8L410.9,172.2L408.1,172.6L408.4,171.5L408.5,171.1L409.4,171.7L409.8,171.4L409.9,171.1ZM416.5,158.4L416.4,160.2L416.1,160.1L415.9,159.9L415.9,159.2L416.0,158.1ZM417.2,153.8L416.7,154.9L415.7,153.6L414.5,152.7L414.1,151.9L413.4,151.4L413.2,150.3L414.0,149.9L414.4,149.8L415.3,151.2L416.7,151.3L416.6,152.1L417.0,153.2ZM420.7,156.6L420.3,157.7L419.4,157.5L418.0,156.3L417.5,155.8L417.2,155.2L417.8,155.2L418.5,155.7L420.3,156.0ZM413.5,168.1L413.2,168.2L412.9,167.5L412.8,166.8L412.9,166.4L413.4,166.4L414.0,167.6ZM432.2,145.9L430.8,146.9L429.4,145.5L429.2,145.0L430.2,144.4L430.7,143.5L430.3,142.4L428.8,140.8L428.8,139.7L431.0,139.2L432.3,140.2L433.0,140.3L432.8,141.2L432.9,141.5L433.0,144.4L432.3,144.8L432.3,145.6ZM436.5,126.5L436.2,127.5L438.1,129.3L438.7,130.4L439.0,131.4L438.8,131.7L438.1,131.2L437.5,131.0L437.7,131.7L438.3,132.4L437.2,132.8L436.2,132.7L433.0,131.8L432.3,130.9L434.2,129.4L434.6,128.8L433.3,128.9L431.9,130.6L429.6,129.9L428.9,129.2L428.7,128.8L429.7,127.2L431.2,127.3L432.1,127.0L433.1,126.5L433.1,125.7L435.6,125.6ZM426.6,107.1L425.1,107.5L423.3,106.1L425.0,105.5L425.7,105.9L426.3,106.4ZM423.2,115.0L422.7,115.6L422.3,116.6L422.1,118.0L421.3,118.1L420.8,117.8L420.7,117.2L420.6,116.5L420.3,116.6L420.0,117.3L419.8,117.7L419.0,117.7L418.1,117.3L418.2,116.3L418.0,115.1L418.1,114.7L420.5,114.6L421.1,115.4L422.0,114.9L422.4,114.4L423.4,114.0ZM422.8,159.7L421.4,159.7L421.5,158.4L422.0,158.1L423.5,158.8L423.5,159.2ZM410.8,164.7L410.3,164.9L409.4,164.5L409.7,163.6L410.2,163.2L410.9,163.5L411.0,163.9ZM455.9,184.9L454.9,185.3L454.6,185.2L454.2,184.4L454.8,182.5L454.2,181.3L454.2,180.8L455.0,180.1L455.5,179.1L456.9,177.9L460.4,176.5L461.2,176.4L461.2,177.5L460.0,180.2L459.0,181.5L459.3,182.6L457.6,182.9ZM401.7,191.5L402.6,191.6L403.9,191.6L404.2,191.5L404.9,190.5L405.9,190.5L406.4,191.5L405.4,191.9L405.1,192.2L405.3,192.4L406.1,192.7L407.1,192.6L407.2,193.4L407.4,194.0L407.9,194.4L408.5,194.4L409.7,194.3L411.0,194.1L412.2,193.6L413.5,193.3L417.3,193.6L418.7,194.6L421.3,194.8L423.7,195.3L425.0,194.9L427.2,194.6L427.6,195.0L427.3,197.3L427.4,198.0L428.0,198.4L428.6,198.2L429.4,197.4L431.2,196.8L433.1,196.8L434.7,195.3L435.2,195.2L434.9,195.9L434.7,197.8L434.4,198.8L434.2,199.7L433.1,200.1L431.5,200.2L428.5,200.0L425.6,200.3L420.1,201.1L414.5,201.5L413.8,201.2L413.8,200.2L413.7,199.5L413.3,198.9L411.6,198.5L410.0,197.8L403.6,196.7L402.1,196.3L399.7,196.5L398.8,196.5L398.1,196.1L397.7,195.5L397.5,193.5L397.8,191.5L398.3,191.0L398.6,191.6L399.2,191.8L399.8,191.2L399.8,190.3L400.1,189.5L400.5,189.8L400.9,191.2ZM435.2,83.8L436.5,84.2L437.1,84.8L437.6,85.3L438.3,85.8L438.8,85.9L439.2,87.5L439.3,89.5L439.1,90.4L438.2,90.6L435.4,92.5L435.3,94.2L435.3,95.0L435.4,95.6L435.7,96.1L435.7,96.8L435.4,97.6L434.2,98.9L433.3,99.9L432.3,101.3L431.8,101.5L431.4,101.7L431.0,100.9L428.9,99.6L424.0,98.8L421.7,97.8L420.6,98.0L418.7,96.9L417.3,97.4L414.4,99.3L412.9,99.1L411.3,97.9L410.2,97.7L408.9,98.3L406.8,100.6L404.8,101.7L402.9,101.3L400.4,101.3L400.2,102.6L400.7,103.5L402.0,104.9L401.4,106.1L401.9,107.2L402.7,107.4L404.1,107.4L406.6,108.8L407.6,110.4L408.3,112.0L406.8,110.8L405.8,109.7L404.4,109.3L402.5,108.3L401.3,108.1L400.0,108.8L399.8,109.6L401.3,111.0L402.5,111.9L403.2,112.6L403.7,114.2L403.4,114.8L402.9,115.3L401.4,114.3L399.1,110.7L395.9,110.0L395.3,110.7L396.0,112.6L396.4,113.3L399.3,115.4L399.0,115.8L398.6,116.0L395.4,114.8L394.5,113.1L394.3,110.8L391.4,109.3L388.7,107.6L388.1,105.9L388.6,105.3L389.0,104.1L387.5,104.4L386.6,105.1L385.0,105.8L385.0,107.0L385.2,108.1L384.7,109.8L384.2,112.5L384.5,114.0L387.9,118.2L389.0,121.2L389.8,122.4L391.5,123.7L393.2,126.0L394.0,127.2L394.5,129.2L393.0,130.5L392.2,130.5L391.7,129.9L392.4,128.6L392.3,127.7L390.0,126.5L389.0,126.9L387.9,127.7L388.5,129.3L389.2,130.3L389.6,131.7L391.0,131.6L389.1,133.2L387.4,134.0L385.7,134.0L384.6,134.2L384.2,134.6L385.1,134.9L385.9,134.9L387.0,135.8L390.4,136.8L392.0,138.1L393.5,138.2L395.1,140.5L397.8,141.2L399.4,143.6L401.5,144.0L403.2,144.9L403.8,145.7L404.0,147.2L404.1,150.4L404.5,152.8L404.5,153.5L404.4,154.6L404.0,155.2L403.3,155.2L402.0,153.5L400.0,151.7L398.0,149.5L397.4,149.1L396.9,149.1L395.8,149.8L392.7,150.4L391.3,151.2L390.7,151.3L390.5,151.8L391.2,152.2L392.1,153.2L392.1,154.5L392.8,156.2L393.6,156.6L394.8,156.6L395.4,156.9L395.6,157.5L396.3,158.3L396.8,158.9L396.7,159.3L393.5,160.4L392.8,160.8L392.3,161.1L391.4,160.6L391.4,159.3L390.3,158.6L389.3,158.0L388.1,157.7L387.0,156.8L386.3,157.5L386.9,160.1L388.1,161.8L390.0,166.5L390.9,169.3L391.1,170.6L390.6,172.8L391.6,174.5L392.3,176.2L391.5,176.1L390.9,175.5L389.9,174.8L387.8,172.1L387.1,170.4L386.2,170.3L384.8,170.5L383.1,174.1L383.2,176.2L382.3,175.7L381.6,175.0L381.6,172.8L381.6,171.9L379.6,168.8L378.7,168.4L378.3,167.4L377.6,166.3L376.6,166.5L375.9,167.0L375.7,168.6L375.6,170.1L375.0,171.2L372.9,169.1L370.8,165.4L370.8,163.4L372.3,161.5L372.1,160.2L370.6,157.5L368.5,155.8L367.3,155.3L366.8,153.5L365.7,152.6L364.8,152.2L364.6,151.5L364.9,151.0L367.1,149.2L368.4,146.3L369.0,146.1L370.3,146.8L371.9,146.6L373.1,144.9L374.1,144.0L375.9,144.1L379.8,146.4L384.0,147.7L386.1,148.8L387.4,150.0L388.0,150.2L389.0,150.4L388.9,149.5L388.6,148.8L389.5,148.4L391.7,148.4L392.2,148.0L392.6,147.3L392.1,146.6L391.3,146.3L390.5,146.2L390.0,145.9L389.2,146.2L387.8,145.6L387.1,145.1L386.7,144.6L384.4,143.7L382.2,142.1L381.7,143.0L380.8,143.5L379.6,143.6L376.0,142.5L373.8,143.3L372.6,143.5L371.7,143.5L370.6,143.9L369.3,144.1L368.2,142.6L367.7,141.4L367.4,141.2L367.3,142.3L367.0,143.2L365.4,143.7L364.4,143.0L363.7,140.9L362.8,138.3L361.2,136.2L359.9,135.6L359.7,134.5L359.9,133.6L361.4,133.3L363.9,134.3L364.4,134.1L364.9,133.6L364.9,132.6L364.5,131.8L363.8,131.7L363.3,131.8L361.8,131.6L359.9,132.1L359.0,131.7L358.7,131.1L357.1,129.7L355.6,127.8L353.4,126.6L351.9,122.7L350.7,121.0L349.3,119.8L349.6,119.8L350.1,120.0L351.0,120.7L352.1,120.8L352.7,120.3L353.0,120.0L353.2,119.3L353.3,118.5L353.4,118.3L354.2,118.4L354.5,118.2L354.5,117.5L354.0,116.6L353.5,115.5L353.5,115.0L353.9,114.8L354.5,114.4L354.8,113.8L355.5,113.5L356.4,113.4L357.5,113.2L358.2,112.6L358.3,112.0L358.8,110.3L359.0,109.4L359.5,108.7L359.8,107.7L360.3,106.7L361.3,106.3L362.2,105.8L362.9,104.6L363.3,103.6L363.3,102.9L362.7,101.8L362.3,100.8L362.4,99.5L364.3,99.4L364.9,99.3L367.3,99.2L368.4,98.4L369.1,98.5L370.7,99.1L371.4,98.7L373.5,97.7L375.5,94.8L376.4,94.4L378.4,94.2L379.0,93.9L379.7,94.0L381.9,94.6L383.2,94.7L384.7,94.2L386.3,93.6L386.7,91.1L387.1,90.8L388.1,90.7L388.9,90.7L390.4,90.9L392.2,91.0L393.3,89.8L395.1,89.7L396.0,89.6L397.4,89.8L398.7,89.8L400.4,89.3L402.1,88.5L403.3,88.6L403.8,88.5L404.1,88.3L404.4,87.2L406.8,87.2L407.6,87.3L409.0,87.3L410.3,86.7L410.7,86.8L411.4,88.3L411.8,88.8L412.5,89.2L414.2,90.4L414.5,90.0L415.2,89.7L417.2,90.2L419.1,91.1L420.7,92.4L422.5,92.0L424.4,91.4L425.7,91.2L427.1,91.1L427.9,90.8L429.8,91.1L431.8,90.4L432.7,89.8L433.0,88.9L432.8,87.3L432.4,85.8L431.9,85.2L431.8,84.6L432.0,84.0L432.3,83.6L433.6,83.3Z" fill="#4ECDC4" stroke="#2C3E50" stroke-width="1"/></g><circle cx="400.0" cy="150.0" r="4" fill="#E74C3C" stroke="#fff" stroke-width="2"/><text x="400.0" y="140.0" text-anchor="middle" font-family="sans-serif" font-weight="700" font-size="10" fill="#2D3436">Athens</text></svg>