<svg viewBox="0 0 800 300" xmlns="http://www.w3.org/2000/svg"><defs><clipPath id="v"><rect width="800" height="300"/></clipPath></defs><rect width="800" height="300" fill="#DCEEF8"/><g clip-path="url(#v)"><path d="M-514,-1026L-434,-1026L-350,-1026L-322,-1026L-236,-1026L-153,-1026L-68,-1026L17,-1026L113,-1026L210,-1026L269,-1026L269,-1042L278,-1042L283,-1019L292,-1011L312,-1009L341,-1002L368,-989L391,-994L426,-983L435,-984L460,-996L487,-980L515,-964L537,-950L559,-937L562,-926L569,-922L567,-918L575,-917L580,-921L581,-911L587,-905L595,-905L599,-900L596,-892L625,-874L631,-837L637,-803L629,-780L615,-759L609,-746L608,-742L612,-736L621,-730L628,-730L661,-751L690,-757L727,-776L728,-780L725,-791L721,-799L733,-805L761,-805L787,-805L796,-821L800,-824L830,-852L842,-860L885,-860L937,-860L940,-870L949,-872L961,-878L971,-896L980,-928L1001,-960L1011,-949L1030,-956L1042,-944L1042,-888L1061,-865L1066,-852L1036,-833L1006,-819L977,-808L962,-784L957,-776L957,-755L966,-735L978,-734L975,-748L983,-740L981,-729L962,-723L948,-723L927,-717L915,-715L899,-713L875,-702L917,-709L925,-702L885,-691L867,-691L868,-696L860,-685L868,-684L862,-657L841,-629L839,-638L833,-640L824,-649L829,-630L836,-623L837,-609L828,-595L812,-567L809,-568L818,-593L804,-606L800,-636L795,-621L801,-598L782,-604L802,-592L803,-558L811,-556L814,-543L818,-508L800,-483L771,-473L752,-453L738,-450L724,-438L720,-426L689,-405L673,-389L659,-369L655,-346L660,-323L669,-295L682,-272L682,-258L696,-221L695,-200L693,-188L686,-169L678,-165L664,-168L660,-182L649,-189L634,-217L621,-241L616,-253L622,-275L614,-292L592,-320L581,-325L553,-310L548,-311L534,-327L516,-335L484,-331L459,-334L438,-332L426,-327L431,-318L431,-305L437,-299L431,-294L421,-299L410,-293L390,-294L368,-311L344,-307L323,-315L306,-312L282,-305L256,-281L228,-267L212,-252L206,-237L206,-215L207,-200L212,-189L202,-188L181,-195L159,-205L151,-220L145,-242L129,-261L119,-279L105,-301L85,-314L62,-314L44,-288L20,-298L6,-308L-1,-326L-11,-343L-28,-357L-42,-368L-52,-379L-101,-379L-101,-366L-124,-366L-180,-366L-245,-389L-287,-405L-285,-412L-320,-408L-353,-406L-357,-423L-376,-442L-389,-446L-392,-456L-408,-458L-418,-467L-444,-470L-451,-476L-455,-495L-482,-530L-506,-579L-505,-587L-517,-599L-539,-629L-543,-659L-558,-679L-552,-710L-553,-743L-562,-772L-551,-809L-547,-844L-544,-881L-549,-935L-558,-971L-566,-991L-563,-999L-522,-985L-507,-945L-500,-956L-505,-990ZM-1435,-12L-1430,-9L-1425,-5L-1418,6L-1419,7L-1430,14L-1439,18L-1443,23L-1450,19L-1449,11L-1454,-0L-1452,-4L-1447,-8L-1449,-14L-1448,-17L-1446,-17ZM-1452,-32L-1454,-29L-1463,-26L-1468,-33L-1471,-35L-1472,-37L-1469,-40L-1459,-37ZM-1473,-45L-1474,-41L-1489,-42L-1487,-46ZM-1509,-61L-1507,-59L-1498,-49L-1500,-47L-1502,-48L-1512,-49L-1515,-56L-1516,-57ZM-1547,-76L-1546,-69L-1550,-66L-1559,-72L-1558,-74L-1553,-77ZM-1748,-1587L-1725,-1582L-1723,-1560L-1740,-1551L-1758,-1562L-1776,-1577ZM-1373,-1454L-1355,-1450L-1343,-1434L-1367,-1409L-1395,-1389L-1410,-1402L-1414,-1427L-1388,-1446ZM-1027,-2220L-1027,-1940L-1027,-1583L-1000,-1581L-972,-1565L-952,-1541L-927,-1504L-900,-1535L-871,-1553L-856,-1524L-837,-1502L-811,-1477L-794,-1439L-765,-1380L-717,-1347L-716,-1316L-732,-1292L-747,-1311L-772,-1326L-780,-1370L-817,-1412L-832,-1462L-859,-1465L-904,-1467L-937,-1482L-996,-1539L-1023,-1550L-1072,-1570L-1111,-1565L-1167,-1591L-1200,-1616L-1232,-1604L-1226,-1564L-1242,-1560L-1274,-1549L-1299,-1530L-1331,-1518L-1335,-1551L-1322,-1607L-1292,-1625L-1300,-1639L-1336,-1607L-1355,-1569L-1396,-1529L-1375,-1502L-1402,-1463L-1432,-1441L-1460,-1425L-1467,-1402L-1512,-1375L-1520,-1351L-1554,-1330L-1573,-1334L-1599,-1320L-1628,-1303L-1652,-1286L-1700,-1272L-1704,-1281L-1674,-1304L-1646,-1319L-1616,-1346L-1581,-1352L-1567,-1373L-1528,-1404L-1521,-1414L-1500,-1433L-1496,-1473L-1481,-1505L-1514,-1489L-1523,-1498L-1538,-1478L-1557,-1506L-1564,-1486L-1575,-1513L-1603,-1492L-1620,-1492L-1623,-1524L-1618,-1545L-1636,-1565L-1673,-1554L-1697,-1580L-1716,-1594L-1716,-1627L-1738,-1652L-1727,-1686L-1704,-1721L-1694,-1752L-1671,-1757L-1651,-1747L-1629,-1777L-1608,-1772L-1587,-1792L-1592,-1821L-1608,-1833L-1587,-1858L-1604,-1857L-1634,-1843L-1643,-1828L-1665,-1843L-1705,-1836L-1746,-1851L-1758,-1878L-1794,-1918L-1754,-1947L-1691,-1981L-1668,-1981L-1672,-1946L-1612,-1948L-1635,-1992L-1670,-2020L-1690,-2057L-1717,-2088L-1756,-2113L-1740,-2153L-1690,-2156L-1654,-2192L-1648,-2231L-1619,-2271L-1591,-2281L-1538,-2318L-1512,-2313L-1468,-2359L-1425,-2341L-1405,-2302L-1392,-2318L-1345,-2313L-1346,-2294L-1303,-2279L-1274,-2287L-1215,-2261L-1160,-2253L-1138,-2242L-1101,-2256L-1058,-2231ZM-1896,-1793L-1879,-1780L-1861,-1787L-1839,-1770L-1810,-1762L-1813,-1755L-1834,-1742L-1856,-1755L-1867,-1767L-1891,-1763L-1898,-1769Z" fill="#E0E0E0" stroke="#fff" stroke-width=".4"/><path d="M932,-1L934,16L932,27L925,32L932,41L932,49L913,44L899,46L882,44L869,50L854,40L856,31L882,35L904,37L914,31L901,18L901,6L883,2L890,-7L907,-5Z" fill="#E0E0E0" stroke="#fff" stroke-width=".4"/><path d="M932,49L932,41L925,32L932,27L934,16L932,-1L935,-6L957,-5L974,2L981,1L986,12L1002,12L1001,20L1014,22L1027,32L1017,45L1003,38L991,39L981,38L976,43L965,45L961,38L952,42L940,63L933,58Z" fill="#E0E0E0" stroke="#fff" stroke-width=".4"/><path d="M726,-218L739,-221L758,-220L759,-212L728,-207ZM760,-226L782,-212L777,-190L772,-194L772,-210L760,-223ZM748,-169L757,-168L767,-142L767,-124L760,-122L753,-140L742,-149Z" fill="#E0E0E0" stroke="#fff" stroke-width=".4"/><path d="M-353,-406L-320,-408L-285,-412L-287,-405L-245,-389L-180,-366L-124,-366L-101,-366L-101,-379L-52,-379L-42,-368L-28,-357L-11,-343L-1,-326L6,-308L20,-298L44,-288L62,-314L85,-314L105,-301L119,-279L129,-261L145,-242L151,-220L159,-205L181,-195L202,-188L212,-189L202,-162L197,-140L195,-98L192,-83L197,-67L205,-52L211,-28L230,-6L237,11L248,26L278,34L289,46L314,38L336,35L357,30L375,25L393,12L399,-5L402,-30L407,-39L426,-47L456,-54L481,-53L498,-56L505,-49L504,-35L488,-17L482,2L487,7L483,20L476,43L468,35L462,36L457,36L447,54L442,51L438,52L439,56L413,56L386,56L386,73L373,73L384,83L394,90L397,96L402,98L401,108L365,108L351,132L355,137L352,144L351,153L319,121L305,112L282,104L266,106L243,117L229,120L209,112L188,107L161,93L140,89L108,75L85,61L77,53L62,51L33,42L21,28L-10,11L-24,-8L-30,-22L-21,-25L-24,-34L-17,-42L-17,-52L-27,-66L-29,-78L-39,-93L-64,-124L-92,-148L-106,-168L-130,-180L-135,-188L-131,-207L-145,-215L-162,-230L-169,-253L-184,-255L-201,-272L-214,-288L-215,-298L-230,-322L-241,-347L-240,-360L-261,-373L-270,-372L-286,-381L-291,-367L-286,-352L-283,-327L-274,-314L-253,-291L-248,-284L-244,-281L-240,-270L-235,-271L-229,-250L-221,-242L-215,-231L-197,-214L-187,-185L-179,-171L-171,-157L-170,-140L-156,-139L-145,-125L-134,-112L-135,-106L-147,-95L-152,-95L-159,-114L-178,-131L-198,-146L-213,-154L-212,-177L-216,-194L-230,-204L-249,-218L-253,-214L-260,-222L-277,-230L-294,-248L-292,-251L-280,-249L-270,-261L-269,-275L-291,-298L-307,-307L-318,-328L-328,-349L-341,-376Z" fill="#E0E0E0" stroke="#fff" stroke-width=".4"/><path d="M1450,1584L1442,1564L1455,1548L1438,1526L1416,1507L1387,1486L1377,1487L1348,1462L1330,1465L1367,1421L1399,1390L1418,1377L1442,1359L1443,1334L1429,1316L1415,1322L1420,1304L1424,1285L1424,1268L1414,1263L1403,1268L1393,1266L1389,1254L1387,1226L1381,1217L1362,1209L1351,1215L1321,1209L1323,1168L1314,1151L1323,1145L1321,1128L1328,1114L1333,1091L1327,1072L1311,1064L1308,1052L1312,1035L1258,1034L1247,1000L1256,1000L1255,987L1250,978L1248,962L1232,953L1214,953L1202,945L1183,939L1172,928L1141,923L1110,897L1112,878L1109,867L1112,846L1075,850L1060,861L1035,873L1029,882L1014,882L993,880L977,885L964,881L966,838L943,855L918,854L907,839L889,837L895,825L879,807L867,782L875,776L875,764L892,756L889,741L896,731L898,718L931,698L954,693L957,689L983,690L996,612L996,600L992,584L979,573L979,553L995,548L1001,551L1002,540L985,537L985,520L1040,520L1050,511L1057,520L1063,536L1068,533L1084,548L1106,546L1111,537L1132,531L1144,526L1147,514L1167,506L1166,500L1142,498L1138,480L1139,461L1126,453L1132,451L1153,454L1175,462L1183,455L1204,450L1235,440L1246,429L1242,421L1257,420L1263,426L1259,439L1269,443L1276,456L1268,466L1263,490L1271,505L1273,518L1290,531L1304,532L1307,527L1316,526L1329,521L1338,513L1354,516L1360,515L1376,517L1378,511L1374,505L1377,497L1388,500L1401,497L1417,503L1430,509L1439,501L1445,502L1449,510L1462,508L1473,497L1482,477L1498,451L1508,449L1515,465L1531,514L1546,519L1547,539L1526,562L1534,570L1584,575L1585,603L1607,585L1642,595L1689,612L1703,629L1699,644L1731,636L1786,651L1829,650L1871,673L1907,705L1928,713L1953,714L1963,723L1972,759L1977,776L1966,824L1951,842L1912,882L1894,915L1873,940L1866,941L1858,962L1860,1017L1852,1062L1849,1082L1840,1094L1835,1134L1806,1173L1801,1204L1779,1217L1772,1236L1741,1236L1697,1248L1677,1261L1645,1270L1612,1295L1588,1326L1584,1350L1588,1367L1583,1399L1577,1415L1557,1433L1526,1490L1501,1517L1482,1532L1469,1564Z" fill="#E0E0E0" stroke="#fff" stroke-width=".4"/><path d="M1068,533L1063,536L1057,520L1050,511L1040,520L985,520L985,537L1002,540L1001,551L995,548L979,553L979,573L992,584L996,600L996,612L983,690L969,675L960,674L979,645L957,632L940,635L930,630L914,637L893,634L876,604L863,597L854,583L836,570L828,573L816,566L802,556L794,561L770,557L763,545L758,545L729,529L726,520L736,518L735,504L742,494L756,492L768,474L778,459L768,453L773,436L767,410L773,403L768,379L757,363L761,350L770,352L775,343L769,326L772,322L787,323L808,303L819,300L820,291L825,266L841,253L859,252L861,246L883,249L906,234L917,228L930,214L940,216L948,223L942,233L924,238L917,252L906,260L898,271L894,292L886,308L901,310L905,323L911,330L913,341L910,352L911,358L918,360L925,370L961,367L977,371L997,395L1009,392L1029,394L1045,391L1055,396L1050,411L1044,420L1041,441L1047,460L1055,468L1056,474L1042,488L1052,495L1060,505Z" fill="#E0E0E0" stroke="#fff" stroke-width=".4"/><path d="M772,322L769,326L775,343L770,352L761,350L757,363L748,355L742,340L749,332L741,330L736,321L722,313L710,315L704,325L693,332L686,333L684,339L697,354L689,358L685,362L672,364L667,346L664,351L654,350L648,338L637,336L630,333L617,333L617,339L613,335L615,329L617,323L616,318L620,315L614,311L614,299L625,296L635,307L635,313L646,314L649,312L656,319L670,317L682,310L700,304L709,295L725,297L724,300L740,301L752,306L761,314Z" fill="#E0E0E0" stroke="#fff" stroke-width=".4"/><path d="M625,296L614,299L614,311L620,315L616,318L617,323L615,329L613,335L598,329L592,323L596,318L594,311L587,304L575,299L566,295L564,287L556,282L558,290L553,297L546,289L537,286L533,280L533,271L537,262L529,258L536,253L540,249L559,257L565,253L574,255L579,261L587,263L594,257L601,273L612,284Z" fill="#E0E0E0" stroke="#fff" stroke-width=".4"/><path d="M594,257L587,263L579,261L574,255L565,253L559,257L540,249L536,253L526,244L513,232L506,222L495,213L480,200L483,196L488,200L490,198L499,197L503,190L507,190L506,176L513,175L519,175L525,167L533,173L536,170L541,166L551,158L552,152L554,152L558,145L561,144L566,149L571,150L578,147L585,147L595,143L598,139L608,139L606,142L604,149L607,159L601,169L598,181L597,194L598,201L599,214L595,217L592,230L594,237L588,245L589,252Z" fill="#E0E0E0" stroke="#fff" stroke-width=".4"/><path d="M608,139L598,139L595,143L585,147L578,147L571,150L566,149L561,144L558,145L554,152L552,152L551,158L541,166L536,170L533,173L525,167L519,175L513,175L506,176L507,190L503,190L499,197L490,198L485,189L477,186L479,175L475,171L469,169L457,173L456,169L447,164L441,158L433,156L439,149L436,143L438,137L452,129L465,118L468,119L474,114L482,113L484,116L489,114L502,117L515,116L524,113L527,110L536,111L543,113L551,113L556,110L569,114L574,115L582,120L590,127L601,131Z" fill="#E0E0E0" stroke="#fff" stroke-width=".4"/><path d="M433,156L441,158L447,164L456,169L457,173L469,169L475,171L479,175L477,186L474,193L457,193L447,190L435,184L420,182L412,176L413,172L422,164L428,161L426,158Z" fill="#E0E0E0" stroke="#fff" stroke-width=".4"/><path d="M439,56L438,52L442,51L447,54L457,36L462,36L463,40L468,40L467,48L463,61L465,66L462,76L464,79L461,94L455,102L450,103L445,113L436,113L438,80Z" fill="#E0E0E0" stroke="#fff" stroke-width=".4"/><path d="M1242,421L1246,429L1235,440L1204,450L1183,455L1175,462L1153,454L1132,451L1126,453L1139,461L1138,480L1142,498L1166,500L1167,506L1147,514L1144,526L1132,531L1111,537L1106,546L1084,548L1068,533L1060,505L1052,495L1042,488L1056,474L1055,468L1047,460L1041,441L1044,420L1050,411L1055,396L1045,391L1029,394L1009,392L997,395L977,371L961,367L925,370L918,360L911,358L910,352L913,341L911,330L905,323L901,310L886,308L894,292L898,271L906,260L917,252L924,238L942,233L941,240L925,243L934,256L934,271L921,288L932,311L944,309L950,288L942,278L940,256L976,244L972,231L982,222L992,242L1012,242L1030,259L1031,268L1056,268L1087,265L1103,278L1124,282L1140,273L1141,266L1176,264L1210,263L1185,272L1195,286L1218,288L1239,302L1244,325L1258,324L1269,331L1247,348L1245,358L1254,369L1247,374L1230,378L1230,392L1223,399Z" fill="#E0E0E0" stroke="#fff" stroke-width=".4"/><path d="M766,36L785,39L800,46L805,54L785,55L776,60L760,55L744,44L748,37L759,35Z" fill="#E0E0E0" stroke="#fff" stroke-width=".4"/><path d="M633,-106L657,-104L680,-104L706,-93L717,-82L744,-85L754,-78L778,-59L795,-46L805,-46L822,-40L820,-31L840,-30L862,-18L858,-11L840,-7L821,-5L801,-8L761,-5L780,-22L768,-29L750,-31L740,-40L733,-57L717,-56L691,-64L683,-71L646,-76L636,-81L646,-89L619,-91L598,-75L587,-74L583,-67L569,-64L557,-67L571,-76L578,-87L590,-94L605,-100L626,-103Z" fill="#E0E0E0" stroke="#fff" stroke-width=".4"/></g><g clip-path="url(#v)"><path d="M351.2,152.5L351.9,151.7L352.6,150.0L353.4,148.2L352.9,146.1L352.6,144.5L353.5,142.1L353.4,140.3L353.8,139.1L355.1,138.4L355.7,137.0L352.0,132.2L352.0,131.1L352.6,129.8L355.5,124.6L359.1,118.6L362.9,111.8L365.3,107.8L373.8,107.8L379.5,107.8L386.8,107.8L394.5,107.8L399.7,107.8L401.8,107.7L401.4,105.0L401.7,102.1L402.6,99.5L402.6,98.3L401.1,96.9L398.2,96.0L396.5,94.8L396.5,93.2L395.7,91.2L394.3,89.0L391.3,86.6L386.9,84.3L383.0,81.0L379.8,77.0L377.1,74.5L375.1,73.4L374.5,72.8L380.7,72.8L386.4,72.9L386.4,67.1L386.5,62.0L386.5,56.1L396.8,56.2L409.3,56.2L422.1,56.2L432.2,56.2L438.2,56.2L437.9,63.4L437.6,71.7L437.3,77.8L437.0,86.0L436.7,94.3L436.2,105.7L436.0,113.0L436.1,113.1L439.5,112.8L444.5,113.1L445.7,113.1L447.2,113.7L448.4,113.9L450.9,115.5L453.9,116.8L455.8,114.2L454.9,112.8L454.0,112.0L454.1,111.3L464.5,117.8L463.3,118.8L460.7,121.1L455.9,125.1L451.6,128.6L447.5,131.8L443.8,134.7L443.4,135.0L438.7,137.1L437.9,138.0L436.8,142.1L436.4,143.1L437.2,145.4L438.1,148.8L437.9,150.7L434.6,152.9L433.1,154.9L432.5,156.2L431.9,155.9L430.8,155.8L428.5,156.3L427.4,156.4L426.5,157.0L426.4,158.3L427.0,160.3L427.3,161.4L426.6,161.8L423.7,163.1L422.6,164.2L421.5,166.2L420.2,166.9L418.9,166.8L418.0,167.1L416.1,168.4L413.0,171.2L411.5,173.2L411.4,174.7L411.7,176.1L400.9,171.3L397.2,170.5L382.0,170.6L375.5,168.7L368.0,165.1L362.9,161.7Z" fill="#4ECDC4" stroke="#2C3E50" stroke-width="1"/></g><circle cx="400.0" cy="150.0" r="4" fill="#E74C3C" stroke="#fff" stroke-width="2"/><text x="400.0" y="140.0" text-anchor="middle" font-family="sans-serif" font-weight="700" font-size="10" fill="#2D3436">Guatemala City</text></svg>