<svg viewBox="0 0 800 300" xmlns="http://www.w3.org/2000/svg"><defs><clipPath id="v"><rect width="800" height="300"/></clipPath></defs><rect width="800" height="300" fill="#DCEEF8"/><g clip-path="url(#v)"><path d="M322,26L293,-30L259,-56L289,-70L323,-120L340,-158L364,-181L398,-175L432,-191L471,-191L505,-170L551,-151L593,-97L639,-48L643,-3L656,38L682,58L688,86L685,108L675,112L637,107L632,115L617,116L566,99L533,98L404,95L385,103L362,101L325,113L313,58L377,59L394,49L406,49L432,32L462,47L492,48L523,32L509,12L485,24L464,23L436,6L414,7L398,24Z" fill="#E0E0E0" stroke="#fff" stroke-width=".4"/><path d="M685,108L688,86L682,58L656,38L643,-3L639,-48L663,-61L675,-103L697,-105L746,-85L785,-99L812,-95L822,-111L1102,-112L1118,-163L1106,-172L1072,-489L1039,-816L1145,-818L1264,-735L1381,-651L1500,-569L1616,-487L1633,-452L1676,-431L1709,-419L1710,-372L1787,-379L1787,-210L1749,-161L1743,-117L1681,-105L1586,-99L1560,-73L1515,-70L1471,-70L1453,-84L1415,-74L1349,-44L1336,-21L1282,11L1272,30L1243,44L1209,35L1190,52L1180,101L1125,160L1126,185L1107,215L1112,256L1083,267L1067,275L1056,245L1036,253L1024,252L1011,272L957,272L938,261L928,268L907,247L911,226L902,218L887,225L890,202L904,183L876,153L867,134L852,118L838,116L821,126L799,136L779,151L750,145L730,127L719,125L700,134L689,135Z" fill="#E0E0E0" stroke="#fff" stroke-width=".4"/><path d="M298,-516L313,-541L450,-542L586,-541L573,-649L590,-688L656,-695L654,-892L768,-890L883,-888L883,-1006L1015,-912L1145,-818L1039,-816L1072,-489L1106,-172L1118,-163L1102,-112L822,-111L812,-95L785,-99L746,-85L697,-105L675,-103L663,-61L639,-48L593,-97L551,-151L505,-170L471,-191L432,-191L398,-175L364,-181L340,-158L334,-197L353,-233L362,-302L354,-375L346,-411L353,-448L335,-484Z" fill="#E0E0E0" stroke="#fff" stroke-width=".4"/><path d="M928,268L938,261L957,272L1011,272L1024,252L1036,253L1056,245L1067,275L1083,267L1112,256L1143,271L1155,295L1187,310L1211,292L1244,289L1292,308L1310,408L1281,467L1263,547L1293,607L1290,635L1258,636L1209,622L1164,623L1082,635L1033,655L964,681L951,679L956,621L963,612L961,585L931,555L909,551L889,531L904,500L897,466L900,446L911,446L915,415L910,401L916,392L942,383L925,326L909,297L915,273Z" fill="#E0E0E0" stroke="#fff" stroke-width=".4"/><path d="M533,98L566,99L617,116L632,115L637,107L675,112L685,108L689,135L700,134L719,125L730,127L750,145L779,151L799,136L821,126L838,116L852,118L867,134L876,153L904,183L890,202L887,225L902,218L911,226L907,247L928,268L915,273L909,297L925,326L942,383L916,392L910,401L915,415L911,446L900,446L880,444L866,472L846,472L832,457L837,429L808,385L790,393L775,395L756,399L756,373L745,355L748,334L732,304L713,279L657,279L641,292L622,294L610,309L602,329L564,360L534,318L507,290L489,281L471,267L463,236L453,220L433,208L464,174L485,175L503,163L519,163L530,153L524,130L531,122Z" fill="#E0E0E0" stroke="#fff" stroke-width=".4"/><path d="M900,446L897,466L904,500L889,531L909,551L931,555L961,585L963,612L956,621L951,679L932,680L860,646L797,593L737,554L690,509L707,487L711,466L743,428L775,395L790,393L808,385L837,429L832,457L846,472L866,472L880,444Z" fill="#E0E0E0" stroke="#fff" stroke-width=".4"/><path d="M564,360L602,329L610,309L622,294L641,292L657,279L713,279L732,304L748,334L745,355L756,373L756,399L775,395L743,428L711,466L707,487L690,509L672,504L621,476L585,438L573,412Z" fill="#E0E0E0" stroke="#fff" stroke-width=".4"/><path d="M322,26L398,24L414,7L436,6L464,23L485,24L509,12L523,32L492,48L462,47L432,32L406,49L394,49L377,59L313,58Z" fill="#E0E0E0" stroke="#fff" stroke-width=".4"/></g><g clip-path="url(#v)"><path d="M322.3,114.7L326.3,114.0L335.6,115.1L342.9,113.7L348.2,111.5L355.2,108.4L362.0,107.3L383.4,108.8L401.7,104.9L415.5,98.0L428.1,91.4L444.7,91.5L462.3,91.5L487.4,91.6L507.3,91.8L530.6,91.9L530.4,97.6L534.4,105.8L533.9,111.9L532.1,117.7L530.6,119.9L528.4,121.3L522.1,121.2L519.6,122.4L515.3,124.6L515.3,127.3L518.6,129.9L521.3,133.3L524.6,136.2L529.9,139.3L530.4,142.9L530.6,151.8L530.4,158.8L515.1,163.9L503.2,164.8L493.2,164.3L488.9,166.4L480.1,171.7L469.6,174.8L464.0,175.1L461.5,176.9L457.3,182.3L445.7,206.1L441.9,211.8L438.9,215.5L435.4,210.5L438.1,201.1L435.1,201.3L429.4,208.8L426.3,209.0L426.8,200.1L423.6,199.8L419.8,200.4L414.5,195.8L414.0,192.4L414.3,187.4L417.5,184.3L417.0,183.1L414.0,182.7L410.5,183.5L408.5,182.1L412.0,175.8L424.3,170.5L430.4,169.9L436.9,168.7L433.4,164.2L425.8,162.3L419.8,163.5L416.8,166.9L413.0,167.5L406.7,159.7L407.0,155.9L409.2,151.2L412.8,149.2L427.1,149.2L432.6,146.6L434.9,146.1L436.9,143.7L436.4,142.2L434.1,142.1L428.9,145.2L411.5,144.0L406.0,145.8L396.4,153.0L384.6,156.9L376.1,155.3L378.8,145.7L377.6,144.5L375.1,142.9L362.5,146.0L352.9,141.6L349.2,136.3L349.9,129.7L354.2,125.3L355.0,123.0L350.2,122.7L341.6,125.4ZM364.0,207.1L358.5,208.0L356.0,204.6L355.5,203.2L358.5,202.0L359.7,202.0L362.0,199.4L364.8,197.7L366.0,197.1L367.3,197.2L368.3,202.9L367.0,205.3ZM379.3,205.3L378.6,207.3L374.6,207.1L375.6,205.1L374.6,204.5L375.8,198.4L376.3,197.6L378.3,199.8L378.6,200.8ZM391.2,195.9L391.2,198.8L388.4,198.3L387.4,197.4L389.1,192.1L391.9,189.8L394.9,190.1L395.9,190.9L395.4,192.9L393.9,194.6ZM403.2,173.1L402.7,174.7L398.7,173.3L404.5,167.3L408.2,166.3L408.0,170.8L405.2,171.8ZM378.8,178.1L375.6,180.4L372.3,179.3L370.5,177.3L370.8,173.7L374.6,168.6L378.1,169.4ZM373.1,148.4L369.3,157.1L365.0,156.2L361.7,151.0L361.5,148.8L370.5,148.1Z" fill="#4ECDC4" stroke="#2C3E50" stroke-width="1"/></g><circle cx="400.0" cy="150.0" r="4" fill="#E74C3C" stroke="#fff" stroke-width="2"/><text x="400.0" y="140.0" text-anchor="middle" font-family="sans-serif" font-weight="700" font-size="10" fill="#2D3436">Bissau</text></svg>