<svg viewBox="0 0 800 300" xmlns="http://www.w3.org/2000/svg"><defs><clipPath id="v"><rect width="800" height="300"/></clipPath></defs><rect width="800" height="300" fill="#DCEEF8"/><g clip-path="url(#v)"><path d="M-689,-685L-642,-685L-592,-685L-575,-685L-524,-685L-474,-685L-423,-685L-373,-685L-316,-685L-258,-685L-223,-685L-223,-694L-217,-695L-214,-680L-209,-676L-197,-675L-180,-671L-164,-663L-150,-666L-130,-659L-124,-660L-109,-667L-93,-658L-77,-648L-63,-640L-50,-632L-48,-625L-44,-623L-45,-620L-41,-620L-38,-622L-37,-616L-33,-613L-29,-613L-26,-610L-28,-605L-11,-594L-7,-572L-4,-552L-9,-538L-17,-526L-20,-518L-21,-516L-19,-512L-13,-509L-9,-509L11,-521L28,-524L50,-536L50,-538L49,-545L46,-550L54,-553L70,-553L86,-553L91,-563L93,-564L111,-581L119,-586L144,-586L175,-586L177,-592L182,-593L189,-597L195,-608L201,-627L213,-645L219,-639L230,-643L238,-636L238,-603L249,-589L252,-581L234,-570L216,-562L199,-555L190,-541L187,-536L187,-524L192,-512L199,-511L197,-519L203,-514L201,-508L190,-504L182,-505L169,-501L162,-500L152,-499L138,-492L163,-496L168,-492L144,-485L134,-485L134,-488L129,-482L134,-481L130,-465L118,-448L117,-454L113,-455L107,-460L111,-449L115,-445L115,-437L110,-428L101,-411L99,-412L104,-427L96,-435L94,-453L90,-443L94,-430L83,-433L94,-426L95,-406L100,-405L102,-397L104,-377L93,-361L76,-355L65,-343L57,-342L48,-335L46,-328L27,-315L18,-305L10,-293L7,-280L10,-266L16,-249L23,-236L23,-228L31,-206L31,-193L30,-186L26,-174L21,-172L12,-174L10,-182L3,-187L-6,-203L-13,-217L-16,-225L-12,-237L-17,-248L-30,-264L-37,-267L-54,-258L-57,-259L-65,-268L-76,-273L-95,-271L-110,-273L-122,-271L-129,-268L-126,-263L-127,-255L-123,-252L-126,-249L-133,-252L-139,-248L-151,-249L-164,-259L-178,-257L-191,-261L-201,-260L-215,-255L-231,-241L-247,-233L-257,-224L-260,-215L-261,-202L-260,-193L-257,-187L-263,-186L-275,-190L-288,-196L-293,-205L-297,-218L-307,-229L-312,-240L-321,-253L-333,-261L-346,-261L-357,-245L-371,-251L-380,-257L-384,-268L-390,-278L-400,-286L-408,-293L-414,-300L-443,-300L-443,-292L-457,-292L-490,-291L-529,-305L-554,-315L-553,-319L-574,-317L-593,-315L-596,-325L-607,-337L-615,-340L-617,-345L-626,-346L-632,-352L-648,-354L-652,-357L-654,-368L-670,-389L-684,-419L-684,-423L-691,-430L-704,-449L-707,-466L-716,-478L-712,-497L-713,-516L-718,-534L-711,-555L-709,-577L-707,-598L-710,-631L-716,-652L-720,-664L-718,-669L-694,-660L-685,-637L-681,-643L-684,-664ZM-1238,-81L-1235,-79L-1232,-77L-1228,-70L-1228,-69L-1235,-66L-1240,-63L-1243,-60L-1247,-62L-1246,-67L-1249,-74L-1248,-76L-1245,-79L-1247,-82L-1246,-84L-1244,-84ZM-1248,-93L-1249,-91L-1255,-89L-1258,-93L-1260,-95L-1260,-96L-1258,-97L-1252,-96ZM-1261,-100L-1261,-98L-1270,-99L-1269,-101ZM-1282,-110L-1281,-109L-1276,-103L-1277,-102L-1278,-102L-1284,-103L-1286,-107L-1286,-108ZM-1305,-119L-1304,-115L-1306,-113L-1312,-116L-1311,-118L-1308,-119ZM-1424,-1019L-1411,-1016L-1409,-1003L-1420,-998L-1431,-1004L-1441,-1013ZM-1201,-940L-1190,-938L-1183,-928L-1197,-913L-1214,-901L-1223,-909L-1225,-924L-1210,-935ZM-995,-1396L-995,-1230L-995,-1016L-979,-1015L-962,-1006L-950,-991L-935,-970L-919,-988L-902,-999L-893,-982L-882,-968L-866,-954L-856,-931L-839,-896L-810,-876L-810,-857L-819,-843L-828,-854L-843,-864L-848,-890L-870,-915L-879,-945L-895,-947L-922,-947L-941,-957L-976,-991L-992,-997L-1022,-1009L-1045,-1006L-1078,-1022L-1098,-1036L-1117,-1029L-1113,-1005L-1123,-1003L-1142,-996L-1157,-985L-1176,-978L-1178,-997L-1171,-1031L-1153,-1041L-1157,-1050L-1179,-1031L-1190,-1008L-1214,-984L-1202,-968L-1218,-945L-1236,-932L-1253,-922L-1257,-909L-1284,-893L-1289,-879L-1309,-866L-1320,-868L-1336,-860L-1353,-850L-1367,-840L-1396,-832L-1398,-837L-1380,-850L-1364,-859L-1346,-876L-1325,-879L-1316,-891L-1293,-910L-1289,-916L-1277,-927L-1274,-951L-1265,-970L-1285,-960L-1290,-966L-1299,-954L-1310,-971L-1315,-959L-1321,-975L-1338,-962L-1348,-962L-1350,-982L-1347,-994L-1358,-1006L-1380,-999L-1394,-1015L-1405,-1023L-1405,-1043L-1418,-1058L-1412,-1078L-1398,-1099L-1392,-1118L-1378,-1120L-1367,-1114L-1353,-1132L-1341,-1129L-1328,-1141L-1331,-1158L-1341,-1165L-1328,-1181L-1339,-1180L-1357,-1172L-1362,-1163L-1375,-1172L-1399,-1167L-1423,-1177L-1431,-1193L-1452,-1216L-1428,-1233L-1391,-1254L-1377,-1254L-1379,-1233L-1344,-1234L-1357,-1260L-1378,-1277L-1390,-1299L-1406,-1318L-1429,-1332L-1420,-1356L-1390,-1358L-1369,-1379L-1365,-1403L-1347,-1426L-1331,-1432L-1299,-1455L-1284,-1451L-1258,-1479L-1232,-1468L-1220,-1445L-1212,-1455L-1184,-1452L-1185,-1440L-1159,-1431L-1142,-1436L-1107,-1421L-1074,-1416L-1061,-1409L-1039,-1417L-1013,-1403ZM-1513,-1141L-1502,-1134L-1492,-1138L-1478,-1128L-1462,-1123L-1463,-1119L-1476,-1111L-1489,-1119L-1495,-1126L-1510,-1124L-1514,-1127Z" fill="#E0E0E0" stroke="#fff" stroke-width=".4"/><path d="M172,-74L173,-64L172,-57L168,-54L172,-49L172,-44L161,-47L153,-46L142,-47L135,-44L126,-50L127,-55L142,-53L155,-51L161,-55L154,-63L154,-70L143,-73L147,-78L157,-77Z" fill="#E0E0E0" stroke="#fff" stroke-width=".4"/><path d="M172,-44L172,-49L168,-54L172,-57L173,-64L172,-74L174,-77L187,-77L197,-72L201,-73L204,-66L214,-67L213,-62L221,-61L229,-54L223,-47L215,-51L207,-50L201,-51L198,-48L192,-47L189,-51L184,-49L177,-36L173,-39Z" fill="#E0E0E0" stroke="#fff" stroke-width=".4"/><path d="M49,-204L57,-205L68,-205L69,-200L51,-197ZM69,-209L83,-200L80,-187L77,-189L77,-199L69,-206ZM63,-174L68,-173L74,-158L74,-147L70,-146L65,-157L59,-162Z" fill="#E0E0E0" stroke="#fff" stroke-width=".4"/><path d="M-593,-315L-574,-317L-553,-319L-554,-315L-529,-305L-490,-291L-457,-292L-443,-292L-443,-300L-414,-300L-408,-293L-400,-286L-390,-278L-384,-268L-380,-257L-371,-251L-357,-245L-346,-261L-333,-261L-321,-253L-312,-240L-307,-229L-297,-218L-293,-205L-288,-196L-275,-190L-263,-186L-257,-187L-263,-170L-266,-157L-267,-132L-269,-123L-266,-113L-261,-105L-257,-91L-246,-77L-242,-67L-236,-58L-218,-53L-211,-46L-196,-51L-183,-53L-171,-56L-160,-59L-149,-66L-145,-77L-144,-92L-141,-97L-130,-102L-112,-106L-97,-105L-87,-107L-83,-103L-83,-94L-92,-84L-96,-73L-93,-70L-96,-62L-100,-48L-104,-53L-108,-52L-111,-52L-117,-41L-120,-43L-122,-43L-122,-40L-137,-40L-153,-40L-153,-30L-161,-30L-154,-24L-148,-20L-146,-17L-144,-15L-144,-9L-166,-9L-174,5L-171,8L-173,12L-174,17L-193,-2L-202,-7L-215,-12L-225,-11L-238,-4L-247,-2L-259,-7L-271,-10L-287,-18L-300,-21L-319,-29L-333,-37L-337,-42L-346,-43L-364,-49L-371,-57L-389,-67L-397,-78L-401,-87L-396,-89L-397,-94L-393,-98L-393,-105L-399,-113L-401,-120L-406,-129L-421,-148L-438,-162L-446,-174L-461,-181L-464,-186L-461,-197L-470,-202L-480,-211L-484,-224L-493,-226L-503,-236L-511,-245L-511,-251L-520,-266L-526,-281L-526,-288L-538,-296L-544,-295L-554,-301L-556,-293L-553,-283L-552,-268L-546,-260L-534,-247L-531,-243L-528,-241L-526,-235L-523,-235L-520,-223L-514,-218L-511,-211L-500,-201L-495,-184L-490,-176L-485,-167L-484,-157L-476,-157L-469,-148L-463,-140L-464,-137L-471,-130L-474,-130L-478,-141L-489,-152L-501,-161L-510,-165L-509,-179L-512,-189L-520,-195L-531,-203L-534,-201L-538,-206L-548,-210L-558,-221L-557,-223L-550,-222L-544,-229L-543,-238L-556,-251L-566,-257L-572,-269L-579,-282L-586,-297Z" fill="#E0E0E0" stroke="#fff" stroke-width=".4"/><path d="M481,870L476,858L483,849L474,835L460,824L443,812L437,812L420,797L409,799L431,773L451,754L462,746L476,736L476,721L468,710L460,714L463,703L465,692L465,682L459,678L453,681L446,681L444,674L443,657L440,651L428,646L422,650L404,646L405,622L400,612L405,608L404,598L408,590L411,576L407,565L398,560L396,553L399,543L366,542L360,522L365,522L365,514L361,509L361,499L351,494L340,494L333,489L322,486L315,479L296,476L278,461L279,449L277,443L279,430L257,433L248,439L233,446L230,451L221,452L209,450L199,453L191,451L192,425L179,435L164,435L157,426L146,425L150,418L140,407L133,392L138,389L138,382L148,377L146,368L151,362L152,354L171,342L185,339L187,336L202,337L210,291L210,284L208,274L200,268L200,256L210,253L213,255L214,248L204,246L204,236L236,236L242,230L247,236L250,246L253,244L262,253L276,252L279,246L291,242L298,240L300,233L312,228L311,224L297,223L295,212L295,201L288,196L291,195L304,197L317,201L322,197L334,195L353,188L359,182L357,177L365,176L369,180L367,188L373,190L377,198L372,204L369,218L374,227L375,235L385,243L394,243L395,240L401,239L408,236L414,232L423,233L427,233L436,234L438,231L435,227L437,222L444,224L452,222L461,226L469,229L474,225L478,225L480,230L488,229L494,223L500,210L509,195L515,194L519,203L529,233L538,236L538,247L526,261L531,266L561,269L561,286L574,275L595,281L623,291L631,301L629,310L648,305L681,314L706,313L731,327L753,346L766,351L780,352L786,357L792,379L795,389L788,417L779,428L756,452L745,471L732,486L728,487L723,499L725,532L720,559L718,571L713,578L710,602L693,625L690,644L676,652L672,662L654,662L628,669L616,678L597,683L577,698L563,716L560,730L563,741L560,760L556,769L544,780L526,814L511,830L499,839L492,858Z" fill="#E0E0E0" stroke="#fff" stroke-width=".4"/><path d="M209,450L221,452L230,451L233,446L248,439L257,433L279,430L277,443L279,449L278,461L296,476L315,479L322,486L333,489L340,494L351,494L361,499L361,509L365,514L365,522L360,522L366,542L399,543L396,553L398,560L407,565L411,576L408,590L404,598L405,608L400,612L400,606L384,597L368,597L339,602L331,618L330,628L324,649L321,645L302,645L295,659L285,646L263,642L249,658L237,661L231,636L221,615L227,598L218,591L216,578L207,566L218,547L211,532L215,526L212,520L218,511L219,496L219,484L223,478Z" fill="#E0E0E0" stroke="#fff" stroke-width=".4"/><path d="M202,337L187,336L185,339L171,342L152,354L151,362L146,368L148,377L138,382L138,389L133,392L140,407L150,418L146,425L157,426L164,435L179,435L192,425L191,451L199,453L209,450L223,478L219,484L219,496L218,511L212,520L215,526L211,532L218,547L207,566L203,575L194,579L177,569L176,562L143,544L112,525L99,514L92,500L95,495L81,472L64,441L48,407L41,399L36,386L23,375L11,368L17,361L8,345L14,333L27,322L29,329L24,333L25,339L32,338L38,340L46,348L55,341L58,330L69,315L89,309L107,291L112,280L110,267L115,266L126,274L131,282L139,286L149,304L161,306L171,301L177,304L187,303L200,311L189,328L194,328Z" fill="#E0E0E0" stroke="#fff" stroke-width=".4"/><path d="M253,244L250,246L247,236L242,230L236,236L204,236L204,246L214,248L213,255L210,253L200,256L200,268L208,274L210,284L210,291L202,337L194,328L189,328L200,311L187,303L177,304L171,301L161,306L149,304L139,286L131,282L126,274L115,266L110,267L103,263L95,258L90,260L76,258L71,251L68,251L51,242L49,236L55,235L55,227L59,221L67,219L74,209L81,200L74,196L77,186L74,171L77,166L75,152L68,143L70,135L75,136L79,131L75,121L77,118L85,119L98,107L105,105L105,99L108,85L118,77L129,77L130,73L143,74L156,66L163,62L171,54L177,55L181,59L178,65L167,68L163,77L157,81L152,88L150,100L145,110L154,111L156,119L160,123L161,130L159,136L159,139L164,141L168,147L189,145L199,147L211,162L218,160L230,161L239,159L245,162L242,171L239,177L237,189L241,200L245,205L246,209L237,217L244,221L248,227Z" fill="#E0E0E0" stroke="#fff" stroke-width=".4"/><path d="M77,118L75,121L79,131L75,136L70,135L68,143L62,138L59,129L63,124L59,123L55,117L47,113L40,114L36,120L29,124L26,125L24,128L32,137L28,139L25,142L17,143L14,133L12,136L7,135L3,128L-4,127L-8,125L-15,125L-16,128L-18,126L-17,122L-16,119L-16,116L-14,114L-17,111L-17,104L-11,103L-5,109L-5,113L2,113L3,112L8,116L16,115L23,111L34,107L39,102L49,103L48,105L57,105L65,108L70,113Z" fill="#E0E0E0" stroke="#fff" stroke-width=".4"/><path d="M-11,103L-17,104L-17,111L-14,114L-16,116L-16,119L-17,122L-18,126L-27,122L-30,118L-28,115L-29,112L-34,108L-40,104L-46,102L-47,97L-52,94L-51,99L-54,103L-58,98L-63,97L-65,93L-65,88L-63,83L-68,80L-64,77L-61,75L-50,79L-47,77L-41,78L-38,82L-33,83L-29,79L-25,89L-19,96Z" fill="#E0E0E0" stroke="#fff" stroke-width=".4"/><path d="M-29,79L-33,83L-38,82L-41,78L-47,77L-50,79L-61,75L-64,77L-70,71L-78,65L-81,59L-89,53L-97,46L-95,43L-92,45L-91,44L-86,43L-84,40L-81,39L-82,31L-78,30L-74,31L-71,26L-66,29L-64,27L-61,25L-55,20L-55,17L-53,17L-51,13L-49,12L-46,15L-43,16L-39,14L-35,14L-29,11L-27,9L-21,9L-22,11L-23,15L-21,21L-25,27L-27,34L-28,42L-27,46L-26,54L-29,56L-31,63L-29,68L-33,72L-32,77Z" fill="#E0E0E0" stroke="#fff" stroke-width=".4"/><path d="M-21,9L-27,9L-29,11L-35,14L-39,14L-43,16L-46,15L-49,12L-51,13L-53,17L-55,17L-55,20L-61,25L-64,27L-66,29L-71,26L-74,31L-78,30L-82,31L-81,39L-84,40L-86,43L-91,44L-94,39L-99,37L-98,30L-100,28L-104,27L-111,29L-112,27L-117,24L-120,21L-125,19L-122,15L-123,11L-122,8L-114,3L-106,-3L-105,-3L-101,-6L-96,-6L-95,-5L-92,-6L-84,-4L-76,-4L-71,-6L-69,-8L-64,-7L-60,-6L-55,-7L-52,-8L-44,-6L-41,-5L-36,-2L-31,2L-25,5Z" fill="#E0E0E0" stroke="#fff" stroke-width=".4"/><path d="M-125,19L-120,21L-117,24L-112,27L-111,29L-104,27L-100,28L-98,30L-99,37L-101,41L-111,41L-117,39L-124,36L-133,35L-138,31L-137,29L-132,24L-128,22L-129,20Z" fill="#E0E0E0" stroke="#fff" stroke-width=".4"/><path d="M-174,17L-173,12L-171,8L-174,5L-166,-9L-144,-9L-144,-15L-146,-17L-148,-20L-154,-24L-161,-30L-153,-30L-153,-40L-137,-40L-122,-40L-122,-26L-123,-6L-118,-6L-113,-3L-111,-6L-106,-3L-114,3L-122,8L-123,11L-122,15L-125,19L-129,20L-128,22L-132,24L-137,29L-138,31L-146,28L-157,28L-165,24Z" fill="#E0E0E0" stroke="#fff" stroke-width=".4"/><path d="M-122,-40L-122,-43L-120,-43L-117,-41L-111,-52L-108,-52L-108,-50L-104,-50L-105,-45L-107,-37L-106,-34L-108,-28L-107,-26L-109,-18L-112,-13L-115,-12L-118,-6L-123,-6L-122,-26Z" fill="#E0E0E0" stroke="#fff" stroke-width=".4"/><path d="M357,177L359,182L353,188L334,195L322,197L317,201L304,197L291,195L288,196L295,201L295,212L297,223L311,224L312,228L300,233L298,240L291,242L279,246L276,252L262,253L253,244L248,227L244,221L237,217L246,209L245,205L241,200L237,189L239,177L242,171L245,162L239,159L230,161L218,160L211,162L199,147L189,145L168,147L164,141L159,139L159,136L161,130L160,123L156,119L154,111L145,110L150,100L152,88L157,81L163,77L167,68L178,65L178,69L168,71L173,79L173,88L166,98L172,111L179,110L183,98L178,92L177,79L198,72L196,64L202,58L208,70L219,71L230,80L231,86L246,86L264,84L274,92L287,94L296,89L296,85L317,84L337,83L323,88L329,96L342,98L355,106L358,120L366,119L373,123L360,133L358,140L364,146L360,149L349,152L350,160L345,164Z" fill="#E0E0E0" stroke="#fff" stroke-width=".4"/><path d="M461,226L452,222L444,224L437,222L435,227L438,231L436,234L427,233L417,218L415,209L409,209L402,196L405,188L404,184L414,179L417,164L437,167L439,164L453,163L471,168L462,182L463,194L470,204L467,211L466,219Z" fill="#E0E0E0" stroke="#fff" stroke-width=".4"/><path d="M509,195L500,210L494,223L488,229L480,230L478,225L474,225L469,229L461,226L466,219L467,211L470,204L463,194L462,182L471,168L477,170L489,174L507,188ZM1484,-697L1492,-690L1516,-685L1507,-668L1505,-650L1501,-645L1493,-648L1494,-641L1481,-627L1481,-616L1489,-620L1495,-610L1494,-603L1499,-594L1493,-586L1498,-568L1507,-565L1505,-555L1490,-542L1456,-548L1432,-541L1430,-527L1410,-524L1391,-534L1385,-529L1354,-540L1348,-549L1356,-563L1359,-610L1342,-636L1330,-648L1304,-658L1302,-676L1324,-682L1352,-675L1347,-705L1363,-694L1402,-714L1407,-736L1422,-741L1424,-732L1432,-731L1440,-720L1452,-708L1460,-710L1475,-698L1479,-696ZM1527,-530L1538,-539L1541,-519L1535,-502L1527,-507L1523,-522Z" fill="#E0E0E0" stroke="#fff" stroke-width=".4"/><path d="M110,267L112,280L107,291L89,309L69,315L58,330L55,341L46,348L38,340L32,338L25,339L24,333L29,329L27,322L36,310L32,302L26,310L16,303L19,298L16,283L22,280L25,270L32,259L31,252L40,248L51,242L68,251L71,251L76,258L90,260L95,258L103,263Z" fill="#E0E0E0" stroke="#fff" stroke-width=".4"/><path d="M263,-53L272,-51L275,-48L271,-43L258,-43L248,-43L247,-50L249,-53Z" fill="#E0E0E0" stroke="#fff" stroke-width=".4"/><path d="M73,-52L84,-51L93,-46L96,-41L84,-41L79,-38L70,-41L60,-47L62,-52L69,-53Z" fill="#E0E0E0" stroke="#fff" stroke-width=".4"/><path d="M-6,-137L8,-136L22,-135L38,-129L44,-122L60,-125L66,-120L80,-109L91,-101L96,-101L106,-97L105,-92L118,-92L130,-84L128,-80L117,-78L106,-77L94,-78L70,-77L81,-87L74,-91L64,-92L58,-98L54,-108L44,-107L28,-112L23,-116L2,-119L-4,-122L2,-127L-15,-128L-27,-118L-34,-118L-36,-114L-44,-112L-52,-113L-43,-119L-39,-125L-31,-130L-23,-133L-10,-135Z" fill="#E0E0E0" stroke="#fff" stroke-width=".4"/><path d="M341,82L350,80L354,81L353,94L339,96L336,94L341,89Z" fill="#E0E0E0" stroke="#fff" stroke-width=".4"/></g><g clip-path="url(#v)"><path d="M356.5,177.1L352.9,173.1L349.4,169.1L345.8,165.1L345.6,164.6L347.1,162.7L348.4,161.4L349.5,160.6L350.0,159.9L349.6,157.0L349.6,156.0L349.1,154.8L348.8,153.6L349.2,152.5L349.7,151.8L350.4,151.5L352.0,151.3L353.2,151.1L353.6,150.7L354.3,150.2L355.2,150.2L356.9,150.6L357.7,149.9L359.1,149.0L362.3,147.5L363.1,146.5L363.6,145.0L363.6,144.3L363.2,144.1L362.4,143.8L361.2,143.8L360.2,144.2L359.2,144.0L358.3,143.0L358.3,142.2L358.8,141.2L358.5,140.4L356.9,138.1L356.9,137.5L358.1,136.5L358.8,135.6L359.6,133.5L360.3,132.8L362.6,132.5L363.2,132.1L364.3,131.0L366.0,129.7L368.5,128.7L369.2,126.9L369.6,126.4L371.6,125.4L371.9,124.9L371.9,124.4L368.7,120.3L369.3,120.5L371.7,123.3L373.1,123.9L373.4,123.9L373.4,123.1L374.6,123.4L377.8,125.3L382.5,128.3L389.0,134.1L390.9,136.3L392.1,137.3L394.1,139.9L394.7,141.1L394.6,146.0L392.9,149.3L392.5,151.7L392.4,155.1L391.4,156.9L392.7,155.9L393.1,152.9L394.2,151.1L395.7,149.1L397.7,148.7L399.8,149.5L401.5,149.6L403.0,150.2L406.2,153.4L409.3,155.9L410.4,157.9L413.8,158.9L415.7,160.5L416.3,161.9L416.7,165.5L416.1,170.9L416.2,171.2L415.3,172.3L415.2,173.0L414.6,174.2L414.2,174.8L414.8,176.3L415.6,176.4L415.9,176.6L416.1,176.9L416.0,177.2L415.7,177.4L415.0,177.8L414.3,178.7L414.4,179.7L413.9,180.2L412.6,180.4L409.9,180.4L408.6,180.5L407.6,180.6L406.8,181.2L406.0,181.7L405.3,181.8L404.7,182.5L404.1,183.5L404.3,184.2L404.9,185.1L405.3,186.1L404.8,187.6L404.3,188.8L403.9,189.7L403.6,191.5L402.5,193.4L401.8,194.5L401.8,195.7L402.2,197.3L404.2,199.8L405.0,201.0L405.5,202.8L407.4,204.3L408.6,205.5L408.5,207.1L408.7,207.6L409.4,208.0L410.3,208.3L411.3,208.3L412.2,208.1L412.4,207.9L414.4,207.9L414.7,208.3L414.8,210.6L414.8,211.5L415.3,211.8L415.6,212.4L415.6,212.9L415.8,214.2L416.1,214.9L416.0,216.2L416.2,216.7L416.8,217.1L417.5,218.0L417.8,218.2L417.9,218.5L418.5,219.9L418.9,220.3L419.0,220.4L419.2,220.8L419.6,222.1L419.9,222.5L420.5,223.4L420.7,224.5L421.5,225.6L422.2,226.4L422.5,227.3L423.6,229.2L424.5,230.5L425.8,230.8L426.9,231.0L427.6,231.5L428.2,232.1L427.5,232.3L426.9,232.7L426.0,232.4L424.7,232.6L423.5,232.9L422.3,233.1L420.1,232.5L419.4,232.4L418.9,232.2L418.0,231.0L417.5,230.9L416.4,231.4L414.9,231.8L414.2,231.7L413.3,232.1L412.6,232.6L411.1,234.9L410.4,235.7L409.5,236.1L407.9,236.1L406.1,236.2L404.8,236.7L403.6,237.0L403.0,237.0L402.8,238.3L402.5,238.8L402.1,239.2L401.1,239.3L400.3,239.3L399.8,238.7L398.8,238.5L397.9,238.3L397.4,238.0L397.0,238.1L396.6,238.6L396.3,239.0L396.1,239.8L394.7,240.1L394.2,240.6L394.5,242.1L394.4,242.7L394.1,243.1L392.5,243.3L391.1,243.2L390.4,243.8L389.4,244.4L388.8,244.6L388.2,244.5L387.3,243.8L386.4,242.8L384.2,242.2L382.0,241.6L380.5,240.1L380.2,239.4L379.5,239.1L377.8,237.3L376.8,236.2L375.8,235.9L374.6,235.4L374.6,234.6L374.6,233.8L374.1,233.4L373.4,233.2L373.1,232.8L373.2,231.7L373.3,229.1L373.1,226.5L371.6,225.6L370.9,225.0L369.7,221.2L369.1,219.5L369.1,218.2L369.5,214.4L369.9,212.8L371.1,209.5L371.9,208.4L371.9,207.5L371.8,206.5L371.4,204.3L373.6,203.0L374.4,202.4L374.6,201.6L375.7,200.4L376.2,199.3L376.6,198.5L376.5,198.0L376.0,197.8L375.4,197.0L374.2,194.7L373.8,194.2L373.4,193.6L373.6,192.5L374.0,191.4L374.0,190.9L373.3,190.3L371.8,189.3L370.6,189.3L369.6,188.9L368.2,188.9L367.1,188.7L366.5,188.4L366.6,187.8L366.9,187.3L367.9,186.1L368.5,184.9L368.6,183.6L368.8,182.0L369.0,180.7L369.2,179.1L367.7,178.0L367.3,177.2L366.6,176.5L366.0,176.5L364.9,176.1L363.4,177.1L362.1,176.9L361.2,177.3L359.3,177.2L358.0,176.7Z" fill="#4ECDC4" stroke="#2C3E50" stroke-width="1"/></g><circle cx="400.0" cy="150.0" r="4" fill="#E74C3C" stroke="#fff" stroke-width="2"/><text x="400.0" y="140.0" text-anchor="middle" font-family="sans-serif" font-weight="700" font-size="10" fill="#2D3436">Georgetown</text></svg>