<svg viewBox="0 0 800 300" xmlns="http://www.w3.org/2000/svg"><defs><clipPath id="v"><rect width="800" height="300"/></clipPath></defs><rect width="800" height="300" fill="#DCEEF8"/><g clip-path="url(#v)"><path d="M995,-77L998,-55L996,-39L986,-32L996,-20L995,-9L970,-16L952,-13L928,-16L910,-9L890,-21L893,-34L928,-29L957,-25L971,-34L954,-52L954,-68L930,-74L938,-85L962,-83Z" fill="#E0E0E0" stroke="#fff" stroke-width=".4"/><path d="M995,-9L996,-20L986,-32L996,-39L998,-55L995,-77L1000,-84L1030,-84L1053,-73L1063,-74L1070,-60L1091,-61L1090,-48L1107,-47L1126,-32L1111,-16L1093,-24L1075,-23L1063,-25L1056,-17L1041,-15L1035,-25L1022,-19L1007,9L997,3Z" fill="#E0E0E0" stroke="#fff" stroke-width=".4"/><path d="M-751,-628L-707,-631L-659,-636L-662,-627L-604,-605L-516,-573L-440,-574L-409,-574L-409,-592L-343,-592L-329,-576L-309,-562L-286,-542L-273,-519L-264,-495L-244,-481L-212,-468L-188,-503L-156,-504L-129,-486L-110,-456L-97,-431L-74,-406L-66,-375L-55,-355L-25,-342L2,-332L17,-334L3,-296L-4,-266L-7,-210L-11,-189L-4,-167L8,-147L16,-115L41,-84L50,-61L65,-41L106,-30L122,-13L156,-24L185,-29L214,-36L238,-43L262,-59L272,-83L275,-118L281,-130L307,-140L348,-150L382,-149L405,-152L414,-143L413,-123L393,-99L383,-74L391,-67L385,-49L375,-18L365,-28L357,-28L350,-27L336,-3L329,-7L325,-5L325,0L289,0L254,0L253,23L236,23L250,36L265,46L269,54L275,57L274,70L225,71L206,103L212,110L207,120L206,131L163,88L143,76L112,65L90,68L59,83L40,87L13,76L-16,69L-52,51L-81,45L-124,26L-157,7L-166,-4L-188,-6L-227,-19L-243,-38L-285,-61L-304,-86L-313,-106L-300,-110L-304,-122L-295,-133L-295,-147L-308,-166L-311,-182L-324,-203L-358,-245L-397,-278L-416,-304L-449,-321L-456,-332L-450,-358L-469,-368L-492,-389L-502,-420L-522,-423L-545,-446L-563,-467L-564,-481L-585,-515L-599,-549L-598,-566L-626,-584L-639,-582L-661,-594L-667,-576L-660,-554L-657,-521L-644,-503L-615,-472L-609,-462L-603,-459L-598,-444L-591,-444L-583,-416L-571,-405L-563,-390L-539,-368L-526,-328L-515,-309L-504,-289L-502,-267L-484,-266L-468,-247L-454,-228L-455,-220L-471,-205L-478,-205L-488,-231L-513,-255L-541,-275L-561,-286L-560,-317L-566,-340L-584,-353L-610,-372L-615,-367L-625,-378L-649,-388L-671,-414L-669,-417L-653,-414L-638,-431L-637,-450L-667,-482L-689,-494L-703,-522L-718,-551L-736,-587Z" fill="#E0E0E0" stroke="#fff" stroke-width=".4"/><path d="M1700,2077L1690,2051L1707,2030L1684,1999L1654,1973L1615,1945L1600,1946L1562,1912L1537,1916L1588,1856L1631,1814L1657,1796L1690,1772L1690,1738L1671,1713L1652,1721L1660,1697L1665,1672L1665,1648L1651,1641L1637,1648L1622,1646L1618,1630L1614,1591L1607,1579L1581,1568L1565,1576L1525,1568L1527,1512L1516,1489L1528,1480L1524,1457L1535,1439L1542,1407L1533,1382L1512,1371L1507,1355L1513,1332L1439,1330L1425,1284L1436,1283L1435,1266L1428,1254L1426,1231L1404,1220L1380,1220L1364,1209L1338,1201L1323,1186L1279,1179L1238,1144L1241,1118L1236,1103L1240,1074L1190,1080L1170,1095L1136,1111L1127,1123L1108,1124L1079,1120L1057,1127L1040,1122L1042,1063L1011,1086L977,1085L962,1064L937,1062L945,1045L924,1022L908,987L918,980L918,963L941,952L937,931L947,918L950,900L994,873L1025,866L1030,860L1065,862L1082,756L1083,740L1077,718L1060,704L1060,676L1082,669L1090,673L1091,659L1069,655L1068,631L1143,631L1156,618L1166,630L1174,653L1181,648L1202,669L1232,666L1240,654L1268,645L1284,639L1288,623L1316,612L1314,604L1281,600L1276,576L1278,550L1260,540L1267,537L1296,542L1327,551L1338,542L1365,536L1408,522L1422,507L1417,496L1437,495L1446,503L1441,520L1454,526L1463,544L1453,558L1446,590L1456,610L1459,628L1483,646L1502,648L1506,640L1518,639L1535,632L1548,622L1569,625L1578,623L1599,627L1603,619L1596,611L1600,600L1616,603L1634,599L1656,608L1673,616L1685,605L1693,607L1698,618L1717,615L1732,600L1743,572L1766,537L1779,535L1789,556L1810,623L1831,630L1832,656L1803,688L1815,700L1883,706L1884,744L1914,719L1962,733L2026,756L2045,779L2038,800L2083,788L2158,809L2215,807L2272,839L2321,882L2351,893L2384,895L2398,907L2411,956L2417,980L2402,1044L2382,1069L2328,1124L2304,1168L2275,1202L2265,1203L2255,1232L2257,1307L2247,1368L2243,1395L2230,1411L2224,1465L2185,1519L2178,1561L2147,1579L2138,1604L2096,1604L2036,1620L2009,1639L1966,1651L1920,1685L1888,1727L1882,1759L1889,1783L1881,1827L1873,1848L1846,1872L1803,1951L1769,1986L1743,2008L1726,2051Z" fill="#E0E0E0" stroke="#fff" stroke-width=".4"/><path d="M1181,648L1174,653L1166,630L1156,618L1143,631L1068,631L1069,655L1091,659L1090,673L1082,669L1060,676L1060,704L1077,718L1083,740L1082,756L1065,862L1046,841L1034,841L1059,801L1030,783L1007,787L993,780L971,790L943,785L920,745L902,735L890,717L865,699L854,702L838,693L819,681L808,687L775,681L766,665L759,665L720,643L715,631L730,629L728,609L737,595L756,593L772,569L787,548L773,539L780,517L771,482L780,471L773,439L758,418L763,399L775,402L782,390L774,368L778,362L798,363L827,336L843,332L843,319L850,286L872,268L896,267L900,259L930,262L960,242L975,233L994,214L1007,217L1017,227L1010,241L985,247L975,267L960,278L949,292L945,320L934,343L954,346L959,364L967,372L970,388L966,402L967,410L976,413L986,427L1035,423L1057,428L1084,461L1100,457L1128,459L1150,455L1163,462L1156,482L1148,496L1145,523L1152,549L1163,560L1165,569L1145,588L1159,596L1169,610Z" fill="#E0E0E0" stroke="#fff" stroke-width=".4"/><path d="M778,362L774,368L782,390L775,402L763,399L758,418L745,407L737,386L746,375L737,373L729,360L710,349L693,352L686,365L670,375L662,376L658,384L676,405L666,410L660,416L642,418L636,395L631,402L618,399L610,384L594,381L584,377L568,377L567,385L562,379L564,371L568,364L566,357L572,352L564,346L564,330L579,327L592,341L592,349L607,351L610,348L621,357L640,355L656,345L680,337L693,325L714,327L713,331L734,333L751,339L764,351Z" fill="#E0E0E0" stroke="#fff" stroke-width=".4"/><path d="M579,327L564,330L564,346L572,352L566,357L568,364L564,371L562,379L542,371L534,362L538,356L537,347L526,338L511,330L498,325L495,314L485,307L488,318L480,327L471,317L459,313L454,305L454,293L459,281L448,275L457,267L463,262L488,273L497,268L509,271L515,279L527,282L536,273L546,295L561,310Z" fill="#E0E0E0" stroke="#fff" stroke-width=".4"/><path d="M536,273L527,282L515,279L509,271L497,268L488,273L463,262L457,267L444,255L426,239L417,226L401,214L382,196L386,190L392,196L395,193L407,191L412,182L418,182L417,163L426,162L434,162L442,151L453,159L457,154L464,150L478,139L478,131L482,131L487,121L491,120L498,126L505,128L514,123L524,123L537,118L542,112L555,113L552,117L550,126L554,140L545,154L541,170L540,187L542,197L543,215L537,219L533,236L536,246L528,256L530,267Z" fill="#E0E0E0" stroke="#fff" stroke-width=".4"/><path d="M317,136L328,139L336,147L348,154L349,159L366,154L374,157L379,161L377,177L373,186L350,186L336,182L321,174L299,172L288,163L290,157L303,147L310,143L308,138Z" fill="#E0E0E0" stroke="#fff" stroke-width=".4"/><path d="M206,131L207,120L212,110L206,103L225,71L274,70L275,57L269,54L265,46L250,36L236,23L253,23L254,0L289,0L325,0L325,32L322,78L333,78L346,85L349,79L360,84L343,99L325,110L322,118L325,126L317,136L308,138L310,143L303,147L290,157L288,163L269,156L245,156L227,148Z" fill="#E0E0E0" stroke="#fff" stroke-width=".4"/><path d="M325,0L325,-5L329,-7L336,-3L350,-27L357,-28L357,-22L365,-21L364,-10L358,7L361,13L357,28L360,32L355,52L348,63L341,64L333,78L322,78L325,32Z" fill="#E0E0E0" stroke="#fff" stroke-width=".4"/><path d="M1417,496L1422,507L1408,522L1365,536L1338,542L1327,551L1296,542L1267,537L1260,540L1278,550L1276,576L1281,600L1314,604L1316,612L1288,623L1284,639L1268,645L1240,654L1232,666L1202,669L1181,648L1169,610L1159,596L1145,588L1165,569L1163,560L1152,549L1145,523L1148,496L1156,482L1163,462L1150,455L1128,459L1100,457L1084,461L1057,428L1035,423L986,427L976,413L967,410L966,402L970,388L967,372L959,364L954,346L934,343L945,320L949,292L960,278L975,267L985,247L1010,241L1009,250L986,254L999,272L998,293L981,315L996,346L1012,344L1021,316L1009,302L1007,272L1055,256L1050,238L1063,225L1077,253L1104,254L1129,275L1130,288L1165,289L1206,285L1228,302L1257,307L1279,295L1279,285L1327,283L1373,282L1341,294L1354,312L1384,315L1413,334L1420,365L1440,365L1455,374L1424,396L1421,411L1434,425L1425,432L1401,438L1402,456L1391,467Z" fill="#E0E0E0" stroke="#fff" stroke-width=".4"/><path d="M770,-27L796,-23L816,-14L823,-3L796,-2L784,5L762,-2L740,-16L745,-26L761,-28Z" fill="#E0E0E0" stroke="#fff" stroke-width=".4"/><path d="M589,-220L622,-218L653,-217L689,-203L704,-188L740,-192L754,-183L786,-157L810,-138L823,-139L846,-130L843,-119L871,-117L900,-100L896,-91L870,-85L844,-83L818,-87L763,-83L789,-106L773,-116L748,-119L735,-131L726,-154L704,-153L668,-164L657,-173L606,-179L593,-187L607,-197L570,-200L542,-178L526,-177L521,-167L502,-163L485,-167L505,-179L514,-194L531,-204L551,-212L580,-216Z" fill="#E0E0E0" stroke="#fff" stroke-width=".4"/></g><g clip-path="url(#v)"><path d="M555.0,113.3L545.2,112.7L540.5,114.0L538.4,116.7L536.7,118.0L535.2,117.7L532.3,118.8L527.7,121.2L523.7,122.2L520.1,121.6L519.1,122.2L518.9,122.9L518.3,123.8L516.9,124.2L515.3,124.0L513.5,123.1L512.5,123.4L512.4,125.1L511.4,125.5L509.6,124.7L507.5,125.3L505.2,127.2L502.0,127.6L497.8,126.5L494.6,124.5L492.3,121.4L489.5,120.6L484.8,122.9L482.7,125.6L482.3,127.2L482.7,128.7L481.9,129.6L479.7,130.1L478.0,131.9L476.8,135.1L476.6,137.5L477.3,139.2L476.2,140.4L473.3,141.2L469.9,143.9L465.8,148.4L462.0,151.7L458.0,153.5L456.2,155.5L456.2,157.7L456.0,158.4L455.2,158.6L453.9,158.9L446.3,154.2L444.3,150.8L442.3,151.3L440.0,153.0L436.6,156.8L433.0,161.9L431.2,162.5L422.2,161.7L417.5,162.1L416.6,162.8L416.2,164.7L416.4,167.2L417.7,176.2L418.4,179.9L417.7,181.1L415.3,181.3L412.1,181.8L410.5,183.5L410.1,185.3L409.9,187.7L408.8,190.2L406.9,192.0L405.1,192.7L394.3,193.1L394.6,189.0L391.4,187.3L389.7,183.8L388.2,181.5L388.6,180.1L388.5,178.4L384.2,177.1L380.0,178.1L377.7,177.4L376.0,176.6L378.9,174.5L379.2,173.3L378.2,172.3L377.3,171.8L377.5,169.4L378.1,166.7L379.7,160.2L379.2,159.0L376.4,157.1L373.0,156.9L369.2,157.5L367.4,156.6L365.8,154.4L363.0,153.3L358.3,155.1L353.2,157.7L351.6,158.7L350.3,158.6L349.7,156.6L349.4,154.2L349.2,153.6L346.4,152.8L343.2,152.2L341.7,151.5L340.2,149.9L336.3,147.8L335.5,146.3L330.3,142.7L329.4,141.0L328.3,139.7L325.8,138.1L323.8,138.5L317.5,136.5L316.5,136.3L317.3,134.5L319.4,131.8L323.8,128.7L324.1,126.2L323.0,121.5L321.9,118.4L322.4,117.0L323.8,111.5L324.9,110.2L331.3,107.4L331.9,107.0L337.0,103.0L342.5,98.7L348.3,93.9L354.8,88.5L358.4,85.4L360.1,84.0L363.8,85.1L366.7,82.5L368.4,81.7L372.4,78.7L373.7,78.0L380.3,76.7L383.5,76.8L386.4,79.8L388.6,81.6L392.8,80.1L396.4,79.8L410.9,82.7L416.7,81.4L427.2,81.1L432.1,81.8L438.9,77.8L443.1,76.9L448.3,75.0L447.6,73.0L446.3,72.2L454.1,73.0L465.6,77.2L477.9,76.4L482.3,74.2L485.2,73.6L497.8,77.8L501.1,81.1L503.8,81.4L505.7,80.7L506.3,80.0L503.8,79.3L502.7,78.2L512.6,80.3L531.3,95.6L531.7,96.9L523.7,92.4L519.4,92.7L518.3,93.4L518.6,95.9L519,97.1L520.8,97.2L522.2,96.5L525.5,97.4L527.6,99.0L530.2,101.5L531.9,104.3L533.5,104.4L535.2,102.7L538.4,102.5L540.5,104.3L542.0,104.2L539.9,101.3L535.1,98.5L536.3,98.4L547.0,103.5L549.9,109.9L552.5,111.3ZM429.6,58.0L423.5,61.1L421.6,61.1L424.3,58.6L428.9,56.6L432.8,55.6L435.9,56.0ZM450.8,54.7L447.9,57.0L447.3,55.9L448.7,53.8L450.5,52.6L452.1,52.7L451.7,53.6Z" fill="#4ECDC4" stroke="#2C3E50" stroke-width="1"/></g><circle cx="400.0" cy="150.0" r="4" fill="#E74C3C" stroke="#fff" stroke-width="2"/><text x="400.0" y="140.0" text-anchor="middle" font-family="sans-serif" font-weight="700" font-size="10" fill="#2D3436">Tegucigalpa</text></svg>