<svg viewBox="0 0 800 300" xmlns="http://www.w3.org/2000/svg"><defs><clipPath id="v"><rect width="800" height="300"/></clipPath></defs><rect width="800" height="300" fill="#DCEEF8"/><g clip-path="url(#v)"><path d="M-1038,1160L-1050,1179L-1057,1195L-1065,1203L-1075,1204L-1078,1198L-1083,1197L-1090,1203L-1099,1199L-1093,1190L-1092,1180L-1088,1171L-1096,1158L-1098,1144L-1087,1125L-1080,1128L-1064,1133L-1041,1151ZM192,35L202,43L232,49L222,71L219,94L213,99L204,96L204,104L189,122L188,136L198,131L206,144L205,153L211,165L204,174L209,197L221,201L218,213L199,230L157,222L126,231L124,249L99,253L75,240L67,246L28,233L20,221L31,204L35,144L13,111L-3,95L-35,83L-37,60L-10,53L26,61L19,24L39,38L89,13L95,-15L114,-21L117,-10L127,-9L137,4L151,20L162,18L181,32L186,35ZM246,244L260,233L264,258L256,280L247,274L242,255Z" fill="#E0E0E0" stroke="#fff" stroke-width=".4"/><path d="M820,512L816,519L808,516L804,533L809,536L804,539L803,546L813,542L813,552L803,591L801,585L789,549L795,541L793,539L799,528L803,509L806,502L807,502L814,502L816,497L822,497L822,508L819,511Z" fill="#E0E0E0" stroke="#fff" stroke-width=".4"/><path d="M822,497L816,497L814,502L807,502L815,481L825,463L826,462L835,463L839,473L827,483Z" fill="#E0E0E0" stroke="#fff" stroke-width=".4"/><path d="M262,571L253,527L240,517L239,511L222,495L220,476L233,462L238,440L235,415L239,402L262,391L277,394L277,408L295,398L296,403L286,416L285,428L293,435L290,457L276,470L280,484L291,485L296,497L305,501L303,520L293,527L286,535L272,545L274,555L272,566Z" fill="#E0E0E0" stroke="#fff" stroke-width=".4"/><path d="M-124,642L-124,637L-124,636L-124,607L-90,589L-69,586L-51,579L-43,567L-18,557L-17,538L-5,536L5,527L32,523L36,513L31,508L23,481L22,465L14,449L35,434L58,430L71,419L91,411L128,406L163,404L173,408L193,397L216,397L225,403L239,402L235,415L238,440L233,462L220,476L222,495L239,511L240,517L253,527L262,571L269,593L270,604L266,624L268,635L265,648L267,663L258,673L271,690L272,700L279,713L289,709L306,720L315,735L243,778L181,823L151,833L127,835L127,821L117,817L104,811L99,800L27,750L-44,699Z" fill="#E0E0E0" stroke="#fff" stroke-width=".4"/><path d="M816,519L820,512L843,522L885,495L894,525L889,529L847,542L868,566L861,571L858,579L841,582L836,591L827,599L803,595L803,591L813,552L813,542L816,535Z" fill="#E0E0E0" stroke="#fff" stroke-width=".4"/><path d="M894,525L885,495L932,468L940,436L938,417L950,411L961,394L970,390L994,394L1002,400L1012,396L1026,427L1040,435L1041,450L1031,459L1026,479L1041,504L1067,518L1077,537L1074,555L1081,555L1081,568L1093,581L1080,580L1066,578L1050,601L1011,599L951,550L919,532Z" fill="#E0E0E0" stroke="#fff" stroke-width=".4"/><path d="M1093,581L1081,568L1081,555L1074,555L1077,537L1067,518L1041,504L1026,479L1031,459L1041,450L1040,435L1026,427L1012,396L1000,374L1005,366L998,335L1013,327L1016,337L1027,350L1041,353L1049,353L1074,332L1082,330L1088,338L1081,352L1094,366L1099,365L1106,385L1126,390L1141,404L1171,408L1205,401L1207,395L1225,390L1240,374L1255,375L1264,370L1279,373L1303,386L1319,389L1344,413L1360,414L1361,436L1353,468L1347,487L1356,491L1347,505L1354,525L1356,541L1372,545L1374,561L1354,583L1365,596L1373,611L1394,621L1394,642L1405,646L1406,657L1376,670L1368,697L1328,690L1304,685L1280,681L1271,652L1261,648L1245,652L1223,664L1197,656L1176,638L1156,631L1141,608L1126,575L1114,579L1101,571Z" fill="#E0E0E0" stroke="#fff" stroke-width=".4"/><path d="M820,512L819,511L822,508L822,497L827,483L839,473L835,463L826,462L824,442L829,431L834,426L840,420L841,405L848,410L872,403L883,408L900,408L925,398L936,398L961,394L950,411L938,417L940,436L932,468L885,495L843,522Z" fill="#E0E0E0" stroke="#fff" stroke-width=".4"/><path d="M1049,353L1041,353L1033,338L1033,333L1023,333L1017,326L1013,327L1004,319L988,312L990,298L987,288L1016,284L1021,291L1029,296L1025,303L1036,313L1030,322L1039,329L1048,334Z" fill="#E0E0E0" stroke="#fff" stroke-width=".4"/><path d="M295,-308L304,-332L322,-361L329,-412L315,-435L314,-496L328,-541L349,-540L356,-559L348,-576L381,-648L403,-708L417,-748L437,-748L443,-780L483,-770L486,-809L499,-811L528,-782L561,-743L561,-659L568,-638L532,-624L511,-588L515,-558L481,-519L440,-478L424,-414L439,-383L460,-359L440,-312L418,-303L410,-235L398,-199L372,-203L360,-173L335,-171L329,-207L311,-251Z" fill="#E0E0E0" stroke="#fff" stroke-width=".4"/><path d="M659,-202L682,-192L685,-183L696,-187L717,-178L719,-161L714,-151L727,-127L736,-120L735,-114L749,-107L755,-98L747,-90L730,-91L726,-88L731,-76L736,-54L718,-52L711,-44L710,-27L701,-30L682,-29L677,-37L669,-31L661,-36L644,-37L620,-45L599,-47L582,-47L571,-37L560,-36L560,-51L553,-67L566,-75L566,-89L560,-102L560,-118L580,-118L603,-131L608,-152L626,-164L624,-181L636,-187Z" fill="#E0E0E0" stroke="#fff" stroke-width=".4"/><path d="M736,-54L744,-53L749,-61L756,-59L778,-62L791,-43L786,-36L788,-25L805,-23L812,-9L812,-2L839,10L855,4L868,20L881,19L912,30L912,40L904,57L908,74L905,85L884,87L874,96L873,110L856,113L842,123L822,124L804,136L805,152L801,151L799,145L792,144L777,137L771,145L768,142L735,134L734,122L714,126L706,143L690,166L680,161L670,165L660,160L666,157L670,146L675,136L674,131L678,128L680,133L693,133L699,131L695,128L696,123L689,116L686,102L678,97L679,87L670,78L661,77L645,67L631,70L626,75L617,75L612,82L596,85L589,90L579,82L565,82L552,79L543,86L542,77L530,68L534,55L540,47L544,49L539,34L558,7L569,3L571,-7L560,-36L571,-37L582,-47L599,-47L620,-45L644,-37L661,-36L669,-31L677,-37L682,-29L701,-30L710,-27L711,-44L718,-52Z" fill="#E0E0E0" stroke="#fff" stroke-width=".4"/><path d="M560,-118L560,-102L566,-89L566,-75L553,-67L560,-51L560,-36L571,-7L569,3L558,7L539,34L544,49L540,47L520,34L504,39L494,36L482,43L471,31L462,36L461,34L451,17L435,15L433,5L419,1L416,10L404,3L405,-6L390,-9L380,-20L371,-42L372,-54L367,-72L359,-85L365,-94L360,-112L375,-123L408,-140L435,-152L456,-146L458,-137L478,-137L504,-133L544,-133L554,-129Z" fill="#E0E0E0" stroke="#fff" stroke-width=".4"/><path d="M421,78L420,91L408,91L412,98L405,118L401,123L382,124L371,131L354,129L323,121L319,110L298,115L295,121L282,117L271,116L262,110L265,102L264,97L271,95L281,104L284,96L303,97L318,91L329,92L335,99L337,93L334,73L342,69L349,54L365,64L377,51L385,48L401,58L411,57L421,63L419,67Z" fill="#E0E0E0" stroke="#fff" stroke-width=".4"/><path d="M530,68L542,77L543,86L530,92L520,113L507,135L490,140L477,139L461,147L453,152L435,146L419,133L412,129L408,118L405,118L412,98L408,91L420,91L421,78L432,86L440,90L458,86L459,79L468,78L478,73L481,75L491,71L496,64L503,62L525,72Z" fill="#E0E0E0" stroke="#fff" stroke-width=".4"/><path d="M626,75L631,70L645,67L661,77L670,78L679,87L678,97L686,102L689,116L696,123L695,128L699,131L693,133L680,133L678,128L674,131L675,136L670,146L666,157L660,160L657,146L659,133L658,119L646,101L639,87L633,78Z" fill="#E0E0E0" stroke="#fff" stroke-width=".4"/><path d="M660,160L670,165L680,161L690,166L690,173L680,180L673,177L667,213L655,210L639,199L614,206L604,214L573,212L556,207L548,210L542,197L538,192L543,187L538,183L531,190L519,181L517,169L504,162L502,152L490,140L507,135L520,113L530,92L543,86L552,79L565,82L579,82L589,90L596,85L612,82L617,75L626,75L633,78L639,87L646,101L658,119L659,133L657,146Z" fill="#E0E0E0" stroke="#fff" stroke-width=".4"/><path d="M624,-181L626,-164L608,-152L603,-131L580,-118L560,-118L554,-129L544,-133L542,-142L544,-153L535,-158L512,-165L508,-197L532,-208L568,-206L589,-210L592,-202L603,-199Z" fill="#E0E0E0" stroke="#fff" stroke-width=".4"/><path d="M640,-253L651,-243L652,-224L659,-202L636,-187L624,-181L603,-199L592,-202L589,-210L568,-206L532,-208L508,-197L509,-225L519,-250L539,-264L556,-234L573,-235L577,-265L595,-272L605,-267L623,-253Z" fill="#E0E0E0" stroke="#fff" stroke-width=".4"/><path d="M360,-112L365,-94L359,-85L367,-72L372,-54L371,-42L380,-20L370,-16L364,-20L359,-14L344,-7L336,1L320,8L324,18L327,32L337,40L349,54L342,69L334,73L337,93L335,99L329,92L318,91L303,97L284,96L281,104L271,95L264,97L241,87L237,94L219,94L222,71L232,49L202,43L192,35L193,20L189,13L191,-10L188,-45L200,-45L206,-58L211,-91L207,-103L211,-110L229,-112L233,-104L247,-122L243,-136L242,-156L258,-152L271,-157L272,-143L293,-134L293,-122L314,-128L326,-138L350,-124Z" fill="#E0E0E0" stroke="#fff" stroke-width=".4"/><path d="M542,197L548,210L556,207L573,212L604,214L614,206L639,199L655,210L667,213L656,225L649,246L655,262L637,258L615,267L615,282L596,284L581,274L564,282L548,281L547,262L536,253L540,249L537,246L541,237L549,227L539,215L537,204Z" fill="#E0E0E0" stroke="#fff" stroke-width=".4"/><path d="M619,445L616,453L586,455L586,451L560,446L564,435L576,443L592,442L608,444L608,448ZM548,281L564,282L581,274L596,284L615,282L615,267L626,275L619,293L614,296L601,295L590,292L564,300L579,315L568,320L557,320L545,306L541,312L546,328L557,341L549,347L561,360L571,368L571,383L552,376L558,389L544,392L552,416L538,416L521,404L513,383L509,365L501,353L490,337L489,329L499,316L500,307L507,303L507,295L521,293L529,287L541,287L544,282Z" fill="#E0E0E0" stroke="#fff" stroke-width=".4"/><path d="M1012,396L1002,400L994,394L970,390L961,394L936,398L925,398L900,408L883,408L872,403L848,410L841,405L840,420L834,426L829,431L821,420L829,410L816,412L798,406L784,421L751,424L734,410L711,409L706,420L692,423L671,409L648,409L635,383L620,368L630,347L617,334L640,307L673,306L682,285L722,288L748,270L773,262L808,261L845,281L876,292L900,288L919,290L944,276L966,274L987,288L990,298L988,312L1004,319L1013,327L998,335L1005,366L1000,374ZM615,267L637,258L655,262L658,273L677,282L673,289L647,291L638,300L621,315L614,302L614,296L619,293L626,275Z" fill="#E0E0E0" stroke="#fff" stroke-width=".4"/><path d="M507,295L507,303L500,307L499,316L489,329L485,327L485,321L473,312L471,299L473,279L476,270L472,266L471,257L480,243L481,248L487,246L492,253L497,256L498,267L495,276L498,288Z" fill="#E0E0E0" stroke="#fff" stroke-width=".4"/><path d="M264,97L265,102L262,110L271,116L282,117L281,129L271,135L255,131L251,143L241,144L237,139L225,150L215,151L206,144L198,131L188,136L189,122L204,104L204,96L213,99L219,94L237,94L241,87Z" fill="#E0E0E0" stroke="#fff" stroke-width=".4"/><path d="M189,13L193,20L192,35L186,35L181,32L183,14Z" fill="#E0E0E0" stroke="#fff" stroke-width=".4"/><path d="M191,-10L189,13L183,14L181,32L162,18L151,20L137,4L127,-9L117,-10L114,-21L131,-28L146,-25L166,-33L179,-18Z" fill="#E0E0E0" stroke="#fff" stroke-width=".4"/><path d="M207,-103L211,-91L206,-58L200,-45L188,-45L191,-10L179,-18L166,-33L146,-25L131,-28L142,-37L160,-89L189,-104Z" fill="#E0E0E0" stroke="#fff" stroke-width=".4"/><path d="M-132,266L-124,259L-115,254L-110,268L-97,268L-94,265L-81,266L-76,280L-85,288L-86,310L-89,314L-90,327L-99,329L-91,346L-96,363L-89,371L-92,379L-100,389L-98,398L-107,405L-118,401L-129,404L-126,383L-128,366L-137,364L-142,354L-141,336L-132,326L-131,314L-126,298L-127,286L-131,276Z" fill="#E0E0E0" stroke="#fff" stroke-width=".4"/><path d="M-98,398L-100,389L-92,379L-89,371L-96,363L-91,346L-99,329L-90,327L-89,314L-86,310L-85,288L-76,280L-81,266L-94,265L-97,268L-110,268L-115,254L-124,259L-132,266L-131,245L-139,233L-109,212L-83,217L-55,217L-32,222L-15,220L20,221L28,233L67,246L75,240L99,253L124,249L125,266L105,284L78,290L76,300L63,315L54,338L63,354L50,366L46,383L30,388L15,409L-12,409L-33,409L-46,418L-54,428L-64,426L-72,417L-78,402Z" fill="#E0E0E0" stroke="#fff" stroke-width=".4"/><path d="M-71,-116L-68,-91L-84,-60L-122,-39L-152,-44L-135,-81L-146,-117L-117,-145L-101,-163L-96,-143L-101,-123L-88,-124Z" fill="#E0E0E0" stroke="#fff" stroke-width=".4"/><path d="M282,117L295,121L298,115L319,110L323,121L354,129L351,144L357,157L340,152L322,163L324,178L321,186L328,202L348,216L359,241L382,264L399,264L404,270L398,276L417,286L433,294L451,309L453,314L449,324L437,311L419,306L410,324L425,335L423,349L414,351L403,374L394,376L394,368L398,353L403,347L394,331L388,317L379,314L373,302L359,297L350,286L334,284L318,271L298,252L284,236L277,207L267,203L249,193L239,198L227,211L218,213L221,201L209,197L204,174L211,165L205,153L206,144L215,151L225,150L237,139L241,144L251,143L255,131L271,135L281,129ZM374,370L390,367L383,388L386,397L381,410L365,400L354,398L325,384L328,370L352,373ZM245,294L256,285L269,305L266,342L256,340L248,349L239,342L239,308L234,292Z" fill="#E0E0E0" stroke="#fff" stroke-width=".4"/><path d="M271,-157L258,-152L242,-156L233,-177L232,-216L236,-226L242,-238L261,-241L268,-251L285,-263L284,-242L278,-230L281,-219L292,-213L287,-198L281,-203L265,-175ZM323,-200L330,-181L317,-150L295,-171L292,-187Z" fill="#E0E0E0" stroke="#fff" stroke-width=".4"/><path d="M-71,-116L-88,-124L-101,-123L-96,-143L-101,-163L-83,-164L-60,-141ZM-5,-100L-5,-100L-2,-121L-17,-143L-17,-144L-43,-150L-48,-160L-40,-177L-47,-187L-58,-169L-60,-206L-70,-225L-63,-266L-46,-299L-29,-296L-4,-299L-26,-256L-5,-261L19,-261L13,-229L-6,-194L16,-192L18,-188L37,-144L51,-138L64,-97L70,-83L96,-76L93,-54L83,-44L91,-26L72,-8L44,-9L7,0L-3,-6L-17,9L-36,6L-51,18L-62,12L-31,-24L-12,-31L-12,-31L-46,-37L-52,-50L-29,-61L-41,-80L-37,-103Z" fill="#E0E0E0" stroke="#fff" stroke-width=".4"/><path d="M910,221L912,217L930,222L962,227L990,241L994,247L1007,242L1027,248L1033,260L1047,266L1041,270L1052,286L1049,289L1037,287L1022,279L1016,284L987,288L966,274L944,276L947,264L942,244L929,233L917,230Z" fill="#E0E0E0" stroke="#fff" stroke-width=".4"/><path d="M354,129L371,131L382,124L401,123L405,118L408,118L412,129L396,137L393,149L386,152L386,161L378,160L371,155L367,160L352,159L357,157L351,144Z" fill="#E0E0E0" stroke="#fff" stroke-width=".4"/><path d="M540,47L534,55L530,68L525,72L503,62L496,64L491,71L481,75L478,73L468,78L459,79L458,86L440,90L432,86L421,78L419,67L421,63L424,56L433,56L441,53L441,50L445,48L447,41L451,40L455,34L461,34L462,36L471,31L482,43L494,36L504,39L520,34Z" fill="#E0E0E0" stroke="#fff" stroke-width=".4"/><path d="M380,-20L390,-9L405,-6L404,3L416,10L419,1L433,5L435,15L451,17L461,34L455,34L451,40L447,41L445,48L441,50L441,53L433,56L424,56L421,63L411,57L401,58L385,48L377,51L365,64L349,54L337,40L327,32L324,18L320,8L336,1L344,-7L359,-14L364,-20L370,-16Z" fill="#E0E0E0" stroke="#fff" stroke-width=".4"/><path d="M756,449L758,449L761,443L776,443L795,435L781,446L783,451L780,450L776,452L773,452L772,453L772,450L770,449L766,448L760,451Z" fill="#E0E0E0" stroke="#fff" stroke-width=".4"/><path d="M756,449L760,451L766,448L770,449L772,450L772,453L773,452L776,452L780,450L783,451L783,453L761,464L751,461L746,450Z" fill="#E0E0E0" stroke="#fff" stroke-width=".4"/><path d="M14,449L22,465L23,481L31,508L36,513L32,523L5,527L-5,536L-17,538L-18,557L-43,567L-51,579L-69,586L-90,589L-124,607L-124,636L-127,636L-127,649L-140,649L-147,655L-156,655L-164,652L-182,654L-189,673L-195,675L-205,704L-235,729L-242,761L-251,772L-253,780L-301,782L-302,782L-301,771L-292,765L-285,753L-287,745L-279,729L-268,714L-260,710L-255,696L-254,684L-247,669L-233,661L-219,636L-219,636L-208,627L-188,624L-171,607L-161,601L-143,581L-148,550L-140,528L-137,515L-124,498L-102,486L-87,476L-72,449L-66,433L-50,433L-37,444L-17,442L5,448Z" fill="#E0E0E0" stroke="#fff" stroke-width=".4"/><path d="M455,244L436,233L428,221L420,214L410,203L405,194L395,180L400,167L407,174L412,168L422,167L440,172L455,172L464,179L472,179L467,192L477,203L474,217L469,218L465,221L458,228Z" fill="#E0E0E0" stroke="#fff" stroke-width=".4"/><path d="M536,253L547,262L548,281L544,282L541,287L529,287L521,293L507,295L498,288L495,276L498,267L501,267L502,261L514,257L519,255L526,254Z" fill="#E0E0E0" stroke="#fff" stroke-width=".4"/><path d="M461,147L477,139L490,140L502,152L504,162L517,169L519,181L531,190L538,183L543,187L538,192L542,197L537,204L539,215L549,227L541,237L537,246L540,249L536,253L526,254L519,255L518,253L521,250L523,243L520,243L516,238L513,236L510,232L506,230L503,226L499,227L496,237L491,239L493,237L485,231L478,227L475,223L469,218L474,217L477,203L467,192L472,179L464,179L473,167L466,159Z" fill="#E0E0E0" stroke="#fff" stroke-width=".4"/><path d="M487,246L481,248L480,243L471,257L472,266L468,264L462,254L452,249L455,244L458,228L465,221L469,218L475,223L478,227L485,231L493,237L491,239Z" fill="#E0E0E0" stroke="#fff" stroke-width=".4"/><path d="M498,267L497,256L492,253L487,246L491,239L496,237L499,227L503,226L506,230L510,232L513,236L516,238L520,243L523,243L521,250L518,253L519,255L514,257L502,261L501,267Z" fill="#E0E0E0" stroke="#fff" stroke-width=".4"/></g><g clip-path="url(#v)"><path d="M348.9,158.9L349.7,160.1L355.4,161.6L356.5,161.0L357.3,160.0L357.3,159.3L357.7,159.1L359.7,160.1L361.3,159.9L363.9,159.8L365.8,160.0L367.0,159.2L368.7,156.5L369.3,155.0L370.0,154.6L370.5,154.9L370.8,156.1L371.7,157.3L373.5,159.2L374.8,160.1L375.9,160.4L377.0,159.7L378.2,159.4L381.5,160.9L384.3,161.2L386.4,160.4L386.1,159.3L385.4,158.2L385.2,157.0L385.4,156.0L386.7,155.0L386.7,154.6L385.0,152.8L385.1,152.4L388.8,150.4L392.5,149.3L393.0,148.4L393.4,147.1L393.5,144.7L393.3,142.7L391.9,140.9L391.8,139.9L392.1,138.9L392.7,138.0L394.2,137.7L395.8,137.0L397.2,136.3L399.0,135.7L400.4,134.8L401.8,132.8L402.7,132.5L405.3,132.8L405.8,132.3L405.5,129.3L405.9,128.6L406.9,128.1L407.2,127.8L409.5,128.1L411.4,128.8L412.5,129.3L416.4,131.4L419.0,133.8L420.4,136.4L422.4,138.5L424.8,139.9L426.8,141.9L428.3,144.3L430.4,145.7L433.0,146.0L434.6,146.8L435.3,148.2L436.7,149.5L438.9,150.6L442.1,151.2L448.6,151.4L449.1,151.4L450.6,151.7L452.2,151.3L454.3,150.4L454.9,149.9L457.1,147.0L458.3,147.3L460.7,146.9L462.1,146.3L462.2,146.3L462.1,147.0L462.0,148.3L460.8,149.2L462.0,151.3L463.1,154.7L462.4,156.4L463.2,157.7L465.4,158.6L465.6,159.0L464.9,159.3L464.3,160.4L464.3,162.5L466.2,164.4L470.0,166.2L471.2,166.4L471.7,167.1L472.3,167.6L472.7,168.1L472.8,168.8L472.4,169.3L470.6,169.5L468.5,169.5L467.1,168.6L467.0,169.3L466.9,169.9L465.6,170.4L466.3,175.3L466.0,176.7L465.5,177.2L465.0,177.0L464.4,176.9L464.1,177.4L464.3,178.4L463.0,178.6L460.7,178.0L459.7,177.1L459.5,176.1L459.5,175.2L458.8,173.7L457.1,172.2L453.3,171.9L451.9,171.5L450.6,170.9L449.0,170.5L447.6,170.5L445.9,170.9L442.8,170.3L441.8,171.1L440.3,172.2L438.9,172.2L436.3,169.8L435.6,169.6L433.3,170.8L432.3,170.9L431.7,170.5L428.6,169.6L427.2,169.4L426.1,169.8L424.4,169.4L419.9,166.2L417.3,168.6L411.7,168.0L410.1,169.6L408.2,172.8L406.6,174.3L405.3,173.7L403.8,172.3L401.0,168.8L399.7,168.2L398.1,168.0L396.7,168.4L395.9,169.2L395.4,174.3L394.8,178.8L394.8,181.6L397.9,184.1L401.5,188.4L402.7,188.9L403.2,190.3L404.0,193.9L404.9,198.0L406.8,200.6L408.5,202.5L410.5,204.2L413.0,206.9L415.1,209.8L415.6,210.8L419.6,214.7L423.5,218.5L427.0,219.9L427.5,220.6L427.5,223.6L427.9,224.7L430.2,227.8L434.9,232.4L435.5,233.4L435.6,234.2L435.3,234.8L434.1,235.4L433.1,234.8L428.7,230.3L424.5,227.5L419.6,222.2L413.2,220.1L408.8,217.8L406.2,218.1L403.2,218.9L401.4,218.9L400.1,218.4L399.2,217.0L399.4,215.9L399.2,214.5L396.6,212.1L393.1,209.9L389.8,207.0L383.1,199.3L381.8,196.7L383.1,196.3L384.1,196.3L385.2,195.8L387.0,195.8L389.2,196.3L387.3,194.6L384.9,193.0L378.8,186.4L376.9,183.3L376.7,180.0L377.2,175.4L376.1,172.1L371.4,167.8L369.6,165.5L366.1,164.2L364.5,164.3L363.6,166.0L362.9,169.7L359.9,174.6L358.8,176.7L357.2,179.4L355.8,179.6L355.0,179.4L352.4,174.8L350,171.2L349.7,169.6L349.5,167.5L347.6,160.0ZM414.3,233.7L418.2,234.6L421.1,234.2L423.7,234.7L425.3,235.6L425.7,236.1L423.5,236.1L421.2,235.7L418.5,236.7L416.1,236.2L415.2,235.6L414.6,234.8ZM425.8,230.0L424.3,230.3L414.9,230.1L412.1,229.5L409.1,227.9L408.4,227.4L411.5,227.0L414.4,227.4L415.3,228.5L423.0,229.5ZM417.1,225.8L413.7,225.8L410.8,225.3L409.4,224.4L409.5,223.6L410.0,222.4L413.2,222.5L418.2,223.4L419.3,224.5L419.0,224.9ZM384.1,202.5L384.4,203.5L381.8,201.6L380.8,200.2L380.5,199.7ZM375.1,175.2L372.5,175.8L371.3,174.7L371.0,173.8L368.7,173.4L367.4,172.1L367.2,171.6L369.1,170.1L370.1,167.7L371.3,169.2L372.8,171.8L373.6,172.6ZM375.6,181.8L376.1,183.1L374.1,181.9L372.3,181.4L372.0,180.5L372.2,179.8L372.6,179.1L374.0,179.2L374.2,179.9ZM383.1,194.4L382.6,195.2L381.2,193.7L380.0,192.7L379.1,191.5L377.3,189.9L376.7,188.2L374.1,184.6L373.6,183.6L375.0,185.0L376.1,186.0L377.0,186.2L379.3,188.5L381.6,191.4L384.3,193.9L383.7,194.1ZM383.2,206.7L383.5,207.1L383.4,207.4L382.4,207.0L382.1,207.1L376.9,200.6L376.3,199.4L378.2,200.8ZM387.0,205.1L388.5,207.3L387.1,206.9L385.7,205.5L384.9,204.0ZM368.3,184.7L368.1,185.9L366.8,184.4L366.1,181.8L364.5,177.5L364.3,176.3L365.2,175.1L365.2,173.9L364.0,170.1L364.9,169.6L365.5,169.5L365.8,172.1L366.3,173.6L367.8,175.4L367.5,178.4L367.8,182.8L368.1,183.7ZM434.6,240.3L437.5,242.3L429.0,239.7L430.0,239.5L430.9,239.4ZM452.2,246.4L452.2,247.5L453.1,248.7L453.9,250.0L450.0,247.3L446.4,244.3L439.2,239.5L434.1,238.4L427.1,234.6L422.6,233.2L424.4,232.9L426.4,232.9L437.1,238.0L435.9,236.6L437.4,236.1L438.7,236.5L439.5,238.1L441.2,239.2L443.9,241.2L445.6,242.6L449.4,245.3L450.3,245.6Z" fill="#4ECDC4" stroke="#2C3E50" stroke-width="1"/></g><circle cx="400.0" cy="150.0" r="4" fill="#E74C3C" stroke="#fff" stroke-width="2"/><text x="400.0" y="140.0" text-anchor="middle" font-family="sans-serif" font-weight="700" font-size="10" fill="#2D3436">Zagreb</text></svg>