<svg viewBox="0 0 800 300" xmlns="http://www.w3.org/2000/svg"><defs><clipPath id="v"><rect width="800" height="300"/></clipPath></defs><rect width="800" height="300" fill="#DCEEF8"/><g clip-path="url(#v)"><path d="M438,181L439,164L424,145L439,134L443,110L438,75L445,64L492,65L528,81L544,79L555,102L588,101L586,120L613,122L642,145L620,171L591,157L564,160L544,157L533,169L510,173L501,157L481,166L457,210L441,200Z" fill="#E0E0E0" stroke="#fff" stroke-width=".4"/><path d="M0,-389L28,-395L68,-392L70,-375L4,-364ZM72,-406L119,-376L109,-328L98,-336L99,-372L72,-398ZM48,-283L66,-281L87,-225L87,-187L72,-184L57,-222L35,-241Z" fill="#E0E0E0" stroke="#fff" stroke-width=".4"/><path d="M765,152L796,157L807,170L791,186L746,185L710,188L707,160L716,151Z" fill="#E0E0E0" stroke="#fff" stroke-width=".4"/><path d="M85,153L126,159L158,174L167,191L125,193L107,203L73,193L39,170L46,155L71,151Z" fill="#E0E0E0" stroke="#fff" stroke-width=".4"/><path d="M-198,-150L-146,-145L-99,-144L-42,-122L-18,-98L38,-105L60,-90L110,-50L148,-21L168,-22L204,-9L199,10L244,12L289,39L282,54L242,62L202,65L160,60L74,66L114,30L90,14L51,9L30,-9L16,-46L-18,-44L-74,-61L-92,-75L-171,-85L-192,-97L-169,-114L-229,-117L-272,-83L-297,-82L-305,-66L-335,-59L-361,-65L-329,-86L-316,-109L-289,-124L-258,-136L-213,-143Z" fill="#E0E0E0" stroke="#fff" stroke-width=".4"/></g><g clip-path="url(#v)"><path d="M433.8,74.9L435.1,76.8L437.9,89.7L438.1,93.9L435.3,100.1L435.7,102.5L441.8,108.3L441.8,110.3L441.1,112.4L435.9,117.8L432.0,121.5L433.3,125.9L436.6,129.8L437.0,133.3L435.9,137.8L431.2,143.3L428.6,145.3L421.2,145.5L420.5,146.3L424.0,151.7L428.1,157.9L434.9,162.6L436.4,167.1L434.6,171.3L434.4,181.8L429.4,176.7L423.8,172.5L420.3,170.9L416.9,169.8L390.2,170.3L387.2,171.1L384.8,172.4L382.4,173.1L375.0,174.4L367.6,174.6L350.5,171.2L343.8,169.4L337.1,168.3L329.3,168.7L321.4,169.8L315.2,172.2L310.6,176.6L309.7,180.5L306.9,181.6L300.6,175.2L294.8,170.6L288.3,167.2L274.8,162.3L272.2,159.3L271.1,155.8L276.8,144.6L282.9,142.5L286.3,142.2L293.9,143.5L301.5,146.1L308.2,147.7L318.8,148.4L324.7,151.1L365.3,155.3L372.8,156.7L375.9,156.2L378.5,154.6L380.6,151.6L383.2,149.3L395.4,148.8L397.8,147.8L399.5,144.6L399.5,141.4L392.4,137.0L381.3,127.5L371.5,116.1L375.9,112.4L374.1,105.4L375.9,99.0L378.0,92.6L368.5,87.2L357.0,81.8L341.2,80.1L336.4,78.7L333.8,74.7L336.2,69.2L341.2,66.1L347.0,64.3L353.1,63.0L367.6,61.4L382.2,63.2L394.5,68.8L407.3,73.2L423.1,74.7L430.5,76.2ZM372.0,134.9L370.9,139.3L355.5,134.0L343.1,127.3L343.6,123.6L350.1,122.9L356.1,125.1L365.0,129.5ZM380.4,54.4L383.0,55.9L381.9,57.8L375.9,56.7L369.6,54.5L367.6,55.1L366.3,54.9L362.6,52.9L365.9,51.3L369.2,50.9L372.8,51.0Z" fill="#4ECDC4" stroke="#2C3E50" stroke-width="1"/></g><circle cx="400.0" cy="150.0" r="4" fill="#E74C3C" stroke="#fff" stroke-width="2"/><text x="400.0" y="140.0" text-anchor="middle" font-family="sans-serif" font-weight="700" font-size="10" fill="#2D3436">Port-au-Prince</text></svg>