<svg viewBox="0 0 800 300" xmlns="http://www.w3.org/2000/svg"><defs><clipPath id="v"><rect width="800" height="300"/></clipPath></defs><rect width="800" height="300" fill="#DCEEF8"/><g clip-path="url(#v)"><path d="M-1611,1571L-1628,1597L-1637,1618L-1648,1629L-1661,1631L-1665,1623L-1672,1622L-1680,1630L-1693,1624L-1686,1612L-1683,1599L-1678,1586L-1689,1570L-1691,1550L-1677,1525L-1667,1529L-1646,1535L-1616,1559ZM34,66L48,77L89,85L74,115L71,145L63,152L50,148L51,159L30,182L30,201L43,195L53,213L52,224L60,239L50,252L58,283L73,288L70,305L44,327L-12,316L-53,329L-57,352L-90,357L-122,340L-132,348L-184,331L-196,315L-181,292L-176,212L-205,168L-226,147L-269,131L-272,100L-235,90L-188,101L-197,52L-170,71L-104,36L-95,-0L-70,-9L-66,7L-53,7L-40,25L-20,46L-5,43L20,63L26,67ZM107,346L125,332L130,365L121,394L108,386L101,361Z" fill="#E0E0E0" stroke="#fff" stroke-width=".4"/><path d="M660,-251L690,-238L694,-225L709,-231L737,-219L739,-196L733,-183L751,-151L763,-142L761,-133L780,-124L788,-112L777,-101L754,-103L749,-99L756,-83L763,-53L738,-50L729,-40L728,-17L716,-21L691,-19L683,-30L672,-22L662,-29L639,-30L608,-41L579,-44L557,-43L541,-31L528,-29L527,-49L518,-71L535,-81L536,-99L528,-117L526,-139L554,-138L585,-157L591,-184L615,-200L612,-223L629,-231Z" fill="#E0E0E0" stroke="#fff" stroke-width=".4"/><path d="M763,-53L773,-51L780,-62L789,-59L819,-64L837,-38L830,-28L832,-14L855,-12L865,8L864,16L900,32L922,25L940,46L956,45L998,60L999,73L987,95L993,119L989,133L961,136L947,148L946,167L923,170L904,184L877,186L853,201L854,223L850,222L846,214L837,212L817,203L810,213L806,209L761,199L759,183L733,188L723,211L701,241L688,234L674,241L662,233L669,229L674,215L682,202L679,194L685,191L688,197L705,198L713,195L707,191L709,184L699,174L695,156L685,150L687,135L674,124L662,122L641,109L622,113L616,119L604,119L597,129L576,133L566,140L553,130L534,129L517,125L504,134L502,122L487,111L492,93L500,82L506,85L499,65L525,28L539,23L542,11L528,-29L541,-31L557,-43L579,-44L608,-41L639,-30L662,-29L672,-22L683,-30L691,-19L716,-21L728,-17L729,-40L738,-50Z" fill="#E0E0E0" stroke="#fff" stroke-width=".4"/><path d="M526,-139L528,-117L536,-99L535,-81L518,-71L527,-49L528,-29L542,11L539,23L525,28L499,65L506,85L500,82L473,65L453,72L439,67L422,76L408,61L396,67L395,64L382,43L360,40L358,26L338,21L334,33L319,23L320,11L299,7L286,-7L274,-37L276,-53L269,-77L259,-94L267,-107L260,-131L279,-145L324,-168L360,-185L388,-176L390,-164L418,-164L453,-158L505,-159L520,-154Z" fill="#E0E0E0" stroke="#fff" stroke-width=".4"/><path d="M341,124L339,141L323,141L329,150L319,177L314,184L289,185L275,195L251,191L210,181L204,166L176,173L173,181L155,175L141,174L128,167L132,156L131,149L140,147L154,158L158,147L183,149L204,141L217,143L226,151L229,144L225,117L235,111L245,91L266,105L282,87L292,84L314,97L328,95L341,103L339,109Z" fill="#E0E0E0" stroke="#fff" stroke-width=".4"/><path d="M616,119L622,113L641,109L662,122L674,124L687,135L685,150L695,156L699,174L709,184L707,191L713,195L705,198L688,197L685,191L679,194L682,202L674,215L669,229L662,233L656,215L659,197L659,179L642,154L633,136L624,124Z" fill="#E0E0E0" stroke="#fff" stroke-width=".4"/><path d="M662,233L674,241L688,234L701,241L701,251L687,260L679,256L671,304L654,300L633,286L600,295L586,305L544,303L522,297L511,300L503,283L498,276L504,270L497,265L488,274L472,262L470,246L452,236L449,223L434,207L456,199L474,171L487,143L504,134L517,125L534,129L553,130L566,140L576,133L597,129L604,119L616,119L624,124L633,136L642,154L659,179L659,197L656,215Z" fill="#E0E0E0" stroke="#fff" stroke-width=".4"/><path d="M612,-223L615,-200L591,-184L585,-157L554,-138L526,-139L520,-154L505,-159L503,-171L506,-185L493,-193L463,-201L457,-244L490,-259L538,-256L566,-261L570,-251L585,-247Z" fill="#E0E0E0" stroke="#fff" stroke-width=".4"/><path d="M260,-131L267,-107L259,-94L269,-77L276,-53L274,-37L286,-7L273,-3L265,-8L258,1L238,9L227,21L207,30L212,44L215,62L229,73L245,91L235,111L225,117L229,144L226,151L217,143L204,141L183,149L158,147L154,158L140,147L131,149L101,136L95,145L71,145L74,115L89,85L48,77L34,66L36,46L30,36L34,6L29,-42L46,-42L53,-59L60,-102L55,-118L60,-128L84,-131L89,-120L109,-144L102,-162L101,-190L122,-184L141,-191L141,-172L170,-161L170,-143L199,-152L214,-166L247,-147Z" fill="#E0E0E0" stroke="#fff" stroke-width=".4"/><path d="M503,283L511,300L522,297L544,303L586,305L600,295L633,286L654,300L671,304L656,321L646,348L655,370L630,365L601,377L601,396L575,400L555,386L532,397L511,396L509,371L495,358L500,353L497,348L501,336L512,324L498,307L496,292Z" fill="#E0E0E0" stroke="#fff" stroke-width=".4"/><path d="M606,615L603,625L562,628L562,622L527,616L533,601L548,613L570,611L591,613L591,619ZM511,396L532,397L555,386L575,400L601,396L601,377L615,387L606,411L600,415L582,414L567,411L533,420L553,441L538,447L522,447L507,428L502,436L508,459L523,476L512,484L528,501L542,511L542,532L516,522L524,540L506,544L517,576L498,576L475,561L464,532L459,508L448,491L433,470L432,460L445,442L446,430L456,424L456,415L475,411L486,403L501,404L506,397Z" fill="#E0E0E0" stroke="#fff" stroke-width=".4"/><path d="M1132,549L1118,555L1108,546L1075,541L1063,547L1031,552L1015,552L983,565L959,565L944,559L913,568L904,562L902,581L894,589L887,597L876,581L887,567L870,571L846,562L826,583L783,587L760,568L729,566L723,581L703,585L676,567L645,567L628,532L607,512L621,483L603,466L634,430L678,429L690,400L744,405L779,381L812,370L859,369L908,396L949,410L982,405L1007,408L1040,388L1071,386L1098,405L1103,418L1100,437L1121,446L1133,457L1113,467L1122,509L1116,520ZM601,377L630,365L655,370L658,385L683,397L678,406L644,409L632,420L608,440L599,423L600,415L606,411L615,387Z" fill="#E0E0E0" stroke="#fff" stroke-width=".4"/><path d="M456,415L456,424L446,430L445,442L432,460L427,457L426,449L410,437L408,419L410,393L414,381L409,375L408,363L420,344L422,351L429,348L435,358L442,362L444,376L441,389L445,405Z" fill="#E0E0E0" stroke="#fff" stroke-width=".4"/><path d="M330,192L339,197L360,214L383,222L394,216L401,232L410,243L399,258L386,250L366,250L342,243L329,244L323,253L312,243L306,260L320,279L327,291L340,306L350,315L361,331L386,346L383,352L356,338L340,324L314,312L290,283L296,280L283,263L282,250L264,243L255,261L247,247L247,233L248,233L268,234L274,227L283,234L294,235L294,223L304,219L307,203Z" fill="#E0E0E0" stroke="#fff" stroke-width=".4"/><path d="M131,149L132,156L128,167L141,174L155,175L153,192L141,199L120,194L113,211L100,212L95,206L79,219L65,221L53,213L43,195L30,201L30,182L51,159L50,148L63,152L71,145L95,145L101,136Z" fill="#E0E0E0" stroke="#fff" stroke-width=".4"/><path d="M30,36L36,46L34,66L26,67L20,63L23,38Z" fill="#E0E0E0" stroke="#fff" stroke-width=".4"/><path d="M34,6L30,36L23,38L20,63L-5,43L-20,46L-40,25L-53,7L-66,7L-70,-9L-47,-18L-26,-15L-0,-24L18,-4Z" fill="#E0E0E0" stroke="#fff" stroke-width=".4"/><path d="M55,-118L60,-102L53,-59L46,-42L29,-42L34,6L18,-4L-0,-24L-26,-15L-47,-18L-33,-31L-8,-99L31,-119Z" fill="#E0E0E0" stroke="#fff" stroke-width=".4"/><path d="M-354,552L-356,540L-346,526L-342,516L-351,506L-344,482L-355,460L-343,457L-342,439L-337,434L-337,404L-323,394L-331,375L-348,374L-353,379L-370,379L-377,360L-388,365L-399,375L-397,348L-409,331L-369,303L-334,310L-296,310L-265,316L-242,314L-196,315L-184,331L-132,348L-122,340L-90,357L-57,352L-55,375L-82,400L-119,408L-121,421L-139,441L-150,471L-139,492L-155,509L-161,532L-183,539L-203,567L-239,567L-266,566L-284,579L-295,592L-309,589L-319,578L-327,557Z" fill="#E0E0E0" stroke="#fff" stroke-width=".4"/><path d="M155,175L173,181L176,173L204,166L210,181L251,191L248,212L255,229L232,223L209,237L211,257L207,269L216,289L243,309L258,341L289,372L311,372L318,380L310,388L336,402L357,413L381,433L384,440L379,453L363,436L338,429L326,454L347,467L343,486L332,489L316,520L305,522L305,511L310,492L317,484L306,463L297,444L285,440L277,423L258,417L246,401L225,399L203,382L177,357L157,335L149,296L134,291L111,278L98,284L82,302L70,305L73,288L58,283L50,252L60,239L52,224L53,213L65,221L79,219L95,206L100,212L113,211L120,194L141,199L153,192ZM278,514L300,511L290,539L294,550L288,569L266,555L252,551L212,533L216,515L249,518ZM106,412L120,401L137,427L133,476L120,474L109,486L98,477L97,432L90,410Z" fill="#E0E0E0" stroke="#fff" stroke-width=".4"/><path d="M141,-191L122,-184L101,-190L89,-218L89,-270L93,-284L101,-299L126,-303L136,-317L159,-332L158,-305L150,-288L153,-273L169,-266L162,-246L153,-252L133,-215ZM210,-248L219,-222L202,-182L172,-210L169,-231Z" fill="#E0E0E0" stroke="#fff" stroke-width=".4"/><path d="M-318,-137L-339,-147L-357,-146L-351,-172L-357,-198L-333,-200L-303,-170ZM-230,-114L-230,-114L-225,-142L-245,-172L-245,-173L-279,-182L-286,-195L-276,-217L-285,-231L-301,-207L-302,-256L-317,-282L-306,-337L-284,-381L-261,-376L-227,-381L-258,-323L-229,-330L-197,-330L-205,-287L-230,-241L-201,-238L-199,-232L-173,-173L-154,-165L-136,-110L-128,-92L-94,-83L-97,-53L-112,-39L-100,-16L-126,8L-164,7L-212,20L-226,11L-245,32L-271,27L-291,44L-306,35L-264,-12L-239,-22L-239,-22L-283,-30L-292,-48L-262,-62L-277,-88L-272,-119Z" fill="#E0E0E0" stroke="#fff" stroke-width=".4"/><path d="M995,315L998,310L1023,317L1064,323L1103,342L1108,349L1125,343L1152,351L1161,367L1179,376L1171,381L1185,402L1181,406L1166,404L1145,393L1138,399L1098,405L1071,386L1040,388L1045,372L1038,346L1021,331L1005,327Z" fill="#E0E0E0" stroke="#fff" stroke-width=".4"/><path d="M251,191L275,195L289,185L314,184L319,177L324,178L330,192L307,203L304,219L294,223L294,235L283,234L274,227L268,234L248,233L255,229L248,212Z" fill="#E0E0E0" stroke="#fff" stroke-width=".4"/><path d="M500,82L492,93L487,111L481,115L450,102L441,105L434,115L421,120L418,117L404,124L392,125L390,134L366,139L356,134L341,124L339,109L341,103L345,94L357,95L367,90L368,86L373,84L375,74L382,72L386,64L395,64L396,67L408,61L422,76L439,67L453,72L473,65Z" fill="#E0E0E0" stroke="#fff" stroke-width=".4"/><path d="M286,-7L299,7L320,11L319,23L334,33L338,21L358,26L360,40L382,43L395,64L386,64L382,72L375,74L373,84L368,86L367,90L357,95L345,94L341,103L328,95L314,97L292,84L282,87L266,105L245,91L229,73L215,62L212,44L207,30L227,21L238,9L258,1L265,-8L273,-3Z" fill="#E0E0E0" stroke="#fff" stroke-width=".4"/><path d="M386,346L361,331L350,315L340,306L327,291L320,279L306,260L312,243L323,253L329,244L342,243L366,250L386,250L399,258L409,258L402,276L416,291L412,310L405,312L400,315L391,324Z" fill="#E0E0E0" stroke="#fff" stroke-width=".4"/><path d="M495,358L509,371L511,396L506,397L501,404L486,403L475,411L456,415L445,405L441,389L444,376L448,376L449,369L466,363L472,361L482,359Z" fill="#E0E0E0" stroke="#fff" stroke-width=".4"/><path d="M394,216L416,205L434,207L449,223L452,236L470,246L472,262L488,274L497,265L504,270L498,276L503,283L496,292L498,307L512,324L501,336L497,348L500,353L495,358L482,359L472,361L471,358L475,354L478,344L474,345L468,337L464,335L460,329L455,327L450,321L445,324L441,336L435,339L437,336L426,328L417,324L413,318L405,312L412,310L416,291L402,276L409,258L399,258L410,243L401,232Z" fill="#E0E0E0" stroke="#fff" stroke-width=".4"/><path d="M429,348L422,351L420,344L408,363L409,375L403,372L395,360L383,352L386,346L391,324L400,315L405,312L413,318L417,324L426,328L437,336L435,339Z" fill="#E0E0E0" stroke="#fff" stroke-width=".4"/><path d="M444,376L442,362L435,358L429,348L435,339L441,336L445,324L450,321L455,327L460,329L464,335L468,337L474,345L478,344L475,354L471,358L472,361L466,363L449,369L448,376Z" fill="#E0E0E0" stroke="#fff" stroke-width=".4"/></g><g clip-path="url(#v)"><path d="M487.9,111.5L490.7,111.2L490.8,111.2L491.4,111.5L491.8,113.5L491.9,113.5L492.7,114.9L493.3,116.7L494.2,117.9L496.2,118.4L499.0,120.1L500.7,123.1L503.4,124.4L503.6,124.4L504.1,124.3L506.1,124.2L506.5,124.8L508.0,126.3L508.6,127.6L508.3,128.9L508.5,130.6L509.1,131.1L508.4,132.1L503.5,137.3L501.6,138.7L500.2,139.0L498.2,138.5L496.1,138.9L494.2,140.1L492.4,140.4L491.2,141.7L489.5,144.5L487.4,147.0L485.3,148.5L484.2,149.8L484.1,154.4L482.9,155.7L481.4,157.0L480.5,158.2L478.1,165.2L476.3,167.4L474.6,169.1L474.3,170.7L474.3,172.5L472.4,176.0L469.8,179.7L469.3,181.2L469.9,183.3L467.5,185.6L466.0,186.7L464.9,187.3L464.2,188.7L463.0,192.3L463.3,193.9L463.3,195.3L461.2,196.2L460.6,197.8L460.1,199.8L459.3,200.7L456.9,202.3L451.2,201.6L448.9,202.2L448.3,203.3L448.2,204.3L447.5,205.2L446.2,206.3L444.7,206.8L441.8,205.5L435.3,206.8L434.2,207.8L433.3,207.1L431.9,206.5L425.5,205.7L422.9,206.3L419.4,206.0L416.4,205.3L414.0,205.9L411.8,208.7L410.8,209.7L410.0,210.2L408.3,211.1L406.7,212.2L404.8,212.9L403.0,212.8L401.3,211.6L400.8,211.9L400.2,213.0L399.4,213.9L396.8,215.1L396.2,215.1L396.1,215.1L394.1,215.9L391.0,216.4L389.3,216.1L386.4,219.9L385.6,220.6L382.9,221.8L380.6,222.4L378.7,221.9L377.9,221.9L369.3,221.7L364.9,220.8L362.1,219.3L360.1,217.7L359.2,215.8L357.1,214.7L353.6,214.3L350.8,212.4L348.9,209.2L346.2,206.5L342.9,204.6L340.3,201.9L338.3,198.3L334.8,195.2L329.7,192.3L328.2,191.7L327.9,190.8L325.4,187.3L324.4,186.0L324.5,184.3L324.0,183.3L323.1,182.5L322.5,180.0L322.3,178.1L321.6,176.9L316.2,176.6L320.7,172.1L322.9,170.8L325.6,171.1L326.4,170.7L326.6,170.0L327.0,168.5L327.4,167.1L327.6,165.8L327.3,165.1L326.0,164.9L325.4,161.6L326.0,160.4L326.6,159.5L325.9,155.6L326.1,154.3L328.2,154.0L329.8,153.2L331.2,152.2L331.7,151.0L332.8,148.5L331.8,145.4L325.8,143.4L325.5,142.6L326.8,141.7L328.4,140.5L329.2,139.5L330.3,139.4L332.0,139.9L334.8,142.1L335.9,142.5L337.0,141.8L338.1,141.7L341.2,141.7L343.8,141.2L343.2,138.9L343.2,137.1L342.8,135.7L343.1,134.3L344.1,133.1L344.5,130.4L346.2,128.6L346.9,128.4L349.9,128.6L350.5,129.1L351.0,129.2L355.6,133.6L360.0,136.9L363.6,138.6L368.9,138.7L374.6,138.9L384.0,138.3L391.1,137.9L391.5,137.0L392.6,135.1L391.7,133.4L391.8,131.5L392.9,128.8L396.4,126.7L406.4,125.8L412.2,124.1L413.0,121.9L414.9,119.8L416.7,119.3L419.0,120.4L421.9,122.2L424.4,123.3L425.9,122.6L431.0,119.4L436.8,116.2L440.8,107.7L441.2,106.3L445.6,105.3L452.0,105.5L455.3,106.6L457.6,107.2L461.3,107.1L466.6,105.2L468.6,105.3L470.1,106.5L471.8,107.7L472.9,109.1L473.7,111.0L474.2,111.7L474.9,112.7L476.3,114.1L477.6,114.4L487.3,112.1Z" fill="#4ECDC4" stroke="#2C3E50" stroke-width="1"/></g><circle cx="400.0" cy="150.0" r="4" fill="#E74C3C" stroke="#fff" stroke-width="2"/><text x="400.0" y="140.0" text-anchor="middle" font-family="sans-serif" font-weight="700" font-size="10" fill="#2D3436">Budapest</text></svg>