<svg viewBox="0 0 800 300" xmlns="http://www.w3.org/2000/svg"><defs><clipPath id="v"><rect width="800" height="300"/></clipPath></defs><rect width="800" height="300" fill="#DCEEF8"/><g clip-path="url(#v)"><path d="M799,215L801,214L803,216L802,219L798,219L795,219L795,216L797,214ZM810,209L806,211L803,212L802,210L805,209L807,208L810,206L810,206L810,209ZM-1207,206L-1207,206L-1207,206L-1206,206L-1207,209L-1207,209L-1207,209L-1207,206Z" fill="#E0E0E0" stroke="#fff" stroke-width=".4"/><path d="M-9,120L-8,121L13,132L13,136L21,141L18,148L19,151L22,154L22,155L21,158L21,160L21,163L23,166L25,172L27,173L23,177L17,179L13,179L11,180L7,181L6,181L-1,180L-5,180L-7,172L-8,170L-10,168L-15,167L-18,165L-22,164L-24,163L-26,162L-29,155L-33,152L-34,148L-33,146L-34,140L-32,140L-30,138L-28,135L-26,134L-26,132L-28,131L-28,129L-26,128L-26,125L-28,122L-26,121L-20,121Z" fill="#E0E0E0" stroke="#fff" stroke-width=".4"/><path d="M291,-203L287,-197L282,-196L282,-188L279,-184L267,-187L263,-172L260,-170L249,-167L254,-154L251,-152L251,-147L248,-148L245,-151L236,-152L227,-152L225,-151L217,-154L214,-153L213,-148L204,-151L200,-150L199,-147L196,-145L188,-140L186,-135L184,-135L182,-138L175,-138L174,-145L171,-145L172,-152L165,-158L155,-157L149,-156L143,-163L139,-166L130,-172L129,-172L115,-168L115,-139L112,-139L108,-145L104,-147L98,-145L96,-143L95,-145L97,-148L96,-151L89,-153L86,-160L83,-162L83,-165L89,-164L89,-170L94,-171L99,-170L100,-178L99,-183L93,-182L88,-184L82,-181L76,-179L74,-180L74,-185L71,-190L66,-190L62,-196L65,-202L63,-204L68,-213L74,-208L74,-215L86,-224L95,-225L107,-218L114,-215L119,-218L128,-219L136,-214L137,-217L145,-216L146,-221L137,-227L143,-231L142,-234L147,-236L143,-243L146,-246L167,-249L169,-251L183,-255L188,-259L198,-257L200,-247L206,-249L213,-246L213,-241L218,-241L232,-250L230,-247L237,-240L250,-217L253,-222L260,-216L269,-219L272,-217L274,-212L278,-210L281,-207L288,-208Z" fill="#E0E0E0" stroke="#fff" stroke-width=".4"/><path d="M115,-139L115,-168L129,-172L130,-172L139,-166L143,-163L149,-156L155,-157L165,-158L172,-152L171,-145L174,-145L175,-138L182,-138L184,-135L186,-135L188,-140L196,-145L199,-147L201,-146L196,-141L200,-138L204,-140L211,-136L203,-131L199,-132L197,-131L196,-133L197,-137L190,-135L188,-130L185,-126L181,-127L179,-123L183,-122L185,-116L181,-109L177,-111L174,-111L174,-115L167,-118L161,-122L157,-125L151,-130L148,-138L146,-139L140,-139L138,-140L137,-146L130,-150L125,-146L120,-143L121,-140Z" fill="#E0E0E0" stroke="#fff" stroke-width=".4"/><path d="M591,130L601,134L611,137L615,140L618,142L619,146L629,149L630,152L625,153L626,157L631,160L635,166L638,166L638,169L642,170L640,171L646,173L646,175L642,175L641,174L636,173L630,172L626,169L623,165L620,160L612,158L608,160L604,161L605,166L600,168L597,167L592,166L591,148ZM657,136L659,137L659,140L658,142L657,139L655,136L653,135L649,132L645,131L647,129L650,131L652,132L654,133ZM649,148L646,149L643,151L640,151L636,149L632,147L633,146L638,146L641,146L642,143L643,143L643,146L646,146L648,144L651,142L650,139L654,138L655,139L655,142L653,146L650,146ZM668,145L670,146L673,150L675,152L675,153L673,154L671,152L668,148L667,144L668,143Z" fill="#E0E0E0" stroke="#fff" stroke-width=".4"/><path d="M-34,140L-33,146L-34,148L-33,152L-29,155L-26,162L-29,161L-36,162L-38,163L-39,167L-38,169L-39,176L-40,182L-38,183L-34,185L-33,184L-32,190L-37,190L-39,187L-41,184L-45,184L-46,181L-50,182L-54,182L-56,179L-60,179L-62,179L-63,177L-65,177L-67,176L-71,177L-73,177L-74,178L-74,171L-76,169L-76,165L-76,162L-77,160L-77,156L-84,156L-83,154L-86,154L-86,155L-90,155L-91,159L-92,160L-95,159L-97,160L-101,160L-103,158L-104,156L-106,152L-107,148L-124,148L-126,149L-127,149L-130,149L-130,148L-129,147L-129,145L-128,143L-126,142L-124,143L-122,140L-119,140L-119,142L-117,143L-114,140L-110,137L-109,135L-109,130L-107,125L-104,122L-100,119L-100,118L-100,115L-99,114L-99,110L-98,105L-97,102L-96,99L-95,95L-95,92L-93,89L-90,87L-85,89L-81,91L-77,91L-73,93L-71,89L-71,89L-68,89L-62,86L-60,88L-58,87L-57,86L-55,86L-51,86L-47,86L-45,86L-42,90L-39,91L-38,90L-35,91L-32,89L-31,92L-26,95L-26,102L-24,103L-26,105L-28,106L-30,109L-31,112L-32,116L-33,118L-33,123L-35,124L-35,128L-35,128L-36,131L-35,134Z" fill="#E0E0E0" stroke="#fff" stroke-width=".4"/><path d="M34,125L31,120L31,100L36,93L37,91L41,91L46,87L53,87L69,70L73,65L76,62L76,59L76,53L76,51L76,51L77,51L80,50L83,49L86,47L88,47L88,49L87,52L87,55L86,57L85,63L82,70L78,77L74,85L69,91L62,99L57,104L48,109L43,114L37,120L36,123Z" fill="#E0E0E0" stroke="#fff" stroke-width=".4"/><path d="M21,141L13,136L13,132L-8,121L-9,120L-9,115L-7,112L-4,109L-2,104L-5,98L-5,95L-8,91L-5,88L-1,84L2,85L2,88L4,90L8,90L15,95L17,95L18,95L19,96L23,96L25,94L30,91L32,93L36,93L31,100L31,120L34,125L30,127L29,129L27,130L26,134L24,136L23,140Z" fill="#E0E0E0" stroke="#fff" stroke-width=".4"/><path d="M-61,69L-65,66L-67,65L-68,63L-67,61L-67,58L-70,55L-71,52L-70,51L-73,49L-73,46L-74,44L-76,44L-75,42L-74,40L-74,37L-73,35L-74,34L-72,30L-70,26L-65,27L-65,3L-65,1L-59,1L-59,-11L-36,-11L-14,-11L8,-11L10,-5L9,-4L9,2L11,9L14,10L17,13L14,16L10,17L8,19L7,23L5,31L5,33L5,38L2,44L-1,47L-3,51L-4,54L-7,55L-8,61L-8,66L-8,62L-9,62L-9,59L-10,57L-13,55L-13,51L-13,46L-15,46L-16,47L-19,48L-18,49L-17,53L-20,56L-23,60L-26,60L-31,57L-33,58L-33,60L-36,61L-36,62L-42,62L-43,61L-47,61L-49,62L-50,61L-53,58L-54,56L-58,57L-60,60L-61,65L-63,66L-65,67Z" fill="#E0E0E0" stroke="#fff" stroke-width=".4"/><path d="M-65,3L-65,27L-70,26L-72,30L-74,34L-73,35L-74,37L-74,40L-75,42L-76,44L-74,44L-73,46L-73,49L-70,51L-71,52L-74,53L-77,56L-81,62L-86,64L-92,64L-93,65L-93,67L-96,69L-98,71L-105,73L-106,72L-107,72L-108,73L-113,73L-112,72L-114,68L-115,66L-117,65L-120,61L-119,59L-117,59L-115,59L-112,59L-115,54L-115,50L-115,46L-117,42L-117,40L-120,40L-120,36L-123,34L-120,26L-113,21L-113,13L-111,1L-110,-2L-112,-4L-112,-6L-114,-7L-115,-16L-110,-20L-87,-8Z" fill="#E0E0E0" stroke="#fff" stroke-width=".4"/><path d="M327,-702L339,-710L350,-692L363,-660L361,-633L349,-629L333,-637L324,-649L320,-672L312,-678ZM378,-645L392,-628L390,-616L358,-606L369,-643L373,-646ZM579,-561L594,-560L614,-548L610,-532L589,-532L580,-527L569,-541L572,-557ZM632,-543L646,-538L639,-529L630,-531L620,-539L621,-547ZM585,-502L590,-510L597,-512L605,-504L606,-499L597,-499L586,-501ZM53,-687L64,-693L72,-693L73,-684L76,-692L82,-698L90,-690L88,-685L80,-681L75,-678L75,-673L68,-667L62,-675L65,-685ZM-71,-249L-82,-249L-88,-250L-87,-254L-79,-257L-74,-256L-71,-254L-72,-251ZM101,-510L115,-528L113,-537L126,-549L144,-564L163,-568L172,-577L183,-581L187,-571L183,-564L164,-552L146,-541L129,-521L121,-501L112,-483L113,-468L124,-454L120,-452L102,-455L101,-462L90,-467L90,-477L95,-481L95,-491L106,-507ZM602,-243L604,-234L604,-225L606,-216L612,-200L604,-203L600,-191L606,-183L605,-177L601,-182L597,-176L596,-182L597,-190L596,-199L598,-206L598,-218L595,-227L595,-239L600,-243L598,-248L601,-249ZM-1207,-425L-1207,-425L-1193,-414L-1179,-399L-1179,-390L-1175,-387L-1177,-397L-1161,-395L-1150,-382L-1156,-376L-1165,-374L-1165,-361L-1168,-359L-1173,-359L-1177,-364L-1185,-367L-1186,-373L-1192,-375L-1198,-374L-1201,-378L-1200,-383L-1206,-380L-1204,-374L-1207,-368L-1207,-368L-1207,-425ZM810,-368L810,-368L803,-362L795,-363L800,-356L804,-346L806,-343L807,-338L806,-334L795,-337L779,-328L774,-327L766,-318L758,-311L756,-306L748,-314L733,-305L730,-309L725,-305L718,-306L716,-299L709,-288L709,-284L716,-282L715,-267L710,-266L707,-258L710,-254L700,-249L698,-238L690,-236L688,-227L680,-218L678,-224L675,-238L672,-259L675,-273L680,-279L680,-284L689,-286L699,-300L708,-311L718,-321L723,-337L716,-336L713,-326L698,-314L694,-328L679,-324L665,-305L670,-298L658,-295L649,-294L649,-302L641,-304L634,-298L616,-300L598,-297L580,-276L558,-253L567,-252L570,-246L575,-243L579,-248L585,-248L593,-237L593,-229L589,-220L589,-210L586,-196L578,-184L576,-178L568,-169L561,-160L557,-155L550,-151L546,-151L542,-154L535,-149L534,-146L534,-146L533,-148L533,-151L536,-152L537,-161L535,-168L540,-170L547,-169L551,-177L553,-186L555,-189L558,-196L549,-194L544,-190L535,-190L533,-198L526,-204L517,-207L515,-216L513,-221L510,-225L507,-234L502,-238L494,-241L486,-240L479,-239L475,-234L478,-232L478,-227L475,-224L470,-214L470,-211L462,-205L455,-208L448,-208L445,-211L442,-211L434,-205L427,-204L421,-202L414,-203L409,-203L406,-207L400,-212L395,-213L388,-212L382,-210L374,-214L373,-220L367,-223L362,-224L355,-228L349,-218L352,-213L346,-207L338,-209L333,-209L329,-214L323,-214L318,-216L310,-212L299,-205L293,-203L291,-203L288,-208L281,-207L278,-210L274,-212L272,-217L269,-219L260,-216L253,-222L250,-217L237,-240L230,-247L232,-250L218,-241L213,-241L213,-246L206,-249L200,-247L198,-257L188,-259L183,-255L169,-251L167,-249L146,-246L143,-243L147,-236L142,-234L143,-231L137,-227L146,-221L145,-216L137,-217L136,-214L128,-219L119,-218L114,-215L107,-218L95,-225L86,-224L74,-215L74,-208L68,-213L63,-204L65,-202L62,-196L66,-190L71,-190L74,-185L74,-180L76,-179L74,-174L68,-173L63,-165L68,-157L67,-152L74,-143L70,-140L69,-138L67,-139L63,-143L61,-144L58,-145L56,-148L51,-150L47,-149L47,-150L39,-154L31,-155L26,-156L25,-156L18,-162L12,-165L7,-170L11,-171L16,-178L12,-181L21,-184L21,-186L16,-185L16,-188L19,-191L24,-191L25,-194L24,-199L26,-203L26,-206L18,-209L14,-209L11,-213L7,-211L-1,-214L-0,-216L-2,-220L-7,-220L-7,-223L-6,-225L-10,-230L-15,-229L-17,-230L-18,-228L-21,-228L-22,-234L-23,-237L-22,-238L-18,-238L-15,-240L-17,-242L-21,-244L-21,-245L-23,-247L-26,-254L-25,-256L-26,-261L-31,-263L-34,-262L-35,-264L-41,-267L-43,-273L-43,-278L-46,-280L-43,-284L-45,-294L-41,-300L-42,-302L-35,-308L-41,-313L-29,-328L-24,-335L-22,-341L-30,-350L-28,-358L-33,-368L-29,-379L-36,-395L-31,-406L-39,-416L-38,-427L-34,-428L-24,-435L-19,-440L-9,-431L6,-427L27,-410L31,-403L32,-393L26,-386L16,-382L-9,-393L-13,-391L-4,-381L-3,-374L-3,-361L4,-357L9,-354L9,-360L6,-365L10,-370L23,-362L28,-365L24,-375L37,-389L42,-388L48,-383L51,-393L46,-401L49,-410L45,-419L60,-414L64,-406L57,-404L57,-396L61,-391L70,-394L71,-404L83,-411L102,-424L107,-423L101,-414L108,-412L112,-417L122,-418L131,-424L137,-415L144,-425L138,-434L141,-439L157,-435L165,-430L185,-412L189,-420L183,-428L183,-432L176,-433L178,-441L175,-454L175,-459L185,-475L189,-492L193,-496L208,-491L209,-480L204,-466L207,-460L209,-448L208,-426L214,-417L212,-407L201,-386L207,-384L209,-389L216,-393L217,-400L222,-407L219,-416L221,-426L215,-427L214,-436L218,-452L211,-466L221,-479L220,-492L222,-492L225,-482L223,-465L229,-461L227,-474L236,-481L248,-482L258,-472L253,-487L252,-508L262,-512L276,-511L288,-513L283,-524L290,-538L296,-539L307,-550L322,-553L324,-559L338,-561L343,-556L356,-569L366,-568L367,-579L373,-589L386,-600L396,-592L388,-585L401,-581L402,-569L407,-575L424,-575L436,-563L441,-555L439,-543L433,-536L419,-525L414,-518L421,-516L430,-510L435,-514L437,-502L440,-507L449,-510L467,-506L468,-497L492,-494L492,-509L504,-506L513,-506L522,-496L524,-484L521,-476L528,-462L537,-455L542,-473L551,-465L561,-470L572,-465L576,-470L585,-467L581,-484L588,-492L614,-487L639,-480L644,-469L658,-456L681,-459L692,-456L697,-449L696,-437L703,-433L711,-436L720,-437L731,-433L742,-435L751,-421L758,-426L754,-436L756,-444L774,-439L786,-440L802,-432L810,-425L810,-368ZM810,-456L804,-455L803,-460L810,-468L810,-456ZM-1207,-468L-1207,-468L-1207,-468L-1206,-468L-1202,-468L-1194,-463L-1194,-461L-1200,-457L-1207,-456L-1207,-456L-1207,-468ZM-11,-176L-10,-178L-6,-176L-4,-175L-3,-174L-2,-174L-2,-173L0,-171L6,-172L5,-169L-1,-167L-9,-163L-12,-164L-11,-168L-17,-170L-16,-172L-10,-175Z" fill="#E0E0E0" stroke="#fff" stroke-width=".4"/><path d="M188,428L191,430L196,431L197,433L195,437L187,438L186,433L187,429Z" fill="#E0E0E0" stroke="#fff" stroke-width=".4"/><path d="M502,165L502,164L507,163L511,162L513,162L515,162L513,164L507,166L502,168L502,166Z" fill="#E0E0E0" stroke="#fff" stroke-width=".4"/><path d="M-107,282L-104,279L-102,281L-101,284L-99,284L-95,285L-92,285L-87,282L-87,258L-86,259L-82,265L-83,269L-82,271L-78,271L-75,268L-72,266L-71,263L-68,262L-66,262L-63,264L-58,264L-55,263L-54,261L-53,258L-50,258L-49,255L-47,251L-42,247L-34,242L-31,242L-29,243L-27,242L-24,243L-21,252L-20,256L-21,263L-20,265L-23,264L-25,264L-25,266L-27,269L-27,271L-23,274L-20,273L-19,271L-15,271L-16,275L-17,281L-18,283L-22,287L-23,288L-26,291L-27,294L-30,299L-37,306L-41,310L-45,313L-51,315L-53,316L-54,318L-58,317L-60,318L-66,317L-70,317L-72,317L-78,320L-83,321L-86,323L-89,323L-91,321L-93,321L-95,318L-96,319L-96,317L-96,313L-98,309L-96,307L-97,302L-100,296L-103,291L-103,291ZM-36,285L-39,283L-41,284L-44,287L-47,291L-43,296L-41,295L-40,293L-37,292L-36,290L-34,287Z" fill="#E0E0E0" stroke="#fff" stroke-width=".4"/><path d="M-36,285L-34,287L-36,290L-37,292L-40,293L-41,295L-43,296L-47,291L-44,287L-41,284L-39,283Z" fill="#E0E0E0" stroke="#fff" stroke-width=".4"/><path d="M-488,92L-491,97L-493,101L-495,103L-498,104L-499,102L-500,102L-502,103L-504,102L-503,100L-502,97L-501,95L-503,92L-504,88L-501,83L-499,83L-495,85L-489,90ZM-164,-205L-161,-202L-153,-201L-156,-195L-157,-189L-158,-188L-161,-188L-161,-186L-165,-182L-165,-178L-162,-179L-160,-176L-161,-173L-159,-170L-161,-168L-159,-162L-156,-161L-157,-158L-162,-153L-173,-155L-181,-153L-182,-148L-188,-147L-195,-151L-197,-149L-207,-152L-209,-155L-206,-160L-205,-176L-211,-184L-215,-189L-224,-192L-224,-198L-217,-200L-208,-198L-209,-207L-204,-204L-191,-210L-189,-218L-185,-219L-184,-216L-181,-216L-179,-213L-175,-208L-172,-209L-167,-205L-166,-204ZM-150,-149L-146,-152L-145,-146L-147,-140L-149,-141L-151,-147Z" fill="#E0E0E0" stroke="#fff" stroke-width=".4"/><path d="M-24,243L-27,242L-29,243L-31,242L-34,242L-37,239L-42,238L-43,235L-43,233L-46,232L-52,225L-54,222L-55,221L-57,216L-51,217L-49,217L-47,217L-44,214L-39,209L-37,208L-36,206L-33,204L-29,203L-29,205L-24,205L-21,206L-20,208L-18,208L-15,210L-15,218L-16,222L-16,226L-15,228L-16,231L-16,232L-18,236Z" fill="#E0E0E0" stroke="#fff" stroke-width=".4"/><path d="M-34,242L-42,247L-47,251L-49,255L-50,258L-53,258L-54,261L-55,263L-58,264L-63,264L-66,262L-68,262L-71,263L-72,266L-75,268L-78,271L-82,271L-83,269L-82,265L-86,259L-87,258L-87,241L-82,240L-81,219L-77,219L-69,217L-67,219L-63,217L-61,217L-58,216L-57,216L-55,221L-54,222L-52,225L-46,232L-43,233L-43,235L-42,238L-37,239Z" fill="#E0E0E0" stroke="#fff" stroke-width=".4"/><path d="M-87,258L-87,282L-92,285L-95,285L-99,284L-101,284L-102,281L-104,279L-107,282L-111,278L-113,273L-115,267L-116,262L-118,253L-118,246L-119,242L-121,240L-124,235L-127,228L-128,224L-133,218L-133,214L-130,212L-127,211L-123,212L-120,214L-119,214L-96,214L-92,216L-79,217L-69,215L-64,214L-60,214L-58,215L-58,216L-61,217L-63,217L-67,219L-69,217L-77,219L-81,219L-82,240L-87,241Z" fill="#E0E0E0" stroke="#fff" stroke-width=".4"/><path d="M-263,45L-263,43L-263,41L-265,39L-267,36L-267,32L-265,31L-264,28L-262,28L-258,29L-255,28L-253,29L-252,27L-230,27L-228,23L-229,22L-232,-3L-235,-29L-226,-29L-207,-16L-188,-3L-187,-0L-184,2L-181,3L-181,6L-175,6L-175,19L-178,23L-178,27L-183,28L-191,28L-193,30L-197,31L-200,31L-202,29L-205,30L-210,33L-211,34L-215,37L-216,39L-218,40L-221,39L-223,40L-223,44L-228,49L-228,51L-229,53L-229,57L-231,58L-233,58L-233,56L-235,56L-236,56L-237,58L-241,58L-243,57L-244,58L-245,56L-245,54L-246,54L-247,54L-247,52L-246,51L-248,48L-249,47L-250,46L-251,45L-252,46L-254,47L-256,48L-258,48L-260,46L-260,46L-262,47L-263,47Z" fill="#E0E0E0" stroke="#fff" stroke-width=".4"/><path d="M-184,80L-188,81L-190,77L-189,64L-190,63L-191,60L-193,58L-194,56L-194,53L-192,52L-191,50L-188,49L-187,48L-185,46L-183,46L-178,49L-179,51L-177,55L-178,57L-178,58L-181,62L-182,64L-183,67L-183,71Z" fill="#E0E0E0" stroke="#fff" stroke-width=".4"/><path d="M-115,-16L-114,-7L-112,-6L-112,-4L-110,-2L-111,1L-113,13L-113,21L-120,26L-123,34L-120,36L-120,40L-117,40L-117,42L-119,43L-119,45L-120,45L-124,38L-125,38L-130,41L-134,40L-137,39L-139,40L-142,40L-145,43L-148,43L-155,40L-158,41L-160,41L-163,39L-168,37L-174,37L-176,39L-176,42L-178,44L-178,49L-183,46L-185,46L-187,48L-186,44L-193,43L-193,40L-196,36L-197,33L-197,31L-193,30L-191,28L-183,28L-178,27L-178,23L-175,19L-175,6L-167,3L-151,-9L-131,-20L-123,-18L-119,-14Z" fill="#E0E0E0" stroke="#fff" stroke-width=".4"/><path d="M-184,80L-183,71L-183,67L-182,64L-181,62L-178,58L-178,57L-177,55L-179,51L-178,49L-178,44L-176,42L-176,39L-174,37L-168,37L-163,39L-160,41L-158,41L-155,40L-148,43L-145,43L-142,40L-139,40L-137,39L-134,40L-130,41L-125,38L-124,38L-120,45L-119,45L-117,47L-118,48L-118,50L-123,54L-124,58L-125,61L-126,62L-127,66L-130,68L-131,71L-132,74L-133,76L-137,78L-140,76L-142,76L-145,79L-147,79L-150,84L-151,88L-157,90L-159,90L-161,91L-166,91L-169,88L-170,84L-174,80L-179,80Z" fill="#E0E0E0" stroke="#fff" stroke-width=".4"/><path d="M-117,42L-115,46L-115,50L-115,54L-112,59L-115,59L-117,59L-119,59L-120,61L-117,65L-115,66L-114,68L-112,72L-113,73L-116,79L-117,80L-118,85L-117,87L-118,89L-115,92L-114,94L-112,96L-110,98L-110,101L-109,102L-109,105L-114,104L-118,103L-125,102L-126,102L-129,103L-133,102L-135,102L-145,102L-144,98L-146,94L-148,93L-150,91L-151,90L-151,88L-150,84L-147,79L-145,79L-142,76L-140,76L-137,78L-133,76L-132,74L-131,71L-130,68L-127,66L-126,62L-125,61L-124,58L-123,54L-118,50L-118,48L-117,47L-119,45L-119,43Z" fill="#E0E0E0" stroke="#fff" stroke-width=".4"/><path d="M-194,53L-194,56L-193,58L-191,60L-190,63L-189,64L-190,77L-188,81L-193,82L-194,80L-195,76L-196,73L-195,68L-196,66L-197,62L-197,58L-199,55L-198,53Z" fill="#E0E0E0" stroke="#fff" stroke-width=".4"/><path d="M-198,53L-199,55L-197,58L-197,62L-196,66L-195,68L-196,73L-195,76L-194,80L-193,82L-201,85L-205,87L-210,89L-215,87L-214,85L-217,80L-215,74L-213,69L-214,61L-215,57L-215,53L-205,53L-203,53L-201,53Z" fill="#E0E0E0" stroke="#fff" stroke-width=".4"/><path d="M-229,57L-229,53L-228,51L-228,49L-223,44L-223,40L-221,39L-218,40L-216,39L-215,37L-211,34L-210,33L-205,30L-202,29L-200,31L-197,31L-197,33L-196,36L-193,40L-193,43L-186,44L-187,48L-188,49L-191,50L-192,52L-194,53L-198,53L-201,53L-203,53L-205,53L-215,53L-215,57L-214,61L-218,59L-221,60L-223,61L-225,60L-226,58Z" fill="#E0E0E0" stroke="#fff" stroke-width=".4"/><path d="M-45,86L-47,86L-51,86L-55,86L-57,86L-58,87L-60,88L-62,86L-68,89L-71,89L-71,89L-73,93L-77,91L-81,91L-85,89L-90,87L-93,89L-95,92L-95,95L-99,95L-103,94L-106,97L-109,102L-110,101L-110,98L-112,96L-114,94L-115,92L-118,89L-117,87L-118,85L-117,80L-116,79L-113,73L-108,73L-107,72L-106,72L-105,73L-98,71L-96,69L-93,67L-93,65L-92,64L-86,64L-81,62L-77,56L-74,53L-71,52L-70,55L-67,58L-67,61L-68,63L-67,65L-65,66L-61,69L-58,71L-58,73L-54,76L-52,78L-50,82L-46,84Z" fill="#E0E0E0" stroke="#fff" stroke-width=".4"/><path d="M-95,95L-96,99L-97,102L-98,105L-99,110L-99,114L-100,115L-100,118L-100,119L-104,122L-107,125L-109,130L-109,135L-110,137L-114,140L-117,143L-119,142L-119,140L-122,140L-124,143L-126,142L-128,140L-130,141L-132,143L-136,137L-132,134L-134,131L-132,129L-129,129L-128,126L-125,129L-120,129L-119,126L-118,123L-118,118L-121,115L-119,108L-120,107L-124,108L-126,105L-125,102L-118,103L-114,104L-109,105L-109,102L-106,97L-103,94L-99,95Z" fill="#E0E0E0" stroke="#fff" stroke-width=".4"/><path d="M-135,102L-133,102L-129,103L-126,102L-125,102L-126,105L-124,108L-120,107L-119,108L-121,115L-118,118L-118,123L-119,126L-120,129L-125,129L-128,126L-129,129L-132,129L-134,131L-132,134L-136,137L-142,132L-146,127L-149,121L-149,120L-148,118L-147,114L-145,109L-144,109L-135,109Z" fill="#E0E0E0" stroke="#fff" stroke-width=".4"/><path d="M-145,102L-135,102L-135,109L-144,109L-145,109L-147,109Z" fill="#E0E0E0" stroke="#fff" stroke-width=".4"/><path d="M-26,162L-24,163L-22,164L-18,165L-15,167L-12,170L-11,174L-12,176L-13,181L-12,185L-14,187L-16,193L-13,194L-30,199L-29,203L-33,204L-36,206L-37,208L-39,209L-44,214L-47,217L-49,217L-51,217L-57,216L-58,216L-58,215L-60,214L-64,214L-69,215L-72,211L-76,206L-76,188L-64,188L-65,186L-64,184L-65,181L-64,179L-65,177L-63,177L-62,179L-60,179L-56,179L-54,182L-50,182L-46,181L-45,184L-41,184L-39,187L-37,190L-32,190L-33,184L-34,185L-38,183L-40,182L-39,176L-38,169L-39,167L-38,163L-36,162L-29,161Z" fill="#E0E0E0" stroke="#fff" stroke-width=".4"/><path d="M-15,167L-10,168L-8,170L-7,172L-5,180L-7,184L-5,192L-3,192L-1,194L1,198L2,205L-1,207L-2,211L-6,207L-6,203L-5,200L-6,198L-8,196L-9,197L-13,194L-16,193L-14,187L-12,185L-13,181L-12,176L-11,174L-12,170Z" fill="#E0E0E0" stroke="#fff" stroke-width=".4"/><path d="M-5,180L-1,180L6,181L7,181L11,180L13,179L17,179L23,177L27,173L28,176L28,181L29,187L29,196L30,198L28,203L26,207L22,210L17,212L11,215L5,222L2,223L-1,227L-4,228L-4,233L-2,237L-0,241L-0,242L1,242L0,248L-0,251L1,252L0,254L-2,257L-7,259L-14,262L-16,264L-16,267L-14,267L-15,271L-19,271L-19,268L-20,265L-21,263L-20,256L-21,252L-24,243L-18,236L-16,232L-16,231L-15,228L-16,226L-16,222L-15,218L-15,210L-18,208L-20,208L-21,206L-24,205L-29,205L-29,203L-30,199L-13,194L-9,197L-8,196L-6,198L-5,200L-6,203L-6,207L-2,211L-1,207L2,205L1,198L-1,194L-3,192L-5,192L-7,184Z" fill="#E0E0E0" stroke="#fff" stroke-width=".4"/><path d="M-19,271L-20,273L-23,274L-27,271L-27,269L-25,266L-25,264L-23,264L-20,265L-19,268Z" fill="#E0E0E0" stroke="#fff" stroke-width=".4"/><path d="M-126,142L-128,143L-129,145L-129,147L-130,148L-132,143L-130,141L-128,140ZM-130,149L-127,149L-126,149L-124,148L-107,148L-106,152L-104,156L-103,158L-101,160L-97,160L-95,159L-92,160L-91,159L-90,155L-86,155L-86,154L-83,154L-84,156L-77,156L-77,160L-76,162L-76,165L-76,169L-74,171L-74,178L-73,177L-71,177L-67,176L-65,177L-64,179L-65,181L-64,184L-65,186L-64,188L-76,188L-76,206L-72,211L-69,215L-79,217L-92,216L-96,214L-119,214L-120,214L-123,212L-127,211L-130,212L-133,214L-133,210L-133,205L-131,199L-130,197L-129,192L-127,189L-124,186L-122,183L-122,179L-122,176L-124,174L-125,170L-126,167L-126,166L-124,163L-126,158L-127,154L-130,150Z" fill="#E0E0E0" stroke="#fff" stroke-width=".4"/><path d="M-28,129L-28,131L-26,132L-26,134L-28,135L-30,138L-32,140L-34,140L-35,134L-36,131L-33,131L-31,128Z" fill="#E0E0E0" stroke="#fff" stroke-width=".4"/><path d="M2,-79L1,-77L-2,-78L-3,-73L-1,-73L-3,-72L-3,-70L-0,-71L-0,-68L-3,-58L-4,-60L-7,-69L-5,-71L-5,-72L-4,-75L-3,-80L-2,-81L-2,-82L0,-81L1,-83L2,-83L2,-80L1,-79Z" fill="#E0E0E0" stroke="#fff" stroke-width=".4"/><path d="M2,-83L1,-83L0,-81L-2,-82L0,-87L3,-92L3,-92L6,-92L6,-89L3,-86Z" fill="#E0E0E0" stroke="#fff" stroke-width=".4"/><path d="M79,186L80,188L82,192L83,199L84,201L84,204L83,206L81,203L80,204L81,209L80,211L79,212L78,217L76,224L73,233L70,244L68,252L65,260L61,261L56,264L53,262L48,260L47,257L46,251L44,246L44,242L45,238L47,236L47,234L50,230L50,226L49,223L48,220L48,214L50,211L50,207L53,207L56,206L58,205L61,205L64,201L69,198L70,195L70,192L72,193L75,189L75,186L77,183Z" fill="#E0E0E0" stroke="#fff" stroke-width=".4"/><path d="M-0,-71L-3,-70L-3,-72L-1,-73L-3,-73L-2,-78L1,-77L1,-73Z" fill="#E0E0E0" stroke="#fff" stroke-width=".4"/><path d="M-146,-63L-148,-75L-151,-78L-151,-79L-156,-83L-156,-88L-153,-92L-152,-98L-153,-104L-151,-108L-145,-111L-141,-110L-142,-106L-137,-109L-136,-108L-139,-104L-139,-101L-137,-99L-138,-93L-142,-90L-141,-86L-138,-86L-136,-83L-134,-82L-135,-77L-137,-75L-139,-73L-143,-70L-142,-67L-143,-65Z" fill="#E0E0E0" stroke="#fff" stroke-width=".4"/><path d="M-247,-45L-247,-46L-247,-46L-247,-54L-238,-58L-233,-59L-228,-61L-226,-64L-219,-67L-219,-72L-216,-72L-213,-75L-206,-76L-205,-79L-206,-80L-208,-87L-209,-91L-211,-96L-205,-99L-199,-101L-196,-103L-190,-106L-181,-107L-172,-107L-169,-106L-164,-109L-158,-109L-155,-107L-151,-108L-153,-104L-152,-98L-153,-92L-156,-88L-156,-83L-151,-79L-151,-78L-148,-75L-146,-63L-144,-57L-143,-54L-144,-49L-144,-46L-145,-43L-144,-39L-146,-36L-143,-32L-143,-29L-141,-26L-138,-27L-134,-24L-131,-20L-151,-9L-167,3L-175,6L-181,6L-181,3L-184,2L-187,-0L-188,-3L-207,-16L-226,-29Z" fill="#E0E0E0" stroke="#fff" stroke-width=".4"/><path d="M1,-77L2,-79L8,-76L19,-83L21,-75L20,-74L9,-71L14,-64L12,-63L11,-61L7,-60L6,-58L3,-56L-3,-57L-3,-58L-0,-68L-0,-71L1,-73Z" fill="#E0E0E0" stroke="#fff" stroke-width=".4"/><path d="M90,-25L91,-25L92,-24L96,-25L101,-24L104,-24L108,-28L112,-32L116,-36L117,-34L117,-29L114,-29L114,-25L115,-24L112,-23L112,-21L111,-18L111,-16L110,-14L93,-17L91,-24Z" fill="#E0E0E0" stroke="#fff" stroke-width=".4"/><path d="M86,-28L86,-33L87,-36L89,-37L90,-35L91,-31L89,-27L88,-27Z" fill="#E0E0E0" stroke="#fff" stroke-width=".4"/><path d="M70,-61L71,-58L71,-57L73,-52L69,-52L67,-55L62,-55L66,-62Z" fill="#E0E0E0" stroke="#fff" stroke-width=".4"/><path d="M21,-75L19,-83L31,-90L33,-99L33,-104L36,-106L39,-110L41,-111L48,-110L50,-108L52,-109L56,-101L60,-99L60,-95L57,-93L56,-87L60,-81L67,-77L69,-72L69,-68L70,-68L70,-64L73,-61L70,-61L66,-62L62,-55L52,-56L36,-69L28,-74Z" fill="#E0E0E0" stroke="#fff" stroke-width=".4"/><path d="M111,-16L111,-18L112,-21L112,-23L115,-24L114,-25L114,-29L117,-29L120,-25L123,-23L127,-22L130,-21L133,-17L134,-15L136,-14L136,-13L134,-10L134,-8L131,-6L129,-2L127,-2L125,-1L124,2L125,6L125,7L122,7L119,9L118,12L117,13L113,13L111,15L111,17L108,19L105,18L102,20L99,21L97,16L93,7L110,1L113,-11ZM117,-34L116,-36L117,-38L118,-38L117,-35Z" fill="#E0E0E0" stroke="#fff" stroke-width=".4"/><path d="M738,205L742,209L740,209L738,207ZM736,204L735,202L735,198L738,200L739,204L737,204Z" fill="#E0E0E0" stroke="#fff" stroke-width=".4"/><path d="M376,46L375,39L378,35L386,34L391,34L395,37L398,33L403,35L404,39L404,45L394,50L397,53L391,54L386,56L381,55L379,52Z" fill="#E0E0E0" stroke="#fff" stroke-width=".4"/><path d="M391,34L386,34L378,35L375,39L376,46L371,44L366,44L367,39L362,39L362,46L359,54L357,59L357,63L361,63L363,69L364,73L367,77L371,77L374,80L372,83L368,83L368,80L363,78L362,79L360,77L359,74L356,71L353,68L352,71L351,68L352,65L354,59L356,53L359,48L357,43L357,40L357,37L353,32L351,29L353,28L355,23L353,19L350,15L347,10L349,9L352,2L356,2L359,-0L362,-2L365,0L365,4L369,4L367,10L368,15L373,12L375,13L378,13L380,11L384,11L388,16L388,22L393,27L393,32Z" fill="#E0E0E0" stroke="#fff" stroke-width=".4"/><path d="M403,35L398,33L395,37L391,34L393,32L393,27L388,22L388,16L384,11L380,11L378,13L375,13L373,12L368,15L367,10L369,4L365,4L365,0L362,-2L363,-4L368,-8L369,-6L372,-6L371,-13L374,-14L377,-9L380,-4L386,-4L389,1L385,3L383,5L390,9L395,16L398,21L403,25L404,29Z" fill="#E0E0E0" stroke="#fff" stroke-width=".4"/><path d="M362,-2L359,-0L356,2L352,2L349,9L347,10L350,15L353,19L355,23L353,28L351,29L353,32L357,37L357,40L357,43L359,48L356,53L354,59L353,55L355,51L353,47L353,41L351,38L349,31L348,24L346,19L342,22L336,26L333,25L329,24L331,17L330,11L325,5L326,2L323,2L319,-3L319,-8L320,-7L321,-12L323,-13L323,-16L324,-18L324,-24L329,-23L331,-28L331,-31L334,-36L334,-39L342,-44L346,-43L345,-46L347,-48L347,-50L350,-51L352,-47L354,-45L354,-40L354,-35L349,-30L348,-23L354,-24L355,-18L359,-17L357,-12L362,-10L364,-9L368,-10L368,-8L363,-4Z" fill="#E0E0E0" stroke="#fff" stroke-width=".4"/><path d="M386,56L391,54L397,53L394,50L404,45L404,39L403,35L404,29L403,25L398,21L395,16L390,9L383,5L385,3L389,1L386,-4L380,-4L377,-9L374,-14L377,-16L381,-16L387,-16L391,-19L394,-17L399,-16L398,-13L401,-10L407,-9L399,-3L395,2L393,6L398,13L403,20L408,24L411,29L414,39L413,49L408,53L402,57L398,61L391,67L388,63L390,59Z" fill="#E0E0E0" stroke="#fff" stroke-width=".4"/><path d="M534,-146L534,-146L534,-146ZM533,-148L534,-146L532,-147L530,-144L528,-142L528,-136L525,-135L524,-133L522,-131L518,-130L516,-128L516,-125L515,-124L517,-123L520,-120L520,-118L517,-118L513,-117L511,-114L509,-114L508,-114L506,-115L505,-114L503,-113L503,-114L502,-115L500,-116L502,-119L503,-120L502,-121L504,-125L503,-126L500,-127L498,-129L502,-134L508,-138L512,-143L515,-141L520,-141L519,-145L527,-148L530,-152Z" fill="#E0E0E0" stroke="#fff" stroke-width=".4"/><path d="M508,-114L509,-114L511,-114L513,-117L517,-118L520,-118L520,-120L525,-111L527,-107L527,-99L525,-95L520,-94L515,-91L510,-90L509,-94L510,-99L508,-106L512,-108Z" fill="#E0E0E0" stroke="#fff" stroke-width=".4"/><path d="M293,-203L299,-205L310,-212L318,-216L323,-214L329,-214L333,-209L338,-209L346,-207L352,-213L349,-218L355,-228L362,-224L367,-223L373,-220L374,-214L382,-210L388,-212L395,-213L400,-212L406,-207L409,-203L414,-203L421,-202L427,-204L434,-205L442,-211L445,-211L448,-208L455,-208L452,-202L448,-193L450,-190L453,-191L459,-190L463,-193L467,-190L472,-184L472,-181L467,-182L459,-181L455,-179L451,-174L443,-170L437,-166L431,-168L428,-169L425,-164L427,-160L428,-158L424,-155L420,-151L413,-149L405,-148L396,-146L389,-142L387,-144L380,-144L372,-148L366,-150L359,-149L347,-150L341,-150L338,-155L335,-162L332,-163L325,-168L318,-169L311,-170L309,-174L311,-183L307,-190L299,-193L294,-197Z" fill="#E0E0E0" stroke="#fff" stroke-width=".4"/><path d="M347,-50L347,-48L345,-46L346,-43L342,-44L334,-39L334,-36L331,-31L331,-28L329,-23L324,-24L324,-18L323,-16L323,-13L321,-12L318,-21L316,-21L315,-17L312,-20L314,-24L316,-24L319,-29L316,-31L310,-30L305,-31L305,-36L302,-36L298,-39L296,-34L300,-31L296,-29L295,-27L298,-25L297,-21L299,-17L300,-12L299,-9L296,-9L289,-8L289,-4L286,-0L278,4L272,11L267,15L262,18L262,21L259,23L254,25L251,25L250,29L251,37L251,42L249,47L249,57L246,57L243,61L245,63L240,65L238,69L236,70L230,65L228,57L226,51L224,49L221,43L219,36L218,32L213,24L211,13L209,5L209,-2L208,-7L200,-4L196,-4L189,-12L192,-14L190,-16L183,-22L187,-26L199,-26L198,-31L195,-34L195,-39L191,-42L197,-48L204,-48L209,-55L213,-61L218,-68L218,-72L223,-76L218,-79L217,-84L215,-90L217,-93L226,-91L232,-92L237,-98L243,-90L243,-84L245,-81L245,-77L241,-78L243,-71L248,-67L256,-62L252,-59L250,-53L255,-51L261,-48L268,-44L276,-44L279,-40L283,-40L290,-38L295,-38L295,-41L295,-45L295,-48L298,-49L299,-44L299,-43L304,-40L308,-41L312,-41L317,-41L317,-45L315,-47L320,-48L325,-52L331,-57L336,-55L340,-58L343,-54L341,-51Z" fill="#E0E0E0" stroke="#fff" stroke-width=".4"/><path d="M321,-12L320,-7L319,-8L319,-3L317,-6L317,-9L316,-12L314,-16L308,-16L309,-14L307,-10L305,-11L304,-10L302,-11L300,-12L299,-17L297,-21L298,-25L295,-27L296,-29L300,-31L296,-34L298,-39L302,-36L305,-36L305,-31L310,-30L316,-31L319,-29L316,-24L314,-24L312,-20L315,-17L316,-21L318,-21Z" fill="#E0E0E0" stroke="#fff" stroke-width=".4"/><path d="M315,-47L317,-45L317,-41L312,-41L308,-41L304,-40L299,-43L299,-44L303,-49L306,-50L310,-49L313,-49Z" fill="#E0E0E0" stroke="#fff" stroke-width=".4"/><path d="M295,-48L295,-45L295,-41L295,-38L290,-38L283,-40L279,-40L276,-44L268,-44L261,-48L255,-51L250,-53L252,-59L256,-62L258,-64L263,-62L268,-58L271,-57L273,-54L278,-52L282,-50L289,-48Z" fill="#E0E0E0" stroke="#fff" stroke-width=".4"/><path d="M237,-98L232,-92L226,-91L217,-93L215,-90L217,-84L218,-79L223,-76L218,-72L218,-68L213,-61L209,-55L204,-48L197,-48L191,-42L195,-39L195,-34L198,-31L199,-26L187,-26L183,-22L179,-23L178,-28L173,-32L163,-31L154,-31L146,-30L148,-37L156,-41L156,-43L153,-44L153,-50L147,-53L145,-57L142,-60L152,-57L157,-58L161,-57L162,-58L166,-58L173,-60L173,-66L176,-70L181,-70L181,-72L185,-72L188,-72L190,-74L189,-78L192,-82L195,-83L193,-88L198,-88L200,-90L200,-93L203,-95L202,-99L201,-102L204,-105L210,-106L216,-107L219,-108L222,-109L227,-106L228,-101Z" fill="#E0E0E0" stroke="#fff" stroke-width=".4"/><path d="M174,-111L177,-111L181,-109L183,-108L187,-111L189,-109L191,-113L194,-112L195,-113L196,-116L198,-119L201,-117L200,-115L202,-115L202,-109L204,-106L206,-108L208,-109L212,-112L216,-111L221,-111L222,-109L219,-108L216,-107L210,-106L204,-105L201,-102L202,-99L203,-95L200,-93L200,-90L198,-88L193,-88L195,-83L192,-82L189,-78L190,-74L188,-72L185,-72L181,-72L181,-70L176,-70L173,-66L173,-60L166,-58L162,-58L161,-57L157,-58L152,-57L142,-60L148,-66L147,-70L143,-71L142,-75L141,-81L143,-84L140,-85L142,-90L144,-99L150,-96L154,-97L155,-100L160,-101L163,-103L164,-109L169,-110L170,-113L172,-111Z" fill="#E0E0E0" stroke="#fff" stroke-width=".4"/><path d="M181,-109L185,-116L183,-122L179,-123L181,-127L185,-126L188,-130L190,-135L197,-137L196,-133L197,-131L199,-132L197,-129L191,-131L191,-126L197,-127L204,-125L214,-126L216,-119L217,-120L221,-118L221,-115L221,-111L216,-111L212,-112L208,-109L206,-108L204,-106L202,-109L202,-115L200,-115L201,-117L198,-119L196,-116L195,-113L194,-112L191,-113L189,-109L187,-111L183,-108Z" fill="#E0E0E0" stroke="#fff" stroke-width=".4"/><path d="M199,-147L200,-150L204,-151L213,-148L214,-153L217,-154L225,-151L227,-152L236,-152L245,-151L248,-148L251,-147L250,-146L241,-141L239,-139L232,-138L230,-133L224,-134L220,-132L215,-129L216,-127L214,-126L204,-125L197,-127L191,-126L191,-131L197,-129L199,-132L203,-131L211,-136L204,-140L200,-138L196,-141L201,-146Z" fill="#E0E0E0" stroke="#fff" stroke-width=".4"/><path d="M96,-143L98,-145L104,-147L108,-145L112,-139L115,-139L121,-140L120,-143L125,-146L130,-150L137,-146L138,-140L140,-139L146,-139L148,-138L151,-130L157,-125L161,-122L167,-118L174,-115L174,-111L172,-111L170,-113L169,-110L164,-109L163,-103L160,-101L155,-100L154,-97L150,-96L144,-99L144,-105L140,-105L133,-111L129,-112L123,-116L119,-116L116,-115L112,-115L108,-111L103,-110L102,-115L103,-122L99,-125L100,-130L97,-130L98,-136L103,-134L108,-137L104,-141L102,-146L98,-144L97,-138Z" fill="#E0E0E0" stroke="#fff" stroke-width=".4"/><path d="M73,-61L70,-64L70,-68L69,-68L69,-72L67,-77L60,-81L56,-87L57,-93L60,-95L60,-99L56,-101L52,-109L49,-115L50,-117L48,-126L52,-128L53,-125L56,-122L60,-121L62,-121L69,-126L71,-127L72,-125L70,-121L74,-117L75,-118L77,-112L82,-111L86,-107L94,-106L103,-108L103,-110L108,-111L112,-115L116,-115L119,-116L123,-116L129,-112L133,-111L140,-105L144,-105L144,-99L142,-90L140,-85L143,-84L141,-81L142,-75L143,-71L147,-70L148,-66L142,-60L145,-57L147,-53L153,-50L153,-44L156,-43L156,-41L148,-37L146,-30L135,-32L129,-33L123,-34L121,-42L118,-43L114,-42L108,-39L101,-41L95,-46L90,-48L86,-54L82,-62L79,-61L76,-63Z" fill="#E0E0E0" stroke="#fff" stroke-width=".4"/><path d="M2,-79L1,-79L2,-80L2,-83L3,-86L6,-89L6,-92L3,-92L3,-97L4,-100L5,-102L7,-103L7,-107L9,-106L15,-108L18,-106L23,-106L29,-109L32,-109L39,-110L36,-106L33,-104L33,-99L31,-90L19,-83L8,-76Z" fill="#E0E0E0" stroke="#fff" stroke-width=".4"/><path d="M62,-121L60,-121L58,-125L58,-126L55,-126L53,-128L52,-128L50,-130L46,-132L46,-135L46,-138L53,-139L54,-137L57,-136L55,-134L58,-131L57,-129L59,-127L62,-126Z" fill="#E0E0E0" stroke="#fff" stroke-width=".4"/><path d="M-21,-228L-18,-228L-17,-230L-15,-229L-10,-230L-6,-225L-7,-223L-7,-220L-2,-220L-0,-216L-1,-214L7,-211L11,-213L14,-209L18,-209L26,-206L26,-203L24,-199L25,-194L24,-191L19,-191L16,-188L16,-185L11,-184L7,-181L2,-181L-3,-178L-2,-174L-3,-174L-4,-175L-6,-176L-10,-178L-11,-176L-12,-176L-21,-178L-21,-182L-26,-181L-28,-176L-33,-170L-35,-171L-38,-170L-40,-172L-39,-173L-38,-175L-37,-178L-37,-179L-36,-180L-35,-179L-32,-179L-30,-179L-31,-180L-31,-181L-33,-183L-34,-187L-36,-188L-35,-191L-38,-193L-40,-194L-44,-196L-48,-195L-49,-194L-52,-194L-53,-192L-57,-191L-59,-190L-62,-192L-66,-192L-69,-193L-71,-191L-72,-193L-75,-196L-74,-199L-72,-201L-71,-201L-72,-205L-67,-212L-65,-213L-64,-215L-67,-223L-64,-224L-61,-226L-57,-226L-51,-226L-45,-223L-40,-223L-38,-222L-36,-223L-35,-221L-30,-222L-27,-221L-27,-225L-25,-227Z" fill="#E0E0E0" stroke="#fff" stroke-width=".4"/><path d="M-104,-193L-104,-190L-107,-190L-106,-188L-108,-183L-109,-181L-114,-181L-117,-179L-121,-180L-129,-182L-131,-185L-136,-183L-137,-182L-140,-183L-143,-183L-146,-185L-145,-187L-145,-188L-143,-189L-140,-186L-140,-189L-135,-188L-131,-190L-128,-189L-126,-188L-126,-189L-126,-195L-124,-196L-122,-200L-118,-197L-115,-200L-113,-201L-109,-198L-106,-199L-104,-197L-104,-196Z" fill="#E0E0E0" stroke="#fff" stroke-width=".4"/><path d="M-75,-196L-72,-193L-71,-191L-75,-189L-77,-184L-81,-178L-85,-177L-89,-177L-93,-175L-95,-174L-100,-175L-104,-179L-106,-180L-107,-183L-108,-183L-106,-188L-107,-190L-104,-190L-104,-193L-101,-191L-99,-190L-94,-191L-93,-193L-91,-193L-88,-194L-88,-194L-85,-195L-84,-197L-82,-197L-76,-195Z" fill="#E0E0E0" stroke="#fff" stroke-width=".4"/><path d="M-49,-194L-48,-195L-44,-196L-40,-194L-38,-193L-35,-191L-36,-188L-34,-187L-33,-183L-31,-181L-31,-180L-30,-179L-32,-179L-35,-179L-36,-180L-37,-179L-37,-178L-38,-175L-39,-173L-40,-172L-41,-175L-41,-179L-41,-182L-44,-187L-46,-191L-48,-193Z" fill="#E0E0E0" stroke="#fff" stroke-width=".4"/><path d="M-40,-172L-38,-170L-35,-171L-33,-170L-33,-168L-35,-166L-37,-167L-39,-158L-42,-158L-46,-161L-53,-159L-55,-158L-64,-158L-68,-159L-70,-159L-72,-162L-73,-163L-71,-164L-73,-165L-75,-164L-78,-166L-78,-169L-82,-171L-82,-174L-85,-177L-81,-178L-77,-184L-75,-189L-71,-191L-69,-193L-66,-192L-62,-192L-59,-190L-57,-191L-53,-192L-52,-194L-49,-194L-48,-193L-46,-191L-44,-187L-41,-182L-41,-179L-41,-175Z" fill="#E0E0E0" stroke="#fff" stroke-width=".4"/><path d="M-120,-243L-118,-239L-120,-236L-118,-233L-116,-228L-117,-225L-114,-219L-117,-218L-118,-219L-120,-217L-124,-216L-126,-214L-130,-212L-129,-209L-128,-205L-126,-203L-122,-200L-124,-196L-126,-195L-126,-189L-126,-188L-128,-189L-131,-190L-135,-188L-140,-189L-140,-186L-143,-189L-145,-188L-151,-191L-152,-189L-157,-189L-156,-195L-153,-201L-161,-202L-164,-205L-164,-208L-165,-210L-164,-216L-165,-226L-162,-226L-160,-229L-159,-238L-160,-241L-159,-243L-154,-243L-153,-241L-149,-246L-151,-250L-151,-255L-147,-254L-143,-255L-143,-251L-137,-249L-137,-246L-132,-248L-128,-250L-122,-246Z" fill="#E0E0E0" stroke="#fff" stroke-width=".4"/><path d="M-72,-162L-70,-159L-68,-159L-64,-158L-55,-158L-53,-159L-46,-161L-42,-158L-39,-158L-42,-154L-44,-149L-42,-145L-47,-146L-52,-143L-52,-140L-57,-139L-61,-141L-66,-139L-70,-140L-70,-145L-73,-147L-72,-148L-73,-149L-72,-151L-70,-154L-73,-157L-73,-160Z" fill="#E0E0E0" stroke="#fff" stroke-width=".4"/><path d="M-51,-96L-52,-94L-60,-94L-60,-95L-67,-96L-66,-99L-63,-97L-58,-97L-54,-97L-54,-96ZM-70,-140L-66,-139L-61,-141L-57,-139L-52,-140L-52,-143L-50,-141L-51,-137L-53,-136L-56,-136L-59,-137L-66,-135L-62,-131L-65,-129L-68,-129L-71,-133L-72,-132L-71,-127L-68,-124L-70,-122L-67,-119L-64,-117L-64,-113L-69,-115L-67,-111L-71,-110L-69,-104L-73,-104L-77,-107L-79,-113L-80,-118L-82,-121L-85,-125L-86,-127L-83,-131L-83,-133L-81,-134L-81,-136L-77,-137L-75,-138L-72,-138L-71,-139Z" fill="#E0E0E0" stroke="#fff" stroke-width=".4"/><path d="M52,-109L50,-108L48,-110L41,-111L39,-110L32,-109L29,-109L23,-106L18,-106L15,-108L9,-106L7,-107L7,-103L5,-102L4,-100L2,-103L4,-106L1,-105L-4,-107L-8,-103L-16,-102L-21,-106L-27,-106L-28,-103L-32,-102L-38,-106L-44,-106L-47,-113L-51,-117L-48,-122L-52,-126L-46,-133L-37,-133L-35,-139L-24,-138L-17,-143L-11,-145L-2,-145L8,-140L16,-137L23,-138L28,-137L34,-141L40,-141L46,-138L46,-135L46,-132L50,-130L52,-128L48,-126L50,-117L49,-115ZM-52,-143L-47,-146L-42,-145L-41,-142L-36,-139L-37,-138L-44,-137L-46,-135L-51,-131L-53,-134L-53,-136L-51,-137L-50,-141Z" fill="#E0E0E0" stroke="#fff" stroke-width=".4"/><path d="M-81,-136L-81,-134L-83,-133L-83,-131L-86,-127L-87,-128L-87,-129L-90,-132L-90,-135L-90,-140L-89,-143L-90,-144L-90,-146L-88,-150L-88,-148L-86,-149L-85,-147L-84,-146L-83,-144L-84,-141L-83,-138Z" fill="#E0E0E0" stroke="#fff" stroke-width=".4"/><path d="M-106,-180L-104,-179L-100,-175L-95,-174L-93,-175L-92,-172L-90,-170L-92,-167L-95,-168L-99,-168L-103,-170L-106,-169L-107,-168L-109,-170L-110,-166L-108,-163L-106,-160L-104,-157L-102,-156L-100,-152L-95,-150L-95,-148L-101,-151L-104,-154L-109,-156L-114,-162L-112,-162L-115,-166L-115,-168L-119,-170L-120,-166L-122,-169L-122,-172L-122,-172L-118,-171L-117,-173L-115,-172L-113,-171L-113,-174L-111,-174L-110,-178Z" fill="#E0E0E0" stroke="#fff" stroke-width=".4"/><path d="M-145,-188L-145,-187L-146,-185L-143,-183L-140,-183L-141,-180L-143,-178L-147,-179L-148,-176L-151,-176L-152,-177L-155,-174L-158,-174L-160,-176L-162,-179L-165,-178L-165,-182L-161,-186L-161,-188L-158,-188L-157,-189L-152,-189L-151,-191Z" fill="#E0E0E0" stroke="#fff" stroke-width=".4"/><path d="M-240,-109L-241,-111L-239,-114L-238,-116L-240,-118L-238,-123L-241,-127L-238,-128L-238,-131L-237,-132L-237,-138L-234,-140L-236,-144L-239,-144L-240,-143L-244,-143L-245,-147L-247,-146L-249,-144L-249,-149L-251,-152L-243,-158L-236,-157L-229,-157L-223,-155L-218,-156L-209,-155L-207,-152L-197,-149L-195,-151L-188,-147L-182,-148L-182,-144L-187,-139L-194,-137L-195,-135L-198,-131L-200,-125L-198,-121L-201,-117L-202,-113L-207,-111L-211,-106L-218,-106L-223,-106L-227,-104L-229,-101L-231,-102L-234,-104L-235,-108Z" fill="#E0E0E0" stroke="#fff" stroke-width=".4"/><path d="M730,236L735,240L738,243L736,244L732,242L728,240L725,236L721,232L720,230L723,230L726,232L728,234Z" fill="#E0E0E0" stroke="#fff" stroke-width=".4"/><path d="M710,174L711,176L707,176L705,173L709,174ZM707,169L706,170L702,165L701,162L703,162L705,166ZM703,171L700,171L697,170L696,169L696,167L700,168L702,169ZM696,160L697,162L697,163L693,161L690,159L688,157L689,156L691,158ZM682,155L684,156L683,157L680,155L678,153L678,152Z" fill="#E0E0E0" stroke="#fff" stroke-width=".4"/><path d="M792,361L790,364L787,370L783,373L782,371L780,370L783,363L781,359L775,356L775,354L779,351L780,346L780,341L778,337L778,335L775,332L771,326L769,321L771,321L774,325L778,327L780,333L784,340L784,335L786,337L787,342L792,345L795,345L799,343L802,343L800,350L798,354L794,354L793,356L793,359ZM752,387L757,383L760,379L763,373L765,371L766,367L769,364L771,367L772,370L776,367L778,370L778,373L776,377L772,382L769,385L771,389L767,389L762,392L760,397L757,405L753,409L750,411L745,411L741,408L735,408L734,405L737,399L744,391L748,390Z" fill="#E0E0E0" stroke="#fff" stroke-width=".4"/><path d="M629,366L632,366L633,375L631,378L630,384L628,382L624,387L623,387L620,387L616,380L615,375L612,369L612,365L616,366L621,368L624,367ZM508,306L502,309L497,311L496,314L494,317L489,317L486,318L481,317L477,317L473,318L470,321L468,321L465,323L463,325L459,325L455,325L449,321L446,319L446,315L449,314L450,313L449,311L450,306L450,302L447,295L446,292L446,288L444,284L444,282L441,279L440,274L437,269L436,267L439,270L437,264L440,266L441,268L441,265L438,260L438,258L437,256L437,253L438,251L439,248L439,244L441,240L441,245L444,241L448,238L451,236L455,234L458,233L459,234L464,232L467,231L468,230L469,229L473,229L478,228L482,225L483,222L486,219L486,216L487,213L491,208L493,213L495,212L493,209L495,207L498,208L498,203L501,201L503,198L505,197L506,196L508,196L508,195L511,194L513,193L517,196L521,199L524,199L528,200L526,197L529,192L532,191L531,189L533,186L537,184L539,185L544,184L544,181L540,179L543,178L547,179L550,182L554,183L556,183L559,184L563,183L565,183L566,182L569,185L567,188L565,190L563,190L564,193L562,196L560,199L561,200L565,203L569,205L572,207L576,211L578,211L581,212L582,214L587,216L591,214L592,211L593,208L594,205L595,200L594,198L595,196L594,193L595,188L596,187L595,185L597,182L598,179L598,177L600,175L601,178L602,182L603,182L603,185L605,188L606,191L606,193L608,198L611,195L613,198L616,200L615,203L616,208L617,211L619,211L620,216L620,219L622,223L628,226L632,229L635,232L635,233L638,237L640,244L642,242L644,245L646,244L647,250L651,254L653,257L658,262L659,267L659,270L659,274L662,279L661,285L660,288L659,294L659,297L658,302L655,308L651,311L649,317L647,320L646,326L644,329L642,334L641,339L642,342L639,344L632,344L627,347L625,350L621,353L616,350L613,349L614,345L611,346L606,351L601,349L598,348L595,348L589,346L586,341L585,336L583,333L581,330L575,329L577,326L576,321L573,325L568,326L571,323L572,319L574,315L573,311L569,316L565,319L563,324L559,321L559,318L556,313L553,310L554,309L546,305L543,304L537,301L527,302L520,304L513,306Z" fill="#E0E0E0" stroke="#fff" stroke-width=".4"/><path d="M260,73L259,79L256,80L252,82L249,77L248,69L250,60L254,63L257,67Z" fill="#E0E0E0" stroke="#fff" stroke-width=".4"/><path d="M415,11L410,10L410,5L413,2L419,0L422,0L423,3L421,5L420,9ZM251,-147L251,-152L254,-154L249,-167L260,-170L263,-172L267,-187L279,-184L282,-188L282,-196L287,-197L291,-203L293,-203L294,-197L299,-193L307,-190L311,-183L309,-174L311,-170L318,-169L325,-168L332,-163L335,-162L338,-155L341,-150L347,-150L359,-149L366,-150L372,-148L380,-144L387,-144L389,-142L396,-146L405,-148L413,-149L420,-151L424,-155L428,-158L427,-160L425,-164L428,-169L431,-168L437,-166L443,-170L451,-174L455,-179L459,-181L467,-182L472,-181L472,-184L467,-190L463,-193L459,-190L453,-191L450,-190L448,-193L452,-202L455,-208L462,-205L470,-211L470,-214L475,-224L478,-227L478,-232L475,-234L479,-239L486,-240L494,-241L502,-238L507,-234L510,-225L513,-221L515,-216L517,-207L526,-204L533,-198L535,-190L544,-190L549,-194L558,-196L555,-189L553,-186L551,-177L547,-169L540,-170L535,-168L537,-161L536,-152L533,-151L533,-148L530,-152L527,-148L519,-145L520,-141L515,-141L512,-143L508,-138L502,-134L498,-129L490,-127L486,-124L480,-122L483,-125L481,-128L486,-133L483,-137L478,-134L472,-129L468,-124L463,-124L460,-121L463,-116L467,-115L468,-111L472,-109L478,-114L483,-112L487,-111L488,-108L480,-106L477,-102L472,-99L469,-94L475,-90L477,-83L481,-77L484,-72L484,-67L481,-66L482,-62L485,-60L485,-55L483,-50L480,-49L476,-42L471,-34L466,-27L458,-21L451,-16L444,-15L441,-13L439,-15L436,-12L428,-9L422,-8L420,-1L417,-1L416,-5L417,-8L409,-10L407,-9L401,-10L398,-13L399,-16L394,-17L391,-19L387,-16L381,-16L377,-16L374,-14L371,-13L372,-6L369,-6L368,-8L368,-10L364,-9L362,-10L357,-12L359,-17L355,-18L354,-24L348,-23L349,-30L354,-35L354,-40L354,-45L352,-47L350,-51L347,-50L341,-51L343,-54L340,-58L336,-55L331,-57L325,-52L320,-48L315,-47L313,-49L310,-49L306,-50L303,-49L299,-44L298,-49L295,-48L289,-48L282,-50L278,-52L273,-54L271,-57L268,-58L263,-62L258,-64L256,-62L248,-67L243,-71L241,-78L245,-77L245,-81L243,-84L243,-90L237,-98L228,-101L227,-106L222,-109L221,-111L221,-115L221,-118L217,-120L216,-119L214,-126L216,-127L215,-129L220,-132L224,-134L230,-133L232,-138L239,-139L241,-141L250,-146Z" fill="#E0E0E0" stroke="#fff" stroke-width=".4"/><path d="M484,-26L480,-16L478,-11L475,-16L474,-21L478,-27L482,-31L485,-30Z" fill="#E0E0E0" stroke="#fff" stroke-width=".4"/><path d="M-140,-183L-137,-182L-136,-183L-131,-185L-129,-182L-121,-180L-122,-176L-121,-172L-125,-174L-130,-171L-129,-167L-130,-165L-128,-161L-123,-157L-120,-150L-114,-144L-109,-144L-108,-143L-110,-141L-105,-138L-100,-136L-96,-132L-95,-131L-96,-128L-99,-132L-104,-133L-106,-128L-102,-126L-103,-122L-105,-121L-108,-115L-111,-115L-111,-117L-110,-121L-108,-122L-111,-126L-112,-130L-115,-131L-116,-134L-120,-136L-122,-139L-126,-139L-131,-142L-136,-147L-140,-152L-141,-159L-144,-160L-149,-163L-151,-162L-155,-158L-157,-158L-156,-161L-159,-162L-161,-168L-159,-170L-161,-173L-160,-176L-158,-174L-155,-174L-152,-177L-151,-176L-148,-176L-147,-179L-143,-178L-141,-180ZM-116,-116L-112,-117L-114,-111L-113,-109L-114,-106L-118,-108L-121,-109L-129,-113L-128,-116L-122,-116ZM-150,-136L-147,-139L-144,-133L-144,-124L-147,-124L-149,-122L-151,-124L-152,-133L-153,-137Z" fill="#E0E0E0" stroke="#fff" stroke-width=".4"/><path d="M61,-144L63,-143L67,-139L69,-138L70,-140L74,-143L77,-139L79,-134L82,-134L84,-132L79,-131L78,-125L77,-123L75,-121L75,-118L74,-117L70,-121L72,-125L71,-127L69,-126L62,-121L62,-126L59,-127L57,-129L58,-131L55,-134L57,-136L54,-137L53,-139L55,-140L59,-138L62,-138L63,-138L60,-143ZM60,-121L56,-122L53,-125L52,-128L53,-128L55,-126L58,-126L58,-125Z" fill="#E0E0E0" stroke="#fff" stroke-width=".4"/><path d="M25,-156L26,-156L31,-155L39,-154L47,-150L47,-149L51,-150L56,-148L58,-145L61,-144L60,-143L63,-138L62,-138L59,-138L55,-140L53,-139L46,-138L40,-141L34,-141L35,-144L34,-149L30,-152L27,-153Z" fill="#E0E0E0" stroke="#fff" stroke-width=".4"/><path d="M478,43L475,39L480,39L482,41L481,46ZM488,59L490,57L490,54L493,53L492,57L497,52L496,57L494,59L492,63L490,64L487,60ZM509,68L510,72L510,75L508,80L506,74L504,77L506,81L504,84L497,81L496,76L497,74L494,71L492,73L489,73L485,76L484,75L487,70L490,68L493,66L495,69L499,67L500,65L504,65L504,60L509,63L509,66ZM465,63L458,68L461,64L465,61L468,57L471,51L472,56L468,59ZM487,11L486,14L488,18L486,23L483,25L482,29L483,34L486,35L489,34L496,37L495,40L497,42L497,44L492,42L490,38L489,41L485,37L480,38L477,37L477,34L479,33L478,32L477,34L474,30L473,28L473,22L475,24L476,15L478,10L481,10L485,11L486,10ZM485,51L484,48L488,50L491,50L491,52L488,55L485,56L485,54ZM505,46L506,53L502,51L502,53L503,57L501,58L500,54L499,54L498,50L501,51L501,49L498,44L503,44Z" fill="#E0E0E0" stroke="#fff" stroke-width=".4"/><path d="M362,79L363,78L368,80L368,83L372,83L374,80L375,81L378,84L381,88L381,92L380,94L381,96L381,99L383,101L385,106L385,108L381,108L376,104L369,100L369,97L366,93L365,88L363,85L363,81ZM462,92L457,91L451,91L449,97L446,99L444,107L439,108L434,107L431,107L428,110L424,110L421,111L417,108L416,104L420,106L424,105L425,100L428,99L434,98L438,93L441,90L444,93L445,91L448,91L448,87L448,85L453,81L455,76L458,76L460,79L461,82L464,83L469,85L469,87L465,87L466,90Z" fill="#E0E0E0" stroke="#fff" stroke-width=".4"/><path d="M448,85L448,87L448,91L445,91L444,93L441,90L443,88Z" fill="#E0E0E0" stroke="#fff" stroke-width=".4"/><path d="M-121,-180L-117,-179L-114,-181L-109,-181L-108,-183L-107,-183L-106,-180L-110,-178L-111,-174L-113,-174L-113,-171L-115,-172L-117,-173L-118,-171L-122,-172L-121,-172L-122,-176Z" fill="#E0E0E0" stroke="#fff" stroke-width=".4"/><path d="M-72,-201L-74,-199L-75,-196L-76,-195L-82,-197L-84,-197L-85,-195L-88,-194L-88,-194L-91,-193L-93,-193L-94,-191L-99,-190L-101,-191L-104,-193L-104,-196L-104,-197L-103,-199L-100,-199L-98,-200L-98,-201L-97,-201L-97,-203L-96,-203L-95,-205L-93,-205L-93,-204L-90,-206L-88,-203L-84,-204L-82,-203L-78,-205Z" fill="#E0E0E0" stroke="#fff" stroke-width=".4"/><path d="M-114,-219L-112,-216L-108,-215L-108,-213L-105,-211L-104,-213L-100,-212L-100,-210L-96,-209L-93,-205L-95,-205L-96,-203L-97,-203L-97,-201L-98,-201L-98,-200L-100,-199L-103,-199L-104,-197L-106,-199L-109,-198L-113,-201L-115,-200L-118,-197L-122,-200L-126,-203L-128,-205L-129,-209L-130,-212L-126,-214L-124,-216L-120,-217L-118,-219L-117,-218Z" fill="#E0E0E0" stroke="#fff" stroke-width=".4"/><path d="M5,33L5,31L7,23L8,19L10,17L14,16L17,13L20,19L21,25L24,28L32,33L35,36L38,40L40,42L43,43L41,45L39,44L37,42L34,39L32,37L31,35L26,33L22,33L20,32L17,33L14,30L12,35Z" fill="#E0E0E0" stroke="#fff" stroke-width=".4"/><path d="M596,-124L591,-117L591,-109L589,-104L590,-100L587,-95L580,-92L570,-92L562,-84L558,-87L558,-92L548,-90L542,-87L535,-87L541,-82L537,-71L534,-68L531,-70L532,-76L529,-78L526,-83L532,-85L535,-89L540,-93L544,-97L556,-99L562,-98L567,-110L571,-107L579,-114L583,-117L586,-126L585,-134L587,-139L593,-140L596,-130ZM612,-160L616,-163L617,-154L608,-152L604,-145L595,-150L592,-141L585,-141L585,-149L587,-155L593,-155L595,-166L597,-172L603,-164L608,-161ZM543,-84L546,-88L549,-87L552,-90L556,-89L556,-86L553,-82L551,-84L548,-83L547,-79L543,-81Z" fill="#E0E0E0" stroke="#fff" stroke-width=".4"/><path d="M93,7L97,16L99,21L95,22L94,25L94,27L88,29L79,32L74,36L72,36L70,36L67,38L63,39L58,40L57,40L56,42L54,42L53,43L51,43L49,44L45,44L44,40L44,37L43,36L42,31L40,29L41,29L41,26L41,25L41,22L43,20L43,18L44,15L47,17L48,16L55,16L56,17L61,17L63,17L65,19L67,18L71,12L77,9Z" fill="#E0E0E0" stroke="#fff" stroke-width=".4"/><path d="M-3,-57L3,-56L6,-58L7,-60L11,-61L12,-63L14,-64L9,-71L20,-74L21,-75L28,-74L36,-69L52,-56L62,-55L67,-55L69,-52L73,-52L75,-46L78,-45L79,-43L82,-40L83,-38L82,-35L83,-33L84,-32L85,-30L86,-28L88,-27L89,-27L90,-25L91,-24L93,-17L110,-14L111,-16L113,-11L110,1L93,7L77,9L71,12L67,18L65,19L63,17L61,17L56,17L55,16L48,16L47,17L44,15L43,18L43,20L41,22L40,20L39,18L38,16L35,14L32,9L31,4L27,-0L24,-1L21,-7L20,-11L20,-15L17,-22L14,-24L11,-25L10,-29L10,-30L8,-33L7,-35L4,-39L1,-44L-2,-49L-5,-49L-4,-52L-3,-54Z" fill="#E0E0E0" stroke="#fff" stroke-width=".4"/><path d="M-15,-95L-15,-95L-14,-97L-10,-97L-5,-99L-9,-96L-8,-95L-9,-95L-10,-95L-11,-95L-11,-94L-11,-95L-12,-96L-13,-96L-14,-95Z" fill="#E0E0E0" stroke="#fff" stroke-width=".4"/><path d="M-15,-95L-14,-95L-13,-96L-12,-96L-11,-95L-11,-94L-11,-95L-10,-95L-9,-95L-8,-95L-8,-94L-14,-91L-17,-92L-18,-95Z" fill="#E0E0E0" stroke="#fff" stroke-width=".4"/><path d="M8,-11L-14,-11L-36,-11L-59,-11L-59,-34L-59,-56L-60,-61L-59,-65L-60,-68L-58,-71L-50,-72L-45,-70L-39,-68L-37,-67L-32,-69L-30,-71L-25,-71L-21,-71L-20,-67L-18,-69L-14,-68L-9,-67L-7,-69L-4,-60L-3,-58L-5,-55L-6,-51L-7,-47L-9,-46L-10,-48L-13,-51L-17,-60L-18,-60L-15,-53L-12,-46L-8,-37L-5,-33L-4,-30L1,-23L0,-22L0,-18L7,-13Z" fill="#E0E0E0" stroke="#fff" stroke-width=".4"/><path d="M-59,-11L-59,1L-65,1L-65,3L-87,-8L-110,-20L-115,-16L-119,-14L-123,-18L-131,-20L-134,-24L-138,-27L-141,-26L-143,-29L-143,-32L-146,-36L-144,-39L-145,-43L-144,-46L-144,-49L-143,-54L-144,-57L-146,-63L-143,-65L-142,-67L-143,-70L-139,-73L-137,-75L-135,-77L-134,-82L-128,-80L-125,-80L-121,-79L-113,-76L-111,-70L-106,-69L-98,-66L-92,-63L-89,-65L-86,-68L-88,-73L-86,-76L-82,-79L-78,-80L-70,-78L-68,-76L-66,-76L-65,-74L-59,-74L-58,-71L-60,-68L-59,-65L-60,-61L-59,-56L-59,-34Z" fill="#E0E0E0" stroke="#fff" stroke-width=".4"/><path d="M69,70L53,87L46,87L41,91L37,91L36,93L32,93L30,91L25,94L23,96L19,96L18,95L17,95L15,95L8,90L4,90L2,88L2,85L-1,84L-4,78L-7,77L-8,75L-11,72L-14,71L-12,68L-9,68L-8,66L-8,61L-7,55L-4,54L-3,51L-1,47L2,44L5,38L5,33L12,35L14,30L17,33L20,32L22,33L26,33L31,35L32,37L34,39L37,42L39,44L37,47L35,50L35,51L35,53L38,53L40,53L41,54L40,56L42,59L44,61L46,63L64,70Z" fill="#E0E0E0" stroke="#fff" stroke-width=".4"/><path d="M39,44L41,45L43,43L44,45L44,48L41,49L43,50L41,54L40,53L38,53L35,53L35,51L35,50L37,47Z" fill="#E0E0E0" stroke="#fff" stroke-width=".4"/><path d="M76,51L76,51L76,53L76,59L76,62L73,65L69,70L64,70L46,63L44,61L42,59L40,56L41,54L43,50L45,52L46,54L49,56L51,56L57,55L63,54L68,52L70,52L72,51Z" fill="#E0E0E0" stroke="#fff" stroke-width=".4"/><path d="M-9,120L-20,121L-26,121L-28,122L-32,123L-33,123L-33,118L-32,116L-31,112L-30,109L-28,106L-26,105L-24,103L-26,102L-26,95L-24,94L-20,95L-16,94L-12,94L-8,91L-5,95L-5,98L-2,104L-4,109L-7,112L-9,115Z" fill="#E0E0E0" stroke="#fff" stroke-width=".4"/><path d="M-28,122L-26,125L-26,128L-28,129L-31,128L-33,131L-36,131L-35,128L-35,128L-35,124L-33,123L-32,123Z" fill="#E0E0E0" stroke="#fff" stroke-width=".4"/><path d="M-95,-150L-100,-152L-102,-156L-104,-157L-106,-160L-108,-163L-110,-166L-109,-170L-107,-168L-106,-169L-103,-170L-99,-168L-95,-168L-92,-167L-90,-167L-92,-163L-89,-160L-90,-157L-91,-156L-92,-156L-94,-154Z" fill="#E0E0E0" stroke="#fff" stroke-width=".4"/><path d="M-73,-147L-70,-145L-70,-140L-71,-139L-72,-138L-75,-138L-77,-137L-81,-136L-83,-138L-84,-141L-83,-144L-83,-143L-82,-145L-79,-146L-78,-146L-76,-147Z" fill="#E0E0E0" stroke="#fff" stroke-width=".4"/><path d="M-93,-175L-89,-177L-85,-177L-82,-174L-82,-171L-78,-169L-78,-166L-75,-164L-73,-165L-71,-164L-73,-163L-72,-162L-73,-160L-73,-157L-70,-154L-72,-151L-73,-149L-72,-148L-73,-147L-76,-147L-78,-146L-78,-147L-77,-148L-77,-150L-77,-150L-79,-151L-79,-152L-80,-153L-81,-153L-82,-154L-83,-154L-84,-151L-85,-151L-85,-151L-87,-153L-89,-154L-89,-155L-91,-156L-90,-157L-89,-160L-92,-163L-90,-167L-92,-167L-90,-170L-92,-172Z" fill="#E0E0E0" stroke="#fff" stroke-width=".4"/><path d="M-86,-149L-88,-148L-88,-150L-90,-146L-90,-144L-91,-144L-93,-147L-95,-148L-95,-150L-94,-154L-92,-156L-91,-156L-89,-155L-89,-154L-87,-153L-85,-151L-85,-151Z" fill="#E0E0E0" stroke="#fff" stroke-width=".4"/><path d="M-83,-144L-84,-146L-85,-147L-86,-149L-85,-151L-84,-151L-83,-154L-82,-154L-81,-153L-80,-153L-79,-152L-79,-151L-77,-150L-77,-150L-77,-148L-78,-147L-78,-146L-79,-146L-82,-145L-83,-143Z" fill="#E0E0E0" stroke="#fff" stroke-width=".4"/><path d="M-26,95L-31,92L-32,89L-35,91L-38,90L-39,91L-42,90L-45,86L-46,84L-50,82L-52,78L-54,76L-58,73L-58,71L-61,69L-65,67L-63,66L-61,65L-60,60L-58,57L-54,56L-53,58L-50,61L-49,62L-47,61L-43,61L-42,62L-36,62L-36,61L-33,60L-33,58L-31,57L-26,60L-23,60L-20,56L-17,53L-18,49L-19,48L-16,47L-15,46L-13,46L-13,51L-13,55L-10,57L-9,59L-9,62L-8,62L-8,66L-9,68L-12,68L-14,71L-11,72L-8,75L-7,77L-4,78L-1,84L-5,88L-8,91L-12,94L-16,94L-20,95L-24,94Z" fill="#E0E0E0" stroke="#fff" stroke-width=".4"/></g><g clip-path="url(#v)"><path d="M347.5,106.9L348.7,108.5L349.2,108.7L349.9,109.4L350.0,109.7L349.9,110.2L349.7,111.6L349.4,112.0L348.7,111.8L348.6,111.5L348.2,110.5L347.4,109.9L347.1,109.8L346.9,109.2L346.5,108.5L345.3,107.2L346.2,107.2L346.6,106.8L346.7,106.6L346.8,106.5ZM356.9,125.1L356.4,125.1L355.3,124.5L355.0,124.2L355.0,123.8L353.9,122.2L353.8,121.8L354.2,120.6L355.3,120.3L355.7,120.5L355.8,121.1L356.4,122.1L356.6,122.6L356.7,122.9L356.8,123.1L356.8,123.2L357.2,123.9L357.5,124.3L357.5,124.9ZM454.8,163.6L454.1,164.8L454.4,164.9L454.5,165.1L453.4,165.4L452.9,165.2L452.6,165.3L451.4,165.1L450.6,164.8L450.5,164.6L450.5,164.3L450.8,164.4L451.4,164.4L451.7,164.3L451.7,163.6L451.6,162.6L452.5,161.8L453.0,161.5L453.5,161.3L454.9,161.7L455.1,161.8L455.3,162.0L455.4,162.3ZM448.2,161.0L448.7,161.3L449.5,162.2L449.6,162.4L449.4,162.6L448.8,163.0L447.5,163.6L447.3,163.9L447.0,164.4L447.0,164.6L446.9,164.8L446.8,164.8L446.5,164.9L446.2,164.8L446.4,164.5L446.5,164.1L446.3,163.7L446.0,163.4L445.4,162.9L444.8,162.5L444.2,162.3L443.5,162.3L443.2,162.1L442.9,161.6L442.7,161.3L442.7,161.0L442.7,160.8L442.9,160.8L443.5,160.8L444.7,161.1L445.3,161.2L445.6,161.1L446.5,160.5L446.7,160.5L447.6,160.8ZM395.5,124.5L395.7,124.9L396.0,125.2L396.2,125.6L396.4,127.4L397.3,129.0L399.8,129.6L399.4,129.8L399.2,130.0L399.0,130.3L398.7,131.4L398.7,131.6L398.9,132.0L399.0,132.4L398.7,132.4L398.3,132.3L398.0,132.1L397.7,131.9L397.5,131.8L397.2,131.7L396.6,131.4L396.0,131.1L395.2,131.0L394.9,130.5L394.7,130.0L394.9,129.1L394.7,128.9L394.5,128.7L394.2,128.1L394.0,127.4L393.6,127.1L393.0,126.9L392.7,126.8L391.6,127.0L391.3,127.0L391.0,126.8L390.4,126.6L390.4,126.2L390.7,125.9L391.4,125.6L391.7,125.3L391.8,125.0L391.7,124.7L391.7,124.4L392.0,124.2L392.2,124.0L392.9,123.7L393.2,124.2L393.4,124.6L393.6,124.8L393.9,124.4L393.7,123.7L394.2,123.6L394.7,123.6L395.1,123.8L395.4,124.1ZM491.5,140.7L491.6,141.9L491.6,142.2L491.3,141.7L491.1,141.6L491.1,141.7L490.9,141.8L490.8,141.8L490.6,142.2L490.6,142.7L490.4,143.0L490.3,144.0L490.4,144.2L490.6,144.1L490.8,144.1L491.3,144.5L491.6,144.7L491.5,145.1L491.1,145.4L490.7,145.5L490.4,145.4L490.3,145.5L490.1,145.6L490.0,145.9L490.0,146.1L489.6,146.8L489.4,147.0L489.0,146.8L488.7,146.9L488.5,146.9L488.2,146.3L488.2,145.9L488.5,145.6L488.5,145.3L488.6,145.0L489.0,144.7L489.2,144.4L489.2,144.2L489.3,143.5L489.4,143.2L489.5,142.9L489.6,142.2L489.7,141.0L490.2,140.1L490.7,139.8L490.9,139.7L490.9,140.0ZM488.5,144.7L488.3,145.1L488.0,145.4L487.8,145.4L487.5,145.3L487.1,145.1L487.0,145.3L486.6,145.3L486.5,145.0L486.7,144.0L487.1,143.6L487.1,143.2L486.8,142.3L487.0,141.9L487.8,141.5L488.6,141.1L488.8,141.0L489.0,141.4L489.1,142.8L488.3,144.0ZM408.2,94.5L407.4,94.7L407.0,94.4L407.5,94.0L407.6,94.0L407.8,93.9L407.8,93.8L406.9,93.5L406.7,93.3L406.5,92.8L406.5,92.5L407.6,91.6L407.8,91.5L407.9,91.9L408.6,92.8L408.7,93.4L408.7,93.6ZM407.6,131.9L407.5,132.5L407.4,132.8L406.9,133.1L406.8,133.2L406.3,133.2L406.3,132.9L406.1,132.7L405.7,132.4L405.5,132.5L405.5,132.9L404.5,133.1L404.3,133.1L404.4,132.7L404.2,132.3L404.2,131.8L404.1,131.6L404.0,131.5L404.2,131.2L404.2,130.8L404.4,130.5L404.6,129.5L405.5,129.3L405.7,129.5L406.9,129.7L407.6,130.3L408.1,131.0ZM559.9,118.8L561.1,119.0L561.5,119.0L561.9,119.2L562.4,119.1L562.7,119.2L563.7,120.1L564.2,120.6L564.9,121.1L565.4,121.3L565.0,121.7L564.2,121.9L563.9,122.0L563.3,121.7L562.8,121.7L562.4,121.4L562.3,120.9L561.9,119.7L561.3,120.1L560.7,119.6L560.5,119.5L560.4,119.6L560.1,119.4L559.9,119.1ZM560.4,124.1L562.6,124.3L563.2,124.3L564.4,124.4L565.5,124.8L567.3,124.9L567.9,125.0L568.3,125.2L567.3,125.4L566.8,125.6L565.9,125.7L565.1,125.6L564.6,125.8L564.4,125.6L563.6,125.4L562.6,125.0L560.5,124.5L560.4,124.2ZM534.3,115.2L535.2,115.4L535.4,115.4L536.9,116.0L537.1,116.3L537.0,116.5L537.2,116.8L536.8,117.2L536.5,117.2L536.3,117.1L535.8,117.0L535.3,117.2L535.0,117.0L534.7,116.6L534.2,116.4L533.5,115.6L533.2,115.6L533.3,115.9L533.6,116.1L534.0,116.8L534.2,116.8L534.4,116.8L534.7,117.1L534.7,117.5L533.9,117.6L533.6,117.3L533.6,116.8L533.1,117.0L532.9,117.2L532.8,117.2L532.5,116.6L531.6,116.6L531.0,116.3L531.3,116.0L531.3,115.7L531.7,115.5L532.1,115.7L532.5,115.5L532.8,115.5L533.0,115.4L533.7,115.3ZM521.0,103.6L520.2,103.7L520.0,103.5L519.7,102.3L520.3,101.3L521.1,100.7L521.7,100.6L521.9,100.6L522.4,101.3L522.0,102.7L521.6,103.4ZM519.3,124.4L519.0,124.7L518.8,124.7L518.0,124.6L517.0,124.6L516.0,124.8L515.5,124.7L515.1,124.4L515.1,124.0L515.5,123.3L516.2,122.7L516.5,122.6L517.0,122.8L518.0,123.2L518.7,123.7L519.3,124.1ZM507.6,128.9L507.5,129.0L507.2,128.7L506.9,127.8L506.7,127.6L506.5,126.8L506.6,126.5L506.9,126.2L507.1,126.2L507.2,126.4L507.1,127.3L507.6,128.4ZM507.4,125.2L509.1,125.4L508.9,125.6L507.0,125.9L506.4,125.8L504.4,126.0L504.1,126.0L504.1,125.7L503.9,125.5L504.2,125.3L504.6,125.2L505.7,125.3ZM501.5,124.7L502.0,124.9L502.2,124.9L502.4,124.7L502.5,124.6L502.7,124.7L502.8,125.1L503.1,125.1L503.4,125.2L503.5,125.3L503.5,125.7L502.4,125.7L501.7,126.0L500.8,125.8L499.7,126.2L499.0,126.4L498.4,126.4L497.9,125.6L498.2,124.6L498.4,124.4L498.8,124.4L499.8,124.3ZM537.1,160.1L537.0,160.2L536.3,160.1L535.9,160.1L536.0,159.7L535.8,159.3L536.1,158.9L536.1,158.3L536.4,158.3L536.4,157.9L536.8,157.1L537.0,156.9L537.3,156.9L537.6,156.4L537.8,156.2L538.0,155.9L538.3,155.7L538.3,155.4L538.4,155.2L538.9,155.1L539.2,155.2L539.4,155.6L538.9,156.0L539.2,156.9L538.8,158.0L538.5,158.3L538.1,158.6L538.0,158.8L537.4,159.4L537.3,159.8L537.2,160.0ZM511.8,158.2L511.8,158.5L511.8,158.6L511.2,158.7L510.5,159.0L510.2,159.4L509.9,159.8L509.0,159.6L508.3,159.6L507.9,159.5L507.5,159.5L507.0,159.6L506.3,160.0L506.2,160.0L506.2,159.4L506.4,159.1L507.1,158.2L507.8,158.4L508.5,158.5L509.3,158.3L509.9,157.9L510.7,157.7L511.4,158.2ZM499.3,160.9L499.4,161.3L499.9,161.1L500.3,161.0L501.3,161.0L502.0,161.1L502.4,161.3L502.4,162.0L502.2,162.1L498.6,162.6L498.2,162.5L498.1,162.3L498.5,161.8L498.3,161.5L498.5,161.1L498.9,160.9ZM535.3,122.5L535.1,122.7L534.4,122.5L534.1,122.2L533.8,121.7L533.7,121.3L533.6,121.0L533.4,120.7L533.5,120.5L534.7,120.1L535.0,120.3L535.5,120.3L535.7,120.6L535.6,121.8ZM342.0,85.8L342.7,85.8L343.9,85.5L344.6,85.6L345.3,85.8L345.9,85.9L347.3,85.8L347.6,85.8L347.9,85.9L348.1,86.1L348.8,86.9L349.9,87.8L350.2,88.3L350.4,89.0L350.5,89.1L351.8,90.4L351.9,90.9L351.8,91.6L352.1,92.2L353.4,92.7L354.1,93.1L354.3,93.4L354.4,93.6L354.8,94.1L355.3,94.3L356.9,95.1L358.9,96.6L360.1,97.3L361.1,98.4L361.5,98.9L361.7,99.5L362.3,100.3L363.3,101.3L363.6,101.6L363.9,102.1L364.2,102.5L364.6,102.9L365.0,103.2L365.5,103.3L366.2,104.0L366.6,104.2L366.5,103.6L366.2,103.2L366.2,102.8L366.3,102.6L366.5,102.3L366.9,102.3L367.5,102.5L368.5,103.4L368.9,103.9L369.2,104.6L369.5,105.3L369.9,105.7L370.4,105.8L371.1,105.8L371.6,106.1L372.9,107.1L373.4,107.5L373.7,108.1L373.9,108.7L374.1,109.4L374.2,109.6L375.0,110.4L375.5,110.8L376.0,110.9L377.6,111.1L378.1,111.4L378.6,111.9L378.8,112.4L378.5,112.8L377.2,113.5L375.9,113.9L377.2,113.8L377.8,113.6L378.4,113.3L379.0,112.9L380.0,112.4L380.3,112.3L380.7,112.3L381.1,112.5L381.7,113.0L382.2,113.5L382.6,114.2L382.8,114.9L382.4,115.3L381.7,115.5L380.8,116.2L380.7,116.5L380.9,116.7L380.7,117.2L381.2,117.5L381.3,117.8L380.8,118.1L380.9,118.4L381.4,119.4L381.7,119.6L382.5,120.1L383.7,120.6L384.4,120.9L385.1,121.0L385.5,121.0L386.0,121.0L386.2,121.2L386.4,122.2L386.5,122.8L386.7,124.1L386.9,124.7L386.9,125.3L387.2,125.9L387.8,126.3L388.5,126.6L388.8,126.9L388.8,127.3L388.7,127.7L388.4,127.9L387.8,128.5L387.7,128.8L387.6,129.4L387.7,129.7L387.9,129.7L388.1,129.5L389.0,128.7L389.2,128.5L389.5,128.4L389.8,128.3L391.2,128.3L391.9,128.5L392.4,128.8L392.9,129.1L394.7,131.3L395.5,132.6L395.5,132.9L395.6,133.2L395.4,133.4L394.7,134.3L394.6,134.5L394.4,135.4L394.4,136.1L394.7,136.3L394.8,136.6L394.8,136.9L394.3,138.3L394.3,138.5L394.6,140.7L394.6,141.3L394.6,142.0L394.6,143.2L394.2,147.0L394.1,147.2L393.8,147.8L393.4,147.8L393.1,147.7L392.9,147.5L392.7,147.2L392.6,147.0L391.6,146.3L391.3,146.4L390.3,147.3L390.1,147.4L389.8,147.3L389.3,147.0L387.6,146.1L387.5,146.4L387.5,146.8L387.8,147.8L387.9,148.2L387.6,148.3L387.4,148.3L386.7,147.7L386.1,147.1L385.4,146.2L384.9,145.8L384.4,145.4L383.1,143.6L382.7,143.4L380.7,142.2L380.3,141.9L379.8,141.4L379.2,140.9L378.0,140.2L375.8,138.4L374.9,137.4L373.9,135.7L373.5,135.3L371.8,134.1L370.9,133.3L370.5,132.9L369.5,131.4L369.3,130.9L368.9,130.4L368.4,130.1L367.9,129.6L366.9,128.3L366.6,127.7L366.4,127.2L366.4,126.0L364.3,122.4L363.8,121.3L363.4,119.8L363.2,119.6L362.1,118.2L361.7,117.8L361.2,117.4L360.8,116.9L360.1,115.3L359.8,114.9L359.4,114.6L357.9,114.0L357.3,113.6L356.9,113.2L356.6,112.6L356.4,111.3L355.7,109.4L354.9,106.8L354.4,105.6L353.8,104.7L353.6,104.5L350.9,102.8L350.4,102.6L350.0,102.5L349.3,102.3L348.7,101.9L348.5,101.2L348.4,100.1L348.3,99.5L348.1,99.2L347,98.5L346.6,97.9L346.2,97.3L345.9,96.8L344.6,95.1L344.2,94.7L343.7,94.3L342.2,94.0L341.7,93.7L340.9,92.8L340.5,92.3L339.2,91.2L336.9,89.0L336.4,88.4L336.0,87.9L335.7,87.2L334.8,85.5L334.8,85.1L335.0,84.8L335.0,84.5L334.9,84.2L334.9,83.9L335.2,83.8L335.8,83.6L336.5,83.6L337.1,83.7L337.7,83.8L338.3,84.2L339.4,85.1L340.0,85.4L340.6,85.6ZM489.3,163.6L488.5,163.8L488.0,164.0L487.5,164.2L487.2,164.3L486.7,164.3L485.9,164.2L485.4,164.3L484.0,165.0L483.4,165.0L482.9,165.2L482.8,164.9L482.6,164.8L482.1,164.7L481.6,164.7L481.1,165.3L480.3,165.2L480.0,165.2L479.8,165.4L479.5,165.4L479.2,165.4L478.0,164.9L476.7,164.7L475.5,164.8L474.3,164.5L473.7,164.7L473.2,165.0L473.0,164.7L472.8,164.4L472.6,164.1L472.6,163.6L472.7,163.3L472.8,163.1L472.9,162.8L473.0,162.5L473.2,162.6L473.5,162.6L474.2,162.2L475.0,161.8L475.7,161.6L476.1,161.5L476.4,161.6L476.7,161.6L477.1,161.5L477.7,161.8L477.9,161.9L478.6,162.0L479.3,162.2L479.9,162.5L480.8,162.8L481.4,163.2L481.8,163.4L482.1,163.4L482.3,163.4L482.7,163.1L483.1,163.0L483.5,163.0L484.1,162.9L484.4,162.8L484.7,162.7L485.0,162.8L485.3,162.9L486.3,163.6L486.7,163.7L487.3,163.5L487.5,163.3L487.6,163.0L487.8,162.8L488.0,162.5L488.3,162.4L489.1,162.1L489.6,161.8L490.0,161.4L489.1,161.2L489.3,160.8L489.6,160.6L490.0,160.7L490.4,161.0L490.5,162.0L490.2,162.1L490.1,162.3L489.9,162.5L489.4,162.8L489.6,163.3L489.5,163.5ZM473.7,167.9L474.0,168.1L474.9,168.6L475.1,168.8L475.1,169.2L475.3,169.5L475.7,169.5L476.2,169.4L476.5,169.6L476.8,169.9L477.2,170.3L477.6,170.9L478.1,171.2L478.3,171.7L478.2,172.1L477.6,172.6L477.3,172.7L476.8,172.8L476.1,173.1L475.9,172.9L475.1,172.8L474.5,172.6L474.0,172.1L473.7,171.7L473.3,171.3L472.6,171.0L471.4,170.2L470.7,170.1L470.4,170.2L470.1,170.2L468.5,169.8L468.3,169.6L468.1,169.3L467.9,169.0L467.8,168.7L468.0,168.5L468.2,168.3L469.1,168.0L469.7,167.9L470.4,167.9L471.5,167.8L472.5,167.9L472.8,167.8L473.3,167.5L473.5,167.6ZM463.8,161.9L464.1,162.1L464.4,162.1L464.9,161.8L465.2,161.6L465.6,161.6L465.9,161.7L466.2,161.9L466.3,162.3L466.5,162.5L466.7,162.0L466.9,161.8L467.2,161.8L467.7,161.8L468.0,162.0L468.3,162.7L468.3,163.3L468.4,163.5L468.6,163.7L468.8,163.9L468.7,164.1L468.5,164.2L468.1,164.3L467.9,164.3L467.7,164.1L467.5,164.1L467.1,164.1L466.6,164.3L466.7,164.5L467.0,164.6L467.1,164.7L467.1,164.8L467.0,164.9L466.5,164.7L466.2,164.7L465.2,165.0L464.9,164.9L464.7,164.7L464.7,164.1L464.6,163.9L463.8,164.7L463.5,164.9L463.2,165.0L462.9,164.9L461.7,165.4L461.3,165.3L461.0,165.3L459.7,165.8L459.0,166.0L458.7,166.0L458.4,165.9L458.1,166.0L457.8,166.2L457.2,166.3L456.6,166.2L456.1,166.0L455.7,165.8L455.6,165.5L455.6,165.2L455.8,164.7L455.7,163.9L455.8,163.5L455.9,163.1L456.2,163.0L456.6,163.0L457.2,162.6L457.8,162.2L458.1,162.2L458.9,162.5L459.3,162.6L460.0,162.5L460.4,162.7L460.5,163.1L460.6,163.3L460.9,163.4L461.4,164.1L461.9,164.1L462.3,164.2L463.1,163.8L463.6,163.8L463.8,163.5L463.4,163.1L463.0,162.8L462.8,162.7L462.6,162.8L462.3,162.7L461.4,162.0L461.2,161.7L461.0,161.3L461.1,161.0L461.7,160.7L462.0,160.6L463.1,160.8L463.3,161.0L463.6,161.6ZM501.1,109.6L500.0,110.5L499.7,111.0L499.4,111.5L499.0,112.0L498.5,112.5L498.2,112.6L497.6,112.9L497.3,113.0L496.7,113.0L494.7,113.4L494.1,113.5L493.4,113.5L492.2,113.4L492.0,113.3L491.5,112.8L490.9,112.4L490.5,112.4L490.0,112.4L486.4,112.4L485.2,112.5L484.0,112.7L483.3,112.6L482.7,112.4L482.2,112.3L481.7,112.4L479.4,112.7L478.8,112.6L477.6,112.3L476.9,112.2L476.2,112.3L475.6,112.6L475.4,112.9L474.8,113.6L474.4,114.2L474.1,114.9L473.9,115.6L473.7,116.2L473.7,116.9L473.8,117.6L474.0,118.2L474.2,118.8L475.0,120.0L475.2,120.2L476.1,120.5L476.6,121.0L477.1,122.2L477.4,122.8L477.8,122.8L478.1,122.8L478.8,122.9L479.5,123.0L480.1,122.6L480.5,121.9L480.8,121.4L481.7,120.4L482.2,119.9L482.5,119.8L482.8,119.8L483.1,120.1L483.4,120.3L484.1,120.4L484.7,120.4L485.4,120.0L485.6,119.8L485.9,119.6L486.4,119.4L487.8,119.4L488.6,119.5L489.9,119.4L489.8,119.2L489.6,119.0L489.5,118.8L489.8,118.7L490.6,118.5L491.4,118.3L492.1,118.5L492.6,118.8L492.8,119.1L492.9,119.5L492.7,120.5L492.6,120.8L492.2,120.9L491.8,120.7L491.3,120.2L490.8,120.0L489.9,120.2L489.7,120.3L489.4,120.6L488.9,121.1L488.5,121.7L487.7,122.7L486.8,123.5L486.3,123.9L485.8,124.1L484.1,124.6L483.6,125.0L483.3,125.6L482.9,125.8L482.5,125.8L482.2,125.7L481.5,125.4L481.3,125.7L481.2,126.0L481.5,126.2L482.1,126.6L482.5,127.2L482.8,127.3L483.3,127.5L483.6,127.7L484.0,128.2L484.7,129.4L485.0,130.0L485.3,130.5L486.5,131.4L486.6,131.7L486.5,132.0L486.6,132.2L487.0,132.7L487.1,133.1L486.7,133.5L486.6,134.1L486.3,134.9L486.3,135.2L486.3,135.4L486.5,135.7L486.7,135.8L487.0,135.9L487.3,136.1L487.8,136.7L488.1,136.9L488.3,137.1L488.3,137.5L488.5,137.7L488.7,138.0L489.1,138.1L489.2,138.0L489.4,137.9L489.6,137.9L489.8,138.2L489.9,138.5L489.9,138.9L489.9,139.5L489.8,139.8L489.5,139.8L488.9,139.5L488.9,139.7L488.9,139.9L488.6,139.9L488.3,139.9L487.5,139.9L486.0,140.4L485.5,140.6L485.2,141.1L485.2,141.4L485.3,142.0L485.1,142.2L484.4,142.3L483.5,142.2L482.9,142.0L482.6,141.8L482.2,141.4L482.0,140.8L482.3,139.2L482.4,138.9L482.5,138.8L482.7,138.5L482.7,138.1L482.3,137.7L481.6,137.5L481.0,137.1L478.8,135.1L478.7,134.9L478.7,134.5L478.7,134.2L479.5,133.1L479.6,132.9L479.7,132.0L479.7,131.3L479.6,130.6L479.2,130.1L478.6,130.0L478.0,129.9L477.3,130.1L476.7,130.5L475.6,131.2L475.1,131.7L475.1,132.3L475.4,132.8L475.7,133.3L475.9,133.9L476.1,135.9L476.1,136.2L475.8,136.7L475.7,138.1L475.8,139.9L476.0,141.0L475.9,141.7L475.4,143.0L475.3,143.7L475.2,144.0L475.9,145.4L476.0,145.9L476.1,146.5L475.4,146.2L475.1,146.3L474.8,146.3L474.1,146.4L473.4,146.4L473.2,146.5L472.7,146.9L472.4,147.1L472.1,147.1L471.2,146.6L470.7,146.1L470.2,145.6L470.1,145.0L470.3,144.3L470.5,143.6L471.0,142.5L471.0,141.7L471.1,141.1L471.4,140.5L471.5,139.9L471.6,137.8L471.5,137.6L470.8,136.3L470.8,136.1L470.8,135.7L470.8,135.4L470.8,135.1L470.7,134.8L470.4,134.6L470.1,134.5L469.4,134.6L468.0,135.0L467.6,134.7L467.3,134.2L467.1,133.5L467.0,132.8L467.1,132.2L467.3,131.6L467.1,131.1L466.9,130.6L466.9,130.4L467.0,130.2L467.2,130.0L467.6,129.9L467.8,129.7L468.6,129.1L468.8,128.5L468.8,127.8L469.0,127.1L469.4,126.5L469.9,126.0L470.0,125.4L469.8,124.4L469.9,124.0L469.8,123.5L469.8,123.0L470.1,122.1L470.9,120.2L471.7,119.2L472.0,119.0L472.5,119.4L472.8,120.0L472.8,119.5L472.7,119.0L472.4,117.8L472.1,115.6L472.2,115.4L472.5,115.5L472.8,115.3L472.9,114.9L472.6,114.1L472.6,113.8L473.2,112.6L473.7,112.2L473.9,112.0L474.0,111.3L474.2,111.0L474.6,110.8L475.0,110.3L475.2,109.7L475.3,109.7L475.5,109.6L475.7,110.2L476.0,110.4L476.6,110.6L477.1,110.4L477.2,110.1L477.4,109.9L477.7,109.6L477.9,109.3L478.2,108.7L478.5,108.1L478.8,107.9L479.1,107.8L479.4,107.7L479.7,107.7L480.4,108.1L480.9,108.1L481.3,108.1L481.5,108.2L481.8,108.3L481.9,108.7L482.2,109.0L482.4,109.1L482.6,109.2L484.1,109.0L485.5,109.4L487.3,109.4L488.0,109.6L488.6,109.9L489.3,110.3L489.6,110.4L489.9,110.4L490.3,110.0L490.5,109.9L490.8,109.9L492.0,109.9L495.2,110.4L495.7,110.4L497.6,109.4L498.4,108.5L499.1,108.3L499.3,107.8L499.4,107.3L499.7,107.2L500.3,107.1L500.5,106.9L500.9,106.3L501.4,105.8L501.6,105.6L502.3,105.7L502.6,105.9L503.0,106.7L502.9,106.9L502.5,107.2L502.3,107.4L501.8,108.5L501.5,109.1ZM402.9,148.9L403.5,149.5L404.0,149.8L404.6,150.0L405.2,150.1L405.8,150.1L406.5,150.4L407.2,150.5L407.5,150.4L407.9,150.3L408.1,150.3L408.3,150.4L408.8,151.0L409.3,151.5L409.5,151.7L409.8,152.9L410.2,153.3L410.8,153.4L411.5,153.4L412.1,153.4L413.7,153.7L414.3,153.7L414.8,153.4L415.3,153.6L416.6,153.9L417.3,154.0L418.0,153.9L418.8,153.9L419.1,154.0L419.4,154.1L419.7,154.2L420.0,154.2L420.6,153.9L420.9,153.4L421.2,152.7L421.4,152.0L421.6,151.7L421.8,151.5L422.1,151.3L422.3,151.2L423.1,151.3L423.3,151.4L424.1,152.6L424.3,152.7L425.2,152.8L425.4,152.7L426.0,152.5L426.3,152.5L426.9,152.8L427.1,153L427.4,153.2L428.8,153.4L429.4,153.9L429.6,153.9L430.6,153.9L431.3,153.9L431.9,154.0L432.1,154.7L432.4,155.5L432.5,155.7L433.1,155.9L433.3,156.2L433.2,156.9L433.3,157.6L434.5,158.2L435.8,158.5L437.2,158.5L438.6,158.4L439.4,158.3L440.3,158.0L440.4,158.0L442.2,158.8L442.4,158.9L442.5,159.5L442.5,160.1L442.2,161.6L442.2,162.0L442.2,162.4L442.6,163.3L442.8,163.5L443.4,164.0L443.4,164.2L443.3,164.5L442.6,164.3L442.2,164.1L442.0,163.8L441.6,163.6L440.9,163.7L439.7,163.3L438.3,162.8L435.9,161.7L435.2,161.7L434.6,161.9L433.9,162.2L433.2,162.3L432.7,162.4L432.1,162.4L430.8,162.1L429.5,161.9L426.1,161.8L425.2,161.6L423.6,161.5L422.3,161.3L421.0,161.0L417.9,159.5L416.8,159.1L413.6,158.4L413.1,158.4L412.0,158.4L411.2,158.2L410.6,158.2L409.6,158.5L409.3,158.6L409.0,159.0L408.3,158.9L407.7,158.9L406.0,158.5L405.4,158.3L404.7,158.0L404.2,157.7L403.9,157.5L402.4,157.1L401.2,157.0L398.8,156.8L398.2,156.7L397.8,156.5L397.5,156.2L397.6,155.8L397.7,155.4L398.0,155.1L398.1,154.8L396.4,154.0L394.9,153.7L394.3,153.6L393.7,153.6L393.0,153.7L392.3,153.6L392.0,153.5L391.7,153.5L391.3,153.6L391.1,153.5L391.0,153.2L391.2,152.9L391.5,152.6L391.7,152.6L391.8,153.0L391.9,153.1L392.2,153.3L392.3,153.2L392.9,152.6L393.0,152.3L393.3,151.5L393.6,151.6L393.9,151.5L394.0,151.4L394.5,149.5L394.9,148.9L395.4,148.4L395.6,148.3L396.2,148.6L397.2,148.7L397.8,148.9L398.4,148.9L399.0,149.0L399.9,149.4L400.2,149.3L400.4,149.2L400.9,148.9L401.1,148.3L401.7,148.6L402.7,148.7ZM415.6,103.8L415.1,104.5L415.1,104.8L415.3,105.0L415.6,105.2L415.7,106.1L416.2,106.6L416.6,107.1L417.0,107.3L417.3,107.6L417.6,108.0L417.9,108.2L418.3,108.5L419.4,109.6L419.9,109.9L420.2,110.2L420.5,110.3L421.1,110.2L422.9,109.4L423.2,109.4L423.8,109.3L424.9,109.3L426.0,109.6L426.3,109.6L426.6,109.4L427.1,109.5L427.6,109.5L427.8,109.5L428.4,108.9L429.3,108.7L429.6,108.2L429.8,107.6L429.9,107.1L430.3,106.8L430.8,106.7L431.5,106.4L434.1,106.4L434.4,106.5L434.5,106.8L434.4,107.0L434.5,107.1L434.8,107.1L435.2,107.2L436.5,107.7L437.0,107.8L437.3,107.8L437.9,108.2L438.3,108.1L438.7,107.8L439.1,107.4L439.5,107.1L440.1,107.0L440.8,107.0L441.6,106.9L442.2,106.7L442.9,107.0L443.1,106.9L443.2,106.7L443.6,106.1L443.8,105.7L443.9,105.0L444.0,104.8L444.3,104.7L444.5,104.5L444.6,104.3L444.7,104.0L444.6,103.8L444.5,103.6L444.3,103.0L444.4,102.7L444.5,102.5L444.7,102.4L445.5,102.0L446.2,101.4L446.5,101.2L446.7,101L446.7,100.8L446.4,100.5L446.1,100.4L446.1,100.1L446.1,99.9L446.2,99.7L446.2,99.5L446.2,99.2L446.3,98.9L446.7,98.5L447.0,98.2L447.4,98.4L447.8,98.3L448.2,98.1L448.4,97.6L448.5,97.4L448.4,97.2L448.5,96.4L448.6,96.3L448.8,95.8L448.9,95.5L448.7,94.8L448.8,94.2L448.9,93.1L449.0,92.8L449.2,92.3L449.5,91.6L450.0,91.3L450.3,90.8L450.5,90.8L450.7,90.8L451.4,91.1L452.0,90.7L452.6,90.7L453.1,90.7L453.3,90.9L453.6,91.0L454.1,90.6L454.4,90.7L454.6,90.8L454.8,90.8L455.2,90.7L456.0,90.8L457.4,90.8L458.4,91.0L459.4,91.6L459.9,91.7L460.1,91.8L460.0,91.8L459.6,92.0L459.5,92.3L460.0,92.8L460.0,93.1L460.5,93.4L460.9,93.8L461.0,94.0L461.1,94.2L461.2,94.5L460.9,94.7L460.4,94.8L460.0,94.5L459.7,94.2L459.6,94.6L459.4,94.8L458.5,94.7L457.8,94.7L457.2,94.8L457.5,94.9L457.8,95L458.8,95.9L459.0,96.3L458.7,97.0L458.8,97.2L459.2,97.4L459.7,97.7L460.0,97.8L460.3,98.0L460.3,98.3L460.4,98.6L460.0,98.7L460.4,98.8L460.8,99.0L460.6,99.1L460.5,99.3L460.6,99.4L461.1,99.6L461.3,99.7L461.4,100.2L461.8,100.9L462.6,101.8L462.8,102.1L462.8,102.5L462.7,102.7L462.2,103.0L461.8,103.4L461.8,103.6L461.3,103.8L461.5,103.9L461.7,104.1L462.1,104.7L462.9,105.6L463.4,105.9L465.1,107.2L466.0,107.8L467.2,109.0L467.9,109.3L468.0,109.6L467.5,110.2L466.7,110.4L465.5,110.6L464.2,110.4L463.6,110.2L463.0,109.9L462.6,109.3L462.0,109.0L462.2,109.4L462.3,109.7L462.3,110.2L462.0,110.5L461.6,110.7L461.2,110.9L461.0,111.1L460.0,113.2L459.8,113.8L459.5,116.3L459.5,117.0L459.9,118.2L460.0,118.9L460.1,119.2L460.0,119.5L459.8,119.6L458.9,120L458.2,120.3L457.7,120.8L457.3,121.4L456.9,121.8L456.4,122.0L456.0,122.0L455.7,121.8L455.5,121.4L455.4,121.0L455.3,121.3L455.3,121.6L455.5,121.9L455.6,122.2L455.5,122.6L455.3,122.8L454.7,123.1L454.4,123.4L454.3,123.8L454.2,124.1L453.9,124.3L453.1,124.7L452.9,124.9L452.8,125.1L453.3,125.1L453.6,125.1L453.7,125.6L453.8,125.9L453.6,126.6L453.0,127.1L453.3,127.2L453.6,127.4L454.2,127.5L454.4,128.0L454.3,128.7L454.2,129.2L453.8,129.4L453.5,129.3L453.2,129.3L453.0,129.4L453.0,129.7L453.4,129.6L453.4,130.3L453.3,131.0L453.1,131.4L452.9,131.7L452.5,131.8L452.2,131.6L452.1,131.9L452.2,132.1L452.7,132.7L452.4,132.8L452.2,133.0L452.1,133.3L451.6,133.9L451.4,134.4L451.3,134.9L451.0,135.3L447.1,137.0L444.0,138.5L443.7,138.4L443.6,138.2L443.4,135.9L443.1,134.7L443.0,134.1L442.6,134.7L442.3,134.6L442.0,134.4L441.8,134.3L441.8,134.0L442.0,133.3L441.7,133.7L441.4,134.0L441.0,133.9L440.8,133.8L440.7,133.6L440.5,133.5L439.8,134.2L438.9,134.5L438.4,134.5L438.0,134.3L438.0,133.8L438.0,133.3L437.9,133.1L437.6,133.0L437.4,133.0L436.8,133.2L436.5,133.2L436.4,133.3L434.7,131.6L434.3,133.0L433.1,133.8L432.2,134.2L431.3,134.0L430.4,133.8L429.6,134.1L428.6,134.9L428.3,135.1L428.1,135.0L427.9,134.9L427.9,134.3L427.9,133.7L427.9,132.3L427.8,132.0L427.5,131.6L427.2,131.3L426.9,131.5L426.7,131.8L426.0,131.8L425.3,131.6L424.7,131.7L423.5,132.3L422.9,132.3L422.5,132.2L422.3,131.9L422.4,131.6L422.7,131.4L422.2,131.6L421.8,131.9L421.6,132.1L421.4,132.0L420.9,131.3L419.8,131.6L419.6,131.7L419.3,131.9L419.1,131.8L418.9,131.5L418.9,130.2L418.3,127.7L418.2,126.4L418.1,126.1L417.4,125.6L417.5,124.9L417.8,124.3L417.9,123.7L417.8,123.0L417.6,122.3L417.3,121.8L416.9,121.3L416.5,120.8L415.9,120.4L414.6,120.0L413.9,120.0L413.7,119.9L413.5,119.7L413.6,119.2L413.8,118.9L414.1,118.9L414.1,118.7L413.5,118.4L413.0,117.9L412.8,117.6L412.7,117.3L412.7,116.6L412.9,116.2L413.0,115.9L413.1,115.2L413.5,115.0L413.4,114.8L413.3,114.7L413.1,114.5L412.9,114.2L412.5,113.7L411.7,113.1L411.6,112.2L411.5,110.7L411.6,110.0L411.8,108.8L412.2,108.4L412.6,108.3L412.8,108.1L412.6,108.1L412.4,108.2L412.1,108.2L412.3,107.1L412.5,106.8L413.0,106.1L413.6,105.6L413.8,104.9L414.2,104.4ZM517.0,110.4L517.4,110.5L517.8,110.5L518.0,110.2L518.1,109.9L518.3,109.3L518.8,108.9L519.1,108.8L519.4,108.6L519.3,108.2L519.4,107.8L519.7,107.3L520.9,106.6L521.5,106.4L522.4,106.3L522.5,106.6L522.4,106.9L522.5,107.5L522.4,108.9L522.2,109.1L521.4,109.7L520.4,110.1L520.2,110.2L519.9,110.6L520.0,111.0L520.7,111.6L521.9,112.1L522.2,112.3L522.3,112.7L522.4,113.1L522.7,113.3L523.1,113.4L523.3,113.6L523.5,113.9L521.5,113.3L521,112.9L520.4,112.9L519.7,112.8L519.1,112.6L518.4,112.5L518.1,112.7L517.9,113.1L517.9,113.5L518.0,114.0L518.0,114.3L517.9,114.9L518.4,116.5L519.0,117.9L519.9,119.2L520.4,119.7L520.9,120.1L520.1,120.0L519.8,119.6L518.8,119.1L518.6,118.8L517.9,117.5L517.7,117.3L517.0,116.8L516.8,116.5L516.7,116.1L516.7,115.6L516.7,114.9L516.7,114.3L516.9,113.5L516.6,113.3L516.3,113.0L516.0,112.4L515.9,111.7L515.9,111.3L516.1,111.0L516.3,110.7L516.3,110.4L515.8,110.0L515.3,108.8L515.3,108.1L515.9,106.9L515.9,106.3L516.0,106.0L516.1,105.6L516.4,104.8L517.0,104.1L517.9,103.2L518.3,103.0L518.7,102.8L518.7,103.1L518.7,103.3L518.0,104.2L517.9,104.5L517.9,104.9L518.2,105.1L518.6,105.6L518.6,106.3L518.6,107.0L518.6,107.7L518.4,107.9L517.9,108.6L516.5,109.5L516.4,109.7L516.4,109.9L516.7,110.2ZM528.3,131.2L529.6,131.8L530.3,131.9L531.4,131.8L531.8,131.9L532.9,132.7L533.2,133.2L533.3,133.7L533.5,134.2L533.7,134.3L534.0,134.3L534.4,135.0L534.5,135.2L534.2,136.8L532.9,136.2L531.7,135.5L531.2,135.2L529.8,134.6L529.6,134.4L529.4,134.2L528.8,133.8L527.6,133.7L527.2,133.7L527.0,133.8L527.0,134.0L527.0,134.4L526.7,134.5L526.0,134.3L525.3,134.2L524.7,133.9L523.9,133.8L523.8,133.7L523.9,133.5L523.9,133.3L523.7,133.2L523.3,133.3L523.0,133.4L522.7,133.6L522.3,134.2L522.1,134.4L521.4,134.5L521.1,134.4L520.8,134.3L520.1,133.3L519.8,133.1L519.5,132.9L519.2,132.8L519.0,133.0L518.8,133.3L518.7,133.7L518.7,133.9L518.3,134.4L518.1,134.8L518.0,134.7L518.1,134.2L518.1,133.9L517.9,133.5L517.8,133.2L519.1,131.6L519.6,131.2L521.7,131.1L522.9,131.2L523.6,131.1L524.0,131.0L524.4,131.0L524.5,131.4L524.8,131.6L525.1,131.6L525.7,131.3L526.2,130.9L526.5,130.8L526.8,130.8L527.1,130.8L527.5,130.9ZM512.1,132.4L513.0,132.9L513.2,133.2L513.4,133.5L513.6,133.7L513.8,133.8L514.2,134.2L514.3,134.6L514.2,135.5L513.8,135.6L513.4,135.7L512.6,136.2L512.2,136.3L511.7,136.4L511.4,136.5L511.1,136.6L510.4,136.3L509.6,135.9L508.5,135.4L508.3,135.2L508.1,134.9L507.6,134.3L507.5,133.9L507.4,132.9L507.6,132.7L507.8,132.5L508.5,132.8L509.0,132.5L510.4,132.3L511.8,132.3ZM501.3,165.4L501.2,166.0L501.3,166.1L501.5,166.1L502.2,165.8L502.4,165.9L502.5,166.0L502.5,166.5L502.2,166.8L501.6,166.9L501.5,167.0L501.5,167.2L501.5,167.4L501.7,167.6L501.9,167.9L502.1,168.7L501.7,169.0L501.5,169.5L500.8,170.1L500.0,171.0L499.5,171.4L498.9,171.9L498.5,172.3L497.9,172.4L497.1,172.5L495.9,173.1L495.3,173.4L494.7,173.4L494.1,173.2L493.9,173.0L493.9,172.7L494.1,172.4L494.4,172.2L494.5,171.9L493.8,171.5L493.8,171.3L494.0,170.5L494.2,169.8L494.5,169.3L495.4,168.3L495.9,167.9L496.3,167.7L496.4,167.9L496.6,168.1L496.7,168.2L496.8,168.1L497.7,168.2L497.9,168.1L498.2,167.8L498.4,167.6L498.5,167.1L498.6,166.8L499.3,166.7L499.7,166.4L500.0,166.1L501.1,165.6ZM556.3,147.2L556.3,147.4L556.2,147.8L556.3,148.2L556.1,148.5L556.3,149.1L556.4,149.4L556.3,149.8L556.3,150.0L556.1,150.5L555.9,150.7L555.8,150.7L555.7,150.9L554.6,150.7L554.1,150.3L553.7,149.9L553.6,149.8L553.1,149.3L553.0,149.2L553.0,148.9L553.4,148.9L553.8,148.9L553.8,148.7L554.0,147.9L553.4,147.4L553.3,147.2L553.5,147.0L554.0,147.2L554.7,146.3L554.9,146.1L554.9,145.7L555.3,145.6L555.6,145.7L555.7,146.0L555.8,146.2L555.7,146.5L556.0,146.6ZM555.1,151.3L555.0,151.7L554.9,152.1L554.4,152.6L554.1,153.4L553.9,153.6L553.2,153.9L552.6,153.5L552.4,153.2L552.7,151.5L553.0,151.5L553.1,151.5L553.2,151.4L552.8,151.2L552.7,150.3L552.7,149.9L553.0,149.8L553.4,150.1L553.9,150.6L554.4,151.0ZM577.5,161.7L576.2,162.4L574.4,162.3L573.8,162.3L572.8,162.4L572.6,162.3L572.8,161.6L573.6,159.7L574.6,158.1L575.0,157.7L575.6,157.3L576.2,156.9L577.6,156.6L578.8,156.7L579.0,156.8L579.6,157.3L579.9,157.8L580.1,158.4L579.5,159.4L578.9,160.4L577.9,161.2ZM591.2,129.8L591.2,129.8L591.2,130.2L591.2,130.8L591.2,132.0L591.2,133.1L591.2,134.3L591.2,135.4L591.2,136.6L591.2,137.7L591.2,138.8L591.2,140.0L591.2,141.1L591.2,142.3L591.2,143.4L591.2,144.6L591.2,145.7L591.2,146.8L591.2,148.0L591.2,149.1L591.2,150.3L591.2,150.8L591.0,151.4L590.6,152.3L590.6,153.0L590.9,153.5L591.2,153.9L591.2,154.9L591.2,156.0L591.2,157.2L591.2,158.3L591.2,159.5L591.2,160.6L591.2,161.8L591.2,162.9L591.2,164.1L591.2,165.2L591.2,166.4L591.2,166.4L590.9,166.3L590.1,165.6L589.4,164.9L589.0,164.2L588.5,163.6L586.3,161.8L585.7,161.2L585.6,161.1L585.7,160.9L585.9,160.6L586.4,159.7L585.9,160.2L585.4,160.7L584.6,160.7L583.8,160.8L583.0,161.1L582.3,161.2L581.9,161.0L581.7,160.7L581.6,160.4L581.5,160.0L581.2,160.6L580.6,160.9L579.8,161.6L579.5,161.5L579.4,161.2L579.3,160.9L579.5,160.6L579.6,160.3L579.8,159.6L580.1,159.2L580.4,158.4L580.5,158.1L580.6,157.8L580.4,157.4L580.0,157.3L579.8,157.1L579.5,156.6L579.3,156.4L579.0,156.1L578.7,155.9L579.0,155.7L579.4,155.6L579.7,155.6L580.2,155.7L580.5,155.7L581.1,155.5L580.8,155.6L580.4,155.6L579.2,155.2L578.5,154.9L577.9,154.1L577.9,153.9L578.3,153.8L579.4,153.7L579.0,153.3L578.6,152.9L578.4,152.3L578.1,152.0L577.4,151.4L577.0,150.7L576.6,149.5L576.2,148.5L576.3,148.2L576.6,147.9L576.1,147.9L575.6,147.7L575.9,147.3L576.4,147.0L575.9,147.1L575.5,147.2L575.2,147.2L575.0,147.2L574.9,147.0L574.9,146.7L574.9,146.3L574.9,145.8L574.4,145.6L574.1,145.3L573.9,145.1L573.6,145.2L573.4,144.9L573.2,144.6L570.6,143.3L570.5,142.9L570.3,143.1L570.0,143.1L569.7,142.9L569.4,142.8L569.1,142.8L568.8,142.7L568.5,142.6L568.1,142.6L566.8,142.2L565.5,141.5L564.5,141.2L563.9,140.8L563.2,140.5L561.7,140.3L560.2,140.1L559.7,140.1L559.2,140.1L558.8,140.1L556.3,138.7L555.9,138.0L556.0,137.6L556.1,137.3L557.1,137.2L556.4,137.1L556.1,137.2L555.5,137.4L555.2,137.5L554.7,137.3L554.3,137.1L553.6,137.3L553.3,136.9L553.1,136.6L552.9,136.4L552.7,136.4L552.3,136.6L552.0,136.6L551.7,136.3L551.6,136.0L551.3,135.8L551.0,135.6L550.5,135.2L550.3,134.6L550.3,133.7L550.4,133.3L550.9,132.8L551.2,132.3L550.8,132.2L550.4,132.4L550.3,132.7L550.2,133.0L550.2,134.0L549.9,134.3L549.4,134.3L549.5,134.9L549.4,135.4L548.8,136.1L548.8,136.4L548.9,136.7L548.8,137.0L547.9,137.9L547.6,138.0L547.0,138.0L546.3,138.1L546.0,137.9L545.8,137.6L545.6,137.3L545.3,136.6L545.1,135.9L545.8,135.0L545.5,134.3L545.1,133.6L544.0,132.7L542.9,131.8L542.3,131.6L541.5,131.6L541.2,131.5L540.9,131.2L540.7,130.8L541.3,130.6L542.2,130.2L542.7,130.2L544.1,130.4L544.6,130.6L545.0,130.8L545.9,130.0L546.7,129.1L547.2,128.9L547.6,128.8L548.0,128.9L548.8,129.2L549.5,129.4L549.9,129.4L550.2,129.7L550.4,129.8L550.5,129.4L550.7,128.9L551.2,128.7L551.4,128.7L551.6,128.5L551.5,128.1L550.9,128.0L551.3,127.6L551.6,127.4L551.7,127.2L551.7,126.9L550.5,127.4L549.2,127.6L548.5,127.6L547.8,127.5L546.3,127.9L545.7,127.9L544.4,127.7L543.7,127.6L543.2,127.7L542.6,127.7L542.1,127.3L541.6,126.9L541.4,126.5L541.0,126.3L540.9,126.0L540.5,124.7L540.5,123.9L540.0,123.9L539.4,123.8L537.0,122.9L536.7,123.2L536.3,123.3L536.0,123.3L535.6,123.2L535.3,123.1L535.3,122.9L535.6,122.3L535.8,122.1L536.1,122.0L536.4,121.7L536.7,120.8L536.8,120.5L536.7,120.2L536.7,119.9L537.0,119.8L537.9,119.5L539.8,119.1L540.3,118.8L540.7,118.4L541.2,118.2L541.4,117.9L541.6,117.7L543.1,117.1L543.8,117.1L544.4,117.2L545.7,117.5L546.9,118.0L548.0,118.7L549.2,119.2L550.6,119.3L551.3,119.2L552.0,119.3L552.2,119.5L552.7,119.9L552.6,120.2L552.5,120.7L552.8,121.3L553.2,121.9L553.5,122.5L553.6,122.8L553.4,123.4L553.3,123.7L552.9,124.2L552.7,124.8L552.8,125.5L552.9,126.2L552.9,126.8L553.0,127.4L553.2,128.1L554.1,129.8L554.7,131.0L554.9,130.4L554.8,129.6L555.0,129.4L555.3,129.2L555.6,129.4L555.7,129.7L555.8,130.3L556.0,131.6L556.4,131.6L556.8,131.4L556.9,131.8L556.9,132.6L557.1,133.1L557.2,133.4L557.9,133.8L558.2,133.9L559.1,134.0L559.8,134.1L560.4,133.9L560.9,133.5L561.2,133.0L562.5,131.9L562.9,131.4L563.3,130.6L563.4,130.5L564.7,129.6L564.8,129.3L565.0,128.7L565.3,128.2L565.5,127.9L566.7,127.6L568.0,127.5L569.3,126.9L569.9,126.5L569.9,126.2L569.6,125.7L569.6,125.5L569.9,125.2L571.0,124.6L572.4,123.9L573.4,123.5L574.0,123.5L574.6,123.9L575.1,124.2L578.2,125.2L578.6,125.5L579.1,125.9L579.7,126.2L580.3,126.3L581.0,126.6L581.5,126.9L582.8,127.5L584.6,128.3L585.0,128.3L586.6,128.3L586.9,128.5L587.1,128.7L587.4,128.7L589.2,128.8L589.5,129.0L589.8,129.2L589.9,129.8ZM579.5,162.3L579.2,162.4L577.9,162.2L577.7,162.0L577.7,161.9L578.0,161.6L578.3,161.2L578.8,161.1L579.0,161.1L579.6,162.0ZM371.2,103.5L371.5,103.9L371.6,104.3L371.3,104.6L371.3,105.1L370.6,105.5L370.0,105.4L369.9,105.3L369.5,104.5L369.5,103.8L369.8,103.5L370.3,103.6L370.8,103.2ZM375.2,109.6L375.0,109.8L374.7,109.5L374.4,109.1L374.3,108.7L374.1,108.1L374.1,107.6L374.3,107.3L374.4,107.3L374.8,107.6L375.1,108.1L375.3,108.2L375.3,108.7L375.2,109.2ZM375.6,107.0L375.6,107.7L375.2,107.5L374.9,107.2L374.4,107.0L373.7,106.9L373.3,106.7L372.9,106.4L372.9,106.3L373.0,106.1L373.1,106.0L375.5,106.7ZM378.6,111.0L378.5,111.2L378.3,111.0L377.2,110.8L376.8,110.8L375.9,110.5L375.6,110.3L375.4,110.2L375.4,109.8L375.6,109.6L375.7,109.0L375.9,108.8L376.4,109.2L376.9,109.6L377.2,109.8L378.1,110.1L378.4,110.3ZM379.4,110.3L379.2,110.4L378.9,110.4L378.6,110.2L378.2,109.9L377.8,109.6L377.2,109.4L376.9,109.3L376.8,109.2L376.9,108.6L377.3,108.6L378.4,109.2L378.8,109.5ZM380.0,112.1L379.4,112.1L379.2,112.1L379.3,111.5L379.5,111.2L379.8,111.2L380.1,111.7ZM380.9,111.4L380.8,111.5L380.4,110.8L380.5,110.4L380.6,110.3L380.9,110.5L381.1,110.8L381.2,111.1ZM384.2,108.5L384.5,108.8L384.8,108.6L384.8,108.8L384.7,109.0L384.4,109.6L383.8,109.5L383.7,109.3L383.6,109.1L383.7,109.0L383.8,108.8L384.0,108.8ZM387.3,108.3L387.3,108.7L387.7,109.0L387.7,109.3L387.7,109.8L387.4,110.3L387.3,110.5L386.9,110.4L386.7,110.2L386.7,110.0L386.7,109.9L386.4,109.8L386.6,109.6L386.5,109.3L385.7,109.4L385.4,109.5L385.4,109.1L385.4,109.0L386.1,108.5L386.4,108.4L386.8,108.5ZM388.4,116.1L388.5,116.2L388.8,115.9L389.1,116.3L389.4,116.5L389.7,116.7L389.4,116.7L389.2,116.9L389.2,117.0L388.0,116.3L387.2,116.5L386.7,116.3L386.5,116.2L386.8,115.8L387.1,115.0L387.6,115.2L387.7,115.5L387.7,115.6L388.0,115.7ZM386.7,117.0L387.2,117.6L387.3,117.8L387.1,118.1L386.9,118.5L386.8,118.6L386.4,118.4L386.1,118.8L385.9,118.2L385.5,117.7L385.7,117.3L385.8,117.3L385.9,117.3L386.1,117.4ZM382.6,117.1L381.8,117.3L381.0,117.1L381.1,116.8L381.5,116.4L381.9,116.4L382.5,116.7L382.7,116.9ZM416.0,121.8L414.9,122.3L414.6,122.3L414.4,122.1L414.6,121.0L414.7,120.7L415.5,120.6L416.0,120.8L416.2,121.0L416.3,121.3L416.3,121.6ZM439.2,155.0L439.1,155.1L438.1,155.1L437.5,155.5L437.1,155.7L435.6,155.7L435.4,155.6L435.2,155.6L435.2,155.7L434.7,155.7L433.1,155.2L432.9,154.9L433.2,154.5L433.7,153.9L434.8,153.8L439.9,153.7L440.5,154.2L440.5,154.4L439.4,154.7ZM557.5,121.4L557.2,121.5L556.9,121.4L556.6,121.0L556.7,120.6L557.1,120.4L557.4,120.6L557.5,120.9L557.7,120.9ZM514.3,117.9L513.9,118.1L513.6,118.1L513.5,117.5L513.6,116.7L514.0,116.6L514.5,116.7L514.3,116.9L514.5,117.3ZM516.1,116.9L516.7,117.8L516.3,118.6L516.6,119.0L517.4,119.0L517.6,119.2L517.7,119.4L517.8,119.7L517.6,119.9L517.1,120.1L516.6,119.8L516.5,119.5L516.4,119.4L515.7,119.6L515.5,119.7L515.4,119.3L515.5,118.7L515.0,118.5L514.6,117.9L514.5,117.7L514.7,117.3L514.7,117.0L515.0,117.0L515.4,117.4L515.7,117.0L515.8,116.9ZM546.1,148.3L545.6,148.8L546.1,147.6L546.2,147.0L546.6,146.7L547.1,144.9L547.3,145.0L547.5,145.1L547.2,146.4L546.4,147.3ZM545.4,148.0L545.1,148.5L544.9,148.3L544.7,148.3L544.6,148.0L544.7,147.3L544.4,146.6L544.8,146.6L544.9,146.8L545.0,146.9L545.4,147.6ZM520.0,135.7L519.9,135.9L519.6,136.1L519.3,136.1L519.4,135.9L519.3,135.8L519.1,135.8L518.8,136.0L518.4,136.3L518.1,136.1L518.1,135.9L518.1,135.8L518.6,135.3L519.2,135.3L520.0,134.8L520.3,134.9L520.3,135.1L520.1,135.3L520.1,135.5ZM511.9,92.5L511.6,92.6L511.3,92.6L511.2,92.3L511.6,91.8L511.8,91.3L511.6,91.1L511.3,90.8L511.3,90.4L511.5,89.6L511.8,89.7L512.1,90.0L512.2,90.6L512.4,91.1L512.0,91.7ZM505.4,95.9L505.2,96.1L504.5,95.7L504.6,95.2L504.5,95L504.3,94.7L504.2,94.5L504.3,94.2L504.7,94.6L505.0,95.1L505.3,95.7ZM534.5,161.9L534.0,162.1L534.4,161.6L535.4,160.6L535.8,160.8L536.3,160.8L535.5,161.3L534.8,161.5ZM528.8,159.8L528.5,160.4L528.1,160.3L527.4,159.6L527.5,159.1L527.5,159.0L527.8,158.9L528.6,159.1L528.8,159.5ZM517.5,160.7L518.5,160.9L519.0,160.9L519.2,161.1L518.6,161.6L517.5,161.2L517.3,160.8ZM531.7,124.6L531.8,124.9L532.1,125.3L532.0,125.7L531.8,125.8L531.9,126.0L532.1,126.2L531.8,126.3L531.6,126.2L531.3,126.4L531.1,126.6L530.4,126.7L530.2,126.5L529.1,126.3L528.3,125.8L528.2,125.6L529.7,125L530.3,124.8L530.8,124.8L531.5,124.6ZM374.9,145.9L374.4,145.9L373.6,145.2L373.4,145.0L373.7,144.8L373.9,144.8L374.9,145.3L375.1,145.5ZM364.0,133.0L364.2,133.8L363.6,133.2L363.6,132.8L363.5,132.6L363.1,132.3L362.8,131.9L362.6,130.9L362.7,130.8L363.0,130.7L364.2,132.0L364.2,132.2L364.2,132.6L364.1,132.7ZM362.8,130.5L362.4,131.0L361.7,130.9L361.6,130.7L361.6,130.0L361.4,129.8L361.4,129.7L361.6,129.3L361.7,129.2L362.8,130.2ZM360.7,128.3L360.8,128.4L359.9,127.9L359.4,127.8L359.0,127.2L359.1,127.0L359.2,126.6L359.2,126.5L359.5,126.4L359.9,126.7L360.1,127.3L360.6,127.9ZM353.0,118.1L352.6,118.4L352.1,118.1L352.3,117.8L352.4,117.3L352.7,116.9L352.8,116.4L352.2,115.1L352.5,115.1L352.7,115.2L353.1,116.1L353.5,116.6L353.3,117.3ZM341.8,101.9L341.5,102.0L341.1,101.8L340.8,101.5L339.3,100.6L338.9,100.6L338.5,100.3L338.1,100.3L337.7,99.6L337.6,99.3L337.9,99.1L338.1,98.8L338.6,98.9L339.2,99.5L339.8,99.8L339.9,99.9L340.2,100.2L341.6,101.0L341.7,101.3L341.8,101.6ZM485.1,145.7L484.8,145.8L484.1,145.2L483.8,144.6L483.9,144.3L484.1,144.1L484.2,144.0L484.1,143.7L484.4,143.6L484.7,143.6L484.9,144.0L485.1,144.1L485.2,144.4ZM491.7,121.7L491.8,122.1L491.6,122.4L491.8,122.9L492.4,122.2L492.9,122.1L493.2,122.2L493.4,122.3L493.6,122.6L493.3,123.2L493.0,123.5L492.5,123.6L492.3,123.2L492.0,123.2L491.8,124.0L491.7,124.1L491.5,124.2L491.2,124.0L491.2,123.9L491.5,123.5L491.3,122.5L491.1,122.6L490.4,123.6L489.9,124.0L489.7,123.8L489.4,123.2L489.5,122.3L490.0,121.8L490.3,121.8L491.4,121.6ZM484.1,117.4L484.4,117.7L484.2,118.0L484.0,117.9L483.5,117.9L483.3,117.9L483.1,118.1L482.9,118.1L483.0,117.8L483.5,117.4L483.7,117.5ZM476.6,150.5L476.4,151.4L476.3,151.1L476.2,150.2L476.1,149.8L476.2,149.3L476.2,148.1L476.3,147.6L476.7,148.3L476.7,148.6ZM447.8,154.3L447.3,154.4L446.9,154.2L446.9,153.9L447.0,153.7L447.6,153.5L448.0,153.5L448.4,153.7L448.6,153.9L448.7,154.1L448.0,154.1ZM453.0,136.8L451.8,137.9L451.6,137.6L451.7,136.5L451.4,135.9L451.4,135.4L451.6,134.5L451.9,133.9L452.6,133.4L452.8,133.4L452.7,134.2L452.9,134.5L452.9,134.7L452.8,135.0L453.0,136.0L453.1,136.2L452.9,136.6ZM490.2,176.6L489.7,176.6L489.5,176.6L489.5,176.1L489.6,175.8L490.8,175.4L491.3,175.1L492.0,174.4L492.4,174.2L492.5,174.1L492.6,174.2L492.6,174.7L492.8,175.0L492.8,175.2L492.2,175.4L491.7,176.0L490.5,176.4ZM497.7,162.0L497.3,162.3L497.1,162.9L496.9,163.1L496.5,163.2L496.2,162.6L495.7,162.6L495.9,162.1L496.2,161.9L496.5,161.9L496.6,162.1L496.7,162.2L497.4,161.3L497.6,161.3L497.7,161.3L497.8,161.4ZM495.7,161.7L494.9,161.8L494.4,162.5L494.0,162.5L493.8,162.8L493.8,162.9L493.8,163.1L493.7,163.2L493.6,163.3L493.2,163.1L492.9,163.4L492.8,163.4L492.3,163.1L491.9,163.2L491.8,163.1L492.3,162.6L493.0,162.1L493.1,161.9L492.9,161.9L492.7,161.8L492.7,161.7L493.1,161.6L493.4,161.6L493.7,161.8L493.9,161.8L494.8,161.2L495.2,161.3L495.5,161.5ZM492.3,162.1L492.1,162.4L490.6,162.3L490.7,162.0L491.1,161.7L491.2,161.5L491.7,161.4L492.4,161.6ZM556.1,151.9L555.8,152.0L555.7,151.5L555.9,151.4L556.2,151.7ZM380.8,109.3L380.8,109.6L380.5,109.5L380.2,109.1L380.4,108.9L380.6,108.8L380.7,109.1ZM383.1,110.7L383.1,110.8L382.6,110.5L382.6,110.3L382.6,110.1L382.9,110.4ZM385.4,110.5L385.0,110.6L384.6,110.1L384.6,110.0L384.6,109.9L384.7,109.9L385.0,110.1L385.3,110.2ZM387.9,114.8L387.9,114.9L387.7,114.8L387.5,114.7L387.4,114.6L386.8,113.8L387.1,113.9L387.7,114.6ZM396.8,97.4L396.8,97.8L396.4,97.6L396.4,97.2L396.5,97.0L396.8,97.1ZM393.9,99.1L393.7,99.1L393.6,98.9L393.6,98.7L393.6,98.4L393.5,98.3L393.5,98.0L393.7,98.1L393.9,98.3L394.1,98.4L394.2,98.4L394.3,98.5L394.2,98.9ZM411.4,98.9L411.1,99.2L410.9,99.0L411.3,98.4L411.4,98.3ZM411.8,124.2L411.1,124.5L410.9,123.9L411.4,123.8L411.8,123.9ZM403.5,131.4L403.3,131.5L403.1,131.4L403.1,131.2L403.2,131.0L403.5,131.0L403.6,131.1ZM400.2,132.0L400.1,132.1L399.8,132.0L399.6,131.9L399.4,131.7L399.4,131.6L399.7,131.4L400.3,131.6ZM442.4,155.2L442.3,155.4L442.0,155.4L441.7,155.0L441.9,154.9L442.0,154.9L442.2,154.9ZM432.9,147.8L432.8,148.0L432.2,147.9L432.1,147.7L432.5,147.3L432.7,147.3L432.9,147.4ZM391.1,152.4L390.7,152.5L390.4,152.4L390.3,152.3L390.7,151.9L390.9,151.8L391.1,151.8L391.2,152.0ZM346.7,103.5L346.7,103.6L346.1,103.0L345.4,102.7L345.7,102.6L346.2,102.7L346.5,102.8L346.7,103.1ZM335.6,82.5L335.5,82.7L335.2,82.6L334.8,82.1L335.0,82.0L335.2,82.0L335.6,82.2L335.7,82.4ZM493.8,124.7L493.4,124.7L493.2,124.6L493.2,123.7L493.4,123.6L493.6,123.6L493.6,123.8L493.7,124.1L493.9,124.3ZM491.8,138.2L491.3,138.9L490.9,138.8L490.4,138.4L490.3,137.9L490.3,137.7L490.6,137.5L491.7,137.6L491.9,137.8ZM495.2,126.1L495.3,126.3L495.0,126.3L494.8,125.9L494.9,125.7ZM491.3,125.3L490.9,125.8L490.9,125.5L491.0,125.3L491.1,125.2L491.3,125.1ZM470.7,164.3L470.5,164.4L470.2,164.3L470.3,163.8L470.2,163.4L470.4,163.2L470.5,162.7L470.6,162.5L470.7,162.7L470.8,162.8L470.9,162.8L471.1,162.8L471.2,163.0L471.2,163.2L471.1,163.4L470.8,163.7L470.6,163.9ZM468.5,161.5L468.2,161.5L468.2,161.2L468.3,161.0L468.5,160.9L468.6,160.9L468.8,161.1L468.8,161.2L468.7,161.4ZM449.1,164.5L448.9,164.7L448.5,164.3L448.4,164.2L448.7,163.9L448.8,163.9L449.1,164.1ZM460.5,91.8L461.0,91.8L461.8,91.7L462.0,92.2L462.0,92.4L461.0,92.7L460.4,92.0ZM460.6,96.8L460.5,96.9L460.0,96.5L459.9,96.2L459.9,95.9L460.4,95.9L460.7,96.0ZM496.4,148.7L496.3,148.9L496.1,148.6L495.9,148.5L495.9,148.1L496.2,148.3ZM494.0,144.7L494.0,145.3L493.8,145.3L493.6,145.1L493.5,144.9L493.5,144.7L493.6,144.6ZM478.0,155.1L477.4,155.2L477.3,155.1L477.2,154.6L477.9,154.8L478.1,154.8ZM460.0,162.2L459.8,162.2L459.6,162.1L459.7,161.8L459.6,161.5L459.6,161.1L459.9,161.0L460.6,160.9L460.6,161.2ZM453.6,134.6L453.4,135.5L453.1,135.0L453.5,134.3L453.7,134.2ZM515.0,110.7L514.8,110.9L514.6,110.8L514.5,110.6L514.5,110.4L514.7,110.3L514.9,110.4ZM554.2,127.0L554.0,127.1L554.0,126.9L554.1,126.6L554.2,126.5L554.3,126.5L554.5,126.6ZM549.7,138.9L550.0,139.3L549.3,139.0L548.4,138.5L548.3,138.2L549.1,138.7ZM534.8,119.5L534.6,119.8L534.4,120.0L532.0,120.3L532.2,120.1L532.3,119.9L532.4,119.8L532.7,119.8L532.8,119.8L532.9,119.7L533.0,119.8L533.3,119.7L533.7,119.7L534.3,119.7L534.2,119.4ZM533.2,118.1L532.9,118.1L532.3,117.9L532.6,117.7L532.9,117.6L533.0,117.5L533.1,117.5L533.4,117.6L533.5,117.8ZM527.2,116.2L526.9,116.2L526.7,115.9L526.2,115.5L525.8,114.9L527.1,115.9ZM515.4,115.2L515.4,115.3L515.2,115.1L515.1,115.0L515.2,114.4L515.3,114.3L515.4,114.8ZM515.3,111.5L515.0,111.6L515.0,111.6L514.9,111.4L515.0,111.0L515.3,111.0L515.4,111.0L515.4,111.3ZM514.6,119.5L514.5,119.6L513.9,119.5L513.8,119.4L514.1,118.6L514.3,118.6L514.6,119.4ZM522.5,135.0L522.5,135.3L522.5,135.3L522.2,135.3L522.0,135.3L521.8,134.8L521.8,134.7L522.2,134.9L522.4,134.9ZM521.6,135.2L520.7,135.5L520.9,135.0L521.0,134.8L521.5,135.0ZM511.3,93.4L511.3,93.7L511.0,93.1L510.9,92.5L511.1,92.7L511.4,93.2ZM512.1,94.0L512.0,94.1L511.8,93.9L511.6,93.8L511.7,93.6L511.8,93.5L512.1,93.8L512.1,93.9ZM504.0,100.3L503.9,100.4L503.7,99.7L503.9,99.4L504.1,99.5L504.2,99.7L504.0,100.0ZM540.8,155.6L540.7,155.9L540.5,155.7L540.3,155.4L539.9,155.4L539.7,155.3L539.5,155.1L540.5,155.0ZM522.3,155.5L522.0,155.6L521.6,155.3L521.5,155.2L521.7,154.9L522.0,154.8L522.2,155.0L522.3,155.1L522.2,155.2ZM515.2,158.0L514.9,158.1L515.0,157.7L515.0,157.4L515.6,157.5L515.6,157.7L515.5,157.8ZM492.8,173.2L492.3,173.4L492.3,173.0L492.7,172.4L493.0,172.2L493.2,172.5L493.3,172.6L492.7,172.7ZM484.2,174.8L483.9,174.9L483.3,174.7L483.2,174.6L483.7,174.3L484.1,174.0L484.6,173.9L484.9,174.0L484.8,174.5ZM556.7,151.3L556.6,151.3L556.6,151.0L556.7,150.8L556.9,150.7L557.1,150.6ZM555.9,153.0L555.8,153.1L555.7,153.0L555.6,152.8L555.8,152.5L556.0,152.3L556.2,152.3L556.2,152.6ZM518.4,131.6L518.1,132.1L517.7,132.0L517.6,132.0L518.2,131.7ZM516.3,133.7L516.4,134.0L515.9,133.8L515.6,133.6L515.9,133.4L516.0,133.4ZM490.4,163.2L490.2,163.5L489.9,163.4L489.9,163.1L490.1,162.9L490.5,162.6L491.0,162.6L491.3,162.7L491.3,162.8L490.6,162.9Z" fill="#4ECDC4" stroke="#2C3E50" stroke-width="1"/></g><circle cx="400.0" cy="150.0" r="4" fill="#E74C3C" stroke="#fff" stroke-width="2"/><text x="400.0" y="140.0" text-anchor="middle" font-family="sans-serif" font-weight="700" font-size="10" fill="#2D3436">Jakarta</text></svg>