<svg viewBox="0 0 800 300" xmlns="http://www.w3.org/2000/svg"><defs><clipPath id="v"><rect width="800" height="300"/></clipPath></defs><rect width="800" height="300" fill="#DCEEF8"/><g clip-path="url(#v)"><path d="M842,-1387L850,-1427L880,-1431L906,-1390L941,-1348L974,-1307L922,-1265L911,-1191L893,-1172L883,-1095L858,-1091L813,-1148L832,-1182L801,-1210L761,-1297L745,-1384L801,-1426L812,-1385ZM1171,-569L1136,-546L1120,-541L1128,-582L1102,-606L1070,-585L1060,-542L1040,-517L1018,-531L991,-528L968,-558L956,-543L943,-541L940,-503L901,-512L895,-481L875,-481L862,-443L841,-385L809,-315L817,-298L809,-279L789,-280L776,-236L777,-177L790,-155L783,-106L766,-78L757,-54L743,-79L702,-33L675,-24L646,-44L639,-87L632,-185L651,-213L706,-251L747,-300L784,-369L834,-470L869,-512L925,-585L971,-611L1005,-608L1036,-660L1074,-657L1111,-669L1175,-623L1149,-607ZM1095,-1432L1065,-1369L1005,-1356L944,-1374L940,-1406L910,-1408L888,-1463L952,-1498L982,-1468L1002,-1506L1055,-1474ZM1040,-1193L994,-1154L957,-1176L971,-1201L959,-1233L1002,-1254L1010,-1216Z" fill="#E0E0E0" stroke="#fff" stroke-width=".4"/><path d="M-436,-1787L-403,-1836L-367,-1887L-295,-1879L-268,-1945L-195,-1963L-153,-1959L-112,-1954L-71,-1948L-30,-1940L38,-1871L99,-1803L61,-1742L-18,-1735L-74,-1729L-129,-1720L-119,-1693L-46,-1710L16,-1659L56,-1704L74,-1651L51,-1570L103,-1621L152,-1650L204,-1677L266,-1649L277,-1589L233,-1542L193,-1496L181,-1467L115,-1446L163,-1440L139,-1356L122,-1285L123,-1172L148,-1111L116,-1107L82,-1079L120,-1032L125,-961L102,-954L129,-886L83,-881L107,-850L101,-825L71,-814L43,-813L69,-766L69,-735L28,-763L17,-745L45,-728L72,-688L80,-636L43,-624L27,-649L2,-685L9,-642L-15,-610L39,-607L68,-604L12,-552L-44,-507L-104,-487L-127,-487L-148,-466L-177,-410L-221,-374L-236,-372L-263,-359L-293,-347L-310,-317L-311,-283L-321,-253L-355,-216L-347,-182L-356,-146L-366,-105L-395,-102L-426,-136L-467,-137L-487,-160L-501,-203L-537,-259L-547,-290L-550,-334L-579,-380L-571,-418L-585,-436L-565,-500L-534,-521L-525,-545L-521,-591L-545,-570L-556,-562L-574,-553L-600,-572L-601,-613L-593,-646L-574,-647L-532,-631L-567,-671L-586,-693L-606,-684L-624,-700L-601,-762L-613,-788L-629,-838L-654,-918L-681,-949L-680,-983L-736,-1033L-780,-1039L-835,-1035L-885,-1029L-909,-1057L-945,-1113L-891,-1142L-849,-1147L-893,-1161L-938,-1172L-984,-1212L-981,-1252L-943,-1277L-903,-1302L-866,-1329L-827,-1355L-820,-1396L-875,-1439L-857,-1488L-823,-1533L-786,-1579L-756,-1593L-764,-1656L-715,-1695L-652,-1719L-588,-1720L-566,-1673L-511,-1757L-462,-1699L-433,-1688L-390,-1641L-439,-1720Z" fill="#E0E0E0" stroke="#fff" stroke-width=".4"/><path d="M-537,1371L-550,1390L-556,1406L-564,1413L-574,1415L-577,1409L-581,1408L-588,1414L-597,1409L-591,1401L-589,1391L-586,1382L-594,1370L-596,1356L-585,1338L-578,1340L-563,1345L-541,1363ZM657,279L667,287L696,293L686,314L683,336L678,341L668,339L669,346L654,363L654,377L663,372L671,385L670,394L676,405L669,414L674,436L685,440L683,452L664,468L623,461L593,470L591,487L567,490L544,478L536,484L498,471L490,460L501,443L505,385L483,353L468,338L437,326L434,303L461,296L496,305L489,269L509,282L557,258L563,231L581,224L584,236L594,236L603,249L618,265L628,262L646,277L651,279ZM710,482L723,472L727,496L720,517L710,512L706,493Z" fill="#E0E0E0" stroke="#fff" stroke-width=".4"/><path d="M757,-54L766,-78L783,-106L790,-155L777,-177L776,-236L789,-280L809,-279L817,-298L809,-315L841,-385L862,-443L875,-481L895,-481L901,-512L940,-503L943,-541L956,-543L983,-515L1015,-477L1016,-395L1023,-375L987,-361L967,-326L970,-297L938,-259L898,-219L883,-157L897,-127L917,-104L898,-58L877,-49L869,16L857,51L832,48L820,77L797,79L790,44L773,1Z" fill="#E0E0E0" stroke="#fff" stroke-width=".4"/><path d="M1186,193L1193,194L1198,186L1205,188L1226,185L1239,204L1234,210L1236,221L1252,222L1260,237L1259,243L1285,254L1301,249L1314,264L1326,264L1357,274L1357,284L1348,300L1353,317L1350,328L1330,330L1319,339L1318,352L1302,354L1288,364L1269,366L1251,377L1252,393L1249,392L1246,386L1240,385L1225,379L1220,386L1217,383L1185,375L1183,364L1164,368L1156,384L1141,406L1131,401L1121,406L1112,400L1117,397L1121,387L1127,377L1125,372L1130,370L1132,374L1144,375L1149,372L1145,369L1147,365L1140,357L1137,345L1129,340L1131,329L1121,321L1113,320L1098,310L1084,313L1079,318L1070,318L1065,325L1050,328L1043,333L1033,325L1020,325L1007,322L998,328L997,320L985,311L989,299L995,291L1000,293L994,278L1013,252L1023,248L1025,239L1015,210L1025,209L1036,200L1052,199L1073,202L1096,210L1112,210L1120,215L1128,209L1133,217L1152,215L1160,219L1161,202L1168,195Z" fill="#E0E0E0" stroke="#fff" stroke-width=".4"/><path d="M1014,130L1015,146L1021,159L1021,173L1008,180L1015,195L1015,210L1025,239L1023,248L1013,252L994,278L1000,293L995,291L975,279L961,283L951,280L939,287L928,275L920,280L918,278L909,262L894,260L892,250L878,246L874,255L863,248L865,239L849,236L839,226L831,204L832,193L827,175L820,163L826,154L821,136L835,126L867,109L893,97L914,103L915,112L935,112L961,116L999,116L1009,120Z" fill="#E0E0E0" stroke="#fff" stroke-width=".4"/><path d="M880,321L878,333L867,333L871,340L864,360L860,365L842,365L831,372L814,370L785,362L780,352L760,357L757,363L745,358L734,358L725,352L728,345L727,339L734,337L744,346L747,338L765,339L780,334L790,335L796,341L798,336L795,316L803,312L810,297L825,307L837,295L844,292L860,302L870,300L879,306L878,310Z" fill="#E0E0E0" stroke="#fff" stroke-width=".4"/><path d="M985,311L997,320L998,328L986,335L976,355L963,376L947,381L934,380L918,388L910,392L893,387L878,374L871,370L867,360L864,360L871,340L867,333L878,333L880,321L890,329L898,332L915,328L917,322L925,321L935,316L937,318L947,314L952,307L959,305L981,315Z" fill="#E0E0E0" stroke="#fff" stroke-width=".4"/><path d="M1112,400L1121,406L1131,401L1141,406L1141,414L1131,420L1125,417L1119,452L1107,449L1092,438L1067,445L1057,452L1027,451L1011,446L1003,449L997,437L993,432L998,427L993,423L986,430L974,421L973,409L960,402L958,393L947,381L963,376L976,355L986,335L998,328L1007,322L1020,325L1033,325L1043,333L1050,328L1065,325L1070,318L1079,318L1085,321L1092,330L1098,343L1110,361L1111,374L1108,387Z" fill="#E0E0E0" stroke="#fff" stroke-width=".4"/><path d="M1076,69L1078,86L1061,97L1057,117L1034,131L1014,130L1009,120L999,116L997,107L999,97L990,91L968,85L964,54L988,43L1022,45L1043,41L1045,49L1056,52Z" fill="#E0E0E0" stroke="#fff" stroke-width=".4"/><path d="M1093,-0L1103,9L1104,27L1111,49L1089,63L1076,69L1056,52L1045,49L1043,41L1022,45L988,43L964,54L965,26L975,2L994,-11L1011,18L1027,17L1031,-12L1049,-19L1058,-15L1076,-0Z" fill="#E0E0E0" stroke="#fff" stroke-width=".4"/><path d="M821,136L826,154L820,163L827,175L832,193L831,204L839,226L830,229L825,225L819,232L805,238L797,246L782,253L786,263L788,276L798,284L810,297L803,312L795,316L798,336L796,341L790,335L780,334L765,339L747,338L744,346L734,337L727,339L705,330L701,336L683,336L686,314L696,293L667,287L657,279L658,265L654,258L656,236L653,201L665,201L671,188L676,157L672,145L676,138L693,136L697,144L711,127L706,113L705,93L721,98L734,92L734,106L755,115L755,127L776,120L788,111L811,125Z" fill="#E0E0E0" stroke="#fff" stroke-width=".4"/><path d="M997,437L1003,449L1011,446L1027,451L1057,452L1067,445L1092,438L1107,449L1119,452L1108,464L1101,484L1107,500L1090,496L1068,505L1068,519L1050,521L1035,512L1018,519L1003,518L1002,500L991,491L995,487L993,484L996,475L1004,466L994,454L992,443Z" fill="#E0E0E0" stroke="#fff" stroke-width=".4"/><path d="M963,532L963,539L956,543L955,552L945,565L942,563L941,557L930,548L928,535L930,516L933,508L929,503L928,495L937,481L938,486L944,484L948,491L953,494L954,504L952,513L955,525Z" fill="#E0E0E0" stroke="#fff" stroke-width=".4"/><path d="M871,370L878,374L893,387L910,392L918,388L923,399L930,408L922,419L912,412L898,413L880,408L871,408L866,414L859,408L854,420L865,433L869,442L878,453L886,459L894,471L912,482L910,487L891,476L879,466L860,458L843,437L847,434L837,422L837,412L824,408L817,420L811,411L812,400L812,400L827,401L831,396L838,401L846,401L846,393L853,390L855,378Z" fill="#E0E0E0" stroke="#fff" stroke-width=".4"/><path d="M727,339L728,345L725,352L734,358L745,358L743,371L734,376L719,372L714,384L705,385L701,380L689,390L679,392L671,385L663,372L654,377L654,363L669,346L668,339L678,341L683,336L701,336L705,330Z" fill="#E0E0E0" stroke="#fff" stroke-width=".4"/><path d="M654,258L658,265L657,279L651,279L646,277L649,259Z" fill="#E0E0E0" stroke="#fff" stroke-width=".4"/><path d="M656,236L654,258L649,259L646,277L628,262L618,265L603,249L594,236L584,236L581,224L598,218L613,220L632,213L645,228Z" fill="#E0E0E0" stroke="#fff" stroke-width=".4"/><path d="M672,145L676,157L671,188L665,201L653,201L656,236L645,228L632,213L613,220L598,218L608,209L626,159L655,144Z" fill="#E0E0E0" stroke="#fff" stroke-width=".4"/><path d="M343,503L350,496L359,492L364,506L376,506L380,502L392,503L397,517L388,525L388,546L384,550L383,562L374,565L383,581L377,598L384,606L381,613L374,623L375,631L367,638L356,634L346,637L349,617L347,601L338,598L333,588L334,571L342,561L344,550L348,534L348,523L344,513Z" fill="#E0E0E0" stroke="#fff" stroke-width=".4"/><path d="M375,631L374,623L381,613L384,606L377,598L383,581L374,565L383,562L384,550L388,546L388,525L397,517L392,503L380,502L376,506L364,506L359,492L350,496L343,503L344,483L335,471L364,451L390,456L417,456L439,461L457,459L490,460L498,471L536,484L544,478L567,490L591,487L592,503L572,521L546,527L544,536L531,551L523,573L532,588L520,600L515,617L500,622L485,642L459,643L439,642L426,651L418,661L408,659L400,650L395,635Z" fill="#E0E0E0" stroke="#fff" stroke-width=".4"/><path d="M745,358L757,363L760,357L780,352L785,362L814,370L812,385L817,397L801,393L784,403L785,418L782,426L789,441L809,455L819,479L842,501L858,501L863,507L857,513L876,523L891,531L909,545L911,550L907,560L896,547L878,543L869,560L884,570L881,584L873,586L862,608L853,610L853,602L857,588L862,582L854,567L847,553L839,550L833,538L820,533L811,522L795,521L779,508L760,490L746,474L740,446L730,442L713,433L703,437L691,450L683,452L685,440L674,436L669,414L676,405L670,394L671,385L679,392L689,390L701,380L705,385L714,384L719,372L734,376L743,371ZM834,604L850,602L842,622L845,630L841,644L825,634L815,631L786,618L789,605L813,607ZM709,530L719,522L732,541L729,577L720,575L711,584L703,577L702,544L698,529Z" fill="#E0E0E0" stroke="#fff" stroke-width=".4"/><path d="M734,92L721,98L705,93L697,73L696,35L700,25L706,14L724,11L731,1L748,-10L747,10L741,22L743,33L755,38L750,52L743,48L728,75ZM785,51L791,70L779,99L757,79L754,63Z" fill="#E0E0E0" stroke="#fff" stroke-width=".4"/><path d="M401,132L386,125L373,125L377,106L373,87L390,86L412,108ZM465,148L465,148L468,128L455,106L454,106L429,99L424,90L432,73L425,63L414,81L413,45L402,26L410,-13L426,-45L442,-42L467,-45L445,-3L466,-8L489,-8L483,23L465,56L486,59L488,63L506,105L520,111L533,151L539,164L564,171L561,193L551,202L559,220L541,237L513,236L478,245L468,239L455,254L435,251L421,263L410,256L440,222L459,215L459,215L426,210L420,196L442,186L431,168L435,145Z" fill="#E0E0E0" stroke="#fff" stroke-width=".4"/><path d="M814,370L831,372L842,365L860,365L864,360L867,360L871,370L855,378L853,390L846,393L846,401L838,401L831,396L827,401L812,400L817,397L812,385Z" fill="#E0E0E0" stroke="#fff" stroke-width=".4"/><path d="M1120,-541L1117,-501L1148,-464L1129,-424L1153,-365L1139,-322L1158,-287L1149,-256L1180,-225L1172,-202L1153,-176L1109,-122L1071,-118L1035,-103L1001,-94L989,-117L969,-131L974,-173L964,-213L974,-239L993,-268L1040,-320L1054,-330L1052,-351L1023,-375L1016,-395L1015,-477L983,-515L956,-543L968,-558L991,-528L1018,-531L1040,-517L1060,-542L1070,-585L1102,-606L1128,-582Z" fill="#E0E0E0" stroke="#fff" stroke-width=".4"/><path d="M995,291L989,299L985,311L981,315L959,305L952,307L947,314L937,318L935,316L925,321L917,322L915,328L898,332L890,329L880,321L878,310L879,306L882,299L892,300L899,296L899,294L903,292L904,285L909,283L912,278L918,278L920,280L928,275L939,287L951,280L961,283L975,279Z" fill="#E0E0E0" stroke="#fff" stroke-width=".4"/><path d="M839,226L849,236L865,239L863,248L874,255L878,246L892,250L894,260L909,262L918,278L912,278L909,283L904,285L903,292L899,294L899,296L892,300L882,299L879,306L870,300L860,302L844,292L837,295L825,307L810,297L798,284L788,276L786,263L782,253L797,246L805,238L819,232L825,225L830,229Z" fill="#E0E0E0" stroke="#fff" stroke-width=".4"/><path d="M912,482L894,471L886,459L878,453L869,442L865,433L854,420L859,408L866,414L871,408L880,408L898,413L912,412L922,419L929,419L924,431L934,442L931,456L926,457L922,460L916,466Z" fill="#E0E0E0" stroke="#fff" stroke-width=".4"/><path d="M991,491L1002,500L1003,518L999,519L996,524L985,523L977,529L963,532L955,525L952,513L954,504L957,504L958,499L970,494L975,493L982,492Z" fill="#E0E0E0" stroke="#fff" stroke-width=".4"/><path d="M918,388L934,380L947,381L958,393L960,402L973,409L974,421L986,430L993,423L998,427L993,432L997,437L992,443L994,454L1004,466L996,475L993,484L995,487L991,491L982,492L975,493L974,491L977,488L979,481L976,481L972,476L969,475L966,470L962,468L959,464L955,466L952,475L948,477L949,475L941,469L935,466L932,462L926,457L931,456L934,442L924,431L929,419L922,419L930,408L923,399Z" fill="#E0E0E0" stroke="#fff" stroke-width=".4"/><path d="M944,484L938,486L937,481L928,495L929,503L925,501L919,492L910,487L912,482L916,466L922,460L926,457L932,462L935,466L941,469L949,475L948,477Z" fill="#E0E0E0" stroke="#fff" stroke-width=".4"/><path d="M954,504L953,494L948,491L944,484L948,477L952,475L955,466L959,464L962,468L966,470L969,475L972,476L976,481L979,481L977,488L974,491L975,493L970,494L958,499L957,504Z" fill="#E0E0E0" stroke="#fff" stroke-width=".4"/></g><g clip-path="url(#v)"><path d="M323.8,130.4L323.8,131.4L322.2,130.1L321.5,128.8L317.3,128.1L319.0,126.8L319.9,127.1L322.9,127.2L323.7,127.8ZM380.2,88.4L376.9,90.8L376.5,91.6L375.5,95.2L375.4,96.2L374.4,98.1L373.3,100.1L372.2,100.9L370.4,101.5L369.5,102.2L368.3,101.8L366.7,101.9L365.9,102.6L366.0,103.2L366.4,103.8L367.8,104.7L369.3,105.6L369.2,106.3L368.4,107.1L363.2,109.2L361.6,110.5L361.1,111.3L361.6,112.7L365.8,116.9L366.4,117.3L367.1,119.7L370.7,120.8L372.2,122.3L373.5,122.6L376.2,122.5L377.4,123.1L378.0,122.7L378.4,121.9L380.7,119.8L381.5,118.9L381.1,117.7L380.6,116.7L382.0,114.8L383.7,112.9L384.6,113.0L386.1,114.1L387.2,115.7L387.4,117.0L387.6,117.9L388.8,119.8L389.5,120.5L391.6,120.8L392,121.6L391.6,124.4L391.9,125.3L394.1,125.3L396.3,125.1L397.1,125.2L397.9,124.6L399.1,124.0L400.8,124.2L401.7,125.5L402.1,126.8L400.6,127.2L399.0,127.0L398.2,127.8L398.2,129.4L398.8,131.5L399.8,132.9L400.6,136.3L401.4,139.9L402.4,142.1L402.6,144.8L402.5,146.2L402.7,148.6L402.3,149.4L402.6,151.7L403.9,156.4L404.4,158.9L404.8,164.5L403.9,166.7L402.7,168.6L401.9,171.0L401.3,173.5L400.9,177.7L398.2,182.4L397.1,183.6L395.8,184.4L398.7,187.7L396.3,189.2L393.8,189.6L391.0,188.8L389.3,188.9L387.6,190.0L387.0,190.6L386.5,190.3L385.5,187.6L384.6,190.4L383.0,191.3L380.3,191.1L375.6,191.9L373.9,192.7L373.1,193.9L372.5,195.4L371.8,196.2L371.0,196.6L367.4,197.7L366.7,198.2L365.0,200.5L362.9,201.8L361.1,202.2L359.5,200.9L358.8,200.1L358.1,199.6L355.7,199.7L356.4,200.1L356.9,201.1L357.1,202.9L356.8,204.7L355.7,205.6L354.2,205.8L351.9,207.6L348.9,208.1L347.3,209.9L337.3,212.7L336.8,212.7L335.4,212.0L333.9,211.7L332.4,211.9L328.2,213.5L326.1,213.2L328.7,209.2L332.2,207.2L332.6,206.6L331.4,206.4L324.9,207.8L322.6,209.0L320.3,209.3L321.3,207.5L324.3,205.0L325.8,203.8L326.9,203.3L327.9,201.9L331.0,200.2L321.0,203.6L318.4,203.2L317.8,202.3L315.7,202.7L315.0,200.4L318.0,196.8L319.8,195.3L321.9,194.5L323.9,193.3L324.7,191.9L323.7,191.4L317.6,191.7L314.7,191.5L314.8,190.3L315.4,189.0L318.4,186.8L320.0,186.5L321.5,186.7L322.9,187.2L324.1,188.0L327.5,187.5L326.1,186.2L325.8,183.3L324.7,182.4L326.1,181.1L327.7,180.3L330.4,177.5L331.3,177.1L336.6,176.4L342.3,175.0L347.9,173.0L345.0,171.9L343.6,170.4L341.4,173.4L339.8,174.5L335.3,175.1L333.9,174.8L331.9,173.9L331.2,174.2L330.6,175.0L327.6,176.4L324.5,176.7L328.1,174.1L332.8,169.6L333.8,168.1L335.3,165.6L334.8,164.5L333.9,163.9L337.2,158.7L338.4,157.8L340.6,157.6L342.2,156.8L342.9,156.8L343.5,156.5L344.9,154.9L342.7,154.0L340.6,153.4L333.7,154.0L332.8,153.8L331.9,153.4L331.4,152.7L331.0,150.9L330.5,150.5L329.0,150.5L327.5,151.1L326.4,151.0L325.3,150.2L327.0,148.4L324.9,148.0L322.7,148.4L320.9,147.8L320.9,146.7L321.7,145.6L320.6,144.5L320.3,143.1L321.5,142.4L322.7,142.7L325.3,141.6L328.5,141.2L325.8,140.2L324.7,139.3L324.6,138.0L324.8,136.9L328.1,135.0L331.5,134.2L331.2,132.9L331.5,131.6L328.0,131.2L324.6,132.1L325.0,129.5L325.8,127.2L325.9,125.7L325.8,124.0L324.1,124.7L323.9,122.4L323.2,120.8L320.9,121.9L320.9,119.7L321.6,118.3L322.9,117.6L324.1,117.9L326.4,117.9L328.6,116.7L331.8,116.5L336.9,116.8L340.4,120.0L341.3,119.4L342.7,117.4L343.4,117.2L348.7,118.1L351.9,119.2L352.8,118.8L352.3,116.7L351.2,115.1L352.6,113.1L354.3,111.7L355.5,111.1L358.2,110.2L359.3,109.4L360.1,106.8L361.3,104.6L354.6,105.8L348.3,103.2L349.3,101.4L350.7,100.4L353.0,99.6L353.2,98.6L354.3,97.8L356.2,95.8L355.6,93.1L355.9,91.1L357.4,89.8L357.8,87.9L358.4,86.5L361.2,86L364.0,84.7L364.9,84.9L368.1,84.6L369.3,85.1L369.0,82.8L371.0,82.5L371.7,83.0L372.1,84.6L373.0,85.6L373.2,87.4L372.6,88.8L371.6,89.8L372.5,90.9L371.1,92.8L372.7,92.0L374.8,90.1L374.8,88.5L374.4,86.6L373.7,84.8L374.0,82.9L375.3,81.6L378.5,81.0L377.1,78.8L378.3,78.6L379.7,79.0L381.5,80.8L383.5,82.1L385.5,83.2L383.5,85.4L381.1,86.8Z" fill="#4ECDC4" stroke="#2C3E50" stroke-width="1"/></g><circle cx="400.0" cy="150.0" r="4" fill="#E74C3C" stroke="#fff" stroke-width="2"/><text x="400.0" y="140.0" text-anchor="middle" font-family="sans-serif" font-weight="700" font-size="10" fill="#2D3436">Dublin</text></svg>