<svg viewBox="0 0 800 300" xmlns="http://www.w3.org/2000/svg"><defs><clipPath id="v"><rect width="800" height="300"/></clipPath></defs><rect width="800" height="300" fill="#DCEEF8"/><g clip-path="url(#v)"><path d="M1814,-478L1793,-451L1771,-447L1769,-406L1754,-388L1701,-401L1681,-331L1667,-322L1613,-307L1638,-241L1619,-232L1621,-211L1605,-216L1591,-229L1551,-233L1506,-234L1496,-230L1457,-246L1442,-238L1438,-216L1393,-229L1375,-224L1369,-208L1354,-201L1318,-175L1306,-150L1296,-150L1288,-167L1254,-168L1248,-197L1235,-198L1237,-235L1205,-262L1158,-259L1126,-253L1101,-287L1078,-302L1036,-329L1031,-333L961,-310L962,-173L949,-171L930,-199L911,-210L880,-202L868,-190L867,-199L874,-214L868,-227L837,-240L825,-273L810,-283L809,-295L835,-292L836,-320L859,-326L883,-320L888,-358L883,-382L856,-380L833,-390L802,-373L776,-364L762,-371L765,-391L748,-418L728,-417L705,-444L720,-476L713,-484L734,-530L762,-506L765,-537L821,-584L864,-585L924,-555L956,-537L984,-556L1027,-556L1062,-534L1070,-547L1108,-545L1115,-565L1071,-596L1097,-617L1092,-629L1118,-641L1098,-672L1111,-688L1212,-704L1226,-715L1293,-733L1318,-752L1367,-742L1375,-694L1403,-705L1438,-689L1436,-664L1462,-667L1530,-710L1520,-696L1555,-660L1615,-548L1630,-570L1667,-546L1706,-557L1721,-549L1734,-524L1753,-516L1765,-498L1800,-504Z" fill="#E0E0E0" stroke="#fff" stroke-width=".4"/><path d="M962,-173L961,-310L1031,-333L1036,-329L1078,-302L1101,-287L1126,-253L1158,-259L1205,-262L1237,-235L1235,-198L1248,-197L1254,-168L1288,-167L1296,-150L1306,-150L1318,-175L1354,-201L1369,-208L1377,-204L1354,-180L1374,-167L1394,-176L1426,-157L1391,-131L1371,-135L1359,-134L1355,-144L1361,-160L1325,-152L1316,-129L1303,-110L1281,-111L1274,-96L1294,-87L1299,-62L1284,-27L1264,-34L1249,-34L1249,-55L1213,-70L1185,-87L1167,-104L1136,-128L1123,-165L1114,-171L1084,-170L1074,-177L1071,-206L1035,-225L1012,-204L989,-192L993,-173Z" fill="#E0E0E0" stroke="#fff" stroke-width=".4"/><path d="M111,836L90,824L81,816L79,807L83,796L83,784L68,767L65,755L65,749L55,741L55,724L49,714L39,715L42,705L49,694L46,682L55,673L49,667L57,650L69,629L92,631L91,518L91,506L123,506L123,448L232,448L337,448L444,448L453,476L447,482L451,511L461,546L471,553L486,563L472,579L453,584L444,593L441,612L430,653L433,664L428,688L417,716L401,729L389,751L386,762L374,770L366,798L366,823L366,802L362,801L362,787L359,778L345,767L342,747L345,727L333,725L331,731L314,732L321,741L323,757L308,772L295,792L281,795L258,779L248,785L245,793L231,798L230,804L203,804L199,798L180,797L170,802L163,799L149,783L144,776L124,779L117,792L110,817L101,822L92,825Z" fill="#E0E0E0" stroke="#fff" stroke-width=".4"/><path d="M91,518L92,631L69,629L57,650L49,667L55,673L46,682L49,694L42,705L39,715L49,714L55,724L55,741L65,749L65,755L47,760L34,771L14,801L-11,814L-38,812L-45,815L-43,825L-57,834L-68,845L-102,855L-109,849L-114,849L-119,856L-141,858L-137,850L-145,831L-149,820L-161,815L-177,799L-171,786L-159,789L-151,787L-136,787L-151,762L-150,744L-152,726L-162,708L-160,695L-177,694L-177,676L-188,666L-177,629L-142,602L-140,565L-130,507L-124,495L-136,485L-136,475L-146,468L-153,422L-125,406L-17,462Z" fill="#E0E0E0" stroke="#fff" stroke-width=".4"/><path d="M-153,422L-146,468L-136,475L-136,485L-124,495L-130,507L-140,565L-142,602L-177,629L-188,666L-177,676L-177,694L-160,695L-162,708L-170,709L-171,718L-176,719L-194,688L-201,687L-222,703L-243,695L-257,693L-265,697L-281,696L-297,708L-311,709L-344,694L-357,701L-371,701L-381,690L-408,680L-437,683L-444,689L-448,705L-456,716L-458,741L-478,725L-488,725L-497,733L-496,714L-528,708L-529,695L-544,676L-547,664L-545,650L-528,649L-518,639L-481,636L-457,632L-455,615L-440,596L-440,530L-401,517L-323,460L-230,404L-187,417L-172,433Z" fill="#E0E0E0" stroke="#fff" stroke-width=".4"/><path d="M416,101L409,102L406,108L397,108L407,81L420,58L421,57L433,58L437,71L423,84Z" fill="#E0E0E0" stroke="#fff" stroke-width=".4"/><path d="M405,159L392,163L393,155L400,150L393,147L399,126L409,130L409,150Z" fill="#E0E0E0" stroke="#fff" stroke-width=".4"/><path d="M409,130L413,120L443,133L497,98L508,138L502,142L448,158L475,190L466,195L462,206L441,210L435,221L423,231L393,226L392,222L405,171L405,159L409,150Z" fill="#E0E0E0" stroke="#fff" stroke-width=".4"/><path d="M843,381L848,380L849,388L870,383L893,384L909,385L928,365L948,346L965,327L970,337L974,361L960,361L958,381L963,385L951,391L950,403L943,415L942,427L936,433L855,418L845,388Z" fill="#E0E0E0" stroke="#fff" stroke-width=".4"/><path d="M823,366L821,344L828,329L836,325L844,335L844,352L838,370L831,372Z" fill="#E0E0E0" stroke="#fff" stroke-width=".4"/><path d="M746,207L751,221L749,228L758,251L738,252L732,237L708,234L727,204Z" fill="#E0E0E0" stroke="#fff" stroke-width=".4"/><path d="M508,138L497,98L557,64L567,24L564,-0L579,-9L593,-30L605,-35L636,-31L646,-22L659,-28L676,12L694,23L696,42L683,53L676,79L695,110L728,128L742,152L738,175L746,175L747,192L762,208L746,207L727,204L708,234L657,232L581,168L540,146Z" fill="#E0E0E0" stroke="#fff" stroke-width=".4"/><path d="M942,427L943,415L950,403L951,391L963,385L958,381L960,361L974,361L986,382L1001,392L1021,396L1037,402L1050,419L1057,428L1067,432L1067,439L1057,456L1052,464L1041,473L1031,493L1019,492L1013,499L1009,513L1012,533L1009,536L997,536L980,547L977,561L971,567L954,566L944,574L944,585L931,593L916,590L897,600L885,601L876,582L855,535L936,506L954,448ZM970,337L965,327L973,317L977,319L974,332Z" fill="#E0E0E0" stroke="#fff" stroke-width=".4"/><path d="M868,-190L880,-202L911,-210L930,-199L949,-171L962,-173L993,-173L989,-192L1012,-204L1035,-225L1071,-206L1074,-177L1084,-170L1114,-171L1123,-165L1136,-128L1167,-104L1185,-87L1213,-70L1249,-55L1249,-34L1240,-35L1228,-45L1223,-32L1201,-26L1195,1L1180,11L1158,17L1153,32L1132,36L1105,23L1102,-5L1082,-6L1051,-36L1029,-40L999,-57L980,-60L968,-54L950,-55L931,-35L907,-29L902,-53L906,-89L885,-101L892,-125L874,-127L880,-157L905,-148L929,-160L909,-182L902,-202L880,-193L877,-167Z" fill="#E0E0E0" stroke="#fff" stroke-width=".4"/><path d="M762,208L747,192L746,175L738,175L742,152L728,128L695,110L676,79L683,53L696,42L694,23L676,12L659,-28L644,-55L649,-66L641,-106L659,-116L664,-103L677,-86L696,-82L706,-83L738,-109L748,-111L756,-101L747,-84L764,-66L770,-67L779,-42L805,-35L823,-18L862,-12L904,-21L907,-29L931,-35L950,-55L968,-54L980,-60L999,-57L1029,-40L1051,-36L1082,-6L1102,-5L1105,23L1094,65L1086,89L1098,93L1086,111L1095,137L1097,157L1118,162L1120,183L1096,211L1109,228L1120,246L1146,260L1147,287L1160,292L1162,306L1123,322L1112,357L1061,348L1032,341L1001,337L990,300L977,294L956,300L928,314L895,304L868,281L842,272L824,243L804,201L789,206L772,196Z" fill="#E0E0E0" stroke="#fff" stroke-width=".4"/><path d="M413,120L413,120L416,115L416,101L423,84L437,71L433,58L421,57L418,31L425,18L432,10L439,3L441,-16L450,-9L480,-19L494,-12L516,-12L548,-25L562,-25L593,-30L579,-9L564,-0L567,24L557,64L497,98L443,133Z" fill="#E0E0E0" stroke="#fff" stroke-width=".4"/><path d="M706,-83L696,-82L685,-102L685,-107L673,-107L665,-117L659,-116L649,-126L629,-135L631,-152L627,-165L664,-171L670,-161L680,-155L675,-146L689,-134L682,-122L693,-113L705,-107Z" fill="#E0E0E0" stroke="#fff" stroke-width=".4"/><path d="M59,-281L67,-265L77,-268L98,-262L138,-260L151,-270L183,-279L203,-265L219,-261L205,-246L195,-219L204,-198L180,-203L153,-192L153,-174L128,-170L109,-183L87,-173L67,-174L65,-198L51,-210L56,-215L53,-219L58,-231L68,-243L55,-259L52,-272Z" fill="#E0E0E0" stroke="#fff" stroke-width=".4"/><path d="M158,35L154,45L115,48L115,42L82,36L87,22L102,33L123,31L143,33L143,39ZM67,-174L87,-173L109,-183L128,-170L153,-174L153,-192L166,-182L158,-159L151,-155L135,-156L120,-160L88,-150L106,-130L93,-125L78,-125L63,-143L58,-135L64,-114L78,-97L68,-90L83,-74L96,-64L96,-44L71,-53L79,-36L62,-32L72,-2L54,-2L32,-17L22,-44L17,-67L7,-83L-7,-103L-9,-113L4,-130L5,-141L14,-147L15,-156L32,-159L43,-167L57,-166L62,-173Z" fill="#E0E0E0" stroke="#fff" stroke-width=".4"/><path d="M659,-28L646,-22L636,-31L605,-35L593,-30L562,-25L548,-25L516,-12L494,-12L480,-19L450,-9L441,-16L439,3L432,10L425,18L415,2L425,-10L409,-7L386,-15L367,4L326,8L304,-10L275,-11L269,3L250,7L224,-11L194,-10L178,-44L158,-63L171,-90L154,-107L184,-141L226,-142L238,-170L289,-165L322,-188L353,-199L398,-199L446,-174L485,-160L516,-165L539,-162L572,-181L600,-183L627,-165L631,-152L629,-135L649,-126L659,-116L641,-106L649,-66L644,-55ZM153,-192L180,-203L204,-198L207,-184L231,-172L226,-164L194,-162L182,-151L159,-131L151,-148L151,-155L158,-159L166,-182Z" fill="#E0E0E0" stroke="#fff" stroke-width=".4"/><path d="M15,-156L14,-147L5,-141L4,-130L-9,-113L-14,-115L-14,-123L-29,-135L-32,-152L-29,-176L-26,-188L-30,-193L-32,-205L-20,-223L-18,-216L-11,-219L-5,-210L1,-206L3,-193L-0,-180L3,-165Z" fill="#E0E0E0" stroke="#fff" stroke-width=".4"/><path d="M-272,-384L-256,-378L-253,-386L-226,-393L-220,-379L-181,-369L-184,-349L-178,-333L-199,-339L-221,-325L-220,-306L-223,-295L-214,-276L-189,-257L-175,-226L-145,-196L-124,-196L-117,-188L-125,-181L-100,-168L-80,-157L-57,-139L-54,-132L-59,-119L-74,-136L-98,-142L-109,-119L-90,-106L-93,-87L-104,-85L-119,-56L-130,-53L-130,-64L-124,-82L-119,-90L-129,-110L-137,-128L-149,-132L-157,-148L-174,-154L-186,-168L-206,-171L-227,-187L-252,-211L-270,-232L-279,-269L-292,-273L-314,-286L-327,-281L-343,-263L-354,-261L-351,-277L-365,-282L-372,-311L-363,-323L-371,-337L-370,-348L-358,-340L-345,-342L-330,-355L-325,-349L-312,-350L-306,-366L-286,-361L-274,-368ZM-155,-61L-135,-64L-144,-37L-140,-27L-146,-9L-167,-22L-181,-26L-218,-43L-215,-61L-183,-57ZM-319,-158L-306,-169L-289,-144L-293,-97L-306,-99L-317,-88L-327,-97L-328,-139L-334,-160Z" fill="#E0E0E0" stroke="#fff" stroke-width=".4"/><path d="M703,-193L711,-192L729,-170L741,-167L746,-176L762,-191L776,-172L790,-146L803,-145L811,-135L789,-132L784,-105L779,-93L770,-84L770,-67L764,-66L747,-84L756,-101L748,-111L738,-109L706,-83L705,-107L693,-113L682,-122L689,-134L675,-146L680,-155L670,-161L664,-171L671,-176L691,-166L706,-164L709,-168L696,-188ZM696,-82L677,-86L664,-103L659,-116L665,-117L673,-107L685,-107L685,-102Z" fill="#E0E0E0" stroke="#fff" stroke-width=".4"/><path d="M528,-251L531,-255L554,-249L594,-243L631,-225L636,-218L652,-224L678,-216L686,-201L703,-193L696,-188L709,-168L706,-164L691,-166L671,-176L664,-171L627,-165L600,-183L572,-181L576,-197L569,-222L553,-235L538,-239Z" fill="#E0E0E0" stroke="#fff" stroke-width=".4"/><path d="M393,226L423,231L435,221L441,210L462,206L466,195L475,190L448,158L502,142L508,138L540,146L581,168L657,232L708,234L732,237L738,252L758,251L768,278L782,284L786,295L805,308L806,320L804,331L807,341L815,349L819,359L823,366L831,372L838,370L843,381L845,388L855,418L936,433L942,427L954,448L936,506L855,535L777,545L751,558L732,588L719,593L712,584L702,585L676,582L671,579L640,580L632,582L621,575L614,589L617,601L605,610L601,598L593,589L591,578L577,568L563,544L555,521L536,501L524,496L506,468L503,448L504,431L489,398L476,386L461,380L452,363L454,356L446,341L438,334L428,312L411,287L397,266L384,266L388,249L389,238Z" fill="#E0E0E0" stroke="#fff" stroke-width=".4"/><path d="M332,40L334,40L338,32L358,33L382,23L364,37L366,43L363,42L358,44L354,44L352,45L352,42L350,40L345,39L337,42Z" fill="#E0E0E0" stroke="#fff" stroke-width=".4"/><path d="M332,40L337,42L345,39L350,40L352,42L352,45L354,44L358,44L363,42L366,43L367,46L339,59L326,55L319,42Z" fill="#E0E0E0" stroke="#fff" stroke-width=".4"/><path d="M444,448L337,448L232,448L123,448L123,338L123,230L114,205L121,185L117,172L127,156L163,156L189,164L216,174L229,179L250,169L261,159L285,157L304,161L311,177L318,166L339,174L361,175L374,168L389,213L392,222L384,234L378,257L371,273L365,279L355,269L343,255L324,211L321,213L332,246L349,277L369,325L379,341L388,358L413,391L407,396L408,415L440,442Z" fill="#E0E0E0" stroke="#fff" stroke-width=".4"/><path d="M123,448L123,506L91,506L91,518L-17,462L-125,406L-153,422L-172,433L-187,417L-230,404L-242,386L-263,372L-276,377L-286,361L-287,348L-303,326L-292,313L-294,294L-291,278L-293,264L-288,238L-290,224L-298,196L-285,189L-283,176L-286,163L-267,150L-259,140L-245,131L-244,106L-212,117L-201,114L-178,120L-142,134L-129,163L-105,169L-67,182L-38,198L-25,189L-12,175L-18,151L-9,135L10,120L29,116L65,122L75,137L85,137L93,142L120,146L127,156L117,172L121,185L114,205L123,230L123,338Z" fill="#E0E0E0" stroke="#fff" stroke-width=".4"/><path d="M51,-210L65,-198L67,-174L62,-173L57,-166L43,-167L32,-159L15,-156L3,-165L-0,-180L3,-193L6,-192L8,-200L24,-205L30,-207L39,-209Z" fill="#E0E0E0" stroke="#fff" stroke-width=".4"/><path d="M-11,-219L-18,-216L-20,-223L-32,-205L-30,-193L-36,-196L-43,-208L-55,-215L-52,-222L-48,-242L-39,-251L-34,-254L-27,-248L-23,-243L-14,-239L-4,-231L-6,-228Z" fill="#E0E0E0" stroke="#fff" stroke-width=".4"/><path d="M3,-193L1,-206L-5,-210L-11,-219L-6,-228L0,-230L4,-243L9,-245L13,-240L18,-237L21,-231L26,-230L31,-223L35,-223L32,-214L29,-210L30,-207L24,-205L8,-200L6,-192Z" fill="#E0E0E0" stroke="#fff" stroke-width=".4"/></g><g clip-path="url(#v)"><path d="M417.3,96.5L416.8,98.5L416.5,99.8L416.5,101.5L417.0,102.4L417.8,104.2L418.3,106.1L417.3,107.6L417.4,109.2L417.7,110.5L418.5,112.1L417.0,114.9L415.5,117.5L415.1,119.1L413.7,119.2L410.3,120.7L409.9,121.2L409.3,122.1L409.2,122.8L408.7,130.0L406.9,129.8L404.6,128.2L404.2,126.8L403.6,126.4L402,126.2L399.0,125.5L395.6,127.9L394.1,131.8L393.7,133.6L392.5,137.5L393.0,139.9L393.2,142.9L393.5,145.4L393.2,146.9L392.5,147.7L392.7,148.3L393.3,148.5L395.2,147.9L397.2,148.5L399.2,149.8L399.3,150.6L397.9,151.1L394.7,153.1L392.4,155.3L391.8,157.4L390.3,161.9L390.5,162.8L391.3,163.3L396.5,162.8L401.2,161.1L404.8,159.1L406.0,159.3L405.2,164.2L404.6,167.1L404.8,167.7L405.7,170.3L404.1,175.0L402.5,178.9L401.8,180.7L400.1,184.8L398.5,189.5L397.6,192.7L397.8,193.9L397.3,199.8L397.6,201.5L395.7,206.6L395.2,209.2L394.4,212.6L393.0,219.9L391.2,222.2L390.2,219.5L388.1,211.8L386.6,206.5L384.5,199.9L381.0,191.9L380.7,190.0L379.9,187.2L377.5,179.9L375.5,174.6L373.3,167.9L376.1,165.2L376.1,162.9L380.9,157.8L380.8,157.3L379.5,155.9L379.7,155.7L385.0,146.0L388.4,136.4L391.6,122.9L393.9,116.1L395.8,111.5L396.7,107.8L399.9,107.5L402.1,107.9L404.9,108.1L407.2,106.6L408.2,102.4L409.5,101.7L410.1,102.7L410.8,101.6L413.7,99.7L415.1,98.5L416.5,97.0Z" fill="#4ECDC4" stroke="#2C3E50" stroke-width="1"/></g><circle cx="400.0" cy="150.0" r="4" fill="#E74C3C" stroke="#fff" stroke-width="2"/><text x="400.0" y="140.0" text-anchor="middle" font-family="sans-serif" font-weight="700" font-size="10" fill="#2D3436">Jerusalem</text></svg>