<svg viewBox="0 0 800 300" xmlns="http://www.w3.org/2000/svg"><defs><clipPath id="v"><rect width="800" height="300"/></clipPath></defs><rect width="800" height="300" fill="#DCEEF8"/><g clip-path="url(#v)"><path d="M920,-108L910,-95L900,-94L900,-76L893,-67L869,-73L860,-42L854,-38L830,-31L841,-2L833,2L834,12L826,9L820,3L802,2L782,1L778,3L761,-4L754,-1L752,9L732,4L724,6L721,13L714,16L698,27L693,39L689,39L685,31L670,31L667,18L662,17L662,1L648,-11L627,-10L613,-7L601,-23L592,-29L573,-41L571,-43L539,-33L540,29L534,29L525,17L517,12L503,15L498,21L497,17L500,10L498,4L484,-1L479,-16L472,-20L471,-26L483,-24L484,-37L494,-40L505,-37L507,-54L505,-65L492,-64L482,-68L468,-61L457,-57L451,-60L452,-69L444,-81L435,-80L425,-93L432,-106L428,-110L438,-131L451,-120L452,-134L477,-155L496,-155L523,-142L537,-134L550,-142L569,-142L584,-133L588,-138L605,-137L608,-147L588,-160L600,-170L598,-175L609,-180L601,-194L606,-201L651,-208L657,-213L687,-221L698,-230L720,-225L724,-204L737,-209L752,-202L751,-190L763,-192L793,-211L789,-205L804,-189L831,-139L837,-149L854,-138L871,-143L878,-139L884,-128L892,-124L898,-116L913,-119Z" fill="#E0E0E0" stroke="#fff" stroke-width=".4"/><path d="M540,29L539,-33L571,-43L573,-41L592,-29L601,-23L613,-7L627,-10L648,-11L662,1L662,17L667,18L670,31L685,31L689,39L693,39L698,27L714,16L721,13L725,15L715,25L724,31L732,27L747,36L731,47L722,46L717,46L715,42L718,34L702,38L698,48L692,57L682,56L679,63L688,67L690,78L683,94L674,90L668,90L668,81L652,74L639,67L631,59L617,49L611,32L607,29L594,30L590,27L588,14L572,5L562,15L552,20L554,28Z" fill="#E0E0E0" stroke="#fff" stroke-width=".4"/><path d="M366,599L359,589L359,544L369,531L373,527L380,527L391,518L407,518L441,481L449,471L455,463L455,457L455,444L455,439L455,439L459,439L464,437L471,436L477,432L481,432L481,435L480,442L480,449L478,453L474,466L469,480L461,496L451,513L440,527L426,544L414,553L396,565L385,575L371,589L369,596Z" fill="#E0E0E0" stroke="#fff" stroke-width=".4"/><path d="M160,478L151,473L147,469L146,466L148,460L148,455L141,448L140,443L140,440L135,436L135,429L133,424L128,425L130,420L133,415L131,410L135,406L133,403L136,395L141,386L152,387L151,337L151,331L165,331L165,305L214,305L261,305L309,305L313,318L310,320L312,334L316,349L321,352L328,357L321,364L313,366L309,370L308,378L302,397L304,402L302,413L297,425L289,431L284,440L283,445L277,449L274,462L274,473L274,463L272,463L272,457L271,453L265,448L263,439L265,430L259,429L258,432L251,432L254,436L255,443L248,450L242,459L236,460L226,453L221,456L220,459L214,461L213,464L201,464L200,461L191,461L187,463L183,462L177,455L175,452L166,453L163,459L160,470L156,472L152,474Z" fill="#E0E0E0" stroke="#fff" stroke-width=".4"/><path d="M151,337L152,387L141,386L136,395L133,403L135,406L131,410L133,415L130,420L128,425L133,424L135,429L135,436L140,440L140,443L132,445L126,450L117,463L106,469L94,468L91,469L92,473L85,478L80,482L65,487L62,484L60,484L58,487L48,488L50,485L46,476L44,471L39,469L32,462L34,456L40,458L43,457L50,457L43,446L44,437L43,429L38,421L40,415L32,415L32,407L27,403L32,386L47,374L48,358L53,332L55,326L50,322L50,318L46,314L43,294L55,287L103,312Z" fill="#E0E0E0" stroke="#fff" stroke-width=".4"/><path d="M997,-1185L1023,-1203L1047,-1164L1075,-1095L1072,-1036L1045,-1029L1012,-1047L992,-1071L982,-1120L966,-1134ZM1107,-1062L1137,-1026L1134,-1001L1099,-991L1066,-978L1088,-1059L1098,-1066ZM1542,-882L1574,-880L1618,-854L1608,-819L1564,-820L1544,-809L1520,-839L1526,-873ZM1656,-843L1686,-831L1672,-813L1653,-817L1630,-835L1633,-851ZM1555,-755L1566,-771L1581,-775L1598,-759L1600,-748L1582,-748L1557,-752ZM405,-1153L429,-1166L447,-1167L450,-1147L457,-1165L468,-1177L486,-1161L481,-1149L465,-1140L454,-1134L453,-1122L439,-1111L425,-1128L432,-1150ZM138,-208L116,-207L101,-210L104,-219L120,-226L133,-222L138,-219L137,-213ZM510,-771L539,-810L536,-831L563,-856L603,-888L643,-898L664,-917L687,-924L696,-903L688,-887L645,-862L608,-839L570,-795L552,-753L533,-714L536,-681L559,-650L552,-647L512,-652L509,-668L487,-679L485,-699L498,-708L497,-730L521,-766ZM1592,-195L1596,-175L1595,-156L1600,-136L1613,-103L1595,-109L1587,-83L1599,-65L1599,-52L1590,-63L1582,-49L1579,-64L1581,-81L1579,-101L1582,-115L1583,-140L1576,-159L1577,-187L1588,-196L1583,-206L1588,-208ZM-2314,-589L-2314,-589L-2284,-563L-2253,-532L-2254,-513L-2246,-505L-2248,-527L-2216,-523L-2192,-494L-2204,-481L-2224,-478L-2224,-451L-2229,-445L-2240,-446L-2249,-455L-2266,-464L-2268,-476L-2281,-481L-2294,-477L-2301,-487L-2298,-498L-2313,-491L-2307,-477L-2314,-465L-2314,-465L-2314,-589ZM2040,-465L2040,-465L2024,-453L2009,-455L2020,-440L2027,-417L2032,-410L2034,-399L2031,-392L2008,-398L1974,-378L1964,-376L1945,-358L1928,-343L1923,-332L1906,-349L1874,-329L1869,-338L1857,-328L1841,-331L1837,-316L1823,-293L1823,-284L1837,-279L1835,-247L1824,-246L1819,-228L1824,-219L1803,-208L1798,-185L1780,-180L1777,-160L1759,-141L1755,-155L1750,-184L1743,-230L1749,-260L1759,-273L1760,-284L1778,-289L1800,-318L1821,-343L1843,-363L1852,-399L1838,-397L1830,-375L1800,-348L1790,-379L1759,-370L1728,-329L1738,-314L1711,-308L1693,-306L1693,-323L1675,-326L1660,-315L1623,-319L1583,-312L1544,-267L1497,-216L1516,-213L1522,-200L1534,-196L1542,-206L1555,-205L1573,-182L1573,-165L1564,-146L1563,-123L1557,-93L1539,-67L1535,-55L1518,-35L1502,-15L1494,-6L1478,4L1471,4L1463,-4L1447,8L1445,14L1445,14L1443,11L1443,3L1449,2L1451,-18L1448,-32L1458,-38L1473,-35L1481,-52L1485,-71L1490,-78L1496,-94L1476,-89L1466,-82L1447,-82L1442,-99L1428,-112L1407,-118L1403,-136L1398,-148L1394,-156L1386,-176L1376,-184L1358,-190L1342,-189L1327,-186L1317,-176L1323,-171L1323,-160L1317,-154L1306,-133L1306,-125L1289,-113L1274,-120L1260,-119L1253,-125L1246,-127L1229,-114L1213,-111L1201,-106L1186,-109L1175,-109L1168,-118L1156,-127L1144,-130L1128,-127L1117,-124L1100,-132L1097,-146L1083,-151L1072,-154L1059,-162L1046,-141L1051,-130L1039,-117L1022,-122L1010,-123L1002,-131L989,-132L979,-137L960,-129L937,-112L924,-109L920,-108L913,-119L898,-116L892,-124L884,-128L878,-139L871,-143L854,-138L837,-149L831,-139L804,-189L789,-205L793,-211L763,-192L751,-190L752,-202L737,-209L724,-204L720,-225L698,-230L687,-221L657,-213L651,-208L606,-201L601,-194L609,-180L598,-175L600,-170L588,-160L608,-147L605,-137L588,-138L584,-133L569,-142L550,-142L537,-134L523,-142L496,-155L477,-155L452,-134L451,-120L438,-131L428,-110L432,-106L425,-93L435,-80L444,-81L452,-69L451,-60L457,-57L451,-47L440,-44L428,-26L439,-10L437,1L451,21L443,27L441,31L436,30L428,20L424,20L417,16L413,9L402,6L394,8L392,5L376,-3L358,-5L348,-8L346,-6L331,-20L317,-27L307,-37L315,-40L325,-54L319,-61L336,-68L336,-72L325,-69L326,-77L332,-82L344,-84L346,-90L343,-100L348,-109L348,-115L330,-121L323,-121L315,-130L306,-127L291,-133L291,-137L287,-145L277,-146L276,-152L279,-156L271,-167L259,-165L255,-166L252,-162L247,-163L244,-175L242,-182L244,-184L254,-183L258,-188L255,-193L247,-197L247,-200L243,-204L235,-218L238,-223L236,-233L225,-239L218,-236L217,-241L204,-247L200,-260L199,-270L193,-276L198,-283L195,-304L203,-318L201,-322L215,-335L203,-347L228,-379L240,-394L244,-407L226,-425L231,-443L220,-464L228,-489L214,-524L226,-547L207,-569L209,-592L219,-595L239,-609L252,-621L271,-600L305,-592L350,-555L360,-540L360,-519L347,-503L327,-495L273,-518L264,-514L284,-492L285,-478L286,-449L301,-441L311,-434L312,-447L305,-459L313,-470L342,-452L352,-459L344,-480L372,-509L383,-508L395,-497L402,-518L392,-536L397,-555L389,-576L422,-565L429,-547L414,-543L414,-526L424,-515L442,-522L445,-542L470,-557L513,-585L522,-584L510,-563L525,-560L534,-571L556,-572L574,-586L588,-566L602,-588L589,-608L595,-619L631,-609L648,-598L692,-560L700,-577L687,-595L687,-602L673,-605L677,-622L670,-650L670,-662L692,-696L700,-733L709,-741L741,-730L743,-708L732,-676L740,-664L743,-638L741,-591L754,-570L749,-549L725,-505L739,-500L744,-511L757,-519L760,-534L771,-549L764,-568L769,-590L756,-592L753,-611L763,-647L747,-678L769,-704L766,-732L772,-733L778,-711L774,-673L787,-666L781,-694L801,-709L826,-712L849,-689L838,-722L837,-766L858,-775L887,-773L913,-779L903,-802L917,-832L931,-834L955,-857L987,-864L991,-878L1022,-882L1032,-871L1059,-898L1082,-897L1085,-920L1097,-943L1125,-966L1146,-948L1129,-934L1157,-926L1160,-900L1171,-912L1206,-912L1234,-886L1243,-868L1240,-842L1227,-828L1195,-803L1186,-790L1201,-783L1219,-772L1230,-781L1236,-753L1241,-764L1261,-771L1300,-764L1303,-744L1353,-738L1354,-770L1379,-763L1399,-763L1418,-741L1424,-715L1417,-698L1432,-668L1451,-653L1463,-692L1482,-675L1503,-685L1526,-674L1535,-684L1555,-679L1546,-715L1562,-733L1618,-722L1671,-707L1681,-684L1713,-655L1762,-662L1786,-656L1796,-641L1795,-615L1810,-605L1826,-612L1847,-613L1870,-606L1893,-610L1914,-580L1929,-590L1919,-612L1925,-628L1963,-618L1988,-620L2023,-604L2040,-589L2040,-465ZM2040,-655L2027,-653L2025,-664L2040,-680L2040,-655ZM-2314,-680L-2314,-680L-2314,-680L-2313,-682L-2302,-682L-2285,-671L-2286,-666L-2298,-657L-2314,-655L-2314,-655L-2314,-680ZM267,-49L271,-54L279,-50L283,-49L285,-46L286,-45L287,-44L292,-40L305,-41L302,-35L289,-32L273,-22L266,-25L269,-33L255,-38L258,-42L269,-47Z" fill="#E0E0E0" stroke="#fff" stroke-width=".4"/><path d="M-762,528L-769,539L-773,548L-777,552L-783,553L-785,550L-787,549L-791,553L-797,550L-793,545L-792,540L-790,534L-795,527L-796,519L-790,508L-786,510L-777,513L-764,523ZM-62,-112L-56,-107L-39,-104L-45,-91L-47,-79L-50,-75L-56,-77L-55,-73L-64,-63L-64,-55L-58,-57L-54,-50L-55,-45L-51,-38L-55,-33L-52,-20L-46,-18L-47,-11L-58,-1L-82,-6L-100,-0L-101,10L-115,12L-129,4L-133,8L-155,0L-160,-6L-154,-16L-151,-50L-164,-69L-173,-78L-191,-85L-193,-98L-177,-102L-157,-97L-160,-118L-149,-110L-121,-125L-117,-140L-107,-144L-105,-137L-99,-137L-94,-129L-85,-121L-79,-122L-68,-113L-66,-112ZM-31,7L-23,1L-21,15L-25,27L-31,24L-34,13Z" fill="#E0E0E0" stroke="#fff" stroke-width=".4"/><path d="M-276,426L-276,423L-277,418L-281,414L-284,407L-284,399L-280,397L-278,390L-274,389L-266,393L-259,390L-254,391L-253,389L-204,388L-201,380L-203,378L-209,323L-215,266L-197,266L-156,295L-115,323L-112,329L-105,333L-99,335L-99,343L-85,342L-85,371L-92,380L-93,387L-104,389L-120,391L-125,395L-132,396L-140,396L-143,393L-150,395L-161,400L-164,404L-173,410L-175,413L-180,415L-185,414L-189,417L-191,425L-200,435L-200,440L-203,445L-202,452L-207,454L-210,455L-212,450L-216,452L-218,451L-220,455L-229,455L-233,453L-234,454L-238,451L-237,447L-239,445L-241,447L-241,443L-238,439L-243,434L-245,431L-247,428L-250,428L-253,430L-257,431L-260,434L-265,433L-269,430L-271,429L-274,431L-276,431Z" fill="#E0E0E0" stroke="#fff" stroke-width=".4"/><path d="M-343,318L-341,314L-293,314L-296,295L-293,288L-281,287L-282,253L-242,254L-242,233L-197,266L-215,266L-209,323L-203,378L-201,380L-204,388L-253,389L-254,391L-259,390L-266,393L-274,389L-278,390L-280,397L-284,399L-292,391L-300,382L-308,378L-313,375L-320,375L-326,377L-332,376L-336,380L-337,374L-334,367L-332,355L-334,343L-335,336L-334,330L-337,324Z" fill="#E0E0E0" stroke="#fff" stroke-width=".4"/><path d="M-104,502L-114,504L-117,495L-117,467L-119,465L-120,459L-124,454L-128,451L-126,444L-122,443L-120,438L-114,436L-111,433L-107,429L-103,429L-93,436L-94,440L-91,448L-93,452L-92,456L-98,463L-102,467L-104,475L-104,483Z" fill="#E0E0E0" stroke="#fff" stroke-width=".4"/><path d="M43,294L46,314L50,318L50,322L55,326L53,332L48,358L47,374L32,386L27,403L32,407L32,415L40,415L38,421L35,422L35,426L32,426L24,413L21,412L12,419L2,415L-4,415L-8,416L-15,416L-22,421L-28,422L-43,415L-48,418L-55,418L-59,413L-71,409L-84,410L-87,413L-89,420L-93,425L-93,436L-103,429L-107,429L-111,433L-111,424L-125,421L-125,415L-132,407L-133,402L-132,396L-125,395L-120,391L-104,389L-93,387L-92,380L-85,371L-85,342L-68,336L-33,311L8,286L27,292L34,299Z" fill="#E0E0E0" stroke="#fff" stroke-width=".4"/><path d="M-104,502L-104,483L-104,475L-102,467L-98,463L-92,456L-93,452L-91,448L-94,440L-93,436L-93,425L-89,420L-87,413L-84,410L-71,409L-59,413L-55,418L-48,418L-43,415L-28,422L-22,421L-15,416L-8,416L-4,415L2,415L12,419L21,412L24,413L32,426L35,426L39,431L38,433L37,437L27,447L24,455L22,461L20,464L17,472L11,477L9,484L6,488L5,494L-3,498L-10,493L-15,493L-22,500L-25,500L-31,512L-34,520L-47,525L-51,524L-56,527L-66,527L-72,519L-76,510L-85,502L-94,502Z" fill="#E0E0E0" stroke="#fff" stroke-width=".4"/><path d="M38,421L43,429L44,437L43,446L50,457L43,457L40,458L34,456L32,462L39,469L44,471L46,476L50,485L48,488L42,500L39,503L38,512L39,517L38,521L44,527L45,532L49,538L55,542L55,547L57,551L56,557L46,554L36,551L21,551L20,550L12,552L5,550L-1,551L-20,551L-19,541L-23,533L-29,531L-31,525L-34,524L-34,520L-31,512L-25,500L-22,500L-15,493L-10,493L-3,498L5,494L6,488L9,484L11,477L17,472L20,464L22,461L24,455L27,447L37,437L38,433L39,431L35,426L35,422Z" fill="#E0E0E0" stroke="#fff" stroke-width=".4"/><path d="M-126,444L-128,451L-124,454L-120,459L-119,465L-117,467L-117,495L-114,504L-124,506L-127,502L-130,494L-131,488L-128,477L-131,473L-133,463L-133,454L-138,448L-137,444Z" fill="#E0E0E0" stroke="#fff" stroke-width=".4"/><path d="M-137,444L-138,448L-133,454L-133,463L-131,473L-128,477L-131,488L-130,494L-127,502L-124,506L-143,513L-150,518L-161,521L-172,518L-171,513L-176,502L-173,489L-168,478L-171,461L-173,452L-173,445L-152,444L-146,445L-142,443Z" fill="#E0E0E0" stroke="#fff" stroke-width=".4"/><path d="M-234,454L-233,453L-229,455L-220,455L-218,451L-216,452L-212,450L-210,455L-207,454L-202,452L-197,455L-195,459L-189,461L-185,458L-180,458L-171,461L-168,478L-173,489L-176,502L-171,513L-172,518L-177,518L-186,515L-193,516L-208,518L-216,521L-228,526L-230,525L-229,515L-228,514L-229,509L-234,504L-238,503L-241,500L-238,494L-240,488L-239,485L-237,485L-236,480L-237,477L-236,476L-232,474L-235,464L-238,459L-237,455Z" fill="#E0E0E0" stroke="#fff" stroke-width=".4"/><path d="M-202,452L-203,445L-200,440L-200,435L-191,425L-189,417L-185,414L-180,415L-175,413L-173,410L-164,404L-161,400L-150,395L-143,393L-140,396L-132,396L-133,402L-132,407L-125,415L-125,421L-111,424L-111,433L-114,436L-120,438L-122,443L-126,444L-137,444L-142,443L-146,445L-152,444L-173,445L-173,452L-171,461L-180,458L-185,458L-189,461L-195,459L-197,455Z" fill="#E0E0E0" stroke="#fff" stroke-width=".4"/><path d="M194,515L190,516L182,516L173,514L169,516L167,518L163,519L158,516L145,522L139,521L138,522L134,529L125,527L116,526L108,521L98,517L92,521L87,527L86,536L78,535L70,533L63,539L57,551L55,547L55,542L49,538L45,532L44,527L38,521L39,517L38,512L39,503L42,500L48,488L58,487L60,484L62,484L65,487L80,482L85,478L92,473L91,469L94,468L106,469L117,463L126,450L132,445L140,443L141,448L148,455L148,460L146,466L147,469L151,473L160,478L167,483L167,487L175,494L180,499L183,506L192,511Z" fill="#E0E0E0" stroke="#fff" stroke-width=".4"/><path d="M295,159L293,164L289,162L286,171L289,173L286,175L285,178L291,177L291,182L285,204L284,201L277,180L281,176L280,175L283,168L286,157L287,154L288,154L292,154L293,151L296,151L296,157L295,159Z" fill="#E0E0E0" stroke="#fff" stroke-width=".4"/><path d="M296,151L293,151L292,154L288,154L292,142L298,131L298,131L304,132L306,137L299,143Z" fill="#E0E0E0" stroke="#fff" stroke-width=".4"/><path d="M291,177L285,178L286,175L289,173L286,171L289,162L293,164L293,172Z" fill="#E0E0E0" stroke="#fff" stroke-width=".4"/><path d="M-22,193L-27,168L-35,162L-35,159L-45,150L-46,139L-39,131L-36,119L-38,104L-35,97L-22,91L-14,92L-14,100L-4,94L-3,97L-9,105L-9,112L-5,115L-6,128L-14,136L-12,144L-6,144L-3,151L2,153L1,164L-5,168L-8,173L-17,178L-15,184L-16,190Z" fill="#E0E0E0" stroke="#fff" stroke-width=".4"/><path d="M-242,233L-242,231L-242,230L-242,214L-222,203L-210,201L-200,197L-196,190L-182,185L-181,174L-174,173L-169,168L-153,166L-151,160L-154,157L-158,142L-159,133L-163,123L-152,115L-139,113L-131,106L-119,102L-99,99L-79,98L-73,100L-61,94L-48,94L-43,98L-35,97L-38,104L-36,119L-39,131L-46,139L-45,150L-35,159L-35,162L-27,168L-22,193L-18,205L-18,212L-20,223L-19,229L-21,237L-20,245L-24,251L-17,261L-17,267L-12,274L-7,272L3,278L8,286L-33,311L-68,336L-85,342L-99,343L-99,335L-105,333L-112,329L-115,323L-156,295L-197,266Z" fill="#E0E0E0" stroke="#fff" stroke-width=".4"/><path d="M293,164L295,159L308,165L332,149L337,167L335,169L311,176L323,190L319,193L317,197L307,199L304,204L299,209L286,206L285,204L291,182L291,177L293,172Z" fill="#E0E0E0" stroke="#fff" stroke-width=".4"/><path d="M487,276L489,275L489,279L499,277L509,277L516,277L525,268L534,260L541,252L543,256L545,267L539,267L538,275L540,277L535,280L535,285L531,291L531,296L528,299L492,292L487,279Z" fill="#E0E0E0" stroke="#fff" stroke-width=".4"/><path d="M478,269L477,259L480,252L483,251L487,255L487,263L485,271L481,272Z" fill="#E0E0E0" stroke="#fff" stroke-width=".4"/><path d="M443,198L446,204L445,207L449,218L440,218L437,211L426,210L435,197Z" fill="#E0E0E0" stroke="#fff" stroke-width=".4"/><path d="M531,296L531,291L535,285L535,280L540,277L538,275L539,267L545,267L551,276L557,281L566,282L573,285L579,292L582,297L586,298L586,301L582,309L580,313L575,317L570,326L565,325L562,328L560,335L562,343L561,345L555,345L548,349L546,356L544,358L536,358L531,361L532,367L526,370L519,369L511,373L505,374L501,365L492,344L528,331L536,305ZM543,256L541,252L545,247L546,248L545,254Z" fill="#E0E0E0" stroke="#fff" stroke-width=".4"/><path d="M1074,326L1067,329L1060,334L1051,335L1046,349L1041,351L1047,362L1054,371L1059,380L1055,391L1051,393L1054,399L1062,409L1063,416L1063,422L1067,433L1061,445L1055,457L1054,448L1058,439L1053,432L1054,418L1050,412L1046,397L1043,381L1038,370L1030,377L1016,386L1010,385L1002,382L1006,366L1004,354L994,339L996,335L989,333L980,323L979,312L984,314L984,305L990,302L989,296L991,292L992,278L1001,281L1007,270L1007,264L1014,252L1014,245L1029,235L1038,238L1037,229L1041,227L1040,222L1047,221L1051,229L1057,232L1057,242L1056,253L1045,265L1044,280L1056,278L1059,290L1067,293L1063,304L1072,309L1078,311L1086,307L1087,313L1076,321Z" fill="#E0E0E0" stroke="#fff" stroke-width=".4"/><path d="M924,-109L937,-112L960,-129L979,-137L989,-132L1002,-131L1010,-123L1022,-122L1039,-117L1051,-130L1046,-141L1059,-162L1072,-154L1083,-151L1097,-146L1100,-132L1117,-124L1128,-127L1144,-130L1156,-127L1168,-118L1175,-109L1186,-109L1201,-106L1213,-111L1229,-114L1246,-127L1253,-125L1260,-119L1274,-120L1268,-106L1260,-88L1263,-80L1270,-83L1282,-80L1291,-87L1301,-81L1312,-68L1310,-62L1301,-64L1283,-62L1275,-57L1266,-45L1247,-38L1235,-29L1223,-33L1216,-34L1210,-23L1214,-17L1216,-11L1207,-6L1198,3L1184,9L1166,10L1147,15L1133,24L1127,19L1113,19L1095,9L1083,7L1067,9L1042,5L1028,6L1021,-4L1016,-20L1008,-22L994,-32L977,-35L963,-38L959,-45L963,-65L955,-80L938,-87L928,-96Z" fill="#E0E0E0" stroke="#fff" stroke-width=".4"/><path d="M1040,222L1041,227L1037,229L1038,238L1029,235L1014,245L1014,252L1007,264L1007,270L1001,281L992,278L991,292L989,296L990,302L984,305L977,284L974,284L972,292L966,286L969,278L975,277L980,266L973,264L962,264L951,262L950,253L944,252L934,246L930,255L939,263L931,267L928,272L936,276L934,284L938,294L940,305L938,309L930,309L915,312L916,322L909,329L892,338L878,353L869,361L857,369L857,375L851,378L840,383L835,383L831,393L833,409L834,419L829,431L829,452L823,453L817,462L821,466L810,470L806,478L801,481L789,470L784,453L779,440L775,435L768,423L765,407L763,399L752,382L747,358L744,341L744,326L741,314L724,321L715,320L700,304L705,299L702,294L688,283L696,274L722,274L720,263L713,256L712,246L704,240L717,225L731,226L744,212L751,198L763,184L763,174L773,165L763,158L759,149L755,136L761,129L779,133L793,131L804,118L817,136L816,148L821,155L821,162L812,160L815,176L827,185L844,195L836,201L832,214L843,219L855,226L871,234L887,236L894,242L903,244L918,247L928,247L929,241L928,233L929,227L936,224L937,235L937,237L948,243L956,240L966,241L976,241L977,233L972,228L982,227L993,216L1007,208L1017,211L1026,205L1031,214L1027,219Z" fill="#E0E0E0" stroke="#fff" stroke-width=".4"/><path d="M984,305L984,314L979,312L980,323L977,316L976,309L974,303L969,295L958,295L959,300L955,307L950,305L948,307L945,306L940,305L938,294L934,284L936,276L928,272L931,267L939,263L930,255L934,246L944,252L950,253L951,262L962,264L973,264L980,266L975,277L969,278L966,286L972,292L974,284L977,284Z" fill="#E0E0E0" stroke="#fff" stroke-width=".4"/><path d="M972,228L977,233L976,241L966,241L956,240L948,243L937,237L937,235L945,225L952,221L960,224L967,225Z" fill="#E0E0E0" stroke="#fff" stroke-width=".4"/><path d="M929,227L928,233L929,241L928,247L918,247L903,244L894,242L887,236L871,234L855,226L843,219L832,214L836,201L844,195L849,192L859,196L871,205L878,207L882,214L891,216L901,222L915,226Z" fill="#E0E0E0" stroke="#fff" stroke-width=".4"/><path d="M804,118L793,131L779,133L761,129L755,136L759,149L763,158L773,165L763,174L763,184L751,198L744,212L731,226L717,225L704,240L712,246L713,256L720,263L722,274L696,274L688,283L679,280L675,270L666,260L643,263L624,263L607,265L611,249L629,242L628,236L622,234L622,222L610,216L605,207L599,200L620,207L632,205L639,207L641,204L650,205L665,199L666,187L673,179L682,179L683,175L692,173L697,175L701,171L701,162L706,153L714,150L709,140L720,141L724,135L723,130L729,123L728,116L725,110L732,103L745,100L759,98L765,96L772,94L781,101L785,112Z" fill="#E0E0E0" stroke="#fff" stroke-width=".4"/><path d="M668,90L674,90L683,94L687,95L696,91L700,94L704,87L711,87L713,85L714,78L719,73L726,77L725,81L728,82L727,95L732,100L736,97L742,95L749,88L757,89L770,89L772,94L765,96L759,98L745,100L732,103L725,110L728,116L729,123L723,130L724,135L720,141L709,140L714,150L706,153L701,162L701,171L697,175L692,173L683,175L682,179L673,179L666,187L665,199L650,205L641,204L639,207L632,205L620,207L599,200L610,187L609,178L600,176L599,167L595,155L600,147L595,145L598,135L603,116L616,122L625,120L627,113L637,111L644,106L646,94L656,91L658,86L664,90Z" fill="#E0E0E0" stroke="#fff" stroke-width=".4"/><path d="M683,94L690,78L688,67L679,63L682,56L692,57L698,48L702,38L718,34L715,42L717,46L722,46L717,50L704,48L703,57L716,56L731,61L754,58L757,73L761,71L768,75L768,81L770,89L757,89L749,88L742,95L736,97L732,100L727,95L728,82L725,81L726,77L719,73L714,78L713,85L711,87L704,87L700,94L696,91L687,95Z" fill="#E0E0E0" stroke="#fff" stroke-width=".4"/><path d="M721,13L724,6L732,4L752,9L754,-1L761,-4L778,3L782,1L802,2L820,3L826,9L834,12L832,15L813,24L809,31L793,32L789,43L776,41L767,44L756,51L758,55L754,58L731,61L716,56L703,57L704,48L717,50L722,46L731,47L747,36L732,27L724,31L715,25L725,15Z" fill="#E0E0E0" stroke="#fff" stroke-width=".4"/><path d="M498,21L503,15L517,12L525,17L534,29L540,29L554,28L552,20L562,15L572,5L588,14L590,27L594,30L607,29L611,32L617,49L631,59L639,67L652,74L668,81L668,90L664,90L658,86L656,91L646,94L644,106L637,111L627,113L625,120L616,122L603,116L602,103L593,103L579,90L570,88L556,80L548,79L542,82L534,81L526,90L515,93L513,82L515,66L505,61L508,50L500,49L503,36L514,39L525,34L516,25L513,15L503,20L502,31Z" fill="#E0E0E0" stroke="#fff" stroke-width=".4"/><path d="M450,199L444,191L444,184L440,184L442,173L436,163L421,155L412,141L415,129L421,124L420,116L412,111L404,93L398,81L400,76L396,58L405,54L407,60L413,67L421,69L425,69L440,57L444,56L448,61L444,68L451,76L454,76L458,87L470,90L478,98L495,100L514,96L515,93L526,90L534,81L542,82L548,79L556,80L570,88L579,90L593,103L602,103L603,116L598,135L595,145L600,147L595,155L599,167L600,176L609,178L610,187L599,200L605,207L610,216L622,222L622,234L628,236L629,242L611,249L607,265L584,261L571,258L557,256L552,239L546,237L537,239L525,246L510,241L498,231L486,227L478,214L469,195L463,198L455,193Z" fill="#E0E0E0" stroke="#fff" stroke-width=".4"/><path d="M295,159L295,159L296,157L296,151L299,143L306,137L304,132L298,131L297,120L300,114L303,110L307,107L307,99L311,102L325,97L331,100L341,100L355,94L361,95L375,92L369,102L362,106L364,116L359,134L332,149L308,165Z" fill="#E0E0E0" stroke="#fff" stroke-width=".4"/><path d="M425,69L421,69L416,60L416,58L411,58L407,54L405,54L400,49L391,45L392,38L390,32L407,30L409,34L414,37L412,41L418,46L415,51L420,55L425,58Z" fill="#E0E0E0" stroke="#fff" stroke-width=".4"/><path d="M204,-247L217,-241L218,-236L225,-239L236,-233L238,-223L235,-218L243,-204L247,-200L247,-197L255,-193L258,-188L254,-183L244,-184L242,-182L244,-175L247,-163L237,-162L233,-157L233,-147L228,-149L217,-148L214,-153L209,-150L205,-152L195,-153L182,-157L169,-159L160,-158L153,-153L148,-152L147,-161L144,-170L151,-174L151,-182L148,-190L147,-199L159,-199L172,-207L175,-219L185,-225L183,-235L191,-238Z" fill="#E0E0E0" stroke="#fff" stroke-width=".4"/><path d="M247,-163L252,-162L255,-166L259,-165L271,-167L279,-156L276,-152L277,-146L287,-145L291,-137L291,-133L306,-127L315,-130L323,-121L330,-121L348,-115L348,-109L343,-100L346,-90L344,-84L332,-82L326,-77L325,-69L316,-68L308,-62L296,-61L286,-55L286,-45L285,-46L283,-49L279,-50L271,-54L267,-49L266,-51L247,-56L246,-62L235,-60L230,-50L221,-38L216,-41L210,-38L204,-41L208,-43L210,-49L213,-54L212,-58L215,-59L216,-57L223,-56L226,-57L224,-59L225,-62L220,-66L219,-74L214,-77L215,-83L210,-88L205,-88L196,-94L188,-92L185,-89L180,-89L177,-85L168,-83L164,-81L158,-85L150,-85L143,-87L138,-83L137,-88L130,-93L132,-100L136,-105L138,-104L135,-112L146,-128L152,-130L154,-136L148,-152L153,-153L160,-158L169,-159L182,-157L195,-153L205,-152L209,-150L214,-153L217,-148L228,-149L233,-147L233,-157L237,-162Z" fill="#E0E0E0" stroke="#fff" stroke-width=".4"/><path d="M147,-199L148,-190L151,-182L151,-174L144,-170L147,-161L148,-152L154,-136L152,-130L146,-128L135,-112L138,-104L136,-105L124,-112L116,-110L110,-112L103,-108L97,-114L92,-112L91,-113L85,-122L76,-123L75,-129L67,-131L65,-126L59,-130L59,-135L50,-137L45,-143L40,-156L41,-162L38,-173L33,-180L37,-186L34,-196L42,-202L61,-212L76,-219L88,-215L89,-210L101,-210L116,-207L138,-208L144,-205Z" fill="#E0E0E0" stroke="#fff" stroke-width=".4"/><path d="M68,-88L67,-80L61,-80L63,-76L59,-65L57,-62L46,-61L40,-57L30,-59L13,-63L10,-70L-2,-66L-3,-63L-11,-66L-17,-66L-22,-69L-21,-74L-21,-77L-17,-78L-11,-73L-10,-78L1,-77L10,-80L16,-79L19,-76L21,-79L19,-91L23,-93L27,-101L36,-95L43,-103L47,-104L57,-99L63,-100L68,-96L67,-94Z" fill="#E0E0E0" stroke="#fff" stroke-width=".4"/><path d="M130,-93L137,-88L138,-83L130,-79L125,-67L117,-55L108,-52L100,-53L91,-48L86,-46L76,-49L67,-57L63,-59L61,-65L59,-65L63,-76L61,-80L67,-80L68,-88L74,-83L79,-81L89,-83L90,-87L95,-87L101,-90L102,-89L108,-91L111,-96L115,-97L128,-91Z" fill="#E0E0E0" stroke="#fff" stroke-width=".4"/><path d="M185,-89L188,-92L196,-94L205,-88L210,-88L215,-83L214,-77L219,-74L220,-66L225,-62L224,-59L226,-57L223,-56L216,-57L215,-59L212,-58L213,-54L210,-49L208,-43L204,-41L202,-49L204,-56L203,-64L196,-75L192,-82L189,-88Z" fill="#E0E0E0" stroke="#fff" stroke-width=".4"/><path d="M204,-41L210,-38L216,-41L221,-38L221,-33L215,-30L212,-31L208,-11L201,-13L192,-19L178,-15L172,-10L154,-11L145,-14L140,-13L137,-20L135,-23L138,-25L135,-28L131,-24L124,-29L123,-36L115,-40L114,-45L108,-52L117,-55L125,-67L130,-79L138,-83L143,-87L150,-85L158,-85L164,-81L168,-83L177,-85L180,-89L185,-89L189,-88L192,-82L196,-75L203,-64L204,-56L202,-49Z" fill="#E0E0E0" stroke="#fff" stroke-width=".4"/><path d="M183,-235L185,-225L175,-219L172,-207L159,-199L147,-199L144,-205L138,-208L137,-213L138,-219L133,-222L120,-226L118,-244L131,-250L152,-249L164,-251L165,-247L172,-245Z" fill="#E0E0E0" stroke="#fff" stroke-width=".4"/><path d="M34,-196L37,-186L33,-180L38,-173L41,-162L40,-156L45,-143L39,-141L36,-144L33,-140L24,-136L20,-131L11,-127L13,-122L14,-114L21,-109L27,-101L23,-93L19,-91L21,-79L19,-76L16,-79L10,-80L1,-77L-10,-78L-11,-73L-17,-78L-21,-77L-34,-82L-36,-78L-47,-79L-45,-91L-39,-104L-56,-107L-62,-112L-61,-120L-64,-125L-63,-138L-65,-158L-57,-158L-54,-165L-51,-183L-53,-190L-51,-195L-41,-196L-39,-191L-31,-201L-33,-209L-34,-221L-25,-218L-17,-221L-17,-213L-5,-208L-5,-201L8,-205L14,-211L28,-202Z" fill="#E0E0E0" stroke="#fff" stroke-width=".4"/><path d="M137,-20L140,-13L145,-14L154,-11L172,-10L178,-15L192,-19L201,-13L208,-11L202,-4L198,8L202,17L191,15L179,20L179,28L168,30L159,24L150,29L141,28L140,17L134,12L136,10L134,8L136,3L141,-3L135,-10L134,-16Z" fill="#E0E0E0" stroke="#fff" stroke-width=".4"/><path d="M181,121L179,126L162,127L162,124L147,122L150,115L156,120L166,119L175,120L174,123ZM141,28L150,29L159,24L168,30L179,28L179,20L185,25L181,35L178,36L171,36L164,34L150,39L158,47L152,50L145,50L139,42L137,45L139,55L145,62L141,66L148,73L154,77L154,86L143,82L146,90L138,91L143,105L135,105L125,98L121,86L118,76L114,69L107,60L107,55L112,48L113,43L117,40L117,36L125,35L130,31L136,31L138,29Z" fill="#E0E0E0" stroke="#fff" stroke-width=".4"/><path d="M404,93L399,96L394,92L380,90L375,92L361,95L355,94L341,100L331,100L325,97L311,102L307,99L307,107L303,110L300,114L296,107L300,101L293,102L283,99L275,108L256,109L246,101L233,101L231,107L222,109L211,101L197,101L190,86L181,77L187,65L180,58L193,43L212,42L217,30L240,32L254,22L268,17L288,17L309,28L327,34L341,32L351,33L366,25L378,24L390,32L392,38L391,45L400,49L405,54L396,58L400,76L398,81ZM179,20L191,15L202,17L203,24L214,29L211,33L197,34L192,38L182,47L178,40L178,36L181,35L185,25Z" fill="#E0E0E0" stroke="#fff" stroke-width=".4"/><path d="M117,36L117,40L113,43L112,48L107,55L105,54L104,51L98,45L97,38L98,27L99,22L97,19L96,14L102,6L102,9L106,8L108,12L111,14L112,20L110,25L112,32Z" fill="#E0E0E0" stroke="#fff" stroke-width=".4"/><path d="M63,-59L67,-57L76,-49L86,-46L91,-48L94,-42L98,-37L93,-30L87,-34L79,-34L69,-37L63,-36L60,-33L56,-37L53,-30L59,-22L62,-16L68,-10L72,-6L77,1L87,7L86,10L75,3L68,-2L57,-7L47,-20L49,-21L43,-28L43,-34L35,-37L32,-29L28,-35L28,-41L29,-41L37,-41L40,-44L44,-41L48,-40L48,-45L53,-47L54,-54Z" fill="#E0E0E0" stroke="#fff" stroke-width=".4"/><path d="M-21,-77L-21,-74L-22,-69L-17,-66L-11,-66L-12,-58L-17,-55L-26,-58L-29,-51L-34,-50L-36,-53L-43,-47L-49,-46L-54,-50L-58,-57L-64,-55L-64,-63L-55,-73L-56,-77L-50,-75L-47,-79L-36,-78L-34,-82Z" fill="#E0E0E0" stroke="#fff" stroke-width=".4"/><path d="M-64,-125L-61,-120L-62,-112L-66,-112L-68,-113L-67,-124Z" fill="#E0E0E0" stroke="#fff" stroke-width=".4"/><path d="M-63,-138L-64,-125L-67,-124L-68,-113L-79,-122L-85,-121L-94,-129L-99,-137L-105,-137L-107,-144L-97,-148L-88,-146L-77,-150L-69,-142Z" fill="#E0E0E0" stroke="#fff" stroke-width=".4"/><path d="M-53,-190L-51,-183L-54,-165L-57,-158L-65,-158L-63,-138L-69,-142L-77,-150L-88,-146L-97,-148L-91,-153L-80,-182L-64,-191Z" fill="#E0E0E0" stroke="#fff" stroke-width=".4"/><path d="M-227,94L-228,89L-224,84L-222,79L-226,75L-223,65L-228,55L-222,54L-222,47L-220,44L-220,32L-214,27L-218,19L-225,19L-227,21L-234,21L-237,13L-242,15L-246,19L-246,8L-251,1L-234,-11L-219,-8L-202,-9L-190,-6L-180,-7L-160,-6L-155,0L-133,8L-129,4L-115,12L-101,10L-100,19L-112,30L-127,33L-128,39L-136,47L-140,60L-136,69L-143,76L-145,86L-154,89L-163,101L-178,101L-190,101L-197,106L-202,112L-208,110L-212,105L-216,97Z" fill="#E0E0E0" stroke="#fff" stroke-width=".4"/><path d="M852,487L850,500L845,503L835,506L829,496L827,479L832,459L841,466L846,474Z" fill="#E0E0E0" stroke="#fff" stroke-width=".4"/><path d="M1187,354L1177,350L1177,339L1183,333L1196,330L1203,330L1206,335L1200,341L1198,348ZM834,12L833,2L841,-2L830,-31L854,-38L860,-42L869,-73L893,-67L900,-76L900,-94L910,-95L920,-108L924,-109L928,-96L938,-87L955,-80L963,-65L959,-45L963,-38L977,-35L994,-32L1008,-22L1016,-20L1021,-4L1028,6L1042,5L1067,9L1083,7L1095,9L1113,19L1127,19L1133,24L1147,15L1166,10L1184,9L1198,3L1207,-6L1216,-11L1214,-17L1210,-23L1216,-34L1223,-33L1235,-29L1247,-38L1266,-45L1275,-57L1283,-62L1301,-64L1310,-62L1312,-68L1301,-81L1291,-87L1282,-80L1270,-83L1263,-80L1260,-88L1268,-106L1274,-120L1289,-113L1306,-125L1306,-133L1317,-154L1323,-160L1323,-171L1317,-176L1327,-186L1342,-189L1358,-190L1376,-184L1386,-176L1394,-156L1398,-148L1403,-136L1407,-118L1428,-112L1442,-99L1447,-82L1466,-82L1476,-89L1496,-94L1490,-78L1485,-71L1481,-52L1473,-35L1458,-38L1448,-32L1451,-18L1449,2L1443,3L1443,11L1435,1L1430,10L1412,17L1414,26L1403,25L1397,20L1389,32L1376,40L1366,51L1349,55L1340,62L1327,67L1334,59L1331,53L1341,43L1334,34L1324,40L1310,51L1303,61L1291,62L1285,69L1291,80L1301,82L1301,89L1311,93L1324,83L1335,89L1343,89L1345,97L1328,101L1322,109L1310,117L1304,127L1317,135L1322,149L1329,163L1337,174L1337,184L1330,188L1333,195L1340,200L1338,211L1335,222L1328,223L1319,238L1309,256L1298,272L1281,284L1265,295L1251,297L1244,302L1239,298L1233,305L1216,311L1203,313L1199,327L1192,328L1189,318L1192,313L1176,309L1170,311L1158,308L1152,302L1154,295L1143,292L1137,288L1127,295L1115,296L1105,296L1099,299L1092,301L1094,316L1088,316L1087,313L1086,307L1078,311L1072,309L1063,304L1067,293L1059,290L1056,278L1044,280L1045,265L1056,253L1057,242L1057,232L1051,229L1047,221L1040,222L1027,219L1031,214L1026,205L1017,211L1007,208L993,216L982,227L972,228L967,225L960,224L952,221L945,225L937,235L936,224L929,227L915,226L901,222L891,216L882,214L878,207L871,205L859,196L849,192L844,195L827,185L815,176L812,160L821,162L821,155L816,148L817,136L804,118L785,112L781,101L772,94L770,89L768,81L768,75L761,71L757,73L754,58L758,55L756,51L767,44L776,41L789,43L793,32L809,31L813,24L832,15Z" fill="#E0E0E0" stroke="#fff" stroke-width=".4"/><path d="M-11,-66L-3,-63L-2,-66L10,-70L13,-63L30,-59L29,-50L32,-43L22,-45L12,-39L13,-31L11,-26L15,-17L27,-9L33,5L46,18L56,18L59,22L55,25L66,31L75,36L85,44L87,47L84,52L78,45L67,42L62,53L71,58L69,67L64,68L58,81L53,82L53,77L55,69L58,66L53,57L49,49L44,47L41,40L33,37L28,31L19,29L9,22L-2,12L-10,2L-14,-14L-20,-16L-29,-22L-35,-20L-42,-12L-47,-11L-46,-18L-52,-20L-55,-33L-51,-38L-55,-45L-54,-50L-49,-46L-43,-47L-36,-53L-34,-50L-29,-51L-26,-58L-17,-55L-12,-58ZM42,78L51,77L46,89L48,94L46,102L36,96L30,94L13,87L15,79L29,80ZM-32,35L-26,30L-18,42L-20,62L-26,61L-30,67L-35,62L-36,43L-38,34Z" fill="#E0E0E0" stroke="#fff" stroke-width=".4"/><path d="M-212,-198L-221,-202L-229,-202L-226,-213L-229,-225L-218,-225L-205,-212ZM-174,-189L-174,-189L-173,-201L-181,-213L-181,-214L-196,-217L-198,-223L-194,-233L-198,-238L-205,-228L-205,-249L-211,-260L-207,-283L-198,-302L-188,-300L-173,-302L-186,-277L-174,-280L-161,-280L-164,-262L-175,-243L-162,-241L-161,-239L-151,-214L-142,-211L-135,-187L-131,-179L-117,-175L-118,-163L-124,-157L-119,-147L-130,-137L-147,-137L-167,-132L-173,-135L-181,-127L-192,-129L-200,-122L-207,-125L-189,-145L-178,-149L-178,-150L-197,-153L-201,-161L-188,-167L-195,-177L-192,-191Z" fill="#E0E0E0" stroke="#fff" stroke-width=".4"/><path d="M424,20L428,20L436,30L441,31L443,27L451,21L457,29L463,40L469,41L472,45L463,47L460,59L458,64L454,68L454,76L451,76L444,68L448,61L444,56L440,57L425,69L425,58L420,55L415,51L418,46L412,41L414,37L409,34L407,30L410,27L419,32L425,33L427,31L421,22ZM421,69L413,67L407,60L405,54L407,54L411,58L416,58L416,60Z" fill="#E0E0E0" stroke="#fff" stroke-width=".4"/><path d="M346,-6L348,-8L358,-5L376,-3L392,5L394,8L402,6L413,9L417,16L424,20L421,22L427,31L425,33L419,32L410,27L407,30L390,32L378,24L366,25L367,18L364,7L357,1L351,-1Z" fill="#E0E0E0" stroke="#fff" stroke-width=".4"/><path d="M30,-59L40,-57L46,-61L57,-62L59,-65L61,-65L63,-59L54,-54L53,-47L48,-45L48,-40L44,-41L40,-44L37,-41L29,-41L32,-43L29,-50Z" fill="#E0E0E0" stroke="#fff" stroke-width=".4"/><path d="M136,-105L132,-100L130,-93L128,-91L115,-97L111,-96L108,-91L102,-89L101,-90L95,-87L90,-87L89,-83L79,-81L74,-83L68,-88L67,-94L68,-96L70,-100L75,-100L79,-102L80,-104L82,-104L83,-109L86,-109L87,-113L91,-113L92,-112L97,-114L103,-108L110,-112L116,-110L124,-112Z" fill="#E0E0E0" stroke="#fff" stroke-width=".4"/><path d="M45,-143L50,-137L59,-135L59,-130L65,-126L67,-131L75,-129L76,-123L85,-122L91,-113L87,-113L86,-109L83,-109L82,-104L80,-104L79,-102L75,-100L70,-100L68,-96L63,-100L57,-99L47,-104L43,-103L36,-95L27,-101L21,-109L14,-114L13,-122L11,-127L20,-131L24,-136L33,-140L36,-144L39,-141Z" fill="#E0E0E0" stroke="#fff" stroke-width=".4"/><path d="M304,402L302,397L308,378L309,370L313,366L321,364L328,357L335,371L338,383L345,389L361,401L368,408L374,415L378,420L384,423L380,426L375,425L371,421L366,414L361,410L358,406L347,401L339,400L336,398L329,401L321,395L318,404Z" fill="#E0E0E0" stroke="#fff" stroke-width=".4"/><path d="M492,344L501,365L505,374L497,377L494,383L494,387L482,392L463,398L452,407L446,408L443,407L436,412L428,415L418,415L415,416L412,419L409,420L407,423L401,423L397,425L389,424L386,417L386,410L384,406L382,397L378,392L381,391L379,386L381,383L380,378L386,374L384,368L388,362L393,365L396,364L410,364L412,365L424,367L428,366L431,370L437,368L446,355L457,349Z" fill="#E0E0E0" stroke="#fff" stroke-width=".4"/><path d="M286,206L299,209L304,204L307,199L317,197L319,193L323,190L311,176L335,169L337,167L352,171L370,181L404,209L426,210L437,211L440,218L449,218L453,229L459,233L461,237L470,243L470,249L469,253L471,258L474,261L476,266L478,269L481,272L485,271L487,276L487,279L492,292L528,299L531,296L536,305L528,331L492,344L457,349L446,355L437,368L431,370L428,366L424,367L412,365L410,364L396,364L393,365L388,362L384,368L386,374L380,378L379,372L375,368L374,363L368,359L362,348L358,338L350,329L344,327L336,314L335,305L335,298L329,283L323,278L316,275L312,268L313,265L310,258L306,255L301,245L294,234L288,224L282,224L284,217L284,212Z" fill="#E0E0E0" stroke="#fff" stroke-width=".4"/><path d="M259,124L260,124L261,120L270,120L281,116L273,122L274,125L273,124L270,125L268,125L268,126L268,124L267,123L264,123L261,124Z" fill="#E0E0E0" stroke="#fff" stroke-width=".4"/><path d="M259,124L261,124L264,123L267,123L268,124L268,126L268,125L270,125L273,124L274,125L274,126L262,132L256,130L253,124Z" fill="#E0E0E0" stroke="#fff" stroke-width=".4"/><path d="M-163,123L-159,133L-158,142L-154,157L-151,160L-153,166L-169,168L-174,173L-181,174L-182,185L-196,190L-200,197L-210,201L-222,203L-242,214L-242,230L-244,230L-243,237L-251,238L-255,241L-260,241L-265,239L-275,240L-279,251L-283,252L-288,269L-305,283L-309,301L-314,307L-315,312L-343,313L-343,313L-342,307L-338,303L-334,296L-335,292L-330,283L-324,274L-320,272L-316,264L-316,257L-312,249L-304,244L-296,230L-296,230L-290,225L-278,223L-269,214L-263,210L-253,198L-256,181L-251,169L-250,161L-242,151L-230,145L-221,139L-213,124L-209,114L-200,115L-193,121L-181,120L-169,123Z" fill="#E0E0E0" stroke="#fff" stroke-width=".4"/><path d="M309,305L261,305L214,305L165,305L165,257L165,208L162,197L165,188L163,182L167,175L183,175L195,179L207,183L213,185L222,181L227,177L238,176L246,177L250,184L252,180L262,183L271,184L277,180L284,201L285,204L282,210L279,220L276,228L273,230L269,226L264,219L255,200L254,201L259,215L266,229L275,250L280,258L284,265L295,280L292,282L293,291L307,303Z" fill="#E0E0E0" stroke="#fff" stroke-width=".4"/><path d="M165,305L165,331L151,331L151,337L103,312L55,287L43,294L34,299L27,292L8,286L3,278L-7,272L-12,274L-17,267L-17,261L-24,251L-20,245L-21,237L-19,229L-20,223L-18,212L-18,205L-22,193L-16,190L-15,184L-17,178L-8,173L-5,168L1,164L2,153L16,158L21,157L31,159L47,165L53,178L64,181L81,187L94,194L100,190L106,184L103,173L106,166L115,159L124,157L140,160L144,167L149,167L152,169L164,171L167,175L163,182L165,188L162,197L165,208L165,257Z" fill="#E0E0E0" stroke="#fff" stroke-width=".4"/><path d="M441,481L407,518L391,518L380,527L373,527L369,531L361,531L356,527L345,532L341,537L333,536L331,534L328,535L324,535L309,524L300,524L296,520L296,513L290,511L283,498L277,495L275,491L269,485L262,484L266,477L272,476L274,473L274,462L277,449L283,445L284,440L289,431L297,425L302,413L304,402L318,404L321,395L329,401L336,398L339,400L347,401L358,406L361,410L366,414L371,421L375,425L371,431L367,436L368,440L368,444L375,444L378,443L380,445L378,450L382,456L387,462L391,467L431,481Z" fill="#E0E0E0" stroke="#fff" stroke-width=".4"/><path d="M375,425L380,426L384,423L387,427L387,432L380,435L385,439L380,445L378,443L375,444L368,444L368,440L367,436L371,431Z" fill="#E0E0E0" stroke="#fff" stroke-width=".4"/><path d="M455,439L455,439L455,444L455,457L455,463L449,471L441,481L431,481L391,467L387,462L382,456L378,450L380,445L385,439L389,441L391,446L397,451L403,451L414,448L427,447L438,443L444,442L448,440Z" fill="#E0E0E0" stroke="#fff" stroke-width=".4"/><path d="M87,7L77,1L72,-6L68,-10L62,-16L59,-22L53,-30L56,-37L60,-33L63,-36L69,-37L79,-34L87,-34L93,-30L97,-30L94,-23L100,-16L98,-8L95,-8L93,-6L89,-2Z" fill="#E0E0E0" stroke="#fff" stroke-width=".4"/><path d="M134,12L140,17L141,28L138,29L136,31L130,31L125,35L117,36L112,32L110,25L112,20L114,20L114,17L121,14L124,13L128,12Z" fill="#E0E0E0" stroke="#fff" stroke-width=".4"/><path d="M91,-48L100,-53L108,-52L114,-45L115,-40L123,-36L124,-29L131,-24L135,-28L138,-25L135,-23L137,-20L134,-16L135,-10L141,-3L136,3L134,8L136,10L134,12L128,12L124,13L124,12L125,10L126,6L125,6L122,3L120,2L119,-0L116,-1L115,-4L113,-3L111,3L108,4L109,3L104,-1L100,-3L99,-5L95,-8L98,-8L100,-16L94,-23L97,-30L93,-30L98,-37L94,-42Z" fill="#E0E0E0" stroke="#fff" stroke-width=".4"/><path d="M106,8L102,9L102,6L96,14L97,19L95,18L91,13L86,10L87,7L89,-2L93,-6L95,-8L99,-5L100,-3L104,-1L109,3L108,4Z" fill="#E0E0E0" stroke="#fff" stroke-width=".4"/><path d="M112,20L111,14L108,12L106,8L108,4L111,3L113,-3L115,-4L116,-1L119,-0L120,2L122,3L125,6L126,6L125,10L124,12L124,13L121,14L114,17L114,20Z" fill="#E0E0E0" stroke="#fff" stroke-width=".4"/><path d="M236,536L225,528L222,522L216,525L210,524L207,526L201,525L194,515L192,511L183,506L180,499L175,494L167,487L167,483L160,478L152,474L156,472L160,470L163,459L166,453L175,452L177,455L183,462L187,463L191,461L200,461L201,464L213,464L214,461L220,459L221,456L226,453L236,460L242,459L248,450L255,443L254,436L251,432L258,432L259,429L265,430L263,439L265,448L271,453L272,457L272,463L274,463L274,473L272,476L266,477L262,484L269,485L275,491L277,495L283,498L290,511L282,519L274,527L267,532L258,532L249,535L241,532Z" fill="#E0E0E0" stroke="#fff" stroke-width=".4"/></g><g clip-path="url(#v)"><path d="M375.3,94.2L376.5,93.9L378.7,92.0L379.9,90.3L380.3,90.2L381.5,90.7L382.3,90.9L384.2,90.2L385.3,90.6L386.3,91.0L386.8,91.1L389.3,92.1L390.0,92.2L391.3,92.4L393.2,92.4L394.4,91.7L395.3,91.1L396.0,91.1L396.5,91.2L397.1,91.5L397.5,92.0L397.7,92.7L397.6,95.0L397.8,95.6L398.1,96.1L398.6,96.2L399.1,95.7L400.0,94.9L401.1,94.1L402.0,93.4L402.5,93.2L403.3,93.2L404.0,93.3L404.4,93.7L404.4,93.8L404.8,94.9L405.8,98.9L406.4,99.4L407.0,99.8L407.5,100.4L407.7,101.0L407.6,101.9L407.6,103.0L407.9,103.8L408.3,104.4L408.6,104.7L409.2,104.8L409.8,104.9L410.2,105.5L411.5,110.1L411.6,110.6L412.2,110.8L413.1,110.7L414.0,111.2L415.1,111.9L416.0,113.3L416.6,113.5L418.6,113.3L421.4,113.5L422.7,114.3L422.5,114.7L421.5,115.2L419.8,115.7L419.3,116.7L419.0,118.0L419.0,118.7L419.5,119.4L420.7,121.0L420.8,121.5L421,122.3L421.2,122.8L421.0,123.9L419.9,124.5L418.4,125.3L415.5,128.7L415.3,129.4L415.3,131.4L414.9,132.0L414.0,132.0L413.3,131.9L413.3,132.6L412.8,133.5L412.6,134.3L413.6,136.2L413.8,137.3L413.6,138.2L412.6,139.8L412.1,140.8L412.2,141.1L413.0,141.5L415.4,145.0L416.2,146.2L417.2,145.9L417.6,145.9L417.9,146.1L418.1,146.5L418.1,147.0L417.8,147.8L419.1,148.1L419.6,148.9L421.1,151.6L421.0,152.4L420.3,153.7L420.3,154.5L420.5,155.3L420.7,155.5L423.0,155.6L423.9,155.9L426.2,157.3L428.9,159.4L431.1,161.1L432.9,162.6L434.9,162.5L435.5,162.7L435.9,163.2L436.5,164.4L437.6,167.1L438.6,168.0L440.1,170.2L441.5,172.2L440.6,174.9L439.7,177.8L439.7,181.4L439.7,183.4L441.6,183.5L443.7,183.6L443.7,185.9L443.7,188.3L443.7,191.0L444.3,191.1L445.3,191.6L445.7,192.5L446.3,193.0L446.9,193.1L447.6,193.5L448.2,194.3L448.4,194.8L448.2,195.2L448.3,195.9L448.8,197.0L449.3,197.4L450.1,198.0L449.0,198.3L447.8,198.1L445.3,196.9L444.4,196.9L443.3,197.3L443.3,197.7L440.6,196.4L439.6,196.1L439.2,196.1L437.7,196.1L435.5,196.4L434.1,196.9L433.2,197.5L432.8,198.0L432.7,198.3L432.0,199.9L431.1,202.0L430.3,203.9L428.7,206.6L427.7,207.8L425.8,210.0L423.7,210.5L418.7,210.0L413.3,209.6L407.9,209.1L403.8,208.7L403.5,208.6L399.5,205.4L396.4,202.8L392.4,199.6L388.4,196.3L384.3,193.0L381.3,190.5L377.8,187.4L374.5,184.6L371.9,182.3L368.5,180.3L366.0,178.8L362.2,176.5L359.2,174.7L356.6,173.2L352.6,170.8L351.2,170.1L347.1,169.3L343.2,168.7L339.1,167.9L336.4,167.5L338.2,165.8L337.7,164.2L336.4,164.5L335.2,164.9L334.5,162.5L335.4,162.2L334.5,159.1L333.7,155.9L332.8,152.7L332.0,149.5L335.4,147.5L337.9,145.9L341.5,143.8L345.0,141.7L348.2,139.7L351.9,137.5L355.1,135.6L358.1,134.7L358.7,134.1L360.1,131.4L361.2,129.1L361.3,128.6L361.3,125.3L361.5,121.5L361.9,119.4L362.6,117.6L363.2,116.2L363.2,115.0L363.1,113.7L362.5,111.8L361.8,109.8L361.9,107.8L362.0,106.8L362.4,105.1L363.2,103.9L363.9,103.2L366.7,102.4L368.4,101.9L370.7,99.7L372.0,98.5L373.8,96.4L375.2,94.9L375.3,94.4Z" fill="#4ECDC4" stroke="#2C3E50" stroke-width="1"/></g><circle cx="400.0" cy="150.0" r="4" fill="#E74C3C" stroke="#fff" stroke-width="2"/><text x="400.0" y="140.0" text-anchor="middle" font-family="sans-serif" font-weight="700" font-size="10" fill="#2D3436">Baghdad</text></svg>