<svg viewBox="0 0 800 300" xmlns="http://www.w3.org/2000/svg"><defs><clipPath id="v"><rect width="800" height="300"/></clipPath></defs><rect width="800" height="300" fill="#DCEEF8"/><g clip-path="url(#v)"><path d="M279,420L281,421L306,435L306,439L316,446L313,455L313,458L318,461L318,463L316,467L316,469L316,472L318,477L321,484L324,485L318,489L311,492L306,492L304,494L299,494L297,495L289,493L284,494L282,484L280,481L278,479L272,478L268,476L263,474L261,473L258,471L254,463L250,459L249,455L249,451L248,445L251,444L253,442L256,438L258,437L258,435L256,433L256,430L258,429L258,425L255,422L258,421L265,421Z" fill="#E0E0E0" stroke="#fff" stroke-width=".4"/><path d="M-14,215L-14,216L-14,217L-14,229L-37,228L-37,248L-43,249L-45,252L-43,263L-70,263L-72,266L-72,262L-71,262L-56,262L-55,259L-52,256L-50,246L-40,237L-37,228L-35,227L-33,221L-27,220L-25,221L-21,221L-19,220L-15,219L-15,215Z" fill="#E0E0E0" stroke="#fff" stroke-width=".4"/><path d="M648,23L643,30L637,31L637,41L633,46L619,42L614,60L611,62L597,66L603,83L598,85L599,91L595,89L591,86L581,85L570,85L567,86L557,82L553,84L552,89L541,86L536,88L535,92L531,93L522,100L519,106L516,106L514,102L506,102L504,94L501,94L501,85L493,78L481,79L473,80L467,71L461,68L450,61L449,60L431,66L432,100L428,101L423,94L419,91L411,93L408,96L407,94L409,90L408,87L400,83L397,75L393,72L393,69L399,70L399,63L405,62L411,63L413,53L411,47L404,48L399,45L391,50L384,52L381,50L381,45L377,38L372,38L366,31L370,23L368,21L374,10L381,16L381,8L396,-4L406,-4L422,3L430,8L437,3L448,3L457,9L459,5L469,6L470,1L459,-7L466,-12L464,-16L471,-19L466,-26L469,-30L495,-35L498,-37L516,-42L522,-47L534,-44L536,-32L544,-35L552,-31L552,-24L559,-25L576,-36L573,-32L582,-23L597,5L601,-1L611,6L621,3L624,5L628,11L632,13L635,18L644,16Z" fill="#E0E0E0" stroke="#fff" stroke-width=".4"/><path d="M432,100L431,66L449,60L450,61L461,68L467,71L473,80L481,79L493,78L501,85L501,94L504,94L506,102L514,102L516,106L519,106L522,100L531,93L535,92L537,93L531,99L536,102L541,100L549,105L541,111L535,110L532,110L531,108L533,104L524,106L521,112L518,117L512,116L511,120L516,122L517,129L513,138L508,136L504,136L504,130L495,127L488,122L484,118L476,112L472,103L470,101L463,101L460,99L459,92L450,87L444,92L438,96L439,100Z" fill="#E0E0E0" stroke="#fff" stroke-width=".4"/><path d="M1018,432L1018,454L1018,477L1012,471L1005,470L1003,472L994,472L997,466L1002,464L1000,457L997,451L983,445L978,445L967,438L965,441L963,442L961,440L961,437L956,433L963,431L968,431L967,429L957,429L955,425L948,424L946,420L955,418L958,416L969,419L971,422L972,433L980,437L985,430L993,425L999,425L1005,428L1010,430ZM907,475L908,477L908,479L904,484L898,486L897,485L897,482L900,478ZM971,461L970,456L972,454L973,451L975,453L975,457ZM858,385L854,391L860,398L858,401L866,407L858,408L856,413L856,419L849,424L849,431L846,441L845,439L838,442L835,438L830,437L827,435L818,438L816,434L811,435L806,434L805,425L801,423L798,417L797,411L798,404L802,400L803,404L808,408L812,407L816,407L820,404L824,403L830,405L836,404L839,394L842,392L844,384L852,384ZM938,433L945,435L948,440L942,437L936,437L932,437L927,437L929,433ZM920,440L916,439L914,436L921,435L923,438ZM928,399L928,402L932,403L933,406L933,412L929,411L928,415L931,419L929,420L926,416L924,407L925,401ZM893,408L901,407L908,402L909,404L904,411L898,412L892,411L880,411L874,412L873,417L879,423L883,420L896,418L895,421L892,420L889,424L883,427L890,436L889,438L895,446L895,451L891,453L888,450L892,445L885,447L883,445L884,443L879,439L880,432L875,434L876,442L876,452L872,453L869,451L871,444L870,438L867,438L865,433L867,429L868,423L872,413L873,410L879,405L885,407ZM875,485L866,480L872,479L876,481L878,483L878,485ZM882,473L887,472L893,470L892,474L882,476L872,475L872,472L878,471ZM861,472L865,471L867,474L859,475L854,476L851,476L853,472L857,472L859,470ZM794,458L795,461L808,461L809,458L822,462L825,466L835,467L843,472L836,474L828,471L822,472L815,471L808,470L800,467L795,467L792,467L780,465L778,462L772,461L777,454L785,455L791,458ZM765,421L766,426L769,430L774,430L777,435L776,443L775,454L768,454L762,448L753,443L750,439L745,433L741,428L736,418L730,412L728,407L725,401L719,397L716,391L710,387L703,379L703,376L707,376L718,377L724,384L729,389L733,392L740,399L747,399L752,404L756,410L762,413L759,419L763,421Z" fill="#E0E0E0" stroke="#fff" stroke-width=".4"/><path d="M248,445L249,451L249,455L250,459L254,463L258,471L255,471L246,472L244,473L242,477L243,480L242,489L241,496L243,497L248,500L250,498L250,506L245,506L242,502L240,499L235,498L233,494L229,497L223,496L221,492L217,492L213,492L213,490L211,489L207,489L203,490L200,490L198,491L199,482L197,480L196,475L197,471L196,468L196,464L187,464L188,462L184,462L184,463L180,463L178,467L177,469L173,468L171,469L166,470L164,466L162,464L160,459L158,454L138,454L135,455L134,455L131,456L130,454L131,453L132,450L133,448L135,447L137,447L139,445L143,445L144,447L146,448L150,444L154,440L156,438L156,432L159,426L162,422L167,419L167,417L167,414L169,412L168,408L169,402L170,397L173,394L173,390L174,385L176,381L180,379L186,381L190,384L195,385L200,386L202,382L203,381L206,382L214,378L217,380L219,380L220,378L223,377L228,378L232,378L234,378L239,383L242,384L244,383L247,383L251,382L252,385L258,389L258,398L261,399L258,401L256,403L253,406L252,410L251,415L250,418L250,423L248,425L247,429L246,430L246,433L248,436Z" fill="#E0E0E0" stroke="#fff" stroke-width=".4"/><path d="M332,425L328,420L328,394L334,387L336,384L341,384L347,379L356,379L375,358L380,353L383,348L383,345L383,338L383,335L383,335L385,334L389,333L392,333L395,330L398,330L398,332L398,336L398,340L396,342L394,350L391,358L387,367L381,377L375,385L367,394L360,400L350,406L343,412L336,420L334,424Z" fill="#E0E0E0" stroke="#fff" stroke-width=".4"/><path d="M316,446L306,439L306,435L281,421L279,420L279,413L281,410L285,406L287,401L284,393L283,389L280,384L284,380L289,376L293,377L293,381L295,383L300,383L309,389L311,389L312,389L314,390L318,390L320,387L327,384L330,387L334,387L328,394L328,420L332,425L328,428L326,431L323,431L322,436L320,439L319,444Z" fill="#E0E0E0" stroke="#fff" stroke-width=".4"/><path d="M215,357L210,354L207,352L207,350L208,347L208,344L204,339L203,336L203,335L201,333L201,329L199,326L197,326L198,324L199,321L199,318L201,316L199,314L201,309L204,304L210,305L210,276L210,273L218,273L218,258L246,258L273,258L300,258L302,265L301,267L302,274L304,283L307,285L311,288L307,292L302,293L300,295L299,300L296,310L297,313L296,319L293,326L289,330L286,335L285,338L282,340L280,347L280,354L280,348L279,348L279,345L278,342L275,339L274,334L275,329L271,329L271,330L267,331L269,333L269,337L265,341L262,346L258,346L253,342L250,344L249,346L246,347L245,349L239,349L238,347L233,347L230,348L228,348L225,343L224,342L219,342L217,346L215,352L213,353L210,354Z" fill="#E0E0E0" stroke="#fff" stroke-width=".4"/><path d="M210,276L210,305L204,304L201,309L199,314L201,316L199,318L199,321L198,324L197,326L199,326L201,329L201,333L203,335L203,336L199,338L195,340L190,348L184,351L177,351L175,352L176,354L173,356L170,359L161,362L159,360L158,360L157,362L151,362L152,361L150,356L149,353L146,352L142,348L143,344L147,345L149,344L152,345L149,338L149,333L148,329L146,324L146,321L142,321L142,316L139,314L142,304L151,297L151,288L154,273L155,270L152,268L152,265L150,263L148,252L155,248L183,262Z" fill="#E0E0E0" stroke="#fff" stroke-width=".4"/><path d="M692,-592L707,-602L721,-579L736,-540L735,-506L720,-502L700,-512L689,-526L684,-554L674,-562ZM755,-521L772,-501L770,-486L731,-474L744,-519L750,-523ZM1003,-419L1021,-417L1046,-402L1041,-382L1015,-383L1004,-377L990,-394L994,-413ZM1068,-397L1085,-389L1077,-379L1066,-381L1053,-392L1055,-401ZM1010,-346L1016,-356L1025,-358L1035,-348L1036,-342L1025,-342L1011,-345ZM355,-573L368,-580L379,-581L380,-570L384,-580L391,-587L401,-577L398,-571L389,-565L383,-562L382,-556L374,-549L366,-559L370,-571ZM202,-34L190,-34L181,-35L183,-41L192,-45L200,-42L203,-40L202,-37ZM415,-355L431,-377L429,-389L445,-404L467,-422L490,-427L502,-439L516,-442L520,-431L516,-421L491,-407L470,-394L449,-369L439,-345L428,-323L429,-304L442,-287L438,-285L416,-287L414,-297L401,-303L400,-315L408,-319L407,-332L421,-352ZM1031,-27L1033,-16L1033,-5L1036,6L1043,25L1033,22L1029,37L1035,47L1035,54L1030,48L1025,56L1024,48L1025,38L1024,27L1026,19L1026,4L1022,-7L1022,-22L1029,-28L1026,-33L1029,-35ZM-1195,-251L-1195,-251L-1178,-237L-1160,-219L-1161,-208L-1156,-204L-1158,-216L-1139,-214L-1126,-198L-1132,-190L-1144,-189L-1144,-173L-1147,-169L-1153,-170L-1158,-175L-1168,-180L-1169,-187L-1176,-190L-1184,-188L-1188,-194L-1186,-200L-1194,-196L-1191,-188L-1195,-181L-1195,-181L-1195,-251ZM1287,-181L1287,-181L1278,-174L1269,-175L1275,-167L1279,-154L1282,-150L1283,-143L1281,-139L1268,-143L1249,-132L1243,-130L1233,-120L1223,-111L1220,-105L1210,-114L1192,-104L1189,-109L1182,-103L1173,-105L1171,-96L1163,-83L1163,-78L1171,-75L1170,-56L1163,-56L1160,-46L1163,-40L1151,-34L1149,-21L1139,-18L1137,-7L1127,4L1124,-4L1121,-21L1117,-47L1121,-64L1126,-72L1127,-78L1137,-80L1150,-97L1162,-111L1174,-123L1180,-143L1171,-142L1167,-130L1150,-114L1144,-132L1126,-127L1109,-103L1115,-95L1099,-91L1089,-90L1089,-100L1078,-102L1070,-95L1049,-97L1026,-93L1004,-68L977,-39L988,-37L992,-30L998,-27L1003,-33L1010,-33L1020,-20L1020,-10L1015,1L1014,14L1011,31L1001,46L999,53L989,64L980,75L976,81L966,86L962,87L958,82L948,89L947,92L947,92L946,90L946,86L950,85L951,74L949,66L955,62L963,64L968,55L970,44L973,40L977,31L965,34L959,38L949,38L946,28L938,20L926,17L923,6L921,-0L918,-5L914,-16L908,-21L898,-24L888,-24L880,-22L874,-16L878,-13L878,-7L874,-3L868,8L868,13L858,20L850,16L842,17L838,13L834,12L824,19L815,21L809,24L800,22L794,22L789,17L783,12L776,10L767,12L760,14L751,9L749,1L741,-2L735,-3L727,-8L720,4L723,10L716,17L706,15L699,14L695,9L688,9L682,6L671,11L658,20L651,22L648,23L644,16L635,18L632,13L628,11L624,5L621,3L611,6L601,-1L597,5L582,-23L573,-32L576,-36L559,-25L552,-24L552,-31L544,-35L536,-32L534,-44L522,-47L516,-42L498,-37L495,-35L469,-30L466,-26L471,-19L464,-16L466,-12L459,-7L470,1L469,6L459,5L457,9L448,3L437,3L430,8L422,3L406,-4L396,-4L381,8L381,16L374,10L368,21L370,23L366,31L372,38L377,38L381,45L381,50L384,52L381,58L374,59L368,69L374,78L373,85L381,96L377,100L375,102L372,101L368,96L366,95L361,93L359,89L353,87L349,89L347,87L338,83L328,81L322,79L321,81L312,73L305,69L299,63L304,62L309,53L305,49L316,45L315,43L309,45L309,40L313,37L320,37L321,33L319,27L322,22L322,19L312,15L308,15L303,10L298,12L289,8L290,6L287,1L282,1L281,-3L283,-5L278,-11L271,-10L269,-11L267,-8L265,-9L263,-16L262,-20L263,-21L268,-20L271,-23L269,-26L264,-28L265,-30L262,-32L258,-40L259,-43L259,-49L252,-52L248,-50L247,-53L240,-56L238,-64L237,-70L234,-73L237,-77L235,-89L240,-97L239,-99L246,-107L239,-113L254,-132L260,-140L263,-148L253,-158L256,-169L249,-181L254,-195L246,-214L252,-228L242,-240L243,-253L248,-255L260,-263L267,-270L279,-258L297,-253L323,-232L329,-223L329,-212L322,-203L310,-198L280,-211L274,-209L286,-196L286,-189L287,-172L296,-167L301,-163L302,-171L298,-178L302,-184L319,-174L324,-178L320,-190L336,-206L342,-205L349,-199L353,-211L347,-222L350,-232L345,-244L365,-238L368,-228L360,-225L360,-215L365,-209L376,-213L378,-225L392,-233L416,-249L421,-248L414,-237L423,-235L428,-241L441,-242L451,-250L459,-238L467,-251L460,-262L463,-269L484,-263L493,-257L518,-235L523,-245L516,-255L515,-259L507,-261L509,-270L506,-286L506,-293L518,-313L523,-333L528,-338L546,-332L548,-319L541,-301L545,-294L548,-280L546,-253L554,-241L551,-229L537,-203L545,-201L548,-207L555,-212L557,-220L563,-229L559,-239L562,-252L555,-253L553,-264L559,-285L550,-302L562,-317L560,-333L564,-334L567,-321L565,-300L572,-296L569,-311L581,-320L595,-321L608,-309L601,-327L601,-353L613,-358L629,-357L644,-360L639,-373L647,-390L655,-391L668,-405L686,-408L688,-416L707,-419L712,-412L728,-428L740,-427L742,-440L749,-453L765,-466L777,-456L768,-448L783,-444L785,-429L791,-436L811,-436L827,-421L833,-410L831,-396L823,-388L805,-373L800,-366L808,-362L819,-356L825,-361L828,-345L831,-351L842,-355L865,-351L866,-340L895,-336L895,-355L910,-351L921,-351L932,-338L935,-323L931,-314L940,-297L951,-288L957,-311L969,-301L980,-307L994,-300L999,-306L1010,-303L1005,-324L1014,-334L1046,-327L1076,-319L1082,-305L1100,-289L1128,-293L1142,-290L1148,-281L1147,-266L1155,-261L1164,-265L1177,-265L1190,-261L1203,-263L1215,-246L1223,-252L1218,-265L1221,-274L1243,-268L1257,-269L1277,-260L1287,-251L1287,-181ZM1287,-289L1279,-288L1278,-295L1287,-304L1287,-289ZM-1195,-304L-1195,-304L-1195,-304L-1194,-304L-1188,-304L-1179,-298L-1179,-295L-1186,-290L-1195,-289L-1195,-289L-1195,-304ZM276,56L278,54L283,56L285,56L286,58L287,58L287,59L291,62L298,61L296,64L289,66L279,72L275,70L277,65L269,62L271,60L277,57Z" fill="#E0E0E0" stroke="#fff" stroke-width=".4"/><path d="M150,-536L153,-549L163,-551L172,-537L194,-509L177,-495L173,-470L167,-464L164,-438L155,-437L141,-456L147,-468L137,-477L123,-506L118,-535L137,-549L140,-535ZM260,-263L248,-255L243,-253L246,-267L237,-275L226,-268L223,-254L216,-245L209,-250L200,-249L192,-259L188,-254L184,-253L183,-241L170,-244L168,-233L161,-234L157,-221L150,-201L139,-178L142,-172L139,-166L132,-166L128,-152L128,-132L133,-125L131,-108L125,-99L122,-91L117,-99L104,-84L94,-81L85,-87L82,-102L80,-135L86,-144L105,-157L118,-173L131,-196L147,-230L159,-244L178,-268L193,-277L204,-276L215,-293L228,-292L240,-296L261,-281L253,-276ZM235,-551L224,-530L204,-525L184,-532L183,-542L173,-543L165,-561L187,-573L197,-563L204,-576L221,-565ZM216,-471L201,-458L189,-466L193,-474L189,-485L203,-492L206,-479Z" fill="#E0E0E0" stroke="#fff" stroke-width=".4"/><path d="M-277,-670L-254,-703L-229,-700L-221,-722L-196,-728L-168,-725L-141,-721L-118,-698L-98,-675L-111,-654L-137,-652L-174,-647L-171,-638L-146,-644L-126,-627L-112,-642L-106,-624L-114,-597L-96,-614L-63,-633L-42,-623L-38,-603L-67,-572L-70,-563L-92,-556L-77,-554L-85,-525L-90,-502L-90,-464L-82,-444L-92,-443L-104,-433L-91,-418L-89,-394L-97,-391L-88,-369L-103,-367L-95,-357L-97,-348L-107,-344L-117,-344L-108,-328L-108,-318L-122,-328L-125,-322L-116,-316L-107,-302L-104,-285L-117,-281L-122,-289L-130,-302L-128,-287L-136,-276L-118,-276L-108,-274L-127,-257L-146,-242L-166,-236L-173,-236L-180,-228L-190,-210L-205,-198L-210,-197L-219,-193L-229,-189L-235,-179L-235,-168L-238,-157L-249,-145L-247,-133L-250,-122L-253,-108L-263,-107L-273,-118L-287,-118L-294,-126L-298,-141L-310,-160L-314,-170L-315,-184L-324,-200L-322,-212L-326,-219L-320,-240L-309,-247L-306,-255L-305,-270L-313,-263L-317,-260L-323,-258L-331,-264L-332,-278L-329,-289L-323,-289L-309,-283L-320,-297L-327,-304L-333,-301L-339,-307L-332,-327L-336,-336L-341,-353L-349,-380L-358,-390L-358,-401L-377,-418L-391,-420L-410,-419L-427,-416L-435,-426L-447,-445L-428,-454L-415,-456L-444,-464L-460,-478L-459,-491L-433,-508L-407,-525L-405,-539L-423,-553L-417,-570L-393,-600L-383,-605L-386,-626L-370,-639L-349,-647L-327,-647L-320,-632L-302,-659L-285,-640L-276,-636L-261,-621L-278,-647Z" fill="#E0E0E0" stroke="#fff" stroke-width=".4"/><path d="M907,475L908,474L914,472L919,472L921,471L924,472L921,474L914,477L908,479L908,477Z" fill="#E0E0E0" stroke="#fff" stroke-width=".4"/><path d="M-322,661L-324,657L-321,653L-325,647L-331,643L-338,637L-340,638L-347,632L-352,632L-342,622L-335,614L-330,611L-324,607L-324,600L-327,596L-331,597L-330,593L-329,589L-329,584L-331,583L-334,584L-336,584L-337,581L-338,574L-339,572L-344,570L-346,571L-354,570L-353,560L-355,556L-353,554L-354,550L-352,547L-351,541L-352,537L-356,535L-357,532L-356,528L-369,527L-372,519L-370,519L-370,516L-371,514L-371,510L-375,507L-380,508L-383,506L-387,504L-390,501L-398,500L-405,494L-405,489L-405,487L-405,481L-414,483L-417,485L-423,488L-425,490L-429,490L-434,490L-438,491L-441,490L-440,479L-446,484L-452,483L-455,480L-459,479L-458,476L-461,472L-464,466L-463,464L-463,462L-458,460L-459,456L-457,453L-457,450L-449,445L-443,444L-442,443L-436,443L-433,424L-433,421L-434,417L-437,415L-437,410L-433,409L-432,410L-431,407L-436,406L-436,402L-422,402L-420,400L-418,402L-417,406L-415,405L-412,409L-406,408L-405,406L-400,405L-397,403L-396,400L-391,399L-392,397L-397,396L-398,392L-398,388L-401,386L-400,385L-395,386L-389,388L-387,386L-382,385L-375,382L-372,380L-373,378L-369,377L-368,379L-369,382L-366,383L-365,386L-367,389L-368,395L-366,398L-365,401L-361,405L-358,405L-357,404L-355,403L-352,402L-350,400L-346,401L-344,401L-340,401L-340,400L-341,398L-340,396L-337,397L-334,396L-330,398L-327,399L-325,397L-324,398L-323,400L-319,399L-317,396L-314,391L-310,385L-308,385L-306,389L-303,401L-299,402L-299,406L-304,412L-302,414L-289,415L-289,422L-284,418L-275,420L-264,424L-261,428L-262,432L-254,430L-240,434L-230,434L-220,439L-211,447L-206,449L-200,449L-197,451L-195,460L-194,464L-196,476L-200,481L-210,490L-214,498L-219,504L-221,505L-223,510L-222,523L-224,534L-225,539L-227,542L-228,552L-235,561L-237,569L-242,572L-244,576L-251,576L-262,579L-267,583L-275,585L-283,591L-289,598L-290,604L-288,608L-290,616L-291,620L-296,625L-304,639L-310,645L-315,649L-318,657Z" fill="#E0E0E0" stroke="#fff" stroke-width=".4"/><path d="M-310,385L-314,391L-317,396L-319,399L-323,400L-324,398L-325,397L-327,399L-330,398L-328,395L-328,392L-327,389L-329,385L-330,380L-326,374L-324,375L-319,376L-312,382ZM88,20L92,23L102,25L98,32L97,39L95,41L92,40L92,43L87,48L87,53L91,51L93,56L93,59L95,62L92,65L94,73L98,74L97,78L91,84L77,81L67,84L66,90L58,91L51,87L48,89L35,84L33,81L36,75L37,56L30,45L25,40L15,36L14,28L23,26L35,29L32,17L39,21L55,13L57,4L63,2L64,6L67,6L70,10L75,15L79,15L85,20L86,20ZM106,88L110,85L112,93L109,100L106,98L105,92Z" fill="#E0E0E0" stroke="#fff" stroke-width=".4"/><path d="M-70,319L-72,314L-76,311L-73,310L-69,305L-68,301L-65,299L-62,299L-59,298L-55,298L-51,300L-47,302L-43,307L-38,312L-38,316L-37,320L-34,322L-33,325L-34,327L-35,328L-38,327L-39,328L-40,328L-45,326L-49,326L-61,326L-63,327L-66,326L-69,328L-70,322L-64,322L-62,321L-61,321L-59,320L-56,321L-53,321L-50,320L-51,318L-53,319L-56,319L-58,317L-60,317L-62,319Z" fill="#E0E0E0" stroke="#fff" stroke-width=".4"/><path d="M-34,327L-33,325L-34,322L-37,320L-38,316L-38,312L-36,311L-35,306L-33,306L-28,308L-24,307L-21,307L-20,306L8,306L9,300L8,300L5,268L1,236L12,236L35,252L58,268L60,272L64,274L67,275L67,280L75,279L75,296L71,301L71,305L65,306L55,307L53,309L48,310L44,310L42,308L38,309L32,312L31,314L25,318L24,319L21,321L18,320L16,322L15,327L10,332L10,335L8,338L8,342L6,343L4,344L3,341L1,342L-0,341L-2,343L-7,343L-9,342L-10,343L-12,341L-11,339L-12,338L-14,339L-13,336L-12,335L-15,332L-16,330L-17,328L-19,328L-20,329L-22,330L-24,331L-27,331L-29,329L-30,329L-32,330L-33,330Z" fill="#E0E0E0" stroke="#fff" stroke-width=".4"/><path d="M-72,266L-70,263L-43,263L-45,252L-43,249L-37,248L-37,228L-14,229L-14,217L12,236L1,236L5,268L8,300L9,300L8,306L-20,306L-21,307L-24,307L-28,308L-33,306L-35,306L-36,311L-38,312L-43,307L-47,302L-51,300L-55,298L-59,298L-62,299L-65,299L-68,301L-68,297L-66,294L-66,287L-66,280L-67,276L-67,272L-68,269Z" fill="#E0E0E0" stroke="#fff" stroke-width=".4"/><path d="M64,370L59,371L57,366L57,351L56,349L56,346L53,343L51,341L52,337L54,337L56,334L59,333L61,331L63,329L65,329L71,333L70,335L72,339L71,342L71,344L68,348L66,350L64,355L65,359Z" fill="#E0E0E0" stroke="#fff" stroke-width=".4"/><path d="M148,252L150,263L152,265L152,268L155,270L154,273L151,288L151,297L142,304L139,314L142,316L142,321L146,321L146,324L144,325L143,327L142,327L138,319L136,319L131,323L125,321L121,321L119,322L115,321L111,324L108,325L100,321L96,323L93,322L90,320L83,317L76,318L74,320L73,324L71,326L71,333L65,329L63,329L61,331L61,326L53,324L53,321L49,316L48,313L48,310L53,309L55,307L65,306L71,305L71,301L75,296L75,279L85,276L105,261L128,247L139,250L143,255Z" fill="#E0E0E0" stroke="#fff" stroke-width=".4"/><path d="M64,370L65,359L64,355L66,350L68,348L71,344L71,342L72,339L70,335L71,333L71,326L73,324L74,320L76,318L83,317L90,320L93,322L96,323L100,321L108,325L111,324L115,321L119,322L121,321L125,321L131,323L136,319L138,319L142,327L143,327L146,330L145,331L145,333L139,339L137,343L136,347L135,348L134,353L130,356L129,360L127,363L127,365L122,368L118,365L115,365L111,369L109,369L106,376L104,381L97,383L95,383L92,384L86,384L83,380L80,375L76,370L70,370Z" fill="#E0E0E0" stroke="#fff" stroke-width=".4"/><path d="M146,324L148,329L149,333L149,338L152,345L149,344L147,345L143,344L142,348L146,352L149,353L150,356L152,361L151,362L148,369L146,371L145,376L146,379L146,381L149,385L149,387L152,391L155,393L155,396L156,398L156,402L150,400L145,398L136,398L135,398L131,399L127,398L123,398L112,398L113,393L111,388L107,387L106,384L104,383L104,381L106,376L109,369L111,369L115,365L118,365L122,368L127,365L127,363L129,360L130,356L134,353L135,348L136,347L137,343L139,339L145,333L145,331L146,330L143,327L144,325Z" fill="#E0E0E0" stroke="#fff" stroke-width=".4"/><path d="M52,337L51,341L53,343L56,346L56,349L57,351L57,366L59,371L53,373L51,370L50,366L49,362L51,356L49,354L48,348L48,343L45,339L46,337Z" fill="#E0E0E0" stroke="#fff" stroke-width=".4"/><path d="M46,337L45,339L48,343L48,348L49,354L51,356L49,362L50,366L51,370L53,373L42,377L38,379L32,381L26,379L26,376L23,371L25,363L28,357L26,347L25,342L25,338L37,337L40,338L43,337Z" fill="#E0E0E0" stroke="#fff" stroke-width=".4"/><path d="M-10,343L-9,342L-7,343L-2,343L-0,341L1,342L3,341L4,344L6,343L8,342L12,343L13,346L16,347L18,345L22,345L26,347L28,357L25,363L23,371L26,376L26,379L23,379L18,378L14,378L5,379L1,381L-6,384L-7,384L-7,378L-6,377L-6,374L-9,371L-12,371L-14,369L-12,366L-13,363L-12,361L-11,361L-11,358L-12,356L-11,355L-8,354L-10,349L-12,346L-11,344Z" fill="#E0E0E0" stroke="#fff" stroke-width=".4"/><path d="M-49,326L-45,326L-40,328L-39,328L-38,327L-35,328L-34,327L-33,330L-32,330L-30,329L-29,329L-27,331L-24,331L-22,330L-20,329L-19,328L-17,328L-16,330L-15,332L-12,335L-13,336L-14,339L-12,338L-11,339L-12,341L-10,343L-11,344L-12,346L-10,349L-8,354L-11,355L-12,356L-11,358L-11,361L-12,361L-14,360L-16,363L-18,363L-19,362L-19,359L-22,355L-23,355L-25,356L-27,356L-27,353L-28,352L-28,350L-29,347L-31,344L-36,344L-38,345L-40,346L-41,347L-42,349L-46,352L-49,348L-51,345L-53,344L-55,343L-56,340L-57,338L-59,337L-56,334L-53,334L-52,333L-50,333L-49,332L-50,329L-49,329Z" fill="#E0E0E0" stroke="#fff" stroke-width=".4"/><path d="M-69,328L-66,326L-63,327L-61,326L-49,326L-49,329L-50,329L-49,332L-50,333L-52,333L-53,334L-56,334L-59,337L-62,334L-65,334L-67,332L-67,331L-69,329Z" fill="#E0E0E0" stroke="#fff" stroke-width=".4"/><path d="M-12,361L-13,363L-12,366L-14,369L-12,371L-9,371L-6,374L-6,377L-7,378L-7,384L-9,384L-16,380L-23,375L-29,371L-33,367L-32,365L-31,363L-28,359L-25,356L-23,355L-22,355L-19,359L-19,362L-18,363L-16,363L-14,360Z" fill="#E0E0E0" stroke="#fff" stroke-width=".4"/><path d="M-46,352L-42,349L-41,347L-40,346L-38,345L-36,344L-31,344L-29,347L-28,350L-28,352L-27,353L-27,356L-25,356L-28,359L-31,363L-32,365L-33,367L-35,366L-40,363L-44,360L-45,357Z" fill="#E0E0E0" stroke="#fff" stroke-width=".4"/><path d="M8,342L8,338L10,335L10,332L15,327L16,322L18,320L21,321L24,319L25,318L31,314L32,312L38,309L42,308L44,310L48,310L48,313L49,316L53,321L53,324L61,326L61,331L59,333L56,334L54,337L52,337L46,337L43,337L40,338L37,337L25,338L25,342L26,347L22,345L18,345L16,347L13,346L12,343Z" fill="#E0E0E0" stroke="#fff" stroke-width=".4"/><path d="M234,378L232,378L228,378L223,377L220,378L219,380L217,380L214,378L206,382L203,381L202,382L200,386L195,385L190,384L186,381L180,379L176,381L174,385L173,390L169,389L164,388L160,392L156,398L155,396L155,393L152,391L149,387L149,385L146,381L146,379L145,376L146,371L148,369L151,362L157,362L158,360L159,360L161,362L170,359L173,356L176,354L175,352L177,351L184,351L190,348L195,340L199,338L203,336L204,339L208,344L208,347L207,350L207,352L210,354L215,357L219,360L219,362L224,365L226,368L228,373L233,375Z" fill="#E0E0E0" stroke="#fff" stroke-width=".4"/><path d="M173,390L173,394L170,397L169,402L168,408L169,412L167,414L167,417L167,419L162,422L159,426L156,432L156,438L154,440L150,444L146,448L144,447L143,445L139,445L137,447L135,447L133,444L131,445L128,448L122,441L127,437L125,433L127,431L132,430L132,427L136,430L142,431L144,427L145,423L144,418L141,413L144,405L142,404L137,405L135,401L136,398L145,398L150,400L156,402L156,398L160,392L164,388L169,389Z" fill="#E0E0E0" stroke="#fff" stroke-width=".4"/><path d="M123,398L127,398L131,399L135,398L136,398L135,401L137,405L142,404L144,405L141,413L144,418L145,423L144,427L142,431L136,430L132,427L132,430L127,431L125,433L127,437L122,441L115,434L111,428L106,421L107,419L108,417L110,412L111,407L113,406L124,406Z" fill="#E0E0E0" stroke="#fff" stroke-width=".4"/><path d="M112,398L123,398L124,406L113,406L111,407L110,406Z" fill="#E0E0E0" stroke="#fff" stroke-width=".4"/><path d="M258,471L261,473L263,474L268,476L272,478L275,481L277,487L275,489L274,494L275,500L273,503L271,509L275,511L254,517L254,522L249,523L245,526L244,528L242,529L236,535L232,539L230,540L228,539L220,538L219,537L219,537L216,535L211,535L206,536L201,532L197,526L197,503L211,503L211,501L212,498L210,495L211,492L211,489L213,490L213,492L217,492L221,492L223,496L229,497L233,494L235,498L240,499L242,502L245,506L250,506L250,498L248,500L243,497L241,496L242,489L243,480L242,477L244,473L246,472L255,471Z" fill="#E0E0E0" stroke="#fff" stroke-width=".4"/><path d="M272,478L278,479L280,481L282,484L284,494L282,499L284,508L286,508L289,510L292,516L292,525L289,526L287,531L283,527L282,522L284,518L283,516L281,514L279,514L275,511L271,509L273,503L275,500L274,494L275,489L277,487L275,481Z" fill="#E0E0E0" stroke="#fff" stroke-width=".4"/><path d="M284,494L289,493L297,495L299,494L304,494L306,492L311,492L318,489L324,485L325,488L324,495L325,502L326,513L327,516L325,521L322,526L318,531L311,533L304,537L296,545L293,546L288,551L286,553L285,558L288,564L290,568L290,570L291,570L291,577L290,581L291,582L290,585L287,588L282,590L273,595L270,597L271,601L273,601L272,605L267,605L266,602L265,598L265,595L266,587L264,582L261,571L268,563L270,557L271,557L272,552L271,550L271,545L272,540L272,531L269,528L265,528L264,526L261,524L255,525L254,522L254,517L275,511L279,514L281,514L283,516L284,518L282,522L283,527L287,531L289,526L292,525L292,516L289,510L286,508L284,508L282,499Z" fill="#E0E0E0" stroke="#fff" stroke-width=".4"/><path d="M135,447L133,448L132,450L131,453L130,454L128,448L131,445L133,444ZM131,456L134,455L135,455L138,454L158,454L160,459L162,464L164,466L166,470L171,469L173,468L177,469L178,467L180,463L184,463L184,462L188,462L187,464L196,464L196,468L197,471L196,475L197,480L199,482L198,491L200,490L203,490L207,489L211,489L211,492L210,495L212,498L211,501L211,503L197,503L197,526L201,532L206,536L193,539L176,538L172,535L144,535L143,536L139,532L134,532L130,533L127,535L126,530L127,524L129,517L130,514L132,508L134,505L137,500L140,497L140,492L140,488L138,486L136,481L134,477L135,476L137,473L135,466L133,462L130,457Z" fill="#E0E0E0" stroke="#fff" stroke-width=".4"/><path d="M256,430L256,433L258,435L258,437L256,438L253,442L251,444L248,445L248,436L246,433L250,434L252,430Z" fill="#E0E0E0" stroke="#fff" stroke-width=".4"/><path d="M292,175L291,177L288,176L287,182L289,183L287,184L286,186L290,185L290,188L286,201L286,199L282,187L284,184L283,184L285,180L287,174L288,172L288,172L290,172L291,170L293,170L293,174L292,175Z" fill="#E0E0E0" stroke="#fff" stroke-width=".4"/><path d="M293,170L291,170L290,172L288,172L290,165L294,159L294,159L297,159L298,163L294,166Z" fill="#E0E0E0" stroke="#fff" stroke-width=".4"/><path d="M387,500L389,503L391,508L392,517L394,520L393,523L392,525L389,521L388,523L389,529L389,532L387,533L387,540L384,548L380,558L376,572L374,583L370,591L365,593L359,596L355,594L349,592L347,588L347,581L345,575L344,570L345,564L348,563L348,561L352,555L352,550L351,547L349,542L349,536L351,532L352,527L356,527L359,525L362,524L365,524L369,520L375,515L377,512L376,509L379,510L382,505L383,500L385,497Z" fill="#E0E0E0" stroke="#fff" stroke-width=".4"/><path d="M290,185L286,186L287,184L289,183L287,182L288,176L291,177L291,182Z" fill="#E0E0E0" stroke="#fff" stroke-width=".4"/><path d="M-70,319L-62,319L-60,317L-58,317L-56,319L-53,319L-51,318L-50,320L-53,321L-56,321L-59,320L-61,321L-62,321L-64,322L-70,322Z" fill="#E0E0E0" stroke="#fff" stroke-width=".4"/><path d="M111,194L108,180L104,177L104,175L98,170L98,163L102,159L103,152L102,144L104,139L111,136L116,137L116,141L122,138L122,140L119,144L119,148L121,150L120,157L116,161L117,166L121,166L122,170L125,171L125,178L121,180L119,183L114,186L115,189L114,192Z" fill="#E0E0E0" stroke="#fff" stroke-width=".4"/><path d="M-14,217L-14,216L-14,215L-14,206L-3,200L4,199L10,197L12,193L20,190L21,184L25,183L28,180L37,179L38,175L36,174L34,165L33,160L31,154L37,150L45,148L49,145L56,142L68,141L79,140L82,141L89,138L96,138L99,140L104,139L102,144L103,152L102,159L98,163L98,170L104,175L104,177L108,180L111,194L113,201L114,205L112,211L113,215L112,219L113,224L110,227L114,233L114,236L117,240L120,239L125,242L128,247L105,261L85,276L75,279L67,280L67,275L64,274L60,272L58,268L35,252L12,236Z" fill="#E0E0E0" stroke="#fff" stroke-width=".4"/><path d="M291,177L292,175L300,178L313,169L316,179L315,181L301,185L308,193L305,194L304,197L299,198L297,201L294,203L287,202L286,201L290,188L290,185L291,182Z" fill="#E0E0E0" stroke="#fff" stroke-width=".4"/><path d="M401,241L403,241L403,243L408,242L414,242L418,242L423,237L428,232L432,228L434,230L435,236L431,236L430,241L432,242L429,244L429,247L426,250L426,253L425,254L404,251L402,243Z" fill="#E0E0E0" stroke="#fff" stroke-width=".4"/><path d="M396,237L396,232L397,228L399,227L401,229L402,234L400,238L398,239Z" fill="#E0E0E0" stroke="#fff" stroke-width=".4"/><path d="M376,197L378,200L377,202L379,208L375,208L373,205L367,204L372,196Z" fill="#E0E0E0" stroke="#fff" stroke-width=".4"/><path d="M316,179L313,169L328,161L331,151L330,144L334,142L338,137L341,135L349,137L351,139L354,137L359,148L363,150L364,155L360,158L359,164L364,172L372,177L376,183L374,189L377,189L377,193L381,197L376,197L372,196L367,204L354,203L334,187L324,182Z" fill="#E0E0E0" stroke="#fff" stroke-width=".4"/><path d="M426,253L426,250L429,247L429,244L432,242L430,241L431,236L435,236L438,241L441,244L447,245L451,246L454,251L456,253L458,254L458,256L456,260L454,262L452,265L449,270L446,269L444,271L443,275L444,280L443,281L440,281L436,283L435,287L434,288L429,288L427,290L427,293L423,295L420,294L415,297L412,297L410,292L404,280L425,273L429,258ZM434,230L432,228L434,225L435,226L434,229Z" fill="#E0E0E0" stroke="#fff" stroke-width=".4"/><path d="M753,329L751,321L756,315L765,313L771,314L777,317L780,312L786,315L788,320L787,328L775,333L778,338L771,338L765,341L759,340L756,336Z" fill="#E0E0E0" stroke="#fff" stroke-width=".4"/><path d="M771,314L765,313L756,315L751,321L753,329L747,326L741,326L742,320L736,320L735,328L732,338L729,345L730,350L734,350L737,356L738,362L742,366L746,367L750,371L748,374L743,374L743,371L737,368L736,369L733,366L732,363L728,359L725,356L724,360L722,356L723,352L725,345L728,338L732,331L730,325L730,321L729,317L724,312L723,308L725,307L728,301L725,296L720,291L717,284L720,283L723,275L728,275L732,272L736,270L739,272L739,277L744,277L742,285L742,291L750,287L752,288L756,288L757,285L762,286L768,292L768,299L774,305L773,311Z" fill="#E0E0E0" stroke="#fff" stroke-width=".4"/><path d="M786,315L780,312L777,317L771,314L773,311L774,305L768,299L768,292L762,286L757,285L756,288L752,288L750,287L742,291L742,285L744,277L739,277L739,272L736,270L737,267L743,262L744,264L748,264L747,256L750,255L754,261L757,267L766,267L768,274L764,276L762,278L770,283L776,291L780,298L786,303L787,308Z" fill="#E0E0E0" stroke="#fff" stroke-width=".4"/><path d="M736,270L732,272L728,275L723,275L720,283L717,284L720,291L725,296L728,301L725,307L723,308L724,312L729,317L730,321L730,325L732,331L728,338L725,345L724,340L727,334L724,330L725,322L722,319L720,310L719,301L716,295L711,299L703,304L699,303L695,302L697,293L696,286L691,278L691,275L687,274L683,268L682,262L684,263L685,258L688,256L687,253L689,250L689,243L694,244L698,238L698,234L702,228L702,224L710,218L715,220L715,215L717,213L717,210L721,210L723,214L726,216L726,222L726,229L719,235L719,244L726,243L728,250L732,251L730,257L735,260L738,261L743,259L743,262L737,267Z" fill="#E0E0E0" stroke="#fff" stroke-width=".4"/><path d="M765,341L771,338L778,338L775,333L787,328L788,320L786,315L787,308L786,303L780,298L776,291L770,283L762,278L764,276L768,274L766,267L757,267L754,261L750,255L754,253L759,253L766,252L772,248L775,251L781,252L780,257L784,260L791,261L781,268L776,275L774,280L779,287L786,297L792,301L796,307L799,320L799,333L793,337L785,342L779,348L771,354L768,350L770,345Z" fill="#E0E0E0" stroke="#fff" stroke-width=".4"/><path d="M947,92L947,92L947,92ZM946,90L947,92L945,91L942,95L940,98L940,104L936,106L935,108L933,111L928,112L925,115L925,118L924,119L927,121L931,125L930,127L927,127L922,128L919,132L916,131L916,132L912,131L911,132L909,133L909,131L907,131L905,129L907,125L909,124L908,123L910,118L910,116L906,115L902,113L908,107L916,102L920,96L924,99L930,99L929,94L939,90L942,85Z" fill="#E0E0E0" stroke="#fff" stroke-width=".4"/><path d="M916,132L916,131L919,132L922,128L927,127L930,127L931,125L937,135L938,141L938,150L936,155L929,157L924,160L918,161L917,156L918,150L915,141L920,140Z" fill="#E0E0E0" stroke="#fff" stroke-width=".4"/><path d="M651,22L658,20L671,11L682,6L688,9L695,9L699,14L706,15L716,17L723,10L720,4L727,-8L735,-3L741,-2L749,1L751,9L760,14L767,12L776,10L783,12L789,17L794,22L800,22L809,24L815,21L824,19L834,12L838,13L842,17L850,16L847,24L842,34L844,38L848,37L854,39L860,35L865,38L871,45L871,49L865,48L855,49L850,52L845,58L835,62L828,67L821,65L817,65L813,71L816,75L817,78L812,81L807,86L799,89L789,90L777,93L769,98L766,95L758,95L748,89L741,88L732,89L718,87L710,87L706,82L703,73L699,72L690,66L681,64L673,63L670,58L673,47L668,39L658,35L652,29Z" fill="#E0E0E0" stroke="#fff" stroke-width=".4"/><path d="M717,210L717,213L715,215L715,220L710,218L702,224L702,228L698,234L698,238L694,244L689,243L689,250L687,253L688,256L685,258L681,246L679,246L678,251L674,247L676,243L679,242L683,236L679,234L672,235L666,234L665,228L662,228L656,225L654,230L659,234L655,237L653,239L657,241L656,246L658,252L659,258L659,260L654,260L645,262L646,267L642,272L632,277L624,285L619,290L612,295L612,298L609,300L603,302L599,303L597,308L599,317L599,323L596,330L596,342L593,342L590,348L592,350L585,352L583,357L580,359L574,352L571,342L568,335L566,332L562,325L560,316L559,312L553,302L550,288L548,279L548,270L546,263L536,267L532,266L523,258L526,255L524,252L516,246L520,240L536,240L534,234L530,230L529,224L525,221L533,213L541,213L548,205L552,197L559,189L559,183L565,178L559,174L557,169L554,162L558,158L568,160L576,159L582,152L590,162L589,168L592,173L592,177L587,176L589,185L595,190L605,195L601,199L598,206L605,209L611,213L620,217L629,218L633,222L639,223L647,225L653,225L654,222L653,217L653,213L657,212L658,218L658,220L664,222L669,221L675,222L680,222L681,217L678,214L683,213L690,207L698,202L703,204L708,201L712,206L709,209Z" fill="#E0E0E0" stroke="#fff" stroke-width=".4"/><path d="M685,258L684,263L682,262L683,268L681,264L680,260L679,257L676,252L670,252L670,255L668,259L665,258L664,259L662,258L659,258L658,252L656,246L657,241L653,239L655,237L659,234L654,230L656,225L662,228L665,228L666,234L672,235L679,234L683,236L679,242L676,243L674,247L678,251L679,246L681,246Z" fill="#E0E0E0" stroke="#fff" stroke-width=".4"/><path d="M678,214L681,217L680,222L675,222L669,221L664,222L658,220L658,218L663,212L666,210L671,212L675,212Z" fill="#E0E0E0" stroke="#fff" stroke-width=".4"/><path d="M653,213L653,217L654,222L653,225L647,225L639,223L633,222L629,218L620,217L611,213L605,209L598,206L601,199L605,195L608,193L613,196L620,201L624,202L626,206L632,207L637,211L645,213Z" fill="#E0E0E0" stroke="#fff" stroke-width=".4"/><path d="M582,152L576,159L568,160L558,158L554,162L557,169L559,174L565,178L559,183L559,189L552,197L548,205L541,213L533,213L525,221L529,224L530,230L534,234L536,240L520,240L516,246L511,244L509,238L503,232L491,234L479,234L470,235L472,226L482,222L482,219L478,217L478,210L472,207L469,202L465,198L477,202L484,201L488,202L489,200L494,201L503,198L503,191L507,186L512,186L513,184L518,183L521,184L524,181L523,177L526,172L531,170L528,164L534,164L536,161L536,158L539,155L539,150L537,147L541,143L548,141L556,140L560,139L564,138L569,142L571,148Z" fill="#E0E0E0" stroke="#fff" stroke-width=".4"/><path d="M504,136L508,136L513,138L515,139L520,136L523,137L525,134L529,134L530,132L531,129L534,126L538,128L537,131L539,131L538,138L541,141L543,139L546,138L551,134L556,135L563,135L564,138L560,139L556,140L548,141L541,143L537,147L539,150L539,155L536,158L536,161L534,164L528,164L531,170L526,172L523,177L524,181L521,184L518,183L513,184L512,186L507,186L503,191L503,198L494,201L489,200L488,202L484,201L477,202L465,198L472,191L471,186L466,184L465,179L463,173L466,168L463,167L465,161L468,150L475,154L480,152L481,149L487,147L491,145L492,138L498,136L499,133L502,135Z" fill="#E0E0E0" stroke="#fff" stroke-width=".4"/><path d="M513,138L517,129L516,122L511,120L512,116L518,117L521,112L524,106L533,104L531,108L532,110L535,110L533,113L525,111L525,117L532,116L541,119L554,117L555,126L558,125L562,127L562,130L563,135L556,135L551,134L546,138L543,139L541,141L538,138L539,131L537,131L538,128L534,126L531,129L530,132L529,134L525,134L523,137L520,136L515,139Z" fill="#E0E0E0" stroke="#fff" stroke-width=".4"/><path d="M535,92L536,88L541,86L552,89L553,84L557,82L567,86L570,85L581,85L591,86L595,89L599,91L598,93L587,98L585,102L576,103L573,108L566,107L561,109L555,113L556,115L554,117L541,119L532,116L525,117L525,111L533,113L535,110L541,111L549,105L541,100L536,102L531,99L537,93Z" fill="#E0E0E0" stroke="#fff" stroke-width=".4"/><path d="M408,96L411,93L419,91L423,94L428,101L432,100L439,100L438,96L444,92L450,87L459,92L460,99L463,101L470,101L472,103L476,112L484,118L488,122L495,127L504,130L504,136L502,135L499,133L498,136L492,138L491,145L487,147L481,149L480,152L475,154L468,150L467,143L462,143L454,135L449,134L441,130L436,129L433,131L428,130L424,135L417,137L416,131L417,122L412,119L414,113L409,112L411,104L417,107L423,104L418,98L416,93L411,95L410,102Z" fill="#E0E0E0" stroke="#fff" stroke-width=".4"/><path d="M292,175L292,175L293,174L293,170L294,166L298,163L297,159L294,159L293,152L295,149L297,147L299,145L299,140L301,142L309,140L313,141L318,141L326,138L330,138L338,137L334,142L330,144L331,151L328,161L313,169L300,178Z" fill="#E0E0E0" stroke="#fff" stroke-width=".4"/><path d="M366,123L364,124L361,118L361,117L358,117L356,115L355,115L352,112L347,110L347,106L346,102L356,101L357,103L360,105L358,107L362,110L360,113L363,116L366,117Z" fill="#E0E0E0" stroke="#fff" stroke-width=".4"/><path d="M122,-91L125,-99L131,-108L133,-125L128,-132L128,-152L132,-166L139,-166L142,-172L139,-178L150,-201L157,-221L161,-234L168,-233L170,-244L183,-241L184,-253L188,-254L197,-245L208,-232L208,-205L210,-198L199,-193L192,-182L193,-172L182,-159L169,-146L164,-125L169,-115L175,-108L169,-92L162,-89L159,-67L155,-56L147,-57L143,-47L135,-47L133,-58L127,-73Z" fill="#E0E0E0" stroke="#fff" stroke-width=".4"/><path d="M240,-56L247,-53L248,-50L252,-52L259,-49L259,-43L258,-40L262,-32L265,-30L264,-28L269,-26L271,-23L268,-20L263,-21L262,-20L263,-16L265,-9L259,-8L257,-5L256,0L254,-1L247,-0L246,-3L243,-1L240,-3L235,-3L227,-6L220,-6L215,-6L211,-3L208,-3L208,-8L206,-13L210,-15L210,-20L208,-24L208,-29L214,-29L222,-34L223,-40L229,-44L228,-50L233,-52Z" fill="#E0E0E0" stroke="#fff" stroke-width=".4"/><path d="M265,-9L267,-8L269,-11L271,-10L278,-11L283,-5L281,-3L282,1L287,1L290,6L289,8L298,12L303,10L308,15L312,15L322,19L322,22L319,27L321,33L320,37L313,37L309,40L309,45L304,45L299,49L293,49L287,53L287,58L286,58L285,56L283,56L278,54L276,56L275,55L265,52L264,49L258,50L255,55L250,63L247,61L243,63L240,61L242,60L243,56L245,53L245,51L246,51L247,52L251,52L253,51L251,50L252,49L249,46L248,42L246,41L246,37L243,34L241,34L235,31L231,32L229,33L226,33L225,36L220,37L217,38L214,36L210,36L205,35L202,37L202,34L198,31L199,27L201,24L203,25L201,20L207,11L211,10L211,7L208,-3L211,-3L215,-6L220,-6L227,-6L235,-3L240,-3L243,-1L246,-3L247,-0L254,-1L256,0L257,-5L259,-8Z" fill="#E0E0E0" stroke="#fff" stroke-width=".4"/><path d="M208,-29L208,-24L210,-20L210,-15L206,-13L208,-8L208,-3L211,7L211,10L207,11L201,20L203,25L201,24L195,20L190,22L186,21L182,23L179,19L176,21L176,20L173,15L167,14L167,11L162,9L161,12L157,10L158,7L153,6L149,2L146,-5L147,-8L145,-14L143,-19L145,-22L143,-27L148,-31L159,-36L167,-40L174,-38L175,-36L181,-35L190,-34L202,-34L206,-33Z" fill="#E0E0E0" stroke="#fff" stroke-width=".4"/><path d="M163,34L162,38L158,38L160,41L157,47L156,49L150,49L147,51L141,51L131,48L129,45L123,46L122,48L118,47L114,47L111,45L112,42L112,40L114,40L117,43L118,40L124,40L129,39L133,39L135,41L136,39L135,33L137,31L139,26L145,30L148,25L151,25L156,28L159,27L163,29L162,31Z" fill="#E0E0E0" stroke="#fff" stroke-width=".4"/><path d="M198,31L202,34L202,37L198,39L195,46L191,53L185,54L181,54L176,57L173,58L167,56L162,52L160,51L159,47L157,47L160,41L158,38L162,38L163,34L166,37L169,38L175,37L175,35L178,34L181,33L182,33L185,32L187,30L189,29L197,32Z" fill="#E0E0E0" stroke="#fff" stroke-width=".4"/><path d="M229,33L231,32L235,31L241,34L243,34L246,37L246,41L248,42L249,46L252,49L251,50L253,51L251,52L247,52L246,51L245,51L245,53L243,56L242,60L240,61L239,56L240,52L240,48L236,42L233,37L231,34Z" fill="#E0E0E0" stroke="#fff" stroke-width=".4"/><path d="M240,61L243,63L247,61L250,63L250,65L247,67L245,66L243,78L239,77L234,74L225,76L222,78L212,78L207,76L204,77L202,73L201,71L202,70L201,68L198,71L194,68L194,64L190,61L189,58L185,54L191,53L195,46L198,39L202,37L205,35L210,36L214,36L217,38L220,37L225,36L226,33L229,33L231,34L233,37L236,42L240,48L240,52L239,56Z" fill="#E0E0E0" stroke="#fff" stroke-width=".4"/><path d="M228,-50L229,-44L223,-40L222,-34L214,-29L208,-29L206,-33L202,-34L202,-37L203,-40L200,-42L192,-45L191,-55L199,-59L210,-58L217,-59L218,-56L222,-56Z" fill="#E0E0E0" stroke="#fff" stroke-width=".4"/><path d="M234,-73L237,-70L238,-64L240,-56L233,-52L228,-50L222,-56L218,-56L217,-59L210,-58L199,-59L191,-55L191,-64L194,-72L201,-77L206,-67L212,-67L213,-77L219,-79L222,-78L228,-73Z" fill="#E0E0E0" stroke="#fff" stroke-width=".4"/><path d="M239,-99L240,-97L235,-89L237,-77L234,-73L228,-73L222,-78L219,-79L213,-77L214,-85L212,-83L207,-88L207,-95L215,-99L224,-101L231,-99Z" fill="#E0E0E0" stroke="#fff" stroke-width=".4"/><path d="M143,-27L145,-22L143,-19L145,-14L147,-8L146,-5L149,2L146,4L144,2L143,4L138,7L135,9L130,12L131,15L132,19L136,22L139,26L137,31L135,33L136,39L135,41L133,39L129,39L124,40L118,40L117,43L114,40L112,40L104,37L103,39L97,39L98,32L102,25L92,23L88,20L89,16L87,13L88,6L87,-6L91,-6L93,-10L95,-20L93,-24L95,-27L100,-27L102,-25L106,-31L105,-35L104,-42L110,-40L114,-42L114,-37L121,-35L121,-30L128,-33L132,-36L140,-31Z" fill="#E0E0E0" stroke="#fff" stroke-width=".4"/><path d="M202,73L204,77L207,76L212,78L222,78L225,76L234,74L239,77L243,78L239,82L237,89L239,94L233,93L226,96L226,100L219,101L215,98L209,100L204,100L203,94L200,91L201,90L200,89L202,86L204,83L201,79L200,75Z" fill="#E0E0E0" stroke="#fff" stroke-width=".4"/><path d="M227,153L226,156L216,157L216,155L208,153L209,150L213,153L218,152L223,153L223,154ZM204,100L209,100L215,98L219,101L226,100L226,96L229,98L227,104L225,105L221,105L218,104L209,106L214,111L210,113L207,113L203,108L202,110L203,115L207,120L204,122L208,126L211,128L211,133L205,131L207,135L203,136L205,144L201,144L195,140L193,133L191,127L189,123L185,118L185,116L188,111L188,108L190,107L191,105L195,104L198,102L201,102L203,101Z" fill="#E0E0E0" stroke="#fff" stroke-width=".4"/><path d="M354,137L351,139L349,137L341,135L338,137L330,138L326,138L318,141L313,141L309,140L301,142L299,140L299,145L297,147L295,149L292,145L295,142L291,143L285,141L280,145L270,146L264,142L257,142L255,145L250,146L244,142L236,142L232,133L227,128L231,121L226,117L234,109L244,108L247,101L260,102L269,97L277,94L288,94L300,100L310,104L318,102L324,103L332,98L340,98L346,102L347,106L347,110L352,112L355,115L350,117L352,128L351,130ZM226,96L233,93L239,94L240,98L246,101L244,103L236,103L233,106L227,111L225,107L225,105L227,104L229,98Z" fill="#E0E0E0" stroke="#fff" stroke-width=".4"/><path d="M191,105L190,107L188,108L188,111L185,116L183,115L183,113L180,110L179,106L179,100L180,97L179,95L179,92L182,88L182,89L184,89L186,91L187,92L188,95L187,99L188,103Z" fill="#E0E0E0" stroke="#fff" stroke-width=".4"/><path d="M160,51L162,52L167,56L173,58L176,57L177,60L179,63L177,67L174,65L169,65L163,63L160,63L158,66L156,63L154,67L158,72L159,75L162,78L165,81L168,84L174,88L173,90L166,86L162,83L156,80L150,73L152,72L149,68L148,65L144,63L142,67L140,64L140,61L140,61L145,61L146,59L149,61L151,61L151,58L154,57L154,53Z" fill="#E0E0E0" stroke="#fff" stroke-width=".4"/><path d="M112,40L112,42L111,45L114,47L118,47L117,51L114,53L109,51L108,55L104,56L103,54L99,57L96,58L93,56L91,51L87,53L87,48L92,43L92,40L95,41L97,39L103,39L104,37Z" fill="#E0E0E0" stroke="#fff" stroke-width=".4"/><path d="M87,13L89,16L88,20L86,20L85,20L86,14Z" fill="#E0E0E0" stroke="#fff" stroke-width=".4"/><path d="M88,6L87,13L86,14L85,20L79,15L75,15L70,10L67,6L64,6L63,2L69,-0L74,1L80,-2L84,3Z" fill="#E0E0E0" stroke="#fff" stroke-width=".4"/><path d="M93,-24L95,-20L93,-10L91,-6L87,-6L88,6L84,3L80,-2L74,1L69,-0L72,-3L78,-20L88,-25Z" fill="#E0E0E0" stroke="#fff" stroke-width=".4"/><path d="M-17,95L-14,93L-11,91L-10,96L-5,96L-4,95L-0,95L2,100L-2,102L-2,109L-3,111L-3,115L-6,116L-3,121L-5,127L-3,129L-4,132L-6,135L-6,138L-8,140L-12,139L-16,140L-15,133L-15,128L-18,127L-20,124L-19,118L-17,115L-16,111L-15,105L-15,102L-16,98Z" fill="#E0E0E0" stroke="#fff" stroke-width=".4"/><path d="M-6,138L-6,135L-4,132L-3,129L-5,127L-3,121L-6,116L-3,115L-3,111L-2,109L-2,102L2,100L-0,95L-4,95L-5,96L-10,96L-11,91L-14,93L-17,95L-16,89L-19,84L-9,78L-1,79L8,79L16,81L21,80L33,81L35,84L48,89L51,87L58,91L66,90L67,95L60,101L51,103L51,106L46,111L44,119L46,124L43,128L41,133L36,135L31,142L22,142L16,142L11,145L9,148L5,147L3,144L1,139Z" fill="#E0E0E0" stroke="#fff" stroke-width=".4"/><path d="M3,-29L4,-21L-1,-10L-13,-4L-23,-5L-17,-17L-21,-29L-12,-38L-6,-44L-5,-37L-6,-31L-2,-31Z" fill="#E0E0E0" stroke="#fff" stroke-width=".4"/><path d="M1064,722L1068,723L1069,734L1066,737L1065,745L1063,742L1058,749L1057,748L1053,748L1048,740L1047,734L1043,726L1044,721L1048,722L1055,725L1059,724ZM915,649L908,653L902,655L901,659L898,662L892,663L888,663L882,662L877,663L872,663L868,667L866,667L863,669L859,672L854,672L850,672L842,666L839,665L839,660L842,659L843,657L843,654L844,648L843,644L840,635L839,631L839,626L836,621L836,619L833,616L832,610L828,604L827,600L830,604L828,597L831,599L833,602L833,598L830,592L829,589L827,587L828,583L830,581L831,577L830,573L833,567L833,573L836,568L842,565L845,562L850,560L853,559L855,560L861,557L865,556L866,555L868,554L872,554L879,552L883,549L884,545L888,541L889,538L889,535L894,528L897,535L900,533L897,530L899,526L902,528L903,522L907,519L909,516L912,515L912,513L915,514L915,512L918,511L922,510L927,513L931,517L935,517L939,518L938,514L941,508L944,507L943,505L946,501L950,498L954,499L960,498L960,494L955,492L958,491L963,493L966,496L972,497L974,497L978,499L982,497L985,497L987,496L990,500L988,503L985,506L983,506L984,509L982,513L979,516L980,518L985,522L991,525L994,527L999,531L1001,531L1005,533L1006,535L1012,538L1017,535L1018,531L1020,528L1021,524L1023,519L1022,515L1022,513L1021,509L1022,504L1024,502L1023,500L1024,496L1025,492L1026,490L1028,488L1030,491L1031,496L1032,496L1033,499L1035,503L1036,507L1035,510L1038,515L1042,512L1045,515L1048,518L1047,521L1049,528L1050,531L1051,532L1053,538L1053,542L1055,547L1062,551L1067,554L1072,557L1071,559L1075,564L1078,572L1080,570L1083,573L1085,572L1086,580L1091,585L1094,588L1100,594L1101,600L1102,604L1101,609L1104,616L1104,623L1103,626L1101,633L1101,638L1100,644L1097,651L1092,655L1089,662L1087,666L1085,673L1082,677L1080,684L1079,690L1080,692L1076,695L1068,696L1062,699L1059,703L1054,706L1049,703L1045,701L1046,696L1042,698L1036,704L1030,702L1026,701L1022,700L1015,697L1011,692L1010,686L1008,681L1005,678L998,677L1000,673L999,666L995,672L989,674L993,669L994,664L996,660L996,654L990,661L986,664L983,671L978,667L978,663L974,657L970,654L971,652L963,647L958,647L951,643L939,643L930,646L922,649Z" fill="#E0E0E0" stroke="#fff" stroke-width=".4"/><path d="M610,362L609,369L606,371L600,372L596,367L595,357L598,346L603,350L606,354Z" fill="#E0E0E0" stroke="#fff" stroke-width=".4"/><path d="M800,286L795,284L795,278L798,274L806,272L809,272L811,275L808,278L806,283ZM599,91L598,85L603,83L597,66L611,62L614,60L619,42L633,46L637,41L637,31L643,30L648,23L651,22L652,29L658,35L668,39L673,47L670,58L673,63L681,64L690,66L699,72L703,73L706,82L710,87L718,87L732,89L741,88L748,89L758,95L766,95L769,98L777,93L789,90L799,89L807,86L812,81L817,78L816,75L813,71L817,65L821,65L828,67L835,62L845,58L850,52L855,49L865,48L871,49L871,45L865,38L860,35L854,39L848,37L844,38L842,34L847,24L850,16L858,20L868,13L868,8L874,-3L878,-7L878,-13L874,-16L880,-22L888,-24L898,-24L908,-21L914,-16L918,-5L921,-0L923,6L926,17L938,20L946,28L949,38L959,38L965,34L977,31L973,40L970,44L968,55L963,64L955,62L949,66L951,74L950,85L946,86L946,90L942,85L939,90L929,94L930,99L924,99L920,96L916,102L908,107L902,113L893,116L888,120L880,122L884,118L882,115L888,109L884,104L878,107L871,113L866,119L860,119L856,124L860,130L865,131L865,135L871,137L879,131L885,135L889,135L890,139L881,142L877,146L871,151L867,157L875,161L877,169L881,177L886,183L886,189L882,191L883,196L887,198L886,205L885,211L881,211L876,220L870,230L864,239L854,246L845,252L837,253L833,256L830,254L826,258L817,262L809,263L807,270L803,271L801,266L803,263L794,260L791,261L784,260L780,257L781,252L775,251L772,248L766,252L759,253L754,253L750,255L747,256L748,264L744,264L743,262L743,259L738,261L735,260L730,257L732,251L728,250L726,243L719,244L719,235L726,229L726,222L726,216L723,214L721,210L717,210L709,209L712,206L708,201L703,204L698,202L690,207L683,213L678,214L675,212L671,212L666,210L663,212L658,218L657,212L653,213L645,213L637,211L632,207L626,206L624,202L620,201L613,196L608,193L605,195L595,190L589,185L587,176L592,177L592,173L589,168L590,162L582,152L571,148L569,142L564,138L563,135L562,130L562,127L558,125L555,126L554,117L556,115L555,113L561,109L566,107L573,108L576,103L585,102L587,98L598,93Z" fill="#E0E0E0" stroke="#fff" stroke-width=".4"/><path d="M885,240L881,252L878,258L875,252L874,247L878,239L883,233L886,236Z" fill="#E0E0E0" stroke="#fff" stroke-width=".4"/><path d="M118,47L122,48L123,46L129,45L131,48L141,51L140,56L142,60L136,58L131,62L131,67L130,69L132,74L139,79L142,87L150,94L156,94L157,96L155,98L161,102L166,104L172,109L173,111L172,114L168,110L162,108L159,114L164,118L163,122L160,123L157,130L154,131L154,128L155,123L157,122L154,116L152,112L149,111L147,107L143,105L140,102L135,101L129,97L123,91L118,85L116,76L113,75L107,72L104,73L100,77L97,78L98,74L94,73L92,65L95,62L93,59L93,56L96,58L99,57L103,54L104,56L108,55L109,51L114,53L117,51ZM147,129L153,128L150,135L151,138L150,142L145,139L141,138L131,133L132,129L140,130ZM106,104L109,101L113,108L112,120L109,119L106,122L104,120L104,109L102,104Z" fill="#E0E0E0" stroke="#fff" stroke-width=".4"/><path d="M114,-42L110,-40L104,-42L102,-48L101,-61L103,-64L105,-68L111,-69L113,-73L119,-76L118,-70L116,-66L117,-62L121,-60L119,-55L117,-57L112,-48ZM131,-56L133,-50L129,-40L122,-47L121,-52Z" fill="#E0E0E0" stroke="#fff" stroke-width=".4"/><path d="M3,-29L-2,-31L-6,-31L-5,-37L-6,-44L-1,-44L7,-37ZM24,-23L24,-23L25,-30L21,-37L21,-38L12,-40L11,-43L13,-48L11,-52L7,-46L7,-58L3,-64L6,-77L11,-88L17,-87L25,-88L18,-74L25,-76L32,-76L30,-65L24,-54L31,-53L32,-52L38,-38L43,-36L47,-22L49,-18L57,-16L56,-9L53,-5L56,0L50,6L40,6L29,9L25,7L21,12L14,11L10,15L6,13L16,1L22,-1L22,-1L11,-3L9,-7L17,-11L13,-17L14,-24Z" fill="#E0E0E0" stroke="#fff" stroke-width=".4"/><path d="M-54,-206L-56,-195L-48,-183L-57,-171L-77,-160L-83,-157L-92,-160L-111,-165L-104,-172L-119,-180L-107,-183L-108,-188L-122,-191L-117,-202L-107,-205L-96,-193L-86,-203L-77,-198L-66,-207Z" fill="#E0E0E0" stroke="#fff" stroke-width=".4"/><path d="M366,95L368,96L372,101L375,102L377,100L381,96L384,101L388,107L391,108L393,110L387,111L386,118L385,121L383,123L383,127L381,128L377,123L379,119L377,116L374,117L366,123L366,117L363,116L360,113L362,110L358,107L360,105L357,103L356,101L357,100L363,102L366,103L367,102L364,97ZM364,124L359,122L356,118L355,115L356,115L358,117L361,117L361,118Z" fill="#E0E0E0" stroke="#fff" stroke-width=".4"/><path d="M321,81L322,79L328,81L338,83L347,87L349,89L353,87L359,89L361,93L366,95L364,97L367,102L366,103L363,102L357,100L356,101L346,102L340,98L332,98L333,94L331,88L328,85L324,84Z" fill="#E0E0E0" stroke="#fff" stroke-width=".4"/><path d="M879,325L875,320L881,320L884,323L882,329ZM891,345L893,343L893,338L897,338L896,343L901,336L900,342L898,345L896,349L894,351L889,346ZM917,355L918,360L918,364L916,370L913,363L910,367L912,372L910,375L902,371L900,366L902,363L898,360L896,362L892,362L887,366L886,364L889,358L893,356L897,354L899,357L905,355L906,352L911,351L910,346L916,349L916,353ZM863,349L854,356L857,351L862,347L866,342L870,335L871,341L866,344ZM889,286L888,289L890,294L889,300L884,302L883,308L885,314L889,315L892,314L900,318L900,322L902,323L901,327L896,323L893,319L891,322L887,318L881,319L877,317L878,314L880,312L878,311L877,313L873,309L872,306L872,299L875,302L876,290L878,284L882,284L886,286L888,284ZM887,334L886,331L890,333L895,333L894,336L891,339L887,341L887,338ZM911,329L913,337L908,335L908,338L909,342L906,343L906,339L904,338L903,334L907,334L907,332L902,326L909,327Z" fill="#E0E0E0" stroke="#fff" stroke-width=".4"/><path d="M736,369L737,368L743,371L743,374L748,374L750,371L751,371L756,376L758,380L759,385L758,388L759,390L759,394L762,396L764,402L764,405L759,405L753,400L745,395L744,391L740,387L739,381L736,377L737,372ZM858,385L852,384L844,384L842,392L839,394L836,404L830,405L824,403L820,404L816,407L812,407L808,408L803,404L802,400L807,402L812,401L813,395L816,394L825,392L830,387L833,382L836,386L838,384L841,384L841,380L842,376L847,371L850,366L853,366L857,369L857,372L862,374L867,376L867,379L862,379L863,383Z" fill="#E0E0E0" stroke="#fff" stroke-width=".4"/><path d="M842,376L841,380L841,384L838,384L836,386L833,382L836,380Z" fill="#E0E0E0" stroke="#fff" stroke-width=".4"/><path d="M141,51L147,51L150,49L156,49L157,47L159,47L160,51L154,53L154,57L151,58L151,61L149,61L146,59L145,61L140,61L142,60L140,56Z" fill="#E0E0E0" stroke="#fff" stroke-width=".4"/><path d="M243,-253L242,-240L252,-228L246,-214L254,-195L249,-181L256,-169L253,-158L263,-148L260,-140L254,-132L239,-113L227,-112L215,-107L203,-104L199,-112L193,-117L194,-131L191,-144L194,-153L200,-162L216,-180L221,-183L220,-190L210,-198L208,-205L208,-232L197,-245L188,-254L192,-259L200,-249L209,-250L216,-245L223,-254L226,-268L237,-275L246,-267Z" fill="#E0E0E0" stroke="#fff" stroke-width=".4"/><path d="M201,24L199,27L198,31L197,32L189,29L187,30L185,32L182,33L181,33L178,34L175,35L175,37L169,38L166,37L163,34L162,31L163,29L164,27L167,27L169,26L169,25L171,25L171,22L173,22L174,20L176,20L176,21L179,19L182,23L186,21L190,22L195,20Z" fill="#E0E0E0" stroke="#fff" stroke-width=".4"/><path d="M149,2L153,6L158,7L157,10L161,12L162,9L167,11L167,14L173,15L176,20L174,20L173,22L171,22L171,25L169,25L169,26L167,27L164,27L163,29L159,27L156,28L151,25L148,25L145,30L139,26L136,22L132,19L131,15L130,12L135,9L138,7L143,4L144,2L146,4Z" fill="#E0E0E0" stroke="#fff" stroke-width=".4"/><path d="M297,313L296,310L299,300L300,295L302,293L307,292L311,288L315,296L316,302L320,306L330,313L333,317L337,321L339,323L343,325L341,327L338,327L335,324L333,320L329,318L328,315L322,313L317,312L315,311L311,313L307,309L305,315Z" fill="#E0E0E0" stroke="#fff" stroke-width=".4"/><path d="M1024,120L1018,129L1018,138L1015,144L1016,149L1013,155L1004,159L992,159L982,169L977,165L977,159L965,161L957,165L949,165L956,171L951,185L947,188L943,185L945,178L941,176L938,170L944,167L948,162L955,158L960,152L974,150L981,151L988,136L993,140L1003,132L1007,128L1011,117L1010,107L1013,101L1020,100L1024,112ZM1043,76L1048,72L1049,82L1039,85L1033,94L1022,88L1018,98L1011,98L1010,89L1013,82L1020,81L1022,68L1024,60L1033,70L1038,74ZM958,169L962,164L966,165L969,161L974,163L975,166L971,171L968,168L965,170L963,175L958,173Z" fill="#E0E0E0" stroke="#fff" stroke-width=".4"/><path d="M404,280L410,292L412,297L407,299L406,302L405,305L399,308L387,311L381,316L378,317L376,316L372,319L368,320L362,321L360,321L359,323L357,324L356,325L352,325L350,326L345,326L344,322L344,318L343,316L341,311L339,308L341,307L340,304L341,303L341,299L344,297L343,294L345,291L348,292L349,292L357,292L359,292L365,293L368,293L370,295L373,294L378,286L384,283Z" fill="#E0E0E0" stroke="#fff" stroke-width=".4"/><path d="M287,202L294,203L297,201L299,198L304,197L305,194L308,193L301,185L315,181L316,179L324,182L334,187L354,203L367,204L373,205L375,208L379,208L382,215L386,217L387,219L391,223L392,226L391,228L392,231L394,233L395,236L396,237L398,239L400,238L401,241L402,243L404,251L425,254L426,253L429,258L425,273L404,280L384,283L378,286L373,294L370,295L368,293L365,293L359,292L357,292L349,292L348,292L345,291L343,294L344,297L341,299L340,296L338,294L337,291L334,289L330,283L328,277L323,272L320,270L316,263L315,258L315,254L311,246L308,243L304,241L302,237L302,235L300,231L298,229L296,224L291,217L288,212L284,212L286,208L286,205Z" fill="#E0E0E0" stroke="#fff" stroke-width=".4"/><path d="M271,155L272,155L273,153L278,153L284,150L279,154L280,155L279,155L278,156L277,156L276,156L276,155L276,154L275,154L273,155Z" fill="#E0E0E0" stroke="#fff" stroke-width=".4"/><path d="M271,155L273,155L275,154L276,154L276,155L276,156L277,156L278,156L279,155L280,155L280,156L273,159L270,158L268,155Z" fill="#E0E0E0" stroke="#fff" stroke-width=".4"/><path d="M31,154L33,160L34,165L36,174L38,175L37,179L28,180L25,183L21,184L20,190L12,193L10,197L4,199L-3,200L-14,206L-14,215L-15,215L-15,219L-19,220L-21,221L-25,221L-27,220L-33,221L-35,227L-37,228L-40,237L-50,246L-52,256L-55,259L-56,262L-71,262L-72,262L-71,259L-69,257L-66,253L-67,251L-64,245L-61,240L-58,239L-56,235L-56,231L-54,226L-49,223L-45,215L-45,215L-41,212L-35,211L-29,206L-26,204L-20,197L-22,187L-19,180L-18,176L-14,170L-7,167L-2,163L3,155L5,149L10,149L14,153L21,152L28,154Z" fill="#E0E0E0" stroke="#fff" stroke-width=".4"/><path d="M300,258L273,258L246,258L218,258L218,230L218,203L216,196L218,191L217,188L219,184L228,184L235,186L242,189L245,190L250,187L253,185L259,184L264,185L266,189L268,187L273,189L279,189L282,187L286,199L286,201L285,204L283,210L281,214L280,215L277,213L274,209L269,198L269,199L271,207L276,215L281,227L283,231L286,235L292,244L290,245L291,250L299,257Z" fill="#E0E0E0" stroke="#fff" stroke-width=".4"/><path d="M218,258L218,273L210,273L210,276L183,262L155,248L148,252L143,255L139,250L128,247L125,242L120,239L117,240L114,236L114,233L110,227L113,224L112,219L113,215L112,211L114,205L113,201L111,194L114,192L115,189L114,186L119,183L121,180L125,178L125,171L133,174L136,173L142,175L151,178L154,186L160,187L170,191L177,195L181,193L184,189L182,183L185,179L189,175L194,174L204,175L206,179L208,179L211,181L218,181L219,184L217,188L218,191L216,196L218,203L218,230Z" fill="#E0E0E0" stroke="#fff" stroke-width=".4"/><path d="M375,358L356,379L347,379L341,384L336,384L334,387L330,387L327,384L320,387L318,390L314,390L312,389L311,389L309,389L300,383L295,383L293,381L293,377L289,376L285,368L282,367L281,364L277,360L273,360L275,356L279,356L280,354L280,347L282,340L285,338L286,335L289,330L293,326L296,319L297,313L305,315L307,309L311,313L315,311L317,312L322,313L328,315L329,318L333,320L335,324L338,327L335,330L333,333L333,335L334,337L337,337L339,337L341,338L339,340L342,344L344,348L347,350L369,358Z" fill="#E0E0E0" stroke="#fff" stroke-width=".4"/><path d="M338,327L341,327L343,325L344,328L344,331L340,332L343,334L341,338L339,337L337,337L334,337L333,335L333,333L335,330Z" fill="#E0E0E0" stroke="#fff" stroke-width=".4"/><path d="M383,335L383,335L383,338L383,345L383,348L380,353L375,358L369,358L347,350L344,348L342,344L339,340L341,338L343,334L345,335L347,338L350,341L353,341L360,340L367,339L373,337L377,336L379,335Z" fill="#E0E0E0" stroke="#fff" stroke-width=".4"/><path d="M279,420L265,421L258,421L255,422L251,424L250,423L250,418L251,415L252,410L253,406L256,403L258,401L261,399L258,398L258,389L261,388L265,389L271,388L276,388L280,384L283,389L284,393L287,401L285,406L281,410L279,413Z" fill="#E0E0E0" stroke="#fff" stroke-width=".4"/><path d="M255,422L258,425L258,429L256,430L252,430L250,434L246,433L246,430L247,429L248,425L250,423L251,424Z" fill="#E0E0E0" stroke="#fff" stroke-width=".4"/><path d="M174,88L168,84L165,81L162,78L159,75L158,72L154,67L156,63L158,66L160,63L163,63L169,65L174,65L177,67L179,67L178,71L181,75L180,79L178,80L177,81L175,83Z" fill="#E0E0E0" stroke="#fff" stroke-width=".4"/><path d="M200,91L203,94L204,100L203,101L201,102L198,102L195,104L191,105L188,103L187,99L188,95L189,95L189,94L193,92L194,92L197,91Z" fill="#E0E0E0" stroke="#fff" stroke-width=".4"/><path d="M176,57L181,54L185,54L189,58L190,61L194,64L194,68L198,71L201,68L202,70L201,71L202,73L200,75L201,79L204,83L202,86L200,89L201,90L200,91L197,91L194,92L194,91L195,90L196,88L195,88L194,86L192,86L191,84L190,84L189,82L188,83L187,86L185,86L186,86L183,84L181,83L180,81L178,80L180,79L181,75L178,71L179,67L177,67L179,63L177,60Z" fill="#E0E0E0" stroke="#fff" stroke-width=".4"/><path d="M184,89L182,89L182,88L179,92L179,95L178,94L176,91L173,90L174,88L175,83L177,81L178,80L180,81L181,83L183,84L186,86L185,86Z" fill="#E0E0E0" stroke="#fff" stroke-width=".4"/><path d="M188,95L187,92L186,91L184,89L185,86L187,86L188,83L189,82L190,84L191,84L192,86L194,86L195,88L196,88L195,90L194,91L194,92L193,92L189,94L189,95Z" fill="#E0E0E0" stroke="#fff" stroke-width=".4"/><path d="M258,389L252,385L251,382L247,383L244,383L242,384L239,383L234,378L233,375L228,373L226,368L224,365L219,362L219,360L215,357L210,354L213,353L215,352L217,346L219,342L224,342L225,343L228,348L230,348L233,347L238,347L239,349L245,349L246,347L249,346L250,344L253,342L258,346L262,346L265,341L269,337L269,333L267,331L271,330L271,329L275,329L274,334L275,339L278,342L279,345L279,348L280,348L280,354L279,356L275,356L273,360L277,360L281,364L282,367L285,368L289,376L284,380L280,384L276,388L271,388L265,389L261,388Z" fill="#E0E0E0" stroke="#fff" stroke-width=".4"/></g><g clip-path="url(#v)"><path d="M433.1,220.9L432.4,221.8L431.5,222.6L431.0,222.3L430.7,222.3L430.0,222.6L429.6,222.7L428.6,223.2L427.8,223.5L427.2,223.5L427.0,223.4L426.9,223.0L426.9,222.9L427.3,223.0L428.6,222.5L430.1,221.7L430.3,221.4L430.0,220.8L430.1,220.7L431.1,221.0L432.3,220.4L433.2,220.2L433.7,220.6ZM417.4,135.8L419.3,135.9L420.1,135.7L421.2,135.3L422.0,135.0L422.4,134.9L422.8,134.7L423.1,134.4L423.8,132.5L424.2,132.0L425.4,130.9L426.4,130.3L427.5,129.7L428.9,129.2L430.7,129.3L432.1,129.4L433.0,129.4L433.3,129.5L433.6,129.4L433.8,129.3L434.0,128.4L434.3,128.2L434.8,127.9L435.5,127.9L436.4,127.8L437.1,127.9L438.0,128.2L439.2,128.3L440.0,128.2L440.5,128.5L440.8,129.0L441.0,129.3L441.0,129.8L441.0,130.2L441.1,130.3L441.6,130.6L442.3,130.7L443.6,130.9L444.8,131.3L445.4,131.6L446.3,132.0L447.4,133.0L447.8,133.2L448.2,133.3L448.6,133.2L449.4,132.8L450.1,133.1L450.4,133.1L451.2,132.9L452.0,133.2L454.1,134.3L454.3,134.2L454.5,134.4L454.7,134.6L454.8,134.9L455.0,135.9L455.6,136.6L456.3,137.2L457.2,137.6L459.0,138.4L459.8,139.1L460.6,140.3L461.6,141.8L461.7,141.9L464.2,141.9L467.1,141.9L467.4,142.5L467.3,143.7L467.4,144.9L467.7,145.7L467.7,146.5L467.5,146.9L467.3,147.4L467.3,147.6L467.7,147.8L468.0,148.5L468.0,149.4L467.9,149.9L467.9,150.3L468.1,150.6L468.2,151.2L468.2,151.5L467.9,151.8L467.8,152.3L467.6,152.8L467.5,153.2L467.2,153.4L467.0,153.5L467.0,154.1L467.1,154.5L467.3,155.0L467.1,155.4L467.0,155.8L466.7,156.5L466.8,157.0L466.5,157.5L466.2,157.9L466.0,158.3L465.9,158.7L465.7,158.9L465.2,159.3L464.9,159.6L464.4,159.6L464.4,159.9L464.4,160.1L464.6,160.2L464.9,160.7L465.5,161.5L463.8,161.6L463.3,162.4L462.7,163.4L463.0,165.5L462.7,166.6L462.9,167.2L463.3,167.6L463.9,167.8L464.9,167.9L465.6,168.0L465.7,168.3L465.3,168.7L464.6,169.5L464.3,169.8L463.2,171.3L463.2,172.0L463.3,172.5L463.8,174.2L464.2,175.8L465.1,178.6L465.1,179.3L464.8,180.7L464.8,181.6L464.9,182.8L464.8,183.4L465.0,184.7L465.2,184.8L467.0,185.1L468.6,185.3L470.8,185.6L471.5,186.4L471.9,188.1L471.8,189.4L471.7,190.1L470.1,191.9L468.5,193.8L467.0,195.7L465.2,197.9L466.5,199.4L467.3,200.4L468.4,201.7L468.6,202.0L468.6,202.6L469.8,204.6L470.2,205.7L470.6,206.3L471.5,207.3L472.4,208.2L473.4,208.7L474.1,208.8L475.6,209.2L476.1,209.7L477.0,210.7L478.1,210.5L478.3,210.5L478.4,210.6L478.4,210.9L478.2,212.5L478.5,214.0L478.7,216.4L478.7,216.8L478.4,217.5L478.4,217.9L478.3,218.2L478.4,218.3L478.7,218.5L479.5,218.6L481.2,218.3L481.4,218.4L481.8,218.7L482.1,219.1L482.1,219.3L481.7,219.7L481.6,220.3L481.8,221.2L481.7,221.3L481.3,221.5L481.2,222.8L481.1,223.0L480.7,223.1L478.6,223.0L478.3,223.0L477.5,223.4L476.2,223.7L475.8,223.8L475.3,224.2L474.9,224.7L474.9,225.1L474.8,225.2L474.0,225.1L473.8,225.5L472.2,226.1L472.1,226.2L471.8,226.7L471.6,228.0L471.4,229.2L471.3,229.3L470.9,229.7L470.8,229.9L470.9,230.3L470.7,231.2L470.5,233.4L470.3,234.1L469.9,234.1L469.6,234.4L469.1,234.8L467.9,234.5L467.0,234.2L463.9,233.5L463.6,233.1L463.4,232.5L462.9,232.3L462.1,233.2L459.5,232.7L458.6,232.8L458.1,232.6L456.7,232.5L455.6,231.9L454.0,232.3L452.8,232.4L451.1,231.4L449.2,231.1L447.7,231.2L447.0,231.1L445.7,230.7L445.1,230.3L444.2,230.6L443.7,230.1L441.0,229.6L440.5,228.6L440.1,227.7L440.1,226.8L439.4,225.1L439.2,222.7L438.9,221.8L438.6,221.0L438.1,220.3L437.4,219.6L436.8,219.3L434.2,218.7L433.7,218.8L432.6,219.2L431.4,220.0L429.4,220.4L429.0,220.8L428.5,221.6L427.8,222.0L426.9,221.9L426.0,222.4L424.2,223.7L423.2,224.1L422.4,224.1L421.6,223.4L419.7,222.6L418.5,222.3L416.8,222.5L416.0,222.4L414.6,221.4L414.2,220.7L413.4,220.2L411.0,219.2L409.0,217.8L408.6,217.2L408.4,216.4L407.5,215.5L405.5,214.7L404.4,213.9L403.1,213.7L401.9,213.7L401.4,213.6L400.9,213.2L399.2,211.5L399.2,210.8L398.2,209.1L398.0,208.5L397.7,206.8L397.5,206.4L396.4,205.7L396.2,205.2L396.5,204.6L396.5,204.2L395.9,203.7L395.1,203.5L394.9,203.0L395.0,202.0L394.9,201.3L394.2,200.3L393.1,199.3L392.0,197.7L391.6,197.4L391.3,196.3L390.9,195.1L390.3,195.1L387.4,196.5L386.5,195.7L383.9,194.3L383.7,194.1L383.5,193.7L383.9,193.6L384.2,193.5L384.8,193.7L385.2,193.4L385.1,193.0L384.4,192.7L383.5,192.7L383.8,193.1L382.9,193.6L382.8,194.1L382.9,194.8L383.0,195.8L382.6,196.2L382.4,196.4L381.3,196.5L380.7,196.9L380.4,197.0L379.9,196.7L379.6,196.4L379.4,195.9L379.3,195.4L379.4,195.2L379.3,194.9L378.9,194.5L378.5,194.2L378.2,194.2L377.9,193.9L377.7,193.4L377.1,193.1L376.7,193.0L376.7,191.5L376.7,190.1L376.7,188.8L375.5,188.7L374.4,188.7L374.4,187.6L374.4,185.5L374.9,183.9L375.4,182.3L374.7,181.2L373.8,179.9L373.3,179.4L372.6,177.9L372.3,177.2L372.0,176.9L371.7,176.8L370.6,176.8L369.5,176.0L368.3,175.0L366.8,173.8L365.4,173.0L364.9,172.9L363.6,172.8L363.5,172.7L363.4,172.2L363.4,171.7L363.8,171.0L363.9,170.6L363.0,169.0L362.7,168.6L362.0,168.4L362.1,168.0L362.1,167.7L362.0,167.4L361.8,167.3L361.6,167.3L361.0,167.5L360.6,166.8L359.2,164.8L358.8,164.6L358.7,164.4L359.0,163.8L359.6,162.9L359.7,162.4L359.6,161.8L359.0,160.7L359.1,160.3L359.4,159.7L359.4,159.3L359.8,159.4L360.3,159.4L360.5,159.1L360.5,157.9L360.6,157.5L362.3,155.6L363.1,155.2L363.8,154.8L363.9,154.2L363.8,153.9L363.7,153.4L363.6,153.1L362.9,152.2L362.7,151.8L362.6,151.4L362.8,150.7L363.1,150.1L364.1,149.8L364.6,149.5L364.7,149.3L364.0,148.9L362.4,148.8L361.3,148.9L360.9,148.8L360.4,148.0L359.8,147.6L359.3,147.3L358.8,147.3L358.4,147.2L358.4,146.9L357.6,144.3L357.4,144.0L357.0,143.9L356.7,143.9L356.5,143.7L356.3,143.3L356.2,142.9L356.2,142.3L356.2,141.7L356.1,141.4L355.8,141.0L355.4,140.8L355.1,140.5L354.5,138.2L354.3,137.6L354.3,137.6L354.3,137.4L354.3,136.9L354.5,136.5L354.5,136.3L354.0,135.7L353.2,135.1L353.0,135.0L353.0,134.4L353.0,133.9L353.0,133.5L352.8,133.3L352.8,133.1L353.1,132.6L352.9,132.3L351.8,131.6L351.4,131.2L350.6,131.1L350.5,130.9L350.6,130.4L350.9,129.8L351.3,129.1L351.5,128.8L351.6,128.3L351.7,127.9L352.1,127.3L352.2,127.2L352.0,127.0L351.6,126.9L351.2,126.8L351.1,126.7L351.0,126.4L351.1,125.2L351.0,124.5L350.8,123.9L350.9,122.7L350.7,122.5L350.2,121.9L350.1,121.3L350.2,121.1L350.2,120.8L350.3,120.3L350.3,120.0L349.9,119.7L349.6,119.3L349.6,119.0L349.5,118.5L349.3,118.2L349.2,117.9L349.4,117.8L349.9,117.7L350.7,117.8L351.4,117.8L351.7,117.5L352.2,115.3L352.6,114.8L353.1,114.4L354.1,115.2L354.4,115.5L354.7,115.5L354.8,115.7L355.9,117.5L356.4,118.1L356.7,118.5L356.9,119.0L357.3,119.4L357.7,119.6L358.3,120.1L358.6,120.4L359.3,121.2L359.9,121.5L362.3,122.1L363.6,122.4L364.0,122.4L365.0,122.1L366.2,122.1L366.7,122.1L368.2,120.5L368.7,120.0L369.7,119.7L370.2,119.0L371.0,118.3L372.1,117.5L373.0,116.9L373.8,116.4L375.1,115.5L375.9,115.2L376.6,115.2L377.7,116.3L378.6,117.3L378.8,117.7L378.4,118.1L377.6,118.5L377.4,118.8L377.4,119.1L377.4,119.5L377.5,119.8L378.5,120.4L378.6,120.8L378.6,121.1L378.5,121.3L378.3,121.5L377.6,121.7L377.0,121.9L376.8,122.1L376.6,122.3L376.6,122.6L376.8,122.9L378.1,123.7L378.2,124.0L378.4,124.5L378.7,124.7L379.3,124.8L379.5,124.9L380.7,126.5L381.0,126.6L382.4,126.3L382.6,126.3L382.6,126.7L382.8,128.8L383.0,130.0L383.2,131.1L383.6,132.1L384.1,133.0L384.7,133.6L386.1,134.3L386.8,134.5L388.5,134.6L390.3,134.9L391.3,135.3L391.6,135.5L391.9,135.8L392.7,137.5L394.1,138.7L396.8,140.4L398.1,141.0L402.6,142.1L405.5,142.0L413.7,139.9L416.4,139.4L417.4,139.4L416.8,139.8L415.8,140.1L416.4,140.4L417.3,140.4L417.8,140.4L418.1,140.1L418.2,139.6L418.1,139.2L417.7,137.2Z" fill="#4ECDC4" stroke="#2C3E50" stroke-width="1"/></g><circle cx="400.0" cy="150.0" r="4" fill="#E74C3C" stroke="#fff" stroke-width="2"/><text x="400.0" y="140.0" text-anchor="middle" font-family="sans-serif" font-weight="700" font-size="10" fill="#2D3436">Tehran</text></svg>