<svg viewBox="0 0 800 300" xmlns="http://www.w3.org/2000/svg"><defs><clipPath id="v"><rect width="800" height="300"/></clipPath></defs><rect width="800" height="300" fill="#DCEEF8"/><g clip-path="url(#v)"><path d="M-1287,618L-1289,618L-1322,592L-1334,581L-1364,570L-1373,546L-1371,530L-1392,518L-1395,496L-1415,475L-1416,460L-1406,446L-1407,427L-1435,408L-1452,373L-1463,350L-1478,336L-1489,323L-1498,305L-1515,316L-1531,334L-1546,313L-1558,298L-1574,289L-1591,288L-1591,77L-1590,-88L-1559,-77L-1533,-54L-1516,-50L-1501,-70L-1481,-84L-1456,-79L-1431,-100L-1403,-112L-1392,-92L-1379,-103L-1376,-126L-1364,-121L-1336,-77L-1314,-110L-1311,-73L-1291,-81L-1284,-95L-1264,-93L-1239,-73L-1200,-55L-1176,-47L-1160,-50L-1138,-27L-1161,-5L-1131,5L-1086,-0L-1071,-8L-1054,18L-1036,-4L-1053,-23L-1042,-39L-1021,-41L-1008,-45L-995,-34L-978,-10L-959,-13L-930,7L-904,-0L-879,1L-881,-27L-866,-35L-840,-20L-840,22L-830,-13L-816,-12L-809,-58L-827,-87L-846,-107L-845,-163L-825,-201L-803,-192L-786,-169L-763,-112L-778,-88L-747,-78L-747,-30L-725,-67L-705,-37L-710,-3L-694,26L-676,-6L-664,-45L-663,-97L-639,-93L-615,-86L-592,-62L-591,-39L-604,-15L-592,9L-594,30L-627,60L-650,66L-667,53L-672,74L-688,108L-693,126L-713,152L-737,154L-750,170L-751,195L-770,199L-791,229L-809,268L-815,295L-816,333L-792,338L-784,368L-776,392L-753,386L-722,399L-705,411L-693,425L-672,433L-655,445L-627,447L-609,450L-611,475L-606,503L-594,534L-569,560L-556,551L-547,523L-556,479L-568,464L-541,450L-522,430L-513,409L-514,388L-526,362L-546,338L-526,303L-534,273L-539,218L-527,210L-499,219L-482,223L-468,213L-452,226L-432,246L-427,260L-397,262L-397,291L-392,333L-376,338L-364,357L-340,339L-324,303L-313,287L-300,317L-278,358L-260,396L-266,415L-244,431L-229,448L-203,456L-192,465L-185,489L-172,493L-165,504L-164,535L-176,545L-188,554L-216,564L-237,586L-265,590L-301,584L-326,584L-343,586L-357,604L-379,616L-403,649L-422,672L-408,668L-381,635L-346,614L-321,612L-306,624L-322,641L-317,668L-311,686L-289,698L-262,695L-245,667L-244,685L-233,694L-254,709L-291,723L-307,733L-326,750L-339,748L-339,728L-310,709L-337,710L-356,712L-367,699L-367,666L-374,659L-385,663L-391,657L-404,675L-409,694L-415,705L-422,708L-427,710L-429,716L-460,716L-485,716L-492,720L-510,737L-512,739L-518,748L-533,748L-549,748L-557,751L-554,756L-553,763L-553,765L-575,777L-592,780L-612,792L-616,792L-621,789L-623,785L-623,783L-619,775L-611,763L-607,749L-610,729L-613,707L-631,696L-629,692L-631,689L-636,689L-639,685L-640,679L-643,682L-648,681L-647,679L-651,676L-652,670L-665,662L-679,654L-695,644L-711,635L-726,642L-731,643L-752,636L-765,639L-782,632L-799,628L-810,626L-816,622L-819,608L-824,608L-824,618L-859,618L-916,618L-973,618L-1023,618L-1073,618L-1123,618L-1174,618L-1190,618L-1240,618ZM-638,213L-625,196L-602,197L-603,204L-622,224L-634,223ZM-567,-250L-585,-280L-585,-301L-577,-305L-538,-299L-510,-267L-508,-251L-526,-253L-544,-254L-562,-246ZM-576,226L-570,216L-563,216L-559,224L-565,242L-572,239L-577,229ZM-798,-381L-807,-356L-832,-361L-852,-378L-843,-407L-819,-425L-804,-402ZM-802,-560L-810,-558L-841,-563L-846,-585L-812,-584L-800,-569ZM-851,-662L-831,-632L-835,-603L-860,-586L-874,-605L-881,-636L-882,-671L-861,-667ZM-707,-344L-734,-352L-778,-372L-784,-408L-786,-441L-803,-472L-838,-480L-857,-503L-851,-533L-816,-528L-798,-504L-765,-504L-750,-481L-754,-454L-735,-439L-724,-423L-702,-420L-677,-414L-651,-429L-617,-434L-590,-430L-572,-404L-568,-377L-578,-360L-603,-347L-625,-355L-673,-345ZM-1094,-610L-1070,-598L-1076,-574L-1107,-552L-1131,-577L-1118,-602ZM-1088,-665L-1067,-648L-1087,-631L-1115,-632L-1115,-643L-1097,-669ZM-163,557L-172,574L-183,597L-172,588L-161,594L-167,603L-152,610L-144,603L-127,611L-132,630L-121,626L-119,639L-113,654L-121,676L-128,677L-139,672L-135,652L-140,649L-159,670L-169,670L-158,658L-174,652L-192,653L-224,653L-227,645L-216,637L-224,630L-209,614L-192,573L-182,558L-167,549L-160,550ZM-636,113L-617,126L-598,138L-597,157L-584,154L-572,166L-587,178L-613,169L-623,152L-639,172L-663,191L-669,169L-692,173L-677,154L-675,124L-669,87L-657,91L-654,108L-645,102ZM-550,-225L-534,-247L-497,-219L-474,-193L-472,-170L-441,-182L-424,-148L-383,-128L-369,-108L-353,-63L-384,-42L-344,-12L-318,-2L-294,38L-267,41L-273,70L-302,117L-322,100L-349,61L-370,66L-372,89L-355,113L-332,131L-325,141L-314,179L-320,205L-341,195L-383,165L-360,197L-342,219L-339,232L-385,218L-421,196L-441,178L-435,168L-460,148L-484,130L-484,141L-532,147L-547,134L-536,105L-504,104L-470,99L-475,84L-470,64L-448,22L-453,3L-459,-12L-485,-34L-518,-50L-508,-62L-525,-91L-540,-94L-553,-111L-562,-96L-593,-90L-653,-101L-689,-115L-716,-123L-730,-140L-712,-164L-736,-164L-741,-218L-729,-268L-711,-292L-668,-308L-680,-270L-667,-235L-652,-281L-610,-305L-581,-245L-583,-209ZM-813,-328L-778,-326L-747,-311L-771,-259L-791,-248L-809,-207L-828,-209L-839,-257L-839,-286L-830,-311ZM-1287,-457L-1259,-511L-1225,-560L-1199,-559L-1176,-570L-1178,-512L-1191,-486L-1207,-483L-1238,-453L-1265,-442ZM-1452,482L-1436,480L-1441,512L-1427,534L-1433,534L-1443,521L-1449,508L-1458,500L-1461,487L-1460,478ZM-997,-709L-964,-697L-919,-665L-906,-625L-900,-591L-927,-600L-954,-626L-992,-629L-976,-654L-996,-675ZM-1298,630L-1307,634L-1334,622L-1339,613L-1354,604L-1357,597L-1374,592L-1381,578L-1379,572L-1362,577L-1352,581L-1336,584L-1330,593L-1322,605L-1305,616ZM-1265,-347L-1241,-335L-1199,-331L-1182,-313L-1165,-288L-1186,-274L-1227,-234L-1247,-196L-1247,-172L-1291,-148L-1300,-170L-1339,-198L-1332,-221L-1320,-262L-1305,-301L-1322,-338ZM-1036,-439L-1021,-450L-1004,-447L-1001,-414L-1011,-383L-1067,-373L-1110,-345L-1135,-344L-1137,-364L-1102,-393L-1140,-390L-1178,-385L-1201,-397L-1179,-463L-1163,-483L-1116,-459L-1086,-419L-1057,-413L-1081,-479L-1065,-506L-1048,-497L-1042,-463ZM-1014,-265L-996,-242L-985,-189L-980,-152L-952,-127L-922,-104L-923,-82L-951,-78L-940,-60L-946,-43L-976,-50L-1005,-63L-1024,-60L-1056,-44L-1098,-38L-1128,-33L-1137,-55L-1160,-68L-1174,-63L-1195,-101L-1184,-106L-1158,-114L-1135,-112L-1113,-121L-1145,-132L-1181,-128L-1205,-129L-1213,-148L-1175,-169L-1200,-168L-1230,-182L-1216,-222L-1204,-244L-1159,-279L-1142,-268L-1150,-241L-1113,-258L-1090,-230L-1071,-259L-1056,-240L-1042,-187L-1034,-209L-1046,-266L-1031,-274ZM-913,-244L-931,-282L-911,-310L-891,-298L-861,-305L-857,-288L-873,-260L-847,-236L-850,-187L-878,-167L-894,-171L-905,-191L-947,-233L-947,-251ZM-1016,-296L-993,-298L-980,-285L-995,-247L-1021,-287ZM-880,-500L-867,-467L-867,-432L-874,-382L-902,-376L-920,-386L-920,-425L-947,-419L-948,-473L-930,-471L-905,-495L-881,-491ZM-839,-834L-827,-865L-810,-873L-817,-898L-778,-903L-757,-846L-729,-824L-701,-805L-688,-742L-668,-712L-691,-686L-722,-621L-751,-616L-786,-626L-804,-660L-804,-692L-791,-716L-821,-715L-840,-746L-850,-789ZM-765,-976L-740,-999L-720,-1003L-687,-1023L-663,-1070L-642,-1064L-624,-1028L-611,-1098L-589,-1120L-559,-1135L-508,-1141L-499,-1126L-451,-1149L-415,-1140L-378,-1132L-334,-1121L-298,-1103L-267,-1067L-268,-1033L-309,-980L-349,-956L-364,-930L-328,-931L-367,-865L-395,-835L-423,-755L-458,-739L-468,-721L-519,-711L-496,-699L-508,-684L-494,-641L-510,-613L-535,-590L-543,-559L-567,-537L-564,-520L-536,-522L-535,-504L-580,-462L-624,-481L-673,-470L-698,-479L-729,-482L-732,-517L-701,-534L-709,-590L-699,-596L-654,-562L-677,-613L-704,-628L-690,-661L-661,-682L-656,-713L-680,-749L-687,-798L-641,-794L-628,-783L-602,-820L-639,-831L-698,-825L-727,-860L-741,-903L-761,-936ZM-491,15L-502,28L-520,30L-525,9L-517,-16L-502,-22L-489,-10L-489,9ZM-843,-78L-832,-60L-843,-43L-865,-58L-879,-52L-902,-74L-887,-88L-875,-109L-858,-96L-848,-87ZM-312,595L-306,593L-284,599L-267,610L-267,615L-275,615L-296,607ZM-303,667L-298,679L-285,682L-270,681L-278,691L-284,693L-306,682L-310,674Z" fill="#E0E0E0" stroke="#fff" stroke-width=".4"/><path d="M2335,-878L2371,-902L2403,-849L2442,-753L2438,-672L2401,-661L2355,-686L2327,-720L2314,-788L2291,-807ZM2486,-707L2529,-657L2524,-623L2476,-608L2429,-592L2460,-703L2474,-713ZM3088,-459L3132,-456L3193,-419L3180,-371L3118,-373L3090,-358L3057,-399L3066,-446ZM3245,-405L3287,-388L3268,-362L3241,-368L3210,-394L3214,-415ZM3105,-282L3121,-306L3142,-311L3166,-288L3168,-273L3143,-273L3108,-279ZM1517,-832L1549,-851L1575,-853L1578,-825L1588,-849L1604,-867L1628,-844L1622,-828L1599,-815L1584,-807L1582,-791L1563,-775L1544,-798L1554,-829ZM1147,474L1116,474L1096,471L1099,458L1122,449L1140,454L1147,458L1146,466ZM1662,-305L1702,-359L1697,-388L1734,-422L1790,-467L1845,-480L1874,-507L1906,-516L1918,-488L1907,-465L1848,-431L1797,-399L1745,-339L1720,-280L1693,-226L1697,-181L1729,-138L1719,-134L1664,-140L1660,-163L1630,-177L1627,-206L1644,-218L1644,-248L1677,-297ZM3156,492L3162,518L3162,545L3169,572L3186,618L3161,610L3150,646L3167,672L3166,689L3154,674L3143,693L3140,672L3141,648L3140,621L3143,602L3144,567L3134,540L3136,503L3151,490L3145,477L3152,473ZM-2243,-53L-2243,-53L-2202,-18L-2158,26L-2159,52L-2148,63L-2152,32L-2107,38L-2074,78L-2091,95L-2118,99L-2118,138L-2125,146L-2141,145L-2153,131L-2176,120L-2179,103L-2196,96L-2215,101L-2224,87L-2221,72L-2241,82L-2233,101L-2243,118L-2243,118L-2243,-53ZM3776,118L3776,118L3755,135L3733,132L3748,153L3758,184L3766,194L3768,209L3764,219L3732,211L3686,238L3671,242L3645,266L3621,287L3615,302L3591,279L3547,305L3540,293L3524,307L3501,303L3496,324L3476,356L3476,368L3495,375L3493,420L3478,421L3471,446L3478,459L3448,473L3442,506L3417,512L3412,540L3388,565L3382,547L3375,507L3366,443L3374,402L3388,383L3389,369L3415,362L3445,321L3473,287L3503,260L3517,210L3497,213L3487,242L3444,280L3430,237L3387,249L3345,306L3359,327L3322,335L3296,338L3297,315L3271,310L3251,326L3199,320L3144,330L3090,392L3026,462L3053,466L3061,484L3077,490L3088,476L3106,478L3130,509L3131,532L3118,559L3116,591L3109,632L3084,668L3078,684L3055,712L3033,739L3022,753L3000,767L2989,767L2979,756L2956,772L2954,780L2954,780L2951,776L2951,764L2960,764L2962,737L2958,716L2972,708L2992,712L3003,689L3009,662L3016,653L3024,631L2997,638L2982,648L2957,648L2950,624L2930,606L2901,598L2895,572L2889,556L2883,545L2873,517L2858,507L2833,498L2811,499L2790,504L2776,518L2785,525L2786,540L2776,548L2761,577L2761,588L2738,604L2718,595L2698,597L2689,588L2679,585L2655,604L2633,608L2617,614L2596,610L2581,610L2570,597L2554,585L2537,581L2516,585L2500,589L2477,579L2473,559L2454,552L2439,549L2420,537L2403,565L2409,581L2393,599L2369,592L2352,591L2341,579L2324,579L2309,571L2284,583L2252,606L2234,610L2228,612L2219,596L2197,600L2190,589L2178,584L2170,568L2161,564L2137,571L2114,555L2105,569L2068,500L2046,478L2052,469L2011,496L1995,498L1996,482L1974,472L1957,479L1952,449L1922,443L1907,455L1865,466L1857,473L1794,483L1786,493L1798,512L1782,519L1786,526L1770,540L1797,558L1792,571L1769,570L1764,578L1743,564L1716,564L1698,576L1679,565L1642,546L1616,547L1581,576L1579,595L1562,580L1549,608L1553,614L1544,633L1558,650L1570,649L1581,666L1579,678L1588,682L1580,697L1564,700L1547,725L1563,747L1561,763L1579,789L1569,798L1566,804L1559,802L1547,789L1543,788L1532,783L1527,774L1512,769L1501,772L1498,768L1476,757L1451,753L1437,750L1435,752L1414,733L1395,724L1380,710L1392,706L1406,686L1397,676L1421,666L1421,661L1406,665L1406,654L1415,647L1431,645L1434,637L1430,623L1437,610L1437,602L1412,594L1402,594L1392,582L1379,586L1358,577L1358,572L1352,560L1339,559L1338,550L1342,545L1331,530L1314,532L1309,531L1305,537L1298,536L1294,518L1290,509L1294,507L1307,508L1313,501L1309,494L1297,489L1298,484L1292,479L1281,460L1285,452L1283,438L1267,431L1258,435L1256,427L1238,420L1233,402L1231,387L1223,380L1230,370L1225,340L1237,322L1235,316L1254,297L1236,281L1272,237L1287,217L1294,198L1269,173L1276,148L1261,119L1272,85L1253,37L1268,4L1242,-25L1245,-58L1258,-62L1287,-81L1304,-98L1332,-69L1377,-58L1441,-6L1453,15L1454,43L1436,66L1409,77L1372,60L1334,45L1322,50L1349,81L1350,99L1351,140L1373,152L1386,161L1388,143L1378,126L1388,111L1429,136L1443,126L1432,97L1471,57L1486,59L1502,74L1511,45L1498,19L1506,-7L1493,-35L1540,-20L1550,5L1529,10L1529,34L1542,49L1568,40L1572,12L1607,-9L1665,-48L1678,-46L1661,-18L1682,-13L1694,-29L1725,-30L1750,-49L1769,-22L1788,-52L1771,-79L1779,-95L1829,-81L1852,-66L1912,-13L1924,-37L1907,-61L1906,-71L1886,-76L1891,-99L1882,-138L1882,-154L1913,-202L1924,-252L1936,-263L1981,-248L1984,-217L1968,-174L1979,-157L1984,-122L1980,-56L1999,-27L1991,2L1959,63L1978,69L1984,54L2003,44L2007,22L2022,2L2012,-24L2020,-54L2002,-58L1997,-84L2011,-134L1989,-176L2019,-212L2015,-251L2024,-253L2032,-222L2026,-170L2044,-160L2036,-198L2064,-220L2099,-223L2130,-192L2115,-237L2113,-299L2142,-311L2182,-308L2219,-316L2205,-348L2224,-390L2243,-392L2276,-425L2320,-434L2326,-452L2370,-459L2383,-443L2421,-481L2452,-479L2456,-511L2472,-542L2512,-574L2540,-549L2518,-530L2555,-519L2560,-483L2575,-500L2624,-500L2662,-465L2675,-439L2671,-404L2653,-384L2609,-349L2596,-331L2617,-322L2641,-307L2657,-318L2665,-280L2672,-295L2699,-305L2753,-295L2757,-268L2827,-259L2828,-304L2863,-293L2890,-294L2917,-263L2925,-227L2915,-204L2936,-163L2962,-142L2978,-196L3005,-173L3033,-187L3066,-171L3078,-185L3106,-178L3093,-228L3116,-252L3154,-245L3192,-237L3230,-227L3267,-216L3281,-184L3324,-145L3392,-154L3425,-146L3439,-125L3437,-89L3458,-75L3480,-85L3510,-86L3541,-77L3573,-82L3602,-40L3623,-55L3609,-86L3617,-107L3670,-94L3705,-96L3753,-74L3776,-53L3776,118ZM3776,-144L3758,-141L3755,-158L3776,-179L3776,-144ZM-2243,-179L-2243,-179L-2243,-179L-2241,-182L-2226,-181L-2202,-166L-2204,-159L-2221,-147L-2243,-144L-2243,-144L-2243,-179ZM1326,693L1330,687L1342,692L1348,693L1350,697L1352,698L1352,700L1361,706L1378,705L1374,713L1356,717L1333,731L1324,726L1328,715L1309,708L1312,703L1328,695Z" fill="#E0E0E0" stroke="#fff" stroke-width=".4"/><path d="M1020,-743L1026,-775L1051,-779L1072,-746L1127,-678L1085,-644L1076,-584L1061,-569L1053,-507L1033,-504L997,-550L1012,-577L987,-600L954,-671L941,-741L987,-775L996,-742ZM1287,-81L1258,-62L1245,-58L1252,-91L1231,-110L1205,-94L1196,-59L1180,-38L1162,-50L1141,-47L1122,-72L1112,-60L1102,-58L1099,-27L1068,-35L1063,-10L1047,-10L1036,22L1019,69L994,125L1000,139L994,154L977,153L966,188L967,236L978,254L972,294L959,317L951,336L940,316L907,353L885,361L862,345L856,310L850,230L866,207L910,176L943,137L973,81L1014,-1L1042,-34L1088,-94L1124,-115L1152,-112L1177,-154L1208,-152L1238,-162L1290,-125L1269,-112ZM1225,-779L1200,-729L1152,-718L1103,-733L1100,-759L1076,-761L1057,-805L1109,-833L1133,-809L1150,-839L1192,-814ZM1180,-586L1143,-554L1113,-572L1125,-593L1115,-619L1149,-635L1156,-605Z" fill="#E0E0E0" stroke="#fff" stroke-width=".4"/><path d="M-15,-1067L12,-1107L41,-1148L100,-1142L121,-1195L180,-1210L248,-1203L314,-1191L369,-1135L418,-1080L387,-1030L323,-1025L278,-1020L233,-1013L242,-991L301,-1004L351,-963L384,-1000L398,-957L379,-892L422,-933L462,-956L503,-978L553,-955L563,-907L527,-869L495,-831L485,-808L432,-791L470,-786L451,-718L437,-661L438,-569L458,-520L432,-517L404,-494L435,-456L439,-399L421,-392L443,-338L406,-333L425,-309L420,-288L396,-279L373,-279L394,-240L394,-215L361,-238L352,-223L375,-210L397,-177L403,-135L373,-126L360,-145L340,-175L345,-140L326,-114L370,-111L393,-109L348,-67L303,-30L254,-15L236,-14L218,3L195,48L159,77L147,79L125,89L101,99L87,123L87,150L78,175L51,205L58,233L50,262L42,295L18,297L-7,270L-40,269L-56,250L-68,216L-96,170L-105,145L-107,110L-130,72L-124,42L-136,27L-119,-25L-94,-42L-87,-62L-84,-99L-103,-82L-112,-75L-127,-68L-147,-84L-149,-117L-142,-143L-127,-144L-92,-131L-121,-163L-136,-181L-153,-174L-167,-187L-148,-237L-158,-258L-171,-299L-192,-364L-213,-389L-213,-416L-258,-456L-293,-461L-338,-459L-379,-453L-398,-476L-427,-521L-383,-545L-349,-549L-421,-569L-459,-602L-456,-633L-393,-675L-332,-717L-325,-751L-371,-785L-356,-825L-298,-898L-274,-910L-281,-961L-241,-993L-190,-1012L-138,-1013L-120,-975L-76,-1043L-36,-996L-12,-987L22,-949L-17,-1013Z" fill="#E0E0E0" stroke="#fff" stroke-width=".4"/><path d="M951,336L959,317L972,294L978,254L967,236L966,188L977,153L994,154L1000,139L994,125L1019,69L1036,22L1047,-10L1063,-10L1068,-35L1099,-27L1102,-58L1112,-60L1134,-37L1160,-6L1161,60L1166,76L1138,88L1122,116L1124,140L1098,170L1065,202L1053,253L1065,277L1081,296L1066,333L1048,340L1042,393L1032,422L1012,419L1003,442L983,444L978,416L964,381Z" fill="#E0E0E0" stroke="#fff" stroke-width=".4"/><path d="M1003,490L1007,504L1002,512L1008,522L1012,536L1011,546L1018,563L1010,565L1006,562L1002,568L990,573L984,579L971,585L974,593L976,604L985,610L994,621L988,632L982,636L985,652L983,656L978,651L970,650L958,655L943,654L941,660L932,653L927,655L909,647L906,652L892,652L894,634L902,617L878,612L870,606L871,594L868,589L870,571L867,543L877,543L881,532L885,507L882,498L886,492L900,490L903,496L914,483L910,472L909,455L922,459L933,455L933,466L950,473L950,483L967,478L976,470L995,481Z" fill="#E0E0E0" stroke="#fff" stroke-width=".4"/><path d="M882,498L885,507L881,532L877,543L867,543L870,571L861,565L850,553L835,558L822,556L831,549L846,509L868,497Z" fill="#E0E0E0" stroke="#fff" stroke-width=".4"/><path d="M663,487L666,507L653,532L624,548L600,544L614,515L605,486L628,464L640,450L644,466L640,481L651,481Z" fill="#E0E0E0" stroke="#fff" stroke-width=".4"/><path d="M933,455L922,459L909,455L903,439L902,409L905,400L910,391L924,389L930,381L944,372L943,388L938,398L940,406L949,411L945,422L940,419L928,441ZM974,421L979,436L969,460L951,444L949,431Z" fill="#E0E0E0" stroke="#fff" stroke-width=".4"/><path d="M663,487L651,481L640,481L644,466L640,450L654,449L672,467ZM715,500L715,500L718,484L706,466L706,466L686,460L682,453L688,439L682,431L673,445L672,417L664,401L670,369L683,343L696,346L717,343L699,377L716,373L734,373L730,398L715,426L732,428L733,431L748,465L760,470L770,502L775,513L795,518L793,536L784,544L791,558L776,572L754,572L725,579L717,574L706,586L691,583L679,593L670,588L695,560L710,554L710,554L684,550L679,539L696,531L687,516L690,497Z" fill="#E0E0E0" stroke="#fff" stroke-width=".4"/></g><g clip-path="url(#v)"><path d="M507.0,67.1L508.9,67.3L512.0,65.9L513.3,64.9L516.5,61.7L518.5,60.7L521.4,61.0L522.8,60.7L522.8,61.1L521.0,62.4L519.6,62.8L517.5,64.8L515.6,69.3L514.1,71.4L514.1,72.3L515.9,74.1L517.8,75.0L519.6,74.1L520.4,74.5L521.1,75.7L521.5,77.0L521.6,78.2L521.2,80.8L520.2,83.4L518.8,85.5L518.9,86.2L520.1,86.6L525.6,85.2L526.2,85.2L526.5,85.9L526.6,87.3L526.9,88.4L527.4,89.5L527.2,90.5L524.8,93.9L527.7,91.8L530.0,91.2L533.9,92.2L535.4,93.5L536.3,95.6L537.7,94.9L538.3,95.0L539.2,96.2L539.2,97.4L538.6,99.3L538.3,101.0L537.7,101.7L536.4,102.2L536.0,102.8L536.6,104.0L537.4,105.3L538.6,105.4L538.7,106.0L538.8,106.7L538.6,107.5L538.3,108.1L537.7,108.3L536.9,109.2L539.8,111.2L540.1,111.9L540.2,113.0L539.9,114.2L539.5,115.4L538.6,116.2L536.5,116.3L535.2,117.2L535.6,118.5L535.6,120.3L535.2,122.3L533.6,125.4L532.0,127.1L530.5,128.1L527.8,127.8L526.3,126.9L526.5,129.6L525.0,131.2L525.3,132.6L525.8,133.2L525.5,135.0L524.8,136.8L523.6,138.6L522.2,139.7L519.5,141.1L517.3,143.5L515.7,144.4L511.8,144.3L507.7,145.8L502.1,149.0L498.3,151.5L495.4,154.3L491.5,158.9L488.6,160.9L487.0,161.3L483.7,161.8L481.0,163.1L472.0,165.4L469.0,166.6L468.6,167.8L467.3,169.5L467.2,170.1L467.8,170.7L467.9,171.2L466.7,173.3L464.5,174.8L463.5,174.8L462.2,173.5L461.6,173.5L461.5,173.7L461.5,174.1L462.2,175.7L460.8,176.3L454.9,178.1L445.0,176.8L441.0,175.4L436.2,173.3L433.2,172.7L429.1,172.5L425.8,169.5L424.2,167.6L424.1,166.8L424.3,165.9L424.6,165.3L425.1,165.0L426.2,165.0L426.4,164.6L425.5,163.1L424.7,163.6L422.5,165.8L421.5,165.7L420.3,164.6L420.2,163.6L417.8,163.2L415.6,161.9L413.4,160.0L413.1,159.3L414.1,158.2L414.0,158.0L413.2,157.8L411.6,158.2L409.3,160.6L408.2,161.1L392.8,161.7L388.9,161.9L388.1,162.3L387.4,160.8L386.8,157.3L386.6,155.0L386.8,153.9L387.3,152.5L388.1,152.8L388.9,153.8L389.6,155.3L390.5,156.1L395.8,154.2L398.1,153.0L399.0,151.8L400.1,149.9L401.3,148.8L401.8,147.9L402.9,144.8L403.7,143.4L404.5,142.3L405.6,141.7L408.0,141.2L406.4,140.5L404.9,140.5L399.8,143.7L398.1,143.7L398.2,143.2L398.9,142.3L400.7,140.7L399.5,140.6L399.0,139.9L398.9,138.4L399.8,135.9L404.0,132.7L405.4,132.2L405.8,131.6L405.3,131.1L404.4,130.7L400.2,134.1L397.2,135.2L396.3,135.0L394.8,133.7L394.3,133.1L393.6,131.6L393.7,130.7L395.1,128.2L394.9,127.6L393.9,127.4L391.2,125.0L386.9,125.2L376.5,123.8L374.3,124.4L370.7,126.5L368.6,127.1L367.6,126.7L366.7,125.6L365.9,124.1L365.1,122.3L365.4,121.0L366.8,120.3L367.9,119.9L370.7,120.3L374.2,119.0L376.4,118.7L377.0,118.5L378.3,117.2L379.0,116.8L379.9,117.3L380.4,118.3L384.0,116.8L385.2,116.1L385.3,115.6L385.8,115.0L387.5,115.9L389.0,115.9L390.7,115.3L393.9,115.1L400.8,115.0L401.9,113.7L402.3,112.7L402.9,110L402.7,109.4L398.3,111.9L397.3,111.9L392.3,110.6L390.5,109.1L391.1,107.9L393.7,105.3L396.5,103.2L400.5,101.0L401.5,100.1L401.6,99.0L398.9,97.2L393.8,97.7L392.5,95.5L388.3,94.2L385.4,95.0L383.9,93.7L380.3,95.5L372.2,98.2L368.9,100.1L367.2,100.6L365.3,99.2L361.8,97.4L358.0,96.9L357.6,95.9L359.8,92.9L361.4,92.3L363.0,92.6L365.9,94.7L368.0,95.4L365.4,92.2L365.4,91.0L365.3,89.2L364.5,88.4L363.7,86.4L364.0,85.7L365.0,85.5L367.1,86.2L372.0,89.7L374.4,89.1L375.7,87.8L377.5,86.8L377.0,86.3L372.8,86.2L370.5,85.5L369.4,84.5L368.3,82.8L368.7,82.0L369.9,81.3L373.5,81.5L371.1,78.4L369.5,76.7L369.3,75.9L369.4,74.8L369.6,74.1L370.0,73.7L374.1,75.5L375.0,75.6L374.2,74.4L372.4,72.7L372.2,72.1L373.0,71.6L373.4,70.6L373.4,69.8L374.7,69.1L376.0,69.0L377.2,69.7L381.2,73.0L381.8,73.9L382.0,75.1L381.8,76.7L381.9,77.3L383.5,76.8L384.8,77.4L385.4,77.3L386.9,75.0L388.0,75.5L388.6,76.6L388.8,77.6L388.9,78.8L388.6,81.6L388.7,82.0L389.8,80.4L391.6,80.3L391.9,79.6L391.9,76.6L391.7,74.2L391.6,73.7L385.5,70.3L384.5,69.5L383.1,67.8L383.4,67.0L384.6,66.2L386.4,65.9L390.5,66.0L390.9,65.6L390.1,64.7L388.2,64.1L387.8,63.6L387.5,62.6L385.2,63.1L382.7,63.1L380.3,62.6L380.3,61.8L381.2,60.7L383.2,58.8L384.1,58.3L386.9,58.6L389.6,58.1L391.9,58.7L393.6,60.6L396.1,63.9L399.6,66.0L399.9,66.6L401.7,68.3L405.3,72.9L408.9,75.5L409.1,76.2L408.5,77.0L407.1,77.9L407.4,78.4L409.3,79.1L410.5,80.8L410.6,81.6L409.4,87.1L408.8,88.3L408.1,88.9L404.7,87.9L405.5,89.6L407.9,91.4L408.5,92.5L408.1,93.5L408.4,93.8L409.3,93.2L409.6,93.8L409.4,95.5L409.1,96.9L408.5,98.0L408.7,98.5L409.6,98.3L410.5,98.6L411.9,100.1L413.0,104.8L413.5,106.3L414.0,104.9L414.4,101.5L414.9,99.8L415.3,99.7L415.8,99.2L416.1,98.1L416.7,94.3L419.0,91.4L420.1,90.5L421.1,90.3L421.6,90.7L423.3,93.7L424.3,94.2L424.9,94.0L425.6,92.0L426.5,88.1L426.7,83.6L426.2,78.7L426.5,75.2L427.6,73.1L428.9,72.4L430.7,73.3L432.0,74.6L434.5,79.4L436.6,82.0L438.3,84.7L439.2,85.6L441.0,86.1L441.4,85.9L441.8,85.2L441.9,84.2L441.5,77.2L442.0,75.0L442.7,73.4L445.9,72.6L447.6,71.6L449.3,70.0L450.6,69.1L451.8,69.0L452.9,69.6L454.0,71.0L455.9,73.6L458.3,78.0L461.3,81.3L462.8,86.4L463.1,87.4L463.5,87.4L463.9,86.8L464.2,85.8L464.2,83.5L463.4,80.5L460.6,72.7L460.5,71.3L460.9,70.1L462.9,70.0L467.4,70.6L468.9,71.8L472.0,76.6L472.9,77.7L473.4,78.1L473.6,77.4L474.8,76.6L475.6,75.5L477.0,72.9L480.1,68.2L480.7,68.0L481.6,68.4L483.1,69.7L483.8,70.6L485.3,71.4L486.8,71.1L488.9,69.5L491.2,68.5L492.0,66.2L492.1,65.1L490.3,58.1L491.1,56.6L495.2,54.9L498.7,54.7L499.6,55.2L501.8,58.6L503.3,60.3L504.1,61.7L504.3,64.7L505.2,65.9Z" fill="#4ECDC4" stroke="#2C3E50" stroke-width="1"/></g><circle cx="400.0" cy="150.0" r="4" fill="#E74C3C" stroke="#fff" stroke-width="2"/><text x="400.0" y="140.0" text-anchor="middle" font-family="sans-serif" font-weight="700" font-size="10" fill="#2D3436">Reykjavik</text></svg>