<svg viewBox="0 0 800 300" xmlns="http://www.w3.org/2000/svg"><defs><clipPath id="v"><rect width="800" height="300"/></clipPath></defs><rect width="800" height="300" fill="#DCEEF8"/><g clip-path="url(#v)"><path d="M755,24L761,64L755,92L738,105L756,127L755,147L708,134L675,139L633,134L600,148L563,125L569,101L633,111L686,117L711,101L679,69L680,41L636,29L651,9L694,12Z" fill="#E0E0E0" stroke="#fff" stroke-width=".4"/><path d="M755,147L756,127L738,105L755,92L761,64L755,24L763,11L818,11L859,30L877,28L890,55L928,53L926,75L957,78L991,105L965,135L932,119L900,122L877,119L865,132L838,137L827,119L804,129L776,179L758,168Z" fill="#E0E0E0" stroke="#fff" stroke-width=".4"/><path d="M-79,659L-96,675L-117,670L-128,655L-150,649L-166,658L-212,640L-223,649L-247,626L-280,598L-295,574L-324,551L-360,519L-352,508L-340,518L-335,514L-313,510L-305,494L-294,493L-296,458L-279,457L-265,457L-250,438L-229,452L-222,443L-209,435L-185,415L-184,400L-177,401L-168,384L-161,382L-149,393L-135,396L-119,387L-102,387L-77,377L-68,367L-44,369L-50,376L-53,392L-46,418L-62,443L-70,472L-72,503L-68,522L-67,554L-77,561L-84,592L-79,610L-93,629L-90,648Z" fill="#E0E0E0" stroke="#fff" stroke-width=".4"/><path d="M-44,369L-68,367L-77,377L-102,387L-119,387L-135,396L-149,393L-161,382L-168,384L-177,401L-184,400L-185,415L-209,435L-222,443L-229,452L-250,438L-265,457L-279,457L-296,458L-294,493L-305,494L-313,510L-335,514L-347,491L-368,485L-363,456L-373,448L-387,443L-418,452L-420,442L-441,430L-457,416L-477,410L-463,392L-468,378L-463,364L-430,343L-398,316L-391,319L-376,306L-356,305L-349,311L-338,307L-306,314L-274,312L-251,304L-243,296L-221,299L-204,304L-186,303L-172,296L-140,306L-129,308L-108,322L-88,338L-62,349Z" fill="#E0E0E0" stroke="#fff" stroke-width=".4"/><path d="M17,-237L78,-232L133,-231L198,-205L226,-177L291,-186L316,-168L375,-122L419,-88L442,-89L483,-73L478,-52L530,-49L582,-19L574,-1L528,8L481,12L433,6L333,13L379,-28L351,-48L306,-53L282,-74L265,-117L226,-114L161,-134L140,-150L49,-162L24,-176L51,-195L-18,-199L-68,-160L-97,-159L-107,-141L-142,-132L-171,-139L-135,-163L-120,-190L-88,-207L-52,-222L1,-229Z" fill="#E0E0E0" stroke="#fff" stroke-width=".4"/></g><g clip-path="url(#v)"><path d="M367.0,116.3L375.6,119.0L384.4,120.4L388.1,120.4L391.7,121.3L399.7,127.6L406.2,131.2L430.6,138.8L438.9,152.2L440.4,156.4L434.1,158.8L426.1,159.7L418.6,159.8L411.5,157.3L408.5,155.3L401.2,154.4L403.0,152.6L399.7,151.7L395.7,151.9L392.7,157.0L389.2,161.1L382.9,160.7L380.4,157.3L377.1,158.8L374.3,161.4L371.1,170.9L365.8,166.2L360.0,162.3L353.0,160.6L338.6,160.4L331.6,159.0L326.1,150.9L323.8,148.6L318.0,146.5L312.5,137.3L310.5,136.0L294.9,134.0L291.9,128.9L292.9,124.3L297.9,118.6L300.4,117.1L309.0,117.2L317.0,115.6L320.5,113.2L324.3,111.6L353.7,115.7L360.5,115.7Z" fill="#4ECDC4" stroke="#2C3E50" stroke-width="1"/></g><circle cx="400.0" cy="150.0" r="4" fill="#E74C3C" stroke="#fff" stroke-width="2"/><text x="400.0" y="140.0" text-anchor="middle" font-family="sans-serif" font-weight="700" font-size="10" fill="#2D3436">Kingston</text></svg>