<svg viewBox="0 0 800 300" xmlns="http://www.w3.org/2000/svg"><defs><clipPath id="v"><rect width="800" height="300"/></clipPath></defs><rect width="800" height="300" fill="#DCEEF8"/><g clip-path="url(#v)"><path d="M1660,-412L1642,-388L1621,-384L1620,-347L1606,-331L1558,-343L1540,-279L1528,-272L1479,-258L1501,-198L1484,-190L1486,-171L1471,-176L1459,-188L1423,-191L1382,-192L1373,-188L1338,-202L1324,-195L1320,-176L1280,-187L1264,-182L1258,-168L1244,-162L1212,-139L1201,-116L1192,-115L1185,-131L1154,-132L1149,-159L1137,-159L1139,-192L1110,-217L1068,-214L1039,-209L1016,-240L996,-253L958,-278L953,-281L890,-260L891,-136L878,-135L861,-161L845,-170L817,-163L806,-152L805,-160L811,-174L806,-185L778,-197L767,-227L753,-236L752,-247L776,-244L777,-269L798,-275L819,-270L824,-304L819,-326L795,-324L774,-333L746,-317L723,-310L710,-315L713,-334L697,-358L679,-357L658,-382L672,-410L665,-418L685,-459L710,-437L713,-465L764,-508L802,-509L856,-482L885,-466L911,-482L950,-483L981,-463L988,-474L1023,-473L1029,-491L989,-518L1013,-538L1008,-549L1031,-559L1014,-587L1025,-602L1117,-616L1129,-627L1190,-642L1212,-660L1256,-651L1264,-607L1289,-617L1321,-603L1319,-580L1342,-583L1404,-622L1395,-609L1426,-577L1481,-475L1494,-496L1528,-473L1563,-483L1576,-476L1588,-454L1605,-447L1616,-430L1647,-435Z" fill="#E0E0E0" stroke="#fff" stroke-width=".4"/><path d="M891,-136L890,-260L953,-281L958,-278L996,-253L1016,-240L1039,-209L1068,-214L1110,-217L1139,-192L1137,-159L1149,-159L1154,-132L1185,-131L1192,-115L1201,-116L1212,-139L1244,-162L1258,-168L1266,-165L1245,-143L1263,-131L1281,-139L1310,-122L1278,-99L1260,-102L1250,-101L1246,-110L1251,-125L1218,-118L1211,-97L1199,-79L1179,-81L1172,-67L1190,-59L1195,-36L1182,-5L1163,-11L1150,-11L1150,-30L1118,-44L1092,-59L1076,-74L1048,-96L1036,-129L1028,-135L1001,-134L992,-140L989,-166L956,-184L936,-165L915,-153L919,-137Z" fill="#E0E0E0" stroke="#fff" stroke-width=".4"/><path d="M122,775L103,764L94,757L93,749L97,739L97,728L83,713L80,702L80,696L71,689L71,674L66,665L57,666L60,657L66,646L63,636L71,628L66,622L73,607L84,588L105,590L104,488L104,477L132,477L132,424L231,424L326,424L423,424L431,450L425,455L429,482L438,513L447,519L461,529L448,543L430,547L423,555L420,572L410,610L412,620L408,641L398,666L384,679L373,698L371,708L359,715L352,741L352,763L352,744L348,743L349,731L346,723L333,713L330,695L333,676L322,675L320,680L306,681L311,689L313,704L300,717L288,735L275,738L255,723L245,729L243,736L230,741L229,746L205,746L202,741L184,740L175,744L168,742L156,727L151,720L134,724L127,735L121,758L112,762L105,765Z" fill="#E0E0E0" stroke="#fff" stroke-width=".4"/><path d="M104,488L105,590L84,588L73,607L66,622L71,628L63,636L66,646L60,657L57,666L66,665L71,674L71,689L80,696L80,702L64,706L52,717L34,744L11,755L-13,754L-19,756L-17,765L-30,773L-40,783L-71,792L-77,787L-81,786L-86,793L-106,795L-102,788L-110,771L-113,761L-124,756L-138,742L-133,730L-122,733L-115,731L-101,731L-115,708L-114,692L-115,675L-125,659L-123,647L-138,647L-138,631L-149,621L-138,588L-107,564L-105,530L-96,478L-91,466L-101,457L-101,449L-111,442L-117,401L-92,387L6,437Z" fill="#E0E0E0" stroke="#fff" stroke-width=".4"/><path d="M-117,401L-111,442L-101,449L-101,457L-91,466L-96,478L-105,530L-107,564L-138,588L-149,621L-138,631L-138,647L-123,647L-125,659L-132,661L-133,669L-138,669L-154,642L-160,641L-179,655L-198,647L-211,646L-218,649L-233,649L-247,659L-260,660L-289,647L-301,653L-313,653L-322,643L-347,634L-373,637L-380,642L-383,657L-390,667L-392,689L-411,675L-419,675L-428,682L-427,665L-455,659L-456,647L-470,631L-473,619L-471,607L-456,606L-447,597L-413,595L-391,591L-389,575L-376,558L-376,499L-341,487L-270,436L-186,385L-148,397L-134,411Z" fill="#E0E0E0" stroke="#fff" stroke-width=".4"/><path d="M395,128L391,137L382,133L377,152L383,156L376,160L375,167L387,163L388,174L375,220L373,212L359,171L366,162L365,160L371,146L376,125L380,117L380,117L389,117L391,112L397,111L398,123L394,128Z" fill="#E0E0E0" stroke="#fff" stroke-width=".4"/><path d="M397,111L391,112L389,117L380,117L389,93L401,72L402,71L413,73L417,84L403,95Z" fill="#E0E0E0" stroke="#fff" stroke-width=".4"/><path d="M387,163L375,167L376,160L383,156L377,152L382,133L391,137L391,155Z" fill="#E0E0E0" stroke="#fff" stroke-width=".4"/><path d="M-248,197L-259,146L-274,134L-274,127L-294,109L-296,87L-281,71L-275,46L-279,17L-274,1L-247,-11L-230,-7L-231,8L-210,-3L-208,3L-221,18L-221,32L-212,39L-216,65L-232,80L-227,96L-214,97L-208,111L-199,115L-200,138L-212,146L-220,155L-237,167L-234,178L-236,190Z" fill="#E0E0E0" stroke="#fff" stroke-width=".4"/><path d="M-693,278L-693,273L-693,271L-693,238L-653,218L-629,213L-609,206L-599,192L-571,180L-570,159L-556,157L-545,146L-513,141L-508,130L-514,123L-523,92L-524,74L-534,55L-510,39L-484,34L-468,21L-444,12L-403,6L-362,4L-350,8L-327,-4L-301,-4L-291,3L-274,1L-279,17L-275,46L-281,71L-296,87L-294,109L-274,127L-274,134L-259,146L-248,197L-240,222L-239,235L-243,258L-241,270L-245,286L-242,303L-252,314L-238,334L-237,346L-228,361L-216,356L-197,368L-186,385L-270,436L-341,487L-376,499L-403,501L-403,485L-415,480L-430,473L-436,461L-518,403L-601,345Z" fill="#E0E0E0" stroke="#fff" stroke-width=".4"/><path d="M783,364L788,363L789,370L808,366L828,367L843,368L860,349L878,332L894,315L898,325L902,346L889,346L887,364L891,367L880,373L880,384L873,395L872,405L867,411L794,398L784,370Z" fill="#E0E0E0" stroke="#fff" stroke-width=".4"/><path d="M765,351L763,331L770,317L776,314L784,322L784,338L779,354L772,356Z" fill="#E0E0E0" stroke="#fff" stroke-width=".4"/><path d="M695,206L700,219L698,225L706,246L689,247L683,234L661,231L679,204Z" fill="#E0E0E0" stroke="#fff" stroke-width=".4"/><path d="M480,144L470,108L524,78L534,41L531,19L545,12L557,-7L568,-12L596,-8L605,-0L617,-5L633,31L649,40L650,58L638,68L632,91L649,119L679,135L692,157L688,178L696,178L696,193L710,208L695,206L679,204L661,231L615,229L546,172L510,152Z" fill="#E0E0E0" stroke="#fff" stroke-width=".4"/><path d="M872,405L873,395L880,384L880,373L891,367L887,364L889,346L902,346L913,364L926,374L944,378L959,382L970,398L976,407L985,410L985,416L976,432L972,439L962,447L953,465L942,464L937,470L933,483L936,501L933,504L922,504L907,514L904,526L899,532L884,531L874,538L874,548L862,555L849,553L832,562L821,563L813,545L794,503L867,477L884,424ZM898,325L894,315L901,306L904,308L901,320Z" fill="#E0E0E0" stroke="#fff" stroke-width=".4"/><path d="M806,-152L817,-163L845,-170L861,-161L878,-135L891,-136L919,-137L915,-153L936,-165L956,-184L989,-166L992,-140L1001,-134L1028,-135L1036,-129L1048,-96L1076,-74L1092,-59L1118,-44L1150,-30L1150,-11L1142,-12L1131,-21L1127,-10L1106,-4L1101,21L1087,30L1068,35L1063,48L1045,52L1019,41L1017,15L999,14L971,-13L952,-16L924,-32L907,-35L896,-29L880,-30L862,-12L841,-6L836,-28L840,-61L821,-72L827,-93L811,-95L816,-122L839,-114L861,-125L843,-144L836,-163L816,-155L814,-131Z" fill="#E0E0E0" stroke="#fff" stroke-width=".4"/><path d="M710,208L696,193L696,178L688,178L692,157L679,135L649,119L632,91L638,68L650,58L649,40L633,31L617,-5L603,-30L608,-40L600,-76L617,-85L621,-73L634,-58L650,-54L659,-55L688,-78L697,-81L704,-72L696,-56L711,-40L717,-41L725,-18L748,-12L765,4L800,9L839,1L841,-6L862,-12L880,-30L896,-29L907,-35L924,-32L952,-16L971,-13L999,14L1017,15L1019,41L1009,78L1003,100L1013,104L1003,120L1011,143L1013,162L1031,166L1033,185L1011,211L1023,225L1033,242L1057,255L1057,279L1069,283L1071,296L1036,310L1027,342L980,334L954,327L926,324L916,290L904,285L885,290L860,304L830,295L806,273L782,266L766,239L748,202L734,206L719,197Z" fill="#E0E0E0" stroke="#fff" stroke-width=".4"/><path d="M395,128L394,128L398,123L397,111L403,95L417,84L413,73L402,71L399,48L405,36L412,29L419,22L420,5L428,11L455,3L468,9L488,9L516,-3L529,-2L557,-7L545,12L531,19L534,41L524,78L470,108L422,139Z" fill="#E0E0E0" stroke="#fff" stroke-width=".4"/><path d="M659,-55L650,-54L640,-73L640,-77L630,-77L622,-86L617,-85L608,-94L589,-102L592,-118L588,-129L622,-134L627,-126L636,-120L631,-112L644,-101L637,-91L648,-82L659,-77Z" fill="#E0E0E0" stroke="#fff" stroke-width=".4"/><path d="M75,-234L82,-220L91,-223L110,-217L146,-216L158,-224L187,-232L205,-220L219,-216L207,-202L198,-178L206,-159L184,-164L160,-153L159,-137L137,-134L120,-145L100,-136L82,-137L80,-159L68,-170L72,-174L69,-178L74,-189L83,-199L71,-214L69,-226Z" fill="#E0E0E0" stroke="#fff" stroke-width=".4"/><path d="M164,51L161,60L125,63L126,58L96,52L100,39L114,49L133,48L151,50L150,55ZM82,-137L100,-136L120,-145L137,-134L159,-137L160,-153L171,-145L164,-124L158,-121L143,-122L130,-125L101,-116L118,-98L105,-93L92,-93L79,-109L74,-102L80,-83L92,-68L83,-62L96,-47L108,-38L109,-20L86,-29L93,-13L78,-10L87,17L71,18L51,5L41,-20L37,-41L28,-55L15,-73L13,-82L25,-98L26,-108L34,-113L35,-121L51,-124L60,-131L73,-131L77,-136Z" fill="#E0E0E0" stroke="#fff" stroke-width=".4"/><path d="M617,-5L605,-0L596,-8L568,-12L557,-7L529,-2L516,-3L488,9L468,9L455,3L428,11L420,5L419,22L412,29L405,36L396,22L406,10L391,13L370,6L353,24L316,27L296,11L270,10L264,22L247,26L224,10L197,10L182,-20L164,-38L176,-62L161,-77L188,-108L226,-109L236,-134L283,-129L312,-150L341,-160L381,-160L424,-137L459,-125L488,-130L509,-127L538,-144L564,-145L588,-129L592,-118L589,-102L608,-94L617,-85L600,-76L608,-40L603,-30ZM160,-153L184,-164L206,-159L208,-147L230,-136L225,-128L196,-126L186,-116L165,-99L158,-114L158,-121L164,-124L171,-145Z" fill="#E0E0E0" stroke="#fff" stroke-width=".4"/><path d="M35,-121L34,-113L26,-108L25,-98L13,-82L9,-84L9,-91L-5,-102L-7,-118L-5,-140L-2,-150L-6,-155L-7,-166L3,-182L5,-176L11,-179L17,-170L22,-166L24,-154L21,-143L24,-129Z" fill="#E0E0E0" stroke="#fff" stroke-width=".4"/><path d="M-75,-313L-67,-309L-48,-294L-28,-287L-19,-292L-13,-279L-5,-269L-15,-256L-26,-263L-43,-263L-64,-269L-75,-268L-81,-261L-89,-269L-95,-254L-83,-238L-77,-228L-66,-215L-57,-207L-47,-193L-26,-181L-28,-175L-51,-187L-66,-199L-88,-209L-109,-234L-104,-237L-115,-251L-115,-263L-131,-269L-139,-254L-146,-265L-145,-277L-144,-278L-127,-277L-123,-283L-114,-277L-105,-276L-105,-286L-96,-290L-94,-304Z" fill="#E0E0E0" stroke="#fff" stroke-width=".4"/><path d="M-225,-327L-210,-322L-207,-329L-183,-335L-177,-323L-142,-313L-145,-296L-139,-281L-158,-286L-178,-274L-177,-257L-180,-247L-172,-229L-149,-212L-137,-184L-109,-158L-90,-158L-84,-151L-91,-144L-69,-132L-51,-122L-30,-106L-28,-100L-32,-88L-46,-103L-67,-108L-77,-88L-60,-76L-63,-59L-73,-57L-86,-31L-96,-28L-96,-38L-91,-55L-86,-61L-95,-80L-103,-96L-113,-100L-120,-114L-136,-119L-146,-133L-165,-135L-184,-149L-206,-171L-223,-190L-230,-223L-243,-227L-263,-239L-274,-234L-288,-218L-298,-216L-295,-230L-309,-235L-315,-261L-307,-272L-314,-285L-313,-295L-302,-288L-290,-289L-277,-301L-272,-296L-261,-297L-255,-311L-237,-307L-227,-313ZM-119,-36L-100,-38L-109,-14L-105,-4L-110,11L-129,-0L-142,-3L-176,-19L-172,-35L-144,-32ZM-267,-123L-255,-133L-240,-110L-244,-68L-255,-70L-265,-59L-274,-68L-275,-106L-281,-125Z" fill="#E0E0E0" stroke="#fff" stroke-width=".4"/><path d="M657,-155L664,-153L680,-134L691,-131L695,-140L710,-153L723,-136L735,-113L747,-111L754,-102L734,-100L730,-75L726,-64L717,-57L717,-41L711,-40L696,-56L704,-72L697,-81L688,-78L659,-55L659,-77L648,-82L637,-91L644,-101L631,-112L636,-120L627,-126L622,-134L628,-140L646,-130L659,-128L662,-132L650,-150ZM650,-54L634,-58L621,-73L617,-85L622,-86L630,-77L640,-77L640,-73Z" fill="#E0E0E0" stroke="#fff" stroke-width=".4"/><path d="M499,-207L502,-211L522,-205L558,-200L592,-184L596,-177L611,-183L634,-176L641,-162L657,-155L650,-150L662,-132L659,-128L646,-130L628,-140L622,-134L588,-129L564,-145L538,-144L542,-158L535,-180L521,-193L508,-197Z" fill="#E0E0E0" stroke="#fff" stroke-width=".4"/><path d="M376,224L403,228L414,220L420,210L439,206L443,196L451,191L426,163L475,148L480,144L510,152L546,172L615,229L661,231L683,234L689,247L706,246L716,270L728,277L732,286L749,298L750,309L748,318L751,327L758,335L761,344L765,351L772,356L779,354L783,364L784,370L794,398L867,411L872,405L884,424L867,477L794,503L723,513L700,524L683,551L671,555L665,547L656,548L632,546L628,543L599,544L593,546L583,539L576,552L579,563L568,571L565,560L557,552L555,542L543,533L530,511L523,490L506,472L495,468L479,443L476,424L477,409L463,379L451,369L438,363L430,348L431,342L425,328L417,322L408,301L393,279L380,260L368,260L372,245L373,235Z" fill="#E0E0E0" stroke="#fff" stroke-width=".4"/><path d="M322,56L323,56L327,49L345,49L367,40L350,53L352,59L349,58L345,60L341,59L340,60L339,57L338,55L333,55L326,58Z" fill="#E0E0E0" stroke="#fff" stroke-width=".4"/><path d="M322,56L326,58L333,55L338,55L339,57L340,60L341,59L345,60L349,58L352,59L353,61L328,73L316,69L310,57Z" fill="#E0E0E0" stroke="#fff" stroke-width=".4"/><path d="M423,424L326,424L231,424L132,424L132,325L132,227L125,205L131,187L127,175L136,161L169,161L192,168L217,177L228,181L247,172L257,164L279,161L296,165L303,179L308,170L328,177L347,178L359,171L373,212L375,220L368,231L363,252L357,267L351,272L343,263L332,250L314,210L312,212L322,242L337,270L355,313L364,328L372,343L394,373L389,378L390,395L419,419Z" fill="#E0E0E0" stroke="#fff" stroke-width=".4"/><path d="M132,424L132,477L104,477L104,488L6,437L-92,387L-117,401L-134,411L-148,397L-186,385L-197,368L-216,356L-228,361L-237,346L-238,334L-252,314L-242,303L-245,286L-241,270L-243,258L-239,235L-240,222L-248,197L-236,190L-234,178L-237,167L-220,155L-212,146L-200,138L-199,115L-170,126L-160,123L-139,128L-107,141L-95,167L-73,172L-39,184L-13,198L-1,191L11,178L5,156L13,142L31,128L47,124L81,130L89,143L98,143L106,148L130,151L136,161L127,175L131,187L125,205L132,227L132,325Z" fill="#E0E0E0" stroke="#fff" stroke-width=".4"/><path d="M-26,-181L-47,-193L-57,-207L-66,-215L-77,-228L-83,-238L-95,-254L-89,-269L-81,-261L-75,-268L-64,-269L-43,-263L-26,-263L-15,-256L-6,-256L-12,-241L-0,-227L-4,-211L-9,-210L-14,-207L-22,-199Z" fill="#E0E0E0" stroke="#fff" stroke-width=".4"/><path d="M68,-170L80,-159L82,-137L77,-136L73,-131L60,-131L51,-124L35,-121L24,-129L21,-143L24,-154L27,-154L28,-161L43,-166L48,-167L57,-169Z" fill="#E0E0E0" stroke="#fff" stroke-width=".4"/><path d="M-19,-292L-0,-302L15,-300L28,-286L31,-275L46,-267L48,-252L62,-242L70,-250L76,-246L70,-240L75,-234L69,-226L71,-214L83,-199L74,-189L69,-178L72,-174L68,-170L57,-169L48,-167L47,-170L50,-174L53,-182L50,-182L45,-188L41,-189L38,-195L33,-197L30,-201L25,-200L22,-188L16,-186L18,-189L9,-196L1,-200L-3,-204L-9,-210L-4,-211L-0,-227L-12,-241L-6,-256L-15,-256L-5,-269L-13,-279Z" fill="#E0E0E0" stroke="#fff" stroke-width=".4"/><path d="M11,-179L5,-176L3,-182L-7,-166L-6,-155L-11,-158L-18,-168L-28,-175L-26,-181L-22,-199L-14,-207L-9,-210L-3,-204L1,-200L9,-196L18,-189L16,-186Z" fill="#E0E0E0" stroke="#fff" stroke-width=".4"/><path d="M24,-154L22,-166L17,-170L11,-179L16,-186L22,-188L25,-200L30,-201L33,-197L38,-195L41,-189L45,-188L50,-182L53,-182L50,-174L47,-170L48,-167L43,-166L28,-161L27,-154Z" fill="#E0E0E0" stroke="#fff" stroke-width=".4"/></g><g clip-path="url(#v)"><path d="M396.5,127.2L399.1,127.8L400.6,129.2L403.2,133.1L407.1,134.2L408.6,135.3L410.9,137.3L413.5,138.1L421.8,139.3L428.4,135.1L434.0,131.4L440.4,127.3L444.7,124.5L452.1,119.6L457.0,116.6L463.3,112.6L469.7,108.6L471.5,115.1L473.1,121.4L474.9,127.9L476.7,134.3L474.8,134.9L476.2,139.7L478.7,138.9L481.3,138.4L482.4,141.5L478.8,144.9L475.2,148.3L474.3,148.7L469.6,150.1L459.9,153.0L453.5,154.9L445.2,157.3L438.3,159.4L431.5,161.4L425.2,163.2L428.8,167.1L434.3,173.1L437.9,177.1L442.3,182.2L446.1,186.7L450.2,191.5L447.4,193.2L442.6,195.9L442.2,196.4L441.7,196.9L439.8,201.6L438.2,205.4L437.8,205.9L431.1,207.2L424.4,208.7L420.2,209.5L419.0,210.5L416.2,215.2L413.4,220.0L408.6,223.9L403.4,228.3L402.1,228.6L398.3,227.9L391.8,226.8L385.5,225.6L381.2,224.9L376.0,224.0L376.8,220.3L376.5,218.3L377.8,211.8L378.5,208.7L378.9,206.4L380.7,201.7L380.4,200.2L380.9,194.8L380.7,193.8L381.5,190.8L383.0,186.6L384.5,182.9L385.1,181.3L386.6,177.8L388.0,173.5L387.2,171.2L387.0,170.7L387.6,168.0L388.3,163.6L388.6,161.2L389.4,158.0L390.9,155.3L390.2,149.0L390.3,145.6L391.3,141.7L390.7,137.1L391.2,130.6L391.3,130.0L391.8,129.2L392.2,128.8L395.2,127.4Z" fill="#4ECDC4" stroke="#2C3E50" stroke-width="1"/></g><circle cx="400.0" cy="150.0" r="4" fill="#E74C3C" stroke="#fff" stroke-width="2"/><text x="400.0" y="140.0" text-anchor="middle" font-family="sans-serif" font-weight="700" font-size="10" fill="#2D3436">Amman</text></svg>