<svg viewBox="0 0 800 300" xmlns="http://www.w3.org/2000/svg"><defs><clipPath id="v"><rect width="800" height="300"/></clipPath></defs><rect width="800" height="300" fill="#DCEEF8"/><g clip-path="url(#v)"><path d="M63,31L58,38L53,39L52,48L49,52L36,49L31,66L28,68L15,72L21,87L17,90L17,95L13,93L10,90L0,89L-10,89L-13,90L-22,86L-25,88L-26,93L-37,90L-41,92L-43,95L-46,97L-55,103L-58,109L-60,109L-62,105L-70,105L-71,98L-74,98L-74,89L-82,83L-93,83L-100,84L-106,76L-112,73L-122,66L-123,66L-139,71L-139,104L-142,104L-147,97L-151,95L-159,97L-162,100L-162,97L-160,94L-162,91L-169,88L-172,80L-175,78L-176,75L-169,75L-169,69L-164,67L-158,69L-157,60L-158,54L-164,54L-170,52L-177,56L-183,58L-187,57L-186,52L-190,45L-195,46L-200,39L-197,32L-199,30L-193,19L-187,25L-186,17L-173,6L-163,6L-148,13L-141,17L-134,13L-124,13L-116,18L-114,15L-105,15L-103,10L-113,3L-107,-2L-108,-5L-102,-8L-107,-15L-104,-19L-80,-22L-77,-25L-61,-29L-55,-34L-43,-32L-41,-20L-34,-23L-26,-19L-27,-13L-21,-14L-4,-24L-7,-21L1,-12L16,15L19,9L28,15L37,12L41,14L44,20L49,22L51,26L60,25Z" fill="#E0E0E0" stroke="#fff" stroke-width=".4"/><path d="M-139,104L-139,71L-123,66L-122,66L-112,73L-106,76L-100,84L-93,83L-82,83L-74,89L-74,98L-71,98L-70,105L-62,105L-60,109L-58,109L-55,103L-46,97L-43,95L-41,96L-46,102L-41,105L-37,103L-29,107L-37,114L-42,113L-45,113L-46,111L-45,107L-53,109L-55,114L-58,119L-64,118L-65,122L-61,124L-59,130L-63,138L-68,137L-71,137L-71,132L-80,128L-86,124L-91,120L-98,114L-101,106L-103,104L-110,104L-113,103L-113,96L-122,91L-127,96L-133,99L-132,104Z" fill="#E0E0E0" stroke="#fff" stroke-width=".4"/><path d="M408,413L420,417L432,421L436,424L440,428L441,432L451,436L453,439L447,440L448,444L454,448L458,455L462,455L462,458L467,459L465,460L472,463L471,465L467,465L465,464L459,463L453,462L448,458L444,454L441,448L433,446L427,447L423,450L424,454L419,457L415,456L409,455L409,434ZM483,420L486,422L487,425L485,427L483,423L482,421L479,419L475,416L471,414L472,412L476,414L478,416L481,417ZM475,434L471,436L468,437L465,437L459,435L456,433L456,431L462,432L465,432L466,429L467,429L468,432L472,431L473,429L477,427L476,423L480,423L481,424L481,428L479,432L476,432ZM497,431L499,432L502,436L505,438L504,440L502,441L500,438L497,434L495,429L496,429Z" fill="#E0E0E0" stroke="#fff" stroke-width=".4"/><path d="M408,413L409,434L409,455L403,450L396,449L395,450L387,451L389,445L393,444L392,436L389,431L376,426L371,425L361,419L359,422L357,423L355,420L355,418L350,414L357,412L362,412L361,411L352,411L349,407L344,405L341,402L350,401L353,399L363,401L364,404L366,414L373,418L378,411L386,407L391,407L397,409L402,412ZM305,454L306,455L306,457L302,462L296,463L295,463L296,460L299,456ZM365,441L364,436L365,434L367,431L368,433L368,436ZM260,370L256,375L261,382L260,384L267,390L259,391L257,396L257,401L251,406L251,412L248,422L247,420L240,423L238,419L233,418L230,416L222,419L220,416L216,416L210,415L209,407L206,405L203,399L202,394L203,388L207,383L208,388L212,391L216,390L220,390L224,387L227,387L233,388L239,387L242,378L244,376L247,369L254,369ZM334,414L341,416L343,421L338,418L332,418L329,418L324,418L326,415ZM317,421L313,420L312,417L318,416L320,419ZM324,382L325,386L329,386L329,389L329,395L325,394L325,398L327,401L325,402L323,398L321,390L322,385ZM292,391L299,390L306,386L307,387L302,394L297,395L291,393L280,394L274,395L273,400L279,405L283,402L295,400L294,403L291,402L289,406L283,409L289,417L288,419L294,426L294,431L290,433L288,430L291,425L284,428L283,426L284,423L279,419L279,413L275,415L276,423L276,432L272,433L269,431L271,425L270,419L267,419L265,414L268,410L269,405L272,395L273,393L279,388L284,390ZM275,463L267,458L273,457L276,459L278,461L278,463ZM282,451L286,451L292,449L291,452L281,454L273,453L273,451L278,449ZM262,450L266,450L268,453L260,454L256,455L252,455L254,451L258,451L260,449ZM199,438L200,440L212,441L214,438L226,441L228,445L238,447L246,450L238,453L231,450L225,450L219,450L213,449L205,446L200,446L198,446L186,444L185,441L179,440L183,434L191,435L196,437ZM173,403L174,408L176,411L181,412L184,416L182,424L182,434L175,434L169,429L161,423L158,420L153,414L150,409L145,400L140,395L138,390L135,385L130,380L126,375L121,371L115,364L114,361L118,361L128,362L134,369L139,373L142,376L149,383L155,383L160,387L164,393L169,396L167,401L170,403Z" fill="#E0E0E0" stroke="#fff" stroke-width=".4"/><path d="M-232,407L-236,402L-236,378L-230,371L-228,369L-224,369L-218,364L-210,364L-192,345L-187,339L-184,335L-184,332L-184,325L-184,322L-184,322L-182,322L-179,321L-176,321L-173,318L-170,318L-170,320L-171,324L-171,327L-172,330L-174,337L-177,344L-181,352L-187,362L-192,369L-200,378L-206,383L-216,389L-222,394L-229,402L-230,406Z" fill="#E0E0E0" stroke="#fff" stroke-width=".4"/><path d="M104,-543L118,-552L131,-532L146,-495L144,-463L130,-459L112,-469L101,-482L96,-508L88,-516ZM163,-477L179,-458L177,-445L141,-433L153,-475L158,-479ZM394,-381L411,-380L435,-366L430,-347L406,-348L395,-342L383,-358L386,-376ZM455,-361L471,-354L464,-344L453,-346L441,-356L443,-364ZM401,-313L407,-322L415,-324L424,-316L425,-310L415,-310L402,-312ZM-211,-525L-198,-532L-188,-533L-187,-522L-183,-532L-177,-538L-168,-530L-170,-524L-179,-518L-185,-516L-186,-509L-193,-503L-200,-512L-196,-524ZM-353,-22L-365,-22L-373,-23L-372,-28L-363,-32L-356,-30L-353,-28L-354,-25ZM-155,-322L-140,-343L-141,-354L-127,-367L-106,-384L-84,-389L-73,-400L-61,-404L-56,-392L-61,-384L-83,-371L-103,-358L-123,-335L-133,-313L-143,-292L-141,-274L-129,-258L-133,-256L-154,-259L-156,-268L-167,-273L-168,-284L-162,-289L-162,-300L-149,-319ZM421,-15L423,-5L423,5L425,16L432,33L422,30L418,44L425,54L425,61L420,55L415,62L414,54L415,45L414,35L416,27L416,14L412,4L413,-11L419,-16L416,-21L419,-23ZM-1659,-225L-1659,-225L-1643,-212L-1626,-195L-1627,-185L-1622,-180L-1624,-192L-1606,-190L-1594,-175L-1600,-168L-1611,-166L-1611,-151L-1614,-148L-1620,-149L-1624,-154L-1633,-158L-1634,-165L-1641,-168L-1648,-166L-1652,-171L-1650,-177L-1658,-173L-1655,-166L-1659,-159L-1659,-159L-1659,-225ZM660,-159L660,-159L651,-153L643,-154L649,-146L653,-134L656,-130L656,-124L655,-120L643,-123L625,-113L619,-112L609,-102L600,-94L597,-88L588,-97L571,-87L568,-92L562,-86L554,-88L552,-80L544,-68L544,-63L551,-60L550,-43L545,-42L542,-33L544,-28L533,-22L531,-10L521,-7L519,3L510,13L508,6L505,-9L501,-34L504,-50L510,-57L510,-63L520,-65L532,-81L543,-94L554,-105L560,-124L552,-123L548,-111L532,-97L526,-113L510,-109L494,-87L499,-79L485,-76L475,-74L475,-83L465,-85L457,-79L437,-81L416,-78L395,-54L371,-27L381,-25L384,-18L390,-16L394,-21L401,-21L411,-9L411,0L406,11L405,23L402,39L393,52L391,59L382,70L373,80L369,85L360,91L356,91L352,86L344,93L343,96L343,96L342,94L342,90L345,90L346,79L344,71L350,68L358,70L362,61L364,50L367,47L370,38L359,41L354,45L344,45L341,36L334,29L323,26L320,16L318,10L315,5L311,-6L306,-9L296,-13L288,-12L280,-10L274,-5L278,-3L278,3L274,7L269,17L269,22L260,28L252,24L244,25L241,22L237,21L227,28L219,30L213,32L205,30L199,30L195,25L189,21L182,19L174,21L168,22L159,18L158,11L150,8L144,7L137,2L130,13L133,19L127,26L117,24L111,23L107,18L100,18L94,15L85,20L72,29L66,30L63,31L60,25L51,26L49,22L44,20L41,14L37,12L28,15L19,9L16,15L1,-12L-7,-21L-4,-24L-21,-14L-27,-13L-26,-19L-34,-23L-41,-20L-43,-32L-55,-34L-61,-29L-77,-25L-80,-22L-104,-19L-107,-15L-102,-8L-108,-5L-107,-2L-113,3L-103,10L-105,15L-114,15L-116,18L-124,13L-134,13L-141,17L-148,13L-163,6L-173,6L-186,17L-187,25L-193,19L-199,30L-197,32L-200,39L-195,46L-190,45L-186,52L-187,57L-183,58L-186,64L-193,65L-199,75L-193,83L-194,89L-187,99L-191,103L-192,105L-195,104L-199,99L-201,99L-205,97L-207,93L-213,91L-217,93L-218,91L-227,87L-236,86L-242,84L-242,85L-251,78L-258,74L-263,69L-259,67L-253,60L-257,56L-248,52L-248,50L-253,52L-253,47L-250,45L-244,44L-243,41L-244,35L-242,30L-242,27L-251,24L-255,24L-259,19L-264,21L-272,18L-272,16L-274,11L-279,11L-280,7L-278,5L-282,-1L-289,0L-291,-0L-293,2L-295,2L-297,-5L-298,-9L-297,-10L-292,-9L-289,-12L-291,-14L-295,-16L-295,-18L-298,-20L-302,-28L-300,-31L-301,-36L-307,-39L-310,-37L-311,-40L-318,-43L-320,-50L-321,-56L-324,-58L-321,-62L-323,-74L-318,-81L-319,-83L-312,-90L-319,-96L-305,-113L-299,-121L-297,-128L-306,-138L-304,-148L-309,-159L-305,-172L-313,-190L-307,-203L-316,-214L-315,-227L-310,-229L-299,-236L-293,-242L-282,-231L-264,-227L-240,-207L-235,-199L-235,-188L-242,-179L-252,-175L-281,-187L-286,-185L-275,-174L-275,-166L-275,-151L-266,-146L-261,-142L-260,-150L-264,-156L-260,-162L-245,-152L-239,-156L-244,-167L-229,-183L-223,-182L-217,-176L-213,-187L-218,-197L-215,-207L-220,-218L-202,-212L-198,-203L-206,-201L-206,-191L-201,-186L-191,-189L-190,-200L-176,-208L-154,-223L-149,-222L-155,-212L-147,-210L-143,-216L-130,-216L-121,-224L-114,-213L-106,-225L-113,-235L-110,-241L-91,-236L-82,-230L-58,-210L-54,-219L-61,-228L-61,-232L-69,-234L-66,-243L-70,-258L-70,-264L-58,-282L-54,-302L-49,-306L-32,-300L-31,-288L-37,-272L-33,-265L-31,-252L-32,-226L-25,-215L-28,-204L-41,-180L-33,-178L-31,-184L-24,-188L-22,-196L-16,-204L-20,-214L-17,-226L-24,-227L-26,-237L-20,-256L-29,-272L-17,-286L-19,-301L-16,-302L-12,-290L-15,-270L-8,-266L-11,-281L-0,-289L13,-290L25,-279L20,-296L19,-320L30,-324L46,-323L60,-326L54,-339L62,-355L69,-356L82,-368L99,-372L101,-379L118,-381L123,-375L137,-390L149,-389L151,-401L157,-414L172,-426L183,-416L175,-409L189,-405L191,-391L197,-397L216,-397L230,-384L235,-374L234,-360L227,-353L210,-339L205,-332L213,-329L222,-323L228,-327L232,-313L234,-318L245,-322L265,-318L267,-308L294,-305L294,-322L308,-318L318,-318L329,-306L331,-292L328,-283L336,-267L346,-259L352,-280L362,-271L373,-277L386,-270L391,-276L401,-273L397,-292L405,-302L435,-296L463,-288L469,-276L486,-260L512,-264L524,-261L530,-253L529,-239L537,-234L545,-237L557,-238L569,-234L581,-236L592,-220L600,-226L595,-238L598,-246L619,-241L632,-242L651,-233L660,-225L660,-159ZM660,-260L653,-259L651,-265L660,-274L660,-260ZM-1659,-274L-1659,-274L-1659,-274L-1658,-275L-1653,-275L-1643,-269L-1644,-266L-1650,-261L-1659,-260L-1659,-260L-1659,-274ZM-284,62L-283,60L-278,62L-276,62L-275,64L-274,64L-274,65L-271,67L-264,67L-266,70L-273,72L-281,77L-285,75L-284,71L-291,68L-289,66L-283,63Z" fill="#E0E0E0" stroke="#fff" stroke-width=".4"/><path d="M305,454L306,452L311,451L316,451L318,450L320,451L318,452L311,455L306,457L306,455Z" fill="#E0E0E0" stroke="#fff" stroke-width=".4"/><path d="M-181,477L-179,480L-177,484L-176,492L-175,495L-175,499L-176,501L-179,497L-180,499L-179,504L-179,507L-181,508L-181,514L-184,522L-187,531L-191,544L-193,554L-196,562L-202,564L-207,567L-211,565L-216,563L-218,559L-218,553L-220,547L-221,542L-220,537L-217,536L-217,533L-214,528L-213,524L-215,521L-216,516L-217,510L-214,506L-213,502L-210,502L-207,501L-204,499L-201,499L-198,495L-192,491L-190,488L-191,485L-189,486L-185,481L-185,477L-183,474Z" fill="#E0E0E0" stroke="#fff" stroke-width=".4"/><path d="M-167,235L-166,235L-166,237L-161,236L-156,236L-152,236L-147,231L-143,227L-139,222L-137,225L-136,230L-140,230L-140,235L-139,236L-142,237L-142,240L-144,243L-144,246L-145,248L-165,244L-167,237Z" fill="#E0E0E0" stroke="#fff" stroke-width=".4"/><path d="M-172,232L-173,226L-171,223L-169,222L-167,224L-167,228L-169,233L-170,233Z" fill="#E0E0E0" stroke="#fff" stroke-width=".4"/><path d="M-191,194L-189,197L-190,199L-188,204L-192,204L-194,201L-200,200L-195,193Z" fill="#E0E0E0" stroke="#fff" stroke-width=".4"/><path d="M-247,177L-250,168L-236,160L-233,150L-234,145L-230,143L-227,138L-224,136L-217,137L-214,139L-211,138L-207,148L-203,150L-202,155L-206,157L-207,163L-203,171L-195,175L-191,181L-193,186L-190,186L-190,190L-187,194L-191,194L-195,193L-200,200L-212,200L-230,185L-239,179Z" fill="#E0E0E0" stroke="#fff" stroke-width=".4"/><path d="M-144,246L-144,243L-142,240L-142,237L-139,236L-140,235L-140,230L-136,230L-134,235L-130,238L-125,239L-121,240L-119,244L-117,246L-114,247L-114,249L-117,253L-118,255L-121,257L-123,262L-126,261L-127,263L-128,267L-127,271L-128,272L-131,272L-135,274L-136,278L-137,279L-141,279L-144,281L-144,284L-147,285L-150,285L-155,287L-158,287L-160,283L-165,272L-145,265L-141,251ZM-137,225L-139,222L-137,220L-136,221L-136,223Z" fill="#E0E0E0" stroke="#fff" stroke-width=".4"/><path d="M577,500L581,504L579,505L577,502ZM575,498L574,497L573,492L577,494L578,499L576,498Z" fill="#E0E0E0" stroke="#fff" stroke-width=".4"/><path d="M161,317L160,309L164,304L172,302L178,303L183,306L186,301L192,304L193,308L193,316L182,321L185,325L178,326L172,328L167,327L164,324Z" fill="#E0E0E0" stroke="#fff" stroke-width=".4"/><path d="M178,303L172,302L164,304L160,309L161,317L155,314L150,314L151,309L145,309L145,316L141,326L139,332L139,337L144,337L146,343L147,348L151,352L155,353L158,356L156,359L152,360L151,356L146,353L145,355L142,352L141,349L138,345L135,342L134,346L132,342L133,338L135,332L138,325L142,319L139,313L139,310L139,306L134,301L133,298L135,296L137,291L135,286L131,281L127,275L130,274L133,267L138,266L141,263L145,262L148,264L148,268L153,268L151,276L151,282L158,278L160,279L164,279L165,276L170,277L175,282L175,289L180,295L180,300Z" fill="#E0E0E0" stroke="#fff" stroke-width=".4"/><path d="M192,304L186,301L183,306L178,303L180,300L180,295L175,289L175,282L170,277L165,276L164,279L160,279L158,278L151,282L151,276L153,268L148,268L148,264L145,262L146,259L152,255L153,256L156,257L155,249L158,248L162,253L165,259L173,260L175,266L171,267L169,270L177,274L183,282L187,288L191,292L193,297Z" fill="#E0E0E0" stroke="#fff" stroke-width=".4"/><path d="M145,262L141,263L138,266L133,267L130,274L127,275L131,281L135,286L137,291L135,296L133,298L134,301L139,306L139,310L139,313L142,319L138,325L135,332L134,327L136,322L134,318L135,311L132,308L130,300L129,291L126,286L122,289L115,294L111,293L107,292L109,283L108,277L103,269L104,267L100,266L95,260L95,255L97,256L97,251L100,249L100,246L101,244L101,236L106,238L109,232L110,229L113,223L113,219L121,214L126,215L125,210L128,209L127,206L131,206L133,210L136,212L136,217L136,223L130,229L129,238L136,237L137,243L141,244L139,250L144,253L147,254L152,252L152,255L146,259Z" fill="#E0E0E0" stroke="#fff" stroke-width=".4"/><path d="M172,328L178,326L185,325L182,321L193,316L193,308L192,304L193,297L191,292L187,288L183,282L177,274L169,270L171,267L175,266L173,260L165,259L162,253L158,248L162,246L167,246L173,245L179,242L182,244L188,245L187,249L190,252L196,254L188,260L182,266L181,271L186,278L192,287L198,291L202,297L205,309L204,321L198,325L191,329L186,335L178,341L175,336L177,332Z" fill="#E0E0E0" stroke="#fff" stroke-width=".4"/><path d="M343,96L343,96L343,96ZM342,94L343,96L340,95L337,98L335,101L336,107L332,109L331,111L329,113L325,115L322,117L321,120L321,121L323,123L327,126L326,128L323,129L319,129L316,133L313,133L313,133L310,132L309,133L307,134L307,132L305,132L304,130L305,127L307,126L306,124L308,120L307,119L304,118L301,115L306,110L313,105L317,99L320,102L326,102L325,98L335,94L338,89Z" fill="#E0E0E0" stroke="#fff" stroke-width=".4"/><path d="M313,133L313,133L316,133L319,129L323,129L326,128L327,126L333,136L334,141L334,150L332,155L326,156L321,159L315,160L314,156L315,150L313,142L317,140Z" fill="#E0E0E0" stroke="#fff" stroke-width=".4"/><path d="M66,30L72,29L85,20L94,15L100,18L107,18L111,23L117,24L127,26L133,19L130,13L137,2L144,7L150,8L158,11L159,18L168,22L174,21L182,19L189,21L195,25L199,30L205,30L213,32L219,30L227,28L237,21L241,22L244,25L252,24L249,32L244,42L246,46L249,44L256,46L261,42L266,45L272,52L271,55L266,54L257,56L252,58L247,64L238,68L231,73L224,71L221,70L217,76L220,79L221,82L216,85L211,90L204,93L194,93L184,97L176,101L174,98L166,98L156,93L150,92L141,93L128,91L121,91L117,86L114,78L110,77L102,71L94,70L86,68L84,64L86,54L82,46L73,42L67,37Z" fill="#E0E0E0" stroke="#fff" stroke-width=".4"/><path d="M127,206L128,209L125,210L126,215L121,214L113,219L113,223L110,229L109,232L106,238L101,236L101,244L100,246L100,249L97,251L94,240L92,240L91,244L87,240L89,236L92,236L95,230L92,229L86,229L79,228L79,223L76,223L71,220L68,224L73,228L69,231L68,233L72,235L71,240L73,245L74,251L73,253L68,253L61,254L61,260L57,264L48,268L41,276L36,281L30,285L30,288L26,290L21,292L18,293L16,298L17,306L17,312L15,318L15,329L11,330L8,334L10,337L4,339L2,343L-0,345L-6,339L-9,330L-12,323L-14,320L-17,314L-19,305L-20,301L-26,292L-29,279L-31,270L-31,262L-32,255L-41,260L-46,259L-54,250L-51,248L-53,245L-61,239L-56,234L-42,234L-43,228L-47,225L-48,219L-52,216L-45,208L-37,209L-31,201L-27,194L-20,186L-20,181L-15,176L-20,173L-22,168L-25,161L-22,157L-12,159L-5,158L2,151L9,161L8,167L10,171L10,175L6,174L7,182L14,187L23,192L19,196L16,202L22,205L28,209L37,213L46,214L49,218L54,218L62,220L67,220L68,217L67,212L68,209L72,208L72,213L72,215L78,218L82,216L88,217L93,217L94,212L91,210L96,209L102,204L109,199L115,201L119,198L122,202L120,205Z" fill="#E0E0E0" stroke="#fff" stroke-width=".4"/><path d="M97,251L97,256L95,255L95,260L93,257L93,253L92,250L89,246L83,245L84,248L82,252L79,251L78,252L76,251L74,251L73,245L71,240L72,235L68,233L69,231L73,228L68,224L71,220L76,223L79,223L79,228L86,229L92,229L95,230L92,236L89,236L87,240L91,244L92,240L94,240Z" fill="#E0E0E0" stroke="#fff" stroke-width=".4"/><path d="M91,210L94,212L93,217L88,217L82,216L78,218L72,215L72,213L77,208L80,206L85,208L88,208Z" fill="#E0E0E0" stroke="#fff" stroke-width=".4"/><path d="M68,209L67,212L68,217L67,220L62,220L54,218L49,218L46,214L37,213L28,209L22,205L16,202L19,196L23,192L25,190L31,193L37,198L41,199L43,202L48,204L53,207L60,208Z" fill="#E0E0E0" stroke="#fff" stroke-width=".4"/><path d="M2,151L-5,158L-12,159L-22,157L-25,161L-22,168L-20,173L-15,176L-20,181L-20,186L-27,194L-31,201L-37,209L-45,208L-52,216L-48,219L-47,225L-43,228L-42,234L-56,234L-61,239L-65,237L-67,232L-72,227L-84,228L-95,228L-104,229L-101,221L-92,217L-92,214L-95,213L-96,206L-102,203L-104,199L-108,195L-97,199L-90,198L-87,198L-85,197L-81,197L-72,194L-72,188L-69,184L-64,184L-63,182L-58,181L-56,181L-53,179L-54,175L-51,170L-47,168L-49,163L-43,163L-41,160L-42,157L-38,154L-39,150L-41,147L-37,143L-30,142L-23,141L-19,139L-16,138L-11,142L-9,148Z" fill="#E0E0E0" stroke="#fff" stroke-width=".4"/><path d="M-71,137L-68,137L-63,138L-61,139L-56,137L-54,138L-52,135L-48,135L-47,133L-46,130L-44,127L-40,129L-41,132L-39,132L-39,139L-37,142L-35,140L-32,139L-28,135L-23,136L-17,136L-16,138L-19,139L-23,141L-30,142L-37,143L-41,147L-39,150L-38,154L-42,157L-41,160L-43,163L-49,163L-47,168L-51,170L-54,175L-53,179L-56,181L-58,181L-63,182L-64,184L-69,184L-72,188L-72,194L-81,197L-85,197L-87,198L-90,198L-97,199L-108,195L-102,188L-102,183L-107,182L-108,177L-110,171L-107,167L-110,166L-108,160L-105,150L-99,153L-94,152L-93,149L-88,147L-84,145L-83,139L-77,137L-76,134L-73,136Z" fill="#E0E0E0" stroke="#fff" stroke-width=".4"/><path d="M-63,138L-59,130L-61,124L-65,122L-64,118L-58,119L-55,114L-53,109L-45,107L-46,111L-45,113L-42,113L-45,115L-52,114L-52,119L-45,118L-37,121L-25,120L-24,127L-21,126L-17,128L-18,131L-17,136L-23,136L-28,135L-32,139L-35,140L-37,142L-39,139L-39,132L-41,132L-40,129L-44,127L-46,130L-47,133L-48,135L-52,135L-54,138L-56,137L-61,139Z" fill="#E0E0E0" stroke="#fff" stroke-width=".4"/><path d="M-43,95L-41,92L-37,90L-26,93L-25,88L-22,86L-13,90L-10,89L0,89L10,90L13,93L17,95L16,97L6,101L4,105L-4,106L-7,111L-14,110L-18,112L-24,116L-23,118L-25,120L-37,121L-45,118L-52,119L-52,114L-45,115L-42,113L-37,114L-29,107L-37,103L-41,105L-46,102L-41,96Z" fill="#E0E0E0" stroke="#fff" stroke-width=".4"/><path d="M-162,100L-159,97L-151,95L-147,97L-142,104L-139,104L-132,104L-133,99L-127,96L-122,91L-113,96L-113,103L-110,104L-103,104L-101,106L-98,114L-91,120L-86,124L-80,128L-71,132L-71,137L-73,136L-76,134L-77,137L-83,139L-84,145L-88,147L-93,149L-94,152L-99,153L-105,150L-106,144L-111,143L-118,136L-123,135L-130,131L-135,130L-138,132L-142,132L-147,136L-152,138L-154,132L-153,124L-158,121L-156,115L-160,114L-159,107L-153,109L-147,107L-152,102L-154,97L-159,99L-160,105Z" fill="#E0E0E0" stroke="#fff" stroke-width=".4"/><path d="M-187,194L-190,190L-190,186L-193,186L-191,181L-195,175L-203,171L-207,163L-206,157L-202,155L-203,150L-207,148L-211,138L-215,132L-214,129L-216,120L-211,117L-210,120L-207,124L-202,125L-200,125L-193,119L-190,118L-188,121L-190,125L-186,129L-185,129L-183,135L-177,136L-172,140L-163,142L-153,140L-152,138L-147,136L-142,132L-138,132L-135,130L-130,131L-123,135L-118,136L-111,143L-106,144L-105,150L-108,160L-110,166L-107,167L-110,171L-108,177L-107,182L-102,183L-102,188L-108,195L-104,199L-102,203L-96,206L-95,213L-92,214L-92,217L-101,221L-104,229L-116,227L-123,226L-130,225L-133,216L-136,215L-141,216L-147,219L-155,217L-162,211L-168,209L-172,202L-177,192L-180,194L-184,191Z" fill="#E0E0E0" stroke="#fff" stroke-width=".4"/><path d="M544,464L546,466L542,466L539,462L543,464ZM542,458L541,460L536,454L535,450L537,450L539,455ZM536,460L534,460L530,460L528,459L529,456L533,457L535,458ZM528,448L530,450L530,451L525,449L522,446L519,444L520,444L523,445ZM512,442L515,444L514,444L511,443L508,440L509,439Z" fill="#E0E0E0" stroke="#fff" stroke-width=".4"/><path d="M452,685L455,685L456,695L454,698L453,705L451,703L446,709L445,709L441,708L437,701L436,695L432,688L433,684L437,684L443,687L446,686ZM313,616L306,620L300,621L299,625L297,628L291,629L287,629L282,628L277,629L273,629L269,633L267,633L264,635L260,638L256,637L251,637L245,632L241,631L241,626L245,625L246,624L245,621L246,616L245,611L242,603L241,599L241,595L239,590L239,588L236,585L235,579L231,574L230,571L233,574L231,567L234,569L236,572L236,568L233,563L232,560L231,558L231,554L233,552L234,549L233,545L236,540L236,545L239,540L244,538L247,535L252,533L255,532L257,533L262,530L266,530L267,528L268,527L272,528L279,526L282,523L284,519L288,515L288,513L288,509L293,503L295,509L298,508L296,505L298,501L301,503L301,498L305,494L306,492L310,491L310,489L313,490L313,488L316,487L319,486L323,489L327,493L331,493L335,494L334,490L337,485L340,483L339,481L342,478L345,475L349,476L354,475L354,472L349,469L353,468L357,470L360,473L366,474L368,474L372,476L375,474L378,474L379,473L382,476L381,480L378,483L376,483L377,486L375,489L373,492L373,494L378,498L383,500L386,502L391,506L393,506L396,508L397,510L403,512L408,510L409,506L410,503L411,500L413,494L412,491L413,489L412,485L413,480L414,479L413,477L414,473L416,470L416,468L418,465L420,469L420,473L422,473L422,476L425,480L425,483L425,486L427,491L431,488L434,491L437,494L436,497L437,503L438,506L440,507L442,513L441,516L443,521L450,524L455,527L459,530L458,532L462,536L464,544L467,542L470,545L471,544L472,552L477,556L480,559L485,565L487,570L487,574L486,579L489,585L489,592L488,595L486,602L486,606L485,611L482,618L477,622L475,628L473,632L471,639L469,642L467,648L466,654L466,657L463,659L455,660L450,663L447,666L443,670L437,666L433,665L434,660L431,662L425,668L420,666L416,664L412,664L406,661L402,656L401,650L399,646L396,643L390,642L392,638L390,632L387,638L382,639L385,635L386,630L388,627L388,621L383,627L379,630L376,636L371,633L371,629L367,623L364,620L365,619L357,614L352,614L346,610L335,611L326,614L319,616Z" fill="#E0E0E0" stroke="#fff" stroke-width=".4"/><path d="M27,348L26,354L23,356L18,358L15,353L14,343L17,333L21,336L24,341Z" fill="#E0E0E0" stroke="#fff" stroke-width=".4"/><path d="M205,277L200,275L200,269L203,266L210,264L214,264L215,267L212,270L211,274ZM17,95L17,90L21,87L15,72L28,68L31,66L36,49L49,52L52,48L53,39L58,38L63,31L66,30L67,37L73,42L82,46L86,54L84,64L86,68L94,70L102,71L110,77L114,78L117,86L121,91L128,91L141,93L150,92L156,93L166,98L174,98L176,101L184,97L194,93L204,93L211,90L216,85L221,82L220,79L217,76L221,70L224,71L231,73L238,68L247,64L252,58L257,56L266,54L271,55L272,52L266,45L261,42L256,46L249,44L246,46L244,42L249,32L252,24L260,28L269,22L269,17L274,7L278,3L278,-3L274,-5L280,-10L288,-12L296,-13L306,-9L311,-6L315,5L318,10L320,16L323,26L334,29L341,36L344,45L354,45L359,41L370,38L367,47L364,50L362,61L358,70L350,68L344,71L346,79L345,90L342,90L342,94L338,89L335,94L325,98L326,102L320,102L317,99L313,105L306,110L301,115L292,118L287,122L280,124L283,120L282,117L287,111L284,107L278,110L271,116L267,121L261,121L257,125L261,131L266,132L266,136L271,138L278,132L284,136L288,136L289,140L280,142L277,147L271,151L268,156L275,160L277,168L281,175L285,181L285,186L281,189L283,193L287,195L286,201L284,207L280,207L276,215L271,225L265,233L256,240L247,246L239,246L236,249L233,247L230,251L221,254L214,255L212,262L208,263L206,258L208,255L199,253L196,254L190,252L187,249L188,245L182,244L179,242L173,245L167,246L162,246L158,248L155,249L156,257L153,256L152,255L152,252L147,254L144,253L139,250L141,244L137,243L136,237L129,238L130,229L136,223L136,217L136,212L133,210L131,206L127,206L120,205L122,202L119,198L115,201L109,199L102,204L96,209L91,210L88,208L85,208L80,206L77,208L72,213L72,208L68,209L60,208L53,207L48,204L43,202L41,199L37,198L31,193L25,190L23,192L14,187L7,182L6,174L10,175L10,171L8,167L9,161L2,151L-9,148L-11,142L-16,138L-17,136L-18,131L-17,128L-21,126L-24,127L-25,120L-23,118L-24,116L-18,112L-14,110L-7,111L-4,106L4,105L6,101L16,97Z" fill="#E0E0E0" stroke="#fff" stroke-width=".4"/><path d="M285,234L281,245L278,251L275,245L274,240L278,233L283,228L286,230Z" fill="#E0E0E0" stroke="#fff" stroke-width=".4"/><path d="M-201,99L-199,99L-195,104L-192,105L-191,103L-187,99L-183,104L-180,110L-177,110L-175,113L-180,113L-182,120L-183,123L-185,125L-185,129L-186,129L-190,125L-188,121L-190,118L-193,119L-200,125L-200,119L-203,118L-206,116L-204,113L-208,110L-206,108L-209,106L-210,104L-208,103L-204,105L-200,106L-199,105L-202,100ZM-202,125L-207,124L-210,120L-211,117L-210,117L-208,119L-205,119L-205,120Z" fill="#E0E0E0" stroke="#fff" stroke-width=".4"/><path d="M-242,85L-242,84L-236,86L-227,87L-218,91L-217,93L-213,91L-207,93L-205,97L-201,99L-202,100L-199,105L-200,106L-204,105L-208,103L-210,104L-219,105L-225,101L-232,102L-231,98L-233,92L-236,89L-240,88Z" fill="#E0E0E0" stroke="#fff" stroke-width=".4"/><path d="M279,314L275,309L281,309L283,311L281,317ZM290,332L291,330L292,326L296,325L295,330L299,323L299,330L297,332L295,336L292,338L289,333ZM314,342L315,346L315,350L313,356L311,349L308,352L310,357L308,360L300,357L299,352L301,349L296,346L294,348L291,348L287,352L286,350L288,344L292,343L296,340L298,343L303,341L304,338L308,338L308,333L313,336L314,339ZM264,336L255,342L258,338L263,334L267,329L270,323L271,328L267,332ZM288,277L287,280L289,285L288,290L284,292L283,298L284,303L288,304L291,303L299,307L298,310L300,312L299,315L294,312L292,308L290,311L286,307L280,308L277,306L278,303L280,302L278,300L277,303L274,299L273,296L272,289L275,292L276,281L278,275L282,275L286,277L288,275ZM286,322L285,319L289,321L293,321L293,324L290,327L286,329L286,326ZM309,317L310,325L305,323L306,325L307,329L304,331L304,326L302,326L301,322L305,322L305,320L301,315L307,315Z" fill="#E0E0E0" stroke="#fff" stroke-width=".4"/><path d="M145,355L146,353L151,356L152,360L156,359L158,356L160,357L163,361L166,365L167,369L166,372L166,374L167,378L169,380L172,386L172,388L167,388L161,384L153,378L153,375L149,371L148,366L146,362L146,357ZM260,370L254,369L247,369L244,376L242,378L239,387L233,388L227,387L224,387L220,390L216,390L212,391L208,388L207,383L211,386L216,384L218,379L220,378L228,376L233,371L236,367L239,370L240,368L243,368L244,364L244,361L249,357L252,352L255,352L258,355L258,358L263,359L268,361L267,364L263,364L264,367Z" fill="#E0E0E0" stroke="#fff" stroke-width=".4"/><path d="M244,361L244,364L243,368L240,368L239,370L236,367L238,365Z" fill="#E0E0E0" stroke="#fff" stroke-width=".4"/><path d="M-165,272L-160,283L-158,287L-162,289L-164,292L-164,295L-170,297L-180,300L-186,305L-189,306L-191,305L-195,308L-199,309L-204,310L-206,310L-207,312L-209,312L-210,314L-213,314L-215,315L-220,314L-221,310L-221,307L-222,305L-223,300L-225,297L-224,297L-225,294L-224,292L-224,290L-221,287L-222,285L-220,281L-218,283L-216,282L-208,282L-207,283L-201,284L-199,283L-197,285L-194,284L-189,277L-183,274Z" fill="#E0E0E0" stroke="#fff" stroke-width=".4"/><path d="M-275,198L-267,200L-265,197L-263,195L-258,194L-257,191L-255,190L-261,182L-248,178L-247,177L-239,179L-230,185L-212,200L-200,200L-194,201L-192,204L-188,204L-185,211L-182,212L-181,215L-177,218L-176,221L-177,223L-176,226L-174,228L-173,230L-172,232L-170,233L-169,233L-167,235L-167,237L-165,244L-145,248L-144,246L-141,251L-145,265L-165,272L-183,274L-189,277L-194,284L-197,285L-199,283L-201,284L-207,283L-208,282L-216,282L-218,283L-220,281L-222,285L-221,287L-224,290L-225,287L-227,285L-227,282L-231,280L-234,274L-236,268L-240,264L-243,262L-248,256L-248,251L-248,247L-252,239L-255,236L-258,235L-260,231L-260,229L-262,226L-264,224L-266,219L-270,213L-273,208L-277,208L-276,204L-275,201Z" fill="#E0E0E0" stroke="#fff" stroke-width=".4"/><path d="M-192,345L-210,364L-218,364L-224,369L-228,369L-230,371L-234,371L-237,369L-243,372L-245,374L-249,374L-251,373L-252,373L-254,373L-262,368L-267,368L-269,365L-269,362L-272,361L-276,354L-279,352L-280,350L-283,346L-287,346L-285,342L-282,342L-281,340L-281,334L-279,327L-276,326L-275,323L-273,318L-269,315L-266,308L-265,302L-258,304L-256,299L-252,302L-248,300L-246,302L-242,302L-236,304L-235,307L-232,309L-229,313L-227,315L-229,318L-231,321L-231,323L-231,325L-227,325L-226,324L-224,325L-226,328L-223,331L-221,335L-218,337L-197,345Z" fill="#E0E0E0" stroke="#fff" stroke-width=".4"/><path d="M-184,322L-184,322L-184,325L-184,332L-184,335L-187,339L-192,345L-197,345L-218,337L-221,335L-223,331L-226,328L-224,325L-222,322L-220,323L-218,326L-216,329L-212,329L-206,327L-199,326L-194,324L-190,324L-188,323Z" fill="#E0E0E0" stroke="#fff" stroke-width=".4"/></g><g clip-path="url(#v)"><path d="M359.3,145.8L359.0,146.1L358.5,146.0L358.1,145.6L358.2,145.1L358.8,144.7L359.4,145.5ZM391.3,132.8L390.7,132.8L390.6,132.7L390.9,132.5L391.0,132.2L391.2,131.6L391.2,131.4L390.7,131.4L390.7,130.7L391.1,130.0L392.1,128.9L392.4,128.7L392.4,129.2L392.1,130.3L392.0,130.7L392.8,130.8L392.3,132.1ZM369.4,160.9L368.7,161.6L368.1,161.6L367.8,161.3L367.7,160.9L368.2,160.3L368.7,159.5L369.2,159.1L369.5,158.9L369.8,158.9L369.2,160.1ZM341.6,191.6L340.9,191.8L340.5,191.6L340.1,190.7L340.8,190.1L341.7,190.7L341.9,190.8ZM343.8,190.6L343.2,190.7L343.2,190.3L343.6,189.3L343.7,188.6L344.1,187.7L344.3,187.5L344.4,187.4L344.6,187.7L344.4,188.8L344.0,189.6ZM338.1,176.8L337.6,177.1L337.5,176.8L337.3,176.7L337.7,176.3L337.7,176.2L337.4,175.9L337.7,175.0L337.7,174.6L338.7,174.4L338.9,174.8L338.9,176.0ZM333.0,162.2L332.5,162.5L332.3,162.1L332.5,160.7L333.3,161.0L333.3,161.4ZM333.6,160.4L333.5,160.8L333.1,160.5L332.9,160.3L333.3,159.1L333.2,158.7L333.3,158.4L334.1,157.8L334.2,157.9L334.2,158.1L334.2,158.4L334.2,159.0L333.6,159.9ZM329.0,172.6L329.2,172.8L329.6,172.6L329.9,172.6L330.1,172.7L330.4,173.3L330.5,173.6L330.0,173.6L329.8,173.7L329.5,174.1L329.2,173.9L328.9,173.8L328.9,173.5ZM340.0,175.3L339.5,175.4L339.2,175.3L339.1,175.0L340.0,174.5L340.6,174.6L340.3,175.1ZM408.9,68.0L408.7,68.6L408.3,67.7L408.3,66.8L408.4,66.8L408.8,66.9L408.9,67.4ZM410.3,70.0L409.9,70.0L409.4,69.6L409.3,69.2L409.7,68.8L410.1,68.9L410.4,69.4L410.6,69.7ZM398.7,97.0L398.5,97.0L398.4,96.9L398.2,96.3L398.3,96.0L398.8,95.7L399.1,95.6L398.8,96.8ZM365.6,159.4L365.5,159.6L365.4,159.5L365.0,159.9L364.9,159.5L364.6,159.3L364.5,159.1L365.5,159.0L365.8,159.1ZM398.5,157.5L398.4,157.9L398.1,157.8L397.9,157.6L397.9,157.1L398.3,157.1ZM331.7,172.1L331.5,172.2L331.3,171.5L331.1,171.3L331.4,171.1L331.9,169.9L332.0,170.4L332.1,170.9L332.3,171.0L332.1,171.3L331.9,171.5ZM334.3,169.2L333.9,169.6L333.5,169.6L333.8,169.1L333.9,168.9L334.1,168.4L334.6,168.2L334.8,168.1L334.4,168.7ZM336.3,165.1L335.8,165.5L335.5,165.2L335.7,164.5L335.8,164.3L336.2,164.5ZM354.2,162.3L354.0,162.6L353.4,162.5L353.7,162.2L353.8,161.9L354.0,161.8L354.1,162.2ZM352.2,163.6L352.5,163.9L353.2,163.8L353.3,163.9L353.1,164.1L352.8,164.4L352.2,164.2L351.8,164.2L351.8,163.7L351.8,163.6ZM335.8,181.1L335.6,181.3L335.7,180.7L336.2,180.2L336.3,180.5ZM416.1,218.3L416.0,218.3L415.6,217.6L415.7,217.5L415.9,217.6L416.2,218.1ZM426.6,79.0L427.4,79.1L427.8,79.0L428.4,79.2L430.9,80.5L431.6,80.7L432.4,80.7L432.9,80.6L433.4,80.2L434.9,78.6L436.4,77.1L436.6,77.1L436.6,77.5L436.5,78L435.8,79.4L435.0,81.2L434.9,82.2L435.1,83.1L435.6,83.8L436.0,84.9L436.4,86.3L437.0,86.5L437.3,86.5L438.0,86.1L438.5,85.5L439.0,85.5L439.6,85.5L438.9,85.9L438.2,86.4L437.7,87.3L437.4,87.4L436.8,87.4L436.4,87.4L435.7,87.8L435.0,88.2L434.4,88.7L433.7,88.9L432.9,89.0L431.8,89.4L431.1,89.4L429.7,89.1L429.0,89.2L427.6,90.0L426.2,91.2L425.1,92.5L424.1,94.0L423.7,94.9L423.5,95.8L423.4,96.4L423.3,96.9L423.1,97.4L422.8,97.7L422.0,97.5L420.7,96.7L418.2,95.4L415.4,93.6L413.9,92.6L411.1,92.9L408.3,94.7L408.1,94.6L407.1,93.3L406.6,92.8L406.0,92.7L405.5,92.7L405.1,92.8L404.5,93.4L404.2,93.9L404.1,94.4L404.0,94.8L404.1,95.1L404.7,95.9L405.4,96.5L405.7,96.7L406.4,96.6L406.7,96.7L407.9,97.9L409.1,99.0L409.4,99.4L409.0,99.8L408.4,100.0L407.8,99.9L407.3,99.8L406.2,99.3L405.8,99.7L405.1,100.5L404.8,101.4L404.5,101.8L403.7,102.4L402.9,102.7L402.6,102.6L402.2,102.2L402.1,101.8L402.0,101.3L402.1,100.3L402.5,99.4L402.7,98.4L402.4,97.1L402.2,96.8L401.3,96.0L400.9,95.3L400.8,94.3L400.9,93.8L401.1,92.6L401.3,92.0L401.7,91.8L402.1,91.7L402.7,91.3L403.4,90.8L404.1,90.1L404.8,89.3L405.1,88.5L404.5,87.5L404.4,86.9L404.5,86.3L405.1,86.0L405.8,86.2L407.0,87.1L407.3,87.1L408.1,87.2L409.3,87.4L410.0,87.3L410.3,87.2L410.9,86.5L411.1,85.6L411.0,84.4L411.0,83.3L411.3,82.3L412.3,80.8L412.6,79.9L412.7,77.7L413.1,76.7L413.3,75.7L413.5,73.6L413.1,71.6L412.7,70.6L412.2,69.6L412.3,68.7L412.6,67.9L412.6,67.6L412.7,67.4L413.4,67.2L413.8,67.0L414.1,66.6L414.5,66.4L414.7,66.6L415.0,67.0L416.0,68.1L417.6,69.9L419.4,72.7L420.6,74.0L421.8,75.3L423.2,76.5L424.6,77.6L425.5,78.1L426.2,78.9ZM345.2,166.3L346.0,166.5L346.4,166.5L346.7,166.4L347.3,166.1L347.8,165.9L348.2,166.0L348.5,166.3L348.7,166.6L348.6,167.0L348.0,167.9L347.5,168.8L348.6,169.0L349.8,169.0L349.5,169.5L349.5,170.0L349.9,170.2L350.2,170.5L350.1,170.8L349.9,171.1L350.5,171.5L350.5,171.8L350.3,172.1L348.7,174.0L348.3,175.0L348.0,176.1L347.7,176.9L347.5,177.7L347.3,178.5L347.0,179.4L347.1,180.2L347.0,181.0L346.2,183.0L345.6,183.0L344.9,182.8L344.5,182.8L344.3,183.3L344.7,184.2L343.4,185.3L342.0,186.0L342.0,185.7L342.1,185.4L342.3,185.2L342.5,184.9L342.7,184.1L342.6,183.2L342.2,182.1L342.1,181.8L342.4,181.6L342.6,181.5L342.7,181.4L342.7,181.0L342.6,180.8L342.2,180.7L341.8,180.7L341.6,181.1L341.2,181.9L341.0,182.6L341.1,183.1L341.2,183.4L341.7,184.1L341.6,184.5L341.4,184.7L339.6,184.1L339.2,184.0L338.9,183.9L338.5,183.0L339.3,182.8L339.5,182.7L339.6,182.4L339.7,181.6L339.3,180.8L339.0,180.6L338.8,180.3L339.0,179.7L338.9,178.9L338.8,177.9L339.0,177.7L339.7,177.5L340.1,176.9L340.6,176.2L341.2,175.1L341.7,173.8L341.2,173.8L340.8,173.5L341.3,172.9L341.1,172.2L340.4,171.3L340.0,170.2L339.4,169.7L339.1,169.5L338.7,169.8L338.4,170.1L338.7,170.8L338.7,171.4L338.7,172.1L339.0,172.1L339.4,171.9L339.7,172.0L339.9,172.4L339.9,172.8L339.8,173.2L339.5,173.4L339.2,173.4L338.8,173.2L338.6,172.8L337.9,172.7L337.3,173.0L336.6,173.8L336.1,174.2L336.4,173.6L336.5,173.0L336.2,172.6L335.6,171.9L335.5,171.5L335.4,170.9L335.5,170.5L336.2,171.0L336.5,171.7L337.0,172.0L337.5,172.1L337.1,171.0L336.9,170.7L336.3,170.3L335.4,169.5L334.9,169.1L335.1,168.3L335.4,168.1L335.7,168.1L336.6,168.4L336.7,168.0L336.5,167.8L336.5,167.5L337.1,167.2L338.1,166.9L338.3,166.7L338.4,166.5L338.7,166.3L339.4,166.3L340.0,166.0L340.4,165.2L340.5,164.8L340.7,164.5L341.9,163.8L342.2,163.7L343.0,163.8L343.7,164.2L344.1,164.9L344.4,165.7ZM365.7,161.2L366.5,161.5L367.5,161.4L367.5,162.8L367.6,163.3L367.8,163.7L367.7,164.4L368.1,164.6L366.9,165.3L365.8,166.2L365.3,166.9L364.9,167.5L364.7,168.2L364.5,169.0L364.2,168.7L363.1,167.5L362.4,167.1L361.3,166.9L361.0,167.0L358.8,168.1L358.5,169.0L357.9,170.3L357.6,170.7L357.2,170.8L357.0,171.0L356.8,172.1L356.1,172.8L355.6,172.8L354.9,172.6L354.6,172.7L355.0,171.7L354.4,171.5L353.7,171.5L353.7,170.9L353.2,170.5L353.5,169.9L353.5,169.5L353.7,169.3L353.8,168.9L353.8,168.6L353.4,168.6L353.1,168.4L353.1,167.6L352.9,167.6L352.3,167.7L351.0,168.3L350.7,168.3L351.2,167.9L352.3,167.3L352.8,167.0L353.9,166.0L354.6,165.6L355.0,164.8L355.1,164.3L355.3,163.9L355.5,163.2L355.9,163.0L356.5,162.4L356.9,162.5L357.2,163.2L357.8,163.7L358.2,163.7L358.8,163.4L359.2,163.4L360.0,163.4L360.7,163.0L361.0,162.6L361.1,162.1L360.8,161.3L361.1,161.4L361.5,161.3L362.2,160.8L363.0,160.5L363.8,160.4L364.8,160.7ZM409.9,103.1L410.2,103.3L411.4,102.8L411.1,104.1L411.0,105.5L411.1,107.6L411.2,108.6L411.4,109.6L411.9,110.3L412.6,110.8L413.6,112.3L414.1,114.2L414.5,115.1L414.7,116.1L414.8,116.5L414.8,116.9L414.7,117.5L414.8,118.0L414.7,119.5L414.3,121.3L414.2,122.2L413.9,122.3L413.6,122.8L413.4,123.0L413.2,123.1L412.9,123.1L412.7,123.3L412.6,123.8L412.5,124.2L412.2,124.6L412.0,125.1L411.8,126.1L411.7,127.2L411.5,128.0L410.8,128.2L410.1,128.2L409.1,128.6L408.9,128.8L408.2,130.1L408.0,130.9L408.0,131.7L408.2,132.8L408.5,133.8L408.7,135.7L408.4,138.5L408.2,139.4L407.8,140.0L407.4,140.3L407.1,140.7L406.7,141.6L406.0,143.4L406.0,143.9L406.0,144.4L405.8,145.0L405.7,145.6L405.8,146.3L406.0,147.0L406.9,148.7L407.2,149.2L407.6,149.7L406.1,150.1L405.8,150.4L404.9,151.3L404.7,152.3L404.7,153.3L404.5,153.6L404.3,153.9L404.0,154.2L403.0,154.6L402.4,155.1L401.7,155.8L401.5,156.2L401,156.0L400.7,155.7L401.0,155.3L400.9,154.8L401.0,153.5L400.9,153.0L401.4,152.6L401.6,152.0L402.2,151.5L402.6,151.1L402.6,150.8L402.3,150.4L401.9,150.1L401.4,150.1L400.9,150.2L400.6,150.5L400.5,151.0L400.5,151.3L400.5,151.5L399.7,152.1L399.8,152.9L400.1,153.2L400.4,153.4L400.3,153.6L399.9,154.2L399.7,154.2L399.2,153.5L398.6,153.0L397.9,153.0L397.2,153.2L396.6,153.7L396.4,154.2L396.3,154.6L396.3,155.7L396.1,156.6L395.7,157.4L395.4,157.7L394.9,158.3L394.5,158.3L394.2,158.1L394.0,157.7L394.3,156.3L394.3,155.6L394.9,155.2L394.4,154.6L393.7,154.4L392.8,154.7L392.6,155.0L392.4,155.5L391.9,156.0L391.4,156.6L390.8,157.5L390.3,158.5L389.0,158.2L388.2,158.1L387.5,158.1L386.2,158.0L384.7,158.2L383.1,158.6L383.2,158.3L384.5,157.7L384.6,157.5L384.4,157.2L384.1,157.1L383.3,157.3L382.9,157.2L382.7,156.8L382.4,156.7L382.3,156.8L382.3,157.6L382.1,157.7L381.8,157.5L381.9,156.9L381.8,156.1L381.7,155.5L382.0,155.1L381.7,154.9L381.4,155.0L381.0,155.2L380.7,155.5L379.9,157.0L379.7,157.9L380.2,158.6L381.7,159.6L381.9,159.8L381.9,160.2L381.7,160.7L381.3,160.9L379.7,161.2L378.4,161.8L378.0,162.4L376.7,164.9L375.7,166.6L374.3,167.2L372.7,166.6L372.3,166.1L372.0,165.3L371.4,164.7L370.9,164.0L370.6,163.1L370.7,161.8L370.4,160.9L370.6,160.7L371.5,160.2L371.8,159.9L372.3,159.3L372.5,158.9L372.5,158.4L372.1,158.1L371.1,158.1L370.1,158.3L369.4,158.0L368.4,157.4L368.1,157.2L367.1,157.2L366.4,157.3L365.7,157.5L364.9,157.6L364.7,157.7L363.8,158.6L363.2,159.1L362.6,159.3L361.3,159.4L360.6,159.6L360.0,159.8L359.8,159.8L359.1,160.2L358.3,160.5L357.8,160.8L357.0,160.6L355.5,161.2L354.7,161.3L353.9,161.0L353.2,160.4L352.5,160.7L352.0,161.4L351.8,162.9L351.5,163.6L351.4,164.4L351.1,164.3L348.9,162.8L348.8,162.8L347.1,163.0L346.7,163.2L346.1,163.5L345.5,163.6L345.0,163.4L344.5,163.0L344.0,163.1L343.5,163.4L343.3,161.1L343.4,160.9L343.7,160.5L344.1,160.1L344.9,160.0L345.7,160.1L346.3,160.0L346.8,159.5L347.3,158.9L348.0,158.4L348.8,158.0L349.6,157.5L350.2,156.9L350.9,156.2L351.5,155.6L352.1,155.2L353.1,154.1L354.5,152.9L355.0,152.1L355.3,151.8L356.4,151.3L357.9,151.0L358.6,151.0L359.3,151.8L359.7,151.6L360.1,151.5L360.9,151.3L361.7,151.5L362.5,151.5L363.2,151.4L364.7,151.1L365.5,150.8L366.3,150.4L369.0,150.1L370.9,149.5L371.2,149.5L371.5,149.7L371.5,150.2L371.3,150.7L371.5,151.0L371.9,151.2L373.7,151.3L374.2,151.4L374.9,151.0L375.6,150.6L376.3,150.0L376.8,149.3L376.4,148.5L376.3,147.5L376.7,146.5L377.2,145.7L377.9,145.2L378.6,144.6L379.8,142.9L380.7,141.5L381.1,139.8L380.9,137.8L381.7,136.4L382.4,136.1L384.0,135.4L384.7,135.2L384.9,135.5L384.8,135.9L383.7,137.2L383.0,137.7L382.6,137.8L382.2,138.1L382.0,138.5L382.6,139.2L382.8,139.8L382.8,140.3L382.8,140.8L383.5,141.3L384.3,141.4L384.6,141.4L384.9,141.3L385.8,140.0L386.0,139.8L388.5,138.9L389.8,138.2L390.5,138.0L391.2,137.7L392.7,136.3L393.2,135.6L393.7,134.9L394.1,134.1L394.4,133.2L394.8,132.6L397.2,131.3L397.9,130.5L398.1,130.2L398.4,129.1L398.6,128.1L398.9,127.2L399.3,126.4L399.8,125.6L400.4,124.9L400.7,124.1L401.2,122.2L401.4,121.2L401.6,120.8L401.9,120.5L402.1,120.1L402.2,119.7L402.3,119.2L402.4,117.9L402.3,116.9L402.0,116.0L401.6,115.7L401.3,115.7L400.8,115.8L400.3,115.4L400.4,115.1L400.9,115.0L401.2,114.9L401.4,114.6L401.8,113.6L402.1,112.6L402.1,112.1L401.8,111.3L401.5,110.2L401.5,109.7L401.8,109.1L402.2,108.6L402.6,108.4L402.9,108.4L403.3,108.2L403.6,107.9L403.8,107.6L404.1,106.7L404.2,106.2L404.0,104.9L404.2,104.5L404.5,104.3L404.8,104.5L405.2,104.5L405.6,104.5L406.0,104.6L406.1,104.9L406.4,107.2L406.5,107.5L406.8,107.7L407.1,107.7L407.4,107.3L407.6,106.9L408.0,106.8L409.2,107.3L409.6,106.9L409.9,106.4L410.1,105.4L410.0,104.5L409.7,104.2L409.4,104.3L409.2,104.5L408.9,104.6L407.1,105.1L407.2,104.1L407.5,102.6L407.7,102.2L408.0,102.0L408.8,102.2L409.1,102.4ZM300.8,233.3L300.5,234.4L300.1,234.6L299.8,234.5L299.5,233.9L299.7,233.7L300.1,233.8L300.3,233.7L300.9,232.8L301.0,233.0ZM298.2,235.0L297.8,235.1L297.3,235.0L296.9,234.9L296.9,234.7L297.4,234.5L297.4,234.2L297.5,234.0L298.5,234.4L298.5,234.7ZM308.3,231.7L307.7,231.9L307.1,231.8L307.2,230.8L307.4,230.9L307.5,231.3L308.0,231.5ZM326.4,218.1L325.8,218.4L325.5,218.8L325.0,218.9L324.4,219.5L323.9,219.6L323.9,220.0L324.1,220.4L323.7,220.5L323.4,220.9L323.3,221.3L323.5,221.5L323.4,221.7L323.0,222.1L322.5,222.1L322.4,221.6L322.5,221.3L323.0,220.5L323.0,219.6L323.4,219.5L323.6,219.4L324.2,218.8L324.4,218.5L324.0,218.2L324.0,217.9L324.1,217.8L324.7,217.9L324.9,218.1L325.0,218.1L325.3,218.0L325.5,217.6L326.1,217.0L326.4,216.4L326.9,216.9L326.7,217.6ZM331.1,210.3L330.9,210.5L330.5,210.3L330.4,209.4L330.6,209.0L330.8,209.0L331.1,209.7L331.3,210.0ZM334.1,206.8L333.5,207.4L332.9,206.8L332.2,206.5L332.6,206.4L332.7,206.2L332.8,206.0L333.2,205.7L334.2,205.4L334.4,205.4L334.8,205.1L334.9,204.9L335.0,204.8L335.6,204.5L335.8,204.9L335.7,205.1L335.3,205.3L334.9,205.7L334.5,206.1L334.1,206.3L334.0,206.4ZM333.2,207.5L333.3,207.7L332.6,207.6L332.4,206.9L332.8,207.0L333.0,207.2ZM401.0,170.5L400.9,170.6L400.6,170.3L400.5,170.1L400.6,169.9L400.8,169.9L401.2,170.2Z" fill="#4ECDC4" stroke="#2C3E50" stroke-width="1"/></g><circle cx="400.0" cy="150.0" r="4" fill="#E74C3C" stroke="#fff" stroke-width="2"/><text x="400.0" y="140.0" text-anchor="middle" font-family="sans-serif" font-weight="700" font-size="10" fill="#2D3436">Tokyo</text></svg>