<svg viewBox="0 0 800 300" xmlns="http://www.w3.org/2000/svg"><defs><clipPath id="v"><rect width="800" height="300"/></clipPath></defs><rect width="800" height="300" fill="#DCEEF8"/><g clip-path="url(#v)"><path d="M2062,344L2065,342L2069,346L2067,352L2060,354L2054,352L2052,347L2057,342ZM2084,332L2077,335L2069,338L2068,333L2074,331L2077,330L2084,326L2084,326L2084,332ZM-2151,326L-2151,326L-2151,326L-2148,326L-2150,332L-2151,332L-2151,332L-2151,326Z" fill="#E0E0E0" stroke="#fff" stroke-width=".4"/><path d="M366,146L368,147L410,171L411,178L428,190L423,204L423,211L431,215L431,219L428,226L429,229L428,235L432,242L437,254L441,257L432,264L419,268L412,268L408,272L399,272L396,274L382,270L373,271L370,255L366,249L364,246L352,244L346,240L338,238L333,236L328,233L322,218L315,212L313,205L314,199L312,188L317,187L321,183L326,177L329,174L329,171L326,168L325,163L329,162L329,155L325,148L329,147L342,147Z" fill="#E0E0E0" stroke="#fff" stroke-width=".4"/><path d="M-135,-204L-135,-203L-135,-200L-135,-181L-174,-181L-174,-148L-185,-147L-187,-140L-185,-122L-231,-122L-234,-118L-233,-123L-233,-123L-207,-124L-205,-129L-200,-135L-197,-152L-180,-166L-175,-182L-171,-183L-167,-194L-157,-195L-153,-193L-148,-193L-144,-196L-137,-197L-137,-204Z" fill="#E0E0E0" stroke="#fff" stroke-width=".4"/><path d="M312,188L314,199L313,205L315,212L322,218L328,233L324,232L308,234L305,235L302,243L304,248L302,263L301,275L304,277L312,281L315,279L316,292L307,292L302,285L298,280L289,279L286,272L279,276L270,274L266,269L258,268L253,268L252,264L248,264L243,263L236,265L230,265L228,266L228,252L224,247L223,240L225,233L223,228L222,221L208,221L209,217L203,217L203,219L195,219L192,226L191,229L184,227L180,229L172,230L168,224L165,220L162,213L159,204L124,204L120,205L117,205L112,207L110,203L113,202L114,197L115,194L120,191L123,192L127,188L133,188L134,191L138,193L145,186L152,180L155,176L155,167L160,155L165,149L173,144L174,140L175,136L177,131L176,125L177,114L180,107L183,101L184,94L185,85L190,79L196,76L206,80L213,84L222,85L230,87L234,80L236,79L241,81L254,75L259,77L262,77L264,74L269,73L277,74L285,74L289,73L296,83L301,84L304,82L310,83L316,81L319,86L330,94L329,107L334,109L330,113L325,116L321,122L318,128L318,137L315,142L315,151L311,154L311,161L309,162L308,168L311,174Z" fill="#E0E0E0" stroke="#fff" stroke-width=".4"/><path d="M456,155L449,145L449,102L459,89L462,85L470,85L480,76L496,76L529,40L537,30L543,23L543,17L543,5L543,-0L543,-0L546,-1L552,-2L558,-4L564,-8L568,-8L568,-4L567,3L567,9L565,13L562,26L556,39L549,55L539,72L528,85L515,101L503,111L485,122L474,131L461,146L459,152Z" fill="#E0E0E0" stroke="#fff" stroke-width=".4"/><path d="M256,38L247,32L243,29L242,25L244,20L244,16L237,8L236,3L236,0L232,-4L232,-11L229,-15L225,-14L226,-19L229,-24L228,-29L232,-33L229,-35L232,-43L238,-52L248,-51L247,-100L247,-105L261,-105L261,-131L308,-131L354,-131L401,-131L404,-118L402,-116L403,-103L408,-88L412,-85L419,-80L413,-73L404,-71L400,-68L399,-59L394,-42L395,-37L394,-26L389,-14L382,-8L377,1L375,6L370,9L366,22L367,32L366,23L365,23L365,17L364,13L358,8L356,-1L358,-10L352,-10L351,-8L344,-7L347,-4L348,4L342,10L336,19L330,20L320,13L315,16L314,19L308,21L308,24L296,24L294,21L286,21L282,23L278,22L272,15L270,12L262,13L259,19L255,30L251,32L248,33Z" fill="#E0E0E0" stroke="#fff" stroke-width=".4"/><path d="M247,-100L248,-51L238,-52L232,-43L229,-35L232,-33L228,-29L229,-24L226,-19L225,-14L229,-15L232,-11L232,-4L236,0L236,3L228,5L222,10L214,23L203,28L191,28L188,29L189,33L183,37L178,42L163,46L160,44L159,43L156,46L147,47L148,44L145,36L143,31L138,29L131,22L134,16L139,18L142,17L149,17L142,6L143,-2L142,-10L137,-18L139,-23L131,-24L131,-31L126,-36L131,-52L146,-64L147,-80L151,-105L154,-110L149,-115L149,-119L144,-122L142,-142L153,-149L200,-124Z" fill="#E0E0E0" stroke="#fff" stroke-width=".4"/><path d="M159,486L165,479L169,483L171,489L177,490L184,492L190,491L201,484L201,436L204,438L211,450L210,458L213,463L221,461L227,455L233,451L235,445L241,442L246,444L252,447L261,448L269,445L270,441L272,435L278,434L282,429L286,420L296,411L313,401L318,402L324,404L328,402L334,403L339,421L342,431L340,445L341,450L335,447L332,448L331,452L328,457L328,462L335,469L342,467L344,461L353,461L350,471L349,482L346,488L338,495L335,497L330,504L327,511L320,521L307,535L299,543L290,550L278,555L272,556L270,560L263,558L257,560L244,558L237,559L232,559L220,564L210,567L203,572L198,572L193,567L189,567L184,561L183,563L181,559L182,550L178,541L182,538L181,528L174,515L168,503L168,503ZM308,491L303,487L297,490L291,495L284,503L293,514L298,512L300,508L306,506L308,502L312,495Z" fill="#E0E0E0" stroke="#fff" stroke-width=".4"/><path d="M308,491L312,495L308,502L306,506L300,508L298,512L293,514L284,503L291,495L297,490L303,487Z" fill="#E0E0E0" stroke="#fff" stroke-width=".4"/><path d="M-641,86L-648,97L-651,105L-656,110L-662,111L-663,107L-666,107L-669,110L-675,108L-672,103L-671,97L-668,92L-673,85L-674,77L-668,67L-664,68L-655,71L-643,81ZM40,-537L45,-532L62,-529L56,-516L55,-504L51,-501L46,-502L47,-498L38,-488L38,-481L43,-483L47,-476L47,-471L50,-465L46,-460L49,-447L56,-445L54,-438L44,-429L20,-433L3,-428L2,-418L-12,-416L-25,-423L-29,-420L-51,-427L-56,-433L-49,-443L-47,-476L-59,-494L-68,-503L-86,-510L-87,-523L-72,-527L-52,-522L-56,-542L-45,-535L-17,-549L-14,-564L-4,-568L-2,-561L4,-561L9,-553L17,-545L23,-546L34,-538L36,-536ZM70,-421L77,-427L79,-413L75,-401L70,-404L67,-415Z" fill="#E0E0E0" stroke="#fff" stroke-width=".4"/><path d="M334,403L328,402L324,404L318,402L313,401L306,396L296,394L293,386L293,381L288,380L275,366L271,359L269,357L264,347L277,348L281,350L285,349L292,341L302,331L306,330L307,326L314,321L323,320L324,324L334,324L339,326L342,329L347,330L353,334L353,350L351,358L350,368L352,371L351,379L349,380L346,389Z" fill="#E0E0E0" stroke="#fff" stroke-width=".4"/><path d="M313,401L296,411L286,420L282,429L278,434L272,435L270,441L269,445L261,448L252,447L246,444L241,442L235,445L233,451L227,455L221,461L213,463L210,458L211,450L204,438L201,436L201,398L213,398L213,353L222,353L240,349L244,354L252,349L255,349L262,346L264,347L269,357L271,359L275,366L288,380L293,381L293,386L296,394L306,396Z" fill="#E0E0E0" stroke="#fff" stroke-width=".4"/><path d="M201,436L201,484L190,491L184,492L177,490L171,489L169,483L165,479L159,486L150,476L146,466L143,453L140,444L136,424L136,409L135,402L130,396L124,386L118,371L115,363L106,351L105,342L111,339L118,337L125,337L132,343L134,342L182,342L190,348L218,349L240,344L250,341L257,342L262,345L262,346L255,349L252,349L244,354L240,349L222,353L213,353L213,398L201,398Z" fill="#E0E0E0" stroke="#fff" stroke-width=".4"/><path d="M-230,-27L-235,-36L-240,-40L-235,-43L-230,-51L-227,-58L-223,-61L-217,-60L-211,-63L-205,-63L-199,-60L-191,-56L-184,-47L-176,-39L-176,-31L-173,-25L-169,-21L-168,-16L-169,-13L-170,-12L-177,-13L-178,-12L-180,-11L-189,-14L-194,-14L-216,-15L-219,-14L-223,-14L-229,-12L-231,-21L-221,-21L-218,-23L-216,-23L-211,-26L-206,-23L-201,-23L-196,-26L-198,-29L-202,-27L-206,-27L-211,-30L-214,-30L-217,-27Z" fill="#E0E0E0" stroke="#fff" stroke-width=".4"/><path d="M-169,-13L-168,-16L-169,-21L-173,-25L-176,-31L-176,-39L-172,-41L-170,-48L-167,-49L-158,-45L-152,-48L-147,-47L-145,-50L-98,-50L-96,-58L-98,-60L-103,-113L-109,-169L-91,-169L-51,-141L-12,-113L-9,-107L-2,-104L4,-102L4,-94L17,-95L17,-66L11,-58L10,-51L-1,-49L-17,-48L-21,-43L-29,-43L-36,-43L-39,-45L-46,-43L-57,-38L-59,-35L-68,-29L-70,-26L-75,-24L-80,-25L-83,-22L-85,-14L-95,-4L-94,0L-97,5L-97,12L-102,14L-104,15L-106,10L-110,12L-112,11L-114,15L-123,15L-126,13L-128,14L-131,11L-131,7L-132,6L-135,7L-134,3L-132,-0L-136,-5L-138,-8L-141,-11L-143,-11L-146,-10L-149,-8L-153,-5L-158,-6L-161,-10L-163,-10L-166,-8L-168,-8Z" fill="#E0E0E0" stroke="#fff" stroke-width=".4"/><path d="M-234,-118L-231,-122L-185,-122L-187,-140L-185,-147L-174,-148L-174,-181L-135,-181L-135,-200L-91,-169L-109,-169L-103,-113L-98,-60L-96,-58L-98,-50L-145,-50L-147,-47L-152,-48L-158,-45L-167,-49L-170,-48L-172,-41L-176,-39L-184,-47L-191,-56L-199,-60L-205,-63L-211,-63L-217,-60L-223,-61L-227,-58L-228,-64L-225,-70L-223,-82L-224,-94L-226,-100L-225,-107L-228,-113Z" fill="#E0E0E0" stroke="#fff" stroke-width=".4"/><path d="M-1,61L-11,62L-14,54L-14,27L-16,25L-16,19L-20,14L-24,11L-23,5L-19,3L-16,-2L-10,-3L-8,-7L-4,-10L0,-10L9,-3L9,1L12,8L9,13L10,16L5,23L1,27L-1,34L-1,42Z" fill="#E0E0E0" stroke="#fff" stroke-width=".4"/><path d="M142,-142L144,-122L149,-119L149,-115L154,-110L151,-105L147,-80L146,-64L131,-52L126,-36L131,-31L131,-24L139,-23L137,-18L134,-17L134,-13L131,-13L124,-26L121,-27L112,-20L102,-23L96,-24L93,-22L86,-23L79,-18L73,-17L59,-24L53,-21L47,-21L43,-25L31,-30L18,-28L15,-26L14,-19L10,-14L9,-3L0,-10L-4,-10L-8,-7L-8,-15L-21,-18L-21,-23L-28,-31L-30,-37L-29,-43L-21,-43L-17,-48L-1,-49L10,-51L11,-58L17,-66L17,-95L34,-100L68,-125L108,-149L127,-144L133,-137Z" fill="#E0E0E0" stroke="#fff" stroke-width=".4"/><path d="M-1,61L-1,42L-1,34L1,27L5,23L10,16L9,13L12,8L9,1L9,-3L10,-14L14,-19L15,-26L18,-28L31,-30L43,-25L47,-21L53,-21L59,-24L73,-17L79,-18L86,-23L93,-22L96,-24L102,-23L112,-20L121,-27L124,-26L131,-13L134,-13L138,-8L137,-6L136,-2L127,7L123,15L122,21L119,24L117,32L111,37L109,43L106,48L105,53L97,56L90,52L86,52L79,59L75,59L70,70L67,79L55,83L50,82L46,85L36,85L30,77L26,69L18,61L9,61Z" fill="#E0E0E0" stroke="#fff" stroke-width=".4"/><path d="M137,-18L142,-10L143,-2L142,6L149,17L142,17L139,18L134,16L131,22L138,29L143,31L145,36L148,44L147,47L141,59L138,61L137,71L138,76L137,79L143,85L144,89L148,96L153,99L154,105L155,108L154,115L145,112L136,109L121,108L119,108L112,109L105,107L100,108L80,108L82,99L78,91L72,89L70,84L67,82L67,79L70,70L75,59L79,59L86,52L90,52L97,56L105,53L106,48L109,43L111,37L117,32L119,24L122,21L123,15L127,7L136,-2L137,-6L138,-8L134,-13L134,-17Z" fill="#E0E0E0" stroke="#fff" stroke-width=".4"/><path d="M-23,5L-24,11L-20,14L-16,19L-16,25L-14,27L-14,54L-11,62L-21,65L-23,61L-26,53L-27,47L-25,37L-28,32L-29,23L-29,14L-34,8L-33,4Z" fill="#E0E0E0" stroke="#fff" stroke-width=".4"/><path d="M-33,4L-34,8L-29,14L-29,23L-28,32L-25,37L-27,47L-26,53L-23,61L-21,65L-39,72L-46,76L-56,79L-67,76L-66,71L-71,61L-68,48L-63,38L-66,21L-68,12L-68,5L-47,5L-42,5L-38,3Z" fill="#E0E0E0" stroke="#fff" stroke-width=".4"/><path d="M-128,14L-126,13L-123,15L-114,15L-112,11L-110,12L-106,10L-104,15L-102,14L-97,12L-91,15L-89,19L-84,21L-80,18L-74,18L-66,21L-63,38L-68,48L-71,61L-66,71L-67,76L-72,76L-80,74L-88,74L-102,76L-110,79L-122,84L-124,83L-123,74L-122,72L-122,68L-127,63L-131,62L-134,59L-132,53L-133,48L-132,44L-131,44L-130,39L-131,37L-130,35L-125,34L-128,24L-131,19L-130,15Z" fill="#E0E0E0" stroke="#fff" stroke-width=".4"/><path d="M-194,-14L-189,-14L-180,-11L-178,-12L-177,-13L-170,-12L-169,-13L-168,-8L-166,-8L-163,-10L-161,-10L-158,-6L-153,-5L-149,-8L-146,-10L-143,-11L-141,-11L-138,-8L-136,-5L-132,-0L-134,3L-135,7L-132,6L-131,7L-131,11L-128,14L-130,15L-131,19L-128,24L-125,34L-130,35L-131,37L-130,39L-131,44L-132,44L-136,44L-138,49L-141,49L-144,46L-143,41L-148,34L-151,35L-153,36L-157,36L-157,32L-158,29L-158,25L-161,20L-164,16L-173,16L-176,18L-179,19L-181,21L-183,24L-189,30L-194,23L-199,18L-202,16L-205,14L-206,9L-208,6L-211,4L-206,-2L-202,-1L-199,-4L-197,-4L-195,-5L-196,-9L-195,-10Z" fill="#E0E0E0" stroke="#fff" stroke-width=".4"/><path d="M-229,-12L-223,-14L-219,-14L-216,-15L-194,-14L-195,-10L-196,-9L-195,-5L-197,-4L-199,-4L-202,-1L-206,-2L-211,4L-217,-1L-222,-2L-225,-5L-225,-7L-229,-9Z" fill="#E0E0E0" stroke="#fff" stroke-width=".4"/><path d="M-132,44L-133,48L-132,53L-134,59L-131,62L-127,63L-122,68L-122,72L-123,74L-124,83L-127,84L-139,78L-150,69L-160,62L-168,55L-165,51L-164,48L-159,41L-153,36L-151,35L-148,34L-143,41L-144,46L-141,49L-138,49L-136,44Z" fill="#E0E0E0" stroke="#fff" stroke-width=".4"/><path d="M-189,30L-183,24L-181,21L-179,19L-176,18L-173,16L-164,16L-161,20L-158,25L-158,29L-157,32L-157,36L-153,36L-159,41L-164,48L-165,51L-168,55L-171,54L-179,49L-185,43L-188,38Z" fill="#E0E0E0" stroke="#fff" stroke-width=".4"/><path d="M-97,12L-97,5L-94,0L-95,-4L-85,-14L-83,-22L-80,-25L-75,-24L-70,-26L-68,-29L-59,-35L-57,-38L-46,-43L-39,-45L-36,-43L-29,-43L-30,-37L-28,-31L-21,-23L-21,-18L-8,-15L-8,-7L-10,-3L-16,-2L-19,3L-23,5L-33,4L-38,3L-42,5L-47,5L-68,5L-68,12L-66,21L-74,18L-80,18L-84,21L-89,19L-91,15Z" fill="#E0E0E0" stroke="#fff" stroke-width=".4"/><path d="M289,73L285,74L277,74L269,73L264,74L262,77L259,77L254,75L241,81L236,79L234,80L230,87L222,85L213,84L206,80L196,76L190,79L185,85L184,94L176,93L168,91L161,97L155,108L154,105L153,99L148,96L144,89L143,85L137,79L138,76L137,71L138,61L141,59L147,47L156,46L159,43L160,44L163,46L178,42L183,37L189,33L188,29L191,28L203,28L214,23L222,10L228,5L236,3L237,8L244,16L244,20L242,25L243,29L247,32L256,38L262,42L262,46L270,53L275,58L278,65L287,69Z" fill="#E0E0E0" stroke="#fff" stroke-width=".4"/><path d="M184,94L183,101L180,107L177,114L176,125L177,131L175,136L174,140L173,144L165,149L160,155L155,167L155,176L152,180L145,186L138,193L134,191L133,188L127,188L123,192L120,191L115,187L112,189L107,194L97,182L106,175L102,167L106,164L114,163L115,158L121,163L131,164L135,158L137,151L135,141L130,134L135,121L132,118L123,119L120,113L121,108L136,109L145,112L154,115L155,108L161,97L168,91L176,93Z" fill="#E0E0E0" stroke="#fff" stroke-width=".4"/><path d="M100,108L105,107L112,109L119,108L121,108L120,113L123,119L132,118L135,121L130,134L135,141L137,151L135,158L131,164L121,163L115,158L114,163L106,164L102,167L106,175L97,182L85,170L78,160L70,148L71,144L73,140L76,132L79,123L83,122L100,122Z" fill="#E0E0E0" stroke="#fff" stroke-width=".4"/><path d="M80,108L100,108L100,122L83,122L79,123L76,121Z" fill="#E0E0E0" stroke="#fff" stroke-width=".4"/><path d="M328,233L333,236L338,238L346,240L352,244L358,249L361,259L359,263L356,272L359,282L355,286L351,298L358,301L322,311L323,320L314,321L307,326L306,330L302,331L292,341L285,349L281,350L277,348L264,347L262,346L262,345L257,342L250,341L240,344L232,337L224,327L225,288L249,288L248,284L250,279L248,274L249,268L248,264L252,264L253,268L258,268L266,269L270,274L279,276L286,272L289,279L298,280L302,285L307,292L316,292L315,279L312,281L304,277L301,275L302,263L304,248L302,243L305,235L308,234L324,232Z" fill="#E0E0E0" stroke="#fff" stroke-width=".4"/><path d="M352,244L364,246L366,249L370,255L373,271L370,280L373,296L378,296L382,300L387,309L388,324L383,327L379,335L371,328L370,319L373,313L372,309L368,306L364,307L358,301L351,298L355,286L359,282L356,272L359,263L361,259L358,249Z" fill="#E0E0E0" stroke="#fff" stroke-width=".4"/><path d="M373,271L382,270L396,274L399,272L408,272L412,268L419,268L432,264L441,257L443,262L443,274L444,285L444,304L447,310L443,318L438,327L431,334L420,339L407,345L394,358L389,361L381,369L376,372L375,381L381,391L383,398L383,402L385,401L385,414L383,420L386,422L384,427L379,432L369,436L355,443L350,448L351,454L354,455L353,461L344,461L343,456L341,450L340,445L342,431L339,421L334,403L346,389L349,380L351,379L352,371L350,368L351,358L353,350L353,334L347,330L342,329L339,326L334,324L324,324L323,320L322,311L358,301L364,307L368,306L372,309L373,313L370,319L371,328L379,335L383,327L388,324L387,309L382,300L378,296L373,296L370,280Z" fill="#E0E0E0" stroke="#fff" stroke-width=".4"/><path d="M344,461L342,467L335,469L328,462L328,457L331,452L332,448L335,447L341,450L343,456Z" fill="#E0E0E0" stroke="#fff" stroke-width=".4"/><path d="M120,191L115,194L114,197L113,202L110,203L107,194L112,189L115,187ZM112,207L117,205L120,205L124,204L159,204L162,213L165,220L168,224L172,230L180,229L184,227L191,229L192,226L195,219L203,219L203,217L209,217L208,221L222,221L223,228L225,233L223,240L224,247L228,252L228,266L230,265L236,265L243,263L248,264L249,268L248,274L250,279L248,284L249,288L225,288L224,327L232,337L240,344L218,349L190,348L182,342L134,342L132,343L125,337L118,337L111,339L105,342L104,334L105,323L109,312L110,307L114,296L117,291L123,283L127,277L128,269L128,262L124,258L121,250L118,243L119,241L123,236L119,224L117,217L111,209Z" fill="#E0E0E0" stroke="#fff" stroke-width=".4"/><path d="M325,163L326,168L329,171L329,174L326,177L321,183L317,187L312,188L311,174L308,168L315,169L319,162Z" fill="#E0E0E0" stroke="#fff" stroke-width=".4"/><path d="M550,283L553,288L556,296L558,310L561,316L559,322L557,326L553,318L551,322L553,331L552,336L549,339L548,350L544,364L538,381L531,405L526,423L521,438L511,441L501,447L494,443L485,439L482,432L481,420L477,410L476,401L478,392L483,390L483,385L489,376L490,368L487,362L485,354L484,343L488,336L490,328L496,328L502,325L507,323L512,323L518,316L528,308L532,302L530,297L535,299L541,290L542,283L546,278Z" fill="#E0E0E0" stroke="#fff" stroke-width=".4"/><path d="M-230,-27L-217,-27L-214,-30L-211,-30L-206,-27L-202,-27L-198,-29L-196,-26L-201,-23L-206,-23L-211,-26L-216,-23L-218,-23L-221,-21L-231,-21Z" fill="#E0E0E0" stroke="#fff" stroke-width=".4"/><path d="M-135,-200L-135,-203L-135,-204L-135,-220L-116,-230L-104,-232L-95,-235L-90,-242L-77,-248L-76,-258L-69,-259L-64,-264L-49,-267L-46,-272L-49,-275L-54,-290L-54,-298L-59,-308L-47,-316L-35,-318L-27,-324L-16,-328L4,-331L24,-332L29,-330L41,-336L53,-336L58,-333L66,-333L64,-326L65,-312L63,-300L55,-292L56,-282L66,-273L66,-270L73,-264L78,-240L82,-228L83,-221L81,-210L82,-204L80,-197L81,-189L76,-183L83,-174L84,-168L88,-161L94,-163L103,-157L108,-149L68,-125L34,-100L17,-95L4,-94L4,-102L-2,-104L-9,-107L-12,-113L-51,-141L-91,-169Z" fill="#E0E0E0" stroke="#fff" stroke-width=".4"/><path d="M574,-159L576,-160L576,-156L585,-158L595,-158L602,-158L610,-166L619,-175L626,-183L629,-178L630,-168L624,-168L623,-160L625,-158L620,-155L620,-150L617,-145L616,-140L614,-137L579,-143L574,-156Z" fill="#E0E0E0" stroke="#fff" stroke-width=".4"/><path d="M565,-166L564,-175L567,-182L570,-184L574,-180L574,-172L571,-164L568,-163Z" fill="#E0E0E0" stroke="#fff" stroke-width=".4"/><path d="M616,-140L617,-145L620,-150L620,-155L625,-158L623,-160L624,-168L630,-168L636,-159L642,-155L651,-153L658,-151L663,-143L666,-139L670,-137L670,-135L666,-127L664,-123L659,-119L655,-111L650,-111L647,-108L645,-102L647,-94L646,-92L640,-92L633,-88L632,-82L629,-79L622,-79L617,-76L617,-71L611,-68L605,-69L597,-65L592,-64L588,-72L579,-93L614,-105L622,-131ZM629,-178L626,-183L630,-187L631,-186L630,-181Z" fill="#E0E0E0" stroke="#fff" stroke-width=".4"/><path d="M1112,-212L1113,-207L1109,-205L1110,-196L1101,-199L1086,-190L1086,-182L1080,-171L1079,-165L1074,-154L1065,-157L1064,-144L1062,-140L1063,-134L1057,-131L1051,-151L1048,-151L1046,-143L1039,-150L1043,-157L1048,-158L1054,-169L1047,-171L1036,-171L1025,-173L1024,-182L1018,-182L1009,-188L1005,-179L1013,-172L1006,-167L1003,-163L1010,-159L1008,-151L1012,-142L1014,-131L1013,-127L1005,-127L990,-124L991,-115L984,-107L967,-99L954,-84L945,-76L934,-68L934,-63L928,-60L917,-55L912,-55L908,-45L911,-30L911,-20L906,-8L906,12L900,13L895,22L898,26L888,29L884,37L879,41L868,30L862,13L858,1L854,-5L848,-16L845,-31L843,-39L832,-56L827,-80L823,-95L824,-111L821,-122L804,-115L796,-116L780,-132L786,-136L783,-141L769,-152L777,-161L803,-161L800,-172L794,-178L792,-189L785,-194L798,-208L811,-207L824,-221L831,-235L842,-249L842,-259L852,-267L843,-274L839,-283L834,-295L840,-302L858,-298L871,-300L883,-312L895,-295L894,-284L899,-277L898,-270L890,-271L893,-256L905,-247L921,-238L914,-232L909,-219L920,-214L931,-208L947,-200L963,-198L970,-192L979,-190L993,-187L1003,-188L1004,-193L1003,-201L1003,-207L1011,-210L1012,-199L1012,-197L1023,-192L1030,-194L1040,-193L1050,-193L1050,-201L1046,-205L1055,-207L1066,-217L1079,-226L1089,-222L1098,-228L1103,-220L1099,-214Z" fill="#E0E0E0" stroke="#fff" stroke-width=".4"/><path d="M1003,-207L1003,-201L1004,-193L1003,-188L993,-187L979,-190L970,-192L963,-198L947,-200L931,-208L920,-214L909,-219L914,-232L921,-238L926,-241L935,-237L947,-228L954,-226L958,-220L967,-217L976,-211L990,-208Z" fill="#E0E0E0" stroke="#fff" stroke-width=".4"/><path d="M883,-312L871,-300L858,-298L840,-302L834,-295L839,-283L843,-274L852,-267L842,-259L842,-249L831,-235L824,-221L811,-207L798,-208L785,-194L792,-189L794,-178L800,-172L803,-161L777,-161L769,-152L760,-155L757,-165L748,-175L726,-172L707,-172L690,-170L695,-185L712,-192L711,-198L705,-200L705,-212L694,-218L689,-226L683,-233L703,-226L714,-228L721,-226L724,-229L732,-228L747,-234L748,-245L754,-253L763,-253L764,-257L773,-259L778,-258L782,-261L782,-270L787,-278L794,-282L789,-291L801,-291L804,-296L803,-301L809,-307L808,-315L805,-321L812,-327L825,-330L838,-332L844,-335L851,-336L860,-329L863,-318Z" fill="#E0E0E0" stroke="#fff" stroke-width=".4"/><path d="M538,-234L532,-242L532,-249L528,-249L530,-259L524,-269L509,-277L501,-290L504,-302L510,-307L509,-315L501,-319L494,-337L487,-349L489,-353L486,-371L494,-375L496,-369L502,-362L510,-360L514,-361L528,-372L532,-373L536,-369L532,-361L539,-353L542,-354L546,-343L557,-340L565,-332L582,-330L600,-334L601,-337L612,-340L620,-349L628,-348L633,-351L641,-350L654,-342L664,-340L677,-327L686,-327L687,-315L682,-297L679,-286L684,-284L679,-277L683,-265L684,-257L693,-254L694,-245L683,-233L689,-226L694,-218L705,-212L705,-200L711,-198L712,-192L695,-185L690,-170L668,-174L655,-177L642,-179L637,-195L631,-197L622,-195L611,-188L596,-193L584,-203L573,-207L565,-219L556,-237L550,-235L543,-240Z" fill="#E0E0E0" stroke="#fff" stroke-width=".4"/><path d="M929,46L927,58L922,62L912,64L906,55L904,38L910,19L918,25L923,34Z" fill="#E0E0E0" stroke="#fff" stroke-width=".4"/><path d="M1255,-83L1245,-87L1245,-97L1250,-103L1263,-107L1270,-106L1273,-102L1268,-96L1265,-89ZM911,-416L910,-425L918,-429L908,-458L931,-465L937,-468L945,-499L969,-493L975,-501L976,-519L986,-520L995,-532L999,-534L1002,-521L1012,-512L1029,-505L1037,-491L1032,-471L1037,-464L1051,-461L1067,-459L1081,-449L1088,-447L1093,-432L1100,-422L1113,-422L1138,-419L1153,-421L1165,-419L1182,-409L1196,-409L1202,-404L1215,-413L1234,-418L1252,-419L1266,-424L1274,-433L1282,-439L1280,-444L1277,-450L1283,-461L1289,-459L1302,-456L1313,-465L1331,-471L1340,-483L1348,-487L1365,-490L1375,-488L1376,-494L1365,-506L1356,-512L1347,-505L1335,-508L1328,-506L1325,-513L1334,-531L1339,-544L1354,-537L1370,-549L1370,-557L1381,-577L1387,-583L1387,-594L1381,-598L1390,-608L1405,-612L1421,-612L1438,-606L1448,-599L1456,-580L1460,-572L1464,-560L1469,-542L1489,-536L1503,-523L1508,-507L1526,-507L1536,-514L1555,-519L1549,-503L1545,-497L1540,-478L1533,-462L1518,-465L1508,-459L1511,-445L1510,-425L1504,-425L1504,-417L1496,-426L1491,-417L1473,-410L1475,-402L1465,-403L1459,-408L1451,-397L1438,-388L1429,-378L1412,-374L1404,-367L1391,-363L1397,-370L1395,-376L1404,-386L1398,-394L1388,-389L1374,-378L1367,-368L1355,-367L1349,-360L1356,-350L1365,-348L1366,-341L1375,-337L1388,-347L1399,-341L1406,-341L1408,-333L1391,-329L1386,-321L1375,-314L1369,-304L1381,-296L1386,-282L1393,-269L1401,-259L1401,-248L1393,-245L1396,-237L1403,-233L1401,-222L1398,-212L1392,-210L1383,-196L1374,-179L1363,-163L1346,-151L1330,-141L1317,-139L1310,-133L1306,-138L1299,-131L1283,-125L1270,-123L1266,-110L1260,-109L1256,-118L1259,-123L1243,-127L1238,-125L1226,-128L1220,-133L1222,-141L1212,-143L1206,-148L1196,-141L1184,-140L1175,-140L1169,-136L1163,-135L1164,-120L1158,-120L1157,-123L1157,-129L1148,-125L1143,-127L1134,-132L1138,-143L1130,-145L1127,-157L1115,-155L1116,-170L1128,-181L1128,-192L1128,-202L1123,-205L1119,-213L1112,-212L1099,-214L1103,-220L1098,-228L1089,-222L1079,-226L1066,-217L1055,-207L1046,-205L1040,-209L1034,-209L1026,-212L1019,-209L1012,-199L1011,-210L1003,-207L990,-208L976,-211L967,-217L958,-220L954,-226L947,-228L935,-237L926,-241L921,-238L905,-247L893,-256L890,-271L898,-270L899,-277L894,-284L895,-295L883,-312L863,-318L860,-329L851,-336L849,-340L847,-349L848,-355L840,-358L837,-357L834,-371L837,-374L835,-378L847,-385L855,-388L867,-386L872,-396L887,-398L891,-404L909,-413Z" fill="#E0E0E0" stroke="#fff" stroke-width=".4"/><path d="M395,-37L394,-42L399,-59L400,-68L404,-71L413,-73L419,-80L426,-66L429,-55L435,-49L451,-37L458,-31L464,-24L468,-19L474,-16L470,-13L465,-14L461,-18L456,-25L451,-29L448,-33L438,-38L430,-38L427,-41L420,-38L413,-43L409,-34Z" fill="#E0E0E0" stroke="#fff" stroke-width=".4"/><path d="M579,-93L588,-72L592,-64L583,-61L581,-55L581,-51L569,-46L550,-40L539,-32L534,-31L531,-32L524,-27L516,-24L507,-24L504,-23L501,-20L498,-19L496,-16L490,-16L487,-14L478,-15L475,-22L476,-29L474,-32L471,-41L468,-46L470,-47L469,-52L471,-55L470,-60L475,-64L474,-69L477,-75L482,-72L485,-73L499,-74L501,-72L512,-71L517,-72L520,-68L525,-70L534,-83L545,-88Z" fill="#E0E0E0" stroke="#fff" stroke-width=".4"/><path d="M378,-227L391,-225L396,-229L399,-234L408,-235L410,-240L414,-242L402,-256L426,-263L428,-265L442,-261L460,-252L493,-224L515,-223L525,-222L528,-216L536,-216L541,-204L547,-201L549,-197L557,-191L558,-186L556,-181L558,-177L561,-173L563,-169L565,-166L568,-163L571,-164L574,-159L574,-156L579,-143L614,-137L616,-140L622,-131L614,-105L579,-93L545,-88L534,-83L525,-70L520,-68L517,-72L512,-71L501,-72L499,-74L485,-73L482,-72L477,-75L474,-69L475,-64L470,-60L469,-65L465,-69L464,-74L458,-78L452,-89L448,-99L440,-108L435,-110L427,-122L426,-130L426,-138L420,-152L414,-157L408,-160L404,-167L405,-170L401,-177L398,-180L393,-190L386,-200L380,-209L374,-209L376,-217L377,-221Z" fill="#E0E0E0" stroke="#fff" stroke-width=".4"/><path d="M-59,-308L-54,-298L-54,-290L-49,-275L-46,-272L-49,-267L-64,-264L-69,-259L-76,-258L-77,-248L-90,-242L-95,-235L-104,-232L-116,-230L-135,-220L-135,-204L-137,-204L-137,-197L-144,-196L-148,-193L-153,-193L-157,-195L-167,-194L-171,-183L-175,-182L-180,-166L-197,-152L-200,-135L-205,-129L-207,-124L-233,-123L-233,-123L-233,-129L-228,-133L-224,-139L-225,-144L-221,-153L-215,-161L-211,-163L-208,-170L-207,-177L-203,-185L-195,-190L-188,-204L-187,-204L-182,-209L-171,-210L-161,-220L-155,-223L-146,-235L-149,-252L-144,-263L-143,-271L-135,-280L-123,-287L-114,-292L-107,-307L-103,-316L-94,-316L-87,-310L-76,-311L-64,-308Z" fill="#E0E0E0" stroke="#fff" stroke-width=".4"/><path d="M401,-131L354,-131L308,-131L261,-131L261,-178L261,-225L257,-236L260,-244L259,-250L263,-257L279,-257L290,-253L302,-249L307,-247L316,-252L321,-256L331,-257L340,-255L343,-248L346,-253L355,-249L364,-249L370,-252L377,-232L378,-229L374,-223L372,-213L369,-206L366,-204L362,-208L357,-214L348,-233L347,-232L352,-218L359,-205L368,-184L372,-177L376,-170L387,-155L384,-153L385,-145L398,-133Z" fill="#E0E0E0" stroke="#fff" stroke-width=".4"/><path d="M261,-131L261,-105L247,-105L247,-100L200,-124L153,-149L142,-142L133,-137L127,-144L108,-149L103,-157L94,-163L88,-161L84,-168L83,-174L76,-183L81,-189L80,-197L82,-204L81,-210L83,-221L82,-228L78,-240L84,-243L85,-249L84,-254L92,-260L96,-264L101,-268L102,-279L116,-274L121,-275L131,-273L146,-267L152,-254L162,-252L179,-246L191,-239L197,-243L203,-249L200,-259L204,-266L212,-273L220,-275L236,-272L240,-266L245,-265L248,-263L260,-261L263,-257L259,-250L260,-244L257,-236L261,-225L261,-178Z" fill="#E0E0E0" stroke="#fff" stroke-width=".4"/><path d="M529,40L496,76L480,76L470,85L462,85L459,89L451,89L446,85L436,90L432,95L424,94L422,92L419,93L415,92L400,82L392,82L388,79L388,72L382,70L375,57L370,54L368,50L362,44L355,43L359,36L365,36L367,32L366,22L370,9L375,6L377,1L382,-8L389,-14L394,-26L395,-37L409,-34L413,-43L420,-38L427,-41L430,-38L438,-38L448,-33L451,-29L456,-25L461,-18L465,-14L461,-9L457,-3L458,0L458,4L465,4L467,3L470,6L467,10L472,16L476,22L481,26L519,40Z" fill="#E0E0E0" stroke="#fff" stroke-width=".4"/><path d="M465,-14L470,-13L474,-16L476,-12L476,-7L469,-4L474,-1L470,6L467,3L465,4L458,4L458,0L457,-3L461,-9Z" fill="#E0E0E0" stroke="#fff" stroke-width=".4"/><path d="M543,-0L543,-0L543,5L543,17L543,23L537,30L529,40L519,40L481,26L476,22L472,16L467,10L470,6L474,-1L478,1L481,6L486,11L492,11L503,8L516,7L526,3L532,2L536,0Z" fill="#E0E0E0" stroke="#fff" stroke-width=".4"/><path d="M366,146L342,147L329,147L325,148L318,152L315,151L315,142L318,137L318,128L321,122L325,116L330,113L334,109L329,107L330,94L334,90L342,93L351,90L360,90L367,85L372,93L374,99L379,112L375,121L369,129L366,134Z" fill="#E0E0E0" stroke="#fff" stroke-width=".4"/><path d="M325,148L329,155L329,162L325,163L319,162L315,169L308,168L309,162L311,161L311,154L315,151L318,152Z" fill="#E0E0E0" stroke="#fff" stroke-width=".4"/><path d="M330,94L319,86L316,81L310,83L304,82L301,84L296,83L289,73L287,69L278,65L275,58L270,53L262,46L262,42L256,38L248,33L251,32L255,30L259,19L262,13L270,12L272,15L278,22L282,23L286,21L294,21L296,24L308,24L308,21L314,19L315,16L320,13L330,20L336,19L342,10L348,4L347,-4L344,-7L351,-8L352,-10L358,-10L356,-1L358,8L364,13L365,17L365,23L366,23L367,32L365,36L359,36L355,43L362,44L368,50L370,54L375,57L382,70L374,78L367,85L360,90L351,90L342,93L334,90Z" fill="#E0E0E0" stroke="#fff" stroke-width=".4"/></g><g clip-path="url(#v)"><path d="M449.1,160.2L448.7,160.3L448.9,159.7L450.2,158.8L450.7,159.0L450.8,159.2L450.8,159.3L450.6,159.5ZM365.7,146.6L365.6,144.6L365.9,139.5L365.9,135.0L366.2,132.8L367.3,131.4L367.8,130.3L368.1,128.9L368.7,127.7L370.1,126.8L370.3,126.2L371.7,124.6L372.5,122.6L373.1,121.9L373.9,121.2L374.5,120.9L375.4,120.5L376.1,120.3L376.2,120.2L376.3,119.8L376.1,118.6L376.4,118.2L376.8,117.3L377.4,116.5L377.9,116.0L378.2,115.5L378.3,114.6L378.4,114.0L378.3,112.9L378.2,110.5L377.6,108.6L377.2,106.4L377.5,105.6L377.0,104.4L376.8,104.3L376.4,104.0L375.9,102.8L375.6,101.7L375.3,101.4L373.8,100.4L373.0,98.1L372.1,97.6L371.6,95.3L371.5,94.7L372.0,92.4L372.0,91.8L371.4,91.4L370.0,90.9L368.8,89.9L368.9,89.6L369.0,89.3L368.4,89.0L366.5,85.1L368.9,82.8L371.3,80.4L374.4,77.4L377.2,74.6L379.6,72.3L381.7,70.1L381.7,70.5L381.7,71.1L382.0,71.4L382.4,71.6L383.1,71.4L383.6,71.0L384.1,71.0L387.4,71.9L387.9,72.6L387.9,73.5L388.0,74.1L387.8,74.7L387.5,76.5L387.6,78.2L388.6,79.4L389.4,80.4L390.1,81.8L390.6,82.2L391.3,82.4L393.6,82.5L396.9,82.6L400.0,82.6L400.3,82.7L401.0,82.9L403.9,84.7L406.6,86.4L408.9,87.9L411.1,89.3L413.2,90.7L414.9,91.9L416.6,92.2L419.2,92.4L421.0,92.5L422.7,92.9L425.3,93.4L427.1,93.6L428.3,93.9L431.5,94.2L432.0,94.0L433.4,92.7L434.9,90.6L435.6,89.5L437.6,88.3L441.1,86.8L443.6,85.6L446.4,84.5L447.7,85.5L449.4,87.1L450.2,87.8L450.8,88.2L451.8,88.4L452.9,88.4L453.6,88.4L454.8,88.2L457.8,88.0L459.6,88.0L458.1,90.1L456.4,92.6L453.2,97.1L450.8,99.6L448.9,101.4L448.7,101.7L448.8,103.7L448.8,108.7L448.8,118.6L448.9,128.5L448.9,138.4L448.9,143.4L448.9,145.1L450.5,147.2L452.1,149.2L454.2,151.9L455.3,153.3L455.5,153.8L455.4,154.8L453.7,156.8L452.3,157.7L450.4,158.1L449.9,158.1L449.1,157.8L448.8,158.3L448.6,159.0L448.2,158.9L447.9,158.6L448.1,160.0L448.3,160.6L448.0,161.5L447.0,162.3L447.0,163.0L445.0,164.7L442.2,164.9L440.7,165.8L440.0,166.5L439.5,168.0L439.7,170.4L438.9,172.2L438.8,173.1L437.3,174.3L436.7,175.3L436.2,176.4L435.8,176.9L435.3,179.4L434.6,180.9L434.4,181.4L434.3,181.8L433.7,182.7L433.4,183.3L433.2,183.7L431.4,187.6L430.1,189.3L429.0,189.1L428.3,189.8L428.2,190.1L427.9,189.9L427.0,189.3L425.2,188.0L423.4,186.7L421.6,185.4L419.8,184.1L418.0,182.7L416.2,181.5L414.3,180.1L412.6,178.8L411.5,178.1L411.0,177.6L410.7,176.7L410.5,176.5L410.0,176.2L409.4,176.2L409.3,176.0L409.3,175.6L409.5,174.9L410.2,173.7L410.2,173.0L410.1,172.2L409.9,171.0L409.7,170.7L408.5,170.0L406.0,168.6L403.5,167.2L401.0,165.8L398.5,164.4L396.0,163.0L393.4,161.6L390.9,160.2L388.4,158.8L385.9,157.4L383.4,156.0L380.9,154.6L378.4,153.2L375.9,151.8L373.4,150.4L370.9,149.0L368.4,147.6L367.4,147.1L366.6,146.6Z" fill="#4ECDC4" stroke="#2C3E50" stroke-width="1"/></g><circle cx="400.0" cy="150.0" r="4" fill="#E74C3C" stroke="#fff" stroke-width="2"/><text x="400.0" y="140.0" text-anchor="middle" font-family="sans-serif" font-weight="700" font-size="10" fill="#2D3436">Nairobi</text></svg>