<svg viewBox="0 0 800 300" xmlns="http://www.w3.org/2000/svg"><defs><clipPath id="v"><rect width="800" height="300"/></clipPath></defs><rect width="800" height="300" fill="#DCEEF8"/><g clip-path="url(#v)"><path d="M686,-55L669,-33L651,-29L650,4L637,19L593,8L577,66L565,74L521,86L541,140L525,148L527,166L513,161L502,150L469,147L432,146L424,150L392,137L379,143L375,161L338,151L324,155L319,168L306,174L276,195L266,216L258,216L252,202L223,201L219,177L208,177L210,146L183,124L144,126L118,130L97,102L78,90L43,68L39,65L-19,84L-18,197L-29,199L-45,175L-60,167L-85,173L-95,183L-97,176L-91,163L-95,152L-121,142L-131,114L-144,106L-145,96L-123,99L-122,76L-103,71L-83,75L-79,44L-83,24L-106,25L-125,17L-151,32L-172,39L-183,33L-181,17L-195,-6L-212,-5L-231,-27L-218,-53L-224,-60L-206,-98L-183,-78L-181,-104L-134,-143L-99,-144L-50,-119L-23,-104L1,-119L36,-120L65,-102L71,-112L103,-111L108,-128L72,-152L94,-170L89,-180L111,-190L95,-216L105,-229L189,-242L200,-251L256,-266L276,-282L316,-274L324,-233L347,-243L376,-230L374,-209L395,-211L452,-247L443,-235L472,-206L522,-113L534,-132L565,-111L597,-120L610,-114L620,-93L636,-87L646,-72L675,-76Z" fill="#E0E0E0" stroke="#fff" stroke-width=".4"/><path d="M-18,197L-19,84L39,65L43,68L78,90L97,102L118,130L144,126L183,124L210,146L208,177L219,177L223,201L252,202L258,216L266,216L276,195L306,174L319,168L325,171L306,191L323,202L339,195L366,210L337,232L320,229L311,229L307,221L312,208L282,214L275,233L264,249L245,248L240,261L256,268L261,289L248,318L231,312L219,312L220,294L190,282L166,268L152,254L126,234L115,204L108,198L83,200L75,194L72,170L42,154L23,171L4,182L8,197Z" fill="#E0E0E0" stroke="#fff" stroke-width=".4"/><path d="M-394,454L-403,421L-353,393L-345,360L-347,340L-335,333L-323,315L-313,311L-287,315L-279,322L-269,317L-254,350L-240,359L-238,375L-249,384L-254,405L-239,431L-211,446L-200,466L-203,485L-196,485L-196,499L-184,512L-197,511L-212,509L-228,534L-270,532L-333,479L-367,461Z" fill="#E0E0E0" stroke="#fff" stroke-width=".4"/><path d="M695,-58L719,-64L762,-94L796,-111L815,-100L839,-99L854,-83L876,-82L908,-73L930,-97L921,-118L944,-156L969,-141L990,-136L1016,-127L1021,-100L1052,-86L1074,-92L1102,-97L1124,-92L1146,-75L1160,-58L1181,-58L1209,-52L1230,-61L1259,-67L1292,-91L1305,-87L1317,-76L1344,-79L1333,-53L1317,-19L1323,-5L1336,-9L1358,-4L1375,-16L1393,-6L1413,17L1411,29L1393,25L1361,30L1345,39L1328,60L1294,73L1272,90L1249,83L1236,80L1224,101L1232,113L1235,123L1220,134L1203,150L1177,161L1144,162L1107,172L1081,189L1071,179L1044,179L1011,161L989,156L959,161L913,154L888,154L875,136L865,108L851,104L824,84L793,80L767,75L759,61L767,23L752,-4L720,-16L701,-34Z" fill="#E0E0E0" stroke="#fff" stroke-width=".4"/><path d="M910,555L912,565L904,569L906,585L890,580L861,598L861,612L849,633L848,645L838,665L820,660L819,685L814,693L817,703L806,709L794,671L788,671L784,686L772,674L779,660L789,658L799,637L786,633L765,634L744,630L742,613L731,612L713,601L705,618L722,631L708,640L703,649L716,656L713,671L720,689L724,709L721,718L705,717L678,722L679,740L667,755L635,771L610,799L593,813L571,829L570,840L559,845L539,854L529,855L522,873L527,903L528,922L518,944L518,983L507,984L496,1001L503,1009L483,1015L475,1030L466,1037L445,1016L435,984L426,961L418,950L406,928L401,899L397,885L376,853L367,807L360,777L360,748L356,726L323,740L308,737L278,708L289,699L282,690L256,669L271,653L320,653L316,632L303,619L301,600L286,588L311,562L337,564L360,537L374,511L396,485L396,466L415,451L397,438L389,420L381,396L392,384L426,391L451,387L473,364L497,396L495,418L504,432L503,445L487,442L493,471L515,487L546,506L532,517L523,541L545,551L566,564L595,578L626,581L639,594L656,596L683,602L702,602L705,592L702,576L703,565L717,559L719,579L720,584L740,594L754,590L773,592L791,591L793,576L784,567L802,564L822,545L848,529L867,535L883,524L893,540L886,551Z" fill="#E0E0E0" stroke="#fff" stroke-width=".4"/><path d="M703,565L702,576L705,592L702,602L683,602L656,596L639,594L626,581L595,578L566,564L545,551L523,541L532,517L546,506L556,499L574,507L596,524L609,528L616,540L634,545L652,556L677,562Z" fill="#E0E0E0" stroke="#fff" stroke-width=".4"/><path d="M473,364L451,387L426,391L392,384L381,396L389,420L397,438L415,451L396,466L396,485L374,511L360,537L337,564L311,562L286,588L301,600L303,619L316,632L320,653L271,653L256,669L240,663L233,645L216,626L174,631L138,631L106,635L115,606L147,593L145,581L135,577L134,555L113,544L103,528L92,515L130,528L152,524L166,527L170,522L186,524L215,513L216,491L228,476L245,476L248,469L265,466L273,468L282,461L281,445L290,429L304,422L295,404L317,405L323,395L322,385L333,373L331,359L325,348L338,336L363,330L388,326L400,321L413,318L429,331L436,353Z" fill="#E0E0E0" stroke="#fff" stroke-width=".4"/><path d="M219,312L231,312L248,318L255,321L271,312L279,318L286,305L300,305L303,301L305,290L315,280L327,286L325,295L332,296L330,320L338,329L346,323L356,321L370,308L386,310L409,310L413,318L400,321L388,326L363,330L338,336L325,348L331,359L333,373L322,385L323,395L317,405L295,404L304,422L290,429L281,445L282,461L273,468L265,466L248,469L245,476L228,476L216,491L215,513L186,524L170,522L166,527L152,524L130,528L92,515L113,491L111,474L94,470L92,453L85,432L94,417L85,413L91,394L100,359L123,370L140,366L144,354L162,350L175,341L179,319L198,313L202,303L212,311Z" fill="#E0E0E0" stroke="#fff" stroke-width=".4"/><path d="M248,318L261,289L256,268L240,261L245,248L264,249L275,233L282,214L312,208L307,221L311,229L320,229L312,238L287,233L285,250L309,247L337,257L380,252L385,279L393,276L406,283L405,294L409,310L386,310L370,308L356,321L346,323L338,329L330,320L332,296L325,295L327,286L315,280L305,290L303,301L300,305L286,305L279,318L271,312L255,321Z" fill="#E0E0E0" stroke="#fff" stroke-width=".4"/><path d="M-95,183L-85,173L-60,167L-45,175L-29,199L-18,197L8,197L4,182L23,171L42,154L72,170L75,194L83,200L108,198L115,204L126,234L152,254L166,268L190,282L220,294L219,312L212,311L202,303L198,313L179,319L175,341L162,350L144,354L140,366L123,370L100,359L98,336L81,335L56,310L38,307L13,293L-3,290L-13,295L-28,295L-44,311L-64,316L-68,296L-64,266L-82,257L-76,237L-91,235L-86,210L-65,217L-45,208L-62,190L-68,173L-86,180L-88,202Z" fill="#E0E0E0" stroke="#fff" stroke-width=".4"/><path d="M-184,512L-196,499L-196,485L-203,485L-200,466L-211,446L-239,431L-254,405L-249,384L-238,375L-240,359L-254,350L-269,317L-281,294L-277,286L-284,253L-268,244L-265,255L-253,269L-238,272L-230,272L-203,250L-195,248L-188,257L-196,271L-182,286L-177,284L-169,305L-148,311L-133,325L-101,330L-66,323L-64,316L-44,311L-28,295L-13,295L-3,290L13,293L38,307L56,310L81,335L98,336L100,359L91,394L85,413L94,417L85,432L92,453L94,470L111,474L113,491L92,515L103,528L113,544L134,555L135,577L145,581L147,593L115,606L106,635L64,627L40,622L14,618L5,588L-6,583L-23,588L-46,600L-73,592L-96,572L-117,565L-132,541L-149,507L-161,511L-175,502Z" fill="#E0E0E0" stroke="#fff" stroke-width=".4"/><path d="M1182,801L1164,794L1163,773L1174,763L1199,756L1212,756L1217,766L1207,776L1202,790ZM527,166L525,148L541,140L521,86L565,74L577,66L593,8L637,19L650,4L651,-29L669,-33L686,-55L695,-58L701,-34L720,-16L752,-4L767,23L759,61L767,75L793,80L824,84L851,104L865,108L875,136L888,154L913,154L959,161L989,156L1011,161L1044,179L1071,179L1081,189L1107,172L1144,162L1177,161L1203,150L1220,134L1235,123L1232,113L1224,101L1236,80L1249,83L1272,90L1294,73L1328,60L1345,39L1361,30L1393,25L1411,29L1413,17L1393,-6L1375,-16L1358,-4L1336,-9L1323,-5L1317,-19L1333,-53L1344,-79L1371,-66L1402,-87L1402,-103L1423,-141L1435,-152L1435,-173L1422,-182L1441,-200L1469,-207L1499,-208L1532,-197L1552,-183L1566,-146L1574,-130L1582,-109L1590,-74L1629,-63L1656,-39L1665,-7L1699,-7L1718,-20L1755,-30L1744,-0L1735,12L1727,48L1712,79L1685,73L1666,85L1672,112L1668,148L1657,149L1657,164L1643,146L1634,164L1599,177L1603,192L1583,191L1573,182L1557,203L1532,219L1514,238L1483,246L1466,260L1442,268L1454,255L1449,243L1467,223L1455,208L1436,218L1410,239L1397,258L1375,259L1363,272L1375,292L1393,297L1394,309L1412,317L1437,297L1457,308L1471,309L1475,324L1443,332L1433,347L1411,361L1399,380L1424,395L1432,421L1446,446L1461,466L1461,486L1447,493L1452,507L1465,515L1462,536L1456,556L1444,558L1427,586L1409,618L1388,648L1357,671L1326,691L1301,694L1287,705L1280,697L1267,709L1236,721L1212,725L1204,750L1192,752L1186,734L1191,725L1161,717L1150,721L1128,715L1117,705L1121,691L1100,687L1089,677L1070,690L1048,693L1031,693L1019,699L1007,703L1010,730L998,729L996,724L996,714L979,721L969,716L953,707L959,687L945,682L940,660L916,664L919,635L940,614L941,593L940,574L931,568L923,553L910,555L886,551L893,540L883,524L867,535L848,529L822,545L802,564L784,567L774,561L762,560L746,554L734,561L719,579L717,559L703,565L677,562L652,556L634,545L616,540L609,528L596,524L574,507L556,499L546,506L515,487L493,471L487,442L503,445L504,432L495,418L497,396L473,364L436,353L429,331L413,318L409,310L405,294L406,283L393,276L385,279L380,252L386,246L383,239L404,225L420,219L443,223L452,204L481,201L489,189L524,173Z" fill="#E0E0E0" stroke="#fff" stroke-width=".4"/><path d="M-232,181L-226,182L-210,200L-201,202L-197,194L-183,182L-171,198L-160,219L-150,220L-143,228L-161,231L-165,253L-169,264L-177,270L-177,284L-182,286L-196,271L-188,257L-195,248L-203,250L-230,272L-230,252L-240,247L-250,239L-244,229L-256,219L-251,212L-260,207L-264,199L-259,194L-242,203L-230,204L-227,201L-238,185ZM-238,272L-253,269L-265,255L-268,244L-264,243L-257,251L-247,251L-247,256Z" fill="#E0E0E0" stroke="#fff" stroke-width=".4"/><path d="M-489,527L-464,531L-454,523L-449,514L-432,510L-428,502L-421,497L-443,471L-398,458L-394,454L-367,461L-333,479L-270,532L-228,534L-208,536L-203,548L-187,548L-178,570L-167,575L-163,584L-148,595L-147,605L-149,613L-146,622L-140,629L-137,637L-133,643L-127,648L-120,646L-116,655L-115,661L-107,686L-39,698L-35,693L-24,710L-39,758L-107,782L-171,791L-192,802L-208,826L-219,830L-224,823L-233,824L-255,821L-259,819L-285,820L-291,822L-300,816L-306,827L-304,837L-313,845L-316,835L-323,827L-325,818L-336,810L-348,790L-355,770L-370,754L-380,750L-395,727L-398,711L-397,696L-410,669L-420,660L-432,654L-440,640L-438,635L-445,622L-451,616L-460,598L-474,577L-485,560L-496,560L-493,546L-492,537Z" fill="#E0E0E0" stroke="#fff" stroke-width=".4"/></g><g clip-path="url(#v)"><path d="M318.6,228.9L319.3,228.4L321.6,227.9L326.3,227.5L327.9,227.8L329.8,228.8L331.1,229.8L332.5,229.7L333.6,229.5L334.1,229.8L334.5,230.6L335.0,231.4L336.8,230.4L338.4,229.0L339.7,228.8L340.9,228.3L341.2,227.4L342.2,225.9L344.9,223.0L346.2,222.5L347.1,222.5L347.1,223.0L347.6,223.4L350.0,224.1L350.6,223.3L351.0,222.3L350.2,220.6L350.2,219.9L350.5,219.2L350.9,218.9L354.6,220.5L355.5,220.4L357.1,219.6L358.7,218.0L359.2,216.7L366.8,212.7L367.4,212.0L367.3,211.5L364.1,210.5L362.7,211.1L361.3,211.1L360.5,210.5L356.7,210.3L355.9,209.8L353.3,206.9L351.5,205.8L350.0,205.1L348.5,205.2L346.7,206.0L346.1,205.6L345.9,204.4L346.0,202.9L345.6,201.2L344.5,200.8L343.1,201.5L341,200.8L339.2,200.6L338.7,197.1L338.0,195.6L337.3,194.1L336.5,193.6L335.2,192.8L335.1,191.0L334.9,190.5L334.4,190.2L333.8,190.4L333.0,191.4L333.4,193.4L333.1,195.4L332.6,196.5L331.7,197.2L330.7,197.2L328.9,196.2L328.6,202.4L328.3,202.7L326.2,201.8L324.5,202.2L321.9,201.8L320.1,200.8L318.6,200.6L316.4,199.7L314.6,198.6L313.5,194.4L312.5,193.0L311.5,192.7L307.7,194.1L306.2,193.0L303.5,191.6L301.6,191.1L301.0,190.3L301.1,189.3L307.3,184.7L309.7,181.5L311.2,180.2L313.4,179.3L315.1,178.7L316.0,175.9L316.3,175.5L317.5,175.3L320.2,174.1L324.6,171.5L324.7,170.8L324.3,170.2L322.4,168.9L320.3,167.8L319.0,168.4L318.3,168.9L317.1,167.6L317.1,166.1L318.4,163.7L319.5,162.5L320.0,160.2L321.6,158.7L323.2,156.2L325.3,154.2L329.0,152.7L331.0,153.1L332.9,152.8L336.0,151.6L336.6,151.5L337.8,151.4L345.5,153.4L348.1,153.4L354.1,155.8L356.8,156.4L358.8,157.1L359.7,158.1L361.1,159.4L368.6,160.5L370.7,161.1L371.4,162.3L373.5,163.7L375.4,164.0L373.8,158.4L374.4,155.1L376.8,145.9L378.1,144.5L380.5,143.3L384.2,141.9L385.6,140.0L388.7,140.2L390.0,140.1L391.0,139.7L391.5,138.6L394.9,140.5L400.7,144.3L405.1,146.7L410.3,149.0L417.4,151.0L423.4,151.7L424.5,151.2L426.9,148.0L428.0,147.9L430.1,148.2L436.5,148.4L443.1,148.5L446.1,148.2L452.8,146.9L453.8,146.8L455.3,146.9L459.4,148.7L462.4,149.0L464.4,149.0L465.5,149.1L468.0,149.0L472.0,149.2L477.0,150.4L483.0,150.2L484.9,150.0L488.3,150.2L490.9,151.2L494.2,152.4L496.3,152.9L497.7,153.1L500.2,153.3L501.8,152.9L502.6,153.4L503.4,156.2L505.5,158.1L507.2,159.9L508.5,161.8L509.9,162.6L512.3,162.6L516.9,163.1L519.6,163.9L522.9,167.3L526.1,170.7L526.5,172.5L526.9,174.6L526.6,175.1L526.2,175.4L519.3,176.0L517.7,176.6L516.1,179.5L510.2,181.8L506.8,183.0L505.5,183.0L502.2,184.9L493.1,189.7L488.7,192.7L486.4,193.9L484.6,195.3L484.3,196.7L484.2,198.0L479.2,204.1L475.5,204.9L472.4,204.7L470.2,205.7L467.1,206.6L460.4,206.0L458.2,206.1L453.7,205.2L452.0,205.7L450.1,206.9L447.5,211.8L446.4,212.9L446.0,214.0L445.6,216.4L444.6,218.9L443.3,220.8L442.4,222.7L440.6,224.4L438.8,225.5L437.4,223.2L436.3,223.9L435.1,224.8L433.0,224.5L431.8,225.0L428.8,227.0L424.4,226.9L423.9,226.2L423.0,220.7L422.3,218.1L421.7,217.5L420.9,217.4L414.6,221.8L411.7,222.5L409.3,222.7L406.2,221.4L405.5,221.7L404.9,222.4L404.7,223.3L405.7,225.7L405.4,226.3L404.0,226.2L402.0,226.8L400.5,227.9L396.0,231.9L392.2,233.2L388.7,233.7L387.3,234.2L386.6,234.6L385.4,236.5L384.2,239.4L383.6,240.9L383.1,241.7L383.1,242.8L384.1,244.2L384.8,247.4L384.7,248.2L384.0,249.5L382.8,250.8L380.4,251.6L378.5,251.9L377.3,251.7L374.9,251.6L373.1,252.1L371.8,253.0L369.6,254.1L366.8,254.4L363.2,254.6L361.5,254.5L356.3,253.8L354.6,254.0L352.9,254.6L350.0,255.2L348.3,257.0L347.5,258.7L347.1,258.9L345.2,257.4L343.8,256.0L342.9,254.8L341.7,254.8L337.5,257.0L337.0,256.9L335.8,256.1L336.0,254.0L335.9,252.7L334.5,252.0L331.7,251.8L330.7,251.1L330.8,250.0L331.1,248.9L330.7,248.1L330.0,247.4L328.6,247.6L326.9,248.4L325.6,249.5L324.0,249.9L322.1,250.1L321.0,250.7L319.6,253.0L315.0,253.5L313.5,253.0L312.3,251.3L310.7,248.6L309.8,248.2L308.3,247.9L305.9,248.1L302.6,249.2L301.8,248.3L300.9,248.0L300.1,248.8L299.3,248.7L296.1,248.9L291.9,248.8L289.6,248.3L288.0,248.3L285.0,249.5L283.4,249.5L281.3,249.8L280.9,245.6L279.8,242.9L280.1,241.0L280.8,238.3L281.5,236.8L282.8,237.4L284.3,238.5L285.3,238.2L285.5,237.3L285.2,236.1L285.1,235.3L285.7,234.1L286.5,233.0L291.8,231.3L296.4,229.9L298.7,230.8L303.2,232.8L305.6,233.8L307.2,234.5L308.6,237.4L309.5,237.2L310.5,236.6L311.0,235.9L311.5,233.4L313.6,232.0L318.3,230.4L318.6,229.4ZM324.1,239.0L324.3,238.6L323.5,236.5L324.6,234.5L322.4,234.2L321.3,233.5L320.0,231.5L319.6,231.4L319.0,232.0L318.6,233.3L318.9,234.8L319.8,235.7L320.4,236.0L320.5,236.1L320.5,236.6L319.8,238.9L320.9,239.2L323.0,239.3ZM337.0,237.4L337.2,236.0L336.6,236.1L336.0,236.4L334.8,236.8L334.5,237.5L335.3,238.3L336.4,238.6ZM312.8,241.0L312.7,240.4L311.9,240.1L309.8,239.8L308.2,239.3L307.9,239.3L308.1,239.9L308.7,240.9L309.6,242.0L310.8,242.1Z" fill="#4ECDC4" stroke="#2C3E50" stroke-width="1"/></g><circle cx="400.0" cy="150.0" r="4" fill="#E74C3C" stroke="#fff" stroke-width="2"/><text x="400.0" y="140.0" text-anchor="middle" font-family="sans-serif" font-weight="700" font-size="10" fill="#2D3436">Bishkek</text></svg>