<svg viewBox="0 0 800 300" xmlns="http://www.w3.org/2000/svg"><defs><clipPath id="v"><rect width="800" height="300"/></clipPath></defs><rect width="800" height="300" fill="#DCEEF8"/><g clip-path="url(#v)"><path d="M1435,558L1435,652L1436,746L1410,723L1381,717L1374,725L1338,726L1350,702L1368,694L1360,663L1346,639L1291,614L1267,612L1224,585L1216,599L1205,602L1198,591L1198,579L1176,565L1207,554L1228,555L1225,547L1183,547L1172,530L1146,525L1134,511L1173,504L1187,494L1233,506L1238,517L1246,563L1276,580L1300,550L1333,533L1358,533L1383,543L1404,553ZM975,740L978,746L978,754L960,776L935,782L932,779L934,769L947,751ZM1240,682L1237,660L1242,650L1248,640L1255,649L1255,662ZM772,365L755,391L776,418L771,431L804,458L770,461L760,481L761,507L734,526L733,555L722,599L718,589L685,602L674,584L653,582L639,573L605,584L595,570L576,571L552,568L548,529L533,521L520,497L516,472L519,445L536,426L541,445L560,462L579,456L597,458L614,443L628,441L655,449L678,443L693,403L704,393L714,360L747,360ZM1101,564L1133,573L1143,594L1119,583L1095,580L1079,582L1059,581L1066,565ZM1030,593L1010,587L1004,575L1033,574L1040,583ZM1060,421L1062,437L1079,440L1082,451L1080,476L1065,474L1061,491L1073,506L1065,510L1053,491L1045,455L1050,432ZM916,459L949,457L978,437L983,443L960,472L938,477L911,471L863,473L838,477L834,499L859,524L875,511L928,501L926,515L913,510L901,527L876,538L903,575L898,585L923,618L923,637L908,646L897,635L910,612L882,623L875,615L879,604L858,587L860,559L841,568L844,601L845,643L827,647L814,638L822,612L818,584L806,584L797,564L809,545L813,523L827,479L833,468L858,446L880,455ZM841,780L803,759L830,753L845,762L855,771L853,779ZM871,729L890,727L916,717L911,733L868,741L830,737L830,727L853,721ZM783,724L800,722L807,734L774,740L754,744L739,744L749,727L765,727L772,717ZM502,668L506,679L561,681L567,670L621,683L631,702L674,707L709,725L677,736L645,724L619,725L589,723L563,717L529,706L508,704L496,707L444,695L439,683L413,681L432,653L467,655L490,666ZM384,515L389,535L399,551L420,553L434,572L427,607L426,652L394,652L370,628L333,605L321,587L299,564L285,543L263,502L238,479L229,454L219,431L193,413L178,389L156,373L126,341L124,326L142,328L187,333L212,361L234,381L250,393L277,424L307,424L331,444L347,468L369,481L358,504L374,514Z" fill="#E0E0E0" stroke="#fff" stroke-width=".4"/><path d="M409,70L382,66L345,72L326,96L333,132L307,118L283,119L287,96L262,96L259,128L244,171L235,197L237,218L255,219L267,245L272,270L288,287L305,290L320,305L311,317L292,320L290,305L266,293L261,298L250,287L245,273L230,256L216,243L211,260L206,243L209,225L217,198L231,168L247,140L236,113L236,100L233,83L214,60L207,45L217,39L227,14L216,-6L197,-28L184,-55L196,-60L209,-93L229,-94L246,-107L262,-115L275,-105L276,-87L296,-85L289,-53L289,-26L320,-44L328,-39L345,-40L351,-50L372,-48L394,-24L396,6L419,32L418,57Z" fill="#E0E0E0" stroke="#fff" stroke-width=".4"/><path d="M471,72L445,61L432,82L409,70L418,57L419,32L396,6L394,-24L372,-48L351,-50L345,-40L328,-39L320,-44L289,-26L289,-53L296,-85L276,-87L275,-105L262,-115L268,-126L293,-146L295,-139L311,-138L306,-173L321,-178L338,-153L351,-125L386,-125L397,-98L379,-90L371,-79L405,-61L429,-26L447,1L469,22L476,43Z" fill="#E0E0E0" stroke="#fff" stroke-width=".4"/><path d="M262,-115L246,-107L229,-94L209,-93L196,-60L184,-55L197,-28L216,-6L227,14L217,39L207,45L214,60L233,83L236,100L236,113L247,140L231,168L217,198L215,176L224,153L214,136L216,104L205,89L195,53L190,16L178,-9L159,6L126,27L110,25L92,18L102,-19L96,-48L74,-82L77,-93L60,-97L40,-122L38,-147L48,-142L49,-164L63,-172L60,-185L66,-196L68,-228L90,-221L103,-247L104,-262L120,-289L119,-307L156,-329L177,-324L174,-343L184,-349L182,-362L199,-364L209,-345L221,-337L222,-313L221,-286L194,-260L190,-222L221,-228L227,-199L245,-193L237,-167L258,-155L271,-150L292,-159L293,-146L268,-126Z" fill="#E0E0E0" stroke="#fff" stroke-width=".4"/><path d="M383,181L408,170L438,167L426,150L474,127L477,92L471,72L476,43L469,22L447,1L429,-26L405,-61L371,-79L379,-90L397,-98L386,-125L351,-125L338,-153L321,-178L337,-185L359,-185L387,-189L412,-205L426,-194L452,-188L447,-170L461,-157L490,-149L451,-123L428,-94L421,-73L443,-41L470,-2L496,16L513,40L527,95L523,147L499,166L466,185L443,209L407,236L396,218L404,198Z" fill="#E0E0E0" stroke="#fff" stroke-width=".4"/><path d="M182,-362L184,-349L174,-343L177,-324L156,-329L119,-307L120,-289L104,-262L103,-247L90,-221L68,-228L66,-196L60,-185L63,-172L49,-164L34,-214L26,-214L21,-194L5,-210L14,-228L27,-230L40,-256L24,-262L-3,-261L-30,-266L-33,-288L-46,-289L-69,-303L-79,-281L-59,-265L-76,-253L-83,-241L-65,-233L-70,-214L-60,-190L-56,-165L-60,-154L-79,-154L-115,-148L-113,-124L-128,-106L-170,-86L-202,-50L-223,-31L-252,-12L-252,2L-266,10L-292,20L-305,22L-314,45L-308,83L-306,108L-319,135L-319,185L-334,187L-347,209L-338,218L-364,227L-374,246L-385,255L-412,228L-426,187L-437,157L-447,144L-462,115L-469,78L-474,60L-500,19L-512,-39L-521,-78L-520,-115L-526,-143L-568,-125L-588,-129L-625,-166L-612,-177L-620,-189L-654,-216L-635,-237L-571,-237L-577,-264L-593,-280L-596,-305L-615,-319L-584,-353L-550,-350L-520,-385L-502,-418L-475,-451L-475,-475L-451,-495L-474,-512L-484,-535L-494,-565L-480,-580L-436,-572L-404,-577L-377,-606L-346,-565L-349,-537L-337,-519L-338,-502L-359,-507L-351,-469L-323,-448L-283,-425L-301,-410L-312,-379L-284,-367L-257,-351L-220,-333L-181,-328L-164,-312L-142,-309L-107,-302L-84,-302L-80,-315L-84,-335L-82,-349L-64,-356L-62,-331L-61,-324L-35,-312L-17,-317L7,-315L30,-316L33,-335L21,-346L44,-350L70,-374L103,-395L127,-387L148,-401L161,-380L151,-367Z" fill="#E0E0E0" stroke="#fff" stroke-width=".4"/><path d="M49,-164L48,-142L38,-147L40,-122L32,-138L30,-154L25,-169L13,-187L-14,-188L-11,-175L-20,-158L-32,-164L-36,-159L-44,-162L-56,-165L-60,-190L-70,-214L-65,-233L-83,-241L-76,-253L-59,-265L-79,-281L-69,-303L-46,-289L-33,-288L-30,-266L-3,-261L24,-262L40,-256L27,-230L14,-228L5,-210L21,-194L26,-214L34,-214Z" fill="#E0E0E0" stroke="#fff" stroke-width=".4"/><path d="M531,-47L507,-56L506,-83L520,-96L552,-105L568,-104L575,-92L562,-79L555,-62ZM-307,-859L-309,-881L-290,-892L-316,-961L-259,-977L-244,-986L-223,-1061L-167,-1047L-151,-1066L-149,-1109L-125,-1113L-104,-1142L-92,-1146L-85,-1115L-61,-1092L-20,-1076L0,-1042L-11,-994L-1,-976L33,-969L72,-963L107,-938L124,-934L137,-897L154,-874L186,-875L245,-866L283,-871L311,-866L354,-842L389,-842L401,-830L435,-851L481,-864L524,-866L557,-880L578,-901L598,-914L593,-927L584,-942L599,-968L615,-965L645,-957L674,-978L717,-994L738,-1021L758,-1033L800,-1039L823,-1034L826,-1049L800,-1079L777,-1092L755,-1076L727,-1083L710,-1078L703,-1095L723,-1138L737,-1172L772,-1155L812,-1183L812,-1203L838,-1251L854,-1266L853,-1292L838,-1303L861,-1327L897,-1336L935,-1337L978,-1323L1003,-1305L1021,-1258L1031,-1238L1041,-1210L1052,-1166L1102,-1152L1136,-1121L1147,-1080L1191,-1080L1216,-1097L1263,-1110L1248,-1071L1237,-1056L1227,-1010L1208,-970L1173,-977L1149,-963L1156,-929L1152,-882L1137,-881L1138,-861L1119,-884L1108,-862L1063,-845L1068,-825L1043,-827L1029,-839L1010,-812L978,-791L955,-767L915,-756L894,-739L863,-729L878,-746L872,-760L895,-786L879,-805L854,-792L822,-766L804,-742L776,-740L762,-723L777,-698L800,-692L801,-676L824,-665L856,-691L882,-677L900,-676L905,-657L864,-647L851,-628L823,-610L808,-586L839,-567L850,-533L868,-501L887,-475L887,-450L869,-441L876,-423L892,-413L888,-386L881,-361L865,-358L844,-323L821,-281L794,-243L754,-214L715,-187L682,-184L665,-170L655,-180L639,-165L599,-149L568,-145L558,-112L542,-110L535,-133L542,-145L503,-154L490,-149L461,-157L447,-170L452,-188L426,-194L412,-205L387,-189L359,-185L337,-185L321,-178L306,-173L311,-138L295,-139L293,-146L292,-159L271,-150L258,-155L237,-167L245,-193L227,-199L221,-228L190,-222L194,-260L221,-286L222,-313L221,-337L209,-345L199,-364L182,-362L151,-367L161,-380L148,-401L127,-387L103,-395L70,-374L44,-350L21,-346L8,-355L-7,-355L-27,-363L-43,-355L-62,-331L-64,-356L-82,-349L-115,-352L-148,-360L-171,-374L-193,-381L-203,-396L-219,-401L-248,-423L-271,-433L-283,-425L-323,-448L-351,-469L-359,-507L-338,-502L-337,-519L-349,-537L-346,-565L-377,-606L-424,-620L-432,-648L-453,-665L-459,-675L-463,-696L-462,-710L-479,-718L-489,-714L-496,-748L-488,-757L-492,-766L-464,-783L-445,-791L-414,-786L-403,-810L-367,-814L-356,-830L-311,-850Z" fill="#E0E0E0" stroke="#fff" stroke-width=".4"/><path d="M883,-238L866,-188L854,-162L839,-188L835,-212L852,-242L875,-266L888,-257Z" fill="#E0E0E0" stroke="#fff" stroke-width=".4"/><path d="M856,116L842,94L866,95L876,106L869,131ZM907,196L914,188L917,170L933,168L928,188L949,160L947,187L936,197L927,215L918,224L901,204ZM1015,242L1018,261L1020,277L1010,303L1000,274L986,289L995,310L987,323L953,307L945,286L954,272L936,258L927,270L913,269L892,285L888,277L899,253L917,244L932,234L943,247L964,239L969,226L989,225L988,203L1011,216L1013,231ZM790,215L751,243L765,223L786,205L803,185L818,156L824,179L805,195ZM899,-48L895,-35L905,-14L897,11L880,21L876,45L882,69L897,72L910,68L946,85L943,101L952,108L949,121L927,107L916,91L909,102L891,85L865,89L850,82L852,70L861,63L852,56L849,67L834,49L830,37L829,8L841,18L844,-29L853,-56L870,-56L888,-48L897,-56ZM891,154L886,140L904,149L922,149L921,162L908,174L890,183L889,169ZM990,132L998,165L976,157L977,167L984,185L970,192L969,171L960,170L956,152L973,154L972,143L955,121L982,121Z" fill="#E0E0E0" stroke="#fff" stroke-width=".4"/><path d="M261,298L266,293L290,305L292,320L311,317L320,305L327,308L344,325L356,344L358,364L355,377L357,387L359,404L369,412L381,437L380,447L360,449L333,427L299,405L295,390L279,371L275,347L265,331L268,310ZM772,365L747,360L714,360L704,393L693,403L678,443L655,449L628,441L614,443L597,458L579,456L560,462L541,445L536,426L557,436L579,431L585,406L597,401L632,395L652,372L666,354L679,369L685,359L699,360L701,342L702,327L724,307L739,285L750,285L765,299L766,312L785,320L809,328L807,340L788,341L793,355Z" fill="#E0E0E0" stroke="#fff" stroke-width=".4"/><path d="M702,327L701,342L699,360L685,359L679,369L666,354L678,343Z" fill="#E0E0E0" stroke="#fff" stroke-width=".4"/></g><g clip-path="url(#v)"><path d="M346.3,158.1L345.7,158.3L345.2,158.3L344.7,157.9L344.8,156.2L345.1,155.2L346.0,155.0ZM354.1,174.6L353.0,175.7L351.3,173.4L351.3,172.8ZM474.6,57.4L475.0,59.0L473.7,62.1L472.5,64.9L470.1,67.3L470.0,69.2L469.1,74.5L469.5,76.2L470.0,77.7L470.9,78.5L472.9,83.7L474.8,88.5L476.6,92.3L477.0,94.9L475.3,101.1L473.2,106.8L473.4,109.7L474.4,112.6L475.2,116.4L475.6,121.3L475.1,124.4L474.2,126.4L472.4,128.5L471.0,129.5L469.1,127.7L467.7,127.7L465.7,128.2L464.2,129.0L461.1,132.0L457.6,134.8L452.9,135.6L451.0,137.7L449.1,138.0L445.3,138.1L442.9,138.6L443.0,139.7L442.8,144.8L442.8,146.0L442.5,146.3L440.7,146.4L437.8,145.7L433.9,144.4L431.1,144.2L429.7,146.4L428.8,147.3L427.8,147.4L426.7,147.8L426.4,148.8L426.3,150.0L426.8,152.1L427.0,155.5L426.9,157.8L427.9,159.2L433.8,164.1L435.5,165.3L435.8,166.0L434.7,168.7L435.7,172.4L433.8,172.3L430.7,170.7L429.1,169.7L427.4,170.5L426.8,170.4L425.5,168.6L424.0,166.7L422.3,166.5L418.8,167.3L415.3,167.8L414.0,167.8L413.4,168.1L411.3,170.9L410.5,170.4L406.8,169.4L403.6,169.0L402.9,169.7L403.3,172.0L404.1,174.1L403.6,175.1L401.8,176.3L399.4,178.3L398.0,180.0L397.0,180.4L393.4,180.3L389.8,180.5L388.4,182.0L387.0,183.2L385.9,183.6L381.1,179.8L371.9,178.4L370.8,176.8L369.9,176.5L369.1,178.6L363.9,180.7L361.7,179.5L360.2,177.9L360.4,176.1L361.9,174.5L364.4,173.4L365.7,169.6L363.7,164.7L362.0,163.2L360.2,162.1L358.3,163.9L356.8,167.0L355.1,168.7L352.8,169.0L349.3,168.9L348.0,164.2L347.6,160.2L348.0,155.6L348.5,152.9L345.2,149.2L345.0,145.6L343.5,143.7L343.1,144.7L343.1,145.7L342.6,144.9L337.4,134.5L336.5,129.6L337.4,125.9L337.9,124.6L336.4,122.6L334.3,120.4L330.6,117.4L330.4,112.8L329.5,107.3L328.4,105.4L326.6,102.1L325.7,99.3L325.4,91.8L325.9,91.2L328.6,91.0L331.9,90.5L332.5,89.3L331.9,88.3L334.1,86.6L337.2,82.9L339.5,79.1L341.3,76.6L342.3,74.2L345.8,70.8L350.7,68.4L353.9,67.8L357.3,67.1L360.6,65.9L362.1,65.8L366.2,67.2L368.4,67.5L370.7,67.5L373.1,67.7L375.2,67.5L380.1,66.5L385.4,67.3L390.1,66.7L395.9,65.6L398.8,66.3L401.4,67.4L401.8,69.7L402.4,70.7L403.2,71.5L404.4,71.5L405.9,69.9L407.2,68.3L407.6,68.0L407.6,68.8L408.2,70.6L409.3,72.3L410.5,73.5L412.3,75.0L413.6,75.1L417.6,73.6L423.5,75.7L424.2,76.8L426.2,78.9L428.2,80.5L432.9,80.6L434.5,76.8L433.8,74.5L431.1,70.5L430.4,68.1L431.2,67.7L435.8,67.2L436.5,66.8L437.4,64.2L438.6,64.4L441.1,64.8L443.8,63L445.4,61.1L446.2,62.0L447.1,63.3L448.1,64.1L450.0,65.2L452.2,66.8L453.4,68.3L454.4,69.0L457.1,68.5L457.8,68.6L459.4,66.7L460.5,65.7L461.5,65.9L462.8,65.9L465.6,63.5L467.1,61.3L468.1,60.7L470.5,61.8L471.6,61.6L473.0,58.6Z" fill="#4ECDC4" stroke="#2C3E50" stroke-width="1"/></g><circle cx="400.0" cy="150.0" r="4" fill="#E74C3C" stroke="#fff" stroke-width="2"/><text x="400.0" y="140.0" text-anchor="middle" font-family="sans-serif" font-weight="700" font-size="10" fill="#2D3436">Phnom Penh</text></svg>