<svg viewBox="0 0 800 300" xmlns="http://www.w3.org/2000/svg"><defs><clipPath id="v"><rect width="800" height="300"/></clipPath></defs><rect width="800" height="300" fill="#DCEEF8"/><g clip-path="url(#v)"><path d="M413,200L414,200L415,201L415,202L413,203L411,202L411,201L412,200ZM418,198L417,198L415,199L415,198L416,197L417,197L418,196L418,196L418,198ZM-524,196L-524,196L-524,196L-524,196L-524,198L-524,198L-524,198L-524,196Z" fill="#E0E0E0" stroke="#fff" stroke-width=".4"/><path d="M36,156L36,157L46,162L46,163L50,166L49,169L49,171L50,172L50,172L50,174L50,175L50,176L51,178L52,180L53,181L51,182L48,184L46,183L45,184L43,184L43,185L40,184L38,184L37,181L36,179L35,179L33,178L31,177L30,177L29,176L28,176L26,172L25,171L24,169L24,168L24,166L25,165L26,165L27,163L28,163L28,162L27,161L27,160L28,160L28,158L27,157L28,156L31,156Z" fill="#E0E0E0" stroke="#fff" stroke-width=".4"/><path d="M-76,78L-76,79L-76,79L-76,84L-84,83L-84,91L-87,91L-87,93L-87,97L-97,97L-98,98L-97,96L-97,96L-92,96L-91,95L-90,94L-89,90L-86,87L-84,83L-84,83L-83,81L-81,80L-80,81L-78,81L-78,80L-76,80L-76,78Z" fill="#E0E0E0" stroke="#fff" stroke-width=".4"/><path d="M-375,6L-375,6L-380,2L-382,0L-387,-1L-388,-5L-388,-8L-391,-9L-391,-13L-395,-16L-395,-18L-393,-21L-393,-24L-398,-27L-400,-32L-402,-36L-404,-38L-406,-40L-408,-43L-410,-41L-413,-38L-415,-41L-417,-44L-419,-45L-422,-45L-422,-78L-422,-104L-417,-103L-413,-99L-410,-98L-408,-101L-405,-104L-401,-103L-397,-106L-393,-108L-391,-105L-389,-107L-388,-110L-387,-109L-382,-103L-379,-108L-378,-102L-375,-103L-374,-105L-371,-105L-367,-102L-361,-99L-357,-98L-355,-98L-351,-95L-355,-91L-350,-90L-343,-91L-341,-92L-338,-88L-335,-91L-338,-94L-336,-97L-333,-97L-331,-98L-329,-96L-326,-92L-323,-93L-319,-89L-314,-91L-311,-90L-311,-95L-309,-96L-305,-94L-305,-87L-303,-93L-301,-92L-300,-100L-302,-104L-305,-107L-305,-116L-302,-122L-299,-121L-296,-117L-293,-108L-295,-104L-290,-103L-290,-95L-286,-101L-283,-96L-284,-91L-282,-86L-279,-91L-277,-97L-277,-106L-273,-105L-269,-104L-266,-100L-266,-97L-267,-93L-266,-89L-266,-86L-271,-81L-275,-80L-277,-82L-278,-79L-281,-73L-282,-71L-285,-67L-288,-66L-290,-64L-291,-60L-294,-59L-297,-55L-300,-49L-301,-44L-301,-38L-297,-37L-296,-33L-295,-29L-291,-30L-286,-28L-283,-26L-282,-24L-278,-23L-275,-21L-271,-20L-268,-20L-269,-16L-268,-12L-266,-7L-262,-3L-260,-4L-259,-9L-260,-15L-262,-18L-258,-20L-255,-23L-253,-26L-254,-30L-255,-34L-258,-38L-255,-43L-257,-48L-257,-56L-256,-58L-251,-56L-248,-56L-246,-57L-244,-55L-241,-52L-240,-50L-235,-49L-235,-45L-234,-38L-232,-38L-230,-35L-226,-37L-224,-43L-222,-46L-220,-41L-217,-34L-214,-29L-215,-26L-211,-23L-209,-20L-205,-19L-203,-18L-202,-14L-200,-13L-199,-12L-199,-7L-201,-5L-202,-4L-207,-2L-210,1L-215,2L-220,1L-224,1L-227,1L-229,4L-232,6L-236,11L-239,15L-237,14L-233,9L-227,6L-223,5L-221,7L-223,10L-223,14L-222,17L-218,19L-214,18L-211,14L-211,17L-209,18L-213,21L-219,23L-221,24L-224,27L-226,27L-226,24L-222,21L-226,21L-229,21L-230,19L-230,14L-232,13L-233,13L-234,12L-236,15L-237,18L-238,20L-239,20L-240,21L-240,22L-245,22L-249,22L-250,22L-253,25L-253,25L-254,27L-256,27L-259,27L-260,27L-260,28L-260,29L-260,29L-263,31L-266,32L-269,34L-269,34L-270,33L-271,33L-271,32L-270,31L-269,29L-268,27L-268,24L-269,20L-272,19L-271,18L-272,17L-273,17L-273,17L-273,16L-274,16L-274,16L-274,16L-275,15L-275,14L-277,13L-279,12L-282,10L-284,9L-287,10L-287,10L-291,9L-293,10L-295,8L-298,8L-300,8L-301,7L-301,5L-302,5L-302,6L-307,6L-316,6L-325,6L-333,6L-341,6L-349,6L-357,6L-359,6L-367,6ZM-273,-57L-271,-60L-267,-60L-267,-59L-270,-55L-272,-56ZM-262,-130L-265,-134L-265,-138L-263,-138L-257,-137L-253,-132L-253,-130L-255,-130L-258,-130L-261,-129ZM-263,-55L-262,-57L-261,-57L-260,-55L-261,-53L-263,-53L-263,-55ZM-298,-150L-299,-146L-303,-147L-306,-150L-305,-154L-301,-157L-299,-153ZM-299,-178L-300,-178L-305,-179L-305,-182L-300,-182L-298,-180ZM-306,-194L-303,-189L-304,-185L-308,-182L-310,-185L-311,-190L-311,-196L-308,-195ZM-284,-144L-288,-146L-295,-149L-296,-154L-296,-160L-299,-164L-304,-166L-307,-169L-306,-174L-301,-173L-298,-169L-293,-169L-290,-166L-291,-162L-288,-159L-286,-157L-283,-156L-279,-155L-275,-158L-270,-158L-265,-158L-262,-154L-262,-150L-264,-147L-267,-145L-271,-146L-278,-144ZM-344,-186L-341,-184L-341,-180L-346,-177L-350,-181L-348,-185ZM-343,-195L-340,-192L-343,-189L-348,-189L-348,-191L-345,-195ZM-198,-3L-200,-1L-202,3L-200,2L-198,2L-199,4L-197,5L-196,4L-193,5L-194,8L-192,7L-192,10L-191,12L-192,15L-193,16L-195,15L-194,12L-195,11L-198,14L-200,14L-198,13L-200,12L-203,12L-208,12L-208,11L-207,9L-208,8L-206,6L-203,-1L-201,-3L-199,-5L-198,-4ZM-273,-73L-270,-71L-267,-69L-266,-66L-264,-66L-263,-64L-265,-63L-269,-64L-270,-67L-273,-64L-277,-61L-278,-64L-281,-63L-279,-66L-279,-71L-278,-77L-276,-76L-275,-74L-274,-74ZM-259,-126L-257,-129L-251,-125L-247,-121L-247,-117L-242,-119L-239,-114L-233,-111L-231,-107L-228,-100L-233,-97L-227,-92L-223,-91L-219,-85L-215,-84L-216,-80L-220,-72L-223,-75L-228,-81L-231,-80L-231,-77L-229,-73L-225,-70L-224,-68L-222,-63L-223,-58L-226,-60L-233,-65L-229,-60L-227,-56L-226,-54L-233,-56L-239,-60L-242,-63L-241,-64L-245,-67L-249,-70L-249,-68L-256,-67L-259,-70L-257,-74L-252,-74L-247,-75L-247,-77L-247,-80L-243,-87L-244,-90L-245,-92L-249,-96L-254,-98L-252,-100L-255,-105L-258,-105L-260,-108L-261,-106L-266,-105L-275,-106L-281,-109L-285,-110L-287,-112L-285,-116L-288,-116L-289,-125L-287,-132L-284,-136L-278,-139L-280,-133L-277,-127L-275,-134L-268,-138L-264,-129L-264,-123ZM-300,-142L-295,-142L-290,-139L-294,-131L-297,-129L-300,-123L-303,-123L-304,-131L-304,-135L-303,-139ZM-375,-162L-370,-170L-365,-178L-361,-178L-357,-180L-357,-171L-359,-167L-362,-166L-367,-161L-371,-160ZM-400,-15L-398,-15L-399,-10L-396,-7L-397,-7L-399,-9L-400,-11L-401,-12L-402,-14L-402,-16ZM-329,-201L-324,-200L-317,-195L-315,-188L-314,-183L-318,-184L-322,-189L-328,-189L-326,-193L-329,-196ZM-376,8L-378,9L-382,7L-383,6L-385,4L-385,3L-388,2L-389,-0L-389,-1L-386,-0L-385,1L-382,1L-381,2L-380,4L-377,6ZM-371,-145L-367,-143L-361,-142L-358,-140L-355,-136L-359,-133L-365,-127L-368,-121L-368,-117L-375,-114L-377,-117L-383,-122L-381,-125L-380,-132L-377,-138L-380,-143ZM-335,-159L-333,-161L-330,-160L-330,-155L-331,-150L-340,-149L-347,-145L-351,-144L-351,-148L-346,-152L-357,-151L-361,-153L-358,-163L-355,-166L-348,-162L-343,-156L-338,-155L-342,-166L-340,-170L-337,-168L-336,-163ZM-332,-132L-329,-128L-327,-120L-326,-114L-322,-110L-317,-107L-318,-103L-322,-103L-320,-100L-321,-97L-326,-98L-330,-100L-333,-100L-338,-97L-345,-96L-350,-96L-351,-99L-355,-101L-357,-100L-360,-106L-358,-107L-354,-108L-351,-108L-347,-109L-352,-111L-358,-111L-362,-111L-363,-114L-357,-117L-361,-117L-366,-119L-363,-125L-361,-129L-354,-134L-352,-132L-353,-128L-347,-131L-344,-126L-341,-131L-338,-128L-336,-120L-335,-123L-337,-132L-334,-133ZM-316,-129L-319,-135L-316,-139L-313,-137L-308,-138L-307,-136L-310,-131L-306,-127L-306,-120L-310,-117L-313,-117L-315,-120L-321,-127L-321,-130ZM-332,-137L-328,-137L-326,-135L-329,-129L-333,-135ZM-311,-169L-309,-164L-309,-158L-310,-150L-314,-149L-317,-151L-317,-157L-321,-156L-321,-164L-319,-164L-315,-168L-311,-167ZM-304,-221L-302,-226L-300,-227L-301,-231L-295,-232L-291,-223L-287,-220L-283,-217L-281,-207L-278,-202L-281,-198L-286,-188L-291,-187L-296,-189L-299,-194L-299,-199L-297,-203L-302,-202L-304,-207L-306,-214ZM-293,-243L-289,-247L-286,-247L-281,-251L-277,-258L-274,-257L-271,-251L-269,-262L-265,-266L-261,-268L-253,-269L-251,-267L-244,-270L-238,-269L-232,-268L-225,-266L-220,-263L-215,-258L-215,-252L-221,-244L-228,-240L-230,-236L-224,-236L-231,-226L-235,-221L-239,-209L-245,-206L-246,-203L-254,-202L-251,-200L-252,-198L-250,-191L-253,-186L-257,-183L-258,-178L-262,-174L-261,-172L-257,-172L-257,-169L-264,-163L-271,-166L-278,-164L-282,-165L-287,-166L-288,-171L-283,-174L-284,-183L-282,-184L-275,-178L-279,-186L-283,-189L-281,-194L-276,-197L-276,-202L-279,-208L-281,-215L-273,-215L-271,-213L-267,-219L-273,-221L-282,-220L-287,-225L-289,-232L-292,-237ZM-250,-88L-252,-86L-254,-86L-255,-89L-254,-93L-252,-94L-250,-92L-250,-89ZM-305,-103L-303,-100L-305,-97L-308,-99L-311,-99L-314,-102L-312,-104L-310,-108L-307,-105L-306,-104ZM-222,3L-221,2L-217,3L-215,5L-215,6L-216,6L-219,5ZM-221,14L-220,16L-218,16L-215,16L-217,18L-218,18L-221,16L-221,15Z" fill="#E0E0E0" stroke="#fff" stroke-width=".4"/><path d="M176,5L174,8L172,8L172,12L170,14L165,13L163,20L162,20L156,22L159,28L157,29L157,31L156,31L154,29L150,29L146,29L145,29L141,28L140,29L139,31L135,29L133,30L133,31L131,32L128,35L127,37L126,37L125,35L122,35L121,32L120,32L120,29L117,26L113,27L109,27L107,24L105,22L101,20L100,19L94,22L94,35L92,35L90,32L89,31L86,32L85,33L84,32L85,31L85,30L82,28L80,25L79,24L79,23L81,23L81,21L84,20L86,21L86,17L86,15L83,15L81,14L78,16L76,16L74,16L75,14L73,11L71,11L69,9L70,6L69,5L72,0L74,3L75,-0L80,-5L84,-5L90,-2L93,-0L96,-2L100,-2L103,-0L104,-1L108,-1L108,-3L104,-6L107,-8L106,-9L109,-10L107,-13L108,-15L118,-16L119,-18L126,-19L128,-21L133,-20L133,-15L136,-17L140,-15L139,-13L142,-13L148,-17L147,-16L151,-12L157,-1L158,-4L162,-1L165,-2L167,-1L168,1L170,2L171,3L174,3Z" fill="#E0E0E0" stroke="#fff" stroke-width=".4"/><path d="M94,35L94,22L100,19L101,20L105,22L107,24L109,27L113,27L117,26L120,29L120,32L121,32L122,35L125,35L126,37L127,37L128,35L131,32L133,31L134,32L131,34L133,35L135,35L138,36L135,39L133,39L132,39L132,38L132,36L129,37L128,39L127,41L124,41L124,42L126,43L126,46L125,49L123,48L121,48L121,46L118,45L115,43L113,42L110,39L109,36L108,35L105,35L104,34L104,32L101,30L98,32L96,33L97,35Z" fill="#E0E0E0" stroke="#fff" stroke-width=".4"/><path d="M316,161L321,162L326,164L327,165L329,167L329,168L334,170L334,171L332,171L332,173L335,175L336,178L338,178L338,179L340,179L339,180L342,181L342,182L340,182L339,181L337,181L334,180L332,179L331,177L329,175L326,174L324,175L322,175L323,177L320,178L319,178L316,178L316,169ZM347,163L348,164L348,166L347,166L347,165L346,164L345,163L343,162L342,161L342,160L344,161L345,162L346,162ZM343,169L342,170L340,170L339,170L337,170L335,169L336,168L338,168L339,168L340,167L340,167L340,168L342,168L343,167L344,166L344,165L345,165L346,165L346,167L345,168L344,168ZM352,168L353,168L354,170L356,171L355,172L354,172L353,171L352,169L352,167L352,167Z" fill="#E0E0E0" stroke="#fff" stroke-width=".4"/><path d="M316,161L316,169L316,178L314,176L311,175L311,176L307,176L308,174L310,173L309,170L308,168L303,166L301,165L297,163L296,164L295,165L295,164L295,162L293,161L295,160L297,160L297,160L293,160L292,158L290,158L289,156L292,156L294,155L298,156L298,157L299,161L302,163L304,160L307,158L309,158L311,159L313,160ZM274,177L275,178L275,178L273,180L271,181L270,181L271,180L272,178ZM298,172L298,170L299,169L299,168L300,169L300,170ZM256,143L254,145L256,148L256,149L259,151L256,152L255,154L255,156L252,158L252,160L251,164L251,163L248,165L247,163L245,163L244,162L240,163L240,162L238,162L236,161L235,158L234,157L233,155L232,153L233,150L234,149L235,150L236,152L238,151L240,151L241,150L243,150L245,151L247,150L249,146L250,145L250,143L253,143ZM286,161L289,162L290,164L287,163L285,163L284,163L282,163L283,161ZM279,164L277,163L277,162L280,162L280,163ZM282,148L282,150L284,150L284,151L284,153L283,153L282,154L283,156L282,156L281,154L281,151L281,149ZM269,152L272,151L275,149L275,150L273,153L271,153L268,153L264,153L262,153L261,155L264,157L265,156L270,155L270,157L269,156L268,158L265,159L268,162L267,163L270,166L270,168L268,169L267,168L268,165L266,167L265,166L265,165L264,163L264,161L262,161L262,165L262,168L261,169L260,168L260,165L260,163L259,163L258,161L259,159L259,157L261,153L261,152L264,150L266,151ZM262,181L259,179L261,178L262,179L263,180L263,181ZM265,176L267,176L269,175L268,177L265,177L261,177L261,176L263,175ZM257,176L258,176L259,177L256,177L254,178L253,178L254,176L255,176L256,175ZM231,171L231,172L236,172L237,171L242,172L243,174L247,174L250,176L247,177L244,176L242,176L239,176L237,175L234,174L232,174L231,174L226,173L225,172L223,172L225,169L228,169L230,170ZM220,157L221,158L222,160L224,160L225,162L224,165L224,169L221,169L219,167L216,165L215,163L213,161L211,159L209,156L207,153L206,151L205,149L203,147L201,145L200,144L197,141L197,139L198,140L202,140L205,143L207,144L208,145L211,148L213,148L215,150L217,152L219,154L218,156L219,157Z" fill="#E0E0E0" stroke="#fff" stroke-width=".4"/><path d="M-233,316L-232,318L-230,322L-227,324L-223,326L-224,328L-227,328L-228,326L-230,326L-233,326ZM-204,237L-204,239L-205,242L-205,246L-206,246L-206,248L-206,250L-203,253L-203,255L-201,256L-202,258L-204,262L-208,264L-213,265L-216,264L-216,266L-216,269L-216,271L-217,272L-220,272L-222,271L-223,272L-223,275L-221,276L-220,275L-219,277L-221,278L-224,281L-224,284L-225,286L-227,286L-229,288L-230,291L-227,294L-225,294L-226,298L-229,300L-230,305L-233,306L-234,308L-233,313L-231,315L-232,315L-235,314L-241,314L-242,311L-242,308L-244,308L-245,307L-245,303L-243,301L-242,298L-243,296L-241,293L-240,288L-241,286L-239,285L-240,284L-241,283L-240,282L-241,280L-242,276L-241,275L-241,271L-241,268L-240,265L-238,263L-239,260L-239,257L-237,255L-237,252L-236,249L-236,246L-236,246L-238,240L-236,237L-236,234L-235,232L-234,229L-232,227L-232,226L-232,225L-232,220L-229,219L-228,216L-229,215L-226,212L-223,213L-221,215L-220,213L-217,213L-217,214L-212,218L-210,219L-207,221L-204,222L-204,223L-206,228L-204,228L-201,229L-199,228L-196,226L-196,224L-195,223L-193,225L-193,227L-196,229L-197,230L-200,233Z" fill="#E0E0E0" stroke="#fff" stroke-width=".4"/><path d="M24,166L24,168L24,169L25,171L26,172L28,176L27,175L23,176L22,176L22,178L22,179L22,182L21,185L22,185L24,186L25,186L25,189L23,189L22,187L21,186L19,186L18,184L17,185L15,185L14,184L12,183L11,183L11,183L10,183L8,182L7,183L6,183L5,183L5,180L4,179L4,177L5,176L4,175L4,173L1,173L1,172L-0,172L-0,172L-2,173L-3,174L-3,175L-5,174L-5,175L-7,175L-8,174L-9,173L-10,171L-10,169L-18,169L-19,169L-20,169L-21,170L-21,169L-20,169L-20,168L-20,167L-19,166L-18,167L-17,166L-16,166L-16,166L-15,167L-13,165L-12,164L-11,163L-11,161L-10,158L-9,157L-7,156L-7,155L-7,154L-6,153L-6,152L-6,149L-6,148L-5,146L-5,145L-4,143L-3,141L-2,141L0,141L2,142L4,143L6,143L7,142L7,141L8,142L11,140L12,141L13,141L13,140L14,140L16,140L18,140L19,140L20,142L22,143L22,142L23,142L25,142L26,143L28,145L28,148L29,148L28,149L27,150L26,151L25,152L25,154L25,155L25,157L24,158L24,160L23,160L23,161L24,162Z" fill="#E0E0E0" stroke="#fff" stroke-width=".4"/><path d="M56,158L54,156L54,147L57,144L57,143L59,143L61,141L65,141L72,133L74,131L75,129L75,128L75,125L75,124L75,124L76,124L77,123L79,123L80,122L81,122L81,123L81,124L81,126L80,127L79,130L78,133L77,136L74,140L72,143L69,146L66,148L62,151L60,153L57,156L57,158Z" fill="#E0E0E0" stroke="#fff" stroke-width=".4"/><path d="M50,166L46,163L46,162L36,157L36,156L36,154L37,152L38,151L39,149L38,146L37,144L36,143L38,141L39,139L41,140L41,141L42,142L44,142L47,144L48,144L48,144L49,145L51,145L51,144L54,143L55,144L57,144L54,147L54,156L56,158L54,159L53,160L53,161L52,162L51,163L51,165Z" fill="#E0E0E0" stroke="#fff" stroke-width=".4"/><path d="M11,132L9,131L9,130L8,129L9,128L9,127L7,126L7,124L7,124L6,123L6,121L5,120L5,121L5,120L5,118L5,117L6,117L5,116L6,114L7,112L10,112L9,102L10,100L13,100L13,95L23,95L33,95L44,95L44,97L44,98L44,101L45,104L46,105L48,106L46,107L44,108L44,109L43,111L42,115L42,116L42,118L41,121L39,122L38,124L38,125L37,126L36,129L36,131L36,129L36,129L36,128L35,127L34,126L34,124L34,122L33,121L33,122L31,122L32,123L32,125L30,126L29,128L28,128L26,127L25,127L24,128L23,129L23,129L20,129L20,129L18,128L17,129L16,129L15,127L15,126L13,127L12,128L11,130L10,131L10,131Z" fill="#E0E0E0" stroke="#fff" stroke-width=".4"/><path d="M9,102L10,112L7,112L6,114L5,116L6,117L5,117L5,118L5,120L5,121L5,120L6,121L6,123L7,124L7,124L5,125L4,126L2,129L-0,130L-3,130L-4,130L-3,131L-5,132L-6,133L-9,134L-10,133L-10,133L-11,134L-13,134L-13,134L-13,132L-14,131L-15,130L-16,129L-16,127L-15,128L-14,128L-12,128L-14,125L-14,123L-14,122L-15,120L-15,119L-16,119L-16,117L-17,116L-16,112L-13,110L-13,106L-12,100L-11,99L-12,98L-12,97L-13,97L-14,92L-11,91L-1,96Z" fill="#E0E0E0" stroke="#fff" stroke-width=".4"/><path d="M193,-228L198,-232L203,-223L209,-208L209,-196L203,-194L196,-198L191,-203L189,-214L186,-217ZM216,-201L223,-193L222,-188L207,-183L212,-201L214,-202ZM311,-162L317,-162L327,-156L325,-149L315,-149L311,-146L306,-153L307,-160ZM335,-154L342,-151L339,-147L334,-148L330,-152L330,-155ZM313,-135L316,-138L319,-139L323,-136L323,-133L319,-133L314,-134ZM64,-221L70,-224L74,-224L74,-220L76,-223L78,-226L82,-223L81,-220L77,-218L75,-217L75,-214L72,-212L69,-215L70,-220ZM7,-16L2,-16L-1,-17L-1,-19L3,-20L6,-19L7,-19L6,-17ZM87,-138L93,-147L93,-151L99,-157L107,-164L116,-166L120,-170L126,-171L127,-167L126,-163L116,-158L108,-153L100,-144L96,-134L92,-126L93,-119L98,-112L96,-111L88,-112L87,-116L82,-118L82,-123L84,-125L84,-129L90,-137ZM321,-14L322,-9L322,-5L323,-1L326,6L322,5L320,11L323,15L323,17L321,15L319,18L319,15L319,11L319,7L319,4L319,-2L318,-6L318,-12L320,-14L319,-16L321,-16ZM-524,-99L-524,-99L-518,-93L-511,-86L-511,-82L-509,-81L-510,-85L-503,-84L-498,-78L-500,-76L-505,-75L-505,-69L-506,-68L-508,-68L-510,-70L-514,-72L-514,-74L-517,-75L-520,-75L-521,-77L-521,-79L-524,-78L-523,-75L-524,-72L-524,-72L-524,-99ZM418,-72L418,-72L415,-69L412,-70L414,-67L415,-62L417,-60L417,-58L416,-56L411,-57L404,-53L402,-53L398,-49L394,-46L393,-43L389,-47L382,-43L381,-45L379,-42L375,-43L374,-40L371,-35L371,-33L374,-32L374,-25L372,-25L370,-21L372,-19L367,-16L366,-11L362,-10L361,-6L358,-2L357,-5L355,-11L354,-21L355,-28L357,-30L358,-33L362,-34L366,-40L371,-46L376,-50L378,-58L375,-57L373,-53L366,-47L364,-53L357,-51L351,-42L353,-39L347,-38L343,-37L343,-41L339,-42L336,-39L328,-40L319,-39L311,-29L301,-18L305,-18L306,-15L309,-14L310,-16L313,-16L317,-11L317,-7L315,-3L315,2L314,8L310,14L309,17L305,21L302,25L300,27L297,30L295,30L293,28L290,30L289,32L289,32L289,31L289,29L290,29L291,25L290,22L292,20L296,21L297,17L298,13L299,12L301,8L296,9L294,11L290,11L289,7L286,4L281,3L280,-1L279,-3L278,-5L277,-10L275,-11L271,-12L267,-12L264,-12L262,-9L263,-8L263,-6L262,-5L259,-0L259,2L256,4L253,3L249,3L248,2L246,1L243,4L239,5L237,6L234,5L231,5L229,3L227,1L224,1L221,1L219,2L215,0L214,-3L211,-4L209,-5L206,-6L203,-2L204,0L202,3L198,2L195,2L194,0L191,0L189,-1L185,1L180,4L177,5L176,5L174,3L171,3L170,2L168,1L167,-1L165,-2L162,-1L158,-4L157,-1L151,-12L147,-16L148,-17L142,-13L139,-13L140,-15L136,-17L133,-15L133,-20L128,-21L126,-19L119,-18L118,-16L108,-15L107,-13L109,-10L106,-9L107,-8L104,-6L108,-3L108,-1L104,-1L103,-0L100,-2L96,-2L93,-0L90,-2L84,-5L80,-5L75,-0L74,3L72,0L69,5L70,6L69,9L71,11L73,11L75,14L74,16L76,16L74,19L72,19L69,23L72,26L71,29L74,33L73,35L72,35L71,35L69,33L69,33L67,32L66,31L64,30L62,30L62,30L58,28L54,27L52,27L52,27L48,24L45,23L43,21L45,20L47,17L46,15L50,14L50,13L47,14L47,12L49,11L51,11L52,9L51,7L52,5L52,4L48,2L47,3L45,1L43,1L40,-0L40,-1L39,-3L37,-3L36,-4L37,-5L35,-8L33,-7L32,-7L31,-6L30,-7L30,-9L29,-11L30,-11L32,-11L33,-12L32,-13L30,-14L30,-15L29,-16L28,-18L28,-20L28,-22L25,-23L24,-22L24,-24L21,-25L20,-28L20,-30L19,-31L20,-33L19,-37L21,-40L20,-41L23,-44L21,-46L26,-53L29,-57L30,-59L26,-63L27,-67L24,-72L26,-77L23,-85L26,-90L22,-94L22,-100L24,-100L29,-103L31,-106L36,-101L43,-100L53,-91L55,-88L55,-84L52,-80L48,-78L36,-83L34,-83L38,-78L38,-75L39,-69L42,-67L44,-65L44,-68L43,-71L44,-73L51,-69L53,-71L51,-75L57,-82L60,-81L62,-79L64,-83L61,-87L63,-92L61,-96L68,-94L70,-90L66,-89L66,-85L68,-83L72,-84L73,-89L79,-92L88,-98L90,-98L87,-93L90,-93L92,-95L97,-95L101,-98L104,-94L107,-99L104,-103L106,-105L113,-103L117,-101L126,-93L128,-96L126,-100L125,-102L122,-102L123,-106L122,-112L122,-115L127,-122L128,-130L130,-132L137,-129L138,-124L135,-118L137,-115L138,-110L137,-99L140,-95L139,-90L134,-81L137,-80L138,-82L141,-84L141,-87L144,-90L142,-94L143,-99L140,-100L140,-104L142,-111L138,-118L143,-124L143,-130L144,-130L145,-125L144,-117L147,-116L146,-122L150,-125L156,-125L160,-121L158,-128L158,-137L162,-139L169,-139L174,-140L172,-145L175,-152L178,-152L183,-157L190,-158L191,-161L198,-162L200,-160L206,-166L211,-166L212,-170L214,-175L220,-180L225,-176L221,-174L227,-172L228,-166L230,-169L238,-169L244,-163L246,-159L245,-154L242,-151L235,-145L233,-142L237,-141L241,-139L243,-140L244,-134L245,-137L250,-138L258,-137L259,-132L270,-131L270,-138L275,-136L280,-136L284,-132L285,-126L283,-122L287,-116L291,-113L293,-121L298,-117L302,-120L307,-117L309,-119L313,-118L311,-126L315,-130L338,-124L341,-119L348,-113L358,-115L363,-113L366,-110L365,-104L368,-102L372,-104L377,-104L382,-103L386,-103L391,-97L394,-99L392,-104L393,-107L402,-105L407,-106L415,-102L418,-99L418,-72ZM418,-113L415,-113L415,-115L418,-119L418,-113ZM-524,-119L-524,-119L-524,-119L-524,-119L-522,-119L-518,-117L-518,-115L-521,-114L-524,-113L-524,-113L-524,-119ZM35,18L35,17L37,18L38,18L38,19L39,19L39,19L40,20L43,20L42,21L39,22L36,24L34,23L35,21L32,20L33,20L35,18Z" fill="#E0E0E0" stroke="#fff" stroke-width=".4"/><path d="M-13,-207L-12,-212L-8,-212L-5,-207L3,-197L-3,-191L-5,-182L-7,-180L-8,-170L-11,-169L-17,-177L-15,-181L-18,-184L-24,-195L-26,-206L-18,-212L-17,-207ZM29,-103L24,-100L22,-100L23,-105L20,-108L16,-105L14,-100L12,-96L9,-98L6,-98L3,-102L1,-100L-0,-100L-1,-95L-6,-96L-7,-92L-9,-92L-11,-87L-13,-80L-17,-71L-16,-69L-17,-66L-20,-66L-22,-61L-22,-53L-20,-51L-21,-44L-23,-41L-24,-38L-26,-41L-31,-35L-34,-34L-38,-37L-39,-42L-40,-54L-37,-58L-31,-63L-25,-69L-21,-78L-14,-91L-10,-96L-3,-105L3,-108L7,-108L11,-115L16,-114L21,-116L29,-110L26,-108ZM19,-213L15,-205L7,-203L-0,-205L-1,-209L-5,-210L-7,-217L1,-221L4,-217L7,-222L14,-218ZM12,-182L6,-177L1,-180L3,-183L2,-187L7,-190L8,-185Z" fill="#E0E0E0" stroke="#fff" stroke-width=".4"/><path d="M-175,-258L-167,-270L-157,-269L-154,-278L-145,-280L-124,-277L-107,-260L-112,-252L-122,-251L-136,-249L-135,-246L-126,-248L-118,-241L-113,-247L-111,-240L-114,-230L-107,-237L-94,-244L-86,-240L-85,-232L-96,-221L-97,-217L-105,-214L-99,-214L-102,-203L-105,-194L-104,-180L-101,-172L-105,-171L-110,-168L-105,-162L-104,-153L-107,-152L-104,-143L-109,-143L-106,-139L-107,-136L-111,-134L-115,-134L-111,-128L-111,-124L-116,-128L-118,-125L-114,-123L-111,-118L-110,-112L-115,-110L-117,-113L-120,-118L-119,-112L-122,-108L-115,-108L-111,-108L-118,-101L-126,-95L-133,-93L-136,-93L-139,-90L-142,-83L-148,-78L-150,-78L-153,-77L-157,-75L-159,-71L-159,-67L-161,-63L-165,-58L-164,-54L-165,-49L-166,-44L-170,-44L-174,-48L-179,-48L-182,-51L-184,-57L-188,-64L-189,-68L-190,-73L-193,-79L-192,-84L-194,-86L-192,-94L-188,-97L-187,-100L-186,-106L-189,-103L-191,-102L-193,-101L-196,-104L-196,-109L-195,-113L-193,-113L-187,-111L-192,-116L-194,-119L-197,-118L-199,-120L-196,-128L-198,-131L-200,-137L-203,-147L-206,-151L-206,-156L-213,-162L-219,-163L-226,-162L-232,-161L-235,-165L-240,-172L-233,-176L-228,-176L-239,-180L-245,-185L-244,-190L-235,-196L-225,-203L-224,-208L-231,-213L-229,-220L-220,-231L-216,-233L-217,-241L-211,-246L-203,-249L-195,-249L-192,-243L-185,-254L-179,-246L-175,-245L-169,-239L-176,-249Z" fill="#E0E0E0" stroke="#fff" stroke-width=".4"/><path d="M128,300L129,301L132,302L132,302L131,304L127,304L127,302L127,301Z" fill="#E0E0E0" stroke="#fff" stroke-width=".4"/><path d="M274,177L275,177L277,176L279,176L279,176L280,176L279,177L277,178L275,178L275,178Z" fill="#E0E0E0" stroke="#fff" stroke-width=".4"/><path d="M-10,232L-9,230L-8,231L-7,233L-6,233L-5,233L-3,233L-1,232L-1,221L-0,221L1,224L1,226L2,227L4,226L5,225L6,224L7,223L8,222L9,223L10,223L13,224L14,223L15,222L15,221L16,220L17,219L18,217L20,215L24,213L25,213L26,214L27,213L29,214L30,218L31,220L30,223L30,224L29,223L28,224L28,224L27,225L27,227L29,228L31,228L31,226L33,226L32,229L32,231L31,232L30,234L29,234L28,236L27,237L26,240L23,243L21,245L19,246L16,247L15,247L15,248L13,248L12,249L9,248L7,248L6,248L3,249L1,250L-0,251L-2,251L-3,250L-4,250L-5,249L-5,249L-5,248L-5,246L-6,244L-5,244L-5,241L-7,238L-8,236L-8,236ZM23,233L22,232L21,233L19,234L18,236L20,238L21,238L21,237L23,236L23,235L24,234Z" fill="#E0E0E0" stroke="#fff" stroke-width=".4"/><path d="M23,233L24,234L23,235L23,236L21,237L21,238L20,238L18,236L19,234L21,233L22,232Z" fill="#E0E0E0" stroke="#fff" stroke-width=".4"/><path d="M-204,237L-202,237L-199,239L-198,239L-196,241L-194,242L-192,245L-193,246L-193,248L-194,250L-197,252L-199,251L-200,251L-203,250L-204,250L-206,248L-206,246L-205,246L-205,242L-204,239Z" fill="#E0E0E0" stroke="#fff" stroke-width=".4"/><path d="M-193,248L-193,246L-192,245L-194,242L-196,241L-198,239L-199,239L-202,237L-204,237L-200,233L-197,230L-196,229L-193,227L-193,225L-195,223L-196,224L-195,222L-195,220L-195,219L-196,218L-197,219L-198,218L-198,217L-199,215L-199,214L-201,213L-202,214L-205,213L-204,209L-205,208L-204,207L-205,206L-204,204L-203,202L-204,200L-205,200L-206,199L-205,197L-210,197L-211,194L-211,194L-211,193L-211,192L-211,190L-213,189L-214,189L-216,189L-217,188L-218,187L-221,187L-224,184L-224,182L-224,181L-224,179L-227,180L-229,181L-231,182L-232,183L-233,183L-235,183L-236,183L-238,183L-237,179L-240,180L-242,180L-243,179L-245,179L-244,178L-246,176L-247,174L-246,173L-246,172L-244,171L-245,170L-244,169L-244,168L-241,166L-239,165L-238,165L-236,165L-235,158L-235,157L-235,155L-236,154L-236,152L-235,152L-234,152L-234,151L-236,151L-236,149L-231,149L-230,148L-229,149L-228,151L-228,151L-227,152L-225,152L-224,151L-222,150L-221,150L-221,149L-219,148L-219,147L-221,147L-222,146L-221,144L-223,143L-222,143L-220,143L-218,144L-217,143L-215,143L-213,142L-212,141L-212,140L-211,140L-210,141L-210,142L-209,142L-209,143L-210,144L-210,147L-209,148L-209,149L-207,150L-206,150L-206,150L-205,150L-204,149L-203,149L-202,149L-201,149L-200,149L-199,149L-200,148L-199,147L-198,147L-197,147L-196,148L-195,148L-194,148L-193,148L-193,148L-192,148L-191,147L-190,145L-188,143L-187,143L-187,144L-185,149L-184,149L-184,151L-186,153L-185,154L-180,154L-180,157L-178,155L-175,156L-170,158L-169,159L-170,161L-167,160L-161,161L-158,161L-154,163L-150,166L-148,167L-146,167L-145,168L-144,171L-144,173L-145,177L-146,179L-150,183L-152,186L-154,188L-154,188L-155,190L-155,195L-155,200L-156,201L-157,202L-157,206L-160,210L-160,213L-162,214L-163,216L-166,216L-170,217L-172,218L-175,219L-178,221L-180,224L-180,226L-180,228L-180,231L-181,232L-183,234L-186,239L-188,242L-190,243L-191,246Z" fill="#E0E0E0" stroke="#fff" stroke-width=".4"/><path d="M-196,148L-197,147L-198,147L-199,147L-200,148L-199,149L-200,149L-201,149L-203,147L-203,145L-204,145L-205,143L-204,142L-205,141L-203,140L-203,138L-199,139L-199,138L-197,138L-194,139L-196,141L-195,143L-194,144L-195,145L-195,147Z" fill="#E0E0E0" stroke="#fff" stroke-width=".4"/><path d="M-188,143L-190,145L-191,147L-192,148L-193,148L-193,148L-194,148L-195,148L-196,148L-195,147L-195,145L-194,144L-195,143L-196,141L-194,139L-193,139L-191,140L-189,142ZM-37,4L-35,5L-32,6L-33,9L-33,12L-34,12L-35,12L-35,13L-37,15L-37,17L-36,16L-35,18L-35,19L-34,20L-35,21L-35,24L-33,25L-33,26L-36,28L-41,27L-45,29L-45,31L-48,31L-51,30L-52,30L-57,29L-58,27L-57,25L-56,18L-59,14L-61,12L-65,10L-65,7L-62,7L-57,8L-58,3L-56,5L-49,2L-49,-2L-46,-3L-46,-1L-45,-1L-44,1L-42,3L-40,2L-38,4L-37,4ZM-30,30L-28,29L-28,32L-29,35L-30,34L-31,32Z" fill="#E0E0E0" stroke="#fff" stroke-width=".4"/><path d="M29,214L27,213L26,214L25,213L24,213L22,212L20,211L20,210L20,209L19,208L16,205L15,204L14,203L13,201L16,201L17,202L18,202L19,200L22,198L23,197L23,196L24,195L26,195L27,196L29,196L30,196L30,197L32,197L33,198L33,202L33,204L32,206L33,206L33,208L32,208L32,210Z" fill="#E0E0E0" stroke="#fff" stroke-width=".4"/><path d="M24,213L20,215L18,217L17,219L16,220L15,221L15,222L14,223L13,224L10,223L9,223L8,222L7,223L6,224L5,225L4,226L2,227L1,226L1,224L-0,221L-1,221L-1,212L2,212L2,202L4,202L8,201L9,202L10,201L11,201L13,201L13,201L14,203L15,204L16,205L19,208L20,209L20,210L20,211L22,212Z" fill="#E0E0E0" stroke="#fff" stroke-width=".4"/><path d="M-1,221L-1,232L-3,233L-5,233L-6,233L-7,233L-8,231L-9,230L-10,232L-12,230L-13,228L-14,225L-14,223L-15,218L-15,215L-16,213L-17,212L-18,210L-19,206L-20,205L-22,202L-22,200L-21,199L-19,199L-18,199L-16,200L-16,200L-5,200L-3,201L3,202L8,200L10,200L12,200L13,201L13,201L11,201L10,201L9,202L8,201L4,202L2,202L2,212L-1,212Z" fill="#E0E0E0" stroke="#fff" stroke-width=".4"/><path d="M-97,118L-98,116L-99,115L-98,114L-97,112L-96,111L-95,110L-94,110L-93,110L-91,110L-90,111L-88,111L-87,113L-85,115L-85,117L-84,118L-83,119L-83,120L-83,121L-83,121L-85,121L-85,121L-86,121L-88,121L-89,121L-94,120L-94,121L-95,121L-97,121L-97,119L-95,119L-94,119L-94,119L-93,118L-91,119L-90,119L-89,118L-90,117L-91,118L-91,118L-92,117L-93,117L-94,118Z" fill="#E0E0E0" stroke="#fff" stroke-width=".4"/><path d="M-83,121L-83,120L-83,119L-84,118L-85,117L-85,115L-84,115L-83,113L-83,113L-81,114L-79,113L-78,113L-78,113L-67,113L-67,111L-67,110L-69,99L-70,86L-66,86L-57,92L-48,99L-48,100L-46,101L-45,101L-45,103L-42,103L-42,109L-43,111L-43,113L-46,113L-49,113L-50,114L-52,114L-54,114L-54,114L-56,114L-58,115L-59,116L-61,117L-61,118L-62,119L-63,118L-64,119L-65,121L-67,123L-67,124L-67,125L-67,126L-68,127L-69,127L-69,126L-70,126L-70,126L-71,127L-73,127L-74,127L-74,127L-75,126L-75,125L-75,125L-75,125L-75,124L-75,124L-76,123L-76,122L-77,121L-77,121L-78,122L-79,122L-80,123L-81,122L-81,122L-82,122L-82,122L-83,122Z" fill="#E0E0E0" stroke="#fff" stroke-width=".4"/><path d="M-98,98L-97,97L-87,97L-87,93L-87,91L-84,91L-84,83L-76,84L-76,79L-66,86L-70,86L-69,99L-67,110L-67,111L-67,113L-78,113L-78,113L-79,113L-81,114L-83,113L-83,113L-84,115L-85,115L-87,113L-88,111L-90,111L-91,110L-93,110L-94,110L-95,110L-96,111L-96,110L-96,108L-95,106L-95,103L-96,101L-96,100L-96,99Z" fill="#E0E0E0" stroke="#fff" stroke-width=".4"/><path d="M-46,137L-48,138L-49,136L-49,130L-49,129L-49,128L-50,127L-51,126L-51,125L-50,125L-49,123L-48,123L-47,122L-46,122L-45,122L-43,123L-44,124L-43,126L-43,127L-43,127L-44,129L-45,130L-46,131L-46,133Z" fill="#E0E0E0" stroke="#fff" stroke-width=".4"/><path d="M-14,92L-13,97L-12,97L-12,98L-11,99L-12,100L-13,106L-13,110L-16,112L-17,116L-16,117L-16,119L-15,119L-15,120L-16,120L-16,121L-16,121L-18,118L-19,118L-21,119L-23,119L-24,118L-25,119L-26,119L-28,120L-29,120L-32,119L-34,119L-35,119L-36,118L-39,117L-41,117L-42,118L-43,120L-43,121L-43,123L-45,122L-46,122L-47,122L-47,120L-50,120L-50,119L-52,117L-52,116L-52,114L-50,114L-49,113L-46,113L-43,113L-43,111L-42,109L-42,103L-38,101L-30,96L-21,91L-17,92L-16,93Z" fill="#E0E0E0" stroke="#fff" stroke-width=".4"/><path d="M-46,137L-46,133L-46,131L-45,130L-44,129L-43,127L-43,127L-43,126L-44,124L-43,123L-43,121L-43,120L-42,118L-41,117L-39,117L-36,118L-35,119L-34,119L-32,119L-29,120L-28,120L-26,119L-25,119L-24,118L-23,119L-21,119L-19,118L-18,118L-16,121L-16,121L-15,122L-15,122L-15,123L-17,125L-18,127L-18,128L-19,129L-20,131L-21,132L-21,133L-22,134L-22,135L-24,136L-25,135L-26,135L-28,137L-29,137L-30,139L-31,141L-33,142L-34,142L-35,143L-37,143L-39,141L-40,139L-42,137L-44,137Z" fill="#E0E0E0" stroke="#fff" stroke-width=".4"/><path d="M-15,120L-14,122L-14,123L-14,125L-12,128L-14,128L-15,128L-16,127L-16,129L-15,130L-14,131L-13,132L-13,134L-13,134L-14,137L-15,137L-15,140L-15,141L-15,141L-14,143L-14,144L-13,145L-11,146L-11,147L-11,148L-11,149L-13,149L-15,148L-19,148L-19,148L-21,148L-22,148L-23,148L-28,148L-27,146L-28,144L-29,144L-30,142L-31,142L-31,141L-30,139L-29,137L-28,137L-26,135L-25,135L-24,136L-22,135L-22,134L-21,133L-21,132L-20,131L-19,129L-18,128L-18,127L-17,125L-15,123L-15,122L-15,122L-16,121L-16,120Z" fill="#E0E0E0" stroke="#fff" stroke-width=".4"/><path d="M-51,125L-51,126L-50,127L-49,128L-49,129L-49,130L-49,136L-48,138L-50,138L-51,137L-51,136L-52,134L-51,132L-52,131L-52,129L-52,127L-53,126L-53,125Z" fill="#E0E0E0" stroke="#fff" stroke-width=".4"/><path d="M-53,125L-53,126L-52,127L-52,129L-52,131L-51,132L-52,134L-51,136L-51,137L-50,138L-54,140L-56,141L-58,141L-60,141L-60,140L-61,137L-61,134L-60,132L-60,128L-61,126L-61,125L-56,125L-55,125L-54,125Z" fill="#E0E0E0" stroke="#fff" stroke-width=".4"/><path d="M-74,127L-74,127L-73,127L-71,127L-70,126L-70,126L-69,126L-69,127L-68,127L-67,126L-66,127L-65,128L-64,129L-63,128L-62,128L-60,128L-60,132L-61,134L-61,137L-60,140L-60,141L-62,141L-63,140L-65,140L-68,141L-70,141L-73,142L-73,142L-73,140L-73,140L-73,139L-74,138L-75,138L-75,137L-75,136L-75,134L-75,134L-75,134L-74,132L-75,132L-74,132L-73,131L-74,129L-75,128L-74,127Z" fill="#E0E0E0" stroke="#fff" stroke-width=".4"/><path d="M-89,121L-88,121L-86,121L-85,121L-85,121L-83,121L-83,121L-83,122L-82,122L-82,122L-81,122L-81,122L-80,123L-79,122L-78,122L-77,121L-77,121L-76,122L-76,123L-75,124L-75,124L-75,125L-75,125L-75,125L-75,126L-74,127L-74,127L-75,128L-74,129L-73,131L-74,132L-75,132L-74,132L-75,134L-75,134L-76,134L-76,135L-77,135L-78,134L-77,133L-78,131L-79,132L-80,132L-80,132L-80,131L-81,130L-81,129L-81,128L-82,127L-84,127L-85,128L-85,128L-86,128L-86,129L-88,130L-89,129L-90,128L-90,127L-91,127L-91,126L-92,125L-93,125L-91,123L-91,123L-90,123L-89,123L-89,123L-89,122L-89,121Z" fill="#E0E0E0" stroke="#fff" stroke-width=".4"/><path d="M-97,121L-95,121L-94,121L-94,120L-89,121L-89,121L-89,122L-89,123L-89,123L-90,123L-91,123L-91,123L-93,125L-94,124L-95,123L-96,123L-96,122L-96,122Z" fill="#E0E0E0" stroke="#fff" stroke-width=".4"/><path d="M-75,134L-75,134L-75,136L-75,137L-75,138L-74,138L-73,139L-73,140L-73,140L-73,142L-74,142L-76,141L-79,139L-81,138L-83,136L-82,135L-82,134L-81,133L-80,132L-79,132L-78,131L-77,133L-78,134L-77,135L-76,135L-76,134Z" fill="#E0E0E0" stroke="#fff" stroke-width=".4"/><path d="M-88,130L-86,129L-86,128L-85,128L-85,128L-84,127L-82,127L-81,128L-81,129L-81,130L-80,131L-80,132L-80,132L-81,133L-82,134L-82,135L-83,136L-84,136L-85,135L-87,133L-87,132Z" fill="#E0E0E0" stroke="#fff" stroke-width=".4"/><path d="M-67,126L-67,125L-67,124L-67,123L-65,121L-64,119L-63,118L-62,119L-61,118L-61,117L-59,116L-58,115L-56,114L-54,114L-54,114L-52,114L-52,116L-52,117L-50,119L-50,120L-47,120L-47,122L-48,123L-49,123L-50,125L-51,125L-53,125L-54,125L-55,125L-56,125L-61,125L-61,126L-60,128L-62,128L-63,128L-64,129L-65,128L-66,127Z" fill="#E0E0E0" stroke="#fff" stroke-width=".4"/><path d="M19,140L18,140L16,140L14,140L13,140L13,141L12,141L11,140L8,142L7,141L7,142L6,143L4,143L2,142L0,141L-2,141L-3,141L-4,143L-5,145L-6,144L-8,144L-10,145L-11,148L-11,147L-11,146L-13,145L-14,144L-14,143L-15,141L-15,141L-15,140L-15,137L-14,137L-13,134L-11,134L-10,133L-10,133L-9,134L-6,133L-5,132L-3,131L-4,130L-3,130L-0,130L2,129L4,126L5,125L7,124L7,126L9,127L9,128L8,129L9,130L9,131L11,132L13,133L13,134L15,135L16,137L16,138L18,139Z" fill="#E0E0E0" stroke="#fff" stroke-width=".4"/><path d="M-5,145L-5,146L-6,148L-6,149L-6,152L-6,153L-7,154L-7,155L-7,156L-9,157L-10,158L-11,161L-11,163L-12,164L-13,165L-15,167L-16,166L-16,166L-17,166L-18,167L-19,166L-20,165L-21,166L-22,167L-24,164L-22,163L-23,161L-22,160L-20,160L-20,159L-19,160L-16,160L-15,159L-15,157L-15,155L-17,154L-16,151L-16,150L-18,150L-19,149L-19,148L-15,148L-13,149L-11,149L-11,148L-10,145L-8,144L-6,144Z" fill="#E0E0E0" stroke="#fff" stroke-width=".4"/><path d="M-23,148L-22,148L-21,148L-19,148L-19,148L-19,149L-18,150L-16,150L-16,151L-17,154L-15,155L-15,157L-15,159L-16,160L-19,160L-20,159L-20,160L-22,160L-23,161L-22,163L-24,164L-27,162L-28,159L-30,157L-30,156L-29,155L-29,153L-28,151L-27,151L-23,151Z" fill="#E0E0E0" stroke="#fff" stroke-width=".4"/><path d="M-28,148L-23,148L-23,151L-27,151L-28,151L-29,151Z" fill="#E0E0E0" stroke="#fff" stroke-width=".4"/><path d="M28,176L29,176L30,177L31,177L33,178L34,179L35,182L34,182L34,184L34,187L33,188L33,190L34,191L26,193L26,195L24,195L23,196L23,197L22,198L19,200L18,202L17,202L16,201L13,201L13,201L13,201L12,200L10,200L8,200L6,199L4,196L5,188L10,188L10,187L10,186L10,185L10,183L10,183L11,183L11,183L12,183L14,184L15,185L17,185L18,184L19,186L21,186L22,187L23,189L25,189L25,186L24,186L22,185L21,185L22,182L22,179L22,178L22,176L23,176L27,175Z" fill="#E0E0E0" stroke="#fff" stroke-width=".4"/><path d="M33,178L35,179L36,179L37,181L38,184L37,186L38,190L38,190L39,191L41,192L41,196L40,197L39,198L37,197L37,195L37,194L37,192L36,192L36,192L34,191L33,190L33,188L34,187L34,184L34,182L35,182L34,179Z" fill="#E0E0E0" stroke="#fff" stroke-width=".4"/><path d="M38,184L40,184L43,185L43,184L45,184L46,183L48,184L51,182L53,181L53,182L53,185L53,187L53,191L54,193L53,195L52,197L50,198L48,199L45,201L42,204L41,204L39,206L38,207L38,209L39,211L40,212L40,213L40,213L40,216L40,217L40,218L40,219L39,220L37,221L34,222L32,224L33,225L33,225L33,226L31,226L31,225L30,224L30,223L31,220L30,218L29,214L32,210L32,208L33,208L33,206L32,206L33,204L33,202L33,198L32,197L30,197L30,196L29,196L27,196L26,195L26,193L34,191L36,192L36,192L37,192L37,194L37,195L37,197L39,198L40,197L41,196L41,192L39,191L38,190L38,190L37,186Z" fill="#E0E0E0" stroke="#fff" stroke-width=".4"/><path d="M31,226L31,228L29,228L27,227L27,225L28,224L28,224L29,223L30,224L31,225Z" fill="#E0E0E0" stroke="#fff" stroke-width=".4"/><path d="M-19,166L-20,167L-20,168L-20,169L-21,169L-22,167L-21,166L-20,165ZM-21,170L-20,169L-19,169L-18,169L-10,169L-10,171L-9,173L-8,174L-7,175L-5,175L-5,174L-3,175L-3,174L-2,173L-0,172L-0,172L1,172L1,173L4,173L4,175L5,176L4,177L4,179L5,180L5,183L6,183L7,183L8,182L10,183L10,183L10,185L10,186L10,187L10,188L5,188L4,196L6,199L8,200L3,202L-3,201L-5,200L-16,200L-16,200L-18,199L-19,199L-21,199L-22,200L-22,198L-22,196L-21,193L-21,192L-20,190L-20,188L-18,187L-17,186L-17,184L-17,182L-18,181L-19,179L-19,178L-19,177L-18,176L-19,174L-20,172L-21,170Z" fill="#E0E0E0" stroke="#fff" stroke-width=".4"/><path d="M27,160L27,161L28,162L28,163L27,163L26,165L25,165L24,166L24,162L23,161L25,161L25,160Z" fill="#E0E0E0" stroke="#fff" stroke-width=".4"/><path d="M41,63L40,64L39,64L39,66L39,66L39,66L39,67L40,67L40,68L39,73L38,72L37,68L38,67L37,67L38,65L39,63L39,62L39,62L40,62L40,61L41,61L41,63L41,63Z" fill="#E0E0E0" stroke="#fff" stroke-width=".4"/><path d="M41,61L40,61L40,62L39,62L40,59L41,57L41,57L43,57L43,58L42,60Z" fill="#E0E0E0" stroke="#fff" stroke-width=".4"/><path d="M77,187L77,188L78,190L79,193L79,194L79,195L79,196L78,195L77,195L78,197L77,199L77,199L77,202L75,205L74,209L73,214L72,218L70,221L68,222L66,223L64,222L62,221L62,220L61,217L61,215L60,213L61,211L62,211L62,210L63,207L63,206L63,204L62,203L62,200L63,199L63,197L65,197L66,196L67,196L68,196L70,194L72,192L73,191L72,190L74,190L75,188L75,187L76,186Z" fill="#E0E0E0" stroke="#fff" stroke-width=".4"/><path d="M40,67L39,67L39,66L39,66L39,66L39,64L40,64L40,66Z" fill="#E0E0E0" stroke="#fff" stroke-width=".4"/><path d="M-97,118L-94,118L-93,117L-92,117L-91,118L-91,118L-90,117L-89,118L-90,119L-91,119L-93,118L-94,119L-94,119L-95,119L-97,119Z" fill="#E0E0E0" stroke="#fff" stroke-width=".4"/><path d="M-28,70L-29,65L-31,64L-31,63L-33,61L-33,59L-32,57L-31,54L-31,51L-31,50L-28,48L-26,49L-26,50L-24,49L-24,50L-25,51L-25,53L-24,54L-25,56L-26,58L-26,60L-24,60L-24,61L-23,62L-23,64L-24,65L-25,66L-27,67L-27,68L-27,70Z" fill="#E0E0E0" stroke="#fff" stroke-width=".4"/><path d="M-76,79L-76,79L-76,78L-76,75L-71,73L-69,72L-67,71L-66,70L-63,69L-62,66L-61,66L-60,65L-56,64L-56,63L-57,63L-57,59L-58,57L-59,55L-56,54L-53,53L-52,52L-49,51L-45,50L-40,50L-39,50L-37,49L-34,49L-33,50L-31,50L-31,51L-31,54L-32,57L-33,59L-33,61L-31,63L-31,64L-29,65L-28,70L-27,73L-27,75L-28,77L-27,78L-28,80L-27,82L-29,83L-27,85L-27,86L-26,88L-25,87L-23,89L-21,91L-30,96L-38,101L-42,103L-45,103L-45,101L-46,101L-48,100L-48,99L-57,92L-66,86Z" fill="#E0E0E0" stroke="#fff" stroke-width=".4"/><path d="M40,64L41,63L44,64L49,61L50,65L49,65L44,67L47,70L46,70L45,71L43,72L43,73L42,74L39,73L39,73L40,68L40,67L40,66Z" fill="#E0E0E0" stroke="#fff" stroke-width=".4"/><path d="M82,88L83,88L83,89L85,89L87,89L88,89L90,87L92,85L94,83L94,84L95,86L93,86L93,88L94,89L92,89L92,90L92,92L92,93L91,93L83,92L82,89Z" fill="#E0E0E0" stroke="#fff" stroke-width=".4"/><path d="M80,87L80,85L81,83L81,83L82,84L82,86L82,87L81,87Z" fill="#E0E0E0" stroke="#fff" stroke-width=".4"/><path d="M73,71L73,73L73,73L74,76L72,76L71,74L69,74L71,71Z" fill="#E0E0E0" stroke="#fff" stroke-width=".4"/><path d="M50,65L49,61L54,58L55,54L55,51L57,51L58,49L59,48L62,49L63,49L64,49L66,53L68,54L68,56L67,57L66,59L68,62L71,64L72,66L72,68L73,68L73,70L74,72L73,71L71,71L69,74L64,74L57,68L53,66Z" fill="#E0E0E0" stroke="#fff" stroke-width=".4"/><path d="M92,93L92,92L92,90L92,89L94,89L93,88L93,86L95,86L96,88L97,89L99,90L101,90L102,92L103,93L104,93L104,94L103,96L102,96L101,97L100,99L99,99L98,100L98,101L98,103L98,103L97,103L95,104L95,106L94,106L93,106L92,107L92,108L91,109L89,109L87,109L86,110L85,108L83,103L91,100L93,95ZM94,84L94,83L95,82L95,82L95,84Z" fill="#E0E0E0" stroke="#fff" stroke-width=".4"/><path d="M385,196L387,198L386,198L385,197ZM384,195L383,195L383,193L385,193L385,196L384,195Z" fill="#E0E0E0" stroke="#fff" stroke-width=".4"/><path d="M216,122L215,118L217,116L220,116L223,116L225,117L226,115L228,116L229,118L229,121L224,123L225,125L222,125L220,126L218,126L217,124Z" fill="#E0E0E0" stroke="#fff" stroke-width=".4"/><path d="M223,116L220,116L217,116L215,118L216,122L213,120L211,120L211,118L209,118L209,121L208,125L207,128L207,130L209,130L210,132L210,134L212,136L213,136L214,137L214,139L212,139L212,138L210,136L209,137L208,136L208,135L206,133L205,132L205,133L204,132L204,130L205,128L206,125L208,122L207,120L207,119L207,117L205,115L204,114L205,113L206,111L205,109L203,107L202,105L203,104L204,101L206,101L208,100L209,99L210,100L210,102L212,102L212,105L212,107L214,106L215,106L217,106L217,105L219,105L221,107L221,110L224,113L223,115Z" fill="#E0E0E0" stroke="#fff" stroke-width=".4"/><path d="M228,116L226,115L225,117L223,116L223,115L224,113L221,110L221,107L219,105L217,105L217,106L215,106L214,106L212,107L212,105L212,102L210,102L210,100L209,99L210,98L212,96L212,97L214,97L213,94L215,93L216,96L217,98L220,98L222,101L220,101L219,102L222,104L224,107L226,110L228,112L229,114Z" fill="#E0E0E0" stroke="#fff" stroke-width=".4"/><path d="M209,99L208,100L206,101L204,101L203,104L202,105L203,107L205,109L206,111L205,113L204,114L205,115L207,117L207,119L207,120L208,122L206,125L205,128L205,126L206,124L205,122L205,119L204,118L203,115L203,111L201,109L200,110L197,112L195,112L194,111L195,108L194,105L192,102L192,101L191,101L189,98L189,96L190,97L190,95L191,94L191,93L191,92L191,89L193,89L195,87L195,86L196,83L196,82L200,80L201,80L201,78L202,78L202,77L203,76L204,78L205,79L206,81L205,84L203,86L203,89L205,89L206,91L208,92L207,94L209,95L210,96L212,95L212,96L210,98Z" fill="#E0E0E0" stroke="#fff" stroke-width=".4"/><path d="M220,126L222,125L225,125L224,123L229,121L229,118L228,116L229,114L228,112L226,110L224,107L222,104L219,102L220,101L222,101L220,98L217,98L216,96L215,93L216,93L218,93L221,92L223,91L224,92L226,92L226,94L227,95L230,96L226,98L224,101L224,103L226,106L228,109L231,111L232,113L233,118L233,123L231,125L228,127L226,129L222,131L221,130L222,128Z" fill="#E0E0E0" stroke="#fff" stroke-width=".4"/><path d="M289,32L289,32L289,32ZM289,31L289,32L288,31L287,33L287,34L287,36L285,37L285,38L284,39L282,39L281,40L281,42L281,42L282,43L283,44L283,45L282,45L280,45L279,47L278,47L277,47L276,46L276,47L275,47L275,47L274,46L274,46L274,44L275,44L275,43L275,41L275,41L274,41L272,40L275,37L277,36L279,33L280,34L283,34L282,32L286,31L287,29Z" fill="#E0E0E0" stroke="#fff" stroke-width=".4"/><path d="M277,47L278,47L279,47L280,45L282,45L283,45L283,44L285,48L286,50L286,54L285,56L283,56L281,58L278,58L278,56L278,54L277,50L279,50Z" fill="#E0E0E0" stroke="#fff" stroke-width=".4"/><path d="M177,5L180,4L185,1L189,-1L191,0L194,0L195,2L198,2L202,3L204,0L203,-2L206,-6L209,-5L211,-4L214,-3L215,0L219,2L221,1L224,1L227,1L229,3L231,5L234,5L237,6L239,5L243,4L246,1L248,2L249,3L253,3L251,6L249,10L250,11L252,11L254,11L256,10L258,11L261,14L260,15L258,15L254,15L253,16L251,19L247,20L244,22L241,22L240,21L239,24L239,25L240,26L238,27L236,29L233,31L229,31L225,32L222,34L221,33L218,33L214,31L211,30L208,31L202,30L199,30L198,28L197,24L195,24L192,22L188,21L185,21L184,19L185,14L183,11L180,10L178,8Z" fill="#E0E0E0" stroke="#fff" stroke-width=".4"/><path d="M202,77L202,78L201,78L201,80L200,80L196,82L196,83L195,86L195,87L193,89L191,89L191,92L191,93L191,94L190,95L188,90L188,90L187,92L186,90L187,89L188,89L189,86L187,86L185,86L182,85L182,83L181,83L179,82L178,84L180,85L178,87L178,88L179,88L179,90L180,92L180,95L180,96L178,96L175,96L175,98L174,100L170,102L167,105L165,107L162,109L162,110L161,111L159,111L157,112L157,114L157,117L157,119L156,122L156,127L155,127L154,129L154,130L152,130L151,132L150,133L148,130L146,127L145,124L144,123L143,120L142,117L142,115L140,111L139,106L138,103L138,99L137,97L133,98L132,98L128,94L129,93L129,92L126,90L127,88L133,88L133,86L131,84L131,82L129,81L132,77L135,78L138,75L139,71L142,68L142,66L144,64L142,63L141,61L140,58L141,57L145,57L148,57L151,54L154,58L153,61L154,62L154,64L152,63L153,67L156,69L159,71L158,72L157,75L159,76L162,78L165,79L169,80L170,81L172,81L175,82L178,82L178,81L178,79L178,78L179,77L180,79L180,80L182,81L184,81L186,81L188,81L188,79L187,78L189,78L192,75L195,74L197,74L199,73L200,75L199,76Z" fill="#E0E0E0" stroke="#fff" stroke-width=".4"/><path d="M190,95L190,97L189,96L189,98L188,97L188,96L188,94L186,93L184,92L184,94L183,95L182,95L182,95L181,95L180,95L180,92L179,90L179,88L178,88L178,87L180,85L178,84L179,82L181,83L182,83L182,85L185,86L187,86L189,86L188,89L187,89L186,90L187,92L188,90L188,90Z" fill="#E0E0E0" stroke="#fff" stroke-width=".4"/><path d="M187,78L188,79L188,81L186,81L184,81L182,81L180,80L180,79L181,77L183,77L185,77L186,77Z" fill="#E0E0E0" stroke="#fff" stroke-width=".4"/><path d="M178,78L178,79L178,81L178,82L175,82L172,81L170,81L169,80L165,79L162,78L159,76L157,75L158,72L159,71L161,70L163,71L165,73L167,73L168,75L170,75L172,77L175,77Z" fill="#E0E0E0" stroke="#fff" stroke-width=".4"/><path d="M151,54L148,57L145,57L141,57L140,58L141,61L142,63L144,64L142,66L142,68L139,71L138,75L135,78L132,77L129,81L131,82L131,84L133,86L133,88L127,88L126,90L124,89L123,87L121,85L116,85L112,86L108,86L109,83L113,81L113,80L111,79L111,77L109,75L108,73L106,72L111,73L113,73L115,73L116,73L117,73L121,72L121,69L122,67L124,67L125,67L127,66L128,66L129,66L128,64L130,62L131,61L130,59L133,59L133,58L133,57L135,55L134,54L134,52L135,51L138,50L141,50L142,49L144,49L146,50L147,53Z" fill="#E0E0E0" stroke="#fff" stroke-width=".4"/><path d="M121,48L123,48L125,49L125,49L127,48L128,49L129,47L131,47L131,47L131,46L132,44L134,45L134,46L134,46L134,49L135,50L136,50L137,49L139,48L141,48L143,48L144,49L142,49L141,50L138,50L135,51L134,52L134,54L135,55L133,57L133,58L133,59L130,59L131,61L130,62L128,64L129,66L128,66L127,66L125,67L124,67L122,67L121,69L121,72L117,73L116,73L115,73L113,73L111,73L106,72L109,69L109,67L107,67L106,65L106,62L107,61L106,60L106,58L107,54L110,55L112,55L113,53L115,53L116,52L117,49L119,48L119,47L120,48Z" fill="#E0E0E0" stroke="#fff" stroke-width=".4"/><path d="M125,49L126,46L126,43L124,42L124,41L127,41L128,39L129,37L132,36L132,38L132,39L133,39L132,40L129,39L129,41L132,41L135,42L140,41L141,44L141,44L143,45L143,46L143,48L141,48L139,48L137,49L136,50L135,50L134,49L134,46L134,46L134,45L132,44L131,46L131,47L131,47L129,47L128,49L127,48L125,49Z" fill="#E0E0E0" stroke="#fff" stroke-width=".4"/><path d="M133,31L133,30L135,29L139,31L140,29L141,28L145,29L146,29L150,29L154,29L156,31L157,31L157,32L153,34L152,35L148,36L147,38L145,37L143,38L140,40L141,41L140,41L135,42L132,41L129,41L129,39L132,40L133,39L135,39L138,36L135,35L133,35L131,34L134,32Z" fill="#E0E0E0" stroke="#fff" stroke-width=".4"/><path d="M85,33L86,32L89,31L90,32L92,35L94,35L97,35L96,33L98,32L101,30L104,32L104,34L105,35L108,35L109,36L110,39L113,42L115,43L118,45L121,46L121,48L120,48L119,47L119,48L117,49L116,52L115,53L113,53L112,55L110,55L107,54L107,51L105,51L102,48L100,48L97,46L95,46L94,46L92,46L91,48L88,49L88,46L88,43L86,42L87,39L85,39L86,36L88,37L90,36L88,34L88,32L86,33L85,35Z" fill="#E0E0E0" stroke="#fff" stroke-width=".4"/><path d="M74,72L73,70L73,68L72,68L72,66L71,64L68,62L66,59L67,57L68,56L68,54L66,53L64,49L63,46L63,45L63,41L64,40L65,42L66,43L68,44L69,44L72,41L73,41L74,42L73,43L74,45L75,45L76,47L78,48L80,50L84,50L88,50L88,49L91,48L92,46L94,46L95,46L97,46L100,48L102,48L105,51L107,51L107,54L106,58L106,60L107,61L106,62L106,65L107,67L109,67L109,69L106,72L108,73L109,75L111,77L111,79L113,80L113,81L109,83L108,86L103,85L100,84L97,84L96,80L95,80L93,80L90,82L87,81L84,79L82,78L80,75L78,71L77,71L75,70Z" fill="#E0E0E0" stroke="#fff" stroke-width=".4"/><path d="M41,63L41,63L41,63L41,61L42,60L43,58L43,57L41,57L41,55L42,53L42,53L43,52L43,50L44,51L47,50L48,50L51,50L54,49L55,49L58,49L57,51L55,51L55,54L54,58L49,61L44,64Z" fill="#E0E0E0" stroke="#fff" stroke-width=".4"/><path d="M69,44L68,44L67,42L67,41L66,41L65,40L64,40L63,39L61,38L62,37L61,36L65,35L65,36L66,37L66,37L67,39L66,40L68,41L69,41Z" fill="#E0E0E0" stroke="#fff" stroke-width=".4"/><path d="M-24,-38L-23,-41L-21,-44L-20,-51L-22,-53L-22,-61L-20,-66L-17,-66L-16,-69L-17,-71L-13,-80L-11,-87L-9,-92L-7,-92L-6,-96L-1,-95L-0,-100L1,-100L5,-96L9,-91L9,-81L10,-79L5,-77L3,-72L3,-69L-1,-64L-6,-59L-8,-51L-6,-47L-4,-44L-6,-38L-9,-37L-10,-29L-11,-24L-15,-25L-16,-21L-19,-21L-20,-25L-22,-31Z" fill="#E0E0E0" stroke="#fff" stroke-width=".4"/><path d="M21,-25L24,-24L24,-22L25,-23L28,-22L28,-20L28,-18L29,-16L30,-15L30,-14L32,-13L33,-12L32,-11L30,-11L29,-11L30,-9L30,-7L28,-6L27,-5L27,-3L26,-4L24,-3L23,-4L22,-4L21,-4L19,-4L16,-5L13,-6L11,-6L10,-5L9,-4L9,-6L8,-8L9,-9L9,-11L9,-12L9,-14L11,-14L14,-16L15,-19L17,-20L16,-22L18,-23Z" fill="#E0E0E0" stroke="#fff" stroke-width=".4"/><path d="M30,-7L31,-6L32,-7L33,-7L35,-8L37,-5L36,-4L37,-3L39,-3L40,-1L40,-0L43,1L45,1L47,3L48,2L52,4L52,5L51,7L52,9L51,11L49,11L47,12L47,14L45,14L43,15L41,15L39,17L39,19L38,19L38,18L37,18L35,17L35,18L34,18L30,17L30,15L28,16L27,18L25,21L23,20L22,20L21,20L22,19L22,18L23,17L23,16L23,16L23,16L25,17L26,16L25,16L25,15L24,14L24,13L23,12L23,11L22,10L21,10L19,8L17,9L17,9L16,9L15,10L13,11L12,11L11,10L9,10L8,10L7,11L6,10L5,9L5,7L6,6L7,6L6,4L8,1L10,0L10,-1L9,-4L10,-5L11,-6L13,-6L16,-5L19,-4L21,-4L22,-4L23,-4L24,-3L26,-4L27,-3L27,-5L28,-6Z" fill="#E0E0E0" stroke="#fff" stroke-width=".4"/><path d="M9,-14L9,-12L9,-11L9,-9L8,-8L9,-6L9,-4L10,-1L10,0L8,1L6,4L7,6L6,6L4,4L2,5L1,4L-1,5L-2,4L-3,4L-4,4L-5,2L-7,2L-7,1L-9,0L-9,1L-11,0L-10,-1L-12,-1L-14,-2L-15,-5L-14,-7L-15,-9L-16,-10L-15,-12L-16,-14L-14,-15L-10,-17L-7,-19L-4,-18L-4,-17L-1,-17L2,-16L7,-16L8,-16Z" fill="#E0E0E0" stroke="#fff" stroke-width=".4"/><path d="M-8,10L-9,11L-10,11L-10,12L-10,15L-11,15L-13,15L-15,16L-17,16L-21,15L-21,14L-24,14L-24,15L-26,14L-27,14L-28,14L-28,13L-28,12L-27,12L-26,13L-25,12L-23,12L-21,11L-20,11L-19,12L-19,12L-19,9L-18,9L-17,7L-15,8L-14,6L-13,6L-11,7L-10,7L-9,8L-9,8Z" fill="#E0E0E0" stroke="#fff" stroke-width=".4"/><path d="M5,9L6,10L7,11L5,11L4,14L2,17L0,17L-2,17L-4,18L-5,19L-7,18L-9,16L-10,16L-10,15L-10,15L-10,12L-10,11L-9,11L-8,10L-7,11L-6,11L-4,11L-4,10L-3,10L-1,9L-1,9L0,9L1,8L2,8L4,9Z" fill="#E0E0E0" stroke="#fff" stroke-width=".4"/><path d="M17,9L17,9L19,8L21,10L22,10L23,11L23,12L24,13L24,14L25,15L25,16L26,16L25,17L23,16L23,16L23,16L23,17L22,18L22,19L21,20L21,18L21,16L21,15L19,12L18,11L18,10Z" fill="#E0E0E0" stroke="#fff" stroke-width=".4"/><path d="M21,20L22,20L23,20L25,21L25,21L23,22L23,22L22,26L20,26L18,25L15,25L14,26L10,26L8,26L7,26L6,24L6,24L7,23L6,23L5,24L4,22L3,21L2,20L1,19L0,17L2,17L4,14L5,11L7,11L8,10L9,10L11,10L12,11L13,11L15,10L16,9L17,9L18,10L18,11L19,12L21,15L21,16L21,18Z" fill="#E0E0E0" stroke="#fff" stroke-width=".4"/><path d="M16,-22L17,-20L15,-19L14,-16L11,-14L9,-14L8,-16L7,-16L6,-17L7,-19L6,-19L3,-20L2,-24L5,-26L10,-25L12,-26L13,-25L14,-24Z" fill="#E0E0E0" stroke="#fff" stroke-width=".4"/><path d="M19,-31L20,-30L20,-28L21,-25L18,-23L16,-22L14,-24L13,-25L12,-26L10,-25L5,-26L2,-24L2,-28L4,-31L6,-32L8,-29L10,-29L11,-33L13,-33L14,-33L16,-31Z" fill="#E0E0E0" stroke="#fff" stroke-width=".4"/><path d="M20,-41L21,-40L19,-37L20,-33L19,-31L16,-31L14,-33L13,-33L11,-33L11,-35L10,-35L8,-37L8,-40L12,-41L15,-42L18,-41Z" fill="#E0E0E0" stroke="#fff" stroke-width=".4"/><path d="M-16,-14L-15,-12L-16,-10L-15,-9L-14,-7L-15,-5L-14,-2L-15,-2L-15,-2L-16,-2L-18,-1L-19,0L-21,1L-20,2L-20,4L-19,5L-17,7L-18,9L-19,9L-19,12L-19,12L-20,11L-21,11L-23,12L-25,12L-26,13L-27,12L-28,12L-31,11L-31,12L-33,12L-33,9L-32,6L-35,5L-37,4L-37,3L-37,2L-37,-1L-37,-6L-36,-6L-35,-7L-34,-11L-35,-13L-34,-13L-32,-14L-32,-13L-30,-15L-30,-17L-31,-19L-29,-19L-27,-19L-27,-18L-24,-16L-24,-15L-22,-16L-20,-17L-17,-15Z" fill="#E0E0E0" stroke="#fff" stroke-width=".4"/><path d="M6,24L7,26L8,26L10,26L14,26L15,25L18,25L20,26L22,26L20,28L20,30L20,32L18,32L15,33L15,35L13,35L11,34L9,35L7,35L7,32L6,31L6,31L6,30L6,29L7,28L6,27L6,25Z" fill="#E0E0E0" stroke="#fff" stroke-width=".4"/><path d="M16,55L16,56L12,56L12,56L9,55L9,54L11,55L13,55L15,55L14,55ZM7,35L9,35L11,34L13,35L15,35L15,33L17,34L16,36L15,37L14,36L12,36L9,37L11,39L10,39L8,39L7,38L6,38L7,41L8,42L7,43L9,44L10,45L10,47L8,46L8,48L7,48L8,51L6,51L4,50L3,47L2,45L1,44L0,42L-0,41L1,39L1,38L2,37L2,36L4,36L5,35L6,35L7,35Z" fill="#E0E0E0" stroke="#fff" stroke-width=".4"/><path d="M64,49L63,49L62,49L59,48L58,49L55,49L54,49L51,50L48,50L47,50L44,51L43,50L43,52L42,53L42,53L41,52L42,51L40,51L38,50L36,52L32,52L30,51L27,50L27,52L25,52L22,50L19,51L18,47L16,45L17,43L16,41L19,38L23,38L24,35L29,36L32,33L35,32L39,32L44,35L47,36L51,36L53,36L56,34L59,34L61,36L62,37L61,38L63,39L64,40L63,41L63,45L63,46ZM15,33L18,32L20,32L21,34L23,35L23,36L19,36L18,37L16,39L15,37L15,37L16,36L17,34Z" fill="#E0E0E0" stroke="#fff" stroke-width=".4"/><path d="M2,36L2,37L1,38L1,39L-0,41L-1,40L-1,40L-2,39L-2,37L-2,34L-2,33L-2,33L-2,32L-1,30L-1,31L-0,30L0,31L1,32L1,33L1,34L1,36Z" fill="#E0E0E0" stroke="#fff" stroke-width=".4"/><path d="M-10,16L-9,16L-7,18L-5,19L-4,18L-3,20L-2,21L-3,22L-4,21L-6,21L-8,21L-10,21L-10,22L-11,21L-12,22L-10,24L-10,25L-9,26L-8,27L-7,29L-4,30L-5,31L-7,29L-9,28L-11,27L-13,24L-13,24L-14,23L-14,21L-16,21L-16,22L-17,21L-17,20L-17,20L-15,20L-15,19L-14,20L-13,20L-13,19L-12,18L-12,17Z" fill="#E0E0E0" stroke="#fff" stroke-width=".4"/><path d="M-28,12L-28,13L-28,14L-27,14L-26,14L-26,16L-27,17L-29,16L-29,18L-31,18L-31,17L-33,19L-34,19L-35,18L-36,16L-37,17L-37,15L-35,13L-35,12L-34,12L-33,12L-31,12L-31,11Z" fill="#E0E0E0" stroke="#fff" stroke-width=".4"/><path d="M-37,2L-37,3L-37,4L-37,4L-38,4L-38,2Z" fill="#E0E0E0" stroke="#fff" stroke-width=".4"/><path d="M-37,-1L-37,2L-38,2L-38,4L-40,2L-42,3L-44,1L-45,-1L-46,-1L-46,-3L-44,-3L-42,-3L-40,-4L-38,-2Z" fill="#E0E0E0" stroke="#fff" stroke-width=".4"/><path d="M-35,-13L-34,-11L-35,-7L-36,-6L-37,-6L-37,-1L-38,-2L-40,-4L-42,-3L-44,-3L-43,-5L-41,-11L-37,-13Z" fill="#E0E0E0" stroke="#fff" stroke-width=".4"/><path d="M-77,33L-76,32L-75,31L-74,33L-72,33L-72,33L-70,33L-70,35L-71,36L-71,38L-71,39L-71,40L-73,41L-71,43L-72,45L-71,46L-72,47L-73,48L-72,49L-73,50L-75,49L-76,50L-76,47L-76,45L-77,45L-78,44L-78,41L-77,40L-76,39L-76,37L-76,35L-76,34Z" fill="#E0E0E0" stroke="#fff" stroke-width=".4"/><path d="M-72,49L-73,48L-72,47L-71,46L-72,45L-71,43L-73,41L-71,40L-71,39L-71,38L-71,36L-70,35L-70,33L-72,33L-72,33L-74,33L-75,31L-76,32L-77,33L-76,30L-78,29L-74,26L-71,27L-67,27L-64,27L-62,27L-58,27L-57,29L-52,30L-51,30L-48,31L-45,31L-45,33L-47,35L-51,36L-51,37L-53,39L-54,42L-53,44L-54,45L-55,47L-57,48L-59,50L-62,51L-64,50L-66,52L-67,53L-68,53L-69,51L-70,50Z" fill="#E0E0E0" stroke="#fff" stroke-width=".4"/><path d="M-69,-14L-69,-11L-71,-7L-75,-5L-79,-5L-77,-10L-78,-14L-75,-18L-73,-20L-72,-18L-73,-15L-71,-15Z" fill="#E0E0E0" stroke="#fff" stroke-width=".4"/><path d="M381,210L383,212L385,213L384,214L382,213L380,212L379,210L377,208L377,208L378,208L379,209L380,209Z" fill="#E0E0E0" stroke="#fff" stroke-width=".4"/><path d="M372,181L372,182L370,182L369,181L371,181ZM370,179L370,180L368,177L367,176L368,176L369,178ZM368,180L367,180L366,180L365,179L365,178L367,179L368,179ZM365,175L366,176L366,176L364,175L362,174L361,173L362,173L363,174ZM358,172L360,173L359,173L358,173L357,172L357,171Z" fill="#E0E0E0" stroke="#fff" stroke-width=".4"/><path d="M410,268L409,270L408,273L406,274L405,273L404,273L406,270L405,268L402,267L402,265L404,264L405,262L404,259L403,257L403,257L402,255L400,252L399,250L400,250L401,252L403,253L404,255L406,259L406,257L407,258L408,260L410,261L412,261L413,260L414,260L414,263L413,265L411,265L410,266L411,268ZM391,281L394,279L395,277L396,274L397,273L398,272L399,270L400,271L401,273L403,271L403,273L403,274L402,276L401,279L399,280L400,282L398,282L396,283L395,286L394,289L392,291L390,292L388,292L386,291L383,291L383,289L384,286L388,283L389,282Z" fill="#E0E0E0" stroke="#fff" stroke-width=".4"/><path d="M334,271L335,271L335,275L335,277L334,279L333,279L332,281L331,281L329,281L328,278L327,275L326,272L326,271L328,271L330,272L332,272ZM277,243L275,245L272,245L272,247L271,248L269,248L267,249L265,248L263,248L261,248L259,250L259,250L257,251L256,252L254,252L252,252L250,250L248,249L248,247L250,247L250,246L250,245L250,243L250,241L249,238L248,236L248,235L247,233L247,232L246,231L246,228L244,226L244,225L245,226L244,223L245,224L246,225L246,224L245,221L245,221L244,220L244,218L245,217L245,216L245,214L246,212L246,214L247,212L249,211L251,210L253,209L254,209L255,209L257,208L258,208L259,207L259,207L261,207L263,206L265,205L266,204L267,202L267,201L267,200L269,197L270,200L271,199L270,198L271,197L272,197L273,195L274,194L275,193L276,192L276,191L277,192L277,191L278,191L280,190L282,192L283,193L285,193L286,193L286,192L287,190L288,189L288,188L289,187L291,186L292,186L294,186L294,184L292,184L294,183L295,184L297,185L299,186L300,185L301,186L303,185L304,186L304,185L306,186L305,188L304,189L303,189L303,190L303,191L302,193L302,194L304,195L306,196L307,197L309,198L310,198L311,199L312,200L314,201L316,200L316,199L317,197L317,196L318,194L318,192L318,192L318,190L318,188L318,187L318,187L319,185L319,184L319,183L320,182L321,183L321,185L322,185L322,186L323,188L323,189L323,190L324,192L326,191L326,192L328,193L327,195L328,197L328,198L329,199L330,201L329,202L330,204L333,206L335,207L337,208L336,209L338,211L339,214L340,213L341,214L342,214L342,217L344,219L345,220L347,222L348,225L348,226L348,228L349,231L349,233L349,235L348,237L348,239L347,241L346,244L344,246L343,248L342,250L342,252L341,254L340,256L340,259L340,260L338,261L335,261L333,262L332,264L330,265L328,263L326,263L327,261L325,262L323,264L321,263L319,263L318,263L315,262L314,260L313,257L312,255L311,254L309,254L310,252L309,250L308,252L305,253L307,251L307,249L308,247L308,245L306,248L304,249L303,251L301,250L301,248L300,246L298,245L299,244L295,242L293,242L291,241L286,241L283,242L280,243Z" fill="#E0E0E0" stroke="#fff" stroke-width=".4"/><path d="M161,134L161,137L160,138L157,138L156,136L156,132L157,128L159,129L160,131Z" fill="#E0E0E0" stroke="#fff" stroke-width=".4"/><path d="M234,105L232,104L231,102L233,101L236,100L237,100L238,101L237,102L236,104ZM157,31L157,29L159,28L156,22L162,20L163,20L165,13L170,14L172,12L172,8L174,8L176,5L177,5L178,8L180,10L183,11L185,14L184,19L185,21L188,21L192,22L195,24L197,24L198,28L199,30L202,30L208,31L211,30L214,31L218,33L221,33L222,34L225,32L229,31L233,31L236,29L238,27L240,26L239,25L239,24L240,21L241,22L244,22L247,20L251,19L253,16L254,15L258,15L260,15L261,14L258,11L256,10L254,11L252,11L250,11L249,10L251,6L253,3L256,4L259,2L259,-0L262,-5L263,-6L263,-8L262,-9L264,-12L267,-12L271,-12L275,-11L277,-10L278,-5L279,-3L280,-1L281,3L286,4L289,7L290,11L294,11L296,9L301,8L299,12L298,13L297,17L296,21L292,20L290,22L291,25L290,29L289,29L289,31L287,29L286,31L282,32L283,34L280,34L279,33L277,36L275,37L272,40L269,41L267,42L264,43L265,42L265,40L267,38L266,36L263,37L260,40L259,42L256,42L255,44L256,46L258,46L258,48L260,49L263,47L266,48L267,48L268,50L264,51L263,52L260,54L259,56L262,58L263,61L264,64L266,66L266,69L265,69L265,71L267,72L266,74L266,77L264,77L262,80L260,84L258,87L254,90L250,93L248,93L246,94L245,93L244,95L240,96L237,96L236,99L235,100L234,98L235,96L231,96L230,96L227,95L226,94L226,92L224,92L223,91L221,92L218,93L216,93L215,93L213,94L214,97L212,97L212,96L212,95L210,96L209,95L207,94L208,92L206,91L205,89L203,89L203,86L205,84L206,81L205,79L204,78L203,76L202,77L199,76L200,75L199,73L197,74L195,74L192,75L189,78L187,78L186,77L185,77L183,77L181,77L180,79L179,77L178,78L175,77L172,77L170,75L168,75L167,73L165,73L163,71L161,70L159,71L156,69L153,67L152,63L154,64L154,62L153,61L154,58L151,54L147,53L146,50L144,49L143,48L143,46L143,45L141,44L141,44L140,41L141,41L140,40L143,38L145,37L147,38L148,36L152,35L153,34L157,32Z" fill="#E0E0E0" stroke="#fff" stroke-width=".4"/><path d="M266,88L264,92L263,95L262,92L262,90L263,87L265,85L266,86Z" fill="#E0E0E0" stroke="#fff" stroke-width=".4"/><path d="M-26,14L-24,15L-24,14L-21,14L-21,15L-17,16L-17,18L-16,19L-19,19L-21,20L-20,22L-21,23L-20,25L-17,27L-16,30L-13,33L-11,33L-11,33L-11,34L-9,35L-7,36L-5,38L-5,39L-5,40L-6,38L-9,38L-10,40L-8,41L-8,43L-9,43L-11,46L-12,46L-12,45L-11,44L-11,43L-12,41L-13,39L-14,39L-14,37L-16,37L-17,35L-19,35L-21,33L-24,31L-25,29L-26,26L-28,25L-30,24L-31,24L-32,26L-33,26L-33,25L-35,24L-35,21L-34,20L-35,19L-35,18L-34,19L-33,19L-31,17L-31,18L-29,18L-29,16L-27,17L-26,16ZM-14,46L-12,45L-13,48L-13,49L-13,51L-15,49L-17,49L-20,47L-20,46L-17,46ZM-30,36L-29,35L-27,38L-28,42L-29,42L-30,43L-31,42L-31,38L-32,36Z" fill="#E0E0E0" stroke="#fff" stroke-width=".4"/><path d="M-27,-19L-29,-19L-31,-19L-32,-22L-32,-27L-31,-28L-31,-29L-28,-30L-27,-31L-25,-32L-25,-30L-26,-28L-26,-27L-24,-26L-25,-24L-26,-25L-28,-22ZM-21,-24L-20,-22L-21,-18L-24,-21L-24,-23Z" fill="#E0E0E0" stroke="#fff" stroke-width=".4"/><path d="M-69,-14L-71,-15L-73,-15L-72,-18L-73,-20L-71,-20L-68,-17ZM-61,-12L-61,-12L-61,-15L-62,-18L-62,-18L-66,-18L-66,-20L-65,-22L-66,-23L-68,-21L-68,-25L-69,-28L-68,-33L-66,-37L-64,-36L-61,-37L-64,-31L-61,-32L-58,-32L-59,-28L-61,-24L-58,-24L-58,-23L-56,-18L-54,-17L-52,-12L-52,-10L-49,-9L-49,-7L-50,-5L-49,-3L-51,-1L-55,-1L-59,0L-61,-1L-62,1L-65,1L-67,2L-68,2L-64,-3L-62,-4L-62,-4L-66,-4L-67,-6L-64,-7L-65,-10L-65,-13Z" fill="#E0E0E0" stroke="#fff" stroke-width=".4"/><path d="M-91,-81L-92,-77L-89,-73L-92,-68L-99,-64L-102,-63L-105,-64L-113,-66L-110,-69L-116,-72L-111,-73L-111,-75L-117,-76L-115,-80L-111,-81L-107,-77L-103,-80L-100,-78L-95,-82Z" fill="#E0E0E0" stroke="#fff" stroke-width=".4"/><path d="M69,33L69,33L71,35L72,35L73,35L74,33L76,35L77,37L78,38L79,38L77,39L76,41L76,43L75,43L75,45L74,45L73,43L74,42L73,41L72,41L69,44L69,41L68,41L66,40L67,39L66,37L66,37L65,36L65,35L65,34L67,35L69,36L69,35L68,33ZM68,44L66,43L65,42L64,40L65,40L66,41L67,41L67,42Z" fill="#E0E0E0" stroke="#fff" stroke-width=".4"/><path d="M52,27L52,27L54,27L58,28L62,30L62,30L64,30L66,31L67,32L69,33L68,33L69,35L69,36L67,35L65,34L65,35L61,36L59,34L56,34L56,33L56,30L54,29L53,28Z" fill="#E0E0E0" stroke="#fff" stroke-width=".4"/><path d="M263,120L262,118L264,118L265,119L265,122ZM268,128L269,127L269,125L270,125L270,127L272,124L272,127L271,128L270,129L269,130L267,128ZM278,132L278,133L278,135L277,137L277,135L275,136L276,138L275,139L272,138L272,136L272,134L271,133L270,134L269,134L267,136L266,135L267,133L269,132L270,131L271,132L273,131L274,130L276,130L275,128L278,129L278,131ZM257,129L254,132L255,130L257,128L259,126L260,124L260,126L259,127ZM267,105L267,106L268,108L267,111L266,112L265,114L266,116L267,116L268,116L272,117L271,119L272,119L272,121L270,119L269,118L268,119L267,117L264,118L263,117L263,116L264,115L263,115L263,116L261,114L261,113L261,110L262,111L262,107L263,104L265,104L266,105L267,105ZM267,124L266,122L268,123L269,123L269,124L268,126L266,126L266,125ZM276,122L276,125L274,124L274,125L275,127L274,127L274,125L273,125L273,123L274,124L274,123L272,121L275,121Z" fill="#E0E0E0" stroke="#fff" stroke-width=".4"/><path d="M209,137L210,136L212,138L212,139L214,139L214,137L215,138L217,139L218,141L218,143L218,144L218,145L218,146L219,147L220,150L220,150L218,151L216,149L213,147L212,145L211,143L210,141L209,140L210,138ZM256,143L253,143L250,143L250,145L249,146L247,150L245,151L243,150L241,150L240,151L238,151L236,152L235,150L234,149L236,149L238,149L239,147L240,146L243,146L245,144L246,142L247,143L248,142L249,142L249,141L249,140L251,138L253,136L254,136L255,137L255,138L257,139L259,140L259,141L257,141L258,142Z" fill="#E0E0E0" stroke="#fff" stroke-width=".4"/><path d="M249,140L249,141L249,142L248,142L247,143L246,142L247,141Z" fill="#E0E0E0" stroke="#fff" stroke-width=".4"/><path d="M-17,16L-15,16L-13,15L-11,15L-10,15L-10,15L-10,16L-12,17L-12,18L-13,19L-13,20L-14,20L-15,19L-15,20L-17,20L-16,19L-17,18Z" fill="#E0E0E0" stroke="#fff" stroke-width=".4"/><path d="M22,-100L22,-94L26,-90L23,-85L26,-77L24,-72L27,-67L26,-63L30,-59L29,-57L26,-53L21,-46L16,-46L11,-44L7,-43L5,-46L3,-48L3,-53L2,-58L3,-61L6,-65L12,-72L14,-73L13,-76L10,-79L9,-81L9,-91L5,-96L1,-100L3,-102L6,-98L9,-98L12,-96L14,-100L16,-105L20,-108L23,-105Z" fill="#E0E0E0" stroke="#fff" stroke-width=".4"/><path d="M6,6L5,7L5,9L4,9L2,8L1,8L0,9L-1,9L-1,9L-3,10L-4,10L-4,11L-6,11L-7,11L-8,10L-9,8L-9,8L-8,7L-7,7L-6,7L-6,6L-6,6L-5,5L-5,5L-4,4L-4,4L-3,4L-2,4L-1,5L1,4L2,5L4,4Z" fill="#E0E0E0" stroke="#fff" stroke-width=".4"/><path d="M-14,-2L-12,-1L-10,-1L-11,0L-9,1L-9,0L-7,1L-7,2L-5,2L-4,4L-4,4L-5,5L-5,5L-6,6L-6,6L-6,7L-7,7L-8,7L-9,8L-10,7L-11,7L-13,6L-14,6L-15,8L-17,7L-19,5L-20,4L-20,2L-21,1L-19,0L-18,-1L-16,-2L-15,-2L-15,-2Z" fill="#E0E0E0" stroke="#fff" stroke-width=".4"/><path d="M42,116L42,115L43,111L44,109L44,108L46,107L48,106L49,109L50,112L51,113L55,115L56,117L58,119L59,119L60,120L59,121L58,121L57,120L56,118L55,117L54,116L52,115L50,115L49,115L48,115L46,114L46,116Z" fill="#E0E0E0" stroke="#fff" stroke-width=".4"/><path d="M319,42L316,46L316,49L315,52L316,53L314,55L311,57L306,57L303,61L301,60L301,57L296,58L293,59L290,59L293,62L291,67L289,68L288,67L289,64L287,63L286,61L288,60L290,58L292,57L294,54L299,54L302,54L305,48L307,50L311,47L312,45L314,41L313,37L314,35L317,35L319,39ZM326,25L328,24L328,28L324,29L322,32L318,30L316,34L313,34L313,30L314,28L317,27L318,22L319,20L322,23L324,25ZM294,61L295,59L297,59L298,58L300,59L300,60L298,62L297,61L296,61L295,63L294,62Z" fill="#E0E0E0" stroke="#fff" stroke-width=".4"/><path d="M-205,208L-204,209L-205,213L-202,214L-201,213L-199,214L-199,215L-198,217L-198,218L-197,219L-196,218L-195,219L-195,220L-195,222L-196,224L-196,226L-199,228L-201,229L-204,228L-206,228L-204,223L-204,222L-207,221L-210,219L-212,218L-217,214L-216,210L-216,209L-215,206L-210,205L-208,205L-205,207Z" fill="#E0E0E0" stroke="#fff" stroke-width=".4"/><path d="M83,103L85,108L86,110L84,110L84,112L84,112L81,114L77,115L75,117L73,117L73,117L71,118L69,118L67,119L67,119L66,119L65,120L65,120L64,120L63,121L61,120L60,119L60,117L60,117L59,115L59,113L59,113L59,112L59,112L59,110L60,110L60,108L61,107L62,108L62,107L65,107L66,108L68,108L69,108L70,109L71,108L73,105L76,104Z" fill="#E0E0E0" stroke="#fff" stroke-width=".4"/><path d="M39,73L42,74L43,73L43,72L45,71L46,70L47,70L44,67L49,65L50,65L53,66L57,68L64,74L69,74L71,74L72,76L74,76L75,78L76,79L77,80L78,81L79,82L78,83L79,84L79,85L80,86L80,87L81,87L82,87L82,88L82,89L83,92L91,93L92,93L93,95L91,100L83,103L76,104L73,105L71,108L70,109L69,108L68,108L66,108L65,107L62,107L62,108L61,107L60,108L60,110L59,110L59,109L58,108L58,107L56,106L55,104L54,102L52,100L51,99L50,97L49,95L49,93L48,90L47,89L45,88L44,87L44,86L44,84L43,84L42,82L40,79L39,77L38,77L38,76L38,75Z" fill="#E0E0E0" stroke="#fff" stroke-width=".4"/><path d="M-180,492L-179,492L-175,490L-171,492L-168,498L-167,506L-166,512L-166,520L-170,524L-175,528L-180,532L-185,536L-191,535L-195,529L-194,523L-189,518L-186,514L-185,507L-184,502L-182,498ZM-226,523L-221,524L-215,525L-213,519L-212,514L-209,520L-210,528L-210,535L-216,533L-222,534L-225,528L-225,528ZM-246,424L-245,423L-242,423L-241,419L-241,416L-241,410L-239,407L-237,406L-235,408L-235,411L-234,415L-233,418L-232,422L-232,425L-232,429L-233,432L-236,433L-239,435L-242,434L-241,431L-244,432L-247,433L-249,431L-249,427ZM-321,429L-319,428L-316,429L-312,430L-309,431L-306,430L-305,435L-307,434L-310,434L-313,434L-317,435L-319,433ZM-374,445L-373,442L-370,443L-367,445L-364,443L-365,447L-368,449L-371,448ZM-386,443L-384,441L-382,443L-378,447L-379,447L-383,446ZM-482,499L-480,495L-475,497L-472,501L-470,506L-470,512L-475,514L-478,509L-480,504L-480,503ZM-428,625L-428,625L-427,611L-437,610L-446,604L-448,594L-455,588L-455,578L-454,569L-453,562L-453,554L-457,549L-459,542L-464,537L-457,538L-451,535L-447,541L-443,536L-438,530L-436,524L-437,518L-441,514L-444,510L-450,509L-454,507L-460,506L-461,501L-465,497L-467,492L-468,478L-466,479L-464,483L-460,482L-455,480L-453,486L-449,484L-446,482L-442,479L-439,475L-435,474L-436,470L-436,466L-436,462L-432,460L-431,463L-427,461L-424,459L-420,459L-416,458L-413,455L-410,453L-407,451L-405,452L-403,452L-399,451L-396,453L-392,453L-389,451L-385,452L-381,453L-378,453L-374,453L-370,453L-366,453L-364,450L-360,448L-357,450L-354,449L-351,445L-350,448L-349,452L-347,455L-344,452L-341,456L-338,457L-335,460L-331,459L-327,457L-324,458L-320,459L-316,461L-315,457L-317,453L-318,450L-321,449L-323,446L-323,442L-324,436L-322,437L-319,437L-316,437L-312,438L-310,441L-309,444L-305,445L-302,443L-298,441L-295,440L-292,443L-289,442L-287,435L-284,439L-281,441L-278,440L-276,443L-273,444L-269,445L-266,447L-264,443L-263,440L-261,444L-257,443L-254,445L-252,448L-249,447L-246,445L-244,443L-240,441L-237,440L-233,439L-231,437L-229,434L-229,431L-229,427L-230,424L-231,421L-232,418L-232,415L-232,412L-232,409L-231,406L-230,403L-229,401L-230,398L-230,395L-229,392L-228,390L-226,387L-224,385L-222,384L-221,381L-219,379L-218,378L-215,377L-214,375L-212,374L-210,373L-208,372L-206,370L-204,369L-203,371L-204,373L-206,375L-207,376L-209,375L-212,376L-213,377L-215,379L-217,380L-217,383L-217,385L-216,387L-217,389L-220,389L-221,392L-223,394L-224,397L-225,399L-224,402L-223,404L-220,406L-218,408L-217,411L-217,414L-216,417L-215,420L-214,423L-214,430L-213,433L-213,437L-212,440L-212,445L-214,449L-215,452L-219,454L-220,457L-221,461L-225,464L-229,466L-232,468L-236,471L-238,475L-242,476L-247,475L-251,476L-255,476L-254,481L-250,483L-247,486L-246,491L-249,495L-253,493L-257,497L-257,502L-257,507L-254,512L-254,518L-250,523L-245,526L-240,530L-236,535L-231,541L-225,543L-219,548L-214,554L-209,560L-207,570L-205,578L-202,570L-198,564L-193,558L-188,553L-183,548L-177,547L-170,550L-165,554L-163,546L-160,541L-153,541L-148,537L-143,534L-137,531L-132,528L-128,524L-130,519L-131,514L-131,508L-136,509L-141,511L-146,511L-147,506L-147,496L-145,493L-142,490L-137,487L-134,484L-131,480L-129,476L-125,474L-121,472L-120,471L-116,471L-112,470L-108,467L-105,465L-102,462L-99,459L-96,456L-94,453L-93,449L-96,447L-95,443L-93,440L-91,438L-88,436L-85,434L-83,430L-82,426L-80,424L-77,425L-75,427L-72,428L-72,425L-71,421L-68,422L-67,425L-64,426L-61,424L-58,423L-55,424L-54,427L-51,424L-48,423L-45,422L-42,421L-39,419L-36,418L-34,416L-33,413L-31,415L-28,414L-26,418L-25,421L-22,419L-20,416L-18,414L-14,414L-13,417L-11,414L-8,413L-5,413L-2,413L0,414L3,415L4,417L6,420L9,418L12,418L15,418L18,418L21,417L23,416L26,414L28,412L31,412L33,409L34,405L36,403L38,404L40,407L42,408L44,408L46,410L48,412L51,411L52,407L54,406L57,404L60,403L63,401L65,400L67,398L69,397L71,398L74,395L75,393L78,393L80,392L80,389L83,388L85,386L87,385L90,385L92,385L95,386L97,388L97,391L99,393L101,395L104,395L106,397L108,399L110,400L113,398L115,395L117,397L120,398L122,398L125,399L127,399L130,406L129,408L129,412L127,414L125,416L125,420L128,419L128,423L126,426L125,429L127,432L130,432L133,431L134,428L135,425L137,422L138,420L139,417L140,413L142,412L145,412L148,411L150,410L152,407L152,404L154,402L157,400L159,399L160,396L162,395L164,394L166,395L169,394L171,393L174,394L176,392L177,387L178,389L180,392L182,394L184,394L187,393L190,394L192,394L194,393L196,394L198,395L200,394L203,394L205,393L208,394L210,392L211,390L213,388L216,383L218,384L220,386L222,388L225,392L228,392L230,392L233,392L236,391L238,389L240,387L243,387L245,385L247,387L248,389L250,391L253,390L254,392L258,394L261,394L264,394L266,392L267,390L270,389L272,390L275,391L277,390L280,390L282,390L284,391L287,390L289,389L292,389L295,389L298,388L300,387L301,384L301,382L302,383L303,386L304,389L305,391L307,392L310,392L313,392L316,391L319,391L322,391L325,392L328,392L330,394L329,397L331,399L334,400L337,402L340,403L344,405L346,406L349,406L351,403L353,405L355,408L358,409L361,410L364,411L365,414L368,416L370,419L373,420L376,420L379,420L382,420L385,421L388,422L391,424L393,425L395,428L395,431L394,434L392,438L392,441L390,445L387,446L385,450L382,452L381,456L379,459L377,463L376,467L375,471L375,476L375,480L377,485L377,490L378,494L383,496L384,501L380,504L376,507L371,507L368,515L368,522L367,528L365,534L369,540L370,547L372,554L376,560L379,567L383,573L389,580L391,592L398,597L399,599L401,607L408,600L414,608L418,615L418,615L418,625L418,625ZM-524,625L-524,615L-524,615L-524,615L-524,615L-524,615L-522,600L-517,608L-517,607L-514,599L-514,599L-513,599L-509,610L-506,599L-506,598L-498,593L-495,599L-494,602L-490,611L-483,618L-479,625L-524,625Z" fill="#E0E0E0" stroke="#fff" stroke-width=".4"/><path d="M33,55L33,55L33,55L35,55L38,54L36,55L36,56L36,56L35,56L35,56L35,56L35,56L34,55L34,55L33,56Z" fill="#E0E0E0" stroke="#fff" stroke-width=".4"/><path d="M33,55L33,56L34,55L34,55L35,56L35,56L35,56L35,56L36,56L36,56L36,56L33,57L32,57L32,56Z" fill="#E0E0E0" stroke="#fff" stroke-width=".4"/><path d="M-59,55L-58,57L-57,59L-57,63L-56,63L-56,64L-60,65L-61,66L-62,66L-63,69L-66,70L-67,71L-69,72L-71,73L-76,75L-76,78L-76,78L-76,80L-78,80L-78,81L-80,81L-81,80L-83,81L-84,83L-84,83L-86,87L-89,90L-90,94L-91,95L-92,96L-97,96L-97,96L-97,95L-96,94L-95,93L-96,92L-95,90L-93,88L-92,88L-92,86L-92,84L-91,83L-89,81L-87,78L-87,78L-86,77L-84,77L-81,75L-80,74L-78,72L-79,68L-78,65L-77,64L-76,61L-73,60L-71,59L-69,55L-68,53L-67,53L-65,55L-62,55L-60,55Z" fill="#E0E0E0" stroke="#fff" stroke-width=".4"/><path d="M44,95L33,95L23,95L13,95L13,84L13,74L12,71L12,69L12,68L13,67L16,67L19,67L22,68L23,69L25,68L26,67L28,67L30,67L31,69L31,68L33,68L36,68L37,68L38,72L39,73L38,74L37,76L37,78L36,78L35,77L34,76L32,72L32,72L33,75L34,78L36,83L37,84L38,86L41,89L40,90L40,92L43,94Z" fill="#E0E0E0" stroke="#fff" stroke-width=".4"/><path d="M13,95L13,100L10,100L9,102L-1,96L-11,91L-14,92L-16,93L-17,92L-21,91L-23,89L-25,87L-26,88L-27,86L-27,85L-29,83L-27,82L-28,80L-27,78L-28,77L-27,75L-27,73L-28,70L-27,70L-27,68L-27,67L-25,66L-24,65L-23,64L-23,62L-20,63L-19,63L-16,63L-13,64L-12,67L-9,68L-6,69L-3,71L-2,70L-0,68L-1,66L-0,65L2,63L3,63L7,63L8,65L9,65L10,65L12,66L13,67L12,68L12,69L12,71L13,74L13,84Z" fill="#E0E0E0" stroke="#fff" stroke-width=".4"/><path d="M72,133L65,141L61,141L59,143L57,143L57,144L55,144L54,143L51,144L51,145L49,145L48,144L48,144L47,144L44,142L42,142L41,141L41,140L39,139L38,136L37,136L36,135L35,134L33,133L34,132L36,132L36,131L36,129L37,126L38,125L38,124L39,122L41,121L42,118L42,116L46,116L46,114L48,115L49,115L50,115L52,115L54,116L55,117L56,118L57,120L58,121L57,122L56,123L56,124L56,125L58,125L58,125L59,125L59,126L59,127L60,129L61,130L70,133Z" fill="#E0E0E0" stroke="#fff" stroke-width=".4"/><path d="M58,121L59,121L60,120L60,121L60,122L59,123L60,124L59,125L58,125L58,125L56,125L56,124L56,123L57,122Z" fill="#E0E0E0" stroke="#fff" stroke-width=".4"/><path d="M75,124L75,124L75,125L75,128L75,129L74,131L72,133L70,133L61,130L60,129L59,127L59,126L59,125L60,124L61,124L61,125L63,126L64,126L66,126L69,125L72,124L73,124L74,124Z" fill="#E0E0E0" stroke="#fff" stroke-width=".4"/><path d="M36,156L31,156L28,156L27,157L25,158L25,157L25,155L25,154L25,152L26,151L27,150L28,149L29,148L28,148L28,145L29,144L31,144L33,144L34,144L36,143L37,144L38,146L39,149L38,151L37,152L36,154Z" fill="#E0E0E0" stroke="#fff" stroke-width=".4"/><path d="M27,157L28,158L28,160L27,160L25,160L25,161L23,161L23,160L24,160L24,158L25,157L25,158Z" fill="#E0E0E0" stroke="#fff" stroke-width=".4"/><path d="M-4,30L-7,29L-8,27L-9,26L-10,25L-10,24L-12,22L-11,21L-10,22L-10,21L-8,21L-6,21L-4,21L-3,22L-2,22L-3,24L-2,25L-2,27L-3,27L-3,27L-4,28Z" fill="#E0E0E0" stroke="#fff" stroke-width=".4"/><path d="M6,31L7,32L7,35L7,35L6,35L5,35L4,36L2,36L1,36L1,34L1,33L1,33L1,32L3,32L4,32L4,31Z" fill="#E0E0E0" stroke="#fff" stroke-width=".4"/><path d="M-4,18L-2,17L0,17L1,19L2,20L3,21L4,22L5,24L6,23L7,23L6,24L6,24L6,25L6,27L7,28L6,29L6,30L6,31L6,31L4,31L4,32L3,31L4,31L4,30L4,30L3,29L3,29L2,29L2,28L2,28L1,28L1,29L0,30L0,29L-1,28L-2,28L-2,28L-3,27L-2,27L-2,25L-3,24L-2,22L-3,22L-2,21L-3,20Z" fill="#E0E0E0" stroke="#fff" stroke-width=".4"/><path d="M-0,30L-1,31L-1,30L-2,32L-2,33L-3,33L-3,31L-5,31L-4,30L-4,28L-3,27L-3,27L-2,28L-2,28L-1,28L0,29L0,30Z" fill="#E0E0E0" stroke="#fff" stroke-width=".4"/><path d="M1,33L1,32L0,31L-0,30L0,30L1,29L1,28L2,28L2,28L2,29L3,29L3,29L4,30L4,30L4,31L3,31L4,32L3,32L1,32L1,33Z" fill="#E0E0E0" stroke="#fff" stroke-width=".4"/><path d="M28,145L26,143L25,142L23,142L22,142L22,143L20,142L19,140L18,139L16,138L16,137L15,135L13,134L13,133L11,132L10,131L10,131L11,130L12,128L13,127L15,126L15,127L16,129L17,129L18,128L20,129L20,129L23,129L23,129L24,128L25,127L26,127L28,128L29,128L30,126L32,125L32,123L31,122L33,122L33,121L34,122L34,124L34,126L35,127L36,128L36,129L36,129L36,131L36,132L34,132L33,133L35,134L36,135L37,136L38,136L39,139L38,141L36,143L34,144L33,144L31,144L29,144Z" fill="#E0E0E0" stroke="#fff" stroke-width=".4"/></g><g clip-path="url(#v)"><path d="M399.9,145.6L399.8,145.7L399.7,145.7L399.9,145.6L399.9,145.6ZM399.6,145.8L399.4,145.9L399.3,145.9L399.4,145.9L399.6,145.8L399.7,145.7L399.7,145.8ZM400.1,149.0L400.1,149.0L399.9,148.9L399.8,148.8L399.8,148.7L399.9,148.7L399.9,148.8L399.9,148.8ZM400.1,149.3L400.0,149.3L400.1,149.3L400.1,149.2L400.1,149.1L400.1,149.1L400.1,149.1L400.1,149.2ZM400.1,151.1L400.2,151.3L400.2,151.3L400.2,151.4L400.0,151.6L399.9,151.6L400.1,151.4L400.2,151.3L400.1,151.2L400.0,151.2L400.0,151.2L400.0,151.1L400.0,151.1ZM404.0,155.9L403.9,156.0L403.8,155.9L403.9,155.8L403.8,155.5L403.7,155.4L403.6,155.3L403.7,155.3L403.8,155.4L403.9,155.5L403.9,155.7ZM404.6,157.0L404.7,157.1L404.6,157.1L404.6,157.0L404.6,156.9L404.5,156.8L404.6,156.8L404.6,156.9ZM400.1,150.3L400.0,150.3L400.1,150.2L400.4,150.2L400.4,150.2L400.4,150.2L400.4,150.2L400.4,150.2L400.3,150.2L400.2,150.3ZM391.0,156.1L390.9,156.1L390.9,156.1L390.9,156.0L390.9,156.0L391.0,156.0ZM-503.8,165.6L-503.8,165.6L-503.7,165.6L-503.7,165.6L-503.7,165.6L-503.8,165.7L-503.8,165.6L-503.8,165.6L-503.7,165.6L-503.7,165.6L-503.7,165.6L-503.7,165.6L-503.8,165.6ZM-500.8,162.0L-500.8,162.0L-500.8,162.0L-500.8,162.0L-500.8,162.0L-500.8,162.0ZM-501.2,165.5L-501.2,165.5L-501.3,165.5L-501.3,165.5L-501.3,165.5L-501.2,165.4L-501.2,165.4L-501.2,165.5ZM-509.8,166.0L-509.8,166.1L-509.8,166.1L-509.8,166.1L-509.8,166.1L-509.8,166.1L-509.8,166.1L-509.8,166.1L-509.8,166.0L-509.8,166.0L-509.9,166.0L-509.9,166.0L-509.8,166.0ZM-458.6,164.5L-458.6,164.5L-458.6,164.5L-458.7,164.5L-458.7,164.4L-458.7,164.4L-458.7,164.4L-458.6,164.4L-458.6,164.4L-458.6,164.4ZM-450.3,184.0L-450.3,184.0L-450.3,184.0L-450.4,183.9L-450.4,183.9L-450.4,183.8L-450.3,183.8L-450.3,183.9ZM-461.0,168.6L-461.0,168.6L-461.1,168.6L-461.1,168.5L-461.1,168.5L-461.1,168.5L-461.1,168.5L-461.0,168.5L-461.0,168.5ZM-464.8,148.9L-464.4,149.2L-464.6,149.3L-465.0,149.1L-465.5,148.8L-465.3,148.7L-465.3,148.9L-465.1,149.0L-465.0,148.7L-464.9,148.7L-465.2,148.5L-465.1,148.5L-464.8,148.6ZM-470.1,143.5L-469.9,143.7L-469.9,143.8L-470.0,143.8L-470.1,143.8L-470.0,143.8L-470.0,143.7L-470.0,143.7L-470.1,143.6L-470.1,143.6L-470.2,143.7L-470.2,143.6L-470.2,143.6L-470.1,143.5ZM-502.4,161.0L-502.3,161.1L-502.3,161.2L-502.2,161.3L-502.2,161.3L-502.3,161.3L-502.3,161.2L-502.4,161.2L-502.4,161.2L-502.4,161.2L-502.4,161.2L-502.3,161.2L-502.3,161.3L-502.3,161.2L-502.3,161.1L-502.4,161.1L-502.4,161.1L-502.4,161.1L-502.5,161.1L-502.5,161.1L-502.5,161.1L-502.5,161.0L-502.5,161.0Z" fill="#4ECDC4" stroke="#2C3E50" stroke-width="1"/></g><circle cx="400.0" cy="150.0" r="4" fill="#E74C3C" stroke="#fff" stroke-width="2"/><text x="400.0" y="140.0" text-anchor="middle" font-family="sans-serif" font-weight="700" font-size="10" fill="#2D3436">Tarawa</text></svg>