<svg viewBox="0 0 800 300" xmlns="http://www.w3.org/2000/svg"><defs><clipPath id="v"><rect width="800" height="300"/></clipPath></defs><rect width="800" height="300" fill="#DCEEF8"/><g clip-path="url(#v)"><path d="M-253,-606L-241,-598L12,-456L16,-416L117,-346L85,-259L89,-220L133,-194L135,-176L116,-133L120,-112L116,-78L140,-34L169,36L194,52L139,93L63,120L21,119L-4,141L-53,143L-71,151L-155,131L-207,137L-227,40L-251,7L-265,-12L-333,-25L-373,-47L-417,-58L-445,-70L-474,-88L-512,-177L-552,-216L-566,-257L-559,-294L-572,-358L-543,-361L-518,-387L-490,-423L-473,-438L-474,-461L-489,-476L-493,-504L-473,-513L-469,-554L-497,-593L-472,-602L-395,-601Z" fill="#E0E0E0" stroke="#fff" stroke-width=".4"/><path d="M-333,-25L-265,-12L-251,7L-227,40L-207,137L-227,191L-207,285L-183,283L-158,307L-129,359L-123,452L-153,467L-174,518L-220,473L-225,421L-210,388L-214,359L-242,341L-261,347L-301,313L-338,294L-317,227L-295,203L-308,143L-294,86L-282,66L-300,6Z" fill="#E0E0E0" stroke="#fff" stroke-width=".4"/><path d="M-207,137L-155,131L-71,151L-53,143L-4,141L21,119L63,120L139,93L194,52L206,84L203,154L211,217L214,329L227,365L206,416L179,467L134,512L70,539L-8,575L-87,654L-114,667L-163,720L-192,737L-197,790L-164,847L-151,891L-150,913L-137,909L-139,983L-151,1019L-134,1032L-145,1064L-174,1091L-231,1117L-315,1159L-346,1187L-340,1220L-322,1225L-328,1266L-381,1265L-387,1231L-397,1196L-403,1168L-391,1082L-409,1028L-442,921L-369,836L-350,782L-340,776L-332,732L-343,710L-340,655L-327,604L-327,511L-363,488L-396,482L-412,464L-444,449L-502,451L-507,424L-513,372L-301,313L-261,347L-242,341L-214,359L-210,388L-225,421L-220,473L-174,518L-153,467L-123,452L-129,359L-158,307L-183,283L-207,285L-227,191Z" fill="#E0E0E0" stroke="#fff" stroke-width=".4"/><path d="M839,205L857,235L874,283L886,369L904,403L897,438L885,459L861,417L848,438L861,492L855,523L836,540L831,602L804,688L769,790L726,932L699,1038L668,1126L611,1145L550,1177L510,1158L455,1130L435,1089L431,1022L406,961L399,907L412,853L444,840L444,815L478,758L484,711L468,676L455,630L449,562L473,521L483,475L518,472L557,457L582,444L613,443L653,402L710,358L731,321L722,291L751,299L790,249L791,206L814,174Z" fill="#E0E0E0" stroke="#fff" stroke-width=".4"/></g><g clip-path="url(#v)"><path d="M484.9,177.3L488.5,187.0L488.5,194.5L486.9,196.8L483.7,195.4L477.9,189.4L467.1,183.7L472.1,183.2L475.1,183.7L478.2,183.2L480.2,180.0L480.4,178.0L483.2,176.5ZM436.9,193.4L441.7,197.7L428.1,195.9L426.1,192.0L425.9,189.0L430.9,189.6ZM414.3,164.4L413.1,165.4L406.8,161.3L403.0,160.3L397.7,153.7L399.7,131.0L401.5,128.0L402.8,126.7L405.8,126.4L409.3,129.2L408.3,143.9L413.1,153.7L416.1,161.5Z" fill="#4ECDC4" stroke="#2C3E50" stroke-width="1"/></g><circle cx="400.0" cy="150.0" r="4" fill="#E74C3C" stroke="#fff" stroke-width="2"/><text x="400.0" y="140.0" text-anchor="middle" font-family="sans-serif" font-weight="700" font-size="10" fill="#2D3436">Moroni</text></svg>