<svg viewBox="0 0 800 300" xmlns="http://www.w3.org/2000/svg"><defs><clipPath id="v"><rect width="800" height="300"/></clipPath></defs><rect width="800" height="300" fill="#DCEEF8"/><g clip-path="url(#v)"><path d="M-227,95L-225,75L-243,53L-226,41L-221,13L-227,-28L-218,-40L-164,-40L-122,-21L-104,-23L-92,3L-53,2L-56,24L-24,27L10,54L-16,84L-49,68L-81,71L-104,67L-117,81L-144,85L-154,67L-177,78L-205,128L-223,117Z" fill="#E0E0E0" stroke="#fff" stroke-width=".4"/><path d="M152,61L188,67L200,82L182,101L130,100L89,103L85,71L95,60Z" fill="#E0E0E0" stroke="#fff" stroke-width=".4"/></g><g clip-path="url(#v)"><path d="M413.9,163.1L410.4,164.6L407.4,162.4L408.1,157.4L410.9,157.2L413.7,159.5ZM406.9,154.4L405.1,155.5L401.8,151.0L396.8,149.8L392.3,147.1L392.3,146.6L392.3,145.2L393.3,143.7L395.6,142.5L401.1,146.1L403.9,150.6L406.4,152.8Z" fill="#4ECDC4" stroke="#2C3E50" stroke-width="1"/></g><circle cx="400.0" cy="150.0" r="4" fill="#E74C3C" stroke="#fff" stroke-width="2"/><text x="400.0" y="140.0" text-anchor="middle" font-family="sans-serif" font-weight="700" font-size="10" fill="#2D3436">Basseterre</text></svg>