<svg viewBox="0 0 800 300" xmlns="http://www.w3.org/2000/svg"><defs><clipPath id="v"><rect width="800" height="300"/></clipPath></defs><rect width="800" height="300" fill="#DCEEF8"/><g clip-path="url(#v)"><path d="M-150,-1627L-112,-1652L-79,-1597L-39,-1498L-44,-1415L-81,-1404L-129,-1430L-158,-1465L-171,-1534L-194,-1554ZM6,-1451L50,-1400L45,-1365L-5,-1350L-52,-1333L-21,-1447L-7,-1457ZM625,-1196L670,-1193L732,-1156L719,-1106L656,-1107L627,-1092L593,-1135L602,-1183ZM786,-1141L829,-1123L810,-1097L782,-1103L750,-1129L754,-1151ZM643,-1015L659,-1039L680,-1044L705,-1021L707,-1005L681,-1005L646,-1011ZM-991,-1580L-957,-1599L-931,-1601L-928,-1572L-918,-1598L-902,-1615L-876,-1592L-883,-1576L-906,-1562L-921,-1554L-924,-1538L-944,-1521L-962,-1545L-953,-1577ZM-1371,-237L-1403,-237L-1424,-240L-1420,-253L-1396,-263L-1378,-258L-1371,-253L-1372,-245ZM-842,-1038L-801,-1093L-805,-1123L-767,-1159L-710,-1204L-653,-1218L-624,-1246L-590,-1255L-578,-1226L-590,-1203L-651,-1168L-703,-1135L-757,-1073L-782,-1012L-809,-956L-806,-910L-773,-867L-783,-862L-839,-869L-844,-892L-875,-907L-877,-936L-860,-948L-860,-980L-826,-1030ZM695,-219L701,-191L701,-164L708,-136L725,-89L700,-97L689,-60L706,-34L705,-16L692,-32L681,-12L678,-33L680,-58L678,-86L682,-106L682,-142L672,-169L674,-207L690,-221L683,-234L691,-238ZM-4856,-779L-4856,-779L-4814,-743L-4769,-698L-4771,-671L-4759,-660L-4763,-692L-4716,-685L-4683,-645L-4700,-626L-4728,-622L-4728,-582L-4735,-574L-4751,-575L-4764,-589L-4787,-601L-4791,-619L-4809,-626L-4828,-620L-4837,-635L-4834,-650L-4854,-640L-4847,-621L-4856,-603L-4856,-603L-4856,-779ZM1333,-603L1333,-603L1310,-585L1288,-588L1304,-567L1314,-535L1322,-525L1324,-510L1319,-500L1287,-508L1239,-480L1224,-476L1198,-451L1173,-429L1166,-414L1142,-437L1097,-410L1089,-423L1073,-408L1050,-413L1044,-391L1023,-359L1024,-346L1044,-338L1041,-293L1025,-291L1018,-266L1025,-253L995,-238L989,-205L964,-198L958,-169L934,-143L927,-162L920,-203L910,-269L919,-311L933,-330L934,-345L961,-353L991,-394L1021,-429L1052,-457L1066,-509L1045,-506L1035,-475L991,-436L977,-480L932,-468L889,-409L904,-389L865,-380L839,-376L840,-401L813,-406L792,-389L739,-395L683,-385L627,-322L561,-249L588,-245L597,-227L613,-221L624,-235L643,-233L668,-201L669,-177L655,-149L654,-117L646,-75L620,-38L614,-21L591,8L568,36L557,50L534,64L523,64L512,53L489,70L486,78L486,78L484,73L484,62L493,61L495,33L491,12L505,4L526,8L538,-16L544,-43L550,-53L559,-76L531,-68L516,-58L490,-58L483,-82L463,-101L433,-109L426,-136L420,-153L414,-165L403,-193L388,-203L363,-212L340,-211L318,-206L304,-192L314,-185L314,-170L304,-161L289,-132L289,-120L265,-103L244,-113L224,-111L215,-120L204,-123L179,-104L156,-99L141,-93L119,-97L103,-97L93,-110L76,-123L59,-127L37,-123L21,-118L-4,-130L-7,-150L-27,-157L-43,-160L-62,-172L-80,-143L-73,-127L-90,-109L-115,-115L-132,-116L-143,-129L-161,-129L-176,-138L-202,-125L-235,-102L-253,-97L-260,-95L-269,-111L-291,-108L-299,-119L-311,-124L-319,-140L-328,-145L-353,-138L-377,-154L-386,-139L-424,-210L-446,-233L-440,-242L-483,-214L-500,-213L-498,-229L-520,-239L-538,-232L-544,-262L-574,-269L-590,-256L-633,-245L-641,-238L-706,-228L-714,-218L-701,-198L-718,-191L-714,-183L-731,-169L-703,-150L-707,-137L-732,-139L-736,-131L-759,-145L-786,-144L-804,-133L-824,-144L-862,-163L-889,-162L-925,-132L-927,-113L-944,-128L-958,-99L-953,-93L-963,-74L-948,-56L-936,-57L-925,-40L-926,-27L-918,-23L-926,-8L-942,-4L-959,21L-944,44L-945,60L-927,87L-937,96L-940,102L-947,101L-959,87L-964,86L-975,80L-980,71L-996,66L-1007,70L-1010,65L-1033,54L-1058,50L-1073,46L-1075,49L-1097,29L-1116,20L-1131,6L-1119,2L-1105,-19L-1114,-29L-1089,-39L-1089,-45L-1105,-41L-1104,-52L-1095,-59L-1079,-61L-1076,-69L-1080,-84L-1073,-98L-1073,-105L-1098,-114L-1108,-114L-1119,-126L-1132,-122L-1154,-131L-1154,-137L-1160,-149L-1173,-150L-1175,-158L-1171,-164L-1182,-180L-1199,-177L-1205,-179L-1209,-172L-1215,-173L-1220,-191L-1224,-201L-1220,-204L-1206,-203L-1200,-209L-1205,-217L-1216,-222L-1215,-227L-1222,-232L-1233,-252L-1229,-260L-1231,-274L-1248,-281L-1257,-278L-1259,-285L-1277,-293L-1283,-311L-1284,-327L-1293,-334L-1285,-344L-1290,-375L-1278,-394L-1281,-400L-1261,-419L-1279,-435L-1242,-481L-1227,-502L-1220,-521L-1245,-547L-1238,-572L-1254,-602L-1242,-638L-1262,-686L-1247,-720L-1273,-751L-1270,-784L-1256,-788L-1227,-808L-1209,-825L-1181,-795L-1134,-784L-1069,-731L-1056,-709L-1055,-680L-1074,-657L-1102,-646L-1140,-663L-1179,-678L-1191,-673L-1163,-641L-1162,-622L-1161,-581L-1139,-569L-1126,-558L-1123,-577L-1134,-595L-1123,-610L-1081,-585L-1067,-595L-1078,-625L-1038,-666L-1022,-664L-1006,-649L-996,-678L-1011,-704L-1002,-731L-1015,-760L-967,-745L-957,-720L-979,-714L-979,-689L-965,-674L-938,-684L-934,-712L-898,-734L-838,-774L-825,-771L-842,-743L-821,-738L-809,-754L-776,-755L-751,-775L-731,-747L-712,-778L-730,-806L-721,-822L-670,-807L-646,-792L-584,-738L-573,-762L-590,-788L-590,-798L-611,-803L-606,-826L-615,-866L-615,-883L-584,-932L-572,-983L-559,-995L-514,-980L-510,-948L-527,-903L-516,-886L-510,-850L-514,-782L-495,-753L-503,-722L-536,-659L-517,-653L-510,-668L-491,-680L-486,-701L-472,-723L-482,-749L-474,-780L-492,-784L-497,-811L-483,-862L-505,-905L-474,-942L-478,-983L-470,-984L-461,-952L-467,-899L-449,-889L-457,-928L-428,-950L-392,-953L-361,-922L-376,-968L-378,-1032L-348,-1044L-306,-1041L-269,-1049L-283,-1082L-263,-1125L-244,-1127L-210,-1161L-165,-1170L-159,-1190L-114,-1196L-100,-1180L-61,-1218L-30,-1217L-25,-1249L-8,-1282L32,-1315L62,-1289L38,-1270L77,-1258L82,-1221L98,-1239L148,-1238L186,-1202L200,-1175L196,-1140L177,-1120L132,-1083L119,-1065L140,-1056L166,-1040L181,-1052L190,-1013L197,-1028L225,-1038L280,-1028L284,-1000L356,-991L357,-1037L394,-1026L421,-1026L449,-995L457,-958L447,-934L468,-892L495,-870L512,-926L539,-902L569,-916L602,-900L615,-915L643,-907L630,-959L653,-984L693,-977L732,-968L771,-958L808,-947L823,-914L868,-873L937,-883L972,-874L986,-853L984,-816L1005,-802L1028,-812L1058,-813L1091,-804L1124,-809L1153,-766L1175,-781L1161,-812L1169,-835L1223,-821L1259,-824L1309,-800L1333,-779L1333,-603ZM1333,-872L1314,-870L1311,-886L1333,-909L1333,-872ZM-4856,-909L-4856,-909L-4856,-909L-4854,-911L-4840,-911L-4815,-896L-4816,-888L-4834,-876L-4856,-872L-4856,-872L-4856,-909ZM-1187,-12L-1183,-18L-1170,-13L-1165,-12L-1163,-7L-1160,-7L-1160,-4L-1151,1L-1134,0L-1137,9L-1156,13L-1179,27L-1189,22L-1185,11L-1204,3L-1201,-1L-1184,-9Z" fill="#E0E0E0" stroke="#fff" stroke-width=".4"/><path d="M84,633L69,626L61,639L47,632L53,624L53,609L40,593L38,575L25,561L12,559L9,566L-1,566L-6,563L-24,574L-25,558L-21,538L-32,538L-33,527L-41,521L-37,514L-22,502L-21,507L-12,507L-14,486L-5,483L5,498L12,515L34,515L40,531L29,535L24,542L45,553L59,574L70,590L83,603L87,615Z" fill="#E0E0E0" stroke="#fff" stroke-width=".4"/><path d="M-41,521L-51,525L-61,533L-73,534L-81,554L-88,557L-80,573L-69,586L-62,598L-68,613L-74,617L-70,625L-58,640L-56,649L-56,658L-50,674L-59,690L-68,708L-69,695L-64,682L-70,671L-68,652L-75,643L-81,622L-84,599L-91,584L-103,593L-122,606L-132,604L-143,600L-137,578L-140,561L-154,540L-152,534L-162,531L-174,516L-175,501L-169,504L-169,491L-160,487L-162,479L-158,472L-157,453L-144,457L-136,442L-135,432L-126,416L-126,405L-104,392L-92,396L-93,384L-87,380L-89,373L-79,371L-73,383L-65,387L-65,402L-66,418L-82,434L-84,456L-66,453L-62,470L-51,474L-56,490L-43,497L-36,500L-23,495L-22,502L-37,514Z" fill="#E0E0E0" stroke="#fff" stroke-width=".4"/><path d="M32,698L47,691L65,690L57,679L86,666L88,645L84,633L87,615L83,603L70,590L59,574L45,553L24,542L29,535L40,531L34,515L12,515L5,498L-5,483L4,479L18,479L34,477L49,467L57,474L73,477L70,488L78,495L96,500L73,516L58,533L55,546L68,565L84,588L99,599L110,614L118,647L116,678L101,689L81,700L67,715L46,731L40,720L45,708Z" fill="#E0E0E0" stroke="#fff" stroke-width=".4"/><path d="M407,178L408,176L416,177L423,167L435,166L442,164L445,159L460,185L464,199L464,223L457,235L442,239L428,248L413,249L411,238L414,222L406,200L419,196Z" fill="#E0E0E0" stroke="#fff" stroke-width=".4"/><path d="M-253,-97L-235,-102L-202,-125L-176,-138L-161,-129L-143,-129L-132,-116L-115,-115L-90,-109L-73,-127L-80,-143L-62,-172L-43,-160L-27,-157L-7,-150L-4,-130L21,-118L37,-123L59,-127L76,-123L93,-110L103,-97L119,-97L141,-93L156,-99L179,-104L204,-123L215,-120L224,-111L244,-113L236,-93L224,-67L228,-56L238,-60L255,-56L268,-65L282,-57L297,-39L295,-30L282,-33L257,-30L245,-23L232,-6L206,3L189,16L171,11L161,9L152,25L158,34L161,42L149,50L136,62L116,71L90,71L63,79L43,92L35,85L14,85L-11,71L-28,67L-51,70L-86,65L-105,66L-116,52L-123,30L-134,27L-155,12L-178,9L-198,4L-205,-6L-198,-35L-210,-56L-234,-65L-249,-79Z" fill="#E0E0E0" stroke="#fff" stroke-width=".4"/><path d="M-89,373L-87,380L-93,384L-92,396L-104,392L-126,405L-126,416L-135,432L-136,442L-144,457L-157,453L-158,472L-162,479L-160,487L-169,491L-178,461L-182,461L-185,473L-195,464L-189,453L-182,452L-174,436L-184,433L-200,433L-216,430L-217,417L-226,416L-239,408L-245,421L-233,431L-244,438L-248,445L-237,450L-240,461L-234,475L-231,491L-234,497L-245,497L-267,501L-266,515L-275,526L-300,538L-319,559L-332,571L-349,583L-349,591L-357,595L-373,602L-381,603L-386,616L-383,639L-382,654L-389,671L-389,701L-398,701L-406,715L-400,720L-416,725L-422,737L-429,742L-445,726L-453,702L-460,684L-466,676L-475,659L-479,637L-482,626L-498,601L-505,566L-510,543L-510,521L-513,504L-538,515L-550,513L-573,490L-565,483L-570,476L-590,460L-578,448L-540,448L-544,431L-554,422L-556,407L-567,398L-548,378L-528,380L-510,359L-499,339L-482,319L-483,305L-468,293L-482,283L-488,269L-494,251L-486,242L-459,247L-440,244L-424,226L-405,251L-407,268L-400,278L-401,289L-413,286L-408,308L-391,321L-367,335L-378,344L-385,362L-368,370L-352,379L-330,390L-306,393L-296,403L-283,404L-262,409L-248,409L-246,401L-248,389L-247,380L-236,376L-235,391L-235,395L-219,403L-208,400L-194,401L-180,400L-178,389L-185,382L-172,380L-156,365L-136,353L-122,358L-109,349L-101,362L-107,370Z" fill="#E0E0E0" stroke="#fff" stroke-width=".4"/><path d="M-169,491L-169,504L-175,501L-174,516L-179,507L-180,497L-183,488L-190,478L-206,477L-205,484L-210,495L-217,491L-220,494L-225,492L-231,491L-234,475L-240,461L-237,450L-248,445L-244,438L-233,431L-245,421L-239,408L-226,416L-217,417L-216,430L-200,433L-184,433L-174,436L-182,452L-189,453L-195,464L-185,473L-182,461L-178,461Z" fill="#E0E0E0" stroke="#fff" stroke-width=".4"/><path d="M-185,382L-178,389L-180,400L-194,401L-208,400L-219,403L-235,395L-235,391L-224,377L-214,372L-202,377L-193,377Z" fill="#E0E0E0" stroke="#fff" stroke-width=".4"/><path d="M120,561L106,556L106,540L114,532L133,527L143,527L147,534L139,542L135,553ZM-382,74L-383,61L-372,55L-387,13L-353,4L-344,-2L-332,-46L-298,-38L-288,-50L-287,-75L-273,-78L-260,-95L-253,-97L-249,-79L-234,-65L-210,-56L-198,-35L-205,-6L-198,4L-178,9L-155,12L-134,27L-123,30L-116,52L-105,66L-86,65L-51,70L-28,67L-11,71L14,85L35,85L43,92L63,79L90,71L116,71L136,62L149,50L161,42L158,34L152,25L161,9L171,11L189,16L206,3L232,-6L245,-23L257,-30L282,-33L295,-30L297,-39L282,-57L268,-65L255,-56L238,-60L228,-56L224,-67L236,-93L244,-113L265,-103L289,-120L289,-132L304,-161L314,-170L314,-185L304,-192L318,-206L340,-211L363,-212L388,-203L403,-193L414,-165L420,-153L426,-136L433,-109L463,-101L483,-82L490,-58L516,-58L531,-68L559,-76L550,-53L544,-43L538,-16L526,8L505,4L491,12L495,33L493,61L484,62L484,73L473,60L466,73L440,83L442,95L427,94L419,87L407,103L389,115L374,130L350,136L338,147L319,153L328,142L325,134L338,119L329,107L314,115L295,130L284,145L268,146L259,156L268,171L282,175L282,184L296,191L315,175L331,184L342,184L344,196L320,202L312,213L295,224L287,238L305,250L312,270L322,289L334,305L334,320L323,325L327,336L337,342L334,358L330,373L320,375L308,396L294,421L278,444L254,461L231,477L211,479L201,488L195,482L185,491L161,500L143,503L137,522L127,523L123,510L127,503L104,497L96,500L78,495L70,488L73,477L57,474L49,467L34,477L18,479L4,479L-5,483L-14,486L-12,507L-21,507L-22,502L-23,495L-36,500L-43,497L-56,490L-51,474L-62,470L-66,453L-84,456L-82,434L-66,418L-65,402L-65,387L-73,383L-79,371L-89,373L-107,370L-101,362L-109,349L-122,358L-136,353L-156,365L-172,380L-185,382L-193,377L-202,377L-214,372L-224,377L-235,391L-236,376L-247,380L-267,378L-286,374L-300,365L-314,361L-319,352L-329,349L-346,336L-360,330L-367,335L-391,321L-408,308L-413,286L-401,289L-400,278L-407,268L-405,251L-424,226L-452,218L-457,201L-470,191L-473,185L-475,173L-475,164L-485,159L-491,161L-495,141L-490,136L-493,131L-476,120L-464,115L-446,119L-440,104L-418,101L-412,92L-384,80Z" fill="#E0E0E0" stroke="#fff" stroke-width=".4"/><path d="M332,447L321,477L314,492L305,477L303,463L313,444L327,430L335,436Z" fill="#E0E0E0" stroke="#fff" stroke-width=".4"/><path d="M677,146L662,169L662,191L655,208L658,219L649,234L627,244L597,245L573,269L561,261L560,245L530,250L510,259L490,260L507,275L496,310L485,318L477,310L481,292L470,286L463,272L479,266L488,253L505,242L518,227L552,221L571,225L589,188L600,198L625,176L635,168L646,141L643,115L650,101L668,97L678,128ZM724,37L736,26L740,53L715,60L700,83L673,67L663,92L644,93L642,70L650,51L669,50L674,17L679,-2L699,23L712,31ZM514,269L523,256L533,259L540,250L553,254L555,261L545,274L538,267L529,272L525,284L514,278Z" fill="#E0E0E0" stroke="#fff" stroke-width=".4"/></g><g clip-path="url(#v)"><path d="M445.1,158.8L444.5,159.1L443.5,160.9L442.5,163.3L441.6,164.6L440.5,165.2L439.4,165.7L437.0,165.8L435.0,165.7L434.3,165.4L431.5,165.6L430.7,165.7L426.6,165.6L424.4,165.8L423.0,166.2L421.7,167.1L420.4,168.6L419.4,170.1L417.3,172.9L415.7,174.2L415.7,176.2L415.7,176.8L415.2,177.2L415.0,177.0L414.1,176.8L410.7,175.1L407.8,176.2L407.1,177.6L406.3,178.0L405.2,175.2L403.3,175.2L400.3,172.7L399.0,173.2L398.7,174.2L397.1,176.5L394.8,178.3L394.1,178.5L393.3,178.4L393.4,177.9L392.5,175.8L388.9,175.0L387.6,174.1L386.9,173.9L390.4,171.6L391.4,171.2L390.7,170.6L389.9,170.4L387.0,170.7L385.5,169.9L383.3,170.2L381.8,169.6L385.0,167.3L385.1,166.0L385.0,164.9L386.6,161.9L388.3,160.2L392.4,157.8L394.3,157.5L395.6,157.6L396.6,157.4L395.5,156.5L394.4,156.0L392.2,156.1L390.0,154.7L389.8,153.3L394.1,144.1L394.2,143.2L393.5,141.0L393.3,138.8L390.2,137.5L388.8,137.3L384.9,134.9L383.2,133.6L382.6,134.0L382.5,135.9L381.9,136.4L380.9,136.8L380.3,134.5L379.5,132.9L376.9,131.2L375.9,130.3L376.4,128.2L376.1,128.1L376.6,125.8L378.2,124.1L382.1,121.0L383.2,119.5L385.2,117.8L386.1,117.8L387.1,117.7L387.3,116.9L387.6,116.4L388.4,115.8L390.3,114.9L392.5,113.6L394.3,113.3L396.4,111.4L397.3,110.6L398.2,110.6L398.4,110.2L399.0,109.2L399.6,108.6L400.6,108.5L402.1,108.0L404.1,107.7L405.5,106.2L405.9,105.0L406.8,103.8L408.7,102.4L409.9,100.4L411.4,98.2L412.1,97.5L412.7,97.4L413.1,96.6L413.6,94.2L414.3,92.0L414.6,90.9L416.3,89.7L416.7,89.1L417.1,88.9L417.8,89.1L418.8,88.4L419.8,87.7L420.7,87.9L421.6,88.5L422.5,89.8L423.0,90.8L423.7,91.7L423.8,92.8L424.6,93.4L426.1,93.6L428.7,94.5L430.4,94.5L431.3,95.2L433.3,95.5L437.3,95.0L438.9,95.3L439.6,96.0L440.6,96.7L441.2,96.7L442.1,95.6L443.1,94.0L443.7,92.7L443.7,91.7L443.1,90.5L441.8,89.5L440.9,87.9L440.1,86.3L439.6,85.7L439.3,84.9L439.2,83.7L439.4,82.9L441.4,82.3L444.0,82.0L446.0,82.4L449.5,82.1L451.6,81.6L453.1,81.7L454.5,81.7L455.2,81.0L457.2,79.3L458.2,78.7L459.2,77.5L459.4,76.3L459.6,75.4L460.2,74.3L461.3,73.0L462.2,72.4L463.1,72.5L464.2,73.1L464.9,73.7L465.6,73.5L466.2,72.5L466.7,72.3L467.9,72.2L468.2,71.6L468.7,68.6L469.1,66.2L469.3,64.5L470.3,61.8L470.7,60.1L471.3,59.3L472.1,59.4L472.7,59.9L473.4,60.1L474.5,59.9L475.2,60.3L475.6,61.2L477.2,61.8L477.3,62.3L477.3,65.3L478.1,66.7L479.2,67.9L480.8,69.1L481.7,69.3L482.1,70.1L482.6,71.6L483.7,72.9L484.3,73.9L484.4,75.0L484.9,75.6L484.0,76.2L482.8,75.8L480.9,75.6L478.5,77.7L477.1,78.3L476.1,80.4L474.2,81.6L473.2,82.8L471.8,85.0L470.9,87.1L468.9,89.3L467.7,91.9L467.6,94.2L468.9,96.6L469.0,98.6L468.1,102.7L468.7,107.1L468.0,108.8L461.7,111.8L460.1,113.2L457.8,117.1L454.9,118.5L453.2,120.1L450.8,121.0L449.2,123.7L447.5,125.2L445.4,126.2L443.9,127.3L440.5,127.4L438.1,128.2L436.4,130.5L431.3,133.1L430.5,135.0L430.9,138.0L430.9,140.2L430.5,142.1L429.4,141.5L428.7,142.2L428.1,143.9L428.3,145.8L430.0,146.5L431.5,147.3L433.5,147.7L435.0,148.6L438.2,152.7L440.8,154.5L441.5,155.2L443.0,156.1L444.3,157.5ZM385.5,138.5L384.5,139.2L384.5,138.0L385.2,137.1L386.0,136.9Z" fill="#4ECDC4" stroke="#2C3E50" stroke-width="1"/></g><circle cx="400.0" cy="150.0" r="4" fill="#E74C3C" stroke="#fff" stroke-width="2"/><text x="400.0" y="140.0" text-anchor="middle" font-family="sans-serif" font-weight="700" font-size="10" fill="#2D3436">Pyongyang</text></svg>