<svg viewBox="0 0 800 300" xmlns="http://www.w3.org/2000/svg"><defs><clipPath id="v"><rect width="800" height="300"/></clipPath></defs><rect width="800" height="300" fill="#DCEEF8"/><g clip-path="url(#v)"><path d="M-213,600L-226,606L-240,617L-256,618L-266,644L-276,648L-265,669L-250,687L-241,702L-249,723L-257,727L-252,739L-237,758L-234,771L-234,782L-225,803L-238,825L-249,849L-251,832L-244,814L-252,800L-250,774L-259,762L-267,734L-271,704L-281,684L-296,696L-322,713L-334,711L-349,706L-341,676L-345,654L-363,626L-361,617L-374,614L-390,594L-392,575L-384,578L-383,561L-372,555L-374,544L-369,536L-368,510L-350,516L-340,495L-339,483L-327,462L-327,447L-298,429L-281,434L-283,418L-275,413L-277,404L-264,402L-256,417L-246,423L-245,443L-246,464L-268,485L-271,515L-246,510L-241,533L-227,538L-233,559L-216,568L-206,573L-190,565L-189,575L-208,591Z" fill="#E0E0E0" stroke="#fff" stroke-width=".4"/><path d="M487,12L487,12L487,12ZM484,6L487,12L478,10L468,20L461,31L462,52L450,59L446,64L438,73L423,78L413,86L412,99L409,102L418,107L431,120L428,127L418,129L402,130L393,143L383,142L382,145L371,139L368,145L361,147L360,142L354,139L348,134L354,122L360,118L358,113L364,97L362,92L349,89L338,81L357,62L382,46L398,24L408,34L428,35L424,18L460,5L469,-12Z" fill="#E0E0E0" stroke="#fff" stroke-width=".4"/><path d="M-496,-221L-472,-227L-428,-257L-393,-274L-373,-263L-350,-262L-334,-246L-312,-244L-278,-236L-256,-260L-266,-282L-242,-320L-216,-304L-196,-300L-169,-291L-164,-263L-132,-248L-110,-255L-82,-260L-59,-255L-36,-238L-22,-220L-1,-220L28,-215L48,-223L79,-229L112,-254L126,-250L138,-238L165,-241L154,-215L138,-180L143,-166L156,-171L179,-165L196,-178L215,-167L235,-143L233,-132L215,-135L182,-131L166,-122L149,-100L114,-87L91,-70L68,-77L55,-79L43,-59L50,-46L54,-36L38,-25L22,-9L-5,2L-39,3L-76,14L-103,31L-113,21L-140,21L-174,2L-197,-2L-227,2L-274,-5L-299,-4L-313,-23L-323,-52L-337,-55L-365,-75L-395,-80L-423,-85L-431,-100L-422,-138L-438,-165L-470,-178L-490,-196Z" fill="#E0E0E0" stroke="#fff" stroke-width=".4"/><path d="M0,654L-18,647L-19,626L-8,615L17,608L30,609L35,618L25,629L20,643ZM-667,8L-668,-10L-653,-18L-673,-73L-628,-86L-616,-94L-600,-153L-555,-142L-542,-157L-541,-191L-522,-195L-504,-218L-496,-221L-490,-196L-470,-178L-438,-165L-422,-138L-431,-100L-423,-85L-395,-80L-365,-75L-337,-55L-323,-52L-313,-23L-299,-4L-274,-5L-227,2L-197,-2L-174,2L-140,21L-113,21L-103,31L-76,14L-39,3L-5,2L22,-9L38,-25L54,-36L50,-46L43,-59L55,-79L68,-77L91,-70L114,-87L149,-100L166,-122L182,-131L215,-135L233,-132L235,-143L215,-167L196,-178L179,-165L156,-171L143,-166L138,-180L154,-215L165,-241L192,-228L224,-250L224,-266L245,-305L258,-316L257,-337L245,-346L264,-365L292,-372L322,-373L356,-361L376,-348L391,-310L399,-294L407,-272L416,-237L455,-226L482,-201L491,-169L526,-168L546,-182L584,-192L572,-161L563,-149L555,-113L540,-81L512,-87L492,-75L498,-48L495,-10L483,-10L484,6L469,-12L460,5L424,18L428,35L408,34L398,24L382,46L357,62L338,81L306,90L289,103L265,111L277,98L272,86L290,66L278,50L258,61L232,82L218,101L196,102L184,116L196,136L215,141L216,153L234,162L259,141L280,153L294,153L298,168L266,176L255,192L233,206L221,225L246,241L255,268L269,293L284,313L284,333L270,340L275,354L288,363L285,384L279,405L266,407L250,435L231,468L210,498L179,521L147,542L121,545L107,556L99,548L86,560L54,573L30,576L22,602L10,604L4,586L9,577L-21,569L-32,573L-55,566L-66,556L-62,542L-83,538L-94,528L-114,541L-136,544L-154,544L-166,550L-178,554L-175,582L-187,581L-189,575L-190,565L-206,573L-216,568L-233,559L-227,538L-241,533L-246,510L-271,515L-268,485L-246,464L-245,443L-246,423L-256,417L-264,402L-277,404L-302,400L-294,389L-305,373L-321,384L-340,377L-366,394L-387,413L-405,416L-415,409L-428,409L-444,403L-456,409L-471,428L-473,408L-487,414L-514,411L-540,405L-558,394L-576,389L-583,376L-596,372L-619,355L-638,347L-647,353L-679,335L-701,318L-708,288L-691,292L-691,278L-700,264L-697,242L-722,209L-759,198L-766,176L-783,163L-787,154L-791,138L-790,127L-804,120L-811,123L-817,96L-810,89L-814,82L-792,68L-776,62L-752,66L-743,47L-714,43L-706,31L-670,15Z" fill="#E0E0E0" stroke="#fff" stroke-width=".4"/><path d="M281,502L267,542L258,562L246,542L243,523L256,499L275,480L285,487Z" fill="#E0E0E0" stroke="#fff" stroke-width=".4"/><path d="M740,103L719,133L720,162L711,185L715,199L703,219L674,232L634,234L601,265L586,255L585,234L545,240L518,253L491,254L515,274L499,320L485,331L474,321L479,296L465,288L455,270L477,261L489,244L512,230L529,211L574,202L599,208L622,158L638,171L671,143L684,131L698,95L695,62L704,43L728,37L741,79ZM803,-43L819,-56L824,-21L790,-12L770,18L734,-3L722,31L696,31L693,1L704,-23L729,-25L735,-69L742,-94L769,-60L786,-50ZM523,265L536,249L549,252L558,240L575,246L578,256L565,272L556,264L544,270L538,286L523,278Z" fill="#E0E0E0" stroke="#fff" stroke-width=".4"/></g><g clip-path="url(#v)"><path d="M392.1,143.9L392.8,143.4L392.8,142.6L392.8,140.0L394.9,138.2L397.7,134.5L399.1,132.5L400.7,130.6L402.5,129.3L404.3,128.8L407.2,128.5L412.6,128.7L413.7,128.5L417.5,128.3L418.4,128.7L421.1,128.9L424.2,128.6L425.7,128.1L427.2,127.1L428.4,125.5L429.6,122.3L431.0,119.9L431.9,119.4L437.4,132.5L442.7,140.8L447.3,146.9L453.8,158.5L455.7,164.7L455.9,168.5L456.9,173.7L456.0,176.7L456.3,181.4L455.9,183.8L455.1,185.6L455.0,189.1L455.3,190.9L455.4,193.3L455.9,194.2L456.6,194.6L457.7,193.7L459.2,193.3L459.0,196.2L457.2,203.6L455.7,208.9L453.6,213.5L451.0,217.7L447.9,219.4L445.7,220.0L441.5,220.2L437.9,219.5L435.0,220.0L433.7,220.9L432.8,222.4L433.5,224.7L433.4,226.4L432.1,226.3L429.6,225.3L426.8,225.2L425.4,224.6L424.1,222.2L422.7,222.3L420.4,223.8L416.7,224.0L415.5,224.9L415.1,225.9L415.6,227.1L417.4,228.8L416.8,230.6L414.9,231.4L413.4,229.3L412.4,227.2L411.3,227.1L409.7,227.7L409.3,229.9L410.2,231.5L411.4,233.2L409.6,235.2L409.2,236.7L407.9,237.7L404.4,235.4L404.9,233.8L406.4,232.2L406.6,230.6L406.1,229.6L401.1,233.7L398.1,238.4L396.5,238.0L395.8,236.8L394.9,236.3L391.6,239.4L390.9,241.7L389.8,241.8L389.2,240.8L389.2,238.7L388.6,236.9L385.3,234.2L383.7,231.9L384.5,230.6L387.3,231.3L389.6,231.2L389.1,230.1L388.4,229.6L389.9,229.0L391.2,227.7L390.1,227.3L388.5,228.1L387.2,227.7L386.7,224.7L385.1,221.5L384.3,218.5L385.8,216.7L386.7,214.0L388.1,210.1L388.9,208.8L390.9,207.8L391.7,206.8L390.5,206.3L388.7,205.8L388.8,204.7L390.0,204.1L391.3,202.8L394.0,201.3L394.8,198.4L394.1,197.6L392.4,197.0L392.8,195.5L393.5,194.4L393.2,193.7L391.3,191.8L389.9,190.0L390.4,188.1L390.0,185.1L390.2,182.6L390.1,181.2L389.2,178.2L388.8,175.1L387.5,175.6L386.5,176.3L382.9,175.2L381.7,175.2L381.3,172.8L382.5,170.0L385.7,167.5L387.4,167.2L388.7,166.2L390.8,165.8L393.3,167.5L395.5,167.8L396.8,170.8L397.5,171.4L397.7,170.3L399.5,169.0L399.9,168.1L399.6,167.5L397.5,167.0L395.6,163.4L395.4,161.8L394.6,160.8L395.7,157.9L393.6,154.6L392.5,153.5L392.7,150.6L391.5,148.6L390.8,147.6L390.5,145.8L390.8,145.0L391.8,144.7ZM440.2,228.4L438.0,230.1L435.1,227.8L434.5,226.6L436.6,224.7L438.5,222.6L439.7,222.4ZM424.8,228.2L424.5,230.9L422.9,231.1L422.0,229.3L420.9,230.1L420.4,230.2L419.6,228.0L419.4,226.3L421.3,225.0L422.5,225.8L424.1,226.2ZM383.0,240.3L381.5,240.7L380.7,239.8L380.1,239.5L380.4,238.2L382.8,235.8L383.3,235.0L385.5,235.4L386.3,236.7L385.3,238.8ZM389.5,145.2L389.4,149.0L388.1,148.8L387.3,148.5L386.9,147.7L386.1,144.2L387.0,142.7L388.9,143.9ZM394.8,241.0L395.2,242.3L393.4,242.1L392.4,240.8L392.5,239.7L393.6,239.6ZM418.7,233.5L418.5,234.4L417.3,233.1L418.5,231.6ZM387.1,180.8L386.8,182.7L385.3,181.4L384.9,177.4L386.5,178.6ZM381.6,230.3L381.2,231.0L380.2,230.8L379.3,228.8L378.8,227.3L377.8,226.5L379.4,225.2L381.5,227.5ZM489.9,152.6L488.8,153.5L487.6,152.6L487.4,151.7L488.1,151.0L489.6,150.5L490.3,151.2ZM385.1,271.8L384.0,272.4L383.1,272L382.9,271.7L381.7,270.2L381.4,269.3L382.2,267.8L385.3,265.3L393.5,262.9L395.0,262.8L398.2,263.8L398.9,265.8L398.3,267.4L397.6,268.6L393.8,270.5L390.9,271.4Z" fill="#4ECDC4" stroke="#2C3E50" stroke-width="1"/></g><circle cx="400.0" cy="150.0" r="4" fill="#E74C3C" stroke="#fff" stroke-width="2"/><text x="400.0" y="140.0" text-anchor="middle" font-family="sans-serif" font-weight="700" font-size="10" fill="#2D3436">Seoul</text></svg>