<svg viewBox="0 0 800 300" xmlns="http://www.w3.org/2000/svg"><defs><clipPath id="v"><rect width="800" height="300"/></clipPath></defs><rect width="800" height="300" fill="#DCEEF8"/><g clip-path="url(#v)"><path d="M645,543L657,539L660,560L713,548L770,550L811,552L857,501L908,453L952,406L964,432L974,492L939,492L933,541L945,551L914,566L914,597L894,627L893,657L879,673L674,636L648,560Z" fill="#E0E0E0" stroke="#fff" stroke-width=".4"/><path d="M592,505L588,450L606,410L625,402L646,426L647,470L632,514L613,520Z" fill="#E0E0E0" stroke="#fff" stroke-width=".4"/><path d="M-200,-71L-228,-170L-77,-255L-51,-356L-57,-418L-20,-439L15,-492L44,-505L124,-494L148,-472L180,-487L225,-385L269,-360L274,-311L240,-283L224,-218L272,-140L355,-96L390,-35L379,23L401,23L402,66L439,107L399,103L353,97L303,172L176,166L81,86L-16,7L-118,-49Z" fill="#E0E0E0" stroke="#fff" stroke-width=".4"/><path d="M893,657L894,627L914,597L914,566L945,551L933,541L939,492L974,492L1004,543L1042,570L1092,580L1133,594L1164,636L1182,661L1207,670L1206,687L1182,730L1171,751L1142,774L1116,824L1085,821L1071,838L1060,875L1069,923L1062,932L1031,932L988,959L982,994L966,1009L924,1008L897,1026L897,1055L864,1075L827,1068L781,1092L749,1096L727,1047L674,928L878,856L924,709ZM964,432L952,406L971,380L980,387L973,418Z" fill="#E0E0E0" stroke="#fff" stroke-width=".4"/><path d="M439,107L402,66L401,23L379,23L390,-35L355,-96L272,-140L224,-218L240,-283L274,-311L269,-360L225,-385L180,-487L143,-556L157,-583L135,-683L182,-708L193,-675L227,-634L274,-623L299,-625L379,-690L405,-697L425,-671L401,-627L444,-582L461,-586L483,-522L547,-504L595,-461L692,-447L798,-469L805,-489L865,-506L913,-555L959,-553L989,-569L1037,-561L1113,-517L1167,-508L1245,-432L1296,-429L1302,-358L1274,-254L1256,-194L1285,-182L1256,-137L1279,-73L1284,-22L1336,-8L1341,43L1279,115L1313,156L1340,203L1406,237L1408,305L1440,318L1446,353L1348,392L1322,480L1193,457L1119,440L1042,430L1013,337L980,323L928,337L859,374L776,349L707,290L641,268L595,194L545,90L508,102L465,76Z" fill="#E0E0E0" stroke="#fff" stroke-width=".4"/><path d="M-437,-115L-439,-116L-429,-128L-430,-162L-414,-206L-377,-237L-388,-270L-418,-274L-425,-338L-408,-372L-390,-391L-371,-409L-368,-457L-345,-440L-270,-464L-234,-448L-178,-448L-99,-480L-63,-479L15,-492L-20,-439L-57,-418L-51,-356L-77,-255L-228,-170L-361,-83Z" fill="#E0E0E0" stroke="#fff" stroke-width=".4"/><path d="M-490,152L-413,164L-384,140L-368,112L-316,101L-304,75L-282,61L-350,-19L-213,-59L-200,-71L-118,-49L-16,7L81,86L176,166L303,172L364,180L381,217L429,215L456,281L489,299L501,326L548,358L552,389L545,415L554,440L573,461L582,486L592,505L613,520L632,514L645,543L648,560L674,636L879,673L893,657L924,709L878,856L674,928L477,956L413,988L364,1063L332,1075L315,1051L289,1055L223,1048L211,1041L132,1042L114,1049L86,1030L67,1065L74,1095L45,1118L35,1088L15,1066L10,1038L-25,1012L-62,952L-81,893L-128,843L-159,831L-204,761L-212,710L-209,667L-248,584L-280,555L-317,540L-339,497L-336,480L-355,441L-375,424L-401,367L-443,305L-478,252L-512,253L-501,210L-498,183Z" fill="#E0E0E0" stroke="#fff" stroke-width=".4"/></g><g clip-path="url(#v)"><path d="M419.4,130.9L415.5,132.7L413.0,131.8L410.3,127.6L406.2,117.1L408.6,113.1L408.4,111.5L408.9,110.3L410.1,109.5L411.6,104.5L413.3,102.9L416.2,106.3L424.3,118.3L424.3,123.4L423.9,125.3ZM431.0,215.3L418.9,215.5L403.9,215.7L391.9,215.9L378.2,216.0L372.3,208.7L370.3,200.6L368.1,192.4L361.9,180.5L341.8,177.6L331.2,176.1L313.5,173.8L300.5,172.2L311.6,159.5L316.7,152.5L326.1,137.7L330.7,127.1L335.4,115.2L339.3,106.0L340.3,104.4L342.5,101.3L347.7,98.0L355.1,95.0L367.6,93.7L376.4,93.6L378.4,93.7L383.8,95.2L399.3,102.6L398.8,105.5L401.0,114.2L405.9,123.7L410.1,131.3L410.6,135.0L406.9,134.4L403.9,132.9L398.5,131.4L388.2,141.6L381.8,147.1L381.8,149.0L390.2,151.2L396.3,151.0L400.5,149.5L404.2,152.0L406.7,158.2L407.6,163.3L413.3,181.3L418.0,187.4L423.9,198.2L426.1,203.7L427.3,208.5Z" fill="#4ECDC4" stroke="#2C3E50" stroke-width="1"/></g><circle cx="400.0" cy="150.0" r="4" fill="#E74C3C" stroke="#fff" stroke-width="2"/><text x="400.0" y="140.0" text-anchor="middle" font-family="sans-serif" font-weight="700" font-size="10" fill="#2D3436">Kuwait City</text></svg>