<svg viewBox="0 0 800 300" xmlns="http://www.w3.org/2000/svg"><defs><clipPath id="v"><rect width="800" height="300"/></clipPath></defs><rect width="800" height="300" fill="#DCEEF8"/><g clip-path="url(#v)"><path d="M198,477L199,478L218,489L218,492L226,497L224,504L224,507L227,509L228,511L226,514L226,516L226,518L228,522L230,527L232,528L228,531L222,534L219,533L217,535L213,535L212,536L205,534L201,535L200,527L198,525L197,523L191,522L188,521L185,520L183,519L181,517L178,511L175,507L173,504L174,502L173,497L175,496L177,494L179,492L181,490L181,489L179,487L179,485L181,485L181,481L179,478L181,478L187,478Z" fill="#E0E0E0" stroke="#fff" stroke-width=".4"/><path d="M-32,317L-32,317L-32,319L-32,328L-50,327L-50,343L-55,343L-56,346L-55,354L-76,354L-77,356L-77,354L-77,354L-65,353L-64,351L-62,349L-60,341L-53,334L-50,327L-48,326L-47,322L-42,321L-40,322L-38,322L-36,320L-33,320L-33,317Z" fill="#E0E0E0" stroke="#fff" stroke-width=".4"/><path d="M317,227L316,200L330,195L331,196L340,202L344,204L349,211L356,210L365,209L371,215L371,222L373,222L375,228L381,228L383,232L385,232L387,227L394,222L397,220L399,221L395,226L399,228L402,227L409,230L402,235L398,235L396,235L395,233L396,230L389,231L387,236L384,240L380,239L378,243L382,244L384,249L381,256L377,255L374,255L374,251L366,248L361,244L357,241L351,236L349,229L347,227L341,228L339,226L338,221L331,217L326,221L322,223L323,227Z" fill="#E0E0E0" stroke="#fff" stroke-width=".4"/><path d="M775,486L785,490L795,493L798,496L801,499L802,502L811,505L812,508L807,509L809,512L813,516L817,522L820,521L820,524L824,525L822,526L828,528L827,530L824,530L823,529L818,528L812,527L808,524L805,521L802,516L795,514L791,515L788,517L788,521L784,523L781,522L775,522L775,504ZM838,492L840,494L841,497L839,498L838,495L837,493L834,491L831,489L827,487L829,486L832,487L834,488L836,490ZM831,504L828,505L825,506L822,506L818,505L815,503L815,502L820,502L823,502L824,499L824,499L825,502L828,502L830,500L833,498L832,495L835,495L836,496L836,499L834,502L832,502ZM849,501L851,502L854,506L856,508L855,509L854,510L852,508L849,504L848,500L849,499Z" fill="#E0E0E0" stroke="#fff" stroke-width=".4"/><path d="M775,486L775,504L775,522L771,517L765,516L764,518L757,518L759,513L763,512L761,506L759,501L748,497L744,496L736,491L734,494L732,494L731,492L731,490L727,487L732,486L736,486L736,484L728,484L726,481L721,480L719,477L726,476L729,474L737,476L738,478L740,487L745,490L750,485L756,481L761,481L765,483L769,485ZM689,520L689,521L689,523L686,527L681,528L681,528L681,526L683,523ZM739,510L738,505L739,503L740,502L741,503L741,506ZM651,450L647,455L651,460L650,462L657,467L650,468L648,472L649,477L643,480L643,486L641,494L640,492L634,494L632,491L628,491L626,489L619,491L617,488L614,489L609,488L608,481L606,479L603,475L602,470L603,465L606,461L607,465L611,468L614,467L618,467L621,465L623,464L629,466L633,465L636,457L638,455L640,449L646,449ZM712,487L718,489L720,493L716,491L711,490L708,491L705,491L706,488ZM699,493L695,492L694,489L700,489L701,491ZM705,461L705,463L708,464L709,466L709,471L706,470L705,474L707,476L706,477L703,474L702,467L703,462ZM678,468L684,467L689,463L690,465L686,470L682,471L677,470L668,470L663,471L662,475L667,480L670,477L680,476L680,478L677,477L675,480L670,483L675,489L674,491L679,498L679,501L676,503L674,501L677,496L671,498L670,497L671,495L667,492L667,486L664,488L664,494L664,502L661,503L659,501L660,496L659,491L657,491L655,487L658,484L658,480L661,471L662,469L667,465L671,467ZM664,528L656,524L661,523L664,525L666,526L666,528ZM669,518L673,518L678,516L677,519L669,521L662,520L662,518L666,517ZM653,517L656,517L657,519L651,520L647,521L644,521L646,518L649,518L651,516ZM600,507L601,509L611,509L612,507L622,510L624,513L632,514L639,518L633,520L627,517L622,518L616,517L611,516L605,514L601,514L599,514L589,512L588,510L583,509L587,504L593,504L598,507ZM578,478L579,482L580,485L584,485L587,489L586,495L585,504L579,504L575,499L568,495L566,492L562,487L559,483L555,476L550,471L549,467L547,462L542,459L539,454L535,451L529,445L529,443L532,443L541,444L545,449L549,453L552,455L558,461L563,461L568,465L571,469L575,472L573,476L576,478Z" fill="#E0E0E0" stroke="#fff" stroke-width=".4"/><path d="M173,497L174,502L173,504L175,507L178,511L181,517L178,517L171,518L170,518L168,522L169,524L168,531L168,536L169,537L173,539L174,538L175,544L171,544L169,541L167,539L162,538L161,535L158,537L154,536L152,534L148,533L146,533L146,532L144,532L141,531L138,532L136,532L134,532L135,526L133,524L132,520L133,517L132,515L132,512L125,512L126,510L123,510L123,511L119,511L118,514L117,515L114,515L113,515L109,516L107,513L106,511L104,508L103,504L87,504L85,505L83,504L81,505L80,504L82,503L82,501L83,499L85,498L86,499L88,497L91,497L91,498L93,499L97,496L100,493L101,491L101,487L103,482L106,479L109,476L110,475L110,473L111,471L111,468L111,463L112,459L114,457L114,453L115,450L117,447L120,445L124,447L128,449L132,449L136,450L137,447L138,447L140,447L146,445L149,446L150,446L151,444L153,444L157,444L161,445L162,444L166,448L168,449L170,448L172,449L175,447L176,450L181,453L181,460L183,460L181,462L179,464L177,467L176,469L176,473L174,475L174,479L173,481L173,484L172,485L171,488L173,490Z" fill="#E0E0E0" stroke="#fff" stroke-width=".4"/><path d="M239,481L236,477L236,457L241,451L242,449L245,449L250,445L257,445L273,429L276,424L279,421L279,418L279,413L279,410L279,410L280,410L283,409L286,409L288,407L290,407L291,408L290,412L290,415L289,417L287,422L285,429L281,435L277,443L272,449L266,457L261,461L252,467L247,471L242,477L240,480Z" fill="#E0E0E0" stroke="#fff" stroke-width=".4"/><path d="M226,497L218,492L218,489L199,478L198,477L198,472L199,469L202,466L204,462L201,456L201,453L198,449L201,446L205,442L208,443L208,446L210,448L214,448L220,453L222,453L223,453L225,453L228,454L230,452L235,449L237,451L241,451L236,457L236,477L239,481L235,483L234,486L232,486L231,490L229,492L228,496Z" fill="#E0E0E0" stroke="#fff" stroke-width=".4"/><path d="M147,428L143,425L141,424L141,422L142,420L142,418L139,414L138,412L138,410L136,409L136,406L135,403L133,404L134,402L135,399L134,397L136,395L135,394L136,391L139,387L144,387L143,365L143,362L150,362L150,351L171,351L192,351L214,351L215,356L214,357L215,363L217,370L219,371L222,374L219,377L215,378L214,379L213,383L211,391L211,394L210,398L208,404L205,407L203,411L202,413L200,415L198,420L198,425L198,421L197,421L197,418L197,416L194,414L193,410L194,406L191,406L191,407L188,407L189,409L190,412L187,415L184,419L181,420L177,416L175,418L174,419L171,420L171,421L166,421L165,420L161,420L159,421L158,420L155,417L154,416L150,417L148,419L147,424L145,425L144,426Z" fill="#E0E0E0" stroke="#fff" stroke-width=".4"/><path d="M143,365L144,387L139,387L136,391L135,394L136,395L134,397L135,399L134,402L133,404L135,403L136,406L136,409L138,410L138,412L135,413L132,415L128,421L123,423L118,423L116,424L117,426L114,427L112,430L105,432L104,430L103,430L102,432L97,432L98,431L96,427L96,425L93,424L90,420L91,418L94,418L95,418L98,418L95,413L95,409L95,406L93,402L93,400L90,400L90,396L88,394L90,387L97,381L97,374L99,362L101,360L98,358L98,356L96,355L95,346L100,342L122,354Z" fill="#E0E0E0" stroke="#fff" stroke-width=".4"/><path d="M521,-314L532,-322L543,-305L555,-274L554,-248L542,-244L527,-252L518,-263L514,-285L507,-291ZM569,-259L583,-243L581,-232L551,-222L561,-258L565,-261ZM763,-179L778,-178L797,-166L793,-151L773,-151L764,-146L753,-160L756,-175ZM814,-162L828,-156L821,-148L813,-150L803,-158L804,-165ZM769,-122L774,-130L781,-131L789,-124L789,-119L781,-119L770,-121ZM257,-299L267,-305L275,-306L276,-297L280,-305L285,-310L293,-303L291,-298L283,-294L278,-291L278,-286L271,-281L266,-288L269,-298ZM137,122L127,122L121,121L122,117L129,114L135,115L138,117L137,119ZM303,-129L316,-147L315,-156L327,-167L345,-182L363,-186L372,-194L382,-197L386,-188L382,-181L363,-170L347,-160L330,-140L322,-121L314,-104L315,-89L325,-76L322,-74L304,-76L303,-84L293,-88L292,-97L298,-101L298,-111L308,-127ZM786,128L787,136L787,145L789,154L795,168L787,166L784,178L789,186L789,191L785,186L781,192L780,186L781,178L780,169L781,163L782,152L778,143L779,131L784,127L782,123L784,122ZM-956,-48L-956,-48L-943,-37L-929,-23L-929,-14L-925,-11L-927,-21L-912,-19L-902,-6L-907,-0L-916,1L-916,14L-918,16L-923,16L-927,11L-934,8L-936,2L-941,0L-947,2L-950,-3L-949,-8L-955,-5L-953,2L-956,7L-956,7L-956,-48ZM986,7L985,7L979,13L972,12L976,18L980,28L982,32L983,36L981,40L971,37L956,46L951,47L943,55L935,62L933,67L926,59L912,68L909,64L904,68L897,67L895,74L889,84L889,88L895,90L894,105L889,105L887,113L889,117L880,122L878,132L870,134L868,143L860,151L858,145L856,133L853,112L856,99L860,93L860,88L869,86L878,73L888,62L897,53L902,37L895,38L892,47L878,59L874,46L860,49L846,68L851,74L839,77L831,78L831,71L823,69L816,74L799,72L782,76L764,95L744,118L752,119L755,125L760,127L763,123L769,123L777,133L777,141L773,149L773,160L770,173L762,184L760,190L753,199L746,208L742,212L735,216L732,216L728,213L721,218L720,221L720,221L719,219L719,216L722,215L723,207L721,200L726,197L733,199L736,191L738,183L740,180L743,173L734,175L729,178L721,178L719,170L713,165L703,162L701,154L699,148L697,145L694,136L689,132L681,130L674,130L667,132L663,136L666,138L666,143L663,146L658,155L658,159L650,164L644,161L638,162L635,159L632,158L624,164L617,165L612,167L605,166L600,166L597,162L591,158L586,157L579,158L574,159L566,156L565,149L559,147L554,146L548,142L542,151L545,156L539,162L532,160L526,160L523,156L517,156L512,153L504,157L494,164L488,166L486,166L483,161L476,163L474,159L470,157L467,152L464,151L457,153L449,148L446,153L434,130L427,123L429,120L416,129L411,130L411,125L404,121L399,124L397,114L387,112L382,116L369,119L366,122L346,125L344,128L348,134L342,136L343,139L338,143L347,149L346,153L338,153L336,155L330,151L321,151L315,155L309,151L297,145L289,145L277,155L277,161L271,156L267,165L268,167L265,173L270,179L274,178L277,184L277,188L280,189L277,194L272,195L267,203L271,210L271,215L277,224L274,227L273,228L270,228L267,223L265,223L262,222L260,219L255,217L252,218L251,217L243,213L235,212L231,211L230,212L223,205L217,203L213,198L216,197L221,190L218,187L226,184L226,182L221,184L221,180L224,178L229,177L230,175L229,170L231,166L231,163L223,161L220,161L216,157L212,158L205,155L206,153L204,150L199,149L199,147L200,145L197,140L191,141L190,140L188,142L186,142L185,136L184,133L185,132L189,133L191,131L190,128L186,127L186,125L184,123L181,117L182,115L181,110L176,108L173,109L172,107L167,104L165,99L165,94L162,92L164,88L163,79L166,73L166,71L172,65L166,60L178,46L183,39L185,33L177,25L179,17L174,7L178,-4L171,-19L176,-30L168,-39L169,-50L173,-51L183,-57L188,-63L197,-53L212,-50L232,-33L236,-26L237,-17L231,-10L222,-6L198,-16L194,-15L203,-5L203,1L203,14L210,18L214,21L215,15L212,10L215,5L228,13L233,10L229,0L242,-13L247,-12L252,-7L255,-16L250,-25L253,-33L249,-42L264,-37L267,-29L260,-28L260,-20L265,-15L273,-18L274,-27L286,-34L304,-46L309,-46L303,-37L310,-35L314,-40L324,-41L332,-47L338,-38L344,-48L339,-57L341,-62L357,-57L365,-52L384,-35L388,-43L382,-51L382,-54L376,-56L378,-63L375,-75L374,-81L384,-96L388,-112L392,-116L406,-111L407,-101L402,-87L406,-82L407,-70L406,-49L412,-40L410,-30L399,-11L405,-9L407,-13L413,-17L415,-24L420,-30L416,-39L419,-48L413,-50L412,-58L416,-74L409,-88L419,-99L417,-112L420,-112L423,-102L421,-86L427,-83L424,-95L433,-102L444,-103L454,-93L450,-107L449,-127L458,-131L471,-130L483,-133L479,-143L485,-157L491,-157L502,-168L516,-171L518,-177L532,-179L536,-174L548,-186L558,-186L560,-196L565,-206L578,-216L587,-208L579,-202L592,-198L593,-187L598,-192L614,-192L626,-181L630,-172L629,-161L623,-155L609,-144L605,-138L611,-135L619,-130L624,-134L627,-121L629,-126L638,-129L655,-126L657,-117L679,-115L680,-129L691,-126L700,-126L708,-116L711,-104L708,-97L714,-83L723,-77L728,-94L737,-87L746,-91L756,-86L760,-91L769,-88L765,-105L772,-112L797,-107L821,-101L826,-90L840,-78L862,-81L872,-78L877,-71L876,-60L883,-55L890,-58L900,-59L910,-56L920,-57L929,-44L936,-49L932,-59L934,-66L951,-61L962,-62L978,-55L986,-48L986,7ZM986,-77L980,-77L979,-82L986,-89L986,-77ZM-956,-89L-956,-89L-956,-89L-955,-90L-951,-89L-943,-85L-943,-82L-949,-78L-956,-77L-956,-77L-956,-89ZM195,192L197,190L200,192L202,192L203,194L204,194L204,195L206,197L212,196L211,199L205,200L198,205L195,203L196,200L190,197L191,196L196,193Z" fill="#E0E0E0" stroke="#fff" stroke-width=".4"/><path d="M96,-271L98,-281L106,-282L113,-271L131,-250L117,-239L114,-219L110,-215L107,-194L101,-193L89,-208L94,-217L86,-225L75,-247L71,-270L86,-281L89,-270ZM183,-57L173,-51L169,-50L171,-60L164,-67L156,-61L153,-50L148,-43L142,-47L135,-46L129,-54L126,-50L123,-50L122,-40L112,-42L110,-34L105,-34L102,-24L96,-9L88,9L90,14L88,19L83,18L79,30L79,45L83,51L81,64L77,71L74,77L71,71L60,83L53,85L45,80L43,69L42,43L47,36L61,26L72,13L81,-5L94,-31L103,-42L118,-61L130,-68L139,-67L147,-81L157,-80L167,-83L184,-71L177,-67ZM163,-282L155,-266L139,-262L123,-267L122,-276L114,-276L108,-291L125,-300L133,-292L138,-302L152,-293ZM148,-220L136,-210L127,-216L130,-222L127,-231L138,-236L140,-226Z" fill="#E0E0E0" stroke="#fff" stroke-width=".4"/><path d="M-237,-375L-219,-401L-200,-399L-194,-416L-174,-421L-153,-419L-131,-415L-98,-379L-108,-363L-128,-362L-157,-358L-155,-351L-135,-355L-119,-342L-109,-353L-104,-340L-110,-319L-96,-332L-70,-346L-54,-339L-51,-323L-73,-299L-76,-292L-93,-286L-81,-285L-87,-262L-91,-244L-91,-215L-85,-199L-93,-198L-102,-190L-92,-178L-91,-160L-97,-158L-90,-140L-102,-139L-95,-131L-97,-124L-105,-121L-112,-121L-106,-108L-105,-100L-116,-108L-119,-103L-112,-99L-105,-88L-103,-75L-112,-72L-116,-78L-123,-87L-121,-76L-127,-68L-113,-67L-106,-66L-120,-53L-135,-41L-151,-36L-157,-36L-162,-30L-170,-15L-181,-6L-185,-5L-192,-2L-200,1L-205,9L-205,18L-207,26L-216,35L-214,44L-216,54L-219,64L-227,65L-235,56L-246,56L-251,50L-254,39L-264,24L-266,16L-267,4L-275,-8L-273,-18L-276,-22L-271,-39L-263,-45L-261,-51L-260,-63L-266,-57L-269,-55L-274,-53L-280,-58L-281,-69L-278,-77L-273,-77L-262,-73L-272,-84L-276,-89L-282,-87L-286,-91L-280,-108L-284,-114L-288,-127L-294,-148L-301,-156L-301,-165L-316,-178L-327,-180L-342,-179L-355,-177L-361,-184L-370,-199L-356,-207L-345,-208L-368,-215L-381,-225L-380,-235L-359,-249L-340,-262L-338,-273L-352,-284L-347,-297L-329,-321L-321,-325L-323,-341L-310,-351L-294,-357L-277,-358L-271,-345L-257,-367L-244,-352L-237,-349L-225,-337L-238,-358Z" fill="#E0E0E0" stroke="#fff" stroke-width=".4"/><path d="M-273,666L-275,662L-272,659L-275,655L-280,651L-285,647L-287,648L-293,643L-296,643L-289,635L-283,629L-279,626L-275,623L-274,618L-277,615L-280,616L-279,613L-278,609L-278,606L-280,605L-282,606L-284,605L-285,603L-285,598L-286,596L-290,594L-292,596L-298,594L-297,587L-299,583L-297,582L-298,579L-296,576L-295,572L-297,568L-300,567L-300,565L-299,561L-310,561L-312,555L-310,555L-310,552L-311,550L-312,547L-315,546L-318,546L-320,544L-324,543L-326,541L-332,540L-338,535L-338,531L-338,529L-338,525L-345,526L-348,528L-352,530L-353,532L-356,532L-360,532L-363,533L-366,532L-365,524L-370,527L-375,527L-377,524L-380,524L-379,521L-382,518L-384,513L-383,512L-383,510L-380,508L-380,505L-379,503L-378,501L-372,497L-368,496L-367,495L-362,495L-360,481L-360,478L-360,475L-363,473L-363,469L-360,468L-359,469L-359,467L-362,466L-362,463L-351,463L-349,461L-348,463L-347,466L-346,465L-343,468L-339,468L-338,466L-334,465L-331,464L-331,462L-327,460L-327,459L-332,459L-333,455L-332,452L-335,450L-334,450L-330,451L-325,452L-324,451L-320,450L-314,448L-312,446L-313,444L-310,444L-309,445L-309,448L-308,448L-306,451L-308,453L-309,457L-307,460L-307,463L-304,465L-301,465L-300,464L-299,464L-296,463L-294,462L-291,462L-290,462L-287,462L-287,461L-288,460L-287,459L-285,459L-282,459L-279,460L-277,461L-275,459L-274,460L-273,461L-271,461L-269,459L-267,455L-264,450L-262,450L-261,453L-258,462L-255,463L-255,467L-259,471L-257,473L-247,474L-247,479L-243,475L-236,477L-227,481L-225,484L-226,487L-219,485L-209,488L-201,488L-193,492L-186,498L-182,500L-177,500L-175,502L-173,509L-173,512L-175,521L-177,525L-185,532L-188,538L-192,543L-194,543L-195,547L-195,558L-196,566L-197,570L-199,572L-200,580L-205,588L-206,594L-210,596L-212,600L-218,600L-226,602L-230,604L-236,606L-242,611L-247,617L-248,621L-247,625L-248,631L-249,634L-253,637L-259,648L-263,653L-267,656L-270,662Z" fill="#E0E0E0" stroke="#fff" stroke-width=".4"/><path d="M-264,450L-267,455L-269,459L-271,461L-273,461L-274,460L-275,459L-277,461L-279,460L-278,457L-277,455L-276,453L-279,449L-279,446L-276,441L-274,442L-270,443L-265,448ZM48,164L51,167L58,168L56,174L55,179L54,181L51,180L51,182L47,187L47,190L50,189L52,192L51,194L53,197L51,200L53,206L55,207L55,210L50,214L39,212L31,214L31,219L25,220L19,216L17,218L7,215L5,212L7,207L8,192L3,184L-1,180L-9,177L-10,171L-3,169L6,171L4,162L9,165L22,159L24,152L28,150L29,153L32,153L34,157L38,161L41,160L45,164L47,165ZM62,218L65,215L66,221L65,227L62,225L61,220Z" fill="#E0E0E0" stroke="#fff" stroke-width=".4"/><path d="M-75,398L-78,394L-80,392L-78,391L-75,387L-74,384L-72,382L-69,383L-67,382L-64,381L-61,383L-58,385L-54,389L-51,393L-51,396L-50,399L-48,401L-47,403L-47,405L-48,405L-51,404L-51,405L-53,405L-57,404L-59,404L-69,404L-71,404L-72,404L-75,405L-76,401L-71,401L-70,400L-69,400L-67,399L-65,400L-62,400L-60,399L-61,397L-63,398L-64,398L-67,397L-68,397L-69,398Z" fill="#E0E0E0" stroke="#fff" stroke-width=".4"/><path d="M-47,405L-47,403L-48,401L-50,399L-51,396L-51,393L-49,392L-48,388L-46,388L-43,390L-40,389L-38,389L-37,388L-15,388L-14,384L-15,383L-17,358L-20,333L-12,333L6,346L25,359L26,361L29,363L32,364L32,368L38,367L38,380L35,384L34,387L30,388L22,389L20,391L17,391L13,391L12,390L9,391L4,393L3,395L-1,397L-2,399L-4,400L-7,399L-8,400L-9,404L-13,409L-13,410L-15,413L-14,416L-17,417L-18,418L-19,415L-20,416L-21,416L-22,417L-26,417L-28,416L-29,417L-30,415L-30,414L-31,413L-32,414L-32,412L-30,410L-33,408L-33,407L-34,405L-36,405L-37,406L-39,407L-40,408L-42,407L-44,406L-45,406L-46,407L-47,407Z" fill="#E0E0E0" stroke="#fff" stroke-width=".4"/><path d="M-77,356L-76,354L-55,354L-56,346L-55,343L-50,343L-50,327L-32,328L-32,319L-12,333L-20,333L-17,358L-15,383L-14,384L-15,388L-37,388L-38,389L-40,389L-43,390L-46,388L-48,388L-49,392L-51,393L-54,389L-58,385L-61,383L-64,381L-67,382L-69,383L-72,382L-74,384L-74,381L-73,378L-72,373L-73,367L-74,364L-73,362L-74,359Z" fill="#E0E0E0" stroke="#fff" stroke-width=".4"/><path d="M29,438L25,439L24,435L24,423L23,422L22,419L21,417L19,415L20,413L21,412L23,410L25,409L26,407L28,406L30,406L34,409L34,411L35,414L34,416L35,418L32,421L30,423L29,426L30,430Z" fill="#E0E0E0" stroke="#fff" stroke-width=".4"/><path d="M95,346L96,355L98,356L98,358L101,360L99,362L97,374L97,381L90,387L88,394L90,396L90,400L93,400L93,402L91,403L91,404L90,404L87,398L85,398L81,401L77,400L74,399L72,400L69,400L66,402L63,402L57,400L54,401L52,401L50,399L44,397L38,397L37,399L36,402L35,404L34,409L30,406L28,406L26,407L27,404L20,402L20,400L17,396L16,393L17,391L20,391L22,389L30,388L34,387L35,384L38,380L38,367L45,364L61,353L79,342L88,344L91,348Z" fill="#E0E0E0" stroke="#fff" stroke-width=".4"/><path d="M29,438L30,430L29,426L30,423L32,421L35,418L34,416L35,414L34,411L34,409L35,404L36,402L37,399L38,397L44,397L50,399L52,401L54,401L57,400L63,402L66,402L69,400L72,400L74,399L77,400L81,401L85,398L87,398L90,404L91,404L93,407L93,408L93,409L88,414L87,417L86,420L85,421L84,425L81,427L80,430L79,432L78,434L74,436L71,434L69,434L66,437L65,437L62,443L61,446L55,448L53,448L51,449L47,449L44,446L42,442L38,438L34,438Z" fill="#E0E0E0" stroke="#fff" stroke-width=".4"/><path d="M93,402L95,406L95,409L95,413L98,418L95,418L94,418L91,418L90,420L93,424L96,425L96,427L98,431L97,432L94,438L93,439L93,443L93,445L93,447L95,450L96,451L98,454L100,456L101,458L101,460L101,463L96,462L92,460L85,460L85,460L81,460L78,460L76,460L67,460L68,456L65,452L63,451L62,449L61,448L61,446L62,443L65,437L66,437L69,434L71,434L74,436L78,434L79,432L80,430L81,427L84,425L85,421L86,420L87,417L88,414L93,409L93,408L93,407L91,404L91,403Z" fill="#E0E0E0" stroke="#fff" stroke-width=".4"/><path d="M20,413L19,415L21,417L22,419L23,422L24,423L24,435L25,439L20,440L19,438L18,435L17,432L19,427L17,425L17,421L17,417L15,414L15,412Z" fill="#E0E0E0" stroke="#fff" stroke-width=".4"/><path d="M15,412L15,414L17,417L17,421L17,425L19,427L17,432L18,435L19,438L20,440L12,443L9,445L4,447L-1,445L-0,443L-3,438L-1,432L1,428L-0,420L-1,416L-1,413L8,412L11,413L12,412Z" fill="#E0E0E0" stroke="#fff" stroke-width=".4"/><path d="M-29,417L-28,416L-26,417L-22,417L-21,416L-20,416L-19,415L-18,418L-17,417L-14,416L-12,417L-11,419L-9,420L-7,419L-4,419L-0,420L1,428L-1,432L-3,438L-0,443L-1,445L-3,445L-7,444L-10,444L-17,445L-20,447L-26,449L-27,449L-26,444L-26,444L-26,441L-28,439L-30,439L-32,437L-30,435L-31,432L-31,431L-30,431L-30,428L-30,427L-29,426L-27,426L-29,421L-30,419L-30,417Z" fill="#E0E0E0" stroke="#fff" stroke-width=".4"/><path d="M-59,404L-57,404L-53,405L-51,405L-51,404L-48,405L-47,405L-47,407L-46,407L-45,406L-44,406L-42,407L-40,408L-39,407L-37,406L-36,405L-34,405L-33,407L-33,408L-30,410L-32,412L-32,414L-31,413L-30,414L-30,415L-29,417L-30,417L-30,419L-29,421L-27,426L-29,426L-30,427L-30,428L-30,431L-31,431L-32,431L-33,433L-35,433L-36,432L-36,429L-38,426L-39,427L-40,427L-42,427L-42,425L-43,424L-43,422L-44,420L-45,418L-50,418L-51,419L-52,419L-53,420L-54,422L-57,424L-59,421L-61,419L-63,418L-64,417L-64,414L-65,413L-67,412L-64,410L-63,410L-61,409L-60,409L-59,408L-60,406L-59,406Z" fill="#E0E0E0" stroke="#fff" stroke-width=".4"/><path d="M-75,405L-72,404L-71,404L-69,404L-59,404L-59,406L-60,406L-59,408L-60,409L-61,409L-63,410L-64,410L-67,412L-70,410L-72,410L-73,408L-73,407L-75,406Z" fill="#E0E0E0" stroke="#fff" stroke-width=".4"/><path d="M-31,431L-31,432L-30,435L-32,437L-30,439L-28,439L-26,441L-26,444L-26,444L-27,449L-28,449L-34,446L-39,442L-43,439L-47,436L-46,434L-45,432L-43,429L-40,427L-39,427L-38,426L-36,429L-36,432L-35,433L-33,433L-32,431Z" fill="#E0E0E0" stroke="#fff" stroke-width=".4"/><path d="M-57,424L-54,422L-53,420L-52,419L-51,419L-50,418L-45,418L-44,420L-43,422L-43,424L-42,425L-42,427L-40,427L-43,429L-45,432L-46,434L-47,436L-48,435L-52,433L-55,430L-56,428Z" fill="#E0E0E0" stroke="#fff" stroke-width=".4"/><path d="M-14,416L-15,413L-13,410L-13,409L-9,404L-8,400L-7,399L-4,400L-2,399L-1,397L3,395L4,393L9,391L12,390L13,391L17,391L16,393L17,396L20,400L20,402L27,404L26,407L25,409L23,410L21,412L20,413L15,412L12,412L11,413L8,412L-1,413L-1,416L-0,420L-4,419L-7,419L-9,420L-11,419L-12,417Z" fill="#E0E0E0" stroke="#fff" stroke-width=".4"/><path d="M162,444L161,445L157,444L153,444L151,444L150,446L149,446L146,445L140,447L138,447L137,447L136,450L132,449L128,449L124,447L120,445L117,447L115,450L114,453L111,453L107,452L104,455L101,460L101,458L100,456L98,454L96,451L95,450L93,447L93,445L93,443L93,439L94,438L97,432L102,432L103,430L104,430L105,432L112,430L114,427L117,426L116,424L118,423L123,423L128,421L132,415L135,413L138,412L139,414L142,418L142,420L141,422L141,424L143,425L147,428L150,430L150,432L154,435L156,437L158,440L162,442Z" fill="#E0E0E0" stroke="#fff" stroke-width=".4"/><path d="M114,453L114,457L112,459L111,463L111,468L111,471L110,473L110,475L109,476L106,479L103,482L101,487L101,491L100,493L97,496L93,499L91,498L91,497L88,497L86,499L85,498L83,496L81,497L79,499L75,494L79,491L77,487L79,486L82,485L83,483L85,485L90,486L92,483L93,479L92,475L89,472L92,466L90,465L86,465L85,462L85,460L92,460L96,462L101,463L101,460L104,455L107,452L111,453Z" fill="#E0E0E0" stroke="#fff" stroke-width=".4"/><path d="M76,460L78,460L81,460L85,460L85,460L85,462L86,465L90,465L92,466L89,472L92,475L93,479L92,483L90,486L85,485L83,483L82,485L79,486L77,487L79,491L75,494L69,488L65,484L62,478L62,476L64,475L65,471L66,467L68,466L76,467Z" fill="#E0E0E0" stroke="#fff" stroke-width=".4"/><path d="M67,460L76,460L76,467L68,466L66,467L65,466Z" fill="#E0E0E0" stroke="#fff" stroke-width=".4"/><path d="M85,498L83,499L82,501L82,503L80,504L79,499L81,497L83,496ZM81,505L83,504L85,505L87,504L103,504L104,508L106,511L107,513L109,516L113,515L114,515L117,515L118,514L119,511L123,511L123,510L126,510L125,512L132,512L132,515L133,517L132,520L133,524L135,526L134,532L136,532L138,532L141,531L144,532L144,533L144,536L145,538L144,541L144,542L133,542L133,560L136,565L140,568L130,571L117,570L113,567L91,567L91,568L87,565L84,565L81,566L78,567L78,563L78,559L80,553L80,551L82,546L83,544L87,540L88,538L89,534L89,530L87,528L86,525L84,522L85,521L86,519L85,513L83,510L81,506Z" fill="#E0E0E0" stroke="#fff" stroke-width=".4"/><path d="M179,485L179,487L181,489L181,490L179,492L177,494L175,496L173,497L173,490L171,488L175,488L176,485Z" fill="#E0E0E0" stroke="#fff" stroke-width=".4"/><path d="M207,285L206,287L205,287L203,291L205,291L203,292L203,294L206,293L206,296L203,306L203,304L200,295L201,293L201,292L202,289L203,285L204,283L204,283L206,283L207,282L208,282L208,284L207,285Z" fill="#E0E0E0" stroke="#fff" stroke-width=".4"/><path d="M208,282L207,282L206,283L204,283L206,278L209,273L209,273L211,273L212,276L209,278Z" fill="#E0E0E0" stroke="#fff" stroke-width=".4"/><path d="M206,293L203,294L203,292L205,291L203,291L205,287L206,287L206,291Z" fill="#E0E0E0" stroke="#fff" stroke-width=".4"/><path d="M-75,398L-69,398L-68,397L-67,397L-64,398L-63,398L-61,397L-60,399L-62,400L-65,400L-67,399L-69,400L-70,400L-71,401L-76,401Z" fill="#E0E0E0" stroke="#fff" stroke-width=".4"/><path d="M66,301L64,289L60,287L60,285L56,281L55,276L59,273L60,267L59,261L60,258L66,255L70,256L70,259L74,257L75,258L72,261L72,264L74,266L73,272L70,275L71,278L73,279L75,282L77,283L76,288L74,289L72,291L68,294L69,296L69,299Z" fill="#E0E0E0" stroke="#fff" stroke-width=".4"/><path d="M-32,319L-32,317L-32,317L-32,310L-23,305L-18,304L-14,302L-11,299L-5,297L-5,292L-2,292L1,289L8,288L9,286L7,284L5,278L5,274L3,269L8,266L14,265L17,262L23,260L32,259L41,258L43,259L49,256L54,256L57,258L60,258L59,261L60,267L59,273L55,276L56,281L60,285L60,287L64,289L66,301L68,306L68,309L67,314L67,317L67,320L67,324L65,326L68,331L68,333L70,337L73,336L77,338L79,342L61,353L45,364L38,367L32,368L32,364L29,363L26,361L25,359L6,346L-12,333Z" fill="#E0E0E0" stroke="#fff" stroke-width=".4"/><path d="M206,287L207,285L213,288L224,281L226,289L225,290L214,293L220,299L218,300L217,302L213,303L212,306L209,307L203,307L203,306L206,296L206,293L206,291Z" fill="#E0E0E0" stroke="#fff" stroke-width=".4"/><path d="M293,337L294,337L294,339L298,338L303,338L306,338L310,334L314,330L317,327L318,329L319,333L316,333L316,337L317,338L314,339L314,342L313,344L313,346L311,348L295,345L293,339Z" fill="#E0E0E0" stroke="#fff" stroke-width=".4"/><path d="M289,334L288,330L290,327L291,326L293,328L293,332L292,335L290,336Z" fill="#E0E0E0" stroke="#fff" stroke-width=".4"/><path d="M274,303L275,305L274,307L276,311L272,312L271,309L266,308L270,302Z" fill="#E0E0E0" stroke="#fff" stroke-width=".4"/><path d="M226,289L224,281L236,274L238,266L237,261L240,260L243,256L245,255L252,255L254,257L256,256L260,264L263,266L264,270L261,272L260,277L263,283L270,287L273,292L272,296L274,296L274,300L277,303L274,303L270,302L266,308L256,308L241,295L233,291Z" fill="#E0E0E0" stroke="#fff" stroke-width=".4"/><path d="M313,346L313,344L314,342L314,339L317,338L316,337L316,333L319,333L321,337L324,340L328,340L332,341L334,345L335,347L337,347L337,349L335,352L334,354L332,356L330,360L328,359L327,361L326,364L326,367L326,368L323,368L320,370L320,373L318,374L315,374L313,376L313,378L310,379L307,379L304,381L301,381L299,377L295,368L311,362L315,351ZM318,329L317,327L319,325L319,325L319,328Z" fill="#E0E0E0" stroke="#fff" stroke-width=".4"/><path d="M568,406L567,399L570,395L577,394L582,394L587,397L589,393L594,395L595,399L594,405L585,409L588,413L582,413L577,415L573,415L571,412Z" fill="#E0E0E0" stroke="#fff" stroke-width=".4"/><path d="M582,394L577,394L570,395L567,399L568,406L563,403L559,404L559,399L555,399L554,405L551,413L550,418L550,422L553,422L556,427L557,432L560,435L563,436L566,439L564,441L560,441L560,439L555,436L555,437L552,435L551,433L549,429L546,427L545,430L544,427L545,424L546,418L549,413L552,408L550,403L550,400L549,397L546,393L544,390L546,389L548,384L546,380L543,376L540,371L542,370L545,364L548,364L552,361L555,360L557,361L557,365L561,365L560,371L560,376L565,373L567,374L570,374L571,372L575,372L580,377L580,382L584,387L584,392Z" fill="#E0E0E0" stroke="#fff" stroke-width=".4"/><path d="M594,395L589,393L587,397L582,394L584,392L584,387L580,382L580,377L575,372L571,372L570,374L567,374L565,373L560,376L560,371L561,365L557,365L557,361L555,360L556,358L560,354L561,355L564,355L563,349L566,348L569,352L571,358L578,358L580,363L577,364L575,366L582,370L586,376L589,381L594,385L595,389Z" fill="#E0E0E0" stroke="#fff" stroke-width=".4"/><path d="M555,360L552,361L548,364L545,364L542,370L540,371L543,376L546,380L548,384L546,389L544,390L546,393L549,397L550,400L550,403L552,408L549,413L546,418L546,414L547,410L546,407L546,401L544,398L542,391L541,384L539,380L535,382L529,386L526,386L523,385L525,378L523,372L519,366L520,364L517,363L513,358L513,354L514,354L515,350L517,349L517,346L518,344L518,338L522,340L525,335L525,332L528,327L528,323L535,319L539,320L538,317L540,316L540,313L543,313L545,316L547,318L547,322L547,327L542,332L541,339L547,338L548,344L552,345L550,350L554,352L556,353L560,351L560,354L556,358Z" fill="#E0E0E0" stroke="#fff" stroke-width=".4"/><path d="M577,415L582,413L588,413L585,409L594,405L595,399L594,395L595,389L594,385L589,381L586,376L582,370L575,366L577,364L580,363L578,358L571,358L569,352L566,348L569,346L573,346L578,346L583,343L585,345L590,346L589,349L592,352L597,353L590,358L586,364L585,368L589,374L594,381L599,384L602,389L604,399L604,409L599,412L593,416L589,421L582,426L580,422L581,418Z" fill="#E0E0E0" stroke="#fff" stroke-width=".4"/><path d="M720,221L720,221L720,221ZM719,219L720,221L718,220L716,223L714,225L714,230L711,232L711,233L709,235L705,236L703,238L702,241L702,242L704,243L707,246L706,248L704,248L700,249L698,252L696,251L695,252L693,251L692,252L690,253L690,251L689,251L687,250L689,247L690,246L690,245L691,241L691,240L687,239L685,237L689,232L695,229L699,224L702,226L706,226L705,222L714,219L716,215Z" fill="#E0E0E0" stroke="#fff" stroke-width=".4"/><path d="M695,252L696,251L698,252L700,249L704,248L706,248L707,246L712,254L713,259L713,266L711,270L706,271L702,274L697,275L696,271L697,266L695,259L699,258Z" fill="#E0E0E0" stroke="#fff" stroke-width=".4"/><path d="M488,166L494,164L504,157L512,153L517,156L523,156L526,160L532,160L539,162L545,156L542,151L548,142L554,146L559,147L565,149L566,156L574,159L579,158L586,157L591,158L597,162L600,166L605,166L612,167L617,165L624,164L632,158L635,159L638,162L644,161L641,167L638,175L639,179L642,178L647,179L652,176L656,178L661,184L660,187L656,186L648,187L644,189L640,194L632,197L627,201L621,200L618,199L615,204L617,207L618,209L614,212L610,216L604,218L596,219L587,221L581,225L578,223L572,223L564,218L559,217L551,218L540,217L534,217L531,213L529,206L525,205L519,200L512,199L505,198L503,194L505,185L502,179L494,176L489,172Z" fill="#E0E0E0" stroke="#fff" stroke-width=".4"/><path d="M540,313L540,316L538,317L539,320L535,319L528,323L528,327L525,332L525,335L522,340L518,338L518,344L517,346L517,349L515,350L512,341L510,341L509,345L506,342L508,338L510,338L513,333L510,332L505,332L500,331L499,327L497,327L492,324L490,328L494,332L491,334L490,336L493,337L492,341L494,345L495,350L494,352L490,352L484,353L484,358L481,361L474,365L467,372L463,375L458,379L458,382L455,383L450,385L448,385L446,390L447,397L448,401L445,407L445,416L443,416L440,421L442,422L437,424L435,428L433,429L428,424L425,416L423,411L421,408L419,403L417,396L416,393L411,385L409,374L407,367L408,360L406,354L399,358L395,357L388,350L390,348L389,346L382,341L386,337L398,337L397,332L394,329L393,324L390,321L396,315L402,315L408,309L411,303L416,296L416,292L421,288L416,285L414,281L413,275L415,272L423,274L429,273L435,267L440,275L440,280L442,284L442,287L438,286L439,293L445,297L452,301L449,304L447,310L452,312L457,315L464,319L471,319L475,323L479,323L485,325L490,324L490,322L490,318L490,316L493,314L494,319L494,320L499,323L502,322L507,322L511,322L512,318L509,316L514,315L519,311L525,307L529,309L533,306L536,310L534,312Z" fill="#E0E0E0" stroke="#fff" stroke-width=".4"/><path d="M515,350L514,354L513,354L513,358L511,355L511,352L510,349L508,346L503,346L503,348L502,352L499,350L499,351L497,351L495,350L494,345L492,341L493,337L490,336L491,334L494,332L490,328L492,324L497,327L499,327L500,331L505,332L510,332L513,333L510,338L508,338L506,342L509,345L510,341L512,341Z" fill="#E0E0E0" stroke="#fff" stroke-width=".4"/><path d="M509,316L512,318L511,322L507,322L502,322L499,323L494,320L494,319L497,315L500,313L504,314L507,315Z" fill="#E0E0E0" stroke="#fff" stroke-width=".4"/><path d="M490,316L490,318L490,322L490,324L485,325L479,323L475,323L471,319L464,319L457,315L452,312L447,310L449,304L452,301L454,300L459,302L464,306L467,307L469,310L473,311L478,314L484,315Z" fill="#E0E0E0" stroke="#fff" stroke-width=".4"/><path d="M435,267L429,273L423,274L415,272L413,275L414,281L416,285L421,288L416,292L416,296L411,303L408,309L402,315L396,315L390,321L393,324L394,329L397,332L398,337L386,337L382,341L379,339L377,335L373,330L363,332L354,332L346,332L348,326L356,322L356,320L353,319L353,313L348,311L346,307L343,304L352,307L358,306L361,307L362,305L366,306L373,303L373,298L376,294L380,294L380,293L385,292L387,292L389,291L388,287L391,283L394,281L392,277L397,277L399,275L398,272L401,270L400,266L399,263L402,260L408,259L414,258L417,257L420,256L424,259L426,265Z" fill="#E0E0E0" stroke="#fff" stroke-width=".4"/><path d="M374,255L377,255L381,256L382,257L386,255L388,256L390,253L393,253L394,252L394,249L397,247L400,249L399,251L401,251L400,257L402,259L404,258L407,257L410,254L414,254L419,254L420,256L417,257L414,258L408,259L402,260L399,263L400,266L401,270L398,272L399,275L397,277L392,277L394,281L391,283L388,287L389,291L387,292L385,292L380,293L380,294L376,294L373,298L373,303L366,306L362,305L361,307L358,306L352,307L343,304L348,298L348,294L343,293L343,289L341,284L344,280L341,279L343,274L345,266L350,269L354,268L356,265L360,264L363,262L364,256L368,255L369,253L372,255Z" fill="#E0E0E0" stroke="#fff" stroke-width=".4"/><path d="M381,256L384,249L382,244L378,243L380,239L384,240L387,236L389,231L396,230L395,233L396,235L398,235L396,237L390,236L389,240L395,239L402,242L412,240L413,247L415,246L419,248L418,250L419,254L414,254L410,254L407,257L404,258L402,259L400,257L401,251L399,251L400,249L397,247L394,249L394,252L393,253L390,253L388,256L386,255L382,257Z" fill="#E0E0E0" stroke="#fff" stroke-width=".4"/><path d="M397,220L399,217L402,216L411,219L412,214L415,213L423,216L425,215L434,215L442,216L444,219L448,220L447,221L438,225L436,228L430,229L427,233L422,233L418,234L413,237L414,239L412,240L402,242L395,239L389,240L390,236L396,237L398,235L402,235L409,230L402,227L399,228L395,226L399,221Z" fill="#E0E0E0" stroke="#fff" stroke-width=".4"/><path d="M298,224L300,221L306,220L310,222L314,228L317,227L323,227L322,223L326,221L331,217L338,221L339,226L341,228L347,227L349,229L351,236L357,241L361,244L366,248L374,251L374,255L372,255L369,253L368,255L364,256L363,262L360,264L356,265L354,268L350,269L345,266L344,261L340,260L334,254L330,254L324,250L320,250L318,251L314,251L310,255L306,256L305,251L305,244L301,241L303,237L299,236L300,230L305,232L310,230L306,225L304,221L300,223L300,228Z" fill="#E0E0E0" stroke="#fff" stroke-width=".4"/><path d="M277,303L274,300L274,296L272,296L273,292L270,287L263,283L260,277L261,272L264,270L263,266L260,264L256,256L253,251L254,248L253,241L256,239L257,241L260,244L264,245L266,245L272,240L274,239L276,241L274,245L277,249L278,248L280,253L285,255L289,258L297,259L305,257L306,256L310,255L314,251L318,251L320,250L324,250L330,254L334,254L340,260L344,261L345,266L343,274L341,279L344,280L341,284L343,289L343,293L348,294L348,298L343,304L346,307L348,311L353,313L353,319L356,320L356,322L348,326L346,332L336,331L330,329L324,329L322,321L319,320L315,321L310,324L303,322L298,317L293,316L289,310L285,302L282,303L279,301Z" fill="#E0E0E0" stroke="#fff" stroke-width=".4"/><path d="M207,285L207,285L208,284L208,282L209,278L212,276L211,273L209,273L208,268L210,265L211,264L213,262L213,258L215,260L221,258L223,259L228,259L234,257L237,257L243,256L240,260L237,261L238,266L236,274L224,281L213,288Z" fill="#E0E0E0" stroke="#fff" stroke-width=".4"/><path d="M266,245L264,245L261,241L261,240L259,240L257,238L256,239L254,236L250,235L251,231L250,229L257,228L258,230L260,231L259,233L262,235L261,237L263,239L265,240Z" fill="#E0E0E0" stroke="#fff" stroke-width=".4"/><path d="M74,77L77,71L81,64L83,51L79,45L79,30L83,18L88,19L90,14L88,9L96,-9L102,-24L105,-34L110,-34L112,-42L122,-40L123,-50L126,-50L133,-43L142,-33L142,-12L144,-6L134,-3L129,6L130,14L121,24L111,34L107,51L111,58L116,64L111,76L106,79L103,96L100,105L94,104L91,112L85,112L83,103L78,92Z" fill="#E0E0E0" stroke="#fff" stroke-width=".4"/><path d="M167,104L172,107L173,109L176,108L181,110L182,115L181,117L184,123L186,125L186,127L190,128L191,131L189,133L185,132L184,133L185,136L186,142L182,142L180,144L180,149L177,148L173,148L171,146L169,148L167,147L163,146L157,144L151,144L147,144L144,146L142,146L142,143L140,139L143,137L143,133L142,130L141,126L147,126L152,122L154,117L158,114L158,110L161,108Z" fill="#E0E0E0" stroke="#fff" stroke-width=".4"/><path d="M186,142L188,142L190,140L191,141L197,140L200,145L199,147L199,149L204,150L206,153L205,155L212,158L216,157L220,161L223,161L231,163L231,166L229,170L230,175L229,177L224,178L221,180L221,184L217,184L213,187L208,187L203,190L204,194L203,194L202,192L200,192L197,190L195,192L194,192L186,190L186,187L181,188L179,192L174,198L172,196L169,198L167,196L168,195L169,193L171,190L170,189L172,188L172,189L175,189L177,189L176,188L176,187L174,185L173,182L171,180L172,178L169,175L167,175L163,173L160,173L158,175L156,175L155,176L151,177L149,178L146,177L143,176L140,176L137,177L137,175L134,173L135,170L136,168L138,168L136,164L141,157L144,156L144,154L142,146L144,146L147,144L151,144L157,144L163,146L167,147L169,148L171,146L173,148L177,148L180,149L180,144L182,142Z" fill="#E0E0E0" stroke="#fff" stroke-width=".4"/><path d="M141,126L142,130L143,133L143,137L140,139L142,143L142,146L144,154L144,156L141,157L136,164L138,168L136,168L131,164L127,166L125,165L122,166L119,164L117,165L116,164L114,160L110,160L109,157L106,156L105,158L102,156L102,154L98,153L96,151L94,145L94,142L93,137L91,134L92,132L91,127L95,124L103,120L110,117L115,119L116,121L121,121L127,122L137,122L140,123Z" fill="#E0E0E0" stroke="#fff" stroke-width=".4"/><path d="M106,175L106,179L103,179L104,180L102,186L101,187L96,187L94,189L89,188L82,186L80,183L75,185L74,186L71,185L68,185L66,184L67,182L67,180L68,180L71,182L72,180L76,180L80,179L83,179L85,181L85,179L84,174L86,173L88,169L92,172L95,169L97,168L101,170L104,170L106,172L106,173Z" fill="#E0E0E0" stroke="#fff" stroke-width=".4"/><path d="M134,173L137,175L137,177L134,179L131,184L128,190L124,191L120,191L116,193L114,194L110,193L106,189L104,188L103,186L102,186L104,180L103,179L106,179L106,175L109,177L111,178L116,177L116,176L118,175L121,174L121,175L124,174L125,172L127,171L133,174Z" fill="#E0E0E0" stroke="#fff" stroke-width=".4"/><path d="M158,175L160,173L163,173L167,175L169,175L172,178L171,180L173,182L174,185L176,187L176,188L177,189L175,189L172,189L172,188L170,189L171,190L169,193L168,195L167,196L166,193L167,189L166,186L163,181L162,178L160,175Z" fill="#E0E0E0" stroke="#fff" stroke-width=".4"/><path d="M167,196L169,198L172,196L174,198L175,200L172,201L170,201L169,210L166,209L162,206L155,208L153,210L145,209L141,208L139,209L137,206L136,204L137,203L136,202L134,204L131,202L131,199L127,197L127,194L124,191L128,190L131,184L134,179L137,177L140,176L143,176L146,177L149,178L151,177L155,176L156,175L158,175L160,175L162,178L163,181L166,186L167,189L166,193Z" fill="#E0E0E0" stroke="#fff" stroke-width=".4"/><path d="M158,110L158,114L154,117L152,122L147,126L141,126L140,123L137,122L137,119L138,117L135,115L129,114L128,106L134,103L144,103L149,102L150,104L152,105Z" fill="#E0E0E0" stroke="#fff" stroke-width=".4"/><path d="M162,92L165,94L165,99L167,104L161,108L158,110L152,105L150,104L149,102L144,103L134,103L128,106L129,98L131,92L136,89L141,96L145,96L146,88L150,87L153,88L157,92Z" fill="#E0E0E0" stroke="#fff" stroke-width=".4"/><path d="M166,71L166,73L163,79L164,88L162,92L157,92L153,88L150,87L146,88L147,82L145,84L141,80L141,74L147,71L154,69L160,71Z" fill="#E0E0E0" stroke="#fff" stroke-width=".4"/><path d="M91,127L92,132L91,134L93,137L94,142L94,145L96,151L93,151L92,150L91,152L87,154L85,156L81,158L82,160L82,164L85,166L88,169L86,173L84,174L85,179L85,181L83,179L80,179L76,180L72,180L71,182L68,180L67,180L61,178L60,179L55,179L56,174L58,168L51,167L48,164L48,161L47,159L48,153L47,144L50,144L52,141L53,133L52,130L53,128L58,127L59,129L62,125L61,121L61,116L65,117L68,116L68,119L74,122L74,125L79,123L82,121L88,124Z" fill="#E0E0E0" stroke="#fff" stroke-width=".4"/><path d="M137,206L139,209L141,208L145,209L153,210L155,208L162,206L166,209L169,210L166,213L164,218L166,222L161,221L156,223L156,227L151,228L147,225L143,227L139,227L138,222L135,220L136,219L136,218L137,216L139,213L136,210L136,207Z" fill="#E0E0E0" stroke="#fff" stroke-width=".4"/><path d="M157,269L156,270L148,271L148,270L142,269L143,266L146,268L150,268L154,268L154,269ZM139,227L143,227L147,225L151,228L156,227L156,223L158,225L157,230L155,231L152,230L149,230L143,232L146,236L144,237L141,237L138,233L137,235L138,239L141,242L139,244L142,247L144,249L144,253L139,251L141,254L138,255L140,261L136,261L132,258L130,253L129,248L127,245L124,241L123,239L126,236L126,233L128,232L128,231L132,230L134,228L137,228L138,227Z" fill="#E0E0E0" stroke="#fff" stroke-width=".4"/><path d="M256,256L254,257L252,255L245,255L243,256L237,257L234,257L228,259L223,259L221,258L215,260L213,258L213,262L211,264L210,265L208,262L210,260L207,260L202,259L198,262L190,263L186,260L180,259L179,262L175,263L170,259L164,259L161,253L157,249L159,244L156,240L162,234L170,233L172,228L183,229L189,224L196,222L204,222L214,227L222,230L228,229L233,229L239,226L245,225L250,229L251,231L250,235L254,236L256,239L253,241L254,248L253,251ZM156,223L161,221L166,222L166,225L171,227L170,229L164,229L161,232L157,235L155,232L155,231L157,230L158,225Z" fill="#E0E0E0" stroke="#fff" stroke-width=".4"/><path d="M128,231L128,232L126,233L126,236L123,239L123,239L122,237L119,235L119,231L119,226L120,224L119,223L119,221L121,217L122,219L123,218L124,220L125,221L126,223L125,226L126,229Z" fill="#E0E0E0" stroke="#fff" stroke-width=".4"/><path d="M104,188L106,189L110,193L114,194L116,193L118,196L119,198L117,201L115,199L111,199L106,198L104,198L103,200L101,198L100,201L102,205L104,207L106,210L108,212L110,215L115,217L114,219L109,216L106,213L101,211L97,206L98,205L95,202L95,199L92,198L90,201L88,199L89,196L89,196L93,196L93,195L95,196L97,196L97,194L99,193L100,190Z" fill="#E0E0E0" stroke="#fff" stroke-width=".4"/><path d="M67,180L67,182L66,184L68,185L71,185L71,188L68,190L64,189L63,192L61,192L60,191L57,194L54,194L52,192L50,189L47,190L47,187L51,182L51,180L54,181L55,179L60,179L61,178Z" fill="#E0E0E0" stroke="#fff" stroke-width=".4"/><path d="M47,159L48,161L48,164L47,165L45,164L46,159Z" fill="#E0E0E0" stroke="#fff" stroke-width=".4"/><path d="M48,153L47,159L46,159L45,164L41,160L38,161L34,157L32,153L29,153L28,150L33,148L37,149L42,147L45,151Z" fill="#E0E0E0" stroke="#fff" stroke-width=".4"/><path d="M52,130L53,133L52,141L50,144L47,144L48,153L45,151L42,147L37,149L33,148L35,146L40,133L48,129Z" fill="#E0E0E0" stroke="#fff" stroke-width=".4"/><path d="M-34,223L-32,221L-30,220L-28,224L-25,224L-24,223L-21,223L-20,227L-22,229L-22,234L-23,235L-23,239L-26,239L-24,243L-25,248L-23,250L-24,252L-26,254L-25,257L-28,258L-30,257L-33,258L-32,253L-33,249L-35,248L-37,245L-36,241L-34,238L-34,235L-33,231L-33,228L-34,226Z" fill="#E0E0E0" stroke="#fff" stroke-width=".4"/><path d="M-25,257L-26,254L-24,252L-23,250L-25,248L-24,243L-26,239L-23,239L-23,235L-22,234L-22,229L-20,227L-21,223L-24,223L-25,224L-28,224L-30,220L-32,221L-34,223L-34,218L-36,215L-28,209L-22,211L-14,211L-9,212L-4,212L5,212L7,215L17,218L19,216L25,220L31,219L31,223L26,228L19,229L19,232L15,236L13,241L15,245L12,248L11,253L7,254L3,259L-4,259L-9,259L-12,262L-14,264L-17,264L-19,261L-20,258Z" fill="#E0E0E0" stroke="#fff" stroke-width=".4"/><path d="M-19,126L-18,133L-22,141L-31,146L-39,144L-35,135L-37,126L-30,119L-26,114L-25,119L-26,124L-23,124Z" fill="#E0E0E0" stroke="#fff" stroke-width=".4"/><path d="M456,432L455,437L453,439L448,440L446,436L445,428L447,419L451,422L453,426Z" fill="#E0E0E0" stroke="#fff" stroke-width=".4"/><path d="M605,372L601,371L601,366L603,363L609,362L612,362L613,364L611,366L610,370ZM448,220L447,215L451,214L446,201L457,197L459,196L463,182L474,184L477,181L477,173L482,172L486,166L488,166L489,172L494,176L502,179L505,185L503,194L505,198L512,199L519,200L525,205L529,206L531,213L534,217L540,217L551,218L559,217L564,218L572,223L578,223L581,225L587,221L596,219L604,218L610,216L614,212L618,209L617,207L615,204L618,199L621,200L627,201L632,197L640,194L644,189L648,187L656,186L660,187L661,184L656,178L652,176L647,179L642,178L639,179L638,175L641,167L644,161L650,164L658,159L658,155L663,146L666,143L666,138L663,136L667,132L674,130L681,130L689,132L694,136L697,145L699,148L701,154L703,162L713,165L719,170L721,178L729,178L734,175L743,173L740,180L738,183L736,191L733,199L726,197L721,200L723,207L722,215L719,216L719,219L716,215L714,219L705,222L706,226L702,226L699,224L695,229L689,232L685,237L677,239L673,242L668,244L670,241L669,238L674,234L671,230L666,232L660,237L657,242L651,242L649,245L651,250L656,251L656,254L660,256L666,251L671,254L675,254L676,258L668,260L665,263L660,266L657,271L663,275L665,281L669,287L672,292L672,297L669,298L670,302L673,304L672,309L671,313L668,314L664,321L660,328L655,336L647,341L640,346L634,347L630,349L629,347L625,350L618,353L612,354L610,360L607,360L606,356L607,354L600,352L597,353L592,352L589,349L590,346L585,345L583,343L578,346L573,346L569,346L566,348L563,349L564,355L561,355L560,354L560,351L556,353L554,352L550,350L552,345L548,344L547,338L541,339L542,332L547,327L547,322L547,318L545,316L543,313L540,313L534,312L536,310L533,306L529,309L525,307L519,311L514,315L509,316L507,315L504,314L500,313L497,315L494,319L493,314L490,316L484,315L478,314L473,311L469,310L467,307L464,306L459,302L454,300L452,301L445,297L439,293L438,286L442,287L442,284L440,280L440,275L435,267L426,265L424,259L420,256L419,254L418,250L419,248L415,246L413,247L412,240L414,239L413,237L418,234L422,233L427,233L430,229L436,228L438,225L447,221Z" fill="#E0E0E0" stroke="#fff" stroke-width=".4"/><path d="M672,337L668,346L666,351L663,346L663,341L666,336L670,331L672,333Z" fill="#E0E0E0" stroke="#fff" stroke-width=".4"/><path d="M71,185L74,186L75,185L80,183L82,186L89,188L89,192L90,195L86,194L81,197L82,201L81,203L83,207L88,211L90,217L96,223L101,222L102,224L100,226L105,228L109,230L114,234L114,235L113,238L110,235L106,233L103,238L107,241L107,244L104,245L102,250L99,251L99,249L100,245L102,244L100,240L98,236L96,235L94,232L91,231L88,228L84,228L80,224L75,220L71,215L70,208L67,207L63,205L60,206L57,209L55,210L55,207L53,206L51,200L53,197L51,194L52,192L54,194L57,194L60,191L61,192L63,192L64,189L68,190L71,188ZM94,249L98,249L97,254L97,256L96,260L92,257L89,256L82,253L83,250L89,250ZM62,230L64,228L68,233L67,242L64,242L62,244L60,242L60,234L59,230Z" fill="#E0E0E0" stroke="#fff" stroke-width=".4"/><path d="M68,116L65,117L61,116L59,111L58,101L59,98L61,95L66,95L67,92L72,89L72,94L70,97L71,100L74,102L72,105L71,104L67,111ZM81,105L83,110L80,117L74,112L74,108Z" fill="#E0E0E0" stroke="#fff" stroke-width=".4"/><path d="M-19,126L-23,124L-26,124L-25,119L-26,114L-22,114L-16,120ZM-2,130L-2,130L-1,125L-5,119L-5,119L-11,118L-13,115L-11,111L-12,108L-15,113L-16,103L-18,98L-16,88L-12,80L-8,81L-1,80L-7,91L-2,89L4,89L3,98L-2,106L4,107L4,108L9,119L12,121L16,131L17,135L24,136L23,142L20,144L23,149L18,153L11,153L1,156L-1,154L-5,158L-10,157L-14,160L-16,159L-8,150L-4,148L-4,148L-12,146L-14,143L-8,140L-11,135L-10,129Z" fill="#E0E0E0" stroke="#fff" stroke-width=".4"/><path d="M-63,-12L-65,-4L-59,5L-66,15L-81,23L-86,25L-93,24L-108,20L-103,14L-114,8L-105,6L-105,2L-116,-1L-113,-10L-105,-12L-96,-3L-88,-10L-81,-6L-72,-13Z" fill="#E0E0E0" stroke="#fff" stroke-width=".4"/><path d="M265,223L267,223L270,228L273,228L274,227L277,224L280,227L282,232L285,233L287,235L282,235L281,241L280,243L278,245L278,248L277,249L274,245L276,241L274,239L272,240L266,245L265,240L263,239L261,237L262,235L259,233L260,231L258,230L257,228L259,226L263,229L266,229L266,228L264,224ZM264,245L260,244L257,241L256,239L257,238L259,240L261,240L261,241Z" fill="#E0E0E0" stroke="#fff" stroke-width=".4"/><path d="M230,212L231,211L235,212L243,213L251,217L252,218L255,217L260,219L262,222L265,223L264,224L266,228L266,229L263,229L259,226L257,228L250,229L245,225L239,226L240,222L238,218L235,215L232,214Z" fill="#E0E0E0" stroke="#fff" stroke-width=".4"/><path d="M666,403L664,399L668,399L670,401L669,406ZM676,418L677,417L678,413L681,413L680,417L684,411L683,417L681,418L680,422L678,423L675,420ZM696,427L697,430L697,433L695,438L693,433L691,436L693,440L691,442L685,439L683,435L685,432L681,430L680,432L677,432L673,435L672,433L674,429L678,427L681,425L683,428L687,426L688,424L691,424L691,419L696,422L696,425ZM654,422L647,427L649,423L653,420L656,416L659,411L660,415L657,418ZM675,372L674,375L676,379L674,383L671,385L670,390L671,394L674,395L677,394L683,397L683,400L684,402L684,404L680,401L678,398L676,400L673,397L668,398L665,397L666,394L667,393L666,392L665,394L662,391L662,388L661,383L663,385L664,376L666,371L669,371L672,372L674,371ZM673,410L672,408L675,409L679,409L679,412L676,414L673,416L673,413ZM692,406L693,412L689,411L689,413L690,416L688,417L688,413L686,413L685,410L688,410L688,408L685,404L690,404Z" fill="#E0E0E0" stroke="#fff" stroke-width=".4"/><path d="M555,437L555,436L560,439L560,441L564,441L566,439L567,439L570,442L572,446L573,450L572,452L573,454L573,457L575,459L577,463L577,465L573,466L568,462L562,457L561,455L558,451L557,447L555,444L556,440ZM651,450L646,449L640,449L638,455L636,457L633,465L629,466L623,464L621,465L618,467L614,467L611,468L607,465L606,461L610,463L614,462L615,458L618,457L624,455L628,451L631,448L633,451L634,449L637,449L637,445L637,443L642,439L644,435L646,435L649,438L649,440L653,441L658,443L657,445L654,445L654,448Z" fill="#E0E0E0" stroke="#fff" stroke-width=".4"/><path d="M637,443L637,445L637,449L634,449L633,451L631,448L633,446Z" fill="#E0E0E0" stroke="#fff" stroke-width=".4"/><path d="M89,188L94,189L96,187L101,187L102,186L103,186L104,188L100,190L99,193L97,194L97,196L95,196L93,195L93,196L89,196L90,195L89,192Z" fill="#E0E0E0" stroke="#fff" stroke-width=".4"/><path d="M169,-50L168,-39L176,-30L171,-19L178,-4L174,7L179,17L177,25L185,33L183,39L178,46L166,60L156,61L147,65L138,67L135,61L130,57L131,46L128,36L131,29L136,22L148,8L152,5L151,-0L144,-6L142,-12L142,-33L133,-43L126,-50L129,-54L135,-46L142,-47L148,-43L153,-50L156,-61L164,-67L171,-60Z" fill="#E0E0E0" stroke="#fff" stroke-width=".4"/><path d="M136,168L135,170L134,173L133,174L127,171L125,172L124,174L121,175L121,174L118,175L116,176L116,177L111,178L109,177L106,175L106,173L106,172L107,170L109,170L111,169L111,168L112,168L113,166L114,166L115,164L116,164L117,165L119,164L122,166L125,165L127,166L131,164Z" fill="#E0E0E0" stroke="#fff" stroke-width=".4"/><path d="M96,151L98,153L102,154L102,156L105,158L106,156L109,157L110,160L114,160L116,164L115,164L114,166L113,166L112,168L111,168L111,169L109,170L107,170L106,172L104,170L101,170L97,168L95,169L92,172L88,169L85,166L82,164L82,160L81,158L85,156L87,154L91,152L92,150L93,151Z" fill="#E0E0E0" stroke="#fff" stroke-width=".4"/><path d="M211,394L211,391L213,383L214,379L215,378L219,377L222,374L225,380L227,385L229,388L237,393L240,396L243,400L244,402L247,403L245,405L243,404L241,402L239,399L237,397L235,395L231,393L227,393L226,392L222,393L219,391L218,395Z" fill="#E0E0E0" stroke="#fff" stroke-width=".4"/><path d="M780,242L775,249L775,256L773,262L774,265L771,270L764,273L755,273L747,281L743,278L743,273L734,275L727,278L721,278L727,283L723,293L720,296L717,294L718,288L715,286L713,282L718,280L721,276L726,272L730,268L741,266L746,267L752,255L756,258L764,252L767,249L770,240L769,233L771,228L777,227L780,237ZM795,208L798,205L800,213L792,215L787,222L779,217L776,225L770,225L769,218L771,212L777,212L779,202L780,196L787,204L791,206ZM729,281L732,277L735,277L737,275L741,276L742,278L739,282L736,280L734,282L732,285L729,284Z" fill="#E0E0E0" stroke="#fff" stroke-width=".4"/><path d="M295,368L299,377L301,381L297,383L296,385L296,387L291,389L282,392L277,396L275,396L273,396L270,398L267,399L262,400L261,400L260,401L258,402L257,403L255,403L253,404L249,404L248,400L248,397L247,396L246,392L245,389L246,389L245,386L246,385L245,383L248,381L247,379L249,376L251,377L252,377L259,377L260,377L265,378L267,378L268,379L271,379L275,373L280,370Z" fill="#E0E0E0" stroke="#fff" stroke-width=".4"/><path d="M203,307L209,307L212,306L213,303L217,302L218,300L220,299L214,293L225,290L226,289L233,291L241,295L256,308L266,308L271,309L272,312L276,311L278,317L281,318L282,320L285,323L286,325L285,327L286,329L287,331L288,333L289,334L290,336L292,335L293,337L293,339L295,345L311,348L313,346L315,351L311,362L295,368L280,370L275,373L271,379L268,379L267,378L265,378L260,377L259,377L252,377L251,377L249,376L247,379L248,381L245,383L245,380L243,379L243,377L240,374L237,370L236,365L232,361L229,360L226,355L225,351L225,347L222,341L220,338L217,337L215,334L215,332L214,329L212,328L210,324L207,319L204,314L202,314L202,311L203,309Z" fill="#E0E0E0" stroke="#fff" stroke-width=".4"/><path d="M191,270L192,270L192,268L196,268L201,266L198,269L198,270L197,270L196,270L196,270L195,271L195,270L195,269L194,269L192,270Z" fill="#E0E0E0" stroke="#fff" stroke-width=".4"/><path d="M191,270L192,270L194,269L195,269L195,270L195,271L196,270L196,270L197,270L198,270L198,271L193,273L190,272L189,270Z" fill="#E0E0E0" stroke="#fff" stroke-width=".4"/><path d="M3,269L5,274L5,278L7,284L9,286L8,288L1,289L-2,292L-5,292L-5,297L-11,299L-14,302L-18,304L-23,305L-32,310L-32,317L-33,317L-33,320L-36,320L-38,322L-40,322L-42,321L-47,322L-48,326L-50,327L-53,334L-60,341L-62,349L-64,351L-65,353L-77,354L-77,354L-77,351L-75,350L-73,347L-73,345L-71,340L-68,337L-67,336L-65,332L-65,329L-63,325L-60,323L-56,317L-56,317L-53,315L-48,314L-44,310L-41,308L-37,303L-38,295L-36,290L-35,286L-32,282L-27,279L-23,276L-19,270L-17,265L-13,266L-10,268L-5,268L1,269Z" fill="#E0E0E0" stroke="#fff" stroke-width=".4"/><path d="M214,351L192,351L171,351L150,351L150,329L150,307L148,302L149,298L149,296L150,293L158,293L163,294L168,296L171,297L175,295L177,293L182,293L186,294L187,297L188,295L193,296L197,296L200,295L203,304L203,306L202,308L200,313L199,316L198,317L196,315L193,312L190,303L189,304L191,311L195,317L199,326L201,329L202,333L207,339L206,340L206,344L213,349Z" fill="#E0E0E0" stroke="#fff" stroke-width=".4"/><path d="M150,351L150,362L143,362L143,365L122,354L100,342L95,346L91,348L88,344L79,342L77,338L73,336L70,337L68,333L68,331L65,326L67,324L67,320L67,317L67,314L68,309L68,306L66,301L69,299L69,296L68,294L72,291L74,289L76,288L77,283L83,285L85,284L90,285L97,288L100,294L104,295L112,298L118,301L120,299L123,296L122,291L123,288L127,285L131,285L138,286L140,289L142,289L144,290L149,291L150,293L149,296L149,298L148,302L150,307L150,329Z" fill="#E0E0E0" stroke="#fff" stroke-width=".4"/><path d="M273,429L257,445L250,445L245,449L242,449L241,451L237,451L235,449L230,452L228,454L225,453L223,453L222,453L220,453L214,448L210,448L208,446L208,443L205,442L202,437L199,435L199,433L196,431L192,430L194,427L197,427L198,425L198,420L200,415L202,413L203,411L205,407L208,404L210,398L211,394L218,395L219,391L222,393L226,392L227,393L231,393L235,395L237,397L239,399L241,402L243,404L241,406L239,409L240,411L240,412L243,412L244,412L245,413L244,415L246,418L248,421L250,422L268,429Z" fill="#E0E0E0" stroke="#fff" stroke-width=".4"/><path d="M243,404L245,405L247,403L248,405L248,407L245,409L247,410L245,413L244,412L243,412L240,412L240,411L239,409L241,406Z" fill="#E0E0E0" stroke="#fff" stroke-width=".4"/><path d="M279,410L279,410L279,413L279,418L279,421L276,424L273,429L268,429L250,422L248,421L246,418L244,415L245,413L247,410L249,411L250,413L253,416L255,416L260,414L266,414L271,412L274,411L276,410Z" fill="#E0E0E0" stroke="#fff" stroke-width=".4"/><path d="M198,477L187,478L181,478L179,478L176,480L174,479L174,475L176,473L176,469L177,467L179,464L181,462L183,460L181,460L181,453L183,452L187,453L191,452L195,452L198,449L201,453L201,456L204,462L202,466L199,469L198,472Z" fill="#E0E0E0" stroke="#fff" stroke-width=".4"/><path d="M179,478L181,481L181,485L179,485L176,485L175,488L171,488L172,485L173,484L173,481L174,479L176,480Z" fill="#E0E0E0" stroke="#fff" stroke-width=".4"/><path d="M115,217L110,215L108,212L106,210L104,207L102,205L100,201L101,198L103,200L104,198L106,198L111,199L115,199L117,201L119,201L118,204L120,207L120,211L118,211L117,212L116,213Z" fill="#E0E0E0" stroke="#fff" stroke-width=".4"/><path d="M135,220L138,222L139,227L138,227L137,228L134,228L132,230L128,231L126,229L125,226L126,223L126,223L127,222L130,221L131,220L133,220Z" fill="#E0E0E0" stroke="#fff" stroke-width=".4"/><path d="M116,193L120,191L124,191L127,194L127,197L131,199L131,202L134,204L136,202L137,203L136,204L137,206L136,207L136,210L139,213L137,216L136,218L136,219L135,220L133,220L131,220L131,220L132,219L132,217L131,217L130,216L130,216L129,214L128,214L127,213L126,213L125,216L124,216L124,216L122,214L121,213L120,212L118,211L120,211L120,207L118,204L119,201L117,201L119,198L118,196Z" fill="#E0E0E0" stroke="#fff" stroke-width=".4"/><path d="M123,218L122,219L121,217L119,221L119,223L118,223L117,220L114,219L115,217L116,213L117,212L118,211L120,212L121,213L122,214L124,216L124,216Z" fill="#E0E0E0" stroke="#fff" stroke-width=".4"/><path d="M126,223L125,221L124,220L123,218L124,216L125,216L126,213L127,213L128,214L129,214L130,216L130,216L131,217L132,217L132,219L131,220L131,220L130,221L127,222L126,223Z" fill="#E0E0E0" stroke="#fff" stroke-width=".4"/><path d="M181,453L176,450L175,447L172,449L170,448L168,449L166,448L162,444L162,442L158,440L156,437L154,435L150,432L150,430L147,428L144,426L145,425L147,424L148,419L150,417L154,416L155,417L158,420L159,421L161,420L165,420L166,421L171,421L171,420L174,419L175,418L177,416L181,420L184,419L187,415L190,412L189,409L188,407L191,407L191,406L194,406L193,410L194,414L197,416L197,418L197,421L198,421L198,425L197,427L194,427L192,430L196,431L199,433L199,435L202,437L205,442L201,446L198,449L195,452L191,452L187,453L183,452Z" fill="#E0E0E0" stroke="#fff" stroke-width=".4"/></g><g clip-path="url(#v)"><path d="M285.4,201.0L285.2,201.2L284.9,201.2L284.4,200.4L284.6,199.6L284.8,199.4L285.0,199.3L285.1,199.4L284.7,199.8L284.6,200.3L285.0,200.8ZM286.1,200.1L285.9,200.2L285.8,199.7L286.0,199.3L286.3,199.3L286.2,199.9ZM298.9,196.7L298.8,196.8L298.4,196.6L298.2,196.3L298.5,195.9L298.8,195.9L298.9,196.4ZM397.4,220.4L396.9,220.7L396.4,220.8L396.1,221.0L395.9,221.4L395.6,221.8L395.4,221.9L395.2,221.9L394.9,221.6L394.5,221.6L394.1,222.0L393.5,222.6L392.8,223.5L392.1,224.0L391.1,224.4L390.5,224.6L389.9,224.9L389.1,225.5L388.9,225.9L388.2,226.1L387.7,226.4L387.2,226.8L387.1,227.5L386.8,227.9L386.1,228.5L385.5,229.1L385.1,229.7L384.6,230.3L384.5,230.6L384.5,231.1L384.7,231.5L384.7,231.8L384.6,232.1L384.2,232.2L383.7,232.1L383.1,231.9L382.4,231.4L382.1,231.2L381.8,230.8L381.8,230.4L382.0,229.7L382.1,229.2L381.8,229.0L381.6,228.7L381.5,228.5L381.1,228.0L380.8,228.1L380.4,228.2L380.1,228.1L379.0,228.1L378.1,228.2L377.3,228.2L376.3,228.3L375.1,228.4L374.8,228.3L374.5,228.1L374.3,227.5L374.2,226.9L374.0,225.9L373.8,225.0L373.6,224.1L373.5,223.0L373.4,222.2L372.5,222.2L371.8,222.2L370.8,222.2L370.8,221.6L370.8,220.8L370.8,219.9L371.0,218.8L371.1,217.8L371.1,216.6L371.2,215.8L371.3,215.0L370.7,215.2L370.2,215.5L369.7,215.8L369.3,215.1L368.9,214.4L368.4,213.4L368.0,212.6L367.3,212.1L366.8,211.8L366.2,211.2L365.8,210.6L365.3,210.1L364.8,209.6L364.3,209.7L363.7,210.1L363.2,210.3L362.6,210.7L362.3,210.8L361.6,210.8L361.1,210.7L360.0,210.6L359.1,210.5L358.2,210.5L356.9,210.4L355.7,210.2L354.8,210.4L353.7,210.6L352.6,210.8L351.6,210.9L350.4,211.1L349.5,211.3L349.1,211.2L348.5,210.6L347.7,209.6L347.1,209.0L346.6,208.4L345.8,207.5L345.2,206.8L344.6,206.2L344.3,205.6L344.1,204.8L343.8,204.5L343.1,204.0L342.4,203.5L341.6,203.0L340.9,202.5L340.1,202.0L339.4,201.5L338.6,201.0L337.9,200.5L337.1,200.0L336.4,199.5L335.7,199.0L334.9,198.5L334.2,198.0L333.4,197.5L332.7,197.0L331.9,196.5L331.2,196.0L330.6,195.6L330.0,195.7L329.1,196.0L328.2,196.3L327.4,196.5L325.8,197.0L324.7,197.3L324.0,197.6L323.1,197.9L322.0,198.2L321.1,198.5L320.0,198.9L319,199.2L318.2,199.4L317.3,199.7L316.7,199.9L316.7,201.7L316.7,203.4L316.7,205.2L316.7,206.9L316.7,208.6L316.7,210.3L316.7,212.0L316.7,213.7L316.7,215.4L316.7,217.1L316.7,218.8L316.7,220.5L316.7,222.1L316.7,223.8L316.7,225.4L316.7,227.1L316.4,227.1L315.9,227.2L315.1,227.4L314.3,227.5L314.0,227.5L313.7,227.3L313.5,226.9L313.1,226.5L312.7,226.1L312.3,225.4L311.9,224.8L311.1,223.6L311.0,223.2L310.9,222.8L310.6,222.5L309.7,221.6L308.6,220.9L307.5,220.2L307.2,220.0L306.7,219.8L306.0,219.8L305.6,219.8L304.3,220.0L303.3,220.3L302.0,220.7L300.9,221.1L300.7,221.3L299.9,221.8L299.0,222.6L297.9,223.8L297.7,223.0L297.7,221.9L297.7,221.5L298.0,220.5L298.3,219.8L298.6,219.1L298.7,218.2L298.4,216.7L298.2,216.3L297.9,216.2L297.5,216.2L297.0,216.2L296.7,216.4L296.2,215.9L295.6,215.8L295.3,215.9L295.0,216.0L294.7,215.9L294.4,215.5L294.2,215.2L294.1,214.9L293.6,214.1L293.1,213.7L292.6,213.6L291.7,213.7L291.4,213.6L291.4,213.2L291.5,212.3L291.5,211.8L291.4,211.3L291.3,210.9L291.1,210.6L290.6,210.1L290.2,209.3L289.5,207.8L288.9,206.0L288.7,205.7L288.1,205.5L287.0,205.2L286.2,205.0L285.9,204.8L285.8,204.4L285.8,204.0L285.9,203.5L286.0,203.1L286.6,202.7L287.9,202.7L289.1,202.7L290.1,203.5L290.4,203.6L290.8,203.7L291.5,203.4L291.9,203.4L292.8,203.5L292.5,203.1L292.1,202.9L291.8,202.9L291.5,202.8L291.0,202.1L290.1,201.3L289.9,201.0L289.9,200.5L290.0,200.0L290.7,199.6L291.2,199.0L291.4,198.1L291.6,197.8L292.1,197.2L292.7,197.3L293.8,196.8L295.5,196.9L297.5,196.8L298.1,196.8L299.4,197.3L300.1,197.5L301.0,197.5L301.7,197.4L301.1,196.8L299.7,196.1L299.4,195.5L300.0,193.9L300.8,192.4L301.3,190.7L301.2,189.0L300.9,188.5L301.0,187.9L301.3,187.4L301.5,187.0L301.4,186.4L301.0,185.5L300.8,185.2L300.1,184.7L298.9,184.7L297.8,184.4L297.5,184.7L297.3,185.0L297.0,185.2L296.2,185.6L296.0,185.7L295.7,185.6L295.3,185.1L294.9,185.2L293.8,184.9L293.3,184.2L293.1,184.1L291.4,183.6L290.8,183.5L289.4,184.0L288.4,184.8L288.1,184.8L287.6,185.3L287.3,185.4L287.0,185.3L286.7,185.3L286.1,186.0L285.0,186.8L284.4,187.2L283.8,187.6L283.1,187.7L282.4,187.8L282.2,188.0L281.4,188.0L280.9,188.2L280.9,188.4L281.0,189.0L280.6,188.8L280.1,189.2L280.3,189.6L280.0,189.5L278.8,188.8L277.8,188.2L276.9,187.8L276.8,187.7L276.6,187.5L276.4,187.1L276.3,186.7L276.4,186.5L276.7,186.3L276.9,186.2L277.1,186.3L277.4,186.4L277.8,186.7L278.4,186.7L278.8,186.5L278.8,186.2L278.1,184.7L277.5,183.6L276.9,182.3L276.6,181.8L275.9,180.7L275.1,179.7L274.5,178.7L274.2,178.4L273.3,178.3L271.5,178.1L270.9,178.0L270.3,178.2L269.8,178.5L269.3,178.0L268.9,177.4L268.8,176.8L268.9,176.2L268.9,175.4L268.6,174.5L268.3,174.1L267.5,173.8L266.4,173.0L266.1,171.7L266.6,169.8L267.5,168.5L268.0,167.9L268.3,167.4L268.4,167.0L268.3,166.6L268.0,166.2L267.5,165.7L267.2,165.2L267.3,164.1L267.6,162.5L268.2,161.2L268.9,160.5L269.6,159.9L269.8,159.4L269.9,158.8L269.8,158.1L270.0,157.6L270.3,157.3L270.6,156.9L271.0,156.6L271.5,156.4L272.1,156.8L272.8,157.6L274.0,159.2L274.6,160.2L274.9,160.5L275.5,161.1L276.0,161.4L276.9,161.0L277.7,160.5L278.0,160.3L278.2,159.8L278.1,159.1L277.9,158.6L277.7,158.0L277.4,157.0L277.2,155.3L277.0,154.8L277.2,154.7L277.6,154.8L278.0,154.9L278.6,154.5L279.4,153.8L280.8,152.7L281.1,152.0L281.3,151.2L281.7,150.7L282.6,150.6L283.5,150.3L284.1,149.8L285.0,149.3L285.8,149.0L286.1,148.7L286.3,148.3L287.2,147.1L287.9,146.4L288.5,145.6L288.7,145.2L289.2,145.2L289.9,145.6L290.7,145.9L291.3,146.3L291.4,146.8L291.4,147.2L291.7,147.4L292.0,147.4L292.4,147.3L293.1,147.3L294.0,146.7L295.3,145.7L296.4,145.3L297.0,145.6L297.5,146.3L297.9,147.1L298.3,147.3L298.5,147.3L298.6,147.3L299.1,147.2L299.2,147.2L299.6,147.2L300.1,147.4L300.8,147.5L301.8,147.3L301.9,147.2L302.4,147.3L303.0,147.6L303.5,148.0L304.3,149.3L304.8,149.6L305.8,150.1L306.2,150.5L306.7,151.1L307.0,151.5L307.6,152.2L308.3,153.3L308.4,154.2L308.5,155.0L308.8,155.4L309.0,155.4L309.2,155.3L309.4,154.9L309.5,154.4L309.4,153.3L309.3,152.5L309.0,152.2L308.9,151.9L309.1,151.5L309.5,151.4L309.9,151.5L310.7,152.0L311.5,152.6L312.4,153.6L313.3,154.3L314.3,154.9L315.1,155.0L315.7,154.9L316.4,154.4L317.1,153.9L317.4,153.4L317.6,152.8L318.5,152.0L319.4,151.3L319.8,151.4L320.1,151.6L321.0,151.2L321.4,151.1L322.2,150.9L323.1,151.2L323.9,151.9L324.6,152.4L325.2,152.4L325.7,152.1L326.0,151.6L326.3,151.1L326.6,150.7L326.7,150.7L327.8,150.9L328.5,150.8L328.6,150.8L329.5,150.9L330.5,151.7L331.2,152.6L332.0,153.7L332.3,154.1L332.9,154.2L333.3,154.3L333.9,154.5L335.4,154.7L335.6,154.8L335.8,155.0L335.7,155.6L335.8,155.8L337.0,155.3L337.3,155.0L337.8,154.1L338.1,153.2L338.4,152.8L338.7,152.7L339.0,152.9L339.4,153.4L339.9,154.0L340.6,154.2L341.1,154.3L341.8,154.3L343.4,154.1L345.0,153.4L345.9,152.7L346.3,151.5L346.5,150.3L346.9,149.5L346.7,148.7L346.0,147.9L345.7,147.7L343.8,147.2L343.7,146.9L343.6,146.8L341.8,146.1L340.9,145.8L340.6,145.4L340.5,144.8L339.9,144.2L338.7,143.8L338.5,143.4L338.7,143.0L339.6,142.6L340.6,141.7L341.1,141.5L342.0,141.5L342.8,140.7L343.4,140.3L343.7,139.8L343.6,139.3L342.8,137.8L342.5,136.8L342.7,136.2L343.2,135.5L343.4,135.2L343.8,134.5L344.0,134.2L344.9,134.0L345.9,134.0L346.6,134.1L347.6,134.2L348.6,134.3L349.0,134.4L349.3,134.2L349.6,133.9L349.6,133.4L349.2,133.0L347.9,132.4L347.3,131.9L346.9,131.9L346.1,131.8L345.4,131.5L344.8,131.4L344.6,130.9L344.7,130.3L345.0,129.9L345.4,129.7L345.9,129.8L346.4,129.6L346.6,129.4L346.6,129.2L346.6,128.9L346.3,128.7L346.0,128.6L345.6,128.8L345.1,129.0L344.3,128.7L343.6,128.3L343.7,128.0L344.1,127.5L344.4,127.1L344.4,126.6L344.4,125.9L344.5,125.2L345.0,124.7L345.5,124.4L347.0,124.9L348.8,125.4L349.1,125.3L349.2,125.1L349.4,124.8L351.8,124.8L352.3,124.5L352.6,124.2L354.9,123.9L355.2,123.6L355.6,123.3L356.1,123.3L356.8,123.2L357.7,122.8L358.3,122.6L358.4,122.6L359.1,122.7L359.9,122.4L360.1,122.3L360.3,122.1L361.0,121.7L362.4,121.3L362.8,121.5L363.4,121.6L364.3,121.5L364.9,121.2L365.3,121.5L365.8,121.7L366.2,121.5L366.4,120.8L366.6,120.1L367.0,119.8L367.4,119.7L367.7,119.4L367.9,119.1L369.1,119.1L370.3,118.5L370.5,118.8L371.9,118.7L373.7,118.2L374.8,118.0L376.6,117.6L377.5,117.2L378.7,116.9L379.8,116.8L380.6,116.1L381.2,116.0L381.9,116.0L382.3,115.8L382.6,115.6L382.8,115.1L382.7,114.5L382.6,114.1L383.1,113.8L383.9,113.7L384.3,113.6L385.3,112.7L386.0,112.2L386.8,111.9L388.2,112.1L389.6,112.2L390.9,112.7L391.6,113.3L392.2,113.7L392.8,113.9L393.3,114.1L393.9,113.9L394.3,113.6L394.5,113.2L394.9,112.9L396.3,112.7L396.5,113.1L397.2,114.4L397.6,116.0L398.4,118.3L398.7,119.3L398.5,119.9L398.5,120.7L398.5,121.5L398.0,122.5L398.2,122.9L399.5,123.4L401.3,123.2L402.5,122.8L403.1,123.0L403.4,122.7L403.7,122.0L404.1,121.9L404.5,122.4L404.9,123.2L405.2,123.7L405.1,124.4L405.3,125.2L405.5,125.4L405.9,125.1L406.2,124.9L406.3,124.7L406.2,124.4L406.1,124.0L406.2,123.7L406.4,123.6L407.1,123.7L408,123.9L409.1,125.1L409.7,125.3L410.0,125.3L410.5,125.2L411.2,124.9L411.6,124.5L411.8,124.3L412.1,124.3L412.3,124.5L412.3,124.9L412.1,125.5L411.5,126.1L410.6,126.6L410.1,127.5L410.0,128.5L410.2,129.0L410.4,129.4L410.5,129.8L410.7,129.9L411.0,129.7L411.9,128.7L412.4,128.5L413.1,128.3L414.2,128.4L415.0,128.7L415.4,129.2L415.8,129.5L416.0,129.4L416.2,129.0L416.2,128.5L416.3,128.1L417.5,127.1L418.4,126.5L418.6,126.4L419.2,126.5L419.5,126.5L420.4,125.8L421.3,125.1L421.4,124.7L421.4,124.2L421.6,124.0L422.8,123.9L423.0,123.8L424.0,123.3L425.4,122.5L426.1,122L427.3,121.8L427.6,121.6L428.0,121.3L428.7,120.8L429.2,120.8L428.9,121.9L428.4,123.2L428.2,123.5L426.9,123.5L426.9,123.8L427.1,124.4L427.3,124.7L427.4,124.9L427.7,125.4L429.1,126.5L430.8,127.9L432.6,129.4L433.8,130.5L434.3,131.1L434.7,131.5L435.6,133.1L436.5,134.6L438.0,137.2L439.3,139.7L440.8,142.4L441.6,143.9L443.4,147.2L443.8,148.2L444.7,150.1L445.5,151.8L446.2,153.4L446.6,153.5L446.6,153.1L446.7,152.8L446.9,152.7L447.4,152.2L447.7,152.1L448.1,152.2L448.5,151.9L448.7,151.5L448.6,150.7L448.5,150.3L448.6,149.9L448.9,149.7L449.2,149.6L449.5,149.5L449.7,149.1L450.2,148.9L450.6,149.0L450.9,149.0L451.3,149.4L451.4,149.8L451.8,149.9L452.3,149.8L452.4,150.2L452.2,150.8L452.0,151.3L452.0,151.7L452.3,151.9L453.3,151.7L453.7,151.8L453.8,152.2L454.0,152.6L454.1,153.0L453.9,153.4L454.1,153.7L455.0,153.7L455.7,153.5L456.7,153.5L457.5,153.9L458.1,153.9L458.8,153.7L459.7,153.8L460.3,153.4L460.8,153.0L460.9,152.6L461.1,152.4L462.0,152.4L462.5,152.3L462.9,151.8L463.3,151.6L463.9,151.5L464.3,151.5L465.5,152.0L466.3,152.4L467.0,153.0L467.5,153.4L467.8,154.2L468.3,154.8L468.7,155.6L468.8,156.3L469.2,157.5L469.5,157.9L470.0,157.9L470.5,158.1L471.1,158.2L472.3,159.2L472.8,159.2L473.1,159.4L473.2,159.9L473.0,160.4L473.2,160.8L473.6,161.4L473.9,162.0L474.3,162.7L474.4,163.2L474.7,163.3L475.2,163.1L475.9,163.2L477.9,163.6L478.2,163.7L478.4,164.1L478.7,164.1L479.1,164.1L479.5,164.1L479.9,163.7L480.1,163.4L480.8,163.0L481.4,162.4L481.9,161.9L482.2,161.8L482.5,162.0L482.5,162.5L482.2,162.8L481.9,163.2L482.0,163.6L482.4,163.6L483.0,164.2L483.7,165.6L484.0,165.9L484.4,166.1L484.8,166.3L485.2,166.5L485.6,167.0L485.7,167.5L485.2,167.4L484.2,167.3L483.6,167.4L483.4,167.5L482.9,167.8L482.6,168.2L482.5,168.7L482.7,169.4L482.5,170.7L482.2,171.2L481.5,172.1L481.2,172.3L480.6,172.5L480.0,172.7L478.9,173.0L477.7,173.1L477.2,173.3L476.9,173.9L476.7,174.4L476.6,174.7L476.2,176.0L476.0,177.1L476.2,178.4L476.4,179.9L476.3,180.4L476.7,181.2L476.8,181.7L476.7,182.3L476.3,182.9L476.1,183.6L475.8,183.9L475.1,184.0L474.4,184.1L473.8,184.7L473.3,185.1L472.4,185.6L472.0,185.7L471.8,185.4L471.7,184.8L471.4,184.6L471.0,184.6L470.7,184.6L469.6,184.4L468.9,184.4L468.5,184.5L467.9,184.6L466.9,184.4L466.2,184.2L465.8,184.0L464.8,183.5L463.4,182.9L462.9,182.7L462.6,182.9L462.5,183.2L462.4,184.1L462.3,184.6L461.3,187.3L460.7,189.2L460.0,191.0L459.8,192.2L459.3,193.7L458.9,194.7L458.7,195.3L458.7,195.6L458.8,195.9L459.4,196.3L460.1,196.5L460.3,196.6L460.4,197.0L460.4,197.7L460.2,198.2L460.0,198.7L459.8,198.9L459.6,199.0L459.1,198.7L458.8,198.3L458.4,198.2L457.7,198.4L456.9,198.7L456.7,198.7L456.3,198.5L455.9,198.2L455.7,197.5L455.3,197.2L454.9,197.5L453.4,198.0L451.8,198.6L450.8,198.9L450.4,198.9L449.6,198.9L449.0,199.1L448.5,199.3L447.5,199.6L446.5,199.8L446.0,200.3L445.5,200.8L445.5,201.0L445.9,201.2L446.2,201.4L446.9,201.4L447.6,201.4L448.2,201.6L448.7,201.8L448.8,202.1L448.7,202.3L448.4,202.4L448.3,202.5L448.3,202.7L448.1,203.3L448.0,204.2L448.1,205.0L448.2,205.8L448.1,206.2L448.1,206.7L448.3,207.1L448.5,207.8L448.9,208.3L449.4,209.8L449.7,210.7L450.0,211.7L449.8,212.3L449.8,212.6L450.1,212.9L450.3,213.4L450.5,213.7L450.4,214.0L450.3,214.1L449.5,213.9L448.9,214.3L448.3,214.6L448.2,214.7L448.2,214.9L448.3,215.1L448.7,215.4L449.2,215.5L449.1,215.8L448.5,216.0L447.6,216.4L447.3,216.8L447.1,217.3L447.1,217.7L447.2,218.4L447.3,219.3L447.6,220.2L447.6,220.5L447.5,220.7L447.4,220.8L446.6,220.0L445.8,219.2L445.2,219.0L444.1,218.9L443.5,218.9L443.1,218.7L442.8,218.2L442.4,217.8L441.9,217.3L441.7,216.7L441.5,216.5L441.1,216.6L440.5,216.6L440.2,216.5L439.7,216.4L438.9,216.1L438.3,215.9L437.5,215.8L437.0,215.9L435.6,215.9L434.4,215.7L433.4,215.6L432.8,215.6L432.5,215.6L432.0,215.6L431.3,215.5L430.3,215.1L430.0,215.1L429.7,215.1L428.1,215.4L427.4,215.5L425.8,215.5L424.3,215.4L423.8,215.4L423.5,215.4L422.9,216.1L422.7,216.3L421.2,216.1L419.5,215.6L418.3,215.0L417.2,214.5L415.8,213.6L415.0,213.1L414.9,213.4L414.6,213.5L414.3,213.5L413.6,213.4L413.2,213.9L412.3,214.2L411.8,214.5L411.5,214.9L410.9,217.1L410.7,217.9L411.1,219.2L410.7,219.2L410.2,218.8L410.0,218.5L409.5,218.4L407.7,218.1L407.3,217.8L407.1,217.5L406.7,217.4L406,217.3L404.6,216.7L403.9,216.7L402.1,216.2L401.8,216.2L401.7,216.2L400.9,216.5L400.4,216.6L400.0,216.5L399.1,216.8L398.6,217.3L398.2,217.9L397.8,218.3L397.7,218.9L397.4,219.2L397.1,219.7L397.1,220.1Z" fill="#4ECDC4" stroke="#2C3E50" stroke-width="1"/></g><circle cx="400.0" cy="150.0" r="4" fill="#E74C3C" stroke="#fff" stroke-width="2"/><text x="400.0" y="140.0" text-anchor="middle" font-family="sans-serif" font-weight="700" font-size="10" fill="#2D3436">Astana</text></svg>