<svg viewBox="0 0 800 300" xmlns="http://www.w3.org/2000/svg"><defs><clipPath id="v"><rect width="800" height="300"/></clipPath></defs><rect width="800" height="300" fill="#DCEEF8"/><g clip-path="url(#v)"><path d="M197,-360L187,-346L176,-344L176,-325L168,-316L142,-322L132,-288L126,-283L99,-276L111,-244L102,-239L103,-229L95,-232L88,-238L69,-240L47,-240L42,-238L23,-246L16,-242L13,-232L-8,-238L-17,-235L-20,-227L-28,-224L-45,-212L-51,-199L-56,-199L-60,-207L-76,-208L-79,-222L-86,-223L-85,-241L-100,-254L-123,-252L-139,-250L-151,-266L-162,-273L-183,-287L-185,-289L-219,-277L-219,-210L-226,-209L-235,-223L-244,-228L-259,-225L-265,-219L-266,-223L-262,-231L-265,-237L-280,-243L-286,-259L-294,-264L-294,-270L-281,-268L-281,-282L-269,-285L-258,-282L-255,-301L-258,-313L-271,-312L-282,-317L-298,-308L-310,-304L-317,-307L-315,-317L-324,-330L-334,-330L-345,-343L-337,-358L-341,-363L-331,-385L-317,-373L-315,-388L-288,-411L-267,-412L-238,-397L-222,-389L-208,-398L-187,-398L-170,-387L-166,-393L-148,-392L-144,-402L-166,-417L-153,-428L-156,-434L-143,-439L-152,-454L-146,-462L-97,-470L-90,-476L-57,-484L-45,-494L-21,-489L-17,-465L-3,-471L14,-463L13,-451L25,-452L59,-473L54,-466L71,-449L100,-394L107,-405L126,-393L145,-398L152,-394L158,-382L168,-378L173,-369L190,-372Z" fill="#E0E0E0" stroke="#fff" stroke-width=".4"/><path d="M-219,-210L-219,-277L-185,-289L-183,-287L-162,-273L-151,-266L-139,-250L-123,-252L-100,-254L-85,-241L-86,-223L-79,-222L-76,-208L-60,-207L-56,-199L-51,-199L-45,-212L-28,-224L-20,-227L-16,-226L-27,-214L-17,-207L-8,-212L8,-203L-9,-190L-19,-192L-25,-191L-27,-196L-24,-204L-42,-200L-46,-189L-52,-179L-63,-180L-67,-173L-57,-169L-54,-156L-62,-139L-72,-142L-79,-143L-79,-153L-96,-160L-110,-168L-119,-176L-134,-188L-140,-206L-145,-210L-159,-209L-164,-212L-166,-227L-184,-236L-195,-226L-206,-219L-204,-211Z" fill="#E0E0E0" stroke="#fff" stroke-width=".4"/><path d="M909,427L932,436L956,444L966,450L973,457L975,465L997,473L1000,480L988,482L991,491L1003,499L1012,514L1019,513L1019,519L1029,521L1025,524L1039,530L1038,534L1029,534L1025,531L1014,529L1001,527L990,519L983,511L976,500L959,494L947,498L939,502L941,512L931,517L923,514L909,514L909,470ZM1063,441L1068,445L1070,452L1066,456L1063,448L1060,443L1054,438L1047,433L1037,429L1041,426L1048,429L1052,432L1058,435ZM1046,470L1038,473L1032,476L1024,476L1014,472L1006,469L1007,465L1019,467L1026,466L1028,459L1030,459L1032,466L1039,465L1043,460L1050,456L1049,448L1057,447L1059,450L1059,457L1055,465L1048,466ZM1091,463L1095,466L1102,475L1108,479L1106,483L1103,484L1097,479L1091,471L1088,461L1090,459Z" fill="#E0E0E0" stroke="#fff" stroke-width=".4"/><path d="M909,427L909,470L909,514L898,503L884,500L881,504L864,504L870,493L878,490L875,475L868,464L842,453L832,452L812,439L808,446L803,447L800,442L800,436L789,430L804,425L813,425L812,422L793,422L787,414L776,411L770,405L788,402L795,397L816,403L818,408L822,429L835,437L847,423L862,415L874,415L885,420L895,424ZM696,511L698,513L698,518L689,528L678,531L676,529L678,524L683,516ZM819,484L818,474L820,469L823,465L826,469L826,475ZM602,337L595,349L604,362L602,368L617,380L601,382L597,391L598,403L585,412L584,425L579,446L577,441L562,447L557,439L548,438L541,434L525,439L520,432L512,433L501,431L499,413L492,410L486,398L484,387L485,375L493,366L496,375L505,382L513,379L522,380L529,374L536,372L548,376L559,373L566,355L571,350L576,335L591,335ZM755,430L769,433L774,444L763,438L752,437L744,438L735,437L738,430ZM722,443L712,440L710,435L723,434L727,438ZM736,364L737,371L744,372L746,377L745,389L738,388L736,396L742,403L738,404L732,396L729,379L731,368ZM669,381L684,380L698,371L700,374L689,387L679,389L667,387L644,387L633,389L631,399L643,411L650,405L675,401L674,407L668,405L662,413L650,418L663,435L661,439L672,455L672,463L665,467L660,463L666,452L653,457L650,453L652,448L642,440L643,427L634,431L636,447L636,466L628,468L622,464L626,452L624,439L618,439L614,430L620,421L621,410L628,390L631,385L642,375L653,379ZM634,529L617,520L629,517L636,521L641,525L640,529ZM648,506L657,505L669,500L667,508L647,511L629,510L629,505L640,502ZM607,504L616,503L619,508L603,511L594,513L587,513L592,505L599,505L603,500ZM478,478L479,482L505,484L508,478L532,485L537,493L557,496L573,504L558,509L544,504L532,504L518,503L506,500L490,495L480,494L475,496L451,490L448,484L436,483L445,471L461,472L472,477ZM423,407L425,416L430,423L440,425L446,433L443,450L442,470L428,470L416,459L399,448L394,440L384,430L377,420L367,401L355,390L351,379L347,368L335,360L328,348L318,341L304,326L303,320L311,320L332,323L343,336L354,345L361,350L374,365L387,365L398,374L406,385L416,391L411,402L418,406Z" fill="#E0E0E0" stroke="#fff" stroke-width=".4"/><path d="M-229,83L-229,77L-225,71L-225,65L-219,62L-221,60L-220,51L-213,51L-207,61L-200,66L-190,68L-182,71L-176,79L-173,84L-168,85L-168,89L-173,97L-175,101L-181,106L-186,115L-192,115L-194,118L-196,125L-195,135L-196,136L-202,136L-210,142L-212,148L-215,151L-223,151L-228,155L-228,160L-235,164L-242,163L-251,168L-257,168L-261,159L-272,136L-232,122L-223,93ZM-215,39L-218,34L-214,29L-212,30L-213,37Z" fill="#E0E0E0" stroke="#fff" stroke-width=".4"/><path d="M399,229L396,213L405,202L422,199L434,201L445,206L451,197L463,202L466,211L464,227L442,238L448,246L434,247L423,252L411,251L406,243Z" fill="#E0E0E0" stroke="#fff" stroke-width=".4"/><path d="M434,201L422,199L405,202L396,213L399,229L388,223L376,224L378,213L366,213L365,228L358,248L354,260L355,269L363,270L369,282L371,294L379,301L387,303L394,310L389,315L380,317L379,310L369,304L366,306L361,301L359,295L352,287L345,281L343,289L341,281L342,273L346,260L352,246L360,233L354,221L355,215L353,207L344,196L341,189L346,187L351,175L345,166L337,156L330,143L336,141L342,126L351,125L359,119L367,116L372,120L373,128L382,129L379,144L379,156L393,148L397,151L405,150L408,145L418,146L428,158L429,171L439,183L439,195Z" fill="#E0E0E0" stroke="#fff" stroke-width=".4"/><path d="M367,116L359,119L351,125L342,126L336,141L330,143L337,156L345,166L351,175L346,187L341,189L344,196L353,207L355,215L354,221L360,233L352,246L346,260L345,250L349,240L344,232L345,217L340,210L336,193L333,176L327,164L319,171L304,181L296,180L288,177L293,160L290,147L279,130L281,125L273,124L264,112L263,101L268,103L268,93L274,89L273,83L276,78L277,63L287,66L293,54L294,47L301,35L300,27L318,16L327,19L326,10L331,7L330,1L337,0L342,9L348,13L348,24L347,36L335,48L333,66L347,63L351,77L359,79L355,91L365,97L371,99L380,95L381,101L369,110Z" fill="#E0E0E0" stroke="#fff" stroke-width=".4"/><path d="M423,252L434,247L448,246L442,238L464,227L466,211L463,202L465,188L462,179L452,169L444,157L433,140L417,132L421,127L429,123L424,111L408,111L402,98L394,86L401,83L412,83L425,81L436,74L442,79L454,82L452,90L459,96L472,100L454,112L443,125L440,135L450,150L463,168L475,176L483,187L489,213L487,237L476,245L461,254L450,265L434,278L429,269L432,260Z" fill="#E0E0E0" stroke="#fff" stroke-width=".4"/><path d="M773,-227L773,-227L773,-227ZM772,-230L773,-227L768,-228L763,-222L759,-215L759,-203L752,-199L750,-196L745,-191L736,-188L730,-183L730,-176L728,-174L734,-171L741,-164L739,-160L734,-158L724,-158L719,-150L713,-151L712,-149L706,-152L704,-149L700,-148L700,-151L696,-152L693,-155L697,-163L700,-165L698,-168L702,-177L701,-180L693,-182L687,-186L698,-197L712,-207L722,-219L728,-214L739,-213L737,-223L758,-230L763,-240Z" fill="#E0E0E0" stroke="#fff" stroke-width=".4"/><path d="M712,-149L713,-151L719,-150L724,-158L734,-158L739,-160L741,-164L753,-144L756,-133L756,-114L751,-105L739,-102L728,-95L716,-94L715,-103L717,-115L712,-132L721,-135Z" fill="#E0E0E0" stroke="#fff" stroke-width=".4"/><path d="M330,1L331,7L326,10L327,19L318,16L300,27L301,35L294,47L293,54L287,66L277,63L276,78L273,83L274,89L268,93L261,70L257,70L255,79L248,71L252,63L258,62L264,50L256,48L244,48L231,46L230,36L224,35L213,28L209,38L218,46L210,52L207,57L215,61L213,70L218,80L220,92L218,98L209,97L192,100L193,111L186,119L167,129L152,145L142,154L129,163L129,170L122,173L110,178L104,179L100,189L103,207L104,218L98,231L98,254L91,255L85,265L89,270L77,273L73,283L67,286L55,274L49,255L43,241L39,235L32,222L28,205L26,196L14,177L9,151L5,133L5,116L2,102L-17,111L-27,109L-44,92L-38,87L-41,81L-57,69L-48,59L-19,59L-22,47L-29,39L-31,28L-39,21L-25,5L-9,7L5,-9L13,-25L26,-40L26,-51L37,-60L26,-68L22,-79L17,-93L23,-100L44,-96L58,-98L71,-112L85,-93L84,-80L89,-72L89,-64L79,-66L83,-49L96,-39L115,-28L106,-21L101,-7L114,-1L126,6L144,15L162,17L169,24L180,26L196,29L207,29L208,23L207,14L208,7L216,4L217,16L217,19L229,24L237,22L249,23L259,23L260,13L255,9L266,7L278,-4L293,-14L304,-10L314,-17L320,-7L315,-1Z" fill="#E0E0E0" stroke="#fff" stroke-width=".4"/><path d="M268,93L268,103L263,101L264,112L260,105L259,97L257,90L251,82L239,82L240,87L236,95L230,93L228,95L225,94L220,92L218,80L213,70L215,61L207,57L210,52L218,46L209,38L213,28L224,35L230,36L231,46L244,48L256,48L264,50L258,62L252,63L248,71L255,79L257,70L261,70Z" fill="#E0E0E0" stroke="#fff" stroke-width=".4"/><path d="M255,9L260,13L259,23L249,23L237,22L229,24L217,19L217,16L226,5L233,1L242,4L249,5Z" fill="#E0E0E0" stroke="#fff" stroke-width=".4"/><path d="M208,7L207,14L208,23L207,29L196,29L180,26L169,24L162,17L144,15L126,6L114,-1L101,-7L106,-21L115,-28L120,-32L131,-27L144,-17L152,-15L156,-7L166,-4L177,2L192,6Z" fill="#E0E0E0" stroke="#fff" stroke-width=".4"/><path d="M71,-112L58,-98L44,-96L23,-100L17,-93L22,-79L26,-68L37,-60L26,-51L26,-40L13,-25L5,-9L-9,7L-25,5L-39,21L-31,28L-29,39L-22,47L-19,59L-48,59L-57,69L-67,65L-71,55L-81,43L-105,46L-127,47L-146,49L-141,31L-121,24L-123,17L-129,15L-129,1L-142,-5L-147,-14L-154,-22L-132,-15L-118,-17L-110,-15L-108,-18L-99,-17L-81,-23L-81,-36L-73,-45L-64,-45L-62,-50L-52,-52L-47,-50L-42,-55L-43,-64L-37,-73L-29,-77L-34,-88L-21,-88L-17,-93L-18,-99L-11,-106L-13,-114L-16,-121L-8,-128L6,-132L21,-134L28,-137L36,-139L45,-131L49,-118Z" fill="#E0E0E0" stroke="#fff" stroke-width=".4"/><path d="M-79,-143L-72,-142L-62,-139L-58,-137L-48,-142L-44,-139L-39,-147L-31,-146L-29,-149L-28,-156L-22,-162L-15,-158L-16,-153L-12,-152L-14,-138L-8,-132L-4,-136L2,-137L10,-145L20,-144L33,-144L36,-139L28,-137L21,-134L6,-132L-8,-128L-16,-121L-13,-114L-11,-106L-18,-99L-17,-93L-21,-88L-34,-88L-29,-77L-37,-73L-43,-64L-42,-55L-47,-50L-52,-52L-62,-50L-64,-45L-73,-45L-81,-36L-81,-23L-99,-17L-108,-18L-110,-15L-118,-17L-132,-15L-154,-22L-142,-36L-143,-46L-153,-49L-154,-59L-158,-71L-153,-80L-158,-83L-155,-94L-149,-114L-136,-108L-126,-110L-123,-118L-113,-120L-105,-125L-103,-138L-91,-142L-89,-148L-83,-143Z" fill="#E0E0E0" stroke="#fff" stroke-width=".4"/><path d="M-62,-139L-54,-156L-57,-169L-67,-173L-63,-180L-52,-179L-46,-189L-42,-200L-24,-204L-27,-196L-25,-191L-19,-192L-24,-186L-39,-189L-40,-179L-26,-181L-9,-175L16,-178L19,-162L24,-164L32,-160L31,-153L33,-144L20,-144L10,-145L2,-137L-4,-136L-8,-132L-14,-138L-12,-152L-16,-153L-15,-158L-22,-162L-28,-156L-29,-149L-31,-146L-39,-147L-44,-139L-48,-142L-58,-137Z" fill="#E0E0E0" stroke="#fff" stroke-width=".4"/><path d="M-20,-227L-17,-235L-8,-238L13,-232L16,-242L23,-246L42,-238L47,-240L69,-240L88,-238L95,-232L103,-229L101,-225L81,-215L76,-208L59,-206L54,-195L40,-197L31,-194L18,-186L20,-182L16,-178L-9,-175L-26,-181L-40,-179L-39,-189L-24,-186L-19,-192L-9,-190L8,-203L-8,-212L-17,-207L-27,-214L-16,-226Z" fill="#E0E0E0" stroke="#fff" stroke-width=".4"/><path d="M-265,-219L-259,-225L-244,-228L-235,-223L-226,-209L-219,-210L-204,-211L-206,-219L-195,-226L-184,-236L-166,-227L-164,-212L-159,-209L-145,-210L-140,-206L-134,-188L-119,-176L-110,-168L-96,-160L-79,-153L-79,-143L-83,-143L-89,-148L-91,-142L-103,-138L-105,-125L-113,-120L-123,-118L-126,-110L-136,-108L-149,-114L-151,-128L-160,-129L-176,-143L-186,-145L-201,-154L-210,-155L-216,-152L-225,-153L-234,-143L-246,-140L-249,-152L-247,-169L-257,-175L-254,-187L-262,-188L-259,-203L-247,-198L-235,-204L-245,-215L-249,-225L-259,-220L-261,-207Z" fill="#E0E0E0" stroke="#fff" stroke-width=".4"/><path d="M-317,-24L-324,-32L-325,-40L-329,-40L-327,-52L-333,-63L-350,-72L-359,-87L-356,-100L-349,-105L-350,-115L-359,-120L-367,-139L-375,-153L-372,-158L-376,-178L-367,-182L-365,-176L-358,-168L-349,-166L-344,-166L-329,-179L-324,-180L-320,-175L-324,-167L-316,-158L-313,-159L-309,-146L-296,-143L-287,-134L-268,-132L-247,-136L-246,-140L-234,-143L-225,-153L-216,-152L-210,-155L-201,-154L-186,-145L-176,-143L-160,-129L-151,-128L-149,-114L-155,-94L-158,-83L-153,-80L-158,-71L-154,-59L-153,-49L-143,-46L-142,-36L-154,-22L-147,-14L-142,-5L-129,1L-129,15L-123,17L-121,24L-141,31L-146,49L-171,44L-185,41L-200,39L-206,21L-212,18L-222,21L-236,28L-252,23L-265,12L-278,7L-287,-7L-297,-27L-304,-25L-312,-30Z" fill="#E0E0E0" stroke="#fff" stroke-width=".4"/><path d="M124,292L122,306L116,310L104,313L98,302L96,283L102,261L111,269L117,278Z" fill="#E0E0E0" stroke="#fff" stroke-width=".4"/><path d="M491,147L480,143L480,130L486,124L501,120L508,120L511,126L505,132L502,140ZM103,-229L102,-239L111,-244L99,-276L126,-283L132,-288L142,-322L168,-316L176,-325L176,-344L187,-346L197,-360L203,-361L206,-347L217,-337L236,-329L245,-313L240,-291L245,-283L261,-280L279,-277L295,-265L303,-263L309,-246L317,-236L331,-236L359,-232L376,-234L389,-232L409,-221L425,-221L431,-215L446,-225L468,-231L488,-232L503,-238L513,-248L522,-254L520,-260L516,-267L523,-279L530,-278L544,-274L557,-284L577,-291L587,-304L596,-309L615,-312L626,-310L627,-317L615,-330L605,-337L595,-329L581,-332L574,-330L570,-338L580,-358L586,-373L602,-366L621,-379L621,-388L633,-410L640,-417L640,-429L633,-434L644,-445L660,-449L678,-450L698,-443L709,-435L717,-413L722,-404L727,-391L732,-371L755,-364L771,-350L776,-331L796,-331L808,-339L830,-345L823,-327L818,-320L813,-299L804,-280L788,-284L777,-277L780,-261L778,-239L771,-239L772,-230L763,-240L758,-230L737,-223L739,-213L728,-214L722,-219L712,-207L698,-197L687,-186L668,-181L659,-173L644,-168L651,-176L649,-183L659,-195L652,-204L641,-198L626,-186L617,-175L604,-174L598,-166L605,-154L616,-152L616,-144L626,-139L641,-151L653,-145L662,-144L664,-135L645,-131L639,-122L626,-114L619,-102L633,-93L639,-78L647,-63L656,-51L655,-40L647,-36L650,-27L658,-23L656,-10L653,2L645,3L636,19L625,39L613,56L594,70L576,82L561,84L553,90L548,85L541,92L522,100L508,102L504,117L496,118L493,107L496,102L478,97L472,100L459,96L452,90L454,82L442,79L436,74L425,81L412,83L401,83L394,86L387,89L389,105L382,104L381,101L380,95L371,99L365,97L355,91L359,79L351,77L347,63L333,66L335,48L347,36L348,24L348,13L342,9L337,0L330,1L315,-1L320,-7L314,-17L304,-10L293,-14L278,-4L266,7L255,9L249,5L242,4L233,1L226,5L217,16L216,4L208,7L192,6L177,2L166,-4L156,-7L152,-15L144,-17L131,-27L120,-32L115,-28L96,-39L83,-49L79,-66L89,-64L89,-72L84,-80L85,-93L71,-112L49,-118L45,-131L36,-139L33,-144L31,-153L32,-160L24,-164L19,-162L16,-178L20,-182L18,-186L31,-194L40,-197L54,-195L59,-206L76,-208L81,-215L101,-225Z" fill="#E0E0E0" stroke="#fff" stroke-width=".4"/><path d="M654,59L646,82L640,94L633,81L632,71L640,56L650,45L656,50Z" fill="#E0E0E0" stroke="#fff" stroke-width=".4"/><path d="M641,222L635,212L646,213L651,217L647,229ZM665,259L668,256L669,247L677,246L675,255L684,242L683,255L678,260L674,268L670,272L662,263ZM715,280L716,289L717,297L713,309L708,295L702,302L706,312L702,318L686,310L683,301L687,294L678,288L674,294L668,293L658,301L656,297L661,285L669,282L677,277L681,283L691,279L694,273L703,273L702,262L713,269L714,275ZM611,268L593,281L599,272L609,263L617,254L624,241L626,252L618,259ZM661,146L659,152L664,162L660,174L652,178L650,189L653,200L660,202L666,200L683,208L682,215L686,218L684,225L674,218L669,211L666,216L657,208L645,210L639,207L639,201L644,198L640,194L638,199L631,191L629,186L629,172L634,177L636,155L640,143L648,143L656,147L660,143ZM657,240L655,233L663,238L672,238L672,243L665,249L657,253L657,247ZM703,230L707,245L697,241L697,246L700,254L694,257L694,248L690,247L687,239L695,240L695,235L687,224L700,225Z" fill="#E0E0E0" stroke="#fff" stroke-width=".4"/><path d="M366,306L369,304L379,310L380,317L389,315L394,310L397,311L404,319L410,328L411,337L409,343L411,347L412,355L416,359L421,371L421,375L412,376L399,366L384,356L382,349L374,340L373,329L368,322L369,312ZM602,337L591,335L576,335L571,350L566,355L559,373L548,376L536,372L529,374L522,380L513,379L505,382L496,375L493,366L503,370L513,368L516,357L522,354L538,351L547,341L554,332L560,339L562,335L569,335L569,327L570,320L580,311L587,300L592,300L599,307L600,313L609,317L620,321L619,326L610,326L612,333Z" fill="#E0E0E0" stroke="#fff" stroke-width=".4"/><path d="M570,320L569,327L569,335L562,335L560,339L554,332L559,327Z" fill="#E0E0E0" stroke="#fff" stroke-width=".4"/><path d="M921,-173L908,-156L909,-139L904,-126L906,-117L899,-106L882,-98L859,-97L840,-79L831,-85L830,-97L807,-94L792,-86L776,-86L790,-74L781,-47L772,-41L766,-47L769,-61L761,-66L755,-76L768,-81L775,-91L788,-100L798,-111L824,-116L838,-112L852,-142L861,-134L881,-150L888,-157L896,-178L894,-197L900,-208L914,-212L921,-187ZM957,-258L966,-266L969,-245L950,-240L938,-223L917,-235L910,-215L895,-215L893,-233L900,-247L914,-248L918,-273L922,-288L937,-268L948,-262ZM795,-79L802,-89L809,-87L815,-94L825,-90L826,-85L819,-75L813,-80L807,-76L803,-67L794,-72Z" fill="#E0E0E0" stroke="#fff" stroke-width=".4"/></g><g clip-path="url(#v)"><path d="M393.3,87.7L394.1,89.0L395.6,90.6L397.5,92.7L398.1,93.7L399.4,94.5L399.7,95.2L400.0,96.4L400.2,97.2L400.4,97.7L400.9,97.9L401.5,97.7L401.9,97.3L402.2,96.0L402.5,95.9L402.8,96.9L403.3,97.1L403.8,97.2L404.2,97.7L404.4,98.4L404.2,99.2L403.7,100.2L403.4,101.1L403.2,102.6L402.9,103.6L403.4,104.5L406.3,108.9L407.7,109.6L411.1,110.5L412.2,111.1L413.3,111.7L414.4,111.4L415.4,110.1L416.6,109.3L418.9,108.2L419.5,108.1L420.7,108.6L422.8,109.9L424.3,111.1L425.2,111.8L425.9,112.4L425.8,113.0L425.2,113.7L424.5,114.0L423.6,114.7L423.0,115.3L423.4,115.5L424.8,115.7L426.4,116.2L426.9,116.9L427.0,117.4L427.1,118.3L427.4,118.6L429.0,118.5L429.4,118.7L430.0,119.1L430.5,120.4L430.5,121.3L429.4,122.3L429.0,122.9L428.8,123.8L428.1,125.0L426.0,126.9L425.4,127.0L421.6,126.0L419.8,126.0L419.0,126.1L418.6,126.1L418.4,126.5L418.8,127.7L419.0,128.8L418.6,129.7L417.3,130.5L416.8,130.8L416.7,131.3L417.1,131.8L418.3,132.4L419.6,132.8L424.1,135.8L425.0,136.5L426.3,137.5L427.7,138.4L431.3,139.4L433.0,140.1L433.4,140.5L433.4,141.0L432.9,141.6L432.6,142.7L432.6,143.3L433.0,143.9L433.6,144.9L435.1,146.3L435.9,146.9L436.7,147.1L437.5,147.4L438.3,148.5L439.2,149.8L439.4,150.7L439.8,151.9L440.6,153.2L441.8,154.5L443.4,156.1L444.3,157.3L444.8,157.7L448.3,160.5L449.1,161.5L450.4,163.4L450.9,163.7L451.4,164.1L451.7,165.2L451.8,166.0L451.9,168.3L452.6,169.0L453.2,169.9L453.4,170.5L453.9,171.0L454.5,171.1L455.2,170.5L455.7,170.1L456.0,170.2L456.6,171.8L457.0,172.4L458.0,173.0L458.9,173.5L460.9,175.4L461.9,176.2L462.6,176.4L463.2,176.7L463.4,177.4L463.2,178L462.8,178.4L460.5,179.6L460.2,180.1L460.5,180.8L461.1,181.8L461.7,182.6L462.5,183.4L464.1,184.7L465.4,185.7L466.2,186.8L466.6,187.6L466.4,188.5L465.8,189.5L465.3,190.3L464.5,190.8L464.3,191.4L464.7,192.2L464.9,192.9L464.8,193.6L464.9,195.1L464.2,195.7L463.5,197.1L463.0,197.2L461.9,196.7L461.4,197.0L460.7,198.0L459.4,199.1L458.8,199.1L458.4,199.0L457.9,199.4L457.1,200.3L456.8,200.3L455.6,200.5L455.1,200.2L454.5,199.5L453.5,198.8L452.6,198.2L452.2,197.9L451.7,197.3L451.4,196.9L450.6,197.7L449.4,198.6L448.3,198.4L447.7,198.3L447.2,199.5L446.9,199.7L444.8,199.9L444.4,200.1L444.8,201.2L446.0,203.1L446.3,204.1L445.6,205.9L443.4,205.8L442.5,205.1L441.6,204.1L441.2,203.6L438.5,202.7L436.6,203.3L436.1,203.3L435.2,202.6L434.7,202.0L434.2,201.2L433.9,200.4L433.9,200.0L434.7,199.8L436.0,199.1L437.0,198.3L437.7,197.5L438.0,196.7L438.1,195.7L438.4,193.2L438.7,192.0L438.5,190.5L437.9,189.3L437.9,187.6L438.1,186.7L438.2,186.1L439.0,185.4L439.6,184.4L439.9,183.0L439.9,182.1L439.7,181.5L438.9,180.9L437.6,180.3L436.7,179.7L436.4,178.8L436.4,178.1L436.8,177.5L435.8,176.8L433.4,176.0L432.1,175.1L431.8,174.0L430.8,172.6L429.1,170.9L428.1,168.4L428.1,165.1L428.2,162.4L429.0,159.3L428.0,157.1L426.9,155.9L425.3,155.0L423.9,153.8L422.5,152.2L420.8,149.7L418.8,146.6L417.5,145.1L416.8,145.5L415.4,145.2L413.2,144.2L411.4,143.7L409.8,143.7L408.7,143.9L408.2,144.4L408.2,144.8L408.6,145.3L408.4,145.7L407.6,146.0L406.9,146.5L406.1,147.7L405.6,149.2L404.8,149.8L403.6,149.9L402.4,150.3L401.2,151.1L400.6,151.6L400.6,152.0L400.4,152.1L399.8,151.9L399.5,151.4L399.6,150.6L399.0,150.1L397.7,149.8L396.3,148.9L394.7,147.5L393.6,146.7L393.0,146.6L392.1,147.2L390.9,148.4L390.0,148.9L389.2,148.7L388.7,149.1L388.2,150.2L387.5,151.1L385.8,152.1L385.7,152.2L383.9,153.5L382.4,154.8L380.6,156.6L379.8,156.8L379.0,156.4L377.8,156.0L377.1,155.4L378.4,152.4L379.9,149.1L380.3,147.6L380.3,146.5L380.2,145.6L379.6,144.6L379.1,143.9L379.0,143.4L379.2,142.9L379.8,142.1L380.6,141.0L381.3,138.5L382.2,135.9L382.1,134.3L381.4,132.6L381.0,131.0L381.3,128.7L381.2,127.9L380.4,127.5L377.9,127.0L377.1,127.1L376.5,127.4L375.8,128.0L375.0,128.4L373.4,128.6L371.9,127.8L370.7,126.5L370.4,125.0L371.3,123.1L371.9,121.6L372.3,120.3L372.3,119.6L372.0,119.0L371.7,118.9L370.8,118.1L370.1,116.7L369.3,116.1L368.6,116.2L368.0,116.7L367.4,117.7L367.0,118.0L366.6,117.9L366.7,117.0L366.8,116.3L367.6,113.2L368.4,111.2L369.5,110.3L370.5,109.9L371.7,110.0L372.6,109.8L373.4,109.4L373.3,109.1L372.4,109.0L372.0,108.5L372.2,107.5L372.6,106.8L373.2,106.5L373.9,105.5L374.4,103.8L375.1,102.9L376.0,102.9L377.4,102.2L379.4,100.7L380.2,99.3L381.0,99.9L380.7,101.6L381.1,101.9L381.3,102.5L381.2,103.4L381.4,104.2L381.7,104.6L382.1,104.8L384.3,104.1L385.6,104.0L386.1,104.5L386.6,104.7L387.2,105.0L387.7,105.2L388.0,105.1L388.8,104.5L389.0,104.3L389.0,104.0L388.5,103.4L388.0,102.9L388.0,101.7L388.2,99.8L388.3,98.7L388.2,96.3L388.1,95.6L387.7,94.8L386.4,93.3L386.0,92.3L385.8,91.4L385.8,90.8L385.5,90.1L385.3,89.5L385.9,89.1L386.6,88.4L386.9,87.3L387.3,86.5L387.7,86.1L388.2,86.0L388.5,86.1L389.6,87.5L390.9,86.8L392.0,86.8L392.9,87.2Z" fill="#4ECDC4" stroke="#2C3E50" stroke-width="1"/></g><circle cx="400.0" cy="150.0" r="4" fill="#E74C3C" stroke="#fff" stroke-width="2"/><text x="400.0" y="140.0" text-anchor="middle" font-family="sans-serif" font-weight="700" font-size="10" fill="#2D3436">Vientiane</text></svg>