<svg viewBox="0 0 800 300" xmlns="http://www.w3.org/2000/svg"><defs><clipPath id="v"><rect width="800" height="300"/></clipPath></defs><rect width="800" height="300" fill="#DCEEF8"/><g clip-path="url(#v)"><path d="M414,240L403,264L380,254L366,304L382,313L366,323L363,343L393,333L395,362L363,480L357,461L321,353L340,328L335,324L352,289L365,231L374,212L376,211L398,211L403,198L421,197L422,228L413,240Z" fill="#E0E0E0" stroke="#fff" stroke-width=".4"/><path d="M393,333L363,343L366,323L382,313L366,304L380,254L403,264L403,311Z" fill="#E0E0E0" stroke="#fff" stroke-width=".4"/><path d="M403,264L414,240L485,270L611,189L636,282L624,293L496,331L560,406L539,418L528,443L479,453L464,480L437,502L365,491L363,480L395,362L393,333L403,311Z" fill="#E0E0E0" stroke="#fff" stroke-width=".4"/><path d="M636,282L611,189L752,109L776,15L771,-43L806,-63L838,-113L866,-125L940,-115L963,-94L993,-108L1035,-13L1077,11L1081,57L1049,83L1034,144L1079,217L1157,259L1190,316L1180,370L1200,370L1201,410L1236,449L1198,445L1155,439L1108,510L989,504L900,429L809,355L714,302Z" fill="#E0E0E0" stroke="#fff" stroke-width=".4"/><path d="M1236,449L1201,410L1200,370L1180,370L1190,316L1157,259L1079,217L1034,144L1049,83L1081,57L1077,11L1035,-13L993,-108L958,-173L971,-198L951,-292L995,-316L1005,-284L1037,-246L1081,-235L1104,-238L1180,-299L1204,-305L1222,-281L1201,-240L1240,-197L1256,-201L1277,-141L1337,-124L1382,-84L1473,-70L1573,-91L1579,-110L1635,-126L1680,-172L1723,-170L1751,-185L1797,-177L1868,-136L1919,-127L1992,-57L2039,-54L2045,13L2019,110L2001,166L2029,178L2002,220L2023,280L2028,328L2076,341L2082,389L2024,456L2055,495L2081,539L2142,571L2144,635L2174,646L2180,679L2088,716L2063,799L1943,777L1873,761L1801,752L1774,664L1743,652L1694,664L1629,699L1551,675L1487,620L1425,600L1382,530L1335,432L1301,444L1260,420Z" fill="#E0E0E0" stroke="#fff" stroke-width=".4"/><path d="M414,240L413,240L422,228L421,197L436,155L471,126L461,96L432,92L426,32L442,-1L459,-18L476,-35L479,-80L500,-64L571,-86L605,-71L657,-72L731,-102L765,-100L838,-113L806,-63L771,-43L776,15L752,109L611,189L485,270Z" fill="#E0E0E0" stroke="#fff" stroke-width=".4"/><path d="M-189,40L-197,64L-290,70L-289,57L-367,42L-355,9L-320,35L-270,31L-223,36L-224,50ZM-403,-453L-355,-450L-304,-473L-259,-444L-201,-452L-200,-494L-169,-472L-189,-418L-204,-409L-243,-411L-277,-419L-354,-397L-310,-350L-342,-336L-378,-336L-412,-380L-424,-361L-409,-311L-377,-272L-401,-254L-366,-216L-334,-193L-333,-147L-393,-169L-374,-127L-414,-119L-390,-48L-432,-47L-485,-82L-509,-146L-520,-200L-545,-238L-578,-285L-582,-308L-552,-349L-549,-376L-528,-388L-527,-410L-485,-418L-460,-437L-426,-435L-415,-450Z" fill="#E0E0E0" stroke="#fff" stroke-width=".4"/><path d="M993,-108L963,-94L940,-115L866,-125L838,-113L765,-100L731,-102L657,-72L605,-71L571,-86L500,-64L479,-80L476,-35L459,-18L442,-1L418,-37L442,-66L403,-60L350,-78L306,-32L209,-23L157,-66L88,-69L73,-36L29,-26L-33,-68L-103,-67L-141,-147L-187,-192L-156,-256L-197,-295L-126,-375L-27,-378L-0,-442L121,-431L198,-487L273,-511L379,-513L490,-452L582,-419L657,-433L712,-425L787,-469L856,-473L917,-432L928,-402L922,-361L970,-340L995,-316L951,-292L971,-198L958,-173ZM-200,-494L-135,-521L-80,-510L-73,-477L-17,-449L-28,-428L-104,-424L-132,-398L-185,-352L-205,-392L-204,-409L-189,-418L-169,-472Z" fill="#E0E0E0" stroke="#fff" stroke-width=".4"/><path d="M1098,-497L1116,-494L1160,-442L1188,-437L1199,-458L1237,-493L1271,-448L1303,-388L1333,-384L1353,-361L1300,-354L1289,-290L1278,-261L1255,-242L1256,-201L1240,-197L1201,-240L1222,-281L1204,-305L1180,-299L1104,-238L1103,-295L1074,-309L1047,-331L1065,-358L1031,-387L1044,-408L1019,-423L1006,-445L1022,-459L1069,-434L1104,-429L1113,-439L1081,-485ZM1081,-235L1037,-246L1005,-284L995,-316L1008,-318L1027,-296L1055,-296L1055,-283Z" fill="#E0E0E0" stroke="#fff" stroke-width=".4"/><path d="M365,491L437,502L464,480L479,453L528,443L539,418L560,406L496,331L624,293L636,282L714,302L809,355L900,429L989,504L1108,510L1165,517L1181,552L1226,550L1251,612L1283,629L1294,654L1338,684L1341,714L1335,737L1343,761L1362,781L1370,804L1380,822L1399,836L1417,831L1429,857L1431,874L1456,944L1648,979L1661,965L1690,1014L1648,1151L1456,1219L1271,1244L1212,1275L1166,1345L1136,1356L1120,1334L1095,1338L1033,1331L1022,1324L948,1326L931,1332L904,1314L887,1347L894,1375L866,1397L857,1368L838,1348L833,1321L800,1297L766,1241L748,1186L704,1139L675,1128L633,1062L625,1015L628,974L592,896L562,869L527,855L506,814L509,798L492,762L473,746L448,693L409,635L376,585L344,586L355,546L357,520Z" fill="#E0E0E0" stroke="#fff" stroke-width=".4"/><path d="M223,53L227,53L237,34L283,35L341,11L298,45L302,59L296,57L283,62L274,61L270,64L269,56L265,51L252,50L235,57Z" fill="#E0E0E0" stroke="#fff" stroke-width=".4"/><path d="M223,53L235,57L252,50L265,51L269,56L270,64L274,61L283,62L296,57L302,59L304,66L239,97L207,87L193,56Z" fill="#E0E0E0" stroke="#fff" stroke-width=".4"/><path d="M487,1014L360,1013L234,1014L110,1013L-15,1014L-143,1013L-272,1014L-272,756L-272,500L-291,440L-275,394L-284,362L-261,327L-176,325L-114,345L-51,367L-21,379L28,355L54,334L111,327L156,337L173,374L188,350L240,367L290,372L321,353L357,461L363,480L345,510L331,565L314,603L299,615L278,592L249,559L203,454L196,461L223,539L262,612L311,723L334,762L355,802L412,880L400,892L402,937L476,999Z" fill="#E0E0E0" stroke="#fff" stroke-width=".4"/></g><g clip-path="url(#v)"><path d="M430.5,92.8L441.6,92.8L448.9,92.5L451.0,88.9L456.5,90.5L459.8,94.0L456.8,97.7L452.9,101.7L453.1,102.8L456.1,103.2L461.2,105.5L464.4,108.0L469.4,124.5L466.2,131.2L461.2,137.1L459.1,137.6L454.7,140.7L451.0,144.7L449.9,147.3L450.1,149.7L455.2,152.7L455.4,153.9L454.2,154.9L450.1,154.2L444.8,153.9L441.6,153.9L437.9,154.5L433.3,158.2L431.2,160.6L430.1,162.1L428.2,167.2L430.3,170.5L433.7,172.5L434.2,173.4L433.5,175.2L429.8,177.3L427.3,180.0L426.6,182.6L423.6,185.2L421.8,186.5L418.3,190.0L415.1,192.9L408.2,197.3L406.6,199.9L405.2,197.5L402.2,199.1L399.7,209.1L394.4,212.5L387.7,212.1L382.4,211.2L375.0,211.9L378.0,206.0L381.0,198.5L384.0,188.2L389.5,179.7L400.8,150.7L407.3,139.1L409.6,122.3L419.5,107.6L427.1,103.3L430.5,99.2Z" fill="#4ECDC4" stroke="#2C3E50" stroke-width="1"/></g><circle cx="400.0" cy="150.0" r="4" fill="#E74C3C" stroke="#fff" stroke-width="2"/><text x="400.0" y="140.0" text-anchor="middle" font-family="sans-serif" font-weight="700" font-size="10" fill="#2D3436">Beirut</text></svg>