<svg viewBox="0 0 800 300" xmlns="http://www.w3.org/2000/svg"><defs><clipPath id="v"><rect width="800" height="300"/></clipPath></defs><rect width="800" height="300" fill="#DCEEF8"/><g clip-path="url(#v)"><path d="M-348,-143L-346,-163L-364,-185L-347,-198L-342,-226L-348,-266L-339,-279L-285,-279L-243,-260L-225,-261L-212,-235L-174,-237L-176,-215L-145,-212L-111,-185L-137,-155L-170,-171L-202,-168L-225,-171L-238,-158L-264,-153L-275,-171L-298,-161L-326,-110L-344,-122Z" fill="#E0E0E0" stroke="#fff" stroke-width=".4"/><path d="M-10,1050L-23,1059L-37,1018L-56,996L-80,1020L-216,1018L-215,1062L-174,1069L-176,1096L-190,1089L-229,1100L-230,1151L-199,1176L-188,1216L-189,1247L-221,1438L-256,1401L-277,1400L-232,1328L-285,1296L-327,1302L-352,1289L-391,1308L-443,1299L-484,1226L-516,1208L-539,1175L-585,1142L-603,1149L-633,1132L-668,1109L-688,1120L-747,1110L-764,1080L-777,1081L-847,1042L-856,1020L-830,1015L-833,980L-817,954L-782,950L-753,906L-726,869L-752,852L-739,812L-754,748L-739,729L-750,670L-779,632L-769,598L-747,603L-734,582L-750,541L-742,530L-706,533L-653,483L-624,476L-624,452L-611,392L-571,359L-527,358L-521,343L-467,349L-412,313L-384,297L-351,263L-326,267L-308,286L-321,310L-366,322L-384,358L-411,378L-431,404L-440,455L-459,496L-423,501L-414,533L-399,549L-393,577L-402,604L-399,618L-382,624L-365,649L-275,642L-235,651L-186,711L-158,704L-107,708L-68,700L-43,712L-55,749L-71,773L-76,823L-62,870L-42,890L-40,906L-75,941L-50,956L-32,981Z" fill="#E0E0E0" stroke="#fff" stroke-width=".4"/><path d="M419,774L428,794L402,821L324,847L274,858L254,875L198,857L147,848L134,855L165,873L162,920L172,964L231,970L235,984L185,1004L177,1034L148,1045L96,1061L83,1083L28,1087L-10,1050L-32,981L-50,956L-75,941L-40,906L-42,890L-62,870L-76,823L-71,773L-55,749L-43,712L-68,700L-107,708L-158,704L-186,711L-235,651L-275,642L-365,649L-382,624L-399,618L-402,604L-393,577L-399,549L-414,533L-423,501L-459,496L-440,455L-431,404L-411,378L-384,358L-366,322L-321,310L-323,327L-364,335L-341,367L-342,405L-373,446L-347,502L-317,497L-301,446L-323,421L-326,368L-239,338L-249,305L-224,282L-199,333L-150,334L-105,373L-102,397L-40,398L35,390L75,422L129,431L167,409L168,391L255,387L339,385L279,406L303,440L359,445L412,480L423,537L459,535L487,552L431,593L425,619L449,645L432,658L389,669L390,702L371,721Z" fill="#E0E0E0" stroke="#fff" stroke-width=".4"/><path d="M31,-178L67,-171L79,-157L62,-138L9,-139L-32,-136L-36,-167L-26,-178Z" fill="#E0E0E0" stroke="#fff" stroke-width=".4"/><path d="M352,382L393,373L407,376L404,428L346,436L334,430L354,410Z" fill="#E0E0E0" stroke="#fff" stroke-width=".4"/></g><g clip-path="url(#v)"><path d="M407.2,163.5L403.5,171.1L395.7,166.3L394.9,160.4L395.7,156.7L400.2,150.0L404.0,145.5L406.5,144.0L408.0,149.9Z" fill="#4ECDC4" stroke="#2C3E50" stroke-width="1"/></g><circle cx="400.0" cy="150.0" r="4" fill="#E74C3C" stroke="#fff" stroke-width="2"/><text x="400.0" y="140.0" text-anchor="middle" font-family="sans-serif" font-weight="700" font-size="10" fill="#2D3436">Castries</text></svg>