<svg viewBox="0 0 800 300" xmlns="http://www.w3.org/2000/svg"><defs><clipPath id="v"><rect width="800" height="300"/></clipPath></defs><rect width="800" height="300" fill="#DCEEF8"/><g clip-path="url(#v)"><path d="M2285,444L2285,545L2286,646L2258,621L2227,615L2219,623L2180,624L2194,599L2213,590L2205,557L2190,531L2130,504L2105,502L2059,473L2050,488L2038,491L2031,480L2031,466L2007,451L2040,440L2062,441L2060,432L2015,432L2002,414L1975,408L1962,393L2003,386L2019,376L2069,388L2073,400L2082,449L2114,468L2140,435L2175,417L2202,417L2229,427L2252,438ZM1791,639L1794,645L1794,655L1774,678L1748,685L1744,681L1747,671L1760,652ZM2076,577L2073,554L2078,543L2084,532L2091,541L2091,556ZM1572,236L1555,264L1577,294L1572,308L1607,336L1570,340L1560,361L1561,389L1532,410L1531,441L1519,488L1514,477L1479,491L1467,472L1445,470L1430,460L1393,471L1382,456L1362,458L1336,455L1331,413L1316,405L1301,378L1297,351L1301,323L1319,302L1324,323L1345,340L1365,334L1385,336L1403,321L1417,318L1447,327L1472,320L1488,277L1499,266L1510,231L1545,231ZM1926,451L1960,460L1971,483L1945,470L1920,468L1902,470L1881,469L1888,452ZM1849,481L1828,475L1822,462L1853,461L1861,471ZM1882,297L1884,314L1902,317L1905,329L1904,356L1888,353L1883,372L1896,388L1887,392L1875,372L1866,333L1872,308ZM1728,337L1763,336L1794,313L1799,320L1774,351L1751,357L1721,351L1670,352L1643,357L1639,380L1666,408L1683,394L1740,383L1738,397L1725,393L1711,411L1684,423L1713,462L1708,473L1735,509L1735,529L1719,538L1706,527L1721,502L1691,514L1683,505L1687,493L1665,475L1668,445L1647,455L1650,491L1651,535L1631,539L1618,530L1627,502L1622,472L1609,472L1600,451L1612,430L1617,406L1632,359L1639,347L1665,324L1689,333ZM1647,682L1606,660L1634,654L1651,663L1661,673L1660,681ZM1679,628L1699,626L1727,614L1722,632L1676,641L1635,637L1635,625L1660,619ZM1584,623L1603,620L1611,634L1575,640L1554,644L1537,644L1548,626L1565,625L1573,614ZM1283,563L1287,574L1346,577L1353,564L1410,579L1421,599L1467,605L1505,623L1470,635L1436,622L1408,623L1376,621L1347,615L1312,603L1289,600L1276,604L1220,591L1215,578L1186,576L1208,546L1245,548L1270,560ZM1156,398L1161,419L1172,436L1194,439L1209,459L1202,497L1200,545L1166,545L1140,520L1101,494L1088,476L1064,450L1049,427L1025,384L998,358L989,332L978,308L950,288L934,262L911,245L879,211L876,195L896,196L944,202L971,232L995,253L1012,266L1041,299L1072,300L1098,321L1116,347L1139,361L1127,386L1145,397Z" fill="#E0E0E0" stroke="#fff" stroke-width=".4"/><path d="M1182,-80L1153,-85L1113,-79L1093,-53L1101,-14L1073,-29L1047,-28L1051,-53L1024,-53L1022,-18L1005,28L995,55L997,78L1017,79L1030,108L1035,134L1052,152L1071,156L1087,172L1077,185L1057,188L1054,172L1029,159L1024,164L1012,153L1006,137L990,120L975,105L970,123L964,106L967,86L976,56L991,24L1008,-5L996,-34L997,-49L993,-66L973,-92L965,-108L976,-113L987,-141L975,-163L955,-186L940,-215L953,-220L967,-256L989,-257L1007,-271L1025,-279L1038,-269L1040,-249L1061,-248L1053,-213L1054,-184L1086,-204L1095,-198L1114,-199L1120,-210L1143,-208L1166,-182L1168,-150L1193,-122L1192,-95Z" fill="#E0E0E0" stroke="#fff" stroke-width=".4"/><path d="M1025,-279L1007,-271L989,-257L967,-256L953,-220L940,-215L955,-186L975,-163L987,-141L976,-113L965,-108L973,-92L993,-66L997,-49L996,-34L1008,-5L991,24L976,56L973,33L983,9L973,-10L975,-44L963,-60L953,-98L947,-139L934,-165L913,-149L878,-126L861,-129L842,-137L853,-177L846,-207L822,-245L826,-256L808,-261L786,-287L784,-314L795,-309L795,-333L810,-341L807,-355L814,-366L815,-401L839,-393L853,-421L855,-438L872,-466L871,-486L911,-510L933,-504L930,-525L941,-531L939,-545L957,-547L967,-527L980,-518L981,-492L980,-463L951,-435L947,-395L980,-400L987,-369L1007,-363L998,-335L1021,-323L1034,-317L1056,-326L1057,-313L1031,-291Z" fill="#E0E0E0" stroke="#fff" stroke-width=".4"/><path d="M939,-545L941,-531L930,-525L933,-504L911,-510L871,-486L872,-466L855,-438L853,-421L839,-393L815,-401L814,-366L807,-355L810,-341L795,-333L779,-386L771,-386L765,-364L749,-382L758,-401L772,-403L786,-431L768,-437L740,-437L710,-441L708,-465L693,-467L669,-482L658,-458L680,-440L661,-428L654,-415L673,-406L668,-386L678,-361L683,-333L679,-321L658,-321L620,-315L621,-290L605,-270L561,-248L526,-210L503,-189L472,-168L472,-153L457,-146L429,-134L415,-132L405,-108L412,-67L413,-40L400,-10L400,43L384,45L370,69L380,79L352,88L341,109L329,118L300,89L285,45L274,13L263,-2L246,-32L239,-72L233,-91L205,-135L193,-198L183,-239L183,-279L177,-310L133,-290L111,-294L71,-334L85,-346L76,-359L40,-388L61,-410L129,-410L122,-439L105,-457L102,-483L81,-499L115,-535L151,-532L183,-569L203,-605L233,-641L232,-667L258,-688L234,-706L223,-731L212,-763L227,-779L274,-770L308,-776L338,-807L371,-763L368,-733L380,-714L379,-696L357,-700L366,-660L396,-638L439,-613L419,-596L407,-563L437,-550L466,-533L506,-513L549,-509L566,-491L590,-488L627,-480L653,-481L657,-494L653,-516L655,-531L674,-538L676,-511L677,-504L705,-491L724,-496L750,-494L776,-495L778,-516L765,-528L790,-532L818,-558L854,-580L879,-572L901,-587L916,-565L905,-550Z" fill="#E0E0E0" stroke="#fff" stroke-width=".4"/></g><g clip-path="url(#v)"><path d="M403.7,65.9L401.8,66.2L400.2,64.2L399.9,63.2L400.2,62.6L400.7,62.3L401.2,62.4L401.9,64.4ZM400.8,84.0L401.7,86.3L399.1,84.8L397.5,83.4L396.8,82.3L400.4,83.5ZM404.1,60.2L407.0,60.4L410.2,60.2L412.4,60.7L416.2,65.5L426.5,74.1L432.2,82.9L432.6,84.8L433.4,86.4L434.8,86.9L436.0,87.7L441.5,96.1L442.2,97.8L442.1,99.6L442.4,101L444.0,101.7L445.7,102.0L447.0,103.3L448.5,110.0L448.5,112.1L448.8,113.1L455.9,123.5L456.4,124.8L456.3,125.8L456.5,126.6L457.8,128.4L460.0,133.4L461.0,134.5L462.4,138.9L462.5,147.2L462.0,150.9L460.7,155.4L459.2,159.8L457.4,163.0L455.1,165.7L447.2,171.4L444.8,172.5L434.5,176.1L427.0,179.5L419.9,180.4L412.9,178.6L407.6,174.1L404.9,167.5L403.0,160.7L400.2,153.1L398.2,129.6L397.2,123.1L395.6,114.7L395.8,111.1L396.9,107.6L396.9,115.2L397.9,116.1L398.7,115.2L399.5,107.3L400.0,103.9L402.8,95.2L402.9,93.6L402.3,90.3L402.5,88.7L406.7,82.6L407.7,79.0L408.2,75.4L408.0,71.4L407.2,67.5L410.7,68.8L412.6,70.1L414.4,71.0L416.0,70.6L417.8,70.6L416.6,68.4L412.6,66.5L406.0,65.3L404.0,63.7L403.2,62.4L403.6,60.8Z" fill="#4ECDC4" stroke="#2C3E50" stroke-width="1"/></g><circle cx="400.0" cy="150.0" r="4" fill="#E74C3C" stroke="#fff" stroke-width="2"/><text x="400.0" y="140.0" text-anchor="middle" font-family="sans-serif" font-weight="700" font-size="10" fill="#2D3436">Sri Jayawardenepura Kotte</text></svg>