<svg viewBox="0 0 800 300" xmlns="http://www.w3.org/2000/svg"><defs><clipPath id="v"><rect width="800" height="300"/></clipPath></defs><rect width="800" height="300" fill="#DCEEF8"/><g clip-path="url(#v)"><path d="M-764,211L-781,237L-789,258L-800,269L-814,271L-818,263L-824,262L-833,270L-845,264L-838,252L-836,239L-831,227L-842,210L-844,190L-829,166L-820,169L-799,175L-769,200ZM884,-1296L897,-1285L938,-1277L924,-1247L920,-1217L912,-1209L900,-1213L900,-1203L880,-1179L879,-1160L893,-1167L903,-1149L901,-1137L910,-1122L900,-1110L907,-1079L923,-1074L919,-1057L894,-1034L837,-1045L796,-1032L793,-1009L760,-1004L728,-1021L717,-1013L665,-1031L653,-1046L668,-1070L674,-1150L644,-1193L623,-1215L580,-1231L577,-1262L614,-1272L662,-1260L653,-1310L679,-1291L746,-1325L754,-1362L779,-1371L783,-1355L797,-1355L810,-1337L830,-1316L844,-1319L869,-1299L876,-1295ZM957,-1015L975,-1030L980,-997L970,-967L958,-975L951,-1001Z" fill="#E0E0E0" stroke="#fff" stroke-width=".4"/><path d="M232,-61L220,-84L206,-94L218,-100L232,-121L239,-136L248,-145L263,-143L276,-149L292,-150L306,-141L325,-133L342,-111L361,-91L362,-73L368,-56L379,-48L381,-37L380,-27L376,-26L360,-28L358,-25L352,-24L331,-31L317,-32L265,-33L257,-30L248,-30L233,-26L228,-48L254,-47L261,-52L266,-52L276,-59L289,-52L301,-52L313,-58L308,-67L298,-62L289,-62L278,-69L269,-69L263,-62Z" fill="#E0E0E0" stroke="#fff" stroke-width=".4"/><path d="M380,-27L381,-37L379,-48L368,-56L362,-73L361,-91L371,-96L375,-114L384,-115L404,-106L420,-112L431,-110L436,-117L550,-117L556,-138L551,-142L538,-271L524,-405L567,-405L663,-337L760,-270L766,-256L784,-247L797,-243L798,-223L829,-226L829,-157L814,-137L811,-119L786,-115L747,-112L737,-101L718,-100L700,-100L693,-106L677,-102L651,-89L645,-80L623,-67L619,-60L607,-54L594,-57L586,-50L582,-30L559,-6L560,4L552,16L554,33L542,37L535,41L531,28L523,32L518,31L513,39L490,39L483,35L479,38L470,29L472,21L468,17L462,20L463,11L469,3L457,-9L454,-17L448,-24L442,-24L435,-20L426,-16L418,-10L406,-12L398,-20L393,-21L386,-17L381,-17Z" fill="#E0E0E0" stroke="#fff" stroke-width=".4"/><path d="M222,-282L228,-292L339,-292L334,-337L341,-352L368,-355L367,-435L460,-434L460,-482L567,-405L524,-405L538,-271L551,-142L556,-138L550,-117L436,-117L431,-110L420,-112L404,-106L384,-115L375,-114L371,-96L361,-91L342,-111L325,-133L306,-141L292,-150L276,-149L263,-143L248,-145L239,-136L236,-152L244,-167L248,-195L245,-224L241,-239L244,-255L237,-269Z" fill="#E0E0E0" stroke="#fff" stroke-width=".4"/><path d="M784,151L761,155L754,135L755,69L749,63L748,49L738,38L730,30L733,15L743,11L749,-1L763,-4L769,-13L779,-21L789,-21L811,-5L809,5L816,22L810,34L813,42L799,60L791,68L785,87L786,105Z" fill="#E0E0E0" stroke="#fff" stroke-width=".4"/><path d="M1131,-339L1138,-292L1148,-284L1149,-274L1161,-264L1154,-251L1143,-189L1142,-151L1106,-123L1093,-84L1105,-73L1105,-54L1123,-53L1121,-40L1113,-38L1112,-29L1106,-28L1087,-60L1080,-61L1058,-45L1036,-53L1021,-55L1012,-51L996,-52L979,-39L964,-39L930,-54L916,-47L902,-47L891,-58L863,-69L832,-66L825,-59L821,-42L812,-31L811,-5L789,-21L779,-21L769,-13L770,-33L737,-39L736,-54L720,-73L716,-86L718,-100L737,-101L747,-112L786,-115L811,-119L814,-137L829,-157L829,-226L869,-240L952,-299L1049,-358L1094,-345L1110,-328Z" fill="#E0E0E0" stroke="#fff" stroke-width=".4"/><path d="M784,151L786,105L785,87L791,68L799,60L813,42L810,34L816,22L809,5L811,-5L812,-31L821,-42L825,-59L832,-66L863,-69L891,-58L902,-47L916,-47L930,-54L964,-39L979,-39L996,-52L1012,-51L1021,-55L1036,-53L1058,-45L1080,-61L1087,-60L1106,-28L1112,-29L1123,-17L1120,-12L1118,-2L1094,20L1087,39L1083,54L1077,60L1071,81L1056,92L1051,107L1045,119L1042,130L1023,140L1007,128L996,129L979,146L971,146L957,173L950,194L920,204L909,203L898,209L876,208L860,190L851,170L831,151L809,151Z" fill="#E0E0E0" stroke="#fff" stroke-width=".4"/><path d="M1121,-40L1132,-21L1134,-2L1133,18L1148,44L1132,44L1124,46L1111,43L1105,57L1122,73L1134,78L1138,90L1147,110L1143,118L1129,147L1122,152L1119,174L1122,186L1120,195L1134,210L1136,220L1146,235L1159,244L1161,257L1164,265L1162,281L1139,274L1116,266L1080,265L1077,264L1060,267L1042,264L1029,265L982,265L987,242L976,223L962,219L957,206L949,202L950,194L957,173L971,146L979,146L996,129L1007,128L1023,140L1042,130L1045,119L1051,107L1056,92L1071,81L1077,60L1083,54L1087,39L1094,20L1118,-2L1120,-12L1123,-17L1112,-29L1113,-38Z" fill="#E0E0E0" stroke="#fff" stroke-width=".4"/><path d="M733,15L730,30L738,38L748,49L749,63L755,69L754,135L761,155L738,161L731,151L724,132L722,118L728,92L721,82L718,59L718,38L706,23L708,14Z" fill="#E0E0E0" stroke="#fff" stroke-width=".4"/><path d="M708,14L706,23L718,38L718,59L721,82L728,92L722,118L724,132L731,151L738,161L693,177L677,187L652,195L626,187L628,176L615,151L623,119L635,95L627,54L623,32L624,16L673,14L686,16L695,12Z" fill="#E0E0E0" stroke="#fff" stroke-width=".4"/><path d="M479,38L483,35L490,39L513,39L518,31L523,32L531,28L535,41L542,37L554,33L566,39L571,49L584,55L594,47L608,46L627,54L635,95L623,119L615,151L628,176L626,187L613,188L593,182L575,182L541,187L522,196L493,206L488,205L490,182L493,178L492,167L480,155L471,153L463,145L469,132L466,119L467,110L472,110L473,98L471,92L474,88L485,85L477,62L471,50L473,40Z" fill="#E0E0E0" stroke="#fff" stroke-width=".4"/><path d="M317,-32L331,-31L352,-24L358,-25L360,-28L376,-26L380,-27L381,-17L386,-17L393,-21L398,-20L406,-12L418,-10L426,-16L435,-20L442,-24L448,-24L454,-17L457,-9L469,3L463,11L462,20L468,17L472,21L470,29L479,38L473,40L471,50L477,62L485,85L474,88L471,92L473,98L472,110L467,110L459,109L453,121L445,121L440,115L442,103L430,86L422,89L416,90L408,91L409,81L404,73L405,65L399,53L391,42L368,42L361,48L354,48L349,55L345,62L330,75L318,58L307,47L299,43L292,37L289,24L285,18L277,13L289,-1L298,-0L305,-5L312,-5L316,-9L314,-19L317,-22Z" fill="#E0E0E0" stroke="#fff" stroke-width=".4"/><path d="M233,-26L248,-30L257,-30L265,-33L317,-32L317,-22L314,-19L316,-9L312,-5L305,-5L298,-0L289,-1L277,13L261,1L249,-1L243,-9L243,-13L234,-19Z" fill="#E0E0E0" stroke="#fff" stroke-width=".4"/><path d="M330,75L345,62L349,55L354,48L361,48L368,42L391,42L399,53L405,65L404,73L409,81L408,91L416,90L403,103L390,119L389,127L382,136L374,134L354,122L339,107L334,96Z" fill="#E0E0E0" stroke="#fff" stroke-width=".4"/><path d="M554,33L552,16L560,4L559,-6L582,-30L586,-50L594,-57L607,-54L619,-60L623,-67L645,-80L651,-89L677,-102L693,-106L700,-100L718,-100L716,-86L720,-73L736,-54L737,-39L770,-33L769,-13L763,-4L749,-1L743,11L733,15L708,14L695,12L686,16L673,14L624,16L623,32L627,54L608,46L594,47L584,55L571,49L566,39Z" fill="#E0E0E0" stroke="#fff" stroke-width=".4"/><path d="M1029,265L1042,264L1060,267L1077,264L1080,265L1078,278L1086,292L1107,290L1114,296L1102,329L1115,346L1119,368L1115,387L1106,400L1081,399L1066,385L1063,398L1044,401L1035,409L1045,427L1024,443L994,414L976,391L958,361L959,352L965,343L972,322L978,301L988,299L1029,300Z" fill="#E0E0E0" stroke="#fff" stroke-width=".4"/><path d="M982,265L1029,265L1029,300L988,299L978,301L973,297Z" fill="#E0E0E0" stroke="#fff" stroke-width=".4"/><path d="M232,-61L263,-62L269,-69L278,-69L289,-62L298,-62L308,-67L313,-58L301,-52L289,-52L276,-59L266,-52L261,-52L254,-47L228,-48Z" fill="#E0E0E0" stroke="#fff" stroke-width=".4"/></g><g clip-path="url(#v)"><path d="M379.8,132.6L381.4,131.3L383.5,127.2L386.7,123.2L389.6,120.9L391.8,118.5L394.3,116.6L397.8,114.5L403.1,108.8L404.4,108.1L405.2,104.2L406.5,99.1L408.0,97.6L411.7,96.6L412.6,95.8L413.8,92.3L414.6,88.1L414.7,87.3L416.1,87.1L418.6,86.3L420.0,86.7L420.7,87.8L421.0,88.8L428.4,86.3L429.0,85.7L429.4,85.8L430.3,88.2L430.8,88.0L431.3,87.3L431.8,87.3L432.3,87.6L433.0,88.7L433.9,89.6L435.5,90.3L436.6,91.3L436.3,93.7L436.8,96.1L437.5,96.7L437.9,98.1L438.0,99.7L438.4,100.5L438.7,102.1L438.6,103.8L438.8,105.0L440.0,107.1L440.8,109.7L440.8,111.6L440.3,113.5L439.5,115.3L438.2,117.2L438.1,118.0L438.9,118.5L440.1,118.6L441.2,118.2L443.7,119.1L445.2,120.4L446.4,121.9L447.4,122.7L447.9,123.7L449.8,123.4L451.9,122.5L452.3,122.0L453.1,122.3L454.4,122.4L455.4,120.7L456.1,118.7L457.9,116.5L458.7,115.7L458.9,114.3L459.0,112.5L459.6,111.0L461.0,110.2L462.5,110.2L463.3,110.5L463.7,112.0L464.9,113.1L465.9,113.9L466.4,114.2L467.3,115.1L468.1,118.1L471.3,127.8L471.1,130.5L470.5,132.2L470.5,134.0L470.3,135.6L468.3,138.4L462.6,144.1L463.0,144.6L464.3,145.2L465.8,145.5L466.9,145.4L468.3,146.7L470.0,148.5L471.6,149.4L474.0,150.3L476.0,150.4L477.8,150.0L480.2,150.4L482.9,151.9L483.8,154.3L484.5,156.4L485.5,157.5L485.6,159.3L487.4,160.9L490.1,161.2L493.6,163.1L494.5,163.0L494.9,162.8L495.3,163.2L496.1,168.6L496.8,171.5L496.5,172.6L496.0,173.5L496.0,177.9L494.4,180.4L494.2,183.2L493.7,184.1L492.0,184.9L492.0,187.0L491.6,189.6L491.4,192.3L491.8,199.5L491.9,204.8L492.7,205.8L489.5,205.3L479.8,201.2L472.3,198.9L447.5,185.7L440.6,180.3L432.7,172.4L414.9,156.3L410.9,153.8L405.8,152.6L402.6,151.2L400.5,149.7L398.6,145.3L394.2,142.6L386,138.9Z" fill="#4ECDC4" stroke="#2C3E50" stroke-width="1"/></g><circle cx="400.0" cy="150.0" r="4" fill="#E74C3C" stroke="#fff" stroke-width="2"/><text x="400.0" y="140.0" text-anchor="middle" font-family="sans-serif" font-weight="700" font-size="10" fill="#2D3436">Monrovia</text></svg>