<svg viewBox="0 0 800 300" xmlns="http://www.w3.org/2000/svg"><defs><clipPath id="v"><rect width="800" height="300"/></clipPath></defs><rect width="800" height="300" fill="#DCEEF8"/><g clip-path="url(#v)"><path d="M-181,106L-156,77L-136,93L-127,119L-104,123L-71,134L-43,130L4,99L4,-116L18,-108L49,-53L44,-17L56,3L93,-3L119,-29L144,-46L157,-74L182,-88L204,-81L229,-64L272,-61L305,-75L311,-93L320,-121L348,-125L364,-147L381,-185L428,-227L502,-269L523,-268L548,-259L566,-265L594,-260L619,-180L632,-139L623,-75L628,-54L601,-65L586,-61L581,-44L567,-22L567,-2L599,30L629,24L640,-2L679,-2L666,41L660,90L647,117L611,147L601,156L579,186L564,217L534,261L475,324L439,361L399,389L345,414L318,417L311,434L280,425L254,437L197,425L165,433L144,429L90,454L45,464L13,488L-11,490L-33,467L-50,466L-73,438L-75,446L-82,430L-82,393L-99,351L-82,340L-83,293L-118,235L-144,184L-144,184ZM478,129L456,110L431,123L403,146L375,184L414,230L433,224L442,205L471,196L480,176L496,147Z" fill="#E0E0E0" stroke="#fff" stroke-width=".4"/><path d="M502,-269L428,-227L381,-185L364,-147L348,-125L320,-121L311,-93L305,-75L272,-61L229,-64L204,-81L182,-88L157,-74L144,-46L119,-29L93,-3L56,3L44,-17L49,-53L18,-108L4,-116L4,-282L55,-284L57,-482L96,-484L176,-503L196,-481L230,-502L246,-502L275,-515L284,-511L304,-467L315,-457L331,-425L390,-364L413,-358L413,-338L428,-303L469,-294Z" fill="#E0E0E0" stroke="#fff" stroke-width=".4"/><path d="M4,-116L4,99L-43,130L-71,134L-104,123L-127,119L-136,93L-156,77L-181,106L-220,62L-241,18L-252,-38L-265,-80L-283,-169L-284,-237L-290,-268L-311,-291L-338,-337L-365,-404L-377,-439L-419,-492L-422,-534L-397,-545L-366,-554L-332,-553L-301,-528L-293,-532L-81,-534L-45,-508L81,-500L177,-522L220,-535L254,-532L274,-519L275,-515L246,-502L230,-502L196,-481L176,-503L96,-484L57,-482L55,-284L4,-282Z" fill="#E0E0E0" stroke="#fff" stroke-width=".4"/><path d="M770,-846L809,-851L872,-836L885,-842L922,-844L940,-860L972,-859L1029,-880L1070,-910L1079,-887L1077,-834L1083,-787L1085,-703L1094,-676L1079,-638L1058,-600L1025,-566L977,-545L919,-519L860,-460L840,-450L803,-411L781,-398L777,-358L802,-316L812,-283L813,-266L822,-269L821,-213L812,-187L824,-177L817,-153L795,-133L752,-114L689,-82L666,-61L671,-37L684,-33L679,-2L640,-2L635,-28L628,-54L623,-75L632,-139L619,-180L594,-260L649,-324L663,-364L671,-369L676,-402L668,-418L670,-459L680,-497L680,-567L653,-584L628,-588L617,-602L593,-613L549,-612L546,-632L541,-671L700,-715L729,-689L744,-694L765,-681L768,-659L756,-634L760,-595L794,-562L810,-600L833,-611L828,-681L807,-720L788,-737L770,-736L755,-806Z" fill="#E0E0E0" stroke="#fff" stroke-width=".4"/><path d="M640,-2L629,24L599,30L567,-2L567,-22L581,-44L586,-61L601,-65L628,-54L635,-28Z" fill="#E0E0E0" stroke="#fff" stroke-width=".4"/></g><g clip-path="url(#v)"><path d="M465.7,197.6L461.0,199.1L460.2,199.3L457.2,198.9L453.2,199.3L450.1,200.1L447.6,200.3L443.7,204.6L436.3,216.3L434.4,218.7L433.9,223.2L432.2,226.8L430.1,229.6L428.1,230.3L422.0,229.2L414.3,227.7L409.8,224.3L405.7,219.6L403.6,216.3L401.4,214.5L400.6,213.4L397.4,211.9L396.3,211.1L395.2,210.5L394.0,208.3L393.3,206.4L393.5,201.1L391.2,197.8L387.4,192.4L385.0,188.0L381.8,181.8L379.7,176.7L377.7,171.2L377.9,169.0L379.9,167.4L385.8,164.7L390.3,162.6L393.7,158.7L397.0,153.0L398.9,149.6L400.6,148.0L402.5,145.5L405.7,140.2L409.4,134.2L413.4,127.9L418.3,126.0L425.0,123.9L431.6,118.4L439.3,113.6L451.7,108.6L457.6,107.3L459.8,106.5L461.1,107.5L462.6,110.4L464.9,112.8L469.8,117.1L471.9,118.1L476.9,124.4L482.4,128.7L488.6,133.7L492.9,136.2L495.2,136.8L496.9,141.3L498.7,144.5L499.9,147.6L499.5,150.6L497.6,157.9L494.8,165.4L492.4,168.5L489.5,170.5L486.7,173.4L485.8,179.5L484.5,186.6L480.9,189.5L478.1,191.4L474.1,193.8Z" fill="#4ECDC4" stroke="#2C3E50" stroke-width="1"/></g><circle cx="400.0" cy="150.0" r="4" fill="#E74C3C" stroke="#fff" stroke-width="2"/><text x="400.0" y="140.0" text-anchor="middle" font-family="sans-serif" font-weight="700" font-size="10" fill="#2D3436">Maseru</text></svg>