<svg viewBox="0 0 800 300" xmlns="http://www.w3.org/2000/svg"><defs><clipPath id="v"><rect width="800" height="300"/></clipPath></defs><rect width="800" height="300" fill="#DCEEF8"/><g clip-path="url(#v)"><path d="M2125,397L2104,425L2081,429L2079,471L2064,489L2009,476L1989,548L1974,557L1919,573L1944,640L1925,650L1928,671L1911,666L1897,652L1855,648L1809,647L1799,651L1760,635L1744,643L1740,666L1694,653L1676,658L1669,674L1653,681L1617,707L1605,734L1594,734L1587,716L1551,715L1546,685L1532,685L1534,647L1501,619L1453,622L1421,627L1394,593L1371,578L1328,550L1323,546L1252,570L1253,710L1238,712L1219,683L1200,672L1169,680L1156,692L1155,683L1162,668L1156,655L1124,642L1112,607L1096,597L1095,585L1122,588L1123,560L1147,553L1171,559L1176,520L1171,495L1144,497L1120,487L1088,505L1062,514L1048,507L1051,486L1033,459L1012,460L989,432L1005,400L997,391L1019,344L1047,369L1051,337L1108,289L1152,288L1213,319L1246,337L1275,318L1319,317L1355,340L1363,327L1402,329L1409,308L1364,277L1391,255L1385,242L1412,231L1392,199L1405,183L1509,166L1522,154L1592,137L1617,116L1667,127L1675,177L1704,165L1740,181L1738,207L1764,204L1834,160L1824,174L1859,211L1921,326L1936,303L1974,328L2014,317L2030,325L2043,350L2063,359L2074,377L2110,371Z" fill="#E0E0E0" stroke="#fff" stroke-width=".4"/><path d="M118,-1855L129,-1909L170,-1914L205,-1859L252,-1803L296,-1747L226,-1691L211,-1591L186,-1566L173,-1462L140,-1457L80,-1533L105,-1579L64,-1617L9,-1734L-12,-1851L64,-1908L79,-1853ZM562,-755L514,-723L492,-716L504,-771L468,-804L425,-776L411,-718L385,-684L355,-702L319,-699L288,-740L271,-719L254,-716L250,-665L198,-678L190,-636L163,-636L145,-584L117,-506L74,-412L84,-390L75,-364L47,-365L29,-307L31,-227L49,-197L39,-131L16,-93L4,-62L-15,-95L-70,-33L-107,-20L-145,-47L-155,-105L-164,-237L-138,-275L-65,-327L-10,-392L41,-485L73,-552L108,-621L154,-677L231,-775L292,-811L337,-807L380,-876L430,-872L480,-889L567,-827L531,-805ZM459,-1915L418,-1831L337,-1813L255,-1838L250,-1881L211,-1884L180,-1958L266,-2005L306,-1964L334,-2015L405,-1972ZM385,-1594L323,-1541L273,-1571L293,-1605L276,-1648L333,-1676L344,-1625Z" fill="#E0E0E0" stroke="#fff" stroke-width=".4"/><path d="M-1738,1857L-1754,1882L-1763,1903L-1773,1914L-1787,1916L-1791,1908L-1797,1907L-1805,1914L-1817,1908L-1810,1897L-1808,1884L-1803,1872L-1814,1855L-1816,1836L-1802,1812L-1792,1815L-1772,1822L-1742,1846ZM-131,387L-117,398L-77,406L-91,434L-95,464L-103,471L-115,467L-114,478L-135,501L-135,519L-122,513L-112,530L-113,541L-105,556L-115,568L-108,599L-93,603L-96,620L-121,642L-176,631L-216,644L-219,667L-252,672L-283,654L-293,663L-344,645L-355,631L-341,608L-336,529L-364,487L-385,466L-427,450L-430,420L-394,411L-347,421L-356,373L-330,392L-265,358L-257,322L-233,313L-229,329L-216,330L-203,347L-183,368L-169,364L-145,384L-139,388ZM-59,661L-41,646L-37,679L-46,707L-59,700L-65,675Z" fill="#E0E0E0" stroke="#fff" stroke-width=".4"/><path d="M4,-62L16,-93L39,-131L49,-197L31,-227L29,-307L47,-365L75,-364L84,-390L74,-412L117,-506L145,-584L163,-636L190,-636L198,-678L250,-665L254,-716L271,-719L308,-681L352,-630L352,-520L362,-493L314,-474L287,-427L291,-388L247,-337L193,-284L173,-200L193,-160L220,-129L194,-67L165,-54L155,34L139,81L105,76L89,115L57,117L48,71L25,13Z" fill="#E0E0E0" stroke="#fff" stroke-width=".4"/><path d="M480,78L510,90L514,102L528,96L555,108L558,131L552,144L570,175L581,184L579,193L598,201L606,213L595,223L573,222L567,226L574,241L581,271L557,273L548,283L547,306L535,301L510,304L503,293L493,301L482,294L460,294L429,283L401,279L380,280L365,292L351,294L351,274L342,253L359,244L359,225L351,208L350,187L377,187L407,169L414,142L436,127L434,105L451,97Z" fill="#E0E0E0" stroke="#fff" stroke-width=".4"/><path d="M581,271L591,272L598,262L607,264L635,260L653,286L646,295L649,309L671,311L681,330L680,338L715,354L737,347L754,367L770,367L811,381L811,393L800,416L806,439L802,453L775,456L761,467L760,485L737,489L719,502L693,504L669,519L670,540L666,539L663,531L654,530L634,521L627,531L623,527L580,516L578,501L552,506L542,528L520,558L508,551L494,557L482,550L489,546L494,532L502,519L500,512L505,509L508,515L524,516L532,513L527,509L529,503L519,492L515,475L505,469L507,455L494,443L483,442L462,429L444,433L437,439L425,439L419,449L398,453L389,459L376,449L358,449L341,444L329,453L327,442L311,431L317,414L324,403L330,405L323,386L349,350L362,345L365,333L351,294L365,292L380,280L401,279L429,283L460,294L482,294L493,301L503,293L510,304L535,301L547,306L548,283L557,273Z" fill="#E0E0E0" stroke="#fff" stroke-width=".4"/><path d="M350,187L351,208L359,225L359,244L342,253L351,274L351,294L365,333L362,345L349,350L323,386L330,405L324,403L298,386L278,392L265,388L248,397L234,382L223,388L221,385L209,364L188,361L185,348L166,343L162,354L147,345L149,333L128,329L115,315L103,287L106,271L99,247L89,230L96,218L90,194L109,180L152,158L187,142L215,150L217,162L244,163L278,168L329,167L343,172Z" fill="#E0E0E0" stroke="#fff" stroke-width=".4"/><path d="M169,443L167,460L152,460L157,469L148,495L142,502L118,503L104,512L81,509L41,499L35,485L8,492L5,500L-12,494L-26,493L-39,485L-35,475L-36,468L-27,466L-13,477L-9,466L15,468L35,461L48,462L57,470L60,463L56,436L66,431L75,412L96,425L112,408L121,405L143,418L156,415L169,423L167,429Z" fill="#E0E0E0" stroke="#fff" stroke-width=".4"/><path d="M311,431L327,442L329,453L312,462L299,490L282,517L259,525L242,523L221,533L210,539L187,532L167,515L158,510L152,496L148,495L157,469L152,460L167,460L169,443L183,454L194,458L217,453L219,445L230,444L244,437L247,440L260,435L266,425L276,422L305,435Z" fill="#E0E0E0" stroke="#fff" stroke-width=".4"/><path d="M437,439L444,433L462,429L483,442L494,443L507,455L505,469L515,475L519,492L529,503L527,509L532,513L524,516L508,515L505,509L500,512L502,519L494,532L489,546L482,550L477,532L480,515L479,497L463,473L454,455L446,443Z" fill="#E0E0E0" stroke="#fff" stroke-width=".4"/><path d="M482,550L494,557L508,551L520,558L521,568L507,577L499,573L491,620L475,616L455,602L422,611L408,620L367,618L346,612L335,615L327,599L322,593L329,586L322,581L313,590L297,579L295,562L278,553L274,540L259,525L282,517L299,490L312,462L329,453L341,444L358,449L376,449L389,459L398,453L419,449L425,439L437,439L446,443L454,455L463,473L479,497L480,515L477,532Z" fill="#E0E0E0" stroke="#fff" stroke-width=".4"/><path d="M456,11L469,23L472,48L480,78L451,97L434,105L407,81L392,78L388,67L361,72L314,69L283,84L284,47L297,14L323,-3L346,35L368,34L373,-5L397,-15L409,-8L433,11Z" fill="#E0E0E0" stroke="#fff" stroke-width=".4"/><path d="M475,-95L479,-86L459,-54L468,-5L456,11L433,11L409,-8L397,-15L373,-5L376,-36L366,-30L349,-48L346,-79L381,-95L416,-103L446,-94Z" fill="#E0E0E0" stroke="#fff" stroke-width=".4"/><path d="M90,194L96,218L89,230L99,247L106,271L103,287L115,315L102,320L95,315L88,323L68,332L58,343L38,352L43,365L46,383L60,393L75,412L66,431L56,436L60,463L57,470L48,462L35,461L15,468L-9,466L-13,477L-27,466L-36,468L-66,455L-71,464L-95,464L-91,434L-77,406L-117,398L-131,387L-129,368L-135,358L-131,329L-136,282L-119,282L-112,265L-105,223L-111,207L-105,197L-82,195L-77,205L-58,182L-64,164L-66,137L-44,143L-27,136L-26,154L2,166L2,182L30,174L45,161L77,179Z" fill="#E0E0E0" stroke="#fff" stroke-width=".4"/><path d="M-36,468L-35,475L-39,485L-26,493L-12,494L-14,510L-27,517L-47,512L-53,528L-67,530L-71,523L-87,537L-100,539L-112,530L-122,513L-135,519L-135,501L-114,478L-115,467L-103,471L-95,464L-71,464L-66,455Z" fill="#E0E0E0" stroke="#fff" stroke-width=".4"/><path d="M-135,358L-129,368L-131,387L-139,388L-145,384L-142,360Z" fill="#E0E0E0" stroke="#fff" stroke-width=".4"/><path d="M-131,329L-135,358L-142,360L-145,384L-169,364L-183,368L-203,347L-216,330L-229,329L-233,313L-210,305L-190,308L-164,299L-147,318Z" fill="#E0E0E0" stroke="#fff" stroke-width=".4"/><path d="M-111,207L-105,223L-112,265L-119,282L-136,282L-131,329L-147,318L-164,299L-190,308L-210,305L-196,292L-172,225L-134,206Z" fill="#E0E0E0" stroke="#fff" stroke-width=".4"/><path d="M-12,494L5,500L8,492L35,485L41,499L81,509L78,529L85,546L63,540L40,554L42,574L38,585L47,605L73,624L87,656L118,686L140,686L147,694L139,701L164,715L184,726L208,745L211,752L206,765L190,748L166,742L155,765L175,779L171,798L160,800L145,830L133,833L133,822L139,803L145,795L134,775L126,756L114,752L106,736L88,729L76,715L56,712L34,695L9,671L-10,649L-19,611L-33,607L-55,594L-68,599L-84,617L-96,620L-93,603L-108,599L-115,568L-105,556L-113,541L-112,530L-100,539L-87,537L-71,523L-67,530L-53,528L-47,512L-27,517L-14,510ZM108,824L129,821L119,849L123,860L117,878L96,865L82,861L43,843L47,825L79,828ZM-60,725L-46,714L-30,740L-34,788L-46,785L-58,797L-68,788L-69,744L-76,723Z" fill="#E0E0E0" stroke="#fff" stroke-width=".4"/><path d="M-27,136L-44,143L-66,137L-77,110L-78,59L-73,45L-65,30L-41,27L-31,13L-8,-2L-9,25L-18,41L-14,55L1,63L-6,82L-14,77L-34,112ZM41,80L50,105L34,145L4,117L1,97Z" fill="#E0E0E0" stroke="#fff" stroke-width=".4"/><path d="M81,509L104,512L118,503L142,502L148,495L152,496L158,510L136,520L133,536L123,540L123,552L113,551L103,544L98,551L79,550L85,546L78,529Z" fill="#E0E0E0" stroke="#fff" stroke-width=".4"/><path d="M492,-716L488,-662L530,-613L505,-558L537,-479L518,-422L543,-374L532,-333L573,-291L563,-260L537,-226L478,-152L427,-148L378,-127L333,-115L317,-146L290,-164L296,-221L283,-275L296,-311L321,-350L385,-419L403,-433L400,-461L362,-493L352,-520L352,-630L308,-681L271,-719L288,-740L319,-699L355,-702L385,-684L411,-718L425,-776L468,-804L504,-771Z" fill="#E0E0E0" stroke="#fff" stroke-width=".4"/><path d="M324,403L317,414L311,431L305,435L276,422L266,425L260,435L247,440L244,437L230,444L219,445L217,453L194,458L183,454L169,443L167,429L169,423L173,414L185,415L195,410L195,406L201,404L202,395L209,393L213,385L221,385L223,388L234,382L248,397L265,388L278,392L298,386Z" fill="#E0E0E0" stroke="#fff" stroke-width=".4"/><path d="M115,315L128,329L149,333L147,345L162,354L166,343L185,348L188,361L209,364L221,385L213,385L209,393L202,395L201,404L195,406L195,410L185,415L173,414L169,423L156,415L143,418L121,405L112,408L96,425L75,412L60,393L46,383L43,365L38,352L58,343L68,332L88,323L95,315L102,320Z" fill="#E0E0E0" stroke="#fff" stroke-width=".4"/></g><g clip-path="url(#v)"><path d="M279.9,121.5L278.3,121.1L281.5,115.5L282.7,111.8L283.5,106.6L284.3,104.9L284.3,107.3L284.0,111.2L282,118.0ZM330.1,166.0L329.0,163.6L327.7,159.4L327.9,156.1L328.6,152.8L331.9,142.8L331.8,141.3L329.3,138.5L326.3,136.4L324.6,132.1L318.5,131.9L312.7,132.1L310.9,132.0L305.4,130.1L300.0,127.3L296.5,125.6L293.5,123.6L291.9,121.7L289.3,122.2L287.6,122.2L287.6,121.8L286.7,118.3L287.7,112.8L285.8,104.9L282.8,95.2L282.6,84.8L282.4,82.5L289.8,76.6L299.2,70.3L301.4,69.8L310.0,65.9L311.2,65.7L319.0,66.4L325.2,67.2L330.3,67.1L333.2,66.2L335.8,67.0L337.8,69.8L340.0,69.5L342.1,67.7L353.7,69.3L356.3,69.3L359.2,69.6L364.6,71.2L367.8,72.8L374.6,71.8L377.6,71.8L379.1,71.2L383.8,67.0L385.9,66.2L387.8,65.5L389.5,66.1L390.6,69.8L394.1,76.0L397.9,77.1L408.5,79.5L410.6,80.8L416.5,86.3L420.1,89.0L422.3,91.1L425.8,95.3L427.8,98.3L431.1,100.6L435.0,102.2L436.5,102.4L436.4,104.7L435.7,108.4L434.4,113.2L433.0,116.9L432.7,118.4L433.7,119.6L438.9,120.1L441.1,120.7L441.5,121.8L440.4,123.0L438.7,124.1L438.0,125.1L436.7,128.7L428.1,128.3L426.9,129.0L426.4,130.6L426.0,132.6L424.8,134.9L422.5,136.9L419.0,137.6L416.1,139.0L413.9,143.1L412.3,148.7L412.3,152.6L412.5,154.8L412.3,156.0L411.2,157.4L409.4,161.0L408.0,165.0L407.4,167.1L407.7,168.1L409.3,168.2L411.7,169.0L413.0,170.6L413.4,172.4L413.4,174.4L413.0,175.5L411.1,176.3L408.1,176.3L406.4,175.3L406.0,174.6L406.8,172.7L406.2,170.3L405.0,169.0L402.5,171.0L400.1,171.0L397.2,172.7L395.3,175.5L393.5,176.6L388.6,176.0L387.3,177.3L386.3,182.9L385.7,184.1L381.7,183.8L377.7,186.1L373.2,187.9L371.0,186.7L369.7,185.2L367.3,185.5L364.6,186.1L362.9,185.8L360.9,185.9L357.0,187.0L352.2,186.7L350.1,185.7L349.9,184.8L350.0,182.6L350.0,179.2L349.2,176.1L346.9,173.4L344.5,171.5L341.4,169.5L339.1,168.7L337.8,168.4L337.5,167.4L337.1,166.4L336.0,165.5L333.7,164.3L331.7,164.1Z" fill="#4ECDC4" stroke="#2C3E50" stroke-width="1"/></g><circle cx="400.0" cy="150.0" r="4" fill="#E74C3C" stroke="#fff" stroke-width="2"/><text x="400.0" y="140.0" text-anchor="middle" font-family="sans-serif" font-weight="700" font-size="10" fill="#2D3436">Vilnius</text></svg>