<svg viewBox="0 0 800 300" xmlns="http://www.w3.org/2000/svg"><defs><clipPath id="v"><rect width="800" height="300"/></clipPath></defs><rect width="800" height="300" fill="#DCEEF8"/><g clip-path="url(#v)"><path d="M1612,-336L1615,-284L1634,-239L1633,-193L1592,-170L1613,-117L1615,-66L1650,31L1642,61L1608,74L1544,164L1562,212L1547,206L1481,165L1430,180L1397,169L1356,192L1321,154L1292,169L1288,162L1256,109L1204,102L1198,68L1150,56L1139,84L1101,62L1106,31L1054,22L1020,-14L992,-85L997,-124L980,-186L955,-227L974,-258L958,-317L1005,-352L1114,-407L1202,-448L1272,-428L1277,-399L1345,-397L1431,-383L1559,-385L1595,-372Z" fill="#E0E0E0" stroke="#fff" stroke-width=".4"/><path d="M1157,308L1152,350L1113,351L1126,373L1103,439L1090,456L1029,459L994,482L936,474L836,448L820,412L752,430L744,449L701,435L665,432L634,413L644,388L642,370L663,364L698,393L708,366L770,370L820,352L853,355L875,376L881,358L871,290L897,277L921,228L973,262L1012,219L1037,211L1091,244L1124,238L1156,258L1150,271Z" fill="#E0E0E0" stroke="#fff" stroke-width=".4"/><path d="M958,-317L974,-258L955,-227L980,-186L997,-124L992,-85L1020,-14L989,-2L971,-15L953,6L903,28L877,55L826,79L839,111L846,157L882,183L921,228L897,277L871,290L881,358L875,376L853,355L820,352L770,370L708,366L698,393L663,364L642,370L567,338L553,361L493,360L502,286L537,213L437,194L404,166L408,118L394,94L402,20L390,-97L432,-97L450,-140L467,-245L454,-285L468,-310L526,-316L539,-290L586,-349L571,-393L567,-462L620,-446L665,-464L666,-418L736,-390L736,-347L807,-370L846,-402L925,-355Z" fill="#E0E0E0" stroke="#fff" stroke-width=".4"/><path d="M1129,475L1151,487L1203,530L1260,550L1287,535L1303,573L1326,602L1299,639L1267,617L1219,618L1159,602L1126,604L1111,625L1086,602L1071,643L1106,689L1121,719L1153,755L1180,776L1206,816L1268,853L1260,869L1194,834L1154,799L1090,771L1032,699L1046,692L1014,651L1012,617L967,602L946,645L925,611L927,577L929,575L978,579L991,562L1015,578L1042,580L1042,552L1066,542L1073,501Z" fill="#E0E0E0" stroke="#fff" stroke-width=".4"/><path d="M642,370L644,388L634,413L665,432L701,435L695,477L665,494L613,481L598,522L565,525L553,509L514,543L480,548L450,526L426,482L392,498L394,452L445,395L442,368L474,378L493,360L553,361L567,338Z" fill="#E0E0E0" stroke="#fff" stroke-width=".4"/><path d="M402,20L394,94L376,98L368,159L307,109L271,118L222,66L190,22L158,20L148,-18L203,-40L255,-32L319,-55L363,-6Z" fill="#E0E0E0" stroke="#fff" stroke-width=".4"/><path d="M454,-285L467,-245L450,-140L432,-97L390,-97L402,20L363,-6L319,-55L255,-32L203,-40L239,-71L301,-239L396,-288Z" fill="#E0E0E0" stroke="#fff" stroke-width=".4"/><path d="M701,435L744,449L752,430L820,412L836,448L936,474L928,524L945,566L890,552L833,587L836,636L828,664L851,714L916,763L952,842L1029,918L1084,918L1101,938L1081,957L1144,991L1195,1018L1255,1066L1262,1084L1249,1116L1210,1073L1150,1058L1120,1117L1171,1151L1162,1198L1133,1203L1096,1280L1067,1287L1067,1260L1082,1212L1097,1193L1069,1140L1048,1095L1019,1083L999,1044L954,1027L923,990L872,984L817,942L753,880L706,826L684,731L650,719L593,687L561,701L520,746L491,753L499,711L461,698L443,622L468,592L447,555L450,526L480,548L514,543L553,509L565,525L598,522L613,481L665,494L695,477ZM1003,1266L1056,1258L1031,1328L1041,1355L1026,1400L973,1367L937,1357L840,1313L850,1267L931,1275ZM580,1016L615,988L657,1053L647,1174L615,1168L587,1198L561,1174L558,1064L542,1012Z" fill="#E0E0E0" stroke="#fff" stroke-width=".4"/><path d="M-461,-331L-513,-355L-557,-353L-542,-417L-557,-483L-498,-487L-423,-413ZM-244,-276L-244,-276L-234,-344L-280,-418L-281,-420L-366,-441L-383,-474L-357,-529L-380,-563L-418,-504L-422,-624L-457,-689L-432,-822L-378,-930L-322,-919L-238,-930L-312,-788L-241,-805L-165,-805L-183,-700L-246,-586L-174,-578L-168,-565L-106,-421L-58,-402L-15,-267L5,-221L90,-199L81,-125L45,-92L73,-34L10,24L-83,23L-202,53L-234,32L-280,83L-345,70L-394,112L-431,90L-329,-25L-266,-49L-267,-50L-376,-68L-396,-113L-323,-148L-361,-210L-348,-287Z" fill="#E0E0E0" stroke="#fff" stroke-width=".4"/><path d="M936,474L994,482L1029,459L1090,456L1103,439L1115,440L1129,475L1073,501L1066,542L1042,552L1042,580L1015,578L991,562L978,579L929,575L945,566L928,524Z" fill="#E0E0E0" stroke="#fff" stroke-width=".4"/><path d="M1020,-14L1054,22L1106,31L1101,62L1139,84L1150,56L1198,68L1204,102L1256,109L1288,162L1268,162L1257,182L1241,186L1236,211L1223,216L1221,226L1197,237L1166,235L1156,258L1124,238L1091,244L1037,211L1012,219L973,262L921,228L882,183L846,157L839,111L826,79L877,55L903,28L953,6L971,-15L989,-2Z" fill="#E0E0E0" stroke="#fff" stroke-width=".4"/></g><g clip-path="url(#v)"><path d="M399.2,94.7L398.4,97.5L398.7,104.1L400.7,110.5L405.2,116.9L408.7,121.6L413.5,125.4L421.8,129.0L425.1,129.7L425.3,134.4L424.8,139.5L422.1,142.3L419.3,146.2L417.3,151.1L415.3,160.4L415.0,166.9L410.2,164.3L407.7,162.5L403.5,161.9L399.2,163.4L396.2,166.8L391.6,167.7L388.1,166.8L385.9,164.3L384.1,162.8L378.6,161.4L376.3,157.8L378.1,156.1L379.6,153.3L380.8,149.8L382.6,146.2L377.3,136.8L376.1,133.8L371.8,128.6L371.8,126.0L372.8,123.3L372.5,121.3L373.0,116.6L376.1,112.0L378.1,106.4L381.6,98.8L389.4,89.6L394.7,91.1L397.2,91.1L398.7,94.3Z" fill="#4ECDC4" stroke="#2C3E50" stroke-width="1"/></g><circle cx="400.0" cy="150.0" r="4" fill="#E74C3C" stroke="#fff" stroke-width="2"/><text x="400.0" y="140.0" text-anchor="middle" font-family="sans-serif" font-weight="700" font-size="10" fill="#2D3436">Luxembourg City</text></svg>