<svg viewBox="0 0 800 300" xmlns="http://www.w3.org/2000/svg"><defs><clipPath id="v"><rect width="800" height="300"/></clipPath></defs><rect width="800" height="300" fill="#DCEEF8"/><g clip-path="url(#v)"><path d="M171,435L171,436L171,437L171,449L148,448L148,468L142,469L140,473L141,484L114,484L113,486L113,483L113,483L129,482L130,480L132,476L135,466L144,457L148,448L150,447L152,441L158,440L161,441L164,441L166,439L170,439L170,435Z" fill="#E0E0E0" stroke="#fff" stroke-width=".4"/><path d="M-626,243L-627,242L-640,232L-645,227L-658,223L-662,213L-661,206L-670,201L-671,192L-679,183L-680,177L-676,171L-676,163L-688,155L-695,140L-699,131L-706,125L-710,119L-714,112L-721,117L-728,124L-734,115L-739,109L-746,105L-753,105L-753,17L-753,-52L-740,-47L-729,-38L-721,-36L-715,-44L-707,-51L-696,-48L-686,-57L-674,-62L-670,-54L-664,-58L-663,-68L-658,-66L-646,-48L-637,-61L-636,-46L-627,-49L-625,-55L-616,-54L-606,-46L-589,-38L-580,-35L-573,-36L-563,-27L-573,-17L-561,-13L-542,-16L-536,-19L-528,-8L-521,-17L-528,-25L-523,-32L-515,-32L-509,-34L-504,-30L-497,-19L-489,-21L-477,-13L-466,-16L-456,-15L-456,-27L-450,-30L-439,-24L-439,-6L-435,-21L-429,-20L-426,-40L-434,-52L-442,-60L-441,-83L-433,-99L-424,-96L-417,-86L-407,-62L-413,-52L-400,-48L-400,-28L-391,-43L-383,-31L-385,-17L-378,-4L-371,-18L-366,-34L-365,-56L-355,-54L-345,-51L-336,-41L-335,-32L-341,-22L-336,-12L-337,-3L-350,9L-360,12L-367,7L-369,16L-376,30L-378,37L-386,48L-396,49L-402,56L-402,66L-410,68L-419,80L-426,97L-429,108L-429,124L-419,126L-416,138L-413,148L-403,146L-390,151L-383,156L-378,162L-369,165L-362,171L-350,171L-343,173L-344,183L-342,195L-337,208L-326,218L-321,215L-317,203L-321,185L-326,178L-314,173L-307,164L-303,155L-303,147L-308,136L-316,126L-308,111L-311,99L-314,76L-309,72L-297,76L-290,78L-284,74L-277,79L-269,87L-267,93L-254,94L-254,106L-252,124L-246,126L-241,134L-231,126L-224,111L-219,105L-214,117L-205,134L-197,150L-200,158L-190,165L-184,172L-173,175L-169,179L-166,189L-160,191L-158,195L-157,208L-162,212L-167,216L-179,220L-187,229L-199,231L-214,229L-225,229L-232,229L-238,237L-247,242L-257,256L-265,265L-259,264L-248,250L-233,241L-223,240L-216,245L-223,252L-221,263L-218,271L-209,276L-198,275L-191,263L-190,271L-186,274L-194,281L-210,287L-217,291L-225,298L-230,297L-230,289L-218,281L-229,281L-237,282L-242,276L-242,263L-245,260L-249,261L-252,259L-257,267L-259,274L-262,279L-265,280L-267,281L-268,283L-280,283L-291,283L-294,285L-302,292L-302,293L-305,297L-311,297L-318,297L-321,298L-320,300L-319,303L-319,304L-329,309L-336,310L-344,315L-346,315L-348,314L-349,313L-349,312L-347,308L-344,303L-342,297L-343,289L-345,280L-352,275L-351,274L-352,272L-354,272L-355,271L-356,268L-357,269L-359,269L-359,268L-360,267L-361,264L-366,261L-372,258L-379,254L-385,250L-392,253L-394,253L-402,250L-408,252L-415,248L-422,247L-427,246L-429,244L-430,238L-433,238L-433,243L-447,243L-471,243L-495,243L-516,243L-537,243L-557,243L-578,243L-585,243L-606,243ZM-355,74L-350,67L-340,67L-340,70L-348,78L-353,78ZM-325,-120L-333,-132L-333,-141L-329,-143L-313,-140L-301,-127L-301,-120L-308,-121L-316,-121L-323,-118ZM-329,79L-326,75L-323,75L-322,78L-324,86L-328,85L-329,80ZM-422,-174L-426,-164L-436,-166L-444,-173L-441,-185L-431,-193L-424,-183ZM-423,-249L-427,-248L-440,-250L-442,-260L-428,-259L-423,-253ZM-444,-292L-435,-279L-437,-267L-448,-260L-453,-268L-456,-281L-457,-295L-448,-294ZM-384,-159L-395,-162L-414,-171L-416,-186L-417,-200L-424,-212L-438,-216L-446,-225L-444,-238L-429,-236L-422,-226L-408,-226L-402,-216L-403,-205L-395,-199L-391,-192L-382,-191L-371,-188L-360,-194L-346,-197L-335,-195L-327,-184L-326,-173L-330,-166L-340,-160L-349,-163L-369,-159ZM-545,-270L-535,-265L-538,-255L-551,-246L-561,-256L-555,-267ZM-543,-293L-534,-286L-542,-279L-554,-279L-554,-284L-547,-295ZM-156,217L-160,224L-165,234L-160,230L-156,232L-158,236L-152,239L-149,237L-142,240L-144,248L-139,246L-138,251L-136,258L-139,267L-142,267L-147,265L-145,257L-147,256L-155,265L-159,264L-154,259L-161,257L-169,257L-182,257L-183,254L-179,250L-182,248L-176,241L-169,224L-164,218L-158,214L-155,214ZM-354,32L-346,37L-338,42L-338,50L-333,49L-328,54L-334,59L-345,55L-349,48L-355,56L-365,65L-368,55L-377,57L-371,49L-370,36L-368,21L-363,22L-362,30L-358,27ZM-318,-109L-312,-118L-296,-107L-287,-96L-286,-86L-273,-91L-265,-77L-249,-69L-242,-61L-236,-42L-249,-33L-232,-20L-221,-16L-211,0L-200,2L-202,14L-215,33L-223,26L-234,10L-243,12L-244,22L-237,32L-227,39L-224,44L-220,59L-222,70L-231,66L-249,54L-239,67L-231,76L-230,81L-249,75L-264,67L-273,59L-270,55L-281,47L-291,39L-291,43L-311,46L-317,40L-312,28L-299,28L-285,26L-287,20L-285,11L-276,-6L-277,-14L-280,-20L-291,-30L-305,-36L-300,-41L-308,-53L-314,-55L-320,-62L-323,-56L-336,-53L-361,-57L-376,-63L-387,-67L-393,-74L-386,-84L-396,-84L-398,-106L-393,-127L-386,-137L-368,-144L-373,-128L-367,-113L-361,-133L-343,-143L-331,-118L-332,-102ZM-428,-152L-414,-151L-400,-145L-411,-123L-419,-119L-426,-102L-434,-102L-439,-123L-439,-135L-435,-145ZM-626,-206L-614,-229L-600,-249L-589,-249L-580,-253L-581,-229L-586,-218L-592,-217L-605,-204L-617,-200ZM-695,186L-688,185L-690,198L-684,208L-687,207L-691,202L-694,197L-697,193L-699,188L-698,184ZM-505,-311L-491,-306L-472,-293L-467,-276L-464,-262L-476,-266L-487,-277L-503,-278L-496,-288L-504,-297ZM-631,248L-634,249L-646,244L-648,241L-654,237L-655,234L-662,232L-665,226L-664,223L-657,226L-653,227L-646,229L-644,232L-640,237L-633,242ZM-617,-160L-607,-155L-589,-154L-582,-146L-575,-136L-584,-130L-601,-113L-609,-97L-609,-87L-628,-77L-631,-86L-647,-98L-644,-108L-640,-125L-634,-141L-640,-156ZM-521,-198L-515,-203L-508,-202L-506,-188L-511,-175L-534,-171L-552,-160L-562,-159L-563,-168L-549,-179L-580,-176L-590,-181L-581,-209L-574,-217L-554,-207L-542,-190L-530,-188L-540,-215L-533,-226L-526,-223L-524,-209ZM-512,-126L-504,-117L-500,-94L-498,-79L-486,-68L-473,-59L-474,-50L-486,-48L-481,-41L-483,-33L-496,-36L-508,-42L-516,-41L-529,-34L-547,-31L-559,-29L-563,-38L-573,-44L-579,-41L-588,-57L-583,-59L-572,-63L-562,-62L-553,-66L-567,-71L-582,-69L-591,-69L-595,-77L-579,-86L-590,-85L-602,-91L-596,-108L-591,-117L-572,-132L-565,-127L-569,-116L-553,-123L-544,-111L-536,-123L-529,-116L-524,-93L-520,-103L-525,-126L-519,-130ZM-470,-117L-477,-133L-469,-145L-461,-140L-448,-143L-446,-136L-453,-124L-442,-114L-444,-93L-455,-85L-462,-87L-467,-95L-484,-113L-484,-120ZM-513,-139L-503,-140L-498,-134L-504,-119L-515,-135ZM-456,-224L-451,-210L-450,-196L-454,-175L-465,-172L-473,-177L-472,-193L-484,-190L-484,-213L-477,-212L-466,-222L-457,-220ZM-439,-363L-434,-377L-427,-380L-430,-390L-413,-392L-405,-369L-393,-359L-381,-352L-376,-325L-367,-313L-377,-302L-390,-275L-402,-272L-417,-277L-424,-291L-424,-304L-419,-314L-431,-314L-439,-327L-443,-345ZM-408,-423L-397,-432L-389,-434L-375,-442L-365,-462L-357,-459L-349,-444L-344,-474L-335,-483L-322,-489L-301,-492L-297,-485L-277,-495L-262,-491L-247,-488L-228,-483L-213,-476L-200,-461L-200,-447L-217,-424L-234,-415L-241,-404L-225,-404L-242,-376L-253,-364L-265,-330L-280,-324L-284,-316L-305,-312L-296,-307L-300,-301L-295,-283L-301,-271L-312,-262L-315,-249L-325,-239L-324,-232L-312,-234L-312,-226L-331,-208L-349,-216L-369,-212L-380,-215L-393,-217L-394,-231L-381,-238L-384,-262L-380,-264L-362,-250L-371,-271L-382,-278L-377,-291L-364,-300L-362,-313L-372,-328L-375,-349L-356,-347L-351,-342L-340,-358L-355,-362L-380,-360L-392,-374L-398,-393L-406,-406ZM-293,-9L-298,-4L-306,-3L-308,-12L-305,-22L-298,-25L-293,-19L-293,-11ZM-440,-48L-436,-40L-440,-33L-450,-39L-455,-37L-465,-46L-459,-52L-454,-61L-447,-55L-442,-52ZM-219,233L-216,232L-207,235L-200,239L-200,241L-203,242L-212,238ZM-215,263L-213,268L-208,269L-201,269L-205,273L-207,274L-216,270L-218,266Z" fill="#E0E0E0" stroke="#fff" stroke-width=".4"/><path d="M842,240L836,247L830,248L830,259L826,263L812,260L807,278L804,280L790,284L796,301L791,304L792,309L788,308L784,304L774,303L762,303L760,304L750,300L746,302L745,308L733,304L729,306L727,310L723,312L714,318L711,325L708,325L706,320L697,320L696,312L693,312L693,303L685,296L673,297L665,298L658,289L652,286L641,279L640,278L622,284L622,319L619,319L614,312L609,309L601,311L598,314L598,312L600,308L598,305L590,302L587,293L583,290L583,287L590,288L590,281L596,279L602,281L603,271L602,265L595,265L589,263L581,267L574,269L571,268L572,263L567,256L562,256L556,249L560,241L558,239L564,227L571,233L572,225L586,213L597,213L612,220L621,225L628,220L639,220L648,226L650,223L660,223L662,218L650,210L657,204L656,201L662,198L657,190L661,186L687,182L690,179L708,175L714,170L726,172L729,185L736,182L745,186L744,192L751,192L768,180L766,184L775,193L790,222L794,216L804,223L814,220L818,222L821,228L826,230L829,235L838,234Z" fill="#E0E0E0" stroke="#fff" stroke-width=".4"/><path d="M622,319L622,284L640,278L641,279L652,286L658,289L665,298L673,297L685,296L693,303L693,312L696,312L697,320L706,320L708,325L711,325L714,318L723,312L727,310L729,311L723,317L728,320L733,318L742,323L733,330L727,329L725,329L724,326L725,322L716,324L713,330L710,335L704,335L703,339L708,341L709,347L705,356L700,355L696,354L696,349L687,345L680,341L675,337L667,330L664,321L661,319L654,320L651,318L650,310L641,305L635,311L629,314L630,319Z" fill="#E0E0E0" stroke="#fff" stroke-width=".4"/><path d="M403,578L398,575L395,573L395,571L396,568L396,565L392,561L391,558L391,556L389,554L389,550L387,547L385,547L386,545L387,542L387,539L389,537L387,535L389,530L392,525L398,526L398,497L398,493L406,493L406,479L434,479L461,479L489,479L491,486L490,487L491,495L493,504L496,506L500,508L496,512L491,514L489,516L488,521L485,531L486,534L485,540L482,548L478,551L475,556L474,559L471,561L469,569L469,575L469,570L468,570L468,566L467,564L464,561L463,556L464,550L460,550L460,551L456,552L457,554L458,558L454,562L451,567L447,568L441,564L438,565L438,567L434,569L434,570L427,570L426,569L421,568L418,570L417,569L413,565L412,563L407,564L405,567L403,574L401,575L398,576Z" fill="#E0E0E0" stroke="#fff" stroke-width=".4"/><path d="M398,497L398,526L392,525L389,530L387,535L389,537L387,539L387,542L386,545L385,547L387,547L389,550L389,554L391,556L391,558L387,559L383,562L378,570L372,573L365,572L363,573L364,576L360,578L357,581L348,583L347,582L345,582L344,584L338,584L339,582L337,577L336,574L333,573L329,569L331,566L334,566L336,566L340,566L336,560L336,555L336,550L333,545L334,542L329,542L329,537L326,535L329,525L338,518L339,509L341,494L343,491L340,488L340,486L337,484L335,472L342,468L370,482Z" fill="#E0E0E0" stroke="#fff" stroke-width=".4"/><path d="M886,-382L901,-392L915,-370L931,-330L929,-296L914,-291L895,-302L883,-316L878,-344L868,-352ZM950,-311L967,-290L965,-276L926,-262L939,-309L944,-313ZM1201,-207L1219,-206L1245,-190L1239,-170L1213,-171L1202,-165L1188,-182L1192,-201ZM1266,-184L1284,-177L1276,-167L1265,-169L1252,-180L1253,-189ZM1208,-133L1215,-143L1223,-145L1233,-136L1234,-129L1224,-129L1209,-132ZM545,-363L558,-371L569,-371L570,-360L574,-370L581,-377L591,-368L589,-361L579,-356L573,-352L572,-346L564,-339L556,-349L560,-362ZM390,182L378,183L369,181L371,176L380,172L387,174L391,176L390,179ZM605,-143L622,-165L620,-177L636,-192L659,-210L682,-216L694,-227L708,-231L712,-219L708,-210L683,-195L662,-182L640,-157L630,-132L619,-110L620,-91L633,-73L629,-71L606,-74L605,-84L592,-89L591,-101L598,-106L598,-119L612,-140ZM1229,190L1232,201L1232,212L1235,224L1242,243L1231,239L1227,254L1234,265L1234,272L1228,266L1224,274L1222,265L1223,255L1222,244L1224,236L1224,221L1220,210L1221,195L1227,189L1224,184L1228,182ZM-1025,-37L-1025,-37L-1008,-23L-990,-5L-990,6L-985,11L-987,-2L-968,1L-954,17L-961,24L-973,26L-973,42L-976,46L-982,45L-988,40L-997,35L-998,28L-1006,25L-1013,27L-1017,21L-1016,15L-1024,19L-1021,27L-1025,34L-1025,34L-1025,-37ZM1488,34L1488,34L1479,41L1470,40L1477,48L1481,61L1484,66L1485,72L1483,76L1470,73L1450,84L1444,86L1434,96L1423,105L1421,111L1411,101L1393,112L1389,107L1383,113L1373,111L1371,120L1363,133L1363,138L1371,141L1370,160L1364,160L1361,171L1363,176L1351,182L1349,196L1338,199L1336,210L1326,221L1324,213L1321,196L1317,170L1320,152L1326,145L1326,139L1337,136L1350,119L1362,104L1374,93L1380,72L1371,73L1367,86L1350,102L1344,84L1326,89L1308,113L1314,121L1299,125L1288,126L1288,116L1277,114L1269,121L1247,118L1224,122L1202,148L1175,178L1186,179L1189,187L1196,189L1201,183L1208,184L1218,197L1219,207L1213,218L1213,231L1209,248L1199,263L1197,270L1187,282L1178,293L1173,299L1164,305L1160,305L1155,300L1146,307L1145,310L1145,310L1144,309L1144,304L1147,304L1148,292L1146,284L1152,280L1161,282L1166,272L1168,261L1171,257L1174,248L1163,251L1157,255L1146,255L1143,245L1135,238L1123,234L1120,224L1118,217L1115,212L1111,200L1105,196L1094,193L1085,193L1076,195L1071,201L1075,204L1075,210L1071,214L1064,225L1064,230L1055,237L1046,233L1038,234L1034,230L1030,229L1020,237L1011,238L1004,241L995,239L989,239L985,234L978,229L971,227L962,229L955,231L946,226L944,218L936,215L930,214L922,209L915,221L917,227L911,235L901,232L894,232L889,227L882,226L876,223L865,228L852,237L844,239L842,240L838,234L829,235L826,230L821,228L818,222L814,220L804,223L794,216L790,222L775,193L766,184L768,180L751,192L744,192L745,186L736,182L729,185L726,172L714,170L708,175L690,179L687,182L661,186L657,190L662,198L656,201L657,204L650,210L662,218L660,223L650,223L648,226L639,220L628,220L621,225L612,220L597,213L586,213L572,225L571,233L564,227L558,239L560,241L556,249L562,256L567,256L572,263L571,268L574,269L571,275L565,277L558,287L564,297L563,303L571,314L567,318L565,320L562,320L558,314L556,314L551,311L549,308L543,306L538,307L537,305L528,301L517,299L511,298L511,299L502,291L494,287L488,281L493,279L499,271L495,267L505,263L505,261L499,262L499,258L502,255L509,254L510,251L509,245L511,239L511,236L501,233L497,233L493,228L487,229L479,225L479,223L476,218L471,218L470,214L472,212L467,206L460,207L458,206L456,209L454,208L452,201L450,197L452,196L457,197L460,194L458,191L453,189L454,187L451,184L446,177L448,173L447,168L440,165L437,166L436,163L428,160L426,152L426,146L422,143L425,139L423,127L428,119L427,117L435,109L428,102L443,84L449,75L452,67L441,57L444,46L438,34L443,20L435,0L441,-14L430,-26L431,-39L437,-41L449,-49L456,-56L467,-44L487,-39L513,-18L518,-9L519,3L511,12L500,17L468,3L463,6L475,18L475,26L476,43L485,48L490,52L491,44L487,37L491,31L508,41L514,37L509,25L526,8L532,9L539,15L543,3L537,-7L540,-18L535,-30L555,-24L559,-13L550,-11L550,-1L555,5L566,1L568,-10L582,-19L607,-35L612,-34L605,-23L614,-21L619,-27L632,-28L642,-36L650,-24L658,-37L651,-48L654,-55L675,-49L685,-43L710,-21L715,-31L708,-41L707,-45L699,-47L701,-57L698,-73L697,-80L710,-100L715,-121L720,-125L738,-119L740,-106L733,-88L738,-81L740,-66L738,-39L746,-27L743,-14L729,11L737,14L740,7L748,3L750,-6L756,-15L752,-25L755,-38L747,-40L746,-51L751,-71L742,-89L755,-104L753,-120L756,-121L760,-108L757,-86L765,-82L762,-98L773,-107L788,-108L801,-95L794,-114L794,-140L806,-145L823,-144L838,-147L832,-161L840,-178L848,-179L862,-193L880,-196L883,-204L901,-207L907,-200L922,-216L935,-215L937,-229L944,-242L960,-255L972,-245L963,-237L978,-232L980,-217L987,-224L1007,-224L1023,-209L1028,-199L1027,-184L1019,-176L1001,-161L995,-153L1004,-150L1014,-144L1021,-148L1024,-132L1027,-139L1038,-143L1061,-139L1063,-127L1092,-124L1092,-142L1107,-138L1118,-138L1129,-125L1133,-110L1128,-101L1137,-83L1148,-75L1155,-97L1166,-87L1178,-93L1192,-87L1197,-93L1208,-90L1203,-111L1212,-121L1244,-114L1275,-106L1281,-92L1300,-76L1328,-80L1342,-76L1347,-67L1347,-53L1355,-47L1365,-51L1377,-51L1390,-47L1403,-50L1416,-32L1424,-38L1419,-51L1422,-60L1444,-54L1458,-56L1479,-46L1488,-37L1488,34ZM1488,-75L1481,-74L1479,-81L1488,-90L1488,-75ZM-1025,-90L-1025,-90L-1025,-90L-1024,-91L-1018,-91L-1008,-85L-1009,-82L-1016,-77L-1025,-75L-1025,-75L-1025,-90ZM465,274L467,271L472,273L474,274L475,276L476,276L476,277L480,279L487,279L485,282L478,284L468,290L464,288L466,283L458,280L459,278L466,275Z" fill="#E0E0E0" stroke="#fff" stroke-width=".4"/><path d="M337,-326L340,-339L350,-340L359,-327L382,-299L365,-284L361,-259L355,-253L351,-227L343,-226L328,-245L334,-256L324,-266L310,-295L305,-325L324,-339L327,-325ZM449,-49L437,-41L431,-39L434,-53L425,-61L414,-55L411,-40L404,-31L397,-36L388,-35L380,-45L376,-40L371,-39L370,-27L357,-30L355,-19L349,-19L344,-6L337,13L326,37L329,43L326,49L320,49L315,63L315,83L320,91L318,108L312,117L309,125L304,117L290,132L281,135L271,129L269,114L267,81L273,71L291,58L305,42L318,19L335,-16L346,-30L366,-54L381,-63L392,-62L403,-80L416,-79L428,-83L450,-67L441,-62ZM423,-341L413,-320L392,-315L372,-321L371,-332L361,-333L353,-352L374,-363L385,-353L392,-366L409,-355ZM404,-260L389,-247L376,-254L381,-263L377,-274L391,-281L394,-268Z" fill="#E0E0E0" stroke="#fff" stroke-width=".4"/><path d="M-95,-461L-71,-495L-47,-492L-38,-514L-13,-520L15,-517L42,-513L66,-489L86,-466L73,-446L47,-443L9,-438L12,-429L37,-435L58,-418L72,-433L78,-415L70,-388L88,-405L122,-424L143,-414L146,-394L118,-362L114,-353L92,-346L108,-344L100,-315L94,-291L94,-253L103,-232L92,-231L80,-221L93,-206L95,-182L87,-179L96,-156L81,-155L89,-144L87,-136L77,-132L67,-132L76,-116L76,-105L62,-115L59,-109L68,-103L77,-89L80,-72L67,-68L62,-76L53,-88L56,-74L48,-63L66,-62L76,-61L57,-43L38,-28L18,-21L10,-21L3,-14L-7,5L-22,17L-27,18L-36,22L-46,26L-52,36L-52,47L-56,58L-67,70L-64,82L-68,94L-71,108L-81,109L-91,97L-105,97L-112,89L-117,75L-129,56L-132,45L-133,31L-143,15L-140,2L-145,-4L-138,-26L-128,-33L-125,-41L-123,-57L-131,-50L-135,-47L-142,-44L-150,-50L-151,-64L-148,-75L-141,-76L-127,-70L-139,-83L-145,-91L-152,-88L-158,-93L-150,-115L-155,-123L-160,-140L-169,-167L-177,-178L-177,-189L-196,-206L-211,-208L-230,-207L-247,-205L-255,-214L-267,-233L-248,-243L-234,-245L-264,-253L-280,-267L-279,-280L-253,-297L-227,-315L-224,-329L-243,-343L-237,-360L-213,-391L-203,-395L-206,-417L-189,-430L-168,-438L-146,-438L-139,-423L-120,-451L-103,-431L-94,-427L-79,-411L-96,-438Z" fill="#E0E0E0" stroke="#fff" stroke-width=".4"/><path d="M-129,607L-133,613L-135,619L-138,621L-141,622L-142,620L-144,619L-146,621L-149,620L-147,617L-147,614L-145,611L-148,607L-149,602L-145,596L-143,597L-138,598L-130,604ZM275,238L278,240L288,242L285,250L284,257L282,259L279,258L279,260L274,266L274,271L277,269L279,274L279,276L281,280L279,283L281,291L284,292L284,296L277,302L263,299L253,302L253,308L244,309L237,305L234,307L221,303L218,299L222,293L223,273L216,263L211,258L200,254L200,246L209,244L220,246L218,234L225,239L241,230L243,221L249,219L250,223L253,223L257,228L262,233L265,232L271,237L273,238ZM293,306L297,303L298,311L296,318L293,316L291,310Z" fill="#E0E0E0" stroke="#fff" stroke-width=".4"/><path d="M151,548L152,546L151,543L148,541L147,537L147,533L149,532L150,527L152,527L157,529L161,528L164,528L165,527L193,526L195,521L193,520L190,489L187,456L197,456L221,473L244,489L246,492L250,495L254,496L254,500L261,500L262,517L258,522L257,526L251,527L241,528L239,530L234,531L230,531L228,529L224,530L218,533L216,536L211,539L210,541L207,542L204,541L202,543L201,548L195,554L195,556L193,559L194,563L191,564L189,565L188,562L186,563L185,563L184,565L178,565L177,564L176,564L173,562L174,560L173,559L171,560L172,558L173,556L170,553L170,551L168,549L167,549L165,550L163,551L161,553L158,552L156,550L155,550L153,551L152,551Z" fill="#E0E0E0" stroke="#fff" stroke-width=".4"/><path d="M113,486L114,484L141,484L140,473L142,469L148,468L148,448L171,449L171,437L197,456L187,456L190,489L193,520L195,521L193,526L165,527L164,528L161,528L157,529L152,527L150,527L149,532L147,533L142,528L138,523L133,521L130,518L126,519L123,520L119,520L117,522L116,518L118,514L119,507L118,500L117,496L118,493L116,489Z" fill="#E0E0E0" stroke="#fff" stroke-width=".4"/><path d="M335,472L337,484L340,486L340,488L343,491L341,494L339,509L338,518L329,525L326,535L329,537L329,542L334,542L333,545L331,546L331,548L329,548L325,540L323,540L318,544L312,542L308,542L306,543L302,542L298,546L295,546L286,542L283,544L279,544L277,541L270,538L262,539L260,541L259,545L257,548L257,554L252,550L249,550L247,552L247,547L239,546L239,542L235,537L234,534L234,531L239,530L241,528L251,527L257,526L258,522L262,517L261,500L271,496L292,482L315,467L326,471L330,475Z" fill="#E0E0E0" stroke="#fff" stroke-width=".4"/><path d="M481,394L480,397L477,396L476,401L478,402L476,403L476,405L479,404L479,407L475,420L475,418L471,406L473,404L472,403L474,399L476,393L477,391L477,391L479,391L480,390L482,389L482,393L481,394Z" fill="#E0E0E0" stroke="#fff" stroke-width=".4"/><path d="M482,389L480,390L479,391L477,391L479,384L483,378L483,378L486,378L487,382L483,385Z" fill="#E0E0E0" stroke="#fff" stroke-width=".4"/><path d="M479,404L476,405L476,403L478,402L476,401L477,396L480,397L480,402Z" fill="#E0E0E0" stroke="#fff" stroke-width=".4"/><path d="M298,414L295,399L291,396L291,394L285,389L284,383L289,378L290,371L289,363L290,358L298,355L303,356L303,360L309,357L309,359L306,363L306,367L308,369L307,376L303,381L304,385L307,385L309,389L312,391L311,397L308,399L306,402L301,405L302,409L301,412Z" fill="#E0E0E0" stroke="#fff" stroke-width=".4"/><path d="M171,437L171,436L171,435L171,426L182,420L189,418L195,416L198,412L206,409L206,403L210,402L213,399L223,398L224,395L222,393L220,384L219,379L217,373L223,369L231,367L235,364L242,361L254,360L265,359L269,360L275,357L283,357L286,359L290,358L289,363L290,371L289,378L284,383L285,389L291,394L291,396L295,399L298,414L300,421L301,425L299,431L300,435L299,439L300,444L297,447L301,453L301,456L304,460L307,459L312,463L315,467L292,482L271,496L261,500L254,500L254,496L250,495L246,492L244,489L221,473L197,456Z" fill="#E0E0E0" stroke="#fff" stroke-width=".4"/><path d="M480,397L481,394L489,397L503,389L505,399L504,400L490,404L497,412L495,414L494,416L488,417L487,420L484,423L476,421L475,420L479,407L479,404L480,402Z" fill="#E0E0E0" stroke="#fff" stroke-width=".4"/><path d="M592,461L593,461L593,463L599,462L605,462L609,462L614,457L619,452L623,448L624,450L625,456L622,456L621,461L623,462L619,464L619,467L617,470L617,473L616,475L595,471L592,463Z" fill="#E0E0E0" stroke="#fff" stroke-width=".4"/><path d="M586,458L586,452L588,448L590,447L592,449L592,454L590,459L589,459Z" fill="#E0E0E0" stroke="#fff" stroke-width=".4"/><path d="M567,417L568,420L567,422L570,428L565,428L563,424L557,424L562,416Z" fill="#E0E0E0" stroke="#fff" stroke-width=".4"/><path d="M505,399L503,389L518,380L521,370L520,363L524,361L527,356L530,354L538,355L541,358L544,356L549,367L553,369L554,374L550,377L549,384L554,392L562,396L566,402L565,408L567,408L567,413L571,417L567,417L562,416L557,424L544,423L524,407L514,401Z" fill="#E0E0E0" stroke="#fff" stroke-width=".4"/><path d="M617,473L617,470L619,467L619,464L623,462L621,461L622,456L625,456L629,462L632,464L638,465L642,467L645,471L647,474L649,474L649,476L647,481L646,483L643,485L640,490L637,490L635,492L634,495L635,500L634,501L631,501L627,504L626,508L625,509L620,509L618,511L618,514L614,516L610,515L606,518L602,518L600,513L595,501L616,493L620,479ZM624,450L623,448L625,445L626,446L625,449Z" fill="#E0E0E0" stroke="#fff" stroke-width=".4"/><path d="M966,535L960,534L951,536L946,542L948,550L942,547L936,547L937,542L930,542L930,549L926,560L924,566L924,571L929,571L932,578L933,584L937,588L941,589L945,593L942,595L938,596L937,593L932,590L930,591L928,588L926,585L923,581L919,577L918,581L917,578L918,573L920,566L923,559L927,552L924,546L924,543L924,539L919,533L917,529L920,528L922,522L919,517L915,511L911,505L914,504L918,496L923,495L927,492L931,490L934,493L934,497L939,497L937,505L937,512L945,507L947,509L951,509L952,506L957,506L963,512L963,520L969,526L969,532Z" fill="#E0E0E0" stroke="#fff" stroke-width=".4"/><path d="M981,536L975,533L972,538L966,535L969,532L969,526L963,520L963,512L957,506L952,506L951,509L947,509L945,507L937,512L937,505L939,497L934,497L934,493L931,490L932,488L938,483L939,485L942,485L941,476L945,475L949,481L952,488L961,488L963,494L959,496L957,499L965,503L971,512L976,518L981,524L983,529Z" fill="#E0E0E0" stroke="#fff" stroke-width=".4"/><path d="M931,490L927,492L923,495L918,496L914,504L911,505L915,511L919,517L922,522L920,528L917,529L919,533L924,539L924,543L924,546L927,552L923,559L920,566L919,561L921,556L919,551L919,544L917,540L914,531L913,522L910,516L905,520L897,525L894,524L889,523L892,514L890,507L885,498L886,496L881,495L877,488L876,482L879,484L879,478L882,476L881,473L883,471L883,463L889,464L892,458L892,454L896,448L896,443L905,438L910,439L909,435L912,433L911,430L915,430L918,434L921,436L921,442L921,449L914,455L913,464L920,463L922,470L927,471L925,478L930,480L933,482L938,480L938,483L932,488Z" fill="#E0E0E0" stroke="#fff" stroke-width=".4"/><path d="M960,562L966,560L973,559L970,555L982,549L983,541L981,536L983,529L981,524L976,518L971,512L965,503L957,499L959,496L963,494L961,488L952,488L949,481L945,475L949,473L954,473L961,472L967,468L970,471L977,473L976,477L979,480L986,482L977,488L971,495L969,500L975,508L981,518L988,522L992,528L995,541L994,554L988,559L980,563L975,569L966,576L963,571L965,566Z" fill="#E0E0E0" stroke="#fff" stroke-width=".4"/><path d="M844,239L852,237L865,228L876,223L882,226L889,227L894,232L901,232L911,235L917,227L915,221L922,209L930,214L936,215L944,218L946,226L955,231L962,229L971,227L978,229L985,234L989,239L995,239L1004,241L1011,238L1020,237L1030,229L1034,230L1038,234L1046,233L1043,241L1038,252L1040,256L1044,255L1051,256L1056,252L1062,256L1068,263L1067,267L1062,265L1051,267L1047,270L1041,276L1031,280L1024,285L1017,283L1013,282L1009,289L1011,293L1012,296L1008,299L1002,304L994,307L984,308L973,311L964,316L961,313L953,313L943,308L936,306L926,307L912,305L904,306L900,300L897,291L893,290L884,284L875,282L867,281L864,276L867,265L862,256L852,252L846,247Z" fill="#E0E0E0" stroke="#fff" stroke-width=".4"/><path d="M911,430L912,433L909,435L910,439L905,438L896,443L896,448L892,454L892,458L889,464L883,463L883,471L881,473L882,476L879,478L875,466L873,466L872,471L868,467L870,463L873,462L877,456L873,455L866,455L859,454L859,448L855,448L850,444L848,450L853,454L848,457L847,460L851,462L850,466L852,472L853,478L852,481L848,481L839,482L839,488L836,492L826,497L818,506L812,511L806,515L805,519L802,521L796,523L792,524L790,529L792,538L792,544L789,551L789,563L786,564L782,569L785,571L778,573L776,578L773,580L766,574L763,564L760,557L758,553L754,546L753,537L751,533L745,523L742,509L740,499L740,490L739,483L729,488L724,487L715,478L718,475L716,472L708,466L712,461L728,461L726,454L722,450L722,444L717,441L725,432L733,433L740,425L744,417L751,408L751,403L757,398L751,394L749,388L747,381L750,377L761,379L768,378L775,371L783,381L782,388L785,392L784,396L779,395L781,404L788,409L798,415L794,418L791,426L798,429L804,433L813,437L823,438L827,442L832,443L841,445L846,445L847,442L846,437L847,433L851,432L852,438L852,439L858,442L863,441L868,442L874,441L875,437L872,434L877,433L884,427L892,422L898,424L903,421L906,426L904,429Z" fill="#E0E0E0" stroke="#fff" stroke-width=".4"/><path d="M879,478L879,484L876,482L877,488L875,485L874,481L873,477L870,473L863,472L864,476L862,480L859,478L858,480L856,479L853,478L852,472L850,466L851,462L847,460L848,457L853,454L848,450L850,444L855,448L859,448L859,454L866,455L873,455L877,456L873,462L870,463L868,467L872,471L873,466L875,466Z" fill="#E0E0E0" stroke="#fff" stroke-width=".4"/><path d="M872,434L875,437L874,441L868,442L863,441L858,442L852,439L852,438L856,432L860,430L865,432L869,432Z" fill="#E0E0E0" stroke="#fff" stroke-width=".4"/><path d="M847,433L846,437L847,442L846,445L841,445L832,443L827,442L823,438L813,437L804,433L798,429L791,426L794,418L798,415L801,413L806,415L813,421L817,422L820,426L825,427L831,431L839,432Z" fill="#E0E0E0" stroke="#fff" stroke-width=".4"/><path d="M775,371L768,378L761,379L750,377L747,381L749,388L751,394L757,398L751,403L751,408L744,417L740,425L733,433L725,432L717,441L722,444L722,450L726,454L728,461L712,461L708,466L703,464L700,458L695,452L682,454L671,454L661,455L664,446L674,442L673,438L670,437L670,430L663,427L660,422L657,418L668,422L675,421L680,422L681,420L686,421L695,417L695,410L699,406L704,406L705,403L710,402L713,403L716,401L715,396L718,391L723,389L720,383L727,383L728,380L728,377L732,374L731,369L729,366L733,362L741,360L749,359L752,357L756,356L762,361L764,367Z" fill="#E0E0E0" stroke="#fff" stroke-width=".4"/><path d="M696,354L700,355L705,356L707,357L712,355L715,356L717,352L721,352L722,351L723,348L726,345L730,347L729,349L731,350L730,357L733,360L736,358L739,357L743,353L748,354L755,354L756,356L752,357L749,359L741,360L733,362L729,366L731,369L732,374L728,377L728,380L727,383L720,383L723,389L718,391L715,396L716,401L713,403L710,402L705,403L704,406L699,406L695,410L695,417L686,421L681,420L680,422L675,421L668,422L657,418L663,410L662,405L657,404L657,399L654,392L657,387L654,386L656,380L659,369L666,373L671,371L673,368L678,366L682,364L684,357L690,355L691,352L694,354Z" fill="#E0E0E0" stroke="#fff" stroke-width=".4"/><path d="M705,356L709,347L708,341L703,339L704,335L710,335L713,330L716,324L725,322L724,326L725,329L727,329L725,331L717,330L717,335L724,334L733,337L746,336L748,344L750,343L754,345L754,349L755,354L748,354L743,353L739,357L736,358L733,360L730,357L731,350L729,349L730,347L726,345L723,348L722,351L721,352L717,352L715,356L712,355L707,357Z" fill="#E0E0E0" stroke="#fff" stroke-width=".4"/><path d="M727,310L729,306L733,304L745,308L746,302L750,300L760,304L762,303L774,303L784,304L788,308L792,309L791,311L780,316L778,320L769,321L766,327L759,326L754,328L747,332L748,334L746,336L733,337L724,334L717,335L717,330L725,331L727,329L733,330L742,323L733,318L728,320L723,317L729,311Z" fill="#E0E0E0" stroke="#fff" stroke-width=".4"/><path d="M598,314L601,311L609,309L614,312L619,319L622,319L630,319L629,314L635,311L641,305L650,310L651,318L654,320L661,319L664,321L667,330L675,337L680,341L687,345L696,349L696,354L694,354L691,352L690,355L684,357L682,364L678,366L673,368L671,371L666,373L659,369L658,362L653,362L645,354L640,353L632,349L627,348L624,349L619,349L614,354L608,356L607,350L608,340L602,337L604,331L600,331L601,323L608,325L614,322L609,317L607,311L601,314L600,320Z" fill="#E0E0E0" stroke="#fff" stroke-width=".4"/><path d="M571,417L567,413L567,408L565,408L566,402L562,396L554,392L549,384L550,377L554,374L553,369L549,367L544,356L540,349L542,346L540,336L544,333L546,337L549,341L554,342L556,342L565,335L567,335L569,337L567,342L571,346L573,346L575,353L582,354L587,359L597,360L607,358L608,356L614,354L619,349L624,349L627,348L632,349L640,353L645,354L653,362L658,362L659,369L656,380L654,386L657,387L654,392L657,399L657,404L662,405L663,410L657,418L660,422L663,427L670,430L670,437L673,438L674,442L664,446L661,455L648,453L640,451L632,450L629,440L626,439L621,440L614,444L605,442L598,436L591,433L587,426L582,415L578,416L573,414Z" fill="#E0E0E0" stroke="#fff" stroke-width=".4"/><path d="M481,394L481,394L482,393L482,389L483,385L487,382L486,378L483,378L482,371L484,368L486,366L488,364L488,359L490,361L498,358L502,360L508,360L516,357L519,357L527,356L524,361L520,363L521,370L518,380L503,389L489,397Z" fill="#E0E0E0" stroke="#fff" stroke-width=".4"/><path d="M556,342L554,342L551,337L551,336L548,336L546,333L544,333L542,331L536,329L537,324L536,321L546,319L547,322L550,323L548,326L552,329L550,332L553,334L556,336Z" fill="#E0E0E0" stroke="#fff" stroke-width=".4"/><path d="M309,125L312,117L318,108L320,91L315,83L315,63L320,49L326,49L329,43L326,37L337,13L344,-6L349,-19L355,-19L357,-30L370,-27L371,-39L376,-40L385,-31L396,-18L396,10L399,16L387,21L380,33L381,43L370,56L356,69L351,90L356,100L363,108L356,124L349,127L347,149L343,161L334,160L330,169L322,170L320,158L314,144Z" fill="#E0E0E0" stroke="#fff" stroke-width=".4"/><path d="M428,160L436,163L437,166L440,165L447,168L448,173L446,177L451,184L454,187L453,189L458,191L460,194L457,197L452,196L450,197L452,201L454,208L448,209L445,212L445,217L442,216L436,217L434,214L431,216L429,214L423,214L416,211L409,211L403,211L399,214L396,214L396,209L394,204L398,202L398,197L396,193L396,187L402,187L410,183L412,176L417,172L417,167L421,165Z" fill="#E0E0E0" stroke="#fff" stroke-width=".4"/><path d="M454,208L456,209L458,206L460,207L467,206L472,212L470,214L471,218L476,218L479,223L479,225L487,229L493,228L497,233L501,233L511,236L511,239L509,245L510,251L509,254L502,255L499,258L499,262L493,263L488,266L482,267L476,271L476,276L475,276L474,274L472,273L467,271L465,274L464,273L453,270L453,266L446,268L444,273L438,281L435,279L432,280L429,279L431,278L432,274L434,271L433,269L435,268L435,270L439,270L441,269L440,268L440,267L438,264L437,260L434,258L435,255L432,252L429,251L424,248L419,249L418,251L415,251L413,253L408,254L405,256L402,253L398,253L393,252L390,254L390,251L386,249L387,244L389,242L391,242L389,237L395,228L399,227L399,224L396,214L399,214L403,211L409,211L416,211L423,214L429,214L431,216L434,214L436,217L442,216L445,217L445,212L448,209Z" fill="#E0E0E0" stroke="#fff" stroke-width=".4"/><path d="M396,187L396,193L398,197L398,202L394,204L396,209L396,214L399,224L399,227L395,228L389,237L391,242L389,242L383,237L378,239L374,238L370,240L367,236L364,238L363,237L360,232L355,231L354,228L349,227L348,229L345,227L345,224L340,223L337,220L334,212L334,209L332,202L330,198L332,195L330,189L335,186L346,180L355,176L362,178L362,181L369,181L378,183L390,182L394,184Z" fill="#E0E0E0" stroke="#fff" stroke-width=".4"/><path d="M350,252L350,256L346,256L347,258L345,265L343,267L337,267L334,269L328,268L318,266L317,262L310,264L309,266L305,264L301,264L298,262L299,260L299,258L301,257L304,260L305,258L311,258L316,256L320,256L322,259L323,257L322,250L324,249L327,244L332,247L336,243L338,242L344,245L347,245L350,247L350,248Z" fill="#E0E0E0" stroke="#fff" stroke-width=".4"/><path d="M386,249L390,251L390,254L386,256L383,263L378,270L373,272L368,272L363,274L361,276L355,274L350,270L347,268L346,265L345,265L347,258L346,256L350,256L350,252L354,254L356,256L362,254L363,252L366,252L369,250L370,251L373,250L375,247L377,246L384,250Z" fill="#E0E0E0" stroke="#fff" stroke-width=".4"/><path d="M418,251L419,249L424,248L429,251L432,252L435,255L434,258L437,260L438,264L440,267L440,268L441,269L439,270L435,270L435,268L433,269L434,271L432,274L431,278L429,279L428,274L428,270L428,265L424,259L422,255L420,252Z" fill="#E0E0E0" stroke="#fff" stroke-width=".4"/><path d="M429,279L432,280L435,279L438,281L439,283L435,285L433,284L431,296L427,295L422,292L414,294L410,296L400,296L395,294L392,295L390,291L389,289L390,288L388,286L386,289L382,286L382,282L377,279L377,276L373,272L378,270L383,263L386,256L390,254L393,252L398,253L402,253L405,256L408,254L413,253L415,251L418,251L420,252L422,255L424,259L428,265L428,270L428,274Z" fill="#E0E0E0" stroke="#fff" stroke-width=".4"/><path d="M417,167L417,172L412,176L410,183L402,187L396,187L394,184L390,182L390,179L391,176L387,174L380,172L379,162L387,158L398,159L405,157L406,160L410,161Z" fill="#E0E0E0" stroke="#fff" stroke-width=".4"/><path d="M422,143L426,146L426,152L428,160L421,165L417,167L410,161L406,160L405,157L398,159L387,158L379,162L379,152L382,144L389,140L394,149L400,149L401,139L407,137L410,138L416,143Z" fill="#E0E0E0" stroke="#fff" stroke-width=".4"/><path d="M427,117L428,119L423,127L425,139L422,143L416,143L410,138L407,137L401,139L402,131L400,133L395,128L395,120L403,117L412,115L420,117Z" fill="#E0E0E0" stroke="#fff" stroke-width=".4"/><path d="M330,189L332,195L330,198L332,202L334,209L334,212L337,220L333,221L332,219L330,222L325,224L322,226L317,229L318,232L319,237L323,239L327,244L324,249L322,250L323,257L322,259L320,256L316,256L311,258L305,258L304,260L301,257L299,258L291,255L290,257L284,257L285,250L288,242L278,240L275,238L275,233L274,230L275,223L273,211L278,211L279,207L281,196L280,192L281,190L287,189L288,192L293,186L292,182L291,175L296,176L301,175L301,179L308,182L308,186L315,184L319,181L327,185Z" fill="#E0E0E0" stroke="#fff" stroke-width=".4"/><path d="M390,291L392,295L395,294L400,296L410,296L414,294L422,292L427,295L431,296L427,300L425,307L427,312L421,311L414,314L414,319L408,320L403,316L397,319L392,319L391,312L388,309L389,308L388,307L390,304L392,301L389,297L388,293Z" fill="#E0E0E0" stroke="#fff" stroke-width=".4"/><path d="M415,372L414,375L404,376L404,374L396,373L397,369L401,372L406,371L412,372L411,373ZM392,319L397,319L403,316L408,320L414,319L414,314L417,316L415,322L414,323L409,323L406,322L397,325L402,330L399,331L395,331L391,327L390,329L391,334L395,338L392,340L396,344L399,347L400,352L393,350L395,354L391,355L393,363L389,363L383,359L380,352L379,346L376,342L373,337L372,334L376,330L376,327L378,326L378,323L383,322L386,320L389,320L391,319Z" fill="#E0E0E0" stroke="#fff" stroke-width=".4"/><path d="M544,356L541,358L538,355L530,354L527,356L519,357L516,357L508,360L502,360L498,358L490,361L488,359L488,364L486,366L484,368L481,364L484,361L480,361L474,359L469,364L459,365L453,361L445,360L444,364L439,365L432,360L425,361L421,352L415,347L419,340L414,336L422,327L433,327L436,320L449,321L458,315L466,312L477,312L489,319L499,322L508,321L514,322L522,317L529,316L536,321L537,324L536,329L542,331L544,333L540,336L542,346L540,349ZM414,314L421,311L427,312L428,316L434,319L433,321L424,322L422,325L416,329L414,325L414,323L415,322L417,316Z" fill="#E0E0E0" stroke="#fff" stroke-width=".4"/><path d="M378,323L378,326L376,327L376,330L372,334L371,334L371,332L367,329L367,324L367,318L368,315L367,314L366,311L369,306L370,308L372,307L373,309L375,310L375,314L375,317L376,321Z" fill="#E0E0E0" stroke="#fff" stroke-width=".4"/><path d="M347,268L350,270L355,274L361,276L363,274L365,278L367,281L364,285L361,283L356,283L350,281L347,281L346,283L343,281L342,285L345,290L347,293L350,296L352,299L355,303L361,306L360,308L354,304L350,301L343,298L338,291L339,290L336,286L336,283L331,281L329,285L327,282L327,279L327,279L332,279L334,277L336,279L339,279L339,276L341,275L342,271Z" fill="#E0E0E0" stroke="#fff" stroke-width=".4"/><path d="M299,258L299,260L298,262L301,264L305,264L304,269L301,270L296,269L294,273L291,273L290,272L286,275L282,276L279,274L277,269L274,271L274,266L279,260L279,258L282,259L284,257L290,257L291,255Z" fill="#E0E0E0" stroke="#fff" stroke-width=".4"/><path d="M274,230L275,233L275,238L273,238L271,237L272,231Z" fill="#E0E0E0" stroke="#fff" stroke-width=".4"/><path d="M275,223L274,230L272,231L271,237L265,232L262,233L257,228L253,223L250,223L249,219L255,217L260,218L266,215L271,220Z" fill="#E0E0E0" stroke="#fff" stroke-width=".4"/><path d="M280,192L281,196L279,207L278,211L273,211L275,223L271,220L266,215L260,218L255,217L258,214L265,197L274,192Z" fill="#E0E0E0" stroke="#fff" stroke-width=".4"/><path d="M169,313L171,311L174,310L176,314L180,314L181,313L185,313L187,318L184,321L184,328L183,329L182,333L179,334L182,340L180,346L183,348L182,351L179,354L180,357L177,359L173,358L170,359L171,352L170,346L167,346L165,342L166,336L169,333L169,329L170,324L170,320L169,317Z" fill="#E0E0E0" stroke="#fff" stroke-width=".4"/><path d="M180,357L179,354L182,351L183,348L180,346L182,340L179,334L182,333L183,329L184,328L184,321L187,318L185,313L181,313L180,314L176,314L174,310L171,311L169,313L169,307L166,303L176,296L185,297L194,297L201,299L207,299L218,299L221,303L234,307L237,305L244,309L253,308L253,313L246,320L237,322L237,325L232,330L230,337L232,342L228,346L227,352L222,354L217,360L208,361L201,360L197,364L194,367L191,366L188,363L186,358Z" fill="#E0E0E0" stroke="#fff" stroke-width=".4"/><path d="M188,188L190,196L184,207L172,213L162,212L168,200L164,188L174,178L179,173L180,179L179,186L183,185Z" fill="#E0E0E0" stroke="#fff" stroke-width=".4"/><path d="M996,507L990,505L990,498L993,495L1001,493L1005,493L1007,496L1004,499L1002,503ZM792,309L791,304L796,301L790,284L804,280L807,278L812,260L826,263L830,259L830,248L836,247L842,240L844,239L846,247L852,252L862,256L867,265L864,276L867,281L875,282L884,284L893,290L897,291L900,300L904,306L912,305L926,307L936,306L943,308L953,313L961,313L964,316L973,311L984,308L994,307L1002,304L1008,299L1012,296L1011,293L1009,289L1013,282L1017,283L1024,285L1031,280L1041,276L1047,270L1051,267L1062,265L1067,267L1068,263L1062,256L1056,252L1051,256L1044,255L1040,256L1038,252L1043,241L1046,233L1055,237L1064,230L1064,225L1071,214L1075,210L1075,204L1071,201L1076,195L1085,193L1094,193L1105,196L1111,200L1115,212L1118,217L1120,224L1123,234L1135,238L1143,245L1146,255L1157,255L1163,251L1174,248L1171,257L1168,261L1166,272L1161,282L1152,280L1146,284L1148,292L1147,304L1144,304L1144,309L1139,303L1136,308L1126,312L1127,317L1121,317L1117,314L1113,321L1105,326L1099,332L1089,334L1084,338L1077,341L1081,337L1079,333L1085,327L1081,322L1075,325L1067,332L1063,338L1056,338L1052,342L1056,348L1062,350L1062,354L1067,356L1075,350L1081,353L1086,354L1087,358L1077,361L1074,365L1067,370L1064,376L1071,380L1074,389L1078,396L1083,403L1083,409L1078,411L1080,415L1084,418L1083,424L1081,430L1077,431L1072,440L1067,450L1060,459L1050,466L1041,473L1033,473L1029,477L1026,474L1022,478L1013,482L1005,483L1003,491L999,491L997,486L999,483L989,481L986,482L979,480L976,477L977,473L970,471L967,468L961,472L954,473L949,473L945,475L941,476L942,485L939,485L938,483L938,480L933,482L930,480L925,478L927,471L922,470L920,463L913,464L914,455L921,449L921,442L921,436L918,434L915,430L911,430L904,429L906,426L903,421L898,424L892,422L884,427L877,433L872,434L869,432L865,432L860,430L856,432L852,438L851,432L847,433L839,432L831,431L825,427L820,426L817,422L813,421L806,415L801,413L798,415L788,409L781,404L779,395L784,396L785,392L782,388L783,381L775,371L764,367L762,361L756,356L755,354L754,349L754,345L750,343L748,344L746,336L748,334L747,332L754,328L759,326L766,327L769,321L778,320L780,316L791,311Z" fill="#E0E0E0" stroke="#fff" stroke-width=".4"/><path d="M305,264L309,266L310,264L317,262L318,266L328,268L327,273L329,278L323,276L318,280L318,285L317,287L320,292L326,297L330,305L337,313L343,313L345,315L343,317L349,320L354,323L360,328L361,329L359,333L356,328L349,327L347,333L352,336L351,341L348,341L344,349L341,350L341,347L343,342L344,340L341,335L339,330L336,329L334,325L330,324L327,320L322,319L316,315L310,309L305,304L303,294L299,293L294,290L291,291L286,296L284,296L284,292L281,291L279,283L281,280L279,276L279,274L282,276L286,275L290,272L291,273L294,273L296,269L301,270L304,269ZM335,348L340,347L338,354L339,356L337,361L332,358L328,357L318,352L319,348L328,349ZM292,323L296,320L300,326L299,338L296,338L293,341L291,338L290,327L289,322Z" fill="#E0E0E0" stroke="#fff" stroke-width=".4"/><path d="M301,175L296,176L291,175L288,168L288,155L289,152L291,148L297,147L300,144L306,140L305,147L303,151L304,154L308,156L306,161L304,160L299,169ZM318,161L320,167L316,177L309,170L308,165Z" fill="#E0E0E0" stroke="#fff" stroke-width=".4"/><path d="M188,188L183,185L179,186L180,179L179,173L185,172L192,180ZM210,193L210,193L211,187L206,179L206,179L198,177L196,174L199,168L196,165L193,171L192,159L189,152L191,139L197,128L202,129L211,128L203,142L210,140L218,141L216,151L210,162L217,163L218,164L224,179L229,181L233,194L235,199L243,201L243,208L239,212L242,218L236,223L226,223L214,226L211,224L206,229L200,228L195,232L191,230L202,218L208,216L208,216L197,214L195,210L202,206L198,200L200,192Z" fill="#E0E0E0" stroke="#fff" stroke-width=".4"/><path d="M130,9L129,20L137,31L128,44L107,55L101,58L92,55L73,50L80,43L64,35L77,32L76,27L62,23L67,12L77,10L88,21L99,12L107,17L119,7Z" fill="#E0E0E0" stroke="#fff" stroke-width=".4"/><path d="M556,314L558,314L562,320L565,320L567,318L571,314L575,319L578,326L581,326L583,329L578,329L577,336L575,339L573,342L573,346L571,346L567,342L569,337L567,335L565,335L556,342L556,336L553,334L550,332L552,329L548,326L550,323L547,322L546,319L547,318L553,321L556,321L557,320L554,315ZM554,342L549,341L546,337L544,333L546,333L548,336L551,336L551,337Z" fill="#E0E0E0" stroke="#fff" stroke-width=".4"/><path d="M511,299L511,298L517,299L528,301L537,305L538,307L543,306L549,308L551,311L556,314L554,315L557,320L556,321L553,321L547,318L546,319L536,321L529,316L522,317L523,313L521,306L517,303L513,302Z" fill="#E0E0E0" stroke="#fff" stroke-width=".4"/><path d="M328,268L334,269L337,267L343,267L345,265L346,265L347,268L342,271L341,275L339,276L339,279L336,279L334,277L332,279L327,279L329,278L327,273Z" fill="#E0E0E0" stroke="#fff" stroke-width=".4"/><path d="M431,-39L430,-26L441,-14L435,0L443,20L438,34L444,46L441,57L452,67L449,75L443,84L428,102L415,103L403,108L391,111L387,104L381,99L382,85L379,71L382,62L388,53L404,35L409,32L408,25L399,16L396,10L396,-18L385,-31L376,-40L380,-45L388,-35L397,-36L404,-31L411,-40L414,-55L425,-61L434,-53Z" fill="#E0E0E0" stroke="#fff" stroke-width=".4"/><path d="M389,242L387,244L386,249L384,250L377,246L375,247L373,250L370,251L369,250L366,252L363,252L362,254L356,256L354,254L350,252L350,248L350,247L351,244L354,245L357,244L357,243L358,242L359,240L360,239L361,237L363,237L364,238L367,236L370,240L374,238L378,239L383,237Z" fill="#E0E0E0" stroke="#fff" stroke-width=".4"/><path d="M337,220L340,223L345,224L345,227L348,229L349,227L354,228L355,231L360,232L363,237L361,237L360,239L359,240L358,242L357,243L357,244L354,245L351,244L350,247L347,245L344,245L338,242L336,243L332,247L327,244L323,239L319,237L318,232L317,229L322,226L325,224L330,222L332,219L333,221Z" fill="#E0E0E0" stroke="#fff" stroke-width=".4"/><path d="M476,421L484,423L487,420L488,417L494,416L495,414L497,412L490,404L504,400L505,399L514,401L524,407L544,423L557,424L563,424L565,428L570,428L572,435L576,437L577,439L582,443L582,446L582,448L582,451L584,453L585,456L586,458L589,459L590,459L592,461L592,463L595,471L616,475L617,473L620,479L616,493L595,501L575,504L568,507L563,515L560,516L558,513L555,514L549,513L547,512L539,513L537,513L535,511L533,515L533,518L530,520L529,517L527,515L527,512L523,509L519,503L517,497L513,492L510,491L505,484L504,479L504,474L500,466L497,463L493,461L491,457L491,455L490,451L487,449L485,444L480,437L477,432L473,432L475,427L475,425Z" fill="#E0E0E0" stroke="#fff" stroke-width=".4"/><path d="M460,374L461,374L462,372L467,372L473,369L468,373L469,374L468,374L467,375L466,375L465,375L465,374L465,374L463,373L462,374Z" fill="#E0E0E0" stroke="#fff" stroke-width=".4"/><path d="M460,374L462,374L463,373L465,374L465,374L465,375L466,375L467,375L468,374L469,374L469,375L462,379L458,377L457,374Z" fill="#E0E0E0" stroke="#fff" stroke-width=".4"/><path d="M217,373L219,379L220,384L222,393L224,395L223,398L213,399L210,402L206,403L206,409L198,412L195,416L189,418L182,420L171,426L171,435L170,435L170,439L166,439L164,441L161,441L158,440L152,441L150,447L148,448L144,457L135,466L132,476L130,480L129,482L113,483L113,483L113,479L116,477L118,473L118,471L120,465L124,461L126,459L128,455L128,451L131,446L136,443L140,435L140,435L144,432L150,431L156,426L159,424L165,417L163,407L166,400L167,395L171,390L178,386L183,382L188,374L190,368L195,368L200,372L206,371L213,373Z" fill="#E0E0E0" stroke="#fff" stroke-width=".4"/><path d="M489,479L461,479L434,479L406,479L406,450L406,422L404,416L406,411L405,407L407,404L417,403L423,406L430,408L434,409L439,407L442,404L448,404L453,405L455,409L456,406L462,408L467,408L471,406L475,418L475,420L474,424L472,430L470,434L468,435L466,432L463,429L458,418L457,418L460,427L465,435L470,447L472,451L475,455L481,464L479,465L480,470L488,477Z" fill="#E0E0E0" stroke="#fff" stroke-width=".4"/><path d="M406,479L406,493L398,493L398,497L370,482L342,468L335,472L330,475L326,471L315,467L312,463L307,459L304,460L301,456L301,453L297,447L300,444L299,439L300,435L299,431L301,425L300,421L298,414L301,412L302,409L301,405L306,402L308,399L311,397L312,391L320,393L323,393L329,394L338,398L341,405L348,407L357,410L365,414L368,412L372,408L370,402L372,398L377,394L382,393L392,395L394,398L397,398L399,400L406,401L407,404L405,407L406,411L404,416L406,422L406,450Z" fill="#E0E0E0" stroke="#fff" stroke-width=".4"/><path d="M361,306L355,303L352,299L350,296L347,293L345,290L342,285L343,281L346,283L347,281L350,281L356,283L361,283L364,285L367,285L365,289L369,293L367,297L366,298L365,299L362,301Z" fill="#E0E0E0" stroke="#fff" stroke-width=".4"/><path d="M388,309L391,312L392,319L391,319L389,320L386,320L383,322L378,323L376,321L375,317L375,314L376,314L377,312L381,310L382,310L385,309Z" fill="#E0E0E0" stroke="#fff" stroke-width=".4"/><path d="M363,274L368,272L373,272L377,276L377,279L382,282L382,286L386,289L388,286L390,288L389,289L390,291L388,293L389,297L392,301L390,304L388,307L389,308L388,309L385,309L382,310L382,309L383,308L384,306L383,306L381,304L380,304L379,302L378,302L377,300L376,301L375,304L373,305L374,304L371,302L369,301L368,300L366,298L367,297L369,293L365,289L367,285L364,285L367,281L365,278Z" fill="#E0E0E0" stroke="#fff" stroke-width=".4"/><path d="M372,307L370,308L369,306L366,311L367,314L365,313L363,310L360,308L361,306L362,301L365,299L366,298L368,300L369,301L371,302L374,304L373,305Z" fill="#E0E0E0" stroke="#fff" stroke-width=".4"/><path d="M375,314L375,310L373,309L372,307L373,305L375,304L376,301L377,300L378,302L379,302L380,304L381,304L383,306L384,306L383,308L382,309L382,310L381,310L377,312L376,314Z" fill="#E0E0E0" stroke="#fff" stroke-width=".4"/></g><g clip-path="url(#v)"></g><circle cx="400.0" cy="150.0" r="4" fill="#E74C3C" stroke="#fff" stroke-width="2"/><text x="400.0" y="140.0" text-anchor="middle" font-family="sans-serif" font-weight="700" font-size="10" fill="#2D3436">Riga</text></svg>