<svg viewBox="0 0 800 300" xmlns="http://www.w3.org/2000/svg"><defs><clipPath id="v"><rect width="800" height="300"/></clipPath></defs><rect width="800" height="300" fill="#DCEEF8"/><g clip-path="url(#v)"><path d="M564,433L565,434L594,450L594,455L606,463L602,473L603,477L608,480L608,482L606,487L606,489L606,493L608,498L612,506L615,508L608,512L600,516L595,515L592,518L587,518L584,519L575,517L569,517L567,506L564,503L563,501L555,499L550,497L545,495L542,494L539,492L535,482L530,477L528,473L529,469L528,461L531,461L534,458L537,454L539,452L539,450L537,448L537,445L539,444L539,439L536,435L539,434L548,434Z" fill="#E0E0E0" stroke="#fff" stroke-width=".4"/><path d="M227,198L227,199L227,200L227,214L201,213L201,236L194,236L192,241L194,253L163,253L161,256L161,252L161,252L179,252L180,249L183,245L186,233L197,223L201,212L203,212L206,205L212,204L215,205L219,205L221,203L226,203L226,198Z" fill="#E0E0E0" stroke="#fff" stroke-width=".4"/><path d="M-675,-20L-676,-20L-692,-32L-697,-37L-712,-42L-716,-54L-715,-62L-725,-67L-727,-78L-736,-87L-736,-94L-732,-101L-732,-110L-746,-119L-754,-136L-759,-146L-766,-153L-771,-159L-775,-168L-783,-162L-791,-154L-798,-164L-803,-171L-811,-175L-819,-176L-819,-276L-819,-354L-804,-348L-792,-338L-783,-336L-777,-345L-767,-352L-755,-349L-743,-359L-730,-365L-725,-355L-719,-361L-717,-372L-712,-369L-698,-349L-688,-364L-687,-347L-677,-350L-674,-357L-665,-356L-653,-346L-634,-338L-623,-334L-615,-336L-605,-325L-616,-314L-602,-310L-580,-312L-573,-316L-565,-303L-556,-314L-565,-323L-559,-330L-550,-331L-543,-333L-537,-328L-529,-317L-520,-318L-506,-309L-494,-312L-483,-312L-483,-325L-476,-329L-464,-321L-464,-302L-459,-318L-453,-318L-449,-339L-458,-353L-467,-362L-466,-389L-457,-407L-447,-403L-439,-392L-428,-365L-435,-354L-420,-349L-420,-326L-410,-344L-400,-329L-402,-314L-395,-300L-387,-315L-381,-333L-380,-358L-369,-356L-357,-353L-347,-341L-346,-331L-352,-319L-347,-308L-348,-298L-363,-284L-374,-281L-382,-287L-385,-277L-392,-261L-395,-253L-404,-240L-415,-239L-421,-231L-422,-220L-431,-218L-441,-204L-449,-185L-452,-173L-453,-155L-441,-152L-438,-138L-434,-127L-423,-130L-408,-123L-400,-118L-395,-111L-385,-107L-376,-101L-363,-101L-355,-99L-356,-87L-354,-74L-348,-59L-336,-47L-330,-51L-326,-65L-330,-85L-335,-93L-323,-99L-314,-109L-309,-119L-310,-128L-315,-141L-325,-152L-316,-169L-319,-183L-322,-209L-316,-213L-303,-208L-295,-207L-288,-211L-281,-205L-271,-196L-269,-189L-254,-188L-255,-174L-252,-155L-245,-152L-239,-143L-228,-152L-220,-169L-215,-176L-209,-162L-198,-143L-190,-125L-193,-116L-182,-108L-175,-100L-163,-96L-157,-92L-154,-81L-148,-79L-145,-74L-144,-59L-150,-54L-156,-50L-169,-45L-179,-35L-192,-33L-209,-36L-221,-36L-229,-35L-236,-26L-246,-21L-257,-5L-266,6L-260,4L-247,-12L-230,-22L-219,-23L-212,-17L-219,-9L-217,4L-214,12L-204,18L-191,16L-183,4L-182,12L-177,16L-187,23L-204,30L-212,35L-221,43L-227,42L-227,32L-214,23L-226,24L-235,25L-240,19L-240,3L-244,-0L-249,2L-252,-2L-258,7L-260,16L-263,21L-266,23L-269,24L-270,26L-284,26L-296,26L-300,29L-308,36L-309,37L-312,42L-319,42L-327,42L-330,43L-329,46L-328,49L-328,50L-339,55L-347,57L-356,63L-358,63L-361,61L-362,59L-361,58L-360,55L-356,49L-354,42L-355,33L-357,23L-365,17L-364,15L-365,14L-367,14L-369,12L-369,9L-371,11L-373,10L-373,9L-374,8L-375,5L-381,1L-388,-3L-396,-7L-403,-12L-410,-8L-413,-8L-422,-11L-429,-10L-436,-13L-444,-15L-450,-16L-452,-18L-454,-25L-457,-25L-457,-20L-473,-20L-500,-20L-527,-20L-551,-20L-574,-20L-598,-20L-622,-20L-629,-20L-653,-20ZM-368,-211L-362,-219L-352,-219L-352,-216L-361,-206L-367,-207ZM-335,-430L-344,-444L-343,-454L-340,-456L-321,-453L-308,-438L-307,-431L-315,-431L-324,-432L-333,-428ZM-339,-205L-336,-210L-333,-210L-331,-206L-334,-197L-337,-199L-340,-204ZM-444,-492L-449,-480L-460,-483L-470,-491L-465,-504L-454,-513L-447,-502ZM-446,-577L-450,-576L-465,-578L-467,-589L-451,-588L-445,-581ZM-469,-625L-460,-611L-462,-597L-474,-589L-480,-598L-483,-613L-484,-629L-474,-628ZM-401,-475L-414,-478L-435,-488L-438,-505L-439,-521L-447,-535L-463,-539L-472,-550L-469,-564L-453,-562L-444,-550L-428,-551L-422,-539L-423,-527L-414,-519L-409,-512L-399,-510L-387,-508L-375,-515L-358,-517L-346,-515L-337,-503L-335,-490L-340,-482L-352,-476L-362,-480L-385,-475ZM-584,-601L-573,-595L-575,-583L-590,-573L-602,-585L-595,-597ZM-582,-626L-571,-618L-581,-611L-594,-611L-594,-616L-586,-628ZM-144,-49L-148,-41L-153,-30L-148,-34L-143,-31L-146,-27L-139,-24L-135,-27L-127,-23L-129,-14L-124,-16L-123,-10L-120,-3L-124,8L-127,8L-133,6L-131,-4L-133,-5L-142,5L-147,5L-141,-1L-149,-4L-157,-3L-173,-3L-174,-7L-169,-11L-173,-14L-166,-21L-158,-41L-153,-48L-146,-53L-142,-52ZM-367,-259L-359,-252L-350,-247L-349,-238L-343,-239L-338,-233L-345,-228L-357,-232L-361,-240L-369,-231L-380,-222L-383,-232L-394,-230L-387,-239L-386,-253L-383,-271L-378,-269L-376,-261L-372,-264ZM-327,-418L-320,-429L-302,-415L-291,-403L-290,-392L-275,-398L-267,-382L-248,-373L-241,-363L-234,-342L-248,-332L-230,-318L-217,-313L-206,-294L-193,-293L-196,-279L-210,-257L-219,-265L-232,-283L-242,-281L-243,-270L-235,-259L-224,-250L-221,-245L-216,-228L-218,-215L-228,-220L-248,-234L-237,-219L-229,-208L-227,-202L-249,-209L-266,-219L-275,-228L-273,-233L-284,-242L-296,-251L-296,-245L-319,-243L-325,-249L-320,-263L-305,-263L-289,-265L-292,-272L-289,-282L-279,-301L-281,-311L-284,-318L-296,-328L-312,-336L-307,-341L-315,-355L-322,-356L-328,-364L-333,-357L-347,-355L-376,-360L-393,-366L-405,-370L-412,-378L-404,-389L-415,-390L-417,-415L-411,-439L-403,-450L-383,-458L-389,-440L-382,-423L-375,-445L-355,-456L-341,-428L-343,-411ZM-451,-467L-435,-466L-420,-459L-432,-434L-441,-429L-450,-410L-459,-411L-463,-434L-463,-447L-459,-459ZM-676,-528L-662,-554L-646,-577L-634,-576L-623,-581L-624,-554L-630,-542L-637,-540L-652,-526L-665,-521ZM-753,-84L-746,-85L-748,-70L-741,-60L-745,-60L-749,-66L-752,-72L-756,-76L-758,-82L-757,-86ZM-538,-647L-523,-641L-501,-626L-495,-607L-492,-591L-505,-596L-518,-608L-536,-609L-528,-621L-538,-631ZM-681,-14L-685,-12L-698,-18L-700,-22L-707,-26L-709,-30L-717,-32L-720,-39L-719,-42L-711,-39L-706,-37L-698,-36L-696,-32L-692,-26L-684,-21ZM-665,-476L-654,-470L-634,-469L-626,-460L-617,-448L-627,-441L-647,-423L-657,-404L-657,-394L-677,-382L-682,-392L-700,-406L-696,-417L-691,-436L-684,-454L-692,-472ZM-557,-519L-550,-525L-541,-523L-540,-508L-545,-493L-572,-488L-591,-475L-604,-475L-605,-484L-588,-498L-624,-494L-635,-500L-624,-531L-617,-540L-594,-529L-580,-510L-567,-507L-578,-539L-571,-551L-562,-547L-560,-531ZM-546,-437L-538,-427L-533,-401L-530,-384L-517,-372L-503,-361L-503,-351L-516,-349L-511,-340L-514,-332L-528,-336L-542,-342L-551,-340L-566,-333L-586,-330L-600,-328L-604,-338L-615,-344L-622,-342L-632,-360L-627,-362L-614,-366L-603,-365L-593,-369L-608,-375L-625,-373L-636,-373L-641,-382L-622,-392L-634,-391L-648,-398L-642,-417L-636,-427L-615,-444L-607,-439L-611,-426L-593,-434L-582,-421L-573,-434L-566,-426L-560,-400L-556,-411L-561,-438L-554,-442ZM-498,-427L-507,-445L-498,-459L-488,-453L-474,-456L-472,-448L-479,-435L-467,-424L-469,-400L-482,-391L-489,-393L-495,-402L-515,-422L-514,-431ZM-547,-452L-536,-453L-530,-447L-537,-429L-550,-448ZM-483,-548L-477,-533L-477,-516L-480,-493L-493,-490L-502,-495L-502,-513L-515,-510L-515,-536L-507,-534L-495,-546L-484,-544ZM-463,-706L-458,-721L-450,-725L-453,-736L-435,-739L-425,-712L-411,-702L-398,-693L-392,-663L-383,-649L-394,-636L-408,-606L-422,-603L-439,-608L-447,-624L-447,-639L-441,-651L-455,-650L-464,-665L-469,-685ZM-428,-773L-417,-784L-407,-786L-392,-796L-380,-818L-370,-815L-362,-798L-356,-831L-345,-841L-331,-849L-307,-851L-303,-844L-280,-855L-263,-851L-246,-847L-225,-842L-208,-834L-193,-817L-194,-800L-213,-775L-232,-764L-239,-752L-222,-752L-241,-721L-253,-707L-267,-669L-283,-662L-288,-653L-312,-648L-301,-643L-307,-635L-300,-615L-308,-602L-320,-591L-324,-576L-335,-566L-334,-558L-320,-559L-320,-551L-341,-530L-362,-539L-385,-534L-397,-538L-412,-540L-413,-557L-398,-565L-402,-591L-397,-594L-376,-578L-387,-602L-400,-609L-393,-625L-379,-634L-377,-649L-388,-666L-392,-690L-370,-687L-364,-682L-351,-700L-369,-705L-397,-702L-411,-719L-417,-739L-427,-755ZM-299,-305L-304,-299L-313,-298L-315,-308L-312,-319L-304,-322L-298,-317L-298,-308ZM-465,-349L-460,-340L-465,-333L-476,-339L-482,-337L-493,-347L-486,-354L-481,-364L-472,-357L-468,-353ZM-214,-31L-212,-32L-201,-29L-193,-23L-193,-21L-197,-21L-207,-25ZM-210,3L-208,9L-202,10L-194,10L-198,15L-201,16L-211,11L-213,7Z" fill="#E0E0E0" stroke="#fff" stroke-width=".4"/><path d="M986,-23L980,-15L974,-13L974,-2L969,4L953,-0L948,20L944,23L928,27L935,46L930,49L930,55L925,54L922,50L910,49L897,49L894,50L883,45L878,47L877,54L864,50L859,52L857,56L852,58L842,66L838,73L835,73L833,68L823,68L822,59L818,59L818,48L809,41L795,41L786,43L779,33L772,29L760,21L758,20L738,27L738,66L734,67L729,59L723,56L714,58L711,61L710,59L712,54L711,51L702,47L698,37L694,34L694,31L701,32L702,24L708,22L715,24L717,13L715,5L707,6L701,3L691,8L684,11L680,9L681,3L676,-5L670,-5L663,-13L668,-22L665,-24L672,-38L680,-31L681,-40L697,-53L710,-54L727,-45L736,-40L745,-45L757,-45L767,-39L770,-43L781,-42L783,-48L770,-57L778,-63L776,-67L784,-70L778,-79L782,-84L811,-88L815,-92L835,-97L842,-102L856,-99L859,-85L867,-89L877,-84L876,-77L884,-77L904,-90L901,-86L911,-76L929,-43L933,-49L944,-42L955,-45L959,-43L963,-36L969,-34L972,-28L982,-30Z" fill="#E0E0E0" stroke="#fff" stroke-width=".4"/><path d="M738,66L738,27L758,20L760,21L772,29L779,33L786,43L795,41L809,41L818,48L818,59L822,59L823,68L833,68L835,73L838,73L842,66L852,58L857,56L859,57L853,64L858,68L864,66L873,71L863,79L857,78L854,78L853,75L855,70L844,73L841,79L838,85L831,84L829,89L835,91L837,99L832,109L826,107L822,107L822,101L811,96L803,91L798,87L789,80L785,69L782,67L774,67L771,65L770,57L759,51L753,57L746,61L747,66Z" fill="#E0E0E0" stroke="#fff" stroke-width=".4"/><path d="M528,461L529,469L528,473L530,477L535,482L539,492L536,491L525,492L523,493L521,498L522,502L521,512L520,520L522,521L528,524L530,523L531,531L525,531L521,527L518,523L512,522L511,518L506,521L499,520L497,516L492,515L488,515L488,513L485,513L481,512L476,513L473,513L471,514L471,504L469,501L468,496L469,492L468,489L468,484L458,484L459,481L455,481L454,482L449,482L447,487L446,489L442,488L439,489L434,490L431,486L429,483L427,478L425,472L402,472L399,473L396,473L393,474L392,472L394,471L394,467L396,465L399,464L401,464L403,461L408,461L408,464L411,465L416,460L420,456L422,454L422,447L426,439L429,435L434,432L435,429L435,426L437,423L436,419L437,412L439,407L441,403L442,398L442,392L445,388L450,386L456,389L461,392L467,392L473,394L475,389L476,388L480,389L489,385L492,387L494,387L496,385L499,384L505,385L510,385L512,384L517,391L521,392L523,390L526,391L531,389L533,393L540,398L539,407L542,408L540,411L537,413L534,417L532,421L532,427L530,430L530,436L527,439L527,443L526,444L525,448L527,452Z" fill="#E0E0E0" stroke="#fff" stroke-width=".4"/><path d="M625,439L620,432L620,404L627,395L629,392L634,392L641,386L651,386L674,362L679,356L683,351L683,346L683,338L683,335L683,335L685,335L689,334L693,333L697,330L700,330L700,332L699,337L699,341L698,344L695,353L692,362L687,372L680,383L673,392L664,403L656,410L644,417L637,423L628,433L626,437Z" fill="#E0E0E0" stroke="#fff" stroke-width=".4"/><path d="M606,463L594,455L594,450L565,434L564,433L564,425L566,422L570,416L573,411L569,402L568,398L565,392L570,387L575,382L579,383L579,388L582,391L587,391L597,397L600,397L602,397L603,398L609,399L611,395L618,392L621,395L627,395L620,404L620,432L625,439L619,442L617,445L614,446L613,452L610,455L609,460Z" fill="#E0E0E0" stroke="#fff" stroke-width=".4"/><path d="M490,360L484,357L481,355L481,352L482,349L482,346L477,341L477,337L477,335L474,333L474,328L472,325L469,325L470,322L472,319L471,316L474,313L472,311L474,306L478,300L485,301L484,268L484,264L493,264L493,247L525,247L556,247L587,247L590,256L588,257L589,266L592,276L595,278L599,281L595,286L590,287L587,290L586,295L583,307L584,310L583,317L579,325L575,329L571,336L570,339L567,341L564,350L564,357L564,351L563,350L563,346L562,344L558,340L557,335L558,329L555,328L554,330L549,330L551,333L552,338L548,342L544,348L540,349L533,344L530,346L529,348L525,349L525,351L517,351L516,349L510,349L507,351L505,350L501,345L500,343L494,344L492,348L490,355L487,356L485,357Z" fill="#E0E0E0" stroke="#fff" stroke-width=".4"/><path d="M484,268L485,301L478,300L474,306L472,311L474,313L471,316L472,319L470,322L469,325L472,325L474,328L474,333L477,335L477,337L472,338L468,342L462,350L454,354L447,354L445,354L445,357L441,360L438,363L428,366L426,364L425,364L423,366L417,367L418,365L415,359L414,356L411,355L406,350L408,346L411,347L414,346L418,346L414,339L414,334L414,328L410,323L411,319L406,319L406,314L403,311L406,300L416,292L417,282L420,265L422,261L418,258L418,255L415,253L413,240L421,235L453,252Z" fill="#E0E0E0" stroke="#fff" stroke-width=".4"/><path d="M1037,-727L1054,-739L1070,-713L1088,-668L1086,-630L1069,-625L1047,-636L1034,-653L1027,-684L1017,-694ZM1109,-646L1129,-623L1127,-607L1082,-592L1096,-644L1103,-649ZM1393,-529L1414,-527L1443,-510L1437,-487L1408,-488L1394,-481L1379,-501L1383,-523ZM1468,-503L1488,-495L1478,-483L1466,-486L1451,-498L1453,-508ZM1402,-445L1409,-457L1419,-459L1430,-448L1431,-441L1419,-441L1403,-444ZM650,-706L666,-714L678,-715L679,-702L684,-714L691,-722L703,-711L700,-704L689,-697L682,-694L681,-686L672,-678L663,-689L668,-704ZM476,-88L461,-88L451,-89L453,-95L464,-100L472,-97L476,-95L475,-91ZM719,-456L738,-482L736,-495L753,-512L779,-533L806,-539L819,-552L835,-556L840,-543L835,-532L807,-516L783,-501L758,-472L746,-444L734,-419L736,-397L751,-377L746,-375L720,-378L718,-389L704,-396L703,-409L711,-415L710,-429L726,-453ZM1426,-80L1428,-67L1428,-54L1432,-41L1439,-20L1428,-24L1423,-6L1431,6L1430,14L1424,7L1419,16L1418,6L1419,-5L1418,-18L1420,-27L1420,-44L1415,-56L1416,-74L1423,-80L1420,-87L1424,-88ZM-1127,-337L-1127,-337L-1108,-321L-1087,-300L-1088,-287L-1083,-282L-1084,-297L-1063,-294L-1047,-275L-1055,-267L-1068,-265L-1068,-247L-1072,-243L-1079,-243L-1085,-250L-1096,-255L-1097,-263L-1105,-267L-1114,-264L-1119,-271L-1117,-278L-1126,-273L-1123,-264L-1127,-256L-1127,-256L-1127,-337ZM1719,-256L1719,-256L1709,-248L1698,-249L1706,-240L1710,-225L1714,-220L1715,-213L1713,-209L1698,-212L1676,-200L1669,-198L1657,-186L1645,-176L1642,-169L1631,-180L1611,-168L1607,-173L1599,-167L1589,-169L1586,-159L1577,-144L1577,-138L1586,-134L1585,-113L1578,-113L1574,-101L1578,-95L1564,-88L1561,-73L1549,-70L1547,-57L1535,-45L1533,-53L1529,-72L1525,-102L1529,-122L1535,-131L1536,-138L1548,-141L1562,-160L1576,-176L1590,-189L1596,-213L1587,-211L1582,-197L1562,-180L1555,-200L1535,-194L1515,-167L1522,-158L1504,-154L1492,-152L1492,-163L1480,-165L1470,-158L1446,-160L1420,-156L1394,-127L1364,-93L1377,-92L1380,-83L1388,-80L1393,-87L1402,-86L1413,-71L1414,-60L1407,-48L1407,-33L1403,-13L1391,4L1389,12L1378,25L1367,38L1362,44L1352,50L1347,51L1342,45L1331,53L1330,57L1330,57L1329,55L1329,49L1333,49L1334,36L1332,27L1338,23L1348,25L1353,14L1356,1L1359,-3L1363,-14L1350,-10L1343,-6L1331,-6L1328,-17L1319,-25L1305,-29L1302,-41L1299,-49L1296,-54L1292,-68L1285,-72L1273,-76L1262,-76L1252,-74L1246,-67L1250,-64L1250,-57L1246,-53L1239,-39L1239,-34L1228,-26L1218,-31L1209,-30L1205,-34L1200,-35L1188,-27L1178,-25L1171,-22L1161,-23L1153,-23L1149,-30L1141,-36L1133,-37L1123,-36L1115,-33L1104,-38L1103,-48L1093,-51L1086,-53L1077,-58L1069,-45L1072,-37L1065,-29L1053,-32L1045,-32L1040,-38L1032,-38L1025,-42L1013,-36L998,-26L990,-24L986,-23L982,-30L972,-28L969,-34L963,-36L959,-43L955,-45L944,-42L933,-49L929,-43L911,-76L901,-86L904,-90L884,-77L876,-77L877,-84L867,-89L859,-85L856,-99L842,-102L835,-97L815,-92L811,-88L782,-84L778,-79L784,-70L776,-67L778,-63L770,-57L783,-48L781,-42L770,-43L767,-39L757,-45L745,-45L736,-40L727,-45L710,-54L697,-53L681,-40L680,-31L672,-38L665,-24L668,-22L663,-13L670,-5L676,-5L681,3L680,9L684,11L680,17L673,19L665,31L672,41L671,49L680,61L675,65L674,68L670,67L665,61L663,61L658,58L655,54L648,52L643,53L642,51L631,46L619,44L613,42L612,44L602,34L593,30L586,24L592,22L598,12L594,8L605,3L605,1L598,2L598,-3L602,-6L610,-7L611,-11L609,-17L613,-24L613,-27L601,-31L596,-31L591,-37L585,-35L575,-39L576,-42L573,-47L566,-48L566,-52L568,-54L563,-62L554,-60L552,-61L550,-58L547,-59L545,-67L543,-71L545,-72L551,-72L554,-75L552,-78L547,-81L547,-83L544,-86L539,-95L541,-98L540,-105L532,-108L528,-106L527,-110L519,-114L516,-122L515,-129L512,-132L515,-137L513,-151L518,-160L517,-163L526,-171L518,-179L535,-200L542,-210L545,-218L533,-230L536,-242L529,-256L535,-272L526,-294L533,-310L521,-324L522,-339L528,-341L542,-350L550,-358L563,-345L584,-339L614,-315L620,-305L621,-291L612,-281L599,-276L564,-291L558,-288L571,-274L572,-265L572,-246L582,-240L588,-236L589,-244L585,-252L590,-259L609,-248L615,-252L610,-266L629,-285L636,-284L643,-277L648,-291L641,-303L645,-315L639,-328L661,-322L666,-310L656,-307L656,-296L662,-289L674,-293L676,-306L693,-316L721,-335L726,-334L719,-321L728,-318L734,-326L749,-326L761,-335L770,-322L779,-337L770,-349L775,-357L798,-350L809,-343L837,-318L843,-329L835,-341L835,-346L825,-348L828,-359L823,-377L823,-385L838,-407L843,-431L849,-436L870,-429L871,-415L864,-394L869,-386L871,-370L870,-338L878,-325L875,-311L859,-282L868,-279L872,-286L880,-291L882,-301L889,-311L885,-323L888,-338L880,-339L878,-352L884,-375L874,-395L888,-412L886,-431L890,-431L894,-417L891,-392L900,-388L896,-406L909,-416L926,-417L940,-403L933,-424L932,-453L946,-459L965,-458L982,-461L976,-477L985,-496L994,-497L1009,-513L1030,-517L1033,-526L1054,-529L1060,-522L1078,-539L1092,-539L1095,-553L1102,-568L1121,-583L1134,-572L1124,-563L1142,-557L1144,-540L1151,-549L1174,-548L1192,-532L1198,-519L1196,-503L1187,-494L1167,-477L1161,-468L1171,-464L1182,-457L1189,-463L1193,-445L1197,-452L1210,-456L1235,-452L1237,-439L1270,-435L1270,-456L1287,-451L1300,-451L1312,-436L1316,-419L1311,-409L1321,-389L1334,-379L1341,-405L1354,-394L1368,-400L1383,-393L1389,-400L1402,-396L1396,-420L1406,-431L1443,-424L1478,-414L1485,-399L1505,-380L1537,-385L1553,-381L1559,-371L1559,-354L1568,-348L1579,-352L1593,-353L1608,-348L1623,-351L1637,-331L1646,-338L1640,-352L1643,-363L1669,-356L1685,-358L1708,-347L1719,-337L1719,-256ZM1719,-380L1710,-379L1709,-387L1719,-397L1719,-380ZM-1127,-397L-1127,-397L-1127,-397L-1126,-398L-1120,-398L-1108,-391L-1109,-387L-1117,-382L-1127,-380L-1127,-380L-1127,-397ZM560,15L562,13L568,15L570,16L571,18L573,18L573,19L577,22L585,21L583,25L574,27L564,34L559,31L561,26L552,23L554,21L561,17Z" fill="#E0E0E0" stroke="#fff" stroke-width=".4"/><path d="M416,-663L419,-679L430,-680L440,-665L466,-633L446,-617L442,-588L435,-581L431,-552L422,-550L405,-572L412,-585L400,-596L385,-629L378,-662L400,-678L404,-663ZM542,-350L528,-341L522,-339L525,-355L515,-364L503,-356L499,-340L491,-330L483,-335L473,-334L464,-346L459,-340L454,-339L453,-325L438,-328L436,-317L428,-317L423,-302L415,-280L403,-253L406,-246L403,-239L395,-240L390,-223L391,-200L396,-192L393,-173L386,-162L383,-153L378,-163L362,-145L352,-141L341,-149L338,-166L335,-203L343,-214L363,-229L379,-247L393,-273L413,-312L426,-328L447,-356L465,-366L478,-365L490,-385L504,-384L518,-389L543,-371L533,-365ZM512,-681L501,-656L478,-651L455,-659L453,-671L442,-672L433,-693L458,-706L469,-695L477,-709L497,-697ZM491,-589L474,-574L460,-583L465,-592L460,-605L477,-612L480,-598Z" fill="#E0E0E0" stroke="#fff" stroke-width=".4"/><path d="M-74,-817L-47,-855L-20,-852L-10,-877L18,-884L50,-881L82,-875L108,-849L131,-823L116,-799L86,-797L44,-791L48,-781L76,-787L99,-767L115,-785L121,-765L113,-734L133,-753L171,-774L195,-764L199,-741L167,-705L163,-694L137,-686L156,-684L146,-651L140,-624L140,-581L150,-558L137,-556L124,-545L139,-528L141,-500L132,-498L143,-472L125,-470L134,-458L132,-448L121,-444L109,-444L119,-425L119,-414L104,-425L100,-418L110,-411L121,-396L124,-376L110,-371L104,-381L94,-395L97,-378L87,-366L108,-365L119,-363L98,-344L76,-326L53,-319L45,-319L36,-311L25,-289L8,-275L3,-275L-8,-270L-19,-265L-26,-254L-26,-241L-30,-229L-43,-215L-40,-202L-43,-188L-47,-172L-58,-171L-70,-185L-86,-185L-93,-194L-99,-210L-112,-232L-116,-243L-118,-260L-128,-278L-126,-292L-131,-299L-123,-324L-111,-332L-108,-341L-106,-359L-115,-351L-120,-347L-127,-344L-137,-352L-137,-367L-134,-380L-127,-380L-111,-374L-124,-389L-131,-398L-139,-394L-146,-400L-137,-424L-142,-434L-148,-453L-157,-484L-167,-496L-167,-509L-189,-528L-205,-530L-227,-529L-246,-526L-255,-537L-269,-559L-248,-570L-232,-572L-266,-581L-284,-596L-283,-612L-253,-631L-224,-651L-221,-667L-242,-683L-235,-702L-208,-737L-196,-742L-200,-767L-181,-781L-156,-790L-132,-791L-124,-773L-103,-805L-84,-783L-73,-779L-56,-761L-75,-791Z" fill="#E0E0E0" stroke="#fff" stroke-width=".4"/><path d="M-126,710L-128,704L-125,700L-129,693L-136,688L-144,682L-147,683L-155,676L-160,677L-149,664L-140,655L-135,652L-128,647L-128,640L-132,635L-136,636L-135,631L-133,626L-133,621L-136,620L-139,621L-142,621L-143,618L-144,610L-145,607L-151,605L-154,607L-162,605L-162,593L-164,589L-162,587L-162,582L-160,578L-159,572L-161,567L-165,564L-166,561L-165,556L-180,556L-183,546L-181,546L-181,543L-182,540L-183,536L-187,533L-192,533L-195,531L-201,529L-204,526L-213,525L-221,518L-221,512L-222,509L-221,503L-231,505L-235,508L-242,511L-244,513L-248,514L-254,513L-258,514L-262,513L-261,501L-268,506L-275,506L-278,501L-283,501L-281,497L-286,493L-289,485L-287,484L-287,481L-282,478L-283,474L-281,471L-281,467L-271,462L-265,461L-264,459L-257,460L-253,438L-253,435L-254,430L-258,427L-258,421L-253,420L-252,421L-251,418L-256,417L-256,412L-241,412L-238,410L-236,412L-234,417L-233,416L-229,420L-222,419L-221,417L-215,415L-212,414L-211,411L-205,408L-206,407L-212,406L-213,401L-213,396L-217,394L-215,393L-209,394L-203,396L-201,394L-195,393L-186,390L-183,387L-184,385L-180,384L-178,386L-179,390L-177,391L-175,394L-177,397L-178,404L-176,408L-176,412L-171,415L-167,416L-166,414L-164,414L-160,412L-158,410L-153,411L-151,411L-147,411L-146,410L-148,408L-147,406L-144,407L-140,406L-135,407L-132,409L-129,407L-128,407L-127,409L-123,409L-120,406L-117,400L-113,393L-110,392L-108,397L-104,411L-99,412L-99,417L-105,424L-103,426L-89,428L-88,436L-82,430L-72,433L-59,438L-55,443L-57,447L-47,445L-32,449L-20,448L-9,455L2,464L8,466L14,466L17,469L20,479L21,484L18,497L14,502L3,514L-2,523L-8,530L-10,530L-12,536L-12,551L-14,564L-15,569L-17,573L-19,584L-27,595L-28,604L-34,607L-36,612L-45,612L-57,616L-63,620L-72,622L-81,629L-88,638L-89,644L-87,649L-89,658L-91,663L-96,668L-105,684L-112,691L-117,695L-121,704Z" fill="#E0E0E0" stroke="#fff" stroke-width=".4"/><path d="M-184,385L-183,387L-186,390L-195,393L-201,394L-203,396L-209,394L-215,393L-217,394L-213,396L-213,401L-212,406L-206,407L-205,408L-211,411L-212,414L-215,415L-221,417L-222,419L-229,420L-233,416L-235,408L-237,405L-240,403L-236,399L-237,398L-239,395L-240,390L-240,384L-238,382L-237,377L-239,376L-244,377L-250,377L-253,377L-258,371L-263,370L-273,370L-275,368L-277,367L-277,365L-276,362L-277,359L-279,357L-280,354L-284,353L-282,348L-281,343L-278,340L-275,337L-273,333L-268,332L-268,334L-273,335L-270,338L-271,343L-274,347L-271,354L-268,353L-266,347L-268,345L-269,338L-259,335L-260,331L-257,329L-254,335L-249,335L-244,339L-243,342L-236,342L-228,341L-223,345L-217,346L-213,343L-213,341L-203,341L-193,340L-200,343L-197,347L-191,347L-185,351L-184,358L-180,357L-177,359L-183,364L-184,367L-181,370L-183,371L-188,373L-188,376L-190,379Z" fill="#E0E0E0" stroke="#fff" stroke-width=".4"/><path d="M-151,411L-153,411L-158,410L-160,412L-164,414L-166,414L-167,416L-171,415L-176,412L-176,408L-178,404L-177,397L-175,394L-177,391L-179,390L-178,386L-180,384L-184,385L-190,379L-188,376L-188,373L-183,371L-181,370L-184,367L-183,364L-177,359L-171,362L-167,367L-166,372L-163,372L-159,376L-156,378L-157,386L-162,388L-162,389L-163,394L-160,399L-157,399L-156,404Z" fill="#E0E0E0" stroke="#fff" stroke-width=".4"/><path d="M-135,407L-140,406L-144,407L-147,406L-148,408L-146,410L-147,411L-151,411L-156,404L-157,399L-160,399L-163,394L-162,389L-162,388L-157,386L-156,378L-147,380L-146,379L-139,378L-131,380L-135,387L-134,392L-131,397L-133,400L-133,404Z" fill="#E0E0E0" stroke="#fff" stroke-width=".4"/><path d="M-113,393L-117,400L-120,406L-123,409L-127,409L-128,407L-129,407L-132,409L-135,407L-133,404L-133,400L-131,397L-134,392L-135,387L-131,380L-128,381L-122,383L-114,390ZM345,-26L348,-22L360,-20L356,-12L355,-4L353,-2L349,-3L349,0L344,7L343,12L347,10L350,15L350,18L352,23L349,26L351,35L355,36L355,41L347,47L332,44L320,48L319,54L310,56L301,51L298,53L284,48L281,44L285,37L286,15L278,3L272,-3L260,-7L259,-16L270,-19L283,-16L280,-29L288,-24L306,-34L309,-44L316,-46L317,-42L320,-42L324,-37L330,-31L334,-32L341,-26L342,-25ZM365,52L370,48L371,58L369,66L365,64L363,56Z" fill="#E0E0E0" stroke="#fff" stroke-width=".4"/><path d="M164,317L160,311L156,308L160,306L164,301L166,296L168,294L172,294L176,293L181,293L184,295L190,297L194,303L200,309L200,314L201,319L204,321L205,324L205,327L204,327L199,326L199,327L197,327L191,325L187,325L173,325L171,326L168,326L164,327L163,321L170,321L172,320L173,320L176,318L179,320L183,320L186,318L185,316L182,317L180,317L177,315L174,315L172,317Z" fill="#E0E0E0" stroke="#fff" stroke-width=".4"/><path d="M205,327L205,324L204,321L201,319L200,314L200,309L202,307L204,303L206,302L212,305L216,303L219,304L220,302L252,302L254,296L252,295L249,259L245,222L257,222L284,241L310,259L312,263L317,265L321,267L321,272L330,271L330,291L325,296L325,301L318,302L307,303L304,306L299,306L294,306L292,305L287,306L280,309L278,312L272,316L271,318L268,319L264,318L262,320L261,326L255,332L255,335L253,339L253,343L250,344L248,345L247,342L244,343L243,343L242,345L236,345L233,344L232,345L230,342L230,340L229,339L228,340L228,337L230,335L226,332L225,329L224,328L222,327L220,329L218,330L215,331L212,331L210,329L209,328L206,330L205,330Z" fill="#E0E0E0" stroke="#fff" stroke-width=".4"/><path d="M161,256L163,253L194,253L192,241L194,236L201,236L201,213L227,214L227,200L257,222L245,222L249,259L252,295L254,296L252,302L220,302L219,304L216,303L212,305L206,302L204,303L202,307L200,309L194,303L190,297L184,295L181,293L176,293L172,294L168,294L166,296L165,292L167,288L168,280L167,272L166,268L167,263L165,259Z" fill="#E0E0E0" stroke="#fff" stroke-width=".4"/><path d="M317,376L311,377L309,372L309,353L307,352L307,348L304,345L302,342L303,338L306,337L307,334L311,333L313,331L315,328L318,328L324,333L324,336L326,340L324,344L325,346L321,351L319,353L317,358L318,363Z" fill="#E0E0E0" stroke="#fff" stroke-width=".4"/><path d="M413,240L415,253L418,255L418,258L422,261L420,265L417,282L416,292L406,300L403,311L406,314L406,319L411,319L410,323L408,324L408,326L406,326L401,318L399,317L393,322L387,319L383,319L380,320L376,320L371,323L367,323L357,319L354,321L350,321L347,318L339,315L330,316L328,318L327,322L325,326L324,333L318,328L315,328L313,331L313,325L304,323L304,319L299,314L298,310L299,306L304,306L307,303L318,302L325,301L325,296L330,291L330,271L341,268L364,251L391,235L403,238L408,243Z" fill="#E0E0E0" stroke="#fff" stroke-width=".4"/><path d="M317,376L318,363L317,358L319,353L321,351L325,346L324,344L326,340L324,336L324,333L325,326L327,322L328,318L330,316L339,315L347,318L350,321L354,321L357,319L367,323L371,323L376,320L380,320L383,319L387,319L393,322L399,317L401,318L406,326L408,326L411,329L410,331L410,334L403,340L401,345L400,349L398,351L397,357L392,360L391,364L389,367L389,370L383,373L379,370L376,370L371,375L369,375L365,382L363,388L355,391L352,390L349,392L342,392L338,387L336,381L330,376L324,376Z" fill="#E0E0E0" stroke="#fff" stroke-width=".4"/><path d="M410,323L414,328L414,334L414,339L418,346L414,346L411,347L408,346L406,350L411,355L414,356L415,359L418,365L417,367L413,375L411,376L410,383L411,386L410,388L414,392L415,395L418,399L421,402L422,405L422,408L422,412L416,410L409,408L399,408L398,407L394,408L389,407L385,408L372,408L373,401L370,396L367,395L365,391L363,390L363,388L365,382L369,375L371,375L376,370L379,370L383,373L389,370L389,367L391,364L392,360L397,357L398,351L400,349L401,345L403,340L410,334L410,331L411,329L408,326L408,324Z" fill="#E0E0E0" stroke="#fff" stroke-width=".4"/><path d="M303,338L302,342L304,345L307,348L307,352L309,353L309,372L311,377L304,379L302,376L300,371L300,367L301,360L299,357L299,351L299,345L295,341L296,338Z" fill="#E0E0E0" stroke="#fff" stroke-width=".4"/><path d="M296,338L295,341L299,345L299,351L299,357L301,360L300,367L300,371L302,376L304,379L292,383L287,386L280,388L273,386L274,383L270,376L272,367L276,361L273,349L272,343L273,339L286,338L290,339L292,337Z" fill="#E0E0E0" stroke="#fff" stroke-width=".4"/><path d="M232,345L233,344L236,345L242,345L243,343L244,343L247,342L248,345L250,344L253,343L257,345L258,348L262,349L264,347L268,347L273,349L276,361L272,367L270,376L274,383L273,386L270,386L264,385L259,385L250,386L244,388L236,391L235,391L235,385L236,384L236,381L233,377L230,377L228,374L229,371L229,367L229,365L230,365L231,361L230,360L231,359L234,358L232,351L230,348L231,345Z" fill="#E0E0E0" stroke="#fff" stroke-width=".4"/><path d="M187,325L191,325L197,327L199,327L199,326L204,327L205,327L205,330L206,330L209,328L210,329L212,331L215,331L218,330L220,329L222,327L224,328L225,329L226,332L230,335L228,337L228,340L229,339L230,340L230,342L232,345L231,345L230,348L232,351L234,358L231,359L230,360L231,361L230,365L229,365L227,365L225,368L223,368L221,366L222,363L219,358L217,359L215,359L213,359L213,357L212,354L212,352L210,349L208,346L202,346L200,347L198,348L196,349L195,352L191,355L188,350L185,347L182,346L181,345L180,341L178,339L176,338L180,334L182,334L184,333L186,333L187,332L186,329L187,328Z" fill="#E0E0E0" stroke="#fff" stroke-width=".4"/><path d="M164,327L168,326L171,326L173,325L187,325L187,328L186,329L187,332L186,333L184,333L182,334L180,334L176,338L172,335L169,334L167,332L167,330L164,329Z" fill="#E0E0E0" stroke="#fff" stroke-width=".4"/><path d="M229,365L229,367L229,371L228,374L230,377L233,377L236,381L236,384L235,385L235,391L233,391L225,387L217,381L211,377L205,372L207,369L208,367L211,363L215,359L217,359L219,358L222,363L221,366L223,368L225,368L227,365Z" fill="#E0E0E0" stroke="#fff" stroke-width=".4"/><path d="M191,355L195,352L196,349L198,348L200,347L202,346L208,346L210,349L212,352L212,354L213,357L213,359L215,359L211,363L208,367L207,369L205,372L203,371L198,368L193,364L192,361Z" fill="#E0E0E0" stroke="#fff" stroke-width=".4"/><path d="M253,343L253,339L255,335L255,332L261,326L262,320L264,318L268,319L271,318L272,316L278,312L280,309L287,306L292,305L294,306L299,306L298,310L299,314L304,319L304,323L313,325L313,331L311,333L307,334L306,337L303,338L296,338L292,337L290,339L286,338L273,339L272,343L273,349L268,347L264,347L262,349L258,348L257,345Z" fill="#E0E0E0" stroke="#fff" stroke-width=".4"/><path d="M512,384L510,385L505,385L499,384L496,385L494,387L492,387L489,385L480,389L476,388L475,389L473,394L467,392L461,392L456,389L450,386L445,388L442,392L442,398L437,398L431,396L427,400L422,408L422,405L421,402L418,399L415,395L414,392L410,388L411,386L410,383L411,376L413,375L417,367L423,366L425,364L426,364L428,366L438,363L441,360L445,357L445,354L447,354L454,354L462,350L468,342L472,338L477,337L477,341L482,346L482,349L481,352L481,355L484,357L490,360L494,364L494,366L500,370L503,374L505,379L511,382Z" fill="#E0E0E0" stroke="#fff" stroke-width=".4"/><path d="M442,398L441,403L439,407L437,412L436,419L437,423L435,426L435,429L434,432L429,435L426,439L422,447L422,454L420,456L416,460L411,465L408,464L408,461L403,461L401,464L399,464L396,461L393,462L390,466L384,457L390,453L387,448L389,446L395,445L395,441L399,445L406,445L409,442L410,436L409,430L405,425L409,416L407,415L401,415L399,411L399,408L409,408L416,410L422,412L422,408L427,400L431,396L437,398Z" fill="#E0E0E0" stroke="#fff" stroke-width=".4"/><path d="M385,408L389,407L394,408L398,407L399,408L399,411L401,415L407,415L409,416L405,425L409,430L410,436L409,442L406,445L399,445L395,441L395,445L389,446L387,448L390,453L384,457L375,449L370,443L365,435L366,432L367,429L369,424L371,418L374,417L385,417Z" fill="#E0E0E0" stroke="#fff" stroke-width=".4"/><path d="M372,408L385,408L385,417L374,417L371,418L369,417Z" fill="#E0E0E0" stroke="#fff" stroke-width=".4"/><path d="M539,492L542,494L545,495L550,497L555,499L559,503L561,509L559,512L558,518L559,525L557,528L554,535L558,537L534,544L535,550L529,551L525,554L524,557L521,558L514,565L510,570L507,570L504,569L496,568L494,568L494,567L491,565L486,565L479,566L474,561L469,555L469,529L486,529L485,526L486,523L485,519L486,515L485,513L488,513L488,515L492,515L497,516L499,520L506,521L511,518L512,522L518,523L521,527L525,531L531,531L530,523L528,524L522,521L520,520L521,512L522,502L521,498L523,493L525,492L536,491Z" fill="#E0E0E0" stroke="#fff" stroke-width=".4"/><path d="M555,499L563,501L564,503L567,506L569,517L567,524L569,534L572,534L575,537L578,543L579,553L575,555L573,561L568,555L567,550L569,546L568,543L565,540L563,541L558,537L554,535L557,528L559,525L558,518L559,512L561,509L559,503Z" fill="#E0E0E0" stroke="#fff" stroke-width=".4"/><path d="M399,464L396,465L394,467L394,471L392,472L390,466L393,462L396,461ZM393,474L396,473L399,473L402,472L425,472L427,478L429,483L431,486L434,490L439,489L442,488L446,489L447,487L449,482L454,482L455,481L459,481L458,484L468,484L468,489L469,492L468,496L469,501L471,504L471,514L473,513L476,513L481,512L485,513L486,515L485,519L486,523L485,526L486,529L469,529L469,555L474,561L479,566L465,570L446,569L440,565L408,565L407,566L402,562L397,562L392,563L389,565L388,559L389,552L392,545L392,541L395,534L397,531L401,525L404,522L404,516L404,511L402,508L400,503L398,499L398,497L400,494L398,486L396,481L392,476Z" fill="#E0E0E0" stroke="#fff" stroke-width=".4"/><path d="M537,445L537,448L539,450L539,452L537,454L534,458L531,461L528,461L527,452L525,448L530,449L533,444Z" fill="#E0E0E0" stroke="#fff" stroke-width=".4"/><path d="M578,152L577,155L574,153L572,160L574,161L572,162L572,164L576,163L576,167L572,181L571,179L567,166L569,163L568,162L571,158L572,151L573,148L574,148L576,148L577,147L579,146L579,150L578,152Z" fill="#E0E0E0" stroke="#fff" stroke-width=".4"/><path d="M579,146L577,147L576,148L574,148L576,140L580,134L580,133L584,134L585,138L581,141Z" fill="#E0E0E0" stroke="#fff" stroke-width=".4"/><path d="M576,163L572,164L572,162L574,161L572,160L574,153L577,155L577,160Z" fill="#E0E0E0" stroke="#fff" stroke-width=".4"/><path d="M164,317L172,317L174,315L177,315L180,317L182,317L185,316L186,318L183,320L179,320L176,318L173,320L172,320L170,321L163,321Z" fill="#E0E0E0" stroke="#fff" stroke-width=".4"/><path d="M371,174L367,157L363,154L362,151L356,146L355,139L360,133L362,125L361,116L362,111L371,107L377,108L376,113L383,110L384,111L380,116L380,121L382,123L381,132L376,136L378,142L382,142L384,146L387,148L386,155L382,158L380,161L374,164L375,168L375,172Z" fill="#E0E0E0" stroke="#fff" stroke-width=".4"/><path d="M227,200L227,199L227,198L227,187L240,181L248,179L254,177L257,172L267,169L267,162L272,161L275,158L285,156L287,152L285,150L282,140L282,135L279,128L286,123L295,121L300,117L307,114L321,113L334,112L338,113L345,109L354,109L357,112L362,111L361,116L362,125L360,133L355,139L356,146L362,151L363,154L367,157L371,174L373,182L374,186L372,194L373,198L372,203L373,208L369,212L374,218L374,222L377,227L381,225L387,229L391,235L364,251L341,268L330,271L321,272L321,267L317,265L312,263L310,259L284,241L257,222Z" fill="#E0E0E0" stroke="#fff" stroke-width=".4"/><path d="M577,155L578,152L587,156L602,145L606,157L604,158L588,163L596,172L594,174L592,177L586,178L584,181L581,184L572,183L572,181L576,167L576,163L577,160Z" fill="#E0E0E0" stroke="#fff" stroke-width=".4"/><path d="M704,228L705,228L705,230L711,229L718,229L723,229L728,223L734,218L739,212L741,215L742,222L738,222L737,228L738,229L735,231L735,234L732,238L732,241L731,243L707,239L704,230Z" fill="#E0E0E0" stroke="#fff" stroke-width=".4"/><path d="M698,224L697,217L699,213L701,212L704,214L704,220L702,225L700,225Z" fill="#E0E0E0" stroke="#fff" stroke-width=".4"/><path d="M675,177L677,181L676,183L679,190L673,190L671,186L664,185L670,176Z" fill="#E0E0E0" stroke="#fff" stroke-width=".4"/><path d="M606,157L602,145L620,136L623,124L622,117L627,114L631,108L634,107L643,108L646,110L650,109L655,120L660,123L661,129L657,132L655,140L660,149L670,154L674,161L673,168L675,168L675,173L680,178L675,177L670,176L664,185L649,184L627,166L615,159Z" fill="#E0E0E0" stroke="#fff" stroke-width=".4"/><path d="M732,241L732,238L735,234L735,231L738,229L737,228L738,222L742,222L745,228L750,231L755,232L760,234L764,239L766,242L769,243L769,245L766,250L765,252L761,255L758,261L755,260L753,262L752,266L753,272L752,273L748,273L743,276L743,280L741,282L736,282L733,284L733,287L729,290L725,289L719,292L716,292L713,286L707,273L731,264L736,247ZM741,215L739,212L741,209L742,210L742,214Z" fill="#E0E0E0" stroke="#fff" stroke-width=".4"/><path d="M990,-24L998,-26L1013,-36L1025,-42L1032,-38L1040,-38L1045,-32L1053,-32L1065,-29L1072,-37L1069,-45L1077,-58L1086,-53L1093,-51L1103,-48L1104,-38L1115,-33L1123,-36L1133,-37L1141,-36L1149,-30L1153,-23L1161,-23L1171,-22L1178,-25L1188,-27L1200,-35L1205,-34L1209,-30L1218,-31L1214,-22L1209,-10L1211,-5L1215,-6L1223,-4L1229,-9L1236,-5L1243,3L1242,7L1236,6L1224,7L1219,11L1213,18L1201,23L1193,29L1185,26L1180,25L1176,32L1179,37L1180,40L1174,44L1169,50L1160,54L1148,54L1135,58L1126,63L1122,60L1113,60L1101,54L1093,52L1083,54L1066,51L1058,51L1053,45L1049,35L1044,34L1035,27L1024,25L1015,23L1012,18L1015,5L1010,-4L998,-9L992,-15Z" fill="#E0E0E0" stroke="#fff" stroke-width=".4"/><path d="M1065,193L1066,196L1063,198L1064,203L1058,202L1048,208L1048,213L1044,220L1043,224L1040,231L1034,229L1033,238L1032,241L1032,245L1029,247L1024,233L1022,233L1021,239L1017,234L1019,230L1023,229L1026,222L1022,220L1014,220L1007,219L1006,213L1002,213L996,209L993,215L999,219L994,223L992,226L997,228L996,233L998,240L1000,247L999,250L993,250L983,252L984,258L980,263L968,269L959,278L954,284L946,289L946,293L942,295L935,298L931,298L928,305L930,315L931,322L927,330L927,343L923,344L919,350L922,353L915,355L912,360L909,363L901,355L898,344L895,336L892,332L888,324L886,314L884,309L877,298L874,282L872,271L872,261L870,253L859,258L853,257L843,247L846,243L844,240L835,233L840,227L858,227L856,220L851,215L851,208L845,204L854,195L863,196L872,186L877,177L884,168L884,161L891,156L884,151L882,145L879,137L883,132L895,135L904,133L911,125L920,136L919,144L922,149L922,154L916,153L918,163L926,169L937,175L932,179L929,188L937,191L944,196L954,201L965,202L970,206L976,207L985,209L992,209L993,206L992,200L993,196L997,194L998,201L998,203L1005,206L1010,205L1017,206L1023,205L1024,200L1021,197L1027,196L1034,189L1043,183L1050,186L1056,182L1059,187L1057,191Z" fill="#E0E0E0" stroke="#fff" stroke-width=".4"/><path d="M1029,247L1028,253L1026,252L1026,259L1024,254L1023,250L1022,246L1019,241L1011,240L1012,244L1010,249L1006,247L1005,249L1003,248L1000,247L998,240L996,233L997,228L992,226L994,223L999,219L993,215L996,209L1002,213L1006,213L1007,219L1014,220L1022,220L1026,222L1023,229L1019,230L1017,234L1021,239L1022,233L1024,233Z" fill="#E0E0E0" stroke="#fff" stroke-width=".4"/><path d="M1021,197L1024,200L1023,205L1017,206L1010,205L1005,206L998,203L998,201L1003,195L1008,192L1013,194L1017,195Z" fill="#E0E0E0" stroke="#fff" stroke-width=".4"/><path d="M993,196L992,200L993,206L992,209L985,209L976,207L970,206L965,202L954,201L944,196L937,191L929,188L932,179L937,175L940,173L947,176L955,182L959,183L962,187L968,189L974,193L983,195Z" fill="#E0E0E0" stroke="#fff" stroke-width=".4"/><path d="M911,125L904,133L895,135L883,132L879,137L882,145L884,151L891,156L884,161L884,168L877,177L872,186L863,196L854,195L845,204L851,208L851,215L856,220L858,227L840,227L835,233L829,231L827,224L821,218L806,219L793,220L782,221L785,211L796,206L796,202L792,201L792,193L784,189L781,183L777,178L790,183L798,182L803,183L805,181L810,182L820,178L821,170L825,165L831,165L832,162L838,161L841,162L844,159L843,154L847,148L852,146L849,139L856,140L858,136L858,133L862,129L861,124L859,120L864,115L872,113L881,112L885,110L890,109L896,114L898,121Z" fill="#E0E0E0" stroke="#fff" stroke-width=".4"/><path d="M822,107L826,107L832,109L835,110L840,107L843,109L845,104L850,105L851,103L852,99L856,96L860,98L859,101L861,101L861,110L864,113L867,111L870,110L875,106L880,106L889,106L890,109L885,110L881,112L872,113L864,115L859,120L861,124L862,129L858,133L858,136L856,140L849,139L852,146L847,148L843,154L844,159L841,162L838,161L832,162L831,165L825,165L821,170L820,178L810,182L805,181L803,183L798,182L790,183L777,178L784,170L784,164L778,163L777,157L774,149L778,144L774,143L777,136L780,124L788,127L794,126L795,122L802,120L806,117L808,109L814,107L816,104L819,107Z" fill="#E0E0E0" stroke="#fff" stroke-width=".4"/><path d="M832,109L837,99L835,91L829,89L831,84L838,85L841,79L844,73L855,70L853,75L854,78L857,78L854,81L846,79L845,85L854,84L863,88L878,86L880,95L883,94L888,97L887,101L889,106L880,106L875,106L870,110L867,111L864,113L861,110L861,101L859,101L860,98L856,96L852,99L851,103L850,105L845,104L843,109L840,107L835,110Z" fill="#E0E0E0" stroke="#fff" stroke-width=".4"/><path d="M857,56L859,52L864,50L877,54L878,47L883,45L894,50L897,49L910,49L922,50L925,54L930,55L929,58L917,64L914,68L904,69L901,76L892,74L887,76L879,81L881,84L878,86L863,88L854,84L845,85L846,79L854,81L857,78L863,79L873,71L864,66L858,68L853,64L859,57Z" fill="#E0E0E0" stroke="#fff" stroke-width=".4"/><path d="M711,61L714,58L723,56L729,59L734,67L738,66L747,66L746,61L753,57L759,51L770,57L771,65L774,67L782,67L785,69L789,80L798,87L803,91L811,96L822,101L822,107L819,107L816,104L814,107L808,109L806,117L802,120L795,122L794,126L788,127L780,124L779,115L773,115L764,106L758,105L749,100L743,99L740,101L735,101L729,107L722,108L721,101L722,91L716,87L718,80L712,80L714,71L722,74L729,70L723,64L721,58L714,61L713,68Z" fill="#E0E0E0" stroke="#fff" stroke-width=".4"/><path d="M680,178L675,173L675,168L673,168L674,161L670,154L660,149L655,140L657,132L661,129L660,123L655,120L650,109L645,101L647,98L645,86L650,83L651,87L655,92L661,93L663,93L673,85L676,84L678,87L675,92L680,98L682,97L685,105L692,107L698,112L709,113L721,111L722,108L729,107L735,101L740,101L743,99L749,100L758,105L764,106L773,115L779,115L780,124L777,136L774,143L778,144L774,149L777,157L778,163L784,164L784,170L777,178L781,183L784,189L792,193L792,201L796,202L796,206L785,211L782,221L767,218L759,216L750,215L746,204L742,203L736,204L728,208L719,206L711,199L703,196L698,188L692,176L688,177L683,174Z" fill="#E0E0E0" stroke="#fff" stroke-width=".4"/><path d="M578,152L578,152L579,150L579,146L581,141L585,138L584,134L580,133L580,126L582,122L584,120L586,118L586,112L589,114L598,111L602,113L608,113L617,110L622,110L631,108L627,114L622,117L623,124L620,136L602,145L587,156Z" fill="#E0E0E0" stroke="#fff" stroke-width=".4"/><path d="M663,93L661,93L657,87L657,86L654,86L652,83L650,83L647,80L641,78L642,72L640,69L651,67L653,70L656,72L654,74L659,78L656,81L660,84L663,86Z" fill="#E0E0E0" stroke="#fff" stroke-width=".4"/><path d="M383,-153L386,-162L393,-173L396,-192L391,-200L390,-223L395,-240L403,-239L406,-246L403,-253L415,-280L423,-302L428,-317L436,-317L438,-328L453,-325L454,-339L459,-340L470,-329L482,-315L482,-284L485,-276L471,-270L464,-257L465,-246L452,-231L437,-216L431,-193L437,-181L444,-172L437,-155L429,-151L426,-126L421,-113L412,-114L407,-103L398,-102L396,-115L389,-132Z" fill="#E0E0E0" stroke="#fff" stroke-width=".4"/><path d="M519,-114L527,-110L528,-106L532,-108L540,-105L541,-98L539,-95L544,-86L547,-83L547,-81L552,-78L554,-75L551,-72L545,-72L543,-71L545,-67L547,-59L540,-58L538,-55L537,-49L534,-50L527,-49L525,-52L522,-50L519,-52L513,-52L504,-55L496,-56L490,-56L486,-52L482,-52L482,-58L479,-64L484,-66L484,-71L482,-76L481,-82L489,-82L498,-87L500,-95L506,-99L505,-106L510,-108Z" fill="#E0E0E0" stroke="#fff" stroke-width=".4"/><path d="M547,-59L550,-58L552,-61L554,-60L563,-62L568,-54L566,-52L566,-48L573,-47L576,-42L575,-39L585,-35L591,-37L596,-31L601,-31L613,-27L613,-24L609,-17L611,-11L610,-7L602,-6L598,-3L598,2L592,3L586,7L579,8L572,12L573,18L571,18L570,16L568,15L562,13L560,15L559,14L547,11L546,7L539,9L536,15L530,23L526,21L523,23L519,21L521,20L522,16L525,12L524,10L526,9L526,11L531,11L533,10L532,9L532,7L529,5L528,-0L525,-2L526,-6L522,-9L519,-10L513,-14L508,-12L506,-11L503,-11L501,-8L495,-7L492,-5L489,-8L484,-8L479,-9L475,-7L475,-10L470,-13L472,-18L474,-21L476,-20L474,-26L481,-36L485,-37L486,-41L482,-52L486,-52L490,-56L496,-56L504,-55L513,-52L519,-52L522,-50L525,-52L527,-49L534,-50L537,-49L538,-55L540,-58Z" fill="#E0E0E0" stroke="#fff" stroke-width=".4"/><path d="M481,-82L482,-76L484,-71L484,-66L479,-64L482,-58L482,-52L486,-41L485,-37L481,-36L474,-26L476,-20L474,-21L467,-26L461,-24L457,-25L453,-23L449,-27L445,-25L445,-26L441,-32L435,-33L435,-37L429,-38L428,-35L424,-37L424,-41L418,-42L415,-46L411,-54L412,-58L410,-65L407,-70L409,-74L407,-80L413,-84L425,-90L435,-95L443,-93L444,-89L451,-89L461,-88L476,-88L480,-87Z" fill="#E0E0E0" stroke="#fff" stroke-width=".4"/><path d="M430,-9L429,-5L425,-5L427,-2L424,5L422,7L415,8L411,10L405,9L394,6L392,2L384,4L383,7L378,5L374,5L371,2L372,-0L372,-2L374,-3L378,0L379,-3L386,-2L392,-5L396,-4L398,-2L399,-4L398,-11L400,-13L403,-18L409,-15L414,-20L416,-20L423,-17L426,-17L430,-15L429,-14Z" fill="#E0E0E0" stroke="#fff" stroke-width=".4"/><path d="M470,-13L475,-10L475,-7L471,-4L467,4L462,12L456,14L451,13L445,16L442,18L435,16L429,11L427,9L425,6L424,5L427,-2L425,-5L429,-5L430,-9L434,-6L437,-5L444,-7L444,-9L447,-9L451,-11L452,-10L456,-12L458,-15L460,-15L469,-12Z" fill="#E0E0E0" stroke="#fff" stroke-width=".4"/><path d="M506,-11L508,-12L513,-14L519,-10L522,-9L526,-6L525,-2L528,-0L529,5L532,7L532,9L533,10L531,11L526,11L526,9L524,10L525,12L522,16L521,20L519,21L518,16L518,11L518,6L514,-1L511,-6L509,-9Z" fill="#E0E0E0" stroke="#fff" stroke-width=".4"/><path d="M519,21L523,23L526,21L530,23L530,26L526,28L524,27L522,41L517,40L511,36L502,38L498,41L486,40L480,39L477,39L475,35L473,33L475,31L473,30L471,32L466,29L466,24L461,22L460,18L456,14L462,12L467,4L471,-4L475,-7L479,-9L484,-8L489,-8L492,-5L495,-7L501,-8L503,-11L506,-11L509,-9L511,-6L514,-1L518,6L518,11L518,16Z" fill="#E0E0E0" stroke="#fff" stroke-width=".4"/><path d="M505,-106L506,-99L500,-95L498,-87L489,-82L481,-82L480,-87L476,-88L475,-91L476,-95L472,-97L464,-100L462,-112L471,-116L485,-115L492,-116L493,-113L498,-113Z" fill="#E0E0E0" stroke="#fff" stroke-width=".4"/><path d="M512,-132L515,-129L516,-122L519,-114L510,-108L505,-106L498,-113L493,-113L492,-116L485,-115L471,-116L462,-112L463,-122L466,-131L474,-136L480,-126L487,-126L488,-137L495,-140L498,-138L505,-132Z" fill="#E0E0E0" stroke="#fff" stroke-width=".4"/><path d="M517,-163L518,-160L513,-151L515,-137L512,-132L505,-132L498,-138L495,-140L488,-137L489,-146L486,-144L481,-149L480,-158L490,-162L500,-165L509,-162Z" fill="#E0E0E0" stroke="#fff" stroke-width=".4"/><path d="M407,-80L409,-74L407,-70L410,-65L412,-58L411,-54L415,-46L411,-45L409,-46L407,-44L401,-41L398,-38L393,-35L394,-32L395,-27L399,-24L403,-18L400,-13L398,-11L399,-4L398,-2L396,-4L392,-5L386,-2L379,-3L378,0L374,-3L372,-2L363,-6L362,-3L355,-4L356,-12L360,-20L348,-22L345,-26L345,-31L344,-34L344,-42L343,-55L348,-55L350,-60L352,-72L350,-77L352,-79L359,-80L360,-77L365,-84L364,-89L363,-97L369,-95L374,-97L374,-92L382,-88L382,-84L390,-86L395,-90L404,-85Z" fill="#E0E0E0" stroke="#fff" stroke-width=".4"/><path d="M475,35L477,39L480,39L486,40L498,41L502,38L511,36L517,40L522,41L517,45L515,53L517,59L510,58L502,61L502,66L495,67L489,64L483,66L477,66L477,59L473,56L474,54L473,53L475,50L478,46L474,41L473,37Z" fill="#E0E0E0" stroke="#fff" stroke-width=".4"/><path d="M504,127L503,130L491,131L491,129L482,127L483,123L488,126L494,126L500,127L499,128ZM477,66L483,66L489,64L495,67L502,66L502,61L506,64L504,70L502,72L497,71L493,70L483,73L489,79L485,81L480,81L476,75L475,77L476,84L480,88L477,91L482,95L486,98L486,104L479,101L481,106L476,107L479,116L474,116L467,112L464,104L463,97L460,93L456,87L455,84L459,79L459,76L462,74L462,71L467,70L470,68L474,68L476,67Z" fill="#E0E0E0" stroke="#fff" stroke-width=".4"/><path d="M650,109L646,110L643,108L634,107L631,108L622,110L617,110L608,113L602,113L598,111L589,114L586,112L586,118L584,120L582,122L579,118L582,114L577,115L570,112L565,118L553,119L546,114L538,114L536,118L531,119L523,114L514,114L510,104L504,98L508,91L503,86L511,76L524,75L527,67L542,69L552,62L561,59L574,59L588,66L599,70L608,69L615,70L624,64L633,64L640,69L642,72L641,78L647,80L650,83L645,86L647,98L645,101ZM502,61L510,58L517,59L518,63L525,67L524,69L514,70L511,73L504,79L502,74L502,72L504,70L506,64Z" fill="#E0E0E0" stroke="#fff" stroke-width=".4"/><path d="M462,71L462,74L459,76L459,79L455,84L454,83L454,81L449,78L449,73L449,65L450,62L449,60L448,57L452,52L452,54L454,53L456,56L458,57L459,61L458,64L459,69Z" fill="#E0E0E0" stroke="#fff" stroke-width=".4"/><path d="M427,9L429,11L435,16L442,18L445,16L447,21L449,24L446,28L442,26L437,26L430,24L427,24L425,26L422,24L420,28L424,34L426,37L430,41L433,44L436,48L443,52L442,54L434,50L430,46L422,43L416,35L417,34L414,29L414,26L409,24L406,29L404,25L404,21L404,21L410,21L411,19L414,21L417,21L417,18L420,17L420,12Z" fill="#E0E0E0" stroke="#fff" stroke-width=".4"/><path d="M372,-2L372,-0L371,2L374,5L378,5L378,10L374,12L368,10L367,15L363,15L362,13L357,17L353,18L350,15L347,10L343,12L344,7L349,0L349,-3L353,-2L355,-4L362,-3L363,-6Z" fill="#E0E0E0" stroke="#fff" stroke-width=".4"/><path d="M344,-34L345,-31L345,-26L342,-25L341,-26L342,-33Z" fill="#E0E0E0" stroke="#fff" stroke-width=".4"/><path d="M344,-42L344,-34L342,-33L341,-26L334,-32L330,-31L324,-37L320,-42L317,-42L316,-46L322,-49L328,-48L335,-51L340,-45Z" fill="#E0E0E0" stroke="#fff" stroke-width=".4"/><path d="M350,-77L352,-72L350,-60L348,-55L343,-55L344,-42L340,-45L335,-51L328,-48L322,-49L326,-52L333,-71L344,-77Z" fill="#E0E0E0" stroke="#fff" stroke-width=".4"/><path d="M224,60L227,58L230,56L232,61L237,61L238,60L243,60L245,66L242,69L242,77L240,78L240,83L237,84L240,90L237,97L240,100L239,102L236,106L237,109L234,112L230,111L225,112L227,104L226,98L222,97L220,93L221,86L224,83L225,78L226,72L226,68L225,64Z" fill="#E0E0E0" stroke="#fff" stroke-width=".4"/><path d="M237,109L236,106L239,102L240,100L237,97L240,90L237,84L240,83L240,78L242,77L242,69L245,66L243,60L238,60L237,61L232,61L230,56L227,58L224,60L225,53L222,48L233,40L242,42L253,42L261,44L268,44L281,44L284,48L298,53L301,51L310,56L319,54L320,60L312,67L302,70L302,73L297,79L294,87L297,93L292,98L290,104L284,106L279,114L269,114L261,114L256,117L253,121L249,120L246,117L244,111Z" fill="#E0E0E0" stroke="#fff" stroke-width=".4"/><path d="M247,-82L248,-72L242,-61L228,-53L217,-55L223,-68L219,-82L230,-93L236,-99L238,-92L236,-84L241,-85Z" fill="#E0E0E0" stroke="#fff" stroke-width=".4"/><path d="M942,366L941,374L938,377L931,378L927,372L926,361L929,348L935,352L939,358Z" fill="#E0E0E0" stroke="#fff" stroke-width=".4"/><path d="M1161,279L1155,277L1155,270L1159,266L1167,263L1172,264L1173,267L1170,271L1168,275ZM930,55L930,49L935,46L928,27L944,23L948,20L953,-0L969,4L974,-2L974,-13L980,-15L986,-23L990,-24L992,-15L998,-9L1010,-4L1015,5L1012,18L1015,23L1024,25L1035,27L1044,34L1049,35L1053,45L1058,51L1066,51L1083,54L1093,52L1101,54L1113,60L1122,60L1126,63L1135,58L1148,54L1160,54L1169,50L1174,44L1180,40L1179,37L1176,32L1180,25L1185,26L1193,29L1201,23L1213,18L1219,11L1224,7L1236,6L1242,7L1243,3L1236,-5L1229,-9L1223,-4L1215,-6L1211,-5L1209,-10L1214,-22L1218,-31L1228,-26L1239,-34L1239,-39L1246,-53L1250,-57L1250,-64L1246,-67L1252,-74L1262,-76L1273,-76L1285,-72L1292,-68L1296,-54L1299,-49L1302,-41L1305,-29L1319,-25L1328,-17L1331,-6L1343,-6L1350,-10L1363,-14L1359,-3L1356,1L1353,14L1348,25L1338,23L1332,27L1334,36L1333,49L1329,49L1329,55L1324,49L1320,55L1308,59L1309,65L1303,64L1299,61L1293,69L1285,74L1278,81L1267,84L1261,89L1253,91L1257,87L1255,83L1262,76L1258,70L1251,74L1242,81L1237,88L1229,88L1225,93L1229,100L1236,102L1236,106L1242,109L1251,102L1258,106L1263,106L1264,111L1253,114L1250,119L1242,124L1238,131L1246,136L1249,146L1254,154L1260,161L1260,168L1255,171L1256,176L1261,178L1260,186L1258,193L1253,194L1248,203L1241,215L1234,225L1223,233L1212,241L1203,242L1198,245L1196,243L1191,247L1180,251L1172,252L1169,261L1165,262L1163,256L1164,252L1154,250L1150,251L1142,249L1138,245L1140,241L1132,239L1129,236L1122,240L1114,241L1108,241L1104,243L1099,245L1101,254L1096,254L1096,252L1096,249L1090,251L1086,250L1080,246L1083,239L1078,238L1076,230L1068,231L1068,221L1076,213L1076,206L1076,199L1073,197L1070,192L1065,193L1057,191L1059,187L1056,182L1050,186L1043,183L1034,189L1027,196L1021,197L1017,195L1013,194L1008,192L1003,195L998,201L997,194L993,196L983,195L974,193L968,189L962,187L959,183L955,182L947,176L940,173L937,175L926,169L918,163L916,153L922,154L922,149L919,144L920,136L911,125L898,121L896,114L890,109L889,106L887,101L888,97L883,94L880,95L878,86L881,84L879,81L887,76L892,74L901,76L904,69L914,68L917,64L929,58Z" fill="#E0E0E0" stroke="#fff" stroke-width=".4"/><path d="M378,5L383,7L384,4L392,2L394,6L405,9L404,15L406,20L400,18L393,22L394,28L393,31L395,37L403,42L407,51L416,60L422,60L424,62L421,64L429,68L434,71L441,76L442,78L440,82L436,77L429,76L426,82L432,86L431,91L427,92L423,101L420,101L420,98L421,93L423,91L420,85L418,80L414,78L412,74L407,72L404,68L398,67L392,62L384,55L379,49L376,38L373,37L366,34L362,35L358,40L355,41L355,36L351,35L349,26L352,23L350,18L350,15L353,18L357,17L362,13L363,15L367,15L368,10L374,12L378,10ZM413,99L419,98L416,106L417,109L415,114L409,110L405,109L394,104L395,99L404,100ZM365,71L369,68L373,75L372,89L369,88L365,91L362,89L362,76L360,70Z" fill="#E0E0E0" stroke="#fff" stroke-width=".4"/><path d="M374,-97L369,-95L363,-97L360,-104L360,-119L361,-123L363,-127L370,-128L373,-132L379,-136L379,-129L377,-124L378,-120L382,-118L380,-112L378,-114L372,-104ZM394,-113L396,-106L391,-94L383,-102L382,-108Z" fill="#E0E0E0" stroke="#fff" stroke-width=".4"/><path d="M247,-82L241,-85L236,-84L238,-92L236,-99L243,-100L251,-91ZM271,-76L271,-76L272,-83L267,-92L267,-92L257,-94L256,-98L258,-104L256,-108L252,-101L251,-115L247,-122L250,-137L256,-150L263,-148L272,-150L264,-134L272,-136L280,-135L278,-124L271,-111L279,-110L280,-108L287,-92L292,-90L297,-75L300,-69L309,-67L308,-59L304,-55L307,-48L300,-42L290,-42L276,-38L272,-41L267,-35L260,-36L254,-32L250,-34L262,-47L269,-50L269,-50L256,-52L254,-57L262,-61L258,-68L260,-77Z" fill="#E0E0E0" stroke="#fff" stroke-width=".4"/><path d="M663,61L665,61L670,67L674,68L675,65L680,61L684,67L688,74L692,75L694,77L688,78L686,86L685,90L682,92L682,97L680,98L675,92L678,87L676,84L673,85L663,93L663,86L660,84L656,81L659,78L654,74L656,72L653,70L651,67L653,65L659,68L663,69L665,68L661,62ZM661,93L655,92L651,87L650,83L652,83L654,86L657,86L657,87Z" fill="#E0E0E0" stroke="#fff" stroke-width=".4"/><path d="M612,44L613,42L619,44L631,46L642,51L643,53L648,52L655,54L658,58L663,61L661,62L665,68L663,69L659,68L653,65L651,67L640,69L633,64L624,64L626,60L624,52L619,48L615,47Z" fill="#E0E0E0" stroke="#fff" stroke-width=".4"/><path d="M405,9L411,10L415,8L422,7L424,5L425,6L427,9L420,12L420,17L417,18L417,21L414,21L411,19L410,21L404,21L406,20L404,15Z" fill="#E0E0E0" stroke="#fff" stroke-width=".4"/><path d="M522,-339L521,-324L533,-310L526,-294L535,-272L529,-256L536,-242L533,-230L545,-218L542,-210L535,-200L518,-179L503,-178L489,-172L477,-168L472,-177L464,-182L466,-199L462,-214L466,-224L473,-235L491,-255L497,-259L496,-267L485,-276L482,-284L482,-315L470,-329L459,-340L464,-346L473,-334L483,-335L491,-330L499,-340L503,-356L515,-364L525,-355Z" fill="#E0E0E0" stroke="#fff" stroke-width=".4"/><path d="M474,-21L472,-18L470,-13L469,-12L460,-15L458,-15L456,-12L452,-10L451,-11L447,-9L444,-9L444,-7L437,-5L434,-6L430,-9L429,-14L430,-15L431,-18L435,-18L437,-19L437,-20L439,-20L439,-23L441,-24L443,-26L445,-26L445,-25L449,-27L453,-23L457,-25L461,-24L467,-26Z" fill="#E0E0E0" stroke="#fff" stroke-width=".4"/><path d="M415,-46L418,-42L424,-41L424,-37L428,-35L429,-38L435,-37L435,-33L441,-32L445,-26L443,-26L441,-24L439,-23L439,-20L437,-20L437,-19L435,-18L431,-18L430,-15L426,-17L423,-17L416,-20L414,-20L409,-15L403,-18L399,-24L395,-27L394,-32L393,-35L398,-38L401,-41L407,-44L409,-46L411,-45Z" fill="#E0E0E0" stroke="#fff" stroke-width=".4"/><path d="M584,310L583,307L586,295L587,290L590,287L595,286L599,281L604,291L606,298L611,302L621,310L626,315L630,319L633,322L636,324L634,326L631,326L628,323L625,318L621,316L619,313L612,310L607,310L605,308L600,310L595,306L593,312Z" fill="#E0E0E0" stroke="#fff" stroke-width=".4"/><path d="M707,273L713,286L716,292L710,294L708,298L708,301L700,304L688,308L681,314L677,314L675,314L670,317L665,319L659,319L657,320L655,322L653,322L651,324L648,324L645,325L640,325L638,320L638,316L636,313L635,307L633,304L634,304L633,300L634,298L634,295L637,292L637,289L639,284L642,287L644,286L653,286L655,287L662,287L665,287L667,290L671,288L677,280L684,276Z" fill="#E0E0E0" stroke="#fff" stroke-width=".4"/><path d="M572,183L581,184L584,181L586,178L592,177L594,174L596,172L588,163L604,158L606,157L615,159L627,166L649,184L664,185L671,186L673,190L679,190L682,198L686,200L687,203L692,207L693,210L692,213L693,216L695,219L696,221L698,224L700,225L702,225L704,228L704,230L707,239L731,243L732,241L736,247L731,264L707,273L684,276L677,280L671,288L667,290L665,287L662,287L655,287L653,286L644,286L642,287L639,284L637,289L637,292L634,295L633,291L631,289L630,285L626,282L622,275L619,269L614,263L610,261L605,253L604,247L605,242L600,233L596,229L592,228L590,223L590,221L588,216L585,214L582,208L578,201L574,194L570,194L571,190L571,186Z" fill="#E0E0E0" stroke="#fff" stroke-width=".4"/><path d="M555,129L555,129L556,126L562,126L569,123L564,128L564,129L564,129L562,130L561,130L560,130L560,129L560,128L558,128L556,129Z" fill="#E0E0E0" stroke="#fff" stroke-width=".4"/><path d="M555,129L556,129L558,128L560,128L560,129L560,130L561,130L562,130L564,129L564,129L565,130L557,134L553,133L551,129Z" fill="#E0E0E0" stroke="#fff" stroke-width=".4"/><path d="M279,128L282,135L282,140L285,150L287,152L285,156L275,158L272,161L267,162L267,169L257,172L254,177L248,179L240,181L227,187L227,198L226,198L226,203L221,203L219,205L215,205L212,204L206,205L203,212L201,212L197,223L186,233L183,245L180,249L179,252L161,252L161,252L162,248L165,246L167,242L167,239L169,233L174,227L176,226L179,221L179,216L182,210L187,207L192,198L192,198L196,195L203,194L210,187L214,185L220,177L218,166L221,158L222,153L227,147L235,142L241,139L246,129L249,123L255,123L259,127L267,126L275,128Z" fill="#E0E0E0" stroke="#fff" stroke-width=".4"/><path d="M587,247L556,247L525,247L493,247L493,216L493,184L491,176L493,171L492,167L495,162L505,162L513,165L521,167L524,169L530,166L534,163L541,163L546,164L548,168L550,165L557,167L563,168L567,166L571,179L572,181L570,185L568,192L566,197L564,198L561,195L558,191L552,178L551,179L555,189L559,198L565,211L568,216L571,221L578,231L576,232L577,238L586,246Z" fill="#E0E0E0" stroke="#fff" stroke-width=".4"/><path d="M674,362L651,386L641,386L634,392L629,392L627,395L621,395L618,392L611,395L609,399L603,398L602,397L600,397L597,397L587,391L582,391L579,388L579,383L575,382L570,373L567,372L565,368L561,365L556,364L559,359L563,359L564,357L564,350L567,341L570,339L571,336L575,329L579,325L583,317L584,310L593,312L595,306L600,310L605,308L607,310L612,310L619,313L621,316L625,318L628,323L631,326L628,329L625,333L626,335L626,338L630,338L632,337L634,339L632,342L635,346L638,350L641,353L667,362Z" fill="#E0E0E0" stroke="#fff" stroke-width=".4"/><path d="M631,326L634,326L636,324L638,327L638,330L634,332L637,334L634,339L632,337L630,338L626,338L626,335L625,333L628,329Z" fill="#E0E0E0" stroke="#fff" stroke-width=".4"/><path d="M683,335L683,335L683,338L683,346L683,351L679,356L674,362L667,362L641,353L638,350L635,346L632,342L634,339L637,334L640,336L641,339L645,343L649,343L656,341L665,340L672,337L675,337L678,335Z" fill="#E0E0E0" stroke="#fff" stroke-width=".4"/><path d="M564,433L548,434L539,434L536,435L532,437L530,436L530,430L532,427L532,421L534,417L537,413L540,411L542,408L539,407L540,398L543,396L548,398L554,396L560,396L565,392L568,398L569,402L573,411L570,416L566,422L564,425Z" fill="#E0E0E0" stroke="#fff" stroke-width=".4"/><path d="M536,435L539,439L539,444L537,445L533,444L530,449L525,448L526,444L527,443L527,439L530,436L532,437Z" fill="#E0E0E0" stroke="#fff" stroke-width=".4"/><path d="M443,52L436,48L433,44L430,41L426,37L424,34L420,28L422,24L425,26L427,24L430,24L437,26L442,26L446,28L449,28L447,33L451,37L450,42L448,43L446,44L444,46Z" fill="#E0E0E0" stroke="#fff" stroke-width=".4"/><path d="M473,56L477,59L477,66L476,67L474,68L470,68L467,70L462,71L459,69L458,64L459,61L460,61L460,59L465,57L466,57L469,56Z" fill="#E0E0E0" stroke="#fff" stroke-width=".4"/><path d="M445,16L451,13L456,14L460,18L461,22L466,24L466,29L471,32L473,30L475,31L473,33L475,35L473,37L474,41L478,46L475,50L473,53L474,54L473,56L469,56L466,57L466,56L467,54L468,52L467,52L465,50L464,49L463,48L461,47L460,45L459,46L458,50L456,50L457,50L454,47L451,46L450,45L448,43L450,42L451,37L447,33L449,28L446,28L449,24L447,21Z" fill="#E0E0E0" stroke="#fff" stroke-width=".4"/><path d="M454,53L452,54L452,52L448,57L449,60L447,60L445,56L442,54L443,52L444,46L446,44L448,43L450,45L451,46L454,47L457,50L456,50Z" fill="#E0E0E0" stroke="#fff" stroke-width=".4"/><path d="M459,61L458,57L456,56L454,53L456,50L458,50L459,46L460,45L461,47L463,48L464,49L465,50L467,52L468,52L467,54L466,56L466,57L465,57L460,59L460,61Z" fill="#E0E0E0" stroke="#fff" stroke-width=".4"/><path d="M-192,340L-187,339L-186,339L-186,345L-193,346L-194,346L-192,343Z" fill="#E0E0E0" stroke="#fff" stroke-width=".4"/><path d="M540,398L533,393L531,389L526,391L523,390L521,392L517,391L512,384L511,382L505,379L503,374L500,370L494,366L494,364L490,360L485,357L487,356L490,355L492,348L494,344L500,343L501,345L505,350L507,351L510,349L516,349L517,351L525,351L525,349L529,348L530,346L533,344L540,349L544,348L548,342L552,338L551,333L549,330L554,330L555,328L558,329L557,335L558,340L562,344L563,346L563,350L564,351L564,357L563,359L559,359L556,364L561,365L565,368L567,372L570,373L575,382L570,387L565,392L560,396L554,396L548,398L543,396Z" fill="#E0E0E0" stroke="#fff" stroke-width=".4"/></g><g clip-path="url(#v)"><path d="M371.1,174.8L372.0,174.3L373.3,173.7L374.0,173.3L374.3,173.0L375.3,171.6L375.8,170.8L376.6,169.7L376.9,168.9L376.9,168.2L376.8,167.4L376.2,165.4L375.8,163.4L376.1,162.7L376.4,162.3L377.0,161.4L377.3,161.2L378.6,160.9L379.1,160.3L379.6,159.5L379.7,159.1L380.3,158.7L381.0,158.2L381.4,157.7L382.8,156.8L384.1,156.0L385.6,155.2L386.7,154.6L387.0,154.0L387.0,153.5L386.4,152.4L386.4,151.1L386.4,150.0L386.5,149.4L386.7,147.6L386.7,147.3L388.0,147.9L389.2,148.2L392.9,150.4L394.0,150.7L396.6,150.9L399.7,150.0L400.8,149.9L402.8,150.7L403.7,151.0L405.2,151.0L407.7,151.8L408.4,152.1L409.8,153.3L410.5,153.7L415.8,154.8L416.5,155.5L417.2,156.9L417.3,158.7L417.7,160.0L418.3,161.6L419.1,162.8L420.0,163.8L421.0,164.4L423.3,165.3L425.9,165.6L428.5,165.7L433.0,166.9L436.8,168.4L437.7,169.1L439.6,169.8L443.4,173.1L445.5,174.2L447.0,174.4L448.3,174.2L450.7,173.1L451.6,172.4L454.0,169.5L454.8,168.0L455.1,167.0L455.0,165.9L454.7,164.9L454.1,163.9L453.6,162.6L453.4,160.1L453.7,158.4L454.2,157.4L454.9,156.4L456.9,154.4L458.8,153.0L462.3,151.2L464.3,151.1L465.2,151.0L466.8,149.6L467.5,149.6L468.5,149.9L471.2,149.8L472.4,150.2L473.9,151L475.7,151.5L477.0,152.0L478.3,152.6L478.7,154.2L478.5,154.7L478.5,155.3L479.9,156.4L483.9,157.0L484.7,157.2L485.9,158.1L486.6,158.3L489.3,158.5L491.0,158.3L492.5,158.6L493.1,158.9L493.7,159.5L494.4,161.1L494.7,161.6L494.3,161.9L493.9,162.5L493.6,162.9L492.9,163.8L492.3,164.6L492.3,165.9L492.5,167.1L492.9,168.4L493.3,169.8L493.1,170.7L492.8,171.8L492.5,172.7L491.3,174.6L491.1,175.0L491.2,175.7L491.9,177.9L491.9,178.6L492.4,180.8L492.8,182.6L493.2,183.9L493.3,184.3L493.3,186.4L493.3,188.4L493.3,190.4L493.3,192.4L493.3,194.4L493.3,196.4L493.3,198.4L493.3,200.4L493.3,202.5L493.3,204.4L493.3,206.4L493.3,208.4L493.3,210.4L493.3,212.4L493.3,214.4L493.3,216.3L493.3,218.3L493.3,220.3L493.3,222.2L493.3,224.2L493.3,226.1L493.3,228.1L493.3,230.0L493.3,232.0L493.3,233.9L493.3,235.8L493.3,237.8L493.3,239.7L493.3,241.6L493.3,243.5L493.3,245.5L493.3,247.4L493.3,251.6L493.3,255.8L493.3,260.1L493.3,264.3L493.3,264.3L493.2,264.3L493.2,264.3L493.2,264.3L491.2,264.3L489.3,264.3L487.3,264.3L485.4,264.3L485.4,265.4L485.4,266.4L485.4,267.5L485.4,268.5L481.6,266.5L477.8,264.5L474.0,262.5L470.2,260.6L466.4,258.5L462.7,256.5L458.9,254.5L455.1,252.5L451.3,250.5L447.5,248.5L443.7,246.5L439.9,244.5L436.2,242.4L432.4,240.4L428.6,238.4L424.8,236.4L422.2,234.9L419.3,236.3L417.1,237.4L414.2,238.8L410.9,240.7L408.3,242.0L408.2,242.0L408.1,242.0L405.4,239.6L403.3,237.8L402.4,237.2L398.4,236.3L394.5,235.3L390.4,234.3L389.7,232.8L388.8,231.1L387.7,228.9L387.0,227.6L386.8,227.4L383.6,226.4L380.3,225.4L378.3,226.0L378.0,226.0L377.4,225.6L376.9,225.0L376.6,224.3L375.8,223.3L375.1,221.0L375.0,219.2L374.9,218.6L373.1,216.0L371.5,213.7L370.5,212.1L370.3,211.4L370.4,210.5L370.8,209.8L372.4,208.8L373.7,207.8L373.9,207.1L374.0,205.2L373.6,204.6L373.2,203.5L372.9,201.9L372.9,200.9L373.5,199.0L374.2,196.9L373.7,194.6L373.4,189.9L373.6,186.3L373.4,184.9L373.3,184.4L372.9,182.6L372.3,180.8L372.0,180.2L371.3,178.7L370.0,176.9L369.4,175.8L370.3,175.2Z" fill="#4ECDC4" stroke="#2C3E50" stroke-width="1"/></g><circle cx="400.0" cy="150.0" r="4" fill="#E74C3C" stroke="#fff" stroke-width="2"/><text x="400.0" y="140.0" text-anchor="middle" font-family="sans-serif" font-weight="700" font-size="10" fill="#2D3436">Tripoli</text></svg>