<svg viewBox="0 0 800 300" xmlns="http://www.w3.org/2000/svg"><defs><clipPath id="v"><rect width="800" height="300"/></clipPath></defs><rect width="800" height="300" fill="#DCEEF8"/><g clip-path="url(#v)"><path d="M1067,-291L1062,-249L1023,-248L1036,-226L1013,-160L1000,-143L939,-140L904,-117L846,-125L746,-151L730,-187L661,-169L653,-150L611,-164L575,-167L544,-186L554,-211L552,-229L573,-235L608,-206L618,-233L680,-229L730,-248L763,-244L785,-223L791,-241L781,-309L807,-322L831,-371L883,-337L922,-380L947,-388L1001,-356L1034,-361L1066,-341L1060,-328Z" fill="#E0E0E0" stroke="#fff" stroke-width=".4"/><path d="M1038,-124L1061,-112L1113,-69L1170,-49L1197,-65L1213,-26L1236,3L1209,40L1177,18L1129,19L1069,3L1036,5L1021,26L996,3L981,44L1016,90L1031,120L1063,156L1090,177L1116,217L1178,253L1170,269L1104,234L1064,200L1000,171L941,100L956,93L924,52L922,18L877,3L856,45L835,12L837,-22L839,-24L888,-20L901,-37L925,-21L952,-19L952,-47L976,-57L983,-98Z" fill="#E0E0E0" stroke="#fff" stroke-width=".4"/><path d="M552,-229L554,-211L544,-186L575,-167L611,-164L605,-122L575,-105L523,-118L508,-77L475,-74L463,-90L423,-56L390,-51L360,-73L336,-117L302,-101L304,-147L355,-205L352,-231L384,-221L403,-239L463,-238L477,-261Z" fill="#E0E0E0" stroke="#fff" stroke-width=".4"/><path d="M-638,759L-644,730L-618,697L-609,673L-633,646L-614,588L-641,533L-611,526L-608,483L-597,470L-596,398L-564,373L-584,326L-624,322L-636,334L-677,334L-695,288L-723,302L-749,326L-745,259L-774,218L-675,148L-590,166L-496,165L-421,182L-364,176L-251,180L-223,217L-95,260L-69,240L10,282L90,270L94,325L28,387L-61,407L-68,438L-111,488L-137,562L-110,614L-151,654L-166,711L-218,729L-268,796L-356,797L-423,796L-467,826L-493,859L-528,852L-553,823L-573,773Z" fill="#E0E0E0" stroke="#fff" stroke-width=".4"/><path d="M611,-164L653,-150L661,-169L730,-187L746,-151L846,-125L838,-75L855,-33L799,-47L743,-12L746,37L738,65L761,115L826,164L862,243L939,319L994,318L1011,339L991,358L1054,391L1105,419L1165,467L1172,484L1159,517L1120,474L1060,459L1030,518L1081,552L1072,599L1043,604L1006,681L977,688L977,660L991,613L1007,593L979,541L958,495L929,484L909,444L864,428L833,391L782,385L727,342L663,281L616,227L594,132L559,120L503,88L470,101L430,146L401,153L409,111L371,99L353,23L377,-7L357,-44L360,-73L390,-51L423,-56L463,-90L475,-74L508,-77L523,-118L575,-105L605,-122ZM913,667L966,659L940,729L951,756L936,801L883,768L847,758L750,714L760,668L841,676ZM490,417L525,389L567,454L557,574L525,569L497,599L470,575L468,465L452,413Z" fill="#E0E0E0" stroke="#fff" stroke-width=".4"/><path d="M846,-125L904,-117L939,-140L1000,-143L1013,-160L1025,-159L1038,-124L983,-98L976,-57L952,-47L952,-19L925,-21L901,-37L888,-20L839,-24L855,-33L838,-75Z" fill="#E0E0E0" stroke="#fff" stroke-width=".4"/><path d="M1178,253L1116,217L1090,177L1063,156L1031,120L1016,90L981,44L996,3L1021,26L1036,5L1069,3L1129,19L1177,18L1209,40L1234,39L1217,83L1250,120L1240,166L1224,170L1211,179L1188,201Z" fill="#E0E0E0" stroke="#fff" stroke-width=".4"/></g><g clip-path="url(#v)"><path d="M401.4,148.1L397.1,149.8L397.3,147.8L398.3,146.6L399.6,146.1L401.1,146.9Z" fill="#4ECDC4" stroke="#2C3E50" stroke-width="1"/></g><circle cx="400.0" cy="150.0" r="4" fill="#E74C3C" stroke="#fff" stroke-width="2"/><text x="400.0" y="140.0" text-anchor="middle" font-family="sans-serif" font-weight="700" font-size="10" fill="#2D3436">Monaco</text></svg>