<svg viewBox="0 0 800 300" xmlns="http://www.w3.org/2000/svg"><defs><clipPath id="v"><rect width="800" height="300"/></clipPath></defs><rect width="800" height="300" fill="#DCEEF8"/><g clip-path="url(#v)"><path d="M2007,59L1986,87L1963,91L1962,132L1947,150L1892,137L1872,208L1858,217L1804,233L1829,299L1810,309L1812,330L1795,325L1781,311L1741,307L1695,306L1685,310L1646,295L1630,302L1626,325L1581,312L1563,317L1557,333L1541,340L1505,366L1493,392L1482,392L1475,375L1440,374L1434,344L1421,343L1423,306L1390,278L1343,281L1311,287L1285,252L1262,238L1219,210L1214,207L1144,230L1145,369L1131,370L1111,342L1093,331L1062,339L1049,351L1048,342L1055,327L1049,314L1018,301L1005,267L990,257L989,245L1016,248L1017,220L1040,214L1064,219L1069,181L1064,156L1037,158L1013,148L982,166L956,174L942,168L945,147L927,120L907,121L884,93L900,62L892,53L913,6L942,31L945,-0L1002,-48L1045,-49L1105,-18L1138,-1L1167,-19L1210,-20L1246,3L1254,-10L1292,-8L1299,-29L1255,-60L1281,-81L1276,-94L1302,-106L1282,-137L1295,-153L1398,-169L1411,-181L1480,-199L1505,-218L1554,-208L1563,-159L1591,-170L1627,-154L1624,-129L1651,-132L1719,-176L1709,-161L1745,-125L1806,-11L1820,-34L1858,-9L1898,-20L1913,-12L1926,13L1945,21L1957,39L1993,33Z" fill="#E0E0E0" stroke="#fff" stroke-width=".4"/><path d="M-1812,1503L-1828,1528L-1837,1548L-1847,1558L-1860,1560L-1864,1553L-1870,1551L-1879,1559L-1891,1553L-1884,1542L-1881,1529L-1876,1517L-1887,1501L-1889,1482L-1875,1458L-1866,1461L-1846,1468L-1817,1491ZM-223,49L-210,60L-170,68L-184,96L-188,125L-195,132L-208,128L-207,139L-227,161L-227,179L-214,173L-205,191L-206,202L-198,217L-207,228L-200,258L-185,263L-189,280L-213,301L-268,291L-308,303L-311,326L-343,330L-374,314L-384,322L-434,305L-445,290L-431,267L-426,190L-454,148L-474,127L-516,112L-519,81L-483,72L-437,83L-446,35L-420,54L-356,21L-348,-15L-324,-24L-320,-8L-307,-8L-294,10L-275,30L-261,27L-237,46L-231,50ZM-153,320L-135,306L-130,338L-139,366L-152,359L-158,334Z" fill="#E0E0E0" stroke="#fff" stroke-width=".4"/><path d="M941,755L926,738L926,721L917,721L922,697L908,673L874,655L855,624L861,598L875,586L873,566L855,556L837,515L822,488L828,477L819,436L838,426L842,440L856,456L875,461L885,460L917,434L927,431L936,441L926,459L943,477L950,475L959,501L985,508L1004,526L1043,532L1086,523L1089,514L1113,508L1132,488L1151,489L1163,482L1182,486L1213,503L1234,507L1266,538L1286,539L1289,567L1278,609L1270,633L1282,638L1270,656L1279,682L1281,703L1302,708L1304,729L1279,758L1293,774L1304,793L1330,807L1331,834L1344,839L1347,853L1307,869L1297,905L1245,896L1215,889L1184,885L1172,847L1159,842L1138,847L1110,862L1077,852L1049,828L1023,819L1004,790L984,747L969,753L952,742Z" fill="#E0E0E0" stroke="#fff" stroke-width=".4"/><path d="M885,460L875,461L864,440L864,435L852,435L843,425L838,426L827,416L806,407L809,389L804,376L843,371L848,380L859,387L853,396L868,408L860,420L872,429L884,435Z" fill="#E0E0E0" stroke="#fff" stroke-width=".4"/><path d="M381,-257L410,-244L414,-232L428,-238L455,-227L458,-204L452,-191L469,-160L480,-151L479,-143L497,-135L505,-123L495,-113L472,-114L467,-110L474,-95L480,-66L457,-63L448,-53L447,-31L436,-35L411,-33L404,-44L393,-36L383,-42L361,-43L331,-54L303,-57L282,-56L267,-44L254,-43L253,-62L245,-83L261,-92L261,-111L254,-128L252,-149L279,-148L309,-166L315,-193L338,-208L335,-230L352,-238Z" fill="#E0E0E0" stroke="#fff" stroke-width=".4"/><path d="M480,-66L491,-64L498,-74L506,-72L534,-76L552,-51L545,-42L547,-28L569,-26L579,-7L579,1L613,16L634,9L651,30L667,29L708,43L708,55L697,77L703,100L699,114L672,117L658,128L657,146L635,150L617,163L591,165L568,179L569,201L565,199L561,192L552,190L533,182L526,191L522,187L479,177L477,162L452,167L442,189L420,218L408,211L395,218L383,210L390,206L395,193L402,180L400,173L406,170L408,175L425,176L432,173L427,169L429,163L419,153L415,136L405,130L407,116L395,105L383,103L363,90L345,95L338,101L327,101L320,110L300,114L290,120L278,111L260,110L243,106L231,115L229,104L214,92L219,76L227,65L233,67L226,48L251,13L264,8L267,-4L254,-43L267,-44L282,-56L303,-57L331,-54L361,-43L383,-42L393,-36L404,-44L411,-33L436,-35L447,-31L448,-53L457,-63Z" fill="#E0E0E0" stroke="#fff" stroke-width=".4"/><path d="M252,-149L254,-128L261,-111L261,-92L245,-83L253,-62L254,-43L267,-4L264,8L251,13L226,48L233,67L227,65L201,48L181,54L168,50L152,59L138,44L127,50L125,47L112,26L92,24L89,10L71,6L67,17L52,8L53,-4L33,-8L20,-22L8,-50L11,-65L4,-89L-6,-106L1,-118L-5,-141L14,-155L57,-177L91,-193L119,-185L121,-173L147,-173L181,-167L232,-168L246,-163Z" fill="#E0E0E0" stroke="#fff" stroke-width=".4"/><path d="M74,105L72,121L56,122L61,130L52,156L47,163L23,164L9,173L-14,170L-53,160L-59,146L-86,153L-89,160L-106,155L-120,154L-132,146L-128,136L-129,129L-121,127L-107,138L-103,127L-79,129L-59,122L-46,123L-38,131L-35,125L-39,98L-29,93L-19,73L1,87L17,70L26,67L48,79L60,77L73,85L71,90Z" fill="#E0E0E0" stroke="#fff" stroke-width=".4"/><path d="M214,92L229,104L231,115L214,123L201,151L185,178L163,185L146,184L124,194L114,200L92,192L71,175L62,170L57,157L52,156L61,130L56,122L72,121L74,105L88,115L98,120L121,115L123,106L134,105L147,99L150,101L163,96L170,86L179,84L208,97Z" fill="#E0E0E0" stroke="#fff" stroke-width=".4"/><path d="M383,210L395,218L408,211L420,218L421,228L408,237L399,233L392,279L376,275L356,261L323,270L310,280L269,278L248,272L238,275L230,259L225,252L231,246L224,241L216,250L200,238L197,222L181,213L178,201L163,185L185,178L201,151L214,123L231,115L243,106L260,110L278,111L290,120L300,114L320,110L327,101L338,101L347,105L355,117L364,134L380,158L381,176L378,192Z" fill="#E0E0E0" stroke="#fff" stroke-width=".4"/><path d="M335,-230L338,-208L315,-193L309,-166L279,-148L252,-149L246,-163L232,-168L229,-180L232,-193L220,-201L191,-209L186,-250L217,-265L263,-262L290,-267L294,-257L309,-253Z" fill="#E0E0E0" stroke="#fff" stroke-width=".4"/><path d="M-5,-141L1,-118L-6,-106L4,-89L11,-65L8,-50L20,-22L7,-17L0,-22L-7,-14L-26,-6L-37,5L-57,15L-52,27L-49,45L-35,55L-19,73L-29,93L-39,98L-35,125L-38,131L-46,123L-59,122L-79,129L-103,127L-107,138L-121,127L-129,129L-159,117L-164,126L-188,125L-184,96L-170,68L-210,60L-223,49L-221,30L-227,21L-224,-9L-228,-55L-212,-55L-205,-72L-198,-113L-203,-129L-198,-138L-175,-141L-170,-131L-151,-154L-157,-171L-159,-198L-138,-192L-120,-199L-120,-181L-92,-170L-92,-153L-64,-162L-49,-175L-18,-156Z" fill="#E0E0E0" stroke="#fff" stroke-width=".4"/><path d="M230,259L238,275L248,272L269,278L310,280L323,270L356,261L376,275L392,279L377,295L367,322L376,343L353,338L325,350L324,368L299,371L280,359L258,369L238,368L236,343L222,331L227,326L224,322L228,310L239,298L225,282L223,268Z" fill="#E0E0E0" stroke="#fff" stroke-width=".4"/><path d="M329,579L326,589L286,592L287,586L253,580L258,565L273,577L295,575L315,577L314,583ZM238,368L258,369L280,359L299,371L324,368L325,350L338,359L329,382L323,386L306,385L292,382L259,391L278,412L264,417L248,417L234,399L229,407L235,428L249,445L238,453L254,469L267,479L268,499L242,489L250,507L233,511L243,541L225,542L202,527L192,499L187,476L177,460L163,440L161,429L174,412L175,400L184,395L185,386L203,382L213,374L228,375L232,369Z" fill="#E0E0E0" stroke="#fff" stroke-width=".4"/><path d="M837,515L824,521L814,513L782,508L771,513L739,519L725,518L693,531L670,531L656,525L625,534L616,528L615,547L608,554L600,562L590,546L601,533L584,536L561,528L542,548L500,552L478,534L448,532L442,547L423,551L397,532L367,533L350,499L330,479L344,452L326,435L357,401L399,399L410,372L463,377L496,353L528,342L573,342L621,368L661,382L693,376L716,379L749,360L778,359L804,376L809,389L806,407L827,416L838,426L819,436L828,477L822,488ZM325,350L353,338L376,343L380,357L404,369L399,378L366,380L354,391L331,411L323,394L323,386L329,382L338,359Z" fill="#E0E0E0" stroke="#fff" stroke-width=".4"/><path d="M185,386L184,395L175,400L174,412L161,429L156,427L156,419L140,407L138,390L140,365L144,353L139,348L138,336L149,318L151,325L159,321L164,331L171,335L173,348L169,361L173,377Z" fill="#E0E0E0" stroke="#fff" stroke-width=".4"/><path d="M62,170L71,175L92,192L114,200L124,194L131,209L140,220L129,235L117,226L98,227L74,220L61,221L55,229L46,220L40,237L53,255L59,266L72,281L82,289L93,305L117,319L114,325L88,312L72,298L47,287L24,259L30,256L17,240L17,227L-1,220L-10,237L-18,224L-17,211L-16,210L3,211L8,205L17,211L28,212L28,201L38,197L40,181Z" fill="#E0E0E0" stroke="#fff" stroke-width=".4"/><path d="M-129,129L-128,136L-132,146L-120,154L-106,155L-108,171L-120,178L-141,173L-147,189L-160,190L-164,184L-180,197L-193,199L-205,191L-214,173L-227,179L-227,161L-207,139L-208,128L-195,132L-188,125L-164,126L-159,117Z" fill="#E0E0E0" stroke="#fff" stroke-width=".4"/><path d="M-203,-129L-198,-113L-205,-72L-212,-55L-228,-55L-224,-9L-239,-19L-256,-38L-282,-29L-302,-32L-288,-44L-264,-111L-226,-130Z" fill="#E0E0E0" stroke="#fff" stroke-width=".4"/><path d="M-106,155L-89,160L-86,153L-59,146L-53,160L-14,170L-17,190L-10,206L-32,201L-54,215L-53,234L-56,245L-47,265L-21,284L-7,315L23,345L45,345L51,353L44,360L68,373L88,384L112,403L115,410L110,423L94,406L71,400L59,423L79,436L76,455L64,457L49,487L38,490L38,479L44,460L50,453L39,432L31,414L19,410L11,394L-7,388L-18,373L-39,371L-60,354L-85,330L-104,309L-113,271L-126,267L-149,254L-161,259L-177,277L-189,280L-185,263L-200,258L-207,228L-198,217L-206,202L-205,191L-193,199L-180,197L-164,184L-160,190L-147,189L-141,173L-120,178L-108,171ZM13,482L34,479L24,506L28,517L22,534L1,521L-13,518L-51,500L-48,482L-15,485ZM-154,383L-140,372L-123,398L-127,445L-140,443L-151,455L-161,446L-162,402L-169,382Z" fill="#E0E0E0" stroke="#fff" stroke-width=".4"/><path d="M-120,-199L-138,-192L-159,-198L-170,-225L-171,-275L-166,-289L-158,-304L-134,-307L-124,-321L-102,-335L-103,-309L-111,-293L-108,-279L-93,-271L-100,-253L-108,-258L-128,-223ZM-53,-254L-44,-229L-61,-190L-89,-217L-93,-238Z" fill="#E0E0E0" stroke="#fff" stroke-width=".4"/><path d="M882,348L890,350L909,372L921,374L925,365L942,350L956,370L970,395L983,397L992,407L969,410L964,437L959,450L949,458L950,475L943,477L926,459L936,441L927,431L917,434L885,460L884,435L872,429L860,420L868,408L853,396L859,387L848,380L843,371L849,365L870,375L885,378L888,373L875,353ZM875,461L856,456L842,440L838,426L843,425L852,435L864,435L864,440Z" fill="#E0E0E0" stroke="#fff" stroke-width=".4"/><path d="M705,290L708,285L731,291L772,298L809,316L814,323L831,317L856,325L865,340L882,348L875,353L888,373L885,378L870,375L849,365L843,371L804,376L778,359L749,360L753,345L746,319L730,305L715,301Z" fill="#E0E0E0" stroke="#fff" stroke-width=".4"/><path d="M-14,170L9,173L23,164L47,163L52,156L57,157L62,170L40,181L38,197L28,201L28,212L17,211L8,205L3,211L-16,210L-10,206L-17,190Z" fill="#E0E0E0" stroke="#fff" stroke-width=".4"/><path d="M227,65L219,76L214,92L208,97L179,84L170,86L163,96L150,101L147,99L134,105L123,106L121,115L98,120L88,115L74,105L71,90L73,85L77,76L89,77L99,72L99,68L105,66L106,57L113,55L117,47L125,47L127,50L138,44L152,59L168,50L181,54L201,48Z" fill="#E0E0E0" stroke="#fff" stroke-width=".4"/><path d="M20,-22L33,-8L53,-4L52,8L67,17L71,6L89,10L92,24L112,26L125,47L117,47L113,55L106,57L105,66L99,68L99,72L89,77L77,76L73,85L60,77L48,79L26,67L17,70L1,87L-19,73L-35,55L-49,45L-52,27L-57,15L-37,5L-26,-6L-7,-14L0,-22L7,-17Z" fill="#E0E0E0" stroke="#fff" stroke-width=".4"/><path d="M117,319L93,305L82,289L72,281L59,266L53,255L40,237L46,220L55,229L61,221L74,220L98,227L117,226L129,235L139,235L132,252L146,267L142,284L135,286L130,290L121,298Z" fill="#E0E0E0" stroke="#fff" stroke-width=".4"/><path d="M222,331L236,343L238,368L232,369L228,375L213,374L203,382L185,386L173,377L169,361L173,348L176,349L178,341L194,336L200,334L209,332Z" fill="#E0E0E0" stroke="#fff" stroke-width=".4"/><path d="M124,194L146,184L163,185L178,201L181,213L197,222L200,238L216,250L224,241L231,246L225,252L230,259L223,268L225,282L239,298L228,310L224,322L227,326L222,331L209,332L200,334L199,331L202,327L205,318L202,318L196,311L192,309L188,303L183,301L179,296L174,298L170,310L164,313L166,310L155,302L146,298L142,293L135,286L142,284L146,267L132,252L139,235L129,235L140,220L131,209Z" fill="#E0E0E0" stroke="#fff" stroke-width=".4"/><path d="M159,321L151,325L149,318L138,336L139,348L134,345L126,333L114,325L117,319L121,298L130,290L135,286L142,293L146,298L155,302L166,310L164,313Z" fill="#E0E0E0" stroke="#fff" stroke-width=".4"/><path d="M173,348L171,335L164,331L159,321L164,313L170,310L174,298L179,296L183,301L188,303L192,309L196,311L202,318L205,318L202,327L199,331L200,334L194,336L178,341L176,349Z" fill="#E0E0E0" stroke="#fff" stroke-width=".4"/></g><g clip-path="url(#v)"><path d="M338.5,99.0L339.1,97.6L344.7,93.8L346.2,94.4L349.2,94.6L355.2,94.5L358.2,91.9L360.0,92.6L361.5,91.4L364.0,90L364.4,90.4L364.7,90.6L368.5,91.2L371.4,92.6L373.4,94.7L375.4,96.0L377.4,96.5L378.5,97.5L378.8,99.2L380.7,100.0L384.4,99.9L385.9,101.0L385.4,103.1L385.8,103.8L387.0,103.1L388.0,103.7L388.5,105.3L389.1,106.0L391.0,103.6L392.9,103.8L397.6,104.8L400.2,109.9L401.8,111.8L403.2,112.5L404.8,111.7L406.4,110.8L407.3,111.2L409.2,114.5L409.7,118.9L409.7,120.7L409.0,123.7L408.0,126.9L407.2,128.9L407.5,130.6L408.2,132.0L409.4,132.4L413.0,135.2L414.3,137.2L416.4,138.6L417.9,138.6L418.7,139.5L419.0,140.5L418.7,142.9L417.9,145.2L418.0,146.7L419.3,148.5L419.5,150.6L419.6,151.8L420.3,152.9L423.6,155.1L428.0,157.3L429.1,159.1L429.8,161.5L429.6,165.5L429.3,168.9L434.9,173.5L434.3,174.3L433.4,175.3L428.0,176.0L426.9,176.4L424.5,173.0L423.2,172.5L422.1,173.8L420.8,174.5L419.1,174.1L417.3,173.0L416.4,172.3L415.7,172.2L414.6,173.0L413.1,172.6L412.3,171.8L410.9,174.8L410.0,175.4L409.5,175.2L409.4,170.3L409.0,169.5L407.9,169.4L405.2,170.5L402.7,172.1L401.9,173.4L402.0,175.9L402.3,178.9L404.0,183.3L403.1,185.2L402.4,188.3L399.7,191.2L396.6,192.8L396.4,196.2L394.8,198.4L391.8,200.7L389.9,203.5L390.4,205.4L390.5,207.2L390.2,208.4L390.1,209.3L389.3,209.7L384.9,210.1L383.7,210.6L382.2,211.9L380.8,209.5L379.4,207.3L378.4,206.1L378.8,205.6L380.0,205.0L380.8,204.2L380.7,201.6L380.1,198.6L379.5,197.2L379.5,194.9L379.1,191.4L379.6,184.8L381.9,176.6L383.1,172.4L382.5,170.1L383.0,164.9L382.0,162.2L380.5,158.7L378.3,151.3L375.7,148.7L372.4,145.8L370.9,143.6L370.0,141.2L368.0,138.9L365.8,136.7L363.1,131.2L361.7,128.7L361.2,128.0L358.2,124.5L356.6,121.3L355.7,118.7L355.3,116.2L353.1,111.4L351.1,107.8L349.3,105.2L348.4,103.3L346.2,101.0L343.0,99.2L341.0,98.9Z" fill="#4ECDC4" stroke="#2C3E50" stroke-width="1"/></g><circle cx="400.0" cy="150.0" r="4" fill="#E74C3C" stroke="#fff" stroke-width="2"/><text x="400.0" y="140.0" text-anchor="middle" font-family="sans-serif" font-weight="700" font-size="10" fill="#2D3436">Chișinău</text></svg>