<svg viewBox="0 0 800 300" xmlns="http://www.w3.org/2000/svg"><defs><clipPath id="v"><rect width="800" height="300"/></clipPath></defs><rect width="800" height="300" fill="#DCEEF8"/><g clip-path="url(#v)"><path d="M1071,-616L1091,-613L1105,-633L1121,-628L1177,-637L1211,-587L1198,-570L1202,-543L1245,-539L1264,-502L1263,-485L1331,-456L1372,-469L1405,-430L1436,-431L1515,-404L1516,-380L1494,-337L1506,-292L1498,-265L1446,-260L1418,-237L1416,-202L1374,-196L1338,-171L1288,-166L1242,-138L1244,-96L1236,-98L1229,-114L1212,-117L1174,-133L1160,-114L1152,-123L1069,-142L1065,-171L1016,-162L996,-119L954,-62L930,-75L905,-63L881,-77L894,-85L904,-112L919,-136L915,-150L926,-156L931,-146L963,-143L977,-149L967,-157L971,-169L952,-189L944,-222L925,-235L929,-262L905,-283L882,-286L843,-311L807,-303L795,-291L772,-291L758,-272L719,-265L701,-253L676,-272L641,-272L608,-281L585,-264L581,-286L551,-308L562,-340L577,-362L588,-357L575,-394L623,-463L650,-473L656,-496L629,-571L654,-574L684,-598L725,-600L779,-593L839,-572L881,-570L902,-558L922,-573L936,-553L984,-557L1005,-549L1009,-592L1025,-611Z" fill="#E0E0E0" stroke="#fff" stroke-width=".4"/><path d="M278,-283L274,-251L244,-251L254,-233L236,-183L226,-169L179,-168L152,-150L108,-156L31,-176L19,-203L-34,-190L-40,-175L-73,-186L-100,-188L-124,-202L-116,-222L-118,-236L-102,-240L-75,-218L-67,-239L-20,-236L18,-250L44,-247L61,-231L66,-245L58,-297L77,-307L96,-344L136,-318L166,-352L185,-358L227,-333L252,-337L277,-322L272,-311Z" fill="#E0E0E0" stroke="#fff" stroke-width=".4"/><path d="M551,-308L581,-286L585,-264L552,-247L527,-194L494,-141L451,-126L418,-130L377,-109L357,-98L313,-113L273,-146L256,-155L245,-182L236,-183L254,-233L244,-251L274,-251L278,-283L305,-263L325,-254L370,-264L374,-280L395,-283L422,-295L427,-290L452,-300L465,-319L483,-324L540,-299Z" fill="#E0E0E0" stroke="#fff" stroke-width=".4"/><path d="M795,-291L807,-303L843,-311L882,-286L905,-283L929,-262L925,-235L944,-222L952,-189L971,-169L967,-157L977,-149L963,-143L931,-146L926,-156L915,-150L919,-136L904,-112L894,-85L881,-77L871,-112L877,-145L875,-179L844,-226L827,-260L811,-283Z" fill="#E0E0E0" stroke="#fff" stroke-width=".4"/><path d="M881,-77L905,-63L930,-75L954,-62L956,-43L930,-26L913,-33L898,57L867,49L828,22L765,40L738,58L659,54L618,43L598,48L582,18L572,5L585,-8L571,-17L555,-0L523,-22L519,-54L487,-72L481,-96L451,-126L494,-141L527,-194L552,-247L585,-264L608,-281L641,-272L676,-272L701,-253L719,-265L758,-272L772,-291L795,-291L811,-283L827,-260L844,-226L875,-179L877,-145L871,-112Z" fill="#E0E0E0" stroke="#fff" stroke-width=".4"/><path d="M582,18L598,48L618,43L659,54L738,58L765,40L828,22L867,49L898,57L871,88L851,140L868,181L822,172L768,194L767,230L718,237L680,212L638,231L598,229L594,182L567,159L576,148L570,140L579,117L600,94L574,62L569,35Z" fill="#E0E0E0" stroke="#fff" stroke-width=".4"/><path d="M777,642L770,662L693,667L693,656L628,644L638,616L667,638L709,634L749,639L748,650ZM598,229L638,231L680,212L718,237L767,230L768,194L794,213L777,258L764,266L732,264L704,257L639,276L676,315L649,327L619,327L591,290L581,306L592,348L619,380L599,395L629,427L655,447L656,485L607,467L622,502L588,509L609,568L573,569L529,540L509,486L500,441L479,409L451,370L448,350L473,316L476,293L493,283L494,265L529,258L550,243L579,244L588,232Z" fill="#E0E0E0" stroke="#fff" stroke-width=".4"/><path d="M1767,518L1742,529L1723,512L1661,503L1638,514L1577,524L1548,523L1486,548L1442,549L1414,536L1354,555L1337,542L1334,579L1320,593L1305,608L1286,578L1306,553L1273,559L1228,543L1191,582L1110,589L1067,553L1009,551L997,579L959,586L908,551L849,552L817,485L778,448L804,394L770,361L830,294L912,292L935,238L1037,247L1102,201L1164,181L1253,179L1346,230L1423,257L1485,246L1532,252L1595,215L1652,212L1704,247L1713,272L1708,306L1748,324L1769,344L1732,364L1749,443L1738,464ZM768,194L822,172L868,181L875,209L921,232L912,249L848,253L825,275L780,313L764,280L764,266L777,258L794,213Z" fill="#E0E0E0" stroke="#fff" stroke-width=".4"/><path d="M494,265L493,283L476,293L473,316L448,350L439,345L438,330L408,306L403,273L408,224L415,202L406,191L402,168L426,132L429,146L444,139L455,159L468,166L471,192L465,217L472,247Z" fill="#E0E0E0" stroke="#fff" stroke-width=".4"/><path d="M256,-155L273,-146L313,-113L357,-98L377,-109L390,-80L407,-58L386,-29L362,-46L325,-45L279,-58L254,-56L242,-40L223,-58L212,-26L238,9L250,32L274,60L295,76L315,107L362,135L356,147L306,120L275,94L226,72L181,17L192,11L167,-20L166,-46L132,-58L115,-25L100,-50L101,-77L103,-78L140,-75L150,-88L168,-76L189,-74L189,-96L208,-104L213,-135Z" fill="#E0E0E0" stroke="#fff" stroke-width=".4"/><path d="M-118,-236L-116,-222L-124,-202L-100,-188L-73,-186L-77,-154L-100,-141L-140,-151L-152,-119L-177,-117L-186,-129L-217,-103L-242,-99L-266,-116L-284,-150L-310,-138L-309,-173L-269,-217L-271,-237L-247,-230L-232,-243L-186,-243L-175,-260Z" fill="#E0E0E0" stroke="#fff" stroke-width=".4"/><path d="M-73,-186L-40,-175L-34,-190L19,-203L31,-176L108,-156L102,-118L115,-85L72,-96L28,-69L31,-31L25,-10L42,28L93,66L120,127L179,185L221,185L234,201L219,215L267,241L307,262L353,299L358,312L348,337L318,304L272,293L249,338L288,364L282,400L259,404L231,463L208,468L208,447L219,410L231,396L210,356L194,321L172,312L156,281L121,269L98,240L58,235L17,203L-33,156L-69,114L-86,41L-112,33L-156,8L-181,18L-212,53L-234,58L-228,26L-257,16L-271,-42L-252,-65L-268,-94L-266,-116L-242,-99L-217,-103L-186,-129L-177,-117L-152,-119L-140,-151L-100,-141L-77,-154ZM159,452L200,446L180,500L188,520L177,555L136,530L109,522L34,488L41,453L104,459ZM-165,261L-139,239L-107,289L-114,381L-138,377L-160,400L-181,382L-183,297L-195,257Z" fill="#E0E0E0" stroke="#fff" stroke-width=".4"/><path d="M108,-156L152,-150L179,-168L226,-169L236,-183L245,-182L256,-155L213,-135L208,-104L189,-96L189,-74L168,-76L150,-88L140,-75L103,-78L115,-85L102,-118Z" fill="#E0E0E0" stroke="#fff" stroke-width=".4"/><path d="M362,135L315,107L295,76L274,60L250,32L238,9L212,-26L223,-58L242,-40L254,-56L279,-58L325,-45L362,-46L386,-29L406,-30L392,4L418,32L410,67L398,71L388,77L370,94Z" fill="#E0E0E0" stroke="#fff" stroke-width=".4"/><path d="M567,159L594,182L598,229L588,232L579,244L550,243L529,258L494,265L472,247L465,217L471,192L478,193L481,178L512,167L524,164L543,160Z" fill="#E0E0E0" stroke="#fff" stroke-width=".4"/><path d="M377,-109L418,-130L451,-126L481,-96L487,-72L519,-54L523,-22L555,-0L571,-17L585,-8L572,5L582,18L569,35L574,62L600,94L579,117L570,140L576,148L567,159L543,160L524,164L522,159L529,150L535,132L527,133L517,119L508,116L501,104L491,100L483,89L474,93L466,118L454,123L458,117L437,101L420,93L412,83L398,71L410,67L418,32L392,4L406,-30L386,-29L407,-58L390,-80Z" fill="#E0E0E0" stroke="#fff" stroke-width=".4"/><path d="M471,192L468,166L455,159L444,139L454,123L466,118L474,93L483,89L491,100L501,104L508,116L517,119L527,133L535,132L529,150L522,159L524,164L512,167L481,178L478,193Z" fill="#E0E0E0" stroke="#fff" stroke-width=".4"/></g><g clip-path="url(#v)"><path d="M396.4,69.9L396.2,70.8L396.6,73.4L397.8,76.1L402.0,78.7L408.2,83.9L415.5,93.6L419.0,96.4L422.1,97.1L427.9,101.1L432.1,102.0L436.6,103.2L448.7,111.5L454.1,113.9L457.8,117.0L458.4,120.0L458.2,121.7L451.2,123.9L449.9,127.1L446.6,126.7L442.6,126.7L441.2,128.7L443.1,132.1L444.5,136.1L443.5,141.5L443.1,142.3L442.2,142.0L436.4,145.2L432.1,146.7L428.3,147.4L426.5,145.9L425.6,143.8L425.8,137.8L425.0,135.8L423.8,134.9L421.1,136.3L418.1,140.9L415.2,146.2L410.9,151.8L407.4,157.1L403.8,163.8L401.1,169.3L403.8,172.5L405.5,176.9L404.9,180.1L405.5,182.0L404.5,187.7L404.4,191.2L396.1,185.5L392.6,177.5L380.4,163.8L366.3,154.5L365.6,153.0L366.3,151.2L367.1,149.8L364.2,149.7L362.1,150.8L360.2,150.5L358.0,147.0L355.9,144.0L355.9,141.2L356.9,141.0L358.2,139.9L361.1,136.9L361.7,135.3L361.5,133.0L357.5,125.4L356.9,120.6L356.3,111.5L357.1,109.3L358.6,108.3L366.0,107.1L365.8,100.0L366.1,97.8L367.7,94.9L368.7,92.2L372.7,88.3L378.1,83.6L380.4,83.5L382.5,84.2L384.9,88.1L387.6,87.6L387.9,82.9L384.7,76.6L382.9,72.6L383.5,70.3L384.7,69.2L387.6,69.9L390.3,71.1L392.2,70.3L394.9,69.7Z" fill="#4ECDC4" stroke="#2C3E50" stroke-width="1"/></g><circle cx="400.0" cy="150.0" r="4" fill="#E74C3C" stroke="#fff" stroke-width="2"/><text x="400.0" y="140.0" text-anchor="middle" font-family="sans-serif" font-weight="700" font-size="10" fill="#2D3436">Podgorica</text></svg>