<svg viewBox="0 0 800 300" xmlns="http://www.w3.org/2000/svg"><defs><clipPath id="v"><rect width="800" height="300"/></clipPath></defs><rect width="800" height="300" fill="#DCEEF8"/><g clip-path="url(#v)"><path d="M1492,138L1494,136L1497,139L1496,144L1490,145L1486,144L1485,140L1488,137ZM1508,130L1502,132L1497,134L1496,130L1500,129L1503,128L1508,125L1508,125L1508,130ZM-1502,125L-1502,125L-1502,125L-1500,125L-1501,129L-1502,130L-1502,130L-1502,125Z" fill="#E0E0E0" stroke="#fff" stroke-width=".4"/><path d="M286,-3L288,-2L318,15L319,20L331,28L327,39L327,43L333,47L333,49L330,54L331,56L330,60L333,66L337,74L340,76L333,81L324,84L319,84L316,87L310,87L308,88L298,86L292,86L289,75L287,71L285,68L277,67L272,64L267,63L263,61L260,59L255,49L250,44L249,39L250,35L248,27L252,26L255,23L258,19L260,17L260,15L258,13L258,9L260,8L260,3L257,-1L260,-2L269,-2Z" fill="#E0E0E0" stroke="#fff" stroke-width=".4"/><path d="M-70,-252L-70,-251L-70,-249L-70,-235L-97,-235L-97,-212L-105,-211L-107,-206L-105,-193L-138,-193L-140,-190L-139,-194L-139,-194L-121,-195L-120,-198L-116,-202L-113,-215L-102,-225L-98,-236L-95,-237L-92,-244L-85,-245L-82,-244L-79,-244L-76,-246L-71,-246L-71,-252Z" fill="#E0E0E0" stroke="#fff" stroke-width=".4"/><path d="M1182,11L1182,38L1182,66L1174,59L1166,57L1164,60L1153,60L1157,53L1162,51L1160,41L1156,34L1140,27L1133,27L1120,19L1118,23L1115,24L1113,21L1113,17L1106,13L1115,10L1121,10L1121,8L1108,8L1105,3L1098,1L1094,-3L1105,-5L1110,-8L1123,-4L1124,-1L1127,12L1135,17L1142,9L1152,3L1159,3L1166,6L1173,9ZM1048,64L1048,66L1049,68L1043,74L1036,76L1035,75L1036,72L1039,67ZM1125,47L1124,41L1125,38L1127,35L1129,37L1129,41ZM988,-45L984,-38L990,-30L988,-26L998,-18L988,-17L985,-12L985,-4L977,2L977,10L974,23L973,20L963,24L960,18L954,18L950,15L940,18L937,14L931,15L924,14L923,3L919,0L915,-7L914,-14L915,-22L920,-28L921,-22L927,-17L932,-19L937,-18L942,-23L946,-23L954,-21L961,-23L965,-34L969,-37L971,-47L981,-47ZM1084,13L1094,15L1097,22L1090,18L1083,17L1078,18L1072,18L1074,13ZM1063,21L1058,19L1056,16L1065,15L1067,18ZM1072,-29L1073,-24L1078,-24L1079,-20L1078,-13L1074,-14L1073,-9L1076,-4L1074,-3L1070,-9L1068,-19L1070,-26ZM1031,-18L1040,-18L1048,-25L1050,-23L1043,-14L1037,-13L1029,-14L1015,-14L1008,-13L1006,-6L1014,1L1018,-3L1034,-6L1033,-2L1030,-3L1026,2L1019,5L1027,16L1025,19L1033,28L1032,34L1028,36L1025,33L1029,27L1021,30L1018,28L1020,24L1014,19L1014,11L1009,14L1009,24L1010,36L1004,37L1001,34L1003,27L1002,18L998,18L996,13L999,7L1000,1L1005,-12L1006,-16L1013,-22L1020,-19ZM1008,75L997,69L1005,68L1010,70L1013,73L1012,75ZM1017,61L1023,60L1030,57L1029,62L1017,64L1005,63L1005,60L1012,58ZM991,59L997,59L999,62L989,64L983,65L979,65L982,60L986,60L988,57ZM910,43L911,46L927,47L929,43L944,47L947,53L960,54L970,59L961,63L951,59L944,59L935,59L927,57L918,54L912,53L908,54L893,51L891,47L884,47L889,39L900,39L906,42ZM875,-2L877,4L880,9L886,10L890,15L888,25L887,38L878,38L871,31L860,25L857,19L851,13L846,6L840,-5L833,-12L830,-19L827,-26L820,-31L815,-38L809,-43L800,-52L799,-57L805,-56L818,-55L825,-47L832,-41L836,-37L844,-28L853,-28L860,-22L865,-15L871,-12L868,-5L872,-2Z" fill="#E0E0E0" stroke="#fff" stroke-width=".4"/><path d="M248,27L250,35L249,39L250,44L255,49L260,59L257,58L245,60L243,61L241,66L243,70L241,80L240,89L242,90L248,93L250,92L251,101L245,101L241,96L238,93L232,91L230,87L225,90L218,88L215,85L210,84L206,84L206,81L203,81L199,81L194,82L190,82L188,82L188,72L186,69L185,64L186,59L185,56L184,50L174,50L175,47L171,47L170,49L165,49L163,54L162,56L157,55L154,56L149,57L146,52L144,50L141,45L139,38L115,38L112,39L109,39L106,40L105,38L107,37L107,33L108,31L111,29L114,30L117,27L121,27L122,29L125,31L130,26L134,21L137,19L136,12L140,4L144,-1L149,-5L150,-7L150,-10L152,-13L151,-18L152,-25L154,-31L157,-35L157,-40L158,-46L161,-50L166,-53L172,-50L178,-47L184,-46L190,-44L193,-50L194,-50L198,-49L207,-54L210,-52L213,-52L214,-54L217,-55L224,-54L229,-54L232,-55L237,-48L240,-47L243,-48L247,-48L251,-49L253,-46L261,-40L260,-30L263,-29L261,-26L258,-24L254,-20L253,-16L252,-9L250,-6L250,0L248,3L247,8L246,8L245,13L248,17Z" fill="#E0E0E0" stroke="#fff" stroke-width=".4"/><path d="M350,3L346,-4L345,-34L353,-44L355,-46L360,-46L368,-52L379,-53L402,-78L408,-85L412,-90L412,-95L412,-103L412,-107L412,-107L415,-107L419,-108L423,-109L427,-112L430,-112L430,-110L430,-105L430,-100L428,-97L425,-88L421,-79L416,-68L409,-55L402,-46L392,-35L384,-28L371,-20L363,-13L354,-3L352,1Z" fill="#E0E0E0" stroke="#fff" stroke-width=".4"/><path d="M331,28L319,20L318,15L288,-2L286,-3L286,-12L289,-15L293,-21L296,-27L292,-36L291,-41L287,-46L292,-51L298,-57L302,-55L302,-51L305,-48L311,-48L322,-41L324,-41L326,-41L328,-40L334,-39L336,-43L344,-46L347,-44L353,-44L345,-34L346,-4L350,3L345,7L343,10L339,11L338,17L336,20L334,26Z" fill="#E0E0E0" stroke="#fff" stroke-width=".4"/><path d="M208,-80L202,-84L199,-86L198,-89L200,-92L200,-96L195,-101L194,-105L194,-107L191,-109L191,-114L189,-117L186,-117L187,-120L189,-124L188,-127L191,-130L189,-132L191,-137L195,-144L203,-143L202,-178L202,-181L212,-182L212,-199L245,-199L278,-199L311,-199L314,-191L312,-189L313,-180L316,-169L319,-167L324,-164L320,-159L314,-157L311,-155L310,-149L306,-136L307,-133L306,-125L303,-117L298,-113L294,-106L293,-103L289,-100L287,-91L287,-84L287,-90L286,-90L286,-95L285,-98L280,-101L279,-107L280,-113L277,-114L276,-112L271,-112L273,-109L274,-104L269,-99L265,-93L261,-92L254,-97L250,-96L250,-93L245,-91L245,-90L237,-90L236,-91L229,-92L226,-90L224,-91L220,-96L218,-98L212,-97L210,-93L208,-86L205,-84L203,-83Z" fill="#E0E0E0" stroke="#fff" stroke-width=".4"/><path d="M202,-178L203,-143L195,-144L191,-137L189,-132L191,-130L188,-127L189,-124L187,-120L186,-117L189,-117L191,-114L191,-109L194,-107L194,-105L189,-103L184,-100L178,-90L171,-86L162,-87L160,-86L161,-83L157,-80L153,-77L142,-74L140,-76L139,-76L137,-74L131,-73L132,-75L129,-81L128,-85L124,-86L119,-91L121,-95L125,-94L127,-95L132,-95L128,-102L128,-108L127,-114L124,-119L125,-123L119,-123L119,-129L116,-132L120,-144L130,-152L131,-163L134,-181L136,-185L132,-188L132,-191L129,-193L127,-207L135,-212L169,-195Z" fill="#E0E0E0" stroke="#fff" stroke-width=".4"/><path d="M579,456L585,460L592,461L593,464L590,470L578,470L577,464L579,458Z" fill="#E0E0E0" stroke="#fff" stroke-width=".4"/><path d="M139,239L143,234L147,237L148,241L152,241L157,243L162,242L169,238L169,203L171,204L176,213L176,219L177,222L183,221L188,217L192,214L194,210L198,208L201,209L205,211L212,212L217,210L218,207L220,202L224,202L227,198L230,192L237,185L249,179L252,179L256,180L259,179L264,180L268,193L270,199L268,210L269,213L265,211L262,212L262,215L259,218L259,221L264,226L269,225L271,221L277,221L275,228L274,236L272,240L266,245L265,247L261,251L259,256L254,263L245,274L239,279L232,284L224,288L219,288L218,291L213,290L209,292L200,290L195,291L192,290L183,294L176,296L171,300L167,300L163,296L160,296L157,292L156,293L155,290L155,285L153,278L155,276L155,269L150,259L145,251L145,251ZM245,242L241,239L238,241L233,245L229,251L235,259L238,258L239,255L244,253L245,250L248,245Z" fill="#E0E0E0" stroke="#fff" stroke-width=".4"/><path d="M245,242L248,245L245,250L244,253L239,255L238,258L235,259L229,251L233,245L238,241L241,239Z" fill="#E0E0E0" stroke="#fff" stroke-width=".4"/><path d="M-429,-46L-434,-38L-437,-32L-440,-29L-444,-28L-445,-30L-447,-31L-449,-28L-453,-30L-451,-34L-450,-37L-449,-41L-452,-46L-453,-52L-448,-59L-445,-58L-439,-56L-430,-49ZM55,-488L58,-485L71,-482L66,-474L65,-465L63,-463L59,-464L59,-461L53,-454L53,-448L57,-450L60,-445L60,-441L62,-437L59,-433L61,-424L66,-423L65,-418L57,-411L41,-414L29,-411L28,-404L18,-402L9,-407L6,-405L-10,-410L-13,-415L-9,-421L-7,-445L-16,-458L-22,-464L-35,-469L-36,-478L-25,-481L-11,-478L-13,-492L-5,-486L14,-497L17,-507L24,-510L25,-505L29,-505L33,-500L39,-494L43,-495L50,-489L52,-488ZM76,-405L81,-410L83,-400L80,-391L76,-394L74,-401Z" fill="#E0E0E0" stroke="#fff" stroke-width=".4"/><path d="M264,180L259,179L256,180L252,179L249,179L244,175L237,173L235,168L235,164L231,163L222,154L219,149L217,147L214,140L223,141L226,142L229,142L234,136L241,129L244,128L245,125L250,122L256,120L256,124L263,124L267,125L269,128L273,128L277,131L277,142L276,148L275,155L277,157L276,163L275,163L272,170Z" fill="#E0E0E0" stroke="#fff" stroke-width=".4"/><path d="M249,179L237,185L230,192L227,198L224,202L220,202L218,207L217,210L212,212L205,211L201,209L198,208L194,210L192,214L188,217L183,221L177,222L176,219L176,213L171,204L169,203L169,176L177,176L178,144L184,144L197,141L200,145L205,141L208,141L213,139L214,140L217,147L219,149L222,154L231,163L235,164L235,168L237,173L244,175Z" fill="#E0E0E0" stroke="#fff" stroke-width=".4"/><path d="M169,203L169,238L162,242L157,243L152,241L148,241L147,237L143,234L139,239L133,232L130,225L128,216L126,209L123,195L123,184L122,179L119,175L114,168L110,157L108,151L101,143L101,136L105,134L110,133L115,133L120,137L122,137L156,136L161,140L182,142L197,138L204,136L209,137L212,139L213,139L208,141L205,141L200,145L197,141L184,144L178,144L177,176L169,176Z" fill="#E0E0E0" stroke="#fff" stroke-width=".4"/><path d="M-137,-126L-140,-132L-145,-135L-141,-137L-137,-143L-135,-147L-132,-150L-128,-150L-124,-151L-119,-152L-115,-149L-110,-147L-104,-140L-99,-134L-99,-129L-97,-124L-94,-122L-93,-118L-93,-116L-95,-115L-99,-116L-100,-115L-102,-115L-108,-117L-112,-117L-127,-117L-129,-116L-132,-117L-137,-115L-138,-122L-130,-122L-128,-123L-127,-123L-124,-125L-120,-123L-117,-123L-113,-125L-115,-127L-117,-126L-120,-126L-123,-128L-126,-128L-128,-126Z" fill="#E0E0E0" stroke="#fff" stroke-width=".4"/><path d="M-93,-116L-93,-118L-94,-122L-97,-124L-99,-129L-99,-134L-96,-136L-95,-141L-92,-141L-86,-139L-82,-140L-78,-140L-77,-142L-43,-142L-42,-148L-43,-149L-47,-187L-51,-226L-38,-227L-10,-207L18,-187L20,-183L25,-180L29,-179L29,-173L38,-174L39,-154L34,-148L33,-143L26,-141L14,-140L11,-137L6,-137L1,-137L-2,-139L-6,-137L-14,-134L-16,-131L-22,-127L-23,-125L-27,-123L-31,-124L-33,-122L-34,-116L-41,-109L-41,-106L-43,-103L-42,-98L-46,-97L-48,-96L-49,-99L-51,-98L-53,-98L-54,-96L-61,-96L-63,-97L-64,-97L-67,-99L-66,-102L-67,-103L-69,-102L-69,-104L-67,-107L-71,-110L-72,-113L-74,-114L-75,-115L-77,-113L-80,-112L-82,-111L-86,-111L-88,-113L-89,-114L-92,-113L-93,-112Z" fill="#E0E0E0" stroke="#fff" stroke-width=".4"/><path d="M-140,-190L-138,-193L-105,-193L-107,-206L-105,-211L-97,-212L-97,-235L-70,-235L-70,-249L-38,-227L-51,-226L-47,-187L-43,-149L-42,-148L-43,-142L-77,-142L-78,-140L-82,-140L-86,-139L-92,-141L-95,-141L-96,-136L-99,-134L-104,-140L-110,-147L-115,-149L-119,-152L-124,-151L-128,-150L-132,-150L-135,-147L-136,-152L-133,-156L-132,-165L-133,-173L-134,-178L-133,-182L-135,-187Z" fill="#E0E0E0" stroke="#fff" stroke-width=".4"/><path d="M25,-63L18,-62L16,-68L17,-87L15,-89L15,-93L12,-96L9,-99L10,-103L13,-104L15,-108L19,-109L21,-111L24,-114L27,-114L33,-109L33,-106L35,-101L33,-98L34,-95L30,-90L27,-87L26,-82L26,-77Z" fill="#E0E0E0" stroke="#fff" stroke-width=".4"/><path d="M127,-207L129,-193L132,-191L132,-188L136,-185L134,-181L131,-163L130,-152L120,-144L116,-132L119,-129L119,-123L125,-123L124,-119L122,-119L121,-116L120,-116L114,-125L112,-126L106,-121L99,-123L95,-124L92,-123L87,-123L82,-119L78,-119L68,-123L64,-121L60,-121L57,-125L48,-128L39,-127L37,-125L36,-120L34,-117L33,-109L27,-114L24,-114L21,-111L21,-117L11,-119L11,-123L6,-129L5,-133L6,-137L11,-137L14,-140L26,-141L33,-143L34,-148L39,-154L38,-174L50,-178L74,-195L103,-213L116,-209L121,-204Z" fill="#E0E0E0" stroke="#fff" stroke-width=".4"/><path d="M25,-63L26,-77L26,-82L27,-87L30,-90L34,-95L33,-98L35,-101L33,-106L33,-109L34,-117L36,-120L37,-125L39,-127L48,-128L57,-125L60,-121L64,-121L68,-123L78,-119L82,-119L87,-123L92,-123L95,-124L99,-123L106,-121L112,-126L114,-125L120,-116L121,-116L125,-113L124,-111L123,-108L116,-102L114,-96L113,-92L111,-90L109,-84L105,-80L104,-76L102,-73L101,-69L95,-66L91,-70L87,-70L82,-65L80,-65L76,-57L74,-51L65,-48L62,-48L59,-46L52,-46L48,-52L45,-58L39,-63L33,-63Z" fill="#E0E0E0" stroke="#fff" stroke-width=".4"/><path d="M124,-119L127,-114L128,-108L128,-102L132,-95L127,-95L125,-94L121,-95L119,-91L124,-86L128,-85L129,-81L132,-75L131,-73L126,-64L124,-63L124,-56L125,-53L124,-50L128,-46L129,-43L132,-39L135,-36L136,-32L137,-30L136,-25L129,-27L123,-29L112,-30L111,-30L106,-29L101,-30L97,-30L83,-30L85,-36L81,-42L78,-43L76,-47L74,-48L74,-51L76,-57L80,-65L82,-65L87,-70L91,-70L95,-66L101,-69L102,-73L104,-76L105,-80L109,-84L111,-90L113,-92L114,-96L116,-102L123,-108L124,-111L125,-113L121,-116L122,-119Z" fill="#E0E0E0" stroke="#fff" stroke-width=".4"/><path d="M10,-103L9,-99L12,-96L15,-93L15,-89L17,-87L16,-68L18,-62L12,-60L10,-63L8,-69L7,-73L9,-81L7,-84L6,-90L6,-96L2,-101L3,-103Z" fill="#E0E0E0" stroke="#fff" stroke-width=".4"/><path d="M3,-103L2,-101L6,-96L6,-90L7,-84L9,-81L7,-73L8,-69L10,-63L12,-60L-1,-56L-6,-53L-14,-50L-21,-53L-21,-56L-24,-63L-22,-73L-19,-80L-21,-92L-22,-98L-22,-103L-7,-103L-4,-103L-1,-104Z" fill="#E0E0E0" stroke="#fff" stroke-width=".4"/><path d="M-64,-97L-63,-97L-61,-96L-54,-96L-53,-98L-51,-98L-49,-99L-48,-96L-46,-97L-42,-98L-39,-96L-37,-93L-33,-92L-30,-94L-27,-94L-21,-92L-19,-80L-22,-73L-24,-63L-21,-56L-21,-53L-25,-52L-31,-54L-36,-54L-46,-53L-52,-50L-60,-47L-62,-47L-61,-54L-60,-55L-60,-59L-64,-62L-67,-63L-69,-65L-67,-69L-68,-73L-68,-75L-66,-75L-66,-79L-67,-81L-66,-82L-63,-83L-65,-90L-67,-93L-66,-96Z" fill="#E0E0E0" stroke="#fff" stroke-width=".4"/><path d="M-112,-117L-108,-117L-102,-115L-100,-115L-99,-116L-95,-115L-93,-116L-93,-112L-92,-113L-89,-114L-88,-113L-86,-111L-82,-111L-80,-112L-77,-113L-75,-115L-74,-114L-72,-113L-71,-110L-67,-107L-69,-104L-69,-102L-67,-103L-66,-102L-67,-99L-64,-97L-66,-96L-67,-93L-65,-90L-63,-83L-66,-82L-67,-81L-66,-79L-66,-75L-68,-75L-70,-75L-72,-72L-74,-72L-76,-74L-75,-77L-79,-82L-81,-81L-83,-81L-85,-81L-85,-84L-86,-86L-86,-89L-88,-92L-90,-95L-97,-95L-99,-94L-101,-93L-103,-92L-103,-89L-108,-86L-112,-91L-115,-94L-117,-95L-119,-97L-120,-100L-121,-102L-124,-104L-120,-108L-117,-108L-115,-109L-113,-109L-112,-110L-113,-113L-112,-114Z" fill="#E0E0E0" stroke="#fff" stroke-width=".4"/><path d="M-137,-115L-132,-117L-129,-116L-127,-117L-112,-117L-112,-114L-113,-113L-112,-110L-113,-109L-115,-109L-117,-108L-120,-108L-124,-104L-128,-107L-132,-108L-134,-110L-134,-111L-136,-113Z" fill="#E0E0E0" stroke="#fff" stroke-width=".4"/><path d="M-68,-75L-68,-73L-67,-69L-69,-65L-67,-63L-64,-62L-60,-59L-60,-55L-61,-54L-62,-47L-64,-47L-72,-51L-80,-58L-87,-62L-93,-68L-91,-70L-90,-73L-87,-77L-83,-81L-81,-81L-79,-82L-75,-77L-76,-74L-74,-72L-72,-72L-70,-75Z" fill="#E0E0E0" stroke="#fff" stroke-width=".4"/><path d="M-108,-86L-103,-89L-103,-92L-101,-93L-99,-94L-97,-95L-90,-95L-88,-92L-86,-89L-86,-86L-85,-84L-85,-81L-83,-81L-87,-77L-90,-73L-91,-70L-93,-68L-95,-68L-101,-72L-105,-76L-107,-79Z" fill="#E0E0E0" stroke="#fff" stroke-width=".4"/><path d="M-42,-98L-43,-103L-41,-106L-41,-109L-34,-116L-33,-122L-31,-124L-27,-123L-23,-125L-22,-127L-16,-131L-14,-134L-6,-137L-2,-139L1,-137L6,-137L5,-133L6,-129L11,-123L11,-119L21,-117L21,-111L19,-109L15,-108L13,-104L10,-103L3,-103L-1,-104L-4,-103L-7,-103L-22,-103L-22,-98L-21,-92L-27,-94L-30,-94L-33,-92L-37,-93L-39,-96Z" fill="#E0E0E0" stroke="#fff" stroke-width=".4"/><path d="M232,-55L229,-54L224,-54L217,-55L214,-54L213,-52L210,-52L207,-54L198,-49L194,-50L193,-50L190,-44L184,-46L178,-47L172,-50L166,-53L161,-50L158,-46L157,-40L152,-41L146,-42L141,-38L137,-30L136,-32L135,-36L132,-39L129,-43L128,-46L124,-50L125,-53L124,-56L124,-63L126,-64L131,-73L137,-74L139,-76L140,-76L142,-74L153,-77L157,-80L161,-83L160,-86L162,-87L171,-86L178,-90L184,-100L189,-103L194,-105L195,-101L200,-96L200,-92L198,-89L199,-86L202,-84L208,-80L213,-76L213,-74L218,-69L222,-66L224,-61L230,-57Z" fill="#E0E0E0" stroke="#fff" stroke-width=".4"/><path d="M157,-40L157,-35L154,-31L152,-25L151,-18L152,-13L150,-10L150,-7L149,-5L144,-1L140,4L136,12L137,19L134,21L130,26L125,31L122,29L121,27L117,27L114,30L111,29L108,26L106,28L102,31L96,23L102,18L99,12L102,10L107,9L108,6L112,10L120,10L122,6L123,0L122,-6L119,-11L122,-21L120,-22L114,-22L112,-26L112,-30L123,-29L129,-27L136,-25L137,-30L141,-38L146,-42L152,-41Z" fill="#E0E0E0" stroke="#fff" stroke-width=".4"/><path d="M97,-30L101,-30L106,-29L111,-30L112,-30L112,-26L114,-22L120,-22L122,-21L119,-11L122,-6L123,0L122,6L120,10L112,10L108,6L107,9L102,10L99,12L102,18L96,23L87,14L81,7L76,-1L77,-4L78,-7L80,-13L82,-19L85,-20L97,-20Z" fill="#E0E0E0" stroke="#fff" stroke-width=".4"/><path d="M83,-30L97,-30L97,-20L85,-20L82,-19L81,-20Z" fill="#E0E0E0" stroke="#fff" stroke-width=".4"/><path d="M260,59L263,61L267,63L272,64L277,67L281,71L283,78L281,80L280,87L281,94L279,97L276,105L280,107L255,114L256,120L250,122L245,125L244,128L241,129L234,136L229,142L226,142L223,141L214,140L213,139L212,139L209,137L204,136L197,138L191,133L186,125L186,98L204,98L203,95L204,92L203,88L204,84L203,81L206,81L206,84L210,84L215,85L218,88L225,90L230,87L232,91L238,93L241,96L245,101L251,101L250,92L248,93L242,90L240,89L241,80L243,70L241,66L243,61L245,60L257,58Z" fill="#E0E0E0" stroke="#fff" stroke-width=".4"/><path d="M277,67L285,68L287,71L289,75L292,86L289,93L292,104L295,104L298,106L301,113L302,124L298,126L296,132L290,126L290,120L291,116L291,113L288,111L285,111L280,107L276,105L279,97L281,94L280,87L281,80L283,78L281,71Z" fill="#E0E0E0" stroke="#fff" stroke-width=".4"/><path d="M292,86L298,86L308,88L310,87L316,87L319,84L324,84L333,81L340,76L341,80L341,88L342,96L342,109L344,113L341,120L338,126L333,131L325,134L316,139L306,148L303,150L297,156L294,158L293,164L297,171L299,176L299,179L300,179L300,188L299,192L300,193L299,197L296,200L289,203L279,208L275,212L276,216L278,216L277,221L271,221L270,217L269,213L268,210L270,199L268,193L264,180L272,170L275,163L276,163L277,157L275,155L276,148L277,142L277,131L273,128L269,128L267,125L263,124L256,124L256,120L255,114L280,107L285,111L288,111L291,113L291,116L290,120L290,126L296,132L298,126L302,124L301,113L298,106L295,104L292,104L289,93Z" fill="#E0E0E0" stroke="#fff" stroke-width=".4"/><path d="M271,221L269,225L264,226L259,221L259,218L262,215L262,212L265,211L269,213L270,217Z" fill="#E0E0E0" stroke="#fff" stroke-width=".4"/><path d="M111,29L108,31L107,33L107,37L105,38L102,31L106,28L108,26ZM106,40L109,39L112,39L115,38L139,38L141,45L144,50L146,52L149,57L154,56L157,55L162,56L163,54L165,49L170,49L171,47L175,47L174,50L184,50L185,56L186,59L185,64L186,69L188,72L188,82L190,82L194,82L199,81L203,81L204,84L203,88L204,92L203,95L204,98L186,98L186,125L191,133L197,138L182,142L161,140L156,136L122,137L120,137L115,133L110,133L105,134L101,136L100,131L101,123L104,115L105,111L107,104L109,100L114,94L117,91L118,84L117,79L115,76L112,71L110,66L111,64L113,61L111,53L109,47L105,42Z" fill="#E0E0E0" stroke="#fff" stroke-width=".4"/><path d="M258,9L258,13L260,15L260,17L258,19L255,23L252,26L248,27L248,17L245,13L251,14L253,9Z" fill="#E0E0E0" stroke="#fff" stroke-width=".4"/><path d="M-137,-126L-128,-126L-126,-128L-123,-128L-120,-126L-117,-126L-115,-127L-113,-125L-117,-123L-120,-123L-124,-125L-127,-123L-128,-123L-130,-122L-138,-122Z" fill="#E0E0E0" stroke="#fff" stroke-width=".4"/><path d="M-70,-249L-70,-251L-70,-252L-70,-263L-56,-270L-48,-271L-41,-274L-38,-279L-28,-283L-28,-290L-23,-291L-19,-294L-8,-296L-7,-300L-9,-302L-12,-313L-12,-319L-15,-325L-7,-331L2,-333L7,-337L15,-340L29,-342L43,-343L47,-341L55,-345L64,-345L68,-343L73,-344L72,-338L73,-328L71,-320L66,-314L66,-307L73,-301L73,-298L79,-294L82,-277L85,-268L85,-264L84,-256L84,-252L83,-247L84,-241L81,-237L86,-230L86,-226L89,-221L93,-223L99,-218L103,-213L74,-195L50,-178L38,-174L29,-173L29,-179L25,-180L20,-183L18,-187L-10,-207L-38,-227Z" fill="#E0E0E0" stroke="#fff" stroke-width=".4"/><path d="M464,-206L465,-209L467,-213L467,-217L471,-219L469,-220L470,-226L474,-226L478,-220L483,-216L489,-215L494,-214L498,-208L500,-205L503,-204L503,-202L500,-197L498,-194L495,-191L492,-185L488,-186L486,-184L485,-179L486,-173L485,-172L481,-172L476,-169L475,-165L473,-163L468,-163L465,-161L465,-157L461,-155L456,-155L451,-152L447,-152L444,-158L438,-173L463,-181L468,-199ZM473,-233L472,-237L474,-240L475,-239L474,-235Z" fill="#E0E0E0" stroke="#fff" stroke-width=".4"/><path d="M860,-113L858,-124L864,-131L875,-133L882,-131L889,-128L893,-134L901,-131L902,-125L901,-115L887,-108L891,-103L882,-102L875,-99L868,-100L865,-105Z" fill="#E0E0E0" stroke="#fff" stroke-width=".4"/><path d="M882,-131L875,-133L864,-131L858,-124L860,-113L853,-117L846,-117L847,-124L840,-124L839,-114L834,-102L832,-94L832,-88L838,-88L841,-80L843,-73L847,-68L852,-67L857,-63L854,-59L848,-58L848,-63L841,-66L840,-65L836,-68L835,-72L830,-77L826,-81L825,-76L823,-81L824,-86L827,-94L831,-103L835,-111L832,-119L832,-123L831,-128L826,-134L824,-139L827,-140L830,-148L826,-154L821,-160L817,-168L820,-169L824,-179L830,-179L835,-183L840,-185L843,-182L844,-177L850,-177L847,-167L848,-160L856,-165L859,-163L864,-163L866,-167L872,-166L878,-159L879,-150L886,-143L885,-135Z" fill="#E0E0E0" stroke="#fff" stroke-width=".4"/><path d="M901,-131L893,-134L889,-128L882,-131L885,-135L886,-143L879,-150L878,-159L872,-166L866,-167L864,-163L859,-163L856,-165L848,-160L847,-167L850,-177L844,-177L843,-182L840,-185L842,-188L849,-194L849,-192L854,-192L853,-202L857,-204L862,-196L866,-188L876,-188L879,-180L874,-178L871,-175L881,-170L888,-159L894,-152L900,-146L902,-139Z" fill="#E0E0E0" stroke="#fff" stroke-width=".4"/><path d="M840,-185L835,-183L830,-179L824,-179L820,-169L817,-168L821,-160L826,-154L830,-148L827,-140L824,-139L826,-134L831,-128L832,-123L832,-119L835,-111L831,-103L827,-94L826,-101L829,-107L826,-112L826,-121L823,-126L820,-136L819,-147L815,-154L810,-150L800,-144L795,-145L790,-147L793,-157L791,-166L785,-176L786,-179L781,-180L775,-187L774,-195L777,-193L778,-200L782,-202L781,-206L783,-209L783,-218L790,-216L793,-224L794,-228L798,-236L798,-241L809,-248L815,-246L814,-252L817,-254L816,-257L821,-258L824,-252L828,-250L828,-243L828,-235L820,-228L819,-217L828,-218L830,-210L835,-208L832,-200L839,-197L842,-195L848,-198L849,-194L842,-188Z" fill="#E0E0E0" stroke="#fff" stroke-width=".4"/><path d="M875,-99L882,-102L891,-103L887,-108L901,-115L902,-125L901,-131L902,-139L900,-146L894,-152L888,-159L881,-170L871,-175L874,-178L879,-180L876,-188L866,-188L862,-196L857,-204L861,-206L868,-206L876,-207L883,-212L887,-208L895,-207L894,-201L898,-198L906,-195L895,-188L888,-179L886,-173L893,-164L900,-152L908,-147L913,-140L917,-124L916,-109L909,-103L899,-98L892,-91L882,-83L879,-88L881,-94Z" fill="#E0E0E0" stroke="#fff" stroke-width=".4"/><path d="M816,-257L817,-254L814,-252L815,-246L809,-248L798,-241L798,-236L794,-228L793,-224L790,-216L783,-218L783,-209L781,-206L782,-202L778,-200L773,-214L771,-214L769,-208L765,-213L767,-218L771,-219L775,-227L770,-228L763,-228L755,-229L754,-236L750,-236L743,-240L740,-234L746,-229L741,-226L739,-222L744,-220L743,-214L746,-207L747,-200L746,-197L740,-197L730,-195L730,-188L726,-183L714,-177L705,-166L698,-161L690,-155L690,-151L686,-149L678,-146L674,-145L672,-139L674,-128L674,-120L670,-112L670,-98L666,-97L662,-91L665,-88L657,-86L654,-80L651,-78L643,-85L639,-97L636,-106L633,-110L629,-118L627,-129L625,-134L618,-146L614,-163L612,-174L612,-185L610,-194L598,-188L592,-189L581,-200L585,-203L583,-207L573,-215L578,-221L597,-221L595,-229L590,-233L589,-241L584,-245L593,-255L603,-254L612,-264L617,-274L625,-283L625,-290L632,-296L625,-301L622,-308L619,-317L623,-321L636,-318L645,-320L654,-329L663,-317L662,-308L665,-303L665,-298L659,-300L661,-289L669,-282L681,-276L676,-271L672,-262L680,-259L688,-254L699,-249L711,-248L716,-243L722,-242L732,-240L739,-240L740,-244L739,-250L740,-254L745,-256L745,-248L745,-246L753,-243L758,-244L765,-244L772,-244L773,-250L769,-253L776,-254L784,-261L793,-267L800,-265L806,-269L810,-263L807,-259Z" fill="#E0E0E0" stroke="#fff" stroke-width=".4"/><path d="M778,-200L777,-193L774,-195L775,-187L773,-192L772,-197L771,-201L767,-206L759,-207L760,-203L758,-198L754,-200L753,-198L750,-199L747,-200L746,-207L743,-214L744,-220L739,-222L741,-226L746,-229L740,-234L743,-240L750,-236L754,-236L755,-229L763,-228L770,-228L775,-227L771,-219L767,-218L765,-213L769,-208L771,-214L773,-214Z" fill="#E0E0E0" stroke="#fff" stroke-width=".4"/><path d="M1238,364L1243,364L1243,378L1240,381L1239,391L1236,387L1231,395L1229,395L1224,394L1219,385L1218,377L1213,367L1213,362L1218,363L1226,367L1231,366ZM1057,274L1049,279L1041,281L1040,287L1037,291L1030,291L1024,292L1017,290L1011,291L1005,292L1000,297L998,296L994,299L990,303L983,302L978,302L969,296L964,294L965,288L969,287L970,284L970,281L971,274L970,268L966,258L964,253L965,247L961,241L961,238L957,234L956,227L952,220L950,216L954,220L951,211L955,214L958,217L958,212L954,205L953,202L951,200L952,194L953,192L955,187L954,182L957,176L958,183L961,176L968,173L972,169L979,166L982,165L985,167L991,163L996,162L998,160L1000,160L1004,160L1013,157L1018,153L1020,148L1025,144L1025,140L1025,136L1031,128L1035,136L1038,134L1035,130L1038,126L1042,128L1043,121L1047,117L1049,113L1053,112L1054,109L1057,110L1057,108L1061,107L1065,106L1071,110L1076,115L1081,115L1086,116L1085,111L1089,104L1092,102L1091,100L1095,95L1100,92L1104,93L1111,91L1111,87L1105,84L1109,83L1115,85L1119,88L1126,91L1129,90L1134,92L1139,90L1142,91L1144,89L1148,93L1146,98L1142,101L1139,102L1140,105L1138,109L1135,114L1136,116L1142,121L1149,124L1153,127L1159,132L1161,132L1166,134L1167,137L1175,140L1181,137L1182,132L1184,128L1185,123L1187,116L1186,112L1187,110L1186,105L1187,98L1189,97L1187,94L1189,89L1191,85L1191,82L1194,79L1197,83L1197,88L1199,89L1200,93L1203,97L1203,102L1203,105L1206,112L1211,109L1214,113L1218,116L1217,120L1219,127L1220,132L1222,133L1225,140L1224,145L1227,151L1236,155L1242,160L1247,163L1246,166L1251,171L1254,181L1257,179L1261,183L1263,181L1264,191L1270,197L1274,200L1281,208L1283,215L1283,220L1283,226L1287,234L1286,243L1285,247L1282,256L1283,261L1281,268L1277,277L1271,282L1268,290L1265,295L1263,304L1260,309L1257,317L1256,324L1257,327L1252,331L1243,331L1235,335L1231,340L1226,344L1219,339L1214,338L1215,332L1211,334L1203,342L1196,339L1191,337L1187,336L1179,333L1173,327L1172,319L1170,314L1166,309L1158,308L1160,303L1158,296L1154,303L1147,305L1151,299L1152,293L1156,288L1155,281L1148,289L1143,293L1140,301L1133,297L1133,291L1128,284L1124,280L1125,278L1115,272L1109,272L1101,267L1086,268L1075,271L1065,275Z" fill="#E0E0E0" stroke="#fff" stroke-width=".4"/><path d="M687,-74L685,-65L682,-63L675,-61L671,-67L669,-80L673,-93L679,-89L683,-83Z" fill="#E0E0E0" stroke="#fff" stroke-width=".4"/><path d="M918,-166L911,-168L911,-176L915,-180L924,-182L929,-182L931,-179L927,-175L925,-170ZM674,-402L673,-409L679,-412L671,-432L688,-437L692,-439L698,-461L715,-457L719,-463L720,-475L727,-476L733,-485L736,-486L739,-477L746,-470L758,-466L763,-456L760,-442L763,-436L773,-434L784,-433L794,-425L800,-424L803,-413L808,-407L818,-407L835,-404L846,-406L854,-404L867,-397L877,-397L880,-394L890,-400L904,-404L916,-404L926,-408L932,-414L938,-418L936,-422L934,-427L938,-434L943,-433L951,-431L960,-437L972,-442L979,-450L984,-453L997,-455L1003,-453L1004,-458L997,-466L990,-470L983,-466L975,-468L970,-466L968,-471L974,-484L978,-493L988,-489L1000,-497L1000,-503L1008,-517L1012,-521L1012,-529L1008,-532L1014,-539L1025,-541L1036,-542L1048,-537L1056,-532L1061,-519L1064,-513L1067,-505L1070,-492L1085,-488L1094,-479L1098,-467L1111,-467L1118,-472L1132,-475L1127,-464L1124,-460L1121,-446L1116,-435L1105,-437L1098,-433L1100,-423L1099,-409L1095,-409L1095,-403L1090,-410L1086,-403L1073,-398L1075,-392L1067,-393L1063,-396L1058,-388L1049,-382L1042,-375L1030,-372L1024,-367L1015,-364L1019,-369L1018,-373L1024,-381L1020,-387L1012,-383L1003,-375L998,-368L990,-368L985,-363L990,-355L997,-354L997,-349L1004,-346L1013,-353L1020,-349L1026,-349L1027,-343L1015,-341L1011,-335L1003,-330L999,-323L1008,-317L1011,-307L1016,-298L1022,-290L1022,-283L1017,-280L1019,-275L1024,-272L1022,-264L1020,-257L1015,-256L1009,-246L1003,-234L995,-223L983,-214L972,-206L962,-205L957,-201L954,-204L950,-200L938,-195L929,-194L926,-185L921,-184L919,-190L921,-194L910,-197L906,-195L898,-198L894,-201L895,-207L887,-208L883,-212L876,-207L868,-206L861,-206L857,-204L853,-202L854,-192L849,-192L849,-194L848,-198L842,-195L839,-197L832,-200L835,-208L830,-210L828,-218L819,-217L820,-228L828,-235L828,-243L828,-250L824,-252L821,-258L816,-257L807,-259L810,-263L806,-269L800,-265L793,-267L784,-261L776,-254L769,-253L766,-255L761,-255L755,-258L751,-255L745,-248L745,-256L740,-254L730,-255L720,-257L714,-261L707,-263L704,-267L700,-269L691,-275L684,-278L681,-276L669,-282L661,-289L659,-300L665,-298L665,-303L662,-308L663,-317L654,-329L640,-333L637,-341L631,-346L630,-349L628,-355L629,-359L624,-361L621,-360L619,-370L621,-373L620,-375L628,-380L634,-382L643,-381L646,-388L656,-389L659,-394L673,-400Z" fill="#E0E0E0" stroke="#fff" stroke-width=".4"/><path d="M1013,-118L1009,-124L1016,-124L1019,-121L1017,-114ZM1028,-95L1030,-97L1031,-102L1035,-103L1034,-97L1040,-105L1039,-97L1036,-94L1034,-89L1031,-87L1026,-92ZM1059,-81L1060,-76L1061,-71L1058,-63L1055,-72L1051,-68L1054,-61L1051,-58L1041,-62L1039,-68L1041,-72L1036,-76L1034,-73L1030,-73L1023,-69L1022,-71L1025,-78L1031,-81L1035,-84L1038,-80L1045,-82L1046,-86L1052,-86L1051,-93L1058,-89L1059,-84ZM994,-89L982,-81L987,-87L993,-92L998,-98L1002,-106L1003,-100L998,-95ZM1026,-166L1024,-162L1027,-156L1025,-149L1020,-146L1019,-139L1020,-132L1025,-131L1029,-132L1039,-127L1038,-122L1041,-120L1040,-116L1034,-121L1031,-125L1028,-122L1023,-127L1015,-126L1011,-128L1012,-131L1014,-134L1012,-136L1011,-132L1007,-137L1005,-141L1005,-149L1008,-147L1009,-160L1012,-168L1017,-168L1022,-166L1025,-168ZM1023,-107L1022,-111L1027,-108L1032,-108L1032,-105L1028,-101L1023,-99L1022,-103ZM1052,-113L1054,-104L1048,-106L1048,-103L1050,-98L1046,-96L1046,-102L1043,-102L1042,-108L1047,-107L1047,-110L1042,-117L1050,-116Z" fill="#E0E0E0" stroke="#fff" stroke-width=".4"/><path d="M840,-65L841,-66L848,-63L848,-58L854,-59L857,-63L859,-62L864,-57L867,-51L868,-46L867,-42L868,-39L868,-34L871,-32L874,-24L874,-22L868,-21L860,-27L850,-34L849,-38L845,-44L843,-51L840,-55L841,-61ZM988,-45L981,-47L971,-47L969,-37L965,-34L961,-23L954,-21L946,-23L942,-23L937,-18L932,-19L927,-17L921,-22L920,-28L926,-25L932,-26L934,-33L937,-35L947,-37L953,-43L958,-49L961,-44L963,-47L967,-47L968,-52L968,-56L974,-62L979,-69L982,-69L986,-65L987,-61L992,-59L999,-56L999,-53L993,-52L994,-48Z" fill="#E0E0E0" stroke="#fff" stroke-width=".4"/><path d="M968,-56L968,-52L967,-47L963,-47L961,-44L958,-49L961,-52Z" fill="#E0E0E0" stroke="#fff" stroke-width=".4"/><path d="M307,-133L306,-136L310,-149L311,-155L314,-157L320,-159L324,-164L329,-154L331,-146L336,-141L347,-133L352,-128L356,-123L359,-120L363,-118L360,-116L357,-116L354,-119L351,-124L347,-127L345,-130L337,-133L332,-134L330,-135L325,-133L320,-137L317,-131Z" fill="#E0E0E0" stroke="#fff" stroke-width=".4"/><path d="M438,-173L444,-158L447,-152L441,-150L439,-146L439,-143L431,-139L417,-135L410,-129L406,-129L404,-129L399,-125L393,-124L386,-123L384,-123L382,-121L380,-120L379,-118L375,-118L372,-117L366,-117L364,-122L364,-127L363,-130L361,-136L359,-139L361,-140L360,-144L361,-146L360,-149L364,-152L363,-156L365,-160L369,-158L371,-159L381,-159L382,-158L390,-157L394,-158L396,-155L400,-156L406,-165L413,-169Z" fill="#E0E0E0" stroke="#fff" stroke-width=".4"/><path d="M295,-268L304,-266L308,-269L310,-273L316,-274L318,-277L320,-279L312,-289L329,-294L330,-295L341,-292L353,-285L377,-266L392,-265L400,-264L402,-260L408,-260L411,-252L415,-250L416,-246L422,-242L423,-239L422,-235L423,-232L425,-230L426,-227L428,-224L430,-223L432,-223L434,-220L434,-218L438,-208L463,-204L464,-206L468,-199L463,-181L438,-173L413,-169L406,-165L400,-156L396,-155L394,-158L390,-157L382,-158L381,-159L371,-159L369,-158L365,-160L363,-156L364,-152L360,-149L359,-153L357,-156L356,-159L352,-162L347,-170L345,-177L339,-183L336,-184L330,-193L329,-199L329,-205L325,-215L321,-218L316,-220L313,-225L314,-228L312,-232L309,-234L306,-241L301,-249L297,-255L292,-255L294,-261L294,-264Z" fill="#E0E0E0" stroke="#fff" stroke-width=".4"/><path d="M-15,-325L-12,-319L-12,-313L-9,-302L-7,-300L-8,-296L-19,-294L-23,-291L-28,-290L-28,-283L-38,-279L-41,-274L-48,-271L-56,-270L-70,-263L-70,-252L-71,-252L-71,-246L-76,-246L-79,-244L-82,-244L-85,-245L-92,-244L-95,-237L-98,-236L-102,-225L-113,-215L-116,-202L-120,-198L-121,-195L-139,-194L-139,-194L-139,-198L-136,-201L-133,-206L-134,-209L-131,-215L-126,-221L-123,-222L-121,-228L-121,-233L-118,-238L-112,-242L-107,-251L-107,-252L-103,-255L-95,-256L-88,-263L-84,-265L-77,-273L-79,-285L-76,-294L-75,-299L-70,-306L-61,-310L-55,-314L-49,-325L-47,-331L-41,-331L-36,-327L-28,-328L-19,-325Z" fill="#E0E0E0" stroke="#fff" stroke-width=".4"/><path d="M311,-199L278,-199L245,-199L212,-199L212,-233L212,-267L209,-274L211,-280L210,-284L213,-289L224,-289L232,-287L241,-284L245,-282L251,-285L254,-288L262,-289L268,-288L270,-283L272,-286L279,-284L285,-283L289,-286L294,-272L295,-269L292,-265L291,-258L288,-253L286,-251L284,-255L280,-259L274,-272L273,-272L276,-261L282,-252L288,-237L291,-232L294,-227L301,-217L300,-215L300,-209L310,-201Z" fill="#E0E0E0" stroke="#fff" stroke-width=".4"/><path d="M212,-199L212,-182L202,-181L202,-178L169,-195L135,-212L127,-207L121,-204L116,-209L103,-213L99,-218L93,-223L89,-221L86,-226L86,-230L81,-237L84,-241L83,-247L84,-252L84,-256L85,-264L85,-268L82,-277L86,-279L87,-283L86,-287L92,-291L94,-294L98,-297L99,-305L109,-301L112,-302L119,-300L130,-296L134,-287L142,-285L153,-281L162,-276L166,-279L170,-283L169,-291L171,-296L177,-300L183,-302L194,-300L197,-295L200,-295L203,-294L211,-292L213,-289L210,-284L211,-280L209,-274L212,-267L212,-233Z" fill="#E0E0E0" stroke="#fff" stroke-width=".4"/><path d="M402,-78L379,-53L368,-52L360,-46L355,-46L353,-44L347,-44L344,-46L336,-43L334,-39L328,-40L326,-41L324,-41L322,-41L311,-48L305,-48L302,-51L302,-55L298,-57L293,-66L289,-68L288,-71L283,-75L278,-76L281,-81L286,-81L287,-84L287,-91L289,-100L293,-103L294,-106L298,-113L303,-117L306,-125L307,-133L317,-131L320,-137L325,-133L330,-135L332,-134L337,-133L345,-130L347,-127L351,-124L354,-119L357,-116L354,-113L351,-109L352,-106L352,-104L357,-104L359,-104L360,-103L359,-100L362,-95L365,-91L368,-88L395,-78Z" fill="#E0E0E0" stroke="#fff" stroke-width=".4"/><path d="M357,-116L360,-116L363,-118L365,-115L365,-112L360,-110L364,-107L360,-103L359,-104L357,-104L352,-104L352,-106L351,-109L354,-113Z" fill="#E0E0E0" stroke="#fff" stroke-width=".4"/><path d="M412,-107L412,-107L412,-103L412,-95L412,-90L408,-85L402,-78L395,-78L368,-88L365,-91L362,-95L359,-100L360,-103L364,-107L366,-106L368,-102L372,-99L376,-99L384,-101L393,-102L400,-104L404,-105L407,-107Z" fill="#E0E0E0" stroke="#fff" stroke-width=".4"/><path d="M286,-3L269,-2L260,-2L257,-1L252,1L250,0L250,-6L252,-9L253,-16L254,-20L258,-24L261,-26L263,-29L260,-30L261,-40L264,-42L269,-41L276,-43L282,-42L287,-46L291,-41L292,-36L296,-27L293,-21L289,-15L286,-12Z" fill="#E0E0E0" stroke="#fff" stroke-width=".4"/><path d="M257,-1L260,3L260,8L258,9L253,9L251,14L245,13L246,8L247,8L248,3L250,0L252,1Z" fill="#E0E0E0" stroke="#fff" stroke-width=".4"/><path d="M261,-40L253,-46L251,-49L247,-48L243,-48L240,-47L237,-48L232,-55L230,-57L224,-61L222,-66L218,-69L213,-74L213,-76L208,-80L203,-83L205,-84L208,-86L210,-93L212,-97L218,-98L220,-96L224,-91L226,-90L229,-92L236,-91L237,-90L245,-90L245,-91L250,-93L250,-96L254,-97L261,-92L265,-93L269,-99L274,-104L273,-109L271,-112L276,-112L277,-114L280,-113L279,-107L280,-101L285,-98L286,-95L286,-90L287,-90L287,-84L286,-81L281,-81L278,-76L283,-75L288,-71L289,-68L293,-66L298,-57L292,-51L287,-46L282,-42L276,-43L269,-41L264,-42Z" fill="#E0E0E0" stroke="#fff" stroke-width=".4"/></g><g clip-path="url(#v)"><path d="M417.0,94.0L417.3,94.9L417.8,95.7L419.2,97.8L419.8,98.6L420.3,99.5L420.5,101.2L421.4,103.8L422.3,107.8L422.5,111.9L422.8,113.8L423.4,115.5L424.5,117.4L424.8,119.4L424.2,121.5L423.2,123.5L423.0,123.9L422.6,124.4L422.4,124.4L421.6,123.9L421.0,123.0L420.2,121.0L419.9,120.1L419.6,119.9L418.7,120.0L418.0,120.6L417.9,121.0L418.0,122.1L418.3,123.1L418.4,124.1L418.4,125.4L418.7,125.8L419.0,126.2L419.4,127.0L419.5,129.0L419.2,130.0L418.6,130.9L418.6,131.4L418.9,131.9L418.6,132.2L417.8,132.5L417.4,132.9L417.0,133.8L416.2,135.6L416.1,136.5L416.6,139.3L416.4,141.4L415.5,145.2L414.9,147.0L414.2,149.2L413.0,152.1L411.8,155.8L410.8,159.5L410.0,161.8L409.2,164.0L408.0,168.0L407.0,172.0L405.6,176.4L403.5,181.4L403.3,182.0L402.9,184.6L402.4,186.8L401.9,189.0L400.8,192.7L400.6,193.8L400.4,194.9L399.3,197.1L398.8,198.0L398.5,198.9L398.4,200.1L398.0,201.2L397.2,203.2L396.0,205.0L395.2,205.6L393.5,206.6L392.6,206.8L390.6,206.8L388.7,207.3L386.7,208.3L384.8,209.5L384.1,210.1L383.2,210.4L380.8,210.5L380.0,210.2L377.4,208.3L376.5,208.0L374.6,207.7L374.1,207.5L373.6,207.3L372.8,206.3L371.3,205.4L370.9,205.2L370.7,204.6L370.6,203.9L370.2,203.2L369.9,201.9L369.4,200.9L368.1,199.3L367.9,198.8L367.8,197.0L367.8,195.8L367.7,193.7L367.8,192.6L368.3,191.7L368.1,190.7L367.6,189.7L367.4,188.6L367.1,187.6L365.6,185.9L365.3,185.0L365.0,184.1L364.5,181.3L364.4,180.3L364.5,178.3L364.7,177.2L365.1,176.5L365.2,175.9L365.4,175.5L365.7,175.1L365.9,174.7L366.5,172.0L367.2,171.5L368.2,171.1L369.0,170.5L369.5,169.5L369.9,167.7L371.2,165.8L371.6,164.8L372.7,163.3L373.6,161.2L373.8,160.2L374.0,159.2L374.3,157.0L374.4,155.9L374.4,154.9L373.9,153.7L372.7,151.7L372.6,151.4L372.7,149.8L372.6,148.8L372.1,147.7L371.6,146.7L371.0,144.8L370.7,141.7L370.8,140.5L370.6,139.5L370.2,138.6L370.5,136.9L374.2,130.9L374.3,130.2L374.2,128.3L374.2,127.3L374.4,126.9L374.6,126.6L375.3,126.5L378.3,126.3L378.6,126.1L379.4,125.6L380.4,124.6L380.9,124.3L381.3,124.4L381.5,124.9L381.9,125.1L383.1,124.6L383.5,124.6L384.0,124.7L384.2,124.3L384.4,123.7L384.5,123.4L384.9,123.1L386.4,123.0L387.4,122.9L388.7,122.5L389.0,122.6L390.0,123.9L390.3,124.1L390.7,124.1L391.1,123.9L390.2,123.1L390.1,122.7L390.1,122.3L390.6,121.3L391.3,120.5L393.0,119.4L394.7,118.1L395.3,118.0L395.7,118.2L396.0,119.7L396.0,120.0L396.3,120.0L396.6,119.8L396.9,119.2L396.9,118.7L396.6,118.2L396.5,117.8L396.5,117.4L397.4,116.5L398.1,115.6L398.4,114.5L398.7,114.1L399.4,113.5L399.6,113.6L399.8,114.0L399.9,114.5L399.7,115.0L399.4,115.4L399.3,116.0L399.7,116.2L400.1,116.0L400.7,114.9L401.3,113.9L401.7,113.3L402.2,112.9L403.0,113.0L403.8,113.2L402.5,112.2L402.2,110.6L403.7,108.0L403.7,107.5L404.0,107.3L404.0,107.1L403.3,106.2L403.1,105.8L403.2,105.1L403.6,104.5L404.0,104.1L404.4,104.0L404.8,104.2L405.7,104.9L406.2,105.0L406.9,104.3L407.5,103.5L408.3,102.9L409.3,102.5L410.8,101.1L411.7,98.3L411.8,97.5L411.6,96.5L411.2,95.5L410.7,94.3L410.8,94.0L411.6,94.2L411.9,94.0L412.7,93.0L414.2,91.0L414.7,91.0L415.1,91.3L415.2,91.9L415.5,92.3L416.5,93.3ZM407.0,102.0L407.0,102.3L405.9,102.2L405.7,101.1L406.2,101.0L406.4,100.6L406.7,100.6L407.0,101.5ZM420.3,132.6L419.3,134.2L419.6,132.9L420.7,131.0L421.0,130.8Z" fill="#4ECDC4" stroke="#2C3E50" stroke-width="1"/></g><circle cx="400.0" cy="150.0" r="4" fill="#E74C3C" stroke="#fff" stroke-width="2"/><text x="400.0" y="140.0" text-anchor="middle" font-family="sans-serif" font-weight="700" font-size="10" fill="#2D3436">Antananarivo</text></svg>