<svg viewBox="0 0 800 300" xmlns="http://www.w3.org/2000/svg"><defs><clipPath id="v"><rect width="800" height="300"/></clipPath></defs><rect width="800" height="300" fill="#DCEEF8"/><g clip-path="url(#v)"><path d="M-271,365L-233,380L-192,392L-177,404L-165,415L-161,428L-124,442L-119,454L-139,456L-134,471L-115,485L-100,509L-88,508L-89,518L-72,522L-78,526L-55,536L-57,542L-72,544L-77,538L-96,535L-119,532L-136,518L-148,505L-160,486L-189,476L-207,483L-221,490L-218,506L-235,514L-248,510L-271,509L-271,437ZM-14,388L-6,395L-3,407L-10,412L-14,399L-19,391L-29,384L-42,374L-58,368L-52,362L-40,369L-32,373L-23,379ZM-44,436L-56,442L-67,447L-79,447L-97,440L-110,434L-108,427L-88,431L-76,429L-72,418L-69,418L-67,429L-55,428L-48,420L-36,412L-38,399L-25,399L-21,402L-21,415L-29,428L-40,430ZM33,425L39,430L50,444L61,452L58,458L51,460L42,452L32,438L27,421L30,419Z" fill="#E0E0E0" stroke="#fff" stroke-width=".4"/><path d="M195,540L202,548L186,548L178,534L191,539ZM186,520L182,524L166,505L161,492L169,492L177,509ZM167,526L159,527L145,525L141,521L142,512L157,516L164,520ZM141,485L146,492L147,496L129,487L117,479L109,472L112,469L122,475ZM85,463L94,470L90,471L80,466L71,457L72,453Z" fill="#E0E0E0" stroke="#fff" stroke-width=".4"/></g><g clip-path="url(#v)"><path d="M361.5,178.0L361.0,178.7L360.5,178.6L361.0,178.1L361.3,177.4L361.8,175.5L362.9,174.7L363.7,173.9L363.4,174.8L362.2,175.7ZM343.6,145.1L343.3,145.5L341.2,145.3L340.2,144.8L340.3,144.5L342.0,144.8ZM404.3,150.9L405.2,151.4L406.8,151.4L408.3,152.6L407.7,152.5L407.0,152.0L406.2,151.8L405.2,151.8L404.7,151.7ZM393.8,148.9L396.6,150.1L400.3,149.5L399.7,149.9L398.4,150.2L397.4,150.5L396.8,150.5L396.1,150.4L393.7,149.6L392.4,148.5L392.7,148.2ZM300.8,59.1L300.2,59.2L299.8,59.1L300.1,58.7L300.8,58.7L301.0,58.8Z" fill="#4ECDC4" stroke="#2C3E50" stroke-width="1"/></g><circle cx="400.0" cy="150.0" r="4" fill="#E74C3C" stroke="#fff" stroke-width="2"/><text x="400.0" y="140.0" text-anchor="middle" font-family="sans-serif" font-weight="700" font-size="10" fill="#2D3436">Majuro</text></svg>