<svg viewBox="0 0 800 300" xmlns="http://www.w3.org/2000/svg"><defs><clipPath id="v"><rect width="800" height="300"/></clipPath></defs><rect width="800" height="300" fill="#DCEEF8"/><g clip-path="url(#v)"><path d="M1029,-754L1052,-750L1067,-773L1085,-768L1148,-777L1187,-722L1172,-702L1177,-672L1226,-667L1247,-625L1246,-606L1323,-573L1369,-588L1407,-543L1443,-544L1532,-514L1533,-486L1508,-438L1522,-387L1512,-357L1453,-350L1422,-325L1420,-285L1371,-278L1331,-249L1274,-245L1222,-212L1225,-165L1216,-168L1208,-185L1188,-188L1145,-207L1129,-186L1121,-195L1026,-217L1022,-250L966,-239L944,-191L897,-127L869,-141L840,-127L813,-143L829,-153L839,-183L856,-211L851,-226L864,-233L870,-221L906,-219L922,-225L911,-234L915,-247L894,-270L885,-307L863,-322L867,-352L840,-377L815,-380L770,-409L730,-400L715,-386L689,-386L674,-365L630,-356L609,-342L581,-364L542,-365L504,-375L478,-355L474,-380L440,-405L452,-442L469,-466L482,-460L466,-502L521,-581L551,-592L558,-619L527,-703L557,-707L590,-733L637,-736L698,-728L766,-704L814,-702L837,-688L859,-705L875,-682L930,-687L954,-678L958,-727L977,-748Z" fill="#E0E0E0" stroke="#fff" stroke-width=".4"/><path d="M440,-405L474,-380L478,-355L441,-337L412,-276L375,-216L326,-199L289,-203L242,-180L219,-167L169,-184L124,-221L105,-232L93,-262L82,-263L103,-321L91,-340L125,-340L130,-377L161,-354L183,-344L234,-355L239,-373L263,-376L293,-390L299,-385L328,-396L342,-418L362,-423L427,-395Z" fill="#E0E0E0" stroke="#fff" stroke-width=".4"/><path d="M715,-386L730,-400L770,-409L815,-380L840,-377L867,-352L863,-322L885,-307L894,-270L915,-247L911,-234L922,-225L906,-219L870,-221L864,-233L851,-226L856,-211L839,-183L829,-153L813,-143L802,-183L809,-221L807,-259L772,-312L752,-350L734,-377Z" fill="#E0E0E0" stroke="#fff" stroke-width=".4"/><path d="M813,-143L840,-127L869,-141L897,-127L898,-104L868,-86L850,-94L833,9L797,-0L753,-31L682,-11L651,10L562,6L516,-7L492,-1L475,-36L463,-51L478,-65L462,-76L443,-57L408,-81L403,-117L366,-137L360,-165L326,-199L375,-216L412,-276L441,-337L478,-355L504,-375L542,-365L581,-364L609,-342L630,-356L674,-365L689,-386L715,-386L734,-377L752,-350L772,-312L807,-259L809,-221L802,-183Z" fill="#E0E0E0" stroke="#fff" stroke-width=".4"/><path d="M475,-36L492,-1L516,-7L562,6L651,10L682,-11L753,-31L797,-0L833,9L801,43L779,102L799,149L747,138L685,164L684,205L629,212L586,184L537,206L492,204L488,150L458,124L468,112L461,102L471,76L494,50L465,14L460,-17Z" fill="#E0E0E0" stroke="#fff" stroke-width=".4"/><path d="M695,672L687,694L600,700L601,688L527,673L538,642L571,667L618,662L664,668L662,681ZM492,204L537,206L586,184L629,212L684,205L685,164L714,186L695,236L681,245L644,243L612,235L539,256L581,301L550,314L516,314L484,273L473,291L486,338L517,375L494,392L528,428L558,450L558,494L502,473L520,513L482,521L505,588L464,589L415,556L392,495L381,443L358,408L326,363L322,341L351,302L354,276L374,265L375,244L415,237L438,219L471,221L481,207Z" fill="#E0E0E0" stroke="#fff" stroke-width=".4"/><path d="M1818,531L1789,544L1767,524L1697,514L1671,526L1601,538L1569,537L1499,565L1449,566L1417,551L1350,573L1330,558L1327,600L1310,616L1294,633L1272,599L1295,570L1258,577L1207,559L1165,603L1073,611L1024,571L958,568L944,600L902,609L844,568L777,570L741,494L697,451L726,391L688,353L755,278L849,274L874,213L990,224L1063,172L1134,149L1234,147L1340,204L1428,235L1498,223L1551,230L1622,188L1687,184L1746,224L1756,252L1750,291L1795,311L1819,334L1777,356L1797,446L1784,470ZM685,164L747,138L799,149L806,181L859,207L848,227L776,231L750,256L699,299L680,262L681,245L695,236L714,186Z" fill="#E0E0E0" stroke="#fff" stroke-width=".4"/><path d="M375,244L374,265L354,276L351,302L322,341L312,335L311,318L277,291L272,253L277,198L285,173L275,160L271,134L297,93L301,109L318,102L330,124L345,132L349,162L341,189L350,224Z" fill="#E0E0E0" stroke="#fff" stroke-width=".4"/><path d="M105,-232L124,-221L169,-184L219,-167L242,-180L257,-146L276,-122L253,-89L225,-108L183,-107L131,-121L103,-120L89,-102L68,-121L55,-86L85,-46L98,-20L126,12L149,30L172,65L226,97L219,111L162,80L127,50L71,25L20,-37L32,-43L5,-79L4,-108L-36,-121L-54,-84L-72,-113L-71,-143L-69,-144L-26,-141L-15,-156L5,-142L29,-140L29,-165L50,-173L56,-209Z" fill="#E0E0E0" stroke="#fff" stroke-width=".4"/><path d="M-267,-267L-230,-254L-223,-271L-164,-286L-150,-256L-63,-233L-70,-189L-55,-152L-103,-165L-153,-134L-150,-91L-157,-67L-137,-24L-80,19L-49,87L18,154L66,153L80,171L63,187L118,217L162,241L215,283L221,298L210,326L176,289L123,276L98,327L141,356L134,397L109,402L76,468L51,474L51,451L64,409L77,392L53,347L35,307L9,297L-8,263L-48,248L-74,216L-119,211L-166,174L-222,121L-263,73L-282,-9L-312,-19L-362,-47L-390,-36L-425,4L-450,10L-443,-27L-476,-38L-492,-104L-471,-130L-488,-162L-486,-187L-460,-169L-431,-173L-396,-202L-386,-188L-357,-191L-344,-227L-299,-215L-272,-230ZM-5,456L41,450L19,510L28,534L16,573L-31,544L-62,536L-146,497L-138,457L-67,465ZM-373,239L-342,214L-306,271L-314,376L-342,371L-367,397L-390,376L-392,281L-406,235Z" fill="#E0E0E0" stroke="#fff" stroke-width=".4"/><path d="M-63,-233L-13,-226L18,-246L71,-248L82,-263L93,-262L105,-232L56,-209L50,-173L29,-165L29,-140L5,-142L-15,-156L-26,-141L-69,-144L-55,-152L-70,-189Z" fill="#E0E0E0" stroke="#fff" stroke-width=".4"/><path d="M226,97L172,65L149,30L126,12L98,-20L85,-46L55,-86L68,-121L89,-102L103,-120L131,-121L183,-107L225,-108L253,-89L275,-90L260,-52L289,-19L280,20L266,24L254,32L235,51Z" fill="#E0E0E0" stroke="#fff" stroke-width=".4"/><path d="M242,-180L289,-203L326,-199L360,-165L366,-137L403,-117L408,-81L443,-57L462,-76L478,-65L463,-51L475,-36L460,-17L465,14L494,50L471,76L461,102L468,112L458,124L430,125L409,130L407,124L414,114L421,94L412,94L401,79L391,75L383,62L371,57L363,45L352,50L343,77L329,83L334,76L311,59L291,50L282,38L266,24L280,20L289,-19L260,-52L275,-90L253,-89L276,-122L257,-146Z" fill="#E0E0E0" stroke="#fff" stroke-width=".4"/><path d="M318,102L301,109L297,93L271,134L275,160L262,154L245,127L219,111L226,97L235,51L254,32L266,24L282,38L291,50L311,59L334,76L329,83Z" fill="#E0E0E0" stroke="#fff" stroke-width=".4"/><path d="M349,162L345,132L330,124L318,102L329,83L343,77L352,50L363,45L371,57L383,62L391,75L401,79L412,94L421,94L414,114L407,124L409,130L395,133L360,146L357,162Z" fill="#E0E0E0" stroke="#fff" stroke-width=".4"/></g><g clip-path="url(#v)"><path d="M408.0,129.7L411.5,130.1L418.8,128.1L423.3,125.1L425.8,124.7L428.8,123.6L433.2,123.7L437.8,125.0L443.5,123.4L449.1,120.7L451.6,121.3L454.0,123.7L455.5,124.3L464.9,136.5L469.9,141.4L476.0,145.2L483.0,147.9L485.4,150.6L489.8,163.5L492.0,168.3L494.8,169.8L495.5,171.3L495.7,173.1L492.4,182.1L491.1,202.4L490.3,203.9L486.8,203.9L482.2,204.4L480.4,205.9L478.7,216.7L471.2,219.8L464.7,221.6L459.0,221.2L449.1,218.7L445.9,218.4L443.0,219.8L434.3,220.5L430.3,222.4L421.2,235.0L412.0,239.5L408.9,241.6L401.7,238.8L398.4,238.5L393.6,241.7L382.9,242.1L380.1,242.7L371.7,243.1L371.3,241.4L369.8,238.9L366.1,237.7L358.2,238.7L356.2,236.8L352.9,226.1L350.5,224.4L347.7,220.8L342.9,209.1L342.7,203.9L343.1,199.4L340.5,189.0L342.0,186.4L344.4,184.7L344.4,180.4L343.8,173.9L346.8,161.2L347.5,160.4L348.3,160.9L355.3,161.9L357.1,160.4L358.4,157.8L358.6,148.5L360.4,144.2L377.4,136.0L382.5,135.7L386.4,139.5L389.5,141.9L391.2,141.8L391.9,139.4L394.0,134.7L397.5,132.0Z" fill="#4ECDC4" stroke="#2C3E50" stroke-width="1"/></g><circle cx="400.0" cy="150.0" r="4" fill="#E74C3C" stroke="#fff" stroke-width="2"/><text x="400.0" y="140.0" text-anchor="middle" font-family="sans-serif" font-weight="700" font-size="10" fill="#2D3436">Skopje</text></svg>