<svg viewBox="0 0 800 300" xmlns="http://www.w3.org/2000/svg"><defs><clipPath id="v"><rect width="800" height="300"/></clipPath></defs><rect width="800" height="300" fill="#DCEEF8"/><g clip-path="url(#v)"><path d="M1826,384L1828,383L1831,385L1829,389L1825,390L1820,389L1820,386L1823,383ZM1840,376L1836,378L1831,380L1830,377L1834,375L1836,375L1840,372L1840,372L1840,376ZM-918,372L-918,372L-918,372L-916,372L-917,376L-918,376L-918,376L-918,372Z" fill="#E0E0E0" stroke="#fff" stroke-width=".4"/><path d="M721,255L722,256L750,271L751,276L762,284L758,293L759,297L763,300L764,302L762,307L762,309L762,313L764,318L767,326L770,327L764,332L756,335L751,335L748,337L743,337L741,338L732,336L726,337L724,326L721,322L720,320L712,319L708,316L703,315L700,314L697,312L693,302L688,298L687,293L687,289L686,282L689,282L692,279L695,275L697,273L697,271L695,269L695,266L697,265L697,261L694,256L697,255L705,256Z" fill="#E0E0E0" stroke="#fff" stroke-width=".4"/><path d="M395,27L395,28L395,29L395,42L370,42L370,63L363,64L361,68L362,80L332,80L331,83L331,80L331,80L348,79L349,76L352,72L355,61L366,52L369,41L371,40L374,34L380,33L383,34L387,34L389,32L394,32L394,27Z" fill="#E0E0E0" stroke="#fff" stroke-width=".4"/><path d="M-480,-184L-481,-184L-496,-196L-501,-201L-515,-206L-519,-217L-518,-224L-528,-230L-529,-240L-539,-250L-539,-256L-535,-263L-535,-271L-548,-280L-556,-296L-560,-307L-567,-313L-573,-319L-577,-327L-584,-322L-592,-314L-599,-324L-604,-330L-611,-335L-619,-335L-619,-432L-619,-508L-605,-502L-593,-492L-585,-490L-578,-499L-569,-506L-557,-503L-546,-513L-533,-519L-528,-509L-522,-514L-520,-525L-515,-523L-502,-503L-492,-518L-491,-501L-482,-504L-479,-511L-469,-510L-458,-500L-440,-492L-429,-489L-422,-490L-411,-480L-422,-469L-408,-465L-388,-467L-381,-471L-373,-459L-365,-469L-372,-478L-367,-485L-358,-486L-352,-488L-346,-483L-338,-472L-330,-473L-316,-464L-304,-467L-293,-467L-294,-480L-287,-483L-275,-476L-275,-457L-270,-473L-264,-473L-261,-494L-269,-507L-278,-516L-277,-542L-268,-559L-258,-555L-250,-545L-240,-518L-247,-507L-232,-503L-232,-481L-222,-498L-213,-484L-215,-469L-208,-455L-200,-470L-194,-488L-194,-512L-183,-510L-172,-507L-161,-496L-161,-485L-167,-474L-161,-463L-162,-453L-177,-440L-188,-437L-196,-443L-198,-433L-206,-417L-208,-410L-217,-398L-228,-396L-234,-389L-234,-378L-243,-376L-252,-362L-261,-344L-264,-332L-264,-315L-253,-312L-249,-298L-246,-288L-235,-290L-221,-284L-213,-279L-208,-273L-198,-269L-190,-263L-177,-262L-169,-261L-170,-249L-168,-236L-162,-222L-151,-211L-145,-215L-141,-227L-145,-248L-150,-255L-138,-261L-129,-270L-125,-280L-126,-289L-131,-301L-140,-312L-131,-328L-135,-342L-137,-367L-132,-371L-119,-367L-111,-365L-104,-369L-97,-364L-88,-354L-86,-348L-72,-347L-72,-334L-70,-315L-63,-312L-57,-304L-46,-312L-39,-328L-34,-336L-28,-322L-18,-303L-9,-286L-12,-277L-2,-269L5,-262L17,-258L22,-254L25,-243L31,-241L34,-236L35,-222L29,-217L24,-213L11,-209L1,-199L-12,-197L-28,-199L-40,-200L-47,-199L-54,-190L-64,-185L-75,-170L-84,-159L-77,-161L-65,-176L-49,-186L-37,-187L-30,-181L-38,-173L-35,-161L-33,-153L-23,-147L-10,-149L-2,-161L-2,-153L3,-149L-6,-142L-23,-136L-31,-131L-40,-124L-45,-124L-46,-133L-32,-142L-45,-142L-53,-141L-58,-147L-58,-162L-62,-165L-67,-163L-69,-166L-75,-158L-77,-149L-80,-144L-83,-143L-86,-142L-87,-139L-101,-139L-112,-139L-116,-137L-124,-129L-125,-129L-127,-125L-134,-125L-142,-124L-145,-123L-144,-121L-143,-118L-144,-116L-154,-111L-161,-110L-170,-104L-172,-104L-175,-106L-176,-107L-176,-108L-174,-112L-170,-118L-168,-124L-170,-133L-171,-143L-179,-148L-178,-150L-179,-151L-181,-151L-183,-153L-183,-156L-185,-155L-187,-155L-186,-156L-188,-157L-189,-160L-195,-164L-201,-168L-209,-172L-216,-176L-223,-173L-225,-173L-235,-176L-241,-174L-248,-178L-256,-180L-261,-180L-264,-182L-265,-189L-268,-189L-268,-184L-284,-184L-310,-184L-336,-184L-359,-184L-382,-184L-405,-184L-428,-184L-435,-184L-458,-184ZM-182,-369L-177,-377L-166,-377L-166,-374L-175,-365L-181,-365ZM-150,-582L-158,-596L-158,-605L-154,-607L-137,-604L-124,-589L-123,-582L-131,-583L-139,-584L-148,-580ZM-154,-363L-151,-368L-148,-368L-146,-365L-149,-356L-152,-357L-154,-362ZM-256,-642L-260,-630L-271,-633L-281,-640L-276,-654L-265,-662L-259,-651ZM-258,-724L-261,-723L-276,-725L-278,-735L-262,-735L-257,-728ZM-280,-770L-271,-757L-273,-743L-284,-736L-291,-744L-294,-758L-294,-775L-284,-773ZM-214,-625L-226,-628L-247,-638L-249,-654L-250,-669L-258,-683L-274,-687L-283,-697L-280,-711L-264,-709L-256,-698L-241,-698L-234,-687L-236,-675L-227,-668L-222,-661L-212,-659L-201,-657L-188,-664L-173,-666L-160,-664L-152,-652L-150,-640L-155,-632L-167,-626L-176,-630L-198,-625ZM-391,-747L-380,-741L-383,-730L-397,-720L-409,-732L-402,-743ZM-389,-772L-379,-764L-388,-757L-401,-757L-401,-762L-393,-774ZM35,-212L31,-204L26,-194L31,-198L36,-195L34,-191L40,-188L44,-191L52,-187L49,-179L55,-181L56,-174L58,-167L55,-157L51,-157L46,-159L48,-168L46,-170L37,-160L32,-160L38,-166L30,-168L22,-168L7,-168L6,-171L11,-176L7,-179L14,-186L22,-205L27,-212L33,-216L37,-215ZM-181,-416L-173,-409L-164,-404L-164,-395L-158,-397L-152,-391L-159,-386L-171,-390L-175,-398L-183,-388L-194,-380L-197,-390L-207,-388L-200,-396L-199,-410L-197,-427L-191,-426L-190,-418L-186,-420ZM-142,-570L-135,-580L-118,-567L-107,-555L-106,-545L-92,-550L-84,-535L-66,-526L-59,-517L-52,-496L-66,-486L-48,-473L-36,-468L-25,-450L-13,-449L-15,-435L-28,-414L-38,-421L-50,-439L-60,-437L-61,-426L-53,-416L-42,-407L-39,-403L-34,-385L-37,-373L-47,-378L-66,-391L-55,-377L-47,-367L-46,-361L-66,-367L-83,-377L-92,-385L-90,-390L-101,-399L-112,-408L-112,-403L-134,-400L-141,-406L-136,-419L-121,-420L-105,-422L-108,-429L-105,-438L-95,-457L-97,-466L-100,-473L-112,-483L-128,-490L-123,-495L-131,-509L-138,-510L-144,-518L-148,-511L-162,-508L-190,-513L-206,-520L-218,-523L-225,-532L-217,-542L-227,-542L-230,-567L-224,-590L-216,-601L-196,-608L-202,-591L-196,-575L-189,-596L-169,-607L-156,-579L-157,-563ZM-263,-617L-247,-617L-232,-610L-244,-586L-253,-581L-261,-562L-270,-563L-275,-585L-274,-598L-270,-610ZM-480,-677L-467,-701L-451,-724L-440,-723L-429,-728L-430,-702L-436,-690L-443,-688L-457,-675L-470,-670ZM-556,-246L-548,-247L-550,-233L-544,-223L-547,-223L-551,-228L-554,-234L-558,-238L-560,-244L-559,-248ZM-347,-792L-332,-786L-311,-772L-305,-753L-302,-738L-315,-742L-327,-754L-345,-755L-337,-767L-346,-776ZM-485,-178L-489,-177L-501,-182L-504,-186L-511,-190L-512,-194L-520,-196L-523,-202L-522,-205L-514,-203L-509,-201L-502,-199L-500,-195L-496,-190L-488,-185ZM-470,-626L-459,-620L-439,-619L-432,-611L-424,-599L-433,-593L-452,-574L-462,-557L-462,-546L-482,-535L-486,-545L-504,-558L-500,-569L-495,-587L-488,-605L-496,-622ZM-365,-668L-358,-673L-350,-672L-349,-657L-353,-643L-379,-638L-399,-625L-410,-625L-411,-634L-395,-647L-430,-644L-441,-649L-430,-679L-423,-688L-401,-678L-388,-659L-374,-657L-385,-687L-378,-699L-370,-695L-368,-679ZM-355,-589L-346,-578L-341,-554L-339,-537L-326,-525L-312,-515L-313,-505L-326,-503L-321,-495L-324,-487L-337,-490L-351,-496L-359,-495L-374,-488L-393,-484L-407,-482L-411,-492L-422,-498L-428,-496L-438,-513L-433,-516L-421,-519L-410,-518L-400,-522L-415,-528L-431,-526L-442,-526L-446,-535L-428,-544L-440,-544L-454,-550L-447,-569L-442,-579L-421,-595L-413,-590L-417,-578L-400,-586L-390,-573L-381,-586L-374,-577L-368,-553L-364,-563L-369,-589L-362,-593ZM-308,-579L-317,-596L-308,-609L-299,-604L-285,-607L-283,-599L-290,-586L-278,-575L-280,-553L-292,-544L-300,-546L-305,-555L-324,-574L-324,-582ZM-355,-603L-345,-604L-339,-598L-346,-580L-358,-599ZM-293,-696L-288,-681L-287,-665L-291,-642L-303,-639L-312,-644L-312,-662L-324,-659L-325,-684L-316,-683L-305,-694L-294,-692ZM-274,-849L-269,-864L-261,-867L-265,-878L-247,-881L-237,-855L-224,-845L-212,-836L-205,-807L-196,-793L-207,-781L-221,-752L-234,-749L-250,-754L-259,-770L-258,-784L-252,-795L-266,-795L-275,-809L-280,-829ZM-240,-914L-229,-925L-220,-927L-205,-936L-194,-958L-184,-955L-176,-938L-170,-970L-160,-980L-146,-987L-123,-990L-119,-983L-97,-994L-80,-990L-64,-986L-43,-981L-27,-973L-13,-956L-13,-941L-32,-916L-50,-905L-57,-893L-40,-894L-59,-863L-71,-850L-84,-813L-100,-806L-105,-797L-128,-793L-117,-788L-123,-780L-116,-761L-124,-748L-135,-738L-139,-723L-150,-713L-149,-705L-136,-707L-135,-698L-156,-679L-176,-688L-198,-683L-210,-686L-224,-688L-225,-704L-211,-712L-215,-738L-210,-740L-190,-725L-200,-748L-213,-755L-206,-770L-193,-780L-191,-794L-202,-810L-205,-833L-184,-831L-178,-826L-166,-843L-183,-848L-210,-845L-223,-861L-230,-881L-239,-896ZM-115,-460L-120,-454L-129,-453L-130,-463L-127,-474L-120,-477L-114,-472L-114,-463ZM-276,-503L-272,-495L-276,-487L-287,-494L-293,-491L-303,-501L-297,-508L-291,-517L-283,-511L-279,-507ZM-33,-194L-30,-195L-20,-192L-12,-188L-12,-185L-16,-185L-26,-189ZM-29,-162L-27,-156L-21,-155L-14,-155L-18,-150L-20,-150L-30,-154L-32,-158Z" fill="#E0E0E0" stroke="#fff" stroke-width=".4"/><path d="M-480,-184L-458,-184L-435,-184L-428,-184L-405,-184L-382,-184L-359,-184L-336,-184L-310,-184L-284,-184L-268,-184L-268,-189L-265,-189L-264,-182L-261,-180L-256,-180L-248,-178L-241,-174L-235,-176L-225,-173L-223,-173L-216,-176L-209,-172L-201,-168L-195,-164L-189,-160L-188,-157L-186,-156L-187,-155L-185,-155L-183,-156L-183,-153L-181,-151L-179,-151L-178,-150L-179,-148L-171,-143L-170,-133L-168,-124L-170,-118L-174,-112L-176,-108L-176,-107L-175,-106L-172,-104L-170,-104L-161,-110L-154,-111L-144,-116L-143,-118L-144,-121L-145,-123L-142,-124L-134,-125L-127,-125L-125,-129L-124,-129L-116,-137L-112,-139L-101,-139L-87,-139L-86,-142L-83,-143L-80,-144L-77,-149L-75,-158L-69,-166L-67,-163L-62,-165L-58,-162L-58,-147L-53,-141L-52,-137L-60,-132L-68,-128L-76,-125L-80,-119L-81,-116L-81,-111L-79,-105L-76,-105L-76,-109L-74,-107L-75,-104L-80,-102L-84,-102L-89,-101L-93,-100L-97,-100L-103,-97L-92,-98L-90,-97L-101,-94L-106,-94L-105,-95L-108,-92L-105,-91L-107,-84L-113,-77L-113,-79L-115,-80L-117,-82L-116,-77L-114,-75L-114,-71L-116,-68L-121,-60L-121,-60L-119,-67L-123,-71L-124,-79L-125,-74L-124,-68L-129,-70L-123,-67L-123,-57L-121,-57L-120,-54L-119,-44L-124,-37L-132,-34L-137,-29L-141,-28L-144,-25L-146,-22L-154,-16L-158,-12L-162,-6L-163,0L-162,6L-159,14L-156,20L-156,24L-152,34L-152,40L-153,43L-155,48L-157,49L-161,48L-162,44L-165,42L-169,35L-172,28L-174,25L-172,19L-174,14L-180,7L-183,6L-191,10L-192,9L-196,5L-201,3L-209,4L-216,3L-222,4L-225,5L-224,8L-224,11L-222,13L-224,14L-227,13L-229,14L-235,14L-241,9L-247,11L-253,8L-258,9L-264,11L-271,18L-279,21L-283,26L-285,29L-285,35L-284,40L-283,42L-286,43L-291,41L-297,38L-300,34L-301,28L-306,23L-308,18L-312,12L-318,9L-324,9L-329,16L-335,13L-339,10L-341,6L-343,1L-348,-3L-352,-6L-355,-9L-368,-9L-368,-5L-374,-5L-389,-5L-407,-12L-418,-16L-418,-18L-427,-17L-436,-16L-437,-21L-442,-26L-446,-27L-447,-30L-451,-30L-454,-33L-461,-34L-463,-35L-464,-40L-471,-50L-478,-63L-477,-65L-481,-69L-487,-77L-488,-85L-492,-90L-490,-99L-490,-108L-493,-115L-490,-125L-489,-135L-488,-145L-489,-160L-492,-169L-494,-175L-493,-177L-482,-173L-478,-162L-476,-165L-477,-175ZM-729,91L-728,91L-727,92L-725,95L-725,96L-728,97L-730,99L-732,100L-733,99L-733,97L-735,94L-734,93L-733,91L-733,90L-733,89L-732,89ZM-734,85L-735,86L-737,87L-738,85L-739,84L-739,84L-739,83L-736,84ZM-740,82L-740,83L-744,82L-744,81ZM-749,77L-749,78L-747,80L-747,81L-748,81L-750,81L-751,79L-752,78ZM-760,73L-760,75L-761,76L-763,74L-763,74L-762,73ZM-814,-336L-808,-335L-807,-329L-812,-327L-817,-330L-822,-334ZM-713,-300L-708,-299L-704,-295L-711,-288L-719,-283L-723,-286L-724,-293L-717,-298ZM-619,-508L-619,-432L-619,-335L-611,-335L-604,-330L-599,-324L-592,-314L-584,-322L-577,-327L-573,-319L-567,-313L-560,-307L-556,-296L-548,-280L-535,-271L-535,-263L-539,-256L-543,-261L-550,-266L-552,-278L-562,-289L-566,-302L-573,-303L-586,-304L-595,-308L-610,-323L-618,-326L-631,-332L-642,-330L-657,-338L-666,-344L-674,-341L-673,-330L-677,-329L-686,-326L-693,-321L-701,-318L-702,-327L-699,-342L-691,-347L-693,-351L-703,-342L-708,-331L-719,-321L-713,-313L-720,-303L-729,-297L-736,-292L-738,-286L-750,-279L-753,-272L-762,-267L-767,-268L-774,-264L-782,-259L-788,-255L-801,-251L-802,-253L-794,-260L-787,-264L-778,-271L-769,-273L-765,-278L-755,-287L-753,-289L-747,-294L-746,-305L-742,-314L-751,-310L-753,-312L-757,-307L-762,-314L-764,-309L-767,-316L-775,-310L-780,-310L-780,-319L-779,-325L-784,-330L-794,-327L-800,-335L-806,-338L-806,-347L-812,-354L-809,-363L-802,-372L-800,-381L-793,-382L-788,-380L-782,-388L-776,-386L-771,-392L-772,-400L-776,-403L-771,-410L-775,-410L-783,-406L-786,-402L-792,-406L-803,-404L-814,-408L-817,-415L-827,-426L-816,-434L-799,-443L-793,-443L-794,-434L-777,-434L-784,-446L-793,-454L-799,-464L-806,-472L-816,-479L-812,-490L-799,-490L-789,-500L-787,-511L-779,-522L-772,-524L-757,-535L-750,-533L-738,-546L-727,-541L-721,-530L-718,-535L-705,-533L-705,-528L-694,-524L-686,-526L-670,-519L-655,-517L-649,-514L-639,-518L-627,-511ZM-855,-392L-850,-389L-845,-391L-839,-386L-831,-384L-832,-382L-838,-378L-843,-382L-846,-385L-853,-384L-855,-386Z" fill="#E0E0E0" stroke="#fff" stroke-width=".4"/><path d="M1131,-187L1125,-179L1118,-178L1118,-166L1114,-161L1099,-165L1093,-145L1089,-143L1074,-138L1081,-120L1076,-117L1076,-111L1072,-113L1068,-116L1056,-117L1044,-118L1041,-117L1030,-121L1026,-119L1024,-113L1012,-116L1007,-115L1005,-110L1001,-108L990,-101L987,-94L984,-94L982,-99L972,-99L971,-107L967,-107L968,-118L959,-126L945,-125L936,-123L929,-133L923,-137L911,-145L910,-146L890,-139L890,-100L886,-100L881,-108L876,-111L867,-109L864,-105L863,-108L865,-112L864,-116L855,-119L851,-129L847,-131L847,-135L854,-134L854,-142L861,-144L868,-142L869,-153L868,-160L860,-159L854,-162L845,-157L838,-155L834,-156L834,-162L830,-170L824,-169L817,-177L822,-186L820,-188L826,-201L833,-194L834,-203L850,-217L862,-217L879,-208L888,-203L896,-209L908,-209L918,-203L920,-206L931,-206L933,-211L921,-220L928,-226L927,-229L934,-233L929,-241L932,-246L961,-250L964,-254L984,-259L990,-264L1004,-261L1007,-248L1015,-251L1025,-246L1024,-239L1031,-240L1050,-252L1048,-248L1057,-238L1075,-206L1079,-213L1089,-206L1100,-209L1104,-207L1108,-200L1113,-197L1117,-192L1127,-194Z" fill="#E0E0E0" stroke="#fff" stroke-width=".4"/><path d="M890,-100L890,-139L910,-146L911,-145L923,-137L929,-133L936,-123L945,-125L959,-126L968,-118L967,-107L971,-107L972,-99L982,-99L984,-94L987,-94L990,-101L1001,-108L1005,-110L1007,-109L1001,-103L1006,-99L1012,-101L1021,-96L1011,-89L1005,-90L1002,-89L1001,-92L1003,-97L993,-95L990,-88L986,-83L980,-83L978,-79L984,-76L985,-69L981,-59L975,-61L971,-61L971,-67L961,-71L953,-76L948,-81L939,-88L935,-98L933,-100L925,-100L922,-102L921,-110L911,-115L904,-109L898,-106L899,-101Z" fill="#E0E0E0" stroke="#fff" stroke-width=".4"/><path d="M-65,724L-62,730L-58,739L-48,747L-37,750L-41,757L-48,758L-52,753L-56,753L-65,753ZM20,491L18,498L16,507L16,516L14,518L14,524L13,529L23,537L22,544L27,548L26,552L19,565L7,570L-8,572L-16,571L-15,577L-16,584L-15,589L-19,593L-27,594L-35,591L-38,593L-37,604L-31,607L-27,603L-25,609L-32,612L-38,619L-39,629L-41,635L-48,635L-54,641L-57,649L-49,657L-42,659L-44,670L-53,676L-58,690L-65,695L-68,700L-66,713L-61,720L-64,720L-71,718L-90,716L-93,709L-93,700L-98,700L-101,696L-101,683L-95,678L-93,671L-94,665L-90,655L-87,641L-88,634L-84,632L-85,628L-89,626L-86,622L-90,618L-92,606L-88,603L-90,591L-88,581L-86,572L-81,568L-84,559L-84,550L-78,544L-78,536L-74,527L-74,518L-76,517L-79,501L-74,492L-75,483L-72,475L-67,467L-62,462L-64,458L-63,456L-63,442L-55,437L-52,429L-53,427L-47,419L-36,421L-32,427L-29,421L-20,421L-19,423L-5,436L1,438L11,444L19,447L20,451L12,464L20,466L28,467L35,466L42,459L43,452L47,450L50,455L50,462L44,467L39,470L30,479Z" fill="#E0E0E0" stroke="#fff" stroke-width=".4"/><path d="M-65,724L-65,753L-56,753L-52,753L-54,758L-61,763L-65,762L-69,761L-75,757L-83,755L-92,748L-100,741L-111,726L-104,729L-94,738L-84,742L-80,736L-77,727L-70,722ZM-72,385L-68,390L-67,396L-63,399L-66,407L-61,416L-58,428L-53,427L-52,429L-55,437L-63,442L-63,456L-64,458L-62,462L-67,467L-72,475L-75,483L-74,492L-79,501L-76,517L-74,518L-74,527L-78,536L-78,544L-84,550L-84,559L-81,568L-86,572L-88,581L-90,591L-88,603L-92,606L-90,618L-86,622L-89,626L-85,628L-84,632L-88,634L-87,641L-90,655L-94,665L-93,671L-95,678L-101,683L-101,696L-98,700L-93,700L-93,709L-90,716L-71,718L-64,720L-71,719L-75,723L-82,727L-83,739L-86,739L-95,735L-103,726L-113,719L-115,711L-113,704L-117,696L-118,676L-115,665L-107,656L-118,653L-111,643L-108,625L-100,629L-96,607L-101,604L-103,617L-108,616L-106,601L-103,582L-100,575L-102,566L-103,555L-99,554L-95,539L-89,524L-86,511L-88,497L-86,490L-86,479L-82,468L-81,452L-78,434L-76,416L-76,402L-78,391L-74,389Z" fill="#E0E0E0" stroke="#fff" stroke-width=".4"/><path d="M686,282L687,289L687,293L688,298L693,302L697,312L694,311L684,312L681,313L679,318L681,322L680,331L679,339L681,340L686,343L688,342L689,350L683,350L680,346L677,342L671,341L669,337L665,340L659,339L656,335L651,334L648,335L647,332L645,332L641,331L636,333L633,332L631,333L631,324L629,321L628,316L629,312L628,309L628,304L618,304L619,301L615,301L615,302L610,303L608,307L607,309L603,308L600,309L595,310L592,306L590,303L588,299L586,293L564,293L561,294L559,294L556,295L555,292L557,291L557,288L558,286L561,284L563,285L565,282L570,282L570,284L573,286L578,281L582,277L584,275L584,269L587,261L591,257L596,253L596,251L597,248L598,246L597,241L598,234L600,230L602,225L603,221L603,216L606,212L610,209L617,212L622,215L627,215L633,217L635,212L636,212L640,212L648,209L651,210L654,210L655,208L658,207L664,208L669,208L671,208L676,214L679,215L681,214L685,214L689,212L691,216L698,221L697,230L700,231L698,234L695,236L692,240L690,243L690,249L688,252L688,258L686,260L685,265L684,265L684,269L686,273Z" fill="#E0E0E0" stroke="#fff" stroke-width=".4"/><path d="M780,261L775,254L775,226L782,218L784,215L789,215L796,210L806,209L827,186L833,180L836,175L836,171L836,163L836,160L836,160L839,160L842,158L846,158L850,155L853,155L853,157L852,162L852,166L851,169L849,177L845,186L840,195L834,207L827,215L818,226L810,232L799,240L792,245L783,255L782,259Z" fill="#E0E0E0" stroke="#fff" stroke-width=".4"/><path d="M762,284L751,276L750,271L722,256L721,255L721,247L723,244L727,239L730,233L726,224L725,220L722,215L727,211L732,205L736,207L736,211L738,214L744,214L753,220L756,220L758,220L759,221L764,221L767,218L774,215L777,218L782,218L775,226L775,254L780,261L775,264L773,267L770,267L769,273L766,276L765,281Z" fill="#E0E0E0" stroke="#fff" stroke-width=".4"/><path d="M650,184L644,181L641,179L641,176L642,173L642,170L637,165L636,162L637,160L634,158L634,153L632,150L629,150L630,148L632,144L631,141L634,139L632,137L634,132L638,126L644,127L644,95L644,91L653,91L653,75L684,75L713,75L744,75L746,83L745,84L746,93L748,103L751,105L756,107L752,112L746,113L744,116L743,121L740,133L740,136L739,143L736,151L731,154L728,160L727,164L724,166L722,174L722,181L722,175L720,175L721,171L720,168L716,165L715,159L716,154L712,153L712,155L707,155L709,158L710,162L705,167L702,172L698,173L691,168L688,170L687,172L683,174L683,175L676,175L675,174L669,174L666,175L664,174L660,170L659,168L653,169L651,172L649,179L647,181L644,181Z" fill="#E0E0E0" stroke="#fff" stroke-width=".4"/><path d="M644,95L644,127L638,126L634,132L632,137L634,139L631,141L632,144L630,148L629,150L632,150L634,153L634,158L637,160L636,162L632,163L628,166L622,175L615,178L608,178L605,179L606,181L602,184L599,187L589,190L587,188L586,188L585,190L578,191L580,189L577,183L576,180L573,179L568,174L570,171L573,171L576,171L580,171L576,164L576,159L575,153L572,148L573,145L568,144L568,139L565,136L568,126L578,119L579,108L581,92L583,88L580,85L580,83L577,81L575,68L583,63L613,79Z" fill="#E0E0E0" stroke="#fff" stroke-width=".4"/><path d="M-88,94L-87,98L-88,101L-90,102L-88,105L-88,107L-93,106L-97,106L-102,106L-105,107L-109,105L-109,102L-101,103L-96,104L-93,102L-96,99L-96,95L-101,94L-99,92L-95,92Z" fill="#E0E0E0" stroke="#fff" stroke-width=".4"/><path d="M-88,107L-88,105L-90,102L-88,101L-87,98L-88,94L-87,92L-81,92L-77,94L-75,94L-73,97L-69,97L-69,99L-66,100L-62,103L-65,106L-69,104L-72,104L-75,104L-76,105L-79,106L-80,104L-83,105L-86,111L-88,109Z" fill="#E0E0E0" stroke="#fff" stroke-width=".4"/><path d="M1180,-869L1196,-881L1211,-856L1229,-812L1227,-775L1210,-770L1189,-782L1176,-797L1170,-828L1160,-837ZM1249,-791L1269,-768L1266,-753L1223,-738L1237,-789L1243,-794ZM1525,-677L1545,-676L1573,-659L1567,-637L1539,-638L1526,-631L1511,-650L1515,-671ZM1597,-653L1616,-645L1607,-633L1595,-636L1581,-648L1583,-657ZM1533,-597L1540,-607L1550,-610L1561,-599L1562,-592L1550,-592L1534,-595ZM805,-849L820,-857L832,-858L833,-845L837,-856L845,-864L856,-854L853,-847L843,-841L836,-837L835,-830L826,-822L818,-833L822,-847ZM635,-250L621,-250L612,-251L614,-257L624,-262L632,-259L636,-257L635,-253ZM871,-607L890,-631L888,-645L905,-661L930,-681L955,-687L969,-699L984,-704L989,-691L984,-680L957,-665L933,-650L909,-622L898,-596L886,-571L887,-550L902,-531L898,-529L873,-532L871,-542L857,-548L856,-562L863,-567L863,-581L878,-603ZM1556,-242L1559,-230L1559,-217L1562,-205L1570,-184L1558,-188L1554,-171L1561,-159L1561,-152L1555,-158L1550,-150L1549,-159L1549,-170L1549,-183L1550,-191L1551,-207L1546,-220L1547,-237L1554,-243L1551,-249L1554,-251ZM-918,-491L-918,-491L-899,-475L-879,-455L-880,-443L-875,-438L-876,-453L-855,-450L-840,-432L-848,-424L-861,-422L-861,-404L-864,-400L-871,-401L-877,-407L-887,-412L-889,-420L-897,-423L-905,-421L-909,-427L-908,-434L-917,-430L-914,-421L-918,-413L-918,-413L-918,-491ZM1840,-413L1840,-413L1831,-405L1821,-407L1828,-397L1832,-383L1836,-378L1837,-371L1835,-367L1820,-371L1799,-358L1792,-356L1780,-345L1769,-336L1766,-329L1755,-339L1735,-327L1732,-333L1725,-326L1714,-328L1712,-318L1703,-304L1703,-298L1712,-295L1711,-275L1704,-274L1700,-263L1703,-257L1690,-250L1687,-235L1676,-232L1674,-220L1663,-208L1660,-217L1657,-235L1652,-264L1656,-283L1662,-292L1663,-298L1675,-301L1688,-320L1702,-336L1715,-348L1721,-371L1712,-370L1708,-356L1688,-339L1682,-358L1662,-353L1643,-327L1649,-317L1632,-314L1620,-312L1621,-323L1609,-325L1599,-318L1576,-320L1551,-316L1526,-288L1497,-255L1509,-254L1512,-246L1520,-243L1525,-249L1533,-248L1544,-234L1545,-223L1539,-211L1538,-197L1534,-178L1523,-161L1520,-154L1510,-141L1500,-128L1495,-122L1484,-116L1480,-116L1475,-121L1465,-113L1463,-110L1463,-110L1462,-112L1462,-117L1466,-117L1467,-130L1465,-139L1472,-143L1481,-141L1486,-151L1489,-164L1492,-168L1496,-178L1483,-175L1477,-170L1465,-170L1462,-181L1453,-189L1439,-193L1437,-205L1434,-212L1431,-218L1426,-230L1420,-235L1408,-239L1398,-238L1388,-236L1382,-230L1386,-227L1386,-220L1382,-216L1375,-203L1375,-198L1364,-190L1355,-195L1346,-194L1342,-198L1338,-199L1326,-191L1316,-189L1309,-186L1300,-188L1292,-187L1288,-194L1280,-199L1273,-201L1263,-199L1256,-197L1245,-202L1243,-211L1234,-214L1227,-216L1219,-221L1211,-208L1214,-201L1207,-193L1195,-196L1188,-196L1183,-202L1175,-202L1168,-206L1156,-200L1142,-190L1134,-188L1131,-187L1127,-194L1117,-192L1113,-197L1108,-200L1104,-207L1100,-209L1089,-206L1079,-213L1075,-206L1057,-238L1048,-248L1050,-252L1031,-240L1024,-239L1025,-246L1015,-251L1007,-248L1004,-261L990,-264L984,-259L964,-254L961,-250L932,-246L929,-241L934,-233L927,-229L928,-226L921,-220L933,-211L931,-206L920,-206L918,-203L908,-209L896,-209L888,-203L879,-208L862,-217L850,-217L834,-203L833,-194L826,-201L820,-188L822,-186L817,-177L824,-169L830,-170L834,-162L834,-156L838,-155L834,-148L827,-146L819,-135L826,-125L825,-118L834,-106L829,-101L828,-99L824,-100L819,-106L817,-106L812,-108L810,-113L803,-115L798,-113L797,-115L786,-120L775,-122L768,-124L767,-122L758,-131L749,-135L742,-142L748,-144L754,-153L750,-157L761,-162L761,-164L754,-162L754,-167L758,-171L766,-171L767,-175L765,-182L768,-188L768,-191L757,-195L753,-195L748,-201L742,-199L732,-203L732,-205L730,-211L724,-211L723,-215L725,-217L720,-225L712,-223L710,-224L708,-221L705,-222L703,-230L701,-234L703,-235L709,-235L712,-237L710,-241L704,-243L705,-245L702,-248L697,-256L699,-260L698,-266L690,-270L686,-268L685,-271L677,-275L675,-283L674,-290L670,-293L674,-298L671,-311L677,-320L676,-322L684,-331L676,-338L693,-358L700,-368L703,-376L691,-388L695,-399L688,-413L693,-428L684,-450L691,-465L679,-479L680,-494L687,-496L700,-504L707,-512L720,-499L741,-494L770,-470L776,-460L776,-447L768,-437L755,-432L721,-447L716,-444L728,-430L729,-422L729,-403L739,-398L745,-393L746,-402L741,-409L746,-416L765,-405L771,-409L766,-423L784,-441L791,-440L798,-433L802,-447L796,-458L800,-470L794,-483L816,-476L820,-465L810,-463L810,-452L816,-445L828,-449L830,-462L846,-471L873,-489L879,-488L871,-475L881,-473L886,-480L900,-481L912,-490L921,-477L929,-491L921,-504L925,-511L948,-504L958,-497L986,-473L991,-484L984,-495L983,-500L974,-502L977,-513L973,-530L972,-538L986,-560L991,-583L997,-588L1017,-581L1019,-567L1012,-547L1017,-539L1019,-523L1017,-493L1026,-480L1022,-466L1007,-438L1016,-435L1019,-442L1028,-447L1030,-457L1036,-466L1032,-478L1035,-492L1027,-494L1025,-506L1031,-528L1021,-548L1035,-564L1033,-582L1037,-583L1041,-569L1038,-545L1046,-541L1043,-558L1056,-568L1072,-569L1086,-555L1079,-576L1078,-604L1091,-610L1110,-608L1127,-612L1120,-627L1129,-646L1138,-647L1153,-662L1173,-666L1176,-675L1196,-677L1202,-670L1219,-687L1233,-687L1235,-701L1243,-716L1261,-730L1274,-719L1264,-710L1281,-705L1283,-688L1290,-696L1312,-696L1330,-680L1336,-668L1334,-652L1325,-643L1305,-627L1300,-619L1309,-615L1320,-608L1327,-613L1331,-596L1335,-603L1347,-607L1371,-602L1373,-590L1405,-586L1406,-606L1422,-602L1434,-602L1447,-588L1450,-571L1446,-561L1455,-542L1467,-532L1475,-557L1487,-546L1500,-553L1515,-545L1520,-552L1533,-549L1527,-572L1538,-583L1573,-576L1607,-566L1613,-552L1633,-533L1664,-538L1680,-534L1686,-524L1685,-508L1694,-502L1705,-506L1718,-507L1733,-502L1747,-505L1761,-486L1770,-493L1764,-506L1767,-516L1792,-510L1808,-511L1830,-501L1840,-491L1840,-413ZM1840,-533L1832,-532L1831,-539L1840,-549L1840,-533ZM-918,-549L-918,-549L-918,-549L-917,-550L-910,-550L-899,-543L-900,-540L-908,-535L-918,-533L-918,-533L-918,-549ZM717,-150L719,-153L725,-150L727,-150L728,-148L730,-147L730,-146L733,-144L741,-144L740,-140L731,-139L721,-132L717,-135L718,-140L710,-143L711,-145L719,-149Z" fill="#E0E0E0" stroke="#fff" stroke-width=".4"/><path d="M-144,35L-140,34L-135,34L-135,36L-143,38ZM-135,32L-129,36L-130,42L-131,41L-131,37L-135,33ZM-138,48L-135,48L-133,55L-133,60L-135,61L-137,56L-139,53Z" fill="#E0E0E0" stroke="#fff" stroke-width=".4"/><path d="M587,476L590,472L593,474L595,478L598,479L603,480L607,480L614,475L614,444L616,445L620,453L620,458L621,461L627,460L631,457L634,454L636,450L640,448L643,449L647,451L653,452L658,450L659,447L660,443L664,442L667,439L669,434L676,427L687,421L690,421L694,423L696,422L700,423L704,434L706,440L705,450L705,453L701,451L699,452L698,454L696,458L696,461L701,465L705,464L707,460L713,460L711,467L710,474L708,478L703,482L701,484L698,488L696,493L692,499L683,508L678,514L672,518L664,521L660,522L659,525L654,523L650,525L642,523L637,524L634,524L626,527L620,529L615,532L612,533L608,529L606,529L602,525L602,526L601,524L601,518L599,512L601,511L601,504L596,495L592,488L592,488ZM683,480L680,477L676,479L672,482L668,488L674,495L677,494L678,491L682,489L684,487L686,482Z" fill="#E0E0E0" stroke="#fff" stroke-width=".4"/><path d="M683,480L686,482L684,487L682,489L678,491L677,494L674,495L668,488L672,482L676,479L680,477Z" fill="#E0E0E0" stroke="#fff" stroke-width=".4"/><path d="M20,491L25,490L32,497L35,496L43,502L49,507L54,513L50,518L52,523L49,529L40,534L35,532L31,533L24,529L18,529L14,524L14,518L16,516L16,507L18,498Z" fill="#E0E0E0" stroke="#fff" stroke-width=".4"/><path d="M52,523L50,518L54,513L49,507L43,502L35,496L32,497L25,490L20,491L30,479L39,470L44,467L50,462L50,455L47,450L43,452L44,447L45,442L45,437L43,436L40,437L37,437L36,434L35,426L34,424L29,421L25,423L17,421L18,410L16,406L18,404L17,399L19,396L21,389L19,384L15,382L14,379L15,374L0,374L-3,365L-0,365L-0,361L-2,359L-2,354L-7,352L-12,352L-15,350L-20,348L-23,345L-31,344L-40,337L-39,332L-40,329L-39,323L-49,324L-53,327L-60,330L-62,333L-66,333L-71,332L-76,333L-79,333L-79,321L-85,325L-92,325L-95,321L-100,321L-98,317L-102,313L-106,306L-104,304L-104,301L-99,299L-100,294L-98,292L-97,288L-88,283L-82,281L-81,280L-74,281L-71,260L-71,256L-72,252L-75,249L-75,244L-71,242L-69,243L-69,240L-74,239L-74,235L-59,235L-56,232L-54,235L-53,239L-51,238L-47,242L-41,242L-39,239L-34,238L-31,236L-30,233L-24,231L-25,229L-31,229L-32,224L-32,219L-35,217L-34,216L-28,217L-22,219L-20,217L-14,216L-6,213L-3,210L-4,208L-0,207L2,209L1,213L3,214L5,217L3,220L2,227L4,230L4,234L9,238L13,238L14,236L16,236L20,235L22,233L26,233L28,233L32,234L33,232L32,231L32,228L36,229L39,228L44,230L47,232L49,230L51,230L52,232L56,231L59,229L61,223L65,216L68,215L70,220L74,233L78,234L79,240L73,246L75,248L89,250L89,257L95,252L104,255L117,260L121,264L120,268L129,266L144,270L155,270L166,276L176,285L182,287L189,287L191,290L194,299L195,304L192,317L188,322L177,333L173,342L167,348L165,349L163,354L163,369L161,382L160,387L158,390L157,401L149,412L148,420L141,424L140,429L131,429L119,432L114,436L105,438L96,445L90,453L89,459L90,464L88,473L87,477L81,482L73,498L66,505L61,509L57,518Z" fill="#E0E0E0" stroke="#fff" stroke-width=".4"/><path d="M-71,332L-66,333L-62,333L-60,330L-53,327L-49,324L-39,323L-40,329L-39,332L-40,337L-31,344L-23,345L-20,348L-15,350L-12,352L-7,352L-2,354L-2,359L-0,361L-0,365L-3,365L0,374L15,374L14,379L15,382L19,384L21,389L19,396L17,399L18,404L16,406L16,403L8,399L1,399L-12,401L-16,408L-16,413L-19,423L-20,421L-29,421L-32,427L-36,421L-47,419L-53,427L-58,428L-61,416L-66,407L-63,399L-67,396L-68,390L-72,385L-67,376L-70,369L-69,367L-70,364L-67,360L-67,353L-66,347L-65,345Z" fill="#E0E0E0" stroke="#fff" stroke-width=".4"/><path d="M-74,281L-81,280L-82,281L-88,283L-97,288L-98,292L-100,294L-99,299L-104,301L-104,304L-106,306L-102,313L-98,317L-100,321L-95,321L-92,325L-85,325L-79,321L-79,333L-76,333L-71,332L-65,345L-66,347L-67,353L-67,360L-70,364L-69,367L-70,369L-67,376L-72,385L-74,389L-78,391L-86,386L-86,383L-101,375L-115,366L-121,361L-124,355L-123,352L-130,342L-137,328L-144,312L-147,309L-150,303L-156,298L-161,295L-159,291L-162,284L-160,279L-154,274L-153,277L-155,279L-155,282L-152,281L-149,282L-146,286L-141,283L-140,277L-135,271L-126,268L-118,260L-115,255L-116,249L-114,248L-109,252L-107,255L-103,257L-99,265L-93,266L-89,264L-86,266L-81,265L-75,269L-80,276L-78,277Z" fill="#E0E0E0" stroke="#fff" stroke-width=".4"/><path d="M-51,238L-53,239L-54,235L-56,232L-59,235L-74,235L-74,239L-69,240L-69,243L-71,242L-75,244L-75,249L-72,252L-71,256L-71,260L-74,281L-78,277L-80,276L-75,269L-81,265L-86,266L-89,264L-93,266L-99,265L-103,257L-107,255L-109,252L-114,248L-116,249L-119,247L-123,245L-125,246L-132,245L-134,241L-135,242L-143,237L-144,235L-141,234L-141,230L-140,228L-136,227L-133,222L-130,218L-132,216L-131,212L-133,205L-131,203L-132,196L-135,192L-134,188L-132,189L-131,187L-132,182L-131,181L-127,181L-122,176L-119,175L-118,172L-117,166L-113,162L-108,162L-107,160L-101,161L-95,157L-92,155L-88,152L-86,152L-84,154L-85,157L-90,158L-92,162L-95,164L-97,167L-98,173L-100,177L-96,178L-95,181L-94,183L-93,186L-94,189L-94,191L-92,191L-90,194L-80,193L-76,194L-70,201L-67,200L-62,200L-57,200L-55,201L-56,205L-58,208L-58,213L-57,218L-55,221L-54,222L-58,226L-55,228L-53,230Z" fill="#E0E0E0" stroke="#fff" stroke-width=".4"/><path d="M-131,181L-132,182L-131,187L-132,189L-134,188L-135,192L-138,190L-140,186L-138,184L-140,183L-141,181L-145,179L-148,179L-150,182L-153,184L-155,184L-155,186L-152,190L-154,191L-155,192L-158,192L-160,188L-161,189L-163,188L-165,185L-168,185L-170,184L-173,184L-173,186L-174,184L-174,183L-173,181L-174,180L-173,179L-174,178L-174,175L-171,174L-168,177L-169,179L-166,179L-165,178L-163,180L-159,180L-156,178L-151,176L-148,174L-144,174L-144,175L-140,175L-137,177L-134,179Z" fill="#E0E0E0" stroke="#fff" stroke-width=".4"/><path d="M-171,174L-174,175L-174,178L-173,179L-174,180L-173,181L-174,183L-174,184L-179,183L-180,181L-179,180L-180,178L-182,176L-185,175L-187,174L-188,171L-190,170L-189,172L-191,174L-193,172L-195,171L-196,170L-196,167L-195,165L-197,164L-195,162L-194,161L-189,163L-187,162L-185,163L-184,165L-181,165L-180,163L-178,168L-175,171Z" fill="#E0E0E0" stroke="#fff" stroke-width=".4"/><path d="M-180,163L-181,165L-184,165L-185,163L-187,162L-189,163L-194,161L-195,162L-198,160L-202,157L-203,154L-207,152L-210,148L-210,147L-208,148L-208,147L-205,147L-204,145L-203,145L-203,141L-202,141L-200,141L-198,139L-196,141L-195,140L-194,139L-191,137L-191,135L-190,135L-189,133L-189,133L-187,134L-186,134L-184,133L-182,133L-179,132L-178,131L-176,131L-176,132L-177,134L-176,137L-178,140L-179,143L-179,146L-178,148L-178,152L-179,153L-180,156L-180,158L-181,160L-181,162Z" fill="#E0E0E0" stroke="#fff" stroke-width=".4"/><path d="M-176,131L-178,131L-179,132L-182,133L-184,133L-186,134L-187,134L-189,133L-189,133L-190,135L-191,135L-191,137L-194,139L-195,140L-196,141L-198,139L-200,141L-202,141L-203,141L-203,145L-204,145L-205,147L-208,147L-209,145L-211,144L-211,141L-212,140L-213,140L-217,141L-217,140L-219,138L-221,137L-223,136L-222,134L-222,132L-222,131L-218,129L-215,126L-214,126L-212,125L-210,124L-209,125L-208,125L-205,125L-201,125L-199,124L-198,123L-195,124L-193,124L-191,124L-190,124L-186,125L-185,125L-183,126L-181,128L-178,129Z" fill="#E0E0E0" stroke="#fff" stroke-width=".4"/><path d="M-4,208L-3,210L-6,213L-14,216L-20,217L-22,219L-28,217L-34,216L-35,217L-32,219L-32,224L-31,229L-25,229L-24,231L-30,233L-31,236L-34,238L-39,239L-41,242L-47,242L-51,238L-53,230L-55,228L-58,226L-54,222L-55,221L-57,218L-58,213L-58,208L-56,205L-55,201L-57,200L-62,200L-67,200L-70,201L-76,194L-80,193L-90,194L-92,191L-94,191L-94,189L-93,186L-94,183L-95,181L-96,178L-100,177L-98,173L-97,167L-95,164L-92,162L-90,158L-85,157L-85,159L-90,160L-87,163L-88,167L-91,172L-88,178L-85,177L-83,172L-85,169L-86,163L-76,160L-77,156L-75,154L-72,159L-66,159L-62,164L-61,166L-54,166L-46,166L-42,169L-36,170L-32,168L-31,166L-22,165L-13,165L-19,167L-17,171L-11,172L-5,176L-4,182L0,182L3,183L-3,188L-3,191L-1,194L-3,195L-7,196L-7,200L-9,202Z" fill="#E0E0E0" stroke="#fff" stroke-width=".4"/><path d="M28,233L26,233L22,233L20,235L16,236L14,236L13,238L9,238L4,234L4,230L2,227L3,220L5,217L3,214L1,213L2,209L-0,207L-4,208L-9,202L-7,200L-7,196L-3,195L-1,194L-3,191L-3,188L3,183L8,186L13,191L13,195L16,195L20,199L23,202L22,209L18,211L18,213L17,217L20,222L22,222L23,226Z" fill="#E0E0E0" stroke="#fff" stroke-width=".4"/><path d="M44,230L39,228L36,229L32,228L32,231L33,232L32,234L28,233L23,226L22,222L20,222L17,217L18,213L18,211L22,209L23,202L33,203L33,202L40,201L48,204L44,210L44,215L48,220L46,223L45,227Z" fill="#E0E0E0" stroke="#fff" stroke-width=".4"/><path d="M65,216L61,223L59,229L56,231L52,232L51,230L49,230L47,232L44,230L45,227L46,223L48,220L44,215L44,210L48,204L50,204L56,206L64,213ZM509,-190L512,-187L523,-184L519,-176L519,-168L516,-166L513,-167L513,-165L508,-158L507,-153L511,-155L514,-150L513,-147L516,-143L513,-140L515,-131L519,-130L518,-125L511,-119L496,-122L485,-119L484,-112L475,-111L467,-116L464,-114L450,-118L447,-122L451,-129L452,-150L444,-162L439,-168L427,-172L426,-180L436,-183L449,-180L446,-193L454,-188L472,-197L474,-207L481,-210L482,-206L485,-205L489,-201L494,-195L498,-196L505,-190L506,-189ZM528,-114L533,-118L535,-109L532,-101L529,-103L527,-110Z" fill="#E0E0E0" stroke="#fff" stroke-width=".4"/><path d="M-116,249L-115,255L-118,260L-126,268L-135,271L-140,277L-141,283L-146,286L-149,282L-152,281L-155,282L-155,279L-153,277L-154,274L-150,268L-152,265L-154,268L-159,265L-158,263L-159,256L-156,255L-155,250L-152,245L-152,242L-148,240L-143,237L-135,242L-134,241L-132,245L-125,246L-123,245L-119,247Z" fill="#E0E0E0" stroke="#fff" stroke-width=".4"/><path d="M-47,103L-43,104L-41,106L-43,108L-49,108L-53,108L-54,104L-53,103Z" fill="#E0E0E0" stroke="#fff" stroke-width=".4"/><path d="M-133,104L-128,104L-124,106L-123,108L-128,109L-130,110L-135,109L-139,106L-138,104L-135,103Z" fill="#E0E0E0" stroke="#fff" stroke-width=".4"/><path d="M-169,65L-162,66L-156,66L-149,69L-146,72L-139,71L-136,73L-130,78L-125,81L-122,81L-118,83L-118,85L-113,86L-107,89L-108,91L-113,92L-118,92L-123,92L-134,92L-129,88L-132,86L-137,85L-140,83L-142,78L-146,78L-153,76L-156,75L-166,73L-168,72L-165,70L-173,69L-178,73L-182,74L-183,76L-187,77L-190,76L-186,73L-184,70L-181,68L-177,67L-171,66Z" fill="#E0E0E0" stroke="#fff" stroke-width=".4"/><path d="M700,423L696,422L694,423L690,421L687,421L682,418L676,416L674,411L674,408L670,407L662,398L659,394L658,392L655,386L663,387L666,388L669,387L673,382L679,376L682,375L683,372L687,369L693,368L694,371L700,371L704,373L705,374L709,375L713,378L713,388L711,393L711,399L712,402L712,407L710,407L708,413Z" fill="#E0E0E0" stroke="#fff" stroke-width=".4"/><path d="M687,421L676,427L669,434L667,439L664,442L660,443L659,447L658,450L653,452L647,451L643,449L640,448L636,450L634,454L631,457L627,460L621,461L620,458L620,453L616,445L614,444L614,419L621,419L622,390L627,390L639,387L642,390L647,387L649,387L653,385L655,386L658,392L659,394L662,398L670,407L674,408L674,411L676,416L682,418Z" fill="#E0E0E0" stroke="#fff" stroke-width=".4"/><path d="M614,444L614,475L607,480L603,480L598,479L595,478L593,474L590,472L587,476L581,470L578,463L576,455L574,449L572,436L572,426L571,422L568,418L564,411L560,402L558,396L552,389L551,382L555,381L559,379L564,380L569,383L570,383L601,382L607,386L625,387L639,384L645,382L650,383L653,385L653,385L649,387L647,387L642,390L639,387L627,390L622,390L621,419L614,419Z" fill="#E0E0E0" stroke="#fff" stroke-width=".4"/><path d="M333,143L330,136L326,134L330,132L333,127L335,122L338,120L342,121L345,119L350,119L353,121L358,123L363,129L368,134L368,139L370,144L373,146L373,149L373,152L372,152L368,151L367,152L366,152L360,151L356,150L342,150L340,151L338,151L334,152L332,146L339,146L341,145L342,145L345,143L349,145L352,145L355,143L354,141L351,142L349,142L346,140L343,140L342,142Z" fill="#E0E0E0" stroke="#fff" stroke-width=".4"/><path d="M331,83L332,80L362,80L361,68L363,64L370,63L370,42L395,42L395,29L424,50L412,50L416,86L419,121L421,122L419,127L388,128L387,129L384,129L380,130L374,128L372,128L371,133L368,134L363,129L358,123L353,121L350,119L345,119L342,121L338,120L335,122L334,118L337,114L338,107L337,99L336,95L337,91L335,87Z" fill="#E0E0E0" stroke="#fff" stroke-width=".4"/><path d="M482,200L476,201L474,195L474,177L473,176L472,172L470,169L467,167L468,163L471,162L472,159L476,158L478,156L480,153L483,153L489,158L489,160L490,165L489,168L490,170L486,175L484,177L482,182L482,187Z" fill="#E0E0E0" stroke="#fff" stroke-width=".4"/><path d="M575,68L577,81L580,83L580,85L583,88L581,92L579,108L578,119L568,126L565,136L568,139L568,144L573,145L572,148L570,149L570,151L569,151L563,143L562,143L556,147L550,145L545,144L543,145L539,145L534,148L530,149L521,145L517,146L514,146L511,143L503,140L495,141L493,143L492,148L490,151L489,158L483,153L480,153L478,156L478,150L469,148L469,145L465,139L464,136L464,132L469,132L472,129L482,128L489,127L490,122L494,117L494,98L505,95L527,78L553,63L565,66L570,71Z" fill="#E0E0E0" stroke="#fff" stroke-width=".4"/><path d="M482,200L482,187L482,182L484,177L486,175L490,170L489,168L490,165L489,160L489,158L490,151L492,148L493,143L495,141L503,140L511,143L514,146L517,146L521,145L530,149L534,148L539,145L543,145L545,144L550,145L556,147L562,143L563,143L569,151L570,151L573,154L572,156L572,158L565,164L563,169L562,173L561,175L559,181L555,184L554,188L552,191L551,194L546,197L542,194L539,194L534,198L532,198L528,206L526,211L518,214L516,213L513,215L506,215L502,210L500,205L494,200L489,200Z" fill="#E0E0E0" stroke="#fff" stroke-width=".4"/><path d="M572,148L575,153L576,159L576,164L580,171L576,171L573,171L570,171L568,174L573,179L576,180L577,183L580,189L578,191L575,199L573,200L572,206L573,209L572,211L576,215L576,218L579,222L583,225L583,228L584,230L583,234L577,233L571,231L561,230L561,230L556,231L551,230L548,230L535,230L536,224L533,219L530,218L528,214L526,213L526,211L528,206L532,198L534,198L539,194L542,194L546,197L551,194L552,191L554,188L555,184L559,181L561,175L562,173L563,169L565,164L572,158L572,156L573,154L570,151L570,149Z" fill="#E0E0E0" stroke="#fff" stroke-width=".4"/><path d="M468,163L467,167L470,169L472,172L473,176L474,177L474,195L476,201L469,202L468,200L466,195L465,191L467,184L465,181L464,175L464,169L461,165L461,163Z" fill="#E0E0E0" stroke="#fff" stroke-width=".4"/><path d="M461,163L461,165L464,169L464,175L465,181L467,184L465,191L466,195L468,200L469,202L457,207L453,209L446,212L439,209L440,206L436,200L438,191L442,185L440,173L439,168L439,163L452,163L455,163L458,162Z" fill="#E0E0E0" stroke="#fff" stroke-width=".4"/><path d="M400,169L401,168L403,170L409,170L410,167L412,168L414,167L415,170L417,169L420,168L423,170L425,172L428,174L431,172L434,171L440,173L442,185L438,191L436,200L440,206L439,209L436,209L431,208L426,208L417,209L411,212L404,214L402,214L403,208L404,207L403,204L400,201L398,200L395,198L397,195L396,191L397,189L398,189L398,185L398,184L398,183L401,182L399,176L398,172L398,170Z" fill="#E0E0E0" stroke="#fff" stroke-width=".4"/><path d="M356,150L360,151L366,152L367,152L368,151L372,152L373,152L374,154L375,154L377,153L378,154L380,156L383,156L386,155L388,154L390,152L391,153L393,154L394,157L397,160L396,162L395,164L397,164L398,165L397,167L400,169L398,170L398,172L399,176L401,182L398,183L398,184L398,185L398,189L397,189L394,188L393,192L391,192L389,190L390,187L387,182L385,183L383,183L381,184L381,181L380,179L380,176L378,173L376,170L370,170L368,172L366,172L365,174L364,176L360,179L356,175L353,172L352,171L350,169L349,166L348,164L345,163L349,159L351,159L353,158L355,158L356,157L355,154L356,153Z" fill="#E0E0E0" stroke="#fff" stroke-width=".4"/><path d="M334,152L338,151L340,151L342,150L356,150L356,153L355,154L356,157L355,158L353,158L351,159L349,159L345,163L341,159L338,159L336,157L336,155L334,154Z" fill="#E0E0E0" stroke="#fff" stroke-width=".4"/><path d="M397,189L396,191L397,195L395,198L398,200L400,201L403,204L404,207L403,208L402,214L400,214L392,211L385,205L379,201L374,196L375,193L376,191L379,187L383,183L385,183L387,182L390,187L389,190L391,192L393,192L394,188Z" fill="#E0E0E0" stroke="#fff" stroke-width=".4"/><path d="M360,179L364,176L365,174L366,172L368,172L370,170L376,170L378,173L380,176L380,179L381,181L381,184L383,183L379,187L376,191L375,193L374,196L372,195L366,192L362,188L361,185Z" fill="#E0E0E0" stroke="#fff" stroke-width=".4"/><path d="M420,168L419,163L421,160L421,157L427,151L429,145L431,144L434,145L438,143L439,141L445,137L446,135L453,132L457,131L459,132L464,132L464,136L465,139L469,145L469,148L478,150L478,156L476,158L472,159L471,162L468,163L461,163L458,162L455,163L452,163L439,163L439,168L440,173L434,171L431,172L428,174L425,172L423,170Z" fill="#E0E0E0" stroke="#fff" stroke-width=".4"/><path d="M671,208L669,208L664,208L658,207L655,208L654,210L651,210L648,209L640,212L636,212L635,212L633,217L627,215L622,215L617,212L610,209L606,212L603,216L603,221L598,220L593,219L588,223L584,230L583,228L583,225L579,222L576,218L576,215L572,211L573,209L572,206L573,200L575,199L578,191L585,190L586,188L587,188L589,190L599,187L602,184L606,181L605,179L608,178L615,178L622,175L628,166L632,163L636,162L637,165L642,170L642,173L641,176L641,179L644,181L650,184L654,188L654,190L659,194L662,197L664,202L670,205Z" fill="#E0E0E0" stroke="#fff" stroke-width=".4"/><path d="M603,221L602,225L600,230L598,234L597,241L598,246L597,248L596,251L596,253L591,257L587,261L584,269L584,275L582,277L578,281L573,286L570,284L570,282L565,282L563,285L561,284L558,282L556,283L553,286L546,278L552,274L549,269L552,267L557,266L558,263L562,266L568,267L571,263L572,258L571,252L567,247L571,239L569,237L563,238L561,234L561,230L571,231L577,233L583,234L584,230L588,223L593,219L598,220Z" fill="#E0E0E0" stroke="#fff" stroke-width=".4"/><path d="M548,230L551,230L556,231L561,230L561,230L561,234L563,238L569,237L571,239L567,247L571,252L572,258L571,263L568,267L562,266L558,263L557,266L552,267L549,269L552,274L546,278L538,270L533,264L529,256L529,254L531,251L532,246L534,240L537,240L548,240Z" fill="#E0E0E0" stroke="#fff" stroke-width=".4"/><path d="M535,230L548,230L548,240L537,240L534,240L533,239Z" fill="#E0E0E0" stroke="#fff" stroke-width=".4"/><path d="M697,312L700,314L703,315L708,316L712,319L716,322L718,329L717,331L715,337L716,344L714,346L712,354L716,356L693,362L693,368L687,369L683,372L682,375L679,376L673,382L669,387L666,388L663,387L655,386L653,385L653,385L650,383L645,382L639,384L634,379L629,373L629,347L645,347L645,345L646,342L644,338L645,334L645,332L647,332L648,335L651,334L656,335L659,339L665,340L669,337L671,341L677,342L680,346L683,350L689,350L688,342L686,343L681,340L679,339L680,331L681,322L679,318L681,313L684,312L694,311Z" fill="#E0E0E0" stroke="#fff" stroke-width=".4"/><path d="M712,319L720,320L721,322L724,326L726,337L724,343L726,353L729,353L732,355L735,361L735,371L732,373L730,378L725,373L724,368L726,364L725,361L722,359L720,360L716,356L712,354L714,346L716,344L715,337L717,331L718,329L716,322Z" fill="#E0E0E0" stroke="#fff" stroke-width=".4"/><path d="M726,337L732,336L741,338L743,337L748,337L751,335L756,335L764,332L770,327L771,331L771,338L772,345L772,358L774,362L771,367L768,373L764,378L757,381L748,385L739,393L736,395L731,401L728,402L727,408L731,414L732,419L732,422L734,421L734,429L732,433L734,435L733,438L730,441L723,444L714,449L711,452L712,455L714,456L713,460L707,460L706,457L705,453L705,450L706,440L704,434L700,423L708,413L710,407L712,407L712,402L711,399L711,393L713,388L713,378L709,375L705,374L704,373L700,371L694,371L693,368L693,362L716,356L720,360L722,359L725,361L726,364L724,368L725,373L730,378L732,373L735,371L735,361L732,355L729,353L726,353L724,343Z" fill="#E0E0E0" stroke="#fff" stroke-width=".4"/><path d="M707,460L705,464L701,465L696,461L696,458L698,454L699,452L701,451L705,453L706,457Z" fill="#E0E0E0" stroke="#fff" stroke-width=".4"/><path d="M561,284L558,286L557,288L557,291L555,292L553,286L556,283L558,282ZM556,295L559,294L561,294L564,293L586,293L588,299L590,303L592,306L595,310L600,309L603,308L607,309L608,307L610,303L615,302L615,301L619,301L618,304L628,304L628,309L629,312L628,316L629,321L631,324L631,333L633,332L636,333L641,331L645,332L645,334L644,338L646,342L645,345L645,347L629,347L629,373L634,379L639,384L625,387L607,386L601,382L570,383L569,383L564,380L559,379L555,381L551,382L550,377L552,370L554,363L555,360L557,353L559,349L563,344L566,341L567,335L566,330L564,328L562,323L560,318L560,317L563,314L560,306L559,301L555,296Z" fill="#E0E0E0" stroke="#fff" stroke-width=".4"/><path d="M695,266L695,269L697,271L697,273L695,275L692,279L689,282L686,282L686,273L684,269L688,270L691,266Z" fill="#E0E0E0" stroke="#fff" stroke-width=".4"/><path d="M735,-18L734,-15L731,-16L729,-10L731,-9L729,-8L729,-5L733,-7L733,-3L729,11L728,9L724,-4L726,-7L726,-8L728,-12L729,-19L730,-21L730,-21L733,-21L734,-23L736,-23L736,-19L735,-18Z" fill="#E0E0E0" stroke="#fff" stroke-width=".4"/><path d="M736,-23L734,-23L733,-21L730,-21L733,-29L737,-35L737,-36L741,-35L742,-31L738,-28Z" fill="#E0E0E0" stroke="#fff" stroke-width=".4"/><path d="M841,344L843,347L845,353L846,362L848,366L847,370L846,372L843,367L842,370L843,376L843,379L841,381L840,388L837,397L833,408L829,424L826,435L822,445L816,447L809,451L805,449L799,446L797,441L796,434L793,427L793,421L794,415L798,414L798,411L801,405L802,400L800,396L799,391L798,383L801,379L802,374L806,373L810,372L813,370L816,370L821,366L827,361L829,357L828,353L831,354L836,349L836,344L838,341Z" fill="#E0E0E0" stroke="#fff" stroke-width=".4"/><path d="M733,-7L729,-5L729,-8L731,-9L729,-10L731,-16L734,-15L734,-9Z" fill="#E0E0E0" stroke="#fff" stroke-width=".4"/><path d="M333,143L342,142L343,140L346,140L349,142L351,142L354,141L355,143L352,145L349,145L345,143L342,145L341,145L339,146L332,146Z" fill="#E0E0E0" stroke="#fff" stroke-width=".4"/><path d="M534,4L531,-12L526,-16L526,-18L520,-24L519,-30L524,-36L525,-43L524,-52L526,-57L534,-61L540,-60L539,-55L546,-59L546,-57L543,-52L542,-48L545,-45L544,-37L539,-33L541,-28L544,-27L546,-23L549,-22L549,-15L545,-12L543,-9L538,-6L538,-2L538,2Z" fill="#E0E0E0" stroke="#fff" stroke-width=".4"/><path d="M395,29L395,28L395,27L395,17L407,10L415,9L421,7L424,2L433,-1L433,-8L438,-9L441,-12L451,-14L453,-17L451,-19L448,-29L448,-34L445,-40L452,-46L460,-47L465,-51L473,-54L486,-56L498,-57L502,-55L509,-59L517,-59L521,-57L526,-57L524,-52L525,-43L524,-36L519,-30L520,-24L526,-18L526,-16L531,-12L534,4L536,12L537,16L535,23L536,27L535,32L536,37L533,40L537,47L538,50L540,55L544,53L550,57L553,63L527,78L505,95L494,98L486,99L485,94L482,92L477,90L475,86L449,68L424,50Z" fill="#E0E0E0" stroke="#fff" stroke-width=".4"/><path d="M734,-15L735,-18L744,-14L759,-24L762,-13L760,-11L745,-7L752,2L750,4L749,7L743,8L741,11L738,14L729,12L729,11L733,-3L733,-7L734,-9Z" fill="#E0E0E0" stroke="#fff" stroke-width=".4"/><path d="M856,56L858,56L858,58L864,57L870,57L875,57L880,51L886,46L891,41L892,44L893,50L889,50L889,56L890,57L887,59L887,62L884,66L884,69L883,71L860,67L857,58Z" fill="#E0E0E0" stroke="#fff" stroke-width=".4"/><path d="M851,52L850,46L852,41L854,40L857,43L857,48L855,53L853,54Z" fill="#E0E0E0" stroke="#fff" stroke-width=".4"/><path d="M829,7L830,11L830,13L832,19L827,20L825,15L818,15L824,6Z" fill="#E0E0E0" stroke="#fff" stroke-width=".4"/><path d="M762,-13L759,-24L775,-33L778,-45L778,-52L782,-54L786,-60L789,-62L798,-60L801,-58L804,-59L809,-48L814,-45L815,-40L811,-37L809,-29L815,-21L824,-16L828,-9L827,-2L829,-2L829,3L833,7L829,7L824,6L818,15L804,14L782,-4L771,-10Z" fill="#E0E0E0" stroke="#fff" stroke-width=".4"/><path d="M884,69L884,66L887,62L887,59L890,57L889,56L889,50L893,50L897,56L901,59L907,60L911,62L915,67L917,69L920,70L920,72L917,77L916,80L912,82L909,88L906,87L904,89L903,93L904,99L903,100L900,100L895,103L894,107L893,108L888,108L885,110L885,114L881,116L877,115L872,118L868,118L866,113L860,99L883,91L888,75ZM892,44L891,41L893,38L894,39L893,42Z" fill="#E0E0E0" stroke="#fff" stroke-width=".4"/><path d="M1207,22L1208,25L1205,27L1206,32L1200,30L1190,36L1190,41L1186,48L1186,53L1182,59L1176,58L1176,66L1174,69L1175,73L1171,75L1167,61L1165,61L1164,67L1160,62L1162,58L1166,57L1169,50L1165,49L1158,49L1150,47L1150,42L1146,41L1140,37L1137,43L1143,48L1138,51L1136,54L1141,56L1140,61L1142,68L1143,74L1142,77L1137,77L1128,79L1128,85L1124,90L1113,96L1104,105L1099,110L1091,115L1091,119L1087,121L1080,124L1077,124L1074,130L1076,141L1076,147L1073,155L1073,168L1069,168L1066,174L1068,177L1061,179L1058,184L1055,186L1048,179L1045,168L1042,161L1039,157L1035,149L1033,139L1032,134L1025,124L1022,108L1019,98L1019,88L1018,80L1007,85L1001,84L991,74L995,71L993,68L984,61L989,55L1006,55L1004,48L1000,44L999,37L994,33L1002,24L1011,25L1019,16L1024,7L1032,-2L1031,-9L1038,-14L1032,-18L1029,-24L1026,-33L1030,-37L1042,-34L1050,-36L1058,-44L1066,-33L1065,-25L1068,-20L1068,-16L1062,-17L1065,-7L1072,-1L1083,5L1078,9L1075,17L1082,20L1090,25L1100,30L1110,31L1114,35L1120,36L1130,38L1136,38L1137,34L1136,29L1136,25L1141,23L1142,30L1142,32L1149,35L1154,34L1160,34L1166,34L1167,29L1164,26L1170,25L1177,19L1186,13L1192,15L1198,11L1201,17L1199,21Z" fill="#E0E0E0" stroke="#fff" stroke-width=".4"/><path d="M1058,-44L1050,-36L1042,-34L1030,-37L1026,-33L1029,-24L1032,-18L1038,-14L1031,-9L1032,-2L1024,7L1019,16L1011,25L1002,24L994,33L999,37L1000,44L1004,48L1006,55L989,55L984,61L978,59L976,53L970,46L956,48L943,48L932,49L935,39L946,35L946,31L942,29L942,22L935,18L931,13L928,8L941,13L948,11L953,12L954,10L960,11L970,8L970,0L974,-5L980,-5L981,-8L987,-9L989,-8L992,-10L992,-16L995,-21L1000,-24L997,-30L1004,-29L1006,-33L1006,-36L1010,-40L1009,-45L1007,-49L1012,-53L1020,-55L1029,-56L1033,-58L1037,-59L1043,-55L1045,-47Z" fill="#E0E0E0" stroke="#fff" stroke-width=".4"/><path d="M971,-61L975,-61L981,-59L983,-58L989,-61L991,-59L994,-64L999,-63L1000,-65L1001,-69L1004,-72L1008,-70L1007,-67L1009,-67L1009,-58L1012,-55L1014,-57L1018,-58L1023,-63L1028,-62L1036,-62L1037,-59L1033,-58L1029,-56L1020,-55L1012,-53L1007,-49L1009,-45L1010,-40L1006,-36L1006,-33L1004,-29L997,-30L1000,-24L995,-21L992,-16L992,-10L989,-8L987,-9L981,-8L980,-5L974,-5L970,0L970,8L960,11L954,10L953,12L948,11L941,13L928,8L935,0L934,-6L928,-7L928,-13L925,-20L928,-25L925,-27L927,-33L930,-45L938,-41L944,-43L945,-47L952,-48L956,-51L957,-59L964,-61L965,-64L969,-62Z" fill="#E0E0E0" stroke="#fff" stroke-width=".4"/><path d="M981,-59L985,-69L984,-76L978,-79L980,-83L986,-83L990,-88L993,-95L1003,-97L1001,-92L1002,-89L1005,-90L1003,-87L994,-88L994,-82L1002,-83L1011,-80L1026,-82L1028,-72L1030,-73L1035,-71L1035,-67L1036,-62L1028,-62L1023,-63L1018,-58L1014,-57L1012,-55L1009,-58L1009,-67L1007,-67L1008,-70L1004,-72L1001,-69L1000,-65L999,-63L994,-64L991,-59L989,-61L983,-58Z" fill="#E0E0E0" stroke="#fff" stroke-width=".4"/><path d="M1005,-110L1007,-115L1012,-116L1024,-113L1026,-119L1030,-121L1041,-117L1044,-118L1056,-117L1068,-116L1072,-113L1076,-111L1075,-109L1063,-103L1060,-99L1051,-98L1048,-91L1040,-93L1034,-91L1027,-86L1028,-84L1026,-82L1011,-80L1002,-83L994,-82L994,-88L1003,-87L1005,-90L1011,-89L1021,-96L1012,-101L1006,-99L1001,-103L1007,-109Z" fill="#E0E0E0" stroke="#fff" stroke-width=".4"/><path d="M864,-105L867,-109L876,-111L881,-108L886,-100L890,-100L899,-101L898,-106L904,-109L911,-115L921,-110L922,-102L925,-100L933,-100L935,-98L939,-88L948,-81L953,-76L961,-71L971,-67L971,-61L969,-62L965,-64L964,-61L957,-59L956,-51L952,-48L945,-47L944,-43L938,-41L930,-45L930,-53L924,-53L915,-62L909,-63L901,-68L895,-69L892,-67L887,-67L881,-62L874,-60L873,-67L874,-77L868,-80L870,-87L865,-88L867,-96L874,-94L881,-97L875,-103L873,-109L867,-106L866,-99Z" fill="#E0E0E0" stroke="#fff" stroke-width=".4"/><path d="M833,7L829,3L829,-2L827,-2L828,-9L824,-16L815,-21L809,-29L811,-37L815,-40L814,-45L809,-48L804,-59L800,-67L802,-70L799,-82L805,-84L806,-81L810,-76L815,-75L818,-75L827,-82L830,-83L832,-80L829,-75L834,-70L836,-71L838,-63L846,-61L851,-57L862,-55L874,-57L874,-60L881,-62L887,-67L892,-67L895,-69L901,-68L909,-63L915,-62L924,-53L930,-53L930,-45L927,-33L925,-27L928,-25L925,-20L928,-13L928,-7L934,-6L935,0L928,8L931,13L935,18L942,22L942,29L946,31L946,35L935,39L932,49L918,47L910,45L901,44L898,33L894,31L888,33L881,37L871,34L863,28L856,25L851,17L845,5L841,7L836,4Z" fill="#E0E0E0" stroke="#fff" stroke-width=".4"/><path d="M735,-18L735,-18L736,-19L736,-23L738,-28L742,-31L741,-35L737,-36L736,-43L738,-47L740,-49L742,-51L743,-56L745,-54L754,-57L758,-55L764,-55L773,-59L777,-59L786,-60L782,-54L778,-52L778,-45L775,-33L759,-24L744,-14Z" fill="#E0E0E0" stroke="#fff" stroke-width=".4"/><path d="M818,-75L815,-75L812,-80L812,-82L808,-82L806,-85L805,-84L801,-87L796,-90L797,-95L795,-98L806,-100L807,-97L810,-95L809,-93L813,-89L811,-86L814,-83L817,-82Z" fill="#E0E0E0" stroke="#fff" stroke-width=".4"/><path d="M705,-222L708,-221L710,-224L712,-223L720,-225L725,-217L723,-215L724,-211L730,-211L732,-205L732,-203L742,-199L748,-201L753,-195L757,-195L768,-191L768,-188L765,-182L767,-175L766,-171L758,-171L754,-167L754,-162L748,-162L743,-158L736,-157L729,-153L730,-147L728,-148L727,-150L725,-150L719,-153L717,-150L716,-151L705,-154L704,-158L697,-157L694,-150L688,-142L685,-144L681,-143L678,-145L680,-146L681,-149L683,-153L682,-155L684,-156L685,-154L689,-154L691,-155L690,-156L690,-158L688,-160L687,-165L684,-167L684,-171L681,-174L678,-174L672,-178L667,-177L665,-175L662,-175L660,-172L654,-171L652,-170L648,-172L643,-172L639,-174L635,-171L635,-174L631,-177L632,-182L634,-185L636,-184L634,-190L641,-200L645,-201L645,-204L642,-215L645,-216L649,-219L655,-219L663,-218L672,-215L678,-215L681,-213L683,-215L685,-213L692,-213L695,-212L696,-218L698,-221Z" fill="#E0E0E0" stroke="#fff" stroke-width=".4"/><path d="M641,-245L642,-239L644,-234L644,-229L639,-226L641,-221L642,-215L645,-204L645,-201L641,-200L634,-190L636,-184L634,-185L627,-190L621,-188L618,-189L613,-187L609,-191L606,-189L606,-190L602,-196L597,-197L596,-200L591,-202L589,-199L585,-201L586,-204L580,-205L576,-209L573,-217L574,-221L572,-228L569,-233L571,-236L569,-243L575,-246L587,-253L596,-257L604,-255L605,-252L612,-251L621,-250L635,-250L639,-249Z" fill="#E0E0E0" stroke="#fff" stroke-width=".4"/><path d="M591,-174L591,-169L587,-169L588,-167L585,-160L584,-158L577,-157L573,-155L567,-156L556,-159L554,-163L547,-161L546,-158L541,-160L537,-160L534,-162L535,-165L535,-167L537,-168L541,-165L542,-168L549,-167L554,-169L558,-169L560,-167L561,-168L560,-176L563,-177L565,-183L571,-179L575,-184L578,-185L584,-181L588,-182L591,-179L591,-178Z" fill="#E0E0E0" stroke="#fff" stroke-width=".4"/><path d="M631,-177L635,-174L635,-171L631,-169L627,-161L622,-154L616,-152L611,-152L606,-149L603,-147L596,-150L591,-154L588,-156L587,-159L585,-160L588,-167L587,-169L591,-169L591,-174L595,-171L598,-170L605,-171L605,-174L608,-174L612,-176L613,-175L616,-176L618,-179L621,-180L629,-176Z" fill="#E0E0E0" stroke="#fff" stroke-width=".4"/><path d="M665,-175L667,-177L672,-178L678,-174L681,-174L684,-171L684,-167L687,-165L688,-160L690,-158L690,-156L691,-155L689,-154L685,-154L684,-156L682,-155L683,-153L681,-149L680,-146L678,-145L676,-150L677,-154L677,-159L672,-166L670,-171L668,-174Z" fill="#E0E0E0" stroke="#fff" stroke-width=".4"/><path d="M678,-145L681,-143L685,-144L688,-142L688,-140L685,-137L682,-138L680,-125L676,-126L670,-130L661,-128L657,-125L646,-126L640,-127L637,-127L635,-131L633,-133L635,-135L633,-136L631,-134L627,-137L626,-141L621,-144L620,-147L616,-152L622,-154L627,-161L631,-169L635,-171L639,-174L643,-172L648,-172L652,-170L654,-171L660,-172L662,-175L665,-175L668,-174L670,-171L672,-166L677,-159L677,-154L676,-150Z" fill="#E0E0E0" stroke="#fff" stroke-width=".4"/><path d="M569,-243L571,-236L569,-233L572,-228L574,-221L573,-217L576,-209L573,-208L571,-209L569,-207L563,-205L561,-202L555,-199L556,-196L557,-191L561,-188L565,-183L563,-177L560,-176L561,-168L560,-167L558,-169L554,-169L549,-167L542,-168L541,-165L537,-168L535,-167L527,-171L525,-168L519,-168L519,-176L523,-184L512,-187L509,-190L509,-195L508,-197L508,-206L507,-218L512,-218L514,-223L516,-235L514,-239L516,-242L522,-243L524,-240L529,-246L527,-251L527,-258L532,-257L537,-259L537,-254L545,-251L545,-246L553,-248L557,-252L566,-247Z" fill="#E0E0E0" stroke="#fff" stroke-width=".4"/><path d="M635,-131L637,-127L640,-127L646,-126L657,-125L661,-128L670,-130L676,-126L680,-125L676,-121L673,-113L676,-108L669,-109L661,-106L661,-101L654,-100L649,-103L643,-100L637,-101L637,-108L633,-111L634,-112L633,-114L635,-117L637,-120L634,-125L633,-129Z" fill="#E0E0E0" stroke="#fff" stroke-width=".4"/><path d="M663,-42L662,-39L651,-38L651,-40L641,-42L643,-45L647,-42L653,-43L659,-42L659,-41ZM637,-101L643,-100L649,-103L654,-100L661,-101L661,-106L665,-103L663,-97L661,-95L656,-96L652,-97L643,-94L648,-88L644,-87L640,-87L636,-92L635,-90L636,-84L640,-79L637,-77L642,-72L645,-70L645,-64L638,-67L641,-62L636,-61L639,-52L634,-52L627,-56L624,-64L623,-70L620,-75L616,-81L616,-83L619,-88L620,-92L622,-93L622,-96L627,-97L630,-99L634,-99L636,-100Z" fill="#E0E0E0" stroke="#fff" stroke-width=".4"/><path d="M804,-59L801,-58L798,-60L789,-62L786,-60L777,-59L773,-59L764,-55L758,-55L754,-57L745,-54L743,-56L742,-51L740,-49L738,-47L735,-51L738,-54L734,-54L727,-56L722,-50L710,-49L704,-54L696,-55L694,-51L689,-50L681,-55L673,-55L669,-64L663,-70L667,-77L662,-82L670,-91L682,-92L685,-100L700,-98L709,-105L718,-108L731,-108L744,-101L755,-97L764,-98L771,-97L780,-103L788,-103L795,-98L797,-95L796,-90L801,-87L805,-84L799,-82L802,-70L800,-67ZM661,-106L669,-109L676,-108L677,-104L683,-100L682,-98L673,-97L670,-94L663,-89L661,-93L661,-95L663,-97L665,-103Z" fill="#E0E0E0" stroke="#fff" stroke-width=".4"/><path d="M622,-96L622,-93L620,-92L619,-88L616,-83L614,-84L614,-86L610,-90L609,-95L610,-101L611,-105L610,-106L609,-110L613,-115L613,-113L615,-114L617,-111L619,-110L619,-106L618,-103L619,-98Z" fill="#E0E0E0" stroke="#fff" stroke-width=".4"/><path d="M588,-156L591,-154L596,-150L603,-147L606,-149L607,-145L610,-142L607,-138L603,-140L598,-140L592,-142L588,-142L586,-139L584,-142L582,-137L586,-132L587,-129L591,-125L594,-123L597,-118L604,-114L603,-112L595,-116L591,-120L584,-123L578,-131L579,-132L576,-136L575,-140L571,-142L568,-137L566,-141L566,-144L566,-145L572,-144L573,-146L576,-144L579,-144L579,-147L581,-148L582,-153Z" fill="#E0E0E0" stroke="#fff" stroke-width=".4"/><path d="M535,-167L535,-165L534,-162L537,-160L541,-160L541,-155L537,-154L532,-155L530,-151L526,-150L525,-152L521,-148L517,-148L514,-150L511,-155L507,-153L508,-158L513,-165L513,-167L516,-166L519,-168L525,-168L527,-171Z" fill="#E0E0E0" stroke="#fff" stroke-width=".4"/><path d="M508,-197L509,-195L509,-190L506,-189L505,-190L506,-197Z" fill="#E0E0E0" stroke="#fff" stroke-width=".4"/><path d="M508,-206L508,-197L506,-197L505,-190L498,-196L494,-195L489,-201L485,-205L482,-206L481,-210L487,-212L492,-211L499,-214L504,-208Z" fill="#E0E0E0" stroke="#fff" stroke-width=".4"/><path d="M392,-106L395,-109L398,-110L400,-105L404,-105L406,-107L410,-106L412,-101L409,-98L409,-91L407,-89L407,-84L404,-84L407,-78L405,-71L407,-68L406,-66L404,-62L404,-59L401,-56L397,-58L393,-57L394,-64L394,-70L390,-71L388,-75L389,-81L392,-85L393,-89L394,-95L394,-99L392,-103Z" fill="#E0E0E0" stroke="#fff" stroke-width=".4"/><path d="M404,-59L404,-62L406,-66L407,-68L405,-71L407,-78L404,-84L407,-84L407,-89L409,-91L409,-98L412,-101L410,-106L406,-107L404,-105L400,-105L398,-110L395,-109L392,-106L392,-114L389,-118L400,-126L410,-124L420,-124L428,-122L434,-123L447,-122L450,-118L464,-114L467,-116L475,-111L484,-112L485,-106L477,-100L468,-97L467,-94L462,-88L459,-80L462,-75L458,-70L456,-64L450,-62L445,-55L435,-55L428,-55L423,-51L420,-48L416,-49L414,-52L411,-57Z" fill="#E0E0E0" stroke="#fff" stroke-width=".4"/><path d="M541,-160L546,-158L547,-161L554,-163L556,-159L567,-156L566,-150L568,-146L562,-147L556,-143L556,-138L555,-135L558,-129L565,-124L569,-115L577,-107L583,-107L585,-105L583,-103L590,-99L596,-96L602,-91L603,-89L601,-85L597,-90L591,-92L587,-85L593,-81L592,-76L589,-76L585,-67L581,-67L581,-70L583,-75L585,-77L582,-83L579,-88L576,-89L574,-93L569,-95L566,-99L560,-100L554,-104L547,-111L542,-117L539,-128L536,-129L529,-132L526,-131L521,-126L518,-125L519,-130L515,-131L513,-140L516,-143L513,-147L514,-150L517,-148L521,-148L525,-152L526,-150L530,-151L532,-155L537,-154L541,-155ZM574,-69L580,-70L577,-62L579,-59L577,-54L571,-58L567,-59L557,-64L558,-69L567,-68ZM528,-96L532,-99L536,-92L535,-79L532,-80L529,-76L526,-79L526,-91L524,-97Z" fill="#E0E0E0" stroke="#fff" stroke-width=".4"/><path d="M414,-244L408,-247L403,-247L405,-254L403,-261L410,-261L418,-253ZM438,-238L438,-238L439,-246L434,-254L433,-254L424,-256L422,-260L425,-266L423,-270L419,-263L418,-276L414,-283L417,-298L423,-310L429,-309L438,-310L430,-294L438,-296L446,-296L444,-285L437,-272L445,-271L446,-270L453,-254L458,-252L463,-237L465,-232L474,-230L473,-222L469,-218L472,-212L466,-205L455,-205L442,-202L439,-204L434,-199L426,-200L421,-195L417,-198L428,-211L435,-213L435,-213L423,-215L421,-220L429,-224L425,-231L426,-239Z" fill="#E0E0E0" stroke="#fff" stroke-width=".4"/><path d="M817,-106L819,-106L824,-100L828,-99L829,-101L834,-106L838,-100L841,-93L845,-92L847,-90L841,-89L840,-81L838,-78L836,-75L836,-71L834,-70L829,-75L832,-80L830,-83L827,-82L818,-75L817,-82L814,-83L811,-86L813,-89L809,-93L810,-95L807,-97L806,-100L808,-101L813,-99L818,-98L819,-99L815,-105ZM815,-75L810,-76L806,-81L805,-84L806,-85L808,-82L812,-82L812,-80Z" fill="#E0E0E0" stroke="#fff" stroke-width=".4"/><path d="M767,-122L768,-124L775,-122L786,-120L797,-115L798,-113L803,-115L810,-113L812,-108L817,-106L815,-105L819,-99L818,-98L813,-99L808,-101L806,-100L795,-98L788,-103L780,-103L781,-107L779,-114L774,-118L770,-119Z" fill="#E0E0E0" stroke="#fff" stroke-width=".4"/><path d="M567,-156L573,-155L577,-157L584,-158L585,-160L587,-159L588,-156L582,-153L581,-148L579,-147L579,-144L576,-144L573,-146L572,-144L566,-145L568,-146L566,-150Z" fill="#E0E0E0" stroke="#fff" stroke-width=".4"/><path d="M634,-185L632,-182L631,-177L629,-176L621,-180L618,-179L616,-176L613,-175L612,-176L608,-174L605,-174L605,-171L598,-170L595,-171L591,-174L591,-178L591,-179L592,-182L596,-182L598,-183L599,-184L600,-185L601,-187L602,-188L603,-190L606,-190L606,-189L609,-191L613,-187L618,-189L621,-188L627,-190Z" fill="#E0E0E0" stroke="#fff" stroke-width=".4"/><path d="M576,-209L580,-205L586,-204L585,-201L589,-199L591,-202L596,-200L597,-197L602,-196L606,-190L603,-190L602,-188L601,-187L600,-185L599,-184L598,-183L596,-182L592,-182L591,-179L588,-182L584,-181L578,-185L575,-184L571,-179L565,-183L561,-188L557,-191L556,-196L555,-199L561,-202L563,-205L569,-207L571,-209L573,-208Z" fill="#E0E0E0" stroke="#fff" stroke-width=".4"/><path d="M740,136L740,133L743,121L744,116L746,113L752,112L756,107L760,117L762,124L766,128L777,135L781,140L785,145L788,147L791,150L789,152L786,151L783,148L780,144L777,141L775,138L768,135L763,135L761,134L756,135L752,132L749,138Z" fill="#E0E0E0" stroke="#fff" stroke-width=".4"/><path d="M16,406L18,410L17,421L25,423L29,421L34,424L35,426L36,434L37,437L40,437L43,436L45,437L45,442L44,447L43,452L42,459L35,466L28,467L20,466L12,464L20,451L19,447L11,444L1,438L-5,436L-19,423L-16,413L-16,408L-12,401L1,399L8,399L16,403Z" fill="#E0E0E0" stroke="#fff" stroke-width=".4"/><path d="M860,99L866,113L868,118L863,120L861,124L861,127L853,130L841,134L834,139L831,140L829,139L824,143L819,144L813,145L811,145L809,147L807,148L806,150L802,149L800,150L794,150L792,146L793,141L791,139L790,133L788,130L789,129L788,126L789,124L789,121L792,118L792,115L794,111L797,113L799,112L808,112L809,113L817,114L819,113L821,116L825,115L830,106L838,102Z" fill="#E0E0E0" stroke="#fff" stroke-width=".4"/><path d="M729,12L738,14L741,11L743,8L749,7L750,4L752,2L745,-7L760,-11L762,-13L771,-10L782,-4L804,14L818,15L825,15L827,20L832,19L835,27L839,29L840,32L846,35L846,39L845,42L846,45L848,47L849,50L851,52L853,54L855,53L856,56L857,58L860,67L883,71L884,69L888,75L883,91L860,99L838,102L830,106L825,115L821,116L819,113L817,114L809,113L808,112L799,112L797,113L794,111L792,115L792,118L789,121L788,117L786,115L785,112L781,109L777,102L775,95L770,90L766,89L761,81L760,75L761,70L756,61L753,58L749,56L746,51L746,49L744,45L742,43L739,36L734,29L730,24L727,24L728,19L728,16Z" fill="#E0E0E0" stroke="#fff" stroke-width=".4"/><path d="M712,-40L713,-40L714,-43L719,-42L726,-45L721,-41L722,-39L721,-40L719,-39L718,-39L718,-39L718,-40L717,-40L716,-41L714,-40Z" fill="#E0E0E0" stroke="#fff" stroke-width=".4"/><path d="M712,-40L714,-40L716,-41L717,-40L718,-40L718,-39L718,-39L719,-39L721,-40L722,-39L722,-39L714,-35L710,-36L708,-40Z" fill="#E0E0E0" stroke="#fff" stroke-width=".4"/><path d="M445,-40L448,-34L448,-29L451,-19L453,-17L451,-14L441,-12L438,-9L433,-8L433,-1L424,2L421,7L415,9L407,10L395,17L395,27L394,27L394,32L389,32L387,34L383,34L380,33L374,34L371,40L369,41L366,52L355,61L352,72L349,76L348,79L331,80L331,80L331,76L334,74L337,69L336,66L339,61L343,55L346,54L348,49L348,44L351,39L356,36L361,27L361,27L365,24L372,23L378,17L382,15L388,7L386,-4L389,-12L390,-16L395,-23L403,-27L408,-31L413,-40L416,-46L422,-46L426,-42L433,-43L441,-41Z" fill="#E0E0E0" stroke="#fff" stroke-width=".4"/><path d="M744,75L713,75L684,75L653,75L653,44L653,13L651,6L653,1L651,-3L654,-7L664,-8L672,-5L679,-3L683,-1L689,-4L692,-7L699,-7L704,-6L706,-2L708,-5L714,-3L720,-2L724,-4L728,9L729,11L727,15L725,21L723,26L721,27L719,24L715,20L710,8L709,9L712,18L717,27L723,40L725,45L728,50L735,59L733,60L734,66L742,73Z" fill="#E0E0E0" stroke="#fff" stroke-width=".4"/><path d="M653,75L653,91L644,91L644,95L613,79L583,63L575,68L570,71L565,66L553,63L550,57L544,53L540,55L538,50L537,47L533,40L536,37L535,32L536,27L535,23L537,16L536,12L534,4L538,2L538,-2L538,-6L543,-9L545,-12L549,-15L549,-22L558,-18L562,-19L568,-18L578,-14L582,-6L589,-4L599,-0L608,4L611,2L615,-2L613,-9L616,-13L621,-18L626,-19L637,-17L639,-13L642,-13L645,-11L652,-10L654,-7L651,-3L653,1L651,6L653,13L653,44Z" fill="#E0E0E0" stroke="#fff" stroke-width=".4"/><path d="M827,186L806,209L796,210L789,215L784,215L782,218L777,218L774,215L767,218L764,221L759,221L758,220L756,220L753,220L744,214L738,214L736,211L736,207L732,205L727,197L724,195L722,192L718,188L714,188L716,183L720,183L722,181L722,174L724,166L727,164L728,160L731,154L736,151L739,143L740,136L749,138L752,132L756,135L761,134L763,135L768,135L775,138L777,141L780,144L783,148L786,151L783,154L781,158L781,160L781,163L785,163L787,162L789,163L787,166L790,171L793,174L796,177L821,186Z" fill="#E0E0E0" stroke="#fff" stroke-width=".4"/><path d="M786,151L789,152L791,150L793,152L793,155L789,157L792,159L789,163L787,162L785,163L781,163L781,160L781,158L783,154Z" fill="#E0E0E0" stroke="#fff" stroke-width=".4"/><path d="M836,160L836,160L836,163L836,171L836,175L833,180L827,186L821,186L796,177L793,174L790,171L787,166L789,163L792,159L794,161L796,164L799,167L803,167L810,165L819,164L825,162L829,161L832,160Z" fill="#E0E0E0" stroke="#fff" stroke-width=".4"/><path d="M721,255L705,256L697,255L694,256L690,259L688,258L688,252L690,249L690,243L692,240L695,236L698,234L700,231L697,230L698,221L701,219L706,220L712,219L717,219L722,215L725,220L726,224L730,233L727,239L723,244L721,247Z" fill="#E0E0E0" stroke="#fff" stroke-width=".4"/><path d="M694,256L697,261L697,265L695,266L691,266L688,270L684,269L684,265L685,265L686,260L688,258L690,259Z" fill="#E0E0E0" stroke="#fff" stroke-width=".4"/><path d="M604,-114L597,-118L594,-123L591,-125L587,-129L586,-132L582,-137L584,-142L586,-139L588,-142L592,-142L598,-140L603,-140L607,-138L610,-138L608,-133L611,-129L610,-124L609,-123L607,-122L605,-120Z" fill="#E0E0E0" stroke="#fff" stroke-width=".4"/><path d="M633,-111L637,-108L637,-101L636,-100L634,-99L630,-99L627,-97L622,-96L619,-98L618,-103L619,-106L620,-106L620,-108L625,-110L627,-110L629,-111Z" fill="#E0E0E0" stroke="#fff" stroke-width=".4"/><path d="M606,-149L611,-152L616,-152L620,-147L621,-144L626,-141L627,-137L631,-134L633,-136L635,-135L633,-133L635,-131L633,-129L634,-125L637,-120L635,-117L633,-114L634,-112L633,-111L629,-111L627,-110L626,-111L627,-112L628,-115L627,-115L626,-116L624,-117L623,-119L622,-119L621,-121L619,-120L618,-117L617,-116L617,-117L614,-119L612,-120L611,-122L609,-123L610,-124L611,-129L608,-133L610,-138L607,-138L610,-142L607,-145Z" fill="#E0E0E0" stroke="#fff" stroke-width=".4"/><path d="M615,-114L613,-113L613,-115L609,-110L610,-106L608,-107L606,-110L603,-112L604,-114L605,-120L607,-122L609,-123L611,-122L612,-120L614,-119L617,-117L617,-116Z" fill="#E0E0E0" stroke="#fff" stroke-width=".4"/><path d="M619,-106L619,-110L617,-111L615,-114L617,-116L618,-117L619,-120L621,-121L622,-119L623,-119L624,-117L626,-116L627,-115L628,-115L627,-112L626,-111L627,-110L625,-110L620,-108L620,-106Z" fill="#E0E0E0" stroke="#fff" stroke-width=".4"/><path d="M-11,165L-7,164L-5,164L-6,170L-12,171L-13,170L-11,168Z" fill="#E0E0E0" stroke="#fff" stroke-width=".4"/><path d="M698,221L691,216L689,212L685,214L681,214L679,215L676,214L671,208L670,205L664,202L662,197L659,194L654,190L654,188L650,184L644,181L647,181L649,179L651,172L653,169L659,168L660,170L664,174L666,175L669,174L675,174L676,175L683,175L683,174L687,172L688,170L691,168L698,173L702,172L705,167L710,162L709,158L707,155L712,155L712,153L716,154L715,159L716,165L720,168L721,171L720,175L722,175L722,181L720,183L716,183L714,188L718,188L722,192L724,195L727,197L732,205L727,211L722,215L717,219L712,219L706,220L701,219Z" fill="#E0E0E0" stroke="#fff" stroke-width=".4"/></g><g clip-path="url(#v)"><path d="M374.0,151.9L374.1,151.3L373.6,150.9L373.6,150.7L373.6,150.2L373.8,149.0L373.8,148.6L374.0,147.7L373.7,147.3L373.6,147.0L373.2,146.6L372.8,145.9L372.7,145.4L372.5,145.0L372.2,144.3L371.9,144.2L371.2,144.2L371.1,144.4L370.9,144.7L370.6,144.8L370.3,144.4L370.1,144.1L370.1,143.8L369.7,143.2L368.9,142.3L369.0,141.5L369.5,141.0L369.6,140.7L369.6,140.4L369.5,139.9L369.2,139.6L369.3,138.8L369.2,137.7L368.8,137.2L368.5,136.8L368.0,136.4L367.6,135.7L367.8,134.9L367.9,134.3L367.2,133.0L368.5,133.5L368.7,133.3L369.2,133L369.8,132.4L370.3,131.5L370.6,130.4L370.7,129.5L370.9,128.7L371.2,128.1L371.8,127.4L372.4,126.9L373.2,126.4L373.5,126.5L374.2,127.2L375.7,128.6L377.0,129.7L377.4,130.3L377.8,130.3L378.4,129.2L379.1,128.3L379.3,128.1L380.2,128.0L380.9,128.0L381.5,128.0L382.7,128.2L383.2,128.3L383.7,128.4L385.1,128.5L386.6,128.3L387.9,128.0L388.9,127.8L389.0,127.4L388.9,126.9L389.1,126.5L389.4,126.1L389.6,126.1L389.8,127.3L390.1,127.5L391.0,127.5L392.4,127.5L394.0,127.5L395.6,127.5L397.1,127.5L398.7,127.5L400.2,127.5L401.8,127.5L403.4,127.5L404.9,127.5L406.5,127.5L408.1,127.5L409.6,127.5L411.2,127.5L412.8,127.5L414.3,127.5L415.9,127.5L417.5,127.5L419.1,127.5L419.5,125.2L419.9,123.0L420.2,121.3L419.1,120.0L418.2,119.0L417.9,117.0L417.7,115.0L417.5,113.1L417.3,111.1L417.1,109.0L416.9,107.0L416.7,105.0L416.4,103.0L416.2,101.0L416.0,99.0L415.8,97.0L415.5,95.0L415.3,93.0L415.1,90.9L414.9,88.9L414.7,86.9L414.5,84.8L414.3,82.8L414.0,80.7L413.8,78.7L413.6,76.7L413.4,74.6L413.1,72.5L412.9,70.5L412.7,68.4L412.5,66.3L412.3,64.3L412.1,62.2L411.9,60.1L411.6,58.0L411.4,55.9L411.2,53.9L411.0,51.8L410.8,49.8L413.1,49.8L415.6,49.8L418.1,49.8L421.7,49.8L424.3,49.8L426.7,51.4L428.8,53.0L431.3,54.8L433.8,56.6L436.3,58.4L438.9,60.2L441.3,62.0L443.8,63.7L446.4,65.5L448.9,67.3L451.4,69.1L453.9,70.9L456.4,72.6L458.9,74.4L461.4,76.2L463.9,77.9L466.4,79.7L468.9,81.5L470.1,82.3L470.2,82.6L470.3,83.2L470.2,84.0L470.2,84.6L470.6,85.0L471.2,85.4L473.6,86.7L473.8,87.0L473.9,87.5L474.2,88.2L474.7,88.6L475.4,88.9L476.1,89.1L478.3,89.3L478.8,89.6L479.7,90.8L480.3,91.0L481.7,91.3L482.8,91.5L483.3,91.6L484.2,92.0L485.3,92.5L485.8,93.0L485.8,93.1L485.8,93.6L485.8,94.9L486.0,95.6L486.2,96.1L486.2,96.4L486.0,96.6L485.7,96.9L485.6,97.2L485.3,97.7L485.1,98.2L485.2,98.6L485.6,98.8L486.2,99.3L486.8,99.5L487.0,99.5L487.3,99.5L487.7,99.4L489.5,99.1L491.3,98.7L493.7,98.2L493.7,99.7L493.7,101.8L493.7,104.2L493.7,106.3L493.7,108.8L493.7,110.8L493.7,113.2L493.7,115.5L493.5,115.8L493.4,117.1L493.3,118.9L492.9,120.7L492.1,122.0L491.8,123.2L491.5,123.9L491.2,124.3L491.2,124.8L491.0,125.5L490.7,125.9L490.5,126.1L489.7,126.4L488.3,127.6L488.1,128.6L486.5,128.4L484.8,128.1L484.5,128.1L484.4,128.2L484.3,128.7L481.9,128.8L479.8,128.9L477.3,129.0L475.5,129.1L473.3,129.2L471.3,129.3L469.9,130.5L468.6,131.6L468.6,131.6L466.8,131.8L464.6,131.6L463.5,131.6L463.0,131.7L463.0,132.2L461.4,131.6L459.5,131.0L458.2,131.4L458.0,131.2L457.8,131.0L457.2,130.8L456.2,130.9L455.5,131.1L454.3,132.0L453.5,132.7L453.3,132.9L452.1,133.3L449.9,134.4L448.6,135.2L448.3,135.4L447.7,135.5L446.9,135.6L446.2,135.8L445.5,137.8L445.1,138.0L442.5,137.2L441.9,137.3L441.5,137.6L440.0,138.8L439.3,139.8L438.9,141.1L438.9,141.5L438.9,141.9L438.7,142.1L438.3,142.2L438.0,142.2L436.8,141.9L436.4,142.1L436.2,142.7L436.3,144.1L436.0,145.0L435.3,145.3L434.7,145.7L434.3,145.8L433.9,145.7L431.8,144.3L431.1,144.1L430.3,144.2L429.5,144.8L429.1,145.2L428.7,145.7L428.1,146.3L428.3,146.8L428.7,147.4L428.9,148.2L428.9,148.9L427.0,149.8L427.1,150.2L427.4,150.5L427.4,151.2L427.4,152.4L427.0,152.9L426.5,153.3L426.1,153.9L425.8,154.2L425.3,154.5L424.5,154.8L423.2,155.2L422.2,155.4L421.8,155.5L421.2,156.0L420.8,156.4L420.7,157.0L420.8,157.6L420.9,158.1L421.1,158.4L421.2,158.8L421.1,160.0L420.7,161.3L420.3,161.9L419.7,162.2L419.2,162.6L419.4,163.5L419.5,164.7L419.3,165.7L419.3,166.3L419.1,167.0L419.0,167.4L418.7,167.3L417.7,167.3L416.5,167.7L416.1,168.0L416.0,168.3L415.8,168.6L415.4,168.8L415.1,169.2L414.4,169.1L413.8,168.9L413.5,168.7L413.5,168.5L413.7,168.2L413.8,167.8L413.9,167.6L413.6,167.0L413.5,166.4L413.6,166.1L413.4,165.1L413.3,165.1L412.5,165.3L412.2,165.4L412.1,165.5L412.0,165.7L412.2,166.2L412.1,166.4L411.6,166.3L411.0,166.1L410.3,165.6L410.1,165.8L410.1,166.2L410.0,166.7L410.2,167.7L410.0,168.0L409.6,167.9L408.9,167.9L408.4,168.0L408.0,168.0L407.8,168.4L407.7,168.8L407.9,169.2L407.9,169.3L407.7,169.5L407.5,169.6L407.4,169.6L406.9,169.1L406.3,169.0L404.9,168.7L404.7,168.1L404.5,168.0L404.2,167.7L403.9,167.3L403.6,167.3L403.4,167.4L402.6,167.4L401.9,168.0L401.4,168.9L400.9,169.3L400.3,169.4L400.1,169.4L400.2,168.9L400.1,168.5L399.9,168.2L398.2,167.3L398.0,166.9L397.7,165.9L397.5,164.9L397.5,164.3L397.6,163.7L397.6,163.3L397.4,163.0L396.9,162.7L396.4,162.5L395.7,162.9L395.4,163.0L395.1,163.0L394.9,162.8L394.9,162.6L395.7,161.5L396.0,161.1L396.5,160.7L396.7,160.5L396.9,160.3L397.0,160.1L396.9,159.9L396.4,159.7L395.6,159.2L395.2,159.1L394.9,158.9L394.6,158.1L394.4,157.9L394.0,157.9L393.7,157.7L393.7,156.6L393.7,155.7L393.0,154.2L392.7,153.3L392.4,152.4L392.0,151.9L391.4,151.6L390.7,151.3L390.0,151.3L389.5,151.3L389.3,151.5L389.3,151.6L389.7,152.2L389.8,152.6L389.7,152.9L389.6,153.1L389.2,153.1L388.6,153.3L387.8,153.7L387.3,154.0L386.9,154.8L386.6,154.9L386.1,154.8L384.6,154.2L383.4,153.7L382.6,153.4L382.1,153.6L381.8,153.7L381.1,154.0L380.2,155.2L379.9,155.6L379.7,155.7L379.5,155.9L379.2,155.9L379.1,155.8L379.0,155.7L378.5,154.8L378.0,153.9L377.5,153.5L377.0,153.5L376.5,153.8L376.0,154.4L375.4,154.9L375.0,155.1L374.7,155.0L373.8,154.3L373.2,153.8L373.2,153.5L373.4,153.2L373.6,152.6L373.8,152.1Z" fill="#4ECDC4" stroke="#2C3E50" stroke-width="1"/></g><circle cx="400.0" cy="150.0" r="4" fill="#E74C3C" stroke="#fff" stroke-width="2"/><text x="400.0" y="140.0" text-anchor="middle" font-family="sans-serif" font-weight="700" font-size="10" fill="#2D3436">Bamako</text></svg>