<svg viewBox="0 0 800 300" xmlns="http://www.w3.org/2000/svg"><defs><clipPath id="v"><rect width="800" height="300"/></clipPath></defs><rect width="800" height="300" fill="#DCEEF8"/><g clip-path="url(#v)"><path d="M903,382L904,381L906,383L905,387L902,388L898,387L898,384L900,382ZM914,376L910,378L906,379L906,377L909,376L911,375L914,373L914,373L914,376ZM-1291,373L-1291,373L-1291,373L-1290,373L-1291,376L-1291,376L-1291,376L-1291,373Z" fill="#E0E0E0" stroke="#fff" stroke-width=".4"/><path d="M19,279L20,280L42,293L43,296L52,302L49,310L49,313L53,316L53,317L52,321L52,323L52,326L54,330L56,336L58,337L54,341L47,343L43,343L41,345L37,345L35,346L28,344L23,345L21,336L19,333L18,331L12,330L9,328L5,327L2,326L-0,325L-4,317L-7,314L-8,310L-8,307L-9,301L-6,301L-4,299L-2,295L-0,294L-0,292L-2,291L-2,288L-0,288L0,284L-2,280L-0,280L7,280Z" fill="#E0E0E0" stroke="#fff" stroke-width=".4"/><path d="M347,-74L342,-68L337,-67L337,-58L333,-53L321,-56L317,-41L313,-39L301,-35L307,-20L303,-18L303,-13L299,-15L296,-18L287,-18L277,-19L275,-18L266,-21L263,-20L262,-15L252,-18L248,-16L246,-13L243,-11L235,-5L232,0L230,0L228,-3L220,-4L219,-10L216,-10L216,-19L209,-25L199,-24L191,-23L186,-31L181,-34L171,-40L170,-41L154,-36L154,-5L151,-4L147,-11L143,-13L136,-11L133,-9L133,-11L134,-14L133,-17L126,-20L123,-28L120,-30L120,-32L126,-32L126,-38L131,-39L136,-38L138,-47L136,-52L130,-52L125,-54L118,-50L112,-48L109,-50L110,-54L106,-60L101,-60L96,-66L100,-73L98,-75L103,-86L109,-80L110,-87L122,-98L132,-98L146,-91L153,-87L159,-91L169,-91L177,-86L179,-89L187,-89L189,-94L179,-100L185,-105L184,-108L189,-111L185,-118L188,-121L211,-125L214,-127L229,-131L235,-136L246,-133L248,-122L254,-125L262,-121L261,-116L267,-116L283,-126L280,-123L288,-115L302,-90L305,-95L313,-89L322,-92L326,-90L329,-84L333,-82L336,-78L343,-80Z" fill="#E0E0E0" stroke="#fff" stroke-width=".4"/><path d="M154,-5L154,-36L170,-41L171,-40L181,-34L186,-31L191,-23L199,-24L209,-25L216,-19L216,-10L219,-10L220,-4L228,-3L230,0L232,0L235,-5L243,-11L246,-13L248,-12L243,-7L247,-3L252,-6L259,-1L251,5L246,4L244,4L243,2L244,-2L236,-0L234,5L231,9L226,9L225,13L229,14L230,20L227,28L222,27L219,26L219,22L211,18L205,15L201,11L194,5L191,-3L189,-4L182,-4L180,-6L179,-12L171,-17L165,-12L160,-9L161,-5Z" fill="#E0E0E0" stroke="#fff" stroke-width=".4"/><path d="M675,289L686,294L697,297L701,300L705,303L706,307L716,311L717,314L712,315L713,319L719,323L723,330L726,329L726,332L731,333L729,334L735,337L735,339L731,339L729,338L724,337L718,336L713,332L709,329L706,323L698,320L693,322L689,324L690,329L685,331L682,330L675,330L675,309ZM747,296L749,298L750,301L748,303L747,299L745,297L742,295L739,292L734,290L736,289L739,291L742,292L744,293ZM738,309L735,311L732,312L729,312L724,311L720,309L721,307L726,308L729,307L730,304L731,304L732,307L735,307L737,305L740,303L740,299L743,299L745,300L745,303L743,307L739,308ZM760,306L761,308L764,312L767,314L766,315L765,316L762,314L759,310L758,305L759,304Z" fill="#E0E0E0" stroke="#fff" stroke-width=".4"/><path d="M675,289L675,309L675,330L670,325L664,323L662,325L654,325L657,320L661,318L659,312L656,307L645,301L640,301L630,295L628,298L626,299L625,296L625,294L620,291L627,289L631,289L631,287L622,287L619,283L614,282L611,279L619,278L622,276L632,278L633,281L635,290L641,294L646,288L653,284L659,284L664,286L669,288ZM577,328L578,329L578,331L574,336L569,337L568,337L568,334L571,331ZM634,316L633,311L634,309L635,307L637,309L637,312ZM534,248L530,254L535,260L534,262L540,268L533,269L531,273L531,278L526,283L525,289L523,298L522,296L515,299L513,295L508,295L505,293L498,295L496,292L492,292L487,292L486,283L483,282L480,276L479,271L480,265L483,261L484,265L488,269L492,268L496,268L500,265L503,264L509,266L514,265L517,256L519,254L521,247L528,247ZM604,291L611,292L613,297L608,295L603,294L599,295L595,294L596,291ZM589,297L584,296L583,293L589,293L591,295ZM595,260L596,264L599,264L600,267L599,272L596,271L595,275L598,278L596,279L594,275L592,267L593,262ZM565,268L572,268L578,263L579,265L574,271L569,272L563,271L553,271L548,272L547,277L552,282L556,279L567,277L567,280L564,279L561,283L556,285L562,293L561,295L566,302L566,306L563,308L560,306L563,301L557,303L556,302L557,299L552,296L553,290L548,291L549,299L549,307L545,308L543,307L544,301L544,295L541,295L539,291L542,287L542,282L546,273L547,270L552,266L557,267ZM548,337L540,332L546,331L549,333L551,335L551,337ZM555,326L559,326L564,323L563,327L554,328L546,328L546,325L551,324ZM536,325L540,324L541,327L534,328L530,329L527,329L529,326L532,325L534,323ZM476,313L477,315L489,316L490,313L501,316L504,320L513,321L520,325L513,327L507,325L501,325L495,325L489,323L482,321L477,320L475,321L464,319L463,316L457,316L461,310L469,310L474,312ZM451,280L452,284L454,288L459,288L462,292L460,300L460,309L453,310L448,304L440,299L437,296L433,291L430,286L425,278L420,272L418,267L415,262L410,258L407,253L402,250L396,243L395,240L399,240L409,241L414,247L419,252L422,254L428,261L434,261L439,265L443,270L448,273L445,278L449,280Z" fill="#E0E0E0" stroke="#fff" stroke-width=".4"/><path d="M-9,301L-8,307L-8,310L-7,314L-4,317L-0,325L-3,324L-11,325L-13,326L-14,330L-13,333L-14,340L-15,346L-13,347L-9,350L-7,349L-7,355L-11,355L-14,352L-16,349L-21,348L-22,345L-26,347L-31,346L-33,343L-37,343L-40,343L-40,341L-42,341L-45,341L-49,341L-51,341L-53,342L-52,334L-55,332L-55,328L-54,325L-55,322L-55,318L-63,318L-62,316L-65,316L-66,317L-70,317L-71,321L-72,323L-75,322L-77,323L-81,323L-84,320L-85,318L-87,314L-89,310L-107,310L-109,310L-111,310L-113,311L-114,309L-112,308L-112,306L-111,304L-109,303L-107,303L-105,301L-102,301L-101,303L-99,304L-96,300L-92,297L-90,295L-91,290L-88,284L-85,281L-81,278L-80,276L-80,274L-79,272L-80,268L-79,263L-78,259L-76,256L-75,252L-75,248L-73,245L-69,243L-64,245L-60,247L-56,248L-51,249L-49,245L-49,245L-46,245L-39,242L-37,243L-35,243L-34,242L-31,241L-27,242L-23,242L-21,241L-17,246L-14,247L-13,246L-10,247L-6,245L-5,248L0,252L-0,259L2,260L0,262L-2,264L-4,267L-6,270L-6,275L-7,277L-7,282L-9,283L-9,287L-10,288L-11,291L-9,294Z" fill="#E0E0E0" stroke="#fff" stroke-width=".4"/><path d="M66,284L63,279L63,256L68,249L70,248L73,247L79,243L87,243L104,224L109,219L111,215L111,212L111,206L111,203L111,203L113,203L116,202L119,201L122,199L125,199L125,201L124,205L124,208L123,210L121,217L118,224L114,232L109,241L104,248L97,256L91,261L81,267L76,272L69,279L68,282Z" fill="#E0E0E0" stroke="#fff" stroke-width=".4"/><path d="M52,302L43,296L42,293L20,280L19,279L19,273L21,270L24,266L26,262L23,255L23,252L20,247L24,244L28,240L31,241L31,244L33,246L37,246L45,251L47,252L48,251L50,252L54,253L56,250L61,247L64,249L68,249L63,256L63,279L66,284L62,286L60,289L58,289L57,294L55,296L54,300Z" fill="#E0E0E0" stroke="#fff" stroke-width=".4"/><path d="M-38,223L-43,220L-45,218L-45,217L-44,214L-44,211L-48,208L-48,205L-48,203L-51,201L-51,198L-52,195L-54,196L-54,193L-52,191L-53,188L-51,186L-52,185L-50,181L-47,176L-42,177L-43,151L-42,148L-35,148L-35,135L-11,135L13,135L37,135L39,142L38,143L39,150L41,157L43,159L47,161L44,165L39,166L37,168L37,172L34,182L35,184L34,190L31,196L27,199L25,204L24,206L21,208L20,215L20,220L20,215L19,215L19,212L18,210L15,207L14,203L15,198L12,198L12,199L8,200L9,201L10,205L7,209L4,213L0,214L-5,210L-7,211L-8,213L-11,214L-11,216L-17,216L-18,214L-22,214L-25,215L-26,215L-29,211L-31,209L-35,210L-37,213L-38,219L-40,220L-42,221Z" fill="#E0E0E0" stroke="#fff" stroke-width=".4"/><path d="M-43,151L-42,177L-47,176L-50,181L-52,185L-51,186L-53,188L-52,191L-54,193L-54,196L-52,195L-51,198L-51,201L-48,203L-48,205L-52,206L-55,208L-60,215L-66,218L-72,218L-73,218L-73,220L-76,223L-78,225L-86,227L-88,226L-89,226L-90,227L-95,228L-94,226L-96,222L-97,219L-99,218L-103,215L-102,212L-99,212L-97,212L-94,212L-97,206L-97,202L-97,198L-100,194L-99,191L-103,191L-103,187L-106,185L-103,176L-95,170L-95,162L-92,149L-91,146L-94,144L-94,142L-96,140L-98,130L-91,126L-67,139Z" fill="#E0E0E0" stroke="#fff" stroke-width=".4"/><path d="M386,-620L399,-629L411,-609L425,-574L424,-544L410,-540L393,-549L383,-562L378,-587L370,-594ZM441,-557L457,-539L455,-526L421,-515L432,-556L437,-559ZM662,-466L678,-465L700,-452L695,-434L673,-435L663,-429L651,-444L654,-461ZM719,-446L735,-440L728,-431L718,-433L707,-442L708,-450ZM668,-401L674,-410L682,-412L690,-404L691,-398L682,-398L669,-400ZM86,-603L98,-610L107,-610L109,-600L112,-609L118,-616L127,-607L125,-601L117,-597L111,-594L110,-588L103,-582L96,-590L100,-602ZM-49,-124L-61,-124L-68,-126L-67,-130L-58,-134L-52,-132L-49,-130L-50,-127ZM139,-410L154,-429L152,-440L166,-453L186,-469L207,-474L217,-484L229,-487L233,-477L229,-469L207,-456L189,-444L170,-422L161,-401L151,-381L152,-364L164,-349L160,-347L140,-350L139,-358L128,-363L127,-374L133,-378L133,-389L145,-407ZM687,-118L689,-108L689,-98L691,-88L698,-72L689,-75L685,-61L691,-52L691,-46L686,-51L682,-44L681,-52L681,-61L681,-70L682,-78L682,-90L679,-100L679,-114L685,-119L683,-123L685,-125ZM-1291,-317L-1291,-317L-1276,-305L-1260,-289L-1261,-279L-1257,-275L-1258,-286L-1241,-284L-1229,-270L-1235,-263L-1245,-262L-1246,-247L-1248,-245L-1254,-245L-1258,-250L-1267,-254L-1268,-260L-1274,-263L-1281,-261L-1285,-266L-1283,-272L-1291,-268L-1288,-261L-1291,-255L-1291,-255L-1291,-317ZM914,-255L914,-255L906,-249L898,-250L904,-242L907,-231L910,-227L911,-222L909,-218L898,-221L881,-211L875,-209L866,-201L857,-193L855,-187L846,-196L830,-186L827,-191L822,-185L813,-187L811,-179L804,-168L804,-163L811,-161L810,-144L805,-144L802,-135L805,-130L794,-125L792,-113L783,-110L781,-100L772,-91L770,-98L767,-112L764,-136L767,-151L772,-158L772,-163L782,-166L793,-180L803,-193L814,-203L819,-221L812,-220L808,-209L792,-195L787,-211L772,-207L756,-186L761,-178L748,-175L738,-174L739,-183L729,-185L721,-179L703,-181L683,-177L663,-155L639,-129L649,-127L652,-121L658,-119L662,-124L669,-123L677,-112L678,-103L673,-93L672,-82L669,-67L660,-53L658,-47L650,-37L642,-27L638,-22L630,-17L626,-17L622,-21L614,-15L613,-12L613,-12L612,-14L612,-18L615,-18L616,-28L614,-36L619,-39L627,-37L631,-46L633,-55L635,-59L639,-67L629,-64L623,-61L614,-61L611,-69L604,-76L594,-79L591,-88L589,-94L587,-99L583,-109L578,-112L568,-115L560,-115L553,-113L548,-108L551,-106L551,-100L548,-97L542,-87L542,-83L534,-77L526,-80L519,-79L516,-83L512,-84L503,-77L495,-75L489,-73L482,-75L476,-74L472,-79L466,-84L460,-85L452,-84L447,-82L438,-86L437,-93L430,-96L424,-97L417,-101L411,-91L413,-85L407,-79L398,-81L392,-81L388,-86L382,-86L377,-89L367,-84L355,-76L349,-75L347,-74L343,-80L336,-78L333,-82L329,-84L326,-90L322,-92L313,-89L305,-95L302,-90L288,-115L280,-123L283,-126L267,-116L261,-116L262,-121L254,-125L248,-122L246,-133L235,-136L229,-131L214,-127L211,-125L188,-121L185,-118L189,-111L184,-108L185,-105L179,-100L189,-94L187,-89L179,-89L177,-86L169,-91L159,-91L153,-87L146,-91L132,-98L122,-98L110,-87L109,-80L103,-86L98,-75L100,-73L96,-66L101,-60L106,-60L110,-54L109,-50L112,-48L109,-43L104,-41L97,-32L103,-24L102,-19L109,-9L105,-6L104,-4L102,-4L97,-9L96,-9L92,-11L90,-15L84,-16L81,-15L80,-17L71,-21L62,-22L57,-23L56,-22L48,-30L41,-33L36,-38L41,-39L46,-47L42,-50L51,-54L51,-56L46,-54L46,-58L49,-61L55,-62L56,-65L55,-70L57,-75L57,-77L48,-81L44,-80L41,-85L36,-83L28,-87L28,-89L26,-93L21,-93L21,-96L22,-98L18,-104L12,-103L10,-104L8,-101L6,-102L5,-108L3,-112L4,-112L9,-112L12,-114L10,-117L6,-119L6,-121L4,-123L-0,-130L1,-132L1,-138L-5,-140L-9,-139L-9,-142L-16,-144L-18,-151L-18,-156L-21,-159L-19,-163L-21,-173L-16,-180L-17,-182L-10,-189L-17,-195L-3,-211L2,-219L5,-225L-5,-235L-2,-244L-8,-255L-3,-267L-11,-285L-5,-296L-14,-307L-13,-319L-8,-321L2,-328L8,-334L18,-323L35,-319L58,-300L63,-293L63,-282L57,-274L47,-270L19,-282L15,-280L25,-269L25,-262L26,-247L33,-243L38,-239L39,-246L35,-252L39,-257L54,-248L59,-252L55,-263L69,-277L75,-276L81,-271L84,-282L79,-291L82,-301L78,-311L95,-305L98,-296L91,-294L91,-286L95,-280L105,-284L106,-294L119,-301L141,-316L145,-315L139,-305L147,-303L151,-309L163,-309L172,-316L179,-306L186,-317L179,-327L182,-333L200,-328L209,-322L231,-303L235,-312L229,-321L229,-324L221,-326L224,-334L220,-349L220,-355L231,-372L235,-390L240,-394L256,-389L257,-378L252,-362L255,-356L257,-343L256,-318L263,-308L260,-297L248,-275L255,-273L258,-278L264,-282L266,-290L271,-297L268,-307L271,-318L264,-319L262,-329L267,-347L259,-362L270,-376L269,-390L272,-391L275,-379L273,-360L279,-357L276,-371L287,-379L299,-380L311,-368L305,-385L305,-408L315,-412L330,-411L343,-414L338,-426L345,-441L352,-442L364,-454L381,-457L383,-464L399,-466L404,-460L417,-474L429,-474L430,-485L436,-497L451,-508L461,-499L453,-492L467,-488L468,-475L474,-481L492,-481L506,-468L511,-459L509,-446L502,-439L486,-426L482,-419L489,-416L498,-411L504,-415L507,-401L510,-406L519,-410L539,-406L541,-396L566,-393L567,-409L580,-406L589,-406L599,-394L602,-381L598,-373L606,-358L616,-350L622,-370L631,-361L642,-366L654,-361L658,-366L668,-363L664,-382L672,-391L700,-385L727,-377L733,-366L749,-351L773,-355L786,-351L791,-344L790,-331L797,-326L806,-329L816,-330L828,-326L840,-328L850,-313L858,-318L853,-329L856,-337L875,-332L888,-333L906,-325L914,-317L914,-255ZM914,-351L907,-350L906,-356L914,-364L914,-351ZM-1291,-364L-1291,-364L-1291,-364L-1290,-365L-1285,-365L-1276,-359L-1277,-356L-1283,-352L-1291,-351L-1291,-351L-1291,-364ZM16,-44L18,-47L22,-45L24,-44L25,-43L26,-42L26,-42L29,-39L35,-40L34,-37L27,-35L19,-30L16,-32L17,-36L10,-39L11,-40L17,-43Z" fill="#E0E0E0" stroke="#fff" stroke-width=".4"/><path d="M-96,-570L-93,-582L-84,-583L-77,-571L-57,-547L-72,-534L-75,-512L-81,-507L-84,-484L-91,-483L-104,-499L-99,-510L-108,-518L-120,-544L-125,-570L-108,-582L-104,-570ZM2,-328L-8,-321L-13,-319L-11,-331L-19,-339L-28,-332L-31,-320L-37,-312L-44,-316L-52,-315L-58,-324L-62,-320L-66,-319L-67,-308L-78,-311L-80,-302L-86,-302L-90,-290L-96,-273L-105,-252L-103,-247L-105,-242L-111,-242L-115,-229L-115,-211L-111,-205L-113,-190L-118,-182L-121,-175L-125,-182L-137,-169L-145,-166L-154,-172L-156,-185L-158,-214L-152,-222L-136,-233L-124,-248L-113,-268L-98,-298L-88,-311L-71,-332L-58,-340L-47,-339L-38,-355L-27,-354L-16,-357L3,-344L-5,-339ZM-21,-584L-30,-565L-47,-561L-66,-567L-67,-576L-75,-577L-82,-593L-63,-603L-54,-594L-48,-606L-33,-596ZM-37,-513L-51,-501L-62,-508L-57,-515L-61,-525L-48,-531L-46,-520Z" fill="#E0E0E0" stroke="#fff" stroke-width=".4"/><path d="M577,328L578,327L583,325L587,325L589,324L592,325L589,327L583,330L578,331L578,329Z" fill="#E0E0E0" stroke="#fff" stroke-width=".4"/><path d="M-88,456L-85,453L-83,455L-82,458L-79,458L-75,460L-72,459L-67,456L-67,430L-65,431L-61,438L-62,442L-61,444L-56,444L-53,440L-50,438L-49,435L-46,434L-43,434L-40,436L-35,437L-31,435L-31,433L-30,430L-26,429L-24,427L-22,422L-17,417L-8,412L-6,412L-3,414L-1,413L3,413L5,423L7,428L6,435L7,438L3,436L2,437L1,439L-1,441L-1,444L3,447L7,447L8,444L13,444L11,449L10,454L9,458L5,461L3,462L1,466L-1,469L-4,474L-11,482L-16,486L-20,490L-27,492L-30,493L-31,495L-34,494L-37,495L-44,494L-48,495L-50,494L-57,497L-62,498L-66,501L-68,501L-71,499L-73,499L-76,495L-76,496L-77,494L-77,490L-79,485L-77,484L-77,478L-81,471L-84,465L-84,465ZM-11,459L-14,457L-17,458L-20,461L-23,465L-19,471L-16,470L-15,468L-12,467L-11,465L-9,461Z" fill="#E0E0E0" stroke="#fff" stroke-width=".4"/><path d="M-11,459L-9,461L-11,465L-12,467L-15,468L-16,470L-19,471L-23,465L-20,461L-17,458L-14,457Z" fill="#E0E0E0" stroke="#fff" stroke-width=".4"/><path d="M-505,248L-509,254L-510,258L-513,261L-516,261L-517,259L-518,259L-520,261L-523,259L-521,257L-520,254L-519,251L-522,248L-522,243L-519,238L-517,239L-513,240L-506,246ZM-151,-76L-148,-74L-139,-72L-142,-66L-143,-59L-144,-58L-147,-58L-147,-56L-152,-51L-152,-47L-149,-48L-147,-44L-147,-42L-145,-39L-147,-36L-146,-29L-142,-28L-143,-25L-149,-20L-161,-22L-170,-19L-170,-14L-177,-13L-184,-17L-186,-15L-198,-19L-200,-22L-197,-27L-196,-45L-202,-54L-207,-59L-216,-62L-217,-69L-209,-71L-198,-68L-200,-79L-195,-75L-180,-82L-178,-90L-173,-92L-172,-89L-169,-89L-167,-85L-162,-80L-159,-81L-154,-77L-152,-76ZM-135,-16L-131,-19L-130,-12L-132,-5L-135,-7L-136,-13Z" fill="#E0E0E0" stroke="#fff" stroke-width=".4"/><path d="M3,413L-1,413L-3,414L-6,412L-8,412L-12,409L-17,408L-19,404L-19,402L-21,401L-28,394L-30,390L-31,389L-34,384L-27,385L-25,385L-23,385L-19,381L-14,376L-12,375L-11,373L-8,371L-3,370L-3,372L2,372L5,373L7,375L10,375L13,377L13,386L12,390L11,395L12,397L12,401L11,401L9,406Z" fill="#E0E0E0" stroke="#fff" stroke-width=".4"/><path d="M-8,412L-17,417L-22,422L-24,427L-26,429L-30,430L-31,433L-31,435L-35,437L-40,436L-43,434L-46,434L-49,435L-50,438L-53,440L-56,444L-61,444L-62,442L-61,438L-65,431L-67,430L-67,411L-61,411L-60,387L-56,387L-46,385L-44,387L-40,385L-38,385L-35,383L-34,384L-31,389L-30,390L-28,394L-21,401L-19,402L-19,404L-17,408L-12,409Z" fill="#E0E0E0" stroke="#fff" stroke-width=".4"/><path d="M-67,430L-67,456L-72,459L-75,460L-79,458L-82,458L-83,455L-85,453L-88,456L-93,451L-95,446L-97,439L-98,434L-100,424L-100,416L-101,412L-104,410L-107,404L-110,396L-111,392L-116,386L-117,381L-114,380L-110,379L-106,379L-102,382L-101,381L-77,381L-72,384L-58,385L-46,383L-41,381L-37,381L-35,383L-35,383L-38,385L-40,385L-44,387L-46,385L-56,387L-60,387L-61,411L-67,411Z" fill="#E0E0E0" stroke="#fff" stroke-width=".4"/><path d="M-259,197L-259,195L-259,192L-262,191L-263,187L-263,183L-261,182L-260,178L-258,178L-254,180L-250,178L-248,179L-247,177L-222,177L-221,173L-222,172L-225,144L-228,116L-219,115L-198,130L-177,144L-176,148L-172,149L-169,150L-169,155L-162,154L-162,169L-166,173L-166,177L-172,178L-180,179L-182,181L-186,181L-190,181L-192,180L-195,181L-201,183L-202,185L-207,188L-208,190L-210,191L-213,190L-215,192L-216,196L-221,201L-220,203L-222,206L-222,210L-224,211L-226,211L-227,209L-228,209L-229,209L-230,211L-235,211L-237,210L-238,211L-240,209L-239,207L-240,206L-241,207L-241,205L-240,203L-242,201L-243,199L-244,198L-246,197L-247,198L-249,199L-251,200L-253,200L-255,198L-256,198L-258,199L-259,199Z" fill="#E0E0E0" stroke="#fff" stroke-width=".4"/><path d="M-172,235L-177,236L-179,232L-178,217L-180,216L-180,213L-182,211L-184,209L-183,206L-181,205L-180,202L-177,202L-175,200L-173,198L-171,198L-166,202L-167,204L-165,207L-166,210L-166,212L-169,215L-171,217L-172,221L-172,225Z" fill="#E0E0E0" stroke="#fff" stroke-width=".4"/><path d="M-98,130L-96,140L-94,142L-94,144L-91,146L-92,149L-95,162L-95,170L-103,176L-106,185L-103,187L-103,191L-99,191L-100,194L-101,194L-102,196L-103,197L-107,190L-108,189L-113,193L-118,191L-121,191L-123,192L-127,191L-130,194L-133,194L-141,191L-144,193L-147,192L-149,190L-155,188L-162,188L-163,190L-164,193L-166,196L-166,202L-171,198L-173,198L-175,200L-175,196L-182,194L-182,191L-186,187L-187,184L-186,181L-182,181L-180,179L-172,178L-166,177L-166,173L-162,169L-162,154L-154,151L-136,138L-115,126L-105,128L-102,132Z" fill="#E0E0E0" stroke="#fff" stroke-width=".4"/><path d="M-172,235L-172,225L-172,221L-171,217L-169,215L-166,212L-166,210L-165,207L-167,204L-166,202L-166,196L-164,193L-163,190L-162,188L-155,188L-149,190L-147,192L-144,193L-141,191L-133,194L-130,194L-127,191L-123,192L-121,191L-118,191L-113,193L-108,189L-107,190L-103,197L-102,196L-99,199L-100,200L-100,202L-105,207L-107,211L-108,214L-109,216L-110,220L-114,222L-115,226L-116,228L-117,231L-121,233L-124,230L-127,230L-130,234L-132,234L-135,240L-136,244L-143,246L-145,246L-148,248L-152,247L-156,244L-158,239L-162,235L-167,235Z" fill="#E0E0E0" stroke="#fff" stroke-width=".4"/><path d="M-100,194L-97,198L-97,202L-97,206L-94,212L-97,212L-99,212L-102,212L-103,215L-99,218L-97,219L-96,222L-94,226L-95,228L-98,234L-99,235L-100,240L-99,243L-100,244L-97,248L-96,250L-94,253L-91,255L-91,258L-90,260L-91,263L-96,261L-101,260L-108,260L-109,259L-113,260L-117,259L-119,260L-129,260L-129,255L-131,251L-134,250L-135,247L-137,246L-136,244L-135,240L-132,234L-130,234L-127,230L-124,230L-121,233L-117,231L-116,228L-115,226L-114,222L-110,220L-109,216L-108,214L-107,211L-105,207L-100,202L-100,200L-99,199L-102,196L-101,194Z" fill="#E0E0E0" stroke="#fff" stroke-width=".4"/><path d="M-183,206L-184,209L-182,211L-180,213L-180,216L-178,217L-179,232L-177,236L-182,237L-183,235L-185,231L-186,228L-184,222L-186,220L-186,215L-186,211L-189,208L-188,206Z" fill="#E0E0E0" stroke="#fff" stroke-width=".4"/><path d="M-188,206L-189,208L-186,211L-186,215L-186,220L-184,222L-186,228L-185,231L-183,235L-182,237L-192,241L-195,243L-201,245L-206,243L-206,240L-208,235L-207,228L-204,223L-206,214L-207,209L-207,206L-196,206L-193,206L-191,205Z" fill="#E0E0E0" stroke="#fff" stroke-width=".4"/><path d="M-222,210L-222,206L-220,203L-221,201L-216,196L-215,192L-213,190L-210,191L-208,190L-207,188L-202,185L-201,183L-195,181L-192,180L-190,181L-186,181L-187,184L-186,187L-182,191L-182,194L-175,196L-175,200L-177,202L-180,202L-181,205L-183,206L-188,206L-191,205L-193,206L-196,206L-207,206L-207,209L-206,214L-210,213L-213,213L-215,214L-218,213L-219,211Z" fill="#E0E0E0" stroke="#fff" stroke-width=".4"/><path d="M-21,241L-23,242L-27,242L-31,241L-34,242L-35,243L-37,243L-39,242L-46,245L-49,245L-49,245L-51,249L-56,248L-60,247L-64,245L-69,243L-73,245L-75,248L-75,252L-79,252L-84,251L-87,254L-90,260L-91,258L-91,255L-94,253L-96,250L-97,248L-100,244L-99,243L-100,240L-99,235L-98,234L-95,228L-90,227L-89,226L-88,226L-86,227L-78,225L-76,223L-73,220L-73,218L-72,218L-66,218L-60,215L-55,208L-52,206L-48,205L-48,208L-44,211L-44,214L-45,217L-45,218L-43,220L-38,223L-35,225L-35,227L-31,231L-28,233L-26,237L-22,239Z" fill="#E0E0E0" stroke="#fff" stroke-width=".4"/><path d="M-75,252L-76,256L-78,259L-79,263L-80,268L-79,272L-80,274L-80,276L-81,278L-85,281L-88,284L-91,290L-90,295L-92,297L-96,300L-99,304L-101,303L-102,301L-105,301L-107,303L-109,303L-111,301L-113,302L-116,304L-121,298L-116,295L-118,290L-116,289L-112,288L-111,285L-108,288L-103,289L-101,286L-100,282L-101,277L-104,273L-101,266L-103,265L-107,265L-109,262L-108,260L-101,260L-96,261L-91,263L-90,260L-87,254L-84,251L-79,252Z" fill="#E0E0E0" stroke="#fff" stroke-width=".4"/><path d="M-119,260L-117,259L-113,260L-109,259L-108,260L-109,262L-107,265L-103,265L-101,266L-104,273L-101,277L-100,282L-101,286L-103,289L-108,288L-111,285L-112,288L-116,289L-118,290L-116,295L-121,298L-127,292L-131,287L-135,280L-134,278L-133,276L-132,272L-130,267L-128,267L-119,267Z" fill="#E0E0E0" stroke="#fff" stroke-width=".4"/><path d="M-129,260L-119,260L-119,267L-128,267L-130,267L-132,266Z" fill="#E0E0E0" stroke="#fff" stroke-width=".4"/><path d="M-0,325L2,326L5,327L9,328L12,330L15,333L17,338L16,340L14,345L15,350L14,352L12,358L15,360L-4,365L-3,370L-8,371L-11,373L-12,375L-14,376L-19,381L-23,385L-25,385L-27,385L-34,384L-35,383L-35,383L-37,381L-41,381L-46,383L-50,379L-54,373L-54,353L-41,353L-42,351L-41,349L-42,346L-41,343L-42,341L-40,341L-40,343L-37,343L-33,343L-31,346L-26,347L-22,345L-21,348L-16,349L-14,352L-11,355L-7,355L-7,349L-9,350L-13,347L-15,346L-14,340L-13,333L-14,330L-13,326L-11,325L-3,324Z" fill="#E0E0E0" stroke="#fff" stroke-width=".4"/><path d="M12,330L18,331L19,333L21,336L23,345L21,349L23,358L25,357L28,359L30,364L31,372L28,374L26,378L22,374L22,370L23,367L23,364L20,362L18,363L15,360L12,358L14,352L15,350L14,345L16,340L17,338L15,333Z" fill="#E0E0E0" stroke="#fff" stroke-width=".4"/><path d="M23,345L28,344L35,346L37,345L41,345L43,343L47,343L54,341L58,337L59,340L59,346L60,352L60,361L61,365L59,369L57,373L53,377L48,380L41,383L34,390L31,391L27,396L25,397L24,402L27,407L28,411L28,413L29,412L29,419L28,422L30,423L29,426L26,428L21,431L14,434L11,437L12,440L13,440L13,444L8,444L7,441L7,438L6,435L7,428L5,423L3,413L9,406L11,401L12,401L12,397L11,395L12,390L13,386L13,377L10,375L7,375L5,373L2,372L-3,372L-3,370L-4,365L15,360L18,363L20,362L23,364L23,367L22,370L22,374L26,378L28,374L31,372L30,364L28,359L25,357L23,358L21,349Z" fill="#E0E0E0" stroke="#fff" stroke-width=".4"/><path d="M8,444L7,447L3,447L-1,444L-1,441L1,439L2,437L3,436L7,438L7,441Z" fill="#E0E0E0" stroke="#fff" stroke-width=".4"/><path d="M-109,303L-111,304L-112,306L-112,308L-114,309L-116,304L-113,302L-111,301ZM-113,311L-111,310L-109,310L-107,310L-89,310L-87,314L-85,318L-84,320L-81,323L-77,323L-75,322L-72,323L-71,321L-70,317L-66,317L-65,316L-62,316L-63,318L-55,318L-55,322L-54,325L-55,328L-55,332L-52,334L-53,342L-51,341L-49,341L-45,341L-42,341L-41,343L-42,346L-41,349L-42,351L-41,353L-54,353L-54,373L-50,379L-46,383L-58,385L-72,384L-77,381L-101,381L-102,382L-106,379L-110,379L-114,380L-117,381L-117,377L-116,372L-114,366L-114,363L-112,357L-110,355L-107,351L-105,348L-104,343L-105,340L-107,337L-108,334L-110,330L-109,329L-107,326L-109,320L-111,316L-114,312Z" fill="#E0E0E0" stroke="#fff" stroke-width=".4"/><path d="M-2,288L-2,291L-0,292L-0,294L-2,295L-4,299L-6,301L-9,301L-9,294L-11,291L-7,291L-5,288Z" fill="#E0E0E0" stroke="#fff" stroke-width=".4"/><path d="M30,61L29,64L27,63L26,67L27,68L26,69L25,71L28,70L28,73L25,84L25,82L21,72L23,70L23,69L24,66L26,60L26,59L27,59L29,59L29,57L31,57L31,60L30,61Z" fill="#E0E0E0" stroke="#fff" stroke-width=".4"/><path d="M31,57L29,57L29,59L27,59L29,53L32,47L32,47L35,47L36,50L32,53Z" fill="#E0E0E0" stroke="#fff" stroke-width=".4"/><path d="M115,351L117,353L118,357L119,365L121,368L120,371L119,373L117,369L116,371L117,376L116,378L115,380L114,385L112,393L109,402L105,414L103,424L100,431L95,433L90,436L86,434L81,432L80,428L79,422L77,417L76,412L78,407L80,406L80,404L83,399L84,395L82,392L81,388L81,382L83,378L84,374L87,374L90,373L92,372L95,371L99,368L104,364L106,361L105,358L107,359L111,354L111,351L113,348Z" fill="#E0E0E0" stroke="#fff" stroke-width=".4"/><path d="M28,70L25,71L26,69L27,68L26,67L27,63L29,64L29,68Z" fill="#E0E0E0" stroke="#fff" stroke-width=".4"/><path d="M-130,79L-133,66L-137,63L-137,61L-142,57L-142,51L-139,47L-137,41L-138,34L-137,30L-130,27L-126,27L-126,31L-121,29L-121,30L-124,34L-124,37L-122,39L-122,46L-126,49L-125,53L-122,54L-120,57L-118,58L-119,64L-121,66L-123,68L-128,71L-127,74L-127,77Z" fill="#E0E0E0" stroke="#fff" stroke-width=".4"/><path d="M-242,99L-242,98L-242,97L-242,89L-232,84L-226,83L-221,81L-218,77L-211,74L-211,69L-207,68L-205,66L-197,65L-195,62L-197,60L-199,52L-200,48L-202,43L-196,39L-189,38L-185,35L-180,32L-169,31L-159,30L-156,31L-150,28L-144,28L-141,30L-137,30L-138,34L-137,41L-139,47L-142,51L-142,57L-137,61L-137,63L-133,66L-130,79L-128,85L-128,88L-129,94L-129,97L-130,101L-129,105L-131,108L-128,113L-128,116L-125,119L-123,118L-118,121L-115,126L-136,138L-154,151L-162,154L-169,155L-169,150L-172,149L-176,148L-177,144L-198,130L-219,115Z" fill="#E0E0E0" stroke="#fff" stroke-width=".4"/><path d="M29,64L30,61L37,64L49,56L52,65L50,66L38,70L44,77L42,78L41,81L37,82L35,84L32,86L26,85L25,84L28,73L28,70L29,68Z" fill="#E0E0E0" stroke="#fff" stroke-width=".4"/><path d="M127,120L129,120L129,122L134,121L139,121L142,121L147,117L151,112L155,108L156,110L157,116L154,116L153,120L154,121L152,122L152,125L150,128L150,131L148,132L130,129L128,122Z" fill="#E0E0E0" stroke="#fff" stroke-width=".4"/><path d="M123,117L122,112L124,108L126,108L128,110L128,114L126,118L125,118Z" fill="#E0E0E0" stroke="#fff" stroke-width=".4"/><path d="M105,81L107,84L106,86L108,91L104,91L102,88L97,87L101,80Z" fill="#E0E0E0" stroke="#fff" stroke-width=".4"/><path d="M52,65L49,56L63,49L65,40L64,34L68,32L71,27L74,26L81,27L83,29L86,28L90,37L94,39L94,44L91,46L90,52L94,59L101,63L105,69L104,74L106,74L106,78L109,81L105,81L101,80L97,87L85,87L68,72L59,67Z" fill="#E0E0E0" stroke="#fff" stroke-width=".4"/><path d="M150,131L150,128L152,125L152,122L154,121L153,120L154,116L157,116L160,120L163,123L168,124L171,125L174,129L176,131L178,132L178,133L176,137L175,139L172,141L170,146L167,145L166,147L165,150L165,155L165,155L162,155L158,158L158,161L156,162L152,162L150,164L150,166L147,168L144,168L140,170L137,170L135,166L130,155L148,148L152,135ZM156,110L155,108L157,106L158,106L157,109Z" fill="#E0E0E0" stroke="#fff" stroke-width=".4"/><path d="M836,372L840,376L838,377L836,374ZM833,371L832,369L832,364L835,366L836,371L835,370Z" fill="#E0E0E0" stroke="#fff" stroke-width=".4"/><path d="M440,198L438,191L442,185L450,184L456,185L461,188L464,183L469,186L471,190L470,197L460,202L462,206L456,206L451,209L445,208L443,205Z" fill="#E0E0E0" stroke="#fff" stroke-width=".4"/><path d="M456,185L450,184L442,185L438,191L440,198L434,195L429,196L430,191L425,191L424,198L421,207L419,212L419,217L423,217L426,223L427,228L430,231L434,232L437,235L435,238L431,239L431,235L426,233L425,234L422,231L421,228L418,225L415,222L414,226L413,222L413,218L415,212L418,206L422,200L419,194L419,192L419,188L414,183L413,180L415,179L417,173L415,169L411,164L408,159L411,157L413,150L418,150L421,147L425,146L427,148L428,152L432,152L430,159L431,165L437,161L439,162L442,162L444,159L448,160L453,165L453,171L458,177L458,182Z" fill="#E0E0E0" stroke="#fff" stroke-width=".4"/><path d="M469,186L464,183L461,188L456,185L458,182L458,177L453,171L453,165L448,160L444,159L442,162L439,162L437,161L431,165L430,159L432,152L428,152L427,148L425,146L426,143L431,139L432,141L435,141L434,133L437,132L441,137L444,143L451,143L454,149L450,151L448,153L455,157L460,165L464,170L469,175L470,179Z" fill="#E0E0E0" stroke="#fff" stroke-width=".4"/><path d="M451,209L456,206L462,206L460,202L470,197L471,190L469,186L470,179L469,175L464,170L460,165L455,157L448,153L450,151L454,149L451,143L444,143L441,137L437,132L441,131L446,131L452,130L457,126L460,129L465,130L464,134L467,137L473,138L465,144L460,150L459,155L463,161L469,170L475,174L478,179L481,191L480,202L475,206L468,210L463,215L456,221L453,217L455,212Z" fill="#E0E0E0" stroke="#fff" stroke-width=".4"/><path d="M613,-12L613,-12L613,-12ZM612,-14L613,-12L610,-13L608,-10L606,-7L606,-1L603,0L602,2L599,4L595,6L593,8L593,11L592,12L594,13L598,17L597,19L594,19L590,20L588,23L585,23L584,23L581,22L581,23L579,24L579,23L577,22L575,21L577,17L579,16L578,15L580,11L579,9L576,8L573,6L578,1L584,-3L589,-9L592,-6L597,-6L596,-10L605,-14L608,-19Z" fill="#E0E0E0" stroke="#fff" stroke-width=".4"/><path d="M584,23L585,23L588,23L590,20L594,19L597,19L598,17L603,26L605,31L605,40L602,44L597,45L592,48L586,49L586,45L587,39L584,31L589,30Z" fill="#E0E0E0" stroke="#fff" stroke-width=".4"/><path d="M349,-75L355,-76L367,-84L377,-89L382,-86L388,-86L392,-81L398,-81L407,-79L413,-85L411,-91L417,-101L424,-97L430,-96L437,-93L438,-86L447,-82L452,-84L460,-85L466,-84L472,-79L476,-74L482,-75L489,-73L495,-75L503,-77L512,-84L516,-83L519,-79L526,-80L523,-73L519,-64L521,-60L524,-61L530,-60L535,-63L540,-60L545,-54L545,-51L540,-52L531,-51L526,-48L522,-42L513,-39L507,-34L500,-36L497,-37L494,-31L496,-28L497,-25L492,-22L488,-18L481,-15L472,-14L462,-12L454,-7L452,-10L444,-10L435,-15L429,-16L421,-15L408,-17L402,-17L398,-21L395,-29L392,-30L384,-36L376,-37L369,-38L366,-42L369,-52L365,-60L356,-63L351,-68Z" fill="#E0E0E0" stroke="#fff" stroke-width=".4"/><path d="M408,93L408,96L406,97L407,101L402,100L394,105L394,108L391,114L391,117L388,123L383,121L383,128L382,131L382,133L379,135L376,124L374,125L373,129L370,125L372,122L375,121L377,115L374,114L368,114L362,113L362,109L359,108L354,105L352,110L356,114L352,116L351,119L355,120L354,124L356,129L357,135L356,137L352,137L344,139L345,144L341,147L333,152L326,159L321,164L315,168L315,171L312,172L306,175L304,175L302,180L303,188L303,193L301,199L301,210L298,210L295,215L297,217L291,219L289,223L286,225L281,219L278,210L275,204L273,201L270,195L269,187L268,183L262,174L259,162L258,154L258,146L256,140L247,143L243,143L235,135L238,132L236,130L229,124L233,120L247,120L245,114L242,110L241,105L237,102L244,95L251,95L258,88L261,81L267,74L267,69L272,64L268,61L265,56L263,49L266,46L276,48L282,47L288,41L295,49L294,55L297,59L297,63L292,62L294,70L300,74L308,79L304,83L302,89L308,92L314,95L322,99L330,100L334,104L338,104L346,106L351,106L352,103L351,99L351,96L355,94L356,100L356,101L361,104L365,102L370,103L375,103L376,99L373,96L378,95L384,90L391,86L396,88L400,85L403,89L401,92Z" fill="#E0E0E0" stroke="#fff" stroke-width=".4"/><path d="M379,135L379,140L377,139L377,144L376,141L375,137L374,134L371,130L366,130L366,133L364,136L362,135L361,136L359,136L357,135L356,129L354,124L355,120L351,119L352,116L356,114L352,110L354,105L359,108L362,109L362,113L368,114L374,114L377,115L375,121L372,122L370,125L373,129L374,125L376,124Z" fill="#E0E0E0" stroke="#fff" stroke-width=".4"/><path d="M373,96L376,99L375,103L370,103L365,102L361,104L356,101L356,100L360,94L363,93L367,94L371,94Z" fill="#E0E0E0" stroke="#fff" stroke-width=".4"/><path d="M351,96L351,99L352,103L351,106L346,106L338,104L334,104L330,100L322,99L314,95L308,92L302,89L304,83L308,79L311,78L316,80L322,85L325,86L328,89L332,90L337,93L344,95Z" fill="#E0E0E0" stroke="#fff" stroke-width=".4"/><path d="M288,41L282,47L276,48L266,46L263,49L265,56L268,61L272,64L267,69L267,74L261,81L258,88L251,95L244,95L237,102L241,105L242,110L245,114L247,120L233,120L229,124L225,122L223,118L218,112L207,114L197,114L188,115L191,107L199,103L199,100L196,99L196,93L190,90L187,86L184,82L195,86L201,84L204,85L206,84L210,84L218,82L218,75L222,71L226,71L227,69L231,68L234,69L236,67L236,63L238,58L242,57L240,52L246,52L247,49L247,46L250,43L249,39L248,36L252,33L258,31L265,30L268,29L272,28L276,32L278,38Z" fill="#E0E0E0" stroke="#fff" stroke-width=".4"/><path d="M219,26L222,27L227,28L229,29L233,27L235,28L237,25L241,25L242,24L243,20L245,18L249,19L248,22L250,22L249,29L252,31L254,30L256,29L260,25L264,26L271,26L272,28L268,29L265,30L258,31L252,33L248,36L249,39L250,43L247,46L247,49L246,52L240,52L242,57L238,58L236,63L236,67L234,69L231,68L227,69L226,71L222,71L218,75L218,82L210,84L206,84L204,85L201,84L195,86L184,82L190,75L189,71L185,70L184,65L182,59L185,55L182,54L184,49L186,40L193,42L197,41L199,38L203,37L207,34L208,28L213,27L214,24L217,26Z" fill="#E0E0E0" stroke="#fff" stroke-width=".4"/><path d="M227,28L230,20L229,14L225,13L226,9L231,9L234,5L236,-0L244,-2L243,2L244,4L246,4L244,6L238,5L237,10L244,9L251,11L263,10L264,18L266,17L270,19L270,22L271,26L264,26L260,25L256,29L254,30L252,31L249,29L250,22L248,22L249,19L245,18L243,20L242,24L241,25L237,25L235,28L233,27L229,29Z" fill="#E0E0E0" stroke="#fff" stroke-width=".4"/><path d="M246,-13L248,-16L252,-18L262,-15L263,-20L266,-21L275,-18L277,-19L287,-18L296,-18L299,-15L303,-13L302,-12L293,-7L290,-4L283,-3L280,2L274,1L270,3L264,7L265,8L263,10L251,11L244,9L237,10L238,5L244,6L246,4L251,5L259,-1L252,-6L247,-3L243,-7L248,-12Z" fill="#E0E0E0" stroke="#fff" stroke-width=".4"/><path d="M133,-9L136,-11L143,-13L147,-11L151,-4L154,-5L161,-5L160,-9L165,-12L171,-17L179,-12L180,-6L182,-4L189,-4L191,-3L194,5L201,11L205,15L211,18L219,22L219,26L217,26L214,24L213,27L208,28L207,34L203,37L199,38L197,41L193,42L186,40L186,33L181,33L174,26L169,25L163,21L158,21L156,22L152,22L147,26L142,28L141,22L142,14L137,11L138,6L134,5L136,-1L141,1L147,-2L142,-7L141,-12L136,-9L135,-3Z" fill="#E0E0E0" stroke="#fff" stroke-width=".4"/><path d="M109,81L106,78L106,74L104,74L105,69L101,63L94,59L90,52L91,46L94,44L94,39L90,37L86,28L82,22L84,19L82,10L86,8L87,11L90,15L94,16L96,15L104,10L106,9L108,11L106,15L109,19L111,19L113,25L119,26L123,30L132,32L141,30L142,28L147,26L152,22L156,22L158,21L163,21L169,25L174,26L181,33L186,33L186,40L184,49L182,54L185,55L182,59L184,65L185,70L189,71L190,75L184,82L187,86L190,90L196,93L196,99L199,100L199,103L191,107L188,115L177,113L170,111L163,110L160,102L158,101L153,102L147,105L139,103L133,98L127,96L123,89L118,80L115,81L111,78Z" fill="#E0E0E0" stroke="#fff" stroke-width=".4"/><path d="M30,61L30,61L31,60L31,57L32,53L36,50L35,47L32,47L31,41L33,38L35,37L36,35L37,31L39,32L45,30L49,31L54,31L61,29L64,29L71,27L68,32L64,34L65,40L63,49L49,56L37,64Z" fill="#E0E0E0" stroke="#fff" stroke-width=".4"/><path d="M96,15L94,16L92,11L92,10L89,10L87,8L86,8L83,6L79,4L80,-0L78,-3L87,-4L88,-2L91,-1L89,1L93,4L91,7L93,9L96,10Z" fill="#E0E0E0" stroke="#fff" stroke-width=".4"/><path d="M-121,-175L-118,-182L-113,-190L-111,-205L-115,-211L-115,-229L-111,-242L-105,-242L-103,-247L-105,-252L-96,-273L-90,-290L-86,-302L-80,-302L-78,-311L-67,-308L-66,-319L-62,-320L-54,-312L-44,-300L-44,-276L-42,-270L-53,-266L-59,-256L-58,-247L-67,-236L-79,-224L-84,-205L-79,-197L-73,-190L-79,-176L-85,-173L-88,-154L-91,-144L-99,-145L-102,-136L-109,-136L-111,-146L-116,-159Z" fill="#E0E0E0" stroke="#fff" stroke-width=".4"/><path d="M-16,-144L-9,-142L-9,-139L-5,-140L1,-138L1,-132L-0,-130L4,-123L6,-121L6,-119L10,-117L12,-114L9,-112L4,-112L3,-112L5,-108L6,-102L1,-101L-1,-99L-1,-94L-4,-95L-9,-94L-11,-97L-13,-95L-16,-96L-20,-97L-27,-99L-33,-100L-38,-100L-41,-97L-44,-97L-45,-101L-46,-106L-43,-108L-43,-112L-44,-116L-45,-120L-39,-120L-32,-124L-31,-130L-26,-133L-26,-138L-23,-140Z" fill="#E0E0E0" stroke="#fff" stroke-width=".4"/><path d="M6,-102L8,-101L10,-104L12,-103L18,-104L22,-98L21,-96L21,-93L26,-93L28,-89L28,-87L36,-83L41,-85L44,-80L48,-81L57,-77L57,-75L55,-70L56,-65L55,-62L49,-61L46,-58L46,-54L41,-54L37,-51L31,-50L26,-47L26,-42L25,-43L24,-44L22,-45L18,-47L16,-44L15,-45L6,-48L6,-51L-0,-50L-2,-45L-7,-38L-10,-40L-13,-38L-16,-40L-14,-41L-13,-44L-11,-47L-12,-48L-10,-49L-10,-48L-6,-48L-5,-48L-6,-49L-5,-51L-7,-53L-8,-57L-11,-58L-10,-61L-13,-64L-15,-64L-20,-67L-24,-66L-25,-65L-28,-65L-30,-62L-34,-62L-36,-60L-39,-62L-43,-62L-47,-63L-49,-61L-50,-64L-53,-66L-52,-70L-50,-73L-49,-72L-51,-76L-45,-84L-42,-85L-41,-88L-44,-97L-41,-97L-38,-100L-33,-100L-27,-99L-20,-97L-16,-96L-13,-95L-11,-97L-9,-94L-4,-95L-1,-94L-1,-99L1,-101Z" fill="#E0E0E0" stroke="#fff" stroke-width=".4"/><path d="M-45,-120L-44,-116L-43,-112L-43,-108L-46,-106L-45,-101L-44,-97L-41,-88L-42,-85L-45,-84L-51,-76L-49,-72L-50,-73L-56,-76L-61,-75L-63,-76L-67,-74L-70,-77L-73,-76L-73,-76L-76,-81L-80,-82L-81,-85L-85,-86L-86,-83L-89,-85L-89,-88L-94,-89L-97,-92L-99,-98L-99,-102L-100,-107L-102,-111L-101,-113L-102,-119L-98,-122L-88,-126L-81,-130L-74,-128L-74,-126L-68,-126L-61,-124L-49,-124L-46,-123Z" fill="#E0E0E0" stroke="#fff" stroke-width=".4"/><path d="M-85,-64L-85,-60L-88,-60L-87,-58L-89,-52L-90,-51L-96,-50L-99,-48L-104,-49L-113,-51L-114,-55L-120,-53L-121,-51L-125,-53L-128,-53L-130,-54L-130,-57L-130,-58L-128,-59L-125,-56L-124,-59L-119,-58L-114,-60L-111,-60L-109,-58L-109,-59L-110,-65L-107,-66L-105,-71L-101,-68L-97,-71L-95,-72L-90,-69L-87,-70L-85,-68L-85,-67Z" fill="#E0E0E0" stroke="#fff" stroke-width=".4"/><path d="M-53,-66L-50,-64L-49,-61L-53,-60L-56,-53L-60,-47L-65,-46L-68,-46L-73,-44L-75,-42L-81,-44L-85,-48L-87,-49L-88,-52L-89,-52L-87,-58L-88,-60L-85,-60L-85,-64L-81,-61L-79,-60L-74,-61L-74,-63L-71,-64L-68,-65L-67,-64L-65,-66L-63,-68L-61,-68L-55,-65Z" fill="#E0E0E0" stroke="#fff" stroke-width=".4"/><path d="M-25,-65L-24,-66L-20,-67L-15,-64L-13,-64L-10,-61L-11,-58L-8,-57L-7,-53L-5,-51L-6,-49L-5,-48L-6,-48L-10,-48L-10,-49L-12,-48L-11,-47L-13,-44L-14,-41L-16,-40L-17,-44L-16,-48L-16,-52L-20,-57L-22,-61L-24,-64Z" fill="#E0E0E0" stroke="#fff" stroke-width=".4"/><path d="M-16,-40L-13,-38L-10,-40L-7,-38L-7,-36L-10,-34L-12,-35L-14,-25L-17,-26L-22,-29L-29,-27L-32,-25L-41,-25L-46,-26L-48,-26L-50,-29L-51,-31L-49,-32L-51,-33L-53,-31L-56,-34L-57,-37L-61,-39L-61,-42L-65,-46L-60,-47L-56,-53L-53,-60L-49,-61L-47,-63L-43,-62L-39,-62L-36,-60L-34,-62L-30,-62L-28,-65L-25,-65L-24,-64L-22,-61L-20,-57L-16,-52L-16,-48L-17,-44Z" fill="#E0E0E0" stroke="#fff" stroke-width=".4"/><path d="M-26,-138L-26,-133L-31,-130L-32,-124L-39,-120L-45,-120L-46,-123L-49,-124L-50,-127L-49,-130L-52,-132L-58,-134L-60,-143L-53,-146L-42,-145L-36,-147L-35,-144L-32,-144Z" fill="#E0E0E0" stroke="#fff" stroke-width=".4"/><path d="M-21,-159L-18,-156L-18,-151L-16,-144L-23,-140L-26,-138L-32,-144L-35,-144L-36,-147L-42,-145L-53,-146L-60,-143L-59,-151L-56,-158L-51,-162L-46,-154L-41,-154L-40,-163L-34,-165L-32,-163L-26,-159Z" fill="#E0E0E0" stroke="#fff" stroke-width=".4"/><path d="M-17,-182L-16,-180L-21,-173L-19,-163L-21,-159L-26,-159L-32,-163L-34,-165L-40,-163L-39,-169L-41,-168L-45,-172L-46,-179L-38,-182L-30,-184L-23,-182Z" fill="#E0E0E0" stroke="#fff" stroke-width=".4"/><path d="M-102,-119L-101,-113L-102,-111L-100,-107L-99,-102L-99,-98L-97,-92L-99,-91L-101,-92L-102,-90L-107,-88L-109,-86L-114,-84L-112,-81L-112,-77L-109,-75L-105,-71L-107,-66L-110,-65L-109,-59L-109,-58L-111,-60L-114,-60L-119,-58L-124,-59L-125,-56L-128,-59L-130,-58L-136,-61L-138,-59L-143,-59L-142,-66L-139,-72L-148,-74L-151,-76L-150,-80L-152,-82L-151,-89L-152,-99L-148,-99L-147,-103L-145,-112L-146,-116L-145,-118L-140,-118L-139,-116L-135,-121L-136,-125L-136,-131L-132,-130L-128,-131L-128,-127L-121,-125L-122,-121L-115,-123L-112,-126L-105,-122Z" fill="#E0E0E0" stroke="#fff" stroke-width=".4"/><path d="M-50,-29L-48,-26L-46,-26L-41,-25L-32,-25L-29,-27L-22,-29L-17,-26L-14,-25L-17,-21L-19,-15L-17,-11L-22,-12L-29,-9L-29,-5L-34,-4L-38,-7L-43,-5L-48,-5L-48,-10L-51,-13L-50,-14L-51,-15L-50,-18L-48,-21L-51,-24L-51,-27Z" fill="#E0E0E0" stroke="#fff" stroke-width=".4"/><path d="M-27,42L-28,44L-37,45L-37,44L-44,42L-43,39L-40,42L-35,41L-31,42L-31,43ZM-48,-5L-43,-5L-38,-7L-34,-4L-29,-5L-29,-9L-26,-7L-27,-2L-29,-1L-33,-1L-36,-2L-43,0L-39,5L-42,6L-46,6L-49,2L-50,4L-49,8L-45,12L-48,14L-44,18L-41,20L-41,24L-47,22L-45,26L-49,27L-47,34L-51,34L-56,30L-58,24L-59,19L-62,15L-65,11L-65,9L-62,5L-62,2L-60,1L-60,-1L-56,-2L-53,-4L-50,-3L-49,-5Z" fill="#E0E0E0" stroke="#fff" stroke-width=".4"/><path d="M86,28L83,29L81,27L74,26L71,27L64,29L61,29L54,31L49,31L45,30L39,32L37,31L36,35L35,37L33,38L31,35L33,32L29,33L24,31L20,35L11,36L6,32L-1,32L-2,35L-7,36L-13,32L-19,32L-23,24L-27,20L-24,14L-28,10L-21,2L-12,2L-9,-4L2,-3L10,-8L17,-11L27,-11L38,-5L46,-2L54,-3L59,-2L66,-7L73,-7L78,-3L80,-0L79,4L83,6L86,8L82,10L84,19L82,22ZM-29,-9L-22,-12L-17,-11L-16,-7L-11,-5L-12,-3L-19,-2L-22,0L-27,5L-29,1L-29,-1L-27,-2L-26,-7Z" fill="#E0E0E0" stroke="#fff" stroke-width=".4"/><path d="M-60,-1L-60,1L-62,2L-62,5L-65,9L-66,8L-66,6L-70,4L-70,-0L-70,-6L-69,-8L-70,-9L-70,-12L-68,-16L-67,-15L-66,-15L-64,-13L-63,-12L-62,-9L-63,-7L-62,-3Z" fill="#E0E0E0" stroke="#fff" stroke-width=".4"/><path d="M-87,-49L-85,-48L-81,-44L-75,-42L-73,-44L-72,-40L-70,-38L-72,-35L-75,-37L-79,-36L-84,-38L-87,-38L-89,-36L-91,-38L-92,-34L-89,-30L-88,-28L-85,-24L-83,-23L-80,-19L-75,-16L-76,-14L-81,-18L-85,-21L-90,-23L-96,-29L-94,-30L-97,-34L-97,-37L-101,-38L-103,-34L-105,-37L-105,-40L-105,-40L-100,-40L-99,-41L-97,-40L-95,-40L-95,-42L-93,-43L-92,-47Z" fill="#E0E0E0" stroke="#fff" stroke-width=".4"/><path d="M-130,-58L-130,-57L-130,-54L-128,-53L-125,-53L-125,-49L-128,-47L-132,-48L-134,-45L-137,-45L-138,-46L-141,-43L-144,-43L-147,-44L-149,-48L-152,-47L-152,-51L-147,-56L-147,-58L-144,-58L-143,-59L-138,-59L-136,-61Z" fill="#E0E0E0" stroke="#fff" stroke-width=".4"/><path d="M-152,-82L-150,-80L-151,-76L-152,-76L-154,-77L-153,-82Z" fill="#E0E0E0" stroke="#fff" stroke-width=".4"/><path d="M-151,-89L-152,-82L-153,-82L-154,-77L-159,-81L-162,-80L-167,-85L-169,-89L-172,-89L-173,-92L-168,-94L-164,-93L-158,-96L-154,-91Z" fill="#E0E0E0" stroke="#fff" stroke-width=".4"/><path d="M-146,-116L-145,-112L-147,-103L-148,-99L-152,-99L-151,-89L-154,-91L-158,-96L-164,-93L-168,-94L-165,-97L-160,-112L-151,-116Z" fill="#E0E0E0" stroke="#fff" stroke-width=".4"/><path d="M-234,28L-235,26L-232,23L-232,21L-234,19L-232,13L-234,9L-232,8L-232,4L-231,3L-231,-3L-228,-5L-229,-10L-233,-10L-234,-9L-238,-9L-239,-13L-242,-12L-244,-10L-244,-15L-246,-19L-237,-25L-230,-24L-222,-24L-215,-22L-210,-23L-200,-22L-198,-19L-186,-15L-184,-17L-177,-13L-170,-14L-170,-10L-176,-4L-184,-2L-184,0L-188,5L-190,11L-188,16L-191,19L-193,24L-197,26L-202,32L-209,32L-215,32L-219,34L-221,37L-224,37L-227,34L-228,30Z" fill="#E0E0E0" stroke="#fff" stroke-width=".4"/><path d="M827,406L832,410L835,413L833,414L830,413L825,410L821,406L817,402L816,399L819,399L822,402L825,404Z" fill="#E0E0E0" stroke="#fff" stroke-width=".4"/><path d="M805,338L806,340L802,340L800,336L803,338ZM802,333L801,334L796,328L795,325L797,325L799,330ZM797,334L794,334L791,334L789,333L790,330L794,331L796,333ZM789,323L791,325L791,326L786,323L783,321L781,319L782,318L784,320ZM774,317L777,319L775,319L773,318L770,315L770,314Z" fill="#E0E0E0" stroke="#fff" stroke-width=".4"/><path d="M895,542L893,546L890,552L885,555L884,553L881,552L885,545L883,541L876,537L876,535L881,532L882,526L882,521L879,516L879,514L876,511L872,504L869,499L871,499L875,503L879,505L881,511L886,519L886,514L888,516L889,522L894,525L898,525L902,522L905,523L904,530L902,535L897,535L895,537L896,540ZM851,571L856,566L860,562L863,556L865,554L866,549L870,545L871,549L873,552L877,549L879,552L879,556L877,559L873,566L870,569L872,573L867,573L862,576L860,582L857,591L852,595L849,597L843,597L839,594L833,594L832,590L835,584L843,575L846,574Z" fill="#E0E0E0" stroke="#fff" stroke-width=".4"/><path d="M716,548L720,548L720,558L718,561L718,568L715,565L711,571L710,571L706,570L702,563L702,558L698,551L698,547L702,548L708,550L711,549ZM584,482L578,486L572,488L571,491L569,494L564,495L560,495L555,494L550,495L546,495L542,499L541,499L537,501L535,503L530,503L526,503L519,498L516,497L516,492L519,491L520,490L520,487L521,482L520,478L517,471L516,467L516,463L514,458L514,456L511,453L510,448L507,442L506,439L508,442L506,436L509,438L511,441L511,437L508,432L508,430L506,428L507,424L508,422L509,419L508,415L511,410L511,415L514,411L519,408L522,406L526,403L529,403L531,403L536,401L539,400L540,399L542,398L545,398L552,397L555,394L557,390L560,387L561,384L561,381L565,375L568,381L570,380L568,377L570,374L573,375L573,370L577,367L578,364L581,363L581,362L584,362L584,361L587,360L590,359L594,362L598,366L602,366L606,366L604,363L607,358L610,356L609,355L612,351L615,349L618,349L624,348L624,345L619,343L622,342L626,344L630,346L635,348L637,347L640,349L644,347L646,348L648,347L650,350L649,353L646,356L644,356L645,358L643,362L641,365L642,366L646,370L651,372L654,374L659,378L660,378L664,380L665,382L670,384L674,382L676,378L677,375L678,372L680,367L679,364L679,362L678,358L679,354L680,352L679,350L681,347L682,343L682,342L685,339L686,342L687,346L688,347L688,350L691,353L691,356L691,359L693,364L697,361L699,364L702,366L701,369L703,375L704,378L705,379L707,384L706,387L708,392L715,395L719,398L723,401L723,403L726,407L728,414L731,413L733,415L735,414L736,421L740,426L743,428L748,434L750,439L750,443L749,447L752,453L752,459L751,463L749,469L749,473L748,478L745,485L741,488L739,494L737,498L735,504L732,508L731,513L730,519L730,521L727,524L720,524L714,527L712,530L708,534L703,530L699,529L700,525L697,526L691,532L686,530L682,529L679,528L673,526L669,521L668,515L667,511L663,508L658,507L660,504L658,498L655,503L650,505L653,500L654,496L656,493L656,487L651,493L647,496L645,502L640,499L640,495L636,490L633,487L634,485L626,481L622,480L616,477L605,478L597,480L590,483Z" fill="#E0E0E0" stroke="#fff" stroke-width=".4"/><path d="M313,227L312,234L309,235L304,237L301,232L300,223L302,213L307,216L310,221Z" fill="#E0E0E0" stroke="#fff" stroke-width=".4"/><path d="M482,160L477,158L477,153L480,150L487,148L490,148L492,150L489,153L487,157ZM303,-13L303,-18L307,-20L301,-35L313,-39L317,-41L321,-56L333,-53L337,-58L337,-67L342,-68L347,-74L349,-75L351,-68L356,-63L365,-60L369,-52L366,-42L369,-38L376,-37L384,-36L392,-30L395,-29L398,-21L402,-17L408,-17L421,-15L429,-16L435,-15L444,-10L452,-10L454,-7L462,-12L472,-14L481,-15L488,-18L492,-22L497,-25L496,-28L494,-31L497,-37L500,-36L507,-34L513,-39L522,-42L526,-48L531,-51L540,-52L545,-51L545,-54L540,-60L535,-63L530,-60L524,-61L521,-60L519,-64L523,-73L526,-80L534,-77L542,-83L542,-87L548,-97L551,-100L551,-106L548,-108L553,-113L560,-115L568,-115L578,-112L583,-109L587,-99L589,-94L591,-88L594,-79L604,-76L611,-69L614,-61L623,-61L629,-64L639,-67L635,-59L633,-55L631,-46L627,-37L619,-39L614,-36L616,-28L615,-18L612,-18L612,-14L608,-19L605,-14L596,-10L597,-6L592,-6L589,-9L584,-3L578,1L573,6L564,9L560,12L553,14L556,11L555,8L560,2L557,-2L551,1L544,7L541,12L535,12L531,16L535,21L540,22L540,26L545,28L552,23L557,26L561,26L562,30L553,32L550,36L545,40L541,45L548,49L550,56L554,63L558,69L558,74L554,76L556,80L559,82L558,88L557,93L553,94L549,101L544,110L538,118L530,125L521,130L515,131L511,134L509,132L505,135L497,138L490,139L488,146L485,147L483,142L485,139L476,137L473,138L467,137L464,134L465,130L460,129L457,126L452,130L446,131L441,131L437,132L434,133L435,141L432,141L431,139L431,136L427,138L424,137L419,135L421,129L417,128L416,122L409,123L410,115L416,109L416,103L416,98L413,96L411,92L408,93L401,92L403,89L400,85L396,88L391,86L384,90L378,95L373,96L371,94L367,94L363,93L360,94L356,100L355,94L351,96L344,95L337,93L332,90L328,89L325,86L322,85L316,80L311,78L308,79L300,74L294,70L292,62L297,63L297,59L294,55L295,49L288,41L278,38L276,32L272,28L271,26L270,22L270,19L266,17L264,18L263,10L265,8L264,7L270,3L274,1L280,2L283,-3L290,-4L293,-7L302,-12Z" fill="#E0E0E0" stroke="#fff" stroke-width=".4"/><path d="M557,119L554,130L551,136L548,130L547,125L551,118L556,113L559,115Z" fill="#E0E0E0" stroke="#fff" stroke-width=".4"/><path d="M-125,-53L-121,-51L-120,-53L-114,-55L-113,-51L-104,-49L-105,-45L-103,-41L-108,-42L-113,-39L-113,-35L-113,-32L-111,-28L-106,-24L-103,-17L-96,-10L-91,-10L-89,-8L-91,-7L-86,-4L-81,-1L-76,3L-75,4L-76,7L-80,4L-85,2L-88,7L-83,10L-84,14L-87,15L-90,22L-92,22L-92,20L-91,16L-90,14L-92,9L-94,5L-97,4L-98,1L-102,-1L-105,-4L-110,-4L-114,-8L-120,-13L-124,-18L-126,-27L-129,-28L-134,-30L-137,-29L-140,-25L-143,-25L-142,-28L-146,-29L-147,-36L-145,-39L-147,-42L-147,-44L-144,-43L-141,-43L-138,-46L-137,-45L-134,-45L-132,-48L-128,-47L-125,-49ZM-98,20L-93,20L-96,26L-95,28L-96,32L-101,29L-104,28L-112,25L-112,21L-104,21ZM-135,-1L-132,-4L-128,2L-129,12L-132,12L-135,14L-137,12L-137,3L-139,-2Z" fill="#E0E0E0" stroke="#fff" stroke-width=".4"/><path d="M-128,-131L-132,-130L-136,-131L-139,-137L-139,-148L-138,-151L-136,-155L-131,-155L-129,-159L-124,-162L-124,-156L-126,-152L-125,-149L-122,-147L-123,-143L-125,-145L-129,-137ZM-113,-144L-111,-138L-114,-129L-121,-136L-122,-140Z" fill="#E0E0E0" stroke="#fff" stroke-width=".4"/><path d="M-227,-120L-231,-122L-235,-122L-234,-127L-235,-133L-230,-133L-223,-127ZM-207,-115L-207,-115L-207,-121L-211,-127L-211,-128L-218,-129L-220,-132L-217,-137L-219,-140L-223,-135L-223,-145L-226,-151L-224,-163L-219,-172L-214,-171L-207,-172L-213,-160L-207,-161L-201,-161L-202,-152L-208,-142L-201,-141L-201,-140L-195,-128L-191,-126L-187,-114L-186,-110L-178,-108L-179,-102L-182,-99L-180,-94L-185,-89L-193,-89L-204,-86L-207,-88L-211,-83L-216,-84L-221,-81L-224,-83L-215,-93L-209,-95L-209,-95L-219,-97L-221,-101L-214,-104L-218,-109L-217,-116Z" fill="#E0E0E0" stroke="#fff" stroke-width=".4"/><path d="M96,-9L97,-9L102,-4L104,-4L105,-6L109,-9L112,-5L115,1L118,2L120,4L115,4L114,11L113,13L111,15L111,19L109,19L106,15L108,11L106,9L104,10L96,15L96,10L93,9L91,7L93,4L89,1L91,-1L88,-2L87,-4L88,-6L93,-3L96,-3L97,-4L94,-8ZM94,16L90,15L87,11L86,8L87,8L89,10L92,10L92,11Z" fill="#E0E0E0" stroke="#fff" stroke-width=".4"/><path d="M56,-22L57,-23L62,-22L71,-21L80,-17L81,-15L84,-16L90,-15L92,-11L96,-9L94,-8L97,-4L96,-3L93,-3L88,-6L87,-4L78,-3L73,-7L66,-7L67,-10L65,-16L62,-19L58,-20Z" fill="#E0E0E0" stroke="#fff" stroke-width=".4"/><path d="M552,195L549,190L554,190L556,193L554,198ZM562,212L564,210L565,206L568,206L567,210L572,204L571,210L569,212L567,216L565,218L561,214ZM586,222L586,226L587,229L585,235L582,229L579,232L581,236L580,239L572,236L571,231L573,228L569,225L567,228L564,228L559,231L558,229L561,224L565,222L568,220L570,223L575,221L576,218L580,218L580,213L585,216L585,220ZM537,216L529,222L532,218L537,214L540,210L544,203L545,209L541,212ZM561,160L560,163L562,167L560,173L557,175L556,180L557,185L560,186L563,185L571,188L570,192L572,193L572,196L567,193L565,190L563,192L559,188L553,189L550,188L551,185L553,184L551,182L550,184L547,181L546,178L546,172L548,174L549,164L551,158L555,158L558,160L560,158ZM559,203L558,200L562,202L566,202L566,205L563,207L559,209L559,206ZM580,198L582,205L577,204L577,206L579,210L576,211L576,207L574,206L573,203L577,203L576,201L573,196L579,196Z" fill="#E0E0E0" stroke="#fff" stroke-width=".4"/><path d="M425,234L426,233L431,235L431,239L435,238L437,235L439,236L442,240L445,244L445,248L444,251L445,253L446,256L448,258L450,264L450,266L446,266L440,261L433,257L432,253L428,249L427,244L425,241L426,236ZM534,248L528,247L521,247L519,254L517,256L514,265L509,266L503,264L500,265L496,268L492,268L488,269L484,265L483,261L488,263L492,262L494,257L496,256L504,255L508,250L511,246L514,249L515,247L518,247L518,243L519,240L523,236L527,231L529,231L532,234L532,237L536,239L542,240L541,243L537,243L538,246Z" fill="#E0E0E0" stroke="#fff" stroke-width=".4"/><path d="M519,240L518,243L518,247L515,247L514,249L511,246L514,243Z" fill="#E0E0E0" stroke="#fff" stroke-width=".4"/><path d="M-104,-49L-99,-48L-96,-50L-90,-51L-89,-52L-88,-52L-87,-49L-92,-47L-93,-43L-95,-42L-95,-40L-97,-40L-99,-41L-100,-40L-105,-40L-103,-41L-105,-45Z" fill="#E0E0E0" stroke="#fff" stroke-width=".4"/><path d="M-13,-319L-14,-307L-5,-296L-11,-285L-3,-267L-8,-255L-2,-244L-5,-235L5,-225L2,-219L-3,-211L-17,-195L-28,-194L-38,-189L-48,-187L-52,-194L-58,-198L-57,-210L-60,-222L-57,-230L-51,-238L-37,-254L-33,-257L-34,-263L-42,-270L-44,-276L-44,-300L-54,-312L-62,-320L-58,-324L-52,-315L-44,-316L-37,-312L-31,-320L-28,-332L-19,-339L-11,-331Z" fill="#E0E0E0" stroke="#fff" stroke-width=".4"/><path d="M-50,-73L-52,-70L-53,-66L-55,-65L-61,-68L-63,-68L-65,-66L-67,-64L-68,-65L-71,-64L-74,-63L-74,-61L-79,-60L-81,-61L-85,-64L-85,-67L-85,-68L-84,-70L-81,-70L-79,-71L-79,-72L-78,-72L-77,-74L-76,-75L-75,-76L-73,-76L-73,-76L-70,-77L-67,-74L-63,-76L-61,-75L-56,-76Z" fill="#E0E0E0" stroke="#fff" stroke-width=".4"/><path d="M-97,-92L-94,-89L-89,-88L-89,-85L-86,-83L-85,-86L-81,-85L-80,-82L-76,-81L-73,-76L-75,-76L-76,-75L-77,-74L-78,-72L-79,-72L-79,-71L-81,-70L-84,-70L-85,-68L-87,-70L-90,-69L-95,-72L-97,-71L-101,-68L-105,-71L-109,-75L-112,-77L-112,-81L-114,-84L-109,-86L-107,-88L-102,-90L-101,-92L-99,-91Z" fill="#E0E0E0" stroke="#fff" stroke-width=".4"/><path d="M35,184L34,182L37,172L37,168L39,166L44,165L47,161L50,169L52,175L55,178L64,184L67,187L70,191L72,193L75,195L74,197L71,196L69,194L66,190L64,188L62,186L57,184L52,184L51,182L47,184L44,181L42,186Z" fill="#E0E0E0" stroke="#fff" stroke-width=".4"/><path d="M681,12L675,20L675,28L673,34L674,38L671,43L663,47L652,47L643,56L639,53L639,47L628,49L621,53L614,53L620,58L616,70L612,73L609,71L611,64L607,62L604,57L610,55L613,50L619,46L624,41L636,39L643,40L649,27L653,31L662,23L666,20L669,10L668,1L671,-4L678,-5L681,6ZM697,-27L702,-31L703,-21L694,-19L689,-10L679,-16L676,-7L669,-7L668,-15L671,-22L678,-22L679,-34L681,-41L688,-32L693,-29ZM622,56L626,51L629,52L632,49L636,51L637,53L634,58L631,55L628,57L626,61L622,59Z" fill="#E0E0E0" stroke="#fff" stroke-width=".4"/><path d="M130,155L135,166L137,170L132,172L131,175L131,177L125,179L115,182L110,187L107,187L105,187L102,189L98,191L93,191L91,191L90,193L88,193L87,195L84,195L82,196L78,195L76,192L76,188L75,187L74,182L72,179L74,179L73,176L74,175L74,172L76,170L76,167L77,164L80,166L81,165L88,165L90,166L96,166L98,166L99,168L102,167L107,160L112,157Z" fill="#E0E0E0" stroke="#fff" stroke-width=".4"/><path d="M26,85L32,86L35,84L37,82L41,81L42,78L44,77L38,70L50,66L52,65L59,67L68,72L85,87L97,87L102,88L104,91L108,91L110,97L113,98L115,101L119,104L119,107L118,109L119,111L121,113L122,115L123,117L125,118L126,118L127,120L128,122L130,129L148,132L150,131L152,135L148,148L130,155L112,157L107,160L102,167L99,168L98,166L96,166L90,166L88,165L81,165L80,166L77,164L76,167L76,170L74,172L73,169L71,167L70,165L67,162L64,157L62,152L58,147L55,146L51,140L51,135L51,131L47,124L44,121L41,120L39,116L39,115L38,111L36,110L34,105L30,99L27,94L24,94L25,90L25,88Z" fill="#E0E0E0" stroke="#fff" stroke-width=".4"/><path d="M12,43L12,43L13,41L18,42L23,39L19,43L20,44L19,44L18,44L17,44L17,44L16,44L16,43L15,43L13,44Z" fill="#E0E0E0" stroke="#fff" stroke-width=".4"/><path d="M12,43L13,44L15,43L16,43L16,44L17,44L17,44L18,44L19,44L20,44L20,45L13,48L10,47L9,44Z" fill="#E0E0E0" stroke="#fff" stroke-width=".4"/><path d="M-202,43L-200,48L-199,52L-197,60L-195,62L-197,65L-205,66L-207,68L-211,69L-211,74L-218,77L-221,81L-226,83L-232,84L-242,89L-242,97L-243,97L-242,101L-246,101L-248,103L-251,103L-253,102L-258,102L-260,108L-262,108L-265,117L-274,124L-276,133L-278,136L-279,139L-293,139L-293,139L-293,136L-290,134L-288,131L-289,129L-286,124L-283,120L-281,119L-279,115L-279,111L-277,107L-273,104L-269,97L-269,97L-266,94L-260,94L-255,89L-252,87L-247,81L-249,72L-246,66L-246,62L-242,57L-235,54L-231,51L-227,43L-225,39L-220,39L-217,42L-211,41L-204,43Z" fill="#E0E0E0" stroke="#fff" stroke-width=".4"/><path d="M37,135L13,135L-11,135L-35,135L-35,111L-35,86L-37,80L-36,76L-37,73L-34,70L-26,69L-20,71L-14,73L-11,75L-7,72L-4,70L1,70L6,71L7,74L9,72L14,73L18,74L21,72L25,82L25,84L24,87L22,92L21,96L19,97L17,95L14,92L10,82L9,82L12,90L16,97L20,108L23,111L25,115L30,122L29,124L29,128L36,134Z" fill="#E0E0E0" stroke="#fff" stroke-width=".4"/><path d="M-35,135L-35,148L-42,148L-43,151L-67,139L-91,126L-98,130L-102,132L-105,128L-115,126L-118,121L-123,118L-125,119L-128,116L-128,113L-131,108L-129,105L-130,101L-129,97L-129,94L-128,88L-128,85L-130,79L-127,77L-127,74L-128,71L-123,68L-121,66L-119,64L-118,58L-111,61L-108,60L-103,61L-95,65L-92,71L-87,72L-78,75L-72,79L-69,77L-66,74L-67,68L-65,65L-61,61L-57,60L-48,62L-46,65L-44,65L-42,66L-36,67L-34,70L-37,73L-36,76L-37,80L-35,86L-35,111Z" fill="#E0E0E0" stroke="#fff" stroke-width=".4"/><path d="M104,224L87,243L79,243L73,247L70,248L68,249L64,249L61,247L56,250L54,253L50,252L48,251L47,252L45,251L37,246L33,246L31,244L31,241L28,240L24,233L21,232L20,229L17,226L13,226L15,222L19,222L20,220L20,215L21,208L24,206L25,204L27,199L31,196L34,190L35,184L42,186L44,181L47,184L51,182L52,184L57,184L62,186L64,188L66,190L69,194L71,196L69,199L67,202L67,203L67,205L71,206L72,205L74,206L72,208L74,212L77,215L79,217L99,224Z" fill="#E0E0E0" stroke="#fff" stroke-width=".4"/><path d="M71,196L74,197L75,195L77,197L77,200L73,201L76,203L74,206L72,205L71,206L67,205L67,203L67,202L69,199Z" fill="#E0E0E0" stroke="#fff" stroke-width=".4"/><path d="M111,203L111,203L111,206L111,212L111,215L109,219L104,224L99,224L79,217L77,215L74,212L72,208L74,206L76,203L78,204L79,207L82,209L85,209L91,208L97,207L103,205L106,205L108,203Z" fill="#E0E0E0" stroke="#fff" stroke-width=".4"/><path d="M19,279L7,280L-0,280L-2,280L-6,282L-7,282L-7,277L-6,275L-6,270L-4,267L-2,264L0,262L2,260L-0,259L0,252L3,250L7,252L12,250L16,250L20,247L23,252L23,255L26,262L24,266L21,270L19,273Z" fill="#E0E0E0" stroke="#fff" stroke-width=".4"/><path d="M-2,280L0,284L-0,288L-2,288L-5,288L-7,291L-11,291L-10,288L-9,287L-9,283L-7,282L-6,282Z" fill="#E0E0E0" stroke="#fff" stroke-width=".4"/><path d="M-75,-16L-80,-19L-83,-23L-85,-24L-88,-28L-89,-30L-92,-34L-91,-38L-89,-36L-87,-38L-84,-38L-79,-36L-75,-37L-72,-35L-70,-35L-71,-31L-68,-28L-69,-24L-71,-23L-72,-22L-74,-20Z" fill="#E0E0E0" stroke="#fff" stroke-width=".4"/><path d="M-51,-13L-48,-10L-48,-5L-49,-5L-50,-3L-53,-4L-56,-2L-60,-1L-62,-3L-63,-7L-62,-9L-62,-9L-61,-11L-58,-12L-56,-13L-54,-13Z" fill="#E0E0E0" stroke="#fff" stroke-width=".4"/><path d="M-73,-44L-68,-46L-65,-46L-61,-42L-61,-39L-57,-37L-56,-34L-53,-31L-51,-33L-49,-32L-51,-31L-50,-29L-51,-27L-51,-24L-48,-21L-50,-18L-51,-15L-50,-14L-51,-13L-54,-13L-56,-13L-57,-13L-56,-14L-55,-16L-56,-16L-57,-18L-58,-18L-59,-19L-60,-20L-61,-21L-62,-21L-63,-18L-64,-17L-64,-18L-66,-20L-68,-21L-69,-22L-71,-23L-69,-24L-68,-28L-71,-31L-70,-35L-72,-35L-70,-38L-72,-40Z" fill="#E0E0E0" stroke="#fff" stroke-width=".4"/><path d="M-66,-15L-67,-15L-68,-16L-70,-12L-70,-9L-71,-10L-73,-13L-76,-14L-75,-16L-74,-20L-72,-22L-71,-23L-69,-22L-68,-21L-66,-20L-64,-18L-64,-17Z" fill="#E0E0E0" stroke="#fff" stroke-width=".4"/><path d="M-62,-9L-63,-12L-64,-13L-66,-15L-64,-17L-63,-18L-62,-21L-61,-21L-60,-20L-59,-19L-58,-18L-57,-18L-56,-16L-55,-16L-56,-14L-57,-13L-56,-13L-58,-12L-61,-11L-62,-9Z" fill="#E0E0E0" stroke="#fff" stroke-width=".4"/><path d="M0,252L-5,248L-6,245L-10,247L-13,246L-14,247L-17,246L-21,241L-22,239L-26,237L-28,233L-31,231L-35,227L-35,225L-38,223L-42,221L-40,220L-38,219L-37,213L-35,210L-31,209L-29,211L-26,215L-25,215L-22,214L-18,214L-17,216L-11,216L-11,214L-8,213L-7,211L-5,210L0,214L4,213L7,209L10,205L9,201L8,200L12,199L12,198L15,198L14,203L15,207L18,210L19,212L19,215L20,215L20,220L19,222L15,222L13,226L17,226L20,229L21,232L24,233L28,240L24,244L20,247L16,250L12,250L7,252L3,250Z" fill="#E0E0E0" stroke="#fff" stroke-width=".4"/></g><g clip-path="url(#v)"><path d="M424.8,146.4L424.1,146.0L423.8,145.7L423.4,145.7L423.0,145.9L422.7,146.2L422.4,146.3L421.9,146.3L421.2,146.2L420.8,146.1L420.7,146.1L420.9,146.7L421.0,147.2L420.9,147.5L420.7,147.7L420.4,147.8L420.0,147.9L419.7,147.9L419.2,147.7L418.8,147.7L418.4,147.8L418.2,148.0L418.1,148.2L417.9,149.3L417.7,149.7L417.4,149.9L417.2,149.9L416.8,149.9L416.5,149.9L414.9,150.4L414.6,150.4L414.1,150.5L413.6,150.5L413.3,150.5L412.5,150.0L412.1,149.9L411.9,150.1L411.8,150.7L411.3,151.1L410.7,152.0L410.6,153.2L410.6,154.1L410.1,155.0L410.0,155.4L410.3,157.4L410.3,157.6L410.2,157.7L409.8,157.8L409.2,158.0L408.9,158.2L408.7,158.2L408.1,158.1L408.0,158.1L408.0,158.2L408.5,159.1L408.9,159.5L409.4,159.4L409.6,159.5L409.5,159.7L409.7,160.3L410.1,161.2L410.2,161.8L410.0,162.5L410.0,162.7L410.2,162.8L410.6,163.4L411.4,164.4L412.2,165.4L412.9,166.3L413.4,166.9L414.5,168.0L414.7,168.5L414.7,169.5L415.0,170.1L415.3,170.6L415.5,170.9L415.9,172.1L416.0,172.3L417.0,171.5L417.2,171.7L417.3,172.0L417.3,172.3L417.1,172.7L416.8,173.1L415.5,173.9L415.3,174.6L415.3,175.7L415.2,177.0L415.3,178L415.2,178.2L415.1,178.3L414.6,178.3L413.8,178.8L413.6,178.8L413.2,179.0L413.0,179.3L412.9,179.6L413.1,180.7L413.3,181.7L413.9,182.5L414.3,183.1L414.9,183.9L415.3,184.6L416.2,185.4L417.5,186.6L418.0,187.2L418.5,188.0L418.8,188.7L418.9,189.6L419.0,190.1L419.0,191.7L418.8,192.1L418.6,192.5L418.7,193.0L419.0,193.4L419.0,193.9L419.3,194.8L419.8,195.4L420.2,195.7L420.4,196.0L420.4,196.5L420.5,197.0L420.6,197.5L420.8,198.3L421.1,198.9L421.7,200.8L421.7,201.0L421.5,201.4L421.1,201.8L420.9,201.9L420.7,202.3L420.1,203.3L419.1,205.1L418.1,206.2L417.3,207.0L416.6,207.5L416.5,207.8L416.5,208.1L416.6,208.5L416.5,209.3L416.4,209.8L416.2,210.3L416.1,210.8L415.8,210.8L415.3,211.7L415.0,211.3L414.9,210.8L415.0,209.8L414.7,207.7L414.9,207.5L415.1,207.3L415.5,206.6L416.0,205.8L416.0,204.9L416.4,204.2L416.3,203.7L416.3,203.0L416.4,202.5L416.4,202.0L416.7,201.6L417.2,201.2L417.0,201.1L416.8,200.8L416.1,201.2L415.7,201.1L415.7,200.7L415.7,200.3L415.8,200.0L416.0,199.7L416.0,199.2L415.9,198.7L416.1,198.1L415.7,198.1L415.5,197.9L415.6,197.6L416.0,197.3L415.7,196.7L415.9,196.1L415.9,195.3L415.7,194.6L415.7,194.1L415.5,193.3L415.3,192.2L414.8,191.3L414.4,190.1L413.3,188.6L413.3,187.9L413.3,187.3L413.0,187.0L412.7,189.1L412.5,188.7L412.4,187.5L412.3,187.0L412.4,185.9L411.8,184.8L411.7,184.0L411.3,182.8L411.4,182.5L411.9,182.8L411.4,182.1L411.0,182.2L410.7,181.5L410.6,179.4L410.2,178.6L410.4,177.8L410.0,175.0L409.3,174.1L409.4,173.3L409.6,172.6L409.6,171.3L409.8,170.9L410.1,170.6L409.8,170.7L409.5,170.8L408.8,170.9L408.0,170.9L407.7,169.9L407.3,169.5L407.0,168.5L406.8,167.4L406.9,167.2L406.3,166.8L406.1,166.5L405.5,165.8L404.8,165.3L405.0,165.6L405.2,165.9L404.8,166.5L405.1,167.6L404.8,168.3L404.5,169.2L404.3,169.7L403.4,170.6L402.7,170.9L402.2,171.0L401.8,170.9L401.3,170.4L401.2,170L401.1,169.3L400.9,169.2L400.7,169.3L401.0,170.2L401.0,170.6L401.6,171.4L401.4,171.6L400.4,172.0L400.1,172.0L399.8,172.0L399.8,172.4L399.6,172.6L398.1,173.1L397.8,173.7L397.6,174.4L396.8,175.2L395.8,176.0L395.6,175.9L395.3,175.8L395.3,175.0L395.7,174.3L395.6,173.6L395.5,174L394.8,175.0L394.5,175.3L393.9,175.2L393.1,175.4L392.8,174.3L392.8,174.0L392.7,173.6L392.8,173.3L392.8,173.0L392.6,173.6L392.5,174L392.2,174.4L391.4,174.8L391.3,174.3L391.3,173.8L391.5,173.4L391.5,172.7L391.7,171.7L391.7,171.3L391.6,170.9L391.5,171.5L391.4,172.1L391.2,172.2L390.9,172.4L390.4,173.0L390.0,173.6L389.1,174.2L388.7,174.1L388.6,173.4L389.0,170.9L389.3,170.6L389.5,170.1L389.8,168.7L390.1,168.1L390.2,167.0L390.4,166.8L390.8,165.8L390.9,164.2L390.8,163.3L390.4,162.5L390.0,160.1L388.9,158.1L388.9,157.5L388.4,156.7L388.8,156.6L387.9,155.9L387.8,155.6L387.6,154.0L387.6,153.1L387.5,153.2L387.3,153.8L387.0,154.0L387.1,155.0L387.1,155.2L386.9,155.6L386.1,155.2L385.5,154.8L384.9,153.7L384.2,152.5L384.4,152.4L384.7,152.3L385.7,153.2L386.3,153.4L386.6,153.2L387.1,152.8L387.3,152.1L387.1,151.8L386.6,151.7L386.3,151.5L385.9,151.0L385.9,150.7L385.7,150.4L385.3,150.2L384.9,149.9L385.2,149.4L385.5,149.0L384.8,149.0L383.9,148.4L383.7,148.2L383.4,148.1L382.7,148.0L382.2,148.2L382.4,149.1L382.4,149.4L382.0,149.4L381.2,148.0L381.4,147.6L381.8,147.3L381.6,147.2L381.3,147.2L381.6,146.0L381.4,145.8L381.3,146.2L381.1,146.6L380.5,147.4L380.1,147.3L379.9,147.1L380.2,146.6L380.4,146.5L380.5,146.2L380.3,145.7L379.9,145.4L379.6,144.8L379.4,144.8L379.5,145.5L379.5,146.5L378.8,145.4L377.4,143.7L377.1,143.3L377.0,142.8L376.8,142.3L376.7,141.9L376.7,141.5L376.4,141.2L376.2,140.6L376.2,140.0L376.4,139.5L376.8,139.1L377.1,139.0L377.3,139.2L378.0,139.5L378.4,139.8L378.6,140.2L378.7,140.1L378.9,139.9L378.9,139.6L378.7,138.8L378.6,137.9L378.6,135.7L378.6,135.5L378.9,135.2L379.1,135.0L379.2,134.6L379.3,134.4L379.5,134.4L379.8,134.6L380.3,135.2L380.6,135.4L381.0,135.3L381.3,134.4L381.5,134.1L381.6,133.9L381.9,134.0L382.1,133.8L382.2,133.4L382.2,132.9L381.8,131.7L381.7,131.1L381.7,130.6L381.9,130.0L382.2,129.3L382.1,128.7L382.2,128.5L382.4,128.4L382.7,128.6L383.1,128.5L383.3,128.1L383.4,127.8L383.6,126.4L383.7,125.2L383.7,124.1L383.5,123.5L383.1,121.9L383.2,121.6L383.4,121.5L384.0,122.1L384.2,122.2L384.6,122.1L385.1,122.0L385.4,122.0L385.8,122.2L386.4,122.4L387.4,122.6L387.8,122.9L388.1,122.8L388.4,122.2L388.7,121.2L389.1,119.8L389.6,118.8L389.8,118.5L390.3,117.7L390.9,116.8L391.4,115.7L391.7,114.9L391.6,114.6L391.5,114.3L391.1,114.2L390.8,114.0L390.7,113.8L390.7,113.6L390.9,113.1L391.1,112.5L391.4,112.2L392.1,111.7L392.6,111.2L393.1,110.5L393.4,110.0L393.5,109.1L393.7,108.9L394.0,108.6L394.3,108.2L394.2,108.0L394.1,107.9L393.9,107.2L393.8,106.1L393.8,105.2L394.0,104.9L394.2,104.4L394.7,104.1L395.3,103.9L396.3,103.3L398.0,102.0L398.6,101.5L399,101.3L399.4,100.8L399.9,100.1L400.7,99.8L401.2,99.7L403.7,99.3L404.1,99.3L404.5,99.6L405.0,100.4L405.4,100.7L405.9,100.9L406.3,100.8L406.3,100.5L405.1,98.6L405.0,98.1L404.9,97.6L405.1,97.2L405.5,96.8L406.0,96.4L406.7,95.9L407.1,95.5L407.6,95.4L407.8,95.2L407.8,94.9L407.8,94.5L407.6,94.1L407.6,93.7L407.7,93.2L407.9,93.0L408.4,92.3L408.6,91.8L408.8,91.5L409.0,91.2L409.4,91.1L409.7,91.2L410.0,91.5L410.2,91.9L410.4,92.3L410.7,92.3L411.0,92.2L411.1,92.3L411.4,92.6L412.0,93.3L412.2,93.4L412.4,93.7L412.5,94.4L412.6,95.0L413.3,97.1L413.5,97.5L413.6,97.8L414.0,97.9L414.2,97.6L414.3,97.2L414.6,97.1L414.9,97.2L415.5,97.5L415.8,97.7L416.0,98.7L416.0,99.9L416.0,100.3L416.2,101.3L416.3,102.5L416.4,103.1L416.4,103.7L416.3,104.5L416.2,105.5L415.9,106.4L416.0,107.2L415.9,107.5L415.3,107.7L415.3,108.0L415.5,108.5L415.8,109.0L415.8,109.4L415.7,109.7L415.3,109.7L414.7,109.9L414.3,110.7L413.9,111.3L413.6,111.4L412.9,111.2L412.7,111.4L412.4,112.5L412.2,112.9L411.9,113.3L411.6,113.5L411.3,113.7L410.7,113.6L410.4,114.2L410.1,115.0L410.0,115.5L410.2,116.1L410.1,116.3L409.8,116.5L409.3,116.8L408.9,117.8L408.9,118.7L409.1,119.0L409.5,119.2L409.8,119.5L409.8,119.9L410.0,120.5L409.9,121.1L409.2,122.1L409.1,122.6L409.6,122.8L409.9,122.7L410.3,122.5L410.8,122.1L411.9,121.6L413.1,121.3L414.1,121.2L414.9,121.2L415.3,121.3L415.4,121.5L416.5,121.2L416.7,121.2L416.9,121.2L416.9,121.4L416.1,122.2L416.0,122.6L416.0,123.1L416.3,123.4L416.6,123.8L416.9,124.5L416.7,125.2L416.8,125.5L417.1,125.7L417.2,126.1L417.2,126.6L417.1,127.4L418.3,127.8L419.3,128.0L420.0,128.0L420.5,128.2L420.8,128.4L421.0,128.7L421.1,129.0L420.8,129.2L420.3,129.8L420.0,130.8L420.1,131.4L420.0,132.0L419.4,132.9L419.2,133.4L419.0,134.0L419.0,134.3L419.1,134.5L419.4,134.6L419.8,134.7L420.3,134.6L421.6,134.7L423.0,135.0L423.6,135.1L423.8,135.4L423.7,136.0L423.6,136.5L423.7,136.9L423.9,137.3L424.3,137.4L424.7,137.6L424.7,137.8L424.6,138.2L424.8,138.5L425.0,138.7L425.4,138.9L426.2,138.6L426.8,138.7L427.3,138.9L427.8,138.8L428.2,138.6L429.2,137.6L430.3,137.0L430.7,136.9L430.9,137.0L431.0,137.1L431.0,137.3L431.1,138.1L431.0,138.2L430.7,138.8L429.8,139.5L429.1,139.8L428.7,139.8L428.4,140.2L428.1,141.0L427.8,141.5L427.5,141.7L427.4,141.9L427.3,142.4L427.4,142.7L427.9,142.7L427.9,142.8L427.5,143.0L427.1,143.1L426.6,143.1L426.1,143.2L425.6,143.7L425.2,144.6L424.9,146.0ZM413.1,206.0L413.6,207.1L413.6,207.3L413.5,207.3L413.4,207.3L413.2,206.7L412.8,206.4L412.3,206.4L412.7,205.9L412.9,205.8ZM412.9,212.4L412.7,212.7L412.5,212.7L412.7,212.1L413.2,211.7L413.6,211.6L413.6,211.9L413.2,212.2ZM413.2,202.7L413.2,202.9L413.1,202.9L413.0,202.8L413.0,202.2L413.3,201.7L413.5,201.0L413.7,200.8L413.7,201.2L413.6,202.0L413.4,202.4ZM415.0,200.1L414.7,200.1L414.6,199.1L414.7,198.9L415.0,199.4L415.6,199.7L415.4,199.9ZM415.2,201.1L415.1,202.4L414.7,202.2L414.5,202.2L414.3,201.4L414.3,201.3L414.1,200.8L415.0,200.7ZM414.4,195.7L414.5,195.9L414.7,195.9L414.6,196.5L414.2,197.3L413.9,197.4L413.8,197.4L413.9,196.3L413.7,195.6L413.7,195.2L414.3,195.4ZM412.7,198.5L412.6,198.6L412.5,198.5L412.3,198.4L412.1,198.0L412.2,197.7L412.3,197.6L412.5,197.7L412.6,197.7L412.6,197.8L412.5,198.1L412.6,198.3ZM390.2,174.6L389.8,175.2L389.7,174.2L390.4,173.7L390.7,173.2L391.0,172.9L391.1,173.3L390.8,174.1ZM409.2,172.6L409.0,172.7L408.6,172.3L408.6,171.3L408.9,171.0L409.0,171.0L409.3,171.1L409.3,171.3L409.4,171.5L409.3,171.7ZM385.4,157.0L385.3,157.0L384.7,156.5L384.2,155.8L385.0,155.7L385.7,155.8L385.8,156.2L385.6,156.8ZM384.2,149.1L384.3,150.0L383.9,149.7L383.8,149.2L383.7,148.8ZM385.6,151.3L386.3,151.9L386.6,151.8L387.0,152.2L387.0,152.3L386.9,152.6L386.7,152.8L386.2,153.0L385.8,152.8L385.7,152.2L385.3,152.0L385.1,151.7L385.4,151.4ZM415.1,206.0L415.0,206.0L414.9,205.9L414.7,205.9L415.1,205.2ZM412.3,201.4L412.3,201.7L411.9,201.4L411.9,200.3L412.2,201.0L412.3,201.1ZM412.2,197.0L412.2,197.3L411.8,197.7L411.5,197.4L411.4,197.3L411.8,197L412.1,197.0L412.2,197.0ZM413.8,192.6L413.7,193.6L413.4,193.1L413.4,192.5L413.4,192.0L413.4,191.9L413.5,192.0L413.6,192.2ZM392.3,175.4L392.1,175.5L391.9,175.4L391.8,175.3L392.4,174.6L392.4,174.9ZM381.2,148.9L381.3,149.5L381.0,149.3L380.7,148.4L380.7,147.9L380.9,148.1Z" fill="#4ECDC4" stroke="#2C3E50" stroke-width="1"/></g><circle cx="400.0" cy="150.0" r="4" fill="#E74C3C" stroke="#fff" stroke-width="2"/><text x="400.0" y="140.0" text-anchor="middle" font-family="sans-serif" font-weight="700" font-size="10" fill="#2D3436">Naypyidaw</text></svg>