<svg viewBox="0 0 800 300" xmlns="http://www.w3.org/2000/svg"><defs><clipPath id="v"><rect width="800" height="300"/></clipPath></defs><rect width="800" height="300" fill="#DCEEF8"/><g clip-path="url(#v)"><path d="M247,135L241,143L235,144L234,155L230,161L214,157L209,177L205,180L189,184L196,203L191,206L192,212L187,210L183,206L171,205L158,205L155,206L144,202L140,204L139,210L126,207L121,208L119,213L114,215L104,222L101,229L98,229L96,225L86,224L84,216L80,216L81,205L72,197L58,198L49,199L41,190L35,186L23,178L21,177L1,183L2,223L-2,223L-8,215L-13,212L-22,214L-25,218L-26,215L-24,211L-25,207L-34,203L-38,194L-42,191L-43,187L-35,188L-35,180L-28,179L-21,180L-20,169L-21,162L-29,163L-36,160L-45,165L-52,167L-56,166L-55,160L-60,152L-66,152L-73,144L-68,135L-70,133L-64,120L-56,127L-55,118L-39,104L-27,104L-10,113L-0,118L8,112L20,112L30,119L33,115L44,115L46,110L33,101L40,95L39,91L46,88L41,79L44,74L74,70L78,66L97,61L104,56L118,59L121,73L129,69L139,74L138,81L146,80L165,68L162,72L172,82L190,115L194,108L205,115L216,112L220,114L224,121L230,124L233,129L243,127Z" fill="#E0E0E0" stroke="#fff" stroke-width=".4"/><path d="M2,223L1,183L21,177L23,178L35,186L41,190L49,199L58,198L72,197L81,205L80,216L84,216L86,224L96,225L98,229L101,229L104,222L114,215L119,213L121,214L115,221L120,224L126,222L135,227L125,235L119,234L116,234L115,231L117,226L106,229L104,235L100,241L93,240L91,245L97,247L99,255L94,265L89,263L84,263L84,257L74,252L66,247L61,243L52,236L48,225L45,223L37,224L34,222L33,213L22,208L16,214L9,217L10,223Z" fill="#E0E0E0" stroke="#fff" stroke-width=".4"/><path d="M-111,591L-115,585L-116,556L-109,547L-107,545L-102,545L-95,539L-84,539L-62,515L-57,509L-53,504L-53,500L-53,492L-53,488L-53,488L-51,488L-47,487L-43,486L-39,483L-36,483L-36,485L-37,490L-37,494L-38,497L-41,506L-44,515L-49,525L-56,536L-63,545L-72,556L-80,562L-91,570L-99,576L-107,585L-109,589Z" fill="#E0E0E0" stroke="#fff" stroke-width=".4"/><path d="M-244,513L-250,510L-253,508L-253,505L-252,502L-252,499L-256,494L-257,490L-257,488L-260,486L-260,481L-262,478L-264,479L-264,476L-262,472L-262,469L-260,467L-262,465L-259,460L-256,454L-249,454L-250,422L-249,418L-240,418L-240,402L-209,402L-179,402L-148,402L-145,410L-147,411L-146,420L-143,430L-140,432L-136,435L-140,440L-145,441L-148,443L-149,449L-152,461L-151,464L-152,471L-156,479L-160,483L-164,489L-164,492L-168,494L-170,503L-170,510L-170,504L-171,504L-171,500L-172,497L-176,494L-177,488L-176,482L-180,482L-180,483L-185,484L-183,486L-183,491L-187,495L-191,501L-195,502L-201,497L-204,499L-205,501L-209,503L-209,504L-217,504L-218,503L-224,502L-227,504L-229,503L-233,498L-234,496L-240,497L-242,501L-244,508L-247,509L-249,510Z" fill="#E0E0E0" stroke="#fff" stroke-width=".4"/><path d="M297,-562L314,-574L329,-548L347,-504L345,-466L328,-461L307,-472L294,-488L288,-520L277,-529ZM368,-482L388,-459L386,-443L342,-428L356,-480L362,-485ZM650,-366L670,-365L699,-348L692,-325L664,-326L651,-319L635,-338L639,-360ZM723,-341L743,-333L734,-321L721,-324L707,-336L708,-346ZM658,-284L665,-294L675,-297L686,-286L687,-279L675,-279L659,-282ZM-85,-541L-70,-550L-58,-550L-57,-537L-52,-549L-45,-557L-33,-546L-36,-539L-47,-533L-54,-529L-55,-521L-64,-514L-72,-525L-68,-539ZM-258,70L-273,70L-282,69L-280,63L-270,58L-261,61L-258,63L-259,67ZM-18,-294L1,-319L-1,-333L17,-349L42,-370L68,-376L82,-389L97,-393L102,-380L97,-369L69,-353L46,-338L21,-310L10,-283L-3,-257L-1,-236L14,-216L9,-214L-16,-217L-18,-228L-32,-234L-34,-248L-26,-253L-26,-268L-10,-291ZM682,78L684,91L684,103L687,116L695,138L684,134L679,151L686,163L686,170L680,164L675,172L674,163L675,152L674,139L675,130L676,114L671,101L672,84L679,78L676,71L679,69ZM-1843,-176L-1843,-176L-1824,-160L-1804,-139L-1804,-127L-1799,-122L-1801,-137L-1780,-134L-1764,-115L-1772,-107L-1785,-105L-1785,-87L-1788,-83L-1796,-84L-1802,-90L-1812,-95L-1814,-104L-1822,-107L-1831,-104L-1835,-111L-1833,-118L-1842,-113L-1839,-104L-1843,-97L-1843,-97L-1843,-176ZM971,-97L971,-96L961,-88L951,-90L958,-80L963,-66L967,-61L967,-54L965,-49L951,-53L929,-40L922,-38L910,-27L899,-17L896,-10L885,-21L864,-9L861,-14L853,-8L843,-10L840,0L831,15L831,21L840,24L839,45L832,45L828,57L832,63L818,70L815,85L804,88L801,101L790,113L787,104L784,85L779,56L783,36L790,28L790,21L802,18L816,-1L830,-17L844,-30L850,-54L841,-52L836,-38L816,-21L810,-41L789,-35L770,-8L776,1L759,5L747,7L747,-4L735,-7L726,1L702,-2L676,3L651,32L621,65L633,66L637,75L644,78L649,71L658,72L669,86L670,97L663,110L663,125L659,144L647,161L645,169L634,182L624,194L619,201L608,207L603,207L598,202L588,210L587,213L587,213L586,211L585,206L589,206L591,193L589,184L595,180L605,182L610,171L613,158L616,154L620,143L607,147L600,152L588,152L585,140L576,132L562,128L559,116L557,109L554,103L549,90L542,85L530,82L520,82L510,84L504,91L508,94L508,101L504,105L497,118L497,123L486,131L476,127L467,128L463,124L458,122L447,131L437,133L429,136L419,134L412,134L408,128L400,122L392,120L382,122L375,124L364,119L362,110L353,106L346,105L337,100L329,113L332,120L325,129L313,126L305,125L300,119L292,119L285,115L273,121L258,132L250,134L247,135L243,127L233,129L230,124L224,121L220,114L216,112L205,115L194,108L190,115L172,82L162,72L165,68L146,80L138,81L139,74L129,69L121,73L118,59L104,56L97,61L78,66L74,70L44,74L41,79L46,88L39,91L40,95L33,101L46,110L44,115L33,115L30,119L20,112L8,112L-0,118L-10,113L-27,104L-39,104L-55,118L-56,127L-64,120L-70,133L-68,135L-73,144L-66,152L-60,152L-55,160L-56,166L-52,167L-56,174L-63,176L-71,187L-64,198L-65,205L-56,218L-61,222L-62,224L-66,224L-71,217L-73,217L-78,215L-80,210L-88,208L-92,210L-94,208L-104,203L-116,201L-123,199L-124,200L-133,191L-142,187L-149,180L-143,179L-137,169L-141,165L-130,160L-130,158L-137,159L-137,154L-133,151L-125,150L-124,146L-126,140L-123,134L-123,130L-134,126L-139,126L-144,121L-150,122L-159,118L-159,116L-162,110L-168,110L-169,106L-167,103L-172,96L-180,97L-182,97L-184,100L-187,99L-189,91L-191,87L-190,85L-183,86L-180,83L-183,79L-188,77L-187,75L-191,72L-195,63L-194,60L-195,53L-202,50L-206,52L-207,48L-216,45L-218,36L-219,29L-223,26L-219,21L-222,8L-216,-1L-217,-4L-208,-12L-216,-20L-200,-41L-192,-50L-190,-59L-201,-71L-198,-82L-205,-96L-200,-112L-209,-134L-202,-150L-214,-163L-212,-179L-206,-181L-193,-189L-185,-197L-172,-184L-150,-179L-121,-154L-115,-145L-114,-131L-123,-121L-136,-116L-171,-131L-176,-128L-164,-114L-163,-105L-163,-86L-153,-81L-147,-76L-146,-85L-150,-93L-145,-100L-126,-88L-120,-93L-125,-106L-107,-125L-100,-124L-92,-117L-88,-131L-94,-142L-90,-155L-96,-168L-74,-161L-70,-149L-80,-147L-80,-136L-74,-129L-61,-133L-60,-146L-43,-156L-16,-174L-10,-173L-18,-160L-8,-158L-2,-165L12,-166L24,-175L33,-162L42,-176L33,-189L38,-196L61,-189L71,-182L100,-158L105,-169L97,-180L97,-185L87,-187L90,-198L86,-216L86,-224L100,-246L105,-269L111,-275L132,-268L133,-253L126,-233L131,-225L133,-208L131,-178L140,-164L137,-150L121,-122L130,-119L133,-126L142,-131L144,-141L151,-151L146,-163L150,-177L141,-179L140,-191L146,-214L136,-234L150,-251L148,-269L152,-270L156,-255L153,-231L161,-227L158,-244L171,-254L187,-256L201,-241L194,-263L194,-291L207,-297L226,-296L243,-299L237,-314L246,-334L255,-335L270,-350L290,-354L293,-363L314,-366L320,-359L338,-376L352,-376L354,-390L362,-405L380,-420L393,-408L383,-400L400,-394L403,-377L410,-386L433,-385L450,-369L456,-357L455,-340L446,-331L425,-315L419,-306L429,-302L441,-295L448,-300L452,-283L455,-290L468,-294L493,-290L495,-277L527,-273L528,-294L544,-289L557,-289L570,-275L573,-258L568,-247L578,-228L591,-218L598,-243L611,-232L624,-239L639,-231L645,-238L658,-235L652,-258L662,-270L698,-262L733,-253L740,-238L760,-219L792,-224L807,-220L814,-210L813,-193L822,-187L833,-191L847,-192L862,-188L876,-190L890,-170L900,-177L893,-192L897,-202L922,-195L938,-197L961,-186L971,-176L971,-97ZM971,-219L963,-218L962,-225L971,-235L971,-219ZM-1843,-235L-1843,-235L-1843,-235L-1842,-236L-1836,-236L-1824,-229L-1825,-226L-1833,-220L-1843,-219L-1843,-219L-1843,-235ZM-175,172L-172,170L-167,172L-164,172L-163,175L-162,175L-162,176L-158,179L-150,178L-152,182L-160,184L-171,190L-175,188L-174,183L-182,180L-181,177L-173,174Z" fill="#E0E0E0" stroke="#fff" stroke-width=".4"/><path d="M-318,-499L-315,-514L-303,-516L-293,-500L-267,-469L-287,-453L-292,-425L-298,-418L-302,-389L-312,-387L-328,-409L-321,-421L-333,-432L-348,-465L-354,-498L-333,-514L-329,-498ZM-193,-189L-206,-181L-212,-179L-209,-194L-219,-203L-231,-195L-235,-179L-243,-170L-251,-175L-261,-174L-270,-185L-275,-179L-279,-179L-281,-164L-295,-168L-297,-156L-305,-156L-310,-141L-318,-119L-330,-93L-327,-87L-330,-80L-338,-80L-343,-63L-342,-41L-337,-33L-340,-14L-346,-3L-350,6L-355,-4L-370,14L-381,17L-392,10L-394,-7L-397,-44L-390,-55L-369,-69L-354,-87L-339,-113L-321,-152L-307,-168L-286,-195L-269,-205L-256,-204L-244,-224L-230,-223L-216,-227L-191,-210L-201,-204ZM-222,-516L-233,-492L-256,-487L-279,-494L-280,-506L-292,-507L-300,-528L-276,-541L-265,-530L-257,-544L-237,-532ZM-243,-426L-260,-411L-274,-419L-268,-429L-273,-441L-257,-449L-254,-434Z" fill="#E0E0E0" stroke="#fff" stroke-width=".4"/><path d="M-157,307L-158,310L-161,309L-162,315L-161,316L-163,317L-163,320L-159,318L-159,322L-163,336L-164,334L-168,321L-166,318L-166,317L-164,313L-163,306L-161,304L-161,304L-159,304L-158,302L-156,302L-156,306L-157,307Z" fill="#E0E0E0" stroke="#fff" stroke-width=".4"/><path d="M-156,302L-158,302L-159,304L-161,304L-158,296L-155,289L-154,289L-151,289L-150,293L-154,297Z" fill="#E0E0E0" stroke="#fff" stroke-width=".4"/><path d="M-159,318L-163,320L-163,317L-161,316L-162,315L-161,309L-158,310L-158,316Z" fill="#E0E0E0" stroke="#fff" stroke-width=".4"/><path d="M-158,310L-157,307L-148,311L-133,301L-129,312L-131,314L-147,318L-139,327L-141,329L-143,332L-149,333L-151,336L-154,339L-163,338L-163,336L-159,322L-159,318L-158,316Z" fill="#E0E0E0" stroke="#fff" stroke-width=".4"/><path d="M-33,383L-31,382L-31,384L-25,383L-18,383L-14,384L-8,378L-2,372L2,367L4,370L5,377L1,377L0,382L2,383L-2,385L-2,389L-4,392L-4,396L-6,397L-29,393L-32,384Z" fill="#E0E0E0" stroke="#fff" stroke-width=".4"/><path d="M-39,378L-39,372L-37,367L-35,366L-33,369L-32,374L-34,379L-36,380Z" fill="#E0E0E0" stroke="#fff" stroke-width=".4"/><path d="M-61,332L-59,336L-60,338L-57,345L-63,345L-65,341L-72,340L-66,331Z" fill="#E0E0E0" stroke="#fff" stroke-width=".4"/><path d="M-129,312L-133,301L-115,291L-112,280L-113,272L-109,270L-105,264L-101,262L-92,264L-90,266L-86,265L-81,276L-76,279L-75,285L-79,288L-81,295L-75,304L-66,309L-62,316L-63,323L-61,323L-61,328L-56,333L-61,332L-66,331L-72,340L-86,339L-108,321L-120,315Z" fill="#E0E0E0" stroke="#fff" stroke-width=".4"/><path d="M-4,396L-4,392L-2,389L-2,385L2,383L0,382L1,377L5,377L9,383L13,386L19,387L23,388L27,393L29,396L32,397L32,399L29,404L28,406L24,409L21,415L18,414L16,416L15,421L16,426L15,427L12,427L7,430L6,434L4,436L-1,436L-4,438L-4,441L-8,444L-12,443L-17,445L-21,446L-23,440L-29,427L-6,418L-1,402ZM4,370L2,367L5,364L6,365L5,368Z" fill="#E0E0E0" stroke="#fff" stroke-width=".4"/><path d="M366,482L364,472L369,466L379,464L387,465L393,468L397,463L404,466L406,471L405,481L391,487L395,492L387,492L380,496L373,494L370,490Z" fill="#E0E0E0" stroke="#fff" stroke-width=".4"/><path d="M387,465L379,464L369,466L364,472L366,482L359,478L352,478L354,472L347,472L346,481L342,493L339,500L340,505L345,506L348,513L350,520L354,524L359,525L363,529L360,532L355,533L354,529L348,526L347,527L344,524L342,520L338,516L334,512L333,517L332,512L332,508L335,500L338,492L343,484L340,477L340,473L339,469L334,462L332,458L335,457L337,450L334,444L329,438L325,431L329,430L332,421L338,420L342,417L347,415L350,417L351,422L356,423L354,432L354,439L362,434L365,435L369,435L371,432L377,433L383,440L383,448L390,455L389,462Z" fill="#E0E0E0" stroke="#fff" stroke-width=".4"/><path d="M404,466L397,463L393,468L387,465L389,462L390,455L383,448L383,440L377,433L371,432L369,435L365,435L362,434L354,439L354,432L356,423L351,422L350,417L347,415L349,412L355,406L356,408L360,409L359,399L363,398L368,404L371,412L381,412L384,419L379,421L376,424L386,429L392,439L397,446L403,452L405,458Z" fill="#E0E0E0" stroke="#fff" stroke-width=".4"/><path d="M347,415L342,417L338,420L332,421L329,430L325,431L329,438L334,444L337,450L335,457L332,458L334,462L339,469L340,473L340,477L343,484L338,492L335,500L334,494L336,488L334,483L334,474L331,470L329,461L327,450L324,444L319,448L310,454L305,453L301,451L303,441L302,433L295,424L296,421L292,420L286,413L286,406L289,407L289,401L293,399L292,396L293,393L294,384L300,386L303,379L304,375L308,367L308,362L318,356L324,358L323,352L326,351L325,347L330,347L332,352L336,354L336,361L336,368L328,375L327,385L335,384L337,392L342,394L340,401L346,404L349,405L355,403L355,406L349,412Z" fill="#E0E0E0" stroke="#fff" stroke-width=".4"/><path d="M380,496L387,492L395,492L391,487L405,481L406,471L404,466L405,458L403,452L397,446L392,439L386,429L376,424L379,421L384,419L381,412L371,412L368,404L363,398L367,396L373,396L381,395L388,390L391,393L399,395L397,400L401,403L409,405L398,413L392,420L390,426L396,435L404,446L411,451L415,457L419,472L418,486L411,491L402,497L396,503L386,511L383,505L386,500Z" fill="#E0E0E0" stroke="#fff" stroke-width=".4"/><path d="M587,213L587,213L587,213ZM586,211L587,213L584,213L580,216L578,220L578,227L574,229L573,231L570,234L565,236L561,239L561,243L560,244L563,246L568,250L567,253L563,253L558,254L555,258L551,258L551,259L547,257L546,259L544,260L543,258L541,257L539,255L541,251L543,250L542,248L544,242L544,241L539,240L536,237L542,230L551,225L556,217L560,221L567,221L565,216L577,211L581,205Z" fill="#E0E0E0" stroke="#fff" stroke-width=".4"/><path d="M551,259L551,258L555,258L558,254L563,253L567,253L568,250L574,262L576,268L576,279L573,285L566,287L560,291L553,291L552,286L554,279L550,269L556,267Z" fill="#E0E0E0" stroke="#fff" stroke-width=".4"/><path d="M325,347L326,351L323,352L324,358L318,356L308,362L308,367L304,375L303,379L300,386L294,384L293,393L292,396L293,399L289,401L285,388L282,388L281,393L277,389L279,384L283,384L286,376L282,375L275,375L267,374L266,368L263,367L257,363L254,369L259,374L255,377L253,380L258,383L256,388L259,394L260,401L259,404L254,404L244,406L245,412L240,417L229,423L220,432L215,438L207,443L207,447L203,449L196,452L192,452L190,458L191,469L192,475L189,483L188,497L184,497L181,503L183,506L176,508L174,513L170,516L163,508L159,497L156,489L154,485L149,478L147,467L146,462L139,451L136,435L133,425L133,415L132,407L121,412L115,411L105,401L109,398L106,394L97,387L102,382L120,382L118,374L114,370L113,363L108,359L116,350L125,351L133,341L138,332L146,323L146,317L153,311L146,307L143,300L141,292L145,288L156,290L165,289L173,281L181,292L180,300L183,304L183,309L178,308L180,318L187,324L198,330L193,334L190,343L198,346L205,350L215,355L226,357L231,361L237,362L246,364L253,364L254,360L252,355L253,351L258,349L259,356L259,358L266,361L271,360L277,360L284,360L284,355L281,352L287,351L294,344L303,338L310,341L316,337L319,342L317,346Z" fill="#E0E0E0" stroke="#fff" stroke-width=".4"/><path d="M289,401L289,407L286,406L286,413L284,408L284,404L282,400L279,395L272,395L272,398L270,403L267,401L265,403L263,402L260,401L259,394L256,388L258,383L253,380L255,377L259,374L254,369L257,363L263,367L266,368L267,374L275,375L282,375L286,376L283,384L279,384L277,389L281,393L282,388L285,388Z" fill="#E0E0E0" stroke="#fff" stroke-width=".4"/><path d="M281,352L284,355L284,360L277,360L271,360L266,361L259,358L259,356L264,349L268,347L273,349L278,349Z" fill="#E0E0E0" stroke="#fff" stroke-width=".4"/><path d="M253,351L252,355L254,360L253,364L246,364L237,362L231,361L226,357L215,355L205,350L198,346L190,343L193,334L198,330L202,328L208,331L216,337L220,338L223,342L229,344L235,348L244,350Z" fill="#E0E0E0" stroke="#fff" stroke-width=".4"/><path d="M173,281L165,289L156,290L145,288L141,292L143,300L146,307L153,311L146,317L146,323L138,332L133,341L125,351L116,350L108,359L113,363L114,370L118,374L120,382L102,382L97,387L91,385L89,379L83,372L69,374L56,374L45,375L48,365L59,361L58,357L55,355L55,348L47,344L44,338L40,333L53,338L61,337L66,338L67,336L73,337L83,333L83,325L87,320L93,320L94,318L100,316L103,317L106,315L106,309L109,303L114,301L111,295L118,295L120,292L120,288L124,284L123,279L121,275L126,271L134,269L143,268L147,266L152,265L158,269L160,277Z" fill="#E0E0E0" stroke="#fff" stroke-width=".4"/><path d="M84,263L89,263L94,265L97,266L102,263L105,265L108,260L112,260L114,259L114,255L118,252L122,254L121,257L123,257L123,266L126,269L129,267L132,266L137,261L142,262L150,262L152,265L147,266L143,268L134,269L126,271L121,275L123,279L124,284L120,288L120,292L118,295L111,295L114,301L109,303L106,309L106,315L103,317L100,316L94,318L93,320L87,320L83,325L83,333L73,337L67,336L66,338L61,337L53,338L40,333L47,325L46,319L41,318L40,312L37,305L41,299L37,298L39,291L43,279L51,283L57,282L58,277L64,276L69,273L70,265L77,263L78,260L82,262Z" fill="#E0E0E0" stroke="#fff" stroke-width=".4"/><path d="M94,265L99,255L97,247L91,245L93,240L100,241L104,235L106,229L117,226L115,231L116,234L119,234L116,237L108,235L107,241L116,240L125,244L140,242L142,251L145,250L149,253L149,256L150,262L142,262L137,261L132,266L129,267L126,269L123,266L123,257L121,257L122,254L118,252L114,255L114,259L112,260L108,260L105,265L102,263L97,266Z" fill="#E0E0E0" stroke="#fff" stroke-width=".4"/><path d="M119,213L121,208L126,207L139,210L140,204L144,202L155,206L158,205L171,205L183,206L187,210L192,212L191,214L178,220L175,224L165,225L162,232L154,230L149,232L141,237L142,240L140,242L125,244L116,240L107,241L108,235L116,237L119,234L125,235L135,227L126,222L120,224L115,221L121,214Z" fill="#E0E0E0" stroke="#fff" stroke-width=".4"/><path d="M-25,218L-22,214L-13,212L-8,215L-2,223L2,223L10,223L9,217L16,214L22,208L33,213L34,222L37,224L45,223L48,225L52,236L61,243L66,247L74,252L84,257L84,263L82,262L78,260L77,263L70,265L69,273L64,276L58,277L57,282L51,283L43,279L42,271L36,271L27,262L21,261L12,256L7,255L3,257L-2,257L-7,262L-14,264L-16,257L-15,247L-21,243L-19,236L-24,236L-22,227L-15,230L-8,226L-14,220L-16,214L-22,217L-23,225Z" fill="#E0E0E0" stroke="#fff" stroke-width=".4"/><path d="M-56,333L-61,328L-61,323L-63,323L-62,316L-66,309L-75,304L-81,295L-79,288L-75,285L-76,279L-81,276L-86,265L-90,257L-89,254L-91,242L-86,239L-84,243L-80,248L-75,249L-72,249L-63,241L-60,240L-58,243L-61,248L-56,254L-54,253L-51,260L-44,263L-38,267L-27,269L-15,267L-14,264L-7,262L-2,257L3,257L7,255L12,256L21,261L27,262L36,271L42,271L43,279L39,291L37,298L41,299L37,305L40,312L41,318L46,319L47,325L40,333L44,338L47,344L55,348L55,355L58,357L59,361L48,365L45,375L30,373L22,371L13,370L10,359L6,357L-0,359L-8,363L-18,360L-26,354L-33,351L-38,343L-44,331L-48,332L-53,329Z" fill="#E0E0E0" stroke="#fff" stroke-width=".4"/><path d="M-157,307L-157,307L-156,306L-156,302L-154,297L-150,293L-151,289L-154,289L-155,282L-153,278L-151,276L-149,273L-149,268L-146,270L-137,267L-133,269L-127,269L-118,265L-114,265L-105,264L-109,270L-113,272L-112,280L-115,291L-133,301L-148,311Z" fill="#E0E0E0" stroke="#fff" stroke-width=".4"/><path d="M-72,249L-75,249L-78,243L-78,242L-82,242L-84,239L-86,239L-89,236L-95,234L-94,229L-95,225L-84,223L-83,226L-80,228L-81,230L-77,234L-79,237L-76,240L-72,242Z" fill="#E0E0E0" stroke="#fff" stroke-width=".4"/><path d="M-216,45L-207,48L-206,52L-202,50L-195,53L-194,60L-195,63L-191,72L-187,75L-188,77L-183,79L-180,83L-183,86L-190,85L-191,87L-189,91L-187,99L-194,100L-197,103L-197,109L-200,108L-207,108L-209,105L-212,108L-215,106L-221,106L-230,103L-238,101L-244,102L-248,105L-252,106L-252,100L-255,94L-250,92L-250,86L-252,81L-252,76L-245,76L-236,71L-234,63L-228,59L-229,52L-224,50Z" fill="#E0E0E0" stroke="#fff" stroke-width=".4"/><path d="M-187,99L-184,100L-182,97L-180,97L-172,96L-167,103L-169,106L-168,110L-162,110L-159,116L-159,118L-150,122L-144,121L-139,126L-134,126L-123,130L-123,134L-126,140L-124,146L-125,150L-133,151L-137,154L-137,159L-143,160L-149,164L-156,165L-163,169L-162,175L-163,175L-164,172L-167,172L-172,170L-175,172L-176,171L-188,168L-188,164L-196,165L-198,172L-204,180L-208,178L-212,180L-215,178L-213,177L-212,173L-210,169L-210,167L-209,166L-208,168L-203,168L-201,167L-203,166L-202,164L-205,161L-206,157L-209,155L-208,151L-212,148L-215,147L-221,144L-226,145L-228,146L-231,146L-233,149L-239,150L-241,152L-245,149L-250,149L-255,148L-258,150L-259,147L-263,144L-262,139L-260,136L-258,137L-260,132L-253,121L-249,120L-248,117L-252,106L-248,105L-244,102L-238,101L-230,103L-221,106L-215,106L-212,108L-209,105L-207,108L-200,108L-197,109L-197,103L-194,100Z" fill="#E0E0E0" stroke="#fff" stroke-width=".4"/><path d="M-86,265L-90,266L-92,264L-101,262L-105,264L-114,265L-118,265L-127,269L-133,269L-137,267L-146,270L-149,268L-149,273L-151,276L-153,278L-156,273L-153,270L-158,270L-165,268L-170,274L-182,275L-188,270L-197,269L-198,273L-204,275L-211,269L-220,270L-224,260L-230,254L-226,247L-231,242L-223,232L-211,232L-207,224L-192,225L-183,218L-174,215L-161,215L-147,222L-136,226L-127,225L-120,226L-111,220L-103,220L-95,225L-94,229L-95,234L-89,236L-86,239L-91,242L-89,254L-90,257ZM-232,217L-224,214L-217,215L-216,219L-209,223L-211,225L-220,226L-223,229L-230,235L-232,230L-232,228L-230,227L-228,220Z" fill="#E0E0E0" stroke="#fff" stroke-width=".4"/><path d="M420,433L414,431L413,424L417,420L426,418L430,418L432,421L429,425L427,429ZM192,212L191,206L196,203L189,184L205,180L209,177L214,157L230,161L234,155L235,144L241,143L247,135L250,134L252,142L259,148L270,153L275,162L272,175L275,180L284,182L295,183L304,190L309,191L313,201L317,208L326,208L342,210L353,208L360,210L372,216L381,216L385,220L394,214L407,210L418,210L427,206L433,201L438,197L437,193L435,189L439,182L443,183L451,185L459,179L471,175L477,168L482,164L494,163L500,164L501,160L493,152L487,148L481,153L473,151L469,152L467,147L473,136L476,127L486,131L497,123L497,118L504,105L508,101L508,94L504,91L510,84L520,82L530,82L542,85L549,90L554,103L557,109L559,116L562,128L576,132L585,140L588,152L600,152L607,147L620,143L616,154L613,158L610,171L605,182L595,180L589,184L591,193L589,206L585,206L586,211L581,205L577,211L565,216L567,221L560,221L556,217L551,225L542,230L536,237L525,240L519,245L511,247L515,243L513,239L519,232L515,226L508,230L500,237L495,244L487,244L483,249L487,256L494,257L494,262L500,265L509,258L516,261L521,262L522,267L511,270L507,275L500,280L496,286L504,292L507,301L512,309L517,317L517,323L512,326L514,331L519,333L518,341L516,348L511,349L505,358L499,370L492,380L481,388L470,395L461,396L457,400L454,397L450,401L439,405L430,407L428,416L423,416L421,410L423,407L413,404L409,405L401,403L397,400L399,395L391,393L388,390L381,395L373,396L367,396L363,398L359,399L360,409L356,408L355,406L355,403L349,405L346,404L340,401L342,394L337,392L335,384L327,385L328,375L336,368L336,361L336,354L332,352L330,347L325,347L317,346L319,342L316,337L310,341L303,338L294,344L287,351L281,352L278,349L273,349L268,347L264,349L259,356L258,349L253,351L244,350L235,348L229,344L223,342L220,338L216,337L208,331L202,328L198,330L187,324L180,318L178,308L183,309L183,304L180,300L181,292L173,281L160,277L158,269L152,265L150,262L149,256L149,253L145,250L142,251L140,242L142,240L141,237L149,232L154,230L162,232L165,225L175,224L178,220L191,214Z" fill="#E0E0E0" stroke="#fff" stroke-width=".4"/><path d="M516,381L512,395L508,402L504,395L503,388L508,380L514,373L518,376Z" fill="#E0E0E0" stroke="#fff" stroke-width=".4"/><path d="M-73,217L-71,217L-66,224L-62,224L-61,222L-56,218L-52,223L-48,230L-44,231L-42,234L-48,234L-50,242L-51,246L-54,248L-54,253L-56,254L-61,248L-58,243L-60,240L-63,241L-72,249L-72,242L-76,240L-79,237L-77,234L-81,230L-80,228L-83,226L-84,223L-82,222L-77,225L-72,225L-71,224L-75,218ZM-75,249L-80,248L-84,243L-86,239L-84,239L-82,242L-78,242L-78,243Z" fill="#E0E0E0" stroke="#fff" stroke-width=".4"/><path d="M-124,200L-123,199L-116,201L-104,203L-94,208L-92,210L-88,208L-80,210L-78,215L-73,217L-75,218L-71,224L-72,225L-77,225L-82,222L-84,223L-95,225L-103,220L-111,220L-110,216L-112,209L-116,205L-121,204Z" fill="#E0E0E0" stroke="#fff" stroke-width=".4"/><path d="M509,478L505,472L512,472L514,475L512,482ZM523,500L525,497L525,492L530,492L528,497L534,490L533,497L531,500L528,505L526,507L521,502ZM552,512L553,517L553,522L551,529L548,521L544,525L547,531L545,534L535,530L533,524L536,520L531,517L528,520L524,520L519,524L517,522L520,515L525,513L530,510L532,513L538,511L540,508L545,507L545,501L551,505L552,509ZM491,505L480,512L484,507L490,502L494,496L499,489L500,495L495,499ZM521,433L519,436L522,442L520,449L515,452L514,458L516,465L520,466L523,465L533,469L532,474L535,475L534,479L528,475L525,471L523,474L518,469L511,470L507,469L508,465L510,463L508,461L507,464L503,460L502,456L501,448L505,451L505,438L508,431L513,431L518,433L520,431ZM518,488L517,484L522,487L527,487L527,490L523,494L518,496L518,492ZM545,482L548,491L542,489L542,492L544,497L540,498L540,493L537,492L536,488L541,488L540,485L536,479L543,479Z" fill="#E0E0E0" stroke="#fff" stroke-width=".4"/><path d="M-212,-179L-214,-163L-202,-150L-209,-134L-200,-112L-205,-96L-198,-82L-201,-71L-190,-59L-192,-50L-200,-41L-216,-20L-231,-19L-244,-13L-257,-10L-262,-18L-269,-23L-267,-39L-271,-54L-268,-64L-260,-75L-243,-95L-237,-99L-238,-107L-249,-116L-252,-123L-252,-154L-264,-169L-275,-179L-270,-185L-261,-174L-251,-175L-243,-170L-235,-179L-231,-195L-219,-203L-209,-194Z" fill="#E0E0E0" stroke="#fff" stroke-width=".4"/><path d="M-151,464L-152,461L-149,449L-148,443L-145,441L-140,440L-136,435L-131,444L-129,452L-125,456L-114,463L-110,468L-105,473L-103,475L-99,478L-101,480L-105,479L-107,477L-111,472L-114,469L-116,466L-123,463L-128,463L-130,461L-135,463L-140,460L-142,466Z" fill="#E0E0E0" stroke="#fff" stroke-width=".4"/><path d="M673,245L666,255L666,265L663,273L665,277L661,284L651,289L637,289L626,300L621,296L620,289L607,291L597,296L588,296L596,303L591,319L586,323L582,319L584,311L579,308L576,302L583,299L587,293L595,288L601,281L617,279L625,280L633,263L638,268L650,258L654,254L659,242L658,230L661,224L669,222L674,236ZM695,195L700,190L702,202L690,205L684,216L671,208L667,220L658,220L657,210L661,201L670,201L672,186L674,177L683,189L689,192ZM599,300L603,294L608,296L611,292L617,294L618,297L613,303L610,300L606,302L604,307L599,305Z" fill="#E0E0E0" stroke="#fff" stroke-width=".4"/><path d="M-29,427L-23,440L-21,446L-26,448L-28,452L-28,455L-36,458L-48,462L-55,467L-59,468L-61,467L-66,471L-71,472L-77,473L-79,473L-81,475L-83,476L-84,478L-88,478L-91,479L-96,478L-98,474L-98,469L-99,467L-101,461L-103,458L-101,457L-102,454L-101,452L-101,448L-98,446L-99,442L-97,438L-94,440L-91,440L-82,440L-81,440L-73,441L-70,441L-68,444L-65,442L-59,434L-52,430Z" fill="#E0E0E0" stroke="#fff" stroke-width=".4"/><path d="M-163,338L-154,339L-151,336L-149,333L-143,332L-141,329L-139,327L-147,318L-131,314L-129,312L-120,315L-108,321L-86,339L-72,340L-65,341L-63,345L-57,345L-54,353L-50,355L-49,358L-44,361L-43,365L-44,368L-43,371L-41,373L-40,376L-39,378L-36,380L-34,379L-33,383L-32,384L-29,393L-6,397L-4,396L-1,402L-6,418L-29,427L-52,430L-59,434L-65,442L-68,444L-70,441L-73,441L-81,440L-82,440L-91,440L-94,440L-97,438L-99,442L-98,446L-101,448L-102,445L-105,442L-105,439L-109,436L-114,429L-116,423L-121,417L-125,416L-130,408L-131,402L-130,397L-135,387L-139,384L-143,382L-145,377L-145,375L-147,371L-149,369L-152,362L-157,355L-161,349L-165,349L-164,344L-164,341Z" fill="#E0E0E0" stroke="#fff" stroke-width=".4"/><path d="M-180,284L-179,284L-178,282L-173,282L-166,279L-171,283L-170,285L-171,285L-173,285L-174,285L-174,286L-174,285L-175,284L-176,284L-179,285Z" fill="#E0E0E0" stroke="#fff" stroke-width=".4"/><path d="M-180,284L-179,285L-176,284L-175,284L-174,285L-174,286L-174,285L-173,285L-171,285L-170,285L-170,286L-178,290L-182,288L-184,285Z" fill="#E0E0E0" stroke="#fff" stroke-width=".4"/><path d="M-148,402L-179,402L-209,402L-240,402L-240,370L-240,339L-243,332L-241,326L-242,322L-239,318L-229,317L-221,320L-213,323L-210,324L-204,321L-201,319L-194,318L-188,319L-186,323L-184,320L-178,323L-172,323L-168,321L-164,334L-163,336L-165,340L-167,347L-169,351L-171,353L-173,350L-177,346L-182,333L-183,334L-180,344L-175,352L-169,366L-166,371L-164,376L-157,385L-158,387L-158,392L-149,400Z" fill="#E0E0E0" stroke="#fff" stroke-width=".4"/><path d="M-62,515L-84,539L-95,539L-102,545L-107,545L-109,547L-114,547L-117,545L-124,548L-127,551L-132,551L-134,550L-135,550L-138,550L-148,543L-153,543L-156,541L-156,536L-160,535L-165,526L-168,525L-169,521L-173,518L-178,517L-176,512L-171,512L-170,510L-170,503L-168,494L-164,492L-164,489L-160,483L-156,479L-152,471L-151,464L-142,466L-140,460L-135,463L-130,461L-128,463L-123,463L-116,466L-114,469L-111,472L-107,477L-105,479L-108,483L-110,486L-110,489L-109,491L-105,491L-103,491L-101,492L-103,495L-100,499L-97,503L-94,506L-69,515Z" fill="#E0E0E0" stroke="#fff" stroke-width=".4"/><path d="M-105,479L-101,480L-99,478L-97,480L-97,484L-102,486L-99,488L-101,492L-103,491L-105,491L-109,491L-110,489L-110,486L-108,483Z" fill="#E0E0E0" stroke="#fff" stroke-width=".4"/><path d="M-53,488L-53,488L-53,492L-53,500L-53,504L-57,509L-62,515L-69,515L-94,506L-97,503L-100,499L-103,495L-101,492L-99,488L-96,489L-95,493L-91,496L-87,496L-80,494L-71,493L-64,490L-60,490L-58,488Z" fill="#E0E0E0" stroke="#fff" stroke-width=".4"/><path d="M-195,551L-202,545L-204,542L-208,544L-212,543L-214,544L-217,544L-222,537L-223,535L-229,531L-231,527L-234,523L-240,519L-240,517L-244,513L-249,510L-247,509L-244,508L-242,501L-240,497L-234,496L-233,498L-229,503L-227,504L-224,502L-218,503L-217,504L-209,504L-209,503L-205,501L-204,499L-201,497L-195,502L-191,501L-187,495L-183,491L-183,486L-185,484L-180,483L-180,482L-176,482L-177,488L-176,494L-172,497L-171,500L-171,504L-170,504L-170,510L-171,512L-176,512L-178,517L-173,518L-169,521L-168,525L-165,526L-160,535L-165,540L-170,545L-175,548L-180,548L-187,550L-192,548Z" fill="#E0E0E0" stroke="#fff" stroke-width=".4"/></g><g clip-path="url(#v)"><path d="M250.7,135.3L250.7,135.3L251.6,135.3L252.0,135.0L252.4,134.6L253.1,134.2L253.2,133.7L253.2,132.7L253.6,131.8L254.8,131.6L255.2,131.5L255.7,131.6L256.4,131.5L257.1,131.5L257.5,131.7L258.0,131.9L258.7,131.9L258.9,131.5L258.9,130.9L259.2,130.8L259.5,131.2L259.7,131.5L260.0,131.6L260.8,131.3L261.4,130.9L261.6,130.1L261.9,129.7L262.3,129.9L263.0,129.9L263.7,129.3L264.5,128.9L265.1,128.6L265.2,128.2L264.9,127.4L265.0,126.4L265.8,125.8L266.8,125.8L267.6,125.4L267.8,124.4L268.2,124.1L268.6,124.0L269.5,123.8L270.2,123.4L270.6,123.2L271.8,122.6L272.9,122.5L273.4,122.1L273.7,121.5L274.3,121.3L274.9,120.8L275.8,120.1L276.1,120.1L277.4,119.7L278.0,119.6L278.3,119.5L278.8,119.5L279.1,118.8L279.7,118.4L280.3,118.2L280.6,117.7L281.1,117.1L281.9,116.7L283.1,116.7L284.2,116.7L284.9,116.6L285.5,115.7L285.6,115.3L285.7,114.8L286.2,114.6L286.7,115.4L287.2,115.8L288.0,116.3L288.3,116.8L288.7,116.9L289.2,116.5L289.5,115.7L290.1,115.5L290.8,115.7L290.9,116.1L291.0,116.5L291.3,117.2L292.0,117.8L293.0,117.8L293.4,117.7L294.3,117.8L295.2,117.9L296.1,118.1L296.4,118.1L297.5,118.2L299.0,118.3L299.6,118.2L301.0,118.4L301.3,119.0L301.6,120.3L301.8,121.5L301.8,122.5L302.2,123.0L302.6,123.2L302.9,123.6L303.5,124.2L303.9,124.9L304.3,124.9L304.7,124.7L305.4,124.6L306.3,124.7L307.0,125.1L307.2,125.7L307.7,126.0L308.2,125.9L309.5,125.9L309.9,125.9L310.3,126.2L311.0,126.3L311.3,125.9L312.4,125.6L313.0,125.1L313.5,125.1L313.9,125.3L314.2,125.7L314.6,125.6L314.8,125.2L315.2,125.2L315.6,125.4L316.5,125.8L317.1,126.4L317.7,126.5L318.3,126.3L318.6,126.2L318.9,126.5L319.4,126.7L319.7,126.5L320.3,126.3L322.4,126.6L322.9,127.3L323.3,127.6L323.6,128.1L324.2,128.5L325.3,128.4L325.8,128.0L326.7,127.1L327.1,126.3L327.6,126.0L328.2,125.9L328.7,125.9L329.2,125.9L329.8,125.3L330.4,125.0L331.1,124.3L331.3,123.9L331.7,123.0L331.9,122.4L332.3,121.5L332.5,120.1L332.6,119.3L332.5,118.7L332.1,118.4L331.5,118.3L330.9,117.8L330.6,117.3L330.3,116.6L330.0,115.8L330.0,115.2L330.0,114.7L329.7,114.3L329.2,113.6L329.0,113.1L329.1,112.3L329.6,110.9L329.7,110.2L329.8,109.8L329.7,109.4L329.9,108.6L330.2,108.2L330.6,107.3L331.1,106.9L331.8,106.9L332.1,106.6L332.2,105.7L332.5,105.0L332.7,104.5L333.1,103.9L335.3,102.9L336.3,101.6L336.6,100.9L337.0,99.5L337.3,98.9L337.8,99.1L338.4,99.9L338.9,99.9L339.5,100.4L341.3,101.4L342.3,101.6L342.9,101.7L343.8,102.0L344.3,102.6L345.4,103.5L346.3,103.7L347.8,103.8L349.6,103.8L350.2,104.0L351.5,104.6L353.0,105.4L354.4,106.0L355.5,106.5L356.2,107.0L356.8,107.3L357.4,107.0L358.2,107.1L360.2,107.7L361.5,108.2L362.5,108.5L362.8,109.0L362.9,109.7L362.7,110.2L362.8,111.6L363.1,112.3L363.3,113.2L363.4,114.1L363.3,115.1L363.5,115.5L363.8,115.8L364.1,116.4L364.0,117.1L363.8,117.5L363.9,118.1L364.2,118.6L364.8,118.7L365.3,118.8L365.9,119.6L366.9,120.5L367.6,120.7L368.3,121.2L369.7,121.5L370.7,121.7L371.2,122.0L371.8,122.8L372.7,122.9L373.3,123.2L374.4,123.5L375.1,123.4L375.7,123.1L376.1,123.1L376.9,123.3L377.9,123.4L378.7,123.2L379.3,122.6L380.0,121.9L380.9,121.5L381.9,121.4L382.6,121.1L384.9,120.5L385.8,120.5L386.5,120.0L387.2,119.6L388.1,119.4L389.3,119.8L390.5,120.2L391.9,120.3L392.9,120.7L393.5,121.2L394.6,121.5L395.8,121.4L397.4,121.2L398.4,121.4L399.6,122.2L400.2,122.8L401.0,124.2L401.8,124.8L402.5,125.4L403.4,125.4L405.6,125.4L406.9,125.7L407.9,125.9L408.1,126.1L408.0,127.1L408.0,128.4L408.0,129.0L408.3,129.4L408.6,129.5L408.8,130.1L409.3,130.5L410.2,131.0L411.7,132.5L412.6,133.2L413.3,133.4L414.3,133.2L415.7,133.2L418.2,133.3L419.9,133.7L420.5,134.0L422.2,134.4L424.1,134.8L425.7,135.2L426.7,134.7L427.5,134.6L428.3,135.0L429.1,135.6L429.7,135.6L430.6,135.3L433.6,133.6L434.6,133.0L435.3,133.2L436.0,133.0L436.5,132.8L437.7,132.5L438.5,132.4L439.3,132.3L440.4,132.2L442.7,131.1L443.7,130.9L445.3,131.2L446.1,131.0L446.9,130.4L448.1,129.9L448.3,129.0L448.9,127.7L450.1,126.8L451.1,125.9L452.1,125.1L453.4,124.5L454.5,124.0L456.0,122.7L457.2,122.1L457.8,121.9L458.5,122.1L459.8,122.3L460.7,122.2L461.2,122.4L462.3,123.0L463.3,123.5L464.0,124.5L465.4,125.8L466.1,126.3L466.6,126.5L467.9,126.6L468.9,126.7L469.5,126.4L470.5,125.8L472.1,125.1L472.8,125.1L473.8,125.5L475.4,126.2L476.0,126.7L476.4,127.4L475.7,129.0L474.2,132.4L473.0,135.2L472.3,136.8L471.9,138.0L471.3,139.2L471.3,139.9L470.7,141.0L469.7,142.3L469.5,143.7L469.5,145.0L469.4,146.2L468.2,146.9L467.3,147.5L467.6,149.7L468.1,150.5L468.8,151.4L469.6,152.1L470.3,152.7L471.0,152.4L471.7,151.5L472.9,150.7L473.6,150.7L474.0,150.9L475.1,150.9L476.2,150.7L477.0,150.6L478.1,150.8L478.5,151.0L479.5,151.3L480.4,152.1L481.1,153.0L481.6,153.1L481.9,152.8L482.5,152.1L483.2,151.3L484.2,150.1L484.9,149.2L485.5,149.1L486.5,149.1L487.1,148.8L487.9,148.7L488.6,149.1L490.6,149.3L491.2,149.7L492.1,151.1L492.7,151.9L493.6,152.3L494.2,152.5L494.7,152.7L495.2,153.1L495.3,153.5L495.5,154.2L495.8,154.6L496.4,155.0L496.8,155.2L496.9,155.7L497.1,155.9L497.5,156.3L498.6,157.7L499.2,158.1L500.1,158.9L500.5,159.6L500.5,160.3L500.7,160.9L501.3,161.7L501.5,162.3L501.4,163.0L501.5,163.7L501.3,164.4L500.4,164.9L500.1,165.1L499.4,165.2L498.2,164.9L497.1,165.0L495.8,164.8L494.8,164.2L494.2,163.7L493.3,163.4L492.9,163.5L492.4,164.2L491.8,164.1L491.2,164.2L489.9,164.0L489.1,163.9L488.0,164.3L487.3,164.5L486.0,165.0L485.3,165.9L484.7,166.1L484.2,166.1L483.8,165.8L483.2,165.3L482.3,165.4L482.1,165.5L482.0,165.9L481.7,167.1L481.7,167.6L481.5,167.9L481.0,168.0L480.1,168.0L478.7,167.9L477.8,167.6L477.2,167.8L476.5,168.4L475.9,168.5L475.5,168.7L475.1,169.6L474.6,170.2L473.9,170.9L473.1,172.4L472.8,173.3L472.9,173.7L472.9,174.3L472.6,174.9L471.9,175.5L471.4,175.6L470.6,176.2L469.4,177.2L468.6,178.1L467.5,178.3L466.7,178.5L465.0,178.8L464.5,178.8L462.6,179.0L461.2,178.5L460.5,178.6L459.8,178.8L459.5,179.1L459.4,179.7L459.2,180.1L458.7,180.9L457.6,181.9L456.7,182.6L456.1,183.5L455.7,183.8L454.9,184.1L454.5,184.3L453.5,185.1L452.7,185.8L452.2,186.0L451.6,185.8L451.2,185.7L450.0,185.5L449.2,185.4L448.0,185.2L445.3,184.4L444.5,184.1L443.7,183.0L443.0,182.5L442.1,182.4L440.7,182.4L440.0,182.3L439.0,182.4L437.8,183.5L437.3,184.3L436.8,185.1L436.3,186.8L436.0,187.9L435.8,188.5L435.2,189.5L435.1,190.1L435.3,190.6L435.8,191.2L436.0,192.0L436.7,193.0L437.3,193.7L438.5,194.8L438.9,195.4L439.3,196.1L439.3,196.8L439.3,197.2L438.8,197.6L438.0,197.8L437.6,198.2L437.0,198.8L436.3,199.6L435.9,199.6L435.5,199.8L433.4,200.7L432.7,200.9L432.1,201.2L431.3,202.1L430.7,202.8L430.0,203.7L429.7,204.1L429.1,205.0L428.2,206.0L427.8,206.6L427.5,206.9L427.3,207.3L426.4,207.6L425.7,208.0L424.6,208.5L423.1,209.1L421.8,209.7L421.0,210.1L419.8,210.7L419.0,210.9L417.4,210.9L415.4,211.0L413.9,211.1L412.8,211.0L411.1,210.9L409.9,210.8L409.0,211.0L407.0,211.2L406.5,211.3L403,211.8L401.4,212.1L400.0,212.2L398.9,212.5L398.3,212.7L397.4,213.1L396.9,213.3L395.4,214.0L391.9,215.6L389.5,216.8L389.1,217.0L387.5,217.9L386.6,218.3L386.0,219.0L385.5,219.5L384.9,219.7L384.0,219.2L383.3,219.3L381.1,219.1L381.1,216.8L379.6,217.1L377.2,217.6L375.0,218.1L372.9,217.0L371.4,216.2L370.0,215.4L367.9,215.0L366.1,214.5L362.8,213.8L361.4,213.2L360.7,212.4L359.4,210.6L358.9,210.2L358.3,210.0L357.7,209.8L356.2,209.8L354.5,209.7L352.0,209.3L350.0,209.0L346.6,208.4L345.8,208.3L344.1,208.8L341.8,209.5L337.7,209.0L335.9,208.8L332.3,208.3L328.1,207.7L324.1,207.1L321.2,207.5L319.6,207.6L317.7,207.9L317.5,207.6L317.4,206.5L317.0,205.7L316.0,204.7L315.3,203.9L314.0,202.7L313.6,201.9L313.5,200.8L312.2,197.8L311.5,195.7L311.3,195.3L311.0,194.6L310.6,194.3L309.7,194.0L309.4,193.7L309.4,193.0L309.6,192.0L309.7,191.3L309.6,191.1L307.3,191.3L305.8,190.8L304.6,190.3L302.9,189.0L301.9,188.5L300.6,187.1L298.7,186.7L298.0,186.2L297.1,185.0L296.4,184.3L295.3,183.8L293.5,183.3L290.6,182.9L289.6,182.8L288.0,183.0L286.7,183.1L284.8,182.8L283.6,182.4L282.3,182.4L281.4,182.4L280.2,182.3L279.6,182.1L279.1,181.8L278.0,181.9L277.3,181.5L276.7,181.0L276.0,180.8L275.2,180.8L274.9,181.0L274.6,181.0L274.4,180.2L273.7,179.0L273.6,178.5L273.2,177.9L273.0,177.3L273.0,176.5L273.3,175.0L274.0,173.6L274.4,173.3L274.7,172.9L275.3,172.2L275.6,171.6L275.6,170.8L275.2,170.0L274.9,168.9L274.9,168.3L275.4,167.6L275.9,166.0L275.8,165.6L275.6,165.3L275.6,164.5L275.5,163.5L274.9,162.0L274.6,161.2L274.0,160.8L273.4,160.6L272.8,159.5L272.1,158.2L271.7,157.4L271.5,156.9L271.4,156.0L271.1,154.8L270.8,154.2L270.5,153.8L270.4,153.1L270.2,152.8L269.3,152.5L268.6,152.0L268.3,151.4L268.2,150.8L268.0,150.5L267.5,150.4L267.1,150.9L266.4,151.1L266.1,151.1L265.6,150.8L265.4,150.5L265.0,150.1L264.3,149.0L263.7,148.7L262.5,148.8L261.5,149.3L260.9,149.2L260.3,149.0L259.7,148.5L259.3,148.0L258.7,147.9L257.5,147.1L256.7,146.5L256.6,145.3L256.2,144.6L255.4,144.3L254.6,143.5L253.4,143.1L252.6,142.8L252.0,142.5L251.9,142.2L251.9,142.0L252.2,141.5L252.5,141.1L252.6,140.7L252.3,140.4L251.7,140.1L250.8,139.8L250.7,139.2L250.1,138.7L250.2,138.2L250.6,137.9L251.1,137.7L251.1,137.3L250.9,136.9L250.7,136.3L250.8,135.9Z" fill="#4ECDC4" stroke="#2C3E50" stroke-width="1"/></g><circle cx="400.0" cy="150.0" r="4" fill="#E74C3C" stroke="#fff" stroke-width="2"/><text x="400.0" y="140.0" text-anchor="middle" font-family="sans-serif" font-weight="700" font-size="10" fill="#2D3436">Ulaanbaatar</text></svg>