<svg viewBox="0 0 800 300" xmlns="http://www.w3.org/2000/svg"><defs><clipPath id="v"><rect width="800" height="300"/></clipPath></defs><rect width="800" height="300" fill="#DCEEF8"/><g clip-path="url(#v)"><path d="M2097,466L2099,465L2102,468L2101,472L2096,474L2091,472L2090,468L2093,465ZM2114,458L2108,460L2103,462L2101,458L2106,457L2109,456L2114,453L2114,453L2114,458ZM-1034,453L-1034,453L-1034,453L-1032,453L-1033,457L-1034,458L-1034,458L-1034,453Z" fill="#E0E0E0" stroke="#fff" stroke-width=".4"/><path d="M836,319L838,320L869,338L870,343L883,352L878,363L879,368L885,371L885,373L882,378L883,381L882,385L885,391L889,400L892,402L885,407L876,410L870,410L867,413L861,413L859,414L848,412L842,412L839,400L837,396L835,394L826,392L821,389L816,388L812,386L809,384L804,373L799,368L797,363L798,358L796,350L800,350L803,347L806,342L809,340L809,337L807,335L806,332L809,331L809,326L806,321L809,320L818,320Z" fill="#E0E0E0" stroke="#fff" stroke-width=".4"/><path d="M464,59L464,60L464,62L464,76L435,76L435,101L427,101L425,106L427,120L392,120L391,123L391,119L391,119L411,118L412,115L415,111L418,98L430,87L435,75L437,74L440,67L447,66L451,67L455,67L457,65L463,64L463,59Z" fill="#E0E0E0" stroke="#fff" stroke-width=".4"/><path d="M-534,-182L-536,-182L-552,-195L-559,-201L-575,-207L-579,-219L-578,-228L-589,-234L-591,-246L-601,-257L-602,-264L-597,-272L-597,-282L-612,-292L-621,-310L-626,-322L-634,-329L-640,-336L-645,-345L-654,-340L-662,-330L-670,-341L-676,-349L-685,-354L-693,-354L-693,-465L-693,-551L-677,-545L-663,-533L-654,-531L-646,-541L-636,-549L-623,-546L-610,-557L-595,-564L-589,-553L-583,-559L-581,-571L-575,-568L-560,-545L-548,-563L-547,-543L-536,-548L-533,-555L-522,-553L-509,-543L-489,-534L-477,-530L-468,-531L-456,-519L-468,-507L-453,-502L-429,-505L-422,-509L-412,-495L-403,-507L-412,-517L-406,-525L-395,-526L-388,-529L-381,-523L-373,-510L-363,-512L-347,-502L-334,-505L-321,-505L-322,-519L-314,-523L-301,-515L-301,-493L-295,-512L-288,-511L-284,-535L-294,-551L-304,-561L-303,-590L-293,-610L-281,-606L-272,-593L-261,-563L-268,-551L-252,-546L-252,-521L-240,-540L-230,-524L-233,-507L-224,-491L-215,-508L-209,-528L-208,-556L-196,-554L-183,-550L-171,-538L-170,-526L-177,-513L-171,-500L-172,-489L-189,-474L-201,-471L-210,-477L-213,-466L-221,-448L-224,-439L-234,-426L-246,-424L-253,-416L-254,-403L-264,-401L-275,-385L-284,-365L-288,-351L-288,-331L-275,-328L-271,-312L-267,-300L-255,-303L-239,-296L-230,-290L-224,-283L-213,-279L-204,-272L-189,-271L-180,-270L-181,-257L-178,-242L-172,-226L-159,-212L-152,-217L-148,-231L-152,-254L-158,-262L-144,-269L-134,-280L-130,-291L-130,-302L-136,-316L-147,-328L-137,-346L-140,-362L-143,-391L-137,-395L-122,-390L-113,-388L-106,-393L-98,-387L-87,-376L-84,-369L-69,-368L-69,-353L-66,-331L-58,-328L-52,-318L-39,-328L-31,-347L-25,-355L-18,-339L-7,-318L3,-298L-1,-288L11,-279L19,-271L33,-267L38,-262L42,-249L49,-247L52,-242L53,-225L46,-220L40,-215L26,-210L15,-199L0,-197L-19,-199L-32,-200L-41,-199L-48,-189L-59,-183L-72,-165L-82,-154L-75,-156L-61,-173L-42,-184L-29,-185L-21,-179L-30,-170L-27,-156L-24,-146L-13,-140L2,-142L11,-156L11,-147L17,-142L6,-134L-13,-127L-22,-122L-32,-113L-38,-114L-39,-124L-24,-134L-38,-134L-47,-132L-53,-139L-53,-157L-57,-160L-63,-158L-66,-162L-72,-152L-75,-142L-78,-136L-82,-134L-85,-134L-86,-131L-102,-131L-115,-131L-119,-128L-128,-120L-129,-119L-132,-114L-140,-114L-149,-114L-153,-112L-151,-110L-150,-106L-151,-105L-162,-99L-171,-97L-181,-91L-183,-91L-186,-93L-187,-94L-187,-95L-185,-100L-181,-106L-178,-113L-180,-124L-182,-135L-191,-141L-190,-143L-191,-145L-194,-145L-196,-147L-196,-150L-198,-148L-200,-149L-200,-150L-202,-151L-202,-155L-209,-159L-216,-163L-225,-168L-233,-173L-241,-169L-244,-169L-255,-172L-262,-171L-270,-175L-279,-177L-285,-178L-288,-180L-289,-187L-292,-187L-292,-182L-310,-182L-340,-182L-370,-182L-396,-182L-423,-182L-448,-182L-475,-182L-484,-182L-510,-182ZM-195,-393L-188,-402L-176,-402L-176,-398L-187,-388L-193,-388ZM-158,-636L-167,-651L-167,-663L-163,-665L-143,-661L-128,-644L-127,-636L-136,-637L-146,-638L-155,-634ZM-163,-387L-159,-392L-156,-392L-153,-388L-157,-378L-161,-380L-163,-385ZM-279,-704L-284,-691L-296,-694L-307,-703L-302,-718L-290,-727L-282,-715ZM-281,-798L-285,-797L-301,-799L-304,-811L-286,-810L-280,-803ZM-306,-851L-296,-836L-298,-820L-311,-812L-318,-821L-322,-837L-323,-856L-311,-854ZM-231,-685L-245,-689L-268,-699L-271,-718L-273,-736L-281,-752L-299,-756L-309,-768L-306,-784L-288,-781L-278,-769L-261,-769L-254,-756L-256,-743L-246,-734L-240,-726L-228,-724L-216,-721L-202,-729L-184,-732L-170,-730L-160,-716L-158,-702L-164,-694L-177,-686L-188,-690L-213,-685ZM-433,-824L-421,-818L-424,-805L-440,-794L-453,-807L-446,-820ZM-431,-853L-419,-844L-430,-835L-444,-835L-444,-841L-435,-855ZM54,-214L49,-205L43,-193L49,-198L55,-195L52,-190L59,-186L63,-189L72,-185L69,-176L76,-178L77,-171L79,-163L76,-151L72,-151L66,-153L68,-164L65,-166L55,-154L50,-155L56,-161L48,-164L38,-163L22,-164L20,-168L26,-172L22,-176L29,-184L38,-205L44,-213L51,-218L55,-217ZM-194,-446L-184,-439L-174,-433L-173,-423L-167,-425L-161,-418L-168,-412L-182,-417L-187,-426L-196,-415L-208,-405L-211,-416L-223,-414L-215,-424L-214,-440L-211,-459L-205,-458L-203,-448L-199,-452ZM-149,-622L-141,-634L-121,-619L-109,-606L-108,-594L-92,-600L-83,-583L-62,-572L-54,-562L-46,-538L-62,-527L-41,-511L-27,-506L-15,-485L-1,-484L-4,-468L-19,-444L-30,-453L-44,-473L-55,-471L-56,-458L-47,-446L-35,-437L-31,-431L-26,-412L-29,-398L-40,-403L-62,-418L-49,-402L-40,-390L-39,-384L-63,-391L-81,-402L-92,-412L-89,-417L-102,-427L-115,-437L-114,-431L-140,-428L-147,-435L-141,-450L-125,-451L-107,-453L-110,-461L-107,-472L-96,-493L-98,-503L-101,-511L-115,-523L-132,-531L-127,-537L-136,-553L-144,-554L-151,-563L-155,-555L-171,-552L-203,-558L-222,-565L-236,-569L-243,-578L-234,-591L-246,-591L-249,-619L-242,-645L-233,-658L-211,-666L-217,-646L-210,-628L-202,-652L-180,-664L-165,-633L-166,-614ZM-287,-677L-268,-675L-252,-668L-265,-640L-275,-635L-285,-613L-295,-614L-300,-640L-300,-655L-295,-668ZM-535,-744L-520,-772L-502,-798L-488,-797L-476,-803L-478,-773L-484,-759L-492,-758L-509,-742L-523,-736ZM-621,-253L-612,-254L-615,-237L-607,-226L-611,-226L-616,-232L-619,-239L-624,-244L-625,-250L-625,-255ZM-383,-876L-366,-869L-342,-853L-335,-832L-332,-814L-346,-819L-360,-832L-380,-834L-372,-847L-382,-858ZM-540,-176L-545,-174L-559,-180L-562,-184L-569,-189L-571,-193L-580,-195L-583,-203L-583,-206L-573,-203L-568,-201L-560,-200L-557,-195L-553,-188L-544,-183ZM-523,-687L-511,-680L-488,-678L-480,-669L-470,-656L-481,-648L-503,-627L-514,-607L-514,-595L-537,-582L-541,-594L-561,-609L-558,-621L-552,-642L-544,-662L-553,-682ZM-403,-734L-395,-740L-386,-739L-385,-721L-390,-705L-419,-700L-442,-686L-455,-685L-456,-696L-438,-710L-477,-706L-490,-713L-478,-747L-469,-757L-445,-745L-429,-724L-414,-721L-426,-756L-418,-769L-409,-765L-406,-747ZM-392,-644L-382,-632L-376,-604L-374,-585L-359,-571L-343,-559L-344,-548L-359,-546L-353,-537L-356,-528L-372,-531L-387,-538L-397,-537L-413,-528L-436,-525L-451,-522L-456,-534L-468,-540L-476,-538L-486,-558L-480,-560L-467,-565L-455,-564L-443,-568L-460,-574L-479,-572L-491,-573L-496,-582L-476,-593L-489,-593L-504,-600L-497,-621L-491,-633L-467,-651L-459,-645L-463,-631L-443,-640L-431,-625L-421,-640L-413,-631L-406,-603L-402,-614L-408,-644L-400,-649ZM-339,-633L-348,-652L-338,-667L-327,-661L-312,-665L-309,-656L-318,-641L-304,-628L-306,-603L-320,-592L-329,-594L-335,-605L-357,-627L-356,-636ZM-392,-660L-381,-661L-374,-654L-382,-634L-395,-655ZM-322,-767L-315,-749L-315,-731L-319,-705L-333,-702L-342,-707L-342,-727L-357,-724L-357,-752L-348,-751L-335,-764L-322,-762ZM-300,-941L-294,-958L-285,-961L-289,-974L-268,-977L-257,-948L-242,-936L-228,-926L-221,-893L-211,-877L-223,-863L-239,-830L-254,-827L-272,-832L-282,-850L-282,-867L-275,-879L-291,-879L-300,-895L-306,-918ZM-261,-1015L-248,-1027L-238,-1029L-221,-1040L-208,-1065L-197,-1061L-188,-1042L-181,-1079L-169,-1091L-154,-1098L-127,-1101L-122,-1094L-97,-1106L-78,-1101L-59,-1097L-36,-1091L-17,-1082L-1,-1063L-1,-1045L-23,-1017L-44,-1005L-52,-991L-33,-992L-53,-957L-68,-942L-83,-900L-101,-892L-106,-882L-133,-877L-121,-871L-127,-863L-120,-840L-128,-826L-141,-814L-145,-797L-158,-786L-156,-777L-142,-778L-141,-769L-165,-746L-188,-757L-213,-751L-226,-755L-243,-757L-244,-776L-228,-784L-232,-814L-227,-817L-203,-799L-215,-825L-229,-834L-222,-851L-207,-862L-204,-878L-217,-897L-220,-923L-197,-920L-190,-915L-176,-934L-196,-940L-226,-936L-242,-955L-249,-977L-259,-995ZM-118,-497L-124,-490L-133,-489L-136,-500L-132,-513L-124,-516L-117,-510L-117,-500ZM-302,-546L-297,-536L-302,-528L-314,-535L-321,-532L-333,-543L-325,-551L-319,-562L-310,-555L-305,-550ZM-24,-194L-21,-195L-10,-191L-1,-186L-1,-183L-5,-183L-16,-187ZM-20,-156L-17,-150L-11,-148L-3,-149L-7,-144L-10,-143L-21,-148L-23,-152Z" fill="#E0E0E0" stroke="#fff" stroke-width=".4"/><path d="M-534,-182L-510,-182L-484,-182L-475,-182L-448,-182L-423,-182L-396,-182L-370,-182L-340,-182L-310,-182L-292,-182L-292,-187L-289,-187L-288,-180L-285,-178L-279,-177L-270,-175L-262,-171L-255,-172L-244,-169L-241,-169L-233,-173L-225,-168L-216,-163L-209,-159L-202,-155L-202,-151L-200,-150L-200,-149L-198,-148L-196,-150L-196,-147L-194,-145L-191,-145L-190,-143L-191,-141L-182,-135L-180,-124L-178,-113L-181,-106L-185,-100L-187,-95L-187,-94L-186,-93L-183,-91L-181,-91L-171,-97L-162,-99L-151,-105L-150,-106L-151,-110L-153,-112L-149,-114L-140,-114L-132,-114L-129,-119L-128,-120L-119,-128L-115,-131L-102,-131L-86,-131L-85,-134L-82,-134L-78,-136L-75,-142L-72,-152L-66,-162L-63,-158L-57,-160L-53,-157L-53,-139L-47,-132L-46,-128L-55,-122L-64,-118L-73,-115L-78,-107L-79,-105L-80,-98L-77,-92L-73,-92L-74,-96L-71,-94L-72,-90L-78,-88L-82,-89L-89,-87L-92,-86L-98,-85L-105,-82L-92,-84L-89,-82L-102,-79L-107,-79L-107,-80L-110,-77L-107,-76L-109,-68L-115,-59L-116,-62L-118,-63L-121,-66L-119,-60L-117,-58L-117,-53L-119,-49L-124,-40L-125,-41L-122,-48L-127,-52L-128,-62L-130,-57L-128,-50L-133,-52L-127,-48L-127,-37L-125,-37L-124,-33L-122,-22L-128,-14L-137,-11L-143,-5L-147,-4L-152,-0L-153,3L-162,10L-167,15L-171,21L-173,28L-171,35L-168,44L-164,51L-164,55L-160,67L-161,73L-161,77L-163,83L-166,84L-170,83L-171,79L-175,77L-179,68L-183,61L-185,57L-183,50L-185,45L-192,36L-196,35L-204,39L-206,39L-210,34L-216,32L-226,33L-233,32L-240,32L-244,34L-242,37L-242,41L-240,43L-242,44L-245,43L-249,45L-255,44L-261,39L-269,40L-275,38L-281,39L-288,41L-296,48L-305,53L-310,57L-312,62L-312,69L-311,73L-310,77L-313,77L-319,75L-326,72L-329,67L-330,60L-336,55L-339,49L-343,42L-349,38L-356,38L-362,46L-369,43L-374,40L-376,34L-379,29L-384,25L-388,21L-392,18L-407,18L-407,22L-414,22L-431,22L-451,15L-464,10L-463,8L-475,9L-484,10L-486,4L-492,-2L-496,-3L-497,-6L-502,-6L-505,-9L-513,-10L-515,-12L-516,-18L-525,-29L-532,-44L-532,-46L-535,-50L-542,-59L-543,-69L-548,-75L-546,-84L-546,-95L-549,-104L-546,-115L-545,-126L-544,-137L-545,-154L-548,-165L-551,-171L-549,-174L-537,-169L-532,-157L-530,-161L-531,-171ZM-819,132L-818,132L-816,134L-814,137L-814,137L-818,139L-820,141L-822,142L-824,141L-824,138L-825,135L-825,134L-823,133L-824,131L-823,130L-822,130ZM-824,125L-825,126L-828,127L-829,125L-830,124L-831,124L-830,123L-827,124ZM-831,121L-831,122L-836,122L-835,121ZM-842,116L-841,117L-839,120L-839,121L-840,120L-843,120L-844,118L-844,118ZM-854,112L-854,114L-855,115L-858,113L-857,112L-856,111ZM-916,-356L-909,-354L-908,-347L-913,-345L-919,-348L-925,-353ZM-800,-314L-794,-313L-791,-308L-798,-301L-807,-294L-811,-299L-813,-306L-805,-312ZM-693,-551L-693,-465L-693,-354L-685,-354L-676,-349L-670,-341L-662,-330L-654,-340L-645,-345L-640,-336L-634,-329L-626,-322L-621,-310L-612,-292L-597,-282L-597,-272L-602,-264L-607,-270L-614,-275L-617,-289L-628,-302L-633,-317L-641,-318L-655,-318L-665,-323L-683,-341L-692,-344L-707,-350L-719,-349L-736,-357L-747,-365L-756,-361L-755,-349L-759,-347L-770,-344L-777,-338L-787,-334L-788,-344L-784,-362L-775,-367L-777,-372L-788,-362L-794,-350L-807,-338L-801,-329L-809,-317L-818,-310L-827,-305L-829,-298L-843,-290L-846,-283L-856,-276L-862,-277L-870,-273L-879,-268L-886,-263L-901,-258L-903,-261L-893,-268L-884,-273L-875,-281L-864,-283L-860,-289L-848,-299L-846,-302L-839,-308L-838,-320L-833,-330L-844,-325L-846,-328L-851,-322L-857,-331L-859,-324L-862,-333L-871,-326L-877,-326L-877,-336L-876,-343L-881,-349L-893,-345L-900,-354L-906,-358L-906,-368L-913,-376L-909,-386L-902,-397L-899,-407L-892,-408L-886,-405L-879,-414L-873,-413L-866,-419L-868,-428L-873,-432L-866,-439L-871,-439L-881,-435L-883,-430L-890,-435L-903,-433L-916,-437L-919,-446L-930,-458L-918,-467L-898,-478L-891,-478L-892,-467L-874,-467L-881,-481L-892,-489L-898,-501L-906,-511L-918,-518L-914,-531L-898,-532L-887,-543L-885,-555L-876,-567L-867,-570L-851,-582L-843,-580L-829,-594L-816,-589L-810,-577L-806,-582L-791,-580L-792,-574L-778,-570L-769,-572L-751,-564L-734,-562L-727,-558L-716,-562L-703,-555ZM-962,-419L-957,-415L-951,-417L-944,-412L-935,-410L-936,-408L-943,-404L-949,-408L-953,-411L-960,-410L-962,-412Z" fill="#E0E0E0" stroke="#fff" stroke-width=".4"/><path d="M1304,-185L1297,-176L1290,-175L1289,-162L1284,-156L1267,-160L1261,-137L1256,-135L1239,-130L1247,-109L1241,-105L1242,-99L1236,-100L1232,-105L1219,-106L1204,-106L1201,-105L1189,-110L1184,-107L1182,-100L1168,-105L1162,-103L1160,-98L1155,-95L1144,-87L1140,-79L1137,-79L1134,-84L1123,-85L1121,-94L1117,-94L1118,-106L1107,-115L1092,-114L1082,-112L1074,-123L1066,-128L1053,-137L1051,-138L1029,-131L1029,-86L1025,-86L1019,-95L1013,-98L1003,-96L999,-92L998,-95L1000,-100L999,-104L989,-108L985,-119L980,-122L980,-126L988,-125L988,-134L996,-136L1004,-134L1005,-146L1004,-154L995,-153L987,-156L977,-151L969,-148L965,-150L966,-157L960,-165L953,-165L946,-174L951,-184L949,-187L956,-202L964,-194L966,-204L984,-219L997,-219L1017,-210L1027,-204L1036,-210L1050,-210L1061,-203L1064,-207L1076,-206L1078,-213L1064,-223L1072,-230L1071,-234L1079,-237L1073,-247L1077,-252L1110,-258L1114,-261L1136,-267L1144,-273L1159,-270L1162,-254L1171,-258L1182,-253L1182,-245L1190,-246L1212,-260L1209,-255L1220,-244L1240,-207L1244,-215L1256,-207L1269,-210L1274,-208L1278,-200L1284,-197L1288,-191L1299,-193Z" fill="#E0E0E0" stroke="#fff" stroke-width=".4"/><path d="M-60,854L-60,887L-51,887L-46,888L-49,894L-56,899L-60,898L-66,897L-72,892L-81,890L-92,881L-101,873L-113,857L-106,860L-94,870L-82,875L-78,868L-75,858L-67,852ZM-69,467L-64,473L-63,480L-59,484L-62,493L-57,503L-53,516L-47,515L-46,517L-49,527L-59,532L-58,548L-60,551L-57,555L-64,561L-69,571L-72,580L-72,589L-77,600L-73,618L-71,620L-71,629L-76,640L-76,649L-82,656L-82,666L-79,677L-85,681L-87,691L-89,703L-88,717L-91,719L-89,733L-85,738L-88,743L-84,745L-83,750L-87,752L-86,759L-89,776L-94,787L-93,794L-96,802L-102,808L-101,822L-98,827L-93,826L-93,837L-89,845L-68,847L-60,849L-68,849L-72,853L-80,858L-81,872L-85,872L-95,867L-105,857L-116,849L-118,840L-116,832L-120,822L-121,799L-118,787L-108,777L-122,773L-113,762L-110,741L-101,746L-96,721L-102,718L-105,733L-110,731L-107,714L-105,692L-101,685L-103,674L-104,661L-100,661L-95,643L-89,626L-85,611L-87,595L-84,587L-85,575L-80,563L-79,544L-76,524L-73,502L-74,487L-76,474L-71,472Z" fill="#E0E0E0" stroke="#fff" stroke-width=".4"/><path d="M796,350L798,358L797,363L799,368L804,373L809,384L805,383L793,385L791,386L788,391L790,395L789,406L788,415L790,416L796,420L799,418L799,428L793,428L789,423L786,419L779,418L777,413L772,416L765,415L762,411L756,410L752,410L752,407L749,407L745,406L739,408L736,408L733,408L734,398L731,395L730,389L732,384L730,380L730,375L719,375L720,372L715,372L715,373L710,374L707,379L706,381L701,380L698,381L693,382L689,377L687,374L685,369L683,362L657,362L654,363L651,363L647,364L646,362L648,361L649,357L650,355L653,353L656,354L659,350L663,350L664,353L667,354L672,349L677,345L680,342L679,335L683,326L687,322L693,317L694,315L694,311L696,308L695,303L696,296L698,290L701,286L701,280L702,274L705,270L710,267L717,270L723,273L729,274L736,276L738,270L739,270L743,271L753,266L757,268L759,268L761,266L764,265L771,266L776,266L779,265L784,272L788,273L791,272L795,272L800,271L802,274L809,280L809,290L812,292L810,295L806,297L803,302L801,306L800,313L798,316L798,323L796,325L796,330L794,331L794,336L796,340Z" fill="#E0E0E0" stroke="#fff" stroke-width=".4"/><path d="M903,326L898,318L898,287L906,277L908,274L914,274L921,267L933,267L958,241L964,233L968,228L968,223L968,214L968,211L968,210L971,210L975,209L979,208L983,205L987,205L987,207L986,213L986,217L984,221L982,230L978,240L972,251L965,264L957,274L947,286L938,293L925,302L917,308L907,319L905,324Z" fill="#E0E0E0" stroke="#fff" stroke-width=".4"/><path d="M883,352L870,343L869,338L838,320L836,319L836,310L839,306L843,301L846,294L842,284L841,280L837,274L842,268L848,263L853,264L853,269L856,272L862,272L873,279L876,279L878,279L880,280L886,281L888,277L896,274L900,277L906,277L898,287L898,318L903,326L897,329L895,333L892,333L891,340L888,343L886,349Z" fill="#E0E0E0" stroke="#fff" stroke-width=".4"/><path d="M755,239L748,235L745,232L744,230L746,226L746,222L741,217L740,213L740,211L737,208L736,203L735,199L732,200L732,197L735,193L734,189L737,186L735,184L737,179L741,172L749,173L748,136L748,132L758,132L758,114L793,114L827,114L862,114L865,123L863,125L864,134L867,145L871,147L876,151L871,156L865,158L862,160L861,166L857,180L858,183L857,191L853,200L848,204L844,211L843,215L839,217L837,227L837,235L837,228L835,228L836,223L835,220L830,217L829,210L830,204L826,203L825,205L820,205L822,208L823,213L818,218L814,225L809,226L802,220L799,222L798,225L793,227L793,228L784,228L783,227L777,226L774,228L771,227L767,222L765,219L759,221L757,225L754,233L751,234L749,235Z" fill="#E0E0E0" stroke="#fff" stroke-width=".4"/><path d="M748,136L749,173L741,172L737,179L735,184L737,186L734,189L735,193L732,197L732,200L735,199L736,203L737,208L740,211L740,213L734,214L730,218L723,228L715,232L707,231L704,232L705,235L701,238L697,242L686,245L684,243L682,243L681,245L673,246L675,243L672,237L671,234L667,232L662,227L664,223L668,224L670,223L675,223L670,215L671,209L670,203L666,197L667,193L662,193L662,187L658,184L662,172L673,163L674,151L677,133L679,129L675,126L675,123L672,120L670,105L678,100L713,118Z" fill="#E0E0E0" stroke="#fff" stroke-width=".4"/><path d="M-87,135L-87,140L-87,144L-89,145L-87,148L-87,150L-93,149L-97,149L-103,149L-107,151L-111,148L-111,145L-103,146L-96,147L-93,145L-97,141L-97,137L-102,136L-100,133L-95,134Z" fill="#E0E0E0" stroke="#fff" stroke-width=".4"/><path d="M-87,150L-87,148L-89,145L-87,144L-87,140L-87,135L-86,133L-79,133L-74,136L-72,136L-70,139L-66,139L-66,141L-62,142L-58,145L-61,149L-65,147L-69,147L-72,147L-74,149L-77,149L-78,147L-81,148L-85,155L-87,153Z" fill="#E0E0E0" stroke="#fff" stroke-width=".4"/><path d="M1360,-964L1379,-977L1396,-949L1416,-899L1414,-856L1395,-851L1370,-864L1356,-882L1349,-917L1337,-927ZM1439,-875L1461,-849L1459,-831L1409,-814L1425,-873L1432,-878ZM1754,-745L1777,-743L1808,-724L1801,-699L1769,-700L1755,-692L1737,-714L1742,-738ZM1836,-717L1858,-708L1848,-695L1834,-697L1817,-711L1819,-722ZM1763,-653L1771,-665L1782,-668L1794,-656L1795,-648L1782,-648L1764,-651ZM932,-940L949,-950L962,-951L964,-936L969,-949L977,-958L990,-946L987,-938L975,-931L967,-927L966,-919L956,-910L946,-922L951,-939ZM739,-257L722,-257L712,-259L714,-265L726,-270L735,-268L739,-265L738,-261ZM1008,-664L1029,-693L1026,-708L1046,-726L1075,-749L1104,-756L1119,-770L1136,-775L1142,-760L1136,-748L1105,-730L1078,-714L1051,-682L1038,-651L1024,-623L1026,-599L1043,-577L1038,-575L1009,-578L1007,-590L991,-598L990,-613L999,-619L998,-635L1016,-661ZM1789,-248L1792,-234L1792,-220L1796,-206L1805,-182L1792,-186L1786,-167L1795,-154L1795,-145L1788,-153L1782,-143L1781,-153L1782,-166L1781,-180L1783,-190L1783,-209L1778,-222L1779,-242L1787,-249L1783,-256L1787,-258ZM-1034,-533L-1034,-533L-1013,-514L-990,-491L-991,-478L-985,-472L-987,-488L-963,-485L-946,-464L-955,-455L-969,-453L-969,-433L-973,-429L-981,-429L-987,-436L-999,-442L-1001,-451L-1010,-455L-1020,-452L-1025,-459L-1023,-467L-1033,-462L-1029,-452L-1034,-443L-1034,-443L-1034,-533ZM2114,-443L2114,-443L2102,-434L2091,-436L2099,-425L2104,-409L2108,-404L2109,-396L2107,-391L2091,-395L2066,-381L2058,-379L2045,-366L2032,-355L2029,-347L2017,-359L1994,-345L1990,-352L1981,-344L1970,-347L1967,-335L1956,-319L1957,-312L1967,-309L1966,-285L1957,-285L1954,-272L1957,-265L1942,-257L1939,-241L1926,-237L1923,-222L1911,-209L1907,-219L1904,-240L1899,-273L1903,-295L1910,-305L1911,-312L1924,-316L1940,-337L1955,-355L1971,-369L1978,-395L1967,-394L1962,-378L1940,-359L1933,-381L1910,-375L1888,-345L1895,-334L1876,-330L1862,-328L1863,-340L1849,-343L1839,-334L1812,-337L1783,-332L1755,-300L1721,-263L1735,-261L1739,-252L1748,-249L1753,-256L1763,-255L1776,-239L1776,-227L1769,-213L1768,-196L1764,-175L1751,-156L1748,-147L1736,-132L1725,-118L1719,-111L1707,-104L1702,-104L1696,-110L1685,-101L1683,-97L1683,-97L1682,-99L1682,-105L1686,-106L1688,-120L1685,-130L1693,-135L1704,-132L1709,-145L1712,-159L1716,-163L1720,-175L1706,-171L1698,-166L1685,-166L1682,-178L1671,-188L1656,-192L1653,-206L1650,-214L1646,-220L1641,-235L1633,-240L1620,-244L1609,-244L1598,-241L1591,-234L1595,-231L1595,-223L1591,-218L1583,-203L1583,-197L1570,-189L1560,-194L1550,-193L1545,-197L1540,-199L1527,-189L1515,-187L1507,-184L1496,-186L1488,-186L1483,-193L1474,-199L1466,-201L1455,-199L1446,-197L1434,-202L1432,-213L1422,-216L1414,-218L1404,-224L1395,-209L1399,-201L1390,-192L1378,-195L1369,-196L1363,-202L1354,-202L1346,-206L1333,-200L1316,-188L1307,-186L1304,-185L1299,-193L1288,-191L1284,-197L1278,-200L1274,-208L1269,-210L1256,-207L1244,-215L1240,-207L1220,-244L1209,-255L1212,-260L1190,-246L1182,-245L1182,-253L1171,-258L1162,-254L1159,-270L1144,-273L1136,-267L1114,-261L1110,-258L1077,-252L1073,-247L1079,-237L1071,-234L1072,-230L1064,-223L1078,-213L1076,-206L1064,-207L1061,-203L1050,-210L1036,-210L1027,-204L1017,-210L997,-219L984,-219L966,-204L964,-194L956,-202L949,-187L951,-184L946,-174L953,-165L960,-165L966,-157L965,-150L969,-148L965,-141L957,-139L948,-126L956,-114L955,-106L965,-92L959,-88L958,-85L954,-85L948,-92L946,-93L940,-96L937,-100L929,-103L924,-101L922,-103L910,-109L898,-111L890,-113L889,-112L878,-122L868,-126L860,-134L867,-136L874,-146L869,-151L882,-156L882,-159L874,-157L874,-163L879,-167L887,-167L889,-172L887,-179L890,-186L890,-190L877,-194L872,-194L867,-201L860,-199L849,-203L849,-206L846,-212L839,-213L838,-217L840,-220L835,-228L826,-227L823,-227L821,-224L818,-225L816,-234L813,-239L815,-240L822,-240L826,-243L823,-247L817,-249L818,-252L814,-255L809,-265L811,-269L810,-276L801,-280L797,-278L795,-282L786,-285L783,-295L783,-303L778,-306L782,-312L779,-327L786,-337L784,-340L794,-349L785,-358L804,-381L812,-392L815,-401L802,-415L806,-428L798,-443L804,-461L794,-486L802,-503L788,-518L790,-535L797,-537L812,-547L821,-556L835,-541L859,-535L892,-508L899,-497L899,-482L890,-471L875,-465L836,-482L830,-479L844,-463L845,-453L845,-432L857,-426L863,-421L865,-430L859,-439L865,-447L886,-434L893,-439L887,-454L908,-475L916,-474L924,-466L929,-481L922,-495L926,-509L920,-523L944,-516L949,-503L938,-500L938,-487L945,-479L959,-484L961,-499L979,-510L1009,-530L1016,-529L1007,-514L1018,-512L1025,-520L1041,-521L1054,-531L1064,-516L1074,-532L1065,-546L1069,-555L1095,-547L1107,-539L1139,-512L1145,-524L1136,-537L1136,-542L1125,-545L1128,-557L1123,-577L1123,-586L1139,-610L1145,-637L1151,-643L1174,-635L1176,-619L1168,-596L1173,-587L1176,-569L1174,-534L1184,-519L1180,-504L1163,-472L1173,-469L1176,-477L1186,-482L1188,-493L1196,-504L1191,-517L1195,-533L1185,-535L1183,-549L1190,-575L1179,-597L1195,-616L1193,-636L1197,-637L1202,-621L1198,-594L1207,-589L1203,-609L1218,-620L1236,-621L1252,-605L1245,-629L1244,-661L1259,-667L1280,-666L1299,-670L1292,-687L1302,-709L1312,-710L1329,-727L1352,-732L1355,-742L1378,-745L1385,-737L1405,-756L1421,-756L1423,-772L1432,-789L1452,-805L1467,-792L1455,-782L1475,-776L1477,-758L1485,-767L1511,-766L1531,-748L1538,-734L1536,-716L1526,-706L1503,-688L1496,-678L1507,-673L1520,-666L1528,-671L1532,-652L1536,-660L1550,-664L1578,-659L1580,-645L1617,-641L1617,-664L1636,-658L1650,-659L1664,-643L1668,-624L1663,-612L1674,-590L1688,-579L1696,-608L1710,-595L1725,-603L1742,-594L1748,-602L1763,-598L1756,-624L1768,-637L1808,-629L1847,-618L1854,-601L1877,-581L1913,-586L1930,-581L1937,-570L1936,-552L1947,-544L1959,-550L1974,-550L1991,-545L2007,-548L2023,-526L2033,-534L2026,-550L2030,-561L2058,-554L2076,-555L2101,-543L2114,-533L2114,-443ZM2114,-580L2104,-579L2103,-587L2114,-599L2114,-580ZM-1034,-599L-1034,-599L-1034,-599L-1033,-600L-1026,-600L-1013,-592L-1014,-588L-1023,-582L-1034,-580L-1034,-580L-1034,-599ZM832,-143L834,-146L841,-143L843,-143L845,-140L846,-140L846,-139L850,-136L859,-137L857,-132L848,-130L836,-123L831,-125L833,-131L823,-135L825,-137L833,-141Z" fill="#E0E0E0" stroke="#fff" stroke-width=".4"/><path d="M-151,68L-147,67L-141,67L-141,70L-150,71ZM-140,65L-134,70L-135,76L-137,75L-137,70L-140,66ZM-144,83L-141,83L-138,91L-138,97L-140,97L-143,92L-146,89Z" fill="#E0E0E0" stroke="#fff" stroke-width=".4"/><path d="M73,625L71,619L74,614L69,607L63,601L54,595L50,595L42,587L36,588L48,575L57,565L63,561L71,555L71,548L66,542L62,544L64,538L65,533L65,527L62,526L59,527L55,527L54,523L53,514L52,512L46,509L42,511L33,509L34,496L31,491L34,489L33,484L35,480L37,473L35,467L30,464L29,461L30,455L14,455L10,444L13,444L13,440L11,438L11,433L6,430L0,430L-4,427L-9,426L-13,422L-23,421L-32,413L-31,407L-33,403L-32,397L-43,398L-48,401L-55,405L-57,408L-62,408L-68,407L-73,409L-77,408L-77,394L-84,399L-91,399L-95,395L-101,394L-99,390L-104,385L-107,377L-105,375L-105,372L-100,369L-101,364L-98,361L-98,357L-88,351L-80,349L-79,348L-71,348L-67,324L-67,321L-69,316L-73,312L-72,306L-68,305L-66,306L-66,302L-71,301L-71,296L-54,296L-51,293L-48,296L-47,301L-45,300L-40,305L-33,304L-32,301L-25,299L-22,298L-21,294L-14,292L-15,290L-22,289L-23,284L-23,278L-27,275L-25,275L-19,276L-12,278L-9,276L-3,274L7,271L10,268L9,265L13,265L15,267L14,271L17,272L19,276L17,279L15,287L18,291L18,295L24,299L28,300L29,298L32,298L36,296L38,294L43,295L45,294L50,295L51,293L49,291L50,289L54,290L58,289L63,291L67,292L69,290L71,290L73,293L77,292L80,289L83,283L88,275L91,274L93,279L98,294L103,296L103,302L96,309L99,312L115,313L115,322L122,316L133,319L147,324L151,330L150,334L160,332L177,336L190,336L203,343L214,353L221,356L228,356L232,359L235,370L236,375L233,390L228,396L216,408L210,418L204,426L202,426L199,433L200,450L197,464L196,470L194,473L192,486L183,498L182,508L175,512L173,517L163,517L149,521L143,525L133,528L123,536L116,545L114,553L116,558L114,568L112,573L106,578L96,596L89,604L83,609L79,619Z" fill="#E0E0E0" stroke="#fff" stroke-width=".4"/><path d="M-68,407L-62,408L-57,408L-55,405L-48,401L-43,398L-32,397L-33,403L-31,407L-32,413L-23,421L-13,422L-9,426L-4,427L0,430L6,430L11,433L11,438L13,440L13,444L10,444L14,455L30,455L29,461L30,464L35,467L37,473L35,480L33,484L34,489L31,491L31,488L23,483L15,483L-1,486L-5,494L-5,499L-8,511L-10,508L-20,508L-23,516L-28,509L-40,507L-47,515L-53,516L-57,503L-62,493L-59,484L-63,480L-64,473L-69,467L-63,457L-67,450L-65,446L-67,443L-63,439L-63,431L-63,425L-61,422Z" fill="#E0E0E0" stroke="#fff" stroke-width=".4"/><path d="M-71,348L-79,348L-80,349L-88,351L-98,357L-98,361L-101,364L-100,369L-105,372L-105,375L-107,377L-104,385L-99,390L-101,394L-95,395L-91,399L-84,399L-77,394L-77,408L-73,409L-68,407L-61,422L-63,425L-63,431L-63,439L-67,443L-65,446L-67,450L-63,457L-69,467L-71,472L-76,474L-84,469L-85,465L-102,456L-118,446L-125,440L-129,433L-127,430L-135,419L-143,402L-151,384L-155,380L-158,374L-165,368L-171,365L-168,361L-172,352L-169,346L-162,341L-161,344L-164,346L-164,350L-160,349L-157,350L-153,354L-148,351L-146,345L-141,337L-130,334L-121,325L-118,319L-119,312L-117,311L-111,316L-108,320L-104,322L-99,331L-93,332L-88,330L-85,331L-79,331L-73,335L-78,344L-76,344Z" fill="#E0E0E0" stroke="#fff" stroke-width=".4"/><path d="M-45,300L-47,301L-48,296L-51,293L-54,296L-71,296L-71,301L-66,302L-66,306L-68,305L-72,306L-73,312L-69,316L-67,321L-67,324L-71,348L-76,344L-78,344L-73,335L-79,331L-85,331L-88,330L-93,332L-99,331L-104,322L-108,320L-111,316L-117,311L-119,312L-123,310L-127,307L-130,309L-137,307L-139,304L-141,304L-150,299L-151,296L-148,295L-148,291L-146,288L-142,287L-138,282L-135,277L-138,275L-136,270L-138,262L-136,260L-138,252L-141,248L-140,243L-137,244L-136,241L-138,236L-137,235L-132,235L-126,229L-122,228L-122,225L-120,217L-115,213L-110,213L-109,211L-102,212L-95,208L-92,206L-88,201L-85,202L-82,204L-84,207L-90,209L-92,213L-95,216L-98,219L-99,225L-101,231L-97,231L-96,235L-94,237L-93,241L-94,244L-94,246L-92,247L-89,250L-78,249L-73,250L-67,257L-63,256L-57,257L-52,256L-49,257L-51,262L-53,265L-53,271L-52,277L-49,280L-49,282L-53,286L-50,288L-48,291Z" fill="#E0E0E0" stroke="#fff" stroke-width=".4"/><path d="M-137,235L-138,236L-136,241L-137,244L-140,243L-141,248L-144,245L-146,240L-144,238L-146,237L-148,234L-152,232L-156,232L-158,236L-161,238L-163,238L-164,240L-160,245L-162,246L-163,247L-168,248L-169,242L-170,244L-173,243L-175,240L-178,239L-181,238L-184,238L-185,240L-186,239L-185,237L-185,235L-185,234L-184,233L-185,231L-185,228L-182,227L-179,230L-179,232L-176,232L-175,232L-172,234L-168,233L-164,231L-159,229L-156,226L-151,227L-152,228L-147,228L-143,230L-140,232Z" fill="#E0E0E0" stroke="#fff" stroke-width=".4"/><path d="M-182,227L-185,228L-185,231L-184,233L-185,234L-185,235L-185,237L-186,239L-190,237L-192,235L-191,233L-192,231L-194,229L-197,228L-200,226L-201,224L-203,222L-203,225L-204,227L-206,224L-209,224L-210,222L-210,219L-209,216L-212,215L-210,213L-208,212L-203,215L-201,213L-198,214L-196,216L-194,217L-192,215L-190,219L-186,223Z" fill="#E0E0E0" stroke="#fff" stroke-width=".4"/><path d="M-192,215L-194,217L-196,216L-198,214L-201,213L-203,215L-208,212L-210,213L-213,210L-217,207L-219,204L-222,201L-227,197L-226,196L-224,197L-224,196L-221,196L-220,194L-219,194L-219,189L-217,189L-215,189L-213,187L-211,189L-210,188L-208,187L-205,184L-205,182L-204,182L-203,180L-202,180L-200,181L-199,182L-197,180L-195,180L-192,179L-190,178L-187,178L-188,179L-189,181L-188,184L-190,187L-191,191L-191,195L-190,197L-190,201L-192,202L-192,206L-192,208L-193,211L-193,213Z" fill="#E0E0E0" stroke="#fff" stroke-width=".4"/><path d="M-187,178L-190,178L-192,179L-195,180L-197,180L-199,182L-200,181L-202,180L-203,180L-204,182L-205,182L-205,184L-208,187L-210,188L-211,189L-213,187L-215,189L-217,189L-219,189L-219,194L-220,194L-221,196L-224,196L-225,194L-228,193L-227,189L-229,188L-230,188L-234,189L-234,187L-237,186L-239,184L-242,183L-240,181L-240,179L-240,178L-236,175L-232,172L-231,172L-229,170L-226,170L-226,171L-224,171L-220,171L-216,171L-213,170L-212,169L-209,170L-207,170L-205,170L-203,169L-199,170L-198,171L-195,172L-193,174L-190,176Z" fill="#E0E0E0" stroke="#fff" stroke-width=".4"/><path d="M9,265L10,268L7,271L-3,274L-9,276L-12,278L-19,276L-25,275L-27,275L-23,278L-23,284L-22,289L-15,290L-14,292L-21,294L-22,298L-25,299L-32,301L-33,304L-40,305L-45,300L-48,291L-50,288L-53,286L-49,282L-49,280L-52,277L-53,271L-53,265L-51,262L-49,257L-52,256L-57,257L-63,256L-67,257L-73,250L-78,249L-89,250L-92,247L-94,246L-94,244L-93,241L-94,237L-96,235L-97,231L-101,231L-99,225L-98,219L-95,216L-92,213L-90,209L-84,207L-84,209L-89,210L-87,214L-87,219L-90,224L-87,231L-83,231L-81,224L-84,221L-85,214L-74,211L-75,207L-72,204L-69,210L-63,210L-57,215L-57,218L-49,218L-39,217L-34,221L-28,222L-23,220L-23,217L-12,217L-1,217L-9,219L-6,223L1,224L8,228L9,236L14,235L17,237L10,243L10,246L13,249L10,251L5,252L5,256L3,259Z" fill="#E0E0E0" stroke="#fff" stroke-width=".4"/><path d="M45,294L43,295L38,294L36,296L32,298L29,298L28,300L24,299L18,295L18,291L15,287L17,279L19,276L17,272L14,271L15,267L13,265L9,265L3,259L5,256L5,252L10,251L13,249L10,246L10,243L17,237L23,241L28,246L29,251L32,251L37,255L40,259L39,266L33,269L34,271L32,275L36,282L39,282L40,287Z" fill="#E0E0E0" stroke="#fff" stroke-width=".4"/><path d="M63,291L58,289L54,290L50,289L49,291L51,293L50,295L45,294L40,287L39,282L36,282L32,275L34,271L33,269L39,266L40,259L50,260L51,259L59,258L68,260L63,268L64,274L67,279L66,283L65,287Z" fill="#E0E0E0" stroke="#fff" stroke-width=".4"/><path d="M88,275L83,283L80,289L77,292L73,293L71,290L69,290L67,292L63,291L65,287L66,283L67,279L64,274L63,268L68,260L71,261L77,264L87,271ZM594,-188L598,-185L611,-182L606,-173L605,-164L603,-162L599,-163L599,-160L593,-152L592,-147L597,-149L600,-143L599,-140L602,-135L599,-131L601,-122L606,-120L605,-115L597,-108L580,-111L567,-107L566,-100L556,-99L546,-104L543,-101L527,-107L523,-111L528,-119L529,-143L520,-157L514,-163L500,-168L500,-178L511,-181L526,-177L523,-192L531,-187L551,-197L554,-208L562,-211L563,-206L567,-206L571,-201L577,-194L582,-195L589,-189L591,-188ZM616,-102L622,-106L623,-96L620,-87L616,-90L614,-98Z" fill="#E0E0E0" stroke="#fff" stroke-width=".4"/><path d="M-119,312L-118,319L-121,325L-130,334L-141,337L-146,345L-148,351L-153,354L-157,350L-160,349L-164,350L-164,346L-161,344L-162,341L-158,334L-160,330L-163,334L-168,331L-166,328L-168,320L-165,319L-163,313L-160,308L-161,304L-156,302L-150,299L-141,304L-139,304L-137,307L-130,309L-127,307L-123,310Z" fill="#E0E0E0" stroke="#fff" stroke-width=".4"/><path d="M-40,146L-35,147L-34,149L-36,151L-43,151L-48,151L-48,147L-47,146Z" fill="#E0E0E0" stroke="#fff" stroke-width=".4"/><path d="M-139,146L-133,147L-128,149L-127,152L-133,152L-135,154L-140,152L-145,149L-144,147L-141,146Z" fill="#E0E0E0" stroke="#fff" stroke-width=".4"/><path d="M-180,102L-172,103L-165,103L-157,106L-154,110L-145,109L-142,111L-135,117L-129,121L-127,121L-121,123L-122,125L-115,126L-109,130L-110,132L-116,133L-122,133L-128,133L-140,134L-134,128L-138,126L-144,125L-147,123L-149,117L-154,118L-162,115L-164,113L-176,112L-179,110L-175,108L-184,107L-190,112L-194,112L-195,114L-200,115L-203,115L-199,112L-197,108L-193,106L-188,104L-182,103Z" fill="#E0E0E0" stroke="#fff" stroke-width=".4"/><path d="M812,511L808,510L805,511L801,509L797,509L792,505L785,503L782,497L782,494L778,493L769,483L766,478L764,476L761,468L770,470L773,471L776,470L781,464L789,457L792,456L793,453L798,449L804,448L805,452L812,451L816,453L818,456L822,456L827,459L827,471L825,477L825,484L826,487L825,492L824,493L822,500Z" fill="#E0E0E0" stroke="#fff" stroke-width=".4"/><path d="M797,509L785,516L777,523L774,529L771,533L767,534L765,538L764,541L759,544L751,543L747,541L744,539L739,542L737,546L733,549L729,554L722,555L720,551L721,545L716,536L714,535L714,507L722,506L723,473L729,473L743,470L746,474L751,470L754,470L759,468L761,468L764,476L766,478L769,483L778,493L782,494L782,497L785,503L792,505Z" fill="#E0E0E0" stroke="#fff" stroke-width=".4"/><path d="M714,535L714,571L706,576L701,576L696,575L692,574L690,570L687,567L683,572L676,564L673,557L671,548L669,541L666,526L666,514L664,509L661,505L656,498L652,486L650,481L643,472L642,465L647,463L652,461L657,461L663,466L664,465L699,465L705,469L727,470L743,467L750,464L756,465L759,467L759,468L754,470L751,470L746,474L743,470L729,473L723,473L722,506L714,507Z" fill="#E0E0E0" stroke="#fff" stroke-width=".4"/><path d="M394,191L390,184L386,181L389,179L394,173L396,168L399,165L403,166L407,164L412,164L416,166L422,169L428,175L433,182L434,187L435,192L439,195L439,198L439,201L438,202L433,201L432,202L430,202L424,200L420,200L404,200L401,201L399,200L394,202L392,195L400,195L403,194L404,194L407,192L411,194L415,194L419,192L417,189L414,191L411,191L408,188L405,188L403,191Z" fill="#E0E0E0" stroke="#fff" stroke-width=".4"/><path d="M439,201L439,198L439,195L435,192L434,187L433,182L436,180L438,175L440,174L447,177L452,175L455,176L456,174L491,174L493,167L492,166L488,126L483,85L497,85L526,106L556,127L558,131L563,134L567,135L567,141L577,140L577,161L572,167L572,173L564,174L552,175L549,178L543,179L537,179L535,177L530,178L522,182L521,185L514,189L513,191L509,193L505,192L502,194L501,200L494,208L494,211L492,215L492,220L489,221L487,222L485,218L483,219L481,219L480,222L473,222L471,220L470,221L467,219L467,216L466,215L464,216L465,213L466,211L463,207L462,204L460,202L458,202L456,203L453,205L451,207L447,206L445,204L443,203L441,204L440,204Z" fill="#E0E0E0" stroke="#fff" stroke-width=".4"/><path d="M563,256L556,257L554,251L554,231L553,229L552,225L549,221L546,219L548,214L551,213L552,209L557,208L559,206L561,203L565,203L571,208L571,211L573,216L571,220L572,222L568,228L565,231L564,236L564,242Z" fill="#E0E0E0" stroke="#fff" stroke-width=".4"/><path d="M670,105L672,120L675,123L675,126L679,129L677,133L674,151L673,163L662,172L658,184L662,187L662,193L667,193L666,197L664,198L664,201L662,201L656,191L654,191L647,196L641,193L636,193L633,194L628,194L623,198L619,198L608,193L604,195L599,195L596,192L587,188L578,189L576,191L574,197L572,200L571,208L565,203L561,203L559,206L559,200L549,198L548,193L543,187L542,183L543,179L549,178L552,175L564,174L572,173L572,167L577,161L577,140L589,136L615,118L645,100L658,104L663,109Z" fill="#E0E0E0" stroke="#fff" stroke-width=".4"/><path d="M563,256L564,242L564,236L565,231L568,228L572,222L571,220L573,216L571,211L571,208L572,200L574,197L576,191L578,189L587,188L596,192L599,195L604,195L608,193L619,198L623,198L628,194L633,194L636,193L641,193L647,196L654,191L656,191L662,201L664,201L667,204L666,206L666,209L658,216L656,222L655,226L653,228L651,234L647,238L645,242L643,246L642,250L636,253L632,249L628,249L623,254L620,254L616,263L614,269L605,272L602,272L598,274L591,274L587,268L584,262L578,256L571,256Z" fill="#E0E0E0" stroke="#fff" stroke-width=".4"/><path d="M666,197L670,203L671,209L670,215L675,223L670,223L668,224L664,223L662,227L667,232L671,234L672,237L675,243L673,246L669,255L667,256L666,263L667,267L666,269L670,274L671,277L674,282L678,285L679,289L680,291L679,296L672,294L665,291L654,291L653,291L648,292L642,291L638,291L624,291L625,284L622,278L618,277L616,273L614,272L614,269L616,263L620,254L623,254L628,249L632,249L636,253L642,250L643,246L645,242L647,238L651,234L653,228L655,226L656,222L658,216L666,209L666,206L667,204L664,201L664,198Z" fill="#E0E0E0" stroke="#fff" stroke-width=".4"/><path d="M548,214L546,219L549,221L552,225L553,229L554,231L554,251L556,257L549,259L547,256L545,250L544,246L546,238L544,235L543,228L543,221L539,217L540,214Z" fill="#E0E0E0" stroke="#fff" stroke-width=".4"/><path d="M540,214L539,217L543,221L543,228L544,235L546,238L544,246L545,250L547,256L549,259L535,264L530,267L523,270L515,267L515,264L511,256L514,246L517,239L515,226L514,219L514,214L529,214L533,215L536,213Z" fill="#E0E0E0" stroke="#fff" stroke-width=".4"/><path d="M470,221L471,220L473,222L480,222L481,219L483,219L485,218L487,222L489,221L492,220L496,222L498,225L502,226L505,224L509,224L515,226L517,239L514,246L511,256L515,264L515,267L511,267L505,266L499,266L489,267L483,270L474,273L472,273L473,265L474,264L474,261L470,257L467,257L465,254L466,250L466,246L466,243L467,243L468,240L467,238L468,237L471,236L469,229L467,225L468,222Z" fill="#E0E0E0" stroke="#fff" stroke-width=".4"/><path d="M420,200L424,200L430,202L432,202L433,201L438,202L439,201L440,204L441,204L443,203L445,204L447,206L451,207L453,205L456,203L458,202L460,202L462,204L463,207L466,211L465,213L464,216L466,215L467,216L467,219L470,221L468,222L467,225L469,229L471,236L468,237L467,238L468,240L467,243L466,243L463,243L462,247L459,247L457,245L458,241L454,236L452,237L450,237L448,238L448,234L447,232L447,229L445,226L443,223L436,223L433,224L431,224L430,226L429,229L424,233L420,227L417,224L414,223L412,221L411,217L410,215L407,214L411,209L414,210L416,208L418,208L420,207L419,204L420,203Z" fill="#E0E0E0" stroke="#fff" stroke-width=".4"/><path d="M394,202L399,200L401,201L404,200L420,200L420,203L419,204L420,207L418,208L416,208L414,210L411,209L407,214L403,210L399,209L397,207L397,206L394,204Z" fill="#E0E0E0" stroke="#fff" stroke-width=".4"/><path d="M466,243L466,246L466,250L465,254L467,257L470,257L474,261L474,264L473,265L472,273L470,273L461,269L453,262L446,257L440,251L442,249L442,246L446,241L450,237L452,237L454,236L458,241L457,245L459,247L462,247L463,243Z" fill="#E0E0E0" stroke="#fff" stroke-width=".4"/><path d="M424,233L429,229L430,226L431,224L433,224L436,223L443,223L445,226L447,229L447,232L448,234L448,238L450,237L446,241L442,246L442,249L440,251L437,251L431,247L427,242L425,239Z" fill="#E0E0E0" stroke="#fff" stroke-width=".4"/><path d="M492,220L492,215L494,211L494,208L501,200L502,194L505,192L509,193L513,191L514,189L521,185L522,182L530,178L535,177L537,179L543,179L542,183L543,187L548,193L549,198L559,200L559,206L557,208L552,209L551,213L548,214L540,214L536,213L533,215L529,214L514,214L514,219L515,226L509,224L505,224L502,226L498,225L496,222Z" fill="#E0E0E0" stroke="#fff" stroke-width=".4"/><path d="M779,265L776,266L771,266L764,265L761,266L759,268L757,268L753,266L743,271L739,270L738,270L736,276L729,274L723,273L717,270L710,267L705,270L702,274L701,280L695,280L690,278L684,283L680,291L679,289L678,285L674,282L671,277L670,274L666,269L667,267L666,263L667,256L669,255L673,246L681,245L682,243L684,243L686,245L697,242L701,238L705,235L704,232L707,231L715,232L723,228L730,218L734,214L740,213L741,217L746,222L746,226L744,230L745,232L748,235L755,239L759,242L759,245L765,250L769,254L771,259L778,262Z" fill="#E0E0E0" stroke="#fff" stroke-width=".4"/><path d="M701,280L701,286L698,290L696,296L695,303L696,308L694,311L694,315L693,317L687,322L683,326L679,335L680,342L677,345L672,349L667,354L664,353L663,350L659,350L656,354L653,353L650,350L647,351L644,355L637,346L643,341L640,335L643,333L649,332L650,328L654,332L662,332L665,328L666,323L665,316L661,311L665,300L662,299L656,299L653,295L654,291L665,291L672,294L679,296L680,291L684,283L690,278L695,280Z" fill="#E0E0E0" stroke="#fff" stroke-width=".4"/><path d="M638,291L642,291L648,292L653,291L654,291L653,295L656,299L662,299L665,300L661,311L665,316L666,323L665,328L662,332L654,332L650,328L649,332L643,333L640,335L643,341L637,346L628,337L622,330L617,321L617,318L619,315L621,309L623,302L626,302L638,302Z" fill="#E0E0E0" stroke="#fff" stroke-width=".4"/><path d="M624,291L638,291L638,302L626,302L623,302L621,301Z" fill="#E0E0E0" stroke="#fff" stroke-width=".4"/><path d="M809,384L812,386L816,388L821,389L826,392L830,396L833,403L831,406L829,413L831,420L828,424L826,432L830,434L804,442L804,448L798,449L793,453L792,456L789,457L781,464L776,470L773,471L770,470L761,468L759,468L759,467L756,465L750,464L743,467L737,461L731,453L732,425L750,425L749,422L750,418L749,414L750,410L749,407L752,407L752,410L756,410L762,411L765,415L772,416L777,413L779,418L786,419L789,423L793,428L799,428L799,418L796,420L790,416L788,415L789,406L790,395L788,391L791,386L793,385L805,383Z" fill="#E0E0E0" stroke="#fff" stroke-width=".4"/><path d="M826,392L835,394L837,396L839,400L842,412L839,419L842,431L845,431L848,434L852,440L853,452L849,454L846,460L840,454L840,448L842,444L841,440L838,438L835,439L830,434L826,432L828,424L831,420L829,413L831,406L833,403L830,396Z" fill="#E0E0E0" stroke="#fff" stroke-width=".4"/><path d="M842,412L848,412L859,414L861,413L867,413L870,410L876,410L885,407L892,402L894,406L893,414L894,422L895,436L896,441L894,447L890,454L885,459L877,463L867,467L857,477L854,479L848,485L844,487L843,494L847,501L849,507L849,509L851,509L850,518L849,523L851,524L850,528L846,532L839,535L828,540L825,544L825,548L828,549L827,554L820,554L819,549L818,545L817,541L819,531L817,524L812,511L822,500L824,493L825,492L826,487L825,484L825,477L827,471L827,459L822,456L818,456L816,453L812,451L805,452L804,448L804,442L830,434L835,439L838,438L841,440L842,444L840,448L840,454L846,460L849,454L853,452L852,440L848,434L845,431L842,431L839,419Z" fill="#E0E0E0" stroke="#fff" stroke-width=".4"/><path d="M653,353L650,355L649,357L648,361L646,362L644,355L647,351L650,350ZM647,364L651,363L654,363L657,362L683,362L685,369L687,374L689,377L693,382L698,381L701,380L706,381L707,379L710,374L715,373L715,372L720,372L719,375L730,375L730,380L732,384L730,389L731,395L734,398L733,408L736,408L739,408L745,406L749,407L750,410L749,414L750,418L749,422L750,425L732,425L731,453L737,461L743,467L727,470L705,469L699,465L664,465L663,466L657,461L652,461L647,463L642,465L642,459L643,451L646,442L646,439L649,430L651,427L656,421L659,417L660,410L659,405L657,402L654,397L652,391L653,390L655,386L653,378L651,372L647,366Z" fill="#E0E0E0" stroke="#fff" stroke-width=".4"/><path d="M806,332L807,335L809,337L809,340L806,342L803,347L800,350L796,350L796,340L794,336L799,336L802,331Z" fill="#E0E0E0" stroke="#fff" stroke-width=".4"/><path d="M852,8L851,11L847,10L846,17L848,18L846,19L845,22L849,21L849,25L845,41L844,38L839,23L842,20L841,19L844,15L845,7L847,4L847,4L850,4L851,2L853,2L853,6L852,8Z" fill="#E0E0E0" stroke="#fff" stroke-width=".4"/><path d="M853,2L851,2L850,4L847,4L850,-5L854,-12L855,-12L858,-12L860,-8L855,-4Z" fill="#E0E0E0" stroke="#fff" stroke-width=".4"/><path d="M973,421L975,425L977,431L979,441L981,446L980,450L979,453L976,447L974,450L976,457L975,461L973,463L972,470L969,481L964,494L959,512L955,525L952,536L944,538L937,543L932,540L925,537L922,532L922,523L919,515L918,509L920,502L924,500L924,497L928,490L929,484L926,480L925,474L924,466L927,460L928,455L933,454L938,452L941,451L945,451L950,445L957,440L959,435L958,432L962,433L967,426L967,421L970,417Z" fill="#E0E0E0" stroke="#fff" stroke-width=".4"/><path d="M849,21L845,22L846,19L848,18L846,17L847,10L851,11L851,18Z" fill="#E0E0E0" stroke="#fff" stroke-width=".4"/><path d="M394,191L403,191L405,188L408,188L411,191L414,191L417,189L419,192L415,194L411,194L407,192L404,194L403,194L400,195L392,195Z" fill="#E0E0E0" stroke="#fff" stroke-width=".4"/><path d="M623,33L619,14L614,10L613,8L606,1L606,-7L611,-13L613,-21L612,-32L613,-37L623,-42L629,-40L629,-35L636,-39L637,-37L632,-31L632,-26L635,-24L634,-14L628,-9L630,-3L635,-3L637,2L640,3L640,11L635,14L633,18L627,22L628,26L627,30Z" fill="#E0E0E0" stroke="#fff" stroke-width=".4"/><path d="M464,62L464,60L464,59L464,47L478,40L487,38L494,36L497,31L507,27L508,19L513,18L517,14L528,13L530,9L528,6L525,-5L524,-11L521,-18L529,-24L539,-26L544,-30L553,-34L567,-35L582,-36L586,-35L594,-39L604,-39L607,-37L613,-37L612,-32L613,-21L611,-13L606,-7L606,1L613,8L614,10L619,14L623,33L625,41L626,46L624,54L625,59L624,64L625,70L621,74L626,81L627,86L630,91L634,89L641,94L645,100L615,118L589,136L577,140L567,141L567,135L563,134L558,131L556,127L526,106L497,85Z" fill="#E0E0E0" stroke="#fff" stroke-width=".4"/><path d="M851,11L852,8L862,12L879,1L882,14L881,15L863,20L872,31L869,32L868,36L861,37L859,41L855,44L845,42L845,41L849,25L849,21L851,18Z" fill="#E0E0E0" stroke="#fff" stroke-width=".4"/><path d="M991,92L992,92L993,94L999,93L1007,93L1012,93L1018,87L1024,81L1030,75L1032,78L1033,86L1028,86L1028,92L1029,93L1025,95L1025,99L1023,103L1022,107L1021,109L994,104L991,94Z" fill="#E0E0E0" stroke="#fff" stroke-width=".4"/><path d="M984,87L983,80L986,75L988,74L991,77L991,83L989,89L987,89Z" fill="#E0E0E0" stroke="#fff" stroke-width=".4"/><path d="M959,36L961,40L960,43L963,50L957,50L955,46L947,45L953,35Z" fill="#E0E0E0" stroke="#fff" stroke-width=".4"/><path d="M882,14L879,1L898,-10L902,-23L901,-31L906,-34L910,-40L914,-42L924,-41L927,-38L931,-40L937,-27L943,-23L943,-17L939,-14L937,-5L943,5L954,10L958,18L957,26L959,26L960,31L964,36L959,36L953,35L947,45L931,44L906,24L893,16Z" fill="#E0E0E0" stroke="#fff" stroke-width=".4"/><path d="M1022,107L1023,103L1025,99L1025,95L1029,93L1028,92L1028,86L1033,86L1037,92L1042,96L1048,97L1053,99L1057,104L1060,107L1063,109L1063,111L1059,116L1058,119L1054,122L1051,128L1047,128L1045,130L1044,135L1045,141L1044,142L1040,142L1035,146L1034,150L1032,152L1026,152L1023,154L1023,158L1019,160L1014,160L1008,163L1004,163L1001,157L994,142L1021,132L1026,114ZM1032,78L1030,75L1033,71L1034,72L1033,76Z" fill="#E0E0E0" stroke="#fff" stroke-width=".4"/><path d="M999,-92L1003,-96L1013,-98L1019,-95L1025,-86L1029,-86L1039,-87L1038,-92L1045,-97L1052,-103L1064,-97L1065,-88L1068,-85L1078,-86L1081,-84L1085,-72L1095,-64L1101,-59L1110,-53L1122,-49L1121,-42L1119,-42L1115,-45L1113,-41L1106,-39L1104,-30L1099,-27L1092,-25L1090,-21L1084,-19L1075,-23L1074,-32L1068,-33L1058,-42L1051,-44L1041,-49L1035,-50L1031,-48L1025,-48L1019,-42L1011,-40L1010,-48L1011,-59L1004,-63L1006,-71L1001,-72L1002,-81L1011,-79L1018,-82L1012,-89L1009,-96L1002,-93L1002,-84Z" fill="#E0E0E0" stroke="#fff" stroke-width=".4"/><path d="M964,36L960,31L959,26L957,26L958,18L954,10L943,5L937,-5L939,-14L943,-17L943,-23L937,-27L931,-40L926,-49L928,-52L925,-65L931,-68L933,-64L937,-59L943,-57L946,-57L957,-66L960,-67L963,-63L960,-58L965,-52L967,-52L970,-44L978,-42L984,-36L997,-35L1010,-37L1011,-40L1019,-42L1025,-48L1031,-48L1035,-50L1041,-49L1051,-44L1058,-42L1068,-33L1074,-32L1075,-23L1071,-10L1069,-2L1073,-1L1069,5L1072,13L1073,20L1079,22L1080,28L1072,37L1076,43L1080,49L1088,53L1088,62L1093,63L1093,68L1081,73L1077,84L1061,81L1051,79L1042,78L1038,66L1034,64L1027,66L1018,71L1007,67L999,60L990,57L984,48L978,34L973,36L968,32Z" fill="#E0E0E0" stroke="#fff" stroke-width=".4"/><path d="M852,8L852,8L853,6L853,2L855,-4L860,-8L858,-12L855,-12L854,-21L856,-25L858,-27L861,-30L861,-36L864,-34L873,-37L878,-35L885,-35L895,-39L900,-39L910,-40L906,-34L901,-31L902,-23L898,-10L879,1L862,12Z" fill="#E0E0E0" stroke="#fff" stroke-width=".4"/><path d="M946,-57L943,-57L940,-64L940,-65L936,-65L933,-68L931,-68L928,-71L921,-74L922,-80L921,-84L933,-86L935,-83L938,-81L936,-78L941,-74L939,-70L942,-67L946,-65Z" fill="#E0E0E0" stroke="#fff" stroke-width=".4"/><path d="M818,-225L821,-224L823,-227L826,-227L835,-228L840,-220L838,-217L839,-213L846,-212L849,-206L849,-203L860,-199L867,-201L872,-194L877,-194L890,-190L890,-186L887,-179L889,-172L887,-167L879,-167L874,-163L874,-157L867,-156L861,-152L853,-151L845,-147L846,-140L845,-140L843,-143L841,-143L834,-146L832,-143L831,-144L817,-147L817,-152L809,-151L805,-144L799,-134L795,-136L791,-134L787,-137L789,-138L790,-142L793,-146L792,-149L794,-150L795,-148L800,-148L802,-149L801,-150L801,-152L798,-155L797,-160L794,-162L794,-167L790,-170L787,-171L780,-175L775,-174L773,-172L769,-172L767,-169L760,-167L757,-165L753,-169L748,-169L742,-170L738,-167L738,-171L733,-174L735,-180L737,-183L739,-182L737,-188L745,-200L749,-201L750,-205L745,-217L750,-218L754,-222L761,-222L770,-221L780,-218L787,-217L790,-215L793,-218L796,-214L803,-215L807,-214L807,-221L810,-224Z" fill="#E0E0E0" stroke="#fff" stroke-width=".4"/><path d="M745,-251L745,-245L748,-239L748,-233L743,-230L745,-224L745,-217L750,-205L749,-201L745,-200L737,-188L739,-182L737,-183L729,-188L722,-186L718,-188L713,-185L709,-190L705,-188L705,-189L701,-195L694,-196L693,-200L687,-202L686,-198L681,-201L682,-205L675,-206L671,-211L667,-220L668,-225L666,-232L663,-237L665,-241L663,-249L669,-253L683,-260L694,-265L703,-263L703,-259L712,-259L722,-257L739,-257L743,-256Z" fill="#E0E0E0" stroke="#fff" stroke-width=".4"/><path d="M688,-170L688,-165L683,-165L684,-162L681,-154L680,-152L672,-152L668,-149L660,-150L648,-153L646,-157L637,-155L636,-153L631,-155L627,-155L623,-157L624,-160L624,-163L626,-163L631,-160L632,-163L640,-163L646,-165L650,-165L653,-162L654,-164L652,-173L656,-174L659,-180L665,-176L670,-182L673,-183L680,-178L684,-179L688,-177L687,-175Z" fill="#E0E0E0" stroke="#fff" stroke-width=".4"/><path d="M733,-174L738,-171L738,-167L733,-165L729,-156L724,-147L717,-145L711,-145L704,-142L701,-140L694,-143L687,-148L685,-150L683,-154L681,-154L684,-162L683,-165L688,-165L688,-170L693,-167L696,-166L703,-167L704,-170L707,-170L712,-172L713,-171L717,-173L719,-176L722,-177L731,-173Z" fill="#E0E0E0" stroke="#fff" stroke-width=".4"/><path d="M773,-172L775,-174L780,-175L787,-171L790,-170L794,-167L794,-162L797,-160L798,-155L801,-152L801,-150L802,-149L800,-148L795,-148L794,-150L792,-149L793,-146L790,-142L789,-138L787,-137L785,-142L786,-148L786,-153L781,-161L778,-167L775,-170Z" fill="#E0E0E0" stroke="#fff" stroke-width=".4"/><path d="M787,-137L791,-134L795,-136L799,-134L799,-131L795,-128L792,-130L789,-115L784,-116L778,-121L768,-118L763,-115L750,-115L744,-117L740,-116L738,-121L736,-123L738,-125L736,-127L733,-124L728,-128L728,-133L722,-136L721,-140L717,-145L724,-147L729,-156L733,-165L738,-167L742,-170L748,-169L753,-169L757,-165L760,-167L767,-169L769,-172L773,-172L775,-170L778,-167L781,-161L786,-153L786,-148L785,-142Z" fill="#E0E0E0" stroke="#fff" stroke-width=".4"/><path d="M663,-249L665,-241L663,-237L666,-232L668,-225L667,-220L671,-211L667,-209L665,-211L663,-208L656,-206L653,-202L647,-199L648,-195L649,-189L654,-186L659,-180L656,-174L652,-173L654,-164L653,-162L650,-165L646,-165L640,-163L632,-163L631,-160L626,-163L624,-163L614,-167L612,-164L605,-164L606,-173L611,-182L598,-185L594,-188L594,-194L593,-197L594,-207L592,-221L597,-221L600,-227L602,-240L600,-245L602,-248L609,-249L611,-245L617,-253L615,-258L614,-267L621,-265L627,-267L627,-261L635,-258L635,-252L644,-255L649,-259L659,-253Z" fill="#E0E0E0" stroke="#fff" stroke-width=".4"/><path d="M738,-121L740,-116L744,-117L750,-115L763,-115L768,-118L778,-121L784,-116L789,-115L785,-110L782,-101L785,-95L777,-96L768,-92L768,-87L760,-86L754,-90L747,-86L740,-87L740,-95L735,-98L737,-100L736,-101L737,-105L741,-109L736,-114L736,-119Z" fill="#E0E0E0" stroke="#fff" stroke-width=".4"/><path d="M770,-19L769,-16L756,-15L756,-17L745,-19L747,-24L752,-20L759,-21L765,-20L765,-18ZM740,-87L747,-86L754,-90L760,-86L768,-87L768,-92L772,-89L770,-82L768,-81L762,-81L758,-82L747,-79L753,-73L749,-71L744,-71L739,-77L738,-74L740,-67L744,-62L741,-60L745,-55L750,-51L750,-45L742,-48L744,-42L739,-41L742,-32L736,-31L729,-36L726,-45L724,-52L721,-57L717,-64L716,-67L720,-73L720,-76L723,-78L724,-81L729,-82L733,-85L737,-84L739,-86Z" fill="#E0E0E0" stroke="#fff" stroke-width=".4"/><path d="M931,-40L927,-38L924,-41L914,-42L910,-40L900,-39L895,-39L885,-35L878,-35L873,-37L864,-34L861,-36L861,-30L858,-27L856,-25L853,-30L856,-34L851,-33L843,-36L837,-29L824,-28L817,-34L807,-34L805,-30L799,-29L791,-34L781,-34L776,-45L770,-51L774,-60L769,-65L778,-76L792,-77L795,-85L812,-84L823,-91L833,-95L847,-95L863,-87L875,-82L885,-84L893,-83L903,-89L912,-90L921,-84L922,-80L921,-74L928,-71L931,-68L925,-65L928,-52L926,-49ZM768,-92L777,-96L785,-95L786,-90L793,-86L792,-83L781,-83L778,-79L770,-73L767,-78L768,-81L770,-82L772,-89Z" fill="#E0E0E0" stroke="#fff" stroke-width=".4"/><path d="M724,-81L723,-78L720,-76L720,-73L716,-67L714,-68L714,-70L709,-74L709,-80L709,-88L711,-91L709,-93L709,-97L712,-103L713,-100L715,-101L717,-98L719,-97L720,-93L719,-89L720,-84Z" fill="#E0E0E0" stroke="#fff" stroke-width=".4"/><path d="M685,-150L687,-148L694,-143L701,-140L704,-142L706,-137L709,-134L706,-129L702,-132L696,-132L688,-134L684,-133L682,-131L679,-134L677,-128L682,-123L684,-119L688,-114L691,-112L694,-107L702,-102L701,-100L693,-105L688,-109L680,-112L672,-121L674,-122L670,-127L670,-132L664,-134L662,-128L659,-132L659,-137L660,-137L666,-136L667,-139L670,-137L674,-136L674,-140L677,-141L678,-146Z" fill="#E0E0E0" stroke="#fff" stroke-width=".4"/><path d="M624,-163L624,-160L623,-157L627,-155L631,-155L630,-149L627,-147L620,-149L618,-144L614,-143L612,-145L608,-141L603,-140L600,-143L597,-149L592,-147L593,-152L599,-160L599,-163L603,-162L605,-164L612,-164L614,-167Z" fill="#E0E0E0" stroke="#fff" stroke-width=".4"/><path d="M593,-197L594,-194L594,-188L591,-188L589,-189L590,-197Z" fill="#E0E0E0" stroke="#fff" stroke-width=".4"/><path d="M594,-207L593,-197L590,-197L589,-189L582,-195L577,-194L571,-201L567,-206L563,-206L562,-211L569,-214L575,-213L583,-216L589,-210Z" fill="#E0E0E0" stroke="#fff" stroke-width=".4"/><path d="M461,-93L464,-96L467,-98L470,-92L475,-92L476,-94L481,-93L484,-87L480,-84L480,-75L478,-73L478,-68L474,-67L478,-60L475,-53L478,-50L477,-47L474,-43L475,-39L471,-36L466,-38L462,-36L463,-45L462,-52L459,-53L456,-57L457,-64L461,-69L461,-73L463,-80L463,-85L461,-89Z" fill="#E0E0E0" stroke="#fff" stroke-width=".4"/><path d="M475,-39L474,-43L477,-47L478,-50L475,-53L478,-60L474,-67L478,-68L478,-73L480,-75L480,-84L484,-87L481,-93L476,-94L475,-92L470,-92L467,-98L464,-96L461,-93L461,-102L458,-107L470,-115L481,-113L492,-113L502,-111L509,-112L523,-111L527,-107L543,-101L546,-104L556,-99L566,-100L566,-93L558,-85L547,-83L546,-79L541,-73L537,-64L541,-57L536,-52L534,-45L527,-43L521,-34L510,-34L502,-34L496,-30L493,-26L488,-27L485,-31L483,-37Z" fill="#E0E0E0" stroke="#fff" stroke-width=".4"/><path d="M631,-155L636,-153L637,-155L646,-157L648,-153L660,-150L659,-143L662,-138L655,-140L648,-135L648,-129L647,-126L650,-120L658,-113L662,-104L672,-94L679,-94L681,-91L679,-89L687,-85L693,-81L700,-75L701,-73L700,-69L695,-75L687,-76L684,-69L690,-65L689,-59L685,-58L681,-49L677,-48L677,-51L679,-57L681,-60L677,-66L675,-72L671,-73L668,-78L663,-80L659,-85L652,-86L646,-91L638,-99L632,-106L629,-117L625,-119L617,-123L613,-121L608,-116L605,-115L606,-120L601,-122L599,-131L602,-135L599,-140L600,-143L603,-140L608,-141L612,-145L614,-143L618,-144L620,-149L627,-147L630,-149ZM669,-50L675,-51L672,-43L674,-39L672,-34L665,-38L661,-39L648,-45L650,-50L660,-49ZM616,-82L620,-85L625,-77L624,-62L620,-63L617,-59L613,-62L613,-76L611,-82Z" fill="#E0E0E0" stroke="#fff" stroke-width=".4"/><path d="M486,-250L479,-253L474,-253L475,-261L474,-269L481,-270L490,-261ZM513,-244L513,-244L514,-252L508,-261L508,-262L497,-264L495,-268L498,-275L496,-279L491,-272L490,-287L486,-295L489,-312L496,-325L503,-324L513,-326L504,-308L513,-310L523,-310L520,-297L512,-282L521,-281L522,-280L530,-262L536,-259L541,-242L544,-237L554,-234L553,-225L549,-221L552,-213L545,-206L533,-206L518,-202L514,-205L508,-199L500,-200L494,-195L489,-198L502,-212L510,-215L510,-215L496,-218L494,-223L503,-228L498,-235L500,-245Z" fill="#E0E0E0" stroke="#fff" stroke-width=".4"/><path d="M946,-93L948,-92L954,-85L958,-85L959,-88L965,-92L969,-86L974,-78L978,-77L980,-74L973,-73L972,-65L970,-61L967,-58L967,-52L965,-52L960,-58L963,-63L960,-67L957,-66L946,-57L946,-65L942,-67L939,-70L941,-74L936,-78L938,-81L935,-83L933,-86L935,-88L942,-84L946,-84L948,-85L943,-91ZM943,-57L937,-59L933,-64L931,-68L933,-68L936,-65L940,-65L940,-64Z" fill="#E0E0E0" stroke="#fff" stroke-width=".4"/><path d="M889,-112L890,-113L898,-111L910,-109L922,-103L924,-101L929,-103L937,-100L940,-96L946,-93L943,-91L948,-85L946,-84L942,-84L935,-88L933,-86L921,-84L912,-90L903,-89L904,-94L902,-102L897,-107L892,-108Z" fill="#E0E0E0" stroke="#fff" stroke-width=".4"/><path d="M660,-150L668,-149L672,-152L680,-152L681,-154L683,-154L685,-150L678,-146L677,-141L674,-140L674,-136L670,-137L667,-139L666,-136L660,-137L662,-138L659,-143Z" fill="#E0E0E0" stroke="#fff" stroke-width=".4"/><path d="M737,-183L735,-180L733,-174L731,-173L722,-177L719,-176L717,-173L713,-171L712,-172L707,-170L704,-170L703,-167L696,-166L693,-167L688,-170L687,-175L688,-177L689,-180L693,-179L696,-181L696,-182L698,-183L699,-186L701,-186L702,-189L705,-189L705,-188L709,-190L713,-185L718,-188L722,-186L729,-188Z" fill="#E0E0E0" stroke="#fff" stroke-width=".4"/><path d="M671,-211L675,-206L682,-205L681,-201L686,-198L687,-202L693,-200L694,-196L701,-195L705,-189L702,-189L701,-186L699,-186L698,-183L696,-182L696,-181L693,-179L689,-180L688,-177L684,-179L680,-178L673,-183L670,-182L665,-176L659,-180L654,-186L649,-189L648,-195L647,-199L653,-202L656,-206L663,-208L665,-211L667,-209Z" fill="#E0E0E0" stroke="#fff" stroke-width=".4"/><path d="M858,183L857,180L861,166L862,160L865,158L871,156L876,151L881,161L883,170L888,174L900,183L905,188L909,193L912,196L916,199L914,201L910,200L907,197L903,192L900,189L897,186L890,183L884,182L882,181L876,183L871,179L868,185Z" fill="#E0E0E0" stroke="#fff" stroke-width=".4"/><path d="M31,491L34,496L33,509L42,511L46,509L52,512L53,514L54,523L55,527L59,527L62,526L65,527L65,533L64,538L62,544L61,553L53,560L46,562L36,560L27,557L36,543L35,538L26,535L15,527L8,526L-8,511L-5,499L-5,494L-1,486L15,483L23,483L31,488Z" fill="#E0E0E0" stroke="#fff" stroke-width=".4"/><path d="M994,142L1001,157L1004,163L998,166L996,170L996,173L987,177L973,181L965,187L962,188L959,187L954,191L948,193L941,193L939,194L937,196L934,197L933,199L929,199L926,200L920,199L918,194L918,189L916,187L915,180L912,176L914,176L913,172L914,170L914,166L918,163L917,159L919,155L923,157L925,156L935,156L937,157L945,158L949,157L951,160L955,159L961,149L969,145Z" fill="#E0E0E0" stroke="#fff" stroke-width=".4"/><path d="M845,42L855,44L859,41L861,37L868,36L869,32L872,31L863,20L881,15L882,14L893,16L906,24L931,44L947,45L955,46L957,50L963,50L967,59L971,61L972,64L978,69L979,73L978,76L979,79L982,82L983,85L984,87L987,89L989,89L991,92L991,94L994,104L1021,109L1022,107L1026,114L1021,132L994,142L969,145L961,149L955,159L951,160L949,157L945,158L937,157L935,156L925,156L923,157L919,155L917,159L918,163L914,166L913,162L910,159L909,156L905,152L900,145L898,137L892,131L888,129L882,120L881,114L881,108L876,98L872,94L868,92L865,86L865,84L863,79L860,77L857,70L851,62L847,55L843,55L844,50L844,46Z" fill="#E0E0E0" stroke="#fff" stroke-width=".4"/><path d="M826,-18L827,-18L828,-20L834,-20L842,-23L836,-19L837,-17L836,-17L834,-16L833,-17L832,-16L832,-17L832,-18L830,-18L828,-17Z" fill="#E0E0E0" stroke="#fff" stroke-width=".4"/><path d="M826,-18L828,-17L830,-18L832,-18L832,-17L832,-16L833,-17L834,-16L836,-17L837,-17L837,-16L828,-12L824,-13L822,-17Z" fill="#E0E0E0" stroke="#fff" stroke-width=".4"/><path d="M521,-18L524,-11L525,-5L528,6L530,9L528,13L517,14L513,18L508,19L507,27L497,31L494,36L487,38L478,40L464,47L464,59L463,59L463,64L457,65L455,67L451,67L447,66L440,67L437,74L435,75L430,87L418,98L415,111L412,115L411,118L391,119L391,119L391,115L395,112L398,107L397,104L400,97L405,91L408,90L410,84L410,79L413,73L419,69L425,59L425,59L429,55L438,54L444,47L449,45L456,36L454,24L457,15L458,9L464,2L473,-2L479,-7L485,-18L488,-24L494,-24L500,-20L508,-20L517,-18Z" fill="#E0E0E0" stroke="#fff" stroke-width=".4"/><path d="M862,114L827,114L793,114L758,114L758,78L758,43L756,35L758,29L757,25L760,20L771,20L780,22L788,25L793,27L799,24L803,21L811,20L817,21L819,26L821,23L828,25L835,26L839,23L844,38L845,41L843,45L841,52L838,57L836,59L833,56L829,52L823,37L822,38L826,49L831,59L838,74L841,79L844,85L852,95L850,97L850,103L861,112Z" fill="#E0E0E0" stroke="#fff" stroke-width=".4"/><path d="M758,114L758,132L748,132L748,136L713,118L678,100L670,105L663,109L658,104L645,100L641,94L634,89L630,91L627,86L626,81L621,74L625,70L624,64L625,59L624,54L626,46L625,41L623,33L627,30L628,26L627,22L633,18L635,14L640,11L640,3L650,7L654,6L661,8L673,13L677,22L685,24L697,28L707,33L711,30L715,26L713,18L716,13L722,8L728,7L740,9L743,13L746,13L749,15L758,16L760,20L757,25L758,29L756,35L758,43L758,78Z" fill="#E0E0E0" stroke="#fff" stroke-width=".4"/><path d="M958,241L933,267L921,267L914,274L908,274L906,277L900,277L896,274L888,277L886,281L880,280L878,279L876,279L873,279L862,272L856,272L853,269L853,264L848,263L843,253L839,251L838,248L833,243L828,243L831,238L835,237L837,235L837,227L839,217L843,215L844,211L848,204L853,200L857,191L858,183L868,185L871,179L876,183L882,181L884,182L890,183L897,186L900,189L903,192L907,197L910,200L907,204L904,208L905,211L905,214L910,214L912,213L914,215L912,218L915,223L918,227L922,230L950,241Z" fill="#E0E0E0" stroke="#fff" stroke-width=".4"/><path d="M910,200L914,201L916,199L919,202L918,205L913,208L917,210L914,215L912,213L910,214L905,214L905,211L904,208L907,204Z" fill="#E0E0E0" stroke="#fff" stroke-width=".4"/><path d="M968,210L968,211L968,214L968,223L968,228L964,233L958,241L950,241L922,230L918,227L915,223L912,218L914,215L917,210L920,212L922,215L925,219L930,219L938,217L948,216L955,213L960,212L963,211Z" fill="#E0E0E0" stroke="#fff" stroke-width=".4"/><path d="M836,319L818,320L809,320L806,321L800,323L798,323L798,316L800,313L801,306L803,302L806,297L810,295L812,292L809,290L809,280L813,278L818,280L826,278L832,278L837,274L841,280L842,284L846,294L843,301L839,306L836,310Z" fill="#E0E0E0" stroke="#fff" stroke-width=".4"/><path d="M806,321L809,326L809,331L806,332L802,331L799,336L794,336L794,331L796,330L796,325L798,323L800,323Z" fill="#E0E0E0" stroke="#fff" stroke-width=".4"/><path d="M702,-102L694,-107L691,-112L688,-114L684,-119L682,-123L677,-128L679,-134L682,-131L684,-133L688,-134L696,-132L702,-132L706,-129L709,-129L707,-124L711,-119L710,-113L708,-113L706,-112L703,-109Z" fill="#E0E0E0" stroke="#fff" stroke-width=".4"/><path d="M735,-98L740,-95L740,-87L739,-86L737,-84L733,-85L729,-82L724,-81L720,-84L719,-89L720,-93L721,-93L721,-95L726,-97L728,-97L731,-98Z" fill="#E0E0E0" stroke="#fff" stroke-width=".4"/><path d="M704,-142L711,-145L717,-145L721,-140L722,-136L728,-133L728,-128L733,-124L736,-127L738,-125L736,-123L738,-121L736,-119L736,-114L741,-109L737,-105L736,-101L737,-100L735,-98L731,-98L728,-97L728,-98L729,-100L730,-103L729,-103L727,-105L726,-105L725,-107L723,-108L722,-110L720,-109L719,-105L717,-104L718,-105L714,-108L711,-109L710,-111L708,-113L710,-113L711,-119L707,-124L709,-129L706,-129L709,-134L706,-137Z" fill="#E0E0E0" stroke="#fff" stroke-width=".4"/><path d="M715,-101L713,-100L712,-103L709,-97L709,-93L707,-94L705,-98L701,-100L702,-102L703,-109L706,-112L708,-113L710,-111L711,-109L714,-108L718,-105L717,-104Z" fill="#E0E0E0" stroke="#fff" stroke-width=".4"/><path d="M720,-93L719,-97L717,-98L715,-101L717,-104L719,-105L720,-109L722,-110L723,-108L725,-107L726,-105L727,-105L729,-103L730,-103L729,-100L728,-98L728,-97L726,-97L721,-95L721,-93Z" fill="#E0E0E0" stroke="#fff" stroke-width=".4"/><path d="M0,216L5,215L7,215L7,222L-0,223L-2,222L1,220Z" fill="#E0E0E0" stroke="#fff" stroke-width=".4"/><path d="M809,280L802,274L800,271L795,272L791,272L788,273L784,272L779,265L778,262L771,259L769,254L765,250L759,245L759,242L755,239L749,235L751,234L754,233L757,225L759,221L765,219L767,222L771,227L774,228L777,226L783,227L784,228L793,228L793,227L798,225L799,222L802,220L809,226L814,225L818,218L823,213L822,208L820,205L825,205L826,203L830,204L829,210L830,217L835,220L836,223L835,228L837,228L837,235L835,237L831,238L828,243L833,243L838,248L839,251L843,253L848,263L842,268L837,274L832,278L826,278L818,280L813,278Z" fill="#E0E0E0" stroke="#fff" stroke-width=".4"/></g><g clip-path="url(#v)"><path d="M396.5,135.1L396.0,136.0L395.8,135.6L395.7,135.0L396.1,134.2L396.4,133.7L396.8,133.6ZM432.3,179.9L432.2,179.8L431.2,179.2L430.8,178.4L430.0,177.8L429.0,177.5L428.4,177.0L428.1,176.5L427.7,176.2L427.3,176.0L427.3,175.8L427.4,175.6L427.3,175.1L426.7,174.1L426.1,173.6L425.6,173.7L425.4,173.6L425.2,173.3L425.1,173L424.8,172.7L424.3,172.6L423.8,171.8L423.5,170.4L423.0,169.4L422.5,168.6L422.1,168.3L421.8,168.2L421.7,168.1L421.6,167.9L421.2,167.8L420.6,168.0L420.1,168.0L419.8,167.6L419.4,167.5L419.0,167.9L418.5,167.8L417.9,167.3L417.6,166.8L417.5,166.3L416.6,165.3L414.7,163.8L412.6,163.1L410.4,163.2L409.2,163.2L408.9,162.9L408.6,162.9L408.4,163.2L408.1,163.3L407.8,163.1L407.6,163.2L407.5,163.6L406.7,163.8L405.2,163.8L404.0,164.0L403.1,164.5L401.8,164.7L400.2,164.6L399.2,164.5L398.8,164.2L398.3,164.1L397.7,164.3L397.2,165.0L396.7,166.3L396.3,167.1L396.0,167.3L395.6,168.2L395.4,169.9L395.1,170.6L395.1,166.5L395.6,165.0L395.8,163.6L396.8,160.7L398.0,158.2L399.1,155.0L399.6,151.9L399.4,148.8L399.1,146.0L398.5,144.2L398.0,141.6L397.1,140.2L395.7,139.0L395.3,138.3L395.7,138.0L396.6,137.8L397.1,136.9L395.9,137.2L397.3,134.3L397.8,132.3L397.7,131.0L398.0,130.2L396.9,128.5L396.1,126.3L395.6,125.9L395.2,125.7L395.2,126.2L394.9,126.7L394.4,126.4L393.5,124.8L392.2,122.2L391.7,121.9L391.3,122.3L391.1,122.6L390.7,124.8L390.5,123.9L390.7,122.9L391.0,121.7L391.4,119.9L392.5,119.9L394.5,119.9L396.5,119.9L398.5,119.9L400.5,119.9L402.5,119.9L404.5,119.9L406.6,119.9L408.5,119.9L410.6,119.9L412.6,119.9L414.6,119.9L416.6,119.9L418.6,119.9L420.6,119.9L422.6,119.9L424.6,119.9L425.9,119.9L425.8,118.6L425.8,117.6L425.7,116.3L425.6,115.0L425.5,113.6L425.4,112.4L425.4,111.1L425.3,110.0L425.2,108.9L425.1,108.3L424.7,107.1L424.6,106.5L424.7,105.8L425.0,105.2L425.8,104.1L427.0,103.3L428.3,102.3L429.4,101.5L429.9,101.4L431.6,101.1L432.8,100.5L434.1,100.0L434.6,99.7L434.7,98.6L434.7,97.5L434.7,96.2L434.7,94.9L434.7,93.6L434.7,92.3L434.7,91.0L434.7,89.7L434.7,88.4L434.7,87.0L434.7,85.7L434.7,84.4L434.7,83.1L434.7,81.8L434.7,80.5L434.7,79.2L434.7,77.8L434.7,76.5L434.7,75.3L436.0,75.3L437.6,75.3L439.2,75.3L440.8,75.3L442.5,75.3L444.1,75.3L445.8,75.3L447.4,75.3L449.0,75.3L450.6,75.3L452.3,75.3L453.9,75.3L455.5,75.3L457.1,75.3L458.8,75.3L460.4,75.3L462.0,75.3L463.8,75.3L463.8,74.2L463.8,72.6L463.8,70.5L463.8,68.2L463.8,66.3L463.8,64.4L463.8,62.7L465.5,63.8L467.1,64.9L468.7,66.0L470.4,67.1L472.0,68.1L473.7,69.2L475.3,70.3L476.9,71.4L478.6,72.5L480.3,73.6L481.9,74.6L483.5,75.7L485.2,76.8L486.8,77.9L488.5,78.9L490.1,80.0L491.5,80.9L493.6,82.3L495.6,83.7L497.6,85.0L494.5,85.0L490.4,85.0L487.6,85.0L484.8,85.0L482.1,85.0L482.3,87.2L482.5,89.6L482.8,92.0L483.1,94.4L483.3,96.8L483.6,99.2L483.8,101.5L484.1,103.9L484.3,106.2L484.5,108.6L484.8,110.9L485.0,113.3L485.3,115.6L485.5,118.0L485.8,120.3L486.0,122.6L486.3,125.0L486.5,127.3L486.8,129.6L487.1,131.9L487.3,134.3L487.5,136.6L487.8,138.9L488.0,141.2L488.3,143.5L488.5,145.8L488.8,148.1L489.0,150.3L489.3,152.6L489.5,154.9L489.8,157.2L490.0,159.5L490.3,161.7L490.5,163.9L491.6,165.1L492.9,166.5L492.5,168.6L492.0,171.0L491.5,173.7L489.7,173.7L487.9,173.7L486.1,173.7L484.3,173.7L482.5,173.7L480.8,173.7L479.0,173.7L477.2,173.7L475.4,173.7L473.6,173.7L471.8,173.7L470.1,173.7L468.3,173.7L466.5,173.7L464.7,173.7L462.9,173.7L461.1,173.7L459.5,173.7L458.5,173.6L458.1,173.4L458.0,172.1L457.6,172.1L457.3,172.5L457.1,173.0L457.2,173.6L457.1,174.0L456.0,174.2L454.4,174.6L452.8,174.8L451.2,174.7L450.6,174.6L450,174.4L448.7,174.2L448.0,174.2L447.2,174.2L446.2,174.4L445.9,174.6L445.2,175.6L444.5,176.8L444.0,176.8L443.5,176.2L442.1,174.9L440.3,173.3L439.6,172.5L439.1,172.4L438.3,173L437.6,173.6L436.9,174.3L436.6,175.1L436.3,176.0L436.2,177.0L435.9,178.2L435.3,179.2L434.6,180.0L434.1,180.3L433.9,180.5Z" fill="#4ECDC4" stroke="#2C3E50" stroke-width="1"/></g><circle cx="400.0" cy="150.0" r="4" fill="#E74C3C" stroke="#fff" stroke-width="2"/><text x="400.0" y="140.0" text-anchor="middle" font-family="sans-serif" font-weight="700" font-size="10" fill="#2D3436">Nouakchott</text></svg>