<svg viewBox="0 0 800 300" xmlns="http://www.w3.org/2000/svg"><defs><clipPath id="v"><rect width="800" height="300"/></clipPath></defs><rect width="800" height="300" fill="#DCEEF8"/><g clip-path="url(#v)"><path d="M49,616L19,470L-24,437L-25,416L-82,367L-88,304L-45,256L-28,186L-39,104L-25,59L51,24L100,34L98,79L157,47L162,63L127,106L127,146L151,167L142,241L96,284L109,330L145,331L162,371L189,384L185,448L151,472L130,498L82,530L89,563L83,598Z" fill="#E0E0E0" stroke="#fff" stroke-width=".4"/><path d="M-1219,849L-1218,833L-1218,828L-1219,734L-1106,675L-1036,663L-979,641L-952,601L-871,569L-868,508L-827,501L-796,471L-704,457L-692,425L-710,407L-734,319L-738,267L-764,213L-697,166L-622,151L-578,115L-511,89L-392,73L-277,66L-242,79L-176,45L-101,44L-73,64L-25,59L-39,104L-28,186L-45,256L-88,304L-82,367L-25,416L-24,437L19,470L49,616L72,688L75,725L63,789L68,826L59,869L65,918L38,950L79,1007L82,1040L106,1083L139,1069L194,1104L225,1152L104,1224L-14,1296L-217,1443L-315,1476L-392,1483L-393,1436L-426,1424L-469,1402L-486,1367L-603,1285L-721,1204L-838,1120L-957,1037L-1087,942Z" fill="#E0E0E0" stroke="#fff" stroke-width=".4"/><path d="M1222,201L1214,227L1113,234L1114,220L1029,203L1042,167L1080,196L1134,191L1186,197L1184,212ZM989,-336L1041,-334L1097,-359L1146,-327L1210,-336L1210,-382L1244,-357L1223,-299L1206,-289L1164,-291L1127,-300L1043,-276L1091,-225L1055,-210L1017,-210L980,-257L967,-237L982,-182L1017,-140L991,-120L1030,-79L1064,-53L1065,-3L1001,-26L1021,19L977,28L1003,105L957,106L900,68L874,-2L861,-61L834,-102L798,-153L794,-179L826,-223L830,-253L853,-266L854,-290L900,-299L927,-319L964,-317L976,-333Z" fill="#E0E0E0" stroke="#fff" stroke-width=".4"/><path d="M854,-290L853,-266L830,-253L826,-223L794,-179L782,-185L781,-205L742,-236L736,-280L742,-343L751,-372L739,-387L735,-417L765,-463L769,-445L788,-454L803,-428L820,-419L824,-385L816,-353L825,-313Z" fill="#E0E0E0" stroke="#fff" stroke-width=".4"/><path d="M116,-877L158,-863L167,-882L235,-900L251,-864L351,-838L343,-788L360,-746L304,-760L248,-725L251,-676L243,-648L266,-598L331,-549L367,-470L444,-394L499,-395L516,-374L496,-355L559,-322L610,-294L670,-246L677,-229L664,-196L625,-239L565,-254L535,-195L586,-161L577,-114L548,-109L511,-32L482,-25L482,-53L497,-100L512,-120L484,-172L463,-218L434,-229L414,-269L369,-285L338,-322L287,-328L232,-371L168,-432L121,-486L99,-581L64,-593L8,-625L-25,-612L-65,-567L-94,-560L-86,-601L-124,-614L-142,-690L-117,-720L-138,-757L-135,-786L-105,-764L-71,-769L-32,-803L-20,-787L13,-790L28,-831L80,-818L110,-835ZM418,-46L471,-54L445,16L456,43L441,88L388,55L352,45L255,1L265,-45L346,-37ZM-5,-296L30,-324L72,-259L62,-139L30,-144L2,-114L-25,-138L-27,-248L-43,-300Z" fill="#E0E0E0" stroke="#fff" stroke-width=".4"/><path d="M1132,1263L1132,1413L1052,1413L1051,1444L913,1372L773,1301L634,1228L494,1157L424,1198L374,1226L335,1185L225,1152L194,1104L139,1069L106,1083L82,1040L79,1007L38,950L65,918L59,869L68,826L63,789L75,725L72,688L49,616L83,598L89,563L82,530L130,498L151,472L185,448L189,384L271,413L300,406L359,419L451,456L484,530L547,545L645,580L719,620L754,599L787,561L771,499L793,459L843,420L891,409L985,426L1009,463L1035,463L1057,477L1127,487L1144,514L1119,553L1129,588L1112,638L1132,702L1132,982Z" fill="#E0E0E0" stroke="#fff" stroke-width=".4"/></g><g clip-path="url(#v)"><path d="M404.0,154.1L401.5,156.9L395.0,156.8L388.9,152.4L388.9,143.3L395.7,145.1L402.0,151.2ZM386.2,139.0L382.2,140.3L377.9,137.8L376.9,136.1L382.7,134.8L385.7,136.0L386.7,138.2Z" fill="#4ECDC4" stroke="#2C3E50" stroke-width="1"/></g><circle cx="400.0" cy="150.0" r="4" fill="#E74C3C" stroke="#fff" stroke-width="2"/><text x="400.0" y="140.0" text-anchor="middle" font-family="sans-serif" font-weight="700" font-size="10" fill="#2D3436">Valletta</text></svg>