<svg viewBox="0 0 800 300" xmlns="http://www.w3.org/2000/svg"><defs><clipPath id="v"><rect width="800" height="300"/></clipPath></defs><rect width="800" height="300" fill="#DCEEF8"/><g clip-path="url(#v)"><path d="M2627,207L2631,204L2636,209L2634,217L2624,220L2615,218L2614,210L2620,205ZM2656,192L2646,195L2636,199L2634,193L2642,190L2647,189L2656,184L2656,184L2656,192ZM-2899,184L-2899,184L-2899,184L-2895,183L-2897,191L-2899,192L-2899,192L-2899,184Z" fill="#E0E0E0" stroke="#fff" stroke-width=".4"/><path d="M402,-53L404,-51L460,-20L461,-11L484,5L476,24L477,33L487,38L488,42L483,52L484,56L483,64L489,74L495,89L501,93L488,102L472,108L462,107L457,112L446,113L442,115L423,110L412,111L408,90L402,83L399,78L384,75L375,71L366,68L359,66L353,62L345,42L336,33L333,24L334,16L331,2L338,1L343,-4L349,-12L353,-16L353,-21L350,-24L349,-30L353,-32L354,-41L348,-50L353,-52L370,-52Z" fill="#E0E0E0" stroke="#fff" stroke-width=".4"/><path d="M331,2L334,16L333,24L336,33L345,42L353,62L347,60L326,63L322,64L318,74L321,81L318,100L316,116L321,119L331,125L336,122L337,139L325,139L319,130L313,123L301,121L298,113L288,118L276,116L271,108L261,107L254,107L253,102L248,102L241,101L231,104L224,103L221,105L221,86L216,80L215,70L217,61L214,55L214,45L195,45L197,40L189,40L188,43L178,43L174,52L172,56L164,54L158,56L148,57L142,49L139,44L134,35L131,23L85,23L80,25L75,25L69,27L67,22L71,20L71,14L74,10L79,6L83,8L88,2L97,2L98,6L104,9L113,-0L122,-8L126,-13L125,-26L132,-41L139,-49L149,-56L151,-61L151,-67L154,-72L153,-81L155,-94L158,-104L162,-112L163,-122L165,-132L171,-140L179,-145L192,-140L202,-134L213,-133L224,-130L229,-139L231,-140L238,-139L255,-146L261,-143L266,-144L269,-147L274,-149L286,-147L296,-147L301,-148L310,-136L317,-134L321,-136L329,-135L337,-139L341,-132L354,-122L353,-104L360,-102L355,-96L349,-92L343,-84L340,-77L339,-64L335,-58L335,-47L331,-43L330,-33L328,-32L326,-24L330,-17Z" fill="#E0E0E0" stroke="#fff" stroke-width=".4"/><path d="M520,-42L511,-54L511,-111L524,-128L529,-133L539,-133L552,-144L572,-145L616,-191L627,-204L634,-214L634,-222L634,-238L634,-245L634,-245L639,-245L646,-247L654,-249L661,-254L667,-254L668,-250L666,-241L666,-233L663,-227L659,-210L651,-193L642,-173L628,-150L615,-133L597,-112L582,-99L559,-84L544,-72L527,-53L524,-45Z" fill="#E0E0E0" stroke="#fff" stroke-width=".4"/><path d="M484,5L461,-11L460,-20L404,-51L402,-53L402,-69L406,-75L414,-86L419,-97L412,-115L411,-122L403,-133L413,-142L423,-153L431,-150L431,-141L437,-136L447,-136L467,-123L472,-123L475,-123L479,-122L489,-120L494,-127L508,-133L514,-128L524,-128L511,-111L511,-54L520,-42L509,-35L506,-29L500,-28L498,-17L493,-11L490,-0Z" fill="#E0E0E0" stroke="#fff" stroke-width=".4"/><path d="M258,-195L246,-202L241,-206L240,-211L242,-218L242,-224L233,-234L231,-241L232,-244L226,-249L226,-258L223,-264L217,-263L219,-269L223,-276L221,-282L226,-287L223,-291L227,-301L234,-313L247,-311L246,-376L247,-383L264,-383L264,-416L326,-416L386,-416L447,-416L452,-399L449,-396L451,-379L457,-360L463,-356L471,-350L463,-341L452,-338L447,-333L446,-322L439,-299L441,-292L438,-279L432,-263L423,-255L416,-243L415,-237L407,-233L403,-216L403,-202L403,-214L401,-215L401,-222L399,-228L391,-234L389,-245L391,-257L384,-258L383,-254L374,-254L377,-249L379,-240L370,-231L362,-220L354,-218L341,-227L336,-224L334,-219L326,-216L326,-213L310,-213L308,-216L297,-217L291,-214L287,-216L279,-225L277,-229L265,-227L261,-220L257,-206L252,-203L247,-201Z" fill="#E0E0E0" stroke="#fff" stroke-width=".4"/><path d="M246,-376L247,-311L234,-313L227,-301L223,-291L226,-287L221,-282L223,-276L219,-269L217,-263L223,-264L226,-258L226,-249L232,-244L231,-241L222,-238L214,-232L203,-214L188,-207L173,-208L169,-207L170,-201L162,-196L156,-190L136,-184L133,-187L130,-188L127,-184L114,-182L117,-187L112,-197L110,-204L103,-206L94,-216L97,-223L104,-221L109,-222L117,-222L109,-237L109,-247L108,-258L102,-268L104,-275L94,-275L94,-286L88,-292L94,-313L114,-328L115,-349L121,-382L124,-389L118,-395L117,-400L112,-404L108,-430L123,-439L185,-407Z" fill="#E0E0E0" stroke="#fff" stroke-width=".4"/><path d="M131,393L138,384L144,389L147,396L154,398L164,401L172,400L186,391L186,327L190,330L199,346L198,356L201,362L212,361L220,353L227,348L231,340L238,336L245,338L252,342L265,343L275,339L276,334L279,326L287,324L292,318L297,307L311,294L333,282L339,282L346,285L352,283L360,285L367,308L371,320L369,339L370,345L362,342L358,344L356,349L352,355L352,361L361,370L370,368L373,361L385,361L381,374L380,388L376,396L365,405L362,407L355,416L351,426L342,438L325,457L314,468L302,477L286,484L278,485L276,490L267,487L259,491L243,487L233,489L227,488L211,496L198,499L188,506L181,506L175,499L170,499L163,491L162,493L160,488L160,478L155,465L160,462L160,448L150,431L142,416L142,416ZM326,400L319,394L312,398L303,405L295,416L307,430L312,428L315,422L324,419L326,413L331,405Z" fill="#E0E0E0" stroke="#fff" stroke-width=".4"/><path d="M326,400L331,405L326,413L324,419L315,422L312,428L307,430L295,416L303,405L312,398L319,394Z" fill="#E0E0E0" stroke="#fff" stroke-width=".4"/><path d="M-918,-132L-927,-118L-932,-106L-938,-100L-946,-99L-948,-104L-951,-104L-956,-100L-963,-103L-959,-110L-957,-117L-955,-123L-961,-133L-962,-143L-954,-157L-949,-155L-937,-151L-921,-138ZM-26,-948L-19,-942L4,-938L-4,-922L-6,-905L-10,-901L-17,-903L-17,-898L-28,-885L-28,-875L-21,-878L-16,-868L-16,-862L-12,-854L-17,-847L-13,-831L-5,-828L-7,-819L-21,-806L-51,-812L-73,-805L-75,-793L-93,-790L-111,-799L-116,-795L-145,-804L-151,-813L-143,-826L-140,-869L-156,-893L-167,-904L-191,-913L-192,-930L-172,-935L-146,-929L-151,-956L-137,-945L-101,-964L-96,-984L-83,-989L-80,-980L-73,-980L-66,-970L-55,-959L-47,-961L-34,-950L-30,-948ZM14,-796L24,-804L26,-786L21,-770L14,-774L10,-788Z" fill="#E0E0E0" stroke="#fff" stroke-width=".4"/><path d="M360,285L352,283L346,285L339,282L333,282L323,275L311,272L306,262L306,256L300,254L282,236L277,226L274,224L268,211L286,212L291,214L296,214L304,203L318,190L323,189L325,183L334,177L346,175L347,181L360,180L367,184L370,188L377,189L385,194L385,215L382,226L382,238L384,243L383,253L380,254L376,266Z" fill="#E0E0E0" stroke="#fff" stroke-width=".4"/><path d="M333,282L311,294L297,307L292,318L287,324L279,326L276,334L275,339L265,343L252,342L245,338L238,336L231,340L227,348L220,353L212,361L201,362L198,356L199,346L190,330L186,327L186,278L201,277L201,219L213,218L237,213L242,219L252,213L257,213L266,209L268,211L274,224L277,226L282,236L300,254L306,256L306,262L311,272L323,275Z" fill="#E0E0E0" stroke="#fff" stroke-width=".4"/><path d="M186,327L186,391L172,400L164,401L154,398L147,396L144,389L138,384L131,393L119,380L113,367L110,350L106,338L101,312L101,291L99,282L93,276L85,262L77,242L73,232L61,216L60,204L67,200L76,198L86,198L96,206L98,204L160,204L171,211L209,214L237,207L250,203L260,204L266,208L266,209L257,213L252,213L242,219L237,213L213,218L201,219L201,277L186,278Z" fill="#E0E0E0" stroke="#fff" stroke-width=".4"/><path d="M-80,-164L-93,-163L-96,-173L-96,-209L-99,-212L-99,-220L-105,-225L-109,-230L-107,-238L-102,-240L-99,-247L-91,-248L-88,-253L-83,-258L-77,-258L-66,-249L-66,-243L-63,-234L-66,-228L-64,-224L-72,-214L-76,-209L-79,-199L-79,-189Z" fill="#E0E0E0" stroke="#fff" stroke-width=".4"/><path d="M-80,-164L-79,-189L-79,-199L-76,-209L-72,-214L-64,-224L-66,-228L-63,-234L-66,-243L-66,-249L-65,-263L-60,-269L-58,-278L-54,-282L-37,-284L-22,-278L-16,-272L-8,-271L-1,-275L18,-267L26,-267L35,-274L44,-274L48,-276L57,-275L68,-270L81,-279L84,-279L95,-261L97,-262L104,-255L102,-253L101,-247L88,-235L84,-225L82,-217L79,-214L75,-203L67,-196L65,-188L61,-182L60,-176L49,-170L41,-177L35,-176L26,-167L21,-167L14,-152L10,-141L-6,-136L-12,-136L-18,-133L-30,-133L-39,-143L-44,-154L-55,-164L-66,-164Z" fill="#E0E0E0" stroke="#fff" stroke-width=".4"/><path d="M102,-268L108,-258L109,-247L109,-237L117,-222L109,-222L104,-221L97,-223L94,-216L103,-206L110,-204L112,-197L117,-187L114,-182L107,-167L103,-164L102,-152L103,-145L102,-141L109,-133L111,-127L116,-119L123,-114L124,-107L126,-103L125,-94L112,-98L100,-102L80,-103L78,-103L69,-101L60,-103L53,-102L28,-103L30,-115L24,-125L17,-128L14,-135L10,-137L10,-141L14,-152L21,-167L26,-167L35,-176L41,-177L49,-170L60,-176L61,-182L65,-188L67,-196L75,-203L79,-214L82,-217L84,-225L88,-235L101,-247L102,-253L104,-255L97,-262L98,-267Z" fill="#E0E0E0" stroke="#fff" stroke-width=".4"/><path d="M-107,-238L-109,-230L-105,-225L-99,-220L-99,-212L-96,-209L-96,-173L-93,-163L-105,-159L-108,-165L-113,-174L-114,-182L-110,-196L-114,-202L-116,-214L-116,-226L-122,-234L-121,-239Z" fill="#E0E0E0" stroke="#fff" stroke-width=".4"/><path d="M-121,-239L-122,-234L-116,-226L-116,-214L-114,-202L-110,-196L-114,-182L-113,-174L-108,-165L-105,-159L-129,-150L-138,-145L-152,-140L-165,-145L-165,-151L-171,-164L-167,-182L-161,-195L-165,-217L-167,-229L-167,-238L-140,-238L-133,-237L-128,-240Z" fill="#E0E0E0" stroke="#fff" stroke-width=".4"/><path d="M-245,-226L-243,-227L-239,-225L-227,-225L-224,-229L-222,-229L-217,-231L-215,-224L-211,-226L-205,-228L-198,-225L-195,-220L-188,-217L-183,-220L-176,-221L-165,-217L-161,-195L-167,-182L-171,-164L-165,-151L-165,-145L-172,-145L-183,-148L-193,-147L-211,-145L-222,-140L-237,-135L-240,-135L-239,-148L-238,-150L-238,-156L-245,-162L-250,-163L-254,-168L-251,-174L-252,-182L-252,-186L-249,-186L-248,-193L-249,-196L-248,-198L-242,-200L-246,-213L-250,-219L-248,-225Z" fill="#E0E0E0" stroke="#fff" stroke-width=".4"/><path d="M301,-148L296,-147L286,-147L274,-149L269,-147L266,-144L261,-143L255,-146L238,-139L231,-140L229,-139L224,-130L213,-133L202,-134L192,-140L179,-145L171,-140L165,-132L163,-122L153,-123L143,-125L134,-117L126,-103L124,-107L123,-114L116,-119L111,-127L109,-133L102,-141L103,-145L102,-152L103,-164L107,-167L114,-182L127,-184L130,-188L133,-187L136,-184L156,-190L162,-196L170,-201L169,-207L173,-208L188,-207L203,-214L214,-232L222,-238L231,-241L233,-234L242,-224L242,-218L240,-211L241,-206L246,-202L258,-195L266,-189L266,-184L277,-175L283,-169L287,-159L299,-153Z" fill="#E0E0E0" stroke="#fff" stroke-width=".4"/><path d="M163,-122L162,-112L158,-104L155,-94L153,-81L154,-72L151,-67L151,-61L149,-56L139,-49L132,-41L125,-26L126,-13L122,-8L113,-0L104,9L98,6L97,2L88,2L83,8L79,6L73,1L69,4L62,10L50,-6L62,-15L56,-25L61,-29L71,-31L73,-37L81,-30L95,-29L99,-37L101,-47L100,-59L92,-68L99,-86L95,-89L84,-88L79,-96L80,-103L100,-102L112,-98L125,-94L126,-103L134,-117L143,-125L153,-123Z" fill="#E0E0E0" stroke="#fff" stroke-width=".4"/><path d="M53,-102L60,-103L69,-101L78,-103L80,-103L79,-96L84,-88L95,-89L99,-86L92,-68L100,-59L101,-47L99,-37L95,-29L81,-30L73,-37L71,-31L61,-29L56,-25L62,-15L50,-6L34,-22L24,-34L14,-50L15,-56L18,-60L22,-72L25,-83L30,-84L53,-84Z" fill="#E0E0E0" stroke="#fff" stroke-width=".4"/><path d="M28,-103L53,-102L53,-84L30,-84L25,-83L22,-85Z" fill="#E0E0E0" stroke="#fff" stroke-width=".4"/><path d="M353,62L359,66L366,68L375,71L384,75L391,82L395,96L393,100L390,113L393,126L388,131L383,146L391,150L344,163L346,175L334,177L325,183L323,189L318,190L304,203L296,214L291,214L286,212L268,211L266,209L266,208L260,204L250,203L237,207L227,197L216,184L217,133L249,133L248,128L250,122L247,115L249,107L248,102L253,102L254,107L261,107L271,108L276,116L288,118L298,113L301,121L313,123L319,130L325,139L337,139L336,122L331,125L321,119L316,116L318,100L321,81L318,74L322,64L326,63L347,60Z" fill="#E0E0E0" stroke="#fff" stroke-width=".4"/><path d="M412,111L423,110L442,115L446,113L457,112L462,107L472,108L488,102L501,93L503,100L503,115L504,129L505,154L508,162L503,173L497,184L487,194L473,200L456,208L438,226L433,229L422,240L415,244L414,256L421,268L424,278L425,283L427,282L427,298L424,306L428,309L426,316L419,322L407,328L388,337L381,343L383,351L387,352L385,361L373,361L372,353L370,345L369,339L371,320L367,308L360,285L376,266L380,254L383,253L384,243L382,238L382,226L385,215L385,194L377,189L370,188L367,184L360,180L347,181L346,175L344,163L391,150L400,158L404,156L410,160L411,167L408,174L409,186L419,195L424,184L431,181L429,160L423,149L417,144L412,144L408,123Z" fill="#E0E0E0" stroke="#fff" stroke-width=".4"/><path d="M373,361L370,368L361,370L352,361L352,355L356,349L358,344L362,342L370,345L372,353Z" fill="#E0E0E0" stroke="#fff" stroke-width=".4"/><path d="M79,6L74,10L71,14L71,20L67,22L62,10L69,4L73,1ZM69,27L75,25L80,25L85,23L131,23L134,35L139,44L142,49L148,57L158,56L164,54L172,56L174,52L178,43L188,43L189,40L197,40L195,45L214,45L214,55L217,61L215,70L216,80L221,86L221,105L224,103L231,104L241,101L248,102L249,107L247,115L250,122L248,128L249,133L217,133L216,184L227,197L237,207L209,214L171,211L160,204L98,204L96,206L86,198L76,198L67,200L60,204L58,193L60,179L66,165L67,158L72,143L75,137L84,127L89,120L91,108L90,99L85,93L81,84L77,74L78,71L83,65L78,50L75,40L67,30Z" fill="#E0E0E0" stroke="#fff" stroke-width=".4"/><path d="M349,-30L350,-24L353,-21L353,-16L349,-12L343,-4L338,1L331,2L330,-17L326,-24L336,-23L341,-31Z" fill="#E0E0E0" stroke="#fff" stroke-width=".4"/><path d="M643,126L647,133L651,144L653,163L657,170L656,178L653,183L648,173L645,178L648,190L647,197L642,200L641,214L635,233L628,256L618,287L612,310L605,330L593,334L579,341L570,337L558,331L554,322L553,307L547,293L546,281L549,270L556,267L556,261L563,249L565,238L561,230L558,220L557,205L562,196L564,186L572,185L581,182L586,179L593,179L602,170L615,160L619,152L617,145L624,147L632,136L633,127L638,120Z" fill="#E0E0E0" stroke="#fff" stroke-width=".4"/><path d="M1380,-522L1381,-516L1376,-513L1377,-502L1366,-505L1346,-493L1347,-483L1338,-469L1337,-461L1331,-447L1319,-450L1318,-433L1314,-427L1316,-420L1309,-416L1300,-443L1296,-443L1294,-432L1285,-441L1290,-450L1297,-451L1304,-466L1295,-469L1281,-468L1266,-471L1265,-483L1257,-483L1245,-491L1240,-479L1251,-470L1241,-464L1238,-458L1247,-453L1245,-443L1250,-430L1252,-417L1250,-411L1240,-411L1221,-407L1221,-395L1213,-385L1191,-374L1174,-355L1162,-345L1147,-334L1147,-327L1139,-323L1125,-317L1118,-316L1113,-304L1117,-283L1117,-270L1111,-255L1111,-228L1103,-227L1096,-216L1100,-210L1086,-206L1081,-195L1075,-191L1060,-205L1053,-227L1047,-243L1042,-251L1034,-266L1030,-286L1027,-296L1013,-318L1007,-349L1002,-370L1002,-389L999,-405L977,-395L966,-397L946,-417L953,-423L949,-430L931,-444L941,-455L975,-455L972,-470L963,-478L961,-492L951,-499L968,-518L986,-516L1002,-535L1012,-553L1027,-571L1027,-584L1040,-594L1027,-603L1022,-616L1017,-632L1024,-640L1048,-635L1065,-638L1080,-654L1096,-632L1095,-617L1101,-607L1100,-598L1089,-600L1093,-580L1109,-569L1130,-556L1120,-548L1114,-532L1129,-525L1144,-517L1164,-507L1185,-505L1194,-496L1206,-494L1224,-490L1237,-490L1239,-497L1237,-508L1238,-516L1248,-519L1249,-506L1249,-502L1263,-496L1273,-498L1286,-497L1299,-498L1300,-508L1293,-514L1306,-516L1320,-529L1338,-540L1351,-536L1362,-543L1369,-532L1364,-525Z" fill="#E0E0E0" stroke="#fff" stroke-width=".4"/><path d="M616,-191L572,-145L552,-144L539,-133L529,-133L524,-128L514,-128L508,-133L494,-127L489,-120L479,-122L475,-123L472,-123L467,-123L447,-136L437,-136L431,-141L431,-150L423,-153L414,-170L407,-173L404,-179L397,-187L387,-188L392,-197L401,-197L403,-202L403,-216L407,-233L415,-237L416,-243L423,-255L432,-263L438,-279L441,-292L459,-289L464,-301L473,-294L482,-298L486,-294L496,-294L510,-288L514,-282L521,-277L527,-268L532,-263L527,-256L521,-248L523,-244L523,-239L531,-239L535,-240L539,-237L535,-232L541,-223L547,-215L553,-210L603,-191Z" fill="#E0E0E0" stroke="#fff" stroke-width=".4"/><path d="M634,-245L634,-245L634,-238L634,-222L634,-214L627,-204L616,-191L603,-191L553,-210L547,-215L541,-223L535,-232L539,-237L544,-246L549,-243L552,-236L559,-230L567,-230L582,-234L598,-235L612,-240L620,-241L625,-244Z" fill="#E0E0E0" stroke="#fff" stroke-width=".4"/><path d="M402,-53L370,-52L353,-52L348,-50L339,-45L335,-47L335,-58L339,-64L340,-77L343,-84L349,-92L355,-96L360,-102L353,-104L354,-122L361,-126L371,-122L383,-126L394,-126L403,-133L411,-122L412,-115L419,-97L414,-86L406,-75L402,-69Z" fill="#E0E0E0" stroke="#fff" stroke-width=".4"/><path d="M348,-50L354,-41L353,-32L349,-30L341,-31L336,-23L326,-24L328,-32L330,-33L331,-43L335,-47L339,-45Z" fill="#E0E0E0" stroke="#fff" stroke-width=".4"/><path d="M354,-122L341,-132L337,-139L329,-135L321,-136L317,-134L310,-136L301,-148L299,-153L287,-159L283,-169L277,-175L266,-184L266,-189L258,-195L247,-201L252,-203L257,-206L261,-220L265,-227L277,-229L279,-225L287,-216L291,-214L297,-217L308,-216L310,-213L326,-213L326,-216L334,-219L336,-224L341,-227L354,-218L362,-220L370,-231L379,-240L377,-249L374,-254L383,-254L384,-258L391,-257L389,-245L391,-234L399,-228L401,-222L401,-215L403,-214L403,-202L401,-197L392,-197L387,-188L397,-187L404,-179L407,-173L414,-170L423,-153L413,-142L403,-133L394,-126L383,-126L371,-122L361,-126Z" fill="#E0E0E0" stroke="#fff" stroke-width=".4"/></g><g clip-path="url(#v)"><path d="M414.4,120.7L413.8,120.8L413.5,120.6L413.5,119.7L413.7,119.1L414.2,119.0L414.6,119.2L414.9,119.5L414.9,119.9L414.7,120.4ZM413.1,119.2L412.9,120.0L412.2,120.0L411.6,119.3L411.8,118.7L412.4,118.5L412.9,118.7ZM390.9,150.9L390.1,149.7L389.4,150.0L388.5,150.8L388.0,151.0L387.7,151.0L387.5,150.8L387.3,150.3L386.6,148.8L385.8,147.7L384.9,147.3L384.2,146.8L384.5,146.4L384.8,146.0L384.7,145.7L384.3,145.2L382.8,144.4L382.8,144.1L384.1,143.5L384.9,142.7L385.5,142.0L386.3,140.4L386.9,138.8L387.3,138.3L387.5,137.3L387.4,136.1L387.6,134.6L387.8,133.2L387.4,132.6L387.0,131.7L387.4,130.0L388.1,128.9L391.6,127.7L394.0,126.7L394.5,126.2L395.3,125.3L395.7,124.5L395.4,124.2L393.5,124.2L393.1,123.8L391.7,120.8L392.5,117.2L392.5,115.8L392.5,114.1L392.3,112.8L391.7,112.3L391.3,111.6L391.4,109.8L392.0,109.6L393.1,107.1L393.7,105.7L393.0,104.6L392.4,102.9L392.0,101.9L391.9,101.5L392.3,100.9L393.1,100.3L394.0,100.1L395.0,99.8L398.0,96.8L398.0,96.2L397.5,95.2L396.4,93.7L396.1,93.0L396.0,91.2L395.5,90.7L393.9,89.4L392.6,88.1L393.0,86.8L393.3,85.4L392.6,84.6L391.7,83.8L391.1,82.6L390.8,81.7L390.1,81.3L389.4,81.3L388.9,81.9L388.4,81.8L387.8,81.6L387.5,80.8L387.5,80.0L387.0,79.5L386.6,78.7L386.6,78.2L386.9,78.1L387.4,78.1L389.8,79.6L391.3,79.7L392.9,80.0L394.3,81.4L395.0,81.6L396.0,81.4L398.6,81.2L399.6,81.4L401.0,82.3L401.5,82.4L402.4,82.4L402.5,82.2L402.6,81.7L402.5,80.7L402.6,80.2L403.2,79.6L404.6,80.3L408.2,83.3L408.3,83.7L410.6,86.7L411.3,88.0L411.3,88.7L412.0,91.3L412.2,92.5L412.0,93.5L412.1,94.2L412.4,95.3L412.2,95.8L413.1,97.3L413.5,98.7L413.5,100.0L413.3,101.2L412.6,103.1L412.5,103.8L412.6,104.5L413.1,105.2L413.9,106.0L414.5,107.0L414.9,108.1L415.2,108.6L415.6,108.6L416.4,108.7L417.0,109.4L417.7,110.5L417.9,111.8L418.0,112.3L416.0,112.3L413.4,112.5L412.8,113.0L412.6,114.1L411.8,116.3L411.4,117.2L410.4,118.7L409.0,120.9L408.7,121.6L408.8,122.3L409.6,125.2L410.4,128.3L410.7,129.5L411.3,133.6L411.6,136.5L411.6,138.2L411.9,140.5L412.7,141.7L413.5,142.5L416.4,142.9L417.2,143.5L418.9,145.0L422.5,149.0L424.5,151.6L426.2,153.8L429.3,158.0L431.7,161.3L432.0,164.4L432.5,164.9L431.6,167.1L431.1,170.8L431.5,173.3L431.3,177.5L430.9,181.9L430.3,183.5L429.6,184.1L427.9,184.6L424.2,185.2L423.6,185.7L423.2,186.5L422.4,188.6L421.5,190.7L421.2,191.6L421.4,191.8L422.2,192.9L423.0,195.6L423.1,200.2L422.9,200.6L421.8,200.8L420.6,200.7L420.1,200.5L419.7,199.9L419.4,199.0L420.1,198.3L420.4,197.1L419.9,196.0L418.9,195.8L417.6,194.8L415.0,191.7L412.7,189.5L411.4,187.7L410.0,187.0L409.7,186.5L409.4,185.8L409.4,184.7L409.5,183.9L409.0,183.0L407.7,181.6L407.1,180.8L407.0,179.9L407.6,178.9L408.7,177.9L409.6,175.6L410.0,174.2L411.6,171.3L411.8,168.8L411.9,166.8L411.7,165.3L411.3,162.3L411.0,160.1L409.0,157.4L408.4,157.1L406.5,157.4L404.8,157.8L404.0,158.3L402.7,158.4L399.6,158.9L398.5,159.1L398.0,159.6L397.6,159.7L395.6,157.5L393.8,155.3L391.6,151.3Z" fill="#4ECDC4" stroke="#2C3E50" stroke-width="1"/></g><circle cx="400.0" cy="150.0" r="4" fill="#E74C3C" stroke="#fff" stroke-width="2"/><text x="400.0" y="140.0" text-anchor="middle" font-family="sans-serif" font-weight="700" font-size="10" fill="#2D3436">Lilongwe</text></svg>