<svg viewBox="0 0 800 300" xmlns="http://www.w3.org/2000/svg"><defs><clipPath id="v"><rect width="800" height="300"/></clipPath></defs><rect width="800" height="300" fill="#DCEEF8"/><g clip-path="url(#v)"><path d="M2065,376L2066,375L2068,377L2067,380L2063,381L2060,380L2060,377L2062,375ZM2076,370L2072,371L2068,373L2067,370L2070,369L2072,369L2076,367L2076,367L2076,370ZM-86,367L-86,367L-86,367L-84,366L-85,369L-86,370L-86,370L-86,367Z" fill="#E0E0E0" stroke="#fff" stroke-width=".4"/><path d="M943,96L943,97L943,98L943,108L923,108L924,125L918,125L916,128L918,138L894,138L893,140L893,137L893,137L907,137L907,134L910,131L912,122L920,115L923,107L925,107L927,101L932,101L934,101L937,101L939,100L942,100L942,96Z" fill="#E0E0E0" stroke="#fff" stroke-width=".4"/><path d="M258,-69L257,-69L245,-79L241,-83L230,-87L227,-95L228,-101L220,-105L219,-113L212,-121L211,-126L215,-131L215,-138L204,-145L198,-157L195,-165L189,-171L185,-175L182,-182L176,-178L170,-171L165,-179L160,-184L155,-187L149,-188L149,-264L149,-323L160,-319L169,-311L176,-309L181,-316L188,-322L197,-319L206,-327L216,-331L220,-324L224,-328L226,-337L230,-335L240,-319L248,-331L249,-318L256,-320L259,-326L266,-325L275,-317L289,-311L297,-308L303,-309L311,-301L303,-293L314,-290L330,-291L335,-294L341,-285L348,-293L342,-300L346,-305L353,-306L358,-308L363,-304L369,-295L375,-296L386,-289L395,-291L404,-291L403,-301L409,-304L418,-298L418,-283L422,-296L427,-296L429,-312L423,-323L416,-330L416,-350L424,-363L431,-360L438,-352L446,-331L440,-323L452,-319L452,-302L460,-315L467,-304L465,-292L471,-282L477,-293L481,-307L482,-326L490,-325L499,-322L507,-314L508,-305L503,-297L507,-288L507,-281L495,-270L486,-268L480,-272L478,-265L473,-252L471,-246L464,-237L455,-236L451,-230L450,-221L443,-220L436,-209L429,-195L427,-185L427,-172L436,-170L438,-159L441,-151L449,-153L461,-148L467,-144L471,-139L478,-136L485,-131L495,-131L501,-130L500,-121L502,-110L506,-99L515,-90L520,-93L523,-103L520,-119L516,-125L526,-130L532,-137L536,-144L535,-152L531,-161L524,-170L531,-182L528,-193L526,-213L530,-216L541,-212L547,-211L552,-215L557,-210L565,-203L567,-198L577,-197L577,-187L579,-172L585,-170L589,-163L598,-170L603,-183L607,-188L612,-177L620,-163L627,-149L624,-142L632,-136L638,-130L647,-128L651,-124L653,-116L658,-114L660,-110L661,-99L656,-96L652,-92L642,-89L635,-81L625,-79L612,-81L603,-82L597,-81L591,-74L584,-70L575,-58L568,-50L573,-51L583,-63L596,-71L605,-72L610,-67L604,-61L606,-51L608,-45L616,-41L626,-42L632,-52L632,-45L636,-42L629,-36L615,-31L609,-28L603,-22L598,-23L598,-30L608,-37L599,-36L592,-35L588,-40L588,-52L586,-55L581,-53L579,-55L575,-49L573,-42L571,-38L568,-37L566,-36L566,-34L555,-34L546,-34L543,-33L537,-27L536,-26L534,-23L528,-23L523,-23L520,-21L521,-20L521,-17L521,-16L513,-12L507,-11L500,-7L499,-7L497,-8L496,-9L496,-10L497,-13L500,-17L502,-22L501,-30L500,-37L493,-41L494,-43L493,-44L492,-44L490,-45L490,-47L489,-46L487,-47L488,-47L486,-48L486,-51L481,-53L476,-56L470,-60L465,-63L459,-61L457,-60L450,-63L445,-62L439,-64L433,-66L429,-66L427,-68L426,-73L424,-73L424,-69L411,-69L391,-69L370,-69L352,-69L334,-69L317,-69L298,-69L293,-69L275,-69ZM491,-215L495,-221L504,-221L503,-218L496,-211L492,-211ZM516,-381L510,-392L510,-399L513,-401L526,-399L537,-387L537,-381L531,-382L525,-382L518,-380ZM513,-210L515,-214L518,-214L519,-211L517,-204L514,-205L513,-209ZM433,-428L430,-419L421,-421L414,-427L417,-437L426,-444L431,-435ZM432,-492L429,-492L418,-493L416,-501L428,-501L432,-496ZM414,-529L421,-518L420,-508L411,-502L406,-508L403,-519L403,-532L411,-531ZM466,-415L456,-417L440,-425L438,-438L437,-450L431,-461L419,-464L412,-472L414,-483L427,-481L433,-472L445,-472L450,-464L449,-454L456,-449L460,-443L468,-442L477,-440L486,-445L498,-447L508,-445L515,-436L516,-427L512,-421L503,-416L495,-419L478,-415ZM327,-510L336,-506L334,-497L322,-489L314,-498L318,-507ZM329,-530L337,-524L329,-518L319,-518L320,-522L326,-531ZM661,-91L658,-85L654,-77L658,-80L662,-78L660,-75L665,-72L668,-75L674,-72L672,-65L676,-67L677,-62L679,-56L677,-49L674,-48L670,-50L671,-57L670,-58L663,-51L659,-51L663,-55L657,-57L651,-57L639,-57L638,-60L642,-63L640,-65L645,-71L651,-85L655,-91L660,-94L663,-94ZM492,-251L498,-246L505,-242L506,-235L510,-236L514,-232L509,-227L500,-231L496,-237L490,-229L482,-223L480,-230L471,-229L477,-236L477,-247L480,-260L484,-259L485,-252L488,-255ZM522,-372L528,-380L541,-370L550,-360L550,-352L561,-356L568,-345L582,-337L587,-330L593,-314L582,-306L596,-296L606,-292L614,-278L624,-277L622,-266L611,-249L604,-255L595,-270L587,-268L586,-259L592,-251L601,-244L603,-241L607,-227L605,-218L597,-221L582,-232L591,-220L597,-212L598,-208L582,-213L569,-221L561,-227L564,-231L555,-238L546,-245L546,-241L529,-238L524,-243L527,-254L539,-254L551,-256L549,-261L551,-268L559,-283L557,-290L555,-296L546,-303L534,-309L537,-313L531,-324L526,-325L521,-331L518,-326L507,-324L485,-327L472,-333L463,-335L458,-342L464,-350L455,-350L454,-370L458,-388L464,-396L480,-402L475,-388L480,-375L486,-392L501,-401L511,-379L510,-366ZM428,-409L440,-408L452,-403L443,-384L436,-380L429,-365L422,-366L419,-384L419,-394L422,-403ZM258,-455L268,-475L280,-492L289,-492L298,-496L297,-475L292,-466L286,-465L275,-454L266,-450ZM198,-118L204,-119L202,-108L208,-100L205,-100L202,-104L199,-109L196,-112L195,-116L196,-119ZM362,-546L374,-541L390,-530L394,-516L397,-503L387,-507L377,-516L364,-517L369,-526L362,-534ZM254,-65L251,-64L241,-68L239,-71L234,-74L232,-77L226,-79L224,-84L225,-86L231,-84L235,-82L240,-81L242,-78L245,-74L251,-70ZM265,-416L274,-411L289,-410L295,-404L302,-395L294,-390L279,-375L272,-361L272,-353L256,-344L253,-352L239,-362L242,-371L246,-385L251,-399L245,-412ZM348,-449L353,-453L359,-452L361,-440L357,-429L337,-425L321,-415L312,-415L311,-422L324,-432L297,-430L288,-434L297,-458L302,-465L319,-456L330,-442L340,-440L332,-463L337,-473L343,-470L345,-458ZM356,-386L362,-378L366,-359L368,-346L378,-337L389,-328L388,-321L378,-319L382,-313L380,-307L369,-309L359,-314L352,-313L341,-307L326,-305L315,-303L312,-311L303,-316L298,-314L291,-327L295,-329L304,-332L312,-331L320,-335L309,-339L296,-337L287,-338L284,-344L298,-352L289,-351L278,-356L283,-371L288,-379L304,-391L310,-387L307,-378L320,-384L328,-374L335,-384L341,-377L346,-358L349,-366L344,-387L350,-390ZM392,-379L386,-392L393,-403L400,-398L411,-401L412,-395L406,-385L416,-376L414,-358L405,-351L399,-353L395,-360L380,-375L380,-381ZM355,-397L363,-398L368,-394L362,-380L353,-394ZM404,-471L408,-459L409,-446L406,-429L396,-426L389,-430L390,-444L380,-442L379,-461L386,-460L395,-469L403,-467ZM419,-591L423,-602L429,-605L426,-614L440,-616L448,-595L458,-587L468,-580L473,-558L480,-547L472,-537L461,-514L450,-512L438,-516L431,-528L431,-540L436,-548L425,-548L418,-559L415,-575ZM445,-642L454,-650L461,-651L473,-658L482,-676L489,-673L496,-660L500,-685L508,-693L519,-699L537,-701L541,-695L558,-704L571,-701L584,-698L600,-694L613,-687L624,-674L624,-662L609,-643L594,-635L589,-625L602,-625L588,-602L578,-591L568,-562L555,-557L552,-550L533,-546L542,-542L538,-537L543,-522L537,-511L528,-503L525,-492L516,-484L517,-478L527,-479L528,-472L511,-457L496,-464L478,-460L469,-463L458,-464L457,-477L468,-483L465,-503L469,-505L485,-493L477,-511L467,-517L472,-529L483,-536L484,-547L476,-560L473,-578L490,-576L494,-573L504,-586L490,-590L469,-587L459,-600L454,-616L447,-627ZM544,-286L540,-281L533,-280L531,-288L534,-297L540,-299L544,-295L544,-288ZM417,-319L421,-313L417,-307L409,-312L404,-310L396,-318L401,-323L405,-331L412,-326L415,-322ZM608,-78L610,-78L618,-76L624,-72L624,-70L621,-70L613,-73ZM611,-52L613,-48L617,-46L623,-47L620,-43L618,-43L610,-46L609,-49Z" fill="#E0E0E0" stroke="#fff" stroke-width=".4"/><path d="M258,-69L275,-69L293,-69L298,-69L317,-69L334,-69L352,-69L370,-69L391,-69L411,-69L424,-69L424,-73L426,-73L427,-68L429,-66L433,-66L439,-64L445,-62L450,-63L457,-60L459,-61L465,-63L470,-60L476,-56L481,-53L486,-51L486,-48L488,-47L487,-47L489,-46L490,-47L490,-45L492,-44L493,-44L494,-43L493,-41L500,-37L501,-30L502,-22L500,-17L497,-13L496,-10L496,-9L497,-8L499,-7L500,-7L507,-11L513,-12L521,-16L521,-17L521,-20L520,-21L523,-23L528,-23L534,-23L536,-26L537,-27L543,-33L546,-34L555,-34L566,-34L566,-36L568,-37L571,-38L573,-42L575,-49L579,-55L581,-53L586,-55L588,-52L588,-40L592,-35L593,-33L587,-29L581,-26L574,-23L571,-18L570,-16L570,-12L572,-8L574,-8L574,-11L576,-9L575,-6L571,-5L568,-5L564,-4L561,-4L558,-3L553,-1L561,-2L563,-1L555,2L551,2L551,1L549,3L551,3L550,9L545,15L545,13L544,12L542,10L543,15L544,16L545,19L543,22L539,28L539,28L541,22L537,20L537,13L536,16L537,21L533,20L537,23L537,30L539,30L540,33L541,40L537,46L530,48L527,52L524,53L520,55L520,58L513,62L510,66L507,70L506,75L507,80L509,86L512,91L512,93L515,101L514,106L514,108L513,112L511,113L508,113L507,110L505,108L501,102L499,97L498,95L499,90L497,86L493,80L490,79L484,83L483,82L480,79L476,77L470,78L464,77L460,78L457,79L458,81L458,84L460,85L458,86L456,85L454,86L450,86L445,82L440,83L435,81L432,82L427,84L421,89L415,92L412,95L411,98L411,103L411,106L412,108L410,108L405,107L401,105L399,102L398,97L394,93L392,89L389,84L385,82L380,82L376,87L371,85L368,83L367,79L365,76L361,72L358,70L356,68L345,68L345,71L341,71L329,71L315,66L306,62L306,61L299,62L292,62L291,59L287,54L284,54L284,51L280,51L278,49L272,48L271,47L270,43L264,36L259,25L260,24L257,21L252,15L251,8L248,4L250,-3L249,-9L247,-16L250,-23L251,-31L251,-39L250,-50L248,-58L247,-62L247,-64L256,-61L259,-52L261,-55L260,-62ZM62,146L63,146L64,147L66,149L66,150L63,151L61,152L60,153L59,152L59,151L58,148L58,148L59,147L59,145L59,145L60,145ZM59,141L58,142L56,143L55,141L54,141L54,140L55,140L57,140ZM54,139L54,140L51,139L51,139ZM46,135L47,136L49,138L48,138L48,138L46,138L45,136L45,136ZM38,132L38,134L38,134L36,133L36,133L37,132ZM-4,-189L0,-188L1,-183L-3,-181L-7,-183L-10,-187ZM75,-160L79,-160L82,-156L77,-151L71,-147L67,-149L67,-155L72,-159ZM149,-323L149,-264L149,-188L155,-187L160,-184L165,-179L170,-171L176,-178L182,-182L185,-175L189,-171L195,-165L198,-157L204,-145L215,-138L215,-131L211,-126L208,-130L203,-133L201,-143L193,-152L190,-162L184,-163L175,-163L168,-166L155,-179L150,-181L139,-185L131,-184L119,-190L112,-195L105,-192L106,-184L103,-183L96,-181L91,-177L84,-174L83,-181L86,-193L93,-197L91,-200L83,-193L79,-185L70,-176L75,-171L69,-162L63,-158L57,-154L55,-149L46,-144L44,-139L37,-134L33,-135L27,-132L21,-128L16,-125L6,-122L5,-124L11,-129L17,-132L24,-138L31,-139L34,-143L42,-150L44,-152L48,-156L49,-164L52,-171L45,-168L43,-170L40,-166L36,-171L35,-167L32,-173L26,-168L23,-168L22,-175L23,-180L19,-184L12,-182L7,-187L2,-190L2,-197L-2,-203L0,-210L5,-217L7,-224L12,-225L16,-223L21,-229L25,-228L30,-232L29,-238L25,-241L30,-246L26,-246L20,-243L18,-240L13,-243L5,-241L-4,-245L-7,-251L-14,-259L-6,-265L8,-272L13,-272L12,-265L24,-265L20,-275L12,-281L8,-288L2,-295L-6,-300L-3,-309L8,-309L16,-317L17,-326L23,-334L29,-336L40,-344L46,-343L55,-353L64,-349L69,-340L71,-344L81,-343L81,-339L90,-336L96,-337L109,-332L120,-330L125,-328L133,-331L142,-325ZM-36,-232L-32,-230L-28,-231L-24,-228L-18,-226L-18,-224L-23,-222L-27,-224L-30,-227L-35,-226L-36,-227Z" fill="#E0E0E0" stroke="#fff" stroke-width=".4"/><path d="M583,642L585,647L588,654L596,660L605,663L602,668L596,669L593,665L590,665L583,665ZM649,459L648,465L646,472L646,479L645,481L644,486L644,489L652,496L651,501L655,504L654,508L648,517L640,521L627,523L621,522L622,527L621,533L622,537L618,540L612,541L607,538L604,540L605,548L609,550L612,548L614,552L609,554L604,560L603,568L602,572L596,572L591,577L589,583L595,590L601,592L599,600L592,605L588,615L583,619L580,624L582,633L586,639L583,639L578,637L563,636L561,630L561,623L557,624L555,620L554,610L559,606L561,601L560,596L563,588L566,577L565,572L568,570L567,567L564,565L566,562L563,559L562,549L564,548L563,538L565,530L566,523L570,520L568,513L568,506L573,501L573,495L576,488L576,481L574,480L572,467L575,460L575,454L577,447L581,441L585,437L583,434L585,432L584,421L591,418L593,411L592,409L597,403L605,405L609,410L611,404L618,405L619,406L630,417L635,418L642,423L648,425L649,428L643,438L649,440L656,441L661,440L666,435L667,429L670,428L673,432L673,437L668,441L664,443L657,450Z" fill="#E0E0E0" stroke="#fff" stroke-width=".4"/><path d="M583,642L583,665L590,665L593,665L591,669L586,672L583,672L580,671L575,668L569,667L561,661L555,655L547,644L552,646L560,653L568,656L571,652L573,645L579,641ZM577,376L580,380L581,385L584,388L582,394L586,401L588,410L592,409L593,411L591,418L584,421L585,432L583,434L585,437L581,441L577,447L575,454L575,460L572,467L574,480L576,481L576,488L573,495L573,501L568,506L568,513L570,520L566,523L565,530L563,538L564,548L562,549L563,559L566,562L564,565L567,567L568,570L565,572L566,577L563,588L560,596L561,601L559,606L554,610L555,620L557,624L561,623L561,630L563,636L578,637L583,639L578,639L575,641L570,645L569,654L566,654L560,651L553,644L545,638L543,632L545,626L542,620L541,604L544,596L550,589L541,586L547,579L549,565L555,568L559,550L555,548L553,558L549,557L551,546L553,531L556,526L554,518L553,510L556,509L560,497L564,486L566,475L565,464L567,459L566,450L569,442L571,429L572,415L574,400L574,390L573,381L576,379Z" fill="#E0E0E0" stroke="#fff" stroke-width=".4"/><path d="M565,148L565,152L565,154L563,155L565,157L565,159L561,158L558,158L554,158L551,159L548,157L549,155L554,156L559,156L561,155L558,152L558,150L554,149L556,147L559,147Z" fill="#E0E0E0" stroke="#fff" stroke-width=".4"/><path d="M565,159L565,157L563,155L565,154L565,152L565,148L565,147L570,147L574,149L575,149L576,151L580,151L579,153L582,153L585,155L583,158L580,156L577,157L575,156L574,158L572,158L571,156L569,157L566,162L565,161Z" fill="#E0E0E0" stroke="#fff" stroke-width=".4"/><path d="M1558,-606L1571,-615L1583,-596L1597,-562L1595,-532L1582,-529L1565,-538L1555,-550L1551,-574L1543,-581ZM1613,-545L1628,-527L1626,-515L1592,-504L1603,-544L1608,-547ZM1829,-456L1845,-455L1866,-442L1862,-424L1839,-425L1829,-420L1818,-435L1821,-451ZM1885,-437L1900,-430L1893,-421L1884,-423L1872,-433L1874,-440ZM1835,-393L1841,-401L1848,-403L1857,-395L1857,-389L1848,-389L1836,-391ZM1264,-590L1276,-597L1285,-597L1286,-587L1290,-596L1296,-602L1305,-594L1302,-589L1294,-584L1289,-581L1288,-575L1281,-569L1274,-578L1278,-589ZM1132,-121L1121,-121L1113,-122L1115,-127L1123,-130L1129,-128L1132,-127L1131,-124ZM1316,-401L1331,-420L1329,-430L1343,-443L1362,-459L1382,-464L1393,-473L1404,-477L1409,-466L1405,-458L1383,-446L1365,-435L1346,-413L1337,-392L1328,-372L1329,-356L1341,-341L1337,-339L1317,-342L1316,-350L1305,-355L1304,-365L1310,-369L1310,-380L1322,-398ZM1853,-115L1855,-105L1855,-95L1858,-86L1864,-69L1855,-72L1851,-59L1857,-50L1857,-44L1852,-49L1848,-43L1847,-50L1848,-58L1847,-68L1849,-75L1849,-88L1845,-97L1846,-111L1851,-115L1849,-120L1852,-122ZM-86,-310L-86,-310L-71,-298L-55,-282L-56,-272L-52,-269L-53,-280L-37,-277L-25,-263L-31,-257L-41,-256L-41,-242L-43,-239L-49,-239L-53,-244L-61,-248L-63,-254L-69,-257L-76,-255L-79,-260L-78,-265L-85,-262L-82,-255L-86,-249L-86,-249L-86,-310ZM2076,-249L2076,-249L2068,-243L2060,-244L2066,-236L2069,-225L2072,-222L2073,-216L2071,-213L2060,-216L2043,-206L2038,-204L2029,-196L2020,-188L2018,-183L2009,-191L1994,-182L1991,-186L1985,-181L1977,-182L1975,-175L1968,-164L1968,-159L1975,-156L1974,-140L1969,-140L1966,-131L1969,-127L1958,-121L1956,-110L1947,-107L1945,-97L1937,-88L1934,-95L1932,-109L1928,-132L1931,-147L1936,-154L1937,-159L1946,-161L1957,-176L1967,-188L1978,-198L1983,-216L1975,-215L1972,-204L1957,-191L1952,-206L1936,-202L1921,-181L1926,-174L1913,-171L1903,-170L1904,-178L1894,-180L1887,-174L1869,-176L1849,-173L1829,-151L1806,-125L1816,-124L1819,-118L1825,-115L1829,-120L1835,-120L1844,-109L1844,-100L1839,-90L1839,-79L1836,-64L1827,-52L1825,-45L1817,-35L1809,-26L1805,-21L1797,-16L1793,-16L1789,-20L1781,-14L1780,-11L1780,-11L1780,-13L1779,-17L1783,-17L1783,-27L1782,-34L1787,-37L1794,-35L1798,-44L1800,-53L1803,-57L1806,-65L1796,-62L1791,-59L1782,-59L1779,-67L1772,-74L1762,-76L1759,-86L1757,-92L1755,-96L1751,-106L1746,-109L1737,-112L1729,-112L1722,-110L1717,-105L1720,-103L1720,-97L1717,-94L1711,-84L1711,-80L1703,-74L1696,-78L1689,-77L1685,-80L1682,-81L1673,-74L1665,-73L1660,-71L1652,-72L1646,-72L1643,-77L1637,-81L1631,-83L1623,-81L1618,-80L1609,-84L1608,-91L1601,-93L1595,-94L1589,-98L1583,-88L1585,-83L1579,-76L1570,-78L1564,-79L1560,-83L1554,-83L1549,-86L1540,-82L1528,-74L1522,-72L1520,-71L1516,-77L1509,-76L1506,-80L1502,-82L1499,-87L1496,-89L1487,-86L1479,-92L1476,-87L1462,-112L1455,-120L1457,-123L1442,-113L1436,-113L1437,-118L1429,-122L1423,-119L1421,-130L1410,-132L1404,-128L1389,-124L1386,-121L1364,-118L1361,-114L1366,-107L1360,-105L1361,-102L1355,-97L1365,-91L1363,-86L1355,-87L1353,-84L1346,-89L1336,-89L1330,-85L1323,-88L1309,-95L1300,-95L1288,-84L1287,-78L1281,-83L1276,-73L1278,-71L1274,-64L1279,-58L1284,-58L1288,-52L1287,-48L1290,-46L1287,-41L1281,-40L1275,-31L1281,-23L1280,-17L1287,-8L1283,-5L1282,-3L1280,-3L1275,-8L1274,-8L1270,-10L1268,-13L1263,-15L1259,-14L1258,-15L1250,-19L1241,-21L1236,-22L1235,-21L1227,-28L1221,-31L1215,-36L1220,-38L1225,-45L1221,-48L1230,-52L1230,-54L1225,-52L1225,-56L1228,-59L1234,-59L1235,-62L1233,-67L1236,-72L1236,-75L1227,-78L1223,-78L1220,-82L1215,-81L1207,-84L1208,-86L1205,-90L1201,-91L1200,-94L1202,-96L1198,-101L1192,-100L1190,-101L1188,-98L1186,-99L1185,-105L1183,-108L1184,-109L1189,-109L1191,-111L1190,-114L1186,-116L1186,-117L1184,-119L1180,-126L1181,-129L1181,-134L1175,-136L1172,-135L1171,-138L1164,-141L1162,-147L1162,-152L1159,-155L1162,-158L1160,-169L1164,-176L1163,-178L1170,-184L1164,-190L1177,-206L1182,-213L1184,-220L1176,-229L1178,-238L1173,-249L1177,-261L1170,-278L1175,-290L1166,-300L1167,-312L1172,-314L1182,-320L1188,-326L1198,-316L1214,-312L1237,-293L1242,-286L1242,-276L1235,-268L1226,-264L1199,-275L1194,-273L1204,-262L1205,-256L1205,-241L1213,-237L1217,-233L1218,-240L1215,-246L1218,-251L1233,-243L1238,-246L1234,-256L1248,-271L1253,-270L1259,-265L1263,-275L1258,-284L1260,-294L1256,-304L1273,-299L1276,-290L1269,-288L1269,-279L1273,-274L1283,-277L1284,-287L1297,-294L1318,-308L1322,-308L1316,-298L1324,-296L1328,-302L1339,-302L1348,-309L1355,-299L1362,-310L1356,-320L1359,-325L1376,-320L1385,-315L1407,-296L1411,-304L1404,-313L1404,-317L1397,-319L1399,-327L1396,-341L1396,-347L1407,-364L1411,-382L1415,-386L1431,-380L1432,-369L1427,-354L1430,-348L1432,-335L1431,-311L1437,-301L1435,-290L1423,-268L1430,-266L1432,-272L1439,-276L1441,-283L1446,-291L1442,-300L1445,-311L1439,-312L1437,-322L1442,-339L1434,-354L1445,-367L1443,-382L1446,-382L1450,-371L1447,-352L1454,-349L1451,-362L1461,-370L1473,-371L1484,-360L1479,-376L1479,-398L1489,-403L1503,-402L1516,-405L1512,-416L1519,-431L1525,-432L1537,-444L1553,-447L1555,-454L1571,-456L1576,-450L1589,-464L1600,-463L1602,-475L1608,-486L1622,-497L1632,-488L1624,-482L1637,-478L1639,-465L1645,-471L1662,-471L1676,-458L1680,-449L1679,-436L1672,-429L1657,-417L1652,-410L1659,-407L1668,-401L1674,-406L1677,-392L1679,-397L1689,-401L1708,-397L1710,-387L1735,-384L1735,-400L1748,-397L1758,-397L1767,-386L1770,-373L1766,-365L1774,-350L1783,-342L1789,-362L1799,-353L1809,-358L1821,-352L1825,-358L1835,-355L1831,-373L1839,-382L1866,-376L1893,-369L1898,-357L1914,-343L1938,-347L1950,-344L1955,-336L1954,-323L1961,-318L1969,-322L1980,-322L1991,-319L2003,-321L2013,-306L2021,-311L2016,-322L2019,-330L2038,-325L2050,-326L2067,-318L2076,-310L2076,-249ZM2076,-343L2069,-342L2068,-348L2076,-356L2076,-343ZM-86,-356L-86,-356L-86,-356L-85,-356L-80,-356L-71,-351L-72,-348L-78,-344L-86,-343L-86,-343L-86,-356ZM1196,-43L1197,-45L1202,-43L1204,-43L1204,-41L1205,-41L1205,-40L1208,-38L1215,-38L1213,-35L1207,-34L1199,-29L1195,-31L1197,-35L1190,-37L1191,-39L1197,-42Z" fill="#E0E0E0" stroke="#fff" stroke-width=".4"/><path d="M521,102L524,101L528,102L528,103L521,104ZM528,100L533,103L532,108L531,107L531,104L528,101ZM526,112L528,113L530,118L530,122L528,122L527,119L524,117Z" fill="#E0E0E0" stroke="#fff" stroke-width=".4"/><path d="M714,-674L735,-704L756,-701L763,-720L785,-726L809,-723L832,-719L852,-699L870,-679L859,-661L836,-659L804,-655L807,-647L828,-652L846,-637L858,-650L863,-635L856,-611L871,-626L900,-642L918,-634L922,-617L897,-590L894,-581L875,-575L889,-574L882,-549L877,-528L877,-496L884,-478L875,-477L865,-468L876,-455L877,-434L871,-432L879,-413L866,-411L872,-402L871,-395L862,-391L854,-391L861,-377L861,-369L849,-377L846,-371L854,-366L862,-355L865,-340L854,-336L849,-343L842,-354L844,-341L837,-332L853,-331L861,-330L845,-315L829,-302L811,-296L804,-296L798,-290L790,-274L777,-263L773,-263L765,-259L756,-256L751,-247L751,-237L748,-228L738,-218L740,-208L738,-197L735,-185L726,-185L717,-194L705,-195L700,-201L696,-214L685,-230L682,-239L681,-252L673,-265L675,-276L671,-282L677,-300L686,-306L688,-313L690,-327L683,-321L680,-318L674,-316L667,-321L666,-333L669,-343L674,-343L687,-338L676,-350L671,-356L665,-354L660,-358L667,-377L663,-384L658,-399L651,-422L643,-431L643,-441L627,-455L615,-457L599,-456L584,-454L577,-462L566,-478L582,-487L594,-488L569,-496L555,-507L556,-519L579,-533L601,-549L603,-561L587,-573L592,-587L613,-614L622,-618L619,-636L633,-648L652,-655L670,-655L677,-641L693,-666L707,-649L715,-646L728,-632L714,-655Z" fill="#E0E0E0" stroke="#fff" stroke-width=".4"/><path d="M649,459L653,459L659,464L661,464L668,468L672,472L676,477L673,480L675,485L672,489L665,493L661,492L658,493L652,489L648,490L644,486L645,481L646,479L646,472L648,465Z" fill="#E0E0E0" stroke="#fff" stroke-width=".4"/><path d="M675,485L673,480L676,477L672,472L668,468L661,464L659,464L653,459L649,459L657,450L664,443L668,441L673,437L673,432L670,428L667,429L668,425L669,421L669,418L667,416L665,417L663,417L662,415L661,409L660,407L656,405L654,406L647,405L648,396L646,393L648,391L647,388L649,385L650,380L649,376L645,374L645,372L646,368L634,368L632,361L633,361L633,358L632,356L632,352L628,351L625,351L622,349L618,348L616,345L609,344L602,339L603,335L602,332L603,328L595,329L592,331L587,334L585,336L582,336L578,335L574,336L572,335L572,326L567,330L562,330L560,326L556,326L557,323L553,320L551,314L553,313L553,311L556,309L556,306L557,303L558,301L564,297L569,295L570,295L576,295L578,278L578,276L577,272L575,270L575,266L578,265L579,265L580,263L576,262L576,259L588,259L590,257L591,259L593,262L594,261L597,265L602,264L603,262L607,261L610,260L610,257L615,256L614,254L609,254L608,250L609,246L606,245L607,244L612,245L616,246L618,245L622,244L629,242L631,239L631,238L634,237L635,239L634,241L636,242L638,245L636,247L635,252L637,255L637,258L641,261L644,261L644,260L646,260L649,259L651,257L654,258L656,258L659,258L660,257L659,256L659,254L662,254L664,254L668,255L670,256L672,255L674,255L674,257L677,256L680,254L681,249L685,244L687,244L689,247L692,258L695,259L695,263L691,268L693,269L703,270L703,276L708,272L716,275L726,278L728,282L728,285L734,283L746,286L755,286L764,291L772,298L776,300L781,300L784,302L786,310L787,313L784,323L781,327L773,336L769,343L764,348L763,348L761,353L762,364L760,374L759,378L758,381L756,389L750,397L749,404L744,407L743,411L737,411L727,413L723,416L716,418L709,423L704,430L703,435L704,439L703,445L702,449L697,453L691,465L686,470L681,474L679,480Z" fill="#E0E0E0" stroke="#fff" stroke-width=".4"/><path d="M578,335L582,336L585,336L587,334L592,331L595,329L603,328L602,332L603,335L602,339L609,344L616,345L618,348L622,349L625,351L628,351L632,352L632,356L633,358L633,361L632,361L634,368L646,368L645,372L645,374L649,376L650,380L649,385L647,388L648,391L646,393L646,391L640,387L635,387L624,389L621,395L621,398L619,406L618,405L611,404L609,410L605,405L597,403L592,409L588,410L586,401L582,394L584,388L581,385L580,380L577,376L581,369L579,364L580,362L579,360L581,357L581,351L582,347L583,345Z" fill="#E0E0E0" stroke="#fff" stroke-width=".4"/><path d="M576,295L570,295L569,295L564,297L558,301L557,303L556,306L556,309L553,311L553,313L551,314L553,320L557,323L556,326L560,326L562,330L567,330L572,326L572,335L574,336L578,335L583,345L582,347L581,351L581,357L579,360L580,362L579,364L581,369L577,376L576,379L573,381L567,377L566,375L554,369L543,362L539,358L536,353L537,351L532,343L526,332L521,319L518,317L516,312L512,308L507,306L509,303L506,297L508,293L513,289L514,292L512,293L512,296L515,295L517,296L520,299L523,296L524,292L528,287L535,285L542,278L543,274L543,270L544,269L548,272L550,275L553,277L556,283L561,284L564,282L566,283L570,283L575,285L571,291L573,292Z" fill="#E0E0E0" stroke="#fff" stroke-width=".4"/><path d="M594,261L593,262L591,259L590,257L588,259L576,259L576,262L580,263L579,265L578,265L575,266L575,270L577,272L578,276L578,278L576,295L573,292L571,291L575,285L570,283L566,283L564,282L561,284L556,283L553,277L550,275L548,272L544,269L543,270L540,268L537,266L535,267L530,267L529,264L528,264L522,261L521,259L523,258L523,255L524,253L527,253L530,249L532,246L530,244L531,241L530,235L531,234L530,229L528,225L528,223L530,223L531,221L530,218L531,217L534,217L538,213L541,212L541,210L542,205L545,202L549,202L550,201L554,201L559,198L561,197L564,194L566,194L568,196L567,198L563,199L562,202L559,204L557,206L557,210L555,214L558,214L559,217L560,218L561,221L560,223L560,224L562,225L563,227L571,226L574,227L579,232L581,232L585,232L589,231L591,232L590,236L588,238L588,242L589,246L591,248L591,249L588,252L590,253L592,255Z" fill="#E0E0E0" stroke="#fff" stroke-width=".4"/><path d="M531,217L530,218L531,221L530,223L528,223L528,225L526,224L524,220L526,219L524,218L523,216L520,215L518,215L516,217L514,219L513,219L512,220L515,224L513,224L512,225L510,225L508,222L508,223L506,223L505,220L502,220L500,219L498,219L498,220L497,219L497,218L498,217L498,216L499,215L497,214L497,212L500,211L502,213L502,215L504,215L505,215L506,216L509,216L512,214L515,213L517,211L521,211L521,212L524,212L527,213L528,215Z" fill="#E0E0E0" stroke="#fff" stroke-width=".4"/><path d="M500,211L497,212L497,214L499,215L498,216L498,217L497,218L497,219L494,218L493,217L493,216L493,214L491,213L489,212L487,211L487,209L485,208L485,210L484,211L483,210L481,209L480,208L480,206L481,204L479,203L481,202L481,201L485,203L487,202L489,203L490,204L491,204L493,203L494,206L497,209Z" fill="#E0E0E0" stroke="#fff" stroke-width=".4"/><path d="M493,203L491,204L490,204L489,203L487,202L485,203L481,201L481,202L478,200L476,198L474,195L472,194L469,191L469,190L470,191L471,190L473,190L474,189L474,189L474,186L476,185L477,185L478,184L480,185L481,184L482,184L484,182L484,181L485,181L485,179L486,179L487,180L488,180L489,179L491,179L493,179L494,178L496,178L495,178L495,180L496,182L494,184L494,187L494,189L494,191L494,194L493,194L493,197L493,199L492,200L492,202Z" fill="#E0E0E0" stroke="#fff" stroke-width=".4"/><path d="M496,178L494,178L493,179L491,179L489,179L488,180L487,180L486,179L485,179L485,181L484,181L484,182L482,184L481,184L480,185L478,184L477,185L476,185L474,186L474,189L474,189L473,190L471,190L470,188L468,188L468,185L468,185L466,184L464,185L464,184L462,183L460,182L459,181L460,180L459,179L460,177L463,176L465,173L466,174L467,172L469,172L470,173L471,173L473,173L476,173L478,172L479,172L481,172L482,172L484,172L485,172L488,173L489,173L490,174L492,175L494,176Z" fill="#E0E0E0" stroke="#fff" stroke-width=".4"/><path d="M459,181L460,182L462,183L464,184L464,185L466,184L468,185L468,185L468,188L467,189L464,189L462,189L459,187L456,187L454,186L454,185L456,183L458,183L457,182Z" fill="#E0E0E0" stroke="#fff" stroke-width=".4"/><path d="M441,181L442,179L442,177L441,176L444,171L452,171L452,169L451,169L451,167L448,166L446,164L449,164L449,160L454,160L460,160L460,165L459,172L461,172L463,173L464,173L465,173L463,176L460,177L459,179L460,180L459,181L457,182L458,183L456,183L454,185L454,186L451,185L447,184L445,183Z" fill="#E0E0E0" stroke="#fff" stroke-width=".4"/><path d="M460,160L460,159L461,159L462,160L464,156L465,156L465,157L466,157L466,159L465,161L466,162L465,165L465,165L465,168L464,170L462,170L461,172L459,172L460,165Z" fill="#E0E0E0" stroke="#fff" stroke-width=".4"/><path d="M631,238L631,239L629,242L622,244L618,245L616,246L612,245L607,244L606,245L609,246L608,250L609,254L614,254L615,256L610,257L610,260L607,261L603,262L602,264L597,265L594,261L592,255L590,253L588,252L591,249L591,248L589,246L588,242L588,238L590,236L591,232L589,231L585,232L581,232L579,232L574,227L571,226L563,227L562,225L560,224L560,223L561,221L560,218L559,217L558,214L555,214L557,210L557,206L559,204L562,202L563,199L567,198L567,199L563,200L565,203L565,206L562,209L565,214L567,214L569,209L567,207L566,203L574,200L573,197L575,195L577,200L582,200L586,203L586,205L591,205L598,205L601,207L606,208L609,206L609,205L616,204L624,204L619,206L621,209L625,209L630,212L631,217L634,217L636,219L632,222L631,224L633,227L632,228L628,229L628,231L626,233Z" fill="#E0E0E0" stroke="#fff" stroke-width=".4"/><path d="M656,258L654,258L651,257L649,259L646,260L644,260L644,261L641,261L637,258L637,255L635,252L636,247L638,245L636,242L634,241L635,239L634,237L631,238L626,233L628,231L628,229L632,228L633,227L631,224L632,222L636,219L640,221L644,225L644,228L646,228L650,231L652,233L651,238L647,240L648,241L647,245L649,249L651,249L652,252Z" fill="#E0E0E0" stroke="#fff" stroke-width=".4"/><path d="M668,255L664,254L662,254L659,254L659,256L660,257L659,258L656,258L652,252L651,249L649,249L647,245L648,241L647,240L651,238L652,233L659,234L660,233L665,233L671,234L668,240L669,244L671,247L670,250L669,253Z" fill="#E0E0E0" stroke="#fff" stroke-width=".4"/><path d="M685,244L681,249L680,254L677,256L674,257L674,255L672,255L670,256L668,255L669,253L670,250L671,247L669,244L668,240L671,234L673,235L678,236L684,242ZM1032,-74L1035,-71L1044,-70L1041,-63L1040,-57L1038,-55L1036,-56L1036,-54L1031,-49L1031,-45L1034,-47L1036,-43L1036,-40L1038,-37L1036,-34L1037,-28L1041,-27L1040,-23L1034,-19L1023,-21L1014,-18L1013,-13L1006,-12L999,-16L997,-14L986,-18L984,-21L987,-26L988,-43L982,-52L977,-57L968,-60L968,-67L975,-69L985,-66L984,-77L989,-73L1003,-80L1005,-88L1010,-90L1011,-86L1014,-86L1017,-82L1021,-78L1024,-79L1029,-74L1031,-74ZM1048,-14L1052,-18L1053,-11L1051,-4L1048,-6L1046,-11Z" fill="#E0E0E0" stroke="#fff" stroke-width=".4"/><path d="M543,270L543,274L542,278L535,285L528,287L524,292L523,296L520,299L517,296L515,295L512,296L512,293L514,292L513,289L516,285L515,282L513,285L509,282L510,281L509,275L511,274L512,271L515,267L514,264L518,263L522,261L528,264L529,264L530,267L535,267L537,266L540,268Z" fill="#E0E0E0" stroke="#fff" stroke-width=".4"/><path d="M597,156L600,156L601,158L600,159L595,159L592,159L591,157L592,156Z" fill="#E0E0E0" stroke="#fff" stroke-width=".4"/><path d="M529,156L533,157L537,158L538,160L533,160L532,161L528,160L525,158L526,156L528,156Z" fill="#E0E0E0" stroke="#fff" stroke-width=".4"/><path d="M501,126L506,126L511,126L517,129L519,131L525,130L527,132L532,136L536,139L538,139L541,140L541,142L545,142L550,145L549,146L545,147L541,147L537,147L528,147L532,144L530,142L526,142L524,140L523,136L519,136L514,135L512,133L504,132L502,131L504,129L498,129L494,132L491,133L491,134L488,135L485,134L488,132L489,130L492,128L495,127L500,126Z" fill="#E0E0E0" stroke="#fff" stroke-width=".4"/><path d="M895,187L892,182L889,180L892,178L895,174L896,171L898,169L901,169L904,168L908,168L911,170L914,171L918,176L922,180L922,184L924,188L926,189L926,192L926,194L925,194L922,194L921,194L920,194L916,193L913,193L902,193L900,193L898,193L895,194L894,189L900,189L901,189L902,189L904,187L907,188L909,189L912,187L911,185L909,186L907,186L905,185L903,185L901,186Z" fill="#E0E0E0" stroke="#fff" stroke-width=".4"/><path d="M926,194L926,192L926,189L924,188L922,184L922,180L924,179L925,175L927,175L931,177L935,176L937,176L938,175L962,175L963,170L962,170L959,142L956,114L966,114L986,128L1006,142L1008,145L1011,147L1014,148L1014,152L1021,152L1021,166L1018,170L1017,174L1012,175L1003,176L1001,178L997,178L994,178L992,177L989,178L983,181L982,183L977,185L977,187L974,188L971,187L969,189L969,193L964,198L964,200L962,203L963,206L960,207L959,208L958,205L956,206L955,206L954,208L949,208L948,207L947,207L945,206L945,204L945,203L943,204L944,202L945,200L942,198L942,196L940,194L939,194L938,195L936,196L934,197L932,197L930,195L929,195L927,196L926,196Z" fill="#E0E0E0" stroke="#fff" stroke-width=".4"/><path d="M893,140L894,138L918,138L916,128L918,125L924,125L923,108L943,108L943,98L966,114L956,114L959,142L962,170L963,170L962,175L938,175L937,176L935,176L931,177L927,175L925,175L924,179L922,180L918,176L914,171L911,170L908,168L904,168L901,169L898,169L896,171L896,167L897,164L898,158L898,152L897,149L897,146L896,143Z" fill="#E0E0E0" stroke="#fff" stroke-width=".4"/><path d="M1011,231L1006,232L1005,228L1005,214L1004,213L1004,210L1002,208L1000,206L1001,203L1003,202L1004,199L1007,199L1008,197L1010,195L1012,195L1017,198L1017,201L1018,204L1017,207L1017,208L1015,212L1013,214L1012,218L1012,222Z" fill="#E0E0E0" stroke="#fff" stroke-width=".4"/><path d="M1084,128L1086,138L1088,140L1088,142L1091,144L1089,147L1087,160L1087,168L1079,174L1076,182L1079,184L1079,188L1083,188L1082,191L1081,191L1080,193L1079,194L1075,187L1074,187L1069,190L1064,188L1061,188L1059,189L1056,189L1052,191L1049,191L1042,188L1039,190L1036,190L1034,187L1028,185L1021,186L1020,187L1019,191L1017,193L1017,198L1012,195L1010,195L1008,197L1008,193L1001,191L1001,188L998,184L997,181L997,178L1001,178L1003,176L1012,175L1017,174L1018,170L1021,166L1021,152L1029,149L1047,136L1067,124L1077,127L1080,130Z" fill="#E0E0E0" stroke="#fff" stroke-width=".4"/><path d="M1001,203L1000,206L1002,208L1004,210L1004,213L1005,214L1005,228L1006,232L1002,233L1000,231L999,227L998,224L999,219L998,217L997,212L997,207L995,204L995,202Z" fill="#E0E0E0" stroke="#fff" stroke-width=".4"/><path d="M995,202L995,204L997,207L997,212L998,217L999,219L998,224L999,227L1000,231L1002,233L992,237L989,239L983,241L978,239L978,237L976,231L977,225L980,219L978,211L977,206L978,203L988,202L991,203L993,202Z" fill="#E0E0E0" stroke="#fff" stroke-width=".4"/><path d="M947,207L948,207L949,208L954,208L955,206L956,206L958,205L959,208L960,207L963,206L965,208L966,210L969,211L971,209L974,209L978,211L980,219L977,225L976,231L978,237L978,239L975,239L971,238L967,238L960,239L956,241L950,243L949,243L949,238L950,237L950,235L947,232L945,232L944,230L945,227L944,224L944,223L945,223L946,220L945,219L946,218L948,217L947,212L945,210L946,208Z" fill="#E0E0E0" stroke="#fff" stroke-width=".4"/><path d="M913,193L916,193L920,194L921,194L922,194L925,194L926,194L926,196L927,196L929,195L930,195L932,197L934,197L936,196L938,195L939,194L940,194L942,196L942,198L945,200L944,202L943,204L945,203L945,204L945,206L947,207L946,208L945,210L947,212L948,217L946,218L945,219L946,220L945,223L944,223L943,223L942,225L940,225L939,224L939,221L937,217L935,218L934,218L932,219L932,216L931,215L931,213L930,211L928,208L924,208L922,209L921,210L920,211L919,213L916,215L913,212L911,209L909,209L908,207L907,205L906,203L904,202L907,199L909,199L910,198L912,198L913,198L912,196L913,195Z" fill="#E0E0E0" stroke="#fff" stroke-width=".4"/><path d="M895,194L898,193L900,193L902,193L913,193L913,195L912,196L913,198L912,198L910,198L909,199L907,199L904,202L901,200L899,199L897,198L897,197L895,195Z" fill="#E0E0E0" stroke="#fff" stroke-width=".4"/><path d="M944,223L944,224L945,227L944,230L945,232L947,232L950,235L950,237L949,238L949,243L947,243L941,240L936,235L931,232L926,228L928,226L928,224L931,221L934,218L935,218L937,217L939,221L939,224L940,225L942,225L943,223Z" fill="#E0E0E0" stroke="#fff" stroke-width=".4"/><path d="M916,215L919,213L920,211L921,210L922,209L924,208L928,208L930,211L931,213L931,215L932,216L932,219L934,218L931,221L928,224L928,226L926,228L925,228L921,225L917,222L916,220Z" fill="#E0E0E0" stroke="#fff" stroke-width=".4"/><path d="M963,206L962,203L964,200L964,198L969,193L969,189L971,187L974,188L977,187L977,185L982,183L983,181L989,178L992,177L994,178L997,178L997,181L998,184L1001,188L1001,191L1008,193L1008,197L1007,199L1004,199L1003,202L1001,203L995,202L993,202L991,203L988,202L978,203L977,206L978,211L974,209L971,209L969,211L966,210L965,208Z" fill="#E0E0E0" stroke="#fff" stroke-width=".4"/><path d="M895,187L901,186L903,185L905,185L907,186L909,186L911,185L912,187L909,189L907,188L904,187L902,189L901,189L900,189L894,189Z" fill="#E0E0E0" stroke="#fff" stroke-width=".4"/><path d="M943,98L943,97L943,96L943,88L953,83L959,82L964,80L966,77L973,74L973,69L977,68L979,65L987,64L988,61L987,60L985,52L984,48L982,43L988,39L994,38L998,35L1004,32L1014,31L1024,31L1027,32L1033,29L1039,29L1042,30L1046,30L1045,34L1045,41L1044,47L1040,51L1041,56L1046,61L1046,62L1050,65L1052,78L1054,84L1054,87L1053,93L1054,96L1053,100L1053,104L1051,107L1055,111L1055,114L1057,118L1060,117L1065,120L1067,124L1047,136L1029,149L1021,152L1014,152L1014,148L1011,147L1008,145L1006,142L986,128L966,114Z" fill="#E0E0E0" stroke="#fff" stroke-width=".4"/><path d="M941,-8L943,-10L946,-12L947,-8L951,-8L952,-9L955,-8L957,-4L954,-2L954,4L953,5L953,9L950,9L953,14L951,19L953,21L952,23L950,26L950,29L948,31L945,30L942,31L943,25L942,20L939,19L938,16L938,11L941,8L941,5L943,1L942,-3L941,-6Z" fill="#E0E0E0" stroke="#fff" stroke-width=".4"/><path d="M950,29L950,26L952,23L953,21L951,19L953,14L950,9L953,9L953,5L954,4L954,-2L957,-4L955,-8L952,-9L951,-8L947,-8L946,-12L943,-10L941,-8L941,-14L939,-18L947,-24L955,-22L963,-22L969,-21L974,-21L984,-21L986,-18L997,-14L999,-16L1006,-12L1013,-13L1013,-9L1008,-3L1000,-1L1000,1L996,6L993,12L996,16L992,20L991,25L987,26L982,32L975,32L969,32L965,35L963,37L960,37L958,34L956,30Z" fill="#E0E0E0" stroke="#fff" stroke-width=".4"/><path d="M958,-116L959,-109L954,-100L944,-95L935,-96L940,-106L937,-117L945,-125L950,-129L951,-124L950,-118L953,-119Z" fill="#E0E0E0" stroke="#fff" stroke-width=".4"/><path d="M958,-116L953,-119L950,-118L951,-124L950,-129L955,-130L961,-123ZM977,-112L977,-112L977,-118L973,-124L973,-124L966,-126L965,-129L967,-133L965,-136L962,-131L961,-142L958,-147L960,-159L965,-168L970,-167L977,-168L971,-156L977,-157L983,-157L982,-148L976,-138L983,-138L983,-137L988,-124L993,-123L996,-111L998,-107L1005,-105L1005,-99L1001,-96L1004,-91L998,-86L990,-86L980,-83L977,-85L973,-81L968,-82L964,-78L960,-80L969,-90L975,-92L975,-92L965,-94L964,-98L970,-101L967,-106L968,-113Z" fill="#E0E0E0" stroke="#fff" stroke-width=".4"/><path d="M646,393L648,396L647,405L654,406L656,405L660,407L661,409L662,415L663,417L665,417L667,416L669,418L669,421L668,425L667,429L666,435L661,440L656,441L649,440L643,438L649,428L648,425L642,423L635,418L630,417L619,406L621,398L621,395L624,389L635,387L640,387L646,391Z" fill="#E0E0E0" stroke="#fff" stroke-width=".4"/><path d="M982,43L984,48L985,52L987,60L988,61L987,64L979,65L977,68L973,69L973,74L966,77L964,80L959,82L953,83L943,88L943,96L942,96L942,100L939,100L937,101L934,101L932,101L927,101L925,107L923,107L920,115L912,122L910,131L907,134L907,137L893,137L893,137L893,134L896,132L898,129L897,127L899,122L903,118L905,117L906,113L906,110L908,106L912,103L916,96L916,96L919,93L925,93L930,88L933,86L938,80L936,72L939,66L939,62L943,57L949,54L954,51L958,43L960,39L964,39L968,42L973,41L980,43Z" fill="#E0E0E0" stroke="#fff" stroke-width=".4"/><path d="M625,204L628,203L630,203L629,208L624,209L623,208L625,206Z" fill="#E0E0E0" stroke="#fff" stroke-width=".4"/></g><g clip-path="url(#v)"><path d="M291.9,62.2L293.7,62.1L295.4,61.9L297.1,61.7L298.8,61.6L300.5,61.4L302.2,61.3L304.0,61.1L305.7,61.0L306.4,60.9L306.0,62.0L305.7,62.4L308.6,63.4L311.4,64.5L314.2,65.5L317.1,66.6L319.9,67.6L322.8,68.7L325.6,69.7L328.5,70.7L330.6,70.7L332.7,70.7L334.8,70.7L337.0,70.7L339.1,70.7L341.2,70.7L343.3,70.7L345.5,70.7L345.5,69.9L345.5,69.1L345.5,68.3L345.5,67.5L346.8,67.6L348.1,67.6L349.4,67.6L350.7,67.6L352.1,67.6L353.4,67.6L354.7,67.6L356.0,67.6L356.1,67.6L356.1,67.7L356.7,68.3L357.2,69.2L357.9,69.9L358.6,70.2L359.9,71.3L361.7,73.2L363.1,74.4L364.2,75.0L364.9,75.5L365.3,75.9L365.7,76.9L366.7,79.1L366.7,80.1L367.0,81.0L367.7,82.2L368.4,82.9L368.9,83.2L369.5,83.6L370.1,84.2L370.8,84.7L371.6,84.9L372.8,85.5L374.2,86.4L375.2,86.9L375.8,86.9L376.2,86.6L376.6,86.0L377.0,85.6L377.4,85.4L377.6,85.1L377.5,84.7L377.8,83.8L378.4,82.5L379.1,81.7L379.9,81.6L380.4,81.3L380.7,80.9L381.2,80.9L381.8,81.2L382.8,81.4L384.3,81.5L385.1,81.5L385.4,81.3L385.5,81.3L385.5,81.5L385.7,81.6L386.1,81.5L386.5,81.8L387.0,82.5L388.5,83.7L388.7,84.1L389.2,84.7L390.2,85.6L390.8,86.4L391.0,87.1L391.5,88.1L392.4,89.5L392.8,90.3L392.7,90.4L392.8,90.8L393.0,91.5L393.5,92.1L394.1,92.6L394.8,93.4L395.4,94.6L396.2,95.6L397.2,96.2L397.7,96.8L397.9,97.3L397.9,97.8L397.7,98.2L397.8,98.6L398.0,98.9L398.1,99.3L398.0,99.9L398.0,100.1L398.1,100.2L399.0,101.3L399.4,102.1L399.7,103.4L399.7,103.4L400.1,104.2L400.7,104.5L401.5,104.7L402.2,104.9L402.6,105.4L403.2,105.6L403.9,105.7L404.5,106.0L405.1,106.5L406.3,106.8L408.0,106.9L409.3,107.3L410.1,107.9L410.5,108.1L410.6,108.1L410.7,108.0L410.8,107.8L411.1,107.6L411.9,107.5L411.8,108.8L411.4,110.0L410.3,112.3L409.7,113.8L408.8,117.9L408.5,120.6L408.4,121.9L408.3,122.0L408.4,122.2L408.2,125.0L408.3,127.4L408.2,127.7L407.9,128.5L407.6,129.4L407.7,129.9L407.7,130.2L408.1,131.7L408.2,132.8L409.3,134.7L409.9,135.4L410.6,136.0L410.9,136.3L410.8,137.1L410.5,137.5L410.3,138.2L410.2,137.7L410.2,137.0L410.5,136.6L410.5,136.3L410.0,136.0L409.2,135.0L408.3,133.3L409.0,136.1L409.2,136.5L409.4,136.7L409.7,136.9L409.8,137.2L409.8,137.4L410.6,139.3L411.6,141.2L411.7,141.8L412.1,142.4L414.5,145.2L416.0,147.2L416.6,149.1L416.9,149.7L417.1,150.6L418.1,151.5L418.4,152.1L418.9,152.4L419.3,153.4L420.1,154.0L419.9,154.0L419.2,153.7L419.3,153.9L419.9,154.3L421.0,154.7L421.3,154.7L420.9,154.5L420.5,154.2L420.6,154.2L421.4,154.5L423.7,154.6L424.7,155.5L426.0,155.8L426.7,156.9L427.5,158.0L428.0,158.0L428.5,158.0L429.7,157.8L431.6,157.1L432.2,156.8L433.5,156.3L435.4,156.3L436.0,156.4L437.5,156.1L438.2,155.8L438.4,155.4L438.5,155.2L439.9,154.9L440.2,154.8L441.5,154.7L442.2,154.6L443.0,154.5L443.5,155.0L443.5,155.3L443.1,155.5L443.3,155.7L444.0,156.1L445.2,156.2L445.6,156.2L446.2,155.6L447.2,155.1L447.1,154.5L447.0,154.2L446.7,154.1L446.6,154.0L446.8,153.5L446.8,153.4L446.1,153.8L446.0,153.8L446.1,153.6L446.2,153.4L448.0,152.5L448.5,152.1L449.1,151.8L450.4,150.5L450.6,148.1L450.9,147.7L451.8,146.9L451.9,146.7L451.9,146.2L451.9,144.9L451.9,143.9L451.9,142.8L452.1,141.8L452.2,141.5L452.7,139.9L453.7,139.2L455.5,138.3L455.9,138.2L461.5,137.3L462.3,137.1L463.3,136.5L464.0,136.3L465.3,136.3L465.7,136.2L465.8,136.1L465.8,136.1L466.0,136.0L466.8,136.1L468.2,136.4L468.7,136.5L470.0,136.9L471.3,137.1L471.5,137.0L471.7,136.9L471.8,136.6L471.7,136.4L471.6,136.4L471.3,136.6L471.1,136.6L470.5,136.4L470.6,136.3L471.2,136.3L471.5,136.2L472.0,136.0L472.6,136.1L473.4,137.0L473.9,137.2L473.9,138.5L474.0,138.7L474.2,139.0L473.9,139.9L473.6,140.7L473.3,141.3L472.5,142.3L471.5,143.1L470.3,144.9L470.0,145.7L470.0,146.4L470.2,147.0L470.2,147.2L470.0,147.5L469.8,147.5L469.3,147.8L468.7,148.7L468.7,149.0L469.0,149.2L469.3,149.1L469.8,149.1L470.0,149.0L470.3,149.0L470.2,149.5L469.9,149.9L469.8,150.0L469.4,150.1L469.1,150.3L468.9,150.5L468.9,151.1L469.1,151.1L469.5,150.7L469.8,150.7L469.8,150.9L469.3,152.4L468.9,154.0L468.4,154.9L468.2,156.2L468.0,156.8L467.7,157.4L467.5,157.3L467.1,156.3L466.6,156.0L466.5,155.8L466.8,154.5L466.6,153.8L466.4,153.8L466.1,154.2L465.6,154.5L465.6,155.0L465.2,155.8L465.0,156.1L464.6,156.0L464.1,156.1L463.7,156.2L463.3,157.2L462.4,158.6L462.0,159.3L461.7,159.5L461.4,159.6L461.2,159.4L460.5,159.1L460.0,159.3L459.8,159.7L459.9,160.2L458.6,160.2L456.4,160.2L453.7,160.2L451.1,160.2L448.9,160.2L448.9,161.5L448.9,162.5L448.9,163.8L447.6,163.8L446.3,163.7L446.5,163.9L446.9,164.1L447.5,164.7L448.1,165.5L449.0,166.2L449.9,166.7L450.5,167.2L450.8,167.7L451.0,168.1L451.0,168.4L451.4,168.7L452.0,168.9L452.3,169.2L452.3,169.4L452.1,170.0L452.1,170.6L452.1,171.2L451.7,171.2L450.6,171.2L448.9,171.2L447.4,171.2L446.2,171.2L444.4,171.2L443.9,172.0L443.1,173.5L442.3,174.8L441.7,175.9L441.6,176.1L441.6,176.4L442.4,177.4L442.2,177.7L441.9,177.8L441.9,178.1L441.9,178.5L441.7,179.0L441.7,179.3L441.9,179.8L441.7,180.2L441.6,180.5L441.4,180.7L441.2,180.5L439.6,178.8L437.9,177.0L437.3,176.4L436.7,175.9L435.8,175.1L433.6,173.2L432.4,172.3L431.3,171.3L430.3,170.7L429.4,170.3L428.9,170.1L428.6,169.8L428.3,169.8L428.2,170.2L428.6,170.4L429.0,170.6L429.3,170.6L429.6,170.7L430.6,171.2L430.8,171.5L428.0,170.5L426.8,170.4L426.7,170.2L427.3,169.7L427.1,169.5L426.9,169.4L426.3,169.8L426.1,169.8L426.0,169.6L426.0,169.3L425.6,169.0L425.4,169.0L425.2,169.2L424.6,169.7L424.7,169.9L425.7,170.1L426.1,170.2L426.0,170.3L425.1,170.3L424.0,170.5L422.0,171.8L420.2,172.3L417.5,173.5L416.3,173.6L415.7,173.8L413.9,173.3L411.7,172.2L408.3,171.8L406.0,170.3L403.7,169.7L402.2,168.3L401.3,168.2L400.8,168.0L398.7,167.5L396.6,167.1L394.6,165.9L393.3,165.5L392.2,165.0L389.7,164.1L388.8,163.6L387.9,162.9L386.5,162.1L385.9,161.5L385.2,161.3L384.2,160.1L383.7,159.6L383.3,159.3L382.8,159.2L381.5,159.3L379.5,158.8L378.6,158.7L376.7,157.9L374.1,157.0L373.3,156.0L372.6,155.1L371.3,153.8L370.5,153.3L369.1,152.7L368.3,152.2L367.1,151.8L365.1,150.8L364.5,149.9L364.1,149.2L363.0,148.2L361.9,146.5L361.6,145.9L361.3,144.9L361.1,144.3L360.7,143.9L360.9,143.6L361.5,143.2L362.5,143.1L363.2,142.7L363.3,142.3L363.2,142.1L362.8,141.5L362.2,141.4L361.8,141.4L361.7,141.2L362.0,141.0L362.4,140.4L362.9,139.8L363.3,139.2L363.4,138.3L363.3,137.5L363.5,136.8L362.2,136.0L362.0,135.6L361.6,134.7L360.9,133.6L360.9,131.4L360.0,129.4L359.1,128.5L358.6,128.1L357.3,126.6L356.3,125.7L355.4,124.1L354.4,123.0L353.1,121.2L352.2,120.3L348.2,117.4L348.4,117.4L349.6,118.1L349.8,118.0L349.8,117.7L349.7,117.2L349.5,117.1L349.1,117.2L348.7,117.1L348.5,117.0L347.9,116.9L347.0,116.4L346.7,115.9L346.7,115.3L345.5,114.0L345.1,113.3L345.3,113.4L345.6,113.7L345.9,113.7L346.3,113.7L346.5,113.6L346.4,113.4L346.2,113.2L344.5,112.6L343.9,112.1L342.6,111.3L342.2,111.0L342.0,110.3L341.7,110.3L341.4,110.5L340.6,110.7L340.4,110.4L340.3,110.2L340.9,109.9L341.4,109.2L341.4,109.0L341.1,109.3L340.7,109.6L340.2,109.8L339.6,109.9L339.2,109.8L338.9,109.7L338.4,109.0L338.2,107.0L338.6,106.3L339.1,105.6L339.6,105.2L339.8,105.5L340.0,105.5L339.9,105.2L339.4,104.8L339.3,104.5L339.3,104.2L339.1,103.6L337.8,102.4L336.7,102.5L336.2,102.5L335.8,102.0L335.4,101.3L335.2,100.6L335.2,100.3L335.1,100.0L333.1,99.4L332.5,98.9L331.9,98.3L331.6,97.8L331.4,97.5L331.2,96.8L331.0,96.1L331.3,95.1L331.6,94.7L330.2,94.3L329.7,94.3L329.2,94.5L328.8,94.2L328.0,93.9L327.0,92.9L325.9,91.1L324.7,90.5L324.2,89.9L323.7,89.3L323.3,88.6L323.2,88.3L323.1,88.1L322.5,87.6L321.8,86.8L321.6,86.1L321.4,85.0L320.9,84.7L320.5,84.5L320.4,84.0L320.4,83.7L320.3,83.2L319.3,81.9L318.8,80.9L318.5,80.6L318.3,80.1L318.2,79.1L317.8,77.9L317.0,76.5L316.4,75.5L316.1,74.5L316.2,73.5L316.1,72.8L316.0,72.7L316.1,72.5L316.3,72.6L316.5,72.4L316.4,71.8L316.2,71.6L315.6,71.4L315.3,71.2L313.8,71.0L313.0,70.6L312.9,69.7L312.5,69.4L312.2,69.1L311.0,68.6L310.8,68.9L310.7,69.3L310.2,69.4L309.8,69.5L309.1,69.1L307.4,67.9L307.1,67.7L306.5,67.6L306.3,67.4L305.1,66.7L305.4,67.0L305.7,67.4L306.0,68.5L305.6,69.2L305.4,71.9L305.7,72.5L306.2,73.3L306.5,74.7L306.6,75.7L306.9,76.5L306.8,78.3L306.9,78.9L307.4,79.8L308.3,80.7L308.5,81.2L309.6,81.8L310.4,82.7L311.8,83.9L312.2,84.4L313.4,86.2L313.5,86.7L313.7,87.4L314.4,87.3L314.8,87.8L314.7,88.0L314.8,88.2L315.2,88.1L315.5,88.3L316.2,90.2L316.5,90.5L317.0,90.6L317.5,90.8L317.5,91.3L317.5,91.7L318.0,92.3L317.9,93.1L318.2,93.8L318.2,94.4L318.3,94.9L319.4,96.1L320.7,97.0L321.0,98.1L321.6,99.2L322.1,99.5L322.7,100.0L322.6,100.4L322.7,100.7L323.4,101.6L323.6,102.7L324.2,103.4L324.4,103.4L324.5,103.3L324.1,102.6L323.8,102.1L323.8,101.4L324.0,101.3L325.3,102.5L325.5,103.3L325.9,103.8L325.9,104.5L326.2,104.9L326.3,105.4L326.7,106.4L326.8,107.7L327.0,108.6L327.8,110.1L328.5,110.4L328.7,111.1L329.4,112.9L330.2,113.9L330.6,114.7L330.7,115.3L330.4,116.0L330.3,116.6L330.8,118.2L331.4,119.0L332.2,119.3L332.3,119.4L332.3,119.6L332.5,119.8L332.8,119.5L333.0,119.2L332.8,118.7L332.8,118.4L332.9,118.2L333.2,118.2L334.6,119.3L334.8,119.7L335.4,120.2L335.9,120.9L336.1,121.3L336.5,121.8L336.7,122.7L337.7,123.1L338.2,123.9L338.3,124.4L338.0,125.6L337.8,126.0L337.0,126.5L336.4,127.1L335.8,127.5L335.2,127.7L334.7,127.7L334.2,127.0L333.7,124.8L333.3,124.3L333.0,123.6L332.6,123.0L330.9,122.2L330.1,121.3L329.4,120.7L328.5,119.8L326.2,118.3L325.3,117.5L324.6,116.8L324.2,116.8L323.9,116.9L323.8,116.7L323.8,116.3L323.6,116.0L322.3,114.9L322.0,114.3L322.0,113.6L322.3,111.7L322.4,110.6L322.3,110.0L322.2,110.0L322.0,109.7L322.0,108.8L321.7,107.8L320.5,105.8L319.6,105.4L318.8,105.1L316.6,103.3L316.0,102.4L315.9,101.9L315.8,100.9L315.5,101.5L315.1,101.9L314.2,101.9L313.1,102.4L312.5,101.9L312.2,101.4L311.7,100.7L311.1,100.6L310.7,100.6L310.1,99.8L309.5,99.5L308.7,99.4L308.0,99.0L307.8,98.6L307.7,98.0L307.5,97.6L306.4,96.9L305.6,96.0L304.8,95.5L304.5,95.1L304.5,94.8L305.8,94.9L307.3,95.2L308.0,95.1L308.5,94.8L308.9,94.6L309.0,94.8L308.9,95.3L309.3,95.6L309.9,96.0L310.3,95.9L309.9,95.6L309.7,94.9L309.8,94.6L309.8,94.3L309.2,94.3L309.1,94.2L309.6,93.6L310.2,92.2L310.4,90.8L309.9,89.6L308.9,88.7L306.7,86.2L305.5,85.0L305.1,84.5L304.8,84.3L303.7,84.0L302.9,83.2L301.3,82.2L300.7,81.7L300.2,80.4L299.9,80.3L300.0,79.4L299.8,77.9L299.6,77.5L298.7,77.1L298.5,76.1L298.5,75.1L298.3,74.4L296.9,73.2L296.9,72.7L296.9,72.1L296.7,71.6L296.0,70.5L295.0,69.5L294.7,69.1L294.7,68.1L294.4,67.9L294.5,67.8L294.8,67.8L295.0,67.7L295.0,67.0L293.6,66.0L293.2,64.6L292.5,63.8L292.3,63.5ZM473.2,144.4L472.9,144.6L472.7,143.9L473.0,143.2L473.3,142.8L473.9,142.8L474.3,142.7L474.3,142.8L474.0,143.4ZM355.7,136.0L355.6,136.5L355.1,136.3L354.9,136.0L354.9,135.5L355.2,135.4L355.5,135.6L355.6,135.8ZM329.2,154.4L328.9,154.5L328.4,154.1L328.5,153.8L328.8,153.6L329.1,154.0ZM331.3,113.8L331.5,114.6L331.2,114.5L330.8,114.1L330.5,113.6L330.5,113.3L330.6,113.3L331.2,113.6ZM315.8,86.5L315.8,86.7L315.1,86.2L313.7,84.8L313.2,84.0L313.2,83.7L313.2,82.9L313.7,83.0L314.2,83.5L314.5,84.0L314.5,84.6L315.5,84.8L315.7,86.0ZM303.7,93.3L303.6,93.5L302.6,93.0L303.2,92.2L303.1,91.4L303.3,91.2L303.5,91.5L303.8,92.6ZM321.5,86.9L321.1,88.5L320.6,88.5L319.6,87.9L319.5,87.6L319.9,85.7L320.2,85.5L321.0,85.2L321.2,85.5L321.2,86.0ZM285.3,87.3L285.0,87.6L284.3,86.1L284.3,85.8L284.5,85.6L284.8,85.6L284.8,86.0L285.1,86.3L285.2,86.6ZM474.6,138.4L474.6,138.7L474.6,138.7L474.4,138.5L474.3,138.2L474.4,138.1L474.5,138.2ZM444.7,154.8L444.0,154.9L443.9,154.8L445.3,154.1L445.5,154.2L445.6,154.3L444.9,154.6ZM335.9,119.5L335.8,119.5L335.5,119.1L335.3,118.3L335.4,118.2L336.0,119.3L336.0,119.4ZM306.5,68.1L306.4,68.1L306.0,67.8L306.0,67.5L306.1,67.4L306.5,67.7L306.6,67.9ZM328.1,107.1L328.2,107.3L328.2,107.4L327.9,107.2L327.5,108.2L327.4,108.3L327.6,106.9L327.9,106.7L328.2,106.7ZM324.5,117.9L324.5,118.2L322.6,116.9L323.1,116.8L323.6,116.9ZM322.4,116.9L322.3,116.9L321.7,116.2L321.7,115.6L321.5,115.4L320.9,115.3L321.4,114.2L321.8,112.0L321.9,112.4L321.5,114.6L321.6,114.9L321.7,115.2L322.0,115.6L322.0,116.1L322.3,116.6Z" fill="#4ECDC4" stroke="#2C3E50" stroke-width="1"/></g><circle cx="400.0" cy="150.0" r="4" fill="#E74C3C" stroke="#fff" stroke-width="2"/><text x="400.0" y="140.0" text-anchor="middle" font-family="sans-serif" font-weight="700" font-size="10" fill="#2D3436">Mexico City</text></svg>