<svg viewBox="0 0 800 300" xmlns="http://www.w3.org/2000/svg"><defs><clipPath id="v"><rect width="800" height="300"/></clipPath></defs><rect width="800" height="300" fill="#DCEEF8"/><g clip-path="url(#v)"><path d="M1425,430L1428,428L1432,432L1430,440L1422,442L1415,440L1413,434L1418,429ZM1450,417L1441,421L1433,424L1431,418L1438,415L1442,415L1450,410L1450,410L1450,417ZM-3376,410L-3376,410L-3376,410L-3373,410L-3375,416L-3376,417L-3376,417L-3376,410Z" fill="#E0E0E0" stroke="#fff" stroke-width=".4"/><path d="M927,227L950,236L975,244L984,251L992,258L994,265L1016,274L1019,281L1007,282L1010,291L1022,300L1031,315L1038,314L1038,320L1048,323L1044,325L1058,331L1057,335L1048,336L1045,332L1033,331L1020,329L1009,320L1002,312L995,301L977,295L966,299L958,303L959,313L949,318L941,315L927,315L927,271ZM1083,241L1088,246L1090,252L1085,256L1083,248L1080,243L1074,239L1066,233L1056,229L1060,226L1067,229L1072,232L1078,236ZM1065,271L1058,274L1051,277L1044,277L1033,273L1025,269L1026,265L1038,267L1045,266L1048,260L1049,259L1051,266L1058,265L1062,261L1070,256L1068,248L1076,248L1079,250L1079,257L1074,266L1067,267ZM1111,264L1115,267L1122,275L1128,280L1126,284L1123,285L1117,280L1111,271L1108,261L1110,260Z" fill="#E0E0E0" stroke="#fff" stroke-width=".4"/><path d="M927,227L927,271L927,315L915,304L902,301L899,305L882,305L887,294L896,290L892,276L886,265L860,253L849,252L829,240L825,246L819,247L816,242L816,237L806,230L821,225L830,225L829,222L809,222L804,214L792,211L786,205L805,201L811,197L833,203L835,208L839,229L853,237L864,223L879,215L891,215L903,220L913,224ZM712,312L713,314L714,319L705,329L693,332L692,330L693,325L699,317ZM836,285L835,275L837,270L840,265L843,269L843,276ZM617,137L609,149L619,161L617,168L632,180L616,182L612,191L612,203L599,212L599,225L594,246L592,241L577,247L571,239L562,238L555,234L539,239L534,232L525,233L514,231L512,213L506,210L499,198L497,187L499,174L507,165L509,174L518,182L527,179L535,180L543,173L550,172L562,176L573,173L580,154L585,150L590,134L605,134ZM771,230L786,234L791,244L779,238L768,237L761,238L751,238L754,230ZM738,243L728,241L726,235L739,234L743,239ZM752,163L753,170L761,171L762,177L761,189L754,187L752,195L758,203L754,204L749,196L745,179L747,168ZM685,180L700,180L713,170L716,173L705,186L695,189L682,186L660,187L648,189L646,199L658,211L665,205L690,200L689,207L683,205L677,212L666,218L678,235L676,239L688,255L688,264L681,268L675,263L682,252L669,257L665,253L667,248L657,240L658,227L650,231L651,247L651,266L643,268L637,264L641,252L639,239L633,239L629,230L634,221L636,210L643,190L646,185L657,175L668,179ZM649,330L632,321L644,318L651,322L656,326L655,330ZM663,307L672,306L684,301L682,309L662,312L644,311L644,306L655,303ZM622,305L630,304L634,309L618,312L609,314L602,314L606,306L614,306L617,301ZM491,278L493,283L519,285L522,279L546,285L551,294L571,297L588,305L573,310L558,304L546,305L532,304L519,301L504,296L494,295L488,297L464,291L462,285L449,284L458,271L475,272L486,277ZM436,207L438,216L443,223L453,225L459,233L456,250L455,271L440,271L429,260L412,249L406,241L396,230L389,220L379,201L367,190L364,178L359,168L347,159L340,148L329,140L315,125L314,119L323,119L344,122L355,135L366,144L373,150L386,164L400,164L411,173L419,185L429,191L423,202L431,206Z" fill="#E0E0E0" stroke="#fff" stroke-width=".4"/><path d="M712,312L714,309L725,306L734,305L739,303L744,305L739,309L725,315L714,319L713,314Z" fill="#E0E0E0" stroke="#fff" stroke-width=".4"/><path d="M-223,-121L-223,-126L-219,-132L-219,-138L-213,-141L-215,-143L-214,-153L-207,-153L-201,-143L-194,-138L-184,-136L-176,-133L-170,-125L-166,-120L-161,-118L-161,-115L-166,-106L-168,-102L-174,-98L-179,-88L-185,-88L-188,-85L-190,-78L-188,-68L-190,-67L-196,-67L-204,-61L-206,-54L-209,-51L-217,-52L-222,-48L-222,-42L-229,-38L-236,-40L-245,-35L-251,-34L-256,-44L-266,-67L-226,-82L-217,-110ZM-209,-165L-211,-170L-208,-175L-206,-174L-207,-167Z" fill="#E0E0E0" stroke="#fff" stroke-width=".4"/><path d="M412,28L409,11L417,-1L435,-3L447,-1L458,4L464,-5L476,-0L479,9L478,25L455,36L461,44L447,45L435,51L424,49L419,42Z" fill="#E0E0E0" stroke="#fff" stroke-width=".4"/><path d="M447,-1L435,-3L417,-1L409,11L412,28L400,21L388,21L390,11L379,11L378,26L370,46L366,58L367,68L376,68L381,81L384,92L391,100L399,102L406,109L402,114L393,116L392,109L381,103L379,105L373,100L371,93L364,86L357,79L355,87L353,80L354,71L358,58L364,44L372,32L367,19L367,13L365,5L356,-6L353,-13L358,-16L363,-28L357,-37L349,-47L342,-60L348,-62L354,-77L363,-78L371,-84L379,-88L385,-83L385,-75L395,-74L391,-59L392,-46L406,-55L410,-52L418,-53L420,-58L430,-57L441,-45L441,-31L452,-19L452,-7Z" fill="#E0E0E0" stroke="#fff" stroke-width=".4"/><path d="M476,-0L464,-5L458,4L447,-1L452,-7L452,-19L441,-31L441,-45L430,-57L420,-58L418,-53L410,-52L406,-55L392,-46L391,-59L395,-74L385,-75L385,-83L379,-88L382,-93L393,-102L394,-99L402,-98L399,-115L406,-117L414,-106L420,-93L437,-92L442,-80L433,-76L430,-71L446,-63L457,-46L465,-34L475,-24L479,-14Z" fill="#E0E0E0" stroke="#fff" stroke-width=".4"/><path d="M379,-88L371,-84L363,-78L354,-77L348,-62L342,-60L349,-47L357,-37L363,-28L358,-16L353,-13L356,-6L365,5L367,13L367,19L372,32L364,44L358,58L357,48L361,38L356,30L357,15L352,8L348,-9L345,-27L339,-38L330,-31L315,-21L308,-22L299,-26L304,-43L301,-56L291,-73L292,-78L285,-80L275,-91L274,-103L279,-101L279,-111L286,-114L284,-120L287,-125L288,-141L298,-137L304,-149L305,-157L312,-169L312,-178L329,-188L339,-185L338,-195L343,-197L342,-203L349,-204L354,-195L360,-192L360,-180L360,-168L347,-155L345,-138L359,-140L363,-127L371,-124L367,-112L377,-107L383,-104L393,-108L393,-102L382,-93Z" fill="#E0E0E0" stroke="#fff" stroke-width=".4"/><path d="M435,51L447,45L461,44L455,36L478,25L479,9L476,-0L479,-14L475,-24L465,-34L457,-46L446,-63L430,-71L433,-76L442,-80L437,-92L420,-93L414,-106L406,-117L414,-121L424,-121L437,-122L449,-130L455,-124L467,-122L465,-113L472,-108L485,-104L467,-92L456,-78L453,-68L463,-53L476,-35L488,-26L496,-15L502,10L501,35L489,44L474,52L463,64L446,76L442,68L445,58Z" fill="#E0E0E0" stroke="#fff" stroke-width=".4"/><path d="M342,-203L343,-197L338,-195L339,-185L329,-188L312,-178L312,-169L305,-157L304,-149L298,-137L288,-141L287,-125L284,-120L286,-114L279,-111L272,-134L268,-134L266,-125L259,-132L263,-140L269,-141L275,-154L267,-156L255,-156L242,-158L241,-168L235,-169L224,-176L219,-166L229,-158L221,-152L218,-147L226,-143L224,-134L228,-123L230,-111L228,-106L219,-106L203,-103L204,-92L196,-84L177,-74L162,-57L152,-49L139,-39L139,-33L132,-30L120,-25L114,-24L110,-13L112,5L113,16L107,29L107,53L100,53L94,64L98,68L86,72L82,81L76,85L64,72L57,53L52,40L48,33L40,20L37,3L35,-6L23,-25L17,-52L13,-70L13,-88L10,-101L-9,-92L-18,-94L-36,-112L-30,-117L-33,-123L-49,-135L-40,-145L-11,-145L-13,-157L-21,-165L-22,-176L-31,-183L-17,-199L-1,-198L13,-214L21,-229L34,-245L34,-256L46,-265L35,-273L30,-284L25,-298L32,-305L52,-301L67,-304L80,-317L95,-298L93,-285L99,-277L98,-269L89,-271L92,-253L106,-243L124,-233L116,-226L110,-211L123,-205L136,-198L154,-189L172,-188L180,-180L190,-178L206,-175L217,-175L219,-181L217,-191L218,-197L226,-200L227,-189L228,-185L240,-180L248,-182L260,-181L271,-182L272,-191L266,-196L277,-198L289,-209L305,-219L316,-215L325,-221L332,-212L327,-205Z" fill="#E0E0E0" stroke="#fff" stroke-width=".4"/><path d="M279,-111L279,-101L274,-103L275,-91L271,-99L270,-106L268,-113L262,-121L250,-122L251,-116L247,-108L241,-111L239,-108L236,-110L230,-111L228,-123L224,-134L226,-143L218,-147L221,-152L229,-158L219,-166L224,-176L235,-169L241,-168L242,-158L255,-156L267,-156L275,-154L269,-141L263,-140L259,-132L266,-125L268,-134L272,-134Z" fill="#E0E0E0" stroke="#fff" stroke-width=".4"/><path d="M266,-196L272,-191L271,-182L260,-181L248,-182L240,-180L228,-185L227,-189L236,-200L244,-204L253,-200L260,-200Z" fill="#E0E0E0" stroke="#fff" stroke-width=".4"/><path d="M218,-197L217,-191L219,-181L217,-175L206,-175L190,-178L180,-180L172,-188L154,-189L136,-198L123,-205L110,-211L116,-226L124,-233L130,-236L140,-232L154,-221L162,-219L166,-212L176,-209L187,-202L202,-199Z" fill="#E0E0E0" stroke="#fff" stroke-width=".4"/><path d="M80,-317L67,-304L52,-301L32,-305L25,-298L30,-284L35,-273L46,-265L34,-256L34,-245L21,-229L13,-214L-1,-198L-17,-199L-31,-183L-22,-176L-21,-165L-13,-157L-11,-145L-40,-145L-49,-135L-59,-139L-63,-149L-73,-160L-98,-158L-120,-157L-139,-155L-134,-173L-114,-180L-115,-187L-122,-190L-122,-203L-135,-210L-140,-219L-147,-227L-125,-219L-111,-222L-103,-220L-101,-223L-91,-222L-74,-228L-73,-241L-66,-250L-56,-250L-54,-254L-44,-257L-39,-255L-34,-259L-35,-269L-29,-279L-20,-283L-26,-293L-13,-293L-9,-299L-10,-305L-3,-312L-5,-320L-8,-327L-0,-334L14,-338L30,-340L37,-343L44,-345L54,-337L58,-324Z" fill="#E0E0E0" stroke="#fff" stroke-width=".4"/><path d="M-312,-229L-319,-237L-320,-245L-324,-245L-322,-256L-329,-268L-345,-277L-354,-292L-351,-305L-344,-311L-345,-320L-354,-325L-363,-345L-370,-359L-368,-364L-372,-384L-363,-389L-361,-382L-354,-374L-345,-372L-340,-372L-324,-385L-319,-387L-315,-381L-320,-373L-311,-364L-308,-365L-304,-352L-291,-349L-282,-340L-263,-337L-242,-342L-240,-346L-228,-349L-219,-359L-210,-358L-204,-361L-195,-360L-180,-351L-169,-349L-154,-335L-144,-334L-143,-320L-148,-300L-152,-288L-146,-285L-152,-277L-147,-264L-146,-254L-136,-251L-135,-241L-147,-227L-140,-219L-135,-210L-122,-203L-122,-190L-115,-187L-114,-180L-134,-173L-139,-155L-164,-160L-179,-163L-194,-165L-199,-183L-206,-186L-216,-183L-230,-176L-246,-181L-260,-193L-272,-197L-281,-212L-291,-232L-299,-230L-307,-235Z" fill="#E0E0E0" stroke="#fff" stroke-width=".4"/><path d="M1017,792L1025,793L1026,815L1021,821L1020,836L1015,831L1006,843L1003,842L995,842L986,826L984,814L977,799L977,790L986,792L999,798L1006,796ZM728,649L714,657L702,661L699,669L694,675L683,676L675,677L663,674L653,676L644,677L636,685L632,685L625,689L619,695L609,694L600,694L586,683L579,680L579,671L586,669L588,665L587,660L589,649L588,639L581,623L578,614L579,606L574,596L573,591L567,585L566,573L558,561L556,555L562,561L558,548L564,552L568,558L568,550L561,538L560,534L557,529L558,521L561,517L563,510L561,501L567,491L568,502L574,492L585,487L591,481L601,476L607,475L611,476L622,471L630,470L632,466L635,465L643,465L657,461L664,455L668,447L675,440L676,435L676,427L686,415L691,427L697,424L692,418L697,411L702,414L704,403L711,397L715,391L721,389L722,385L728,386L728,383L734,381L740,379L750,385L758,394L766,394L774,395L772,387L778,376L784,373L782,369L788,362L796,357L803,358L814,356L814,349L804,344L811,342L820,346L827,351L838,355L842,353L850,358L858,354L863,355L867,352L873,359L869,366L864,372L859,372L861,378L857,385L852,392L853,395L864,403L874,408L881,412L891,421L895,421L902,424L904,429L916,433L925,429L928,421L931,415L932,407L936,396L934,389L935,385L934,377L936,367L938,364L936,360L939,352L942,345L942,341L947,336L951,343L952,351L955,353L956,359L961,366L962,373L961,378L966,389L975,384L979,390L986,395L984,401L987,413L989,420L992,422L996,434L995,441L999,451L1014,458L1023,465L1032,471L1030,475L1038,484L1043,499L1049,496L1054,503L1057,500L1060,516L1069,525L1075,530L1086,542L1090,554L1090,563L1089,572L1095,585L1095,598L1092,606L1089,619L1089,628L1086,640L1080,654L1070,662L1066,674L1061,682L1057,696L1052,705L1049,717L1047,728L1048,734L1040,740L1025,740L1012,747L1006,754L998,761L987,754L979,751L981,742L974,745L962,757L950,753L943,750L935,749L922,744L913,733L911,721L908,712L901,706L888,704L893,696L889,683L883,695L871,698L878,689L880,679L885,671L884,660L873,673L865,679L860,692L849,685L850,676L841,665L834,659L837,655L820,645L810,645L797,637L773,639L756,644L741,650Z" fill="#E0E0E0" stroke="#fff" stroke-width=".4"/><path d="M133,91L131,105L126,109L114,112L108,101L105,82L111,60L121,67L127,77Z" fill="#E0E0E0" stroke="#fff" stroke-width=".4"/><path d="M504,-56L493,-60L493,-73L500,-79L514,-83L522,-83L525,-77L519,-71L516,-63ZM113,-436L112,-446L121,-451L109,-483L135,-491L142,-495L152,-530L178,-523L186,-532L187,-552L198,-554L208,-568L213,-570L217,-555L228,-545L247,-537L256,-521L251,-499L256,-490L272,-487L290,-484L306,-473L314,-470L321,-453L328,-442L343,-443L371,-439L389,-441L402,-439L422,-428L438,-428L444,-422L460,-432L481,-438L501,-439L517,-445L527,-455L536,-461L534,-467L529,-475L536,-487L544,-485L558,-481L571,-491L592,-499L601,-511L611,-517L630,-520L641,-517L642,-524L630,-538L619,-545L609,-537L596,-540L588,-538L585,-546L594,-566L601,-582L617,-574L636,-587L636,-596L648,-619L655,-626L655,-638L648,-643L659,-654L676,-658L693,-659L713,-652L725,-644L733,-622L738,-613L743,-600L748,-579L771,-572L787,-558L793,-539L813,-539L825,-547L847,-553L840,-535L835,-528L830,-506L821,-488L805,-491L793,-484L797,-468L795,-446L788,-446L788,-436L779,-447L774,-437L753,-429L755,-420L744,-420L738,-426L728,-413L714,-404L703,-393L684,-387L674,-379L660,-375L667,-383L664,-389L675,-401L667,-410L656,-404L641,-392L632,-381L619,-380L612,-372L619,-360L630,-358L631,-350L641,-345L656,-357L668,-351L677,-350L679,-341L660,-337L654,-328L641,-319L634,-308L648,-299L654,-283L662,-268L671,-256L671,-245L662,-240L666,-232L673,-227L671,-215L668,-203L661,-201L651,-185L640,-165L627,-147L609,-134L590,-122L575,-120L567,-114L562,-118L555,-111L536,-104L522,-102L517,-86L510,-86L506,-96L510,-102L492,-106L485,-104L472,-108L465,-113L467,-122L455,-124L449,-130L437,-122L424,-121L414,-121L406,-117L399,-115L402,-98L394,-99L393,-102L393,-108L383,-104L377,-107L367,-112L371,-124L363,-127L359,-140L345,-138L347,-155L360,-168L360,-180L360,-192L354,-195L349,-204L342,-203L327,-205L332,-212L325,-221L316,-215L305,-219L289,-209L277,-198L266,-196L260,-200L253,-200L244,-204L236,-200L227,-189L226,-200L218,-197L202,-199L187,-202L176,-209L166,-212L162,-219L154,-221L140,-232L130,-236L124,-233L106,-243L92,-253L89,-271L98,-269L99,-277L93,-285L95,-298L80,-317L58,-324L54,-337L44,-345L42,-349L40,-359L40,-366L32,-370L28,-368L25,-384L28,-388L26,-392L39,-400L49,-404L63,-401L68,-413L85,-415L90,-422L111,-432Z" fill="#E0E0E0" stroke="#fff" stroke-width=".4"/><path d="M669,-145L661,-122L655,-110L648,-122L647,-133L655,-147L665,-159L672,-154Z" fill="#E0E0E0" stroke="#fff" stroke-width=".4"/><path d="M657,20L650,10L661,10L666,15L662,27ZM680,58L683,54L685,45L692,45L690,54L700,41L699,54L694,58L690,67L686,71L677,61ZM731,79L732,88L733,95L729,108L724,94L717,101L722,111L718,117L702,109L698,100L702,93L694,87L690,92L683,92L673,99L671,95L676,84L685,80L692,75L697,81L707,78L709,72L719,71L718,61L729,67L730,74ZM625,67L608,80L614,70L624,62L632,52L639,39L641,50L632,57ZM677,-56L675,-51L679,-40L676,-29L668,-24L666,-13L669,-2L676,-0L682,-2L698,6L697,13L701,16L700,23L690,16L685,9L681,14L673,6L661,8L654,5L655,-1L659,-5L655,-8L653,-3L646,-11L644,-17L644,-30L649,-26L651,-48L655,-60L663,-60L671,-56L676,-60ZM673,38L671,32L679,36L687,36L687,41L681,47L672,51L672,45ZM719,28L723,43L713,39L713,44L716,52L710,56L709,46L705,45L703,37L711,38L711,33L703,22L715,23Z" fill="#E0E0E0" stroke="#fff" stroke-width=".4"/><path d="M584,119L584,126L583,134L577,134L574,138L568,131L573,126Z" fill="#E0E0E0" stroke="#fff" stroke-width=".4"/></g><g clip-path="url(#v)"><path d="M378.9,105.6L379.2,105.0L379.5,102.9L379.7,102.5L380.2,102.3L380.9,102.3L382.0,104.1L384.9,105.2L385.8,105.5L386.9,105.0L387.5,105.3L388.0,105.8L388.3,107.1L389.1,108.2L390.6,108.1L391.1,108.2L391.5,108.3L391.8,109.3L391.9,111.1L391.8,112.1L390.7,113.6L390.5,114.6L391.1,115.3L391.8,115.9L392.3,116.4L392.7,116.4L393.3,116.0L393.9,115.1L394.2,114.4L396.2,113.5L398.2,112.8L398.5,112.9L398.8,113.2L399.4,114.3L399.8,114.5L400.4,114.6L401.3,114.5L402.4,113.9L403.1,112.7L403.3,111.8L404.9,110.2L405.1,109.1L405.5,108.3L407.8,108.8L408.7,109.2L411.3,113.4L414.7,116.3L416.2,117.4L417.3,117.9L418.8,119.5L420.2,121.5L423.1,127.0L423.6,129.5L423.9,133.2L423.2,138.8L422.4,141.5L422.6,142.9L423.6,144.9L423.3,146.8L423.5,148.4L423.4,152.8L424.1,154.1L424.8,154.9L428.4,157.5L428.7,158.5L430.5,161.8L433.9,169.0L434.8,172.3L434.7,173.1L434.3,173.5L433.3,173.8L432.5,173.2L432.2,172.7L432.3,172.2L432.0,171.6L431.2,170.9L430.7,170.3L430.9,171.3L430.9,172.6L429.8,172.7L428.5,172.3L426.9,172.7L424.9,174.3L424.0,174.3L423.3,172.9L422.9,172.0L422.3,171.4L416.2,168.1L413.9,167.2L411.5,164.7L406.1,162.0L402.7,159.3L401.2,157.6L397.7,156.1L396.2,154.4L395.4,154.0L394.7,153.4L395.5,151.7L395.2,150.0L394.8,148.5L392.3,145.5L391.1,143.5L388.7,141.5L387.8,140.3L386.9,138.9L387.5,138.4L388.0,138.1L387.5,137.1L386.2,135.4L385.6,133.4L385.6,129.7L383.7,124.4L382.1,117.1L382.4,114.5L381.9,111.7L380.9,109.1L379.5,107.2ZM612.9,136.2L612.4,136.1L611.2,135.9L608.9,134.4L606.6,133.9L603.1,133.9L601.2,133.7L600.4,133.9L599.7,133.9L599.2,133.6L598.7,133.5L597.4,134.3L596.8,134.1L596.1,133.7L595.0,133.6L593.6,133.7L592.1,134.5L590.4,133.8L590.0,133.8L589.6,134.0L588.9,135.0L587.5,135.9L586.8,137.3L586.4,138.8L586.1,139.3L585.9,142.0L585.7,143.4L586.1,145.1L586.0,145.9L585.4,147.0L585.3,147.3L585.0,149.1L585.1,149.6L585.0,150.1L584.5,151.4L583.5,151.8L582.6,152.0L581.7,151.5L580.9,152.2L580.0,153.3L579.6,154.0L579.6,154.7L579.7,155.1L579.5,155.6L579.4,156.1L579.5,156.8L580.2,157.1L580.8,157.7L580.8,158.3L580.5,158.7L579.6,159.3L578.0,160.6L576.2,161.7L575.5,161.9L575.3,162.4L575.2,163.1L575.6,164.6L575.9,165.0L576.2,165.6L575.9,166.2L575.7,166.7L575.0,167.1L574.4,167.3L574.2,167.7L573.8,169.5L573.5,170.4L572.6,171.8L572.3,172.4L571.9,172.6L570.2,172.0L568.7,172.4L566.7,172.6L565.0,172.6L563.7,172.9L562.8,173.6L561.8,174.5L560.7,175.2L559.9,175.5L558.5,174.6L557.7,174.6L556.4,174.3L553.3,173.2L552.5,172.9L551.7,172.9L551.5,172.6L551.6,172.0L551.5,171.4L550.8,171.1L544.6,171.2L542.8,171.8L541.6,172.3L540.7,172.8L540.5,174.2L539.9,175.4L539.2,176.8L537.2,177.2L535.6,178.6L535.1,178.7L534.1,178.5L532.9,178.4L532.1,178.8L531.3,178.8L528.6,178.1L526.2,178.0L524.7,178.3L523.9,178.5L519.7,180.3L518.2,180.6L517.6,180.3L516.8,179.5L515.6,178.8L512.9,176.2L511.9,175.6L511.3,174.9L510.6,174.2L509.8,173.4L508.9,172.8L507.8,171.7L506.8,170.5L506.5,168.3L505.7,167.9L505.3,167.3L505.2,166.7L506.4,164.9L507.3,166.8L507.6,167.2L509.6,168.5L511.2,169.1L512.9,169.3L514.7,169.4L515.4,169.3L516.1,169.1L516.8,169.3L520.4,171.4L521.9,171.7L523.4,171.6L524.0,171.8L526.1,173.3L526.7,173.5L527.8,173.4L526.5,172.7L525.6,172.2L525.2,171.2L525.4,170.2L526.3,169.5L526.8,168.8L527.1,166.6L527.5,165.5L528.1,164.4L528.4,163.4L527.6,162.6L527.4,161.3L527.6,160.2L528.0,159.4L528.8,160.0L529.5,160.4L530.2,160.4L530.8,160.2L530.8,159.6L530.7,158.6L530.8,156.8L531.7,155.3L533.2,154.3L534.6,153.8L539.8,153.0L548.1,150.9L550.5,150.1L551.5,149.7L552.2,149.1L553.5,147.3L555.9,144.3L557.6,141.9L561.2,138.4L564.0,135.2L564.4,134.6L564.8,132.8L564.9,132.0L564.8,131.1L565.2,130.7L565.7,130.5L565.9,130.5L566.3,130.9L567.3,131.4L568.0,132.0L568.5,132.9L568.9,133.7L568.9,134.4L569.4,134.9L570.6,135.0L571.0,135.7L571.9,136.9L572.7,137.8L573.2,138.1L573.8,138.0L574.7,137.2L575.4,136.2L575.9,134.9L575.5,134.7L576.2,133.7L576.3,133.2L576.0,132.7L575.6,132.2L575.4,131.0L575.2,129.5L575.0,128.8L575.5,128.3L576.6,127.7L577.7,126.9L578.8,126.4L578.8,127.4L578.8,129.2L579.1,130.6L579.8,133.2L580.7,133.5L581.7,133.8L582.3,133.7L582.7,133.5L582.8,133.3L582.1,132.3L582.0,129.9L581.5,128.4L580.6,126.8L580.3,126.4L583.4,125.9L584.1,125.4L585.4,124.3L585.9,123.7L586.2,122.4L584.7,121.6L584.1,120.6L584.0,119.4L585.9,117.4L586.5,116.9L586.8,117.6L587.6,117.8L588.3,117.8L589.1,117.8L590.2,116.8L590.7,115.3L592.6,113.1L593.3,111.5L593.7,109.8L598.5,104.5L599.0,103.7L601.9,98.3L602.2,98.2L603.0,98.7L603.2,100.4L603.1,101.1L602.7,102.2L602.4,103.4L602.7,103.3L604.1,102.6L605.5,100.8L606.3,99.2L606.9,98.5L608.3,98.9L608.6,99.1L608.5,100.3L608.6,101.0L609.2,102.4L610.3,103.3L611.9,103.8L613.4,104.6L613.9,105.1L614.2,105.8L614.5,106.8L614.5,107.9L613.5,108.9L613.9,110.6L613.8,111.5L613.5,112.3L611.9,113.1L616.2,112.3L617.2,111.9L618.7,110.8L619.4,111.8L620.2,113.4L619.6,113.8L617.8,114.4L617.7,114.6L618.3,115.5L619.1,115.4L620.6,114.9L622.0,114.0L622.6,114.0L623.4,114.2L624.8,114.7L625.5,115.2L626.2,115.8L626.6,117.0L628.2,117.5L631.5,119.2L632.0,119.4L632.7,119.4L634.4,119.2L635.0,119.4L635.5,120.1L635.6,120.9L635.6,121.7L635.4,122.3L635.0,122.9L633.8,123.6L630.8,124.7L627.6,125.5L626.0,125.4L623.7,124.8L622.9,124.8L622.1,125.2L621.1,127.3L623.0,129.5L626.2,131.7L626.6,132.3L626.5,132.9L626.0,133.4L625.3,133.6L623.5,133.9L621.7,134.2L620.2,134.6L618.7,135.1L617.2,134.9L615.1,133.9L614.6,133.8L613.9,134.4L613.3,135.8ZM434.0,155.5L433.3,155.6L432.9,155.5L432.7,155.0L433.2,153.8L433.4,153.6L434.0,154.9ZM381.2,121.0L380.9,121.4L379.9,121.2L380.1,119.0L380.6,118.7L381.5,119.1L381.9,119.5ZM375.3,105.3L376.2,106.7L375.8,107.3L375.6,107.5L375.0,107.3L374.5,107.9L373.9,108.0L373.4,107.0L372.8,106.6L372.6,105.9L373.5,105.8L374.0,106.0L374.9,105.5ZM607.1,95.8L606.3,96.5L606.0,95.6L606.1,94.5L607.2,93.5L608.8,93.3L609.0,94.1L608.8,95.1L608.4,95.6ZM395.0,152.0L394.3,152.3L394.3,151.9L394.4,151.4L394.9,151.0L395.2,151.2ZM530.0,159.7L529.6,159.9L529.0,159.4L528.8,155.3L529.3,155.0L529.5,155.0L529.9,155.8L529.8,157.6L529.9,159.1ZM617.1,135.9L615.2,136.2L613.9,136.2L614.1,135.7L614.1,135.1L614.7,134.9L615.4,135.1Z" fill="#4ECDC4" stroke="#2C3E50" stroke-width="1"/></g><circle cx="400.0" cy="150.0" r="4" fill="#E74C3C" stroke="#fff" stroke-width="2"/><text x="400.0" y="140.0" text-anchor="middle" font-family="sans-serif" font-weight="700" font-size="10" fill="#2D3436">Kuala Lumpur</text></svg>