<svg viewBox="0 0 800 300" xmlns="http://www.w3.org/2000/svg"><defs><clipPath id="v"><rect width="800" height="300"/></clipPath></defs><rect width="800" height="300" fill="#DCEEF8"/><g clip-path="url(#v)"><path d="M1403,87L1405,86L1408,88L1406,92L1402,93L1398,92L1398,89L1400,86ZM1416,80L1412,82L1408,84L1407,81L1410,79L1412,79L1416,77L1416,77L1416,80ZM-1065,77L-1065,77L-1065,77L-1064,76L-1065,80L-1065,80L-1065,80L-1065,77Z" fill="#E0E0E0" stroke="#fff" stroke-width=".4"/><path d="M409,-29L410,-28L435,-14L436,-10L446,-3L443,5L443,9L447,12L448,14L446,18L446,20L446,23L448,28L451,34L453,36L448,40L440,43L436,43L434,45L429,45L427,46L419,44L414,44L412,35L409,32L408,30L401,28L397,26L393,25L390,24L387,22L384,13L380,10L378,6L379,2L378,-4L381,-5L383,-7L386,-11L387,-12L387,-15L386,-16L386,-19L388,-20L388,-24L385,-28L388,-29L395,-28Z" fill="#E0E0E0" stroke="#fff" stroke-width=".4"/><path d="M116,-234L116,-234L116,-232L116,-220L93,-221L93,-201L87,-201L85,-197L86,-186L59,-186L58,-184L58,-187L58,-187L74,-187L75,-190L77,-193L80,-204L89,-212L93,-221L95,-222L97,-228L103,-229L105,-228L108,-228L111,-230L115,-230L115,-234Z" fill="#E0E0E0" stroke="#fff" stroke-width=".4"/><path d="M1148,-18L1148,5L1148,28L1142,22L1135,21L1133,22L1124,23L1127,17L1131,15L1130,8L1126,2L1113,-4L1107,-5L1097,-11L1095,-8L1092,-7L1091,-10L1091,-13L1085,-16L1093,-19L1098,-18L1097,-20L1087,-20L1084,-24L1078,-26L1075,-29L1085,-31L1088,-33L1099,-30L1100,-28L1102,-16L1109,-12L1115,-20L1123,-24L1129,-24L1135,-21L1140,-19ZM1037,26L1038,27L1038,30L1033,35L1027,36L1027,35L1027,33L1030,29ZM1101,12L1100,7L1101,4L1103,2L1104,4L1104,7ZM988,-64L984,-58L989,-51L988,-48L996,-42L988,-41L985,-36L986,-30L979,-25L979,-18L976,-8L975,-10L967,-7L965,-11L960,-12L956,-14L948,-12L946,-15L941,-14L935,-15L934,-25L931,-26L928,-32L927,-38L927,-45L931,-49L933,-45L937,-41L942,-42L946,-42L950,-45L954,-46L960,-44L966,-45L969,-55L972,-57L974,-65L982,-65ZM1067,-16L1075,-14L1077,-9L1072,-12L1066,-12L1062,-12L1057,-12L1059,-16ZM1050,-9L1045,-11L1044,-14L1051,-14L1053,-12ZM1057,-50L1058,-47L1062,-46L1063,-43L1062,-37L1059,-38L1058,-34L1061,-30L1059,-29L1056,-34L1054,-42L1055,-48ZM1023,-42L1031,-42L1038,-47L1039,-45L1033,-38L1028,-37L1022,-38L1010,-38L1004,-37L1003,-32L1009,-26L1013,-29L1026,-31L1025,-28L1022,-29L1019,-25L1013,-22L1020,-14L1018,-11L1025,-3L1025,1L1021,3L1018,1L1021,-5L1015,-2L1013,-4L1014,-7L1009,-11L1009,-17L1005,-15L1005,-7L1006,3L1001,4L998,2L1000,-5L999,-11L996,-11L994,-16L997,-21L998,-26L1002,-37L1003,-39L1009,-45L1014,-42ZM1005,36L996,31L1002,29L1006,31L1008,34L1008,35ZM1012,24L1017,23L1023,20L1022,24L1011,26L1002,25L1002,23L1008,21ZM991,22L995,22L997,25L989,26L984,27L980,27L983,23L986,23L988,20ZM923,9L924,11L938,12L939,9L952,12L954,17L965,18L973,22L965,25L958,22L951,22L944,22L938,21L930,18L925,17L922,18L909,15L908,12L902,12L907,5L915,6L921,8ZM895,-28L896,-23L899,-19L904,-19L907,-14L905,-6L905,5L897,5L892,-1L883,-6L880,-11L875,-16L871,-21L866,-31L860,-37L858,-43L855,-48L849,-52L845,-58L840,-62L833,-70L832,-73L837,-73L848,-72L854,-65L859,-60L863,-57L869,-50L876,-50L882,-45L886,-39L891,-36L889,-31L893,-28Z" fill="#E0E0E0" stroke="#fff" stroke-width=".4"/><path d="M-298,393L-295,398L-292,407L-283,414L-273,417L-276,423L-283,423L-286,419L-290,419L-298,419ZM-222,183L-224,190L-225,198L-225,206L-227,208L-227,213L-228,218L-219,225L-220,231L-216,234L-216,239L-223,250L-233,254L-247,256L-254,255L-253,261L-254,267L-253,272L-257,275L-264,276L-271,273L-273,275L-273,285L-268,287L-264,285L-262,289L-268,292L-274,298L-275,308L-277,313L-283,313L-288,318L-290,325L-284,333L-277,335L-279,344L-288,350L-292,362L-298,367L-301,372L-299,383L-294,390L-297,389L-304,387L-320,386L-323,379L-323,371L-328,372L-330,368L-331,356L-325,352L-323,345L-324,340L-320,331L-318,318L-319,312L-316,311L-316,307L-319,305L-317,301L-320,297L-322,286L-319,285L-320,273L-319,264L-317,256L-313,253L-315,244L-315,236L-310,231L-310,224L-306,216L-306,208L-308,206L-311,192L-307,184L-307,176L-305,169L-300,162L-295,157L-297,154L-296,152L-296,139L-289,135L-286,127L-287,126L-281,119L-272,121L-268,126L-266,120L-258,120L-257,122L-244,134L-238,135L-230,141L-223,144L-222,147L-229,159L-222,161L-214,162L-208,161L-202,155L-201,148L-198,147L-194,151L-194,157L-200,162L-205,165L-213,172Z" fill="#E0E0E0" stroke="#fff" stroke-width=".4"/><path d="M378,-4L379,2L378,6L380,10L384,13L387,22L385,21L375,23L374,23L372,28L373,31L372,39L371,46L373,48L378,50L380,49L380,57L375,57L372,53L370,50L364,49L363,45L359,47L353,46L351,43L346,42L343,43L343,40L340,40L337,40L333,41L330,41L328,41L329,33L326,30L326,26L327,22L325,19L325,15L317,15L317,12L314,12L314,14L309,14L308,18L307,20L303,19L300,20L296,20L293,17L292,14L290,10L288,5L268,5L265,6L263,6L260,7L259,4L261,4L261,1L263,-1L265,-3L267,-2L269,-4L273,-4L273,-2L276,-1L280,-6L284,-9L286,-11L286,-17L289,-23L292,-27L296,-30L297,-33L297,-35L298,-37L298,-41L299,-48L300,-52L302,-56L303,-60L303,-64L306,-68L310,-70L315,-68L320,-65L325,-65L330,-63L332,-67L333,-68L336,-67L344,-71L346,-69L349,-70L350,-71L352,-72L357,-71L362,-71L364,-72L368,-66L371,-65L373,-66L376,-66L380,-67L382,-64L388,-60L388,-52L390,-51L388,-48L386,-46L383,-43L381,-40L381,-34L379,-31L379,-26L377,-24L377,-20L376,-20L376,-16L377,-13Z" fill="#E0E0E0" stroke="#fff" stroke-width=".4"/><path d="M462,-24L458,-30L458,-55L464,-63L466,-65L470,-65L476,-70L485,-70L505,-91L510,-97L513,-101L513,-105L513,-112L513,-115L513,-115L515,-115L518,-116L522,-117L525,-119L528,-119L528,-117L527,-113L527,-109L526,-107L524,-99L521,-91L516,-83L510,-72L505,-65L496,-55L490,-50L479,-43L473,-38L465,-29L464,-26Z" fill="#E0E0E0" stroke="#fff" stroke-width=".4"/><path d="M446,-3L436,-10L435,-14L410,-28L409,-29L409,-36L411,-39L415,-44L417,-49L414,-57L413,-60L410,-65L414,-69L419,-74L422,-72L422,-68L425,-66L430,-66L438,-60L440,-60L442,-60L444,-60L448,-59L450,-62L457,-65L459,-63L464,-63L458,-55L458,-30L462,-24L457,-21L456,-18L453,-18L452,-13L450,-10L449,-6Z" fill="#E0E0E0" stroke="#fff" stroke-width=".4"/><path d="M345,-92L340,-95L337,-97L337,-100L338,-103L338,-105L334,-110L333,-113L333,-115L331,-117L331,-121L329,-123L327,-123L327,-126L329,-129L328,-131L331,-134L329,-135L331,-140L334,-145L340,-144L340,-173L340,-176L348,-176L348,-191L376,-191L402,-191L430,-191L432,-184L430,-182L431,-175L434,-166L436,-164L440,-162L437,-158L432,-156L430,-154L429,-149L426,-139L427,-136L425,-130L423,-123L419,-119L416,-114L415,-111L412,-109L410,-102L410,-96L410,-101L409,-101L409,-105L408,-107L404,-110L404,-115L404,-120L401,-121L401,-119L397,-119L398,-117L399,-112L395,-109L392,-103L388,-103L382,-107L380,-105L379,-103L375,-102L375,-101L368,-101L367,-102L362,-102L360,-101L358,-102L354,-106L353,-108L348,-107L346,-103L345,-97L342,-96L340,-95Z" fill="#E0E0E0" stroke="#fff" stroke-width=".4"/><path d="M340,-173L340,-144L334,-145L331,-140L329,-135L331,-134L328,-131L329,-129L327,-126L327,-123L329,-123L331,-121L331,-117L333,-115L333,-113L329,-112L325,-109L320,-101L314,-98L307,-98L305,-98L306,-95L302,-93L299,-90L291,-87L289,-89L288,-89L286,-87L281,-87L282,-89L280,-93L279,-96L276,-98L272,-102L273,-105L276,-104L278,-105L282,-105L278,-111L279,-116L278,-120L275,-125L276,-128L272,-128L272,-133L269,-136L272,-145L281,-152L281,-161L284,-176L285,-179L282,-182L282,-184L280,-186L278,-197L285,-202L312,-187Z" fill="#E0E0E0" stroke="#fff" stroke-width=".4"/><path d="M651,349L655,352L662,354L662,356L660,361L649,361L649,356L650,351Z" fill="#E0E0E0" stroke="#fff" stroke-width=".4"/><path d="M288,170L291,166L294,168L295,172L298,172L303,174L306,173L313,169L313,141L314,142L319,149L318,154L319,157L324,156L328,152L331,150L333,146L336,145L339,146L342,148L348,148L352,146L353,144L354,140L358,140L360,137L362,132L369,126L378,121L381,121L384,122L387,121L391,122L394,132L396,138L394,146L395,149L391,148L389,148L389,150L387,153L387,156L391,160L395,159L397,156L402,156L400,162L399,168L397,172L393,176L391,177L388,181L387,185L383,191L375,199L370,204L365,208L358,211L354,211L353,214L349,212L346,214L338,212L334,213L331,213L324,216L318,217L314,221L311,221L308,218L305,218L302,214L302,215L301,213L301,208L299,203L301,201L301,195L297,187L293,181L293,180ZM375,173L372,171L369,172L365,175L362,180L367,187L369,186L371,183L374,182L376,179L378,176Z" fill="#E0E0E0" stroke="#fff" stroke-width=".4"/><path d="M375,173L378,176L376,179L374,182L371,183L369,186L367,187L362,180L365,175L369,172L372,171Z" fill="#E0E0E0" stroke="#fff" stroke-width=".4"/><path d="M-222,183L-217,182L-210,189L-208,188L-201,193L-195,198L-191,204L-194,207L-192,212L-195,217L-203,222L-208,220L-212,221L-218,218L-223,218L-227,213L-227,208L-225,206L-225,198L-224,190Z" fill="#E0E0E0" stroke="#fff" stroke-width=".4"/><path d="M-192,212L-194,207L-191,204L-195,198L-201,193L-208,188L-210,189L-217,182L-222,183L-213,172L-205,165L-200,162L-194,157L-194,151L-198,147L-201,148L-200,144L-199,139L-199,135L-201,134L-204,135L-206,135L-207,132L-208,125L-209,123L-214,121L-217,122L-224,121L-224,111L-226,107L-223,105L-224,101L-222,98L-221,92L-223,87L-226,85L-227,83L-226,78L-239,78L-242,70L-240,70L-240,67L-241,65L-242,60L-246,58L-250,58L-253,56L-258,55L-260,52L-268,51L-275,45L-275,40L-276,37L-275,32L-284,33L-288,36L-294,39L-295,41L-299,41L-304,40L-308,42L-311,41L-310,30L-316,34L-322,34L-325,30L-329,30L-328,27L-332,23L-335,17L-333,15L-333,12L-329,10L-329,7L-328,4L-327,1L-319,-4L-314,-5L-313,-6L-306,-6L-303,-25L-303,-28L-304,-32L-307,-34L-307,-39L-303,-40L-302,-40L-302,-42L-306,-43L-306,-47L-292,-47L-290,-50L-288,-47L-287,-43L-286,-44L-282,-41L-276,-41L-275,-43L-270,-45L-267,-46L-266,-49L-261,-51L-262,-52L-268,-53L-269,-57L-268,-62L-271,-63L-270,-64L-265,-63L-260,-62L-258,-63L-253,-64L-245,-67L-242,-69L-243,-71L-240,-72L-238,-70L-239,-67L-237,-66L-235,-63L-237,-60L-238,-55L-236,-51L-236,-48L-232,-45L-228,-44L-227,-46L-225,-46L-222,-47L-220,-49L-216,-48L-214,-49L-211,-48L-210,-49L-211,-51L-210,-53L-208,-52L-204,-53L-200,-51L-197,-50L-195,-52L-194,-52L-193,-50L-190,-50L-187,-53L-185,-58L-181,-64L-178,-65L-177,-61L-173,-49L-169,-47L-169,-43L-174,-37L-172,-35L-160,-34L-159,-27L-154,-31L-146,-29L-134,-25L-131,-21L-132,-17L-124,-19L-110,-15L-100,-16L-90,-10L-81,-2L-76,-0L-70,0L-67,2L-65,11L-64,15L-67,27L-70,31L-80,41L-84,49L-89,55L-91,55L-93,61L-93,74L-95,85L-95,90L-97,93L-99,102L-106,112L-107,120L-112,123L-114,127L-122,127L-132,130L-137,133L-145,136L-153,142L-159,149L-160,155L-159,159L-160,167L-162,171L-166,175L-174,189L-180,196L-185,200L-188,207Z" fill="#E0E0E0" stroke="#fff" stroke-width=".4"/><path d="M-200,-51L-204,-53L-208,-52L-210,-53L-211,-51L-210,-49L-211,-48L-214,-49L-219,-55L-219,-58L-222,-59L-225,-64L-223,-67L-224,-69L-220,-71L-219,-77L-210,-75L-210,-77L-204,-77L-197,-75L-200,-69L-200,-65L-197,-60L-198,-58L-199,-54Z" fill="#E0E0E0" stroke="#fff" stroke-width=".4"/><path d="M-181,-64L-185,-58L-187,-53L-190,-50L-193,-50L-194,-52L-195,-52L-197,-50L-200,-51L-199,-54L-198,-58L-197,-60L-200,-65L-200,-69L-197,-75L-194,-74L-189,-73L-182,-67ZM218,-429L221,-426L231,-424L228,-417L227,-410L225,-408L222,-409L222,-406L217,-401L217,-396L220,-398L223,-393L222,-391L224,-387L222,-384L224,-376L228,-375L227,-371L220,-366L207,-368L197,-365L196,-360L188,-358L180,-363L178,-361L165,-365L162,-368L166,-374L167,-394L160,-404L155,-409L144,-413L144,-421L153,-423L164,-420L162,-432L169,-428L185,-436L187,-445L193,-447L194,-443L197,-443L200,-439L205,-434L209,-435L215,-430L216,-429ZM236,-361L240,-365L241,-357L239,-349L236,-351L234,-358Z" fill="#E0E0E0" stroke="#fff" stroke-width=".4"/><path d="M391,122L387,121L384,122L381,121L378,121L374,117L369,116L367,112L367,109L364,108L356,100L354,96L352,95L350,89L357,90L360,90L362,90L366,86L372,80L374,79L375,77L379,74L384,73L385,75L390,75L394,77L395,79L398,79L402,81L402,91L401,96L400,101L401,103L401,108L400,108L398,113Z" fill="#E0E0E0" stroke="#fff" stroke-width=".4"/><path d="M378,121L369,126L362,132L360,137L358,140L354,140L353,144L352,146L348,148L342,148L339,146L336,145L333,146L331,150L328,152L324,156L319,157L318,154L319,149L314,142L313,141L313,119L319,119L320,93L325,92L335,90L338,93L342,90L345,90L348,88L350,89L352,95L354,96L356,100L364,108L367,109L367,112L369,116L374,117Z" fill="#E0E0E0" stroke="#fff" stroke-width=".4"/><path d="M313,141L313,169L306,173L303,174L298,172L295,172L294,168L291,166L288,170L283,164L280,159L279,151L277,146L275,134L275,125L274,121L271,118L268,112L264,103L262,98L257,91L256,86L260,84L264,83L268,83L272,87L273,86L301,86L306,89L323,90L336,87L341,86L346,86L348,88L348,88L345,90L342,90L338,93L335,90L325,92L320,93L319,119L313,119Z" fill="#E0E0E0" stroke="#fff" stroke-width=".4"/><path d="M60,-130L57,-136L54,-138L57,-140L60,-145L62,-148L64,-151L68,-150L71,-151L75,-152L78,-149L83,-148L87,-142L92,-137L92,-133L93,-129L96,-127L96,-124L96,-122L95,-122L91,-122L91,-121L89,-121L84,-123L81,-123L68,-123L66,-122L64,-123L60,-122L59,-127L66,-127L67,-128L69,-128L71,-130L74,-128L77,-128L80,-129L79,-132L76,-130L74,-130L71,-132L69,-132L68,-130Z" fill="#E0E0E0" stroke="#fff" stroke-width=".4"/><path d="M96,-122L96,-124L96,-127L93,-129L92,-133L92,-137L94,-139L95,-143L97,-143L102,-141L106,-142L109,-142L110,-144L137,-144L139,-149L138,-150L134,-181L131,-213L142,-213L165,-197L188,-181L190,-177L194,-175L197,-174L197,-169L205,-170L205,-153L201,-149L201,-144L194,-143L185,-142L182,-140L178,-140L174,-140L172,-141L168,-140L162,-137L160,-135L155,-132L154,-130L151,-128L148,-129L146,-128L145,-123L139,-117L140,-114L138,-111L138,-107L135,-106L134,-105L133,-108L131,-108L130,-108L128,-106L123,-106L121,-107L120,-106L118,-108L118,-110L117,-111L116,-110L116,-113L118,-115L115,-118L114,-119L113,-121L111,-121L110,-120L107,-119L105,-118L102,-118L101,-120L99,-120L98,-119L96,-119Z" fill="#E0E0E0" stroke="#fff" stroke-width=".4"/><path d="M58,-184L59,-186L86,-186L85,-197L87,-201L93,-201L93,-221L116,-220L116,-232L142,-213L131,-213L134,-181L138,-150L139,-149L137,-144L110,-144L109,-142L106,-142L102,-141L97,-143L95,-143L94,-139L92,-137L87,-142L83,-148L78,-149L75,-152L71,-151L68,-150L64,-151L62,-148L61,-152L63,-156L64,-162L63,-170L63,-173L63,-177L61,-180Z" fill="#E0E0E0" stroke="#fff" stroke-width=".4"/><path d="M194,-79L188,-78L187,-83L187,-99L186,-100L185,-104L183,-106L181,-108L182,-112L184,-113L185,-116L189,-116L190,-118L193,-120L195,-121L200,-116L200,-114L202,-110L200,-107L201,-105L198,-101L196,-99L194,-94L194,-90Z" fill="#E0E0E0" stroke="#fff" stroke-width=".4"/><path d="M278,-197L280,-186L282,-184L282,-182L285,-179L284,-176L281,-161L281,-152L272,-145L269,-136L272,-133L272,-128L276,-128L275,-125L273,-125L273,-122L272,-122L267,-130L266,-130L260,-126L255,-128L251,-129L249,-128L245,-128L241,-125L238,-125L229,-128L226,-127L222,-127L220,-129L213,-132L206,-131L204,-130L203,-126L201,-123L200,-116L195,-121L193,-120L190,-118L190,-123L183,-125L182,-128L178,-133L178,-136L178,-140L182,-140L185,-142L194,-143L201,-144L201,-149L205,-153L205,-170L215,-173L235,-188L258,-202L269,-199L273,-195Z" fill="#E0E0E0" stroke="#fff" stroke-width=".4"/><path d="M194,-79L194,-90L194,-94L196,-99L198,-101L201,-105L200,-107L202,-110L200,-114L200,-116L201,-123L203,-126L204,-130L206,-131L213,-132L220,-129L222,-127L226,-127L229,-128L238,-125L241,-125L245,-128L249,-128L251,-129L255,-128L260,-126L266,-130L267,-130L272,-122L273,-122L276,-119L275,-118L275,-116L269,-110L267,-106L266,-102L265,-101L263,-96L260,-93L259,-89L257,-87L256,-84L252,-81L248,-84L245,-84L241,-80L239,-80L236,-73L234,-68L227,-66L224,-66L222,-65L216,-65L212,-69L210,-74L205,-79L200,-79Z" fill="#E0E0E0" stroke="#fff" stroke-width=".4"/><path d="M275,-125L278,-120L279,-116L278,-111L282,-105L278,-105L276,-104L273,-105L272,-102L276,-98L279,-96L280,-93L282,-89L281,-87L277,-80L276,-79L275,-73L276,-70L275,-68L279,-65L279,-62L282,-59L285,-56L285,-53L286,-51L285,-47L280,-49L274,-51L266,-51L265,-52L261,-51L256,-52L253,-51L242,-51L243,-57L240,-61L237,-62L236,-66L234,-67L234,-68L236,-73L239,-80L241,-80L245,-84L248,-84L252,-81L256,-84L257,-87L259,-89L260,-93L263,-96L265,-101L266,-102L267,-106L269,-110L275,-116L275,-118L276,-119L273,-122L273,-125Z" fill="#E0E0E0" stroke="#fff" stroke-width=".4"/><path d="M182,-112L181,-108L183,-106L185,-104L186,-100L187,-99L187,-83L188,-78L183,-76L181,-79L179,-83L179,-87L180,-93L179,-96L178,-101L178,-106L175,-110L176,-112Z" fill="#E0E0E0" stroke="#fff" stroke-width=".4"/><path d="M176,-112L175,-110L178,-106L178,-101L179,-96L180,-93L179,-87L179,-83L181,-79L183,-76L172,-72L168,-70L162,-68L156,-70L156,-73L153,-79L155,-87L158,-92L156,-102L155,-108L155,-112L167,-112L170,-111L172,-113Z" fill="#E0E0E0" stroke="#fff" stroke-width=".4"/><path d="M120,-106L121,-107L123,-106L128,-106L130,-108L131,-108L133,-108L134,-105L135,-106L138,-107L141,-106L143,-104L146,-102L148,-104L151,-104L156,-102L158,-92L155,-87L153,-79L156,-73L156,-70L153,-70L148,-71L143,-71L135,-70L130,-68L124,-65L122,-66L123,-71L123,-72L123,-75L120,-78L118,-78L116,-80L118,-83L117,-87L117,-89L118,-89L119,-92L118,-93L119,-94L121,-95L120,-100L118,-103L119,-106Z" fill="#E0E0E0" stroke="#fff" stroke-width=".4"/><path d="M81,-123L84,-123L89,-121L91,-121L91,-122L95,-122L96,-122L96,-119L98,-119L99,-120L101,-120L102,-118L105,-118L107,-119L110,-120L111,-121L113,-121L114,-119L115,-118L118,-115L116,-113L116,-110L117,-111L118,-110L118,-108L120,-106L119,-106L118,-103L120,-100L121,-95L119,-94L118,-93L119,-92L118,-89L117,-89L115,-89L114,-86L112,-86L111,-88L111,-90L108,-95L106,-94L105,-94L103,-93L103,-96L102,-98L102,-100L101,-103L99,-105L93,-105L92,-104L90,-104L89,-102L88,-100L84,-97L81,-101L78,-104L77,-105L75,-106L74,-109L73,-111L71,-112L74,-116L76,-115L78,-117L80,-117L81,-118L80,-120L81,-121Z" fill="#E0E0E0" stroke="#fff" stroke-width=".4"/><path d="M60,-122L64,-123L66,-122L68,-123L81,-123L81,-121L80,-120L81,-118L80,-117L78,-117L76,-115L74,-116L71,-112L67,-115L65,-116L63,-117L63,-119L61,-120Z" fill="#E0E0E0" stroke="#fff" stroke-width=".4"/><path d="M117,-89L117,-87L118,-83L116,-80L118,-78L120,-78L123,-75L123,-72L123,-71L122,-66L120,-66L113,-69L107,-74L101,-78L97,-82L98,-85L99,-87L102,-90L105,-94L106,-94L108,-95L111,-90L111,-88L112,-86L114,-86L115,-89Z" fill="#E0E0E0" stroke="#fff" stroke-width=".4"/><path d="M84,-97L88,-100L89,-102L90,-104L92,-104L93,-105L99,-105L101,-103L102,-100L102,-98L103,-96L103,-93L105,-94L102,-90L99,-87L98,-85L97,-82L95,-83L90,-86L86,-89L85,-92Z" fill="#E0E0E0" stroke="#fff" stroke-width=".4"/><path d="M138,-107L138,-111L140,-114L139,-117L145,-123L146,-128L148,-129L151,-128L154,-130L155,-132L160,-135L162,-137L168,-140L172,-141L174,-140L178,-140L178,-136L178,-133L182,-128L183,-125L190,-123L190,-118L189,-116L185,-116L184,-113L182,-112L176,-112L172,-113L170,-111L167,-112L155,-112L155,-108L156,-102L151,-104L148,-104L146,-102L143,-104L141,-106Z" fill="#E0E0E0" stroke="#fff" stroke-width=".4"/><path d="M364,-72L362,-71L357,-71L352,-72L350,-71L349,-70L346,-69L344,-71L336,-67L333,-68L332,-67L330,-63L325,-65L320,-65L315,-68L310,-70L306,-68L303,-64L303,-60L298,-60L294,-61L289,-58L286,-51L285,-53L285,-56L282,-59L279,-62L279,-65L275,-68L276,-70L275,-73L276,-79L277,-80L281,-87L286,-87L288,-89L289,-89L291,-87L299,-90L302,-93L306,-95L305,-98L307,-98L314,-98L320,-101L325,-109L329,-112L333,-113L334,-110L338,-105L338,-103L337,-100L337,-97L340,-95L345,-92L349,-90L349,-87L353,-84L356,-81L358,-77L363,-74Z" fill="#E0E0E0" stroke="#fff" stroke-width=".4"/><path d="M303,-60L302,-56L300,-52L299,-48L298,-41L298,-37L297,-35L297,-33L296,-30L292,-27L289,-23L286,-17L286,-11L284,-9L280,-6L276,-1L273,-2L273,-4L269,-4L267,-2L265,-3L262,-5L260,-4L258,-1L252,-8L257,-12L255,-16L257,-18L262,-19L262,-22L266,-19L272,-18L274,-22L275,-26L274,-32L271,-36L274,-44L272,-45L267,-45L265,-48L266,-51L274,-51L280,-49L285,-47L286,-51L289,-58L294,-61L298,-60Z" fill="#E0E0E0" stroke="#fff" stroke-width=".4"/><path d="M253,-51L256,-52L261,-51L265,-52L266,-51L265,-48L267,-45L272,-45L274,-44L271,-36L274,-32L275,-26L274,-22L272,-18L266,-19L262,-22L262,-19L257,-18L255,-16L257,-12L252,-8L245,-15L240,-21L236,-28L236,-30L238,-32L240,-37L241,-42L243,-43L253,-43Z" fill="#E0E0E0" stroke="#fff" stroke-width=".4"/><path d="M242,-51L253,-51L253,-43L243,-43L241,-42L240,-44Z" fill="#E0E0E0" stroke="#fff" stroke-width=".4"/><path d="M387,22L390,24L393,25L397,26L401,28L405,32L406,37L405,39L404,45L405,51L403,53L401,60L404,62L384,68L384,73L379,74L375,77L374,79L372,80L366,86L362,90L360,90L357,90L350,89L348,88L348,88L346,86L341,86L336,87L331,83L326,77L327,54L341,54L340,52L341,49L340,46L341,42L340,40L343,40L343,43L346,42L351,43L353,46L359,47L363,45L364,49L370,50L372,53L375,57L380,57L380,49L378,50L373,48L371,46L372,39L373,31L372,28L374,23L375,23L385,21Z" fill="#E0E0E0" stroke="#fff" stroke-width=".4"/><path d="M401,28L408,30L409,32L412,35L414,44L412,50L414,59L416,59L419,61L421,66L422,76L419,77L417,82L412,78L412,73L413,69L413,66L410,65L408,65L404,62L401,60L403,53L405,51L404,45L405,39L406,37L405,32Z" fill="#E0E0E0" stroke="#fff" stroke-width=".4"/><path d="M397,156L395,159L391,160L387,156L387,153L389,150L389,148L391,148L395,149L396,152Z" fill="#E0E0E0" stroke="#fff" stroke-width=".4"/><path d="M265,-3L263,-1L261,1L261,4L259,4L258,-1L260,-4L262,-5ZM260,7L263,6L265,6L268,5L288,5L290,10L292,14L293,17L296,20L300,20L303,19L307,20L308,18L309,14L314,14L314,12L317,12L317,15L325,15L325,19L327,22L326,26L326,30L329,33L328,41L330,41L333,41L337,40L340,40L341,42L340,46L341,49L340,52L341,54L327,54L326,77L331,83L336,87L323,90L306,89L301,86L273,86L272,87L268,83L264,83L260,84L256,86L256,81L257,75L259,68L259,65L262,59L263,56L267,51L269,48L270,43L270,39L268,36L266,32L264,28L265,27L267,24L265,17L263,12L260,8Z" fill="#E0E0E0" stroke="#fff" stroke-width=".4"/><path d="M386,-19L386,-16L387,-15L387,-12L386,-11L383,-7L381,-5L378,-4L377,-13L376,-16L380,-15L382,-19Z" fill="#E0E0E0" stroke="#fff" stroke-width=".4"/><path d="M517,51L519,54L521,59L522,67L523,71L523,74L522,76L519,72L518,74L519,80L519,83L517,84L516,90L514,99L510,109L506,123L503,133L500,142L495,144L489,147L485,145L479,143L477,138L477,132L474,126L474,120L475,115L478,114L478,111L481,106L482,101L480,98L479,93L479,86L481,82L482,78L485,78L489,76L492,75L495,75L499,71L504,66L506,63L505,60L508,60L512,56L512,51L515,48Z" fill="#E0E0E0" stroke="#fff" stroke-width=".4"/><path d="M60,-130L68,-130L69,-132L71,-132L74,-130L76,-130L79,-132L80,-129L77,-128L74,-128L71,-130L69,-128L67,-128L66,-127L59,-127Z" fill="#E0E0E0" stroke="#fff" stroke-width=".4"/><path d="M116,-232L116,-234L116,-234L116,-243L127,-249L134,-250L139,-252L142,-256L150,-260L150,-266L154,-266L157,-269L166,-271L168,-274L166,-276L164,-284L163,-289L161,-295L167,-299L175,-301L179,-304L186,-307L197,-309L209,-309L212,-308L219,-311L226,-311L229,-309L234,-310L232,-306L233,-297L232,-290L227,-286L228,-280L234,-275L234,-273L238,-269L241,-255L243,-248L243,-244L242,-238L243,-234L242,-230L242,-225L240,-222L244,-216L244,-213L247,-209L250,-210L255,-207L258,-202L235,-188L215,-173L205,-170L197,-169L197,-174L194,-175L190,-177L188,-181L165,-197L142,-213Z" fill="#E0E0E0" stroke="#fff" stroke-width=".4"/><path d="M531,-208L532,-208L533,-206L538,-207L544,-207L548,-207L553,-212L558,-217L562,-222L563,-219L564,-213L561,-213L560,-208L561,-207L558,-206L558,-202L556,-199L556,-196L555,-195L534,-199L531,-206Z" fill="#E0E0E0" stroke="#fff" stroke-width=".4"/><path d="M556,-196L556,-199L558,-202L558,-206L561,-207L560,-208L561,-213L564,-213L567,-208L571,-205L576,-204L580,-203L583,-198L585,-196L588,-195L588,-193L585,-189L584,-187L581,-184L579,-179L576,-180L574,-178L573,-174L574,-169L573,-169L570,-169L566,-166L565,-162L563,-161L559,-161L556,-159L557,-156L553,-154L549,-155L545,-152L542,-152L539,-157L534,-169L555,-176L559,-191ZM563,-219L562,-222L564,-224L565,-224L564,-220Z" fill="#E0E0E0" stroke="#fff" stroke-width=".4"/><path d="M883,-120L881,-129L885,-135L894,-136L901,-135L907,-132L910,-137L916,-134L917,-130L917,-121L905,-116L908,-112L901,-111L895,-108L889,-109L886,-113Z" fill="#E0E0E0" stroke="#fff" stroke-width=".4"/><path d="M901,-135L894,-136L885,-135L881,-129L883,-120L877,-123L871,-123L872,-129L866,-129L865,-121L861,-111L859,-105L860,-99L864,-99L867,-93L868,-87L872,-83L876,-82L880,-78L877,-76L873,-75L872,-78L867,-81L865,-80L863,-83L862,-86L858,-90L855,-93L853,-89L852,-93L853,-98L855,-104L858,-112L862,-118L859,-125L859,-128L859,-132L854,-137L852,-141L855,-142L857,-149L854,-153L850,-159L847,-165L850,-166L853,-174L858,-174L862,-178L866,-179L869,-177L869,-173L874,-172L872,-165L872,-158L879,-162L881,-161L886,-161L887,-164L892,-163L897,-158L898,-150L903,-144L903,-138Z" fill="#E0E0E0" stroke="#fff" stroke-width=".4"/><path d="M916,-134L910,-137L907,-132L901,-135L903,-138L903,-144L898,-150L897,-158L892,-163L887,-164L886,-161L881,-161L879,-162L872,-158L872,-165L874,-172L869,-173L869,-177L866,-179L867,-182L873,-187L874,-185L877,-185L876,-193L880,-195L884,-189L887,-182L895,-182L898,-175L894,-174L892,-171L900,-167L906,-158L910,-152L915,-147L917,-142Z" fill="#E0E0E0" stroke="#fff" stroke-width=".4"/><path d="M866,-179L862,-178L858,-174L853,-174L850,-166L847,-165L850,-159L854,-153L857,-149L855,-142L852,-141L854,-137L859,-132L859,-128L859,-125L862,-118L858,-112L855,-104L854,-110L856,-115L854,-119L855,-127L852,-130L850,-139L848,-148L845,-154L841,-150L833,-145L829,-146L825,-148L827,-156L826,-163L820,-172L821,-174L817,-175L812,-181L812,-187L814,-186L814,-191L818,-193L817,-196L819,-199L819,-207L824,-205L827,-211L828,-215L831,-221L831,-226L840,-231L845,-230L845,-234L847,-236L846,-239L850,-239L853,-235L856,-233L856,-227L856,-221L849,-214L848,-205L856,-207L857,-200L862,-198L860,-192L865,-189L868,-188L873,-190L873,-187L867,-182Z" fill="#E0E0E0" stroke="#fff" stroke-width=".4"/><path d="M895,-108L901,-111L908,-112L905,-116L917,-121L917,-130L916,-134L917,-142L915,-147L910,-152L906,-158L900,-167L892,-171L894,-174L898,-175L895,-182L887,-182L884,-189L880,-195L884,-196L889,-196L896,-197L902,-201L905,-198L911,-197L910,-193L913,-190L920,-188L911,-181L905,-174L904,-169L909,-162L916,-152L922,-148L926,-142L929,-129L928,-117L923,-112L915,-107L909,-102L900,-95L898,-99L900,-104Z" fill="#E0E0E0" stroke="#fff" stroke-width=".4"/><path d="M846,-239L847,-236L845,-234L845,-230L840,-231L831,-226L831,-221L828,-215L827,-211L824,-205L819,-207L819,-199L817,-196L818,-193L814,-191L811,-203L809,-203L808,-198L804,-202L806,-207L809,-207L812,-213L808,-215L802,-215L795,-216L795,-221L791,-221L786,-225L784,-219L789,-215L784,-213L783,-210L787,-208L786,-203L788,-198L789,-191L788,-189L784,-189L775,-187L775,-182L772,-177L762,-172L754,-164L749,-159L742,-155L742,-151L739,-149L732,-147L729,-147L727,-141L729,-132L729,-126L726,-119L726,-107L722,-107L719,-102L721,-99L715,-97L713,-93L710,-91L703,-97L700,-107L698,-114L695,-117L692,-124L690,-133L689,-137L682,-147L680,-161L677,-170L678,-179L676,-186L666,-182L661,-183L652,-192L656,-194L654,-197L645,-204L650,-209L665,-209L664,-215L660,-219L659,-225L655,-228L662,-237L670,-236L678,-244L682,-252L689,-260L688,-266L694,-271L689,-275L686,-280L684,-288L687,-291L698,-289L705,-290L712,-298L719,-288L719,-281L722,-277L721,-273L716,-274L718,-265L725,-260L735,-254L730,-250L728,-243L734,-240L741,-236L750,-232L759,-231L763,-227L769,-226L777,-224L783,-224L783,-227L782,-232L783,-236L787,-237L788,-231L788,-230L794,-227L799,-228L804,-227L810,-228L810,-232L808,-235L813,-236L819,-242L827,-247L833,-245L838,-248L841,-243L839,-240Z" fill="#E0E0E0" stroke="#fff" stroke-width=".4"/><path d="M814,-191L814,-186L812,-187L812,-181L810,-185L810,-189L809,-192L806,-197L799,-197L800,-194L798,-190L795,-191L794,-190L792,-191L789,-191L788,-198L786,-203L787,-208L783,-210L784,-213L789,-215L784,-219L786,-225L791,-221L795,-221L795,-216L802,-215L808,-215L812,-213L809,-207L806,-207L804,-202L808,-198L809,-203L811,-203Z" fill="#E0E0E0" stroke="#fff" stroke-width=".4"/><path d="M1194,273L1198,274L1198,285L1196,288L1195,295L1193,293L1188,299L1187,299L1182,299L1178,291L1177,284L1173,276L1173,272L1178,273L1185,276L1188,275ZM1045,199L1038,204L1032,205L1031,210L1028,213L1022,213L1018,214L1012,213L1007,213L1002,214L998,218L996,218L992,220L989,223L984,223L979,223L972,217L968,216L969,211L972,210L973,208L973,205L974,199L973,194L969,186L968,182L969,177L966,172L966,170L963,167L962,161L958,154L957,151L960,154L958,147L961,150L963,153L963,149L959,143L959,140L957,138L958,134L959,132L960,128L960,124L962,118L963,124L966,119L971,116L975,113L980,110L983,110L985,111L991,108L995,107L996,106L998,105L1001,105L1009,103L1012,100L1014,96L1018,92L1019,89L1019,85L1024,79L1026,85L1029,84L1027,81L1029,77L1032,79L1033,73L1037,70L1038,67L1042,66L1042,64L1045,64L1045,63L1048,62L1051,61L1057,64L1060,68L1065,68L1069,69L1068,65L1071,59L1074,57L1073,56L1076,52L1080,49L1084,50L1089,49L1089,45L1084,43L1088,42L1093,43L1096,46L1102,48L1104,47L1108,50L1112,48L1115,48L1116,47L1120,50L1118,54L1115,57L1113,57L1114,60L1112,64L1109,67L1110,69L1115,73L1120,75L1124,78L1129,82L1131,82L1134,84L1136,86L1142,89L1147,86L1148,82L1149,79L1150,75L1152,69L1151,66L1152,64L1151,60L1152,55L1153,53L1152,51L1154,47L1155,43L1155,41L1158,38L1160,42L1160,46L1162,47L1162,50L1165,54L1165,58L1165,60L1168,66L1172,63L1174,66L1178,69L1177,72L1178,78L1179,82L1181,83L1183,89L1182,93L1185,98L1192,101L1197,105L1202,108L1201,110L1205,115L1207,123L1210,121L1213,124L1215,123L1216,131L1221,136L1224,138L1229,145L1231,151L1231,155L1231,160L1234,167L1234,174L1233,177L1231,184L1231,189L1230,195L1226,202L1221,206L1219,212L1217,217L1214,224L1212,228L1210,234L1209,240L1210,243L1206,246L1198,246L1192,250L1188,253L1184,257L1178,253L1174,252L1175,247L1172,249L1166,255L1160,253L1156,251L1152,251L1145,248L1141,243L1139,236L1138,232L1134,229L1128,228L1130,223L1128,217L1125,223L1119,225L1122,220L1123,215L1126,211L1126,205L1120,212L1116,215L1113,221L1108,218L1108,214L1103,208L1100,204L1101,203L1092,198L1087,197L1081,193L1068,194L1060,197L1052,200Z" fill="#E0E0E0" stroke="#fff" stroke-width=".4"/><path d="M739,-88L738,-80L735,-78L729,-77L726,-82L725,-92L728,-104L733,-100L736,-95Z" fill="#E0E0E0" stroke="#fff" stroke-width=".4"/><path d="M930,-163L925,-165L924,-172L928,-175L935,-177L939,-177L941,-174L938,-171L936,-167ZM729,-358L728,-364L733,-366L727,-383L740,-387L744,-389L749,-407L763,-404L766,-408L767,-418L772,-419L778,-426L780,-427L782,-420L788,-414L798,-411L803,-402L800,-391L802,-386L811,-385L820,-383L828,-377L833,-376L836,-368L840,-362L847,-362L862,-360L871,-361L877,-360L888,-354L896,-354L899,-351L907,-356L918,-360L929,-360L937,-363L942,-368L946,-372L945,-375L943,-378L947,-385L951,-384L958,-382L965,-387L975,-391L980,-397L985,-400L995,-402L1000,-400L1001,-404L995,-411L989,-414L984,-411L977,-412L973,-411L972,-415L977,-426L980,-434L988,-430L998,-436L998,-441L1004,-453L1008,-456L1008,-462L1004,-465L1010,-471L1018,-473L1027,-473L1038,-470L1044,-466L1048,-454L1051,-449L1053,-443L1056,-432L1068,-429L1076,-421L1078,-412L1089,-412L1095,-416L1106,-419L1103,-409L1100,-406L1098,-395L1093,-385L1085,-387L1079,-383L1081,-375L1080,-364L1076,-364L1076,-359L1072,-364L1069,-359L1058,-355L1059,-350L1053,-351L1050,-353L1045,-347L1038,-342L1032,-336L1023,-334L1017,-329L1010,-327L1014,-331L1012,-335L1018,-341L1014,-345L1008,-342L1000,-336L996,-330L989,-330L986,-326L989,-320L995,-318L995,-314L1001,-312L1008,-318L1015,-315L1019,-314L1020,-310L1010,-307L1007,-303L1000,-299L997,-293L1004,-288L1007,-280L1011,-272L1016,-266L1016,-260L1011,-258L1013,-254L1017,-251L1016,-245L1014,-238L1011,-238L1005,-229L1000,-219L993,-210L984,-203L974,-197L967,-196L962,-193L960,-195L956,-191L947,-188L939,-187L937,-179L933,-178L931,-184L933,-187L924,-189L920,-188L913,-190L910,-193L911,-197L905,-198L902,-201L896,-197L889,-196L884,-196L880,-195L876,-193L877,-185L874,-185L873,-187L873,-190L868,-188L865,-189L860,-192L862,-198L857,-200L856,-207L848,-205L849,-214L856,-221L856,-227L856,-233L853,-235L850,-239L846,-239L839,-240L841,-243L838,-248L833,-245L827,-247L819,-242L813,-236L808,-235L805,-237L801,-237L796,-239L792,-237L788,-231L787,-237L783,-236L775,-237L767,-238L762,-242L756,-243L754,-247L750,-248L743,-253L737,-256L735,-254L725,-260L718,-265L716,-274L721,-273L722,-277L719,-281L719,-288L712,-298L701,-301L699,-308L694,-312L692,-314L691,-319L692,-322L687,-324L685,-324L683,-332L685,-334L684,-336L691,-340L696,-342L703,-341L706,-347L714,-348L717,-351L728,-356Z" fill="#E0E0E0" stroke="#fff" stroke-width=".4"/><path d="M1008,-124L1005,-129L1011,-129L1013,-126L1011,-120ZM1021,-105L1022,-107L1023,-111L1027,-111L1026,-107L1031,-113L1030,-107L1028,-104L1026,-100L1023,-98L1019,-103ZM1047,-94L1047,-89L1048,-85L1045,-79L1043,-86L1040,-82L1042,-77L1040,-74L1032,-78L1030,-83L1032,-86L1028,-90L1025,-87L1022,-87L1017,-83L1016,-85L1019,-91L1023,-93L1027,-96L1029,-93L1034,-94L1036,-98L1040,-98L1040,-103L1046,-100L1046,-96ZM992,-100L983,-93L987,-98L992,-103L996,-107L999,-114L1001,-109L996,-105ZM1019,-163L1018,-160L1020,-155L1018,-149L1014,-147L1013,-141L1015,-135L1018,-135L1021,-135L1030,-131L1029,-128L1032,-126L1031,-123L1025,-126L1023,-130L1021,-127L1017,-131L1011,-130L1007,-132L1007,-135L1010,-137L1008,-138L1007,-136L1003,-140L1002,-143L1002,-150L1005,-148L1005,-159L1008,-165L1012,-165L1016,-163L1018,-165ZM1017,-115L1016,-118L1020,-116L1024,-116L1024,-113L1021,-110L1017,-108L1016,-111ZM1041,-120L1043,-112L1037,-114L1037,-112L1039,-107L1036,-106L1036,-111L1033,-111L1032,-115L1036,-115L1036,-117L1032,-123L1039,-123Z" fill="#E0E0E0" stroke="#fff" stroke-width=".4"/><path d="M865,-80L867,-81L872,-78L873,-75L877,-76L880,-78L881,-78L885,-74L888,-69L889,-64L888,-61L889,-59L889,-55L891,-53L894,-47L894,-44L889,-44L883,-49L874,-55L874,-58L870,-63L869,-68L866,-72L867,-77ZM988,-64L982,-65L974,-65L972,-57L969,-55L966,-45L960,-44L954,-46L950,-45L946,-42L942,-42L937,-41L933,-45L931,-49L937,-47L942,-48L943,-54L946,-55L954,-57L959,-62L963,-67L966,-63L967,-66L971,-65L971,-70L971,-73L977,-78L980,-83L983,-83L987,-80L987,-77L991,-75L997,-73L997,-70L992,-70L993,-66Z" fill="#E0E0E0" stroke="#fff" stroke-width=".4"/><path d="M971,-73L971,-70L971,-65L967,-66L966,-63L963,-67L966,-69Z" fill="#E0E0E0" stroke="#fff" stroke-width=".4"/><path d="M427,-136L426,-139L429,-149L430,-154L432,-156L437,-158L440,-162L444,-153L446,-147L450,-143L459,-136L463,-132L467,-128L469,-126L472,-124L470,-122L467,-123L465,-125L462,-129L459,-131L457,-134L451,-137L447,-137L445,-138L441,-137L437,-140L435,-135Z" fill="#E0E0E0" stroke="#fff" stroke-width=".4"/><path d="M-226,107L-224,111L-224,121L-217,122L-214,121L-209,123L-208,125L-207,132L-206,135L-204,135L-201,134L-199,135L-199,139L-200,144L-201,148L-202,155L-208,161L-214,162L-222,161L-229,159L-222,147L-223,144L-230,141L-238,135L-244,134L-257,122L-254,113L-254,109L-250,103L-238,100L-232,101L-226,104Z" fill="#E0E0E0" stroke="#fff" stroke-width=".4"/><path d="M534,-169L539,-157L542,-152L537,-150L535,-147L535,-144L528,-141L517,-138L511,-133L508,-133L506,-133L502,-130L498,-129L492,-128L490,-128L488,-126L487,-126L486,-124L482,-124L480,-123L475,-123L473,-127L474,-131L473,-133L471,-139L469,-142L471,-142L470,-145L471,-147L470,-150L473,-152L473,-155L475,-159L477,-157L479,-157L487,-158L488,-157L495,-156L498,-157L499,-154L503,-155L508,-163L514,-166Z" fill="#E0E0E0" stroke="#fff" stroke-width=".4"/><path d="M416,-247L424,-246L427,-249L429,-251L434,-253L435,-255L437,-257L431,-265L444,-269L446,-270L454,-268L464,-262L484,-246L497,-245L503,-245L504,-241L509,-241L512,-234L515,-233L517,-230L521,-227L522,-223L521,-221L522,-218L524,-216L525,-214L526,-212L528,-210L530,-211L531,-208L531,-206L534,-199L555,-195L556,-196L559,-191L555,-176L534,-169L514,-166L508,-163L503,-155L499,-154L498,-157L495,-156L488,-157L487,-158L479,-157L477,-157L475,-159L473,-155L473,-152L470,-150L469,-153L467,-155L467,-158L463,-160L460,-167L458,-173L453,-178L450,-179L445,-186L444,-191L445,-195L441,-204L438,-207L434,-208L432,-213L432,-214L430,-218L428,-220L425,-226L421,-232L418,-237L414,-237L415,-241L416,-244Z" fill="#E0E0E0" stroke="#fff" stroke-width=".4"/><path d="M161,-295L163,-289L164,-284L166,-276L168,-274L166,-271L157,-269L154,-266L150,-266L150,-260L142,-256L139,-252L134,-250L127,-249L116,-243L116,-234L115,-234L115,-230L111,-230L108,-228L105,-228L103,-229L97,-228L95,-222L93,-221L89,-212L80,-204L77,-193L75,-190L74,-187L58,-187L58,-187L58,-190L61,-192L63,-196L63,-199L65,-204L69,-209L71,-210L73,-214L73,-218L76,-223L80,-226L85,-234L85,-234L88,-237L95,-238L100,-243L104,-245L110,-252L108,-262L110,-269L111,-273L116,-279L123,-283L128,-286L132,-295L135,-300L140,-300L144,-296L150,-297L158,-295Z" fill="#E0E0E0" stroke="#fff" stroke-width=".4"/><path d="M430,-191L402,-191L376,-191L348,-191L348,-219L348,-246L346,-253L348,-258L346,-261L349,-265L358,-265L365,-263L372,-261L375,-259L380,-262L383,-264L389,-265L394,-264L396,-260L397,-263L403,-261L408,-260L412,-262L416,-251L416,-249L414,-245L413,-239L411,-235L409,-234L407,-236L404,-240L399,-251L398,-251L401,-242L405,-234L411,-222L413,-218L415,-214L422,-205L420,-204L420,-199L428,-193Z" fill="#E0E0E0" stroke="#fff" stroke-width=".4"/><path d="M348,-191L348,-176L340,-176L340,-173L312,-187L285,-202L278,-197L273,-195L269,-199L258,-202L255,-207L250,-210L247,-209L244,-213L244,-216L240,-222L242,-225L242,-230L243,-234L242,-238L243,-244L243,-248L241,-255L244,-257L245,-260L244,-264L249,-267L251,-269L254,-272L255,-278L263,-275L266,-276L271,-274L281,-271L284,-264L290,-262L300,-259L307,-255L310,-257L314,-260L312,-267L314,-271L319,-274L324,-275L333,-274L336,-270L338,-270L340,-269L347,-268L349,-265L346,-261L348,-258L346,-253L348,-246L348,-219Z" fill="#E0E0E0" stroke="#fff" stroke-width=".4"/><path d="M505,-91L485,-70L476,-70L470,-65L466,-65L464,-63L459,-63L457,-65L450,-62L448,-59L444,-60L442,-60L440,-60L438,-60L430,-66L425,-66L422,-68L422,-72L419,-74L415,-81L412,-83L410,-85L407,-89L403,-89L405,-93L409,-93L410,-96L410,-102L412,-109L415,-111L416,-114L419,-119L423,-123L425,-130L427,-136L435,-135L437,-140L441,-137L445,-138L447,-137L451,-137L457,-134L459,-131L462,-129L465,-125L467,-123L465,-120L463,-116L463,-114L463,-112L467,-112L469,-113L470,-111L469,-109L471,-105L474,-102L477,-99L499,-91Z" fill="#E0E0E0" stroke="#fff" stroke-width=".4"/><path d="M467,-123L470,-122L472,-124L474,-122L474,-119L470,-117L473,-115L470,-111L469,-113L467,-112L463,-112L463,-114L463,-116L465,-120Z" fill="#E0E0E0" stroke="#fff" stroke-width=".4"/><path d="M513,-115L513,-115L513,-112L513,-105L513,-101L510,-97L505,-91L499,-91L477,-99L474,-102L471,-105L469,-109L470,-111L473,-115L475,-114L477,-111L480,-108L483,-108L490,-110L497,-111L503,-113L507,-113L509,-114Z" fill="#E0E0E0" stroke="#fff" stroke-width=".4"/><path d="M409,-29L395,-28L388,-29L385,-28L381,-26L379,-26L379,-31L381,-34L381,-40L383,-43L386,-46L388,-48L390,-51L388,-52L388,-60L391,-62L395,-60L401,-62L406,-62L410,-65L413,-60L414,-57L417,-49L415,-44L411,-39L409,-36Z" fill="#E0E0E0" stroke="#fff" stroke-width=".4"/><path d="M385,-28L388,-24L388,-20L386,-19L382,-19L380,-15L376,-16L376,-20L377,-20L377,-24L379,-26L381,-26Z" fill="#E0E0E0" stroke="#fff" stroke-width=".4"/><path d="M388,-60L382,-64L380,-67L376,-66L373,-66L371,-65L368,-66L364,-72L363,-74L358,-77L356,-81L353,-84L349,-87L349,-90L345,-92L340,-95L342,-96L345,-97L346,-103L348,-107L353,-108L354,-106L358,-102L360,-101L362,-102L367,-102L368,-101L375,-101L375,-102L379,-103L380,-105L382,-107L388,-103L392,-103L395,-109L399,-112L398,-117L397,-119L401,-119L401,-121L404,-120L404,-115L404,-110L408,-107L409,-105L409,-101L410,-101L410,-96L409,-93L405,-93L403,-89L407,-89L410,-85L412,-83L415,-81L419,-74L414,-69L410,-65L406,-62L401,-62L395,-60L391,-62Z" fill="#E0E0E0" stroke="#fff" stroke-width=".4"/></g><g clip-path="url(#v)"><path d="M391.1,123.0L392.1,122.3L393.1,121.2L394.3,119.9L395.3,118.8L396.2,117.8L397.4,116.4L398.6,115.1L398.9,114.9L399.0,114.8L398.5,113.6L399.4,112.3L399.4,111.4L399.4,110.5L399.5,110.1L399.7,109.8L400.7,109.1L401.4,107.9L402.1,106.9L402.9,105.2L403.0,104.8L403.0,104.3L402.8,103.8L402.2,102.8L401.8,102.0L401.4,100.8L401.8,99.7L401.9,99.1L401.9,98.7L401.8,98.4L401.3,98.1L401.0,98.0L400.9,97.5L400.9,97.0L401.1,96.7L402.0,96.2L402.2,96.0L402.3,95.7L402.3,95.3L402.6,94.3L402.9,93.3L402.9,92.9L402.8,92.6L402.7,92.1L402.7,91.3L402.6,89.0L402.8,86.6L402.8,85.3L402.2,83.7L402.1,82.6L402.5,81.8L402.6,81.4L402.3,81.3L401.6,81.3L401.2,81.1L400.5,80.5L399.2,80.0L397.8,79.5L395.7,79.3L393.9,77.8L392.6,77.5L392.1,77.4L390.8,76.4L388.8,76.4L386.6,76.3L385.3,76.2L385.1,76.1L385.0,74.8L385.0,73.7L384.9,72.7L384.7,71.6L384.4,71.2L384.0,70.4L383.8,69.6L383.8,69.2L383.9,69.0L385.4,68.5L386.0,68.2L386.9,67.8L388.6,67.4L390.1,66.9L391.4,66.5L392.9,66.1L393.5,65.8L394.2,65.5L395.9,64.9L396.4,64.7L397.5,64.4L397.9,64.3L399.9,63.6L402.1,62.9L402.9,62.6L404.4,62.1L404.6,62.3L405.6,64.1L406.4,65.1L407.4,66.0L407.5,66.0L407.8,65.8L408.2,65.7L409.6,65.4L410.2,65.4L410.6,65.2L411.3,65.0L412.1,64.9L412.4,65.0L413.3,66.2L413.5,67.2L413.7,68.6L413.7,69.2L413.7,70.1L413.6,71.2L412.9,72.5L412.7,73.2L412.3,74.1L411.8,74.6L411.6,75.0L411.6,75.5L411.8,75.8L412.4,76.4L412.6,76.8L412.6,77.2L412.6,77.7L412.7,78.0L412.9,78.2L413.5,78.6L414.1,79.4L415.1,80.3L416.3,81.7L416.9,82.2L417.3,82.3L417.5,82.7L417.4,83.3L417.1,83.6L417.2,84.0L417.4,84.3L417.6,84.4L418.2,84.4L418.6,84.3L418.7,84.2L418.7,82.1L418.3,80.9L418.0,80.4L417.9,80.3L418.0,79.9L418.4,79.0L418.8,78.0L419.0,77.6L419.2,77.4L420.9,77.2L421.7,76.9L421.9,76.7L422.2,76.0L422.4,74.0L422.5,72.1L422.3,71.0L422.5,69.4L422.9,68.3L422.7,68.1L422.6,66.8L421.5,65.3L420.1,63.4L419.3,62.4L418.4,61.3L416.8,59.5L416.1,58.8L415.7,58.6L414.4,58.3L414.1,58.0L413.7,57.4L413.6,56.4L413.6,55.7L413.5,54.4L413.2,52.5L413.1,52.0L412.7,50.6L412.3,49.3L412.3,49.0L412.4,48.7L413.0,47.7L413.5,47.0L413.7,46.7L414.0,45.6L414.1,45.2L414.4,44.9L415.5,44.8L416.5,44.9L418.0,44.8L419.6,44.9L419.9,44.9L420.2,45.1L420.6,45.0L421.1,44.9L421.6,44.5L422.2,44.0L423.0,44.0L424.2,44.6L424.9,45.1L425.0,45.5L425.7,45.8L427.2,45.8L428.3,45.6L429.0,45.1L429.7,44.8L430.4,44.8L431.0,45.0L431.3,45.4L432.1,45.6L433.1,45.8L434.3,45.6L435.6,44.9L436.3,44.2L436.4,43.5L436.6,43.0L436.9,42.9L437.6,42.8L438.7,42.8L439.6,43.0L440.8,43.7L441.6,43.2L442.9,42.4L444.2,42.0L445.5,42.0L446.5,41.7L447.4,41.0L448.2,40.6L449.1,40.5L450.0,40.2L451.1,39.5L452.4,38.6L453.6,37.6L454.4,37.0L454.8,37.8L455.4,38.4L455.1,38.8L454.6,39.1L455.3,39.6L454.8,40.3L454.7,40.8L454.9,41.0L455.0,41.3L454.6,42.1L454.1,42.7L454.0,43.1L454.4,44.0L454.2,45.4L454.6,46.7L454.7,47.4L454.9,47.9L454.7,48.7L454.7,50.0L454.8,50.6L454.6,51.3L455.0,51.5L455.2,52.3L455.2,53.2L455.0,53.7L454.3,54.2L454.2,54.4L454.2,54.8L455.1,54.8L455.2,55.3L455.1,55.7L455.2,56.5L455.0,57.0L455.2,57.5L455.0,58.2L455.1,58.7L455.1,59.3L455.3,60.9L455.3,62.9L455.4,63.2L455.7,63.4L456.1,63.5L456.1,64.1L455.6,64.8L455.6,65.2L455.7,65.8L456.2,65.0L456.6,65.0L456.9,65.3L456.8,65.8L456.9,66.0L456.9,66.5L457.0,67.1L457.0,67.6L456.6,68.0L456.1,68.6L456.0,69.2L456,69.6L455.7,69.7L455.5,69.9L455.7,70.5L455.7,71.0L455.1,72.5L453.4,74.6L452.6,75.3L452.0,76.1L452.0,76.5L451.9,76.7L451.1,77.9L450.3,78.1L449.8,78.4L450.1,79.4L449.6,79.6L448.6,80.4L446.0,82.0L445.6,82.3L444.9,83.3L444.0,83.5L443.5,83.8L442.6,83.9L442.4,83.8L442.1,83.8L441.8,84.0L440.1,84.7L438.4,85.2L438.0,85.4L437.8,85.8L436.3,86.3L434.1,87.6L432.2,88.8L430.9,90.0L430.5,90.2L430.1,90.6L430.0,91.3L429.8,91.6L428.8,92.9L427.4,94.4L427.1,94.9L426.5,95.7L426.4,96.3L425.9,96.4L425.4,95.9L425.3,96.9L424.9,97.0L424.5,96.8L423.5,97.3L422.6,97.9L421.3,99.1L419.3,101.6L416.4,103.9L416.0,104.0L415.7,104.0L414.8,103.1L414.3,103.1L414.8,103.6L415.1,104.0L415,104.7L415.0,105.9L414.7,108.2L414.7,108.7L415.1,109.4L415.9,110.2L416.6,111.2L417.6,114.1L417.6,115.6L418.6,117.4L418.6,118.3L419.0,120.3L419.0,122.0L418.9,123.0L419.4,123.4L419.6,123.0L419.5,122.4L419.6,121.4L419.9,120.9L420.2,121.0L420.2,121.5L420.4,121.9L420.5,122.3L420.5,122.8L420.1,124.9L420.2,125.8L420.7,127.2L420.2,128.9L419.3,132.8L419.3,133.5L419.5,133.8L419.9,133.9L420.1,133.4L420.4,133.4L420.5,133.7L420.1,135.5L419.8,136.3L418.5,138.3L417.8,139.1L416.7,139.9L414.1,141.2L408.7,143.1L406.6,144.0L405.4,144.6L402.7,146.3L401.5,147.5L401.1,148.9L400.6,149.5L400.1,150.3L400.5,150.9L400.9,151.5L401.4,151.8L401.6,152.1L401.9,152.3L402.2,151.2L402.4,150.9L402.7,150.9L402.5,152.2L402.2,156.6L402.2,156.8L401.4,156.8L400.1,156.8L399.4,156.8L398.5,156.9L397.5,156.6L396.9,156.7L396.8,154.2L396.6,153.7L396.4,152.9L396.4,152.4L396.5,151.9L396.5,151.1L396.5,150.4L395.9,150.0L395.7,149.9L395.6,149.3L395.5,148.5L396.0,147.4L395.9,145.3L396.0,144.6L396.0,143.2L396.0,141.4L396.0,139.8L396.0,138.5L395.8,137.9L395.7,137.5L395.4,136.8L395.1,135.3L394.7,134.2L394.2,133.5L394.0,133.1L393.8,132.6L393.3,131.7L392.9,131.1L392.8,130.7L392.8,129.6L392.4,127.6L392.1,126.2L391.6,124.6L391.2,123.6L391.2,123.4ZM414.3,47.9L414.2,47.7L413.9,47.6L413.7,47.7L413.6,48.0L413.9,48.3L414.2,48.3ZM414.8,48.6L415,48.5L415.1,48.3L415.1,48.1L414.9,47.9L414.8,47.9L414.6,47.9L414.5,48.2L414.4,48.5L414.6,48.7Z" fill="#4ECDC4" stroke="#2C3E50" stroke-width="1"/></g><circle cx="400.0" cy="150.0" r="4" fill="#E74C3C" stroke="#fff" stroke-width="2"/><text x="400.0" y="140.0" text-anchor="middle" font-family="sans-serif" font-weight="700" font-size="10" fill="#2D3436">Maputo</text></svg>