<svg viewBox="0 0 800 300" xmlns="http://www.w3.org/2000/svg"><defs><clipPath id="v"><rect width="800" height="300"/></clipPath></defs><rect width="800" height="300" fill="#DCEEF8"/><g clip-path="url(#v)"><path d="M1867,101L1869,99L1873,102L1871,107L1865,108L1860,107L1860,103L1863,100ZM1884,92L1878,94L1873,96L1872,93L1876,91L1879,90L1884,87L1884,87L1884,92ZM-1396,87L-1396,87L-1396,87L-1394,87L-1395,91L-1396,92L-1396,92L-1396,87Z" fill="#E0E0E0" stroke="#fff" stroke-width=".4"/><path d="M553,-52L555,-51L588,-33L588,-28L602,-18L597,-7L598,-2L604,1L604,4L601,9L602,12L601,17L605,22L608,31L612,33L604,39L594,42L589,42L586,45L579,45L577,46L566,44L559,45L557,32L554,28L552,25L543,23L538,21L532,19L528,18L524,15L520,4L514,-2L512,-7L513,-12L512,-20L515,-20L519,-24L522,-29L525,-30L524,-33L523,-35L522,-39L525,-40L525,-46L522,-51L525,-52L535,-52Z" fill="#E0E0E0" stroke="#fff" stroke-width=".4"/><path d="M512,-20L513,-12L512,-7L514,-2L520,4L524,15L521,14L509,16L506,17L504,23L506,27L504,38L503,47L505,49L512,52L514,51L515,61L508,61L504,56L501,52L494,50L492,45L486,48L479,47L476,43L470,42L466,42L465,39L462,39L458,39L452,40L448,40L446,41L447,30L444,26L443,20L444,15L443,11L442,6L431,6L432,2L427,2L427,4L421,4L419,10L418,12L413,11L410,12L404,13L400,8L398,5L395,-1L393,-7L366,-8L363,-6L360,-7L357,-5L355,-8L358,-9L358,-13L359,-16L363,-17L365,-17L368,-20L373,-20L374,-17L377,-16L383,-21L388,-26L390,-29L390,-36L394,-45L398,-50L404,-54L405,-57L405,-61L407,-64L406,-69L407,-77L409,-83L412,-87L413,-93L413,-99L417,-104L422,-107L429,-104L435,-100L442,-100L449,-98L451,-103L452,-104L457,-103L467,-108L470,-106L473,-106L475,-108L478,-109L485,-108L491,-108L494,-109L499,-101L503,-100L506,-102L510,-101L515,-103L517,-99L525,-93L525,-82L528,-81L525,-78L522,-75L519,-71L517,-67L516,-59L514,-56L514,-49L511,-46L511,-41L510,-40L509,-35L511,-31Z" fill="#E0E0E0" stroke="#fff" stroke-width=".4"/><path d="M623,-46L618,-53L618,-86L626,-97L628,-100L634,-100L642,-106L654,-107L680,-134L686,-142L690,-148L690,-152L690,-162L690,-166L690,-166L693,-166L697,-167L702,-168L707,-171L710,-171L710,-169L709,-163L709,-159L708,-155L705,-145L701,-135L695,-123L687,-110L679,-100L669,-87L660,-80L646,-71L637,-64L627,-53L625,-48Z" fill="#E0E0E0" stroke="#fff" stroke-width=".4"/><path d="M602,-18L588,-28L588,-33L555,-51L553,-52L553,-62L556,-66L560,-72L564,-78L560,-89L559,-93L554,-100L560,-105L566,-111L571,-110L571,-105L574,-102L580,-102L592,-94L595,-94L597,-94L599,-93L605,-92L607,-96L616,-100L619,-97L626,-97L618,-86L618,-53L623,-46L617,-42L615,-38L611,-38L610,-31L607,-28L605,-21Z" fill="#E0E0E0" stroke="#fff" stroke-width=".4"/><path d="M468,-136L461,-140L458,-143L458,-146L459,-150L459,-153L454,-159L453,-163L453,-165L449,-168L449,-174L447,-177L444,-177L445,-180L448,-184L446,-188L449,-191L448,-193L450,-199L454,-206L462,-205L462,-243L462,-247L472,-247L472,-267L509,-267L544,-267L580,-267L583,-257L581,-255L583,-245L586,-234L589,-231L594,-228L590,-222L583,-221L580,-218L579,-212L575,-198L576,-194L575,-186L571,-177L566,-172L562,-165L561,-161L556,-158L554,-149L554,-140L554,-148L553,-148L553,-152L552,-156L547,-159L546,-166L547,-173L543,-174L542,-171L537,-171L539,-168L540,-163L535,-158L530,-151L525,-150L518,-155L514,-153L513,-151L509,-149L508,-147L499,-147L498,-149L491,-149L488,-148L486,-149L481,-154L479,-156L473,-155L470,-151L468,-143L465,-141L462,-140Z" fill="#E0E0E0" stroke="#fff" stroke-width=".4"/><path d="M462,-243L462,-205L454,-206L450,-199L448,-193L449,-191L446,-188L448,-184L445,-180L444,-177L447,-177L449,-174L449,-168L453,-165L453,-163L447,-162L442,-158L436,-148L427,-144L418,-144L416,-143L417,-140L412,-137L408,-133L397,-130L394,-132L393,-132L391,-130L384,-129L385,-131L382,-138L381,-142L377,-143L372,-148L374,-153L378,-152L380,-153L385,-152L380,-161L381,-167L380,-173L376,-179L377,-184L372,-184L372,-190L368,-193L372,-206L383,-215L384,-227L387,-247L389,-251L385,-254L385,-257L382,-260L380,-275L389,-281L425,-262Z" fill="#E0E0E0" stroke="#fff" stroke-width=".4"/><path d="M872,447L878,452L887,453L887,456L885,462L871,463L870,456L872,450Z" fill="#E0E0E0" stroke="#fff" stroke-width=".4"/><path d="M393,211L398,206L401,209L403,213L407,214L413,216L418,215L426,210L426,172L428,173L434,183L433,189L435,193L441,192L446,187L450,184L452,179L457,177L461,178L465,181L472,182L478,179L479,176L481,171L486,170L488,167L491,160L500,153L513,145L516,145L521,147L524,146L529,147L533,161L535,168L534,179L534,183L530,181L527,182L526,185L524,188L524,192L529,197L535,196L537,192L543,192L541,199L540,208L538,213L532,218L530,219L526,225L523,230L518,238L508,249L501,255L495,260L485,264L480,265L479,268L474,266L469,269L459,266L454,268L450,267L441,272L433,273L427,277L423,278L419,274L416,274L412,269L412,270L411,267L411,261L408,254L411,252L410,243L404,233L400,224L400,224ZM508,215L504,212L500,214L495,218L490,224L497,232L500,231L502,228L507,226L509,223L512,218Z" fill="#E0E0E0" stroke="#fff" stroke-width=".4"/><path d="M508,215L512,218L509,223L507,226L502,228L500,231L497,232L490,224L495,218L500,214L504,212Z" fill="#E0E0E0" stroke="#fff" stroke-width=".4"/><path d="M-242,266L-244,260L-240,255L-246,247L-253,242L-262,235L-266,235L-275,227L-281,228L-268,214L-258,204L-252,199L-244,194L-244,186L-249,180L-253,182L-252,176L-250,170L-250,164L-254,163L-257,164L-260,164L-261,160L-262,151L-264,148L-270,145L-274,147L-283,145L-283,132L-286,127L-283,125L-284,119L-281,115L-279,107L-282,101L-287,99L-288,95L-286,89L-304,89L-307,78L-305,78L-305,74L-306,71L-307,66L-312,63L-318,63L-322,60L-328,58L-331,55L-342,53L-351,45L-351,39L-352,35L-351,28L-363,30L-368,33L-376,37L-378,40L-382,40L-389,39L-394,41L-398,40L-398,26L-405,31L-413,31L-417,26L-423,26L-421,22L-426,16L-430,8L-427,6L-427,2L-422,-1L-423,-5L-420,-9L-420,-13L-409,-19L-402,-21L-401,-22L-392,-22L-388,-47L-388,-51L-389,-56L-394,-59L-393,-66L-388,-67L-387,-67L-386,-70L-392,-71L-392,-77L-374,-76L-371,-80L-368,-77L-367,-71L-365,-72L-360,-68L-353,-68L-351,-71L-344,-73L-340,-75L-339,-79L-333,-81L-333,-83L-341,-84L-342,-90L-342,-96L-346,-98L-344,-99L-338,-98L-330,-95L-328,-98L-321,-99L-311,-102L-308,-106L-309,-109L-304,-109L-302,-107L-303,-103L-300,-101L-298,-97L-301,-94L-302,-86L-300,-82L-299,-77L-293,-73L-289,-73L-288,-74L-285,-75L-281,-76L-278,-79L-273,-78L-271,-78L-266,-78L-265,-79L-266,-81L-266,-84L-262,-83L-258,-84L-252,-82L-248,-80L-246,-83L-244,-82L-242,-80L-238,-80L-234,-84L-232,-91L-226,-99L-223,-99L-221,-94L-216,-78L-211,-77L-211,-71L-217,-63L-215,-60L-199,-59L-198,-50L-191,-56L-180,-52L-165,-47L-160,-42L-162,-37L-151,-39L-133,-35L-120,-35L-106,-27L-95,-17L-88,-14L-80,-14L-77,-11L-74,0L-72,6L-76,21L-80,27L-93,40L-99,51L-106,59L-108,59L-111,66L-110,83L-112,98L-113,104L-116,108L-118,121L-127,134L-129,144L-136,148L-138,154L-148,154L-162,158L-169,162L-179,165L-190,173L-197,183L-199,191L-197,196L-199,207L-201,212L-207,218L-217,236L-225,245L-232,250L-236,260Z" fill="#E0E0E0" stroke="#fff" stroke-width=".4"/><path d="M-226,-99L-232,-91L-234,-84L-238,-80L-242,-80L-244,-82L-246,-83L-248,-80L-252,-82L-250,-86L-249,-90L-248,-94L-251,-99L-252,-106L-247,-114L-244,-113L-237,-110L-228,-103ZM301,-581L305,-577L318,-575L314,-565L312,-556L310,-553L306,-555L306,-551L299,-544L299,-538L304,-540L307,-534L306,-530L309,-525L306,-521L308,-512L313,-510L312,-504L304,-497L286,-501L273,-497L272,-489L261,-488L251,-493L247,-491L231,-496L227,-501L232,-509L234,-534L224,-548L217,-555L203,-560L203,-570L214,-573L230,-570L227,-585L235,-579L257,-590L259,-602L267,-605L269,-600L273,-600L277,-594L283,-587L288,-588L296,-582L298,-581ZM324,-491L330,-496L331,-485L328,-476L324,-478L322,-487Z" fill="#E0E0E0" stroke="#fff" stroke-width=".4"/><path d="M529,147L524,146L521,147L516,145L513,145L507,141L500,139L497,133L497,130L493,129L483,118L480,113L478,111L475,103L485,104L488,105L491,105L496,99L504,91L507,90L508,87L513,83L520,82L521,86L528,85L533,87L535,90L539,90L544,93L544,105L542,112L541,119L543,122L542,128L541,129L538,136Z" fill="#E0E0E0" stroke="#fff" stroke-width=".4"/><path d="M513,145L500,153L491,160L488,167L486,170L481,171L479,176L478,179L472,182L465,181L461,178L457,177L452,179L450,184L446,187L441,192L435,193L433,189L434,183L428,173L426,172L426,143L435,143L435,108L442,108L456,104L459,108L465,105L468,105L473,102L475,103L478,111L480,113L483,118L493,129L497,130L497,133L500,139L507,141Z" fill="#E0E0E0" stroke="#fff" stroke-width=".4"/><path d="M92,-186L88,-193L84,-197L88,-199L92,-205L94,-210L98,-213L102,-212L106,-214L112,-214L116,-212L122,-209L127,-202L134,-196L134,-190L136,-184L139,-182L140,-178L139,-175L138,-175L133,-176L133,-175L131,-174L124,-177L120,-177L103,-177L100,-176L97,-176L92,-175L91,-182L99,-182L101,-183L103,-183L106,-185L110,-183L114,-183L118,-185L116,-188L113,-186L111,-186L107,-189L104,-189L102,-186Z" fill="#E0E0E0" stroke="#fff" stroke-width=".4"/><path d="M139,-175L140,-178L139,-182L136,-184L134,-190L134,-196L137,-197L138,-203L141,-203L147,-201L153,-202L156,-202L157,-204L194,-204L196,-211L194,-212L190,-253L186,-296L200,-296L230,-274L261,-253L263,-248L269,-246L273,-244L273,-238L283,-239L283,-217L278,-211L278,-205L269,-203L257,-202L254,-199L248,-199L242,-199L240,-200L235,-199L226,-195L224,-192L217,-188L216,-186L212,-184L208,-185L205,-183L204,-176L197,-169L197,-165L195,-161L195,-156L191,-155L189,-154L188,-157L185,-156L184,-157L182,-154L175,-154L172,-155L171,-155L168,-157L169,-160L168,-161L166,-160L166,-163L168,-166L164,-169L163,-172L161,-174L159,-174L157,-173L154,-172L152,-170L148,-170L145,-173L144,-173L141,-172L140,-172Z" fill="#E0E0E0" stroke="#fff" stroke-width=".4"/><path d="M89,-257L91,-260L127,-260L125,-274L127,-279L136,-280L135,-306L165,-305L165,-321L200,-296L186,-296L190,-253L194,-212L196,-211L194,-204L157,-204L156,-202L153,-202L147,-201L141,-203L138,-203L137,-197L134,-196L127,-202L122,-209L116,-212L112,-214L106,-214L102,-212L98,-213L94,-210L94,-215L96,-220L97,-229L96,-238L95,-243L96,-248L94,-253Z" fill="#E0E0E0" stroke="#fff" stroke-width=".4"/><path d="M269,-118L261,-117L259,-123L260,-145L258,-146L257,-151L254,-154L251,-157L253,-162L256,-163L258,-167L262,-168L264,-171L267,-173L270,-173L277,-168L277,-165L279,-159L277,-156L278,-153L274,-147L271,-145L269,-139L269,-133Z" fill="#E0E0E0" stroke="#fff" stroke-width=".4"/><path d="M380,-275L382,-260L385,-257L385,-254L389,-251L387,-247L384,-227L383,-215L372,-206L368,-193L372,-190L372,-184L377,-184L376,-179L374,-179L374,-176L372,-175L366,-186L364,-186L356,-181L349,-184L345,-184L342,-183L337,-183L331,-179L327,-179L315,-184L311,-181L307,-182L303,-185L294,-189L284,-188L282,-185L281,-180L278,-176L277,-168L270,-173L267,-173L264,-171L264,-177L254,-179L253,-184L248,-190L247,-194L248,-199L254,-199L257,-202L269,-203L278,-205L278,-211L283,-217L283,-239L296,-243L323,-262L354,-281L368,-277L373,-271Z" fill="#E0E0E0" stroke="#fff" stroke-width=".4"/><path d="M269,-118L269,-133L269,-139L271,-145L274,-147L278,-153L277,-156L279,-159L277,-165L277,-168L278,-176L281,-180L282,-185L284,-188L294,-189L303,-185L307,-182L311,-181L315,-184L327,-179L331,-179L337,-183L342,-183L345,-184L349,-184L356,-181L364,-186L366,-186L372,-175L374,-176L377,-172L376,-170L376,-167L368,-160L366,-154L364,-149L362,-147L361,-141L356,-137L354,-132L352,-129L351,-125L345,-122L340,-126L337,-125L331,-120L329,-120L324,-111L322,-105L312,-101L309,-102L305,-100L298,-100L293,-106L290,-112L284,-118L277,-118Z" fill="#E0E0E0" stroke="#fff" stroke-width=".4"/><path d="M376,-179L380,-173L381,-167L380,-161L385,-152L380,-153L378,-152L374,-153L372,-148L377,-143L381,-142L382,-138L385,-131L384,-129L379,-120L377,-118L376,-111L377,-107L376,-104L381,-99L381,-96L385,-91L389,-89L389,-84L390,-82L390,-77L382,-79L375,-81L364,-82L362,-82L357,-81L351,-82L347,-82L332,-82L334,-89L330,-95L326,-97L324,-101L322,-102L322,-105L324,-111L329,-120L331,-120L337,-125L340,-126L345,-122L351,-125L352,-129L354,-132L356,-137L361,-141L362,-147L364,-149L366,-154L368,-160L376,-167L376,-170L377,-172L374,-176L374,-179Z" fill="#E0E0E0" stroke="#fff" stroke-width=".4"/><path d="M253,-162L251,-157L254,-154L257,-151L258,-146L260,-145L259,-123L261,-117L254,-115L252,-118L250,-124L249,-129L251,-137L249,-140L248,-148L248,-154L244,-159L245,-162Z" fill="#E0E0E0" stroke="#fff" stroke-width=".4"/><path d="M245,-162L244,-159L248,-154L248,-148L249,-140L251,-137L249,-129L250,-124L252,-118L254,-115L240,-110L235,-107L226,-104L218,-107L219,-110L215,-118L217,-128L221,-136L219,-149L217,-156L218,-162L233,-162L237,-161L240,-163Z" fill="#E0E0E0" stroke="#fff" stroke-width=".4"/><path d="M171,-155L172,-155L175,-154L182,-154L184,-157L185,-156L188,-157L189,-154L191,-155L195,-156L199,-154L201,-151L205,-149L208,-151L212,-152L219,-149L221,-136L217,-128L215,-118L219,-110L218,-107L214,-107L208,-108L202,-108L191,-107L185,-104L176,-101L174,-101L175,-108L176,-110L175,-113L172,-117L169,-118L166,-120L168,-124L167,-129L167,-131L169,-131L169,-135L169,-137L170,-138L173,-139L171,-147L169,-151L169,-154Z" fill="#E0E0E0" stroke="#fff" stroke-width=".4"/><path d="M120,-177L124,-177L131,-174L133,-175L133,-176L138,-175L139,-175L140,-172L141,-172L144,-173L145,-173L148,-170L152,-170L154,-172L157,-173L159,-174L161,-174L163,-172L164,-169L168,-166L166,-163L166,-160L168,-161L169,-160L168,-157L171,-155L169,-154L169,-151L171,-147L173,-139L170,-138L169,-137L169,-135L169,-131L167,-131L165,-132L163,-128L161,-128L159,-130L159,-134L156,-139L153,-138L151,-138L149,-137L149,-141L147,-143L148,-146L146,-150L143,-153L136,-153L134,-151L131,-151L130,-149L129,-147L124,-143L120,-148L116,-152L114,-153L112,-155L111,-159L109,-161L107,-162L111,-167L113,-167L116,-168L118,-168L119,-169L118,-173L119,-174Z" fill="#E0E0E0" stroke="#fff" stroke-width=".4"/><path d="M92,-175L97,-176L100,-176L103,-177L120,-177L119,-174L118,-173L119,-169L118,-168L116,-168L113,-167L111,-167L107,-162L102,-166L98,-167L96,-169L96,-171L93,-173Z" fill="#E0E0E0" stroke="#fff" stroke-width=".4"/><path d="M167,-131L167,-129L168,-124L166,-120L169,-118L172,-117L175,-113L176,-110L175,-108L174,-101L172,-101L162,-105L154,-112L146,-117L140,-123L142,-126L143,-129L147,-134L151,-138L153,-138L156,-139L159,-134L159,-130L161,-128L163,-128L165,-132Z" fill="#E0E0E0" stroke="#fff" stroke-width=".4"/><path d="M124,-143L129,-147L130,-149L131,-151L134,-151L136,-153L143,-153L146,-150L148,-146L147,-143L149,-141L149,-137L151,-138L147,-134L143,-129L142,-126L140,-123L138,-124L131,-127L126,-132L125,-136Z" fill="#E0E0E0" stroke="#fff" stroke-width=".4"/><path d="M195,-156L195,-161L197,-165L197,-169L204,-176L205,-183L208,-185L212,-184L216,-186L217,-188L224,-192L226,-195L235,-199L240,-200L242,-199L248,-199L247,-194L248,-190L253,-184L254,-179L264,-177L264,-171L262,-168L258,-167L256,-163L253,-162L245,-162L240,-163L237,-161L233,-162L218,-162L217,-156L219,-149L212,-152L208,-151L205,-149L201,-151L199,-154Z" fill="#E0E0E0" stroke="#fff" stroke-width=".4"/><path d="M494,-109L491,-108L485,-108L478,-109L475,-108L473,-106L470,-106L467,-108L457,-103L452,-104L451,-103L449,-98L442,-100L435,-100L429,-104L422,-107L417,-104L413,-99L413,-93L407,-94L400,-95L395,-90L390,-82L389,-84L389,-89L385,-91L381,-96L381,-99L376,-104L377,-107L376,-111L377,-118L379,-120L384,-129L391,-130L393,-132L394,-132L397,-130L408,-133L412,-137L417,-140L416,-143L418,-144L427,-144L436,-148L442,-158L447,-162L453,-163L454,-159L459,-153L459,-150L458,-146L458,-143L461,-140L468,-136L473,-133L473,-130L479,-125L483,-121L486,-115L492,-112Z" fill="#E0E0E0" stroke="#fff" stroke-width=".4"/><path d="M413,-93L412,-87L409,-83L407,-77L406,-69L407,-64L405,-61L405,-57L404,-54L398,-50L394,-45L390,-36L390,-29L388,-26L383,-21L377,-16L374,-17L373,-20L368,-20L365,-17L363,-17L359,-21L357,-19L353,-15L345,-25L352,-30L349,-36L352,-38L358,-39L359,-43L364,-39L372,-39L375,-43L376,-49L375,-56L371,-61L374,-72L372,-74L365,-73L363,-78L364,-82L375,-81L382,-79L390,-77L390,-82L395,-90L400,-95L407,-94Z" fill="#E0E0E0" stroke="#fff" stroke-width=".4"/><path d="M347,-82L351,-82L357,-81L362,-82L364,-82L363,-78L365,-73L372,-74L374,-72L371,-61L375,-56L376,-49L375,-43L372,-39L364,-39L359,-43L358,-39L352,-38L349,-36L352,-30L345,-25L336,-34L330,-42L325,-51L325,-54L327,-57L329,-64L331,-70L334,-71L347,-71Z" fill="#E0E0E0" stroke="#fff" stroke-width=".4"/><path d="M332,-82L347,-82L347,-71L334,-71L331,-70L329,-72Z" fill="#E0E0E0" stroke="#fff" stroke-width=".4"/><path d="M524,15L528,18L532,19L538,21L543,23L547,28L549,35L548,38L546,45L548,53L545,56L542,65L547,68L519,75L520,82L513,83L508,87L507,90L504,91L496,99L491,105L488,105L485,104L475,103L473,102L473,102L469,100L463,99L456,101L450,95L444,87L444,57L463,58L462,54L464,51L462,46L463,42L462,39L465,39L466,42L470,42L476,43L479,47L486,48L492,45L494,50L501,52L504,56L508,61L515,61L514,51L512,52L505,49L503,47L504,38L506,27L504,23L506,17L509,16L521,14Z" fill="#E0E0E0" stroke="#fff" stroke-width=".4"/><path d="M543,23L552,25L554,28L557,32L559,45L557,52L559,64L562,64L566,67L570,74L570,86L566,88L564,94L558,88L557,82L559,77L558,74L555,71L552,72L547,68L542,65L545,56L548,53L546,45L548,38L549,35L547,28Z" fill="#E0E0E0" stroke="#fff" stroke-width=".4"/><path d="M559,45L566,44L577,46L579,45L586,45L589,42L594,42L604,39L612,33L613,38L613,47L614,55L614,70L616,74L613,81L610,88L604,93L595,97L585,102L575,112L571,114L565,121L561,123L561,130L565,137L567,143L567,146L568,145L568,155L567,160L569,161L567,165L564,169L556,172L545,178L541,182L542,186L544,187L543,192L537,192L536,187L534,183L534,179L535,168L533,161L529,147L538,136L541,129L542,128L543,122L541,119L542,112L544,105L544,93L539,90L535,90L533,87L528,85L521,86L520,82L519,75L547,68L552,72L555,71L558,74L559,77L557,82L558,88L564,94L566,88L570,86L570,74L566,67L562,64L559,64L557,52Z" fill="#E0E0E0" stroke="#fff" stroke-width=".4"/><path d="M537,192L535,196L529,197L524,192L524,188L526,185L527,182L530,181L534,183L536,187Z" fill="#E0E0E0" stroke="#fff" stroke-width=".4"/><path d="M363,-17L359,-16L358,-13L358,-9L355,-8L353,-15L357,-19L359,-21ZM357,-5L360,-7L363,-6L366,-8L393,-7L395,-1L398,5L400,8L404,13L410,12L413,11L418,12L419,10L421,4L427,4L427,2L432,2L431,6L442,6L443,11L444,15L443,20L444,26L447,30L446,41L448,40L452,40L458,39L462,39L463,42L462,46L464,51L462,54L463,58L444,57L444,87L450,95L456,101L439,105L417,104L411,99L374,100L372,100L367,96L361,96L356,97L351,99L350,93L352,85L355,76L355,72L358,64L360,60L366,54L369,49L370,43L369,37L366,34L364,28L362,23L362,21L365,17L362,8L360,2L356,-4Z" fill="#E0E0E0" stroke="#fff" stroke-width=".4"/><path d="M522,-39L523,-35L524,-33L525,-30L522,-29L519,-24L515,-20L512,-20L511,-31L509,-35L514,-34L517,-40Z" fill="#E0E0E0" stroke="#fff" stroke-width=".4"/><path d="M696,53L698,57L700,64L702,75L704,79L703,84L702,87L699,81L697,84L699,91L698,95L695,97L695,105L691,116L687,130L681,148L678,162L673,174L666,176L658,180L653,178L646,174L643,169L643,160L639,152L638,145L640,138L644,136L644,133L649,126L650,120L647,115L646,109L645,100L648,95L649,89L654,88L659,86L662,85L666,85L672,79L679,73L682,69L680,65L684,66L689,59L690,54L693,49Z" fill="#E0E0E0" stroke="#fff" stroke-width=".4"/><path d="M92,-186L102,-186L104,-189L107,-189L111,-186L113,-186L116,-188L118,-185L114,-183L110,-183L106,-185L103,-183L101,-183L99,-182L91,-182Z" fill="#E0E0E0" stroke="#fff" stroke-width=".4"/><path d="M1131,-330L1132,-326L1129,-324L1129,-318L1123,-319L1111,-312L1111,-307L1106,-298L1106,-293L1102,-285L1095,-287L1094,-277L1092,-274L1093,-269L1089,-267L1084,-283L1081,-283L1080,-276L1075,-281L1078,-287L1082,-288L1086,-296L1081,-298L1072,-298L1064,-299L1063,-306L1058,-307L1051,-311L1048,-304L1055,-299L1049,-295L1047,-291L1052,-289L1051,-283L1054,-275L1056,-267L1054,-264L1048,-264L1037,-262L1037,-254L1032,-249L1019,-242L1009,-231L1002,-225L993,-218L993,-214L989,-212L980,-208L976,-208L973,-201L975,-188L976,-181L972,-172L972,-156L967,-155L963,-148L966,-145L958,-143L954,-137L951,-134L942,-142L938,-155L934,-165L931,-169L926,-178L924,-190L923,-196L914,-209L911,-227L908,-239L908,-251L906,-260L893,-254L886,-256L875,-267L879,-271L876,-275L866,-283L872,-290L892,-290L890,-299L885,-304L884,-312L878,-316L888,-327L898,-326L908,-337L914,-348L922,-358L922,-366L930,-372L923,-377L920,-385L916,-394L921,-399L935,-396L945,-398L954,-407L963,-394L962,-385L966,-380L966,-374L959,-376L962,-364L971,-357L983,-350L978,-345L974,-335L983,-331L991,-326L1003,-320L1016,-319L1021,-314L1028,-313L1039,-311L1047,-311L1048,-315L1047,-321L1047,-326L1053,-328L1054,-320L1054,-318L1062,-314L1068,-315L1075,-315L1083,-315L1084,-321L1080,-325L1087,-326L1095,-334L1106,-340L1114,-338L1120,-342L1124,-336L1121,-331Z" fill="#E0E0E0" stroke="#fff" stroke-width=".4"/><path d="M990,-130L988,-120L984,-118L976,-116L972,-123L970,-136L975,-151L981,-146L985,-139Z" fill="#E0E0E0" stroke="#fff" stroke-width=".4"/><path d="M576,-194L575,-198L579,-212L580,-218L583,-221L590,-222L594,-228L600,-217L602,-208L607,-203L620,-195L625,-189L630,-184L632,-181L637,-178L634,-175L630,-176L627,-179L623,-185L619,-188L617,-191L609,-195L603,-195L601,-197L595,-195L590,-199L587,-192Z" fill="#E0E0E0" stroke="#fff" stroke-width=".4"/><path d="M718,-237L725,-222L728,-215L722,-212L720,-208L720,-205L711,-201L696,-197L688,-190L684,-189L681,-190L676,-186L670,-184L662,-184L660,-183L658,-181L656,-180L654,-178L650,-178L647,-177L641,-177L638,-183L638,-188L637,-190L635,-197L633,-201L634,-202L633,-206L635,-208L634,-212L638,-215L637,-219L640,-224L643,-221L646,-222L656,-222L658,-221L667,-220L670,-221L673,-218L677,-219L683,-229L692,-234Z" fill="#E0E0E0" stroke="#fff" stroke-width=".4"/><path d="M680,-134L654,-107L642,-106L634,-100L628,-100L626,-97L619,-97L616,-100L607,-96L605,-92L599,-93L597,-94L595,-94L592,-94L580,-102L574,-102L571,-105L571,-110L566,-111L561,-121L556,-123L555,-127L550,-132L545,-132L548,-137L553,-138L554,-140L554,-149L556,-158L561,-161L562,-165L566,-172L571,-177L575,-186L576,-194L587,-192L590,-199L595,-195L601,-197L603,-195L609,-195L617,-191L619,-188L623,-185L627,-179L630,-176L627,-172L624,-168L625,-165L625,-162L630,-162L632,-163L634,-161L632,-158L635,-153L639,-148L642,-145L672,-134Z" fill="#E0E0E0" stroke="#fff" stroke-width=".4"/><path d="M630,-176L634,-175L637,-178L639,-175L639,-171L634,-169L637,-166L634,-161L632,-163L630,-162L625,-162L625,-165L624,-168L627,-172Z" fill="#E0E0E0" stroke="#fff" stroke-width=".4"/><path d="M690,-166L690,-166L690,-162L690,-152L690,-148L686,-142L680,-134L672,-134L642,-145L639,-148L635,-153L632,-158L634,-161L637,-166L640,-164L642,-161L646,-157L651,-157L659,-159L669,-160L677,-163L682,-164L685,-165Z" fill="#E0E0E0" stroke="#fff" stroke-width=".4"/><path d="M553,-52L535,-52L525,-52L522,-51L516,-48L514,-49L514,-56L516,-59L517,-67L519,-71L522,-75L525,-78L528,-81L525,-82L525,-93L529,-96L535,-94L542,-96L549,-96L554,-100L559,-93L560,-89L564,-78L560,-72L556,-66L553,-62Z" fill="#E0E0E0" stroke="#fff" stroke-width=".4"/><path d="M522,-51L525,-46L525,-40L522,-39L517,-40L514,-34L509,-35L510,-40L511,-41L511,-46L514,-49L516,-48Z" fill="#E0E0E0" stroke="#fff" stroke-width=".4"/><path d="M525,-93L517,-99L515,-103L510,-101L506,-102L503,-100L499,-101L494,-109L492,-112L486,-115L483,-121L479,-125L473,-130L473,-133L468,-136L462,-140L465,-141L468,-143L470,-151L473,-155L479,-156L481,-154L486,-149L488,-148L491,-149L498,-149L499,-147L508,-147L509,-149L513,-151L514,-153L518,-155L525,-150L530,-151L535,-158L540,-163L539,-168L537,-171L542,-171L543,-174L547,-173L546,-166L547,-159L552,-156L553,-152L553,-148L554,-148L554,-140L553,-138L548,-137L545,-132L550,-132L555,-127L556,-123L561,-121L566,-111L560,-105L554,-100L549,-96L542,-96L535,-94L529,-96Z" fill="#E0E0E0" stroke="#fff" stroke-width=".4"/></g><g clip-path="url(#v)"><path d="M457.4,102.3L459.4,101.9L461.2,101.5L463.4,101.1L465.1,100.8L465.5,100.7L469.7,101.1L471.5,101.3L472.2,101.6L473.0,102.2L474.5,103.7L474.1,103.7L471.3,104.0L470.3,104.4L467.9,106.2L467.4,106.0L466.8,105.6L466.3,105.5L465.3,105.9L464.2,106.4L463.1,107.2L462.1,107.9L461.8,108.3L460.3,109.8L459.8,110.0L459.4,110.1L459.2,110.0L459.0,109.4L458.1,107.9L456.6,106.0L456.2,105.8L455.9,105.7L454.8,105.8L451.7,106.3L449.0,106.8L444.9,107.6L440.5,108.2L437.8,108.6L435.5,108.8L435.5,110.7L435.5,114.6L435.5,118.5L435.5,122.5L435.5,126.4L435.5,130.4L435.5,134.4L435.5,138.4L435.5,142.4L435.5,144.1L435.5,144.5L434.1,144.5L431.0,144.5L428.5,144.5L426.4,144.5L426.4,146.9L426.4,149.7L426.4,152.5L426.4,155.4L426.4,158.2L426.4,161.0L426.4,163.9L426.4,166.8L426.4,169.6L426.4,171.8L426.4,172.1L426.4,176.3L426.4,180.8L426.4,185.3L426.4,189.8L426.4,194.3L426.4,198.9L426.4,203.5L426.4,208.0L426.4,209.5L425.5,209.5L423.6,210.1L422.4,210.8L421.9,211.7L421.2,212.2L420.3,212.4L420.0,212.9L420.1,213.6L419.7,214.2L419.0,214.6L417.7,214.5L416.0,213.8L413.8,213.7L411.2,214.0L409.3,213.9L408.2,213.2L406.9,212.9L405.6,212.8L404.9,212.5L403.3,212.1L403.1,211.3L402.9,210.7L402.4,210.0L402.4,209.5L402.7,209.1L402.8,208.5L402.5,207.6L402.1,207.2L401.5,207.2L401.2,206.9L401.0,206.2L400.6,205.7L399.8,205.2L398.7,205.6L398.1,206.2L397.8,207.1L397.5,207.6L397.4,208.4L397.3,208.9L397.1,209.5L396.8,209.8L396.4,209.6L395.9,209.9L394.6,210.8L394.2,211.2L393.2,210.4L390.2,207.2L389.2,206.4L387.6,204.5L384.2,198.5L383.7,197.4L383.0,194.5L382.3,192.4L382.2,191.2L382.5,190.5L382.3,189.6L381.9,188.7L380.8,187.6L380.4,184.0L379.6,181.6L379.8,179.7L379.4,177.9L379.4,176.8L379.6,174.6L378.9,172.2L377.7,169.8L376.5,166.3L376.4,164.8L376.5,160.7L376.3,159.1L376.3,157.1L375.8,155.1L375.6,154.0L375.9,153.2L376.1,153.4L376.5,153.6L376.7,152.4L376.7,151.4L376.2,148.9L374.9,146.4L371.7,142.2L370.9,140.6L370.5,139.3L366.9,133.9L365.4,130.1L364.4,126.8L363.2,125.2L357.9,114.6L356.7,112.9L354.6,110.9L354.1,110.2L353.3,108.3L351.7,105.7L351.3,103.3L351.2,100.6L351.4,98.5L352.8,98.3L353.9,97.7L354.8,97.7L355.7,98.1L356.6,98.2L357.0,98.1L358.7,98.2L359.7,97.7L360.9,97.2L361.5,96.7L362.5,96.3L363.8,95.8L364.4,95.9L365.3,96.0L366.5,96.2L367.2,96.5L368.0,97.5L369.1,98.4L370.1,98.9L371.1,99.6L371.4,99.9L371.8,100.0L372.1,100.0L374.0,99.9L375.7,99.8L377.6,99.8L381.0,99.9L384.6,99.9L388.0,99.9L391.5,99.9L395.0,99.9L398.5,99.9L402.0,99.9L405.4,99.9L406.9,99.9L409.4,99.9L412.0,100.0L412.3,100.0L412.6,100.2L412.8,100.4L413.7,101.6L414.9,102.9L415.9,103.5L417.1,103.8L418.2,104.0L419.2,103.9L420.9,104.0L423.3,104.4L425.8,104.6L428.4,104.4L430.2,104.6L431.2,105.2L432.3,105.7L433.4,105.9L434.9,105.7L436.7,105.3L438.3,105.3L439.1,105.7L439.5,105.7L442.2,105.2L444.5,104.8L447.8,104.1L450.5,103.6L454.5,102.8Z" fill="#4ECDC4" stroke="#2C3E50" stroke-width="1"/></g><circle cx="400.0" cy="150.0" r="4" fill="#E74C3C" stroke="#fff" stroke-width="2"/><text x="400.0" y="140.0" text-anchor="middle" font-family="sans-serif" font-weight="700" font-size="10" fill="#2D3436">Windhoek</text></svg>