<svg viewBox="0 0 800 300" xmlns="http://www.w3.org/2000/svg"><defs><clipPath id="v"><rect width="800" height="300"/></clipPath></defs><rect width="800" height="300" fill="#DCEEF8"/><g clip-path="url(#v)"><path d="M2102,454L2104,452L2108,455L2106,460L2100,462L2095,461L2094,456L2098,453ZM2120,444L2114,447L2108,449L2106,445L2111,443L2114,442L2120,439L2120,439L2120,444ZM-1361,439L-1361,439L-1361,439L-1359,439L-1360,444L-1361,444L-1361,444L-1361,439Z" fill="#E0E0E0" stroke="#fff" stroke-width=".4"/><path d="M707,291L709,292L744,312L745,317L759,327L754,339L755,345L761,348L761,351L759,357L759,360L759,364L762,370L766,380L769,382L762,388L751,392L745,392L742,394L735,395L733,396L721,393L714,394L711,381L708,376L706,373L696,371L691,369L685,367L681,365L677,363L672,350L666,345L664,339L665,334L663,325L667,325L671,321L675,316L677,314L677,311L675,309L674,305L677,304L678,298L674,293L677,292L688,292Z" fill="#E0E0E0" stroke="#fff" stroke-width=".4"/><path d="M296,3L296,4L296,6L296,23L264,22L264,49L255,50L253,56L255,71L217,71L215,74L215,70L215,70L237,69L238,65L242,60L245,46L259,35L263,21L266,20L269,12L278,11L281,12L285,12L289,10L295,9L294,3Z" fill="#E0E0E0" stroke="#fff" stroke-width=".4"/><path d="M-808,-263L-809,-263L-828,-278L-835,-284L-853,-291L-858,-304L-857,-314L-869,-321L-871,-334L-882,-346L-883,-354L-877,-362L-877,-373L-894,-384L-904,-405L-910,-418L-919,-426L-925,-434L-930,-444L-940,-437L-949,-427L-958,-439L-965,-448L-974,-453L-984,-454L-984,-576L-984,-671L-966,-665L-950,-652L-940,-649L-932,-661L-920,-669L-906,-666L-891,-678L-875,-685L-869,-673L-862,-680L-859,-693L-853,-690L-836,-665L-823,-684L-822,-663L-810,-667L-807,-676L-795,-674L-780,-662L-758,-652L-744,-648L-735,-649L-722,-636L-735,-623L-718,-618L-692,-621L-683,-625L-673,-610L-663,-623L-673,-634L-666,-643L-655,-644L-647,-647L-639,-640L-629,-626L-618,-628L-601,-617L-586,-621L-572,-620L-573,-636L-565,-641L-550,-632L-550,-608L-544,-628L-536,-627L-532,-654L-542,-671L-553,-682L-552,-714L-541,-737L-528,-732L-518,-718L-505,-685L-514,-671L-496,-666L-496,-638L-483,-659L-471,-642L-474,-622L-465,-605L-455,-624L-448,-646L-447,-676L-434,-674L-419,-670L-406,-656L-406,-643L-413,-629L-406,-615L-407,-603L-426,-586L-440,-582L-450,-589L-453,-577L-462,-558L-465,-548L-476,-532L-490,-531L-497,-522L-498,-508L-509,-505L-521,-488L-532,-465L-535,-450L-536,-428L-522,-425L-517,-407L-513,-394L-499,-397L-481,-390L-472,-383L-465,-375L-453,-370L-442,-363L-426,-362L-416,-360L-417,-346L-414,-329L-407,-311L-393,-296L-386,-302L-380,-318L-385,-343L-392,-352L-377,-360L-366,-372L-360,-384L-361,-396L-368,-411L-380,-425L-368,-445L-372,-463L-376,-494L-369,-499L-352,-493L-342,-491L-334,-497L-325,-490L-313,-478L-311,-470L-293,-469L-294,-452L-290,-428L-282,-425L-275,-414L-261,-424L-251,-445L-245,-454L-237,-437L-225,-413L-214,-392L-218,-381L-205,-371L-196,-361L-181,-357L-175,-351L-171,-337L-163,-335L-160,-329L-159,-311L-166,-305L-173,-300L-189,-294L-201,-282L-217,-279L-238,-282L-252,-283L-262,-282L-271,-271L-283,-264L-297,-245L-308,-232L-300,-234L-284,-253L-264,-265L-249,-267L-241,-259L-250,-250L-247,-234L-244,-224L-231,-217L-215,-219L-206,-234L-205,-224L-199,-219L-211,-210L-232,-202L-242,-196L-252,-187L-260,-188L-260,-199L-243,-210L-259,-210L-270,-208L-276,-216L-276,-235L-280,-239L-287,-237L-290,-241L-297,-230L-300,-219L-304,-213L-308,-211L-311,-210L-312,-207L-330,-207L-344,-206L-349,-204L-359,-194L-360,-193L-363,-188L-372,-188L-382,-188L-386,-186L-384,-183L-384,-179L-384,-178L-396,-171L-406,-169L-418,-162L-420,-162L-423,-164L-424,-166L-424,-167L-422,-172L-417,-179L-415,-187L-417,-199L-419,-211L-429,-218L-427,-220L-429,-222L-432,-222L-433,-224L-434,-227L-436,-226L-438,-226L-438,-228L-440,-229L-441,-233L-449,-237L-456,-242L-466,-248L-475,-253L-484,-249L-487,-249L-499,-253L-506,-251L-516,-255L-526,-257L-532,-258L-535,-261L-537,-269L-540,-269L-540,-263L-561,-263L-594,-263L-626,-263L-655,-263L-685,-263L-713,-263L-742,-263L-752,-263L-781,-263ZM-433,-497L-425,-507L-412,-507L-412,-502L-424,-491L-430,-491ZM-392,-765L-402,-782L-402,-795L-397,-797L-375,-793L-359,-775L-358,-765L-368,-766L-378,-767L-389,-763ZM-397,-489L-393,-496L-389,-495L-387,-491L-391,-480L-395,-482L-397,-488ZM-526,-841L-531,-826L-545,-829L-557,-839L-551,-856L-538,-866L-529,-853ZM-528,-944L-532,-943L-550,-946L-553,-959L-533,-958L-527,-949ZM-556,-1003L-544,-986L-547,-969L-561,-959L-569,-970L-573,-988L-574,-1008L-562,-1006ZM-473,-819L-488,-824L-514,-835L-517,-856L-519,-875L-528,-893L-548,-898L-559,-911L-556,-928L-536,-926L-525,-912L-506,-912L-498,-898L-500,-883L-489,-874L-483,-865L-470,-863L-456,-860L-440,-868L-421,-872L-405,-869L-394,-854L-392,-839L-398,-829L-413,-821L-425,-825L-453,-820ZM-696,-973L-683,-966L-686,-952L-704,-939L-718,-954L-710,-969ZM-693,-1005L-681,-995L-693,-985L-709,-986L-708,-992L-698,-1007ZM-158,-298L-163,-288L-170,-275L-163,-280L-157,-277L-160,-272L-152,-268L-147,-271L-137,-267L-140,-256L-134,-259L-132,-251L-129,-242L-134,-229L-138,-229L-144,-232L-142,-243L-145,-245L-156,-233L-162,-233L-155,-240L-164,-243L-175,-242L-193,-243L-195,-247L-189,-252L-193,-256L-185,-265L-175,-289L-169,-298L-161,-303L-156,-302ZM-431,-555L-421,-547L-410,-540L-409,-530L-402,-532L-395,-524L-404,-517L-419,-523L-424,-532L-434,-521L-447,-510L-451,-522L-464,-520L-455,-531L-454,-549L-451,-570L-444,-568L-442,-558L-437,-561ZM-382,-750L-373,-763L-351,-747L-338,-732L-337,-718L-319,-725L-309,-706L-286,-695L-277,-683L-268,-657L-286,-644L-263,-627L-248,-622L-234,-599L-218,-597L-221,-580L-238,-553L-250,-563L-266,-585L-278,-582L-279,-569L-269,-555L-256,-545L-252,-539L-246,-517L-249,-502L-261,-507L-285,-525L-272,-506L-262,-493L-260,-486L-286,-494L-307,-507L-319,-517L-315,-523L-330,-535L-344,-545L-344,-539L-372,-535L-380,-543L-374,-560L-355,-560L-336,-563L-339,-572L-335,-583L-323,-607L-326,-619L-329,-627L-344,-640L-364,-649L-357,-656L-368,-673L-376,-675L-384,-684L-389,-676L-407,-672L-442,-679L-462,-687L-478,-691L-486,-701L-476,-715L-490,-715L-493,-746L-485,-775L-475,-789L-450,-798L-457,-776L-450,-756L-441,-783L-416,-797L-400,-762L-401,-741ZM-534,-810L-514,-809L-496,-800L-510,-770L-522,-764L-532,-740L-543,-741L-549,-769L-549,-786L-544,-800ZM-808,-885L-792,-916L-772,-944L-757,-943L-744,-950L-745,-916L-753,-902L-762,-900L-780,-882L-795,-876ZM-904,-342L-894,-343L-897,-324L-889,-312L-893,-312L-898,-319L-902,-326L-907,-331L-909,-338L-908,-344ZM-640,-1030L-621,-1023L-595,-1005L-588,-982L-584,-962L-600,-967L-616,-982L-637,-984L-628,-999L-640,-1011ZM-815,-256L-819,-254L-835,-261L-838,-266L-847,-271L-849,-275L-859,-278L-862,-286L-862,-290L-851,-286L-845,-284L-836,-283L-833,-277L-828,-270L-819,-264ZM-796,-821L-782,-814L-757,-812L-748,-802L-737,-787L-749,-779L-773,-756L-785,-733L-785,-720L-811,-706L-816,-719L-838,-735L-834,-748L-827,-772L-819,-794L-828,-816ZM-663,-874L-654,-881L-644,-879L-642,-860L-648,-842L-681,-836L-705,-820L-720,-819L-721,-831L-701,-848L-745,-843L-759,-850L-745,-888L-736,-900L-709,-886L-692,-862L-675,-859L-689,-898L-680,-913L-670,-908L-667,-888ZM-650,-774L-640,-760L-633,-730L-630,-708L-614,-694L-597,-680L-598,-668L-614,-666L-608,-655L-611,-645L-628,-650L-645,-657L-656,-655L-674,-646L-699,-642L-716,-640L-721,-652L-734,-660L-743,-657L-755,-678L-749,-681L-734,-686L-720,-685L-707,-690L-726,-697L-747,-694L-760,-695L-766,-706L-743,-718L-758,-717L-775,-725L-767,-749L-760,-762L-734,-782L-724,-775L-729,-760L-708,-770L-694,-753L-683,-770L-674,-759L-667,-728L-662,-741L-668,-774L-660,-779ZM-592,-762L-602,-783L-591,-800L-579,-793L-562,-797L-559,-787L-568,-771L-554,-757L-556,-728L-571,-717L-581,-719L-587,-731L-611,-755L-611,-766ZM-651,-791L-638,-793L-631,-785L-639,-763L-654,-787ZM-573,-910L-565,-890L-565,-870L-570,-841L-585,-838L-596,-844L-596,-866L-612,-863L-612,-894L-602,-892L-587,-906L-574,-904ZM-549,-1102L-542,-1121L-532,-1125L-536,-1139L-514,-1143L-502,-1110L-485,-1097L-469,-1086L-462,-1049L-450,-1032L-463,-1017L-481,-980L-498,-976L-518,-982L-529,-1002L-529,-1021L-521,-1034L-539,-1034L-549,-1052L-555,-1077ZM-506,-1185L-492,-1198L-480,-1200L-461,-1212L-447,-1239L-435,-1235L-425,-1215L-417,-1255L-405,-1268L-387,-1277L-358,-1280L-353,-1271L-325,-1285L-304,-1280L-283,-1275L-257,-1268L-236,-1258L-218,-1237L-219,-1218L-242,-1187L-266,-1173L-275,-1158L-254,-1159L-276,-1120L-292,-1103L-309,-1057L-329,-1048L-335,-1037L-364,-1031L-351,-1025L-357,-1016L-349,-991L-359,-975L-374,-962L-378,-944L-392,-931L-390,-921L-374,-922L-374,-912L-399,-887L-425,-898L-453,-892L-467,-897L-486,-899L-487,-919L-469,-929L-474,-962L-468,-965L-442,-945L-455,-975L-471,-984L-463,-1003L-446,-1015L-443,-1033L-457,-1053L-461,-1082L-435,-1080L-427,-1073L-412,-1094L-434,-1101L-467,-1097L-484,-1118L-493,-1143L-504,-1162ZM-348,-611L-354,-604L-365,-603L-367,-615L-363,-629L-354,-633L-347,-626L-347,-615ZM-551,-665L-545,-655L-551,-645L-564,-654L-572,-651L-585,-663L-577,-671L-570,-684L-560,-676L-554,-671ZM-244,-276L-241,-277L-228,-274L-218,-267L-218,-265L-223,-264L-235,-269ZM-239,-235L-236,-228L-229,-226L-220,-226L-225,-221L-228,-220L-241,-226L-243,-230Z" fill="#E0E0E0" stroke="#fff" stroke-width=".4"/><path d="M1224,-266L1217,-257L1209,-255L1208,-241L1203,-234L1184,-239L1177,-214L1172,-211L1153,-205L1162,-182L1155,-178L1156,-171L1150,-173L1145,-178L1130,-179L1114,-179L1111,-178L1097,-183L1092,-181L1090,-173L1074,-178L1068,-176L1066,-170L1060,-167L1047,-158L1043,-149L1040,-149L1037,-155L1025,-156L1023,-166L1018,-166L1019,-180L1007,-189L991,-188L979,-186L970,-198L962,-203L947,-213L945,-214L920,-206L921,-157L916,-157L909,-167L902,-171L892,-168L887,-164L887,-167L889,-172L887,-177L876,-181L872,-193L866,-197L866,-201L875,-200L876,-210L884,-212L892,-210L894,-223L892,-232L883,-232L875,-235L863,-229L854,-226L849,-228L850,-235L844,-245L837,-244L829,-254L834,-265L832,-268L839,-285L849,-276L851,-287L870,-304L886,-304L907,-294L918,-287L929,-294L944,-294L956,-286L959,-291L973,-290L975,-297L959,-308L969,-316L967,-320L976,-324L969,-335L974,-341L1010,-347L1015,-351L1039,-357L1047,-364L1065,-360L1068,-343L1078,-347L1090,-342L1090,-333L1099,-334L1123,-349L1120,-344L1132,-331L1153,-291L1159,-299L1172,-290L1186,-294L1191,-292L1196,-283L1203,-280L1207,-273L1219,-275Z" fill="#E0E0E0" stroke="#fff" stroke-width=".4"/><path d="M921,-157L920,-206L945,-214L947,-213L962,-203L970,-198L979,-186L991,-188L1007,-189L1019,-180L1018,-166L1023,-166L1025,-156L1037,-155L1040,-149L1043,-149L1047,-158L1060,-167L1066,-170L1069,-169L1060,-160L1068,-155L1075,-159L1086,-152L1074,-143L1066,-144L1062,-144L1061,-147L1063,-153L1050,-150L1047,-142L1042,-135L1034,-136L1032,-130L1039,-127L1041,-118L1035,-105L1028,-108L1023,-108L1023,-116L1010,-121L1000,-127L994,-133L983,-141L978,-155L975,-157L964,-156L961,-159L960,-169L946,-176L938,-169L930,-164L932,-158Z" fill="#E0E0E0" stroke="#fff" stroke-width=".4"/><path d="M-284,883L-280,890L-275,902L-263,912L-249,916L-254,925L-263,926L-268,920L-274,919L-284,919ZM-178,589L-180,598L-183,609L-182,621L-185,623L-185,631L-186,637L-174,647L-175,655L-169,660L-169,666L-179,682L-193,689L-213,691L-223,690L-221,697L-223,707L-221,713L-227,718L-237,719L-246,715L-250,718L-249,731L-242,735L-237,731L-234,738L-243,742L-251,750L-252,763L-254,771L-263,771L-271,778L-274,788L-264,798L-255,801L-258,814L-270,822L-276,840L-285,846L-289,853L-286,869L-279,878L-283,877L-292,875L-316,873L-320,864L-320,852L-326,853L-329,847L-330,832L-323,825L-320,816L-321,809L-316,796L-312,778L-313,770L-309,767L-310,762L-315,759L-311,754L-316,749L-318,733L-314,731L-316,715L-314,702L-311,691L-305,686L-308,674L-308,663L-301,655L-301,646L-295,634L-295,623L-298,621L-302,602L-296,590L-297,579L-294,569L-288,559L-281,552L-284,548L-282,544L-282,527L-271,521L-268,510L-269,508L-261,498L-249,501L-243,508L-239,500L-228,500L-227,503L-209,520L-201,521L-189,529L-179,533L-178,538L-187,555L-177,557L-167,559L-159,557L-150,549L-149,540L-144,537L-139,544L-139,552L-147,558L-154,563L-165,573Z" fill="#E0E0E0" stroke="#fff" stroke-width=".4"/><path d="M663,325L665,334L664,339L666,345L672,350L677,363L673,362L660,363L657,365L655,371L657,375L655,387L654,397L657,398L663,402L666,401L667,411L659,411L655,406L652,401L644,400L642,395L636,398L629,397L625,392L619,391L615,391L614,388L611,388L606,388L600,389L596,389L594,390L594,378L591,374L590,368L592,362L590,359L590,353L578,353L579,349L574,349L573,351L567,351L565,357L563,359L558,358L555,359L549,360L545,355L543,352L540,346L537,339L509,339L506,340L503,340L499,341L497,338L500,337L500,333L502,330L505,328L508,329L511,325L516,326L517,328L521,330L526,324L532,319L534,316L534,308L538,299L543,294L549,289L550,286L550,282L552,279L551,274L553,265L555,259L557,254L558,248L559,241L563,236L568,233L576,236L582,240L589,241L596,243L599,237L600,236L605,237L616,232L619,234L623,234L624,232L628,231L635,232L641,232L644,231L650,239L654,240L657,239L662,239L667,237L669,241L678,248L677,259L681,261L678,264L674,267L671,272L668,276L668,284L666,288L666,295L663,298L662,303L661,304L660,309L663,314Z" fill="#E0E0E0" stroke="#fff" stroke-width=".4"/><path d="M782,298L776,290L776,255L784,244L787,241L793,241L802,234L814,233L842,204L848,196L853,190L853,185L853,175L853,171L853,171L856,171L860,169L866,168L870,165L874,165L874,167L873,173L873,178L871,182L868,193L864,203L858,216L849,230L841,241L830,254L820,262L806,272L797,279L786,291L784,296Z" fill="#E0E0E0" stroke="#fff" stroke-width=".4"/><path d="M759,327L745,317L744,312L709,292L707,291L707,281L710,277L715,270L718,263L714,252L713,247L708,241L714,235L721,229L726,230L726,236L729,239L736,239L748,247L751,247L754,247L756,248L762,249L765,245L774,241L778,244L784,244L776,255L776,290L782,298L775,302L773,306L769,307L768,314L764,317L763,324Z" fill="#E0E0E0" stroke="#fff" stroke-width=".4"/><path d="M617,202L610,198L606,195L606,192L607,188L607,184L602,178L601,173L601,171L597,168L597,162L595,159L592,159L593,156L595,151L594,147L597,144L595,142L598,136L602,128L611,129L610,89L610,84L621,84L621,64L660,64L698,64L736,64L739,74L737,76L738,86L742,99L746,101L751,105L746,111L739,112L736,115L735,122L731,137L732,141L730,149L726,159L721,164L716,172L715,176L711,178L708,189L708,198L708,190L707,190L707,185L706,181L701,178L700,170L701,163L696,163L696,165L690,165L692,168L693,174L688,179L683,187L678,188L670,182L666,184L665,187L660,189L660,191L650,191L649,189L642,188L638,190L636,189L631,183L629,181L622,182L619,187L617,195L614,197L611,198Z" fill="#E0E0E0" stroke="#fff" stroke-width=".4"/><path d="M610,89L611,129L602,128L598,136L595,142L597,144L594,147L595,151L593,156L592,159L595,159L597,162L597,168L601,171L601,173L595,175L590,179L583,190L574,194L564,194L561,195L562,198L557,202L553,205L541,209L539,207L537,207L535,209L527,210L529,207L526,201L524,196L520,195L515,189L517,184L521,185L524,185L529,185L524,176L524,169L524,163L520,156L521,152L515,152L515,145L511,141L515,128L527,119L528,106L531,85L533,80L529,77L529,74L526,71L523,55L533,49L572,69Z" fill="#E0E0E0" stroke="#fff" stroke-width=".4"/><path d="M1286,-1128L1307,-1142L1326,-1111L1348,-1056L1346,-1009L1325,-1003L1298,-1017L1282,-1037L1274,-1076L1261,-1087ZM1374,-1029L1398,-1000L1396,-981L1341,-963L1359,-1027L1367,-1033ZM1722,-886L1748,-884L1782,-863L1775,-835L1739,-836L1723,-827L1704,-851L1709,-878ZM1813,-855L1837,-845L1826,-830L1810,-833L1792,-848L1795,-860ZM1732,-784L1741,-797L1753,-800L1767,-787L1768,-778L1753,-778L1734,-782ZM813,-1102L832,-1112L847,-1113L849,-1097L854,-1111L863,-1121L878,-1108L874,-1099L861,-1091L852,-1087L851,-1078L840,-1068L829,-1082L835,-1100ZM599,-346L582,-346L570,-348L572,-355L585,-361L595,-358L600,-355L599,-351ZM897,-797L920,-828L918,-844L939,-865L971,-890L1003,-898L1020,-913L1039,-919L1045,-902L1039,-889L1005,-870L975,-851L945,-816L931,-782L915,-751L917,-725L936,-700L930,-698L899,-702L896,-715L879,-723L877,-740L887,-746L887,-764L906,-792ZM1761,-336L1765,-321L1765,-305L1769,-289L1778,-263L1764,-268L1758,-247L1767,-232L1767,-222L1760,-231L1754,-220L1752,-232L1753,-245L1752,-261L1754,-272L1754,-293L1749,-308L1750,-330L1758,-337L1755,-345L1759,-347ZM-1361,-651L-1361,-651L-1337,-631L-1312,-605L-1313,-590L-1306,-584L-1308,-602L-1282,-598L-1263,-575L-1273,-565L-1289,-563L-1289,-540L-1293,-536L-1302,-537L-1309,-544L-1322,-551L-1324,-561L-1334,-565L-1345,-562L-1350,-570L-1348,-579L-1360,-573L-1355,-562L-1361,-552L-1361,-552L-1361,-651ZM2120,-552L2120,-552L2108,-542L2095,-544L2104,-532L2109,-514L2114,-508L2115,-499L2113,-494L2095,-498L2068,-483L2059,-481L2044,-466L2030,-454L2027,-445L2013,-459L1988,-444L1983,-451L1974,-443L1961,-445L1958,-433L1946,-415L1947,-407L1958,-403L1956,-377L1947,-377L1943,-362L1947,-355L1930,-347L1927,-328L1912,-324L1910,-308L1896,-293L1892,-304L1888,-327L1883,-364L1887,-388L1895,-399L1896,-407L1911,-411L1928,-435L1945,-454L1962,-470L1970,-499L1958,-497L1952,-480L1928,-458L1920,-483L1895,-476L1871,-443L1879,-431L1857,-427L1842,-425L1843,-438L1828,-441L1816,-432L1786,-435L1755,-429L1723,-394L1686,-353L1701,-351L1706,-341L1716,-337L1722,-345L1732,-344L1746,-326L1747,-313L1739,-297L1738,-279L1734,-255L1719,-234L1716,-225L1703,-208L1690,-193L1684,-185L1671,-177L1665,-177L1659,-183L1646,-174L1644,-169L1644,-169L1643,-172L1643,-178L1648,-179L1649,-194L1646,-206L1655,-211L1667,-208L1673,-222L1676,-237L1680,-243L1685,-256L1669,-251L1661,-246L1646,-246L1642,-259L1631,-270L1614,-274L1610,-289L1607,-299L1603,-305L1597,-321L1589,-327L1574,-332L1562,-332L1550,-329L1542,-321L1547,-317L1547,-308L1542,-303L1533,-287L1533,-280L1519,-271L1508,-276L1496,-275L1491,-280L1485,-282L1471,-271L1458,-269L1450,-265L1437,-268L1428,-267L1423,-275L1413,-282L1403,-284L1391,-282L1382,-279L1368,-286L1366,-297L1355,-301L1346,-303L1336,-310L1325,-293L1329,-284L1320,-274L1306,-278L1296,-278L1290,-285L1280,-286L1271,-290L1257,-283L1238,-270L1228,-268L1224,-266L1219,-275L1207,-273L1203,-280L1196,-283L1191,-292L1186,-294L1172,-290L1159,-299L1153,-291L1132,-331L1120,-344L1123,-349L1099,-334L1090,-333L1090,-342L1078,-347L1068,-343L1065,-360L1047,-364L1039,-357L1015,-351L1010,-347L974,-341L969,-335L976,-324L967,-320L969,-316L959,-308L975,-297L973,-290L959,-291L956,-286L944,-294L929,-294L918,-287L907,-294L886,-304L870,-304L851,-287L849,-276L839,-285L832,-268L834,-265L829,-254L837,-244L844,-245L850,-235L849,-228L854,-226L850,-218L841,-215L831,-201L840,-188L839,-179L849,-164L844,-159L842,-155L838,-156L831,-164L828,-165L822,-168L819,-173L810,-176L804,-174L803,-176L790,-182L775,-185L767,-187L766,-185L754,-197L743,-202L734,-210L741,-212L749,-224L744,-229L758,-235L758,-238L749,-236L749,-242L754,-246L764,-247L765,-252L763,-260L767,-268L767,-272L753,-277L747,-277L741,-284L734,-281L721,-287L722,-290L718,-296L711,-297L710,-302L712,-305L706,-314L696,-313L693,-313L691,-310L687,-310L685,-321L682,-326L684,-327L692,-327L696,-330L693,-335L686,-338L687,-341L683,-344L677,-354L679,-359L678,-367L669,-371L664,-369L662,-373L652,-378L649,-388L648,-397L643,-401L648,-406L645,-424L652,-434L650,-438L661,-448L651,-458L672,-483L681,-495L684,-506L670,-520L674,-535L665,-552L672,-571L661,-599L669,-618L655,-635L656,-654L664,-656L680,-667L690,-677L706,-660L733,-654L769,-624L777,-612L777,-595L767,-582L751,-576L708,-594L700,-591L716,-574L717,-563L717,-539L730,-533L737,-527L739,-538L733,-547L739,-556L762,-542L771,-547L764,-564L787,-587L796,-586L805,-578L810,-594L802,-609L807,-624L800,-640L827,-632L832,-618L820,-614L820,-601L828,-592L843,-597L845,-613L865,-626L899,-648L906,-647L897,-631L909,-628L916,-637L934,-638L948,-649L959,-633L970,-650L960,-666L965,-675L994,-667L1007,-658L1042,-628L1049,-642L1039,-656L1038,-662L1027,-664L1030,-678L1025,-700L1024,-709L1042,-737L1049,-766L1056,-772L1081,-764L1083,-746L1074,-721L1080,-711L1083,-691L1081,-653L1092,-636L1088,-619L1069,-584L1080,-580L1084,-589L1094,-595L1097,-607L1105,-619L1100,-634L1104,-652L1094,-654L1091,-669L1099,-698L1086,-722L1104,-743L1101,-766L1106,-766L1111,-748L1108,-719L1118,-713L1113,-735L1130,-747L1150,-749L1168,-731L1159,-758L1158,-793L1175,-800L1198,-798L1219,-803L1211,-822L1222,-846L1234,-847L1252,-866L1278,-871L1281,-882L1306,-886L1314,-877L1336,-898L1354,-898L1357,-916L1366,-934L1389,-952L1405,-938L1392,-927L1414,-920L1417,-900L1425,-910L1454,-909L1475,-889L1483,-874L1481,-854L1470,-843L1445,-822L1437,-812L1449,-807L1464,-798L1472,-804L1477,-782L1482,-791L1497,-797L1528,-791L1530,-775L1571,-770L1571,-796L1592,-790L1607,-790L1623,-772L1627,-752L1622,-738L1634,-714L1649,-702L1658,-734L1674,-720L1690,-728L1709,-719L1716,-727L1732,-723L1725,-752L1738,-766L1782,-757L1825,-745L1833,-727L1859,-704L1898,-709L1917,-705L1925,-693L1924,-672L1936,-664L1949,-670L1966,-670L1984,-665L2002,-668L2019,-644L2031,-652L2023,-670L2028,-682L2059,-674L2079,-676L2107,-663L2120,-651L2120,-552ZM2120,-704L2109,-702L2108,-711L2120,-724L2120,-704ZM-1361,-724L-1361,-724L-1361,-724L-1360,-725L-1351,-725L-1337,-717L-1338,-712L-1348,-705L-1361,-704L-1361,-704L-1361,-724ZM703,-220L705,-223L712,-220L715,-220L717,-217L718,-217L718,-215L723,-212L733,-213L731,-208L720,-206L707,-198L702,-201L704,-207L693,-211L695,-214L704,-218Z" fill="#E0E0E0" stroke="#fff" stroke-width=".4"/><path d="M-136,629L-139,623L-135,617L-140,609L-148,603L-158,596L-162,596L-171,587L-178,589L-165,573L-154,563L-147,558L-139,552L-139,544L-144,537L-149,540L-147,533L-145,527L-145,521L-149,519L-152,521L-156,521L-157,516L-158,507L-160,504L-166,501L-170,503L-181,501L-180,487L-183,481L-180,479L-181,473L-178,469L-176,461L-179,454L-184,451L-185,447L-184,442L-202,441L-206,430L-203,429L-203,425L-205,422L-205,416L-211,413L-217,414L-221,411L-228,409L-231,405L-242,403L-253,394L-252,388L-253,384L-252,377L-265,378L-270,382L-278,386L-281,389L-286,389L-293,388L-298,390L-303,389L-302,374L-310,380L-318,380L-322,374L-328,374L-326,370L-332,364L-336,355L-333,353L-333,349L-327,346L-328,341L-326,337L-325,333L-314,326L-306,324L-305,323L-296,323L-292,297L-292,293L-293,287L-297,284L-297,277L-292,275L-290,276L-290,272L-295,271L-295,265L-277,265L-273,262L-271,265L-269,271L-267,270L-262,275L-254,274L-252,271L-245,269L-241,267L-240,263L-233,261L-234,259L-242,258L-243,252L-243,245L-247,243L-245,242L-238,243L-230,245L-228,243L-221,242L-210,238L-206,234L-208,232L-203,231L-200,233L-202,238L-198,239L-196,244L-199,247L-200,255L-198,260L-197,265L-191,269L-186,270L-185,268L-182,267L-178,266L-175,263L-169,264L-167,263L-162,264L-161,262L-163,260L-162,258L-158,258L-153,257L-148,259L-143,261L-140,259L-138,259L-137,262L-132,261L-129,258L-126,250L-120,242L-117,241L-114,247L-109,263L-104,265L-103,272L-111,280L-108,283L-91,284L-90,294L-83,287L-71,291L-55,297L-50,303L-51,308L-40,305L-21,310L-7,310L7,318L20,329L27,331L35,332L39,335L42,347L44,353L40,369L35,376L21,389L15,400L8,409L6,409L3,417L4,435L1,451L-0,457L-3,462L-5,475L-15,489L-16,499L-24,504L-26,510L-37,510L-52,514L-59,519L-70,522L-81,530L-89,541L-91,549L-89,555L-91,566L-93,571L-100,578L-111,597L-119,606L-126,612L-130,622Z" fill="#E0E0E0" stroke="#fff" stroke-width=".4"/><path d="M-293,388L-286,389L-281,389L-278,386L-270,382L-265,378L-252,377L-253,384L-252,388L-253,394L-242,403L-231,405L-228,409L-221,411L-217,414L-211,413L-205,416L-205,422L-203,425L-203,429L-206,430L-202,441L-184,442L-185,447L-184,451L-179,454L-176,461L-178,469L-181,473L-180,479L-183,481L-183,478L-192,473L-201,473L-218,476L-222,485L-223,490L-227,503L-228,500L-239,500L-243,508L-249,501L-261,498L-269,508L-276,509L-280,495L-285,483L-282,473L-287,469L-289,461L-293,455L-287,444L-291,435L-289,432L-291,428L-287,423L-287,415L-286,408L-284,404Z" fill="#E0E0E0" stroke="#fff" stroke-width=".4"/><path d="M-208,232L-206,234L-210,238L-221,242L-228,243L-230,245L-238,243L-245,242L-247,243L-243,245L-243,252L-242,258L-234,259L-233,261L-240,263L-241,267L-245,269L-252,271L-254,274L-262,275L-267,270L-270,260L-273,257L-276,255L-271,250L-271,248L-274,245L-276,238L-275,231L-273,228L-272,223L-275,221L-280,222L-287,222L-291,223L-298,214L-304,213L-316,214L-318,211L-321,210L-321,208L-320,204L-321,200L-323,198L-324,194L-329,193L-327,187L-325,180L-323,177L-319,174L-316,169L-310,167L-310,170L-316,171L-313,175L-313,180L-317,186L-314,194L-309,193L-307,186L-310,183L-311,175L-299,171L-300,166L-297,163L-293,170L-286,170L-280,176L-280,179L-271,179L-261,178L-255,183L-248,184L-242,181L-242,178L-230,178L-219,178L-227,181L-224,185L-216,186L-209,191L-207,199L-202,198L-198,201L-206,206L-207,210L-203,214L-206,215L-212,217L-212,221L-214,224Z" fill="#E0E0E0" stroke="#fff" stroke-width=".4"/><path d="M-167,263L-169,264L-175,263L-178,266L-182,267L-185,268L-186,270L-191,269L-197,265L-198,260L-200,255L-199,247L-196,244L-198,239L-202,238L-200,233L-203,231L-208,232L-214,224L-212,221L-212,217L-206,215L-203,214L-207,210L-206,206L-198,201L-192,204L-186,211L-186,216L-182,216L-177,221L-173,224L-175,233L-180,235L-180,238L-182,243L-177,250L-174,250L-173,255Z" fill="#E0E0E0" stroke="#fff" stroke-width=".4"/><path d="M-148,259L-153,257L-158,258L-162,258L-163,260L-161,262L-162,264L-167,263L-173,255L-174,250L-177,250L-182,243L-180,238L-180,235L-175,233L-173,224L-161,226L-160,224L-153,223L-142,226L-147,234L-146,241L-143,247L-144,251L-145,255Z" fill="#E0E0E0" stroke="#fff" stroke-width=".4"/><path d="M-120,242L-126,250L-129,258L-132,261L-137,262L-138,259L-140,259L-143,261L-148,259L-145,255L-144,251L-143,247L-146,241L-147,234L-142,226L-139,227L-132,229L-121,238ZM439,-270L444,-266L458,-263L453,-253L452,-243L449,-241L445,-242L445,-238L438,-230L438,-224L442,-226L446,-220L445,-216L448,-211L445,-207L447,-196L453,-195L451,-189L443,-181L424,-185L410,-181L408,-173L397,-171L386,-177L383,-174L365,-180L361,-185L366,-193L368,-220L358,-235L351,-242L336,-248L335,-259L348,-262L364,-258L361,-275L370,-268L393,-280L395,-292L404,-296L405,-290L410,-290L414,-284L421,-277L426,-278L434,-271L437,-270ZM464,-175L470,-180L472,-168L469,-158L464,-161L462,-170Z" fill="#E0E0E0" stroke="#fff" stroke-width=".4"/><path d="M681,503L676,502L673,503L668,501L664,501L658,496L651,495L648,488L648,484L644,483L633,472L630,466L628,464L624,456L635,457L638,458L641,458L646,452L655,443L658,443L659,439L665,435L672,434L673,437L681,437L685,439L688,442L692,443L697,446L697,459L695,466L695,473L696,476L695,482L694,483L691,491Z" fill="#E0E0E0" stroke="#fff" stroke-width=".4"/><path d="M664,501L651,509L642,517L639,524L636,528L630,528L629,534L628,537L622,539L614,539L609,536L605,535L600,537L598,542L593,545L589,550L582,551L579,548L580,541L575,531L572,529L572,498L582,498L582,461L589,461L604,458L608,462L614,458L617,458L622,455L624,456L628,464L630,466L633,472L644,483L648,484L648,488L651,495L658,496Z" fill="#E0E0E0" stroke="#fff" stroke-width=".4"/><path d="M572,529L572,569L563,575L558,576L552,573L548,573L546,568L542,565L538,570L530,562L527,554L525,544L522,536L519,519L519,507L517,501L514,497L509,488L504,476L502,470L494,460L493,452L498,450L504,448L510,448L516,453L517,452L556,452L563,457L586,458L604,454L612,452L618,452L622,455L622,455L617,458L614,458L608,462L604,458L589,461L582,461L582,498L572,498Z" fill="#E0E0E0" stroke="#fff" stroke-width=".4"/><path d="M218,149L214,141L209,138L213,136L218,129L220,124L224,121L229,121L233,119L239,119L243,122L250,125L256,132L262,139L262,145L264,151L268,154L269,158L268,161L267,161L262,160L261,161L259,162L252,159L247,159L229,159L227,160L223,160L218,161L217,154L226,154L228,152L230,152L233,150L237,152L242,152L246,150L244,147L241,149L238,149L234,146L231,147L229,149Z" fill="#E0E0E0" stroke="#fff" stroke-width=".4"/><path d="M268,161L269,158L268,154L264,151L262,145L262,139L265,137L267,131L270,131L277,134L282,132L286,132L287,130L326,130L328,123L327,122L322,78L317,33L332,32L365,55L397,78L400,83L406,86L410,88L410,94L421,93L421,117L416,123L415,129L406,131L393,132L389,135L383,136L377,136L375,134L369,135L360,140L358,143L351,147L350,150L346,152L341,150L338,153L337,160L329,168L329,171L327,175L327,181L323,182L321,184L320,180L317,181L315,180L313,183L306,183L303,182L302,183L299,180L300,177L298,176L296,177L297,173L299,171L295,167L293,164L291,162L289,162L287,163L284,164L281,167L277,166L274,163L273,163L270,164L269,164Z" fill="#E0E0E0" stroke="#fff" stroke-width=".4"/><path d="M215,74L217,71L255,71L253,56L255,50L264,49L264,22L296,23L296,6L332,32L317,33L322,78L327,122L328,123L326,130L287,130L286,132L282,132L277,134L270,131L267,131L265,137L262,139L256,132L250,125L243,122L239,119L233,119L229,121L224,121L220,124L220,118L222,113L223,104L222,94L221,89L222,83L220,79Z" fill="#E0E0E0" stroke="#fff" stroke-width=".4"/><path d="M406,221L398,222L395,216L396,193L394,191L393,186L390,183L387,180L388,175L392,174L394,169L398,169L400,166L404,163L407,163L415,168L414,172L416,177L414,181L415,184L411,190L408,193L406,199L406,206Z" fill="#E0E0E0" stroke="#fff" stroke-width=".4"/><path d="M406,221L406,206L406,199L408,193L411,190L415,184L414,181L416,177L414,172L415,168L415,160L418,156L419,150L422,148L432,146L442,150L446,154L450,154L455,152L467,157L472,157L477,152L483,153L486,151L491,152L499,155L506,149L508,150L515,160L517,160L521,164L519,166L519,169L511,177L508,183L507,188L505,190L503,197L498,201L496,206L494,210L493,214L487,217L481,213L477,214L472,219L469,219L464,229L462,236L452,239L448,239L444,241L437,241L431,235L428,228L421,221L414,221Z" fill="#E0E0E0" stroke="#fff" stroke-width=".4"/><path d="M520,156L524,163L524,169L524,176L529,185L524,185L521,185L517,184L515,189L520,195L524,196L526,201L529,207L527,210L522,220L520,222L519,229L520,233L520,236L524,241L525,245L529,250L533,253L533,257L534,260L534,265L526,263L518,260L506,260L505,259L499,261L493,259L489,260L473,260L474,252L471,246L466,244L464,240L462,238L462,236L464,229L469,219L472,219L477,214L481,213L487,217L493,214L494,210L496,206L498,201L503,197L505,190L507,188L508,183L511,177L519,169L519,166L521,164L517,160L517,157Z" fill="#E0E0E0" stroke="#fff" stroke-width=".4"/><path d="M388,175L387,180L390,183L393,186L394,191L396,193L395,216L398,222L390,224L388,221L385,215L384,210L386,201L384,198L383,190L383,183L379,178L380,175Z" fill="#E0E0E0" stroke="#fff" stroke-width=".4"/><path d="M380,175L379,178L383,183L383,190L384,198L386,201L384,210L385,215L388,221L390,224L375,230L369,233L361,236L352,233L352,230L348,221L351,210L355,202L352,188L351,181L351,175L368,175L372,175L375,174Z" fill="#E0E0E0" stroke="#fff" stroke-width=".4"/><path d="M302,183L303,182L306,183L313,183L315,180L317,181L320,180L321,184L323,182L327,181L332,183L333,186L338,188L341,186L346,186L352,188L355,202L351,210L348,221L352,230L352,233L348,234L341,232L335,232L323,234L316,236L307,240L305,240L306,232L307,230L306,227L302,223L299,222L296,219L299,215L298,210L298,207L300,207L300,203L299,201L300,200L304,199L301,191L299,187L300,183Z" fill="#E0E0E0" stroke="#fff" stroke-width=".4"/><path d="M247,159L252,159L259,162L261,161L262,160L267,161L268,161L269,164L270,164L273,163L274,163L277,166L281,167L284,164L287,163L289,162L291,162L293,164L295,167L299,171L297,173L296,177L298,176L300,177L299,180L302,183L300,183L299,187L301,191L304,199L300,200L299,201L300,203L300,207L298,207L295,207L293,211L291,211L289,209L289,205L285,199L283,200L281,200L278,201L278,197L277,195L277,192L275,188L272,184L264,184L262,186L259,186L258,188L257,191L252,195L247,190L244,186L241,185L239,183L238,178L236,176L233,174L238,170L241,170L243,168L245,168L247,167L246,164L247,163Z" fill="#E0E0E0" stroke="#fff" stroke-width=".4"/><path d="M218,161L223,160L227,160L229,159L247,159L247,163L246,164L247,167L245,168L243,168L241,170L238,170L233,174L228,170L224,170L222,167L222,165L219,163Z" fill="#E0E0E0" stroke="#fff" stroke-width=".4"/><path d="M298,207L298,210L299,215L296,219L299,222L302,223L306,227L307,230L306,232L305,240L302,240L293,235L284,228L276,222L269,216L271,213L272,210L276,205L281,200L283,200L285,199L289,205L289,209L291,211L293,211L295,207Z" fill="#E0E0E0" stroke="#fff" stroke-width=".4"/><path d="M252,195L257,191L258,188L259,186L262,186L264,184L272,184L275,188L277,192L277,195L278,197L278,201L281,200L276,205L272,210L271,213L269,216L266,215L259,211L254,206L253,203Z" fill="#E0E0E0" stroke="#fff" stroke-width=".4"/><path d="M327,181L327,175L329,171L329,168L337,160L338,153L341,150L346,152L350,150L351,147L358,143L360,140L369,135L375,134L377,136L383,136L382,141L384,145L389,152L390,157L401,159L400,166L398,169L394,169L392,174L388,175L380,175L375,174L372,175L368,175L351,175L351,181L352,188L346,186L341,186L338,188L333,186L332,183Z" fill="#E0E0E0" stroke="#fff" stroke-width=".4"/><path d="M644,231L641,232L635,232L628,231L624,232L623,234L619,234L616,232L605,237L600,236L599,237L596,243L589,241L582,240L576,236L568,233L563,236L559,241L558,248L552,247L545,246L539,251L534,260L533,257L533,253L529,250L525,245L524,241L520,236L520,233L519,229L520,222L522,220L527,210L535,209L537,207L539,207L541,209L553,205L557,202L562,198L561,195L564,194L574,194L583,190L590,179L595,175L601,173L602,178L607,184L607,188L606,192L606,195L610,198L617,202L622,206L623,209L629,214L633,218L635,224L643,228Z" fill="#E0E0E0" stroke="#fff" stroke-width=".4"/><path d="M558,248L557,254L555,259L553,265L551,274L552,279L550,282L550,286L549,289L543,294L538,299L534,308L534,316L532,319L526,324L521,330L517,328L516,326L511,325L508,329L505,328L502,325L499,326L495,331L487,320L494,315L491,309L494,306L500,305L501,301L506,305L515,306L518,301L519,295L518,287L513,281L518,270L515,268L508,269L505,264L506,260L518,260L526,263L534,265L534,260L539,251L545,246L552,247Z" fill="#E0E0E0" stroke="#fff" stroke-width=".4"/><path d="M489,260L493,259L499,261L505,259L506,260L505,264L508,269L515,268L518,270L513,281L518,287L519,295L518,301L515,306L506,305L501,301L500,305L494,306L491,309L494,315L487,320L477,311L471,303L465,293L465,289L467,286L469,279L471,272L475,272L489,272Z" fill="#E0E0E0" stroke="#fff" stroke-width=".4"/><path d="M473,260L489,260L489,272L475,272L471,272L470,271Z" fill="#E0E0E0" stroke="#fff" stroke-width=".4"/><path d="M677,363L681,365L685,367L691,369L696,371L701,376L703,384L702,387L700,395L702,403L699,406L696,416L701,418L671,427L672,434L665,435L659,439L658,443L655,443L646,452L641,458L638,458L635,457L624,456L622,455L622,455L618,452L612,452L604,454L598,448L591,439L592,408L612,408L611,404L612,401L611,396L612,391L611,388L614,388L615,391L619,391L625,392L629,397L636,398L642,395L644,400L652,401L655,406L659,411L667,411L666,401L663,402L657,398L654,397L655,387L657,375L655,371L657,365L660,363L673,362Z" fill="#E0E0E0" stroke="#fff" stroke-width=".4"/><path d="M696,371L706,373L708,376L711,381L714,394L711,402L714,414L717,414L721,417L725,425L725,438L721,440L718,447L712,440L711,433L713,429L713,425L709,422L706,423L701,418L696,416L699,406L702,403L700,395L702,387L703,384L701,376Z" fill="#E0E0E0" stroke="#fff" stroke-width=".4"/><path d="M714,394L721,393L733,396L735,395L742,394L745,392L751,392L762,388L769,382L771,387L771,396L772,405L772,421L774,426L771,433L767,440L761,446L752,450L741,455L730,466L727,467L720,475L716,477L715,484L720,492L722,498L722,501L723,501L723,511L722,516L724,518L722,522L718,526L710,530L699,535L695,539L695,544L698,545L697,550L690,550L689,545L687,541L687,537L688,525L686,517L681,503L691,491L694,483L695,482L696,476L695,473L695,466L697,459L697,446L692,443L688,442L685,439L681,437L673,437L672,434L671,427L701,418L706,423L709,422L713,425L713,429L711,433L712,440L718,447L721,440L725,438L725,425L721,417L717,414L714,414L711,402Z" fill="#E0E0E0" stroke="#fff" stroke-width=".4"/><path d="M505,328L502,330L500,333L500,337L497,338L495,331L499,326L502,325ZM499,341L503,340L506,340L509,339L537,339L540,346L543,352L545,355L549,360L555,359L558,358L563,359L565,357L567,351L573,351L574,349L579,349L578,353L590,353L590,359L592,362L590,368L591,374L594,378L594,390L596,389L600,389L606,388L611,388L612,391L611,396L612,401L611,404L612,408L592,408L591,439L598,448L604,454L586,458L563,457L556,452L517,452L516,453L510,448L504,448L498,450L493,452L492,445L493,437L497,427L497,423L500,414L503,410L508,404L511,399L512,392L512,386L509,383L506,377L504,371L505,369L508,365L505,356L503,349L498,343Z" fill="#E0E0E0" stroke="#fff" stroke-width=".4"/><path d="M674,305L675,309L677,311L677,314L675,316L671,321L667,325L663,325L663,314L660,309L666,310L669,305Z" fill="#E0E0E0" stroke="#fff" stroke-width=".4"/><path d="M725,-53L723,-50L720,-51L718,-43L720,-42L718,-41L717,-38L722,-39L722,-35L717,-17L716,-20L711,-36L714,-40L713,-41L716,-46L718,-55L719,-57L719,-58L722,-58L723,-60L726,-60L726,-55L725,-53Z" fill="#E0E0E0" stroke="#fff" stroke-width=".4"/><path d="M726,-60L723,-60L722,-58L719,-58L723,-67L727,-75L728,-76L732,-75L734,-70L728,-66Z" fill="#E0E0E0" stroke="#fff" stroke-width=".4"/><path d="M859,403L861,408L864,414L865,426L868,431L867,436L865,439L862,433L860,436L862,443L861,447L858,450L858,458L854,470L849,484L843,504L839,519L835,531L827,534L819,538L813,535L805,532L803,526L802,517L799,508L798,501L800,493L804,491L804,488L809,480L810,473L807,469L805,462L805,453L808,447L809,441L814,440L820,438L823,437L827,436L833,431L841,425L844,420L842,415L847,416L852,410L852,404L855,399Z" fill="#E0E0E0" stroke="#fff" stroke-width=".4"/><path d="M722,-39L717,-38L718,-41L720,-42L718,-43L720,-51L723,-50L723,-43Z" fill="#E0E0E0" stroke="#fff" stroke-width=".4"/><path d="M218,149L229,149L231,147L234,146L238,149L241,149L244,147L246,150L242,152L237,152L233,150L230,152L228,152L226,154L217,154Z" fill="#E0E0E0" stroke="#fff" stroke-width=".4"/><path d="M471,-26L467,-46L461,-51L461,-54L453,-60L452,-69L458,-76L461,-85L459,-97L461,-103L472,-108L478,-107L478,-100L486,-105L487,-103L482,-97L482,-91L485,-88L484,-78L478,-72L480,-66L485,-65L487,-60L491,-58L490,-49L485,-46L482,-42L476,-38L477,-33L476,-28Z" fill="#E0E0E0" stroke="#fff" stroke-width=".4"/><path d="M296,6L296,4L296,3L296,-10L311,-18L321,-19L329,-22L333,-28L344,-33L344,-41L350,-42L354,-46L367,-48L369,-52L366,-55L363,-67L362,-74L359,-82L368,-88L378,-90L384,-95L394,-99L410,-101L426,-102L431,-100L440,-105L450,-105L454,-102L461,-103L459,-97L461,-85L458,-76L452,-69L453,-60L461,-54L461,-51L467,-46L471,-26L474,-16L475,-11L473,-2L474,3L473,9L474,16L470,20L475,28L476,33L479,39L484,37L491,42L496,48L462,68L435,89L421,93L410,94L410,88L406,86L400,83L397,78L365,55L332,32Z" fill="#E0E0E0" stroke="#fff" stroke-width=".4"/><path d="M723,-50L725,-53L736,-49L755,-61L759,-47L757,-45L737,-39L747,-28L744,-26L742,-23L735,-21L733,-17L728,-14L718,-15L717,-17L722,-35L722,-39L723,-43Z" fill="#E0E0E0" stroke="#fff" stroke-width=".4"/><path d="M878,40L880,40L880,42L888,41L896,41L902,41L908,34L916,27L922,21L924,24L925,33L920,33L919,40L921,41L917,43L916,48L914,52L913,56L911,59L882,53L879,43Z" fill="#E0E0E0" stroke="#fff" stroke-width=".4"/><path d="M871,35L870,27L873,21L876,20L878,23L879,30L876,36L874,37Z" fill="#E0E0E0" stroke="#fff" stroke-width=".4"/><path d="M843,-22L846,-17L845,-15L848,-6L841,-6L839,-11L830,-12L837,-23Z" fill="#E0E0E0" stroke="#fff" stroke-width=".4"/><path d="M759,-47L755,-61L776,-73L780,-87L779,-96L784,-99L789,-107L793,-108L804,-107L808,-104L813,-106L819,-91L825,-88L826,-81L821,-77L819,-68L825,-57L837,-50L842,-42L841,-34L844,-34L844,-28L849,-22L843,-22L837,-23L830,-12L812,-13L785,-36L770,-44Z" fill="#E0E0E0" stroke="#fff" stroke-width=".4"/><path d="M913,56L914,52L916,48L917,43L921,41L919,40L920,33L925,33L929,40L935,44L942,45L947,47L952,53L954,57L958,58L958,60L954,67L953,70L949,73L945,80L941,79L939,82L937,87L938,94L937,95L933,95L927,99L926,104L924,106L918,106L914,109L914,113L909,116L904,115L898,118L893,119L890,111L882,95L911,84L918,64ZM924,24L922,21L925,17L926,18L925,22Z" fill="#E0E0E0" stroke="#fff" stroke-width=".4"/><path d="M1132,-86L1123,-76L1112,-74L1097,-77L1093,-72L1096,-62L1099,-54L1107,-48L1099,-42L1099,-33L1090,-22L1084,-11L1074,1L1062,-0L1052,11L1058,16L1059,24L1065,30L1067,39L1045,39L1039,46L1032,43L1029,36L1021,28L1004,30L988,30L974,31L978,19L992,13L991,8L986,6L986,-3L977,-8L973,-15L968,-21L984,-15L994,-17L1000,-15L1002,-18L1009,-17L1021,-21L1021,-31L1027,-37L1034,-37L1035,-40L1042,-42L1046,-41L1050,-44L1049,-51L1053,-58L1060,-61L1056,-68L1065,-68L1068,-72L1067,-77L1072,-82L1071,-88L1069,-93L1074,-98L1085,-100L1096,-102L1101,-104L1106,-105L1113,-100L1116,-90Z" fill="#E0E0E0" stroke="#fff" stroke-width=".4"/><path d="M1023,-108L1028,-108L1035,-105L1038,-104L1045,-108L1049,-106L1052,-111L1058,-111L1059,-113L1060,-118L1064,-122L1069,-119L1068,-115L1071,-115L1070,-105L1074,-101L1078,-103L1082,-104L1088,-110L1095,-109L1105,-109L1106,-105L1101,-104L1096,-102L1085,-100L1074,-98L1069,-93L1071,-88L1072,-82L1067,-77L1068,-72L1065,-68L1056,-68L1060,-61L1053,-58L1049,-51L1050,-44L1046,-41L1042,-42L1035,-40L1034,-37L1027,-37L1021,-31L1021,-21L1009,-17L1002,-18L1000,-15L994,-17L984,-15L968,-21L977,-31L976,-38L969,-40L968,-47L965,-56L969,-63L965,-64L968,-73L971,-88L981,-83L989,-85L991,-90L998,-92L1004,-95L1006,-105L1014,-107L1015,-112L1020,-109Z" fill="#E0E0E0" stroke="#fff" stroke-width=".4"/><path d="M887,-164L892,-168L902,-171L909,-167L916,-157L921,-157L932,-158L930,-164L938,-169L946,-176L960,-169L961,-159L964,-156L975,-157L978,-155L983,-141L994,-133L1000,-127L1010,-121L1023,-116L1023,-108L1020,-109L1015,-112L1014,-107L1006,-105L1004,-95L998,-92L991,-90L989,-85L981,-83L971,-88L971,-98L963,-98L952,-109L945,-110L934,-116L927,-117L923,-115L916,-115L909,-108L901,-106L899,-115L901,-128L893,-132L896,-140L889,-141L891,-152L900,-149L909,-153L902,-161L899,-168L891,-165L890,-155Z" fill="#E0E0E0" stroke="#fff" stroke-width=".4"/><path d="M849,-22L844,-28L844,-34L841,-34L842,-42L837,-50L825,-57L819,-68L821,-77L826,-81L825,-88L819,-91L813,-106L807,-116L809,-119L806,-134L813,-137L814,-132L819,-127L826,-125L829,-125L841,-135L844,-136L847,-132L844,-126L850,-119L852,-120L855,-111L864,-108L871,-102L885,-100L900,-103L901,-106L909,-108L916,-115L923,-115L927,-117L934,-116L945,-110L952,-109L963,-98L971,-98L971,-88L968,-73L965,-64L969,-63L965,-56L968,-47L969,-40L976,-38L977,-31L968,-21L973,-15L977,-8L986,-3L986,6L991,8L992,13L978,19L974,31L956,28L945,26L935,24L930,11L926,9L918,11L909,16L897,13L887,4L878,1L871,-9L864,-24L859,-22L853,-26Z" fill="#E0E0E0" stroke="#fff" stroke-width=".4"/><path d="M725,-53L725,-53L726,-55L726,-60L728,-66L734,-70L732,-75L728,-76L727,-85L729,-90L732,-92L734,-95L735,-102L738,-99L749,-103L754,-100L762,-100L773,-105L778,-105L789,-107L784,-99L779,-96L780,-87L776,-73L755,-61L736,-49Z" fill="#E0E0E0" stroke="#fff" stroke-width=".4"/><path d="M829,-125L826,-125L822,-132L822,-134L818,-134L815,-138L813,-137L809,-141L802,-144L803,-150L801,-155L814,-157L816,-153L820,-151L818,-148L823,-144L821,-140L825,-136L829,-134Z" fill="#E0E0E0" stroke="#fff" stroke-width=".4"/><path d="M653,-213L657,-211L661,-213L666,-210L666,-207L661,-204L658,-205L656,-189L650,-190L643,-195L632,-192L627,-189L613,-189L605,-191L601,-191L599,-196L597,-198L599,-201L597,-202L594,-199L588,-203L587,-209L581,-212L580,-217L575,-222L583,-225L589,-234L593,-244L599,-247L603,-250L609,-248L616,-248L620,-245L623,-247L630,-248L633,-252L637,-252L640,-250L643,-246L646,-240L652,-232L652,-225L651,-219Z" fill="#E0E0E0" stroke="#fff" stroke-width=".4"/><path d="M599,-196L601,-191L605,-191L613,-189L627,-189L632,-192L643,-195L650,-190L656,-189L651,-183L647,-174L650,-167L642,-168L632,-164L632,-158L623,-157L616,-161L609,-157L602,-158L601,-166L596,-171L598,-172L597,-174L598,-178L602,-182L597,-188L596,-193Z" fill="#E0E0E0" stroke="#fff" stroke-width=".4"/><path d="M634,-83L633,-80L619,-79L619,-81L607,-83L609,-88L614,-84L622,-85L629,-84L629,-82ZM602,-158L609,-157L616,-161L623,-157L632,-158L632,-164L637,-161L634,-153L632,-151L626,-152L621,-153L609,-150L616,-142L611,-140L605,-140L600,-147L598,-144L601,-137L605,-131L602,-128L607,-122L612,-119L612,-112L603,-115L606,-109L600,-107L603,-97L597,-97L589,-102L586,-112L584,-120L580,-125L575,-133L574,-136L579,-142L579,-146L583,-148L583,-151L589,-153L593,-155L598,-155L600,-157Z" fill="#E0E0E0" stroke="#fff" stroke-width=".4"/><path d="M813,-106L808,-104L804,-107L793,-108L789,-107L778,-105L773,-105L762,-100L754,-100L749,-103L738,-99L735,-102L734,-95L732,-92L729,-90L726,-95L729,-100L723,-98L715,-101L709,-94L694,-93L686,-99L676,-100L673,-95L667,-93L657,-100L647,-100L641,-112L634,-118L639,-128L633,-134L643,-146L658,-147L662,-156L681,-155L692,-163L704,-167L720,-167L737,-158L750,-153L762,-155L770,-154L781,-160L792,-161L801,-155L803,-150L802,-144L809,-141L813,-137L806,-134L809,-119L807,-116ZM632,-164L642,-168L650,-167L651,-162L660,-157L658,-154L647,-154L643,-150L634,-143L631,-149L632,-151L634,-153L637,-161Z" fill="#E0E0E0" stroke="#fff" stroke-width=".4"/><path d="M583,-151L583,-148L579,-146L579,-142L574,-136L573,-137L573,-140L567,-144L566,-150L567,-159L569,-163L567,-165L566,-169L570,-175L571,-173L574,-174L576,-171L578,-169L579,-165L577,-160L579,-155Z" fill="#E0E0E0" stroke="#fff" stroke-width=".4"/><path d="M540,-227L543,-226L550,-220L558,-217L562,-219L564,-214L567,-210L563,-205L559,-208L552,-207L544,-210L539,-209L537,-206L534,-210L532,-204L537,-198L539,-193L543,-188L547,-185L550,-180L559,-175L558,-173L549,-178L543,-182L534,-186L526,-196L528,-197L524,-203L524,-207L517,-210L515,-204L512,-208L512,-213L512,-213L519,-213L521,-215L524,-213L528,-213L528,-216L531,-218L532,-224Z" fill="#E0E0E0" stroke="#fff" stroke-width=".4"/><path d="M292,-165L296,-168L300,-170L302,-164L308,-164L309,-165L315,-165L318,-158L313,-155L313,-145L312,-143L311,-137L307,-136L311,-129L308,-120L312,-117L310,-114L307,-109L308,-105L304,-102L299,-103L294,-102L295,-112L294,-119L290,-120L287,-125L288,-133L292,-138L293,-143L295,-150L295,-156L293,-160Z" fill="#E0E0E0" stroke="#fff" stroke-width=".4"/><path d="M308,-105L307,-109L310,-114L312,-117L308,-120L311,-129L307,-136L311,-137L312,-143L313,-145L313,-155L318,-158L315,-165L309,-165L308,-164L302,-164L300,-170L296,-168L292,-165L293,-174L289,-180L302,-189L314,-187L327,-187L338,-185L346,-186L361,-185L365,-180L383,-174L386,-177L397,-171L408,-173L409,-165L400,-156L387,-154L387,-149L381,-142L377,-132L381,-125L375,-120L373,-112L366,-109L359,-100L347,-100L337,-100L331,-96L328,-91L323,-92L319,-96L317,-103Z" fill="#E0E0E0" stroke="#fff" stroke-width=".4"/><path d="M481,-233L486,-231L488,-233L497,-236L499,-231L513,-227L512,-220L514,-215L507,-217L499,-212L499,-205L498,-201L501,-194L510,-187L515,-176L526,-166L534,-166L536,-163L533,-160L542,-156L549,-152L557,-145L558,-143L556,-138L551,-144L543,-146L539,-138L546,-134L544,-127L540,-126L535,-116L531,-115L531,-119L533,-125L535,-128L532,-135L529,-141L525,-143L522,-148L516,-151L511,-156L504,-157L497,-163L488,-171L481,-179L478,-192L473,-193L466,-198L461,-196L456,-190L451,-189L453,-195L447,-196L445,-207L448,-211L445,-216L446,-220L450,-217L455,-218L460,-222L462,-220L466,-221L468,-226L476,-225L480,-227ZM522,-118L530,-119L526,-109L528,-105L526,-99L518,-104L513,-105L500,-111L501,-117L512,-116ZM464,-152L469,-156L474,-147L473,-130L469,-131L465,-127L461,-130L461,-146L458,-153Z" fill="#E0E0E0" stroke="#fff" stroke-width=".4"/><path d="M828,-165L831,-164L838,-156L842,-155L844,-159L849,-164L854,-157L859,-148L864,-147L867,-144L859,-143L857,-133L856,-129L852,-126L852,-120L850,-119L844,-126L847,-132L844,-136L841,-135L829,-125L829,-134L825,-136L821,-140L823,-144L818,-148L820,-151L816,-153L814,-157L817,-159L824,-155L829,-154L831,-156L826,-163ZM826,-125L819,-127L814,-132L813,-137L815,-138L818,-134L822,-134L822,-132Z" fill="#E0E0E0" stroke="#fff" stroke-width=".4"/><path d="M766,-185L767,-187L775,-185L790,-182L803,-176L804,-174L810,-176L819,-173L822,-168L828,-165L826,-163L831,-156L829,-154L824,-155L817,-159L814,-157L801,-155L792,-161L781,-160L783,-166L780,-175L775,-180L769,-181Z" fill="#E0E0E0" stroke="#fff" stroke-width=".4"/><path d="M732,141L731,137L735,122L736,115L739,112L746,111L751,105L757,117L759,126L765,131L778,140L783,146L788,152L791,155L796,158L793,160L789,160L786,156L782,151L778,147L775,144L767,140L760,140L758,138L752,140L746,136L743,143Z" fill="#E0E0E0" stroke="#fff" stroke-width=".4"/><path d="M-183,481L-180,487L-181,501L-170,503L-166,501L-160,504L-158,507L-157,516L-156,521L-152,521L-149,519L-145,521L-145,527L-147,533L-149,540L-150,549L-159,557L-167,559L-177,557L-187,555L-178,538L-179,533L-189,529L-201,521L-209,520L-227,503L-223,490L-222,485L-218,476L-201,473L-192,473L-183,478Z" fill="#E0E0E0" stroke="#fff" stroke-width=".4"/><path d="M882,95L890,111L893,119L886,121L884,126L884,129L874,133L859,138L850,145L846,146L843,145L837,149L831,151L823,152L821,152L819,155L816,156L815,158L810,158L807,159L800,159L798,153L798,147L796,145L794,137L792,133L793,133L792,128L794,126L793,122L797,118L796,114L799,109L803,112L806,111L817,111L819,112L828,113L832,112L834,116L839,114L846,103L855,99Z" fill="#E0E0E0" stroke="#fff" stroke-width=".4"/><path d="M718,-15L728,-14L733,-17L735,-21L742,-23L744,-26L747,-28L737,-39L757,-45L759,-47L770,-44L785,-36L812,-13L830,-12L839,-11L841,-6L848,-6L852,3L856,6L858,9L865,14L865,18L864,22L865,26L868,29L869,32L871,35L874,37L876,36L878,40L879,43L882,53L911,59L913,56L918,64L911,84L882,95L855,99L846,103L839,114L834,116L832,112L828,113L819,112L817,111L806,111L803,112L799,109L796,114L797,118L793,122L792,117L789,114L788,110L783,107L778,98L775,90L769,83L764,81L758,71L757,64L757,58L752,46L747,42L742,40L739,34L739,31L737,26L734,23L730,15L724,6L719,-1L714,-1L716,-7L716,-11Z" fill="#E0E0E0" stroke="#fff" stroke-width=".4"/><path d="M696,-81L697,-82L698,-84L705,-84L714,-88L707,-83L708,-81L707,-81L705,-80L704,-80L703,-80L703,-81L702,-82L701,-82L698,-81Z" fill="#E0E0E0" stroke="#fff" stroke-width=".4"/><path d="M696,-81L698,-81L701,-82L702,-82L703,-81L703,-80L704,-80L705,-80L707,-81L708,-81L708,-80L698,-75L694,-76L692,-81Z" fill="#E0E0E0" stroke="#fff" stroke-width=".4"/><path d="M359,-82L362,-74L363,-67L366,-55L369,-52L367,-48L354,-46L350,-42L344,-41L344,-33L333,-28L329,-22L321,-19L311,-18L296,-10L296,3L294,3L295,9L289,10L285,12L281,12L278,11L269,12L266,20L263,21L259,35L245,46L242,60L238,65L237,69L215,70L215,70L215,65L219,62L222,57L222,53L225,46L230,39L234,37L236,31L236,25L240,19L246,15L253,4L253,3L258,-1L267,-2L274,-9L279,-12L287,-22L285,-36L288,-45L290,-51L296,-59L306,-65L313,-69L319,-82L322,-89L329,-89L335,-84L344,-85L354,-82Z" fill="#E0E0E0" stroke="#fff" stroke-width=".4"/><path d="M736,64L698,64L660,64L621,64L621,25L621,-14L618,-23L621,-30L619,-35L623,-40L636,-40L645,-37L655,-34L659,-32L667,-36L671,-39L679,-40L686,-39L689,-33L691,-37L699,-34L706,-33L711,-36L716,-20L717,-17L715,-12L712,-4L710,2L708,3L704,-0L700,-5L693,-21L692,-20L696,-8L702,3L709,20L713,26L716,32L725,43L723,45L723,52L734,62Z" fill="#E0E0E0" stroke="#fff" stroke-width=".4"/><path d="M621,64L621,84L610,84L610,89L572,69L533,49L523,55L516,59L511,53L496,48L491,42L484,37L479,39L476,33L475,28L470,20L474,16L473,9L474,3L473,-2L475,-11L474,-16L471,-26L476,-28L477,-33L476,-38L482,-42L485,-46L490,-49L491,-58L502,-54L506,-55L514,-53L527,-48L532,-38L540,-36L554,-31L564,-25L569,-28L574,-34L571,-42L574,-48L581,-53L588,-55L601,-52L604,-47L608,-47L611,-45L621,-44L623,-40L619,-35L621,-30L618,-23L621,-14L621,25Z" fill="#E0E0E0" stroke="#fff" stroke-width=".4"/><path d="M842,204L814,233L802,234L793,241L787,241L784,244L778,244L774,241L765,245L762,249L756,248L754,247L751,247L748,247L736,239L729,239L726,236L726,230L721,229L715,218L711,216L709,212L704,207L698,206L702,201L707,201L708,198L708,189L711,178L715,176L716,172L721,164L726,159L730,149L732,141L743,143L746,136L752,140L758,138L760,140L767,140L775,144L778,147L782,151L786,156L789,160L786,164L782,169L783,171L783,174L789,174L791,174L793,176L791,179L795,184L798,189L802,193L834,204Z" fill="#E0E0E0" stroke="#fff" stroke-width=".4"/><path d="M789,160L793,160L796,158L798,161L798,165L793,168L797,170L793,176L791,174L789,174L783,174L783,171L782,169L786,164Z" fill="#E0E0E0" stroke="#fff" stroke-width=".4"/><path d="M853,171L853,171L853,175L853,185L853,190L848,196L842,204L834,204L802,193L798,189L795,184L791,179L793,176L797,170L800,172L802,176L806,180L811,180L820,178L831,177L839,174L844,173L847,171Z" fill="#E0E0E0" stroke="#fff" stroke-width=".4"/><path d="M707,291L688,292L677,292L674,293L668,296L666,295L666,288L668,284L668,276L671,272L674,267L678,264L681,261L677,259L678,248L682,245L688,247L696,245L702,245L708,241L713,247L714,252L718,263L715,270L710,277L707,281Z" fill="#E0E0E0" stroke="#fff" stroke-width=".4"/><path d="M674,293L678,298L677,304L674,305L669,305L666,310L660,309L661,304L662,303L663,298L666,295L668,296Z" fill="#E0E0E0" stroke="#fff" stroke-width=".4"/><path d="M559,-175L550,-180L547,-185L543,-188L539,-193L537,-198L532,-204L534,-210L537,-206L539,-209L544,-210L552,-207L559,-208L563,-205L567,-205L564,-199L569,-193L568,-187L565,-186L564,-185L560,-182Z" fill="#E0E0E0" stroke="#fff" stroke-width=".4"/><path d="M596,-171L601,-166L602,-158L600,-157L598,-155L593,-155L589,-153L583,-151L579,-155L577,-160L579,-165L580,-164L580,-167L586,-169L588,-170L592,-170Z" fill="#E0E0E0" stroke="#fff" stroke-width=".4"/><path d="M562,-219L569,-223L575,-222L580,-217L581,-212L587,-209L588,-203L594,-199L597,-202L599,-201L597,-198L599,-196L596,-193L597,-188L602,-182L598,-178L597,-174L598,-172L596,-171L592,-170L588,-170L588,-171L589,-172L590,-175L589,-175L587,-178L585,-178L584,-180L582,-181L581,-183L579,-182L578,-178L575,-177L576,-178L573,-181L569,-182L568,-184L565,-186L568,-187L569,-193L564,-199L567,-205L563,-205L567,-210L564,-214Z" fill="#E0E0E0" stroke="#fff" stroke-width=".4"/><path d="M574,-174L571,-173L570,-175L566,-169L567,-165L565,-166L562,-170L558,-173L559,-175L560,-182L564,-185L565,-186L568,-184L569,-182L573,-181L576,-178L575,-177Z" fill="#E0E0E0" stroke="#fff" stroke-width=".4"/><path d="M579,-165L578,-169L576,-171L574,-174L575,-177L578,-178L579,-182L581,-183L582,-181L584,-180L585,-178L587,-178L589,-175L590,-175L589,-172L588,-171L588,-170L586,-169L580,-167L580,-164Z" fill="#E0E0E0" stroke="#fff" stroke-width=".4"/><path d="M678,248L669,241L667,237L662,239L657,239L654,240L650,239L644,231L643,228L635,224L633,218L629,214L623,209L622,206L617,202L611,198L614,197L617,195L619,187L622,182L629,181L631,183L636,189L638,190L642,188L649,189L650,191L660,191L660,189L665,187L666,184L670,182L678,188L683,187L688,179L693,174L692,168L690,165L696,165L696,163L701,163L700,170L701,178L706,181L707,185L707,190L708,190L708,198L707,201L702,201L698,206L704,207L709,212L711,216L715,218L721,229L714,235L708,241L702,245L696,245L688,247L682,245Z" fill="#E0E0E0" stroke="#fff" stroke-width=".4"/></g><g clip-path="url(#v)"><path d="M511.2,148.1L509.4,148.1L508.4,148.4L507.2,149.4L505.8,149.8L504.1,150.6L503.0,151.3L502.0,151.8L500.6,153.1L500.1,154.1L498.7,154.3L496.8,154.2L495.5,153.2L492.7,152.1L490.8,151.7L489.9,151.6L485.6,151.4L480.9,151.8L478.5,152.3L478.1,152.4L476.7,153.0L475.6,153.7L472.6,156.9L468.6,156.8L466.2,156.5L464.2,156.0L461.3,154.5L457.9,152.2L456.5,151.9L455.3,151.7L454.9,151.7L450.7,154L449.9,153.9L449.0,154.2L448.3,154.8L447.8,155.1L447.3,155.1L446.7,155.0L446.0,154.6L445.4,154L443.7,151.4L443.3,151.0L442.6,150.2L441.3,149.1L440.5,148.5L440.0,148.4L439.4,148.5L436.0,147.5L432.7,146.4L432.0,146.5L431.4,146.8L430.3,147.5L428.9,147.7L427.2,147.6L426.2,147.5L424.7,147.8L423.7,148.1L422.4,148.6L420.6,150.1L420.1,150.3L419.7,150.5L419.1,154.5L418.6,155.7L417.8,157.3L416.1,158.8L414.8,159.7L414.8,161.0L414.7,163.0L414.7,164.4L414.8,165.3L414.6,165.7L414.5,166.1L414.6,166.7L414.9,166.9L415.0,167.3L414.9,167.6L414.4,168.0L413.8,167.1L413.0,166.4L412.1,166.2L411.5,165.7L411.2,165.1L410.0,163.8L407.4,161.3L407.1,161.3L406.7,161.2L406.0,161.5L405.5,161.9L405.2,162.0L404.7,162.1L403.5,162.4L402.5,162.8L402.4,163.1L402.9,165.0L402.7,166.0L402.2,165.5L400.8,163.6L399.8,162.2L399.6,161.9L399.5,161.4L399.6,161.2L400.0,161.1L400.9,160.9L401.1,160.7L401.1,160.4L401.0,159.6L400.5,158.7L399.9,158.0L399.7,157.9L399.1,157.9L398.5,158.0L397.4,158.8L396.9,158.9L395.8,158.8L394.7,158.7L394.1,158.3L392.3,156.7L390.2,155.1L389.3,154.8L389.2,154.7L389.0,153.4L389.0,151.8L389.2,151.4L390.0,151.7L390.9,151.8L391.2,151.5L390.5,151.0L389.4,150.4L389.0,149.6L388.7,149.3L388.3,149.0L387.7,148.8L387.2,148.6L386.8,148.4L386.2,148.3L385.6,148.1L384.7,146.7L383.8,145.4L383.2,144.4L383.0,143.7L383.3,142.7L383.0,142.3L382.0,141.2L381.2,140.2L381.4,138.6L381.6,137.3L381.6,136.5L381.7,136.0L381.8,135.5L382.4,135.3L383.8,135.3L386.5,135.6L388.8,135.3L388.9,135.3L390.4,133.9L392.2,132.4L394.8,132.3L397.6,132.1L399.8,132.0L403.0,131.9L405.6,131.8L408.6,131.7L408.7,131.1L408.9,130.9L409.2,130.9L411.4,131.2L413.5,131.6L413.6,130.3L415.5,128.7L416.5,128.4L416.8,128.1L417.1,127.6L417.3,126.7L417.4,126.1L417.8,125.6L418.0,124.7L418.4,123.2L419.4,121.5L420.0,119.2L420.1,117.1L420.2,115.4L420.6,115.1L420.6,112.1L420.5,109.1L420.5,106.6L420.5,103.5L420.5,100.7L420.5,97.7L420.5,95.0L420.5,93.2L422.6,92.8L424.8,92.3L428.0,91.7L431.4,91.0L435.2,90.2L436.0,89.8L438.9,87.2L440.1,86.0L442.7,83.7L444.7,81.9L447.2,79.6L449.8,77.3L451.9,75.4L455.3,73.3L460.3,70.1L465.3,67.0L470.3,63.8L475.3,60.6L480.3,57.4L485.3,54.2L490.3,51.0L495.3,47.8L500.4,49.0L505.1,50.2L509.9,51.4L511.1,52.0L513.6,54.3L516.9,57.2L517.0,57.2L517.2,57.2L520.3,55.5L524.4,53.3L525.5,59.3L526.3,64.5L526.4,67.8L526.4,68.7L526.7,69.2L527.5,69.8L530.5,74.6L529.9,75.4L530.3,76.9L531.1,77.5L533.6,80.3L534.0,80.9L533.8,81.3L532.0,84.6L531.7,85.4L531.4,89.6L531.1,92.6L530.8,96.6L530.4,101.5L530.1,105.5L529.6,110.9L529.2,116.0L526.7,118.7L522.2,123.6L518.5,127.6L516.7,130.3L513.1,135.5L511.5,138.8L510.3,140.6L509.6,141.3L510.2,143.8Z" fill="#4ECDC4" stroke="#2C3E50" stroke-width="1"/></g><circle cx="400.0" cy="150.0" r="4" fill="#E74C3C" stroke="#fff" stroke-width="2"/><text x="400.0" y="140.0" text-anchor="middle" font-family="sans-serif" font-weight="700" font-size="10" fill="#2D3436">Niamey</text></svg>