<svg viewBox="0 0 800 300" xmlns="http://www.w3.org/2000/svg"><defs><clipPath id="v"><rect width="800" height="300"/></clipPath></defs><rect width="800" height="300" fill="#DCEEF8"/><g clip-path="url(#v)"><path d="M2500,481L2503,479L2507,483L2505,489L2497,491L2490,490L2489,484L2494,479ZM2523,469L2515,472L2507,475L2505,470L2512,467L2515,467L2523,463L2523,463L2523,469ZM-1907,463L-1907,463L-1907,463L-1904,462L-1906,468L-1907,469L-1907,469L-1907,463Z" fill="#E0E0E0" stroke="#fff" stroke-width=".4"/><path d="M725,274L727,275L772,300L773,307L790,320L785,335L785,342L793,347L793,350L790,357L791,361L790,367L794,375L799,387L804,390L794,397L781,402L773,402L769,406L760,406L757,407L742,404L733,405L730,388L725,382L723,379L711,376L704,373L696,370L691,368L686,365L679,350L672,343L670,335L671,329L669,318L674,317L678,313L683,306L686,304L686,300L683,297L683,292L686,290L687,283L682,276L686,275L700,275Z" fill="#E0E0E0" stroke="#fff" stroke-width=".4"/><path d="M201,-92L201,-91L201,-89L201,-68L161,-68L161,-34L149,-33L146,-26L149,-7L101,-7L98,-2L98,-8L99,-8L126,-9L128,-14L133,-20L137,-38L154,-53L160,-70L164,-71L168,-81L178,-83L182,-81L188,-81L192,-84L200,-85L199,-92Z" fill="#E0E0E0" stroke="#fff" stroke-width=".4"/><path d="M669,318L671,329L670,335L672,343L679,350L686,365L681,364L665,366L661,368L658,375L661,381L658,396L657,408L660,411L669,415L672,413L673,427L664,427L659,420L654,414L645,413L642,406L635,410L625,408L621,403L613,401L607,402L606,398L602,397L596,397L589,399L583,398L580,399L581,385L577,380L576,372L578,365L575,360L575,352L560,352L561,348L555,348L554,350L547,350L544,358L542,361L535,359L531,361L523,362L518,355L515,351L512,344L509,335L472,334L468,336L465,336L459,337L458,334L461,332L461,327L463,324L468,321L471,322L475,318L482,318L483,321L487,323L495,316L502,310L505,306L504,296L510,284L515,277L523,271L525,267L525,263L527,259L527,252L528,241L530,233L534,226L535,219L536,210L541,204L547,200L558,204L565,209L574,210L584,213L587,205L589,204L595,205L608,199L613,202L617,201L619,198L623,197L633,199L641,199L645,198L652,208L658,209L661,207L667,208L673,206L676,211L687,219L687,233L691,235L687,239L683,243L678,249L675,255L675,265L672,269L672,279L668,282L668,289L666,290L665,297L668,303Z" fill="#E0E0E0" stroke="#fff" stroke-width=".4"/><path d="M820,283L812,273L812,228L823,214L826,210L834,210L845,201L861,201L896,163L904,153L910,145L910,139L910,126L910,121L910,121L914,121L920,119L926,117L932,113L937,113L937,117L936,124L936,130L933,135L930,149L924,162L916,178L906,196L895,210L881,227L868,237L850,249L839,259L825,273L822,280Z" fill="#E0E0E0" stroke="#fff" stroke-width=".4"/><path d="M790,320L773,307L772,300L727,275L725,274L725,261L728,256L734,248L739,239L734,225L732,218L726,210L734,202L742,194L749,196L749,203L753,207L761,207L777,218L781,218L784,218L786,219L795,220L798,215L809,210L814,214L823,214L812,228L812,273L820,283L811,288L808,293L803,294L802,303L798,308L795,316Z" fill="#E0E0E0" stroke="#fff" stroke-width=".4"/><path d="M610,161L601,155L597,152L596,148L598,142L598,137L591,130L589,124L589,121L585,117L585,110L582,105L578,106L579,101L582,96L581,91L585,87L582,84L586,76L591,67L602,68L601,16L601,11L615,11L615,-15L665,-15L713,-15L761,-15L765,-2L763,-0L765,13L769,29L774,32L780,37L774,44L765,46L761,50L760,59L755,78L756,83L754,94L749,106L742,112L736,122L735,127L729,131L726,144L726,155L726,145L724,145L724,139L723,134L716,130L715,120L716,111L711,110L710,113L703,114L705,117L706,125L700,132L694,141L687,142L677,135L672,137L671,141L665,143L664,146L652,146L650,143L641,143L637,145L634,144L627,137L625,133L616,135L613,141L610,152L606,154L602,156Z" fill="#E0E0E0" stroke="#fff" stroke-width=".4"/><path d="M601,16L602,68L591,67L586,76L582,84L585,87L581,91L582,96L579,101L578,106L582,105L585,110L585,117L589,121L589,124L581,126L575,131L566,145L555,151L543,150L539,151L541,156L534,160L529,165L513,170L510,167L508,166L506,170L496,171L498,167L494,159L492,154L487,151L480,144L482,138L488,140L491,139L498,139L491,127L492,119L491,111L486,103L487,97L480,96L480,88L474,84L480,67L495,55L496,38L501,12L504,6L498,1L498,-3L494,-6L491,-27L503,-34L552,-9Z" fill="#E0E0E0" stroke="#fff" stroke-width=".4"/><path d="M-349,704L-352,696L-347,689L-354,679L-364,671L-376,662L-381,662L-393,651L-401,653L-385,633L-371,620L-363,614L-352,606L-352,595L-358,588L-364,590L-362,582L-360,574L-360,567L-365,564L-369,567L-374,566L-375,561L-376,549L-379,545L-387,541L-392,544L-405,541L-404,523L-408,516L-404,513L-405,506L-402,500L-400,490L-403,482L-409,478L-411,473L-409,466L-432,465L-437,450L-434,450L-434,444L-436,441L-437,433L-444,430L-452,430L-457,426L-465,424L-470,419L-484,417L-497,405L-496,397L-497,392L-496,383L-512,385L-519,390L-529,395L-532,399L-539,399L-548,398L-555,400L-560,399L-559,379L-570,387L-580,387L-585,380L-593,379L-591,374L-597,366L-603,355L-599,353L-599,348L-592,344L-593,337L-590,333L-589,327L-575,319L-565,316L-563,315L-552,315L-547,281L-546,276L-548,269L-554,264L-554,256L-547,254L-544,255L-544,250L-551,249L-551,241L-527,241L-523,237L-520,241L-517,248L-515,247L-508,253L-499,252L-496,249L-487,246L-482,244L-481,239L-472,235L-473,233L-483,231L-485,224L-484,215L-490,212L-487,211L-478,213L-468,216L-465,213L-456,211L-442,206L-438,202L-439,198L-433,198L-430,200L-432,206L-428,208L-425,213L-428,218L-430,228L-427,235L-426,240L-419,246L-412,247L-411,244L-407,244L-402,241L-398,238L-391,239L-388,239L-381,240L-380,237L-382,235L-381,231L-376,232L-370,231L-363,234L-358,236L-354,233L-351,233L-349,237L-344,236L-339,231L-335,222L-328,211L-324,210L-321,217L-314,239L-307,241L-307,249L-316,259L-312,263L-290,265L-290,277L-281,269L-265,274L-245,281L-239,288L-241,295L-226,292L-202,298L-184,298L-166,308L-150,322L-141,325L-130,326L-126,330L-122,345L-120,353L-124,373L-131,381L-148,399L-156,413L-165,424L-168,424L-171,434L-171,457L-174,477L-175,486L-179,491L-181,508L-194,525L-196,539L-206,545L-209,553L-222,553L-242,558L-250,564L-264,568L-278,579L-289,592L-291,602L-289,610L-291,624L-294,631L-302,638L-316,664L-327,675L-335,682L-341,696Z" fill="#E0E0E0" stroke="#fff" stroke-width=".4"/><path d="M-328,211L-335,222L-339,231L-344,236L-349,237L-351,233L-354,233L-358,236L-363,234L-360,229L-359,223L-357,218L-362,210L-362,202L-356,191L-352,193L-343,196L-330,206ZM384,-440L390,-435L407,-432L401,-419L400,-406L396,-403L391,-404L391,-400L382,-390L382,-382L388,-384L392,-377L392,-372L395,-365L391,-360L394,-346L401,-344L399,-337L388,-327L364,-332L346,-326L345,-316L330,-314L316,-322L312,-318L289,-326L284,-332L291,-342L293,-377L280,-396L271,-405L253,-412L251,-425L267,-430L288,-425L284,-446L296,-438L324,-453L328,-469L339,-473L341,-466L346,-465L352,-458L361,-449L367,-450L378,-441L380,-440ZM415,-319L423,-325L425,-311L421,-298L416,-301L413,-313Z" fill="#E0E0E0" stroke="#fff" stroke-width=".4"/><path d="M692,543L685,542L681,543L675,541L670,541L662,535L653,533L649,525L649,520L644,519L630,504L626,497L623,494L619,484L632,485L636,487L641,487L647,478L658,468L663,467L664,462L671,457L680,455L681,460L691,460L697,463L700,466L706,467L712,471L712,487L710,496L709,506L711,510L710,517L708,519L705,528Z" fill="#E0E0E0" stroke="#fff" stroke-width=".4"/><path d="M670,541L653,551L642,561L637,570L634,575L627,576L625,582L624,587L616,590L606,589L600,585L595,584L589,587L586,593L580,598L574,604L565,605L562,600L563,592L556,579L553,577L553,538L565,537L565,491L574,490L593,486L598,491L606,486L610,486L616,483L619,484L623,494L626,497L630,504L644,519L649,520L649,525L653,533L662,535Z" fill="#E0E0E0" stroke="#fff" stroke-width=".4"/><path d="M553,577L553,628L542,635L535,636L527,633L522,632L520,626L515,622L509,629L500,619L495,609L492,595L489,585L485,565L485,549L483,541L478,536L472,525L466,509L463,501L453,488L452,478L458,476L466,474L473,474L481,480L483,479L533,478L541,485L571,487L593,481L604,478L612,479L616,482L616,483L610,486L606,486L598,491L593,486L574,490L565,491L565,537L553,538Z" fill="#E0E0E0" stroke="#fff" stroke-width=".4"/><path d="M102,93L97,83L91,79L96,77L102,68L105,61L109,57L116,58L122,55L128,55L134,59L143,62L150,72L158,80L159,88L161,96L166,99L167,104L166,108L164,109L158,108L157,109L154,109L145,106L139,106L117,106L113,107L109,107L103,109L101,99L112,99L115,97L117,97L122,94L127,97L132,97L137,94L135,91L131,93L127,93L122,90L118,90L116,93Z" fill="#E0E0E0" stroke="#fff" stroke-width=".4"/><path d="M166,108L167,104L166,99L161,96L159,88L158,80L162,78L164,71L168,70L177,74L184,71L188,72L190,69L240,69L242,60L240,59L234,3L228,-55L247,-55L289,-26L330,3L333,9L341,13L347,15L347,23L360,22L360,52L354,60L353,68L342,70L325,71L320,76L312,76L305,76L301,74L295,76L283,81L281,85L271,91L270,94L264,97L259,95L255,98L253,107L244,117L244,121L241,127L241,134L236,136L233,137L231,132L228,133L226,133L224,137L214,137L211,135L209,136L205,132L206,129L204,127L202,128L202,124L205,121L200,116L198,112L196,110L193,109L190,111L186,113L183,115L177,114L174,111L172,111L169,112L167,112Z" fill="#E0E0E0" stroke="#fff" stroke-width=".4"/><path d="M98,-2L101,-7L149,-7L146,-26L149,-33L161,-34L161,-68L201,-68L201,-89L247,-55L228,-55L234,3L240,59L242,60L240,69L190,69L188,72L184,71L177,74L168,70L164,71L162,78L158,80L150,72L143,62L134,59L128,55L122,55L116,58L109,57L105,61L104,54L108,48L109,36L108,23L106,16L108,10L104,3Z" fill="#E0E0E0" stroke="#fff" stroke-width=".4"/><path d="M341,185L331,186L328,178L328,149L326,147L325,141L321,136L317,133L319,126L323,125L326,119L332,118L334,114L338,111L343,110L352,118L352,122L355,129L352,134L353,138L347,145L344,149L341,157L342,165Z" fill="#E0E0E0" stroke="#fff" stroke-width=".4"/><path d="M491,-27L494,-6L498,-3L498,1L504,6L501,12L496,38L495,55L480,67L474,84L480,88L480,96L487,97L486,103L483,103L482,107L480,108L472,94L469,93L459,100L450,97L443,96L440,98L432,97L425,103L419,103L404,97L398,100L392,99L387,95L375,90L362,91L358,94L357,101L353,106L352,118L343,110L338,111L334,114L335,106L320,103L320,97L313,88L311,83L312,76L320,76L325,71L342,70L353,68L354,60L360,52L360,22L378,16L413,-10L456,-35L475,-29L482,-22Z" fill="#E0E0E0" stroke="#fff" stroke-width=".4"/><path d="M486,103L491,111L492,119L491,127L498,139L491,139L488,140L482,138L480,144L487,151L492,154L494,159L498,167L496,171L490,183L487,185L486,195L487,200L486,204L492,210L493,215L497,221L503,225L504,231L505,234L504,241L494,238L484,235L469,234L467,234L460,235L452,234L447,234L427,234L428,224L424,216L418,214L415,209L412,207L412,203L416,195L421,183L425,183L432,175L437,175L444,180L452,176L454,171L456,166L458,160L465,155L467,146L470,143L472,137L475,129L485,119L486,115L487,112L482,107L483,103Z" fill="#E0E0E0" stroke="#fff" stroke-width=".4"/><path d="M319,126L317,133L321,136L325,141L326,147L328,149L328,178L331,186L321,189L318,185L315,177L314,171L317,160L314,155L312,145L312,136L307,130L308,126Z" fill="#E0E0E0" stroke="#fff" stroke-width=".4"/><path d="M308,126L307,130L312,136L312,145L314,155L317,160L314,171L315,177L318,185L321,189L302,196L295,201L284,204L273,201L273,196L268,185L271,171L276,161L273,143L271,134L272,126L293,126L298,127L302,125Z" fill="#E0E0E0" stroke="#fff" stroke-width=".4"/><path d="M209,136L211,135L214,137L224,137L226,133L228,133L231,132L233,137L236,136L241,134L247,137L249,141L255,143L259,140L265,140L273,143L276,161L271,171L268,185L273,196L273,201L267,201L259,198L251,199L236,201L228,204L215,209L213,208L214,198L215,197L215,192L209,187L206,186L202,182L205,177L203,171L204,167L206,167L207,162L206,160L207,158L211,156L208,146L206,141L207,137Z" fill="#E0E0E0" stroke="#fff" stroke-width=".4"/><path d="M139,106L145,106L154,109L157,109L158,108L164,109L166,108L167,112L169,112L172,111L174,111L177,114L183,115L186,113L190,111L193,109L196,110L198,112L200,116L205,121L202,124L202,128L204,127L206,129L205,132L209,136L207,137L206,141L208,146L211,156L207,158L206,160L207,162L206,167L204,167L201,167L198,172L195,172L192,169L193,164L188,157L185,158L182,158L179,159L179,155L177,151L177,148L174,142L171,138L161,138L158,140L155,141L153,143L151,147L145,152L139,145L135,140L132,138L128,136L127,130L125,128L122,125L127,119L131,120L134,118L137,117L139,116L138,112L139,110Z" fill="#E0E0E0" stroke="#fff" stroke-width=".4"/><path d="M103,109L109,107L113,107L117,106L139,106L139,110L138,112L139,116L137,117L134,118L131,120L127,119L122,125L115,120L110,119L107,116L107,114L103,111Z" fill="#E0E0E0" stroke="#fff" stroke-width=".4"/><path d="M204,167L203,171L205,177L202,182L206,186L209,187L215,192L215,197L214,198L213,208L210,209L197,203L186,193L175,186L167,179L170,175L171,171L176,164L182,158L185,158L188,157L193,164L192,169L195,172L198,172L201,167Z" fill="#E0E0E0" stroke="#fff" stroke-width=".4"/><path d="M145,152L151,147L153,143L155,141L158,140L161,138L171,138L174,142L177,148L177,151L179,155L179,159L182,158L176,164L171,171L170,175L167,179L164,178L155,173L149,166L146,161Z" fill="#E0E0E0" stroke="#fff" stroke-width=".4"/><path d="M241,134L241,127L244,121L244,117L253,107L255,98L259,95L264,97L270,94L271,91L281,85L283,81L295,76L301,74L305,76L312,76L311,83L313,88L320,97L320,103L335,106L334,114L332,118L326,119L323,125L319,126L308,126L302,125L298,127L293,126L272,126L271,134L273,143L265,140L259,140L255,143L249,141L247,137Z" fill="#E0E0E0" stroke="#fff" stroke-width=".4"/><path d="M645,198L641,199L633,199L623,197L619,198L617,201L613,202L608,199L595,205L589,204L587,205L584,213L574,210L565,209L558,204L547,200L541,204L536,210L535,219L527,218L519,216L511,223L505,234L504,231L503,225L497,221L493,215L492,210L486,204L487,200L486,195L487,185L490,183L496,171L506,170L508,166L510,167L513,170L529,165L534,160L541,156L539,151L543,150L555,151L566,145L575,131L581,126L589,124L591,130L598,137L598,142L596,148L597,152L601,155L610,161L617,166L617,170L625,176L630,181L633,189L643,194Z" fill="#E0E0E0" stroke="#fff" stroke-width=".4"/><path d="M535,219L534,226L530,233L528,241L527,252L527,259L525,263L525,267L523,271L515,277L510,284L504,296L505,306L502,310L495,316L487,323L483,321L482,318L475,318L471,322L468,321L463,317L459,319L454,324L444,311L454,304L449,296L453,293L462,292L463,286L469,292L480,293L484,287L485,279L484,269L478,262L483,247L480,245L471,246L468,240L469,234L484,235L494,238L504,241L505,234L511,223L519,216L527,218Z" fill="#E0E0E0" stroke="#fff" stroke-width=".4"/><path d="M447,234L452,234L460,235L467,234L469,234L468,240L471,246L480,245L483,247L478,262L484,269L485,279L484,287L480,293L469,292L463,286L462,292L453,293L449,296L454,304L444,311L432,299L424,289L416,276L416,272L419,268L422,259L425,250L429,249L447,249Z" fill="#E0E0E0" stroke="#fff" stroke-width=".4"/><path d="M427,234L447,234L447,249L429,249L425,250L422,248Z" fill="#E0E0E0" stroke="#fff" stroke-width=".4"/><path d="M686,365L691,368L696,370L704,373L711,376L717,382L720,392L718,396L715,406L718,416L714,421L710,433L717,436L679,446L680,455L671,457L664,462L663,467L658,468L647,478L641,487L636,487L632,485L619,484L616,483L616,482L612,479L604,478L593,481L585,473L577,463L578,422L603,422L602,418L604,413L602,407L603,401L602,397L606,398L607,402L613,401L621,403L625,408L635,410L642,406L645,413L654,414L659,420L664,427L673,427L672,413L669,415L660,411L657,408L658,396L661,381L658,375L661,368L665,366L681,364Z" fill="#E0E0E0" stroke="#fff" stroke-width=".4"/><path d="M711,376L723,379L725,382L730,388L733,405L730,414L733,431L737,431L742,435L747,444L748,460L743,463L739,472L731,464L730,455L733,449L732,444L727,441L724,442L717,436L710,433L714,421L718,416L715,406L718,396L720,392L717,382Z" fill="#E0E0E0" stroke="#fff" stroke-width=".4"/><path d="M733,405L742,404L757,407L760,406L769,406L773,402L781,402L794,397L804,390L806,395L805,408L807,419L807,439L810,445L806,454L801,463L793,471L782,476L768,482L754,496L750,498L741,508L736,511L735,520L741,530L743,538L743,542L745,541L745,554L743,560L746,563L744,568L739,573L729,578L714,585L709,590L710,596L713,597L712,604L702,604L701,598L700,592L699,587L701,572L698,562L692,543L705,528L708,519L710,517L711,510L709,506L710,496L712,487L712,471L706,467L700,466L697,463L691,460L681,460L680,455L679,446L717,436L724,442L727,441L732,444L733,449L730,455L731,464L739,472L743,463L748,460L747,444L742,435L737,431L733,431L730,414Z" fill="#E0E0E0" stroke="#fff" stroke-width=".4"/><path d="M468,321L463,324L461,327L461,332L458,334L454,324L459,319L463,317ZM459,337L465,336L468,336L472,334L509,335L512,344L515,351L518,355L523,362L531,361L535,359L542,361L544,358L547,350L554,350L555,348L561,348L560,352L575,352L575,360L578,365L576,372L577,380L581,385L580,399L583,398L589,399L596,397L602,397L603,401L602,407L604,413L602,418L603,422L578,422L577,463L585,473L593,481L571,487L541,485L533,478L483,479L481,480L473,474L466,474L458,476L452,478L451,470L453,459L457,447L458,442L462,430L465,425L472,417L476,411L477,402L476,395L473,391L469,383L466,375L467,373L471,368L467,356L464,348L458,340Z" fill="#E0E0E0" stroke="#fff" stroke-width=".4"/><path d="M683,292L683,297L686,300L686,304L683,306L678,313L674,317L669,318L668,303L665,297L672,298L676,291Z" fill="#E0E0E0" stroke="#fff" stroke-width=".4"/><path d="M747,-164L745,-160L741,-162L738,-152L741,-150L738,-148L738,-144L743,-146L744,-141L738,-118L736,-122L729,-143L733,-147L732,-148L735,-155L738,-166L740,-170L740,-170L744,-170L745,-172L749,-172L749,-166L747,-164Z" fill="#E0E0E0" stroke="#fff" stroke-width=".4"/><path d="M749,-172L745,-172L744,-170L740,-170L744,-182L751,-192L751,-193L756,-192L758,-186L752,-181Z" fill="#E0E0E0" stroke="#fff" stroke-width=".4"/><path d="M917,417L921,422L924,431L926,446L929,452L928,458L926,462L921,454L919,458L921,467L920,473L917,476L916,487L911,502L905,520L898,545L893,564L887,579L877,582L867,588L859,585L850,580L846,573L846,561L841,550L840,541L842,531L848,529L848,524L854,514L855,506L852,500L850,492L849,480L853,473L855,464L861,464L868,461L872,459L878,459L885,452L895,444L899,437L897,432L902,433L909,425L909,417L913,411Z" fill="#E0E0E0" stroke="#fff" stroke-width=".4"/><path d="M743,-146L738,-144L738,-148L741,-150L738,-152L741,-162L745,-160L745,-151Z" fill="#E0E0E0" stroke="#fff" stroke-width=".4"/><path d="M102,93L116,93L118,90L122,90L127,93L131,93L135,91L137,94L132,97L127,97L122,94L117,97L115,97L112,99L101,99Z" fill="#E0E0E0" stroke="#fff" stroke-width=".4"/><path d="M424,-129L419,-155L412,-161L412,-165L402,-173L400,-185L408,-193L411,-205L409,-220L411,-228L425,-234L433,-232L433,-224L444,-230L444,-227L438,-219L438,-212L442,-209L441,-196L433,-188L435,-180L441,-180L445,-173L449,-170L449,-159L443,-155L439,-150L430,-145L432,-139L431,-133Z" fill="#E0E0E0" stroke="#fff" stroke-width=".4"/><path d="M201,-89L201,-91L201,-92L201,-109L221,-119L233,-121L243,-125L248,-132L262,-138L263,-149L270,-150L276,-155L292,-158L294,-163L291,-166L287,-182L286,-191L281,-201L293,-209L306,-211L314,-218L326,-222L347,-225L367,-226L373,-224L385,-230L398,-230L403,-227L411,-228L409,-220L411,-205L408,-193L400,-185L402,-173L412,-165L412,-161L419,-155L424,-129L428,-117L429,-110L427,-99L428,-93L426,-85L427,-76L423,-71L430,-61L430,-55L435,-47L440,-50L450,-43L456,-35L413,-10L378,16L360,22L347,23L347,15L341,13L333,9L330,3L289,-26L247,-55Z" fill="#E0E0E0" stroke="#fff" stroke-width=".4"/><path d="M745,-160L747,-164L761,-158L785,-174L790,-156L788,-154L763,-147L775,-132L771,-130L769,-125L760,-123L757,-118L752,-114L738,-116L738,-118L744,-141L743,-146L745,-151Z" fill="#E0E0E0" stroke="#fff" stroke-width=".4"/><path d="M943,-45L945,-46L945,-42L955,-45L965,-44L972,-44L981,-53L990,-62L998,-70L1000,-65L1002,-55L995,-55L994,-46L997,-44L991,-41L991,-36L987,-30L987,-25L985,-22L948,-29L943,-42Z" fill="#E0E0E0" stroke="#fff" stroke-width=".4"/><path d="M933,-52L932,-62L936,-69L939,-71L943,-67L943,-59L940,-51L937,-50Z" fill="#E0E0E0" stroke="#fff" stroke-width=".4"/><path d="M898,-125L901,-118L900,-115L904,-105L895,-104L892,-111L881,-112L890,-126Z" fill="#E0E0E0" stroke="#fff" stroke-width=".4"/><path d="M790,-156L785,-174L812,-189L817,-208L816,-219L823,-222L829,-232L834,-234L849,-232L853,-229L859,-231L867,-213L875,-208L876,-199L870,-194L867,-183L875,-169L890,-161L897,-150L895,-139L899,-139L899,-132L905,-124L898,-125L890,-126L881,-112L858,-113L823,-142L805,-152Z" fill="#E0E0E0" stroke="#fff" stroke-width=".4"/><path d="M987,-25L987,-30L991,-36L991,-41L997,-44L994,-46L995,-55L1002,-55L1007,-45L1014,-41L1023,-39L1030,-36L1036,-29L1039,-24L1044,-23L1044,-20L1039,-12L1037,-8L1032,-4L1028,5L1022,5L1019,8L1017,14L1019,23L1018,25L1012,25L1004,30L1003,36L1000,39L993,38L988,42L988,47L982,51L975,49L967,54L961,54L957,45L948,24L985,11L993,-15ZM1000,-65L998,-70L1001,-75L1003,-74L1002,-68Z" fill="#E0E0E0" stroke="#fff" stroke-width=".4"/><path d="M905,-124L899,-132L899,-139L895,-139L897,-150L890,-161L875,-169L867,-183L870,-194L876,-199L875,-208L867,-213L859,-231L852,-244L854,-248L851,-267L859,-271L861,-265L867,-258L876,-256L880,-256L895,-268L899,-269L903,-264L899,-256L906,-248L909,-249L913,-237L925,-234L933,-227L951,-224L970,-228L971,-232L982,-235L991,-243L999,-243L1005,-246L1013,-244L1027,-237L1037,-235L1051,-221L1060,-221L1061,-208L1056,-189L1053,-178L1058,-176L1053,-168L1057,-156L1058,-147L1067,-145L1068,-136L1057,-123L1063,-115L1068,-107L1080,-101L1080,-88L1086,-86L1087,-80L1069,-73L1065,-57L1041,-61L1028,-64L1014,-66L1009,-83L1003,-85L993,-83L981,-76L966,-80L954,-91L942,-95L934,-108L924,-127L918,-125L910,-130Z" fill="#E0E0E0" stroke="#fff" stroke-width=".4"/><path d="M747,-164L747,-164L749,-166L749,-172L752,-181L758,-186L756,-192L751,-193L750,-204L753,-210L756,-214L759,-217L760,-226L764,-223L777,-227L784,-224L794,-224L808,-230L815,-230L829,-232L823,-222L816,-219L817,-208L812,-189L785,-174L761,-158Z" fill="#E0E0E0" stroke="#fff" stroke-width=".4"/><path d="M631,-203L630,-198L612,-197L612,-199L597,-202L599,-209L606,-204L616,-204L625,-203L625,-201ZM590,-297L599,-297L609,-301L618,-296L629,-297L629,-305L635,-301L631,-291L628,-289L621,-289L615,-291L600,-287L608,-278L602,-275L595,-275L589,-283L586,-280L589,-270L595,-263L591,-259L597,-252L603,-247L604,-239L592,-243L596,-235L588,-233L593,-220L585,-219L574,-226L570,-238L568,-249L563,-256L557,-265L556,-270L562,-277L562,-283L566,-285L566,-289L575,-291L579,-294L586,-294L588,-297Z" fill="#E0E0E0" stroke="#fff" stroke-width=".4"/><path d="M756,83L755,78L760,59L761,50L765,46L774,44L780,37L788,52L791,64L798,70L815,82L821,89L828,96L832,101L838,105L834,108L829,107L825,103L820,95L814,91L811,87L800,82L792,81L789,79L782,82L774,76L770,85Z" fill="#E0E0E0" stroke="#fff" stroke-width=".4"/><path d="M948,24L957,45L961,54L952,58L950,64L950,68L937,73L918,79L907,88L901,89L898,88L890,93L883,96L872,96L869,97L867,101L863,101L861,105L855,104L851,106L843,105L840,98L840,91L838,87L836,78L832,73L835,72L833,66L835,64L834,58L840,54L838,49L842,42L847,46L850,45L864,44L866,46L878,47L883,46L886,51L892,48L901,35L912,29Z" fill="#E0E0E0" stroke="#fff" stroke-width=".4"/><path d="M738,-116L752,-114L757,-118L760,-123L769,-125L771,-130L775,-132L763,-147L788,-154L790,-156L805,-152L823,-142L858,-113L881,-112L892,-111L895,-104L904,-105L908,-93L914,-89L917,-85L925,-79L926,-73L924,-69L926,-64L930,-60L931,-56L933,-52L937,-50L940,-51L943,-45L943,-42L948,-29L985,-22L987,-25L993,-15L985,11L948,24L912,29L901,35L892,48L886,51L883,46L878,47L866,46L864,44L850,45L847,46L842,42L838,49L840,54L834,58L833,53L829,49L828,44L822,39L815,28L812,18L803,9L798,7L789,-6L788,-15L789,-23L781,-38L776,-43L769,-46L765,-54L766,-57L762,-64L759,-67L754,-77L746,-88L740,-98L734,-98L736,-105L736,-110Z" fill="#E0E0E0" stroke="#fff" stroke-width=".4"/><path d="M711,-200L711,-200L713,-204L722,-204L733,-208L725,-202L726,-199L725,-199L722,-198L720,-199L720,-198L720,-200L719,-201L716,-201L713,-199Z" fill="#E0E0E0" stroke="#fff" stroke-width=".4"/><path d="M711,-200L713,-199L716,-201L719,-201L720,-200L720,-198L720,-199L722,-198L725,-199L726,-199L726,-198L714,-192L708,-194L705,-200Z" fill="#E0E0E0" stroke="#fff" stroke-width=".4"/><path d="M281,-201L286,-191L287,-182L291,-166L294,-163L292,-158L276,-155L270,-150L263,-149L262,-138L248,-132L243,-125L233,-121L221,-119L201,-109L201,-92L199,-92L200,-85L192,-84L188,-81L182,-81L178,-83L168,-81L164,-71L160,-70L154,-53L137,-38L133,-20L128,-14L126,-9L99,-8L98,-8L99,-14L104,-18L108,-24L107,-29L111,-38L118,-47L122,-49L125,-57L126,-64L130,-73L138,-78L146,-92L146,-92L153,-97L164,-99L174,-109L180,-112L190,-124L187,-142L192,-154L193,-162L201,-172L214,-179L223,-185L231,-200L235,-210L244,-209L251,-203L263,-204L276,-201Z" fill="#E0E0E0" stroke="#fff" stroke-width=".4"/><path d="M761,-15L713,-15L665,-15L615,-15L615,-65L615,-114L612,-126L615,-134L613,-141L617,-148L634,-148L646,-144L658,-140L664,-137L673,-142L678,-146L689,-147L698,-146L701,-138L704,-143L714,-140L723,-139L729,-143L736,-122L738,-118L734,-112L731,-102L728,-94L725,-92L721,-97L716,-103L707,-123L706,-122L711,-107L718,-93L727,-71L732,-64L736,-56L747,-41L745,-39L745,-30L759,-18Z" fill="#E0E0E0" stroke="#fff" stroke-width=".4"/><path d="M615,-15L615,11L601,11L601,16L552,-9L503,-34L491,-27L482,-22L475,-29L456,-35L450,-43L440,-50L435,-47L430,-55L430,-61L423,-71L427,-76L426,-85L428,-93L427,-99L429,-110L428,-117L424,-129L431,-133L432,-139L430,-145L439,-150L443,-155L449,-159L449,-170L464,-165L469,-167L479,-164L495,-158L501,-145L512,-142L530,-136L543,-129L549,-133L555,-139L552,-150L556,-157L564,-164L573,-166L590,-163L594,-157L598,-157L602,-154L614,-152L617,-148L613,-141L615,-134L612,-126L615,-114L615,-65Z" fill="#E0E0E0" stroke="#fff" stroke-width=".4"/><path d="M896,163L861,201L845,201L834,210L826,210L823,214L814,214L809,210L798,215L795,220L786,219L784,218L781,218L777,218L761,207L753,207L749,203L749,196L742,194L735,181L729,178L727,173L721,167L713,166L718,159L724,159L726,155L726,144L729,131L735,127L736,122L742,112L749,106L754,94L756,83L770,85L774,76L782,82L789,79L792,81L800,82L811,87L814,91L820,95L825,103L829,107L825,112L820,118L821,122L822,125L828,126L831,125L834,127L831,131L836,138L841,144L845,149L886,163Z" fill="#E0E0E0" stroke="#fff" stroke-width=".4"/><path d="M829,107L834,108L838,105L841,109L840,114L833,117L839,120L834,127L831,125L828,126L822,125L821,122L820,118L825,112Z" fill="#E0E0E0" stroke="#fff" stroke-width=".4"/><path d="M910,121L910,121L910,126L910,139L910,145L904,153L896,163L886,163L845,149L841,144L836,138L831,131L834,127L839,120L843,123L845,128L851,133L857,133L868,130L882,128L893,124L899,124L903,121Z" fill="#E0E0E0" stroke="#fff" stroke-width=".4"/><path d="M725,274L700,275L686,275L682,276L675,280L672,279L672,269L675,265L675,255L678,249L683,243L687,239L691,235L687,233L687,219L692,216L700,218L710,216L719,216L726,210L732,218L734,225L739,239L734,248L728,256L725,261Z" fill="#E0E0E0" stroke="#fff" stroke-width=".4"/><path d="M682,276L687,283L686,290L683,292L676,291L672,298L665,297L666,290L668,289L668,282L672,279L675,280Z" fill="#E0E0E0" stroke="#fff" stroke-width=".4"/><path d="M687,219L676,211L673,206L667,208L661,207L658,209L652,208L645,198L643,194L633,189L630,181L625,176L617,170L617,166L610,161L602,156L606,154L610,152L613,141L616,135L625,133L627,137L634,144L637,145L641,143L650,143L652,146L664,146L665,143L671,141L672,137L677,135L687,142L694,141L700,132L706,125L705,117L703,114L710,113L711,110L716,111L715,120L716,130L723,134L724,139L724,145L726,145L726,155L724,159L718,159L713,166L721,167L727,173L729,178L735,181L742,194L734,202L726,210L719,216L710,216L700,218L692,216Z" fill="#E0E0E0" stroke="#fff" stroke-width=".4"/></g><g clip-path="url(#v)"><path d="M397.7,207.8L396.5,208.2L395.7,208.1L396.8,206.4L397.3,206.8L398.0,206.9ZM475.3,91.9L477.2,94.7L479.3,97.6L480.9,99.9L482.1,105.7L482.2,106.8L482.3,107.4L482.4,107.8L482.5,108.6L483.5,109.0L485.2,109.1L486.5,109.7L487.3,110.7L487.3,110.8L487.7,111.6L487.8,112.1L487.7,113.6L487.4,115.6L487.0,116.9L487.3,118.6L487.2,119.3L487.0,119.8L486.2,120.4L485.1,121.0L482.6,122.6L481.9,122.9L480.8,122.9L479.9,123.4L478.8,124.2L476.4,127.6L474.4,130.9L473.7,133.7L472.9,136.4L471.1,138.1L470.9,139.0L470.8,139.6L470.7,140.8L470.5,142.9L470.3,144.0L469.9,144.3L468.0,144.9L466.9,145.7L466.3,147.2L466.0,148.9L465.6,150.8L465.4,152.4L465.1,153.3L464.5,154.2L463.5,155.1L462.7,155.7L460.5,156.0L459.3,158.2L458.4,159.9L458.3,160.6L457.4,164.1L455.8,166.8L455.7,167.8L455.7,168.5L453.7,170.9L453.2,171.6L452.6,172.5L453.2,173.3L453.7,174.1L453.8,174.4L452.9,175.2L451.3,176.4L450.3,177.2L450.1,177.7L450.0,179.6L449.7,180.1L449.1,180.8L448.1,181.6L447.2,182.2L446.1,182.7L445.1,182.8L444.5,182.6L444.2,182.0L443.6,179.6L443.3,179.1L442.6,178.6L441.3,177.3L440.0,176.0L438.4,175.1L438.0,175.1L437.7,175.4L437.3,176.7L436.8,177.2L436.0,177.4L434.5,177.4L433.4,177.2L433.2,176.9L433.0,176.4L432.6,175.9L431.4,176.8L429.3,178.3L428.7,178.5L428.2,178.8L427.5,180.2L426.7,181.7L425.6,182.4L424.6,183.1L424.0,183.6L423.2,184.3L421.5,185.9L419.3,188.1L418.6,189.3L417.8,190.9L417.3,192.8L416.8,194.9L416.1,198.1L415.1,200.0L414.2,201.5L413.5,202.6L413.1,203.6L413.0,203.6L412.6,204L411.6,203.7L411.1,202.9L410.5,202.8L409.4,201.5L409.2,201.7L410.3,204.8L409.9,206.1L406.6,206.1L403.8,206.5L401.9,206.5L400.9,206.0L400.5,204.9L400.4,205.0L400.2,205.6L399.6,206.1L397.5,206.2L396.5,205.4L395.7,204.5L394.9,204.1L395.0,204.5L396.0,205.3L395.9,206.6L394.2,208.0L393.0,208.1L392.3,207.5L392.0,206.5L391.8,205.0L391.4,204L391.1,204L391.3,204.9L391.4,205.6L391.4,207.2L392.2,208.3L391.0,208.7L390.5,208.7L389.5,208.7L389.3,208.3L389.1,207.3L388.8,207.1L388.5,208.7L387.8,208.8L387.4,208.8L385.3,209.2L384.9,209.1L384.8,208.8L385.1,208.3L385.0,207.6L384.3,208.2L384.2,209.3L383.8,209.5L382.6,209.4L381.3,208.8L380.5,208.2L379.2,207.3L376.6,204.9L376.2,203.9L375.4,202.6L374.9,201.3L374.1,199.0L374.3,198.8L374.9,199.0L375.2,198.7L374.1,198.4L373.9,198.2L373.9,197.4L373.9,196.4L374.7,196.1L375.5,195.9L375.9,195.3L376.1,194.7L374.1,195.6L372.2,194.6L371.8,194.0L372.0,193.5L372.9,193.5L374.2,193.5L375.0,193.0L374.5,192.9L373.7,192.9L373.4,192.6L373.4,191.9L373.1,192.0L372.8,192.7L371.5,193.1L370.8,192.7L370.7,191.6L370.5,191.1L369.9,190.7L367.7,187.9L364.9,185.5L362.3,183.9L358.6,183.1L350.7,183.2L350.3,182.9L350.8,182.6L351.5,182.3L354.0,181.0L353.6,180.8L351.0,181.7L350.0,181.7L348.9,183.3L342.0,183.6L341.1,183.7L341.2,182.9L341.5,180.9L341.7,180.0L342.0,179.4L341.7,178.7L341.4,177.7L341.3,176.1L341.7,175.6L341.7,175.0L341.7,174.1L341.7,171.0L341.9,170.6L342.1,170.4L342.1,169.9L341.7,169.1L341.3,168.2L341.3,166.9L341.2,165.6L340.9,165.0L341.1,162.8L341.2,160.0L341.1,158.8L341.3,158.0L341.5,155.8L341.5,153.7L342.0,150.4L343.5,150.2L345.3,150.0L346.1,148.7L346.6,147.0L346.4,145.4L346.8,144.8L347.5,143.9L348.8,142.7L348.7,141.3L349.1,140.9L349.7,140.5L350.6,140.4L351.6,139.7L352.2,138.5L352.7,136.5L351.8,135.2L351.8,134.9L352.2,134.1L352.7,133.4L353.1,133.2L354.1,133.4L354.2,133.3L354.4,133.1L355.0,130.9L354.9,130.3L354.1,128.9L353.9,127.9L353.8,126.4L353.6,125.0L353.3,124.5L352.8,124.1L352.6,123.8L350.7,121.0L350.8,119.7L351.6,118.1L352.1,117.3L352.8,116.8L352.9,116.4L352.7,116.0L352.4,115.6L352.3,114.9L352.4,114.4L352.6,113.8L352.6,112.7L352.6,110.9L352.7,108.3L352.7,106.8L354.2,105.6L356.4,103.7L357.5,101.7L358.1,100.1L358.9,95.1L359.4,94.7L360.0,94.5L362.3,92.7L363.9,92.0L365.2,91.6L367.2,91.2L368.4,91.4L370.6,91.5L372.4,91.3L373.8,90.3L374.5,90.0L375.4,89.8L379.7,91.2L383.9,92.5L384.7,92.3L385.3,92.5L386.4,93.2L388.0,94.7L388.9,95.7L389.4,96.2L391.6,99.5L392.4,100.3L393.2,100.7L394.0,100.9L394.7,100.8L395.3,100.5L396.1,99.8L397.3,99.4L398.4,99.5L403.7,96.6L404.2,96.5L405.7,96.8L407.4,97.2L411.9,100.1L415.5,102.0L418.1,102.6L421.0,103.1L426.2,103.2L430.0,99.1L431.4,98.2L433.2,97.4L433.7,97.3L436.7,96.7L442.7,96.2L448.2,96.4L449.3,96.5L451.7,97.1L455.4,98.4L457.0,99.7L459.4,99.9L461.2,99.7L461.8,98.4L463.6,96.7L464.8,96.0L466.2,95.2L468.4,94.1L470.2,93.6L471.8,92.4L473.0,92.0Z" fill="#4ECDC4" stroke="#2C3E50" stroke-width="1"/></g><circle cx="400.0" cy="150.0" r="4" fill="#E74C3C" stroke="#fff" stroke-width="2"/><text x="400.0" y="140.0" text-anchor="middle" font-family="sans-serif" font-weight="700" font-size="10" fill="#2D3436">Abuja</text></svg>