<svg viewBox="0 0 800 300" xmlns="http://www.w3.org/2000/svg"><defs><clipPath id="v"><rect width="800" height="300"/></clipPath></defs><rect width="800" height="300" fill="#DCEEF8"/><g clip-path="url(#v)"><path d="M-598,-1054L-520,-1054L-439,-1054L-413,-1054L-330,-1054L-249,-1054L-167,-1054L-86,-1054L7,-1054L100,-1054L157,-1054L157,-1070L166,-1070L171,-1047L179,-1040L198,-1038L226,-1031L253,-1019L275,-1024L308,-1013L317,-1014L342,-1025L367,-1011L394,-995L416,-981L437,-969L440,-958L446,-954L445,-950L452,-949L457,-953L459,-944L464,-938L472,-938L476,-933L472,-926L501,-908L506,-873L512,-840L504,-818L491,-797L485,-784L484,-780L488,-775L497,-769L504,-769L535,-789L563,-795L599,-813L600,-817L597,-828L593,-836L605,-842L632,-842L657,-842L666,-857L669,-860L698,-887L710,-894L751,-894L802,-894L804,-904L813,-906L825,-912L834,-930L843,-960L864,-991L873,-980L891,-987L903,-975L903,-921L921,-899L925,-887L896,-868L868,-855L840,-844L825,-822L821,-813L820,-794L829,-774L841,-773L838,-787L846,-778L844,-768L825,-762L812,-763L792,-756L780,-755L764,-753L742,-742L782,-749L790,-742L752,-732L734,-732L735,-736L727,-726L735,-724L729,-699L709,-672L707,-681L701,-682L692,-691L698,-672L704,-666L705,-653L696,-639L681,-612L678,-613L687,-637L673,-650L670,-679L664,-664L670,-642L652,-647L671,-636L672,-603L680,-601L683,-589L687,-556L669,-531L641,-521L623,-502L610,-499L596,-487L592,-476L562,-455L547,-440L534,-421L529,-398L534,-376L543,-350L556,-328L556,-314L569,-279L568,-258L567,-246L560,-228L552,-224L538,-228L534,-241L524,-248L509,-274L496,-297L492,-310L498,-330L490,-347L469,-373L458,-378L431,-364L426,-366L413,-380L396,-388L365,-384L341,-388L320,-385L309,-380L314,-372L313,-359L319,-353L314,-349L304,-354L293,-348L273,-349L253,-365L229,-361L210,-369L193,-366L170,-359L145,-336L118,-323L103,-308L97,-294L96,-273L98,-258L103,-248L92,-247L73,-254L52,-263L44,-277L38,-299L22,-316L12,-335L-1,-356L-20,-368L-43,-368L-60,-343L-82,-352L-97,-362L-103,-379L-112,-396L-129,-410L-143,-420L-153,-431L-200,-431L-200,-418L-221,-418L-276,-418L-338,-440L-379,-456L-376,-462L-411,-459L-442,-456L-447,-473L-464,-492L-477,-496L-480,-505L-495,-507L-505,-515L-530,-519L-537,-524L-541,-542L-567,-576L-590,-623L-589,-631L-601,-643L-622,-672L-626,-701L-640,-720L-634,-750L-635,-781L-644,-810L-633,-845L-630,-879L-627,-914L-632,-967L-640,-1002L-648,-1020L-645,-1028L-605,-1015L-591,-976L-584,-987L-589,-1020ZM-1485,-76L-1481,-74L-1476,-70L-1469,-60L-1470,-58L-1481,-52L-1489,-48L-1493,-43L-1500,-47L-1499,-55L-1504,-65L-1502,-69L-1498,-73L-1500,-79L-1498,-82L-1496,-81ZM-1502,-96L-1504,-93L-1513,-91L-1518,-97L-1521,-99L-1521,-101L-1519,-103L-1509,-101ZM-1522,-108L-1523,-105L-1538,-106L-1536,-110ZM-1557,-124L-1555,-122L-1547,-113L-1548,-111L-1550,-111L-1560,-112L-1563,-119L-1564,-120ZM-1594,-139L-1593,-132L-1596,-129L-1605,-134L-1604,-136L-1600,-139ZM-1787,-1596L-1766,-1591L-1763,-1570L-1780,-1561L-1798,-1571L-1814,-1586ZM-1426,-1467L-1408,-1463L-1397,-1448L-1420,-1424L-1447,-1405L-1461,-1417L-1466,-1441L-1441,-1459ZM-1092,-2205L-1093,-1936L-1093,-1591L-1066,-1590L-1039,-1574L-1020,-1551L-996,-1516L-970,-1545L-942,-1563L-928,-1535L-909,-1513L-884,-1490L-867,-1453L-840,-1396L-793,-1364L-792,-1334L-808,-1311L-823,-1329L-847,-1344L-854,-1387L-889,-1427L-904,-1475L-930,-1478L-974,-1480L-1006,-1494L-1062,-1549L-1088,-1560L-1136,-1579L-1174,-1574L-1227,-1600L-1260,-1623L-1290,-1612L-1284,-1573L-1299,-1570L-1331,-1558L-1355,-1540L-1385,-1529L-1389,-1561L-1377,-1614L-1348,-1632L-1355,-1646L-1390,-1615L-1409,-1578L-1448,-1539L-1428,-1514L-1454,-1476L-1483,-1455L-1510,-1439L-1517,-1417L-1560,-1391L-1568,-1368L-1600,-1347L-1619,-1351L-1644,-1338L-1672,-1321L-1695,-1306L-1741,-1292L-1746,-1300L-1716,-1322L-1689,-1337L-1660,-1363L-1626,-1369L-1613,-1389L-1575,-1419L-1569,-1429L-1549,-1447L-1544,-1486L-1530,-1516L-1562,-1501L-1570,-1510L-1585,-1491L-1603,-1517L-1610,-1498L-1621,-1524L-1648,-1503L-1664,-1503L-1667,-1535L-1662,-1555L-1680,-1574L-1715,-1564L-1738,-1589L-1757,-1602L-1757,-1634L-1778,-1658L-1767,-1691L-1745,-1724L-1735,-1755L-1713,-1759L-1694,-1750L-1672,-1779L-1653,-1774L-1632,-1793L-1637,-1821L-1652,-1832L-1632,-1857L-1649,-1856L-1678,-1842L-1686,-1828L-1708,-1842L-1746,-1835L-1786,-1850L-1797,-1876L-1832,-1914L-1794,-1942L-1733,-1975L-1710,-1975L-1714,-1941L-1657,-1944L-1679,-1986L-1712,-2013L-1732,-2048L-1758,-2079L-1795,-2102L-1780,-2141L-1732,-2144L-1697,-2179L-1691,-2217L-1663,-2255L-1636,-2264L-1585,-2301L-1560,-2295L-1518,-2340L-1476,-2322L-1457,-2285L-1445,-2301L-1399,-2296L-1400,-2277L-1358,-2263L-1331,-2271L-1273,-2245L-1221,-2238L-1200,-2227L-1163,-2240L-1122,-2216ZM-1931,-1794L-1914,-1782L-1897,-1788L-1875,-1772L-1848,-1764L-1850,-1757L-1871,-1745L-1891,-1758L-1902,-1769L-1926,-1765L-1932,-1771Z" fill="#E0E0E0" stroke="#fff" stroke-width=".4"/><path d="M796,-66L798,-50L796,-39L790,-34L797,-25L796,-18L778,-23L765,-21L749,-23L736,-17L721,-26L724,-35L749,-31L769,-29L779,-36L767,-48L767,-59L750,-64L756,-72L772,-70Z" fill="#E0E0E0" stroke="#fff" stroke-width=".4"/><path d="M796,-18L797,-25L790,-34L796,-39L798,-50L796,-66L799,-71L821,-71L837,-63L844,-64L849,-54L864,-54L863,-46L875,-45L889,-34L878,-22L865,-28L853,-27L844,-29L839,-23L829,-22L824,-29L815,-25L805,-5L798,-9Z" fill="#E0E0E0" stroke="#fff" stroke-width=".4"/><path d="M598,-276L611,-278L629,-277L630,-269L600,-265ZM630,-284L652,-270L647,-248L642,-252L643,-268L630,-280ZM619,-228L628,-227L637,-202L637,-184L631,-183L624,-200L614,-209Z" fill="#E0E0E0" stroke="#fff" stroke-width=".4"/><path d="M-442,-456L-411,-459L-376,-462L-379,-456L-338,-440L-276,-418L-221,-418L-200,-418L-200,-431L-153,-431L-143,-420L-129,-410L-112,-396L-103,-379L-97,-362L-82,-352L-60,-343L-43,-368L-20,-368L-1,-356L12,-335L22,-316L38,-299L44,-277L52,-263L73,-254L92,-247L103,-248L92,-221L87,-200L86,-160L83,-146L88,-129L96,-115L102,-93L120,-71L126,-54L137,-40L166,-33L177,-21L201,-29L222,-31L242,-37L259,-42L276,-53L283,-70L285,-95L290,-103L308,-111L337,-118L361,-117L378,-119L384,-113L383,-99L369,-81L362,-64L367,-59L363,-46L357,-24L350,-31L344,-31L339,-30L329,-13L324,-16L321,-15L321,-11L296,-11L270,-11L270,5L258,5L268,15L278,21L281,27L286,29L285,39L250,39L237,62L241,67L237,74L237,82L206,52L192,42L170,35L154,37L132,48L119,50L99,43L79,38L54,25L33,21L2,7L-21,-6L-27,-14L-43,-16L-71,-25L-82,-38L-111,-54L-125,-73L-131,-87L-122,-89L-125,-98L-119,-105L-119,-115L-128,-129L-130,-140L-140,-155L-163,-185L-191,-208L-204,-227L-228,-239L-233,-247L-228,-265L-242,-272L-258,-287L-265,-309L-280,-311L-296,-328L-309,-343L-310,-352L-324,-376L-334,-400L-334,-412L-353,-425L-362,-424L-378,-433L-382,-420L-378,-404L-375,-380L-366,-368L-346,-346L-341,-339L-337,-336L-333,-326L-329,-326L-323,-306L-315,-298L-309,-288L-292,-272L-283,-244L-275,-230L-267,-216L-266,-201L-252,-200L-241,-186L-232,-173L-232,-167L-244,-157L-249,-157L-256,-175L-274,-192L-293,-206L-307,-214L-306,-236L-310,-252L-323,-262L-342,-275L-346,-271L-353,-279L-369,-287L-386,-305L-384,-307L-372,-305L-362,-317L-361,-331L-382,-353L-398,-361L-408,-381L-418,-402L-431,-427Z" fill="#E0E0E0" stroke="#fff" stroke-width=".4"/><path d="M1296,1462L1288,1443L1300,1428L1285,1406L1263,1388L1235,1368L1225,1369L1198,1344L1180,1347L1216,1305L1247,1275L1266,1262L1288,1245L1289,1221L1275,1203L1262,1209L1267,1192L1271,1174L1271,1158L1261,1152L1251,1157L1241,1156L1238,1144L1235,1117L1230,1108L1212,1100L1200,1106L1172,1100L1173,1061L1165,1044L1174,1038L1171,1022L1179,1009L1184,987L1177,969L1162,961L1159,950L1163,933L1111,932L1101,899L1108,898L1108,886L1103,878L1102,862L1086,854L1069,854L1057,846L1039,840L1028,830L998,825L968,800L970,781L967,771L970,750L934,755L920,765L896,776L890,785L876,785L856,783L840,788L828,785L830,743L807,759L783,758L773,743L755,742L761,730L745,713L734,688L741,683L741,672L758,664L755,649L762,639L764,627L795,608L817,603L821,599L846,600L858,525L859,513L854,498L842,488L842,468L858,463L863,466L864,456L848,453L848,436L901,436L910,427L917,436L923,452L928,448L943,463L964,461L969,453L990,446L1001,442L1004,430L1023,423L1022,417L999,415L995,397L996,379L984,372L989,369L1009,373L1031,380L1039,373L1059,369L1089,359L1099,348L1095,341L1110,339L1116,346L1112,358L1122,362L1128,375L1120,384L1116,407L1123,421L1125,434L1142,447L1155,448L1158,443L1167,442L1179,437L1188,429L1203,432L1210,431L1224,433L1227,428L1222,422L1225,414L1236,417L1249,414L1265,420L1277,425L1285,418L1291,419L1295,427L1308,425L1318,414L1327,394L1343,369L1352,368L1359,383L1374,431L1389,435L1389,454L1369,477L1377,485L1426,489L1427,516L1447,498L1482,508L1527,525L1540,541L1536,556L1567,548L1620,562L1661,561L1701,584L1736,614L1757,622L1781,623L1790,632L1800,667L1804,683L1793,729L1779,747L1741,785L1724,817L1704,841L1697,842L1689,862L1691,915L1684,959L1681,978L1672,989L1667,1028L1639,1066L1635,1096L1613,1109L1606,1126L1577,1126L1534,1138L1515,1151L1484,1160L1452,1183L1429,1213L1425,1236L1430,1253L1425,1284L1418,1299L1399,1316L1369,1372L1345,1397L1326,1412L1314,1443Z" fill="#E0E0E0" stroke="#fff" stroke-width=".4"/><path d="M846,600L821,599L817,603L795,608L764,627L762,639L755,649L758,664L741,672L741,683L734,688L745,713L761,730L755,742L773,743L783,758L807,759L830,743L828,785L840,788L856,783L879,828L873,837L872,857L871,881L861,895L866,905L859,915L871,939L854,970L847,984L833,992L805,975L803,963L749,935L700,904L679,886L668,863L672,855L649,818L622,767L596,712L585,700L577,679L555,661L536,650L545,638L532,612L540,593L562,576L565,587L557,593L558,603L569,601L580,604L592,618L607,607L612,588L629,565L662,554L692,525L700,507L696,487L704,484L722,497L730,510L743,517L759,546L779,549L794,542L804,547L821,544L841,557L824,585L832,585Z" fill="#E0E0E0" stroke="#fff" stroke-width=".4"/><path d="M928,448L923,452L917,436L910,427L901,436L848,436L848,453L864,456L863,466L858,463L842,468L842,488L854,498L859,513L858,525L846,600L832,585L824,585L841,557L821,544L804,547L794,542L779,549L759,546L743,517L730,510L722,497L704,484L696,487L685,480L671,471L663,476L640,472L634,460L629,461L601,445L598,437L608,434L607,421L613,411L626,409L638,392L648,378L638,371L643,355L637,330L643,323L639,300L628,285L631,272L640,274L645,266L639,249L642,245L656,246L677,227L688,224L688,215L693,191L709,179L726,178L728,172L750,175L771,161L782,154L795,141L805,143L812,150L806,159L789,164L782,178L771,186L764,196L760,216L753,232L767,234L770,247L776,253L778,264L775,274L776,280L783,282L789,292L824,289L840,292L859,316L870,313L890,315L906,311L915,316L910,331L904,340L902,360L908,378L915,386L916,392L902,406L912,412L920,421Z" fill="#E0E0E0" stroke="#fff" stroke-width=".4"/><path d="M642,245L639,249L645,266L640,274L631,272L628,285L619,277L613,262L620,255L613,253L608,244L594,236L582,238L577,248L566,255L560,256L557,261L570,276L563,280L559,284L546,285L541,269L538,274L529,272L523,261L512,259L505,256L493,256L492,262L489,258L491,252L493,247L492,242L496,238L490,234L490,223L501,221L510,231L510,236L521,238L523,235L531,242L544,240L556,233L572,228L582,219L597,221L596,224L611,225L623,229L632,238Z" fill="#E0E0E0" stroke="#fff" stroke-width=".4"/><path d="M501,221L490,223L490,234L496,238L492,242L493,247L491,252L489,258L474,252L469,246L472,241L471,235L463,228L453,223L443,219L442,211L434,206L436,214L431,221L425,213L416,210L412,205L412,196L416,188L408,184L414,178L419,175L436,182L443,179L451,181L456,187L464,188L470,183L477,198L488,209Z" fill="#E0E0E0" stroke="#fff" stroke-width=".4"/><path d="M484,69L475,68L471,72L462,76L455,76L449,80L443,78L439,74L436,75L432,82L430,81L429,87L420,95L415,98L412,102L404,96L398,104L392,103L386,104L387,118L383,118L379,124L371,126L366,117L358,114L360,103L356,100L350,98L338,101L337,98L329,93L323,88L315,85L321,78L319,72L321,67L333,59L346,48L349,49L355,44L362,44L365,46L369,45L382,48L394,47L403,44L406,41L415,42L422,44L429,43L434,41L447,45L451,45L459,51L467,57L477,61Z" fill="#E0E0E0" stroke="#fff" stroke-width=".4"/><path d="M315,85L323,88L329,93L337,98L338,101L350,98L356,100L360,103L358,114L355,121L339,121L329,118L318,112L303,111L295,105L296,100L305,93L310,90L309,87Z" fill="#E0E0E0" stroke="#fff" stroke-width=".4"/><path d="M237,82L237,74L241,67L237,62L250,39L285,39L286,29L281,27L278,21L268,15L258,5L270,5L270,-11L296,-11L321,-11L321,12L319,44L327,44L336,49L338,45L346,48L333,59L321,67L319,72L321,78L315,85L309,87L310,90L305,93L296,100L295,105L281,100L264,99L251,94Z" fill="#E0E0E0" stroke="#fff" stroke-width=".4"/><path d="M321,-11L321,-15L324,-16L329,-13L339,-30L344,-31L344,-26L349,-26L349,-19L344,-6L347,-2L344,8L346,11L342,26L337,33L332,34L327,44L319,44L321,12Z" fill="#E0E0E0" stroke="#fff" stroke-width=".4"/><path d="M1095,341L1099,348L1089,359L1059,369L1039,373L1031,380L1009,373L989,369L984,372L996,379L995,397L999,415L1022,417L1023,423L1004,430L1001,442L990,446L969,453L964,461L943,463L928,448L920,421L912,412L902,406L916,392L915,386L908,378L902,360L904,340L910,331L915,316L906,311L890,315L870,313L859,316L840,292L824,289L789,292L783,282L776,280L775,274L778,264L776,253L770,247L767,234L753,232L760,216L764,196L771,186L782,178L789,164L806,159L806,166L790,169L799,182L798,196L786,212L796,234L808,232L814,212L806,203L805,182L838,170L835,157L844,149L854,168L873,169L891,184L892,193L916,194L946,191L961,203L982,206L997,198L998,191L1031,189L1064,189L1041,197L1050,210L1072,212L1093,226L1097,248L1111,247L1122,254L1100,270L1098,280L1107,290L1101,295L1084,300L1084,312L1077,320Z" fill="#E0E0E0" stroke="#fff" stroke-width=".4"/><path d="M696,487L700,507L692,525L662,554L629,565L612,588L607,607L592,618L580,604L569,601L558,603L557,593L565,587L562,576L576,555L570,543L560,556L544,544L549,536L545,511L554,507L559,490L570,473L568,462L583,456L601,445L629,461L634,460L640,472L663,476L671,471L685,480Z" fill="#E0E0E0" stroke="#fff" stroke-width=".4"/><path d="M944,-31L958,-29L963,-23L956,-16L935,-16L919,-15L918,-27L922,-31Z" fill="#E0E0E0" stroke="#fff" stroke-width=".4"/><path d="M636,-30L655,-28L669,-21L674,-13L655,-13L646,-8L631,-12L615,-23L619,-29L630,-31Z" fill="#E0E0E0" stroke="#fff" stroke-width=".4"/><path d="M508,-168L532,-165L553,-165L579,-155L590,-144L615,-148L625,-141L648,-122L665,-109L674,-110L690,-104L688,-95L708,-94L729,-82L726,-76L707,-72L689,-70L670,-73L631,-70L650,-86L638,-94L621,-96L611,-104L605,-121L590,-119L564,-127L556,-134L521,-138L511,-144L521,-151L494,-153L475,-137L464,-137L460,-130L446,-127L435,-129L449,-138L455,-149L467,-156L481,-161L502,-164Z" fill="#E0E0E0" stroke="#fff" stroke-width=".4"/></g><g clip-path="url(#v)"><path d="M484.0,69.2L483.3,70.2L482.4,70.9L480.7,74.2L480.1,74.5L480.0,72.0L479.0,71.7L477.7,72.6L477.0,73.9L478.1,75.6L479.1,75.6L480.2,76.0L483.2,87.5L482.5,89.6L480.7,92.8L478.9,95.5L477.1,97.2L474.9,104.4L472.9,116.2L474.3,126.7L473.6,136.4L474.2,138.7L474.4,141.6L472.9,142.1L472.1,142.0L471.2,140.2L471.3,138.7L472.2,136.9L472.6,134.5L472.1,133.2L471.2,136.0L469.8,137.2L468.8,137.7L467.8,139.1L468.8,141.7L470.2,143.7L470.5,145.1L470.1,146.7L469.8,152.4L469.3,152.2L468.8,151.5L467.4,151.4L467.2,153.7L467.3,155.0L466.1,156.0L465.7,156.9L466.7,157.6L467.8,158.1L469.1,158.0L470.3,160.8L470.5,163.0L468.0,165.2L467.1,166.9L465.7,169.0L465.0,171.0L464.7,172.5L465.6,177.3L467.4,180.6L468.9,182.7L470.8,183.2L470.4,185.4L468.9,186.8L466.2,188.0L463.3,188.2L458.5,187.1L456.5,187.0L455.7,186.4L455.4,185.3L454.1,183.6L451.6,181.5L450.1,181.6L447.8,181.1L443.8,179.6L442.0,179.4L439.3,180.7L436.3,182.4L428.9,179.8L423.7,177.9L419.1,176.3L417.8,175.6L416.9,175.8L416.0,176.6L415.0,178.2L414.6,178.6L414.1,179.1L413.5,179.2L413.5,178.4L411.2,175.3L407.6,171.7L393.8,160.4L388.7,153.6L385.9,148.7L383.3,146.1L375.8,141.0L374.2,138.9L366.7,131.9L361.1,127.8L361.0,126.1L363.4,123.9L364.5,124.0L365.7,125.6L367.7,127.3L368.7,127.4L370.0,126.6L370.0,125.7L377.7,125.4L379.0,124.9L380.4,123.6L381.1,121.8L381.2,120.1L381.5,118.9L382.7,117.7L385.0,117.3L386.6,117.2L387.1,116.3L386.6,113.7L385.8,107.3L385.6,105.5L385.8,104.2L386.5,103.7L389.9,103.5L396.3,104.0L397.5,103.5L400.1,99.9L402.4,97.3L404.1,96.0L405.5,95.7L406.9,98.1L412.3,101.5L413.2,101.3L413.8,101.1L413.9,100.6L413.9,99.0L415.2,97.6L418.0,96.3L420.8,94.0L423.6,90.8L426.1,88.9L428.1,88.3L428.9,87.4L428.4,86.3L428.5,84.6L429.4,82.3L430.6,81.0L432.2,80.7L432.8,80.0L432.5,78.9L432.8,77.8L434.2,75.9L437.6,74.3L439.5,74.9L441.2,77.0L443.5,78.5L446.4,79.3L448.7,79.0L450.3,77.6L451.8,77.2L453.1,77.8L453.8,77.5L453.9,76.3L454.6,76.1L455.8,76.7L457.0,76.8L458.0,76.5L458.4,76.0L458.6,75.4L459.3,75.0L461.8,75.4L464.7,74.7L467.9,73.0L470.0,72.2L471.0,72.4L472.2,71.5L473.7,69.6L477.0,68.7Z" fill="#4ECDC4" stroke="#2C3E50" stroke-width="1"/></g><circle cx="400.0" cy="150.0" r="4" fill="#E74C3C" stroke="#fff" stroke-width="2"/><text x="400.0" y="140.0" text-anchor="middle" font-family="sans-serif" font-weight="700" font-size="10" fill="#2D3436">Managua</text></svg>