<svg viewBox="0 0 800 300" xmlns="http://www.w3.org/2000/svg"><defs><clipPath id="v"><rect width="800" height="300"/></clipPath></defs><rect width="800" height="300" fill="#DCEEF8"/><g clip-path="url(#v)"><path d="M650,-1708L660,-1756L695,-1760L726,-1712L768,-1663L807,-1614L745,-1564L732,-1476L710,-1455L699,-1363L669,-1359L617,-1426L639,-1466L602,-1499L555,-1602L536,-1705L602,-1755L615,-1706ZM1040,-741L999,-713L979,-707L989,-756L958,-784L920,-760L908,-709L885,-679L858,-695L827,-692L799,-728L785,-710L770,-707L766,-663L720,-673L713,-636L690,-637L674,-591L649,-522L612,-439L620,-420L612,-398L588,-399L572,-347L573,-277L589,-251L581,-192L560,-159L550,-131L533,-161L485,-106L452,-95L419,-119L410,-170L402,-286L425,-320L489,-365L538,-422L582,-503L641,-623L682,-673L749,-759L803,-791L843,-787L880,-848L925,-844L968,-859L1045,-805L1013,-786ZM950,-1761L914,-1687L843,-1671L771,-1694L766,-1731L731,-1734L705,-1799L780,-1840L816,-1805L840,-1849L902,-1812ZM884,-1479L830,-1433L787,-1459L804,-1489L789,-1527L839,-1551L849,-1506Z" fill="#E0E0E0" stroke="#fff" stroke-width=".4"/><path d="M-862,-2182L-823,-2240L-780,-2300L-695,-2291L-663,-2369L-577,-2390L-528,-2386L-479,-2380L-430,-2372L-382,-2363L-340,-2322L-301,-2281L-229,-2201L-274,-2128L-321,-2125L-368,-2120L-434,-2113L-499,-2103L-487,-2071L-400,-2090L-327,-2030L-279,-2083L-259,-2021L-286,-1925L-224,-1986L-166,-2020L-105,-2052L-32,-2019L-18,-1948L-70,-1892L-118,-1837L-131,-1803L-210,-1779L-153,-1772L-182,-1671L-201,-1588L-200,-1455L-171,-1382L-209,-1378L-250,-1344L-204,-1289L-199,-1205L-225,-1196L-193,-1116L-247,-1110L-219,-1074L-227,-1043L-261,-1030L-296,-1030L-265,-973L-265,-937L-313,-970L-326,-949L-293,-929L-260,-881L-251,-820L-295,-806L-314,-835L-344,-878L-336,-827L-364,-788L-299,-785L-266,-782L-331,-720L-398,-667L-469,-644L-496,-644L-521,-619L-555,-552L-608,-509L-625,-507L-657,-492L-692,-478L-713,-442L-714,-403L-726,-366L-766,-323L-756,-282L-767,-240L-780,-191L-814,-188L-850,-229L-899,-229L-923,-257L-939,-307L-981,-374L-994,-411L-997,-462L-1031,-517L-1022,-562L-1038,-584L-1014,-659L-978,-684L-968,-713L-963,-767L-991,-742L-1004,-732L-1026,-722L-1056,-745L-1058,-793L-1048,-832L-1025,-833L-975,-814L-1017,-861L-1039,-887L-1064,-876L-1084,-895L-1057,-970L-1072,-1000L-1091,-1059L-1120,-1154L-1152,-1191L-1151,-1231L-1217,-1289L-1269,-1297L-1334,-1293L-1394,-1285L-1422,-1318L-1464,-1385L-1400,-1419L-1351,-1425L-1403,-1441L-1456,-1454L-1511,-1502L-1507,-1548L-1462,-1579L-1415,-1608L-1371,-1640L-1325,-1671L-1316,-1720L-1382,-1770L-1361,-1828L-1320,-1881L-1276,-1935L-1240,-1953L-1251,-2027L-1193,-2073L-1118,-2101L-1043,-2103L-1016,-2048L-951,-2146L-893,-2078L-858,-2065L-808,-2009L-866,-2103Z" fill="#E0E0E0" stroke="#fff" stroke-width=".4"/><path d="M-982,1556L-996,1578L-1004,1596L-1013,1605L-1025,1607L-1028,1600L-1034,1599L-1041,1606L-1052,1601L-1046,1591L-1044,1579L-1039,1569L-1049,1554L-1051,1538L-1038,1516L-1030,1519L-1012,1525L-986,1546ZM431,263L443,273L478,279L466,305L463,331L456,337L445,334L446,343L428,363L427,379L439,373L447,389L446,399L454,412L445,422L451,449L465,453L462,468L440,487L392,478L356,489L353,509L325,513L297,498L288,505L244,490L234,477L246,457L251,388L226,351L208,333L171,319L168,292L200,284L241,293L233,251L256,267L313,238L320,206L342,198L345,212L357,212L368,228L385,246L398,243L419,260L424,264ZM494,504L510,491L514,520L506,545L495,538L489,516Z" fill="#E0E0E0" stroke="#fff" stroke-width=".4"/><path d="M550,-131L560,-159L581,-192L589,-251L573,-277L572,-347L588,-399L612,-398L620,-420L612,-439L649,-522L674,-591L690,-637L713,-636L720,-673L766,-663L770,-707L785,-710L817,-677L855,-632L856,-535L864,-511L822,-494L799,-453L802,-418L764,-373L716,-327L699,-253L716,-218L739,-190L717,-136L691,-125L682,-48L668,-6L639,-10L625,24L597,26L589,-15L568,-66Z" fill="#E0E0E0" stroke="#fff" stroke-width=".4"/><path d="M969,-9L995,2L998,13L1011,7L1035,18L1037,38L1032,49L1047,77L1057,85L1056,92L1072,99L1079,110L1070,119L1050,118L1045,122L1051,135L1057,161L1036,163L1028,172L1027,192L1017,188L995,190L989,180L980,187L970,182L951,181L924,171L899,168L880,169L867,180L855,181L855,164L847,145L862,137L862,121L855,105L854,87L878,87L904,72L910,48L930,34L928,15L943,8Z" fill="#E0E0E0" stroke="#fff" stroke-width=".4"/><path d="M1057,161L1066,162L1072,153L1080,155L1105,151L1121,174L1114,182L1117,194L1136,196L1145,213L1144,220L1175,234L1194,228L1209,246L1223,245L1259,258L1260,269L1250,288L1255,308L1251,321L1228,323L1215,333L1214,349L1195,352L1178,364L1156,366L1135,379L1136,398L1132,397L1129,390L1121,388L1104,381L1097,390L1094,386L1056,377L1054,364L1032,368L1023,387L1004,413L993,407L981,413L970,407L976,403L981,391L987,379L986,373L991,370L993,375L1007,376L1014,374L1009,370L1011,365L1003,356L999,341L990,335L992,322L981,313L971,311L953,300L937,303L931,309L920,309L914,317L896,321L888,326L877,318L861,317L846,313L835,321L834,311L820,301L825,287L832,277L837,279L831,262L853,231L865,226L867,215L855,181L867,180L880,169L899,168L924,171L951,181L970,182L980,187L989,180L995,190L1017,188L1027,192L1028,172L1036,163Z" fill="#E0E0E0" stroke="#fff" stroke-width=".4"/><path d="M854,87L855,105L862,121L862,137L847,145L855,164L855,181L867,215L865,226L853,231L831,262L837,279L832,277L808,262L791,268L779,264L765,272L752,259L742,264L741,261L730,243L712,241L709,229L692,224L689,234L676,226L677,216L659,212L647,200L637,175L639,161L633,140L624,125L631,114L625,94L642,81L680,62L711,48L735,55L737,65L761,66L791,70L836,70L848,74Z" fill="#E0E0E0" stroke="#fff" stroke-width=".4"/><path d="M695,312L693,327L680,327L684,335L676,358L671,364L650,365L638,373L618,371L583,361L577,349L553,355L550,362L535,357L523,356L512,349L516,341L515,334L522,332L534,342L538,333L559,334L577,328L589,329L596,336L599,330L595,306L604,302L612,285L631,297L644,281L653,279L672,290L683,288L695,295L693,300Z" fill="#E0E0E0" stroke="#fff" stroke-width=".4"/><path d="M820,301L834,311L835,321L820,329L809,353L794,377L774,384L759,383L740,392L731,397L711,390L693,375L685,371L680,359L676,358L684,335L680,327L693,327L695,312L708,322L717,326L737,321L739,314L749,313L761,307L763,309L775,305L781,296L789,294L815,305Z" fill="#E0E0E0" stroke="#fff" stroke-width=".4"/><path d="M931,309L937,303L953,300L971,311L981,313L992,322L990,335L999,341L1003,356L1011,365L1009,370L1014,374L1007,376L993,375L991,370L986,373L987,379L981,391L976,403L970,407L966,391L968,375L968,360L954,338L946,323L938,312Z" fill="#E0E0E0" stroke="#fff" stroke-width=".4"/><path d="M970,407L981,413L993,407L1004,413L1004,422L992,430L985,426L978,468L964,464L946,452L917,460L905,468L869,466L850,461L841,464L834,450L829,444L835,438L829,434L821,441L807,431L805,417L790,409L788,398L774,384L794,377L809,353L820,329L835,321L846,313L861,317L877,318L888,326L896,321L914,317L920,309L931,309L938,312L946,323L954,338L968,360L968,375L966,391Z" fill="#E0E0E0" stroke="#fff" stroke-width=".4"/><path d="M928,15L930,34L910,48L904,72L878,87L854,87L848,74L836,70L834,59L836,48L826,41L800,33L795,-3L823,-17L864,-14L888,-18L891,-9L904,-6Z" fill="#E0E0E0" stroke="#fff" stroke-width=".4"/><path d="M947,-67L959,-57L961,-35L969,-9L943,8L928,15L904,-6L891,-9L888,-18L864,-14L823,-17L795,-3L796,-36L808,-65L831,-80L850,-46L870,-47L874,-82L895,-90L906,-84L927,-67Z" fill="#E0E0E0" stroke="#fff" stroke-width=".4"/><path d="M964,-161L968,-153L950,-125L958,-82L947,-67L927,-67L906,-84L895,-90L874,-82L877,-109L868,-103L853,-120L851,-147L881,-160L912,-167L939,-160Z" fill="#E0E0E0" stroke="#fff" stroke-width=".4"/><path d="M625,94L631,114L624,125L633,140L639,161L637,175L647,200L636,204L630,199L624,207L606,214L597,224L579,232L584,244L586,260L599,269L612,285L604,302L595,306L599,330L596,336L589,329L577,328L559,334L538,333L534,342L522,332L515,334L489,323L484,331L463,331L466,305L478,279L443,273L431,263L433,246L428,238L431,212L427,171L441,171L447,156L454,119L449,105L454,96L474,94L479,103L495,83L490,67L489,43L507,49L523,42L523,59L548,68L548,83L572,75L586,64L614,80Z" fill="#E0E0E0" stroke="#fff" stroke-width=".4"/><path d="M834,450L841,464L850,461L869,466L905,468L917,460L946,452L964,464L978,468L965,482L957,505L964,524L943,520L918,530L918,546L896,550L879,538L859,547L841,546L839,525L827,514L831,509L829,505L833,495L842,484L830,470L828,457Z" fill="#E0E0E0" stroke="#fff" stroke-width=".4"/><path d="M685,371L693,375L711,390L731,397L740,392L746,405L754,415L745,428L734,421L717,421L696,415L684,416L679,423L670,415L665,430L677,446L682,456L694,469L703,476L712,490L734,503L731,509L708,496L694,484L672,474L651,449L656,447L645,432L644,421L629,415L621,430L614,419L614,407L615,406L632,407L637,401L645,407L655,408L655,398L663,394L666,380Z" fill="#E0E0E0" stroke="#fff" stroke-width=".4"/><path d="M515,334L516,341L512,349L523,356L535,357L533,372L523,378L505,373L499,387L488,388L484,383L470,395L458,396L447,389L439,373L427,379L428,363L446,343L445,334L456,337L463,331L484,331L489,323Z" fill="#E0E0E0" stroke="#fff" stroke-width=".4"/><path d="M428,238L433,246L431,263L424,264L419,260L422,239Z" fill="#E0E0E0" stroke="#fff" stroke-width=".4"/><path d="M431,212L428,238L422,239L419,260L398,243L385,246L368,228L357,212L345,212L342,198L361,191L379,194L402,185L417,203Z" fill="#E0E0E0" stroke="#fff" stroke-width=".4"/><path d="M98,680L96,670L105,658L109,650L100,641L107,620L97,601L108,598L109,583L113,579L113,554L124,545L117,528L103,527L99,531L85,531L78,515L68,520L60,528L61,505L51,490L85,466L115,472L148,472L174,478L194,476L234,477L244,490L288,505L297,498L325,513L353,509L355,528L331,550L300,557L298,568L283,585L273,611L283,629L269,643L264,663L245,669L228,693L197,693L174,693L158,704L149,715L137,712L128,702L121,685Z" fill="#E0E0E0" stroke="#fff" stroke-width=".4"/><path d="M129,89L133,118L114,154L71,178L36,172L56,130L44,88L77,56L95,36L100,59L95,81L110,80Z" fill="#E0E0E0" stroke="#fff" stroke-width=".4"/><path d="M535,357L550,362L553,355L577,349L583,361L618,371L615,388L621,403L601,398L582,410L583,427L580,437L588,455L611,472L623,499L650,526L669,526L675,533L669,540L690,551L708,561L729,578L732,584L727,595L714,580L692,575L682,596L700,608L697,624L687,626L674,653L663,655L664,646L669,629L674,622L664,604L657,588L647,584L640,570L624,564L613,551L595,549L576,534L554,513L537,494L530,460L517,456L498,445L486,450L472,466L462,468L465,453L451,449L445,422L454,412L446,399L447,389L458,396L470,395L484,383L488,388L499,387L505,373L523,378L533,372ZM641,648L660,645L651,669L654,679L649,695L631,683L618,680L584,664L587,648L616,651ZM493,560L505,550L520,573L517,615L505,613L495,624L486,616L485,577L480,559Z" fill="#E0E0E0" stroke="#fff" stroke-width=".4"/><path d="M523,42L507,49L489,43L479,19L478,-25L482,-37L489,-51L511,-54L519,-66L539,-79L538,-56L531,-41L534,-29L547,-22L541,-5L534,-10L516,21ZM583,-7L590,15L576,50L550,26L547,8Z" fill="#E0E0E0" stroke="#fff" stroke-width=".4"/><path d="M129,89L110,80L95,81L100,59L95,36L116,34L142,60ZM205,108L205,108L208,84L192,58L192,58L162,50L156,39L165,20L157,8L144,28L142,-14L130,-36L139,-83L158,-121L177,-117L207,-121L181,-71L206,-77L232,-77L226,-40L204,-1L229,2L231,7L253,57L270,64L285,111L292,127L321,135L318,161L306,172L316,193L294,213L261,213L219,223L208,216L192,234L169,229L152,244L139,236L175,196L197,187L197,187L158,181L152,165L177,153L164,131L168,104Z" fill="#E0E0E0" stroke="#fff" stroke-width=".4"/><path d="M618,371L638,373L650,365L671,364L676,358L680,359L685,371L666,380L663,394L655,398L655,408L645,407L637,401L632,407L615,406L621,403L615,388Z" fill="#E0E0E0" stroke="#fff" stroke-width=".4"/><path d="M979,-707L975,-660L1013,-616L990,-568L1019,-499L1002,-449L1024,-406L1014,-370L1050,-333L1041,-306L1018,-276L966,-211L922,-207L879,-189L839,-179L825,-206L801,-222L807,-272L795,-319L807,-350L829,-385L885,-446L901,-458L898,-483L864,-511L856,-535L855,-632L817,-677L785,-710L799,-728L827,-692L858,-695L885,-679L908,-709L920,-760L958,-784L989,-756Z" fill="#E0E0E0" stroke="#fff" stroke-width=".4"/><path d="M832,277L825,287L820,301L815,305L789,294L781,296L775,305L763,309L761,307L749,313L739,314L737,321L717,326L708,322L695,312L693,300L695,295L698,287L709,287L717,284L718,280L723,278L724,270L730,268L734,262L741,261L742,264L752,259L765,272L779,264L791,268L808,262Z" fill="#E0E0E0" stroke="#fff" stroke-width=".4"/><path d="M647,200L659,212L677,216L676,226L689,234L692,224L709,229L712,241L730,243L741,261L734,262L730,268L724,270L723,278L718,280L717,284L709,287L698,287L695,295L683,288L672,290L653,279L644,281L631,297L612,285L599,269L586,260L584,244L579,232L597,224L606,214L624,207L630,199L636,204Z" fill="#E0E0E0" stroke="#fff" stroke-width=".4"/><path d="M734,503L712,490L703,476L694,469L682,456L677,446L665,430L670,415L679,423L684,416L696,415L717,421L734,421L745,428L753,428L747,443L759,456L756,472L750,474L745,477L737,485Z" fill="#E0E0E0" stroke="#fff" stroke-width=".4"/><path d="M740,392L759,383L774,384L788,398L790,409L805,417L807,431L821,441L829,434L835,438L829,444L834,450L828,457L830,470L842,484L833,495L829,505L831,509L827,514L816,515L807,516L807,514L810,510L812,502L809,502L804,496L800,494L797,489L792,487L789,482L784,484L781,495L775,498L777,495L768,488L760,484L756,480L750,474L756,472L759,456L747,443L753,428L745,428L754,415L746,405Z" fill="#E0E0E0" stroke="#fff" stroke-width=".4"/><path d="M771,505L764,508L763,502L752,518L754,529L748,526L742,515L731,509L734,503L737,485L745,477L750,474L756,480L760,484L768,488L777,495L775,498Z" fill="#E0E0E0" stroke="#fff" stroke-width=".4"/><path d="M783,529L782,517L776,514L771,505L775,498L781,495L784,484L789,482L792,487L797,489L800,494L804,496L809,502L812,502L810,510L807,514L807,516L802,518L788,523L786,530Z" fill="#E0E0E0" stroke="#fff" stroke-width=".4"/></g><g clip-path="url(#v)"><path d="M426.7,213.6L424.2,213.6L421.9,213.5L420.7,213.3L419.4,212.7L418.8,211.5L418.1,210.1L418.2,209.1L420.4,206.7L420.8,205.9L420.5,205.6L420.8,204.4L422.5,200.7L422.6,199.1L421.9,198.0L420.8,197.4L417.3,196.3L415.6,194.7L414.9,193.3L414.1,192.9L413.0,193.3L410.1,193.9L407.7,193.1L404.9,190.5L404.3,188.1L403.9,186.4L403.2,185.7L402.2,186.6L401.1,188.1L398.7,188.3L398.1,187.9L397.9,187.1L397.8,186.4L397.1,185.4L396.5,184.9L393.5,187.6L392.4,187.5L391.0,186.5L390.3,185.5L388.8,186.1L387.4,187.3L387.9,189.7L387.1,190.1L385.4,189.9L383.5,188.9L381.4,188.3L378.1,186.7L373.6,188.1L370.5,186.4L367.9,186.3L366.3,185.0L364.6,182.9L365.8,181.4L367.0,181.0L371.7,180.7L375.2,181.6L381.5,186.2L383.1,186.1L384.7,185.6L383.9,184.3L382.3,183.7L380.0,182.5L378.1,180.7L382.4,180.1L381.8,179.3L381.3,177.7L376.7,172.3L377.5,170.8L378.7,167.6L380.1,165.0L381.2,164.3L383.1,162.4L387.2,156.9L389.8,152.4L391.8,147.1L394.6,132.3L395.5,129.8L396.8,127.0L398.5,127.5L399.7,128.3L403.9,126.2L411.2,120.7L413.3,115.9L415.4,113.7L423.8,109.3L428.4,108L435.5,107.6L440.7,106.9L446.8,106.6L449.2,109.3L450.5,111.3L452.7,112.3L456.2,113.1L455.9,117.0L456.0,124.6L455.7,126.0L454.1,129.2L452.6,134.9L452.1,138.7L451.7,139.5L445.2,139.4L444.3,140.1L444.1,140.8L444.5,141.8L444.3,142.8L443.8,143.6L444.0,144.8L445.2,146.2L447.2,147.1L449.4,147.2L450.5,147.1L451.3,148.0L452.2,149.6L452.1,151.6L451.8,154.1L450.8,156.6L447.8,159.3L446.4,160.3L445.2,160.8L444.5,161.5L444.3,162.5L444.4,163.3L446.5,165.5L446.4,166.0L445.8,167.2L445.0,168.3L439.5,170.6L437.2,170.4L436.0,171.5L435.6,171.7L434.2,170.6L430.9,169.5L429.8,169.9L429.1,170.6L427.0,171.3L425.6,172.5L425.6,174.1L428.2,178.2L429.1,179.1L429.1,180.6L430.3,182.5L431.6,184.9L431.7,186.4L431.6,188.0L430.9,190.2L428.7,195.2L428.7,196.3L428.9,197.0L429.7,197.2L430.2,197.6L430.0,198.3L425.9,201.8L425.4,202.4L423.7,202.2L423.4,202.8L423.6,203.8L424.3,204.6L425.8,205.0L427.0,205.9L428.1,207.7ZM383.5,188.9L383.1,190.4L382.3,192.1L379.0,194.4L375.6,195.9L373.9,195.7L372.7,194.9L372.1,194.1L370.2,193.3L367.8,192.9L366.2,193.8L365.1,194.6L364.1,194.4L363.4,193.8L362.8,192.7L362.1,189.3L364.0,188.7L368.0,188.4L371.1,189.6L375.1,190.2L378.3,188.5L380.8,190.0ZM435.0,103.7L431.6,105.2L430.7,104.9L431.0,104.4L434.0,103.6ZM425.2,105.9L420.4,106.5L418.7,106.0L418.4,105.6L419.7,105.3L423.9,105.2L425.1,105.7ZM405.1,112.1L400.6,115.0L400.2,114.6L403.1,112.0ZM410.4,108.9L408.1,109.2L407.1,108.6L412.6,107.0L416.0,106.5L416.7,106.7ZM399.7,121.8L397.2,124.6L395.7,123.8L395.4,123.2L396.1,120.9L399.7,117.2ZM376.7,175.1L379.2,177.2L379.6,177.9L379.8,178.6L376.8,179.5L373.6,176.9L371.4,177.5L370.7,176.2L370.7,175.4L372.9,174.8ZM444.8,100.8L442.6,100.9L443.2,99.9L445.3,99.0L446.5,99.0ZM-1386.3,1358.4L-1387.5,1361.2L-1388.2,1360.0L-1388.3,1357.7L-1388.8,1356.8L-1389.8,1356.3L-1390.3,1355.6L-1390.3,1354.4L-1386.6,1356.2ZM-1257.6,1223.1L-1258.2,1223.6L-1258.7,1223.5L-1259.1,1223.1L-1259.1,1222.2L-1258.6,1222.4L-1258.4,1222.5L-1258.3,1222.7ZM-1264.8,1219.8L-1265.0,1219.9L-1265.3,1219.7L-1265.2,1219.2L-1265.0,1219.1L-1264.8,1219.2L-1264.6,1219.5Z" fill="#4ECDC4" stroke="#2C3E50" stroke-width="1"/></g><circle cx="400.0" cy="150.0" r="4" fill="#E74C3C" stroke="#fff" stroke-width="2"/><text x="400.0" y="140.0" text-anchor="middle" font-family="sans-serif" font-weight="700" font-size="10" fill="#2D3436">Amsterdam</text></svg>