<svg viewBox="0 0 800 300" xmlns="http://www.w3.org/2000/svg"><defs><clipPath id="v"><rect width="800" height="300"/></clipPath></defs><rect width="800" height="300" fill="#DCEEF8"/><g clip-path="url(#v)"><path d="M-649,299L-650,298L-665,287L-671,281L-685,276L-690,265L-689,257L-699,252L-700,241L-709,231L-710,225L-705,218L-705,209L-719,200L-727,184L-732,173L-739,166L-744,160L-748,152L-756,157L-764,166L-771,155L-776,149L-784,144L-792,144L-792,44L-792,-33L-777,-28L-765,-17L-757,-15L-750,-24L-740,-31L-728,-28L-717,-38L-704,-44L-698,-35L-693,-40L-691,-51L-685,-48L-672,-28L-662,-43L-661,-26L-651,-30L-648,-36L-638,-35L-626,-26L-608,-18L-597,-14L-590,-15L-579,-4L-590,6L-576,11L-555,8L-548,5L-540,17L-531,7L-539,-2L-534,-10L-524,-11L-518,-13L-512,-8L-504,4L-495,2L-481,11L-469,8L-458,9L-459,-4L-452,-8L-439,-1L-439,19L-434,2L-428,3L-425,-19L-433,-33L-442,-42L-441,-68L-432,-86L-422,-82L-414,-71L-403,-44L-410,-33L-396,-28L-396,-6L-385,-23L-376,-9L-378,7L-370,21L-362,6L-357,-13L-356,-37L-345,-35L-333,-32L-323,-21L-322,-10L-328,1L-323,13L-324,22L-339,36L-350,39L-358,33L-360,43L-368,59L-370,67L-379,80L-391,81L-397,88L-397,100L-406,102L-416,116L-425,134L-428,147L-428,165L-417,167L-413,181L-409,192L-398,190L-384,196L-376,201L-370,208L-360,212L-352,218L-339,218L-331,220L-332,232L-329,245L-324,259L-312,271L-306,267L-302,254L-306,233L-311,226L-299,220L-290,210L-286,200L-286,191L-292,178L-301,167L-292,151L-295,137L-298,111L-292,107L-279,111L-271,113L-264,109L-257,114L-247,124L-245,130L-231,132L-231,145L-229,165L-221,167L-216,176L-204,168L-197,151L-192,143L-186,157L-175,177L-167,194L-170,203L-159,211L-152,219L-140,223L-135,227L-132,238L-126,240L-122,245L-122,260L-127,264L-133,269L-146,273L-156,283L-169,285L-186,283L-198,283L-206,284L-213,292L-223,298L-234,313L-243,324L-236,322L-224,307L-207,297L-195,296L-188,302L-196,310L-193,322L-191,331L-181,336L-168,335L-160,322L-159,330L-154,334L-164,342L-181,348L-189,353L-198,361L-204,360L-204,351L-190,341L-203,342L-212,343L-217,337L-217,321L-220,318L-226,320L-228,317L-234,326L-237,334L-239,339L-243,341L-245,342L-246,345L-261,345L-272,345L-276,347L-284,355L-285,355L-288,360L-295,360L-303,360L-306,361L-305,364L-304,367L-304,368L-315,373L-323,375L-332,381L-334,381L-337,379L-337,377L-337,376L-336,373L-332,367L-330,360L-331,351L-333,341L-341,335L-340,333L-341,332L-343,332L-345,330L-345,328L-347,329L-349,328L-348,327L-350,326L-351,323L-357,319L-363,316L-371,311L-379,307L-386,310L-388,310L-398,307L-404,309L-412,305L-420,303L-425,302L-428,300L-429,294L-432,294L-432,299L-448,299L-475,299L-502,299L-525,299L-549,299L-572,299L-596,299L-604,299L-627,299ZM-344,109L-338,101L-327,101L-328,104L-337,113L-342,113ZM-311,-109L-320,-123L-319,-133L-316,-135L-298,-132L-284,-117L-283,-109L-292,-110L-300,-111L-309,-107ZM-315,115L-312,110L-309,110L-307,114L-310,122L-314,121L-316,116ZM-420,-171L-424,-159L-435,-161L-445,-169L-441,-183L-429,-191L-423,-180ZM-421,-255L-425,-254L-440,-256L-442,-266L-426,-266L-421,-259ZM-444,-302L-435,-289L-437,-275L-449,-267L-455,-276L-458,-290L-459,-307L-449,-305ZM-377,-153L-389,-157L-410,-166L-413,-183L-414,-199L-422,-213L-438,-217L-447,-228L-444,-242L-428,-240L-419,-229L-404,-229L-397,-217L-399,-205L-390,-198L-385,-190L-374,-189L-363,-186L-350,-193L-334,-196L-322,-193L-313,-182L-311,-169L-316,-161L-328,-155L-338,-158L-361,-154ZM-558,-278L-547,-272L-550,-261L-564,-251L-576,-263L-570,-274ZM-556,-304L-546,-296L-555,-288L-568,-288L-568,-294L-560,-306ZM-121,270L-125,278L-131,289L-125,285L-120,287L-123,291L-116,295L-112,292L-104,296L-107,304L-101,302L-100,309L-98,316L-101,326L-105,326L-110,324L-108,315L-110,313L-120,323L-124,323L-119,317L-126,315L-135,315L-150,315L-151,312L-146,307L-150,304L-143,297L-135,278L-130,270L-123,266L-120,267ZM-343,61L-335,68L-326,73L-325,82L-319,81L-314,86L-321,92L-333,88L-337,80L-345,89L-356,98L-359,88L-369,90L-363,81L-362,67L-359,49L-353,51L-352,59L-348,56ZM-303,-97L-296,-107L-278,-94L-267,-82L-266,-71L-252,-77L-244,-61L-225,-52L-218,-43L-210,-21L-225,-11L-206,3L-194,7L-183,26L-170,27L-173,41L-186,63L-196,55L-208,37L-219,39L-220,50L-211,61L-201,70L-197,75L-192,92L-195,105L-205,100L-225,86L-214,101L-205,111L-204,117L-225,111L-242,101L-252,92L-249,87L-261,78L-272,69L-272,75L-295,77L-301,71L-296,58L-281,57L-265,55L-268,48L-265,38L-255,19L-257,10L-260,3L-272,-8L-288,-15L-283,-21L-291,-34L-298,-36L-305,-44L-309,-37L-323,-34L-352,-39L-368,-46L-381,-49L-387,-58L-379,-69L-390,-69L-393,-94L-387,-118L-379,-129L-359,-136L-364,-118L-358,-102L-351,-123L-331,-135L-317,-107L-319,-90ZM-427,-146L-410,-145L-395,-138L-407,-113L-416,-108L-425,-89L-434,-90L-439,-113L-439,-126L-434,-138ZM-649,-206L-636,-232L-620,-255L-608,-254L-597,-259L-598,-232L-604,-220L-612,-218L-626,-204L-639,-199ZM-727,235L-719,234L-722,249L-715,259L-718,259L-723,253L-725,247L-729,243L-731,237L-730,233ZM-513,-325L-498,-319L-476,-304L-470,-285L-467,-269L-480,-273L-493,-286L-510,-287L-503,-299L-512,-309ZM-654,304L-658,306L-671,301L-674,296L-681,292L-682,289L-690,286L-693,280L-693,277L-684,280L-679,281L-672,283L-669,287L-666,293L-658,298ZM-639,-155L-628,-149L-608,-147L-600,-139L-592,-127L-602,-120L-621,-101L-631,-83L-631,-73L-651,-61L-655,-72L-673,-85L-670,-95L-665,-115L-658,-133L-666,-150ZM-531,-198L-524,-203L-516,-202L-515,-186L-519,-171L-546,-167L-566,-154L-578,-153L-579,-163L-562,-176L-598,-173L-609,-178L-598,-209L-591,-218L-569,-207L-555,-188L-541,-186L-552,-217L-545,-229L-537,-225L-534,-209ZM-521,-116L-512,-105L-507,-80L-505,-63L-492,-51L-478,-40L-478,-30L-491,-28L-486,-20L-489,-12L-503,-15L-517,-21L-526,-20L-541,-12L-560,-9L-574,-7L-579,-17L-589,-23L-596,-21L-606,-39L-601,-41L-589,-45L-578,-44L-567,-48L-583,-54L-599,-52L-610,-52L-615,-61L-596,-71L-608,-70L-622,-77L-616,-96L-610,-106L-589,-123L-581,-117L-585,-105L-568,-113L-557,-100L-548,-113L-541,-104L-534,-79L-530,-90L-536,-117L-529,-121ZM-473,-106L-482,-124L-473,-137L-463,-131L-449,-135L-447,-127L-455,-114L-443,-102L-444,-79L-457,-70L-465,-72L-470,-81L-489,-101L-489,-110ZM-522,-131L-511,-132L-505,-126L-512,-108L-524,-127ZM-458,-227L-452,-211L-452,-194L-455,-171L-468,-168L-477,-173L-477,-191L-489,-189L-490,-214L-482,-213L-470,-224L-459,-222ZM-439,-383L-433,-398L-425,-402L-428,-413L-410,-416L-400,-389L-387,-379L-374,-370L-368,-340L-358,-326L-369,-314L-384,-283L-398,-281L-414,-286L-422,-302L-422,-317L-416,-328L-430,-328L-439,-342L-444,-362ZM-404,-450L-392,-461L-383,-463L-368,-472L-356,-494L-346,-491L-338,-474L-332,-507L-321,-518L-307,-525L-283,-527L-279,-520L-256,-532L-239,-527L-222,-523L-201,-518L-185,-510L-170,-493L-171,-477L-190,-452L-209,-441L-216,-429L-199,-429L-217,-398L-230,-384L-243,-346L-260,-339L-265,-330L-288,-325L-278,-320L-283,-313L-277,-293L-284,-280L-296,-269L-300,-254L-311,-244L-310,-236L-296,-237L-296,-229L-317,-208L-338,-218L-361,-212L-372,-216L-387,-218L-388,-235L-374,-242L-378,-269L-373,-271L-352,-255L-363,-279L-375,-287L-369,-302L-355,-312L-353,-326L-364,-343L-367,-367L-346,-365L-340,-360L-327,-377L-345,-382L-372,-379L-386,-396L-393,-416L-402,-431ZM-275,16L-280,22L-289,23L-291,13L-288,1L-281,-2L-274,4L-274,13ZM-440,-28L-436,-20L-441,-12L-451,-19L-458,-16L-468,-26L-461,-33L-456,-43L-447,-36L-443,-32ZM-191,288L-188,287L-178,290L-170,295L-170,297L-174,297L-184,294ZM-187,322L-184,327L-179,329L-171,328L-175,333L-178,334L-188,329L-190,325Z" fill="#E0E0E0" stroke="#fff" stroke-width=".4"/><path d="M1002,296L996,304L989,305L989,317L984,322L969,318L963,339L959,341L944,346L951,364L945,367L946,373L941,372L937,368L925,367L912,367L910,368L898,363L894,365L893,372L880,368L875,370L873,374L868,376L858,384L855,391L852,391L850,386L840,386L838,377L834,377L835,366L825,359L812,359L803,361L795,351L789,347L777,339L775,338L755,345L755,384L751,385L746,377L740,374L731,376L728,379L727,377L729,372L728,369L719,365L715,355L711,352L711,349L718,350L719,342L725,340L732,342L734,331L732,324L724,324L718,321L709,326L701,329L697,327L698,321L693,313L687,314L681,306L685,297L683,294L689,281L697,288L698,279L714,265L727,265L744,274L753,279L762,274L774,273L784,280L786,276L797,277L799,271L787,262L794,256L793,252L800,249L794,240L798,235L827,231L831,227L851,222L858,217L872,219L875,234L883,230L893,235L892,242L900,241L919,229L917,233L927,243L944,276L948,269L959,276L970,273L975,275L979,283L984,285L987,290L998,289Z" fill="#E0E0E0" stroke="#fff" stroke-width=".4"/><path d="M755,384L755,345L775,338L777,339L789,347L795,351L803,361L812,359L825,359L835,366L834,377L838,377L840,386L850,386L852,391L855,391L858,384L868,376L873,374L875,375L869,382L874,386L880,383L889,389L879,396L873,395L870,396L869,393L871,388L860,390L858,397L854,403L847,402L845,407L851,409L853,417L848,427L842,425L838,424L838,418L828,414L820,409L814,404L805,397L802,387L799,385L790,385L787,383L787,375L776,369L769,375L763,379L764,384Z" fill="#E0E0E0" stroke="#fff" stroke-width=".4"/><path d="M1052,-404L1069,-415L1084,-390L1102,-345L1100,-307L1083,-302L1061,-314L1048,-330L1042,-362L1032,-371ZM1123,-324L1143,-300L1141,-284L1097,-270L1111,-322L1117,-326ZM1406,-207L1427,-206L1455,-189L1449,-166L1420,-167L1407,-160L1391,-179L1396,-201ZM1480,-182L1499,-174L1490,-162L1478,-165L1463,-176L1465,-187ZM1414,-124L1421,-135L1431,-138L1442,-127L1443,-120L1432,-120L1415,-123ZM668,-383L683,-391L695,-392L697,-379L701,-391L709,-399L720,-388L717,-381L707,-374L700,-371L698,-363L689,-356L681,-366L685,-381ZM494,231L480,231L470,230L472,224L483,219L491,222L494,224L493,228ZM736,-135L755,-160L753,-174L770,-190L796,-211L822,-217L836,-230L851,-234L856,-221L851,-210L823,-194L799,-179L775,-151L763,-123L751,-98L752,-76L767,-57L763,-54L737,-58L735,-68L721,-75L720,-88L728,-94L727,-108L743,-131ZM1438,239L1441,252L1441,265L1444,277L1452,299L1440,295L1435,312L1443,324L1443,332L1437,325L1432,334L1430,324L1431,313L1430,300L1432,291L1432,275L1428,262L1428,245L1436,239L1432,232L1436,230ZM-1098,-16L-1098,-16L-1079,-0L-1058,21L-1059,33L-1054,38L-1056,23L-1034,26L-1019,45L-1027,53L-1039,55L-1040,73L-1043,77L-1050,76L-1056,70L-1067,65L-1068,57L-1076,54L-1085,56L-1090,49L-1088,42L-1097,47L-1094,56L-1098,64L-1098,64L-1098,-16ZM1729,64L1729,64L1719,72L1709,71L1716,80L1721,95L1724,99L1725,107L1723,111L1709,107L1687,120L1680,122L1668,133L1656,143L1653,150L1642,139L1622,152L1618,146L1611,153L1600,151L1597,161L1588,175L1588,181L1597,185L1596,206L1589,206L1586,218L1589,224L1575,231L1572,246L1561,249L1558,262L1547,274L1544,265L1541,246L1536,217L1540,197L1547,188L1547,182L1559,178L1573,159L1587,143L1601,130L1607,107L1598,108L1593,122L1573,140L1567,120L1546,126L1527,152L1533,162L1516,166L1504,167L1504,156L1492,154L1482,162L1458,159L1432,163L1407,192L1377,226L1389,227L1393,236L1401,239L1406,232L1414,233L1426,247L1426,258L1420,271L1419,286L1416,305L1404,322L1401,330L1390,343L1380,356L1375,362L1364,368L1359,369L1354,363L1344,371L1343,375L1343,375L1342,373L1342,367L1346,367L1347,354L1345,345L1351,341L1361,343L1366,332L1369,320L1372,315L1376,305L1363,308L1356,313L1344,313L1341,302L1332,293L1318,289L1315,277L1313,270L1310,264L1305,251L1298,246L1286,243L1276,243L1266,245L1259,252L1264,255L1264,262L1259,266L1252,279L1252,285L1241,292L1232,288L1223,289L1218,285L1214,283L1202,292L1192,294L1185,297L1175,295L1168,295L1163,289L1155,283L1147,281L1137,283L1130,285L1119,280L1117,271L1108,268L1101,266L1092,261L1084,274L1087,281L1079,290L1068,287L1060,286L1055,281L1047,280L1040,277L1028,282L1013,293L1005,295L1002,296L998,289L987,290L984,285L979,283L975,275L970,273L959,276L948,269L944,276L927,243L917,233L919,229L900,241L892,242L893,235L883,230L875,234L872,219L858,217L851,222L831,227L827,231L798,235L794,240L800,249L793,252L794,256L787,262L799,271L797,277L786,276L784,280L774,273L762,274L753,279L744,274L727,265L714,265L698,279L697,288L689,281L683,294L685,297L681,306L687,314L693,313L698,321L697,327L701,329L698,336L690,337L682,349L689,359L689,367L697,379L692,383L691,386L688,385L682,379L680,379L675,376L673,372L665,370L661,371L659,369L649,364L637,362L630,360L629,362L619,353L610,348L604,342L609,340L616,331L611,326L623,321L623,319L616,321L616,316L620,312L628,312L629,308L627,301L630,295L630,291L619,287L614,287L609,282L603,284L593,279L593,277L591,271L584,271L584,267L586,264L581,257L573,258L570,258L568,261L565,260L563,252L561,248L563,246L569,247L572,244L570,240L565,238L565,236L562,233L557,224L559,221L558,214L550,211L546,213L545,209L537,206L534,197L534,190L530,187L533,182L531,168L537,159L535,157L544,148L536,141L553,120L560,110L563,101L551,90L555,78L548,64L553,48L544,26L551,10L539,-4L540,-19L546,-21L560,-30L568,-38L581,-24L602,-19L632,6L638,15L639,29L630,39L617,44L582,29L576,32L589,46L590,55L590,74L600,80L606,84L607,76L603,68L608,61L627,72L633,68L628,54L646,35L653,36L661,43L665,30L659,18L663,5L657,-8L679,-1L683,11L673,13L673,24L680,31L692,27L694,14L710,4L737,-14L743,-13L736,-0L745,2L751,-5L766,-6L777,-15L786,-2L795,-16L787,-29L791,-36L814,-29L825,-22L854,2L859,-9L851,-20L851,-25L841,-27L844,-38L840,-56L839,-64L854,-86L859,-110L865,-115L886,-108L887,-94L880,-73L885,-65L887,-49L885,-18L894,-4L891,10L875,38L884,41L887,34L896,29L898,19L905,9L900,-3L904,-17L896,-19L894,-31L900,-54L890,-74L904,-91L902,-110L906,-110L910,-96L907,-71L915,-67L912,-85L925,-95L941,-96L956,-82L949,-103L948,-132L962,-138L980,-136L997,-140L991,-155L1000,-175L1009,-176L1024,-191L1045,-195L1048,-204L1068,-207L1075,-200L1093,-217L1107,-217L1109,-231L1117,-246L1135,-261L1149,-249L1138,-241L1156,-235L1158,-218L1165,-227L1188,-226L1206,-210L1212,-198L1210,-181L1201,-172L1181,-156L1175,-147L1185,-143L1196,-136L1203,-141L1207,-123L1211,-130L1223,-135L1248,-130L1250,-117L1283,-113L1284,-134L1300,-129L1313,-130L1326,-115L1329,-98L1324,-88L1334,-68L1347,-58L1354,-84L1367,-73L1380,-79L1395,-72L1401,-79L1414,-75L1408,-99L1419,-110L1455,-103L1490,-93L1496,-78L1517,-59L1549,-64L1564,-60L1571,-50L1570,-33L1580,-27L1590,-32L1604,-32L1619,-28L1634,-30L1647,-11L1657,-18L1651,-32L1654,-42L1679,-36L1696,-37L1718,-26L1729,-16L1729,64ZM1729,-59L1721,-58L1719,-66L1729,-76L1729,-59ZM-1098,-76L-1098,-76L-1098,-76L-1097,-77L-1090,-77L-1079,-70L-1080,-66L-1088,-61L-1098,-59L-1098,-59L-1098,-76ZM578,334L580,331L586,333L588,334L589,336L591,336L591,337L594,340L602,339L601,343L592,345L582,352L577,349L579,344L570,341L572,339L579,335Z" fill="#E0E0E0" stroke="#fff" stroke-width=".4"/><path d="M-52,-493L-25,-531L2,-528L12,-553L40,-560L72,-556L103,-551L129,-525L152,-499L137,-476L107,-473L65,-467L69,-457L97,-463L120,-444L136,-461L142,-441L134,-410L154,-430L192,-451L215,-440L220,-418L188,-382L183,-371L158,-363L176,-361L167,-329L161,-302L161,-259L170,-236L158,-234L145,-223L160,-206L162,-179L153,-176L163,-150L146,-148L155,-137L152,-127L141,-123L130,-122L140,-104L140,-93L125,-103L121,-96L131,-90L142,-75L145,-55L131,-51L125,-60L115,-74L118,-57L109,-45L129,-44L140,-43L119,-23L98,-6L75,2L66,2L58,10L47,31L30,45L25,46L14,50L3,55L-4,66L-4,79L-8,91L-21,105L-18,118L-21,131L-25,147L-36,148L-48,135L-63,135L-71,126L-76,110L-90,88L-94,77L-95,60L-106,42L-103,28L-108,21L-101,-3L-89,-11L-86,-21L-84,-38L-93,-30L-97,-27L-104,-24L-114,-31L-114,-46L-111,-59L-104,-59L-88,-53L-102,-68L-109,-77L-116,-73L-123,-79L-114,-103L-119,-113L-125,-132L-135,-162L-145,-174L-145,-187L-166,-206L-182,-208L-203,-207L-222,-205L-232,-215L-245,-237L-225,-248L-209,-250L-242,-259L-260,-274L-259,-289L-229,-308L-201,-329L-197,-344L-219,-360L-212,-379L-185,-414L-173,-419L-176,-443L-158,-458L-134,-467L-110,-467L-101,-450L-80,-481L-61,-460L-50,-455L-34,-437L-53,-467Z" fill="#E0E0E0" stroke="#fff" stroke-width=".4"/><path d="M-90,709L-95,716L-97,722L-100,725L-104,725L-105,723L-107,723L-109,725L-113,723L-111,720L-110,716L-109,713L-112,708L-112,703L-108,696L-106,697L-100,699L-91,705ZM364,293L368,296L379,298L375,306L374,315L372,317L368,316L369,319L363,325L363,330L367,329L369,334L369,337L371,341L369,344L371,353L375,354L374,359L367,365L351,362L340,366L339,372L330,373L321,369L318,371L304,366L301,362L305,355L306,333L298,321L292,315L280,311L280,302L290,300L303,303L300,289L308,294L326,285L328,275L335,272L336,277L340,277L344,282L349,288L353,287L360,292L362,293ZM384,370L389,366L391,375L388,384L384,381L383,374Z" fill="#E0E0E0" stroke="#fff" stroke-width=".4"/><path d="M596,469L595,472L592,471L590,477L592,478L590,479L590,482L594,480L594,484L590,499L589,496L585,483L587,480L586,479L589,475L590,468L591,466L591,466L594,466L595,464L597,464L597,468L596,469Z" fill="#E0E0E0" stroke="#fff" stroke-width=".4"/><path d="M597,464L595,464L594,466L591,466L594,458L598,451L598,451L602,451L603,455L599,459Z" fill="#E0E0E0" stroke="#fff" stroke-width=".4"/><path d="M594,480L590,482L590,479L592,478L590,477L592,471L595,472L595,478Z" fill="#E0E0E0" stroke="#fff" stroke-width=".4"/><path d="M390,491L387,475L382,471L382,469L375,463L375,456L380,451L381,443L380,434L382,429L390,425L396,426L396,431L402,427L403,429L399,434L399,438L401,441L400,449L395,454L397,459L401,459L403,464L406,465L405,472L402,475L399,478L394,481L395,485L394,489Z" fill="#E0E0E0" stroke="#fff" stroke-width=".4"/><path d="M247,517L248,516L247,515L247,504L260,498L268,496L274,494L277,489L287,486L287,479L291,478L295,475L305,473L307,470L305,468L302,458L301,452L299,446L306,441L315,439L320,435L327,432L340,430L353,429L357,431L365,427L373,427L376,429L382,429L380,434L381,443L380,451L375,456L375,463L382,469L382,471L387,475L390,491L393,499L393,503L392,511L392,515L391,520L392,525L389,529L393,535L394,539L397,544L400,542L406,546L410,551L383,568L360,584L349,588L340,589L340,583L337,582L332,580L330,576L303,557L277,539Z" fill="#E0E0E0" stroke="#fff" stroke-width=".4"/><path d="M595,472L596,469L605,473L620,463L623,474L622,476L606,480L614,489L611,491L610,494L604,495L602,499L599,501L590,500L590,499L594,484L594,480L595,478Z" fill="#E0E0E0" stroke="#fff" stroke-width=".4"/><path d="M692,494L694,498L693,500L696,507L690,507L688,503L681,502L687,493Z" fill="#E0E0E0" stroke="#fff" stroke-width=".4"/><path d="M623,474L620,463L638,453L641,441L640,434L644,432L648,426L652,424L661,426L663,428L667,426L672,438L677,441L678,447L674,450L672,457L678,466L687,471L691,478L690,485L693,485L693,490L697,495L692,494L687,493L681,502L667,501L645,483L633,477Z" fill="#E0E0E0" stroke="#fff" stroke-width=".4"/><path d="M1080,510L1081,513L1078,515L1078,520L1073,519L1063,525L1063,530L1059,537L1058,541L1055,548L1049,546L1048,555L1046,558L1047,562L1043,564L1039,550L1037,550L1036,556L1032,551L1034,546L1037,546L1041,539L1037,537L1029,537L1022,536L1021,530L1017,529L1011,526L1008,532L1014,536L1009,539L1007,543L1012,545L1011,550L1014,557L1015,564L1014,567L1008,567L999,568L999,575L995,580L984,585L975,595L969,600L961,606L961,609L957,611L950,614L946,615L944,621L946,631L946,638L943,646L943,659L939,660L935,666L938,669L930,671L928,676L925,678L917,671L914,660L910,652L908,648L904,640L902,630L900,625L893,614L890,598L887,587L888,577L886,569L875,574L869,574L859,563L863,560L860,557L851,550L856,544L874,544L872,536L868,532L867,525L862,521L870,512L879,513L888,503L892,494L900,485L900,479L907,473L900,469L898,462L895,454L899,450L911,452L919,451L927,443L935,454L935,462L938,466L937,471L932,470L934,480L942,486L953,492L948,496L945,505L952,508L960,513L970,518L981,519L985,523L991,524L1001,526L1007,526L1008,523L1007,517L1008,513L1012,511L1013,518L1013,520L1020,523L1025,522L1032,523L1038,522L1039,517L1036,514L1042,513L1049,506L1058,501L1065,503L1070,499L1074,505L1072,508Z" fill="#E0E0E0" stroke="#fff" stroke-width=".4"/><path d="M1008,513L1007,517L1008,523L1007,526L1001,526L991,524L985,523L981,519L970,518L960,513L952,508L945,505L948,496L953,492L956,490L962,493L970,499L975,500L977,504L983,506L990,510L999,512Z" fill="#E0E0E0" stroke="#fff" stroke-width=".4"/><path d="M927,443L919,451L911,452L899,450L895,454L898,462L900,469L907,473L900,479L900,485L892,494L888,503L879,513L870,512L862,521L867,525L868,532L872,536L874,544L856,544L851,550L845,547L843,541L837,535L822,536L810,536L799,538L802,528L813,523L812,519L808,517L808,510L801,506L798,500L794,496L807,500L815,499L819,500L821,498L826,499L837,495L837,487L841,482L847,482L848,480L854,478L857,479L860,477L860,471L863,465L868,463L865,457L872,457L874,454L874,450L878,446L877,441L875,437L880,433L888,431L897,430L901,428L906,427L912,431L914,439Z" fill="#E0E0E0" stroke="#fff" stroke-width=".4"/><path d="M838,424L842,425L848,427L851,428L856,425L859,427L862,422L866,422L867,421L868,417L872,413L876,416L875,419L877,419L877,427L880,431L883,429L886,428L891,423L896,424L904,424L906,427L901,428L897,430L888,431L880,433L875,437L877,441L878,446L874,450L874,454L872,457L865,457L868,463L863,465L860,471L860,477L857,479L854,478L848,480L847,482L841,482L837,487L837,495L826,499L821,498L819,500L815,499L807,500L794,496L801,487L800,481L794,480L794,474L791,467L794,461L791,460L793,453L796,441L804,445L810,444L812,439L818,438L823,435L824,427L831,425L832,421L836,424Z" fill="#E0E0E0" stroke="#fff" stroke-width=".4"/><path d="M848,427L853,417L851,409L845,407L847,402L854,403L858,397L860,390L871,388L869,393L870,396L873,395L870,399L862,397L861,403L870,402L879,405L894,404L896,413L899,412L904,414L903,418L904,424L896,424L891,423L886,428L883,429L880,431L877,427L877,419L875,419L876,416L872,413L868,417L867,421L866,422L862,422L859,427L856,425L851,428Z" fill="#E0E0E0" stroke="#fff" stroke-width=".4"/><path d="M873,374L875,370L880,368L893,372L894,365L898,363L910,368L912,367L925,367L937,368L941,372L946,373L945,376L932,382L930,386L920,387L917,394L908,392L903,394L895,399L896,401L894,404L879,405L870,402L861,403L862,397L870,399L873,395L879,396L889,389L880,383L874,386L869,382L875,375Z" fill="#E0E0E0" stroke="#fff" stroke-width=".4"/><path d="M728,379L731,376L740,374L746,377L751,385L755,384L764,384L763,379L769,375L776,369L787,375L787,383L790,385L799,385L802,387L805,397L814,404L820,409L828,414L838,418L838,424L836,424L832,421L831,425L824,427L823,435L818,438L812,439L810,444L804,445L796,441L796,433L790,433L781,424L775,423L766,418L760,417L757,419L752,418L746,424L739,426L738,419L739,409L733,405L735,398L729,398L731,389L739,391L745,388L740,382L737,376L731,378L730,386Z" fill="#E0E0E0" stroke="#fff" stroke-width=".4"/><path d="M697,495L693,490L693,485L690,485L691,478L687,471L678,466L672,457L674,450L678,447L677,441L672,438L667,426L663,418L664,415L662,404L667,401L669,405L673,409L678,411L681,410L690,403L693,402L695,405L693,410L698,415L699,415L702,422L709,424L715,429L726,431L738,428L739,426L746,424L752,418L757,419L760,417L766,418L775,423L781,424L790,433L796,433L796,441L793,453L791,460L794,461L791,467L794,474L794,480L800,481L801,487L794,496L798,500L801,506L808,510L808,517L812,519L813,523L802,528L799,538L784,535L775,533L766,532L763,521L759,520L753,521L745,525L736,523L728,516L720,513L715,505L709,493L705,494L700,491Z" fill="#E0E0E0" stroke="#fff" stroke-width=".4"/><path d="M596,469L596,469L597,468L597,464L599,459L603,455L602,451L598,451L598,443L599,440L602,437L604,435L604,430L607,432L615,429L620,431L626,431L635,427L639,427L648,426L644,432L640,434L641,441L638,453L620,463L605,473Z" fill="#E0E0E0" stroke="#fff" stroke-width=".4"/><path d="M681,410L678,411L675,405L675,403L671,403L669,401L667,401L664,398L658,395L659,390L658,387L669,385L670,388L673,390L672,392L676,396L674,399L677,402L681,403Z" fill="#E0E0E0" stroke="#fff" stroke-width=".4"/><path d="M402,166L406,157L412,147L415,128L410,119L409,97L414,80L422,81L425,74L422,67L434,41L442,19L447,4L455,4L457,-8L472,-4L473,-19L478,-20L488,-9L500,5L501,37L503,44L490,50L482,63L483,74L471,88L456,103L450,127L456,138L463,147L456,165L448,168L445,193L440,206L431,205L426,216L417,217L415,204L408,187Z" fill="#E0E0E0" stroke="#fff" stroke-width=".4"/><path d="M537,206L545,209L546,213L550,211L558,214L559,221L557,224L562,233L565,236L565,238L570,240L572,244L569,247L563,246L561,248L563,252L565,260L558,261L556,264L556,270L552,269L545,269L543,267L540,269L537,267L531,267L522,264L514,263L508,263L504,266L500,267L500,261L498,255L502,253L503,247L500,242L500,237L508,237L516,232L518,224L524,220L524,213L528,211Z" fill="#E0E0E0" stroke="#fff" stroke-width=".4"/><path d="M565,260L568,261L570,258L573,258L581,257L586,264L584,267L584,271L591,271L593,277L593,279L603,284L609,282L614,287L619,287L630,291L630,295L627,301L629,308L628,312L620,312L616,316L616,321L609,322L604,325L597,326L590,330L591,336L589,336L588,334L586,333L580,331L578,334L577,332L565,330L564,325L557,327L554,333L548,341L545,339L541,341L537,339L539,338L541,334L543,330L542,328L544,328L545,329L549,329L551,329L550,327L550,326L548,323L547,318L544,316L544,312L541,309L538,309L532,305L527,306L525,308L521,308L519,311L514,312L511,313L507,311L502,311L497,309L494,312L493,309L489,305L491,301L493,297L494,298L492,293L500,283L503,281L504,278L500,267L504,266L508,263L514,263L522,264L531,267L537,267L540,269L543,267L545,269L552,269L556,270L556,264L558,261Z" fill="#E0E0E0" stroke="#fff" stroke-width=".4"/><path d="M500,237L500,242L503,247L502,253L498,255L500,261L500,267L504,278L503,281L500,283L492,293L494,298L493,297L485,293L480,295L476,293L471,296L467,292L464,293L464,293L460,287L454,286L453,282L448,281L447,284L443,281L443,278L437,277L434,273L430,265L431,260L429,253L426,249L428,245L426,239L432,235L444,228L454,224L462,226L462,229L470,230L480,231L494,231L498,232Z" fill="#E0E0E0" stroke="#fff" stroke-width=".4"/><path d="M449,309L448,314L444,314L445,316L443,324L441,326L434,326L430,328L424,328L413,325L411,321L403,323L402,325L398,323L394,323L390,321L391,318L391,316L393,315L397,318L398,315L405,316L411,314L415,314L417,317L418,315L417,307L420,305L422,300L428,304L433,299L435,298L441,302L445,301L449,303L448,305Z" fill="#E0E0E0" stroke="#fff" stroke-width=".4"/><path d="M489,305L493,309L494,312L489,314L485,322L481,330L474,332L469,331L463,334L461,336L454,334L448,329L446,328L444,324L443,324L445,316L444,314L448,314L449,309L453,312L456,313L462,312L463,309L466,309L470,307L471,308L475,306L476,304L479,303L487,307Z" fill="#E0E0E0" stroke="#fff" stroke-width=".4"/><path d="M525,308L527,306L532,305L538,309L541,309L544,312L544,316L547,318L548,323L550,326L550,327L551,329L549,329L545,329L544,328L542,328L543,330L541,334L539,338L537,339L536,334L537,329L536,324L532,317L529,312L527,309Z" fill="#E0E0E0" stroke="#fff" stroke-width=".4"/><path d="M537,339L541,341L545,339L548,341L548,344L544,347L542,346L540,359L535,358L530,354L520,356L516,359L505,358L499,357L496,358L494,353L492,351L494,349L492,348L490,350L485,347L484,343L480,340L479,336L474,332L481,330L485,322L489,314L494,312L497,309L502,311L507,311L511,313L514,312L519,311L521,308L525,308L527,309L529,312L532,317L536,324L537,329L536,334Z" fill="#E0E0E0" stroke="#fff" stroke-width=".4"/><path d="M524,213L524,220L518,224L516,232L508,237L500,237L498,232L494,231L493,228L494,224L491,222L483,219L481,208L490,203L503,204L511,203L512,206L516,207Z" fill="#E0E0E0" stroke="#fff" stroke-width=".4"/><path d="M530,187L534,190L534,197L537,206L528,211L524,213L516,207L512,206L511,203L503,204L490,203L481,208L481,197L485,188L492,183L499,194L505,193L507,182L513,180L517,181L523,187Z" fill="#E0E0E0" stroke="#fff" stroke-width=".4"/><path d="M535,157L537,159L531,168L533,182L530,187L523,187L517,181L513,180L507,182L507,173L505,175L500,170L499,161L509,157L519,155L527,157Z" fill="#E0E0E0" stroke="#fff" stroke-width=".4"/><path d="M426,239L428,245L426,249L429,253L431,260L430,265L434,273L430,274L428,273L426,275L420,277L417,280L412,283L413,287L414,292L418,295L422,300L420,305L417,307L418,315L417,317L415,314L411,314L405,316L398,315L397,318L393,315L391,316L383,312L381,315L374,315L375,306L379,298L368,296L364,293L365,288L363,285L364,276L363,263L367,263L369,259L371,247L370,242L371,239L378,239L379,242L385,235L383,230L383,222L388,224L394,222L394,227L402,230L401,235L409,233L414,229L423,234Z" fill="#E0E0E0" stroke="#fff" stroke-width=".4"/><path d="M494,353L496,358L499,357L505,358L516,359L520,356L530,354L535,358L540,359L536,363L533,371L535,377L529,376L521,379L521,384L513,385L508,381L502,384L496,384L495,377L491,374L493,372L492,371L493,368L496,364L492,359L492,356Z" fill="#E0E0E0" stroke="#fff" stroke-width=".4"/><path d="M522,445L521,447L510,448L510,447L500,445L502,441L506,444L512,443L518,444L518,446ZM496,384L502,384L508,381L513,385L521,384L521,379L525,382L522,388L520,389L515,389L511,388L502,391L507,397L503,398L499,398L495,393L493,395L495,401L499,406L496,408L500,413L504,416L504,422L497,419L499,424L494,425L497,434L492,434L486,430L483,422L481,415L478,410L474,405L474,402L477,397L478,393L481,392L481,389L486,388L489,386L493,386L494,384Z" fill="#E0E0E0" stroke="#fff" stroke-width=".4"/><path d="M667,426L663,428L661,426L652,424L648,426L639,427L635,427L626,431L620,431L615,429L607,432L604,430L604,435L602,437L599,440L597,435L600,431L595,432L588,430L583,436L571,437L565,432L556,431L554,435L549,436L541,431L533,431L528,422L522,416L526,408L521,403L530,394L542,393L545,385L560,387L570,380L579,377L592,377L605,384L617,388L626,387L633,387L642,382L650,381L658,387L659,390L658,395L664,398L667,401L662,404L664,415L663,418ZM521,379L529,376L535,377L536,381L543,384L542,387L532,388L529,391L523,396L520,392L520,389L522,388L525,382Z" fill="#E0E0E0" stroke="#fff" stroke-width=".4"/><path d="M481,389L481,392L478,393L477,397L474,402L472,401L472,399L468,395L467,390L468,383L469,380L468,378L467,375L471,370L471,372L473,371L475,374L477,375L477,379L476,382L477,387Z" fill="#E0E0E0" stroke="#fff" stroke-width=".4"/><path d="M446,328L448,329L454,334L461,336L463,334L465,339L468,342L465,346L461,344L456,344L449,342L445,342L444,345L441,342L439,347L443,352L445,355L448,359L451,362L454,366L461,370L460,372L453,368L449,364L441,361L435,353L436,352L433,348L433,344L428,342L425,347L423,343L423,339L423,339L429,339L430,338L433,339L436,340L436,336L439,335L439,331Z" fill="#E0E0E0" stroke="#fff" stroke-width=".4"/><path d="M391,316L391,318L390,321L394,323L398,323L397,328L394,330L388,328L386,333L382,333L381,332L376,335L373,336L369,334L367,329L363,330L363,325L369,319L368,316L372,317L374,315L381,315L383,312Z" fill="#E0E0E0" stroke="#fff" stroke-width=".4"/><path d="M363,285L365,288L364,293L362,293L360,292L361,285Z" fill="#E0E0E0" stroke="#fff" stroke-width=".4"/><path d="M364,276L363,285L361,285L360,292L353,287L349,288L344,282L340,277L336,277L335,272L342,270L347,271L355,268L360,274Z" fill="#E0E0E0" stroke="#fff" stroke-width=".4"/><path d="M370,242L371,247L369,259L367,263L363,263L364,276L360,274L355,268L347,271L342,270L346,266L353,247L363,242Z" fill="#E0E0E0" stroke="#fff" stroke-width=".4"/><path d="M245,378L247,376L251,374L253,379L257,379L259,378L263,378L265,384L262,386L262,395L260,396L260,401L257,402L260,408L258,414L260,417L259,420L256,424L257,427L254,430L250,428L246,429L247,422L246,415L243,415L241,411L241,404L245,400L245,396L247,390L247,386L245,382Z" fill="#E0E0E0" stroke="#fff" stroke-width=".4"/><path d="M257,427L256,424L259,420L260,417L258,414L260,408L257,402L260,401L260,396L262,395L262,386L265,384L263,378L259,378L257,379L253,379L251,374L247,376L245,378L245,371L242,366L253,358L263,360L273,360L281,362L288,362L301,362L304,366L318,371L321,369L330,373L339,372L339,378L332,385L322,387L321,391L316,397L313,405L316,411L312,415L310,422L304,424L299,431L289,431L281,431L276,435L273,438L269,438L267,434L264,429Z" fill="#E0E0E0" stroke="#fff" stroke-width=".4"/><path d="M267,237L268,247L262,258L248,266L237,264L244,250L239,237L250,226L256,220L258,227L256,235L261,234Z" fill="#E0E0E0" stroke="#fff" stroke-width=".4"/><path d="M1175,596L1169,593L1169,586L1173,582L1181,580L1186,580L1187,583L1184,587L1182,592ZM946,373L945,367L951,364L944,346L959,341L963,339L969,318L984,322L989,317L989,305L996,304L1002,296L1005,295L1007,303L1013,310L1025,314L1030,323L1027,337L1030,341L1039,343L1050,345L1059,352L1064,353L1068,363L1072,369L1081,369L1097,372L1108,370L1115,372L1127,378L1136,378L1140,381L1149,376L1162,372L1174,372L1183,368L1188,362L1194,358L1193,355L1190,351L1194,343L1199,344L1207,347L1215,341L1227,336L1232,329L1238,326L1249,324L1255,326L1256,321L1249,313L1243,310L1237,314L1229,312L1225,314L1223,309L1228,297L1232,288L1241,292L1252,285L1252,279L1259,266L1264,262L1264,255L1259,252L1266,245L1276,243L1286,243L1298,246L1305,251L1310,264L1313,270L1315,277L1318,289L1332,293L1341,302L1344,313L1356,313L1363,308L1376,305L1372,315L1369,320L1366,332L1361,343L1351,341L1345,345L1347,354L1346,367L1342,367L1342,373L1337,367L1333,373L1321,377L1323,383L1316,382L1312,379L1307,386L1298,392L1292,399L1281,402L1275,406L1266,409L1271,404L1269,400L1275,394L1271,388L1264,392L1255,399L1250,406L1243,406L1239,411L1243,418L1249,419L1249,424L1256,426L1265,419L1271,423L1277,424L1278,429L1267,431L1263,437L1255,442L1251,448L1260,454L1263,463L1268,471L1273,479L1273,485L1268,488L1270,493L1274,496L1273,503L1271,510L1267,511L1261,520L1255,532L1247,542L1237,550L1226,557L1217,558L1212,562L1209,559L1205,564L1194,568L1186,569L1183,578L1179,578L1177,572L1178,569L1168,566L1164,568L1156,566L1153,562L1154,557L1147,556L1143,553L1136,557L1128,558L1122,558L1118,560L1114,561L1115,571L1111,571L1110,569L1110,565L1104,568L1101,566L1095,563L1097,556L1092,554L1090,546L1082,548L1083,538L1091,530L1091,523L1091,516L1087,514L1085,509L1080,510L1072,508L1074,505L1070,499L1065,503L1058,501L1049,506L1042,513L1036,514L1032,512L1028,511L1023,509L1018,512L1013,518L1012,511L1008,513L999,512L990,510L983,506L977,504L975,500L970,499L962,493L956,490L953,492L942,486L934,480L932,470L937,471L938,466L935,462L935,454L927,443L914,439L912,431L906,427L904,424L903,418L904,414L899,412L896,413L894,404L896,401L895,399L903,394L908,392L917,394L920,387L930,386L932,382L945,376Z" fill="#E0E0E0" stroke="#fff" stroke-width=".4"/><path d="M398,323L402,325L403,323L411,321L413,325L424,328L423,333L425,338L419,336L412,340L413,346L412,349L414,355L422,360L426,369L435,378L441,378L443,380L440,382L447,386L453,389L460,394L461,396L459,400L455,395L448,393L445,400L450,404L449,409L446,410L442,418L439,419L439,416L440,411L442,408L439,403L437,397L433,396L431,392L426,390L423,386L417,385L411,380L403,373L398,367L396,356L392,355L385,352L382,353L377,358L374,359L375,354L371,353L369,344L371,341L369,337L369,334L373,336L376,335L381,332L382,333L386,333L388,328L394,330L397,328ZM432,417L437,416L435,424L436,427L434,432L428,428L424,427L413,422L414,417L423,418ZM384,389L388,385L393,393L392,406L388,406L385,409L382,406L381,394L380,388Z" fill="#E0E0E0" stroke="#fff" stroke-width=".4"/><path d="M394,222L388,224L383,222L379,215L379,200L380,196L383,192L390,191L392,187L399,183L398,191L396,195L397,199L401,201L399,207L397,205L391,215ZM413,206L415,213L411,225L402,217L401,211Z" fill="#E0E0E0" stroke="#fff" stroke-width=".4"/><path d="M267,237L261,234L256,235L258,227L256,220L263,219L271,228ZM291,243L291,243L292,236L287,227L287,227L278,225L276,221L279,215L276,211L272,218L271,204L267,197L270,182L276,170L283,171L292,170L284,186L292,184L300,184L298,196L291,208L299,209L300,211L307,227L312,229L317,244L319,249L329,252L328,260L324,264L327,270L320,277L309,277L296,280L292,278L287,284L280,282L274,287L270,284L282,271L289,269L289,269L276,267L274,262L282,258L278,251L280,242Z" fill="#E0E0E0" stroke="#fff" stroke-width=".4"/><path d="M202,35L200,48L209,61L198,75L176,87L169,90L159,88L137,82L145,74L127,65L141,62L141,56L125,52L130,39L142,36L154,50L166,39L176,45L189,34Z" fill="#E0E0E0" stroke="#fff" stroke-width=".4"/><path d="M680,379L682,379L688,385L691,386L692,383L697,379L701,385L705,392L709,393L711,395L705,396L704,404L702,408L699,410L699,415L698,415L693,410L695,405L693,402L690,403L681,410L681,403L677,402L674,399L676,396L672,392L673,390L670,388L669,385L671,383L677,386L681,387L682,386L678,380ZM678,411L673,409L669,405L667,401L669,401L671,403L675,403L675,405Z" fill="#E0E0E0" stroke="#fff" stroke-width=".4"/><path d="M629,362L630,360L637,362L649,364L659,369L661,371L665,370L673,372L675,376L680,379L678,380L682,386L681,387L677,386L671,383L669,385L658,387L650,381L642,382L643,377L641,370L637,366L632,365Z" fill="#E0E0E0" stroke="#fff" stroke-width=".4"/><path d="M424,328L430,328L434,326L441,326L443,324L444,324L446,328L439,331L439,335L436,336L436,340L433,339L430,338L429,339L423,339L425,338L423,333Z" fill="#E0E0E0" stroke="#fff" stroke-width=".4"/><path d="M540,-19L539,-4L551,10L544,26L553,48L548,64L555,78L551,90L563,101L560,110L553,120L536,141L522,142L508,148L495,151L491,142L483,137L485,121L481,106L485,96L492,85L510,65L515,61L514,53L503,44L501,37L500,5L488,-9L478,-20L482,-25L491,-14L501,-15L510,-10L517,-19L521,-36L533,-43L543,-34Z" fill="#E0E0E0" stroke="#fff" stroke-width=".4"/><path d="M493,297L491,301L489,305L487,307L479,303L476,304L475,306L471,308L470,307L466,309L463,309L462,312L456,313L453,312L449,309L448,305L449,303L450,301L453,301L456,300L456,299L458,298L458,295L460,295L461,293L464,293L464,293L467,292L471,296L476,293L480,295L485,293Z" fill="#E0E0E0" stroke="#fff" stroke-width=".4"/><path d="M434,273L437,277L443,278L443,281L447,284L448,281L453,282L454,286L460,287L464,293L461,293L460,295L458,295L458,298L456,299L456,300L453,301L450,301L449,303L445,301L441,302L435,298L433,299L428,304L422,300L418,295L414,292L413,287L412,283L417,280L420,277L426,275L428,273L430,274Z" fill="#E0E0E0" stroke="#fff" stroke-width=".4"/><path d="M590,500L599,501L602,499L604,495L610,494L611,491L614,489L606,480L622,476L623,474L633,477L645,483L667,501L681,502L688,503L690,507L696,507L699,515L703,517L704,520L709,524L710,527L709,530L710,533L712,535L713,538L715,540L717,542L719,542L721,545L721,547L724,556L748,560L749,558L753,564L748,581L724,589L701,592L694,596L688,605L685,606L683,603L680,604L672,603L671,602L662,602L660,603L656,601L654,605L655,608L652,611L651,608L648,605L648,602L644,599L639,592L637,585L632,579L628,578L623,570L622,564L622,559L618,550L614,546L610,545L607,540L608,538L606,533L603,531L600,525L595,518L591,511L588,511L589,507L589,503Z" fill="#E0E0E0" stroke="#fff" stroke-width=".4"/><path d="M573,446L573,446L574,444L580,444L587,441L582,445L582,447L582,447L580,447L579,447L578,447L578,446L578,446L576,446L574,447Z" fill="#E0E0E0" stroke="#fff" stroke-width=".4"/><path d="M573,446L574,447L576,446L578,446L578,446L578,447L579,447L580,447L582,447L582,447L583,448L575,452L571,450L569,446Z" fill="#E0E0E0" stroke="#fff" stroke-width=".4"/><path d="M299,446L301,452L302,458L305,468L307,470L305,473L295,475L291,478L287,479L287,486L277,489L274,494L268,496L260,498L247,504L247,515L246,515L247,520L242,520L239,522L236,522L233,521L226,522L224,529L221,529L217,540L206,550L204,561L201,565L200,568L182,569L182,569L182,565L185,563L188,558L187,555L190,549L194,544L197,542L199,537L199,533L202,527L207,524L212,515L213,515L216,512L224,511L230,505L234,502L240,495L238,483L241,475L243,470L248,464L255,460L261,456L267,446L269,440L275,440L280,444L287,444L295,446Z" fill="#E0E0E0" stroke="#fff" stroke-width=".4"/><path d="M605,564L574,564L544,564L512,564L512,532L512,501L510,494L512,488L510,484L513,480L524,480L531,482L539,485L543,486L549,483L552,481L559,480L564,481L567,486L568,483L575,485L581,485L585,483L589,496L590,499L588,502L586,509L584,514L582,515L579,512L576,508L570,495L569,496L573,506L577,515L583,528L586,533L589,538L596,548L594,549L595,555L604,562Z" fill="#E0E0E0" stroke="#fff" stroke-width=".4"/><path d="M512,564L512,581L503,581L503,584L471,568L440,552L432,557L427,560L422,555L410,551L406,546L400,542L397,544L394,539L393,535L389,529L392,525L391,520L392,515L392,511L393,503L393,499L390,491L394,489L395,485L394,481L399,478L402,475L405,472L406,465L415,468L418,468L425,469L435,473L439,481L446,483L457,487L465,492L469,489L473,485L471,478L474,473L479,469L485,468L495,470L498,474L501,474L503,476L511,477L513,480L510,484L512,488L510,494L512,501L512,532Z" fill="#E0E0E0" stroke="#fff" stroke-width=".4"/><path d="M461,370L454,366L451,362L448,359L445,355L443,352L439,347L441,342L444,345L445,342L449,342L456,344L461,344L465,346L468,346L466,351L470,355L468,360L467,361L465,362L462,364Z" fill="#E0E0E0" stroke="#fff" stroke-width=".4"/><path d="M491,374L495,377L496,384L494,384L493,386L489,386L486,388L481,389L477,387L476,382L477,379L478,379L479,377L483,375L485,374L488,374Z" fill="#E0E0E0" stroke="#fff" stroke-width=".4"/><path d="M463,334L469,331L474,332L479,336L480,340L484,343L485,347L490,350L492,348L494,349L492,351L494,353L492,356L492,359L496,364L493,368L492,371L493,372L491,374L488,374L485,374L485,374L486,372L487,370L485,370L484,368L483,367L482,366L480,365L479,364L478,364L477,368L475,368L475,368L472,365L470,364L469,363L467,361L468,360L470,355L466,351L468,346L465,346L468,342L465,339Z" fill="#E0E0E0" stroke="#fff" stroke-width=".4"/><path d="M473,371L471,372L471,370L467,375L468,378L466,378L464,374L460,372L461,370L462,364L465,362L467,361L469,363L470,364L472,365L475,368L475,368Z" fill="#E0E0E0" stroke="#fff" stroke-width=".4"/><path d="M477,379L477,375L475,374L473,371L475,368L477,368L478,364L479,364L480,365L482,366L483,367L484,368L485,370L487,370L486,372L485,374L485,374L483,375L479,377L478,379Z" fill="#E0E0E0" stroke="#fff" stroke-width=".4"/></g><g clip-path="url(#v)"><path d="M477.5,-18.1L476.5,-18.0L473.6,-17.7L474.9,-15.8L475.3,-15.1L475.4,-14.0L475.2,-11.9L474.5,-10.2L473.8,-8.8L472.4,-7.3L474.5,-6.0L473.1,-4.1L472.4,-3.4L471.6,-3.5L470.2,-4.1L466.8,-5.7L465.2,-6.3L463.8,-6.5L463.0,-6.4L459.9,-7.8L459.3,-7.6L458.2,-7.0L458.1,-5.8L458.2,-2.6L458.3,-0.1L457.9,1.3L457.5,2.3L456.3,4.9L453.5,3.1L451.6,2.0L450.4,3.5L447.4,6.3L445.8,11.9L445.7,12.1L444.8,13.4L443.6,14.1L442.8,14.4L442.2,16.1L443.4,18.4L444.1,19.6L444.7,21.6L444.5,22.8L444.4,23.6L443.1,25.2L440.3,29.3L437.8,33.6L436.7,34.8L437.2,38.4L436.3,39.5L434.6,40.7L433.7,41.1L432.7,41.4L429.8,41.9L430.3,45.7L430.5,47.3L430.5,48.3L430.2,49.3L429.8,51.2L429.3,57.7L428.9,58.4L428.3,60.1L426.4,64.3L424.9,67.1L422.8,71.0L424.5,72.3L426.1,73.2L426.5,74.6L426.7,76.9L426.6,78.4L426.0,79.8L425.5,80.8L425.2,81.3L422.9,80.8L420.0,80.2L419.3,80.2L417.6,80.7L416.0,81.6L415.2,82.3L415.0,82.6L414.0,84.3L412.2,87.4L411.2,88.8L411.5,90.6L409.8,94.1L410.9,97.6L411.0,97.7L411.5,99.2L410.9,100.1L410.7,100.5L410.8,102.2L410.9,104.0L410.8,105.0L410.7,106.2L412.2,111.4L412.2,112.6L412.1,113.4L411.7,116.5L411.0,120.8L412.1,121.9L413.6,123.3L414.5,123.8L415.8,125.4L416.7,126.9L416.6,127.9L416.3,129.0L415.9,129.8L415.5,130.9L415.4,131.7L415.2,131.9L413.5,132.0L412.6,132.3L412.1,132.6L412.3,134.4L413.3,137.6L414.2,139.9L414.4,141.5L414.1,143.0L413.9,143.8L413.9,144.8L413.6,146.9L413.0,148.0L412.1,149.1L411.2,149.9L410.4,150.2L409.7,150.3L409.3,150.7L408.9,152.0L408.5,153.3L407.3,155.0L407.3,155.5L407.8,157.5L408.2,159.6L407.9,161.6L407.6,163.8L407.0,165.2L406.2,165.7L405.7,165.4L405.0,163.5L405.0,163.1L404.8,162.5L403.0,161.9L402.7,161.9L402.0,161.6L401.5,161.5L400.7,161.2L400.0,159.5L399.2,158.1L399.1,157.5L399.1,154.8L398.9,153.6L398.8,152.3L398.3,153.3L398.6,155.0L398.0,155.7L397.2,156.1L397.3,157.1L397.6,157.3L397.7,158.3L397.5,159.8L396.0,163.1L395.7,163.5L395.5,163.9L394.8,163.6L393.8,164.6L392.9,164.7L392.5,163.7L391.2,162.3L390.6,162.3L391.2,163.0L391.7,163.9L391.4,164.5L391.1,164.9L390.6,165.1L388.7,166.3L389.4,167.0L388.8,167.9L388.1,168.0L387.8,168.4L387.7,169.0L385.7,170.6L382.5,174.6L380.8,175.8L379.7,176.9L378.7,176.9L377.4,177.9L374.2,178.8L372.1,178.4L370.6,178.7L369.8,178.1L369.7,177.6L369.7,177.3L369.9,177.0L369.6,176.8L369.0,176.8L368.7,177.1L368.7,177.9L368.4,178.1L367.3,177.6L367.0,177.3L367.4,176.5L368.1,175.8L368.0,175.6L367.9,175.2L367.6,175.1L366.6,175.2L365.7,175.1L363.1,173.5L362.5,172.6L360.4,171.3L359.4,169.8L358.9,168.2L359.0,166.8L359.2,164.5L359.6,163.9L361.6,164.7L363.5,166.0L363.8,166.0L364.4,164.9L365.5,164.1L365.2,163.8L363.5,164.8L362.8,164.2L361.8,163.1L361.8,162.6L362.3,162.0L362.4,161.2L362.2,160.5L362.3,159.5L363.1,158.4L364.2,157.3L365.1,156.3L366.0,155.7L365.9,155.4L364.9,155.8L363.9,156.5L362.8,157.7L361.5,158.7L360.5,159.0L360.0,159.3L359.3,159.6L358.5,161.0L357.7,161.5L356.2,161.6L355.9,160.6L356.3,157.1L356.8,155.4L357.2,154.2L358.0,154.0L358.6,153.1L359.0,153.1L359.4,153.5L360.9,153.9L361.6,152.7L362.6,152.6L364.4,151.4L364.4,151.2L363.2,151.5L362.4,151.5L361.4,151.8L360.8,151.6L360.6,150.7L361.0,149.9L362.7,148.1L363.3,147.3L363.6,146.5L363.5,146.0L363.8,144.9L365.4,143.0L366.8,142.1L367.2,142.9L366.8,145.2L366.8,146.2L367.9,142.8L368.3,142.0L368.9,141.4L370.2,141.0L370.5,140.5L369.0,140.7L365.4,142.0L363.9,143.1L363.5,144.0L362.4,145.4L362.0,146.2L361.7,147.5L361.1,148.2L360.3,148.4L359.2,150.0L358.7,151.3L357.6,152.3L356.9,153.1L356.7,153.4L356.3,154.2L356.0,154.2L355.7,153.8L355.7,152.8L355.8,151.2L356.3,150.1L356.6,148.9L356.2,147.9L356.5,147.2L356.9,147.2L357.8,147.5L358.7,147.5L360.3,146.6L360.0,146.2L359.4,146.1L358.1,146.2L357.1,145.4L356.3,143.7L355.9,141.6L356.2,140.9L359.1,138.7L359.9,137.7L359.5,137.6L358.4,138.8L356.8,139.6L355.8,138.5L355.2,137.4L354.9,134.9L355.0,133.7L354.9,132.0L355.6,131.5L356.4,131.8L357.1,131.9L358.8,131.7L362.6,130.7L365.0,131.3L366.0,131.3L367.5,130.4L368.8,130.3L369.8,131.0L370.3,131.7L370.4,132.7L370.9,133.4L371.2,133.2L370.9,132.4L370.9,131.2L374.8,129.8L375.3,129.2L373.7,129.0L373.3,127.7L374.1,125.8L374.0,125.6L373.2,126.6L372.7,128.0L372.9,129.2L372.7,129.7L371.9,130.0L370.1,130.0L368.9,129.6L367.9,129.3L367.5,128.9L367.6,128.1L367.4,127.9L367.0,128.7L366.6,130.1L365.7,130.5L363.3,129.9L359.9,130.2L358.4,131.0L357.4,130.9L355.7,129.6L355.0,128.6L354.8,126.5L354.9,125.6L356.2,125.2L356.9,125.2L357.5,124.7L356.9,124.4L356.2,123.8L355.6,122.5L354.8,122.1L354.3,121.0L354.1,119.4L354.3,118.2L354.7,117.8L355.8,118.1L358.5,117.9L361.1,119.1L362.8,119.7L366.4,119.4L368.4,118.3L368.1,118.1L365.8,118.7L363.7,118.6L360.1,117.5L358.6,117.1L356.9,117.2L356.1,116.9L355.6,115.7L356.0,113.5L356.7,113.0L357.1,113.6L357.7,113.6L358.2,112.7L358.6,112.1L359.0,110.9L360.5,109.8L361.1,109.7L362.0,109.2L362.5,109.3L362.9,109.9L363.3,110.3L364.3,110.2L367.2,109.3L367.6,109.0L368.1,108.3L366.3,108.6L364.8,109.2L363.8,109.3L363.6,108.7L364.0,108.0L364.6,107.4L364.8,106.3L365.5,105.8L366.1,105.9L367.6,105.7L368.5,105.4L370.2,105.6L372.8,106.0L374.4,107.0L375.0,106.9L375.7,106.6L376.0,106.3L374.7,105.9L374.6,105.3L374.8,104.8L376.9,104.0L379.1,103.8L378.7,103.1L373.7,104.1L372.4,103.4L371.4,103.4L370.7,103.8L368.8,104.3L368.5,104.0L368.8,102.8L370.0,100.8L370.1,100.4L370.6,99.9L373.6,98.8L375.0,97.4L375.7,97.3L376.3,97.4L377.3,97.2L379.2,97.6L380.1,99.3L380.8,99.8L383.3,101.8L383.2,101.2L381.1,98.4L380.2,97.7L379.7,96.4L379.9,95.1L380.5,94.2L383.0,93.7L383.4,93.2L383.4,92.3L383.1,91.7L382.2,91.8L381.4,91.4L381.2,90.5L381.5,89.8L382.9,88.7L383.7,88.3L385.0,87.9L387.3,88.8L387.5,89.3L386.9,90.4L386.9,91.1L387.5,91.2L388.8,89.2L390.3,88.9L391.0,88.5L391.7,88.2L392.8,90.0L393.3,90.6L393.6,90.8L393.9,92.3L394.3,92.4L394.8,91.6L395.6,91.2L396.8,91.0L398.7,91.4L399.6,91.1L400.1,91.1L399.7,89.8L399.4,89.4L399.8,88.2L400.2,87.8L401.6,86.9L402.9,86.6L403.7,85.8L404.9,85.0L404.7,84.5L404.4,83.8L403.6,83.7L403.3,83.4L404.3,82.5L405.6,81.5L405.3,81.1L404.4,80.7L403.6,81.0L402.6,81.8L401.3,83.0L401.7,83.3L402.3,84.3L401.5,85.6L396.8,89.2L394.6,90.2L393.5,90.1L393.3,89.1L392.8,88.4L392.3,86.9L391.4,86.9L390.9,87.3L390.7,86.8L391.1,85.2L391.8,84.0L393.1,83.0L393.6,81.9L394.2,80.1L396.0,78.3L398.5,74.0L400.7,72.6L401.4,71.1L402.7,70.4L403.7,69.2L404.6,69.1L406.1,68.0L406.9,66.8L406.4,66.7L405.0,67.5L404.3,67.8L404.3,66.5L404.7,65.1L405.8,63.8L411.1,60.0L411.6,60.6L412.2,61.7L413.8,61.5L415.6,59.3L417.0,57.0L416.3,57.4L415.4,58.4L413.8,59.7L413.1,59.9L412.7,59.7L412.5,58.8L411.9,58.5L411.4,58.7L410.9,58.1L410.8,56.5L411.4,54.2L412.0,52.6L412.5,51.5L414.7,48.1L415.2,46.2L416.2,45.3L417.5,45.5L417.9,45.2L417.5,44.0L416.1,43.0L416.0,42.4L420.7,40.8L423.0,40.9L423.6,40.1L424.9,39.6L425.8,38.6L425.3,38.2L423.0,39.0L421.6,39.5L420.9,39.5L420.4,39.8L418.6,39.9L418.2,36.0L418.5,33.8L419.2,33.9L419.3,31.8L420.1,30.6L421.2,30.4L421.8,29.8L422.5,28.8L423.8,29.0L425.2,28.8L424.9,28.3L423.2,27.6L422.8,26.5L423.4,25.9L424.0,25.5L424.6,25.4L425.7,23.2L426.4,22.3L427.1,22.4L428.2,21.5L429.2,21.8L430.2,21.2L431.6,20.8L436.7,20.6L436.8,19.7L435.7,19.5L432.0,19.2L430.1,19.3L429.3,19.5L429.0,19.2L429.1,18.6L429.7,17.8L430.1,16.9L431.5,14.6L433.1,13.0L434.3,13.4L435.6,14.9L436.6,15.1L437.0,15.5L437.7,17.5L438.0,17.6L437.9,15.7L438.8,14.1L438.6,13.6L437.2,14.2L436.1,13.6L435.3,12.4L435.1,11.3L435.6,10.2L436.1,9.7L435.8,9.0L433.7,10.8L432.2,11.2L431.7,10.9L432.0,9.4L431.8,8.1L433.8,5.1L434.4,4.7L435.5,4.9L436.5,5.8L437.4,5.7L438.3,5.2L438.1,4.4L436.2,4.1L435.7,3.4L435.9,2.7L437.2,2.0L438.6,0.7L440.1,0.3L441.3,-0.7L441.5,-0.5L441.7,-0.1L442.2,3.6L443.3,6.5L443.7,6.6L443.3,4.1L443.7,3.4L444.1,2.8L444.3,2.2L443.8,2.0L443.3,1.1L442.6,-1.8L442.8,-2.6L444.3,-4.1L446.1,-4.4L448.0,-3.4L448.7,-3.3L449.8,-3.6L451.7,-4.5L452.9,-4.9L453.4,-4.9L453.6,-5.3L453.0,-5.6L452.9,-5.9L452.4,-6.1L450.7,-5.6L445.8,-5.7L445.4,-6.3L445.3,-7.2L445.8,-8.4L446.4,-9.2L448.2,-10.4L450.1,-10.6L452.1,-12.9L452.9,-14.6L453.4,-17.3L454.6,-19.5L457.7,-20.7L457.9,-21.3L457.5,-22.4L457.6,-24.4L458.4,-26.9L459.0,-27.7L459.2,-27.8L459.9,-27.0L460.7,-25.3L462.0,-24.4L463.7,-24.2L464.1,-24.7L462.8,-25.6L461.8,-26.9L461.8,-28.2L462.2,-28.8L463.0,-28.8L463.9,-28.9L464.7,-29.7L464.8,-30.4L464.9,-31.1L465.1,-32.0L466.3,-34.0L470.2,-35.3L470.5,-34.7L470.3,-30.9L469.8,-28.4L469.8,-26.7L470.6,-28.4L471.6,-33.4L472.3,-35.7L473.2,-37.0L473.8,-37.4L474.4,-38.0L475.2,-38.5L475.4,-37.9L475.7,-36.7L475.3,-32.4L475.3,-31.0L474.8,-29.2L473.0,-25.1L473.1,-24.6L473.5,-24.8L474.2,-25.5L476.5,-29.3L478.4,-28.8L478.5,-29.1L477.9,-30.3L477.1,-31.4L476.8,-32.7L476.9,-36.3L477.5,-37.8L479.2,-37.6L480.3,-37.8L480.8,-37.1L481.8,-37.2L482.5,-39.8L483.9,-40.0L485.1,-38.3L486.6,-37.1L487.8,-35.5L488.2,-35.9L487.5,-39.8L486.8,-41.2L485.3,-42.0L483.6,-43.8L483.2,-44.5L483.3,-45.1L484.7,-45.7L486.6,-45.0L488.3,-46.5L488.8,-46.1L490.1,-46.9L490.9,-45.9L491.4,-46.1L491.7,-47.5L493.7,-48.4L495.0,-47.6L495.8,-46.8L496.1,-45.2L496.6,-42.1L497.6,-40.4L498.2,-39.6L499.0,-39.4L499.3,-40.2L498.7,-41.2L498.5,-42.1L498.8,-44.5L499.2,-45.4L501.4,-49.0L503.3,-50.8L504.4,-51.0L506.3,-55.2L506.9,-55.9L507.4,-56.1L507.2,-57.1L506.2,-57.8L506.1,-59.1L507.5,-60.7L509.2,-63.3L510.1,-63.5L510.6,-62.7L512.3,-61.5L513.3,-60.2L514.0,-59.5L514.5,-59.6L514.9,-60.7L515.3,-61.1L516.4,-60.9L517.0,-60.2L517.5,-60.1L517.9,-59.7L518.1,-58.9L517.2,-57.9L515.6,-55.4L514.1,-52.6L513.6,-51.1L513.1,-47.2L511.9,-44.8L511.8,-43.0L512.3,-42.2L513.6,-42.9L515.2,-45.2L515.6,-47.6L519.7,-54.3L521.6,-58.0L523.7,-61.2L525.0,-61.8L525.6,-59.7L525.1,-57.0L524.2,-55.4L524.8,-54.6L524.7,-52.5L524.5,-51.4L524.4,-50.3L524.4,-49.2L525.0,-49.5L527.5,-51.6L528.2,-53.9L528.8,-55.6L529.1,-57.1L530.0,-58.5L531.9,-58.5L532.0,-59.1L529.7,-61.1L529.5,-62.0L530.2,-63.2L532.3,-65.5L533.4,-65.2L534.0,-64.7L536.6,-64.3L538.6,-62.7L538.5,-60.1L538.0,-59.0L537.6,-58.4L535.1,-56.5L534.7,-55.6L535.5,-55.2L537.2,-56.2L537.6,-55.3L537.1,-53.1L537.0,-49.9L536.8,-48.1L536.8,-46.4L537.0,-45.4L537.7,-49.1L537.9,-50.0L538.9,-51.4L539.3,-54.2L540.3,-57.5L541.4,-59.4L542.0,-60.0L544.1,-59.9L545.1,-59.2L545.9,-57.5L546.4,-56.9L548.3,-56.2L549.0,-55.3L549.1,-54.8L549.6,-54.7L550.9,-55.9L551.7,-56.1L553.1,-54.2L552.8,-52.8L552.9,-52.4L554.5,-52.4L555.9,-51.9L558.5,-49.0L558.7,-47.7L558.6,-46.1L554.9,-44.3L553.3,-42.6L550.6,-42.0L541.6,-43.1L541.8,-41.8L548.1,-39.2L548.4,-38.4L548.2,-36.9L548.2,-35.5L548.3,-34.7L548.8,-33.9L549.6,-33.5L551.1,-33.7L551.9,-33.3L552.4,-33.9L552.6,-36.1L553.1,-36.6L553.9,-35.9L554.3,-33.6L554.6,-33.4L555.0,-35.0L555.9,-34.9L556.8,-35.0L558.0,-34.8L558.4,-31.8L558.4,-30.7L558.2,-29.7L558.0,-29.2L557.4,-29.0L556.0,-29.1L554.2,-30.3L553.0,-31.4L552.6,-31.4L552.4,-31.3L552.7,-30.2L552.7,-29.3L552.5,-28.4L552.2,-27.6L551.9,-26.9L551.1,-26.0L549.9,-25.3L546.4,-23.9L546.1,-23.3L545.0,-19.4L544.7,-18.8L544.3,-18.4L543.1,-17.8L542.5,-18.6L542.0,-19.9L542.1,-21.2L543.5,-23.6L544.8,-25.4L545.2,-26.0L546.0,-27.8L544.4,-32.2L541.8,-33.6L538.7,-35.7L537.6,-36.8L535.8,-39.1L534.6,-41.1L533.5,-41.2L532.3,-40.7L530.4,-38.8L529.3,-37.8L528.6,-37.6L528.5,-37.5L527.1,-38.1L525.6,-38.2L524.4,-38.0L523.9,-37.8L522.2,-34.8L521.0,-33.2L520.3,-32.7L519.9,-31.8L519.5,-30.4L518.6,-25.4L517.9,-23.5L517.8,-22.4L517.9,-19.0L517.8,-17.1L517.0,-15.5L516.4,-14.8L515.7,-14.7L514.7,-14.3L513.9,-13.4L513.3,-12.2L512.6,-9.4L511.5,-8.5L510.4,-8.7L509.6,-9.7L507.9,-10.5L506.7,-11.0L505.3,-12.1L504.0,-12.9L502.9,-13.0L502.3,-12.0L501.8,-11.0L499.9,-10.3L498.7,-9.7L497.3,-9.5L496.8,-10.2L494.7,-10.7L492.3,-11.2L491.6,-11.2L491.4,-12.4L490.7,-14.1L489.0,-17.1L488.3,-18.2L486.9,-20.7L485.4,-23.3L485.2,-23.3L484.1,-23.4L482.6,-23.3L481.6,-22.8L481.0,-22.0L480.9,-21.4L481.5,-19.1L481.3,-18.5L481.0,-18.2L479.6,-18.8L478.0,-18.8ZM354.5,131.3L353.8,131.5L353.3,131.3L353.5,129.8L353.8,129.5L354.2,129.4L354.6,130.2ZM355.5,143.7L355.5,145.6L354.8,145.5L354.5,144.8L354.4,144.3L354.5,143.2L354.3,142.1L354.5,141.5L354.8,141.4L355.2,142.4ZM550.9,-35.1L549.4,-34.4L549.2,-35.0L549.5,-35.8L549.9,-37.6L550.5,-37.5L551.1,-36.8L551.6,-36.0ZM409.6,51.5L409.1,52.1L408.1,52.0L408.0,51.5L408.2,50.4L408.8,50.0L409.6,50.1L409.9,50.5ZM382.1,87.5L381.2,87.5L380.6,87.1L381.9,86.4L384.0,85.6L384.1,85.1L384.4,85.1L384.7,85.6L384.8,86.4L384.6,86.8ZM379.2,93.3L378.4,93.3L377.5,93.0L376.9,92.4L376.9,92.0L377.9,91.3L379.0,91.0L379.5,91.7L379.5,92.8ZM499.7,-58.8L499.5,-58.1L499.3,-57.3L498.6,-56.6L496.7,-53.5L495.7,-53.1L495.3,-52.6L494.9,-52.3L493.5,-52.7L493.1,-52.1L492.7,-51.7L491.8,-51.5L491.2,-51.7L489.7,-52.8L488.8,-54.0L488.3,-55.1L489.7,-55.0L490.2,-55.3L491.1,-55.1L491.6,-56.1L492.8,-56.0L495.1,-56.8L495.9,-56.3L497.8,-58.8L498.4,-58.7L499.3,-59.4ZM516.5,-66.7L518.6,-65.8L519.3,-65.8L520.4,-64.0L520.9,-64.2L520.8,-63.2L519.8,-62.7L518.1,-62.4L517.9,-62.2L516.5,-62.3L515.7,-63.7L514.4,-64.1L514.4,-64.5L515.2,-65.6ZM501.0,-52.5L501.2,-51.4L501.2,-50.5L500.5,-49.2L498.8,-47.5L498.9,-47.0L498.4,-46.6L497.5,-46.3L497.0,-46.6L497.1,-48.0L496.9,-48.5L496.3,-47.9L495.6,-48.6L495.6,-49.4L495.8,-50.0L496.4,-51.0L497.4,-51.7L498.2,-51.5L500.5,-54.1L500.8,-53.5ZM504.2,-52.9L502.7,-52.0L501.8,-52.8L501.5,-53.6L501.4,-55.5L501.6,-56.6L502.3,-57.2L502.8,-56.8L502.9,-56.4L503.7,-56.1L504.7,-54.9ZM424.5,-1.5L425.0,-1.1L426.2,-1.2L426.4,-1.0L426.3,-0.5L425.7,0.2L424.6,0.6L424.1,1.6L423.8,1.9L422.8,2.0L422.3,2.2L421.6,3.1L421.0,2.4L420.9,2.9L420.7,3.7L420.4,3.9L419.5,4.3L419.2,2.3L419.7,1.6L420.0,0.8L420.6,0.6L421.0,0.7L421.9,-1.1L423.1,-1.6L423.8,-1.7ZM417.5,6.8L416.3,7.9L416.7,5.9L417.3,3.8L418.2,2.7L418.6,3.1L418.4,4.1L418.4,5.1L418.2,5.5ZM435.0,-16.0L436.0,-13.8L436.5,-12.6L436.1,-10.1L435.1,-8.9L433.6,-8.7L432.5,-8.8L431.8,-9.4L431.8,-10.1L431.4,-10.3L430.3,-9.4L429.6,-9.3L428.7,-10.0L428.5,-11.0L429.4,-12.3L429.9,-13.3L430.9,-13.2L431.2,-12.9L431.8,-12.7L432.2,-13.9L432.1,-14.8L432.4,-15.4L433.7,-15.0L433.7,-17.3L434.2,-17.5L434.4,-17.4L434.8,-16.9ZM470.8,-44.7L471.2,-44.4L471.6,-44.6L471.9,-44.4L472.6,-43.2L473.3,-42.7L473.4,-42.1L472.7,-41.5L471.8,-41.3L470.9,-41.5L470.7,-42.3L470.4,-43.5L469.6,-44.8L469.5,-45.9L470.2,-46.1ZM478.8,-41.8L478.3,-41.2L477.7,-41.0L477.3,-41.3L476.9,-41.6L476.3,-41.5L475.8,-42.5L475.9,-43.3L476.5,-44.4L477.8,-45.0L478.8,-44.8L479.1,-44.4ZM466.8,-41.2L467.5,-40.0L468.1,-40.1L468.3,-40.6L468.7,-40.8L469.6,-40.2L469.5,-39.0L468.3,-37.6L467.4,-35.6L466.3,-35.1L465.8,-35.4L464.8,-34.2L464.1,-33.0L463.3,-31.5L463.2,-30.7L463.1,-30.2L460.2,-29.6L459.1,-29.2L458.0,-29.7L457.4,-30.7L457.6,-31.2L458.7,-31.4L458.8,-32.4L459.0,-32.9L459.4,-33.2L459.7,-34.4L460.1,-34.7L461.0,-34.4L461.5,-35.3L461.8,-35.4L462.2,-34.7L462.4,-35.7L462.2,-36.6L462.3,-37.2L463.4,-38.8L463.9,-40.0L464.6,-40.7L465.2,-40.6L465.4,-41.7L465.2,-42.8L465.3,-43.6L465.8,-45.4L466.5,-45.4L466.8,-43.8ZM413.8,46.2L413.2,46.3L413.2,45.5L413.6,44.8L414.1,44.3L414.9,44.2L415.7,44.1L415.9,44.5L415.4,45.1ZM413.1,43.5L412.4,43.7L412.5,42.8L413.1,42.0L413.3,41.4L413.4,40.8L414.0,40.3L414.7,40.9L414.7,42.0L414.3,43.0ZM403.8,65.8L403.4,66.3L402.4,65.9L400.7,66.2L399.9,65.7L400.5,64.7L402.1,63.7L403.0,63.8L403.9,65.0ZM453.0,-30.6L454.0,-29.3L454.4,-29.7L455.2,-29.8L455.9,-29.3L456.4,-28.5L457.0,-28.5L457.4,-27.4L457.6,-26.0L457.1,-25.0L456.5,-24.5L456.3,-23.3L456.6,-21.6L455.2,-21.1L453.5,-20.8L452.9,-21.6L451.6,-20.1L450.3,-17.9L449.7,-17.6L449.7,-18.3L448.8,-18.8L447.6,-18.8L447.6,-19.4L447.9,-19.8L448.9,-20.3L449.1,-21.5L448.9,-23.6L449.1,-24.6L449.1,-25.3L449.7,-26.1L451.9,-25.7L452.2,-26.5L452.0,-27.0L450.9,-27.9L451.1,-28.4L451.9,-29.0L452.7,-29.1L452.9,-29.9L452.9,-30.3ZM439.3,-7.8L439.5,-7.6L440.5,-9.7L441.7,-10.3L441.8,-11.0L442.2,-11.8L442.2,-12.9L442.4,-13.8L443.0,-14.1L443.4,-14.4L443.8,-14.6L444.6,-13.8L445.0,-13.0L445.5,-11.1L445.3,-9.3L443.9,-7.9L442.8,-7.3L441.6,-5.7L441.0,-4.4L440.6,-4.1L440.2,-4.2L440.0,-4.5L439.4,-4.5L438.7,-3.4L436.8,-2.4L436.1,-2.7L436.0,-3.9L435.6,-3.7L434.8,-2.4L434.1,-2.0L433.7,-1.8L432.8,-2.3L430.5,-0.0L428.3,0.4L427.6,0.1L427.6,-1.3L429.0,-3.1L430.1,-4.3L434.1,-5.2L436.6,-8.9L437.2,-13.0L437.8,-14.5L437.5,-15.4L436.9,-15.5L436.8,-16.8L437.2,-18.2L438.5,-20.2L439.2,-21.0L440.4,-23.4L441.0,-23.9L441.6,-23.9L442.3,-23.3L442.1,-22.1L441.2,-19.8L439.8,-17.8L439.9,-16.4L440.5,-15.3L440.6,-13.3L440.7,-11.5L439.6,-9.0ZM245.2,-59.4L244.5,-59.2L244.1,-59.8L245.2,-61.2L248.7,-64.0L250.0,-66.6L252.7,-67.6L252.9,-66.1L252.7,-64.3L250.4,-62.8L247.8,-61.8ZM466.5,-153.1L465.6,-151.9L464.1,-153.7L463.2,-155.8L463.7,-156.7L466.2,-156.8L466.9,-155.6L467.0,-155.0ZM526.7,-297.7L525.5,-297.6L523.4,-300.6L523.0,-303.2L523.3,-304.2L524.4,-304.3L526.0,-300.7L527.7,-299.7ZM571.0,-360.5L563.6,-358.8L562.8,-360.0L574.9,-365.1L575.5,-365.5L577.8,-366.2L579.7,-365.1L579.1,-364.2ZM485.3,-295.6L486.4,-294.7L488.7,-294.9L490.0,-288.2L490.7,-281.3L491.9,-280.7L494.1,-281.7L496.1,-282.2L497.1,-281.7L499.0,-279.7L499.8,-278.3L499.1,-277.1L497.4,-275.9L497.1,-272.3L498.8,-270.9L501.6,-267.9L503.2,-267.5L505.9,-268.7L508.6,-266.3L511.2,-263.4L505.1,-259.8L504.5,-258.8L503.7,-256.2L502.8,-253.9L502.0,-252.7L500.2,-250.5L499.2,-249.7L497.0,-249.9L496.2,-249.0L495.4,-247.3L494.6,-246.0L492.7,-245.6L491.7,-247.4L492.0,-247.9L492.2,-249.0L491.8,-251.5L493.7,-254.0L494.1,-255.5L493.7,-256.0L493.2,-255.8L491.9,-256.6L491.5,-256.6L490.3,-255.1L488.8,-254.1L487.2,-253.8L480.9,-251.9L479.9,-252.6L479.5,-256.4L482.1,-258.4L482.5,-261.8L483.1,-264.0L483.9,-265.5L485.3,-269.4L485.6,-269.6L482.1,-272.8L480.8,-274.8L479.3,-278.9L478.8,-282.2L476.8,-285.0L477.1,-288.7L475.6,-288.4L474.4,-291.0L475.5,-292.4L480.9,-294.1L484.1,-295.7ZM479.7,-366.5L480.5,-366.0L484.8,-366.2L485.7,-365.1L486.0,-362.3L486.6,-361.4L487.6,-361.1L489.8,-357.8L490.6,-357.3L491.3,-359.2L491.8,-363.8L491.8,-369.2L491.6,-371.9L491.9,-373.6L492.7,-374.3L493.6,-374.1L494.6,-375.1L495.4,-376.8L496.3,-377.1L498.2,-375.8L498.7,-374.7L498.2,-372.7L498.0,-369.7L497.1,-363.6L499.0,-363.3L501.6,-364.5L502.3,-366.3L503.7,-369.1L505.2,-368.7L505.9,-369.0L506.3,-370.2L506.4,-371.7L507.2,-371.4L508.4,-368.7L508.9,-368.2L509.9,-368.9L510.2,-368.9L511.2,-367.8L515.6,-365.8L517.2,-364.7L517.8,-363.7L518.5,-363.1L523.2,-363.1L526.5,-362.4L527.8,-360.8L528.8,-357.8L529.2,-350.9L528.3,-349.0L521.5,-340.8L519.8,-338.1L519.0,-335.7L517.6,-330.4L517.0,-328.9L513.8,-326.4L513.1,-326.2L510.7,-327.3L510.0,-327.2L507.1,-324.5L506.1,-322.9L505.1,-320.9L503.7,-320.0L502.2,-320.5L495.5,-321.5L494.6,-323.0L493.8,-325.7L495.2,-329.3L487.7,-327.9L479.4,-328.7L479.0,-329.1L478.6,-330.5L475.8,-331.4L473.7,-332.5L471.9,-334.5L470.1,-337.0L470.7,-338.1L471.2,-338.8L472.8,-339.1L474.1,-338.8L476.5,-338.8L477.1,-341.3L478.1,-342.0L478.8,-343.9L476.3,-345.0L473.6,-345.2L471.9,-343.7L469.8,-343.0L467.9,-342.9L464.3,-343.3L462.6,-344.4L460.3,-347.2L459.5,-348.8L459.2,-350.1L458.9,-351.9L461.6,-353.6L462.6,-354.9L463.7,-356.8L459.6,-357.8L457.9,-359.3L456.3,-361.6L457.6,-362.9L463.1,-363.9L464.5,-363.1L465.9,-361.4L467.5,-360.4L469.0,-362.6L467.6,-363.5L466.3,-367.1L466.0,-368.9L466.2,-370.3L466.9,-370.5L467.4,-370.0L469.3,-366.6L470.7,-365.5L471.1,-368.6L471.2,-370.1L470.9,-371.4L470.2,-373.6L469.6,-376.5L470.6,-377.3L471.5,-376.9L473.5,-375.0L475.5,-373.6L476.4,-372.3L478.1,-368.8ZM447.4,-350.9L447.8,-350.8L448.2,-351.3L448.5,-352.5L448.8,-353.3L450.8,-352.4L453.6,-349.9L454.5,-348.7L455.6,-346.1L456.6,-341.9L455.8,-338.9L454.8,-336.1L454.5,-334.5L454.9,-332.2L454.7,-330.1L454.3,-328.1L455.9,-330.3L459.1,-337.3L459.6,-337.8L460.1,-337.6L461.5,-336.1L462.8,-332.5L463.1,-331.3L463.3,-329.9L463.5,-328.1L463.4,-326.0L463.3,-324.6L462.6,-323.7L462.3,-322.8L463.0,-322.8L463.9,-321.7L464.6,-319.4L465.5,-318.5L468.6,-319.3L470.7,-318.0L471.8,-314.3L473.6,-315.2L473.6,-317.1L473.9,-318.0L476.2,-317.3L477.5,-316.4L478.7,-314.4L476.6,-311.2L478.3,-308.2L481.2,-306.0L482.9,-303.6L483.3,-302.7L483.6,-301.4L482.4,-299.7L481.3,-298.8L478.3,-298.7L475.7,-297.5L470.8,-296.7L470.1,-296.2L469.9,-295.7L469.7,-294.3L467.8,-291.0L466.0,-287.1L465.2,-284.7L464.7,-281.5L464.4,-279.5L464.9,-277.6L464.8,-275.6L463.4,-274.1L462.5,-274.1L461.5,-274.4L460.4,-273.5L460.3,-272.2L460.4,-270.4L460.1,-264.8L459.8,-260.7L459.3,-256.9L458.7,-254.8L458.0,-254.3L455.7,-253.9L454.0,-250.4L452.6,-244.2L451.8,-241.8L450.3,-238.0L450.6,-236.6L451.0,-235.2L450.2,-232.6L448.9,-229.7L448.9,-228.6L449.4,-226.6L449.6,-224.5L448.6,-222.7L446.7,-221.8L444.9,-222.8L444.0,-224.0L443.1,-225.9L442.2,-227.2L441.3,-228.0L437.7,-232.3L434.4,-239.2L431.3,-241.9L429.4,-243.2L428.4,-244.5L427.5,-246.2L426.7,-248.1L425.9,-250.6L425.6,-252.1L425.5,-254.3L425.7,-255.6L426.1,-256.3L428.5,-256.9L429.4,-256.6L430.2,-255.4L431.0,-255.0L432.8,-260.9L442.8,-264.4L446.1,-265.0L449.4,-265.0L448.8,-266.6L448.4,-268.7L447.9,-269.2L445.5,-268.0L441.7,-266.8L439.9,-266.8L438.0,-267.6L436.1,-267.2L434.1,-265.4L432.2,-264.3L430.3,-263.8L426.2,-264.0L425.2,-264.9L423.9,-267.0L423.6,-268.1L423.3,-269.5L423.0,-273.6L423.3,-274.7L423.7,-275.3L424.1,-275.7L425.0,-275.8L425.9,-275.1L427.9,-272.7L427.5,-275.3L433.3,-278.3L436.1,-281.0L437.4,-281.4L438.9,-281.3L438.6,-282.7L438.6,-284.0L439.5,-285.1L440.2,-285.6L442.4,-286.1L447.3,-286.0L449.1,-286.7L450.4,-288.6L449.0,-287.9L447.6,-287.8L446.9,-288.2L445.4,-289.8L444.8,-291.9L446.7,-296.3L447.4,-298.3L445.4,-298.0L444.7,-297.3L442.5,-293.3L440.8,-291.5L438.7,-290.7L436.7,-290.8L436.2,-291.3L435.6,-294.0L435.4,-295.4L435.5,-296.1L436.1,-298.3L436.5,-300.6L436.4,-302.7L435.9,-303.0L435.2,-301.1L434.4,-298.3L433.5,-297.0L432.5,-297.4L432.1,-298.4L431.7,-300.0L431.4,-300.6L430.9,-300.6L430.1,-300.0L429.2,-298.8L429.5,-297.0L429.6,-295.0L429.2,-293.4L428.9,-291.5L429.8,-290.4L430.5,-288.5L429.4,-287.6L428.4,-286.4L427.4,-284.4L426.4,-282.9L424.8,-282.7L422.8,-281.9L418.8,-281.6L417.0,-284.1L416.6,-285.2L416.3,-286.0L415.0,-287.3L413.2,-291.2L411.8,-295.6L410.9,-296.0L409.5,-297.4L408.7,-298.8L408.0,-300.4L407.8,-302.5L407.9,-304.3L408.7,-305.1L406.8,-307.2L404.8,-309.9L405.6,-310.9L406.3,-311.3L412.0,-308.0L412.4,-308.4L413.0,-310.1L412.8,-310.6L411.8,-310.9L410.5,-310.9L410.2,-311.3L409.7,-313.0L409.2,-315.2L409.1,-316.6L409.0,-318.3L409.9,-320.8L410.5,-323.1L409.7,-324.2L407.3,-324.1L406.5,-323.8L406.8,-320.5L406.1,-318.3L404.6,-316.5L403.6,-317.3L402.8,-321.7L401.8,-324.7L401.4,-326.6L401.1,-329.4L400.7,-331.4L399.9,-333.9L399.8,-335.4L399.9,-336.6L400.5,-339.2L400.0,-341.3L399.5,-343.2L399.5,-344.3L400.0,-345.6L400.4,-346.1L400.9,-346.0L402.4,-344.3L403.1,-342.4L403.4,-342.6L403.9,-345.5L404.6,-346.1L407.5,-347.0L410.6,-343.3L411.4,-342.6L412.1,-342.3L411.7,-343.9L411.5,-346.0L412.0,-346.8L414.5,-345.0L415.7,-345.0L418.5,-347.6L423.1,-348.8L424.9,-346.9L424.9,-345.8L424.9,-344.4L424.8,-344.0L423.8,-342.4L418.0,-341.1L414.2,-336.1L419.4,-336.8L420.3,-336.3L420.7,-332.2L421.0,-331.8L422.4,-331.2L423.3,-330L424.2,-327.7L425.2,-326.2L425.8,-326.4L426.0,-328.0L425.7,-330L425.6,-332.2L425.7,-334.7L425.8,-336.7L426.9,-338.2L428.5,-342.9L430.2,-346.1L432.0,-344.7L433.8,-340.6L435.4,-335.0L436.9,-329.0L438.6,-321.8L439.4,-319.2L440.1,-318.6L443.6,-311.2L443.9,-311L443.2,-316.6L441.5,-326.3L440.2,-333.9L440.0,-336.8L439.8,-340.9L439.9,-342.1L440.0,-343.2L440.9,-347.7L442.0,-349.9L441.7,-353.0L442.0,-355.4L443.2,-357.3L444.3,-357.5L445.3,-356.0ZM403.9,-296.2L404.0,-293.4L405.3,-293.7L406.8,-290.8L408.4,-289.3L408.9,-288.3L409.3,-286.9L410.2,-284.2L410.7,-281.4L409.5,-281.1L407.9,-285.1L406.6,-287.4L404.9,-289.4L403.5,-289.5L402.9,-290.4L400.7,-297.6L400.3,-299.2L399.1,-302.0L398.5,-305.3L398.5,-308.0L400.2,-307.4L401.7,-305.7L402.9,-301.9L403.2,-300.8L402.6,-299.2L403.2,-297.4ZM462.8,-368.9L461.1,-366.3L458.2,-368.4L458.6,-370.4L459.2,-371.6L461.0,-371.1ZM543.7,-308.4L546.0,-308.1L548.4,-308.7L548.8,-308.1L545.8,-305.9L542.4,-307.0L539.4,-307.3L535.8,-305.0L534.6,-305.9L536.4,-308.2L538.4,-308.9L538.7,-310.4L539.5,-310.6L542.1,-310.8Z" fill="#4ECDC4" stroke="#2C3E50" stroke-width="1"/></g><circle cx="400.0" cy="150.0" r="4" fill="#E74C3C" stroke="#fff" stroke-width="2"/><text x="400.0" y="140.0" text-anchor="middle" font-family="sans-serif" font-weight="700" font-size="10" fill="#2D3436">Oslo</text></svg>