<svg viewBox="0 0 800 300" xmlns="http://www.w3.org/2000/svg"><defs><clipPath id="v"><rect width="800" height="300"/></clipPath></defs><rect width="800" height="300" fill="#DCEEF8"/><g clip-path="url(#v)"><path d="M-369,-284L-370,-417L-303,-439L-298,-436L-257,-409L-236,-395L-211,-362L-180,-368L-135,-370L-104,-344L-106,-308L-93,-308L-88,-279L-54,-278L-47,-262L-37,-262L-26,-287L9,-311L24,-318L31,-314L9,-292L29,-279L47,-287L78,-269L45,-244L25,-247L14,-247L10,-256L16,-272L-19,-264L-28,-242L-40,-223L-62,-225L-69,-210L-49,-202L-44,-177L-58,-143L-78,-150L-93,-150L-92,-171L-127,-185L-154,-201L-172,-217L-201,-241L-214,-276L-223,-283L-252,-281L-262,-288L-264,-316L-300,-335L-322,-315L-344,-302L-340,-285Z" fill="#E0E0E0" stroke="#fff" stroke-width=".4"/><path d="M922,529L897,525L863,530L846,552L853,585L829,573L807,573L811,552L787,552L785,582L771,621L763,644L764,664L782,664L792,689L797,712L812,727L827,730L841,743L832,754L815,757L813,744L792,732L787,737L777,727L772,714L758,699L746,686L741,702L736,687L739,671L747,645L760,618L774,593L764,568L764,556L761,541L744,519L737,506L747,501L756,477L745,459L729,439L716,415L727,410L739,380L758,378L773,366L788,360L799,368L801,385L818,386L812,416L813,440L840,424L848,429L863,428L869,418L889,420L908,443L910,470L931,494L930,516Z" fill="#E0E0E0" stroke="#fff" stroke-width=".4"/><path d="M978,531L955,521L943,539L922,529L930,516L931,494L910,470L908,443L889,420L869,418L863,428L848,429L840,424L813,440L812,416L818,386L801,385L799,368L788,360L793,350L816,331L818,338L832,339L828,306L842,302L857,325L869,350L901,350L911,375L894,382L887,392L918,409L940,441L957,465L977,484L983,504Z" fill="#E0E0E0" stroke="#fff" stroke-width=".4"/><path d="M788,360L773,366L758,378L739,380L727,410L716,415L729,439L745,459L756,477L747,501L737,506L744,519L761,541L764,556L764,568L774,593L760,618L747,645L744,625L752,605L744,589L746,560L735,546L727,513L722,479L710,456L693,470L663,490L649,487L633,481L642,447L636,421L616,389L619,379L603,376L585,353L583,330L592,334L593,314L606,307L603,295L609,286L610,256L630,263L642,239L643,225L658,200L657,184L691,163L710,169L708,151L717,145L715,134L730,132L739,149L750,156L751,179L750,203L725,227L722,261L750,257L756,283L773,288L765,312L784,323L796,328L815,320L816,331L793,350Z" fill="#E0E0E0" stroke="#fff" stroke-width=".4"/><path d="M898,630L921,620L949,618L937,601L981,581L984,549L978,531L983,504L977,484L957,465L940,441L918,409L887,392L894,382L911,375L901,350L869,350L857,325L842,302L856,295L877,295L902,292L925,277L937,288L961,293L957,309L969,321L996,328L961,352L939,378L933,398L953,427L978,463L1002,480L1018,502L1030,552L1026,599L1004,616L974,634L953,656L920,680L911,664L918,645Z" fill="#E0E0E0" stroke="#fff" stroke-width=".4"/><path d="M715,134L717,145L708,151L710,169L691,163L657,184L658,200L643,225L642,239L630,263L610,256L609,286L603,295L606,307L593,314L579,269L572,269L567,287L553,273L561,256L573,255L585,230L570,225L546,226L521,222L518,202L506,200L485,187L476,207L495,223L478,233L472,244L489,252L484,269L493,290L497,314L494,324L476,324L443,330L445,351L431,367L393,386L364,419L344,436L318,454L318,467L305,473L281,483L269,485L261,505L267,541L268,563L257,588L257,634L243,635L231,655L239,664L215,672L207,690L196,697L171,673L159,635L149,608L140,596L126,570L119,536L115,519L91,482L80,429L72,394L72,360L67,334L29,350L11,347L-23,313L-11,303L-19,291L-49,267L-32,248L26,248L20,223L6,209L3,186L-14,173L15,142L45,144L72,113L89,82L114,52L114,30L136,12L115,-3L106,-24L97,-52L110,-66L149,-58L179,-63L204,-90L232,-52L229,-26L240,-10L239,6L220,1L227,35L253,55L290,76L273,90L263,118L288,129L313,144L347,161L383,164L398,179L418,182L450,189L472,188L475,177L471,158L473,145L489,139L492,162L492,168L516,180L532,175L555,177L576,176L578,158L567,148L588,145L612,123L642,104L664,111L683,98L695,117L686,129Z" fill="#E0E0E0" stroke="#fff" stroke-width=".4"/><path d="M593,314L592,334L583,330L585,353L577,338L576,324L571,310L560,294L536,293L538,304L530,320L519,314L515,319L507,316L497,314L493,290L484,269L489,252L472,244L478,233L495,223L476,207L485,187L506,200L518,202L521,222L546,226L570,225L585,230L573,255L561,256L553,273L567,287L572,269L579,269Z" fill="#E0E0E0" stroke="#fff" stroke-width=".4"/><path d="M567,148L578,158L576,176L555,177L532,175L516,180L492,168L492,162L509,140L523,133L542,140L556,140Z" fill="#E0E0E0" stroke="#fff" stroke-width=".4"/><path d="M204,-90L179,-63L149,-58L110,-66L97,-52L106,-24L115,-3L136,12L114,30L114,52L89,82L72,113L45,144L15,142L-14,173L3,186L6,209L20,223L26,248L-32,248L-49,267L-69,260L-76,239L-97,217L-145,223L-188,223L-225,227L-215,194L-177,178L-179,165L-192,160L-192,134L-217,121L-228,103L-241,87L-197,102L-171,98L-155,102L-150,95L-131,98L-97,85L-96,59L-82,42L-62,42L-59,33L-39,29L-30,32L-20,24L-21,5L-10,-14L7,-22L-3,-43L22,-42L29,-53L28,-65L41,-79L38,-95L31,-108L47,-123L75,-129L105,-133L118,-139L134,-143L153,-128L161,-103Z" fill="#E0E0E0" stroke="#fff" stroke-width=".4"/><path d="M-93,-150L-78,-150L-58,-143L-50,-139L-32,-150L-23,-144L-14,-159L1,-158L5,-163L8,-176L20,-188L34,-180L31,-170L39,-168L36,-141L47,-130L56,-137L67,-140L84,-155L102,-152L129,-152L134,-143L118,-139L105,-133L75,-129L47,-123L31,-108L38,-95L41,-79L28,-65L29,-53L22,-42L-3,-43L7,-22L-10,-14L-21,5L-20,24L-30,32L-39,29L-59,33L-62,42L-82,42L-96,59L-97,85L-131,98L-150,95L-155,102L-171,98L-197,102L-241,87L-217,59L-219,40L-239,35L-241,15L-250,-10L-238,-27L-250,-32L-243,-55L-232,-95L-205,-82L-186,-87L-180,-101L-159,-106L-145,-116L-139,-142L-117,-149L-113,-160L-101,-152Z" fill="#E0E0E0" stroke="#fff" stroke-width=".4"/><path d="M-58,-143L-44,-177L-49,-202L-69,-210L-62,-225L-40,-223L-28,-242L-19,-264L16,-272L10,-256L14,-247L25,-247L15,-237L-13,-243L-16,-223L13,-226L45,-215L95,-220L101,-189L110,-192L126,-184L125,-171L129,-152L102,-152L84,-155L67,-140L56,-137L47,-130L36,-141L39,-168L31,-170L34,-180L20,-188L8,-176L5,-163L1,-158L-14,-159L-23,-144L-32,-150L-50,-139Z" fill="#E0E0E0" stroke="#fff" stroke-width=".4"/><path d="M-460,-301L-449,-313L-419,-320L-401,-310L-383,-283L-369,-284L-340,-285L-344,-302L-322,-315L-300,-335L-264,-316L-262,-288L-252,-281L-223,-283L-214,-276L-201,-241L-172,-217L-154,-201L-127,-185L-92,-171L-93,-150L-101,-152L-113,-160L-117,-149L-139,-142L-145,-116L-159,-106L-180,-101L-186,-87L-205,-82L-232,-95L-234,-122L-254,-123L-284,-152L-305,-156L-334,-173L-352,-176L-364,-169L-381,-170L-400,-151L-423,-145L-428,-168L-424,-203L-445,-215L-438,-238L-455,-240L-449,-269L-425,-261L-402,-272L-421,-293L-428,-313L-449,-304L-452,-278Z" fill="#E0E0E0" stroke="#fff" stroke-width=".4"/><path d="M-563,84L-578,68L-578,52L-587,52L-582,30L-596,6L-628,-11L-646,-41L-640,-66L-627,-77L-629,-96L-646,-105L-663,-144L-677,-171L-672,-181L-680,-220L-662,-229L-658,-216L-645,-201L-627,-196L-617,-197L-587,-222L-577,-225L-569,-215L-578,-198L-562,-181L-555,-182L-547,-158L-522,-151L-504,-134L-467,-129L-426,-137L-423,-145L-400,-151L-381,-170L-364,-169L-352,-176L-334,-173L-305,-156L-284,-152L-254,-123L-234,-122L-232,-95L-243,-55L-250,-32L-238,-27L-250,-10L-241,15L-239,35L-219,40L-217,59L-241,87L-228,103L-217,121L-192,134L-192,160L-179,165L-177,178L-215,194L-225,227L-274,219L-302,212L-332,208L-343,172L-356,167L-376,172L-402,186L-434,177L-461,154L-486,146L-504,117L-523,77L-537,82L-554,72Z" fill="#E0E0E0" stroke="#fff" stroke-width=".4"/><path d="M1033,422L1012,413L1011,389L1024,377L1053,369L1068,369L1073,380L1062,392L1056,408ZM267,-321L265,-341L283,-351L260,-414L312,-429L325,-437L344,-505L396,-493L411,-510L412,-549L433,-553L453,-579L464,-583L471,-555L493,-534L530,-519L548,-488L538,-444L547,-428L579,-421L614,-416L646,-393L662,-389L674,-356L689,-334L718,-335L772,-327L807,-332L833,-327L872,-305L903,-305L915,-294L946,-313L988,-326L1027,-327L1058,-340L1077,-359L1095,-371L1091,-383L1082,-397L1096,-421L1111,-417L1138,-410L1164,-430L1204,-444L1223,-469L1242,-480L1280,-485L1300,-481L1303,-494L1279,-521L1258,-534L1238,-519L1212,-526L1198,-521L1191,-537L1209,-576L1222,-607L1253,-591L1290,-617L1290,-635L1314,-679L1329,-693L1328,-717L1314,-727L1335,-749L1368,-757L1403,-758L1442,-745L1465,-729L1481,-685L1491,-667L1500,-642L1510,-601L1555,-589L1587,-560L1597,-523L1637,-523L1660,-538L1703,-550L1689,-515L1679,-501L1670,-459L1653,-422L1621,-429L1598,-416L1605,-384L1601,-342L1588,-341L1588,-323L1571,-344L1561,-324L1520,-308L1524,-290L1502,-291L1489,-302L1471,-277L1442,-259L1421,-237L1384,-227L1365,-211L1337,-202L1351,-217L1345,-231L1366,-254L1352,-272L1329,-259L1300,-236L1284,-214L1258,-212L1244,-196L1258,-174L1280,-168L1281,-153L1301,-144L1331,-167L1354,-154L1371,-154L1375,-136L1338,-127L1326,-110L1300,-93L1287,-71L1315,-53L1325,-22L1341,6L1359,30L1359,53L1342,61L1349,77L1364,87L1360,111L1353,135L1339,138L1319,170L1298,208L1274,243L1238,269L1201,293L1172,296L1156,309L1147,300L1132,314L1095,328L1068,332L1059,362L1044,364L1037,343L1043,332L1008,323L996,328L969,321L957,309L961,293L937,288L925,277L902,292L877,295L856,295L842,302L828,306L832,339L818,338L816,331L815,320L796,328L784,323L765,312L773,288L756,283L750,257L722,261L725,227L750,203L751,179L750,156L739,149L730,132L715,134L686,129L695,117L683,98L664,111L642,104L612,123L588,145L567,148L556,140L542,140L523,133L509,140L492,162L489,139L473,145L443,142L413,136L392,123L372,117L363,102L348,98L322,78L301,69L290,76L253,55L227,35L220,1L239,6L240,-10L229,-26L232,-52L204,-90L161,-103L153,-128L134,-143L129,-152L125,-171L126,-184L110,-192L101,-189L95,-220L102,-228L99,-235L124,-252L142,-258L170,-254L179,-276L213,-280L222,-294L264,-313Z" fill="#E0E0E0" stroke="#fff" stroke-width=".4"/></g><g clip-path="url(#v)"><path d="M473.1,145.5L474.2,146.4L474.3,147.7L474.2,149.1L473.0,152.3L472.1,154.5L470.9,159.2L469.8,167.3L470.1,168.7L473.2,173.4L474.3,176.9L474.5,179.3L473.2,183.4L471.7,188.0L470.9,189.0L470.1,189.4L466.3,187.8L463.7,188.0L460.7,188.9L457.4,188.7L454.9,188.2L451.6,190.0L448.4,189.0L446.4,187.9L445.0,184.7L444.4,184.3L437.8,187.6L436.2,187.8L432.1,186.1L428.7,184.3L427.4,183.8L424.1,183.1L421.2,182.7L418.0,181.5L414.0,183.0L412.4,182.9L410.9,181.8L410.2,179.7L410.0,177.7L408.6,176.3L406.5,176.0L403.6,177.2L399.3,178.9L397.9,178.6L396.7,178.1L396.2,177.7L395.5,175.8L394.9,175.3L393.9,175.3L392.1,174.8L390.0,173.4L383.4,170.1L382.5,168.6L382.5,165.3L382.2,163.9L381.4,162.4L378.0,161.0L371.4,158.6L367.8,156.7L366,157.6L362.7,158.4L360.9,160.1L358.7,159.6L353.6,157.8L350.9,157.5L349.2,158.1L348.8,159.2L346.7,160.3L344.8,159.4L340.9,158.1L337.4,157.5L332.2,155.9L331.6,153.7L330.7,151.4L329.5,151.0L324.8,151.4L320.5,148.9L315.9,145.7L313.9,144.7L312.7,144.3L311.5,144.7L310.2,145.4L309.1,145.6L306.6,144.3L303.4,142.3L299.5,139.9L294.9,136.5L293.0,134.6L292.2,133.1L291.2,131.7L287.2,129.5L284.0,127.7L280.2,125.6L279.6,125.2L278.1,124.0L276.0,122.3L274.1,121.9L273.5,122.8L273.1,123.7L271.5,123.5L269.1,121.8L266.4,120.2L264.5,118.6L262.4,116.9L261.9,115.8L262.8,112.1L264.0,108.8L265.0,108.2L266.6,106.0L267.3,102.3L267.2,99.1L268.9,94.7L271.1,89.9L274.9,84.8L276.6,83.1L278.5,81.9L282.0,78.2L282.8,77.5L284.4,76.5L285.9,76.3L287.0,76.8L288.2,78.7L289.7,80.6L291.4,80.5L293.4,78.9L297.7,71.5L303.6,70.0L309.2,70.8L314.1,71.8L315.6,74.3L316.5,76.9L317.1,78.3L318.7,79.8L325.7,83.5L329.8,86.9L335.3,91.3L339.6,93.3L343.3,93.4L345.3,95.2L348.4,98.7L351.2,102.7L354.5,106.4L356.8,106.2L359.9,105.0L363.7,103.5L366,104.2L368.1,105.3L368.7,107.2L370.0,110.8L371.4,114.5L373.6,115.8L376.2,117.7L377.6,119.3L382.4,122.0L383.2,123.2L384.1,124.0L385.3,124.5L386.3,125.0L387.8,125.2L393.5,123.5L394.9,123.7L395.8,124.1L395.8,124.7L394.8,127.3L393.9,130.6L394.8,132.3L397.1,133.0L402.3,133.5L409.4,133.5L411.5,135.1L413.7,137.7L415.7,142.0L416.6,143.8L417.7,144.4L419.5,143.6L419.8,141.8L419.9,139.2L421.4,138.3L422.4,139.0L423.6,141.1L426.4,142.9L428.6,143.8L430.6,143.5L431.4,142.8L432.3,139.2L433.9,138.6L435.9,138.9L436.7,139.6L437.5,141.1L439.9,141.7L442.3,142.7L444.6,143.8L447.7,146.5L451.7,147.0L456.2,146.9L458.6,147.0L460.4,147.2L462.0,147.0L466.6,145.1L468.5,144.9L470.9,145.2Z" fill="#4ECDC4" stroke="#2C3E50" stroke-width="1"/></g><circle cx="400.0" cy="150.0" r="4" fill="#E74C3C" stroke="#fff" stroke-width="2"/><text x="400.0" y="140.0" text-anchor="middle" font-family="sans-serif" font-weight="700" font-size="10" fill="#2D3436">Kathmandu</text></svg>