<svg viewBox="0 0 800 300" xmlns="http://www.w3.org/2000/svg"><defs><clipPath id="v"><rect width="800" height="300"/></clipPath></defs><rect width="800" height="300" fill="#DCEEF8"/><g clip-path="url(#v)"><path d="M-279,204L-233,222L-185,237L-167,250L-152,263L-148,279L-105,295L-98,309L-122,312L-116,330L-93,347L-76,375L-61,374L-62,386L-42,390L-50,395L-22,407L-25,414L-42,416L-49,409L-71,406L-98,402L-118,385L-133,371L-146,348L-181,336L-203,343L-219,352L-215,372L-236,381L-251,376L-278,375L-278,289ZM26,231L36,240L39,254L31,261L26,245L20,235L8,226L-7,215L-26,207L-18,201L-4,208L5,214L16,220ZM-9,289L-23,295L-37,301L-51,301L-72,294L-87,286L-85,278L-61,282L-47,280L-43,267L-39,267L-37,281L-22,279L-14,270L0,260L-3,245L13,244L18,249L18,263L9,279L-5,281ZM82,276L90,282L102,298L115,307L111,315L104,317L92,307L81,290L75,270L79,268Z" fill="#E0E0E0" stroke="#fff" stroke-width=".4"/><path d="M274,412L282,421L263,421L253,404L269,411ZM263,388L259,393L239,370L234,354L243,354L252,375ZM241,395L231,396L215,393L209,389L211,379L228,383L237,388ZM209,346L216,355L217,360L196,349L182,339L172,330L176,328L188,334ZM144,320L154,329L149,330L138,324L127,313L128,309Z" fill="#E0E0E0" stroke="#fff" stroke-width=".4"/><path d="M-103,1308L-88,1310L-86,1352L-95,1364L-98,1392L-107,1383L-125,1408L-130,1406L-146,1405L-163,1374L-166,1351L-181,1320L-181,1304L-163,1307L-138,1319L-124,1314ZM-667,1027L-695,1043L-718,1050L-723,1067L-733,1080L-755,1080L-771,1083L-794,1077L-813,1081L-831,1082L-847,1099L-854,1098L-868,1107L-880,1117L-899,1116L-917,1116L-945,1095L-959,1089L-958,1071L-945,1067L-941,1060L-942,1049L-938,1027L-941,1009L-955,978L-959,960L-958,943L-969,924L-969,915L-981,903L-984,880L-999,857L-1003,844L-991,857L-1000,830L-987,838L-979,850L-980,835L-993,812L-995,803L-1001,794L-998,778L-993,771L-990,756L-992,740L-982,719L-980,741L-968,721L-947,712L-934,700L-914,690L-903,688L-895,691L-875,681L-859,677L-855,671L-848,669L-833,670L-806,661L-792,649L-785,634L-770,620L-768,609L-768,594L-750,571L-738,595L-727,589L-737,576L-728,563L-717,569L-714,548L-699,535L-693,524L-680,520L-679,512L-668,515L-668,508L-656,505L-643,501L-624,513L-609,529L-593,529L-576,532L-582,517L-570,496L-558,489L-562,482L-550,466L-535,457L-521,460L-499,455L-500,441L-519,433L-505,429L-488,435L-474,446L-452,453L-444,450L-428,459L-413,451L-403,453L-397,448L-385,462L-392,476L-401,487L-411,488L-407,498L-415,512L-424,525L-423,533L-402,548L-382,557L-368,566L-349,582L-342,582L-328,589L-324,598L-299,607L-282,597L-277,583L-271,571L-268,556L-260,534L-264,521L-262,513L-265,498L-262,477L-257,472L-261,463L-254,449L-249,434L-249,427L-239,417L-232,430L-230,446L-223,450L-222,461L-213,474L-211,490L-212,499L-202,521L-185,510L-177,522L-164,532L-167,544L-161,568L-157,581L-151,585L-144,608L-146,623L-138,641L-109,656L-91,669L-73,681L-77,688L-62,705L-51,736L-41,730L-30,742L-24,738L-19,768L-1,785L11,796L32,820L39,843L40,860L38,878L50,903L49,929L44,943L37,970L38,988L33,1010L21,1038L2,1053L-8,1077L-17,1093L-24,1120L-34,1136L-41,1161L-44,1183L-43,1194L-58,1205L-87,1206L-112,1220L-124,1233L-139,1247L-161,1232L-177,1226L-173,1209L-187,1215L-210,1240L-233,1231L-248,1225L-263,1223L-288,1213L-305,1193L-310,1168L-316,1152L-329,1138L-354,1135L-345,1119L-352,1095L-365,1117L-388,1123L-374,1106L-370,1087L-360,1072L-362,1049L-383,1075L-400,1086L-410,1111L-430,1098L-429,1081L-446,1059L-460,1047L-455,1040L-488,1021L-507,1020L-532,1005L-579,1008L-613,1019L-642,1029Z" fill="#E0E0E0" stroke="#fff" stroke-width=".4"/></g><g clip-path="url(#v)"><path d="M401.0,149.1L400.5,150.0L399.9,149.9L399.7,149.3L399.8,148.7L400.5,148.4L401.0,148.6Z" fill="#4ECDC4" stroke="#2C3E50" stroke-width="1"/></g><circle cx="400.0" cy="150.0" r="4" fill="#E74C3C" stroke="#fff" stroke-width="2"/><text x="400.0" y="140.0" text-anchor="middle" font-family="sans-serif" font-weight="700" font-size="10" fill="#2D3436">Yaren</text></svg>