<svg viewBox="0 0 800 300" xmlns="http://www.w3.org/2000/svg"><defs><clipPath id="v"><rect width="800" height="300"/></clipPath></defs><rect width="800" height="300" fill="#DCEEF8"/><g clip-path="url(#v)"><path d="M425,-56L427,-57L429,-55L428,-51L424,-50L419,-51L419,-54L422,-57ZM439,-63L434,-61L429,-60L428,-63L432,-64L435,-65L439,-67L439,-67L439,-63ZM-2244,-67L-2244,-67L-2244,-67L-2242,-67L-2243,-64L-2244,-63L-2244,-63L-2244,-67Z" fill="#E0E0E0" stroke="#fff" stroke-width=".4"/><path d="M148,-169L161,-164L175,-160L180,-156L184,-152L185,-148L198,-143L200,-139L193,-138L194,-133L201,-128L206,-120L210,-121L210,-117L216,-116L213,-114L221,-111L220,-109L216,-109L214,-111L207,-111L200,-113L194,-117L190,-122L186,-128L176,-131L170,-129L165,-127L166,-121L160,-119L156,-120L149,-120L148,-145ZM235,-161L238,-159L239,-155L236,-153L235,-157L233,-160L230,-163L226,-166L220,-168L222,-170L226,-168L229,-166L232,-164ZM225,-145L221,-143L217,-141L213,-141L207,-143L203,-146L203,-148L210,-147L214,-147L215,-151L216,-151L217,-147L221,-148L223,-150L228,-153L227,-157L231,-157L233,-156L233,-152L230,-148L226,-147ZM251,-149L253,-147L257,-142L260,-140L259,-137L257,-137L254,-140L251,-144L249,-150L250,-151Z" fill="#E0E0E0" stroke="#fff" stroke-width=".4"/><path d="M148,-169L148,-145L149,-120L142,-126L134,-128L132,-126L123,-126L126,-132L131,-134L129,-142L125,-148L111,-155L105,-155L94,-162L91,-158L89,-158L87,-160L87,-164L81,-167L89,-170L94,-170L94,-172L83,-172L80,-176L73,-178L70,-181L80,-183L84,-186L96,-183L97,-180L99,-168L107,-163L113,-171L122,-176L128,-176L135,-173L140,-170ZM29,-122L30,-120L30,-118L25,-112L18,-111L18,-112L18,-114L21,-119ZM98,-137L97,-143L98,-145L100,-148L101,-146L101,-142ZM-24,-219L-28,-213L-23,-205L-24,-202L-16,-195L-25,-194L-27,-189L-27,-182L-34,-177L-34,-170L-37,-159L-38,-161L-47,-158L-49,-162L-55,-163L-59,-165L-67,-163L-70,-166L-75,-166L-81,-167L-82,-177L-86,-179L-90,-185L-91,-192L-90,-198L-85,-203L-84,-198L-79,-194L-74,-196L-69,-195L-65,-199L-61,-200L-54,-198L-48,-199L-45,-209L-42,-212L-39,-221L-31,-221ZM62,-168L70,-165L72,-160L66,-163L60,-163L56,-163L51,-163L52,-167ZM43,-160L38,-162L36,-165L44,-165L46,-163ZM51,-205L51,-201L56,-200L57,-197L56,-190L52,-191L51,-187L54,-183L52,-182L49,-186L47,-196L48,-202ZM14,-195L22,-195L30,-201L31,-199L25,-192L19,-190L12,-192L-0,-191L-7,-190L-8,-185L-1,-178L3,-181L17,-184L16,-180L13,-182L10,-177L3,-174L10,-165L9,-162L15,-153L15,-149L11,-146L8,-149L12,-155L5,-152L3,-154L4,-157L-2,-162L-1,-169L-6,-167L-5,-158L-5,-147L-10,-146L-13,-148L-11,-155L-12,-162L-15,-162L-17,-168L-14,-172L-13,-178L-10,-190L-8,-193L-2,-198L4,-196ZM-6,-112L-16,-117L-9,-118L-5,-116L-2,-114L-3,-112ZM2,-125L7,-125L13,-128L12,-124L1,-122L-9,-123L-9,-125L-3,-127ZM-21,-126L-17,-127L-15,-123L-23,-122L-29,-121L-33,-121L-30,-125L-26,-125L-24,-128ZM-94,-140L-93,-138L-79,-137L-77,-140L-63,-137L-61,-132L-49,-130L-40,-126L-49,-123L-57,-126L-64,-126L-71,-126L-78,-128L-87,-131L-93,-131L-96,-130L-109,-133L-110,-137L-117,-137L-112,-144L-103,-144L-97,-141ZM-125,-180L-123,-175L-121,-171L-115,-170L-112,-166L-114,-156L-114,-145L-122,-145L-128,-151L-138,-157L-141,-161L-147,-168L-151,-173L-156,-184L-163,-190L-165,-196L-168,-202L-174,-207L-178,-213L-184,-217L-192,-226L-192,-229L-188,-229L-176,-228L-169,-220L-164,-215L-160,-212L-153,-204L-145,-204L-139,-199L-134,-193L-129,-189L-132,-183L-127,-181Z" fill="#E0E0E0" stroke="#fff" stroke-width=".4"/><path d="M29,-122L30,-124L36,-125L41,-126L44,-127L46,-126L44,-124L36,-120L30,-118L30,-120Z" fill="#E0E0E0" stroke="#fff" stroke-width=".4"/><path d="M344,-68L348,-64L346,-63L343,-66ZM340,-70L339,-72L339,-78L343,-76L344,-70L342,-71Z" fill="#E0E0E0" stroke="#fff" stroke-width=".4"/><path d="M333,-28L339,-23L343,-19L340,-17L336,-19L331,-23L326,-27L321,-33L320,-35L323,-35L327,-33L331,-30Z" fill="#E0E0E0" stroke="#fff" stroke-width=".4"/><path d="M306,-110L308,-107L303,-107L300,-112L304,-110ZM302,-117L301,-115L296,-122L294,-126L297,-126L299,-120ZM296,-114L293,-114L289,-115L287,-116L288,-119L293,-118L295,-116ZM287,-128L289,-126L289,-125L283,-128L279,-130L277,-133L278,-134L281,-132ZM269,-136L272,-134L270,-133L267,-135L264,-138L264,-139Z" fill="#E0E0E0" stroke="#fff" stroke-width=".4"/><path d="M198,145L203,146L203,158L201,161L200,169L197,167L192,174L190,173L186,173L181,164L180,157L176,149L176,144L181,145L188,148L192,147ZM38,65L30,70L23,72L22,77L19,80L13,81L8,81L1,80L-4,81L-9,81L-13,86L-16,85L-19,88L-23,91L-28,91L-33,91L-41,85L-45,83L-45,78L-41,77L-40,75L-40,71L-40,65L-40,60L-44,51L-46,46L-45,42L-48,36L-48,33L-52,30L-53,23L-57,17L-58,13L-55,17L-57,9L-53,12L-51,15L-51,11L-55,4L-56,1L-57,-1L-57,-6L-55,-8L-54,-12L-55,-16L-52,-22L-51,-16L-48,-22L-42,-24L-38,-28L-33,-31L-29,-31L-27,-30L-21,-33L-17,-34L-16,-36L-14,-37L-10,-36L-2,-39L2,-42L4,-46L8,-50L9,-54L9,-58L14,-64L17,-58L21,-59L18,-63L20,-67L23,-65L24,-71L28,-75L30,-78L34,-79L34,-81L37,-80L38,-82L41,-83L44,-84L50,-81L54,-76L59,-76L63,-76L62,-80L65,-86L69,-88L68,-90L71,-94L75,-97L79,-96L85,-97L85,-101L80,-104L84,-105L89,-103L93,-100L99,-98L101,-99L106,-96L110,-99L113,-98L115,-99L118,-96L116,-92L113,-88L111,-88L112,-85L109,-81L107,-78L107,-75L113,-71L119,-69L123,-66L128,-61L130,-61L134,-59L135,-57L142,-54L147,-57L149,-61L150,-65L151,-69L153,-75L152,-79L153,-81L152,-85L153,-91L155,-93L153,-95L155,-99L157,-103L157,-106L160,-108L162,-105L162,-100L164,-99L164,-96L167,-92L168,-88L167,-85L170,-79L175,-82L177,-78L181,-75L180,-72L182,-65L183,-62L185,-61L187,-54L186,-50L188,-44L196,-40L202,-37L207,-33L206,-31L210,-26L213,-18L216,-19L219,-16L221,-17L222,-8L227,-3L231,-0L237,6L239,13L239,18L238,23L242,30L241,38L240,41L238,49L238,54L237,60L234,68L228,73L225,80L223,84L221,92L218,96L216,103L215,110L215,113L211,116L203,116L196,120L192,124L188,128L182,124L177,122L178,117L174,119L168,126L161,123L157,122L153,121L146,118L141,113L139,105L138,101L134,97L127,96L129,91L127,85L124,91L117,93L121,88L122,82L125,78L124,71L118,79L114,82L111,89L105,86L105,81L101,74L97,71L98,69L89,64L83,63L76,59L63,60L53,63L45,66Z" fill="#E0E0E0" stroke="#fff" stroke-width=".4"/><path d="M-157,-237L-155,-238L-149,-235L-149,-231L-144,-232L-141,-235L-140,-234L-135,-230L-132,-225L-132,-220L-132,-216L-132,-214L-131,-209L-129,-207L-126,-201L-126,-198L-131,-198L-138,-203L-147,-209L-148,-213L-152,-218L-153,-224L-156,-228L-155,-234ZM-24,-219L-31,-221L-39,-221L-42,-212L-45,-209L-48,-199L-54,-198L-61,-200L-65,-199L-69,-195L-74,-196L-79,-194L-84,-198L-85,-203L-80,-201L-74,-202L-73,-209L-69,-210L-60,-212L-55,-217L-51,-222L-48,-218L-46,-221L-43,-221L-42,-225L-42,-229L-36,-234L-33,-240L-30,-240L-26,-236L-25,-233L-21,-231L-14,-229L-15,-226L-20,-225L-19,-222Z" fill="#E0E0E0" stroke="#fff" stroke-width=".4"/><path d="M-1265,775L-1261,775L-1250,768L-1239,775L-1230,791L-1227,814L-1226,832L-1225,853L-1237,867L-1249,878L-1263,889L-1279,898L-1296,895L-1306,880L-1305,861L-1289,850L-1283,836L-1278,818L-1275,804L-1270,790ZM-1397,863L-1380,865L-1364,869L-1358,851L-1354,836L-1347,854L-1349,876L-1351,897L-1367,891L-1383,893L-1393,878L-1393,876ZM-1453,581L-1448,578L-1440,579L-1437,568L-1437,559L-1437,542L-1433,532L-1426,529L-1422,537L-1420,544L-1417,554L-1415,564L-1413,574L-1412,584L-1413,594L-1415,603L-1424,606L-1432,611L-1442,610L-1438,601L-1447,604L-1455,607L-1461,600L-1462,590ZM-1665,596L-1661,592L-1651,595L-1640,597L-1632,600L-1624,597L-1620,611L-1625,609L-1634,610L-1644,609L-1654,611L-1661,606ZM-1816,640L-1815,632L-1806,636L-1796,640L-1787,636L-1792,645L-1799,652L-1809,650ZM-1851,635L-1846,630L-1838,636L-1827,646L-1831,645L-1841,642ZM-2123,795L-2118,782L-2104,787L-2097,799L-2091,813L-2089,831L-2103,836L-2113,822L-2118,808L-2118,806ZM-1970,1153L-1969,1152L-1967,1113L-1997,1110L-2021,1092L-2027,1064L-2047,1049L-2046,1019L-2043,994L-2040,973L-2042,950L-2054,935L-2060,917L-2071,902L-2053,905L-2036,897L-2025,913L-2012,899L-2000,882L-1994,867L-1996,849L-2006,837L-2017,825L-2032,823L-2046,817L-2060,813L-2065,799L-2075,787L-2080,774L-2083,735L-2079,739L-2072,749L-2060,746L-2048,741L-2042,756L-2030,752L-2020,745L-2011,736L-2003,725L-1991,722L-1992,710L-1994,699L-1992,688L-1983,683L-1978,693L-1967,687L-1958,680L-1947,679L-1937,676L-1927,670L-1919,664L-1910,658L-1904,659L-1899,662L-1888,658L-1878,663L-1868,662L-1858,658L-1848,661L-1837,664L-1827,663L-1816,663L-1805,664L-1795,663L-1787,654L-1778,650L-1769,656L-1760,651L-1752,642L-1747,650L-1744,660L-1739,669L-1732,661L-1723,671L-1713,675L-1704,683L-1694,681L-1684,676L-1673,677L-1663,681L-1653,686L-1649,674L-1654,664L-1657,654L-1667,652L-1671,642L-1673,633L-1675,614L-1670,617L-1660,618L-1650,617L-1641,621L-1634,628L-1631,638L-1621,639L-1611,636L-1601,630L-1591,627L-1584,634L-1574,632L-1568,612L-1562,623L-1553,628L-1544,625L-1537,636L-1528,637L-1519,640L-1510,645L-1504,636L-1501,626L-1494,637L-1483,634L-1476,640L-1471,649L-1461,646L-1453,640L-1445,634L-1436,630L-1426,627L-1416,623L-1409,618L-1405,610L-1403,600L-1404,590L-1406,581L-1409,572L-1411,563L-1413,555L-1413,546L-1413,538L-1409,530L-1406,522L-1405,514L-1407,505L-1407,498L-1404,489L-1400,484L-1395,477L-1390,471L-1384,466L-1381,458L-1377,453L-1372,449L-1365,448L-1360,442L-1355,439L-1349,437L-1343,432L-1339,427L-1333,425L-1329,430L-1332,435L-1339,440L-1343,444L-1348,441L-1354,443L-1359,447L-1365,451L-1368,456L-1369,463L-1369,470L-1366,476L-1371,481L-1378,482L-1382,488L-1386,494L-1391,503L-1392,510L-1389,518L-1385,525L-1379,530L-1374,536L-1370,544L-1369,552L-1367,561L-1363,568L-1361,577L-1360,599L-1358,608L-1357,617L-1355,627L-1356,641L-1360,652L-1364,662L-1374,665L-1378,675L-1382,685L-1393,696L-1403,701L-1413,707L-1423,714L-1429,727L-1441,728L-1454,727L-1466,730L-1478,730L-1476,743L-1464,748L-1456,758L-1451,770L-1460,782L-1473,778L-1483,787L-1484,803L-1484,818L-1475,831L-1474,847L-1464,863L-1448,870L-1435,883L-1424,897L-1411,912L-1392,920L-1374,934L-1361,950L-1347,968L-1340,995L-1336,1018L-1327,997L-1315,979L-1302,962L-1287,948L-1273,933L-1255,932L-1237,939L-1222,952L-1217,929L-1206,914L-1188,913L-1173,903L-1159,893L-1143,886L-1127,878L-1115,867L-1121,851L-1124,836L-1124,821L-1138,823L-1154,829L-1168,829L-1170,814L-1169,786L-1166,778L-1155,770L-1143,761L-1134,751L-1125,741L-1118,728L-1108,723L-1098,718L-1092,716L-1081,715L-1070,710L-1061,704L-1052,697L-1044,690L-1033,681L-1027,671L-1020,663L-1017,652L-1025,646L-1023,635L-1018,627L-1010,622L-1002,616L-994,608L-988,599L-985,587L-979,581L-970,582L-967,590L-958,591L-958,582L-954,573L-946,576L-944,584L-935,586L-925,581L-916,579L-907,580L-904,590L-896,582L-888,578L-880,575L-872,572L-864,566L-856,563L-849,558L-845,550L-839,556L-832,553L-826,563L-822,571L-813,567L-810,558L-803,552L-793,553L-790,561L-784,553L-776,551L-767,550L-759,550L-751,553L-743,554L-739,561L-734,568L-726,564L-717,563L-709,563L-701,563L-693,560L-685,557L-679,551L-672,547L-664,545L-658,539L-654,528L-650,521L-642,524L-639,532L-633,536L-625,535L-620,542L-615,548L-607,543L-604,534L-598,530L-590,523L-583,520L-574,516L-568,512L-562,507L-556,503L-549,505L-542,499L-537,493L-530,494L-524,489L-523,482L-517,477L-510,474L-503,471L-496,469L-490,471L-483,472L-477,477L-476,485L-469,492L-465,497L-456,499L-451,505L-445,510L-438,511L-432,507L-425,499L-418,503L-411,506L-404,508L-397,510L-389,510L-383,531L-383,536L-384,546L-391,551L-397,559L-396,568L-388,568L-389,577L-393,585L-396,595L-390,602L-382,605L-373,601L-369,591L-367,582L-363,575L-358,568L-356,561L-352,550L-347,548L-339,547L-332,544L-324,541L-320,533L-318,525L-313,518L-306,512L-299,509L-295,502L-291,499L-286,495L-278,497L-272,495L-264,493L-256,494L-251,489L-247,477L-244,482L-241,491L-234,494L-227,496L-220,494L-212,495L-205,495L-201,494L-194,495L-189,499L-182,496L-174,496L-167,494L-159,496L-154,490L-151,484L-146,478L-136,465L-131,467L-126,472L-121,479L-111,490L-104,491L-97,491L-89,488L-81,486L-75,481L-70,475L-61,474L-56,471L-50,474L-46,480L-41,486L-33,485L-28,490L-19,495L-9,497L-2,495L4,489L9,483L16,482L22,484L30,486L37,483L44,483L50,485L57,487L64,484L72,481L80,480L88,480L95,478L102,477L104,468L104,460L109,465L110,473L113,481L116,487L122,491L130,490L140,489L147,488L157,488L164,488L173,488L182,490L187,496L186,503L190,509L198,514L207,519L216,522L226,525L234,529L242,529L247,522L254,528L260,534L266,539L275,541L284,544L287,552L296,558L302,565L310,569L318,568L327,570L335,569L344,571L353,574L360,580L368,584L373,591L372,601L369,609L365,620L363,629L359,640L349,644L345,654L335,660L332,671L327,682L321,691L318,703L316,715L316,729L316,741L320,754L322,767L325,780L339,785L342,801L329,807L317,816L303,817L297,840L295,861L292,877L288,894L298,910L302,931L308,951L317,969L328,987L339,1006L356,1026L360,1058L381,1074L383,1079L388,1101L409,1082L426,1106L439,1125L439,1125L439,1153L439,1153ZM-2244,1153L-2244,1125L-2244,1125L-2244,1125L-2244,1125L-2244,1126L-2237,1081L-2224,1104L-2223,1102L-2215,1078L-2214,1079L-2213,1079L-2202,1111L-2193,1079L-2191,1075L-2169,1062L-2162,1079L-2159,1088L-2147,1113L-2126,1134L-2114,1153L-2244,1153Z" fill="#E0E0E0" stroke="#fff" stroke-width=".4"/></g><g clip-path="url(#v)"><path d="M387.6,149.9L388.5,149.9L389.2,149.2L390.1,148.6L390.9,148.1L392.2,147.0L392.6,146.9L393.4,146.6L393.8,146.4L394.2,146.3L393.8,147.0L393.4,147.2L393.3,147.4L393.6,147.8L393.2,148.4L393.2,149.0L392.7,149.8L393.4,149.5L393.7,149.0L393.6,148.7L393.9,148.1L394.4,147.8L394.2,147.4L394.2,147.1L394.8,147.2L395.1,147.2L395.3,147.0L395.8,147.0L395.9,147.4L396.4,147.3L396.2,147.8L395.8,148.4L395.7,148.7L395.0,149.3L394.5,149.5L395.2,149.6L396.3,148.8L396.9,148.2L396.9,149.0L396.4,149.7L395.9,150.2L395.4,150.4L395.0,150.8L394.7,151.4L394.7,151.8L394.9,152.1L395.4,152.7L394.8,153.8L395.5,153.6L395.8,153.9L396.3,154.5L396.0,155.2L395.8,155.6L394.5,157.1L394.0,157.9L393.3,158.4L393.4,159.2L393.0,159.8L391.1,161.9L390.8,162.3L389.3,165.6L388.4,166.9L387.8,167.4L387.3,167.8L385.9,168.4L385.3,169.2L384.6,169.8L383.9,170.0L384.0,170.2L384.4,170.4L384.8,170.8L384.5,171.3L384.0,171.6L383.5,171.6L383.2,171.9L384.4,171.7L384.8,172.0L384.9,172.5L385.0,172.9L385.3,173.6L386.3,173.9L387.3,174.1L387.5,174.4L387.6,175.4L387.4,175.8L387.2,176.2L386.9,176.3L386.2,176.3L385.4,176.1L384.9,175.5L383.4,175.7L383.0,175.8L382.8,175.7L383.6,175.1L383.2,174.8L382.9,174.6L382.5,174.8L382.2,175.2L382.2,175.7L381.9,176.0L381.5,176.1L380.9,175.7L380.4,175.0L379.6,174.4L379.7,174.8L380.3,175.7L380.6,176.4L379.9,176.9L379.1,177.3L378.5,177.5L377.9,177.9L377.1,178.5L376.7,178.7L375.7,178.7L375.1,178.9L374.9,179.6L374.5,180.1L373.6,180.2L373.9,180.3L374.2,180.6L373.5,182.9L373.4,183.8L373.3,185.5L372.9,187.0L371.8,187.0L372.0,187.3L372.8,187.7L372.7,188.3L371.7,189.5L371.4,190.2L371.0,191.9L370.5,193.4L369.6,195.2L369.6,195.5L369.9,195.9L370.2,196.3L370.3,196.9L370.2,197.2L369.8,197.2L369.4,197.4L367.5,197.9L366.9,198.5L366.4,199.4L365.8,200.3L363.8,202.2L362.6,203.7L362.4,204.2L362.0,204.5L359.5,205.2L357.7,205.3L356.7,205.2L355.7,204.8L355.2,204.6L354.2,204.9L353.7,205.1L352.9,204.9L352.3,205.1L352.1,204.9L351.9,204.4L352.0,203.8L351.9,203.4L351.5,203.1L351.2,202.7L350.9,202.5L350.0,202.3L348.7,202.5L348.3,202.5L347.4,201.0L347.1,200.6L346.0,200.2L345.7,200.2L345.1,201.0L344.8,201.1L342.8,201.2L340.8,201.0L340.0,200.7L339.9,200.0L341.4,198.1L340.9,198.3L340.0,199.1L339.4,199.0L340.0,198.2L340.0,197.8L339.9,197.4L339.1,198.1L338.2,198.2L338.1,197.5L338.2,196.7L338.4,196.5L340.8,196.1L341.7,195.9L342.0,195.5L340.6,195.3L340.5,194.8L340.7,194.3L341.9,193.5L341.1,193.7L340.0,193.7L340.1,192.9L340.4,192.2L341.4,192.2L341.1,191.8L341.1,191.2L341.4,191.2L342.4,192.0L343.2,192.3L342.9,191.7L342.9,191.3L343.1,191.1L343.7,191.0L343.6,190.9L343.0,190.7L342.3,190.3L342.2,189.8L342.2,189.2L343.0,188.4L343.4,188.9L344.0,188.8L343.6,188.4L343.3,187.9L343.5,187.5L345.1,186.1L345.5,187.5L345.6,187.0L345.6,186.6L345.4,186.2L345.5,185.8L345.6,185.5L346.3,185.2L347.2,184.1L347.9,183.7L348.4,184.0L348.8,184.4L348.7,184.0L348.5,183.6L348.4,182.7L349.6,181.2L350.9,179.8L352.2,178.3L352.9,177.8L354.3,177.2L355.2,177.4L355.5,177.4L356.9,176.3L357.4,176.0L357.9,176.4L358.3,176.6L357.9,175.6L358.2,175.2L359.3,174.4L360.8,173.6L361.8,173.2L362.7,172.7L363.1,172.7L363.1,172.3L363.1,171.9L363.6,171.9L363.7,171.8L363.3,171.5L364.5,170.8L365.1,169.9L365.5,169.7L365.8,169.5L366.2,168.9L366.6,168.7L367.0,168.8L367.3,169.1L367.2,168.6L366.6,168.3L367.2,167.9L367.8,167.6L368.4,167.8L368.9,168.1L368.4,167.6L368.3,167.3L369.0,166.9L369.3,166.8L369.8,167.5L369.8,166.9L369.9,166.4L370.6,165.7L371.6,164.3L371.9,164.8L372.0,165.3L371.9,166.0L372.1,165.8L372.2,165.2L372.0,164.1L373.3,162.1L373.5,161.9L373.7,161.8L374.2,161.7L374.0,161.4L373.7,161.1L374.0,160.1L374.2,159.0L374.5,157.9L375.0,156.8L375.5,155.0L375.8,154.7L376.8,154.5L377.3,154.3L378.0,153.6L378.9,152.5L379.4,151.5L380.0,149.1L380.3,146.6L381.3,144.8L382.8,143.4L384.1,142.4L384.6,142.2L385.5,142.1L386.3,142.4L384.7,142.6L384.6,143.3L384.5,143.8L384.7,144.4L385.0,144.9L385.8,145.4L386.6,145.6L387.0,146.7L387.1,147.9L387.3,149.0ZM393.6,145.8L392.5,146.4L392.6,146.0L392.8,145.1L393.2,144.7L393.5,144.6L393.9,144.3L393.9,145.0ZM340.1,194.9L340.1,195.4L340.0,195.6L339.7,195.6L339.4,195.6L339.0,195.4L338.7,195.4L338.5,195.3L338.8,194.7L339.7,194.4L340.0,194.7ZM341.9,189.8L342.2,191.1L341.5,190.8L341.2,190.5L341.8,189.8ZM350.6,207.9L350.6,208.3L349.8,208.1L349.8,208.6L350.4,208.9L350.6,209.2L351.3,209.1L351.4,209.7L351.3,210.1L350.8,210.5L349.6,210.7L348.8,211.3L348.1,211.2L347.9,211.3L347.1,212.0L346.2,212.3L345.9,212.2L346.0,211.6L346.7,210.9L346.7,210.3L346.9,209.9L347.5,209.5L347.5,208.9L348.0,208.3L347.7,207.2L347.9,206.1L349.1,206.0ZM405.7,102.1L405.7,102.6L405.2,102.4L405.0,102.0L404.3,101.6L404.2,101.5L404.2,100.7L404.5,100.4L404.5,100.2L404.7,100.1L405.0,100.5L405.5,101.1ZM388.7,89.7L388.9,90.1L389.3,89.9L389.6,89.4L390.1,88.9L390.0,89.7L390.3,89.8L391.9,90.4L392.2,90.8L392.6,91.0L392.8,90.7L393.0,90.6L393.6,90.9L395.0,91.6L395.1,91.9L395.0,92.3L395.1,92.7L395.3,93.1L395.7,93.1L396.3,92.6L396.6,92.6L397.0,93.3L397.1,93.7L397.0,93.7L397.3,94.1L397.6,94.5L398.2,95.6L398.1,96.1L398.0,96.4L398.5,97.5L398.2,97.6L397.1,97.4L397.1,97.6L397.7,98.4L398.3,99.5L398.7,100.2L400.2,102.3L399.9,103.1L400.0,103.6L399.8,104.0L400.3,105.1L400.0,105.5L399.8,106.7L399.5,106.8L399.6,107.3L400.2,107.4L400.5,107.6L400.8,107.9L401.0,107.5L401.3,107.4L402.0,107.9L403.5,108.5L403.9,108.7L404.1,109.1L404.2,110.2L404.5,110.7L405.1,110.8L405.7,110.6L405.9,110.2L405.7,109.2L405.3,107.5L405.3,106.9L405.4,106.4L405.3,105.9L405.0,105.3L404.8,105.0L404.5,104.6L404.6,104.1L405.1,103.9L405.3,104.3L405.6,104.8L406.7,106.4L407.4,106.3L407.5,106.9L407.9,107.6L408.2,108.4L408.5,110.7L409.0,112.8L410.0,113.8L410.1,114.3L409.5,114.0L409.3,114.2L409.4,114.4L409.9,114.8L410.5,115.0L410.9,115.0L411.3,115.1L413.7,116.5L414.8,117.1L417.8,118.0L418.6,118.1L419.0,118.1L419.9,117.7L420.7,117.2L421.4,116.3L422.0,115.4L422.6,114.9L423.3,114.5L423.7,114.2L424.1,113.9L426.0,114.1L426.7,114.5L427.6,114.9L428.0,115.2L427.8,115.9L427.3,116.8L426.9,117.8L426.6,120.0L426.3,122.4L426.0,123.4L425.4,124.2L424.6,124.7L423.8,125.0L423.5,126.3L423.3,127.9L423.4,128.3L423.6,128.6L423.7,129.0L423.3,130.0L423.1,129.8L422.7,129.1L422.4,128.7L421.4,128.5L420.4,128.4L419.6,128.5L418.8,128.8L417.5,129.5L417.1,129.8L416.8,130.2L416.2,131.2L416.1,132.4L416.1,133.0L416.3,133.5L417.4,134.2L416.3,136.5L415.4,138.9L414.8,139.5L414.2,140.2L413.7,141.6L412.6,142.9L412.0,143.8L411.4,144.9L411.0,145.9L410.0,147.4L409.6,148.4L409.0,149.2L407.9,150.3L406.8,151.2L405.0,152.5L404.5,152.9L403.9,153.2L403.3,152.8L403.2,152.4L403.0,151.6L402.9,151.3L402.0,151.0L400.9,151.4L400.8,151.3L400.7,151.1L400.7,149.9L400.9,149.5L400.6,149.3L400.4,149.4L400.3,149.7L400.5,150.0L399.8,150.3L399.2,150.4L399.0,150.2L398.9,150.0L399.1,149.6L399.3,149.3L400.5,147.7L401.8,145.6L402.8,143.4L403.1,142.3L403.5,140.1L403.2,139.3L402.8,138.4L401.7,136.9L400.2,136.0L399.3,135.8L398.4,135.5L397.6,134.8L396.8,133.9L395.3,133.1L393.7,132.6L392.8,131.8L392.6,131.3L392.4,130.7L392.4,130.2L392.6,129.7L392.7,129.3L393.0,129.0L394.7,128.0L396.5,127.4L396.8,127.4L397.2,127.3L397.6,127.0L398.4,126.2L398.6,125.6L398.8,123.9L399.1,122.2L399.5,120.3L400.2,119.1L400.5,118.4L400.2,117.2L400.4,116.7L400.8,116.4L401.1,116.3L400.5,115.2L399.8,113.5L399.6,113.0L399.7,112.4L399.9,111.9L399.5,111.8L399.2,111.3L398.6,109.7L398.7,109.4L399.1,109.6L399.7,110.8L399.8,110.2L400.2,109.8L400.6,109.6L401.1,109.6L400.0,108.2L399.7,108.3L399.2,108.5L398.7,108.6L398.2,108.5L397.7,108.2L397.5,107.7L397.2,106.6L397.0,106.2L395.6,104.0L396.0,104.0L397.2,105.0L397.4,104.7L397.6,104.2L397.5,103.6L397.2,103.2L396.8,103.0L396.8,102.5L397.1,102.0L397.1,101.7L396.5,101.1L396.2,101.0L396.1,101.3L396.2,101.7L396.1,101.8L394.4,100.6L394.0,99.7L393.6,98.6L393.5,99.1L393.6,99.6L394.2,100.8L395.3,102.1L395.4,102.5L395.3,103.0L394.9,103.1L394.6,102.8L394.1,101.7L393.8,101.1L389.8,95.3L390.3,94.5L391.1,93.9L391.3,93.6L391.4,93.2L391.1,93.2L390.8,93.3L390.4,93.6L390.1,94.0L389.7,94.7L389.5,94.9L389.1,94.4L388.9,94.1L388.9,93.7L388.8,93.4L388.4,93.3L387.9,92.6L387.6,92.2L388.1,91.5L388.2,90.5L387.6,89.5L387.0,88.5L385.7,87.0L384.5,85.4L385.8,85.2L387.1,85.2L386.5,86.1L386.7,86.7L387.1,87.1L388.0,88.6L388.1,89.0L388.5,89.4ZM358.3,272.9L358.7,273.5L357.9,273.8L357.5,273.5L357.2,273.3L357.1,272.9L357.5,272.9L357.9,272.7ZM336.2,252.0L336.4,253.0L336.0,253.0L335.1,252.7L334.9,252.3L334.7,252.2L334.3,252.7L333.9,252.7L333.7,252.6L333.9,252.1L335.1,251.1L335.3,249.8L335.3,249.4L336.3,249.3L336.5,249.5L336.5,249.6L336.5,249.9L336.1,250.3L336.1,250.7L336.2,251.2L335.9,251.5L336.1,251.9ZM-2215.5,174.8L-2215.8,175.0L-2216.2,175.0L-2217.1,176.1L-2217.0,175.3L-2217.2,175.0L-2217.9,175.1L-2218.0,175.2L-2217.6,175.5L-2217.5,175.6L-2217.9,176.0L-2217.5,177.0L-2217.1,177.0L-2216.7,177.7L-2216.7,178.0L-2217.6,178.3L-2218.0,178.7L-2218.5,178.7L-2218.7,178.6L-2218.9,177.8L-2218.9,177.5L-2218.4,177.0L-2218.1,176.4L-2218.3,175.9L-2218.9,175.6L-2220.2,175.8L-2220.5,175.7L-2219.9,175.0L-2219.2,175.0L-2218.4,174.5ZM-2215.5,180.8L-2215.8,180.9L-2215.8,180.3L-2215.9,179.9L-2215.4,179.8L-2215.1,180.3ZM-2188.0,-124.2L-2188.0,-124.2L-2188.0,-124.3L-2188.1,-124.4L-2188.1,-124.5L-2188.1,-124.5L-2188.0,-124.4L-2188.0,-124.3ZM-2178.3,-118.4L-2178.3,-118.4L-2178.4,-118.4L-2178.4,-118.5L-2178.5,-118.6L-2178.4,-118.6L-2178.4,-118.5L-2178.4,-118.5Z" fill="#4ECDC4" stroke="#2C3E50" stroke-width="1"/></g><circle cx="400.0" cy="150.0" r="4" fill="#E74C3C" stroke="#fff" stroke-width="2"/><text x="400.0" y="140.0" text-anchor="middle" font-family="sans-serif" font-weight="700" font-size="10" fill="#2D3436">Wellington</text></svg>