<svg viewBox="0 0 800 300" xmlns="http://www.w3.org/2000/svg"><defs><clipPath id="v"><rect width="800" height="300"/></clipPath></defs><rect width="800" height="300" fill="#DCEEF8"/><g clip-path="url(#v)"><path d="M118,439L120,440L162,463L163,470L179,481L174,495L174,502L182,506L182,509L179,516L180,519L179,525L183,532L187,544L192,546L183,553L170,557L163,557L159,561L151,561L148,563L134,559L126,560L123,544L119,539L117,536L105,534L99,530L92,528L87,526L82,523L76,509L69,502L67,496L68,490L66,479L71,479L75,474L80,468L82,466L82,462L80,460L79,455L82,454L83,447L79,441L83,439L95,439Z" fill="#E0E0E0" stroke="#fff" stroke-width=".4"/><path d="M729,-221L721,-209L711,-207L711,-190L704,-183L682,-188L673,-158L668,-155L645,-148L655,-121L647,-117L648,-108L641,-110L636,-116L619,-117L600,-118L595,-116L579,-123L573,-119L571,-110L552,-115L545,-113L542,-106L535,-104L520,-93L515,-82L511,-82L508,-89L493,-90L491,-102L486,-102L486,-118L473,-129L453,-128L440,-126L429,-140L419,-146L402,-158L400,-159L370,-150L371,-92L365,-91L357,-103L349,-107L336,-104L331,-99L330,-103L333,-109L331,-115L318,-120L313,-134L306,-138L306,-143L317,-142L317,-154L327,-156L337,-154L339,-170L337,-180L326,-179L316,-183L303,-176L292,-173L286,-175L287,-184L280,-195L272,-195L262,-206L269,-219L265,-223L274,-242L286,-232L288,-245L311,-265L329,-265L354,-253L368,-245L380,-253L398,-253L413,-244L416,-249L432,-249L435,-257L416,-270L427,-279L425,-284L436,-289L428,-302L433,-309L476,-316L481,-320L510,-328L520,-336L541,-332L545,-311L556,-316L571,-309L570,-299L581,-300L610,-318L606,-312L620,-297L646,-250L652,-259L668,-249L684,-254L690,-250L696,-240L704,-236L709,-229L723,-231Z" fill="#E0E0E0" stroke="#fff" stroke-width=".4"/><path d="M371,-92L370,-150L400,-159L402,-158L419,-146L429,-140L440,-126L453,-128L473,-129L486,-118L486,-102L491,-102L493,-90L508,-89L511,-82L515,-82L520,-93L535,-104L542,-106L545,-105L536,-95L544,-89L552,-93L566,-85L551,-74L543,-76L538,-75L536,-80L539,-87L523,-83L520,-73L514,-65L505,-66L502,-59L510,-56L513,-45L506,-30L498,-33L491,-33L492,-42L476,-49L464,-56L457,-63L444,-73L438,-88L434,-91L422,-90L418,-94L416,-106L401,-114L391,-105L382,-100L383,-92Z" fill="#E0E0E0" stroke="#fff" stroke-width=".4"/><path d="M1343,457L1343,495L1343,532L1333,523L1321,521L1318,524L1304,524L1309,515L1316,512L1313,499L1308,489L1285,480L1276,479L1259,468L1255,474L1251,475L1248,471L1248,466L1240,460L1252,456L1260,456L1259,453L1242,453L1238,446L1228,444L1223,438L1238,436L1244,432L1262,437L1264,441L1267,459L1279,466L1289,454L1302,447L1312,447L1322,451L1330,455ZM1159,530L1161,532L1161,536L1153,544L1144,547L1142,545L1143,541L1148,534ZM1265,507L1264,498L1266,494L1268,490L1271,493L1271,499ZM1078,380L1072,391L1080,401L1078,407L1091,417L1078,419L1074,426L1074,437L1063,445L1063,456L1059,474L1057,469L1044,475L1039,468L1031,467L1026,463L1012,467L1008,462L1000,463L991,461L989,446L983,443L978,433L976,423L978,412L984,405L986,412L994,419L1002,416L1009,417L1016,412L1021,411L1032,414L1041,411L1047,395L1051,391L1055,378L1068,378ZM1210,460L1222,463L1226,472L1217,467L1207,466L1201,467L1193,466L1196,460ZM1181,471L1173,469L1171,464L1183,463L1185,467ZM1193,403L1194,409L1201,410L1202,415L1201,425L1195,424L1194,431L1198,437L1195,438L1191,431L1187,416L1190,407ZM1136,418L1149,417L1161,409L1163,411L1153,423L1145,425L1134,423L1115,423L1105,425L1103,434L1113,444L1119,439L1141,435L1140,440L1135,438L1130,445L1120,449L1131,464L1129,468L1139,481L1139,489L1133,492L1128,488L1134,479L1122,483L1120,480L1121,476L1113,469L1114,458L1106,461L1107,475L1108,491L1100,493L1095,489L1099,479L1097,468L1092,468L1089,460L1093,452L1095,443L1101,426L1103,421L1113,413L1122,416ZM1106,546L1091,537L1101,535L1107,539L1111,542L1111,545ZM1118,526L1126,525L1136,520L1134,527L1117,530L1102,529L1102,525L1111,522ZM1083,524L1090,523L1093,528L1079,530L1071,531L1065,531L1069,525L1076,525L1079,520ZM971,501L973,505L994,506L997,502L1018,507L1022,515L1039,517L1054,524L1040,528L1028,523L1018,524L1006,523L995,521L982,516L973,515L969,517L948,512L946,507L935,506L943,495L957,496L966,500ZM924,440L926,448L930,454L938,455L944,463L941,477L940,495L928,495L918,485L904,476L899,469L890,460L884,451L876,435L866,426L862,416L858,407L848,400L842,390L833,383L821,371L820,365L828,365L845,368L855,379L864,387L870,391L881,404L893,404L903,412L909,421L918,426L913,436L920,440Z" fill="#E0E0E0" stroke="#fff" stroke-width=".4"/><path d="M66,479L68,490L67,496L69,502L76,509L82,523L78,522L62,524L59,525L56,533L59,538L57,552L55,563L58,565L66,570L69,568L70,581L62,580L57,574L53,569L44,567L41,561L34,565L25,563L21,558L14,557L9,557L8,554L4,553L-1,553L-8,554L-13,554L-16,555L-15,541L-19,537L-20,530L-18,523L-21,518L-21,511L-35,511L-34,507L-40,507L-40,509L-47,510L-50,516L-52,519L-58,518L-62,519L-69,520L-74,514L-76,510L-80,504L-83,495L-116,495L-120,496L-124,496L-128,497L-130,494L-127,493L-127,488L-125,485L-121,482L-118,484L-114,479L-108,479L-107,482L-103,485L-96,477L-89,472L-86,468L-87,459L-82,448L-76,442L-69,436L-68,432L-67,428L-65,424L-66,418L-65,408L-62,401L-59,394L-58,388L-57,380L-53,374L-47,370L-37,374L-30,378L-22,379L-13,382L-10,375L-8,374L-3,375L10,369L14,372L18,371L20,368L24,367L33,369L40,369L44,368L51,377L56,379L59,377L64,377L70,375L73,380L83,387L83,401L87,402L83,406L79,410L75,415L72,421L72,430L69,434L69,443L66,446L65,453L64,454L63,460L65,465Z" fill="#E0E0E0" stroke="#fff" stroke-width=".4"/><path d="M206,447L199,437L199,396L209,383L212,379L220,379L230,371L245,370L277,336L285,326L290,319L290,313L290,301L290,297L290,296L294,296L299,294L305,293L311,289L315,289L315,292L314,299L314,305L312,309L309,322L303,335L296,350L286,367L277,379L263,395L252,404L235,416L224,424L211,438L209,444Z" fill="#E0E0E0" stroke="#fff" stroke-width=".4"/><path d="M179,481L163,470L162,463L120,440L118,439L118,426L122,422L127,414L131,406L126,393L125,387L120,379L127,372L134,365L140,367L140,373L144,377L152,377L167,386L170,387L173,386L175,388L183,389L186,384L197,379L201,383L209,383L199,396L199,437L206,447L198,451L195,456L191,457L189,465L186,470L184,477Z" fill="#E0E0E0" stroke="#fff" stroke-width=".4"/><path d="M12,333L3,328L-1,325L-2,321L0,316L0,312L-7,304L-8,299L-8,297L-12,293L-12,286L-14,282L-18,283L-17,278L-14,273L-16,268L-12,265L-14,262L-11,255L-6,246L4,247L3,199L3,194L17,194L17,170L63,170L107,170L152,170L156,182L153,184L155,197L159,211L164,214L170,218L164,225L156,227L152,231L151,239L146,256L147,261L145,271L141,283L134,288L129,297L128,302L122,305L119,318L119,328L119,319L117,319L118,313L116,309L110,304L109,296L110,287L105,287L104,289L97,290L100,293L101,300L95,307L89,315L83,316L74,309L69,312L68,315L62,317L62,320L51,320L49,317L41,317L37,319L33,318L28,311L26,308L17,310L14,315L11,325L7,327L4,329Z" fill="#E0E0E0" stroke="#fff" stroke-width=".4"/><path d="M3,199L4,247L-6,246L-11,255L-14,262L-12,265L-16,268L-14,273L-17,278L-18,283L-14,282L-12,286L-12,293L-8,297L-8,299L-15,301L-21,306L-29,319L-40,324L-51,323L-54,325L-53,329L-59,333L-64,337L-78,342L-81,339L-83,339L-85,342L-95,343L-93,339L-96,331L-98,327L-103,325L-110,318L-107,312L-102,314L-99,313L-92,313L-99,302L-98,295L-99,287L-104,279L-102,274L-110,274L-110,266L-114,262L-109,246L-95,235L-94,219L-90,195L-87,189L-92,185L-92,181L-97,178L-99,159L-88,152L-42,176Z" fill="#E0E0E0" stroke="#fff" stroke-width=".4"/><path d="M803,-1239L828,-1256L850,-1219L876,-1154L873,-1098L848,-1091L817,-1108L798,-1131L789,-1178L773,-1191ZM906,-1122L935,-1088L932,-1065L899,-1055L868,-1044L888,-1120L898,-1126ZM1318,-953L1348,-951L1389,-926L1380,-893L1338,-894L1319,-884L1297,-912L1303,-944ZM1425,-916L1454,-904L1441,-887L1422,-891L1401,-908L1404,-923ZM1330,-832L1341,-848L1355,-852L1371,-836L1372,-826L1355,-825L1332,-830ZM243,-1208L266,-1221L283,-1222L285,-1203L292,-1220L303,-1231L320,-1216L315,-1205L300,-1196L290,-1191L288,-1180L275,-1169L262,-1185L269,-1206ZM-9,-315L-30,-315L-44,-317L-42,-326L-26,-332L-14,-329L-9,-326L-10,-320ZM342,-847L370,-884L367,-904L392,-928L430,-958L468,-967L488,-986L510,-992L518,-972L510,-957L470,-934L435,-912L399,-871L382,-830L364,-793L367,-763L388,-734L382,-731L344,-735L341,-751L321,-760L319,-780L331,-788L330,-809L353,-842ZM1365,-303L1369,-285L1368,-266L1373,-248L1384,-216L1368,-222L1361,-197L1372,-180L1371,-168L1363,-178L1355,-165L1353,-179L1354,-196L1353,-214L1356,-228L1356,-251L1349,-269L1350,-295L1361,-304L1357,-313L1362,-316ZM-2327,-675L-2327,-675L-2299,-651L-2269,-621L-2270,-603L-2262,-596L-2265,-617L-2234,-613L-2211,-586L-2223,-574L-2242,-571L-2242,-545L-2246,-539L-2257,-540L-2266,-549L-2281,-557L-2284,-569L-2295,-573L-2308,-570L-2314,-579L-2312,-590L-2326,-583L-2320,-570L-2327,-559L-2327,-559L-2327,-675ZM1789,-559L1788,-558L1774,-547L1759,-549L1769,-535L1776,-513L1781,-506L1783,-496L1780,-490L1758,-495L1726,-477L1716,-474L1699,-457L1682,-443L1678,-432L1662,-448L1632,-430L1627,-439L1616,-429L1600,-432L1597,-417L1583,-396L1583,-387L1596,-382L1595,-352L1584,-351L1579,-334L1584,-325L1564,-315L1560,-293L1543,-289L1540,-270L1523,-253L1519,-265L1514,-293L1508,-336L1513,-364L1523,-377L1523,-387L1541,-392L1562,-419L1581,-443L1602,-462L1611,-496L1597,-494L1590,-473L1561,-447L1552,-477L1522,-468L1494,-429L1503,-416L1478,-410L1460,-408L1461,-424L1443,-427L1429,-416L1394,-420L1356,-413L1319,-371L1276,-323L1294,-321L1299,-308L1310,-304L1318,-314L1330,-312L1347,-291L1347,-275L1338,-257L1337,-235L1332,-207L1315,-183L1311,-171L1295,-152L1280,-133L1273,-124L1257,-115L1250,-115L1243,-122L1228,-111L1226,-106L1226,-106L1224,-108L1224,-116L1230,-117L1232,-135L1229,-149L1238,-155L1252,-152L1260,-168L1264,-186L1268,-192L1274,-208L1255,-203L1246,-196L1228,-196L1224,-212L1210,-224L1190,-230L1186,-248L1182,-259L1178,-267L1171,-286L1161,-293L1143,-298L1128,-298L1114,-294L1105,-285L1111,-280L1111,-270L1105,-264L1094,-245L1094,-237L1078,-226L1065,-232L1051,-231L1045,-237L1038,-239L1021,-226L1006,-223L996,-219L981,-222L971,-222L964,-231L953,-239L941,-242L927,-239L916,-236L900,-243L898,-257L884,-262L874,-264L861,-272L849,-253L854,-242L843,-230L826,-234L815,-235L807,-243L795,-243L785,-249L768,-240L746,-225L734,-222L729,-221L723,-231L709,-229L704,-236L696,-240L690,-250L684,-254L668,-249L652,-259L646,-250L620,-297L606,-312L610,-318L581,-300L570,-299L571,-309L556,-316L545,-311L541,-332L520,-336L510,-328L481,-320L476,-316L433,-309L428,-302L436,-289L425,-284L427,-279L416,-270L435,-257L432,-249L416,-249L413,-244L398,-253L380,-253L368,-245L354,-253L329,-265L311,-265L288,-245L286,-232L274,-242L265,-223L269,-219L262,-206L272,-195L280,-195L287,-184L286,-175L292,-173L287,-163L276,-160L264,-143L275,-128L274,-118L286,-99L279,-93L277,-89L272,-90L264,-100L261,-100L254,-104L251,-110L240,-113L233,-111L231,-114L215,-121L199,-124L189,-127L188,-125L173,-138L160,-144L150,-154L158,-156L168,-170L161,-177L178,-183L178,-187L168,-184L168,-192L174,-197L185,-198L187,-203L184,-213L189,-222L189,-227L172,-233L165,-233L158,-241L149,-238L135,-245L135,-248L131,-256L122,-257L121,-263L124,-266L117,-277L105,-275L101,-276L98,-272L94,-273L91,-285L89,-291L91,-293L100,-292L105,-296L101,-301L94,-305L94,-308L90,-312L82,-325L85,-330L84,-339L73,-344L67,-342L65,-347L53,-352L49,-364L48,-374L43,-379L48,-386L44,-406L52,-419L51,-423L64,-436L52,-447L76,-477L87,-491L91,-504L74,-521L79,-538L69,-558L76,-581L63,-614L73,-636L56,-656L58,-679L67,-681L86,-694L98,-706L117,-686L148,-678L191,-643L200,-629L201,-609L188,-594L170,-587L119,-608L110,-605L129,-584L130,-571L130,-543L145,-535L154,-529L155,-541L148,-553L156,-563L183,-546L193,-553L185,-573L212,-600L223,-599L233,-589L240,-608L230,-626L236,-644L228,-663L260,-653L266,-636L252,-632L252,-616L261,-606L278,-612L281,-631L305,-645L345,-672L353,-670L342,-651L356,-648L365,-659L386,-660L403,-673L416,-654L429,-675L417,-693L423,-704L457,-694L473,-684L514,-648L522,-664L510,-681L510,-688L496,-691L500,-707L494,-733L493,-744L514,-777L522,-811L530,-819L561,-809L563,-788L552,-758L559,-746L563,-722L560,-677L573,-658L568,-637L546,-596L559,-592L563,-602L576,-609L579,-624L589,-638L582,-655L587,-676L575,-679L572,-697L581,-730L566,-759L587,-784L584,-811L590,-812L596,-791L591,-755L604,-749L598,-775L618,-789L641,-791L662,-770L652,-801L651,-843L671,-851L699,-850L723,-855L714,-877L727,-906L740,-907L763,-929L793,-935L797,-948L827,-953L836,-942L862,-968L883,-967L886,-988L897,-1010L924,-1032L943,-1014L928,-1002L954,-994L957,-969L967,-981L1001,-981L1026,-957L1036,-939L1033,-915L1020,-902L990,-878L981,-865L996,-859L1012,-849L1023,-857L1029,-831L1034,-841L1052,-847L1089,-841L1091,-822L1139,-816L1140,-847L1164,-840L1182,-840L1201,-819L1206,-794L1199,-779L1214,-750L1232,-736L1243,-773L1261,-757L1280,-767L1303,-756L1311,-766L1330,-761L1321,-795L1337,-812L1389,-801L1440,-787L1450,-765L1479,-738L1526,-744L1548,-739L1558,-724L1557,-700L1571,-691L1586,-697L1606,-698L1628,-692L1649,-695L1669,-667L1684,-677L1674,-698L1679,-712L1716,-703L1740,-705L1773,-689L1789,-675L1789,-559ZM1789,-737L1776,-736L1774,-747L1789,-762L1789,-737ZM-2327,-762L-2327,-762L-2327,-762L-2325,-763L-2316,-763L-2299,-753L-2300,-748L-2312,-740L-2327,-737L-2327,-737L-2327,-762ZM113,-166L116,-170L124,-166L128,-165L129,-162L131,-162L131,-160L137,-156L148,-157L146,-152L134,-149L118,-139L112,-143L114,-150L102,-155L104,-158L115,-164Z" fill="#E0E0E0" stroke="#fff" stroke-width=".4"/><path d="M-860,380L-867,391L-870,399L-874,403L-880,404L-881,401L-884,400L-888,404L-893,401L-890,396L-889,391L-887,386L-891,379L-892,372L-886,362L-882,363L-874,366L-862,375ZM-198,-225L-193,-220L-177,-217L-182,-205L-184,-193L-187,-190L-192,-192L-192,-187L-200,-178L-200,-170L-195,-173L-191,-166L-191,-161L-188,-155L-192,-150L-189,-138L-183,-136L-184,-129L-195,-120L-217,-124L-234,-119L-235,-110L-248,-108L-261,-115L-265,-111L-286,-118L-291,-125L-285,-134L-283,-166L-295,-184L-303,-192L-321,-199L-322,-211L-307,-215L-288,-211L-291,-230L-281,-223L-254,-237L-250,-251L-240,-255L-239,-249L-234,-248L-228,-241L-220,-233L-214,-234L-204,-226L-202,-224ZM-169,-112L-162,-118L-160,-105L-164,-93L-169,-96L-172,-106Z" fill="#E0E0E0" stroke="#fff" stroke-width=".4"/><path d="M-99,159L-97,178L-92,181L-92,185L-87,189L-90,195L-94,219L-95,235L-109,246L-114,262L-110,266L-110,274L-102,274L-104,279L-107,280L-107,284L-109,284L-117,271L-120,271L-129,277L-137,274L-144,273L-147,275L-154,274L-160,279L-166,280L-180,274L-185,277L-191,276L-196,272L-207,268L-219,269L-222,271L-224,278L-227,283L-228,293L-237,287L-241,287L-245,290L-244,282L-258,279L-258,274L-264,266L-266,261L-265,255L-258,255L-253,250L-238,249L-228,247L-227,240L-220,232L-220,204L-204,199L-171,175L-132,151L-114,157L-108,164Z" fill="#E0E0E0" stroke="#fff" stroke-width=".4"/><path d="M-238,356L-238,337L-238,330L-236,323L-232,319L-227,312L-228,309L-226,304L-228,297L-228,293L-227,283L-224,278L-222,271L-219,269L-207,268L-196,272L-191,276L-185,277L-180,274L-166,280L-160,279L-154,274L-147,275L-144,273L-137,274L-129,277L-120,271L-117,271L-109,284L-107,284L-103,288L-104,291L-104,294L-114,303L-117,311L-119,317L-121,319L-123,328L-130,332L-131,338L-134,343L-135,348L-143,352L-149,347L-154,347L-160,354L-164,354L-169,365L-172,373L-184,377L-188,377L-193,379L-202,379L-208,372L-212,363L-220,356L-228,356Z" fill="#E0E0E0" stroke="#fff" stroke-width=".4"/><path d="M-104,279L-99,287L-98,295L-99,302L-92,313L-99,313L-102,314L-107,312L-110,318L-103,325L-98,327L-96,331L-93,339L-95,343L-100,354L-103,356L-104,365L-103,370L-104,373L-98,379L-97,384L-93,389L-88,393L-87,398L-86,402L-87,408L-96,405L-105,402L-120,402L-121,401L-128,403L-135,401L-140,402L-159,402L-157,392L-162,385L-167,383L-169,378L-172,376L-172,373L-169,365L-164,354L-160,354L-154,347L-149,347L-143,352L-135,348L-134,343L-131,338L-130,332L-123,328L-121,319L-119,317L-117,311L-114,303L-104,294L-104,291L-103,288L-107,284L-107,280Z" fill="#E0E0E0" stroke="#fff" stroke-width=".4"/><path d="M44,368L40,369L33,369L24,367L20,368L18,371L14,372L10,369L-3,375L-8,374L-10,375L-13,382L-22,379L-30,378L-37,374L-47,370L-53,374L-57,380L-58,388L-66,387L-73,385L-80,391L-86,402L-87,398L-88,393L-93,389L-97,384L-98,379L-104,373L-103,370L-104,365L-103,356L-100,354L-95,343L-85,342L-83,339L-81,339L-78,342L-64,337L-59,333L-53,329L-54,325L-51,323L-40,324L-29,319L-21,306L-15,301L-8,299L-7,304L0,312L0,316L-2,321L-1,325L3,328L12,333L18,338L18,342L26,348L30,353L33,360L42,364Z" fill="#E0E0E0" stroke="#fff" stroke-width=".4"/><path d="M-58,388L-59,394L-62,401L-65,408L-66,418L-65,424L-67,428L-68,432L-69,436L-76,442L-82,448L-87,459L-86,468L-89,472L-96,477L-103,485L-107,482L-108,479L-114,479L-118,484L-121,482L-125,478L-128,480L-133,485L-142,473L-134,467L-138,459L-134,456L-126,455L-125,450L-119,455L-109,456L-106,450L-104,443L-106,434L-111,427L-106,414L-109,412L-117,413L-121,407L-120,402L-105,402L-96,405L-87,408L-86,402L-80,391L-73,385L-66,387Z" fill="#E0E0E0" stroke="#fff" stroke-width=".4"/><path d="M-140,402L-135,401L-128,403L-121,401L-120,402L-121,407L-117,413L-109,412L-106,414L-111,427L-106,434L-104,443L-106,450L-109,456L-119,455L-125,450L-126,455L-134,456L-138,459L-134,467L-142,473L-154,462L-162,452L-169,440L-168,437L-166,433L-163,425L-161,416L-157,415L-140,416Z" fill="#E0E0E0" stroke="#fff" stroke-width=".4"/><path d="M-159,402L-140,402L-140,416L-157,415L-161,416L-163,414Z" fill="#E0E0E0" stroke="#fff" stroke-width=".4"/><path d="M-121,482L-125,485L-127,488L-127,493L-130,494L-133,485L-128,480L-125,478ZM-128,497L-124,496L-120,496L-116,495L-83,495L-80,504L-76,510L-74,514L-69,520L-62,519L-58,518L-52,519L-50,516L-47,510L-40,509L-40,507L-34,507L-35,511L-21,511L-21,518L-18,523L-20,530L-19,537L-15,541L-16,555L-13,554L-8,554L-1,553L4,553L5,557L4,563L6,568L4,572L5,576L-18,576L-19,614L-11,624L-4,631L-25,636L-53,634L-60,629L-107,629L-108,630L-115,625L-123,624L-130,626L-135,629L-136,621L-135,611L-131,600L-130,595L-126,584L-124,579L-117,571L-113,566L-112,558L-113,551L-116,547L-119,540L-122,533L-121,530L-118,526L-121,515L-124,507L-129,500Z" fill="#E0E0E0" stroke="#fff" stroke-width=".4"/><path d="M79,455L80,460L82,462L82,466L80,468L75,474L71,479L66,479L65,465L63,460L70,461L73,454Z" fill="#E0E0E0" stroke="#fff" stroke-width=".4"/><path d="M139,32L137,36L133,34L131,43L133,44L131,46L130,50L135,48L136,53L130,74L129,71L123,52L126,47L125,46L128,40L130,30L132,27L132,26L136,26L137,24L140,24L140,29L139,31Z" fill="#E0E0E0" stroke="#fff" stroke-width=".4"/><path d="M140,24L137,24L136,26L132,26L136,15L142,5L142,5L147,6L149,11L143,16Z" fill="#E0E0E0" stroke="#fff" stroke-width=".4"/><path d="M135,48L130,50L131,46L133,44L131,43L133,34L137,36L137,44Z" fill="#E0E0E0" stroke="#fff" stroke-width=".4"/><path d="M-161,64L-166,40L-173,34L-173,31L-182,23L-183,13L-176,5L-173,-7L-175,-20L-173,-27L-161,-33L-152,-32L-153,-24L-143,-30L-142,-27L-148,-20L-148,-13L-144,-10L-146,2L-153,9L-151,17L-145,17L-142,24L-138,26L-139,36L-144,40L-148,44L-155,50L-154,55L-155,61Z" fill="#E0E0E0" stroke="#fff" stroke-width=".4"/><path d="M-369,102L-368,99L-368,98L-368,83L-350,73L-339,71L-329,68L-325,61L-311,56L-311,46L-304,45L-299,40L-284,38L-282,32L-285,29L-289,15L-290,7L-294,-2L-283,-10L-271,-12L-263,-18L-252,-23L-233,-25L-214,-26L-208,-24L-198,-30L-185,-30L-181,-27L-173,-27L-175,-20L-173,-7L-176,5L-183,13L-182,23L-173,31L-173,34L-166,40L-161,64L-157,75L-157,81L-159,92L-158,98L-159,105L-158,113L-163,118L-156,128L-155,133L-151,140L-146,138L-137,144L-132,151L-171,175L-204,199L-220,204L-233,206L-233,198L-239,196L-246,192L-248,187L-287,160L-326,133Z" fill="#E0E0E0" stroke="#fff" stroke-width=".4"/><path d="M137,36L139,32L152,37L174,22L179,39L177,41L154,48L165,61L161,63L160,68L151,70L148,74L143,78L130,76L130,74L136,53L135,48L137,44Z" fill="#E0E0E0" stroke="#fff" stroke-width=".4"/><path d="M320,142L322,141L323,145L332,143L341,143L348,143L356,135L365,127L372,119L374,123L375,133L370,133L369,141L371,143L366,146L366,151L362,156L362,161L360,164L325,157L321,145Z" fill="#E0E0E0" stroke="#fff" stroke-width=".4"/><path d="M312,135L311,126L314,120L317,118L321,122L321,130L318,137L315,138Z" fill="#E0E0E0" stroke="#fff" stroke-width=".4"/><path d="M279,68L282,74L281,77L284,87L276,87L273,81L263,80L272,67Z" fill="#E0E0E0" stroke="#fff" stroke-width=".4"/><path d="M179,39L174,22L200,8L204,-9L203,-19L209,-23L215,-32L220,-34L233,-32L237,-28L243,-31L250,-14L258,-9L258,-1L253,4L250,14L258,27L272,35L278,45L276,55L280,55L280,62L286,69L279,68L272,67L263,80L242,79L210,52L193,43Z" fill="#E0E0E0" stroke="#fff" stroke-width=".4"/><path d="M904,287L901,273L908,263L923,261L934,263L943,267L948,259L958,264L961,271L960,285L940,294L945,302L933,302L924,307L914,305L909,299Z" fill="#E0E0E0" stroke="#fff" stroke-width=".4"/><path d="M934,263L923,261L908,263L901,273L904,287L893,282L883,282L885,273L875,273L874,286L868,303L864,313L865,322L873,322L877,332L879,342L886,349L893,350L898,356L895,361L887,362L886,357L877,352L875,354L870,349L868,343L862,337L857,331L855,338L853,332L854,325L857,314L863,302L869,291L865,280L865,275L864,268L856,259L853,253L857,251L861,240L857,232L849,224L844,213L849,211L854,198L862,197L869,192L875,189L880,193L881,200L889,201L886,213L886,224L898,217L902,219L908,219L911,215L919,215L928,225L929,237L938,247L937,257Z" fill="#E0E0E0" stroke="#fff" stroke-width=".4"/><path d="M958,264L948,259L943,267L934,263L937,257L938,247L929,237L928,225L919,215L911,215L908,219L902,219L898,217L886,224L886,213L889,201L881,200L880,193L875,189L878,185L887,177L888,180L895,180L893,166L899,164L905,174L911,185L925,185L929,196L922,199L918,203L932,210L942,225L949,235L958,243L960,252Z" fill="#E0E0E0" stroke="#fff" stroke-width=".4"/><path d="M875,189L869,192L862,197L854,198L849,211L844,213L849,224L857,232L861,240L857,251L853,253L856,259L864,268L865,275L865,280L869,291L863,302L857,314L856,305L860,296L856,289L857,276L852,270L849,256L847,241L842,231L834,237L821,246L815,245L808,242L811,227L809,216L800,202L802,198L795,196L787,186L786,176L790,178L790,169L796,166L795,161L797,157L798,144L807,147L812,136L812,130L819,120L818,112L833,103L841,106L840,98L844,96L843,91L850,90L854,97L859,100L859,110L859,121L848,131L847,146L859,144L861,156L869,158L865,168L874,173L879,175L887,172L887,177L878,185Z" fill="#E0E0E0" stroke="#fff" stroke-width=".4"/><path d="M924,307L933,302L945,302L940,294L960,285L961,271L958,264L960,252L958,243L949,235L942,225L932,210L918,203L922,199L929,196L925,185L911,185L905,174L899,164L905,161L914,161L925,160L935,153L940,158L951,160L949,167L954,172L966,175L951,186L941,197L939,206L947,218L958,234L969,241L975,251L981,273L979,293L970,301L957,309L947,318L933,329L929,322L932,314Z" fill="#E0E0E0" stroke="#fff" stroke-width=".4"/><path d="M734,-222L746,-225L768,-240L785,-249L795,-243L807,-243L815,-235L826,-234L843,-230L854,-242L849,-253L861,-272L874,-264L884,-262L898,-257L900,-243L916,-236L927,-239L941,-242L953,-239L964,-231L971,-222L981,-222L996,-219L1006,-223L1021,-226L1038,-239L1045,-237L1051,-231L1065,-232L1059,-219L1051,-202L1054,-195L1060,-197L1072,-194L1080,-201L1090,-195L1100,-183L1099,-177L1090,-179L1073,-177L1065,-172L1057,-161L1039,-155L1028,-147L1016,-150L1010,-151L1004,-141L1007,-135L1009,-130L1001,-124L993,-116L980,-110L962,-110L944,-104L931,-96L926,-101L912,-101L895,-110L884,-113L868,-110L845,-114L832,-114L826,-123L820,-137L813,-139L799,-149L784,-152L770,-154L766,-161L771,-181L763,-194L747,-201L737,-210Z" fill="#E0E0E0" stroke="#fff" stroke-width=".4"/><path d="M843,91L844,96L840,98L841,106L833,103L818,112L819,120L812,130L812,136L807,147L798,144L797,157L795,161L796,166L790,169L784,150L781,150L779,158L773,151L776,144L782,143L787,133L780,130L770,131L759,129L758,120L752,119L743,114L739,123L747,129L740,134L738,139L745,142L743,149L747,159L749,169L747,174L739,173L725,176L726,185L720,192L703,201L690,215L682,222L670,230L670,236L665,239L654,243L649,244L646,253L648,268L649,278L644,289L644,309L638,309L633,318L636,322L626,325L622,333L617,336L606,325L601,309L597,298L593,292L587,281L584,266L582,259L571,242L567,219L563,204L563,189L561,178L544,185L536,184L521,169L527,164L524,159L510,149L518,140L543,140L541,130L534,123L533,113L525,108L538,94L551,95L563,81L570,68L582,55L581,45L591,38L582,31L578,22L574,10L580,4L597,7L610,5L621,-7L633,9L632,21L636,28L636,35L628,33L631,48L642,56L658,65L651,71L646,84L657,89L668,95L683,102L699,104L705,110L714,112L728,115L737,114L739,109L737,101L738,96L745,93L746,103L746,106L757,110L764,108L774,109L783,109L784,101L779,97L788,95L799,86L812,77L821,81L830,75L835,83L831,89Z" fill="#E0E0E0" stroke="#fff" stroke-width=".4"/><path d="M790,169L790,178L786,176L787,186L783,180L783,173L781,167L776,160L765,160L766,165L763,172L758,169L756,171L753,170L749,169L747,159L743,149L745,142L738,139L740,134L747,129L739,123L743,114L752,119L758,120L759,129L770,131L780,130L787,133L782,143L776,144L773,151L779,158L781,150L784,150Z" fill="#E0E0E0" stroke="#fff" stroke-width=".4"/><path d="M779,97L784,101L783,109L774,109L764,108L757,110L746,106L746,103L754,93L760,90L768,93L774,93Z" fill="#E0E0E0" stroke="#fff" stroke-width=".4"/><path d="M738,96L737,101L739,109L737,114L728,115L714,112L705,110L699,104L683,102L668,95L657,89L646,84L651,71L658,65L663,62L672,66L683,75L690,77L694,83L703,86L712,91L725,94Z" fill="#E0E0E0" stroke="#fff" stroke-width=".4"/><path d="M621,-7L610,5L597,7L580,4L574,10L578,22L582,31L591,38L581,45L582,55L570,68L563,81L551,95L538,94L525,108L533,113L534,123L541,130L543,140L518,140L510,149L502,146L498,137L490,127L468,129L450,130L434,131L438,117L455,110L454,104L448,102L448,91L437,85L432,77L427,70L446,77L457,75L464,77L466,74L474,75L489,69L490,58L496,51L505,51L506,47L515,45L519,46L523,42L523,34L527,26L535,23L530,14L541,14L544,9L544,4L549,-2L548,-9L545,-15L552,-21L564,-24L578,-26L583,-29L590,-30L598,-23L602,-13Z" fill="#E0E0E0" stroke="#fff" stroke-width=".4"/><path d="M491,-33L498,-33L506,-30L510,-29L518,-33L522,-30L526,-37L532,-37L534,-39L535,-45L540,-50L546,-46L545,-42L549,-41L548,-29L552,-24L556,-28L561,-29L568,-35L576,-34L588,-34L590,-30L583,-29L578,-26L564,-24L552,-21L545,-15L548,-9L549,-2L544,4L544,9L541,14L530,14L535,23L527,26L523,34L523,42L519,46L515,45L506,47L505,51L496,51L490,58L489,69L474,75L466,74L464,77L457,75L446,77L427,70L437,58L436,50L427,47L427,39L423,28L428,20L423,18L426,8L431,-9L442,-4L451,-6L453,-12L462,-14L469,-18L471,-30L481,-33L482,-38L488,-34Z" fill="#E0E0E0" stroke="#fff" stroke-width=".4"/><path d="M506,-30L513,-45L510,-56L502,-59L505,-66L514,-65L520,-73L523,-83L539,-87L536,-80L538,-75L543,-76L538,-71L526,-74L525,-65L537,-66L551,-61L573,-64L576,-50L580,-51L587,-48L586,-43L588,-34L576,-34L568,-35L561,-29L556,-28L552,-24L548,-29L549,-41L545,-42L546,-46L540,-50L535,-45L534,-39L532,-37L526,-37L522,-30L518,-33L510,-29Z" fill="#E0E0E0" stroke="#fff" stroke-width=".4"/><path d="M542,-106L545,-113L552,-115L571,-110L573,-119L579,-123L595,-116L600,-118L619,-117L636,-116L641,-110L648,-108L647,-104L629,-96L625,-90L610,-88L606,-78L594,-81L586,-78L575,-70L576,-67L573,-64L551,-61L537,-66L525,-65L526,-74L538,-71L543,-76L551,-74L566,-85L552,-93L544,-89L536,-95L545,-105Z" fill="#E0E0E0" stroke="#fff" stroke-width=".4"/><path d="M331,-99L336,-104L349,-107L357,-103L365,-91L371,-92L383,-92L382,-100L391,-105L401,-114L416,-106L418,-94L422,-90L434,-91L438,-88L444,-73L457,-63L464,-56L476,-49L492,-42L491,-33L488,-34L482,-38L481,-33L471,-30L469,-18L462,-14L453,-12L451,-6L442,-4L431,-9L430,-21L421,-21L408,-34L399,-36L386,-43L378,-44L373,-42L365,-42L357,-34L347,-31L345,-41L347,-57L338,-62L341,-72L333,-73L336,-85L346,-82L357,-86L348,-95L345,-104L336,-100L335,-89Z" fill="#E0E0E0" stroke="#fff" stroke-width=".4"/><path d="M286,69L280,62L280,55L276,55L278,45L272,35L258,27L250,14L253,4L258,-1L258,-9L250,-14L243,-31L236,-42L239,-47L235,-64L243,-68L245,-62L250,-55L258,-53L262,-54L276,-65L280,-66L284,-62L280,-54L287,-47L290,-47L293,-37L304,-34L312,-26L328,-24L346,-28L347,-31L357,-34L365,-42L373,-42L378,-44L386,-43L399,-36L408,-34L421,-21L430,-21L431,-9L426,8L423,18L428,20L423,28L427,39L427,47L436,50L437,58L427,70L432,77L437,85L448,91L448,102L454,104L455,110L438,117L434,131L412,128L400,125L387,123L382,107L377,105L368,107L356,114L342,109L331,99L320,96L312,83L304,66L298,68L290,64Z" fill="#E0E0E0" stroke="#fff" stroke-width=".4"/><path d="M139,32L139,31L140,29L140,24L143,16L149,11L147,6L142,5L141,-6L144,-11L147,-15L150,-18L151,-26L155,-23L167,-27L173,-24L183,-24L196,-30L202,-29L215,-32L209,-23L203,-19L204,-9L200,8L174,22L152,37Z" fill="#E0E0E0" stroke="#fff" stroke-width=".4"/><path d="M262,-54L258,-53L254,-62L254,-64L249,-64L245,-68L243,-68L238,-72L230,-76L231,-83L229,-89L245,-91L247,-87L252,-84L249,-80L255,-75L252,-71L257,-67L262,-64Z" fill="#E0E0E0" stroke="#fff" stroke-width=".4"/><path d="M94,-273L98,-272L101,-276L105,-275L117,-277L124,-266L121,-263L122,-257L131,-256L135,-248L135,-245L149,-238L158,-241L165,-233L172,-233L189,-227L189,-222L184,-213L187,-203L185,-198L174,-197L168,-192L168,-184L159,-183L151,-178L140,-177L130,-170L131,-162L129,-162L128,-165L124,-166L116,-170L113,-166L111,-167L94,-171L93,-178L82,-176L78,-167L69,-154L64,-157L59,-155L54,-158L56,-159L58,-165L62,-170L61,-173L63,-175L64,-172L71,-172L74,-173L72,-175L73,-177L69,-181L67,-188L63,-191L64,-197L59,-202L54,-202L45,-208L38,-206L35,-203L30,-203L27,-199L19,-198L15,-195L10,-199L2,-199L-5,-201L-10,-197L-10,-202L-17,-207L-14,-214L-11,-218L-9,-217L-12,-225L-1,-240L4,-242L5,-247L-0,-263L5,-264L11,-269L20,-269L32,-268L45,-263L54,-263L58,-260L62,-263L65,-259L76,-260L80,-258L81,-267L84,-271Z" fill="#E0E0E0" stroke="#fff" stroke-width=".4"/><path d="M-75,-202L-76,-195L-82,-195L-80,-191L-84,-180L-86,-177L-96,-177L-102,-173L-111,-174L-128,-179L-130,-185L-142,-182L-143,-178L-150,-181L-156,-181L-161,-184L-159,-188L-160,-191L-156,-192L-150,-188L-149,-192L-139,-191L-130,-194L-125,-194L-121,-190L-120,-193L-122,-204L-118,-207L-114,-215L-105,-209L-99,-216L-95,-217L-86,-212L-81,-213L-75,-210L-76,-208Z" fill="#E0E0E0" stroke="#fff" stroke-width=".4"/><path d="M-17,-207L-10,-202L-10,-197L-17,-194L-22,-182L-29,-171L-38,-168L-45,-169L-54,-164L-58,-162L-68,-165L-76,-172L-80,-174L-82,-180L-84,-180L-80,-191L-82,-195L-76,-195L-75,-202L-69,-197L-65,-195L-55,-197L-55,-201L-50,-201L-44,-204L-43,-203L-38,-205L-35,-209L-31,-210L-19,-205Z" fill="#E0E0E0" stroke="#fff" stroke-width=".4"/><path d="M35,-203L38,-206L45,-208L54,-202L59,-202L64,-197L63,-191L67,-188L69,-181L73,-177L72,-175L74,-173L71,-172L64,-172L63,-175L61,-173L62,-170L58,-165L56,-159L54,-158L51,-165L53,-172L52,-179L46,-189L42,-197L39,-202Z" fill="#E0E0E0" stroke="#fff" stroke-width=".4"/><path d="M54,-158L59,-155L64,-157L69,-154L69,-150L64,-147L60,-148L57,-129L51,-131L42,-136L29,-133L23,-129L6,-130L-2,-132L-7,-131L-10,-137L-12,-140L-10,-143L-12,-145L-16,-141L-23,-146L-24,-153L-31,-156L-32,-162L-38,-168L-29,-171L-22,-182L-17,-194L-10,-197L-5,-201L2,-199L10,-199L15,-195L19,-198L27,-199L30,-203L35,-203L39,-202L42,-197L46,-189L52,-179L53,-172L51,-165Z" fill="#E0E0E0" stroke="#fff" stroke-width=".4"/><path d="M-108,-304L-105,-294L-108,-289L-104,-282L-101,-272L-102,-266L-98,-254L-103,-252L-106,-254L-109,-251L-117,-248L-121,-243L-129,-239L-127,-234L-126,-226L-120,-222L-114,-215L-118,-207L-122,-204L-120,-193L-121,-190L-125,-194L-130,-194L-139,-191L-149,-192L-150,-188L-156,-192L-160,-191L-172,-197L-174,-193L-184,-193L-182,-205L-177,-217L-193,-220L-198,-225L-198,-233L-200,-237L-199,-249L-201,-268L-194,-268L-191,-275L-188,-292L-190,-299L-188,-303L-178,-304L-176,-300L-169,-309L-171,-316L-172,-328L-163,-325L-156,-328L-156,-320L-144,-316L-144,-309L-133,-313L-126,-318L-113,-310Z" fill="#E0E0E0" stroke="#fff" stroke-width=".4"/><path d="M-10,-137L-7,-131L-2,-132L6,-130L23,-129L29,-133L42,-136L51,-131L57,-129L51,-122L47,-111L51,-102L41,-105L29,-100L29,-92L19,-91L11,-96L2,-92L-7,-92L-8,-102L-13,-107L-11,-109L-13,-111L-11,-116L-6,-121L-12,-128L-13,-134Z" fill="#E0E0E0" stroke="#fff" stroke-width=".4"/><path d="M31,-4L30,-0L13,1L14,-1L-0,-4L2,-10L8,-5L17,-6L25,-5L25,-2ZM-7,-92L2,-92L11,-96L19,-91L29,-92L29,-100L35,-96L31,-86L29,-84L22,-85L16,-86L2,-82L10,-74L4,-72L-2,-71L-8,-79L-11,-76L-8,-67L-2,-60L-7,-57L-0,-50L5,-46L6,-38L-5,-41L-2,-34L-9,-33L-5,-20L-12,-20L-21,-26L-26,-38L-28,-47L-32,-54L-38,-62L-39,-66L-34,-74L-33,-79L-29,-81L-29,-85L-21,-86L-17,-89L-11,-89L-9,-92Z" fill="#E0E0E0" stroke="#fff" stroke-width=".4"/><path d="M243,-31L237,-28L233,-32L220,-34L215,-32L202,-29L196,-30L183,-24L173,-24L167,-27L155,-23L151,-26L150,-18L147,-15L144,-11L140,-18L144,-23L137,-22L128,-25L120,-17L102,-16L93,-23L81,-24L78,-18L70,-16L59,-24L47,-23L40,-38L32,-46L37,-57L30,-64L43,-78L60,-79L65,-90L87,-88L101,-98L114,-103L133,-103L153,-92L169,-86L182,-89L192,-87L206,-95L218,-96L229,-89L231,-83L230,-76L238,-72L243,-68L235,-64L239,-47L236,-42ZM29,-100L41,-105L51,-102L52,-97L62,-92L60,-88L46,-87L42,-82L32,-74L29,-81L29,-84L31,-86L35,-96Z" fill="#E0E0E0" stroke="#fff" stroke-width=".4"/><path d="M-29,-85L-29,-81L-33,-79L-34,-74L-39,-66L-41,-68L-41,-71L-47,-76L-48,-83L-47,-93L-46,-98L-48,-100L-49,-105L-44,-113L-43,-110L-40,-111L-37,-107L-35,-106L-34,-100L-35,-95L-34,-88Z" fill="#E0E0E0" stroke="#fff" stroke-width=".4"/><path d="M-80,-174L-76,-172L-68,-165L-58,-162L-54,-164L-51,-158L-48,-153L-52,-147L-57,-151L-65,-151L-75,-153L-80,-153L-83,-150L-87,-153L-89,-147L-84,-139L-81,-134L-76,-128L-71,-125L-67,-118L-57,-112L-58,-110L-69,-116L-76,-121L-86,-126L-96,-137L-93,-139L-99,-145L-99,-151L-106,-153L-110,-146L-113,-152L-113,-158L-112,-158L-104,-157L-102,-160L-98,-157L-94,-157L-94,-162L-90,-163L-89,-170Z" fill="#E0E0E0" stroke="#fff" stroke-width=".4"/><path d="M-160,-191L-159,-188L-161,-184L-156,-181L-150,-181L-151,-174L-156,-171L-164,-173L-167,-167L-172,-166L-174,-169L-181,-163L-186,-162L-191,-166L-195,-173L-200,-170L-200,-178L-192,-187L-192,-192L-187,-190L-184,-193L-174,-193L-172,-197Z" fill="#E0E0E0" stroke="#fff" stroke-width=".4"/><path d="M666,341L664,353L659,357L649,359L644,350L642,334L647,315L655,321L660,329Z" fill="#E0E0E0" stroke="#fff" stroke-width=".4"/><path d="M982,216L973,212L973,202L978,196L991,193L997,193L1000,198L995,203L992,210ZM648,-108L647,-117L655,-121L645,-148L668,-155L673,-158L682,-188L704,-183L711,-190L711,-207L721,-209L729,-221L734,-222L737,-210L747,-201L763,-194L771,-181L766,-161L770,-154L784,-152L799,-149L813,-139L820,-137L826,-123L832,-114L845,-114L868,-110L884,-113L895,-110L912,-101L926,-101L931,-96L944,-104L962,-110L980,-110L993,-116L1001,-124L1009,-130L1007,-135L1004,-141L1010,-151L1016,-150L1028,-147L1039,-155L1057,-161L1065,-172L1073,-177L1090,-179L1099,-177L1100,-183L1090,-195L1080,-201L1072,-194L1060,-197L1054,-195L1051,-202L1059,-219L1065,-232L1078,-226L1094,-237L1094,-245L1105,-264L1111,-270L1111,-280L1105,-285L1114,-294L1128,-298L1143,-298L1161,-293L1171,-286L1178,-267L1182,-259L1186,-248L1190,-230L1210,-224L1224,-212L1228,-196L1246,-196L1255,-203L1274,-208L1268,-192L1264,-186L1260,-168L1252,-152L1238,-155L1229,-149L1232,-135L1230,-117L1224,-116L1224,-108L1217,-118L1212,-109L1195,-102L1196,-94L1187,-95L1181,-100L1173,-89L1161,-81L1151,-71L1135,-67L1127,-60L1115,-56L1121,-63L1118,-68L1127,-78L1121,-86L1111,-81L1098,-71L1091,-61L1080,-60L1074,-53L1080,-44L1090,-41L1090,-35L1099,-30L1112,-41L1122,-35L1130,-35L1131,-27L1115,-23L1110,-16L1099,-9L1093,1L1105,9L1110,22L1117,35L1124,45L1124,55L1117,59L1120,66L1127,70L1125,81L1122,91L1115,92L1107,106L1098,123L1087,138L1072,150L1056,160L1043,161L1036,167L1032,163L1025,169L1009,175L997,177L993,190L987,191L984,182L987,177L971,173L966,175L954,172L949,167L951,160L940,158L935,153L925,160L914,161L905,161L899,164L893,166L895,180L888,180L887,177L887,172L879,175L874,173L865,168L869,158L861,156L859,144L847,146L848,131L859,121L859,110L859,100L854,97L850,90L843,91L831,89L835,83L830,75L821,81L812,77L799,86L788,95L779,97L774,93L768,93L760,90L754,93L746,103L745,93L738,96L725,94L712,91L703,86L694,83L690,77L683,75L672,66L663,62L658,65L642,56L631,48L628,33L636,35L636,28L632,21L633,9L621,-7L602,-13L598,-23L590,-30L588,-34L586,-43L587,-48L580,-51L576,-50L573,-64L576,-67L575,-70L586,-78L594,-81L606,-78L610,-88L625,-90L629,-96L647,-104Z" fill="#E0E0E0" stroke="#fff" stroke-width=".4"/><path d="M-150,-181L-143,-178L-142,-182L-130,-185L-128,-179L-111,-174L-113,-166L-110,-159L-119,-162L-128,-156L-128,-148L-129,-143L-125,-135L-115,-127L-109,-114L-96,-102L-87,-102L-84,-98L-88,-95L-77,-90L-69,-85L-59,-77L-58,-75L-60,-69L-66,-76L-76,-79L-81,-69L-73,-64L-74,-56L-79,-55L-85,-42L-90,-41L-90,-46L-88,-54L-85,-57L-90,-65L-93,-73L-98,-75L-101,-81L-108,-84L-113,-90L-122,-91L-131,-98L-141,-108L-149,-117L-153,-132L-158,-134L-168,-139L-173,-137L-179,-130L-184,-129L-183,-136L-189,-138L-192,-150L-188,-155L-191,-161L-191,-166L-186,-162L-181,-163L-174,-169L-172,-166L-167,-167L-164,-173L-156,-171L-151,-174ZM-100,-45L-92,-46L-96,-35L-94,-30L-97,-23L-105,-28L-111,-30L-127,-37L-126,-44L-112,-43ZM-170,-86L-164,-90L-157,-80L-159,-60L-164,-61L-169,-56L-173,-60L-173,-78L-176,-86Z" fill="#E0E0E0" stroke="#fff" stroke-width=".4"/><path d="M261,-100L264,-100L272,-90L277,-89L279,-93L286,-99L292,-91L298,-81L303,-80L307,-76L297,-75L295,-63L293,-58L289,-55L290,-47L287,-47L280,-54L284,-62L280,-66L276,-65L262,-54L262,-64L257,-67L252,-71L255,-75L249,-80L252,-84L247,-87L245,-91L248,-93L256,-89L262,-88L264,-90L258,-98ZM258,-53L250,-55L245,-62L243,-68L245,-68L249,-64L254,-64L254,-62Z" fill="#E0E0E0" stroke="#fff" stroke-width=".4"/><path d="M188,-125L189,-127L199,-124L215,-121L231,-114L233,-111L240,-113L251,-110L254,-104L261,-100L258,-98L264,-90L262,-88L256,-89L248,-93L245,-91L229,-89L218,-96L206,-95L208,-102L205,-112L198,-118L192,-120Z" fill="#E0E0E0" stroke="#fff" stroke-width=".4"/><path d="M875,354L877,352L886,357L887,362L895,361L898,356L901,357L908,364L913,372L913,380L912,385L913,389L914,396L918,399L923,409L922,413L914,414L903,405L890,396L889,390L882,383L880,373L876,367L877,358ZM1078,380L1068,378L1055,378L1051,391L1047,395L1041,411L1032,414L1021,411L1016,412L1009,417L1002,416L994,419L986,412L984,405L993,409L1002,406L1004,397L1009,395L1023,392L1031,383L1036,376L1042,382L1044,378L1049,378L1050,371L1051,365L1059,357L1065,348L1070,348L1076,354L1076,359L1084,362L1093,366L1092,370L1085,371L1087,376Z" fill="#E0E0E0" stroke="#fff" stroke-width=".4"/><path d="M-111,-174L-102,-173L-96,-177L-86,-177L-84,-180L-82,-180L-80,-174L-89,-170L-90,-163L-94,-162L-94,-157L-98,-157L-102,-160L-104,-157L-112,-158L-110,-159L-113,-166Z" fill="#E0E0E0" stroke="#fff" stroke-width=".4"/><path d="M-11,-218L-14,-214L-17,-207L-19,-205L-31,-210L-35,-209L-38,-205L-43,-203L-44,-204L-50,-201L-55,-201L-55,-197L-65,-195L-69,-197L-75,-202L-76,-208L-75,-210L-74,-214L-69,-213L-65,-215L-64,-217L-62,-218L-61,-221L-59,-222L-57,-225L-54,-225L-53,-224L-48,-227L-43,-221L-36,-224L-30,-223L-22,-225Z" fill="#E0E0E0" stroke="#fff" stroke-width=".4"/><path d="M147,261L146,256L151,239L152,231L156,227L164,225L170,218L177,232L180,243L186,249L202,260L208,267L214,274L218,278L223,281L220,284L215,283L211,279L206,272L201,269L198,265L188,260L181,260L178,257L171,260L164,255L161,263Z" fill="#E0E0E0" stroke="#fff" stroke-width=".4"/><path d="M325,206L334,226L338,235L330,238L327,243L327,247L316,252L298,258L287,266L282,267L279,266L272,271L265,273L255,274L252,274L250,277L247,278L245,281L239,281L236,283L228,282L225,275L225,269L223,265L221,257L218,252L220,251L219,246L220,243L220,238L225,234L224,229L227,223L231,227L234,225L248,225L250,226L261,228L265,227L268,231L273,229L282,216L292,211Z" fill="#E0E0E0" stroke="#fff" stroke-width=".4"/><path d="M130,76L143,78L148,74L151,70L160,68L161,63L165,61L154,48L177,41L179,39L193,43L210,52L242,79L263,80L273,81L276,87L284,87L289,98L294,101L296,105L304,111L305,116L304,120L305,125L308,128L310,132L312,135L315,138L318,137L320,142L321,145L325,157L360,164L362,161L367,170L360,194L325,206L292,211L282,216L273,229L268,231L265,227L261,228L250,226L248,225L234,225L231,227L227,223L224,229L225,234L220,238L218,233L215,229L214,225L208,220L202,210L199,200L191,192L186,190L178,178L177,170L177,163L171,149L165,144L159,141L156,134L156,131L153,125L150,122L145,112L138,102L132,93L127,93L128,86L129,82Z" fill="#E0E0E0" stroke="#fff" stroke-width=".4"/><path d="M105,-2L106,-2L107,-5L116,-5L126,-9L118,-3L119,-1L118,-1L116,-0L114,-1L113,0L113,-1L112,-2L110,-2L107,-1Z" fill="#E0E0E0" stroke="#fff" stroke-width=".4"/><path d="M105,-2L107,-1L110,-2L112,-2L113,-1L113,0L114,-1L116,-0L118,-1L119,-1L120,0L108,6L102,4L100,-1Z" fill="#E0E0E0" stroke="#fff" stroke-width=".4"/><path d="M152,170L107,170L63,170L17,170L17,124L17,78L13,67L16,59L14,53L18,47L34,47L45,50L56,54L61,56L70,52L75,48L85,47L93,49L96,55L99,51L108,54L117,55L123,52L129,71L130,74L127,80L124,90L121,96L119,99L115,94L110,89L101,70L100,71L105,85L112,98L121,118L125,125L129,132L139,146L137,148L137,156L150,167Z" fill="#E0E0E0" stroke="#fff" stroke-width=".4"/><path d="M17,170L17,194L3,194L3,199L-42,176L-88,152L-99,159L-108,164L-114,157L-132,151L-137,144L-146,138L-151,140L-155,133L-156,128L-163,118L-158,113L-159,105L-158,98L-159,92L-157,81L-157,75L-161,64L-155,61L-154,55L-155,50L-148,44L-144,40L-139,36L-138,26L-124,30L-120,29L-110,32L-95,38L-90,50L-79,52L-63,58L-51,64L-45,61L-40,55L-43,45L-39,38L-31,32L-23,30L-7,33L-4,39L1,39L4,41L16,43L18,47L14,53L16,59L13,67L17,78L17,124Z" fill="#E0E0E0" stroke="#fff" stroke-width=".4"/><path d="M277,336L245,370L230,371L220,379L212,379L209,383L201,383L197,379L186,384L183,389L175,388L173,386L170,387L167,386L152,377L144,377L140,373L140,367L134,365L128,352L122,349L120,345L115,339L107,338L111,332L117,332L119,328L119,318L122,305L128,302L129,297L134,288L141,283L145,271L147,261L161,263L164,255L171,260L178,257L181,260L188,260L198,265L201,269L206,272L211,279L215,283L211,288L207,294L208,297L208,301L214,301L217,300L220,302L217,306L222,312L226,318L230,322L268,336Z" fill="#E0E0E0" stroke="#fff" stroke-width=".4"/><path d="M215,283L220,284L223,281L226,285L226,290L219,293L224,296L220,302L217,300L214,301L208,301L208,297L207,294L211,288Z" fill="#E0E0E0" stroke="#fff" stroke-width=".4"/><path d="M290,296L290,297L290,301L290,313L290,319L285,326L277,336L268,336L230,322L226,318L222,312L217,306L220,302L224,296L228,298L230,303L235,308L241,308L252,305L264,303L274,300L280,299L284,297Z" fill="#E0E0E0" stroke="#fff" stroke-width=".4"/><path d="M118,439L95,439L83,439L79,441L72,444L69,443L69,434L72,430L72,421L75,415L79,410L83,406L87,402L83,401L83,387L88,384L95,387L104,384L112,384L120,379L125,387L126,393L131,406L127,414L122,422L118,426Z" fill="#E0E0E0" stroke="#fff" stroke-width=".4"/><path d="M79,441L83,447L82,454L79,455L73,454L70,461L63,460L64,454L65,453L66,446L69,443L72,444Z" fill="#E0E0E0" stroke="#fff" stroke-width=".4"/><path d="M-57,-112L-67,-118L-71,-125L-76,-128L-81,-134L-84,-139L-89,-147L-87,-153L-83,-150L-80,-153L-75,-153L-65,-151L-57,-151L-52,-147L-48,-147L-51,-140L-45,-134L-47,-127L-50,-126L-52,-125L-55,-121Z" fill="#E0E0E0" stroke="#fff" stroke-width=".4"/><path d="M-13,-107L-8,-102L-7,-92L-9,-92L-11,-89L-17,-89L-21,-86L-29,-85L-34,-88L-35,-95L-34,-100L-32,-100L-32,-103L-25,-106L-23,-106L-19,-107Z" fill="#E0E0E0" stroke="#fff" stroke-width=".4"/><path d="M-54,-164L-45,-169L-38,-168L-32,-162L-31,-156L-24,-153L-23,-146L-16,-141L-12,-145L-10,-143L-12,-140L-10,-137L-13,-134L-12,-128L-6,-121L-11,-116L-13,-111L-11,-109L-13,-107L-19,-107L-23,-106L-23,-107L-22,-109L-20,-113L-22,-113L-24,-116L-26,-116L-27,-119L-30,-120L-31,-122L-33,-121L-35,-116L-38,-115L-37,-116L-41,-120L-45,-121L-46,-123L-50,-126L-47,-127L-45,-134L-51,-140L-48,-147L-52,-147L-48,-153L-51,-158Z" fill="#E0E0E0" stroke="#fff" stroke-width=".4"/><path d="M-40,-111L-43,-110L-44,-113L-49,-105L-48,-100L-50,-102L-53,-107L-58,-110L-57,-112L-55,-121L-52,-125L-50,-126L-46,-123L-45,-121L-41,-120L-37,-116L-38,-115Z" fill="#E0E0E0" stroke="#fff" stroke-width=".4"/><path d="M-34,-100L-35,-106L-37,-107L-40,-111L-38,-115L-35,-116L-33,-121L-31,-122L-30,-120L-27,-119L-26,-116L-24,-116L-22,-113L-20,-113L-22,-109L-23,-107L-23,-106L-25,-106L-32,-103L-32,-100Z" fill="#E0E0E0" stroke="#fff" stroke-width=".4"/><path d="M83,387L73,380L70,375L64,377L59,377L56,379L51,377L44,368L42,364L33,360L30,353L26,348L18,342L18,338L12,333L4,329L7,327L11,325L14,315L17,310L26,308L28,311L33,318L37,319L41,317L49,317L51,320L62,320L62,317L68,315L69,312L74,309L83,316L89,315L95,307L101,300L100,293L97,290L104,289L105,287L110,287L109,296L110,304L116,309L118,313L117,319L119,319L119,328L117,332L111,332L107,338L115,339L120,345L122,349L128,352L134,365L127,372L120,379L112,384L104,384L95,387L88,384Z" fill="#E0E0E0" stroke="#fff" stroke-width=".4"/></g><g clip-path="url(#v)"><path d="M402.1,191.6L401.4,191.7L401.1,191.6L401.2,190.1L402.8,188.2L403.9,185.9L404.7,187.9L403.4,189.0L402.7,191.0ZM337.6,234.6L337.0,233.0L336.3,231.4L335.6,229.8L334.9,228.3L334.4,227.2L333.6,226.8L333.1,225.6L332.6,224.4L332.1,223.2L331.5,222.0L331.0,220.8L330.6,219.6L330.1,218.4L329.5,217.2L329.0,216.0L328.5,214.8L328.0,213.6L327.5,212.4L327.0,211.2L326.5,210.0L326.0,208.8L325.5,207.6L325.0,206.4L326.6,205.8L328.6,205.1L330.5,204.4L332.5,203.7L334.5,203.0L336.4,202.4L338.4,201.7L340.3,201.0L342.3,200.3L344.3,199.6L346.3,198.9L348.2,198.2L350.2,197.5L352.2,196.8L354.1,196.1L356.1,195.4L358.0,194.7L359.3,194.3L359.8,192.6L360.2,191.3L360.6,189.9L361.0,188.6L361.5,187.2L361.9,185.9L362.3,184.5L362.7,183.2L363.1,181.8L363.6,180.5L364.0,179.1L364.4,177.8L364.8,176.4L365.2,175.0L365.7,173.7L366.1,172.3L366.5,170.9L366.9,169.7L366.2,168.5L365.2,166.9L364.1,165.2L363.2,163.6L362.5,162.4L361.7,161.0L361.7,159.2L361.7,158.3L361.8,156.9L362.6,155.0L363.6,152.5L364.3,150.9L364.9,149.5L365.3,148.3L365.6,147.1L365.5,146.3L365.2,146.0L364.9,145.6L365.8,145.0L367.5,144.6L368.5,144.7L369.7,144.4L370.8,144.1L370.9,143.7L370.6,143.1L370.1,142.2L368.7,142.1L368.2,141.8L368.7,140.5L368.7,140.1L368.5,139.6L368.3,138.7L368.4,137.6L368.7,136.9L368.7,136.3L368.6,135.1L368.6,134.0L368.9,133.4L369.5,132.9L370.0,132.7L370.6,132.7L371.0,132.9L371.2,133.5L371.0,133.9L370.7,133.9L370.6,134.1L371.0,134.9L371.7,135.6L372.2,135.5L372.7,134.9L373.3,134.4L374.0,134.0L374.5,133.2L375,132.7L375.4,132.6L376.6,135.9L378.3,139.0L379.8,140.7L381.4,143.0L383.8,145.1L384.9,145.8L389.4,147.3L391.8,147.9L395.2,148.4L397.6,149.6L398.3,149.6L399.5,149.3L400.4,149.3L402.7,150.9L403.3,152.4L404.3,153.2L405.1,154.4L405.6,155.7L407.5,157.7L408.8,159.9L410.2,161.6L411.4,162.6L413.2,163.0L414.7,163.4L414.8,164.5L414.7,166.0L414.4,167.0L413.0,169.1L412.7,170.3L411.2,172.4L409.5,175.9L408.7,176.7L406.0,178.5L404.1,180.6L401.7,184.4L399.9,188.1L399.2,189.2L397.8,189.5L396.9,189.4L396.2,189.0L396.5,188.0L396.6,186.9L395.8,187.0L395.0,187.3L393.2,190.0L392.2,191.2L392.0,192.8L391.5,194.8L390.9,196.6L390.6,198.1L390.6,199.0L391.1,201.1L391.1,203.3L391.4,204.6L391.7,206.1L390.8,206.6L390.1,206.8L387.3,207.0L384.4,207.5L381.9,208.4L380.4,209.3L378.5,211.3L377.3,216.4L375.3,218.5L374.1,219.0L370.9,219.2L366.6,219.8L365,220.3L362.4,223.4L362.2,224.3L362.7,225.0L362.9,225.8L362.7,226.5L361.5,228.5L360.3,229.9L356.9,230.8L355.7,230.3L354.6,230.0L352.4,230.0L348.9,230.3L347.6,231.4L345.5,232.1L343.6,233.2L340.1,233.7ZM374.4,124.1L374.1,124.4L373.8,124.4L373.1,124.2L372.6,123.6L372.7,122.9L372.7,121.6L372.9,120.3L372.9,119.0L372.3,118.8L371.9,118.8L372.9,117.0L373.2,116.7L373.6,116.9L374.5,116.7L374.9,115.7L375.3,115.1L375.7,115.2L375.9,115.5L375.7,117.0L375.7,118.3L375.2,122.1L374.7,122.8L374.5,123.3ZM374.2,129.3L373.7,129.7L373.4,129.6L373.4,128.9L373.6,128.5L374.1,128.5L374.3,128.8Z" fill="#4ECDC4" stroke="#2C3E50" stroke-width="1"/></g><circle cx="400.0" cy="150.0" r="4" fill="#E74C3C" stroke="#fff" stroke-width="2"/><text x="400.0" y="140.0" text-anchor="middle" font-family="sans-serif" font-weight="700" font-size="10" fill="#2D3436">Muscat</text></svg>