<svg viewBox="0 0 800 300" xmlns="http://www.w3.org/2000/svg"><defs><clipPath id="v"><rect width="800" height="300"/></clipPath></defs><rect width="800" height="300" fill="#DCEEF8"/><g clip-path="url(#v)"><path d="M-1283,-988L-1232,-992L-1175,-998L-1179,-987L-1112,-961L-1010,-924L-921,-925L-885,-925L-885,-946L-808,-946L-791,-928L-768,-911L-742,-888L-727,-861L-716,-833L-693,-817L-656,-802L-627,-843L-591,-844L-559,-823L-537,-788L-521,-758L-495,-729L-485,-694L-473,-671L-438,-655L-406,-644L-389,-646L-406,-602L-414,-567L-417,-501L-421,-478L-414,-451L-400,-428L-391,-391L-361,-355L-351,-328L-333,-305L-285,-292L-267,-272L-228,-286L-194,-290L-160,-299L-132,-307L-104,-326L-93,-354L-89,-394L-82,-408L-51,-421L-4,-432L36,-430L63,-434L74,-424L72,-401L48,-372L38,-343L46,-335L39,-315L28,-278L16,-290L7,-289L-1,-289L-17,-260L-26,-266L-31,-263L-31,-257L-72,-257L-114,-257L-114,-231L-134,-230L-117,-215L-101,-204L-96,-194L-89,-191L-90,-175L-147,-175L-169,-137L-162,-129L-168,-118L-169,-104L-219,-154L-242,-169L-279,-181L-304,-178L-340,-160L-362,-156L-394,-168L-428,-177L-469,-198L-503,-205L-554,-227L-591,-249L-602,-262L-627,-264L-673,-279L-692,-301L-740,-328L-762,-358L-773,-381L-758,-386L-763,-399L-752,-412L-752,-428L-767,-450L-771,-469L-786,-494L-826,-542L-871,-580L-892,-611L-931,-631L-939,-643L-932,-674L-955,-686L-982,-710L-993,-745L-1017,-750L-1043,-776L-1064,-801L-1066,-817L-1090,-856L-1106,-896L-1105,-916L-1137,-937L-1152,-934L-1178,-949L-1185,-927L-1177,-902L-1173,-863L-1158,-842L-1125,-807L-1117,-795L-1110,-791L-1105,-773L-1097,-774L-1088,-741L-1074,-729L-1064,-711L-1036,-685L-1022,-639L-1008,-617L-996,-594L-993,-568L-972,-566L-954,-544L-938,-522L-939,-514L-957,-496L-965,-496L-977,-526L-1006,-553L-1039,-577L-1062,-590L-1060,-626L-1067,-653L-1088,-668L-1119,-690L-1125,-684L-1136,-697L-1164,-709L-1190,-739L-1187,-742L-1168,-739L-1152,-758L-1150,-781L-1185,-818L-1211,-832L-1227,-864L-1244,-898L-1265,-940Z" fill="#E0E0E0" stroke="#fff" stroke-width=".4"/><path d="M1570,2161L1558,2130L1577,2105L1552,2069L1516,2040L1470,2006L1454,2008L1409,1968L1380,1973L1439,1903L1490,1854L1520,1833L1558,1805L1559,1765L1536,1737L1514,1746L1523,1718L1529,1688L1529,1661L1513,1653L1496,1660L1479,1658L1474,1639L1470,1595L1462,1580L1431,1567L1413,1577L1366,1568L1369,1502L1356,1476L1370,1466L1365,1439L1378,1418L1385,1381L1375,1352L1351,1338L1346,1320L1352,1293L1266,1291L1249,1237L1262,1236L1262,1216L1253,1203L1251,1176L1225,1162L1197,1163L1178,1149L1148,1140L1130,1123L1080,1116L1032,1075L1035,1044L1030,1027L1035,992L976,1000L952,1017L913,1036L903,1049L880,1050L847,1047L822,1054L801,1049L804,980L768,1007L728,1006L711,982L682,979L691,959L666,932L648,891L659,883L659,864L686,851L682,827L693,811L697,790L748,759L784,751L790,744L831,746L851,623L852,604L845,578L825,562L825,529L850,522L859,527L861,509L835,505L834,477L921,478L936,462L949,477L957,503L966,497L990,521L1025,518L1034,504L1067,494L1086,487L1091,468L1123,455L1120,446L1082,442L1076,414L1078,383L1058,372L1066,368L1100,373L1135,385L1148,374L1180,367L1230,350L1247,333L1241,320L1264,319L1274,329L1269,349L1284,355L1294,376L1282,392L1275,430L1286,453L1289,474L1317,495L1339,497L1344,488L1358,486L1378,478L1393,466L1418,470L1428,468L1453,472L1457,463L1449,454L1454,441L1472,445L1493,441L1519,450L1538,459L1552,447L1562,449L1568,462L1589,458L1607,441L1620,408L1647,367L1662,365L1673,390L1698,468L1722,476L1723,507L1690,544L1704,557L1783,564L1784,609L1818,580L1875,596L1949,623L1971,649L1964,674L2016,660L2103,684L2169,682L2236,719L2293,770L2327,782L2365,784L2382,798L2397,856L2404,883L2387,958L2364,987L2301,1051L2272,1102L2239,1142L2228,1143L2215,1177L2219,1264L2206,1335L2201,1366L2187,1385L2179,1448L2134,1510L2126,1560L2090,1581L2080,1610L2031,1610L1960,1629L1929,1650L1879,1665L1826,1704L1788,1753L1782,1790L1789,1818L1781,1869L1771,1894L1739,1922L1690,2013L1651,2055L1620,2079L1600,2130Z" fill="#E0E0E0" stroke="#fff" stroke-width=".4"/><path d="M966,497L957,503L949,477L936,462L921,478L834,477L835,505L861,509L859,527L850,522L825,529L825,562L845,578L852,604L851,623L831,746L808,722L795,721L824,675L790,655L763,658L747,651L722,663L689,657L662,610L642,598L627,577L598,556L586,560L566,550L544,535L532,542L494,536L483,517L474,517L430,492L424,478L440,474L438,452L449,436L471,433L490,405L507,381L491,370L499,344L489,303L498,291L491,253L473,229L479,207L493,211L502,197L492,171L497,164L520,165L554,134L572,129L573,114L581,76L606,54L635,54L638,44L673,48L708,25L726,15L748,-7L763,-5L775,7L766,23L738,30L726,53L709,66L696,83L690,116L678,142L701,145L707,166L717,176L720,194L715,211L717,220L728,224L738,240L796,236L822,241L853,280L871,275L904,278L929,272L945,280L937,304L927,320L923,352L932,382L945,395L947,405L924,427L940,437L952,453Z" fill="#E0E0E0" stroke="#fff" stroke-width=".4"/><path d="M265,123L247,127L247,146L257,152L250,158L252,166L248,175L246,184L222,174L213,165L218,157L216,147L203,136L186,127L171,121L168,108L156,100L159,113L150,124L140,111L125,107L119,98L119,84L125,69L113,63L123,54L130,48L159,60L169,54L184,58L191,68L204,71L215,61L226,86L244,104Z" fill="#E0E0E0" stroke="#fff" stroke-width=".4"/><path d="M215,61L204,71L191,68L184,58L169,54L159,60L130,48L123,54L107,40L87,21L77,6L58,-8L35,-29L40,-36L48,-29L51,-33L65,-35L71,-45L77,-45L76,-68L87,-69L96,-69L106,-81L119,-72L124,-78L132,-83L147,-96L148,-105L152,-105L158,-116L163,-117L170,-110L179,-108L189,-114L201,-114L216,-120L222,-126L238,-125L234,-121L232,-111L236,-94L226,-78L221,-59L220,-39L222,-27L223,-7L216,-2L212,17L215,30L206,41L208,53Z" fill="#E0E0E0" stroke="#fff" stroke-width=".4"/><path d="M238,-125L222,-126L216,-120L201,-114L189,-114L179,-108L170,-110L163,-117L158,-116L152,-105L148,-105L147,-96L132,-83L124,-78L119,-72L106,-81L96,-69L87,-69L76,-68L77,-45L71,-45L65,-35L51,-33L43,-47L30,-51L33,-69L27,-74L18,-78L-2,-72L-4,-78L-17,-86L-27,-95L-40,-99L-31,-111L-34,-120L-31,-129L-10,-142L10,-159L15,-158L25,-166L38,-166L42,-163L49,-165L70,-161L90,-162L105,-167L110,-172L124,-170L135,-167L147,-168L155,-172L176,-165L183,-164L197,-156L210,-145L226,-138Z" fill="#E0E0E0" stroke="#fff" stroke-width=".4"/><path d="M-40,-99L-27,-95L-17,-86L-4,-78L-2,-72L18,-78L27,-74L33,-69L30,-51L25,-40L-1,-41L-17,-45L-36,-54L-61,-57L-73,-67L-72,-74L-57,-85L-48,-91L-51,-96Z" fill="#E0E0E0" stroke="#fff" stroke-width=".4"/><path d="M-169,-104L-168,-118L-162,-129L-169,-137L-147,-175L-90,-175L-89,-191L-96,-194L-101,-204L-117,-215L-134,-230L-114,-231L-114,-257L-72,-257L-31,-257L-31,-219L-34,-167L-21,-167L-7,-158L-3,-165L10,-159L-10,-142L-31,-129L-34,-120L-31,-111L-40,-99L-51,-96L-48,-91L-57,-85L-72,-74L-73,-67L-96,-75L-124,-76L-145,-85Z" fill="#E0E0E0" stroke="#fff" stroke-width=".4"/><path d="M-31,-257L-31,-263L-26,-266L-17,-260L-1,-289L7,-289L7,-282L16,-282L15,-269L8,-249L12,-242L7,-225L10,-220L5,-197L-4,-184L-12,-183L-21,-167L-34,-167L-31,-219Z" fill="#E0E0E0" stroke="#fff" stroke-width=".4"/><path d="M1241,320L1247,333L1230,350L1180,367L1148,374L1135,385L1100,373L1066,368L1058,372L1078,383L1076,414L1082,442L1120,446L1123,455L1091,468L1086,487L1067,494L1034,504L1025,518L990,521L966,497L952,453L940,437L924,427L947,405L945,395L932,382L923,352L927,320L937,304L945,280L929,272L904,278L871,275L853,280L822,241L796,236L738,240L728,224L717,220L715,211L720,194L717,176L707,166L701,145L678,142L690,116L696,83L709,66L726,53L738,30L766,23L765,34L739,39L753,60L753,83L733,110L750,146L769,143L779,110L766,94L763,60L819,41L813,20L829,5L845,37L876,38L905,63L907,78L947,79L995,74L1020,95L1055,100L1080,86L1080,75L1136,72L1189,71L1151,85L1167,106L1202,109L1236,132L1244,168L1267,167L1284,178L1249,204L1245,221L1260,238L1249,246L1222,253L1222,274L1210,286Z" fill="#E0E0E0" stroke="#fff" stroke-width=".4"/><path d="M586,560L592,594L578,623L529,670L475,688L448,727L439,757L414,776L395,753L377,748L359,752L357,735L370,725L365,706L389,672L379,653L362,674L335,654L344,641L337,601L352,594L361,566L378,537L374,519L399,510L430,492L474,517L483,517L494,536L532,542L544,535L566,550Z" fill="#E0E0E0" stroke="#fff" stroke-width=".4"/></g><g clip-path="url(#v)"><path d="M496.0,164.6L495.2,165.2L492.7,168.7L491.4,171.8L494.6,175.0L495.6,178.5L497.3,182.2L500.1,185.9L503.3,192.8L503.9,195.6L503.1,197.4L500.1,198.5L497.3,201.7L496.5,205.7L497.0,207.7L488.6,213.9L486.5,215.0L485.1,214.0L483.3,210.9L481.2,208.3L479.9,207.4L479.3,207.4L478.6,208.0L478.3,209.3L479.5,215.3L478.5,217.6L475.7,219.5L472.5,229.1L471.2,227.9L460.4,215.0L451.1,198.9L449.2,191.6L451.6,191.1L453.8,191.4L455.1,190.2L456.6,188.1L455.4,183.1L460.0,179.4L461.7,176.9L462.9,177.1L465.9,181.5L470.1,183.9L475.4,187.5L478.8,188.3L474.6,184.6L467.5,179.7L465.4,176.4L463.5,171.9L460.8,173.8L459.5,175.5L458.0,176.4L456.7,175.3L456.6,173.8L452.4,173.5L451.3,172.2L450.1,171.5L450.6,174.3L451.4,176.0L451.1,178.2L449.6,178.2L448.5,176.1L447.1,174.2L445.0,165.9L440.3,162.1L438.0,160.8L436.3,160.3L433.5,157.7L430.0,156.2L425.3,152.2L419.4,149.2L412.3,148.1L403.6,148.9L400.5,150.4L398.6,152.6L397.6,153.5L392.5,155.9L390.5,159.2L389.4,162.1L386.8,165.4L389.7,167.4L373.0,178.6L369.6,180.1L362.0,181.3L360.2,182.5L358.0,184.7L357.7,188.0L358.0,190.9L360.2,193.1L362.2,194.4L366.8,201.1L375.2,209.4L376.7,212.4L378.0,216.9L375.5,219.0L373.6,219.9L365.7,220.3L363.0,222.1L361.8,224.8L358.9,227.1L348.6,229.3L340.7,229.5L338.2,226.9L337.5,219.7L332.2,207.4L330.9,198.9L329.6,199.9L326.7,200.9L325.8,203.0L325.0,209.3L324.0,211.4L321.7,211.3L317.2,209L311.3,207.0L303.5,193.6L302.7,191.1L301.3,188.1L295.3,186.9L290.2,184.6L284.7,184.3L281.9,185.5L279.0,183.9L278.6,180.3L272.8,181.9L265.2,181.4L258.6,179.8L254.1,180.6L250.2,183.2L250.8,189.9L249.7,191.1L249.6,188.5L248.1,185.3L246.5,182.7L243.3,180.1L243.1,179.1L244.4,177.7L250.5,173.8L251.2,172.2L251.3,168.8L250.7,165.6L247.9,160.9L249.6,157.9L252.6,155.5L255.8,153.7L256.5,152.9L255.8,151.3L253.9,149.6L249.6,146.6L247.0,146.3L246.8,137.8L247.0,128.7L247.6,127.8L249.2,127.3L250.5,125.9L251.3,123.2L253.1,122.2L256.6,124.3L260.2,126.2L261.6,125.6L262.8,124.7L263.6,123.7L263.7,123.0L266.6,125.4L272.4,129.7L272.8,131.8L272.3,133.8L273.9,139.6L276.8,140.4L279.8,139.3L280.6,140.4L280.0,141.5L278.6,142.6L278.1,147.7L283.1,150.0L285.5,152.1L293.7,151.1L296.8,151.6L298.9,151.1L296.6,147.0L293.5,144.1L293.7,142.7L296.1,143.7L297.9,145.7L301.9,148.2L309.3,157.0L317.9,159.0L324.6,158.8L330.9,157.6L341.1,154.2L348.3,148.1L354.1,145.4L372.8,139.6L379.6,133.5L382.3,132.7L385.0,131.9L390.8,127.4L394.1,123.7L397.4,122.0L407.4,123.3L413.7,125.0L418.2,124.8L422.6,126.0L424.4,128.5L426.3,129.7L436.8,129.4L445.5,130.7L464.3,138.4L475.6,146.0L481.5,154.1ZM427.9,181.9L426.9,183.8L424.8,179.6L425.2,178.5L425.0,174.6L427.1,173.6L428.5,173.5L429.7,174.1L430.5,178.6L429.8,180.7ZM306.7,224.4L304.3,224.7L299.3,222.8L295.6,219.0L295.3,217.9L295.5,216.6L297.4,212.8L300.1,211.4L301.1,211.4L303.7,215.9L301.9,217.5L302.7,220.3L306.3,222.3ZM278.6,131.9L278.1,134.0L274.7,130.1L276.6,129.5L277.4,129.6ZM420.3,182.9L418.4,184.8L417.6,183.0L419.0,181.0L419.5,181.0Z" fill="#4ECDC4" stroke="#2C3E50" stroke-width="1"/></g><circle cx="400.0" cy="150.0" r="4" fill="#E74C3C" stroke="#fff" stroke-width="2"/><text x="400.0" y="140.0" text-anchor="middle" font-family="sans-serif" font-weight="700" font-size="10" fill="#2D3436">Panama City</text></svg>