<svg viewBox="0 0 800 300" xmlns="http://www.w3.org/2000/svg"><defs><clipPath id="v"><rect width="800" height="300"/></clipPath></defs><rect width="800" height="300" fill="#DCEEF8"/><g clip-path="url(#v)"><path d="M2043,186L2045,185L2047,187L2046,191L2042,192L2039,191L2038,188L2040,186ZM2055,180L2051,182L2047,183L2046,181L2050,179L2052,179L2055,177L2055,177L2055,180ZM-263,177L-263,177L-263,177L-262,176L-263,180L-263,180L-263,180L-263,177Z" fill="#E0E0E0" stroke="#fff" stroke-width=".4"/><path d="M840,-114L840,-113L840,-112L840,-101L819,-101L819,-83L813,-82L812,-79L813,-69L788,-69L786,-67L787,-69L787,-69L801,-70L802,-73L805,-76L807,-85L816,-93L819,-102L821,-102L823,-108L828,-109L831,-108L833,-108L836,-110L840,-110L839,-114Z" fill="#E0E0E0" stroke="#fff" stroke-width=".4"/><path d="M105,-291L123,-291L142,-291L149,-291L168,-291L187,-291L207,-291L226,-291L248,-291L270,-291L283,-291L283,-295L286,-295L287,-290L289,-288L293,-287L300,-286L306,-283L311,-284L319,-282L321,-282L327,-284L333,-281L339,-277L345,-274L350,-271L350,-269L352,-268L351,-267L353,-266L354,-267L355,-265L356,-264L358,-264L359,-263L358,-261L365,-257L366,-248L367,-241L365,-235L362,-231L361,-227L361,-227L361,-225L364,-224L365,-224L373,-229L379,-230L388,-234L388,-235L387,-238L386,-240L389,-241L396,-241L401,-241L403,-245L404,-245L411,-252L414,-253L424,-253L436,-253L436,-256L438,-256L441,-258L443,-262L445,-269L450,-276L452,-274L457,-275L460,-273L460,-260L464,-255L465,-252L458,-247L451,-244L445,-242L441,-236L440,-234L440,-230L442,-225L445,-225L444,-228L446,-226L446,-224L441,-222L438,-222L433,-221L431,-220L427,-220L421,-218L431,-219L433,-218L424,-215L420,-215L420,-216L418,-214L420,-213L418,-207L414,-201L413,-203L412,-203L410,-205L411,-201L413,-200L413,-196L411,-193L407,-187L406,-187L408,-193L405,-196L404,-203L403,-199L405,-194L400,-195L405,-192L405,-185L407,-184L408,-181L408,-173L404,-168L398,-165L393,-161L390,-160L387,-157L386,-155L379,-150L375,-146L372,-142L371,-136L372,-131L375,-125L377,-120L378,-116L381,-108L380,-103L380,-100L378,-96L377,-95L373,-96L372,-99L370,-101L367,-107L364,-112L363,-115L364,-120L362,-124L357,-130L355,-132L348,-128L347,-129L344,-132L340,-134L332,-133L327,-134L322,-133L319,-132L320,-130L320,-127L322,-126L320,-125L318,-126L316,-124L311,-125L306,-128L300,-128L296,-129L292,-129L286,-127L280,-122L274,-118L271,-115L269,-112L269,-107L269,-103L271,-101L268,-101L263,-102L258,-104L257,-108L255,-113L251,-117L249,-121L246,-126L241,-129L236,-129L232,-123L227,-125L223,-128L222,-132L220,-136L216,-139L213,-141L210,-144L199,-144L199,-141L194,-141L181,-141L166,-146L157,-150L157,-151L149,-151L142,-150L141,-154L137,-158L134,-159L133,-161L129,-162L127,-164L121,-165L119,-166L119,-170L112,-178L107,-189L107,-191L104,-194L99,-201L98,-208L95,-212L96,-219L96,-227L94,-233L97,-242L97,-250L98,-258L97,-271L95,-279L93,-283L94,-285L103,-282L107,-273L108,-275L107,-283ZM-105,-60L-104,-60L-102,-59L-101,-56L-101,-56L-104,-54L-106,-53L-107,-52L-108,-53L-108,-55L-109,-58L-109,-58L-108,-60L-108,-61L-108,-62L-107,-61ZM-108,-65L-109,-64L-111,-64L-112,-65L-113,-66L-113,-66L-112,-67L-110,-66ZM-113,-68L-114,-67L-117,-67L-117,-68ZM-122,-72L-121,-71L-119,-69L-120,-68L-120,-68L-122,-69L-123,-70L-123,-71ZM-130,-75L-130,-73L-131,-73L-133,-74L-133,-74L-132,-75ZM-176,-419L-171,-418L-170,-413L-174,-411L-178,-413L-182,-417ZM-91,-389L-86,-388L-84,-384L-89,-379L-96,-374L-99,-377L-100,-383L-94,-387ZM-12,-563L-12,-500L-12,-418L-6,-418L1,-414L5,-409L11,-400L17,-407L24,-411L27,-405L31,-400L37,-394L41,-385L48,-372L59,-365L59,-357L55,-352L52,-356L46,-360L44,-370L36,-379L33,-391L26,-391L16,-392L9,-395L-5,-408L-11,-411L-22,-415L-31,-414L-44,-420L-51,-426L-58,-423L-57,-414L-61,-413L-68,-410L-74,-406L-81,-403L-82,-411L-79,-424L-72,-428L-74,-431L-82,-424L-86,-415L-96,-406L-91,-400L-97,-391L-104,-386L-111,-382L-112,-377L-122,-371L-124,-365L-132,-361L-136,-361L-142,-358L-149,-354L-154,-351L-165,-347L-166,-349L-159,-355L-153,-358L-146,-364L-138,-366L-135,-370L-126,-377L-124,-380L-120,-384L-119,-393L-115,-400L-123,-397L-125,-399L-128,-394L-132,-401L-134,-396L-137,-402L-143,-397L-147,-397L-148,-405L-146,-409L-151,-414L-159,-412L-164,-418L-169,-421L-169,-428L-174,-434L-171,-442L-166,-450L-164,-457L-158,-458L-154,-456L-149,-462L-144,-461L-139,-466L-140,-472L-144,-475L-139,-481L-143,-481L-150,-477L-152,-474L-157,-477L-166,-476L-176,-479L-178,-485L-187,-494L-177,-501L-163,-509L-158,-509L-159,-501L-145,-501L-150,-511L-158,-518L-163,-526L-169,-533L-178,-539L-174,-548L-163,-549L-155,-557L-153,-566L-147,-575L-140,-577L-128,-586L-122,-584L-112,-595L-103,-591L-98,-582L-95,-586L-84,-585L-84,-580L-75,-577L-68,-579L-55,-573L-42,-571L-37,-568L-29,-571L-19,-566ZM-210,-466L-206,-463L-202,-465L-197,-461L-190,-459L-191,-457L-196,-454L-201,-457L-203,-460L-209,-459L-210,-460Z" fill="#E0E0E0" stroke="#fff" stroke-width=".4"/><path d="M454,472L457,477L460,485L468,492L477,494L474,500L468,501L465,497L461,496L454,496ZM525,276L523,282L522,290L522,297L520,299L520,304L519,308L528,315L527,320L531,324L530,328L524,338L515,343L502,344L495,344L496,349L495,355L496,359L492,362L485,363L479,360L477,362L478,371L482,374L486,371L487,375L482,378L476,384L475,393L474,397L468,397L463,402L461,409L467,416L473,418L471,426L464,432L459,443L454,447L451,452L453,463L457,469L455,468L449,467L433,465L430,459L430,452L426,452L424,449L423,438L428,434L430,427L430,423L433,415L435,402L435,397L437,395L437,392L434,390L436,386L433,383L431,373L434,371L433,360L435,352L436,344L440,341L438,333L438,326L443,321L443,314L447,306L447,299L445,298L442,285L446,277L445,270L448,263L452,256L456,252L454,249L456,247L456,235L463,231L465,224L464,222L469,216L478,218L482,223L484,217L491,217L492,219L504,230L510,231L517,237L524,239L525,242L519,253L525,255L532,257L537,255L543,250L544,243L548,242L551,246L551,252L545,256L541,259L534,266Z" fill="#E0E0E0" stroke="#fff" stroke-width=".4"/><path d="M454,472L454,496L461,496L465,497L463,501L457,505L454,504L450,503L446,500L439,498L431,492L424,486L415,474L421,476L430,484L438,487L442,482L444,475L450,471ZM448,187L451,191L452,196L455,199L453,206L457,214L459,223L464,222L465,224L463,231L456,235L456,247L454,249L456,252L452,256L448,263L445,270L446,277L442,285L445,298L447,299L447,306L443,314L443,321L438,326L438,333L440,341L436,344L435,352L433,360L434,371L431,373L433,383L436,386L434,390L437,392L437,395L435,397L435,402L433,415L430,423L430,427L428,434L423,438L424,449L426,452L430,452L430,459L433,465L449,467L455,468L449,468L446,471L440,475L439,485L436,485L429,482L421,474L413,468L411,461L413,455L410,449L409,432L412,422L419,415L409,412L415,404L417,389L424,392L428,374L424,371L421,382L417,381L419,369L422,353L425,347L423,339L422,330L425,330L429,317L433,304L436,293L435,281L437,275L436,266L440,257L441,243L443,229L445,213L444,202L443,192L446,190Z" fill="#E0E0E0" stroke="#fff" stroke-width=".4"/><path d="M1085,101L1086,107L1086,110L1087,114L1091,118L1094,126L1092,125L1083,126L1081,127L1079,131L1081,134L1080,142L1079,148L1081,149L1085,152L1087,151L1087,158L1083,158L1080,154L1077,151L1073,151L1071,147L1067,149L1062,148L1060,145L1056,145L1053,145L1052,143L1050,143L1047,142L1043,143L1040,143L1039,144L1039,136L1037,133L1037,129L1038,126L1036,123L1036,119L1028,119L1029,117L1026,117L1025,118L1021,118L1020,122L1019,123L1015,123L1013,123L1009,124L1006,121L1005,118L1003,115L1001,110L982,110L980,110L978,110L976,111L975,109L976,108L976,106L978,104L980,103L982,103L984,101L987,101L988,103L990,104L994,100L998,97L999,95L999,89L1002,83L1005,80L1009,77L1010,75L1010,72L1011,70L1011,66L1011,61L1013,57L1015,53L1015,49L1016,45L1018,41L1022,39L1027,42L1031,44L1036,45L1040,46L1042,42L1043,41L1046,42L1053,39L1056,40L1058,40L1059,38L1061,38L1066,39L1070,39L1072,38L1076,43L1079,44L1081,43L1084,44L1088,42L1089,45L1095,49L1094,57L1097,58L1095,60L1092,62L1090,65L1089,68L1088,73L1087,76L1087,80L1085,82L1085,86L1084,87L1083,90L1085,93Z" fill="#E0E0E0" stroke="#fff" stroke-width=".4"/><path d="M1050,-57L1050,-30L1044,-30L1041,-26L1040,-21L1041,-20L1039,-18L1040,-15L1038,-12L1037,-10L1040,-10L1041,-8L1041,-4L1043,-2L1043,-0L1039,1L1036,3L1031,11L1025,14L1019,13L1017,14L1018,16L1015,18L1012,21L1004,23L1002,22L1001,22L1000,23L995,24L996,22L994,18L993,15L990,14L986,10L987,7L990,8L992,7L996,7L992,1L993,-3L992,-7L990,-12L990,-15L986,-15L986,-19L983,-22L986,-30L994,-37L995,-46L997,-59L999,-62L996,-65L996,-67L993,-69L992,-80L998,-83L1024,-70Z" fill="#E0E0E0" stroke="#fff" stroke-width=".4"/><path d="M434,-58L435,-54L434,-51L433,-50L434,-48L434,-46L430,-48L427,-47L423,-48L420,-46L417,-48L417,-51L423,-50L428,-49L430,-51L427,-54L427,-56L423,-57L425,-59L429,-59Z" fill="#E0E0E0" stroke="#fff" stroke-width=".4"/><path d="M434,-46L434,-48L433,-50L434,-51L435,-54L434,-58L435,-59L440,-59L444,-57L446,-57L447,-55L450,-55L450,-53L453,-53L456,-50L454,-47L451,-49L448,-49L446,-49L444,-48L442,-47L441,-49L439,-48L436,-43L435,-44Z" fill="#E0E0E0" stroke="#fff" stroke-width=".4"/><path d="M388,-107L391,-108L395,-108L395,-106L388,-105ZM395,-109L400,-106L399,-101L398,-102L398,-105L395,-108ZM393,-96L395,-96L397,-90L397,-86L395,-85L394,-89L391,-92Z" fill="#E0E0E0" stroke="#fff" stroke-width=".4"/><path d="M502,464L510,457L515,460L519,456L524,461L522,464L514,467L511,464L505,468Z" fill="#E0E0E0" stroke="#fff" stroke-width=".4"/><path d="M142,-150L149,-151L157,-151L157,-150L166,-146L181,-141L194,-141L199,-141L199,-144L210,-144L213,-141L216,-139L220,-136L222,-132L223,-128L227,-125L232,-123L236,-129L241,-129L246,-126L249,-121L251,-117L255,-113L257,-108L258,-104L263,-102L268,-101L271,-101L268,-95L267,-89L266,-80L266,-77L267,-73L269,-69L270,-64L275,-59L276,-55L279,-52L285,-50L288,-47L294,-49L299,-50L303,-51L307,-52L312,-55L313,-59L314,-65L315,-67L319,-68L326,-70L332,-70L336,-70L337,-69L337,-66L333,-61L332,-57L333,-56L332,-53L330,-48L329,-50L327,-49L326,-49L324,-45L323,-46L322,-46L322,-45L316,-45L310,-45L310,-41L307,-41L310,-39L312,-37L313,-36L314,-35L314,-33L305,-33L302,-28L303,-26L302,-25L302,-23L295,-30L292,-32L286,-34L283,-33L278,-31L274,-30L270,-32L265,-33L259,-36L254,-37L247,-40L241,-44L240,-45L236,-46L230,-48L227,-51L220,-55L217,-59L215,-63L217,-63L217,-65L218,-67L218,-69L216,-73L215,-75L213,-79L208,-86L201,-91L198,-96L192,-99L191,-100L192,-105L189,-107L185,-110L184,-115L180,-116L176,-120L173,-123L173,-125L170,-131L167,-137L167,-140L163,-143L161,-142L157,-144L156,-141L157,-138L158,-132L160,-129L165,-124L166,-122L167,-122L168,-119L169,-119L170,-115L172,-113L173,-110L177,-106L179,-100L181,-97L183,-93L184,-90L187,-89L189,-86L192,-83L191,-82L189,-79L188,-79L186,-83L182,-87L177,-91L174,-93L174,-98L173,-102L170,-104L165,-107L165,-106L163,-108L159,-110L155,-114L156,-115L158,-114L161,-117L161,-120L156,-126L152,-128L150,-132L147,-137L144,-143Z" fill="#E0E0E0" stroke="#fff" stroke-width=".4"/><path d="M525,276L529,275L536,281L538,281L545,286L550,290L553,295L551,299L552,303L550,308L542,312L538,311L534,312L528,308L524,309L520,304L520,299L522,297L522,290L523,282Z" fill="#E0E0E0" stroke="#fff" stroke-width=".4"/><path d="M552,303L551,299L553,295L550,290L545,286L538,281L536,281L529,275L525,276L534,266L541,259L545,256L551,252L551,246L548,242L544,243L546,239L546,235L546,231L544,230L542,231L539,231L539,228L538,222L537,220L532,218L530,219L523,218L523,208L522,205L524,203L523,199L525,196L526,191L524,187L521,185L520,182L521,178L509,178L506,170L508,170L508,167L507,165L506,161L503,159L499,160L496,158L492,156L489,154L482,153L475,147L475,142L475,140L475,135L467,136L464,139L458,141L456,143L453,143L448,143L445,144L442,143L442,133L437,137L431,137L429,133L425,133L426,130L422,126L420,120L421,119L421,116L425,115L425,111L426,109L427,106L434,101L439,100L440,99L446,100L449,82L449,79L448,75L445,73L445,68L449,67L450,68L450,65L447,65L447,61L459,61L461,59L463,61L464,65L465,64L469,67L474,67L475,65L480,63L483,62L483,59L488,58L488,56L482,56L481,52L482,47L479,46L480,45L485,46L490,48L492,46L496,45L504,43L506,40L505,38L508,38L510,39L509,42L511,43L513,46L511,49L510,54L512,57L512,60L516,63L519,64L520,62L522,62L525,61L527,59L530,60L532,60L536,60L536,59L535,58L536,56L538,56L541,56L545,57L548,58L550,57L551,57L552,59L555,58L558,56L560,51L563,45L566,45L567,48L571,60L574,61L574,65L570,70L572,72L583,73L583,80L588,76L596,78L607,82L610,86L609,89L617,87L629,91L639,90L648,96L656,103L661,105L667,105L669,107L671,115L672,119L670,130L667,134L658,143L653,151L649,157L647,157L645,162L646,174L644,184L643,189L641,191L640,201L634,210L632,217L627,220L626,224L619,224L609,227L604,230L597,232L589,237L584,244L583,250L584,254L583,261L581,265L577,269L570,282L564,288L560,291L557,299Z" fill="#E0E0E0" stroke="#fff" stroke-width=".4"/><path d="M448,143L453,143L456,143L458,141L464,139L467,136L475,135L475,140L475,142L475,147L482,153L489,154L492,156L496,158L499,160L503,159L506,161L507,165L508,167L508,170L506,170L509,178L521,178L520,182L521,185L524,187L526,191L525,196L523,199L524,203L522,205L521,202L515,199L509,199L498,201L495,207L495,211L492,219L491,217L484,217L482,223L478,218L469,216L464,222L459,223L457,214L453,206L455,199L452,196L451,191L448,187L452,180L449,174L451,172L450,169L452,166L452,160L453,156L454,153Z" fill="#E0E0E0" stroke="#fff" stroke-width=".4"/><path d="M465,64L464,65L463,61L461,59L459,61L447,61L447,65L450,65L450,68L449,67L445,68L445,73L448,75L449,79L449,82L446,100L443,96L441,96L445,89L440,86L436,87L434,86L430,88L426,87L422,80L419,78L417,75L412,72L411,73L408,71L405,69L403,70L398,69L396,66L395,67L388,63L387,61L390,60L390,57L391,55L394,54L397,50L399,47L397,45L398,42L397,36L398,34L397,29L395,25L395,22L397,22L399,21L397,17L398,16L401,16L406,11L409,11L409,9L410,3L414,-0L418,-0L418,-2L423,-1L428,-4L431,-6L434,-9L436,-9L438,-7L437,-5L433,-3L431,-0L429,2L427,4L426,9L424,13L427,13L428,16L430,17L430,20L429,23L430,24L431,24L433,27L441,26L445,27L449,32L452,32L457,32L460,31L462,32L461,36L460,38L459,43L461,47L462,49L463,50L459,54L462,55L463,57Z" fill="#E0E0E0" stroke="#fff" stroke-width=".4"/><path d="M398,16L397,17L399,21L397,22L395,22L395,25L392,23L391,20L393,18L391,18L390,15L387,14L384,14L382,16L380,18L378,18L378,20L381,23L379,24L378,25L375,25L374,21L373,22L371,22L370,19L367,19L366,18L363,18L363,20L362,19L362,17L363,16L362,15L363,14L362,13L362,11L365,10L367,12L367,14L369,14L370,13L372,15L375,15L378,13L381,12L384,10L387,10L387,11L391,11L393,12L396,14Z" fill="#E0E0E0" stroke="#fff" stroke-width=".4"/><path d="M365,10L362,11L362,13L363,14L362,15L363,16L362,17L362,19L358,17L357,16L358,15L358,13L356,12L353,10L351,10L351,8L349,7L349,8L348,10L347,8L344,8L344,6L344,4L344,2L343,1L344,-0L345,-1L349,1L351,-0L353,1L354,2L356,2L357,1L359,4L362,7Z" fill="#E0E0E0" stroke="#fff" stroke-width=".4"/><path d="M357,1L356,2L354,2L353,1L351,-0L349,1L345,-1L344,-0L342,-2L339,-5L337,-7L335,-9L332,-12L332,-13L333,-12L334,-13L336,-13L337,-14L338,-14L337,-18L339,-18L340,-18L342,-20L344,-18L344,-19L345,-20L348,-22L348,-23L348,-23L349,-25L350,-25L351,-24L352,-23L354,-24L355,-24L358,-25L358,-26L361,-26L360,-25L360,-24L360,-21L359,-19L358,-16L358,-13L358,-12L359,-9L358,-8L357,-5L357,-4L356,-2L356,-0Z" fill="#E0E0E0" stroke="#fff" stroke-width=".4"/><path d="M361,-26L358,-26L358,-25L355,-24L354,-24L352,-23L351,-24L350,-25L349,-25L348,-23L348,-23L348,-22L345,-20L344,-19L344,-18L342,-20L340,-18L339,-18L337,-18L338,-14L337,-14L336,-13L334,-13L333,-15L331,-15L331,-18L330,-19L329,-19L326,-18L326,-19L324,-20L323,-22L321,-22L322,-24L322,-25L322,-26L325,-28L328,-31L329,-31L330,-32L332,-32L332,-31L333,-32L336,-31L339,-31L342,-32L342,-33L344,-32L346,-32L348,-32L349,-33L352,-32L353,-31L355,-30L357,-29L359,-28Z" fill="#E0E0E0" stroke="#fff" stroke-width=".4"/><path d="M321,-22L323,-22L324,-20L326,-19L326,-18L329,-19L330,-19L331,-18L331,-15L330,-14L326,-14L324,-14L321,-16L318,-16L316,-18L316,-18L318,-20L320,-21L319,-22Z" fill="#E0E0E0" stroke="#fff" stroke-width=".4"/><path d="M302,-23L302,-25L303,-26L302,-28L305,-33L314,-33L314,-35L313,-36L312,-37L310,-39L307,-41L310,-41L310,-45L316,-45L322,-45L322,-39L322,-32L323,-32L326,-31L326,-32L328,-31L325,-28L322,-26L322,-25L322,-24L321,-22L319,-22L320,-21L318,-20L316,-18L316,-18L313,-19L309,-19L306,-20Z" fill="#E0E0E0" stroke="#fff" stroke-width=".4"/><path d="M322,-45L322,-46L323,-46L324,-45L326,-49L327,-49L328,-48L329,-48L329,-47L328,-44L328,-43L327,-40L328,-40L327,-36L326,-34L325,-34L323,-32L322,-32L322,-39Z" fill="#E0E0E0" stroke="#fff" stroke-width=".4"/><path d="M505,38L506,40L504,43L496,45L492,46L490,48L485,46L480,45L479,46L482,47L481,52L482,56L488,56L488,58L483,59L483,62L480,63L475,65L474,67L469,67L465,64L463,57L462,55L459,54L463,50L462,49L461,47L459,43L460,38L461,36L462,32L460,31L457,32L452,32L449,32L445,27L441,26L433,27L431,24L430,24L429,23L430,20L430,17L428,16L427,13L424,13L426,9L427,4L429,2L431,-0L433,-3L437,-5L437,-3L433,-2L435,1L435,4L432,8L434,13L437,13L439,8L437,6L436,1L444,-2L443,-5L446,-7L448,-2L453,-2L457,1L457,3L463,4L470,3L473,6L478,7L482,5L482,3L490,2L498,2L492,4L494,7L500,8L504,11L505,16L509,16L511,18L506,22L506,24L508,26L506,28L502,29L502,32L501,33Z" fill="#E0E0E0" stroke="#fff" stroke-width=".4"/><path d="M532,60L530,60L527,59L525,61L522,62L520,62L519,64L516,63L512,60L512,57L510,54L511,49L513,46L511,43L509,42L510,39L508,38L505,38L501,33L502,32L502,29L506,28L508,26L506,24L506,22L511,18L516,20L520,24L520,28L522,28L526,31L528,33L527,39L523,41L524,42L522,46L525,50L527,50L528,54Z" fill="#E0E0E0" stroke="#fff" stroke-width=".4"/><path d="M545,57L541,56L538,56L536,56L535,58L536,59L536,60L532,60L528,54L527,50L525,50L522,46L524,42L523,41L527,39L528,33L536,35L537,33L542,33L549,35L545,40L546,45L548,48L547,51L547,54Z" fill="#E0E0E0" stroke="#fff" stroke-width=".4"/><path d="M563,45L560,51L558,56L555,58L552,59L551,57L550,57L548,58L545,57L547,54L547,51L548,48L546,45L545,40L549,35L551,35L556,37L562,42ZM936,-296L939,-293L948,-291L945,-285L944,-278L942,-276L940,-277L940,-275L935,-269L935,-265L938,-267L940,-263L940,-260L942,-256L940,-254L941,-247L945,-246L944,-242L938,-237L925,-239L916,-236L915,-231L908,-230L901,-234L898,-232L886,-236L884,-239L887,-245L888,-263L882,-273L877,-277L867,-281L867,-288L875,-290L886,-288L884,-299L890,-295L905,-302L907,-311L912,-313L913,-309L916,-309L919,-305L924,-300L927,-301L933,-296L934,-296ZM952,-232L957,-236L958,-228L956,-221L953,-223L951,-229Z" fill="#E0E0E0" stroke="#fff" stroke-width=".4"/><path d="M411,73L412,78L410,82L403,89L395,91L391,97L390,101L386,104L383,101L381,100L378,100L378,98L380,96L379,94L382,89L381,86L379,89L375,86L376,84L375,79L377,78L378,74L381,69L380,67L384,65L388,63L395,67L396,66L398,69L403,70L405,69L408,71Z" fill="#E0E0E0" stroke="#fff" stroke-width=".4"/><path d="M469,-50L473,-49L474,-48L472,-46L467,-46L463,-46L463,-49L464,-50Z" fill="#E0E0E0" stroke="#fff" stroke-width=".4"/><path d="M397,-49L401,-49L404,-47L405,-45L401,-45L399,-44L395,-45L392,-48L392,-49L395,-50Z" fill="#E0E0E0" stroke="#fff" stroke-width=".4"/><path d="M366,-82L372,-81L377,-81L383,-79L386,-76L392,-77L394,-75L399,-71L403,-68L405,-68L409,-67L409,-65L414,-64L418,-62L418,-60L413,-59L409,-59L405,-59L395,-59L400,-63L397,-64L393,-65L391,-67L389,-71L386,-70L380,-72L378,-74L369,-75L367,-76L369,-78L363,-78L358,-75L356,-75L355,-73L352,-72L349,-73L352,-75L354,-77L357,-79L360,-80L365,-81Z" fill="#E0E0E0" stroke="#fff" stroke-width=".4"/><path d="M1024,237L1024,263L1019,267L1015,267L1011,266L1008,266L1007,262L1005,260L1001,264L997,258L994,253L993,246L991,241L989,230L989,222L988,218L985,215L982,209L979,201L977,197L972,190L972,185L975,184L979,183L983,183L987,186L988,185L1014,185L1018,188L1034,189L1046,186L1051,185L1055,185L1058,187L1058,187L1054,189L1052,189L1048,192L1046,189L1036,191L1031,191L1031,216L1024,216Z" fill="#E0E0E0" stroke="#fff" stroke-width=".4"/><path d="M789,-17L786,-22L783,-24L785,-25L789,-30L790,-34L792,-36L796,-35L799,-37L802,-37L805,-35L810,-33L814,-28L818,-23L818,-19L819,-15L822,-14L822,-11L822,-9L821,-9L818,-9L817,-8L816,-8L811,-10L808,-10L796,-10L794,-9L792,-10L789,-9L788,-14L794,-13L795,-14L796,-14L799,-16L801,-15L804,-14L807,-16L806,-18L804,-17L802,-17L799,-18L797,-18L796,-17Z" fill="#E0E0E0" stroke="#fff" stroke-width=".4"/><path d="M822,-9L822,-11L822,-14L819,-15L818,-19L818,-23L820,-25L821,-28L823,-29L828,-27L831,-28L834,-28L835,-29L860,-29L862,-34L861,-35L858,-64L855,-94L864,-94L886,-79L908,-64L909,-61L913,-59L916,-58L917,-53L924,-54L924,-38L920,-34L920,-30L914,-29L905,-28L903,-26L899,-25L894,-25L893,-27L889,-26L883,-23L882,-21L877,-18L876,-16L873,-15L870,-16L869,-14L868,-10L863,-4L863,-2L861,1L861,5L859,6L857,6L856,4L854,4L853,4L852,6L847,6L845,5L844,6L842,4L843,2L842,1L841,2L841,-0L842,-2L840,-5L839,-7L837,-8L836,-8L835,-7L832,-6L831,-5L828,-6L826,-7L825,-7L823,-7L822,-7Z" fill="#E0E0E0" stroke="#fff" stroke-width=".4"/><path d="M786,-67L788,-69L813,-69L812,-79L813,-82L819,-83L819,-101L840,-101L840,-112L864,-94L855,-94L858,-64L861,-35L862,-34L860,-29L835,-29L834,-28L831,-28L828,-27L823,-29L821,-28L820,-25L818,-23L814,-28L810,-33L805,-35L802,-37L799,-37L796,-35L792,-36L790,-34L790,-37L791,-40L792,-47L791,-54L791,-57L791,-60L790,-64Z" fill="#E0E0E0" stroke="#fff" stroke-width=".4"/><path d="M913,31L908,32L907,28L907,13L906,11L905,8L903,6L901,4L902,1L904,-0L905,-3L909,-4L910,-6L912,-8L915,-8L919,-4L919,-2L921,2L919,5L920,7L917,11L915,13L914,17L914,21Z" fill="#E0E0E0" stroke="#fff" stroke-width=".4"/><path d="M992,-80L993,-69L996,-67L996,-65L999,-62L997,-59L995,-46L994,-37L986,-30L983,-22L986,-19L986,-15L990,-15L990,-12L988,-11L987,-9L986,-9L982,-16L980,-17L975,-13L970,-15L967,-15L965,-14L961,-14L957,-12L954,-11L946,-15L943,-13L940,-13L938,-16L931,-18L924,-18L923,-16L922,-12L920,-10L919,-4L915,-8L912,-8L910,-6L910,-10L903,-12L903,-15L899,-19L898,-22L899,-25L903,-26L905,-28L914,-29L920,-30L920,-34L924,-38L924,-54L933,-57L951,-70L973,-84L984,-81L987,-77Z" fill="#E0E0E0" stroke="#fff" stroke-width=".4"/><path d="M913,31L914,21L914,17L915,13L917,11L920,7L919,5L921,2L919,-2L919,-4L920,-10L922,-12L923,-16L924,-18L931,-18L938,-16L940,-13L943,-13L946,-15L954,-11L957,-12L961,-14L965,-14L967,-15L970,-15L975,-13L980,-17L982,-16L986,-9L987,-9L990,-7L989,-5L989,-3L984,2L982,6L981,9L980,11L978,15L975,18L974,21L972,24L972,27L967,29L964,26L961,26L957,30L956,30L953,36L951,41L944,43L942,43L939,44L934,44L931,40L929,36L924,31L919,31Z" fill="#E0E0E0" stroke="#fff" stroke-width=".4"/><path d="M990,-12L992,-7L993,-3L992,1L996,7L992,7L990,8L987,7L986,10L990,14L993,15L994,18L996,22L995,24L991,30L990,32L989,37L990,39L989,41L992,45L993,47L995,50L998,52L999,55L999,57L999,61L994,59L988,57L980,57L980,57L976,58L972,57L969,57L958,57L959,52L957,48L954,47L952,44L951,43L951,41L953,36L956,30L957,30L961,26L964,26L967,29L972,27L972,24L974,21L975,18L978,15L980,11L981,9L982,6L984,2L989,-3L989,-5L990,-7L987,-9L988,-11Z" fill="#E0E0E0" stroke="#fff" stroke-width=".4"/><path d="M902,1L901,4L903,6L905,8L906,11L907,13L907,28L908,32L903,34L902,31L900,27L899,24L901,18L899,16L899,11L899,6L896,2L896,0Z" fill="#E0E0E0" stroke="#fff" stroke-width=".4"/><path d="M896,0L896,2L899,6L899,11L899,16L901,18L899,24L900,27L902,31L903,34L893,37L889,40L884,41L878,40L878,37L875,31L877,24L880,19L878,9L877,5L877,1L888,0L891,1L893,-0Z" fill="#E0E0E0" stroke="#fff" stroke-width=".4"/><path d="M844,6L845,5L847,6L852,6L853,4L854,4L856,4L857,6L859,6L861,5L864,6L865,8L868,10L871,8L874,8L878,9L880,19L877,24L875,31L878,37L878,40L875,40L870,38L866,38L859,40L854,41L848,44L846,44L847,38L848,38L847,35L845,32L843,32L841,30L842,27L841,24L842,22L843,22L843,19L843,18L843,17L846,16L844,11L843,8L843,6Z" fill="#E0E0E0" stroke="#fff" stroke-width=".4"/><path d="M808,-10L811,-10L816,-8L817,-8L818,-9L821,-9L822,-9L822,-7L823,-7L825,-7L826,-7L828,-6L831,-5L832,-6L835,-7L836,-8L837,-8L839,-7L840,-5L842,-2L841,-0L841,2L842,1L843,2L842,4L844,6L843,6L843,8L844,11L846,16L843,17L843,18L843,19L843,22L842,22L840,22L839,25L837,25L836,23L836,21L833,17L832,17L830,17L828,18L829,15L828,14L828,12L826,9L825,7L819,7L818,8L816,8L815,10L814,11L811,14L808,10L806,8L804,7L802,6L802,3L801,1L799,0L802,-3L804,-3L805,-4L807,-4L808,-5L807,-7L808,-8Z" fill="#E0E0E0" stroke="#fff" stroke-width=".4"/><path d="M789,-9L792,-10L794,-9L796,-10L808,-10L808,-8L807,-7L808,-5L807,-4L805,-4L804,-3L802,-3L799,0L795,-2L793,-3L791,-5L791,-6L789,-7Z" fill="#E0E0E0" stroke="#fff" stroke-width=".4"/><path d="M842,22L841,24L842,27L841,30L843,32L845,32L847,35L848,38L847,38L846,44L845,44L838,41L832,36L827,32L822,28L824,26L824,24L827,21L830,17L832,17L833,17L836,21L836,23L837,25L839,25L840,22Z" fill="#E0E0E0" stroke="#fff" stroke-width=".4"/><path d="M811,14L814,11L815,10L816,8L818,8L819,7L825,7L826,9L828,12L828,14L829,15L828,18L830,17L827,21L824,24L824,26L822,28L821,28L816,25L813,21L812,19Z" fill="#E0E0E0" stroke="#fff" stroke-width=".4"/><path d="M861,5L861,1L863,-2L863,-4L868,-10L869,-14L870,-16L873,-15L876,-16L877,-18L882,-21L883,-23L889,-26L893,-27L894,-25L899,-25L898,-22L899,-19L903,-15L903,-12L910,-10L910,-6L909,-4L905,-3L904,-0L902,1L896,0L893,-0L891,1L888,0L877,1L877,5L878,9L874,8L871,8L868,10L865,8L864,6Z" fill="#E0E0E0" stroke="#fff" stroke-width=".4"/><path d="M1072,38L1070,39L1066,39L1061,38L1059,38L1058,40L1056,40L1053,39L1046,42L1043,41L1042,42L1040,46L1036,45L1031,44L1027,42L1022,39L1018,41L1016,45L1015,49L1011,49L1007,48L1003,51L999,57L999,55L998,52L995,50L993,47L992,45L989,41L990,39L989,37L990,32L991,30L995,24L1000,23L1001,22L1002,22L1004,23L1012,21L1015,18L1018,16L1017,14L1019,13L1025,14L1031,11L1036,3L1039,1L1043,-0L1044,2L1048,6L1048,9L1047,12L1047,14L1049,16L1054,19L1058,21L1058,23L1062,27L1065,30L1067,33L1071,36Z" fill="#E0E0E0" stroke="#fff" stroke-width=".4"/><path d="M1015,49L1015,53L1013,57L1011,61L1011,66L1011,70L1010,72L1010,75L1009,77L1005,80L1002,83L999,89L999,95L998,97L994,100L990,104L988,103L987,101L984,101L982,103L980,103L977,100L975,102L973,104L968,97L973,94L970,90L972,88L977,87L977,84L981,87L986,88L988,85L989,80L988,75L985,72L988,64L986,63L982,63L980,60L980,57L988,57L994,59L999,61L999,57L1003,51L1007,48L1011,49Z" fill="#E0E0E0" stroke="#fff" stroke-width=".4"/><path d="M969,57L972,57L976,58L980,57L980,57L980,60L982,63L986,63L988,64L985,72L988,75L989,80L988,85L986,88L981,87L977,84L977,87L972,88L970,90L973,94L968,97L961,91L957,86L953,79L953,77L954,75L956,70L957,65L959,65L969,65Z" fill="#E0E0E0" stroke="#fff" stroke-width=".4"/><path d="M958,57L969,57L969,65L959,65L957,65L956,64Z" fill="#E0E0E0" stroke="#fff" stroke-width=".4"/><path d="M980,103L978,104L976,106L976,108L975,109L973,104L975,102L977,100ZM976,111L978,110L980,110L982,110L1001,110L1003,115L1005,118L1006,121L1009,124L1013,123L1015,123L1019,123L1020,122L1021,118L1025,118L1026,117L1029,117L1028,119L1036,119L1036,123L1038,126L1037,129L1037,133L1039,136L1039,144L1040,143L1043,143L1047,142L1050,143L1051,145L1050,148L1051,151L1050,153L1051,156L1037,156L1037,177L1041,182L1046,186L1034,189L1018,188L1014,185L988,185L987,186L983,183L979,183L975,184L972,185L971,181L972,175L974,169L975,166L977,160L978,157L982,153L984,150L985,145L984,141L982,139L981,135L979,131L979,130L981,127L979,121L978,117L975,112Z" fill="#E0E0E0" stroke="#fff" stroke-width=".4"/><path d="M789,-17L796,-17L797,-18L799,-18L802,-17L804,-17L806,-18L807,-16L804,-14L801,-15L799,-16L796,-14L795,-14L794,-13L788,-14Z" fill="#E0E0E0" stroke="#fff" stroke-width=".4"/><path d="M957,-133L954,-147L951,-150L950,-152L945,-156L945,-162L949,-166L950,-173L949,-180L950,-185L957,-188L962,-187L962,-183L967,-186L968,-184L964,-180L964,-177L967,-175L966,-168L962,-164L963,-160L966,-159L968,-156L970,-155L970,-149L967,-147L965,-144L960,-141L961,-138L960,-135Z" fill="#E0E0E0" stroke="#fff" stroke-width=".4"/><path d="M840,-112L840,-113L840,-114L840,-122L851,-128L857,-129L862,-131L865,-135L872,-138L873,-143L876,-144L879,-147L888,-148L889,-151L887,-152L885,-161L885,-165L882,-170L888,-175L895,-176L899,-179L906,-182L917,-183L927,-184L930,-183L936,-186L943,-186L946,-184L950,-185L949,-180L950,-173L949,-166L945,-162L945,-156L950,-152L951,-150L954,-147L957,-133L959,-127L960,-123L959,-117L959,-114L958,-110L959,-105L956,-102L960,-97L960,-94L963,-90L966,-91L971,-88L973,-84L951,-70L933,-57L924,-54L917,-53L916,-58L913,-59L909,-61L908,-64L886,-79L864,-94Z" fill="#E0E0E0" stroke="#fff" stroke-width=".4"/><path d="M838,-226L840,-228L843,-229L845,-225L848,-225L849,-226L853,-226L855,-221L852,-219L852,-212L851,-211L851,-207L848,-207L850,-202L849,-196L851,-194L850,-192L848,-188L848,-186L846,-184L842,-185L839,-184L840,-190L839,-195L836,-196L835,-199L835,-205L838,-208L838,-211L840,-216L840,-220L838,-223Z" fill="#E0E0E0" stroke="#fff" stroke-width=".4"/><path d="M848,-186L848,-188L850,-192L851,-194L849,-196L850,-202L848,-207L851,-207L851,-211L852,-212L852,-219L855,-221L853,-226L849,-226L848,-225L845,-225L843,-229L840,-228L838,-226L838,-232L836,-236L845,-242L853,-241L861,-241L868,-239L873,-240L884,-239L886,-236L898,-232L901,-234L908,-230L915,-231L916,-226L910,-220L901,-218L901,-215L897,-211L894,-204L897,-199L893,-196L892,-190L887,-189L882,-182L874,-182L868,-182L864,-180L862,-177L858,-177L856,-180L854,-185Z" fill="#E0E0E0" stroke="#fff" stroke-width=".4"/><path d="M963,-271L967,-270L968,-271L974,-273L976,-270L985,-267L984,-263L986,-259L981,-260L976,-257L976,-252L975,-250L977,-245L983,-241L987,-233L994,-226L999,-226L1000,-225L998,-223L1004,-220L1009,-217L1015,-213L1015,-211L1014,-208L1010,-212L1005,-213L1002,-208L1007,-205L1006,-201L1003,-200L1000,-193L997,-192L997,-195L999,-199L1000,-201L997,-206L995,-210L993,-211L991,-215L987,-216L984,-220L979,-220L974,-224L968,-230L964,-235L962,-244L959,-245L953,-248L950,-246L947,-242L944,-242L945,-246L941,-247L940,-254L942,-256L940,-260L940,-263L943,-261L946,-261L950,-264L951,-263L954,-263L955,-267L960,-266L963,-267ZM991,-194L996,-195L994,-189L995,-186L993,-182L988,-185L985,-186L976,-190L977,-194L985,-193ZM952,-217L955,-220L959,-214L958,-203L956,-203L953,-201L950,-203L950,-213L949,-218Z" fill="#E0E0E0" stroke="#fff" stroke-width=".4"/><path d="M522,205L523,208L523,218L530,219L532,218L537,220L538,222L539,228L539,231L542,231L544,230L546,231L546,235L546,239L544,243L543,250L537,255L532,257L525,255L519,253L525,242L524,239L517,237L510,231L504,230L492,219L495,211L495,207L498,201L509,199L515,199L521,202Z" fill="#E0E0E0" stroke="#fff" stroke-width=".4"/><path d="M882,-170L885,-165L885,-161L887,-152L889,-151L888,-148L879,-147L876,-144L873,-143L872,-138L865,-135L862,-131L857,-129L851,-128L840,-122L840,-114L839,-114L840,-110L836,-110L833,-108L831,-108L828,-109L823,-108L821,-102L819,-102L816,-93L807,-85L805,-76L802,-73L801,-70L787,-69L787,-69L787,-73L789,-75L791,-78L791,-81L793,-86L797,-90L799,-91L801,-95L801,-99L803,-104L807,-106L812,-114L812,-114L815,-116L821,-117L826,-122L829,-124L835,-130L833,-140L835,-146L836,-150L840,-155L847,-159L852,-162L856,-170L858,-175L863,-175L867,-172L873,-172L879,-170Z" fill="#E0E0E0" stroke="#fff" stroke-width=".4"/><path d="M1057,-73L1057,-60L1050,-60L1050,-57L1024,-70L998,-83L992,-80L987,-77L984,-81L973,-84L971,-88L966,-91L963,-90L960,-94L960,-97L956,-102L959,-105L958,-110L959,-114L959,-117L960,-123L959,-127L957,-133L960,-135L961,-138L960,-141L965,-144L967,-147L970,-149L970,-155L978,-152L980,-153L986,-151L994,-148L997,-141L1003,-140L1012,-137L1019,-133L1022,-135L1025,-138L1024,-144L1026,-148L1030,-151L1035,-152L1044,-151L1046,-147L1048,-147L1050,-146L1057,-145L1058,-143L1056,-139L1057,-136L1055,-131L1057,-125L1057,-99Z" fill="#E0E0E0" stroke="#fff" stroke-width=".4"/><path d="M499,2L503,1L504,1L504,6L498,7L497,6L499,5Z" fill="#E0E0E0" stroke="#fff" stroke-width=".4"/></g><g clip-path="url(#v)"><path d="M445.6,99.1L445.5,99.5L445.3,99.7L445.0,99.7L444.5,99.5L444.2,99.5L443.8,99.5L443.3,99.2L443.1,98.8L442.7,98.6L441.9,98.7L441.3,98.7L440.7,98.6L440.2,98.7L439.8,99.1L439.4,99.5L439.1,99.9L438.0,100.1L437.4,100.1L436.8,100.3L436.1,100.4L435.6,100.6L434.6,100.7L433.5,100.9L432.8,101.2L432.6,101.3L431.9,101.7L430.8,102.4L430.2,102.7L429.4,103.4L428.5,104.1L428.0,104.5L427.1,104.7L426.7,104.8L426.6,105.1L426.7,105.3L426.6,106.0L426.3,107.3L426.2,107.9L426.2,108.2L425.6,109.2L425.0,110.1L424.7,110.7L424.5,111.2L424.7,111.5L424.9,112.2L425.1,112.8L425.2,113.1L425.1,113.5L424.9,113.9L424.5,114.2L423.9,114.3L422.8,114.9L421.5,115.9L421.1,116.4L421.0,116.8L420.8,117.5L420.9,117.9L421.1,118.1L421.4,118.7L421.4,119.0L421.2,119.2L420.8,119.2L420.5,119.3L420.3,119.4L420.0,119.4L419.8,119.5L419.8,119.7L419.9,120.0L419.9,120.3L419.7,120.5L419.6,120.6L419.7,120.8L419.9,121.0L420.2,121.3L420.7,121.8L421.1,121.9L421.4,122.1L421.4,122.4L421.3,122.7L421.0,122.8L421.0,123.1L421.4,123.4L421.6,123.6L421.9,124.0L422.1,124.4L422.1,124.8L422.3,125.1L422.5,125.5L422.5,125.8L422.9,126.1L423.2,126.3L423.4,126.5L423.7,126.6L423.7,126.9L423.7,127.2L424.1,127.8L424.7,128.2L425.2,128.8L425.6,129.3L426.2,130.0L426.2,130.8L425.4,131.8L424.7,132.7L425.9,132.7L427.2,132.7L428.6,133.0L429.5,133.2L430.0,133.4L430.4,133.6L430.6,134.1L430.8,134.5L430.8,135.1L431.4,135.5L431.3,136.0L431.3,136.6L431.5,136.6L433.2,136.6L435.0,136.6L436.7,136.5L437.4,136.3L438.1,135.6L438.6,135.4L439.1,135.0L439.7,134.4L440.1,134.1L440.5,133.7L441.0,133.4L441.2,133.1L441.4,133.0L441.9,132.9L441.7,133.2L441.5,133.6L441.5,134.1L441.7,134.6L441.5,135.0L441.2,135.4L441.2,136.4L441.2,137.7L441.2,138.9L441.2,140.4L441.2,142.1L441.2,143.2L441.5,142.9L441.9,142.7L442.4,143.3L442.8,143.5L443.1,143.5L443.5,143.5L443.9,143.4L444.9,143.0L445.6,142.6L446.4,142.7L447.4,142.8L448.0,142.8L448.9,144.2L449.4,145.2L450.1,146.4L450.7,147.4L451.5,148.8L452.2,150.1L452.9,151.5L453.8,153.0L453.5,153.4L453.3,153.7L453.3,154.2L453.0,154.5L452.6,154.7L452.2,155.1L451.9,155.5L451.9,156.0L452.0,158.8L451.9,159.6L451.7,160.2L451.4,160.5L451.3,160.8L451.6,161.4L451.9,162.7L452.2,163.0L452.5,163.5L452.6,164.0L452.5,164.2L452.0,164.4L451.8,164.7L451.7,165.4L451.4,165.7L451.0,166.0L450.7,166.4L450.5,166.7L450.3,166.9L450.2,167.3L450.0,167.9L449.5,168.2L449.4,168.8L449.4,169.3L449.6,169.8L450.6,170.9L450.7,171.1L450.1,171.8L449.8,172.2L449.1,173.6L449.1,173.8L449.3,174.5L450.4,177.2L450.6,177.4L450.9,177.7L451.5,177.7L452.3,178.0L452.8,178.3L452.8,178.5L452.7,178.6L452.2,178.8L451.7,179.1L451.6,179.4L451.5,179.9L451.6,180.5L451.4,180.7L450.9,181.0L450.5,181.4L450.1,182.0L449.3,183.0L449.1,183.2L449.0,183.5L448.5,183.6L447.7,184.3L447.6,184.6L447.7,184.9L448.1,185.2L448.4,185.6L448.5,186.0L448.5,186.4L448,186.8L447.4,187.3L446.6,187.4L446.3,187.7L446.4,188.2L446.6,189.0L446.6,189.6L446.4,190.3L445.8,191.1L445.0,191.6L444.2,191.9L443.5,191.9L442.9,192.0L442.6,192.0L442.2,191.6L440.1,190.0L439.3,189.2L438.5,188.8L436.7,187.5L436.5,187.1L436.3,185.8L436.1,185.4L435.5,184.9L433.9,184.3L433.3,184.0L432.7,183.4L431.7,183.0L430.7,182.1L430.1,181.4L429.5,181.0L427.3,180.4L426.3,179.7L424.3,178.8L423.4,178.3L421.3,177.6L420.7,177.3L418.6,175.6L417.2,175.1L416.0,174.2L412.5,172.3L411.9,171.7L411.4,170.7L410.6,170.2L409.7,168.9L408.4,168.1L407.1,167.1L406.7,166.2L405.8,165.0L405.6,164.4L404.8,163.8L404.8,162.5L404.3,162.0L404.6,161.7L405.0,161.6L405.5,159.7L405.2,158.7L403.9,157.0L403.5,156.2L403.1,155.1L402.6,154.5L401.8,153.1L401.3,152.0L400.3,151.1L400.0,150.8L399.8,150.4L399.3,150.1L399.2,149.2L398.8,147.5L398.3,146.6L396.2,145.0L396.1,144.4L396.0,143.2L395.5,142.0L393.2,138.3L392.6,137.1L392.0,135.3L391.5,134.3L390.9,132.4L390.1,131.0L389.5,129.8L388.9,128.3L388.9,127.5L387.9,126.1L387.3,124.9L386.3,123.8L385.4,123.0L384.9,122.4L383.6,119.7L383.4,118.9L382.5,117.4L381.6,116.4L381.0,115.5L380.2,114.7L375.7,112.4L374.1,111.4L373.6,110.9L373.3,110.2L373.4,109.7L373.9,109.3L374.5,109.6L374.9,109.5L375.2,109.0L375.3,108.2L374.9,107.1L373.4,105.1L373.5,104.7L373.8,104.2L373.3,103.3L372.6,102.5L372.3,101.9L372.7,99.7L373.0,99.1L375.2,96.8L375.8,95.9L376.7,95.3L377.7,94.3L378.8,93.6L379.0,93.8L379.2,93.9L379.2,94.1L379.2,94.3L379.3,94.5L379.4,94.9L379.5,95.1L379.5,95.4L379.5,95.7L379.5,95.9L379.5,96.2L379.8,96.8L379.7,97.0L379.4,97.1L379.2,97.3L379.0,97.6L378.6,97.6L378.1,97.5L377.8,97.7L377.7,98.1L377.7,98.4L377.8,98.7L378.0,98.9L378.7,98.9L378.1,99.8L377.8,100.1L377.9,100.4L378.2,100.6L378.5,100.6L379.0,100.3L379.4,99.9L379.7,99.6L380.0,99.5L380.5,99.7L381.2,100.1L381.9,100.5L382.2,100.7L382.8,100.6L383.3,100.5L383.7,100.8L384.1,101.1L384.1,101.9L384.4,102.5L384.8,103.0L385.2,103.6L385.7,103.8L386.2,103.8L386.9,104.0L387.2,103.9L387.4,103.5L387.5,103.2L387.9,103.1L387.9,102.9L387.9,102.6L388.0,102.2L388.3,101.9L389.0,101.4L389.4,101.2L389.5,100.9L389.6,100.6L389.6,100.3L389.4,100.1L389.4,99.7L389.6,99.2L389.9,98.6L390.2,97.9L390.3,97.5L390.5,97.3L390.6,97.0L390.8,96.6L391.1,96.2L391.1,95.7L391.2,95.5L391.2,95.0L391.6,93.9L391.6,93.7L391.7,93.6L392.0,93.7L392.2,94.0L392.3,94.2L392.4,94.3L392.6,94.3L392.8,94.1L392.8,93.9L392.6,93.7L392.6,93.6L392.6,93.4L393.0,93.0L393.4,92.5L394.2,91.5L394.7,91.0L396.0,90.6L397.0,90.2L397.9,89.9L399.2,89.5L401.0,88.8L402.3,88.3L403.5,87.5L404.4,86.8L405.2,86.3L406.1,85.6L407.4,84.0L408.4,83.0L409.0,82.2L409.5,81.7L409.8,80.3L410.3,78.7L410.4,78.0L410.5,77.8L410.7,77.9L410.9,78.0L411.1,78.1L411.4,78.0L411.5,78.0L411.3,76.4L411.3,76.0L411.5,75.6L411.4,75.4L411.0,75.1L410.4,74.5L410.1,73.9L410.0,73.4L409.5,73.1L409.1,72.8L409.1,72.6L409.4,72.6L410.1,72.8L410.6,72.8L410.9,72.7L411.3,72.5L411.7,72.1L411.9,72.1L412.2,72.1L412.8,72.6L413.1,72.8L413.5,73.0L413.8,73.1L414.2,73.1L414.4,73.1L414.5,73.4L414.7,73.7L415.1,74.0L415.6,74.2L416.0,74.6L416.3,74.8L416.6,75.2L416.9,75.6L417.2,76.3L417.3,76.8L417.5,77.0L417.4,77.3L417.7,77.8L418.0,78.1L418.4,78.2L419.2,78.4L419.7,78.9L420.0,79.1L420.5,79.5L420.8,79.7L421.3,79.6L421.7,79.9L422.1,80.3L422.3,80.8L422.7,81.1L422.8,81.7L422.6,82.4L422.8,82.7L423.2,83.0L423.8,83.3L424.3,83.2L424.6,83.3L424.7,83.6L424.9,83.9L425.1,84.7L425.2,85.2L425.0,85.7L424.9,86.0L425.0,86.5L425.6,86.7L426.1,86.9L426.4,87.2L426.7,87.3L427.2,87.3L427.9,87.2L428.2,87.0L428.4,87.0L428.7,87.1L429.2,87.2L429.9,87.5L430.5,87.3L431.1,87.3L431.6,87.2L432.1,86.8L432.6,86.8L432.9,86.6L433.3,86.2L433.7,85.8L434.0,85.7L434.6,85.9L435.3,86.1L435.7,86.5L436.0,86.6L436.3,86.9L437.0,86.9L437.6,86.7L438.2,86.3L438.7,86.1L439.1,86.0L439.4,86.1L440.8,86.9L441.2,87.3L441.6,87.4L442.0,87.6L442.6,87.9L443.0,88.1L443.4,88.3L443.8,88.6L444.3,88.8L444.7,88.9L444.9,89.2L444.9,89.4L444.9,89.5L444.4,90.3L443.5,91.7L442.6,93.0L441.3,95.0L440.6,96.2L440.8,96.2L441.9,96.7L442.2,96.8L442.6,96.6L442.9,96.4L443.2,96.4L443.4,96.6L443.8,96.8L444.1,97.6L444.3,97.9L444.7,98.2L445.2,98.6Z" fill="#4ECDC4" stroke="#2C3E50" stroke-width="1"/></g><circle cx="400.0" cy="150.0" r="4" fill="#E74C3C" stroke="#fff" stroke-width="2"/><text x="400.0" y="140.0" text-anchor="middle" font-family="sans-serif" font-weight="700" font-size="10" fill="#2D3436">Lima</text></svg>