<svg viewBox="0 0 800 300" xmlns="http://www.w3.org/2000/svg"><defs><clipPath id="v"><rect width="800" height="300"/></clipPath></defs><rect width="800" height="300" fill="#DCEEF8"/><g clip-path="url(#v)"><path d="M852,317L856,315L861,319L858,327L849,329L841,328L840,321L845,316ZM879,303L870,307L861,310L859,304L866,301L871,300L879,295L879,295L879,303ZM-4380,295L-4380,295L-4380,295L-4377,295L-4378,302L-4380,303L-4380,303L-4380,295Z" fill="#E0E0E0" stroke="#fff" stroke-width=".4"/><path d="M310,96L310,143L310,191L297,179L282,176L279,181L260,181L266,169L276,165L272,149L265,137L237,124L224,123L203,109L198,116L193,118L189,112L189,106L178,99L194,94L204,94L203,90L182,90L176,81L163,79L157,71L176,68L184,63L207,69L210,74L214,98L229,107L241,91L258,83L271,83L283,88L294,93ZM76,188L77,191L77,195L68,207L55,210L54,208L55,203L61,194ZM211,159L209,148L212,142L215,137L218,142L218,149ZM-28,-3L-36,10L-26,24L-28,31L-12,44L-29,46L-34,56L-33,69L-47,79L-48,94L-53,116L-55,111L-72,118L-78,109L-88,108L-96,103L-113,108L-118,101L-128,102L-140,101L-142,81L-149,77L-156,64L-158,52L-157,38L-148,28L-146,38L-136,46L-126,43L-117,44L-108,37L-101,36L-88,40L-76,37L-68,16L-63,11L-57,-5L-41,-5ZM140,99L156,103L161,114L149,108L137,107L128,108L118,107L122,99ZM103,113L93,110L90,104L105,103L109,108ZM119,26L120,34L129,35L130,41L129,54L122,52L119,61L125,69L121,71L115,62L111,43L114,31ZM46,45L63,44L77,34L79,37L68,51L57,54L43,51L18,52L6,54L4,65L17,78L24,72L52,67L51,73L44,71L38,80L25,85L39,104L36,109L49,126L49,136L41,140L36,135L43,123L28,129L25,125L27,119L16,110L17,96L7,100L9,118L9,139L-0,141L-6,136L-2,123L-4,109L-11,109L-15,99L-9,89L-7,77L0,55L3,49L16,39L27,43ZM7,208L-12,198L1,195L9,200L14,204L13,208ZM23,183L32,182L45,176L43,184L21,189L2,187L2,181L13,178ZM-22,180L-13,179L-10,185L-27,188L-37,190L-45,190L-40,182L-32,182L-28,176ZM-165,152L-163,157L-135,158L-132,152L-105,159L-100,169L-78,172L-60,180L-76,186L-93,180L-106,180L-121,179L-135,177L-151,171L-162,170L-168,171L-195,165L-197,159L-211,158L-201,144L-183,145L-171,151ZM-225,73L-223,84L-218,92L-207,93L-200,102L-204,121L-204,143L-220,144L-233,131L-251,119L-258,110L-269,99L-276,88L-287,67L-300,55L-304,42L-310,31L-323,22L-330,9L-341,1L-357,-15L-358,-23L-349,-22L-326,-19L-313,-5L-302,5L-294,11L-280,27L-265,27L-253,37L-244,49L-233,56L-239,68L-231,73Z" fill="#E0E0E0" stroke="#fff" stroke-width=".4"/><path d="M76,188L77,185L90,181L100,181L105,179L110,181L105,185L90,191L77,195L77,191Z" fill="#E0E0E0" stroke="#fff" stroke-width=".4"/><path d="M693,293L702,302L697,304L692,297ZM686,289L684,285L684,274L691,278L693,291L690,289Z" fill="#E0E0E0" stroke="#fff" stroke-width=".4"/><path d="M-251,-122L-255,-140L-246,-152L-227,-155L-213,-153L-201,-147L-194,-158L-181,-152L-178,-142L-180,-124L-204,-113L-198,-103L-213,-102L-226,-96L-238,-99L-244,-106Z" fill="#E0E0E0" stroke="#fff" stroke-width=".4"/><path d="M-181,-152L-194,-158L-201,-147L-213,-153L-208,-160L-208,-173L-219,-186L-220,-201L-231,-213L-242,-215L-245,-209L-254,-209L-258,-211L-274,-202L-274,-216L-271,-232L-280,-233L-281,-242L-288,-247L-284,-253L-272,-263L-271,-259L-263,-259L-265,-277L-258,-279L-249,-267L-242,-253L-224,-252L-219,-239L-228,-235L-232,-229L-215,-220L-203,-202L-193,-188L-182,-178L-179,-167Z" fill="#E0E0E0" stroke="#fff" stroke-width=".4"/><path d="M-226,-96L-213,-102L-198,-103L-204,-113L-180,-124L-178,-142L-181,-152L-179,-167L-182,-178L-193,-188L-203,-202L-215,-220L-232,-229L-228,-235L-219,-239L-224,-252L-242,-253L-249,-267L-258,-279L-250,-283L-238,-283L-224,-285L-211,-293L-204,-287L-191,-285L-193,-275L-186,-269L-172,-265L-191,-252L-203,-237L-206,-226L-195,-210L-182,-190L-168,-180L-160,-168L-153,-140L-155,-114L-167,-104L-184,-95L-196,-82L-214,-68L-219,-78L-215,-88Z" fill="#E0E0E0" stroke="#fff" stroke-width=".4"/><path d="M672,373L684,382L691,390L686,394L678,389L667,382L658,374L648,363L646,358L652,358L661,363L667,368Z" fill="#E0E0E0" stroke="#fff" stroke-width=".4"/><path d="M618,212L622,217L612,217L607,208L615,211ZM612,199L610,201L599,188L596,180L601,180L606,191ZM600,203L594,203L585,201L582,199L583,193L593,196L597,199ZM582,175L585,180L586,183L575,177L567,171L561,166L563,165L570,168ZM545,160L551,165L548,166L542,163L536,157L537,154Z" fill="#E0E0E0" stroke="#fff" stroke-width=".4"/><path d="M407,712L416,713L417,736L412,743L411,759L406,753L395,767L392,766L383,766L374,749L372,736L364,719L364,710L374,711L388,718L396,715ZM93,555L77,564L65,568L62,577L56,584L44,585L35,586L22,583L11,585L1,586L-7,595L-12,595L-19,600L-26,605L-37,605L-46,605L-62,593L-70,590L-69,580L-62,577L-60,573L-60,567L-58,555L-60,545L-68,528L-70,518L-70,508L-75,497L-76,493L-82,486L-84,473L-92,460L-94,453L-88,460L-93,445L-86,450L-81,456L-82,448L-89,435L-90,430L-94,425L-92,416L-89,412L-87,404L-89,395L-83,383L-81,395L-75,385L-63,379L-56,373L-45,367L-38,366L-34,368L-23,362L-14,360L-12,357L-8,355L0,356L15,351L23,344L27,336L36,328L36,322L37,314L47,301L53,314L59,311L54,304L59,296L65,299L67,288L75,280L78,274L86,272L86,268L92,269L93,266L99,264L106,261L117,268L125,277L134,277L143,279L140,271L147,258L154,255L152,251L158,242L167,237L174,239L187,236L186,228L176,223L183,221L193,225L201,231L213,235L217,233L226,238L235,234L240,235L244,232L251,239L247,247L241,254L236,254L238,260L234,268L228,275L229,279L241,288L252,293L260,298L270,307L274,307L282,311L284,315L298,321L308,315L311,307L314,300L316,292L320,280L318,273L319,268L317,260L319,248L322,245L320,240L323,232L326,224L326,220L332,214L336,222L337,231L341,233L341,239L347,247L348,255L347,261L352,272L362,267L367,273L374,279L372,286L375,299L377,306L381,308L385,321L384,329L388,340L404,348L415,355L424,362L422,366L431,376L436,393L442,389L448,396L452,394L454,410L465,420L472,426L483,439L487,452L487,462L486,472L493,486L492,501L490,508L486,523L486,533L483,545L477,561L466,570L461,583L456,592L452,607L446,616L442,630L440,642L441,648L433,654L416,655L403,663L396,670L387,678L375,670L366,666L369,657L361,660L348,674L335,669L327,666L319,664L304,659L295,648L292,634L289,625L282,617L268,615L272,606L269,593L262,605L249,609L256,599L259,589L264,580L263,567L251,582L242,588L237,602L225,595L226,585L216,573L209,566L211,562L193,552L182,551L168,543L142,544L123,551L107,556Z" fill="#E0E0E0" stroke="#fff" stroke-width=".4"/><path d="M15,-130L8,-141L20,-140L25,-135L21,-122ZM41,-89L44,-93L46,-102L54,-103L52,-93L63,-108L61,-93L56,-88L51,-79L47,-75L38,-85ZM96,-66L98,-56L98,-48L93,-34L88,-49L81,-42L86,-31L82,-24L65,-33L61,-43L65,-50L56,-57L51,-51L44,-52L33,-43L31,-48L37,-60L46,-64L54,-70L59,-63L70,-67L73,-74L83,-74L82,-86L94,-79L95,-71ZM-19,-79L-38,-65L-31,-75L-21,-85L-12,-95L-4,-110L-2,-97L-11,-89ZM37,-213L35,-207L40,-196L36,-183L27,-178L25,-166L28,-154L36,-152L42,-154L61,-146L59,-137L64,-134L63,-127L51,-134L46,-142L42,-137L33,-146L19,-143L12,-147L13,-153L17,-157L13,-160L11,-155L4,-164L2,-170L1,-185L7,-180L9,-204L13,-218L22,-217L31,-213L36,-217ZM33,-110L30,-117L39,-113L49,-113L48,-107L41,-100L32,-96L32,-103ZM83,-121L87,-105L76,-109L76,-104L80,-95L73,-91L72,-102L68,-102L66,-111L74,-110L74,-116L65,-127L79,-127Z" fill="#E0E0E0" stroke="#fff" stroke-width=".4"/><path d="M-288,-37L-285,-40L-274,-33L-272,-26L-263,-27L-258,-33L-255,-32L-246,-23L-240,-13L-239,-4L-241,3L-239,8L-238,17L-233,21L-227,34L-227,39L-238,40L-252,29L-269,17L-271,10L-279,0L-281,-12L-286,-20L-285,-31ZM-28,-3L-41,-5L-57,-5L-63,11L-68,16L-76,37L-88,40L-101,36L-108,37L-117,44L-126,43L-136,46L-146,38L-148,28L-137,33L-126,31L-123,18L-117,15L-99,12L-89,1L-82,-9L-75,-1L-72,-6L-65,-5L-64,-15L-64,-22L-52,-32L-45,-44L-39,-44L-31,-36L-31,-30L-21,-26L-9,-21L-10,-16L-20,-15L-17,-8Z" fill="#E0E0E0" stroke="#fff" stroke-width=".4"/><path d="M-64,-22L-64,-15L-65,-5L-72,-6L-75,-1L-82,-9L-76,-14Z" fill="#E0E0E0" stroke="#fff" stroke-width=".4"/></g><g clip-path="url(#v)"><path d="M484.5,127.2L483.4,128.3L482.8,127.3L481.9,126.4L481.2,125.4L480.3,123.4L480.3,122.4L480.5,121.3L480.6,120.2L480.2,118.0L479.2,116.1L475.6,111.2L474.5,110.0L473.2,108.9L472.4,108.6L470.8,108.3L470.0,108.1L468.7,107.3L467.4,106.4L464.2,103.7L462.6,103.0L461.7,102.0L456.8,99.0L455.4,98.3L453.6,98.3L452.1,97.7L453.3,97.3L453.5,96.3L453.3,95.2L455.7,96.9L458.4,98.4L459.1,99.6L460.4,99.7L462.8,100.6L464.3,101.5L465.9,102.5L467.6,104.0L470.9,105.2L471.3,105.6L473.0,107.5L475.2,109.1L476.0,110.0L485.3,117.7L486.9,119.8L487.0,121.3L486.6,121.8L485.6,123.1L485.7,124.6L485.4,125.9ZM469.2,120.5L469.9,120.8L472.1,119.2L473.3,120.3L474.8,120.8L476.3,121.1L475.7,123.3L475.9,124.3L476.3,125.3L476.2,126.8L475.6,128.2L474.2,130.1L473.6,130.5L472.9,130.7L470.6,130.8L470.2,131.8L470.3,132.9L471.6,134.4L472.5,136.0L471.6,137.5L470.0,138.5L468.5,139.1L466.0,138.8L463.4,138.9L462.8,139.4L462.8,140.4L462.5,141.1L462.0,141.7L460.7,143.1L459.1,144.3L457.1,145.4L456.5,145.7L454.6,145.8L453.0,146.5L452.3,147.1L451.5,147.6L449.8,148.2L448.1,149.3L447.5,149.5L444.0,149.7L439,149.7L437.5,149.9L436.1,149.7L435.3,149.3L433.6,147.3L432.2,146.6L430.6,146.6L428.4,147.3L428.0,147.2L423.8,144.2L422.5,143.5L421.1,143.0L419.4,142.6L417.9,142.0L416.9,140.6L417.0,138.8L418.3,137.7L420.2,138.2L421.0,138.2L421.7,137.9L422.5,138.0L423.4,138.3L426.6,137.9L428.4,138.4L430.2,139.2L431.8,139.3L433.5,139.2L435.8,138.3L436.5,138.4L438.7,138.4L440.6,137.3L441.4,132.8L441.8,131.3L442.5,130.9L443.0,131.0L443.7,131.8L442.8,132.8L442.4,133.5L442.3,135.3L442.7,137.1L443.9,138.4L445.6,138.6L447.1,137.7L448.8,137.5L450.4,138.4L451.9,138.3L452.7,137.7L453.5,137.4L454.4,137.3L455.1,137.0L456.1,135.5L456.8,133.8L457.8,132.4L460.6,130.2L461.4,129.9L462.2,129.8L464.2,129.9L465.6,129.1L465.7,127.3L465.5,125.4L463.9,121.2L463.8,120.5L464.0,119.7L464.5,119.1L466.1,119.1L467.8,119.3L468.5,119.9ZM309.4,191.4L309.4,191.2L309.4,188.2L309.4,185.2L309.4,182.2L309.4,179.2L309.4,176.2L309.4,173.2L309.4,170.2L309.4,167.2L309.4,164.2L309.4,161.2L309.4,158.8L308.5,157.8L307.7,156.3L307.9,154.4L308.9,152.1L309.4,150.5L309.4,149.3L309.4,146.3L309.4,143.3L309.4,140.3L309.4,137.3L309.4,134.3L309.4,131.3L309.4,128.4L309.4,125.4L309.4,122.4L309.4,119.4L309.4,116.5L309.4,113.5L309.4,110.5L309.4,107.5L309.3,104.5L309.3,101.6L309.3,98.6L309.3,96.8L309.3,95.8L309.3,95.8L309.8,95.8L311.3,95.8L312.4,96.0L319.8,99.2L321.9,100.5L322.7,100.8L323.4,100.8L324.1,100.9L327.4,102.7L332.3,104.5L337.6,106.2L339.2,106.5L340.8,106.7L344.4,107.3L346.4,107.8L349.2,109.9L350.6,110.5L351.9,111.7L353.8,113.0L354.5,113.3L355.3,113.4L357.2,113.5L359.0,113.2L359.8,113.3L360.5,113.6L361.2,114.0L361.5,114.8L362.7,116.0L364.3,116.5L365.8,117.6L367.3,118.9L368.3,120.1L369.4,121.2L371.2,121.7L373.1,121.7L379.4,128.2L379.7,129.2L379.7,133.4L379.0,136.7L380.6,137.7L382.7,138.1L385.8,138.8L388.7,139.8L397.9,144.3L399.1,144.6L401.0,144.8L402.9,144.7L403.6,144.9L404.9,145.8L405.7,146.3L406.9,147.7L408.0,149.3L408.5,149.7L409.1,150.1L409.4,150.9L409.9,153.5L409.7,155.2L409.2,155.8L407.8,156.1L402.6,156.4L399.1,156.0L396.7,157.7L396.6,158.4L396.8,159.1L398.9,162.6L400.1,165.7L401.2,167.0L402.7,168.0L404.1,169.2L405.3,170.6L408.0,173.0L409.4,174.0L411.0,174.5L413.8,176.4L414.2,177.2L415.0,179.9L415.3,181.7L415.4,182.4L415.6,183.1L418.0,184.7L418.6,185.1L419.6,188.7L420.5,190.4L421.9,191.0L423.5,191.0L428.0,189.9L428.6,189.9L429.5,190.1L430.2,190.7L430.4,192.3L429.7,194.0L429.5,195.7L430.4,197.0L432.7,198.1L433.5,198.4L437.6,198.7L439.2,199.0L440.8,199.4L441.4,199.8L440.9,200.6L440.2,200.9L439.2,201.1L437.7,201.6L437.7,202.5L438.6,203.5L439.4,204.7L440.0,205.1L440.7,205.4L442.5,205.8L444.2,206.3L445.4,206.9L446.5,207.3L449.0,207.5L450.9,208.3L453.6,208.0L451.3,209.2L450.5,209.5L447.7,209.0L447.2,209.5L448.4,210.8L450.0,211.7L450.7,212.2L450.2,212.7L448.3,213.9L447.4,214.1L445.9,214.2L443.3,213.7L441.4,213.0L440.9,212.2L440.4,211.6L438.8,210.4L437.6,209.7L436.1,209.5L434.5,209.5L431.7,208.8L425.6,208.3L424.2,207.9L422.4,206.9L421.5,206.8L420.6,207.1L418.3,207.3L417.6,207.2L415.9,206.4L414.2,206.1L413.4,206.3L412.7,206.4L410.4,205.8L408.6,205.5L407.1,204.7L406.3,203.9L405.4,203.2L404.6,201.4L403.3,199.6L401.7,198.2L398.3,196.0L397.6,195.4L396.3,193.3L396.3,191.9L396.8,190.5L396.1,191.0L395.2,190.9L392.9,190.0L392.0,188.9L390.4,186.0L389.4,184.4L387.1,181.6L386.4,180.0L385.5,178.5L384.8,178.0L384.4,177.4L383.9,176.6L383.3,176.0L380.0,174.8L379.4,174.4L378.8,174.2L376.4,174.0L375.0,173.8L372.4,172.8L371,172.5L369.4,172.4L367.8,172.0L367.0,171.6L366.5,170.9L366.2,169.4L364.8,169.6L363.5,169.4L362.3,168.8L361.0,168.5L360.1,169.0L359.9,170.2L359.4,170.2L358.7,170.0L358.3,170.1L357.5,170.7L356.9,171.4L355.6,171.3L353.2,170.5L352.1,170.1L351.1,169.2L350.3,168.2L349.5,167.5L348.5,166.9L349.8,168.2L352.7,174.1L352.0,174.2L351.2,174.0L351.9,175.1L351.1,175.3L350.3,175.3L348.6,174.8L347.0,174.7L346.5,174.9L346.9,175.3L347.4,176.6L347.9,177.8L345.5,178.4L343.1,178.8L340.3,179.5L337.6,179.5L336.1,179.1L334.7,178.9L333.3,179.1L332.0,179.6L330.9,179.6L330.1,178.6L329.8,177.9L329.4,177.4L328.3,177.5L327.4,177.8L329.1,177.8L329.6,178.6L330.0,179.5L331.2,180.3L332.8,179.8L336.0,180.0L339.1,181.4L339.9,181.6L340.6,181.9L342.2,183.3L343.4,184.6L344.4,186.1L344.7,186.7L344.6,188.3L344.3,189.1L342.2,190.2L340.1,191.0L336.9,192.6L333.8,194.5L332.1,194.1L330.7,193.2L330.1,192.9L328.6,192.4L327.7,192.2L324.0,192.6L320.4,192.8L318.8,192.8L317.3,192.5L315.6,191.9L314.0,192.2L312.9,192.8L311.7,192.9ZM412.3,142.9L411.8,143.0L411.5,142.3L410.1,141.8L408.8,140.0L408.8,138.4L409.0,138.0L409.8,138.0L412.8,139.7L413.1,140.3L412.9,142.0ZM383.0,126.8L382.0,127.2L381.4,126.9L381.0,125.9L381.3,125.0L382.1,124.2L382.7,124.0L383.3,124.5L383.5,125.5ZM480.2,103.4L479.9,104.7L479.0,104.0L478.3,102.9L478.8,102.4L479.8,102.1ZM471.9,100.7L471.7,101.4L471.2,101.4L470.0,100.0L469.8,99.6L470.0,99.2L471.5,100.3ZM437.8,80.3L437.7,80.9L436.7,80.6L436.4,80.7L434.6,79.1L434.6,78.2L435.1,77.4L435.8,77.5L437.2,78.5ZM457.0,204.8L457.6,204.8L458.7,203.6L459.6,203.3L460.1,203.8L459.2,207.4L458.4,206.8L455.2,205.8L455.1,204.4L454.3,204.0L453.8,202.6L452.7,201.1L452.5,200.1L453.1,200.6L453.8,201.5L456.6,203.6L456.5,204.2ZM446.3,197.0L446.0,197.3L445.2,197.1L442.8,195.0L443.2,193.5L444.3,192.7L445.9,193.6L446.4,194.8L446.6,195.5ZM457.4,185.7L457.6,186.8L456.5,185.6L457.0,184.3L457.1,183.7L457.0,183.3L455.9,182.6L456.5,181.5L457.1,181.2L457.5,181.1L457.5,182.6L457.8,183.3ZM503.7,224.7L503.5,225.5L503.0,225.2L501.4,225.7L500.6,225.6L500.1,224.8L500.0,224.5L501.4,224.8L501.1,224.0L503.1,224.4ZM347.5,182.0L346.9,182.0L344.3,181.0L343.7,180.3L346.7,180.5L347.4,180.7L347.6,181.7ZM399.9,137.1L399.1,137.2L397.8,135.8L397.5,135.3L397.6,134.5L399.3,133.6L400.4,134.4L400.6,136.4ZM398.3,86.3L403.2,87.2L403.6,87.2L403.5,86.9L403.6,86.8L403.9,87.0L403.8,87.7L403.0,87.9L402.3,87.8L401.8,88.2L400.4,89.5L399.5,89.3L398.3,89.6L396.3,89.6L393.7,89.0L393.0,89.5L392.0,89.4L391.1,89.9L390.7,89.9L390.5,89.1L390.6,88.7L391.6,88.3L391.5,87.1L392.4,86.5L393.9,86.5L395.3,86.1ZM447.6,96.5L444.7,96.7L443.6,96.5L442.7,95.7L441.8,94.4L441.0,94.1L440.6,93.8L442.7,92.8L444.5,92.5L447.5,93.7L447.8,94.4L447.8,94.8L447.7,96.1ZM448.9,194.8L451.0,196.0L452.1,195.6L452.7,195.8L454.0,197.2L454.1,198.3L454.3,199.1L454.3,199.5L453.5,200.1L453.6,199.5L453.0,199.4L451.1,199.4L449.6,199.0L447.6,198.9L448.4,198.0L448.6,197.6L447.5,196.1L447.5,195.4L447.6,195.0L448.5,194.8ZM479.7,189.0L480.5,189.3L482.2,189.2L482.8,190.0L483.6,190.3L484.3,190.7L485.0,191.3L485.0,191.6L484.8,191.9L484.4,192.2L484.5,192.7L483.9,192.7L483.1,193.0L481.5,192.3L480.9,192.1L480.8,191.5L479.8,190.5L477.9,189.8L478.9,189.2ZM492.9,226.4L495.3,227.2L496.1,228.1L495.2,228.5L493.1,228.7L492.6,228.2L490.5,227.7L490.2,226.7L489.2,227.0L489.8,226.3L488.4,225.6L488.1,224.6L488.0,224.1L489.5,224.6ZM347.5,184.2L347.8,184.9L345.7,184.0L343.7,182.5L342.7,182.1L342.0,181.1L343.2,181.9L345.4,182.6ZM410.2,91.0L409.7,91.8L408.6,91.7L408.1,91.5L408.9,91.3L409.2,90.7L409.6,90.5ZM469.8,99.0L469.4,99.0L469.4,97.8L469.6,97.2L470.4,97.6L470.6,98.7ZM454.3,212.8L454.1,214.0L452.9,213.7L452.7,213.4L452.9,212.7L453.9,212.7ZM494.6,117.6L494.5,117.9L493.6,117.5L494.4,116.8L494.7,116.7ZM528.2,155.5L527.9,156.9L527.6,157.1L527.2,156.6L526.0,157.1L525.4,157.7L524.7,158.1L523.3,158.0L521.8,157.7L520.5,156.9L519.3,156.0L518.0,154.6L517.3,153.2L517.7,151.5L517.2,150.0L514.9,148.9L514.4,148.5L513.4,147.0L512.4,146.3L511.0,145.0L510.7,144.4L510.2,142.8L510.0,141.7L510.5,138.8L510.3,137.3L510.9,137.4L511.6,138.0L512.4,138.4L514.2,138.7L515.6,139.9L516.9,142.2L517.1,142.9L517.6,143.5L518.9,144.4L519.7,145.1L521.0,147.6L521.8,148.1L522.7,148.3L523.6,148.7L525.0,149.8L526.2,151.0L527.1,152.3L527.8,153.7ZM509.1,137.1L508.8,137.2L508.2,135.4L508.1,134.0L507.8,133.0L507.5,132.4L508.5,131.3L508.9,131.0L509.6,131.6L509.7,132.9L510.3,134.0L509.8,136.4Z" fill="#4ECDC4" stroke="#2C3E50" stroke-width="1"/></g><circle cx="400.0" cy="150.0" r="4" fill="#E74C3C" stroke="#fff" stroke-width="2"/><text x="400.0" y="140.0" text-anchor="middle" font-family="sans-serif" font-weight="700" font-size="10" fill="#2D3436">Port Moresby</text></svg>