<svg viewBox="0 0 800 300" xmlns="http://www.w3.org/2000/svg"><defs><clipPath id="v"><rect width="800" height="300"/></clipPath></defs><rect width="800" height="300" fill="#DCEEF8"/><g clip-path="url(#v)"><path d="M918,445L920,443L923,446L922,451L916,452L911,451L910,447L914,444ZM935,436L929,438L923,440L922,437L926,435L929,434L935,431L935,431L935,436ZM-2326,431L-2326,431L-2326,431L-2324,431L-2326,435L-2326,436L-2326,436L-2326,431Z" fill="#E0E0E0" stroke="#fff" stroke-width=".4"/><path d="M95,-230L89,-221L81,-219L81,-206L76,-200L58,-204L51,-181L46,-178L28,-173L37,-151L30,-148L31,-141L26,-142L21,-147L8,-148L-7,-148L-11,-147L-24,-152L-29,-150L-30,-142L-45,-147L-51,-145L-53,-139L-58,-137L-70,-129L-74,-120L-78,-120L-80,-126L-92,-126L-93,-136L-98,-136L-97,-149L-108,-158L-124,-157L-134,-155L-143,-166L-150,-171L-164,-180L-166,-181L-189,-174L-189,-128L-194,-127L-200,-137L-206,-140L-216,-138L-220,-134L-221,-137L-219,-142L-220,-146L-231,-150L-235,-161L-240,-165L-240,-169L-231,-168L-231,-177L-223,-179L-215,-177L-214,-190L-215,-198L-224,-197L-232,-200L-243,-195L-251,-192L-256,-194L-255,-201L-261,-210L-267,-209L-275,-219L-270,-229L-272,-232L-265,-247L-256,-239L-255,-249L-236,-265L-222,-266L-202,-255L-191,-250L-182,-256L-167,-256L-156,-249L-153,-253L-140,-252L-138,-259L-153,-269L-144,-276L-146,-280L-137,-284L-144,-295L-139,-300L-105,-305L-101,-309L-78,-315L-70,-321L-54,-318L-51,-302L-42,-306L-30,-300L-31,-292L-22,-293L1,-307L-3,-302L9,-291L29,-253L34,-261L46,-252L59,-256L64,-253L69,-245L75,-242L79,-237L91,-238Z" fill="#E0E0E0" stroke="#fff" stroke-width=".4"/><path d="M-189,-128L-189,-174L-166,-181L-164,-180L-150,-171L-143,-166L-134,-155L-124,-157L-108,-158L-97,-149L-98,-136L-93,-136L-92,-126L-80,-126L-78,-120L-74,-120L-70,-129L-58,-137L-53,-139L-50,-138L-58,-130L-51,-126L-45,-129L-34,-123L-46,-114L-53,-115L-56,-115L-58,-118L-56,-124L-68,-121L-71,-113L-75,-107L-83,-107L-85,-102L-78,-99L-76,-91L-81,-79L-88,-82L-93,-82L-93,-89L-105,-94L-115,-99L-121,-105L-131,-113L-135,-125L-138,-127L-148,-127L-152,-129L-153,-139L-165,-145L-172,-138L-180,-134L-179,-128Z" fill="#E0E0E0" stroke="#fff" stroke-width=".4"/><path d="M581,307L597,314L614,319L620,323L625,328L626,333L642,339L644,344L635,345L637,351L646,357L651,367L657,366L656,370L663,372L660,374L670,377L669,380L663,381L661,378L653,377L644,376L637,370L632,365L627,357L615,353L608,356L602,359L603,365L596,369L591,367L582,367L582,337ZM687,317L690,320L691,325L688,327L687,322L685,318L681,315L675,311L669,309L671,306L676,309L679,311L683,313ZM675,337L670,339L665,341L660,341L653,338L648,336L648,333L657,334L661,334L663,329L664,329L665,334L670,333L673,330L678,327L677,321L682,321L684,323L684,328L681,333L676,334ZM706,332L709,334L713,340L717,343L716,346L714,347L710,343L706,337L704,330L705,329Z" fill="#E0E0E0" stroke="#fff" stroke-width=".4"/><path d="M581,307L582,337L582,367L574,359L564,357L562,360L551,360L555,353L560,350L558,340L554,333L536,325L528,324L515,316L512,320L509,321L507,318L507,314L500,309L509,306L516,306L515,304L502,304L498,298L490,297L486,292L499,290L503,287L518,291L519,294L522,309L531,314L539,305L549,299L557,299L565,302L572,306ZM436,365L437,366L437,369L431,376L424,378L422,377L423,374L427,368ZM520,346L519,339L521,336L522,333L525,336L525,340ZM372,246L367,254L373,263L372,267L382,276L371,277L368,283L369,291L360,297L360,306L356,320L355,317L345,321L341,315L335,315L330,312L319,315L316,311L310,311L303,310L301,298L297,296L292,288L291,280L292,272L297,266L299,272L305,277L311,275L317,276L322,271L326,270L335,273L342,271L347,258L351,255L354,245L364,245ZM476,309L486,312L489,319L482,315L474,314L469,315L463,314L465,309ZM453,318L447,316L445,313L455,312L457,315ZM463,264L464,269L469,270L470,273L469,281L465,280L463,286L467,291L464,292L461,286L458,275L460,267ZM418,276L428,275L437,269L439,271L431,280L424,282L416,280L401,280L393,282L391,288L400,296L404,292L421,289L421,293L417,292L413,297L405,301L413,313L412,316L420,326L420,332L415,335L411,332L416,324L407,328L405,325L406,322L399,316L400,308L394,310L395,321L395,334L389,335L385,333L388,324L387,315L383,315L380,309L384,303L385,296L390,282L391,279L399,272L406,275ZM394,377L382,371L390,369L395,372L398,374L398,377ZM403,361L409,361L417,357L416,362L402,365L390,364L390,360L398,359ZM375,360L381,359L383,363L373,365L366,366L362,366L365,361L370,361L372,357ZM287,342L288,345L305,346L307,342L324,347L328,353L341,354L352,360L342,363L332,360L324,360L314,359L306,358L295,354L289,353L285,354L268,351L267,347L259,346L265,337L276,338L283,341ZM250,294L251,300L254,305L261,306L265,311L263,323L263,337L253,337L245,329L233,322L229,316L223,309L218,302L211,290L203,282L201,274L197,267L189,261L184,254L178,249L168,239L167,234L173,234L187,236L195,245L202,251L207,255L216,265L225,265L233,271L238,279L245,283L241,290L246,293Z" fill="#E0E0E0" stroke="#fff" stroke-width=".4"/><path d="M154,-1037L173,-1050L191,-1021L212,-969L209,-925L190,-920L164,-933L149,-952L142,-988L130,-999ZM236,-945L259,-918L256,-899L205,-882L221,-942L229,-948ZM562,-810L586,-808L618,-789L611,-762L578,-763L563,-755L545,-778L550,-803ZM647,-781L669,-772L659,-758L645,-761L628,-775L630,-786ZM571,-714L580,-727L591,-730L604,-718L605,-709L591,-709L573,-713ZM-290,-1012L-272,-1023L-258,-1023L-256,-1008L-251,-1022L-243,-1031L-229,-1019L-233,-1010L-245,-1003L-253,-999L-254,-990L-265,-981L-275,-994L-269,-1011ZM-490,-305L-507,-305L-518,-306L-516,-313L-503,-318L-494,-316L-490,-313L-491,-309ZM-211,-727L-189,-756L-192,-771L-172,-790L-142,-814L-112,-821L-96,-836L-78,-841L-72,-826L-78,-814L-110,-795L-138,-778L-166,-745L-180,-713L-194,-684L-192,-659L-175,-636L-180,-634L-210,-638L-212,-650L-228,-657L-230,-673L-220,-679L-221,-696L-203,-723ZM599,-295L602,-281L602,-266L605,-251L614,-227L601,-231L595,-211L604,-198L604,-188L597,-196L591,-186L590,-197L591,-210L590,-225L592,-235L592,-254L587,-269L588,-289L596,-296L592,-303L596,-305ZM-2326,-590L-2326,-590L-2304,-571L-2280,-547L-2281,-533L-2275,-528L-2277,-544L-2253,-541L-2235,-519L-2244,-510L-2259,-508L-2259,-487L-2263,-482L-2271,-483L-2278,-490L-2290,-496L-2292,-506L-2301,-509L-2311,-507L-2316,-514L-2314,-522L-2325,-517L-2321,-507L-2326,-498L-2326,-498L-2326,-590ZM935,-498L935,-498L923,-488L911,-490L919,-479L925,-462L929,-456L930,-448L928,-443L911,-447L885,-433L877,-431L863,-417L850,-406L847,-398L834,-410L810,-396L806,-403L798,-395L786,-397L783,-386L772,-369L772,-362L782,-358L781,-334L773,-333L769,-320L773,-313L757,-305L754,-288L740,-284L737,-269L724,-255L721,-265L717,-287L712,-321L716,-344L724,-354L725,-362L739,-366L755,-388L770,-406L787,-421L794,-448L783,-446L778,-430L755,-410L747,-433L724,-426L701,-395L709,-385L688,-380L674,-378L675,-391L661,-394L650,-385L622,-388L592,-383L563,-349L528,-311L542,-309L547,-299L556,-296L561,-304L571,-303L584,-286L585,-273L578,-259L577,-241L573,-219L559,-200L556,-191L544,-176L532,-161L526,-153L514,-146L508,-146L502,-152L490,-143L489,-139L489,-139L488,-141L487,-147L492,-148L493,-162L491,-173L499,-178L510,-176L516,-188L519,-203L522,-208L527,-220L512,-216L504,-210L491,-210L487,-223L476,-233L461,-237L457,-251L454,-260L451,-266L445,-281L437,-287L423,-291L411,-291L400,-288L393,-281L398,-277L398,-269L393,-264L385,-249L385,-243L372,-234L361,-239L350,-238L345,-243L340,-244L327,-234L315,-232L307,-229L295,-231L287,-231L281,-238L272,-245L263,-247L252,-245L243,-242L230,-248L229,-259L218,-263L210,-264L200,-270L190,-255L194,-247L185,-237L172,-241L163,-241L157,-248L148,-248L140,-252L126,-246L109,-233L99,-231L95,-230L91,-238L79,-237L75,-242L69,-245L64,-253L59,-256L46,-252L34,-261L29,-253L9,-291L-3,-302L1,-307L-22,-293L-31,-292L-30,-300L-42,-306L-51,-302L-54,-318L-70,-321L-78,-315L-101,-309L-105,-305L-139,-300L-144,-295L-137,-284L-146,-280L-144,-276L-153,-269L-138,-259L-140,-252L-153,-253L-156,-249L-167,-256L-182,-256L-191,-250L-202,-255L-222,-266L-236,-265L-255,-249L-256,-239L-265,-247L-272,-232L-270,-229L-275,-219L-267,-209L-261,-210L-255,-201L-256,-194L-251,-192L-255,-184L-264,-182L-273,-169L-265,-157L-266,-148L-256,-134L-261,-129L-263,-126L-267,-127L-273,-134L-276,-135L-281,-137L-284,-142L-292,-145L-298,-143L-300,-145L-312,-151L-325,-153L-333,-155L-334,-154L-345,-165L-356,-169L-364,-177L-357,-179L-350,-190L-355,-195L-341,-200L-342,-203L-350,-201L-349,-207L-345,-211L-336,-212L-334,-216L-336,-224L-333,-231L-333,-235L-346,-240L-352,-240L-357,-246L-364,-244L-376,-249L-375,-252L-379,-258L-386,-259L-387,-263L-384,-266L-390,-275L-400,-273L-402,-274L-405,-271L-408,-271L-410,-281L-412,-286L-411,-287L-403,-287L-400,-290L-402,-294L-408,-297L-408,-299L-412,-302L-417,-312L-415,-317L-416,-324L-425,-328L-430,-326L-431,-330L-441,-334L-444,-344L-444,-352L-449,-356L-445,-361L-447,-377L-441,-387L-442,-390L-432,-400L-442,-409L-422,-433L-414,-444L-410,-454L-424,-468L-420,-481L-428,-497L-422,-516L-433,-541L-424,-559L-438,-575L-437,-593L-430,-595L-414,-605L-405,-615L-390,-599L-365,-593L-331,-565L-324,-553L-323,-538L-333,-526L-348,-520L-389,-537L-395,-534L-381,-518L-380,-508L-379,-486L-368,-479L-361,-474L-359,-484L-365,-493L-359,-501L-337,-488L-330,-493L-336,-509L-315,-531L-306,-529L-298,-522L-292,-537L-300,-551L-296,-565L-302,-580L-277,-572L-272,-559L-283,-556L-283,-543L-276,-535L-262,-540L-260,-555L-241,-566L-209,-588L-202,-586L-211,-571L-200,-569L-194,-577L-177,-578L-163,-588L-153,-573L-143,-590L-152,-604L-147,-613L-121,-605L-108,-597L-75,-569L-69,-581L-78,-595L-79,-600L-90,-603L-87,-615L-91,-636L-92,-645L-75,-671L-69,-698L-62,-704L-38,-696L-36,-679L-45,-656L-39,-647L-37,-627L-39,-592L-29,-576L-32,-560L-50,-527L-40,-524L-36,-532L-26,-538L-24,-549L-16,-561L-21,-574L-17,-591L-27,-593L-29,-607L-22,-634L-34,-657L-17,-676L-20,-698L-15,-698L-10,-682L-14,-654L-4,-648L-8,-669L7,-681L26,-682L42,-665L34,-690L33,-723L49,-730L71,-728L91,-733L83,-750L94,-773L104,-774L122,-791L146,-796L149,-807L172,-810L180,-802L200,-822L217,-821L219,-838L228,-855L249,-872L265,-859L253,-849L273,-843L276,-823L284,-833L310,-832L331,-813L338,-799L336,-780L326,-770L302,-751L295,-741L306,-736L320,-728L328,-734L333,-713L336,-722L351,-727L380,-721L382,-707L420,-702L421,-726L440,-720L454,-721L469,-704L473,-684L468,-672L479,-650L493,-638L502,-668L517,-655L532,-663L550,-654L556,-662L571,-658L565,-685L577,-698L618,-690L658,-679L666,-661L690,-640L726,-645L744,-640L752,-629L751,-610L762,-602L774,-608L790,-608L807,-603L824,-606L840,-583L851,-591L844,-608L848,-620L877,-612L896,-614L922,-601L935,-590L935,-498ZM935,-639L925,-638L923,-647L935,-659L935,-639ZM-2326,-659L-2326,-659L-2326,-659L-2325,-660L-2318,-660L-2304,-652L-2305,-648L-2315,-641L-2326,-639L-2326,-639L-2326,-659ZM-393,-186L-391,-190L-384,-187L-381,-186L-380,-184L-379,-183L-379,-182L-374,-179L-365,-180L-367,-175L-377,-173L-389,-166L-394,-168L-392,-174L-402,-178L-400,-180L-392,-185Z" fill="#E0E0E0" stroke="#fff" stroke-width=".4"/><path d="M436,365L437,362L445,360L451,360L454,359L458,360L454,363L445,367L437,369L437,366Z" fill="#E0E0E0" stroke="#fff" stroke-width=".4"/><path d="M-229,57L-227,57L-227,59L-220,58L-212,58L-207,58L-200,52L-194,45L-188,39L-186,43L-185,50L-190,50L-190,57L-189,58L-193,60L-193,64L-196,68L-196,72L-198,74L-225,70L-228,60Z" fill="#E0E0E0" stroke="#fff" stroke-width=".4"/><path d="M-196,72L-196,68L-193,64L-193,60L-189,58L-190,57L-190,50L-185,50L-181,57L-176,61L-169,62L-164,64L-160,70L-157,73L-154,74L-154,76L-157,82L-159,85L-163,88L-166,95L-170,94L-172,96L-174,101L-172,108L-173,109L-177,109L-183,112L-184,117L-186,119L-192,119L-195,121L-195,125L-200,128L-205,127L-211,130L-215,131L-218,124L-225,108L-198,99L-192,79ZM-186,43L-188,39L-185,36L-184,37L-185,41Z" fill="#E0E0E0" stroke="#fff" stroke-width=".4"/><path d="M819,430L825,435L822,436L818,432ZM815,427L814,425L814,418L818,421L819,428L817,427Z" fill="#E0E0E0" stroke="#fff" stroke-width=".4"/><path d="M233,172L231,161L237,153L249,152L257,153L265,157L269,150L277,154L279,160L278,171L263,178L267,184L257,184L249,188L242,187L238,182Z" fill="#E0E0E0" stroke="#fff" stroke-width=".4"/><path d="M257,153L249,152L237,153L231,161L233,172L225,168L217,168L219,161L211,161L210,171L205,185L202,193L203,200L209,200L213,208L214,216L219,221L225,223L229,227L226,231L220,232L220,227L212,223L211,225L207,222L206,217L201,212L196,208L195,213L193,208L194,202L197,193L201,184L206,175L203,167L203,162L202,157L196,150L194,145L197,143L200,135L196,129L191,122L186,114L190,112L194,102L201,101L206,97L211,95L215,98L215,103L222,104L219,114L220,123L229,117L232,119L237,118L239,115L246,116L253,123L253,133L261,141L260,149Z" fill="#E0E0E0" stroke="#fff" stroke-width=".4"/><path d="M277,154L269,150L265,157L257,153L260,149L261,141L253,133L253,123L246,116L239,115L237,118L232,119L229,117L220,123L219,114L222,104L215,103L215,98L211,95L213,91L221,85L221,87L226,87L225,76L230,75L235,83L239,91L250,91L254,100L248,102L245,106L256,112L264,123L269,131L276,138L278,144Z" fill="#E0E0E0" stroke="#fff" stroke-width=".4"/><path d="M211,95L206,97L201,101L194,102L190,112L186,114L191,122L196,129L200,135L197,143L194,145L196,150L202,157L203,162L203,167L206,175L201,184L197,193L196,186L199,179L196,174L196,164L193,159L190,148L188,136L184,128L178,133L168,140L163,139L157,136L160,125L159,116L151,105L153,101L147,100L141,92L140,84L143,86L144,79L148,77L147,72L149,69L149,59L157,61L161,53L161,48L166,40L166,34L178,27L184,29L183,22L186,21L186,17L191,16L194,22L198,24L198,32L198,40L189,49L188,61L198,59L200,68L206,70L203,78L210,82L214,84L220,81L221,85L213,91Z" fill="#E0E0E0" stroke="#fff" stroke-width=".4"/><path d="M249,188L257,184L267,184L263,178L278,171L279,160L277,154L278,144L276,138L269,131L264,123L256,112L245,106L248,102L254,100L250,91L239,91L235,83L230,75L234,72L242,72L251,71L258,66L263,70L271,72L269,77L274,81L283,84L271,92L263,101L261,108L268,118L277,130L285,136L290,144L295,161L293,177L286,183L275,189L268,197L257,206L253,200L256,193Z" fill="#E0E0E0" stroke="#fff" stroke-width=".4"/><path d="M489,-139L489,-139L489,-139ZM488,-141L489,-139L485,-140L481,-136L479,-131L479,-123L474,-120L473,-118L469,-114L463,-113L459,-109L459,-104L458,-103L462,-101L467,-96L465,-93L462,-92L455,-92L452,-87L448,-87L447,-86L443,-88L442,-86L439,-85L439,-87L436,-88L434,-90L436,-95L438,-97L438,-99L440,-105L439,-107L434,-108L430,-111L437,-119L447,-125L453,-134L458,-130L465,-130L464,-136L478,-141L482,-148Z" fill="#E0E0E0" stroke="#fff" stroke-width=".4"/><path d="M447,-86L448,-87L452,-87L455,-92L462,-92L465,-93L467,-96L475,-82L477,-75L477,-62L473,-56L465,-54L458,-49L450,-48L449,-54L451,-63L447,-74L453,-76Z" fill="#E0E0E0" stroke="#fff" stroke-width=".4"/><path d="M99,-231L109,-233L126,-246L140,-252L148,-248L157,-248L163,-241L172,-241L185,-237L194,-247L190,-255L200,-270L210,-264L218,-263L229,-259L230,-248L243,-242L252,-245L263,-247L272,-245L281,-238L287,-231L295,-231L307,-229L315,-232L327,-234L340,-244L345,-243L350,-238L361,-239L357,-229L350,-215L353,-210L358,-211L367,-209L374,-214L381,-210L389,-200L388,-196L381,-197L368,-195L361,-192L355,-183L341,-178L332,-171L323,-174L318,-175L313,-167L316,-162L317,-158L311,-154L304,-147L294,-143L280,-142L265,-138L255,-131L251,-135L240,-135L227,-143L218,-144L206,-143L187,-145L177,-145L172,-153L167,-164L162,-165L151,-173L139,-175L128,-177L125,-183L128,-198L122,-209L109,-214L101,-221Z" fill="#E0E0E0" stroke="#fff" stroke-width=".4"/><path d="M186,17L186,21L183,22L184,29L178,27L166,34L166,40L161,48L161,53L157,61L149,59L149,69L147,72L148,77L144,79L139,63L136,63L135,70L130,65L133,59L137,58L141,50L136,48L127,48L119,47L118,40L114,40L106,35L103,42L110,47L104,51L102,55L108,57L106,63L109,71L111,79L109,82L103,82L92,84L92,92L88,97L75,104L64,115L58,121L49,127L49,132L44,134L36,137L32,138L29,145L31,157L31,165L28,174L28,189L23,190L19,197L21,200L13,202L10,209L7,211L-2,203L-6,190L-10,181L-13,176L-18,167L-20,156L-22,150L-30,137L-34,119L-36,106L-36,95L-38,86L-51,91L-58,90L-69,78L-65,75L-68,71L-78,63L-72,56L-52,56L-54,48L-59,42L-60,35L-66,30L-56,19L-46,20L-36,9L-31,-1L-22,-12L-22,-19L-14,-25L-21,-31L-25,-38L-28,-48L-23,-52L-10,-50L0,-51L9,-61L19,-48L18,-39L22,-33L21,-28L15,-29L17,-17L26,-11L39,-3L33,1L30,11L38,15L47,20L59,26L71,27L76,32L83,33L94,36L102,35L103,31L102,25L102,21L108,18L109,26L109,29L117,32L123,31L130,31L138,31L138,25L135,22L142,20L150,13L161,6L168,9L175,4L179,11L176,15Z" fill="#E0E0E0" stroke="#fff" stroke-width=".4"/><path d="M144,79L143,86L140,84L141,92L138,87L138,82L136,78L132,72L124,71L125,75L122,81L118,79L117,81L114,80L111,79L109,71L106,63L108,57L102,55L104,51L110,47L103,42L106,35L114,40L118,40L119,47L127,48L136,48L141,50L137,58L133,59L130,65L135,70L136,63L139,63Z" fill="#E0E0E0" stroke="#fff" stroke-width=".4"/><path d="M135,22L138,25L138,31L130,31L123,31L117,32L109,29L109,26L115,19L120,16L126,19L131,19Z" fill="#E0E0E0" stroke="#fff" stroke-width=".4"/><path d="M102,21L102,25L103,31L102,35L94,36L83,33L76,32L71,27L59,26L47,20L38,15L30,11L33,1L39,-3L43,-6L50,-3L59,4L64,6L67,11L74,13L82,17L92,20Z" fill="#E0E0E0" stroke="#fff" stroke-width=".4"/><path d="M9,-61L0,-51L-10,-50L-23,-52L-28,-48L-25,-38L-21,-31L-14,-25L-22,-19L-22,-12L-31,-1L-36,9L-46,20L-56,19L-66,30L-60,35L-59,42L-54,48L-52,56L-72,56L-78,63L-85,60L-88,53L-95,45L-111,47L-126,48L-139,49L-135,37L-122,32L-123,27L-127,26L-128,17L-136,12L-140,6L-144,0L-129,6L-120,4L-115,5L-113,3L-107,4L-95,-0L-95,-9L-90,-15L-83,-15L-82,-18L-75,-19L-72,-18L-68,-21L-68,-28L-65,-34L-59,-37L-62,-44L-54,-44L-51,-48L-52,-52L-47,-57L-48,-62L-50,-67L-45,-72L-35,-74L-25,-76L-20,-78L-15,-79L-8,-74L-6,-65Z" fill="#E0E0E0" stroke="#fff" stroke-width=".4"/><path d="M-93,-82L-88,-82L-81,-79L-79,-78L-72,-81L-69,-79L-66,-84L-61,-84L-59,-86L-58,-91L-54,-95L-50,-92L-51,-88L-48,-88L-49,-78L-45,-75L-42,-77L-38,-78L-32,-83L-26,-82L-17,-82L-15,-79L-20,-78L-25,-76L-35,-74L-45,-72L-50,-67L-48,-62L-47,-57L-52,-52L-51,-48L-54,-44L-62,-44L-59,-37L-65,-34L-68,-28L-68,-21L-72,-18L-75,-19L-82,-18L-83,-15L-90,-15L-95,-9L-95,-0L-107,4L-113,3L-115,5L-120,4L-129,6L-144,0L-136,-9L-137,-16L-144,-18L-145,-24L-148,-33L-144,-39L-148,-41L-145,-49L-141,-62L-132,-58L-125,-60L-123,-65L-116,-66L-111,-70L-109,-79L-102,-81L-100,-85L-96,-82Z" fill="#E0E0E0" stroke="#fff" stroke-width=".4"/><path d="M-81,-79L-76,-91L-78,-99L-85,-102L-83,-107L-75,-107L-71,-113L-68,-121L-56,-124L-58,-118L-56,-115L-53,-115L-56,-111L-66,-113L-67,-107L-57,-108L-46,-104L-28,-106L-26,-95L-23,-96L-18,-93L-18,-89L-17,-82L-26,-82L-32,-83L-38,-78L-42,-77L-45,-75L-49,-78L-48,-88L-51,-88L-50,-92L-54,-95L-58,-91L-59,-86L-61,-84L-66,-84L-69,-79L-72,-81L-79,-78Z" fill="#E0E0E0" stroke="#fff" stroke-width=".4"/><path d="M-53,-139L-51,-145L-45,-147L-30,-142L-29,-150L-24,-152L-11,-147L-7,-148L8,-148L21,-147L26,-142L31,-141L30,-138L16,-131L12,-126L1,-125L-3,-117L-12,-119L-19,-117L-27,-111L-26,-108L-28,-106L-46,-104L-57,-108L-67,-107L-66,-113L-56,-111L-53,-115L-46,-114L-34,-123L-45,-129L-51,-126L-58,-130L-50,-138Z" fill="#E0E0E0" stroke="#fff" stroke-width=".4"/><path d="M-220,-134L-216,-138L-206,-140L-200,-137L-194,-127L-189,-128L-179,-128L-180,-134L-172,-138L-165,-145L-153,-139L-152,-129L-148,-127L-138,-127L-135,-125L-131,-113L-121,-105L-115,-99L-105,-94L-93,-89L-93,-82L-96,-82L-100,-85L-102,-81L-109,-79L-111,-70L-116,-66L-123,-65L-125,-60L-132,-58L-141,-62L-142,-72L-149,-72L-159,-82L-167,-83L-177,-89L-183,-90L-187,-88L-193,-89L-199,-82L-207,-80L-209,-88L-208,-100L-215,-104L-213,-112L-219,-113L-217,-123L-208,-120L-200,-124L-207,-131L-209,-138L-217,-135L-217,-126Z" fill="#E0E0E0" stroke="#fff" stroke-width=".4"/><path d="M-256,-1L-261,-6L-261,-12L-264,-12L-262,-19L-267,-28L-278,-33L-284,-44L-282,-52L-278,-56L-279,-63L-284,-66L-290,-79L-295,-89L-293,-92L-296,-106L-290,-109L-289,-104L-284,-99L-278,-97L-275,-98L-264,-106L-261,-107L-258,-104L-261,-98L-255,-92L-253,-93L-250,-84L-242,-82L-235,-76L-222,-74L-208,-77L-207,-80L-199,-82L-193,-89L-187,-88L-183,-90L-177,-89L-167,-83L-159,-82L-149,-72L-142,-72L-141,-62L-145,-49L-148,-41L-144,-39L-148,-33L-145,-24L-144,-18L-137,-16L-136,-9L-144,0L-140,6L-136,12L-128,17L-127,26L-123,27L-122,32L-135,37L-139,49L-156,46L-166,44L-176,42L-180,30L-184,28L-191,30L-200,35L-211,31L-220,24L-229,21L-235,11L-242,-3L-247,-1L-253,-5Z" fill="#E0E0E0" stroke="#fff" stroke-width=".4"/><path d="M806,479L813,485L818,490L815,492L810,489L803,485L797,480L791,473L790,470L794,470L799,473L803,476Z" fill="#E0E0E0" stroke="#fff" stroke-width=".4"/><path d="M773,379L775,382L769,382L765,377L771,379ZM769,371L767,373L761,365L759,359L762,359L765,367ZM761,374L758,374L752,373L750,371L751,368L757,369L760,371ZM750,357L752,359L753,361L746,357L741,354L737,351L739,350L743,352ZM728,347L731,350L729,351L725,349L722,345L722,344Z" fill="#E0E0E0" stroke="#fff" stroke-width=".4"/><path d="M642,689L647,690L648,704L645,709L644,719L641,715L635,724L633,723L627,723L621,712L620,704L615,694L615,688L621,689L630,693L635,692ZM447,592L437,598L429,600L428,606L424,610L417,611L411,612L403,610L396,611L390,611L385,617L382,617L378,620L373,623L367,623L361,623L351,616L346,614L346,607L351,606L352,603L352,600L353,592L352,586L347,575L346,569L346,563L343,556L342,553L338,549L337,541L332,533L331,529L335,533L332,524L336,527L339,531L339,526L334,518L333,515L331,512L332,506L334,503L335,498L334,493L338,486L339,493L343,486L350,483L354,479L361,475L365,475L368,476L375,472L381,471L382,469L384,468L389,468L399,466L404,461L406,456L411,451L412,448L412,442L418,434L422,443L426,441L423,436L426,432L430,434L431,426L436,422L438,418L443,417L443,414L447,415L447,413L451,411L455,410L462,414L467,420L473,420L478,421L476,416L481,408L485,406L483,403L487,398L493,395L497,396L505,394L505,390L498,386L503,385L509,387L514,391L522,394L524,393L530,396L535,393L538,394L541,392L545,396L542,401L539,405L536,406L537,409L534,414L531,418L532,421L539,426L546,429L550,433L557,438L559,438L564,441L566,444L574,447L580,444L582,438L584,434L585,429L588,422L586,417L587,414L586,409L587,402L589,400L588,397L590,392L591,387L592,384L595,381L598,385L598,391L601,392L601,396L604,401L605,406L605,410L608,417L614,413L617,417L621,421L620,425L622,433L623,438L626,439L628,447L627,452L630,459L640,464L646,468L652,472L651,475L656,481L660,491L664,489L667,494L669,492L671,502L677,509L682,512L689,520L691,528L692,534L691,541L695,549L695,558L693,563L691,572L691,579L689,586L685,596L678,601L675,610L672,615L669,624L666,630L664,638L662,646L663,650L658,654L648,654L639,659L635,663L630,668L622,663L616,661L618,655L613,657L605,666L597,663L592,661L587,660L578,657L572,650L571,641L568,635L564,631L555,629L558,624L556,616L552,623L544,625L548,619L550,613L553,608L552,600L545,609L539,613L536,621L529,617L529,611L524,603L519,599L520,597L509,590L502,590L494,585L477,586L466,589L455,593Z" fill="#E0E0E0" stroke="#fff" stroke-width=".4"/><path d="M45,215L44,225L40,227L32,230L28,222L26,209L30,194L36,199L41,206Z" fill="#E0E0E0" stroke="#fff" stroke-width=".4"/><path d="M296,116L288,113L288,105L293,100L302,98L308,98L310,102L306,106L304,111ZM31,-141L30,-148L37,-151L28,-173L46,-178L51,-181L58,-204L76,-200L81,-206L81,-219L89,-221L95,-230L99,-231L101,-221L109,-214L122,-209L128,-198L125,-183L128,-177L139,-175L151,-173L162,-165L167,-164L172,-153L177,-145L187,-145L206,-143L218,-144L227,-143L240,-135L251,-135L255,-131L265,-138L280,-142L294,-143L304,-147L311,-154L317,-158L316,-162L313,-167L318,-175L323,-174L332,-171L341,-178L355,-183L361,-192L368,-195L381,-197L388,-196L389,-200L381,-210L374,-214L367,-209L358,-211L353,-210L350,-215L357,-229L361,-239L372,-234L385,-243L385,-249L393,-264L398,-269L398,-277L393,-281L400,-288L411,-291L423,-291L437,-287L445,-281L451,-266L454,-260L457,-251L461,-237L476,-233L487,-223L491,-210L504,-210L512,-216L527,-220L522,-208L519,-203L516,-188L510,-176L499,-178L491,-173L493,-162L492,-148L487,-147L488,-141L482,-148L478,-141L464,-136L465,-130L458,-130L453,-134L447,-125L437,-119L430,-111L417,-108L410,-102L401,-99L405,-105L404,-109L411,-117L406,-124L398,-119L388,-111L382,-103L373,-103L369,-97L374,-90L381,-88L381,-83L388,-79L399,-87L407,-83L412,-83L414,-77L401,-74L397,-67L388,-62L383,-54L393,-48L397,-37L402,-27L408,-19L408,-11L403,-8L405,-3L410,0L409,9L406,17L401,18L395,29L387,42L379,54L366,63L354,72L344,73L338,77L335,74L330,79L317,84L308,85L305,95L300,96L297,89L299,85L287,82L283,84L274,81L269,77L271,72L263,70L258,66L251,71L242,72L234,72L230,75L225,76L226,87L221,87L221,85L220,81L214,84L210,82L203,78L206,70L200,68L198,59L188,61L189,49L198,40L198,32L198,24L194,22L191,16L186,17L176,15L179,11L175,4L168,9L161,6L150,13L142,20L135,22L131,19L126,19L120,16L115,19L109,26L108,18L102,21L92,20L82,17L74,13L67,11L64,6L59,4L50,-3L43,-6L39,-3L26,-11L17,-17L15,-29L21,-28L22,-33L18,-39L19,-48L9,-61L-6,-65L-8,-74L-15,-79L-17,-82L-18,-89L-18,-93L-23,-96L-26,-95L-28,-106L-26,-108L-27,-111L-19,-117L-12,-119L-3,-117L1,-125L12,-126L16,-131L30,-138Z" fill="#E0E0E0" stroke="#fff" stroke-width=".4"/><path d="M407,56L402,72L398,80L393,71L392,64L397,54L405,47L409,50Z" fill="#E0E0E0" stroke="#fff" stroke-width=".4"/><path d="M211,225L212,223L220,227L220,232L226,231L229,227L231,228L237,234L241,240L241,246L240,250L241,253L242,258L245,261L248,269L248,272L242,273L233,266L223,259L222,254L216,248L215,240L212,236L213,229ZM372,246L364,245L354,245L351,255L347,258L342,271L335,273L326,270L322,271L317,276L311,275L305,277L299,272L297,266L304,269L311,267L313,259L317,258L328,256L334,248L339,243L343,247L345,244L349,245L349,239L350,234L357,228L361,221L365,221L370,225L370,229L376,232L384,235L383,238L377,239L379,243Z" fill="#E0E0E0" stroke="#fff" stroke-width=".4"/><path d="M350,234L349,239L349,245L345,244L343,247L339,243L342,239Z" fill="#E0E0E0" stroke="#fff" stroke-width=".4"/><path d="M589,-103L581,-91L581,-79L578,-70L579,-64L575,-57L563,-51L547,-51L534,-38L528,-42L528,-51L512,-48L501,-43L491,-43L500,-35L494,-17L488,-12L484,-16L486,-26L480,-29L476,-36L485,-40L490,-47L499,-52L505,-60L523,-63L533,-61L543,-81L549,-76L562,-87L567,-91L573,-106L571,-119L575,-127L585,-129L590,-112ZM614,-161L620,-166L623,-152L609,-148L601,-136L587,-145L582,-131L572,-131L571,-143L575,-153L585,-153L587,-171L590,-181L601,-167L608,-163ZM503,-38L508,-45L513,-44L517,-48L524,-46L525,-42L520,-35L516,-39L511,-36L509,-30L503,-33Z" fill="#E0E0E0" stroke="#fff" stroke-width=".4"/><path d="M-379,5L-369,7L-365,4L-363,0L-356,-1L-355,-5L-352,-7L-361,-17L-343,-23L-341,-24L-330,-21L-316,-14L-291,7L-274,8L-266,9L-264,14L-257,14L-254,23L-249,25L-248,28L-242,33L-241,37L-242,40L-241,44L-238,46L-237,50L-236,52L-233,54L-230,53L-229,57L-228,60L-225,70L-198,74L-196,72L-192,79L-198,99L-225,108L-251,112L-259,116L-266,126L-270,128L-272,125L-276,125L-285,124L-286,123L-297,124L-299,124L-303,122L-305,127L-304,131L-308,134L-310,130L-312,127L-313,123L-318,119L-322,112L-325,104L-331,97L-335,95L-341,86L-342,79L-342,74L-347,63L-351,59L-356,57L-359,51L-359,49L-361,44L-364,41L-368,34L-373,26L-378,19L-382,19L-381,13L-380,9Z" fill="#E0E0E0" stroke="#fff" stroke-width=".4"/></g><g clip-path="url(#v)"><path d="M401.1,112.0L402.5,112.5L405.6,114.3L406.7,114.8L407.8,115.1L408.7,115.2L409.6,114.8L409.9,114.4L410.6,113.3L411.2,113.1L411.7,113.5L411.9,114.1L412.1,114.8L411.9,115.7L411.3,116.4L410.9,117.3L410.6,120.2L410.6,121.1L410.8,121.9L411.4,123.3L411.7,123.7L412.5,124.1L412.8,124.5L412.8,125.1L412.9,125.7L413.5,125.9L413.9,126.2L413.8,126.8L413.5,127.5L413.1,129.1L411.3,132.7L411.2,133.5L410.5,135.1L409.0,135.4L407.3,136.1L406.4,136.7L405.6,137.5L405.3,138.5L405.5,138.9L405.7,139.4L405.7,140.0L405.4,140.4L404.6,141.5L404.3,142.3L403.9,142.7L403.7,143.2L403.8,143.7L404.1,144.2L405.1,146.3L406.2,148.2L406.4,148.5L406.5,148.7L405.8,149.2L405.9,150.2L406.0,151.1L407.0,153.4L407.1,154.0L407.4,154.5L407.9,155.0L408.5,155.4L410.0,156.1L410.5,156.2L411.2,156.3L411.3,155.8L411.8,155.6L411.7,155.2L411.1,154.6L411.1,154.2L411.4,154.0L411.8,153.8L412.7,153.1L413.7,152.6L414.9,152.6L416.1,153.0L417.0,153.3L417.7,153.9L418.4,154.9L419.0,156.0L418.9,156.5L418.8,157.1L418.8,157.6L419.2,157.9L420.4,158.0L421.0,157.1L421.1,156.2L420.7,155.8L420.8,155.4L421.2,155.0L421.7,155.3L422.2,155.9L424.0,156.6L424.5,156.6L424.9,156.7L425.7,157.1L426.1,157.5L425.6,158.2L423.8,158.4L423.3,158.9L423.8,160.0L424.7,160.9L425.2,161.6L425.7,162.4L425.7,163.2L425.4,163.9L426.2,163.8L426.9,164.0L428.0,164.6L428.3,164.7L428.6,164.6L428.6,166.9L427.9,168.9L427.0,168.7L426.3,167.8L426.4,166.7L426.9,165.7L426.6,165.5L426.1,165.6L425.6,165.8L425.0,165.9L424.0,165.7L422.0,164.6L421.1,164.5L420.9,164.0L421.0,162.9L420.2,161.6L420.0,161.2L419.8,160.8L417.4,159.4L417.1,159.2L416.3,158.1L414.6,156.5L414.2,156.3L413.6,156.3L413.5,156.7L413.7,157.3L413.8,157.8L413.8,158.4L413.8,158.8L414.7,159.7L414.7,160.1L415.3,161.2L415.4,162.6L414.7,163.1L413.9,162.5L413.9,162.0L413.7,161.5L412.9,160.3L412.7,160.1L411.1,158.9L409.9,157.6L407.2,156.2L406.9,156.1L406.4,156.2L406.0,156.4L404.7,157.1L404.2,157.6L404.2,158.3L403.3,158.9L402.0,159.0L401.1,158.6L400.2,157.9L399.6,157.8L398.7,156.7L397.7,156.5L396.9,157.4L396.7,155.7L396.7,153.9L396.9,153.3L397.4,152.9L399.5,151.0L399.7,150.4L399.6,149.6L399.2,148.9L398.4,148.5L397.5,148.4L396.9,148.0L396.4,147.4L396.1,148.5L396.4,150.0L396.5,151.1L396.2,151.5L395.6,151.5L395.1,151.4L394.7,151.0L394.4,149.9L393.7,149.2L393.4,148.2L393.1,148.0L392.4,148.1L391.9,147.7L391.5,146.5L391.5,145.2L391.2,144.1L390.7,143.1L390.5,142.2L390.1,138.4L390.1,138.0L389.9,137.7L389.4,137.3L389.0,136.8L389.0,136.3L389.1,134.4L389.2,134.0L389.6,133.8L390.1,134.1L390.5,134.6L391.0,134.8L391.4,135.1L392.2,136.2L392.6,136.4L393.6,136.4L394.2,136.2L394.5,135.8L394.6,135.3L394.7,134.8L394.1,133.1L393.9,131.9L393.9,130.8L394.0,129.7L394.8,127.8L394.9,126.6L394.9,124.8L395.0,123.8L395.0,123.2L394.5,122.3L394.4,121.3L395.7,116.4L396.1,115.4L396.4,114.4L396.6,113.1L397.6,112.7L398.5,112.1L399.0,112.2L399.5,112.3L400.7,112.0ZM366.8,207.0L365.9,207.6L366.0,206.8L366.3,206.0L367.1,204.5L367.7,204.0L368.7,202.7L369.3,202.1L370.7,200.9L372.0,199.6L372.4,199.5L372.8,199.5L373.2,199.4L374.1,198.7L376.1,196.3L377.8,194.6L379.6,192.3L380.4,191.7L380.7,191.4L382.3,189.4L382.8,189.1L383.3,188.9L383.7,188.6L384.1,188.3L384.6,187.4L384.9,186.3L384.7,185.7L384.4,184.9L384.8,183.7L385.1,183.1L386.3,180.7L386.6,180.2L387.1,180.5L387.1,181.0L386.9,182.0L386.9,182.5L387.2,183.0L386.8,183.9L387.6,186.2L388.3,187.6L388.3,188.1L387.5,188.9L387.0,189.2L385.9,189.4L385.4,189.6L384.6,190.3L384.2,191.3L384.0,191.7L383.8,192.1L381.6,192.7L380.6,193.1L380.1,193.4L379.9,193.9L380.0,194.8L378.2,198.0L377.6,198.8L377.0,199.5L376.2,200.0L375.1,200.3L374.2,200.9L373.6,202.0L372.9,203.0L372.0,203.7L371.0,204.3L370.1,204.8L369.1,205.1L368.8,205.6L368.6,206.1L368.2,206.3L367.7,206.5ZM413.7,177.8L414.8,178.2L415.8,177.8L416.8,177.9L417.7,178.6L417.4,178.9L417.4,179.4L419.2,178.4L419.7,178.5L419.7,179.4L419.6,180.1L419.4,180.8L419.0,181.6L418.4,182.4L417.7,182.9L416.9,183.2L416.5,183.5L416.4,184.0L416.4,184.6L416.2,185.1L415.3,185.3L414.0,186.3L411.0,186.9L410.2,187.4L409.7,187.9L409.1,188.4L408.8,188.6L408.7,188.3L408.7,188.1L409.1,186.8L409.0,186.2L408.8,185.7L408.9,184.6L409.4,183.6L409.7,182.6L409.8,180.4L410.2,177.5L410.2,177.2L409.9,176.8L408.7,176.4L408.3,176.1L408.5,175.6L408.9,175.2L409.5,175.2L410.0,175.5L411.9,176.3L412.9,177.0ZM419.5,201.3L418.9,201.3L418.2,201.3L417.8,200.9L417.1,198.9L416.2,198.4L415.3,198.1L414.8,197.8L414.3,197.4L413.0,195.5L412.9,194.3L413.1,193.6L413.5,193.0L414.0,192.9L415.1,192.8L415.7,192.8L417.0,191.9L417.1,191.5L417.1,190.0L417.0,189.0L416.6,188.0L417.0,187.6L417.5,187.1L417.9,186.2L418.0,185.6L418.0,185.0L418.1,184.5L418.5,184.3L420.3,183.5L420.6,183.5L422.9,184.2L423.4,185.1L423.4,185.5L423.1,186.6L422.8,187.3L422.0,188.4L421.4,189.7L421.0,191.5L420.7,192.1L420.0,193.3L419.8,193.9L419.8,195.3L419.6,195.8L419.6,196.3L421.1,198.6L421.2,198.9L421.2,199.3L420.9,199.9L420.4,200.7L420.0,201.0ZM432.6,180.3L433.2,180.6L433.9,180.5L434.8,179.7L435.8,180.0L436.4,181.1L436.7,181.5L436.8,182.2L436.8,183.9L436.5,185.4L436.7,185.7L437.2,186.0L437.6,186.4L437.9,186.8L438.1,187.3L438.2,188.5L438.8,189.4L438.8,189.8L438.7,190.2L437.8,190.2L437.7,190.5L437.7,190.9L437.4,190.6L436.8,189.7L436.3,189.3L436.5,190.8L436.6,191.6L436.7,192.4L435.8,191.8L434.7,191.4L434.4,191.1L434.5,190.1L434.5,189.6L434.1,188.6L434.6,186.4L434.6,185.9L434.5,185.5L434.1,184.6L433.4,183.8L432.9,183.8L431.9,184.3L431.4,184.2L431.1,182.1L430.7,180.0L430.4,179.5L430.1,179.0L430.3,178.5L430.8,178.7L431.3,179.2L432,179.5L432.3,179.8ZM438.6,169.3L439.2,170.1L439.4,170.6L439.3,171.2L439.6,171.5L440.1,171.6L440.8,171.9L441.3,172.4L441.0,172.9L441.1,173.7L440.5,174.6L440.6,176.3L440.9,176.9L440.9,177.4L440.9,178.0L441,178.4L441.8,180.0L441.9,180.5L441.7,180.9L441.6,181.3L442.1,181.3L442.8,181.9L443.2,182.8L443.1,183.0L442.5,182.3L442.1,182.2L440.3,182.4L439.2,182.1L438.5,182.1L437.8,181.0L437.2,180.8L436.7,180.3L435.9,179.0L435.7,178.3L436.2,177.5L436.4,177.0L436.4,176.4L435.8,176.5L435.4,176.3L434.8,175.6L434.6,175.2L434.2,174.8L433.5,174.0L432.5,173.7L432.2,173.5L431.4,172.8L430.9,171.9L430.3,170.5L430.0,168.9L432.5,169.3L435.0,169.2L437.8,168.9ZM397.5,160.5L398.0,160.5L399.4,160.3L400.0,160.4L400.4,160.9L400.9,161.1L401.3,161.4L402.0,160.9L402.7,161.4L403.4,162.5L404.2,163.2L404.9,163.7L405.1,164.1L404.6,164.7L404.5,165.6L404.5,166.4L405.1,168.3L404.9,168.8L404.3,169.5L403.9,170.3L404.0,170.6L403.8,170.9L403.8,171.4L403.4,171.3L403.1,171.4L402.8,171.6L402.3,172.2L401.6,172.0L401.2,171.9L401.1,171.4L400.9,171.1L400.6,170.9L399.8,170.1L399.5,169.5L399.5,168.8L399.3,168.2L398.9,167.7L398.3,167.3L398.1,166.9L398.1,166.4L398.1,165.2L397.3,163.7L397.0,163.3L396.3,163.0L395.7,162.5L395.5,162.0L395.2,161.3L395.1,161.1L394.6,161.2L394.2,161.1L394.3,160.5L394.8,160.1L395.4,160.1L397.0,160.3ZM445.5,198.9L446.3,199.5L447.2,199.3L447.2,200.7L447.4,201.1L448.2,202.3L448.4,203.3L447.8,204.2L447.5,204.6L446.7,205.3L446.7,205.6L447.0,205.9L448.0,206.1L448.8,206.6L448.9,208.0L449.6,209.1L449.6,209.6L449.3,211.7L449.4,212.5L449.9,213.2L450.4,213.5L450.7,214.0L450.8,215.1L450.8,217.2L450.8,217.9L450.4,218.5L449.4,220.0L448.1,221.2L447.4,221.1L447.2,221.5L447.7,222.6L447.5,224.9L447.2,226.4L446.8,225.6L446.5,224.8L446.2,222.6L445.9,221.6L445.3,220.7L445.1,219.8L444.6,219.1L443.9,217.1L443.4,217.2L442.7,217.7L442.5,218.1L442.4,218.7L442.2,219.2L441.3,220.0L440.6,220.9L440.1,222.0L439.9,223.0L440.3,223.7L440.8,224.0L441.5,224.7L441.8,225.0L442.5,227.2L442.5,229.4L441.9,230.4L440.5,232.3L439.6,232.9L439.0,232.6L438.6,231.5L438.5,231.0L438.8,229.9L438.8,229.0L438.5,228.6L438.1,228.7L438,228.8L437.1,230.1L436.7,230.4L436.2,230.5L435.8,230.4L433.1,229.3L431.0,228.2L429.3,227.1L428.1,225.6L427.8,224.4L427.8,223.2L427.2,221.4L427.2,220.8L427.2,220.2L427.8,219.1L428.4,218.5L428.8,218.1L429.1,217.7L429.3,217.1L429.2,216.5L429.0,216.2L428.0,214.9L427.1,214.1L425.2,213.4L424.8,213.0L424.3,212.7L423.8,212.5L423.3,212.5L422.8,212.8L422.6,213.2L422.7,213.7L422.6,214.1L421.8,216.4L420.8,215.9L419.9,215.3L419.7,214.9L419.5,214.4L419.4,214.0L419.2,213.7L418.7,214.5L418.2,215.1L417.6,215.3L416.9,215.3L416.6,215.0L416.4,213.5L415.7,213.1L414.8,213.2L413.7,214.0L413.5,214.3L413.3,215.0L412.1,217.0L411.5,218.6L410.8,220.1L410.5,220.6L410.1,220.9L409.5,220.8L408.9,220.4L408.4,219.5L408.6,218.3L409.2,217.6L409.7,216.8L410.3,214.1L410.3,213.1L410.4,212.7L411.5,211.5L412.3,210.7L412.7,210.6L414.6,210.1L415.3,209.8L416.5,209.8L417.5,209.6L418.3,209.0L418.3,208.4L418.3,207.7L418.5,207.4L418.8,207.0L419.2,206.6L419.6,206.3L420.9,206.0L421.4,205.8L421.7,205.4L422.2,204.6L422.8,204.8L423.4,205.1L424.5,205.3L425.4,206.0L426.0,207.0L426.1,207.6L426.3,209.3L426.0,209.7L425.1,210.5L425.5,210.6L426.7,209.8L427.3,209.5L428.8,209.2L429.2,208.9L429.4,208.5L429.9,207.5L430.3,206.3L430.6,205.9L431.0,205.5L431.4,205.5L433.0,206.2L434.0,205.9L434.3,204.7L434.5,203.0L434.7,202.5L435.2,202.1L435.9,202.2L436.8,202.8L437.7,203.1L438,202.6L438.3,201.6L438.7,201.6L439.8,201.9L440.9,201.7L441.3,200.6L441.0,199.3L440.2,195.7L440.7,194.9L441.1,194.9L442.2,195.8L444.4,197.1L445.1,197.9ZM421.7,197.7L421.3,198.0L421.2,197.3L421.3,196.5L422.0,193.7L421.8,193.0L423.0,191.4L423.7,189.9L424.7,188.3L424.9,187.5L425.8,185.9L426.7,183.8L426.7,183.1L426.9,182.7L427.0,182.2L427.0,181.7L427.7,180.9L427.9,181.4L427.7,182.5L427.7,183.0L427.8,183.2L427.8,184.1L427.6,185.6L427.8,187.3L427.4,189.0L426.9,189.8L426.2,190.3L425.4,190.6L424.6,191.5L424.1,192.5L424.0,193.4L422.8,196.4ZM408.5,109.4L408.0,110.1L407.6,109.9L408.0,109.2L408.0,109.0L408.2,108.4L408.7,108.3L409.1,108.8ZM404.9,104.9L405.0,105.7L404.4,105.7L403.7,105.2L403.6,104.9L403.6,104.7L403.7,104.5ZM408.9,95.2L408.7,95.3L408.5,95.3L408.7,94.4L409.2,94.1L409.5,94.2ZM408.1,91.2L407.7,92.0L407.3,92.0L407.4,91.5L407.9,90.6L408.0,90.6ZM401.6,228.6L402.1,229.2L402.7,229.0L403.7,229.2L403.9,229.6L403.9,229.8L402.8,230.4L402.2,229.8L400.9,230.2L400.3,230.0L399.6,230.2L399.1,229.7L399.3,229.2L400.5,228.4ZM364.7,212.1L364.2,212.8L363.7,212.0L363.7,210.8L363.9,210.5L364.7,210.4ZM390.4,188.2L389.2,188.5L389.0,187.6L389.8,186.8L390.7,187.1L391.2,187.4L390.9,187.7ZM392.0,172.6L392.5,172.8L392.9,172.7L393.2,172.2L393.5,172.9L394.2,173.5L394.0,174.1L393.3,174.2L392.7,174.0L392.0,174.3L391.2,174.1L390.7,173.6L390.2,172.5L389.9,172.4L389.9,171.9L390.1,171.7L390.0,171.6L390.1,171.4L390.2,171.3L390.4,171.2L390.8,171.7L391.8,172.4ZM391.5,177.0L390.8,177.3L390.6,177.1L390.5,176.6L390.5,176.3L389.9,174.6L390.4,174.4L390.7,174.6L391.1,174.8L391.4,175.0L391.8,175.5L391.7,175.9L391.8,176.2ZM415.1,188.3L414.9,188.4L414.7,188.4L414.1,188.7L413.9,188.1L414.1,187.1L414.9,186.3L415.1,186.0L415.3,185.8L415.6,185.8L415.9,186.2L415.9,186.6L415.4,188.1ZM432.8,194.6L432.7,195.0L431.9,194.9L431.7,195.0L431.0,195.8L430.6,196.1L428.5,196.3L426.8,196.1L426.2,195.6L425.8,194.9L425.7,194.3L426.1,193.8L426.5,193.4L427.9,192.7L428.2,192.1L428.9,191.4L430.4,191.2L430.5,191.4L430.7,191.5L431.0,191.5L431.8,192.1L432.6,192.4L432.4,193.8L432.6,194.2ZM393.4,236.0L393.2,236.6L392.9,236.8L392.5,236.7L392.2,236.4L392.0,236.8L391.2,237.0L390.7,237.6L390.0,237.8L389.5,237.7L389.6,237.1L391.0,236.3L391.9,236.0L392.6,235.3L393.0,235.3L393.2,235.8ZM410.1,225.3L409.2,225.5L408.9,225.5L408.2,224.5L408.1,224.1L407.5,223.7L407.7,223.2L408.5,223.1L409.8,222.5L411.8,223.4L412.2,223.8L411.5,224.0L411.1,224.9ZM446.0,194.8L445.9,194.9L445.4,194.1L445.5,193.3L446.2,192.1L446.6,193.2L446.6,193.7L446.6,193.9L447.0,194.5L446.7,194.8ZM442.7,193.4L442.5,193.7L442.3,193.2L441.8,192.7L441.3,191.8L440.9,191.6L441.1,190.9L441.2,189.8L441.7,189.3L441.9,189.2L442.3,188.6L442.5,188.6L442.6,189.0L442.3,190.4L442.8,192.0L442.6,193.0L442.7,193.2ZM393.6,157.9L393.6,158.6L392.1,157.6L392.0,157.3L392.1,157.1L392.2,156.9L393.0,157.3ZM408.5,159.9L409.0,159.9L409.2,159.8L410.3,160.6L410.2,161.0L410.3,161.5L409.7,162.4L409.6,162.7L409.3,163.0L408.1,162.3L407.7,161.9L407.6,161.0L408.0,159.7ZM410.1,170.9L409.4,173.2L408.9,172.4L409.1,171.9L408.7,171.5L408.6,171.1L408.7,170.6L409.1,170.2L409.2,168.7L410.2,168.2L410.5,168.2L410.4,168.5L410.4,169.2ZM415.2,171.3L414.7,171.6L413.8,170.6L413.2,170.2L413.1,170.0L413.5,169.7L414.7,169.7L415.3,170.3L415.4,170.7ZM420.8,166.3L421.6,167.7L420.8,166.7L419.8,166.1L418.8,165.0L418.0,164.6L417.8,164.4L417.9,163.9L418.5,163.8L418.7,163.9L420.2,165.8ZM425.3,170.0L425.3,170.8L425.0,170.5L423.9,168.9L423.6,168.3L423.9,167.9L424.7,168.5ZM424.8,171.5L426.5,172.6L427.7,174.5L427.9,175.9L427.8,176.5L427.2,175.9L426.0,175.0L425.1,174.8L424.9,174.7L425.0,174.2L424.4,173.7L424.3,173.6L423.8,173.4L423.1,172.4L422.6,172.2L422.1,172.4L420.9,173.9L419.7,174.9L419.7,174.5L420.2,173.2L420.5,171.2L420.7,170.5L420.5,169.6L420.4,168.8L421.3,169.2L422.5,169.6L423.4,170.1L423.5,170.4ZM430.6,159.0L430.3,159.6L430.0,159.4L429.6,159.5L428.9,160.0L427.9,159.3L427.7,158.8L428.5,157.6L428.5,155.8L428.7,155.4L429.0,155.1L429.4,154.9L430.1,156.1L430.4,156.3L431.1,156.8L431.0,157.9L431.0,158.6ZM410.8,155.2L410.8,155.5L408.8,154.2L408.7,153.9L408.7,153.7L408.9,153.5ZM409.5,146.2L409.7,146.5L409.5,146.5L409.4,146.6L409.0,147.2L409.4,148.5L409.1,149.4L408.6,149.5L408.4,149.4L408.5,148.9L408.7,148.7L408.6,148.1L408.2,147.8L408.0,147.0L407.6,146.6L407.8,145.9L409.0,145.8ZM430.2,187.1L430.0,187.1L430.4,186.2L430.7,186.3L430.8,186.4L430.8,186.8ZM438.9,192.8L439.0,193.3L437.9,192.1L437.6,191.2L438,191.3L438.5,191.6ZM417.7,216.4L417.8,216.6L417.8,216.8L416.8,217.3L416.5,217.3L416.4,216.6L416.7,216.2L417.1,216.5L417.5,216.2ZM443.5,220.5L443.4,221.0L442.8,219.8L442.6,219.5L442.9,218.4L443.5,218.9ZM432.9,178.9L431.7,179.0L431.3,178.5L430.6,177.3L431.3,177.0L432,177.1L432.5,177.5L433.0,178.4ZM434.7,200.5L434.4,201.1L433.4,200.6L433.1,200.2L433.3,199.8L433.8,199.6L434.0,199.6L434.5,200.1ZM402.5,107.6L402.4,108.2L402.0,107.9L401.9,107.4L401.9,107.0L402.1,106.6L402.4,107.0ZM389.9,178.6L390.1,179.1L389.8,179.8L389.6,180.0L389.3,179.7L388.7,179.5L388.6,179.1L389.0,179.1L389.5,178.7ZM425.2,180.8L425.7,182.1L425.0,182.1L424.7,181.2L425.0,180.9ZM412.0,169.3L411.8,169.6L411.6,169.5L411.5,169.0L411.7,168.7L411.8,168.7ZM445.2,196.4L445.0,196.6L444.8,196.1L445.0,195.1L445.2,194.9L445.4,195.6ZM435.1,177.9L434.9,178.4L434.7,178.3L434.4,178.1L434.1,177.4L434.0,176.8L434.5,177.1L434.8,177.7ZM367.2,209.0L366.6,209.3L366.4,208.7L366.5,208.1L366.9,208.2L367.1,208.3ZM424.6,199.7L424.7,200.6L423.9,200.9L423.2,200.6L422.8,200.1L422.8,199.9L423.1,199.9L424.0,199.4L424.2,199.3Z" fill="#4ECDC4" stroke="#2C3E50" stroke-width="1"/></g><circle cx="400.0" cy="150.0" r="4" fill="#E74C3C" stroke="#fff" stroke-width="2"/><text x="400.0" y="140.0" text-anchor="middle" font-family="sans-serif" font-weight="700" font-size="10" fill="#2D3436">Manila</text></svg>