<svg viewBox="0 0 800 300" xmlns="http://www.w3.org/2000/svg"><defs><clipPath id="v"><rect width="800" height="300"/></clipPath></defs><rect width="800" height="300" fill="#DCEEF8"/><g clip-path="url(#v)"><path d="M100,432L101,433L129,448L130,453L141,460L137,470L138,474L143,477L143,479L141,484L141,486L141,490L143,495L146,502L149,504L143,508L135,511L130,511L127,514L122,514L120,515L111,513L105,513L103,503L100,499L99,497L91,495L87,493L82,492L79,491L76,489L72,479L67,475L66,470L67,466L65,459L68,459L71,456L74,452L76,450L76,448L74,446L74,443L76,442L76,437L73,433L76,432L85,432Z" fill="#E0E0E0" stroke="#fff" stroke-width=".4"/><path d="M510,-10L504,-2L498,-1L497,10L493,15L478,12L472,32L468,34L453,38L460,57L455,60L455,66L451,64L447,60L435,59L423,59L420,60L409,56L405,58L403,64L391,60L386,62L384,66L380,68L370,76L366,83L363,83L361,78L352,78L350,69L346,69L347,59L338,51L324,52L316,54L308,44L302,40L290,32L289,31L269,38L269,76L265,77L260,69L255,66L246,68L243,71L242,69L244,65L243,61L234,57L230,48L226,45L226,42L233,43L234,35L240,33L247,35L248,24L247,17L239,18L233,15L224,20L217,22L213,20L213,15L209,7L203,7L196,-0L201,-9L199,-12L205,-25L213,-18L214,-27L229,-40L241,-40L258,-32L267,-27L275,-32L288,-32L297,-26L300,-29L310,-29L312,-35L300,-43L307,-49L306,-53L313,-56L308,-65L311,-69L340,-74L344,-77L363,-82L370,-87L383,-85L386,-71L394,-74L404,-70L403,-62L410,-63L430,-76L427,-71L436,-61L454,-30L458,-36L468,-29L479,-32L483,-30L487,-23L493,-21L496,-16L506,-17Z" fill="#E0E0E0" stroke="#fff" stroke-width=".4"/><path d="M269,76L269,38L289,31L290,32L302,40L308,44L316,54L324,52L338,51L347,59L346,69L350,69L352,78L361,78L363,83L366,83L370,76L380,68L384,66L386,67L380,74L386,78L391,75L400,81L390,88L384,87L381,87L380,85L382,80L372,82L369,89L365,94L359,94L357,98L363,100L364,108L360,118L354,115L350,115L350,109L340,105L332,101L327,96L318,89L315,79L312,77L304,77L301,75L300,67L290,61L283,67L277,71L278,76Z" fill="#E0E0E0" stroke="#fff" stroke-width=".4"/><path d="M921,444L934,450L948,454L953,458L958,462L959,466L972,471L974,475L966,476L968,481L975,486L980,494L984,494L984,498L990,499L988,500L996,504L995,506L990,507L988,505L981,504L974,502L968,498L963,493L959,486L949,483L943,485L938,488L939,494L933,496L929,495L921,495L921,469ZM1010,453L1013,455L1014,459L1011,461L1010,456L1008,453L1005,451L1000,448L995,445L997,444L1001,446L1004,447L1007,449ZM1000,469L995,471L992,473L987,473L981,471L977,469L977,466L984,467L988,467L990,463L991,463L991,467L996,466L998,464L1002,461L1001,456L1006,456L1008,458L1007,462L1005,466L1001,467ZM1026,465L1028,467L1032,472L1036,475L1035,477L1033,478L1029,475L1026,470L1024,464L1025,463Z" fill="#E0E0E0" stroke="#fff" stroke-width=".4"/><path d="M921,444L921,469L921,495L914,488L906,487L904,489L895,489L898,483L903,481L901,472L897,466L882,459L876,459L865,452L862,455L859,456L858,453L858,450L852,446L860,443L865,443L865,441L854,441L850,437L844,435L840,432L851,430L855,427L867,430L868,433L870,446L878,450L885,442L893,437L900,437L907,440L912,443ZM798,493L799,494L799,497L794,503L787,504L786,503L787,501L790,496ZM869,477L868,472L869,469L871,466L873,468L873,472ZM744,393L739,400L745,407L744,410L752,418L743,418L740,424L741,431L733,436L733,443L730,455L729,452L720,456L717,451L712,451L708,448L699,451L696,447L691,448L685,447L684,437L680,435L676,428L675,421L676,414L681,409L682,414L687,419L692,417L697,418L701,414L705,413L712,415L719,413L723,403L725,400L728,391L737,391ZM832,446L840,448L843,454L836,451L830,450L826,451L820,450L822,446ZM812,454L807,452L806,449L813,448L815,451ZM821,408L821,412L826,413L826,416L826,422L822,422L821,426L824,430L822,431L819,426L817,417L818,411ZM782,418L791,417L799,412L800,414L794,421L788,423L781,421L768,422L761,423L760,428L767,435L771,432L785,429L785,433L781,432L778,436L771,439L779,449L777,452L784,460L784,465L780,468L777,465L781,459L773,462L771,460L772,457L767,452L767,445L762,447L763,456L763,467L758,468L755,466L757,459L756,451L753,451L750,446L754,441L755,435L758,423L760,420L767,414L773,417ZM762,503L752,498L759,496L763,499L766,501L765,503ZM770,490L775,489L782,487L781,491L769,493L759,492L759,489L765,488ZM746,489L751,488L753,491L744,493L739,494L735,494L737,489L742,489L744,487ZM672,474L673,476L687,477L689,474L703,478L706,483L718,484L727,489L718,492L710,489L703,489L695,488L688,487L679,484L673,483L670,484L656,481L655,478L648,477L653,470L662,470L668,473ZM640,433L641,438L644,442L650,443L653,448L651,457L651,469L643,470L636,463L626,457L623,452L617,446L613,440L608,429L601,423L599,416L596,410L589,406L585,399L579,395L571,386L571,382L575,383L587,384L594,392L600,397L604,400L611,408L619,408L626,414L630,420L636,424L633,430L637,433Z" fill="#E0E0E0" stroke="#fff" stroke-width=".4"/><path d="M65,459L67,466L66,470L67,475L72,479L76,489L73,488L63,489L61,490L58,495L60,498L59,508L58,515L60,517L65,520L67,518L68,527L62,527L59,523L56,519L50,518L48,514L44,516L38,515L35,512L30,511L27,511L26,509L24,509L20,508L15,509L12,509L10,510L11,501L8,498L7,493L9,488L7,485L7,480L-2,481L-2,478L-6,478L-6,479L-11,479L-13,484L-14,486L-18,485L-21,486L-26,486L-29,482L-30,480L-33,475L-35,470L-57,469L-60,470L-62,470L-65,471L-66,469L-64,468L-64,465L-63,463L-60,461L-58,462L-55,459L-51,459L-51,461L-48,463L-43,458L-39,454L-37,452L-37,445L-34,438L-30,434L-25,430L-24,428L-24,425L-23,422L-23,418L-23,411L-21,406L-19,402L-18,398L-18,392L-15,388L-10,386L-4,388L1,391L6,392L12,394L14,389L15,388L19,389L27,385L30,387L33,387L34,385L37,384L43,385L48,385L50,384L55,391L58,392L60,390L64,391L68,389L70,392L77,398L76,407L79,408L77,410L74,412L71,416L69,420L69,426L67,429L67,435L65,437L65,441L63,442L63,446L65,450Z" fill="#E0E0E0" stroke="#fff" stroke-width=".4"/><path d="M159,437L154,431L154,403L161,394L163,392L168,392L175,386L185,386L207,363L212,356L215,352L215,348L215,340L215,337L215,336L218,336L221,335L225,334L229,332L232,332L232,334L231,338L231,342L230,345L228,354L224,362L219,372L213,383L206,392L197,403L189,409L178,416L171,422L163,431L161,436Z" fill="#E0E0E0" stroke="#fff" stroke-width=".4"/><path d="M141,460L130,453L129,448L101,433L100,432L100,424L102,420L106,415L109,410L105,401L105,397L101,392L106,387L111,382L115,383L115,388L117,390L123,390L132,397L135,397L137,397L138,398L143,398L146,395L153,392L156,394L161,394L154,403L154,431L159,437L154,440L152,444L149,444L148,450L145,453L144,458Z" fill="#E0E0E0" stroke="#fff" stroke-width=".4"/><path d="M29,361L23,358L20,356L20,353L21,350L21,347L16,342L16,339L16,337L13,334L13,330L11,327L8,327L9,324L11,321L10,318L13,315L11,314L13,309L17,303L23,303L23,271L23,268L32,268L32,252L63,252L92,252L123,252L125,260L124,261L125,270L128,279L130,281L135,284L131,289L125,290L123,293L122,298L119,310L119,313L118,320L115,327L111,331L107,337L106,340L103,343L101,351L101,358L101,352L100,351L100,348L99,345L95,342L94,336L95,330L91,330L91,332L86,332L88,334L89,339L84,343L81,349L77,350L70,345L67,347L67,349L63,351L62,352L55,352L54,351L48,350L45,352L43,351L39,346L38,344L32,345L30,349L28,356L26,357L23,358Z" fill="#E0E0E0" stroke="#fff" stroke-width=".4"/><path d="M23,271L23,303L17,303L13,309L11,314L13,315L10,318L11,321L9,324L8,327L11,327L13,330L13,334L16,337L16,339L11,340L7,343L1,352L-6,355L-13,355L-15,355L-15,358L-19,361L-22,364L-32,367L-34,365L-35,365L-36,367L-43,367L-41,365L-44,360L-45,357L-48,355L-53,351L-51,347L-48,348L-45,347L-41,348L-45,340L-45,335L-46,330L-49,325L-48,321L-53,321L-53,316L-56,313L-53,303L-43,295L-42,285L-39,268L-38,265L-41,262L-41,259L-44,257L-46,244L-38,240L-8,256Z" fill="#E0E0E0" stroke="#fff" stroke-width=".4"/><path d="M559,-693L575,-704L590,-679L608,-635L606,-598L589,-593L568,-605L555,-620L549,-651L539,-660ZM628,-614L648,-592L645,-576L602,-562L616,-613L623,-617ZM904,-501L924,-499L952,-483L946,-460L918,-461L905,-454L890,-473L894,-495ZM976,-476L995,-468L986,-457L974,-459L960,-471L962,-481ZM912,-420L919,-431L929,-433L940,-423L941,-416L929,-415L913,-418ZM184,-672L199,-680L211,-681L212,-668L217,-680L224,-688L235,-677L232,-670L222,-664L215,-660L214,-653L205,-645L197,-656L201,-670ZM15,-73L0,-73L-9,-75L-7,-80L3,-85L11,-82L15,-80L14,-77ZM250,-430L269,-455L267,-468L284,-484L309,-504L335,-510L348,-523L363,-527L368,-514L363,-504L336,-488L312,-473L288,-446L277,-419L265,-394L267,-373L281,-354L277,-352L252,-355L250,-365L236,-372L235,-385L242,-390L242,-404L257,-427ZM935,-65L938,-53L938,-41L941,-28L949,-7L937,-11L933,6L940,17L940,25L934,18L929,27L928,18L929,7L928,-6L929,-15L930,-31L925,-43L926,-60L933,-66L930,-72L933,-74ZM-1539,-315L-1539,-315L-1520,-299L-1500,-279L-1501,-267L-1495,-262L-1497,-276L-1476,-273L-1461,-255L-1469,-247L-1482,-245L-1482,-227L-1485,-224L-1492,-224L-1498,-230L-1508,-235L-1510,-243L-1518,-246L-1526,-244L-1530,-251L-1529,-257L-1538,-253L-1534,-244L-1539,-237L-1539,-237L-1539,-315ZM1220,-237L1219,-236L1210,-229L1200,-230L1207,-220L1211,-206L1215,-202L1216,-195L1214,-190L1199,-194L1178,-182L1171,-180L1159,-168L1148,-159L1145,-152L1134,-163L1115,-150L1111,-156L1104,-150L1093,-152L1091,-142L1082,-127L1082,-122L1091,-118L1090,-98L1083,-97L1079,-86L1083,-80L1069,-74L1066,-59L1055,-56L1053,-43L1042,-31L1039,-40L1036,-58L1031,-87L1035,-106L1041,-115L1042,-122L1054,-125L1067,-143L1081,-159L1094,-171L1101,-194L1091,-193L1087,-180L1067,-162L1061,-182L1041,-176L1022,-150L1028,-141L1011,-137L999,-135L1000,-146L988,-148L979,-141L955,-144L930,-139L905,-111L876,-79L888,-77L892,-69L899,-66L904,-72L912,-72L923,-57L924,-47L918,-34L917,-20L914,-1L902,15L899,23L889,36L879,48L874,55L864,61L859,61L854,56L844,63L842,67L842,67L841,65L841,60L845,60L846,47L844,38L851,34L860,36L865,25L868,13L871,9L875,-1L862,2L856,7L844,7L841,-4L832,-13L818,-16L816,-28L813,-36L810,-41L805,-54L799,-58L787,-62L777,-62L767,-59L761,-53L765,-50L765,-43L761,-39L754,-26L754,-21L744,-13L734,-18L725,-17L721,-21L717,-22L705,-14L695,-12L688,-9L679,-11L671,-11L667,-17L659,-23L652,-24L642,-23L635,-20L624,-25L622,-34L613,-38L606,-39L598,-44L590,-31L593,-24L586,-16L574,-19L567,-19L562,-25L554,-25L547,-29L535,-23L521,-13L513,-11L510,-10L506,-17L496,-16L493,-21L487,-23L483,-30L479,-32L468,-29L458,-36L454,-30L436,-61L427,-71L430,-76L410,-63L403,-62L404,-70L394,-74L386,-71L383,-85L370,-87L363,-82L344,-77L340,-74L311,-69L308,-65L313,-56L306,-53L307,-49L300,-43L312,-35L310,-29L300,-29L297,-26L288,-32L275,-32L267,-27L258,-32L241,-40L229,-40L214,-27L213,-18L205,-25L199,-12L201,-9L196,-0L203,7L209,7L213,15L213,20L217,22L213,29L206,31L198,42L205,52L204,59L213,71L208,75L207,78L203,77L198,71L196,71L191,68L189,64L182,62L177,63L176,62L165,57L154,55L147,53L147,54L137,45L128,41L121,35L127,33L133,24L129,20L140,15L140,12L133,14L133,9L137,6L145,5L146,1L144,-5L147,-11L147,-15L136,-18L132,-18L127,-24L121,-22L111,-26L111,-29L109,-34L103,-34L102,-38L104,-41L99,-48L91,-47L89,-47L87,-44L84,-45L82,-53L80,-57L82,-58L88,-58L91,-61L89,-64L84,-66L84,-69L81,-71L76,-80L78,-83L77,-90L69,-93L65,-91L64,-95L56,-98L54,-106L53,-113L49,-116L53,-121L50,-135L56,-143L55,-146L63,-154L55,-161L72,-182L79,-191L82,-200L71,-211L74,-223L67,-236L72,-252L63,-274L70,-288L58,-302L59,-317L66,-319L79,-328L87,-335L99,-322L120,-317L149,-293L155,-284L155,-271L147,-260L134,-255L100,-270L95,-267L107,-254L108,-245L108,-226L118,-221L124,-216L125,-225L120,-233L125,-240L144,-228L150,-233L145,-246L163,-264L170,-263L177,-257L182,-270L175,-282L179,-294L173,-306L195,-300L199,-288L189,-286L189,-275L195,-268L207,-272L209,-285L225,-295L252,-312L258,-311L250,-299L260,-297L265,-304L280,-304L291,-313L300,-300L308,-314L300,-327L304,-334L327,-327L338,-321L365,-297L370,-307L363,-319L362,-323L353,-325L356,-336L352,-354L351,-361L366,-383L371,-406L376,-411L397,-404L398,-390L391,-370L396,-362L398,-346L396,-316L405,-303L402,-289L387,-261L395,-259L398,-266L407,-270L409,-280L415,-290L411,-301L415,-315L406,-317L404,-329L410,-352L400,-371L414,-388L412,-406L416,-406L420,-392L417,-368L425,-364L422,-381L435,-391L451,-393L465,-378L458,-399L457,-427L471,-433L489,-432L506,-435L499,-450L508,-469L517,-470L532,-485L552,-489L555,-498L575,-501L581,-494L598,-511L612,-510L615,-524L622,-539L640,-554L653,-542L643,-533L660,-528L662,-512L669,-520L691,-519L709,-503L715,-491L713,-475L704,-467L684,-450L679,-442L688,-438L699,-431L706,-436L710,-419L714,-426L726,-430L750,-426L752,-413L784,-409L785,-430L801,-425L813,-425L826,-411L829,-394L825,-384L834,-365L846,-355L854,-380L866,-370L879,-376L894,-369L900,-375L912,-372L907,-395L917,-406L952,-399L986,-390L992,-375L1012,-357L1043,-361L1059,-357L1065,-348L1064,-331L1074,-325L1084,-329L1097,-330L1112,-326L1126,-328L1140,-309L1149,-316L1143,-330L1146,-340L1171,-333L1187,-335L1209,-324L1220,-315L1220,-237ZM1220,-356L1211,-355L1210,-363L1220,-373L1220,-356ZM-1539,-373L-1539,-373L-1539,-373L-1538,-374L-1531,-374L-1520,-367L-1521,-363L-1529,-358L-1539,-356L-1539,-356L-1539,-373ZM97,27L99,24L104,27L106,27L107,29L109,29L109,30L112,33L120,32L119,36L110,38L100,44L96,42L97,37L89,34L90,32L98,28Z" fill="#E0E0E0" stroke="#fff" stroke-width=".4"/><path d="M-44,-631L-41,-646L-29,-647L-20,-632L5,-601L-14,-586L-18,-558L-25,-551L-28,-523L-38,-521L-54,-542L-47,-555L-59,-565L-74,-598L-80,-630L-59,-646L-55,-630ZM79,-328L66,-319L59,-317L63,-332L53,-341L41,-334L37,-318L30,-308L22,-313L12,-312L3,-324L-1,-318L-6,-317L-7,-303L-22,-306L-24,-295L-31,-295L-36,-281L-44,-259L-56,-233L-53,-227L-56,-220L-63,-220L-68,-204L-68,-182L-63,-174L-65,-156L-72,-145L-75,-136L-80,-146L-95,-128L-106,-125L-116,-133L-119,-149L-121,-185L-114,-195L-94,-210L-79,-228L-65,-253L-47,-291L-34,-306L-13,-333L4,-343L17,-342L28,-361L42,-360L56,-365L80,-348L70,-342ZM50,-648L39,-624L17,-619L-6,-626L-7,-638L-18,-639L-27,-659L-3,-672L8,-661L16,-675L35,-663ZM30,-559L13,-545L-1,-553L4,-562L-0,-574L16,-582L19,-568Z" fill="#E0E0E0" stroke="#fff" stroke-width=".4"/><path d="M798,493L799,491L805,489L811,489L813,488L816,489L813,491L805,494L799,497L799,494Z" fill="#E0E0E0" stroke="#fff" stroke-width=".4"/><path d="M-555,393L-560,400L-562,405L-565,408L-569,409L-570,407L-572,406L-574,408L-577,407L-575,403L-575,400L-573,397L-576,392L-577,387L-573,380L-570,381L-565,383L-557,389ZM-112,-13L-109,-10L-98,-8L-101,0L-102,8L-105,10L-108,9L-108,12L-113,19L-113,24L-110,22L-107,27L-108,30L-105,34L-108,37L-106,46L-102,47L-103,52L-110,57L-125,55L-136,58L-137,64L-146,66L-154,61L-157,63L-171,58L-174,54L-170,48L-169,26L-177,15L-182,9L-194,5L-195,-4L-185,-6L-172,-3L-174,-17L-167,-12L-149,-21L-147,-31L-140,-33L-139,-29L-136,-29L-132,-24L-127,-18L-123,-19L-116,-14L-114,-13ZM-93,63L-88,59L-86,68L-89,76L-92,73L-94,67Z" fill="#E0E0E0" stroke="#fff" stroke-width=".4"/><path d="M-248,328L-247,326L-248,323L-251,321L-253,316L-253,311L-250,310L-249,305L-247,305L-241,307L-237,306L-234,306L-233,304L-202,304L-200,299L-202,298L-205,263L-209,227L-197,227L-172,245L-146,263L-144,267L-139,269L-136,270L-135,276L-127,275L-127,293L-131,299L-132,304L-139,305L-149,306L-152,308L-157,309L-162,309L-164,307L-168,308L-175,312L-176,314L-182,318L-183,320L-187,321L-190,320L-192,322L-194,328L-200,334L-199,337L-202,340L-201,345L-204,346L-206,347L-207,343L-209,344L-211,344L-212,346L-218,346L-220,345L-221,346L-224,344L-223,341L-224,340L-226,341L-225,339L-224,337L-227,333L-228,331L-230,329L-231,329L-233,330L-235,331L-238,333L-241,332L-243,330L-244,330L-246,331L-247,331Z" fill="#E0E0E0" stroke="#fff" stroke-width=".4"/><path d="M-290,260L-289,257L-259,257L-260,245L-258,241L-251,240L-251,219L-226,219L-226,206L-197,227L-209,227L-205,263L-202,298L-200,299L-202,304L-233,304L-234,306L-237,306L-241,307L-247,305L-249,305L-250,310L-253,311L-258,306L-263,300L-268,298L-271,295L-276,296L-279,297L-283,297L-286,299L-286,295L-284,291L-283,283L-284,275L-285,271L-284,267L-286,263Z" fill="#E0E0E0" stroke="#fff" stroke-width=".4"/><path d="M-139,376L-145,377L-147,372L-147,354L-148,353L-149,349L-151,346L-154,344L-153,340L-150,339L-149,335L-145,335L-143,332L-141,330L-138,330L-132,334L-132,337L-131,342L-132,345L-131,347L-135,352L-137,354L-139,359L-139,364Z" fill="#E0E0E0" stroke="#fff" stroke-width=".4"/><path d="M-46,244L-44,257L-41,259L-41,262L-38,265L-39,268L-42,285L-43,295L-53,303L-56,313L-53,316L-53,321L-48,321L-49,325L-51,326L-51,328L-52,328L-58,320L-59,319L-65,324L-71,321L-75,321L-78,322L-82,322L-87,325L-91,325L-100,321L-103,323L-107,323L-110,320L-118,317L-126,318L-128,320L-129,324L-131,327L-132,334L-138,330L-141,330L-143,332L-143,327L-152,325L-152,321L-156,316L-157,313L-157,309L-152,308L-149,306L-139,305L-132,304L-131,299L-127,293L-127,275L-116,271L-94,255L-68,239L-56,243L-51,248Z" fill="#E0E0E0" stroke="#fff" stroke-width=".4"/><path d="M-139,376L-139,364L-139,359L-137,354L-135,352L-131,347L-132,345L-131,342L-132,337L-132,334L-131,327L-129,324L-128,320L-126,318L-118,317L-110,320L-107,323L-103,323L-100,321L-91,325L-87,325L-82,322L-78,322L-75,321L-71,321L-65,324L-59,319L-58,320L-52,328L-51,328L-48,331L-49,333L-49,335L-56,341L-58,346L-59,350L-60,352L-62,357L-66,361L-67,364L-69,368L-70,371L-75,373L-79,370L-82,370L-87,375L-89,375L-93,382L-94,388L-102,391L-105,390L-108,392L-114,392L-119,387L-121,381L-126,376L-132,376Z" fill="#E0E0E0" stroke="#fff" stroke-width=".4"/><path d="M-49,325L-46,330L-45,335L-45,340L-41,348L-45,347L-48,348L-51,347L-53,351L-48,355L-45,357L-44,360L-41,365L-43,367L-46,375L-48,377L-49,383L-48,386L-49,388L-45,392L-44,395L-42,399L-38,401L-38,405L-37,407L-38,411L-44,409L-50,407L-59,407L-60,407L-65,408L-70,407L-73,407L-86,407L-85,401L-88,396L-91,395L-93,391L-95,390L-94,388L-93,382L-89,375L-87,375L-82,370L-79,370L-75,373L-70,371L-69,368L-67,364L-66,361L-62,357L-60,352L-59,350L-58,346L-56,341L-49,335L-49,333L-48,331L-51,328L-51,326Z" fill="#E0E0E0" stroke="#fff" stroke-width=".4"/><path d="M-153,340L-154,344L-151,346L-149,349L-148,353L-147,354L-147,372L-145,377L-152,379L-153,376L-155,371L-156,367L-154,361L-156,358L-157,352L-157,346L-160,342L-159,339Z" fill="#E0E0E0" stroke="#fff" stroke-width=".4"/><path d="M-159,339L-160,342L-157,346L-157,352L-156,358L-154,361L-156,367L-155,371L-153,376L-152,379L-164,383L-168,386L-175,388L-182,386L-181,383L-184,376L-182,368L-179,361L-181,350L-182,344L-182,340L-169,340L-165,340L-163,339Z" fill="#E0E0E0" stroke="#fff" stroke-width=".4"/><path d="M-221,346L-220,345L-218,346L-212,346L-211,344L-209,344L-207,343L-206,347L-204,346L-201,345L-198,346L-196,349L-193,350L-190,348L-187,348L-181,350L-179,361L-182,368L-184,376L-181,383L-182,386L-185,386L-190,385L-195,385L-204,386L-210,388L-217,391L-219,391L-218,385L-217,384L-218,381L-221,377L-223,377L-226,375L-224,371L-225,368L-224,365L-223,365L-223,362L-223,360L-222,359L-220,358L-222,352L-223,349L-223,346Z" fill="#E0E0E0" stroke="#fff" stroke-width=".4"/><path d="M-201,345L-202,340L-199,337L-200,334L-194,328L-192,322L-190,320L-187,321L-183,320L-182,318L-176,314L-175,312L-168,308L-164,307L-162,309L-157,309L-157,313L-156,316L-152,321L-152,325L-143,327L-143,332L-145,335L-149,335L-150,339L-153,340L-159,339L-163,339L-165,340L-169,340L-182,340L-182,344L-181,350L-187,348L-190,348L-193,350L-196,349L-198,346Z" fill="#E0E0E0" stroke="#fff" stroke-width=".4"/><path d="M50,384L48,385L43,385L37,384L34,385L33,387L30,387L27,385L19,389L15,388L14,389L12,394L6,392L1,391L-4,388L-10,386L-15,388L-18,392L-18,398L-23,397L-28,396L-33,400L-37,407L-38,405L-38,401L-42,399L-44,395L-45,392L-49,388L-48,386L-49,383L-48,377L-46,375L-43,367L-36,367L-35,365L-34,365L-32,367L-22,364L-19,361L-15,358L-15,355L-13,355L-6,355L1,352L7,343L11,340L16,339L16,342L21,347L21,350L20,353L20,356L23,358L29,361L33,364L33,367L38,371L41,374L43,379L49,382Z" fill="#E0E0E0" stroke="#fff" stroke-width=".4"/><path d="M-18,398L-19,402L-21,406L-23,411L-23,418L-23,422L-24,425L-24,428L-25,430L-30,434L-34,438L-37,445L-37,452L-39,454L-43,458L-48,463L-51,461L-51,459L-55,459L-58,462L-60,461L-63,458L-65,460L-68,463L-75,455L-69,451L-72,446L-69,444L-64,443L-63,439L-59,443L-52,443L-50,440L-49,435L-50,429L-54,424L-50,415L-52,414L-58,414L-60,410L-59,407L-50,407L-44,409L-38,411L-37,407L-33,400L-28,396L-23,397Z" fill="#E0E0E0" stroke="#fff" stroke-width=".4"/><path d="M-73,407L-70,407L-65,408L-60,407L-59,407L-60,410L-58,414L-52,414L-50,415L-54,424L-50,429L-49,435L-50,440L-52,443L-59,443L-63,439L-64,443L-69,444L-72,446L-69,451L-75,455L-82,447L-88,441L-92,433L-92,430L-90,428L-88,422L-87,417L-84,416L-73,416Z" fill="#E0E0E0" stroke="#fff" stroke-width=".4"/><path d="M-86,407L-73,407L-73,416L-84,416L-87,417L-88,416Z" fill="#E0E0E0" stroke="#fff" stroke-width=".4"/><path d="M76,489L79,491L82,492L87,493L91,495L95,499L97,506L96,508L94,514L96,520L93,523L91,531L95,533L72,539L72,545L67,546L62,549L61,552L58,552L52,559L48,564L45,564L43,563L34,563L33,562L33,561L29,559L25,559L18,561L13,556L8,549L8,524L24,524L24,522L25,519L24,515L24,511L24,509L26,509L27,511L30,511L35,512L38,515L44,516L48,514L50,518L56,519L59,523L62,527L68,527L67,518L65,520L60,517L58,515L59,508L60,498L58,495L61,490L63,489L73,488Z" fill="#E0E0E0" stroke="#fff" stroke-width=".4"/><path d="M91,495L99,497L100,499L103,503L105,513L103,519L105,529L108,529L111,532L114,538L114,548L111,550L109,555L104,550L103,544L105,541L104,538L101,536L99,536L95,533L91,531L93,523L96,520L94,514L96,508L97,506L95,499Z" fill="#E0E0E0" stroke="#fff" stroke-width=".4"/><path d="M-60,461L-63,463L-64,465L-64,468L-66,469L-68,463L-65,460L-63,458ZM-65,471L-62,470L-60,470L-57,469L-35,470L-33,475L-30,480L-29,482L-26,486L-21,486L-18,485L-14,486L-13,484L-11,479L-6,479L-6,478L-2,478L-2,481L7,480L7,485L9,488L7,493L8,498L11,501L10,510L12,509L15,509L20,508L24,509L24,511L24,515L25,519L24,522L24,524L8,524L8,549L13,556L18,561L4,564L-14,563L-20,559L-51,559L-52,560L-56,556L-61,556L-66,558L-70,559L-70,554L-69,547L-67,540L-66,536L-64,529L-62,526L-58,521L-55,517L-54,512L-55,507L-57,504L-59,500L-61,495L-61,493L-58,490L-61,483L-62,478L-66,473Z" fill="#E0E0E0" stroke="#fff" stroke-width=".4"/><path d="M74,443L74,446L76,448L76,450L74,452L71,456L68,459L65,459L65,450L63,446L67,447L70,442Z" fill="#E0E0E0" stroke="#fff" stroke-width=".4"/><path d="M114,159L113,162L110,161L108,167L110,168L108,169L108,171L112,170L112,174L108,188L107,185L103,172L105,169L105,169L107,165L108,158L109,156L110,156L112,156L113,154L115,154L115,158L114,159Z" fill="#E0E0E0" stroke="#fff" stroke-width=".4"/><path d="M115,154L113,154L112,156L110,156L112,148L116,141L116,141L120,142L121,145L117,149Z" fill="#E0E0E0" stroke="#fff" stroke-width=".4"/><path d="M112,170L108,171L108,169L110,168L108,167L110,161L113,162L113,167Z" fill="#E0E0E0" stroke="#fff" stroke-width=".4"/><path d="M-87,181L-90,164L-95,161L-95,159L-101,153L-102,146L-97,141L-95,133L-97,124L-95,119L-87,116L-81,117L-82,122L-75,118L-75,120L-78,125L-78,129L-76,131L-77,139L-82,144L-80,149L-76,149L-75,154L-72,155L-72,162L-76,165L-78,168L-83,171L-83,175L-83,179Z" fill="#E0E0E0" stroke="#fff" stroke-width=".4"/><path d="M-226,206L-226,204L-226,204L-226,193L-214,187L-206,186L-200,183L-197,179L-188,175L-188,169L-183,168L-180,165L-170,163L-168,160L-170,158L-173,148L-173,142L-176,136L-169,131L-161,129L-156,126L-148,123L-135,121L-123,120L-119,122L-112,118L-103,118L-100,120L-95,119L-97,124L-95,133L-97,141L-102,146L-101,153L-95,159L-95,161L-90,164L-87,181L-85,188L-84,192L-85,200L-85,204L-86,208L-85,214L-88,217L-84,223L-83,227L-81,232L-77,230L-71,234L-68,239L-94,255L-116,271L-127,275L-135,276L-136,270L-139,269L-144,267L-146,263L-172,245L-197,227Z" fill="#E0E0E0" stroke="#fff" stroke-width=".4"/><path d="M113,162L114,159L123,163L138,153L141,164L139,165L124,170L132,179L129,180L128,183L122,184L120,188L117,190L108,189L108,188L112,174L112,170L113,167Z" fill="#E0E0E0" stroke="#fff" stroke-width=".4"/><path d="M236,233L237,232L237,235L243,233L250,234L254,234L259,228L265,223L270,218L271,220L272,227L269,227L268,233L269,234L266,235L266,239L264,242L263,246L262,247L239,243L236,235Z" fill="#E0E0E0" stroke="#fff" stroke-width=".4"/><path d="M230,229L229,222L231,218L233,217L236,220L236,225L234,230L232,230Z" fill="#E0E0E0" stroke="#fff" stroke-width=".4"/><path d="M208,184L210,187L209,189L211,196L206,196L204,192L197,191L203,183Z" fill="#E0E0E0" stroke="#fff" stroke-width=".4"/><path d="M141,164L138,153L155,143L157,132L157,125L161,123L165,117L168,115L177,116L180,119L183,117L188,129L193,131L194,137L190,140L188,147L194,156L203,161L207,168L206,175L208,175L208,179L212,184L208,184L203,183L197,191L183,191L161,173L150,166Z" fill="#E0E0E0" stroke="#fff" stroke-width=".4"/><path d="M263,246L264,242L266,239L266,235L269,234L268,233L269,227L272,227L276,233L280,236L286,237L290,239L294,243L296,246L299,247L299,249L296,254L295,256L291,259L289,264L285,264L283,266L282,270L283,276L282,277L279,277L274,280L273,283L272,285L267,285L264,287L264,290L260,293L256,292L251,295L247,295L245,289L239,276L262,268L267,252ZM271,220L270,218L272,215L273,215L272,219Z" fill="#E0E0E0" stroke="#fff" stroke-width=".4"/><path d="M626,330L625,321L629,314L639,313L647,314L653,317L656,312L663,314L665,320L664,329L651,335L654,340L646,341L640,344L633,342L630,338Z" fill="#E0E0E0" stroke="#fff" stroke-width=".4"/><path d="M647,314L639,313L629,314L625,321L626,330L620,327L613,327L614,321L607,321L607,329L603,341L600,348L601,353L606,354L609,361L610,367L614,372L619,373L623,377L620,380L615,381L615,377L609,373L607,375L604,372L603,368L599,364L595,360L594,365L592,360L593,355L595,348L599,340L603,333L600,326L601,322L600,317L595,311L593,307L595,306L598,299L595,294L590,288L586,281L590,279L593,270L599,270L603,266L607,265L611,267L611,272L616,272L615,281L615,288L623,283L625,285L630,285L631,282L637,282L643,289L643,297L649,304L649,310Z" fill="#E0E0E0" stroke="#fff" stroke-width=".4"/><path d="M663,314L656,312L653,317L647,314L649,310L649,304L643,297L643,289L637,282L631,282L630,285L625,285L623,283L615,288L615,281L616,272L611,272L611,267L607,265L609,262L616,256L616,258L620,258L619,249L623,248L628,254L631,262L641,262L644,269L639,271L636,274L646,279L652,288L657,295L663,301L665,307Z" fill="#E0E0E0" stroke="#fff" stroke-width=".4"/><path d="M607,265L603,266L599,270L593,270L590,279L586,281L590,288L595,294L598,299L595,306L593,307L595,311L600,317L601,322L600,326L603,333L599,340L595,348L595,342L597,336L595,332L595,323L592,319L590,309L588,299L585,293L580,297L571,302L567,302L562,300L565,290L563,282L557,273L558,270L554,269L548,263L548,256L550,257L550,251L554,249L553,246L555,243L555,234L561,236L565,229L565,225L569,218L569,213L579,207L585,209L584,203L587,202L586,199L591,198L593,203L596,205L597,212L596,219L589,226L588,236L596,234L598,242L603,244L601,251L606,254L610,255L615,253L616,256L609,262Z" fill="#E0E0E0" stroke="#fff" stroke-width=".4"/><path d="M640,344L646,341L654,340L651,335L664,329L665,320L663,314L665,307L663,301L657,295L652,288L646,279L636,274L639,271L644,269L641,262L631,262L628,254L623,248L627,246L633,246L641,245L647,240L651,243L658,245L657,250L661,253L668,255L658,262L652,270L650,276L656,284L663,295L670,300L675,306L678,321L677,334L671,340L662,345L656,351L646,358L643,353L645,348Z" fill="#E0E0E0" stroke="#fff" stroke-width=".4"/><path d="M842,67L842,67L842,67ZM841,65L842,67L839,66L836,70L834,73L834,81L830,83L829,85L826,88L821,89L818,92L817,96L816,97L819,99L824,103L823,106L819,106L814,107L811,111L808,111L807,112L803,110L802,112L800,112L800,111L798,110L796,108L798,104L800,103L799,101L801,96L801,94L796,93L792,90L799,84L807,78L812,71L816,74L823,75L821,69L833,65L836,59Z" fill="#E0E0E0" stroke="#fff" stroke-width=".4"/><path d="M807,112L808,111L811,111L814,107L819,106L823,106L824,103L830,115L832,121L832,132L829,137L823,139L816,143L809,144L809,138L810,131L807,122L812,120Z" fill="#E0E0E0" stroke="#fff" stroke-width=".4"/><path d="M513,-11L521,-13L535,-23L547,-29L554,-25L562,-25L567,-19L574,-19L586,-16L593,-24L590,-31L598,-44L606,-39L613,-38L622,-34L624,-25L635,-20L642,-23L652,-24L659,-23L667,-17L671,-11L679,-11L688,-9L695,-12L705,-14L717,-22L721,-21L725,-17L734,-18L731,-9L725,3L727,7L732,6L739,8L745,3L751,7L758,15L757,19L751,18L740,19L735,22L729,30L717,34L710,40L702,37L698,36L694,43L696,47L697,51L692,55L686,60L677,64L666,64L654,68L645,73L641,70L632,70L621,64L613,62L603,64L587,61L579,62L574,55L571,46L566,44L557,38L546,36L537,34L534,30L537,17L532,8L521,3L515,-3Z" fill="#E0E0E0" stroke="#fff" stroke-width=".4"/><path d="M586,199L587,202L584,203L585,209L579,207L569,213L569,218L565,225L565,229L561,236L555,234L555,243L553,246L554,249L550,251L546,238L544,238L543,243L539,239L541,234L545,234L548,227L544,225L537,225L529,224L529,218L525,218L519,214L516,220L522,224L517,228L515,231L520,233L519,238L521,244L523,251L521,254L516,254L507,256L507,262L503,267L492,272L484,282L478,287L470,292L470,296L466,298L459,301L456,301L454,307L455,317L456,324L452,331L452,345L448,345L445,351L447,354L440,356L438,361L434,363L427,356L424,345L421,337L418,334L414,326L412,316L411,311L404,300L401,285L398,274L398,265L397,257L386,262L380,261L370,251L374,248L372,245L363,238L368,232L385,232L383,225L379,220L378,214L373,210L381,201L390,202L398,192L403,184L411,175L410,168L417,163L411,158L408,152L405,144L409,140L421,142L429,141L437,133L445,144L444,152L447,156L447,161L442,160L444,170L451,175L462,182L457,186L454,194L461,197L469,201L479,206L489,207L494,212L499,213L509,215L515,214L516,211L515,206L516,202L520,200L521,207L521,209L528,212L533,211L539,211L546,211L546,206L543,203L549,202L556,195L565,190L571,192L577,188L580,194L578,197Z" fill="#E0E0E0" stroke="#fff" stroke-width=".4"/><path d="M550,251L550,257L548,256L548,263L546,258L545,254L544,250L541,245L534,245L534,248L532,253L529,251L528,253L526,252L523,251L521,244L519,238L520,233L515,231L517,228L522,224L516,220L519,214L525,218L529,218L529,224L537,225L544,225L548,227L545,234L541,234L539,239L543,243L544,238L546,238Z" fill="#E0E0E0" stroke="#fff" stroke-width=".4"/><path d="M543,203L546,206L546,211L539,211L533,211L528,212L521,209L521,207L526,200L530,198L536,200L540,200Z" fill="#E0E0E0" stroke="#fff" stroke-width=".4"/><path d="M516,202L515,206L516,211L515,214L509,215L499,213L494,212L489,207L479,206L469,201L461,197L454,194L457,186L462,182L465,180L471,182L479,188L483,189L486,193L492,195L498,199L507,201Z" fill="#E0E0E0" stroke="#fff" stroke-width=".4"/><path d="M350,115L354,115L360,118L362,119L368,116L371,117L373,113L378,113L379,112L380,108L383,105L387,107L386,110L389,110L388,118L391,121L394,119L397,118L402,114L407,115L415,115L416,118L412,119L408,120L399,122L391,124L386,128L388,132L389,136L385,140L386,144L383,147L376,147L379,153L374,155L371,161L371,166L368,169L366,168L360,169L359,172L353,172L349,177L349,184L339,188L333,187L332,189L327,188L320,189L307,185L314,177L313,171L307,169L307,164L304,156L307,151L304,150L306,143L309,132L317,135L323,134L325,130L331,128L335,125L336,118L343,116L344,113L348,115Z" fill="#E0E0E0" stroke="#fff" stroke-width=".4"/><path d="M360,118L364,108L363,100L357,98L359,94L365,94L369,89L372,82L382,80L380,85L381,87L384,87L382,90L373,88L373,94L381,93L390,97L405,95L407,104L409,103L414,106L414,109L415,115L407,115L402,114L397,118L394,119L391,121L388,118L389,110L386,110L387,107L383,105L380,108L379,112L378,113L373,113L371,117L368,116L362,119Z" fill="#E0E0E0" stroke="#fff" stroke-width=".4"/><path d="M384,66L386,62L391,60L403,64L405,58L409,56L420,60L423,59L435,59L447,60L451,64L455,66L454,68L442,74L439,78L430,79L427,85L419,84L413,86L406,91L407,93L405,95L390,97L381,93L373,94L373,88L382,90L384,87L390,88L400,81L391,75L386,78L380,74L386,67Z" fill="#E0E0E0" stroke="#fff" stroke-width=".4"/><path d="M243,71L246,68L255,66L260,69L265,77L269,76L278,76L277,71L283,67L290,61L300,67L301,75L304,77L312,77L315,79L318,89L327,96L332,101L340,105L350,109L350,115L348,115L344,113L343,116L336,118L335,125L331,128L325,130L323,134L317,135L309,132L309,124L303,123L294,115L288,114L280,109L274,108L271,110L266,110L260,115L254,117L252,110L253,100L247,97L249,90L244,89L246,81L253,83L260,80L254,74L252,68L246,71L245,78Z" fill="#E0E0E0" stroke="#fff" stroke-width=".4"/><path d="M212,184L208,179L208,175L206,175L207,168L203,161L194,156L188,147L190,140L194,137L193,131L188,129L183,117L179,110L181,107L178,95L184,92L185,96L189,101L194,102L197,102L206,94L209,94L211,97L208,101L213,107L215,106L217,113L225,115L230,120L241,122L253,119L254,117L260,115L266,110L271,110L274,108L280,109L288,114L294,115L303,123L309,124L309,132L306,143L304,150L307,151L304,156L307,164L307,169L313,171L314,177L307,185L311,189L314,195L321,199L321,206L325,208L325,212L314,216L312,226L297,223L289,221L280,220L277,210L273,208L267,210L260,214L250,211L242,204L235,202L230,194L224,182L220,183L215,180Z" fill="#E0E0E0" stroke="#fff" stroke-width=".4"/><path d="M114,159L114,159L115,158L115,154L117,149L121,145L120,142L116,141L115,134L117,130L119,128L121,126L122,121L124,123L133,120L137,122L143,122L152,118L156,118L165,117L161,123L157,125L157,132L155,143L138,153L123,163Z" fill="#E0E0E0" stroke="#fff" stroke-width=".4"/><path d="M197,102L194,102L191,96L191,95L187,95L185,92L184,92L181,89L175,87L176,82L174,79L185,77L187,80L189,81L188,84L192,87L190,91L193,93L197,95Z" fill="#E0E0E0" stroke="#fff" stroke-width=".4"/><path d="M-75,-136L-72,-145L-65,-156L-63,-174L-68,-182L-68,-204L-63,-220L-56,-220L-53,-227L-56,-233L-44,-259L-36,-281L-31,-295L-24,-295L-22,-306L-7,-303L-6,-317L-1,-318L9,-307L21,-293L21,-263L24,-256L10,-250L3,-237L4,-226L-8,-212L-23,-198L-28,-175L-23,-164L-16,-155L-23,-138L-31,-134L-34,-110L-38,-97L-47,-99L-52,-88L-60,-87L-63,-100L-69,-116Z" fill="#E0E0E0" stroke="#fff" stroke-width=".4"/><path d="M56,-98L64,-95L65,-91L69,-93L77,-90L78,-83L76,-80L81,-71L84,-69L84,-66L89,-64L91,-61L88,-58L82,-58L80,-57L82,-53L84,-45L77,-44L75,-41L74,-35L71,-36L65,-36L63,-39L60,-37L57,-38L51,-39L42,-42L34,-43L29,-42L24,-39L21,-38L20,-44L18,-50L23,-52L23,-57L21,-62L20,-68L28,-68L36,-73L38,-80L44,-85L43,-91L48,-93Z" fill="#E0E0E0" stroke="#fff" stroke-width=".4"/><path d="M84,-45L87,-44L89,-47L91,-47L99,-48L104,-41L102,-38L103,-34L109,-34L111,-29L111,-26L121,-22L127,-24L132,-18L136,-18L147,-15L147,-11L144,-5L146,1L145,5L137,6L133,9L133,14L127,15L122,19L115,19L108,24L109,29L107,29L106,27L104,27L99,24L97,27L96,26L84,23L83,19L76,20L73,26L67,34L64,32L60,34L57,32L59,31L60,27L62,24L62,22L63,21L64,22L68,23L70,22L69,21L70,19L67,16L66,12L63,10L64,6L60,3L57,2L51,-1L46,-0L44,2L41,2L39,4L34,5L31,7L27,4L22,4L18,3L14,5L14,2L10,-1L11,-5L13,-8L15,-8L13,-13L20,-23L24,-24L24,-28L21,-38L24,-39L29,-42L34,-43L42,-42L51,-39L57,-38L60,-37L63,-39L65,-36L71,-36L74,-35L75,-41L77,-44Z" fill="#E0E0E0" stroke="#fff" stroke-width=".4"/><path d="M20,-68L21,-62L23,-57L23,-52L18,-50L20,-44L21,-38L24,-28L24,-24L20,-23L13,-13L15,-8L13,-8L6,-13L0,-11L-3,-13L-8,-10L-12,-14L-15,-13L-15,-13L-19,-19L-24,-20L-25,-24L-30,-25L-32,-22L-36,-24L-35,-28L-41,-29L-45,-33L-48,-40L-47,-45L-49,-51L-52,-56L-50,-59L-51,-66L-46,-70L-34,-76L-25,-80L-17,-78L-16,-75L-9,-75L0,-73L15,-73L18,-72Z" fill="#E0E0E0" stroke="#fff" stroke-width=".4"/><path d="M-30,3L-30,7L-34,7L-33,10L-35,17L-37,19L-44,19L-48,22L-54,21L-65,18L-67,14L-74,16L-75,18L-80,17L-84,16L-87,14L-86,12L-86,10L-84,9L-80,12L-79,9L-72,10L-67,7L-63,8L-61,10L-60,8L-61,1L-58,-1L-55,-6L-50,-2L-45,-7L-43,-8L-37,-4L-33,-5L-30,-3L-30,-1Z" fill="#E0E0E0" stroke="#fff" stroke-width=".4"/><path d="M10,-1L14,2L14,5L10,8L6,16L1,23L-5,25L-9,25L-15,28L-18,29L-25,27L-30,22L-33,21L-34,17L-35,17L-33,10L-34,7L-30,7L-30,3L-26,6L-23,7L-16,5L-16,3L-13,3L-9,1L-8,2L-5,0L-3,-2L-0,-3L8,0Z" fill="#E0E0E0" stroke="#fff" stroke-width=".4"/><path d="M44,2L46,-0L51,-1L57,2L60,3L64,6L63,10L66,12L67,16L70,19L69,21L70,22L68,23L64,22L63,21L62,22L62,24L60,27L59,31L57,32L55,27L56,22L56,18L51,11L49,6L47,3Z" fill="#E0E0E0" stroke="#fff" stroke-width=".4"/><path d="M57,32L60,34L64,32L67,34L67,37L64,39L61,38L59,51L55,50L49,46L40,49L36,52L25,51L19,49L16,50L14,46L13,44L14,42L12,41L10,43L6,40L5,36L0,33L-1,29L-5,25L1,23L6,16L10,8L14,5L18,3L22,4L27,4L31,7L34,5L39,4L41,2L44,2L47,3L49,6L51,11L56,18L56,22L55,27Z" fill="#E0E0E0" stroke="#fff" stroke-width=".4"/><path d="M43,-91L44,-85L38,-80L36,-73L28,-68L20,-68L18,-72L15,-73L14,-77L15,-80L11,-82L3,-85L2,-96L10,-100L23,-100L31,-101L32,-98L36,-97Z" fill="#E0E0E0" stroke="#fff" stroke-width=".4"/><path d="M49,-116L53,-113L54,-106L56,-98L48,-93L43,-91L36,-97L32,-98L31,-101L23,-100L10,-100L2,-96L2,-107L6,-116L13,-120L19,-110L25,-110L27,-121L33,-124L37,-122L43,-116Z" fill="#E0E0E0" stroke="#fff" stroke-width=".4"/><path d="M55,-146L56,-143L50,-135L53,-121L49,-116L43,-116L37,-122L33,-124L27,-121L28,-130L25,-128L20,-133L19,-141L29,-146L39,-148L47,-145Z" fill="#E0E0E0" stroke="#fff" stroke-width=".4"/><path d="M-51,-66L-50,-59L-52,-56L-49,-51L-47,-45L-48,-40L-45,-33L-48,-31L-50,-33L-52,-30L-57,-28L-60,-25L-66,-22L-65,-19L-64,-14L-60,-11L-55,-6L-58,-1L-61,1L-60,8L-61,10L-63,8L-67,7L-72,10L-79,9L-80,12L-84,9L-86,10L-94,6L-96,9L-102,8L-101,0L-98,-8L-109,-10L-112,-13L-112,-18L-113,-21L-112,-29L-114,-42L-109,-42L-107,-46L-105,-58L-107,-62L-105,-65L-99,-66L-97,-63L-92,-69L-94,-74L-94,-82L-89,-80L-84,-82L-83,-77L-76,-74L-76,-69L-68,-72L-64,-75L-55,-70Z" fill="#E0E0E0" stroke="#fff" stroke-width=".4"/><path d="M14,46L16,50L19,49L25,51L36,52L40,49L49,46L55,50L59,51L55,56L52,63L55,69L48,68L40,71L40,76L33,77L28,73L22,76L16,76L16,69L12,66L13,64L12,63L14,60L16,57L13,52L12,48Z" fill="#E0E0E0" stroke="#fff" stroke-width=".4"/><path d="M42,135L41,138L30,139L30,137L21,135L22,131L26,134L32,134L38,135L38,136ZM16,76L22,76L28,73L33,77L40,76L40,71L44,74L42,80L40,81L35,81L31,80L22,83L27,88L23,90L19,90L15,85L14,87L15,93L19,98L16,100L21,104L24,107L25,113L17,110L20,115L15,116L18,124L13,125L6,120L4,113L2,106L-1,102L-5,96L-5,93L-2,88L-1,85L1,84L1,81L6,80L9,78L13,78L15,76Z" fill="#E0E0E0" stroke="#fff" stroke-width=".4"/><path d="M183,117L180,119L177,116L168,115L165,117L156,118L152,118L143,122L137,122L133,120L124,123L122,121L121,126L119,128L117,130L115,126L117,122L113,123L106,121L101,126L89,127L83,122L75,122L73,126L68,127L61,122L52,122L48,113L42,107L46,100L41,95L49,85L61,85L64,77L79,79L88,72L97,69L110,69L123,76L134,80L143,78L150,79L159,74L167,73L174,79L176,82L175,87L181,89L184,92L178,95L181,107L179,110ZM40,71L48,68L55,69L56,73L62,76L61,79L52,79L49,83L42,88L40,83L40,81L42,80L44,74Z" fill="#E0E0E0" stroke="#fff" stroke-width=".4"/><path d="M1,81L1,84L-1,85L-2,88L-5,93L-7,93L-7,90L-11,87L-12,82L-11,75L-10,72L-11,70L-12,67L-8,62L-8,64L-6,63L-4,66L-2,67L-2,71L-3,74L-2,79Z" fill="#E0E0E0" stroke="#fff" stroke-width=".4"/><path d="M-33,21L-30,22L-25,27L-18,29L-15,28L-14,32L-11,35L-14,39L-17,37L-23,37L-29,35L-33,35L-35,37L-37,35L-39,39L-35,45L-34,48L-30,52L-27,54L-24,59L-17,62L-18,64L-25,60L-30,57L-37,53L-43,46L-42,45L-45,40L-45,37L-50,35L-53,40L-55,36L-55,32L-55,32L-49,32L-48,31L-45,32L-42,33L-42,30L-40,28L-39,24Z" fill="#E0E0E0" stroke="#fff" stroke-width=".4"/><path d="M-86,10L-86,12L-87,14L-84,16L-80,17L-80,21L-84,23L-89,22L-91,26L-95,27L-96,25L-100,29L-104,29L-107,27L-110,22L-113,24L-113,19L-108,12L-108,9L-105,10L-102,8L-96,9L-94,6Z" fill="#E0E0E0" stroke="#fff" stroke-width=".4"/><path d="M-113,-21L-112,-18L-112,-13L-114,-13L-116,-14L-115,-20Z" fill="#E0E0E0" stroke="#fff" stroke-width=".4"/><path d="M-112,-29L-113,-21L-115,-20L-116,-14L-123,-19L-127,-18L-132,-24L-136,-29L-139,-29L-140,-33L-134,-36L-129,-35L-122,-37L-117,-32Z" fill="#E0E0E0" stroke="#fff" stroke-width=".4"/><path d="M-107,-62L-105,-58L-107,-46L-109,-42L-114,-42L-112,-29L-117,-32L-122,-37L-129,-35L-134,-36L-130,-39L-124,-57L-113,-63Z" fill="#E0E0E0" stroke="#fff" stroke-width=".4"/><path d="M-217,118L-217,115L-215,111L-213,108L-216,106L-214,99L-217,93L-214,92L-213,88L-212,86L-212,78L-209,76L-211,70L-215,70L-216,71L-221,71L-223,66L-226,68L-229,70L-228,63L-232,59L-221,51L-211,53L-201,53L-193,55L-187,54L-174,54L-171,58L-157,63L-154,61L-146,66L-137,64L-136,70L-144,77L-153,79L-154,83L-159,88L-162,96L-159,102L-163,106L-165,113L-171,115L-176,122L-186,122L-193,122L-198,125L-201,129L-205,128L-207,125L-210,119Z" fill="#E0E0E0" stroke="#fff" stroke-width=".4"/><path d="M467,367L466,375L463,377L456,379L452,372L451,361L454,349L460,353L463,359Z" fill="#E0E0E0" stroke="#fff" stroke-width=".4"/><path d="M679,283L673,280L673,273L676,269L685,267L689,267L691,270L688,274L686,279ZM455,66L455,60L460,57L453,38L468,34L472,32L478,12L493,15L497,10L498,-1L504,-2L510,-10L513,-11L515,-3L521,3L532,8L537,17L534,30L537,34L546,36L557,38L566,44L571,46L574,55L579,62L587,61L603,64L613,62L621,64L632,70L641,70L645,73L654,68L666,64L677,64L686,60L692,55L697,51L696,47L694,43L698,36L702,37L710,40L717,34L729,30L735,22L740,19L751,18L757,19L758,15L751,7L745,3L739,8L732,6L727,7L725,3L731,-9L734,-18L744,-13L754,-21L754,-26L761,-39L765,-43L765,-50L761,-53L767,-59L777,-62L787,-62L799,-58L805,-54L810,-41L813,-36L816,-28L818,-16L832,-13L841,-4L844,7L856,7L862,2L875,-1L871,9L868,13L865,25L860,36L851,34L844,38L846,47L845,60L841,60L841,65L836,59L833,65L821,69L823,75L816,74L812,71L807,78L799,84L792,90L782,93L776,98L768,100L772,96L770,92L776,85L772,80L766,84L757,91L752,97L745,97L741,102L745,109L751,110L751,115L758,117L766,111L773,114L778,115L779,120L768,122L765,127L757,132L753,139L762,144L765,153L769,161L774,168L774,175L770,177L771,182L776,185L775,192L773,199L768,200L763,209L757,220L750,230L739,238L728,245L720,246L715,250L712,247L708,251L697,255L689,257L687,265L682,266L680,260L682,257L672,254L668,255L661,253L657,250L658,245L651,243L647,240L641,245L633,246L627,246L623,248L619,249L620,258L616,258L616,256L615,253L610,255L606,254L601,251L603,244L598,242L596,234L588,236L589,226L596,219L597,212L596,205L593,203L591,198L586,199L578,197L580,194L577,188L571,192L565,190L556,195L549,202L543,203L540,200L536,200L530,198L526,200L521,207L520,200L516,202L507,201L498,199L492,195L486,193L483,189L479,188L471,182L465,180L462,182L451,175L444,170L442,160L447,161L447,156L444,152L445,144L437,133L424,129L422,122L416,118L415,115L414,109L414,106L409,103L407,104L405,95L407,93L406,91L413,86L419,84L427,85L430,79L439,78L442,74L454,68Z" fill="#E0E0E0" stroke="#fff" stroke-width=".4"/><path d="M773,232L769,245L766,252L762,245L761,239L765,230L771,224L775,227Z" fill="#E0E0E0" stroke="#fff" stroke-width=".4"/><path d="M-80,17L-75,18L-74,16L-67,14L-65,18L-54,21L-55,26L-53,31L-59,29L-65,33L-65,39L-66,42L-63,47L-56,53L-52,61L-44,70L-38,70L-36,72L-38,74L-31,78L-25,81L-19,86L-18,88L-19,91L-24,87L-30,85L-34,92L-28,95L-29,100L-32,101L-36,109L-39,110L-39,107L-38,102L-36,100L-39,94L-42,89L-45,88L-47,83L-52,82L-55,78L-61,77L-67,72L-74,66L-79,60L-81,49L-85,48L-92,44L-95,46L-99,51L-103,52L-102,47L-106,46L-108,37L-105,34L-108,30L-107,27L-104,29L-100,29L-96,25L-95,27L-91,26L-89,22L-84,23L-80,21ZM-47,108L-41,107L-43,115L-42,118L-44,123L-50,119L-54,118L-64,113L-63,108L-54,109ZM-93,80L-89,77L-84,85L-86,98L-89,97L-92,100L-95,98L-95,86L-97,80Z" fill="#E0E0E0" stroke="#fff" stroke-width=".4"/><path d="M-84,-82L-89,-80L-94,-82L-97,-89L-98,-103L-96,-107L-94,-111L-87,-112L-85,-116L-79,-120L-79,-113L-81,-108L-80,-104L-76,-102L-78,-97L-80,-98L-86,-89ZM-65,-97L-62,-90L-67,-80L-75,-87L-76,-93Z" fill="#E0E0E0" stroke="#fff" stroke-width=".4"/><path d="M-207,-67L-213,-70L-218,-70L-216,-77L-218,-84L-211,-85L-203,-76ZM-183,-61L-183,-61L-182,-69L-187,-77L-187,-77L-197,-79L-199,-83L-196,-89L-198,-93L-202,-86L-203,-100L-207,-107L-204,-121L-198,-133L-192,-132L-183,-133L-191,-118L-183,-119L-175,-119L-177,-108L-184,-95L-176,-95L-175,-93L-168,-77L-163,-75L-158,-60L-156,-55L-147,-53L-148,-45L-152,-41L-149,-35L-155,-28L-166,-29L-179,-25L-182,-28L-187,-22L-194,-23L-200,-19L-204,-21L-193,-34L-186,-37L-186,-37L-198,-39L-200,-43L-192,-47L-196,-54L-195,-63Z" fill="#E0E0E0" stroke="#fff" stroke-width=".4"/><path d="M196,71L198,71L203,77L207,78L208,75L213,71L217,77L221,84L224,84L226,87L220,88L219,95L218,99L215,101L215,106L213,107L208,101L211,97L209,94L206,94L197,102L197,95L193,93L190,91L192,87L188,84L189,81L187,80L185,77L187,75L193,78L197,79L198,78L194,72ZM194,102L189,101L185,96L184,92L185,92L187,95L191,95L191,96Z" fill="#E0E0E0" stroke="#fff" stroke-width=".4"/><path d="M147,54L147,53L154,55L165,57L176,62L177,63L182,62L189,64L191,68L196,71L194,72L198,78L197,79L193,78L187,75L185,77L174,79L167,73L159,74L160,70L158,63L154,59L149,57Z" fill="#E0E0E0" stroke="#fff" stroke-width=".4"/><path d="M766,326L762,320L769,321L772,323L769,330ZM780,348L782,345L782,341L787,340L785,345L791,338L790,345L788,348L785,353L783,355L778,350ZM809,360L809,365L810,369L807,376L804,368L801,372L803,378L801,382L792,377L790,372L792,368L787,364L785,367L781,367L776,371L775,369L778,363L782,360L787,358L789,361L795,359L796,355L802,355L801,349L807,353L808,357ZM748,353L738,360L742,355L747,350L752,344L756,337L757,343L752,347ZM778,282L776,286L779,291L777,298L773,301L771,307L773,313L777,314L781,313L790,318L789,322L792,324L791,328L785,324L782,320L780,323L775,318L768,319L765,317L765,314L767,312L765,310L764,313L760,308L759,305L759,297L762,300L763,287L765,280L770,280L775,282L777,280ZM775,336L774,333L779,335L784,335L784,338L780,342L775,344L775,340ZM802,331L804,339L798,337L798,340L800,345L797,346L796,341L794,340L793,336L797,336L797,333L793,327L800,328Z" fill="#E0E0E0" stroke="#fff" stroke-width=".4"/><path d="M607,375L609,373L615,377L615,381L620,380L623,377L625,377L629,382L632,387L633,392L632,396L633,399L633,403L636,405L639,412L639,415L634,415L626,409L617,403L616,399L612,394L611,388L608,384L609,378ZM744,393L737,391L728,391L725,400L723,403L719,413L712,415L705,413L701,414L697,418L692,417L687,419L682,414L681,409L686,412L692,410L694,404L697,402L706,401L712,395L715,390L719,394L720,391L724,391L725,386L725,383L731,377L735,371L738,371L742,375L742,378L747,381L754,383L753,386L748,386L749,390Z" fill="#E0E0E0" stroke="#fff" stroke-width=".4"/><path d="M725,383L725,386L724,391L720,391L719,394L715,390L718,387Z" fill="#E0E0E0" stroke="#fff" stroke-width=".4"/><path d="M-54,21L-48,22L-44,19L-37,19L-35,17L-34,17L-33,21L-39,24L-40,28L-42,30L-42,33L-45,32L-48,31L-49,32L-55,32L-53,31L-55,26Z" fill="#E0E0E0" stroke="#fff" stroke-width=".4"/><path d="M59,-317L58,-302L70,-288L63,-274L72,-252L67,-236L74,-223L71,-211L82,-200L79,-191L72,-182L55,-161L42,-160L28,-155L16,-151L11,-160L4,-165L5,-181L2,-195L5,-205L12,-216L30,-235L35,-239L34,-247L24,-256L21,-263L21,-293L9,-307L-1,-318L3,-324L12,-312L22,-313L30,-308L37,-318L41,-334L53,-341L63,-332Z" fill="#E0E0E0" stroke="#fff" stroke-width=".4"/><path d="M13,-8L11,-5L10,-1L8,0L-0,-3L-3,-2L-5,0L-8,2L-9,1L-13,3L-16,3L-16,5L-23,7L-26,6L-30,3L-30,-1L-30,-3L-29,-5L-25,-5L-23,-6L-22,-7L-21,-8L-20,-11L-19,-11L-17,-13L-15,-13L-15,-13L-12,-14L-8,-10L-3,-13L0,-11L6,-13Z" fill="#E0E0E0" stroke="#fff" stroke-width=".4"/><path d="M-45,-33L-41,-29L-35,-28L-36,-24L-32,-22L-30,-25L-25,-24L-24,-20L-19,-19L-15,-13L-17,-13L-19,-11L-20,-11L-21,-8L-22,-7L-23,-6L-25,-5L-29,-5L-30,-3L-33,-5L-37,-4L-43,-8L-45,-7L-50,-2L-55,-6L-60,-11L-64,-14L-65,-19L-66,-22L-60,-25L-57,-28L-52,-30L-50,-33L-48,-31Z" fill="#E0E0E0" stroke="#fff" stroke-width=".4"/><path d="M119,313L119,310L122,298L123,293L125,290L131,289L135,284L139,294L141,301L145,305L156,312L160,317L164,321L167,324L170,326L168,328L165,328L162,325L159,320L156,318L154,315L147,312L142,312L140,310L135,312L131,308L128,314Z" fill="#E0E0E0" stroke="#fff" stroke-width=".4"/><path d="M927,98L920,108L921,118L918,125L919,130L915,137L905,141L892,142L881,152L876,149L875,142L862,144L853,148L844,148L852,155L847,170L842,174L838,171L840,163L835,160L832,154L839,151L843,145L851,140L856,134L872,131L880,133L888,116L893,121L904,111L909,107L913,95L912,84L915,77L924,76L928,90ZM948,49L954,44L956,56L944,59L937,69L925,62L921,73L913,74L912,63L915,55L924,55L926,40L928,32L937,43L943,46ZM855,152L859,147L863,148L866,144L872,146L873,149L869,154L865,152L862,154L860,159L855,156Z" fill="#E0E0E0" stroke="#fff" stroke-width=".4"/><path d="M239,276L245,289L247,295L242,297L240,301L240,303L232,307L220,310L213,316L210,317L208,316L203,319L198,321L192,321L190,322L188,324L186,324L185,326L181,326L179,327L174,327L172,322L172,318L171,316L169,310L167,306L168,306L168,302L168,301L168,297L171,295L171,292L173,288L176,290L178,289L187,289L188,290L196,290L199,290L200,293L204,291L210,283L217,279Z" fill="#E0E0E0" stroke="#fff" stroke-width=".4"/><path d="M108,189L117,190L120,188L122,184L128,183L129,180L132,179L124,170L139,165L141,164L150,166L161,173L183,191L197,191L204,192L206,196L211,196L214,204L218,205L219,209L225,212L225,216L224,218L225,221L228,224L229,227L230,229L232,230L234,230L236,233L236,235L239,243L262,247L263,246L267,252L262,268L239,276L217,279L210,283L204,291L200,293L199,290L196,290L188,290L187,289L178,289L176,290L173,288L171,292L171,295L168,297L167,294L165,292L164,288L160,286L156,279L154,272L149,267L145,265L140,257L139,252L140,247L135,238L132,234L128,233L125,228L125,226L123,221L121,220L118,213L113,206L110,200L106,200L107,196L107,192Z" fill="#E0E0E0" stroke="#fff" stroke-width=".4"/><path d="M91,137L92,136L93,134L98,134L105,132L100,136L101,137L100,137L98,138L97,137L97,138L97,137L96,136L95,136L93,137Z" fill="#E0E0E0" stroke="#fff" stroke-width=".4"/><path d="M91,137L93,137L95,136L96,136L97,137L97,138L97,137L98,138L100,137L101,137L101,138L93,142L89,141L88,137Z" fill="#E0E0E0" stroke="#fff" stroke-width=".4"/><path d="M-176,136L-173,142L-173,148L-170,158L-168,160L-170,163L-180,165L-183,168L-188,169L-188,175L-197,179L-200,183L-206,186L-214,187L-226,193L-226,204L-227,204L-227,208L-232,209L-234,211L-238,211L-240,210L-247,210L-249,217L-252,218L-255,228L-266,238L-269,249L-272,253L-273,256L-290,256L-290,256L-290,253L-287,250L-284,246L-285,243L-282,237L-278,232L-275,231L-273,226L-273,221L-270,216L-265,213L-260,204L-260,204L-256,200L-249,200L-243,194L-239,191L-233,184L-235,173L-232,165L-231,160L-226,154L-218,150L-213,146L-207,136L-205,131L-199,131L-195,135L-188,134L-180,136Z" fill="#E0E0E0" stroke="#fff" stroke-width=".4"/><path d="M123,252L92,252L63,252L32,252L32,221L32,190L30,183L32,177L30,174L33,169L43,169L51,172L58,174L62,176L68,173L71,170L78,169L83,171L85,175L87,172L93,174L99,175L103,172L107,185L108,188L106,191L104,198L102,202L100,204L98,201L94,197L89,185L88,185L91,195L96,203L102,217L104,221L107,226L114,236L112,237L113,242L121,250Z" fill="#E0E0E0" stroke="#fff" stroke-width=".4"/><path d="M32,252L32,268L23,268L23,271L-8,256L-38,240L-46,244L-51,248L-56,243L-68,239L-71,234L-77,230L-81,232L-83,227L-84,223L-88,217L-85,214L-86,208L-85,204L-85,200L-84,192L-85,188L-87,181L-83,179L-83,175L-83,171L-78,168L-76,165L-72,162L-72,155L-63,158L-59,157L-53,159L-43,163L-39,171L-32,173L-22,177L-13,181L-10,179L-6,175L-8,168L-5,163L0,159L5,158L16,160L18,164L21,164L24,165L31,166L33,169L30,174L32,177L30,183L32,190L32,221Z" fill="#E0E0E0" stroke="#fff" stroke-width=".4"/><path d="M207,363L185,386L175,386L168,392L163,392L161,394L156,394L153,392L146,395L143,398L138,398L137,397L135,397L132,397L123,390L117,390L115,388L115,383L111,382L106,374L103,372L101,369L98,365L93,365L95,360L100,360L101,358L101,351L103,343L106,340L107,337L111,331L115,327L118,320L119,313L128,314L131,308L135,312L140,310L142,312L147,312L154,315L156,318L159,320L162,325L165,328L162,331L160,335L160,337L160,339L165,339L166,339L168,340L166,343L169,347L172,351L175,354L200,363Z" fill="#E0E0E0" stroke="#fff" stroke-width=".4"/><path d="M165,328L168,328L170,326L172,329L172,332L168,334L171,336L168,340L166,339L165,339L160,339L160,337L160,335L162,331Z" fill="#E0E0E0" stroke="#fff" stroke-width=".4"/><path d="M215,336L215,337L215,340L215,348L215,352L212,356L207,363L200,363L175,354L172,351L169,347L166,343L168,340L171,336L173,337L175,341L178,344L182,344L189,342L198,341L205,339L208,338L211,337Z" fill="#E0E0E0" stroke="#fff" stroke-width=".4"/><path d="M100,432L85,432L76,432L73,433L69,435L67,435L67,429L69,426L69,420L71,416L74,412L77,410L79,408L76,407L77,398L80,395L85,397L91,395L96,395L101,392L105,397L105,401L109,410L106,415L102,420L100,424Z" fill="#E0E0E0" stroke="#fff" stroke-width=".4"/><path d="M73,433L76,437L76,442L74,443L70,442L67,447L63,446L63,442L65,441L65,437L67,435L69,435Z" fill="#E0E0E0" stroke="#fff" stroke-width=".4"/><path d="M-17,62L-24,59L-27,54L-30,52L-34,48L-35,45L-39,39L-37,35L-35,37L-33,35L-29,35L-23,37L-17,37L-14,39L-11,39L-13,44L-9,48L-11,53L-12,53L-14,54L-16,57Z" fill="#E0E0E0" stroke="#fff" stroke-width=".4"/><path d="M12,66L16,69L16,76L15,76L13,78L9,78L6,80L1,81L-2,79L-3,74L-2,71L-1,71L-1,69L4,67L6,67L8,66Z" fill="#E0E0E0" stroke="#fff" stroke-width=".4"/><path d="M-15,28L-9,25L-5,25L-1,29L0,33L5,36L6,40L10,43L12,41L14,42L13,44L14,46L12,48L13,52L16,57L14,60L12,63L13,64L12,66L8,66L6,67L5,66L6,65L7,62L6,62L5,60L3,60L2,58L1,57L-0,56L-2,57L-3,60L-4,61L-4,60L-7,58L-9,57L-10,55L-12,53L-11,53L-9,48L-13,44L-11,39L-14,39L-11,35L-14,32Z" fill="#E0E0E0" stroke="#fff" stroke-width=".4"/><path d="M-6,63L-8,64L-8,62L-12,67L-11,70L-13,70L-15,66L-18,64L-17,62L-16,57L-14,54L-12,53L-10,55L-9,57L-7,58L-4,60L-4,61Z" fill="#E0E0E0" stroke="#fff" stroke-width=".4"/><path d="M-2,71L-2,67L-4,66L-6,63L-4,61L-3,60L-2,57L-0,56L1,57L2,58L3,60L5,60L6,62L7,62L6,65L5,66L6,67L4,67L-1,69L-1,71Z" fill="#E0E0E0" stroke="#fff" stroke-width=".4"/><path d="M77,398L70,392L68,389L64,391L60,390L58,392L55,391L50,384L49,382L43,379L41,374L38,371L33,367L33,364L29,361L23,358L26,357L28,356L30,349L32,345L38,344L39,346L43,351L45,352L48,350L54,351L55,352L62,352L63,351L67,349L67,347L70,345L77,350L81,349L84,343L89,339L88,334L86,332L91,332L91,330L95,330L94,336L95,342L99,345L100,348L100,351L101,352L101,358L100,360L95,360L93,365L98,365L101,369L103,372L106,374L111,382L106,387L101,392L96,395L91,395L85,397L80,395Z" fill="#E0E0E0" stroke="#fff" stroke-width=".4"/></g><g clip-path="url(#v)"><path d="M428.5,131.6L428.9,132.5L429.4,133.8L429.8,134.6L430.2,135.5L430.4,136.0L430.7,136.8L430.6,137.3L430.3,137.9L429.5,138.4L428.7,138.8L428.5,139.0L428.4,139.3L428.0,139.8L427.2,140.3L426.6,140.3L426.2,140.1L424.0,141.0L423.0,140.9L422.2,141.5L421.6,141.9L420.5,142.5L419.7,142.5L418.5,142.2L417.0,141.6L416.5,141.2L415.9,141.2L414.6,141.1L413.4,140.9L411.9,140.5L411.2,140.3L409.6,140.0L408.7,140.5L407.8,140.8L407.1,141.1L406.4,142.2L406.2,142.6L405.9,143.2L405.8,143.6L405.9,144.1L406.8,144.5L407.1,145.0L407.2,145.4L406.9,145.8L406.6,146.1L406.6,146.4L406.8,146.7L407.0,147.0L408.2,147.1L409.0,147.1L409.2,147.2L409.3,147.6L409.0,148.2L408.0,148.6L407.4,149.1L407.2,149.7L407.2,150.2L407.4,150.5L407.9,150.9L408.4,151.3L408.5,151.7L408.4,152.2L408.3,152.8L407.7,153.6L407.3,154.1L407.3,154.3L407.4,154.6L407.7,155.0L408.3,155.6L409.1,156.1L409.5,156.3L409.7,156.4L409.8,157.0L409.9,157.6L409.7,158.1L410.1,158.4L411.1,158.4L411.9,158.6L412.2,158.4L412.4,158.5L412.3,159.9L412.4,160.7L412.6,160.9L413.4,161.3L414.9,161.2L415.8,161.6L416.8,162.0L417.3,162.5L417.6,162.9L417.5,163.5L417.0,164.1L416.1,164.5L415.6,164.6L413.0,165.9L412.2,166.4L411.6,167.1L411.4,167.5L411.3,168.0L411.8,169.7L411.9,170.2L411.4,172.1L411.3,172.7L411.5,173.2L412.0,173.4L412.2,173.8L412.2,174.1L411.2,174.8L410.3,175.4L410.0,175.4L409.0,176.5L407.4,178.7L406.6,179.4L406.5,179.8L406.4,180.2L406.8,180.8L406.8,181.3L406.5,181.9L405.9,182.5L404.7,183.0L403.3,183.5L402.6,183.9L402.1,185.3L401.7,186.7L401.5,187.3L400.7,188.9L399.3,191.3L398.9,191.8L396.8,193.0L394.6,194.3L394.3,194.7L393.8,195.9L393.4,197.1L393.0,197.8L391.6,199.3L391.2,200.4L391.0,201.1L389.9,201.5L388.5,201.9L386.6,202.1L385.8,202.3L383.4,203.3L382.8,203.3L382.4,203.2L382.0,202.8L381.7,202.2L381.5,201.4L381.1,201.0L380.4,200.6L379.8,200.6L379.1,201.0L378.6,201.4L378.2,201.7L377.8,202.1L377.1,203.5L375.9,205.4L374.6,206.8L374.1,207.2L373.8,207.5L373.4,208.0L373.2,208.4L372.8,209.8L372.7,211.1L372.7,211.4L372.9,211.7L373.7,212.0L374.7,212.7L376.0,213.0L377.2,213.1L377.6,213.3L377.8,213.7L377.9,214.0L377.8,215.0L377.7,216.2L377.3,217.4L377.3,218.1L377.5,218.8L378.7,220.5L379.2,220.7L380.1,220.7L380.6,220.7L381.1,220.5L381.4,220.6L381.7,220.8L381.7,221.2L381.7,222.9L382.1,223.7L382.8,224.8L383.4,226.0L384.0,227.4L384.5,228.6L384.7,229.1L384.4,229.4L384.2,229.7L384.1,230.1L384.2,230.5L384.2,230.8L384.4,231.2L384.7,231.3L384.7,231.6L384.2,231.9L383.8,231.9L383.5,232.0L382.9,232.7L382.6,232.9L382.2,232.9L381.8,232.9L381.2,232.6L381.0,232.1L381.0,231.7L380.9,231.4L380.5,231.5L378.9,231.9L377.5,232.5L377.2,232.9L376.9,233.3L376.2,233.5L375.2,233.5L374.5,233.5L373.9,233.0L373.3,232.6L372.4,232.6L370.8,232.7L370.0,232.7L369.4,232.5L368.9,232.6L368.3,232.5L368.0,232.7L367.7,232.7L367.5,232.3L367.4,232.3L367.2,232.4L367.1,232.5L366.9,232.7L366.9,235.2L365.9,235.2L365.1,235.2L364.3,235.3L363.6,235.5L363.2,235.8L362.6,236.1L362.5,236.6L362.3,237.0L361.9,236.4L361.7,236.2L361.4,236.4L361.0,236.4L360.3,235.7L360.0,236.4L358.8,236.5L358.7,236.0L358.7,235.6L358.0,235.9L357.6,235.4L357.4,234.8L357.2,234.6L357.0,234.4L356.5,234.2L356.1,233.5L356.1,232.7L355.9,231.8L355.0,228.6L354.5,228.3L351.4,227.7L351.3,227.1L351.5,225.6L351.4,224.6L350.4,223.3L350.2,222.4L349.4,221.6L348.6,221.4L347.7,221.5L347.3,221.8L347.1,222.3L348.8,222.2L349.2,222.4L349.7,222.7L349.2,222.7L348.6,222.6L347.9,222.6L345.2,223.0L343.6,223.5L341.5,223.3L338.9,223.9L336.7,223.9L335.8,224.9L335.3,224.8L334.9,224.5L331.9,223.7L331.7,223.3L331.2,223.1L330.6,223.5L330.2,223.6L328.6,223.2L327.3,223.5L326.9,224.0L326.8,224.7L325.3,224.6L324.4,224.4L323.2,224.6L320.5,224.3L319.8,224.4L318.8,224.8L318.4,225.2L317.8,225.4L317.3,224.8L316.9,224.6L316.6,224.7L316.1,225.2L314.7,225.4L313.4,225.3L312.1,224.9L312.3,224.8L312.5,224.1L312.7,221.6L312.9,220.6L312.8,220.1L312.9,220.0L313.4,219.5L313.5,219.4L313.7,218.1L314.0,216.6L314.2,216.1L314.4,215.9L316.1,215.3L316.4,214.9L317.2,215.0L317.3,214.9L317.4,214.4L317.8,213.8L318.4,213.4L318.8,213.2L320.3,212.9L321.2,212.5L321.4,212.5L323.8,212.6L324.3,212.5L324.4,212.3L324.5,210.8L324.9,210.6L325.0,210.5L324.9,209.5L324.9,208.8L325.4,208.4L325.4,208.1L325.1,207.7L324.6,207.4L324.4,207.3L322.4,207.6L321.6,207.5L321.2,207.3L321.2,207.2L321.2,206.9L321.3,206.4L321.5,205.6L321.6,205.2L321.4,202.5L321.1,200.8L321.2,199.1L321.2,198.7L321.2,198.6L320.9,198.6L319.7,198.8L318.7,197.7L318.1,197.2L316.4,196.7L315.7,196.6L314.6,196.1L313.5,195.0L312.5,193.9L312.1,193.2L311.6,192.0L310.3,189.8L310.3,189.2L310.2,188.8L308.9,187.3L308.0,186.3L306.5,184.5L309.5,185.5L311.8,186.2L315.4,187.4L318.3,188.4L319.1,188.5L327.4,187.7L330.5,188.3L331.5,188.7L331.6,188.5L332.1,188.1L332.8,187.6L333.7,187.3L334.7,187.1L336.1,187.1L337.1,187.1L337.8,187.2L339.1,187.2L339.8,187.0L342.0,186.4L343.5,185.9L345.8,185.3L347.4,184.7L347.8,184.5L348.2,184.0L348.5,183.6L347.9,182.9L347.9,182.3L348.2,181.6L348.4,180.4L348.4,178.8L348.2,177.9L348.7,176.2L349.1,175.2L349.9,174.7L350.4,174.4L350.6,174.2L350.8,174.0L351.7,172.7L352.4,172.0L353.1,171.7L353.9,171.7L354.6,172.2L355.9,172.5L357.2,172.3L358.3,171.9L358.8,171.6L359.4,171.3L359.3,171.0L358.7,170.7L358.3,170.3L358.2,169.9L358.5,169.6L359.4,169.5L361.5,168.3L362.4,167.6L362.6,167.2L363.0,167.1L363.8,167.5L364.8,167.6L365.4,167.3L366.0,167.2L366.5,167.6L366.8,168.0L367.4,168.6L368.1,168.7L368.9,168.4L369.7,167.8L370.5,166.9L371.2,166.0L371.0,163.2L370.9,161.5L371.3,160.6L371.8,160.1L372.2,159.2L372.1,158.5L372.5,157.8L372.9,156.2L373.4,155.7L374.4,155.5L376.1,155.3L377.4,154.5L378.7,153.7L378.9,153.0L378.4,152.2L377.7,150.6L377.1,149.7L375.7,148.1L375.9,147.1L376.7,146.7L378.6,147.4L379.2,147.5L379.9,147.6L381.7,147.6L383.2,147.3L384.8,146.7L385.1,146.0L385.0,145.3L385.1,144.6L385.1,143.7L384.5,143.1L384.2,142.6L384.1,142.2L384.5,142.0L384.9,141.6L385.2,140.8L386.1,139.9L386.6,139.1L387.1,138.7L387.9,138.1L388.3,137.4L388.5,136.9L389.0,136.4L389.1,136.1L389.0,135.9L388.8,135.5L388.5,135.1L388.5,134.8L388.7,134.4L389.0,134.0L388.9,133.5L388.7,132.7L388.4,132.2L388.1,131.1L387.6,130.0L387.4,129.6L387.0,129.0L386.1,128.4L385.8,128.0L386.1,127.3L386.8,126.8L387.9,125.6L388.5,124.9L389.1,124.3L389.9,124.4L390.3,124.3L390.7,123.8L391.4,123.3L392.8,122.4L393.2,121.8L394.0,121.4L394.5,121.4L395.3,121.1L396.1,120.8L396.8,120.5L397.9,120.5L399.6,120.3L400.6,120.2L402.8,120.0L405.3,120.0L405.6,120.0L406.6,120.3L407.4,120.6L407.7,120.6L408.8,119.9L410.7,119.0L411.5,118.7L412.0,118.5L412.7,118.5L413.2,118.8L413.8,119.1L414.2,119.3L414.6,119.2L415.4,119.0L416.1,119.1L417.7,119.7L417.9,120.0L418.3,121.4L418.5,121.5L419.4,121.2L420.1,121.4L420.9,121.8L421.5,122.3L421.8,122.7L422.2,123.5L422.3,124.1L422.5,124.8L422.4,126.8L422.2,127.2L422.0,127.6L422.0,128.0L422.3,128.3L422.8,128.5L423.2,128.6L423.5,128.9L423.8,130.1L424.0,130.2L424.6,130.2L425.6,130.0L426.5,129.6L426.9,129.5L427.0,130.6L427.5,131.0L428.2,131.5Z" fill="#4ECDC4" stroke="#2C3E50" stroke-width="1"/></g><circle cx="400.0" cy="150.0" r="4" fill="#E74C3C" stroke="#fff" stroke-width="2"/><text x="400.0" y="140.0" text-anchor="middle" font-family="sans-serif" font-weight="700" font-size="10" fill="#2D3436">Islamabad</text></svg>