<svg viewBox="0 0 800 300" xmlns="http://www.w3.org/2000/svg"><defs><clipPath id="v"><rect width="800" height="300"/></clipPath></defs><rect width="800" height="300" fill="#DCEEF8"/><g clip-path="url(#v)"><path d="M1241,210L1231,223L1221,225L1220,244L1213,252L1188,246L1179,279L1172,283L1147,290L1158,321L1150,326L1151,335L1143,333L1137,327L1118,325L1097,324L1092,326L1074,319L1067,323L1065,333L1044,327L1036,329L1033,337L1026,340L1009,352L1003,364L999,364L995,356L979,355L977,342L970,341L971,324L956,311L934,313L920,315L907,299L897,293L877,280L875,278L842,289L843,353L836,354L828,341L819,336L805,339L799,345L798,341L801,334L799,328L784,322L779,306L772,302L771,296L784,298L784,284L795,282L806,284L808,267L806,255L793,256L782,252L768,260L756,264L749,261L751,251L743,238L733,239L723,226L730,212L726,208L736,186L749,197L751,183L777,161L797,161L825,175L840,183L853,174L873,174L890,184L893,178L911,179L914,170L894,156L906,145L903,140L916,134L906,120L912,112L960,105L966,100L998,91L1009,82L1032,87L1036,110L1049,104L1065,112L1064,124L1076,122L1108,102L1103,109L1120,125L1148,178L1155,167L1172,179L1190,174L1197,177L1203,189L1212,193L1218,201L1234,198Z" fill="#E0E0E0" stroke="#fff" stroke-width=".4"/><path d="M843,353L842,289L875,278L877,280L897,293L907,299L920,315L934,313L956,311L971,324L970,341L977,342L979,355L995,356L999,364L1003,364L1009,352L1026,340L1033,337L1037,338L1026,349L1035,356L1044,352L1059,360L1043,372L1034,371L1028,371L1027,367L1029,359L1012,363L1008,373L1002,383L992,382L988,389L998,393L1000,405L993,421L984,418L977,418L977,408L960,401L947,393L939,385L924,374L918,357L914,354L900,355L895,351L894,338L877,328L866,338L855,344L857,353Z" fill="#E0E0E0" stroke="#fff" stroke-width=".4"/><path d="M1322,-919L1349,-937L1374,-897L1403,-824L1400,-762L1372,-754L1337,-773L1316,-799L1306,-850L1289,-865ZM1437,-789L1469,-752L1465,-726L1429,-715L1394,-702L1417,-786L1427,-794ZM1893,-601L1926,-599L1972,-571L1962,-534L1916,-536L1895,-524L1869,-556L1876,-591ZM2012,-560L2044,-547L2029,-528L2009,-532L1985,-552L1988,-568ZM1906,-467L1918,-485L1934,-489L1952,-472L1953,-460L1934,-460L1908,-465ZM702,-884L727,-898L746,-900L749,-878L756,-897L768,-910L787,-893L782,-881L765,-871L753,-865L752,-853L737,-841L723,-858L730,-882ZM422,106L399,106L383,103L386,94L403,87L417,90L422,94L421,100ZM812,-484L842,-525L839,-547L867,-574L909,-607L951,-617L973,-638L997,-645L1006,-623L998,-606L953,-580L914,-556L875,-510L856,-466L836,-424L839,-390L863,-358L855,-355L814,-360L811,-377L788,-388L786,-410L799,-418L798,-442L823,-479ZM1945,119L1949,139L1949,160L1954,180L1967,215L1948,209L1940,236L1953,255L1952,268L1943,257L1934,271L1932,256L1933,238L1932,217L1935,203L1935,176L1928,156L1929,128L1941,118L1936,108L1941,105ZM-2147,-294L-2147,-294L-2116,-267L-2083,-234L-2084,-214L-2075,-206L-2078,-229L-2044,-224L-2019,-195L-2032,-181L-2052,-178L-2053,-149L-2058,-143L-2070,-144L-2079,-154L-2096,-163L-2099,-176L-2112,-181L-2126,-177L-2133,-187L-2130,-199L-2146,-192L-2140,-177L-2147,-164L-2147,-164L-2147,-294ZM2415,-164L2414,-164L2398,-151L2382,-153L2393,-138L2401,-114L2407,-107L2408,-95L2405,-88L2381,-94L2346,-73L2334,-70L2315,-52L2297,-36L2292,-24L2274,-42L2241,-22L2235,-31L2223,-21L2206,-24L2202,-8L2187,16L2187,26L2202,31L2200,65L2188,66L2183,84L2188,94L2166,105L2161,130L2143,135L2139,156L2120,175L2116,161L2110,131L2103,82L2109,51L2120,37L2121,26L2140,21L2163,-10L2185,-36L2208,-57L2218,-95L2202,-92L2195,-70L2163,-41L2152,-74L2120,-64L2088,-21L2098,-6L2070,0L2050,3L2051,-15L2032,-19L2016,-6L1977,-11L1936,-3L1895,43L1846,97L1866,100L1872,113L1884,118L1893,107L1907,109L1925,132L1925,150L1915,170L1914,194L1909,225L1889,252L1885,265L1868,286L1851,307L1843,317L1826,327L1818,328L1810,319L1793,332L1791,338L1791,338L1789,335L1789,326L1796,325L1797,305L1794,289L1805,283L1820,286L1829,269L1833,248L1838,242L1845,225L1824,230L1813,238L1794,238L1788,220L1773,206L1751,200L1747,180L1742,168L1737,159L1730,138L1719,131L1700,124L1683,125L1667,129L1657,139L1664,144L1664,155L1657,162L1645,183L1645,192L1627,205L1612,197L1597,199L1590,192L1583,190L1564,204L1548,207L1536,212L1520,209L1508,209L1501,199L1488,190L1475,187L1459,190L1447,193L1429,185L1427,170L1412,165L1401,162L1386,154L1373,175L1378,187L1366,200L1348,195L1335,195L1327,185L1314,185L1302,179L1283,188L1259,205L1246,209L1241,210L1234,198L1218,201L1212,193L1203,189L1197,177L1190,174L1172,179L1155,167L1148,178L1120,125L1103,109L1108,102L1076,122L1064,124L1065,112L1049,104L1036,110L1032,87L1009,82L998,91L966,100L960,105L912,112L906,120L916,134L903,140L906,145L894,156L914,170L911,179L893,178L890,184L873,174L853,174L840,183L825,175L797,161L777,161L751,183L749,197L736,186L726,208L730,212L723,226L733,239L743,238L751,251L749,261L756,264L750,274L738,277L725,296L737,313L736,324L749,345L742,351L740,356L734,355L725,344L722,344L714,340L710,333L698,329L690,332L688,329L671,320L652,317L642,315L640,317L624,302L609,295L598,285L608,282L618,266L611,259L630,252L629,248L618,251L619,242L625,237L637,236L639,229L636,219L642,209L642,203L623,196L615,197L608,187L598,191L582,184L582,180L578,171L567,170L566,164L570,159L561,148L548,150L544,149L541,153L537,153L533,139L530,132L533,130L543,131L548,126L544,121L536,117L537,113L531,109L524,95L526,89L525,79L513,73L506,76L504,70L491,65L487,51L486,40L480,34L485,27L481,4L490,-10L488,-14L503,-28L489,-40L517,-74L528,-89L533,-103L514,-123L520,-141L508,-163L517,-189L502,-225L514,-250L494,-273L496,-297L506,-301L528,-315L541,-328L562,-306L596,-297L644,-258L654,-242L655,-221L641,-204L620,-195L564,-220L554,-215L575,-192L576,-178L577,-148L593,-139L603,-131L604,-145L597,-158L605,-169L635,-151L646,-158L638,-180L667,-210L679,-209L691,-198L698,-219L687,-239L694,-259L684,-280L720,-269L727,-250L711,-246L711,-228L721,-217L741,-223L744,-244L770,-260L814,-290L824,-288L812,-267L827,-264L836,-275L860,-276L879,-291L893,-270L908,-293L894,-314L901,-326L938,-315L956,-303L1002,-263L1010,-281L998,-300L997,-308L982,-311L986,-328L979,-358L979,-370L1002,-406L1011,-444L1020,-453L1054,-442L1056,-418L1044,-385L1052,-373L1056,-346L1053,-296L1067,-274L1062,-252L1037,-206L1051,-201L1056,-212L1070,-220L1074,-237L1085,-252L1077,-272L1083,-295L1069,-298L1066,-317L1077,-355L1060,-387L1083,-414L1080,-444L1086,-445L1093,-421L1088,-382L1101,-375L1096,-404L1117,-420L1143,-422L1166,-399L1155,-433L1154,-480L1176,-489L1206,-487L1234,-493L1224,-517L1238,-549L1253,-550L1277,-575L1311,-582L1315,-596L1348,-601L1359,-589L1387,-618L1411,-617L1414,-640L1426,-665L1456,-689L1478,-670L1461,-655L1489,-647L1493,-619L1504,-633L1541,-632L1570,-606L1580,-586L1577,-559L1563,-545L1530,-518L1520,-504L1536,-498L1554,-486L1566,-495L1572,-466L1578,-477L1598,-485L1639,-477L1642,-456L1695,-450L1696,-484L1722,-476L1743,-476L1763,-453L1769,-426L1761,-408L1777,-377L1797,-361L1810,-402L1830,-384L1851,-395L1876,-383L1885,-394L1906,-388L1897,-426L1914,-445L1972,-433L2028,-417L2039,-393L2072,-363L2123,-370L2148,-364L2159,-348L2157,-321L2173,-311L2190,-318L2212,-319L2236,-312L2260,-316L2283,-284L2298,-295L2288,-318L2294,-335L2334,-324L2360,-327L2397,-309L2415,-294L2415,-164ZM2415,-363L2401,-361L2398,-373L2415,-389L2415,-363ZM-2147,-389L-2147,-389L-2147,-389L-2145,-391L-2135,-391L-2116,-380L-2117,-374L-2130,-365L-2147,-363L-2147,-363L-2147,-389ZM557,271L561,267L570,271L574,271L576,275L577,276L578,277L584,282L597,280L594,287L580,290L563,300L556,297L559,288L545,283L547,280L559,274Z" fill="#E0E0E0" stroke="#fff" stroke-width=".4"/><path d="M326,-817L330,-841L349,-844L365,-818L407,-767L375,-742L368,-696L357,-685L351,-637L335,-635L308,-670L320,-691L301,-708L276,-762L266,-815L301,-841L308,-816ZM528,-315L506,-301L496,-297L501,-323L485,-337L466,-325L459,-298L447,-283L434,-291L417,-289L403,-308L395,-299L388,-297L386,-274L362,-280L358,-261L346,-261L338,-237L325,-202L306,-159L310,-148L306,-137L293,-137L285,-111L286,-74L294,-61L290,-30L279,-13L274,1L265,-14L240,14L223,20L206,8L201,-19L197,-79L209,-96L242,-120L267,-150L290,-192L321,-254L342,-280L377,-324L405,-341L426,-339L445,-370L468,-369L491,-376L530,-348L514,-338ZM481,-844L462,-806L426,-797L388,-809L386,-828L368,-830L354,-864L393,-885L411,-867L424,-890L456,-870ZM447,-698L419,-674L396,-687L405,-703L398,-722L424,-735L429,-712Z" fill="#E0E0E0" stroke="#fff" stroke-width=".4"/><path d="M-459,-1062L-416,-1124L-372,-1119L-356,-1159L-311,-1170L-260,-1165L-210,-1156L-168,-1114L-130,-1072L-154,-1034L-202,-1030L-237,-1026L-270,-1021L-264,-1005L-219,-1015L-181,-983L-156,-1011L-146,-979L-160,-929L-128,-961L-98,-978L-66,-995L-28,-977L-21,-941L-73,-884L-80,-866L-120,-853L-91,-849L-106,-797L-116,-754L-115,-685L-100,-647L-120,-645L-141,-628L-118,-599L-115,-556L-128,-551L-112,-510L-140,-506L-125,-487L-129,-472L-147,-465L-165,-465L-149,-435L-149,-417L-174,-434L-180,-423L-163,-412L-147,-388L-142,-356L-164,-349L-174,-364L-190,-386L-186,-360L-200,-340L-167,-338L-149,-336L-183,-304L-218,-276L-255,-265L-269,-264L-282,-251L-300,-217L-327,-195L-336,-194L-352,-186L-371,-179L-382,-160L-382,-139L-388,-121L-409,-98L-404,-77L-409,-55L-416,-30L-434,-28L-452,-49L-478,-49L-490,-64L-499,-90L-520,-125L-527,-144L-529,-170L-546,-199L-542,-222L-550,-233L-538,-273L-518,-285L-513,-300L-511,-328L-525,-316L-532,-310L-544,-305L-559,-317L-560,-342L-555,-362L-543,-363L-517,-353L-539,-377L-551,-391L-563,-385L-574,-395L-560,-433L-567,-449L-577,-480L-593,-529L-609,-548L-609,-569L-643,-599L-669,-603L-703,-601L-734,-597L-749,-614L-771,-649L-738,-667L-712,-670L-766,-685L-795,-709L-793,-734L-745,-765L-699,-797L-694,-822L-728,-849L-717,-879L-673,-934L-655,-943L-660,-982L-630,-1006L-591,-1020L-552,-1021L-538,-992L-505,-1044L-474,-1008L-457,-1001L-430,-972L-460,-1021Z" fill="#E0E0E0" stroke="#fff" stroke-width=".4"/><path d="M-521,876L-528,888L-532,897L-537,902L-543,903L-545,899L-548,899L-552,902L-557,899L-554,894L-553,888L-551,883L-556,875L-557,867L-550,856L-546,857L-536,860L-523,871ZM212,206L218,211L236,214L230,227L228,241L225,244L219,242L220,247L210,258L210,266L216,263L220,271L220,276L224,283L219,288L223,302L229,304L228,312L217,322L192,317L173,323L172,333L157,335L143,328L138,331L115,324L110,317L116,306L119,271L106,251L96,242L77,235L76,221L92,216L113,221L109,199L121,208L151,193L155,176L166,172L167,179L173,180L179,188L188,197L195,195L206,204L209,206ZM245,331L253,324L255,339L251,352L245,348L242,337Z" fill="#E0E0E0" stroke="#fff" stroke-width=".4"/><path d="M586,490L584,495L580,492L577,502L580,504L577,506L576,510L582,508L583,514L576,537L575,533L568,512L572,507L571,506L574,499L577,488L579,484L579,484L583,484L584,481L588,481L588,487L586,490Z" fill="#E0E0E0" stroke="#fff" stroke-width=".4"/><path d="M588,481L584,481L583,484L579,484L583,472L590,461L590,460L596,461L598,467L591,473Z" fill="#E0E0E0" stroke="#fff" stroke-width=".4"/><path d="M582,508L576,510L577,506L580,504L577,502L580,492L584,495L584,504Z" fill="#E0E0E0" stroke="#fff" stroke-width=".4"/><path d="M254,525L249,499L241,493L241,489L230,480L229,469L237,460L240,447L238,432L241,424L254,418L263,420L263,428L274,422L274,425L268,433L268,440L272,444L271,457L262,465L265,473L271,474L275,481L279,483L279,495L272,499L269,504L260,510L261,516L260,522Z" fill="#E0E0E0" stroke="#fff" stroke-width=".4"/><path d="M24,568L24,565L24,564L24,547L44,536L57,534L67,530L72,523L87,517L88,506L95,505L101,499L117,496L120,491L116,487L112,471L111,462L106,452L118,444L132,441L140,435L152,430L174,427L195,426L201,428L213,422L227,422L232,425L241,424L238,432L240,447L237,460L229,469L230,480L241,489L241,493L249,499L254,525L258,538L259,545L256,557L257,563L256,571L257,580L252,586L259,596L260,602L264,610L270,608L280,614L286,623L242,649L206,675L188,681L174,683L174,674L168,672L160,668L157,662L114,632L71,602Z" fill="#E0E0E0" stroke="#fff" stroke-width=".4"/><path d="M584,495L586,490L601,496L625,480L630,498L628,500L603,508L615,523L611,525L609,530L599,532L596,537L591,542L577,539L576,537L583,514L582,508L584,504Z" fill="#E0E0E0" stroke="#fff" stroke-width=".4"/><path d="M630,498L625,480L653,464L658,445L657,434L664,430L670,420L676,417L691,419L695,423L701,421L709,440L718,444L719,453L712,459L709,471L718,485L734,493L740,505L738,516L742,516L742,523L749,531L742,530L733,529L724,543L700,542L665,512L646,502Z" fill="#E0E0E0" stroke="#fff" stroke-width=".4"/><path d="M1367,555L1368,561L1364,563L1365,572L1356,569L1339,579L1339,587L1333,599L1332,606L1326,617L1316,614L1316,629L1313,633L1314,639L1308,642L1301,621L1298,621L1296,629L1289,622L1293,614L1298,614L1304,602L1297,599L1285,600L1273,598L1272,588L1266,587L1256,581L1251,591L1261,598L1253,603L1250,608L1258,612L1256,620L1260,631L1262,642L1260,647L1251,647L1236,650L1237,660L1230,668L1212,677L1197,693L1188,701L1175,710L1175,716L1169,719L1157,724L1152,725L1148,735L1150,752L1151,763L1146,775L1146,797L1139,797L1133,807L1137,811L1126,815L1121,824L1116,828L1104,816L1098,798L1094,785L1089,778L1082,766L1079,750L1077,742L1066,723L1060,698L1056,681L1057,664L1054,652L1036,660L1027,658L1010,642L1016,637L1013,631L998,620L1006,610L1034,610L1031,598L1024,591L1023,580L1015,574L1029,559L1043,560L1057,545L1064,530L1077,516L1077,505L1087,496L1077,489L1073,479L1068,465L1075,459L1094,462L1108,460L1120,447L1134,465L1132,478L1137,485L1137,493L1128,491L1131,508L1144,517L1162,527L1154,534L1149,548L1161,553L1173,560L1189,568L1207,570L1214,577L1224,578L1239,582L1250,582L1251,576L1249,567L1250,561L1258,558L1259,569L1259,572L1271,577L1279,575L1290,576L1300,576L1301,567L1296,562L1306,560L1317,550L1332,541L1343,544L1352,538L1358,547L1353,553Z" fill="#E0E0E0" stroke="#fff" stroke-width=".4"/><path d="M1120,447L1108,460L1094,462L1075,459L1068,465L1073,479L1077,489L1087,496L1077,505L1077,516L1064,530L1057,545L1043,560L1029,559L1015,574L1023,580L1024,591L1031,598L1034,610L1006,610L998,620L988,616L985,606L975,595L951,598L931,598L913,600L918,584L936,577L935,570L929,568L929,555L916,549L911,540L905,532L926,540L939,538L947,540L949,536L958,538L974,532L975,519L982,511L991,511L993,507L1002,505L1007,506L1012,502L1011,493L1017,484L1025,480L1020,470L1032,470L1035,465L1035,459L1041,452L1040,445L1037,438L1044,431L1058,428L1072,426L1079,423L1086,421L1095,429L1099,441Z" fill="#E0E0E0" stroke="#fff" stroke-width=".4"/><path d="M977,418L984,418L993,421L997,423L1006,418L1011,421L1015,414L1022,414L1024,412L1026,405L1031,400L1038,403L1036,408L1040,409L1039,422L1044,428L1049,424L1054,423L1062,416L1071,417L1084,417L1086,421L1079,423L1072,426L1058,428L1044,431L1037,438L1040,445L1041,452L1035,459L1035,465L1032,470L1020,470L1025,480L1017,484L1011,493L1012,502L1007,506L1002,505L993,507L991,511L982,511L975,519L974,532L958,538L949,536L947,540L939,538L926,540L905,532L917,519L916,510L906,507L905,498L901,486L906,477L901,475L904,464L909,445L922,451L932,449L935,441L944,439L952,434L954,422L965,419L967,413L973,417Z" fill="#E0E0E0" stroke="#fff" stroke-width=".4"/><path d="M993,421L1000,405L998,393L988,389L992,382L1002,383L1008,373L1012,363L1029,359L1027,367L1028,371L1034,371L1029,376L1015,373L1014,383L1028,381L1043,387L1067,384L1071,399L1075,398L1082,401L1082,408L1084,417L1071,417L1062,416L1054,423L1049,424L1044,428L1039,422L1040,409L1036,408L1038,403L1031,400L1026,405L1024,412L1022,414L1015,414L1011,421L1006,418L997,423Z" fill="#E0E0E0" stroke="#fff" stroke-width=".4"/><path d="M799,345L805,339L819,336L828,341L836,354L843,353L857,353L855,344L866,338L877,328L894,338L895,351L900,355L914,354L918,357L924,374L939,385L947,393L960,401L977,408L977,418L973,417L967,413L965,419L954,422L952,434L944,439L935,441L932,449L922,451L909,445L908,432L899,431L884,417L874,415L860,407L851,406L846,409L837,408L828,417L817,420L815,409L816,392L807,387L810,375L801,374L804,360L816,364L827,359L818,349L814,339L804,344L803,356Z" fill="#E0E0E0" stroke="#fff" stroke-width=".4"/><path d="M749,531L742,523L742,516L738,516L740,505L734,493L718,485L709,471L712,459L719,453L718,444L709,440L701,421L694,408L697,403L693,384L701,380L703,386L710,393L718,396L723,395L738,383L743,382L746,387L742,395L750,403L753,402L757,414L769,418L778,426L796,428L816,424L817,420L828,417L837,408L846,409L851,406L860,407L874,415L884,417L899,431L908,432L909,445L904,464L901,475L906,477L901,486L905,498L906,507L916,510L917,519L905,532L911,540L916,549L929,555L929,568L935,570L936,577L918,584L913,600L889,596L875,593L861,591L856,574L850,571L840,574L827,581L812,576L799,565L787,561L778,547L769,528L762,530L754,525Z" fill="#E0E0E0" stroke="#fff" stroke-width=".4"/><path d="M586,490L586,490L588,487L588,481L591,473L598,467L596,461L590,460L589,448L592,442L595,439L599,435L599,426L603,429L617,425L624,428L635,428L649,422L656,422L670,420L664,430L657,434L658,445L653,464L625,480L601,496Z" fill="#E0E0E0" stroke="#fff" stroke-width=".4"/><path d="M723,395L718,396L713,386L713,384L708,384L704,379L701,380L696,375L687,371L688,363L686,357L704,354L706,358L711,361L709,366L715,371L712,377L717,381L723,384Z" fill="#E0E0E0" stroke="#fff" stroke-width=".4"/><path d="M274,1L279,-13L290,-30L294,-61L286,-74L285,-111L293,-137L306,-137L310,-148L306,-159L325,-202L338,-237L346,-261L358,-261L362,-280L386,-274L388,-297L395,-299L412,-282L432,-258L432,-208L437,-196L415,-187L403,-166L405,-148L384,-124L360,-100L351,-62L360,-44L372,-29L360,-1L347,4L342,45L335,66L320,64L312,82L298,83L294,61L283,35Z" fill="#E0E0E0" stroke="#fff" stroke-width=".4"/><path d="M491,65L504,70L506,76L513,73L525,79L526,89L524,95L531,109L537,113L536,117L544,121L548,126L543,131L533,130L530,132L533,139L537,153L526,154L522,158L521,169L516,167L504,168L501,163L496,166L492,163L482,163L468,158L455,157L445,157L438,163L432,163L432,154L428,145L435,140L435,132L432,124L431,115L444,115L457,107L460,94L471,87L469,77L477,73Z" fill="#E0E0E0" stroke="#fff" stroke-width=".4"/><path d="M537,153L541,153L544,149L548,150L561,148L570,159L566,164L567,170L578,171L582,180L582,184L598,191L608,187L615,197L623,196L642,203L642,209L636,219L639,229L637,236L625,237L619,242L618,251L608,252L600,258L588,259L577,266L577,276L576,275L574,271L570,271L561,267L557,271L556,269L536,265L535,258L523,260L519,270L509,284L503,281L497,283L492,280L495,278L497,272L500,266L500,263L502,261L503,264L511,264L514,263L512,261L513,258L508,254L506,246L502,243L503,237L497,231L492,231L483,225L474,227L471,229L466,229L463,234L453,236L449,239L443,234L435,234L427,232L422,236L421,231L414,226L416,218L420,213L422,214L419,205L431,189L437,187L438,181L432,163L438,163L445,157L455,157L468,158L482,163L492,163L496,166L501,163L504,168L516,167L521,169L522,158L526,154Z" fill="#E0E0E0" stroke="#fff" stroke-width=".4"/><path d="M349,231L348,239L341,239L343,243L339,255L337,258L326,259L319,263L309,262L291,257L288,250L275,253L274,257L266,254L260,254L254,251L256,246L255,243L259,242L266,247L267,242L279,243L288,239L294,240L298,244L299,240L297,228L302,226L306,217L315,223L323,215L327,214L337,220L343,219L349,222L348,225Z" fill="#E0E0E0" stroke="#fff" stroke-width=".4"/><path d="M414,226L421,231L422,236L414,240L408,253L400,265L390,268L382,268L372,272L368,275L357,272L348,264L344,262L341,255L339,255L343,243L341,239L348,239L349,231L355,236L360,238L371,236L372,232L377,232L383,229L384,230L390,227L393,223L397,222L411,228Z" fill="#E0E0E0" stroke="#fff" stroke-width=".4"/><path d="M471,229L474,227L483,225L492,231L497,231L503,237L502,243L506,246L508,254L513,258L512,261L514,263L511,264L503,264L502,261L500,263L500,266L497,272L495,278L492,280L489,272L491,264L490,256L483,245L479,237L475,231Z" fill="#E0E0E0" stroke="#fff" stroke-width=".4"/><path d="M492,280L497,283L503,281L509,284L509,288L503,292L499,290L496,312L488,310L479,304L464,308L458,312L439,311L429,308L425,310L421,303L419,299L422,296L418,294L414,298L407,293L406,286L398,281L397,276L390,268L400,265L408,253L414,240L422,236L427,232L435,234L443,234L449,239L453,236L463,234L466,229L471,229L475,231L479,237L483,245L490,256L491,264L489,272Z" fill="#E0E0E0" stroke="#fff" stroke-width=".4"/><path d="M469,77L471,87L460,94L457,107L444,115L431,115L428,108L422,106L421,100L422,94L417,90L403,87L401,68L415,61L436,62L449,60L451,65L457,66Z" fill="#E0E0E0" stroke="#fff" stroke-width=".4"/><path d="M480,34L486,40L487,51L491,65L477,73L469,77L457,66L451,65L449,60L436,62L415,61L401,68L401,50L407,36L419,28L429,45L439,45L442,27L453,23L458,26L469,34Z" fill="#E0E0E0" stroke="#fff" stroke-width=".4"/><path d="M488,-14L490,-10L481,4L485,27L480,34L469,34L458,26L453,23L442,27L443,13L439,16L431,7L430,-7L446,-14L462,-18L475,-13Z" fill="#E0E0E0" stroke="#fff" stroke-width=".4"/><path d="M313,118L316,129L312,134L317,142L320,153L319,160L324,173L318,175L315,173L312,177L303,180L298,185L289,190L291,196L292,204L299,209L306,217L302,226L297,228L299,240L298,244L294,240L288,239L279,243L267,242L266,247L259,242L255,243L242,237L239,241L228,241L230,227L236,214L218,211L212,206L213,197L210,193L212,179L210,158L217,158L220,150L224,131L221,124L224,119L234,118L237,123L245,112L242,104L242,92L251,95L260,91L260,100L273,105L272,112L285,108L292,102L307,111Z" fill="#E0E0E0" stroke="#fff" stroke-width=".4"/><path d="M421,303L425,310L429,308L439,311L458,312L464,308L479,304L488,310L496,312L489,319L484,331L489,341L478,339L465,344L465,353L453,354L444,348L434,353L425,353L424,341L417,336L419,333L418,331L420,326L425,320L419,313L418,307Z" fill="#E0E0E0" stroke="#fff" stroke-width=".4"/><path d="M467,450L465,455L447,456L447,453L432,450L434,444L441,449L451,448L460,449L460,452ZM425,353L434,353L444,348L453,354L465,353L465,344L471,349L467,359L464,361L456,361L450,359L434,363L443,373L437,376L430,376L423,367L421,371L423,381L430,388L425,392L432,399L438,404L438,413L427,409L430,417L422,419L427,433L419,433L408,426L404,413L401,403L396,395L390,386L389,381L395,373L396,368L400,365L400,361L408,359L413,356L420,356L422,353Z" fill="#E0E0E0" stroke="#fff" stroke-width=".4"/><path d="M701,421L695,423L691,419L676,417L670,420L656,422L649,422L635,428L624,428L617,425L603,429L599,426L599,435L595,439L592,442L587,435L592,429L584,430L574,427L565,436L546,438L535,429L522,429L519,435L510,437L498,429L484,429L477,413L467,404L473,392L465,384L479,368L499,367L504,355L528,357L544,346L558,341L579,341L602,353L620,359L634,357L645,358L660,349L674,348L686,357L688,363L687,371L696,375L701,380L693,384L697,403L694,408ZM465,344L478,339L489,341L490,348L501,353L499,357L484,358L478,363L468,372L464,365L464,361L467,359L471,349Z" fill="#E0E0E0" stroke="#fff" stroke-width=".4"/><path d="M400,361L400,365L396,368L395,373L389,381L387,380L387,376L380,371L379,363L380,351L381,346L379,343L378,338L384,330L385,333L388,331L391,336L394,338L395,344L393,350L395,357Z" fill="#E0E0E0" stroke="#fff" stroke-width=".4"/><path d="M344,262L348,264L357,272L368,275L372,272L375,280L379,285L375,291L369,287L360,288L349,285L343,285L341,289L336,285L333,292L340,300L342,306L348,313L353,316L358,324L369,330L368,333L356,327L348,320L337,315L326,302L329,301L323,294L323,288L314,285L311,292L307,286L307,280L308,280L316,281L319,277L323,280L328,281L328,276L332,274L334,266Z" fill="#E0E0E0" stroke="#fff" stroke-width=".4"/><path d="M255,243L256,246L254,251L260,254L266,254L265,262L260,265L250,263L247,270L241,271L239,268L232,274L226,275L220,271L216,263L210,266L210,258L220,247L219,242L225,244L228,241L239,241L242,237Z" fill="#E0E0E0" stroke="#fff" stroke-width=".4"/><path d="M210,193L213,197L212,206L209,206L206,204L207,193Z" fill="#E0E0E0" stroke="#fff" stroke-width=".4"/><path d="M212,179L210,193L207,193L206,204L195,195L188,197L179,188L173,180L167,179L166,172L176,168L185,170L197,165L205,174Z" fill="#E0E0E0" stroke="#fff" stroke-width=".4"/><path d="M221,124L224,131L220,150L217,158L210,158L212,179L205,174L197,165L185,170L176,168L182,163L193,132L211,123Z" fill="#E0E0E0" stroke="#fff" stroke-width=".4"/><path d="M19,343L24,339L29,337L32,345L40,345L42,343L49,343L53,352L47,356L47,369L45,372L44,380L39,381L44,391L40,402L45,406L43,411L38,417L39,422L34,426L28,424L21,426L23,413L22,403L16,402L13,396L14,385L19,379L20,372L23,362L22,355L20,349Z" fill="#E0E0E0" stroke="#fff" stroke-width=".4"/><path d="M39,422L38,417L43,411L45,406L40,402L44,391L39,381L44,380L45,372L47,369L47,356L53,352L49,343L42,343L40,345L32,345L29,337L24,339L19,343L20,331L15,324L33,311L48,314L65,314L79,317L89,316L110,317L115,324L138,331L143,328L157,335L172,333L172,343L160,354L144,358L143,364L135,373L130,386L135,396L128,403L125,413L116,416L107,429L91,429L78,429L70,434L66,440L59,439L55,433L51,424Z" fill="#E0E0E0" stroke="#fff" stroke-width=".4"/><path d="M55,115L57,131L48,149L25,162L7,158L18,137L11,115L28,98L38,88L40,100L38,111L46,111Z" fill="#E0E0E0" stroke="#fff" stroke-width=".4"/><path d="M266,254L274,257L275,253L288,250L291,257L309,262L307,271L310,278L300,276L290,282L291,291L289,296L293,305L305,314L312,328L326,342L336,342L339,346L335,349L346,355L356,360L367,369L368,372L366,378L359,370L348,368L342,378L351,384L350,393L345,394L338,408L333,409L333,404L335,395L338,392L333,382L329,374L324,372L320,365L312,362L306,355L297,354L287,346L276,335L267,325L263,308L257,306L246,300L241,303L233,311L228,312L229,304L223,302L219,288L224,283L220,276L220,271L226,275L232,274L239,268L241,271L247,270L250,263L260,265L265,262ZM321,405L330,404L326,416L328,421L325,429L315,424L309,422L291,414L293,405L308,407ZM244,360L250,355L258,367L256,388L251,387L245,393L241,389L240,369L237,359Z" fill="#E0E0E0" stroke="#fff" stroke-width=".4"/><path d="M260,91L251,95L242,92L237,79L236,56L238,50L242,43L253,41L258,35L268,28L267,40L264,48L265,55L272,58L269,67L265,64L256,80ZM291,66L295,77L287,95L274,83L272,73Z" fill="#E0E0E0" stroke="#fff" stroke-width=".4"/><path d="M55,115L46,111L38,111L40,100L38,88L48,87L62,101ZM95,125L95,125L96,113L88,100L88,99L72,95L69,89L74,80L70,73L63,84L62,62L56,50L60,26L70,7L80,9L96,7L82,33L95,29L109,29L106,48L94,69L107,70L108,73L120,99L128,103L136,127L140,135L155,139L154,153L147,159L152,169L141,180L124,180L102,185L96,181L88,190L76,188L67,196L61,192L79,171L91,166L90,166L71,163L67,155L80,149L73,137L76,123Z" fill="#E0E0E0" stroke="#fff" stroke-width=".4"/><path d="M-50,-210L-53,-190L-39,-169L-55,-146L-92,-126L-103,-121L-119,-125L-155,-134L-142,-147L-170,-162L-147,-167L-148,-176L-174,-183L-166,-204L-147,-208L-127,-187L-108,-204L-92,-195L-71,-212Z" fill="#E0E0E0" stroke="#fff" stroke-width=".4"/><path d="M722,344L725,344L734,355L740,356L742,351L749,345L756,353L762,365L768,366L772,371L762,372L760,385L757,391L753,394L753,402L750,403L742,395L746,387L743,382L738,383L723,395L723,384L717,381L712,377L715,371L709,366L711,361L706,358L704,354L707,351L716,356L723,357L725,355L719,346ZM718,396L710,393L703,386L701,380L704,379L708,384L713,384L713,386Z" fill="#E0E0E0" stroke="#fff" stroke-width=".4"/><path d="M640,317L642,315L652,317L671,320L688,329L690,332L698,329L710,333L714,340L722,344L719,346L725,355L723,357L716,356L707,351L704,354L686,357L674,348L660,349L662,342L659,330L652,324L645,322Z" fill="#E0E0E0" stroke="#fff" stroke-width=".4"/><path d="M309,262L319,263L326,259L337,258L339,255L341,255L344,262L334,266L332,274L328,276L328,281L323,280L319,277L316,281L308,280L310,278L307,271Z" fill="#E0E0E0" stroke="#fff" stroke-width=".4"/><path d="M496,-297L494,-273L514,-250L502,-225L517,-189L508,-163L520,-141L514,-123L533,-103L528,-89L517,-74L489,-40L466,-38L444,-29L424,-23L416,-37L404,-46L407,-72L401,-96L407,-112L418,-130L447,-162L456,-168L454,-181L437,-196L432,-208L432,-258L412,-282L395,-299L403,-308L417,-289L434,-291L447,-283L459,-298L466,-325L485,-337L501,-323Z" fill="#E0E0E0" stroke="#fff" stroke-width=".4"/><path d="M420,213L416,218L414,226L411,228L397,222L393,223L390,227L384,230L383,229L377,232L372,232L371,236L360,238L355,236L349,231L348,225L349,222L350,218L356,218L360,216L361,215L363,214L364,209L367,208L369,205L373,205L373,206L379,203L385,210L392,206L398,208L408,205Z" fill="#E0E0E0" stroke="#fff" stroke-width=".4"/><path d="M324,173L330,179L340,181L339,187L346,191L348,186L356,188L357,194L367,195L373,205L369,205L367,208L364,209L363,214L361,215L360,216L356,218L350,218L349,222L343,219L337,220L327,214L323,215L315,223L306,217L299,209L292,204L291,196L289,190L298,185L303,180L312,177L315,173L318,175Z" fill="#E0E0E0" stroke="#fff" stroke-width=".4"/><path d="M577,539L591,542L596,537L599,532L609,530L611,525L615,523L603,508L628,500L630,498L646,502L665,512L700,542L724,543L735,545L738,551L747,551L752,563L758,567L761,572L769,578L770,583L769,588L770,593L774,597L776,601L778,605L781,608L785,607L787,612L788,615L793,629L831,636L833,633L839,643L831,670L793,683L756,689L744,695L735,709L729,711L726,706L721,707L709,706L707,704L692,705L689,706L683,702L680,709L681,715L676,719L674,713L670,709L669,704L663,699L656,688L653,677L644,668L638,665L630,653L628,643L629,635L622,620L616,614L609,611L605,603L605,600L602,593L598,590L593,579L585,568L579,558L573,558L575,550L575,545Z" fill="#E0E0E0" stroke="#fff" stroke-width=".4"/><path d="M549,453L549,453L551,449L560,449L572,444L563,451L564,454L563,453L560,455L559,454L558,455L558,453L557,452L554,452L551,453Z" fill="#E0E0E0" stroke="#fff" stroke-width=".4"/><path d="M549,453L551,453L554,452L557,452L558,453L558,455L559,454L560,455L563,453L564,454L565,455L552,461L545,459L543,453Z" fill="#E0E0E0" stroke="#fff" stroke-width=".4"/><path d="M106,452L111,462L112,471L116,487L120,491L117,496L101,499L95,505L88,506L87,517L72,523L67,530L57,534L44,536L24,547L24,564L22,564L22,572L15,572L10,575L5,575L0,573L-11,575L-15,586L-19,587L-25,605L-42,620L-46,639L-52,645L-53,650L-82,651L-82,651L-81,644L-76,641L-72,634L-73,629L-69,619L-62,610L-57,608L-54,600L-54,593L-49,584L-41,579L-33,564L-32,564L-26,558L-14,557L-4,547L2,543L13,531L9,513L14,500L16,492L24,482L37,475L46,469L55,453L59,443L68,443L76,450L88,449L101,452Z" fill="#E0E0E0" stroke="#fff" stroke-width=".4"/><path d="M451,643L451,670L436,670L436,676L385,650L335,624L322,631L313,636L306,629L286,623L280,614L270,608L264,610L260,602L259,596L252,586L257,580L256,571L257,563L256,557L259,545L258,538L254,525L260,522L261,516L260,510L269,504L272,499L279,495L279,483L294,489L300,487L310,490L327,496L333,510L344,513L362,519L376,526L382,522L388,515L385,504L389,497L398,490L407,488L424,491L428,498L433,498L437,500L450,502L453,507L448,514L450,520L447,529L451,541L451,592Z" fill="#E0E0E0" stroke="#fff" stroke-width=".4"/><path d="M369,330L358,324L353,316L348,313L342,306L340,300L333,292L336,285L341,289L343,285L349,285L360,288L369,287L375,291L379,291L376,299L382,306L380,314L377,315L375,317L371,321Z" fill="#E0E0E0" stroke="#fff" stroke-width=".4"/><path d="M417,336L424,341L425,353L422,353L420,356L413,356L408,359L400,361L395,357L393,350L395,344L396,344L397,340L404,338L407,337L412,336Z" fill="#E0E0E0" stroke="#fff" stroke-width=".4"/><path d="M372,272L382,268L390,268L397,276L398,281L406,286L407,293L414,298L418,294L422,296L419,299L421,303L418,307L419,313L425,320L420,326L418,331L419,333L417,336L412,336L407,337L407,336L408,334L410,330L408,330L405,327L403,326L402,323L399,322L398,319L395,320L393,326L390,327L391,326L387,322L383,320L381,318L377,315L380,314L382,306L376,299L379,291L375,291L379,285L375,280Z" fill="#E0E0E0" stroke="#fff" stroke-width=".4"/><path d="M388,331L385,333L384,330L378,338L379,343L377,342L373,337L368,333L369,330L371,321L375,317L377,315L381,318L383,320L387,322L391,326L390,327Z" fill="#E0E0E0" stroke="#fff" stroke-width=".4"/><path d="M395,344L394,338L391,336L388,331L390,327L393,326L395,320L398,319L399,322L402,323L403,326L405,327L408,330L410,330L408,334L407,336L407,337L404,338L397,340L396,344Z" fill="#E0E0E0" stroke="#fff" stroke-width=".4"/></g><g clip-path="url(#v)"><path d="M432.9,164.6L433.5,166.0L433.8,167.1L433.5,168.0L433.6,168.8L434.2,169.8L436.1,172.6L437.1,175.3L437.7,176.3L439.1,177.7L439.2,178.2L438.7,178.7L438.2,178.8L437.8,178.9L437.6,179.4L438.0,179.9L438.5,180.7L439.1,182.8L439.0,184.5L438.6,185.0L437.9,186.0L437.6,186.9L434.2,187.5L433.5,188.5L431.6,190.5L430.4,191.6L428.6,193.6L425.7,197.0L424.6,198.5L423.8,199.6L421.5,202.7L420.8,204.1L420.9,205.1L421.7,207.7L421.8,208.8L421.7,209.9L421.5,210.8L421.5,211.2L422.2,211.9L423.3,213.0L423.3,213.3L423.2,213.8L422.8,214.1L421.4,213.8L419.9,213.0L419.4,213.1L418.5,213.0L415.1,211.6L412.8,210.5L412.6,209.8L412.2,208.7L411.2,207.9L408.9,207.1L408.0,206.5L404.3,206.2L402.7,206.2L401.6,206.4L400.9,206.4L399.9,208.0L399.2,208.4L398.2,208.4L397.3,208.2L396.4,207.4L395.0,206.9L394.0,207.1L393.2,207.0L392.5,206.9L392.3,207.1L391.8,207.1L391.0,207.4L390.2,208.0L389.3,208.4L388.6,209.3L387.9,211.0L386.2,210.2L385.6,210.6L384.7,210.8L384.1,210.6L384.2,210.0L384.5,209.3L384.5,208.4L384.3,207.3L383.8,207.0L383.0,206.8L382.5,206.6L382.5,206.3L382.0,205.9L381.3,204.7L380.6,203.4L380.1,202.9L379.4,203.6L378.4,204.3L377.7,204.6L376.4,206.8L374.1,206.8L374.0,205.8L373.7,204.9L372.4,204.6L372.4,204.0L372.1,202.6L369.4,199.8L369.0,198.6L369.2,198.1L369.0,197.4L368.4,197.0L366.3,196.4L365.7,196.7L365.2,196.4L364.4,195.7L363.1,195.2L363.0,194.9L362.5,194.4L362.2,194.3L362.1,194.6L361.7,195.0L360.3,195.6L359.7,195.3L359.2,194.9L358.6,193.9L357.8,193.1L357.1,192.7L356.7,192.3L356.6,191.9L358.2,191.2L358.5,190.5L358.3,189.1L358.1,189.0L357.5,189.4L356.2,189.8L355.0,190.0L354.4,190.0L351.1,187.5L348.9,186.8L347.7,186.6L347.5,186.8L348.1,188.2L349.1,189.9L349.1,190.3L347.9,191.0L347.2,191.3L346.4,191.9L345.7,192.7L345.1,193.1L344.6,193.0L344.1,192.6L342.7,190.1L340.9,188.2L340.8,187.8L340.2,187.7L339.4,187.2L339.2,186.6L339.6,186.0L340.1,185.4L341.0,185.1L341.3,184.8L341.5,184.3L341.8,183.6L341.7,183.4L341.1,182.7L340.1,182.0L337.3,182.5L336.6,182.9L336.2,182.4L335.9,181.7L335.2,181.6L334.2,180.9L333.1,180.3L332.0,180.1L329.7,179.2L328.9,179.2L328.4,178.9L327.8,178.2L327.4,177.5L327.1,175.9L325.4,175.3L323.8,174.8L323.7,175.0L323.7,176.6L323.6,177.4L322.5,177.9L321.4,177.9L321.5,177.7L322.8,174.9L323.4,173.2L324.1,170.0L323.2,167.5L323.0,166.3L322.7,165.7L320.4,164.5L320.2,164.1L320.6,162.4L320.4,161.7L319.8,160.9L319.1,159.5L318.8,158.2L319.7,156.7L320.0,155.6L320.4,154.1L320.6,153.3L320.7,153.0L320.1,152.5L320.0,151.7L320.1,150.5L319.8,149.6L319.0,149.0L318.5,148.3L318.2,147.3L318.4,145.8L319.0,143.8L317.7,141.4L314.4,138.5L312.8,136.5L312.9,135.3L313.6,134.3L314.9,133.4L315.9,131.7L316.4,129.7L316.4,129.4L316.5,127.9L314.9,122.1L314.7,120.7L314.5,118.9L314.4,118.4L317.4,119.7L318.6,120.4L318.4,119.6L318.2,118.9L318.3,117.9L318.2,116.4L315.6,115.7L313.9,115.4L313.7,114.4L313.9,113.7L314.4,114.1L316.0,114.3L320.2,112.2L327.5,109.6L335.2,107.1L337.1,106.9L338.9,106.3L339.5,105.4L340.2,104.8L341.3,103.2L343.6,100.6L347.7,99.7L349.3,98.5L352.5,96.8L359.9,94.8L362.9,94.4L365.9,94.4L368.6,95.9L371.5,97.7L372.0,98.9L370.5,98.2L368.2,96.5L367.4,96.4L369.3,101.5L370.3,103.3L372.5,104.6L374.2,105.1L379.7,104.3L381.6,103.2L382.2,102.7L382.7,102.9L386.2,103.2L389.8,103.5L395.6,103.8L401.7,104.2L407.9,104.5L414.7,104.8L421.8,105.1L422.2,104.9L423.0,104.0L423.9,104.2L424.9,104.7L425.4,105.1L425.6,105.5L425.7,106.0L426.3,106.2L427.4,106.5L428.8,107.4L429.9,108.3L430.9,109.5L431.3,110.9L431.3,112.5L431.3,113.5L431.4,113.9L432.8,121.2L435.2,128.2L436.1,131.6L436.5,133.4L436.7,135.9L436.8,137.7L436.8,138.8L436.6,140.1L435.9,141.0L431.3,143.3L430.4,144.1L429.1,145.9L427.8,147.8L427.5,148.4L427.4,148.8L427.7,149.5L429.4,150.4L431.0,151.3L431.6,151.9L432.8,152.6L433.2,153.3L433.5,153.9L433.5,155.3L432.9,157.2L433.1,158.7L432.6,159.6L432.1,160.7L432.0,162.6Z" fill="#4ECDC4" stroke="#2C3E50" stroke-width="1"/></g><circle cx="400.0" cy="150.0" r="4" fill="#E74C3C" stroke="#fff" stroke-width="2"/><text x="400.0" y="140.0" text-anchor="middle" font-family="sans-serif" font-weight="700" font-size="10" fill="#2D3436">Warsaw</text></svg>