<svg viewBox="0 0 800 300" xmlns="http://www.w3.org/2000/svg"><defs><clipPath id="v"><rect width="800" height="300"/></clipPath></defs><rect width="800" height="300" fill="#DCEEF8"/><g clip-path="url(#v)"><path d="M436,83L424,109L399,98L384,153L402,162L384,173L381,195L414,184L416,216L381,345L374,324L335,206L355,179L350,174L369,136L383,73L393,52L395,51L418,52L425,37L443,36L444,70L435,83Z" fill="#E0E0E0" stroke="#fff" stroke-width=".4"/><path d="M443,36L425,37L418,52L395,51L420,-17L454,-76L456,-79L487,-75L498,-42L461,-10Z" fill="#E0E0E0" stroke="#fff" stroke-width=".4"/><path d="M424,109L436,83L514,116L651,27L679,129L666,141L526,182L595,264L572,277L561,304L508,315L491,344L461,369L383,356L381,345L416,216L414,184L424,160Z" fill="#E0E0E0" stroke="#fff" stroke-width=".4"/><path d="M679,129L651,27L805,-60L832,-163L825,-226L863,-248L899,-302L929,-316L1010,-304L1035,-282L1068,-297L1113,-193L1159,-167L1165,-117L1130,-88L1113,-22L1162,58L1247,103L1283,166L1272,225L1294,225L1295,268L1333,311L1292,307L1245,300L1194,377L1064,371L966,289L867,208L763,151Z" fill="#E0E0E0" stroke="#fff" stroke-width=".4"/><path d="M436,83L435,83L444,70L443,36L461,-10L498,-42L487,-75L456,-79L449,-145L466,-180L485,-199L504,-218L508,-266L530,-249L607,-273L644,-257L702,-257L782,-290L820,-289L899,-302L863,-248L825,-226L832,-163L805,-60L651,27L514,116Z" fill="#E0E0E0" stroke="#fff" stroke-width=".4"/><path d="M1068,-297L1035,-282L1010,-304L929,-316L899,-302L820,-289L782,-290L702,-257L644,-257L607,-273L530,-249L508,-266L504,-218L485,-199L466,-180L441,-219L467,-252L425,-244L366,-264L318,-214L212,-205L156,-251L80,-254L64,-218L16,-208L-51,-254L-128,-252L-169,-339L-220,-389L-186,-458L-230,-501L-153,-588L-45,-592L-16,-662L117,-650L201,-710L282,-736L398,-739L520,-673L620,-637L701,-651L761,-643L844,-691L918,-696L985,-650L997,-618L990,-573L1042,-550L1070,-524L1022,-498L1044,-395L1030,-368ZM-234,-719L-163,-748L-103,-736L-95,-699L-34,-669L-46,-647L-129,-641L-159,-613L-217,-564L-239,-606L-238,-625L-222,-636L-200,-694Z" fill="#E0E0E0" stroke="#fff" stroke-width=".4"/><path d="M383,356L461,369L491,344L508,315L561,304L572,277L595,264L526,182L666,141L679,129L763,151L867,208L966,289L1064,371L1194,377L1256,385L1273,423L1323,421L1350,489L1384,507L1396,534L1444,567L1448,599L1441,625L1450,652L1470,673L1479,698L1490,717L1511,733L1530,727L1544,756L1546,774L1573,851L1783,889L1797,873L1829,927L1782,1076L1573,1150L1372,1179L1307,1212L1256,1289L1224,1301L1206,1277L1180,1280L1112,1273L1099,1266L1019,1267L1000,1274L971,1255L953,1291L960,1322L929,1345L920,1314L899,1292L894,1263L858,1236L820,1175L801,1114L752,1063L721,1051L675,980L667,928L670,883L630,799L597,769L560,753L536,709L540,692L521,652L500,635L473,577L431,514L395,459L360,460L371,416L374,388Z" fill="#E0E0E0" stroke="#fff" stroke-width=".4"/><path d="M228,-121L233,-122L243,-142L293,-141L356,-167L309,-130L315,-114L307,-117L294,-111L283,-113L280,-110L278,-118L273,-123L260,-124L241,-117Z" fill="#E0E0E0" stroke="#fff" stroke-width=".4"/><path d="M228,-121L241,-117L260,-124L273,-123L278,-118L280,-110L283,-113L294,-111L307,-117L315,-114L317,-108L245,-73L211,-84L195,-118Z" fill="#E0E0E0" stroke="#fff" stroke-width=".4"/><path d="M516,927L378,926L239,927L104,926L-31,927L-172,926L-312,927L-312,646L-312,366L-333,301L-315,251L-326,216L-301,177L-208,176L-140,197L-71,222L-39,234L15,208L44,185L105,178L155,189L174,229L190,202L246,222L300,226L335,206L374,324L381,345L361,377L346,437L327,478L311,492L287,467L256,431L206,317L199,324L228,408L271,488L324,610L349,652L372,696L434,781L421,794L423,843L504,911Z" fill="#E0E0E0" stroke="#fff" stroke-width=".4"/></g><g clip-path="url(#v)"><path d="M349.4,175.8L352.7,179.4L353.0,180.7L340.6,194.0L340.6,199.8L333.4,206.6L331.1,199.8L330.1,197.3L343.2,184.2ZM424.6,109.1L426.1,122.1L423.3,133.3L423.1,143.0L425.1,161.0L420.8,168.7L418.6,177.7L417.5,184.5L414.5,184.2L405.2,189.2L393.2,193.7L379.6,195.0L377.6,193.6L377.1,191.3L381.1,179.8L382.6,174.4L388.4,168.6L396.7,163.6L400.2,162.3L400.0,160.2L394.9,156.9L389.6,155.2L384.9,156.9L383.4,156.3L382.9,154.9L384.6,152.7L385.4,148.9L384.6,142.5L384.1,134.6L382.9,128.6L385.9,118.6L386.9,113.8L390.7,103.8L399.5,97.6L407.2,99.5L411.3,99.9L413.0,101.0L414.0,104.6L419.8,108.7Z" fill="#4ECDC4" stroke="#2C3E50" stroke-width="1"/></g><circle cx="400.0" cy="150.0" r="4" fill="#E74C3C" stroke="#fff" stroke-width="2"/><text x="400.0" y="140.0" text-anchor="middle" font-family="sans-serif" font-weight="700" font-size="10" fill="#2D3436">Ramallah</text></svg>