<svg viewBox="0 0 800 300" xmlns="http://www.w3.org/2000/svg"><defs><clipPath id="v"><rect width="800" height="300"/></clipPath></defs><rect width="800" height="300" fill="#DCEEF8"/><g clip-path="url(#v)"><path d="M407,347L407,348L407,351L407,376L358,375L359,417L345,419L341,427L344,450L286,450L282,455L283,448L283,448L317,447L319,441L325,434L330,412L350,394L357,374L362,372L367,360L379,358L384,360L391,360L396,356L405,356L405,347Z" fill="#E0E0E0" stroke="#fff" stroke-width=".4"/><path d="M900,651L889,645L884,641L883,636L885,630L885,623L876,614L875,608L875,604L870,599L869,591L866,585L861,586L863,580L866,574L865,567L870,563L866,559L870,550L877,538L890,539L889,478L889,471L906,471L906,439L966,439L1024,439L1083,439L1087,455L1084,458L1086,474L1092,493L1097,497L1105,502L1098,511L1087,514L1082,519L1081,529L1074,552L1076,558L1074,571L1068,586L1059,593L1052,605L1051,611L1044,615L1039,631L1040,645L1039,633L1037,633L1038,625L1036,620L1028,614L1026,603L1028,592L1021,591L1020,594L1011,595L1015,599L1016,609L1008,617L1001,628L993,629L981,620L975,624L973,628L966,631L965,634L951,634L949,631L938,630L932,633L928,632L921,623L918,619L907,621L903,628L900,641L895,644L890,646Z" fill="#E0E0E0" stroke="#fff" stroke-width=".4"/><path d="M889,478L890,539L877,538L870,550L866,559L870,563L865,567L866,574L863,580L861,586L866,585L869,591L870,599L875,604L875,608L865,610L858,616L847,633L833,640L819,639L815,640L816,645L808,651L802,656L783,662L780,659L777,659L775,662L762,663L765,659L760,649L758,643L751,640L743,632L746,624L753,626L757,625L765,625L757,611L758,601L757,591L751,582L752,574L743,574L743,564L736,559L743,538L762,524L763,503L768,472L772,465L765,459L765,454L760,450L756,425L771,417L830,447Z" fill="#E0E0E0" stroke="#fff" stroke-width=".4"/><path d="M1927,-1389L1959,-1411L1988,-1363L2022,-1278L2018,-1206L1986,-1197L1945,-1219L1920,-1249L1909,-1309L1888,-1327ZM2061,-1238L2099,-1193L2094,-1163L2052,-1150L2011,-1135L2038,-1234L2050,-1243ZM2595,-1017L2634,-1015L2688,-982L2676,-939L2622,-941L2597,-928L2568,-965L2576,-1006ZM2735,-970L2772,-954L2755,-932L2731,-937L2703,-959L2707,-979ZM2611,-861L2625,-881L2643,-886L2664,-866L2666,-853L2644,-852L2613,-858ZM1201,-1349L1230,-1365L1252,-1367L1255,-1342L1264,-1364L1278,-1379L1300,-1359L1294,-1345L1274,-1333L1261,-1326L1259,-1312L1242,-1298L1225,-1318L1234,-1346ZM873,-190L846,-190L827,-192L831,-204L851,-212L867,-208L873,-203L872,-196ZM1329,-881L1365,-928L1361,-954L1394,-985L1443,-1024L1492,-1036L1518,-1060L1547,-1068L1557,-1043L1547,-1023L1495,-993L1449,-965L1403,-911L1381,-859L1358,-810L1361,-771L1389,-733L1380,-729L1332,-735L1328,-755L1301,-768L1299,-793L1314,-803L1314,-830L1343,-874ZM2656,-174L2661,-150L2661,-126L2667,-103L2682,-62L2660,-69L2651,-37L2665,-14L2665,1L2653,-12L2644,4L2641,-14L2642,-35L2641,-59L2644,-76L2645,-107L2636,-131L2637,-164L2651,-176L2645,-187L2652,-191ZM-2135,-657L-2135,-657L-2098,-626L-2060,-587L-2061,-564L-2051,-555L-2054,-582L-2014,-576L-1985,-541L-2000,-526L-2024,-522L-2024,-488L-2030,-481L-2044,-482L-2055,-494L-2075,-504L-2078,-519L-2094,-525L-2110,-520L-2118,-533L-2115,-546L-2133,-538L-2126,-521L-2135,-506L-2135,-506L-2135,-657ZM3206,-506L3206,-506L3187,-490L3168,-493L3181,-475L3190,-447L3197,-438L3198,-425L3195,-416L3167,-423L3125,-399L3112,-396L3089,-374L3068,-356L3062,-342L3041,-363L3003,-339L2996,-350L2982,-338L2962,-342L2957,-322L2939,-295L2940,-283L2957,-277L2955,-238L2941,-237L2934,-215L2941,-203L2915,-190L2910,-162L2887,-156L2883,-131L2862,-109L2856,-125L2850,-161L2841,-217L2849,-254L2861,-270L2862,-283L2885,-289L2911,-325L2937,-356L2964,-380L2976,-424L2958,-422L2949,-395L2911,-362L2899,-400L2861,-389L2823,-338L2836,-320L2803,-313L2780,-310L2781,-331L2758,-335L2739,-321L2694,-326L2645,-317L2597,-263L2540,-200L2564,-197L2571,-181L2585,-175L2595,-188L2611,-186L2633,-159L2633,-138L2621,-114L2620,-86L2613,-50L2591,-18L2586,-3L2566,22L2546,46L2536,58L2517,70L2507,70L2498,60L2478,75L2476,82L2476,82L2474,78L2474,68L2481,67L2483,43L2479,25L2492,18L2510,22L2520,1L2525,-23L2531,-31L2539,-51L2514,-44L2501,-35L2479,-35L2473,-56L2455,-72L2429,-80L2424,-102L2419,-117L2413,-127L2404,-152L2391,-161L2369,-168L2349,-167L2331,-163L2318,-151L2327,-145L2327,-131L2319,-124L2305,-99L2305,-88L2284,-74L2267,-83L2249,-81L2241,-88L2232,-91L2210,-75L2191,-71L2177,-65L2159,-69L2145,-69L2136,-80L2121,-92L2106,-95L2088,-92L2074,-87L2053,-97L2050,-115L2032,-121L2019,-124L2002,-133L1987,-109L1993,-95L1978,-79L1957,-85L1942,-85L1932,-96L1917,-97L1904,-104L1881,-93L1853,-73L1837,-69L1832,-67L1824,-81L1805,-78L1798,-88L1788,-92L1781,-106L1773,-110L1751,-104L1731,-118L1723,-105L1690,-167L1671,-186L1676,-194L1639,-170L1625,-169L1626,-183L1607,-191L1592,-185L1587,-212L1560,-217L1547,-206L1510,-197L1503,-191L1447,-182L1440,-173L1451,-156L1437,-150L1439,-143L1425,-131L1449,-115L1446,-104L1425,-105L1420,-98L1401,-110L1378,-110L1362,-100L1345,-109L1312,-126L1289,-125L1258,-99L1256,-82L1241,-96L1229,-70L1233,-66L1225,-49L1238,-34L1249,-34L1258,-20L1256,-8L1264,-5L1257,8L1243,11L1228,33L1242,53L1240,66L1256,90L1247,98L1245,103L1238,102L1228,90L1224,89L1215,84L1210,76L1196,72L1187,75L1185,71L1165,62L1143,58L1130,55L1128,57L1109,40L1093,32L1080,20L1090,16L1103,-2L1094,-10L1116,-19L1116,-24L1103,-20L1103,-30L1111,-36L1125,-38L1127,-45L1124,-57L1130,-69L1130,-76L1108,-83L1099,-83L1090,-94L1079,-90L1060,-99L1060,-103L1055,-113L1043,-115L1042,-122L1046,-127L1036,-140L1021,-138L1016,-139L1013,-134L1007,-135L1004,-150L1000,-159L1003,-161L1015,-160L1021,-165L1016,-172L1006,-176L1007,-181L1001,-186L992,-202L995,-209L994,-222L979,-228L971,-225L969,-231L954,-238L949,-254L948,-267L940,-273L947,-282L942,-308L953,-325L951,-330L968,-346L952,-361L984,-400L998,-418L1003,-435L981,-457L987,-479L974,-505L984,-535L967,-577L980,-606L958,-633L960,-662L972,-665L997,-682L1012,-697L1037,-671L1077,-661L1133,-616L1145,-597L1146,-572L1129,-552L1105,-542L1039,-571L1028,-566L1052,-539L1053,-522L1054,-486L1073,-476L1085,-467L1087,-484L1078,-498L1087,-512L1123,-490L1135,-498L1126,-524L1160,-560L1174,-558L1188,-545L1196,-570L1184,-593L1191,-616L1180,-641L1222,-628L1230,-606L1211,-601L1211,-580L1223,-567L1246,-575L1250,-600L1281,-618L1333,-653L1344,-651L1329,-626L1347,-622L1358,-636L1386,-637L1408,-654L1425,-629L1442,-656L1426,-681L1434,-695L1478,-682L1498,-669L1552,-622L1562,-643L1547,-665L1546,-674L1529,-678L1533,-698L1525,-732L1525,-747L1552,-789L1562,-834L1573,-844L1612,-830L1616,-803L1601,-765L1611,-750L1615,-718L1612,-660L1629,-635L1622,-608L1593,-554L1610,-549L1616,-562L1632,-572L1636,-590L1649,-609L1640,-631L1647,-658L1631,-662L1627,-685L1639,-729L1620,-766L1647,-798L1643,-833L1651,-834L1658,-807L1653,-761L1668,-753L1662,-786L1686,-805L1717,-808L1745,-780L1731,-821L1730,-875L1756,-886L1792,-884L1824,-891L1812,-919L1829,-956L1846,-958L1875,-987L1914,-995L1919,-1012L1958,-1017L1970,-1004L2003,-1037L2030,-1036L2035,-1063L2049,-1092L2084,-1120L2109,-1097L2089,-1081L2123,-1071L2127,-1039L2140,-1054L2183,-1054L2217,-1023L2229,-1000L2225,-969L2209,-951L2170,-920L2159,-904L2177,-896L2199,-883L2212,-893L2220,-859L2226,-872L2250,-881L2298,-872L2301,-848L2363,-840L2364,-880L2396,-871L2419,-871L2443,-844L2450,-812L2441,-791L2460,-754L2483,-736L2498,-785L2521,-763L2547,-776L2575,-762L2586,-775L2611,-768L2600,-813L2619,-834L2688,-820L2753,-802L2766,-774L2805,-739L2865,-747L2894,-740L2907,-721L2905,-689L2923,-677L2943,-686L2969,-687L2997,-679L3025,-683L3051,-646L3070,-659L3058,-686L3064,-705L3112,-693L3143,-696L3185,-676L3206,-657L3206,-506ZM3206,-738L3190,-736L3187,-750L3206,-769L3206,-738ZM-2135,-769L-2135,-769L-2135,-769L-2133,-771L-2120,-771L-2099,-758L-2100,-752L-2115,-741L-2135,-738L-2135,-738L-2135,-769ZM1032,4L1036,-1L1046,3L1051,4L1053,9L1055,9L1055,11L1062,16L1078,15L1075,22L1058,26L1038,38L1030,34L1033,24L1017,18L1020,14L1034,7Z" fill="#E0E0E0" stroke="#fff" stroke-width=".4"/><path d="M-231,712L-240,726L-244,737L-250,742L-257,743L-259,739L-262,739L-267,743L-273,740L-269,733L-268,727L-266,720L-271,711L-273,701L-265,688L-260,690L-249,694L-233,706ZM627,-73L634,-67L656,-63L648,-47L646,-32L642,-28L636,-30L636,-24L625,-12L625,-2L632,-6L637,4L637,10L641,18L636,24L640,40L648,43L646,52L632,63L603,58L582,64L580,77L563,79L546,70L541,74L513,65L507,57L515,45L518,3L503,-19L492,-30L469,-39L467,-55L487,-60L512,-54L507,-80L521,-70L555,-88L560,-107L573,-112L575,-104L582,-103L589,-94L599,-83L607,-85L620,-74L623,-72ZM665,74L675,66L677,83L673,98L666,94L662,81Z" fill="#E0E0E0" stroke="#fff" stroke-width=".4"/><path d="M365,588L365,583L364,577L359,573L356,564L355,555L360,552L363,543L367,542L378,547L386,544L392,545L394,541L453,541L457,530L454,528L447,461L440,391L463,391L513,426L563,461L566,469L575,473L582,476L582,486L599,484L599,520L591,531L590,540L576,542L556,544L551,549L541,550L532,550L528,547L520,549L506,556L503,560L492,567L490,571L483,574L476,572L472,576L470,586L458,599L459,604L454,610L455,619L449,621L446,623L444,617L439,619L437,618L434,623L423,623L418,620L416,622L412,617L413,613L411,611L408,613L408,608L411,604L405,597L403,593L400,590L397,590L394,592L389,594L385,597L378,596L374,592L372,591L368,593L366,593Z" fill="#E0E0E0" stroke="#fff" stroke-width=".4"/><path d="M282,455L286,450L344,450L341,427L345,419L359,417L358,375L407,376L407,351L463,391L440,391L447,461L454,528L457,530L453,541L394,541L392,545L386,544L378,547L367,542L363,543L360,552L355,555L345,544L336,533L326,529L319,524L311,524L304,528L296,526L291,531L290,523L294,515L296,501L294,485L293,477L294,470L290,462Z" fill="#E0E0E0" stroke="#fff" stroke-width=".4"/><path d="M756,425L760,450L765,454L765,459L772,465L768,472L763,503L762,524L743,538L736,559L743,564L743,574L752,574L751,582L746,582L746,587L743,588L733,571L730,570L718,579L707,574L699,573L694,576L686,575L677,582L669,582L651,574L644,578L637,578L631,572L616,566L600,568L597,571L594,580L590,586L589,600L578,591L573,591L568,595L568,585L551,582L550,574L542,564L540,557L541,550L551,549L556,544L576,542L590,540L591,531L599,520L599,484L620,477L663,446L714,416L737,423L745,431Z" fill="#E0E0E0" stroke="#fff" stroke-width=".4"/><path d="M676,302L670,271L661,264L661,259L649,249L647,235L656,225L660,210L657,193L661,183L677,176L687,178L687,187L699,181L700,184L693,193L693,202L698,206L696,222L686,231L689,241L697,241L700,250L706,252L705,266L698,271L693,277L683,283L685,290L684,298Z" fill="#E0E0E0" stroke="#fff" stroke-width=".4"/><path d="M407,351L407,348L407,347L407,327L431,314L446,312L458,307L464,298L481,292L481,279L490,277L497,271L516,268L519,261L515,257L510,238L509,228L503,216L518,206L534,203L543,195L557,190L583,186L607,185L615,188L628,180L644,180L650,184L661,183L657,193L660,210L656,225L647,235L649,249L661,259L661,264L670,271L676,302L681,317L682,325L679,339L680,346L678,355L680,366L674,373L683,385L683,392L688,401L695,398L707,405L714,416L663,446L620,477L599,484L582,486L582,476L575,473L566,469L563,461L513,426L463,391Z" fill="#E0E0E0" stroke="#fff" stroke-width=".4"/><path d="M954,-238L969,-231L971,-225L979,-228L994,-222L995,-209L992,-202L1001,-186L1007,-181L1006,-176L1016,-172L1021,-165L1015,-160L1003,-161L1000,-159L1004,-150L1007,-135L994,-133L990,-128L989,-116L983,-118L970,-117L966,-123L960,-119L955,-122L943,-123L926,-128L911,-130L900,-130L892,-123L885,-122L884,-133L880,-144L889,-149L889,-159L885,-168L884,-179L898,-179L914,-189L918,-203L930,-212L929,-223L938,-228Z" fill="#E0E0E0" stroke="#fff" stroke-width=".4"/><path d="M1007,-135L1013,-134L1016,-139L1021,-138L1036,-140L1046,-127L1042,-122L1043,-115L1055,-113L1060,-103L1060,-99L1079,-90L1090,-94L1099,-83L1108,-83L1130,-76L1130,-69L1124,-57L1127,-45L1125,-38L1111,-36L1103,-30L1103,-20L1091,-18L1081,-11L1067,-10L1054,-2L1055,9L1053,9L1051,4L1046,3L1036,-1L1032,4L1030,2L1007,-4L1006,-12L992,-9L986,3L975,19L968,15L961,18L954,14L958,12L961,5L965,-2L964,-6L967,-8L968,-5L977,-4L981,-6L978,-8L979,-11L974,-16L972,-26L967,-29L968,-37L961,-43L955,-43L944,-50L934,-48L931,-45L924,-45L921,-40L910,-38L905,-34L898,-40L888,-40L879,-42L873,-37L872,-43L863,-49L866,-58L870,-64L873,-63L870,-73L883,-92L891,-95L892,-102L885,-122L892,-123L900,-130L911,-130L926,-128L943,-123L955,-122L960,-119L966,-123L970,-117L983,-118L989,-116L990,-128L994,-133Z" fill="#E0E0E0" stroke="#fff" stroke-width=".4"/><path d="M884,-179L885,-168L889,-159L889,-149L880,-144L884,-133L885,-122L892,-102L891,-95L883,-92L870,-73L873,-63L870,-64L856,-73L845,-70L838,-72L830,-67L822,-75L816,-72L815,-74L808,-85L797,-86L796,-94L786,-96L784,-90L776,-95L776,-101L765,-103L758,-111L752,-126L753,-135L750,-148L744,-156L749,-163L745,-176L755,-183L778,-195L797,-203L812,-199L813,-193L827,-192L846,-190L873,-190L880,-187Z" fill="#E0E0E0" stroke="#fff" stroke-width=".4"/><path d="M787,-43L786,-34L778,-34L781,-29L776,-15L773,-11L760,-11L753,-6L740,-7L719,-13L716,-20L701,-17L700,-13L691,-16L683,-16L676,-20L678,-26L678,-29L682,-31L690,-25L692,-30L705,-29L716,-33L723,-33L727,-28L729,-32L727,-46L732,-49L737,-60L748,-52L757,-62L762,-63L773,-56L780,-57L787,-53L786,-50Z" fill="#E0E0E0" stroke="#fff" stroke-width=".4"/><path d="M863,-49L872,-43L873,-37L863,-33L856,-18L847,-3L836,1L826,-0L815,6L809,9L797,5L786,-5L781,-7L778,-15L776,-15L781,-29L778,-34L786,-34L787,-43L795,-37L801,-35L813,-37L814,-42L820,-42L827,-46L829,-44L836,-47L839,-52L844,-54L860,-47Z" fill="#E0E0E0" stroke="#fff" stroke-width=".4"/><path d="M931,-45L934,-48L944,-50L955,-43L961,-43L968,-37L967,-29L972,-26L974,-16L979,-11L978,-8L981,-6L977,-4L968,-5L967,-8L964,-6L965,-2L961,5L958,12L954,14L952,5L953,-4L953,-14L944,-27L940,-36L935,-43Z" fill="#E0E0E0" stroke="#fff" stroke-width=".4"/><path d="M954,14L961,18L968,15L975,19L975,24L968,29L963,27L959,52L951,49L940,42L922,47L915,52L893,51L882,48L876,49L872,41L869,37L872,34L869,31L864,36L855,30L854,21L845,16L844,9L836,1L847,-3L856,-18L863,-33L873,-37L879,-42L888,-40L898,-40L905,-34L910,-38L921,-40L924,-45L931,-45L935,-43L940,-36L944,-27L953,-14L953,-4L952,5Z" fill="#E0E0E0" stroke="#fff" stroke-width=".4"/><path d="M929,-223L930,-212L918,-203L914,-189L898,-179L884,-179L880,-187L873,-190L872,-196L873,-203L867,-208L851,-212L848,-234L865,-242L890,-241L904,-243L906,-238L914,-236Z" fill="#E0E0E0" stroke="#fff" stroke-width=".4"/><path d="M745,-176L749,-163L744,-156L750,-148L753,-135L752,-126L758,-111L752,-109L748,-111L744,-107L733,-102L728,-96L717,-91L720,-84L721,-75L729,-69L737,-60L732,-49L727,-46L729,-32L727,-28L723,-33L716,-33L705,-29L692,-30L690,-25L682,-31L678,-29L662,-36L659,-31L646,-32L648,-47L656,-63L634,-67L627,-73L628,-83L625,-88L627,-104L624,-129L633,-129L637,-138L641,-160L638,-169L641,-174L653,-175L656,-170L666,-182L663,-192L662,-206L673,-203L683,-207L683,-197L698,-191L698,-182L713,-187L721,-194L738,-184Z" fill="#E0E0E0" stroke="#fff" stroke-width=".4"/><path d="M872,41L876,49L882,48L893,51L915,52L922,47L940,42L951,49L959,52L952,60L946,75L951,86L938,83L923,90L923,99L909,101L899,94L887,100L876,99L875,86L868,80L870,77L868,74L871,68L877,62L869,53L868,45Z" fill="#E0E0E0" stroke="#fff" stroke-width=".4"/><path d="M926,214L924,219L902,220L903,217L884,214L887,206L895,212L907,211L918,213L918,216ZM876,99L887,100L899,94L909,101L923,99L923,90L930,95L926,107L922,109L913,109L905,107L887,112L898,123L890,126L882,126L874,116L871,120L875,132L882,141L876,145L885,154L892,159L892,170L878,165L883,175L873,177L879,193L869,193L857,185L852,170L849,158L843,149L836,138L835,133L841,123L842,117L847,114L847,109L857,107L863,103L871,103L873,100Z" fill="#E0E0E0" stroke="#fff" stroke-width=".4"/><path d="M1200,179L1193,182L1188,178L1170,175L1164,178L1147,181L1139,181L1122,188L1110,188L1102,184L1086,189L1081,186L1080,196L1076,200L1072,204L1066,196L1072,189L1063,190L1051,186L1040,197L1018,199L1006,189L990,188L986,196L976,198L962,188L946,189L937,170L926,160L933,145L924,136L940,117L963,117L969,102L998,104L1015,91L1033,86L1057,85L1083,99L1105,107L1122,104L1135,106L1152,95L1168,94L1182,104L1185,111L1183,121L1194,125L1200,131L1190,136L1195,158L1192,164ZM923,90L938,83L951,86L953,94L966,100L963,105L945,106L939,112L927,123L922,113L922,109L926,107L930,95Z" fill="#E0E0E0" stroke="#fff" stroke-width=".4"/><path d="M847,109L847,114L842,117L841,123L835,133L832,131L832,127L823,121L822,111L823,98L825,92L823,89L822,82L828,72L829,76L833,74L837,80L840,82L841,89L839,96L841,104Z" fill="#E0E0E0" stroke="#fff" stroke-width=".4"/><path d="M781,-7L786,-5L797,5L809,9L815,6L819,14L823,20L818,28L811,23L801,23L788,20L781,20L778,25L772,20L769,29L776,38L780,45L787,52L792,57L798,65L811,73L809,76L795,69L787,62L773,56L761,41L764,39L757,30L757,23L747,20L743,29L738,22L739,15L739,14L749,15L752,11L757,15L763,15L763,9L768,7L770,-2Z" fill="#E0E0E0" stroke="#fff" stroke-width=".4"/><path d="M678,-29L678,-26L676,-20L683,-16L691,-16L689,-7L683,-3L672,-6L669,3L662,3L659,0L651,7L644,8L637,4L632,-6L625,-2L625,-12L636,-24L636,-30L642,-28L646,-32L659,-31L662,-36Z" fill="#E0E0E0" stroke="#fff" stroke-width=".4"/><path d="M625,-88L628,-83L627,-73L623,-72L620,-74L621,-87Z" fill="#E0E0E0" stroke="#fff" stroke-width=".4"/><path d="M627,-104L625,-88L621,-87L620,-74L607,-85L599,-83L589,-94L582,-103L575,-104L573,-112L585,-117L596,-115L609,-120L619,-109Z" fill="#E0E0E0" stroke="#fff" stroke-width=".4"/><path d="M638,-169L641,-160L637,-138L633,-129L624,-129L627,-104L619,-109L609,-120L596,-115L585,-117L592,-123L605,-159L626,-169Z" fill="#E0E0E0" stroke="#fff" stroke-width=".4"/><path d="M425,180L424,174L429,167L431,162L426,157L430,144L424,133L431,131L431,122L434,119L434,104L441,98L437,88L428,88L425,90L417,90L413,81L407,83L402,88L402,74L396,65L417,51L435,54L455,54L471,58L483,57L507,57L513,65L541,74L546,70L563,79L580,77L581,88L567,101L548,106L546,112L537,123L531,139L537,150L529,158L525,170L514,174L504,188L485,189L471,188L461,195L456,202L449,200L443,194L439,183Z" fill="#E0E0E0" stroke="#fff" stroke-width=".4"/><path d="M444,-178L446,-160L435,-139L409,-124L388,-128L400,-153L392,-179L412,-199L423,-211L426,-197L423,-183L432,-184Z" fill="#E0E0E0" stroke="#fff" stroke-width=".4"/><path d="M691,-16L700,-13L701,-17L716,-20L719,-13L740,-7L739,3L742,12L731,9L718,17L719,27L717,33L722,44L736,54L744,71L760,87L772,87L775,91L771,95L785,102L796,108L808,119L810,122L807,129L799,120L786,117L780,129L790,137L789,147L782,148L774,164L768,165L768,160L771,149L775,145L769,134L764,125L758,122L754,114L744,110L738,102L727,101L715,92L702,79L692,67L687,47L680,45L667,38L661,41L652,50L646,52L648,43L640,40L636,24L641,18L637,10L637,4L644,8L651,7L659,0L662,3L669,3L672,-6L683,-3L689,-7ZM755,161L766,159L761,174L763,180L760,189L748,182L741,180L720,171L722,161L739,163ZM665,108L672,102L681,116L679,141L672,140L666,146L661,141L660,118L657,107Z" fill="#E0E0E0" stroke="#fff" stroke-width=".4"/><path d="M444,-178L432,-184L423,-183L426,-197L423,-211L436,-212L452,-196ZM490,-167L490,-167L492,-181L482,-197L482,-197L464,-202L460,-209L466,-220L461,-228L453,-215L452,-241L444,-254L450,-283L461,-306L473,-303L491,-306L475,-275L490,-279L507,-279L503,-257L489,-233L505,-231L506,-228L519,-198L529,-193L538,-165L543,-155L561,-150L559,-135L551,-128L557,-115L544,-103L524,-103L499,-97L492,-101L482,-90L468,-93L458,-84L450,-89L472,-113L485,-119L485,-119L462,-123L457,-132L473,-140L465,-153L468,-169Z" fill="#E0E0E0" stroke="#fff" stroke-width=".4"/><path d="M740,-7L753,-6L760,-11L773,-11L776,-15L778,-15L781,-7L770,-2L768,7L763,9L763,15L757,15L752,11L749,15L739,14L742,12L739,3Z" fill="#E0E0E0" stroke="#fff" stroke-width=".4"/><path d="M870,-64L866,-58L863,-49L860,-47L844,-54L839,-52L836,-47L829,-44L827,-46L820,-42L814,-42L813,-37L801,-35L795,-37L787,-43L786,-50L787,-53L789,-58L796,-58L801,-60L801,-62L804,-63L805,-68L809,-69L811,-74L815,-74L816,-72L822,-75L830,-67L838,-72L845,-70L856,-73Z" fill="#E0E0E0" stroke="#fff" stroke-width=".4"/><path d="M758,-111L765,-103L776,-101L776,-95L784,-90L786,-96L796,-94L797,-86L808,-85L815,-74L811,-74L809,-69L805,-68L804,-63L801,-62L801,-60L796,-58L789,-58L787,-53L780,-57L773,-56L762,-63L757,-62L748,-52L737,-60L729,-69L721,-75L720,-84L717,-91L728,-96L733,-102L744,-107L748,-111L752,-109Z" fill="#E0E0E0" stroke="#fff" stroke-width=".4"/><path d="M503,216L509,228L510,238L515,257L519,261L516,268L497,271L490,277L481,279L481,292L464,298L458,307L446,312L431,314L407,327L407,347L405,347L405,356L396,356L391,360L384,360L379,358L367,360L362,372L357,374L350,394L330,412L325,434L319,441L317,447L283,448L283,448L284,441L289,437L294,428L293,423L298,411L307,401L312,398L316,389L316,380L321,370L331,364L341,347L341,347L348,340L362,338L374,327L381,322L394,308L390,287L396,272L398,262L407,251L422,242L433,235L443,216L448,205L459,205L467,213L482,212L497,216Z" fill="#E0E0E0" stroke="#fff" stroke-width=".4"/><path d="M1083,439L1024,439L966,439L906,439L906,379L906,320L902,306L906,296L904,288L909,280L929,280L943,284L958,289L965,292L976,287L982,282L995,280L1006,282L1010,291L1013,285L1025,289L1037,290L1044,286L1052,311L1054,316L1050,322L1046,335L1042,344L1039,347L1034,341L1027,334L1017,310L1015,311L1021,329L1030,346L1042,372L1047,381L1052,390L1065,408L1062,411L1063,421L1080,436Z" fill="#E0E0E0" stroke="#fff" stroke-width=".4"/><path d="M906,439L906,471L889,471L889,478L830,447L771,417L756,425L745,431L737,423L714,416L707,405L695,398L688,401L683,392L683,385L674,373L680,366L678,355L680,346L679,339L682,325L681,317L676,302L684,298L685,290L683,283L693,277L698,271L705,266L706,252L723,258L730,257L742,260L762,268L769,283L782,287L803,294L819,302L826,298L833,290L830,277L834,268L845,260L855,258L875,261L880,269L886,269L891,272L905,274L909,280L904,288L906,296L902,306L906,320L906,379Z" fill="#E0E0E0" stroke="#fff" stroke-width=".4"/><path d="M811,73L798,65L792,57L787,52L780,45L776,38L769,29L772,20L778,25L781,20L788,20L801,23L811,23L818,28L823,28L819,37L826,45L824,54L821,55L818,57L813,62Z" fill="#E0E0E0" stroke="#fff" stroke-width=".4"/><path d="M868,80L875,86L876,99L873,100L871,103L863,103L857,107L847,109L841,104L839,96L841,89L843,89L844,85L852,82L856,81L861,80Z" fill="#E0E0E0" stroke="#fff" stroke-width=".4"/><path d="M815,6L826,-0L836,1L844,9L845,16L854,21L855,30L864,36L869,31L872,34L869,37L872,41L868,45L869,53L877,62L871,68L868,74L870,77L868,80L861,80L856,81L855,80L857,77L859,72L857,73L854,69L851,68L849,65L847,63L844,60L842,62L840,68L836,70L837,68L832,64L827,62L825,59L821,55L824,54L826,45L819,37L823,28L818,28L823,20L819,14Z" fill="#E0E0E0" stroke="#fff" stroke-width=".4"/><path d="M833,74L829,76L828,72L822,82L823,89L820,87L816,81L809,76L811,73L813,62L818,57L821,55L825,59L827,62L832,64L837,68L836,70Z" fill="#E0E0E0" stroke="#fff" stroke-width=".4"/><path d="M841,89L840,82L837,80L833,74L836,70L840,68L842,62L844,60L847,63L849,65L851,68L854,69L857,73L859,72L857,77L855,80L856,81L852,82L844,85L843,89Z" fill="#E0E0E0" stroke="#fff" stroke-width=".4"/></g><g clip-path="url(#v)"><path d="M280.5,257.1L282.6,258.0L284.4,257.6L286.7,258.8L288.0,259.1L286.9,259.9L285.8,261.0L283.1,260.7L280.9,259.7L280.1,258.9L279.8,258.2ZM405.4,87.3L406.8,86.0L408.2,85.0L408.9,84.7L412.1,83.8L412.9,83.4L413.7,83.5L413.9,83.9L414.3,84.7L414.9,85.3L415.0,85.7L413.7,87.6L413.6,88.2L414.2,89.4L414.3,89.7L414.7,89.9L415.5,89.8L417.1,89.1L418.1,88.4L418.4,88.7L421.5,88.3L422.2,88.6L422.7,89.0L424.2,89.4L425.8,89.4L427.7,88.8L428.6,88.2L428.8,87.5L428.9,87.0L429.1,86.7L429.6,86.5L430.3,86.8L431.3,87.1L433.7,87.2L434.2,86.9L435.1,87.0L436.1,87.4L437.4,87.3L438.0,87.9L438.3,88.6L438.4,90.3L438.3,92.0L438.5,92.7L439.4,92.8L440.8,92.8L442.0,93.2L443.0,94.0L443.3,94.9L443.4,95.4L443.0,95.8L442.3,97.0L440.6,98.5L438.2,99.9L436.3,101.7L435.1,103.8L433.5,104.7L433.0,105.2L432.8,105.8L433.9,108.3L434.2,110.3L434.5,112.7L434.3,113.4L434.2,116.1L433.9,116.8L434.0,117.4L434.4,118.1L434.6,118.8L433.8,119.6L432.5,120.6L431.5,121.4L431.3,122.2L431.3,122.7L433.0,124.3L433.3,125.0L433.1,126.7L432.1,129.3L431.2,131.0L431.0,131.1L430.0,131.6L425.0,131.6L423.8,132.0L423.9,132.3L425.1,134.4L426.3,135.5L426.8,135.8L427.2,138.2L429.2,142.1L431.1,142.6L431.8,143.6L431.6,144.9L431.0,146.5L429.9,148.0L428.5,149.0L427.6,150.1L427.5,151.3L427.2,152.9L426.8,154.1L426.7,155L430.2,160.2L432.1,160.0L432.4,160.1L432.0,161.3L431.4,162.8L430.7,163.1L429.0,163.5L427.4,165.4L426.1,167.6L425.2,168.7L424.3,171.4L424.4,172.5L424.8,174.3L425.7,179.0L424.4,179.2L419.4,182.2L417.8,182.2L414.9,180.9L409.7,180.4L408.0,180.1L405.9,180.9L404.3,180.9L403.0,182.0L402.1,181.7L403.2,179.2L404.8,174.3L404.8,171.3L405.1,168.6L404.7,166.0L403.9,164.4L405.0,160.2L404.9,158.0L403.9,155.2L407.0,155.6L406.0,154.5L405.0,153.8L404.1,154.0L403.3,153.9L400.7,155.0L399.3,155.4L398.9,155.2L399.1,153.5L398.4,151.2L399.4,150.6L400.7,150.5L401.8,149.5L402.4,148.4L402.0,146.5L403.0,144.7L405.1,143.2L404.0,143.4L402.7,144.4L400.7,147.8L400.1,149.6L398.3,150.1L396.8,150.4L396.0,150.2L395.1,149.8L394.9,148.5L395.1,147.5L395.7,145.4L395.9,142.5L396.9,139.9L396.8,139.2L396.5,138.2L397.3,137.2L398.4,136.5L399.9,134.3L402.0,128.9L404.5,123.2L404.3,122.5L403.8,122.0L404.0,120.4L405.5,113.7L406.1,112.8L406.7,110.8L406.9,107.6L407.2,105.4L407.1,104.2L406.9,102.9L405.9,100.3L405.0,94.9L404.9,93.0L405.7,92.1L404.3,92.0L403.8,90.8L403.9,89.5ZM164.3,183.1L164.2,183.4L163.4,183.3L162.4,183.4L161.8,182.4L162.3,182.0L163.5,181.9L164.1,182.3ZM73.6,136.9L73.0,137.8L71.9,137.5L71.5,137.1L71.8,135.2L72.7,134.7L73.6,135.5ZM133.9,151.4L133.6,151.6L130.5,151.1L129.7,150.4L129.3,149.1L129.8,148.7L131.2,148.4L133.1,148.7L134.4,149.6L134.4,150.8ZM123.5,153.1L122.8,153.4L118.8,151.9L117.4,151.2L115.6,149.5L120.8,151.6ZM110.7,153.7L109.2,153.7L107.7,152.3L109.9,151.5L110.5,152.0L110.9,152.5L111.2,153.2ZM118.0,155.1L119.3,155.8L117.4,156.0L116.8,156.3L115.3,155.8L113.5,155.9L112.3,154.9L112.0,153.8L112.6,153.2L114.2,153.2ZM155.1,166.6L156,166.8L160.8,166.5L162.0,166.7L161.9,168.1L161.0,168.6L158.2,169.0L153.8,168.1L152.4,166.9L152.2,166.0L152.2,165.6L153.1,165.3Z" fill="#4ECDC4" stroke="#2C3E50" stroke-width="1"/></g><circle cx="400.0" cy="150.0" r="4" fill="#E74C3C" stroke="#fff" stroke-width="2"/><text x="400.0" y="140.0" text-anchor="middle" font-family="sans-serif" font-weight="700" font-size="10" fill="#2D3436">Lisbon</text></svg>