<svg viewBox="0 0 800 300" xmlns="http://www.w3.org/2000/svg"><defs><clipPath id="v"><rect width="800" height="300"/></clipPath></defs><rect width="800" height="300" fill="#DCEEF8"/><g clip-path="url(#v)"><path d="M562,408L607,425L654,440L671,453L685,466L689,481L732,497L738,510L714,513L720,530L743,547L759,574L774,574L773,585L793,589L785,594L812,605L809,613L792,614L786,608L764,605L738,601L719,584L704,570L691,548L658,536L636,544L621,552L624,571L604,580L590,576L563,575L563,491ZM859,435L869,443L872,456L864,463L859,448L853,438L841,430L827,419L809,411L816,405L829,412L838,418L849,424ZM825,491L811,497L798,503L784,503L763,495L749,488L751,480L774,484L788,482L792,470L795,469L798,483L812,481L819,472L834,463L831,448L846,447L851,451L851,466L842,481L829,483ZM913,478L921,483L933,500L945,508L941,516L934,518L923,508L912,492L907,473L910,470Z" fill="#E0E0E0" stroke="#fff" stroke-width=".4"/><path d="M562,408L563,491L563,575L541,554L515,548L508,556L476,556L487,536L503,528L496,501L484,479L435,457L414,455L376,432L368,444L358,446L353,437L352,426L333,413L360,404L379,405L376,398L339,398L329,383L306,378L296,365L330,359L343,351L384,361L388,371L395,412L421,427L443,400L472,385L494,385L516,394L535,403ZM154,569L157,574L157,582L141,601L119,607L116,604L118,595L129,579ZM390,518L387,498L392,489L397,480L403,488L403,500ZM-26,236L-41,259L-22,283L-26,295L2,319L-28,322L-37,339L-35,362L-60,379L-61,405L-70,444L-74,435L-103,446L-113,431L-131,429L-144,421L-174,430L-184,418L-200,419L-221,416L-225,382L-238,375L-250,353L-254,331L-251,307L-236,290L-231,307L-214,322L-197,317L-181,318L-166,306L-154,303L-130,311L-109,305L-96,270L-86,261L-78,232L-48,232ZM266,413L294,420L304,440L282,429L261,427L246,429L229,428L235,414ZM203,438L185,433L180,422L206,421L212,430ZM230,286L232,300L247,302L249,313L248,335L234,332L231,348L241,361L234,364L224,348L216,316L221,295ZM102,319L132,318L157,300L161,305L141,331L122,336L97,331L55,332L32,335L29,355L52,377L65,366L113,357L111,369L100,365L89,380L66,390L90,423L86,431L108,461L108,478L95,485L85,476L97,455L72,465L66,458L69,448L51,433L53,408L35,416L38,446L39,483L23,486L12,479L19,455L15,431L4,430L-4,413L7,396L11,376L23,338L29,327L50,308L70,316ZM35,604L1,586L25,581L39,589L47,597L46,604ZM62,560L79,558L102,548L98,563L60,570L26,567L26,557L46,552ZM-17,555L-1,553L5,564L-24,569L-42,573L-55,572L-47,558L-33,557L-26,548ZM-266,505L-262,515L-213,517L-208,507L-160,519L-151,535L-113,540L-82,555L-111,565L-139,555L-162,556L-188,554L-212,549L-241,539L-260,537L-271,540L-317,529L-322,518L-345,516L-327,492L-297,493L-276,503ZM-370,369L-366,387L-357,401L-338,403L-326,420L-332,451L-333,491L-362,491L-383,470L-416,449L-427,434L-446,413L-459,394L-478,358L-500,337L-508,315L-517,295L-540,279L-553,257L-573,243L-599,215L-601,202L-585,203L-546,208L-523,233L-503,250L-489,261L-465,288L-439,288L-418,306L-403,327L-384,339L-394,360L-379,368Z" fill="#E0E0E0" stroke="#fff" stroke-width=".4"/><path d="M-240,-130L-261,-138L-262,-161L-249,-174L-222,-181L-207,-181L-201,-170L-212,-158L-218,-143ZM-984,-851L-986,-871L-969,-880L-992,-941L-941,-956L-928,-964L-910,-1030L-859,-1018L-845,-1035L-844,-1073L-823,-1076L-803,-1102L-793,-1105L-787,-1078L-765,-1058L-729,-1044L-711,-1014L-721,-970L-712,-955L-682,-949L-648,-944L-617,-921L-601,-917L-589,-885L-575,-864L-546,-865L-494,-857L-460,-862L-435,-857L-397,-836L-366,-836L-355,-825L-325,-844L-284,-856L-246,-857L-216,-869L-198,-888L-180,-900L-184,-911L-193,-925L-179,-948L-165,-945L-139,-938L-113,-957L-75,-971L-56,-995L-38,-1006L-1,-1010L19,-1006L22,-1020L-1,-1046L-22,-1058L-41,-1044L-66,-1050L-81,-1045L-87,-1061L-69,-1099L-57,-1129L-26,-1114L10,-1139L9,-1156L32,-1199L47,-1213L46,-1235L32,-1245L53,-1267L85,-1274L119,-1275L157,-1263L179,-1247L195,-1205L204,-1187L213,-1163L223,-1124L267,-1111L297,-1083L307,-1047L346,-1047L368,-1062L410,-1074L397,-1039L387,-1026L378,-985L361,-950L330,-956L308,-943L315,-913L311,-871L298,-870L299,-853L282,-873L272,-854L233,-839L237,-821L215,-822L203,-833L185,-809L157,-791L136,-769L101,-760L82,-744L55,-735L68,-750L63,-763L83,-786L69,-803L47,-791L18,-768L3,-747L-22,-745L-35,-730L-22,-708L-1,-703L-0,-688L20,-679L49,-702L71,-689L88,-688L92,-672L56,-663L44,-646L19,-630L6,-608L34,-591L44,-561L59,-533L76,-510L76,-488L60,-480L66,-464L81,-455L77,-431L71,-408L56,-406L38,-374L17,-337L-7,-304L-42,-278L-77,-255L-106,-251L-121,-239L-130,-248L-144,-234L-180,-221L-207,-216L-216,-188L-230,-186L-236,-206L-230,-216L-265,-225L-277,-221L-302,-228L-314,-239L-310,-255L-334,-260L-346,-270L-368,-256L-392,-252L-413,-253L-426,-246L-439,-242L-436,-210L-449,-211L-452,-218L-452,-229L-471,-221L-482,-226L-501,-236L-493,-259L-510,-265L-516,-290L-543,-285L-540,-319L-515,-342L-514,-366L-515,-388L-526,-394L-535,-411L-550,-409L-577,-414L-568,-426L-580,-444L-599,-432L-620,-439L-649,-420L-672,-399L-693,-395L-704,-403L-718,-404L-736,-410L-750,-403L-766,-382L-769,-404L-784,-398L-814,-401L-843,-408L-863,-420L-883,-426L-892,-440L-906,-444L-932,-463L-952,-472L-963,-465L-998,-486L-1023,-505L-1030,-538L-1012,-534L-1011,-549L-1021,-565L-1019,-590L-1046,-626L-1088,-639L-1095,-663L-1114,-678L-1119,-687L-1123,-706L-1122,-718L-1137,-726L-1145,-722L-1152,-753L-1145,-760L-1148,-768L-1124,-784L-1106,-790L-1079,-786L-1070,-807L-1037,-811L-1028,-825L-988,-843Z" fill="#E0E0E0" stroke="#fff" stroke-width=".4"/><path d="M49,15L36,-5L58,-4L67,6L60,28ZM94,86L100,79L103,63L117,61L113,79L132,54L129,78L120,87L112,103L104,111L88,93ZM190,126L193,144L194,158L186,181L176,155L164,168L172,187L165,199L135,184L128,166L136,154L120,141L112,152L100,151L81,165L77,158L87,136L103,129L116,119L125,131L145,124L149,112L167,112L166,92L186,104L188,117ZM-10,103L-44,128L-32,110L-13,94L2,76L15,50L20,71L3,85ZM87,-131L83,-119L92,-100L85,-78L70,-69L66,-48L72,-27L85,-24L97,-27L128,-13L126,1L134,8L132,20L112,7L102,-7L96,3L80,-13L56,-9L44,-15L45,-26L53,-32L45,-38L42,-29L29,-44L26,-56L25,-81L35,-72L38,-114L46,-138L61,-138L77,-130L85,-137ZM80,49L76,36L91,45L107,45L107,55L95,66L79,74L78,62ZM168,29L175,58L155,52L156,60L162,76L150,82L149,64L141,63L137,47L152,49L152,39L136,19L161,20Z" fill="#E0E0E0" stroke="#fff" stroke-width=".4"/><path d="M-479,177L-475,172L-454,183L-452,196L-435,193L-427,183L-421,185L-406,201L-395,218L-394,235L-397,247L-394,255L-392,270L-383,277L-373,300L-374,309L-392,310L-416,291L-446,271L-449,258L-464,241L-467,220L-477,206L-474,187ZM-26,236L-48,232L-78,232L-86,261L-96,270L-109,305L-130,311L-154,303L-166,306L-181,318L-197,317L-214,322L-231,307L-236,290L-217,299L-197,294L-192,273L-181,268L-151,262L-132,242L-120,226L-108,239L-103,231L-91,232L-89,215L-88,203L-68,185L-56,165L-45,165L-32,178L-31,189L-14,196L7,204L5,214L-12,215L-7,227Z" fill="#E0E0E0" stroke="#fff" stroke-width=".4"/><path d="M-88,203L-89,215L-91,232L-103,231L-108,239L-120,226L-110,217Z" fill="#E0E0E0" stroke="#fff" stroke-width=".4"/></g><g clip-path="url(#v)"><path d="M312.2,264.4L311.7,264.6L311.3,264.5L311.3,264.1L311.7,263.7L312.2,263.5L312.6,263.7L312.6,264.0ZM399.4,153.0L397.8,153.6L397.1,151.6L397.4,149.3L398.4,147.6L399.5,147.0L399.7,146.8L400.8,144.6L401.0,145.8L400.3,150.0L399.5,151.6Z" fill="#4ECDC4" stroke="#2C3E50" stroke-width="1"/></g><circle cx="400.0" cy="150.0" r="4" fill="#E74C3C" stroke="#fff" stroke-width="2"/><text x="400.0" y="140.0" text-anchor="middle" font-family="sans-serif" font-weight="700" font-size="10" fill="#2D3436">Ngerulmud</text></svg>