<svg viewBox="0 0 800 300" xmlns="http://www.w3.org/2000/svg"><defs><clipPath id="v"><rect width="800" height="300"/></clipPath></defs><rect width="800" height="300" fill="#DCEEF8"/><g clip-path="url(#v)"><path d="M3559,38L3563,36L3567,40L3565,47L3557,49L3549,48L3548,41L3553,37ZM3585,25L3576,28L3567,31L3566,26L3572,23L3577,22L3585,18L3585,18L3585,25ZM-1241,18L-1241,18L-1241,18L-1238,17L-1240,24L-1241,25L-1241,25L-1241,18Z" fill="#E0E0E0" stroke="#fff" stroke-width=".4"/><path d="M252,633L257,643L264,660L281,674L300,679L294,691L281,692L274,684L266,683L252,683ZM399,225L396,238L392,254L393,270L390,273L389,284L388,292L405,306L403,317L411,325L411,333L398,354L378,364L351,367L336,365L339,376L336,389L339,398L331,404L317,406L304,400L299,405L301,422L310,428L317,422L321,432L309,437L298,449L296,467L293,477L280,478L270,487L266,502L279,516L292,520L287,538L271,549L263,573L251,582L245,591L249,614L258,626L253,625L240,622L208,619L202,606L203,590L194,592L189,584L188,562L198,553L202,540L201,530L208,513L213,487L211,476L217,473L216,466L209,462L214,454L208,447L205,426L210,422L208,400L211,382L215,367L223,361L219,344L219,329L229,318L228,304L236,288L236,273L233,270L226,243L235,227L233,212L238,198L247,184L256,174L252,169L255,164L255,139L269,132L274,117L272,113L283,100L301,103L309,114L314,102L329,103L332,106L356,130L367,132L384,143L397,149L399,155L386,178L400,182L415,184L425,182L437,170L440,157L446,154L453,163L453,175L441,183L432,189L417,204Z" fill="#E0E0E0" stroke="#fff" stroke-width=".4"/><path d="M252,633L252,683L266,683L274,684L270,693L258,701L252,700L244,698L234,691L220,688L203,675L190,662L171,637L182,642L201,657L219,665L226,655L230,639L242,630ZM239,39L246,49L247,59L254,65L250,79L257,95L263,115L272,113L274,117L269,132L255,139L255,164L252,169L256,174L247,184L238,198L233,212L235,227L226,243L233,270L236,273L236,288L228,304L229,318L219,329L219,344L223,361L215,367L211,382L208,400L210,422L205,426L208,447L214,454L209,462L216,466L217,473L211,476L213,487L208,513L201,530L202,540L198,553L188,562L189,584L194,592L203,590L202,606L208,619L240,622L253,625L241,625L234,630L222,638L220,659L214,660L199,653L184,637L167,624L163,611L167,598L160,584L158,549L164,529L178,514L158,508L171,491L175,460L190,466L197,428L188,423L184,446L175,444L180,418L184,385L190,373L187,356L185,337L191,336L199,310L209,284L214,260L211,236L215,223L214,204L221,186L224,157L228,126L232,94L231,70L229,50L235,47Z" fill="#E0E0E0" stroke="#fff" stroke-width=".4"/><path d="M399,225L408,223L422,235L427,235L440,245L451,254L459,265L453,272L456,281L451,291L435,300L426,297L418,299L406,292L397,293L389,284L390,273L393,270L392,254L396,238Z" fill="#E0E0E0" stroke="#fff" stroke-width=".4"/><path d="M456,281L453,272L459,265L451,254L440,245L427,235L422,235L408,223L399,225L417,204L432,189L441,183L453,175L453,163L446,154L440,157L442,149L444,140L444,132L439,129L434,131L429,131L428,125L426,112L424,107L415,104L409,106L395,104L396,84L392,76L396,73L395,65L399,59L401,48L398,39L391,35L389,29L391,21L365,21L360,5L364,4L364,-2L361,-6L361,-14L353,-18L345,-18L339,-22L330,-24L325,-29L310,-32L295,-44L296,-53L295,-58L296,-69L278,-66L271,-61L260,-56L257,-52L250,-51L240,-52L232,-50L226,-52L227,-72L216,-64L204,-65L199,-72L190,-73L193,-79L186,-87L180,-99L184,-101L184,-107L192,-111L190,-118L194,-123L195,-129L210,-138L221,-141L223,-143L235,-142L241,-179L241,-185L239,-193L233,-198L233,-207L241,-210L244,-208L244,-213L236,-215L236,-223L262,-223L267,-227L270,-223L273,-215L275,-217L283,-210L293,-211L296,-215L306,-218L311,-220L313,-226L322,-230L322,-232L310,-234L308,-242L309,-251L303,-255L306,-256L315,-254L326,-251L330,-254L340,-256L355,-261L360,-266L358,-270L365,-271L368,-267L366,-262L371,-259L374,-253L370,-248L368,-237L371,-230L372,-224L381,-218L387,-217L389,-220L393,-220L399,-223L403,-226L411,-225L414,-226L421,-225L422,-227L420,-230L422,-234L427,-233L433,-234L441,-231L447,-228L451,-232L454,-231L456,-228L462,-229L467,-234L471,-244L479,-256L484,-257L487,-249L495,-226L502,-223L502,-214L492,-203L496,-199L520,-197L521,-184L531,-192L548,-188L570,-179L576,-171L574,-164L590,-168L616,-161L636,-162L656,-150L673,-135L683,-132L695,-131L700,-127L704,-110L706,-101L701,-79L694,-70L675,-51L667,-36L657,-24L653,-24L650,-13L651,13L647,34L645,43L641,49L639,68L625,87L623,101L612,108L609,116L594,116L573,122L564,128L549,133L533,144L522,159L520,170L522,179L520,194L517,201L507,210L492,237L480,250L471,257L465,272Z" fill="#E0E0E0" stroke="#fff" stroke-width=".4"/><path d="M240,-52L250,-51L257,-52L260,-56L271,-61L278,-66L296,-69L295,-58L296,-53L295,-44L310,-32L325,-29L330,-24L339,-22L345,-18L353,-18L361,-14L361,-6L364,-2L364,4L360,5L365,21L391,21L389,29L391,35L398,39L401,48L399,59L395,65L396,73L392,76L392,72L379,64L367,64L344,68L337,81L337,89L332,106L329,103L314,102L309,114L301,103L283,100L272,113L263,115L257,95L250,79L254,65L247,59L246,49L239,39L247,24L242,12L245,8L242,3L248,-4L248,-16L249,-26L251,-30Z" fill="#E0E0E0" stroke="#fff" stroke-width=".4"/><path d="M235,-142L223,-143L221,-141L210,-138L195,-129L194,-123L190,-118L192,-111L184,-107L184,-101L180,-99L186,-87L193,-79L190,-73L199,-72L204,-65L216,-64L227,-72L226,-52L232,-50L240,-52L251,-30L249,-26L248,-16L248,-4L242,3L245,8L242,12L247,24L239,39L235,47L229,50L215,42L214,36L187,22L163,7L153,-2L147,-13L150,-17L138,-35L125,-60L112,-87L107,-93L103,-103L92,-112L83,-118L87,-124L81,-137L85,-146L95,-154L97,-149L93,-146L94,-141L99,-142L105,-140L110,-134L118,-139L120,-148L128,-160L145,-165L159,-179L163,-188L162,-198L165,-199L174,-193L178,-187L184,-183L192,-169L202,-167L210,-171L215,-169L223,-170L233,-164L224,-150L228,-150Z" fill="#E0E0E0" stroke="#fff" stroke-width=".4"/><path d="M275,-217L273,-215L270,-223L267,-227L262,-223L236,-223L236,-215L244,-213L244,-208L241,-210L233,-207L233,-198L239,-193L241,-185L241,-179L235,-142L228,-150L224,-150L233,-164L223,-170L215,-169L210,-171L202,-167L192,-169L184,-183L178,-187L174,-193L165,-199L162,-198L156,-201L149,-206L145,-204L134,-205L131,-211L128,-211L115,-219L113,-223L118,-224L117,-231L121,-235L127,-236L133,-245L138,-252L133,-255L136,-263L133,-275L135,-279L133,-290L128,-297L130,-304L134,-303L136,-307L133,-315L135,-317L142,-316L152,-326L157,-327L158,-332L160,-343L168,-350L176,-350L177,-353L188,-352L198,-358L204,-362L210,-368L215,-367L218,-364L216,-359L207,-357L204,-350L198,-346L195,-341L193,-331L189,-323L196,-322L198,-316L201,-313L202,-308L200,-303L201,-300L204,-299L207,-294L224,-295L232,-294L242,-282L247,-283L257,-283L264,-284L269,-282L267,-275L264,-270L263,-261L265,-252L269,-248L270,-245L263,-238L268,-235L271,-230Z" fill="#E0E0E0" stroke="#fff" stroke-width=".4"/><path d="M162,-198L163,-188L159,-179L145,-165L128,-160L120,-148L118,-139L110,-134L105,-140L99,-142L94,-141L93,-146L97,-149L95,-154L103,-164L100,-170L95,-164L87,-170L89,-174L87,-186L92,-188L94,-196L99,-205L98,-210L106,-213L115,-219L128,-211L131,-211L134,-205L145,-204L149,-206L156,-201Z" fill="#E0E0E0" stroke="#fff" stroke-width=".4"/></g><g clip-path="url(#v)"><path d="M392.2,75.9L392.5,77.0L392.7,77.8L393.1,78.3L393.6,79.1L394.0,79.5L394.3,80.2L394.2,81.0L394.4,82.1L394.6,83.0L394.9,83.2L395.5,83.5L395.8,84.3L395.6,84.7L395.7,85.1L395.9,85.6L395.7,86.1L395.8,86.4L396.2,86.7L396.7,87.9L396.7,89.8L396.2,90.9L395.9,91.7L395.8,92.2L396.1,93.0L395.6,93.9L395.1,95L395.2,95.8L395.3,96.5L395.4,97.2L395.5,98.0L395.3,98.7L395.1,99.4L395.1,100.1L395.3,101.0L394.9,101.8L394.6,102.4L394.6,103.0L395.0,103.9L396.0,104.2L396.8,104.3L397.5,103.9L398.1,103.7L399.2,104.1L400.1,104.9L401.4,105.0L402.5,105.2L403.3,105.4L404.6,105.1L405.9,105.4L407.4,105.8L408.6,106.2L409.8,106.1L410.8,106.1L411.8,105.7L412.7,105.7L413.4,104.9L413.8,104.2L414.2,103.8L415.2,103.4L415.9,103.6L416.4,104.9L417.5,105.6L417.9,106.1L418.6,106.4L420.3,106.4L421.3,106.4L422.4,106.7L423.2,106.7L423.9,107.4L424.5,108.2L424.6,109.7L425.1,110.9L425.9,111.3L426.3,112.0L426.2,113.0L425.8,114.0L425.9,115.2L426.2,116.2L426.2,117.2L426.5,118.2L427.1,119.0L427.3,120.4L427.2,121.5L427.5,122.0L427.6,122.9L427.4,123.5L427.3,124.4L427.4,125.3L427.6,125.9L428.4,126.8L428.7,128.4L428.7,129.5L429.0,130.7L429.7,131.3L430.7,131.5L432.0,131.7L433.5,131.4L434.8,131.1L435.6,130.7L437.1,129.8L438.3,129.3L439.0,128.9L439.6,128.7L440.9,129.3L442.1,130.0L443.0,131.0L444.7,132.1L444.4,132.4L443.7,133.3L443.8,134.4L444.2,135.9L443.8,139.2L442.5,144.2L441.9,147.1L442.1,147.9L441.6,149.4L439.8,152.6L439.8,154.7L439.5,161.1L438.9,165.6L437.9,169.0L436.9,170.8L436.1,171.0L435.5,171.5L435.1,172.4L434.4,173.1L433.4,173.6L432.9,174.3L432.8,175.0L431.8,175.4L430.0,175.6L428.8,176.1L428.6,177.0L427.9,177.7L427.0,178.2L426.6,179.1L426.6,180.3L426.1,181.4L425.0,182.2L424.0,182.3L423.1,181.4L421.8,180.9L420.3,180.6L419.0,180.8L417.9,181.5L417.0,182.6L416.2,184.1L415.3,184.3L414.3,183.3L413.1,183.0L411.6,183.4L410.4,183.3L409.5,182.6L408.1,182.5L406.3,183.1L402.5,182.5L396.9,180.8L392.1,180.1L386.3,180.7L385.8,178.9L386.1,178.0L387.0,177.3L387.6,176.4L387.9,175.5L388.5,174.8L389.6,174.3L390.0,173.8L389.9,173.3L390.1,172.9L390.7,172.5L391.1,171.9L391.2,171.1L391.4,170.7L391.8,170.4L391.8,169.9L391.6,168.1L391.6,166.7L391.9,165.6L392.3,164.9L392.6,164.8L392.8,164.4L392.9,163.7L393.3,163.1L395.1,161.8L395.8,161.1L395.9,160.5L396.2,159.6L397.3,157.8L397.6,156.9L397.7,156.5L398.1,156.1L399.4,155.0L400.1,154.1L400.2,153.2L399.9,152.2L399.1,151.0L396.8,148.2L394.9,146.9L392.6,145.8L391.0,145.5L390.2,145.8L389.5,145.6L388.7,144.6L387.4,143.8L384.6,143.0L378.5,139.7L376.0,138.1L375.1,137.1L372.8,135.3L369.0,132.8L366.1,131.6L364.0,131.6L360.8,130.9L356.3,129.3L353.7,127.8L353.0,126.4L351.3,124.9L348.7,123.5L347.4,122.5L347.3,122.1L346.5,121.5L345.0,120.7L343.4,119.5L341.7,117.7L339.9,114.9L337.9,111.2L335.8,108.7L333.5,107.4L332.4,106.5L332.4,106.1L332.0,105.7L332.3,105.0L333.2,102.1L334.4,98.0L335.6,93.8L337.1,88.8L337.1,85.3L337.1,81.6L339.1,78.6L340.6,76.4L341.9,74.4L343.1,70.9L344.0,68.5L347.3,68.0L352.9,66.8L355.6,66.2L361.5,64.9L367.5,63.6L373.7,63.5L379.8,63.4L384.5,66.3L388.0,68.5L392.0,71.0L392.2,71.5L392.5,73.5Z" fill="#4ECDC4" stroke="#2C3E50" stroke-width="1"/></g><circle cx="400.0" cy="150.0" r="4" fill="#E74C3C" stroke="#fff" stroke-width="2"/><text x="400.0" y="140.0" text-anchor="middle" font-family="sans-serif" font-weight="700" font-size="10" fill="#2D3436">Asunción</text></svg>