<svg viewBox="0 0 800 300" xmlns="http://www.w3.org/2000/svg"><defs><clipPath id="v"><rect width="800" height="300"/></clipPath></defs><rect width="800" height="300" fill="#DCEEF8"/><g clip-path="url(#v)"><path d="M403,230L416,226L418,247L473,235L530,237L572,240L620,188L672,138L716,91L729,117L739,178L703,178L697,228L710,239L678,254L678,285L658,316L656,347L642,363L433,325L406,248Z" fill="#E0E0E0" stroke="#fff" stroke-width=".4"/><path d="M153,-218L167,-183L161,-164L183,-105L134,-102L117,-140L55,-148L106,-225Z" fill="#E0E0E0" stroke="#fff" stroke-width=".4"/><path d="M-458,-396L-486,-496L-332,-584L-306,-686L-312,-749L-274,-770L-239,-825L-209,-838L-128,-827L-103,-805L-70,-820L-25,-716L21,-691L26,-641L-9,-611L-25,-546L23,-466L108,-421L144,-359L132,-300L155,-300L155,-257L194,-214L153,-218L106,-225L55,-148L-74,-154L-172,-235L-271,-316L-374,-373Z" fill="#E0E0E0" stroke="#fff" stroke-width=".4"/><path d="M656,347L658,316L678,285L678,254L710,239L697,228L703,178L739,178L770,230L809,258L860,268L901,282L932,325L951,350L976,360L976,377L950,421L939,442L910,466L884,517L853,513L838,531L827,568L835,618L829,627L797,627L753,654L747,690L731,705L687,705L660,723L660,752L627,773L589,766L542,790L510,794L487,744L433,623L641,549L688,400ZM729,117L716,91L736,65L745,71L738,103Z" fill="#E0E0E0" stroke="#fff" stroke-width=".4"/><path d="M194,-214L155,-257L155,-300L132,-300L144,-359L108,-421L23,-466L-25,-546L-9,-611L26,-641L21,-691L-25,-716L-70,-820L-108,-890L-94,-917L-116,-1020L-69,-1045L-58,-1011L-22,-970L25,-958L51,-961L132,-1027L159,-1034L179,-1007L155,-963L199,-916L216,-921L238,-856L304,-837L352,-794L451,-779L560,-802L566,-822L628,-839L677,-889L724,-887L754,-903L803,-895L881,-850L936,-841L1016,-764L1067,-761L1073,-688L1045,-582L1026,-521L1056,-509L1027,-463L1049,-397L1055,-345L1107,-332L1113,-279L1050,-206L1084,-164L1112,-116L1179,-81L1181,-12L1214,1L1220,36L1120,77L1093,166L962,143L887,125L808,115L779,20L745,6L692,20L622,58L537,32L466,-28L399,-50L353,-125L302,-232L264,-219L220,-246Z" fill="#E0E0E0" stroke="#fff" stroke-width=".4"/><path d="M-753,-169L-675,-156L-645,-180L-629,-209L-576,-220L-564,-247L-541,-261L-611,-342L-471,-383L-458,-396L-374,-373L-271,-316L-172,-235L-74,-154L55,-148L117,-140L134,-102L183,-105L211,-37L245,-19L257,9L304,42L308,74L302,100L310,126L330,147L340,172L350,191L371,206L390,201L403,230L406,248L433,325L642,363L656,347L688,400L641,549L433,623L232,651L167,684L117,761L85,773L67,748L41,752L-27,745L-39,737L-119,739L-138,746L-167,727L-185,763L-178,793L-209,816L-218,786L-239,764L-244,734L-280,708L-317,647L-337,587L-385,536L-416,524L-462,453L-470,401L-467,356L-507,272L-540,243L-577,227L-600,183L-596,166L-616,126L-636,109L-663,51L-706,-12L-741,-66L-776,-66L-765,-109L-762,-137Z" fill="#E0E0E0" stroke="#fff" stroke-width=".4"/></g><g clip-path="url(#v)"><path d="M381.7,202.4L375.4,204.0L369.6,205.6L364.6,205.6L360.9,204.9L358.1,203.4L353.1,196.8L349.6,188.5L351.6,183.8L352.4,180.9L347.6,158.6L346.1,141.5L346.6,138.0L349.3,134.0L354.1,125.2L356.4,116.5L363.4,96.6L370.6,89.0L381.4,83.3L390.2,94.3L400.9,102.8L402.9,112.2L399.7,119.8L396.9,131.9L398.7,137.5L399.2,142.3L402.2,150.5L404.9,160.9L405.4,168.2L403.9,175.0L400.2,180.6L392.9,197.8L390.7,199.5Z" fill="#4ECDC4" stroke="#2C3E50" stroke-width="1"/></g><circle cx="400.0" cy="150.0" r="4" fill="#E74C3C" stroke="#fff" stroke-width="2"/><text x="400.0" y="140.0" text-anchor="middle" font-family="sans-serif" font-weight="700" font-size="10" fill="#2D3436">Doha</text></svg>