<svg viewBox="0 0 800 300" xmlns="http://www.w3.org/2000/svg"><defs><clipPath id="v"><rect width="800" height="300"/></clipPath></defs><rect width="800" height="300" fill="#DCEEF8"/><g clip-path="url(#v)"><path d="M1527,21L1513,40L1498,42L1497,70L1487,82L1450,73L1437,121L1427,127L1391,137L1407,182L1395,188L1396,203L1385,199L1376,190L1348,187L1318,187L1311,189L1285,179L1275,184L1272,199L1241,190L1229,194L1225,205L1215,209L1190,227L1182,244L1176,244L1171,233L1147,232L1143,212L1134,211L1136,186L1114,168L1082,170L1061,174L1043,151L1028,141L1000,122L996,120L949,135L949,228L940,230L927,210L915,203L894,208L886,217L885,211L889,200L886,192L864,183L856,160L846,154L845,145L863,148L864,129L880,125L896,128L899,103L896,86L877,88L862,81L840,93L823,98L814,94L816,80L804,62L790,63L775,44L785,23L780,17L795,-14L813,3L816,-18L854,-50L882,-51L923,-31L945,-19L964,-31L993,-32L1017,-17L1022,-25L1048,-24L1053,-38L1023,-58L1041,-73L1037,-81L1055,-89L1042,-110L1050,-121L1119,-132L1128,-140L1174,-151L1190,-165L1223,-158L1229,-125L1249,-133L1272,-122L1271,-105L1288,-107L1334,-136L1328,-126L1351,-102L1392,-26L1402,-41L1427,-25L1454,-32L1464,-27L1473,-10L1486,-4L1493,8L1517,4Z" fill="#E0E0E0" stroke="#fff" stroke-width=".4"/><path d="M949,228L949,135L996,120L1000,122L1028,141L1043,151L1061,174L1082,170L1114,168L1136,186L1134,211L1143,212L1147,232L1171,233L1176,244L1182,244L1190,227L1215,209L1225,205L1231,207L1215,223L1229,232L1242,226L1264,239L1240,257L1226,254L1219,255L1216,248L1220,237L1195,243L1189,258L1181,271L1165,270L1161,281L1174,286L1178,304L1168,327L1154,322L1144,322L1144,308L1120,298L1100,286L1088,275L1067,259L1058,234L1052,229L1032,231L1025,225L1023,206L998,193L983,207L967,216L970,228Z" fill="#E0E0E0" stroke="#fff" stroke-width=".4"/><path d="M-1030,988L-1041,1005L-1047,1018L-1054,1025L-1063,1026L-1065,1021L-1069,1020L-1075,1025L-1083,1022L-1078,1014L-1077,1006L-1074,998L-1081,987L-1082,974L-1073,958L-1066,960L-1053,965L-1033,980ZM34,14L42,22L69,27L60,46L57,65L52,70L44,68L44,75L31,90L31,102L39,98L46,109L45,117L50,127L44,135L49,155L59,158L57,169L40,183L4,176L-23,185L-25,200L-47,203L-67,192L-74,197L-108,186L-115,176L-106,160L-102,109L-121,81L-135,67L-163,56L-165,36L-141,30L-110,37L-116,5L-98,18L-56,-5L-50,-28L-34,-34L-31,-24L-23,-24L-14,-12L-1,2L8,-1L24,12L28,15ZM81,196L93,186L96,208L90,227L81,222L77,205Z" fill="#E0E0E0" stroke="#fff" stroke-width=".4"/><path d="M577,427L574,434L567,431L563,445L568,448L563,451L562,456L571,453L571,462L562,496L561,490L550,459L556,452L554,451L559,441L563,424L566,419L566,419L572,419L574,415L579,414L579,423L577,427Z" fill="#E0E0E0" stroke="#fff" stroke-width=".4"/><path d="M579,414L574,415L572,419L566,419L573,401L582,385L582,384L590,385L593,394L583,402Z" fill="#E0E0E0" stroke="#fff" stroke-width=".4"/><path d="M571,453L562,456L563,451L568,448L563,445L567,431L574,434L574,447Z" fill="#E0E0E0" stroke="#fff" stroke-width=".4"/><path d="M94,479L86,440L75,431L75,426L60,413L58,396L70,384L74,365L71,344L75,332L95,323L108,325L107,337L123,329L124,333L115,344L115,355L121,360L119,380L107,391L110,403L120,404L124,414L131,417L130,434L121,441L116,447L103,456L105,465L103,474Z" fill="#E0E0E0" stroke="#fff" stroke-width=".4"/><path d="M-240,540L-240,536L-240,534L-240,510L-210,494L-192,491L-177,485L-170,475L-148,466L-147,450L-137,448L-128,440L-104,437L-101,428L-106,424L-112,400L-113,387L-120,372L-102,360L-82,356L-71,347L-53,340L-22,336L8,334L18,337L35,328L55,328L62,333L75,332L71,344L74,365L70,384L58,396L60,413L75,426L75,431L86,440L94,479L100,497L101,507L98,524L99,534L97,545L99,558L91,567L102,582L103,590L109,602L118,598L133,607L141,620L78,658L24,696L-2,705L-22,707L-22,695L-31,691L-42,686L-47,677L-109,633L-171,590Z" fill="#E0E0E0" stroke="#fff" stroke-width=".4"/><path d="M574,434L577,427L597,436L633,412L641,439L637,442L601,453L619,474L613,478L610,485L596,488L591,496L583,502L563,499L562,496L571,462L571,453L574,447Z" fill="#E0E0E0" stroke="#fff" stroke-width=".4"/><path d="M802,486L806,495L805,500L811,516L798,516L793,506L777,504L790,484Z" fill="#E0E0E0" stroke="#fff" stroke-width=".4"/><path d="M641,439L633,412L674,389L681,362L679,345L690,340L699,325L707,322L728,325L735,331L743,327L755,354L767,361L769,374L760,382L755,399L768,420L791,432L800,449L797,464L803,464L803,476L813,487L802,486L790,484L777,504L742,503L690,460L663,445Z" fill="#E0E0E0" stroke="#fff" stroke-width=".4"/><path d="M886,217L894,208L915,203L927,210L940,230L949,228L970,228L967,216L983,207L998,193L1023,206L1025,225L1032,231L1052,229L1058,234L1067,259L1088,275L1100,286L1120,298L1144,308L1144,322L1138,322L1129,315L1126,324L1111,328L1107,346L1097,353L1082,357L1079,367L1065,370L1046,361L1044,342L1031,341L1010,321L995,319L974,307L961,305L953,309L941,308L928,322L912,326L908,310L911,285L897,277L901,261L889,259L893,239L911,245L927,237L913,222L908,208L893,215L891,233Z" fill="#E0E0E0" stroke="#fff" stroke-width=".4"/><path d="M813,487L803,476L803,464L797,464L800,449L791,432L768,420L755,399L760,382L769,374L767,361L755,354L743,327L733,308L737,301L731,274L744,267L747,276L756,287L769,290L775,289L797,272L804,270L809,277L803,289L815,301L819,300L825,317L842,322L855,334L881,338L910,331L912,326L928,322L941,308L953,309L961,305L974,307L995,319L1010,321L1031,341L1044,342L1046,361L1038,389L1033,406L1041,409L1033,421L1040,438L1041,452L1055,456L1056,470L1040,489L1049,500L1056,513L1074,522L1074,540L1083,544L1085,553L1058,564L1051,587L1017,581L996,577L976,574L968,549L959,545L945,549L926,559L904,552L885,536L868,530L855,510L842,482L832,486L820,478Z" fill="#E0E0E0" stroke="#fff" stroke-width=".4"/><path d="M577,427L577,427L579,423L579,414L583,402L593,394L590,385L582,384L580,367L585,358L590,353L595,348L596,335L602,339L622,333L632,337L647,337L668,329L678,329L699,325L690,340L679,345L681,362L674,389L633,412L597,436Z" fill="#E0E0E0" stroke="#fff" stroke-width=".4"/><path d="M775,289L769,290L761,276L761,273L753,273L748,266L744,267L737,260L723,254L725,242L722,234L747,230L751,236L758,240L754,247L764,255L759,263L767,269L775,273Z" fill="#E0E0E0" stroke="#fff" stroke-width=".4"/><path d="M123,-282L131,-303L146,-328L152,-372L141,-392L139,-445L151,-484L170,-483L176,-500L169,-514L198,-577L216,-628L228,-663L246,-663L251,-690L286,-682L288,-716L300,-718L324,-693L353,-659L353,-586L360,-568L328,-556L310,-525L313,-498L284,-465L248,-429L235,-374L248,-348L265,-327L249,-286L229,-278L222,-220L212,-188L190,-191L179,-166L158,-164L152,-195L137,-233Z" fill="#E0E0E0" stroke="#fff" stroke-width=".4"/><path d="M438,-190L458,-182L460,-174L470,-178L488,-170L490,-155L486,-146L497,-126L505,-120L504,-114L516,-109L521,-101L514,-94L499,-95L496,-92L500,-82L505,-63L489,-61L483,-54L482,-39L475,-42L458,-41L453,-48L446,-43L439,-47L425,-47L404,-55L386,-57L372,-56L361,-48L353,-47L352,-60L347,-74L358,-80L358,-92L353,-104L352,-118L370,-118L390,-130L394,-147L409,-158L407,-172L418,-178Z" fill="#E0E0E0" stroke="#fff" stroke-width=".4"/><path d="M505,-63L511,-61L516,-68L522,-67L541,-70L553,-53L548,-47L549,-37L564,-36L571,-23L570,-18L594,-8L608,-12L619,1L630,1L657,10L657,19L650,33L654,49L651,58L633,60L624,67L623,79L608,82L596,90L579,92L563,102L564,116L561,115L559,110L553,109L540,103L535,110L532,107L504,100L503,90L486,93L479,108L464,128L456,123L447,127L439,122L444,120L447,111L452,102L451,97L455,95L456,99L467,100L472,98L469,95L470,91L464,84L461,73L454,68L456,59L447,52L440,51L426,42L414,45L410,49L402,49L397,55L384,58L377,62L369,56L357,55L346,52L338,58L336,51L326,43L330,32L335,25L339,27L334,14L351,-10L360,-13L362,-21L353,-47L361,-48L372,-56L386,-57L404,-55L425,-47L439,-47L446,-43L453,-48L458,-41L475,-42L482,-39L483,-54L489,-61Z" fill="#E0E0E0" stroke="#fff" stroke-width=".4"/><path d="M352,-118L353,-104L358,-92L358,-80L347,-74L352,-60L353,-47L362,-21L360,-13L351,-10L334,14L339,27L335,25L317,14L304,18L295,15L285,21L275,11L268,15L267,13L258,-1L245,-2L243,-11L230,-15L227,-7L217,-13L219,-21L205,-24L196,-33L189,-52L190,-62L185,-78L179,-89L184,-97L180,-113L192,-122L221,-137L244,-148L262,-142L264,-134L282,-134L304,-131L338,-131L347,-128Z" fill="#E0E0E0" stroke="#fff" stroke-width=".4"/><path d="M232,52L231,63L221,63L224,69L218,86L214,91L198,91L189,97L174,95L148,89L143,79L125,84L123,89L112,85L103,84L94,79L97,73L96,68L102,67L111,74L114,67L130,68L143,63L152,64L158,70L160,65L157,47L163,44L170,31L184,40L194,28L201,26L215,35L223,33L232,39L230,42Z" fill="#E0E0E0" stroke="#fff" stroke-width=".4"/><path d="M326,43L336,51L338,58L326,64L318,82L307,101L292,106L280,104L266,111L259,115L244,110L230,99L225,96L221,87L218,86L224,69L221,63L231,63L232,52L242,59L248,62L264,58L265,53L273,52L282,48L284,49L292,46L297,39L303,38L322,46Z" fill="#E0E0E0" stroke="#fff" stroke-width=".4"/><path d="M410,49L414,45L426,42L440,51L447,52L456,59L454,68L461,73L464,84L470,91L469,95L472,98L467,100L456,99L455,95L451,97L452,102L447,111L444,120L439,122L436,110L438,99L437,87L427,71L421,60L415,52Z" fill="#E0E0E0" stroke="#fff" stroke-width=".4"/><path d="M407,-172L409,-158L394,-147L390,-130L370,-118L352,-118L347,-128L338,-131L337,-139L339,-148L330,-153L311,-158L307,-186L328,-196L359,-194L377,-197L380,-190L390,-188Z" fill="#E0E0E0" stroke="#fff" stroke-width=".4"/><path d="M422,-234L431,-226L432,-210L438,-190L418,-178L407,-172L390,-188L380,-190L377,-197L359,-194L328,-196L307,-186L308,-211L317,-232L334,-244L349,-218L364,-219L367,-245L383,-251L391,-247L407,-234Z" fill="#E0E0E0" stroke="#fff" stroke-width=".4"/><path d="M180,-113L184,-97L179,-89L185,-78L190,-62L189,-52L196,-33L188,-30L183,-33L178,-28L165,-22L158,-15L145,-9L148,-0L150,12L160,19L170,31L163,44L157,47L160,65L158,70L152,64L143,63L130,68L114,67L111,74L102,67L96,68L77,60L73,66L57,65L60,46L69,27L42,22L34,14L35,2L31,-5L33,-24L30,-55L41,-55L46,-66L50,-94L47,-105L51,-111L66,-113L69,-106L82,-121L78,-133L77,-151L91,-147L102,-152L103,-140L121,-132L121,-121L140,-127L150,-135L171,-123Z" fill="#E0E0E0" stroke="#fff" stroke-width=".4"/><path d="M337,155L342,166L349,164L363,168L390,169L399,162L421,157L434,166L445,168L436,179L429,197L435,211L419,208L400,216L400,228L383,230L370,222L356,228L342,228L341,211L332,203L335,200L333,197L336,189L343,181L334,170L332,161Z" fill="#E0E0E0" stroke="#fff" stroke-width=".4"/><path d="M403,369L401,376L375,378L375,374L352,370L356,360L366,368L380,367L394,368L393,372ZM342,228L356,228L370,222L383,230L400,228L400,216L409,222L404,237L399,240L388,240L378,237L356,244L369,257L360,261L349,261L340,249L336,254L340,268L349,279L342,285L353,296L362,302L362,315L345,309L351,321L339,324L346,344L334,344L319,334L312,316L308,300L301,289L292,276L291,269L299,257L300,250L306,246L307,240L319,238L326,232L336,233L339,228Z" fill="#E0E0E0" stroke="#fff" stroke-width=".4"/><path d="M743,327L735,331L728,325L707,322L699,325L678,329L668,329L647,337L632,337L622,333L602,339L596,335L595,348L590,353L585,358L578,347L585,339L574,341L558,335L546,349L518,351L503,339L483,338L479,348L466,350L448,338L428,339L417,316L404,303L413,284L401,273L422,250L450,249L458,231L493,234L515,218L536,211L567,210L599,228L625,237L647,233L663,236L684,223L704,222L722,234L725,242L723,254L737,260L744,267L731,274L737,301L733,308ZM400,216L419,208L435,211L437,221L453,229L450,235L428,236L420,243L405,256L399,245L399,240L404,237L409,222Z" fill="#E0E0E0" stroke="#fff" stroke-width=".4"/><path d="M307,240L306,246L300,250L299,257L291,269L287,267L287,262L277,254L275,243L277,226L279,218L276,214L275,206L283,194L284,199L289,197L293,203L297,206L299,215L296,223L299,234Z" fill="#E0E0E0" stroke="#fff" stroke-width=".4"/><path d="M225,96L230,99L244,110L259,115L266,111L271,122L277,129L270,139L261,133L248,133L233,129L224,130L220,135L213,129L210,140L219,152L223,160L231,170L238,175L245,186L261,195L259,199L242,190L231,181L214,174L199,155L203,153L194,142L194,133L182,129L177,140L171,132L171,123L172,122L185,123L188,119L195,123L202,123L202,116L208,113L210,103Z" fill="#E0E0E0" stroke="#fff" stroke-width=".4"/><path d="M96,68L97,73L94,79L103,84L112,85L111,96L102,101L89,97L85,108L76,109L73,105L63,114L54,115L46,109L39,98L31,102L31,90L44,75L44,68L52,70L57,65L73,66L77,60Z" fill="#E0E0E0" stroke="#fff" stroke-width=".4"/><path d="M31,-5L35,2L34,14L28,15L24,12L26,-4Z" fill="#E0E0E0" stroke="#fff" stroke-width=".4"/><path d="M33,-24L31,-5L26,-4L24,12L8,-1L-1,2L-14,-12L-23,-24L-31,-24L-34,-34L-19,-40L-6,-38L11,-44L23,-31Z" fill="#E0E0E0" stroke="#fff" stroke-width=".4"/><path d="M47,-105L50,-94L46,-66L41,-55L30,-55L33,-24L23,-31L11,-44L-6,-38L-19,-40L-10,-48L6,-93L32,-105Z" fill="#E0E0E0" stroke="#fff" stroke-width=".4"/><path d="M-246,214L-240,208L-232,204L-228,217L-217,217L-214,213L-203,214L-198,227L-206,233L-206,252L-209,256L-210,267L-218,269L-211,283L-216,299L-209,306L-212,312L-219,321L-217,328L-225,334L-234,331L-244,334L-241,316L-243,301L-251,299L-255,290L-254,275L-247,266L-245,256L-241,242L-242,231L-246,223Z" fill="#E0E0E0" stroke="#fff" stroke-width=".4"/><path d="M-217,328L-219,321L-212,312L-209,306L-216,299L-211,283L-218,269L-210,267L-209,256L-206,252L-206,233L-198,227L-203,214L-214,213L-217,217L-228,217L-232,204L-240,208L-246,214L-245,197L-253,186L-227,167L-204,172L-180,172L-160,176L-145,175L-115,176L-108,186L-74,197L-67,192L-47,203L-25,200L-24,214L-42,230L-65,236L-67,244L-78,257L-85,277L-78,290L-89,301L-93,316L-107,320L-120,338L-143,338L-160,338L-172,346L-179,355L-188,353L-195,345L-200,332Z" fill="#E0E0E0" stroke="#fff" stroke-width=".4"/><path d="M-194,-117L-191,-94L-205,-67L-238,-50L-264,-54L-249,-86L-258,-117L-233,-142L-219,-157L-216,-139L-219,-123L-208,-123Z" fill="#E0E0E0" stroke="#fff" stroke-width=".4"/><path d="M112,85L123,89L125,84L143,79L148,89L174,95L172,109L176,120L162,116L147,125L148,138L145,146L151,159L169,172L178,192L198,212L213,212L217,218L212,223L229,232L242,239L258,252L260,256L256,265L246,253L230,249L222,265L236,274L234,286L226,288L216,308L208,310L208,302L212,290L216,285L209,271L203,259L196,256L190,246L179,241L171,231L157,230L143,219L126,203L113,188L108,163L98,160L83,152L75,155L64,167L57,169L59,158L49,155L44,135L50,127L45,117L46,109L54,115L63,114L73,105L76,109L85,108L89,97L102,101L111,96ZM191,304L205,302L199,320L201,328L198,339L184,331L174,328L149,316L151,304L173,307ZM80,238L89,231L100,248L98,280L89,278L82,286L75,280L74,251L70,237Z" fill="#E0E0E0" stroke="#fff" stroke-width=".4"/><path d="M102,-152L91,-147L77,-151L69,-169L69,-203L72,-212L77,-222L93,-224L100,-233L114,-243L114,-225L108,-214L111,-205L121,-200L116,-188L111,-191L97,-168ZM147,-188L153,-172L142,-146L123,-164L120,-178Z" fill="#E0E0E0" stroke="#fff" stroke-width=".4"/><path d="M-194,-117L-208,-123L-219,-123L-216,-139L-219,-157L-204,-158L-184,-138ZM-137,-102L-137,-102L-134,-120L-147,-140L-147,-140L-169,-146L-174,-154L-167,-169L-173,-178L-183,-162L-184,-194L-193,-211L-187,-246L-172,-274L-158,-272L-135,-275L-155,-237L-136,-242L-116,-242L-121,-214L-138,-184L-119,-182L-117,-178L-101,-140L-88,-135L-77,-100L-71,-88L-49,-82L-51,-62L-61,-54L-53,-38L-70,-23L-95,-23L-126,-15L-135,-21L-147,-8L-164,-11L-177,0L-186,-6L-159,-36L-143,-42L-143,-43L-172,-47L-177,-59L-158,-69L-168,-85L-164,-105Z" fill="#E0E0E0" stroke="#fff" stroke-width=".4"/><path d="M774,215L779,216L791,231L799,232L803,226L814,216L823,229L833,246L841,247L847,254L832,256L829,274L825,283L819,288L819,300L815,301L803,289L809,277L804,270L797,272L775,289L775,273L767,269L759,263L764,255L754,247L758,240L751,236L747,230L752,226L765,233L775,234L778,231L769,218ZM769,290L756,287L747,276L744,267L748,266L753,273L761,273L761,276Z" fill="#E0E0E0" stroke="#fff" stroke-width=".4"/><path d="M655,175L657,172L673,177L700,181L725,193L728,198L739,194L756,199L762,209L774,215L769,218L778,231L775,234L765,233L752,226L747,230L722,234L704,222L684,223L687,212L682,195L672,186L662,183Z" fill="#E0E0E0" stroke="#fff" stroke-width=".4"/><path d="M174,95L189,97L198,91L214,91L218,86L221,87L225,96L210,103L208,113L202,116L202,123L195,123L188,119L185,123L172,122L176,120L172,109Z" fill="#E0E0E0" stroke="#fff" stroke-width=".4"/><path d="M335,25L330,32L326,43L322,46L303,38L297,39L292,46L284,49L282,48L273,52L265,53L264,58L248,62L242,59L232,52L230,42L232,39L234,32L243,33L249,30L249,27L253,26L254,20L258,18L261,13L267,13L268,15L275,11L285,21L295,15L304,18L317,14Z" fill="#E0E0E0" stroke="#fff" stroke-width=".4"/><path d="M196,-33L205,-24L219,-21L217,-13L227,-7L230,-15L243,-11L245,-2L258,-1L267,13L261,13L258,18L254,20L253,26L249,27L249,30L243,33L234,32L232,39L223,33L215,35L201,26L194,28L184,40L170,31L160,19L150,12L148,-0L145,-9L158,-15L165,-22L178,-28L183,-33L188,-30Z" fill="#E0E0E0" stroke="#fff" stroke-width=".4"/><path d="M563,499L583,502L591,496L596,488L610,485L613,478L619,474L601,453L637,442L641,439L663,445L690,460L742,503L777,504L793,506L798,516L811,516L818,534L827,539L830,546L842,554L844,563L842,570L844,577L849,582L852,589L855,594L860,598L865,597L869,604L869,609L876,629L932,639L935,635L944,649L932,689L876,708L823,716L806,724L793,745L784,748L780,741L773,742L755,740L752,738L730,739L725,741L718,736L713,745L715,753L707,759L704,751L699,745L697,738L688,731L678,714L673,699L660,685L652,682L640,663L638,649L639,638L628,615L619,608L609,603L603,592L604,587L599,577L594,572L587,557L575,540L566,526L557,526L560,515L561,507Z" fill="#E0E0E0" stroke="#fff" stroke-width=".4"/><path d="M522,373L523,373L526,367L539,368L556,361L543,371L545,375L543,374L539,376L537,375L536,376L535,374L534,372L530,372L525,374Z" fill="#E0E0E0" stroke="#fff" stroke-width=".4"/><path d="M522,373L525,374L530,372L534,372L535,374L536,376L537,375L539,376L543,374L545,375L545,377L527,386L518,383L513,374Z" fill="#E0E0E0" stroke="#fff" stroke-width=".4"/><path d="M-120,372L-113,387L-112,400L-106,424L-101,428L-104,437L-128,440L-137,448L-147,450L-148,466L-170,475L-177,485L-192,491L-210,494L-240,510L-240,534L-242,534L-242,546L-253,546L-259,551L-268,551L-274,548L-290,550L-296,566L-301,568L-310,594L-336,615L-342,643L-349,652L-351,659L-393,661L-393,661L-392,651L-385,646L-379,636L-380,629L-374,615L-364,602L-358,599L-353,587L-352,576L-346,563L-334,556L-322,535L-321,535L-312,527L-295,524L-281,510L-271,504L-256,487L-261,460L-254,442L-251,430L-239,415L-221,405L-207,396L-195,373L-189,359L-176,359L-165,369L-147,367L-128,372Z" fill="#E0E0E0" stroke="#fff" stroke-width=".4"/><path d="M598,649L525,649L454,649L380,649L380,575L380,501L374,484L379,471L376,462L383,452L407,451L425,457L443,463L452,467L466,460L473,454L490,452L503,455L508,465L512,458L527,463L541,465L550,459L561,490L562,496L557,504L553,520L548,531L544,535L538,528L529,519L516,488L514,490L522,513L533,534L547,566L554,577L560,588L576,611L573,614L573,627L595,645Z" fill="#E0E0E0" stroke="#fff" stroke-width=".4"/><path d="M380,649L380,689L359,689L358,697L285,659L212,621L193,632L180,639L170,628L141,620L133,607L118,598L109,602L103,590L102,582L91,567L99,558L97,545L99,534L98,524L101,507L100,497L94,479L103,474L105,465L103,456L116,447L121,441L130,434L131,417L153,425L161,423L176,427L200,437L209,456L225,460L251,469L271,480L280,474L289,464L284,448L290,437L303,427L316,424L341,428L347,438L354,438L360,442L378,445L383,452L376,462L379,471L374,484L380,501L380,575Z" fill="#E0E0E0" stroke="#fff" stroke-width=".4"/><path d="M261,195L245,186L238,175L231,170L223,160L219,152L210,140L213,129L220,135L224,130L233,129L248,133L261,133L270,139L276,139L272,150L280,160L278,172L273,173L270,175L264,181Z" fill="#E0E0E0" stroke="#fff" stroke-width=".4"/><path d="M332,203L341,211L342,228L339,228L336,233L326,232L319,238L307,240L299,234L296,223L299,215L301,215L302,210L313,206L317,205L323,204Z" fill="#E0E0E0" stroke="#fff" stroke-width=".4"/><path d="M266,111L280,104L292,106L302,116L304,124L315,131L317,141L327,149L333,143L338,146L333,151L337,155L332,161L334,170L343,181L336,189L333,197L335,200L332,203L323,204L317,205L316,203L318,200L320,194L318,195L314,190L311,189L309,185L305,183L303,180L299,181L297,189L293,191L294,189L287,184L281,181L278,178L273,173L278,172L280,160L272,150L276,139L270,139L277,129L271,122Z" fill="#E0E0E0" stroke="#fff" stroke-width=".4"/><path d="M289,197L284,199L283,194L275,206L276,214L272,212L267,204L259,199L261,195L264,181L270,175L273,173L278,178L281,181L287,184L294,189L293,191Z" fill="#E0E0E0" stroke="#fff" stroke-width=".4"/><path d="M299,215L297,206L293,203L289,197L293,191L297,189L299,181L303,180L305,183L309,185L311,189L314,190L318,195L320,194L318,200L316,203L317,205L313,206L302,210L301,215Z" fill="#E0E0E0" stroke="#fff" stroke-width=".4"/></g><g clip-path="url(#v)"><path d="M438.8,123.5L440.8,126.2L443.3,127.6L449.0,129.1L449.4,129.0L449.5,128.7L449.1,128.3L449.0,127.8L449.3,127.1L450.1,127.1L451.4,127.7L453.9,126.9L457.5,124.7L460.8,124.3L463.8,125.6L465.3,127.1L466.3,128.5L466.0,130.2L465.8,131.3L465.0,135.8L464.5,137.4L463.6,139.3L454.2,141.5L454.8,140.5L454.6,138.6L454.2,137.2L455.1,135.9L453.0,135.4L452.1,136.1L451.4,137.4L452.0,140.2L451.0,141.7L450.6,142.6L450.5,144.7L449.9,145.6L449.8,146.5L451.3,146.3L450.6,148.0L447.8,151.4L446.8,153.4L447.1,161.4L445.8,166.2L445.7,167.6L442.8,167.6L441.8,167.6L439.0,166.9L435.9,165.6L434.0,163.1L432.8,161.4L430.2,162.2L429.6,161.9L428.9,161.1L426.9,160.5L424.4,160.5L418.8,157.3L418.2,156.7L413.7,157.3L407.2,158.9L402.2,160.9L396.9,164.3L394.8,167.0L392.4,168.4L388.9,169.4L382.7,169.0L376.3,167.7L369.3,166.3L365.5,167.1L360.4,166.5L352.8,164.8L347.1,164.2L341.5,165.3L340.6,164.5L340.3,163.6L340.6,162.4L341.4,161.4L342.7,160.6L343.4,159.8L343.5,159.0L342.0,157.8L338.8,156.0L337.5,155.0L337.3,154.7L337.1,153.7L336.5,152.9L335.3,152.4L334.3,151.3L333.7,149.9L333.8,148.5L334.7,147.2L336.0,146.6L337.5,146.8L338.1,146.4L337.9,145.5L336.4,144.3L333.7,142.9L331.0,143.6L328.3,146.6L326.3,147.1L325.1,145.1L322.9,143.9L319.8,143.5L317.9,142.8L317.2,141.6L315.8,140.7L312.8,139.8L312.8,138.8L313.3,138.6L314.3,138.5L315.7,138.3L316.0,137.8L316.0,137.4L314.9,136.7L313.7,136.3L313.1,135.9L312.8,135.5L312.7,135.0L313.0,134.7L313.5,134.7L313.9,134.4L314.1,133.3L314.8,132.4L315.2,132.0L315.2,131.4L314.7,130.8L314.1,130.2L313.2,129.9L310.4,129.0L308.9,127.6L308.1,127.6L306.6,126.9L305.1,125.7L303.8,124.1L302.4,123.0L302.0,122.6L302.0,122.2L302.2,121.7L302.2,121.2L301.9,119.6L302.1,117.9L302.0,116.3L302.0,115.6L301.8,115.4L301.5,115.6L301.2,115.9L300.8,116.0L299.8,114.8L298.4,112.5L297.6,111.7L295.9,110.6L294.4,109.7L293.3,107.7L292.2,106.1L293.0,105.5L297.1,104.6L299.0,105.5L300.0,105.1L300.8,104.4L301.3,103.9L301.4,103.2L301.8,102.5L303.2,102.1L306.9,102.6L308.4,101.5L309.0,100.9L309.3,99.6L309.7,98.6L311.0,98.0L311.0,97.1L310.8,96.1L311.6,93.8L312.1,92.8L312.8,92.5L313.7,91.8L315.3,90.2L314.9,88.9L315.3,87.9L316.9,85.6L318.2,83.3L318.2,82.1L318.4,81.1L319.4,80.0L320.6,78.5L322.2,74.0L322.8,73.3L323.7,72.4L324.5,71.6L324.5,68.6L325.3,67.7L326.7,66.8L328.0,65.2L329.1,63.4L329.9,62.5L331.0,62.3L332.3,61.5L333.6,61.3L334.9,61.6L335.8,61.4L337.1,60.5L340.2,57.2L340.7,56.5L341.4,56.0L344.0,54.9L344.7,53.7L345.5,52.6L346.7,52.7L350.5,55.3L354.5,55.2L355.3,55.3L355.5,55.3L356.0,55.5L361.4,56.8L362.2,56.7L362.5,56.5L364.6,57.6L366.5,57.5L368.4,56.7L370.3,56.5L372.0,56.9L373.3,58.4L376.8,61.6L377.8,62.8L379.4,62.6L381.1,62.0L382.9,59.9L388.3,57.5L392.4,56.9L396.5,55.9L401.2,55.3L402.5,53.3L403.3,51.9L403.8,49.4L406.3,48.7L408.7,48.2L409.6,47.9L411.3,47.8L412.6,48.0L414.7,49.2L416.2,50.8L416.8,52.0L418.1,53.7L419.4,56.2L420.8,59.4L421.1,61.0L421.7,62.8L422.8,64.9L424.8,67.3L425.1,67.7L426.1,69.4L427.9,73.1L429.4,74.5L430.7,76.1L431.3,77.7L432.3,79.2L434.5,81.1L436.3,82.8L437.7,87.8L438.7,90.2L439.4,91.9L439.0,95.5L439.4,97.0L438.6,99.8L437.1,105.3L436.8,109.7L437.1,112.1L437.1,113.6L437.5,114.6L437.9,116.6L437.9,118.3L437.4,118.8L436.6,119.2L436.3,119.6L437.0,120.4L437.9,121.8Z" fill="#4ECDC4" stroke="#2C3E50" stroke-width="1"/></g><circle cx="400.0" cy="150.0" r="4" fill="#E74C3C" stroke="#fff" stroke-width="2"/><text x="400.0" y="140.0" text-anchor="middle" font-family="sans-serif" font-weight="700" font-size="10" fill="#2D3436">Bucharest</text></svg>