<svg viewBox="0 0 800 300" xmlns="http://www.w3.org/2000/svg"><defs><clipPath id="v"><rect width="800" height="300"/></clipPath></defs><rect width="800" height="300" fill="#DCEEF8"/><g clip-path="url(#v)"><path d="M1864,8L1847,30L1829,33L1828,66L1816,80L1773,70L1757,127L1745,134L1702,146L1722,199L1707,207L1709,224L1695,219L1684,209L1652,206L1615,205L1607,208L1576,195L1564,202L1560,219L1524,209L1510,213L1505,226L1493,232L1464,252L1454,273L1446,273L1440,259L1412,258L1408,234L1397,234L1399,204L1372,182L1335,185L1309,189L1288,162L1270,150L1236,128L1232,125L1176,144L1177,254L1166,256L1150,233L1136,224L1111,231L1101,240L1100,233L1105,221L1101,211L1076,200L1066,173L1054,166L1053,156L1074,158L1075,136L1094,131L1113,135L1117,105L1113,85L1091,87L1072,79L1047,93L1027,100L1015,95L1018,78L1004,56L988,57L969,35L982,10L975,3L993,-34L1015,-14L1018,-39L1063,-77L1097,-78L1145,-54L1171,-40L1195,-55L1229,-55L1257,-37L1264,-48L1294,-46L1300,-63L1264,-87L1285,-104L1281,-114L1302,-123L1287,-149L1297,-161L1378,-174L1389,-183L1444,-198L1464,-213L1503,-205L1510,-166L1533,-175L1561,-162L1559,-142L1580,-144L1635,-179L1627,-168L1655,-139L1704,-48L1715,-67L1745,-47L1777,-55L1789,-49L1800,-29L1815,-23L1824,-8L1852,-13Z" fill="#E0E0E0" stroke="#fff" stroke-width=".4"/><path d="M-1179,1158L-1192,1178L-1198,1194L-1207,1202L-1217,1204L-1220,1198L-1225,1197L-1232,1203L-1241,1198L-1236,1189L-1234,1179L-1230,1169L-1239,1156L-1240,1141L-1229,1123L-1222,1125L-1205,1130L-1182,1149ZM87,-0L98,8L129,14L118,37L115,60L109,66L99,63L100,71L84,89L84,104L94,99L102,113L101,121L107,133L100,143L105,166L117,170L115,183L95,201L52,192L20,202L17,220L-8,224L-33,210L-41,217L-81,203L-90,192L-78,174L-74,112L-97,78L-113,62L-146,50L-149,26L-120,18L-83,27L-90,-11L-70,3L-19,-23L-12,-51L7,-58L10,-46L20,-45L31,-32L46,-15L57,-18L76,-3L81,0ZM143,215L158,204L161,230L154,252L144,246L139,226Z" fill="#E0E0E0" stroke="#fff" stroke-width=".4"/><path d="M734,490L730,499L722,495L717,512L723,515L717,519L716,525L727,522L727,532L716,572L714,566L702,529L708,520L707,519L713,507L717,487L720,481L721,481L728,481L730,476L736,476L736,486L733,490Z" fill="#E0E0E0" stroke="#fff" stroke-width=".4"/><path d="M736,476L730,476L728,481L721,481L729,459L739,440L740,440L750,441L753,451L741,461Z" fill="#E0E0E0" stroke="#fff" stroke-width=".4"/><path d="M727,522L716,525L717,519L723,515L717,512L722,495L730,499L730,514Z" fill="#E0E0E0" stroke="#fff" stroke-width=".4"/><path d="M159,552L150,506L137,496L136,489L119,474L117,454L130,439L135,417L132,391L136,377L160,366L175,370L175,384L193,373L195,379L184,392L184,405L191,411L189,435L174,448L178,462L190,463L195,475L203,479L202,499L192,507L185,515L170,525L172,535L170,546Z" fill="#E0E0E0" stroke="#fff" stroke-width=".4"/><path d="M-238,625L-238,620L-238,618L-238,589L-202,571L-181,567L-163,560L-154,547L-129,537L-128,518L-115,516L-105,506L-77,502L-73,492L-78,486L-86,459L-87,443L-95,426L-74,411L-51,406L-37,395L-16,387L21,382L57,380L68,384L89,373L112,373L121,379L136,377L132,391L135,417L130,439L117,454L119,474L136,489L137,496L150,506L159,552L167,574L168,586L164,606L166,618L163,631L165,647L156,657L169,675L170,685L178,698L188,694L205,705L215,720L140,765L76,811L45,821L21,824L21,809L11,805L-3,799L-8,788L-82,736L-156,684Z" fill="#E0E0E0" stroke="#fff" stroke-width=".4"/><path d="M730,499L734,490L758,501L801,473L810,505L806,509L762,521L784,547L776,551L773,560L756,563L751,572L741,580L717,576L716,572L727,532L727,522L730,514Z" fill="#E0E0E0" stroke="#fff" stroke-width=".4"/><path d="M810,505L801,473L849,446L858,413L856,393L868,387L879,370L888,365L914,369L921,376L932,371L946,404L960,412L962,428L951,437L946,457L961,482L988,497L999,516L996,535L1003,535L1003,548L1015,562L1002,561L987,558L971,583L931,581L869,530L836,512Z" fill="#E0E0E0" stroke="#fff" stroke-width=".4"/><path d="M1015,562L1003,548L1003,535L996,535L999,516L988,497L961,482L946,457L951,437L962,428L960,412L946,404L932,371L920,349L924,341L917,308L932,300L936,311L947,324L962,328L970,327L996,306L1004,304L1010,312L1003,326L1016,341L1022,339L1029,360L1050,366L1065,379L1096,384L1130,377L1132,371L1151,365L1167,349L1182,350L1191,345L1207,348L1231,362L1248,365L1273,389L1290,390L1292,413L1283,446L1277,465L1286,469L1277,483L1284,504L1286,520L1302,525L1304,541L1284,564L1295,577L1304,593L1325,604L1325,625L1336,629L1338,641L1306,653L1298,681L1257,674L1233,669L1208,665L1199,635L1188,631L1172,636L1150,647L1123,639L1101,620L1080,613L1065,590L1049,556L1037,560L1023,552Z" fill="#E0E0E0" stroke="#fff" stroke-width=".4"/><path d="M734,490L733,490L736,486L736,476L741,461L753,451L750,441L740,440L738,419L743,408L749,402L755,396L756,381L763,386L787,379L799,384L817,384L842,373L854,374L879,370L868,387L856,393L858,413L849,446L801,473L758,501Z" fill="#E0E0E0" stroke="#fff" stroke-width=".4"/><path d="M970,327L962,328L953,311L953,307L943,307L937,299L932,300L924,292L907,285L910,271L906,261L936,256L941,264L949,269L945,276L956,286L950,295L960,303L969,307Z" fill="#E0E0E0" stroke="#fff" stroke-width=".4"/><path d="M569,-244L592,-234L595,-224L606,-229L628,-220L630,-202L625,-192L639,-167L648,-160L646,-153L661,-147L668,-137L659,-129L641,-130L637,-127L642,-115L648,-92L629,-90L622,-82L621,-64L612,-68L592,-66L587,-74L578,-68L570,-73L553,-74L528,-82L506,-85L489,-84L477,-75L467,-73L466,-89L460,-106L473,-113L473,-127L467,-141L466,-158L487,-157L511,-172L516,-193L534,-205L532,-222L545,-229Z" fill="#E0E0E0" stroke="#fff" stroke-width=".4"/><path d="M648,-92L656,-90L661,-99L668,-97L691,-100L705,-80L699,-73L701,-62L719,-60L726,-45L726,-38L754,-26L770,-32L784,-16L797,-16L829,-5L829,5L820,22L825,40L822,51L801,54L789,63L789,77L771,80L756,90L736,92L717,104L718,121L715,120L712,113L705,112L690,105L684,113L681,110L647,102L645,90L625,94L617,111L600,134L590,129L580,134L570,128L575,125L579,114L585,104L584,98L588,96L590,100L603,101L609,99L605,96L607,91L599,83L596,69L588,64L589,53L580,44L570,43L554,33L540,36L535,41L525,41L520,49L504,52L496,57L486,49L472,49L458,45L449,52L448,43L435,34L440,21L446,12L450,14L445,-1L465,-29L476,-33L478,-43L467,-73L477,-75L489,-84L506,-85L528,-82L553,-74L570,-73L578,-68L587,-74L592,-66L612,-68L621,-64L622,-82L629,-90Z" fill="#E0E0E0" stroke="#fff" stroke-width=".4"/><path d="M466,-158L467,-141L473,-127L473,-113L460,-106L466,-89L467,-73L478,-43L476,-33L465,-29L445,-1L450,14L446,12L425,-1L409,4L399,1L386,8L375,-4L366,0L365,-2L355,-18L338,-20L336,-31L321,-35L318,-26L306,-33L307,-43L291,-46L281,-57L272,-79L273,-91L268,-111L260,-123L266,-133L261,-152L276,-163L310,-180L338,-193L360,-187L361,-177L382,-177L409,-173L450,-173L461,-169Z" fill="#E0E0E0" stroke="#fff" stroke-width=".4"/><path d="M324,44L322,57L310,57L314,65L307,85L302,91L283,91L272,99L254,96L223,88L218,77L196,82L194,88L181,84L169,83L159,77L163,69L162,64L169,62L180,71L183,62L202,64L218,58L228,59L235,65L237,60L234,39L242,34L250,19L266,30L278,16L286,14L303,24L313,22L323,28L321,33Z" fill="#E0E0E0" stroke="#fff" stroke-width=".4"/><path d="M435,34L448,43L449,52L436,59L425,81L412,102L395,108L381,107L364,115L356,120L338,114L321,100L315,96L310,86L307,85L314,65L310,57L322,57L324,44L335,52L343,56L361,52L363,45L372,44L382,39L385,41L395,37L400,30L407,28L431,38Z" fill="#E0E0E0" stroke="#fff" stroke-width=".4"/><path d="M535,41L540,36L554,33L570,43L580,44L589,53L588,64L596,69L599,83L607,91L605,96L609,99L603,101L590,100L588,96L584,98L585,104L579,114L575,125L570,128L566,114L568,101L568,87L555,67L548,54L541,44Z" fill="#E0E0E0" stroke="#fff" stroke-width=".4"/><path d="M570,128L580,134L590,129L600,134L600,142L590,149L583,146L577,183L564,180L548,169L522,176L512,184L479,182L463,177L454,180L448,167L444,162L449,157L444,153L437,160L424,151L422,138L409,131L406,121L395,108L412,102L425,81L436,59L449,52L458,45L472,49L486,49L496,57L504,52L520,49L525,41L535,41L541,44L548,54L555,67L568,87L568,101L566,114Z" fill="#E0E0E0" stroke="#fff" stroke-width=".4"/><path d="M532,-222L534,-205L516,-193L511,-172L487,-157L466,-158L461,-169L450,-173L448,-183L450,-193L440,-199L417,-206L413,-239L438,-251L475,-248L496,-252L499,-244L511,-241Z" fill="#E0E0E0" stroke="#fff" stroke-width=".4"/><path d="M261,-152L266,-133L260,-123L268,-111L273,-91L272,-79L281,-57L271,-53L265,-57L260,-50L244,-44L236,-35L220,-28L224,-18L226,-3L237,5L250,19L242,34L234,39L237,60L235,65L228,59L218,58L202,64L183,62L180,71L169,62L162,64L139,54L134,61L115,60L118,37L129,14L98,8L87,-0L89,-15L84,-23L87,-46L83,-83L96,-83L102,-96L107,-129L103,-142L107,-150L126,-152L130,-143L145,-162L140,-176L139,-197L155,-192L169,-198L169,-183L192,-175L191,-161L214,-168L226,-179L251,-164Z" fill="#E0E0E0" stroke="#fff" stroke-width=".4"/><path d="M448,167L454,180L463,177L479,182L512,184L522,176L548,169L564,180L577,183L566,196L558,217L565,234L546,230L524,239L523,254L503,256L488,246L471,254L454,253L453,234L442,225L445,220L443,217L447,207L455,198L444,185L443,174Z" fill="#E0E0E0" stroke="#fff" stroke-width=".4"/><path d="M527,422L525,430L493,432L493,428L467,423L471,411L483,420L500,419L516,421L515,425ZM454,253L471,254L488,246L503,256L523,254L524,239L534,247L527,265L522,268L509,268L498,265L471,272L486,289L475,293L463,293L451,278L447,285L452,302L463,315L455,321L467,334L478,342L478,358L458,351L464,365L450,368L459,392L444,392L426,380L418,358L414,340L406,327L394,311L393,303L403,289L404,280L412,275L412,268L426,265L435,259L447,260L450,254Z" fill="#E0E0E0" stroke="#fff" stroke-width=".4"/><path d="M932,371L921,376L914,369L888,365L879,370L854,374L842,373L817,384L799,384L787,379L763,386L756,381L755,396L749,402L743,408L735,396L743,386L730,388L712,382L697,397L664,400L646,386L622,385L617,396L602,399L581,385L557,385L544,358L528,343L539,321L525,307L549,280L583,279L592,257L634,261L660,242L685,234L722,233L760,254L791,265L817,260L836,263L861,248L885,246L906,261L910,271L907,285L924,292L932,300L917,308L924,341L920,349ZM524,239L546,230L565,234L567,245L586,255L582,262L556,263L547,272L529,288L522,274L522,268L527,265L534,247Z" fill="#E0E0E0" stroke="#fff" stroke-width=".4"/><path d="M412,268L412,275L404,280L403,289L393,303L389,301L389,295L377,285L375,271L377,251L380,242L376,238L375,228L384,214L385,219L391,217L396,225L401,228L403,238L400,248L403,261Z" fill="#E0E0E0" stroke="#fff" stroke-width=".4"/><path d="M315,96L321,100L338,114L356,120L364,115L369,127L376,136L368,148L358,141L343,141L324,136L314,137L309,143L301,136L297,149L307,163L312,173L322,184L331,191L339,204L358,215L356,220L335,209L323,198L302,189L284,167L289,164L279,152L278,141L264,136L257,150L251,139L251,128L252,128L267,129L271,124L279,129L287,129L287,121L295,118L297,105Z" fill="#E0E0E0" stroke="#fff" stroke-width=".4"/><path d="M162,64L163,69L159,77L169,83L181,84L179,97L169,102L153,98L148,111L138,112L134,107L122,118L111,119L102,113L94,99L84,104L84,89L100,71L99,63L109,66L115,60L134,61L139,54Z" fill="#E0E0E0" stroke="#fff" stroke-width=".4"/><path d="M84,-23L89,-15L87,-0L81,0L76,-3L79,-22Z" fill="#E0E0E0" stroke="#fff" stroke-width=".4"/><path d="M87,-46L84,-23L79,-22L76,-3L57,-18L46,-15L31,-32L20,-45L10,-46L7,-58L25,-65L41,-62L61,-70L75,-54Z" fill="#E0E0E0" stroke="#fff" stroke-width=".4"/><path d="M103,-142L107,-129L102,-96L96,-83L83,-83L87,-46L75,-54L61,-70L41,-62L25,-65L36,-75L55,-127L85,-143Z" fill="#E0E0E0" stroke="#fff" stroke-width=".4"/><path d="M-246,238L-238,230L-229,226L-223,240L-210,240L-207,236L-194,238L-188,252L-198,260L-198,283L-202,287L-203,300L-212,303L-203,320L-209,338L-202,346L-205,354L-213,364L-211,373L-220,380L-231,377L-243,380L-239,358L-241,341L-251,338L-257,328L-255,309L-246,299L-244,287L-240,270L-240,258L-245,247Z" fill="#E0E0E0" stroke="#fff" stroke-width=".4"/><path d="M-211,373L-213,364L-205,354L-202,346L-209,338L-203,320L-212,303L-203,300L-202,287L-198,283L-198,260L-188,252L-194,238L-207,236L-210,240L-223,240L-229,226L-238,230L-246,238L-245,217L-254,204L-223,182L-196,187L-166,187L-143,192L-125,191L-90,192L-81,203L-41,217L-33,210L-8,224L17,220L19,237L-2,257L-30,263L-32,273L-46,289L-54,312L-46,328L-58,340L-63,358L-79,364L-95,385L-123,385L-144,385L-157,394L-166,405L-176,402L-185,393L-191,378Z" fill="#E0E0E0" stroke="#fff" stroke-width=".4"/><path d="M-184,-156L-180,-130L-197,-97L-235,-77L-266,-82L-249,-119L-260,-157L-230,-186L-214,-204L-209,-183L-214,-163L-200,-164Z" fill="#E0E0E0" stroke="#fff" stroke-width=".4"/><path d="M181,84L194,88L196,82L218,77L223,88L254,96L252,112L257,125L240,121L222,132L223,147L220,156L227,171L248,187L259,211L283,235L301,235L306,242L300,248L319,258L335,267L354,282L356,287L352,297L340,284L321,279L312,298L328,308L325,323L316,325L304,349L295,351L295,342L300,327L305,321L296,305L289,291L280,287L274,275L260,269L250,258L234,256L217,243L197,224L182,206L175,177L164,173L147,163L136,167L124,181L115,183L117,170L105,166L100,143L107,133L101,121L102,113L111,119L122,118L134,107L138,112L148,111L153,98L169,102L179,97ZM275,344L292,342L284,364L287,372L282,386L266,376L255,373L224,359L227,345L253,347ZM143,266L154,257L167,278L164,315L154,314L145,323L136,316L136,281L131,265Z" fill="#E0E0E0" stroke="#fff" stroke-width=".4"/><path d="M169,-198L155,-192L139,-197L130,-219L129,-259L133,-269L139,-281L158,-284L166,-295L184,-307L183,-286L176,-273L179,-261L191,-255L185,-241L179,-245L163,-217ZM223,-242L230,-222L217,-191L194,-213L191,-229Z" fill="#E0E0E0" stroke="#fff" stroke-width=".4"/><path d="M-184,-156L-200,-164L-214,-163L-209,-183L-214,-204L-195,-205L-172,-182ZM-116,-139L-116,-139L-113,-160L-127,-183L-127,-184L-154,-191L-159,-201L-151,-218L-159,-229L-170,-211L-172,-248L-183,-268L-175,-310L-158,-344L-140,-341L-114,-344L-137,-299L-115,-305L-91,-305L-97,-272L-116,-236L-94,-234L-92,-230L-72,-184L-57,-178L-44,-136L-38,-122L-11,-115L-14,-92L-25,-81L-16,-63L-36,-45L-65,-45L-103,-36L-113,-43L-127,-26L-147,-30L-163,-17L-174,-24L-142,-60L-123,-68L-123,-68L-157,-74L-163,-88L-140,-99L-152,-118L-148,-142Z" fill="#E0E0E0" stroke="#fff" stroke-width=".4"/><path d="M968,238L974,239L989,257L998,259L1002,251L1015,240L1027,255L1038,276L1048,277L1055,285L1037,287L1033,309L1029,319L1021,326L1022,339L1016,341L1003,326L1010,312L1004,304L996,306L970,327L969,307L960,303L950,295L956,286L945,276L949,269L941,264L936,256L942,251L958,260L970,261L973,258L962,242ZM962,328L947,324L936,311L932,300L937,299L943,307L953,307L953,311Z" fill="#E0E0E0" stroke="#fff" stroke-width=".4"/><path d="M826,191L829,188L848,193L880,198L910,212L913,218L927,213L947,219L954,231L968,238L962,242L973,258L970,261L958,260L942,251L936,256L906,261L885,246L861,248L865,235L859,215L847,204L834,201Z" fill="#E0E0E0" stroke="#fff" stroke-width=".4"/><path d="M254,96L272,99L283,91L302,91L307,85L310,86L315,96L297,105L295,118L287,121L287,129L279,129L271,124L267,129L252,128L257,125L252,112Z" fill="#E0E0E0" stroke="#fff" stroke-width=".4"/><path d="M446,12L440,21L435,34L431,38L407,28L400,30L395,37L385,41L382,39L372,44L363,45L361,52L343,56L335,52L324,44L321,33L323,28L326,21L336,22L343,18L344,15L348,14L350,6L355,5L358,-2L365,-2L366,0L375,-4L386,8L399,1L409,4L425,-1Z" fill="#E0E0E0" stroke="#fff" stroke-width=".4"/><path d="M281,-57L291,-46L307,-43L306,-33L318,-26L321,-35L336,-31L338,-20L355,-18L365,-2L358,-2L355,5L350,6L348,14L344,15L343,18L336,22L326,21L323,28L313,22L303,24L286,14L278,16L266,30L250,19L237,5L226,-3L224,-18L220,-28L236,-35L244,-44L260,-50L265,-57L271,-53Z" fill="#E0E0E0" stroke="#fff" stroke-width=".4"/><path d="M668,426L670,426L673,420L689,420L709,412L694,424L696,429L693,428L689,430L686,429L685,430L684,427L683,426L678,425L672,428Z" fill="#E0E0E0" stroke="#fff" stroke-width=".4"/><path d="M668,426L672,428L678,425L683,426L684,427L685,430L686,429L689,430L693,428L696,429L696,431L674,442L663,438L658,427Z" fill="#E0E0E0" stroke="#fff" stroke-width=".4"/><path d="M-95,426L-87,443L-86,459L-78,486L-73,492L-77,502L-105,506L-115,516L-128,518L-129,537L-154,547L-163,560L-181,567L-202,571L-238,589L-238,618L-241,618L-240,632L-254,632L-261,638L-271,638L-279,635L-297,638L-305,657L-311,658L-322,689L-352,715L-359,748L-368,758L-371,767L-420,769L-421,769L-419,758L-411,751L-404,739L-405,731L-398,714L-386,699L-378,695L-372,681L-372,668L-364,653L-350,644L-336,619L-335,619L-324,609L-304,606L-287,589L-276,583L-257,562L-263,530L-254,508L-252,494L-237,477L-216,465L-199,454L-185,426L-178,410L-162,410L-149,421L-128,419L-105,425Z" fill="#E0E0E0" stroke="#fff" stroke-width=".4"/><path d="M499,755L499,802L474,802L474,812L386,767L299,722L277,735L262,743L249,730L215,720L205,705L188,694L178,698L170,685L169,675L156,657L165,647L163,631L166,618L164,606L168,586L167,574L159,552L170,546L172,535L170,525L185,515L192,507L202,499L203,479L229,488L238,486L257,490L286,502L296,525L316,530L346,541L370,553L380,547L391,535L386,515L393,503L408,491L424,487L453,492L461,504L469,504L476,508L497,511L503,520L495,532L498,543L493,559L499,579L499,667Z" fill="#E0E0E0" stroke="#fff" stroke-width=".4"/><path d="M358,215L339,204L331,191L322,184L312,173L307,163L297,149L301,136L309,143L314,137L324,136L343,141L358,141L368,148L376,148L370,161L381,173L378,187L373,189L369,191L361,198Z" fill="#E0E0E0" stroke="#fff" stroke-width=".4"/><path d="M442,225L453,234L454,253L450,254L447,260L435,259L426,265L412,268L403,261L400,248L403,238L405,239L406,233L419,228L424,227L432,225Z" fill="#E0E0E0" stroke="#fff" stroke-width=".4"/><path d="M391,217L385,219L384,214L375,228L376,238L371,235L365,226L356,220L358,215L361,198L369,191L373,189L378,194L382,198L389,201L397,207L395,210Z" fill="#E0E0E0" stroke="#fff" stroke-width=".4"/><path d="M403,238L401,228L396,225L391,217L395,210L401,208L404,198L408,196L411,200L415,202L418,207L421,208L425,214L429,214L426,221L424,225L424,227L419,228L406,233L405,239Z" fill="#E0E0E0" stroke="#fff" stroke-width=".4"/></g><g clip-path="url(#v)"><path d="M448.9,167.0L448.1,167.5L447.2,168.3L446.7,169.7L446.6,171.9L443.8,173.6L442.7,174.0L442.2,175.1L441.5,178.4L441.6,180.9L442.0,182.1L442.1,183.1L443.1,184.3L443.8,186.3L444.4,188.8L445.7,190.7L448.7,192.7L450.3,193.8L451.4,195.4L452.3,196.8L454.9,198.8L454.6,200.1L454.1,201.5L453.5,202.1L452.3,203.8L451.0,204.8L449.0,207.9L445.7,208.0L444.9,208.3L443.7,209.1L443.1,210.6L443.7,211.8L443.6,213.0L443.1,215.4L443.8,218.0L444.9,219.2L445.1,219.8L444.9,221.0L443.2,223.5L442.7,224.3L441.0,224.8L440.5,224.6L439.6,223.7L438.7,223.5L436.7,224.5L434.6,225.0L433.0,224.6L431.4,224.5L430.3,224.9L429.4,225.1L427.8,226.2L425.2,226.9L423.9,226.7L423.4,225.8L423.0,224.4L423.2,223.7L424.9,222.6L425.2,221.5L427.6,216.4L428.1,214.8L428.1,214.2L427.5,213.9L426.1,213.9L420.1,211.8L420.4,209.4L418.7,208.1L416.8,207.0L416.5,205.7L414.4,203.1L412.9,201.6L410.9,200.9L409.2,199.8L408.2,199.2L407.8,198.0L407.8,197.3L407.2,196.5L406.4,196.6L405.1,197.6L403.3,198.4L403.0,199.0L403.7,200.5L404.1,201.4L403.9,202.3L403.3,203.3L400.1,205.8L399.7,206.6L400.4,208.0L400.0,208.6L397.3,209.5L397.4,208.8L397.1,207.6L395.6,206.3L393.4,205.3L388.5,201.9L386.6,201.5L384.9,201.1L382.5,199.4L381.3,199.2L379.9,198.0L376.9,194.1L374.3,191.9L372.6,190.9L372.1,189.8L372.0,188.7L372.1,188.4L373.4,186.8L374.4,186.6L375.7,186.5L376.6,187.3L377.7,187.5L378.4,186.5L378.7,185.1L378.5,183.2L375.8,178.9L373.5,175.9L373.2,175.3L373.7,174.7L374.5,174.4L375.4,174.6L377.7,174.8L379.9,174.6L380.6,173.8L380.6,172.9L379.8,171.9L377.3,169.5L375.2,167.3L372.9,165.6L371.1,165.0L370.6,164.1L370.4,163.2L370.6,161.5L370.7,159.4L371.1,158.1L372.7,155.6L374.2,152.8L375.1,150.3L375.6,147.9L375.5,147.2L374.7,146.7L373.0,146.2L370.7,146.6L368.8,147.5L368.0,147.6L367.7,146.5L368.0,146.0L368.7,146.0L369.1,146.3L369.7,145.8L370.0,144.3L369.2,139.3L370.6,138.8L370.7,138.1L370.8,137.4L372.3,138.3L374.4,138.3L376.3,138.1L376.6,137.7L376.6,136.9L376.2,136.4L375.5,135.9L375.1,135.2L373.8,134.9L369.9,133.1L368.0,131.1L368.0,129.0L368.5,127.9L369.2,127.5L369.1,127.1L366.8,126.1L366.0,124.8L366.7,123.1L365.5,119.6L364.3,117.4L365.5,116.5L365.7,115.2L365.8,114.4L366.2,114.4L368.2,113.6L368.8,112.8L369.3,112.0L369.7,111.8L371.0,112.7L372.4,112.8L373.9,112.2L375.1,111.4L376.4,110.7L377.0,110.3L377.8,109.5L379.5,107.4L381.3,106.9L383.6,107.5L386.3,107.7L388.3,107.2L393.3,107.8L394.3,108.3L395.0,108.9L396.3,110.7L397.6,113.1L399.3,114.2L401.4,115.5L402.4,116.4L404.0,119.2L405.2,120.6L405.6,120.5L406.0,120.2L406.3,119.9L406.7,120.2L406.7,121.0L406.7,122.9L406.5,124.9L406.9,126.8L406.9,127.4L406.7,128.0L406.7,128.5L407.1,129.0L408.8,130.2L410.4,132.2L412.1,133.6L413.8,134.4L414.8,134.5L416.6,136.0L420.0,137.2L421.1,137.6L421.8,138.2L422.3,139.0L422.3,139.7L421.9,140.1L421.1,141.2L420.8,142.5L420.3,142.8L419.7,142.8L419.3,143.3L419.4,143.8L419.9,144.3L420.6,144.8L421.9,145.3L423.3,146.0L423.3,146.6L423.0,147.2L421.3,147.4L420.0,147.6L419.4,147.8L419.5,148.9L423.0,150.0L424.7,151.1L425.5,152.5L427.8,153.4L431.5,153.8L434.1,155.3L435.5,157.7L437.9,157.1L441.2,153.5L444.4,152.6L447.5,154.3L449.3,155.7L449.6,156.7L448.8,157.2L447.1,157.0L445.6,157.7L444.5,159.3L444.3,160.9L445.1,162.7L446.2,163.9L447.7,164.6L448.4,165.5L448.6,166.6Z" fill="#4ECDC4" stroke="#2C3E50" stroke-width="1"/></g><circle cx="400.0" cy="150.0" r="4" fill="#E74C3C" stroke="#fff" stroke-width="2"/><text x="400.0" y="140.0" text-anchor="middle" font-family="sans-serif" font-weight="700" font-size="10" fill="#2D3436">Belgrade</text></svg>