<svg viewBox="0 0 800 300" xmlns="http://www.w3.org/2000/svg"><defs><clipPath id="v"><rect width="800" height="300"/></clipPath></defs><rect width="800" height="300" fill="#DCEEF8"/><g clip-path="url(#v)"><path d="M671,83L683,91L927,228L931,267L1028,334L997,418L1001,456L1044,481L1046,498L1027,539L1031,560L1027,592L1050,635L1078,702L1103,717L1049,757L976,784L935,783L911,803L865,805L847,814L766,794L715,800L697,707L674,675L660,656L594,643L556,623L513,611L487,600L458,583L422,497L383,459L370,420L376,385L364,323L392,319L417,295L443,260L459,246L459,224L444,208L440,182L460,173L464,134L437,96L461,88L534,89Z" fill="#E0E0E0" stroke="#fff" stroke-width=".4"/><path d="M364,323L376,385L370,420L383,459L422,497L458,583L432,576L342,587L324,595L304,639L319,669L308,750L299,819L317,831L364,858L383,845L388,919L337,919L309,881L285,852L233,842L218,806L177,828L123,818L100,787L58,780L26,782L22,761L-1,759L-32,755L-73,765L-103,764L-119,770L-115,688L-138,663L-143,621L-133,580L-147,554L-148,511L-229,512L-224,487L-258,488L-262,500L-303,502L-320,542L-330,559L-368,549L-390,559L-434,564L-460,529L-475,507L-495,466L-511,416L-710,415L-733,423L-753,422L-781,431L-790,410L-773,403L-771,373L-760,356L-735,341L-718,348L-695,323L-658,323L-654,342L-629,354L-589,312L-550,279L-533,257L-535,202L-506,137L-475,102L-431,70L-423,48L-421,23L-410,0L-414,-38L-406,-98L-392,-140L-372,-176L-368,-216L-362,-263L-336,-298L-300,-319L-244,-297L-202,-272L-152,-265L-102,-252L-82,-293L-73,-298L-42,-291L33,-325L59,-310L81,-313L91,-329L116,-335L167,-328L210,-326L232,-333L273,-277L303,-269L321,-281L352,-276L390,-290L406,-262L465,-217L461,-138L488,-129L466,-105L440,-87L415,-52L400,-21L397,33L381,59L380,110L361,129L359,169L349,174L343,211L360,241Z" fill="#E0E0E0" stroke="#fff" stroke-width=".4"/><path d="M1028,334L931,267L927,228L683,91L671,83L671,12L690,-15L723,-60L748,-109L718,-186L710,-220L678,-267L720,-307L765,-352L800,-340L800,-302L823,-280L870,-280L955,-223L976,-222L992,-224L1007,-216L1052,-211L1072,-239L1133,-267L1160,-244L1206,-244L1148,-168L1148,77L1188,133L1141,160L1125,188L1099,193L1090,240L1068,267L1055,312Z" fill="#E0E0E0" stroke="#fff" stroke-width=".4"/><path d="M232,-333L210,-326L167,-328L116,-335L91,-329L81,-313L59,-310L33,-325L-42,-291L-73,-298L-82,-293L-102,-252L-152,-265L-202,-272L-244,-297L-300,-319L-336,-298L-362,-263L-368,-216L-411,-220L-457,-232L-497,-196L-532,-133L-539,-153L-542,-183L-573,-205L-598,-240L-604,-264L-636,-299L-630,-319L-637,-348L-632,-400L-616,-413L-582,-481L-526,-486L-514,-504L-502,-503L-486,-487L-401,-513L-372,-540L-337,-563L-344,-587L-325,-594L-260,-590L-197,-621L-148,-696L-114,-723L-71,-735L-64,-706L-25,-663L-25,-635L-36,-607L-31,-585L-8,-566L43,-536L80,-509L81,-487L126,-451L154,-422L171,-381L221,-355Z" fill="#E0E0E0" stroke="#fff" stroke-width=".4"/><path d="M-735,341L-760,356L-771,373L-773,403L-790,410L-808,359L-781,330L-761,318ZM-781,431L-753,422L-733,423L-710,415L-511,416L-495,466L-475,507L-460,529L-434,564L-390,559L-368,549L-330,559L-320,542L-303,502L-262,500L-258,488L-224,487L-229,512L-148,511L-147,554L-133,580L-143,621L-138,663L-115,688L-119,770L-103,764L-73,765L-32,755L-1,759L6,780L-2,814L10,846L0,872L6,896L-134,895L-137,1116L-92,1173L-48,1217L-171,1246L-334,1236L-381,1202L-517,1204L-654,1205L-664,1210L-704,1178L-748,1176L-788,1188L-820,1202L-827,1157L-817,1096L-794,1032L-790,1002L-769,940L-753,911L-714,866L-692,835L-685,785L-689,746L-709,721L-727,680L-743,639L-740,625L-719,598L-740,532L-753,487L-787,444Z" fill="#E0E0E0" stroke="#fff" stroke-width=".4"/><path d="M440,182L444,208L459,224L459,246L443,260L417,295L392,319L364,323L360,241L343,211L384,216L405,178Z" fill="#E0E0E0" stroke="#fff" stroke-width=".4"/><path d="M671,83L534,89L461,88L437,96L397,117L380,110L381,59L397,33L400,-21L415,-52L440,-87L466,-105L488,-129L461,-138L465,-217L493,-235L535,-220L590,-236L637,-236L678,-267L710,-220L718,-186L748,-109L723,-60L690,-15L671,12Z" fill="#E0E0E0" stroke="#fff" stroke-width=".4"/></g><g clip-path="url(#v)"><path d="M380.2,112.9L382.4,112.7L396.9,109.4L398.4,110.4L400.8,117.2L402.0,118.1L404.0,118.3L408.1,116.8L415.6,111.6L418.7,108.3L422.6,103.9L427.5,98.7L430.4,94.4L433.0,91.7L436.4,91.0L440.3,91.1L443.0,91.2L440.8,92.3L440.3,95.6L443.0,100.7L451.2,111.5L456.5,113.4L459.9,117.6L463.3,124.7L464.5,133.4L463.1,143.9L463.8,151.9L466.9,157.0L467.7,163.7L466.2,171.9L464.5,176.8L462.3,178.4L460.2,179.1L456.8,178.5L452.9,179.2L448.8,180.8L446.1,181.0L444.4,180.6L441.3,179.4L436.2,175.1L427.0,177.5L424.6,177.4L421.2,179.5L418.3,181.9L416.6,182.0L414.9,181.7L406.9,176.8L404.0,176.9L402.8,190.9L401.5,198.8L399.8,202.3L394.3,205.7L388.5,207.5L385.3,207.4L372.7,208.5L367.6,208.5L365.0,207.3L361.3,199.3L354.8,195.8L348.3,194.2L345.8,194.7L343.4,198.8L342.4,202.5L336.1,199.9L334.4,196.8L334.2,191.4L331.8,184.1L333.2,181.0L335.7,179.0L340.7,175.1L348.7,169.8L350.4,167.2L351.4,162.9L350.9,153.1L350.2,144.6L351.2,141.6L354.8,135.2L359.4,128.5L365.2,121.6L368.6,120.9L373.0,118.2L377.6,114.3Z" fill="#4ECDC4" stroke="#2C3E50" stroke-width="1"/></g><circle cx="400.0" cy="150.0" r="4" fill="#E74C3C" stroke="#fff" stroke-width="2"/><text x="400.0" y="140.0" text-anchor="middle" font-family="sans-serif" font-weight="700" font-size="10" fill="#2D3436">Kigali</text></svg>