<svg viewBox="0 0 800 300" xmlns="http://www.w3.org/2000/svg"><defs><clipPath id="v"><rect width="800" height="300"/></clipPath></defs><rect width="800" height="300" fill="#DCEEF8"/><g clip-path="url(#v)"><path d="M1306,448L1308,447L1310,449L1309,453L1305,454L1301,453L1300,450L1303,447ZM1319,442L1314,443L1310,445L1309,442L1313,441L1315,440L1319,438L1319,438L1319,442ZM-1163,438L-1163,438L-1163,438L-1162,438L-1162,441L-1163,442L-1163,442L-1163,438Z" fill="#E0E0E0" stroke="#fff" stroke-width=".4"/><path d="M312,332L313,333L338,347L338,351L348,358L345,367L345,370L350,373L350,375L348,379L349,381L348,384L350,389L353,396L356,397L350,401L343,404L339,404L336,406L331,406L330,407L321,405L316,406L314,396L312,393L311,391L304,390L300,388L295,386L293,385L290,383L286,375L282,371L281,367L281,363L280,357L283,356L286,354L288,350L290,349L290,347L288,345L288,342L290,342L290,337L288,334L290,333L298,333Z" fill="#E0E0E0" stroke="#fff" stroke-width=".4"/><path d="M18,127L18,128L18,129L18,141L-5,141L-4,160L-11,161L-13,164L-11,175L-38,175L-40,178L-39,174L-39,175L-24,174L-23,171L-20,168L-18,158L-8,149L-5,140L-3,139L-1,133L5,132L8,133L11,133L13,132L17,131L17,127Z" fill="#E0E0E0" stroke="#fff" stroke-width=".4"/><path d="M680,-65L675,-58L669,-57L669,-47L665,-42L651,-46L646,-28L643,-26L629,-22L635,-5L631,-2L631,3L627,1L624,-2L613,-3L602,-3L599,-2L590,-6L586,-4L585,1L573,-2L569,-0L567,4L563,5L554,12L551,18L548,18L547,14L538,14L536,6L533,6L534,-3L525,-10L514,-9L505,-8L499,-17L493,-20L483,-27L481,-28L463,-22L464,12L460,13L455,6L451,3L443,5L440,8L439,6L441,2L440,-1L432,-4L429,-13L425,-15L425,-19L431,-18L432,-25L438,-26L444,-25L445,-35L444,-41L437,-40L431,-43L423,-38L416,-36L413,-38L414,-43L409,-50L404,-50L398,-57L402,-64L400,-67L406,-78L413,-72L414,-80L428,-92L439,-92L454,-85L462,-80L469,-85L480,-85L489,-79L491,-83L501,-82L502,-87L491,-95L498,-100L497,-104L503,-106L498,-114L501,-118L527,-122L531,-125L548,-130L554,-135L566,-132L569,-120L576,-123L585,-119L584,-112L591,-113L608,-124L605,-120L614,-111L630,-83L633,-89L643,-82L653,-85L657,-83L660,-77L665,-75L668,-70L677,-72Z" fill="#E0E0E0" stroke="#fff" stroke-width=".4"/><path d="M464,12L463,-22L481,-28L483,-27L493,-20L499,-17L505,-8L514,-9L525,-10L534,-3L533,6L536,6L538,14L547,14L548,18L551,18L554,12L563,5L567,4L569,5L563,11L568,14L573,12L582,17L573,23L567,22L565,22L564,20L565,16L556,18L554,24L550,29L545,28L543,32L548,34L549,41L546,50L540,48L537,48L537,42L528,39L520,34L516,30L508,24L505,15L502,13L495,13L492,11L491,4L482,-1L476,5L470,8L472,12Z" fill="#E0E0E0" stroke="#fff" stroke-width=".4"/><path d="M1050,344L1050,366L1050,389L1044,383L1037,382L1035,384L1027,384L1030,378L1034,376L1032,369L1029,363L1015,357L1010,357L999,350L997,354L995,354L993,352L993,349L988,345L995,343L1000,343L1000,341L990,341L987,337L981,336L978,332L987,331L991,328L1002,331L1003,334L1005,345L1012,349L1018,342L1025,337L1032,337L1037,340L1043,342ZM939,387L940,389L940,391L936,396L930,398L929,397L930,394L933,390ZM1003,373L1002,368L1004,366L1005,363L1007,365L1007,369ZM891,297L887,303L892,310L891,313L898,320L890,320L888,325L888,331L881,336L881,343L879,353L878,351L870,354L867,350L862,349L859,347L851,350L848,346L843,347L838,346L837,337L833,335L830,329L829,323L830,316L834,312L835,317L840,320L844,319L849,320L853,316L856,315L862,317L868,316L872,306L874,304L877,296L885,296ZM970,345L977,347L980,352L974,350L968,349L964,349L960,349L961,345ZM953,352L948,351L946,348L953,347L955,350ZM960,311L960,315L964,315L965,318L965,324L961,323L960,327L963,331L961,332L958,328L956,319L958,313ZM925,320L933,319L940,314L941,316L936,323L931,324L924,323L912,323L906,324L905,329L912,335L915,332L928,330L928,333L925,332L922,336L916,339L922,348L921,350L927,358L927,363L923,365L921,362L924,357L917,359L915,357L916,355L911,351L912,344L907,346L908,354L908,364L904,365L901,363L903,357L902,350L899,350L897,345L900,341L901,335L904,325L905,322L911,317L917,319ZM907,397L898,392L905,391L908,393L911,395L910,397ZM914,385L919,384L925,382L924,386L914,388L905,387L905,384L910,383ZM893,384L897,383L899,386L891,387L886,388L883,388L885,384L889,384L891,382ZM826,370L827,373L840,373L841,370L854,374L857,378L867,380L876,384L868,386L860,384L854,384L847,383L840,382L832,379L827,379L824,379L812,377L811,374L804,373L809,366L817,367L823,370ZM797,333L799,338L801,342L806,342L809,347L808,355L807,366L800,366L794,361L785,355L782,351L777,345L774,340L768,330L762,324L760,319L758,313L751,309L748,303L743,299L735,291L735,288L739,288L750,290L756,296L761,301L765,304L772,311L779,311L785,316L789,322L794,325L791,331L795,333Z" fill="#E0E0E0" stroke="#fff" stroke-width=".4"/><path d="M280,357L281,363L281,367L282,371L286,375L290,383L287,383L278,384L276,385L274,389L276,392L274,401L274,408L275,409L280,412L282,410L283,418L277,418L275,414L272,411L267,410L265,406L261,409L255,408L253,404L249,404L246,404L245,402L243,402L240,401L235,402L232,402L231,403L231,394L229,392L228,387L229,383L228,381L228,376L219,376L220,374L216,374L216,375L212,375L210,379L209,381L205,380L203,381L198,382L196,378L194,376L192,371L190,366L170,366L168,367L166,367L163,368L162,366L164,365L164,362L165,360L167,359L169,359L172,357L175,357L176,359L178,360L183,356L187,352L188,350L188,344L191,338L194,334L199,331L200,329L200,326L201,324L200,320L201,314L203,309L205,306L205,302L206,297L208,293L212,291L218,293L222,296L227,297L232,298L234,294L235,293L239,294L246,290L249,292L251,292L252,290L255,289L260,290L264,290L267,290L271,295L274,296L276,295L279,295L283,294L284,297L290,302L290,310L293,311L291,313L288,315L285,318L284,322L283,327L282,330L282,335L280,337L280,341L279,342L278,345L280,348Z" fill="#E0E0E0" stroke="#fff" stroke-width=".4"/><path d="M365,337L361,332L360,307L366,299L368,297L373,296L379,292L388,291L407,270L412,265L415,260L415,257L415,250L415,247L415,247L418,246L421,245L424,245L428,242L430,242L430,244L430,248L430,252L428,254L426,262L423,270L419,279L413,289L407,297L399,306L392,312L382,318L375,324L368,332L366,336Z" fill="#E0E0E0" stroke="#fff" stroke-width=".4"/><path d="M348,358L338,351L338,347L313,333L312,332L312,325L314,322L317,318L319,313L316,305L316,301L312,296L317,292L321,288L325,289L325,293L327,295L332,295L341,301L343,301L345,301L346,302L351,302L353,299L359,296L362,299L366,299L360,307L361,332L365,337L360,340L358,343L355,343L355,348L352,351L351,356Z" fill="#E0E0E0" stroke="#fff" stroke-width=".4"/><path d="M247,269L242,266L240,264L239,262L240,259L240,256L236,251L236,248L236,247L233,245L233,241L232,238L229,238L230,236L232,233L231,230L233,228L232,226L233,222L237,216L243,217L242,188L242,185L250,185L250,170L278,170L305,170L332,170L334,177L333,179L334,186L336,195L339,197L343,200L339,204L334,205L332,207L331,212L328,222L329,225L328,231L325,238L321,242L318,247L317,250L314,252L312,259L312,266L312,260L311,260L311,257L310,254L307,251L306,246L307,241L304,241L303,242L299,243L301,245L301,249L297,253L294,258L290,258L285,254L282,256L281,258L278,259L278,261L271,261L270,259L265,259L262,260L260,260L257,255L256,254L251,255L249,258L247,264L245,265L243,266Z" fill="#E0E0E0" stroke="#fff" stroke-width=".4"/><path d="M242,188L243,217L237,216L233,222L232,226L233,228L231,230L232,233L230,236L229,238L232,238L233,241L233,245L236,247L236,248L231,250L228,252L223,260L216,263L210,263L208,264L208,266L205,268L202,271L193,274L191,272L190,272L189,274L183,274L184,273L182,268L181,265L178,264L174,260L176,256L179,257L181,257L185,257L181,250L181,246L181,241L178,236L179,233L174,233L174,228L171,226L174,216L183,209L183,200L186,185L188,182L185,180L185,177L182,175L180,164L187,160L215,174Z" fill="#E0E0E0" stroke="#fff" stroke-width=".4"/><path d="M724,-679L739,-690L753,-667L769,-628L767,-594L752,-590L733,-600L721,-614L716,-642L707,-650ZM787,-609L804,-588L802,-574L763,-562L776,-607L782,-611ZM1035,-507L1053,-505L1078,-490L1073,-470L1047,-471L1036,-465L1022,-482L1026,-501ZM1100,-484L1117,-477L1109,-467L1098,-469L1085,-480L1087,-489ZM1042,-434L1049,-444L1057,-446L1067,-436L1068,-430L1057,-430L1043,-433ZM387,-661L401,-668L411,-669L412,-658L416,-668L423,-675L433,-665L430,-659L421,-653L415,-650L414,-644L406,-637L399,-646L402,-659ZM235,-122L222,-122L213,-123L215,-129L225,-132L232,-130L235,-128L234,-125ZM447,-443L463,-465L461,-477L477,-492L500,-510L523,-515L534,-526L548,-530L553,-519L548,-509L524,-495L502,-482L481,-457L471,-433L460,-410L461,-392L475,-375L470,-373L448,-375L446,-385L434,-391L433,-402L440,-407L439,-420L453,-440ZM1063,-115L1066,-104L1065,-93L1068,-82L1075,-63L1065,-66L1061,-51L1067,-41L1067,-34L1062,-40L1057,-32L1056,-40L1057,-50L1056,-61L1058,-69L1058,-84L1054,-95L1055,-110L1061,-116L1058,-121L1061,-123ZM-1163,-339L-1163,-339L-1146,-325L-1128,-307L-1129,-296L-1124,-292L-1126,-304L-1107,-302L-1093,-286L-1100,-278L-1112,-277L-1112,-261L-1114,-257L-1121,-258L-1126,-263L-1135,-268L-1137,-275L-1144,-278L-1152,-276L-1155,-282L-1154,-288L-1162,-284L-1159,-276L-1163,-269L-1163,-269L-1163,-339ZM1319,-269L1319,-269L1310,-262L1301,-263L1307,-254L1311,-242L1314,-238L1315,-231L1314,-227L1301,-231L1281,-220L1275,-218L1265,-208L1255,-199L1252,-193L1242,-202L1224,-192L1221,-197L1215,-191L1205,-193L1203,-184L1195,-171L1195,-166L1203,-163L1202,-144L1196,-144L1193,-134L1196,-128L1184,-122L1181,-109L1171,-106L1169,-95L1159,-84L1156,-92L1153,-109L1149,-135L1153,-152L1159,-159L1159,-165L1170,-168L1182,-185L1194,-199L1206,-210L1212,-231L1203,-230L1199,-218L1182,-202L1176,-220L1158,-215L1141,-191L1147,-183L1131,-179L1121,-178L1121,-188L1111,-190L1102,-183L1081,-185L1058,-181L1036,-156L1009,-127L1020,-125L1024,-118L1030,-115L1035,-121L1042,-121L1052,-108L1053,-98L1047,-87L1047,-74L1043,-57L1033,-42L1031,-35L1021,-24L1012,-13L1008,-7L999,-1L994,-1L990,-6L981,1L980,4L980,4L979,2L978,-2L982,-3L983,-14L981,-22L987,-26L995,-24L1000,-33L1002,-44L1005,-48L1009,-57L997,-54L991,-50L981,-50L978,-60L970,-68L958,-71L955,-81L953,-88L950,-93L946,-104L940,-109L930,-112L921,-112L912,-110L906,-104L910,-101L910,-95L906,-91L900,-80L900,-75L891,-68L882,-72L874,-71L870,-75L866,-76L856,-69L847,-67L841,-64L832,-66L826,-66L822,-71L815,-76L808,-78L799,-76L793,-74L783,-79L782,-87L773,-90L767,-91L759,-96L752,-84L755,-78L748,-71L738,-73L732,-74L727,-79L720,-79L714,-82L703,-77L690,-68L683,-66L680,-65L677,-72L668,-70L665,-75L660,-77L657,-83L653,-85L643,-82L633,-89L630,-83L614,-111L605,-120L608,-124L591,-113L584,-112L585,-119L576,-123L569,-120L566,-132L554,-135L548,-130L531,-125L527,-122L501,-118L498,-114L503,-106L497,-104L498,-100L491,-95L502,-87L501,-82L491,-83L489,-79L480,-85L469,-85L462,-80L454,-85L439,-92L428,-92L414,-80L413,-72L406,-78L400,-67L402,-64L398,-57L404,-50L409,-50L414,-43L413,-38L416,-36L413,-30L407,-29L400,-19L406,-9L405,-3L413,8L409,12L408,14L405,13L400,8L398,7L393,5L391,1L385,-1L381,1L380,-1L370,-5L360,-7L354,-8L353,-7L345,-15L337,-19L331,-25L336,-26L341,-35L338,-39L348,-43L348,-45L341,-43L342,-48L345,-51L352,-51L353,-55L351,-61L354,-66L354,-69L344,-73L340,-73L336,-78L330,-76L322,-80L322,-82L319,-87L314,-87L313,-91L315,-93L311,-99L303,-98L301,-99L300,-96L297,-97L295,-104L294,-108L295,-109L301,-108L303,-111L301,-114L297,-116L297,-118L294,-120L290,-128L291,-131L291,-137L284,-140L280,-138L279,-141L272,-144L270,-152L269,-158L266,-161L269,-165L267,-177L272,-185L271,-187L279,-195L271,-201L286,-220L293,-228L295,-236L285,-246L288,-257L282,-268L286,-283L278,-302L285,-316L274,-328L275,-341L281,-343L292,-351L299,-358L311,-346L330,-341L356,-320L361,-311L361,-300L354,-290L343,-286L312,-299L307,-297L318,-284L318,-276L319,-260L328,-255L333,-251L334,-259L330,-265L334,-272L351,-262L357,-265L352,-278L368,-294L374,-293L381,-287L385,-299L379,-309L383,-320L377,-332L397,-326L401,-316L392,-313L392,-303L397,-297L408,-301L410,-313L424,-321L448,-337L453,-336L447,-325L455,-323L460,-329L473,-330L483,-338L491,-326L499,-339L492,-350L495,-357L516,-351L525,-345L550,-323L555,-333L548,-343L548,-347L539,-349L542,-358L538,-374L538,-381L550,-401L555,-421L560,-426L578,-420L580,-407L573,-389L578,-382L580,-368L578,-340L586,-329L583,-316L569,-291L577,-289L580,-295L588,-300L589,-308L595,-317L591,-327L595,-340L587,-341L585,-352L591,-373L582,-390L594,-405L593,-421L596,-422L600,-409L597,-388L604,-384L601,-399L613,-408L627,-409L640,-397L634,-415L633,-441L645,-446L662,-445L676,-448L671,-461L679,-478L687,-479L700,-493L718,-496L721,-504L739,-507L744,-500L760,-516L773,-515L774,-528L781,-541L797,-554L809,-544L800,-536L815,-531L817,-517L824,-524L844,-523L859,-509L865,-498L863,-484L855,-476L837,-461L832,-454L841,-450L851,-444L857,-449L861,-433L864,-439L875,-443L897,-439L898,-428L927,-424L928,-443L942,-438L953,-439L964,-426L968,-411L964,-402L972,-385L983,-376L990,-398L1001,-389L1012,-395L1026,-388L1031,-394L1042,-391L1037,-412L1046,-422L1078,-415L1109,-407L1114,-393L1132,-377L1160,-381L1174,-378L1180,-369L1179,-354L1187,-349L1197,-353L1209,-353L1222,-349L1235,-351L1247,-334L1256,-340L1250,-353L1253,-362L1275,-356L1289,-357L1309,-348L1319,-339L1319,-269ZM1319,-377L1311,-376L1310,-382L1319,-391L1319,-377ZM-1163,-391L-1163,-391L-1163,-391L-1162,-392L-1156,-392L-1146,-386L-1147,-383L-1154,-378L-1163,-377L-1163,-377L-1163,-391ZM308,-32L310,-34L315,-32L317,-32L318,-30L319,-30L319,-29L323,-26L330,-27L328,-24L321,-22L311,-16L308,-18L309,-23L302,-26L303,-27L309,-31Z" fill="#E0E0E0" stroke="#fff" stroke-width=".4"/><path d="M182,-624L185,-637L195,-639L204,-625L226,-597L209,-583L205,-558L199,-552L196,-526L188,-525L173,-544L179,-555L169,-565L155,-594L150,-623L169,-637L172,-623ZM292,-351L281,-343L275,-341L278,-355L269,-363L258,-356L255,-342L248,-333L241,-338L232,-337L224,-347L220,-342L216,-341L215,-329L202,-332L200,-321L194,-322L189,-309L182,-289L171,-266L174,-260L171,-254L165,-254L160,-240L161,-220L165,-213L163,-196L157,-187L154,-179L149,-187L136,-172L126,-169L117,-175L115,-190L112,-222L119,-232L137,-245L150,-261L163,-284L180,-318L191,-332L210,-356L225,-365L237,-364L247,-381L260,-380L272,-384L294,-369L285,-364ZM267,-639L257,-618L237,-613L216,-620L215,-630L205,-631L198,-649L219,-661L229,-651L236,-664L253,-653ZM248,-559L233,-546L221,-554L226,-562L221,-573L236,-580L238,-567Z" fill="#E0E0E0" stroke="#fff" stroke-width=".4"/><path d="M-244,-757L-221,-791L-197,-788L-188,-810L-164,-816L-136,-813L-109,-809L-86,-786L-66,-763L-79,-742L-105,-740L-142,-735L-139,-726L-114,-732L-93,-715L-80,-730L-74,-712L-82,-685L-64,-702L-31,-721L-10,-711L-6,-691L-34,-660L-38,-651L-60,-644L-44,-642L-52,-613L-58,-590L-58,-552L-49,-532L-60,-531L-72,-521L-59,-506L-57,-482L-65,-479L-56,-457L-71,-455L-63,-445L-65,-436L-75,-432L-85,-432L-76,-416L-76,-406L-89,-416L-93,-410L-84,-404L-75,-390L-72,-373L-84,-369L-90,-377L-98,-390L-96,-375L-104,-364L-86,-363L-76,-362L-95,-345L-113,-330L-134,-324L-141,-323L-148,-316L-158,-298L-173,-286L-177,-285L-187,-281L-197,-277L-202,-267L-203,-255L-206,-245L-217,-233L-215,-221L-218,-210L-221,-196L-231,-195L-241,-206L-255,-206L-262,-214L-266,-229L-278,-247L-282,-258L-282,-272L-292,-288L-290,-300L-294,-307L-287,-328L-277,-335L-274,-343L-273,-358L-281,-351L-284,-348L-291,-346L-299,-352L-300,-366L-297,-377L-290,-377L-276,-371L-288,-385L-294,-392L-301,-389L-307,-395L-299,-415L-304,-424L-309,-441L-317,-468L-326,-478L-326,-489L-344,-506L-359,-508L-378,-507L-394,-504L-402,-514L-414,-533L-396,-542L-382,-544L-412,-552L-427,-566L-426,-579L-400,-596L-375,-613L-372,-627L-391,-641L-385,-658L-361,-688L-351,-693L-354,-714L-338,-727L-316,-735L-295,-735L-288,-720L-269,-747L-253,-728L-243,-724L-229,-709L-245,-735Z" fill="#E0E0E0" stroke="#fff" stroke-width=".4"/><path d="M939,387L940,386L946,384L951,384L953,383L956,384L953,386L946,389L940,391L940,389Z" fill="#E0E0E0" stroke="#fff" stroke-width=".4"/><path d="M191,531L194,528L197,530L198,533L201,534L205,535L209,535L215,531L215,502L217,503L221,510L220,515L222,518L227,517L230,514L234,511L235,508L239,506L242,507L245,509L250,509L255,508L256,505L257,502L261,501L263,498L265,493L271,487L281,482L284,482L287,483L289,482L293,483L296,494L298,499L297,508L297,510L294,509L292,509L291,512L289,515L289,517L294,521L298,521L299,517L304,517L303,523L302,529L300,533L295,537L294,538L291,542L289,546L285,552L277,560L272,565L267,569L260,572L257,572L256,575L251,574L248,575L241,574L236,575L234,574L226,577L221,579L216,582L213,582L210,579L208,579L205,575L205,576L204,574L204,569L201,564L204,562L204,556L199,549L196,542L196,542ZM278,534L275,532L271,534L268,537L264,542L269,548L272,547L273,545L277,543L278,541L280,537Z" fill="#E0E0E0" stroke="#fff" stroke-width=".4"/><path d="M-290,573L-292,569L-289,565L-293,559L-298,555L-305,550L-308,550L-315,544L-319,544L-310,534L-302,526L-298,523L-292,519L-292,512L-295,508L-299,509L-297,505L-296,501L-296,496L-299,495L-301,496L-304,496L-305,493L-305,486L-307,484L-311,482L-314,483L-322,482L-321,472L-323,468L-321,466L-322,462L-320,459L-318,453L-320,449L-324,447L-325,444L-324,440L-337,439L-339,431L-337,431L-338,428L-339,426L-339,422L-343,420L-348,420L-350,418L-355,416L-358,414L-365,412L-373,406L-372,401L-373,399L-373,393L-382,395L-385,397L-391,400L-393,402L-396,402L-401,402L-405,403L-408,402L-408,391L-414,396L-420,395L-422,392L-427,391L-425,388L-429,384L-432,378L-430,376L-430,374L-426,372L-427,368L-425,365L-425,362L-417,357L-411,356L-410,355L-404,355L-401,336L-401,333L-402,330L-405,327L-405,322L-401,321L-400,322L-399,319L-403,318L-403,314L-390,314L-388,312L-386,314L-384,318L-383,317L-379,321L-374,320L-373,318L-368,317L-365,315L-364,313L-359,311L-359,309L-365,309L-366,304L-366,300L-369,298L-368,297L-363,298L-357,300L-355,298L-350,297L-342,294L-340,292L-341,290L-337,290L-336,291L-337,294L-334,295L-333,298L-334,301L-336,307L-334,310L-333,313L-329,317L-326,317L-325,316L-323,315L-320,314L-317,312L-314,313L-312,313L-308,313L-308,312L-309,310L-308,308L-305,309L-302,308L-298,310L-295,311L-293,309L-291,310L-290,312L-287,311L-284,308L-282,303L-278,297L-276,297L-274,301L-270,313L-267,314L-266,319L-272,324L-269,326L-257,327L-257,334L-252,330L-243,332L-232,336L-228,340L-229,344L-221,342L-208,346L-198,346L-188,351L-179,359L-173,361L-168,361L-165,363L-163,372L-162,377L-164,388L-168,393L-177,402L-182,410L-187,416L-189,417L-191,422L-190,435L-192,446L-193,451L-195,454L-196,464L-203,473L-204,481L-210,484L-212,489L-219,488L-230,491L-235,495L-242,497L-251,503L-256,511L-257,516L-256,521L-258,528L-259,532L-264,537L-272,551L-278,557L-282,561L-286,569Z" fill="#E0E0E0" stroke="#fff" stroke-width=".4"/><path d="M-278,297L-282,303L-284,308L-287,311L-290,312L-291,310L-293,309L-295,311L-298,310L-296,307L-296,304L-294,301L-297,297L-298,292L-294,286L-292,287L-287,288L-279,294ZM121,-68L124,-65L134,-63L130,-56L129,-49L127,-47L124,-48L125,-45L120,-39L119,-35L123,-37L125,-32L125,-29L127,-26L124,-23L126,-15L130,-14L129,-10L123,-4L109,-7L99,-4L98,2L91,3L83,-1L80,1L68,-4L65,-7L68,-13L70,-32L63,-43L57,-48L47,-52L46,-60L55,-62L67,-59L65,-71L71,-67L87,-75L89,-84L95,-86L96,-82L99,-82L103,-78L107,-72L111,-73L117,-68L119,-68ZM138,0L143,-3L144,5L142,12L138,10L137,4Z" fill="#E0E0E0" stroke="#fff" stroke-width=".4"/><path d="M293,483L289,482L287,483L284,482L281,482L276,479L271,477L269,473L269,470L266,469L258,461L256,457L255,456L252,450L260,451L262,452L264,451L268,447L274,441L277,440L277,438L281,435L287,434L287,437L293,437L296,438L297,440L301,440L304,443L304,452L303,457L303,462L304,464L303,469L302,469L300,475Z" fill="#E0E0E0" stroke="#fff" stroke-width=".4"/><path d="M281,482L271,487L265,493L263,498L261,501L257,502L256,505L255,508L250,509L245,509L242,507L239,506L235,508L234,511L230,514L227,517L222,518L220,515L221,510L217,503L215,502L215,480L222,480L222,454L227,454L238,451L240,454L245,451L247,451L251,449L252,450L255,456L256,457L258,461L266,469L269,470L269,473L271,477L276,479Z" fill="#E0E0E0" stroke="#fff" stroke-width=".4"/><path d="M215,502L215,531L209,535L205,535L201,534L198,533L197,530L194,528L191,531L185,526L183,520L181,512L180,507L177,495L177,486L176,482L174,479L170,473L166,464L165,460L159,452L159,447L162,446L166,444L171,444L175,448L176,447L204,447L209,450L225,451L238,448L244,447L248,447L251,449L251,449L247,451L245,451L240,454L238,451L227,454L222,454L222,480L215,480Z" fill="#E0E0E0" stroke="#fff" stroke-width=".4"/><path d="M-37,231L-40,226L-44,223L-41,222L-37,217L-36,213L-33,211L-30,211L-26,210L-23,210L-19,212L-15,214L-11,219L-6,224L-6,228L-4,232L-2,234L-1,237L-1,239L-2,240L-6,239L-7,240L-8,240L-13,238L-17,238L-29,238L-31,239L-33,239L-37,240L-38,234L-32,234L-30,233L-29,233L-26,232L-24,233L-21,233L-18,232L-19,230L-21,231L-23,231L-26,229L-28,229L-30,231Z" fill="#E0E0E0" stroke="#fff" stroke-width=".4"/><path d="M-1,239L-1,237L-2,234L-4,232L-6,228L-6,224L-4,223L-3,218L-0,218L4,220L8,219L11,219L12,218L40,218L41,213L40,212L37,180L33,148L44,148L67,164L90,180L92,184L96,186L100,187L100,192L107,191L107,208L104,213L103,217L97,218L87,219L85,221L81,222L76,222L74,220L71,221L64,224L63,226L57,230L57,232L54,233L50,232L48,234L47,239L42,244L42,247L40,250L41,254L38,255L36,256L35,253L33,254L32,253L31,255L25,255L23,254L23,255L20,253L21,251L20,250L18,251L19,248L20,247L17,244L17,242L15,240L14,240L12,241L10,242L8,244L5,243L3,241L2,241L0,242L-1,242Z" fill="#E0E0E0" stroke="#fff" stroke-width=".4"/><path d="M-40,178L-38,175L-11,175L-13,164L-11,161L-4,160L-5,141L18,141L18,129L44,148L33,148L37,180L40,212L41,213L40,218L12,218L11,219L8,219L4,220L-0,218L-3,218L-4,223L-6,224L-11,219L-15,214L-19,212L-23,210L-26,210L-30,211L-33,211L-36,213L-36,209L-34,206L-33,199L-34,192L-35,188L-34,184L-36,181Z" fill="#E0E0E0" stroke="#fff" stroke-width=".4"/><path d="M96,283L91,283L89,279L89,263L88,261L88,258L85,255L83,253L84,249L86,249L88,246L91,245L93,243L95,241L98,241L103,245L103,247L104,251L103,254L103,256L100,260L98,262L97,267L97,271Z" fill="#E0E0E0" stroke="#fff" stroke-width=".4"/><path d="M180,164L182,175L185,177L185,180L188,182L186,185L183,200L183,209L174,216L171,226L174,228L174,233L179,233L178,236L176,237L176,239L174,239L170,231L168,231L163,235L157,233L154,233L152,234L148,233L144,236L140,237L132,233L128,235L125,235L122,232L115,229L108,230L106,232L105,236L103,239L103,245L98,241L95,241L93,243L93,238L85,236L85,233L81,228L80,225L81,222L85,221L87,219L97,218L103,217L104,213L107,208L107,191L117,188L137,173L161,159L172,162L175,167Z" fill="#E0E0E0" stroke="#fff" stroke-width=".4"/><path d="M96,283L97,271L97,267L98,262L100,260L103,256L103,254L104,251L103,247L103,245L103,239L105,236L106,232L108,230L115,229L122,232L125,235L128,235L132,233L140,237L144,236L148,233L152,234L154,233L157,233L163,235L168,231L170,231L174,239L176,239L178,242L178,243L177,245L171,251L170,255L169,259L167,261L166,265L162,268L161,272L160,275L159,277L154,280L150,277L148,277L144,281L142,281L138,288L137,293L129,295L127,295L124,296L119,296L115,292L113,287L108,282L103,283Z" fill="#E0E0E0" stroke="#fff" stroke-width=".4"/><path d="M178,236L181,241L181,246L181,250L185,257L181,257L179,257L176,256L174,260L178,264L181,265L182,268L184,273L183,274L180,281L178,283L178,288L178,291L178,293L181,297L182,299L184,303L187,305L188,308L188,310L188,314L182,312L177,310L168,310L167,310L163,311L159,310L156,310L144,310L145,305L143,300L140,299L138,296L136,295L137,293L138,288L142,281L144,281L148,277L150,277L154,280L159,277L160,275L161,272L162,268L166,265L167,261L169,259L170,255L171,251L177,245L178,243L178,242L176,239L176,237Z" fill="#E0E0E0" stroke="#fff" stroke-width=".4"/><path d="M84,249L83,253L85,255L88,258L88,261L89,263L89,279L91,283L85,285L84,282L82,278L81,274L83,268L81,266L80,260L80,255L78,251L78,249Z" fill="#E0E0E0" stroke="#fff" stroke-width=".4"/><path d="M78,249L78,251L80,255L80,260L81,266L83,268L81,274L82,278L84,282L85,285L74,289L71,291L64,293L58,291L59,289L56,283L57,275L60,269L58,259L57,254L58,250L70,249L73,250L75,249Z" fill="#E0E0E0" stroke="#fff" stroke-width=".4"/><path d="M23,255L23,254L25,255L31,255L32,253L33,254L35,253L36,256L38,255L41,254L44,255L45,258L48,259L50,257L54,257L58,259L60,269L57,275L56,283L59,289L58,291L55,291L50,290L46,290L38,291L33,293L26,296L25,296L25,290L26,289L26,286L23,283L21,283L19,281L20,278L19,275L20,273L21,273L21,270L21,268L21,267L24,266L22,261L21,258L21,256Z" fill="#E0E0E0" stroke="#fff" stroke-width=".4"/><path d="M-17,238L-13,238L-8,240L-7,240L-6,239L-2,240L-1,239L-1,242L0,242L2,241L3,241L5,243L8,244L10,242L12,241L14,240L15,240L17,242L17,244L20,247L19,248L18,251L20,250L21,251L20,253L23,255L21,256L21,258L22,261L24,266L21,267L21,268L21,270L21,273L20,273L18,272L16,275L14,275L13,274L14,271L11,267L9,267L7,268L5,268L6,265L4,264L5,262L3,259L1,256L-4,256L-6,257L-8,258L-9,259L-10,261L-13,264L-16,260L-19,257L-21,256L-23,255L-23,252L-24,250L-26,249L-23,246L-21,246L-19,245L-18,245L-17,244L-17,241L-17,241Z" fill="#E0E0E0" stroke="#fff" stroke-width=".4"/><path d="M-37,240L-33,239L-31,239L-29,238L-17,238L-17,241L-17,241L-17,244L-18,245L-19,245L-21,246L-23,246L-26,249L-30,246L-33,246L-35,244L-35,243L-37,241Z" fill="#E0E0E0" stroke="#fff" stroke-width=".4"/><path d="M20,273L19,275L20,278L19,281L21,283L23,283L26,286L26,289L25,290L25,296L23,296L16,292L10,287L4,283L-1,279L1,277L1,275L4,271L7,268L9,267L11,267L14,271L13,274L14,275L16,275L18,272Z" fill="#E0E0E0" stroke="#fff" stroke-width=".4"/><path d="M-13,264L-10,261L-9,259L-8,258L-6,257L-4,256L1,256L3,259L5,262L4,264L6,265L5,268L7,268L4,271L1,275L1,277L-1,279L-3,278L-8,276L-11,272L-13,269Z" fill="#E0E0E0" stroke="#fff" stroke-width=".4"/><path d="M41,254L40,250L42,247L42,244L47,239L48,234L50,232L54,233L57,232L57,230L63,226L64,224L71,221L74,220L76,222L81,222L80,225L81,228L85,233L85,236L93,238L93,243L91,245L88,246L86,249L84,249L78,249L75,249L73,250L70,249L58,250L57,254L58,259L54,257L50,257L48,259L45,258L44,255Z" fill="#E0E0E0" stroke="#fff" stroke-width=".4"/><path d="M267,290L264,290L260,290L255,289L252,290L251,292L249,292L246,290L239,294L235,293L234,294L232,298L227,297L222,296L218,293L212,291L208,293L206,297L205,302L201,301L196,300L192,304L188,310L188,308L187,305L184,303L182,299L181,297L178,293L178,291L178,288L178,283L180,281L183,274L189,274L190,272L191,272L193,274L202,271L205,268L208,266L208,264L210,263L216,263L223,260L228,252L231,250L236,248L236,251L240,256L240,259L239,262L240,264L242,266L247,269L251,272L251,274L256,278L259,281L260,285L266,287Z" fill="#E0E0E0" stroke="#fff" stroke-width=".4"/><path d="M205,302L205,306L203,309L201,314L200,320L201,324L200,326L200,329L199,331L194,334L191,338L188,344L188,350L187,352L183,356L178,360L176,359L175,357L172,357L169,359L167,359L165,356L163,358L160,361L154,353L160,349L157,345L159,343L164,342L165,339L168,342L174,343L176,340L177,335L177,330L173,325L176,317L175,316L169,317L168,313L168,310L177,310L182,312L188,314L188,310L192,304L196,300L201,301Z" fill="#E0E0E0" stroke="#fff" stroke-width=".4"/><path d="M156,310L159,310L163,311L167,310L168,310L168,313L169,317L175,316L176,317L173,325L177,330L177,335L176,340L174,343L168,342L165,339L164,342L159,343L157,345L160,349L154,353L147,346L143,341L139,333L139,331L140,329L142,324L143,319L146,318L156,318Z" fill="#E0E0E0" stroke="#fff" stroke-width=".4"/><path d="M144,310L156,310L156,318L146,318L143,319L142,318Z" fill="#E0E0E0" stroke="#fff" stroke-width=".4"/><path d="M290,383L293,385L295,386L300,388L304,390L307,393L309,399L308,401L306,406L308,412L305,415L303,421L307,423L286,429L287,434L281,435L277,438L277,440L274,441L268,447L264,451L262,452L260,451L252,450L251,449L251,449L248,447L244,447L238,448L233,444L229,438L229,415L243,416L243,413L244,410L243,407L243,404L243,402L245,402L246,404L249,404L253,404L255,408L261,409L265,406L267,410L272,411L275,414L277,418L283,418L282,410L280,412L275,409L274,408L274,401L276,392L274,389L276,385L278,384L287,383Z" fill="#E0E0E0" stroke="#fff" stroke-width=".4"/><path d="M304,390L311,391L312,393L314,396L316,406L314,411L316,420L319,420L321,422L324,428L325,437L322,438L319,443L315,439L314,434L316,430L315,428L313,426L311,426L307,423L303,421L305,415L308,412L306,406L308,401L309,399L307,393Z" fill="#E0E0E0" stroke="#fff" stroke-width=".4"/><path d="M316,406L321,405L330,407L331,406L336,406L339,404L343,404L350,401L356,397L357,400L357,407L358,414L358,425L359,428L357,433L354,438L350,443L344,445L336,449L328,457L325,458L321,463L318,465L317,470L320,476L322,480L322,482L323,482L323,489L322,493L323,494L322,497L319,500L314,502L306,507L302,509L303,513L305,513L304,517L299,517L298,514L297,510L297,508L298,499L296,494L293,483L300,475L302,469L303,469L304,464L303,462L303,457L304,452L304,443L301,440L297,440L296,438L293,437L287,437L287,434L286,429L307,423L311,426L313,426L315,428L316,430L314,434L315,439L319,443L322,438L325,437L324,428L321,422L319,420L316,420L314,411Z" fill="#E0E0E0" stroke="#fff" stroke-width=".4"/><path d="M167,359L165,360L164,362L164,365L162,366L160,361L163,358L165,356ZM163,368L166,367L168,367L170,366L190,366L192,371L194,376L196,378L198,382L203,381L205,380L209,381L210,379L212,375L216,375L216,374L220,374L219,376L228,376L228,381L229,383L228,387L229,392L231,394L231,403L232,402L235,402L240,401L243,402L243,404L243,407L244,410L243,413L243,416L229,415L229,438L233,444L238,448L225,451L209,450L204,447L176,447L175,448L171,444L166,444L162,446L159,447L158,442L159,436L161,429L162,426L164,420L166,417L170,412L172,409L173,404L172,400L170,398L168,393L167,389L167,388L169,385L167,378L166,374L162,369Z" fill="#E0E0E0" stroke="#fff" stroke-width=".4"/><path d="M288,342L288,345L290,347L290,349L288,350L286,354L283,356L280,357L280,348L278,345L282,346L284,342Z" fill="#E0E0E0" stroke="#fff" stroke-width=".4"/><path d="M324,87L323,89L320,88L319,94L321,95L319,96L319,98L322,97L322,100L319,113L318,111L314,99L316,96L316,96L317,92L319,86L320,84L320,84L322,84L323,82L325,82L325,86L324,87Z" fill="#E0E0E0" stroke="#fff" stroke-width=".4"/><path d="M325,82L323,82L322,84L320,84L323,77L326,71L326,71L329,71L330,75L327,78Z" fill="#E0E0E0" stroke="#fff" stroke-width=".4"/><path d="M419,412L421,415L423,420L424,429L426,432L425,435L424,438L422,433L420,435L422,441L421,444L419,445L419,452L416,460L413,470L408,484L406,495L403,503L397,505L391,508L387,506L382,504L380,500L379,493L377,487L376,482L377,476L381,475L381,473L384,467L384,462L383,459L382,454L381,448L383,444L384,439L388,439L392,437L394,436L397,436L401,432L407,427L409,424L408,421L411,422L415,417L415,413L417,409Z" fill="#E0E0E0" stroke="#fff" stroke-width=".4"/><path d="M322,97L319,98L319,96L321,95L319,94L320,88L323,89L323,94Z" fill="#E0E0E0" stroke="#fff" stroke-width=".4"/><path d="M-37,231L-30,231L-28,229L-26,229L-23,231L-21,231L-19,230L-18,232L-21,233L-24,233L-26,232L-29,233L-30,233L-32,234L-38,234Z" fill="#E0E0E0" stroke="#fff" stroke-width=".4"/><path d="M143,106L140,92L136,89L136,87L130,82L130,75L134,71L136,64L135,56L136,51L143,48L148,49L148,53L154,50L154,52L151,56L151,60L153,62L152,69L148,73L149,78L153,78L154,82L157,83L157,90L153,92L151,95L146,98L147,101L147,104Z" fill="#E0E0E0" stroke="#fff" stroke-width=".4"/><path d="M18,129L18,128L18,127L18,118L29,112L36,111L42,109L44,105L52,102L53,96L57,95L60,92L69,91L70,87L68,86L66,77L66,72L63,66L70,62L77,60L81,57L88,54L100,53L111,52L115,53L121,50L128,50L131,52L136,51L135,56L136,64L134,71L130,75L130,82L136,87L136,89L140,92L143,106L146,113L146,117L145,123L145,127L144,131L145,136L142,139L146,145L146,148L149,152L152,151L158,154L161,159L137,173L117,188L107,191L100,192L100,187L96,186L92,184L90,180L67,164L44,148Z" fill="#E0E0E0" stroke="#fff" stroke-width=".4"/><path d="M323,89L324,87L332,90L345,81L348,91L347,93L333,97L340,105L338,106L336,109L331,110L330,113L327,115L319,114L319,113L322,100L322,97L323,94Z" fill="#E0E0E0" stroke="#fff" stroke-width=".4"/><path d="M434,153L435,153L435,155L440,154L446,154L450,154L455,149L460,144L464,140L466,142L467,148L463,148L463,153L464,154L461,156L461,159L459,162L459,165L457,167L436,163L434,155Z" fill="#E0E0E0" stroke="#fff" stroke-width=".4"/><path d="M428,150L428,144L430,140L431,139L434,142L434,146L432,150L430,151Z" fill="#E0E0E0" stroke="#fff" stroke-width=".4"/><path d="M409,109L410,112L409,114L412,120L407,120L405,117L399,116L404,108Z" fill="#E0E0E0" stroke="#fff" stroke-width=".4"/><path d="M348,91L345,81L361,73L363,63L363,56L366,54L370,49L373,47L381,49L383,51L387,49L391,60L396,62L396,67L393,70L391,76L396,84L404,89L408,95L407,101L409,101L409,105L413,109L409,109L404,108L399,116L386,115L367,99L356,94Z" fill="#E0E0E0" stroke="#fff" stroke-width=".4"/><path d="M459,165L459,162L461,159L461,156L464,154L463,153L463,148L467,148L470,153L474,156L479,157L483,158L486,163L488,165L490,166L490,168L488,172L487,174L484,177L481,182L478,181L477,183L475,187L476,192L476,193L472,193L468,195L468,199L466,200L462,200L459,202L459,205L456,207L452,206L447,209L444,209L442,204L436,192L457,185L462,170ZM466,142L464,140L466,137L467,138L467,141Z" fill="#E0E0E0" stroke="#fff" stroke-width=".4"/><path d="M785,241L783,233L788,227L797,225L803,226L809,229L812,224L818,227L820,232L819,240L807,245L810,250L803,250L797,253L791,252L789,248Z" fill="#E0E0E0" stroke="#fff" stroke-width=".4"/><path d="M803,226L797,225L788,227L783,233L785,241L779,238L773,238L774,232L768,232L767,240L764,251L761,257L762,262L766,262L769,268L770,274L774,278L779,279L782,283L780,286L775,286L775,283L769,280L768,281L765,278L764,275L760,271L757,268L756,272L755,268L755,264L757,257L761,250L764,243L762,237L762,233L761,229L756,224L755,220L757,219L760,213L757,208L753,203L749,196L752,195L755,187L760,187L764,184L768,182L771,184L771,189L776,189L774,197L775,203L782,199L784,200L788,200L789,197L795,198L800,204L800,211L806,217L806,223Z" fill="#E0E0E0" stroke="#fff" stroke-width=".4"/><path d="M818,227L812,224L809,229L803,226L806,223L806,217L800,211L800,204L795,198L789,197L788,200L784,200L782,199L775,203L774,197L776,189L771,189L771,184L768,182L770,179L775,174L776,176L780,176L779,168L782,167L786,173L789,179L798,179L801,186L796,188L794,190L802,195L808,203L813,210L818,215L819,220Z" fill="#E0E0E0" stroke="#fff" stroke-width=".4"/><path d="M768,182L764,184L760,187L755,187L752,195L749,196L753,203L757,208L760,213L757,219L755,220L756,224L761,229L762,233L762,237L764,243L761,250L757,257L757,252L759,246L756,242L757,234L754,231L752,222L751,213L748,207L743,211L735,216L732,215L727,214L730,205L728,198L723,190L724,187L720,186L715,180L714,174L717,175L717,170L720,168L719,165L721,162L721,155L727,156L730,150L730,146L734,140L734,136L743,130L748,132L747,127L749,125L749,122L753,122L755,127L758,128L758,134L758,141L752,147L751,156L758,155L760,162L764,163L762,169L767,172L770,173L775,171L775,174L770,179Z" fill="#E0E0E0" stroke="#fff" stroke-width=".4"/><path d="M797,253L803,250L810,250L807,245L819,240L820,232L818,227L819,220L818,215L813,210L808,203L802,195L794,190L796,188L801,186L798,179L789,179L786,173L782,167L786,165L791,165L798,164L804,160L807,163L814,164L813,169L816,172L823,174L814,180L808,187L806,192L812,200L818,209L824,213L829,219L832,232L831,245L825,249L817,254L811,260L803,266L800,262L802,257Z" fill="#E0E0E0" stroke="#fff" stroke-width=".4"/><path d="M980,4L980,4L980,4ZM979,2L980,4L977,4L974,7L972,10L972,16L969,18L967,20L965,23L960,24L957,27L957,30L956,31L959,33L963,37L962,39L959,39L954,40L951,44L948,44L948,44L944,43L944,44L942,45L941,43L940,43L938,41L940,37L941,36L941,35L942,30L942,28L938,27L935,25L940,19L948,14L953,8L956,11L962,11L961,6L971,2L974,-3Z" fill="#E0E0E0" stroke="#fff" stroke-width=".4"/><path d="M948,44L948,44L951,44L954,40L959,39L962,39L963,37L969,47L970,53L970,63L968,67L962,69L956,72L950,73L949,68L950,62L947,53L952,52Z" fill="#E0E0E0" stroke="#fff" stroke-width=".4"/><path d="M683,-66L690,-68L703,-77L714,-82L720,-79L727,-79L732,-74L738,-73L748,-71L755,-78L752,-84L759,-96L767,-91L773,-90L782,-87L783,-79L793,-74L799,-76L808,-78L815,-76L822,-71L826,-66L832,-66L841,-64L847,-67L856,-69L866,-76L870,-75L874,-71L882,-72L879,-64L874,-54L876,-50L880,-51L887,-49L892,-53L897,-50L904,-43L903,-39L897,-40L887,-39L883,-36L878,-30L867,-26L860,-21L853,-23L849,-23L846,-17L848,-13L849,-10L844,-7L839,-2L831,1L821,2L810,5L802,10L798,7L790,7L780,1L773,-0L764,1L750,-1L742,-1L738,-6L735,-15L731,-16L722,-22L713,-24L705,-25L702,-29L705,-41L700,-49L690,-53L685,-59Z" fill="#E0E0E0" stroke="#fff" stroke-width=".4"/><path d="M749,122L749,125L747,127L748,132L743,130L734,136L734,140L730,146L730,150L727,156L721,155L721,162L719,165L720,168L717,170L713,158L711,158L710,163L706,159L708,155L712,154L715,148L711,147L704,147L698,146L697,140L694,140L688,137L686,142L691,146L687,149L685,151L689,153L688,158L691,164L692,170L691,172L686,172L678,174L678,180L674,184L664,189L657,197L651,202L645,207L645,210L641,212L635,214L632,215L630,220L631,229L631,235L628,242L628,254L625,254L622,260L624,262L618,264L615,269L612,271L606,264L603,254L600,247L598,244L594,237L592,228L591,224L585,214L582,200L580,191L580,182L579,175L569,179L564,179L555,170L558,167L556,164L548,158L553,153L568,153L566,146L562,142L562,136L557,133L565,125L573,125L580,117L584,109L591,101L591,95L597,90L591,86L589,81L586,74L590,70L600,72L608,71L615,64L622,74L621,80L624,85L624,89L619,88L621,97L628,102L637,107L633,111L630,118L637,121L643,125L652,129L662,130L666,134L671,135L679,137L685,137L686,134L685,129L685,125L690,124L690,130L690,132L697,134L701,133L707,134L712,134L713,129L710,126L716,125L722,120L730,115L736,116L741,113L744,118L741,121Z" fill="#E0E0E0" stroke="#fff" stroke-width=".4"/><path d="M717,170L717,175L714,174L715,180L713,176L712,172L711,169L708,164L702,164L702,167L700,171L697,170L696,171L694,170L692,170L691,164L688,158L689,153L685,151L687,149L691,146L686,142L688,137L694,140L697,140L698,146L704,147L711,147L715,148L712,154L708,155L706,159L710,163L711,158L713,158Z" fill="#E0E0E0" stroke="#fff" stroke-width=".4"/><path d="M710,126L713,129L712,134L707,134L701,133L697,134L690,132L690,130L695,124L698,122L703,124L707,124Z" fill="#E0E0E0" stroke="#fff" stroke-width=".4"/><path d="M685,125L685,129L686,134L685,137L679,137L671,135L666,134L662,130L652,129L643,125L637,121L630,118L633,111L637,107L640,105L645,108L652,113L656,114L659,118L664,120L670,123L677,125Z" fill="#E0E0E0" stroke="#fff" stroke-width=".4"/><path d="M615,64L608,71L600,72L590,70L586,74L589,81L591,86L597,90L591,95L591,101L584,109L580,117L573,125L565,125L557,133L562,136L562,142L566,146L568,153L553,153L548,158L543,156L541,150L535,144L523,146L512,146L502,147L504,138L514,134L514,131L511,129L510,123L504,119L501,114L498,110L509,114L516,113L520,114L522,112L526,113L535,110L536,103L539,98L545,98L545,96L551,95L553,96L556,93L555,89L558,84L563,82L560,76L567,76L568,73L568,70L572,67L571,62L569,59L573,55L581,53L589,52L592,51L596,50L601,54L603,60Z" fill="#E0E0E0" stroke="#fff" stroke-width=".4"/><path d="M537,48L540,48L546,50L548,51L553,48L555,50L557,46L561,46L562,44L563,41L566,38L570,40L569,43L571,43L570,50L573,53L576,51L579,50L583,47L588,47L595,47L596,50L592,51L589,52L581,53L573,55L569,59L571,62L572,67L568,70L568,73L567,76L560,76L563,82L558,84L555,89L556,93L553,96L551,95L545,96L545,98L539,98L536,103L535,110L526,113L522,112L520,114L516,113L509,114L498,110L504,103L503,98L498,96L498,91L495,85L498,80L495,79L497,73L500,62L507,66L512,64L514,61L519,59L523,57L524,50L530,48L531,45L534,47Z" fill="#E0E0E0" stroke="#fff" stroke-width=".4"/><path d="M546,50L549,41L548,34L543,32L545,28L550,29L554,24L556,18L565,16L564,20L565,22L567,22L565,25L557,23L557,29L564,28L573,31L586,29L588,38L590,37L594,39L594,42L595,47L588,47L583,47L579,50L576,51L573,53L570,50L571,43L569,43L570,40L566,38L563,41L562,44L561,46L557,46L555,50L553,48L548,51Z" fill="#E0E0E0" stroke="#fff" stroke-width=".4"/><path d="M567,4L569,-0L573,-2L585,1L586,-4L590,-6L599,-2L602,-3L613,-3L624,-2L627,1L631,3L630,5L619,10L617,14L608,15L605,21L598,19L593,21L587,25L588,27L586,29L573,31L564,28L557,29L557,23L565,25L567,22L573,23L582,17L573,12L568,14L563,11L569,5Z" fill="#E0E0E0" stroke="#fff" stroke-width=".4"/><path d="M440,8L443,5L451,3L455,6L460,13L464,12L472,12L470,8L476,5L482,-1L491,4L492,11L495,13L502,13L505,15L508,24L516,30L520,34L528,39L537,42L537,48L534,47L531,45L530,48L524,50L523,57L519,59L514,61L512,64L507,66L500,62L499,55L494,55L486,47L481,46L473,42L468,41L465,43L461,42L456,47L450,49L448,43L449,34L444,31L446,25L441,24L443,16L449,19L455,16L450,10L448,5L443,7L442,14Z" fill="#E0E0E0" stroke="#fff" stroke-width=".4"/><path d="M413,109L409,105L409,101L407,101L408,95L404,89L396,84L391,76L393,70L396,67L396,62L391,60L387,49L383,42L384,40L382,30L387,27L388,30L391,34L396,36L399,35L407,29L409,28L411,31L409,35L413,40L415,39L417,46L424,48L428,52L438,53L449,51L450,49L456,47L461,42L465,43L468,41L473,42L481,46L486,47L494,55L499,55L500,62L497,73L495,79L498,80L495,85L498,91L498,96L503,98L504,103L498,110L501,114L504,119L510,123L511,129L514,131L514,134L504,138L502,147L489,145L481,143L474,142L471,133L467,131L462,133L455,136L447,134L440,128L433,126L428,118L423,108L420,109L415,106Z" fill="#E0E0E0" stroke="#fff" stroke-width=".4"/><path d="M324,87L324,87L325,86L325,82L327,78L330,75L329,71L326,71L325,64L327,61L329,59L331,57L331,52L333,54L341,52L345,53L350,53L358,50L362,50L370,49L366,54L363,56L363,63L361,73L345,81L332,90Z" fill="#E0E0E0" stroke="#fff" stroke-width=".4"/><path d="M399,35L396,36L393,30L393,29L390,29L388,27L387,27L384,24L379,22L380,18L378,14L388,13L389,15L392,17L391,19L394,22L392,25L395,28L398,29Z" fill="#E0E0E0" stroke="#fff" stroke-width=".4"/><path d="M154,-179L157,-187L163,-196L165,-213L161,-220L160,-240L165,-254L171,-254L174,-260L171,-266L182,-289L189,-309L194,-322L200,-321L202,-332L215,-329L216,-341L220,-342L229,-333L240,-320L240,-293L243,-286L231,-281L224,-270L225,-260L214,-247L201,-234L196,-213L201,-203L207,-196L201,-180L194,-177L191,-155L187,-144L179,-145L175,-135L167,-135L165,-146L159,-160Z" fill="#E0E0E0" stroke="#fff" stroke-width=".4"/><path d="M272,-144L279,-141L280,-138L284,-140L291,-137L291,-131L290,-128L294,-120L297,-118L297,-116L301,-114L303,-111L301,-108L295,-109L294,-108L295,-104L297,-97L291,-96L289,-93L289,-88L286,-89L280,-88L278,-91L275,-89L273,-91L267,-91L259,-94L253,-94L247,-94L243,-91L240,-91L240,-96L238,-101L242,-103L242,-108L240,-112L240,-117L246,-117L254,-122L256,-128L261,-132L261,-138L265,-140Z" fill="#E0E0E0" stroke="#fff" stroke-width=".4"/><path d="M297,-97L300,-96L301,-99L303,-98L311,-99L315,-93L313,-91L314,-87L319,-87L322,-82L322,-80L330,-76L336,-78L340,-73L344,-73L354,-69L354,-66L351,-61L353,-55L352,-51L345,-51L342,-48L341,-43L336,-42L331,-39L325,-39L319,-35L319,-30L318,-30L317,-32L315,-32L310,-34L308,-32L307,-33L297,-36L296,-39L290,-38L287,-33L282,-25L279,-27L276,-25L273,-27L274,-28L276,-32L277,-35L277,-37L278,-37L279,-36L283,-36L285,-36L284,-37L284,-39L282,-42L281,-46L278,-47L279,-51L276,-54L273,-54L268,-57L263,-56L261,-55L259,-55L257,-52L252,-51L249,-50L246,-52L242,-52L237,-53L234,-51L234,-54L230,-57L232,-61L233,-64L235,-63L233,-68L239,-77L243,-78L244,-81L240,-91L243,-91L247,-94L253,-94L259,-94L267,-91L273,-91L275,-89L278,-91L280,-88L286,-89L289,-88L289,-93L291,-96Z" fill="#E0E0E0" stroke="#fff" stroke-width=".4"/><path d="M240,-117L240,-112L242,-108L242,-103L238,-101L240,-96L240,-91L244,-81L243,-78L239,-77L233,-68L235,-63L233,-64L227,-68L222,-66L219,-67L215,-65L211,-69L208,-67L208,-68L205,-73L200,-74L199,-77L194,-79L193,-76L189,-78L190,-81L185,-82L181,-85L179,-93L179,-96L177,-102L175,-107L177,-110L175,-115L180,-119L191,-124L199,-128L206,-126L207,-123L213,-123L222,-122L235,-122L238,-121Z" fill="#E0E0E0" stroke="#fff" stroke-width=".4"/><path d="M195,-54L194,-50L191,-50L192,-47L190,-41L188,-39L182,-39L179,-37L173,-37L163,-40L162,-43L155,-42L154,-40L150,-41L146,-41L143,-43L144,-46L144,-48L146,-48L150,-45L151,-48L157,-48L162,-49L165,-49L167,-47L168,-49L167,-55L169,-57L172,-62L177,-58L181,-62L183,-63L188,-60L192,-61L195,-59L194,-57Z" fill="#E0E0E0" stroke="#fff" stroke-width=".4"/><path d="M230,-57L234,-54L234,-51L230,-49L227,-42L223,-35L217,-34L213,-34L208,-31L205,-30L199,-32L194,-36L192,-37L191,-41L190,-41L192,-47L191,-50L194,-50L195,-54L198,-51L201,-50L207,-51L207,-53L210,-54L213,-55L214,-55L217,-56L219,-58L221,-59L229,-56Z" fill="#E0E0E0" stroke="#fff" stroke-width=".4"/><path d="M261,-55L263,-56L268,-57L273,-54L276,-54L279,-51L278,-47L281,-46L282,-42L284,-39L284,-37L285,-36L283,-36L279,-36L278,-37L277,-37L277,-35L276,-32L274,-28L273,-27L271,-32L272,-36L272,-40L268,-46L266,-51L264,-54Z" fill="#E0E0E0" stroke="#fff" stroke-width=".4"/><path d="M273,-27L276,-25L279,-27L282,-25L282,-23L279,-21L277,-22L275,-10L271,-11L266,-14L258,-12L254,-10L244,-10L239,-12L236,-11L234,-15L233,-17L234,-18L233,-20L231,-17L227,-20L226,-24L222,-26L221,-30L217,-34L223,-35L227,-42L230,-49L234,-51L237,-53L242,-52L246,-52L249,-50L252,-51L257,-52L259,-55L261,-55L264,-54L266,-51L268,-46L272,-40L272,-36L271,-32Z" fill="#E0E0E0" stroke="#fff" stroke-width=".4"/><path d="M261,-138L261,-132L256,-128L254,-122L246,-117L240,-117L238,-121L235,-122L234,-125L235,-128L232,-130L225,-132L223,-143L231,-147L243,-146L249,-147L250,-144L254,-144Z" fill="#E0E0E0" stroke="#fff" stroke-width=".4"/><path d="M266,-161L269,-158L270,-152L272,-144L265,-140L261,-138L254,-144L250,-144L249,-147L243,-146L231,-147L223,-143L223,-152L227,-160L233,-164L239,-155L244,-155L246,-165L251,-167L254,-166L260,-161Z" fill="#E0E0E0" stroke="#fff" stroke-width=".4"/><path d="M271,-187L272,-185L267,-177L269,-165L266,-161L260,-161L254,-166L251,-167L246,-165L246,-173L244,-171L239,-176L239,-183L248,-187L256,-189L264,-187Z" fill="#E0E0E0" stroke="#fff" stroke-width=".4"/><path d="M175,-115L177,-110L175,-107L177,-102L179,-96L179,-93L181,-85L178,-84L177,-86L175,-84L170,-81L167,-79L162,-76L163,-73L164,-69L168,-66L172,-62L169,-57L167,-55L168,-49L167,-47L165,-49L162,-49L157,-48L151,-48L150,-45L146,-48L144,-48L137,-51L135,-48L129,-49L130,-56L134,-63L124,-65L121,-68L121,-72L120,-75L120,-82L119,-94L123,-94L125,-98L127,-108L126,-112L127,-115L133,-115L134,-113L139,-119L137,-123L137,-130L142,-128L146,-130L146,-125L153,-123L153,-118L160,-121L164,-124L172,-119Z" fill="#E0E0E0" stroke="#fff" stroke-width=".4"/><path d="M234,-15L236,-11L239,-12L244,-10L254,-10L258,-12L266,-14L271,-11L275,-10L271,-6L269,1L271,6L265,5L258,8L258,12L252,13L247,10L241,12L236,12L236,6L232,3L233,2L233,1L234,-2L236,-5L233,-9L232,-13Z" fill="#E0E0E0" stroke="#fff" stroke-width=".4"/><path d="M259,65L258,68L248,69L248,67L240,66L241,62L245,65L250,64L256,65L255,66ZM236,12L241,12L247,10L252,13L258,12L258,8L261,10L259,16L258,17L253,17L250,16L241,18L246,23L243,25L239,25L235,20L234,22L235,27L239,32L236,34L240,38L244,40L244,45L237,43L239,47L235,48L238,56L233,56L227,52L225,45L224,39L221,35L217,30L217,28L220,23L220,20L223,19L223,17L227,16L230,14L234,14L235,13Z" fill="#E0E0E0" stroke="#fff" stroke-width=".4"/><path d="M387,49L383,51L381,49L373,47L370,49L362,50L358,50L350,53L345,53L341,52L333,54L331,52L331,57L329,59L327,61L325,57L327,54L323,55L317,53L312,58L302,58L296,54L289,54L287,57L283,58L276,54L268,54L264,45L259,40L263,33L258,29L266,21L277,20L280,13L293,15L301,9L309,6L320,6L332,12L342,16L350,14L356,15L364,10L372,10L378,14L380,18L379,22L384,24L387,27L382,30L384,40L383,42ZM258,8L265,5L271,6L272,10L278,13L276,15L268,15L265,18L260,23L257,19L258,17L259,16L261,10Z" fill="#E0E0E0" stroke="#fff" stroke-width=".4"/><path d="M223,17L223,19L220,20L220,23L217,28L216,27L216,25L212,22L211,18L212,12L213,9L211,7L211,4L214,-0L214,1L216,1L218,3L219,4L220,7L219,11L220,15Z" fill="#E0E0E0" stroke="#fff" stroke-width=".4"/><path d="M192,-37L194,-36L199,-32L205,-30L208,-31L209,-28L212,-25L209,-21L206,-23L201,-23L195,-25L192,-24L190,-22L188,-25L186,-21L190,-16L191,-13L195,-10L197,-7L200,-4L206,0L205,2L199,-2L195,-5L188,-8L183,-15L184,-16L181,-20L181,-23L176,-25L174,-20L172,-24L172,-27L172,-27L177,-27L179,-29L181,-27L184,-27L184,-30L186,-31L187,-35Z" fill="#E0E0E0" stroke="#fff" stroke-width=".4"/><path d="M144,-48L144,-46L143,-43L146,-41L150,-41L149,-37L146,-35L141,-37L140,-33L136,-32L135,-34L131,-31L128,-30L125,-32L123,-37L119,-35L120,-39L125,-45L124,-48L127,-47L129,-49L135,-48L137,-51Z" fill="#E0E0E0" stroke="#fff" stroke-width=".4"/><path d="M120,-75L121,-72L121,-68L119,-68L117,-68L118,-74Z" fill="#E0E0E0" stroke="#fff" stroke-width=".4"/><path d="M120,-82L120,-75L118,-74L117,-68L111,-73L107,-72L103,-78L99,-82L96,-82L95,-86L101,-88L106,-87L112,-90L117,-85Z" fill="#E0E0E0" stroke="#fff" stroke-width=".4"/><path d="M126,-112L127,-108L125,-98L123,-94L119,-94L120,-82L117,-85L112,-90L106,-87L101,-88L104,-91L110,-108L120,-113Z" fill="#E0E0E0" stroke="#fff" stroke-width=".4"/><path d="M16,7L18,5L21,4L23,8L27,8L28,7L32,7L34,12L31,14L31,21L29,23L29,27L26,28L29,33L27,39L29,41L29,44L26,47L27,50L24,52L20,51L17,52L18,45L17,40L14,39L12,36L13,30L16,27L16,23L17,18L17,14L16,10Z" fill="#E0E0E0" stroke="#fff" stroke-width=".4"/><path d="M27,50L26,47L29,44L29,41L27,39L29,33L26,28L29,27L29,23L31,21L31,14L34,12L32,7L28,7L27,8L23,8L21,4L18,5L16,7L16,1L13,-3L23,-10L31,-9L41,-9L48,-7L54,-8L65,-7L68,-4L80,1L83,-1L91,3L98,2L99,7L92,13L84,15L83,18L79,23L76,31L79,36L75,40L73,45L68,47L63,54L54,54L48,54L43,57L41,60L37,59L35,56L33,51Z" fill="#E0E0E0" stroke="#fff" stroke-width=".4"/><path d="M35,-117L36,-108L31,-98L19,-92L9,-93L15,-105L11,-117L20,-126L26,-132L27,-125L26,-119L30,-119Z" fill="#E0E0E0" stroke="#fff" stroke-width=".4"/><path d="M1096,634L1100,635L1101,646L1098,649L1098,657L1095,654L1090,661L1089,660L1085,660L1081,652L1080,646L1076,638L1076,633L1080,634L1087,637L1091,636ZM948,561L940,565L934,567L933,571L930,574L925,575L920,575L914,574L909,575L904,575L900,579L898,579L895,581L892,584L887,584L882,584L875,578L871,577L871,572L874,571L876,569L875,566L876,560L875,556L872,548L871,543L871,538L868,533L868,531L865,528L864,522L860,516L859,512L862,516L860,509L863,511L865,514L865,510L862,504L861,501L860,499L860,495L862,493L863,489L862,485L865,479L865,485L868,480L874,478L877,474L883,472L886,471L888,472L893,469L897,468L898,467L900,466L904,466L911,464L915,461L917,457L921,453L921,450L921,447L926,440L929,447L932,445L929,442L932,438L935,440L935,434L939,431L941,428L944,427L944,425L947,426L948,424L951,423L954,422L959,425L963,429L967,429L972,430L970,426L973,421L976,419L975,417L978,413L983,410L986,411L992,410L992,406L987,404L990,403L995,405L999,408L1004,409L1006,409L1011,411L1015,409L1017,409L1019,408L1022,412L1020,415L1018,418L1015,418L1016,421L1014,425L1012,428L1012,430L1018,434L1023,437L1026,439L1031,443L1033,443L1037,445L1038,447L1045,450L1049,447L1050,443L1052,440L1053,436L1055,431L1054,427L1054,425L1054,421L1054,416L1056,414L1055,412L1056,408L1058,404L1058,402L1060,400L1062,403L1063,408L1065,408L1065,411L1067,415L1068,419L1068,422L1070,427L1075,424L1077,427L1080,430L1079,433L1081,440L1082,443L1084,444L1086,450L1085,454L1087,459L1095,463L1099,466L1104,469L1103,471L1107,476L1110,484L1113,482L1115,485L1117,484L1118,492L1123,497L1126,500L1132,506L1134,512L1134,516L1133,521L1137,528L1136,535L1135,538L1133,546L1133,550L1132,556L1129,563L1124,567L1121,574L1119,578L1117,585L1114,589L1113,596L1112,602L1112,604L1108,607L1100,608L1094,611L1091,615L1087,618L1081,615L1077,613L1078,608L1074,610L1068,616L1062,614L1058,613L1054,612L1047,610L1043,604L1042,598L1040,593L1037,590L1030,589L1032,585L1031,578L1027,584L1021,586L1025,581L1026,576L1029,572L1028,566L1022,573L1018,576L1015,583L1010,579L1010,575L1006,569L1002,566L1004,564L995,559L990,559L983,555L971,555L962,558L954,561Z" fill="#E0E0E0" stroke="#fff" stroke-width=".4"/><path d="M642,274L641,281L638,283L632,285L629,279L627,269L630,258L635,262L638,266Z" fill="#E0E0E0" stroke="#fff" stroke-width=".4"/><path d="M833,198L827,196L827,190L830,186L838,184L842,184L843,187L840,190L839,195ZM631,3L631,-2L635,-5L629,-22L643,-26L646,-28L651,-46L665,-42L669,-47L669,-57L675,-58L680,-65L683,-66L685,-59L690,-53L700,-49L705,-41L702,-29L705,-25L713,-24L722,-22L731,-16L735,-15L738,-6L742,-1L750,-1L764,1L773,-0L780,1L790,7L798,7L802,10L810,5L821,2L831,1L839,-2L844,-7L849,-10L848,-13L846,-17L849,-23L853,-23L860,-21L867,-26L878,-30L883,-36L887,-39L897,-40L903,-39L904,-43L897,-50L892,-53L887,-49L880,-51L876,-50L874,-54L879,-64L882,-72L891,-68L900,-75L900,-80L906,-91L910,-95L910,-101L906,-104L912,-110L921,-112L930,-112L940,-109L946,-104L950,-93L953,-88L955,-81L958,-71L970,-68L978,-60L981,-50L991,-50L997,-54L1009,-57L1005,-48L1002,-44L1000,-33L995,-24L987,-26L981,-22L983,-14L982,-3L978,-2L979,2L974,-3L971,2L961,6L962,11L956,11L953,8L948,14L940,19L935,25L925,28L920,32L912,34L916,30L915,27L920,21L917,16L910,19L903,25L898,31L892,32L888,36L892,42L897,43L898,47L903,49L911,43L917,47L921,47L923,51L913,54L910,58L903,63L899,69L907,73L909,81L914,89L918,95L918,101L914,103L916,108L920,110L919,117L917,123L913,123L908,132L902,142L896,151L886,158L877,164L869,165L865,169L862,166L859,170L849,174L842,175L839,182L835,183L834,178L835,175L826,172L823,174L816,172L813,169L814,164L807,163L804,160L798,164L791,165L786,165L782,167L779,168L780,176L776,176L775,174L775,171L770,173L767,172L762,169L764,163L760,162L758,155L751,156L752,147L758,141L758,134L758,128L755,127L753,122L749,122L741,121L744,118L741,113L736,116L730,115L722,120L716,125L710,126L707,124L703,124L698,122L695,124L690,130L690,124L685,125L677,125L670,123L664,120L659,118L656,114L652,113L645,108L640,105L637,107L628,102L621,97L619,88L624,89L624,85L621,80L622,74L615,64L603,60L601,54L596,50L595,47L594,42L594,39L590,37L588,38L586,29L588,27L587,25L593,21L598,19L605,21L608,15L617,14L619,10L630,5Z" fill="#E0E0E0" stroke="#fff" stroke-width=".4"/><path d="M917,152L913,164L910,170L907,164L906,159L910,151L916,145L919,148Z" fill="#E0E0E0" stroke="#fff" stroke-width=".4"/><path d="M150,-41L154,-40L155,-42L162,-43L163,-40L173,-37L172,-32L174,-28L169,-30L163,-26L163,-21L162,-19L165,-14L171,-9L175,-1L182,7L188,6L189,9L187,10L194,14L199,16L205,21L205,23L204,26L200,22L194,20L191,26L196,30L195,34L193,35L189,42L186,43L186,40L187,36L189,34L186,28L184,24L181,23L179,19L175,17L172,14L167,13L161,9L155,3L150,-3L148,-12L145,-13L139,-16L136,-15L132,-11L129,-10L130,-14L126,-15L124,-23L127,-26L125,-29L125,-32L128,-30L131,-31L135,-34L136,-32L140,-33L141,-37L146,-35L149,-37ZM180,41L185,40L182,47L183,50L182,54L177,51L173,50L164,46L165,41L173,42ZM138,16L141,13L146,20L145,32L141,31L139,34L136,32L136,21L134,16Z" fill="#E0E0E0" stroke="#fff" stroke-width=".4"/><path d="M146,-130L142,-128L137,-130L134,-136L134,-149L135,-152L137,-156L143,-157L145,-161L151,-164L151,-158L149,-153L149,-150L153,-148L151,-143L149,-145L144,-136ZM163,-144L165,-138L161,-128L154,-135L153,-140Z" fill="#E0E0E0" stroke="#fff" stroke-width=".4"/><path d="M35,-117L30,-119L26,-119L27,-125L26,-132L31,-132L39,-125ZM57,-111L57,-111L58,-118L53,-125L53,-126L45,-128L43,-131L45,-136L43,-140L39,-134L39,-146L36,-152L38,-165L43,-176L49,-175L57,-176L50,-162L57,-164L64,-164L63,-153L56,-142L64,-141L64,-140L70,-126L75,-124L79,-110L81,-106L90,-104L89,-97L85,-93L88,-88L82,-82L72,-82L61,-79L58,-81L53,-76L47,-77L42,-73L38,-75L48,-87L54,-89L54,-89L44,-91L42,-95L49,-99L45,-105L46,-112Z" fill="#E0E0E0" stroke="#fff" stroke-width=".4"/><path d="M398,7L400,8L405,13L408,14L409,12L413,8L416,13L420,19L423,20L425,22L420,23L418,30L417,33L415,35L415,39L413,40L409,35L411,31L409,28L407,29L399,35L398,29L395,28L392,25L394,22L391,19L392,17L389,15L388,13L390,12L395,14L398,15L399,14L396,9ZM396,36L391,34L388,30L387,27L388,27L390,29L393,29L393,30Z" fill="#E0E0E0" stroke="#fff" stroke-width=".4"/><path d="M353,-7L354,-8L360,-7L370,-5L380,-1L381,1L385,-1L391,1L393,5L398,7L396,9L399,14L398,15L395,14L390,12L388,13L378,14L372,10L364,10L365,6L364,0L360,-3L356,-4Z" fill="#E0E0E0" stroke="#fff" stroke-width=".4"/><path d="M911,237L907,232L913,232L916,235L914,241ZM923,257L925,255L926,250L929,250L928,255L933,248L933,254L930,257L928,261L926,263L922,258ZM949,268L950,272L950,276L948,282L945,275L942,279L944,284L942,287L934,283L932,278L934,275L930,272L928,274L925,274L920,278L918,276L921,270L925,268L929,266L932,269L937,267L938,264L943,264L943,258L948,261L949,265ZM895,261L886,268L889,263L894,259L898,254L902,247L903,253L899,256ZM921,198L920,201L923,206L921,212L917,214L916,220L917,226L921,227L924,226L932,230L932,234L934,235L933,239L928,235L925,231L924,234L919,230L913,231L910,229L910,226L912,225L910,223L909,225L906,221L905,218L904,211L907,214L908,202L910,196L914,196L919,198L921,196ZM919,247L918,243L922,245L927,245L927,248L923,251L919,253L919,250ZM943,241L945,249L940,247L940,250L942,254L938,256L938,251L936,250L935,246L939,247L939,244L935,238L941,239Z" fill="#E0E0E0" stroke="#fff" stroke-width=".4"/><path d="M768,281L769,280L775,283L775,286L780,286L782,283L784,283L788,288L791,292L791,297L790,300L791,302L791,306L794,308L797,314L796,317L792,317L785,312L777,307L776,303L772,299L771,293L769,289L769,284ZM891,297L885,296L877,296L874,304L872,306L868,316L862,317L856,315L853,316L849,320L844,319L840,320L835,317L834,312L839,314L844,313L846,307L849,306L857,304L862,299L865,295L868,298L870,296L873,296L874,292L874,288L879,283L883,278L885,278L889,281L889,284L894,286L900,288L899,291L894,291L896,295Z" fill="#E0E0E0" stroke="#fff" stroke-width=".4"/><path d="M874,288L874,292L873,296L870,296L868,298L865,295L868,292Z" fill="#E0E0E0" stroke="#fff" stroke-width=".4"/><path d="M173,-37L179,-37L182,-39L188,-39L190,-41L191,-41L192,-37L187,-35L186,-31L184,-30L184,-27L181,-27L179,-29L177,-27L172,-27L174,-28L172,-32Z" fill="#E0E0E0" stroke="#fff" stroke-width=".4"/><path d="M275,-341L274,-328L285,-316L278,-302L286,-283L282,-268L288,-257L285,-246L295,-236L293,-228L286,-220L271,-201L259,-200L247,-195L236,-192L232,-200L225,-204L226,-219L223,-232L226,-241L233,-250L248,-268L253,-271L252,-278L243,-286L240,-293L240,-320L229,-333L220,-342L224,-347L232,-337L241,-338L248,-333L255,-342L258,-356L269,-363L278,-355Z" fill="#E0E0E0" stroke="#fff" stroke-width=".4"/><path d="M233,-64L232,-61L230,-57L229,-56L221,-59L219,-58L217,-56L214,-55L213,-55L210,-54L207,-53L207,-51L201,-50L198,-51L195,-54L194,-57L195,-59L196,-61L199,-61L201,-62L201,-63L203,-63L203,-66L205,-66L206,-68L208,-68L208,-67L211,-69L215,-65L219,-67L222,-66L227,-68Z" fill="#E0E0E0" stroke="#fff" stroke-width=".4"/><path d="M181,-85L185,-82L190,-81L189,-78L193,-76L194,-79L199,-77L200,-74L205,-73L208,-68L206,-68L205,-66L203,-66L203,-63L201,-63L201,-62L199,-61L196,-61L195,-59L192,-61L188,-60L183,-63L181,-62L177,-58L172,-62L168,-66L164,-69L163,-73L162,-76L167,-79L170,-81L175,-84L177,-86L178,-84Z" fill="#E0E0E0" stroke="#fff" stroke-width=".4"/><path d="M329,225L328,222L331,212L332,207L334,205L339,204L343,200L347,208L349,215L352,218L362,225L366,229L369,233L372,235L375,237L373,239L370,239L368,236L365,232L362,230L360,227L354,225L349,224L347,223L343,225L339,221L337,227Z" fill="#E0E0E0" stroke="#fff" stroke-width=".4"/><path d="M1056,32L1050,41L1050,50L1047,56L1048,61L1045,67L1036,71L1024,71L1014,81L1009,77L1009,71L997,73L989,77L981,77L988,83L983,97L979,101L976,97L977,90L973,88L970,82L977,80L980,74L987,70L992,64L1006,62L1013,63L1020,48L1025,52L1035,44L1039,40L1043,29L1042,19L1045,14L1053,12L1056,24ZM1075,-12L1080,-16L1081,-6L1071,-3L1065,6L1054,-0L1050,10L1043,10L1042,1L1045,-6L1053,-7L1055,-20L1057,-28L1065,-18L1070,-14ZM990,81L994,76L998,77L1001,73L1006,75L1007,78L1003,83L1000,80L997,82L995,87L990,85Z" fill="#E0E0E0" stroke="#fff" stroke-width=".4"/><path d="M436,192L442,204L444,209L439,211L438,214L438,217L431,220L420,223L413,228L410,229L408,228L404,231L400,233L394,233L392,233L391,235L389,236L388,237L385,237L382,238L378,238L376,234L376,230L375,228L374,223L372,220L373,219L372,216L373,215L373,211L376,209L375,206L377,203L380,204L382,204L390,204L391,204L398,205L400,205L402,207L405,206L410,198L417,195Z" fill="#E0E0E0" stroke="#fff" stroke-width=".4"/><path d="M304,67L304,67L305,65L310,65L316,62L312,66L312,67L311,67L310,68L309,68L309,68L309,67L308,66L307,66L305,67Z" fill="#E0E0E0" stroke="#fff" stroke-width=".4"/><path d="M304,67L305,67L307,66L308,66L309,67L309,68L309,68L310,68L311,67L312,67L312,68L305,71L302,70L300,67Z" fill="#E0E0E0" stroke="#fff" stroke-width=".4"/><path d="M63,66L66,72L66,77L68,86L70,87L69,91L60,92L57,95L53,96L52,102L44,105L42,109L36,111L29,112L18,118L18,127L17,127L17,131L13,132L11,133L8,133L5,132L-1,133L-3,139L-5,140L-8,149L-18,158L-20,168L-23,171L-24,174L-39,175L-39,174L-39,171L-36,169L-34,165L-35,163L-32,157L-28,153L-26,151L-24,147L-24,143L-22,138L-17,135L-13,127L-13,127L-9,124L-3,123L3,118L6,116L12,109L10,99L13,92L14,88L18,83L25,79L30,75L35,67L37,61L42,61L46,65L53,64L60,66Z" fill="#E0E0E0" stroke="#fff" stroke-width=".4"/><path d="M332,170L305,170L278,170L250,170L250,142L250,115L248,108L250,103L249,100L251,96L261,96L267,98L274,101L277,102L283,99L285,97L291,96L296,97L298,101L300,99L305,101L311,101L314,99L318,111L319,113L317,116L315,122L313,126L312,127L309,125L306,121L301,110L301,111L304,119L308,127L313,139L316,143L318,147L324,156L323,157L323,162L331,169Z" fill="#E0E0E0" stroke="#fff" stroke-width=".4"/><path d="M250,170L250,185L242,185L242,188L215,174L187,160L180,164L175,167L172,162L161,159L158,154L152,151L149,152L146,148L146,145L142,139L145,136L144,131L145,127L145,123L146,117L146,113L143,106L147,104L147,101L146,98L151,95L153,92L157,90L157,83L165,86L168,86L174,87L183,91L186,98L192,99L202,103L209,107L213,105L216,101L215,95L217,91L222,87L226,86L236,87L238,91L241,91L243,93L250,94L251,96L249,100L250,103L248,108L250,115L250,142Z" fill="#E0E0E0" stroke="#fff" stroke-width=".4"/><path d="M407,270L388,291L379,292L373,296L368,297L366,299L362,299L359,296L353,299L351,302L346,302L345,301L343,301L341,301L332,295L327,295L325,293L325,289L321,288L317,280L314,279L313,276L309,272L305,272L307,268L311,268L312,266L312,259L314,252L317,250L318,247L321,242L325,238L328,231L329,225L337,227L339,221L343,225L347,223L349,224L354,225L360,227L362,230L365,232L368,236L370,239L367,242L365,245L366,247L366,249L370,249L371,249L373,250L371,252L374,256L376,260L379,262L402,270Z" fill="#E0E0E0" stroke="#fff" stroke-width=".4"/><path d="M370,239L373,239L375,237L377,240L376,243L372,244L375,246L373,250L371,249L370,249L366,249L366,247L365,245L367,242Z" fill="#E0E0E0" stroke="#fff" stroke-width=".4"/><path d="M415,247L415,247L415,250L415,257L415,260L412,265L407,270L402,270L379,262L376,260L374,256L371,252L373,250L375,246L378,247L379,250L382,253L385,253L392,252L399,251L406,249L409,248L411,247Z" fill="#E0E0E0" stroke="#fff" stroke-width=".4"/><path d="M312,332L298,333L290,333L288,334L283,336L282,335L282,330L283,327L284,322L285,318L288,315L291,313L293,311L290,310L290,302L293,300L298,301L303,300L308,300L312,296L316,301L316,305L319,313L317,318L314,322L312,325Z" fill="#E0E0E0" stroke="#fff" stroke-width=".4"/><path d="M288,334L290,337L290,342L288,342L284,342L282,346L278,345L279,342L280,341L280,337L282,335L283,336Z" fill="#E0E0E0" stroke="#fff" stroke-width=".4"/><path d="M206,0L200,-4L197,-7L195,-10L191,-13L190,-16L186,-21L188,-25L190,-22L192,-24L195,-25L201,-23L206,-23L209,-21L211,-21L210,-17L213,-13L212,-9L210,-8L209,-7L207,-5Z" fill="#E0E0E0" stroke="#fff" stroke-width=".4"/><path d="M232,3L236,6L236,12L235,13L234,14L230,14L227,16L223,17L220,15L219,11L220,7L221,8L221,6L225,4L227,4L229,3Z" fill="#E0E0E0" stroke="#fff" stroke-width=".4"/><path d="M208,-31L213,-34L217,-34L221,-30L222,-26L226,-24L227,-20L231,-17L233,-20L234,-18L233,-17L234,-15L232,-13L233,-9L236,-5L234,-2L233,1L233,2L232,3L229,3L227,4L226,3L227,2L228,-0L227,-0L226,-2L225,-2L224,-4L222,-4L221,-6L220,-5L219,-2L218,-1L218,-2L215,-4L213,-5L212,-7L210,-8L212,-9L213,-13L210,-17L211,-21L209,-21L212,-25L209,-28Z" fill="#E0E0E0" stroke="#fff" stroke-width=".4"/><path d="M216,1L214,1L214,-0L211,4L211,7L210,7L208,4L205,2L206,0L207,-5L209,-7L210,-8L212,-7L213,-5L215,-4L218,-2L218,-1Z" fill="#E0E0E0" stroke="#fff" stroke-width=".4"/><path d="M220,7L219,4L218,3L216,1L218,-1L219,-2L220,-5L221,-6L222,-4L224,-4L225,-2L226,-2L227,-0L228,-0L227,2L226,3L227,4L225,4L221,6L221,8Z" fill="#E0E0E0" stroke="#fff" stroke-width=".4"/><path d="M290,302L284,297L283,294L279,295L276,295L274,296L271,295L267,290L266,287L260,285L259,281L256,278L251,274L251,272L247,269L243,266L245,265L247,264L249,258L251,255L256,254L257,255L260,260L262,260L265,259L270,259L271,261L278,261L278,259L281,258L282,256L285,254L290,258L294,258L297,253L301,249L301,245L299,243L303,242L304,241L307,241L306,246L307,251L310,254L311,257L311,260L312,260L312,266L311,268L307,268L305,272L309,272L313,276L314,279L317,280L321,288L317,292L312,296L308,300L303,300L298,301L293,300Z" fill="#E0E0E0" stroke="#fff" stroke-width=".4"/></g><g clip-path="url(#v)"><path d="M332.3,144.7L332.1,144.7L331.6,144.2L331.4,143.8L331.1,143.6L329.8,143.1L329.6,142.7L329.8,142.4L329.9,142.7L330.2,142.9L331.2,143.4L332.5,144.4L332.7,144.5ZM367.4,208.8L367.9,208.9L367.7,208.6L367.6,208.5L367.9,208.2L368.6,208.9L368.6,209.7L368.6,209.9L368.4,209.7L368.2,209.5L368.2,209.3L368.0,209.2L367.2,209.3L366.8,209.1L366.1,208.4L365.9,207.9L366.2,207.8L366.5,207.6L366.7,207.2L366.5,206.8L366.9,206.8L367.1,207.2L367.1,208.2L367.2,208.4L367.1,208.6ZM436.3,192.3L434.6,192.5L433.1,192.8L431.3,193.0L429.2,193.3L427.5,193.6L425.1,193.9L422.9,194.2L420.8,194.5L418.8,194.8L417.0,195.0L416.0,195.3L414.8,196.0L412.9,196.9L411.0,197.9L410.0,198.4L409.0,199.7L408.5,200.4L407.5,201.6L406.8,202.5L405.9,203.5L405.6,204.5L405.0,206.0L404.5,206.3L403.7,206.8L402.9,207.2L401.8,207.1L401.1,206.2L400.4,205.3L400.0,204.9L399.7,204.8L398.6,205.0L397.2,205.1L395.5,205.0L393.6,204.8L391.8,204.6L390.9,204.5L389.8,203.9L389.5,203.7L389.1,203.7L387.8,203.7L386.4,203.7L385.0,203.9L383.7,203.8L382.3,203.9L381.8,204.1L381.3,204.1L381.0,204.3L380.7,204.4L380.3,204.3L379.9,204.3L379.3,204.1L378.9,203.7L378.5,203.4L378.1,203.2L377.6,203.1L377.2,203.1L376.7,203.3L376.4,203.5L375.7,204.2L375.6,204.4L376.0,204.9L375.9,205.1L375.4,205.3L375.3,206.0L375.2,206.3L375.2,207.2L375.4,207.9L375.6,208.1L375.6,208.4L375.5,209.0L375.1,209.2L374.8,209.8L374.6,210.0L374.3,210.3L373.0,211.3L372.9,210.7L372.5,209.9L372.5,209.3L372.3,208.7L371.9,208.2L371.3,207.7L371.2,207.1L370.7,206.4L370.1,205.9L369.7,204.9L369.5,203.6L367.8,201.9L365.7,200.4L365.1,199.5L364.1,197.7L363.5,196.3L362.1,194.6L362.1,194.0L361.9,193.2L361.6,192.4L361.4,191.7L360.0,188.7L359.5,188.2L359.1,187.6L359.0,187.1L358.9,186.8L357.9,186.3L357.0,185.0L354.2,183.0L352.9,182.8L351.8,182.1L351.0,181.2L350.2,179.6L348.7,177.8L347.4,175.3L347.8,174.4L347.8,173.8L347.4,172.7L347.0,171.9L346.7,171.1L346.9,169.9L347.0,168.7L347.3,168.0L347.4,167.3L347.2,165.8L346.8,165.0L346.8,164.5L346.4,164.2L346.0,163.6L346.4,163.6L345.6,162.8L345.4,162.4L345.1,161.3L344.8,160.5L343.6,158.6L343.1,157.4L341.9,155.9L340.6,154.8L339.7,154.3L339.3,153.8L338.6,153.8L337.9,153.1L337.4,153.1L336.7,153.0L336.0,151.8L335.3,150.6L334.2,149.0L334.5,148.6L334.8,147.9L334.7,147.1L334.5,146.5L334.0,145.4L332.4,142.8L332.0,142.4L331.3,141.9L330.9,140.7L330.8,139.7L329.7,139.2L327.8,135.4L326.7,134.1L326.3,133.2L325.1,131.8L324.5,130.3L323.2,128.9L322.1,126.6L320.5,124.3L319.7,123.8L318.0,123.7L317.3,123.5L316.6,124.0L316.6,123.4L317.0,122.5L317.7,120.6L317.8,118.9L318.9,113.9L320.3,114.1L321.5,114.4L323.3,114.7L325.1,115.0L326.2,115.2L326.6,115.1L328.0,113.9L329.4,112.8L330.2,111.4L330.9,110.1L331.3,109.8L332.5,109.6L334.4,109.2L336.2,108.8L336.4,108.7L336.8,107.6L337.4,106.3L337.5,106.1L337.6,106.0L338.9,105.2L339.7,104.8L338.6,103.4L337.5,102.1L336.3,100.7L335.3,99.6L333.7,97.9L332.7,96.8L334.5,96.3L336.4,95.7L338.3,95.1L340.7,94.5L342.5,93.9L345.2,93.1L346.5,92.7L346.8,92.6L347.8,91.7L349.3,91.9L351.6,92.3L353.9,92.7L356.2,93.2L357.0,93.5L359.2,94.9L360.7,95.8L362.4,96.8L364.6,98.1L366.1,99.0L368.0,100.1L369.4,101.4L371.3,103.0L373.4,104.8L375.1,106.2L377.4,108.1L379.7,110.0L381.9,111.8L383.7,113.3L386.0,115.1L386.2,115.2L388.5,115.4L391.6,115.7L394.7,115.9L397.5,116.2L398.7,115.9L400.0,116.1L401.8,116.3L402.9,116.5L404.9,116.8L405.5,118.0L405.8,118.8L406.0,119.6L406.5,120.4L407.9,120.3L409.2,120.3L410.7,120.3L411.9,120.3L412.3,121.0L412.4,121.8L413.1,123.5L414.2,124.9L414.4,125.3L414.6,126.1L414.4,126.4L414.3,126.7L415.1,127.4L416.3,128.0L416.8,128.2L417.3,128.5L416.9,128.9L417.7,129.9L418.5,130.9L419.4,131.1L420.7,132.6L422.5,133.6L423.6,134.9L423.5,134.9L423.2,134.8L422.8,134.6L422.7,134.8L422.7,135.3L422.8,136.0L423.4,136.5L423.9,136.9L424.1,137.6L423.7,139.2L423.5,139.2L423.3,139.1L423.0,139.1L422.8,139.2L423.2,140.3L423.5,141.2L423.9,141.9L424.3,142.9L424.5,143.3L425.8,144.4L426.1,145.3L426.5,147.0L427.2,147.9L427.6,148.6L428.2,149.2L428.5,150.1L429.0,150.7L429.3,150.9L429.7,150.9L430.2,150.9L430.7,150.8L431.3,150.6L431.8,150.9L432.3,150.9L432.4,151.2L432.1,151.6L431.6,152.6L432.2,152.8L432.8,152.9L433.2,153.1L433.4,153.1L433.4,153.3L433.5,154.3L433.6,154.6L433.8,155.0L434.2,155.4L434.6,155.9L435.0,156.4L435.4,156.9L435.7,157.4L436.1,157.9L436.5,158.4L436.9,158.9L437.2,159.4L437.6,159.9L438.0,160.4L438.4,160.9L438.8,161.4L439.2,161.9L439.5,162.3L439.9,162.8L440.2,163.2L440.8,163.3L441.0,163.3L441.5,163.4L442.3,163.5L443.4,163.7L444.6,163.8L446.0,164.0L447.5,164.2L449.0,164.4L450.6,164.6L452.0,164.8L453.4,165.0L454.7,165.2L455.7,165.3L456.6,165.4L457.1,165.5L457.3,165.5L457.8,165.6L457.9,165.5L458.4,165.0L458.9,165.8L459.3,166.5L459.9,167.5L460.5,168.5L461.1,169.5L461.5,170.2L461.3,170.9L461.0,171.8L460.8,172.6L460.5,173.4L460.3,174.2L460.0,175.0L459.8,175.9L459.5,176.7L459.2,177.5L459.0,178.3L458.7,179.1L458.5,179.9L458.2,180.8L458.0,181.6L457.7,182.4L457.5,183.2L457.2,184.0L456.9,185.0L456.2,185.3L455.0,185.7L453.8,186.1L452.6,186.5L451.4,186.9L450.3,187.4L449.1,187.8L447.9,188.2L446.7,188.6L445.5,189.0L444.3,189.5L443.2,189.9L442.0,190.3L440.8,190.7L439.6,191.1L438.4,191.6L437.2,192.0ZM330.2,142.2L330.1,142.3L329.8,142.0L329.9,141.5L330.1,141.1L330.1,141.6L330.2,142.0Z" fill="#4ECDC4" stroke="#2C3E50" stroke-width="1"/></g><circle cx="400.0" cy="150.0" r="4" fill="#E74C3C" stroke="#fff" stroke-width="2"/><text x="400.0" y="140.0" text-anchor="middle" font-family="sans-serif" font-weight="700" font-size="10" fill="#2D3436">Riyadh</text></svg>