<svg viewBox="0 0 800 300" xmlns="http://www.w3.org/2000/svg"><defs><clipPath id="v"><rect width="800" height="300"/></clipPath></defs><rect width="800" height="300" fill="#DCEEF8"/><g clip-path="url(#v)"><path d="M-97,-30L-52,-12L-4,3L14,17L29,30L33,45L77,62L83,76L59,78L65,96L88,113L105,141L120,140L119,152L139,157L131,162L159,173L156,181L139,183L132,176L110,173L84,169L63,152L48,137L35,114L1,102L-22,110L-38,119L-34,138L-55,147L-69,143L-97,142L-97,56ZM207,-2L217,6L220,20L212,27L207,11L201,1L189,-7L174,-18L156,-26L163,-33L177,-25L186,-19L197,-13ZM172,55L158,62L145,68L131,68L109,60L94,53L96,45L120,48L134,46L138,34L142,33L144,47L159,45L167,36L181,27L178,11L194,11L199,15L199,30L190,46L176,48ZM263,42L271,48L283,65L296,74L292,81L285,84L273,73L262,57L256,37L260,34Z" fill="#E0E0E0" stroke="#fff" stroke-width=".4"/><path d="M-97,-30L-97,56L-97,142L-120,120L-146,115L-153,122L-186,123L-175,101L-158,94L-165,66L-178,43L-229,21L-250,19L-289,-5L-297,7L-307,10L-313,0L-313,-11L-333,-24L-305,-34L-286,-33L-289,-40L-327,-40L-337,-56L-361,-60L-372,-73L-337,-80L-323,-88L-281,-78L-277,-68L-270,-25L-243,-10L-221,-38L-191,-53L-167,-53L-145,-44L-125,-35ZM-517,136L-514,141L-514,149L-531,169L-553,175L-557,172L-554,162L-543,146ZM-275,83L-278,63L-273,54L-268,45L-262,52L-262,65ZM-703,-206L-718,-183L-698,-158L-703,-146L-673,-122L-704,-119L-713,-101L-712,-77L-737,-59L-738,-33L-748,7L-752,-2L-782,10L-792,-6L-811,-8L-824,-16L-855,-7L-864,-20L-882,-18L-903,-21L-907,-56L-920,-64L-933,-86L-936,-109L-933,-133L-918,-151L-913,-133L-895,-118L-879,-124L-862,-122L-847,-135L-834,-137L-809,-130L-788,-135L-775,-172L-764,-181L-755,-211L-725,-211ZM-402,-25L-373,-17L-364,3L-386,-8L-407,-10L-422,-8L-440,-9L-434,-24ZM-467,1L-485,-3L-490,-15L-464,-16L-457,-7ZM-440,-155L-438,-141L-422,-138L-420,-128L-421,-105L-435,-107L-439,-91L-428,-78L-435,-74L-446,-91L-453,-124L-448,-145ZM-571,-121L-540,-122L-515,-141L-510,-135L-531,-109L-551,-104L-576,-109L-620,-108L-642,-104L-646,-84L-623,-61L-609,-73L-560,-82L-562,-70L-573,-74L-585,-58L-608,-48L-583,-15L-588,-6L-564,25L-564,42L-578,50L-589,41L-576,19L-602,29L-608,22L-605,12L-624,-4L-622,-29L-639,-21L-637,9L-636,47L-653,51L-664,43L-656,19L-660,-6L-671,-7L-679,-25L-669,-42L-665,-63L-652,-102L-646,-113L-624,-132L-604,-125ZM-640,172L-674,153L-650,148L-636,156L-627,164L-628,172ZM-612,126L-595,124L-571,115L-575,129L-614,137L-649,134L-649,124L-628,118ZM-693,122L-677,120L-670,131L-700,136L-718,140L-733,139L-724,124L-709,124L-702,115ZM-949,71L-945,80L-895,83L-889,72L-841,84L-831,101L-792,106L-760,122L-789,132L-818,121L-842,122L-869,120L-894,115L-924,105L-943,103L-954,106L-1002,95L-1006,84L-1030,82L-1012,57L-981,58L-959,68ZM-1056,-70L-1052,-51L-1043,-37L-1024,-34L-1011,-18L-1017,15L-1018,55L-1048,56L-1070,34L-1103,13L-1114,-3L-1134,-25L-1147,-44L-1167,-81L-1190,-103L-1198,-125L-1207,-146L-1231,-162L-1245,-185L-1264,-199L-1292,-228L-1294,-242L-1277,-241L-1237,-236L-1213,-210L-1193,-192L-1179,-181L-1154,-153L-1127,-153L-1105,-135L-1090,-113L-1070,-101L-1081,-79L-1066,-70Z" fill="#E0E0E0" stroke="#fff" stroke-width=".4"/><path d="M589,324L605,339L597,343L588,331ZM578,317L574,310L574,289L586,297L590,319L583,316Z" fill="#E0E0E0" stroke="#fff" stroke-width=".4"/><path d="M551,467L573,484L586,497L576,504L562,496L543,484L526,469L509,449L506,440L517,440L531,449L543,459Z" fill="#E0E0E0" stroke="#fff" stroke-width=".4"/><path d="M78,1074L93,1076L95,1118L86,1130L84,1159L74,1149L56,1174L51,1172L35,1171L19,1140L15,1117L-0,1086L1,1071L18,1074L43,1086L57,1081ZM-486,794L-514,810L-537,817L-542,833L-551,846L-574,847L-590,850L-613,844L-632,847L-650,849L-666,866L-673,864L-686,873L-699,883L-718,882L-736,882L-763,862L-777,856L-777,838L-764,833L-759,826L-760,815L-757,793L-760,775L-774,744L-778,727L-777,710L-787,690L-788,681L-800,670L-803,646L-818,623L-822,611L-810,623L-819,596L-806,605L-798,616L-799,601L-812,578L-814,569L-820,561L-817,544L-812,537L-808,523L-811,506L-800,486L-798,507L-787,488L-766,478L-753,466L-733,456L-721,454L-714,457L-694,447L-678,444L-674,438L-667,435L-652,436L-625,428L-611,415L-604,401L-589,387L-587,376L-587,361L-568,337L-557,361L-546,356L-555,343L-547,329L-536,335L-533,315L-518,301L-512,291L-499,286L-498,278L-487,282L-486,275L-475,271L-462,267L-443,280L-428,296L-412,296L-395,298L-401,284L-388,262L-376,255L-381,248L-369,233L-353,223L-340,227L-318,222L-318,208L-338,199L-324,195L-306,202L-292,213L-270,220L-263,217L-247,225L-231,217L-222,220L-215,215L-203,228L-210,242L-220,253L-229,254L-226,265L-234,278L-243,292L-241,299L-221,314L-200,323L-187,332L-168,348L-161,348L-147,355L-143,364L-118,373L-101,364L-96,349L-90,337L-87,322L-79,300L-83,287L-81,280L-84,264L-80,244L-75,238L-79,229L-73,215L-68,201L-68,193L-58,183L-50,196L-49,213L-42,216L-41,227L-31,241L-29,256L-30,266L-21,287L-4,277L5,288L17,299L14,311L20,334L24,348L31,351L38,375L35,389L44,408L72,422L91,435L108,447L105,454L120,472L130,502L140,496L151,508L157,504L162,534L180,552L193,563L213,586L220,609L221,626L219,644L232,669L230,696L226,710L219,737L219,754L214,776L202,804L183,819L173,844L165,859L157,887L147,903L140,927L137,950L138,960L123,971L94,973L70,986L58,999L42,1014L20,999L4,993L8,976L-6,982L-29,1006L-52,997L-67,992L-82,989L-107,980L-124,959L-129,934L-135,918L-148,905L-173,901L-164,885L-171,862L-183,884L-207,890L-193,872L-189,854L-179,838L-181,815L-202,842L-219,852L-229,878L-249,865L-248,848L-265,825L-278,813L-274,806L-307,787L-325,786L-351,772L-398,774L-431,785L-461,796Z" fill="#E0E0E0" stroke="#fff" stroke-width=".4"/></g><g clip-path="url(#v)"><path d="M391.8,125.5L390.6,125.9L388.7,125.0L387.9,124.1L388.3,122.7L389.4,122.2L390.6,123.1L390.7,124.0ZM581.4,209.5L579.1,209.9L578.2,209.9L576.7,207.5L577.8,207.0L579.5,207.2L580.0,208.6ZM560.6,185.3L558.5,185.8L557.8,185.6L556.2,185.9L554.5,187.8L553.3,187.5L552.4,187.6L551.6,186.0L551.6,185.3L552.8,185.4L553.4,183.9L554.7,183.1L557.7,182.8L560.4,183.2L561.3,183.6L560.5,185.0ZM415.1,213.1L413.2,214.0L411.6,213.5L410.3,212.8L409.3,210.8L407.1,209.5L403.9,209.0L402.6,208.1L402.3,207.6L400.0,207.3L399.5,206.1L399.7,205.0L400.0,204.4L402.0,204.9L411.7,210.4L414.1,212.0ZM440.5,155.2L440.9,158.0L440.7,159.0L438.7,156.9L437.7,157.7L436.9,156.7L437.0,154.5L437.1,152.2L436.7,150.5L435.7,148.0L436.8,148.4ZM378.7,141.9L378.4,141.9L377.1,141.6L375.6,141.5L374.8,140.6L375.8,139.3L377.2,138.4L377.8,138.6L378.5,139.2L379.8,139.4L380.0,141.1ZM404.4,138.5L405.9,138.8L406.6,138.8L408.3,140.2L410.7,142.3L409.8,143.4L407.9,142.8L407.2,143.1L407.0,142.9L406.6,141.9L404.6,140.8L402.8,140.7L402.5,139.5ZM341.4,118.5L343.1,120.7L345.0,125.5L344.6,127.2L343.3,127.3L342.9,128.3L341.0,126.0L338.6,125.3L336.8,123.9L336.2,121.0L336.1,119.3L334.6,118.9L330.7,119.4L329.4,121.0L327.6,120.5L327.2,119.1L327.5,117.7L329.9,116.4L330.4,114.7L332.8,111.7L334.3,111.2L337.2,112.3L337.5,116.5L338.5,117.9ZM352.9,133.9L352.4,134.0L351.7,132.9L353.1,130.1L353.9,132.4L354.2,133.2ZM350.5,130.2L347.9,132.3L346.0,131.6L344.4,129.8L345.0,127.7L345.3,127.1L346.0,127.0L346.8,126.5L347.6,125.5L350.4,126.3L351.1,126.8L349.4,128.2L350.0,128.6L350.4,129.2ZM331.6,131.0L331.6,131.4L330.2,130.7L327.0,127.1L327.6,125.9L330.5,123.6L331.4,123.3L332.2,124.7L331.5,126.8L330.6,127.3L330.1,129.3ZM313.2,110.1L312.8,110.4L311.9,109.0L311.3,108.6L311.3,107.0L308.6,104.4L308.4,102.6L309.9,100.9L312.0,101.9L314.1,104.1L316.4,104.8L316.0,106.3L313.8,108.9ZM311.1,116.6L310.8,117.3L309.4,114.1L309.5,112.4L309.8,111.4L310.2,111.0L311.4,114.7ZM326.0,115.0L325.4,115.4L322.6,115.2L320.4,112.5L320.4,110.5L322.1,108.7L324.2,108.3L325.3,109.0L326.3,110.6L326.7,112.6L326.4,114.3ZM291.1,88.3L288.5,88.9L286.9,88.1L287.5,86.1L288.5,85.0L291.8,86.9ZM338.3,132.2L338.3,133.1L336.8,132.9L333.4,131.4L333.3,130.8L335.2,130.6L336.6,130.7L337.7,131.6ZM393.4,145.8L399.2,150.1L401.7,149.7L409.3,149.8L413.7,152.8L416.4,154.2L417.9,156.9L419.7,157.6L420.8,159.0L421.4,161.5L421.0,161.9L418.7,162.8L417.0,163.3L412.6,162.3L408.4,160.4L400.0,160.2L396.2,159.6L394.9,158.8L393.6,157.9L391.7,155.5L390.1,152.7L389.9,151.1L389.7,148.0L390.2,146.8L391.8,145.7ZM396.8,126.2L396.8,126.9L393.4,124.7L390.7,122.0L383.1,119.0L381.5,117.5L380.1,117.3L376.2,114.8L372.3,113.2L370.0,111.0L369.4,110.2L368.0,109.7L365.6,107.3L363.3,105.8L362.4,102.9L360.2,100.9L359.6,100.1L366.9,101.7L370.3,104.8L373.1,106.5L374.1,107.8L376.7,109.6L379.0,109.8L381.3,111.5L383.5,112.0L385.2,112.9L395.9,120.8L394.6,122.9L396.0,124.4ZM334.2,94.4L335.0,95.4L333.0,97.0L330.3,96.1L329.7,95.2L329.7,94.7L327.9,95.0L324.1,94.3L319.0,90.5L313.5,83.4L308.2,79.4L307.2,78.2L307.1,76.2L307.9,75.4L311.1,76.3L315.3,79.5L322.3,82.9L324.2,84.6L325.3,88.7L326.5,89.9L330.3,93.1L332.3,93.8L333.3,94.0ZM419.7,120.5L426.2,128.3L425.9,129.7L425.0,130.6L424.7,133.3L425.5,134.3L427.3,134.7L430.3,137.6L431.5,141.0L431.6,142.1L432.9,143.7L432.9,147.0L435.8,151.6L436.1,153.8L435.8,154.8L434.6,154.2L431.1,149.0L427.3,146.8L426.8,145.8L422.9,142.8L420.2,137.6L417.4,128.5L418.7,126.4L415.5,122.0L415.6,120.8L417.0,121.1L418.0,121.0L418.4,120.5ZM444.9,175.4L448.2,177.0L450.1,176.7L452.9,177.8L455.1,177.2L456.5,178.6L459.9,184.0L459.9,185.8L462.2,187.1L460.3,187.3L457.6,186.6L455.6,187.1L453.5,186.0L449.9,185.5L446.8,184.2L440.3,180.2L440.3,178.2L439.3,177.3L439.0,174.8L436.6,174.0L433.9,173.8L433.7,172.6L434.2,170.6L436.1,170.6L438.6,171.5L443.3,174.5L444.4,175.0Z" fill="#4ECDC4" stroke="#2C3E50" stroke-width="1"/></g><circle cx="400.0" cy="150.0" r="4" fill="#E74C3C" stroke="#fff" stroke-width="2"/><text x="400.0" y="140.0" text-anchor="middle" font-family="sans-serif" font-weight="700" font-size="10" fill="#2D3436">Honiara</text></svg>