<svg viewBox="0 0 800 300" xmlns="http://www.w3.org/2000/svg"><defs><clipPath id="v"><rect width="800" height="300"/></clipPath></defs><rect width="800" height="300" fill="#DCEEF8"/><g clip-path="url(#v)"><path d="M-568,-55L-609,-113L-610,-367L-549,-447L-530,-469L-485,-470L-423,-519L-332,-523L-135,-733L-86,-792L-55,-836L-55,-873L-55,-944L-54,-974L-54,-975L-32,-976L1,-987L38,-994L71,-1018L97,-1019L99,-999L92,-957L93,-920L78,-894L58,-818L24,-739L-19,-649L-79,-546L-138,-468L-220,-372L-290,-316L-394,-246L-460,-193L-536,-109L-552,-72Z" fill="#E0E0E0" stroke="#fff" stroke-width=".4"/></g><g clip-path="url(#v)"><path d="M406.3,155.2L406.5,161.6L403.2,159.4L402.2,155.3L397.7,152.1L395.4,149.2L400.5,145.7Z" fill="#4ECDC4" stroke="#2C3E50" stroke-width="1"/></g><circle cx="400.0" cy="150.0" r="4" fill="#E74C3C" stroke="#fff" stroke-width="2"/><text x="400.0" y="140.0" text-anchor="middle" font-family="sans-serif" font-weight="700" font-size="10" fill="#2D3436">Victoria</text></svg>