<svg viewBox="0 0 800 300" xmlns="http://www.w3.org/2000/svg"><defs><clipPath id="v"><rect width="800" height="300"/></clipPath></defs><rect width="800" height="300" fill="#DCEEF8"/><g clip-path="url(#v)"><path d="M1622,432L1624,430L1627,433L1626,438L1621,439L1616,438L1615,434L1618,431ZM1638,424L1633,426L1627,428L1626,424L1630,423L1633,422L1638,419L1638,419L1638,424ZM-1384,419L-1384,419L-1384,419L-1382,419L-1384,423L-1384,424L-1384,424L-1384,419Z" fill="#E0E0E0" stroke="#fff" stroke-width=".4"/><path d="M412,291L413,292L443,309L444,314L456,322L452,332L453,337L458,340L458,342L456,347L456,350L456,354L459,359L462,368L465,370L459,375L450,378L444,378L441,380L436,381L433,382L423,379L417,380L415,368L412,364L410,362L402,360L397,358L392,356L388,355L385,353L380,342L376,337L374,333L375,328L373,320L377,320L380,317L383,313L385,311L385,308L383,306L383,303L385,302L386,297L382,292L385,291L394,291Z" fill="#E0E0E0" stroke="#fff" stroke-width=".4"/><path d="M54,41L54,41L54,43L54,58L26,57L27,81L19,82L17,86L18,99L-15,99L-16,102L-16,98L-16,98L3,98L4,94L8,90L10,78L22,68L26,56L29,55L31,48L38,47L41,48L45,48L48,46L53,46L53,41Z" fill="#E0E0E0" stroke="#fff" stroke-width=".4"/><path d="M860,-193L854,-185L847,-184L847,-171L842,-166L825,-170L819,-148L815,-145L798,-140L806,-120L800,-117L801,-111L796,-112L791,-116L779,-118L765,-118L762,-117L750,-121L745,-119L744,-112L730,-116L725,-115L723,-110L718,-108L707,-100L703,-92L700,-92L698,-97L687,-97L685,-106L681,-107L682,-118L672,-126L657,-125L648,-124L639,-134L633,-139L620,-147L618,-148L596,-141L597,-99L592,-98L587,-107L581,-110L571,-108L568,-104L567,-107L569,-112L568,-116L558,-120L554,-130L549,-133L549,-137L557,-136L558,-144L565,-146L572,-144L574,-156L572,-164L564,-163L557,-166L547,-161L539,-158L535,-160L536,-166L530,-175L524,-174L517,-183L522,-193L519,-195L526,-209L535,-202L536,-211L553,-226L566,-226L585,-217L595,-212L604,-217L617,-218L628,-211L630,-215L642,-214L644,-220L630,-230L638,-236L637,-240L645,-244L639,-253L643,-258L674,-263L678,-267L699,-272L707,-278L722,-275L724,-260L733,-264L744,-259L743,-251L751,-252L772,-265L769,-261L780,-250L799,-215L803,-222L815,-214L827,-218L832,-215L836,-208L841,-205L845,-200L856,-201Z" fill="#E0E0E0" stroke="#fff" stroke-width=".4"/><path d="M597,-99L596,-141L618,-148L620,-147L633,-139L639,-134L648,-124L657,-125L672,-126L682,-118L681,-107L685,-106L687,-97L698,-97L700,-92L703,-92L707,-100L718,-108L723,-110L725,-108L718,-101L724,-97L730,-100L740,-94L729,-86L723,-87L720,-87L718,-90L720,-95L709,-92L706,-85L702,-79L695,-80L693,-75L699,-72L701,-64L696,-54L690,-56L685,-56L686,-62L674,-67L666,-72L660,-77L651,-85L646,-96L644,-98L635,-98L631,-100L630,-109L619,-115L612,-109L605,-105L606,-99Z" fill="#E0E0E0" stroke="#fff" stroke-width=".4"/><path d="M1311,304L1311,332L1311,359L1303,353L1295,351L1293,353L1282,353L1286,347L1291,344L1289,335L1285,328L1269,321L1262,320L1249,312L1247,316L1243,317L1241,314L1241,310L1235,306L1244,303L1250,303L1249,301L1237,301L1234,296L1226,295L1223,290L1234,288L1238,286L1252,289L1253,292L1255,306L1264,311L1271,302L1281,297L1288,297L1295,300L1302,303ZM1176,358L1177,359L1177,362L1172,368L1164,370L1163,369L1164,366L1168,361ZM1254,341L1253,334L1254,331L1256,328L1258,331L1258,335ZM1117,248L1112,255L1118,263L1116,267L1126,275L1116,276L1113,282L1114,289L1105,295L1105,303L1102,316L1101,313L1091,317L1088,312L1082,311L1078,309L1068,312L1065,308L1059,308L1052,307L1051,296L1047,294L1043,286L1042,279L1043,271L1048,266L1049,271L1055,276L1060,274L1065,275L1070,271L1074,270L1082,272L1089,271L1093,259L1097,256L1100,246L1109,246ZM1213,306L1222,309L1225,315L1218,312L1211,311L1206,311L1201,311L1203,306ZM1192,314L1186,313L1185,309L1193,309L1195,312ZM1201,264L1202,269L1206,270L1207,273L1207,280L1202,280L1201,285L1205,289L1202,290L1199,285L1196,274L1198,267ZM1159,275L1169,275L1177,269L1178,271L1172,279L1165,281L1157,279L1143,279L1136,281L1135,287L1142,294L1147,291L1162,288L1162,292L1158,290L1154,295L1147,299L1155,309L1153,312L1161,322L1161,328L1156,330L1153,327L1157,320L1149,323L1147,321L1148,318L1142,313L1142,305L1137,307L1138,317L1138,329L1133,330L1129,328L1131,320L1130,312L1127,312L1124,306L1127,301L1129,294L1133,281L1135,278L1142,272L1148,274ZM1137,369L1126,363L1133,362L1138,364L1141,367L1140,369ZM1146,355L1151,354L1159,351L1157,356L1145,358L1134,357L1134,354L1140,352ZM1120,353L1125,352L1127,356L1117,358L1111,359L1107,359L1110,354L1114,354L1117,351ZM1038,337L1039,340L1055,340L1057,337L1072,341L1075,347L1088,348L1098,353L1089,356L1079,353L1072,353L1063,353L1055,351L1046,348L1039,347L1036,348L1021,345L1019,341L1011,340L1017,332L1027,333L1034,336ZM1003,292L1005,298L1007,302L1014,303L1018,308L1016,319L1015,332L1006,332L999,325L988,318L985,313L978,306L974,300L968,288L960,281L958,274L955,267L947,262L943,255L936,250L928,241L927,237L932,237L945,239L953,247L959,252L964,256L972,265L980,265L987,271L992,278L999,282L995,289L1000,292Z" fill="#E0E0E0" stroke="#fff" stroke-width=".4"/><path d="M373,320L375,328L374,333L376,337L380,342L385,353L382,352L370,353L368,354L366,360L368,364L366,374L365,382L367,384L373,387L376,386L376,395L370,395L366,390L363,386L357,385L355,381L350,383L343,382L340,378L335,378L331,378L331,375L328,375L324,374L319,376L315,375L313,376L313,366L311,363L310,358L311,353L309,349L309,344L299,344L300,341L296,341L295,343L290,343L288,348L287,350L282,349L279,350L274,351L270,346L268,343L266,338L264,332L239,332L236,333L234,333L230,334L229,331L231,330L232,327L233,325L236,323L238,324L241,320L246,321L246,323L249,324L254,319L259,315L261,312L261,305L265,297L268,293L274,289L275,286L275,283L277,280L276,275L277,268L279,263L281,258L282,253L283,247L286,243L290,240L297,243L303,246L309,247L315,249L318,244L319,243L322,244L332,240L335,241L338,241L339,239L342,238L349,239L354,240L357,239L362,246L366,247L368,245L372,246L376,244L378,248L386,253L385,263L389,264L386,267L383,269L379,274L378,278L377,284L375,288L375,294L373,296L373,301L371,302L371,306L373,310Z" fill="#E0E0E0" stroke="#fff" stroke-width=".4"/><path d="M476,297L471,290L471,259L478,250L481,247L486,247L493,241L504,241L528,215L534,208L538,203L538,198L538,190L538,186L538,186L541,186L544,185L549,184L553,181L556,181L556,183L555,188L555,193L554,196L551,205L547,215L542,225L535,238L528,247L518,259L509,265L497,274L489,280L480,290L478,295Z" fill="#E0E0E0" stroke="#fff" stroke-width=".4"/><path d="M456,322L444,314L443,309L413,292L412,291L411,282L414,278L418,273L421,267L417,257L416,253L412,247L418,242L423,236L428,238L428,242L430,245L436,245L447,252L450,252L452,252L453,253L459,254L461,250L469,247L473,250L478,250L471,259L471,290L476,297L470,300L468,304L465,304L464,310L461,314L459,319Z" fill="#E0E0E0" stroke="#fff" stroke-width=".4"/><path d="M327,115L327,150L320,149L316,156L314,161L316,163L313,166L314,169L312,173L311,176L314,176L316,179L316,184L319,186L319,188L314,190L309,193L303,203L295,207L287,206L285,207L286,210L281,213L278,216L267,219L265,217L264,217L262,219L255,220L256,218L254,212L253,208L249,207L244,202L246,198L250,199L252,198L257,198L252,191L252,185L252,179L249,174L249,170L244,169L244,164L241,161L244,149L255,141L255,130L259,112L260,108L257,105L257,102L254,99L252,85L260,80L294,98Z" fill="#E0E0E0" stroke="#fff" stroke-width=".4"/><path d="M914,-941L932,-954L949,-927L968,-879L966,-838L948,-833L924,-845L910,-862L904,-896L892,-906ZM990,-856L1012,-831L1009,-814L962,-798L977,-854L984,-859ZM1292,-731L1315,-729L1345,-711L1338,-687L1307,-688L1293,-680L1277,-701L1281,-724ZM1371,-704L1392,-695L1383,-683L1369,-686L1354,-698L1356,-709ZM1301,-642L1309,-654L1320,-657L1331,-645L1332,-638L1320,-638L1303,-641ZM503,-919L520,-928L533,-929L534,-915L539,-927L547,-936L559,-924L556,-916L545,-910L537,-906L536,-898L526,-890L517,-901L522,-917ZM318,-263L302,-263L292,-264L294,-271L305,-275L314,-273L318,-270L317,-266ZM576,-654L596,-681L594,-695L613,-713L640,-735L668,-742L683,-755L699,-760L705,-745L699,-734L670,-717L644,-701L618,-671L605,-641L592,-614L594,-591L610,-570L605,-568L578,-571L575,-583L560,-590L559,-604L567,-610L567,-625L584,-650ZM1327,-254L1330,-240L1329,-227L1333,-213L1341,-190L1329,-195L1324,-176L1332,-164L1332,-155L1325,-162L1320,-153L1318,-163L1319,-175L1318,-189L1320,-199L1321,-216L1316,-229L1316,-248L1324,-255L1321,-261L1324,-263ZM-1384,-527L-1384,-527L-1364,-510L-1342,-488L-1342,-474L-1337,-469L-1339,-485L-1316,-481L-1299,-462L-1308,-453L-1321,-451L-1322,-431L-1325,-427L-1333,-428L-1339,-435L-1350,-440L-1352,-449L-1361,-452L-1370,-450L-1375,-457L-1373,-465L-1383,-460L-1379,-450L-1384,-442L-1384,-442L-1384,-527ZM1638,-442L1638,-441L1627,-433L1616,-434L1624,-424L1629,-408L1633,-403L1634,-396L1632,-391L1616,-395L1592,-381L1585,-379L1572,-367L1560,-357L1557,-349L1545,-361L1523,-347L1519,-354L1511,-346L1500,-349L1497,-338L1487,-322L1487,-316L1497,-312L1496,-290L1488,-289L1484,-277L1488,-270L1473,-263L1470,-247L1458,-243L1455,-229L1443,-217L1440,-226L1436,-246L1432,-278L1436,-299L1443,-308L1443,-316L1456,-319L1471,-339L1486,-357L1501,-370L1508,-395L1497,-394L1492,-379L1471,-360L1464,-381L1443,-375L1422,-347L1429,-337L1410,-332L1397,-331L1397,-343L1384,-345L1374,-337L1348,-340L1321,-335L1293,-304L1261,-269L1275,-267L1279,-258L1287,-255L1292,-262L1301,-261L1314,-245L1314,-233L1307,-220L1307,-204L1303,-184L1290,-165L1287,-157L1276,-143L1265,-129L1259,-123L1248,-116L1243,-116L1237,-121L1226,-113L1225,-109L1225,-109L1224,-111L1224,-117L1228,-117L1229,-131L1227,-141L1234,-145L1244,-143L1250,-155L1253,-168L1256,-173L1260,-184L1247,-180L1239,-175L1227,-175L1223,-187L1213,-196L1199,-200L1195,-213L1193,-221L1189,-227L1184,-241L1177,-246L1164,-250L1153,-250L1143,-248L1136,-241L1140,-237L1141,-230L1136,-225L1128,-211L1128,-205L1116,-197L1106,-202L1096,-201L1092,-205L1087,-207L1075,-198L1064,-195L1056,-192L1045,-194L1038,-194L1032,-201L1024,-207L1016,-209L1005,-207L997,-205L985,-210L984,-220L974,-224L966,-225L957,-231L948,-217L952,-209L943,-200L931,-203L923,-204L917,-210L909,-210L901,-214L888,-208L872,-197L864,-194L860,-193L856,-201L845,-200L841,-205L836,-208L832,-215L827,-218L815,-214L803,-222L799,-215L780,-250L769,-261L772,-265L751,-252L743,-251L744,-259L733,-264L724,-260L722,-275L707,-278L699,-272L678,-267L674,-263L643,-258L639,-253L645,-244L637,-240L638,-236L630,-230L644,-220L642,-214L630,-215L628,-211L617,-218L604,-217L595,-212L585,-217L566,-226L553,-226L536,-211L535,-202L526,-209L519,-195L522,-193L517,-183L524,-174L530,-175L536,-166L535,-160L539,-158L535,-151L527,-149L519,-137L526,-126L526,-118L535,-104L530,-100L528,-97L525,-98L519,-105L516,-105L511,-108L509,-112L501,-115L496,-113L494,-115L483,-121L470,-122L463,-124L462,-123L452,-133L442,-137L435,-144L441,-146L448,-156L443,-161L456,-166L455,-169L448,-167L448,-172L452,-176L461,-177L462,-181L460,-188L463,-195L463,-198L451,-203L446,-202L441,-209L434,-206L424,-211L424,-214L421,-219L414,-220L414,-224L416,-227L410,-235L402,-233L399,-234L397,-231L394,-232L392,-240L390,-245L391,-246L398,-246L401,-249L399,-253L393,-255L394,-258L390,-260L385,-270L387,-274L386,-281L378,-284L373,-282L372,-286L363,-290L361,-299L360,-306L356,-310L360,-315L357,-330L363,-339L362,-342L371,-351L363,-359L381,-382L388,-392L391,-401L379,-414L382,-426L375,-441L381,-458L371,-482L379,-499L366,-513L367,-530L374,-532L388,-541L397,-550L410,-535L433,-530L465,-504L472,-493L472,-479L463,-468L449,-462L412,-478L405,-475L419,-460L420,-451L420,-430L431,-425L438,-420L439,-429L434,-437L439,-445L459,-433L466,-437L461,-452L480,-472L488,-471L496,-464L501,-478L494,-491L498,-504L492,-518L515,-511L520,-498L509,-496L509,-484L516,-476L529,-481L531,-495L549,-505L578,-525L584,-524L576,-510L586,-507L592,-515L608,-516L621,-525L630,-512L640,-527L631,-540L635,-548L660,-541L672,-534L702,-507L708,-519L699,-532L699,-537L689,-539L692,-550L687,-570L687,-578L702,-602L708,-627L714,-633L736,-625L738,-610L730,-588L735,-580L738,-562L736,-529L745,-514L742,-499L725,-469L735,-466L738,-473L747,-479L750,-489L757,-500L752,-513L756,-528L747,-530L745,-543L752,-568L741,-589L756,-607L754,-627L758,-628L762,-612L759,-586L768,-581L764,-600L778,-611L796,-613L811,-597L804,-620L803,-651L817,-657L838,-655L856,-659L849,-675L859,-696L868,-697L885,-714L907,-718L910,-728L932,-731L939,-723L957,-742L973,-741L975,-757L983,-773L1003,-789L1017,-776L1006,-767L1025,-761L1027,-743L1035,-752L1059,-752L1078,-734L1085,-721L1083,-703L1074,-694L1052,-676L1045,-667L1056,-662L1068,-655L1076,-661L1080,-641L1084,-649L1097,-654L1124,-649L1126,-635L1161,-631L1162,-653L1179,-648L1193,-648L1206,-633L1210,-615L1205,-603L1216,-582L1229,-572L1237,-599L1251,-587L1265,-594L1281,-586L1287,-594L1301,-590L1295,-615L1306,-627L1345,-620L1382,-609L1389,-593L1411,-573L1445,-578L1462,-574L1469,-563L1468,-545L1478,-539L1489,-543L1504,-544L1520,-539L1536,-542L1551,-521L1561,-528L1554,-544L1558,-554L1585,-548L1602,-549L1626,-538L1638,-527L1638,-442ZM1638,-573L1629,-572L1627,-580L1638,-591L1638,-573ZM-1384,-591L-1384,-591L-1384,-591L-1383,-592L-1376,-592L-1364,-584L-1365,-581L-1373,-575L-1384,-573L-1384,-573L-1384,-591ZM408,-153L410,-156L416,-153L418,-153L420,-151L421,-150L421,-149L425,-146L434,-147L432,-143L423,-141L411,-134L407,-136L409,-142L399,-145L401,-148L409,-152Z" fill="#E0E0E0" stroke="#fff" stroke-width=".4"/><path d="M264,533L268,528L271,531L273,535L277,536L282,538L286,537L294,532L294,497L296,499L301,508L300,513L302,517L308,516L312,511L316,509L319,504L323,502L326,503L330,506L337,506L342,504L343,501L345,497L349,496L352,492L355,486L362,480L374,473L377,473L381,474L384,473L389,474L393,487L395,494L393,504L394,507L390,506L388,506L387,509L384,513L385,516L390,521L394,520L396,516L403,516L400,523L399,530L397,535L392,540L390,541L386,546L384,551L379,558L370,568L364,574L357,579L349,583L344,583L343,586L338,584L334,586L325,584L320,586L316,585L308,589L301,591L295,595L292,595L288,591L285,591L282,586L281,588L280,585L280,579L277,572L280,571L280,563L274,554L270,546L270,546ZM370,537L367,534L363,536L358,540L354,546L360,553L363,552L364,549L369,548L371,544L373,540Z" fill="#E0E0E0" stroke="#fff" stroke-width=".4"/><path d="M-321,584L-323,578L-320,574L-325,567L-331,561L-340,555L-343,555L-351,548L-357,549L-346,536L-336,527L-331,523L-323,517L-323,510L-328,505L-332,506L-330,501L-329,496L-329,490L-332,489L-335,490L-338,490L-339,486L-340,478L-342,475L-347,473L-351,475L-359,473L-359,461L-361,456L-359,454L-360,449L-357,445L-356,438L-358,432L-362,430L-363,426L-362,421L-378,421L-381,411L-379,411L-379,407L-381,404L-381,399L-386,397L-391,397L-395,394L-400,393L-404,389L-413,388L-422,380L-421,375L-422,371L-422,365L-433,366L-437,370L-444,373L-446,376L-451,376L-457,375L-462,377L-465,376L-465,363L-472,368L-479,367L-482,363L-488,362L-486,359L-491,354L-494,346L-492,344L-492,341L-487,338L-488,334L-486,331L-485,327L-475,321L-469,320L-467,318L-460,319L-456,296L-456,292L-457,287L-461,284L-461,278L-456,277L-454,278L-454,274L-459,273L-459,268L-443,268L-440,266L-438,268L-436,273L-435,272L-430,277L-423,276L-422,273L-416,271L-412,270L-411,267L-405,264L-406,262L-413,262L-414,256L-413,251L-417,249L-416,248L-409,249L-403,251L-400,249L-394,248L-385,244L-382,241L-383,239L-379,239L-377,240L-378,244L-375,245L-373,249L-375,252L-377,259L-374,264L-374,268L-369,272L-365,272L-364,270L-361,270L-357,268L-354,266L-350,267L-348,267L-343,267L-342,266L-344,264L-343,262L-340,262L-336,261L-331,263L-327,265L-325,263L-323,263L-322,265L-318,265L-314,262L-312,255L-307,248L-304,247L-302,252L-297,267L-293,268L-292,274L-299,281L-296,283L-281,285L-281,293L-275,287L-264,291L-250,296L-246,301L-247,305L-238,303L-221,307L-209,307L-196,314L-186,323L-179,326L-172,326L-169,329L-166,339L-165,344L-168,358L-172,364L-184,376L-189,386L-196,393L-198,393L-200,400L-200,416L-202,429L-203,435L-205,439L-207,450L-215,462L-217,471L-224,475L-226,481L-235,481L-248,484L-254,488L-263,491L-273,498L-280,508L-281,515L-280,520L-282,529L-283,534L-289,539L-299,556L-306,564L-312,569L-316,578Z" fill="#E0E0E0" stroke="#fff" stroke-width=".4"/><path d="M-307,248L-312,255L-314,262L-318,265L-322,265L-323,263L-325,263L-327,265L-331,263L-329,260L-328,256L-326,252L-330,247L-330,241L-326,234L-323,235L-317,237L-308,244ZM179,-197L183,-193L195,-191L191,-182L190,-173L187,-171L183,-172L184,-169L178,-162L177,-157L181,-159L184,-153L184,-150L186,-145L184,-142L186,-133L190,-131L189,-126L182,-119L165,-123L153,-119L152,-112L142,-110L133,-116L130,-113L114,-118L111,-123L115,-130L117,-153L108,-166L102,-173L89,-177L88,-187L99,-189L113,-186L111,-201L119,-195L138,-205L141,-216L148,-219L149,-214L153,-214L157,-209L163,-202L167,-203L175,-197L176,-196ZM200,-114L206,-118L207,-108L204,-100L201,-102L199,-110Z" fill="#E0E0E0" stroke="#fff" stroke-width=".4"/><path d="M389,474L384,473L381,474L377,473L374,473L369,469L362,467L360,462L360,459L356,458L347,448L344,443L342,441L339,434L348,435L351,436L354,436L359,430L366,423L369,422L370,419L375,416L381,414L382,418L389,417L392,419L394,422L398,422L403,425L403,436L401,442L401,449L402,451L401,457L400,458L398,464Z" fill="#E0E0E0" stroke="#fff" stroke-width=".4"/><path d="M374,473L362,480L355,486L352,492L349,496L345,497L343,501L342,504L337,506L330,506L326,503L323,502L319,504L316,509L312,511L308,516L302,517L300,513L301,508L296,499L294,497L294,471L302,470L302,438L309,438L322,435L325,439L330,435L333,435L337,433L339,434L342,441L344,443L347,448L356,458L360,459L360,462L362,467L369,469Z" fill="#E0E0E0" stroke="#fff" stroke-width=".4"/><path d="M294,497L294,532L286,537L282,538L277,536L273,535L271,531L268,528L264,533L258,526L255,519L253,510L251,503L248,489L248,478L247,473L243,469L239,462L235,451L233,446L226,437L225,430L229,428L234,427L240,427L245,431L246,431L280,430L286,434L306,436L322,432L329,430L334,431L337,433L337,433L333,435L330,435L325,439L322,435L309,438L302,438L302,470L294,471Z" fill="#E0E0E0" stroke="#fff" stroke-width=".4"/><path d="M-13,167L-17,161L-21,158L-17,156L-13,150L-11,145L-8,143L-4,143L-0,141L5,141L9,144L14,146L19,153L25,159L25,164L27,169L30,171L31,175L30,177L29,178L24,177L24,178L22,178L16,176L12,176L-4,176L-6,177L-9,176L-13,178L-14,171L-7,171L-5,170L-3,170L-0,168L3,170L7,170L11,168L9,166L6,167L4,167L0,165L-2,165L-4,167Z" fill="#E0E0E0" stroke="#fff" stroke-width=".4"/><path d="M30,177L31,175L30,171L27,169L25,164L25,159L28,157L29,152L32,152L37,154L42,152L45,153L47,151L80,151L82,145L81,144L77,105L73,66L86,66L114,86L142,106L144,110L149,112L153,114L153,120L163,119L163,139L158,145L157,150L150,152L139,152L135,156L130,156L125,156L123,154L118,155L110,159L109,162L102,166L101,168L97,170L93,168L91,171L90,176L83,184L83,186L81,190L82,195L78,196L76,197L75,194L72,195L71,195L69,197L63,197L61,196L59,196L57,194L57,191L56,190L55,191L55,189L57,186L53,183L52,180L50,178L49,178L47,179L44,181L42,182L38,182L36,180L34,179L32,180L31,180Z" fill="#E0E0E0" stroke="#fff" stroke-width=".4"/><path d="M-16,102L-15,99L18,99L17,86L19,82L27,81L26,57L54,58L54,43L86,66L73,66L77,105L81,144L82,145L80,151L47,151L45,153L42,152L37,154L32,152L29,152L28,157L25,159L19,153L14,146L9,144L5,141L-0,141L-4,143L-8,143L-11,145L-12,141L-10,136L-9,128L-10,119L-11,115L-10,110L-12,106Z" fill="#E0E0E0" stroke="#fff" stroke-width=".4"/><path d="M150,230L143,231L140,225L141,206L139,204L139,200L136,197L133,194L134,190L137,189L139,185L143,184L145,182L148,179L151,179L157,184L157,187L159,192L157,195L158,198L154,203L151,206L150,211L150,216Z" fill="#E0E0E0" stroke="#fff" stroke-width=".4"/><path d="M252,85L254,99L257,102L257,105L260,108L259,112L255,130L255,141L244,149L241,161L244,164L244,169L249,170L249,174L246,174L246,177L244,177L239,168L237,167L230,172L224,170L219,169L217,170L212,170L207,174L203,174L192,170L188,172L184,172L181,168L173,165L164,166L161,168L160,173L158,176L157,184L151,179L148,179L145,182L145,176L136,174L135,170L131,164L129,160L130,156L135,156L139,152L150,152L157,150L158,145L163,139L163,119L175,115L199,97L228,80L241,84L246,89Z" fill="#E0E0E0" stroke="#fff" stroke-width=".4"/><path d="M150,230L150,216L150,211L151,206L154,203L158,198L157,195L159,192L157,187L157,184L158,176L160,173L161,168L164,166L173,165L181,168L184,172L188,172L192,170L203,174L207,174L212,170L217,170L219,169L224,170L230,172L237,167L239,168L244,177L246,177L249,180L248,182L248,185L241,191L239,197L237,201L236,203L234,209L230,213L228,217L226,220L226,224L220,227L215,223L212,223L207,228L204,228L200,237L198,243L190,246L186,245L183,247L176,247L172,242L169,235L163,230L157,230Z" fill="#E0E0E0" stroke="#fff" stroke-width=".4"/><path d="M249,174L252,179L252,185L252,191L257,198L252,198L250,199L246,198L244,202L249,207L253,208L254,212L256,218L255,220L251,229L249,230L248,237L249,240L248,243L252,247L253,250L256,255L260,257L260,261L261,264L261,268L254,266L247,264L237,264L236,263L231,264L226,263L222,264L208,263L209,257L206,251L202,250L200,246L198,245L198,243L200,237L204,228L207,228L212,223L215,223L220,227L226,224L226,220L228,217L230,213L234,209L236,203L237,201L239,197L241,191L248,185L248,182L249,180L246,177L246,174Z" fill="#E0E0E0" stroke="#fff" stroke-width=".4"/><path d="M134,190L133,194L136,197L139,200L139,204L141,206L140,225L143,231L136,233L134,230L132,224L131,220L133,213L131,209L130,203L130,197L127,192L127,190Z" fill="#E0E0E0" stroke="#fff" stroke-width=".4"/><path d="M127,190L127,192L130,197L130,203L131,209L133,213L131,220L132,224L134,230L136,233L123,238L118,241L110,243L103,241L103,237L100,230L102,220L105,213L103,201L102,195L102,190L117,190L121,190L123,189Z" fill="#E0E0E0" stroke="#fff" stroke-width=".4"/><path d="M59,196L61,196L63,197L69,197L71,195L72,195L75,194L76,197L78,196L82,195L85,197L87,200L91,202L93,199L97,199L103,201L105,213L102,220L100,230L103,237L103,241L99,241L93,239L88,239L78,241L72,243L64,246L62,246L63,239L64,238L63,235L60,231L57,231L55,228L57,224L56,220L56,218L57,218L58,214L57,213L58,211L61,210L59,204L57,200L58,197Z" fill="#E0E0E0" stroke="#fff" stroke-width=".4"/><path d="M12,176L16,176L22,178L24,178L24,177L29,178L30,177L31,180L32,180L34,179L36,180L38,182L42,182L44,181L47,179L49,178L50,178L52,180L53,183L57,186L55,189L55,191L56,190L57,191L57,194L59,196L58,197L57,200L59,204L61,210L58,211L57,213L58,214L57,218L56,218L54,218L52,221L50,221L48,219L49,216L45,211L43,212L41,212L39,212L39,209L37,207L38,204L36,201L34,198L27,198L25,199L23,200L21,201L20,204L16,208L12,203L9,199L7,198L5,196L4,193L2,191L-0,189L4,185L6,185L8,184L10,184L12,183L11,180L12,179Z" fill="#E0E0E0" stroke="#fff" stroke-width=".4"/><path d="M-13,178L-9,176L-6,177L-4,176L12,176L12,179L11,180L12,183L10,184L8,184L6,185L4,185L-0,189L-5,186L-8,185L-10,183L-10,181L-13,180Z" fill="#E0E0E0" stroke="#fff" stroke-width=".4"/><path d="M56,218L56,220L57,224L55,228L57,231L60,231L63,235L64,238L63,239L62,246L60,246L51,242L44,236L37,231L31,226L33,223L33,220L37,216L41,212L43,212L45,211L49,216L48,219L50,221L52,221L54,218Z" fill="#E0E0E0" stroke="#fff" stroke-width=".4"/><path d="M16,208L20,204L21,201L23,200L25,199L27,198L34,198L36,201L38,204L37,207L39,209L39,212L41,212L37,216L33,220L33,223L31,226L29,225L23,221L18,217L17,214Z" fill="#E0E0E0" stroke="#fff" stroke-width=".4"/><path d="M82,195L81,190L83,186L83,184L90,176L91,171L93,168L97,170L101,168L102,166L109,162L110,159L118,155L123,154L125,156L130,156L129,160L131,164L135,170L136,174L145,176L145,182L143,184L139,185L137,189L134,190L127,190L123,189L121,190L117,190L102,190L102,195L103,201L97,199L93,199L91,202L87,200L85,197Z" fill="#E0E0E0" stroke="#fff" stroke-width=".4"/><path d="M357,239L354,240L349,239L342,238L339,239L338,241L335,241L332,240L322,244L319,243L318,244L315,249L309,247L303,246L297,243L290,240L286,243L283,247L282,253L276,253L271,251L266,256L261,264L260,261L260,257L256,255L253,250L252,247L248,243L249,240L248,237L249,230L251,229L255,220L262,219L264,217L265,217L267,219L278,216L281,213L286,210L285,207L287,206L295,207L303,203L309,193L314,190L319,188L320,192L325,197L325,201L323,204L324,207L327,210L333,213L338,217L338,219L343,224L347,228L349,233L355,236Z" fill="#E0E0E0" stroke="#fff" stroke-width=".4"/><path d="M282,253L281,258L279,263L277,268L276,275L277,280L275,283L275,286L274,289L268,293L265,297L261,305L261,312L259,315L254,319L249,324L246,323L246,321L241,320L238,324L236,323L233,320L230,321L227,325L220,316L226,311L223,306L226,304L232,303L232,299L237,303L244,303L247,299L248,294L247,287L243,282L247,273L245,271L238,272L236,267L237,264L247,264L254,266L261,268L261,264L266,256L271,251L276,253Z" fill="#E0E0E0" stroke="#fff" stroke-width=".4"/><path d="M222,264L226,263L231,264L236,263L237,264L236,267L238,272L245,271L247,273L243,282L247,287L248,294L247,299L244,303L237,303L232,299L232,303L226,304L223,306L226,311L220,316L211,308L206,301L201,292L201,289L203,286L205,280L207,274L209,274L222,274Z" fill="#E0E0E0" stroke="#fff" stroke-width=".4"/><path d="M208,263L222,264L222,274L209,274L207,274L205,273Z" fill="#E0E0E0" stroke="#fff" stroke-width=".4"/><path d="M385,353L388,355L392,356L397,358L402,360L406,364L408,371L407,374L405,381L407,388L404,391L401,399L406,401L380,408L381,414L375,416L370,419L369,422L366,423L359,430L354,436L351,436L348,435L339,434L337,433L337,433L334,431L329,430L322,432L316,427L311,419L311,392L329,392L328,389L329,386L328,382L329,378L328,375L331,375L331,378L335,378L340,378L343,382L350,383L355,381L357,385L363,386L366,390L370,395L376,395L376,386L373,387L367,384L365,382L366,374L368,364L366,360L368,354L370,353L382,352Z" fill="#E0E0E0" stroke="#fff" stroke-width=".4"/><path d="M402,360L410,362L412,364L415,368L417,380L415,387L417,398L420,398L423,400L426,407L427,418L424,420L421,426L416,420L415,414L417,410L416,407L413,404L411,405L406,401L401,399L404,391L407,388L405,381L407,374L408,371L406,364Z" fill="#E0E0E0" stroke="#fff" stroke-width=".4"/><path d="M417,380L423,379L433,382L436,381L441,380L444,378L450,378L459,375L465,370L467,374L466,382L467,390L468,403L469,407L467,414L463,420L458,425L450,428L441,433L432,442L428,444L422,450L419,452L418,458L422,465L424,471L424,473L425,473L425,482L424,486L426,488L425,491L421,495L414,498L404,503L400,506L401,510L403,511L403,516L396,516L395,512L394,507L393,504L395,494L393,487L389,474L398,464L400,458L401,457L402,451L401,449L401,442L403,436L403,425L398,422L394,422L392,419L389,417L382,418L381,414L380,408L406,401L411,405L413,404L416,407L417,410L415,414L416,420L421,426L424,420L427,418L426,407L423,400L420,398L417,398L415,387Z" fill="#E0E0E0" stroke="#fff" stroke-width=".4"/><path d="M236,323L233,325L232,327L231,330L229,331L227,325L230,321L233,320ZM230,334L234,333L236,333L239,332L264,332L266,338L268,343L270,346L274,351L279,350L282,349L287,350L288,348L290,343L295,343L296,341L300,341L299,344L309,344L309,349L311,353L310,358L311,363L313,366L313,376L315,375L319,376L324,374L328,375L329,378L328,382L329,386L328,389L329,392L311,392L311,419L316,427L322,432L306,436L286,434L280,430L246,431L245,431L240,427L234,427L229,428L225,430L225,425L226,417L229,409L229,405L232,397L234,394L239,388L241,384L242,378L242,373L239,370L237,365L235,360L235,358L238,355L235,347L234,341L230,336Z" fill="#E0E0E0" stroke="#fff" stroke-width=".4"/><path d="M383,303L383,306L385,308L385,311L383,313L380,317L377,320L373,320L373,310L371,306L376,307L378,302Z" fill="#E0E0E0" stroke="#fff" stroke-width=".4"/><path d="M427,-8L425,-5L422,-6L421,0L423,1L420,3L420,5L424,4L424,8L420,23L419,21L415,6L417,3L416,3L419,-2L420,-9L422,-12L422,-12L425,-12L425,-14L428,-14L428,-10L427,-8Z" fill="#E0E0E0" stroke="#fff" stroke-width=".4"/><path d="M428,-14L425,-14L425,-12L422,-12L425,-20L429,-27L429,-28L433,-27L434,-23L430,-19Z" fill="#E0E0E0" stroke="#fff" stroke-width=".4"/><path d="M543,388L545,392L547,397L548,408L551,412L550,416L548,419L546,414L544,416L546,423L545,426L542,428L542,436L539,446L534,458L529,476L526,488L522,499L515,501L508,505L503,503L497,499L494,494L494,486L491,479L490,473L492,466L495,464L495,461L499,455L500,449L498,445L497,439L496,431L499,426L500,421L504,420L509,418L512,417L516,417L520,412L527,406L530,402L529,398L532,399L537,393L537,388L540,384Z" fill="#E0E0E0" stroke="#fff" stroke-width=".4"/><path d="M424,4L420,5L420,3L423,1L421,0L422,-6L425,-5L425,1Z" fill="#E0E0E0" stroke="#fff" stroke-width=".4"/><path d="M-13,167L-4,167L-2,165L0,165L4,167L6,167L9,166L11,168L7,170L3,170L-0,168L-3,170L-5,170L-7,171L-14,171Z" fill="#E0E0E0" stroke="#fff" stroke-width=".4"/><path d="M207,15L203,-2L198,-6L198,-9L191,-15L190,-22L195,-28L197,-36L196,-46L198,-52L207,-56L213,-55L212,-49L219,-53L220,-51L216,-46L216,-41L219,-39L218,-30L212,-25L214,-19L218,-19L220,-14L223,-13L223,-5L219,-2L216,1L210,5L211,9L211,13Z" fill="#E0E0E0" stroke="#fff" stroke-width=".4"/><path d="M54,43L54,41L54,41L54,30L68,22L76,21L83,18L86,14L96,10L96,2L101,2L105,-2L116,-4L117,-8L115,-10L112,-20L112,-27L109,-33L117,-39L126,-41L131,-45L139,-48L153,-50L167,-51L172,-49L179,-53L188,-53L192,-51L198,-52L196,-46L197,-36L195,-28L190,-22L191,-15L198,-9L198,-6L203,-2L207,15L209,24L210,28L208,36L209,41L208,46L208,52L205,56L210,62L210,66L213,71L217,70L224,74L228,80L199,97L175,115L163,119L153,120L153,114L149,112L144,110L142,106L114,86L86,66Z" fill="#E0E0E0" stroke="#fff" stroke-width=".4"/><path d="M425,-5L427,-8L436,-4L453,-15L456,-3L454,-1L438,4L446,13L443,15L442,18L435,20L433,23L430,26L420,25L420,23L424,8L424,4L425,1Z" fill="#E0E0E0" stroke="#fff" stroke-width=".4"/><path d="M560,73L561,72L562,75L568,73L575,74L580,74L586,68L592,62L598,56L599,59L600,66L596,66L595,72L597,74L593,76L593,79L591,83L590,87L589,89L563,84L560,75Z" fill="#E0E0E0" stroke="#fff" stroke-width=".4"/><path d="M553,68L553,61L555,56L557,55L560,58L560,64L558,69L556,70Z" fill="#E0E0E0" stroke="#fff" stroke-width=".4"/><path d="M530,19L531,23L531,25L533,32L527,33L525,28L518,27L524,18Z" fill="#E0E0E0" stroke="#fff" stroke-width=".4"/><path d="M456,-3L453,-15L471,-25L474,-38L474,-45L478,-48L482,-55L486,-56L496,-55L499,-52L503,-54L508,-41L514,-38L514,-32L510,-29L508,-21L514,-11L524,-6L529,2L527,9L530,9L530,14L535,19L530,19L524,18L518,27L502,26L479,7L466,-0Z" fill="#E0E0E0" stroke="#fff" stroke-width=".4"/><path d="M590,87L591,83L593,79L593,76L597,74L595,72L596,66L600,66L604,73L609,76L615,77L620,79L624,84L626,87L629,88L629,90L626,96L625,98L621,101L618,107L614,107L612,109L611,114L612,120L611,121L607,121L602,124L601,128L599,130L594,130L591,132L591,136L587,138L582,137L577,140L573,141L570,135L563,120L589,111L594,93ZM599,59L598,56L600,53L601,54L600,57Z" fill="#E0E0E0" stroke="#fff" stroke-width=".4"/><path d="M988,180L986,169L991,162L1002,160L1010,162L1017,165L1021,159L1028,162L1030,168L1029,178L1015,185L1019,190L1010,191L1003,194L996,193L992,188Z" fill="#E0E0E0" stroke="#fff" stroke-width=".4"/><path d="M1010,162L1002,160L991,162L986,169L988,180L981,176L973,176L975,169L967,169L967,178L962,191L959,199L960,205L965,205L969,213L970,220L975,225L980,226L984,230L982,234L976,235L975,230L969,227L967,228L964,225L962,221L958,216L954,212L952,217L951,212L952,207L954,199L958,190L963,182L960,174L960,170L959,165L953,158L951,154L954,153L957,145L954,139L948,133L944,125L948,123L952,114L958,113L963,110L967,107L971,110L971,116L977,116L975,125L975,133L984,128L987,130L992,129L993,126L1000,127L1006,134L1007,143L1013,150L1013,158Z" fill="#E0E0E0" stroke="#fff" stroke-width=".4"/><path d="M1028,162L1021,159L1017,165L1010,162L1013,158L1013,150L1007,143L1006,134L1000,127L993,126L992,129L987,130L984,128L975,133L975,125L977,116L971,116L971,110L967,107L969,104L976,98L977,100L982,101L980,90L985,89L990,96L993,104L1004,104L1007,112L1002,115L999,118L1009,123L1016,133L1021,141L1028,147L1030,153Z" fill="#E0E0E0" stroke="#fff" stroke-width=".4"/><path d="M967,107L963,110L958,113L952,114L948,123L944,125L948,133L954,139L957,145L954,153L951,154L953,158L959,165L960,170L960,174L963,182L958,190L954,199L953,192L956,186L953,181L954,171L950,167L948,157L946,146L943,138L937,143L928,149L923,148L918,146L921,135L919,127L912,117L913,114L908,112L902,105L902,98L905,99L905,93L909,91L908,87L910,84L910,74L917,76L921,69L921,64L926,56L925,51L936,45L942,46L942,40L945,39L944,35L949,34L952,40L955,42L956,49L955,57L947,65L946,76L955,74L957,83L962,85L960,92L966,96L970,97L976,95L976,98L969,104Z" fill="#E0E0E0" stroke="#fff" stroke-width=".4"/><path d="M1003,194L1010,191L1019,190L1015,185L1029,178L1030,168L1028,162L1030,153L1028,147L1021,141L1016,133L1009,123L999,118L1002,115L1007,112L1004,104L993,104L990,96L985,89L989,87L996,87L1004,86L1011,81L1015,84L1023,86L1022,91L1026,95L1034,97L1023,105L1016,113L1014,120L1020,129L1028,140L1036,146L1041,153L1045,169L1044,184L1037,190L1027,195L1020,202L1010,210L1007,205L1009,199Z" fill="#E0E0E0" stroke="#fff" stroke-width=".4"/><path d="M864,-194L872,-197L888,-208L901,-214L909,-210L917,-210L923,-204L931,-203L943,-200L952,-209L948,-217L957,-231L966,-225L974,-224L984,-220L985,-210L997,-205L1005,-207L1016,-209L1024,-207L1032,-201L1038,-194L1045,-194L1056,-192L1064,-195L1075,-198L1087,-207L1092,-205L1096,-201L1106,-202L1102,-192L1096,-180L1099,-175L1103,-176L1112,-174L1118,-179L1125,-175L1132,-166L1131,-162L1125,-163L1113,-161L1107,-158L1101,-150L1088,-145L1079,-139L1071,-141L1066,-143L1062,-135L1064,-130L1066,-127L1060,-123L1054,-117L1044,-112L1031,-112L1018,-108L1008,-102L1004,-106L994,-106L982,-112L974,-114L962,-113L945,-115L936,-115L931,-122L927,-132L922,-134L912,-141L900,-143L890,-145L887,-150L891,-164L885,-174L873,-179L866,-185Z" fill="#E0E0E0" stroke="#fff" stroke-width=".4"/><path d="M944,35L945,39L942,40L942,46L936,45L925,51L926,56L921,64L921,69L917,76L910,74L910,84L908,87L909,91L905,93L900,78L898,78L897,84L892,80L895,74L899,74L902,66L898,64L890,65L882,63L881,57L877,56L870,52L867,59L873,64L868,67L866,70L872,73L870,78L873,85L874,93L873,96L867,96L857,98L858,105L853,110L841,116L832,126L825,132L817,138L817,142L813,144L805,147L801,147L799,154L800,165L801,172L797,181L797,195L793,196L789,202L792,205L784,207L781,213L778,216L770,208L766,196L763,187L760,183L755,175L753,164L752,159L744,147L741,130L738,118L738,107L737,99L724,104L718,103L708,92L712,89L709,86L699,78L705,72L723,72L722,64L717,59L716,52L710,48L720,38L729,38L738,28L744,19L752,9L752,2L759,-4L752,-9L749,-16L746,-24L750,-29L763,-26L772,-28L780,-36L789,-24L789,-16L792,-11L792,-6L786,-7L788,4L796,10L808,17L803,21L799,30L807,34L815,38L826,44L838,45L843,50L849,51L859,53L866,53L867,49L866,43L867,39L872,37L873,44L873,46L880,50L886,48L893,49L900,49L900,43L897,40L903,39L911,31L921,25L928,28L934,24L938,30L935,34Z" fill="#E0E0E0" stroke="#fff" stroke-width=".4"/><path d="M905,93L905,99L902,98L902,105L900,101L899,96L898,92L894,86L887,86L887,90L885,95L881,93L880,95L878,94L874,93L873,85L870,78L872,73L866,70L868,67L873,64L867,59L870,52L877,56L881,57L882,63L890,65L898,64L902,66L899,74L895,74L892,80L897,84L898,78L900,78Z" fill="#E0E0E0" stroke="#fff" stroke-width=".4"/><path d="M897,40L900,43L900,49L893,49L886,48L880,50L873,46L873,44L878,37L883,35L889,37L893,37Z" fill="#E0E0E0" stroke="#fff" stroke-width=".4"/><path d="M867,39L866,43L867,49L866,53L859,53L849,51L843,50L838,45L826,44L815,38L807,34L799,30L803,21L808,17L811,14L818,17L827,24L831,25L834,30L841,31L847,36L857,38Z" fill="#E0E0E0" stroke="#fff" stroke-width=".4"/><path d="M780,-36L772,-28L763,-26L750,-29L746,-24L749,-16L752,-9L759,-4L752,2L752,9L744,19L738,28L729,38L720,38L710,48L716,52L717,59L722,64L723,72L705,72L699,78L693,75L691,69L684,62L669,64L655,64L643,65L646,54L658,49L658,45L654,43L654,35L645,31L642,25L638,20L652,25L660,24L665,25L667,23L673,24L684,19L684,11L689,6L695,6L696,3L702,2L706,3L709,-0L708,-6L712,-12L717,-15L714,-21L722,-21L724,-25L724,-29L728,-33L727,-38L725,-42L730,-47L739,-49L749,-50L753,-52L758,-54L764,-49L767,-41Z" fill="#E0E0E0" stroke="#fff" stroke-width=".4"/><path d="M685,-56L690,-56L696,-54L699,-52L705,-56L708,-54L711,-59L716,-58L717,-60L718,-64L721,-68L726,-66L725,-62L728,-62L727,-53L730,-49L733,-52L737,-53L742,-57L748,-57L756,-57L758,-54L753,-52L749,-50L739,-49L730,-47L725,-42L727,-38L728,-33L724,-29L724,-25L722,-21L714,-21L717,-15L712,-12L708,-6L709,-0L706,3L702,2L696,3L695,6L689,6L684,11L684,19L673,24L667,23L665,25L660,24L652,25L638,20L646,11L645,5L639,3L638,-3L635,-11L639,-16L635,-18L637,-25L641,-38L649,-34L656,-36L657,-40L664,-42L669,-45L670,-53L678,-55L679,-59L683,-56Z" fill="#E0E0E0" stroke="#fff" stroke-width=".4"/><path d="M696,-54L701,-64L699,-72L693,-75L695,-80L702,-79L706,-85L709,-92L720,-95L718,-90L720,-87L723,-87L720,-84L711,-85L710,-79L719,-80L730,-76L745,-78L748,-68L750,-69L755,-67L755,-63L756,-57L748,-57L742,-57L737,-53L733,-52L730,-49L727,-53L728,-62L725,-62L726,-66L721,-68L718,-64L717,-60L716,-58L711,-59L708,-54L705,-56L699,-52Z" fill="#E0E0E0" stroke="#fff" stroke-width=".4"/><path d="M723,-110L725,-115L730,-116L744,-112L745,-119L750,-121L762,-117L765,-118L779,-118L791,-116L796,-112L801,-111L800,-108L786,-102L783,-97L773,-96L769,-89L760,-91L755,-88L747,-83L748,-81L745,-78L730,-76L719,-80L710,-79L711,-85L720,-84L723,-87L729,-86L740,-94L730,-100L724,-97L718,-101L725,-108Z" fill="#E0E0E0" stroke="#fff" stroke-width=".4"/><path d="M568,-104L571,-108L581,-110L587,-107L592,-98L597,-99L606,-99L605,-105L612,-109L619,-115L630,-109L631,-100L635,-98L644,-98L646,-96L651,-85L660,-77L666,-72L674,-67L686,-62L685,-56L683,-56L679,-59L678,-55L670,-53L669,-45L664,-42L657,-40L656,-36L649,-34L641,-38L640,-47L634,-47L624,-57L617,-58L608,-63L602,-64L599,-62L593,-62L587,-56L580,-54L578,-62L579,-73L573,-77L575,-84L569,-85L571,-94L579,-91L586,-95L580,-102L578,-108L571,-105L570,-97Z" fill="#E0E0E0" stroke="#fff" stroke-width=".4"/><path d="M535,19L530,14L530,9L527,9L529,2L524,-6L514,-11L508,-21L510,-29L514,-32L514,-38L508,-41L503,-54L498,-62L500,-66L497,-78L503,-81L504,-77L509,-72L514,-71L517,-71L527,-79L530,-80L533,-77L530,-71L535,-66L537,-66L540,-58L548,-56L554,-51L566,-49L579,-52L580,-54L587,-56L593,-62L599,-62L602,-64L608,-63L617,-58L624,-57L634,-47L640,-47L641,-38L637,-25L635,-18L639,-16L635,-11L638,-3L639,3L645,5L646,11L638,20L642,25L645,31L654,35L654,43L658,45L658,49L646,54L643,65L627,62L618,60L609,59L605,47L601,46L595,47L586,52L576,49L568,42L559,39L554,30L548,17L543,19L538,15Z" fill="#E0E0E0" stroke="#fff" stroke-width=".4"/><path d="M427,-8L427,-8L428,-10L428,-14L430,-19L434,-23L433,-27L429,-28L428,-36L430,-40L433,-42L435,-44L435,-50L438,-48L447,-51L452,-49L459,-49L468,-53L473,-53L482,-55L478,-48L474,-45L474,-38L471,-25L453,-15L436,-4Z" fill="#E0E0E0" stroke="#fff" stroke-width=".4"/><path d="M517,-71L514,-71L511,-77L511,-79L507,-79L505,-82L503,-81L500,-84L493,-87L494,-93L493,-96L504,-98L506,-95L509,-93L508,-91L512,-87L510,-83L513,-80L517,-79Z" fill="#E0E0E0" stroke="#fff" stroke-width=".4"/><path d="M394,-232L397,-231L399,-234L402,-233L410,-235L416,-227L414,-224L414,-220L421,-219L424,-214L424,-211L434,-206L441,-209L446,-202L451,-203L463,-198L463,-195L460,-188L462,-181L461,-177L452,-176L448,-172L448,-167L441,-166L435,-162L428,-161L420,-157L421,-150L420,-151L418,-153L416,-153L410,-156L408,-153L406,-154L393,-157L393,-162L385,-160L382,-154L375,-145L372,-147L368,-145L364,-147L366,-148L368,-153L370,-156L369,-159L371,-160L372,-158L377,-158L379,-158L377,-160L378,-162L375,-165L374,-170L371,-172L371,-176L368,-179L364,-180L358,-184L352,-183L350,-181L347,-181L345,-178L339,-177L336,-175L332,-178L326,-178L321,-179L318,-176L317,-180L312,-183L314,-188L316,-192L318,-191L316,-197L324,-208L328,-209L329,-213L324,-224L328,-225L333,-229L340,-229L348,-228L357,-225L364,-224L367,-222L370,-225L373,-222L380,-222L383,-221L384,-228L387,-231Z" fill="#E0E0E0" stroke="#fff" stroke-width=".4"/><path d="M324,-257L324,-251L327,-245L327,-240L322,-237L324,-231L324,-224L329,-213L328,-209L324,-208L316,-197L318,-191L316,-192L308,-197L302,-195L298,-196L293,-193L289,-198L286,-196L285,-197L281,-203L275,-204L274,-208L269,-210L267,-206L263,-209L263,-213L257,-214L253,-218L250,-227L250,-231L248,-239L245,-244L247,-247L245,-255L251,-259L264,-265L275,-270L283,-268L284,-264L292,-264L302,-263L318,-263L322,-261Z" fill="#E0E0E0" stroke="#fff" stroke-width=".4"/><path d="M269,-179L269,-174L264,-174L266,-172L263,-164L261,-162L254,-161L250,-159L243,-159L231,-163L229,-167L221,-165L220,-162L215,-164L210,-165L207,-167L208,-170L207,-172L210,-173L214,-169L215,-173L223,-172L229,-174L233,-174L235,-171L236,-173L235,-182L238,-183L241,-189L247,-185L252,-190L255,-191L261,-187L265,-188L269,-185L269,-184Z" fill="#E0E0E0" stroke="#fff" stroke-width=".4"/><path d="M312,-183L317,-180L318,-176L312,-174L308,-165L303,-157L297,-155L291,-155L285,-152L282,-150L275,-153L269,-158L266,-159L264,-164L263,-164L266,-172L264,-174L269,-174L269,-179L274,-176L277,-175L284,-176L285,-179L288,-179L292,-181L293,-180L297,-182L299,-185L302,-186L311,-182Z" fill="#E0E0E0" stroke="#fff" stroke-width=".4"/><path d="M350,-181L352,-183L358,-184L364,-180L368,-179L371,-176L371,-172L374,-170L375,-165L378,-162L377,-160L379,-158L377,-158L372,-158L371,-160L369,-159L370,-156L368,-153L366,-148L364,-147L362,-153L363,-158L363,-163L358,-171L356,-176L353,-179Z" fill="#E0E0E0" stroke="#fff" stroke-width=".4"/><path d="M364,-147L368,-145L372,-147L375,-145L376,-142L372,-139L369,-140L367,-126L362,-127L356,-132L346,-129L342,-126L329,-127L323,-128L320,-128L317,-132L316,-134L318,-136L315,-138L313,-135L308,-139L307,-143L302,-146L301,-150L297,-155L303,-157L308,-165L312,-174L318,-176L321,-179L326,-178L332,-178L336,-175L339,-177L345,-178L347,-181L350,-181L353,-179L356,-176L358,-171L363,-163L363,-158L362,-153Z" fill="#E0E0E0" stroke="#fff" stroke-width=".4"/><path d="M245,-255L247,-247L245,-244L248,-239L250,-231L250,-227L253,-218L249,-217L247,-218L245,-216L239,-213L236,-210L230,-207L231,-203L232,-198L236,-195L241,-189L238,-183L235,-182L236,-173L235,-171L233,-174L229,-174L223,-172L215,-173L214,-169L210,-173L207,-172L198,-176L197,-173L190,-173L191,-182L195,-191L183,-193L179,-197L179,-202L178,-205L179,-214L177,-228L182,-228L184,-233L186,-246L185,-251L187,-254L194,-255L195,-251L201,-258L199,-264L198,-272L205,-270L210,-272L210,-267L219,-263L219,-258L227,-261L232,-265L241,-259Z" fill="#E0E0E0" stroke="#fff" stroke-width=".4"/><path d="M317,-132L320,-128L323,-128L329,-127L342,-126L346,-129L356,-132L362,-127L367,-126L362,-121L359,-113L362,-107L355,-108L346,-105L346,-99L338,-98L333,-102L326,-99L320,-99L319,-107L315,-110L316,-112L315,-113L317,-117L320,-120L316,-125L315,-130Z" fill="#E0E0E0" stroke="#fff" stroke-width=".4"/><path d="M348,-34L347,-31L334,-31L335,-32L324,-34L326,-39L330,-35L337,-36L343,-35L343,-33ZM320,-99L326,-99L333,-102L338,-98L346,-99L346,-105L350,-102L348,-95L346,-93L341,-94L336,-95L326,-92L332,-86L328,-84L323,-84L318,-90L317,-87L319,-81L323,-76L320,-73L324,-68L329,-65L329,-59L321,-62L323,-56L318,-55L321,-46L316,-46L309,-51L306,-59L304,-66L301,-71L297,-77L296,-80L300,-86L300,-89L303,-91L303,-94L309,-95L312,-97L317,-97L318,-99Z" fill="#E0E0E0" stroke="#fff" stroke-width=".4"/><path d="M503,-54L499,-52L496,-55L486,-56L482,-55L473,-53L468,-53L459,-49L452,-49L447,-51L438,-48L435,-50L435,-44L433,-42L430,-40L427,-45L430,-49L425,-48L418,-50L413,-44L400,-43L393,-48L384,-49L382,-44L376,-43L368,-49L359,-49L354,-59L348,-65L352,-73L347,-79L356,-89L369,-89L372,-98L388,-96L398,-104L408,-107L422,-107L437,-99L449,-95L459,-97L466,-96L476,-101L485,-102L493,-96L494,-93L493,-87L500,-84L503,-81L497,-78L500,-66L498,-62ZM346,-105L355,-108L362,-107L363,-102L370,-99L369,-96L359,-95L355,-92L348,-86L346,-91L346,-93L348,-95L350,-102Z" fill="#E0E0E0" stroke="#fff" stroke-width=".4"/><path d="M303,-94L303,-91L300,-89L300,-86L296,-80L295,-81L294,-83L290,-87L289,-92L290,-100L291,-103L290,-105L289,-109L293,-114L293,-112L295,-113L297,-110L299,-109L300,-105L299,-101L300,-96Z" fill="#E0E0E0" stroke="#fff" stroke-width=".4"/><path d="M266,-159L269,-158L275,-153L282,-150L285,-152L287,-148L290,-144L286,-140L283,-142L277,-142L270,-144L266,-144L264,-141L261,-144L259,-139L263,-134L265,-130L269,-126L272,-123L275,-118L283,-114L282,-112L274,-116L269,-120L261,-124L254,-132L256,-133L252,-138L252,-142L247,-144L244,-139L242,-143L242,-147L242,-147L248,-147L249,-149L252,-147L256,-147L256,-150L258,-151L259,-156Z" fill="#E0E0E0" stroke="#fff" stroke-width=".4"/><path d="M207,-172L208,-170L207,-167L210,-165L215,-164L214,-159L210,-157L204,-159L202,-154L198,-153L197,-155L192,-151L188,-151L184,-153L181,-159L177,-157L178,-162L184,-169L183,-172L187,-171L190,-173L197,-173L198,-176Z" fill="#E0E0E0" stroke="#fff" stroke-width=".4"/><path d="M178,-205L179,-202L179,-197L176,-196L175,-197L175,-205Z" fill="#E0E0E0" stroke="#fff" stroke-width=".4"/><path d="M179,-214L178,-205L175,-205L175,-197L167,-203L163,-202L157,-209L153,-214L149,-214L148,-219L155,-221L161,-220L169,-223L174,-217Z" fill="#E0E0E0" stroke="#fff" stroke-width=".4"/><path d="M51,-105L54,-108L58,-110L60,-104L65,-104L66,-106L71,-105L73,-100L69,-97L69,-88L68,-86L68,-81L64,-80L67,-74L65,-67L68,-64L67,-61L64,-57L64,-53L61,-50L57,-52L52,-51L53,-59L53,-66L49,-67L47,-71L48,-78L51,-82L52,-86L53,-93L53,-97L51,-101Z" fill="#E0E0E0" stroke="#fff" stroke-width=".4"/><path d="M64,-53L64,-57L67,-61L68,-64L65,-67L67,-74L64,-80L68,-81L68,-86L69,-88L69,-97L73,-100L71,-105L66,-106L65,-104L60,-104L58,-110L54,-108L51,-105L51,-113L48,-118L60,-127L70,-125L81,-125L90,-123L97,-123L111,-123L114,-118L130,-113L133,-116L142,-110L152,-112L152,-105L144,-98L134,-96L133,-92L128,-86L125,-77L128,-71L123,-66L121,-59L115,-57L109,-49L98,-49L90,-49L85,-45L82,-41L78,-42L75,-46L72,-52Z" fill="#E0E0E0" stroke="#fff" stroke-width=".4"/><path d="M814,219L812,228L809,230L801,232L797,226L796,214L800,200L806,204L809,210Z" fill="#E0E0E0" stroke="#fff" stroke-width=".4"/><path d="M1046,127L1039,124L1039,117L1043,113L1052,110L1057,110L1059,114L1055,118L1053,123ZM801,-111L800,-117L806,-120L798,-140L815,-145L819,-148L825,-170L842,-166L847,-171L847,-184L854,-185L860,-193L864,-194L866,-185L873,-179L885,-174L891,-164L887,-150L890,-145L900,-143L912,-141L922,-134L927,-132L931,-122L936,-115L945,-115L962,-113L974,-114L982,-112L994,-106L1004,-106L1008,-102L1018,-108L1031,-112L1044,-112L1054,-117L1060,-123L1066,-127L1064,-130L1062,-135L1066,-143L1071,-141L1079,-139L1088,-145L1101,-150L1107,-158L1113,-161L1125,-163L1131,-162L1132,-166L1125,-175L1118,-179L1112,-174L1103,-176L1099,-175L1096,-180L1102,-192L1106,-202L1116,-197L1128,-205L1128,-211L1136,-225L1141,-230L1140,-237L1136,-241L1143,-248L1153,-250L1164,-250L1177,-246L1184,-241L1189,-227L1193,-221L1195,-213L1199,-200L1213,-196L1223,-187L1227,-175L1239,-175L1247,-180L1260,-184L1256,-173L1253,-168L1250,-155L1244,-143L1234,-145L1227,-141L1229,-131L1228,-117L1224,-117L1224,-111L1218,-118L1215,-111L1202,-107L1203,-101L1196,-101L1192,-105L1186,-97L1177,-91L1170,-84L1158,-80L1152,-75L1143,-72L1148,-77L1146,-82L1153,-89L1148,-95L1141,-91L1131,-83L1126,-76L1118,-76L1114,-71L1118,-63L1125,-62L1125,-57L1132,-54L1141,-61L1149,-57L1154,-57L1155,-51L1144,-49L1140,-43L1131,-38L1127,-30L1136,-25L1140,-15L1145,-6L1150,2L1150,9L1145,12L1147,17L1152,20L1151,28L1148,35L1144,36L1138,47L1131,59L1123,70L1111,78L1100,86L1090,87L1085,91L1082,88L1078,93L1066,97L1057,99L1054,108L1049,109L1047,102L1049,99L1038,96L1034,97L1026,95L1022,91L1023,86L1015,84L1011,81L1004,86L996,87L989,87L985,89L980,90L982,101L977,100L976,98L976,95L970,97L966,96L960,92L962,85L957,83L955,74L946,76L947,65L955,57L956,49L955,42L952,40L949,34L944,35L935,34L938,30L934,24L928,28L921,25L911,31L903,39L897,40L893,37L889,37L883,35L878,37L873,44L872,37L867,39L857,38L847,36L841,31L834,30L831,25L827,24L818,17L811,14L808,17L796,10L788,4L786,-7L792,-6L792,-11L789,-16L789,-24L780,-36L767,-41L764,-49L758,-54L756,-57L755,-63L755,-67L750,-69L748,-68L745,-78L748,-81L747,-83L755,-88L760,-91L769,-89L773,-96L783,-97L786,-102L800,-108Z" fill="#E0E0E0" stroke="#fff" stroke-width=".4"/><path d="M215,-164L220,-162L221,-165L229,-167L231,-163L243,-159L242,-154L244,-148L237,-150L230,-146L231,-140L230,-137L233,-131L240,-125L245,-115L254,-106L261,-106L263,-104L260,-101L268,-97L274,-94L281,-88L282,-86L280,-82L276,-87L269,-89L265,-82L271,-78L270,-72L267,-72L262,-63L259,-62L259,-65L260,-71L262,-73L259,-79L256,-85L253,-86L250,-91L245,-93L241,-97L235,-98L229,-103L221,-111L215,-117L213,-129L208,-130L202,-134L198,-132L193,-127L189,-126L190,-131L186,-133L184,-142L186,-145L184,-150L184,-153L188,-151L192,-151L197,-155L198,-153L202,-154L204,-159L210,-157L214,-159ZM251,-64L257,-65L254,-57L255,-54L254,-48L247,-52L243,-53L231,-59L232,-64L242,-63ZM200,-94L204,-98L209,-90L208,-75L204,-76L201,-72L198,-75L197,-89L195,-95Z" fill="#E0E0E0" stroke="#fff" stroke-width=".4"/><path d="M516,-105L519,-105L525,-98L528,-97L530,-100L535,-104L539,-99L543,-91L547,-90L550,-87L543,-86L542,-78L540,-74L537,-71L537,-66L535,-66L530,-71L533,-77L530,-80L527,-79L517,-71L517,-79L513,-80L510,-83L512,-87L508,-91L509,-93L506,-95L504,-98L507,-100L513,-97L517,-96L518,-97L514,-103ZM514,-71L509,-72L504,-77L503,-81L505,-82L507,-79L511,-79L511,-77Z" fill="#E0E0E0" stroke="#fff" stroke-width=".4"/><path d="M462,-123L463,-124L470,-122L483,-121L494,-115L496,-113L501,-115L509,-112L511,-108L516,-105L514,-103L518,-97L517,-96L513,-97L507,-100L504,-98L493,-96L485,-102L476,-101L477,-106L475,-114L470,-118L465,-119Z" fill="#E0E0E0" stroke="#fff" stroke-width=".4"/><path d="M967,228L969,227L975,230L976,235L982,234L984,230L986,231L991,236L995,242L995,247L994,251L995,254L996,259L999,261L1002,269L1002,272L996,272L988,266L978,259L977,255L972,250L971,243L968,238L969,232ZM1117,248L1109,246L1100,246L1097,256L1093,259L1089,271L1082,272L1074,270L1070,271L1065,275L1060,274L1055,276L1049,271L1048,266L1054,269L1060,267L1062,260L1065,258L1076,257L1082,250L1086,245L1089,249L1091,246L1095,246L1096,241L1096,237L1103,231L1107,224L1110,224L1115,229L1115,232L1120,235L1127,237L1127,240L1121,241L1123,245Z" fill="#E0E0E0" stroke="#fff" stroke-width=".4"/><path d="M243,-159L250,-159L254,-161L261,-162L263,-164L264,-164L266,-159L259,-156L258,-151L256,-150L256,-147L252,-147L249,-149L248,-147L242,-147L244,-148L242,-154Z" fill="#E0E0E0" stroke="#fff" stroke-width=".4"/><path d="M316,-192L314,-188L312,-183L311,-182L302,-186L299,-185L297,-182L293,-180L292,-181L288,-179L285,-179L284,-176L277,-175L274,-176L269,-179L269,-184L269,-185L270,-188L274,-188L277,-189L277,-191L279,-191L279,-194L281,-195L283,-197L285,-197L286,-196L289,-198L293,-193L298,-196L302,-195L308,-197Z" fill="#E0E0E0" stroke="#fff" stroke-width=".4"/><path d="M253,-218L257,-214L263,-213L263,-209L267,-206L269,-210L274,-208L275,-204L281,-203L285,-197L283,-197L281,-195L279,-194L279,-191L277,-191L277,-189L274,-188L270,-188L269,-185L265,-188L261,-187L255,-191L252,-190L247,-185L241,-189L236,-195L232,-198L231,-203L230,-207L236,-210L239,-213L245,-216L247,-218L249,-217Z" fill="#E0E0E0" stroke="#fff" stroke-width=".4"/><path d="M433,160L432,157L435,144L436,138L439,135L445,134L449,129L454,139L457,147L461,151L473,160L477,165L482,170L484,173L489,175L486,177L482,176L480,174L476,169L472,166L470,163L463,159L457,159L455,157L450,160L445,156L443,162Z" fill="#E0E0E0" stroke="#fff" stroke-width=".4"/><path d="M563,120L570,135L573,141L567,143L565,147L565,150L557,154L543,158L536,164L532,164L529,164L524,167L519,169L512,170L510,170L508,172L506,173L505,175L500,175L498,176L492,176L490,171L490,166L489,163L487,157L485,153L486,153L485,149L486,147L486,143L490,141L489,137L491,133L495,135L497,134L507,134L508,135L516,136L519,135L521,138L525,137L531,127L539,123Z" fill="#E0E0E0" stroke="#fff" stroke-width=".4"/><path d="M420,25L430,26L433,23L435,20L442,18L443,15L446,13L438,4L454,-1L456,-3L466,-0L479,7L502,26L518,27L525,28L527,33L533,32L537,41L541,43L542,46L548,50L548,54L548,57L549,60L551,63L552,66L553,68L556,70L558,69L560,73L560,75L563,84L589,89L590,87L594,93L589,111L563,120L539,123L531,127L525,137L521,138L519,135L516,136L508,135L507,134L497,134L495,135L491,133L489,137L490,141L486,143L485,140L482,137L482,134L477,130L473,123L471,116L465,110L461,108L455,100L455,93L455,88L450,78L446,74L442,72L439,67L439,65L437,60L434,58L431,51L426,44L422,37L418,37L419,32L419,28Z" fill="#E0E0E0" stroke="#fff" stroke-width=".4"/><path d="M402,-33L402,-33L403,-35L410,-35L417,-38L411,-34L412,-32L411,-32L410,-32L408,-32L408,-31L408,-32L407,-33L406,-33L403,-32Z" fill="#E0E0E0" stroke="#fff" stroke-width=".4"/><path d="M402,-33L403,-32L406,-33L407,-33L408,-32L408,-31L408,-32L410,-32L411,-32L412,-32L412,-31L404,-27L400,-28L398,-32Z" fill="#E0E0E0" stroke="#fff" stroke-width=".4"/><path d="M109,-33L112,-27L112,-20L115,-10L117,-8L116,-4L105,-2L101,2L96,2L96,10L86,14L83,18L76,21L68,22L54,30L54,41L53,41L53,46L48,46L45,48L41,48L38,47L31,48L29,55L26,56L22,68L10,78L8,90L4,94L3,98L-16,98L-16,98L-16,94L-12,92L-10,87L-10,84L-7,78L-3,72L0,70L2,65L3,60L6,54L11,51L17,41L17,41L21,37L29,36L35,30L40,27L47,19L45,7L48,-2L49,-7L54,-14L63,-18L69,-22L74,-33L77,-39L83,-39L88,-35L96,-36L105,-33Z" fill="#E0E0E0" stroke="#fff" stroke-width=".4"/><path d="M436,93L403,93L371,93L337,93L337,59L337,26L334,18L336,12L335,8L338,3L349,3L357,5L366,8L370,10L376,7L380,4L387,3L393,4L395,9L397,6L404,8L410,9L415,6L419,21L420,23L418,27L416,34L414,39L412,41L409,38L405,34L399,20L398,21L402,31L407,40L413,55L416,60L419,65L427,76L425,77L425,83L435,91Z" fill="#E0E0E0" stroke="#fff" stroke-width=".4"/><path d="M337,93L337,111L327,111L327,115L294,98L260,80L252,85L246,89L241,84L228,80L224,74L217,70L213,71L210,66L210,62L205,56L208,52L208,46L209,41L208,36L210,28L209,24L207,15L211,13L211,9L210,5L216,1L219,-2L223,-5L223,-13L233,-9L237,-10L244,-8L255,-4L259,5L266,7L278,11L287,16L291,13L295,9L293,1L296,-4L302,-8L308,-10L319,-8L322,-3L325,-3L328,-1L336,-0L338,3L335,8L336,12L334,18L337,26L337,59Z" fill="#E0E0E0" stroke="#fff" stroke-width=".4"/><path d="M528,215L504,241L493,241L486,247L481,247L478,250L473,250L469,247L461,250L459,254L453,253L452,252L450,252L447,252L436,245L430,245L428,242L428,238L423,236L418,227L414,225L413,222L409,218L404,217L406,212L411,212L412,209L412,202L414,193L418,190L419,187L423,180L428,176L431,168L433,160L443,162L445,156L450,160L455,157L457,159L463,159L470,163L472,166L476,169L480,174L482,176L479,180L477,184L477,187L477,189L482,189L484,189L486,190L484,193L487,198L490,202L494,205L521,215Z" fill="#E0E0E0" stroke="#fff" stroke-width=".4"/><path d="M482,176L486,177L489,175L491,178L490,181L486,183L489,186L486,190L484,189L482,189L477,189L477,187L477,184L479,180Z" fill="#E0E0E0" stroke="#fff" stroke-width=".4"/><path d="M538,186L538,186L538,190L538,198L538,203L534,208L528,215L521,215L494,205L490,202L487,198L484,193L486,190L489,186L492,187L493,191L497,194L501,194L509,192L518,191L526,189L530,188L533,186Z" fill="#E0E0E0" stroke="#fff" stroke-width=".4"/><path d="M412,291L394,291L385,291L382,292L377,295L375,294L375,288L377,284L378,278L379,274L383,269L386,267L389,264L385,263L386,253L389,251L395,253L401,251L407,251L412,247L416,253L417,257L421,267L418,273L414,278L411,282Z" fill="#E0E0E0" stroke="#fff" stroke-width=".4"/><path d="M382,292L386,297L385,302L383,303L378,302L376,307L371,306L371,302L373,301L373,296L375,294L377,295Z" fill="#E0E0E0" stroke="#fff" stroke-width=".4"/><path d="M283,-114L275,-118L272,-123L269,-126L265,-130L263,-134L259,-139L261,-144L264,-141L266,-144L270,-144L277,-142L283,-142L286,-140L289,-140L287,-135L291,-130L290,-125L288,-124L287,-123L284,-120Z" fill="#E0E0E0" stroke="#fff" stroke-width=".4"/><path d="M315,-110L319,-107L320,-99L318,-99L317,-97L312,-97L309,-95L303,-94L300,-96L299,-101L300,-105L301,-105L301,-107L306,-109L308,-109L311,-110Z" fill="#E0E0E0" stroke="#fff" stroke-width=".4"/><path d="M285,-152L291,-155L297,-155L301,-150L302,-146L307,-143L308,-139L313,-135L315,-138L318,-136L316,-134L317,-132L315,-130L316,-125L320,-120L317,-117L315,-113L316,-112L315,-110L311,-110L308,-109L308,-110L309,-112L310,-114L309,-114L307,-116L306,-117L304,-119L303,-119L302,-121L300,-120L299,-117L297,-116L298,-117L294,-119L292,-120L290,-122L288,-124L290,-125L291,-130L287,-135L289,-140L286,-140L290,-144L287,-148Z" fill="#E0E0E0" stroke="#fff" stroke-width=".4"/><path d="M295,-113L293,-112L293,-114L289,-109L290,-105L288,-106L285,-110L282,-112L283,-114L284,-120L287,-123L288,-124L290,-122L292,-120L294,-119L298,-117L297,-116Z" fill="#E0E0E0" stroke="#fff" stroke-width=".4"/><path d="M300,-105L299,-109L297,-110L295,-113L297,-116L299,-117L300,-120L302,-121L303,-119L304,-119L306,-117L307,-116L309,-114L310,-114L309,-112L308,-110L308,-109L306,-109L301,-107L301,-105Z" fill="#E0E0E0" stroke="#fff" stroke-width=".4"/><path d="M386,253L378,248L376,244L372,246L368,245L366,247L362,246L357,239L355,236L349,233L347,228L343,224L338,219L338,217L333,213L327,210L330,209L333,207L335,200L337,196L343,195L345,197L349,202L352,203L355,201L361,202L362,203L370,203L370,202L375,200L376,198L379,196L386,201L390,200L394,194L399,189L398,184L396,181L401,181L402,179L406,180L405,186L406,192L410,195L411,198L411,203L412,203L412,209L411,212L406,212L404,217L409,218L413,222L414,225L418,227L423,236L418,242L412,247L407,251L401,251L395,253L389,251Z" fill="#E0E0E0" stroke="#fff" stroke-width=".4"/></g><g clip-path="url(#v)"><path d="M413.0,202.8L413.0,202.8L411.4,202.8L411.4,202.8L411.4,202.8L411.3,202.7L411.3,202.7L411.3,202.4L411.2,202.1L411.3,201.4L411.5,200.6L412.0,199.5L412.0,199.5L412.0,199.4L412.0,199.4L412.0,199.2L411.9,199.0L411.9,198.7L412.0,198.2L412.0,198.0L412.0,197.8L411.9,197.6L411.6,196.7L411.4,196.5L407.8,193.5L407.1,192.7L407.1,192.7L407.0,192.6L405.1,191.9L405.0,191.9L405.1,191.8L405.1,191.6L405.3,191.2L405.4,191.1L405.4,191.0L404.5,184.6L404.5,184.5L404.6,184.4L404.6,184.4L404.7,184.2L404.9,184.1L404.9,183.9L405.0,183.8L405.1,182.6L405.1,181.6L405.6,180.0L405.6,179.3L401.6,179.2L401.6,179.2L401.6,179.3L401.6,179.3L401.6,179.4L401.6,179.5L401.6,179.7L401.6,179.8L401.6,179.9L401.6,180.3L401.7,180.6L401.7,180.7L401.7,180.8L401.7,181.0L396.1,181.1L398.4,183.6L398.4,183.6L398.4,183.7L398.4,183.9L398.5,184.7L398.4,186.1L398.4,187.0L398.5,187.6L399.1,188.7L399.1,188.9L399.0,189.2L395.0,192.6L394.9,192.7L394.3,194.1L393.8,195.0L393.6,195.2L392.6,196.4L389.0,199.9L388.4,200.2L386.7,200.3L385.7,200.3L385.6,200.3L385.4,200.4L385.3,200.5L385.2,200.6L385.1,200.5L385.0,200.4L382.8,198.4L378.8,195.9L378.4,196.1L376.2,197.2L375.7,197.5L375.4,197.7L375.4,198.9L375.1,199.5L374.3,200.2L372.4,200.6L371.4,201.0L370.4,201.6L370.2,201.7L369.8,202.1L369.0,202.8L368.9,203.4L369.1,204.0L362.4,204.0L361.9,203.5L361.0,201.6L361.0,201.6L360.3,201.7L354.2,201.5L353.3,201.7L351.6,202.5L350.7,202.6L349.8,202.3L346.6,198.5L345.9,198.1L345.6,197.8L345.2,197.2L344.5,196.8L344.3,196.5L344.2,196.1L344.2,195.3L344.0,194.8L343.5,194.6L339.2,195.5L338.6,195.4L337.7,195.6L337.3,195.7L337.0,196.2L336.9,196.7L336.9,197.3L336.8,197.8L336.5,198.3L335.2,199.6L335.0,200.2L335.0,201.5L334.9,202.3L334.8,202.6L334.3,203.1L334.0,203.4L333.9,203.9L333.9,204.8L333.8,205.2L333.2,206.3L333.0,206.7L333.0,207.5L332.9,207.7L330.9,208.3L330.2,208.7L329.7,209.3L329.6,209.6L328.8,209.4L327.7,209.2L325.7,209.0L324.9,208.7L324.5,208.3L324.6,207.2L324.4,207.0L324.1,206.8L323.9,206.3L323.9,205.8L325.0,204.5L325.2,203.8L325.4,201.5L325.5,200.7L325.4,199.7L324.6,198.0L323.8,196.8L322.6,194.9L322.1,194.3L319.7,191.8L319.4,191.4L318.8,190.4L319.1,189.4L319.5,188.0L319.5,187.4L319.4,186.7L318.7,186.2L318.2,186.2L317.9,185.9L317.4,185.6L317.0,185.3L316.6,184.7L316.3,184.0L316.5,181.2L316.3,180.8L315.7,180.7L315.6,180.5L315.6,180.0L315.2,178.4L314.9,177.1L315.1,176.4L314.5,175.4L313.5,175.0L312.6,175.2L311.6,175.4L311.0,175.3L310.6,175.1L310.3,174.8L310.1,174.3L310.3,173.7L310.8,172.5L311.5,171.6L312.9,170.7L313.3,170.2L313.5,169.7L313.5,169.1L313.5,168.5L313.3,167.9L312.9,167.1L312.5,166.2L312.5,165.6L312.7,165.2L313.1,164.7L313.8,164.1L314.0,164.0L314.5,163.6L314.8,163.4L315.9,162.8L316.1,162.5L316.0,162.1L315.8,161.8L315.4,161.4L315.3,160.9L315.2,160.1L315.0,159.5L314.8,159.1L315.1,158.8L315.5,158.4L316.1,158.2L316.9,157.9L317.2,157.6L317.3,157.1L317.3,156.5L317.6,156.1L318.0,155.2L318.3,154.8L318.9,154.4L319.4,153.8L319.7,153.2L319.7,152.5L319.4,150.6L320.1,149.8L320.9,149.1L322.0,149.1L323.9,149.0L325.1,148.7L325.9,148.7L327.9,149.1L328.1,149.0L328.1,148.9L328.2,148.4L328.2,147.1L328.2,143.2L328.2,139.3L328.2,135.4L328.2,131.5L328.2,127.5L328.2,123.6L328.2,119.7L328.2,115.7L328.2,114.6L328.2,113.5L328.2,112.3L328.2,111.2L330.3,111.2L332.4,111.2L334.4,111.2L336.5,111.2L336.5,111.2L336.5,111.2L336.6,111.2L336.6,111.2L336.6,106.7L336.6,102.2L336.6,97.7L336.6,93.2L339.8,93.2L343.0,93.2L346.2,93.2L349.5,93.2L352.7,93.2L355.9,93.2L359.1,93.2L362.3,93.2L365.5,93.2L368.7,93.2L371.9,93.2L375.1,93.2L378.3,93.2L381.5,93.2L384.7,93.3L387.9,93.3L388.9,93.3L389.3,93.2L390.2,91.5L390.5,91.4L391.0,91.5L391.3,91.9L391.1,92.4L390.8,93.2L392.4,93.2L395.1,93.2L397.9,93.2L400.6,93.2L403.4,93.2L406.1,93.2L408.9,93.2L411.6,93.2L414.4,93.2L417.2,93.2L419.9,93.2L422.7,93.2L425.4,93.2L428.2,93.2L430.9,93.2L433.7,93.2L436.4,93.2L436.6,95.3L436.9,97.0L438.2,99.3L439.3,100.6L439.7,101.3L439.7,101.6L439.7,101.9L439.4,101.5L438.8,101.3L438.7,102.4L438.9,103.2L439.0,104.6L439.4,106.2L439.1,107.7L439.2,110.1L439.7,113.1L439.6,114.9L440.6,119.3L441.5,121.7L442.0,122.3L442.6,122.6L443.7,122.8L445.3,124.0L446.6,125.3L447.0,126.0L447.6,126.7L448.0,126.6L448.3,126.4L448.7,127.0L450.7,128.3L451.0,128.9L450.3,129.5L449.5,130.5L449.2,130.9L449.2,131.1L449.1,131.5L448.8,131.7L448.3,132.2L448.2,132.3L448.0,132.6L447.8,132.8L447.4,132.8L447.2,132.9L446.7,133.1L446.1,133.0L445.5,133.2L445.3,133.4L444.8,133.6L444.3,133.7L444.1,133.7L443.6,134.1L443.1,134.5L442.4,134.8L442.1,134.9L441.8,135.2L441.3,136.8L441.0,137.2L440.4,137.3L439.6,137.3L438.9,137.4L438.0,137.2L437.6,137.2L437.5,137.6L437.3,138.9L437.3,139.5L437.0,140.2L436.6,141.0L436.7,142.5L436.8,143.9L436.1,146.1L435.9,146.6L435.2,148.3L434.8,148.9L433.9,152.1L433.5,153.1L432.7,154.1L432.9,155.7L433.1,157.5L433.3,159.2L433.5,161.7L432.9,164.0L432.9,165.3L432.4,167.1L432.1,168.0L431.7,168.5L431.4,169.0L430.9,170.2L430.5,171.7L430.3,173.3L430.3,174.2L430.2,174.6L430.0,174.9L429.0,175.1L427.6,175.2L426.9,175.4L426.4,175.8L425.7,176.5L424.5,178.5L423.9,179.8L422.9,181.5L421.7,182.7L421.4,183.3L421.2,184.4L420.8,186.1L420.4,187.3L420.5,188.3L420.1,190.0L420.2,190.9L419.8,191.3L419.2,191.8L418.8,191.9L418.0,191.4L417.4,190.9L417.2,190.7L416.6,191.0L416.0,191.5L415.2,192.6L414.6,193.7L415.0,196.1L414.9,196.6L414.8,197.2L413.9,198.9L413.7,199.5L413.3,200.5L413.0,202.4Z" fill="#4ECDC4" stroke="#2C3E50" stroke-width="1"/></g><circle cx="400.0" cy="150.0" r="4" fill="#E74C3C" stroke="#fff" stroke-width="2"/><text x="400.0" y="140.0" text-anchor="middle" font-family="sans-serif" font-weight="700" font-size="10" fill="#2D3436">Khartoum</text></svg>