<svg viewBox="0 0 800 300" xmlns="http://www.w3.org/2000/svg"><defs><clipPath id="v"><rect width="800" height="300"/></clipPath></defs><rect width="800" height="300" fill="#DCEEF8"/><g clip-path="url(#v)"><path d="M463,449L464,449L478,457L478,460L484,464L482,469L482,471L485,472L485,473L484,476L484,477L484,479L485,481L487,485L489,486L485,489L481,490L479,490L477,491L474,491L473,492L469,491L466,491L465,486L463,484L462,483L458,482L456,481L454,480L452,479L450,478L448,473L446,471L445,469L446,467L445,463L446,463L448,461L449,459L450,458L450,457L450,456L449,455L450,454L451,452L449,450L451,449L455,449Z" fill="#E0E0E0" stroke="#fff" stroke-width=".4"/><path d="M294,330L294,331L294,332L294,338L280,338L281,349L277,350L276,352L277,358L261,358L260,359L260,358L260,358L269,357L270,356L271,354L273,348L278,343L280,338L281,337L283,334L286,333L288,334L289,334L291,333L293,333L293,330Z" fill="#E0E0E0" stroke="#fff" stroke-width=".4"/><path d="M-161,221L-161,221L-169,215L-172,212L-179,209L-181,204L-181,200L-186,197L-186,192L-191,187L-191,183L-189,180L-189,175L-196,171L-200,162L-203,157L-206,154L-209,150L-211,146L-215,149L-219,153L-222,148L-225,145L-229,143L-233,142L-233,92L-233,53L-226,55L-219,61L-215,62L-212,57L-207,54L-201,55L-195,50L-188,47L-186,52L-183,49L-182,44L-179,45L-172,55L-167,47L-166,56L-162,54L-160,51L-155,52L-149,56L-140,61L-134,62L-131,62L-125,67L-131,73L-124,75L-113,74L-109,72L-105,78L-101,73L-105,68L-102,64L-98,64L-94,63L-91,66L-87,71L-83,71L-76,75L-69,74L-64,74L-64,67L-61,65L-54,69L-54,79L-52,71L-49,71L-47,60L-51,53L-56,48L-55,35L-51,26L-46,28L-42,33L-36,47L-40,53L-32,55L-32,66L-27,58L-22,65L-23,73L-20,80L-15,72L-12,63L-12,51L-7,52L-1,53L5,59L5,64L2,70L5,76L4,81L-4,88L-9,89L-13,86L-14,91L-18,100L-19,104L-24,110L-30,110L-33,114L-33,120L-38,121L-43,128L-47,137L-48,144L-49,153L-43,154L-41,161L-39,167L-34,165L-26,169L-22,171L-19,175L-14,177L-10,180L-4,180L1,181L0,187L1,194L4,201L10,207L13,205L15,198L13,188L10,184L17,181L21,176L24,171L23,166L20,160L16,154L20,146L19,139L17,126L20,124L27,126L31,127L34,125L38,127L43,132L44,136L51,136L51,143L52,153L56,154L59,159L65,154L68,146L71,142L74,149L79,159L84,168L82,172L87,176L91,180L97,182L100,184L102,190L105,191L106,194L107,201L104,203L101,206L94,208L89,213L82,214L74,213L68,213L64,213L61,218L55,220L50,228L45,234L49,233L55,225L63,220L69,219L73,222L69,226L70,233L72,237L77,240L83,239L87,233L88,237L90,239L85,243L76,246L72,248L68,252L65,252L65,247L72,242L65,243L61,243L58,240L58,232L57,230L54,231L53,230L50,234L48,239L47,241L45,242L44,243L44,244L36,244L30,244L28,245L24,249L24,250L22,252L19,252L15,252L13,253L14,254L14,255L14,256L9,259L5,259L0,262L-1,262L-2,261L-3,261L-3,260L-2,258L0,255L1,252L0,247L-0,242L-5,239L-4,238L-5,238L-6,238L-7,237L-7,235L-8,236L-9,236L-8,235L-9,235L-10,233L-13,231L-16,229L-20,227L-24,225L-27,227L-28,227L-33,225L-37,226L-40,224L-45,223L-47,223L-49,222L-49,218L-51,218L-51,221L-59,221L-72,221L-86,221L-98,221L-110,221L-122,221L-134,221L-138,221L-149,221ZM-6,124L-3,120L2,121L2,122L-2,127L-5,127ZM11,14L6,7L6,2L8,1L17,3L24,10L25,14L20,14L16,13L12,15ZM8,128L10,125L12,125L13,127L11,131L9,131L8,128ZM-44,-17L-47,-11L-52,-12L-57,-16L-55,-23L-49,-27L-46,-22ZM-45,-60L-47,-59L-55,-60L-56,-66L-48,-65L-45,-62ZM-57,-84L-52,-77L-53,-70L-59,-66L-62,-70L-64,-78L-64,-86L-59,-85ZM-23,-8L-29,-10L-40,-15L-41,-23L-42,-31L-46,-39L-54,-41L-58,-46L-57,-53L-49,-52L-44,-46L-36,-46L-33,-41L-34,-34L-29,-31L-27,-27L-21,-26L-16,-25L-9,-28L-1,-30L5,-29L10,-23L10,-16L8,-12L2,-9L-3,-11L-15,-8ZM-115,-72L-109,-69L-110,-63L-118,-58L-124,-64L-120,-70ZM-113,-85L-108,-80L-113,-77L-120,-77L-120,-79L-116,-86ZM107,206L105,210L102,216L105,214L107,215L106,217L109,219L111,217L115,219L114,224L117,223L117,226L119,229L117,235L115,235L112,234L113,229L112,228L108,233L105,233L108,230L104,229L100,229L92,229L92,227L94,225L92,224L96,220L100,210L102,206L106,204L108,205ZM-6,100L-1,104L3,107L4,111L6,110L9,113L6,116L-0,114L-3,110L-7,115L-12,119L-14,114L-19,115L-16,110L-15,103L-14,94L-11,95L-10,99L-8,98ZM15,20L18,15L27,22L33,28L33,33L41,30L45,38L54,43L58,48L62,59L54,64L64,71L70,73L76,83L82,83L81,90L74,102L69,97L63,88L57,89L57,95L61,100L67,105L68,107L71,116L69,123L64,120L54,113L60,121L64,126L65,129L54,125L45,120L41,116L42,114L36,109L30,105L30,107L19,109L15,106L18,99L26,98L34,97L32,94L34,89L39,79L38,74L36,71L30,66L22,62L25,59L21,52L17,51L14,47L12,51L5,52L-10,50L-18,46L-25,44L-28,40L-24,35L-30,35L-31,22L-28,10L-24,4L-13,0L-16,9L-13,18L-10,7L1,1L7,15L7,24ZM-48,-4L-40,-4L-32,-0L-38,12L-43,15L-47,25L-52,24L-54,12L-54,6L-52,-0ZM-161,-35L-154,-48L-146,-60L-140,-59L-134,-62L-135,-48L-138,-42L-142,-41L-149,-34L-155,-32ZM-200,188L-196,188L-197,195L-194,201L-196,201L-198,198L-199,195L-201,193L-202,190L-202,188ZM-92,-95L-84,-92L-73,-85L-70,-75L-69,-67L-75,-69L-82,-75L-90,-76L-87,-82L-91,-87ZM-163,224L-165,224L-172,222L-173,220L-177,217L-177,216L-181,215L-183,211L-183,210L-179,211L-176,212L-172,213L-171,215L-169,218L-165,220ZM-156,-9L-150,-6L-140,-5L-136,-1L-132,5L-137,9L-146,18L-151,27L-151,33L-162,39L-164,33L-173,27L-171,21L-169,11L-165,2L-169,-7ZM-101,-31L-97,-33L-93,-33L-93,-25L-95,-17L-108,-15L-118,-9L-125,-8L-125,-13L-117,-20L-135,-18L-140,-21L-135,-37L-131,-41L-120,-36L-113,-26L-106,-25L-112,-40L-108,-47L-104,-45L-103,-37ZM-96,11L-91,16L-89,29L-88,37L-81,43L-74,49L-74,54L-81,55L-78,59L-80,63L-87,62L-94,59L-98,59L-106,63L-116,65L-123,66L-125,61L-130,58L-134,59L-139,50L-136,49L-130,47L-124,47L-119,45L-127,42L-135,43L-141,43L-143,39L-134,34L-140,34L-147,30L-144,21L-141,16L-130,7L-126,10L-128,16L-119,12L-114,19L-109,12L-106,17L-102,29L-100,24L-103,10L-100,8ZM-72,16L-76,7L-71,-0L-67,3L-59,1L-58,5L-62,12L-56,18L-57,29L-63,34L-67,33L-70,28L-80,18L-80,14ZM-96,3L-91,3L-88,6L-91,15L-97,5ZM-64,-45L-61,-37L-61,-29L-63,-17L-69,-16L-73,-18L-73,-27L-80,-26L-80,-39L-76,-38L-70,-44L-64,-43ZM-54,-125L-51,-132L-47,-134L-49,-140L-40,-141L-35,-128L-28,-122L-21,-118L-18,-103L-13,-96L-19,-89L-26,-74L-33,-73L-41,-75L-46,-83L-46,-91L-43,-97L-50,-97L-54,-104L-57,-114ZM-36,-159L-30,-164L-26,-165L-18,-170L-12,-181L-7,-179L-3,-171L0,-188L5,-193L13,-196L25,-198L27,-194L38,-200L47,-198L56,-196L66,-193L75,-189L82,-180L82,-172L72,-159L62,-154L59,-148L68,-148L58,-132L52,-125L45,-106L37,-102L34,-98L22,-95L28,-93L25,-89L28,-79L24,-72L18,-67L16,-59L11,-54L11,-50L18,-51L18,-46L8,-36L-3,-41L-15,-38L-21,-40L-28,-41L-29,-49L-21,-53L-23,-67L-21,-68L-10,-60L-15,-72L-22,-76L-19,-84L-12,-89L-11,-96L-16,-105L-18,-116L-7,-115L-4,-113L2,-121L-7,-124L-20,-123L-28,-131L-31,-141L-35,-149ZM29,77L26,80L22,81L21,76L22,70L26,68L29,71L29,76ZM-55,55L-53,59L-55,63L-60,60L-64,61L-69,56L-66,53L-63,48L-59,51L-56,53ZM71,215L73,215L78,216L82,219L82,220L80,220L75,218ZM73,232L75,235L78,236L81,236L79,238L78,239L73,236L72,234Z" fill="#E0E0E0" stroke="#fff" stroke-width=".4"/><path d="M-161,221L-149,221L-138,221L-134,221L-122,221L-110,221L-98,221L-86,221L-72,221L-59,221L-51,221L-51,218L-49,218L-49,222L-47,223L-45,223L-40,224L-37,226L-33,225L-28,227L-27,227L-24,225L-20,227L-16,229L-13,231L-10,233L-9,235L-8,235L-9,236L-8,236L-7,235L-7,237L-6,238L-5,238L-4,238L-5,239L-0,242L0,247L1,252L0,255L-2,258L-3,260L-3,261L-2,261L-1,262L0,262L5,259L9,259L14,256L14,255L14,254L13,253L15,252L19,252L22,252L24,250L24,249L28,245L30,244L36,244L44,244L44,243L45,242L47,241L48,239L50,234L53,230L54,231L57,230L58,232L58,240L61,243L62,245L57,248L53,250L49,251L47,255L46,256L46,259L48,262L49,262L49,260L50,261L50,262L47,263L45,263L42,264L40,264L38,265L35,266L41,265L42,266L36,268L34,268L34,267L33,269L34,269L33,273L30,277L30,275L29,275L28,274L28,276L29,277L29,279L28,281L26,285L26,285L27,282L25,280L24,275L24,278L24,281L22,280L24,282L25,286L26,287L26,289L27,293L24,297L20,299L17,301L15,302L13,303L13,305L9,308L6,310L4,313L4,316L5,320L6,323L8,327L8,329L10,334L9,337L9,339L8,341L7,342L5,341L4,339L3,338L1,335L-1,331L-2,329L-1,326L-2,324L-5,320L-7,319L-11,321L-11,321L-13,319L-16,318L-20,318L-24,318L-27,318L-28,319L-28,320L-28,322L-27,323L-28,324L-29,323L-31,324L-34,324L-37,321L-40,322L-43,321L-45,321L-49,322L-52,326L-56,327L-58,330L-59,332L-59,335L-59,337L-58,338L-60,338L-63,338L-66,336L-67,334L-68,331L-70,328L-72,326L-74,323L-76,321L-80,321L-82,324L-86,323L-88,322L-89,319L-90,317L-92,315L-94,313L-96,312L-103,312L-103,314L-106,314L-114,314L-123,310L-129,308L-128,307L-133,308L-138,308L-139,306L-141,303L-143,302L-144,301L-146,301L-147,299L-151,299L-152,298L-152,295L-156,290L-160,284L-159,282L-161,281L-164,276L-165,272L-167,269L-166,265L-166,260L-167,256L-166,251L-165,246L-165,241L-166,233L-167,228L-168,226L-168,224L-162,226L-160,232L-159,230L-159,226ZM-290,363L-290,364L-289,364L-288,366L-288,366L-290,367L-291,368L-291,368L-292,368L-292,367L-293,365L-293,365L-292,364L-292,363L-292,363L-292,363ZM-293,360L-293,361L-294,361L-295,360L-295,360L-296,360L-295,359L-294,360ZM-296,359L-296,359L-298,359L-298,359ZM-301,356L-300,357L-299,358L-299,358L-300,358L-301,358L-302,357L-302,357ZM-306,354L-306,355L-306,356L-308,355L-308,355L-307,354ZM-334,142L-331,142L-331,145L-333,147L-336,145L-338,143ZM-282,160L-279,161L-277,163L-281,167L-285,170L-287,168L-287,164L-284,162ZM-233,53L-233,92L-233,142L-229,143L-225,145L-222,148L-219,153L-215,149L-211,146L-209,150L-206,154L-203,157L-200,162L-196,171L-189,175L-189,180L-191,183L-194,181L-197,178L-198,172L-203,166L-205,159L-209,159L-216,159L-220,156L-228,148L-232,147L-239,144L-245,145L-253,141L-257,138L-262,139L-261,145L-263,145L-268,147L-271,150L-276,151L-276,147L-274,139L-270,136L-271,134L-276,139L-279,144L-285,150L-282,154L-286,159L-290,162L-294,164L-295,168L-301,171L-302,175L-307,178L-310,177L-313,179L-318,182L-321,184L-328,186L-328,185L-324,182L-320,179L-316,176L-311,175L-309,172L-303,167L-302,166L-300,163L-299,158L-297,153L-301,156L-303,154L-305,157L-307,153L-309,156L-310,152L-314,155L-316,155L-317,150L-316,148L-319,145L-324,146L-327,143L-330,141L-330,136L-333,133L-331,128L-328,123L-327,118L-324,118L-321,119L-318,115L-315,116L-312,113L-312,109L-315,107L-312,104L-314,104L-318,106L-320,108L-323,106L-328,107L-334,104L-336,101L-341,95L-335,91L-326,86L-323,86L-324,91L-315,91L-319,85L-323,81L-326,76L-330,71L-336,68L-333,62L-326,62L-321,57L-320,51L-316,45L-312,44L-305,39L-301,40L-295,33L-289,36L-286,41L-284,39L-278,39L-278,42L-272,44L-268,43L-259,47L-252,48L-249,49L-243,48L-237,51ZM-355,113L-353,114L-350,114L-347,116L-343,117L-344,118L-347,120L-350,118L-351,116L-355,117L-356,116Z" fill="#E0E0E0" stroke="#fff" stroke-width=".4"/><path d="M676,219L673,223L669,224L669,230L667,233L659,231L656,241L654,242L646,244L650,254L647,256L647,259L645,258L643,256L637,255L631,255L629,256L623,253L621,255L621,258L614,256L611,257L610,259L608,260L603,264L601,268L600,268L599,265L594,265L593,261L591,261L591,255L586,251L580,252L575,252L571,247L568,245L562,241L561,241L551,244L551,264L549,264L546,260L543,259L539,260L537,262L537,260L538,258L537,256L532,254L531,249L528,248L528,246L532,247L532,243L536,242L539,243L540,237L539,233L535,234L532,232L527,235L523,236L521,235L522,232L519,228L516,228L513,224L515,220L514,219L517,212L521,215L522,211L530,204L536,204L545,208L550,211L554,208L560,208L565,211L567,209L572,210L573,207L567,202L571,199L570,197L574,196L571,191L573,189L587,186L589,185L599,182L603,179L610,181L611,188L616,186L621,188L620,192L624,192L634,185L633,187L638,193L647,209L649,206L654,209L660,208L662,209L664,213L667,214L668,216L674,216Z" fill="#E0E0E0" stroke="#fff" stroke-width=".4"/><path d="M551,264L551,244L561,241L562,241L568,245L571,247L575,252L580,252L586,251L591,255L591,261L593,261L594,265L599,265L600,268L601,268L603,264L608,260L610,259L612,260L608,263L611,265L614,264L619,267L614,270L611,270L609,270L608,268L609,266L604,267L603,271L601,273L597,273L596,275L599,277L600,280L598,286L595,285L593,284L593,281L588,279L583,277L581,274L576,271L574,265L573,264L569,265L567,264L567,259L561,256L558,260L555,261L555,264Z" fill="#E0E0E0" stroke="#fff" stroke-width=".4"/><path d="M889,455L896,458L903,460L906,462L908,464L909,467L916,469L917,471L913,472L914,474L917,477L920,481L922,481L922,483L925,484L924,484L928,486L928,487L925,488L924,487L921,486L917,486L914,483L911,481L909,477L904,475L901,477L898,478L899,481L896,482L893,482L889,481L889,468ZM936,460L937,461L937,463L936,464L936,462L935,460L933,459L931,457L928,456L929,455L931,456L932,457L934,458ZM930,468L928,469L926,470L924,470L921,469L918,468L919,467L922,467L924,467L925,465L926,465L926,467L928,467L929,465L932,464L931,462L933,462L934,462L934,464L933,467L931,467ZM944,466L945,467L947,470L949,471L948,472L947,473L946,471L944,469L943,465L944,465Z" fill="#E0E0E0" stroke="#fff" stroke-width=".4"/><path d="M889,455L889,468L889,481L886,478L882,477L881,478L876,479L877,475L880,474L879,470L877,466L869,463L866,463L860,459L859,461L857,461L856,460L856,458L853,456L858,455L860,455L860,454L854,454L853,451L849,451L847,449L853,448L855,446L861,448L862,450L863,456L867,458L870,454L875,452L879,452L882,453L885,455ZM825,481L826,481L826,483L823,486L820,486L819,486L820,485L821,482ZM862,472L862,469L862,468L863,467L864,468L864,470ZM797,429L795,432L798,436L797,438L802,441L797,442L796,445L796,448L792,451L792,455L790,461L790,460L785,461L784,459L781,459L779,457L774,459L773,457L770,457L767,457L766,451L764,450L762,447L762,443L762,440L764,437L765,440L768,442L770,441L773,441L775,439L777,439L781,440L784,439L786,434L788,432L789,428L794,428ZM843,456L847,457L849,460L845,459L842,458L840,459L837,458L838,456ZM833,460L830,459L829,458L833,457L834,459ZM837,436L837,439L840,439L840,440L840,444L838,444L837,446L839,448L838,449L836,446L835,441L836,438ZM817,442L822,441L826,438L826,439L823,443L820,444L816,443L810,443L806,444L806,447L809,451L811,449L819,447L819,449L817,449L815,451L812,453L815,458L815,459L818,464L818,466L816,467L815,466L816,463L813,464L812,463L812,462L809,459L809,455L807,457L807,461L807,467L805,468L803,466L804,463L804,459L802,459L801,456L802,454L803,450L805,444L806,443L809,440L812,441ZM807,486L802,483L805,482L807,484L809,485L808,486ZM811,479L814,479L817,477L817,480L811,481L805,480L805,479L808,478ZM799,478L801,478L802,480L798,481L795,481L793,481L794,479L796,479L797,477ZM760,471L760,472L768,472L769,471L776,473L778,475L784,476L789,478L784,480L780,478L776,478L772,478L768,477L764,476L761,475L759,476L752,474L751,473L747,472L750,468L755,469L758,470ZM743,449L744,452L745,454L748,455L750,457L749,462L749,468L745,468L741,465L736,462L735,459L732,456L730,453L727,448L723,444L722,441L720,438L717,435L715,432L712,430L708,425L707,423L710,423L716,424L720,428L723,431L725,432L729,437L733,437L736,439L738,443L741,445L740,448L742,449Z" fill="#E0E0E0" stroke="#fff" stroke-width=".4"/><path d="M445,463L446,467L445,469L446,471L448,473L450,478L449,478L444,479L442,479L441,482L442,483L441,488L441,492L442,493L445,495L446,494L446,498L443,498L442,496L440,494L437,494L436,492L434,493L431,492L429,490L427,490L425,490L425,489L423,489L421,488L419,489L417,489L416,489L416,485L415,483L415,481L415,478L415,477L415,474L410,474L410,473L408,473L408,473L405,474L404,476L404,477L402,476L400,477L398,477L396,475L395,474L394,471L393,468L381,468L380,469L379,469L377,469L377,468L378,468L378,466L378,465L380,464L381,464L382,463L384,463L385,464L386,465L388,462L391,460L392,459L392,456L393,452L395,450L398,448L398,447L398,445L399,444L399,442L399,438L400,436L401,433L402,431L402,428L403,426L406,425L409,426L411,428L414,428L417,429L418,427L419,426L421,427L425,425L427,425L428,425L429,424L430,424L433,424L436,425L437,424L439,427L441,428L442,427L444,428L446,427L447,428L451,431L451,436L452,436L451,438L449,439L448,441L447,443L447,446L446,447L446,450L445,451L445,454L444,454L444,456L445,458Z" fill="#E0E0E0" stroke="#fff" stroke-width=".4"/><path d="M494,452L491,448L491,434L495,429L496,428L498,428L502,425L507,425L518,413L521,410L523,407L523,405L523,401L523,399L523,399L524,399L526,399L528,398L530,397L531,397L532,398L531,400L531,402L530,404L529,408L527,413L525,418L521,424L518,428L513,434L509,437L503,441L500,444L495,449L494,451Z" fill="#E0E0E0" stroke="#fff" stroke-width=".4"/><path d="M484,464L478,460L478,457L464,449L463,449L463,445L464,443L466,440L468,437L466,433L465,431L463,428L466,426L469,423L471,424L471,426L472,427L475,427L480,431L481,431L482,431L483,431L486,431L487,430L490,428L492,429L495,429L491,434L491,448L494,452L491,453L490,455L488,455L488,458L486,460L486,462Z" fill="#E0E0E0" stroke="#fff" stroke-width=".4"/><path d="M426,412L423,410L421,409L421,408L422,406L422,405L420,402L419,400L419,399L418,398L418,396L417,394L415,394L416,393L417,391L416,390L418,388L417,387L418,385L420,382L423,382L423,366L423,364L428,364L428,355L444,355L459,355L475,355L476,359L475,360L476,365L477,370L479,371L481,372L479,375L476,375L475,377L474,379L473,385L473,387L472,391L471,395L468,397L467,400L466,401L464,402L463,407L463,410L463,407L463,407L463,405L462,404L460,402L460,399L460,396L458,396L458,397L456,397L457,398L457,401L455,403L453,406L451,406L447,404L446,405L446,406L443,407L443,407L439,407L439,407L436,406L435,407L433,407L431,404L431,403L428,404L427,406L426,409L424,410L423,411Z" fill="#E0E0E0" stroke="#fff" stroke-width=".4"/><path d="M423,366L423,382L420,382L418,385L417,387L418,388L416,390L417,391L416,393L415,394L417,394L418,396L418,398L419,399L419,400L417,401L415,403L412,407L408,409L404,409L403,409L403,411L401,412L400,413L395,415L394,414L393,414L392,415L389,415L390,414L388,412L388,410L386,409L384,407L384,405L386,405L387,405L390,405L387,401L388,399L387,396L386,393L386,391L384,391L384,389L382,387L384,382L389,378L389,372L391,364L391,362L390,361L390,359L388,358L387,351L391,349L407,357Z" fill="#E0E0E0" stroke="#fff" stroke-width=".4"/><path d="M43,365L43,367L43,369L42,370L43,371L43,372L40,371L38,372L36,371L34,372L32,371L32,369L36,370L39,370L40,369L38,368L38,366L36,365L37,364L39,364Z" fill="#E0E0E0" stroke="#fff" stroke-width=".4"/><path d="M43,372L43,371L42,370L43,369L43,367L43,365L43,364L46,364L49,365L50,365L50,367L53,367L53,368L54,368L56,370L55,371L53,370L51,371L50,370L49,371L47,371L47,370L46,371L44,374L43,373Z" fill="#E0E0E0" stroke="#fff" stroke-width=".4"/><path d="M701,-135L710,-141L718,-128L727,-105L726,-86L717,-84L706,-90L699,-98L696,-114L691,-118ZM737,-95L747,-83L746,-75L724,-67L731,-94L734,-96ZM881,-35L891,-35L905,-26L902,-15L888,-15L881,-11L873,-21L875,-32ZM918,-23L928,-19L923,-13L917,-14L910,-20L911,-25ZM885,7L888,1L893,-0L899,5L900,9L894,9L885,7ZM507,-124L514,-129L520,-129L521,-123L523,-128L527,-133L533,-127L532,-123L526,-120L523,-118L522,-115L517,-111L513,-116L515,-124ZM419,186L411,187L406,186L407,183L413,181L417,182L419,183L418,185ZM541,1L551,-12L549,-19L558,-27L572,-37L585,-41L592,-47L599,-49L602,-42L599,-37L585,-29L573,-21L561,-7L555,7L549,20L549,31L557,41L555,42L542,40L541,35L533,32L533,25L537,22L537,15L545,3ZM897,191L898,197L898,203L900,210L904,221L898,219L895,228L899,234L899,238L896,234L894,239L893,234L893,228L893,222L894,217L894,209L892,202L892,193L896,190L894,187L896,186ZM-388,61L-388,61L-378,69L-368,80L-368,86L-366,89L-367,81L-356,83L-348,92L-352,96L-358,97L-359,107L-360,108L-364,108L-367,105L-372,102L-373,98L-377,97L-382,98L-384,94L-383,91L-388,93L-386,98L-388,102L-388,102L-388,61ZM1044,102L1044,102L1039,106L1034,105L1038,110L1040,117L1042,120L1042,123L1041,126L1034,124L1023,130L1019,131L1013,137L1007,142L1006,146L1000,140L990,146L988,143L984,147L979,146L978,151L973,158L973,161L977,163L977,174L973,174L972,180L973,183L966,186L965,194L959,196L958,202L952,208L951,204L949,194L947,179L949,169L952,165L952,161L958,160L965,150L972,142L979,135L983,124L978,124L975,131L965,140L962,130L952,133L942,147L945,151L936,153L930,154L930,149L924,147L919,151L907,150L894,152L881,167L866,184L872,185L874,189L878,190L880,187L885,187L891,195L891,200L888,207L887,214L885,224L879,233L878,237L873,243L867,250L865,253L859,256L857,256L854,254L849,258L849,259L849,259L848,258L848,256L850,255L851,249L849,244L853,242L858,243L860,238L862,231L863,229L865,224L859,226L855,228L849,228L848,222L843,218L836,216L835,210L833,206L832,203L829,197L826,194L820,192L815,192L810,194L806,197L809,199L809,202L806,204L803,211L803,214L797,218L792,215L788,216L786,214L783,213L777,217L772,218L768,220L763,219L760,219L757,216L753,213L749,212L744,213L741,214L735,211L734,207L730,205L726,204L722,202L717,208L719,212L715,216L709,215L705,214L703,212L699,211L695,210L689,212L681,218L677,219L676,219L674,216L668,216L667,214L664,213L662,209L660,208L654,209L649,206L647,209L638,193L633,187L634,185L624,192L620,192L621,188L616,186L611,188L610,181L603,179L599,182L589,185L587,186L573,189L571,191L574,196L570,197L571,199L567,202L573,207L572,210L567,209L565,211L560,208L554,208L550,211L545,208L536,204L530,204L522,211L521,215L517,212L514,219L515,220L513,224L516,228L519,228L522,232L521,235L523,236L522,239L518,240L514,246L517,251L517,255L521,262L519,264L518,265L517,265L514,261L513,261L510,260L509,258L505,257L503,258L502,257L497,254L491,253L488,252L487,253L482,248L477,246L474,243L477,242L480,237L478,235L484,232L484,231L480,232L480,229L482,228L486,227L487,225L486,222L488,219L488,217L482,215L479,215L477,212L474,213L469,211L469,210L467,207L464,207L464,205L465,203L462,200L458,200L457,200L456,202L455,201L454,197L453,195L453,194L457,194L458,193L457,191L454,190L455,189L453,188L450,183L451,181L451,178L447,176L445,177L444,175L440,174L439,169L439,166L437,164L438,162L437,155L440,150L439,149L444,144L440,141L448,130L452,125L454,121L448,115L449,109L446,102L448,94L444,83L447,75L441,68L442,60L445,59L452,54L456,50L462,57L473,60L488,72L491,77L492,84L487,89L481,92L463,84L460,86L467,93L467,97L467,107L472,110L475,112L476,108L473,104L476,100L486,106L489,104L486,97L496,87L499,88L503,91L505,84L502,78L504,72L501,65L512,69L514,75L509,76L509,82L513,85L519,83L520,77L528,72L542,62L545,63L541,69L546,71L549,67L556,67L562,62L567,69L571,61L567,55L569,51L581,55L586,58L601,71L603,65L599,59L599,57L594,56L596,50L594,41L594,37L601,26L603,14L606,11L617,15L618,22L614,32L616,36L618,45L617,60L621,67L620,74L612,89L616,90L618,87L622,84L623,79L627,74L624,68L626,61L622,60L621,54L624,42L619,32L626,23L625,14L627,14L629,21L628,33L632,36L630,26L637,21L645,21L652,28L649,17L648,3L655,-0L665,0L674,-1L670,-9L675,-19L680,-20L687,-27L698,-29L699,-34L710,-36L713,-32L722,-41L729,-40L730,-48L734,-55L743,-63L750,-57L745,-53L754,-50L755,-41L758,-45L770,-45L779,-37L782,-31L781,-22L777,-18L766,-9L763,-5L768,-3L774,1L778,-2L780,7L782,3L788,1L801,3L802,10L818,12L819,1L827,4L833,4L840,11L842,20L839,25L844,35L851,40L854,27L861,33L868,29L875,33L878,30L885,31L882,19L887,14L923,22L926,30L937,39L953,37L961,39L964,44L964,53L969,56L974,53L981,53L988,55L996,54L1003,64L1008,61L1005,53L1006,48L1019,51L1027,51L1039,56L1044,61L1044,102ZM1044,39L1040,40L1039,36L1044,31L1044,39ZM-388,31L-388,31L-388,31L-388,30L-384,31L-379,34L-379,36L-383,39L-388,39L-388,39L-388,31ZM461,239L462,237L465,238L466,239L467,240L467,240L467,240L469,242L473,241L473,243L468,244L463,248L461,246L462,244L457,242L458,241L462,239Z" fill="#E0E0E0" stroke="#fff" stroke-width=".4"/><path d="M14,334L16,334L18,334L18,335L14,336ZM19,333L22,335L21,338L20,338L20,335L19,334ZM17,341L18,341L20,345L20,348L19,348L18,345L16,344Z" fill="#E0E0E0" stroke="#fff" stroke-width=".4"/><path d="M388,-103L390,-111L396,-112L401,-104L414,-88L404,-80L402,-65L398,-62L396,-47L391,-46L383,-57L386,-64L381,-69L373,-86L370,-103L381,-111L383,-103ZM452,54L445,59L442,60L444,52L438,47L432,51L430,60L427,65L422,62L417,62L413,57L410,59L408,60L407,67L400,65L399,71L395,71L392,79L388,90L382,104L383,107L382,110L378,110L376,119L376,130L378,134L377,144L374,149L372,154L369,149L361,158L356,160L351,156L349,147L348,129L352,123L362,116L370,106L377,93L387,74L393,65L404,51L413,46L420,47L426,37L433,38L440,35L453,44L447,47ZM437,-112L431,-100L420,-97L408,-101L407,-107L402,-107L397,-118L410,-125L415,-119L419,-126L429,-120ZM426,-66L418,-58L411,-63L413,-67L411,-74L419,-78L421,-70Z" fill="#E0E0E0" stroke="#fff" stroke-width=".4"/><path d="M142,-180L155,-200L169,-198L174,-211L188,-214L220,-210L245,-183L238,-172L223,-170L201,-167L203,-162L217,-165L229,-156L237,-164L240,-154L236,-139L246,-148L265,-159L277,-154L280,-142L263,-124L261,-119L248,-115L258,-113L253,-97L250,-84L250,-62L255,-50L248,-49L242,-44L249,-35L250,-21L246,-20L251,-7L242,-6L247,0L245,5L240,7L234,7L239,17L239,22L231,17L229,21L235,24L240,32L242,41L234,44L231,39L226,32L228,40L223,47L234,47L239,48L228,58L218,66L206,70L202,70L198,74L192,85L183,92L181,93L175,95L170,97L166,103L166,110L164,115L158,122L159,129L158,136L155,144L150,144L144,138L136,138L132,133L130,125L123,114L121,108L120,100L115,91L116,84L113,80L117,68L123,64L125,59L126,50L121,54L119,56L115,58L110,54L110,46L112,40L115,39L124,43L117,35L113,31L109,32L106,29L110,17L108,12L105,3L100,-13L95,-19L95,-25L84,-35L76,-36L65,-35L55,-34L51,-40L44,-50L54,-56L62,-57L45,-62L36,-70L37,-77L52,-87L67,-97L68,-105L57,-113L61,-123L75,-140L80,-143L79,-155L88,-163L100,-167L113,-167L117,-158L128,-174L137,-163L143,-161L151,-152L141,-167Z" fill="#E0E0E0" stroke="#fff" stroke-width=".4"/><path d="M825,481L826,480L829,479L832,479L833,478L835,479L833,480L829,481L826,483L826,481Z" fill="#E0E0E0" stroke="#fff" stroke-width=".4"/><path d="M-138,308L-133,308L-128,307L-129,308L-123,310L-114,314L-106,314L-103,314L-103,312L-96,312L-94,313L-92,315L-90,317L-89,319L-88,322L-86,323L-82,324L-80,321L-76,321L-74,323L-72,326L-70,328L-68,331L-67,334L-66,336L-63,338L-60,338L-58,338L-60,342L-61,345L-61,351L-61,353L-61,356L-59,358L-59,361L-56,364L-55,367L-54,369L-49,370L-48,372L-44,370L-41,370L-38,369L-36,368L-33,367L-32,364L-32,361L-31,359L-28,358L-24,357L-21,358L-18,357L-17,358L-17,360L-20,363L-21,365L-20,366L-20,368L-21,371L-22,370L-23,370L-24,370L-25,373L-26,372L-27,372L-27,373L-30,373L-34,373L-34,375L-36,375L-34,377L-33,378L-32,379L-32,379L-32,380L-37,380L-39,384L-38,384L-39,385L-39,386L-43,382L-45,381L-49,380L-51,380L-54,382L-56,382L-59,381L-62,380L-66,378L-69,378L-73,376L-76,374L-77,373L-80,372L-84,371L-85,369L-90,367L-92,364L-93,362L-91,361L-92,360L-91,359L-91,358L-92,356L-92,354L-94,352L-97,348L-101,344L-103,341L-107,340L-107,339L-107,336L-109,335L-111,333L-112,329L-114,329L-117,327L-119,325L-119,323L-121,320L-122,316L-122,314L-125,312L-126,313L-129,311L-129,313L-129,316L-128,319L-127,321L-124,324L-123,325L-123,325L-122,327L-121,327L-121,330L-119,331L-119,333L-116,335L-115,339L-114,341L-112,343L-112,345L-110,345L-109,347L-107,349L-107,350L-109,352L-110,352L-111,349L-113,347L-116,344L-118,343L-118,340L-119,338L-121,336L-123,334L-124,335L-125,334L-127,333L-130,330L-129,330L-128,330L-126,328L-126,326L-129,323L-132,322L-133,319L-135,316L-136,312Z" fill="#E0E0E0" stroke="#fff" stroke-width=".4"/><path d="M116,588L115,585L116,583L114,580L111,577L107,574L105,574L101,571L99,571L104,565L109,561L111,559L115,556L115,553L113,550L111,551L111,549L112,546L112,544L111,543L109,543L108,543L107,542L107,538L106,536L103,535L102,536L98,535L98,529L97,527L98,526L97,524L99,522L99,519L98,516L96,515L96,513L96,511L89,511L87,506L88,506L88,504L87,503L87,500L85,499L83,499L81,498L78,497L77,496L72,495L68,491L68,489L68,487L68,484L63,485L61,486L57,488L56,489L54,489L51,489L49,490L47,489L48,483L44,485L41,485L39,483L37,483L38,481L35,479L34,475L35,474L35,473L37,471L37,469L38,468L38,466L43,463L46,463L46,462L50,462L52,451L52,449L51,447L49,446L49,443L52,442L53,443L53,441L50,441L50,438L58,438L59,437L60,438L61,440L62,440L64,442L67,442L68,441L71,440L73,439L73,437L76,436L76,435L72,435L72,433L72,430L70,429L71,428L74,429L77,430L78,429L81,428L85,427L87,425L86,424L88,424L89,425L89,427L90,427L91,429L90,431L89,434L90,436L91,438L93,440L95,440L96,439L97,439L99,438L100,437L102,438L103,437L105,438L106,437L105,436L105,435L107,435L109,435L111,436L113,437L114,436L115,436L116,437L117,437L119,435L120,432L123,428L124,428L125,430L127,437L129,438L129,441L126,444L128,445L135,446L135,450L138,447L143,449L149,451L151,453L151,456L155,454L163,457L169,456L175,460L180,464L183,465L186,466L188,467L189,472L190,474L188,481L186,484L181,489L178,494L175,497L174,497L173,500L173,508L172,515L172,517L171,519L170,525L166,530L165,534L162,536L161,539L157,539L150,541L148,543L143,544L138,547L135,552L135,555L135,557L134,562L134,564L131,567L126,575L123,578L120,581L118,585Z" fill="#E0E0E0" stroke="#fff" stroke-width=".4"/><path d="M51,489L54,489L56,489L57,488L61,486L63,485L68,484L68,487L68,489L68,491L72,495L77,496L78,497L81,498L83,499L85,499L87,500L87,503L88,504L88,506L87,506L89,511L96,511L96,513L96,515L98,516L99,519L99,522L97,524L98,526L97,527L97,526L93,524L89,523L82,525L80,528L80,531L79,536L78,535L73,535L72,538L70,535L64,534L61,538L58,539L57,533L54,528L56,524L54,522L53,519L51,516L54,512L52,508L53,507L52,505L54,503L54,500L54,497L55,495Z" fill="#E0E0E0" stroke="#fff" stroke-width=".4"/><path d="M50,462L46,462L46,463L43,463L38,466L38,468L37,469L37,471L35,473L35,474L34,475L35,479L38,481L37,483L39,483L41,485L44,485L48,483L47,489L49,490L51,489L55,495L54,497L54,500L54,503L52,505L53,507L52,508L54,512L51,516L50,518L48,519L44,517L44,515L36,511L29,506L26,504L24,501L25,499L21,494L17,487L14,478L12,477L11,474L8,471L5,469L6,468L4,464L5,461L9,459L9,460L8,461L8,463L10,462L11,463L13,465L15,463L16,460L18,457L23,455L27,451L29,449L28,446L29,445L32,447L33,449L35,450L37,454L40,455L42,454L44,454L46,454L49,456L47,460L48,460Z" fill="#E0E0E0" stroke="#fff" stroke-width=".4"/><path d="M62,440L61,440L60,438L59,437L58,438L50,438L50,441L53,441L53,443L52,442L49,443L49,446L51,447L52,449L52,451L50,462L48,460L47,460L49,456L46,454L44,454L42,454L40,455L37,454L35,450L33,449L32,447L29,445L28,446L26,445L24,443L23,444L20,443L19,442L18,442L14,439L14,438L15,438L15,436L16,435L18,434L20,432L21,430L20,429L20,426L20,423L20,422L20,418L18,416L19,414L20,415L21,413L20,411L20,410L22,410L25,408L27,407L27,406L28,402L30,401L33,401L33,400L36,400L39,398L41,397L43,395L44,395L45,396L44,398L42,398L41,401L39,402L38,403L37,406L36,408L38,409L39,411L40,411L40,413L40,415L40,415L41,416L42,417L47,417L49,417L52,421L54,420L56,420L59,420L60,421L59,423L59,424L58,427L59,430L60,431L60,432L58,434L60,435L61,436Z" fill="#E0E0E0" stroke="#fff" stroke-width=".4"/><path d="M20,410L20,411L21,413L20,415L19,414L18,416L17,415L16,413L17,412L16,411L15,410L13,409L12,409L11,411L9,412L8,412L8,413L10,415L9,415L8,416L6,416L6,414L5,414L4,414L3,413L1,412L0,412L-1,412L-2,413L-2,412L-2,411L-2,411L-2,410L-1,409L-2,409L-2,407L-0,407L1,408L1,409L3,409L3,409L4,410L6,410L8,409L10,408L11,407L14,407L13,407L16,407L17,408L19,409Z" fill="#E0E0E0" stroke="#fff" stroke-width=".4"/><path d="M-0,407L-2,407L-2,409L-1,409L-2,410L-2,411L-2,411L-2,412L-4,411L-5,410L-5,410L-5,409L-6,408L-7,407L-9,407L-9,405L-10,405L-10,406L-11,407L-12,406L-13,405L-13,404L-13,403L-13,402L-14,401L-13,401L-12,400L-10,401L-9,401L-8,401L-7,402L-6,402L-5,401L-4,403L-2,405Z" fill="#E0E0E0" stroke="#fff" stroke-width=".4"/><path d="M-5,401L-6,402L-7,402L-8,401L-9,401L-10,401L-12,400L-13,401L-14,399L-16,398L-17,396L-19,395L-21,393L-20,393L-20,393L-19,393L-18,393L-18,392L-17,392L-17,390L-16,390L-15,390L-15,389L-13,389L-13,389L-12,388L-11,387L-11,386L-10,386L-10,385L-9,385L-9,386L-8,386L-7,386L-6,386L-5,385L-4,385L-3,385L-3,385L-3,386L-3,387L-4,389L-4,390L-4,392L-4,393L-4,395L-5,396L-5,397L-5,398L-6,399L-5,401Z" fill="#E0E0E0" stroke="#fff" stroke-width=".4"/><path d="M-3,385L-4,385L-5,385L-6,386L-7,386L-8,386L-9,386L-9,385L-10,385L-10,386L-11,386L-11,387L-12,388L-13,389L-13,389L-15,389L-15,390L-16,390L-17,390L-17,392L-18,392L-18,393L-19,393L-20,392L-21,391L-21,390L-22,389L-22,389L-24,389L-24,389L-25,388L-26,387L-27,387L-27,386L-27,385L-27,384L-25,383L-23,382L-23,382L-22,381L-21,381L-20,381L-20,381L-18,381L-16,381L-15,381L-14,380L-13,381L-12,381L-11,381L-10,380L-8,381L-8,381L-6,382L-5,383L-4,383Z" fill="#E0E0E0" stroke="#fff" stroke-width=".4"/><path d="M-27,387L-26,387L-25,388L-24,389L-24,389L-22,389L-22,389L-21,390L-21,391L-22,392L-24,392L-25,392L-27,391L-29,391L-30,390L-30,389L-29,388L-28,388L-28,387Z" fill="#E0E0E0" stroke="#fff" stroke-width=".4"/><path d="M-39,386L-39,385L-38,384L-39,384L-37,380L-32,380L-32,379L-32,379L-33,378L-34,377L-36,375L-34,375L-34,373L-30,373L-27,373L-27,376L-27,381L-26,381L-25,382L-24,381L-23,382L-25,383L-27,384L-27,385L-27,386L-27,387L-28,387L-28,388L-29,388L-30,389L-30,390L-32,389L-35,389L-37,388Z" fill="#E0E0E0" stroke="#fff" stroke-width=".4"/><path d="M-27,373L-27,372L-26,372L-25,373L-24,370L-23,370L-23,371L-23,371L-23,372L-23,374L-23,374L-23,376L-23,376L-23,378L-24,379L-25,380L-26,381L-27,381L-27,376Z" fill="#E0E0E0" stroke="#fff" stroke-width=".4"/><path d="M86,424L87,425L85,427L81,428L78,429L77,430L74,429L71,428L70,429L72,430L72,433L72,435L76,435L76,436L73,437L73,439L71,440L68,441L67,442L64,442L62,440L61,436L60,435L58,434L60,432L60,431L59,430L58,427L59,424L59,423L60,421L59,420L56,420L54,420L52,421L49,417L47,417L42,417L41,416L40,415L40,415L40,413L40,411L39,411L38,409L36,408L37,406L38,403L39,402L41,401L42,398L44,398L44,399L42,399L43,401L43,403L41,406L43,409L45,408L45,406L44,404L44,401L49,399L48,398L50,396L51,399L54,399L57,401L57,403L60,403L65,402L67,404L70,405L72,403L72,402L77,402L82,402L78,403L80,405L83,406L86,407L87,411L89,411L90,412L87,414L87,415L88,417L87,418L85,418L85,420L84,421Z" fill="#E0E0E0" stroke="#fff" stroke-width=".4"/><path d="M103,437L102,438L100,437L99,438L97,439L96,439L95,440L93,440L91,438L90,436L89,434L90,431L91,429L90,427L89,427L89,425L88,424L86,424L84,421L85,420L85,418L87,418L88,417L87,415L87,414L90,412L93,413L95,416L95,418L97,418L99,420L101,421L100,425L98,426L98,427L97,429L99,432L100,432L101,434Z" fill="#E0E0E0" stroke="#fff" stroke-width=".4"/><path d="M111,436L109,435L107,435L105,435L105,436L106,437L105,438L103,437L101,434L100,432L99,432L97,429L98,427L98,426L100,425L101,421L105,422L106,421L109,421L113,422L111,425L112,428L113,431L112,432L112,434Z" fill="#E0E0E0" stroke="#fff" stroke-width=".4"/><path d="M123,428L120,432L119,435L117,437L116,437L115,436L114,436L113,437L111,436L112,434L112,432L113,431L112,428L111,425L113,422L115,422L118,423L122,427ZM353,218L355,219L360,221L358,225L358,229L357,230L355,229L355,231L352,234L352,237L354,236L355,238L355,240L356,242L355,244L356,248L358,249L358,251L354,254L346,253L340,255L340,258L335,259L331,256L329,257L322,255L321,253L323,249L323,238L319,232L316,229L310,227L310,223L315,221L322,223L320,216L324,219L333,214L335,209L338,207L339,210L341,210L342,212L345,215L347,215L351,217L352,218ZM363,257L365,255L366,260L365,264L363,263L362,259Z" fill="#E0E0E0" stroke="#fff" stroke-width=".4"/><path d="M28,446L29,449L27,451L23,455L18,457L16,460L15,463L13,465L11,463L10,462L8,463L8,461L9,460L9,459L11,456L10,454L8,456L6,454L7,453L6,449L7,449L8,446L10,444L9,442L12,441L14,439L18,442L19,442L20,443L23,444L24,443L26,445Z" fill="#E0E0E0" stroke="#fff" stroke-width=".4"/><path d="M64,370L66,370L67,371L66,372L63,372L61,372L61,371L61,370Z" fill="#E0E0E0" stroke="#fff" stroke-width=".4"/><path d="M19,370L22,370L24,371L25,373L22,373L21,373L19,373L16,371L17,370L19,370Z" fill="#E0E0E0" stroke="#fff" stroke-width=".4"/><path d="M1,350L4,350L7,350L11,352L13,353L16,353L18,354L21,357L24,359L25,359L27,359L27,361L30,361L33,363L32,364L30,364L27,364L24,364L19,364L21,362L20,361L17,361L16,359L15,357L13,357L9,356L8,355L3,354L1,354L3,352L-1,352L-4,354L-6,355L-6,356L-8,356L-10,356L-8,354L-7,353L-5,352L-3,351L-0,351Z" fill="#E0E0E0" stroke="#fff" stroke-width=".4"/><path d="M262,390L260,387L258,386L260,385L262,382L263,380L264,379L266,379L268,378L270,378L272,379L275,380L277,383L280,386L280,389L281,391L282,392L282,394L282,395L282,395L280,395L279,395L278,396L275,395L274,394L266,394L265,395L264,395L262,395L261,392L265,392L266,392L266,392L268,391L270,392L271,392L273,391L272,390L271,390L270,390L268,389L267,389L266,390Z" fill="#E0E0E0" stroke="#fff" stroke-width=".4"/><path d="M282,395L282,394L282,392L281,391L280,389L280,386L281,385L282,383L283,383L286,384L288,383L289,384L290,383L306,383L307,380L306,379L304,361L302,342L309,342L322,352L335,361L336,363L339,364L341,365L341,368L345,367L345,377L343,380L343,382L339,383L334,383L332,385L330,385L327,385L326,384L324,385L320,386L319,388L316,390L316,391L314,391L312,391L311,392L310,395L307,398L307,399L306,401L307,403L305,404L304,405L303,403L302,403L302,403L301,404L298,404L297,404L296,404L295,403L295,402L295,401L294,402L294,400L295,399L293,398L293,397L292,396L291,396L290,396L289,397L288,398L286,397L285,396L284,396L283,397L283,397Z" fill="#E0E0E0" stroke="#fff" stroke-width=".4"/><path d="M260,359L261,358L277,358L276,352L277,350L281,349L280,338L294,338L294,332L309,342L302,342L304,361L306,379L307,380L306,383L290,383L289,384L288,383L286,384L283,383L282,383L281,385L280,386L277,383L275,380L272,379L270,378L268,378L266,379L264,379L263,380L262,378L263,376L264,372L263,368L263,365L263,363L262,361Z" fill="#E0E0E0" stroke="#fff" stroke-width=".4"/><path d="M339,420L336,420L335,418L335,409L334,408L334,406L332,404L331,403L332,401L333,400L334,399L336,398L337,397L338,396L339,396L342,398L342,400L343,402L342,404L343,405L341,407L340,408L339,411L339,414Z" fill="#E0E0E0" stroke="#fff" stroke-width=".4"/><path d="M387,351L388,358L390,359L390,361L391,362L391,364L389,372L389,378L384,382L382,387L384,389L384,391L386,391L386,393L385,394L385,395L384,395L381,391L380,390L377,393L374,391L372,391L371,392L368,392L366,393L364,394L359,391L357,392L355,392L354,391L350,389L345,390L344,391L344,393L343,395L342,398L339,396L338,396L337,397L337,394L332,393L332,391L330,389L329,387L330,385L332,385L334,383L339,383L343,382L343,380L345,377L345,367L351,365L362,357L376,349L382,351L384,353Z" fill="#E0E0E0" stroke="#fff" stroke-width=".4"/><path d="M339,420L339,414L339,411L340,408L341,407L343,405L342,404L343,402L342,400L342,398L343,395L344,393L344,391L345,390L350,389L354,391L355,392L357,392L359,391L364,394L366,393L368,392L371,392L372,391L374,391L377,393L380,390L381,391L384,395L385,395L386,397L386,397L385,399L382,402L381,404L380,406L380,407L379,410L377,412L376,414L375,415L375,417L372,418L370,417L368,417L366,419L365,419L363,423L362,426L358,427L356,427L355,428L352,428L349,426L348,423L345,420L342,420Z" fill="#E0E0E0" stroke="#fff" stroke-width=".4"/><path d="M386,393L387,396L388,399L387,401L390,405L387,405L386,405L384,405L384,407L386,409L388,410L388,412L390,414L389,415L387,419L386,420L386,423L386,425L386,426L388,428L388,430L389,432L391,433L391,435L392,436L392,438L388,437L385,436L380,436L380,436L377,436L375,436L373,436L366,436L367,433L366,430L364,429L363,428L362,427L362,426L363,423L365,419L366,419L368,417L370,417L372,418L375,417L375,415L376,414L377,412L379,410L380,407L380,406L381,404L382,402L385,399L386,397L386,397L385,395L385,394Z" fill="#E0E0E0" stroke="#fff" stroke-width=".4"/><path d="M332,401L331,403L332,404L334,406L334,408L335,409L335,418L336,420L332,421L331,420L330,417L330,415L331,412L330,410L330,407L330,404L328,402L328,401Z" fill="#E0E0E0" stroke="#fff" stroke-width=".4"/><path d="M328,401L328,402L330,404L330,407L330,410L331,412L330,415L330,417L331,420L332,421L326,424L324,425L320,426L317,425L317,424L315,420L316,416L318,412L317,406L316,403L316,401L323,401L325,401L326,401Z" fill="#E0E0E0" stroke="#fff" stroke-width=".4"/><path d="M296,404L297,404L298,404L301,404L302,403L302,403L303,403L304,405L305,404L307,403L308,404L309,406L311,407L312,406L314,405L317,406L318,412L316,416L315,420L317,424L317,425L315,425L312,424L310,424L305,425L302,426L298,428L297,428L298,424L298,424L298,422L296,421L295,420L294,419L295,417L294,415L295,414L295,414L295,413L295,412L295,411L297,411L296,408L295,406L295,404Z" fill="#E0E0E0" stroke="#fff" stroke-width=".4"/><path d="M274,394L275,395L278,396L279,395L280,395L282,395L282,395L283,397L283,397L284,396L285,396L286,397L288,398L289,397L290,396L291,396L292,396L293,397L293,398L295,399L294,400L294,402L295,401L295,402L295,403L296,404L295,404L295,406L296,408L297,411L295,411L295,412L295,413L295,414L295,414L293,414L293,416L291,416L291,415L291,413L289,411L288,411L287,411L286,412L286,410L286,409L286,408L285,406L284,405L281,405L280,406L279,406L278,407L278,408L275,409L274,407L272,405L271,405L270,404L270,402L269,401L268,401L270,399L271,399L272,398L273,398L273,398L273,396L274,396Z" fill="#E0E0E0" stroke="#fff" stroke-width=".4"/><path d="M262,395L264,395L265,395L266,394L274,394L274,396L273,396L273,398L273,398L272,398L271,399L270,399L268,401L266,399L264,399L263,398L263,397L262,396Z" fill="#E0E0E0" stroke="#fff" stroke-width=".4"/><path d="M295,414L294,415L295,417L294,419L295,420L296,421L298,422L298,424L298,424L297,428L296,428L292,426L289,423L285,421L283,418L284,417L284,415L286,413L287,411L288,411L289,411L291,413L291,415L291,416L293,416L293,414Z" fill="#E0E0E0" stroke="#fff" stroke-width=".4"/><path d="M275,409L278,408L278,407L279,406L280,406L281,405L284,405L285,406L286,408L286,409L286,410L286,412L287,411L286,413L284,415L284,417L283,418L281,418L279,416L277,414L276,412Z" fill="#E0E0E0" stroke="#fff" stroke-width=".4"/><path d="M307,403L306,401L307,399L307,398L310,395L311,392L312,391L314,391L316,391L316,390L319,388L320,386L324,385L326,384L327,385L330,385L329,387L330,389L332,391L332,393L337,394L337,397L336,398L334,399L333,400L332,401L328,401L326,401L325,401L323,401L316,401L316,403L317,406L314,405L312,406L311,407L309,406L308,404Z" fill="#E0E0E0" stroke="#fff" stroke-width=".4"/><path d="M437,424L436,425L433,424L430,424L429,424L428,425L427,425L425,425L421,427L419,426L418,427L417,429L414,428L411,428L409,426L406,425L403,426L402,428L402,431L399,431L396,430L394,432L392,436L391,435L391,433L389,432L388,430L388,428L386,426L386,425L386,423L386,420L387,419L389,415L392,415L393,414L394,414L395,415L400,413L401,412L403,411L403,409L404,409L408,409L412,407L415,403L417,401L419,400L420,402L422,405L422,406L421,408L421,409L423,410L426,412L428,414L428,415L431,417L432,419L433,421L436,423Z" fill="#E0E0E0" stroke="#fff" stroke-width=".4"/><path d="M402,431L401,433L400,436L399,438L399,442L399,444L398,445L398,447L398,448L395,450L393,452L392,456L392,459L391,460L388,462L386,465L385,464L384,463L382,463L381,464L380,464L378,463L377,463L376,465L372,461L375,459L374,456L375,455L378,455L378,453L380,455L384,455L385,453L386,450L385,447L383,445L385,440L384,439L381,440L380,438L380,436L385,436L388,437L392,438L392,436L394,432L396,430L399,431Z" fill="#E0E0E0" stroke="#fff" stroke-width=".4"/><path d="M373,436L375,436L377,436L380,436L380,436L380,438L381,440L384,439L385,440L383,445L385,447L386,450L385,453L384,455L380,455L378,453L378,455L375,455L374,456L375,459L372,461L368,457L366,454L363,449L363,448L364,447L365,444L366,441L367,441L373,441Z" fill="#E0E0E0" stroke="#fff" stroke-width=".4"/><path d="M366,436L373,436L373,441L367,441L366,441L365,440Z" fill="#E0E0E0" stroke="#fff" stroke-width=".4"/><path d="M450,478L452,479L454,480L456,481L458,482L460,484L461,487L461,488L460,491L461,495L459,496L458,500L460,501L448,505L449,507L446,508L443,510L443,511L441,511L438,515L436,518L434,518L433,517L429,517L428,516L428,516L426,515L424,515L420,516L418,513L415,510L415,497L424,497L423,495L424,494L423,492L424,490L423,489L425,489L425,490L427,490L429,490L431,492L434,493L436,492L437,494L440,494L442,496L443,498L446,498L446,494L445,495L442,493L441,492L441,488L442,483L441,482L442,479L444,479L449,478Z" fill="#E0E0E0" stroke="#fff" stroke-width=".4"/><path d="M458,482L462,483L463,484L465,486L466,491L465,494L466,500L467,499L468,501L470,504L470,509L469,510L468,513L465,510L465,507L465,505L465,504L464,503L463,503L460,501L458,500L459,496L461,495L460,491L461,488L461,487L460,484Z" fill="#E0E0E0" stroke="#fff" stroke-width=".4"/><path d="M466,491L469,491L473,492L474,491L477,491L479,490L481,490L485,489L489,486L489,488L489,492L489,496L490,502L490,504L489,507L488,510L485,512L481,514L477,516L472,521L471,521L468,524L467,525L466,528L468,532L469,534L469,535L470,535L469,539L469,541L470,542L469,544L468,546L464,547L459,549L458,551L458,553L459,553L459,555L456,555L455,553L455,552L454,550L455,545L454,542L452,536L456,531L457,528L458,528L459,525L458,524L458,521L459,518L459,512L457,511L455,511L454,510L452,509L449,509L449,507L448,505L460,501L463,503L464,503L465,504L465,505L465,507L465,510L468,513L469,510L470,509L470,504L468,501L467,499L466,500L465,494Z" fill="#E0E0E0" stroke="#fff" stroke-width=".4"/><path d="M380,464L378,465L378,466L378,468L377,468L376,465L377,463L378,463ZM377,469L379,469L380,469L381,468L393,468L394,471L395,474L396,475L398,477L400,477L402,476L404,477L404,476L405,474L408,473L408,473L410,473L410,474L415,474L415,477L415,478L415,481L415,483L416,485L416,489L417,489L419,489L421,488L423,489L424,490L423,492L424,494L423,495L424,497L415,497L415,510L418,513L420,516L413,518L404,517L401,515L385,515L384,515L382,514L379,513L377,514L375,515L374,512L375,509L376,505L377,503L378,499L379,498L381,495L382,493L383,490L383,488L381,486L380,484L379,482L380,481L381,479L380,475L379,473L377,470Z" fill="#E0E0E0" stroke="#fff" stroke-width=".4"/><path d="M449,455L450,456L450,457L450,458L449,459L448,461L446,463L445,463L445,458L444,456L446,457L447,454Z" fill="#E0E0E0" stroke="#fff" stroke-width=".4"/><path d="M470,307L470,309L468,308L467,311L468,312L467,312L467,313L469,313L469,315L467,322L467,321L464,314L466,313L465,312L466,310L467,307L468,305L468,305L469,305L470,304L471,304L471,306L470,307Z" fill="#E0E0E0" stroke="#fff" stroke-width=".4"/><path d="M471,304L470,304L469,305L468,305L469,301L471,298L471,298L473,298L474,300L472,302Z" fill="#E0E0E0" stroke="#fff" stroke-width=".4"/><path d="M525,495L526,497L527,499L528,504L529,506L529,508L528,510L527,507L526,508L527,511L526,513L525,514L525,518L523,523L521,528L519,536L517,542L516,548L512,549L509,550L507,549L503,548L502,545L502,542L501,538L500,535L501,532L503,531L503,530L505,527L505,524L504,522L503,519L503,515L504,513L505,510L507,510L509,509L511,509L512,509L515,506L518,504L519,502L519,500L520,500L522,498L523,495L524,493Z" fill="#E0E0E0" stroke="#fff" stroke-width=".4"/><path d="M469,313L467,313L467,312L468,312L467,311L468,308L470,309L470,311Z" fill="#E0E0E0" stroke="#fff" stroke-width=".4"/><path d="M262,390L266,390L267,389L268,389L270,390L271,390L272,390L273,391L271,392L270,392L268,391L266,392L266,392L265,392L261,392Z" fill="#E0E0E0" stroke="#fff" stroke-width=".4"/><path d="M366,318L364,310L362,308L362,307L358,304L358,301L360,298L361,294L361,289L362,287L366,285L369,285L369,288L372,286L372,287L370,289L370,292L372,293L371,297L368,299L369,302L371,302L372,304L374,305L374,309L372,310L370,312L368,313L368,315L368,317Z" fill="#E0E0E0" stroke="#fff" stroke-width=".4"/><path d="M294,332L294,331L294,330L294,325L300,322L304,321L307,320L309,317L313,316L314,312L316,312L318,310L323,309L324,307L323,306L321,301L321,298L319,295L323,293L328,292L330,290L334,288L341,287L347,287L349,288L353,286L357,286L359,287L362,287L361,289L361,294L360,298L358,301L358,304L362,307L362,308L364,310L366,318L367,322L367,324L367,328L367,330L366,333L367,336L365,337L368,341L368,342L369,345L371,344L374,346L376,349L362,357L351,365L345,367L341,368L341,365L339,364L336,363L335,361L322,352L309,342Z" fill="#E0E0E0" stroke="#fff" stroke-width=".4"/><path d="M470,309L470,307L475,309L482,304L484,310L483,310L475,313L479,317L478,318L477,320L474,320L473,322L472,323L467,323L467,322L469,315L469,313L470,311Z" fill="#E0E0E0" stroke="#fff" stroke-width=".4"/><path d="M533,345L534,345L534,346L537,346L541,346L543,346L546,343L549,340L551,338L552,339L553,343L550,343L550,345L551,346L549,347L549,349L548,350L548,352L547,353L535,351L534,346Z" fill="#E0E0E0" stroke="#fff" stroke-width=".4"/><path d="M530,343L530,340L531,338L532,337L533,339L533,341L533,344L531,344Z" fill="#E0E0E0" stroke="#fff" stroke-width=".4"/><path d="M519,320L520,322L519,323L521,326L518,326L517,324L513,324L516,319Z" fill="#E0E0E0" stroke="#fff" stroke-width=".4"/><path d="M484,310L482,304L491,299L493,293L492,289L495,288L497,285L498,284L503,285L504,286L506,285L509,291L511,293L512,296L510,297L509,301L512,306L516,308L519,312L518,315L519,315L519,318L521,320L519,320L516,319L513,324L506,324L495,314L489,311Z" fill="#E0E0E0" stroke="#fff" stroke-width=".4"/><path d="M548,352L548,350L549,349L549,347L551,346L550,345L550,343L553,343L554,346L557,347L559,348L562,348L564,351L565,352L566,353L566,354L565,356L564,358L562,359L561,362L559,362L558,363L558,365L558,368L558,368L556,368L553,370L553,372L552,373L550,373L548,374L548,375L546,377L544,376L541,378L539,378L538,375L535,368L547,364L550,355ZM552,339L551,338L552,336L553,336L553,338Z" fill="#E0E0E0" stroke="#fff" stroke-width=".4"/><path d="M736,396L735,391L738,388L743,387L747,388L750,389L752,386L755,388L756,391L756,396L749,399L751,401L747,401L743,403L740,402L738,400Z" fill="#E0E0E0" stroke="#fff" stroke-width=".4"/><path d="M747,388L743,387L738,388L735,391L736,396L733,394L729,394L730,391L726,391L726,396L724,402L723,405L723,408L726,408L727,412L728,415L730,418L732,418L735,420L733,422L731,422L730,420L727,418L726,419L725,418L724,416L722,413L720,412L719,414L719,412L719,409L720,405L722,401L724,397L723,394L723,392L722,389L720,386L719,384L720,383L722,380L720,377L718,374L716,370L717,370L719,365L722,365L724,363L726,362L728,363L728,366L731,366L730,370L730,374L734,372L736,372L738,372L739,371L742,371L745,375L745,379L748,382L748,386Z" fill="#E0E0E0" stroke="#fff" stroke-width=".4"/><path d="M755,388L752,386L750,389L747,388L748,386L748,382L745,379L745,375L742,371L739,371L738,372L736,372L734,372L730,374L730,370L731,366L728,366L728,363L726,362L727,360L731,358L731,359L733,359L733,354L735,353L737,357L739,360L744,361L745,364L743,365L742,367L746,369L750,374L752,378L755,381L756,384Z" fill="#E0E0E0" stroke="#fff" stroke-width=".4"/><path d="M726,362L724,363L722,365L719,365L717,370L716,370L718,374L720,377L722,380L720,383L719,384L720,386L722,389L723,392L723,394L724,397L722,401L720,405L720,402L721,399L720,397L720,392L718,390L717,385L716,380L715,377L712,379L708,382L705,381L703,380L704,375L703,371L700,366L701,365L698,364L696,361L695,357L697,358L697,355L699,354L698,352L699,351L699,346L703,347L704,344L705,341L707,338L707,335L712,332L715,333L714,330L716,329L715,328L718,327L719,330L721,331L721,334L721,338L717,342L717,347L721,346L722,350L724,351L723,355L726,356L728,357L731,356L731,358L727,360Z" fill="#E0E0E0" stroke="#fff" stroke-width=".4"/><path d="M743,403L747,401L751,401L749,399L756,396L756,391L755,388L756,384L755,381L752,378L750,374L746,369L742,367L743,365L745,364L744,361L739,360L737,357L735,353L737,352L740,352L744,352L747,349L749,351L753,352L752,354L754,356L758,357L753,361L749,365L749,368L752,372L755,378L759,380L761,383L763,391L763,398L759,401L755,404L752,407L747,411L745,408L746,405Z" fill="#E0E0E0" stroke="#fff" stroke-width=".4"/><path d="M849,259L849,259L849,259ZM848,258L849,259L847,259L845,261L844,263L844,266L842,268L841,269L840,270L837,271L836,272L835,275L835,275L837,276L839,278L838,279L837,280L834,280L832,282L830,282L830,283L828,282L828,283L827,283L826,282L825,282L824,281L825,279L826,278L826,277L827,274L827,273L824,273L823,271L826,268L830,265L833,261L835,263L838,263L838,261L844,258L845,255Z" fill="#E0E0E0" stroke="#fff" stroke-width=".4"/><path d="M830,283L830,282L832,282L834,280L837,280L838,279L839,278L842,284L843,287L843,293L842,296L838,297L835,299L831,299L831,296L832,293L830,288L833,287Z" fill="#E0E0E0" stroke="#fff" stroke-width=".4"/><path d="M677,219L681,218L689,212L695,210L699,211L703,212L705,214L709,215L715,216L719,212L717,208L722,202L726,204L730,205L734,207L735,211L741,214L744,213L749,212L753,213L757,216L760,219L763,219L768,220L772,218L777,217L783,213L786,214L788,216L792,215L790,220L788,226L789,228L791,228L795,228L798,226L801,228L805,232L804,234L801,234L795,234L793,236L790,240L784,242L780,245L776,244L773,243L771,247L772,249L773,251L770,253L767,256L763,258L757,258L750,260L746,263L744,261L739,261L733,258L729,257L724,258L716,256L712,257L709,253L707,248L705,248L700,244L695,243L690,242L689,240L690,233L687,229L682,226L678,223Z" fill="#E0E0E0" stroke="#fff" stroke-width=".4"/><path d="M715,328L716,329L714,330L715,333L712,332L707,335L707,338L705,341L704,344L703,347L699,346L699,351L698,352L699,354L697,355L695,348L694,348L693,351L691,349L692,346L694,346L696,342L693,342L690,342L686,341L686,338L684,338L681,336L679,339L682,341L679,343L679,344L681,346L680,348L682,351L682,355L682,357L679,356L674,357L674,361L672,363L667,366L662,371L659,374L655,376L655,378L653,379L650,381L648,381L647,384L647,389L648,393L646,397L646,404L644,404L642,407L643,408L640,409L638,412L637,413L633,409L631,404L630,400L628,398L626,394L625,389L624,386L621,381L619,372L618,367L618,362L617,358L611,361L609,360L603,355L605,353L604,352L599,348L602,345L611,345L610,341L608,339L607,336L605,334L609,329L614,329L618,324L620,320L624,315L624,312L628,309L624,307L623,304L622,299L624,297L630,299L634,298L638,294L642,299L642,303L643,306L643,308L640,308L641,313L645,316L651,319L648,321L647,325L651,327L654,329L660,332L665,332L667,335L670,335L675,336L679,336L679,334L678,331L679,329L681,328L682,332L682,333L685,335L688,334L691,334L694,334L695,331L693,330L696,329L700,326L704,323L708,324L711,322L712,325L711,327Z" fill="#E0E0E0" stroke="#fff" stroke-width=".4"/><path d="M697,355L697,358L695,357L696,361L695,359L694,356L694,354L692,352L688,352L689,354L687,356L686,355L685,356L684,355L682,355L682,351L680,348L681,346L679,344L679,343L682,341L679,339L681,336L684,338L686,338L686,341L690,342L693,342L696,342L694,346L692,346L691,349L693,351L694,348L695,348Z" fill="#E0E0E0" stroke="#fff" stroke-width=".4"/><path d="M693,330L695,331L694,334L691,334L688,334L685,335L682,333L682,332L684,329L686,328L689,329L691,329Z" fill="#E0E0E0" stroke="#fff" stroke-width=".4"/><path d="M679,329L678,331L679,334L679,336L675,336L670,335L667,335L665,332L660,332L654,329L651,327L647,325L648,321L651,319L653,318L656,319L660,322L662,323L663,325L666,326L670,328L674,329Z" fill="#E0E0E0" stroke="#fff" stroke-width=".4"/><path d="M638,294L634,298L630,299L624,297L622,299L623,304L624,307L628,309L624,312L624,315L620,320L618,324L614,329L609,329L605,334L607,336L608,339L610,341L611,345L602,345L599,348L596,347L595,344L592,340L585,341L578,341L573,342L574,337L580,334L580,332L578,332L578,328L574,326L572,323L570,321L577,323L581,322L583,323L584,322L587,322L592,320L592,316L594,314L597,314L598,312L601,312L602,312L604,311L604,308L605,305L608,304L606,301L610,301L611,299L611,297L613,295L613,293L612,291L614,289L618,288L623,287L625,286L627,286L630,288L631,292Z" fill="#E0E0E0" stroke="#fff" stroke-width=".4"/><path d="M593,284L595,285L598,286L599,286L602,285L603,286L605,283L607,283L608,283L608,281L610,279L612,280L612,282L613,282L612,286L614,288L615,287L617,286L620,284L622,284L626,284L627,286L625,286L623,287L618,288L614,289L612,291L613,293L613,295L611,297L611,299L610,301L606,301L608,304L605,305L604,308L604,311L602,312L601,312L598,312L597,314L594,314L592,316L592,320L587,322L584,322L583,323L581,322L577,323L570,321L574,316L574,313L571,313L570,310L569,306L571,303L569,303L570,299L572,293L576,295L579,294L580,292L583,291L585,290L586,286L589,285L590,283L592,284Z" fill="#E0E0E0" stroke="#fff" stroke-width=".4"/><path d="M598,286L600,280L599,277L596,275L597,273L601,273L603,271L604,267L609,266L608,268L609,270L611,270L609,271L605,271L605,273L609,273L614,275L621,274L622,279L624,278L626,279L626,281L626,284L622,284L620,284L617,286L615,287L614,288L612,286L613,282L612,282L612,280L610,279L608,281L608,283L607,283L605,283L603,286L602,285L599,286Z" fill="#E0E0E0" stroke="#fff" stroke-width=".4"/><path d="M610,259L611,257L614,256L621,258L621,255L623,253L629,256L631,255L637,255L643,256L645,258L647,259L647,260L641,263L639,265L634,265L633,269L628,268L626,269L622,272L622,273L621,274L614,275L609,273L605,273L605,271L609,271L611,270L614,270L619,267L614,264L611,265L608,263L612,260Z" fill="#E0E0E0" stroke="#fff" stroke-width=".4"/><path d="M537,262L539,260L543,259L546,260L549,264L551,264L555,264L555,261L558,260L561,256L567,259L567,264L569,265L573,264L574,265L576,271L581,274L583,277L588,279L593,281L593,284L592,284L590,283L589,285L586,286L585,290L583,291L580,292L579,294L576,295L572,293L571,289L568,289L564,284L561,284L556,281L553,281L552,282L549,281L546,284L543,285L542,282L543,276L539,275L540,271L538,271L539,266L542,268L546,266L543,263L542,260L539,261L538,265Z" fill="#E0E0E0" stroke="#fff" stroke-width=".4"/><path d="M521,320L519,318L519,315L518,315L519,312L516,308L512,306L509,301L510,297L512,296L511,293L509,291L506,285L504,281L505,280L504,274L506,273L507,274L509,277L512,278L513,277L518,274L519,273L521,275L519,277L522,280L523,280L524,283L528,284L530,287L536,288L542,286L543,285L546,284L549,281L552,282L553,281L556,281L561,284L564,284L568,289L571,289L572,293L570,299L569,303L571,303L569,306L570,310L571,313L574,313L574,316L570,321L572,323L574,326L578,328L578,332L580,332L580,334L574,337L573,342L565,341L561,340L556,339L555,333L553,333L550,333L546,336L541,334L537,331L533,329L530,325L528,319L525,320L523,318Z" fill="#E0E0E0" stroke="#fff" stroke-width=".4"/><path d="M470,307L470,307L471,306L471,304L472,302L474,300L473,298L471,298L471,294L472,292L473,291L474,290L474,287L476,288L480,287L482,288L485,288L490,286L492,286L497,285L495,288L492,289L493,293L491,299L482,304L475,309Z" fill="#E0E0E0" stroke="#fff" stroke-width=".4"/><path d="M513,277L512,278L510,275L510,274L508,274L507,272L506,273L505,271L502,270L502,267L502,265L507,264L508,266L509,267L509,268L511,270L510,272L511,273L513,274Z" fill="#E0E0E0" stroke="#fff" stroke-width=".4"/><path d="M440,174L444,175L445,177L447,176L451,178L451,181L450,183L453,188L455,189L454,190L457,191L458,193L457,194L453,194L453,195L454,197L455,201L451,202L450,203L450,206L448,206L445,206L443,204L442,206L440,205L437,205L433,203L429,202L426,203L424,204L422,205L422,202L420,199L423,197L423,195L422,192L422,189L425,189L430,187L431,183L434,181L434,178L436,176Z" fill="#E0E0E0" stroke="#fff" stroke-width=".4"/><path d="M455,201L456,202L457,200L458,200L462,200L465,203L464,205L464,207L467,207L469,210L469,211L474,213L477,212L479,215L482,215L488,217L488,219L486,222L487,225L486,227L482,228L480,229L480,232L477,232L474,234L471,235L467,237L467,240L467,240L466,239L465,238L462,237L461,239L461,238L454,236L454,234L450,235L449,238L446,242L444,241L442,242L440,241L441,241L442,239L443,237L443,236L444,235L444,236L447,236L448,236L447,235L447,234L446,233L445,231L444,230L444,228L442,226L441,226L438,224L435,224L434,225L432,225L431,227L428,227L427,228L425,227L423,227L420,226L418,227L418,226L416,224L417,222L418,220L419,221L418,218L421,213L423,212L424,210L422,205L424,204L426,203L429,202L433,203L437,205L440,205L442,206L443,204L445,206L448,206L450,206L450,203L451,202Z" fill="#E0E0E0" stroke="#fff" stroke-width=".4"/><path d="M422,189L422,192L423,195L423,197L420,199L422,202L422,205L424,210L423,212L421,213L418,218L419,221L418,220L414,218L411,219L409,218L407,219L405,217L403,218L403,218L401,215L398,214L398,212L395,212L395,213L392,212L393,210L390,210L388,208L386,204L387,201L386,198L384,195L385,194L384,190L387,188L393,185L398,183L402,184L402,186L406,186L411,187L419,186L421,187Z" fill="#E0E0E0" stroke="#fff" stroke-width=".4"/><path d="M396,226L395,228L393,228L394,230L393,233L392,234L388,235L386,236L383,235L377,234L376,232L373,233L372,234L370,233L368,233L366,232L366,231L366,230L367,229L369,231L370,229L374,230L376,228L378,229L380,230L380,229L379,225L381,224L382,221L385,223L387,221L389,220L392,222L394,222L396,223L395,224Z" fill="#E0E0E0" stroke="#fff" stroke-width=".4"/><path d="M416,224L418,226L418,227L416,229L414,233L412,237L409,238L406,237L403,239L402,240L398,239L395,236L394,235L393,233L393,233L394,230L393,228L395,228L396,226L398,227L399,228L402,227L403,226L404,226L406,225L407,225L409,225L410,223L411,223L415,225Z" fill="#E0E0E0" stroke="#fff" stroke-width=".4"/><path d="M434,225L435,224L438,224L441,226L442,226L444,228L444,230L445,231L446,233L447,234L447,235L448,236L447,236L444,236L444,235L443,236L443,237L442,239L441,241L440,241L440,239L440,236L440,234L438,230L436,228L435,226Z" fill="#E0E0E0" stroke="#fff" stroke-width=".4"/><path d="M440,241L442,242L444,241L446,242L446,244L444,245L443,245L442,251L439,251L437,249L432,250L430,251L424,251L421,250L419,251L418,248L418,247L418,246L417,246L416,247L414,245L414,243L411,242L411,240L409,238L412,237L414,233L416,229L418,227L420,226L423,227L425,227L427,228L428,227L431,227L432,225L434,225L435,226L436,228L438,230L440,234L440,236L440,239Z" fill="#E0E0E0" stroke="#fff" stroke-width=".4"/><path d="M434,178L434,181L431,183L430,187L425,189L422,189L421,187L419,186L418,185L419,183L417,182L413,181L412,175L416,172L423,173L427,172L428,174L430,174Z" fill="#E0E0E0" stroke="#fff" stroke-width=".4"/><path d="M437,164L439,166L439,169L440,174L436,176L434,178L430,174L428,174L427,172L423,173L416,172L412,175L412,169L414,165L418,162L421,168L424,167L425,162L428,160L430,161L433,164Z" fill="#E0E0E0" stroke="#fff" stroke-width=".4"/><path d="M439,149L440,150L437,155L438,162L437,164L433,164L430,161L428,160L425,162L425,157L424,158L421,156L421,151L426,149L431,148L435,149Z" fill="#E0E0E0" stroke="#fff" stroke-width=".4"/><path d="M384,190L385,194L384,195L386,198L387,201L386,204L388,208L386,208L385,208L384,209L381,210L380,212L377,213L377,215L378,217L380,219L382,221L381,224L379,225L380,229L380,230L378,229L376,228L374,230L370,229L369,231L367,229L366,230L362,228L361,229L358,229L358,225L360,221L355,219L353,218L353,215L352,214L353,210L352,203L354,203L355,200L356,194L356,192L356,191L360,190L360,192L363,189L362,186L362,182L365,183L368,182L368,185L372,186L372,189L376,187L378,185L382,188Z" fill="#E0E0E0" stroke="#fff" stroke-width=".4"/><path d="M418,248L419,251L421,250L424,251L430,251L432,250L437,249L439,251L442,251L440,254L438,257L439,260L436,260L432,261L432,264L428,265L426,263L422,264L419,264L419,260L417,259L418,258L417,257L418,256L420,254L418,252L417,250Z" fill="#E0E0E0" stroke="#fff" stroke-width=".4"/><path d="M433,295L432,296L426,297L427,296L422,295L422,293L425,294L428,294L431,294L431,295ZM419,264L422,264L426,263L428,265L432,264L432,261L434,263L433,266L432,267L429,267L427,266L422,267L425,270L423,271L421,271L419,269L418,270L419,273L421,275L420,276L422,279L424,280L424,283L420,282L421,284L419,285L420,289L418,289L414,287L413,283L412,280L411,277L409,274L408,273L410,270L410,269L412,268L412,267L414,266L416,265L418,265L419,264Z" fill="#E0E0E0" stroke="#fff" stroke-width=".4"/><path d="M506,285L504,286L503,285L498,284L497,285L492,286L490,286L485,288L482,288L480,287L476,288L474,287L474,290L473,291L472,292L470,290L472,288L470,288L466,287L463,290L457,291L454,288L450,288L449,290L446,291L442,288L438,288L436,283L433,280L435,276L432,274L437,269L443,269L444,265L452,265L457,262L461,260L468,260L475,264L481,266L485,265L489,266L493,263L498,263L502,265L502,267L502,270L505,271L506,273L504,274L505,280L504,281ZM432,261L436,260L439,260L440,263L443,264L443,266L438,266L436,267L433,270L432,268L432,267L433,266L434,263Z" fill="#E0E0E0" stroke="#fff" stroke-width=".4"/><path d="M412,267L412,268L410,269L410,270L408,273L408,273L408,271L405,270L405,267L405,264L406,262L405,261L405,259L407,257L407,258L408,257L409,259L410,259L410,261L410,263L410,265Z" fill="#E0E0E0" stroke="#fff" stroke-width=".4"/><path d="M394,235L395,236L398,239L402,240L403,239L404,241L405,243L404,245L402,244L399,244L396,243L394,243L393,244L392,243L391,245L393,248L394,249L395,251L397,253L398,255L402,257L402,258L398,256L395,254L392,252L388,248L389,248L387,246L387,244L385,243L384,245L382,243L383,241L383,241L385,241L386,240L388,241L389,241L389,240L390,239L391,237Z" fill="#E0E0E0" stroke="#fff" stroke-width=".4"/><path d="M366,230L366,231L366,232L368,233L370,233L369,236L368,237L365,236L364,238L362,238L361,237L359,239L357,240L355,238L354,236L352,237L352,234L355,231L355,229L357,230L358,229L361,229L362,228Z" fill="#E0E0E0" stroke="#fff" stroke-width=".4"/><path d="M352,214L353,215L353,218L352,218L351,217L351,214Z" fill="#E0E0E0" stroke="#fff" stroke-width=".4"/><path d="M353,210L352,214L351,214L351,217L347,215L345,215L342,212L341,210L339,210L338,207L341,206L344,207L348,205L350,208Z" fill="#E0E0E0" stroke="#fff" stroke-width=".4"/><path d="M356,192L356,194L355,200L354,203L352,203L353,210L350,208L348,205L344,207L341,206L343,204L347,195L352,192Z" fill="#E0E0E0" stroke="#fff" stroke-width=".4"/><path d="M292,261L294,260L295,259L296,262L299,262L299,261L302,261L303,264L301,265L301,269L300,270L300,273L298,273L300,276L299,279L300,281L300,282L298,284L298,286L297,287L295,286L293,287L293,283L293,280L291,279L290,278L290,274L292,272L292,270L293,267L293,265L292,263Z" fill="#E0E0E0" stroke="#fff" stroke-width=".4"/><path d="M298,286L298,284L300,282L300,281L299,279L300,276L298,273L300,273L300,270L301,269L301,265L303,264L302,261L299,261L299,262L296,262L295,259L294,260L292,261L292,257L291,255L296,251L301,252L307,252L311,253L314,253L321,253L322,255L329,257L331,256L335,259L340,258L340,261L336,265L331,266L331,268L329,270L327,275L329,278L326,280L325,283L322,284L320,288L315,288L311,288L308,290L307,292L305,291L303,289L302,287Z" fill="#E0E0E0" stroke="#fff" stroke-width=".4"/><path d="M303,190L304,194L301,200L294,204L288,203L292,196L290,189L295,184L298,181L299,185L298,188L300,188Z" fill="#E0E0E0" stroke="#fff" stroke-width=".4"/><path d="M973,487L974,488L972,488L970,486L972,487ZM971,483L971,484L968,481L967,478L968,478L970,481ZM968,484L967,485L964,484L963,484L964,482L966,483L968,483ZM963,477L964,478L964,479L961,477L959,476L958,475L958,474L960,475ZM953,473L955,474L954,475L952,474L951,472L951,471Z" fill="#E0E0E0" stroke="#fff" stroke-width=".4"/><path d="M916,623L918,624L918,630L917,632L917,636L915,635L913,638L912,638L909,638L907,633L906,630L904,625L904,623L907,623L911,625L913,624ZM830,581L826,583L822,584L822,587L820,588L817,589L814,589L811,588L808,589L805,589L803,591L802,591L800,593L798,594L795,594L792,594L788,591L786,590L786,587L788,587L789,585L788,584L789,580L788,578L786,573L786,570L786,568L784,565L784,563L782,562L782,558L780,555L779,553L781,555L780,551L781,552L783,554L783,551L781,548L780,546L779,545L780,543L781,542L781,539L781,537L782,534L783,537L784,534L788,533L789,531L793,529L794,529L795,529L799,528L801,527L802,526L803,526L805,526L809,525L811,523L812,521L815,519L815,517L815,515L818,511L819,515L821,514L820,512L821,510L823,511L823,508L825,506L826,504L828,503L828,502L830,503L830,502L832,501L834,501L837,502L839,505L841,505L844,505L843,503L845,500L847,499L846,498L848,495L850,494L852,494L856,494L856,491L853,490L855,490L857,491L860,492L863,493L864,493L866,494L869,493L870,493L871,493L873,495L872,497L871,498L869,498L870,500L868,502L867,504L867,505L870,508L874,509L876,510L878,513L880,513L882,514L882,515L886,517L889,515L889,513L890,511L891,509L892,506L891,504L892,502L891,500L892,497L893,496L892,495L893,493L894,490L894,489L895,488L896,490L897,492L898,493L898,494L899,496L900,499L899,500L901,504L903,502L905,504L907,505L906,507L907,511L908,513L909,513L910,517L909,519L911,522L915,524L918,526L920,528L920,529L922,532L924,536L925,535L927,537L928,536L929,541L931,544L933,545L936,549L937,553L938,555L937,558L939,562L939,566L938,568L937,572L937,574L937,578L935,582L932,584L930,588L929,591L928,595L926,597L925,601L925,604L925,606L923,608L918,608L915,610L913,612L910,614L907,612L905,611L905,608L903,609L900,613L896,611L894,611L892,610L888,609L885,606L884,602L884,599L882,597L878,597L879,594L878,591L876,594L873,595L875,592L875,590L877,587L876,584L873,588L871,589L869,593L866,591L866,589L864,585L862,584L862,582L857,580L855,579L851,577L844,578L838,579L834,581Z" fill="#E0E0E0" stroke="#fff" stroke-width=".4"/><path d="M654,415L653,419L651,420L648,421L646,418L645,412L647,406L650,408L652,411Z" fill="#E0E0E0" stroke="#fff" stroke-width=".4"/><path d="M764,371L760,370L760,366L762,364L767,363L769,363L770,365L768,367L767,369ZM647,259L647,256L650,254L646,244L654,242L656,241L659,231L667,233L669,230L669,224L673,223L676,219L677,219L678,223L682,226L687,229L690,233L689,240L690,242L695,243L700,244L705,248L707,248L709,253L712,257L716,256L724,258L729,257L733,258L739,261L744,261L746,263L750,260L757,258L763,258L767,256L770,253L773,251L772,249L771,247L773,243L776,244L780,245L784,242L790,240L793,236L795,234L801,234L804,234L805,232L801,228L798,226L795,228L791,228L789,228L788,226L790,220L792,215L797,218L803,214L803,211L806,204L809,202L809,199L806,197L810,194L815,192L820,192L826,194L829,197L832,203L833,206L835,210L836,216L843,218L848,222L849,228L855,228L859,226L865,224L863,229L862,231L860,238L858,243L853,242L849,244L851,249L850,255L848,256L848,258L845,255L844,258L838,261L838,263L835,263L833,261L830,265L826,268L823,271L817,273L814,275L810,277L812,274L811,272L814,269L812,266L809,268L804,272L802,275L798,275L796,278L798,281L801,282L801,284L804,286L809,282L812,284L815,284L816,287L810,288L808,291L804,293L802,297L807,299L808,304L811,308L813,312L813,315L811,317L812,319L814,321L813,324L812,328L810,328L807,333L804,339L800,344L795,348L789,352L785,352L782,354L781,353L779,355L773,357L769,358L768,362L765,363L764,359L765,358L760,356L758,357L754,356L752,354L753,352L749,351L747,349L744,352L740,352L737,352L735,353L733,354L733,359L731,359L731,358L731,356L728,357L726,356L723,355L724,351L722,350L721,346L717,347L717,342L721,338L721,334L721,331L719,330L718,327L715,328L711,327L712,325L711,322L708,324L704,323L700,326L696,329L693,330L691,329L689,329L686,328L684,329L682,332L681,328L679,329L674,329L670,328L666,326L663,325L662,323L660,322L656,319L653,318L651,319L645,316L641,313L640,308L643,308L643,306L642,303L642,299L638,294L631,292L630,288L627,286L626,284L626,281L626,279L624,278L622,279L621,274L622,273L622,272L626,269L628,268L633,269L634,265L639,265L641,263L647,260Z" fill="#E0E0E0" stroke="#fff" stroke-width=".4"/><path d="M813,345L810,352L809,355L806,352L806,348L808,344L812,341L813,342Z" fill="#E0E0E0" stroke="#fff" stroke-width=".4"/><path d="M370,233L372,234L373,233L376,232L377,234L383,235L383,238L384,241L380,240L377,242L377,245L377,246L378,249L382,252L384,256L388,261L391,261L392,262L391,263L395,265L398,266L401,269L402,270L401,272L399,270L395,269L394,272L396,274L396,277L394,277L392,281L391,282L391,280L391,277L392,276L391,273L389,271L388,270L387,268L384,267L382,265L379,264L376,262L373,259L370,255L369,250L367,249L363,248L362,248L359,251L358,251L358,249L356,248L355,244L356,242L355,240L355,238L357,240L359,239L361,237L362,238L364,238L365,236L368,237L369,236ZM387,281L390,280L388,284L389,286L388,288L385,286L383,286L378,283L378,281L383,281ZM363,266L365,265L367,268L367,275L365,275L363,277L362,275L361,269L361,266Z" fill="#E0E0E0" stroke="#fff" stroke-width=".4"/><path d="M368,182L365,183L362,182L360,178L360,171L361,169L362,167L366,166L367,164L370,162L370,166L369,168L369,170L372,172L371,174L369,173L366,179ZM377,174L379,178L376,183L372,179L371,176Z" fill="#E0E0E0" stroke="#fff" stroke-width=".4"/><path d="M303,190L300,188L298,188L299,185L298,181L301,181L306,185ZM316,193L316,193L316,189L314,185L314,184L309,183L308,181L309,178L308,176L306,180L306,173L304,169L305,162L308,155L311,156L316,155L312,164L316,162L320,163L319,169L316,175L320,175L320,176L324,184L326,186L329,193L330,196L335,197L334,201L332,203L334,206L330,210L325,210L318,211L316,210L314,213L310,212L307,215L305,214L311,207L315,206L314,206L308,205L307,202L311,200L309,196L310,192Z" fill="#E0E0E0" stroke="#fff" stroke-width=".4"/><path d="M270,87L269,94L274,100L269,107L257,114L254,115L249,114L238,111L241,107L233,103L240,101L240,98L231,96L234,89L240,88L246,95L252,89L257,92L264,87Z" fill="#E0E0E0" stroke="#fff" stroke-width=".4"/><path d="M513,261L514,261L517,265L518,265L519,264L521,262L524,264L526,268L527,268L529,270L525,270L525,274L524,276L523,277L523,280L522,280L519,277L521,275L519,273L518,274L513,277L513,274L511,273L510,272L511,270L509,268L509,267L508,266L507,264L508,264L511,265L513,265L514,265L512,262ZM512,278L509,277L507,274L506,273L507,272L508,274L510,274L510,275Z" fill="#E0E0E0" stroke="#fff" stroke-width=".4"/><path d="M487,253L488,252L491,253L497,254L502,257L503,258L505,257L509,258L510,260L513,261L512,262L514,265L513,265L511,265L508,264L507,264L502,265L498,263L493,263L494,261L493,257L491,255L489,254Z" fill="#E0E0E0" stroke="#fff" stroke-width=".4"/><path d="M809,394L807,391L810,391L812,393L811,396ZM816,405L817,404L817,401L820,401L819,404L822,400L821,404L820,405L819,408L818,409L815,406ZM831,411L831,414L832,416L830,420L829,416L827,418L828,421L827,423L822,420L821,418L822,416L820,414L819,415L817,415L814,417L813,416L815,413L817,412L819,410L821,412L824,411L825,409L827,409L827,406L830,408L831,410ZM800,408L794,412L796,409L799,406L802,403L804,399L804,403L802,405ZM815,371L814,373L816,376L815,379L812,381L812,384L812,387L815,388L816,387L821,390L821,392L822,393L822,395L819,393L817,391L816,392L814,390L810,390L808,389L808,388L810,387L808,386L808,387L806,385L805,383L805,379L807,380L807,374L808,370L811,370L813,371L815,370ZM814,399L813,397L815,399L818,399L818,400L816,402L814,403L813,401ZM828,396L829,401L826,400L826,401L827,404L825,404L825,402L823,401L823,399L825,399L825,398L823,395L826,395Z" fill="#E0E0E0" stroke="#fff" stroke-width=".4"/><path d="M726,419L727,418L730,420L731,422L733,422L735,420L735,421L738,423L739,426L740,428L739,430L740,432L740,434L741,435L743,438L743,440L740,440L736,437L732,434L731,432L729,429L728,426L727,424L727,421ZM797,429L794,428L789,428L788,432L786,434L784,439L781,440L777,439L775,439L773,441L770,441L768,442L765,440L764,437L767,438L770,438L771,434L773,433L778,433L781,429L783,427L784,429L785,428L787,428L787,425L788,423L791,420L793,417L794,417L796,419L796,421L799,422L802,423L802,425L799,425L800,427Z" fill="#E0E0E0" stroke="#fff" stroke-width=".4"/><path d="M788,423L787,425L787,428L785,428L784,429L783,427L784,425Z" fill="#E0E0E0" stroke="#fff" stroke-width=".4"/><path d="M383,235L386,236L388,235L392,234L393,233L393,233L394,235L391,237L390,239L389,240L389,241L388,241L386,240L385,241L383,241L384,241L383,238Z" fill="#E0E0E0" stroke="#fff" stroke-width=".4"/><path d="M442,60L441,68L447,75L444,83L448,94L446,102L449,109L448,115L454,121L452,125L448,130L440,141L433,141L426,144L419,146L417,142L413,139L414,131L412,123L414,118L417,112L427,102L429,100L429,96L423,92L422,88L422,72L416,65L410,59L413,57L417,62L422,62L427,65L430,60L432,51L438,47L444,52Z" fill="#E0E0E0" stroke="#fff" stroke-width=".4"/><path d="M418,220L417,222L416,224L415,225L411,223L410,223L409,225L407,225L406,225L404,226L403,226L402,227L399,228L398,227L396,226L395,224L396,223L396,222L398,222L399,221L399,221L400,220L400,219L401,219L402,218L403,218L403,218L405,217L407,219L409,218L411,219L414,218Z" fill="#E0E0E0" stroke="#fff" stroke-width=".4"/><path d="M388,208L390,210L393,210L392,212L395,213L395,212L398,212L398,214L401,215L403,218L402,218L401,219L400,219L400,220L399,221L399,221L398,222L396,222L396,223L394,222L392,222L389,220L387,221L385,223L382,221L380,219L378,217L377,215L377,213L380,212L381,210L384,209L385,208L386,208Z" fill="#E0E0E0" stroke="#fff" stroke-width=".4"/><path d="M473,387L473,385L474,379L475,377L476,375L479,375L481,372L483,377L484,381L487,383L492,387L494,389L496,391L498,393L500,394L498,395L497,395L495,393L494,391L492,390L491,388L487,387L485,387L484,386L481,387L479,385L478,388Z" fill="#E0E0E0" stroke="#fff" stroke-width=".4"/><path d="M893,275L889,280L889,286L888,290L888,292L886,295L881,298L874,298L868,304L866,302L866,298L859,299L854,301L849,302L853,305L851,313L848,315L846,313L847,309L845,308L843,304L847,303L849,300L853,297L856,294L864,293L868,294L872,285L875,287L881,282L883,280L885,274L885,268L886,265L891,264L893,271ZM904,250L906,247L907,254L901,255L898,261L892,257L889,263L885,263L884,257L886,253L891,253L892,245L893,241L898,247L901,249ZM855,304L857,301L859,301L861,299L864,300L864,302L862,305L861,303L858,304L857,307L855,306Z" fill="#E0E0E0" stroke="#fff" stroke-width=".4"/><path d="M535,368L538,375L539,378L537,379L536,381L536,382L532,384L525,386L522,389L520,389L519,389L517,390L514,391L511,391L510,392L509,393L508,393L507,394L505,394L504,394L501,394L500,392L500,390L500,388L499,385L498,384L498,384L498,382L499,381L498,379L500,378L500,376L501,374L502,375L503,375L508,375L509,375L513,375L514,375L515,377L517,376L520,371L524,370Z" fill="#E0E0E0" stroke="#fff" stroke-width=".4"/><path d="M467,323L472,323L473,322L474,320L477,320L478,318L479,317L475,313L483,310L484,310L489,311L495,314L506,324L513,324L517,324L518,326L521,326L522,330L524,331L525,333L528,335L528,337L528,338L528,340L529,341L530,342L530,343L531,344L533,344L533,345L534,346L535,351L547,353L548,352L550,355L547,364L535,368L524,370L520,371L517,376L515,377L514,375L513,375L509,375L508,375L503,375L502,375L501,374L500,376L500,378L498,379L498,377L497,376L496,374L494,373L492,369L491,366L488,363L486,362L484,358L483,355L484,353L481,348L479,346L477,345L476,343L476,342L475,340L474,339L472,335L470,332L468,329L466,329L467,326L467,325Z" fill="#E0E0E0" stroke="#fff" stroke-width=".4"/><path d="M458,295L459,295L459,294L462,294L466,293L463,295L463,296L463,296L462,296L462,296L461,296L461,296L461,295L460,295L459,296Z" fill="#E0E0E0" stroke="#fff" stroke-width=".4"/><path d="M458,295L459,296L460,295L461,295L461,296L461,296L462,296L462,296L463,296L463,296L463,296L459,298L457,298L456,296Z" fill="#E0E0E0" stroke="#fff" stroke-width=".4"/><path d="M319,295L321,298L321,301L323,306L324,307L323,309L318,310L316,312L314,312L313,316L309,317L307,320L304,321L300,322L294,325L294,330L293,330L293,333L291,333L289,334L288,334L286,333L283,334L281,337L280,338L278,343L273,348L271,354L270,356L269,357L260,358L260,358L261,356L262,355L263,352L263,351L264,348L267,345L268,344L269,342L269,339L271,337L273,335L276,330L276,330L278,329L282,328L285,325L287,324L290,320L289,314L291,310L291,308L294,305L298,302L301,300L303,295L304,292L307,292L310,295L314,294L318,295Z" fill="#E0E0E0" stroke="#fff" stroke-width=".4"/><path d="M475,355L459,355L444,355L428,355L428,339L428,323L426,320L427,317L427,315L428,312L434,312L437,314L441,315L443,316L446,314L448,313L451,313L454,313L455,315L456,314L459,315L462,315L464,314L467,321L467,322L466,324L465,327L464,330L463,330L462,329L460,327L457,320L457,321L458,326L461,330L464,337L465,340L467,342L470,347L469,348L469,350L474,354Z" fill="#E0E0E0" stroke="#fff" stroke-width=".4"/><path d="M428,355L428,364L423,364L423,366L407,357L391,349L387,351L384,353L382,351L376,349L374,346L371,344L369,345L368,342L368,341L365,337L367,336L366,333L367,330L367,328L367,324L367,322L366,318L368,317L368,315L368,313L370,312L372,310L374,309L374,305L378,307L380,306L383,307L389,309L391,313L394,314L400,316L404,319L406,317L408,315L407,312L408,309L411,307L414,306L419,307L421,310L422,310L423,310L427,311L428,312L427,315L427,317L426,320L428,323L428,339Z" fill="#E0E0E0" stroke="#fff" stroke-width=".4"/><path d="M518,413L507,425L502,425L498,428L496,428L495,429L492,429L490,428L487,430L486,431L483,431L482,431L481,431L480,431L475,427L472,427L471,426L471,424L469,423L466,419L464,418L464,416L462,414L459,414L461,412L463,412L463,410L463,407L464,402L466,401L467,400L468,397L471,395L472,391L473,387L478,388L479,385L481,387L484,386L485,387L487,387L491,388L492,390L494,391L495,393L497,395L495,396L494,398L494,399L494,401L496,401L497,401L498,401L497,403L499,405L500,407L502,408L515,413Z" fill="#E0E0E0" stroke="#fff" stroke-width=".4"/><path d="M497,395L498,395L500,394L500,395L500,397L498,398L500,399L498,401L497,401L496,401L494,401L494,399L494,398L495,396Z" fill="#E0E0E0" stroke="#fff" stroke-width=".4"/><path d="M523,399L523,399L523,401L523,405L523,407L521,410L518,413L515,413L502,408L500,407L499,405L497,403L498,401L500,399L501,400L502,401L504,403L506,403L509,402L514,402L517,400L519,400L521,399Z" fill="#E0E0E0" stroke="#fff" stroke-width=".4"/><path d="M463,449L455,449L451,449L449,450L447,451L446,450L446,447L447,446L447,443L448,441L449,439L451,438L452,436L451,436L451,431L452,430L455,431L458,430L461,430L463,428L465,431L466,433L468,437L466,440L464,443L463,445Z" fill="#E0E0E0" stroke="#fff" stroke-width=".4"/><path d="M449,450L451,452L450,454L449,455L447,454L446,457L444,456L444,454L445,454L445,451L446,450L447,451Z" fill="#E0E0E0" stroke="#fff" stroke-width=".4"/><path d="M402,257L398,255L397,253L395,251L394,249L393,248L391,245L392,243L393,244L394,243L396,243L399,244L402,244L404,245L405,245L404,247L406,249L406,252L405,252L404,253L403,254Z" fill="#E0E0E0" stroke="#fff" stroke-width=".4"/><path d="M417,259L419,260L419,264L419,264L418,265L416,265L414,266L412,267L410,265L410,263L410,261L411,261L411,260L413,259L414,259L415,259Z" fill="#E0E0E0" stroke="#fff" stroke-width=".4"/><path d="M403,239L406,237L409,238L411,240L411,242L414,243L414,245L416,247L417,246L418,246L418,247L418,248L417,250L418,252L420,254L418,256L417,257L418,258L417,259L415,259L414,259L414,259L414,258L415,257L414,257L413,256L413,256L412,255L411,254L411,254L410,254L410,256L409,256L409,256L408,255L406,254L406,253L405,252L406,252L406,249L404,247L405,245L404,245L405,243L404,241Z" fill="#E0E0E0" stroke="#fff" stroke-width=".4"/><path d="M408,257L407,258L407,257L405,259L405,261L404,261L403,259L402,258L402,257L403,254L404,253L405,252L406,253L406,254L408,255L409,256L409,256Z" fill="#E0E0E0" stroke="#fff" stroke-width=".4"/><path d="M410,261L410,259L409,259L408,257L409,256L410,256L410,254L411,254L411,254L412,255L413,256L413,256L414,257L415,257L414,258L414,259L414,259L413,259L411,260L411,261Z" fill="#E0E0E0" stroke="#fff" stroke-width=".4"/><path d="M83,402L85,401L86,402L86,405L82,405L82,405L83,404Z" fill="#E0E0E0" stroke="#fff" stroke-width=".4"/><path d="M451,431L447,428L446,427L444,428L442,427L441,428L439,427L437,424L436,423L433,421L432,419L431,417L428,415L428,414L426,412L423,411L424,410L426,409L427,406L428,404L431,403L431,404L433,407L435,407L436,406L439,407L439,407L443,407L443,407L446,406L446,405L447,404L451,406L453,406L455,403L457,401L457,398L456,397L458,397L458,396L460,396L460,399L460,402L462,404L463,405L463,407L463,407L463,410L463,412L461,412L459,414L462,414L464,416L464,418L466,419L469,423L466,426L463,428L461,430L458,430L455,431L452,430Z" fill="#E0E0E0" stroke="#fff" stroke-width=".4"/></g><g clip-path="url(#v)"><path d="M404.0,161.4L403.7,161.6L403.5,162.1L403.2,162.2L403.0,162.4L402.9,164.0L403.3,164.7L403.1,164.8L402.8,164.9L402.7,165.2L402.5,165.8L401.9,166.1L401.6,166.4L401.3,166.9L401.1,167.7L400.7,168.1L400.3,168.2L400.5,167.5L400.9,167.0L400.6,166.6L400.4,166.0L400.1,165.6L400.3,165.1L400.2,164.3L400.3,163.5L400.5,163.1L400.8,162.8L401.3,162.0L401.9,161.4L402.6,161.2L402.9,161.4L403.1,160.9L403.3,160.8L403.5,160.9ZM393.9,172.7L393.7,173.1L393.5,173.1L393.4,172.6L393.3,171.3L393.4,170.7L394.3,168.5L394.7,168.3L395.2,166.9L395.3,166.3L395.6,165.7L395.7,165.3L395.8,165.1L396.1,165.1L396.2,165.2L395.9,165.5L396.0,165.9L396.0,166.1L395.3,167.7L395.1,168.7L394.9,169.0ZM373.4,152.3L373.7,153.3L374.0,153.4L374.4,153.1L374.7,152.4L374.9,151.3L375.0,150.3L374.8,149.2L374.6,148.2L374.6,147.9L375.2,147.1L375.4,146.5L375.6,145.8L375.8,145.6L376.1,145.5L376.5,145.4L377.0,145.0L377.4,144.4L377.8,143.9L377.9,142.8L377.9,142.3L378.0,141.9L378.2,141.1L378.1,140.3L377.6,139.2L377.1,137.5L377.0,136.6L377.3,136.5L377.7,136.3L378.6,136.3L378.7,136.2L378.7,135.8L378.9,135.2L379.1,134.8L379.3,134.2L379.3,133.7L378.9,132.9L378.2,132.2L377.8,131.9L377.0,131.2L376.5,130.7L376.8,128.5L377.0,126.9L377.1,126.5L377.1,125.9L376.3,123.2L376.3,122.6L376.4,122.1L376.3,121.2L376.3,120.4L376.4,120.1L376.7,119.7L376.4,119.0L376.4,118.9L375.8,117.1L376.7,115.3L376.5,114.4L377.1,113.7L378.0,112.2L378.5,111.3L378.6,111.2L379,110.8L379.8,110.3L380.6,110.1L381.0,110.1L382.5,110.4L383.6,110.6L383.8,110.4L384.1,109.9L384.4,109.2L384.4,108.4L384.3,107.2L384.1,106.5L383.3,106.1L382.4,105.4L383.5,103.4L384.3,102.0L385.2,99.9L385.5,99.0L385.7,98.7L386.0,95.4L386.2,94.4L386.3,93.9L386.3,93.4L386.2,92.6L386.0,90.6L387.5,90.4L387.9,90.3L388.4,90.0L389.3,89.4L389.7,88.9L389.5,87.1L390.0,86.5L391.3,84.3L392.7,82.2L393.4,81.4L393.4,81.0L393.5,80.4L393.2,79.4L392.9,78.7L392.3,77.6L392.5,76.7L393.0,76.6L393.6,76.3L394.0,75.5L394.1,75.5L394.9,72.6L396.4,71.2L397.0,70.4L398.0,71.0L399.4,71.9L400.0,70.6L400.2,70.1L400.4,69.4L400.3,68.1L400.3,66.5L400.4,65.9L400.9,65.6L401.2,65.5L402.8,66.2L403.2,66.2L403.9,66.2L404.7,66.5L406.4,67.3L407.2,67.7L407.6,67.7L407.9,67.4L408.6,66.4L407.6,65.7L408.3,65.0L408.6,64.3L409.0,63.4L409.1,62.4L409.0,61.8L408.8,61.4L408.1,60.4L409.6,60.3L410.2,60.3L411.2,60.9L411.3,61.0L411.3,61.4L411.3,61.7L412.4,62.6L412.7,63.0L413.3,63.7L413.5,64.1L414.1,64.5L414.5,65.0L415.0,65.4L415.6,65.9L416.4,66.4L417.1,66.6L418.8,67.4L419.0,67.6L419.5,68.2L420.0,68.8L420.3,70.1L420.9,70.2L421.0,70.6L421.5,71.4L422.2,72.0L422.1,72.2L421.6,72.9L421.6,73.7L421.6,74.7L421.8,75.6L421.7,75.9L421.6,76.1L421.5,76.6L421.4,77.0L421.4,77.2L421.5,77.3L421.8,77.3L422.2,77.4L422.5,77.6L422.7,78.6L422.7,78.8L422.2,79.2L422.1,79.5L422.1,80.1L422.2,80.6L422.3,81.2L422.6,81.9L423.1,82.6L423.4,83.2L423.5,83.6L423.6,83.9L423.4,84.2L423.2,84.9L423.1,85.7L423.1,86.2L422.7,86.9L422.4,87.2L422.3,87.5L422.3,88.2L422.4,88.9L422.4,89.4L422.5,89.8L422.6,90.0L423.2,90.5L423.6,91.3L423.8,92.0L424.2,93.8L423.2,94.0L422.4,93.6L422.0,93.8L421.3,93.8L420.5,94.0L420.2,94.4L420.0,94.5L419.3,94.0L418.6,93.2L418.1,93.8L417.8,93.9L417.5,93.4L417.2,93.3L417.1,93.5L417.0,93.9L416.8,94.4L416.7,94.6L416.7,95.6L416.6,95.8L416.0,95.7L416.0,96.0L416.2,96.1L416.2,96.3L416.0,96.5L415.3,96.4L415.3,96.7L415.4,97.0L415.3,97.4L415.2,97.5L414.4,97.7L413.9,97.6L413.8,97.8L413.7,98.1L413.8,98.4L414.0,98.5L414.1,98.7L414.1,99.0L413.9,99.1L413.4,98.5L413.3,98.5L413.4,98.8L413.7,99.2L413.8,99.6L414.0,100.0L413.9,100.3L413.4,101.4L412.8,102.1L412.4,102.7L412.2,103.3L412.5,103.6L412.8,104.1L413.0,105.0L413.2,105.8L413.7,106.5L413.6,106.9L413.5,107.3L412.7,108.0L411.7,109.1L410.7,112.0L410.4,112.3L409.5,112.8L409.2,113.3L408.5,113.8L407.3,114.3L406.8,114.9L406.6,115.6L406.3,115.6L406.0,115.4L405.7,115.2L405.7,115.6L405.7,115.9L405.1,115.5L404.8,115.9L404.6,116.6L403.8,117.6L403.0,117.4L402.9,117.6L403.1,117.7L403.1,117.9L403.0,117.9L402.7,117.9L402.4,118.1L402.1,118.1L402.0,118.6L401.8,119.1L401.3,119.4L401.1,119.4L401.0,119.7L401.7,119.8L401.7,120.0L401.6,120.3L401.6,120.6L400.7,121.0L400.6,121.3L400.4,121.5L400.0,121.5L400.0,121.3L400.1,121.1L399.5,121.1L399.4,120.7L399.2,120.8L399.3,121.2L399.5,121.5L399.6,122.1L399.5,122.5L399.3,122.6L399.4,122.8L399.7,122.9L399.9,123.2L399.5,123.3L399.1,124.0L398.6,124.0L398.3,124.4L398.0,124.4L397.8,124.2L397.4,123.9L397.3,124.4L397.2,124.7L397.5,125.4L397.9,126.0L398.3,126.3L398.0,126.5L397.8,126.9L397.5,128.1L397.4,128.6L397.2,129.4L397.3,130.1L397.4,130.5L397.6,131.0L397.1,130.9L396.5,130.6L396.6,131.2L396.3,131.9L396.3,132.5L396.4,132.8L396.3,133.5L396.4,133.7L396.5,134.1L396.4,134.3L396.5,134.6L396.5,135.4L396.6,136.8L396.5,137.0L396.9,138.2L396.8,138.6L396.7,139.1L397.2,139.6L397.6,139.6L398.0,139.6L398.1,139.7L398.3,140.0L398.4,140.4L398.7,140.4L399.2,140.1L399.5,140.0L399.8,140.6L400.4,141.5L400.7,141.8L401.3,142.0L401.9,142.7L401.9,143.5L402.1,143.8L402.9,144.1L403.1,144.5L403.2,144.9L403.4,145.2L403.7,146.1L403.6,146.6L403.3,146.8L402.6,147.4L402.3,147.9L402.0,148.2L401.3,148.7L401.1,148.9L400.8,149.2L400.6,149.3L400.4,149.2L399.6,149.8L399.6,150.0L400.2,150.1L400.6,150.0L400.8,149.7L401.1,149.6L401.3,149.7L401.5,149.5L401.7,149.4L401.9,149.5L402.2,150.0L401.7,150.3L401.4,150.3L401.2,151.2L401.0,151.5L400.9,151.7L400.1,152.1L399.6,152.5L399.0,152.9L398.8,152.8L398.4,153.2L397.6,153.7L397.1,154.3L396.1,154.8L395.7,155.2L394.3,155.2L393.0,155.1L392.6,155.4L393.0,155.4L393.3,155.6L393.7,155.5L394.5,155.6L394.9,155.7L395.4,156.5L395.0,156.7L394.4,156.9L394.6,157.9L394.8,158.6L394.5,159.0L394.5,160.8L394.1,160.8L394.0,161.6L394.1,162.0L394.1,162.9L394.2,163.4L394.4,163.9L394.3,164.4L393.7,165.6L393.7,166.2L393.8,166.6L393.9,167.1L393.6,168.1L393.4,169.0L393.2,169.7L392.6,170.6L392.4,171.2L391.8,173.2L391.4,173.6L391.1,173.9L390.7,173.6L390.3,173.5L389.8,173.5L389.1,173.7L388.0,173.6L386.9,173.6L386.6,173.8L386.8,174.6L386.4,174.7L386.0,174.4L385.7,174.7L385.4,175.0L384.8,175.6L384.7,176.0L384.6,176.7L384.9,177.4L385.2,178.1L384.5,179.1L384.1,179.1L383.0,178.8L381.1,179.4L379.4,178.9L379.6,178.5L379.6,178.1L379.7,177.5L379.7,177.0L379.7,176.6L379.6,176.2L379.2,175.6L378.2,173.8L377.9,173.0L377.7,172.7L377.9,172.7L378.7,173.1L378.8,173.1L379.0,172.9L378.8,172.3L378.6,172.0L378.5,171.6L378.9,171.5L379.3,171.6L379.5,171.1L379.4,170.4L379,170.1L378.7,170.0L378.1,168.9L377.5,168.3L376.4,165.9L376.1,164.3L375.7,164.5L375.5,163.7L375.4,163.1L375.4,162.6L374.8,162.3L374.8,161.9L374.7,160.4L374.1,160.2L373.7,159.3L373.6,157.6L373.2,157.3L372.9,157.4L372.9,157.0L372.9,156.6L372.8,155.0L372.7,153.6L372.5,153.2L372.5,152.7L372.5,152.2L372.6,152.0L373.0,151.9ZM404.3,160.8L404.3,161.2L404.0,161.2L403.9,160.9L404.2,160.3L404.8,160.3L405.0,160.5ZM401.4,152.3L401.2,152.4L401.1,152.4L401.2,152.0L401.3,151.9L401.6,151.7L401.6,151.8ZM402.1,148.9L402.0,149.2L401.9,148.8L401.9,148.8L402.0,148.5L402.2,148.3L402.5,148.4L402.5,148.5L402.2,148.7Z" fill="#4ECDC4" stroke="#2C3E50" stroke-width="1"/></g><circle cx="400.0" cy="150.0" r="4" fill="#E74C3C" stroke="#fff" stroke-width="2"/><text x="400.0" y="140.0" text-anchor="middle" font-family="sans-serif" font-weight="700" font-size="10" fill="#2D3436">Stockholm</text></svg>