<svg viewBox="0 0 800 300" xmlns="http://www.w3.org/2000/svg"><defs><clipPath id="v"><rect width="800" height="300"/></clipPath></defs><rect width="800" height="300" fill="#DCEEF8"/><g clip-path="url(#v)"><path d="M2996,426L2997,654L2998,883L2936,825L2865,811L2848,831L2759,834L2789,776L2833,757L2815,680L2781,621L2646,562L2588,556L2484,491L2463,525L2436,532L2420,506L2420,476L2367,441L2442,416L2492,417L2486,399L2383,399L2356,357L2293,344L2264,310L2358,293L2394,270L2506,299L2517,325L2537,438L2609,479L2667,405L2747,363L2809,363L2869,387L2921,413ZM1877,868L1884,882L1885,903L1839,956L1780,971L1771,963L1778,939L1807,896ZM2522,727L2515,674L2527,649L2542,625L2558,645L2558,679ZM1382,-45L1342,18L1393,85L1381,117L1460,181L1377,190L1354,237L1357,300L1289,348L1288,418L1261,525L1250,500L1171,531L1143,488L1094,484L1059,462L976,487L950,453L905,457L847,449L836,355L802,336L768,276L758,215L766,151L808,104L820,151L867,190L912,176L957,181L998,146L1031,140L1097,159L1154,144L1190,47L1217,23L1241,-57L1321,-57ZM2184,440L2261,460L2286,514L2227,485L2169,479L2129,484L2081,481L2097,443ZM2009,509L1961,496L1948,466L2018,463L2036,486ZM2083,92L2088,131L2130,137L2136,165L2132,226L2096,219L2086,262L2115,299L2095,307L2067,263L2046,174L2060,118ZM1734,183L1814,180L1883,129L1895,145L1839,214L1787,228L1720,214L1603,218L1542,228L1532,280L1595,343L1632,311L1763,287L1757,319L1727,309L1696,350L1635,377L1701,467L1688,491L1751,572L1750,618L1713,638L1686,614L1719,556L1651,583L1634,564L1643,537L1592,496L1598,428L1551,449L1557,531L1560,631L1515,641L1485,620L1505,556L1495,488L1465,488L1443,440L1472,394L1482,339L1517,233L1532,205L1592,153L1646,173ZM1550,964L1458,915L1523,901L1559,922L1584,944L1579,963ZM1623,842L1670,837L1732,811L1722,850L1617,871L1524,862L1524,836L1579,821ZM1408,830L1451,824L1469,854L1388,869L1339,878L1302,877L1326,837L1364,836L1383,811ZM726,694L735,719L869,726L885,697L1014,730L1039,776L1144,789L1230,831L1150,858L1073,829L1010,831L938,826L872,813L792,786L740,779L711,788L584,759L572,729L508,724L556,657L640,661L697,688ZM438,320L450,369L475,408L526,414L560,458L542,545L539,654L462,655L403,596L314,539L284,497L231,440L196,387L143,290L82,231L61,171L36,117L-27,73L-64,13L-116,-26L-189,-103L-195,-139L-150,-136L-42,-122L19,-54L73,-7L112,23L178,98L249,99L308,147L348,205L401,237L373,294L413,318Z" fill="#E0E0E0" stroke="#fff" stroke-width=".4"/><path d="M498,-763L432,-773L342,-759L297,-699L314,-613L251,-646L191,-645L202,-701L140,-700L135,-622L97,-518L74,-455L79,-404L125,-401L153,-337L165,-276L204,-236L247,-227L283,-191L260,-162L214,-154L208,-190L151,-220L139,-208L112,-235L100,-270L63,-310L29,-343L17,-302L4,-341L12,-385L32,-453L66,-526L104,-592L77,-657L78,-690L70,-731L24,-788L7,-824L31,-837L57,-900L28,-949L-16,-1002L-50,-1066L-21,-1080L11,-1160L61,-1163L101,-1195L141,-1212L172,-1189L176,-1145L223,-1141L206,-1064L207,-998L281,-1042L302,-1029L343,-1031L357,-1056L410,-1051L463,-992L467,-920L523,-856L520,-795Z" fill="#E0E0E0" stroke="#fff" stroke-width=".4"/><path d="M139,-208L151,-220L208,-190L214,-154L260,-162L283,-191L299,-184L340,-142L369,-95L373,-48L366,-16L373,8L378,49L402,69L430,130L429,154L379,159L313,107L230,51L222,16L182,-31L172,-89L147,-127L155,-178ZM1382,-45L1321,-57L1241,-57L1217,23L1190,47L1154,144L1097,159L1031,140L998,146L957,181L912,176L867,190L820,151L808,104L859,128L913,115L927,56L957,43L1041,28L1091,-28L1125,-72L1157,-36L1171,-60L1205,-57L1209,-102L1212,-137L1266,-185L1301,-240L1329,-241L1365,-205L1368,-174L1414,-155L1472,-134L1467,-106L1421,-103L1433,-69Z" fill="#E0E0E0" stroke="#fff" stroke-width=".4"/></g><g clip-path="url(#v)"><path d="M410.5,151.2L400.0,155.9L388.2,151.7L391.9,144.8L400.0,143.2L406.3,145.4L409.8,147.0L412.3,148.9Z" fill="#4ECDC4" stroke="#2C3E50" stroke-width="1"/></g><circle cx="400.0" cy="150.0" r="4" fill="#E74C3C" stroke="#fff" stroke-width="2"/><text x="400.0" y="140.0" text-anchor="middle" font-family="sans-serif" font-weight="700" font-size="10" fill="#2D3436">Singapore</text></svg>