<svg viewBox="0 0 800 300" xmlns="http://www.w3.org/2000/svg"><defs><clipPath id="v"><rect width="800" height="300"/></clipPath></defs><rect width="800" height="300" fill="#DCEEF8"/><g clip-path="url(#v)"><path d="M1426,-399L1448,-395L1463,-417L1481,-412L1543,-421L1581,-367L1566,-347L1571,-318L1618,-313L1639,-272L1638,-254L1713,-221L1759,-236L1795,-192L1830,-193L1918,-163L1918,-137L1894,-89L1907,-40L1898,-10L1840,-4L1810,21L1808,60L1761,67L1721,95L1665,100L1614,132L1617,178L1608,175L1601,158L1582,155L1539,136L1524,158L1516,148L1423,127L1419,94L1364,105L1342,152L1296,215L1269,201L1241,214L1215,199L1230,190L1240,160L1257,133L1252,118L1265,111L1270,123L1305,125L1321,119L1310,110L1314,97L1293,75L1285,39L1263,24L1268,-6L1241,-30L1216,-33L1173,-61L1133,-52L1119,-39L1094,-39L1079,-18L1035,-9L1015,4L987,-17L949,-18L913,-28L887,-9L883,-32L850,-57L861,-93L878,-116L891,-111L876,-152L929,-229L959,-240L965,-266L935,-348L964,-352L996,-378L1042,-380L1102,-373L1169,-350L1215,-348L1238,-334L1260,-351L1276,-328L1329,-333L1353,-324L1357,-372L1375,-393Z" fill="#E0E0E0" stroke="#fff" stroke-width=".4"/><path d="M933,-577L935,-533L952,-495L951,-456L916,-436L934,-391L935,-348L965,-266L959,-240L929,-229L876,-152L891,-111L878,-116L822,-151L779,-138L751,-148L716,-128L686,-161L661,-148L658,-154L631,-199L586,-205L581,-234L540,-244L531,-220L499,-239L503,-265L458,-273L430,-304L406,-364L410,-398L396,-450L374,-484L391,-511L377,-562L417,-591L510,-638L585,-673L644,-656L649,-631L706,-629L779,-618L888,-619L919,-608Z" fill="#E0E0E0" stroke="#fff" stroke-width=".4"/><path d="M547,-30L542,6L509,6L520,26L500,82L489,96L437,98L407,118L358,111L273,89L260,59L201,74L195,91L158,78L128,76L101,60L110,38L108,23L126,18L156,42L164,19L217,23L259,7L288,10L306,28L312,13L303,-45L325,-56L346,-97L390,-69L423,-105L444,-112L490,-85L518,-89L546,-72L541,-61Z" fill="#E0E0E0" stroke="#fff" stroke-width=".4"/><path d="M850,-57L883,-32L887,-9L851,10L823,69L787,128L739,144L702,140L657,163L634,176L585,159L541,123L522,112L511,83L500,82L520,26L509,6L542,6L547,-30L577,-7L599,2L649,-9L653,-26L677,-29L706,-43L712,-37L740,-48L754,-69L774,-75L837,-47Z" fill="#E0E0E0" stroke="#fff" stroke-width=".4"/><path d="M1215,199L1241,214L1269,201L1296,215L1298,237L1269,255L1251,247L1234,347L1199,339L1156,309L1086,328L1057,349L969,344L924,332L901,338L884,304L873,289L887,275L872,265L853,284L819,259L814,225L778,205L771,178L739,144L787,128L823,69L851,10L887,-9L913,-28L949,-18L987,-17L1015,4L1035,-9L1079,-18L1094,-39L1119,-39L1137,-30L1155,-4L1174,33L1209,85L1211,123L1204,160Z" fill="#E0E0E0" stroke="#fff" stroke-width=".4"/><path d="M377,-562L391,-511L374,-484L396,-450L410,-398L406,-364L430,-304L404,-294L388,-305L373,-286L330,-268L308,-245L265,-225L276,-197L282,-158L312,-136L346,-97L325,-56L303,-45L312,13L306,28L288,10L259,7L217,23L164,19L156,42L126,18L108,23L45,-4L32,15L-18,15L-11,-49L19,-110L-66,-127L-94,-151L-91,-191L-103,-212L-96,-275L-106,-375L-70,-375L-55,-411L-41,-501L-51,-534L-40,-555L10,-561L21,-539L61,-588L48,-626L45,-685L90,-671L128,-687L129,-647L189,-623L188,-587L248,-606L282,-634L349,-594Z" fill="#E0E0E0" stroke="#fff" stroke-width=".4"/><path d="M884,304L901,338L924,332L969,344L1057,349L1086,328L1156,309L1199,339L1234,347L1203,381L1182,439L1201,485L1150,474L1089,499L1089,539L1035,546L993,519L945,540L901,538L897,486L867,460L877,448L871,439L881,413L903,388L874,352L869,322Z" fill="#E0E0E0" stroke="#fff" stroke-width=".4"/><path d="M1099,996L1092,1017L1006,1023L1007,1011L935,997L946,966L978,991L1024,986L1069,992L1067,1004ZM901,538L945,540L993,519L1035,546L1089,539L1089,499L1118,520L1100,570L1086,579L1049,576L1018,569L947,589L988,633L957,646L925,646L893,606L882,623L895,669L925,705L903,722L936,757L965,779L966,822L911,802L928,840L891,848L913,913L874,914L825,882L803,822L792,772L769,737L739,694L735,672L763,634L766,609L785,598L786,577L825,570L848,553L880,555L890,541Z" fill="#E0E0E0" stroke="#fff" stroke-width=".4"/><path d="M786,577L785,598L766,609L763,634L735,672L725,666L724,649L691,623L686,586L690,532L699,508L689,495L685,470L710,430L714,445L730,438L743,460L757,468L761,497L754,524L762,558Z" fill="#E0E0E0" stroke="#fff" stroke-width=".4"/><path d="M522,112L541,123L585,159L634,176L657,163L671,196L690,220L667,252L640,233L599,234L548,220L520,222L507,240L486,220L474,255L503,294L516,320L543,351L565,369L588,403L640,433L634,447L578,417L544,388L489,364L440,303L452,297L424,262L423,233L385,220L367,256L349,228L351,199L353,198L394,201L405,186L425,200L449,202L448,178L469,169L475,135Z" fill="#E0E0E0" stroke="#fff" stroke-width=".4"/><path d="M108,23L110,38L101,60L128,76L158,78L154,114L128,128L84,117L71,152L43,155L32,141L-1,170L-30,174L-55,156L-76,118L-104,132L-103,93L-60,44L-62,22L-35,30L-18,15L32,15L45,-4Z" fill="#E0E0E0" stroke="#fff" stroke-width=".4"/><path d="M-103,-212L-91,-191L-94,-151L-111,-149L-125,-157L-118,-208Z" fill="#E0E0E0" stroke="#fff" stroke-width=".4"/><path d="M-96,-275L-103,-212L-118,-208L-125,-157L-177,-199L-207,-192L-249,-235L-276,-273L-304,-274L-312,-307L-265,-326L-221,-319L-166,-338L-129,-297Z" fill="#E0E0E0" stroke="#fff" stroke-width=".4"/><path d="M158,78L195,91L201,74L260,59L273,89L358,111L352,154L366,190L319,178L270,208L274,249L266,273L286,316L342,357L372,424L438,489L484,489L499,506L482,522L535,551L579,574L630,615L636,630L625,657L592,621L540,608L515,659L558,687L551,727L526,732L494,797L470,803L470,779L482,739L495,722L472,678L454,639L429,629L412,596L373,582L348,550L304,545L257,509L203,457L163,411L144,330L115,320L66,293L39,304L5,342L-20,348L-13,313L-45,302L-61,238L-40,212L-58,180L-55,156L-30,174L-1,170L32,141L43,155L71,152L84,117L128,128L154,114ZM415,785L460,778L439,837L447,861L435,899L390,871L359,863L277,825L285,786L354,793ZM56,573L85,548L121,604L112,706L86,701L61,727L39,707L37,613L23,569Z" fill="#E0E0E0" stroke="#fff" stroke-width=".4"/><path d="M878,-116L861,-93L850,-57L837,-47L774,-75L754,-69L740,-48L712,-37L706,-43L677,-29L653,-26L649,-9L599,2L577,-7L547,-30L541,-61L546,-72L554,-92L580,-91L601,-100L602,-108L614,-113L617,-133L631,-137L640,-154L658,-154L661,-148L686,-161L716,-128L751,-148L779,-138L822,-151Z" fill="#E0E0E0" stroke="#fff" stroke-width=".4"/><path d="M430,-304L458,-273L503,-265L499,-239L531,-220L540,-244L581,-234L586,-205L631,-199L658,-154L640,-154L631,-137L617,-133L614,-113L602,-108L601,-100L580,-91L554,-92L546,-72L518,-89L490,-85L444,-112L423,-105L390,-69L346,-97L312,-136L282,-158L276,-197L265,-225L308,-245L330,-268L373,-286L388,-305L404,-294Z" fill="#E0E0E0" stroke="#fff" stroke-width=".4"/><path d="M640,433L588,403L565,369L543,351L516,320L503,294L474,255L486,220L507,240L520,222L548,220L599,234L640,233L667,252L688,251L674,288L702,320L693,359L680,362L668,370L649,389Z" fill="#E0E0E0" stroke="#fff" stroke-width=".4"/><path d="M867,460L897,486L901,538L890,541L880,555L848,553L825,570L786,577L762,558L754,524L761,497L769,498L771,481L806,469L820,466L840,461Z" fill="#E0E0E0" stroke="#fff" stroke-width=".4"/><path d="M657,163L702,140L739,144L771,178L778,205L814,225L819,259L853,284L872,265L887,275L873,289L884,304L869,322L874,352L903,388L881,413L871,439L877,448L867,460L840,461L820,466L818,460L825,450L831,431L823,431L811,416L802,412L794,399L783,394L774,383L764,387L755,414L741,420L746,413L723,396L704,388L695,376L680,362L693,359L702,320L674,288L688,251L667,252L690,220L671,196Z" fill="#E0E0E0" stroke="#fff" stroke-width=".4"/><path d="M730,438L714,445L710,430L685,470L689,495L676,489L659,463L634,447L640,433L649,389L668,370L680,362L695,376L704,388L723,396L746,413L741,420Z" fill="#E0E0E0" stroke="#fff" stroke-width=".4"/><path d="M761,497L757,468L743,460L730,438L741,420L755,414L764,387L774,383L783,394L794,399L802,412L811,416L823,431L831,431L825,450L818,460L820,466L806,469L771,481L769,498Z" fill="#E0E0E0" stroke="#fff" stroke-width=".4"/></g><g clip-path="url(#v)"><path d="M519.1,112.2L513.9,110.1L507.5,109.2L506.4,110.3L503.9,111.5L502.6,113.6L503.5,121.8L502.0,123.2L494.7,122.4L492.3,123.3L488.5,129.0L484.4,131.4L479.5,133.0L475.7,135.1L471.0,136.9L466.9,137.9L465.2,140.5L464.3,143.1L464.6,145.8L468.6,151.0L469.3,156.5L468.8,163.3L467.8,166.9L466.3,169.2L456.0,172.4L445.5,178.0L445.3,179.2L450.0,184.2L450.2,185.3L446.4,188.1L446.0,190.9L446.4,194.2L448.5,197.4L449.2,200.5L443.4,202.6L435.7,201.8L426.5,197.7L423.1,198.3L420.1,200.5L416.9,199.5L413.3,197.0L408.3,191.7L405.8,188.3L404.9,184.9L403.4,184.3L401.5,185.3L399.8,189.6L395.1,197.1L391.7,199.2L386.5,198.7L379.3,198.9L374.8,199.6L369.2,196.8L367.9,197.4L367.9,199.2L365.8,202.0L362.6,203.7L346.8,199.6L344.6,196.2L348.3,194.6L353.2,190.2L356.4,190.8L360.5,189.8L362.4,188L359.6,182.4L353.2,175.5L349.8,172.9L345.1,171.2L344.2,169.2L346.8,158.4L345.9,156.8L340.6,157.4L339.3,156.2L338.9,154.3L339.3,151.8L342.9,147.5L347.0,143.7L348.1,141.7L347.8,140.0L342.7,138.2L339.5,136.6L337.2,136.0L335.4,136.9L334.2,135.8L332.9,132.7L334.2,127.9L338.6,123.5L343.8,119.6L348.3,116.6L350.6,115.4L351.9,110.4L354.5,110.9L359.8,111.2L365.6,112.4L370.9,113.7L375.6,115.5L385.7,117.3L394.7,118.4L397.4,119.4L399.6,119.3L402.3,120.8L404.1,119.7L405.1,117.8L410.0,115.4L414.7,112.2L417.7,108.3L419.7,105.2L422.7,103.1L426.1,102.3L429.1,101.3L441.9,99.8L455.1,101L461.6,98.9L466.7,95.0L474.2,93.9L474.6,93.9L485.9,96.8L486.8,95.1L487.2,94.4L487.0,86.1L490.6,82.3L494.0,80.7L505.4,81.3L506.9,83.9L507.3,87.8L508.4,93.0L510.3,94.5L511.4,96.6L511.1,100.2L513.3,103.0L518.4,110.3Z" fill="#4ECDC4" stroke="#2C3E50" stroke-width="1"/></g><circle cx="400.0" cy="150.0" r="4" fill="#E74C3C" stroke="#fff" stroke-width="2"/><text x="400.0" y="140.0" text-anchor="middle" font-family="sans-serif" font-weight="700" font-size="10" fill="#2D3436">Ljubljana</text></svg>