<svg viewBox="0 0 800 300" xmlns="http://www.w3.org/2000/svg"><defs><clipPath id="v"><rect width="800" height="300"/></clipPath></defs><rect width="800" height="300" fill="#DCEEF8"/><g clip-path="url(#v)"><path d="M883,-423L929,-403L935,-384L958,-393L1001,-375L1005,-339L996,-318L1023,-269L1041,-255L1039,-242L1068,-229L1081,-210L1064,-194L1028,-196L1020,-189L1030,-165L1041,-119L1003,-115L990,-100L987,-64L970,-71L930,-68L919,-84L903,-72L886,-82L852,-83L803,-100L759,-106L725,-104L701,-85L680,-82L679,-114L666,-147L692,-162L692,-190L680,-218L678,-251L721,-250L768,-278L778,-321L814,-345L810,-380L836,-393Z" fill="#E0E0E0" stroke="#fff" stroke-width=".4"/><path d="M1041,-119L1057,-117L1068,-133L1081,-129L1127,-136L1155,-96L1144,-82L1147,-60L1182,-56L1198,-26L1197,-13L1252,11L1286,0L1313,32L1338,32L1403,54L1403,73L1385,108L1395,145L1388,166L1346,171L1323,189L1322,218L1287,223L1258,244L1217,247L1180,271L1182,304L1175,302L1169,290L1156,288L1124,274L1113,290L1107,283L1039,267L1036,243L996,251L979,286L946,332L926,321L905,331L886,320L897,313L904,292L916,272L913,260L922,255L927,264L952,266L964,261L956,255L959,245L944,229L937,202L921,192L925,170L905,152L887,150L855,129L826,136L815,145L797,145L786,161L754,167L739,177L718,161L690,161L663,154L645,168L642,150L617,132L626,105L638,88L647,92L636,62L676,6L698,-2L702,-22L680,-82L701,-85L725,-104L759,-106L803,-100L852,-83L886,-82L903,-72L919,-84L930,-68L970,-71L987,-64L990,-100L1003,-115Z" fill="#E0E0E0" stroke="#fff" stroke-width=".4"/><path d="M678,-251L680,-218L692,-190L692,-162L666,-147L679,-114L680,-82L702,-22L698,-2L676,6L636,62L647,92L638,88L596,62L565,72L544,65L518,79L496,56L479,65L476,61L456,27L424,23L419,2L389,-6L383,12L359,-2L362,-21L329,-27L309,-49L291,-94L294,-119L283,-157L267,-183L280,-202L269,-239L299,-261L367,-296L422,-321L466,-308L469,-290L511,-289L565,-281L646,-282L668,-274Z" fill="#E0E0E0" stroke="#fff" stroke-width=".4"/><path d="M394,152L391,178L366,179L375,193L360,234L352,245L314,246L292,261L256,256L193,239L183,217L140,228L135,240L109,231L86,230L67,218L73,202L72,191L85,187L107,205L113,188L152,191L183,179L204,181L218,194L222,183L215,141L231,133L247,102L279,123L304,96L319,91L353,112L373,108L394,121L390,129Z" fill="#E0E0E0" stroke="#fff" stroke-width=".4"/><path d="M617,132L642,150L645,168L618,181L597,225L571,268L536,280L509,277L475,294L459,303L423,291L390,264L376,256L368,235L360,234L375,193L366,179L391,178L394,152L416,168L433,176L469,168L473,155L490,153L511,142L516,147L537,138L547,123L561,119L608,139Z" fill="#E0E0E0" stroke="#fff" stroke-width=".4"/><path d="M815,145L826,136L855,129L887,150L905,152L925,170L921,192L937,202L944,229L959,245L956,255L964,261L952,266L927,264L922,255L913,260L916,272L904,292L897,313L886,320L878,291L883,264L881,237L856,198L842,171L829,152Z" fill="#E0E0E0" stroke="#fff" stroke-width=".4"/><path d="M886,320L905,331L926,321L946,332L947,348L925,361L912,355L900,429L874,423L843,401L791,415L769,430L705,427L672,418L655,422L642,397L634,386L644,376L634,368L620,382L594,364L591,339L564,324L560,304L536,280L571,268L597,225L618,181L645,168L663,154L690,161L718,161L739,177L754,167L786,161L797,145L815,145L829,152L842,171L856,198L881,237L883,264L878,291Z" fill="#E0E0E0" stroke="#fff" stroke-width=".4"/><path d="M269,-239L280,-202L267,-183L283,-157L294,-119L291,-94L309,-49L289,-42L278,-50L267,-37L235,-24L219,-6L187,9L195,29L200,57L222,73L247,102L231,133L215,141L222,183L218,194L204,181L183,179L152,191L113,188L107,205L85,187L72,191L25,171L16,185L-21,184L-16,138L6,93L-56,80L-77,63L-74,33L-83,18L-78,-28L-86,-102L-59,-102L-48,-128L-38,-194L-46,-219L-37,-235L-1,-239L8,-222L37,-259L27,-287L25,-330L58,-320L86,-331L87,-302L131,-284L131,-258L175,-272L200,-292L249,-263Z" fill="#E0E0E0" stroke="#fff" stroke-width=".4"/><path d="M642,397L655,422L672,418L705,427L769,430L791,415L843,401L874,423L900,429L877,454L861,497L875,530L838,523L793,541L793,570L753,576L722,555L687,571L655,570L652,531L630,512L637,504L633,497L640,478L657,459L635,433L632,411Z" fill="#E0E0E0" stroke="#fff" stroke-width=".4"/><path d="M571,598L570,613L556,622L553,640L533,668L525,664L524,651L500,632L496,605L500,565L506,547L499,538L496,519L515,490L518,501L529,496L539,512L549,518L552,539L546,559L553,584Z" fill="#E0E0E0" stroke="#fff" stroke-width=".4"/><path d="M376,256L390,264L423,291L459,303L475,294L486,318L500,336L483,359L463,345L433,346L395,336L375,337L365,350L350,336L341,361L362,390L372,409L391,432L408,445L425,470L463,492L458,503L417,481L392,459L352,441L316,397L324,392L304,366L304,345L275,336L262,362L249,342L250,320L252,319L282,321L290,311L305,321L322,322L322,305L337,298L341,273Z" fill="#E0E0E0" stroke="#fff" stroke-width=".4"/><path d="M72,191L73,202L67,218L86,230L109,231L105,257L86,268L54,260L44,286L24,288L16,278L-8,299L-30,302L-48,288L-63,261L-84,271L-83,242L-52,206L-53,190L-33,196L-21,184L16,185L25,171Z" fill="#E0E0E0" stroke="#fff" stroke-width=".4"/><path d="M-83,18L-74,33L-77,63L-90,64L-99,58L-95,21Z" fill="#E0E0E0" stroke="#fff" stroke-width=".4"/><path d="M-78,-28L-83,18L-95,21L-99,58L-138,28L-160,33L-191,1L-211,-27L-231,-28L-237,-52L-202,-66L-170,-61L-130,-75L-102,-45Z" fill="#E0E0E0" stroke="#fff" stroke-width=".4"/><path d="M-46,-219L-38,-194L-48,-128L-59,-102L-86,-102L-78,-28L-102,-45L-130,-75L-170,-61L-202,-66L-180,-85L-142,-191L-82,-221Z" fill="#E0E0E0" stroke="#fff" stroke-width=".4"/><path d="M109,231L135,240L140,228L183,217L193,239L256,256L251,287L261,313L227,304L191,327L194,357L188,375L203,406L244,436L266,486L314,533L348,533L359,546L347,558L386,579L418,596L455,626L460,637L452,657L427,631L389,621L371,658L403,679L397,709L379,712L356,760L338,764L338,747L347,717L356,705L339,673L326,644L308,637L295,612L267,602L248,578L216,574L181,548L142,510L112,476L98,416L77,409L41,389L21,397L-4,426L-22,430L-17,404L-41,396L-52,348L-37,330L-50,306L-48,288L-30,302L-8,299L16,278L24,288L44,286L54,260L86,268L105,257ZM297,751L331,746L315,790L321,807L312,835L279,814L257,808L196,780L202,752L253,757ZM33,595L55,577L81,618L75,693L55,690L37,708L21,694L19,625L9,592Z" fill="#E0E0E0" stroke="#fff" stroke-width=".4"/><path d="M256,256L292,261L314,246L352,245L360,234L368,235L376,256L341,273L337,298L322,305L322,322L305,321L290,311L282,321L252,319L261,313L251,287Z" fill="#E0E0E0" stroke="#fff" stroke-width=".4"/><path d="M309,-49L329,-27L362,-21L359,-2L383,12L389,-6L419,2L424,23L456,27L476,61L463,61L456,73L446,76L444,91L435,94L434,100L419,107L400,106L394,121L373,108L353,112L319,91L304,96L279,123L247,102L222,73L200,57L195,29L187,9L219,-6L235,-24L267,-37L278,-50L289,-42Z" fill="#E0E0E0" stroke="#fff" stroke-width=".4"/><path d="M463,492L425,470L408,445L391,432L372,409L362,390L341,361L350,336L365,350L375,337L395,336L433,346L463,345L483,359L499,359L488,386L509,409L502,438L492,440L484,446L470,460Z" fill="#E0E0E0" stroke="#fff" stroke-width=".4"/><path d="M475,294L509,277L536,280L560,304L564,324L591,339L594,364L620,382L634,368L644,376L634,386L642,397L632,411L635,433L657,459L640,478L633,497L637,504L630,512L610,513L595,516L594,512L599,505L604,490L598,491L589,480L582,477L576,467L568,464L562,455L554,459L548,478L538,483L541,478L524,465L510,459L504,451L492,440L502,438L509,409L488,386L499,359L483,359L500,336L486,318Z" fill="#E0E0E0" stroke="#fff" stroke-width=".4"/><path d="M529,496L518,501L515,490L496,519L499,538L490,533L477,514L458,503L463,492L470,460L484,446L492,440L504,451L510,459L524,465L541,478L538,483Z" fill="#E0E0E0" stroke="#fff" stroke-width=".4"/><path d="M552,539L549,518L539,512L529,496L538,483L548,478L554,459L562,455L568,464L576,467L582,477L589,480L598,491L604,490L599,505L594,512L595,516L585,519L560,528L557,540Z" fill="#E0E0E0" stroke="#fff" stroke-width=".4"/></g><g clip-path="url(#v)"><path d="M637.0,89.1L636.4,91.9L634.7,95.0L632.5,98.3L630.6,102.3L628.1,110.8L626.5,114.8L619.7,122.5L619.3,133.2L618.3,134.0L603.4,137.7L601.3,137.1L599.3,135.1L598.2,133.5L597.4,132.4L596.2,129.5L594.4,127.3L591.9,125.6L589.6,123.6L586.6,123.5L578.4,126.4L572.7,126.6L569.1,125.7L564.1,124.0L554.3,123.7L547.6,125.2L547.0,127.3L540.8,140.4L531.9,145.3L524,150.2L521.8,151.2L517.9,149.6L513.5,146.8L509.9,145.2L507.2,145.9L504.2,149.2L502.9,152.6L494.1,155.1L478.7,156.4L473.4,159.7L471.6,163.8L471.5,166.7L472.9,169.3L471.2,172.4L470.6,173.6L459.7,174.3L445.2,175.2L436.6,175.0L428.4,174.8L422.9,172.2L416.2,167.1L409.1,160.4L408.3,160.2L407.4,159.5L402.8,159.1L401.7,159.4L399.0,157.2L398.2,154.4L394.0,146.9L389.3,134.5L389.3,130.8L391.0,126.8L392.7,123.6L392.9,121.2L393.2,120.5L394.6,115.4L397.9,108.5L401.1,104.4L403.4,103.2L408.1,104.3L416.3,105.4L422.4,104.4L428.3,101.3L431.4,98.7L434.2,95.8L435.0,93.9L436.3,93.1L441.2,91.5L442.6,89.5L443.2,86.0L443.7,81.9L444.6,78.9L445.9,76.7L454.8,71.5L455.6,69.6L457.0,67.7L459.7,65.7L462.2,62.8L464.9,61.1L468.3,61.2L471.6,60.8L474.2,59.8L475.3,59.7L479.8,60.6L480.6,63.9L481.1,67.4L489.1,67.1L493.5,59.7L495.7,58.7L499.5,56.2L501.8,53.8L503.4,55.4L505.9,60.1L508.4,64.0L509.9,65.5L510.0,66.7L511.6,67.4L514.4,67.8L516.3,69.0L516.9,72.6L516.9,75.9L516.0,78.2L515.5,80.3L517.6,81.1L520.5,80.3L522.6,79.1L528.7,81.8L530.9,75.9L533.3,72.7L536.6,71.3L539.4,69.5L542.1,68.2L543.8,68.2L544.6,67.7L547.0,67.8L549.5,68.4L553.1,67.7L558.0,69.2L561.1,71.9L564.1,72.8L567.5,72.7L569.9,71.2L573.4,66.0L575.9,66.0L579.7,65.2L585.2,65.3L597.7,66.3L601.0,68.4L608.7,71.0L612.2,73.9L613.6,77.5L614.4,79.9L622.4,83.6L634.2,88.5Z" fill="#4ECDC4" stroke="#2C3E50" stroke-width="1"/></g><circle cx="400.0" cy="150.0" r="4" fill="#E74C3C" stroke="#fff" stroke-width="2"/><text x="400.0" y="140.0" text-anchor="middle" font-family="sans-serif" font-weight="700" font-size="10" fill="#2D3436">Bratislava</text></svg>