<svg viewBox="0 0 800 300" xmlns="http://www.w3.org/2000/svg"><defs><clipPath id="v"><rect width="800" height="300"/></clipPath></defs><rect width="800" height="300" fill="#DCEEF8"/><g clip-path="url(#v)"><path d="M-998,308L-1020,342L-1031,369L-1045,382L-1062,385L-1067,375L-1076,373L-1087,383L-1103,376L-1093,360L-1090,344L-1084,328L-1098,306L-1101,281L-1082,250L-1070,254L-1043,263L-1004,293ZM1107,-1617L1124,-1603L1176,-1592L1158,-1555L1153,-1516L1143,-1507L1127,-1512L1128,-1498L1101,-1468L1101,-1444L1118,-1452L1130,-1429L1129,-1415L1140,-1395L1127,-1379L1136,-1340L1156,-1333L1152,-1311L1119,-1283L1047,-1297L994,-1280L990,-1251L948,-1244L907,-1267L894,-1256L827,-1278L812,-1298L831,-1328L838,-1431L800,-1486L774,-1513L718,-1534L714,-1574L762,-1586L823,-1572L811,-1635L845,-1611L930,-1655L941,-1702L973,-1713L978,-1693L995,-1692L1012,-1669L1037,-1642L1056,-1647L1088,-1621L1096,-1616ZM1200,-1258L1223,-1277L1229,-1235L1217,-1197L1201,-1207L1192,-1240Z" fill="#E0E0E0" stroke="#fff" stroke-width=".4"/><path d="M273,-40L258,-69L240,-82L256,-89L274,-116L282,-135L295,-148L313,-144L331,-153L351,-153L368,-142L392,-132L414,-104L439,-78L440,-55L447,-33L461,-23L464,-8L462,3L457,5L437,2L435,7L427,7L400,-2L383,-2L316,-4L306,1L294,-1L275,5L269,-23L302,-22L310,-28L317,-28L330,-36L346,-29L362,-28L378,-36L370,-47L358,-41L347,-41L333,-50L321,-50L313,-41Z" fill="#E0E0E0" stroke="#fff" stroke-width=".4"/><path d="M462,3L464,-8L461,-23L447,-33L440,-55L439,-78L451,-85L457,-107L468,-108L494,-97L514,-105L528,-102L534,-111L680,-111L688,-138L682,-143L664,-308L647,-479L702,-479L825,-392L948,-307L956,-289L979,-278L996,-271L996,-247L1037,-251L1037,-163L1017,-137L1014,-114L981,-108L932,-105L918,-91L895,-90L872,-90L863,-97L843,-92L809,-76L802,-64L773,-47L768,-38L753,-30L736,-35L726,-26L720,-0L691,30L692,43L682,59L685,80L670,86L661,90L656,75L645,79L639,78L632,89L604,89L594,83L589,86L578,76L580,65L575,60L568,64L569,52L577,42L562,27L557,17L549,8L542,7L533,13L522,18L512,26L496,23L486,13L480,12L470,17L465,17Z" fill="#E0E0E0" stroke="#fff" stroke-width=".4"/><path d="M261,-322L268,-335L411,-335L404,-392L413,-412L447,-416L446,-518L565,-516L565,-578L702,-479L647,-479L664,-308L682,-143L688,-138L680,-111L534,-111L528,-102L514,-105L494,-97L468,-108L457,-107L451,-85L439,-78L414,-104L392,-132L368,-142L351,-153L331,-153L313,-144L295,-148L282,-135L279,-156L289,-175L294,-211L290,-248L285,-268L289,-287L280,-305Z" fill="#E0E0E0" stroke="#fff" stroke-width=".4"/><path d="M979,231L949,236L940,211L942,126L935,119L933,100L921,87L910,77L914,57L927,53L934,37L952,33L960,22L972,11L985,11L1013,32L1011,45L1020,67L1013,82L1016,92L999,115L987,126L981,149L981,172Z" fill="#E0E0E0" stroke="#fff" stroke-width=".4"/><path d="M1422,-395L1431,-334L1444,-324L1445,-312L1460,-298L1452,-282L1438,-204L1436,-154L1390,-118L1374,-69L1389,-55L1389,-31L1413,-30L1409,-12L1399,-10L1398,2L1391,3L1366,-38L1358,-40L1329,-19L1301,-30L1281,-32L1271,-27L1250,-28L1228,-12L1210,-11L1165,-30L1148,-21L1130,-22L1116,-36L1079,-50L1040,-45L1031,-37L1026,-16L1015,-1L1013,32L985,11L972,11L960,22L961,-3L919,-12L918,-30L897,-54L892,-72L895,-90L918,-91L932,-105L981,-108L1014,-114L1017,-137L1037,-163L1037,-251L1088,-268L1193,-344L1318,-419L1376,-402L1396,-381Z" fill="#E0E0E0" stroke="#fff" stroke-width=".4"/><path d="M979,231L981,172L981,149L987,126L999,115L1016,92L1013,82L1020,67L1011,45L1013,32L1015,-1L1026,-16L1031,-37L1040,-45L1079,-50L1116,-36L1130,-22L1148,-21L1165,-30L1210,-11L1228,-12L1250,-28L1271,-27L1281,-32L1301,-30L1329,-19L1358,-40L1366,-38L1391,3L1398,2L1412,17L1408,23L1406,36L1375,64L1366,88L1361,107L1353,115L1346,141L1326,156L1321,175L1312,190L1309,205L1284,217L1263,202L1250,203L1228,224L1217,225L1200,260L1191,286L1153,299L1139,297L1125,305L1096,304L1077,282L1065,255L1039,231L1011,232Z" fill="#E0E0E0" stroke="#fff" stroke-width=".4"/><path d="M914,57L910,77L921,87L933,100L935,119L942,126L940,211L949,236L920,244L912,231L902,207L899,189L907,156L898,143L895,114L895,87L880,68L882,56Z" fill="#E0E0E0" stroke="#fff" stroke-width=".4"/><path d="M882,56L880,68L895,87L895,114L898,143L907,156L899,189L902,207L912,231L920,244L863,265L843,278L810,288L777,278L779,263L763,232L773,190L788,160L779,107L774,79L774,58L838,57L854,59L866,53Z" fill="#E0E0E0" stroke="#fff" stroke-width=".4"/><path d="M589,86L594,83L604,89L632,89L639,78L645,79L656,75L661,90L670,86L685,80L701,88L708,101L724,108L737,99L754,98L779,107L788,160L773,190L763,232L779,263L777,278L761,278L736,271L712,271L669,278L644,288L608,302L601,301L604,271L607,266L606,252L591,236L579,234L568,224L576,208L573,190L574,179L580,179L582,163L579,156L583,151L596,147L587,117L579,102L582,89Z" fill="#E0E0E0" stroke="#fff" stroke-width=".4"/><path d="M383,-2L400,-2L427,7L435,7L437,2L457,5L462,3L465,17L470,17L480,12L486,13L496,23L512,26L522,18L533,13L542,7L549,8L557,17L562,27L577,42L569,52L568,64L575,60L580,65L578,76L589,86L582,89L579,102L587,117L596,147L583,151L579,156L582,163L580,179L574,179L564,178L557,193L546,193L539,185L542,170L526,148L517,152L509,153L499,155L499,141L494,132L495,121L487,105L477,92L448,92L439,99L429,100L423,108L419,118L399,134L383,113L369,98L360,93L351,86L347,70L341,62L331,55L347,37L358,38L368,32L376,32L381,27L378,14L382,11Z" fill="#E0E0E0" stroke="#fff" stroke-width=".4"/><path d="M275,5L294,-1L306,1L316,-4L383,-2L382,11L378,14L381,27L376,32L368,32L358,38L347,37L331,55L311,40L296,37L288,27L288,21L277,13Z" fill="#E0E0E0" stroke="#fff" stroke-width=".4"/><path d="M574,179L573,190L576,208L568,224L579,234L591,236L606,252L607,266L604,271L601,301L591,301L554,284L521,256L490,236L465,212L474,200L476,190L492,170L509,153L517,152L526,148L542,170L539,185L546,193L557,193L564,178Z" fill="#E0E0E0" stroke="#fff" stroke-width=".4"/><path d="M685,80L682,59L692,43L691,30L720,-0L726,-26L736,-35L753,-30L768,-38L773,-47L802,-64L809,-76L843,-92L863,-97L872,-90L895,-90L892,-72L897,-54L918,-30L919,-12L961,-3L960,22L952,33L934,37L927,53L914,57L882,56L866,53L854,59L838,57L774,58L774,79L779,107L754,98L737,99L724,108L708,101L701,88Z" fill="#E0E0E0" stroke="#fff" stroke-width=".4"/><path d="M273,-40L313,-41L321,-50L333,-50L347,-41L358,-41L370,-47L378,-36L362,-28L346,-29L330,-36L317,-28L310,-28L302,-22L269,-23Z" fill="#E0E0E0" stroke="#fff" stroke-width=".4"/></g><g clip-path="url(#v)"><path d="M507.2,149.8L507.1,150.9L506.0,156.2L504.5,160.8L503.4,161.8L498.7,163.1L496.7,165.0L495.0,171.5L494.0,176.5L492.4,177.3L485.6,184.6L481.2,187.3L478.0,189.8L475.1,192.8L471.5,195.8L467.4,200.9L464.6,206.1L462.7,207.8L461.2,206.3L454.4,201.1L447.4,197.6L432.2,191.8L427.0,190.2L427.3,188.1L429.0,184.3L426.1,180.0L427.3,176.7L426.1,176.7L424.0,178.7L419.3,178.1L416.3,175.3L413.8,174.3L412.6,172.9L411.1,165.6L409.9,162.3L407.7,160.2L402.9,159.7L401.0,155.3L398.5,151.9L398.9,149.7L401.0,149.8L402.7,151.4L405.3,152.0L408.6,148.3L411.6,146.3L412.2,144.5L411.9,143.5L410.0,145.0L405.2,144.7L404.0,146.0L401.8,146.4L400.1,142.0L400.2,139.5L400.8,136.6L405.8,136.2L406.2,135.3L402.8,134.6L398.5,131.3L397.7,129.1L399.8,128.3L401.9,128.6L403.6,129.1L405.6,128.3L407.4,127.0L408.4,125.4L409.9,121.1L414.5,119.7L417.2,117.1L419.8,113.0L421.0,110.1L422.1,108.7L422.9,107.5L423.2,106.1L424.4,104.9L425.7,101.8L426.5,99.0L429.1,97.7L434.6,96.5L439.6,98.6L447.6,96.8L448.0,94.2L455.3,94.2L464.0,94.2L471.2,94.1L473.7,94.8L474.6,96.7L477.0,99.7L479.4,101.8L482.5,106.5L486.1,111.8L489.9,116.6L492.4,119.3L492.7,120.2L492.6,121.3L491.2,123.7L490.2,126.4L490.3,127.3L491.1,127.8L495.2,128.7L495.4,131.6L495.6,135.7L497.4,139.5L499.4,142.4L499.2,143.4L494.6,148.2L492.9,152.9L492.0,154.2L491.6,155.3L492.6,155.8L493.7,155.5L495.6,155.9L497.3,156.0L499.5,154.3L503.2,150.0L504.5,149.5ZM425.6,188.4L425.1,189.3L422.7,187.0L410.1,183.4L413.7,181.5L422.3,181.0L425.0,182.1L426.1,183.0L426.5,184.7Z" fill="#4ECDC4" stroke="#2C3E50" stroke-width="1"/></g><circle cx="400.0" cy="150.0" r="4" fill="#E74C3C" stroke="#fff" stroke-width="2"/><text x="400.0" y="140.0" text-anchor="middle" font-family="sans-serif" font-weight="700" font-size="10" fill="#2D3436">Freetown</text></svg>