<svg viewBox="0 0 800 300" xmlns="http://www.w3.org/2000/svg"><defs><clipPath id="v"><rect width="800" height="300"/></clipPath></defs><rect width="800" height="300" fill="#DCEEF8"/><g clip-path="url(#v)"><path d="M716,-271L711,-228L672,-228L685,-206L662,-140L649,-122L588,-120L552,-97L495,-105L395,-131L379,-166L310,-149L302,-129L260,-144L224,-147L193,-165L203,-190L201,-209L222,-214L257,-186L267,-213L328,-209L378,-227L412,-224L434,-203L440,-220L430,-288L455,-302L480,-350L532,-316L571,-360L596,-368L650,-335L683,-341L715,-321L709,-307Z" fill="#E0E0E0" stroke="#fff" stroke-width=".4"/><path d="M1073,-302L1112,-274L1116,-246L1074,-224L1041,-154L998,-85L942,-66L899,-71L845,-44L819,-29L762,-48L709,-92L687,-104L674,-139L662,-140L685,-206L672,-228L711,-228L716,-271L752,-244L778,-233L836,-246L842,-267L870,-270L903,-286L911,-279L944,-292L960,-317L983,-324L1058,-292Z" fill="#E0E0E0" stroke="#fff" stroke-width=".4"/><path d="M1502,-2L1533,16L1566,0L1598,17L1599,43L1565,64L1544,55L1525,172L1484,162L1433,127L1351,150L1316,174L1213,169L1160,154L1133,161L1113,121L1100,104L1116,88L1099,76L1077,98L1036,69L1031,28L988,5L980,-27L942,-66L998,-85L1041,-154L1074,-224L1116,-246L1147,-268L1190,-257L1234,-256L1267,-231L1291,-247L1342,-257L1360,-281L1389,-281L1410,-271L1432,-240L1454,-196L1495,-135L1497,-91L1489,-48Z" fill="#E0E0E0" stroke="#fff" stroke-width=".4"/><path d="M517,-896L533,-836L513,-805L539,-764L556,-703L551,-664L579,-593L548,-581L530,-594L512,-573L462,-551L436,-524L385,-500L398,-468L405,-422L441,-396L480,-350L455,-302L430,-288L440,-220L434,-203L412,-224L378,-227L328,-209L267,-213L257,-186L222,-214L201,-209L126,-240L112,-218L52,-219L61,-293L96,-365L-4,-385L-37,-413L-33,-460L-47,-485L-39,-559L-51,-676L-9,-676L8,-719L26,-824L13,-864L27,-889L85,-895L98,-869L145,-927L129,-972L126,-1041L179,-1025L224,-1043L225,-996L295,-968L294,-926L366,-948L405,-981L483,-934Z" fill="#E0E0E0" stroke="#fff" stroke-width=".4"/><path d="M1366,935L1357,960L1257,967L1258,953L1172,937L1185,900L1224,929L1278,924L1330,930L1328,945ZM1133,397L1185,400L1241,374L1290,407L1353,398L1354,351L1388,376L1366,434L1350,445L1307,442L1271,433L1186,457L1235,509L1199,524L1161,524L1124,477L1111,497L1126,551L1161,594L1135,613L1174,655L1208,680L1209,730L1144,707L1165,752L1121,761L1147,838L1101,839L1044,801L1018,731L1005,672L978,631L942,580L938,554L970,510L974,480L997,467L998,443L1044,435L1071,414L1108,416L1120,400Z" fill="#E0E0E0" stroke="#fff" stroke-width=".4"/><path d="M998,443L997,467L974,480L970,510L938,554L926,548L924,528L886,497L880,454L885,390L895,361L883,347L879,317L909,270L913,288L932,280L947,305L964,315L968,349L960,380L969,420Z" fill="#E0E0E0" stroke="#fff" stroke-width=".4"/><path d="M687,-104L709,-92L762,-48L819,-29L845,-44L862,-5L885,23L858,60L826,38L778,40L718,23L685,25L670,46L645,23L630,64L664,110L680,140L712,176L738,198L765,238L827,274L819,290L753,255L713,220L649,192L590,121L604,113L572,72L571,39L526,23L505,66L484,33L486,-2L488,-3L537,0L550,-17L573,-0L601,1L601,-26L625,-37L632,-77Z" fill="#E0E0E0" stroke="#fff" stroke-width=".4"/><path d="M201,-209L203,-190L193,-165L224,-147L260,-144L254,-102L224,-85L172,-98L157,-57L124,-54L112,-70L72,-36L39,-31L8,-52L-15,-97L-49,-81L-48,-127L3,-184L1,-210L33,-201L52,-219L112,-218L126,-240Z" fill="#E0E0E0" stroke="#fff" stroke-width=".4"/><path d="M260,-144L302,-129L310,-149L379,-166L395,-131L495,-105L487,-55L504,-12L448,-27L392,9L395,58L387,86L410,135L475,184L510,263L588,339L643,339L660,359L640,378L703,412L754,440L814,488L821,505L808,537L769,495L708,480L679,539L730,572L721,619L692,625L655,701L626,708L626,681L640,633L655,614L628,562L607,516L578,504L557,465L512,448L482,411L430,405L376,363L312,302L265,247L243,152L208,141L151,109L119,122L79,167L50,174L58,132L20,119L2,44L26,13L6,-24L8,-52L39,-31L72,-36L112,-70L124,-54L157,-57L172,-98L224,-85L254,-102ZM561,687L614,679L589,749L600,776L585,821L531,788L496,779L399,734L408,689L490,697ZM139,438L174,409L216,474L206,595L174,589L146,619L119,595L117,486L100,433Z" fill="#E0E0E0" stroke="#fff" stroke-width=".4"/><path d="M495,-105L552,-97L588,-120L649,-122L662,-140L674,-139L687,-104L632,-77L625,-37L601,-26L601,1L573,-0L550,-17L537,0L488,-3L504,-12L487,-55Z" fill="#E0E0E0" stroke="#fff" stroke-width=".4"/><path d="M827,274L765,238L738,198L712,176L680,140L664,110L630,64L645,23L670,46L685,25L718,23L778,40L826,38L858,60L883,60L866,103L899,140L889,186L873,190L859,199L837,221Z" fill="#E0E0E0" stroke="#fff" stroke-width=".4"/><path d="M1093,305L1128,335L1133,397L1120,400L1108,416L1071,414L1044,435L998,443L969,420L960,380L968,349L977,349L980,330L1022,316L1037,312L1061,306Z" fill="#E0E0E0" stroke="#fff" stroke-width=".4"/><path d="M845,-44L899,-71L942,-66L980,-27L988,5L1031,28L1036,69L1077,98L1099,76L1116,88L1100,104L1113,121L1095,143L1102,179L1135,220L1109,250L1097,280L1105,292L1093,305L1061,306L1037,312L1035,305L1043,294L1051,271L1041,271L1028,253L1016,249L1007,234L994,228L984,214L971,220L962,251L945,258L951,250L924,230L901,220L891,207L873,190L889,186L899,140L866,103L883,60L858,60L885,23L862,-5Z" fill="#E0E0E0" stroke="#fff" stroke-width=".4"/><path d="M932,280L913,288L909,270L879,317L883,347L869,339L849,309L819,290L827,274L837,221L859,199L873,190L891,207L901,220L924,230L951,250L945,258Z" fill="#E0E0E0" stroke="#fff" stroke-width=".4"/><path d="M968,349L964,315L947,305L932,280L945,258L962,251L971,220L984,214L994,228L1007,234L1016,249L1028,253L1041,271L1051,271L1043,294L1035,305L1037,312L1022,316L980,330L977,349Z" fill="#E0E0E0" stroke="#fff" stroke-width=".4"/></g><g clip-path="url(#v)"><path d="M402.6,153.8L398.3,154.5L396.3,150.4L399.3,145.9L403.8,145.2L404.6,148.8Z" fill="#4ECDC4" stroke="#2C3E50" stroke-width="1"/></g><circle cx="400.0" cy="150.0" r="4" fill="#E74C3C" stroke="#fff" stroke-width="2"/><text x="400.0" y="140.0" text-anchor="middle" font-family="sans-serif" font-weight="700" font-size="10" fill="#2D3436">San Marino</text></svg>