<svg viewBox="0 0 800 300" xmlns="http://www.w3.org/2000/svg"><defs><clipPath id="v"><rect width="800" height="300"/></clipPath></defs><rect width="800" height="300" fill="#DCEEF8"/><g clip-path="url(#v)"><path d="M639,-230L639,-228L638,-222L638,-176L549,-177L550,-100L524,-98L518,-83L523,-40L416,-40L410,-31L411,-43L412,-43L473,-45L476,-56L488,-69L497,-110L534,-142L547,-180L556,-182L565,-206L588,-209L597,-205L610,-205L619,-212L635,-213L635,-230Z" fill="#E0E0E0" stroke="#fff" stroke-width=".4"/><path d="M-578,1532L-586,1514L-574,1498L-590,1476L-611,1459L-639,1438L-649,1439L-676,1415L-694,1418L-658,1375L-627,1345L-609,1333L-586,1316L-585,1292L-599,1274L-612,1280L-607,1263L-603,1245L-603,1228L-613,1223L-623,1228L-634,1227L-637,1215L-639,1188L-644,1179L-663,1171L-674,1177L-703,1171L-701,1132L-709,1115L-700,1110L-703,1093L-695,1080L-691,1058L-697,1040L-712,1032L-715,1021L-711,1004L-763,1003L-774,970L-766,970L-766,958L-771,949L-773,933L-788,925L-805,925L-817,917L-835,911L-846,901L-876,896L-906,872L-904,853L-907,842L-904,822L-940,826L-954,837L-978,848L-984,856L-998,857L-1018,854L-1034,859L-1046,856L-1044,814L-1067,830L-1091,830L-1101,815L-1119,813L-1113,801L-1128,785L-1140,760L-1132,755L-1132,743L-1116,735L-1119,721L-1112,711L-1110,698L-1079,680L-1056,674L-1053,670L-1028,672L-1016,597L-1015,585L-1020,569L-1032,559L-1031,540L-1016,535L-1011,538L-1010,528L-1026,525L-1026,508L-973,508L-964,499L-956,508L-951,524L-946,520L-931,535L-910,533L-905,525L-884,518L-873,514L-870,502L-851,494L-852,489L-875,486L-879,469L-878,451L-890,444L-885,441L-865,445L-843,452L-835,445L-816,441L-785,431L-775,420L-779,413L-765,411L-758,418L-762,430L-752,434L-746,447L-754,456L-758,479L-751,493L-749,506L-732,519L-719,520L-716,515L-707,513L-695,509L-686,501L-671,504L-665,503L-650,505L-647,499L-652,494L-649,486L-638,488L-625,486L-610,491L-598,497L-589,490L-583,491L-580,498L-567,497L-556,486L-548,466L-532,441L-522,440L-516,455L-500,503L-486,507L-485,526L-506,548L-497,557L-449,561L-448,588L-427,570L-393,580L-348,597L-335,613L-339,628L-307,619L-254,634L-214,633L-173,655L-139,686L-118,694L-94,695L-85,703L-75,738L-71,755L-82,800L-95,818L-134,857L-151,888L-171,913L-178,913L-186,934L-184,986L-191,1030L-194,1049L-203,1060L-208,1099L-235,1137L-240,1167L-262,1180L-268,1197L-298,1197L-341,1209L-360,1222L-390,1231L-422,1254L-446,1284L-450,1307L-445,1324L-450,1355L-456,1370L-475,1387L-506,1442L-529,1468L-548,1483L-560,1514Z" fill="#E0E0E0" stroke="#fff" stroke-width=".4"/><path d="M-532,441L-548,466L-556,486L-567,497L-580,498L-583,491L-589,490L-598,497L-610,491L-603,480L-600,468L-596,456L-606,440L-608,421L-594,397L-585,400L-565,407L-536,430ZM1043,-1000L1056,-989L1095,-981L1082,-953L1078,-924L1071,-917L1058,-921L1059,-910L1039,-888L1039,-870L1052,-876L1061,-859L1060,-848L1068,-833L1059,-822L1066,-792L1080,-787L1077,-771L1053,-750L999,-760L959,-748L956,-725L925,-720L894,-737L884,-729L834,-746L823,-761L837,-783L842,-860L814,-901L794,-922L753,-937L750,-967L785,-976L831,-966L822,-1013L848,-995L911,-1028L919,-1063L943,-1071L947,-1056L960,-1056L973,-1038L992,-1018L1006,-1022L1029,-1002L1035,-999ZM1113,-731L1131,-745L1135,-713L1126,-685L1114,-693L1107,-717Z" fill="#E0E0E0" stroke="#fff" stroke-width=".4"/><path d="M561,213L563,204L560,193L550,186L545,170L543,152L553,147L557,130L566,130L585,138L600,132L611,134L615,128L724,127L730,107L725,104L712,-20L699,-148L741,-148L833,-83L924,-19L931,-6L948,3L961,7L961,26L991,23L991,89L976,108L974,125L950,130L913,132L903,142L885,143L868,143L861,138L846,142L820,154L815,162L794,175L790,182L779,188L766,184L758,191L754,210L733,233L733,243L726,254L728,270L716,275L710,278L706,266L698,269L693,269L688,277L667,277L660,273L656,275L648,267L649,259L646,256L640,258L641,249L647,242L636,230L632,223L626,217L621,216L614,220L606,224L598,230L586,227L579,220L574,219L567,223L563,223Z" fill="#E0E0E0" stroke="#fff" stroke-width=".4"/><path d="M410,-31L416,-40L523,-40L518,-83L524,-98L550,-100L549,-177L638,-176L638,-222L741,-148L699,-148L712,-20L725,104L730,107L724,127L615,128L611,134L600,132L585,138L566,130L557,130L553,147L543,152L525,133L509,112L491,104L478,96L463,96L449,103L436,100L427,109L424,94L432,80L435,53L432,25L429,10L432,-4L425,-18Z" fill="#E0E0E0" stroke="#fff" stroke-width=".4"/><path d="M948,384L926,387L919,368L920,305L915,299L914,286L904,276L896,268L899,253L909,250L914,238L928,235L934,227L943,219L952,219L973,235L972,244L978,260L973,272L976,279L963,296L954,305L949,322L950,339Z" fill="#E0E0E0" stroke="#fff" stroke-width=".4"/><path d="M1279,-85L1286,-40L1296,-32L1296,-23L1308,-13L1302,-0L1291,58L1290,95L1255,122L1244,159L1255,169L1255,188L1272,188L1270,201L1262,203L1261,212L1256,212L1237,182L1231,181L1210,196L1189,188L1174,187L1166,191L1150,190L1134,202L1120,202L1087,188L1074,195L1061,194L1050,184L1023,173L994,176L987,183L983,199L975,210L973,235L952,219L943,219L934,227L934,208L903,202L902,188L887,170L883,157L885,143L903,142L913,132L950,130L974,125L976,108L991,89L991,23L1029,10L1108,-47L1202,-103L1245,-91L1260,-74Z" fill="#E0E0E0" stroke="#fff" stroke-width=".4"/><path d="M948,384L950,339L949,322L954,305L963,296L976,279L973,272L978,260L972,244L973,235L975,210L983,199L987,183L994,176L1023,173L1050,184L1061,194L1074,195L1087,188L1120,202L1134,202L1150,190L1166,191L1174,187L1189,188L1210,196L1231,181L1237,182L1256,212L1261,212L1272,223L1269,228L1267,237L1244,259L1237,276L1233,291L1228,297L1222,316L1208,327L1203,341L1197,352L1195,364L1176,373L1161,362L1150,362L1134,378L1126,379L1113,405L1106,424L1078,434L1068,433L1057,439L1035,438L1021,421L1012,401L993,383L972,384Z" fill="#E0E0E0" stroke="#fff" stroke-width=".4"/><path d="M899,253L896,268L904,276L914,286L915,299L920,305L919,368L926,387L904,393L898,383L890,366L888,352L894,327L887,317L885,296L885,275L874,261L875,253Z" fill="#E0E0E0" stroke="#fff" stroke-width=".4"/><path d="M875,253L874,261L885,275L885,296L887,317L894,327L888,352L890,366L898,383L904,393L861,409L846,418L821,426L797,418L798,407L786,384L794,353L805,330L798,291L794,270L795,254L842,253L854,255L863,250Z" fill="#E0E0E0" stroke="#fff" stroke-width=".4"/><path d="M656,275L660,273L667,277L688,277L693,269L698,269L706,266L710,278L716,275L728,270L740,277L745,286L757,292L766,285L779,284L798,291L805,330L794,353L786,384L798,407L797,418L785,419L766,413L748,414L716,418L697,426L670,436L665,435L667,413L670,410L669,399L657,387L649,385L641,378L647,366L644,353L645,345L649,345L651,333L649,327L652,323L662,320L655,298L649,287L651,277Z" fill="#E0E0E0" stroke="#fff" stroke-width=".4"/><path d="M502,209L515,209L535,216L541,215L543,212L557,215L561,213L563,223L567,223L574,219L579,220L586,227L598,230L606,224L614,220L621,216L626,217L632,223L636,230L647,242L641,249L640,258L646,256L649,259L648,267L656,275L651,277L649,287L655,298L662,320L652,323L649,327L651,333L649,345L645,345L637,344L632,355L624,355L619,349L621,338L609,321L602,324L596,325L589,326L589,316L585,309L586,301L580,289L572,279L550,279L544,285L537,285L532,291L529,299L514,311L502,295L492,284L485,280L478,275L475,263L471,256L463,252L475,238L483,239L490,234L496,234L501,231L498,221L501,218Z" fill="#E0E0E0" stroke="#fff" stroke-width=".4"/><path d="M421,215L435,210L444,211L452,208L502,209L501,218L498,221L501,231L496,234L490,234L483,239L475,238L463,252L448,240L437,238L431,231L431,226L423,221Z" fill="#E0E0E0" stroke="#fff" stroke-width=".4"/><path d="M645,345L644,353L647,366L641,378L649,385L657,387L669,399L670,410L667,413L665,435L658,436L630,423L605,402L582,387L563,369L570,360L571,352L584,338L596,325L602,324L609,321L621,338L619,349L624,355L632,355L637,344Z" fill="#E0E0E0" stroke="#fff" stroke-width=".4"/><path d="M514,311L529,299L532,291L537,285L544,285L550,279L572,279L580,289L586,301L585,309L589,316L589,326L596,325L584,338L571,352L570,360L563,369L556,367L536,356L522,341L518,331Z" fill="#E0E0E0" stroke="#fff" stroke-width=".4"/><path d="M728,270L726,254L733,243L733,233L754,210L758,191L766,184L779,188L790,182L794,175L815,162L820,154L846,142L861,138L868,143L885,143L883,157L887,170L902,188L903,202L934,208L934,227L928,235L914,238L909,250L899,253L875,253L863,250L854,255L842,253L795,254L794,270L798,291L779,284L766,285L757,292L745,286L740,277Z" fill="#E0E0E0" stroke="#fff" stroke-width=".4"/><path d="M420,181L449,180L456,173L464,173L475,180L483,180L492,175L498,183L486,190L474,189L463,183L453,190L448,190L441,194L416,193Z" fill="#E0E0E0" stroke="#fff" stroke-width=".4"/><path d="M638,-222L639,-228L639,-230L639,-266L683,-289L710,-294L732,-303L743,-318L774,-331L775,-354L791,-357L804,-369L839,-374L844,-387L837,-394L828,-428L826,-448L816,-470L842,-488L871,-494L889,-508L915,-518L961,-524L1006,-527L1020,-522L1045,-535L1074,-535L1086,-527L1104,-529L1099,-512L1103,-480L1097,-453L1080,-434L1082,-410L1104,-390L1105,-382L1121,-369L1133,-312L1142,-284L1143,-270L1138,-245L1141,-231L1137,-214L1139,-195L1129,-182L1145,-160L1146,-147L1155,-130L1168,-136L1190,-122L1202,-103L1108,-47L1029,10L991,23L961,26L961,7L948,3L931,-6L924,-19L833,-83L741,-148Z" fill="#E0E0E0" stroke="#fff" stroke-width=".4"/><path d="M816,-470L826,-448L828,-428L837,-394L844,-387L839,-374L804,-369L791,-357L775,-354L774,-331L743,-318L732,-303L710,-294L683,-289L639,-266L639,-230L635,-230L635,-213L619,-212L610,-205L597,-205L588,-209L565,-206L556,-182L547,-180L534,-142L497,-110L488,-69L476,-56L473,-45L412,-43L411,-43L413,-56L423,-64L432,-80L430,-90L440,-111L455,-130L464,-135L471,-152L472,-168L482,-187L500,-198L517,-229L518,-230L531,-241L557,-245L578,-266L592,-274L614,-300L608,-340L618,-367L622,-384L639,-406L666,-421L687,-435L705,-469L713,-489L733,-489L750,-475L776,-477L804,-470Z" fill="#E0E0E0" stroke="#fff" stroke-width=".4"/></g><g clip-path="url(#v)"><path d="M540.5,146.7L543.0,151.2L542.5,153.4L541.9,156.5L543.4,158.8L545.1,160.3L546.2,161.7L547.6,163.6L547.8,167.4L547.6,170.1L548.5,171.3L549.2,172.9L549.1,174.2L548.6,175.3L546.9,176.8L546.6,179.7L549.3,183.1L550.9,185.0L550.9,186.0L551.4,187.2L552.7,188.6L553.5,188.2L554.3,187.1L554.7,186.4L557.0,186.7L558.1,187.1L559.5,189.3L560.1,190.7L560.4,192.6L561.9,195.0L563.3,196.6L563.5,197.6L564.8,199.0L564.0,202.1L564.1,203.7L563.3,207.8L563.1,209.8L563.1,210.5L565.0,211.9L564.8,214.0L562.9,213.6L559.8,213.4L553.4,214.5L551.1,214.1L546.9,214.2L544.0,214.8L540.2,216.1L537.2,215.8L535.6,214.7L533.6,214.8L531.2,214.3L528.7,213.2L526.4,212.7L523.9,210.8L522.8,210.4L521.9,211.0L521.2,211.6L520.6,212.0L519.2,211.6L518.7,210.3L519.2,209.1L519.3,208.2L518.6,207.6L517.1,207.4L514.7,207.5L510.8,207.0L509.9,206.8L501.0,206.5L491.9,206.5L484.2,206.4L474.4,206.4L467.5,206.4L461.1,206.3L456.2,208.9L450.8,211.6L443.6,213.1L435.3,212.5L432.6,213.0L429.9,214.2L427.8,215.0L425.0,215.6L421.4,215.1L419.8,215.4L418.9,214.2L417.8,212.1L418.5,210.6L420.8,209.7L424.1,208.4L426.0,209.1L426.9,209.1L427.1,208.3L426.8,207.9L424.3,206.8L422.9,205.3L421.8,206.2L420.9,208.0L420.1,208.4L418.9,209.0L418.3,207.8L418.0,206.6L418.5,205.7L418.3,200.6L418.6,198.0L418.4,195.6L420.0,194.1L421.6,193.1L427.4,193.0L433.0,192.9L438.3,193.0L443.7,193.0L444.3,188.3L446.0,187.9L448.5,187.4L453.3,186.9L458.6,186.3L459.8,185.4L460.7,183.8L461.3,182.4L462.3,181.8L463.8,182.3L465.8,183.0L467.8,184.2L470.1,185.2L471.6,185.9L475.4,187.5L481.7,189.9L486.9,190.8L493.3,189.1L497.8,188.0L498.4,186.0L497.7,184.0L494.3,182.2L489.7,182.4L488.2,182.9L486.1,183.5L484.8,183.7L482.6,183.3L479.9,181.7L478.1,180.2L475.7,179.4L472.8,178.6L468.2,175.4L465.8,174.9L463.5,174.7L459.1,175.3L454.8,177.0L452.5,181.0L448.3,180.9L439.2,180.8L430.8,180.7L423.9,181.0L423.2,178.1L421.6,175.8L418.9,173.9L418.3,172.1L419.2,170.5L421.8,169.2L422.3,168.3L421.1,168.4L419.0,169.3L417.6,169.3L417.5,166.8L415.3,163.6L412.7,158.1L409.8,155.8L407.4,151.4L404.9,149.7L402.5,148.9L400.6,149.1L399.9,151.1L397.4,148.2L400.8,147.1L407.9,143.5L416.3,133.0L423.7,120.5L424.6,117.6L425.6,115.3L426.2,110.3L427.2,107.2L428.2,106.6L429.5,104.3L431.0,100.2L432.7,98.0L434.6,97.5L436.2,97.7L437.2,98.5L440.3,99.0L445.5,99.2L449.5,98.6L452.3,97.2L456.1,96.5L460.7,96.5L463.1,95.9L463.4,94.7L464.0,94.4L465.0,94.8L465.9,94.7L466.6,93.8L467.5,93.8L468.4,94.5L472.2,94.7L479.1,94.4L485.5,96.6L491.3,101.2L494.4,104.2L494.5,105.7L495.5,107.3L497.2,108.8L498.8,109.1L500.3,108.1L501.4,108.3L502.2,109.4L503.9,109.7L505.8,108.9L507.1,109.2L507.3,109.9L507.6,110.3L508.5,110.4L509.8,111.4L511.4,113.8L512.8,117.2L513.9,121.5L515.3,123.8L517.0,124.2L518.0,125.1L518.2,126.2L518.7,126.9L519.6,127.3L521.0,127.0L522.8,128.5L524.7,131.7L525.0,133.1L524.7,133.9L524.8,134.4L525.9,135.0L527.1,136.0L528.1,137.6L530.2,139.0L533.3,140.2L535.5,142.0L537.0,144.4L539.9,146.4Z" fill="#4ECDC4" stroke="#2C3E50" stroke-width="1"/></g><circle cx="400.0" cy="150.0" r="4" fill="#E74C3C" stroke="#fff" stroke-width="2"/><text x="400.0" y="140.0" text-anchor="middle" font-family="sans-serif" font-weight="700" font-size="10" fill="#2D3436">Dakar</text></svg>