<svg viewBox="0 0 800 300" xmlns="http://www.w3.org/2000/svg"><defs><clipPath id="v"><rect width="800" height="300"/></clipPath></defs><rect width="800" height="300" fill="#DCEEF8"/><g clip-path="url(#v)"><path d="M1554,322L1556,321L1559,324L1558,328L1552,330L1548,328L1547,324L1550,321ZM1570,314L1565,316L1559,318L1558,315L1563,313L1565,312L1570,309L1570,309L1570,314ZM-1559,309L-1559,309L-1559,309L-1557,309L-1558,313L-1559,314L-1559,314L-1559,309Z" fill="#E0E0E0" stroke="#fff" stroke-width=".4"/><path d="M301,176L302,177L334,195L334,200L347,209L343,219L343,224L349,227L349,230L347,235L347,238L347,242L350,247L353,256L356,258L349,263L340,267L335,266L332,269L326,269L323,270L313,268L306,269L304,257L301,252L299,250L291,248L286,246L280,244L277,243L273,241L268,230L263,225L262,220L262,215L261,207L265,207L268,203L271,199L273,197L273,194L271,192L271,189L273,188L274,183L270,178L273,177L283,177Z" fill="#E0E0E0" stroke="#fff" stroke-width=".4"/><path d="M-69,-82L-69,-82L-70,-80L-70,-65L-98,-66L-98,-41L-106,-40L-108,-36L-106,-22L-141,-22L-142,-19L-142,-23L-142,-23L-122,-24L-121,-27L-118,-31L-115,-44L-103,-55L-99,-67L-96,-67L-93,-75L-86,-76L-83,-75L-79,-75L-76,-77L-71,-77L-71,-82Z" fill="#E0E0E0" stroke="#fff" stroke-width=".4"/><path d="M492,-227L492,-271L514,-278L516,-277L530,-268L537,-264L545,-253L555,-255L570,-256L580,-247L580,-235L584,-235L586,-225L597,-225L599,-220L602,-220L606,-228L618,-236L623,-238L625,-237L618,-230L624,-225L631,-228L641,-222L630,-214L623,-215L620,-215L618,-218L620,-223L609,-220L606,-213L602,-207L594,-207L592,-202L598,-200L600,-191L595,-180L589,-183L584,-183L584,-189L573,-194L564,-200L558,-205L548,-213L544,-225L541,-227L531,-226L528,-228L527,-238L515,-244L508,-237L501,-233L502,-227Z" fill="#E0E0E0" stroke="#fff" stroke-width=".4"/><path d="M1231,190L1232,219L1232,247L1224,240L1215,238L1213,241L1202,241L1206,234L1211,232L1209,222L1205,215L1188,207L1181,207L1168,199L1165,203L1162,204L1160,200L1160,197L1153,192L1162,189L1169,189L1168,187L1155,187L1152,182L1144,180L1140,176L1152,174L1157,171L1170,175L1172,178L1174,192L1183,197L1191,188L1201,183L1208,183L1216,186L1222,189ZM1092,245L1093,247L1093,250L1087,256L1080,258L1079,257L1080,254L1084,249ZM1172,228L1172,221L1173,218L1175,215L1177,218L1177,222ZM1031,132L1026,140L1032,148L1030,152L1040,160L1030,161L1027,167L1027,175L1019,181L1019,189L1015,203L1014,200L1004,204L1001,198L995,198L990,195L980,198L977,194L971,194L964,193L963,182L958,179L954,172L953,164L954,156L959,150L961,156L966,161L972,159L978,160L983,156L987,155L995,157L1002,155L1007,143L1010,140L1013,130L1023,130ZM1130,192L1140,195L1143,201L1136,198L1129,197L1124,198L1118,197L1120,193ZM1109,201L1103,199L1101,195L1110,195L1112,198ZM1118,149L1119,154L1124,154L1124,158L1124,166L1120,165L1118,170L1122,175L1119,176L1116,170L1113,159L1115,152ZM1074,160L1084,160L1093,154L1094,155L1087,164L1081,166L1073,164L1058,165L1051,166L1049,172L1057,180L1062,176L1078,173L1077,177L1073,176L1070,181L1062,184L1070,196L1069,199L1076,209L1076,214L1072,217L1068,214L1073,207L1064,210L1062,208L1063,204L1057,199L1057,191L1052,193L1052,203L1053,216L1047,217L1043,215L1046,207L1045,198L1041,198L1038,192L1042,186L1043,180L1047,166L1049,163L1057,156L1063,159ZM1051,257L1040,251L1048,250L1053,252L1056,255L1055,257ZM1061,242L1066,242L1074,238L1073,243L1060,246L1048,245L1048,241L1055,240ZM1034,241L1039,240L1041,244L1031,246L1025,247L1021,247L1024,242L1028,242L1031,238ZM949,224L950,227L967,228L969,224L985,228L988,234L1001,236L1012,241L1002,244L992,241L984,241L975,240L967,239L957,235L951,234L947,236L931,232L930,228L922,228L928,219L938,220L945,223ZM913,177L915,183L918,188L924,189L928,194L926,205L926,219L916,219L909,212L898,205L894,199L887,192L883,186L876,173L869,166L866,159L863,152L855,146L851,139L844,134L835,125L834,120L840,120L853,122L861,131L868,137L872,140L881,150L890,150L897,156L902,163L908,167L905,174L910,177Z" fill="#E0E0E0" stroke="#fff" stroke-width=".4"/><path d="M261,207L262,215L262,220L263,225L268,230L273,241L270,240L258,241L256,242L253,248L255,252L254,262L253,271L255,273L261,276L263,274L264,284L257,284L254,279L251,275L244,274L242,269L237,272L230,271L227,267L221,266L217,266L217,264L214,263L210,263L204,264L201,264L198,265L199,254L196,251L195,246L197,240L195,237L195,231L184,231L185,228L181,228L180,230L175,230L173,235L171,237L166,236L164,237L158,238L154,234L152,231L150,226L148,219L122,219L119,220L117,220L113,221L112,218L114,217L114,214L116,211L119,209L121,210L124,207L129,207L129,210L133,211L138,206L143,201L145,199L145,191L149,183L152,178L158,174L159,172L159,168L161,165L160,160L161,153L163,147L166,143L166,137L167,131L170,127L175,124L182,127L188,130L194,131L201,133L203,128L204,127L208,128L218,123L222,125L224,125L226,123L229,122L235,123L241,123L244,122L249,129L253,131L255,129L259,130L264,128L266,132L274,137L273,147L277,149L274,152L271,154L267,159L266,163L265,170L263,173L263,179L261,182L260,187L259,188L258,193L260,196Z" fill="#E0E0E0" stroke="#fff" stroke-width=".4"/><path d="M347,209L334,200L334,195L302,177L301,176L301,167L303,163L307,158L310,151L307,141L306,137L301,131L307,126L313,120L317,121L317,126L320,129L326,129L337,137L340,137L342,136L344,137L350,138L352,134L360,131L364,134L370,134L362,144L362,175L367,182L361,186L359,190L356,190L355,196L352,200L350,206Z" fill="#E0E0E0" stroke="#fff" stroke-width=".4"/><path d="M219,96L213,92L210,90L209,87L211,83L211,80L206,74L205,70L205,68L202,66L201,60L200,57L197,58L197,54L200,51L199,47L202,44L200,42L202,36L206,30L214,30L213,-6L213,-10L223,-10L223,-28L258,-28L292,-28L326,-28L329,-19L327,-17L329,-8L332,3L335,5L340,9L335,14L329,15L326,18L325,24L322,38L323,41L321,49L318,58L312,62L309,69L308,72L304,75L301,84L301,92L301,85L300,85L300,81L299,78L295,74L293,68L295,61L291,61L290,63L285,63L287,66L288,71L283,76L278,82L274,83L267,78L263,80L262,82L258,84L258,86L249,86L248,84L242,84L238,85L236,84L232,79L230,77L224,78L221,82L219,90L216,92L214,93Z" fill="#E0E0E0" stroke="#fff" stroke-width=".4"/><path d="M213,-6L214,30L206,30L202,36L200,42L202,44L199,47L200,51L197,54L197,58L200,57L201,60L202,66L205,68L205,70L199,72L195,75L188,85L180,89L172,89L169,89L170,93L166,96L162,99L151,102L149,100L148,100L146,102L139,103L140,101L137,95L136,91L132,90L127,84L129,80L133,81L136,81L140,81L136,73L136,67L135,61L132,55L133,51L127,51L127,45L124,42L127,30L138,21L139,9L142,-9L144,-13L141,-16L140,-19L137,-22L135,-36L144,-42L178,-24Z" fill="#E0E0E0" stroke="#fff" stroke-width=".4"/><path d="M148,427L152,422L156,425L157,429L161,430L166,432L171,431L179,426L179,390L181,392L186,401L186,407L187,410L194,409L198,405L202,402L204,397L209,395L212,396L216,399L223,399L229,397L230,394L231,389L236,389L239,385L242,379L249,372L262,365L265,365L269,366L272,365L277,366L281,380L283,386L282,397L283,400L278,399L276,399L275,402L273,406L273,409L278,414L283,413L285,409L291,409L289,416L288,424L286,429L280,434L278,435L274,440L272,446L267,453L257,463L251,470L245,474L236,478L231,479L230,482L225,480L220,482L211,480L206,482L202,481L193,485L186,487L180,491L176,491L173,487L170,487L166,482L166,484L164,481L165,475L162,468L165,466L164,458L159,449L154,440L154,440ZM258,431L254,428L250,430L245,434L241,440L247,448L250,447L252,444L257,442L258,439L261,434Z" fill="#E0E0E0" stroke="#fff" stroke-width=".4"/><path d="M258,431L261,434L258,439L257,442L252,444L250,447L247,448L241,440L245,434L250,430L254,428Z" fill="#E0E0E0" stroke="#fff" stroke-width=".4"/><path d="M-443,132L-448,140L-451,146L-454,149L-458,150L-460,148L-462,147L-464,150L-468,148L-466,144L-465,140L-463,136L-467,131L-468,125L-463,118L-460,119L-454,121L-445,128ZM60,-328L64,-325L76,-322L72,-313L71,-304L68,-302L64,-303L65,-300L58,-293L58,-287L62,-289L65,-283L65,-280L68,-275L65,-271L67,-262L72,-260L71,-255L63,-248L46,-252L33,-248L32,-241L22,-239L12,-245L9,-242L-7,-247L-11,-252L-6,-259L-4,-284L-13,-297L-20,-303L-33,-308L-34,-318L-23,-321L-8,-317L-11,-332L-3,-327L18,-337L20,-348L28,-351L29,-346L33,-346L37,-341L43,-334L48,-335L55,-329L57,-328ZM82,-243L88,-247L89,-237L86,-228L82,-230L80,-238Z" fill="#E0E0E0" stroke="#fff" stroke-width=".4"/><path d="M277,366L272,365L269,366L265,365L262,365L256,361L249,359L247,353L247,350L243,349L233,339L231,333L229,332L225,324L235,326L238,327L241,326L246,320L253,313L256,312L258,309L262,306L269,304L270,308L277,307L281,309L283,312L287,312L291,315L291,327L290,333L289,340L291,343L290,348L288,349L286,356Z" fill="#E0E0E0" stroke="#fff" stroke-width=".4"/><path d="M262,365L249,372L242,379L239,385L236,389L231,389L230,394L229,397L223,399L216,399L212,396L209,395L204,397L202,402L198,405L194,409L187,410L186,407L186,401L181,392L179,390L179,363L187,362L188,329L194,329L208,326L211,329L216,326L219,326L224,324L225,324L229,332L231,333L233,339L243,349L247,350L247,353L249,359L256,361Z" fill="#E0E0E0" stroke="#fff" stroke-width=".4"/><path d="M179,390L179,426L171,431L166,432L161,430L157,429L156,425L152,422L148,427L142,420L138,413L136,403L134,396L131,381L131,370L130,365L126,361L122,353L117,342L116,336L108,328L108,321L112,319L117,317L123,318L128,322L129,321L165,321L171,325L192,326L208,323L215,320L220,321L224,323L224,324L219,326L216,326L211,329L208,326L194,329L188,329L187,362L179,363Z" fill="#E0E0E0" stroke="#fff" stroke-width=".4"/><path d="M-139,49L-143,42L-147,38L-143,37L-139,30L-137,26L-134,23L-130,24L-126,22L-121,21L-117,24L-111,27L-106,33L-100,39L-99,45L-98,50L-95,53L-94,56L-94,59L-95,59L-100,59L-101,60L-103,60L-109,58L-113,58L-129,57L-132,58L-134,58L-139,59L-140,52L-133,53L-130,51L-129,51L-126,49L-122,51L-118,51L-114,49L-116,47L-119,48L-122,48L-125,46L-128,46L-130,48Z" fill="#E0E0E0" stroke="#fff" stroke-width=".4"/><path d="M-94,59L-94,56L-95,53L-98,50L-99,45L-100,39L-97,38L-95,32L-93,32L-87,35L-82,33L-78,34L-77,32L-42,31L-40,25L-42,24L-46,-16L-50,-56L-37,-56L-8,-36L22,-15L24,-11L29,-8L33,-7L33,-1L43,-2L43,19L38,25L38,31L30,32L18,33L15,36L9,37L4,37L1,35L-3,36L-11,40L-13,43L-20,47L-21,49L-25,51L-29,50L-31,52L-33,58L-39,65L-39,68L-42,72L-41,77L-45,79L-47,80L-48,76L-51,77L-52,77L-54,79L-60,79L-63,78L-64,79L-67,76L-66,73L-67,72L-69,73L-69,70L-67,68L-70,64L-71,62L-73,60L-75,60L-77,61L-80,62L-82,64L-86,63L-89,61L-90,61L-92,62L-94,62Z" fill="#E0E0E0" stroke="#fff" stroke-width=".4"/><path d="M-142,-19L-141,-22L-106,-22L-108,-36L-106,-40L-98,-41L-98,-66L-70,-65L-70,-80L-37,-56L-50,-56L-46,-16L-42,24L-40,25L-42,31L-77,32L-78,34L-82,33L-87,35L-93,32L-95,32L-97,38L-100,39L-106,33L-111,27L-117,24L-121,21L-126,22L-130,24L-134,23L-137,26L-138,21L-136,16L-134,8L-135,-1L-136,-6L-136,-11L-138,-15Z" fill="#E0E0E0" stroke="#fff" stroke-width=".4"/><path d="M29,113L22,114L20,108L20,88L19,86L18,82L15,79L13,76L14,72L17,71L18,67L23,66L25,63L28,61L31,61L37,66L37,69L39,74L37,78L38,80L34,85L31,88L30,94L30,99Z" fill="#E0E0E0" stroke="#fff" stroke-width=".4"/><path d="M135,-36L137,-22L140,-19L141,-16L144,-13L142,-9L139,9L138,21L127,30L124,42L127,45L127,51L133,51L132,55L129,56L129,58L128,59L122,49L120,49L113,54L106,51L101,50L99,52L94,51L89,55L84,55L74,51L70,53L65,53L62,49L53,46L44,47L42,49L40,54L38,58L37,66L31,61L28,61L25,63L25,57L15,55L15,51L10,45L8,41L9,37L15,36L18,33L30,32L38,31L38,25L43,19L43,-2L55,-6L80,-24L110,-42L124,-38L129,-33Z" fill="#E0E0E0" stroke="#fff" stroke-width=".4"/><path d="M29,113L30,99L30,94L31,88L34,85L38,80L37,78L39,74L37,69L37,66L38,58L40,54L42,49L44,47L53,46L62,49L65,53L70,53L74,51L84,55L89,55L94,51L99,52L101,50L106,51L113,54L120,49L122,49L128,59L129,58L133,62L132,64L131,67L124,73L122,79L120,84L119,86L117,92L112,95L111,100L109,103L108,107L102,110L97,106L94,106L89,112L86,112L82,120L80,126L71,129L67,129L64,131L57,131L53,125L50,119L44,113L37,113Z" fill="#E0E0E0" stroke="#fff" stroke-width=".4"/><path d="M132,55L135,61L136,67L136,73L140,81L136,81L133,81L129,80L127,84L132,90L136,91L137,95L140,101L139,103L134,112L132,114L132,120L132,124L132,127L136,131L137,134L140,139L144,142L144,146L145,148L144,153L138,151L131,148L120,148L118,148L113,149L108,148L104,148L90,148L91,141L88,135L84,134L82,130L80,129L80,126L82,120L86,112L89,112L94,106L97,106L102,110L108,107L109,103L111,100L112,95L117,92L119,86L120,84L122,79L124,73L131,67L132,64L133,62L129,58L129,56Z" fill="#E0E0E0" stroke="#fff" stroke-width=".4"/><path d="M14,72L13,76L15,79L18,82L19,86L20,88L20,108L22,114L15,116L13,113L11,108L10,103L12,95L10,92L9,85L9,79L5,74L6,71Z" fill="#E0E0E0" stroke="#fff" stroke-width=".4"/><path d="M6,71L5,74L9,79L9,85L10,92L12,95L10,103L11,108L13,113L15,116L1,121L-3,124L-11,127L-19,124L-19,121L-22,113L-20,103L-16,96L-19,84L-20,77L-20,72L-5,72L-1,72L2,71Z" fill="#E0E0E0" stroke="#fff" stroke-width=".4"/><path d="M-64,79L-63,78L-60,79L-54,79L-52,77L-51,77L-48,76L-47,80L-45,79L-41,77L-37,79L-36,82L-32,84L-29,82L-25,81L-19,84L-16,96L-20,103L-22,113L-19,121L-19,124L-23,124L-29,123L-34,123L-45,124L-51,127L-59,130L-61,130L-60,123L-60,122L-60,118L-64,114L-66,114L-69,111L-67,108L-68,103L-67,101L-66,101L-66,97L-66,95L-65,94L-62,93L-64,86L-66,82L-66,79Z" fill="#E0E0E0" stroke="#fff" stroke-width=".4"/><path d="M-113,58L-109,58L-103,60L-101,60L-100,59L-95,59L-94,59L-94,62L-92,62L-90,61L-89,61L-86,63L-82,64L-80,62L-77,61L-75,60L-73,60L-71,62L-70,64L-67,68L-69,70L-69,73L-67,72L-66,73L-67,76L-64,79L-66,79L-66,82L-64,86L-62,93L-65,94L-66,95L-66,97L-66,101L-67,101L-70,101L-72,104L-74,104L-76,102L-75,99L-79,93L-81,94L-83,94L-85,95L-85,92L-87,89L-86,87L-88,83L-91,80L-98,80L-100,82L-102,82L-104,84L-105,86L-109,90L-113,85L-116,81L-119,80L-121,79L-122,75L-123,73L-126,71L-122,67L-119,67L-117,66L-115,66L-114,64L-114,61L-113,61Z" fill="#E0E0E0" stroke="#fff" stroke-width=".4"/><path d="M-139,59L-134,58L-132,58L-129,57L-113,58L-113,61L-114,61L-114,64L-115,66L-117,66L-119,67L-122,67L-126,71L-130,68L-134,67L-136,64L-136,63L-138,61Z" fill="#E0E0E0" stroke="#fff" stroke-width=".4"/><path d="M-67,101L-68,103L-67,108L-69,111L-66,114L-64,114L-60,118L-60,122L-60,123L-61,130L-63,130L-72,126L-80,119L-88,114L-94,109L-91,106L-91,103L-87,99L-83,94L-81,94L-79,93L-75,99L-76,102L-74,104L-72,104L-70,101Z" fill="#E0E0E0" stroke="#fff" stroke-width=".4"/><path d="M-109,90L-105,86L-104,84L-102,82L-100,82L-98,80L-91,80L-88,83L-86,87L-87,89L-85,92L-85,95L-83,94L-87,99L-91,103L-91,106L-94,109L-96,108L-102,105L-107,100L-108,97Z" fill="#E0E0E0" stroke="#fff" stroke-width=".4"/><path d="M-41,77L-42,72L-39,68L-39,65L-33,58L-31,52L-29,50L-25,51L-21,49L-20,47L-13,43L-11,40L-3,36L1,35L4,37L9,37L8,41L10,45L15,51L15,55L25,57L25,63L23,66L18,67L17,71L14,72L6,71L2,71L-1,72L-5,72L-20,72L-20,77L-19,84L-25,81L-29,82L-32,84L-36,82L-37,79Z" fill="#E0E0E0" stroke="#fff" stroke-width=".4"/><path d="M244,122L241,123L235,123L229,122L226,123L224,125L222,125L218,123L208,128L204,127L203,128L201,133L194,131L188,130L182,127L175,124L170,127L167,131L166,137L161,137L155,135L150,140L145,148L144,146L144,142L140,139L137,134L136,131L132,127L132,124L132,120L132,114L134,112L139,103L146,102L148,100L149,100L151,102L162,99L166,96L170,93L169,89L172,89L180,89L188,85L195,75L199,72L205,70L206,74L211,80L211,83L209,87L210,90L213,92L219,96L224,100L224,102L230,107L234,111L236,116L242,120Z" fill="#E0E0E0" stroke="#fff" stroke-width=".4"/><path d="M166,137L166,143L163,147L161,153L160,160L161,165L159,168L159,172L158,174L152,178L149,183L145,191L145,199L143,201L138,206L133,211L129,210L129,207L124,207L121,210L119,209L116,206L113,208L109,212L102,202L109,198L106,192L109,190L115,189L115,185L120,189L128,189L130,185L131,179L130,173L126,167L130,157L128,156L121,156L119,152L120,148L131,148L138,151L144,153L145,148L150,140L155,135L161,137Z" fill="#E0E0E0" stroke="#fff" stroke-width=".4"/><path d="M104,148L108,148L113,149L118,148L120,148L119,152L121,156L128,156L130,157L126,167L130,173L131,179L130,185L128,189L120,189L115,185L115,189L109,190L106,192L109,198L102,202L93,194L88,186L82,177L83,175L85,172L87,165L88,159L91,159L104,159Z" fill="#E0E0E0" stroke="#fff" stroke-width=".4"/><path d="M90,148L104,148L104,159L91,159L88,159L87,158Z" fill="#E0E0E0" stroke="#fff" stroke-width=".4"/><path d="M273,241L277,243L280,244L286,246L291,248L295,252L297,260L295,262L294,269L295,277L293,280L290,288L295,290L268,298L269,304L262,306L258,309L256,312L253,313L246,320L241,326L238,327L235,326L225,324L224,324L224,323L220,321L215,320L208,323L202,317L196,309L197,281L215,281L214,278L215,275L214,270L215,266L214,263L217,264L217,266L221,266L227,267L230,271L237,272L242,269L244,274L251,275L254,279L257,284L264,284L263,274L261,276L255,273L253,271L254,262L255,252L253,248L256,242L258,241L270,240Z" fill="#E0E0E0" stroke="#fff" stroke-width=".4"/><path d="M291,248L299,250L301,252L304,257L306,269L304,275L306,287L309,287L312,290L316,296L317,308L313,310L310,316L305,310L304,304L306,300L305,296L302,294L300,295L295,290L290,288L293,280L295,277L294,269L295,262L297,260L295,252Z" fill="#E0E0E0" stroke="#fff" stroke-width=".4"/><path d="M306,269L313,268L323,270L326,269L332,269L335,266L340,267L349,263L356,258L358,262L357,271L358,279L359,293L360,297L358,303L354,310L349,315L341,319L331,323L321,333L318,335L312,341L308,343L308,350L312,357L313,362L313,365L315,365L315,374L313,378L315,380L314,384L310,387L303,391L293,396L289,399L290,403L292,404L291,409L285,409L284,405L283,400L282,397L283,386L281,380L277,366L286,356L288,349L290,348L291,343L289,340L290,333L291,327L291,315L287,312L283,312L281,309L277,307L270,308L269,304L268,298L295,290L300,295L302,294L305,296L306,300L304,304L305,310L310,316L313,310L317,308L316,296L312,290L309,287L306,287L304,275Z" fill="#E0E0E0" stroke="#fff" stroke-width=".4"/><path d="M285,409L283,413L278,414L273,409L273,406L275,402L276,399L278,399L283,400L284,405Z" fill="#E0E0E0" stroke="#fff" stroke-width=".4"/><path d="M119,209L116,211L114,214L114,217L112,218L109,212L113,208L116,206ZM113,221L117,220L119,220L122,219L148,219L150,226L152,231L154,234L158,238L164,237L166,236L171,237L173,235L175,230L180,230L181,228L185,228L184,231L195,231L195,237L197,240L195,246L196,251L199,254L198,265L201,264L204,264L210,263L214,263L215,266L214,270L215,275L214,278L215,281L197,281L196,309L202,317L208,323L192,326L171,325L165,321L129,321L128,322L123,318L117,317L112,319L108,321L107,315L108,307L111,299L112,295L115,287L117,283L122,277L124,273L125,267L125,262L122,258L120,253L118,248L118,246L121,243L118,234L117,228L112,223Z" fill="#E0E0E0" stroke="#fff" stroke-width=".4"/><path d="M271,189L271,192L273,194L273,197L271,199L268,203L265,207L261,207L260,196L258,193L263,193L266,188Z" fill="#E0E0E0" stroke="#fff" stroke-width=".4"/><path d="M316,-133L315,-130L312,-131L310,-125L312,-124L310,-122L309,-119L314,-121L314,-117L309,-101L309,-103L304,-118L306,-121L306,-122L308,-127L310,-135L311,-137L311,-137L314,-137L315,-139L317,-139L317,-135L316,-133Z" fill="#E0E0E0" stroke="#fff" stroke-width=".4"/><path d="M317,-139L315,-139L314,-137L311,-137L314,-146L319,-153L319,-154L323,-153L324,-149L319,-145Z" fill="#E0E0E0" stroke="#fff" stroke-width=".4"/><path d="M437,277L439,281L441,287L442,298L445,302L444,306L442,309L439,303L438,306L439,313L439,317L436,319L436,326L432,337L428,350L423,368L419,381L415,392L408,394L401,398L396,396L389,392L386,387L386,379L383,371L382,364L383,358L387,356L387,353L392,346L392,340L390,336L389,330L388,322L391,316L392,311L397,310L401,308L405,307L408,307L413,302L421,296L423,292L422,288L426,289L430,283L431,277L434,273Z" fill="#E0E0E0" stroke="#fff" stroke-width=".4"/><path d="M314,-121L309,-119L310,-122L312,-124L310,-125L312,-131L315,-130L315,-124Z" fill="#E0E0E0" stroke="#fff" stroke-width=".4"/><path d="M-139,49L-130,48L-128,46L-125,46L-122,48L-119,48L-116,47L-114,49L-118,51L-122,51L-126,49L-129,51L-130,51L-133,53L-140,52Z" fill="#E0E0E0" stroke="#fff" stroke-width=".4"/><path d="M88,-109L85,-127L79,-131L79,-134L72,-140L71,-148L77,-154L79,-162L77,-173L79,-178L89,-183L95,-181L94,-176L102,-180L102,-178L98,-172L98,-167L101,-165L100,-156L94,-150L96,-145L100,-144L102,-139L106,-138L105,-130L101,-127L98,-124L92,-120L93,-115L93,-111Z" fill="#E0E0E0" stroke="#fff" stroke-width=".4"/><path d="M-70,-80L-69,-82L-69,-82L-69,-94L-55,-102L-47,-103L-40,-106L-36,-111L-26,-115L-26,-122L-21,-123L-17,-127L-5,-129L-4,-133L-6,-135L-9,-146L-10,-152L-13,-159L-5,-165L5,-167L10,-171L19,-174L33,-176L48,-177L52,-176L60,-180L70,-180L73,-178L79,-178L77,-173L79,-162L77,-154L71,-148L72,-140L79,-134L79,-131L85,-127L88,-109L91,-100L92,-95L90,-87L91,-83L90,-77L90,-71L87,-67L92,-60L92,-56L95,-51L100,-53L106,-48L110,-42L80,-24L55,-6L43,-2L33,-1L33,-7L29,-8L24,-11L22,-15L-8,-36L-37,-56Z" fill="#E0E0E0" stroke="#fff" stroke-width=".4"/><path d="M315,-130L316,-133L326,-129L343,-140L347,-128L345,-126L328,-121L336,-111L333,-109L332,-106L325,-104L323,-101L319,-98L310,-99L309,-101L314,-117L314,-121L315,-124Z" fill="#E0E0E0" stroke="#fff" stroke-width=".4"/><path d="M454,-49L456,-50L456,-47L463,-49L470,-49L475,-48L481,-55L488,-61L493,-67L495,-64L496,-56L492,-56L491,-50L493,-48L489,-47L489,-43L486,-39L486,-35L484,-33L458,-38L455,-47Z" fill="#E0E0E0" stroke="#fff" stroke-width=".4"/><path d="M448,-54L447,-61L449,-66L452,-67L454,-64L454,-59L453,-53L450,-52Z" fill="#E0E0E0" stroke="#fff" stroke-width=".4"/><path d="M423,-105L425,-101L424,-99L427,-91L421,-91L418,-96L411,-97L417,-106Z" fill="#E0E0E0" stroke="#fff" stroke-width=".4"/><path d="M347,-128L343,-140L362,-151L366,-164L365,-172L370,-174L374,-181L378,-183L388,-182L391,-179L395,-181L401,-168L406,-165L407,-158L403,-155L401,-146L407,-137L417,-131L422,-123L420,-116L423,-116L423,-110L428,-105L423,-105L417,-106L411,-97L395,-98L370,-118L357,-125Z" fill="#E0E0E0" stroke="#fff" stroke-width=".4"/><path d="M486,-35L486,-39L489,-43L489,-47L493,-48L491,-50L492,-56L496,-56L500,-49L505,-46L511,-45L516,-43L520,-38L523,-34L526,-33L526,-31L523,-26L521,-23L518,-20L514,-14L510,-14L509,-12L507,-7L508,-1L507,0L503,0L498,3L497,8L495,10L490,10L486,12L486,16L482,18L477,17L472,20L468,21L465,15L458,-0L484,-10L490,-28ZM495,-64L493,-67L496,-70L497,-69L496,-65Z" fill="#E0E0E0" stroke="#fff" stroke-width=".4"/><path d="M898,61L895,50L901,43L912,41L920,42L928,46L932,40L939,43L941,49L940,60L926,67L929,72L920,73L913,76L905,75L902,70Z" fill="#E0E0E0" stroke="#fff" stroke-width=".4"/><path d="M920,42L912,41L901,43L895,50L898,61L890,57L882,57L884,50L876,50L875,60L871,73L868,81L868,87L874,87L878,95L879,103L884,108L889,109L894,114L891,117L885,118L884,114L877,110L876,112L872,108L871,104L866,99L862,95L861,100L859,95L860,89L863,81L867,72L871,64L868,56L868,51L867,46L861,39L859,35L862,33L866,25L862,19L856,13L852,5L856,3L860,-7L866,-7L871,-11L876,-14L880,-11L880,-5L886,-5L884,5L884,13L893,8L896,9L901,9L903,6L909,7L916,14L917,23L924,31L923,38Z" fill="#E0E0E0" stroke="#fff" stroke-width=".4"/><path d="M939,43L932,40L928,46L920,42L923,38L924,31L917,23L916,14L909,7L903,6L901,9L896,9L893,8L884,13L884,5L886,-5L880,-5L880,-11L876,-14L878,-17L885,-23L886,-21L891,-21L889,-31L894,-33L899,-25L903,-17L914,-17L917,-9L911,-6L909,-3L919,3L927,13L932,21L939,28L941,34Z" fill="#E0E0E0" stroke="#fff" stroke-width=".4"/><path d="M876,-14L871,-11L866,-7L860,-7L856,3L852,5L856,13L862,19L866,25L862,33L859,35L861,39L867,46L868,51L868,56L871,64L867,72L863,81L862,74L864,68L861,62L862,53L859,48L856,37L854,26L850,18L845,23L835,29L830,29L825,27L828,15L826,7L819,-4L820,-7L815,-8L809,-16L808,-23L811,-22L811,-29L816,-31L815,-35L817,-38L817,-48L824,-46L828,-54L828,-58L833,-66L833,-72L844,-79L850,-77L849,-83L852,-85L852,-88L857,-89L860,-83L864,-81L864,-74L864,-66L855,-58L854,-46L863,-48L866,-39L871,-37L868,-29L875,-26L879,-24L885,-27L885,-23L878,-17Z" fill="#E0E0E0" stroke="#fff" stroke-width=".4"/><path d="M913,76L920,73L929,72L926,67L940,60L941,49L939,43L941,34L939,28L932,21L927,13L919,3L909,-3L911,-6L917,-9L914,-17L903,-17L899,-25L894,-33L899,-35L906,-35L914,-36L921,-41L926,-37L934,-36L932,-30L936,-27L945,-24L933,-16L926,-7L924,-1L931,9L939,21L947,26L952,33L956,50L955,66L948,72L938,77L931,85L920,93L917,87L919,81Z" fill="#E0E0E0" stroke="#fff" stroke-width=".4"/><path d="M852,-88L852,-85L849,-83L850,-77L844,-79L833,-72L833,-66L828,-58L828,-54L824,-46L817,-48L817,-38L815,-35L816,-31L811,-29L807,-44L804,-44L803,-38L798,-42L801,-48L805,-48L809,-56L804,-58L796,-58L787,-59L787,-66L783,-66L776,-71L773,-64L779,-59L773,-55L772,-52L777,-49L775,-44L778,-37L780,-29L779,-25L773,-25L762,-24L762,-17L758,-11L745,-5L736,6L729,12L720,18L720,22L716,24L708,27L704,28L701,35L703,46L704,54L700,62L700,77L696,78L692,84L694,87L686,90L683,96L680,98L672,90L668,78L664,69L661,65L657,56L654,45L653,39L645,27L641,9L639,-2L639,-14L637,-22L625,-17L618,-18L607,-29L611,-33L609,-36L598,-44L604,-51L623,-51L622,-59L617,-64L616,-71L610,-75L620,-86L630,-85L639,-95L644,-105L653,-116L653,-123L660,-129L653,-134L650,-141L647,-150L651,-155L664,-152L674,-154L682,-163L692,-150L691,-142L694,-136L694,-131L688,-132L690,-121L699,-115L711,-108L705,-103L702,-94L710,-90L719,-85L730,-80L742,-78L747,-73L754,-72L764,-70L771,-70L772,-74L771,-80L772,-85L777,-87L778,-79L778,-77L786,-73L791,-75L799,-74L806,-74L806,-80L803,-84L810,-85L818,-92L828,-99L835,-96L841,-100L845,-94L842,-90Z" fill="#E0E0E0" stroke="#fff" stroke-width=".4"/><path d="M811,-29L811,-22L808,-23L809,-16L806,-21L806,-25L804,-30L800,-35L792,-36L793,-32L791,-27L787,-29L786,-27L783,-28L780,-29L778,-37L775,-44L777,-49L772,-52L773,-55L779,-59L773,-64L776,-71L783,-66L787,-66L787,-59L796,-58L804,-58L809,-56L805,-48L801,-48L798,-42L803,-38L804,-44L807,-44Z" fill="#E0E0E0" stroke="#fff" stroke-width=".4"/><path d="M803,-84L806,-80L806,-74L799,-74L791,-75L786,-73L778,-77L778,-79L784,-86L788,-89L795,-86L799,-86Z" fill="#E0E0E0" stroke="#fff" stroke-width=".4"/><path d="M772,-85L771,-80L772,-74L771,-70L764,-70L754,-72L747,-73L742,-78L730,-80L719,-85L710,-90L702,-94L705,-103L711,-108L715,-110L721,-107L730,-100L735,-99L738,-94L745,-92L752,-88L762,-86Z" fill="#E0E0E0" stroke="#fff" stroke-width=".4"/><path d="M682,-163L674,-154L664,-152L651,-155L647,-150L650,-141L653,-134L660,-129L653,-123L653,-116L644,-105L639,-95L630,-85L620,-86L610,-75L616,-71L617,-64L622,-59L623,-51L604,-51L598,-44L592,-47L590,-53L583,-61L567,-59L553,-59L540,-57L544,-69L556,-74L556,-78L551,-80L551,-88L543,-93L539,-99L535,-104L550,-99L558,-100L563,-99L565,-101L571,-100L583,-105L583,-113L588,-119L594,-119L595,-122L602,-123L605,-122L608,-125L608,-131L612,-137L617,-140L614,-147L622,-147L624,-150L624,-154L628,-159L627,-164L625,-169L630,-173L640,-176L650,-177L654,-179L659,-180L666,-175L668,-167Z" fill="#E0E0E0" stroke="#fff" stroke-width=".4"/><path d="M584,-183L589,-183L595,-180L598,-179L604,-183L607,-180L610,-185L615,-185L617,-187L618,-191L621,-195L626,-193L625,-189L628,-189L627,-179L630,-176L633,-178L637,-179L643,-184L649,-183L658,-183L659,-180L654,-179L650,-177L640,-176L630,-173L625,-169L627,-164L628,-159L624,-154L624,-150L622,-147L614,-147L617,-140L612,-137L608,-131L608,-125L605,-122L602,-123L595,-122L594,-119L588,-119L583,-113L583,-105L571,-100L565,-101L563,-99L558,-100L550,-99L535,-104L543,-113L542,-120L536,-121L535,-128L532,-136L536,-142L532,-143L534,-151L538,-164L547,-160L553,-162L555,-166L562,-168L567,-171L569,-180L576,-182L577,-186L581,-183Z" fill="#E0E0E0" stroke="#fff" stroke-width=".4"/><path d="M595,-180L600,-191L598,-200L592,-202L594,-207L602,-207L606,-213L609,-220L620,-223L618,-218L620,-215L623,-215L620,-211L610,-213L610,-207L619,-208L630,-204L646,-206L648,-195L651,-196L657,-194L656,-190L658,-183L649,-183L643,-184L637,-179L633,-178L630,-176L627,-179L628,-189L625,-189L626,-193L621,-195L618,-191L617,-187L615,-185L610,-185L607,-180L604,-183L598,-179Z" fill="#E0E0E0" stroke="#fff" stroke-width=".4"/><path d="M462,-233L466,-237L476,-239L482,-236L488,-227L492,-227L502,-227L501,-233L508,-237L515,-244L527,-238L528,-228L531,-226L541,-227L544,-225L548,-213L558,-205L564,-200L573,-194L584,-189L584,-183L581,-183L577,-186L576,-182L569,-180L567,-171L562,-168L555,-166L553,-162L547,-160L538,-164L537,-173L531,-174L521,-183L514,-184L504,-190L498,-191L494,-189L488,-189L482,-183L475,-181L473,-189L474,-200L467,-204L470,-212L464,-212L466,-222L474,-219L482,-223L475,-230L473,-237L466,-234L465,-225Z" fill="#E0E0E0" stroke="#fff" stroke-width=".4"/><path d="M428,-105L423,-110L423,-116L420,-116L422,-123L417,-131L407,-137L401,-146L403,-155L407,-158L406,-165L401,-168L395,-181L390,-189L392,-193L389,-206L395,-209L397,-205L401,-199L407,-198L410,-198L420,-207L424,-207L426,-204L423,-199L429,-193L431,-193L434,-185L442,-183L448,-177L460,-176L474,-178L475,-181L482,-183L488,-189L494,-189L498,-191L504,-190L514,-184L521,-183L531,-174L537,-173L538,-164L534,-151L532,-143L536,-142L532,-136L535,-128L536,-121L542,-120L543,-113L535,-104L539,-99L543,-93L551,-88L551,-80L556,-78L556,-74L544,-69L540,-57L524,-60L515,-63L505,-64L501,-76L497,-77L490,-76L481,-71L471,-74L462,-82L454,-85L448,-94L441,-107L437,-106L431,-109Z" fill="#E0E0E0" stroke="#fff" stroke-width=".4"/><path d="M316,-133L316,-133L317,-135L317,-139L319,-145L324,-149L323,-153L319,-154L318,-162L320,-166L322,-168L325,-171L325,-177L328,-175L338,-178L342,-176L349,-176L359,-180L364,-180L374,-181L370,-174L365,-172L366,-164L362,-151L343,-140L326,-129Z" fill="#E0E0E0" stroke="#fff" stroke-width=".4"/><path d="M410,-198L407,-198L403,-204L403,-206L400,-206L397,-209L395,-209L392,-212L385,-215L386,-221L385,-225L397,-226L399,-223L402,-221L400,-218L405,-215L402,-211L406,-208L410,-206Z" fill="#E0E0E0" stroke="#fff" stroke-width=".4"/><path d="M234,-160L233,-157L221,-156L221,-158L210,-160L212,-165L217,-161L223,-162L230,-161L230,-159ZM205,-227L212,-227L219,-230L225,-226L233,-227L233,-233L237,-230L234,-223L232,-222L227,-222L223,-223L212,-220L218,-214L214,-212L209,-212L204,-218L203,-215L205,-208L209,-203L206,-201L210,-195L215,-192L215,-186L207,-189L209,-183L204,-182L207,-173L201,-172L194,-177L191,-186L189,-193L186,-198L182,-205L181,-208L185,-213L186,-217L188,-219L189,-222L194,-223L198,-225L202,-225L204,-227Z" fill="#E0E0E0" stroke="#fff" stroke-width=".4"/><path d="M395,-181L391,-179L388,-182L378,-183L374,-181L364,-180L359,-180L349,-176L342,-176L338,-178L328,-175L325,-177L325,-171L322,-168L320,-166L317,-171L320,-175L315,-174L308,-177L302,-170L288,-169L281,-175L272,-175L270,-171L264,-170L256,-175L246,-175L241,-186L235,-192L239,-201L233,-206L243,-217L256,-217L260,-226L277,-225L287,-232L297,-235L312,-236L327,-227L339,-223L349,-225L357,-224L367,-230L376,-230L385,-225L386,-221L385,-215L392,-212L395,-209L389,-206L392,-193L390,-189ZM233,-233L242,-237L249,-235L250,-231L258,-227L256,-224L246,-224L242,-220L235,-214L232,-219L232,-222L234,-223L237,-230Z" fill="#E0E0E0" stroke="#fff" stroke-width=".4"/><path d="M-73,-234L-69,-237L-66,-238L-64,-233L-59,-233L-57,-234L-52,-234L-50,-228L-54,-225L-54,-216L-55,-214L-55,-209L-59,-208L-56,-201L-58,-194L-55,-191L-56,-188L-60,-183L-59,-180L-62,-177L-67,-179L-71,-177L-70,-186L-71,-193L-75,-194L-77,-198L-76,-205L-73,-209L-72,-214L-70,-221L-70,-226L-72,-230Z" fill="#E0E0E0" stroke="#fff" stroke-width=".4"/><path d="M-59,-180L-60,-183L-56,-188L-55,-191L-58,-194L-56,-201L-59,-208L-55,-209L-55,-214L-54,-216L-54,-225L-50,-228L-52,-234L-57,-234L-59,-233L-64,-233L-66,-238L-69,-237L-73,-234L-72,-242L-76,-247L-63,-256L-53,-254L-41,-254L-32,-252L-25,-252L-11,-252L-7,-247L9,-242L12,-245L22,-239L32,-241L32,-234L24,-226L13,-224L12,-220L7,-214L3,-204L7,-198L2,-193L-0,-186L-7,-184L-13,-175L-24,-175L-32,-175L-37,-171L-41,-167L-45,-168L-48,-172L-51,-178Z" fill="#E0E0E0" stroke="#fff" stroke-width=".4"/><path d="M1290,557L1295,558L1295,572L1292,576L1292,585L1289,582L1282,590L1281,590L1275,589L1270,579L1269,571L1264,561L1264,556L1270,557L1278,561L1283,559ZM1102,464L1093,469L1086,472L1084,477L1081,481L1073,481L1068,482L1060,481L1054,482L1048,482L1043,488L1040,487L1036,490L1032,494L1025,493L1020,493L1010,486L1006,484L1006,478L1010,477L1012,475L1011,471L1012,464L1011,458L1007,447L1005,442L1006,436L1002,430L1002,427L998,423L997,415L992,407L991,403L995,407L992,398L996,401L999,405L999,400L994,392L994,389L991,386L992,381L994,379L995,374L994,368L998,362L999,369L1002,362L1009,359L1014,355L1020,352L1024,351L1027,352L1034,349L1039,348L1040,346L1042,345L1047,345L1056,342L1061,338L1063,333L1068,329L1069,325L1069,320L1075,312L1079,320L1082,318L1079,314L1082,310L1086,312L1087,305L1092,300L1094,297L1098,295L1098,293L1102,294L1102,292L1106,290L1110,289L1117,293L1122,299L1127,299L1133,299L1131,295L1135,287L1139,285L1137,283L1141,278L1146,275L1151,276L1158,274L1158,269L1152,266L1156,265L1162,267L1167,271L1174,273L1177,272L1182,275L1187,273L1190,273L1192,272L1196,276L1194,281L1191,284L1188,285L1189,288L1186,293L1183,297L1184,300L1191,305L1197,308L1202,311L1208,316L1210,316L1215,318L1216,321L1225,324L1230,321L1232,316L1234,312L1235,307L1238,300L1236,296L1237,293L1236,288L1237,281L1239,279L1237,277L1240,272L1241,267L1241,264L1245,261L1247,265L1248,271L1250,272L1250,276L1253,280L1254,285L1254,289L1257,296L1262,292L1265,296L1269,300L1269,304L1270,311L1272,316L1274,317L1276,325L1275,329L1278,336L1288,341L1294,345L1300,349L1299,351L1303,357L1307,367L1310,365L1314,369L1316,368L1318,378L1324,384L1328,387L1334,395L1337,403L1337,408L1337,414L1341,423L1340,431L1339,436L1336,445L1337,451L1335,458L1331,467L1325,472L1321,480L1318,486L1316,495L1313,500L1310,508L1309,516L1310,519L1305,523L1295,523L1287,528L1283,532L1278,537L1270,532L1265,530L1267,524L1262,526L1254,534L1247,531L1242,530L1237,529L1228,526L1223,519L1221,511L1219,505L1215,501L1206,499L1209,494L1207,486L1203,494L1195,496L1200,490L1201,484L1204,479L1204,471L1197,480L1191,483L1188,492L1181,487L1181,482L1176,474L1171,470L1173,468L1162,462L1156,461L1147,457L1132,457L1121,461L1111,465Z" fill="#E0E0E0" stroke="#fff" stroke-width=".4"/><path d="M717,102L715,111L712,114L704,116L700,109L699,96L703,82L709,87L713,93Z" fill="#E0E0E0" stroke="#fff" stroke-width=".4"/><path d="M957,7L950,4L950,-4L954,-8L964,-11L969,-10L971,-7L967,-3L965,3ZM704,-239L703,-246L709,-249L701,-270L718,-275L723,-278L729,-300L746,-296L751,-302L751,-315L759,-316L765,-325L769,-326L771,-317L778,-310L791,-305L797,-295L793,-280L796,-275L807,-273L818,-271L829,-263L834,-262L838,-251L843,-244L853,-244L871,-241L882,-243L891,-241L904,-234L914,-234L918,-230L928,-237L942,-241L955,-241L966,-245L972,-252L978,-256L977,-260L974,-264L978,-272L983,-271L992,-269L1001,-275L1014,-280L1020,-288L1027,-292L1039,-294L1046,-292L1047,-297L1039,-306L1032,-310L1025,-305L1017,-307L1012,-305L1010,-311L1016,-324L1020,-334L1030,-329L1043,-337L1043,-343L1051,-358L1055,-363L1055,-370L1050,-374L1058,-381L1068,-384L1080,-384L1093,-380L1101,-374L1106,-360L1109,-354L1112,-346L1115,-332L1131,-328L1141,-319L1144,-306L1158,-306L1165,-311L1180,-315L1175,-304L1172,-299L1169,-285L1163,-273L1152,-275L1145,-271L1147,-260L1146,-246L1141,-246L1141,-240L1136,-247L1132,-240L1119,-235L1120,-229L1113,-229L1109,-233L1103,-225L1093,-219L1086,-211L1074,-208L1067,-203L1058,-200L1063,-205L1061,-209L1068,-217L1063,-223L1056,-219L1046,-211L1040,-204L1032,-203L1027,-198L1032,-190L1039,-189L1039,-184L1046,-180L1056,-188L1064,-184L1069,-184L1071,-178L1059,-175L1054,-169L1046,-164L1042,-156L1051,-151L1054,-140L1060,-131L1066,-123L1065,-115L1060,-113L1062,-107L1067,-104L1066,-96L1064,-88L1059,-87L1052,-77L1045,-64L1037,-52L1025,-44L1013,-36L1003,-35L998,-30L995,-33L990,-29L978,-24L969,-23L966,-13L961,-12L959,-19L961,-23L949,-26L945,-24L936,-27L932,-30L934,-36L926,-37L921,-41L914,-36L906,-35L899,-35L894,-33L889,-31L891,-21L886,-21L885,-23L885,-27L879,-24L875,-26L868,-29L871,-37L866,-39L863,-48L854,-46L855,-58L864,-66L864,-74L864,-81L860,-83L857,-89L852,-88L842,-90L845,-94L841,-100L835,-96L828,-99L818,-92L810,-85L803,-84L799,-86L795,-86L788,-89L784,-86L778,-79L777,-87L772,-85L762,-86L752,-88L745,-92L738,-94L735,-99L730,-100L721,-107L715,-110L711,-108L699,-115L690,-121L688,-132L694,-131L694,-136L691,-142L692,-150L682,-163L668,-167L666,-175L659,-180L658,-183L656,-190L657,-194L651,-196L648,-195L646,-206L649,-208L648,-211L656,-216L662,-219L671,-217L674,-224L686,-226L689,-230L702,-237Z" fill="#E0E0E0" stroke="#fff" stroke-width=".4"/><path d="M97,-295L102,-293L103,-295L112,-298L113,-293L126,-290L125,-284L127,-278L120,-280L113,-276L114,-270L112,-266L115,-260L123,-254L128,-244L138,-235L144,-235L146,-232L144,-230L152,-226L158,-222L166,-216L167,-214L165,-210L160,-215L153,-217L149,-210L155,-206L154,-200L150,-199L146,-190L142,-189L142,-192L144,-198L146,-200L143,-207L140,-213L136,-214L134,-219L128,-221L124,-226L118,-226L111,-232L103,-239L97,-246L95,-258L90,-259L83,-263L79,-262L74,-256L71,-255L72,-260L67,-262L65,-271L68,-275L65,-280L65,-283L69,-281L73,-281L78,-286L80,-284L84,-284L86,-289L92,-287L96,-290ZM134,-191L141,-192L138,-184L139,-180L137,-175L131,-179L126,-180L114,-185L115,-191L125,-190ZM82,-222L86,-226L91,-218L90,-203L86,-204L82,-200L79,-203L79,-216L77,-223Z" fill="#E0E0E0" stroke="#fff" stroke-width=".4"/><path d="M409,-234L412,-233L418,-226L422,-225L423,-228L428,-233L433,-227L437,-219L441,-218L444,-215L437,-214L435,-205L434,-201L431,-199L431,-193L429,-193L423,-199L426,-204L424,-207L420,-207L410,-198L410,-206L406,-208L402,-211L405,-215L400,-218L402,-221L399,-223L397,-226L399,-228L405,-225L410,-224L411,-226L407,-232ZM407,-198L401,-199L397,-205L395,-209L397,-209L400,-206L403,-206L403,-204Z" fill="#E0E0E0" stroke="#fff" stroke-width=".4"/><path d="M876,112L877,110L884,114L885,118L891,117L894,114L896,114L901,120L904,126L905,131L904,135L905,138L906,144L909,146L912,154L912,157L906,157L897,151L887,144L886,139L881,134L880,126L877,122L878,115ZM1031,132L1023,130L1013,130L1010,140L1007,143L1002,155L995,157L987,155L983,156L978,160L972,159L966,161L961,156L959,150L965,153L972,152L974,144L978,143L988,141L994,134L999,128L1003,133L1004,130L1008,130L1009,125L1009,120L1016,114L1020,107L1024,107L1028,112L1029,116L1035,118L1042,121L1041,124L1035,125L1037,129Z" fill="#E0E0E0" stroke="#fff" stroke-width=".4"/><path d="M1009,120L1009,125L1008,130L1004,130L1003,133L999,128L1002,125Z" fill="#E0E0E0" stroke="#fff" stroke-width=".4"/><path d="M323,41L322,38L325,24L326,18L329,15L335,14L340,9L345,19L347,28L352,32L364,41L369,46L373,51L376,54L380,57L378,59L374,58L371,55L367,50L364,47L361,44L354,40L348,40L346,38L341,40L335,36L333,43Z" fill="#E0E0E0" stroke="#fff" stroke-width=".4"/><path d="M458,-0L465,15L468,21L461,23L460,27L459,31L451,34L437,39L429,45L425,45L423,45L417,49L412,50L405,51L402,51L401,54L398,54L397,57L393,56L390,58L384,57L382,52L382,47L380,44L379,38L376,34L378,34L377,29L378,28L378,24L382,21L381,17L383,13L387,15L389,14L399,14L401,15L409,16L412,15L414,18L418,17L425,7L433,3Z" fill="#E0E0E0" stroke="#fff" stroke-width=".4"/><path d="M310,-99L319,-98L323,-101L325,-104L332,-106L333,-109L336,-111L328,-121L345,-126L347,-128L357,-125L370,-118L395,-98L411,-97L418,-96L421,-91L427,-91L430,-83L434,-81L436,-77L442,-73L442,-69L441,-66L443,-63L445,-60L446,-57L448,-54L450,-52L453,-53L454,-49L455,-47L458,-38L484,-33L486,-35L490,-28L484,-10L458,-0L433,3L425,7L418,17L414,18L412,15L409,16L401,15L399,14L389,14L387,15L383,13L381,17L382,21L378,24L377,20L374,17L373,14L369,10L364,3L362,-5L356,-11L352,-13L346,-22L345,-28L345,-34L340,-44L336,-48L332,-50L329,-55L329,-58L327,-63L324,-65L321,-72L316,-80L311,-86L307,-86L308,-92L309,-95Z" fill="#E0E0E0" stroke="#fff" stroke-width=".4"/><path d="M290,-159L291,-159L292,-161L299,-161L306,-164L301,-160L301,-158L300,-158L299,-157L297,-158L297,-157L297,-158L296,-159L294,-159L292,-158Z" fill="#E0E0E0" stroke="#fff" stroke-width=".4"/><path d="M290,-159L292,-158L294,-159L296,-159L297,-158L297,-157L297,-158L299,-157L300,-158L301,-158L301,-157L293,-153L288,-154L286,-158Z" fill="#E0E0E0" stroke="#fff" stroke-width=".4"/><path d="M-13,-159L-10,-152L-9,-146L-6,-135L-4,-133L-5,-129L-17,-127L-21,-123L-26,-122L-26,-115L-36,-111L-40,-106L-47,-103L-55,-102L-69,-94L-69,-82L-71,-82L-71,-77L-76,-77L-79,-75L-83,-75L-86,-76L-93,-75L-96,-67L-99,-67L-103,-55L-115,-44L-118,-31L-121,-27L-122,-24L-142,-23L-142,-23L-142,-27L-138,-30L-135,-35L-136,-38L-133,-45L-128,-51L-125,-52L-123,-58L-123,-63L-120,-69L-114,-72L-108,-82L-108,-82L-104,-86L-96,-87L-89,-94L-84,-97L-77,-105L-79,-118L-76,-126L-75,-132L-69,-139L-61,-144L-54,-148L-48,-159L-46,-165L-39,-165L-34,-161L-26,-162L-17,-159Z" fill="#E0E0E0" stroke="#fff" stroke-width=".4"/><path d="M326,-28L292,-28L258,-28L223,-28L223,-63L223,-98L221,-106L223,-112L221,-117L225,-122L236,-122L245,-119L253,-116L257,-114L264,-118L267,-121L275,-121L281,-120L284,-115L286,-118L293,-116L299,-115L304,-118L309,-103L309,-101L307,-97L305,-89L303,-84L301,-82L298,-86L294,-90L288,-104L287,-103L290,-93L296,-83L302,-68L306,-62L308,-57L316,-46L314,-45L315,-39L325,-30Z" fill="#E0E0E0" stroke="#fff" stroke-width=".4"/><path d="M223,-28L223,-10L213,-10L213,-6L178,-24L144,-42L135,-36L129,-33L124,-38L110,-42L106,-48L100,-53L95,-51L92,-56L92,-60L87,-67L90,-71L90,-77L91,-83L90,-87L92,-95L91,-100L88,-109L93,-111L93,-115L92,-120L98,-124L101,-127L105,-130L106,-138L116,-134L120,-135L127,-133L138,-129L142,-120L150,-118L163,-113L172,-108L176,-111L180,-116L178,-123L181,-128L187,-133L193,-135L205,-133L208,-128L211,-128L214,-126L223,-125L225,-122L221,-117L223,-112L221,-106L223,-98L223,-63Z" fill="#E0E0E0" stroke="#fff" stroke-width=".4"/><path d="M421,98L397,124L385,125L378,131L372,131L370,134L364,134L360,131L352,134L350,138L344,137L342,136L340,137L337,137L326,129L320,129L317,126L317,121L313,120L308,110L304,108L302,105L298,101L292,100L295,95L300,95L301,92L301,84L304,75L308,72L309,69L312,62L318,58L321,49L323,41L333,43L335,36L341,40L346,38L348,40L354,40L361,44L364,47L367,50L371,55L374,58L371,62L368,66L369,68L369,71L374,71L376,71L378,72L376,75L379,80L382,85L386,88L414,98Z" fill="#E0E0E0" stroke="#fff" stroke-width=".4"/><path d="M374,58L378,59L380,57L382,59L382,63L377,65L381,68L378,72L376,71L374,71L369,71L369,68L368,66L371,62Z" fill="#E0E0E0" stroke="#fff" stroke-width=".4"/><path d="M431,68L431,68L431,72L431,81L431,85L427,91L421,98L414,98L386,88L382,85L379,80L376,75L378,72L381,68L384,69L385,73L389,77L394,77L402,74L411,73L419,70L423,70L426,68Z" fill="#E0E0E0" stroke="#fff" stroke-width=".4"/><path d="M301,176L283,177L273,177L270,178L265,180L263,179L263,173L265,170L266,163L267,159L271,154L274,152L277,149L273,147L274,137L278,135L283,137L290,135L296,135L301,131L306,137L307,141L310,151L307,158L303,163L301,167Z" fill="#E0E0E0" stroke="#fff" stroke-width=".4"/><path d="M270,178L274,183L273,188L271,189L266,188L263,193L258,193L259,188L260,187L261,182L263,179L265,180Z" fill="#E0E0E0" stroke="#fff" stroke-width=".4"/><path d="M274,137L266,132L264,128L259,130L255,129L253,131L249,129L244,122L242,120L236,116L234,111L230,107L224,102L224,100L219,96L214,93L216,92L219,90L221,82L224,78L230,77L232,79L236,84L238,85L242,84L248,84L249,86L258,86L258,84L262,82L263,80L267,78L274,83L278,82L283,76L288,71L287,66L285,63L290,63L291,61L295,61L293,68L295,74L299,78L300,81L300,85L301,85L301,92L300,95L295,95L292,100L298,101L302,105L304,108L308,110L313,120L307,126L301,131L296,135L290,135L283,137L278,135Z" fill="#E0E0E0" stroke="#fff" stroke-width=".4"/></g><g clip-path="url(#v)"><path d="M366.9,182.6L367.0,181.9L366.8,181.5L366.0,180.4L364.5,178.4L363.3,176.9L362.1,175.4L362.1,174.2L362.1,170.5L362.1,163.2L362.0,155.8L362.0,148.5L362.0,144.8L362.0,143.3L362.1,143.1L363.5,141.8L365.2,140.0L367.6,136.6L368.9,134.7L370.0,133.2L370.2,132.8L371.2,131.8L372.9,131.3L374.1,131.2L377.9,130.5L378.4,130.2L378.8,129.9L379.1,129.2L379.8,128.1L380.8,127.4L382.6,126.5L384.3,125.7L384.7,125.6L386.9,125.1L387.4,124.9L388.3,124.7L388.6,124.7L391.6,124.9L393.9,125.0L396.3,125.2L396.5,125.1L398.2,123.2L400.9,120.3L402.5,118.5L405.2,115.6L407.2,113.5L409.4,111.2L411.6,109.1L414.2,106.6L415.8,105.0L418.4,102.5L420.8,100.2L422.9,98.1L424.2,96.1L425.5,94.2L426.9,92.1L428.5,89.6L430.0,87.2L431.3,85.3L431.3,84.3L431.3,82.2L431.3,80.7L431.3,76.6L431.3,74.2L431.3,71.8L431.3,69.3L432.4,69.2L435.2,68.6L437.4,67.6L441.5,66.9L444.6,65.2L445.1,64.3L446.0,63.2L447.4,62.9L450.9,64.2L451.4,64.2L451.2,65.0L451.1,65.8L450.4,67.1L449.9,68.7L450.3,70.9L450.4,74.7L450.3,75.2L450.1,75.7L450.0,76.2L449.6,76.3L449.5,76.5L449.8,76.6L450.8,76.2L450.8,75.8L450.9,75.6L451.8,76.1L452.4,76.3L452.6,76.7L452.5,77.0L451.5,76.9L451.0,76.7L449.5,77.1L448.6,77.5L448.3,78.2L448.1,81.1L447.8,83.0L447.7,85.5L446.5,87.1L446.0,88.3L444.3,90.6L443.3,92.6L443.0,93.6L441.4,96.3L439.2,98.4L438.4,101.0L437.6,102.7L436.8,104.2L434.8,106.9L433.9,108.8L432.6,112.0L432.2,114.1L428.8,120.0L425.2,124.7L422.9,128.7L418.9,133.3L413.4,139.3L406.2,146.3L404.2,147.7L396.3,152.1L391.2,155.7L388.6,158.2L385.9,160.4L383.7,162.4L377.2,169.4L376.5,170.0L375.8,170.6L375.0,171.8L374.4,172.3L372.9,174.2L371.9,175.3L370.8,176.3L370.3,177.0L370.0,177.8L369.6,178.3L368.7,180.3L367.8,181.5Z" fill="#4ECDC4" stroke="#2C3E50" stroke-width="1"/></g><circle cx="400.0" cy="150.0" r="4" fill="#E74C3C" stroke="#fff" stroke-width="2"/><text x="400.0" y="140.0" text-anchor="middle" font-family="sans-serif" font-weight="700" font-size="10" fill="#2D3436">Mogadishu</text></svg>