<svg viewBox="0 0 800 300" xmlns="http://www.w3.org/2000/svg"><defs><clipPath id="v"><rect width="800" height="300"/></clipPath></defs><rect width="800" height="300" fill="#DCEEF8"/><g clip-path="url(#v)"><path d="M-70,-205L-70,-213L-77,-222L-70,-227L-68,-239L-71,-255L-67,-260L-45,-260L-28,-252L-20,-253L-15,-242L0,-243L-1,-234L12,-233L26,-222L15,-210L2,-216L-11,-215L-21,-216L-26,-211L-37,-209L-41,-216L-50,-212L-62,-191L-69,-196Z" fill="#E0E0E0" stroke="#fff" stroke-width=".4"/><path d="M451,1339L443,1320L456,1304L439,1281L417,1262L388,1241L377,1242L349,1216L330,1220L368,1175L400,1144L419,1131L443,1113L444,1088L430,1069L416,1076L421,1057L425,1039L425,1022L415,1016L404,1021L393,1020L390,1008L387,979L382,970L363,962L351,968L321,962L323,920L315,904L324,897L321,880L329,867L334,843L327,825L312,816L308,805L313,787L258,786L247,752L255,751L255,739L249,730L248,713L232,704L214,705L202,696L183,690L172,679L140,675L109,649L111,629L108,618L111,596L74,601L58,612L34,624L27,633L13,633L-9,631L-25,636L-37,632L-36,588L-59,606L-84,605L-95,589L-114,588L-108,575L-124,558L-135,532L-128,527L-128,515L-111,506L-113,491L-106,481L-104,468L-72,448L-48,443L-45,438L-19,440L-6,362L-5,349L-10,333L-22,323L-22,302L-6,297L-1,300L0,289L-16,286L-17,268L39,269L48,259L56,268L62,285L67,282L83,297L105,295L110,286L131,279L143,275L146,263L167,255L165,249L141,246L137,228L138,209L126,202L131,199L152,203L175,210L183,203L203,199L235,188L245,177L242,169L257,168L263,174L259,187L269,191L276,205L268,215L263,239L271,253L273,266L290,280L304,281L307,276L316,274L329,269L338,262L354,264L361,263L376,266L379,260L374,254L377,246L389,248L402,245L418,251L431,257L440,250L446,251L450,259L463,257L474,246L483,225L500,199L510,198L517,213L533,263L548,268L549,288L527,311L536,320L586,324L587,353L609,334L645,344L692,361L706,378L701,394L734,385L790,400L832,399L874,423L911,455L933,463L957,464L967,473L977,509L981,527L970,574L956,593L916,633L897,666L876,691L869,692L861,714L863,769L855,814L852,834L843,846L838,886L809,926L805,957L782,971L775,989L744,989L699,1001L679,1015L647,1024L614,1049L590,1080L586,1104L590,1121L585,1154L579,1169L559,1187L527,1245L502,1272L483,1287L470,1319Z" fill="#E0E0E0" stroke="#fff" stroke-width=".4"/><path d="M-19,440L-45,438L-48,443L-72,448L-104,468L-106,481L-113,491L-111,506L-128,515L-128,527L-135,532L-124,558L-108,575L-114,588L-95,589L-84,605L-59,606L-36,588L-37,632L-25,636L-9,631L16,678L10,687L9,708L8,733L-3,748L2,759L-5,768L8,793L-10,825L-18,841L-32,848L-61,831L-64,819L-120,789L-171,757L-193,739L-205,714L-200,706L-224,668L-252,614L-279,557L-291,544L-300,523L-322,504L-342,492L-333,479L-346,452L-338,432L-315,414L-312,426L-320,433L-319,443L-307,441L-296,444L-284,459L-268,447L-262,428L-245,403L-211,392L-180,362L-171,343L-175,322L-167,319L-148,332L-139,346L-126,353L-109,383L-88,387L-72,379L-62,384L-45,382L-23,395L-42,424L-33,425Z" fill="#E0E0E0" stroke="#fff" stroke-width=".4"/><path d="M67,282L62,285L56,268L48,259L39,269L-17,268L-16,286L0,289L-1,300L-6,297L-22,302L-22,323L-10,333L-5,349L-6,362L-19,440L-33,425L-42,424L-23,395L-45,382L-62,384L-72,379L-88,387L-109,383L-126,353L-139,346L-148,332L-167,319L-175,322L-187,315L-201,305L-209,310L-233,306L-240,294L-245,294L-274,278L-278,269L-267,267L-268,253L-262,242L-248,241L-236,223L-225,208L-235,201L-230,184L-236,158L-230,151L-235,126L-246,111L-242,97L-233,99L-228,91L-235,74L-231,70L-216,71L-195,50L-183,47L-183,38L-178,13L-162,-0L-144,-1L-141,-7L-119,-4L-97,-19L-86,-25L-72,-39L-62,-38L-54,-30L-60,-20L-78,-15L-85,-1L-96,8L-105,18L-108,39L-116,56L-101,58L-98,71L-91,77L-89,89L-92,100L-91,105L-84,108L-78,118L-41,115L-25,119L-5,143L7,140L27,142L44,139L54,144L49,159L42,169L40,189L46,208L54,216L55,223L40,237L51,243L58,253Z" fill="#E0E0E0" stroke="#fff" stroke-width=".4"/><path d="M242,169L245,177L235,188L203,199L183,203L175,210L152,203L131,199L126,202L138,209L137,228L141,246L165,249L167,255L146,263L143,275L131,279L110,286L105,295L83,297L67,282L58,253L51,243L40,237L55,223L54,216L46,208L40,189L42,169L49,159L54,144L44,139L27,142L7,140L-5,143L-25,119L-41,115L-78,118L-84,108L-91,105L-92,100L-89,89L-91,77L-98,71L-101,58L-116,56L-108,39L-105,18L-96,8L-85,-1L-78,-15L-60,-20L-61,-13L-77,-10L-68,3L-68,18L-81,35L-70,58L-58,56L-52,35L-60,25L-62,3L-26,-9L-30,-22L-20,-31L-10,-11L10,-10L28,6L29,15L55,16L85,13L102,26L124,29L139,20L140,13L175,11L209,11L185,19L195,33L217,35L239,49L244,72L258,72L269,78L247,95L244,106L254,116L247,122L230,126L230,140L222,147Z" fill="#E0E0E0" stroke="#fff" stroke-width=".4"/><path d="M361,263L354,264L338,262L329,269L316,274L307,276L304,281L290,280L273,266L271,253L263,239L268,215L276,205L269,191L259,187L263,174L257,168L242,169L222,147L230,140L230,126L247,122L254,116L244,106L247,95L269,78L288,89L306,108L307,122L317,123L333,137L344,147L339,173L322,180L323,187L318,202L331,222L340,222L344,238Z" fill="#E0E0E0" stroke="#fff" stroke-width=".4"/><path d="M500,199L483,225L474,246L463,257L450,259L446,251L440,250L431,257L418,251L426,240L428,227L433,214L422,197L420,178L434,153L444,156L465,163L495,187ZM2146,-1307L2159,-1295L2200,-1287L2186,-1258L2182,-1227L2174,-1220L2161,-1224L2162,-1213L2141,-1190L2141,-1171L2154,-1178L2164,-1160L2163,-1148L2171,-1133L2162,-1120L2169,-1090L2184,-1085L2181,-1067L2155,-1045L2099,-1056L2058,-1043L2054,-1020L2022,-1015L1989,-1032L1979,-1024L1927,-1042L1915,-1057L1930,-1080L1936,-1161L1906,-1204L1885,-1225L1842,-1241L1839,-1273L1876,-1282L1923,-1271L1914,-1320L1941,-1301L2008,-1336L2016,-1372L2041,-1382L2045,-1366L2058,-1365L2072,-1347L2091,-1326L2106,-1329L2131,-1309L2137,-1306ZM2218,-1026L2237,-1041L2241,-1007L2232,-978L2219,-986L2213,-1012Z" fill="#E0E0E0" stroke="#fff" stroke-width=".4"/><path d="M-175,322L-171,343L-180,362L-211,392L-245,403L-262,428L-268,447L-284,459L-296,444L-307,441L-319,443L-320,433L-312,426L-315,414L-300,393L-306,380L-317,394L-334,381L-328,373L-333,347L-323,343L-318,325L-307,307L-309,295L-293,289L-274,278L-245,294L-240,294L-233,306L-209,310L-201,305L-187,315Z" fill="#E0E0E0" stroke="#fff" stroke-width=".4"/><path d="M-237,-218L-218,-215L-203,-208L-198,-200L-218,-200L-227,-195L-243,-199L-259,-210L-256,-217L-244,-219Z" fill="#E0E0E0" stroke="#fff" stroke-width=".4"/><path d="M215,9L231,6L237,7L236,28L212,31L207,29L215,21Z" fill="#E0E0E0" stroke="#fff" stroke-width=".4"/></g><g clip-path="url(#v)"><path d="M428.8,164.6L426.5,166.6L423.9,169.5L420.4,174.5L420.6,176.0L419.8,177.3L419.6,179.5L419.9,182.0L420.7,183.7L421.1,186.7L420.5,189.6L420.7,191.2L421.4,193.8L422.1,196.5L422.0,197.6L422.8,198.5L423.6,199.4L423.3,201.9L426.0,206.2L427.7,208.1L430.0,210.0L431.0,211.8L432.3,214.0L433.1,214.2L433.5,215.1L433.1,216.8L433.0,219.1L431.5,221.8L427.9,226.8L427.5,228.0L428.4,232.1L427.9,235.4L427.7,237.1L425.9,240.0L421.9,247.2L419.5,248.6L418.1,250.6L417.1,250.6L416.1,250.8L415.7,251.1L414.5,251.1L413.5,250.1L413.2,249.0L412.7,247.8L411.5,247.4L409.0,247.9L408.3,247.6L406.9,246.2L405.8,244.7L405.5,243.4L404.6,243.5L402.8,244.7L401.6,245.0L400.6,244.7L399.5,244.8L396.7,246.1L395.0,246.5L393.9,247.8L386.1,248.5L384.1,248.8L379.4,246.4L378.2,245.7L377.6,245.5L377.1,245.7L376.6,246.2L375.8,249.2L375.1,250.0L373.9,250.7L372.7,251.9L372.5,253L374.3,253.6L375.9,255.9L377.5,257.6L378.8,259.3L378.6,261.1L378.4,263.6L377.4,264.5L375.9,264.9L369.9,263.6L365.4,262.5L363.5,262.3L362.7,262.0L361.5,261.1L360.4,260.2L358.6,259.9L356.3,259.3L354.8,257.1L353.0,253.9L352.5,252.5L351.2,251.1L349.9,249.1L349.5,247.4L348.5,245.8L348.0,245.2L347.3,243.0L347.1,242.2L346.8,242.1L346.3,241.4L345.1,239.1L344.9,238.5L344.5,238.3L343.3,236.6L342.4,236.1L342.0,235.3L342.1,232.9L341.6,231.8L341.4,229.7L341.4,228.8L340.8,227.8L340.0,227.2L339.9,225.7L339.7,221.8L339.3,221.2L335.8,221.2L335.5,221.6L334.0,221.8L332.3,221.8L330.8,221.4L329.6,220.7L329.3,219.8L329.5,217.1L327.4,215.1L324.2,212.6L323.3,209.5L322.1,207.5L318.6,203.3L317.9,200.5L317.9,198.5L319.2,196.7L321.0,193.4L321.6,190.5L322.2,188.9L323.0,186.9L323.8,184.3L323.2,182.7L322.2,181.1L321.9,180.0L322.9,178.3L323.9,177.1L325.1,176.9L326.5,176.1L327.7,175.1L329.5,174.9L331.7,174.8L336.2,174.8L338.5,174.3L339.2,173.5L339.1,171.8L340.3,170.4L341.5,169.7L342.0,169.3L342.1,168.8L341.8,168.3L341.2,167.9L340.0,167.8L338.9,165.3L339.6,164.2L340.6,162.2L340.8,161.0L342.4,159.2L342.8,159.8L343.9,156.5L344.1,153.8L344.9,151.1L346.4,148.0L348.8,146.5L363.2,148.1L369.7,149.6L378.1,152.1L379.3,154.9L379.3,152.1L378.9,149.4L381.3,147.4L386.4,146.7L394.1,147.6L400.6,146.5L409.6,146.6L423.2,148.9L429.2,150.4L431.8,151.8L432.2,154.3L432.0,157.4L431.0,160.5Z" fill="#4ECDC4" stroke="#2C3E50" stroke-width="1"/></g><circle cx="400.0" cy="150.0" r="4" fill="#E74C3C" stroke="#fff" stroke-width="2"/><text x="400.0" y="140.0" text-anchor="middle" font-family="sans-serif" font-weight="700" font-size="10" fill="#2D3436">Paramaribo</text></svg>