<svg viewBox="0 0 800 300" xmlns="http://www.w3.org/2000/svg"><defs><clipPath id="v"><rect width="800" height="300"/></clipPath></defs><rect width="800" height="300" fill="#DCEEF8"/><g clip-path="url(#v)"><path d="M2392,458L2396,455L2401,460L2398,467L2390,469L2382,467L2381,461L2386,456ZM2418,444L2409,448L2401,451L2399,445L2406,443L2410,442L2418,437L2418,437L2418,444ZM-2477,437L-2477,437L-2477,437L-2474,437L-2476,444L-2477,444L-2477,444L-2477,437Z" fill="#E0E0E0" stroke="#fff" stroke-width=".4"/><path d="M432,229L434,230L483,258L484,266L504,280L497,296L498,304L507,309L507,313L504,321L504,325L503,332L508,340L514,354L519,357L508,365L493,370L485,370L480,374L471,375L467,376L451,373L440,374L437,355L432,348L429,345L416,342L408,338L400,336L394,333L389,330L381,313L373,305L371,297L372,290L370,277L375,277L380,272L385,265L389,262L389,257L386,254L385,249L389,247L390,239L384,231L389,230L404,230Z" fill="#E0E0E0" stroke="#fff" stroke-width=".4"/><path d="M-147,-176L-147,-174L-147,-172L-147,-148L-192,-149L-192,-111L-204,-110L-208,-102L-205,-81L-258,-81L-261,-76L-261,-82L-261,-82L-230,-83L-228,-89L-223,-95L-218,-116L-199,-132L-193,-151L-189,-152L-184,-164L-173,-165L-168,-163L-162,-163L-157,-167L-149,-167L-149,-176Z" fill="#E0E0E0" stroke="#fff" stroke-width=".4"/><path d="M370,277L372,290L371,297L373,305L381,313L389,330L383,328L365,331L361,332L357,341L360,347L358,364L356,378L360,380L370,385L373,383L374,398L364,398L358,390L353,384L343,382L340,375L332,379L321,377L316,371L308,370L301,370L300,366L296,365L290,365L281,367L275,366L272,368L273,351L268,346L267,338L269,329L266,324L266,315L250,316L251,311L244,311L243,313L235,314L231,322L229,325L222,323L217,325L208,326L203,319L200,314L196,306L193,296L152,296L148,298L144,297L138,299L136,295L140,293L140,287L142,284L147,281L151,282L156,277L163,277L164,281L169,284L177,275L185,268L188,264L188,253L194,240L200,233L209,226L210,222L211,217L213,212L212,204L214,192L217,184L221,177L222,168L223,159L228,152L235,148L247,152L255,157L265,159L275,161L279,153L281,152L287,153L303,146L308,149L312,149L314,146L319,144L330,146L338,146L343,145L351,156L357,158L361,155L367,156L375,153L378,159L390,168L389,184L394,186L390,191L385,194L380,202L377,208L376,219L373,224L373,234L369,238L368,246L367,247L365,255L369,261Z" fill="#E0E0E0" stroke="#fff" stroke-width=".4"/><path d="M536,239L528,228L528,178L540,163L543,158L552,158L564,149L582,148L620,107L630,95L636,87L636,80L636,66L636,60L636,60L640,60L647,58L654,56L660,51L666,51L666,55L665,63L665,70L662,76L658,90L651,106L643,123L631,143L620,159L604,177L590,188L570,202L557,212L542,229L539,236Z" fill="#E0E0E0" stroke="#fff" stroke-width=".4"/><path d="M504,280L484,266L483,258L434,230L432,229L431,215L435,209L442,200L447,190L441,174L439,168L433,158L441,150L451,141L458,143L458,151L462,155L472,155L489,167L493,167L496,167L499,168L508,169L512,164L525,158L530,163L540,163L528,178L528,228L536,239L526,244L523,250L518,251L516,261L512,266L509,275Z" fill="#E0E0E0" stroke="#fff" stroke-width=".4"/><path d="M305,104L294,98L290,94L289,89L291,84L291,78L283,69L282,64L282,60L277,56L277,48L274,43L269,43L270,38L274,33L272,27L277,22L274,19L277,10L284,0L295,1L295,-56L295,-62L311,-62L311,-91L365,-91L418,-91L472,-91L476,-76L473,-74L475,-59L480,-42L485,-38L493,-33L486,-25L476,-22L472,-18L470,-9L464,12L466,18L464,30L458,44L450,51L444,61L443,67L436,71L432,85L433,97L432,87L431,86L431,80L429,75L422,69L420,59L422,49L416,48L415,51L407,52L410,56L411,64L404,72L397,82L390,83L378,75L373,78L372,82L365,85L364,88L351,88L349,85L339,84L334,87L331,86L324,77L321,74L311,76L308,82L304,94L300,97L295,98Z" fill="#E0E0E0" stroke="#fff" stroke-width=".4"/><path d="M295,-56L295,1L284,0L277,10L274,19L277,22L272,27L274,33L270,38L269,43L274,43L277,48L277,56L282,60L282,64L273,66L266,72L256,87L243,93L230,92L226,93L228,98L221,103L215,108L198,114L194,111L192,110L190,114L178,115L180,111L176,102L174,96L168,94L160,86L163,79L170,80L173,79L181,80L174,67L174,58L173,49L168,40L169,33L160,33L160,24L155,19L161,0L178,-13L179,-32L184,-61L187,-67L181,-72L181,-77L176,-81L173,-103L186,-112L241,-83Z" fill="#E0E0E0" stroke="#fff" stroke-width=".4"/><path d="M-732,159L-740,172L-744,182L-749,187L-756,188L-758,184L-761,184L-765,187L-771,185L-767,179L-766,173L-764,167L-769,159L-770,149L-763,138L-758,139L-748,142L-734,154ZM55,-560L61,-555L81,-551L74,-537L72,-522L68,-519L62,-521L63,-515L53,-504L52,-495L59,-498L64,-490L63,-484L67,-477L62,-471L66,-456L73,-454L72,-446L59,-435L33,-440L13,-434L11,-423L-5,-421L-20,-429L-25,-425L-50,-433L-55,-441L-48,-452L-46,-490L-60,-511L-70,-521L-90,-529L-92,-544L-74,-548L-51,-543L-56,-567L-43,-558L-11,-574L-7,-592L5,-596L7,-588L13,-588L19,-579L29,-569L36,-571L48,-561L51,-560ZM90,-426L98,-433L101,-417L96,-403L90,-407L87,-419Z" fill="#E0E0E0" stroke="#fff" stroke-width=".4"/><path d="M395,526L387,525L383,527L376,524L371,524L362,517L352,515L348,506L348,501L342,499L326,483L322,475L319,473L314,461L329,463L334,464L338,464L346,455L358,443L363,442L364,437L372,431L382,429L383,435L394,434L401,437L404,441L410,442L417,447L417,465L415,475L414,485L416,490L415,498L413,499L409,510Z" fill="#E0E0E0" stroke="#fff" stroke-width=".4"/><path d="M371,524L352,535L339,546L335,556L331,562L323,563L321,570L320,575L311,578L300,577L293,573L288,571L281,575L278,582L271,587L264,593L255,595L252,590L253,580L245,566L241,564L241,521L255,520L255,468L265,468L286,463L291,469L300,463L304,463L312,460L314,461L319,473L322,475L326,483L342,499L348,501L348,506L352,515L362,517Z" fill="#E0E0E0" stroke="#fff" stroke-width=".4"/><path d="M241,564L241,620L229,628L222,629L213,626L207,625L205,618L199,614L193,622L183,610L177,599L174,584L171,573L167,550L166,532L164,524L159,518L152,506L145,489L142,480L131,466L130,455L137,452L145,450L154,450L162,457L164,456L219,455L228,462L261,464L286,458L297,455L306,456L312,459L312,460L304,463L300,463L291,469L286,463L265,468L255,468L255,520L241,521Z" fill="#E0E0E0" stroke="#fff" stroke-width=".4"/><path d="M-257,29L-262,19L-269,14L-263,11L-256,1L-253,-6L-249,-11L-242,-10L-235,-13L-228,-13L-221,-9L-212,-5L-204,5L-195,15L-194,24L-192,32L-186,36L-185,41L-186,46L-188,46L-195,45L-196,47L-199,47L-209,44L-216,44L-241,43L-244,44L-249,44L-256,46L-258,36L-246,36L-243,34L-240,34L-235,31L-229,34L-223,34L-218,31L-220,27L-225,29L-229,29L-234,25L-239,26L-242,29Z" fill="#E0E0E0" stroke="#fff" stroke-width=".4"/><path d="M-186,46L-185,41L-186,36L-192,32L-194,24L-195,15L-190,13L-188,4L-184,4L-174,8L-166,5L-161,6L-159,3L-105,3L-102,-7L-104,-9L-111,-71L-117,-135L-96,-135L-50,-102L-5,-70L-1,-64L7,-60L13,-57L14,-48L29,-49L29,-16L21,-7L20,2L8,4L-11,5L-16,10L-24,11L-33,11L-36,8L-44,10L-57,16L-59,20L-70,27L-72,30L-77,33L-84,31L-88,35L-90,44L-100,56L-100,60L-104,66L-103,74L-108,76L-112,78L-114,72L-118,74L-120,73L-122,77L-133,77L-137,75L-139,77L-143,73L-142,68L-144,67L-147,68L-146,64L-143,60L-149,54L-150,50L-153,47L-156,47L-159,49L-164,51L-168,54L-173,53L-177,49L-179,49L-183,51L-185,51Z" fill="#E0E0E0" stroke="#fff" stroke-width=".4"/><path d="M-261,-76L-258,-81L-205,-81L-208,-102L-204,-110L-192,-111L-192,-149L-147,-148L-147,-172L-96,-135L-117,-135L-111,-71L-104,-9L-102,-7L-105,3L-159,3L-161,6L-166,5L-174,8L-184,4L-188,4L-190,13L-195,15L-204,5L-212,-5L-221,-9L-228,-13L-235,-13L-242,-10L-249,-11L-253,-6L-254,-14L-251,-21L-249,-34L-250,-49L-252,-56L-251,-63L-254,-70Z" fill="#E0E0E0" stroke="#fff" stroke-width=".4"/><path d="M7,131L-4,132L-7,123L-7,91L-9,89L-10,82L-15,77L-19,73L-17,66L-12,64L-10,58L-3,57L-0,52L4,48L9,48L20,56L19,61L22,69L20,75L21,78L14,87L10,91L8,100L8,109Z" fill="#E0E0E0" stroke="#fff" stroke-width=".4"/><path d="M173,-103L176,-81L181,-77L181,-72L187,-67L184,-61L179,-32L178,-13L161,0L155,19L160,24L160,33L169,33L168,40L164,41L163,45L161,45L152,30L149,29L138,37L127,33L120,32L116,34L108,34L100,40L93,40L77,33L70,36L63,36L58,31L45,26L30,27L27,30L25,38L21,44L20,56L9,48L4,48L-0,52L0,43L-15,40L-16,33L-24,24L-25,18L-24,11L-16,10L-11,5L8,4L20,2L21,-7L29,-16L29,-49L48,-56L87,-84L134,-112L155,-106L163,-98Z" fill="#E0E0E0" stroke="#fff" stroke-width=".4"/><path d="M7,131L8,109L8,100L10,91L14,87L21,78L20,75L22,69L19,61L20,56L21,44L25,38L27,30L30,27L45,26L58,31L63,36L70,36L77,33L93,40L100,40L108,34L116,34L120,32L127,33L138,37L149,29L152,30L161,45L163,45L169,50L167,53L167,58L155,68L152,77L150,84L147,87L144,97L137,103L135,110L132,115L130,121L121,125L113,120L108,120L100,128L96,128L90,141L86,151L72,156L67,155L62,158L51,158L44,149L39,140L29,131L19,131Z" fill="#E0E0E0" stroke="#fff" stroke-width=".4"/><path d="M168,40L173,49L174,58L174,67L181,80L173,79L170,80L163,79L160,86L168,94L174,96L176,102L180,111L178,115L172,129L168,131L167,142L169,148L167,152L174,159L175,164L180,171L186,175L187,181L188,185L187,193L177,189L166,186L148,185L147,184L139,186L130,184L124,185L102,185L104,174L99,165L92,163L90,157L86,155L86,151L90,141L96,128L100,128L108,120L113,120L121,125L130,121L132,115L135,110L137,103L144,97L147,87L150,84L152,77L155,68L167,58L167,53L169,50L163,45L164,41Z" fill="#E0E0E0" stroke="#fff" stroke-width=".4"/><path d="M-17,66L-19,73L-15,77L-10,82L-9,89L-7,91L-7,123L-4,132L-15,135L-18,130L-22,122L-23,115L-20,103L-23,98L-24,87L-24,77L-30,70L-29,65Z" fill="#E0E0E0" stroke="#fff" stroke-width=".4"/><path d="M-29,65L-30,70L-24,77L-24,87L-23,98L-20,103L-23,115L-22,122L-18,130L-15,135L-36,143L-44,148L-56,152L-68,148L-68,143L-73,131L-70,115L-64,104L-68,84L-70,74L-69,66L-46,65L-40,66L-35,64Z" fill="#E0E0E0" stroke="#fff" stroke-width=".4"/><path d="M-139,77L-137,75L-133,77L-122,77L-120,73L-118,74L-114,72L-112,78L-108,76L-103,74L-97,77L-94,82L-88,85L-83,81L-77,81L-68,84L-64,104L-70,115L-73,131L-68,143L-68,148L-74,148L-84,145L-93,146L-109,148L-118,152L-132,157L-134,157L-133,145L-132,144L-132,138L-138,133L-142,132L-146,128L-143,122L-145,115L-144,111L-142,111L-141,105L-142,103L-141,101L-136,99L-139,88L-142,82L-141,78Z" fill="#E0E0E0" stroke="#fff" stroke-width=".4"/><path d="M-216,44L-209,44L-199,47L-196,47L-195,45L-188,46L-186,46L-185,51L-183,51L-179,49L-177,49L-173,53L-168,54L-164,51L-159,49L-156,47L-153,47L-150,50L-149,54L-143,60L-146,64L-147,68L-144,67L-142,68L-143,73L-139,77L-141,78L-142,82L-139,88L-136,99L-141,101L-142,103L-141,105L-142,111L-144,111L-148,111L-151,116L-155,116L-157,113L-156,108L-162,99L-166,101L-168,101L-172,102L-172,97L-174,93L-174,89L-177,84L-181,79L-191,79L-195,81L-198,82L-201,85L-202,88L-209,94L-215,86L-221,81L-224,79L-228,76L-229,70L-231,67L-235,65L-229,58L-225,58L-221,56L-218,56L-216,54L-217,50L-216,48Z" fill="#E0E0E0" stroke="#fff" stroke-width=".4"/><path d="M-144,111L-145,115L-143,122L-146,128L-142,132L-138,133L-132,138L-132,144L-133,145L-134,157L-138,157L-152,150L-164,140L-176,132L-185,124L-182,119L-181,115L-175,108L-168,101L-166,101L-162,99L-156,108L-157,113L-155,116L-151,116L-148,111Z" fill="#E0E0E0" stroke="#fff" stroke-width=".4"/><path d="M-209,94L-202,88L-201,85L-198,82L-195,81L-191,79L-181,79L-177,84L-174,89L-174,93L-172,97L-172,102L-168,101L-175,108L-181,115L-182,119L-185,124L-189,123L-198,117L-205,110L-208,105Z" fill="#E0E0E0" stroke="#fff" stroke-width=".4"/><path d="M-103,74L-104,66L-100,60L-100,56L-90,44L-88,35L-84,31L-77,33L-72,30L-70,27L-59,20L-57,16L-44,10L-36,8L-33,11L-24,11L-25,18L-24,24L-16,33L-15,40L0,43L-0,52L-3,57L-10,58L-12,64L-17,66L-29,65L-35,64L-40,66L-46,65L-69,66L-70,74L-68,84L-77,81L-83,81L-88,85L-94,82L-97,77Z" fill="#E0E0E0" stroke="#fff" stroke-width=".4"/><path d="M343,145L338,146L330,146L319,144L314,146L312,149L308,149L303,146L287,153L281,152L279,153L275,161L265,159L255,157L247,152L235,148L228,152L223,159L222,168L213,168L204,165L195,173L188,185L187,181L186,175L180,171L175,164L174,159L167,152L169,148L167,142L168,131L172,129L178,115L190,114L192,110L194,111L198,114L215,108L221,103L228,98L226,93L230,92L243,93L256,87L266,72L273,66L282,64L283,69L291,78L291,84L289,89L290,94L294,98L305,104L312,109L312,114L321,121L327,127L330,135L341,140Z" fill="#E0E0E0" stroke="#fff" stroke-width=".4"/><path d="M222,168L221,177L217,184L214,192L212,204L213,212L211,217L210,222L209,226L200,233L194,240L188,253L188,264L185,268L177,275L169,284L164,281L163,277L156,277L151,282L147,281L142,276L138,279L133,285L121,270L132,263L127,254L131,250L141,249L142,243L149,249L161,250L165,243L167,234L165,224L159,215L165,200L161,197L151,198L147,191L148,185L166,186L177,189L187,193L188,185L195,173L204,165L213,168Z" fill="#E0E0E0" stroke="#fff" stroke-width=".4"/><path d="M124,185L130,184L139,186L147,184L148,185L147,191L151,198L161,197L165,200L159,215L165,224L167,234L165,243L161,250L149,249L142,243L141,249L131,250L127,254L132,263L121,270L108,256L99,245L90,231L91,227L94,222L97,212L100,202L104,201L124,202Z" fill="#E0E0E0" stroke="#fff" stroke-width=".4"/><path d="M102,185L124,185L124,202L104,201L100,202L97,200Z" fill="#E0E0E0" stroke="#fff" stroke-width=".4"/><path d="M389,330L394,333L400,336L408,338L416,342L422,348L426,360L424,364L421,375L423,386L419,391L415,404L422,408L381,419L382,429L372,431L364,437L363,442L358,443L346,455L338,464L334,464L329,463L314,461L312,460L312,459L306,456L297,455L286,458L277,449L268,438L269,393L297,393L296,388L298,383L296,377L297,370L296,365L300,366L301,370L308,370L316,371L321,377L332,379L340,375L343,382L353,384L358,390L364,398L374,398L373,383L370,385L360,380L356,378L358,364L360,347L357,341L361,332L365,331L383,328Z" fill="#E0E0E0" stroke="#fff" stroke-width=".4"/><path d="M416,342L429,345L432,348L437,355L440,374L437,384L440,402L445,402L450,407L456,417L457,435L451,438L447,448L438,439L437,429L440,423L439,417L434,413L430,415L422,408L415,404L419,391L423,386L421,375L424,364L426,360L422,348Z" fill="#E0E0E0" stroke="#fff" stroke-width=".4"/><path d="M440,374L451,373L467,376L471,375L480,374L485,370L493,370L508,365L519,357L521,363L520,377L522,389L523,411L525,418L521,428L516,438L507,447L495,452L479,459L464,474L459,477L449,487L444,491L442,501L449,512L452,520L452,525L454,524L454,539L452,545L455,548L453,554L447,559L436,564L419,573L414,578L415,585L418,586L417,594L407,593L406,587L403,580L402,575L405,558L401,547L395,526L409,510L413,499L415,498L416,490L414,485L415,475L417,465L417,447L410,442L404,441L401,437L394,434L383,435L382,429L381,419L422,408L430,415L434,413L439,417L440,423L437,429L438,439L447,448L451,438L457,435L456,417L450,407L445,402L440,402L437,384Z" fill="#E0E0E0" stroke="#fff" stroke-width=".4"/><path d="M147,281L142,284L140,287L140,293L136,295L133,285L138,279L142,276ZM138,299L144,297L148,298L152,296L193,296L196,306L200,314L203,319L208,326L217,325L222,323L229,325L231,322L235,314L243,313L244,311L251,311L250,316L266,315L266,324L269,329L267,338L268,346L273,351L272,368L275,366L281,367L290,365L296,365L297,370L296,377L298,383L296,388L297,393L269,393L268,438L277,449L286,458L261,464L228,462L219,455L164,456L162,457L154,450L145,450L137,452L130,455L129,446L131,434L135,421L136,415L141,402L144,396L152,387L156,381L157,371L157,363L153,358L149,349L146,341L146,338L151,333L146,320L144,310L137,302Z" fill="#E0E0E0" stroke="#fff" stroke-width=".4"/><path d="M385,249L386,254L389,257L389,262L385,265L380,272L375,277L370,277L369,261L365,255L374,256L378,248Z" fill="#E0E0E0" stroke="#fff" stroke-width=".4"/><path d="M644,387L648,393L651,402L653,419L657,426L656,432L653,436L649,428L646,432L649,443L647,449L644,452L643,464L637,481L631,501L622,529L617,549L611,566L600,570L588,576L580,572L569,567L566,559L565,546L560,534L559,524L561,513L567,511L567,506L574,495L575,485L572,479L569,470L568,456L573,448L575,439L582,439L589,436L594,434L600,433L608,425L619,417L623,410L621,404L627,405L635,396L635,387L640,381Z" fill="#E0E0E0" stroke="#fff" stroke-width=".4"/><path d="M-147,-172L-147,-174L-147,-176L-147,-194L-125,-205L-112,-208L-101,-212L-95,-220L-80,-226L-79,-238L-71,-239L-65,-245L-47,-248L-45,-254L-48,-258L-53,-275L-54,-285L-59,-295L-46,-304L-31,-307L-23,-314L-9,-319L14,-322L36,-324L43,-321L56,-328L70,-328L76,-324L85,-325L82,-317L85,-301L81,-287L73,-278L74,-265L85,-256L85,-252L94,-245L100,-217L104,-203L105,-196L102,-183L103,-176L102,-168L103,-158L97,-152L105,-141L106,-134L111,-126L117,-129L128,-122L134,-112L87,-84L48,-56L29,-49L14,-48L13,-57L7,-60L-1,-64L-5,-70L-50,-102L-96,-135Z" fill="#E0E0E0" stroke="#fff" stroke-width=".4"/><path d="M454,-250L456,-255L471,-249L498,-266L504,-246L501,-244L474,-236L487,-220L483,-217L481,-212L470,-210L467,-204L461,-199L446,-202L445,-204L452,-229L452,-235L454,-240Z" fill="#E0E0E0" stroke="#fff" stroke-width=".4"/><path d="M672,-124L674,-125L675,-121L685,-123L697,-123L705,-122L714,-132L724,-142L733,-151L736,-146L737,-134L730,-134L729,-124L732,-122L726,-119L726,-113L722,-107L721,-101L719,-98L678,-105L672,-120Z" fill="#E0E0E0" stroke="#fff" stroke-width=".4"/><path d="M661,-132L661,-142L664,-150L668,-152L672,-147L672,-138L669,-130L666,-129Z" fill="#E0E0E0" stroke="#fff" stroke-width=".4"/><path d="M623,-212L626,-205L625,-201L629,-189L619,-189L616,-196L604,-198L614,-213Z" fill="#E0E0E0" stroke="#fff" stroke-width=".4"/><path d="M504,-246L498,-266L528,-283L533,-303L532,-315L539,-319L546,-330L552,-333L568,-331L573,-326L579,-329L588,-309L597,-304L598,-294L591,-288L588,-276L598,-260L614,-251L621,-239L619,-227L623,-227L623,-219L631,-211L623,-212L614,-213L604,-198L579,-199L540,-231L520,-242Z" fill="#E0E0E0" stroke="#fff" stroke-width=".4"/><path d="M721,-101L722,-107L726,-113L726,-119L732,-122L729,-124L730,-134L737,-134L744,-124L751,-118L761,-117L769,-114L775,-105L779,-100L784,-99L784,-95L779,-87L777,-82L771,-78L766,-68L760,-69L757,-65L755,-58L756,-48L755,-46L749,-46L740,-41L739,-34L736,-31L727,-31L722,-28L722,-22L716,-18L708,-19L699,-14L693,-14L688,-24L678,-47L718,-62L727,-91ZM736,-146L733,-151L737,-156L739,-155L737,-149Z" fill="#E0E0E0" stroke="#fff" stroke-width=".4"/><path d="M1294,-185L1295,-179L1290,-176L1291,-167L1282,-170L1264,-159L1264,-150L1257,-138L1256,-130L1250,-118L1239,-121L1239,-106L1236,-101L1237,-95L1231,-91L1223,-115L1220,-115L1217,-105L1210,-113L1214,-121L1220,-122L1227,-135L1219,-137L1206,-137L1193,-139L1192,-150L1186,-151L1175,-157L1170,-147L1180,-139L1171,-133L1168,-128L1177,-124L1174,-115L1179,-104L1181,-92L1179,-86L1170,-86L1153,-83L1154,-72L1147,-64L1127,-54L1112,-37L1102,-28L1088,-19L1088,-12L1081,-9L1069,-4L1063,-3L1059,8L1061,26L1062,38L1056,51L1056,74L1049,75L1043,86L1047,90L1035,94L1030,103L1025,107L1012,95L1006,75L1000,61L996,55L989,41L985,24L983,15L970,-4L965,-32L961,-50L961,-68L958,-81L938,-73L929,-74L911,-92L918,-97L914,-103L898,-116L907,-126L937,-126L934,-138L926,-146L925,-158L916,-165L931,-181L947,-179L961,-196L969,-212L982,-227L982,-239L994,-248L983,-256L978,-267L973,-281L980,-288L1001,-284L1016,-287L1029,-301L1044,-281L1042,-268L1048,-260L1047,-251L1037,-254L1041,-236L1055,-226L1073,-215L1065,-208L1060,-193L1073,-187L1086,-180L1103,-171L1122,-169L1130,-161L1140,-160L1157,-156L1168,-157L1169,-163L1168,-172L1169,-179L1177,-182L1178,-170L1178,-167L1191,-161L1199,-164L1211,-163L1222,-163L1223,-172L1217,-177L1228,-179L1241,-191L1256,-201L1268,-197L1277,-203L1284,-194L1279,-187Z" fill="#E0E0E0" stroke="#fff" stroke-width=".4"/><path d="M1029,-301L1016,-287L1001,-284L980,-288L973,-281L978,-267L983,-256L994,-248L982,-239L982,-227L969,-212L961,-196L947,-179L931,-181L916,-165L925,-158L926,-146L934,-138L937,-126L907,-126L898,-116L888,-119L884,-130L873,-142L848,-139L826,-138L807,-136L812,-154L831,-162L830,-169L824,-171L824,-185L810,-192L805,-201L798,-209L821,-201L835,-204L843,-202L846,-205L855,-204L873,-210L873,-224L881,-233L891,-232L892,-237L903,-239L908,-238L913,-242L912,-252L918,-261L927,-266L921,-276L934,-276L938,-282L937,-288L944,-295L943,-303L940,-310L947,-318L962,-321L978,-323L985,-326L993,-328L1003,-320L1007,-308Z" fill="#E0E0E0" stroke="#fff" stroke-width=".4"/><path d="M631,-211L623,-219L623,-227L619,-227L621,-239L614,-251L598,-260L588,-276L591,-288L598,-294L597,-304L588,-309L579,-329L572,-343L575,-348L570,-368L580,-373L582,-367L589,-358L598,-356L603,-357L619,-370L624,-371L628,-366L623,-357L632,-348L635,-349L640,-336L652,-333L662,-324L681,-321L702,-326L704,-330L716,-333L725,-343L734,-342L740,-345L750,-344L765,-335L776,-333L792,-318L802,-318L803,-303L797,-283L794,-271L800,-268L794,-259L798,-247L799,-236L810,-234L811,-223L798,-209L805,-201L810,-192L824,-185L824,-171L830,-169L831,-162L812,-154L807,-136L781,-141L766,-144L751,-146L745,-165L739,-168L728,-165L715,-158L698,-163L684,-174L671,-179L662,-193L652,-214L645,-212L636,-217Z" fill="#E0E0E0" stroke="#fff" stroke-width=".4"/><path d="M1459,-36L1448,-40L1448,-52L1454,-59L1469,-63L1477,-63L1480,-57L1474,-51L1471,-43ZM1062,-421L1061,-431L1070,-436L1058,-469L1085,-477L1092,-481L1102,-516L1129,-510L1136,-519L1137,-539L1148,-541L1158,-555L1164,-557L1167,-542L1179,-531L1198,-524L1207,-507L1202,-485L1207,-476L1223,-473L1242,-470L1258,-458L1266,-456L1273,-439L1281,-428L1296,-428L1324,-424L1342,-427L1355,-424L1375,-413L1392,-413L1398,-407L1414,-417L1436,-423L1456,-424L1472,-430L1482,-440L1491,-447L1489,-453L1485,-460L1492,-473L1499,-471L1513,-467L1527,-477L1548,-485L1558,-498L1567,-503L1587,-506L1598,-504L1599,-511L1587,-525L1576,-531L1565,-524L1552,-527L1544,-524L1541,-533L1550,-553L1557,-569L1573,-561L1593,-574L1592,-584L1605,-607L1612,-614L1612,-626L1605,-631L1616,-643L1633,-647L1651,-647L1671,-640L1683,-632L1691,-610L1697,-600L1701,-587L1706,-566L1730,-560L1746,-545L1752,-526L1772,-526L1784,-534L1806,-540L1799,-521L1794,-514L1789,-492L1780,-473L1764,-477L1752,-470L1756,-454L1754,-431L1747,-431L1747,-422L1738,-432L1733,-422L1712,-414L1714,-405L1702,-405L1696,-411L1686,-398L1671,-388L1660,-377L1641,-372L1631,-364L1616,-359L1624,-367L1621,-374L1632,-386L1624,-395L1613,-389L1597,-376L1589,-365L1576,-364L1569,-356L1576,-344L1587,-342L1587,-334L1598,-329L1613,-341L1625,-334L1634,-334L1636,-325L1617,-320L1611,-311L1598,-303L1591,-291L1605,-282L1611,-266L1619,-251L1628,-239L1628,-227L1619,-223L1623,-214L1631,-209L1629,-197L1625,-184L1617,-183L1608,-166L1597,-146L1584,-128L1565,-115L1546,-102L1531,-101L1523,-94L1518,-99L1510,-91L1491,-84L1477,-82L1472,-67L1465,-66L1461,-76L1464,-82L1446,-87L1440,-84L1426,-88L1420,-94L1422,-102L1409,-105L1403,-111L1391,-103L1378,-101L1367,-101L1360,-98L1353,-95L1355,-79L1348,-79L1346,-82L1346,-89L1336,-84L1330,-87L1320,-92L1324,-105L1315,-108L1312,-121L1298,-119L1299,-136L1312,-149L1313,-162L1312,-173L1306,-177L1302,-186L1294,-185L1279,-187L1284,-194L1277,-203L1268,-197L1256,-201L1241,-191L1228,-179L1217,-177L1211,-181L1204,-182L1195,-185L1187,-181L1178,-170L1177,-182L1169,-179L1153,-180L1137,-184L1126,-191L1116,-194L1111,-201L1104,-203L1090,-214L1079,-219L1073,-215L1055,-226L1041,-236L1037,-254L1047,-251L1048,-260L1042,-268L1044,-281L1029,-301L1007,-308L1003,-320L993,-328L990,-333L988,-343L989,-350L980,-354L976,-352L972,-368L976,-372L974,-376L987,-385L997,-388L1011,-386L1016,-397L1034,-400L1039,-407L1060,-417Z" fill="#E0E0E0" stroke="#fff" stroke-width=".4"/><path d="M466,18L464,12L470,-9L472,-18L476,-22L486,-25L493,-33L501,-16L505,-3L512,4L531,17L538,25L545,33L550,38L556,42L552,45L546,44L542,40L536,31L530,27L527,22L515,16L505,16L502,13L494,17L486,10L482,21Z" fill="#E0E0E0" stroke="#fff" stroke-width=".4"/><path d="M678,-47L688,-24L693,-14L683,-10L680,-4L680,1L666,7L645,14L632,24L626,24L622,24L614,29L606,32L594,33L591,34L588,37L584,38L582,42L576,42L571,44L562,43L558,35L559,27L556,23L554,12L550,7L553,6L551,-0L553,-3L552,-9L558,-14L557,-20L560,-27L566,-23L570,-24L585,-25L588,-23L601,-22L606,-23L610,-18L616,-20L626,-35L638,-42Z" fill="#E0E0E0" stroke="#fff" stroke-width=".4"/><path d="M446,-202L461,-199L467,-204L470,-210L481,-212L483,-217L487,-220L474,-236L501,-244L504,-246L520,-242L540,-231L579,-199L604,-198L616,-196L619,-189L629,-189L634,-176L641,-173L643,-167L653,-161L653,-154L652,-149L654,-144L658,-140L659,-135L661,-132L666,-129L669,-130L672,-124L672,-120L678,-105L719,-98L721,-101L727,-91L718,-62L678,-47L638,-42L626,-35L616,-20L610,-18L606,-23L601,-22L588,-23L585,-25L570,-24L566,-23L560,-27L557,-20L558,-14L552,-9L550,-15L546,-20L545,-25L538,-30L531,-42L527,-54L518,-64L512,-67L503,-80L501,-91L502,-99L494,-116L488,-121L480,-125L476,-133L477,-136L473,-144L469,-148L464,-159L455,-171L448,-182L441,-182L444,-190L444,-196Z" fill="#E0E0E0" stroke="#fff" stroke-width=".4"/><path d="M-59,-295L-54,-285L-53,-275L-48,-258L-45,-254L-47,-248L-65,-245L-71,-239L-79,-238L-80,-226L-95,-220L-101,-212L-112,-208L-125,-205L-147,-194L-147,-176L-149,-176L-149,-167L-157,-167L-162,-163L-168,-163L-173,-165L-184,-164L-189,-152L-193,-151L-199,-132L-218,-116L-223,-95L-228,-89L-230,-83L-261,-82L-261,-82L-260,-89L-255,-93L-250,-101L-251,-106L-247,-116L-239,-126L-235,-128L-231,-137L-231,-145L-226,-154L-217,-160L-208,-175L-208,-175L-201,-181L-188,-183L-178,-194L-171,-198L-159,-211L-163,-230L-158,-244L-156,-253L-147,-264L-133,-271L-123,-278L-114,-295L-110,-305L-100,-305L-92,-298L-79,-299L-65,-296Z" fill="#E0E0E0" stroke="#fff" stroke-width=".4"/><path d="M472,-91L418,-91L365,-91L311,-91L311,-145L311,-200L306,-213L310,-222L308,-229L313,-237L331,-237L344,-233L357,-228L364,-226L374,-231L380,-235L392,-237L401,-235L405,-227L408,-232L419,-228L430,-227L437,-231L444,-208L445,-204L442,-198L439,-186L435,-178L432,-175L427,-180L421,-187L411,-210L410,-208L416,-192L424,-176L434,-152L439,-144L444,-136L456,-119L453,-117L454,-107L469,-94Z" fill="#E0E0E0" stroke="#fff" stroke-width=".4"/><path d="M311,-91L311,-62L295,-62L295,-56L241,-83L186,-112L173,-103L163,-98L155,-106L134,-112L128,-122L117,-129L111,-126L106,-134L105,-141L97,-152L103,-158L102,-168L103,-176L102,-183L105,-196L104,-203L100,-217L106,-220L107,-227L106,-234L115,-240L119,-245L126,-250L127,-262L143,-256L149,-258L160,-255L178,-248L184,-234L196,-231L216,-224L230,-216L237,-220L243,-227L240,-240L244,-247L254,-255L264,-257L282,-254L287,-247L292,-247L296,-244L309,-242L313,-237L308,-229L310,-222L306,-213L311,-200L311,-145Z" fill="#E0E0E0" stroke="#fff" stroke-width=".4"/><path d="M620,107L582,148L564,149L552,158L543,158L540,163L530,163L525,158L512,164L508,169L499,168L496,167L493,167L489,167L472,155L462,155L458,151L458,143L451,141L443,126L436,123L434,118L427,111L419,110L423,102L431,102L433,97L432,85L436,71L443,67L444,61L450,51L458,44L464,30L466,18L482,21L486,10L494,17L502,13L505,16L515,16L527,22L530,27L536,31L542,40L546,44L542,50L537,57L538,61L538,65L546,65L549,64L552,67L549,71L554,79L559,86L564,91L609,107Z" fill="#E0E0E0" stroke="#fff" stroke-width=".4"/><path d="M546,44L552,45L556,42L560,46L559,52L551,55L557,59L552,67L549,64L546,65L538,65L538,61L537,57L542,50Z" fill="#E0E0E0" stroke="#fff" stroke-width=".4"/><path d="M636,60L636,60L636,66L636,80L636,87L630,95L620,107L609,107L564,91L559,86L554,79L549,71L552,67L557,59L562,62L564,67L570,73L577,73L590,70L605,68L617,64L624,63L628,60Z" fill="#E0E0E0" stroke="#fff" stroke-width=".4"/><path d="M432,229L404,230L389,230L384,231L376,236L373,234L373,224L376,219L377,208L380,202L385,194L390,191L394,186L389,184L390,168L395,165L404,168L415,164L425,164L433,158L439,168L441,174L447,190L442,200L435,209L431,215Z" fill="#E0E0E0" stroke="#fff" stroke-width=".4"/><path d="M384,231L390,239L389,247L385,249L378,248L374,256L365,255L367,247L368,246L369,238L373,234L376,236Z" fill="#E0E0E0" stroke="#fff" stroke-width=".4"/></g><g clip-path="url(#v)"><path d="M432.6,158.6L429.4,161.8L427.0,164.2L426.6,164.5L426.0,164.9L423.7,164.9L421.4,164.7L419.3,163.2L417.1,164.3L415.7,164.7L414.9,164.8L413.0,165.0L410.3,165.6L409.0,166.3L408.4,166.9L407.8,168.0L407.6,168.1L407.1,168.0L406.4,167.6L404.9,166.9L404.2,165.6L403.5,164.7L403.0,164.3L400.7,165.7L399.6,166.0L398.6,165.9L397.0,165.2L395.1,164.5L394.2,164.5L392.8,165.3L391.2,166.6L390.3,167.8L389.9,168.5L389.6,167.9L389.3,167.4L388.8,166.7L388.0,166.4L387.3,166.6L386.5,166.7L386.1,166.3L386.1,165.4L385.8,164.5L385.4,163.8L384.3,163.2L381.2,161.8L378.8,159.2L377.6,157.9L376.8,157.1L375.5,155.0L374.1,153.6L372.4,152.9L371.3,153.3L370.2,154.8L368.0,156.2L367.0,156.3L365.7,155.5L364.1,155.0L361.2,154.7L360.0,155.4L358.5,156.5L357.1,157.2L356.3,157.3L355.6,157.0L354.7,156.8L354.0,156.8L352.4,155.8L351.6,155.1L351.1,154.3L350.2,153.8L349.2,153.4L348.4,152.8L348.1,152.0L347.5,151.0L346.8,150.1L344.4,148.4L343.7,147.4L343.2,146.5L342.3,145.4L341.2,144.0L340.9,141.9L340.8,140.3L340.6,139.5L340.2,138.7L339.7,138.1L338.9,137.4L336.9,136.3L335.0,135.1L334.0,134.3L332.2,134.1L331.1,133.3L330.2,131.8L329.8,130.5L328.9,129.6L328.6,128.9L328.3,128.1L329.0,125.6L328.0,124.7L326.5,123.6L325.3,122.4L324.6,121.2L322.6,119.7L318.2,117.5L315.7,116.0L314.3,114.8L313.1,113.5L313.0,113.0L313.8,111.7L313.9,110.7L313.3,109.5L310.6,107.4L308.5,105.0L307.0,104.3L303.2,103.6L302.0,103.3L300.9,102.9L299.8,101.8L299.4,100.5L299.9,98.5L299.6,97.9L298.9,97.8L299.1,97.3L299.8,96.3L301.0,95.7L304.2,94.7L304.3,94.3L304.4,93.1L304.7,92.4L305.7,90.7L305.9,90.0L305.9,88.5L306.1,87.8L306.4,87.3L307.3,86.4L307.6,85.9L307.7,84.7L307.6,82.5L308.0,81.6L310.1,79.5L310.6,78.6L310.7,77.8L310.7,76.9L310.8,76.1L311.4,75.3L312.0,75.0L313.4,74.8L314.4,75.0L321.4,73.6L322.2,73.8L322.6,74.6L322.5,75.9L322.7,76.6L323.0,77.0L324.2,77.7L324.9,78.7L325.3,79.1L326.5,79.8L331.6,85.9L333.1,86.5L334.5,86.3L337.3,85.0L338.7,84.7L348.6,85.0L349.7,84.8L349.8,84.9L351.3,87.9L352.0,88.6L362.8,88.7L362.6,87.8L362.7,86.8L364.0,85.6L364.6,85.0L364.9,84.8L366.6,83.8L368.2,83.2L371.3,82.5L372.5,81.4L373.1,80.4L373.1,78.5L373.6,78.1L374.3,77.7L377.9,75.9L378.6,75.5L385.0,79.7L388.6,82.9L388.8,83.1L389.0,83.1L389.2,83.0L389.3,82.9L389.6,82.8L389.7,82.7L391.3,82.7L394.2,82.5L395.2,82.1L401.0,76.3L402.5,74.4L402.9,74.1L403.7,72.7L404.6,70.5L404.8,70.2L411.2,64.7L411.4,64.3L411.5,63.9L410.5,62.1L410.3,61.2L410.3,59.7L410.4,57.5L410.4,56.1L410.4,55.9L410.3,55.7L410.2,55.6L406.7,51.6L415.7,51.5L415.7,51.2L415.7,51.0L415.7,50.8L415.5,50.4L415.4,49.7L415.4,49.5L415.4,49.4L415.5,49.0L415.5,48.9L415.5,48.8L415.5,48.7L415.5,48.6L415.5,48.5L422.0,48.6L421.9,49.8L421.2,52.5L421.2,54.1L421.0,55.9L420.9,56.1L420.8,56.5L420.6,56.7L420.4,56.9L420.4,57.0L420.3,57.1L420.3,57.3L421.7,67.6L421.6,67.9L421.6,68.0L421.2,68.7L421.1,68.9L421.1,69.0L421.2,69.2L424.2,70.3L424.3,70.3L424.5,70.4L425.6,71.8L431.4,76.6L431.6,76.8L432.2,78.4L432.3,78.6L432.3,79.0L432.3,79.3L432.2,80.2L432.2,80.6L432.3,80.9L432.4,81.2L432.4,81.3L432.4,81.4L432.4,81.5L431.5,83.3L431.2,84.5L431.1,85.6L431.1,86.2L431.2,86.6L431.3,86.7L431.3,86.7L431.4,86.8L431.4,86.8L433.9,86.8L434.0,86.8L433.9,87.4L434.0,90.1L434.1,92.6L434.3,96.6L434.3,97.6L434.2,98.9L433.9,99.4L433.2,100.1L432.3,100.8L430.0,101.0L428.1,101.0L426.7,100.8L424.9,100.7L423.1,100.9L422.5,101.5L421.6,103.4L420.2,106.3L419.5,107.6L419.3,108.3L419.5,108.7L420.4,109.3L422.4,110.2L424.6,110.7L426.3,110.9L427.5,111.1L428.4,111.4L431.6,113.6L432.6,114.7L433.2,115.6L433.3,116.5L433.8,117.5L435.7,119.4L436.7,120.6L439.5,122.0L440.5,123.6L441.6,124.4L442.6,125.3L443.1,126.5L444.3,130.2L445.1,132.1L445.9,133.7L446.3,136.2L446.9,137.4L447.6,138.8L448.7,140.0L449.9,141.0L450.1,141.2L447.6,143.7L444.9,146.5L441.6,149.7L438.0,153.1L435.3,155.9Z" fill="#4ECDC4" stroke="#2C3E50" stroke-width="1"/></g><circle cx="400.0" cy="150.0" r="4" fill="#E74C3C" stroke="#fff" stroke-width="2"/><text x="400.0" y="140.0" text-anchor="middle" font-family="sans-serif" font-weight="700" font-size="10" fill="#2D3436">Juba</text></svg>