<svg viewBox="0 0 800 300" xmlns="http://www.w3.org/2000/svg"><defs><clipPath id="v"><rect width="800" height="300"/></clipPath></defs><rect width="800" height="300" fill="#DCEEF8"/><g clip-path="url(#v)"><path d="M1978,488L1991,553L1984,589L1998,630L2038,669L2076,758L2049,751L1955,763L1936,771L1916,816L1932,848L1920,931L1911,1003L1930,1016L1979,1043L1998,1030L2004,1108L1950,1107L1922,1068L1896,1037L1842,1027L1827,990L1784,1012L1728,1002L1705,970L1660,963L1628,965L1624,943L1600,941L1568,937L1524,948L1494,946L1477,952L1481,868L1457,842L1452,798L1462,756L1448,728L1447,684L1362,685L1368,659L1333,660L1329,672L1286,675L1268,716L1258,733L1219,723L1196,733L1150,739L1123,702L1107,679L1087,637L1070,585L864,584L839,592L819,591L790,600L781,579L798,571L801,541L812,523L837,508L856,515L880,488L918,489L922,509L948,521L989,477L1030,443L1048,421L1045,363L1076,295L1108,259L1154,226L1162,203L1163,178L1175,154L1171,114L1180,52L1193,9L1214,-29L1218,-71L1225,-120L1252,-155L1289,-178L1347,-154L1391,-128L1442,-121L1494,-108L1515,-150L1525,-156L1557,-148L1634,-183L1662,-169L1685,-171L1695,-188L1721,-194L1774,-186L1818,-185L1841,-192L1884,-134L1915,-126L1934,-138L1966,-133L2005,-148L2021,-118L2083,-71L2079,10L2107,20L2084,45L2057,63L2031,100L2016,132L2012,188L1996,215L1995,267L1975,287L1973,328L1963,334L1957,372L1974,404Z" fill="#E0E0E0" stroke="#fff" stroke-width=".4"/><path d="M118,-264L122,-377L120,-422L133,-467L155,-489L189,-532L182,-552L195,-580L180,-622L182,-646L187,-710L207,-739L217,-780L235,-795L310,-804L380,-777L406,-750L442,-749L475,-766L560,-729L595,-731L636,-762L677,-759L697,-769L735,-765L789,-744L844,-785L860,-782L907,-703L920,-705L948,-676L940,-663L937,-640L878,-585L859,-539L849,-503L835,-487L820,-437L783,-408L772,-372L757,-344L750,-315L702,-291L663,-320L637,-319L595,-278L575,-277L542,-209L524,-160L451,-135L425,-138L398,-123L342,-124L305,-168L282,-219L232,-265L180,-264Z" fill="#E0E0E0" stroke="#fff" stroke-width=".4"/><path d="M942,-732L970,-686L975,-639L972,-591L1010,-527L971,-527L951,-522L920,-530L904,-496L946,-455L976,-443L986,-414L1008,-365L997,-346L962,-275L945,-262L940,-207L947,-178L941,-157L974,-120L980,-95L1006,-59L1038,-37L1041,-5L1048,15L1043,53L988,37L931,18L843,15L834,12L793,21L751,11L717,16L604,14L614,-41L587,-87L555,-99L541,-130L523,-140L524,-160L542,-209L575,-277L595,-278L637,-319L663,-320L702,-291L750,-315L757,-344L772,-372L783,-408L820,-437L835,-487L849,-503L859,-539L878,-585L937,-640L940,-663L948,-676L920,-705L923,-727Z" fill="#E0E0E0" stroke="#fff" stroke-width=".4"/><path d="M-68,-600L-73,-578L-44,-542L-44,-490L-38,-434L-20,-409L-36,-345L-30,-310L-11,-266L4,-241L-105,-200L-144,-176L-207,-156L-269,-175L-266,-203L-296,-264L-278,-343L-249,-402L-267,-503L-277,-556L-275,-596L-154,-600L-123,-594L-100,-606Z" fill="#E0E0E0" stroke="#fff" stroke-width=".4"/><path d="M1841,-192L1818,-185L1774,-186L1721,-194L1695,-188L1685,-171L1662,-169L1634,-183L1557,-148L1525,-156L1515,-150L1494,-108L1442,-121L1391,-128L1347,-154L1289,-178L1252,-155L1225,-120L1218,-71L1174,-75L1126,-87L1085,-50L1048,15L1041,-5L1038,-37L1006,-59L980,-95L974,-120L941,-157L947,-178L940,-207L945,-262L962,-275L997,-346L1054,-351L1068,-369L1079,-368L1096,-352L1184,-379L1214,-406L1251,-431L1243,-456L1263,-462L1331,-458L1396,-491L1447,-568L1482,-597L1526,-609L1534,-579L1574,-534L1575,-505L1563,-476L1568,-454L1592,-434L1645,-403L1684,-374L1684,-351L1731,-315L1760,-284L1778,-242L1830,-214Z" fill="#E0E0E0" stroke="#fff" stroke-width=".4"/><path d="M1218,-71L1214,-29L1193,9L1180,52L1171,114L1175,154L1163,178L1162,203L1154,226L1108,259L1076,295L1045,363L1048,421L1030,443L989,477L948,521L922,509L918,489L880,488L856,515L837,508L811,484L790,496L762,526L705,452L758,413L732,367L755,349L802,341L808,310L845,343L907,346L928,313L937,267L930,212L897,171L927,90L909,76L857,82L838,46L843,15L931,18L988,37L1043,53L1048,15L1085,-50L1126,-87L1174,-75Z" fill="#E0E0E0" stroke="#fff" stroke-width=".4"/><path d="M717,16L751,11L793,21L834,12L843,15L838,46L857,82L909,76L927,90L897,171L930,212L937,267L928,313L907,346L845,343L808,310L802,341L755,349L732,367L758,413L705,452L633,381L587,323L544,251L547,228L562,206L579,155L593,103L616,99L718,100Z" fill="#E0E0E0" stroke="#fff" stroke-width=".4"/><path d="M604,14L717,16L718,100L616,99L593,103L580,93Z" fill="#E0E0E0" stroke="#fff" stroke-width=".4"/><path d="M837,508L812,523L801,541L798,571L781,579L762,526L790,496L811,484ZM790,600L819,591L839,592L864,584L1070,585L1087,637L1107,679L1123,702L1150,739L1196,733L1219,723L1258,733L1268,716L1286,675L1329,672L1333,660L1368,659L1362,685L1447,684L1448,728L1462,756L1452,798L1457,842L1481,868L1477,952L1494,946L1524,948L1568,937L1600,941L1607,963L1599,998L1611,1031L1601,1058L1607,1083L1461,1082L1458,1311L1505,1371L1551,1417L1423,1446L1254,1436L1205,1401L1064,1403L922,1404L912,1409L870,1376L825,1374L783,1386L749,1400L743,1355L752,1291L777,1224L780,1193L803,1129L819,1099L859,1052L882,1020L889,968L886,927L865,902L846,859L829,816L833,802L854,774L833,706L819,659L784,614Z" fill="#E0E0E0" stroke="#fff" stroke-width=".4"/></g><g clip-path="url(#v)"><path d="M448.5,64.2L445.8,66.1L442.7,64.6L442.0,61.8L446.0,56.5L447.8,55.1L449.3,56.2L450.3,57.7L450.5,59.9ZM395.0,165.3L388.0,170.4L385.4,169.1L383.7,165.6L381.7,157.8L382.4,154.2L385.7,149.9L392.7,145.8L397.0,145.5L401.3,151.0L401.3,156.7Z" fill="#4ECDC4" stroke="#2C3E50" stroke-width="1"/></g><circle cx="400.0" cy="150.0" r="4" fill="#E74C3C" stroke="#fff" stroke-width="2"/><text x="400.0" y="140.0" text-anchor="middle" font-family="sans-serif" font-weight="700" font-size="10" fill="#2D3436">São Tomé</text></svg>