<svg viewBox="0 0 800 300" xmlns="http://www.w3.org/2000/svg"><defs><clipPath id="v"><rect width="800" height="300"/></clipPath></defs><rect width="800" height="300" fill="#DCEEF8"/><g clip-path="url(#v)"><path d="M-1551,-1289L-1471,-1296L-1382,-1305L-1389,-1288L-1284,-1248L-1124,-1191L-986,-1191L-930,-1191L-930,-1225L-809,-1225L-783,-1196L-748,-1170L-706,-1134L-683,-1092L-666,-1048L-630,-1024L-572,-1000L-528,-1063L-471,-1064L-422,-1032L-387,-978L-362,-931L-321,-886L-306,-831L-286,-795L-232,-770L-182,-753L-155,-756L-182,-688L-194,-633L-199,-531L-206,-494L-194,-453L-172,-416L-158,-358L-112,-302L-96,-260L-68,-224L6,-204L34,-173L96,-194L149,-202L201,-215L245,-227L289,-257L306,-301L312,-363L324,-385L371,-405L445,-422L507,-419L549,-426L566,-410L564,-374L526,-330L510,-284L522,-271L512,-239L495,-182L477,-201L462,-200L449,-199L424,-154L411,-163L403,-160L403,-149L339,-150L274,-150L273,-108L242,-108L268,-84L294,-67L302,-51L313,-47L311,-22L221,-22L188,37L198,51L190,68L188,89L109,11L73,-12L16,-32L-23,-26L-79,1L-114,8L-164,-11L-216,-25L-281,-58L-334,-68L-412,-102L-471,-137L-489,-157L-528,-161L-599,-184L-628,-218L-703,-260L-738,-307L-755,-343L-731,-350L-739,-371L-723,-391L-722,-417L-746,-450L-752,-480L-776,-519L-837,-594L-907,-654L-941,-702L-1001,-733L-1014,-752L-1003,-800L-1039,-819L-1080,-857L-1098,-912L-1135,-918L-1176,-960L-1208,-998L-1211,-1023L-1249,-1084L-1274,-1146L-1273,-1177L-1323,-1210L-1346,-1206L-1386,-1229L-1397,-1195L-1386,-1156L-1379,-1095L-1355,-1062L-1303,-1007L-1292,-988L-1281,-983L-1272,-955L-1260,-956L-1246,-905L-1224,-885L-1209,-857L-1166,-818L-1143,-745L-1122,-711L-1102,-675L-1099,-635L-1065,-632L-1037,-597L-1012,-563L-1013,-550L-1043,-522L-1055,-522L-1073,-568L-1119,-612L-1169,-649L-1205,-668L-1203,-725L-1213,-767L-1247,-791L-1295,-826L-1304,-816L-1322,-836L-1365,-855L-1406,-901L-1401,-907L-1372,-902L-1346,-932L-1343,-967L-1397,-1024L-1438,-1047L-1464,-1097L-1490,-1150L-1522,-1215Z" fill="#E0E0E0" stroke="#fff" stroke-width=".4"/><path d="M1226,507L1218,518L1234,559L1221,580L1199,575L1189,609L1166,589L1151,551L1168,532L1151,527L1138,504L1103,484L1072,489L1058,513L1030,531L1015,534L1008,548L1041,587L1022,596L1012,606L980,610L968,567L959,579L935,575L921,547L893,542L875,534L845,534L843,549L835,539L838,525L844,510L841,498L852,489L837,479L837,450L864,444L889,469L887,484L915,488L922,482L941,499L975,494L1005,476L1047,462L1071,441L1110,445L1107,452L1146,454L1177,467L1200,488Z" fill="#E0E0E0" stroke="#fff" stroke-width=".4"/><path d="M864,444L837,450L837,479L852,489L841,498L844,510L838,525L835,539L797,523L783,508L791,496L788,480L769,463L741,450L717,440L712,420L694,407L699,428L685,445L669,425L646,418L637,404L637,382L646,360L627,350L643,336L653,327L699,346L715,336L738,342L749,357L770,362L786,347L804,385L831,414Z" fill="#E0E0E0" stroke="#fff" stroke-width=".4"/><path d="M786,347L770,362L749,357L738,342L715,336L699,346L653,327L643,336L619,314L586,285L571,261L541,238L506,206L514,195L525,206L531,201L552,198L561,181L571,181L570,145L586,144L601,144L616,125L637,140L644,131L657,122L681,102L682,87L689,88L698,71L705,69L717,80L731,83L746,74L764,74L788,64L798,54L822,56L816,63L812,79L820,105L803,130L796,159L794,190L797,209L799,241L788,248L782,279L787,298L773,316L776,335Z" fill="#E0E0E0" stroke="#fff" stroke-width=".4"/><path d="M822,56L798,54L788,64L764,74L746,74L731,83L717,80L705,69L698,71L689,88L682,87L681,102L657,122L644,131L637,140L616,125L601,144L586,144L570,145L571,181L561,181L552,198L531,201L519,178L498,172L502,143L493,135L478,130L448,139L445,129L424,118L409,103L389,97L403,79L398,65L403,51L436,30L467,3L475,6L490,-7L510,-8L516,-2L527,-6L560,1L592,-1L614,-9L622,-17L645,-13L661,-9L680,-10L694,-17L726,-6L737,-5L758,9L778,25L803,36Z" fill="#E0E0E0" stroke="#fff" stroke-width=".4"/><path d="M188,89L190,68L198,51L188,37L221,-22L311,-22L313,-47L302,-51L294,-67L268,-84L242,-108L273,-108L274,-150L339,-150L403,-149L403,-91L397,-9L418,-9L441,4L447,-6L467,3L436,30L403,51L398,65L403,79L389,97L372,102L376,110L363,118L339,136L337,147L301,134L257,133L225,119Z" fill="#E0E0E0" stroke="#fff" stroke-width=".4"/><path d="M403,-149L403,-160L411,-163L424,-154L449,-199L462,-200L462,-189L476,-188L474,-169L463,-137L469,-125L462,-99L466,-92L458,-55L445,-36L432,-34L418,-9L397,-9L403,-91Z" fill="#E0E0E0" stroke="#fff" stroke-width=".4"/></g><g clip-path="url(#v)"><path d="M388,97.7L389.8,98.1L401.3,101.7L404.8,101.1L409.4,104.0L411.4,106.4L413.1,109.5L422.4,116.0L423.9,118.7L431.0,122.5L433.7,125.4L436.5,126.6L442.3,127.7L447.3,129.2L447.8,130.2L448.3,134.6L449.3,138.2L451.8,138.5L454.6,136.7L463.9,131.8L472.4,128.6L477.5,130.6L480.5,134.6L483.8,136.3L490.5,135.2L496.8,135.6L501.9,139.1L502.9,141.2L499.8,152.9L498.8,157.9L498.3,162.2L500.1,163.2L501.9,164.9L501.3,167.2L496.1,170.9L494.3,171.9L495.6,179.1L491.5,183.5L488.0,186.6L481.5,187.5L470.4,187.7L453.8,184.2L441.8,179.4L435.3,179.4L437.3,181.0L442.5,182.0L449.3,185.3L447.3,186.3L422.4,179.2L393.8,165.3L376.7,163.0L357.1,159.3L345.5,150.4L336.7,146.7L336.0,143.3L336.2,139.6L340.0,134.6L347.5,127.9L352.3,124.5L354.6,123.7L357.8,124.1L360.9,122.2L363.6,117.5L366.4,114.6L373.4,111.5L375.2,110.4L374.4,107.7L372.9,102.7L373.2,99.6L375.4,98.2L378.2,98.0L384.0,96.7L386.5,97.0Z" fill="#4ECDC4" stroke="#2C3E50" stroke-width="1"/></g><circle cx="400.0" cy="150.0" r="4" fill="#E74C3C" stroke="#fff" stroke-width="2"/><text x="400.0" y="140.0" text-anchor="middle" font-family="sans-serif" font-weight="700" font-size="10" fill="#2D3436">San Salvador</text></svg>