<svg viewBox="0 0 800 300" xmlns="http://www.w3.org/2000/svg"><defs><clipPath id="v"><rect width="800" height="300"/></clipPath></defs><rect width="800" height="300" fill="#DCEEF8"/><g clip-path="url(#v)"><path d="M1423,-273L1408,-252L1391,-250L1390,-220L1379,-206L1340,-216L1325,-164L1315,-157L1275,-146L1293,-98L1279,-91L1281,-75L1269,-79L1259,-89L1229,-92L1196,-92L1188,-89L1160,-101L1148,-95L1145,-79L1112,-89L1099,-85L1095,-73L1083,-68L1057,-49L1048,-30L1041,-30L1035,-42L1010,-43L1005,-65L996,-65L997,-93L973,-113L939,-111L915,-107L896,-132L880,-142L849,-163L845,-165L793,-148L794,-47L784,-46L770,-67L756,-74L734,-69L725,-60L724,-66L729,-78L725,-87L702,-96L693,-121L681,-128L681,-137L700,-135L701,-155L718,-160L736,-156L739,-184L736,-202L716,-200L699,-208L675,-195L657,-189L646,-193L649,-208L636,-228L621,-227L604,-248L615,-271L610,-277L626,-311L646,-293L649,-316L690,-351L721,-351L765,-329L789,-316L811,-330L842,-330L868,-314L874,-323L902,-322L907,-337L874,-359L894,-375L890,-384L909,-393L895,-416L904,-427L979,-439L989,-448L1039,-461L1057,-475L1093,-468L1099,-432L1120,-440L1146,-428L1144,-410L1163,-412L1214,-444L1206,-433L1232,-407L1276,-324L1287,-341L1315,-322L1344,-331L1355,-325L1364,-307L1378,-301L1387,-287L1413,-292Z" fill="#E0E0E0" stroke="#fff" stroke-width=".4"/><path d="M794,-47L793,-148L845,-165L849,-163L880,-142L896,-132L915,-107L939,-111L973,-113L997,-93L996,-65L1005,-65L1010,-43L1035,-42L1041,-30L1048,-30L1057,-49L1083,-68L1095,-73L1101,-70L1084,-53L1099,-43L1113,-49L1137,-35L1111,-16L1096,-19L1087,-18L1085,-26L1089,-38L1062,-32L1056,-15L1046,-0L1029,-2L1024,10L1039,16L1043,35L1032,61L1017,55L1006,55L1006,40L980,29L959,16L946,4L923,-14L913,-41L906,-46L884,-45L877,-50L875,-72L848,-86L831,-70L814,-61L817,-47Z" fill="#E0E0E0" stroke="#fff" stroke-width=".4"/><path d="M165,698L150,689L143,683L142,677L145,668L145,660L133,647L131,639L131,634L124,628L124,616L119,608L112,609L114,602L120,593L117,584L124,578L120,573L125,560L134,545L152,547L151,463L151,454L174,454L174,411L254,411L332,411L412,411L418,432L414,436L417,458L424,484L432,489L442,497L432,509L418,512L411,519L409,532L401,563L403,571L400,589L391,609L379,619L371,635L369,643L359,649L353,670L354,689L353,673L351,672L351,662L349,655L338,647L336,633L338,617L329,616L328,621L316,622L320,628L322,640L311,651L301,666L291,668L274,656L266,660L264,666L254,670L253,674L233,674L231,670L216,669L209,673L203,671L193,659L190,654L175,656L170,666L164,684L158,688L152,690Z" fill="#E0E0E0" stroke="#fff" stroke-width=".4"/><path d="M151,463L152,547L134,545L125,560L120,573L124,578L117,584L120,593L114,602L112,609L119,608L124,616L124,628L131,634L131,639L118,642L108,650L94,673L75,682L55,681L50,683L52,690L41,697L33,705L8,712L3,708L-1,707L-4,713L-21,714L-18,709L-24,695L-27,686L-36,683L-48,671L-43,661L-34,664L-28,662L-17,662L-28,644L-27,630L-29,617L-37,603L-35,594L-48,593L-48,580L-56,572L-47,545L-22,525L-21,498L-13,455L-8,446L-17,439L-17,432L-25,426L-30,393L-9,381L71,422Z" fill="#E0E0E0" stroke="#fff" stroke-width=".4"/><path d="M-1362,780L-1374,798L-1380,813L-1388,821L-1397,822L-1400,817L-1405,816L-1411,821L-1420,817L-1414,809L-1413,799L-1409,791L-1417,779L-1419,765L-1408,748L-1401,750L-1387,755L-1365,772ZM-203,-280L-194,-272L-165,-267L-175,-246L-177,-225L-183,-219L-192,-222L-191,-215L-206,-198L-206,-185L-197,-189L-190,-177L-191,-169L-185,-158L-192,-149L-187,-127L-176,-124L-178,-112L-196,-96L-236,-104L-265,-95L-267,-78L-291,-75L-313,-87L-320,-81L-357,-94L-365,-104L-355,-121L-351,-177L-372,-208L-387,-223L-417,-234L-419,-256L-393,-263L-360,-255L-366,-290L-347,-277L-300,-301L-294,-327L-277,-333L-274,-322L-265,-321L-255,-309L-241,-294L-231,-296L-213,-282L-209,-280ZM-152,-83L-139,-93L-136,-70L-142,-49L-151,-54L-156,-73Z" fill="#E0E0E0" stroke="#fff" stroke-width=".4"/><path d="M-30,393L-25,426L-17,432L-17,439L-8,446L-13,455L-21,498L-22,525L-47,545L-56,572L-48,580L-48,593L-35,594L-37,603L-42,605L-43,611L-47,612L-60,589L-65,588L-81,600L-96,594L-107,593L-113,596L-124,595L-136,604L-146,604L-171,594L-180,599L-190,598L-198,590L-218,583L-240,585L-245,590L-248,602L-253,610L-255,628L-270,616L-277,616L-284,622L-284,608L-307,604L-307,594L-319,580L-321,571L-320,561L-307,560L-299,553L-272,551L-254,547L-253,535L-242,521L-242,472L-213,463L-155,421L-87,379L-55,389L-44,401Z" fill="#E0E0E0" stroke="#fff" stroke-width=".4"/><path d="M389,169L385,177L378,173L374,189L379,192L374,195L373,201L382,198L383,207L373,244L371,238L359,204L365,197L364,195L369,184L373,166L376,160L377,160L383,160L385,156L391,156L391,165L388,169Z" fill="#E0E0E0" stroke="#fff" stroke-width=".4"/><path d="M391,156L385,156L383,160L377,160L384,140L394,123L394,123L403,124L406,133L396,142Z" fill="#E0E0E0" stroke="#fff" stroke-width=".4"/><path d="M382,198L373,201L374,195L379,192L374,189L378,173L385,177L385,191Z" fill="#E0E0E0" stroke="#fff" stroke-width=".4"/><path d="M-137,226L-146,184L-158,174L-158,168L-175,154L-176,136L-164,122L-159,102L-162,79L-158,66L-137,56L-123,59L-123,71L-106,62L-105,67L-115,79L-115,91L-108,97L-111,118L-124,130L-120,143L-110,144L-105,155L-97,159L-98,177L-108,184L-114,192L-128,201L-126,210L-127,220Z" fill="#E0E0E0" stroke="#fff" stroke-width=".4"/><path d="M-501,292L-501,288L-501,286L-501,259L-469,242L-449,239L-432,233L-424,221L-401,212L-400,195L-389,192L-380,184L-353,180L-350,171L-355,165L-362,140L-363,125L-371,110L-351,96L-330,92L-317,82L-298,74L-264,70L-231,68L-221,71L-202,62L-180,61L-172,67L-158,66L-162,79L-159,102L-164,122L-176,136L-175,154L-158,168L-158,174L-146,184L-137,226L-131,246L-130,257L-133,275L-132,286L-134,298L-132,312L-140,321L-129,338L-128,347L-121,359L-111,355L-95,366L-87,379L-155,421L-213,463L-242,472L-264,474L-264,461L-273,457L-286,451L-291,441L-358,394L-426,346Z" fill="#E0E0E0" stroke="#fff" stroke-width=".4"/><path d="M385,177L389,169L411,179L450,153L458,182L454,186L414,198L434,221L428,225L424,233L409,236L404,244L396,251L373,248L373,244L383,207L382,198L385,191Z" fill="#E0E0E0" stroke="#fff" stroke-width=".4"/><path d="M706,362L710,361L711,367L726,364L743,364L755,365L769,350L784,336L796,322L800,330L803,347L793,347L791,362L795,365L785,369L785,378L780,387L779,396L775,401L715,390L707,367Z" fill="#E0E0E0" stroke="#fff" stroke-width=".4"/><path d="M691,351L690,335L695,323L701,321L707,328L707,341L703,354L697,356Z" fill="#E0E0E0" stroke="#fff" stroke-width=".4"/><path d="M634,233L638,243L637,249L643,266L629,267L624,256L606,253L621,231Z" fill="#E0E0E0" stroke="#fff" stroke-width=".4"/><path d="M458,182L450,153L494,128L502,98L500,80L511,74L521,59L530,55L553,58L560,64L570,60L583,90L596,97L598,112L588,120L583,139L597,162L621,175L632,193L628,210L635,210L635,222L646,234L634,233L621,231L606,253L569,252L512,205L482,189Z" fill="#E0E0E0" stroke="#fff" stroke-width=".4"/><path d="M779,396L780,387L785,378L785,369L795,365L791,362L793,347L803,347L812,362L823,370L838,373L850,377L859,390L864,397L871,400L871,405L864,417L861,424L852,430L845,445L836,444L831,449L828,460L831,474L829,477L820,477L807,484L805,495L801,499L788,499L780,504L780,513L771,519L760,517L746,524L737,525L730,510L715,475L775,454L788,411ZM800,330L796,322L802,315L805,317L803,326Z" fill="#E0E0E0" stroke="#fff" stroke-width=".4"/><path d="M1232,102L1213,122L1191,126L1160,120L1151,131L1158,152L1165,168L1181,180L1164,193L1164,210L1145,233L1132,257L1111,281L1088,279L1066,302L1079,313L1081,330L1092,341L1096,360L1052,360L1039,375L1024,369L1018,353L1003,336L966,340L933,341L905,344L913,318L941,307L940,296L930,293L930,273L911,263L902,249L893,237L926,248L946,245L958,248L962,243L976,245L1002,235L1003,216L1014,202L1029,202L1031,196L1047,193L1054,195L1062,188L1061,174L1069,160L1082,154L1074,138L1093,138L1099,130L1098,120L1108,110L1105,98L1101,87L1112,77L1134,71L1157,68L1167,64L1179,61L1194,73L1200,92Z" fill="#E0E0E0" stroke="#fff" stroke-width=".4"/><path d="M1006,55L1017,55L1032,61L1038,64L1053,56L1059,61L1066,49L1078,50L1081,46L1083,36L1092,27L1102,32L1100,40L1106,41L1104,63L1112,71L1119,66L1128,63L1141,52L1155,54L1175,54L1179,61L1167,64L1157,68L1134,71L1112,77L1101,87L1105,98L1108,110L1098,120L1099,130L1093,138L1074,138L1082,154L1069,160L1061,174L1062,188L1054,195L1047,193L1031,196L1029,202L1014,202L1003,216L1002,235L976,245L962,243L958,248L946,245L926,248L893,237L911,216L909,201L894,197L892,182L886,163L894,150L886,146L891,128L899,98L920,107L935,104L939,93L955,89L966,82L970,62L987,57L990,48L1000,54Z" fill="#E0E0E0" stroke="#fff" stroke-width=".4"/><path d="M725,-60L734,-69L756,-74L770,-67L784,-46L794,-47L817,-47L814,-61L831,-70L848,-86L875,-72L877,-50L884,-45L906,-46L913,-41L923,-14L946,4L959,16L980,29L1006,40L1006,55L1000,54L990,48L987,57L970,62L966,82L955,89L939,93L935,104L920,107L899,98L898,77L883,76L860,54L844,51L822,38L807,36L799,41L785,40L771,54L753,59L750,41L752,15L737,6L742,-12L729,-13L733,-36L752,-29L770,-38L755,-54L749,-69L733,-62L731,-42Z" fill="#E0E0E0" stroke="#fff" stroke-width=".4"/><path d="M646,234L635,222L635,210L628,210L632,193L621,175L597,162L583,139L588,120L598,112L596,97L583,90L570,60L559,40L563,32L557,2L570,-5L574,5L584,17L597,20L605,19L628,0L636,-2L642,6L635,19L647,32L652,31L659,50L678,55L692,68L720,72L751,65L753,59L771,54L785,40L799,41L807,36L822,38L844,51L860,54L883,76L898,77L899,98L891,128L886,146L894,150L886,163L892,182L894,197L909,201L911,216L893,237L902,249L911,263L930,273L930,293L940,296L941,307L913,318L905,344L867,337L845,332L823,329L814,302L805,298L789,302L769,313L745,305L724,288L705,282L692,260L677,229L666,233L653,225Z" fill="#E0E0E0" stroke="#fff" stroke-width=".4"/><path d="M605,19L597,20L589,5L589,1L580,1L575,-6L570,-5L563,-13L548,-19L550,-32L546,-41L574,-45L578,-38L586,-34L582,-27L592,-18L587,-10L595,-3L604,1Z" fill="#E0E0E0" stroke="#fff" stroke-width=".4"/><path d="M310,-364L317,-363L322,-370L328,-368L349,-372L362,-353L357,-347L359,-337L375,-335L382,-321L381,-315L407,-304L422,-309L434,-294L446,-295L476,-285L476,-276L468,-259L472,-243L469,-233L450,-231L439,-222L439,-209L423,-207L409,-197L391,-196L373,-185L374,-169L371,-170L369,-176L362,-177L348,-183L343,-176L340,-179L309,-187L308,-198L289,-194L282,-178L266,-157L257,-162L248,-157L239,-162L244,-165L247,-175L253,-185L251,-190L255,-192L257,-188L269,-187L274,-189L271,-192L272,-197L265,-204L262,-216L255,-221L256,-231L247,-239L239,-241L224,-250L211,-247L206,-242L198,-242L193,-235L178,-233L171,-228L162,-235L149,-235L137,-239L128,-232L127,-240L115,-249L119,-261L125,-269L129,-267L124,-281L142,-307L152,-310L154,-319L144,-347L154,-348L165,-357L180,-358L201,-355L223,-347L239,-347L246,-342L254,-348L259,-340L277,-342L285,-339L286,-355L293,-362Z" fill="#E0E0E0" stroke="#fff" stroke-width=".4"/><path d="M13,-240L12,-227L0,-227L4,-221L-2,-202L-6,-197L-24,-196L-34,-190L-50,-192L-79,-199L-84,-210L-103,-204L-106,-199L-118,-203L-128,-204L-137,-209L-134,-216L-135,-222L-129,-223L-119,-215L-116,-223L-98,-222L-84,-227L-74,-226L-68,-220L-66,-225L-69,-245L-62,-248L-55,-262L-40,-253L-29,-265L-21,-267L-6,-258L3,-260L13,-254L11,-250Z" fill="#E0E0E0" stroke="#fff" stroke-width=".4"/><path d="M115,-249L127,-240L128,-232L116,-226L106,-206L94,-186L78,-181L66,-182L50,-174L43,-170L26,-176L11,-188L5,-192L1,-202L-2,-202L4,-221L0,-227L12,-227L13,-240L23,-232L31,-229L47,-232L49,-238L57,-239L67,-244L69,-242L78,-246L83,-253L90,-255L111,-245Z" fill="#E0E0E0" stroke="#fff" stroke-width=".4"/><path d="M206,-242L211,-247L224,-250L239,-241L247,-239L256,-231L255,-221L262,-216L265,-204L272,-197L271,-192L274,-189L269,-187L257,-188L255,-192L251,-190L253,-185L247,-175L244,-165L239,-162L235,-175L237,-188L236,-201L225,-218L219,-231L212,-240Z" fill="#E0E0E0" stroke="#fff" stroke-width=".4"/><path d="M239,-162L248,-157L257,-162L266,-157L266,-150L257,-143L251,-146L245,-112L233,-115L219,-125L195,-119L185,-112L156,-113L140,-118L133,-116L127,-127L123,-132L128,-137L123,-140L117,-134L105,-142L103,-154L91,-160L89,-169L78,-181L94,-186L106,-206L116,-226L128,-232L137,-239L149,-235L162,-235L171,-228L178,-233L193,-235L198,-242L206,-242L212,-240L219,-231L225,-218L236,-201L237,-188L235,-175Z" fill="#E0E0E0" stroke="#fff" stroke-width=".4"/><path d="M127,-127L133,-116L140,-118L156,-113L185,-112L195,-119L219,-125L233,-115L245,-112L235,-101L227,-81L234,-66L217,-69L196,-61L196,-48L178,-45L164,-54L148,-47L133,-48L131,-66L121,-74L125,-78L122,-81L126,-90L133,-99L124,-110L122,-121Z" fill="#E0E0E0" stroke="#fff" stroke-width=".4"/><path d="M200,107L197,114L168,116L168,112L144,107L148,97L159,105L174,103L189,105L189,109ZM133,-48L148,-47L164,-54L178,-45L196,-48L196,-61L206,-54L200,-37L195,-34L183,-35L172,-37L148,-31L162,-16L152,-11L141,-11L130,-25L126,-19L131,-4L141,9L133,14L144,26L154,33L155,48L136,41L142,54L129,57L137,79L124,79L107,68L100,48L96,31L88,19L78,5L77,-3L86,-15L87,-24L94,-28L94,-35L107,-37L115,-43L126,-42L129,-47Z" fill="#E0E0E0" stroke="#fff" stroke-width=".4"/><path d="M570,60L560,64L553,58L530,55L521,59L499,62L488,62L465,71L448,72L438,67L416,74L409,69L408,83L403,88L397,94L390,82L397,73L385,75L368,69L355,84L324,87L308,73L286,72L282,83L268,86L249,72L227,73L215,48L200,34L210,14L197,1L219,-24L250,-25L259,-45L297,-41L321,-58L344,-66L377,-67L412,-48L441,-37L465,-42L482,-39L505,-53L527,-54L546,-41L550,-32L548,-19L563,-13L570,-5L557,2L563,32L559,40ZM196,-61L217,-69L234,-66L236,-55L254,-47L250,-40L226,-39L218,-31L201,-16L195,-29L195,-34L200,-37L206,-54Z" fill="#E0E0E0" stroke="#fff" stroke-width=".4"/><path d="M94,-35L94,-28L87,-24L86,-15L77,-3L73,-5L73,-10L62,-19L60,-32L62,-50L64,-58L61,-62L60,-71L68,-84L70,-79L75,-82L79,-74L84,-71L85,-62L83,-53L86,-41Z" fill="#E0E0E0" stroke="#fff" stroke-width=".4"/><path d="M5,-192L11,-188L26,-176L43,-170L50,-174L55,-163L61,-155L54,-145L45,-151L31,-150L14,-155L4,-155L-0,-149L-7,-155L-12,-143L-2,-130L3,-122L12,-111L19,-105L27,-94L45,-83L43,-79L24,-89L12,-99L-6,-107L-23,-127L-19,-129L-28,-141L-29,-151L-41,-155L-48,-143L-53,-152L-53,-162L-52,-163L-38,-162L-35,-167L-28,-162L-20,-161L-20,-169L-13,-172L-11,-184Z" fill="#E0E0E0" stroke="#fff" stroke-width=".4"/><path d="M-135,-222L-134,-216L-137,-209L-128,-204L-118,-203L-119,-191L-128,-186L-143,-190L-147,-178L-157,-177L-160,-182L-172,-172L-181,-171L-190,-177L-197,-189L-206,-185L-206,-198L-191,-215L-192,-222L-183,-219L-177,-225L-160,-224L-156,-231Z" fill="#E0E0E0" stroke="#fff" stroke-width=".4"/><path d="M-118,-203L-106,-199L-103,-204L-84,-210L-79,-199L-50,-192L-53,-178L-48,-165L-64,-169L-80,-159L-79,-145L-81,-137L-75,-123L-56,-109L-46,-86L-24,-64L-8,-65L-3,-59L-9,-53L9,-44L24,-36L41,-22L43,-17L39,-8L28,-20L11,-24L2,-7L17,2L15,16L6,18L-5,39L-13,41L-13,34L-9,20L-4,14L-12,-1L-18,-14L-27,-17L-32,-28L-45,-33L-54,-44L-69,-46L-85,-58L-103,-75L-117,-91L-123,-118L-133,-121L-149,-131L-158,-127L-170,-114L-178,-112L-176,-124L-187,-127L-192,-149L-185,-158L-191,-169L-190,-177L-181,-171L-172,-172L-160,-182L-157,-177L-147,-178L-143,-190L-128,-186L-119,-191ZM-31,35L-16,33L-23,53L-20,61L-25,74L-40,64L-50,62L-78,49L-75,36L-52,38ZM-153,-36L-143,-44L-131,-26L-133,9L-142,7L-151,16L-158,9L-159,-22L-164,-38Z" fill="#E0E0E0" stroke="#fff" stroke-width=".4"/><path d="M603,-62L608,-61L622,-45L631,-43L634,-50L646,-60L657,-46L667,-28L676,-26L683,-19L666,-17L663,3L659,12L652,18L652,31L647,32L635,19L642,6L636,-2L628,0L605,19L604,1L595,-3L587,-10L592,-18L582,-27L586,-34L578,-38L574,-45L579,-50L594,-42L605,-41L607,-44L598,-58ZM597,20L584,17L574,5L570,-5L575,-6L580,1L589,1L589,5Z" fill="#E0E0E0" stroke="#fff" stroke-width=".4"/><path d="M473,-105L476,-108L493,-103L522,-99L550,-86L553,-81L565,-85L584,-79L590,-68L603,-62L598,-58L607,-44L605,-41L594,-42L579,-50L574,-45L546,-41L527,-54L505,-53L508,-65L503,-83L492,-93L481,-96Z" fill="#E0E0E0" stroke="#fff" stroke-width=".4"/><path d="M-50,-192L-34,-190L-24,-196L-6,-197L-2,-202L1,-202L5,-192L-11,-184L-13,-172L-20,-169L-20,-161L-28,-162L-35,-167L-38,-162L-52,-163L-48,-165L-53,-178Z" fill="#E0E0E0" stroke="#fff" stroke-width=".4"/><path d="M403,571L401,563L409,532L411,519L418,512L432,509L442,497L454,521L460,540L471,550L498,570L509,582L520,594L526,601L536,607L530,612L521,610L515,603L506,591L497,585L492,578L475,569L461,569L456,565L445,570L432,560L426,576Z" fill="#E0E0E0" stroke="#fff" stroke-width=".4"/><path d="M715,475L730,510L737,525L723,531L719,540L718,547L698,556L666,565L648,580L639,581L633,580L622,588L609,592L592,593L587,595L583,600L577,602L574,607L564,606L558,609L544,608L539,596L540,585L536,579L532,563L527,555L531,554L528,544L531,540L530,531L539,525L537,516L542,505L550,511L556,509L579,509L582,511L602,513L610,512L615,519L624,515L638,493L657,484Z" fill="#E0E0E0" stroke="#fff" stroke-width=".4"/><path d="M373,248L396,251L404,244L409,236L424,233L428,225L434,221L414,198L454,186L458,182L482,189L512,205L569,252L606,253L624,256L629,267L643,266L651,286L661,291L664,299L678,308L679,317L677,325L680,332L685,338L688,346L691,351L697,356L703,354L706,362L707,367L715,390L775,401L779,396L788,411L775,454L715,475L657,484L638,493L624,515L615,519L610,512L602,513L582,511L579,509L556,509L550,511L542,505L537,516L539,525L530,531L527,522L521,516L520,508L509,500L499,482L493,465L479,450L470,447L457,427L455,412L456,399L444,375L435,366L424,361L417,349L418,344L413,332L407,327L399,311L387,293L377,277L367,277L370,265L371,257Z" fill="#E0E0E0" stroke="#fff" stroke-width=".4"/><path d="M329,110L330,110L333,104L347,105L366,97L352,108L354,112L351,112L348,113L345,113L344,114L343,111L342,110L338,110L332,112Z" fill="#E0E0E0" stroke="#fff" stroke-width=".4"/><path d="M329,110L332,112L338,110L342,110L343,111L344,114L345,113L348,113L351,112L354,112L354,114L334,124L324,121L319,111Z" fill="#E0E0E0" stroke="#fff" stroke-width=".4"/><path d="M412,411L332,411L254,411L174,411L174,331L174,250L168,232L173,217L170,207L177,196L204,196L223,202L243,209L252,213L268,205L276,198L294,196L308,199L313,211L318,203L334,209L350,210L359,204L371,238L373,244L367,253L363,271L357,283L353,287L346,279L337,269L323,236L320,238L329,263L341,285L356,320L364,332L370,345L388,369L384,373L385,387L408,407Z" fill="#E0E0E0" stroke="#fff" stroke-width=".4"/><path d="M174,411L174,454L151,454L151,463L71,422L-9,381L-30,393L-44,401L-55,389L-87,379L-95,366L-111,355L-121,359L-128,347L-129,338L-140,321L-132,312L-134,298L-132,286L-133,275L-130,257L-131,246L-137,226L-127,220L-126,210L-128,201L-114,192L-108,184L-98,177L-97,159L-73,167L-65,165L-48,169L-22,180L-12,201L6,205L34,215L55,227L65,221L75,210L70,192L76,180L91,169L105,166L132,171L138,181L146,182L152,186L172,188L177,196L170,207L173,217L168,232L174,250L174,331Z" fill="#E0E0E0" stroke="#fff" stroke-width=".4"/><path d="M45,-83L27,-94L19,-105L12,-111L3,-122L-2,-130L-12,-143L-7,-155L-0,-149L4,-155L14,-155L31,-150L45,-151L54,-145L61,-145L56,-132L66,-121L63,-108L58,-107L54,-105L48,-98Z" fill="#E0E0E0" stroke="#fff" stroke-width=".4"/><path d="M121,-74L131,-66L133,-48L129,-47L126,-42L115,-43L107,-37L94,-35L86,-41L83,-53L85,-62L88,-61L89,-67L101,-71L105,-72L112,-74Z" fill="#E0E0E0" stroke="#fff" stroke-width=".4"/><path d="M50,-174L66,-182L78,-181L89,-169L91,-160L103,-154L105,-142L117,-134L123,-140L128,-137L123,-132L127,-127L122,-121L124,-110L133,-99L126,-90L122,-81L125,-78L121,-74L112,-74L105,-72L105,-74L107,-77L109,-84L106,-84L102,-89L99,-90L97,-95L93,-96L90,-100L86,-99L84,-90L79,-88L80,-90L73,-96L66,-99L63,-102L58,-107L63,-108L66,-121L56,-132L61,-145L54,-145L61,-155L55,-163Z" fill="#E0E0E0" stroke="#fff" stroke-width=".4"/><path d="M75,-82L70,-79L68,-84L60,-71L61,-62L57,-64L51,-73L43,-79L45,-83L48,-98L54,-105L58,-107L63,-102L66,-99L73,-96L80,-90L79,-88Z" fill="#E0E0E0" stroke="#fff" stroke-width=".4"/><path d="M85,-62L84,-71L79,-74L75,-82L79,-88L84,-90L86,-99L90,-100L93,-96L97,-95L99,-90L102,-89L106,-84L109,-84L107,-77L105,-74L105,-72L101,-71L89,-67L88,-61Z" fill="#E0E0E0" stroke="#fff" stroke-width=".4"/></g><g clip-path="url(#v)"><path d="M392.1,91.3L393.5,91.5L396.8,93.4L397.3,93.4L398.2,90.8L399.2,90.0L401.2,89.2L401.7,85.0L402.6,84.2L403.8,83.8L405.5,83.7L406.9,83.5L407.1,82.7L405.0,77.9L405.1,76.7L406.1,71.8L406.8,69.9L407.4,69.3L409.7,69.5L413.1,70.4L413.9,71.8L415.6,73.0L418.0,72.9L420.8,73.2L422.9,73.3L424.7,72.4L428.6,70.8L430.6,70.2L432.4,69.5L438.1,66.8L440.4,67.0L442.0,67.4L443.1,67.8L445.9,69.6L448.0,71.5L449.6,72.0L452.4,72.0L456.5,72.3L461.5,72.3L464.3,71.8L468.0,70.9L474.7,68.7L483.4,64.1L488.5,61.9L490.7,61.6L493.6,61.6L496.4,62.2L499.7,62.6L501.2,62.6L504.7,62.1L509.3,61.2L512.2,60.4L515.6,59.1L517.8,57.1L518.4,56.9L519.4,57.2L519.8,57.4L520.7,58.6L521.6,61.6L521.6,61.9L521.4,62.8L519.2,65.3L516.1,68.7L513.9,70.8L510.1,74.4L507.4,75.2L502.7,76.5L501.5,77.8L500.3,79.7L499.6,82.5L499.4,84.2L499.3,87.5L500.4,90.8L501.4,94.0L501.6,96.1L501.5,98.1L500.5,100.4L499.3,103.4L498.7,106.8L498.4,113.2L498.4,118.6L498.2,119.5L496.4,123.3L494.1,127.8L493.1,128.8L488.1,130.2L482.8,133.4L476.8,137.1L471.3,140.3L465.6,143.8L459.7,147.4L455.4,149.9L449.8,153.3L444.6,156.6L439.4,159.8L435.3,162.3L429.4,166.3L425.8,168.6L420.6,172.0L416.0,174.9L410.6,178.4L403.8,177.4L401.7,176.8L399.9,175.2L398.6,174.2L395.4,173.3L393.3,170.2L392.1,169.0L389.9,168.5L390.2,167.4L391.3,165.5L392.4,163.4L391.9,162.3L391.6,161.3L391.6,160.1L392.3,159.0L391.9,157.6L391.3,156.2L390.9,155.6L390.9,154.3L391.2,153.4L391.6,151.9L392.5,151.1L392.7,150.2L393.5,149.4L394.7,148.7L394.9,148.2L394.7,147.9L393.7,147.3L393.0,146.2L393.6,144.6L393.9,144.2L394.6,143.4L396.0,142.3L397.2,142.1L398.2,142.1L399.9,142.2L401.2,142.4L401.5,142.1L401.4,141.7L399.9,140.7L399.8,140.0L400.1,139.2L401.3,137.9L402.7,137.0L403.3,136.8L404.9,135.0L405.9,132.8L404.3,127.7L403.3,126.9L401.7,126.2L400.8,126.1L400.7,125.7L402.0,124.5L402.9,123.3L401.9,122.2L400.1,121.7L399.5,122.9L397.2,122.9L393.7,122.9L392.1,117.5L391.9,115.1L392.0,112.4L393.1,108.4L392.6,106.6L392.5,105.3L392.2,103.6L389.5,99.9L391.0,93Z" fill="#4ECDC4" stroke="#2C3E50" stroke-width="1"/></g><circle cx="400.0" cy="150.0" r="4" fill="#E74C3C" stroke="#fff" stroke-width="2"/><text x="400.0" y="140.0" text-anchor="middle" font-family="sans-serif" font-weight="700" font-size="10" fill="#2D3436">Damascus</text></svg>