<svg viewBox="0 0 800 300" xmlns="http://www.w3.org/2000/svg"><defs><clipPath id="v"><rect width="800" height="300"/></clipPath></defs><rect width="800" height="300" fill="#DCEEF8"/><g clip-path="url(#v)"><path d="M-577,318L-546,281L-520,302L-509,334L-479,339L-437,354L-402,348L-343,309L-343,36L-325,47L-286,117L-292,162L-277,188L-230,180L-197,147L-165,125L-149,90L-117,73L-89,82L-57,102L-4,106L39,89L45,66L57,31L93,25L113,-2L135,-50L194,-104L288,-157L315,-156L347,-144L369,-152L404,-145L436,-44L453,7L441,89L447,115L413,101L394,107L388,128L370,156L371,181L410,221L449,214L462,181L512,181L496,235L488,297L471,331L426,370L413,381L385,419L367,458L329,514L254,594L208,641L158,677L89,707L55,712L46,734L6,722L-27,737L-98,722L-138,731L-166,727L-234,759L-290,771L-331,802L-361,804L-389,775L-412,774L-440,738L-443,749L-452,727L-452,681L-473,628L-452,614L-453,554L-497,482L-530,417L-530,417ZM258,347L229,323L198,339L162,368L127,417L177,475L200,468L212,443L249,431L260,407L281,370Z" fill="#E0E0E0" stroke="#fff" stroke-width=".4"/><path d="M258,347L281,370L260,407L249,431L212,443L200,468L177,475L127,417L162,368L198,339L229,323Z" fill="#E0E0E0" stroke="#fff" stroke-width=".4"/><path d="M404,-145L369,-152L347,-144L315,-156L288,-157L246,-189L194,-200L175,-245L175,-270L147,-277L72,-354L51,-395L38,-407L12,-463L86,-455L108,-447L130,-449L167,-494L224,-551L248,-556L256,-580L293,-607L343,-617L348,-591L403,-593L433,-578L448,-561L479,-556L514,-534L514,-446L501,-398L498,-346L509,-325L501,-283L491,-277L474,-226Z" fill="#E0E0E0" stroke="#fff" stroke-width=".4"/><path d="M288,-157L194,-104L135,-50L113,-2L93,25L57,31L45,66L39,89L-4,106L-57,102L-89,82L-117,73L-149,90L-165,125L-197,147L-230,180L-277,188L-292,162L-286,117L-325,47L-343,36L-343,-174L-278,-176L-276,-427L-226,-429L-124,-454L-99,-425L-57,-452L-37,-453L0,-468L12,-463L38,-407L51,-395L72,-354L147,-277L175,-270L175,-245L194,-200L246,-189Z" fill="#E0E0E0" stroke="#fff" stroke-width=".4"/><path d="M-343,36L-343,309L-402,348L-437,354L-479,339L-509,334L-520,302L-546,281L-577,318L-627,262L-652,207L-667,135L-683,82L-705,-30L-707,-116L-715,-155L-741,-185L-775,-243L-810,-328L-824,-372L-878,-440L-882,-493L-850,-506L-811,-518L-768,-516L-729,-485L-719,-490L-451,-493L-405,-459L-245,-449L-123,-478L-69,-493L-26,-490L-0,-474L0,-468L-37,-453L-57,-452L-99,-425L-124,-454L-226,-429L-276,-427L-278,-176L-343,-174Z" fill="#E0E0E0" stroke="#fff" stroke-width=".4"/><path d="M627,-888L676,-893L756,-874L773,-883L819,-885L843,-905L883,-904L955,-930L1007,-969L1018,-939L1015,-872L1023,-812L1026,-706L1038,-673L1018,-624L992,-576L950,-533L890,-507L815,-473L741,-399L715,-386L669,-336L642,-320L636,-270L668,-216L680,-175L681,-153L693,-157L691,-86L680,-53L696,-41L686,-11L659,15L604,40L525,79L496,106L501,137L518,142L512,181L462,181L456,148L447,115L441,89L453,7L436,-44L404,-145L474,-226L491,-277L501,-283L509,-325L498,-346L501,-398L514,-446L514,-534L479,-556L448,-561L433,-578L403,-593L348,-591L343,-617L337,-665L538,-722L576,-689L594,-695L620,-678L624,-651L610,-619L615,-570L658,-528L678,-576L707,-590L701,-678L674,-727L650,-749L627,-748L608,-837Z" fill="#E0E0E0" stroke="#fff" stroke-width=".4"/></g><g clip-path="url(#v)"><path d="M454.1,123.3L455.5,124.3L461.5,127.8L462.0,134.6L461.5,142.2L460.3,147.1L460.8,152.0L462.7,159.5L464.6,164.8L465.1,188.4L462.9,187.3L459.1,186.4L457.2,186.7L455.3,197.4L453.9,213.2L454.8,223.1L440.5,223.4L422.5,222.3L409.6,218.1L395.6,208.6L387.2,194.1L383.7,184.9L378.7,184.4L377.7,182.9L377.2,171.7L377.5,160.0L378.4,156.8L387.7,142.5L393.7,133.7L397.2,125.0L405.1,114.9L413.7,108.4L416.7,107.5L418.9,107.8L433.6,116.7L449.1,125.1L452.4,124.1Z" fill="#4ECDC4" stroke="#2C3E50" stroke-width="1"/></g><circle cx="400.0" cy="150.0" r="4" fill="#E74C3C" stroke="#fff" stroke-width="2"/><text x="400.0" y="140.0" text-anchor="middle" font-family="sans-serif" font-weight="700" font-size="10" fill="#2D3436">Mbabane</text></svg>