<svg viewBox="0 0 800 300" xmlns="http://www.w3.org/2000/svg"><defs><clipPath id="v"><rect width="800" height="300"/></clipPath></defs><rect width="800" height="300" fill="#DCEEF8"/><g clip-path="url(#v)"><path d="M1575,366L1577,365L1580,367L1579,371L1574,372L1570,371L1569,368L1572,365ZM1589,359L1584,361L1580,363L1579,360L1582,358L1585,358L1589,355L1589,355L1589,359ZM-1006,355L-1006,355L-1006,355L-1004,355L-1005,359L-1006,359L-1006,359L-1006,355Z" fill="#E0E0E0" stroke="#fff" stroke-width=".4"/><path d="M536,245L537,246L563,260L564,265L574,272L571,281L571,285L576,288L576,289L574,294L574,296L574,299L577,304L579,311L582,313L576,317L569,320L564,320L562,322L557,322L555,323L546,321L541,322L539,312L536,308L535,306L528,305L524,303L519,302L516,300L513,298L509,289L505,285L504,281L504,277L503,271L506,270L509,268L511,264L513,262L513,260L512,258L511,255L513,255L514,250L511,246L513,245L521,245Z" fill="#E0E0E0" stroke="#fff" stroke-width=".4"/><path d="M229,31L229,31L229,33L229,45L205,44L205,65L199,65L197,69L198,81L170,81L169,83L169,80L169,80L185,79L186,77L189,73L191,62L201,54L205,44L207,43L209,37L215,36L218,37L221,37L224,35L228,35L228,31Z" fill="#E0E0E0" stroke="#fff" stroke-width=".4"/><path d="M-594,-168L-595,-168L-609,-179L-614,-184L-627,-189L-631,-199L-630,-206L-639,-211L-641,-221L-649,-230L-649,-236L-645,-242L-646,-250L-658,-259L-665,-274L-670,-283L-676,-290L-681,-295L-685,-303L-692,-298L-699,-290L-706,-300L-711,-306L-718,-310L-725,-310L-725,-401L-725,-473L-711,-468L-700,-458L-692,-456L-686,-464L-677,-471L-667,-468L-656,-477L-644,-483L-639,-474L-634,-479L-632,-489L-627,-487L-615,-468L-605,-482L-604,-466L-596,-470L-593,-476L-584,-474L-573,-466L-556,-458L-546,-455L-539,-456L-529,-446L-540,-437L-527,-432L-507,-435L-501,-438L-493,-427L-485,-436L-493,-444L-488,-451L-479,-452L-474,-454L-468,-449L-461,-439L-453,-440L-440,-432L-429,-435L-418,-434L-419,-446L-413,-450L-401,-443L-401,-425L-397,-440L-391,-440L-388,-459L-395,-472L-404,-481L-403,-505L-395,-521L-385,-517L-378,-507L-368,-483L-375,-472L-361,-468L-361,-448L-352,-463L-343,-450L-345,-436L-338,-423L-331,-437L-325,-454L-325,-476L-315,-475L-304,-471L-294,-461L-294,-451L-299,-441L-294,-431L-295,-422L-309,-409L-319,-406L-327,-411L-329,-402L-336,-388L-338,-380L-346,-369L-357,-368L-362,-361L-363,-351L-371,-349L-380,-336L-388,-319L-391,-307L-391,-291L-380,-289L-377,-276L-374,-266L-364,-268L-350,-262L-343,-257L-338,-251L-329,-248L-321,-242L-309,-242L-302,-240L-303,-230L-300,-217L-295,-204L-285,-193L-279,-197L-275,-209L-279,-228L-284,-234L-272,-240L-264,-249L-260,-258L-261,-267L-266,-279L-274,-289L-266,-304L-269,-317L-272,-340L-266,-344L-254,-340L-247,-338L-241,-342L-234,-337L-225,-328L-223,-322L-210,-321L-210,-309L-208,-291L-201,-289L-196,-281L-186,-288L-179,-304L-174,-311L-168,-298L-159,-280L-151,-264L-154,-256L-144,-248L-138,-241L-126,-238L-122,-234L-119,-223L-113,-222L-110,-217L-110,-204L-115,-200L-120,-195L-132,-191L-141,-182L-153,-180L-169,-183L-180,-183L-187,-182L-193,-174L-202,-169L-213,-155L-221,-145L-215,-147L-203,-161L-188,-170L-177,-171L-171,-165L-178,-158L-176,-147L-173,-139L-164,-133L-152,-135L-145,-147L-144,-139L-140,-135L-148,-129L-164,-123L-172,-118L-180,-111L-185,-112L-185,-120L-173,-129L-184,-129L-192,-127L-197,-133L-197,-147L-200,-150L-205,-149L-208,-151L-213,-143L-215,-135L-218,-131L-221,-129L-223,-129L-224,-126L-237,-126L-248,-126L-251,-124L-259,-117L-260,-116L-262,-112L-269,-112L-276,-112L-279,-110L-278,-109L-277,-106L-277,-105L-287,-100L-294,-98L-303,-93L-305,-93L-307,-94L-308,-96L-308,-97L-306,-100L-303,-106L-301,-112L-302,-120L-304,-129L-311,-134L-310,-136L-311,-137L-313,-137L-315,-139L-315,-142L-316,-140L-318,-141L-318,-142L-320,-143L-320,-146L-326,-149L-332,-153L-339,-157L-346,-161L-352,-158L-354,-157L-363,-160L-369,-159L-376,-162L-383,-164L-388,-165L-391,-166L-392,-173L-394,-172L-394,-168L-409,-168L-434,-168L-458,-168L-480,-168L-502,-168L-523,-168L-545,-168L-552,-168L-573,-168ZM-314,-343L-309,-350L-299,-350L-299,-347L-307,-338L-312,-338ZM-284,-542L-291,-555L-291,-564L-288,-566L-271,-563L-259,-549L-258,-543L-266,-543L-274,-544L-281,-541ZM-287,-337L-285,-342L-282,-341L-280,-338L-283,-330L-286,-331L-288,-336ZM-383,-599L-387,-588L-398,-590L-406,-597L-403,-610L-392,-618L-386,-608ZM-385,-676L-388,-675L-402,-677L-404,-687L-389,-686L-384,-680ZM-406,-720L-397,-707L-399,-694L-410,-687L-416,-695L-419,-708L-419,-724L-410,-722ZM-344,-583L-356,-586L-375,-595L-377,-610L-378,-625L-385,-638L-400,-641L-409,-651L-406,-664L-391,-662L-383,-652L-369,-652L-363,-642L-364,-630L-356,-624L-351,-617L-342,-615L-331,-613L-320,-619L-305,-622L-293,-620L-286,-609L-284,-597L-288,-590L-299,-584L-308,-587L-329,-583ZM-511,-698L-500,-692L-503,-682L-516,-672L-527,-683L-521,-694ZM-508,-721L-499,-714L-508,-707L-520,-707L-520,-712L-512,-723ZM-109,-194L-113,-187L-118,-177L-113,-181L-108,-179L-111,-175L-104,-172L-101,-174L-94,-171L-96,-163L-91,-165L-90,-159L-88,-152L-91,-143L-94,-143L-99,-145L-97,-153L-99,-155L-108,-145L-112,-146L-107,-151L-114,-153L-122,-153L-136,-153L-137,-156L-132,-160L-135,-163L-129,-170L-122,-187L-117,-194L-111,-198L-108,-197ZM-313,-386L-305,-380L-297,-375L-296,-367L-291,-368L-286,-363L-292,-358L-304,-362L-308,-369L-315,-360L-325,-352L-327,-361L-337,-360L-331,-368L-330,-381L-328,-397L-322,-395L-321,-388L-317,-390ZM-276,-531L-269,-541L-253,-529L-244,-518L-243,-508L-229,-513L-222,-498L-204,-490L-198,-481L-191,-462L-204,-452L-187,-440L-176,-435L-166,-418L-154,-417L-157,-404L-169,-384L-178,-391L-189,-408L-199,-406L-200,-396L-192,-386L-182,-378L-179,-374L-175,-357L-177,-346L-186,-350L-204,-363L-194,-349L-187,-340L-185,-335L-205,-341L-220,-350L-229,-358L-227,-362L-237,-371L-248,-379L-248,-374L-269,-371L-275,-377L-270,-389L-256,-390L-242,-392L-244,-398L-242,-407L-232,-425L-234,-433L-237,-440L-248,-449L-263,-456L-258,-461L-266,-474L-272,-475L-278,-482L-281,-476L-295,-473L-321,-478L-336,-484L-348,-487L-354,-495L-346,-505L-356,-505L-359,-528L-353,-550L-346,-560L-327,-567L-332,-551L-327,-536L-320,-555L-302,-566L-289,-540L-291,-524ZM-390,-576L-375,-575L-361,-569L-372,-546L-380,-541L-388,-524L-396,-524L-401,-545L-401,-558L-397,-569ZM-594,-632L-582,-655L-567,-676L-556,-675L-546,-680L-547,-655L-553,-644L-559,-643L-573,-630L-584,-625ZM-665,-227L-658,-228L-660,-214L-654,-204L-657,-204L-661,-210L-664,-215L-668,-219L-669,-224L-668,-228ZM-469,-740L-455,-735L-435,-721L-430,-704L-427,-689L-439,-693L-451,-704L-467,-706L-460,-716L-468,-725ZM-599,-163L-602,-161L-614,-166L-616,-170L-623,-174L-624,-177L-632,-179L-634,-185L-634,-188L-626,-186L-622,-184L-615,-183L-613,-179L-609,-173L-602,-169ZM-585,-584L-574,-579L-556,-577L-549,-570L-541,-559L-550,-552L-568,-535L-577,-519L-577,-509L-596,-498L-600,-508L-616,-520L-613,-530L-608,-547L-602,-564L-609,-580ZM-486,-624L-479,-628L-472,-627L-470,-613L-475,-599L-499,-595L-517,-583L-528,-583L-529,-592L-514,-604L-547,-601L-557,-606L-547,-634L-540,-643L-520,-632L-507,-615L-495,-613L-505,-641L-498,-652L-491,-649L-488,-634ZM-476,-549L-468,-539L-464,-516L-461,-500L-449,-489L-436,-479L-437,-470L-449,-468L-444,-460L-447,-453L-460,-456L-472,-462L-481,-460L-494,-454L-512,-451L-525,-449L-529,-458L-539,-464L-545,-461L-554,-478L-550,-480L-538,-484L-528,-483L-519,-486L-533,-491L-548,-490L-558,-490L-562,-498L-545,-507L-557,-507L-569,-513L-563,-530L-558,-540L-539,-555L-531,-550L-535,-538L-519,-546L-509,-534L-501,-546L-494,-538L-488,-515L-485,-524L-490,-549L-483,-553ZM-432,-540L-440,-556L-432,-568L-423,-563L-410,-566L-409,-559L-415,-547L-404,-536L-406,-515L-417,-506L-424,-508L-429,-517L-447,-535L-447,-543ZM-477,-562L-467,-563L-462,-557L-468,-541L-479,-558ZM-418,-650L-413,-636L-413,-621L-416,-599L-428,-596L-436,-601L-436,-618L-447,-615L-448,-638L-440,-637L-429,-648L-419,-646ZM-401,-794L-396,-808L-388,-811L-391,-821L-375,-824L-365,-799L-353,-790L-341,-782L-336,-754L-327,-741L-337,-730L-350,-702L-363,-700L-378,-704L-386,-719L-386,-733L-380,-743L-393,-743L-401,-756L-406,-775ZM-369,-855L-358,-865L-350,-867L-335,-875L-325,-896L-316,-893L-308,-878L-303,-908L-293,-917L-280,-924L-258,-926L-254,-920L-233,-930L-218,-926L-202,-922L-183,-918L-167,-910L-154,-894L-155,-880L-172,-857L-190,-847L-196,-836L-180,-836L-197,-807L-209,-795L-222,-760L-236,-753L-241,-745L-263,-741L-253,-736L-258,-729L-252,-711L-259,-699L-270,-689L-273,-676L-283,-666L-282,-658L-270,-660L-270,-652L-289,-633L-308,-642L-329,-637L-340,-641L-354,-642L-354,-657L-341,-665L-345,-689L-340,-691L-321,-677L-331,-699L-343,-705L-337,-719L-324,-728L-322,-742L-332,-757L-335,-779L-315,-777L-310,-772L-298,-788L-315,-793L-340,-790L-353,-805L-359,-824L-367,-838ZM-251,-428L-255,-422L-263,-421L-265,-431L-262,-441L-256,-444L-250,-439L-250,-430ZM-402,-468L-398,-460L-402,-453L-412,-459L-418,-457L-428,-466L-421,-473L-416,-482L-409,-476L-404,-472ZM-174,-178L-171,-179L-162,-176L-154,-171L-154,-169L-158,-169L-167,-173ZM-170,-147L-167,-142L-162,-141L-155,-141L-159,-137L-162,-136L-171,-140L-173,-144Z" fill="#E0E0E0" stroke="#fff" stroke-width=".4"/><path d="M-594,-168L-573,-168L-552,-168L-545,-168L-523,-168L-502,-168L-480,-168L-458,-168L-434,-168L-409,-168L-394,-168L-394,-172L-392,-173L-391,-166L-388,-165L-383,-164L-376,-162L-369,-159L-363,-160L-354,-157L-352,-158L-346,-161L-339,-157L-332,-153L-326,-149L-320,-146L-320,-143L-318,-142L-318,-141L-316,-140L-315,-142L-315,-139L-313,-137L-311,-137L-310,-136L-311,-134L-304,-129L-302,-120L-301,-112L-303,-106L-306,-100L-308,-97L-308,-96L-307,-94L-305,-93L-303,-93L-294,-98L-287,-100L-277,-105L-277,-106L-278,-109L-279,-110L-276,-112L-269,-112L-262,-112L-260,-116L-259,-117L-251,-124L-248,-126L-237,-126L-224,-126L-223,-129L-221,-129L-218,-131L-215,-135L-213,-143L-208,-151L-205,-149L-200,-150L-197,-147L-197,-133L-192,-127L-191,-124L-199,-119L-206,-116L-214,-113L-218,-107L-219,-105L-219,-99L-217,-94L-214,-94L-214,-98L-212,-95L-213,-93L-218,-91L-221,-91L-226,-90L-230,-89L-234,-89L-240,-86L-229,-88L-227,-86L-237,-83L-242,-83L-242,-84L-244,-81L-242,-81L-243,-74L-248,-67L-249,-69L-251,-70L-253,-72L-251,-67L-250,-66L-249,-62L-252,-59L-256,-51L-257,-52L-254,-58L-258,-61L-259,-69L-260,-65L-259,-59L-263,-61L-258,-58L-258,-49L-256,-48L-255,-45L-254,-36L-259,-30L-266,-27L-271,-22L-275,-22L-278,-18L-279,-15L-287,-10L-291,-6L-295,-1L-296,5L-295,11L-292,18L-289,24L-289,27L-286,37L-286,42L-286,45L-288,50L-290,51L-294,50L-295,47L-297,45L-301,38L-305,32L-306,29L-304,23L-306,19L-312,12L-315,10L-322,14L-323,14L-327,10L-331,8L-339,9L-346,8L-351,9L-354,10L-353,12L-353,15L-352,17L-353,18L-356,17L-358,19L-364,18L-369,14L-375,15L-380,13L-385,14L-391,16L-398,22L-405,25L-409,29L-410,33L-410,38L-410,42L-409,45L-412,45L-417,43L-422,41L-424,37L-426,31L-430,27L-433,22L-436,16L-441,13L-447,13L-452,20L-458,17L-461,15L-463,10L-466,6L-470,2L-474,-0L-476,-4L-489,-4L-489,-0L-494,-0L-509,0L-525,-6L-536,-10L-535,-12L-545,-11L-553,-10L-554,-15L-559,-19L-562,-21L-563,-23L-567,-23L-569,-26L-576,-27L-578,-28L-579,-33L-586,-42L-592,-54L-592,-56L-595,-59L-600,-67L-601,-75L-605,-80L-604,-88L-604,-96L-606,-104L-603,-113L-602,-122L-602,-131L-603,-145L-605,-154L-607,-159L-606,-161L-596,-158L-592,-148L-590,-150L-591,-159ZM-829,90L-827,91L-826,92L-824,95L-825,95L-827,97L-830,98L-831,99L-833,98L-832,96L-833,93L-833,92L-832,91L-832,90L-832,89L-831,89ZM-833,85L-834,86L-836,87L-837,85L-838,84L-838,84L-837,83L-835,84ZM-838,82L-839,83L-843,82L-842,82ZM-848,78L-847,78L-845,81L-845,81L-846,81L-848,81L-849,79L-849,79ZM-857,74L-857,76L-858,76L-860,75L-860,74L-859,74ZM-908,-311L-903,-310L-902,-305L-906,-302L-911,-305L-916,-309ZM-813,-277L-808,-276L-805,-272L-811,-266L-819,-261L-822,-264L-823,-271L-817,-275ZM-725,-473L-725,-401L-725,-310L-718,-310L-711,-306L-706,-300L-699,-290L-692,-298L-685,-303L-681,-295L-676,-290L-670,-283L-665,-274L-658,-259L-646,-250L-645,-242L-649,-236L-653,-241L-660,-245L-662,-256L-671,-267L-675,-279L-682,-280L-693,-281L-702,-285L-717,-299L-724,-302L-736,-307L-746,-306L-760,-312L-769,-319L-777,-316L-775,-305L-779,-305L-788,-302L-794,-297L-802,-294L-803,-302L-800,-316L-792,-321L-794,-325L-803,-316L-808,-307L-819,-297L-813,-290L-820,-280L-828,-274L-835,-270L-837,-264L-848,-257L-850,-251L-859,-246L-864,-247L-871,-243L-878,-239L-884,-235L-896,-231L-897,-233L-890,-239L-882,-243L-875,-250L-866,-251L-862,-257L-852,-265L-851,-267L-845,-272L-844,-282L-840,-290L-849,-286L-851,-289L-855,-284L-860,-291L-862,-286L-864,-293L-872,-287L-876,-287L-877,-295L-875,-301L-880,-306L-889,-303L-895,-310L-900,-313L-900,-322L-906,-328L-903,-337L-897,-345L-895,-354L-889,-355L-884,-352L-878,-360L-873,-358L-867,-363L-869,-371L-873,-374L-867,-380L-872,-380L-879,-377L-882,-373L-887,-377L-898,-375L-908,-379L-911,-386L-920,-396L-910,-403L-894,-412L-888,-412L-889,-403L-874,-404L-880,-415L-889,-422L-894,-431L-901,-439L-911,-445L-907,-456L-894,-456L-885,-466L-883,-476L-876,-486L-869,-488L-855,-498L-848,-496L-837,-508L-826,-504L-821,-494L-818,-498L-806,-496L-806,-491L-795,-488L-788,-490L-773,-483L-759,-481L-753,-478L-744,-482L-733,-476ZM-946,-364L-942,-361L-937,-362L-932,-358L-924,-356L-925,-354L-930,-351L-936,-354L-939,-357L-945,-356L-947,-358Z" fill="#E0E0E0" stroke="#fff" stroke-width=".4"/><path d="M921,-171L916,-163L910,-162L909,-151L905,-147L891,-150L886,-131L882,-129L868,-125L874,-108L869,-105L870,-99L866,-101L862,-104L851,-105L839,-106L837,-105L826,-109L822,-107L821,-101L809,-104L805,-103L803,-99L799,-97L789,-90L786,-83L784,-83L782,-88L772,-88L771,-96L767,-96L768,-106L759,-113L747,-112L739,-111L732,-120L726,-124L715,-131L713,-132L695,-126L695,-89L691,-89L686,-97L681,-99L673,-97L670,-94L670,-96L671,-100L670,-104L662,-107L658,-116L654,-119L654,-122L661,-121L661,-128L668,-130L674,-129L675,-139L674,-145L667,-145L661,-147L652,-143L645,-140L642,-142L643,-147L638,-155L633,-154L626,-162L631,-170L629,-172L634,-184L642,-178L643,-186L657,-199L669,-199L685,-191L693,-186L701,-191L712,-191L721,-185L724,-189L734,-188L735,-194L724,-202L731,-207L729,-211L736,-214L731,-222L734,-226L761,-231L765,-234L783,-238L789,-243L802,-241L805,-228L812,-231L821,-227L821,-220L828,-221L846,-232L843,-228L852,-219L868,-189L872,-195L882,-189L893,-191L897,-189L900,-183L905,-181L908,-176L917,-177Z" fill="#E0E0E0" stroke="#fff" stroke-width=".4"/><path d="M695,-89L695,-126L713,-132L715,-131L726,-124L732,-120L739,-111L747,-112L759,-113L768,-106L767,-96L771,-96L772,-88L782,-88L784,-83L786,-83L789,-90L799,-97L803,-99L805,-98L799,-91L804,-88L810,-90L818,-85L809,-78L803,-79L800,-79L799,-82L801,-86L791,-84L789,-78L786,-73L780,-73L778,-69L783,-67L784,-60L780,-51L775,-53L771,-53L771,-58L762,-62L754,-67L749,-71L741,-77L738,-87L735,-89L727,-89L725,-91L724,-98L714,-103L708,-98L702,-94L703,-90Z" fill="#E0E0E0" stroke="#fff" stroke-width=".4"/><path d="M1308,257L1308,280L1308,304L1302,298L1294,297L1293,299L1283,299L1287,293L1291,291L1289,283L1286,277L1272,271L1266,270L1255,264L1253,267L1250,268L1248,265L1248,262L1243,258L1251,256L1256,256L1255,254L1245,254L1242,250L1235,248L1232,245L1242,243L1246,241L1257,244L1258,246L1260,258L1268,262L1274,255L1282,250L1289,250L1295,253L1300,255ZM1192,302L1193,304L1193,306L1188,312L1182,313L1181,312L1182,310L1185,305ZM1259,288L1258,282L1260,280L1261,277L1263,280L1263,283ZM1141,208L1137,215L1142,222L1141,225L1149,232L1141,232L1138,237L1139,244L1132,249L1132,256L1129,267L1128,264L1119,268L1117,263L1111,263L1108,261L1099,263L1097,260L1092,260L1086,259L1085,250L1081,248L1078,241L1077,235L1078,228L1082,224L1083,228L1088,233L1093,231L1097,232L1102,228L1105,227L1112,229L1118,228L1121,218L1124,215L1127,207L1135,207ZM1224,258L1232,260L1235,266L1229,263L1223,262L1218,263L1213,263L1215,259ZM1206,265L1201,264L1200,261L1207,261L1209,263ZM1214,222L1214,226L1218,227L1219,230L1219,236L1215,236L1214,240L1217,244L1215,245L1212,240L1210,231L1211,225ZM1178,232L1186,231L1193,226L1194,228L1188,235L1183,236L1176,235L1164,235L1158,236L1157,242L1163,248L1167,245L1181,243L1180,246L1177,245L1174,249L1167,252L1174,261L1173,264L1179,272L1179,277L1175,279L1173,276L1176,270L1169,273L1167,271L1168,268L1163,264L1164,257L1159,259L1159,268L1160,278L1155,279L1152,277L1154,270L1153,263L1150,263L1148,258L1151,254L1152,248L1155,237L1157,234L1163,229L1169,231ZM1159,312L1149,307L1156,306L1160,308L1162,310L1162,312ZM1166,300L1171,299L1177,297L1176,301L1166,303L1156,302L1156,299L1162,298ZM1144,299L1148,298L1150,301L1142,303L1137,304L1133,303L1135,299L1139,299L1141,297ZM1074,284L1074,287L1088,288L1090,285L1103,288L1106,293L1117,294L1126,299L1117,301L1109,298L1103,299L1095,298L1089,297L1080,294L1075,293L1072,294L1059,291L1058,288L1051,288L1056,281L1065,281L1071,284ZM1044,246L1045,251L1048,255L1053,256L1056,260L1055,269L1054,280L1046,281L1040,274L1031,269L1028,264L1022,258L1019,253L1013,243L1007,237L1005,231L1002,225L996,220L992,214L987,210L979,202L978,199L983,199L994,200L1001,207L1006,212L1010,215L1017,223L1024,223L1030,228L1035,234L1040,237L1037,243L1041,246Z" fill="#E0E0E0" stroke="#fff" stroke-width=".4"/><path d="M-203,686L-200,691L-197,701L-187,708L-177,711L-181,717L-187,718L-191,714L-195,713L-203,713ZM-124,467L-126,473L-128,482L-128,491L-129,493L-130,498L-130,503L-121,510L-122,516L-117,520L-118,525L-125,536L-135,541L-150,543L-158,542L-156,548L-158,555L-156,560L-161,563L-168,564L-175,561L-178,563L-177,573L-172,576L-168,573L-166,578L-173,581L-178,587L-179,597L-181,602L-188,603L-194,608L-196,616L-189,623L-182,625L-184,635L-193,641L-197,654L-204,658L-207,664L-205,676L-200,683L-203,682L-209,680L-227,679L-230,672L-230,663L-234,664L-237,660L-238,648L-232,643L-230,636L-231,631L-227,622L-224,608L-225,602L-222,600L-223,596L-226,594L-224,590L-227,586L-229,575L-226,573L-227,561L-225,551L-223,543L-219,540L-221,531L-221,522L-216,517L-216,509L-212,501L-212,493L-214,491L-217,476L-212,468L-213,460L-211,452L-206,445L-201,440L-203,436L-201,434L-202,420L-194,417L-191,408L-192,406L-186,399L-177,401L-173,407L-170,401L-162,401L-160,403L-147,415L-141,417L-132,422L-125,426L-124,429L-131,441L-124,444L-116,445L-110,443L-103,437L-102,430L-99,429L-95,433L-95,440L-101,444L-106,448L-114,455Z" fill="#E0E0E0" stroke="#fff" stroke-width=".4"/><path d="M-203,686L-203,713L-195,713L-191,714L-194,719L-200,723L-203,722L-208,721L-213,717L-220,715L-229,708L-237,702L-247,688L-241,691L-231,699L-221,703L-217,698L-215,689L-208,685ZM-210,367L-207,372L-206,377L-202,381L-204,388L-200,397L-197,408L-192,406L-191,408L-194,417L-202,420L-201,434L-203,436L-201,440L-206,445L-211,452L-213,460L-212,468L-217,476L-214,491L-212,493L-212,501L-216,509L-216,517L-221,522L-221,531L-219,540L-223,543L-225,551L-227,561L-226,573L-229,575L-227,586L-224,590L-226,594L-223,596L-222,600L-225,602L-224,608L-227,622L-231,631L-230,636L-232,643L-238,648L-237,660L-234,664L-230,663L-230,672L-227,679L-209,680L-203,682L-209,682L-213,685L-219,689L-220,700L-223,701L-231,697L-240,688L-249,682L-251,674L-249,667L-253,660L-253,641L-250,630L-243,622L-254,619L-247,610L-244,593L-236,597L-233,576L-237,573L-240,586L-244,584L-242,570L-240,553L-236,546L-238,537L-239,527L-236,527L-231,512L-226,498L-223,485L-225,473L-223,466L-224,456L-220,446L-218,430L-216,413L-214,396L-214,383L-216,373L-212,371Z" fill="#E0E0E0" stroke="#fff" stroke-width=".4"/><path d="M503,271L504,277L504,281L505,285L509,289L513,298L510,298L501,299L499,300L497,304L498,308L497,316L496,324L498,325L503,328L505,327L506,335L500,334L497,330L494,327L489,326L487,322L483,325L477,324L475,320L470,320L467,320L466,318L464,317L461,317L456,318L453,318L451,318L452,310L449,307L449,303L450,298L448,295L448,291L439,291L440,288L436,288L436,290L431,290L430,294L429,296L425,295L422,296L417,296L415,293L413,290L411,286L409,281L388,280L385,281L383,281L380,282L379,280L381,279L381,276L383,274L385,273L387,273L390,271L393,271L394,273L397,274L401,269L405,266L407,264L407,258L410,251L413,247L418,243L419,241L419,239L420,236L420,232L421,226L422,221L424,217L425,213L425,208L428,204L432,202L438,204L442,207L448,208L453,209L455,205L456,204L459,205L467,201L470,203L473,203L474,201L476,200L482,201L486,201L489,200L493,206L496,207L498,206L502,206L506,205L507,208L514,213L513,221L516,222L514,225L511,227L508,230L507,234L506,240L505,242L505,248L503,250L502,254L501,255L501,259L503,262Z" fill="#E0E0E0" stroke="#fff" stroke-width=".4"/><path d="M591,250L587,244L587,218L593,210L595,208L600,207L606,202L616,202L636,180L641,174L644,170L644,166L644,158L644,155L644,155L647,155L650,154L654,153L657,151L660,151L660,153L659,157L659,161L658,164L656,172L652,180L648,189L642,200L636,208L627,218L620,223L609,231L602,236L595,245L593,249Z" fill="#E0E0E0" stroke="#fff" stroke-width=".4"/><path d="M574,272L564,265L563,260L537,246L536,245L536,237L538,234L541,230L544,224L541,216L540,212L537,207L541,203L546,198L550,200L550,204L552,206L557,206L566,212L569,212L570,212L572,213L577,213L579,210L585,207L588,210L593,210L587,218L587,244L591,250L586,253L584,256L582,257L581,262L578,265L577,269Z" fill="#E0E0E0" stroke="#fff" stroke-width=".4"/><path d="M469,179L463,175L461,173L460,171L461,168L461,165L457,160L456,157L456,155L454,153L454,149L452,146L450,147L450,144L452,141L451,138L454,135L452,134L454,129L457,124L464,124L463,94L463,91L472,91L472,75L501,75L529,75L557,75L560,83L558,84L559,92L562,102L564,103L568,106L565,110L559,112L557,114L556,119L553,130L554,133L553,139L550,147L546,150L543,156L542,159L538,161L536,169L536,175L536,170L535,169L535,166L535,163L531,160L530,155L531,150L528,149L527,151L523,151L524,153L525,158L521,162L518,167L514,168L508,164L505,165L504,167L501,169L500,170L493,170L492,169L487,168L484,170L482,169L479,165L477,163L472,164L470,167L468,174L466,175L464,176Z" fill="#E0E0E0" stroke="#fff" stroke-width=".4"/><path d="M967,-813L983,-823L997,-800L1014,-759L1012,-724L996,-719L976,-730L964,-745L959,-774L949,-782ZM1033,-739L1051,-718L1049,-703L1008,-690L1021,-737L1027,-742ZM1292,-632L1311,-631L1337,-615L1332,-594L1305,-595L1293,-589L1279,-607L1283,-627ZM1360,-609L1378,-602L1370,-591L1358,-593L1345,-604L1346,-613ZM1300,-556L1307,-566L1316,-569L1326,-559L1327,-552L1316,-552L1301,-555ZM615,-793L629,-801L640,-802L641,-790L645,-801L652,-808L663,-798L660,-791L650,-786L644,-782L643,-775L635,-768L627,-778L631,-792ZM455,-230L442,-230L433,-231L435,-237L445,-241L452,-239L456,-237L455,-233ZM677,-566L694,-589L693,-602L709,-617L732,-636L756,-641L769,-653L783,-657L788,-645L783,-635L757,-620L735,-607L713,-580L702,-555L691,-532L692,-512L706,-494L702,-492L678,-495L677,-505L663,-511L662,-523L670,-528L670,-541L684,-563ZM1322,-223L1324,-211L1324,-199L1327,-188L1334,-168L1324,-172L1319,-156L1326,-145L1326,-138L1320,-144L1316,-136L1314,-145L1315,-155L1314,-167L1316,-175L1316,-190L1312,-201L1313,-218L1319,-223L1317,-229L1320,-231ZM-1006,-457L-1006,-457L-988,-442L-969,-423L-970,-412L-965,-407L-967,-421L-947,-418L-933,-401L-940,-393L-952,-392L-952,-375L-955,-372L-962,-372L-967,-378L-977,-383L-979,-390L-986,-393L-994,-391L-998,-397L-996,-403L-1005,-399L-1002,-391L-1006,-384L-1006,-384L-1006,-457ZM1589,-384L1589,-384L1580,-376L1570,-377L1577,-369L1581,-355L1584,-351L1585,-344L1583,-340L1570,-344L1550,-332L1543,-330L1532,-320L1522,-311L1519,-304L1509,-314L1490,-303L1487,-308L1480,-302L1470,-304L1468,-295L1459,-281L1460,-276L1468,-273L1467,-253L1460,-253L1457,-242L1460,-237L1447,-230L1445,-217L1434,-214L1432,-202L1422,-191L1419,-199L1416,-216L1412,-243L1415,-261L1421,-269L1422,-276L1433,-279L1446,-296L1458,-311L1471,-323L1477,-344L1468,-343L1464,-330L1446,-314L1440,-332L1421,-327L1403,-302L1409,-294L1393,-290L1382,-289L1382,-299L1371,-301L1362,-294L1340,-296L1316,-292L1293,-266L1266,-235L1277,-234L1280,-226L1287,-223L1292,-229L1300,-229L1310,-215L1311,-205L1305,-193L1304,-180L1301,-162L1290,-147L1288,-139L1278,-127L1268,-116L1264,-110L1254,-104L1250,-104L1245,-109L1235,-101L1234,-98L1234,-98L1233,-100L1233,-105L1237,-105L1238,-117L1236,-126L1242,-129L1251,-127L1256,-137L1258,-149L1261,-153L1265,-163L1253,-159L1247,-155L1236,-155L1233,-165L1224,-173L1212,-177L1209,-188L1207,-195L1204,-200L1199,-212L1193,-216L1182,-220L1173,-219L1164,-217L1158,-211L1162,-208L1162,-202L1158,-198L1151,-186L1151,-181L1141,-174L1133,-178L1124,-177L1120,-181L1116,-182L1105,-174L1096,-172L1089,-170L1080,-171L1073,-171L1069,-177L1062,-182L1055,-184L1046,-182L1039,-180L1029,-185L1027,-194L1019,-197L1012,-198L1004,-203L997,-191L1000,-184L993,-176L982,-179L975,-179L970,-185L963,-185L956,-188L945,-183L932,-173L924,-172L921,-171L917,-177L908,-176L905,-181L900,-183L897,-189L893,-191L882,-189L872,-195L868,-189L852,-219L843,-228L846,-232L828,-221L821,-220L821,-227L812,-231L805,-228L802,-241L789,-243L783,-238L765,-234L761,-231L734,-226L731,-222L736,-214L729,-211L731,-207L724,-202L735,-194L734,-188L724,-189L721,-185L712,-191L701,-191L693,-186L685,-191L669,-199L657,-199L643,-186L642,-178L634,-184L629,-172L631,-170L626,-162L633,-154L638,-155L643,-147L642,-142L645,-140L642,-134L635,-132L628,-122L635,-112L634,-106L642,-94L637,-90L636,-88L633,-89L628,-94L626,-95L621,-97L619,-101L613,-103L608,-101L607,-103L597,-108L587,-110L580,-111L580,-110L570,-119L562,-122L556,-128L561,-130L567,-139L563,-143L574,-147L574,-149L567,-148L567,-152L571,-155L578,-156L579,-160L577,-166L580,-172L580,-175L570,-178L566,-178L561,-184L556,-182L546,-186L547,-188L544,-193L538,-194L538,-197L539,-200L535,-206L527,-205L525,-206L523,-203L521,-203L519,-211L517,-215L519,-216L524,-216L527,-218L525,-222L520,-224L521,-226L518,-228L513,-236L515,-240L514,-246L507,-249L503,-247L502,-250L495,-254L492,-261L492,-268L488,-271L491,-275L489,-288L494,-296L493,-298L501,-306L494,-313L509,-332L516,-341L519,-349L508,-360L511,-371L504,-383L509,-398L501,-419L508,-433L497,-445L498,-459L503,-461L516,-469L523,-477L535,-464L555,-459L582,-437L587,-428L588,-416L580,-406L568,-401L536,-415L531,-413L542,-400L543,-392L543,-374L553,-369L558,-365L559,-373L555,-380L559,-387L577,-376L583,-380L578,-393L595,-410L602,-409L608,-403L613,-415L607,-426L610,-437L605,-450L625,-443L629,-432L620,-430L620,-420L626,-413L637,-417L639,-429L654,-438L679,-455L684,-454L677,-442L686,-440L691,-447L705,-447L715,-456L724,-444L732,-457L724,-469L728,-475L749,-469L759,-463L785,-440L790,-450L783,-461L783,-465L774,-467L776,-477L772,-494L772,-501L786,-521L790,-543L796,-548L815,-541L816,-528L809,-509L814,-502L816,-487L815,-458L823,-446L819,-433L805,-407L814,-405L816,-411L824,-416L826,-425L833,-434L828,-445L832,-458L824,-459L822,-471L828,-492L818,-510L831,-526L830,-543L833,-543L837,-530L834,-508L842,-504L839,-520L851,-529L866,-530L879,-517L873,-537L872,-563L884,-568L902,-567L917,-571L911,-585L920,-603L928,-603L942,-617L961,-621L964,-630L982,-632L988,-626L1005,-642L1018,-641L1020,-655L1027,-668L1044,-682L1056,-671L1046,-663L1063,-658L1065,-643L1071,-650L1092,-650L1108,-635L1114,-624L1112,-609L1104,-600L1086,-585L1080,-577L1089,-573L1100,-567L1106,-572L1110,-555L1113,-562L1125,-566L1148,-562L1149,-550L1180,-546L1180,-565L1195,-561L1207,-561L1218,-548L1222,-532L1217,-522L1227,-505L1238,-496L1245,-519L1256,-509L1269,-515L1283,-508L1288,-514L1300,-511L1295,-533L1304,-543L1337,-537L1369,-528L1375,-514L1394,-497L1423,-501L1438,-497L1444,-488L1443,-473L1452,-467L1461,-471L1474,-472L1488,-468L1501,-470L1514,-452L1523,-458L1517,-471L1520,-481L1543,-475L1558,-476L1579,-466L1589,-457L1589,-384ZM1589,-497L1581,-495L1580,-502L1589,-512L1589,-497ZM-1006,-512L-1006,-512L-1006,-512L-1005,-513L-999,-513L-988,-506L-989,-503L-997,-498L-1006,-497L-1006,-497L-1006,-512ZM533,-136L534,-138L540,-136L542,-136L543,-134L544,-133L544,-133L547,-130L555,-131L553,-127L546,-125L536,-119L532,-122L533,-126L525,-129L527,-131L534,-135Z" fill="#E0E0E0" stroke="#fff" stroke-width=".4"/><path d="M409,453L413,449L416,451L417,455L420,455L425,457L428,456L435,452L435,422L437,424L441,431L440,436L442,439L447,438L451,435L454,432L456,428L460,426L463,427L466,430L472,430L477,428L477,426L478,422L482,421L485,418L487,413L493,407L504,401L507,402L510,403L513,402L516,403L520,414L522,419L520,428L521,431L517,430L515,430L515,432L513,435L513,438L517,443L521,442L523,438L528,438L526,444L526,451L524,455L519,459L517,460L514,464L512,468L508,475L500,483L495,488L489,492L482,496L478,496L477,498L473,497L469,499L462,497L457,498L454,498L447,501L441,503L436,506L433,506L430,503L427,503L424,499L424,500L423,498L423,493L421,487L423,485L423,479L418,471L415,464L415,464ZM500,456L497,454L494,455L490,459L486,464L492,470L494,470L495,467L499,466L501,463L503,459Z" fill="#E0E0E0" stroke="#fff" stroke-width=".4"/><path d="M500,456L503,459L501,463L499,466L495,467L494,470L492,470L486,464L490,459L494,455L497,454Z" fill="#E0E0E0" stroke="#fff" stroke-width=".4"/><path d="M-124,467L-119,466L-112,472L-109,472L-102,477L-96,482L-92,488L-95,492L-93,497L-96,502L-104,507L-110,506L-114,506L-120,503L-125,503L-130,498L-129,493L-128,491L-128,482L-126,473Z" fill="#E0E0E0" stroke="#fff" stroke-width=".4"/><path d="M-93,497L-95,492L-92,488L-96,482L-102,477L-109,472L-112,472L-119,466L-124,467L-114,455L-106,448L-101,444L-95,440L-95,433L-99,429L-102,430L-101,426L-100,421L-100,417L-102,415L-105,416L-108,416L-109,413L-109,406L-111,403L-116,401L-119,403L-126,401L-126,391L-128,387L-126,385L-126,381L-124,377L-123,371L-125,367L-129,365L-129,362L-128,357L-142,357L-145,348L-143,348L-143,345L-144,343L-145,338L-149,336L-153,336L-156,334L-161,333L-164,330L-172,329L-180,322L-179,317L-180,314L-179,309L-189,310L-193,313L-199,316L-201,318L-204,318L-210,318L-214,319L-217,318L-217,307L-222,311L-229,311L-232,307L-236,307L-235,303L-239,299L-242,292L-240,291L-240,288L-236,286L-236,282L-234,280L-234,276L-226,271L-220,270L-219,269L-212,269L-209,249L-209,246L-210,242L-213,239L-213,234L-209,233L-208,234L-207,231L-212,230L-212,226L-198,226L-195,223L-193,226L-192,230L-191,229L-187,233L-181,232L-180,230L-174,229L-171,227L-170,224L-165,222L-166,221L-172,220L-173,216L-172,211L-176,209L-174,208L-169,209L-163,211L-161,209L-156,208L-148,205L-145,203L-146,201L-143,200L-141,202L-142,205L-139,206L-138,210L-140,212L-141,218L-139,222L-138,225L-134,229L-130,229L-130,228L-127,227L-124,226L-122,224L-118,225L-116,224L-112,225L-111,224L-113,222L-112,220L-109,221L-106,220L-102,221L-98,223L-96,221L-95,221L-94,223L-90,223L-87,220L-85,215L-81,208L-78,208L-77,212L-73,224L-69,226L-69,231L-74,236L-72,239L-59,240L-59,247L-53,242L-44,245L-32,249L-29,254L-30,257L-21,255L-7,259L3,259L14,265L23,273L29,275L35,275L38,278L40,287L41,291L38,303L35,308L24,318L20,326L15,333L13,333L11,338L11,352L9,364L8,369L6,372L5,382L-2,392L-4,400L-9,404L-11,408L-19,408L-30,411L-35,415L-43,417L-52,423L-58,431L-59,437L-58,442L-59,450L-61,454L-66,459L-74,473L-80,480L-85,484L-88,492Z" fill="#E0E0E0" stroke="#fff" stroke-width=".4"/><path d="M-210,318L-204,318L-201,318L-199,316L-193,313L-189,310L-179,309L-180,314L-179,317L-180,322L-172,329L-164,330L-161,333L-156,334L-153,336L-149,336L-145,338L-144,343L-143,345L-143,348L-145,348L-142,357L-128,357L-129,362L-129,365L-125,367L-123,371L-124,377L-126,381L-126,385L-128,387L-128,384L-135,380L-141,380L-154,382L-157,389L-157,393L-160,403L-162,401L-170,401L-173,407L-177,401L-186,399L-192,406L-197,408L-200,397L-204,388L-202,381L-206,377L-207,372L-210,367L-206,359L-209,352L-207,350L-208,347L-205,343L-205,337L-205,332L-203,329Z" fill="#E0E0E0" stroke="#fff" stroke-width=".4"/><path d="M-191,229L-192,230L-193,226L-195,223L-198,226L-212,226L-212,230L-207,231L-208,234L-209,233L-213,234L-213,239L-210,242L-209,246L-209,249L-212,269L-216,265L-218,265L-213,258L-219,254L-223,255L-226,254L-230,256L-235,255L-239,247L-243,245L-245,242L-250,239L-252,239L-255,237L-258,235L-260,236L-267,235L-268,232L-270,232L-277,228L-278,226L-275,225L-276,222L-274,219L-270,219L-267,214L-264,210L-267,209L-266,204L-267,198L-266,196L-267,190L-270,186L-269,182L-267,183L-265,181L-267,176L-266,175L-262,176L-257,170L-254,170L-254,167L-253,161L-248,158L-244,158L-243,156L-238,157L-232,153L-229,151L-226,148L-223,148L-221,150L-223,153L-227,154L-229,158L-232,160L-234,162L-235,168L-237,172L-233,172L-232,176L-231,177L-230,180L-231,183L-231,184L-229,185L-227,188L-218,187L-214,188L-209,194L-206,193L-201,194L-196,193L-194,194L-195,198L-197,200L-197,206L-196,210L-194,213L-194,214L-197,218L-195,219L-193,222Z" fill="#E0E0E0" stroke="#fff" stroke-width=".4"/><path d="M-146,201L-145,203L-148,205L-156,208L-161,209L-163,211L-169,209L-174,208L-176,209L-172,211L-173,216L-172,220L-166,221L-165,222L-170,224L-171,227L-174,229L-180,230L-181,232L-187,233L-191,229L-193,222L-195,219L-197,218L-194,214L-194,213L-196,210L-197,206L-197,200L-195,198L-194,194L-196,193L-201,194L-206,193L-209,194L-214,188L-218,187L-227,188L-229,185L-231,184L-231,183L-230,180L-231,177L-232,176L-233,172L-237,172L-235,168L-234,162L-232,160L-229,158L-227,154L-223,153L-223,154L-227,155L-225,159L-225,162L-228,167L-225,172L-222,172L-221,167L-223,164L-223,159L-214,156L-215,152L-213,150L-210,155L-205,155L-200,159L-200,162L-194,162L-186,161L-182,164L-176,165L-172,163L-172,161L-163,161L-155,160L-161,163L-158,166L-152,167L-147,170L-146,176L-142,176L-139,178L-145,182L-146,184L-143,187L-145,189L-149,190L-149,193L-151,195Z" fill="#E0E0E0" stroke="#fff" stroke-width=".4"/><path d="M-116,224L-118,225L-122,224L-124,226L-127,227L-130,228L-130,229L-134,229L-138,225L-139,222L-141,218L-140,212L-138,210L-139,206L-142,205L-141,202L-143,200L-146,201L-151,195L-149,193L-149,190L-145,189L-143,187L-146,184L-145,182L-139,178L-134,180L-130,185L-130,189L-127,189L-123,192L-120,195L-122,201L-126,203L-126,205L-127,209L-124,214L-121,214L-120,218Z" fill="#E0E0E0" stroke="#fff" stroke-width=".4"/><path d="M-102,221L-106,220L-109,221L-112,220L-113,222L-111,224L-112,225L-116,224L-120,218L-121,214L-124,214L-127,209L-126,205L-126,203L-122,201L-120,195L-112,196L-111,195L-105,195L-97,197L-101,203L-101,208L-98,212L-99,215L-100,218Z" fill="#E0E0E0" stroke="#fff" stroke-width=".4"/><path d="M-81,208L-85,215L-87,220L-90,223L-94,223L-95,221L-96,221L-98,223L-102,221L-100,218L-99,215L-98,212L-101,208L-101,203L-97,197L-95,197L-90,199L-82,205ZM336,-173L340,-170L350,-168L346,-161L345,-153L343,-151L340,-152L340,-150L335,-144L335,-139L338,-141L341,-136L341,-133L343,-129L340,-126L342,-118L346,-117L345,-113L339,-107L324,-110L314,-107L313,-101L305,-99L297,-104L294,-102L281,-106L278,-110L282,-116L283,-136L275,-147L270,-153L259,-157L258,-165L268,-167L280,-164L278,-177L284,-172L301,-181L303,-190L310,-192L311,-188L314,-188L317,-184L322,-178L326,-179L332,-174L334,-173ZM355,-102L359,-106L360,-98L358,-90L355,-92L353,-99Z" fill="#E0E0E0" stroke="#fff" stroke-width=".4"/><path d="M-186,102L-183,103L-181,104L-183,106L-189,106L-193,107L-193,103L-192,102Z" fill="#E0E0E0" stroke="#fff" stroke-width=".4"/><path d="M516,403L513,402L510,403L507,402L504,401L499,398L493,397L491,392L491,389L488,388L480,380L478,375L476,374L474,368L482,369L484,370L486,370L490,365L497,358L499,358L500,355L504,352L510,351L510,354L516,354L520,355L521,357L525,358L528,360L528,370L527,375L527,381L528,383L527,388L526,388L524,394Z" fill="#E0E0E0" stroke="#fff" stroke-width=".4"/><path d="M504,401L493,407L487,413L485,418L482,421L478,422L477,426L477,428L472,430L466,430L463,427L460,426L456,428L454,432L451,435L447,438L442,439L440,436L441,431L437,424L435,422L435,400L442,399L442,372L448,372L459,369L461,372L466,369L468,369L472,367L474,368L476,374L478,375L480,380L488,388L491,389L491,392L493,397L499,398Z" fill="#E0E0E0" stroke="#fff" stroke-width=".4"/><path d="M435,422L435,452L428,456L425,457L420,455L417,455L416,451L413,449L409,453L404,447L401,441L400,433L398,427L395,415L395,406L394,402L391,398L388,392L384,383L382,378L377,371L376,365L380,363L384,362L389,362L393,366L394,365L423,365L428,368L446,370L459,366L465,365L469,365L472,367L472,367L468,369L466,369L461,372L459,369L448,372L442,372L442,399L435,400Z" fill="#E0E0E0" stroke="#fff" stroke-width=".4"/><path d="M171,139L168,133L164,131L168,129L171,124L173,120L175,118L179,118L182,117L186,117L190,119L195,121L199,126L204,132L204,136L206,140L208,143L209,145L209,148L207,148L204,148L203,148L201,149L196,147L193,147L179,146L178,147L175,147L171,148L170,142L177,143L178,142L180,142L182,140L185,141L189,141L192,140L190,138L188,139L186,139L183,137L181,137L179,139Z" fill="#E0E0E0" stroke="#fff" stroke-width=".4"/><path d="M209,148L209,145L208,143L206,140L204,136L204,132L206,130L207,126L210,126L215,128L219,126L222,127L223,125L252,125L253,120L252,119L248,86L245,52L256,52L280,69L305,86L306,90L311,92L314,93L314,98L322,97L322,115L318,120L318,124L311,126L301,126L299,129L294,129L290,129L288,128L284,129L277,132L276,134L270,138L269,140L266,141L263,140L261,142L260,147L254,153L254,156L252,159L253,163L250,164L248,165L247,162L245,163L243,162L242,165L237,165L235,163L234,164L231,162L232,160L231,159L229,160L230,157L231,155L228,152L227,150L226,149L224,148L223,150L220,151L218,152L215,152L213,150L212,149L210,150L209,150Z" fill="#E0E0E0" stroke="#fff" stroke-width=".4"/><path d="M169,83L170,81L198,81L197,69L199,65L205,65L205,44L229,45L229,33L256,52L245,52L248,86L252,119L253,120L252,125L223,125L222,127L219,126L215,128L210,126L207,126L206,130L204,132L199,126L195,121L190,119L186,117L182,117L179,118L175,118L173,120L172,116L174,112L175,105L174,98L173,94L174,90L172,87Z" fill="#E0E0E0" stroke="#fff" stroke-width=".4"/><path d="M311,193L305,194L303,189L304,172L302,171L302,167L299,164L297,162L298,158L300,158L302,154L305,154L307,151L309,149L312,149L318,153L317,156L319,160L317,163L318,165L315,170L312,172L311,177L311,181Z" fill="#E0E0E0" stroke="#fff" stroke-width=".4"/><path d="M399,69L400,81L403,83L403,85L406,88L405,91L402,107L401,117L392,124L389,133L392,136L392,141L397,141L396,145L394,145L394,147L392,148L388,139L386,139L380,143L375,141L371,141L369,142L364,142L360,145L357,145L348,141L344,143L341,143L338,140L331,137L323,138L321,140L320,144L318,147L318,153L312,149L309,149L307,151L307,146L299,145L299,141L295,136L294,133L294,129L299,129L301,126L311,126L318,124L318,120L322,115L322,97L332,94L353,79L378,64L389,67L393,72Z" fill="#E0E0E0" stroke="#fff" stroke-width=".4"/><path d="M311,193L311,181L311,177L312,172L315,170L318,165L317,163L319,160L317,156L318,153L318,147L320,144L321,140L323,138L331,137L338,140L341,143L344,143L348,141L357,145L360,145L364,142L369,142L371,141L375,141L380,143L386,139L388,139L392,148L394,147L397,150L396,152L395,154L389,160L387,164L386,168L385,170L383,175L380,178L378,182L377,185L376,188L371,190L367,187L364,187L360,191L358,192L355,199L353,204L345,206L343,206L340,208L334,207L330,203L328,198L323,193L317,193Z" fill="#E0E0E0" stroke="#fff" stroke-width=".4"/><path d="M396,145L399,149L399,154L399,159L403,166L399,166L397,166L394,165L392,169L396,173L400,174L401,177L403,182L402,184L398,192L396,193L396,199L396,202L396,204L399,208L400,210L403,214L406,216L406,220L407,222L406,226L401,224L395,222L386,222L385,221L381,222L376,221L373,222L361,222L362,216L359,211L356,210L355,207L353,206L353,204L355,199L358,192L360,191L364,187L367,187L371,190L376,188L377,185L378,182L380,178L383,175L385,170L386,168L387,164L389,160L395,154L396,152L397,150L394,147L394,145Z" fill="#E0E0E0" stroke="#fff" stroke-width=".4"/><path d="M298,158L297,162L299,164L302,167L302,171L304,172L303,189L305,194L299,195L298,193L296,188L295,185L297,178L295,175L294,170L294,164L291,160L292,158Z" fill="#E0E0E0" stroke="#fff" stroke-width=".4"/><path d="M292,158L291,160L294,164L294,170L295,175L297,178L295,185L296,188L298,193L299,195L288,200L284,202L277,204L271,202L271,199L268,193L270,185L273,179L271,168L270,163L270,159L283,158L286,159L288,158Z" fill="#E0E0E0" stroke="#fff" stroke-width=".4"/><path d="M234,164L235,163L237,165L242,165L243,162L245,163L247,162L248,165L250,164L253,163L256,165L257,167L260,168L263,167L266,166L271,168L273,179L270,185L268,193L271,199L271,202L268,202L263,201L258,201L249,202L244,204L237,207L236,207L236,201L237,200L237,197L234,194L232,193L230,191L231,188L230,185L231,183L232,183L232,179L232,178L232,177L235,176L233,170L232,167L232,165Z" fill="#E0E0E0" stroke="#fff" stroke-width=".4"/><path d="M193,147L196,147L201,149L203,148L204,148L207,148L209,148L209,150L210,150L212,149L213,150L215,152L218,152L220,151L223,150L224,148L226,149L227,150L228,152L231,155L230,157L229,160L231,159L232,160L231,162L234,164L232,165L232,167L233,170L235,176L232,177L232,178L232,179L232,183L231,183L229,182L227,185L225,185L224,184L224,181L221,176L219,177L218,177L216,178L216,175L215,173L215,171L213,168L211,165L206,165L204,167L202,167L201,168L200,170L196,174L193,169L190,166L188,166L186,164L186,161L185,159L182,158L186,154L188,155L190,153L191,153L192,152L192,150L193,149Z" fill="#E0E0E0" stroke="#fff" stroke-width=".4"/><path d="M171,148L175,147L178,147L179,146L193,147L193,149L192,150L192,152L191,153L190,153L188,155L186,154L182,158L179,155L176,154L174,152L174,151L172,150Z" fill="#E0E0E0" stroke="#fff" stroke-width=".4"/><path d="M231,183L230,185L231,188L230,191L232,193L234,194L237,197L237,200L236,201L236,207L234,207L227,203L220,198L214,194L209,189L211,187L211,185L214,181L218,177L219,177L221,176L224,181L224,184L225,185L227,185L229,182Z" fill="#E0E0E0" stroke="#fff" stroke-width=".4"/><path d="M196,174L200,170L201,168L202,167L204,167L206,165L211,165L213,168L215,171L215,173L216,175L216,178L218,177L214,181L211,185L211,187L209,189L207,189L202,186L198,182L197,179Z" fill="#E0E0E0" stroke="#fff" stroke-width=".4"/><path d="M253,163L252,159L254,156L254,153L260,147L261,142L263,140L266,141L269,140L270,138L276,134L277,132L284,129L288,128L290,129L294,129L294,133L295,136L299,141L299,145L307,146L307,151L305,154L302,154L300,158L298,158L292,158L288,158L286,159L283,158L270,159L270,163L271,168L266,166L263,167L260,168L257,167L256,165Z" fill="#E0E0E0" stroke="#fff" stroke-width=".4"/><path d="M489,200L486,201L482,201L476,200L474,201L473,203L470,203L467,201L459,205L456,204L455,205L453,209L448,208L442,207L438,204L432,202L428,204L425,208L425,213L420,212L415,211L411,215L407,222L406,220L406,216L403,214L400,210L399,208L396,204L396,202L396,199L396,193L398,192L402,184L408,184L409,182L410,182L412,184L421,181L424,178L428,176L427,173L429,172L436,173L443,169L448,161L452,159L456,157L457,160L461,165L461,168L460,171L461,173L463,175L469,179L473,182L473,184L477,188L480,191L482,195L488,198Z" fill="#E0E0E0" stroke="#fff" stroke-width=".4"/><path d="M425,213L424,217L422,221L421,226L420,232L420,236L419,239L419,241L418,243L413,247L410,251L407,258L407,264L405,266L401,269L397,274L394,273L393,271L390,271L387,273L385,273L382,270L380,271L377,274L371,267L377,263L374,258L377,256L382,255L382,252L386,256L392,256L395,253L396,248L395,242L391,238L394,229L393,228L387,229L385,225L386,222L395,222L401,224L406,226L407,222L411,215L415,211L420,212Z" fill="#E0E0E0" stroke="#fff" stroke-width=".4"/><path d="M373,222L376,221L381,222L385,221L386,222L385,225L387,229L393,228L394,229L391,238L395,242L396,248L395,253L392,256L386,256L382,252L382,255L377,256L374,258L377,263L371,267L364,260L359,254L355,246L355,244L357,241L358,236L360,231L362,230L373,230Z" fill="#E0E0E0" stroke="#fff" stroke-width=".4"/><path d="M361,222L373,222L373,230L362,230L360,231L359,230Z" fill="#E0E0E0" stroke="#fff" stroke-width=".4"/><path d="M513,298L516,300L519,302L524,303L528,305L531,308L533,314L532,316L530,322L532,328L529,331L527,338L531,340L509,346L510,351L504,352L500,355L499,358L497,358L490,365L486,370L484,370L482,369L474,368L472,367L472,367L469,365L465,365L459,366L454,362L449,356L450,332L465,332L464,329L465,327L464,323L465,320L464,317L466,318L467,320L470,320L475,320L477,324L483,325L487,322L489,326L494,327L497,330L500,334L506,335L505,327L503,328L498,325L496,324L497,316L498,308L497,304L499,300L501,299L510,298Z" fill="#E0E0E0" stroke="#fff" stroke-width=".4"/><path d="M528,305L535,306L536,308L539,312L541,322L539,327L541,337L543,337L546,339L549,345L549,354L546,356L544,361L539,356L539,351L540,348L540,345L537,343L535,343L531,340L527,338L529,331L532,328L530,322L532,316L533,314L531,308Z" fill="#E0E0E0" stroke="#fff" stroke-width=".4"/><path d="M541,322L546,321L555,323L557,322L562,322L564,320L569,320L576,317L582,313L583,316L583,323L584,330L584,342L585,345L583,351L580,356L576,360L569,363L561,367L553,375L550,376L545,382L542,384L542,389L545,395L546,399L547,402L548,401L548,409L546,413L548,414L547,417L544,420L538,423L529,427L526,430L527,433L529,434L528,438L523,438L522,435L521,431L520,428L522,419L520,414L516,403L524,394L526,388L527,388L528,383L527,381L527,375L528,370L528,360L525,358L521,357L520,355L516,354L510,354L510,351L509,346L531,340L535,343L537,343L540,345L540,348L539,351L539,356L544,361L546,356L549,354L549,345L546,339L543,337L541,337L539,327Z" fill="#E0E0E0" stroke="#fff" stroke-width=".4"/><path d="M523,438L521,442L517,443L513,438L513,435L515,432L515,430L517,430L521,431L522,435Z" fill="#E0E0E0" stroke="#fff" stroke-width=".4"/><path d="M385,273L383,274L381,276L381,279L379,280L377,274L380,271L382,270ZM380,282L383,281L385,281L388,280L409,281L411,286L413,290L415,293L417,296L422,296L425,295L429,296L430,294L431,290L436,290L436,288L440,288L439,291L448,291L448,295L450,298L449,303L449,307L452,310L451,318L453,318L456,318L461,317L464,317L465,320L464,323L465,327L464,329L465,332L450,332L449,356L454,362L459,366L446,370L428,368L423,365L394,365L393,366L389,362L384,362L380,363L376,365L375,360L376,353L379,347L379,343L382,337L383,334L387,329L390,326L391,320L390,316L388,313L386,309L384,304L385,303L387,300L385,293L383,288L380,284Z" fill="#E0E0E0" stroke="#fff" stroke-width=".4"/><path d="M511,255L512,258L513,260L513,262L511,264L509,268L506,270L503,271L503,262L501,259L505,259L507,255Z" fill="#E0E0E0" stroke="#fff" stroke-width=".4"/><path d="M549,-12L548,-9L545,-10L544,-4L545,-4L544,-2L543,-0L547,-1L547,2L543,15L543,13L539,1L541,-2L540,-2L542,-6L543,-13L545,-15L545,-15L547,-15L548,-16L550,-17L550,-13L549,-12Z" fill="#E0E0E0" stroke="#fff" stroke-width=".4"/><path d="M550,-17L548,-16L547,-15L545,-15L547,-22L551,-28L551,-28L554,-28L555,-25L551,-21Z" fill="#E0E0E0" stroke="#fff" stroke-width=".4"/><path d="M649,329L651,332L652,337L654,346L655,349L655,353L653,355L651,351L650,353L651,358L650,362L648,363L648,370L645,379L641,389L637,404L634,415L631,424L625,426L619,429L615,427L609,424L607,420L607,413L604,407L603,401L605,396L608,394L608,392L611,386L612,381L610,377L609,373L608,366L611,361L612,357L615,356L620,355L622,353L625,353L629,349L635,344L638,341L637,338L640,338L644,333L644,329L646,326Z" fill="#E0E0E0" stroke="#fff" stroke-width=".4"/><path d="M547,-1L543,-0L544,-2L545,-4L544,-4L545,-10L548,-9L548,-4Z" fill="#E0E0E0" stroke="#fff" stroke-width=".4"/><path d="M171,139L179,139L181,137L183,137L186,139L188,139L190,138L192,140L189,141L185,141L182,140L180,142L178,142L177,143L170,142Z" fill="#E0E0E0" stroke="#fff" stroke-width=".4"/><path d="M360,9L357,-6L352,-10L352,-12L346,-17L346,-24L350,-29L352,-36L351,-44L352,-49L360,-53L365,-51L365,-47L371,-50L372,-48L368,-44L368,-40L370,-38L369,-30L365,-26L366,-21L370,-21L372,-17L374,-15L374,-9L370,-6L368,-4L363,-0L364,3L363,7Z" fill="#E0E0E0" stroke="#fff" stroke-width=".4"/><path d="M229,33L229,31L229,31L229,21L241,15L248,13L254,11L256,7L265,4L265,-3L269,-3L273,-6L282,-8L283,-11L282,-13L279,-22L279,-27L276,-33L283,-38L291,-39L295,-43L302,-46L314,-47L326,-48L330,-47L337,-50L344,-50L347,-48L352,-49L351,-44L352,-36L350,-29L346,-24L346,-17L352,-12L352,-10L357,-6L360,9L362,16L363,20L361,27L362,30L361,35L362,40L359,43L363,49L363,52L366,57L369,55L375,59L378,64L353,79L332,94L322,97L314,98L314,93L311,92L306,90L305,86L280,69L256,52Z" fill="#E0E0E0" stroke="#fff" stroke-width=".4"/><path d="M548,-9L549,-12L557,-8L571,-17L574,-7L573,-6L558,-1L565,7L563,8L562,11L556,12L555,15L552,18L543,17L543,15L547,2L547,-1L548,-4Z" fill="#E0E0E0" stroke="#fff" stroke-width=".4"/><path d="M663,58L665,57L665,60L671,58L676,59L681,59L686,53L691,48L696,43L697,46L698,52L694,53L694,58L695,59L692,60L692,64L690,67L689,70L688,72L666,68L664,60Z" fill="#E0E0E0" stroke="#fff" stroke-width=".4"/><path d="M658,54L657,48L659,44L661,43L663,45L664,50L662,55L660,55Z" fill="#E0E0E0" stroke="#fff" stroke-width=".4"/><path d="M637,11L639,15L638,17L641,23L635,23L634,19L627,19L632,11Z" fill="#E0E0E0" stroke="#fff" stroke-width=".4"/><path d="M574,-7L571,-17L587,-26L590,-37L589,-44L593,-46L597,-51L600,-53L608,-52L611,-49L614,-51L619,-40L624,-38L624,-32L621,-29L619,-23L624,-14L633,-10L636,-3L635,3L638,3L638,7L642,12L637,11L632,11L627,19L614,18L593,1L583,-5Z" fill="#E0E0E0" stroke="#fff" stroke-width=".4"/><path d="M689,70L690,67L692,64L692,60L695,59L694,58L694,53L698,52L701,58L705,61L711,62L715,63L718,68L720,70L723,71L723,73L720,78L719,80L716,82L713,88L710,87L708,89L707,93L708,98L707,99L704,99L700,102L699,105L697,107L693,107L690,109L690,112L686,114L682,113L678,116L674,116L672,111L666,99L688,91L693,75ZM697,46L696,43L698,41L699,41L698,45Z" fill="#E0E0E0" stroke="#fff" stroke-width=".4"/><path d="M1050,134L1043,133L1034,134L1029,141L1031,150L1025,146L1018,146L1019,141L1013,141L1012,149L1009,159L1006,166L1007,171L1011,171L1014,178L1016,184L1020,189L1024,189L1028,193L1025,196L1021,197L1020,193L1014,190L1013,191L1010,189L1009,185L1005,181L1002,177L1000,182L999,178L1000,173L1002,166L1005,159L1009,152L1007,145L1007,142L1006,137L1001,132L999,128L1002,126L1004,120L1001,115L997,109L993,103L996,101L1000,93L1005,93L1009,89L1013,88L1016,90L1017,95L1022,95L1020,103L1020,110L1028,105L1030,107L1034,106L1035,104L1041,104L1046,110L1047,118L1053,124L1052,131Z" fill="#E0E0E0" stroke="#fff" stroke-width=".4"/><path d="M1013,88L1009,89L1005,93L1000,93L996,101L993,103L997,109L1001,115L1004,120L1002,126L999,128L1001,132L1006,137L1007,142L1007,145L1009,152L1005,159L1002,166L1001,161L1003,155L1001,151L1002,143L999,139L996,130L995,120L992,114L987,118L979,123L975,123L970,121L973,112L971,105L966,96L967,93L962,92L957,86L957,80L959,81L960,75L963,73L962,70L964,67L964,59L970,61L973,54L973,51L977,44L977,39L987,34L992,35L991,30L994,29L993,26L997,25L1000,30L1003,32L1003,38L1003,45L996,51L995,61L1003,59L1004,67L1009,68L1007,75L1012,77L1015,79L1021,77L1021,80L1015,85Z" fill="#E0E0E0" stroke="#fff" stroke-width=".4"/><path d="M924,-172L932,-173L945,-183L956,-188L963,-185L970,-185L975,-179L982,-179L993,-176L1000,-184L997,-191L1004,-203L1012,-198L1019,-197L1027,-194L1029,-185L1039,-180L1046,-182L1055,-184L1062,-182L1069,-177L1073,-171L1080,-171L1089,-170L1096,-172L1105,-174L1116,-182L1120,-181L1124,-177L1133,-178L1129,-170L1124,-159L1126,-154L1130,-156L1137,-154L1143,-158L1148,-155L1155,-147L1154,-143L1148,-145L1138,-143L1133,-140L1128,-133L1117,-129L1109,-124L1102,-126L1098,-127L1094,-120L1096,-117L1098,-113L1093,-110L1087,-105L1079,-101L1068,-101L1057,-97L1048,-92L1045,-95L1036,-95L1026,-101L1018,-103L1009,-101L994,-103L986,-103L982,-109L978,-118L974,-119L965,-126L956,-127L947,-129L944,-133L947,-145L942,-154L932,-158L926,-164Z" fill="#E0E0E0" stroke="#fff" stroke-width=".4"/><path d="M993,26L994,29L991,30L992,35L987,34L977,39L977,44L973,51L973,54L970,61L964,59L964,67L962,70L963,73L960,75L956,63L954,63L953,68L949,64L951,59L954,59L957,52L953,51L947,51L940,50L939,44L936,44L930,40L927,46L933,50L928,53L926,56L931,58L930,63L932,69L933,75L932,78L927,78L918,79L919,85L915,90L905,95L897,104L891,109L884,114L884,117L880,119L874,122L871,122L868,128L870,137L870,144L867,151L867,163L863,163L860,169L862,171L856,173L853,178L850,180L844,174L840,163L838,156L835,153L831,145L829,136L828,132L822,121L819,107L816,97L816,88L815,80L805,85L799,84L790,75L794,72L791,69L783,62L788,57L804,57L802,50L798,46L797,40L793,36L801,28L809,28L816,20L821,11L828,3L828,-3L834,-8L828,-12L826,-18L823,-26L827,-29L838,-27L846,-28L853,-36L860,-26L860,-19L862,-14L862,-10L857,-11L859,-1L866,4L876,10L872,13L869,21L876,24L883,28L892,33L902,34L906,38L912,39L920,41L926,41L927,37L926,32L927,29L931,27L932,33L932,35L938,38L943,37L949,37L955,37L955,32L952,30L958,29L965,22L973,17L979,19L984,16L988,21L985,24Z" fill="#E0E0E0" stroke="#fff" stroke-width=".4"/><path d="M960,75L959,81L957,80L957,86L955,82L955,78L953,74L950,70L944,69L944,72L942,77L939,75L938,77L936,76L933,75L932,69L930,63L931,58L926,56L928,53L933,50L927,46L930,40L936,44L939,44L940,50L947,51L953,51L957,52L954,59L951,59L949,64L953,68L954,63L956,63Z" fill="#E0E0E0" stroke="#fff" stroke-width=".4"/><path d="M952,30L955,32L955,37L949,37L943,37L938,38L932,35L932,33L936,27L940,25L946,27L949,27Z" fill="#E0E0E0" stroke="#fff" stroke-width=".4"/><path d="M927,29L926,32L927,37L926,41L920,41L912,39L906,38L902,34L892,33L883,28L876,24L869,21L872,13L876,10L879,8L885,10L892,16L896,17L899,21L904,22L910,26L918,28Z" fill="#E0E0E0" stroke="#fff" stroke-width=".4"/><path d="M853,-36L846,-28L838,-27L827,-29L823,-26L826,-18L828,-12L834,-8L828,-3L828,3L821,11L816,20L809,28L801,28L793,36L797,40L798,46L802,50L804,57L788,57L783,62L778,60L776,55L770,49L757,50L745,50L735,51L738,42L748,38L747,34L744,33L744,26L737,22L734,17L730,13L742,17L750,16L754,17L755,15L760,16L770,12L770,5L774,0L779,0L780,-2L786,-3L788,-2L791,-5L791,-10L794,-15L798,-17L796,-23L802,-23L804,-26L804,-29L808,-33L807,-37L805,-41L809,-45L817,-47L825,-48L829,-50L833,-51L839,-46L841,-39Z" fill="#E0E0E0" stroke="#fff" stroke-width=".4"/><path d="M771,-53L775,-53L780,-51L783,-50L788,-52L790,-51L793,-55L797,-55L798,-56L799,-60L802,-63L806,-61L805,-58L807,-58L807,-50L809,-47L812,-49L815,-50L820,-54L825,-53L832,-53L833,-51L829,-50L825,-48L817,-47L809,-45L805,-41L807,-37L808,-33L804,-29L804,-26L802,-23L796,-23L798,-17L794,-15L791,-10L791,-5L788,-2L786,-3L780,-2L779,0L774,0L770,5L770,12L760,16L755,15L754,17L750,16L742,17L730,13L737,5L736,-0L731,-2L730,-7L728,-14L731,-19L728,-20L730,-26L733,-37L740,-34L746,-35L747,-39L753,-40L757,-43L758,-50L764,-52L765,-55L769,-53Z" fill="#E0E0E0" stroke="#fff" stroke-width=".4"/><path d="M780,-51L784,-60L783,-67L778,-69L780,-73L786,-73L789,-78L791,-84L801,-86L799,-82L800,-79L803,-79L801,-76L793,-78L792,-73L800,-73L809,-70L823,-72L824,-63L827,-64L831,-62L831,-58L832,-53L825,-53L820,-54L815,-50L812,-49L809,-47L807,-50L807,-58L805,-58L806,-61L802,-63L799,-60L798,-56L797,-55L793,-55L790,-51L788,-52L783,-50Z" fill="#E0E0E0" stroke="#fff" stroke-width=".4"/><path d="M803,-99L805,-103L809,-104L821,-101L822,-107L826,-109L837,-105L839,-106L851,-105L862,-104L866,-101L870,-99L869,-97L858,-92L855,-88L846,-87L843,-81L836,-82L831,-80L824,-76L825,-74L823,-72L809,-70L800,-73L792,-73L793,-78L801,-76L803,-79L809,-78L818,-85L810,-90L804,-88L799,-91L805,-98Z" fill="#E0E0E0" stroke="#fff" stroke-width=".4"/><path d="M670,-94L673,-97L681,-99L686,-97L691,-89L695,-89L703,-90L702,-94L708,-98L714,-103L724,-98L725,-91L727,-89L735,-89L738,-87L741,-77L749,-71L754,-67L762,-62L771,-58L771,-53L769,-53L765,-55L764,-52L758,-50L757,-43L753,-40L747,-39L746,-35L740,-34L733,-37L732,-45L727,-45L718,-53L713,-54L705,-59L700,-60L696,-58L692,-58L687,-53L680,-51L679,-58L680,-67L674,-70L676,-77L671,-77L673,-85L680,-83L686,-86L681,-92L679,-97L673,-95L672,-88Z" fill="#E0E0E0" stroke="#fff" stroke-width=".4"/><path d="M642,12L638,7L638,3L635,3L636,-3L633,-10L624,-14L619,-23L621,-29L624,-32L624,-38L619,-40L614,-51L610,-58L612,-61L609,-72L614,-74L616,-71L619,-66L624,-65L627,-66L635,-72L638,-73L640,-70L638,-66L642,-61L644,-61L646,-55L653,-53L658,-48L668,-47L680,-49L680,-51L687,-53L692,-58L696,-58L700,-60L705,-59L713,-54L718,-53L727,-45L732,-45L733,-37L730,-26L728,-20L731,-19L728,-14L730,-7L731,-2L736,-0L737,5L730,13L734,17L737,22L744,26L744,33L747,34L748,38L738,42L735,51L721,49L713,47L705,46L702,36L699,35L693,36L686,40L677,37L670,31L663,29L658,21L653,10L649,11L644,9Z" fill="#E0E0E0" stroke="#fff" stroke-width=".4"/><path d="M549,-12L549,-12L550,-13L550,-17L551,-21L555,-25L554,-28L551,-28L550,-35L552,-39L554,-41L556,-43L556,-48L559,-46L567,-48L570,-47L576,-47L585,-50L589,-50L597,-51L593,-46L589,-44L590,-37L587,-26L571,-17L557,-8Z" fill="#E0E0E0" stroke="#fff" stroke-width=".4"/><path d="M627,-66L624,-65L621,-71L621,-72L618,-72L616,-75L614,-74L612,-77L606,-79L607,-84L606,-87L616,-89L617,-86L620,-85L618,-82L622,-79L620,-76L623,-73L627,-72Z" fill="#E0E0E0" stroke="#fff" stroke-width=".4"/><path d="M495,-254L502,-250L503,-247L507,-249L514,-246L515,-240L513,-236L518,-228L521,-226L520,-224L525,-222L527,-218L524,-216L519,-216L517,-215L519,-211L521,-203L514,-203L512,-200L512,-194L509,-195L502,-195L501,-198L498,-196L495,-197L489,-197L481,-200L474,-201L469,-201L465,-198L461,-197L461,-202L459,-208L463,-210L463,-215L461,-220L461,-225L468,-225L476,-230L477,-237L483,-241L482,-246L487,-249Z" fill="#E0E0E0" stroke="#fff" stroke-width=".4"/><path d="M521,-203L523,-203L525,-206L527,-205L535,-206L539,-200L538,-197L538,-194L544,-193L547,-188L546,-186L556,-182L561,-184L566,-178L570,-178L580,-175L580,-172L577,-166L579,-160L578,-156L571,-155L567,-152L567,-148L561,-147L556,-143L550,-143L544,-139L544,-133L543,-134L542,-136L540,-136L534,-138L533,-136L532,-137L520,-140L520,-144L513,-142L510,-137L505,-129L502,-131L498,-129L495,-131L497,-132L498,-136L500,-139L500,-141L501,-142L502,-140L506,-140L508,-141L507,-142L507,-143L505,-146L504,-150L501,-152L501,-156L498,-159L495,-159L490,-162L485,-161L483,-160L480,-160L479,-157L473,-156L471,-155L467,-157L463,-157L458,-158L455,-156L455,-159L451,-162L452,-166L454,-169L456,-169L454,-173L460,-183L464,-184L465,-187L461,-197L465,-198L469,-201L474,-201L481,-200L489,-197L495,-197L498,-196L501,-198L502,-195L509,-195L512,-194L512,-200L514,-203Z" fill="#E0E0E0" stroke="#fff" stroke-width=".4"/><path d="M461,-225L461,-220L463,-215L463,-210L459,-208L461,-202L461,-197L465,-187L464,-184L460,-183L454,-173L456,-169L454,-169L447,-173L442,-172L439,-173L434,-171L431,-175L428,-173L427,-174L424,-179L419,-180L418,-183L413,-185L412,-182L408,-184L409,-187L403,-188L400,-192L397,-199L397,-203L396,-210L393,-214L395,-217L393,-223L398,-227L409,-233L419,-237L426,-235L426,-232L433,-231L442,-230L455,-230L459,-229Z" fill="#E0E0E0" stroke="#fff" stroke-width=".4"/><path d="M414,-159L413,-154L409,-154L411,-152L408,-145L407,-143L401,-143L397,-141L391,-141L381,-144L379,-148L372,-146L371,-144L367,-146L363,-146L360,-148L361,-150L361,-152L363,-153L366,-150L368,-153L374,-152L379,-154L382,-154L385,-152L385,-153L384,-160L387,-162L390,-167L395,-163L399,-168L401,-169L407,-165L410,-166L414,-164L413,-162Z" fill="#E0E0E0" stroke="#fff" stroke-width=".4"/><path d="M451,-162L455,-159L455,-156L451,-154L447,-147L443,-139L437,-138L433,-138L427,-135L425,-134L419,-136L413,-140L411,-141L410,-145L408,-145L411,-152L409,-154L413,-154L414,-159L418,-156L420,-155L426,-156L427,-158L430,-159L433,-160L434,-160L437,-161L439,-163L441,-164L449,-161Z" fill="#E0E0E0" stroke="#fff" stroke-width=".4"/><path d="M483,-160L485,-161L490,-162L495,-159L498,-159L501,-156L501,-152L504,-150L505,-146L507,-143L507,-142L508,-141L506,-140L502,-140L501,-142L500,-141L500,-139L498,-136L497,-132L495,-131L494,-136L495,-140L494,-145L490,-151L488,-155L486,-159Z" fill="#E0E0E0" stroke="#fff" stroke-width=".4"/><path d="M495,-131L498,-129L502,-131L505,-129L505,-126L502,-124L499,-125L497,-113L493,-114L488,-118L479,-115L476,-113L465,-113L460,-115L457,-114L455,-118L454,-120L455,-122L453,-123L451,-121L447,-124L446,-128L442,-130L441,-133L437,-138L443,-139L447,-147L451,-154L455,-156L458,-158L463,-157L467,-157L471,-155L473,-156L479,-157L480,-160L483,-160L486,-159L488,-155L490,-151L494,-145L495,-140L494,-136Z" fill="#E0E0E0" stroke="#fff" stroke-width=".4"/><path d="M393,-223L395,-217L393,-214L396,-210L397,-203L397,-199L400,-192L397,-191L395,-192L393,-190L388,-188L385,-185L380,-182L381,-179L382,-174L385,-172L390,-167L387,-162L384,-160L385,-153L385,-152L382,-154L379,-154L374,-152L368,-153L366,-150L363,-153L361,-152L353,-156L351,-153L345,-153L346,-161L350,-168L340,-170L336,-173L337,-178L335,-181L336,-188L335,-201L339,-201L341,-205L343,-216L341,-220L343,-222L349,-223L350,-220L355,-226L353,-231L353,-238L358,-236L363,-238L363,-234L370,-231L370,-226L378,-229L382,-232L390,-227Z" fill="#E0E0E0" stroke="#fff" stroke-width=".4"/><path d="M455,-118L457,-114L460,-115L465,-113L476,-113L479,-115L488,-118L493,-114L497,-113L494,-109L491,-102L493,-96L487,-97L480,-94L480,-90L473,-89L468,-92L462,-89L457,-90L456,-96L453,-99L454,-101L453,-102L454,-105L457,-108L454,-112L453,-116Z" fill="#E0E0E0" stroke="#fff" stroke-width=".4"/><path d="M481,-34L480,-32L470,-31L470,-32L461,-34L462,-38L466,-35L472,-35L477,-35L477,-33ZM457,-90L462,-89L468,-92L473,-89L480,-90L480,-94L483,-92L481,-86L479,-85L475,-85L471,-86L462,-83L467,-78L464,-77L460,-77L456,-81L455,-79L456,-74L460,-69L457,-67L461,-63L465,-60L465,-55L458,-58L460,-53L456,-52L458,-44L454,-44L448,-48L445,-55L444,-61L441,-66L437,-71L437,-73L440,-78L441,-81L443,-82L443,-85L448,-86L450,-88L454,-88L456,-89Z" fill="#E0E0E0" stroke="#fff" stroke-width=".4"/><path d="M614,-51L611,-49L608,-52L600,-53L597,-51L589,-50L585,-50L576,-47L570,-47L567,-48L559,-46L556,-48L556,-43L554,-41L552,-39L549,-43L552,-46L548,-45L542,-48L537,-42L526,-41L520,-46L512,-46L511,-43L506,-42L499,-46L491,-46L486,-55L481,-60L485,-68L480,-72L488,-81L499,-81L502,-89L516,-87L525,-94L533,-96L545,-96L558,-90L568,-86L576,-87L583,-87L591,-92L599,-92L606,-87L607,-84L606,-79L612,-77L614,-74L609,-72L612,-61L610,-58ZM480,-94L487,-97L493,-96L494,-92L500,-89L499,-87L491,-86L488,-84L482,-78L479,-83L479,-85L481,-86L483,-92Z" fill="#E0E0E0" stroke="#fff" stroke-width=".4"/><path d="M443,-85L443,-82L441,-81L440,-78L437,-73L436,-74L435,-76L431,-79L431,-84L431,-90L432,-93L431,-95L431,-98L434,-103L434,-101L436,-102L438,-99L439,-98L440,-95L439,-91L440,-87Z" fill="#E0E0E0" stroke="#fff" stroke-width=".4"/><path d="M411,-141L413,-140L419,-136L425,-134L427,-135L429,-131L431,-128L429,-124L425,-127L420,-127L414,-128L411,-128L409,-126L407,-128L405,-124L409,-119L410,-116L413,-112L416,-110L419,-106L425,-102L424,-101L418,-104L414,-108L407,-111L401,-118L402,-119L399,-123L399,-127L394,-128L392,-124L390,-127L390,-131L390,-131L395,-131L397,-132L399,-131L402,-131L402,-133L404,-134L405,-139Z" fill="#E0E0E0" stroke="#fff" stroke-width=".4"/><path d="M361,-152L361,-150L360,-148L363,-146L367,-146L366,-141L363,-139L358,-141L356,-137L353,-136L351,-138L347,-134L344,-134L341,-136L338,-141L335,-139L335,-144L340,-150L340,-152L343,-151L345,-153L351,-153L353,-156Z" fill="#E0E0E0" stroke="#fff" stroke-width=".4"/><path d="M335,-181L337,-178L336,-173L334,-173L332,-174L333,-180Z" fill="#E0E0E0" stroke="#fff" stroke-width=".4"/><path d="M336,-188L335,-181L333,-180L332,-174L326,-179L322,-178L317,-184L314,-188L311,-188L310,-192L315,-195L321,-194L327,-196L332,-191Z" fill="#E0E0E0" stroke="#fff" stroke-width=".4"/><path d="M341,-220L343,-216L341,-205L339,-201L335,-201L336,-188L332,-191L327,-196L321,-194L315,-195L319,-198L325,-215L335,-220Z" fill="#E0E0E0" stroke="#fff" stroke-width=".4"/><path d="M226,-95L229,-97L232,-99L234,-94L238,-94L239,-95L243,-95L245,-90L242,-88L242,-80L241,-79L241,-74L237,-74L240,-68L238,-62L241,-59L240,-57L237,-53L238,-50L235,-48L231,-49L227,-48L228,-55L228,-61L225,-62L223,-65L223,-71L226,-75L227,-78L228,-84L228,-88L227,-92Z" fill="#E0E0E0" stroke="#fff" stroke-width=".4"/><path d="M238,-50L237,-53L240,-57L241,-59L238,-62L240,-68L237,-74L241,-74L241,-79L242,-80L242,-88L245,-90L243,-95L239,-95L238,-94L234,-94L232,-99L229,-97L226,-95L227,-102L224,-106L234,-113L243,-111L253,-112L260,-110L266,-110L278,-110L281,-106L294,-102L297,-104L305,-99L313,-101L313,-95L307,-89L297,-87L297,-83L292,-78L290,-71L292,-65L288,-61L287,-55L281,-53L276,-46L267,-46L260,-46L256,-43L253,-40L249,-41L247,-44L245,-49Z" fill="#E0E0E0" stroke="#fff" stroke-width=".4"/><path d="M247,-225L248,-216L243,-205L230,-198L220,-200L225,-212L222,-225L231,-234L237,-240L238,-234L237,-227L241,-227Z" fill="#E0E0E0" stroke="#fff" stroke-width=".4"/><path d="M881,184L880,191L877,193L871,195L867,189L866,179L869,167L874,171L878,176Z" fill="#E0E0E0" stroke="#fff" stroke-width=".4"/><path d="M1081,105L1075,102L1075,96L1078,92L1086,90L1090,90L1092,93L1089,97L1087,101ZM870,-99L869,-105L874,-108L868,-125L882,-129L886,-131L891,-150L905,-147L909,-151L910,-162L916,-163L921,-171L924,-172L926,-164L932,-158L942,-154L947,-145L944,-133L947,-129L956,-127L965,-126L974,-119L978,-118L982,-109L986,-103L994,-103L1009,-101L1018,-103L1026,-101L1036,-95L1045,-95L1048,-92L1057,-97L1068,-101L1079,-101L1087,-105L1093,-110L1098,-113L1096,-117L1094,-120L1098,-127L1102,-126L1109,-124L1117,-129L1128,-133L1133,-140L1138,-143L1148,-145L1154,-143L1155,-147L1148,-155L1143,-158L1137,-154L1130,-156L1126,-154L1124,-159L1129,-170L1133,-178L1141,-174L1151,-181L1151,-186L1158,-198L1162,-202L1162,-208L1158,-211L1164,-217L1173,-219L1182,-220L1193,-216L1199,-212L1204,-200L1207,-195L1209,-188L1212,-177L1224,-173L1233,-165L1236,-155L1247,-155L1253,-159L1265,-163L1261,-153L1258,-149L1256,-137L1251,-127L1242,-129L1236,-126L1238,-117L1237,-105L1233,-105L1233,-100L1229,-106L1226,-100L1215,-96L1216,-91L1209,-91L1206,-94L1201,-87L1193,-82L1187,-76L1177,-74L1172,-69L1164,-67L1168,-71L1166,-75L1172,-81L1168,-86L1162,-83L1154,-76L1149,-70L1142,-70L1139,-65L1143,-59L1148,-57L1149,-53L1154,-51L1162,-57L1169,-54L1173,-53L1175,-49L1164,-46L1161,-41L1154,-37L1150,-31L1158,-26L1161,-17L1165,-10L1170,-3L1170,3L1166,6L1167,10L1172,13L1170,19L1169,26L1165,27L1159,35L1154,46L1147,55L1137,63L1127,69L1119,70L1114,74L1112,71L1108,75L1098,79L1090,80L1088,88L1084,89L1082,83L1083,80L1074,78L1070,79L1063,77L1060,74L1061,69L1054,68L1051,65L1045,69L1038,70L1032,70L1028,72L1024,73L1025,82L1021,82L1021,80L1021,77L1015,79L1012,77L1007,75L1009,68L1004,67L1003,59L995,61L996,51L1003,45L1003,38L1003,32L1000,30L997,25L993,26L985,24L988,21L984,16L979,19L973,17L965,22L958,29L952,30L949,27L946,27L940,25L936,27L932,33L931,27L927,29L918,28L910,26L904,22L899,21L896,17L892,16L885,10L879,8L876,10L866,4L859,-1L857,-11L862,-10L862,-14L860,-19L860,-26L853,-36L841,-39L839,-46L833,-51L832,-53L831,-58L831,-62L827,-64L824,-63L823,-72L825,-74L824,-76L831,-80L836,-82L843,-81L846,-87L855,-88L858,-92L869,-97Z" fill="#E0E0E0" stroke="#fff" stroke-width=".4"/><path d="M367,-146L371,-144L372,-146L379,-148L381,-144L391,-141L390,-136L392,-132L386,-133L380,-130L381,-125L380,-122L382,-117L389,-112L393,-104L401,-96L406,-96L408,-94L406,-92L413,-88L418,-85L424,-80L425,-79L423,-75L419,-80L413,-81L410,-75L415,-72L414,-67L411,-66L408,-58L405,-58L405,-60L406,-65L408,-67L405,-73L403,-77L400,-79L398,-83L393,-84L390,-88L384,-89L379,-93L372,-100L367,-105L365,-115L361,-116L356,-119L352,-118L348,-113L345,-113L346,-117L342,-118L340,-126L343,-129L341,-133L341,-136L344,-134L347,-134L351,-138L353,-136L356,-137L358,-141L363,-139L366,-141ZM398,-60L403,-61L401,-53L402,-51L400,-46L395,-49L391,-50L381,-55L382,-60L391,-59ZM354,-86L358,-88L362,-82L361,-69L358,-70L355,-67L352,-69L352,-81L350,-86Z" fill="#E0E0E0" stroke="#fff" stroke-width=".4"/><path d="M247,-225L241,-227L237,-227L238,-234L237,-240L243,-241L251,-233ZM269,-219L269,-219L270,-226L265,-234L265,-234L257,-236L255,-239L258,-245L255,-249L251,-243L251,-255L247,-262L250,-275L255,-286L261,-285L270,-287L262,-272L269,-274L277,-274L276,-263L269,-251L276,-250L277,-249L283,-234L288,-232L293,-218L295,-213L304,-211L303,-203L299,-200L302,-194L295,-188L286,-188L274,-185L270,-187L265,-182L259,-183L254,-179L250,-181L260,-193L267,-196L267,-196L256,-197L254,-202L261,-206L257,-212L258,-220Z" fill="#E0E0E0" stroke="#fff" stroke-width=".4"/><path d="M626,-95L628,-94L633,-89L636,-88L637,-90L642,-94L646,-89L649,-82L653,-82L655,-79L649,-79L648,-71L646,-68L644,-66L644,-61L642,-61L638,-66L640,-70L638,-73L635,-72L627,-66L627,-72L623,-73L620,-76L622,-79L618,-82L620,-85L617,-86L616,-89L617,-90L623,-88L627,-87L628,-88L624,-93ZM624,-65L619,-66L616,-71L614,-74L616,-75L618,-72L621,-72L621,-71Z" fill="#E0E0E0" stroke="#fff" stroke-width=".4"/><path d="M580,-110L580,-111L587,-110L597,-108L607,-103L608,-101L613,-103L619,-101L621,-97L626,-95L624,-93L628,-88L627,-87L623,-88L617,-90L616,-89L606,-87L599,-92L591,-92L592,-96L590,-102L586,-106L582,-107Z" fill="#E0E0E0" stroke="#fff" stroke-width=".4"/><path d="M391,-141L397,-141L401,-143L407,-143L408,-145L410,-145L411,-141L405,-139L404,-134L402,-133L402,-131L399,-131L397,-132L395,-131L390,-131L392,-132L390,-136Z" fill="#E0E0E0" stroke="#fff" stroke-width=".4"/><path d="M454,-169L452,-166L451,-162L449,-161L441,-164L439,-163L437,-161L434,-160L433,-160L430,-159L427,-158L426,-156L420,-155L418,-156L414,-159L413,-162L414,-164L415,-166L418,-166L420,-167L421,-168L422,-169L422,-171L424,-172L425,-174L427,-174L428,-173L431,-175L434,-171L439,-173L442,-172L447,-173Z" fill="#E0E0E0" stroke="#fff" stroke-width=".4"/><path d="M400,-192L403,-188L409,-187L408,-184L412,-182L413,-185L418,-183L419,-180L424,-179L427,-174L425,-174L424,-172L422,-171L422,-169L421,-168L420,-167L418,-166L415,-166L414,-164L410,-166L407,-165L401,-169L399,-168L395,-163L390,-167L385,-172L382,-174L381,-179L380,-182L385,-185L388,-188L393,-190L395,-192L397,-191Z" fill="#E0E0E0" stroke="#fff" stroke-width=".4"/><path d="M554,133L553,130L556,119L557,114L559,112L565,110L568,106L573,115L575,122L579,125L588,133L592,137L596,141L599,144L602,146L600,148L597,147L594,145L591,140L588,138L586,135L580,132L575,132L573,131L569,132L565,129L562,135Z" fill="#E0E0E0" stroke="#fff" stroke-width=".4"/><path d="M-128,387L-126,391L-126,401L-119,403L-116,401L-111,403L-109,406L-109,413L-108,416L-105,416L-102,415L-100,417L-100,421L-101,426L-102,430L-103,437L-110,443L-116,445L-124,444L-131,441L-124,429L-125,426L-132,422L-141,417L-147,415L-160,403L-157,393L-157,389L-154,382L-141,380L-135,380L-128,384Z" fill="#E0E0E0" stroke="#fff" stroke-width=".4"/><path d="M666,99L672,111L674,116L669,118L668,122L668,124L660,127L649,131L642,136L639,137L637,136L633,139L628,141L622,141L620,141L619,143L617,144L616,146L612,146L610,147L605,146L603,142L603,138L602,136L601,130L599,127L600,127L599,123L600,122L600,119L603,116L602,113L604,109L607,111L609,111L617,110L619,111L626,112L628,112L630,114L634,113L639,105L646,101Z" fill="#E0E0E0" stroke="#fff" stroke-width=".4"/><path d="M543,17L552,18L555,15L556,12L562,11L563,8L565,7L558,-1L573,-6L574,-7L583,-5L593,1L614,18L627,19L634,19L635,23L641,23L643,30L647,32L648,35L653,38L653,42L653,44L654,47L656,49L657,52L658,54L660,55L662,55L663,58L664,60L666,68L688,72L689,70L693,75L688,91L666,99L646,101L639,105L634,113L630,114L628,112L626,112L619,111L617,110L609,111L607,111L604,109L602,113L603,116L600,119L599,115L597,113L596,110L592,107L589,101L587,95L582,90L578,88L574,81L573,76L573,71L569,62L566,59L562,58L559,53L560,51L558,47L556,45L553,39L548,33L545,27L541,27L542,23L543,20Z" fill="#E0E0E0" stroke="#fff" stroke-width=".4"/><path d="M527,-33L528,-33L529,-35L534,-35L541,-37L536,-34L536,-32L536,-32L534,-32L533,-32L533,-32L533,-32L532,-33L531,-33L529,-32Z" fill="#E0E0E0" stroke="#fff" stroke-width=".4"/><path d="M527,-33L529,-32L531,-33L532,-33L533,-32L533,-32L533,-32L534,-32L536,-32L536,-32L537,-31L529,-28L526,-29L524,-32Z" fill="#E0E0E0" stroke="#fff" stroke-width=".4"/><path d="M276,-33L279,-27L279,-22L282,-13L283,-11L282,-8L273,-6L269,-3L265,-3L265,4L256,7L254,11L248,13L241,15L229,21L229,31L228,31L228,35L224,35L221,37L218,37L215,36L209,37L207,43L205,44L201,54L191,62L189,73L186,77L185,79L169,80L169,80L169,76L172,74L174,70L174,68L176,62L180,57L183,56L185,51L185,47L187,42L192,39L197,31L197,31L201,27L207,27L213,21L217,19L223,12L221,1L224,-6L224,-10L229,-16L236,-20L242,-24L247,-33L249,-38L254,-38L258,-34L265,-35L273,-33Z" fill="#E0E0E0" stroke="#fff" stroke-width=".4"/><path d="M557,75L529,75L501,75L472,75L472,46L472,18L470,11L471,6L470,2L473,-2L482,-2L489,0L497,3L500,4L505,1L508,-1L515,-2L520,-1L522,3L524,1L529,3L535,3L539,1L543,13L543,15L541,19L540,25L538,29L536,31L534,28L530,24L525,12L524,13L527,22L532,30L537,43L540,47L542,52L549,60L547,62L548,67L556,74Z" fill="#E0E0E0" stroke="#fff" stroke-width=".4"/><path d="M472,75L472,91L463,91L463,94L435,79L406,64L399,69L393,72L389,67L378,64L375,59L369,55L366,57L363,52L363,49L359,43L362,40L361,35L362,30L361,27L363,20L362,16L360,9L363,7L364,3L363,-0L368,-4L370,-6L374,-9L374,-15L383,-12L386,-13L392,-12L401,-8L405,-0L411,1L421,5L429,9L433,7L436,3L434,-3L437,-8L442,-12L447,-13L457,-11L459,-7L462,-7L464,-6L471,-5L473,-2L470,2L471,6L470,11L472,18L472,46Z" fill="#E0E0E0" stroke="#fff" stroke-width=".4"/><path d="M636,180L616,202L606,202L600,207L595,208L593,210L588,210L585,207L579,210L577,213L572,213L570,212L569,212L566,212L557,206L552,206L550,204L550,200L546,198L542,190L538,189L537,186L533,182L529,182L532,178L535,177L536,175L536,169L538,161L542,159L543,156L546,150L550,147L553,139L554,133L562,135L565,129L569,132L573,131L575,132L580,132L586,135L588,138L591,140L594,145L597,147L594,150L592,154L592,156L592,158L597,158L598,158L600,159L598,161L601,165L604,169L606,172L630,180Z" fill="#E0E0E0" stroke="#fff" stroke-width=".4"/><path d="M597,147L600,148L602,146L604,148L604,151L599,153L603,155L600,159L598,158L597,158L592,158L592,156L592,154L594,150Z" fill="#E0E0E0" stroke="#fff" stroke-width=".4"/><path d="M644,155L644,155L644,158L644,166L644,170L641,174L636,180L630,180L606,172L604,169L601,165L598,161L600,159L603,155L605,156L606,159L610,162L613,162L620,161L628,160L634,157L638,157L640,156Z" fill="#E0E0E0" stroke="#fff" stroke-width=".4"/><path d="M536,245L521,245L513,245L511,246L506,249L505,248L505,242L506,240L507,234L508,230L511,227L514,225L516,222L513,221L514,213L517,211L521,212L527,211L532,211L537,207L540,212L541,216L544,224L541,230L538,234L536,237Z" fill="#E0E0E0" stroke="#fff" stroke-width=".4"/><path d="M511,246L514,250L513,255L511,255L507,255L505,259L501,259L501,255L502,254L503,250L505,248L506,249Z" fill="#E0E0E0" stroke="#fff" stroke-width=".4"/><path d="M425,-102L419,-106L416,-110L413,-112L410,-116L409,-119L405,-124L407,-128L409,-126L411,-128L414,-128L420,-127L425,-127L429,-124L431,-125L429,-120L433,-116L432,-111L430,-111L429,-110L426,-108Z" fill="#E0E0E0" stroke="#fff" stroke-width=".4"/><path d="M453,-99L456,-96L457,-90L456,-89L454,-88L450,-88L448,-86L443,-85L440,-87L439,-91L440,-95L441,-95L441,-97L445,-98L447,-98L450,-99Z" fill="#E0E0E0" stroke="#fff" stroke-width=".4"/><path d="M427,-135L433,-138L437,-138L441,-133L442,-130L446,-128L447,-124L451,-121L453,-123L455,-122L454,-120L455,-118L453,-116L454,-112L457,-108L454,-105L453,-102L454,-101L453,-99L450,-99L447,-98L447,-99L448,-100L448,-103L447,-103L446,-105L445,-105L444,-107L443,-107L442,-109L440,-108L439,-105L438,-104L438,-105L435,-107L433,-108L432,-109L430,-111L432,-111L433,-116L429,-120L431,-125L429,-124L431,-128L429,-131Z" fill="#E0E0E0" stroke="#fff" stroke-width=".4"/><path d="M436,-102L434,-101L434,-103L431,-98L431,-95L430,-96L428,-99L424,-101L425,-102L426,-108L429,-110L430,-111L432,-109L433,-108L435,-107L438,-105L438,-104Z" fill="#E0E0E0" stroke="#fff" stroke-width=".4"/><path d="M440,-95L439,-98L438,-99L436,-102L438,-104L439,-105L440,-108L442,-109L443,-107L444,-107L445,-105L446,-105L447,-103L448,-103L448,-100L447,-99L447,-98L445,-98L441,-97L441,-95Z" fill="#E0E0E0" stroke="#fff" stroke-width=".4"/><path d="M-153,160L-149,159L-147,159L-148,165L-154,166L-155,165L-153,163Z" fill="#E0E0E0" stroke="#fff" stroke-width=".4"/><path d="M514,213L507,208L506,205L502,206L498,206L496,207L493,206L489,200L488,198L482,195L480,191L477,188L473,184L473,182L469,179L464,176L466,175L468,174L470,167L472,164L477,163L479,165L482,169L484,170L487,168L492,169L493,170L500,170L501,169L504,167L505,165L508,164L514,168L518,167L521,162L525,158L524,153L523,151L527,151L528,149L531,150L530,155L531,160L535,163L535,166L535,169L536,170L536,175L535,177L532,178L529,182L533,182L537,186L538,189L542,190L546,198L541,203L537,207L532,211L527,211L521,212L517,211Z" fill="#E0E0E0" stroke="#fff" stroke-width=".4"/></g><g clip-path="url(#v)"><path d="M464.4,94.8L464.4,98.2L464.4,101.6L464.4,105.0L464.4,108.3L464.4,111.7L464.4,115.1L464.4,118.4L464.4,121.8L464.4,122.9L464.3,123.3L464.3,123.4L464.1,123.5L462.4,123.2L461.7,123.1L460.6,123.4L459.1,123.5L458.1,123.5L457.4,124.0L456.8,124.7L457.1,126.4L457.0,126.9L456.8,127.5L456.3,128.0L455.9,128.4L455.6,128.7L455.2,129.5L455.0,129.8L455.0,130.3L454.9,130.8L454.6,131.0L453.9,131.2L453.5,131.4L453.1,131.8L452.9,132.1L453.0,132.4L453.2,132.9L453.3,133.6L453.3,134.0L453.7,134.4L453.9,134.7L454.0,135.0L453.8,135.2L452.9,135.8L452.5,135.9L452.1,136.2L452.0,136.3L451.4,136.8L451.0,137.3L450.9,137.6L450.9,138.2L451.2,138.9L451.6,139.6L451.7,140.1L451.8,140.6L451.7,141.1L451.6,141.6L451.2,142.0L450.0,142.7L449.4,143.6L449.0,144.6L448.8,145.1L449.0,145.5L449.2,145.8L449.6,146.0L450.1,146.0L451.0,145.8L451.8,145.7L452.6,146.1L453.1,146.9L452.9,147.5L453.2,148.7L453.5,150.0L453.5,150.5L453.6,150.6L454.2,150.7L454.3,151.0L454.1,153.4L454.4,154.1L454.7,154.5L455.1,154.8L455.5,155.1L455.7,155.3L456.2,155.4L456.8,155.8L456.9,156.4L456.9,156.9L456.5,158.1L456.3,158.9L456.0,158.8L455.4,158.6L454.6,158.5L453.7,158.3L452.8,158.7L451.8,159.1L451.5,159.4L451.2,159.6L450.8,159.6L450.4,159.6L450.2,159.9L449.8,160.3L448.4,160.9L448.2,161.2L448.0,161.4L448.0,161.7L448.1,162.3L448.1,163.0L447.8,163.5L447.5,163.9L447.0,164.0L446.7,164.1L446.5,164.4L445.7,165.6L445.4,165.9L444.8,165.8L442.9,167.7L442.8,168.3L442.1,169.1L441.3,170.0L440.5,170.4L440.4,170.6L440.2,170.7L439.8,171.0L438.1,172.0L436.2,172.0L435.3,172.4L434.5,172.6L433.3,172.8L432.9,172.8L431.3,172.9L429.5,172.8L428.8,173.0L428.2,173.4L427.7,173.8L427.6,173.9L427.7,174.0L427.7,174.1L428.9,175.0L429.2,175.5L428.9,175.9L428.8,175.9L428.8,176.0L428.5,176.3L427.8,177.3L426.6,178.5L426.1,178.8L425.8,179.0L425.5,179.8L425.3,179.9L424.5,180.0L423.0,180.1L420.8,180.3L419.5,180.4L418.7,180.4L417.6,180.9L417.2,181.0L416.9,181.1L415.8,181.6L414.9,182.4L414.6,182.6L413.3,182.9L412.7,183.5L412.5,183.5L411.7,182.8L411.1,182.1L410.8,181.4L410.8,181.2L410.6,181.3L410.2,181.6L409.8,181.9L409.6,182.5L408.2,183.0L407.1,183.4L406.5,183.8L405.7,184.1L404.7,184.0L403.9,183.8L403.1,183.7L403.5,183.1L403.6,182.7L403.7,182.1L403.6,181.8L403.1,181.6L402.8,181.3L402.2,179.6L401.5,177.9L400.5,176.2L399.4,175.1L398.6,174.4L398.4,174.3L398.0,174.1L397.7,173.9L396.3,172.8L394.8,171.5L394.4,170.9L393.7,170.0L392.9,169.1L392.5,168.7L392.3,167.9L392.8,167.2L393.4,166.4L394.2,165.8L395.1,165.8L396.7,166.0L398.5,166.1L400.2,165.9L400.6,165.8L401.0,165.8L401.9,166.0L403.5,165.9L404.4,165.6L403.5,165.0L402.5,164.1L401.6,163.0L401.1,162.1L400.6,160.9L400.1,159.4L399.8,157.5L399.9,156.4L400.1,155.6L400.5,154.3L400.2,153.6L400.3,153.0L400.2,152.1L400.1,151.6L399.5,150.2L399.3,150.0L398.8,149.0L398.5,147.3L397.9,146.1L396.9,145.6L396.4,144.9L396.2,143.7L395.8,143.4L394.2,143.0L392.9,143.0L392.0,141.7L390.7,140.0L389.6,138.4L388.9,135.2L388.5,133.3L388.9,132.8L389.9,131.5L391.0,129.0L393.7,125.1L395.1,123.1L397.8,120.1L401.2,116.5L403.1,114.4L403.4,110.6L403.7,106.6L403.9,103.6L404.2,100.0L404.5,97.0L404.7,94.8L404.9,91.6L405.2,91.0L406.5,88.6L406.6,88.3L406.3,87.8L404.5,85.7L403.9,85.3L403.5,84.2L404.0,83.6L401.8,80.0L401.2,79.6L401.0,79.2L400.9,78.5L400.9,76.1L400.3,72.2L399.5,67.7L402.2,66.4L404.2,65.4L406.7,64.2L409.1,65.5L412.6,67.3L416.0,69.2L419.5,71.0L422.9,72.9L426.4,74.7L429.8,76.5L433.3,78.4L436.7,80.2L440.2,82.0L443.6,83.9L447.1,85.7L450.6,87.5L454.0,89.3L457.5,91.1L460.9,93.0Z" fill="#4ECDC4" stroke="#2C3E50" stroke-width="1"/></g><circle cx="400.0" cy="150.0" r="4" fill="#E74C3C" stroke="#fff" stroke-width="2"/><text x="400.0" y="140.0" text-anchor="middle" font-family="sans-serif" font-weight="700" font-size="10" fill="#2D3436">N'Djamena</text></svg>