<svg viewBox="0 0 800 300" xmlns="http://www.w3.org/2000/svg"><defs><clipPath id="v"><rect width="800" height="300"/></clipPath></defs><rect width="800" height="300" fill="#DCEEF8"/><g clip-path="url(#v)"><path d="M1055,399L1060,421L1057,433L1062,447L1075,460L1088,489L1079,487L1048,491L1041,494L1035,509L1040,519L1036,547L1033,571L1039,575L1056,585L1062,580L1064,606L1046,606L1036,593L1028,583L1010,579L1005,567L990,574L972,571L964,560L949,558L938,558L937,551L929,550L918,549L904,553L894,552L888,554L889,526L881,517L880,503L883,489L878,479L878,465L850,465L852,456L840,456L839,461L824,461L818,475L815,481L802,478L794,481L779,483L770,471L764,463L758,449L752,431L683,431L675,434L668,434L659,437L655,429L661,427L662,417L666,411L674,406L680,408L688,399L701,399L703,406L711,410L725,396L739,384L745,377L744,357L754,335L765,323L780,312L783,304L783,296L787,287L786,274L789,254L793,239L800,227L802,212L804,196L813,184L825,177L844,185L859,193L876,196L894,200L901,186L904,184L915,187L941,175L950,180L957,179L961,173L969,171L987,174L1002,174L1010,172L1024,191L1034,194L1040,190L1051,192L1064,187L1070,197L1090,212L1089,240L1098,243L1091,251L1082,257L1073,269L1068,280L1067,299L1061,308L1061,325L1054,332L1053,346L1050,348L1048,360L1054,371Z" fill="#E0E0E0" stroke="#fff" stroke-width=".4"/><path d="M944,102L926,91L918,85L917,77L921,67L921,58L907,43L904,33L905,27L896,20L896,6L891,-3L883,-2L885,-11L891,-21L889,-30L896,-38L891,-43L898,-58L908,-76L928,-74L927,-172L927,-182L954,-182L954,-232L1048,-232L1138,-232L1231,-232L1239,-207L1233,-203L1237,-177L1245,-148L1254,-142L1267,-133L1255,-119L1238,-115L1231,-107L1228,-91L1218,-55L1221,-46L1217,-25L1208,-2L1194,10L1184,28L1181,38L1170,45L1163,70L1164,91L1163,72L1160,72L1160,60L1158,52L1146,43L1143,26L1146,8L1135,6L1133,12L1119,13L1125,20L1127,34L1114,47L1102,64L1090,67L1071,53L1062,58L1060,65L1048,69L1047,74L1024,74L1020,69L1004,68L995,72L989,70L977,57L973,50L956,53L949,64L943,85L935,90L928,92Z" fill="#E0E0E0" stroke="#fff" stroke-width=".4"/><path d="M927,-172L928,-74L908,-76L898,-58L891,-43L896,-38L889,-30L891,-21L885,-11L883,-2L891,-3L896,6L896,20L905,27L904,33L890,37L878,46L861,72L839,83L817,82L810,84L812,92L800,100L790,110L761,119L755,113L751,113L747,119L728,121L731,114L724,98L721,88L710,84L697,70L702,59L712,62L719,60L732,60L719,39L720,23L719,7L709,-8L712,-20L697,-20L697,-36L687,-44L697,-76L727,-99L728,-131L737,-181L742,-192L732,-200L732,-208L723,-215L718,-254L741,-268L834,-219Z" fill="#E0E0E0" stroke="#fff" stroke-width=".4"/><path d="M-833,197L-847,219L-854,236L-863,245L-874,246L-877,240L-883,239L-890,245L-900,240L-894,230L-892,220L-888,210L-897,196L-899,180L-887,160L-879,162L-862,168L-837,188ZM516,-1037L527,-1027L560,-1021L548,-997L545,-972L539,-966L528,-969L529,-960L512,-941L512,-926L523,-931L531,-916L530,-907L537,-894L529,-884L535,-859L547,-855L545,-841L524,-823L478,-831L444,-821L441,-802L414,-798L388,-812L379,-805L336,-820L327,-832L339,-851L343,-917L319,-953L302,-970L267,-983L264,-1009L294,-1017L334,-1008L326,-1048L348,-1033L403,-1061L410,-1091L430,-1098L433,-1085L444,-1085L455,-1070L471,-1053L483,-1056L504,-1039L509,-1036ZM575,-807L590,-819L594,-792L587,-768L576,-774L571,-795Z" fill="#E0E0E0" stroke="#fff" stroke-width=".4"/><path d="M-18,-26L-28,-45L-40,-53L-29,-58L-18,-75L-13,-87L-5,-95L7,-93L18,-98L31,-98L43,-91L58,-85L72,-67L88,-50L89,-35L93,-22L102,-15L104,-6L103,2L99,3L87,1L85,4L80,4L63,-1L52,-2L9,-3L3,-0L-5,-1L-18,3L-21,-15L-0,-15L5,-18L10,-18L18,-24L28,-19L38,-18L49,-24L44,-31L36,-27L29,-27L20,-33L12,-32L7,-27Z" fill="#E0E0E0" stroke="#fff" stroke-width=".4"/><path d="M103,2L104,-6L102,-15L93,-22L89,-35L88,-50L95,-55L99,-69L107,-70L123,-63L136,-68L145,-66L149,-71L242,-72L247,-89L243,-92L232,-198L221,-307L257,-308L335,-252L414,-197L419,-185L434,-178L445,-174L445,-159L471,-161L471,-105L458,-88L456,-73L435,-70L404,-67L395,-59L380,-58L365,-58L359,-63L346,-59L325,-49L320,-42L302,-31L299,-25L289,-20L278,-23L272,-17L268,-1L250,19L250,27L244,37L245,51L236,55L230,57L227,47L220,50L216,50L212,56L194,56L187,53L184,55L177,48L178,41L175,38L170,41L171,33L176,27L166,17L164,10L158,5L154,4L148,8L141,11L134,16L124,14L118,8L114,7L108,10L104,10Z" fill="#E0E0E0" stroke="#fff" stroke-width=".4"/><path d="M-27,-207L-21,-215L70,-215L65,-251L71,-264L93,-267L92,-332L169,-331L169,-371L257,-308L221,-307L232,-198L243,-92L247,-89L242,-72L149,-71L145,-66L136,-68L123,-63L107,-70L99,-69L95,-55L88,-50L72,-67L58,-85L43,-91L31,-98L18,-98L7,-93L-5,-95L-13,-87L-15,-100L-8,-112L-5,-135L-8,-160L-11,-172L-8,-184L-14,-196Z" fill="#E0E0E0" stroke="#fff" stroke-width=".4"/><path d="M434,148L415,151L409,134L410,80L405,76L405,64L396,56L389,49L392,36L400,33L405,23L416,21L422,14L429,7L438,7L456,20L455,28L460,42L455,52L458,58L446,73L439,80L435,95L435,110Z" fill="#E0E0E0" stroke="#fff" stroke-width=".4"/><path d="M718,-254L723,-215L732,-208L732,-200L742,-192L737,-181L728,-131L727,-99L697,-76L687,-44L697,-36L697,-20L712,-20L709,-8L703,-7L702,1L698,1L682,-25L676,-26L658,-12L640,-20L628,-21L621,-18L607,-18L593,-8L582,-7L553,-20L542,-14L530,-14L522,-23L498,-32L473,-30L467,-24L464,-11L457,-1L456,20L438,7L429,7L422,14L422,-3L395,-8L394,-20L381,-35L378,-46L380,-58L395,-59L404,-67L435,-70L456,-73L458,-88L471,-105L471,-161L504,-172L571,-221L651,-269L688,-258L701,-244Z" fill="#E0E0E0" stroke="#fff" stroke-width=".4"/><path d="M434,148L435,110L435,95L439,80L446,73L458,58L455,52L460,42L455,28L456,20L457,-1L464,-11L467,-24L473,-30L498,-32L522,-23L530,-14L542,-14L553,-20L582,-7L593,-8L607,-18L621,-18L628,-21L640,-20L658,-12L676,-26L682,-25L698,1L702,1L711,10L709,15L707,22L688,41L682,56L678,68L673,74L669,90L656,100L653,112L647,121L645,131L629,139L616,129L607,130L593,143L587,144L576,166L570,183L545,191L536,190L527,195L509,195L496,180L489,163L472,148L455,148Z" fill="#E0E0E0" stroke="#fff" stroke-width=".4"/><path d="M709,-8L719,7L720,23L719,39L732,60L719,60L712,62L702,59L697,70L710,84L721,88L724,98L731,114L728,121L716,144L710,149L708,167L711,177L709,184L720,196L722,204L731,216L741,224L742,234L745,241L743,254L725,248L706,242L676,241L673,240L660,243L645,240L634,241L596,241L600,222L591,207L580,203L575,193L569,189L570,183L576,166L587,144L593,143L607,130L616,129L629,139L645,131L647,121L653,112L656,100L669,90L673,74L678,68L682,56L688,41L707,22L709,15L711,10L702,1L703,-7Z" fill="#E0E0E0" stroke="#fff" stroke-width=".4"/><path d="M372,36L370,43L380,55L380,72L382,91L388,100L383,121L385,133L391,147L396,156L359,169L347,177L326,184L305,178L306,168L296,148L302,122L312,102L305,68L302,50L303,37L343,36L354,38L361,34Z" fill="#E0E0E0" stroke="#fff" stroke-width=".4"/><path d="M184,55L187,53L194,56L212,56L216,50L220,50L227,47L230,57L236,55L245,51L256,56L260,64L270,69L279,63L289,62L305,68L312,102L302,122L296,148L306,168L305,178L294,178L278,173L263,173L235,178L219,184L196,193L191,192L193,173L195,170L195,161L185,151L178,149L171,143L176,133L173,121L175,114L178,114L180,104L178,100L180,96L189,93L183,75L178,65L179,57Z" fill="#E0E0E0" stroke="#fff" stroke-width=".4"/><path d="M52,-2L63,-1L80,4L85,4L87,1L99,3L103,2L104,10L108,10L114,7L118,8L124,14L134,16L141,11L148,8L154,4L158,5L164,10L166,17L176,27L171,33L170,41L175,38L178,41L177,48L184,55L179,57L178,65L183,75L189,93L180,96L178,100L180,104L178,114L175,114L168,114L163,123L157,123L152,118L154,109L144,94L138,97L133,97L126,99L127,90L123,84L124,77L119,67L112,59L93,59L88,63L82,64L78,69L75,75L62,86L52,72L43,62L37,59L31,55L29,44L25,39L19,35L29,23L36,24L42,20L47,20L51,17L49,9L51,6Z" fill="#E0E0E0" stroke="#fff" stroke-width=".4"/><path d="M-18,3L-5,-1L3,-0L9,-3L52,-2L51,6L49,9L51,17L47,20L42,20L36,24L29,23L19,35L6,25L-4,24L-9,17L-9,13L-16,8Z" fill="#E0E0E0" stroke="#fff" stroke-width=".4"/><path d="M175,114L173,121L176,133L171,143L178,149L185,151L195,161L195,170L193,173L191,192L185,192L161,181L140,164L120,151L105,136L110,128L111,121L122,108L133,97L138,97L144,94L154,109L152,118L157,123L163,123L168,114Z" fill="#E0E0E0" stroke="#fff" stroke-width=".4"/><path d="M62,86L75,75L78,69L82,64L88,63L93,59L112,59L119,67L124,77L123,84L127,90L126,99L133,97L122,108L111,121L110,128L105,136L98,134L82,124L69,112L65,103Z" fill="#E0E0E0" stroke="#fff" stroke-width=".4"/><path d="M245,51L244,37L250,27L250,19L268,-1L272,-17L278,-23L289,-20L299,-25L302,-31L320,-42L325,-49L346,-59L359,-63L365,-58L380,-58L378,-46L381,-35L394,-20L395,-8L422,-3L422,14L416,21L405,23L400,33L392,36L372,36L361,34L354,38L343,36L303,37L302,50L305,68L289,62L279,63L270,69L260,64L256,56Z" fill="#E0E0E0" stroke="#fff" stroke-width=".4"/><path d="M1010,172L1002,174L987,174L969,171L961,173L957,179L950,180L941,175L915,187L904,184L901,186L894,200L876,196L859,193L844,185L825,177L813,184L804,196L802,212L787,211L771,207L757,220L745,241L742,234L741,224L731,216L722,204L720,196L709,184L711,177L708,167L710,149L716,144L728,121L747,119L751,113L755,113L761,119L790,110L800,100L812,92L810,84L817,82L839,83L861,72L878,46L890,37L904,33L907,43L921,58L921,67L917,77L918,85L926,91L944,102L957,111L957,119L973,131L983,141L988,155L1006,165Z" fill="#E0E0E0" stroke="#fff" stroke-width=".4"/><path d="M802,212L800,227L793,239L789,254L786,274L787,287L783,296L783,304L780,312L765,323L754,335L744,357L745,377L739,384L725,396L711,410L703,406L701,399L688,399L680,408L674,406L666,398L659,402L649,412L630,387L648,374L639,359L647,353L663,350L665,340L677,351L698,352L705,341L708,325L705,307L694,293L704,266L698,262L681,264L674,251L676,241L706,242L725,248L743,254L745,241L757,220L771,207L787,211Z" fill="#E0E0E0" stroke="#fff" stroke-width=".4"/><path d="M634,241L645,240L660,243L673,240L676,241L674,251L681,264L698,262L704,266L694,293L705,307L708,325L705,341L698,352L677,351L665,340L663,350L647,353L639,359L648,374L630,387L606,363L591,344L576,320L577,312L582,305L588,288L593,271L601,269L634,269Z" fill="#E0E0E0" stroke="#fff" stroke-width=".4"/><path d="M596,241L634,241L634,269L601,269L593,271L588,267Z" fill="#E0E0E0" stroke="#fff" stroke-width=".4"/><path d="M1088,489L1098,495L1107,499L1122,503L1135,510L1146,521L1152,541L1148,547L1143,567L1148,586L1141,595L1133,617L1146,623L1075,643L1077,660L1060,664L1046,673L1044,682L1035,684L1015,704L1002,719L994,720L987,717L960,714L956,713L956,711L947,705L932,704L913,709L897,694L882,674L883,597L931,598L929,590L933,581L929,569L931,558L929,550L937,551L938,558L949,558L964,560L972,571L990,574L1005,567L1010,579L1028,583L1036,593L1046,606L1064,606L1062,580L1056,585L1039,575L1033,571L1036,547L1040,519L1035,509L1041,494L1048,491L1079,487Z" fill="#E0E0E0" stroke="#fff" stroke-width=".4"/><path d="M674,406L666,411L662,417L661,427L655,429L649,412L659,402L666,398ZM659,437L668,434L675,434L683,431L752,431L758,449L764,463L770,471L779,483L794,481L802,478L815,481L818,475L824,461L839,461L840,456L852,456L850,465L878,465L878,479L883,489L880,503L881,517L889,526L888,554L894,552L904,553L918,549L929,550L931,558L929,569L933,581L929,590L931,598L883,597L882,674L897,694L913,709L870,719L813,716L797,704L703,705L699,707L685,696L670,695L656,699L645,704L643,689L646,667L654,645L655,635L663,613L668,603L682,588L689,577L692,559L690,546L683,537L677,523L672,509L673,504L680,495L673,472L668,456L656,441Z" fill="#E0E0E0" stroke="#fff" stroke-width=".4"/><path d="M-18,-26L7,-27L12,-32L20,-33L29,-27L36,-27L44,-31L49,-24L38,-18L28,-19L18,-24L10,-18L5,-18L-0,-15L-21,-15Z" fill="#E0E0E0" stroke="#fff" stroke-width=".4"/><path d="M169,-371L169,-376L169,-377L169,-409L207,-428L230,-433L249,-440L258,-453L285,-464L286,-484L300,-487L310,-497L341,-501L345,-512L339,-518L331,-547L329,-565L321,-583L343,-598L368,-603L383,-615L406,-624L445,-629L484,-632L495,-627L517,-639L542,-639L552,-632L568,-634L563,-619L567,-592L561,-568L547,-552L549,-531L568,-515L568,-508L582,-497L592,-448L600,-424L601,-412L597,-390L599,-378L596,-364L598,-347L589,-337L602,-318L603,-307L612,-292L623,-297L641,-285L651,-269L571,-221L504,-172L471,-161L445,-159L445,-174L434,-178L419,-185L414,-197L335,-252L257,-308Z" fill="#E0E0E0" stroke="#fff" stroke-width=".4"/><path d="M954,-232L954,-182L927,-182L927,-172L834,-219L741,-268L718,-254L701,-244L688,-258L651,-269L641,-285L623,-297L612,-292L603,-307L602,-318L589,-337L598,-347L596,-364L599,-378L597,-390L601,-412L600,-424L592,-448L604,-454L606,-466L603,-477L619,-488L627,-496L638,-504L639,-526L667,-516L676,-518L696,-514L727,-501L738,-477L759,-472L792,-460L816,-447L828,-454L839,-466L833,-487L841,-501L858,-514L874,-517L905,-512L913,-499L922,-499L929,-495L952,-491L958,-482L950,-469L953,-458L947,-441L954,-419L954,-326Z" fill="#E0E0E0" stroke="#fff" stroke-width=".4"/><path d="M1090,212L1070,197L1064,187L1051,192L1040,190L1034,194L1024,191L1010,172L1006,165L988,155L983,141L973,131L957,119L957,111L944,102L928,92L935,90L943,85L949,64L956,53L973,50L977,57L989,70L995,72L1004,68L1020,69L1024,74L1047,74L1048,69L1060,65L1062,58L1071,53L1090,67L1102,64L1114,47L1127,34L1125,20L1119,13L1133,12L1135,6L1146,8L1143,26L1146,43L1158,52L1160,60L1160,72L1163,72L1164,91L1160,98L1148,99L1140,112L1154,114L1166,125L1170,135L1181,140L1194,166L1179,181L1164,195L1150,206L1133,206L1115,211L1100,206Z" fill="#E0E0E0" stroke="#fff" stroke-width=".4"/></g><g clip-path="url(#v)"><path d="M392.3,36.2L391.7,38.8L390.5,41.9L389.7,42.9L389.2,50.6L389.5,51.3L389.8,51.4L393.7,54.1L398.7,57.4L402.3,59.9L402.7,60.6L402.7,65.7L402.8,70.0L403.5,72.5L403.6,74.9L404.5,76.7L407.9,80.2L408.6,82.2L408.7,88.8L408.8,93.8L409.2,100.6L409.2,106.3L409.2,113.5L409.2,121.8L409.2,130.6L407.0,130.7L408.2,133.4L408.4,135.9L408.7,136.7L408.1,137.9L408.6,139.7L409.6,140.3L412.0,144.0L412.7,147.1L408.9,148.1L409.1,148.9L401.9,150.6L399.0,151.9L399.0,150.6L397.9,150.4L396.6,149.9L395.8,149.2L394.7,147.7L394.3,146.5L392.6,146.3L390.5,144.9L388.5,143.4L387.8,141.8L388.0,141.1L387.7,140.4L387.0,140.1L385.2,136.6L384.1,135.2L383.5,134.0L383.8,133.1L383.5,131.9L383.9,131.0L384.8,130.4L385.1,129.7L385.2,128.2L385.8,125.2L386.1,122.2L385.1,121.4L383.9,121.1L383.2,120.3L382.9,118.9L382.9,117.7L385.5,113.4L385.0,103.6L385.3,102.0L386.4,101.0L387.4,99.8L387.3,98.7L385.7,95.7L382.6,93.5L381.0,91.6L380.2,90.0L380.0,89.1L381.9,87.8L382.7,86.9L382.9,85.9L382.0,84.0L382.2,80.7L382.9,78.2L383.6,75.0L383.6,74.0L381.8,72.1L380.8,71.8L380.0,71.9L378.1,73.2L377.4,73.4L377.0,73.0L376.7,72.5L377.4,71.7L377.2,70.7L377.7,69.9L378.9,69.6L379.3,69.1L377.7,68.7L377.5,68.2L377.6,67.6L378.1,67.5L378.6,67.6L378.8,67.2L379.1,64.4L379.3,63.5L379.5,61.5L379.8,54.2L380.2,53.4L380.2,52.9L379.1,52.5L376.4,50.5L374.8,49.0L373.4,47.4L372.2,46.4L369.9,44.8L369.3,43.8L369.2,42.8L369.9,40.8L371.0,38.7L371.5,35.6L371.2,34.7L369.7,33.3L375.1,34.4L382.6,36.3L382.8,36.6L382.8,37.1L384.1,37.1L386.3,36.5Z" fill="#4ECDC4" stroke="#2C3E50" stroke-width="1"/></g><circle cx="400.0" cy="150.0" r="4" fill="#E74C3C" stroke="#fff" stroke-width="2"/><text x="400.0" y="140.0" text-anchor="middle" font-family="sans-serif" font-weight="700" font-size="10" fill="#2D3436">Lomé</text></svg>