<svg viewBox="0 0 800 300" xmlns="http://www.w3.org/2000/svg"><defs><clipPath id="v"><rect width="800" height="300"/></clipPath></defs><rect width="800" height="300" fill="#DCEEF8"/><g clip-path="url(#v)"><path d="M1014,400L1016,399L1018,401L1017,406L1012,407L1008,406L1007,402L1010,399ZM1029,393L1024,395L1018,396L1017,393L1021,392L1024,391L1029,389L1029,389L1029,393ZM-1818,389L-1818,389L-1818,389L-1816,388L-1817,392L-1818,393L-1818,393L-1818,389Z" fill="#E0E0E0" stroke="#fff" stroke-width=".4"/><path d="M-127,267L-125,268L-97,284L-96,289L-85,297L-88,307L-88,311L-83,314L-83,316L-85,321L-84,323L-85,327L-82,332L-79,340L-76,342L-82,347L-91,350L-96,350L-98,352L-104,352L-106,353L-115,351L-121,352L-124,341L-126,337L-128,335L-136,333L-140,331L-145,329L-148,328L-152,326L-156,316L-160,312L-162,307L-161,303L-163,295L-159,295L-156,292L-153,288L-151,286L-152,284L-153,282L-154,279L-151,278L-151,273L-154,269L-151,268L-143,268Z" fill="#E0E0E0" stroke="#fff" stroke-width=".4"/><path d="M296,-188L290,-180L284,-179L283,-167L279,-162L263,-166L257,-145L253,-143L238,-138L245,-119L239,-117L240,-110L235,-112L231,-116L219,-117L206,-117L203,-116L192,-121L188,-118L186,-112L173,-116L168,-114L166,-110L162,-108L151,-100L148,-93L145,-93L143,-98L133,-98L131,-107L127,-107L128,-117L119,-125L105,-124L96,-123L88,-133L82,-137L69,-145L68,-146L48,-139L48,-99L44,-99L38,-107L33,-110L24,-108L21,-104L20,-107L22,-111L21,-115L11,-119L8,-129L3,-131L3,-135L11,-134L11,-142L18,-144L25,-142L26,-153L25,-160L17,-160L10,-163L1,-158L-6,-155L-10,-157L-10,-163L-15,-171L-21,-171L-27,-179L-23,-188L-25,-190L-19,-204L-11,-196L-10,-205L7,-219L19,-220L37,-211L46,-206L54,-211L67,-211L77,-205L79,-208L90,-208L92,-214L80,-223L87,-229L86,-232L93,-236L88,-245L91,-249L121,-254L125,-258L144,-263L151,-268L166,-265L168,-251L176,-255L187,-250L186,-243L194,-243L213,-256L210,-252L221,-241L238,-209L242,-215L253,-208L265,-211L269,-209L273,-202L278,-199L282,-194L292,-196Z" fill="#E0E0E0" stroke="#fff" stroke-width=".4"/><path d="M48,-99L48,-139L68,-146L69,-145L82,-137L88,-133L96,-123L105,-124L119,-125L128,-117L127,-107L131,-107L133,-98L143,-98L145,-93L148,-93L151,-100L162,-108L166,-110L169,-108L162,-102L168,-98L174,-100L183,-95L173,-87L167,-88L164,-88L162,-91L164,-96L154,-93L151,-87L147,-81L141,-81L139,-77L144,-75L146,-67L142,-57L136,-59L131,-59L132,-65L121,-69L113,-74L108,-79L99,-86L95,-97L92,-99L83,-98L80,-101L80,-109L69,-115L62,-109L56,-105L57,-100Z" fill="#E0E0E0" stroke="#fff" stroke-width=".4"/><path d="M720,280L734,286L749,290L754,294L758,298L760,303L773,308L775,312L767,313L769,318L776,324L781,332L786,332L786,335L792,337L789,338L798,342L797,344L792,345L790,342L783,342L775,340L769,335L764,331L760,324L750,320L743,323L738,325L739,331L733,334L729,333L720,332L720,306ZM812,289L815,291L816,295L814,298L812,293L810,290L807,287L802,284L797,282L799,280L803,282L806,284L809,285ZM802,306L797,308L793,310L789,310L783,308L778,305L779,303L786,304L790,303L791,300L792,299L793,304L798,303L800,300L804,298L804,293L808,293L810,294L810,298L807,303L803,304ZM829,302L831,304L835,309L839,312L838,314L836,315L832,312L829,307L827,301L828,300Z" fill="#E0E0E0" stroke="#fff" stroke-width=".4"/><path d="M720,280L720,306L720,332L713,326L705,324L703,326L693,327L697,320L702,318L700,309L696,303L681,296L674,295L662,288L660,292L657,292L655,289L655,286L649,282L657,279L663,279L662,277L651,277L648,273L641,271L637,267L648,265L652,263L665,266L666,269L668,282L676,286L683,278L692,273L699,273L706,276L712,279ZM593,330L594,332L594,334L589,340L582,342L582,341L582,339L586,334ZM667,314L666,309L667,306L669,303L671,305L671,309ZM537,227L533,234L539,242L537,245L546,253L537,254L534,259L535,266L527,272L527,279L524,292L523,289L514,292L510,288L505,287L501,285L491,287L489,284L483,284L477,283L476,272L472,270L468,263L467,257L468,249L472,244L474,249L479,254L484,252L489,253L494,249L498,248L505,250L512,249L516,238L519,235L521,226L531,226ZM628,282L637,284L640,290L633,287L627,286L622,287L617,287L618,282ZM609,290L603,288L602,285L610,285L611,287ZM617,243L617,247L622,248L623,251L622,258L618,257L617,262L620,266L618,267L615,262L613,252L614,246ZM577,253L586,253L594,247L596,249L589,256L583,258L576,256L563,257L556,258L555,264L562,271L566,267L581,265L580,268L577,267L573,272L566,275L574,285L572,288L579,297L579,302L575,304L572,302L576,295L568,298L566,296L567,293L561,288L562,281L557,283L557,292L558,304L553,305L549,302L551,295L550,287L547,287L544,282L548,277L549,271L553,259L554,255L561,250L567,252ZM556,341L546,336L553,334L558,337L560,339L560,341ZM565,328L570,327L577,324L576,329L564,331L554,330L554,327L560,325ZM540,326L545,326L547,329L538,331L533,332L528,332L531,327L535,327L538,324ZM463,311L464,314L479,314L481,311L496,315L499,320L511,322L520,326L511,329L502,326L495,326L487,326L480,324L471,321L465,320L461,321L447,318L446,315L438,314L444,307L453,307L460,310ZM431,268L432,274L435,278L441,279L444,284L442,294L442,306L433,306L427,300L416,293L413,288L407,282L403,276L397,265L390,258L388,252L385,245L378,240L374,234L368,229L360,220L359,216L364,217L376,218L383,226L389,231L394,235L401,243L409,243L416,249L420,255L426,259L423,265L428,268Z" fill="#E0E0E0" stroke="#fff" stroke-width=".4"/><path d="M-163,295L-161,303L-162,307L-160,312L-156,316L-152,326L-155,325L-165,327L-167,328L-170,333L-168,336L-169,346L-170,354L-168,355L-163,358L-160,357L-160,366L-166,366L-169,361L-172,358L-178,357L-180,352L-185,355L-191,354L-194,350L-199,349L-202,349L-203,347L-206,347L-209,346L-214,348L-217,347L-219,348L-219,338L-222,335L-222,331L-221,326L-223,323L-223,318L-232,318L-232,315L-236,315L-236,316L-241,317L-243,321L-244,323L-249,322L-251,323L-256,324L-259,320L-261,317L-264,312L-265,306L-289,306L-292,307L-294,307L-297,308L-298,306L-296,305L-296,301L-295,299L-292,298L-290,299L-287,295L-283,296L-282,298L-279,299L-275,294L-270,290L-268,288L-268,281L-265,274L-261,270L-256,266L-255,263L-255,260L-254,258L-254,253L-253,246L-252,241L-249,237L-249,232L-248,227L-245,223L-241,220L-234,223L-229,226L-223,226L-217,228L-215,223L-214,223L-210,223L-202,219L-198,221L-196,221L-195,219L-192,218L-186,219L-181,219L-178,218L-173,225L-170,226L-168,225L-164,225L-160,223L-158,227L-151,232L-151,241L-148,242L-151,245L-154,247L-157,251L-158,255L-159,261L-161,264L-161,270L-163,273L-163,277L-164,278L-165,282L-163,286Z" fill="#E0E0E0" stroke="#fff" stroke-width=".4"/><path d="M-66,273L-70,267L-71,238L-64,229L-61,226L-56,226L-49,221L-39,220L-17,196L-11,190L-8,185L-8,181L-8,172L-8,169L-8,169L-5,169L-1,168L3,167L7,164L10,164L10,166L9,171L9,175L7,178L5,187L1,196L-4,206L-10,218L-17,226L-26,237L-34,244L-46,252L-54,258L-62,267L-64,271Z" fill="#E0E0E0" stroke="#fff" stroke-width=".4"/><path d="M-85,297L-96,289L-97,284L-125,268L-127,267L-127,259L-124,256L-120,251L-118,245L-121,236L-122,232L-126,226L-121,221L-116,216L-111,218L-111,222L-109,225L-103,225L-93,231L-91,231L-89,231L-87,232L-82,233L-79,229L-72,226L-69,229L-64,229L-71,238L-70,267L-66,273L-71,276L-73,280L-76,280L-77,286L-80,289L-81,294Z" fill="#E0E0E0" stroke="#fff" stroke-width=".4"/><path d="M-200,195L-206,191L-209,189L-210,186L-208,183L-208,180L-213,175L-214,171L-214,169L-217,167L-217,162L-218,159L-221,160L-220,157L-218,153L-219,150L-217,147L-218,145L-216,140L-213,134L-206,135L-206,102L-206,98L-197,98L-197,81L-165,81L-134,81L-103,81L-101,90L-102,91L-101,100L-98,110L-95,112L-91,115L-95,120L-101,121L-103,124L-104,129L-107,141L-107,145L-108,152L-111,160L-116,164L-119,170L-120,173L-124,175L-126,184L-126,191L-126,185L-127,185L-127,181L-128,178L-132,175L-133,169L-132,163L-136,162L-136,164L-141,164L-139,167L-138,172L-143,176L-147,182L-151,183L-157,178L-160,180L-161,182L-165,184L-166,185L-173,185L-175,184L-180,183L-183,185L-185,184L-189,179L-191,177L-196,178L-199,182L-201,189L-203,191L-206,191Z" fill="#E0E0E0" stroke="#fff" stroke-width=".4"/><path d="M347,-893L364,-905L379,-879L398,-834L396,-795L378,-790L356,-802L343,-818L337,-850L326,-860ZM418,-812L439,-789L436,-772L392,-758L406,-810L413,-815ZM703,-695L724,-693L753,-676L746,-653L717,-654L704,-647L688,-667L693,-689ZM777,-669L797,-661L788,-649L775,-652L761,-664L763,-674ZM711,-611L719,-622L729,-625L740,-614L741,-607L729,-607L713,-610ZM-40,-871L-25,-880L-13,-881L-11,-868L-6,-879L1,-888L13,-877L10,-869L-1,-863L-8,-859L-9,-852L-18,-844L-27,-855L-22,-870ZM-215,-254L-229,-254L-239,-255L-237,-261L-226,-266L-218,-263L-215,-261L-216,-257ZM28,-622L47,-647L45,-661L63,-678L89,-699L115,-705L129,-718L144,-722L150,-708L144,-698L116,-682L92,-667L68,-638L56,-610L44,-584L45,-563L60,-543L56,-541L30,-544L28,-555L13,-562L12,-575L20,-581L20,-595L36,-618ZM735,-245L738,-233L738,-220L741,-207L749,-186L737,-190L733,-172L740,-160L740,-152L734,-159L729,-150L727,-160L728,-171L727,-184L729,-193L730,-210L725,-222L726,-240L733,-246L730,-252L733,-254ZM-1818,-503L-1818,-503L-1798,-486L-1778,-466L-1778,-453L-1773,-448L-1775,-463L-1753,-460L-1738,-441L-1746,-433L-1759,-431L-1759,-413L-1762,-409L-1769,-409L-1775,-416L-1786,-421L-1788,-429L-1796,-432L-1805,-430L-1809,-437L-1807,-444L-1817,-439L-1813,-430L-1818,-422L-1818,-422L-1818,-503ZM1029,-422L1028,-422L1018,-414L1008,-415L1015,-406L1020,-391L1024,-386L1024,-379L1022,-374L1008,-378L986,-365L979,-364L966,-352L955,-342L952,-335L941,-346L920,-333L917,-339L909,-332L898,-335L896,-324L886,-310L887,-304L896,-300L895,-279L887,-279L884,-267L887,-261L873,-254L871,-239L859,-236L856,-222L845,-211L842,-219L839,-238L834,-268L838,-288L845,-297L845,-304L857,-307L872,-326L885,-342L899,-355L906,-379L896,-377L891,-363L871,-345L865,-366L845,-360L825,-333L831,-323L814,-319L801,-318L802,-329L790,-331L780,-324L756,-326L730,-322L704,-293L674,-259L686,-258L690,-249L698,-246L703,-253L712,-252L723,-237L723,-226L717,-213L716,-199L713,-179L701,-162L698,-154L687,-141L677,-128L672,-122L661,-115L656,-115L651,-121L641,-113L639,-109L639,-109L638,-111L638,-116L642,-117L643,-130L641,-139L648,-143L658,-141L663,-152L666,-165L669,-169L673,-180L660,-176L653,-171L641,-171L638,-183L628,-191L615,-195L612,-207L609,-215L606,-220L601,-233L594,-238L582,-242L572,-242L562,-239L556,-233L560,-230L560,-223L556,-219L548,-205L549,-200L537,-192L528,-197L518,-196L514,-200L510,-201L498,-192L488,-190L480,-187L470,-189L463,-189L458,-195L451,-201L443,-203L433,-201L425,-199L414,-204L412,-214L403,-217L396,-218L387,-224L379,-211L382,-203L374,-195L363,-198L355,-198L350,-204L342,-204L335,-208L323,-202L308,-192L299,-189L296,-188L292,-196L282,-194L278,-199L273,-202L269,-209L265,-211L253,-208L242,-215L238,-209L221,-241L210,-252L213,-256L194,-243L186,-243L187,-250L176,-255L168,-251L166,-265L151,-268L144,-263L125,-258L121,-254L91,-249L88,-245L93,-236L86,-232L87,-229L80,-223L92,-214L90,-208L79,-208L77,-205L67,-211L54,-211L46,-206L37,-211L19,-220L7,-219L-10,-205L-11,-196L-19,-204L-25,-190L-23,-188L-27,-179L-21,-171L-15,-171L-10,-163L-10,-157L-6,-155L-10,-148L-18,-147L-25,-135L-18,-125L-19,-117L-10,-105L-15,-100L-17,-98L-20,-98L-25,-105L-28,-105L-33,-108L-35,-112L-42,-114L-47,-113L-49,-115L-59,-120L-71,-122L-78,-123L-79,-122L-89,-131L-98,-136L-105,-142L-99,-144L-92,-153L-97,-158L-85,-163L-85,-165L-92,-163L-92,-169L-88,-172L-80,-173L-79,-177L-81,-183L-78,-190L-78,-193L-89,-197L-94,-197L-99,-203L-105,-201L-115,-205L-115,-208L-118,-213L-124,-214L-125,-218L-123,-220L-128,-227L-136,-226L-138,-227L-140,-224L-143,-224L-145,-233L-147,-237L-146,-238L-139,-238L-136,-241L-138,-244L-144,-247L-143,-249L-146,-252L-151,-260L-150,-264L-150,-271L-158,-274L-162,-272L-163,-276L-172,-279L-174,-288L-175,-295L-179,-298L-175,-303L-178,-317L-172,-326L-173,-328L-164,-337L-173,-345L-156,-366L-148,-375L-145,-384L-157,-396L-154,-408L-161,-422L-156,-438L-165,-460L-158,-476L-170,-490L-169,-505L-162,-507L-149,-516L-141,-524L-128,-510L-106,-505L-76,-481L-70,-471L-69,-457L-78,-447L-91,-442L-126,-457L-132,-454L-119,-440L-119,-431L-118,-412L-108,-406L-102,-402L-101,-410L-106,-418L-101,-425L-82,-414L-75,-418L-80,-432L-62,-451L-54,-450L-47,-443L-43,-457L-49,-469L-45,-481L-51,-494L-29,-487L-24,-476L-34,-473L-34,-462L-28,-455L-16,-459L-14,-472L3,-482L30,-501L36,-499L28,-486L38,-484L44,-491L59,-492L70,-501L79,-488L88,-502L80,-515L84,-523L107,-516L118,-509L147,-484L152,-495L144,-507L144,-512L135,-514L137,-525L133,-543L133,-551L147,-573L153,-597L158,-602L179,-595L181,-581L173,-560L178,-552L181,-535L179,-504L188,-491L184,-477L169,-448L178,-445L181,-452L190,-457L192,-467L199,-477L194,-489L198,-503L189,-505L187,-518L194,-541L183,-561L198,-578L196,-597L200,-597L204,-583L201,-558L209,-554L206,-572L219,-582L235,-583L250,-569L243,-590L242,-619L256,-625L275,-624L292,-627L285,-642L295,-662L304,-663L319,-679L340,-683L343,-692L363,-695L370,-687L388,-705L402,-704L404,-719L412,-734L430,-749L444,-737L433,-729L451,-723L453,-706L461,-714L484,-714L501,-698L508,-685L506,-669L497,-660L476,-643L470,-634L480,-630L492,-623L499,-628L503,-610L506,-618L519,-622L545,-617L546,-604L579,-600L580,-622L597,-617L609,-617L622,-602L626,-585L621,-574L631,-555L643,-545L651,-571L664,-559L677,-566L693,-558L698,-565L711,-562L706,-586L716,-597L752,-590L787,-580L794,-565L815,-546L847,-551L863,-547L869,-537L868,-520L878,-513L888,-518L902,-519L917,-514L932,-517L946,-497L956,-504L950,-518L953,-529L978,-522L995,-523L1017,-513L1029,-503L1029,-422ZM1029,-546L1020,-545L1018,-552L1029,-563L1029,-546ZM-1818,-563L-1818,-563L-1818,-563L-1817,-564L-1810,-564L-1799,-557L-1799,-553L-1807,-547L-1818,-546L-1818,-546L-1818,-563ZM-130,-150L-128,-153L-123,-151L-120,-150L-119,-148L-118,-148L-118,-147L-114,-144L-106,-145L-107,-141L-116,-139L-127,-132L-131,-135L-129,-140L-138,-143L-137,-145L-129,-149Z" fill="#E0E0E0" stroke="#fff" stroke-width=".4"/><path d="M593,330L594,329L601,327L607,326L609,325L612,326L609,329L601,332L594,334L594,332Z" fill="#E0E0E0" stroke="#fff" stroke-width=".4"/><path d="M-265,496L-262,491L-258,494L-257,498L-254,498L-249,500L-244,499L-237,495L-237,462L-235,463L-230,472L-231,477L-229,480L-224,479L-220,475L-216,473L-214,468L-210,466L-207,468L-203,470L-197,470L-192,468L-191,466L-189,461L-185,461L-183,457L-180,452L-173,445L-162,439L-159,439L-155,441L-152,440L-148,440L-144,452L-142,459L-144,468L-143,471L-147,470L-149,470L-150,473L-152,476L-152,479L-147,484L-143,483L-141,479L-135,479L-137,486L-138,493L-140,497L-145,502L-147,503L-150,508L-152,513L-157,519L-166,529L-171,534L-177,539L-186,542L-190,543L-191,545L-196,544L-199,546L-208,544L-213,545L-216,545L-224,548L-231,550L-236,554L-240,554L-243,550L-246,550L-249,546L-249,547L-250,545L-250,539L-253,533L-250,531L-251,524L-256,515L-260,508L-260,508ZM-165,499L-169,496L-173,498L-177,502L-181,508L-175,515L-172,514L-171,511L-166,509L-165,506L-163,502Z" fill="#E0E0E0" stroke="#fff" stroke-width=".4"/><path d="M-165,499L-163,502L-165,506L-166,509L-171,511L-172,514L-175,515L-181,508L-177,502L-173,498L-169,496Z" fill="#E0E0E0" stroke="#fff" stroke-width=".4"/><path d="M-148,440L-152,440L-155,441L-159,439L-162,439L-167,435L-173,434L-175,428L-175,426L-179,425L-188,415L-190,411L-192,409L-195,402L-186,403L-183,404L-181,404L-176,399L-170,392L-167,391L-166,388L-161,385L-155,384L-155,387L-148,387L-144,389L-143,391L-139,391L-135,394L-135,404L-136,410L-137,416L-135,419L-136,424L-138,425L-140,431Z" fill="#E0E0E0" stroke="#fff" stroke-width=".4"/><path d="M-162,439L-173,445L-180,452L-183,457L-185,461L-189,461L-191,466L-192,468L-197,470L-203,470L-207,468L-210,466L-214,468L-216,473L-220,475L-224,479L-229,480L-231,477L-230,472L-235,463L-237,462L-237,437L-229,437L-229,407L-223,406L-211,403L-208,407L-203,404L-201,404L-196,402L-195,402L-192,409L-190,411L-188,415L-179,425L-175,426L-175,428L-173,434L-167,435Z" fill="#E0E0E0" stroke="#fff" stroke-width=".4"/><path d="M-237,462L-237,495L-244,499L-249,500L-254,498L-257,498L-258,494L-262,491L-265,496L-271,489L-274,482L-276,474L-278,468L-281,454L-281,444L-282,439L-285,436L-289,429L-293,419L-295,413L-301,405L-302,399L-298,397L-293,396L-288,396L-283,400L-282,399L-250,399L-245,403L-226,404L-211,401L-205,399L-199,399L-196,401L-196,402L-201,404L-203,404L-208,407L-211,403L-223,406L-229,407L-229,437L-237,437Z" fill="#E0E0E0" stroke="#fff" stroke-width=".4"/><path d="M-178,218L-181,219L-186,219L-192,218L-195,219L-196,221L-198,221L-202,219L-210,223L-214,223L-215,223L-217,228L-223,226L-229,226L-234,223L-241,220L-245,223L-248,227L-249,232L-254,232L-259,230L-264,235L-268,242L-269,240L-269,236L-273,233L-276,229L-276,227L-280,222L-279,220L-280,217L-280,211L-278,209L-274,201L-267,200L-266,198L-264,199L-263,200L-253,197L-249,194L-245,191L-246,189L-244,188L-236,188L-229,185L-223,176L-219,173L-214,171L-213,175L-208,180L-208,183L-210,186L-209,189L-206,191L-200,195L-196,198L-196,200L-191,205L-187,208L-185,213L-179,216Z" fill="#E0E0E0" stroke="#fff" stroke-width=".4"/><path d="M-152,326L-148,328L-145,329L-140,331L-136,333L-132,337L-130,344L-131,346L-133,352L-131,359L-134,362L-136,369L-132,371L-156,378L-155,384L-161,385L-166,388L-167,391L-170,392L-176,399L-181,404L-183,404L-186,403L-195,402L-196,402L-196,401L-199,399L-205,399L-211,401L-216,395L-222,389L-221,363L-205,363L-205,360L-204,357L-206,353L-205,349L-206,347L-203,347L-202,349L-199,349L-194,350L-191,354L-185,355L-180,352L-178,357L-172,358L-169,361L-166,366L-160,366L-160,357L-163,358L-168,355L-170,354L-169,346L-168,336L-170,333L-167,328L-165,327L-155,325Z" fill="#E0E0E0" stroke="#fff" stroke-width=".4"/><path d="M-136,333L-128,335L-126,337L-124,341L-121,352L-124,358L-121,368L-119,368L-116,371L-112,377L-112,387L-115,389L-118,395L-123,390L-123,384L-122,380L-122,377L-125,375L-127,375L-132,371L-136,369L-134,362L-131,359L-133,352L-131,346L-130,344L-132,337Z" fill="#E0E0E0" stroke="#fff" stroke-width=".4"/><path d="M-121,352L-115,351L-106,353L-104,352L-98,352L-96,350L-91,350L-82,347L-76,342L-75,345L-75,353L-74,361L-74,373L-72,377L-75,383L-78,389L-83,394L-90,397L-99,401L-108,410L-111,412L-116,418L-120,419L-120,425L-116,432L-115,437L-115,439L-113,439L-114,447L-115,451L-113,453L-114,456L-118,460L-124,462L-134,467L-137,470L-136,474L-134,475L-135,479L-141,479L-142,475L-143,471L-144,468L-142,459L-144,452L-148,440L-140,431L-138,425L-136,424L-135,419L-137,416L-136,410L-135,404L-135,394L-139,391L-143,391L-144,389L-148,387L-155,387L-155,384L-156,378L-132,371L-127,375L-125,375L-122,377L-122,380L-123,384L-123,390L-118,395L-115,389L-112,387L-112,377L-116,371L-119,368L-121,368L-124,358Z" fill="#E0E0E0" stroke="#fff" stroke-width=".4"/><path d="M-141,479L-143,483L-147,484L-152,479L-152,476L-150,473L-149,470L-147,470L-143,471L-142,475Z" fill="#E0E0E0" stroke="#fff" stroke-width=".4"/><path d="M-154,279L-153,282L-152,284L-151,286L-153,288L-156,292L-159,295L-163,295L-163,286L-165,282L-160,283L-158,278Z" fill="#E0E0E0" stroke="#fff" stroke-width=".4"/><path d="M-112,-14L-114,-11L-116,-12L-118,-6L-116,-5L-118,-4L-118,-1L-115,-3L-115,1L-118,16L-119,13L-124,-0L-121,-3L-122,-4L-120,-8L-118,-15L-117,-18L-117,-18L-114,-18L-114,-19L-111,-19L-111,-16L-112,-14Z" fill="#E0E0E0" stroke="#fff" stroke-width=".4"/><path d="M-111,-19L-114,-19L-114,-18L-117,-18L-114,-25L-110,-32L-110,-32L-106,-32L-105,-28L-109,-25Z" fill="#E0E0E0" stroke="#fff" stroke-width=".4"/><path d="M-3,359L-1,363L1,368L2,378L5,382L4,386L2,388L-0,383L-2,386L-0,392L-1,395L-3,397L-4,404L-7,414L-11,425L-16,442L-19,454L-22,464L-29,466L-36,469L-40,467L-46,464L-49,459L-49,452L-52,445L-53,439L-51,433L-48,431L-48,428L-44,422L-43,417L-45,413L-46,407L-47,400L-44,395L-43,390L-39,390L-35,388L-32,386L-28,386L-24,382L-17,377L-15,372L-16,369L-13,370L-8,364L-8,359L-6,356Z" fill="#E0E0E0" stroke="#fff" stroke-width=".4"/><path d="M-115,-3L-118,-1L-118,-4L-116,-5L-118,-6L-116,-12L-114,-11L-114,-5Z" fill="#E0E0E0" stroke="#fff" stroke-width=".4"/><path d="M-114,-11L-112,-14L-103,-10L-88,-20L-85,-9L-86,-8L-102,-3L-94,6L-97,8L-98,11L-104,12L-106,16L-109,18L-118,17L-118,16L-115,1L-115,-3L-114,-5Z" fill="#E0E0E0" stroke="#fff" stroke-width=".4"/><path d="M13,62L15,62L15,64L21,63L28,63L32,63L38,57L44,52L49,46L50,49L51,56L47,56L47,62L48,63L44,65L44,68L42,72L42,75L40,77L17,73L14,64Z" fill="#E0E0E0" stroke="#fff" stroke-width=".4"/><path d="M7,58L7,51L9,47L11,46L13,49L13,54L12,59L10,59Z" fill="#E0E0E0" stroke="#fff" stroke-width=".4"/><path d="M-15,11L-14,15L-14,17L-12,24L-17,24L-19,20L-26,19L-21,10Z" fill="#E0E0E0" stroke="#fff" stroke-width=".4"/><path d="M-85,-9L-88,-20L-70,-30L-67,-42L-68,-49L-64,-52L-60,-58L-56,-59L-47,-58L-44,-55L-41,-57L-35,-45L-30,-42L-30,-37L-34,-33L-36,-26L-30,-17L-20,-12L-16,-5L-18,2L-15,2L-15,7L-11,12L-15,11L-21,10L-26,19L-41,18L-63,0L-75,-6Z" fill="#E0E0E0" stroke="#fff" stroke-width=".4"/><path d="M42,75L42,72L44,68L44,65L48,63L47,62L47,56L51,56L55,62L59,65L65,66L70,68L73,73L75,76L78,77L78,79L75,84L74,86L71,89L68,95L64,94L63,96L61,101L62,106L62,107L58,107L53,110L52,114L50,116L45,116L42,118L42,122L39,124L34,123L29,126L25,126L23,121L17,107L40,98L46,81ZM50,49L49,46L51,43L52,44L51,48Z" fill="#E0E0E0" stroke="#fff" stroke-width=".4"/><path d="M927,387L932,392L930,393L927,389ZM924,385L923,383L923,377L927,379L928,386L926,385Z" fill="#E0E0E0" stroke="#fff" stroke-width=".4"/><path d="M416,163L415,153L420,146L430,145L437,146L444,149L447,143L454,146L456,152L455,162L442,168L445,173L437,173L430,176L424,175L420,171Z" fill="#E0E0E0" stroke="#fff" stroke-width=".4"/><path d="M454,146L447,143L444,149L437,146L440,142L440,135L434,128L433,120L427,113L421,113L420,115L415,116L413,114L404,119L404,112L406,103L401,103L400,97L397,95L399,92L405,86L406,88L410,88L409,79L413,78L418,84L421,92L431,92L434,99L429,102L427,105L436,110L443,119L448,127L454,132L456,138Z" fill="#E0E0E0" stroke="#fff" stroke-width=".4"/><path d="M397,95L392,97L388,100L382,101L379,110L375,111L379,119L384,125L387,130L384,137L382,139L384,143L389,149L390,154L390,158L393,165L388,173L385,181L384,175L386,169L384,164L384,155L381,151L378,141L377,131L374,124L368,128L359,134L355,133L350,131L353,121L351,113L345,104L346,101L341,100L336,93L335,86L338,87L338,81L342,79L341,75L343,73L343,64L349,66L353,58L353,54L358,47L358,42L368,36L373,37L373,32L375,30L375,27L380,26L382,31L386,33L386,40L386,48L378,55L377,65L385,64L387,72L392,73L390,80L396,84L399,85L405,83L405,86L399,92Z" fill="#E0E0E0" stroke="#fff" stroke-width=".4"/><path d="M430,176L437,173L445,173L442,168L455,162L456,152L454,146L456,138L454,132L448,127L443,119L436,110L427,105L429,102L434,99L431,92L421,92L418,84L413,78L417,75L424,75L431,74L438,70L442,73L449,75L448,80L452,83L460,85L449,93L443,100L441,106L447,115L454,126L461,131L466,138L470,153L469,167L462,172L453,177L447,184L437,192L434,186L436,181Z" fill="#E0E0E0" stroke="#fff" stroke-width=".4"/><path d="M639,-109L639,-109L639,-109ZM638,-111L639,-109L636,-110L633,-106L631,-102L631,-95L627,-93L625,-91L622,-88L617,-86L614,-83L613,-79L613,-78L616,-76L620,-72L619,-69L616,-68L610,-68L607,-63L603,-64L603,-63L599,-65L598,-63L596,-62L596,-64L594,-65L591,-66L594,-71L595,-72L595,-74L597,-79L596,-81L592,-82L588,-85L594,-92L603,-97L608,-105L612,-101L619,-101L618,-107L630,-111L633,-117Z" fill="#E0E0E0" stroke="#fff" stroke-width=".4"/><path d="M603,-63L603,-64L607,-63L610,-68L616,-68L619,-69L620,-72L627,-60L629,-53L629,-42L626,-37L619,-35L613,-31L605,-30L605,-35L606,-43L603,-53L608,-54Z" fill="#E0E0E0" stroke="#fff" stroke-width=".4"/><path d="M299,-189L308,-192L323,-202L335,-208L342,-204L350,-204L355,-198L363,-198L374,-195L382,-203L379,-211L387,-224L396,-218L403,-217L412,-214L414,-204L425,-199L433,-201L443,-203L451,-201L458,-195L463,-189L470,-189L480,-187L488,-190L498,-192L510,-201L514,-200L518,-196L528,-197L524,-187L518,-175L521,-171L525,-172L533,-170L539,-175L545,-171L552,-163L552,-159L545,-160L534,-158L528,-155L522,-148L510,-143L502,-137L494,-140L490,-141L486,-133L488,-129L490,-126L484,-122L478,-116L469,-112L457,-112L445,-108L435,-102L432,-106L422,-106L411,-112L403,-114L392,-112L376,-115L367,-114L363,-121L359,-131L354,-132L345,-139L334,-141L324,-143L322,-148L325,-161L319,-170L308,-175L301,-181Z" fill="#E0E0E0" stroke="#fff" stroke-width=".4"/><path d="M375,27L375,30L373,32L373,37L368,36L358,42L358,47L353,54L353,58L349,66L343,64L343,73L341,75L342,79L338,81L334,68L332,68L330,73L326,69L329,64L332,63L336,56L331,54L324,54L316,53L316,47L312,47L306,43L303,49L309,54L304,57L302,60L307,62L305,67L308,74L309,81L308,84L303,84L293,86L294,92L289,97L278,103L269,113L263,118L255,123L255,127L251,129L244,132L240,133L238,139L240,149L240,156L237,164L237,178L233,178L229,184L232,187L224,189L222,194L218,197L211,189L207,178L204,170L202,166L197,158L195,148L194,143L187,132L184,116L181,105L181,95L180,87L168,92L163,91L152,81L156,78L154,74L144,67L150,61L167,61L166,54L161,49L160,43L155,39L164,29L173,30L181,20L186,11L194,2L194,-5L200,-10L194,-15L191,-21L188,-29L192,-33L204,-31L213,-33L221,-41L229,-29L229,-22L232,-17L231,-12L226,-13L228,-3L236,3L247,9L242,13L239,22L246,25L254,30L264,35L275,36L279,40L286,41L295,43L302,43L303,40L302,34L302,30L307,28L308,35L308,37L315,40L320,39L327,40L333,39L334,34L330,31L337,30L344,23L353,18L360,20L365,16L369,22L366,25Z" fill="#E0E0E0" stroke="#fff" stroke-width=".4"/><path d="M338,81L338,87L335,86L336,93L333,88L333,84L331,80L328,75L321,75L322,78L319,83L316,81L315,83L312,82L309,81L308,74L305,67L307,62L302,60L304,57L309,54L303,49L306,43L312,47L316,47L316,53L324,54L331,54L336,56L332,63L329,64L326,69L330,73L332,68L334,68Z" fill="#E0E0E0" stroke="#fff" stroke-width=".4"/><path d="M330,31L334,34L333,39L327,40L320,39L315,40L308,37L308,35L313,29L317,26L323,29L327,29Z" fill="#E0E0E0" stroke="#fff" stroke-width=".4"/><path d="M302,30L302,34L303,40L302,43L295,43L286,41L279,40L275,36L264,35L254,30L246,25L239,22L242,13L247,9L250,7L256,10L264,16L269,17L271,22L278,23L284,27L293,29Z" fill="#E0E0E0" stroke="#fff" stroke-width=".4"/><path d="M221,-41L213,-33L204,-31L192,-33L188,-29L191,-21L194,-15L200,-10L194,-5L194,2L186,11L181,20L173,30L164,29L155,39L160,43L161,49L166,54L167,61L150,61L144,67L139,65L136,59L130,52L116,54L103,54L92,55L95,45L106,40L105,36L102,35L101,27L94,23L91,17L87,13L100,17L108,16L113,17L114,15L120,16L130,12L130,4L135,-1L141,-1L141,-4L147,-5L150,-4L153,-7L153,-12L156,-18L161,-20L158,-26L166,-26L168,-30L168,-33L172,-37L171,-42L169,-46L173,-51L182,-53L191,-54L195,-56L200,-57L205,-52L208,-45Z" fill="#E0E0E0" stroke="#fff" stroke-width=".4"/><path d="M131,-59L136,-59L142,-57L144,-56L150,-59L152,-57L155,-61L160,-61L161,-63L162,-67L165,-70L170,-68L169,-65L171,-64L170,-56L173,-53L176,-55L180,-56L185,-60L190,-60L198,-60L200,-57L195,-56L191,-54L182,-53L173,-51L169,-46L171,-42L172,-37L168,-33L168,-30L166,-26L158,-26L161,-20L156,-18L153,-12L153,-7L150,-4L147,-5L141,-4L141,-1L135,-1L130,4L130,12L120,16L114,15L113,17L108,16L100,17L87,13L94,4L93,-2L87,-3L87,-9L84,-17L87,-22L84,-23L86,-30L89,-42L97,-38L103,-40L105,-44L111,-46L116,-49L117,-57L124,-58L125,-62L129,-59Z" fill="#E0E0E0" stroke="#fff" stroke-width=".4"/><path d="M142,-57L146,-67L144,-75L139,-77L141,-81L147,-81L151,-87L154,-93L164,-96L162,-91L164,-88L167,-88L164,-85L155,-87L155,-81L163,-82L173,-78L188,-80L190,-70L193,-72L197,-69L197,-65L198,-60L190,-60L185,-60L180,-56L176,-55L173,-53L170,-56L171,-64L169,-65L170,-68L165,-70L162,-67L161,-63L160,-61L155,-61L152,-57L150,-59L144,-56Z" fill="#E0E0E0" stroke="#fff" stroke-width=".4"/><path d="M166,-110L168,-114L173,-116L186,-112L188,-118L192,-121L203,-116L206,-117L219,-117L231,-116L235,-112L240,-110L239,-108L226,-102L224,-98L213,-97L210,-90L202,-92L197,-90L189,-85L190,-82L188,-80L173,-78L163,-82L155,-81L155,-87L164,-85L167,-88L173,-87L183,-95L174,-100L168,-98L162,-102L169,-108Z" fill="#E0E0E0" stroke="#fff" stroke-width=".4"/><path d="M21,-104L24,-108L33,-110L38,-107L44,-99L48,-99L57,-100L56,-105L62,-109L69,-115L80,-109L80,-101L83,-98L92,-99L95,-97L99,-86L108,-79L113,-74L121,-69L132,-65L131,-59L129,-59L125,-62L124,-58L117,-57L116,-49L111,-46L105,-44L103,-40L97,-38L89,-42L89,-50L83,-51L74,-60L67,-61L59,-66L53,-67L50,-65L44,-65L39,-59L32,-57L30,-64L31,-75L25,-78L27,-85L22,-86L24,-95L31,-92L38,-96L32,-102L30,-108L24,-105L23,-98Z" fill="#E0E0E0" stroke="#fff" stroke-width=".4"/><path d="M-11,12L-15,7L-15,2L-18,2L-16,-5L-20,-12L-30,-17L-36,-26L-34,-33L-30,-37L-30,-42L-35,-45L-41,-57L-45,-65L-43,-68L-46,-80L-40,-83L-39,-79L-35,-74L-30,-73L-27,-73L-18,-81L-15,-81L-12,-78L-15,-73L-10,-68L-8,-69L-6,-61L2,-59L7,-54L19,-52L31,-55L32,-57L39,-59L44,-65L50,-65L53,-67L59,-66L67,-61L74,-60L83,-51L89,-50L89,-42L86,-30L84,-23L87,-22L84,-17L87,-9L87,-3L93,-2L94,4L87,13L91,17L94,23L101,27L102,35L105,36L106,40L95,45L92,55L77,52L68,50L59,49L56,38L52,37L46,38L38,43L28,40L20,33L13,30L7,22L2,10L-3,11L-8,8Z" fill="#E0E0E0" stroke="#fff" stroke-width=".4"/><path d="M-112,-14L-112,-14L-111,-16L-111,-19L-109,-25L-105,-28L-106,-32L-110,-32L-111,-40L-109,-44L-107,-46L-105,-48L-104,-54L-102,-52L-93,-54L-89,-53L-82,-53L-73,-56L-69,-56L-60,-58L-64,-52L-68,-49L-67,-42L-70,-30L-88,-20L-103,-10Z" fill="#E0E0E0" stroke="#fff" stroke-width=".4"/><path d="M-27,-73L-30,-73L-33,-79L-33,-80L-36,-80L-39,-83L-40,-83L-44,-86L-49,-88L-49,-93L-50,-97L-39,-99L-37,-96L-34,-94L-36,-92L-32,-88L-34,-85L-31,-82L-27,-80Z" fill="#E0E0E0" stroke="#fff" stroke-width=".4"/><path d="M-143,-224L-140,-224L-138,-227L-136,-226L-128,-227L-123,-220L-125,-218L-124,-214L-118,-213L-115,-208L-115,-205L-105,-201L-99,-203L-94,-197L-89,-197L-78,-193L-78,-190L-81,-183L-79,-177L-80,-173L-88,-172L-92,-169L-92,-163L-99,-162L-104,-159L-111,-158L-118,-154L-118,-148L-119,-148L-120,-150L-123,-151L-128,-153L-130,-150L-131,-152L-144,-154L-144,-159L-151,-157L-154,-151L-161,-143L-164,-145L-168,-143L-171,-145L-169,-146L-168,-150L-166,-154L-166,-156L-165,-157L-164,-155L-159,-155L-157,-156L-159,-157L-158,-158L-161,-161L-162,-166L-165,-168L-164,-172L-168,-175L-171,-176L-177,-179L-182,-178L-184,-177L-187,-177L-189,-174L-195,-173L-198,-171L-202,-174L-207,-174L-212,-175L-215,-172L-216,-176L-220,-179L-218,-184L-216,-187L-215,-186L-217,-192L-209,-202L-205,-203L-205,-207L-209,-218L-205,-218L-200,-222L-194,-222L-186,-221L-178,-218L-171,-218L-168,-216L-165,-218L-163,-215L-156,-216L-153,-214L-152,-221L-150,-224Z" fill="#E0E0E0" stroke="#fff" stroke-width=".4"/><path d="M-184,-177L-182,-178L-177,-179L-171,-176L-168,-175L-164,-172L-165,-168L-162,-166L-161,-161L-158,-158L-159,-157L-157,-156L-159,-155L-164,-155L-165,-157L-166,-156L-166,-154L-168,-150L-169,-146L-171,-145L-173,-150L-172,-155L-172,-160L-177,-167L-179,-172L-182,-175Z" fill="#E0E0E0" stroke="#fff" stroke-width=".4"/><path d="M-171,-145L-168,-143L-164,-145L-161,-143L-160,-140L-164,-137L-167,-138L-169,-125L-173,-126L-179,-130L-189,-128L-192,-125L-204,-125L-210,-127L-213,-126L-215,-131L-217,-133L-215,-135L-217,-136L-219,-134L-224,-137L-225,-141L-230,-144L-230,-148L-235,-152L-228,-154L-224,-162L-220,-170L-215,-172L-212,-175L-207,-174L-202,-174L-198,-171L-195,-173L-189,-174L-187,-177L-184,-177L-182,-175L-179,-172L-177,-167L-172,-160L-172,-155L-173,-150Z" fill="#E0E0E0" stroke="#fff" stroke-width=".4"/><path d="M-215,-131L-213,-126L-210,-127L-204,-125L-192,-125L-189,-128L-179,-130L-173,-126L-169,-125L-173,-121L-176,-113L-173,-107L-180,-108L-188,-105L-188,-100L-195,-99L-201,-102L-207,-99L-213,-100L-214,-107L-218,-110L-216,-112L-217,-113L-216,-116L-213,-120L-217,-124L-217,-128Z" fill="#E0E0E0" stroke="#fff" stroke-width=".4"/><path d="M-187,-39L-188,-36L-199,-35L-199,-37L-209,-39L-207,-43L-203,-39L-197,-40L-191,-39L-191,-38ZM-213,-100L-207,-99L-201,-102L-195,-99L-188,-100L-188,-105L-184,-102L-187,-95L-189,-94L-193,-95L-198,-96L-207,-93L-202,-87L-206,-85L-210,-85L-214,-91L-216,-88L-214,-82L-210,-77L-213,-75L-209,-71L-205,-68L-205,-62L-212,-65L-210,-59L-215,-58L-212,-50L-217,-50L-223,-54L-226,-62L-228,-69L-231,-73L-235,-79L-235,-82L-232,-87L-231,-90L-229,-92L-228,-94L-223,-95L-220,-98L-216,-98L-215,-99Z" fill="#E0E0E0" stroke="#fff" stroke-width=".4"/><path d="M-41,-57L-44,-55L-47,-58L-56,-59L-60,-58L-69,-56L-73,-56L-82,-53L-89,-53L-93,-54L-102,-52L-104,-54L-105,-48L-107,-46L-109,-44L-112,-48L-109,-52L-114,-51L-120,-53L-126,-48L-138,-47L-144,-52L-152,-52L-154,-48L-160,-47L-167,-52L-176,-52L-181,-62L-187,-67L-183,-75L-188,-80L-179,-90L-167,-91L-163,-98L-148,-97L-139,-104L-130,-107L-117,-107L-103,-100L-91,-96L-82,-97L-75,-96L-66,-102L-58,-102L-50,-97L-49,-93L-49,-88L-44,-86L-40,-83L-46,-80L-43,-68L-45,-65ZM-188,-105L-180,-108L-173,-107L-172,-103L-165,-99L-167,-97L-176,-96L-180,-93L-186,-87L-189,-92L-189,-94L-187,-95L-184,-102Z" fill="#E0E0E0" stroke="#fff" stroke-width=".4"/><path d="M916,430L923,436L927,440L924,442L919,439L914,436L909,431L903,425L902,422L906,422L910,425L914,428Z" fill="#E0E0E0" stroke="#fff" stroke-width=".4"/><path d="M887,343L889,346L884,346L881,341L886,343ZM884,336L883,338L877,331L875,326L878,326L881,332ZM877,338L874,338L869,338L868,336L868,333L873,335L876,336ZM868,323L869,326L870,328L864,324L859,321L856,319L857,318L861,320ZM848,316L851,318L849,319L846,317L843,313L843,312Z" fill="#E0E0E0" stroke="#fff" stroke-width=".4"/><path d="M773,614L778,615L778,627L776,631L775,639L772,636L767,644L765,643L760,643L755,634L754,627L750,618L750,613L755,614L763,617L767,616ZM603,529L594,534L588,536L586,541L583,545L576,545L571,546L564,544L559,545L553,546L549,551L546,550L542,553L539,556L533,556L527,556L519,550L515,548L515,542L519,541L520,539L520,536L521,529L520,524L516,514L515,509L515,504L512,498L512,495L508,492L507,485L503,478L502,474L505,478L502,470L506,472L509,475L508,471L505,464L504,461L502,459L503,454L504,452L505,447L505,442L508,436L509,443L512,437L518,434L522,430L528,427L532,427L534,428L540,424L545,424L546,422L548,421L553,421L561,419L565,415L567,410L572,406L572,403L572,398L578,391L581,398L585,397L582,393L584,389L588,391L589,384L593,380L595,377L599,376L599,374L603,374L603,372L606,371L610,370L616,374L620,379L625,379L630,380L629,375L632,369L636,366L635,364L638,360L643,357L647,358L654,356L653,352L648,350L652,348L657,350L661,354L668,356L670,355L675,357L680,355L683,356L685,354L688,358L686,363L683,366L680,366L681,369L679,373L676,378L677,380L683,384L689,387L693,390L699,395L701,395L705,397L706,399L714,402L719,399L721,395L722,391L723,387L726,380L725,376L725,374L724,369L725,363L727,361L726,359L728,354L729,350L729,348L732,345L734,349L735,354L737,355L737,358L740,362L741,367L740,370L743,376L748,373L751,377L755,380L754,383L756,390L757,394L759,396L761,403L760,407L763,413L771,417L777,421L782,425L781,427L786,432L789,441L792,439L795,443L797,442L798,451L804,456L808,459L814,466L816,473L816,479L816,484L820,492L819,500L818,504L816,512L816,517L814,524L811,532L805,537L802,544L799,549L797,557L794,562L792,569L791,576L791,579L787,583L778,583L771,587L767,591L762,596L756,591L751,589L752,584L748,586L741,593L734,591L730,589L725,588L717,585L712,579L711,572L709,567L705,563L697,562L700,557L698,550L694,556L687,558L691,553L693,547L696,543L695,536L689,544L684,547L681,555L674,551L675,546L670,539L666,535L667,533L657,527L651,527L644,522L630,523L619,527L610,530Z" fill="#E0E0E0" stroke="#fff" stroke-width=".4"/><path d="M252,200L251,208L248,211L241,213L237,206L236,195L239,182L245,186L248,192Z" fill="#E0E0E0" stroke="#fff" stroke-width=".4"/><path d="M471,113L464,111L464,104L468,100L477,98L481,98L483,101L480,105L478,109ZM240,-110L239,-117L245,-119L238,-138L253,-143L257,-145L263,-166L279,-162L283,-167L284,-179L290,-180L296,-188L299,-189L301,-181L308,-175L319,-170L325,-161L322,-148L324,-143L334,-141L345,-139L354,-132L359,-131L363,-121L367,-114L376,-115L392,-112L403,-114L411,-112L422,-106L432,-106L435,-102L445,-108L457,-112L469,-112L478,-116L484,-122L490,-126L488,-129L486,-133L490,-141L494,-140L502,-137L510,-143L522,-148L528,-155L534,-158L545,-160L552,-159L552,-163L545,-171L539,-175L533,-170L525,-172L521,-171L518,-175L524,-187L528,-197L537,-192L549,-200L548,-205L556,-219L560,-223L560,-230L556,-233L562,-239L572,-242L582,-242L594,-238L601,-233L606,-220L609,-215L612,-207L615,-195L628,-191L638,-183L641,-171L653,-171L660,-176L673,-180L669,-169L666,-165L663,-152L658,-141L648,-143L641,-139L643,-130L642,-117L638,-116L638,-111L633,-117L630,-111L618,-107L619,-101L612,-101L608,-105L603,-97L594,-92L588,-85L577,-82L571,-77L562,-74L567,-79L565,-83L571,-90L567,-96L560,-92L551,-85L546,-78L539,-78L535,-73L539,-66L545,-64L546,-60L552,-57L561,-64L568,-60L573,-60L574,-55L563,-52L559,-47L552,-42L547,-35L556,-30L559,-20L564,-12L569,-5L569,2L564,5L566,10L571,13L570,20L567,27L563,28L557,38L551,49L544,60L533,68L522,75L513,76L508,80L505,77L501,81L490,85L481,87L479,96L474,96L472,90L474,87L463,84L460,85L452,83L448,80L449,75L442,73L438,70L431,74L424,75L417,75L413,78L409,79L410,88L406,88L405,86L405,83L399,85L396,84L390,80L392,73L387,72L385,64L377,65L378,55L386,48L386,40L386,33L382,31L380,26L375,27L366,25L369,22L365,16L360,20L353,18L344,23L337,30L330,31L327,29L323,29L317,26L313,29L308,35L307,28L302,30L293,29L284,27L278,23L271,22L269,17L264,16L256,10L250,7L247,9L236,3L228,-3L226,-13L231,-12L232,-17L229,-22L229,-29L221,-41L208,-45L205,-52L200,-57L198,-60L197,-65L197,-69L193,-72L190,-70L188,-80L190,-82L189,-85L197,-90L202,-92L210,-90L213,-97L224,-98L226,-102L239,-108Z" fill="#E0E0E0" stroke="#fff" stroke-width=".4"/><path d="M568,61L563,75L560,82L556,75L555,68L560,60L566,53L570,56Z" fill="#E0E0E0" stroke="#fff" stroke-width=".4"/><path d="M-28,-105L-25,-105L-20,-98L-17,-98L-15,-100L-10,-105L-6,-99L-2,-92L1,-91L4,-88L-3,-88L-4,-80L-5,-76L-8,-74L-8,-69L-10,-68L-15,-73L-12,-78L-15,-81L-18,-81L-27,-73L-27,-80L-31,-82L-34,-85L-32,-88L-36,-92L-34,-94L-37,-96L-39,-99L-37,-100L-31,-97L-27,-97L-26,-98L-30,-104ZM-30,-73L-35,-74L-39,-79L-40,-83L-39,-83L-36,-80L-33,-80L-33,-79Z" fill="#E0E0E0" stroke="#fff" stroke-width=".4"/><path d="M-79,-122L-78,-123L-71,-122L-59,-120L-49,-115L-47,-113L-42,-114L-35,-112L-33,-108L-28,-105L-30,-104L-26,-98L-27,-97L-31,-97L-37,-100L-39,-99L-50,-97L-58,-102L-66,-102L-65,-106L-67,-114L-71,-118L-76,-119Z" fill="#E0E0E0" stroke="#fff" stroke-width=".4"/><path d="M561,159L557,152L563,153L566,156L564,163ZM575,181L577,178L577,173L582,173L581,178L586,170L586,178L583,181L580,186L578,188L573,183ZM605,193L605,198L606,203L603,210L600,202L597,206L599,212L597,216L588,211L585,205L588,202L583,198L580,201L577,201L571,205L569,203L572,196L577,194L582,191L585,194L591,192L592,189L597,189L597,182L603,186L604,190ZM542,186L532,193L536,188L541,183L546,177L550,169L552,176L547,180ZM573,113L571,117L574,123L572,130L567,132L566,139L568,145L572,146L576,145L585,150L585,154L587,156L586,160L580,156L577,152L575,155L570,150L563,151L559,149L560,146L562,144L560,142L559,145L555,140L554,137L553,129L556,131L557,118L560,111L565,111L570,113L572,111ZM570,169L569,165L574,168L579,168L579,171L575,174L570,177L570,173ZM598,163L600,172L594,170L594,173L596,178L592,179L592,174L589,173L588,168L593,169L593,166L588,160L595,160Z" fill="#E0E0E0" stroke="#fff" stroke-width=".4"/><path d="M397,209L398,207L405,211L405,215L410,214L413,211L415,211L419,216L423,221L423,227L422,230L423,233L424,238L427,240L430,247L429,250L424,250L416,244L407,238L406,234L402,229L400,222L398,218L398,212ZM537,227L531,226L521,226L519,235L516,238L512,249L505,250L498,248L494,249L489,253L484,252L479,254L474,249L472,244L478,247L484,245L486,239L489,237L499,235L504,229L508,224L512,228L514,225L517,226L518,221L518,217L524,211L528,205L531,205L536,209L536,212L541,215L548,217L547,220L542,221L543,224Z" fill="#E0E0E0" stroke="#fff" stroke-width=".4"/><path d="M518,217L518,221L517,226L514,225L512,228L508,224L511,221Z" fill="#E0E0E0" stroke="#fff" stroke-width=".4"/><path d="M-107,145L-107,141L-104,129L-103,124L-101,121L-95,120L-91,115L-86,125L-84,132L-80,136L-69,144L-65,149L-60,153L-58,156L-54,159L-56,161L-60,160L-62,157L-66,153L-69,150L-71,147L-78,144L-84,144L-85,142L-90,144L-95,140L-97,146Z" fill="#E0E0E0" stroke="#fff" stroke-width=".4"/><path d="M727,-77L720,-67L720,-57L717,-49L718,-44L714,-37L704,-33L690,-32L679,-21L674,-25L673,-32L660,-30L650,-25L641,-25L649,-18L644,-2L639,2L635,-2L637,-10L632,-13L629,-20L636,-23L640,-29L648,-33L654,-40L670,-43L678,-41L686,-58L692,-54L703,-64L708,-68L713,-80L711,-92L715,-98L723,-100L727,-86ZM749,-128L754,-133L756,-120L744,-117L737,-107L725,-114L721,-102L712,-102L711,-113L715,-121L723,-122L726,-137L728,-146L737,-134L743,-130ZM652,-21L656,-27L661,-26L664,-30L670,-28L671,-24L666,-19L663,-22L659,-20L657,-14L652,-17Z" fill="#E0E0E0" stroke="#fff" stroke-width=".4"/><path d="M17,107L23,121L25,126L20,129L18,132L18,135L10,138L-3,142L-10,148L-13,148L-16,148L-20,151L-25,153L-32,153L-34,154L-36,156L-38,157L-39,159L-43,158L-45,160L-51,159L-53,154L-53,150L-54,148L-55,141L-58,138L-56,138L-57,134L-56,132L-56,129L-53,126L-54,123L-52,119L-48,121L-46,120L-37,120L-36,121L-28,122L-25,121L-23,124L-19,122L-14,114L-6,110Z" fill="#E0E0E0" stroke="#fff" stroke-width=".4"/><path d="M-118,17L-109,18L-106,16L-104,12L-98,11L-97,8L-94,6L-102,-3L-86,-8L-85,-9L-75,-6L-63,0L-41,18L-26,19L-19,20L-17,24L-12,24L-9,32L-5,34L-3,37L2,41L2,44L2,47L3,50L5,53L6,56L7,58L10,59L12,59L13,62L14,64L17,73L40,77L42,75L46,81L40,98L17,107L-6,110L-14,114L-19,122L-23,124L-25,121L-28,122L-36,121L-37,120L-46,120L-48,121L-52,119L-54,123L-53,126L-56,129L-57,125L-60,123L-60,120L-64,117L-69,110L-71,103L-76,97L-80,96L-85,88L-86,82L-86,77L-90,67L-94,64L-98,62L-101,57L-100,55L-103,50L-105,48L-108,42L-113,35L-117,29L-121,29L-120,24L-119,20Z" fill="#E0E0E0" stroke="#fff" stroke-width=".4"/><path d="M-136,-37L-135,-37L-134,-40L-128,-39L-121,-42L-127,-38L-126,-36L-127,-37L-128,-36L-130,-36L-130,-36L-130,-37L-131,-37L-132,-38L-134,-37Z" fill="#E0E0E0" stroke="#fff" stroke-width=".4"/><path d="M-136,-37L-134,-37L-132,-38L-131,-37L-130,-37L-130,-36L-130,-36L-128,-36L-127,-37L-126,-36L-126,-36L-134,-32L-138,-33L-140,-37Z" fill="#E0E0E0" stroke="#fff" stroke-width=".4"/><path d="M-103,81L-134,81L-165,81L-197,81L-197,50L-197,18L-199,11L-197,5L-198,1L-196,-3L-185,-4L-177,-1L-170,2L-166,3L-160,0L-157,-3L-150,-3L-144,-2L-142,2L-140,-1L-134,2L-128,2L-124,-0L-119,13L-118,16L-121,19L-122,26L-125,31L-126,32L-129,29L-133,25L-138,12L-139,13L-136,23L-131,32L-125,46L-122,50L-119,55L-112,65L-114,66L-114,72L-105,80Z" fill="#E0E0E0" stroke="#fff" stroke-width=".4"/><path d="M-197,81L-197,98L-206,98L-206,102L-238,86L-269,69L-277,74L-283,77L-287,73L-300,69L-303,63L-309,59L-313,61L-316,56L-316,52L-321,46L-318,42L-318,37L-317,32L-318,28L-317,20L-317,16L-320,8L-316,6L-315,2L-316,-2L-310,-5L-308,-8L-304,-11L-304,-18L-294,-15L-291,-16L-285,-14L-274,-10L-270,-2L-263,0L-252,4L-244,9L-240,6L-236,2L-238,-5L-235,-10L-230,-14L-224,-15L-214,-13L-211,-9L-208,-9L-205,-8L-198,-6L-196,-3L-198,1L-197,5L-199,11L-197,18L-197,50Z" fill="#E0E0E0" stroke="#fff" stroke-width=".4"/><path d="M-17,196L-39,220L-49,221L-56,226L-61,226L-64,229L-69,229L-72,226L-79,229L-82,233L-87,232L-89,231L-91,231L-93,231L-103,225L-109,225L-111,222L-111,218L-116,216L-120,208L-124,206L-125,203L-129,199L-134,198L-131,194L-127,193L-126,191L-126,184L-124,175L-120,173L-119,170L-116,164L-111,160L-108,152L-107,145L-97,146L-95,140L-90,144L-85,142L-84,144L-78,144L-71,147L-69,150L-66,153L-62,157L-60,160L-63,163L-65,167L-65,169L-64,172L-60,172L-58,171L-56,173L-58,176L-55,180L-52,184L-49,187L-23,196Z" fill="#E0E0E0" stroke="#fff" stroke-width=".4"/><path d="M-60,160L-56,161L-54,159L-52,161L-52,164L-57,166L-53,169L-56,173L-58,171L-60,172L-64,172L-65,169L-65,167L-63,163Z" fill="#E0E0E0" stroke="#fff" stroke-width=".4"/><path d="M-8,169L-8,169L-8,172L-8,181L-8,185L-11,190L-17,196L-23,196L-49,187L-52,184L-55,180L-58,176L-56,173L-53,169L-51,170L-49,173L-46,177L-42,177L-34,175L-26,174L-19,171L-15,171L-12,169Z" fill="#E0E0E0" stroke="#fff" stroke-width=".4"/><path d="M-127,267L-143,268L-151,268L-154,269L-159,271L-161,270L-161,264L-159,261L-158,255L-157,251L-154,247L-151,245L-148,242L-151,241L-151,232L-148,230L-143,232L-136,230L-131,230L-126,226L-122,232L-121,236L-118,245L-120,251L-124,256L-127,259Z" fill="#E0E0E0" stroke="#fff" stroke-width=".4"/><path d="M-154,269L-151,273L-151,278L-154,279L-158,278L-160,283L-165,282L-164,278L-163,277L-163,273L-161,270L-159,271Z" fill="#E0E0E0" stroke="#fff" stroke-width=".4"/><path d="M-151,232L-158,227L-160,223L-164,225L-168,225L-170,226L-173,225L-178,218L-179,216L-185,213L-187,208L-191,205L-196,200L-196,198L-200,195L-206,191L-203,191L-201,189L-199,182L-196,178L-191,177L-189,179L-185,184L-183,185L-180,183L-175,184L-173,185L-166,185L-165,184L-161,182L-160,180L-157,178L-151,183L-147,182L-143,176L-138,172L-139,167L-141,164L-136,164L-136,162L-132,163L-133,169L-132,175L-128,178L-127,181L-127,185L-126,185L-126,191L-127,193L-131,194L-134,198L-129,199L-125,203L-124,206L-120,208L-116,216L-121,221L-126,226L-131,230L-136,230L-143,232L-148,230Z" fill="#E0E0E0" stroke="#fff" stroke-width=".4"/></g><g clip-path="url(#v)"><path d="M416.7,166.9L416.5,167.7L416.1,167.4L416.2,167.0L416.4,166.8ZM415.2,164.4L415.3,164.6L414.9,164.4L414.7,164.5L414.2,164.4L414.0,163.3L414.1,163.0L414.4,163.1L414.9,163.7L415.1,164.1ZM383.5,197.2L383.4,197.8L383.1,197.8L382.7,198.1L382.6,198.2L382.3,197.0L382.6,195.3L382.8,195.1L383.0,195.5L383.7,195.7L383.4,196.7ZM397.0,95.7L397.0,96.2L397.2,96.3L397.4,96.1L397.8,95.6L398.2,95.2L398.6,95.2L399.0,95.6L399.5,96.4L399.9,96.9L400.1,96.9L400.3,97.3L400.3,97.7L400.1,98.4L399.7,99.4L399.2,100.5L399.4,101.4L400.1,102.2L401.0,102.6L401.9,102.5L402.4,102.3L402.8,101.9L403.2,101.7L403.7,101.7L405.2,101.9L405.6,102.2L405.7,102.7L405.5,104.1L405.8,105.0L406.2,106.0L406.2,107.0L405.7,108.5L405.3,110.0L404.8,110.7L404.4,111.2L404.3,111.5L404.4,111.7L404.7,112.2L405.0,112.7L405.1,113.3L405.1,114.0L404.8,114.9L404.0,116.8L403.2,118.6L403.6,118.9L404.3,119.2L404.8,119.5L405.3,119.3L406.3,118.3L407.2,117.5L408.3,116.7L408.4,116.6L409.4,116.1L409.8,115.5L410.1,114.9L410.4,114.6L410.9,114.8L411.4,114.5L412.1,113.7L412.7,113.4L413.0,113.4L413.7,113.9L414.6,114.8L415.5,115.3L416.2,115.4L416.6,115.7L416.6,116.2L416.7,116.5L417.1,116.7L417.2,116.6L417.2,116.4L417.5,116.0L418.2,115.6L419.0,115.3L419.7,115.3L420.2,114.9L420.5,114.0L421.0,113.3L421.4,113.0L421.8,112.8L422.0,112.6L421.7,112.3L421.7,112.0L422.0,111.7L422.7,111.6L423.6,111.7L424.7,111.9L426.0,112.5L426.9,112.7L427.3,112.5L428.1,113.3L429.2,115.2L430.2,116.7L431.1,117.6L431.9,118.4L432.9,118.9L433.5,119.6L434.1,120.9L433.7,122.8L433.6,124.4L433.6,126.3L434.2,127.8L435.2,128.9L435.8,129.7L436.0,130.3L436.7,130.9L438.2,131.4L438.8,131.8L438.5,132.1L438.5,132.6L438.7,133.1L439.2,133.5L440.0,133.8L440.5,134.1L440.6,134.5L440.6,135.1L440.4,135.9L440.1,136.5L439.6,136.9L439.6,137.3L439.5,137.8L439.5,138.8L439.8,139.5L439.9,140.4L439.7,141.2L439.5,142.7L439.5,143.2L439.3,143.7L438.9,144.2L438.3,144.6L437.5,145.0L437.0,145.2L436.9,145.3L436.6,145.8L436.2,146.2L435.8,146.2L435.6,146.0L435.4,145.7L435.3,145.1L434.6,144.7L433.8,144.6L432.2,144.9L430.9,145.0L429.5,144.8L428.1,145.1L427.5,145.1L426.9,145.1L426.2,145.1L425.6,145.0L424.5,144.6L424.1,144.6L423.2,145.0L422.2,145.2L421.4,145.3L420.0,146.0L419.0,146.9L418.8,147.6L418.3,148.3L417.6,149.3L416.8,150.4L416.2,150.8L416.3,151.1L416.2,151.4L415.3,151.6L414.5,151.6L414.4,151.8L414.5,153.8L414.7,154.6L415.2,155.5L415.5,156.1L415.7,157.6L415.8,158.9L416.8,159.7L417.4,160.3L417.8,160.8L417.7,161.2L417.5,162.2L417.7,163.5L419.1,166.4L419.2,166.6L419.1,166.7L418.8,166.1L418.1,165.2L417.9,164.2L417.0,163.1L416.6,162.6L416.4,163.0L416.1,163.4L415.3,162.8L414.6,162.2L413.9,161.1L413.8,161.4L413.7,161.6L412.9,160.7L412.1,160.0L411.4,159.7L411.0,159.5L410.6,159.1L409.7,158.7L407.5,159.3L404.7,158.8L403.6,159.2L403.1,159.0L402.9,158.5L403.1,157.7L403.2,155.9L403.5,154.7L403.4,153.7L403.5,153.3L403.6,152.7L403.2,152.4L401.2,151.9L400.8,151.6L400.3,152.0L397.9,152.2L397.0,152.6L396.2,153.3L396.0,154.2L396.4,154.8L396.8,155.8L395.9,158.0L395.8,158.7L396.1,161.4L396.0,162.9L395.5,163.9L394.8,164.8L394.5,166.3L393.9,167.0L393.1,168.6L392.6,170.6L392.2,171.5L392.0,173.2L390.4,175.8L390.0,177.3L389.4,177.8L389.6,178.3L389.7,179.0L389.5,180.9L389.4,182.5L389.6,183.4L390.4,185.1L390.2,185.6L390.2,186.3L390.8,186.6L391.3,186.7L393.9,185.9L394.7,186.1L395.1,186.8L395.3,187.5L395.7,191.0L396.0,191.7L396.5,192.3L397.1,193.0L397.3,192.9L397.3,192.6L397.3,192.3L397.9,193.0L398.3,194.2L399.6,200.8L400.0,201.7L400.3,202.6L399.5,202.1L399.3,200.7L399.1,200.1L398.8,200.0L398.3,200.0L398.3,199.7L398.6,199.2L398.6,198.7L398.1,198.2L397.3,198.6L397.3,199.6L397.7,200.4L399.0,202.1L399.4,202.9L399.9,203.1L400.7,203.0L401.6,203.7L402.3,204.4L404.1,205.5L405.2,205.4L406.4,205.1L407.1,205.2L407.9,205.4L408.8,206.3L410.3,208.6L412.7,210.4L412.4,210.9L412.3,211.6L411.4,212.5L411.2,213.0L410.8,213.7L410.2,214.1L409.7,214.1L409.3,214.1L409.1,214.0L408.7,213.3L408.5,213.1L408.3,213.1L407.1,213.5L406.0,214.0L405.8,214.4L405.5,215.0L405.1,215.2L404.8,215.2L404.6,214.9L404.2,214.5L403.8,214.1L403.9,213.6L404.6,212.7L404.6,212.1L404.6,211L404.4,210.4L404.2,210.4L403.9,210.3L403.0,210.4L402.5,209.7L402.3,208.9L402.0,208.7L401.7,208.5L401.0,208.8L400.5,208.6L398.8,207.9L398.1,206.9L397.8,206.9L397.4,207.0L397.3,207.2L397.1,208.4L397.0,208.8L395.0,206.4L393.7,205.3L393.8,203.5L393.4,203.2L392.9,203.1L392.5,202.6L392.9,201.5L392.3,201.7L391.6,201.7L391.0,201.4L390.5,199.9L390.2,199.4L389.6,198.6L388.8,198.6L388.5,198.3L388.5,197.3L387.9,196.7L387.1,196.2L386.5,195.9L385.8,194.3L385.3,194.0L384.8,193.6L384.2,193.9L384.0,194.4L383.6,195.0L383.1,194.9L382.6,194.6L382.1,193.0L382.0,192.1L382.2,190.3L382.8,188.7L383.2,186.1L383.8,184.5L384.1,183.9L384.7,181.7L385.8,178.9L385.9,178.3L386.1,177.6L386.3,176.9L386.4,175.9L386.2,175.4L386.2,175.1L386.5,174.7L387.3,174.0L388.3,173.0L389.6,171.5L391.0,169.2L391.6,167.9L391.9,167.4L392.2,167.3L392.7,166.8L393.0,166.3L393.0,166.0L392.3,163.5L391.8,162.7L391.6,161.8L391.4,161.1L391.3,160.4L391.4,159.8L391.1,159.5L390.5,159.0L389.9,158.3L389.5,157.1L389.5,156.5L389.1,155.9L389.0,155.3L389.2,154.8L389.5,154.3L389.5,152.1L389.4,151.5L389.2,150.4L388.8,149.5L388.2,148.5L387.6,147.6L385.9,146.1L384.7,145.1L384.1,144.2L383.4,143.1L382.9,142.4L382.2,141.4L381.8,140.1L381.6,138.7L381.8,138.2L382.1,137.9L382.5,137.6L382.8,137.6L383.8,137.0L384.5,137.0L384.6,136.9L384.7,136.6L384.6,135.3L384.7,133.6L384.8,132.2L384.9,131.3L386.7,130.2L387.1,129.7L387.3,129.2L387.3,128.8L387.1,128.4L386.9,128.2L385.7,129.2L385.5,128.9L384.9,127.4L384.7,127.0L384.4,126.4L384.0,125.6L383.9,124.3L383.7,123.6L382.3,122.2L381.6,121.5L380.7,120.3L379.7,119.0L378.6,117.8L378.1,117.0L377.9,116.8L377.9,116.5L378.2,115.7L378.0,114.8L377.5,113.7L377.3,113.0L377.3,112.7L377.1,112.6L376.5,112.7L375.9,112.2L375.3,111.0L375.3,110.8L375.5,110.8L376.2,111.0L376.4,111.0L376.9,110.7L377.6,110.5L378.1,110.4L378.2,110.2L378.3,110.0L377.9,107.4L378.0,106.8L378.7,105.7L378.6,104.6L378.8,103.0L379.6,101.8L380.2,101.3L380.4,100.5L380.6,100.3L381.1,100.4L382.1,101.0L382.6,101.0L383.2,101.0L383.8,101.0L384.1,100.9L386.3,100.3L386.7,100.3L387.2,100.3L387.5,100.3L387.8,100.1L388.0,99.6L388.3,98.1L388.4,97.8L388.7,97.6L389.2,97.4L389.7,97.4L390.4,97.7L390.8,97.7L391.3,97.6L391.7,97.4L392.0,97.1L392.1,96.8L392.0,96.2L391.7,95.5L391.8,95.4L392.3,95.5L393.2,95.7L393.8,95.7L394.3,95.5L394.7,95.2L395.2,94.8L395.7,94.9L396.1,95.2ZM396.6,182.8L396.6,182.9L396.2,182.7L396.0,182.4L395.9,182.0L396.4,182.1L396.6,182.4ZM396.6,183.7L396.6,184.2L396.5,184.7L395.8,185.0L395.5,184.6L395.6,183.9L395.7,183.7L396.4,183.8ZM393.4,208.2L393.2,208.2L392.9,207.6L393.3,206.6L393.7,207.8ZM384.9,196.9L384.8,197.1L384.4,195.5L385.0,195.9ZM382.7,188.0L382.2,188.1L382.3,187.6L382.4,187.4L382.6,187.3L382.7,187.8ZM388.8,199.7L389.0,200.6L388.7,200.4L388.4,200.0L388.4,199.4L388.5,199.3Z" fill="#4ECDC4" stroke="#2C3E50" stroke-width="1"/></g><circle cx="400.0" cy="150.0" r="4" fill="#E74C3C" stroke="#fff" stroke-width="2"/><text x="400.0" y="140.0" text-anchor="middle" font-family="sans-serif" font-weight="700" font-size="10" fill="#2D3436">Bangkok</text></svg>