<svg viewBox="0 0 800 300" xmlns="http://www.w3.org/2000/svg"><defs><clipPath id="v"><rect width="800" height="300"/></clipPath></defs><rect width="800" height="300" fill="#DCEEF8"/><g clip-path="url(#v)"><path d="M811,-178L794,-156L776,-153L775,-120L763,-105L719,-116L703,-58L691,-51L648,-39L667,15L652,23L654,40L640,35L629,25L597,21L560,21L552,24L520,11L508,17L504,35L468,25L453,29L448,42L436,48L407,69L397,89L389,90L383,76L355,75L350,51L339,50L341,20L314,-2L277,0L251,5L229,-23L211,-34L177,-57L173,-60L116,-41L117,71L106,72L90,49L75,41L50,47L40,57L39,49L44,37L40,27L15,16L5,-11L-8,-19L-8,-29L13,-26L14,-49L33,-54L52,-49L56,-80L52,-100L30,-99L11,-106L-14,-92L-35,-86L-46,-91L-44,-107L-58,-129L-74,-128L-93,-151L-80,-176L-87,-183L-69,-221L-47,-201L-44,-226L2,-264L36,-265L85,-241L111,-227L135,-241L170,-242L198,-224L205,-234L236,-233L241,-249L205,-274L227,-292L222,-301L244,-311L228,-336L238,-349L321,-362L331,-372L387,-386L407,-402L446,-393L453,-354L476,-363L505,-350L503,-330L524,-332L580,-367L571,-356L600,-327L649,-235L661,-254L691,-233L723,-242L735,-236L746,-216L761,-209L771,-195L799,-199Z" fill="#E0E0E0" stroke="#fff" stroke-width=".4"/><path d="M117,71L116,-41L173,-60L177,-57L211,-34L229,-23L251,5L277,0L314,-2L341,20L339,50L350,51L355,75L383,76L389,90L397,89L407,69L436,48L448,42L455,45L436,64L453,76L469,68L495,84L466,105L450,102L441,103L437,94L442,81L412,88L405,106L395,122L376,121L371,134L387,140L392,161L379,190L362,184L350,184L351,166L321,154L298,141L284,127L259,107L248,77L240,72L216,73L208,67L206,44L176,28L157,45L138,55L142,70Z" fill="#E0E0E0" stroke="#fff" stroke-width=".4"/><path d="M20,523L24,521L25,528L42,524L60,525L74,526L89,509L105,493L119,478L123,487L126,506L115,506L113,522L117,525L107,530L107,540L101,550L100,560L96,565L29,553L21,528Z" fill="#E0E0E0" stroke="#fff" stroke-width=".4"/><path d="M3,510L1,492L7,480L13,477L20,485L20,499L16,513L10,515Z" fill="#E0E0E0" stroke="#fff" stroke-width=".4"/><path d="M-60,380L-55,391L-57,397L-50,416L-66,417L-71,405L-91,402L-75,378Z" fill="#E0E0E0" stroke="#fff" stroke-width=".4"/><path d="M-254,324L-263,292L-214,264L-206,231L-208,211L-196,205L-184,187L-175,183L-149,187L-141,194L-131,189L-116,222L-102,230L-100,246L-111,255L-116,276L-101,301L-74,316L-63,335L-66,354L-59,354L-59,368L-47,381L-60,380L-75,378L-91,402L-132,400L-194,349L-227,331Z" fill="#E0E0E0" stroke="#fff" stroke-width=".4"/><path d="M100,560L101,550L107,540L107,530L117,525L113,522L115,506L126,506L136,523L149,531L165,535L178,539L188,553L194,561L202,564L202,569L194,583L190,590L181,598L173,614L163,613L158,618L154,630L157,646L155,649L145,649L131,657L129,669L124,674L110,673L101,679L102,689L91,695L79,693L64,701L54,702L46,686L29,647L95,624L110,577ZM123,487L119,478L126,470L128,472L126,482Z" fill="#E0E0E0" stroke="#fff" stroke-width=".4"/><path d="M1093,614L1080,620L1068,630L1052,631L1042,656L1033,660L1043,681L1057,698L1066,713L1058,733L1051,737L1056,749L1071,767L1073,779L1073,790L1081,811L1069,832L1059,855L1056,838L1063,821L1056,807L1058,783L1049,771L1041,744L1038,715L1028,696L1013,707L988,724L976,721L962,716L970,688L965,666L948,639L950,630L938,627L922,608L920,589L928,593L929,576L940,570L937,560L942,552L943,527L960,532L970,512L971,500L983,480L983,466L1011,448L1027,453L1025,438L1033,433L1032,424L1044,422L1052,436L1061,442L1062,461L1061,482L1040,502L1038,531L1061,527L1066,549L1080,554L1074,574L1090,583L1100,587L1116,580L1117,590L1098,605Z" fill="#E0E0E0" stroke="#fff" stroke-width=".4"/><path d="M820,-181L843,-187L885,-217L919,-233L938,-222L961,-222L976,-206L998,-204L1030,-196L1052,-220L1043,-240L1065,-277L1090,-262L1110,-258L1136,-249L1141,-223L1172,-208L1193,-215L1221,-219L1243,-215L1265,-198L1278,-181L1299,-181L1326,-175L1347,-184L1376,-189L1408,-214L1421,-210L1433,-198L1459,-201L1449,-176L1433,-142L1439,-129L1451,-133L1473,-128L1490,-140L1508,-129L1528,-106L1525,-95L1508,-99L1476,-94L1460,-85L1444,-64L1410,-52L1388,-35L1366,-42L1353,-44L1342,-24L1349,-12L1352,-2L1337,8L1321,24L1295,35L1262,36L1226,46L1200,62L1191,53L1164,53L1131,35L1109,30L1080,35L1034,28L1010,29L997,11L987,-18L973,-21L946,-40L917,-45L890,-50L882,-64L891,-101L876,-128L844,-140L826,-158Z" fill="#E0E0E0" stroke="#fff" stroke-width=".4"/><path d="M1032,424L1033,433L1025,438L1027,453L1011,448L983,466L983,480L971,500L970,512L960,532L943,527L942,552L937,560L940,570L929,576L917,538L911,538L907,553L895,541L902,527L912,525L922,505L909,501L889,501L868,498L866,481L855,479L838,469L830,485L846,498L832,507L827,516L841,523L837,537L845,556L848,575L845,584L830,584L803,589L804,606L792,620L760,636L735,664L719,678L697,694L697,704L686,710L666,718L656,719L649,737L653,766L655,785L645,807L645,845L634,846L624,863L630,871L610,877L603,892L594,899L573,878L563,846L554,824L547,813L535,791L529,763L525,749L505,717L496,672L490,643L490,614L485,592L453,606L438,603L409,574L419,566L413,556L387,536L402,520L450,520L446,499L433,487L431,468L416,456L441,430L467,432L490,406L503,380L525,354L525,336L543,321L526,308L518,290L510,267L521,255L555,262L579,258L601,235L624,267L622,288L631,302L630,315L614,312L620,340L642,357L673,375L659,386L650,410L672,420L693,432L721,446L752,449L764,462L782,464L808,470L827,469L829,460L826,444L828,433L841,428L843,448L844,453L864,462L878,458L896,460L914,459L916,444L907,436L925,433L945,414L970,398L989,404L1005,393L1015,409L1008,420Z" fill="#E0E0E0" stroke="#fff" stroke-width=".4"/><path d="M929,576L928,593L920,589L922,608L916,596L914,584L910,572L901,558L880,557L882,567L875,580L866,576L863,580L857,577L848,575L845,556L837,537L841,523L827,516L832,507L846,498L830,485L838,469L855,479L866,481L868,498L889,501L909,501L922,505L912,525L902,527L895,541L907,553L911,538L917,538Z" fill="#E0E0E0" stroke="#fff" stroke-width=".4"/><path d="M907,436L916,444L914,459L896,460L878,458L864,462L844,453L843,448L858,429L870,423L886,428L897,429Z" fill="#E0E0E0" stroke="#fff" stroke-width=".4"/><path d="M828,433L826,444L829,460L827,469L808,470L782,464L764,462L752,449L721,446L693,432L672,420L650,410L659,386L673,375L682,369L700,377L722,393L735,397L742,409L759,414L777,425L802,431Z" fill="#E0E0E0" stroke="#fff" stroke-width=".4"/><path d="M601,235L579,258L555,262L521,255L510,267L518,290L526,308L543,321L525,336L525,354L503,380L490,406L467,432L441,430L416,456L431,468L433,487L446,499L450,520L402,520L387,536L371,530L364,512L347,494L306,498L270,499L239,502L248,474L279,461L278,450L267,446L266,424L245,412L236,397L225,384L262,397L285,393L298,396L302,391L318,393L346,382L347,361L359,346L376,346L378,339L395,335L403,338L412,330L411,315L420,299L434,292L426,275L447,275L453,266L452,256L463,244L460,231L455,219L468,207L492,201L517,198L528,193L541,190L558,203L564,224Z" fill="#E0E0E0" stroke="#fff" stroke-width=".4"/><path d="M350,184L362,184L379,190L386,193L402,184L409,189L417,177L430,177L433,173L435,162L445,152L457,158L455,167L461,168L459,192L468,201L476,195L485,192L499,180L515,182L537,182L541,190L528,193L517,198L492,201L468,207L455,219L460,231L463,244L452,256L453,266L447,275L426,275L434,292L420,299L411,315L412,330L403,338L395,335L378,339L376,346L359,346L347,361L346,382L318,393L302,391L298,396L285,393L262,397L225,384L245,361L244,344L227,340L225,323L218,302L227,288L218,284L224,264L233,231L255,241L272,237L277,225L294,221L307,213L311,191L330,185L333,175L344,183Z" fill="#E0E0E0" stroke="#fff" stroke-width=".4"/><path d="M448,42L453,29L468,25L504,35L508,17L520,11L552,24L560,21L597,21L629,25L640,35L654,40L651,47L616,63L608,74L580,78L572,96L548,93L533,98L512,112L515,119L509,125L467,130L439,120L415,122L417,106L442,111L450,102L466,105L495,84L469,68L453,76L436,64L455,45Z" fill="#E0E0E0" stroke="#fff" stroke-width=".4"/><path d="M40,57L50,47L75,41L90,49L106,72L117,71L142,70L138,55L157,45L176,28L206,44L208,67L216,73L240,72L248,77L259,107L284,127L298,141L321,154L351,166L350,184L344,183L333,175L330,185L311,191L307,213L294,221L277,225L272,237L255,241L233,231L231,208L214,207L189,182L172,179L147,165L131,162L122,168L107,167L91,183L72,188L68,168L71,139L54,129L59,110L45,108L49,83L70,91L90,81L74,64L67,47L49,54L47,76Z" fill="#E0E0E0" stroke="#fff" stroke-width=".4"/><path d="M-47,381L-59,368L-59,354L-66,354L-63,335L-74,316L-101,301L-116,276L-111,255L-100,246L-102,230L-116,222L-131,189L-143,167L-138,158L-145,125L-130,117L-127,128L-115,141L-100,145L-92,144L-66,123L-58,121L-51,129L-59,143L-45,158L-40,157L-33,177L-12,183L4,197L35,202L70,195L72,188L91,183L107,167L122,168L131,162L147,165L172,179L189,182L214,207L231,208L233,231L224,264L218,284L227,288L218,302L225,323L227,340L244,344L245,361L225,384L236,397L245,412L266,424L267,446L278,450L279,461L248,474L239,502L198,495L173,489L149,486L139,456L129,451L111,456L89,468L62,460L40,441L19,433L4,410L-13,376L-24,380L-38,371Z" fill="#E0E0E0" stroke="#fff" stroke-width=".4"/><path d="M-331,309L-331,309L-328,305L-329,294L-323,280L-311,270L-315,259L-325,258L-327,237L-321,226L-315,220L-309,214L-308,199L-301,204L-277,196L-265,202L-247,202L-221,191L-209,192L-184,187L-196,205L-208,211L-206,231L-214,264L-263,292L-306,320Z" fill="#E0E0E0" stroke="#fff" stroke-width=".4"/><path d="M-92,144L-100,145L-109,128L-109,124L-119,124L-126,116L-130,117L-139,109L-155,102L-153,87L-157,77L-126,72L-122,80L-113,85L-118,93L-106,103L-112,112L-103,120L-93,124Z" fill="#E0E0E0" stroke="#fff" stroke-width=".4"/><path d="M-131,189L-141,194L-149,187L-175,183L-184,187L-209,192L-221,191L-247,202L-265,202L-277,196L-301,204L-308,199L-309,214L-315,220L-321,226L-329,214L-321,203L-335,206L-353,199L-368,215L-402,218L-420,203L-444,203L-449,214L-464,217L-485,203L-509,203L-523,175L-539,160L-528,138L-542,124L-517,97L-483,96L-474,73L-432,77L-405,58L-380,50L-343,49L-304,70L-273,81L-247,77L-228,79L-202,64L-178,63L-157,77L-153,87L-155,102L-139,109L-130,117L-145,125L-138,158L-143,167ZM-543,55L-521,46L-502,50L-499,61L-480,71L-484,78L-510,80L-519,89L-538,104L-545,91L-545,85L-539,82L-532,63Z" fill="#E0E0E0" stroke="#fff" stroke-width=".4"/><path d="M1300,666L1282,659L1281,639L1292,628L1316,622L1329,622L1334,631L1324,641L1319,655ZM654,40L652,23L667,15L648,-39L691,-51L703,-58L719,-116L763,-105L775,-120L776,-153L794,-156L811,-178L820,-181L826,-158L844,-140L876,-128L891,-101L882,-64L890,-50L917,-45L946,-40L973,-21L987,-18L997,11L1010,29L1034,28L1080,35L1109,30L1131,35L1164,53L1191,53L1200,62L1226,46L1262,36L1295,35L1321,24L1337,8L1352,-2L1349,-12L1342,-24L1353,-44L1366,-42L1388,-35L1410,-52L1444,-64L1460,-85L1476,-94L1508,-99L1525,-95L1528,-106L1508,-129L1490,-140L1473,-128L1451,-133L1439,-129L1433,-142L1449,-176L1459,-201L1486,-188L1517,-210L1517,-225L1537,-263L1549,-274L1549,-294L1537,-303L1555,-321L1583,-328L1612,-329L1645,-318L1664,-304L1678,-268L1686,-252L1694,-231L1702,-197L1741,-186L1767,-162L1776,-131L1809,-131L1829,-144L1865,-154L1853,-124L1845,-112L1837,-77L1823,-46L1796,-51L1777,-40L1782,-14L1779,22L1768,23L1768,38L1754,21L1745,38L1711,50L1714,66L1695,65L1685,56L1670,77L1645,92L1627,111L1596,119L1580,133L1556,140L1568,127L1563,116L1581,97L1569,81L1550,92L1525,112L1511,130L1490,132L1478,145L1490,164L1508,169L1509,181L1526,189L1551,169L1571,180L1585,181L1589,196L1557,203L1547,218L1525,232L1514,251L1538,266L1547,292L1560,316L1575,336L1575,355L1561,362L1566,376L1579,384L1576,404L1570,424L1558,427L1542,454L1524,486L1503,515L1473,538L1442,558L1417,561L1404,571L1396,563L1383,575L1353,587L1329,591L1322,616L1309,617L1303,600L1309,591L1279,583L1269,587L1246,581L1236,571L1239,558L1219,553L1208,544L1190,557L1168,560L1150,560L1139,565L1127,569L1130,596L1119,596L1117,590L1116,580L1100,587L1090,583L1074,574L1080,554L1066,549L1061,527L1038,531L1040,502L1061,482L1062,461L1061,442L1052,436L1044,422L1032,424L1008,420L1015,409L1005,393L989,404L970,398L945,414L925,433L907,436L897,429L886,428L870,423L858,429L843,448L841,428L828,433L802,431L777,425L759,414L742,409L735,397L722,393L700,377L682,369L673,375L642,357L620,340L614,312L630,315L631,302L622,288L624,267L601,235L564,224L558,203L541,190L537,182L534,166L535,155L521,149L514,152L509,125L515,119L512,112L533,98L548,93L572,96L580,78L608,74L616,63L651,47Z" fill="#E0E0E0" stroke="#fff" stroke-width=".4"/><path d="M-95,54L-88,55L-73,73L-63,75L-60,68L-46,56L-35,71L-24,92L-13,94L-6,101L-25,104L-28,126L-32,136L-40,143L-40,157L-45,158L-59,143L-51,129L-58,121L-66,123L-92,144L-93,124L-103,120L-112,112L-106,103L-118,93L-113,85L-122,80L-126,72L-121,68L-104,76L-92,78L-89,74L-100,59ZM-100,145L-115,141L-127,128L-130,117L-126,116L-119,124L-109,124L-109,128Z" fill="#E0E0E0" stroke="#fff" stroke-width=".4"/><path d="M-237,7L-234,3L-216,9L-183,14L-153,28L-149,34L-136,29L-115,35L-108,47L-95,54L-100,59L-89,74L-92,78L-104,76L-121,68L-126,72L-157,77L-178,63L-202,64L-199,51L-204,31L-217,20L-229,16Z" fill="#E0E0E0" stroke="#fff" stroke-width=".4"/><path d="M-348,396L-323,400L-314,392L-308,383L-291,379L-288,371L-280,366L-302,341L-258,328L-254,324L-227,331L-194,349L-132,400L-91,402L-71,405L-66,417L-50,416L-41,438L-31,444L-27,452L-12,463L-10,473L-13,481L-10,489L-3,496L-0,504L3,510L10,515L16,513L20,523L21,528L29,553L96,565L100,560L110,577L95,624L29,647L-35,656L-55,667L-71,691L-81,695L-87,687L-95,689L-117,686L-121,684L-146,684L-152,686L-161,680L-167,692L-165,702L-175,709L-178,699L-184,692L-186,683L-197,675L-209,655L-215,636L-231,620L-241,616L-255,593L-258,577L-257,563L-270,536L-280,527L-292,522L-299,508L-298,502L-304,489L-311,484L-319,466L-333,446L-344,428L-355,429L-351,415L-350,406Z" fill="#E0E0E0" stroke="#fff" stroke-width=".4"/></g><g clip-path="url(#v)"><path d="M377.6,188.9L378.5,186.9L378.9,180.1L379.9,177.8L383.2,173.6L384.9,170.4L386.9,167.8L388.2,166.9L389.5,164.8L390.5,162.5L390.8,161.0L390.8,159.8L390.4,159.1L388.5,157.5L386.1,155.0L384.9,152.4L384.2,149.2L384.0,146.9L386.2,140.6L385.9,139.6L385.3,138.6L384.0,138.0L382.1,137.7L380.3,138.0L377.9,138.0L376.2,137.7L375.8,137.3L375.6,134.4L375.2,133.8L374.5,133.2L369.7,131.9L368.8,131.3L368.6,130.6L370.3,124.2L371.0,123.7L371.7,122.7L372.8,121.6L376.7,119.8L381.0,120.6L384.7,121.4L388.4,121.8L389.6,122.1L391.8,122.4L393.2,122.2L394.2,121.5L395.9,119.4L396.5,116.3L397.1,113.5L398.2,113.3L399.2,113.6L399.8,113.0L400.0,112.3L400.2,111.6L400.6,111.5L401.3,112.2L401.8,112.0L402.2,111.5L402.1,111.0L401.2,110.0L400.4,108.5L400.5,108.0L400.8,107.4L403.1,106.9L404.1,106.8L404.5,106.3L404.4,105.4L403.5,104.9L400.3,105.2L397.1,105.2L396.7,104.6L396.9,104.0L397.4,103.6L404.1,102.4L407.6,102.8L410.1,103.4L411.1,103.1L409.9,100.5L411.6,100.3L411.8,99.4L409.6,92.5L410.8,91.8L412.0,90.4L411.9,87.9L413.0,86.6L414.2,85.7L416.1,86.6L419.0,89.2L419.9,89.7L420.9,89.8L422.2,89.0L427.3,86.5L430.2,85.0L433.7,82.9L434.2,82.1L435.4,79.0L436.1,78.8L436.9,79.1L440.0,82.4L441.7,84.5L441.7,85.2L441.2,85.7L441.3,86.2L443.8,87.4L443.8,87.9L443.2,88.9L443.0,89.5L442.7,89.7L439.3,92.6L435.7,95.7L435.6,96.1L435.3,97.0L435.4,97.8L436.0,98.4L437.6,98.9L439.0,99.5L439.7,101.1L440.5,102.7L441.6,103.0L447.1,102.1L448.4,101.9L448.5,102.5L448.2,103.4L443.5,105.1L441.5,106.5L441.0,108.9L440.4,109.6L439.5,110.2L438.6,110.3L437.2,107.5L435.6,106.9L433.3,105.9L428.8,103.8L426.5,103.0L422.0,104.3L416.8,106.1L416.0,107.1L415.4,108.3L415.5,109.1L415.8,110.3L415.6,111.2L414.6,111.5L413.1,110.4L411.9,109.8L411.2,111.2L410.5,113.9L410.2,115.8L411.3,118.5L411.7,122.5L413.8,122.3L415.4,122.3L418.3,121.1L419.8,121.1L422.1,121.6L426.3,121.7L429.4,121.5L430.2,121.6L431.0,120.8L431.8,121.1L432.6,122.0L435.9,120.9L438.3,120.8L439.8,121.1L440.7,121.4L442.2,124.0L443.4,125.7L444.9,126.3L449.4,125.8L450.8,123.4L451.9,122.8L453.8,122.7L455.3,122.2L456.6,121.3L458.3,120.5L459.7,120.3L460.4,120.9L460.7,121.7L460.5,122.7L460.4,123.8L461.4,124.6L464.2,124.7L465.5,125.4L465.6,126.7L465.4,128.8L466.5,129.6L467.1,129.7L471.2,127.5L472.4,127.5L473.3,128.7L474.7,130.1L476.5,131.6L477.0,131.4L477.8,129.7L479.4,127.9L482.2,127.3L483.9,126.8L485.6,126.5L490.7,127.2L492.4,127.3L495.9,127.2L498.7,126.8L500.9,125.7L502.1,124.9L504.0,124.4L506.3,124.4L507.5,124.7L507.6,126.2L507.3,129.0L507.0,131.0L508.8,134.6L510.0,136.2L511.1,137.5L511.4,138.4L511.1,139.2L509.7,139.9L509.1,140.8L508.9,141.7L509.4,142.7L510.3,146.0L511.3,148.7L512.8,149.9L515.0,150.8L516.2,150.6L517.1,148.6L518.5,147.1L519.8,147.2L521.8,147.2L527.0,148.8L532.1,151.4L533.6,152.8L534.1,154.4L532.7,158.1L532.8,160.4L533.1,162.8L534.3,164.7L535.3,167.9L535.6,170.4L536.0,171.2L536.4,172.1L535.8,174.5L535.4,176.9L535.9,177.7L537.5,178.9L539.9,181.1L540.4,182.9L539.5,184.1L538.0,185.5L536.0,186.7L535.3,187.2L535.0,187.0L534.1,185.7L531.8,183.7L530.2,182.7L527.2,183.0L525.5,182.7L523.4,182.0L521.4,182.1L520.1,183.3L519.3,184.5L517.3,184.9L514.5,185.8L510.1,187.2L508.0,187.0L507.4,186.4L507.9,185.6L509.4,184.5L509.8,183.2L509.5,182.0L508.1,181.7L507.5,181.5L506.9,181.3L504.2,180.5L502.0,180.8L498.2,182.3L491.2,186.2L488.2,188.9L486.0,192.8L479.4,194.1L474.8,196.4L470.1,200.1L467.0,202.1L465.5,202.4L464.0,202.0L462.5,201.0L461.1,197.9L459.8,193.2L458.9,190.1L459.4,186.1L459.9,181.5L460.5,176.9L461.4,171.5L462.2,169.6L462.2,168.3L461.5,167.7L460.1,167.7L457.9,168.4L456.4,168.6L455.5,168.1L455.6,165.5L456.7,161.0L455.0,157.1L450.5,154.0L446.6,152.9L443.5,153.9L440.8,156.4L438.7,160.4L436.5,163.7L434.1,166.2L432.5,167.4L431.9,167.9L431.6,169.0L432.9,172.3L432.8,175.2L431.4,177.5L429.8,178.5L428.2,178.5L426.9,177.9L425.9,176.9L423.2,176.7L418.9,177.1L416.0,178.3L414.4,180.1L413.9,182.6L414.6,185.6L414.2,187.9L412.9,189.5L411.8,190.4L411.0,190.7L409.1,189.3L406.2,186.3L404.2,184.6L403.1,184.4L402.5,184.5L401.9,184.9L401.5,185.3L401.2,186.1L400.2,186.5L399.0,186.2L397.8,186.5L397.0,187.4L395.1,188.5L391.6,189.8L389.6,191.2L389.2,192.6L388.8,193.3L387.7,193.1L384.5,195.0L382.1,194.4L379.3,191.9L377.8,189.8ZM441.6,81.6L441.0,81.7L439.8,80.3L439.4,79.3L439.9,79.1L440.9,79.7L441.5,80.9ZM442.7,113.9L440.8,115.0L439.6,114.9L438.7,113.8L438.0,112.8L437.9,112.2L438.2,112.3L439.7,112.7L441.9,113.0L442.7,113.3Z" fill="#4ECDC4" stroke="#2C3E50" stroke-width="1"/></g><circle cx="400.0" cy="150.0" r="4" fill="#E74C3C" stroke="#fff" stroke-width="2"/><text x="400.0" y="140.0" text-anchor="middle" font-family="sans-serif" font-weight="700" font-size="10" fill="#2D3436">Dushanbe</text></svg>