<svg viewBox="0 0 800 300" xmlns="http://www.w3.org/2000/svg"><defs><clipPath id="v"><rect width="800" height="300"/></clipPath></defs><rect width="800" height="300" fill="#DCEEF8"/><g clip-path="url(#v)"><path d="M1477,-268L1479,-40L1480,189L1417,131L1347,117L1329,137L1241,140L1270,82L1314,63L1296,-14L1263,-73L1127,-132L1070,-138L965,-203L944,-169L918,-162L902,-188L901,-219L848,-253L923,-278L973,-277L967,-295L865,-295L837,-337L775,-350L746,-384L840,-401L875,-424L987,-395L998,-369L1018,-256L1090,-215L1149,-289L1229,-331L1291,-331L1351,-307L1402,-282ZM358,173L365,187L366,209L321,262L261,277L253,269L259,245L289,202ZM1003,33L996,-20L1009,-45L1023,-69L1039,-49L1039,-15ZM-137,-739L-176,-676L-125,-610L-137,-577L-59,-513L-142,-505L-165,-457L-162,-394L-229,-346L-231,-276L-258,-169L-268,-194L-347,-163L-375,-206L-425,-210L-460,-232L-543,-207L-568,-241L-614,-237L-671,-245L-682,-339L-717,-358L-751,-418L-760,-479L-752,-544L-711,-590L-699,-543L-651,-504L-606,-518L-562,-513L-521,-548L-487,-554L-421,-535L-364,-550L-329,-647L-302,-671L-278,-751L-197,-751ZM665,-254L742,-234L768,-180L709,-209L650,-215L611,-210L563,-213L579,-251ZM491,-185L443,-198L429,-228L500,-231L517,-208ZM565,-602L570,-564L611,-557L618,-529L614,-468L578,-475L567,-432L596,-395L577,-387L548,-431L528,-520L542,-576ZM216,-511L296,-514L365,-565L377,-549L321,-480L268,-466L201,-480L85,-476L24,-466L14,-414L76,-351L114,-383L244,-407L239,-375L208,-385L178,-344L116,-317L182,-227L170,-203L232,-122L232,-76L195,-56L167,-80L201,-138L132,-111L115,-130L124,-157L74,-198L79,-266L32,-245L38,-164L41,-63L-3,-53L-33,-74L-13,-138L-24,-206L-53,-206L-75,-254L-46,-300L-36,-355L-1,-461L14,-489L73,-541L128,-521ZM32,270L-61,221L4,207L41,228L65,250L61,269ZM105,148L151,143L214,117L204,156L99,176L6,168L6,142L61,127ZM-110,136L-67,130L-50,160L-130,175L-179,184L-216,183L-193,143L-154,142L-136,117ZM-793,-1L-783,24L-649,31L-634,2L-504,36L-479,82L-374,95L-289,137L-368,164L-445,135L-508,137L-581,132L-646,119L-727,92L-778,85L-807,94L-934,65L-947,35L-1011,30L-963,-37L-878,-33L-822,-6ZM-1080,-374L-1068,-325L-1044,-286L-993,-280L-959,-236L-976,-149L-979,-41L-1056,-39L-1115,-98L-1205,-155L-1235,-197L-1287,-254L-1322,-307L-1375,-404L-1437,-463L-1457,-523L-1483,-577L-1546,-621L-1582,-681L-1635,-720L-1708,-797L-1714,-833L-1669,-830L-1561,-817L-1499,-748L-1445,-701L-1406,-672L-1340,-596L-1269,-595L-1211,-547L-1170,-489L-1117,-457L-1145,-400L-1105,-376Z" fill="#E0E0E0" stroke="#fff" stroke-width=".4"/></g><g clip-path="url(#v)"><path d="M405.4,120.3L400.6,132.5L395.6,129.9L401.1,123.1L403.6,121.1ZM364.9,217.3L362.6,208.1L360.1,204.1L358.1,201.9L357.3,199.0L357.3,196.2L358.6,194.9L367.1,194.5L370.7,189.8L370.7,184.1L368.9,182.2L367.1,181.4L358.4,185.7L355.8,184.8L354.3,183.3L354.8,177.1L362.1,171.2L368.4,160.4L372.7,156.2L382.7,152.2L386.8,151.1L416.4,145.2L423.4,144.8L442.0,144.9L467.2,143.7L473.2,142.9L481.3,140.3L489.0,137.1L493.1,134.5L497.6,132.8L503.9,135.0L514.9,136.7L517.7,138.3L520.5,140.4L507.9,151.7L493.8,161.0L485.3,163.8L476.5,165.7L469.7,169.2L463.9,174.9L456.6,178.1L448.6,179.2L441.5,180.9L435.0,184.2L426.2,189.8L422.7,190.4L418.9,190.3L411.6,192.4L388.8,200.6L374.9,209.6ZM293.0,205.2L304.3,199.2L321.4,194.5L320.9,197.9L319.1,203.3L316.6,205.8L312.6,210.3L310.1,211.3L299.8,210.3L298.5,211.0L296.8,210.6L294.0,207.6Z" fill="#4ECDC4" stroke="#2C3E50" stroke-width="1"/></g><circle cx="400.0" cy="150.0" r="4" fill="#E74C3C" stroke="#fff" stroke-width="2"/><text x="400.0" y="140.0" text-anchor="middle" font-family="sans-serif" font-weight="700" font-size="10" fill="#2D3436">Dili</text></svg>