<svg viewBox="0 0 800 300" xmlns="http://www.w3.org/2000/svg"><defs><clipPath id="v"><rect width="800" height="300"/></clipPath></defs><rect width="800" height="300" fill="#DCEEF8"/><g clip-path="url(#v)"><path d="M761,-44L751,-32L741,-30L740,-11L733,-3L709,-9L700,23L693,27L669,34L680,64L671,69L672,78L665,76L658,70L640,68L619,68L615,69L597,62L590,66L588,76L568,70L559,72L557,80L549,83L533,94L528,106L523,106L520,99L504,98L501,84L495,84L496,67L481,55L460,56L445,59L433,43L423,37L404,24L402,22L369,33L370,96L364,97L355,83L346,79L332,82L327,88L326,84L329,77L327,71L312,65L307,50L300,45L300,40L312,41L312,28L323,26L334,28L336,11L334,-0L321,0L311,-4L296,4L285,8L278,5L279,-5L272,-17L262,-16L252,-29L259,-43L255,-47L265,-68L278,-57L280,-71L305,-93L325,-93L352,-80L367,-72L380,-80L400,-80L416,-70L419,-76L437,-75L440,-84L420,-98L432,-108L429,-114L441,-119L432,-133L438,-141L485,-148L491,-153L522,-161L533,-170L555,-166L559,-143L572,-148L588,-141L587,-130L599,-131L630,-151L626,-144L642,-128L669,-76L676,-87L693,-75L711,-80L718,-77L724,-66L733,-62L738,-54L754,-56Z" fill="#E0E0E0" stroke="#fff" stroke-width=".4"/><path d="M370,96L369,33L402,22L404,24L423,37L433,43L445,59L460,56L481,55L496,67L495,84L501,84L504,98L520,99L523,106L528,106L533,94L549,83L557,80L560,81L550,92L559,98L568,94L583,103L567,115L557,113L552,114L550,109L553,101L536,105L532,116L526,125L516,124L513,131L522,135L525,147L518,163L508,159L501,159L502,150L485,143L472,135L464,127L450,116L444,99L439,96L426,97L421,94L420,80L403,72L393,81L382,87L384,95Z" fill="#E0E0E0" stroke="#fff" stroke-width=".4"/><path d="M-21,558L-30,553L-35,549L-35,545L-33,540L-33,535L-41,527L-42,522L-42,519L-46,515L-47,507L-49,502L-54,503L-52,499L-49,493L-50,488L-46,484L-49,481L-46,473L-40,464L-29,464L-30,413L-30,407L-15,407L-15,380L35,380L83,380L132,380L136,394L134,396L135,410L140,425L145,429L151,433L145,441L136,443L132,447L131,456L126,475L127,480L125,491L120,503L112,510L107,519L106,525L100,528L96,541L96,553L96,543L94,543L95,536L93,532L87,527L85,518L87,508L81,508L80,510L73,511L76,515L77,522L70,529L64,538L57,540L47,532L42,535L41,539L34,541L34,544L22,544L20,541L11,541L6,543L3,542L-3,534L-6,531L-15,533L-18,538L-21,550L-25,552L-29,553Z" fill="#E0E0E0" stroke="#fff" stroke-width=".4"/><path d="M-30,413L-29,464L-40,464L-46,473L-49,481L-46,484L-50,488L-49,493L-52,499L-54,503L-49,502L-47,507L-46,515L-42,519L-42,522L-50,524L-56,529L-65,543L-77,549L-89,548L-92,549L-91,553L-98,558L-103,563L-119,567L-122,565L-124,564L-126,568L-136,569L-134,565L-138,556L-140,551L-145,549L-153,542L-150,536L-144,537L-141,536L-134,536L-141,525L-140,516L-141,508L-146,500L-145,494L-153,493L-153,485L-158,480L-153,463L-137,451L-136,434L-131,408L-129,402L-134,397L-134,393L-139,390L-142,369L-129,361L-79,387Z" fill="#E0E0E0" stroke="#fff" stroke-width=".4"/><path d="M841,-1153L867,-1172L892,-1132L920,-1060L917,-1000L890,-992L855,-1010L835,-1036L825,-1086L808,-1101ZM953,-1026L985,-989L981,-964L945,-953L911,-940L934,-1023L944,-1030ZM1401,-841L1434,-839L1479,-812L1469,-776L1423,-777L1403,-766L1378,-797L1385,-832ZM1518,-801L1549,-789L1535,-770L1515,-774L1492,-793L1495,-809ZM1414,-710L1426,-727L1441,-732L1459,-715L1461,-703L1442,-703L1416,-708ZM232,-1119L256,-1133L275,-1134L277,-1114L284,-1132L296,-1145L315,-1128L310,-1116L293,-1106L282,-1101L280,-1089L266,-1077L252,-1094L259,-1117ZM-44,-147L-66,-147L-82,-149L-79,-159L-62,-166L-49,-162L-43,-159L-45,-153ZM339,-727L369,-767L366,-788L394,-814L435,-847L476,-857L497,-877L522,-884L530,-863L522,-846L478,-821L440,-797L401,-752L383,-708L363,-668L366,-634L389,-603L382,-600L341,-605L338,-621L316,-632L314,-653L327,-662L326,-685L351,-721ZM1452,-134L1456,-114L1456,-94L1461,-74L1474,-40L1455,-46L1448,-19L1460,-0L1459,12L1450,2L1442,16L1439,0L1441,-17L1439,-38L1442,-52L1443,-78L1436,-98L1437,-126L1448,-135L1443,-145L1449,-148ZM-2566,-539L-2566,-539L-2536,-513L-2503,-481L-2504,-461L-2496,-453L-2499,-476L-2465,-471L-2441,-442L-2453,-429L-2473,-426L-2474,-397L-2479,-391L-2490,-392L-2500,-402L-2516,-411L-2519,-424L-2532,-428L-2546,-425L-2553,-435L-2550,-446L-2565,-439L-2559,-425L-2566,-412L-2566,-412L-2566,-539ZM1913,-412L1913,-412L1897,-399L1881,-402L1892,-386L1900,-363L1906,-356L1907,-344L1904,-337L1881,-343L1846,-323L1835,-320L1816,-302L1798,-286L1793,-275L1775,-292L1743,-273L1737,-282L1725,-271L1709,-275L1705,-258L1690,-235L1690,-226L1704,-221L1703,-187L1691,-187L1686,-168L1691,-159L1669,-148L1665,-124L1646,-119L1643,-98L1625,-79L1620,-93L1615,-123L1608,-170L1614,-201L1624,-215L1625,-226L1644,-231L1666,-261L1688,-286L1710,-307L1720,-344L1705,-342L1698,-320L1666,-291L1656,-323L1624,-314L1593,-272L1603,-257L1575,-251L1556,-248L1557,-266L1537,-269L1522,-257L1484,-262L1443,-254L1403,-208L1355,-156L1375,-153L1381,-140L1393,-135L1401,-146L1414,-144L1432,-121L1433,-104L1423,-84L1422,-60L1416,-30L1398,-3L1394,9L1377,30L1360,50L1352,61L1335,71L1327,71L1320,62L1303,75L1301,81L1301,81L1299,78L1299,69L1305,69L1307,48L1304,33L1315,27L1330,30L1338,13L1342,-7L1347,-14L1354,-30L1333,-25L1322,-18L1304,-18L1299,-35L1284,-49L1262,-55L1258,-74L1253,-86L1249,-95L1241,-115L1230,-123L1211,-129L1195,-128L1179,-125L1169,-114L1176,-110L1176,-98L1169,-92L1158,-71L1158,-62L1140,-50L1125,-57L1111,-56L1104,-62L1097,-64L1078,-51L1062,-48L1051,-43L1035,-46L1023,-46L1016,-56L1004,-65L991,-67L975,-65L964,-61L946,-69L944,-84L929,-89L918,-92L904,-100L891,-79L896,-68L884,-54L866,-59L853,-60L845,-69L832,-69L821,-75L802,-66L779,-49L766,-46L761,-44L754,-56L738,-54L733,-62L724,-66L718,-77L711,-80L693,-75L676,-87L669,-76L642,-128L626,-144L630,-151L599,-131L587,-130L588,-141L572,-148L559,-143L555,-166L533,-170L522,-161L491,-153L485,-148L438,-141L432,-133L441,-119L429,-114L432,-108L420,-98L440,-84L437,-75L419,-76L416,-70L400,-80L380,-80L367,-72L352,-80L325,-93L305,-93L280,-71L278,-57L265,-68L255,-47L259,-43L252,-29L262,-16L272,-17L279,-5L278,5L285,8L279,18L267,21L254,40L266,56L265,68L278,87L271,94L269,98L263,97L254,87L251,87L243,83L239,76L228,72L220,75L218,72L201,64L183,61L172,58L171,60L155,45L141,39L130,28L139,26L149,11L142,3L161,-4L160,-8L149,-5L150,-13L156,-18L168,-20L170,-26L167,-36L172,-46L172,-52L154,-58L147,-58L139,-67L129,-64L114,-71L114,-75L109,-83L99,-84L98,-90L102,-94L94,-106L81,-104L77,-105L74,-100L69,-101L66,-114L63,-121L65,-123L76,-122L80,-127L77,-132L68,-136L69,-140L64,-144L56,-158L59,-164L58,-174L46,-179L39,-177L37,-182L24,-188L20,-201L19,-212L13,-217L18,-225L15,-247L24,-261L22,-265L36,-279L23,-290L49,-323L61,-339L66,-353L47,-371L52,-390L41,-411L50,-437L35,-472L47,-497L27,-519L29,-543L39,-546L61,-560L73,-573L94,-551L128,-543L175,-504L184,-489L185,-468L171,-451L151,-443L96,-467L86,-463L107,-440L108,-426L108,-396L124,-387L134,-380L136,-394L128,-406L136,-417L166,-399L177,-406L168,-428L197,-458L209,-456L220,-445L228,-466L217,-486L223,-505L214,-526L249,-515L256,-496L240,-492L240,-475L250,-464L269,-470L273,-491L299,-507L342,-536L351,-534L339,-513L355,-510L363,-521L387,-522L405,-537L419,-516L434,-539L421,-559L427,-571L464,-560L481,-549L526,-510L534,-527L522,-546L521,-553L506,-557L511,-574L504,-602L503,-615L526,-650L535,-687L544,-696L577,-685L579,-662L568,-629L575,-617L579,-591L577,-541L590,-520L585,-498L561,-453L575,-448L580,-459L593,-467L597,-483L607,-499L600,-518L606,-540L592,-543L589,-563L599,-600L583,-631L605,-658L603,-687L609,-688L615,-665L610,-626L624,-619L618,-648L639,-664L665,-666L688,-643L677,-677L675,-722L697,-731L727,-729L754,-735L744,-759L758,-790L773,-791L797,-816L830,-823L834,-837L866,-842L877,-830L905,-858L927,-857L931,-880L943,-904L972,-927L993,-909L976,-895L1005,-886L1008,-859L1019,-872L1056,-872L1084,-846L1094,-826L1091,-800L1077,-786L1044,-760L1035,-746L1050,-740L1069,-728L1080,-737L1086,-709L1092,-720L1112,-727L1152,-720L1155,-699L1207,-693L1207,-726L1234,-718L1254,-719L1274,-696L1279,-669L1272,-652L1288,-621L1307,-605L1319,-646L1339,-628L1360,-639L1385,-627L1394,-638L1414,-632L1405,-670L1422,-688L1479,-676L1534,-661L1544,-637L1577,-608L1627,-615L1652,-608L1662,-593L1661,-566L1676,-556L1693,-563L1715,-564L1739,-557L1762,-561L1784,-530L1799,-541L1789,-564L1795,-580L1834,-570L1860,-572L1896,-555L1913,-539L1913,-412ZM1913,-607L1900,-605L1898,-617L1913,-633L1913,-607ZM-2566,-633L-2566,-633L-2566,-633L-2565,-635L-2554,-635L-2536,-624L-2537,-619L-2550,-609L-2566,-607L-2566,-607L-2566,-633ZM90,15L93,11L102,15L106,16L107,19L109,20L109,21L115,25L128,24L126,31L112,34L95,44L88,40L91,32L77,27L80,24L91,18Z" fill="#E0E0E0" stroke="#fff" stroke-width=".4"/><path d="M-142,369L-139,390L-134,393L-134,397L-129,402L-131,408L-136,434L-137,451L-153,463L-158,480L-153,485L-153,493L-145,494L-146,500L-150,500L-150,505L-152,505L-161,491L-164,490L-173,497L-183,494L-190,493L-193,495L-201,494L-208,500L-214,500L-229,494L-235,497L-242,496L-246,492L-259,487L-272,488L-275,491L-277,499L-281,504L-282,515L-291,508L-296,508L-300,511L-299,503L-314,500L-314,494L-321,485L-323,479L-322,473L-314,473L-309,468L-292,467L-281,465L-280,457L-273,448L-273,418L-256,412L-220,386L-177,361L-157,366L-150,374Z" fill="#E0E0E0" stroke="#fff" stroke-width=".4"/><path d="M-293,583L-292,563L-293,555L-290,547L-286,543L-280,535L-282,532L-279,527L-282,519L-282,515L-281,504L-277,499L-275,491L-272,488L-259,487L-246,492L-242,496L-235,497L-229,494L-214,500L-208,500L-201,494L-193,495L-190,493L-183,494L-173,497L-164,490L-161,491L-152,505L-150,505L-145,510L-146,512L-147,516L-158,526L-161,534L-163,541L-165,543L-168,552L-174,557L-176,564L-179,569L-180,574L-189,578L-196,573L-201,573L-208,581L-212,581L-218,593L-221,602L-234,606L-238,606L-243,608L-253,608L-260,600L-264,591L-273,583L-282,583Z" fill="#E0E0E0" stroke="#fff" stroke-width=".4"/><path d="M-146,500L-141,508L-140,516L-141,525L-134,536L-141,536L-144,537L-150,536L-153,542L-145,549L-140,551L-138,556L-134,565L-136,569L-143,581L-146,583L-147,593L-145,598L-146,602L-140,609L-139,613L-135,620L-129,624L-129,629L-127,633L-128,640L-138,637L-148,633L-164,633L-165,632L-173,634L-180,632L-186,633L-206,633L-205,623L-209,615L-215,613L-218,607L-221,605L-221,602L-218,593L-212,581L-208,581L-201,573L-196,573L-189,578L-180,574L-179,569L-176,564L-174,557L-168,552L-165,543L-163,541L-161,534L-158,526L-147,516L-146,512L-145,510L-150,505L-150,500Z" fill="#E0E0E0" stroke="#fff" stroke-width=".4"/><path d="M118,230L116,235L111,233L109,242L112,244L109,246L108,250L114,248L114,254L108,277L107,273L100,252L104,247L103,246L106,239L108,228L110,225L111,224L115,224L116,222L119,222L119,228L118,230Z" fill="#E0E0E0" stroke="#fff" stroke-width=".4"/><path d="M119,222L116,222L115,224L111,224L115,212L121,202L121,201L127,202L129,208L122,213Z" fill="#E0E0E0" stroke="#fff" stroke-width=".4"/><path d="M114,248L108,250L109,246L112,244L109,242L111,233L116,235L116,244Z" fill="#E0E0E0" stroke="#fff" stroke-width=".4"/><path d="M-209,265L-214,239L-221,233L-222,229L-232,221L-233,209L-225,201L-222,188L-224,174L-222,166L-208,159L-199,161L-200,169L-189,163L-188,166L-195,174L-195,181L-190,185L-192,198L-200,206L-198,214L-191,214L-188,221L-184,224L-184,235L-190,239L-194,244L-203,250L-201,256L-202,262Z" fill="#E0E0E0" stroke="#fff" stroke-width=".4"/><path d="M-435,306L-434,304L-434,303L-434,286L-414,276L-402,273L-392,269L-387,262L-372,257L-372,246L-365,244L-359,239L-343,237L-340,231L-344,228L-348,212L-349,203L-353,193L-342,185L-328,182L-320,176L-308,171L-287,168L-267,167L-260,169L-249,163L-235,163L-230,167L-222,166L-224,174L-222,188L-225,201L-233,209L-232,221L-222,229L-221,233L-214,239L-209,265L-204,278L-204,284L-206,296L-205,302L-207,310L-206,319L-211,325L-203,335L-203,341L-198,348L-192,346L-183,352L-177,361L-220,386L-256,412L-273,418L-287,419L-287,411L-293,409L-301,405L-304,399L-346,370L-388,340Z" fill="#E0E0E0" stroke="#fff" stroke-width=".4"/><path d="M116,235L118,230L132,236L156,220L161,238L159,240L134,248L146,262L142,265L140,269L131,271L128,277L122,281L108,279L108,277L114,254L114,248L116,244Z" fill="#E0E0E0" stroke="#fff" stroke-width=".4"/><path d="M315,350L318,349L318,353L328,351L338,351L346,352L354,342L363,334L371,325L374,330L375,341L369,341L368,350L370,352L365,354L364,360L361,365L361,371L358,374L321,367L316,353Z" fill="#E0E0E0" stroke="#fff" stroke-width=".4"/><path d="M306,343L305,333L308,326L312,324L316,329L316,337L313,345L310,346Z" fill="#E0E0E0" stroke="#fff" stroke-width=".4"/><path d="M271,270L273,276L272,279L276,290L267,291L264,284L253,282L262,269Z" fill="#E0E0E0" stroke="#fff" stroke-width=".4"/><path d="M161,238L156,220L184,204L189,186L187,175L194,171L201,161L206,159L220,161L225,165L231,162L239,181L247,185L248,194L242,199L239,211L247,225L263,234L269,245L267,255L271,255L271,263L278,271L271,270L262,269L253,282L230,281L195,252L176,242Z" fill="#E0E0E0" stroke="#fff" stroke-width=".4"/><path d="M361,371L361,365L364,360L365,354L370,352L368,350L369,341L375,341L381,350L388,355L397,357L404,359L410,367L413,371L418,373L418,376L413,384L411,388L406,392L401,401L396,401L393,404L391,411L393,419L391,421L386,421L378,426L377,432L374,435L366,435L361,438L361,443L355,447L348,446L340,450L334,451L330,442L321,420L358,407L366,380ZM374,330L371,325L375,320L376,322L375,327Z" fill="#E0E0E0" stroke="#fff" stroke-width=".4"/><path d="M950,508L947,493L955,482L971,480L983,482L993,487L999,478L1010,483L1013,491L1011,506L990,516L996,524L983,525L972,530L961,528L956,521Z" fill="#E0E0E0" stroke="#fff" stroke-width=".4"/><path d="M983,482L971,480L955,482L947,493L950,508L939,502L928,503L930,493L919,493L918,507L911,525L907,537L908,546L916,546L921,558L924,568L931,576L938,577L945,584L941,589L932,590L931,584L921,578L919,581L914,576L912,570L905,562L899,556L897,564L895,557L896,549L900,537L906,524L913,512L908,500L908,495L907,487L898,477L895,471L900,468L904,457L899,449L891,439L885,428L891,425L896,411L905,410L912,405L919,401L925,406L925,414L934,414L931,428L931,440L944,432L948,434L955,434L958,429L967,430L977,441L977,454L987,465L987,476Z" fill="#E0E0E0" stroke="#fff" stroke-width=".4"/><path d="M1010,483L999,478L993,487L983,482L987,476L987,465L977,454L977,441L967,430L958,429L955,434L948,434L944,432L931,440L931,428L934,414L925,414L925,406L919,401L922,397L933,388L934,391L940,391L938,376L945,374L952,385L958,397L973,397L978,409L970,412L966,417L981,425L992,440L1000,452L1009,461L1012,470Z" fill="#E0E0E0" stroke="#fff" stroke-width=".4"/><path d="M919,401L912,405L905,410L896,411L891,425L885,428L891,439L899,449L904,457L900,468L895,471L898,477L907,487L908,495L908,500L913,512L906,524L900,537L899,528L903,518L898,510L899,496L894,490L890,474L888,458L883,447L874,454L860,463L853,462L846,459L850,443L847,431L838,415L839,411L832,409L823,398L822,387L826,389L827,380L833,377L832,371L834,366L835,352L845,355L850,344L851,337L858,326L857,318L873,308L882,311L881,302L886,300L885,294L892,293L896,302L902,305L902,316L901,327L890,339L888,355L901,352L904,365L912,368L908,379L918,384L923,386L932,382L933,388L922,397Z" fill="#E0E0E0" stroke="#fff" stroke-width=".4"/><path d="M972,530L983,525L996,524L990,516L1011,506L1013,491L1010,483L1012,470L1009,461L1000,452L992,440L981,425L966,417L970,412L978,409L973,397L958,397L952,385L945,374L952,371L962,371L974,369L984,362L990,367L1002,370L1000,377L1006,383L1018,386L1001,398L991,410L988,419L998,433L1010,450L1021,458L1028,469L1034,493L1032,515L1022,523L1008,531L998,542L982,554L978,546L981,537Z" fill="#E0E0E0" stroke="#fff" stroke-width=".4"/><path d="M766,-46L779,-49L802,-66L821,-75L832,-69L845,-69L853,-60L866,-59L884,-54L896,-68L891,-79L904,-100L918,-92L929,-89L944,-84L946,-69L964,-61L975,-65L991,-67L1004,-65L1016,-56L1023,-46L1035,-46L1051,-43L1062,-48L1078,-51L1097,-64L1104,-62L1111,-56L1125,-57L1119,-43L1111,-24L1114,-16L1121,-19L1133,-16L1143,-23L1153,-17L1164,-4L1163,2L1153,0L1135,3L1126,8L1117,20L1098,27L1085,36L1073,32L1066,31L1059,42L1063,49L1065,55L1056,60L1047,70L1033,75L1014,76L994,82L980,91L974,86L959,86L941,76L928,73L912,75L886,72L873,72L865,62L860,46L852,44L837,33L820,31L805,28L801,20L806,-1L797,-16L779,-23L769,-33Z" fill="#E0E0E0" stroke="#fff" stroke-width=".4"/><path d="M885,294L886,300L881,302L882,311L873,308L857,318L858,326L851,337L850,344L845,355L835,352L834,366L832,371L833,377L827,380L820,358L817,358L815,367L808,360L812,352L817,352L823,340L816,338L804,338L792,336L791,326L785,326L776,320L771,329L780,336L772,342L770,346L777,350L775,358L779,369L781,380L780,385L771,384L756,387L757,397L750,405L732,414L718,429L709,438L696,446L696,452L690,455L679,460L673,461L669,471L672,487L673,498L667,510L667,532L661,532L655,542L659,546L648,550L643,558L638,562L627,550L621,532L616,519L612,513L605,501L602,485L600,477L589,460L583,434L580,418L580,401L577,389L559,397L550,395L534,379L540,374L537,369L522,358L530,348L558,348L555,337L548,330L547,319L539,313L552,298L567,299L580,284L588,270L600,255L599,245L610,236L600,229L596,219L591,206L597,199L616,203L630,201L642,188L655,206L654,218L659,226L659,233L650,231L653,248L666,257L683,267L675,273L670,287L682,292L694,299L710,307L727,309L734,316L744,317L759,320L769,320L771,315L769,306L770,300L778,297L779,308L779,311L790,316L798,314L809,315L819,314L820,306L815,301L825,299L836,289L850,280L861,283L870,277L875,286L871,292Z" fill="#E0E0E0" stroke="#fff" stroke-width=".4"/><path d="M827,380L826,389L822,387L823,398L819,391L819,384L816,378L811,370L800,370L801,375L797,383L792,380L790,382L786,381L781,380L779,369L775,358L777,350L770,346L772,342L780,336L771,329L776,320L785,326L791,326L792,336L804,338L816,338L823,340L817,352L812,352L808,360L815,367L817,358L820,358Z" fill="#E0E0E0" stroke="#fff" stroke-width=".4"/><path d="M815,301L820,306L819,314L809,315L798,314L790,316L779,311L779,308L787,297L794,294L803,297L809,297Z" fill="#E0E0E0" stroke="#fff" stroke-width=".4"/><path d="M770,300L769,306L771,315L769,320L759,320L744,317L734,316L727,309L710,307L694,299L682,292L670,287L675,273L683,267L688,263L698,268L711,277L718,279L722,286L731,289L742,295L756,298Z" fill="#E0E0E0" stroke="#fff" stroke-width=".4"/><path d="M642,188L630,201L616,203L597,199L591,206L596,219L600,229L610,236L599,245L600,255L588,270L580,284L567,299L552,298L539,313L547,319L548,330L555,337L558,348L530,348L522,358L513,354L509,344L499,334L477,336L456,337L439,339L444,323L461,315L460,309L454,307L454,294L442,288L437,279L431,272L452,279L464,277L472,279L474,276L483,277L499,271L500,259L506,251L516,251L517,247L527,245L531,246L536,242L535,233L541,224L549,220L544,210L556,211L559,206L558,200L565,193L563,186L560,179L568,172L581,169L595,167L602,165L609,163L618,170L622,182Z" fill="#E0E0E0" stroke="#fff" stroke-width=".4"/><path d="M501,159L508,159L518,163L521,165L530,160L535,163L539,155L546,156L548,153L549,147L555,142L561,145L560,150L564,151L563,164L568,169L572,166L577,164L585,157L594,158L607,158L609,163L602,165L595,167L581,169L568,172L560,179L563,186L565,193L558,200L559,206L556,211L544,210L549,220L541,224L535,233L536,242L531,246L527,245L517,247L516,251L506,251L500,259L499,271L483,277L474,276L472,279L464,277L452,279L431,272L442,259L441,250L432,247L431,238L427,226L432,218L427,216L430,205L435,186L448,192L457,190L460,183L470,180L477,176L479,163L490,160L492,155L498,159Z" fill="#E0E0E0" stroke="#fff" stroke-width=".4"/><path d="M518,163L525,147L522,135L513,131L516,124L526,125L532,116L536,105L553,101L550,109L552,114L557,113L553,118L539,116L538,125L551,124L567,129L590,126L593,141L598,140L605,143L605,149L607,158L594,158L585,157L577,164L572,166L568,169L563,164L564,151L560,150L561,145L555,142L549,147L548,153L546,156L539,155L535,163L530,160L521,165Z" fill="#E0E0E0" stroke="#fff" stroke-width=".4"/><path d="M557,80L559,72L568,70L588,76L590,66L597,62L615,69L619,68L640,68L658,70L665,76L672,78L671,82L651,91L646,98L631,100L626,110L613,108L604,111L592,119L594,123L590,126L567,129L551,124L538,125L539,116L553,118L557,113L567,115L583,103L568,94L559,98L550,92L560,81Z" fill="#E0E0E0" stroke="#fff" stroke-width=".4"/><path d="M278,271L271,263L271,255L267,255L269,245L263,234L247,225L239,211L242,199L248,194L247,185L239,181L231,162L224,150L226,145L222,126L231,122L233,128L239,135L248,137L252,137L267,125L272,124L275,129L271,137L279,145L282,144L286,156L298,159L306,167L324,170L343,165L345,162L355,159L364,150L373,150L378,147L387,149L401,157L411,158L425,172L434,173L435,186L430,205L427,216L432,218L427,226L431,238L432,247L441,250L442,259L431,272L437,279L442,288L454,294L454,307L460,309L461,315L444,323L439,339L415,334L402,331L388,329L382,312L377,310L367,312L354,319L339,315L327,304L315,300L306,286L297,267L290,270L283,265Z" fill="#E0E0E0" stroke="#fff" stroke-width=".4"/><path d="M118,230L118,230L119,228L119,222L122,213L129,208L127,202L121,201L120,189L123,183L127,180L130,176L131,168L135,171L148,166L155,169L165,169L180,163L186,164L201,161L194,171L187,175L189,186L184,204L156,220L132,236Z" fill="#E0E0E0" stroke="#fff" stroke-width=".4"/><path d="M252,137L248,137L243,128L243,126L237,126L234,121L231,122L226,117L217,113L218,105L216,99L233,97L236,101L240,104L238,108L245,114L241,119L246,123L252,126Z" fill="#E0E0E0" stroke="#fff" stroke-width=".4"/><path d="M-189,-250L-184,-264L-173,-281L-169,-311L-177,-324L-178,-360L-170,-386L-158,-385L-153,-397L-158,-407L-138,-449L-126,-484L-118,-507L-106,-507L-103,-526L-79,-520L-77,-543L-70,-544L-53,-527L-34,-505L-33,-455L-29,-443L-50,-435L-63,-414L-61,-396L-80,-373L-104,-349L-113,-312L-105,-294L-93,-280L-104,-252L-117,-247L-122,-207L-129,-186L-144,-188L-151,-171L-165,-170L-169,-191L-180,-217Z" fill="#E0E0E0" stroke="#fff" stroke-width=".4"/><path d="M24,-188L37,-182L39,-177L46,-179L58,-174L59,-164L56,-158L64,-144L69,-140L68,-136L77,-132L80,-127L76,-122L65,-123L63,-121L66,-114L69,-101L58,-100L55,-95L54,-85L49,-87L38,-86L34,-91L30,-88L25,-90L15,-91L1,-96L-11,-97L-21,-97L-28,-91L-34,-91L-34,-100L-38,-109L-30,-113L-30,-121L-34,-129L-34,-139L-22,-138L-9,-146L-6,-159L4,-165L3,-175L11,-179Z" fill="#E0E0E0" stroke="#fff" stroke-width=".4"/><path d="M69,-101L74,-100L77,-105L81,-104L94,-106L102,-94L98,-90L99,-84L109,-83L114,-75L114,-71L129,-64L139,-67L147,-58L154,-58L172,-52L172,-46L167,-36L170,-26L168,-20L156,-18L150,-13L149,-5L139,-4L131,2L119,3L109,10L109,20L107,19L106,16L102,15L93,11L90,15L88,14L69,9L68,2L56,4L52,14L42,28L36,25L30,27L25,24L28,22L30,16L34,10L33,7L35,6L36,8L44,9L47,7L45,6L46,3L41,-2L40,-9L35,-12L36,-19L30,-24L25,-24L16,-30L8,-28L5,-26L-1,-26L-4,-21L-13,-20L-17,-17L-23,-21L-31,-21L-38,-23L-44,-19L-45,-24L-52,-29L-49,-37L-46,-42L-43,-41L-46,-49L-35,-65L-29,-68L-27,-73L-34,-91L-28,-91L-21,-97L-11,-97L1,-96L15,-91L25,-90L30,-88L34,-91L38,-86L49,-87L54,-85L55,-95L58,-100Z" fill="#E0E0E0" stroke="#fff" stroke-width=".4"/><path d="M-34,-139L-34,-129L-30,-121L-30,-113L-38,-109L-34,-100L-34,-91L-27,-73L-29,-68L-35,-65L-46,-49L-43,-41L-46,-42L-58,-49L-67,-47L-72,-49L-80,-44L-86,-51L-91,-49L-92,-50L-98,-59L-107,-60L-108,-67L-117,-69L-118,-64L-125,-68L-124,-73L-134,-75L-140,-81L-145,-94L-144,-101L-147,-112L-151,-119L-148,-125L-151,-135L-142,-141L-123,-151L-107,-159L-95,-155L-94,-150L-82,-149L-66,-147L-44,-147L-37,-145Z" fill="#E0E0E0" stroke="#fff" stroke-width=".4"/><path d="M-115,-24L-116,-16L-123,-16L-121,-12L-125,-0L-127,3L-138,3L-144,7L-155,6L-172,1L-175,-5L-188,-2L-189,1L-197,-1L-203,-2L-209,-5L-207,-9L-207,-13L-203,-14L-197,-9L-195,-14L-184,-13L-175,-16L-169,-15L-166,-12L-164,-15L-166,-27L-162,-29L-157,-38L-148,-32L-141,-40L-137,-41L-127,-35L-121,-36L-115,-33L-116,-30Z" fill="#E0E0E0" stroke="#fff" stroke-width=".4"/><path d="M-52,-29L-45,-24L-44,-19L-51,-15L-57,-3L-65,9L-75,13L-83,12L-92,17L-97,19L-107,16L-116,8L-120,6L-123,-0L-125,-0L-121,-12L-123,-16L-116,-16L-115,-24L-109,-19L-104,-17L-94,-19L-93,-23L-88,-24L-82,-27L-80,-25L-75,-28L-72,-32L-68,-33L-54,-28Z" fill="#E0E0E0" stroke="#fff" stroke-width=".4"/><path d="M5,-26L8,-28L16,-30L25,-24L30,-24L36,-19L35,-12L40,-9L41,-2L46,3L45,6L47,7L44,9L36,8L35,6L33,7L34,10L30,16L28,22L25,24L23,16L24,8L24,0L16,-11L12,-18L9,-24Z" fill="#E0E0E0" stroke="#fff" stroke-width=".4"/><path d="M25,24L30,27L36,25L42,28L42,32L36,36L32,34L29,55L22,53L13,47L-2,51L-8,56L-27,55L-36,52L-41,53L-45,46L-47,43L-44,40L-47,38L-51,42L-58,37L-59,30L-67,25L-68,20L-75,13L-65,9L-57,-3L-51,-15L-44,-19L-38,-23L-31,-21L-23,-21L-17,-17L-13,-20L-4,-21L-1,-26L5,-26L9,-24L12,-18L16,-11L24,0L24,8L23,16Z" fill="#E0E0E0" stroke="#fff" stroke-width=".4"/><path d="M3,-175L4,-165L-6,-159L-9,-146L-22,-138L-34,-139L-37,-145L-44,-147L-45,-153L-43,-159L-49,-162L-62,-166L-64,-184L-50,-191L-29,-190L-17,-192L-15,-187L-9,-186Z" fill="#E0E0E0" stroke="#fff" stroke-width=".4"/><path d="M13,-217L19,-212L20,-201L24,-188L11,-179L3,-175L-9,-186L-15,-187L-17,-192L-29,-190L-50,-191L-64,-184L-64,-201L-58,-216L-46,-224L-36,-206L-26,-207L-24,-225L-13,-229L-8,-226L3,-217Z" fill="#E0E0E0" stroke="#fff" stroke-width=".4"/><path d="M-151,-135L-148,-125L-151,-119L-147,-112L-144,-101L-145,-94L-140,-81L-145,-79L-148,-81L-152,-78L-161,-74L-165,-69L-174,-65L-172,-59L-171,-51L-164,-46L-157,-38L-162,-29L-166,-27L-164,-15L-166,-12L-169,-15L-175,-16L-184,-13L-195,-14L-197,-9L-203,-14L-207,-13L-220,-18L-223,-14L-234,-15L-232,-28L-226,-41L-244,-44L-250,-49L-249,-58L-251,-62L-250,-75L-252,-96L-244,-96L-241,-104L-238,-122L-241,-130L-238,-134L-228,-135L-225,-130L-217,-141L-220,-149L-220,-161L-211,-158L-203,-161L-203,-153L-190,-148L-190,-141L-178,-145L-171,-150L-157,-142Z" fill="#E0E0E0" stroke="#fff" stroke-width=".4"/><path d="M-45,46L-41,53L-36,52L-27,55L-8,56L-2,51L13,47L22,53L29,55L22,62L18,74L22,84L11,82L-1,87L-2,95L-13,97L-22,91L-32,96L-41,95L-42,84L-48,79L-46,76L-47,74L-45,69L-40,64L-47,56L-48,50Z" fill="#E0E0E0" stroke="#fff" stroke-width=".4"/><path d="M1,191L-1,196L-19,197L-19,194L-34,191L-32,185L-25,190L-15,189L-6,190L-6,193ZM-41,95L-32,96L-22,91L-13,97L-2,95L-1,87L5,92L1,102L-2,104L-10,103L-16,102L-31,106L-23,115L-29,118L-36,118L-43,109L-45,113L-42,123L-36,130L-41,134L-34,141L-28,146L-27,155L-39,150L-35,158L-43,160L-38,174L-47,174L-57,167L-61,155L-64,144L-69,137L-75,128L-76,123L-70,115L-69,110L-65,108L-65,103L-57,102L-52,98L-45,99L-43,96Z" fill="#E0E0E0" stroke="#fff" stroke-width=".4"/><path d="M231,162L225,165L220,161L206,159L201,161L186,164L180,163L165,169L155,169L148,166L135,171L131,168L130,176L127,180L123,183L119,176L123,170L116,172L105,168L97,177L78,179L68,170L55,170L52,176L43,178L31,170L18,170L10,155L1,146L7,134L-1,126L13,110L32,110L37,97L61,99L76,89L91,84L111,84L133,95L151,102L165,99L176,101L191,92L204,91L216,99L218,105L217,113L226,117L231,122L222,126L226,145L224,150ZM-1,87L11,82L22,84L23,91L34,96L32,100L17,101L12,106L2,115L-2,107L-2,104L1,102L5,92Z" fill="#E0E0E0" stroke="#fff" stroke-width=".4"/><path d="M-65,103L-65,108L-69,110L-70,115L-76,123L-78,122L-78,119L-85,113L-86,105L-85,94L-83,89L-85,86L-86,81L-81,73L-80,76L-77,74L-74,79L-71,81L-70,87L-72,92L-70,99Z" fill="#E0E0E0" stroke="#fff" stroke-width=".4"/><path d="M-120,6L-116,8L-107,16L-97,19L-92,17L-89,23L-85,29L-90,35L-96,31L-104,32L-115,29L-121,29L-123,33L-128,29L-131,36L-124,44L-122,49L-116,56L-111,60L-107,67L-96,73L-97,76L-109,70L-116,64L-127,59L-138,46L-135,45L-141,37L-141,31L-149,29L-153,36L-157,30L-156,24L-156,24L-147,24L-145,21L-141,24L-136,25L-136,20L-131,18L-130,11Z" fill="#E0E0E0" stroke="#fff" stroke-width=".4"/><path d="M-207,-13L-207,-9L-209,-5L-203,-2L-197,-1L-198,6L-203,9L-212,7L-215,14L-221,15L-223,12L-230,18L-236,19L-241,15L-246,7L-252,10L-251,2L-242,-8L-243,-13L-237,-11L-234,-15L-223,-14L-220,-18Z" fill="#E0E0E0" stroke="#fff" stroke-width=".4"/><path d="M1036,431L1026,427L1025,415L1031,409L1045,406L1052,406L1055,411L1049,417L1047,424ZM672,78L671,69L680,64L669,34L693,27L700,23L709,-9L733,-3L740,-11L741,-30L751,-32L761,-44L766,-46L769,-33L779,-23L797,-16L806,-1L801,20L805,28L820,31L837,33L852,44L860,46L865,62L873,72L886,72L912,75L928,73L941,76L959,86L974,86L980,91L994,82L1014,76L1033,75L1047,70L1056,60L1065,55L1063,49L1059,42L1066,31L1073,32L1085,36L1098,27L1117,20L1126,8L1135,3L1153,0L1163,2L1164,-4L1153,-17L1143,-23L1133,-16L1121,-19L1114,-16L1111,-24L1119,-43L1125,-57L1140,-50L1158,-62L1158,-71L1169,-92L1176,-98L1176,-110L1169,-114L1179,-125L1195,-128L1211,-129L1230,-123L1241,-115L1249,-95L1253,-86L1258,-74L1262,-55L1284,-49L1299,-35L1304,-18L1322,-18L1333,-25L1354,-30L1347,-14L1342,-7L1338,13L1330,30L1315,27L1304,33L1307,48L1305,69L1299,69L1299,78L1291,68L1286,77L1267,84L1269,93L1258,92L1252,87L1244,99L1230,108L1220,118L1202,123L1193,131L1180,135L1187,128L1184,121L1194,110L1187,102L1176,108L1162,119L1155,129L1142,130L1136,137L1143,148L1153,151L1153,158L1163,162L1177,151L1188,157L1196,158L1198,166L1181,170L1175,179L1163,186L1156,197L1170,205L1175,220L1182,234L1191,245L1190,256L1183,260L1186,267L1193,272L1191,284L1188,295L1181,296L1172,311L1162,329L1150,346L1133,358L1116,370L1102,371L1094,377L1090,373L1083,380L1065,386L1052,388L1048,403L1041,403L1038,394L1041,388L1024,384L1018,386L1006,383L1000,377L1002,370L990,367L984,362L974,369L962,371L952,371L945,374L938,376L940,391L934,391L933,388L932,382L923,386L918,384L908,379L912,368L904,365L901,352L888,355L890,339L901,327L902,316L902,305L896,302L892,293L885,294L871,292L875,286L870,277L861,283L850,280L836,289L825,299L815,301L809,297L803,297L794,294L787,297L779,308L778,297L770,300L756,298L742,295L731,289L722,286L718,279L711,277L698,268L688,263L683,267L666,257L653,248L650,231L659,233L659,226L654,218L655,206L642,188L622,182L618,170L609,163L607,158L605,149L605,143L598,140L593,141L590,126L594,123L592,119L604,111L613,108L626,110L631,100L646,98L651,91L671,82Z" fill="#E0E0E0" stroke="#fff" stroke-width=".4"/><path d="M-197,-1L-189,1L-188,-2L-175,-5L-172,1L-155,6L-156,15L-153,22L-163,20L-173,26L-172,35L-174,40L-170,49L-158,57L-152,71L-138,85L-128,85L-125,89L-129,92L-118,98L-108,103L-98,111L-97,114L-99,120L-106,113L-117,110L-122,120L-113,126L-114,135L-119,136L-126,149L-131,151L-131,146L-129,137L-126,134L-131,125L-135,116L-140,114L-144,107L-152,104L-157,98L-166,97L-176,89L-187,78L-196,69L-200,52L-206,50L-216,44L-222,46L-229,54L-234,55L-233,48L-239,46L-243,32L-238,27L-242,20L-241,15L-236,19L-230,18L-223,12L-221,15L-215,14L-212,7L-203,9L-198,6ZM-143,147L-133,146L-138,158L-136,163L-139,171L-148,165L-154,163L-172,155L-170,147L-156,149ZM-218,102L-212,97L-204,109L-206,130L-212,129L-217,135L-222,131L-222,111L-225,102Z" fill="#E0E0E0" stroke="#fff" stroke-width=".4"/><path d="M-203,-161L-211,-158L-220,-161L-225,-173L-226,-196L-224,-202L-220,-209L-209,-210L-205,-217L-195,-223L-195,-211L-199,-204L-197,-197L-191,-194L-194,-186L-197,-188L-206,-172ZM-173,-186L-169,-175L-176,-158L-189,-170L-191,-179Z" fill="#E0E0E0" stroke="#fff" stroke-width=".4"/><path d="M251,87L254,87L263,97L269,98L271,94L278,87L285,96L291,108L297,109L301,113L290,114L288,127L286,133L282,136L282,144L279,145L271,137L275,129L272,124L267,125L252,137L252,126L246,123L241,119L245,114L238,108L240,104L236,101L233,97L236,94L245,99L252,100L254,98L248,89ZM248,137L239,135L233,128L231,122L234,121L237,126L243,126L243,128Z" fill="#E0E0E0" stroke="#fff" stroke-width=".4"/><path d="M171,60L172,58L183,61L201,64L218,72L220,75L228,72L239,76L243,83L251,87L248,89L254,98L252,100L245,99L236,94L233,97L216,99L204,91L191,92L192,85L189,73L182,67L175,65Z" fill="#E0E0E0" stroke="#fff" stroke-width=".4"/><path d="M-155,6L-144,7L-138,3L-127,3L-125,-0L-123,-0L-120,6L-130,11L-131,18L-136,20L-136,25L-141,24L-145,21L-147,24L-156,24L-153,22L-156,15Z" fill="#E0E0E0" stroke="#fff" stroke-width=".4"/><path d="M-46,-42L-49,-37L-52,-29L-54,-28L-68,-33L-72,-32L-75,-28L-80,-25L-82,-27L-88,-24L-93,-23L-94,-19L-104,-17L-109,-19L-115,-24L-116,-30L-115,-33L-114,-37L-108,-37L-104,-38L-104,-40L-101,-41L-100,-45L-97,-46L-96,-50L-92,-50L-91,-49L-86,-51L-80,-44L-72,-49L-67,-47L-58,-49Z" fill="#E0E0E0" stroke="#fff" stroke-width=".4"/><path d="M-140,-81L-134,-75L-124,-73L-125,-68L-118,-64L-117,-69L-108,-67L-107,-60L-98,-59L-92,-50L-96,-50L-97,-46L-100,-45L-101,-41L-104,-40L-104,-38L-108,-37L-114,-37L-115,-33L-121,-36L-127,-35L-137,-41L-141,-40L-148,-32L-157,-38L-164,-46L-171,-51L-172,-59L-174,-65L-165,-69L-161,-74L-152,-78L-148,-81L-145,-79Z" fill="#E0E0E0" stroke="#fff" stroke-width=".4"/><path d="M127,480L126,475L131,456L132,447L136,443L145,441L151,433L159,448L162,460L169,467L186,479L193,486L200,494L204,498L210,502L206,505L201,504L196,500L191,492L186,488L182,484L172,478L163,478L160,476L153,479L145,473L141,482Z" fill="#E0E0E0" stroke="#fff" stroke-width=".4"/><path d="M321,420L330,442L334,451L325,454L323,460L323,465L310,470L290,476L279,485L274,486L270,485L263,490L255,493L244,494L241,494L239,498L235,499L233,502L227,502L223,503L215,503L211,495L212,488L210,484L207,475L204,470L206,469L205,463L206,461L206,455L211,451L210,445L213,439L218,442L222,441L236,441L238,442L251,443L255,443L258,447L264,445L273,431L285,425Z" fill="#E0E0E0" stroke="#fff" stroke-width=".4"/><path d="M108,279L122,281L128,277L131,271L140,269L142,265L146,262L134,248L159,240L161,238L176,242L195,252L230,281L253,282L264,284L267,291L276,290L281,302L287,306L289,310L298,316L298,322L297,327L299,331L302,335L304,340L306,343L310,346L313,345L315,350L316,353L321,367L358,374L361,371L366,380L358,407L321,420L285,425L273,431L264,445L258,447L255,443L251,443L238,442L236,441L222,441L218,442L213,439L210,445L211,451L206,455L204,449L201,445L200,440L193,436L186,425L183,414L174,405L169,403L161,390L159,381L160,373L153,358L147,352L140,349L136,342L137,339L133,331L129,328L125,318L117,307L111,297L104,297L106,289L107,284Z" fill="#E0E0E0" stroke="#fff" stroke-width=".4"/><path d="M81,194L82,193L83,190L92,190L104,185L95,192L96,195L95,194L93,195L91,195L90,196L90,194L89,193L87,193L83,194Z" fill="#E0E0E0" stroke="#fff" stroke-width=".4"/><path d="M81,194L83,194L87,193L89,193L90,194L90,196L91,195L93,195L95,194L96,195L97,196L84,202L78,200L75,194Z" fill="#E0E0E0" stroke="#fff" stroke-width=".4"/><path d="M132,380L83,380L35,380L-15,380L-15,330L-15,280L-19,269L-16,260L-18,254L-13,247L3,247L15,250L28,255L33,257L43,252L48,248L59,247L68,249L71,256L74,251L84,255L94,256L100,252L107,273L108,277L105,282L102,293L99,300L96,303L91,298L86,292L77,272L76,273L81,288L89,302L98,324L102,331L107,339L118,354L115,357L116,366L130,378Z" fill="#E0E0E0" stroke="#fff" stroke-width=".4"/><path d="M-15,380L-15,407L-30,407L-30,413L-79,387L-129,361L-142,369L-150,374L-157,366L-177,361L-183,352L-192,346L-198,348L-203,341L-203,335L-211,325L-206,319L-207,310L-205,302L-206,296L-204,284L-204,278L-209,265L-202,262L-201,256L-203,250L-194,244L-190,239L-184,235L-184,224L-169,229L-164,227L-153,230L-137,237L-131,250L-120,252L-102,258L-89,266L-83,262L-77,255L-80,244L-76,237L-67,230L-58,228L-42,231L-37,238L-33,238L-29,240L-16,242L-13,247L-18,254L-16,260L-19,269L-15,280L-15,330Z" fill="#E0E0E0" stroke="#fff" stroke-width=".4"/><path d="M268,561L233,599L217,599L206,608L198,608L194,612L186,612L181,608L169,613L166,619L158,618L155,616L152,616L148,616L132,606L123,606L119,602L119,595L113,593L105,579L100,576L98,571L91,565L84,564L88,557L94,556L96,553L96,541L100,528L106,525L107,519L112,510L120,503L125,491L127,480L141,482L145,473L153,479L160,476L163,478L172,478L182,484L186,488L191,492L196,500L201,504L196,509L192,515L193,519L193,523L200,523L203,522L206,524L203,529L208,536L212,542L217,546L258,561Z" fill="#E0E0E0" stroke="#fff" stroke-width=".4"/><path d="M-96,73L-107,67L-111,60L-116,56L-122,49L-124,44L-131,36L-128,29L-123,33L-121,29L-115,29L-104,32L-96,31L-90,35L-85,35L-89,43L-83,49L-84,58L-87,58L-90,60L-94,64Z" fill="#E0E0E0" stroke="#fff" stroke-width=".4"/><path d="M-48,79L-42,84L-41,95L-43,96L-45,99L-52,98L-57,102L-65,103L-70,99L-72,92L-70,87L-69,87L-68,83L-61,81L-58,80L-54,79Z" fill="#E0E0E0" stroke="#fff" stroke-width=".4"/><path d="M-92,17L-83,12L-75,13L-68,20L-67,25L-59,30L-58,37L-51,42L-47,38L-44,40L-47,43L-45,46L-48,50L-47,56L-40,64L-45,69L-47,74L-46,76L-48,79L-54,79L-58,80L-58,79L-57,77L-56,73L-57,73L-60,70L-62,69L-63,66L-66,65L-67,63L-70,64L-71,69L-74,71L-73,69L-78,66L-82,64L-84,61L-87,58L-84,58L-83,49L-89,43L-85,35L-90,35L-85,29L-89,23Z" fill="#E0E0E0" stroke="#fff" stroke-width=".4"/><path d="M-77,74L-80,76L-81,73L-86,81L-85,86L-88,85L-92,79L-97,76L-96,73L-94,64L-90,60L-87,58L-84,61L-82,64L-78,66L-73,69L-74,71Z" fill="#E0E0E0" stroke="#fff" stroke-width=".4"/><path d="M-70,87L-71,81L-74,79L-77,74L-74,71L-71,69L-70,64L-67,63L-66,65L-63,66L-62,69L-60,70L-57,73L-56,73L-57,77L-58,79L-58,80L-61,81L-68,83L-69,87Z" fill="#E0E0E0" stroke="#fff" stroke-width=".4"/></g><g clip-path="url(#v)"><path d="M334.4,136.4L334.3,137.2L333.6,134.9L333.3,132.5L333.7,131.8L334.2,131.8L333.7,132.7ZM370.1,95.5L373.4,95.7L376.3,95.9L380.0,96.1L381.1,96.3L382.4,96.4L383.1,96.5L383.6,95.7L384.0,95.3L384.3,95.0L384.2,94.7L383.8,94.4L383.1,93.4L382.6,89.7L382.4,86.6L383.2,85.6L384.2,84.9L385.7,82.8L386.4,82.1L387.6,81.6L391.4,81.4L393.0,81.0L393.5,80.3L394.3,78.6L394.6,77.1L395.1,76.5L395.6,76.0L396.2,76.0L397.3,76.4L398.2,76.7L398.8,77.0L399.3,77.5L399.9,78.4L400.0,79.0L400.2,79.3L400.6,79.3L400.9,79.3L401.2,79.2L401.3,78.9L401.2,78.5L400.5,77.4L398.9,75.3L397.8,74.5L397.3,74.1L397.2,73.6L397.8,73.0L398.5,72.6L399.7,72.9L401.2,73.0L401.9,72.7L402.6,71.1L404.3,72.8L406.2,74.7L406.9,75.1L408.2,75.3L409.2,75.4L409.7,75.6L410.2,76.1L411.2,78.2L412.1,78.8L413.4,79.2L417.2,79.1L418.4,79.3L419.4,80.2L420.0,80.7L420.2,81.0L420.2,81.4L419.9,82.0L419.9,83.1L419.8,83.9L419.5,84.3L419.4,84.6L419.7,85.0L421.5,85.7L422.1,86.6L422.5,87.0L422.7,87.5L422.4,87.8L421.5,87.7L421.1,88.2L421.1,89.2L421.7,90.1L421.9,91.0L421.5,91.8L421.0,92.9L421.0,93.8L421.3,94.2L422.7,95.0L425.8,97.1L426.6,97.2L429.6,96.7L431.0,96.7L431.8,97.0L434.1,97.3L434.9,97.7L435.6,97.7L436.7,97.6L437.4,96.7L437.8,96.4L438.1,96.3L438.8,96.3L440.6,96.9L442.6,98.1L443.9,99.3L444.5,100.3L445.2,102.6L446.2,106.0L447.4,108.3L448.7,109.6L449.7,111.8L450.5,116.6L451.1,117.6L451.6,118.1L453.1,119.5L456.3,121.8L458.2,123.1L461.1,125.3L463.8,127.3L466.5,130.3L467.0,130.7L469.4,132.4L471.9,134.1L473.8,133.7L476.6,136.3L477.7,137.2L478.1,137.5L480.1,138.6L483.3,140.7L487.4,143.7L490.0,145.4L490.7,145.6L491.4,145.6L492.2,145.3L493.0,145.0L494.5,145.3L496.0,146.1L497.0,146.6L498.1,147.3L499.0,148.1L499.7,148.4L502.0,149.0L502.4,149.4L502.6,149.8L502.6,150.3L501.4,152.6L501.2,155.5L501.2,157.7L501.3,159.4L500.7,159.5L499.2,159.1L496.2,158.4L493.6,156.9L491.9,156.0L491.6,156.1L490.9,156.8L490.4,157.6L490.0,159.1L489.3,161.0L486.1,161.0L483.5,161.2L481.8,161.9L480.1,162.8L479.7,164.0L479.3,165.4L478.3,168.8L477.4,171.8L477.0,173.8L476.3,175.1L474.4,176.9L472.2,178.1L471.1,178.6L470.6,179.3L470.5,180.0L470.1,180.2L469.2,180.1L468.2,180.2L466.2,180.9L463.9,181.7L461.2,182.6L459.7,182.6L459.1,182.8L458.8,183.2L459.1,183.9L459.4,184.6L459.6,185.3L459.0,185.9L458.6,187.0L458.2,188.9L457.3,189.4L455.7,190.3L454.0,191.5L453.6,191.8L452.6,192.1L451.7,192.0L450.8,191.8L449.9,192.1L448.9,193.1L448.4,192.8L448.2,191.9L447.7,191.2L446.1,189.9L444.8,188.9L444.3,188.8L443.1,189.1L441.6,189.3L440.3,189.1L439.4,188.7L437.9,187.4L437.3,186.6L436.9,186.1L435.9,186.2L435.6,185.6L435.5,184.9L435.8,184.0L435.8,182.4L435.2,181.3L434.5,180.7L434.6,180.4L434.9,179.6L435.3,178.9L435.3,177.4L434.8,175.9L434.6,173.7L434.7,171.5L434.1,170.5L429.0,170.5L424.4,170.5L424.1,170.3L422.4,167.5L420.9,165.5L419.5,164.2L416.3,162.7L414.7,162.1L413.4,160.9L412.3,159.7L412.0,157.9L411.8,157.4L411.5,156.9L411.1,156.7L410.7,156.8L406.9,154.7L405.4,154.2L404.0,154.6L403.4,154.7L402.1,154.1L400.7,154.9L400.1,155.0L399.2,154.8L398.5,154.5L396.6,152.6L395.0,151.9L393.9,151.4L391.7,150.7L389.3,150.3L388.1,150.0L387.2,149.6L387.0,149.4L387.0,148.7L387.0,147.8L386.6,147.2L386.1,146.4L385.2,145.8L383.8,145.9L381.7,145.8L380.0,145.3L378.7,145.1L377.2,145.3L375.9,145.3L375.0,145.7L374.4,146.2L374.1,147.7L373.7,147.9L373.2,148.1L372.5,148.0L371.0,148.0L368.4,147.7L365.1,147.6L362.7,148.4L360.8,149.5L358.9,150.7L356.7,152.7L356.1,153.6L354.8,157.1L354.2,157.5L353.5,157.9L352.7,158.0L351.2,158.5L349.2,159.4L347.9,159.7L344.4,159.5L344.2,158.4L343.6,154.4L343.3,150.4L343.3,148.5L343.7,144.7L343.6,142.8L343.5,141.0L343.6,139.4L343.9,137.4L344.1,135.5L343.9,134.1L343.2,133.0L342.1,131.7L341.9,130.9L341.8,129.9L340.7,129.9L339.7,128.9L339.0,128.4L337.2,127.8L336.4,127.8L335.6,128.2L335.0,129.0L334.6,127.7L334.6,126.4L336.0,123.5L336.8,124.4L337.9,124.7L339.3,124.7L340.6,124.5L340.3,123.5L339.7,123.0L338.9,122.6L338.7,121.3L338.8,119.9L339.1,118.6L338.7,118.1L338.1,117.8L336.7,117.9L334.8,117.5L332.9,117.4L332.4,118.9L333.5,120.8L332.6,119.9L331.8,118.6L330.6,116.3L329.9,113.6L329.8,110.7L330.4,108.3L331.2,106.0L331.7,103.1L332.4,100.2L333.0,101.5L333.8,102.6L334.9,103.7L335.4,104.0L337.2,104.4L338.3,104.2L339.5,103.6L340.7,103.8L341.7,105.0L342.6,106.3L343.9,106.6L346.6,105.6L347.9,105.4L349.0,105.8L349.6,105.9L350.2,105.9L349.7,104.7L349.5,103.5L350.1,102.9L352.3,103.6L353.7,103.1L354.0,102.9L354.3,102.6L354.5,101.6L354.4,100.6L354.3,99.6L353.9,98.8L352.9,97.6L349.0,94.8L347.8,93.7L346.7,92.2L346.0,90.1L345.4,88.0L344.9,86.4L343.6,82.7L343.1,82.2L342.4,82.0L340.8,81.9L339.2,82.2L336.6,82.8L335.1,82.6L334.4,83.0L332.7,84.6L331.9,85.9L330.7,89.0L331.6,90.0L331.6,90.6L330.9,95.2L331.3,97.3L331.2,97.5L330.9,97.0L329.9,94.8L328.2,92.1L326.8,87.9L329.3,85.1L331.5,83.2L333.2,82.0L333.7,81.7L336.2,80.7L339.3,79.9L341.6,79.2L344.6,78.7L345.6,78.5L347.0,78.6L348.2,79.1L348.9,79.5L351.4,81.2L353.9,82.9L356.1,84.8L356.7,85.5L357.1,86.5L357.4,87.4L359.2,90.2L359.9,91.5L361.0,93.2L361.9,94.1L362.8,95.1L363.4,95.9L364.0,96.3L364.7,96.5L366.4,96.2L368.4,95.7L369.6,95.5Z" fill="#4ECDC4" stroke="#2C3E50" stroke-width="1"/></g><circle cx="400.0" cy="150.0" r="4" fill="#E74C3C" stroke="#fff" stroke-width="2"/><text x="400.0" y="140.0" text-anchor="middle" font-family="sans-serif" font-weight="700" font-size="10" fill="#2D3436">Ashgabat</text></svg>