<svg viewBox="0 0 800 300" xmlns="http://www.w3.org/2000/svg"><defs><clipPath id="v"><rect width="800" height="300"/></clipPath></defs><rect width="800" height="300" fill="#DCEEF8"/><g clip-path="url(#v)"><path d="M134,303L134,304L133,307L133,331L87,331L87,370L74,372L71,380L73,402L18,402L15,407L15,400L16,400L48,399L49,394L55,387L60,365L79,349L86,329L90,328L95,316L107,314L112,316L118,316L123,312L132,312L131,303Z" fill="#E0E0E0" stroke="#fff" stroke-width=".4"/><path d="M1491,-91L1480,-77L1469,-75L1468,-54L1460,-44L1432,-51L1422,-14L1415,-10L1387,-2L1399,32L1390,37L1391,48L1382,45L1375,39L1354,37L1330,36L1325,38L1305,30L1297,34L1295,45L1272,39L1262,42L1259,50L1251,53L1233,67L1226,80L1221,80L1217,71L1199,71L1196,55L1189,55L1191,36L1174,22L1149,23L1133,26L1119,8L1108,1L1086,-14L1083,-15L1047,-3L1047,68L1040,69L1030,54L1021,49L1005,53L998,59L998,54L1001,47L998,40L982,33L976,16L968,11L967,4L981,6L982,-8L994,-12L1006,-9L1008,-28L1006,-41L992,-40L980,-45L963,-36L950,-32L943,-35L945,-46L935,-60L925,-59L913,-74L921,-90L917,-94L928,-118L943,-106L945,-122L974,-146L996,-147L1027,-131L1044,-122L1059,-131L1081,-132L1099,-120L1103,-127L1123,-126L1127,-137L1104,-152L1117,-164L1115,-170L1128,-176L1118,-192L1125,-200L1178,-209L1184,-215L1220,-224L1233,-234L1258,-229L1262,-203L1277,-209L1295,-201L1294,-188L1308,-189L1343,-212L1338,-204L1356,-186L1388,-127L1395,-139L1415,-126L1435,-132L1443,-128L1449,-115L1459,-111L1465,-102L1484,-104Z" fill="#E0E0E0" stroke="#fff" stroke-width=".4"/><path d="M603,594L593,587L588,583L587,579L589,573L589,567L581,558L579,552L579,548L574,544L574,536L571,530L566,531L568,526L571,520L570,514L574,509L571,506L575,497L582,486L594,487L593,428L593,422L610,422L610,391L666,391L721,391L777,391L782,406L779,409L781,425L786,442L791,446L799,452L792,460L782,463L777,467L776,477L770,498L771,504L769,517L763,531L755,538L749,549L747,555L740,559L736,574L736,587L736,576L734,576L735,569L733,564L726,558L724,548L726,537L719,536L718,539L710,540L713,544L714,553L706,561L699,571L692,572L680,564L675,567L673,571L666,574L666,577L652,577L650,574L639,573L634,576L630,575L623,566L621,562L610,564L607,571L603,584L598,587L594,588Z" fill="#E0E0E0" stroke="#fff" stroke-width=".4"/><path d="M593,428L594,487L582,486L575,497L571,506L574,509L570,514L571,520L568,526L566,531L571,530L574,536L574,544L579,548L579,552L570,554L563,560L553,576L540,582L526,582L522,583L523,588L516,593L510,598L492,604L489,601L486,600L484,604L472,605L474,601L470,591L468,586L462,583L453,575L456,568L463,569L467,568L475,569L467,555L468,546L467,536L461,527L462,520L453,520L453,511L448,505L454,486L472,472L472,453L478,422L481,416L475,411L475,406L470,402L466,378L480,370L537,399Z" fill="#E0E0E0" stroke="#fff" stroke-width=".4"/><path d="M1582,-1351L1612,-1372L1640,-1326L1672,-1245L1669,-1177L1638,-1168L1599,-1189L1575,-1218L1564,-1275L1545,-1291ZM1710,-1206L1746,-1164L1742,-1136L1701,-1123L1662,-1109L1688,-1203L1699,-1211ZM2219,-996L2256,-994L2307,-963L2296,-922L2244,-924L2221,-911L2193,-946L2200,-985ZM2352,-951L2387,-937L2371,-915L2348,-920L2322,-941L2325,-960ZM2233,-847L2247,-867L2264,-872L2285,-853L2286,-840L2265,-839L2236,-845ZM890,-1312L918,-1328L939,-1329L942,-1306L950,-1327L963,-1341L984,-1322L979,-1309L960,-1298L947,-1291L945,-1277L929,-1264L914,-1283L922,-1310ZM577,-208L551,-208L534,-211L537,-221L557,-229L572,-225L578,-221L576,-214ZM1013,-866L1046,-912L1043,-936L1074,-966L1121,-1003L1168,-1014L1192,-1037L1220,-1045L1229,-1021L1220,-1002L1170,-973L1127,-946L1083,-895L1062,-845L1040,-799L1042,-761L1069,-726L1061,-722L1015,-727L1011,-747L986,-758L984,-783L998,-793L997,-818L1026,-860ZM2277,-193L2281,-170L2281,-148L2287,-125L2301,-86L2280,-93L2271,-62L2285,-41L2285,-27L2274,-39L2265,-23L2262,-40L2264,-61L2262,-83L2265,-100L2266,-129L2258,-152L2259,-184L2272,-194L2267,-206L2273,-209ZM-2289,-653L-2289,-653L-2254,-624L-2217,-587L-2218,-564L-2209,-556L-2212,-582L-2173,-576L-2146,-543L-2160,-528L-2183,-525L-2183,-492L-2189,-485L-2202,-486L-2213,-498L-2232,-507L-2235,-522L-2249,-527L-2265,-523L-2273,-535L-2270,-548L-2287,-540L-2281,-523L-2289,-509L-2289,-509L-2289,-653ZM2801,-509L2801,-509L2783,-494L2764,-497L2777,-479L2785,-453L2792,-445L2793,-432L2790,-424L2764,-431L2724,-408L2711,-404L2690,-384L2669,-366L2664,-353L2644,-373L2607,-350L2601,-361L2587,-349L2568,-353L2564,-334L2547,-308L2547,-297L2563,-291L2561,-254L2548,-253L2542,-232L2548,-221L2523,-208L2518,-181L2497,-175L2493,-152L2473,-131L2467,-146L2461,-180L2453,-234L2460,-269L2472,-285L2473,-297L2495,-303L2520,-337L2545,-366L2570,-389L2581,-431L2564,-429L2556,-404L2520,-372L2508,-408L2472,-398L2436,-350L2448,-332L2416,-325L2395,-323L2396,-342L2374,-347L2356,-333L2313,-338L2266,-330L2221,-277L2166,-218L2189,-215L2196,-200L2209,-194L2218,-206L2234,-205L2254,-179L2255,-159L2244,-136L2243,-109L2236,-75L2215,-44L2210,-30L2191,-6L2172,17L2163,28L2144,39L2135,40L2126,30L2107,44L2105,51L2105,51L2103,47L2103,38L2110,37L2112,14L2108,-3L2121,-10L2138,-6L2147,-26L2152,-49L2158,-56L2165,-75L2142,-69L2129,-61L2108,-61L2102,-81L2085,-96L2061,-103L2056,-125L2051,-138L2045,-148L2037,-172L2024,-180L2003,-187L1984,-187L1967,-182L1955,-171L1963,-165L1963,-152L1955,-145L1942,-121L1942,-111L1923,-98L1906,-106L1889,-104L1881,-111L1873,-114L1852,-98L1834,-95L1821,-89L1803,-93L1790,-93L1781,-104L1767,-114L1753,-117L1735,-114L1722,-110L1702,-120L1699,-136L1682,-142L1670,-145L1654,-154L1639,-131L1645,-118L1631,-102L1611,-108L1597,-109L1587,-119L1572,-119L1560,-126L1538,-116L1512,-97L1497,-93L1491,-91L1484,-104L1465,-102L1459,-111L1449,-115L1443,-128L1435,-132L1415,-126L1395,-139L1388,-127L1356,-186L1338,-204L1343,-212L1308,-189L1294,-188L1295,-201L1277,-209L1262,-203L1258,-229L1233,-234L1220,-224L1184,-215L1178,-209L1125,-200L1118,-192L1128,-176L1115,-170L1117,-164L1104,-152L1127,-137L1123,-126L1103,-127L1099,-120L1081,-132L1059,-131L1044,-122L1027,-131L996,-147L974,-146L945,-122L943,-106L928,-118L917,-94L921,-90L913,-74L925,-59L935,-60L945,-46L943,-35L950,-32L944,-20L930,-16L916,4L929,23L928,36L943,59L934,66L932,71L926,70L916,58L912,58L903,53L899,45L886,41L877,44L875,41L855,32L835,28L823,25L821,27L803,11L787,3L775,-8L785,-12L797,-29L789,-37L810,-45L809,-50L796,-46L797,-56L804,-61L818,-63L820,-70L817,-82L823,-93L823,-100L802,-107L793,-106L785,-117L774,-113L756,-121L756,-125L751,-135L740,-136L739,-143L742,-148L733,-161L719,-159L714,-160L711,-155L705,-156L702,-170L699,-178L701,-180L713,-180L718,-185L714,-191L705,-195L706,-200L700,-204L691,-220L694,-227L693,-238L679,-244L671,-241L669,-247L654,-254L650,-269L649,-281L642,-288L648,-296L644,-321L654,-337L652,-342L668,-357L653,-371L683,-408L696,-426L702,-441L681,-463L686,-484L674,-508L683,-537L667,-577L680,-605L658,-630L660,-658L672,-661L696,-677L710,-691L734,-667L772,-657L826,-614L837,-596L837,-572L822,-553L799,-544L736,-571L725,-566L748,-540L749,-525L750,-490L768,-481L779,-472L781,-488L773,-502L782,-515L816,-494L828,-502L818,-527L851,-561L864,-559L877,-546L886,-571L874,-592L881,-614L870,-638L910,-626L918,-605L900,-600L900,-580L911,-567L933,-575L937,-598L966,-616L1016,-649L1026,-647L1012,-624L1030,-620L1040,-633L1066,-634L1087,-650L1103,-627L1120,-653L1105,-676L1112,-689L1154,-677L1173,-664L1225,-620L1234,-640L1220,-661L1219,-669L1202,-673L1207,-692L1199,-725L1199,-739L1225,-779L1234,-822L1245,-831L1282,-818L1285,-792L1272,-756L1281,-742L1285,-712L1282,-656L1298,-632L1291,-607L1264,-555L1280,-550L1286,-563L1301,-572L1305,-590L1317,-607L1309,-629L1315,-654L1300,-658L1297,-680L1308,-722L1290,-757L1315,-788L1312,-821L1319,-822L1326,-796L1320,-752L1336,-744L1329,-776L1353,-795L1382,-797L1408,-771L1396,-809L1394,-861L1419,-871L1453,-869L1484,-876L1472,-903L1488,-938L1505,-940L1532,-968L1569,-975L1574,-991L1611,-997L1623,-984L1655,-1015L1681,-1014L1684,-1040L1698,-1067L1731,-1094L1756,-1073L1736,-1057L1768,-1047L1772,-1017L1785,-1032L1826,-1031L1858,-1001L1870,-980L1866,-950L1850,-934L1813,-904L1803,-888L1820,-881L1841,-868L1854,-878L1861,-846L1867,-859L1890,-866L1935,-858L1939,-835L1998,-828L1999,-866L2029,-857L2051,-857L2074,-831L2081,-801L2072,-781L2090,-746L2112,-728L2126,-775L2148,-755L2173,-767L2200,-753L2210,-765L2233,-759L2223,-802L2242,-822L2307,-809L2370,-791L2382,-764L2419,-731L2476,-739L2504,-732L2516,-714L2514,-684L2531,-672L2550,-681L2575,-682L2602,-674L2629,-678L2653,-643L2671,-655L2660,-681L2666,-699L2711,-688L2740,-690L2781,-671L2801,-653L2801,-509ZM2801,-730L2785,-728L2783,-742L2801,-760L2801,-730ZM-2289,-760L-2289,-760L-2289,-760L-2287,-762L-2275,-762L-2254,-749L-2256,-743L-2270,-733L-2289,-730L-2289,-730L-2289,-760ZM729,-23L732,-28L743,-24L747,-23L749,-19L751,-18L751,-17L758,-12L773,-13L770,-6L754,-2L735,9L727,5L730,-4L715,-10L717,-14L731,-21Z" fill="#E0E0E0" stroke="#fff" stroke-width=".4"/><path d="M-474,652L-483,665L-487,675L-492,680L-499,681L-501,677L-504,677L-509,681L-515,678L-511,672L-510,665L-507,659L-513,651L-514,641L-507,629L-502,630L-492,634L-477,646ZM344,-97L350,-91L371,-87L363,-72L362,-57L358,-54L351,-56L352,-50L341,-39L341,-29L348,-32L353,-24L352,-18L356,-10L351,-4L355,11L363,14L361,22L348,33L320,28L300,34L298,46L282,48L266,40L261,44L235,35L229,28L237,16L239,-24L225,-46L214,-56L193,-64L191,-80L209,-84L233,-79L229,-103L242,-94L275,-111L279,-129L292,-134L294,-126L300,-126L307,-117L317,-106L324,-108L336,-98L339,-96ZM380,43L389,36L391,52L387,67L380,63L377,50Z" fill="#E0E0E0" stroke="#fff" stroke-width=".4"/><path d="M20,516L14,505L7,500L13,497L20,487L23,479L28,474L35,476L42,473L50,472L57,477L66,481L75,491L84,501L85,511L87,519L93,523L94,529L93,533L91,534L84,533L83,534L79,535L69,531L62,531L36,530L32,532L28,532L20,534L18,523L31,523L34,521L37,521L42,518L48,521L54,521L60,518L58,513L53,516L48,516L43,512L38,512L35,516Z" fill="#E0E0E0" stroke="#fff" stroke-width=".4"/><path d="M93,533L94,529L93,523L87,519L85,511L84,501L89,499L91,490L96,490L106,494L114,491L119,492L121,489L178,489L181,478L178,476L172,412L165,346L186,346L234,379L282,413L285,420L294,424L301,426L301,436L316,434L316,469L309,478L308,488L295,490L276,491L270,496L261,497L252,497L249,494L241,496L228,502L225,507L214,513L212,517L206,520L199,518L196,522L194,532L182,544L183,549L179,555L180,563L174,565L171,567L168,561L164,562L162,562L159,566L148,566L144,564L143,565L138,561L139,557L137,555L134,557L135,552L138,548L132,542L130,538L127,535L124,535L121,537L116,539L112,542L106,541L102,537L100,536L96,538L94,538Z" fill="#E0E0E0" stroke="#fff" stroke-width=".4"/><path d="M15,407L18,402L73,402L71,380L74,372L87,370L87,331L133,331L133,307L186,346L165,346L172,412L178,476L181,478L178,489L121,489L119,492L114,491L106,494L96,490L91,490L89,499L84,501L75,491L66,481L57,477L50,472L42,473L35,476L28,474L23,479L22,471L26,464L28,450L26,435L25,428L26,420L22,413Z" fill="#E0E0E0" stroke="#fff" stroke-width=".4"/><path d="M466,378L470,402L475,406L475,411L481,416L478,422L472,453L472,472L454,486L448,505L453,511L453,520L462,520L461,527L457,528L457,533L454,533L444,517L441,516L430,524L419,520L411,519L407,521L399,521L391,527L384,528L366,520L360,524L353,523L347,518L333,512L318,514L314,517L312,526L308,531L307,544L296,536L291,536L287,540L287,530L271,527L270,520L262,511L260,504L261,497L270,496L276,491L295,490L308,488L309,478L316,469L316,434L336,428L377,398L426,369L448,376L456,384Z" fill="#E0E0E0" stroke="#fff" stroke-width=".4"/><path d="M180,563L179,555L183,549L182,544L194,532L196,522L199,518L206,520L212,517L214,513L225,507L228,502L241,496L249,494L252,497L261,497L260,504L262,511L270,520L271,527L287,530L287,540L283,545L277,546L274,552L269,554L256,554L250,552L245,555L239,554L215,554L214,563L216,573L206,570L200,570L195,574L189,571L186,566Z" fill="#E0E0E0" stroke="#fff" stroke-width=".4"/><path d="M761,221L759,226L753,224L751,235L754,237L750,239L750,243L757,241L757,247L750,274L748,269L741,245L745,240L744,239L747,231L750,219L752,214L753,214L757,214L759,211L763,211L763,218L761,220Z" fill="#E0E0E0" stroke="#fff" stroke-width=".4"/><path d="M763,211L759,211L757,214L753,214L758,200L765,188L765,188L771,189L774,195L766,202Z" fill="#E0E0E0" stroke="#fff" stroke-width=".4"/><path d="M757,241L750,243L750,239L754,237L751,235L753,224L759,226L759,236Z" fill="#E0E0E0" stroke="#fff" stroke-width=".4"/><path d="M133,307L134,304L134,303L133,284L156,272L170,270L182,265L187,257L204,251L205,238L213,237L219,231L238,228L240,222L236,218L232,200L231,190L225,179L239,169L254,166L263,159L277,154L301,150L324,149L331,152L345,145L360,145L365,149L375,148L372,157L374,173L371,188L362,197L364,210L375,220L375,224L384,231L390,260L395,275L395,282L393,295L394,303L392,311L393,321L388,328L396,339L397,346L402,355L408,352L420,359L426,369L377,398L336,428L316,434L301,436L301,426L294,424L285,420L282,413L234,379L186,346Z" fill="#E0E0E0" stroke="#fff" stroke-width=".4"/><path d="M759,226L761,221L777,227L804,209L810,230L807,232L779,241L793,257L789,260L786,265L775,268L772,274L766,279L750,276L750,274L757,247L757,241L759,236Z" fill="#E0E0E0" stroke="#fff" stroke-width=".4"/><path d="M985,357L988,356L988,360L999,358L1011,358L1020,359L1029,348L1040,338L1049,329L1051,334L1053,346L1046,346L1045,357L1048,359L1041,362L1041,368L1037,374L1037,381L1034,384L991,376L986,360Z" fill="#E0E0E0" stroke="#fff" stroke-width=".4"/><path d="M974,349L973,338L977,329L981,328L985,333L986,342L983,351L979,352Z" fill="#E0E0E0" stroke="#fff" stroke-width=".4"/><path d="M934,266L937,273L936,277L941,289L931,289L927,282L914,280L925,264Z" fill="#E0E0E0" stroke="#fff" stroke-width=".4"/><path d="M810,230L804,209L836,192L841,171L840,158L848,154L855,143L861,140L877,142L882,147L889,144L898,165L907,170L909,180L901,186L898,199L908,215L925,225L933,237L930,249L935,249L935,258L943,267L934,266L925,264L914,280L888,279L848,246L827,234Z" fill="#E0E0E0" stroke="#fff" stroke-width=".4"/><path d="M1037,381L1037,374L1041,368L1041,362L1048,359L1045,357L1046,346L1053,346L1060,357L1068,363L1078,365L1086,367L1093,376L1097,381L1102,383L1102,387L1096,396L1094,400L1088,405L1083,415L1077,414L1074,418L1071,426L1073,436L1072,438L1065,437L1056,443L1055,450L1052,453L1043,453L1037,457L1037,463L1031,467L1023,466L1013,471L1007,472L1002,461L991,437L1034,422L1043,391ZM1051,334L1049,329L1053,323L1055,325L1053,331Z" fill="#E0E0E0" stroke="#fff" stroke-width=".4"/><path d="M998,59L1005,53L1021,49L1030,54L1040,69L1047,68L1063,68L1061,58L1073,52L1085,41L1104,51L1105,66L1111,70L1126,69L1131,72L1138,91L1154,104L1163,113L1178,122L1197,129L1196,140L1192,140L1186,135L1183,141L1171,145L1169,159L1161,164L1149,167L1147,175L1136,177L1121,170L1120,156L1110,155L1093,139L1082,137L1067,128L1057,127L1050,130L1041,129L1031,140L1018,143L1016,131L1018,112L1007,105L1010,93L1001,92L1004,76L1017,81L1030,75L1020,63L1016,53L1004,57L1003,71Z" fill="#E0E0E0" stroke="#fff" stroke-width=".4"/><path d="M943,267L935,258L935,249L930,249L933,237L925,225L908,215L898,199L901,186L909,180L907,170L898,165L889,144L881,129L884,124L880,103L889,98L892,105L899,113L908,115L914,115L930,101L935,100L940,106L935,114L944,124L947,123L952,136L965,140L975,149L995,152L1017,147L1018,143L1031,140L1041,129L1050,130L1057,127L1067,128L1082,137L1093,139L1110,155L1120,156L1121,170L1116,192L1112,204L1118,207L1112,216L1117,229L1118,240L1128,243L1130,253L1117,268L1124,277L1129,287L1143,294L1143,308L1150,310L1151,318L1131,326L1125,344L1099,339L1083,336L1068,334L1062,314L1055,311L1044,314L1030,322L1012,317L998,304L984,300L975,285L965,263L957,266L948,260Z" fill="#E0E0E0" stroke="#fff" stroke-width=".4"/><path d="M761,221L761,220L763,218L763,211L766,202L774,195L771,189L765,188L764,174L767,167L771,164L775,160L775,150L780,153L796,148L803,152L815,152L831,145L839,145L855,143L848,154L840,158L841,171L836,192L804,209L777,227Z" fill="#E0E0E0" stroke="#fff" stroke-width=".4"/><path d="M914,115L908,115L903,105L903,102L896,102L892,97L889,98L884,92L873,88L875,79L872,72L892,69L895,74L900,77L897,82L905,88L901,94L907,99L913,102Z" fill="#E0E0E0" stroke="#fff" stroke-width=".4"/><path d="M654,-254L669,-247L671,-241L679,-244L693,-238L694,-227L691,-220L700,-204L706,-200L705,-195L714,-191L718,-185L713,-180L701,-180L699,-178L702,-170L705,-156L693,-154L689,-149L688,-138L682,-140L670,-139L666,-144L661,-140L655,-143L644,-144L628,-149L614,-151L603,-151L595,-144L589,-144L588,-154L584,-164L593,-169L593,-179L589,-188L588,-198L602,-198L617,-207L620,-221L632,-229L631,-240L639,-244Z" fill="#E0E0E0" stroke="#fff" stroke-width=".4"/><path d="M705,-156L711,-155L714,-160L719,-159L733,-161L742,-148L739,-143L740,-136L751,-135L756,-125L756,-121L774,-113L785,-117L793,-106L802,-107L823,-100L823,-93L817,-82L820,-70L818,-63L804,-61L797,-56L796,-46L785,-45L776,-38L763,-37L750,-29L751,-18L749,-19L747,-23L743,-24L732,-28L729,-23L727,-25L705,-30L704,-38L691,-36L686,-24L675,-9L668,-13L662,-10L655,-13L659,-16L661,-22L665,-29L664,-33L667,-34L668,-31L677,-31L681,-32L678,-34L679,-38L674,-43L672,-51L667,-55L668,-62L661,-68L656,-68L645,-75L636,-73L632,-70L626,-70L623,-65L612,-63L608,-60L601,-65L592,-65L583,-67L577,-63L576,-68L568,-74L571,-83L575,-88L578,-87L574,-97L587,-115L594,-118L596,-124L589,-144L595,-144L603,-151L614,-151L628,-149L644,-144L655,-143L661,-140L666,-144L670,-139L682,-140L688,-138L689,-149L693,-154Z" fill="#E0E0E0" stroke="#fff" stroke-width=".4"/><path d="M588,-198L589,-188L593,-179L593,-169L584,-164L588,-154L589,-144L596,-124L594,-118L587,-115L574,-97L578,-87L575,-88L562,-97L551,-94L545,-96L536,-91L529,-99L523,-96L523,-97L516,-108L506,-109L504,-116L495,-119L492,-113L485,-118L486,-124L475,-126L468,-133L463,-147L464,-155L460,-168L455,-176L459,-182L456,-194L465,-201L487,-213L505,-221L519,-217L520,-211L534,-211L551,-208L577,-208L585,-205Z" fill="#E0E0E0" stroke="#fff" stroke-width=".4"/><path d="M496,-68L495,-59L487,-59L490,-55L485,-41L482,-38L470,-37L463,-33L451,-34L431,-39L428,-47L414,-43L412,-39L404,-42L396,-43L390,-46L392,-51L392,-55L396,-56L403,-51L405,-56L418,-55L428,-59L434,-58L439,-54L440,-58L438,-71L443,-74L448,-84L459,-77L467,-86L472,-87L483,-81L489,-82L496,-78L495,-75Z" fill="#E0E0E0" stroke="#fff" stroke-width=".4"/><path d="M568,-74L576,-68L577,-63L568,-58L562,-44L553,-30L542,-26L533,-27L522,-22L517,-19L505,-23L495,-31L490,-34L488,-41L485,-41L490,-55L487,-59L495,-59L496,-68L503,-62L509,-60L520,-63L522,-67L527,-68L534,-71L536,-69L542,-72L546,-77L550,-78L565,-72Z" fill="#E0E0E0" stroke="#fff" stroke-width=".4"/><path d="M632,-70L636,-73L645,-75L656,-68L661,-68L668,-62L667,-55L672,-51L674,-43L679,-38L678,-34L681,-32L677,-31L668,-31L667,-34L664,-33L665,-29L661,-22L659,-16L655,-13L653,-23L654,-31L654,-40L646,-53L641,-62L637,-68Z" fill="#E0E0E0" stroke="#fff" stroke-width=".4"/><path d="M655,-13L662,-10L668,-13L675,-9L675,-4L668,0L664,-2L660,22L652,20L641,13L625,17L618,22L597,21L586,18L580,20L576,12L574,8L577,5L574,2L569,7L561,1L560,-7L551,-12L550,-18L542,-26L553,-30L562,-44L568,-58L577,-63L583,-67L592,-65L601,-65L608,-60L612,-63L623,-65L626,-70L632,-70L637,-68L641,-62L646,-53L654,-40L654,-31L653,-23Z" fill="#E0E0E0" stroke="#fff" stroke-width=".4"/><path d="M631,-240L632,-229L620,-221L617,-207L602,-198L588,-198L585,-205L577,-208L576,-214L578,-221L572,-225L557,-229L554,-250L570,-258L594,-256L608,-259L610,-254L617,-252Z" fill="#E0E0E0" stroke="#fff" stroke-width=".4"/><path d="M456,-194L459,-182L455,-176L460,-168L464,-155L463,-147L468,-133L462,-131L458,-133L455,-129L445,-125L439,-119L429,-114L432,-108L433,-98L440,-93L448,-84L443,-74L438,-71L440,-58L439,-54L434,-58L428,-59L418,-55L405,-56L403,-51L396,-56L392,-55L377,-62L374,-57L362,-57L363,-72L371,-87L350,-91L344,-97L344,-106L342,-111L343,-126L341,-150L349,-150L353,-158L356,-180L354,-188L356,-193L368,-194L371,-189L380,-201L377,-210L377,-224L387,-220L396,-224L397,-215L411,-209L411,-200L425,-205L433,-212L449,-202Z" fill="#E0E0E0" stroke="#fff" stroke-width=".4"/><path d="M576,12L580,20L586,18L597,21L618,22L625,17L641,13L652,20L660,22L652,30L647,44L652,55L640,52L625,58L625,68L612,69L602,63L591,68L581,67L580,55L572,49L575,46L573,44L576,38L581,32L574,23L573,16Z" fill="#E0E0E0" stroke="#fff" stroke-width=".4"/><path d="M628,176L626,182L606,183L606,180L589,177L591,169L599,175L610,174L620,175L620,178ZM581,67L591,68L602,63L612,69L625,68L625,58L632,63L628,75L624,77L616,77L608,75L591,80L601,90L594,93L586,93L579,84L576,88L579,99L586,107L581,111L589,120L596,125L596,135L583,130L587,139L578,141L583,157L574,157L562,149L557,135L555,123L549,115L542,105L541,99L548,90L548,84L553,82L553,77L562,75L568,71L576,71L578,68Z" fill="#E0E0E0" stroke="#fff" stroke-width=".4"/><path d="M889,144L882,147L877,142L861,140L855,143L839,145L831,145L815,152L803,152L796,148L780,153L775,150L775,160L771,164L767,167L762,159L767,153L759,154L747,150L737,160L716,162L704,153L689,152L686,160L676,162L662,152L647,153L638,135L628,125L635,111L626,102L642,85L664,84L669,70L696,72L713,60L730,55L753,54L778,68L798,75L815,72L827,74L844,64L859,63L872,72L875,79L873,88L884,92L889,98L880,103L884,124L881,129ZM625,58L640,52L652,55L654,62L666,68L663,73L647,74L641,80L629,90L624,81L624,77L628,75L632,63Z" fill="#E0E0E0" stroke="#fff" stroke-width=".4"/><path d="M553,77L553,82L548,84L548,90L541,99L539,98L538,94L530,88L529,79L530,66L532,60L530,57L529,51L535,42L536,45L540,44L543,49L546,51L547,58L545,64L547,72Z" fill="#E0E0E0" stroke="#fff" stroke-width=".4"/><path d="M490,-34L495,-31L505,-23L517,-19L522,-22L526,-14L530,-8L525,-1L518,-5L509,-5L496,-8L490,-8L487,-4L482,-8L479,0L486,9L489,15L495,23L501,27L506,35L518,43L517,46L504,39L495,32L482,26L471,12L473,10L467,2L467,-5L458,-8L453,0L449,-6L449,-13L450,-14L460,-13L462,-16L467,-13L473,-13L473,-18L478,-20L479,-29Z" fill="#E0E0E0" stroke="#fff" stroke-width=".4"/><path d="M392,-55L392,-51L390,-46L396,-43L404,-42L403,-34L396,-30L386,-33L383,-24L376,-24L374,-27L366,-20L359,-19L353,-24L348,-32L341,-29L341,-39L352,-50L351,-56L358,-54L362,-57L374,-57L377,-62Z" fill="#E0E0E0" stroke="#fff" stroke-width=".4"/><path d="M342,-111L344,-106L344,-97L339,-96L336,-98L338,-110Z" fill="#E0E0E0" stroke="#fff" stroke-width=".4"/><path d="M343,-126L342,-111L338,-110L336,-98L324,-108L317,-106L307,-117L300,-126L294,-126L292,-134L303,-138L313,-136L326,-141L335,-131Z" fill="#E0E0E0" stroke="#fff" stroke-width=".4"/><path d="M354,-188L356,-180L353,-158L349,-150L341,-150L343,-126L335,-131L326,-141L313,-136L303,-138L310,-145L323,-179L342,-188Z" fill="#E0E0E0" stroke="#fff" stroke-width=".4"/><path d="M128,57L134,52L139,50L143,59L151,59L154,57L162,57L166,67L159,72L159,86L157,89L156,98L150,99L156,110L152,122L157,127L155,132L150,139L151,145L145,149L138,147L130,149L132,135L131,124L125,122L121,116L123,104L128,97L129,89L132,78L132,70L129,64Z" fill="#E0E0E0" stroke="#fff" stroke-width=".4"/><path d="M151,145L150,139L155,132L157,127L152,122L156,110L150,99L156,98L157,89L159,86L159,72L166,67L162,57L154,57L151,59L143,59L139,50L134,52L128,57L129,44L123,35L143,21L161,25L180,25L195,28L206,27L229,28L235,35L261,44L266,40L282,48L298,46L299,57L286,70L268,74L266,80L258,90L252,105L258,116L249,124L246,135L236,139L226,152L208,153L194,152L185,159L180,165L173,164L168,158L164,148Z" fill="#E0E0E0" stroke="#fff" stroke-width=".4"/><path d="M168,-197L171,-180L160,-159L135,-146L115,-149L126,-173L119,-197L138,-216L149,-228L152,-215L149,-202L158,-202Z" fill="#E0E0E0" stroke="#fff" stroke-width=".4"/><path d="M404,-42L412,-39L414,-43L428,-47L431,-39L451,-34L450,-24L453,-15L442,-18L430,-11L431,-1L429,4L434,14L447,24L454,40L470,56L481,56L485,60L481,64L493,70L504,76L516,86L517,89L515,96L507,87L495,84L489,96L499,103L497,113L491,114L484,129L478,130L478,125L481,115L484,111L478,101L474,92L468,89L464,81L455,78L449,70L438,69L427,61L414,48L405,37L400,18L393,16L382,9L375,12L367,21L361,22L363,14L355,11L351,-4L356,-10L352,-18L353,-24L359,-19L366,-20L374,-27L376,-24L383,-24L386,-33L396,-30L403,-34ZM465,126L476,125L470,139L473,144L470,153L459,147L452,145L432,136L434,127L450,128ZM379,76L386,70L395,83L393,108L386,106L381,112L375,108L375,85L371,75Z" fill="#E0E0E0" stroke="#fff" stroke-width=".4"/><path d="M168,-197L158,-202L149,-202L152,-215L149,-228L161,-229L176,-214ZM212,-186L212,-186L214,-200L205,-215L205,-215L188,-219L184,-226L189,-237L185,-244L177,-232L176,-256L169,-270L174,-297L185,-318L197,-316L214,-319L198,-290L213,-293L228,-293L225,-272L212,-249L227,-247L228,-245L240,-215L250,-211L259,-184L263,-175L280,-170L278,-155L271,-149L277,-137L264,-125L245,-125L221,-119L214,-124L205,-113L192,-116L182,-107L174,-112L195,-135L208,-140L208,-140L186,-144L182,-153L196,-160L189,-173L191,-188Z" fill="#E0E0E0" stroke="#fff" stroke-width=".4"/><path d="M912,58L916,58L926,70L932,71L934,66L943,59L950,69L958,82L964,83L968,88L957,89L954,103L952,110L947,114L947,123L944,124L935,114L940,106L935,100L930,101L914,115L913,102L907,99L901,94L905,88L897,82L900,77L895,74L892,69L895,66L906,72L913,73L915,70L908,60ZM908,115L899,113L892,105L889,98L892,97L896,102L903,102L903,105Z" fill="#E0E0E0" stroke="#fff" stroke-width=".4"/><path d="M821,27L823,25L835,28L855,32L875,41L877,44L886,41L899,45L903,53L912,58L908,60L915,70L913,73L906,72L895,66L892,69L872,72L859,63L844,64L846,56L842,43L834,36L826,33Z" fill="#E0E0E0" stroke="#fff" stroke-width=".4"/><path d="M451,-34L463,-33L470,-37L482,-38L485,-41L488,-41L490,-34L479,-29L478,-20L473,-18L473,-13L467,-13L462,-16L460,-13L450,-14L453,-15L450,-24Z" fill="#E0E0E0" stroke="#fff" stroke-width=".4"/><path d="M575,-88L571,-83L568,-74L565,-72L550,-78L546,-77L542,-72L536,-69L534,-71L527,-68L522,-67L520,-63L509,-60L503,-62L496,-68L495,-75L496,-78L498,-83L504,-82L509,-84L509,-86L512,-87L513,-92L516,-93L518,-97L523,-97L523,-96L529,-99L536,-91L545,-96L551,-94L562,-97Z" fill="#E0E0E0" stroke="#fff" stroke-width=".4"/><path d="M468,-133L475,-126L486,-124L485,-118L492,-113L495,-119L504,-116L506,-109L516,-108L523,-97L518,-97L516,-93L513,-92L512,-87L509,-86L509,-84L504,-82L498,-83L496,-78L489,-82L483,-81L472,-87L467,-86L459,-77L448,-84L440,-93L433,-98L432,-108L429,-114L439,-119L445,-125L455,-129L458,-133L462,-131Z" fill="#E0E0E0" stroke="#fff" stroke-width=".4"/><path d="M771,504L770,498L776,477L777,467L782,463L792,460L799,452L807,469L811,482L819,489L838,503L846,512L854,520L858,525L865,529L861,533L855,532L850,527L844,518L838,514L834,509L822,503L812,503L809,500L801,503L792,496L788,507Z" fill="#E0E0E0" stroke="#fff" stroke-width=".4"/><path d="M991,437L1002,461L1007,472L997,476L994,482L994,487L980,493L957,500L944,510L938,511L934,510L926,516L917,519L905,520L901,521L898,525L894,526L892,529L885,529L881,531L871,530L867,522L868,514L865,510L862,499L858,493L861,492L860,485L861,482L861,476L867,471L866,465L869,458L875,462L879,460L895,460L898,462L912,463L917,462L921,467L927,465L937,449L950,442Z" fill="#E0E0E0" stroke="#fff" stroke-width=".4"/><path d="M750,276L766,279L772,274L775,268L786,265L789,260L793,257L779,241L807,232L810,230L827,234L848,246L888,279L914,280L927,282L931,289L941,289L946,303L953,306L955,312L965,319L966,325L965,330L966,336L970,340L972,345L974,349L979,352L983,351L985,357L986,360L991,376L1034,384L1037,381L1043,391L1034,422L991,437L950,442L937,449L927,465L921,467L917,462L912,463L898,462L895,460L879,460L875,462L869,458L866,465L867,471L861,476L859,470L855,465L854,459L846,454L839,442L835,429L825,419L819,417L809,402L808,392L808,383L800,366L794,359L786,356L781,347L782,344L778,336L774,332L769,321L760,308L753,297L746,297L748,288L749,282Z" fill="#E0E0E0" stroke="#fff" stroke-width=".4"/><path d="M719,179L720,179L722,175L732,175L745,170L735,177L736,181L735,180L732,181L730,181L729,182L729,180L728,179L725,179L721,180Z" fill="#E0E0E0" stroke="#fff" stroke-width=".4"/><path d="M719,179L721,180L725,179L728,179L729,180L729,182L730,181L732,181L735,180L736,181L737,182L722,189L715,187L712,180Z" fill="#E0E0E0" stroke="#fff" stroke-width=".4"/><path d="M225,179L231,190L232,200L236,218L240,222L238,228L219,231L213,237L205,238L204,251L187,257L182,265L170,270L156,272L133,284L134,303L131,303L132,312L123,312L118,316L112,316L107,314L95,316L90,328L86,329L79,349L60,365L55,387L49,394L48,399L16,400L15,400L16,393L22,389L26,381L25,376L30,365L38,355L43,353L47,344L47,335L52,326L61,320L70,304L71,303L78,297L91,295L102,284L109,280L121,267L117,246L123,232L125,223L134,212L148,204L158,197L168,179L172,168L183,168L191,176L205,175L219,179Z" fill="#E0E0E0" stroke="#fff" stroke-width=".4"/><path d="M777,391L721,391L666,391L610,391L610,335L610,278L605,265L609,255L607,248L612,240L631,239L644,244L658,249L665,251L676,246L682,241L694,240L704,242L708,250L711,245L723,249L734,250L741,245L748,269L750,274L746,280L743,292L739,301L736,303L731,298L725,291L714,268L713,269L719,286L728,303L738,327L743,336L748,345L761,362L758,365L758,375L775,388Z" fill="#E0E0E0" stroke="#fff" stroke-width=".4"/><path d="M610,391L610,422L593,422L593,428L537,399L480,370L466,378L456,384L448,376L426,369L420,359L408,352L402,355L397,346L396,339L388,328L393,321L392,311L394,303L393,295L395,282L395,275L390,260L397,257L398,250L397,243L406,236L411,231L418,226L419,213L435,219L441,218L453,221L472,228L478,243L491,246L511,253L526,261L533,257L540,249L536,237L541,228L551,221L561,218L580,222L585,229L590,229L594,232L608,234L612,240L607,248L609,255L605,265L610,278L610,335Z" fill="#E0E0E0" stroke="#fff" stroke-width=".4"/><path d="M932,597L892,640L873,640L861,650L852,650L848,655L838,655L832,650L820,656L815,662L806,661L803,659L799,660L795,659L777,647L767,647L762,643L762,635L755,632L747,617L740,614L738,608L731,601L722,600L727,592L734,592L736,587L736,574L740,559L747,555L749,549L755,538L763,531L769,517L771,504L788,507L792,496L801,503L809,500L812,503L822,503L834,509L838,514L844,518L850,527L855,532L850,538L845,545L846,549L846,553L854,553L858,552L861,555L858,560L863,568L868,575L874,580L920,597Z" fill="#E0E0E0" stroke="#fff" stroke-width=".4"/><path d="M518,43L506,35L501,27L495,23L489,15L486,9L479,0L482,-8L487,-4L490,-8L496,-8L509,-5L518,-5L525,-1L530,-1L526,8L533,16L531,25L528,26L525,27L521,32Z" fill="#E0E0E0" stroke="#fff" stroke-width=".4"/><path d="M572,49L580,55L581,67L578,68L576,71L568,71L562,75L553,77L547,72L545,64L547,58L549,58L550,54L558,51L561,50L566,49Z" fill="#E0E0E0" stroke="#fff" stroke-width=".4"/><path d="M522,-22L533,-27L542,-26L550,-18L551,-12L560,-7L561,1L569,7L574,2L577,5L574,8L576,12L573,16L574,23L581,32L576,38L573,44L575,46L572,49L566,49L561,50L561,49L562,47L564,42L562,42L559,38L557,38L555,34L552,33L550,31L548,32L546,38L542,39L544,38L538,34L534,32L532,29L528,26L531,25L533,16L526,8L530,-1L525,-1L530,-8L526,-14Z" fill="#E0E0E0" stroke="#fff" stroke-width=".4"/><path d="M540,44L536,45L535,42L529,51L530,57L527,56L523,50L517,46L518,43L521,32L525,27L528,26L532,29L534,32L538,34L544,38L542,39Z" fill="#E0E0E0" stroke="#fff" stroke-width=".4"/><path d="M547,58L546,51L543,49L540,44L542,39L546,38L548,32L550,31L552,33L555,34L557,38L559,38L562,42L564,42L562,47L561,49L561,50L558,51L550,54L549,58Z" fill="#E0E0E0" stroke="#fff" stroke-width=".4"/></g><g clip-path="url(#v)"><path d="M418.7,212.6L418.7,213.1L418.2,216.3L418.1,217.4L418.0,219.4L418.0,221.7L419.1,223.7L419.2,224.6L418.7,225.6L416.6,226.7L414.0,228.2L411.6,229.6L409.1,231.1L408.4,232.1L407.1,232.9L406.0,233.6L405.9,234.4L405.1,235.8L404.2,236.9L401.8,237.4L401.4,237.7L400.2,239.4L399.7,240.0L399.1,241.4L399.9,244.9L400.9,248.5L401.1,250.0L401.1,251.3L400.5,252.6L399.2,254.6L398.3,256.0L396.5,258.5L396.0,259.1L394.7,259.9L392.4,260.8L390.7,261.7L389.8,257.8L389.0,254.5L388.4,251.8L387.4,247.0L386.5,242.9L385.6,238.8L384.8,235.0L384.0,231.3L383.6,230.7L381.1,228.9L378.8,227.3L376.5,225.4L373.9,223.4L373.5,220.8L372.1,216.9L370.8,214.8L370.3,214.2L367.5,212.8L365.8,211.8L365.4,211.2L365.1,209.6L363.9,206.4L362.6,203.6L362.1,201.6L362.1,199.2L362.3,197.4L362.9,196.6L365.6,194.4L366.9,191.7L368.5,190.7L369.8,190.0L370.9,189.1L371.9,187.7L372.7,186.2L372.8,184.6L373.1,181.9L373.6,180.1L374.7,178.1L374.3,176.4L373.7,174.6L373.8,171.5L373.7,170.2L373.2,169.1L372.7,167.7L372.7,166.5L373.2,163.3L373.5,160.9L374.1,157.8L373.9,156.9L373.5,156.3L372.1,155.6L372.1,155.1L372.5,154.7L374.4,153.1L375.5,150.9L376.3,150.4L377.7,149.6L377.6,148.7L377.3,147.7L380.8,146.7L384.2,143.9L385.3,143.2L393.1,140.6L394.0,140.8L395.2,141.2L394.8,142.1L394.4,142.9L395.1,144.2L396.0,143.4L395.8,142.9L395.7,142.1L397.3,142.1L398.7,142.2L400.2,143.0L400.1,146.1L402.2,149.0L401.6,150.5L403.3,151.4L404.8,150.3L405.5,148.8L408.3,147.9L410.9,145.6L412.4,145.3L412.7,147.2L413.4,148.9L412.4,149.4L411.1,151.2L408.7,155.6L406.6,156.9L404.9,158.6L404.4,159.8L404.2,161.2L404.6,163.6L405.8,166.2L407.2,167.7L408.5,168.2L411.6,170.6L411.6,172.0L412.0,173.7L412.2,175.8L413.3,177.4L411.0,181.0L409.7,183.6L407.2,187.1L405.0,189.4L400.3,192.8L399.1,194.0L398.4,195.1L398.0,196.3L398.2,197.8L399.7,201.3L401.8,203.4L403.9,204.5L407.5,204.0L407.4,205.4L407.7,207.0L409.1,206.9L410.2,206.7L411.0,205.1L412.8,206.2L413.7,209.4L415.3,210.5L415.4,210.9L414.9,211.1L414.4,211.5L414.9,211.8L416.4,212.2L417.2,211.9ZM415.5,185.8L413.3,187.1L413.8,186.0L415.2,184.7L415.6,185.0ZM411.0,203.5L410.6,203.6L410.0,204.0L409.6,204.1L408.5,203.6L408.2,203.6L407.7,203.2L407.8,201.2L408.0,200.6L410.5,200.6L411.8,201.8L412.0,202.1L412.1,202.4L411.5,203.1Z" fill="#4ECDC4" stroke="#2C3E50" stroke-width="1"/></g><circle cx="400.0" cy="150.0" r="4" fill="#E74C3C" stroke="#fff" stroke-width="2"/><text x="400.0" y="140.0" text-anchor="middle" font-family="sans-serif" font-weight="700" font-size="10" fill="#2D3436">Tunis</text></svg>