<svg viewBox="0 0 800 300" xmlns="http://www.w3.org/2000/svg"><defs><clipPath id="v"><rect width="800" height="300"/></clipPath></defs><rect width="800" height="300" fill="#DCEEF8"/><g clip-path="url(#v)"></g><g clip-path="url(#v)"><path d="M401.0,148.9L401.4,148.9L401.8,148.0L403.2,147.7L403.1,148.6L401.1,151.5L400.0,150.4L396.5,148.5L395.7,147.1L397.0,146.0L396.8,146.9L397.3,147.3L399.3,147.5L401.1,148.2L400.0,148.5ZM432.7,78.4L431.6,80.0L431.2,80.0L430.0,79.1L429.6,78.4L431.4,76.5L432.3,76.4L433.4,77.0L433.4,77.6ZM407.5,152.5L407.3,156.8L406.1,154.8L405.9,153.9L407.2,152.6Z" fill="#4ECDC4" stroke="#2C3E50" stroke-width="1"/></g><circle cx="400.0" cy="150.0" r="4" fill="#E74C3C" stroke="#fff" stroke-width="2"/><text x="400.0" y="140.0" text-anchor="middle" font-family="sans-serif" font-weight="700" font-size="10" fill="#2D3436">Nukuʻalofa</text></svg>