<svg viewBox="0 0 800 300" xmlns="http://www.w3.org/2000/svg"><defs><clipPath id="v"><rect width="800" height="300"/></clipPath></defs><rect width="800" height="300" fill="#DCEEF8"/><g clip-path="url(#v)"><path d="M-167,352L-167,353L-167,356L-167,379L-212,379L-212,417L-224,418L-228,426L-225,447L-279,447L-282,452L-281,446L-281,446L-250,445L-248,439L-243,433L-238,412L-219,396L-213,377L-209,376L-204,364L-193,363L-188,365L-182,365L-177,361L-169,361L-169,352Z" fill="#E0E0E0" stroke="#fff" stroke-width=".4"/><path d="M1144,-28L1133,-15L1122,-13L1121,8L1114,17L1087,10L1077,46L1070,50L1043,58L1055,91L1046,96L1047,106L1038,103L1032,97L1011,95L989,94L984,96L964,88L957,92L954,103L932,97L923,100L920,108L912,111L894,124L888,137L883,137L879,128L862,128L859,113L852,113L854,94L837,80L814,82L798,85L785,68L774,60L752,46L750,45L715,56L715,125L708,126L699,112L689,107L674,110L668,117L667,112L671,104L668,98L652,92L646,75L638,70L638,64L651,65L652,51L663,48L675,51L678,32L675,20L662,21L650,16L634,25L622,29L615,26L616,15L607,2L597,2L586,-11L593,-27L589,-31L600,-55L614,-42L616,-58L644,-82L666,-82L696,-67L712,-58L726,-67L748,-68L765,-57L769,-63L789,-62L792,-72L770,-88L783,-98L780,-104L793,-110L784,-126L790,-134L841,-142L848,-148L882,-157L894,-166L919,-161L923,-137L937,-143L955,-135L954,-122L967,-123L1001,-145L996,-138L1013,-120L1044,-64L1051,-75L1070,-62L1089,-68L1097,-64L1104,-52L1113,-47L1119,-38L1136,-41Z" fill="#E0E0E0" stroke="#fff" stroke-width=".4"/><path d="M715,125L715,56L750,45L752,46L774,60L785,68L798,85L814,82L837,80L854,94L852,113L859,113L862,128L879,128L883,137L888,137L894,124L912,111L920,108L924,110L912,121L923,128L932,124L948,133L931,146L921,144L915,145L913,140L916,132L898,136L893,147L887,157L875,156L872,164L882,168L885,181L877,199L867,195L859,195L860,184L841,177L827,168L818,160L803,148L796,129L791,126L777,127L771,123L770,108L752,99L740,109L728,116L731,125Z" fill="#E0E0E0" stroke="#fff" stroke-width=".4"/><path d="M287,633L276,627L272,623L271,618L273,613L273,607L265,598L263,592L264,589L259,585L258,577L256,571L251,572L252,567L256,561L254,555L259,551L256,548L259,539L266,529L277,530L277,473L277,467L293,467L293,437L347,437L400,437L455,437L459,452L456,454L458,469L463,487L468,490L476,496L469,504L459,506L454,510L453,520L447,541L449,546L446,558L441,572L433,579L427,590L425,596L419,599L415,614L415,626L415,616L413,615L413,608L412,604L405,598L403,588L405,578L398,577L397,580L389,581L392,585L394,593L386,601L379,611L372,612L361,604L356,607L354,611L347,614L347,617L333,617L331,614L321,613L317,616L313,614L306,606L303,602L294,604L290,611L286,623L282,626L277,627Z" fill="#E0E0E0" stroke="#fff" stroke-width=".4"/><path d="M277,473L277,530L266,529L259,539L256,548L259,551L254,555L256,561L252,567L251,572L256,571L258,577L259,585L264,589L263,592L255,595L248,600L238,615L225,622L212,621L208,622L210,627L202,632L197,637L179,643L176,639L174,639L171,643L160,644L162,640L158,631L156,625L150,622L142,614L145,608L151,609L155,608L162,608L155,596L156,587L155,577L149,568L151,562L142,561L142,552L136,547L142,529L159,515L160,497L165,467L168,461L163,456L163,451L157,448L154,425L168,417L222,445Z" fill="#E0E0E0" stroke="#fff" stroke-width=".4"/><path d="M1231,-1245L1261,-1265L1287,-1221L1319,-1143L1315,-1076L1286,-1068L1248,-1088L1225,-1116L1214,-1171L1196,-1187ZM1355,-1105L1390,-1065L1386,-1037L1346,-1025L1309,-1011L1333,-1102L1345,-1110ZM1846,-903L1882,-900L1932,-870L1921,-831L1871,-832L1848,-820L1821,-854L1828,-892ZM1974,-859L2009,-845L1993,-824L1971,-829L1946,-849L1949,-867ZM1860,-759L1873,-778L1890,-782L1910,-764L1911,-751L1891,-751L1863,-756ZM563,-1208L590,-1223L611,-1224L614,-1201L621,-1221L634,-1235L655,-1217L649,-1204L631,-1193L619,-1187L617,-1174L601,-1161L586,-1179L594,-1205ZM262,-141L237,-141L220,-144L223,-154L242,-162L256,-158L262,-154L261,-147ZM682,-777L714,-821L711,-844L741,-873L786,-909L832,-920L855,-942L882,-950L891,-926L882,-908L834,-880L792,-854L749,-805L729,-757L708,-712L711,-676L737,-641L729,-637L684,-643L680,-661L656,-673L654,-696L668,-706L667,-731L694,-771ZM1902,-127L1907,-105L1906,-83L1912,-61L1926,-23L1905,-30L1897,-1L1910,20L1910,34L1900,22L1891,37L1888,21L1890,1L1888,-21L1891,-37L1892,-65L1884,-87L1885,-118L1898,-128L1892,-139L1898,-142ZM-2505,-571L-2505,-571L-2472,-543L-2436,-507L-2437,-485L-2428,-477L-2431,-502L-2394,-497L-2367,-465L-2381,-450L-2403,-447L-2404,-415L-2409,-409L-2422,-410L-2432,-421L-2451,-430L-2454,-444L-2467,-450L-2483,-445L-2490,-457L-2487,-469L-2504,-461L-2498,-446L-2505,-432L-2505,-432L-2505,-571ZM2408,-432L2408,-432L2390,-418L2373,-420L2385,-403L2393,-378L2400,-370L2401,-358L2398,-350L2372,-356L2334,-334L2322,-331L2301,-311L2281,-294L2276,-281L2257,-300L2221,-279L2215,-289L2202,-277L2183,-281L2179,-263L2163,-238L2163,-227L2179,-222L2177,-185L2164,-184L2158,-164L2164,-154L2140,-142L2135,-115L2115,-110L2111,-87L2091,-67L2086,-82L2080,-114L2073,-166L2079,-200L2091,-215L2092,-227L2113,-233L2137,-266L2161,-294L2185,-316L2196,-357L2180,-354L2171,-330L2137,-299L2126,-334L2090,-325L2056,-278L2067,-261L2037,-255L2016,-252L2017,-271L1996,-275L1979,-262L1937,-267L1892,-259L1848,-208L1796,-151L1817,-148L1824,-133L1837,-128L1846,-140L1861,-138L1881,-113L1881,-94L1870,-72L1869,-46L1863,-13L1842,17L1838,31L1819,53L1801,75L1792,87L1774,98L1765,98L1757,89L1738,102L1736,109L1736,109L1734,105L1734,96L1741,95L1743,73L1740,57L1751,50L1768,53L1777,34L1782,13L1787,5L1794,-13L1772,-7L1760,1L1739,1L1734,-18L1717,-33L1694,-40L1689,-61L1684,-74L1679,-84L1670,-106L1658,-114L1638,-121L1620,-121L1603,-117L1592,-105L1599,-100L1599,-88L1592,-81L1579,-57L1579,-48L1560,-35L1544,-43L1528,-41L1520,-48L1512,-50L1492,-35L1474,-32L1462,-27L1445,-30L1432,-30L1424,-41L1410,-51L1397,-54L1379,-51L1366,-47L1347,-56L1344,-72L1328,-78L1316,-80L1301,-89L1287,-67L1292,-54L1279,-39L1259,-45L1245,-45L1236,-55L1222,-56L1210,-62L1189,-52L1163,-34L1149,-30L1144,-28L1136,-41L1119,-38L1113,-47L1104,-52L1097,-64L1089,-68L1070,-62L1051,-75L1044,-64L1013,-120L996,-138L1001,-145L967,-123L954,-122L955,-135L937,-143L923,-137L919,-161L894,-166L882,-157L848,-148L841,-142L790,-134L784,-126L793,-110L780,-104L783,-98L770,-88L792,-72L789,-62L769,-63L765,-57L748,-68L726,-67L712,-58L696,-67L666,-82L644,-82L616,-58L614,-42L600,-55L589,-31L593,-27L586,-11L597,2L607,2L616,15L615,26L622,29L615,40L602,44L589,64L601,82L600,94L614,116L606,123L604,128L598,127L589,116L585,115L576,111L572,103L559,99L551,102L549,99L530,90L510,87L498,84L497,86L479,70L464,63L452,51L462,48L473,32L466,24L486,16L485,12L473,15L474,6L481,0L494,-1L496,-8L493,-19L498,-30L498,-37L478,-43L470,-43L462,-53L451,-50L434,-57L434,-62L429,-71L418,-72L417,-79L421,-83L412,-96L398,-94L394,-95L390,-90L385,-91L382,-105L379,-112L381,-115L392,-114L398,-119L394,-125L384,-129L385,-133L380,-137L371,-153L374,-159L373,-170L359,-176L352,-173L350,-179L336,-186L332,-200L330,-212L324,-218L330,-226L326,-250L335,-266L333,-270L349,-285L335,-298L364,-334L376,-351L382,-366L361,-387L367,-407L355,-431L364,-459L348,-498L360,-525L340,-549L342,-575L353,-579L376,-594L390,-608L412,-584L450,-575L501,-533L512,-516L513,-493L498,-475L475,-466L414,-492L404,-487L427,-462L427,-447L428,-414L446,-404L457,-396L458,-411L450,-425L459,-437L492,-417L503,-425L494,-449L526,-482L538,-480L551,-468L559,-491L548,-512L554,-534L544,-557L583,-545L590,-524L573,-520L573,-500L584,-488L605,-496L608,-518L637,-535L685,-567L695,-565L681,-543L698,-539L708,-552L734,-553L754,-568L769,-546L785,-570L771,-593L778,-606L818,-594L837,-582L886,-539L896,-558L882,-578L881,-586L865,-590L869,-609L862,-641L862,-654L887,-693L896,-734L906,-743L942,-731L945,-705L932,-670L940,-656L945,-627L942,-574L957,-551L951,-526L924,-476L940,-471L945,-484L960,-493L964,-510L976,-527L968,-548L974,-572L959,-576L956,-597L967,-637L949,-672L974,-701L970,-733L977,-734L984,-709L979,-667L994,-659L987,-690L1010,-708L1039,-710L1064,-685L1052,-722L1050,-772L1074,-782L1107,-780L1136,-786L1125,-812L1141,-846L1157,-848L1183,-875L1219,-882L1224,-897L1260,-903L1271,-890L1302,-920L1327,-919L1330,-945L1343,-971L1376,-997L1399,-976L1380,-961L1411,-952L1415,-922L1428,-937L1467,-936L1498,-907L1509,-886L1506,-858L1491,-842L1455,-813L1445,-798L1461,-791L1482,-779L1494,-788L1501,-757L1507,-769L1529,-777L1573,-769L1576,-747L1633,-740L1634,-776L1663,-768L1684,-768L1706,-743L1713,-713L1705,-695L1722,-661L1743,-644L1756,-688L1778,-669L1802,-681L1828,-667L1838,-679L1860,-673L1851,-714L1869,-734L1931,-722L1992,-705L2003,-678L2039,-646L2094,-654L2121,-647L2133,-630L2131,-601L2148,-590L2166,-598L2190,-599L2216,-591L2242,-595L2266,-561L2283,-573L2272,-598L2278,-616L2321,-604L2350,-607L2389,-588L2408,-571L2408,-432ZM2408,-646L2393,-644L2391,-657L2408,-675L2408,-646ZM-2505,-675L-2505,-675L-2505,-675L-2504,-676L-2492,-676L-2472,-664L-2473,-658L-2488,-648L-2505,-646L-2505,-646L-2505,-675ZM408,37L411,32L421,37L425,37L427,41L429,42L429,43L436,48L450,47L447,54L432,57L414,68L406,64L409,55L394,50L397,46L410,40Z" fill="#E0E0E0" stroke="#fff" stroke-width=".4"/><path d="M-754,689L-762,701L-766,711L-771,716L-778,717L-780,713L-783,713L-787,717L-793,714L-789,708L-788,702L-786,696L-791,688L-792,678L-785,667L-780,668L-770,671L-756,683ZM36,-34L42,-28L62,-24L55,-10L53,4L50,8L43,6L44,11L34,22L34,31L40,28L45,37L44,42L48,50L43,56L47,70L54,73L53,81L40,92L14,87L-6,93L-8,104L-24,106L-39,98L-44,102L-69,93L-75,86L-68,75L-65,36L-79,16L-89,5L-110,-2L-111,-17L-94,-22L-71,-17L-75,-40L-62,-31L-30,-48L-26,-65L-14,-70L-12,-62L-6,-62L0,-53L10,-43L17,-45L29,-35L32,-33ZM71,101L80,94L82,110L77,124L71,120L68,108Z" fill="#E0E0E0" stroke="#fff" stroke-width=".4"/><path d="M-206,574L-205,570L-206,564L-211,560L-214,552L-215,544L-210,541L-208,533L-204,532L-194,536L-186,534L-181,535L-179,531L-124,531L-121,521L-124,519L-130,457L-137,393L-116,393L-70,426L-24,458L-20,465L-12,469L-6,471L-6,480L10,479L10,512L2,521L1,530L-11,532L-30,534L-35,539L-43,539L-52,539L-56,537L-63,539L-76,544L-79,549L-89,555L-91,559L-97,562L-103,560L-107,563L-109,573L-120,584L-120,589L-123,595L-122,603L-128,605L-131,607L-133,601L-137,602L-140,602L-142,606L-153,606L-156,604L-158,605L-162,601L-162,597L-163,596L-166,597L-166,592L-163,589L-169,583L-170,579L-173,576L-176,576L-179,578L-184,580L-187,583L-193,581L-197,578L-199,577L-203,579L-205,579Z" fill="#E0E0E0" stroke="#fff" stroke-width=".4"/><path d="M-282,452L-279,447L-225,447L-228,426L-224,418L-212,417L-212,379L-167,379L-167,356L-116,393L-137,393L-130,457L-124,519L-121,521L-124,531L-179,531L-181,535L-186,534L-194,536L-204,532L-208,533L-210,541L-215,544L-224,534L-232,524L-241,520L-248,516L-255,516L-262,519L-269,518L-273,522L-275,514L-271,507L-269,494L-270,480L-272,473L-271,465L-274,458Z" fill="#E0E0E0" stroke="#fff" stroke-width=".4"/><path d="M154,425L157,448L163,451L163,456L168,461L165,467L160,497L159,515L142,529L136,547L142,552L142,561L151,562L149,568L145,569L145,574L142,574L133,559L130,558L119,566L109,562L101,561L97,563L89,562L81,568L74,569L58,562L51,565L44,565L39,559L26,554L11,556L7,559L6,567L2,573L1,585L-10,577L-15,577L-19,581L-19,572L-35,568L-35,562L-43,552L-45,546L-43,539L-35,539L-30,534L-11,532L1,530L2,521L10,512L10,479L29,472L68,444L115,416L137,422L144,430Z" fill="#E0E0E0" stroke="#fff" stroke-width=".4"/><path d="M439,272L437,278L432,275L429,286L432,288L429,290L428,294L434,292L435,298L428,324L427,320L419,296L423,291L422,290L426,283L428,271L430,266L431,266L435,266L437,263L440,263L440,270L439,272Z" fill="#E0E0E0" stroke="#fff" stroke-width=".4"/><path d="M440,263L437,263L435,266L431,266L436,253L442,241L443,241L449,242L451,248L444,254Z" fill="#E0E0E0" stroke="#fff" stroke-width=".4"/><path d="M434,292L428,294L429,290L432,288L429,286L432,275L437,278L437,287Z" fill="#E0E0E0" stroke="#fff" stroke-width=".4"/><path d="M81,311L75,282L67,276L66,272L55,262L54,250L62,241L66,227L64,211L66,202L81,195L91,197L90,206L102,200L103,203L96,211L96,219L101,223L99,238L90,246L93,255L100,255L103,263L108,266L107,278L101,283L97,288L87,294L89,301L87,307Z" fill="#E0E0E0" stroke="#fff" stroke-width=".4"/><path d="M-167,356L-167,353L-167,352L-167,334L-145,322L-131,320L-120,316L-115,308L-99,302L-98,290L-91,288L-84,282L-66,280L-64,273L-68,270L-72,253L-73,243L-78,232L-65,223L-50,220L-42,213L-29,208L-5,205L17,203L24,206L37,199L51,199L57,203L66,202L64,211L66,227L62,241L54,250L55,262L66,272L67,276L75,282L81,311L85,325L86,332L84,345L85,352L83,360L84,370L79,376L87,387L87,394L92,402L98,399L109,406L115,416L68,444L29,472L10,479L-6,480L-6,471L-12,469L-20,465L-24,458L-70,426L-116,393Z" fill="#E0E0E0" stroke="#fff" stroke-width=".4"/><path d="M437,278L439,272L454,279L481,262L486,281L484,284L456,292L470,308L465,310L463,316L453,318L450,324L444,328L428,326L428,324L435,298L434,292L437,287Z" fill="#E0E0E0" stroke="#fff" stroke-width=".4"/><path d="M655,404L658,403L658,407L669,405L680,405L689,406L698,396L708,386L717,377L719,382L721,394L714,394L713,404L715,406L709,409L709,415L705,421L705,427L702,430L661,423L656,408Z" fill="#E0E0E0" stroke="#fff" stroke-width=".4"/><path d="M645,396L644,385L648,378L651,376L656,381L656,390L653,398L649,399Z" fill="#E0E0E0" stroke="#fff" stroke-width=".4"/><path d="M606,316L609,323L608,327L612,338L603,339L599,331L587,330L597,315Z" fill="#E0E0E0" stroke="#fff" stroke-width=".4"/><path d="M486,281L481,262L511,244L516,224L515,212L522,208L529,197L535,194L551,197L556,201L562,198L571,218L580,223L581,233L574,239L571,252L581,267L597,276L604,289L602,300L607,300L607,309L614,317L606,316L597,315L587,330L562,329L523,297L503,286Z" fill="#E0E0E0" stroke="#fff" stroke-width=".4"/><path d="M705,427L705,421L709,415L709,409L715,406L713,404L714,394L721,394L727,404L735,410L745,412L753,414L759,423L763,428L768,430L768,433L763,442L761,446L755,450L750,460L743,460L741,463L738,470L740,480L739,482L733,482L724,487L723,494L720,497L711,497L706,501L706,507L699,511L692,509L683,514L676,515L672,505L661,481L702,467L711,437ZM719,382L717,377L721,372L722,373L721,379Z" fill="#E0E0E0" stroke="#fff" stroke-width=".4"/><path d="M1280,343L1281,349L1276,352L1277,361L1267,358L1250,369L1250,378L1243,390L1242,398L1236,410L1225,407L1225,422L1221,427L1223,433L1216,437L1209,413L1205,413L1203,423L1196,415L1200,407L1206,406L1212,393L1204,391L1192,391L1179,389L1177,378L1171,377L1160,371L1155,381L1165,389L1157,395L1154,400L1162,404L1160,413L1164,424L1167,437L1165,442L1155,442L1138,445L1139,456L1132,464L1112,474L1097,491L1087,500L1073,510L1073,516L1066,520L1054,525L1048,526L1044,536L1046,555L1047,566L1041,580L1041,603L1034,604L1028,614L1032,619L1020,623L1015,632L1010,636L997,623L990,604L985,590L980,583L973,570L970,552L967,544L955,524L949,497L945,478L945,461L943,447L923,456L913,454L895,436L902,431L898,425L882,412L891,402L921,402L918,390L911,382L909,370L900,363L915,347L931,348L945,332L954,316L967,300L967,289L979,280L968,272L963,261L958,246L965,239L985,243L1001,241L1014,227L1028,246L1027,259L1032,268L1032,276L1022,274L1026,292L1039,302L1058,313L1050,320L1044,335L1058,341L1071,348L1088,357L1107,359L1115,367L1125,368L1142,372L1153,371L1155,365L1153,356L1154,349L1162,346L1164,358L1164,361L1176,367L1185,364L1196,365L1207,365L1208,355L1203,351L1214,349L1226,337L1242,327L1254,331L1263,324L1270,334L1265,341Z" fill="#E0E0E0" stroke="#fff" stroke-width=".4"/><path d="M1014,227L1001,241L985,243L965,239L958,246L963,261L968,272L979,280L967,289L967,300L954,316L945,332L931,348L915,347L900,363L909,370L911,382L918,390L921,402L891,402L882,412L872,409L868,398L857,386L832,389L810,389L791,392L796,374L816,366L814,359L808,357L808,343L794,336L789,327L782,318L805,326L819,324L827,326L830,323L839,324L857,318L857,304L865,295L875,295L877,291L887,289L892,290L897,286L897,276L903,266L911,262L906,251L919,252L923,246L922,239L929,232L927,224L924,217L932,209L947,206L962,204L969,201L977,199L987,207L991,220Z" fill="#E0E0E0" stroke="#fff" stroke-width=".4"/><path d="M859,195L867,195L877,199L881,201L891,195L896,199L900,191L908,191L910,188L912,181L918,175L925,179L924,185L928,186L927,200L932,206L937,202L943,200L951,193L961,194L975,194L977,199L969,201L962,204L947,206L932,209L924,217L927,224L929,232L922,239L923,246L919,252L906,251L911,262L903,266L897,276L897,286L892,290L887,289L877,291L875,295L865,295L857,304L857,318L839,324L830,323L827,326L819,324L805,326L782,318L795,304L793,294L783,291L782,281L778,268L783,259L778,257L781,245L787,224L801,230L811,228L814,220L825,218L832,213L835,199L847,196L849,190L855,194Z" fill="#E0E0E0" stroke="#fff" stroke-width=".4"/><path d="M877,199L885,181L882,168L872,164L875,156L887,157L893,147L898,136L916,132L913,140L915,145L921,144L916,150L901,147L899,157L914,156L931,162L957,159L960,175L965,173L973,177L973,184L975,194L961,194L951,193L943,200L937,202L932,206L927,200L928,186L924,185L925,179L918,175L912,181L910,188L908,191L900,191L896,199L891,195L881,201Z" fill="#E0E0E0" stroke="#fff" stroke-width=".4"/><path d="M920,108L923,100L932,97L954,103L957,92L964,88L984,96L989,94L1011,95L1032,97L1038,103L1047,106L1045,110L1023,120L1019,127L1001,130L996,141L981,139L972,142L959,151L961,155L957,159L931,162L914,156L899,157L901,147L916,150L921,144L931,146L948,133L932,124L923,128L912,121L924,110Z" fill="#E0E0E0" stroke="#fff" stroke-width=".4"/><path d="M668,117L674,110L689,107L699,112L708,126L715,125L731,125L728,116L740,109L752,99L770,108L771,123L777,127L791,126L796,129L803,148L818,160L827,168L841,177L860,184L859,195L855,194L849,190L847,196L835,199L832,213L825,218L814,220L811,228L801,230L787,224L786,210L775,209L760,194L749,192L734,183L724,182L718,185L709,184L699,194L687,198L685,186L687,167L676,161L680,149L671,148L674,133L686,137L698,132L689,121L685,110L674,115L672,128Z" fill="#E0E0E0" stroke="#fff" stroke-width=".4"/><path d="M614,317L607,309L607,300L602,300L604,289L597,276L581,267L571,252L574,239L581,233L580,223L571,218L562,198L555,184L558,179L553,159L563,154L565,161L572,169L581,171L586,170L602,157L607,156L611,161L607,170L615,179L619,178L623,191L636,195L645,203L665,206L686,202L687,198L699,194L709,184L718,185L724,182L734,183L749,192L760,194L775,209L786,210L787,224L781,245L778,257L783,259L778,268L782,281L783,291L793,294L795,304L782,318L789,327L794,336L808,343L808,357L814,359L816,366L796,374L791,392L765,387L750,384L735,382L729,363L722,360L712,363L698,370L681,365L668,353L655,349L645,334L635,313L628,316L619,311Z" fill="#E0E0E0" stroke="#fff" stroke-width=".4"/><path d="M439,272L439,272L440,270L440,263L444,254L451,248L449,242L443,241L441,228L445,221L448,217L452,214L453,204L457,208L472,203L480,206L491,206L507,200L514,200L529,197L522,208L515,212L516,224L511,244L481,262L454,279Z" fill="#E0E0E0" stroke="#fff" stroke-width=".4"/><path d="M586,170L581,171L576,161L576,158L570,158L566,153L563,154L557,149L547,144L549,135L546,129L565,126L568,131L573,134L570,139L578,145L574,151L580,155L586,158Z" fill="#E0E0E0" stroke="#fff" stroke-width=".4"/><path d="M102,-254L108,-269L119,-288L124,-321L115,-335L114,-374L123,-403L137,-403L141,-415L136,-426L158,-472L171,-510L180,-536L193,-536L197,-556L223,-550L225,-575L233,-577L251,-558L273,-533L273,-479L278,-466L254,-456L241,-434L243,-414L221,-389L195,-363L185,-322L195,-302L208,-287L195,-256L181,-250L176,-207L168,-184L152,-186L144,-167L128,-166L124,-189L112,-217Z" fill="#E0E0E0" stroke="#fff" stroke-width=".4"/><path d="M336,-186L350,-179L352,-173L359,-176L373,-170L374,-159L371,-153L380,-137L385,-133L384,-129L394,-125L398,-119L392,-114L381,-115L379,-112L382,-105L385,-91L373,-89L369,-84L368,-73L363,-76L351,-74L347,-80L342,-76L337,-79L326,-79L311,-85L297,-86L287,-86L279,-80L272,-79L272,-89L268,-99L276,-104L276,-113L272,-122L272,-132L285,-132L300,-140L303,-154L314,-161L313,-172L321,-176Z" fill="#E0E0E0" stroke="#fff" stroke-width=".4"/><path d="M385,-91L390,-90L394,-95L398,-94L412,-96L421,-83L417,-79L418,-72L429,-71L434,-62L434,-57L451,-50L462,-53L470,-43L478,-43L498,-37L498,-30L493,-19L496,-8L494,-1L481,0L474,6L473,15L462,16L453,23L440,24L429,31L429,42L427,41L425,37L421,37L411,32L408,37L406,35L385,30L384,23L371,25L366,36L355,50L349,47L343,50L337,47L340,45L343,38L346,32L345,28L348,26L349,29L358,30L361,28L359,26L360,23L355,18L353,10L348,7L349,-0L343,-6L337,-7L327,-13L318,-11L315,-8L309,-8L306,-3L295,-1L291,2L284,-3L276,-3L267,-5L261,-1L260,-6L253,-12L255,-20L259,-26L262,-25L259,-34L271,-52L278,-54L279,-60L272,-79L279,-80L287,-86L297,-86L311,-85L326,-79L337,-79L342,-76L347,-80L351,-74L363,-76L368,-73L369,-84L373,-89Z" fill="#E0E0E0" stroke="#fff" stroke-width=".4"/><path d="M272,-132L272,-122L276,-113L276,-104L268,-99L272,-89L272,-79L279,-60L278,-54L271,-52L259,-34L262,-25L259,-26L246,-34L236,-31L230,-33L222,-29L215,-36L209,-33L209,-34L202,-45L192,-46L191,-53L182,-55L180,-50L172,-54L173,-60L163,-62L156,-69L151,-83L152,-90L148,-102L143,-110L147,-116L144,-128L153,-135L175,-146L192,-154L206,-150L207,-144L220,-144L237,-141L262,-141L269,-139Z" fill="#E0E0E0" stroke="#fff" stroke-width=".4"/><path d="M183,-6L182,2L174,2L177,7L173,20L170,23L158,24L151,28L140,27L120,21L117,15L104,18L102,22L94,19L87,18L81,15L83,10L82,6L86,5L93,11L95,5L107,6L117,3L124,3L128,7L129,4L127,-9L132,-12L137,-21L147,-15L155,-23L160,-25L170,-18L177,-20L183,-16L182,-13Z" fill="#E0E0E0" stroke="#fff" stroke-width=".4"/><path d="M253,-12L260,-6L261,-1L253,3L247,17L238,30L227,34L219,33L208,38L203,41L192,38L182,29L177,27L175,20L173,20L177,7L174,2L182,2L183,-6L190,-1L195,2L207,-1L208,-5L213,-6L220,-9L221,-8L228,-10L231,-15L235,-16L250,-10Z" fill="#E0E0E0" stroke="#fff" stroke-width=".4"/><path d="M315,-8L318,-11L327,-13L337,-7L343,-6L349,-0L348,7L353,10L355,18L360,23L359,26L361,28L358,30L349,29L348,26L345,28L346,32L343,38L340,45L337,47L334,38L336,29L335,21L327,9L323,0L319,-6Z" fill="#E0E0E0" stroke="#fff" stroke-width=".4"/><path d="M337,47L343,50L349,47L355,50L356,55L349,60L345,58L341,81L333,79L323,72L307,76L300,81L280,80L270,77L265,79L261,71L258,67L261,64L258,62L254,66L246,61L245,53L236,48L235,42L227,34L238,30L247,17L253,3L261,-1L267,-5L276,-3L284,-3L291,2L295,-1L306,-3L309,-8L315,-8L319,-6L323,0L327,9L335,21L336,29L334,38Z" fill="#E0E0E0" stroke="#fff" stroke-width=".4"/><path d="M313,-172L314,-161L303,-154L300,-140L285,-132L272,-132L269,-139L262,-141L261,-147L262,-154L256,-158L242,-162L239,-182L254,-190L277,-188L291,-191L293,-185L300,-184Z" fill="#E0E0E0" stroke="#fff" stroke-width=".4"/><path d="M324,-218L330,-212L332,-200L336,-186L321,-176L313,-172L300,-184L293,-185L291,-191L277,-188L254,-190L239,-182L239,-201L246,-216L259,-225L270,-206L281,-207L283,-226L295,-231L301,-228L313,-218Z" fill="#E0E0E0" stroke="#fff" stroke-width=".4"/><path d="M144,-128L147,-116L143,-110L148,-102L152,-90L151,-83L156,-69L150,-67L147,-69L143,-65L133,-61L128,-55L118,-51L121,-44L122,-35L129,-30L137,-21L132,-12L127,-9L129,4L128,7L124,3L117,3L107,6L95,5L93,11L86,5L82,6L68,0L65,4L53,4L55,-10L62,-24L42,-28L36,-34L37,-43L34,-48L35,-62L33,-85L41,-85L45,-93L48,-114L46,-122L48,-127L60,-128L62,-123L71,-134L68,-143L68,-156L78,-153L87,-157L87,-148L101,-142L101,-134L115,-138L122,-145L138,-136Z" fill="#E0E0E0" stroke="#fff" stroke-width=".4"/><path d="M261,71L265,79L270,77L280,80L300,81L307,76L323,72L333,79L341,81L334,89L329,102L333,112L322,110L308,116L308,125L295,127L286,120L275,125L265,125L264,113L257,107L259,104L258,102L260,96L265,90L258,82L257,75Z" fill="#E0E0E0" stroke="#fff" stroke-width=".4"/><path d="M310,230L308,235L289,236L289,233L272,230L275,223L282,229L293,228L303,229L303,232ZM265,125L275,125L286,120L295,127L308,125L308,116L314,121L310,132L307,134L299,133L292,132L275,136L284,147L278,149L270,149L263,140L260,144L263,155L270,163L265,167L273,175L279,180L279,190L267,185L271,194L262,196L267,211L258,211L247,204L242,190L240,179L234,170L227,160L226,155L233,147L234,141L238,138L238,134L247,132L252,128L260,128L262,125Z" fill="#E0E0E0" stroke="#fff" stroke-width=".4"/><path d="M238,134L238,138L234,141L233,147L226,155L224,154L224,150L216,144L215,136L216,123L218,118L216,115L215,109L221,100L222,103L225,102L228,107L231,109L232,115L231,121L233,129Z" fill="#E0E0E0" stroke="#fff" stroke-width=".4"/><path d="M177,27L182,29L192,38L203,41L208,38L212,46L216,52L211,59L205,55L195,55L183,52L177,52L174,56L169,52L166,60L173,69L176,74L182,82L187,86L193,94L205,101L203,104L190,97L182,90L170,85L159,71L161,69L155,61L155,55L146,52L142,60L138,53L138,47L139,46L148,47L151,44L155,47L161,47L161,42L165,40L167,32Z" fill="#E0E0E0" stroke="#fff" stroke-width=".4"/><path d="M82,6L83,10L81,15L87,18L94,19L93,27L87,30L77,28L74,36L67,37L65,33L57,40L51,41L45,37L40,28L34,31L34,22L44,11L43,6L50,8L53,4L65,4L68,0Z" fill="#E0E0E0" stroke="#fff" stroke-width=".4"/><path d="M34,-48L37,-43L36,-34L32,-33L29,-35L30,-47Z" fill="#E0E0E0" stroke="#fff" stroke-width=".4"/><path d="M35,-62L34,-48L30,-47L29,-35L17,-45L10,-43L0,-53L-6,-62L-12,-62L-14,-70L-3,-74L7,-72L19,-77L28,-67Z" fill="#E0E0E0" stroke="#fff" stroke-width=".4"/><path d="M46,-122L48,-114L45,-93L41,-85L33,-85L35,-62L28,-67L19,-77L7,-72L-3,-74L4,-80L16,-113L34,-122Z" fill="#E0E0E0" stroke="#fff" stroke-width=".4"/><path d="M-172,115L-167,110L-161,107L-158,116L-150,116L-148,114L-140,115L-136,124L-142,129L-142,143L-145,145L-145,154L-151,155L-145,166L-149,177L-145,183L-146,187L-151,194L-150,199L-156,204L-163,201L-170,203L-168,190L-169,179L-175,178L-179,171L-178,160L-172,153L-171,146L-168,135L-169,127L-171,121Z" fill="#E0E0E0" stroke="#fff" stroke-width=".4"/><path d="M-150,199L-151,194L-146,187L-145,183L-149,177L-145,166L-151,155L-145,154L-145,145L-142,143L-142,129L-136,124L-140,115L-148,114L-150,116L-158,116L-161,107L-167,110L-172,115L-171,102L-177,94L-158,80L-141,83L-123,83L-108,87L-97,86L-75,86L-69,93L-44,102L-39,98L-24,106L-8,104L-7,115L-20,127L-38,131L-39,137L-47,147L-52,161L-47,171L-55,179L-58,190L-68,193L-78,207L-95,207L-108,207L-117,213L-122,219L-129,218L-134,212L-138,202Z" fill="#E0E0E0" stroke="#fff" stroke-width=".4"/><path d="M-133,-131L-131,-114L-141,-94L-165,-81L-185,-84L-174,-108L-181,-131L-162,-149L-152,-160L-149,-148L-152,-135L-144,-135Z" fill="#E0E0E0" stroke="#fff" stroke-width=".4"/><path d="M1446,493L1434,488L1434,476L1441,469L1456,465L1463,466L1466,471L1460,477L1457,486ZM1047,106L1046,96L1055,91L1043,58L1070,50L1077,46L1087,10L1114,17L1121,8L1122,-13L1133,-15L1144,-28L1149,-30L1153,-16L1164,-5L1184,3L1193,19L1188,42L1193,51L1209,54L1227,57L1244,69L1252,71L1258,88L1266,99L1281,99L1310,103L1328,100L1341,103L1361,114L1378,114L1384,120L1400,110L1422,104L1442,103L1458,96L1468,86L1478,80L1475,74L1471,67L1478,54L1486,56L1500,60L1514,50L1534,42L1544,29L1554,23L1574,21L1585,23L1586,16L1574,2L1563,-5L1552,3L1539,-0L1531,2L1528,-6L1537,-27L1544,-43L1560,-35L1579,-48L1579,-57L1592,-81L1599,-88L1599,-100L1592,-105L1603,-117L1620,-121L1638,-121L1658,-114L1670,-106L1679,-84L1684,-74L1689,-61L1694,-40L1717,-33L1734,-18L1739,1L1760,1L1772,-7L1794,-13L1787,5L1782,13L1777,34L1768,53L1751,50L1740,57L1743,73L1741,95L1734,96L1734,105L1726,94L1720,105L1699,113L1701,122L1689,122L1683,116L1674,129L1659,139L1647,150L1628,155L1618,163L1604,168L1611,160L1608,153L1619,141L1612,132L1600,138L1584,151L1576,162L1562,163L1556,171L1563,183L1574,186L1574,193L1585,198L1600,186L1613,193L1621,193L1624,202L1604,207L1598,216L1585,225L1578,236L1592,245L1598,262L1606,277L1615,289L1615,301L1606,305L1610,314L1618,318L1616,331L1612,344L1605,345L1595,362L1584,382L1571,400L1552,413L1533,426L1518,428L1509,434L1505,429L1497,437L1478,444L1463,446L1459,462L1451,463L1448,452L1451,446L1433,442L1426,444L1412,440L1406,434L1408,426L1396,423L1389,417L1377,425L1364,427L1353,427L1346,431L1339,433L1341,450L1334,449L1332,446L1332,440L1322,444L1316,441L1306,436L1310,423L1301,421L1298,407L1284,409L1285,391L1298,379L1299,366L1298,355L1292,351L1288,342L1280,343L1265,341L1270,334L1263,324L1254,331L1242,327L1226,337L1214,349L1203,351L1197,346L1190,346L1180,342L1173,346L1164,358L1162,346L1154,349L1138,347L1123,344L1112,337L1101,334L1096,326L1089,324L1075,314L1064,309L1058,313L1039,302L1026,292L1022,274L1032,276L1032,268L1027,259L1028,246L1014,227L991,220L987,207L977,199L975,194L973,184L973,177L965,173L960,175L957,159L961,155L959,151L972,142L981,139L996,141L1001,130L1019,127L1023,120L1045,110Z" fill="#E0E0E0" stroke="#fff" stroke-width=".4"/><path d="M94,19L102,22L104,18L117,15L120,21L140,27L138,36L142,45L131,42L120,49L120,58L119,64L123,74L136,83L143,99L158,113L169,113L172,117L168,121L180,128L190,133L202,142L204,146L201,152L193,144L182,141L176,152L186,159L184,168L178,169L171,184L165,185L165,180L168,171L171,167L166,157L162,148L156,146L152,138L143,135L137,127L127,126L117,118L104,106L95,95L91,77L84,75L73,68L66,71L59,80L53,81L54,73L47,70L43,56L48,50L44,42L45,37L51,41L57,40L65,33L67,37L74,36L77,28L87,30L93,27ZM153,181L163,180L158,193L160,199L157,208L147,201L140,199L121,191L123,182L139,183ZM70,133L77,127L85,140L83,163L77,162L72,168L66,163L66,142L63,132Z" fill="#E0E0E0" stroke="#fff" stroke-width=".4"/><path d="M87,-157L78,-153L68,-156L62,-170L62,-195L64,-201L68,-209L80,-210L85,-217L96,-225L95,-212L91,-203L93,-196L100,-193L97,-183L93,-186L83,-169ZM120,-184L125,-172L116,-153L102,-166L100,-176Z" fill="#E0E0E0" stroke="#fff" stroke-width=".4"/><path d="M-133,-131L-144,-135L-152,-135L-149,-148L-152,-160L-141,-161L-126,-147ZM-91,-120L-91,-120L-89,-133L-98,-148L-98,-148L-115,-152L-118,-159L-113,-169L-118,-176L-125,-165L-126,-188L-133,-201L-128,-227L-117,-248L-106,-246L-90,-248L-104,-220L-90,-224L-75,-223L-79,-203L-91,-181L-77,-179L-76,-177L-64,-148L-54,-145L-46,-118L-42,-109L-26,-105L-27,-91L-34,-84L-29,-73L-41,-61L-59,-62L-83,-56L-89,-60L-98,-50L-111,-52L-120,-44L-127,-48L-107,-71L-95,-76L-95,-76L-117,-79L-121,-88L-106,-95L-114,-107L-111,-122Z" fill="#E0E0E0" stroke="#fff" stroke-width=".4"/><path d="M585,115L589,116L598,127L604,128L606,123L614,116L622,126L629,139L635,139L639,144L628,146L626,159L623,166L618,170L619,178L615,179L607,170L611,161L607,156L602,157L586,170L586,158L580,155L574,151L578,145L570,139L573,134L568,131L565,126L569,123L579,129L586,130L588,128L581,118ZM581,171L572,169L565,161L563,154L566,153L570,158L576,158L576,161Z" fill="#E0E0E0" stroke="#fff" stroke-width=".4"/><path d="M497,86L498,84L510,87L530,90L549,99L551,102L559,99L572,103L576,111L585,115L581,118L588,128L586,130L579,129L569,123L565,126L546,129L533,120L519,121L521,113L517,101L509,94L502,92Z" fill="#E0E0E0" stroke="#fff" stroke-width=".4"/><path d="M140,27L151,28L158,24L170,23L173,20L175,20L177,27L167,32L165,40L161,42L161,47L155,47L151,44L148,47L139,46L142,45L138,36Z" fill="#E0E0E0" stroke="#fff" stroke-width=".4"/><path d="M259,-26L255,-20L253,-12L250,-10L235,-16L231,-15L228,-10L221,-8L220,-9L213,-6L208,-5L207,-1L195,2L190,-1L183,-6L182,-13L183,-16L185,-20L191,-20L196,-22L196,-24L198,-25L199,-30L203,-31L205,-34L209,-34L209,-33L215,-36L222,-29L230,-33L236,-31L246,-34Z" fill="#E0E0E0" stroke="#fff" stroke-width=".4"/><path d="M156,-69L163,-62L173,-60L172,-54L180,-50L182,-55L191,-53L192,-46L202,-45L209,-34L205,-34L203,-31L199,-30L198,-25L196,-24L196,-22L191,-20L185,-20L183,-16L177,-20L170,-18L160,-25L155,-23L147,-15L137,-21L129,-30L122,-35L121,-44L118,-51L128,-55L133,-61L143,-65L147,-69L150,-67Z" fill="#E0E0E0" stroke="#fff" stroke-width=".4"/><path d="M449,546L447,541L453,520L454,510L459,506L469,504L476,496L484,512L487,525L495,532L513,545L521,553L528,562L533,566L539,571L535,574L529,573L525,568L519,560L513,556L510,551L498,545L488,545L485,542L477,545L469,539L464,549Z" fill="#E0E0E0" stroke="#fff" stroke-width=".4"/><path d="M661,481L672,505L676,515L666,519L664,525L663,530L650,536L628,542L616,552L610,553L606,552L598,558L589,561L578,561L574,562L571,566L568,567L565,571L559,570L554,572L545,571L541,563L542,556L539,551L537,541L533,535L536,535L534,528L536,525L535,519L541,515L540,509L543,502L549,505L553,504L569,504L571,505L584,507L589,506L593,511L599,508L609,493L622,487Z" fill="#E0E0E0" stroke="#fff" stroke-width=".4"/><path d="M428,326L444,328L450,324L453,318L463,316L465,310L470,308L456,292L484,284L486,281L503,286L523,297L562,329L587,330L599,331L603,339L612,338L618,352L624,355L627,361L636,367L637,373L635,378L637,384L641,388L643,393L645,396L649,399L653,398L655,404L656,408L661,423L702,430L705,427L711,437L702,467L661,481L622,487L609,493L599,508L593,511L589,506L584,507L571,505L569,504L553,504L549,505L543,502L540,509L541,515L535,519L533,513L529,509L528,503L521,498L514,486L510,474L501,464L495,462L486,448L484,438L485,429L477,412L470,407L463,403L458,395L459,391L455,384L451,380L446,369L438,357L431,346L424,346L426,338L427,332Z" fill="#E0E0E0" stroke="#fff" stroke-width=".4"/><path d="M398,233L399,232L401,228L411,229L423,224L414,231L415,234L414,233L411,235L409,234L408,235L408,233L407,232L404,232L401,233Z" fill="#E0E0E0" stroke="#fff" stroke-width=".4"/><path d="M398,233L401,233L404,232L407,232L408,233L408,235L409,234L411,235L414,233L415,234L415,235L401,242L395,240L392,233Z" fill="#E0E0E0" stroke="#fff" stroke-width=".4"/><path d="M-78,232L-73,243L-72,253L-68,270L-64,273L-66,280L-84,282L-91,288L-98,290L-99,302L-115,308L-120,316L-131,320L-145,322L-167,334L-167,352L-169,352L-169,361L-177,361L-182,365L-188,365L-193,363L-204,364L-209,376L-213,377L-219,396L-238,412L-243,433L-248,439L-250,445L-281,446L-281,446L-280,439L-275,435L-271,427L-271,422L-267,412L-259,402L-255,400L-251,391L-251,383L-246,374L-237,368L-228,353L-228,352L-221,346L-208,345L-197,334L-191,330L-179,317L-183,297L-177,283L-176,275L-167,264L-153,256L-143,250L-134,232L-130,222L-120,222L-111,229L-98,228L-84,232Z" fill="#E0E0E0" stroke="#fff" stroke-width=".4"/><path d="M455,437L400,437L347,437L293,437L293,382L293,328L289,315L292,305L290,299L295,291L313,291L326,295L340,300L346,302L357,297L362,292L374,291L384,293L388,301L391,296L402,300L412,300L419,296L427,320L428,324L424,330L421,342L418,350L414,352L410,347L404,341L394,318L392,320L398,336L407,352L417,375L422,384L426,392L439,409L436,411L436,421L452,434Z" fill="#E0E0E0" stroke="#fff" stroke-width=".4"/><path d="M293,437L293,467L277,467L277,473L222,445L168,417L154,425L144,430L137,422L115,416L109,406L98,399L92,402L87,394L87,387L79,376L84,370L83,360L85,352L84,345L86,332L85,325L81,311L87,307L89,301L87,294L97,288L101,283L107,278L108,266L124,271L130,270L141,272L159,280L166,294L178,297L197,304L212,312L219,307L225,300L222,288L226,280L236,273L245,270L264,274L269,281L274,281L278,284L292,286L295,291L290,299L292,305L289,315L293,328L293,382Z" fill="#E0E0E0" stroke="#fff" stroke-width=".4"/><path d="M205,101L193,94L187,86L182,82L176,74L173,69L166,60L169,52L174,56L177,52L183,52L195,55L205,55L211,59L216,59L212,67L219,75L217,83L214,84L211,86L207,90Z" fill="#E0E0E0" stroke="#fff" stroke-width=".4"/><path d="M257,107L264,113L265,125L262,125L260,128L252,128L247,132L238,134L233,129L231,121L232,115L234,115L235,112L243,109L246,108L251,107Z" fill="#E0E0E0" stroke="#fff" stroke-width=".4"/><path d="M208,38L219,33L227,34L235,42L236,48L245,53L246,61L254,66L258,62L261,64L258,67L261,71L257,75L258,82L265,90L260,96L258,102L259,104L257,107L251,107L246,108L245,107L247,104L249,100L247,100L244,97L242,96L240,93L237,92L235,89L233,90L231,96L228,98L229,96L224,92L219,90L217,87L214,84L217,83L219,75L212,67L216,59L211,59L216,52L212,46Z" fill="#E0E0E0" stroke="#fff" stroke-width=".4"/><path d="M225,102L222,103L221,100L215,109L216,115L213,113L209,107L203,104L205,101L207,90L211,86L214,84L217,87L219,90L224,92L229,96L228,98Z" fill="#E0E0E0" stroke="#fff" stroke-width=".4"/><path d="M232,115L231,109L228,107L225,102L228,98L231,96L233,90L235,89L237,92L240,93L242,96L244,97L247,100L249,100L247,104L245,107L246,108L243,109L235,112L234,115Z" fill="#E0E0E0" stroke="#fff" stroke-width=".4"/></g><g clip-path="url(#v)"><path d="M305.8,146.3L302.7,146.9L301.7,146.3L302.7,145.3L304.5,144.6L305.1,144.5L305.9,145.6ZM517.9,121.4L518.8,121.8L520.5,122.2L521.6,122.8L522.2,123.0L523.6,121.8L525.7,121.8L527.5,122.0L528.4,122.2L529.6,122.6L531.0,122.8L531.5,122.3L532.4,120.7L532.7,120.4L532.9,120.3L533.9,120.1L534.9,120.3L535.4,120.6L535.8,121.9L537.0,122.3L539.1,124.4L540.3,125.2L540.6,125.6L540.2,126.0L540.3,126.5L541.1,127.2L542.1,127.4L543.2,127.3L543.8,127.6L544.2,128.0L544.3,128.5L544.3,128.9L544.5,129.6L545.3,130.7L546.3,131.4L546.9,132.1L547.8,134.5L548.1,135.9L548.0,137.2L547.4,138.5L546.0,140.1L546.4,140.8L546.7,141.7L546.6,142.4L547.5,144.5L547.9,145.8L547.6,146.1L547.4,146.5L549.1,147.5L551.1,148.4L552.0,148.5L554.3,148.1L555.9,148.0L557.4,148.8L559.5,150.8L561.9,153.3L562.4,154.0L562.6,154.4L563.1,155.0L562.6,155.0L561.8,154.4L559.9,152.9L559.0,153.5L558.1,154.7L557.2,159.0L556.5,159.5L555.2,159.4L553.6,159.3L552.5,159.5L552.2,159.8L552.4,160.3L552.7,161.0L552.9,161.9L553.0,162.6L553.5,163.3L554.3,163.9L554.4,164.6L554.2,165.5L554.1,166.1L553.9,166.5L554.2,167.6L555.1,168.8L555.6,169.3L555.4,171.7L555.7,172.7L556.0,174.2L555.9,176.6L556.0,177.2L556.3,177.4L557.0,177.5L557.8,177.7L558.1,178.1L558.0,178.4L557.1,179.5L557.0,180.2L556.7,181.4L556.4,182.0L555.6,183.2L555.0,184.5L554.8,185.5L555.0,186.0L556.5,186.1L557.3,186.8L559.5,188.3L559.9,188.9L559.3,189.8L559.3,190.2L559.6,190.6L559.8,191.5L559.7,192.4L559.7,193.6L560.1,193.8L561.7,195.0L562.7,196.1L562.8,196.5L562.2,197.4L562.4,198.4L562.3,198.7L561.9,198.3L561.1,198.1L560.2,198.1L559.6,198.4L558.7,199.2L557.4,200.1L556.3,200.9L555.8,201.5L555.3,201.4L554.9,200.9L554.7,200.2L554.7,197.6L554.5,196.8L554.0,196.2L553.5,195.9L552.8,195.7L552.1,195.7L551.1,196.5L549.7,197.3L547.5,197.2L546.0,197.0L545.3,196.9L542.4,195.7L541.9,195.7L540.8,195.2L539.5,194.8L537.4,195.5L536.5,195.3L535.2,194.7L534.7,194.9L533.3,196.8L530.8,198.9L529.5,199.2L528.9,197.2L528.3,196.4L528.0,196.2L527.4,196.0L526.9,196.2L525.4,197.6L523.1,198.4L521.1,198.9L518.0,199.6L515.6,199.9L514.6,199.9L512.4,199.6L510.4,199.2L508.4,199.2L507.0,199.4L503.5,200.9L497.5,204.0L493.0,205.6L490.5,206.2L488.5,206.5L485.2,206.5L482.4,206.3L480.5,206.3L479.4,205.9L477.9,204.7L476.1,203.4L475.3,203.2L474.2,202.9L472.6,202.8L468.7,204.6L467.5,205.1L466.2,205.5L463.5,206.6L462.3,207.2L460.8,207.1L458.9,206.9L457.3,207.0L456.2,206.1L455.6,205.2L453.3,204.6L451.7,204.5L451.3,204.9L450.9,206.2L450.2,209.5L450.1,210.3L451.5,213.6L451.4,214.1L450.4,214.3L449.2,214.3L448.4,214.6L447.9,215.2L447.5,218.0L446.1,218.5L445.5,219.1L444.8,220.9L444.5,220.9L442.3,219.6L441.3,219.5L442.1,218.1L441.2,215.4L440.1,212.8L441.1,211.2L443.1,209.2L445.3,206.9L445.3,205.5L445.2,204.4L444.6,203.6L443.4,202.6L441.4,203.7L440.0,204.9L439.1,205.1L438.1,205.8L437.6,207.0L436.4,207.9L434.4,208.3L431.5,207.3L428.3,205.8L426.5,204.5L425.0,204.2L423.6,204.8L419.5,207.8L415.7,212.3L414.8,213.1L411.3,215.0L408.9,215.6L407.8,215.5L403.1,216.3L400.8,216.5L399.0,217.4L395.4,216.4L393.3,215.0L392.0,213.5L389.9,210.5L388.4,209.0L385.1,207.7L379.3,204.5L377.7,204.1L373.8,203.7L369.6,203.4L368.8,204.6L368.5,209.2L367.7,210.4L367.4,212.8L366.9,213.5L366.1,214.0L364.9,213.2L364.0,212.9L362.0,213.8L357.9,215.2L356.6,215.4L351.9,213.7L350.2,212.6L349.1,211.3L348.8,209.2L348.1,208.1L348.0,207.2L347.7,206.3L346.8,205.9L345.8,206.7L344.7,206.6L343.3,206.2L340.2,204.4L337.7,204.3L336.2,206.4L335.0,207.1L333.8,207.3L333.7,206.7L334.7,205.3L330.9,205.6L328.9,206.6L327.3,206.5L326.1,206.0L326.3,205.4L327.5,205.2L328.5,204.7L332.6,204.3L333.6,204.0L334.7,202.4L336.6,201.1L336.9,200.6L335.3,200.6L329.0,201.0L324.6,200.8L324.1,201.4L323.4,201.5L323.3,199.7L324.0,198.9L324.9,199.0L327.2,198.3L327.0,196.8L325.4,195.8L325.0,195.3L323.8,195.1L322.9,194.4L322.7,192.7L321.9,190.7L320.8,189.8L320.9,189.3L323.0,188.6L323.4,185.9L323.1,184.2L322.1,184.1L319.1,182.8L318.2,182.9L317.3,181.5L315.5,180.4L314.7,180.8L314.2,181.3L313.4,181.1L312.1,180.2L310.8,179.7L310.2,179.1L310.9,177.5L311.9,177.5L312.1,176.2L311.3,174.1L311.4,173.0L312.2,172.7L313.2,172.9L314.3,174.2L314.6,175.4L314.4,176.6L315.0,177.8L315.4,178.1L315.7,176.8L316.2,176.6L316.8,177.1L318.0,177.4L321.2,176.7L321.8,176.0L319.5,176.1L318.6,175.5L317.7,174.2L317.1,173.0L317.0,172.4L316.7,171.5L317.0,171.1L318.6,170.4L320.1,168.4L319.5,167.9L318.8,167.6L318.0,167.8L317.4,167.1L317.3,166.2L317.8,165.4L317.9,164.4L316.0,161.9L315.5,161.3L315.9,160.5L317.4,159.1L318.7,157.3L318.5,156.7L317.5,156.5L312.8,157.3L311.0,157.9L307.8,158.2L307.5,157.3L307.6,156.4L308.4,154.9L308.3,151.0L308.7,148.9L310.5,148.3L312.7,145.2L316.3,141.6L320.1,141.7L321.5,140.7L323.7,140.6L324.2,141.3L324.4,142.0L326.4,143.1L329.8,142.9L330.7,142.5L331.5,141.9L329.9,140.2L330.4,139.6L331.8,139.6L333.4,140.0L333.5,140.4L333.0,141.0L332.5,142.0L333.0,142.2L337.5,141.6L342.1,142.0L343.6,141.8L347.3,141.8L347.9,141.2L346.8,140.4L345.8,140.1L345.0,139.8L344.3,139.2L346.6,137.5L347.9,137.1L354.1,136.1L358.7,135.5L358.8,135.1L358.1,135.1L352.1,134.3L350.7,133.6L348.8,131.9L348.3,131.5L347.8,130.7L348.1,129.0L348.5,127.6L349.2,126.8L351.6,126.7L359.7,128.1L365.6,127.2L371.9,129.3L377.9,128.9L379.2,127.9L380.7,125.0L389.3,120.1L392.3,117.5L395.5,116.1L401.0,114.6L405.7,112.5L407.0,112.3L418.0,113.3L425.6,113.4L429.1,111.4L431.2,112.1L431.0,112.8L430.6,113.4L430.8,114.6L431.9,116.3L433.1,117.5L436.7,119.3L441.6,117.8L442.4,118.0L443.4,118.4L445.2,123.1L446.5,124.7L448.3,125.8L449.7,126.1L450.7,124.9L451.5,124.4L453.3,124.2L456.3,125.8L457.3,127.5L462.3,128.7L466.8,129.4L468.8,130.8L475.2,132.2L477.6,131.9L481.7,130.5L489.5,128.9L494.7,131.1L496.1,131.4L497.3,131.2L499.1,131.8L500.9,131.5L506.7,128.9L508.5,127.3L510.4,127.0L512.1,126.1L516.6,123.1ZM333.7,113.2L333.4,115.2L334.2,117.5L336.2,120.7L338.2,122.3L346.4,126.3L348.0,126.7L347.6,128.3L347.1,129.7L346.6,130.7L344.2,131.3L337.6,129.5L335.9,129.3L334.7,129.7L332.5,131.0L330.1,130.6L326.7,131.3L325.8,133.7L323.4,136.4L319.5,138.7L316.8,139.8L312.6,144.1L310.7,146.6L309.9,147.0L309.0,147.4L309.3,146.2L309.8,145.1L309.7,144.3L309.7,143.1L311.1,141.8L312.3,140.8L316.1,139.0L317.1,137.5L314.1,137.6L311.2,137.9L309.3,137.7L307.7,137.8L307.1,136.5L306.7,135.7L307.2,135.5L307.7,135.3L308.7,133.9L309.5,132.9L310.8,131.6L311.1,130.9L311.1,130.1L310.8,129.6L310.7,129.0L310.7,128.2L310.8,126.5L313.6,124.6L314.5,124.4L314.8,123.5L314.6,121.5L314.2,119.9L313.7,119.8L313.0,119.3L312.5,118.8L311.9,118.2L310.6,117.8L310.6,117.3L310.7,116.8L311.2,116.2L313.2,115.8L313.5,115.4L313.7,114.5L314.2,113.5L314.7,113.2L315.5,113.3L317.2,113.0L318.3,112.7L319.5,112.1L320.1,111.5L322.5,111.1L323.2,110.9L323.9,111.1L324.8,112.1L326.3,113.5L327.2,114.0L327.8,113.8L328.9,113.3L330.0,113.3L330.8,113.4L331.3,112.9L331.9,112.8Z" fill="#4ECDC4" stroke="#2C3E50" stroke-width="1"/></g><circle cx="400.0" cy="150.0" r="4" fill="#E74C3C" stroke="#fff" stroke-width="2"/><text x="400.0" y="140.0" text-anchor="middle" font-family="sans-serif" font-weight="700" font-size="10" fill="#2D3436">Ankara</text></svg>