<svg viewBox="0 0 800 300" xmlns="http://www.w3.org/2000/svg"><defs><clipPath id="v"><rect width="800" height="300"/></clipPath></defs><rect width="800" height="300" fill="#DCEEF8"/><g clip-path="url(#v)"><path d="M25,810L12,819L-2,778L-21,756L-44,780L-180,778L-179,822L-138,829L-141,856L-155,849L-194,860L-194,911L-163,936L-152,976L-154,1007L-185,1198L-220,1161L-241,1159L-196,1088L-250,1055L-291,1061L-317,1049L-355,1068L-407,1059L-448,986L-481,968L-503,935L-549,902L-568,908L-598,892L-632,869L-652,880L-711,870L-728,840L-741,841L-811,801L-820,780L-794,775L-797,740L-781,714L-746,709L-717,666L-690,629L-716,612L-703,572L-719,507L-704,489L-715,430L-743,392L-734,358L-712,363L-698,342L-715,301L-706,290L-670,292L-618,243L-589,236L-588,212L-575,152L-535,119L-491,118L-486,103L-431,109L-376,73L-349,57L-315,23L-291,27L-272,46L-286,70L-331,82L-348,117L-375,138L-396,164L-404,215L-423,256L-387,261L-379,293L-363,309L-358,337L-366,363L-363,378L-346,384L-330,409L-240,402L-199,411L-150,471L-122,464L-72,467L-32,459L-7,471L-20,509L-35,533L-41,583L-27,630L-7,650L-5,666L-40,701L-15,716L4,741Z" fill="#E0E0E0" stroke="#fff" stroke-width=".4"/><path d="M454,534L463,554L438,581L360,607L310,618L290,634L234,617L182,608L169,614L201,633L198,679L207,723L266,729L270,744L220,764L212,794L183,805L132,821L118,843L64,847L25,810L4,741L-15,716L-40,701L-5,666L-7,650L-27,630L-41,583L-35,533L-20,509L-7,471L-32,459L-72,467L-122,464L-150,471L-199,411L-240,402L-330,409L-346,384L-363,378L-366,363L-358,337L-363,309L-379,293L-387,261L-423,256L-404,215L-396,164L-375,138L-348,117L-331,82L-286,70L-288,87L-329,95L-306,127L-307,164L-338,206L-311,262L-281,257L-265,206L-287,181L-291,127L-204,98L-213,65L-189,42L-164,92L-115,94L-69,133L-67,157L-4,157L71,150L111,182L164,191L203,168L204,151L291,146L374,145L315,166L339,200L395,205L447,240L459,297L495,295L522,312L467,353L461,379L485,405L467,418L424,429L426,462L407,481Z" fill="#E0E0E0" stroke="#fff" stroke-width=".4"/><path d="M747,765L730,768L691,762L669,780L637,793L615,796L607,809L573,806L530,773L525,741L507,705L518,646L538,621L522,589L498,578L507,547L491,531L454,534L407,481L426,462L424,429L467,418L485,405L461,379L467,353L522,312L568,338L611,383L613,420L640,421L677,456L704,480L693,543L651,561L655,578L642,614L673,665L695,665L704,704Z" fill="#E0E0E0" stroke="#fff" stroke-width=".4"/><path d="M888,736L848,722L815,729L787,722L780,743L791,757L785,771L747,765L704,704L695,665L673,665L642,614L655,578L651,561L693,543L704,480L788,494L796,481L852,476L927,495L891,556L896,603L924,645L912,675L906,707Z" fill="#E0E0E0" stroke="#fff" stroke-width=".4"/></g><g clip-path="url(#v)"><path d="M452.6,112.4L448.9,113.1L449.4,110.3L455.9,105.4L466.2,102.2L468.7,102.0L467.2,106.4ZM434.8,186.6L423.5,190.6L393.8,191.6L381.8,190.1L372.5,191.2L389.3,182.6L391.3,178.9L398.6,178.2L400.9,177.0L403.1,157.9L402.1,153.3L400.9,150.8L397.8,148.9L391.3,146.5L390.1,145.1L394.3,143.0L403.1,141.9L409.7,139.6L423.5,139.1L430.0,137.1L441.3,136.5L435.8,145.2L433.3,148.6L434.3,156.6L433.0,161.9L434.5,168.7L437.8,173.2L435.5,177.5L435.3,184.2Z" fill="#4ECDC4" stroke="#2C3E50" stroke-width="1"/></g><circle cx="400.0" cy="150.0" r="4" fill="#E74C3C" stroke="#fff" stroke-width="2"/><text x="400.0" y="140.0" text-anchor="middle" font-family="sans-serif" font-weight="700" font-size="10" fill="#2D3436">Port of Spain</text></svg>