<svg viewBox="0 0 800 300" xmlns="http://www.w3.org/2000/svg"><defs><clipPath id="v"><rect width="800" height="300"/></clipPath></defs><rect width="800" height="300" fill="#DCEEF8"/><g clip-path="url(#v)"><path d="M392,214L394,213L397,215L395,219L391,220L387,219L387,216L389,214ZM406,208L401,209L397,211L396,208L399,207L401,206L406,204L406,204L406,208ZM-2108,204L-2108,204L-2108,204L-2106,204L-2107,207L-2108,208L-2108,208L-2108,204Z" fill="#E0E0E0" stroke="#fff" stroke-width=".4"/><path d="M133,108L145,113L158,117L163,121L167,124L168,129L180,133L181,137L175,137L177,142L183,147L187,154L191,154L191,157L196,158L194,160L202,163L201,165L196,165L195,163L189,162L182,161L176,157L172,153L169,147L159,144L154,146L149,148L150,153L145,156L141,155L134,154L133,131ZM215,116L217,118L218,122L216,124L215,119L213,117L210,114L206,112L201,109L203,108L206,110L209,111L212,113ZM205,131L201,133L198,134L194,134L188,132L184,130L185,128L191,129L195,129L196,125L197,125L198,129L202,128L204,126L208,124L207,119L211,119L212,120L212,124L210,129L206,129ZM229,128L231,129L235,134L238,136L237,138L235,139L232,136L229,132L228,126L229,126Z" fill="#E0E0E0" stroke="#fff" stroke-width=".4"/><path d="M133,108L133,131L134,154L127,148L120,147L119,149L110,149L113,143L117,142L115,134L112,128L98,122L93,121L82,115L80,118L77,119L76,116L76,113L70,110L78,107L83,108L82,106L72,106L69,102L63,100L60,97L70,95L73,93L84,96L85,98L87,110L95,114L100,106L108,102L115,102L121,105L126,107ZM21,153L22,154L22,156L18,161L12,163L11,162L12,160L14,155ZM86,139L85,133L86,131L88,128L90,130L90,134ZM-28,61L-32,68L-27,74L-28,78L-20,84L-29,85L-31,90L-31,96L-37,101L-37,108L-40,118L-41,116L-49,119L-52,115L-57,114L-60,112L-69,115L-71,111L-76,112L-82,111L-83,101L-86,99L-89,94L-90,87L-90,81L-85,76L-84,81L-80,85L-75,83L-71,84L-66,80L-63,80L-57,82L-51,80L-47,71L-45,68L-42,60L-34,60ZM52,110L60,112L62,117L56,114L51,114L47,114L42,114L43,110ZM35,117L30,116L29,112L36,112L37,114ZM42,75L43,79L47,80L47,82L47,88L43,88L42,92L45,96L43,97L40,92L38,83L40,78ZM7,84L15,84L22,79L23,80L18,87L12,89L6,87L-6,88L-12,89L-13,94L-7,100L-3,97L10,95L9,98L6,97L3,101L-3,104L4,113L3,115L9,123L9,128L5,130L2,127L6,121L-1,124L-3,122L-2,120L-7,115L-6,109L-11,111L-11,119L-10,129L-15,130L-18,128L-16,121L-17,115L-20,115L-22,110L-19,105L-18,100L-15,89L-13,86L-7,81L-2,83ZM-11,162L-20,157L-14,156L-10,158L-8,160L-8,162ZM-4,150L1,150L7,147L6,151L-5,153L-14,152L-14,149L-8,148ZM-25,149L-21,148L-19,151L-27,153L-32,154L-36,154L-34,150L-30,149L-28,147ZM-94,135L-93,138L-79,138L-78,136L-65,139L-62,143L-52,145L-43,149L-51,152L-59,149L-65,149L-72,148L-79,147L-87,145L-92,144L-95,145L-108,142L-109,139L-115,138L-111,132L-102,132L-97,135ZM-122,98L-121,103L-119,107L-114,107L-110,112L-112,120L-112,131L-120,131L-126,126L-135,120L-138,116L-143,110L-147,105L-152,95L-158,89L-160,83L-163,78L-169,73L-173,67L-178,63L-185,56L-186,52L-181,52L-170,54L-164,60L-159,65L-155,68L-148,76L-141,76L-135,81L-131,86L-126,90L-129,95L-125,98Z" fill="#E0E0E0" stroke="#fff" stroke-width=".4"/><path d="M21,153L22,151L28,149L33,149L35,148L38,149L35,151L28,154L22,156L22,154Z" fill="#E0E0E0" stroke="#fff" stroke-width=".4"/><path d="M316,203L321,207L318,208L316,205ZM313,201L312,199L312,194L316,196L317,202L315,201Z" fill="#E0E0E0" stroke="#fff" stroke-width=".4"/><path d="M-135,5L-137,-4L-132,-10L-123,-11L-116,-10L-111,-8L-108,-13L-101,-10L-100,-5L-101,3L-112,9L-109,13L-117,14L-123,17L-129,16L-131,12Z" fill="#E0E0E0" stroke="#fff" stroke-width=".4"/><path d="M-116,-10L-123,-11L-132,-10L-137,-4L-135,5L-141,1L-147,1L-146,-4L-152,-4L-153,4L-157,14L-159,20L-158,26L-154,26L-151,32L-150,38L-146,42L-142,43L-138,47L-140,50L-145,51L-145,47L-151,44L-152,45L-155,42L-156,39L-160,35L-163,32L-165,36L-166,32L-165,27L-163,21L-160,13L-156,7L-159,0L-158,-3L-159,-7L-164,-13L-166,-17L-163,-18L-161,-24L-163,-29L-168,-34L-171,-41L-168,-42L-165,-50L-160,-50L-156,-54L-152,-55L-149,-53L-149,-49L-144,-48L-146,-40L-146,-34L-138,-38L-136,-37L-132,-37L-131,-40L-125,-39L-120,-33L-120,-26L-114,-20L-114,-14Z" fill="#E0E0E0" stroke="#fff" stroke-width=".4"/><path d="M-101,-10L-108,-13L-111,-8L-116,-10L-114,-14L-114,-20L-120,-26L-120,-33L-125,-39L-131,-40L-132,-37L-136,-37L-138,-38L-146,-34L-146,-40L-144,-48L-149,-49L-149,-53L-152,-55L-151,-58L-145,-63L-144,-61L-140,-61L-141,-70L-138,-71L-134,-65L-131,-58L-122,-58L-119,-51L-124,-49L-126,-47L-117,-42L-112,-34L-107,-27L-102,-22L-100,-17Z" fill="#E0E0E0" stroke="#fff" stroke-width=".4"/><path d="M-152,-55L-156,-54L-160,-50L-165,-50L-168,-42L-171,-41L-168,-34L-163,-29L-161,-24L-163,-18L-166,-17L-164,-13L-159,-7L-158,-3L-159,0L-156,7L-160,13L-163,21L-164,15L-162,10L-164,6L-163,-2L-166,-6L-168,-14L-170,-24L-173,-30L-177,-26L-185,-21L-189,-21L-193,-23L-191,-32L-193,-39L-198,-48L-197,-50L-201,-51L-206,-57L-207,-63L-204,-62L-204,-68L-201,-69L-201,-73L-200,-75L-200,-83L-194,-81L-191,-88L-191,-91L-187,-98L-187,-102L-178,-108L-173,-106L-174,-111L-171,-113L-172,-116L-167,-116L-165,-111L-162,-110L-162,-104L-162,-97L-169,-91L-170,-82L-162,-83L-161,-76L-156,-74L-158,-68L-153,-65L-150,-64L-145,-66L-145,-63L-151,-58Z" fill="#E0E0E0" stroke="#fff" stroke-width=".4"/><path d="M-123,17L-117,14L-109,13L-112,9L-101,3L-100,-5L-101,-10L-100,-17L-102,-22L-107,-27L-112,-34L-117,-42L-126,-47L-124,-49L-119,-51L-122,-58L-131,-58L-134,-65L-138,-71L-134,-73L-128,-73L-122,-73L-116,-77L-112,-75L-106,-73L-107,-69L-104,-66L-97,-64L-106,-57L-112,-50L-113,-45L-108,-38L-102,-28L-95,-23L-91,-18L-88,-4L-89,8L-95,13L-103,18L-108,23L-117,30L-119,26L-117,21Z" fill="#E0E0E0" stroke="#fff" stroke-width=".4"/><path d="M62,-235L62,-235L62,-235ZM61,-237L62,-235L59,-236L56,-233L54,-230L54,-223L51,-221L50,-219L47,-217L42,-215L39,-213L39,-209L38,-208L41,-206L45,-202L44,-200L41,-200L36,-199L33,-195L30,-195L30,-195L26,-196L26,-195L24,-194L23,-196L21,-196L20,-198L22,-202L23,-203L23,-204L24,-209L24,-211L20,-212L16,-214L22,-220L30,-225L35,-232L38,-229L44,-228L43,-233L54,-237L56,-243Z" fill="#E0E0E0" stroke="#fff" stroke-width=".4"/><path d="M30,-195L30,-195L33,-195L36,-199L41,-200L44,-200L45,-202L51,-192L53,-186L53,-176L50,-172L44,-170L38,-166L32,-166L31,-170L32,-177L29,-186L35,-187Z" fill="#E0E0E0" stroke="#fff" stroke-width=".4"/><path d="M-172,-116L-171,-113L-174,-111L-173,-106L-178,-108L-187,-102L-187,-98L-191,-91L-191,-88L-194,-81L-200,-83L-200,-75L-201,-73L-201,-69L-204,-68L-208,-80L-210,-80L-211,-75L-215,-79L-212,-83L-209,-83L-206,-90L-210,-91L-217,-91L-223,-92L-224,-98L-227,-98L-233,-101L-235,-96L-230,-92L-235,-89L-236,-86L-232,-84L-233,-80L-231,-74L-230,-68L-230,-65L-235,-65L-244,-63L-243,-58L-247,-53L-257,-48L-265,-40L-270,-35L-277,-30L-277,-27L-281,-25L-287,-23L-290,-22L-292,-17L-291,-7L-291,-1L-294,5L-294,18L-297,18L-300,23L-298,26L-305,28L-307,32L-310,35L-316,28L-320,18L-322,11L-325,7L-328,1L-330,-8L-331,-13L-338,-23L-341,-37L-343,-46L-343,-55L-344,-62L-354,-58L-359,-59L-368,-68L-365,-71L-367,-74L-375,-80L-370,-85L-355,-85L-356,-92L-360,-96L-361,-102L-366,-105L-358,-113L-350,-113L-343,-121L-338,-129L-331,-137L-332,-143L-326,-148L-331,-152L-334,-158L-336,-165L-333,-169L-322,-167L-314,-168L-308,-175L-300,-165L-301,-158L-298,-154L-298,-150L-303,-151L-301,-142L-294,-137L-285,-131L-289,-127L-292,-120L-285,-117L-279,-113L-269,-108L-260,-107L-256,-103L-250,-103L-242,-101L-236,-101L-235,-104L-236,-109L-236,-112L-232,-114L-231,-108L-231,-106L-225,-103L-220,-105L-214,-104L-209,-104L-208,-109L-211,-112L-205,-113L-199,-119L-191,-124L-185,-122L-180,-125L-177,-120L-179,-117Z" fill="#E0E0E0" stroke="#fff" stroke-width=".4"/><path d="M306,241L312,246L316,249L313,251L309,249L304,245L300,241L295,236L294,234L297,234L301,236L304,239Z" fill="#E0E0E0" stroke="#fff" stroke-width=".4"/><path d="M281,164L283,166L278,166L275,162L279,164ZM278,158L277,159L271,153L270,149L272,149L275,154ZM272,160L269,160L265,159L263,158L264,155L268,156L271,158ZM263,146L265,149L265,150L260,147L256,145L253,142L255,142L258,143ZM246,139L249,142L247,142L244,141L241,138L242,136Z" fill="#E0E0E0" stroke="#fff" stroke-width=".4"/><path d="M384,396L381,401L378,407L372,411L371,409L368,407L372,400L370,395L362,391L363,388L368,385L369,378L369,372L366,366L366,365L363,361L357,353L354,347L357,347L361,351L366,354L368,361L373,371L373,365L376,367L377,374L383,376L388,377L392,374L395,375L394,383L391,388L386,388L384,390L385,394ZM333,429L339,424L344,419L347,412L349,409L350,404L355,400L357,404L358,408L363,404L365,408L365,412L363,416L358,423L355,427L357,432L352,432L346,435L344,442L340,452L335,456L331,459L325,459L320,456L313,455L311,451L315,444L324,434L328,432Z" fill="#E0E0E0" stroke="#fff" stroke-width=".4"/><path d="M180,403L184,403L185,415L182,418L182,425L179,423L174,430L173,429L169,429L164,421L163,414L159,406L159,402L164,403L171,406L175,405ZM30,328L22,332L16,334L15,339L12,342L6,342L2,343L-4,341L-9,342L-14,343L-18,347L-20,347L-24,349L-27,352L-32,352L-37,352L-44,346L-48,345L-48,340L-44,339L-43,337L-43,334L-43,328L-43,323L-47,315L-48,310L-48,306L-51,300L-51,298L-54,295L-55,289L-59,283L-60,279L-57,283L-59,275L-56,278L-54,281L-54,277L-57,271L-58,268L-59,266L-59,262L-57,260L-56,256L-57,251L-54,246L-54,252L-51,247L-45,244L-42,241L-36,238L-33,237L-31,238L-26,236L-21,235L-20,233L-19,233L-15,233L-7,231L-4,227L-2,223L2,220L3,217L3,213L8,206L11,213L14,211L11,208L13,204L16,206L17,200L21,197L23,194L26,193L26,191L29,192L30,190L33,189L36,188L41,191L45,195L49,195L54,196L52,192L56,186L59,184L58,183L61,179L65,176L69,177L75,176L74,172L69,170L73,168L78,170L81,173L87,175L89,174L94,176L98,174L100,175L102,174L105,177L103,181L101,184L98,184L99,187L97,191L94,194L95,196L100,200L106,203L109,205L114,209L116,209L120,211L121,213L128,216L132,213L134,210L135,206L136,202L138,197L137,193L138,191L137,187L138,181L139,180L138,178L140,174L141,170L141,168L144,165L146,169L146,173L148,174L148,177L151,181L151,185L151,187L154,193L158,190L161,193L164,196L163,199L165,206L166,209L167,210L169,216L169,220L171,225L178,229L183,233L188,236L187,238L191,242L194,250L197,249L200,252L201,251L202,259L207,264L211,266L216,273L218,279L218,283L218,288L221,295L221,302L219,306L218,313L218,318L216,323L213,331L208,335L206,341L203,346L201,353L198,357L197,364L196,370L196,372L192,375L184,376L178,379L175,383L170,387L165,383L160,381L161,377L158,378L152,385L146,382L142,381L138,380L131,378L126,372L125,366L123,361L120,358L113,357L116,353L114,346L110,352L104,354L108,349L109,344L112,340L111,334L105,341L101,344L98,350L93,347L93,343L89,336L85,333L86,331L77,326L72,326L66,322L53,323L44,326L36,329Z" fill="#E0E0E0" stroke="#fff" stroke-width=".4"/><path d="M-87,-39L-93,-41L-93,-48L-89,-51L-82,-53L-78,-53L-76,-50L-79,-47L-81,-42ZM-291,-237L-291,-242L-287,-245L-293,-261L-279,-265L-275,-268L-270,-286L-256,-282L-253,-287L-252,-297L-246,-298L-241,-306L-238,-306L-237,-299L-231,-293L-221,-290L-216,-281L-219,-269L-216,-265L-208,-263L-198,-262L-190,-256L-186,-255L-183,-246L-178,-240L-171,-240L-156,-238L-147,-240L-140,-238L-130,-232L-121,-233L-118,-230L-110,-235L-99,-238L-88,-238L-80,-242L-75,-247L-70,-250L-71,-253L-74,-257L-70,-263L-66,-262L-59,-260L-52,-266L-41,-269L-36,-276L-31,-279L-21,-280L-16,-279L-15,-283L-21,-290L-27,-293L-32,-290L-39,-291L-43,-290L-45,-294L-40,-305L-36,-313L-28,-309L-18,-316L-18,-320L-12,-332L-8,-336L-8,-342L-12,-345L-6,-351L2,-353L12,-353L22,-349L28,-345L33,-334L35,-329L38,-322L40,-311L52,-308L61,-300L63,-291L74,-290L80,-295L92,-298L88,-288L85,-285L83,-273L78,-264L70,-265L64,-262L66,-254L65,-242L61,-242L61,-237L56,-243L54,-237L43,-233L44,-228L38,-229L35,-232L30,-225L22,-220L16,-214L7,-212L2,-207L-6,-205L-2,-209L-4,-213L2,-219L-2,-224L-8,-220L-16,-214L-20,-208L-27,-208L-31,-203L-27,-197L-21,-196L-21,-192L-15,-189L-8,-196L-1,-192L3,-192L4,-187L-6,-185L-9,-180L-16,-176L-19,-170L-12,-165L-9,-157L-5,-150L0,-143L-0,-137L-4,-135L-3,-131L1,-128L0,-122L-2,-115L-5,-115L-11,-106L-16,-96L-23,-87L-32,-80L-42,-73L-50,-72L-54,-69L-57,-71L-60,-68L-70,-64L-78,-63L-80,-55L-84,-54L-86,-60L-84,-63L-93,-65L-97,-64L-104,-66L-107,-69L-106,-73L-112,-75L-116,-77L-122,-73L-128,-73L-134,-73L-138,-71L-141,-70L-140,-61L-144,-61L-145,-63L-145,-66L-150,-64L-153,-65L-158,-68L-156,-74L-161,-76L-162,-83L-170,-82L-169,-91L-162,-97L-162,-104L-162,-110L-165,-111L-167,-116L-172,-116L-179,-117L-177,-120L-180,-125L-185,-122L-191,-124L-199,-119L-205,-113L-211,-112L-214,-114L-218,-114L-223,-116L-226,-114L-231,-108L-232,-114L-236,-112L-244,-113L-252,-115L-258,-119L-263,-120L-265,-124L-269,-125L-276,-130L-282,-133L-285,-131L-294,-137L-301,-142L-303,-151L-298,-150L-298,-154L-301,-158L-300,-165L-308,-175L-319,-179L-321,-185L-326,-189L-328,-192L-329,-197L-328,-200L-333,-202L-335,-201L-337,-210L-335,-212L-336,-214L-329,-218L-324,-220L-317,-219L-314,-225L-305,-226L-303,-229L-292,-235Z" fill="#E0E0E0" stroke="#fff" stroke-width=".4"/><path d="M-1,-85L-5,-73L-8,-67L-12,-73L-13,-79L-8,-87L-3,-92L0,-90Z" fill="#E0E0E0" stroke="#fff" stroke-width=".4"/><path d="M-7,1L-11,-5L-5,-4L-3,-2L-4,4ZM5,20L7,18L7,14L11,13L10,18L15,11L15,18L12,20L10,25L8,27L3,22ZM31,31L32,36L32,40L30,46L27,39L24,43L26,48L24,51L16,47L14,42L16,39L12,35L10,38L6,38L1,42L0,40L3,34L7,32L11,29L14,33L19,31L20,27L25,27L24,22L30,25L31,29ZM-24,25L-33,32L-30,27L-25,22L-20,17L-17,10L-15,16L-20,20ZM3,-39L2,-36L4,-31L2,-25L-2,-22L-3,-17L-1,-11L2,-10L6,-11L14,-7L14,-3L16,-1L15,2L10,-1L7,-5L5,-3L1,-7L-5,-6L-9,-7L-9,-10L-6,-12L-8,-14L-9,-11L-13,-15L-14,-19L-14,-26L-11,-23L-11,-35L-8,-41L-4,-41L0,-39L2,-41ZM1,10L-0,7L4,9L8,9L8,12L5,15L1,17L0,14ZM25,5L27,13L22,11L22,13L24,18L20,19L20,14L18,14L17,10L21,10L21,7L17,2L23,2Z" fill="#E0E0E0" stroke="#fff" stroke-width=".4"/><path d="M-152,45L-151,44L-145,47L-145,51L-140,50L-138,47L-136,47L-132,52L-129,56L-129,61L-130,64L-129,67L-128,71L-126,73L-123,79L-123,81L-128,82L-135,77L-143,71L-144,67L-148,63L-149,57L-152,53L-151,48ZM-28,61L-34,60L-42,60L-45,68L-47,71L-51,80L-57,82L-63,80L-66,80L-71,84L-75,83L-80,85L-84,81L-85,76L-80,79L-75,77L-74,71L-71,70L-62,69L-57,63L-54,59L-51,62L-49,60L-46,60L-45,56L-45,52L-40,47L-36,42L-33,42L-30,45L-29,48L-25,50L-19,52L-20,55L-24,56L-23,59Z" fill="#E0E0E0" stroke="#fff" stroke-width=".4"/><path d="M-45,52L-45,56L-46,60L-49,60L-51,62L-54,59L-51,56Z" fill="#E0E0E0" stroke="#fff" stroke-width=".4"/><path d="M139,-207L133,-198L133,-189L131,-182L132,-178L128,-172L119,-168L107,-167L97,-158L92,-161L92,-167L80,-166L72,-162L63,-161L70,-155L66,-141L61,-138L58,-141L60,-148L55,-151L52,-156L59,-159L63,-164L70,-169L75,-175L89,-177L96,-175L103,-191L108,-187L118,-195L122,-199L127,-210L126,-220L128,-226L136,-228L140,-215ZM159,-252L163,-256L165,-245L155,-243L149,-233L138,-240L134,-229L126,-229L125,-239L129,-246L136,-247L138,-260L140,-268L148,-257L154,-254ZM73,-158L77,-163L81,-162L84,-165L89,-164L90,-161L86,-156L83,-158L79,-156L78,-152L73,-154Z" fill="#E0E0E0" stroke="#fff" stroke-width=".4"/></g><g clip-path="url(#v)"></g><circle cx="400.0" cy="150.0" r="4" fill="#E74C3C" stroke="#fff" stroke-width="2"/><text x="400.0" y="140.0" text-anchor="middle" font-family="sans-serif" font-weight="700" font-size="10" fill="#2D3436">Funafuti</text></svg>