<svg viewBox="0 0 800 300" xmlns="http://www.w3.org/2000/svg"><defs><clipPath id="v"><rect width="800" height="300"/></clipPath></defs><rect width="800" height="300" fill="#DCEEF8"/><g clip-path="url(#v)"><path d="M-140,528L-172,523L-214,530L-235,558L-228,599L-257,584L-286,584L-281,558L-310,558L-312,595L-330,644L-341,674L-339,698L-317,699L-304,730L-298,759L-279,778L-259,782L-242,799L-253,813L-275,817L-277,800L-304,785L-310,791L-323,778L-329,762L-346,743L-363,727L-368,747L-374,728L-371,707L-361,675L-345,641L-327,609L-340,578L-339,562L-343,543L-365,516L-373,499L-361,493L-349,463L-363,440L-384,415L-400,384L-386,378L-371,340L-347,339L-328,324L-309,315L-295,326L-293,347L-271,349L-279,386L-278,417L-243,396L-233,402L-214,401L-207,389L-182,392L-157,420L-155,454L-128,484L-130,513Z" fill="#E0E0E0" stroke="#fff" stroke-width=".4"/><path d="M-69,531L-98,518L-113,542L-140,528L-130,513L-128,484L-155,454L-157,420L-182,392L-207,389L-214,401L-233,402L-243,396L-278,417L-279,386L-271,349L-293,347L-295,326L-309,315L-302,302L-274,279L-271,288L-253,289L-258,248L-241,243L-222,271L-207,303L-166,303L-154,334L-175,343L-184,356L-145,377L-117,418L-96,448L-71,472L-63,497Z" fill="#E0E0E0" stroke="#fff" stroke-width=".4"/><path d="M-170,656L-141,643L-106,640L-121,620L-65,594L-61,553L-69,531L-63,497L-71,472L-96,448L-117,418L-145,377L-184,356L-175,343L-154,334L-166,303L-207,303L-222,271L-241,243L-224,234L-197,234L-165,230L-137,211L-121,224L-91,231L-96,251L-80,266L-47,275L-91,305L-119,339L-126,363L-101,400L-70,445L-40,466L-20,494L-4,557L-9,617L-36,639L-74,661L-101,689L-142,720L-155,698L-145,676Z" fill="#E0E0E0" stroke="#fff" stroke-width=".4"/><path d="M0,393L-27,382L-28,352L-12,336L25,327L44,327L51,341L36,356L29,376ZM-966,-543L-968,-569L-946,-581L-975,-660L-910,-679L-893,-690L-869,-775L-803,-760L-785,-782L-783,-831L-756,-836L-731,-869L-718,-873L-709,-838L-681,-812L-634,-793L-611,-754L-624,-698L-612,-678L-573,-670L-529,-663L-489,-634L-468,-629L-453,-587L-434,-560L-397,-561L-329,-551L-285,-557L-252,-550L-204,-523L-164,-523L-149,-510L-110,-534L-57,-549L-7,-551L31,-567L55,-591L78,-606L73,-621L62,-639L79,-669L98,-665L132,-655L165,-680L215,-698L240,-730L263,-744L311,-750L337,-745L341,-762L311,-796L284,-812L259,-793L226,-801L207,-795L199,-815L222,-865L238,-903L278,-884L325,-917L324,-939L354,-995L373,-1012L372,-1042L354,-1055L381,-1082L422,-1092L466,-1094L516,-1077L545,-1057L565,-1003L577,-980L589,-948L601,-897L659,-881L698,-845L711,-798L762,-798L790,-817L845,-832L827,-788L815,-770L803,-717L781,-671L741,-679L713,-663L721,-623L716,-569L700,-568L700,-545L679,-572L665,-546L614,-527L619,-504L591,-506L575,-519L552,-488L516,-465L489,-437L443,-424L419,-404L383,-393L401,-412L394,-429L420,-458L402,-481L374,-466L336,-435L316,-408L283,-406L267,-386L284,-357L311,-350L312,-332L338,-320L375,-349L405,-333L426,-332L431,-310L385,-299L369,-277L337,-256L320,-228L356,-206L369,-167L389,-130L411,-100L411,-72L390,-61L398,-41L417,-29L412,2L404,32L385,35L361,76L334,124L304,168L258,201L212,231L175,235L155,251L143,240L125,257L78,275L44,281L32,318L14,320L5,294L13,281L-31,269L-47,275L-80,266L-96,251L-91,231L-121,224L-137,211L-165,230L-197,234L-224,234L-241,243L-258,248L-253,289L-271,288L-274,279L-275,265L-299,275L-314,268L-338,255L-329,225L-349,218L-357,185L-392,191L-388,148L-357,117L-356,87L-357,59L-371,50L-382,28L-401,30L-437,25L-426,9L-441,-15L-465,1L-493,-8L-531,16L-561,44L-587,49L-602,39L-619,38L-643,29L-661,39L-683,66L-686,37L-706,45L-744,41L-782,33L-808,16L-834,9L-845,-9L-864,-15L-897,-40L-924,-52L-937,-42L-983,-69L-1016,-94L-1025,-137L-1001,-131L-1000,-151L-1013,-172L-1010,-204L-1046,-251L-1100,-268L-1110,-299L-1134,-319L-1140,-331L-1145,-354L-1144,-371L-1164,-380L-1175,-376L-1183,-415L-1174,-425L-1178,-435L-1147,-456L-1124,-464L-1089,-458L-1076,-486L-1034,-492L-1022,-509L-970,-533Z" fill="#E0E0E0" stroke="#fff" stroke-width=".4"/><path d="M376,582L359,556L387,557L399,569L390,598ZM434,673L442,664L446,643L464,641L458,664L483,631L480,663L468,674L458,696L447,706L427,682ZM559,726L562,748L564,767L553,797L541,763L525,780L536,805L527,820L488,801L478,777L488,761L467,745L457,759L441,758L417,776L412,767L425,739L445,729L463,717L475,732L500,723L506,708L529,707L527,681L554,697L557,714ZM299,696L255,727L271,704L295,683L315,660L332,627L338,654L316,673ZM425,392L420,407L431,431L423,460L403,472L398,499L405,526L423,530L437,526L479,545L475,564L486,572L483,587L457,571L445,553L436,565L415,545L385,550L369,542L371,528L381,520L371,512L367,524L350,504L346,490L344,457L358,468L361,414L372,382L392,382L412,392L422,383ZM416,625L410,609L430,620L451,619L451,634L435,648L414,658L413,642ZM530,600L539,638L514,629L514,640L523,661L507,668L505,645L495,643L490,623L510,625L509,612L489,587L521,587Z" fill="#E0E0E0" stroke="#fff" stroke-width=".4"/><path d="M1071,-405L1041,-362L1041,-319L1029,-286L1035,-266L1018,-237L975,-218L917,-216L870,-170L848,-185L847,-215L789,-206L750,-187L711,-187L745,-158L723,-91L701,-75L685,-90L694,-125L673,-136L659,-163L690,-176L708,-201L741,-221L765,-249L831,-261L866,-253L901,-326L923,-306L972,-348L990,-364L1011,-416L1005,-464L1019,-492L1054,-500L1073,-440ZM1162,-616L1185,-636L1192,-584L1143,-572L1114,-527L1063,-558L1044,-509L1008,-508L1003,-553L1020,-587L1055,-590L1064,-654L1074,-690L1113,-641L1138,-626ZM757,-170L775,-194L794,-189L808,-206L832,-197L836,-184L818,-160L804,-172L787,-163L778,-140L757,-151Z" fill="#E0E0E0" stroke="#fff" stroke-width=".4"/></g><g clip-path="url(#v)"><path d="M381.5,237.1L379.5,241.3L377.8,245.7L377.1,249.9L377.2,254.2L376.7,258.1L375.9,261.9L372.7,260.8L370.9,258.1L370.5,253.6L368.2,248.1L367.3,246.5L364.0,243.5L360.9,241.9L358.5,239.7L358.9,239.9L357.1,236.8L355.8,233.6L353.0,224.4L352.1,222.1L350.9,220.1L350.5,218.1L350.9,215.8L352.1,212.5L352.8,209.1L352.2,204.5L352.4,199.9L353.4,197.9L368.9,170.1L373.2,164.2L375.8,161.2L377.9,157.9L379.9,153.7L382.6,149.9L384.3,148.7L393.3,145.3L396.0,142.0L398.3,141.0L400.8,141.0L402.4,142.6L403.9,144.5L405.4,145.5L409.3,147.3L411.1,149.0L411.8,152.1L409.4,154.9L408.3,157.5L408.0,160.4L408.5,164.2L408.5,168.1L405.5,177.1L402.3,182.7L401.5,185.5L400.4,192.5L398.5,199.4L397.0,208.2L394.3,217.3L392.8,221.1L390.9,224.7L386.5,231.5ZM295.4,168.5L296.9,170.9L296.3,172.4L291.8,171.6L291.5,170.1L293.2,170.4Z" fill="#4ECDC4" stroke="#2C3E50" stroke-width="1"/></g><circle cx="400.0" cy="150.0" r="4" fill="#E74C3C" stroke="#fff" stroke-width="2"/><text x="400.0" y="140.0" text-anchor="middle" font-family="sans-serif" font-weight="700" font-size="10" fill="#2D3436">Taipei</text></svg>