<svg viewBox="0 0 800 300" xmlns="http://www.w3.org/2000/svg"><defs><clipPath id="v"><rect width="800" height="300"/></clipPath></defs><rect width="800" height="300" fill="#DCEEF8"/><g clip-path="url(#v)"><path d="M1394,231L1396,230L1398,232L1397,236L1393,237L1389,236L1388,233L1391,230ZM1407,224L1403,226L1398,227L1397,225L1401,223L1403,223L1407,221L1407,221L1407,224ZM-1106,221L-1106,221L-1106,221L-1105,220L-1106,224L-1106,224L-1106,224L-1106,221Z" fill="#E0E0E0" stroke="#fff" stroke-width=".4"/><path d="M387,114L388,114L414,129L414,133L424,140L421,148L421,152L426,155L426,157L424,161L424,163L424,166L426,171L429,178L432,179L426,183L419,186L415,186L412,188L407,188L405,189L397,187L392,188L390,178L387,175L386,173L379,172L375,170L371,168L368,167L365,165L361,156L357,153L356,148L356,145L355,138L358,138L361,135L363,132L365,130L365,128L364,127L363,124L365,123L366,119L363,115L365,114L373,114Z" fill="#E0E0E0" stroke="#fff" stroke-width=".4"/><path d="M90,-94L90,-94L90,-92L90,-80L67,-81L67,-61L61,-60L59,-56L60,-46L33,-46L31,-43L32,-46L32,-46L47,-47L48,-50L51,-53L53,-63L63,-72L66,-81L69,-82L71,-88L77,-89L79,-88L82,-88L85,-90L89,-90L89,-94Z" fill="#E0E0E0" stroke="#fff" stroke-width=".4"/><path d="M541,-210L541,-246L559,-251L560,-251L571,-244L577,-240L583,-231L592,-232L604,-233L612,-226L611,-217L615,-217L616,-209L625,-209L627,-204L630,-204L633,-211L642,-218L646,-219L648,-218L642,-212L647,-209L652,-211L660,-206L652,-200L646,-200L643,-200L642,-203L644,-207L634,-205L632,-199L629,-194L623,-194L621,-190L626,-188L628,-182L624,-173L619,-175L615,-175L615,-180L606,-184L598,-188L594,-192L586,-199L582,-208L580,-210L573,-209L570,-211L569,-219L560,-224L554,-218L548,-215L549,-210Z" fill="#E0E0E0" stroke="#fff" stroke-width=".4"/><path d="M1135,125L1135,148L1135,171L1129,165L1122,164L1120,166L1111,166L1114,160L1119,158L1117,151L1113,145L1100,139L1094,138L1084,132L1082,135L1079,136L1077,133L1077,130L1072,127L1079,124L1084,124L1084,122L1074,122L1071,118L1065,117L1062,113L1071,112L1075,109L1086,112L1087,115L1089,126L1096,130L1102,123L1110,119L1116,119L1122,121L1127,124ZM1023,169L1024,171L1024,173L1019,178L1013,180L1012,179L1013,176L1016,172ZM1087,155L1087,150L1088,147L1089,145L1091,147L1091,150ZM973,78L969,84L975,91L973,94L981,101L973,101L971,106L971,113L964,117L964,124L961,135L960,132L952,136L950,131L945,131L941,129L933,131L930,128L926,128L920,127L919,118L915,116L912,110L911,104L912,98L916,93L917,98L922,102L926,100L931,101L935,97L938,96L945,98L951,97L954,87L957,85L959,77L967,77ZM1054,126L1061,129L1064,134L1058,131L1052,130L1048,131L1043,131L1045,127ZM1036,133L1031,132L1030,129L1037,129L1039,131ZM1044,92L1044,96L1048,96L1049,99L1048,105L1045,104L1044,109L1047,112L1045,113L1042,109L1040,100L1041,94ZM1009,101L1017,101L1024,95L1025,97L1019,104L1014,105L1007,104L996,104L989,105L988,111L995,117L998,114L1011,111L1011,114L1008,113L1005,118L999,120L1005,129L1004,132L1010,140L1010,144L1007,146L1004,144L1007,138L1000,141L999,139L999,136L994,132L995,125L990,127L991,136L991,146L987,147L984,145L986,138L985,131L982,131L980,126L982,122L983,116L987,106L988,103L994,98L1000,100ZM990,179L981,174L987,173L991,175L994,177L993,179ZM998,167L1002,166L1008,164L1007,168L997,170L988,169L988,166L993,165ZM976,166L980,165L982,168L974,169L969,170L965,170L968,166L972,166L974,164ZM908,152L909,154L922,155L924,152L937,156L939,160L950,161L958,166L950,168L943,165L936,166L929,165L922,164L914,161L909,160L906,161L894,158L892,155L886,155L891,148L899,149L905,151ZM879,114L880,119L883,123L888,124L891,128L889,137L889,148L881,148L876,142L867,136L864,132L858,126L855,121L850,111L843,106L841,100L839,94L832,90L829,84L824,80L816,72L816,69L820,69L831,70L837,77L843,82L846,85L853,92L860,92L866,97L870,103L875,106L873,112L877,114Z" fill="#E0E0E0" stroke="#fff" stroke-width=".4"/><path d="M355,138L356,145L356,148L357,153L361,156L365,165L362,165L353,166L351,167L349,171L351,174L349,183L349,190L350,191L355,194L357,193L358,200L352,200L350,196L347,193L342,192L340,189L336,191L330,190L328,187L323,186L320,186L320,184L317,184L314,183L310,184L307,184L305,185L305,176L303,174L303,169L304,165L302,162L302,158L294,158L294,155L291,155L290,157L286,157L284,161L283,163L279,162L277,163L272,163L270,160L268,157L266,153L264,148L244,148L241,149L239,149L236,150L235,147L237,147L237,144L239,142L241,140L243,141L245,138L249,138L250,140L252,142L256,137L260,134L262,132L262,126L265,119L268,115L273,112L274,110L274,107L275,105L275,101L275,95L277,90L279,87L279,82L280,78L283,74L286,72L292,74L297,77L302,77L307,79L309,75L310,74L313,75L321,71L324,73L326,72L327,71L330,70L335,71L339,71L342,70L346,76L349,77L351,76L354,76L358,75L360,78L366,82L365,91L368,92L366,94L363,96L360,99L359,103L359,108L357,111L357,116L355,118L355,122L354,123L353,127L355,130Z" fill="#E0E0E0" stroke="#fff" stroke-width=".4"/><path d="M441,119L437,113L437,87L443,80L445,77L449,77L455,72L464,72L484,51L489,45L492,41L492,37L492,30L492,27L492,27L494,27L498,26L501,25L505,22L507,22L507,24L507,28L507,32L505,35L503,42L500,50L496,59L490,70L484,77L476,87L469,93L458,100L452,105L444,113L442,117Z" fill="#E0E0E0" stroke="#fff" stroke-width=".4"/><path d="M424,140L414,133L414,129L388,114L387,114L387,106L389,103L392,99L395,94L392,86L391,82L388,77L392,73L397,68L400,70L400,74L403,76L408,76L417,82L419,82L420,82L422,82L427,83L429,80L435,77L438,80L443,80L437,87L437,113L441,119L436,121L434,124L432,125L431,130L428,133L427,137Z" fill="#E0E0E0" stroke="#fff" stroke-width=".4"/><path d="M322,49L317,46L314,44L314,42L315,39L315,36L311,32L310,29L310,27L308,25L307,21L306,18L304,18L304,16L306,13L305,10L308,8L306,6L308,1L311,-4L317,-3L317,-33L317,-36L325,-36L325,-51L353,-51L380,-51L408,-51L410,-43L409,-42L410,-34L412,-25L415,-24L419,-21L415,-17L410,-15L408,-13L407,-8L404,2L405,5L404,11L401,18L397,22L394,27L393,30L390,32L388,40L388,46L388,41L387,40L387,37L386,34L382,32L381,27L382,21L379,21L379,22L374,23L376,25L377,29L373,33L369,38L366,39L360,35L357,36L356,38L353,40L353,41L346,41L345,40L340,39L337,41L335,40L332,36L330,34L325,35L324,38L322,44L319,46L317,47Z" fill="#E0E0E0" stroke="#fff" stroke-width=".4"/><path d="M317,-33L317,-3L311,-4L308,1L306,6L308,8L305,10L306,13L304,16L304,18L306,18L307,21L308,25L310,27L310,29L306,30L302,33L297,40L290,44L284,43L282,44L282,46L279,49L276,52L267,54L265,53L264,53L263,54L257,55L258,53L256,48L255,45L252,44L248,40L249,37L253,37L255,37L258,37L255,30L255,26L254,21L252,16L252,13L248,13L248,8L245,6L248,-4L257,-11L257,-20L260,-35L261,-39L259,-41L258,-43L256,-45L254,-57L261,-61L289,-47Z" fill="#E0E0E0" stroke="#fff" stroke-width=".4"/><path d="M632,496L636,500L643,501L643,503L641,508L630,509L630,503L631,499Z" fill="#E0E0E0" stroke="#fff" stroke-width=".4"/><path d="M265,315L268,311L271,313L272,317L275,317L279,319L283,318L289,314L289,285L291,287L295,294L295,299L296,301L301,301L305,297L308,295L310,291L313,289L316,290L319,292L325,293L330,291L330,289L332,285L335,284L337,281L340,276L346,271L356,265L359,265L362,266L364,266L368,266L372,277L373,282L372,291L373,294L369,292L367,293L366,295L365,298L365,301L369,305L373,304L374,301L380,301L378,306L377,313L375,317L370,321L369,322L366,326L364,330L360,336L352,344L347,349L342,353L335,356L331,357L330,359L326,358L323,359L315,358L311,359L308,358L301,362L295,363L291,366L287,367L284,363L282,363L279,360L279,361L278,358L278,354L276,348L278,346L278,340L273,333L270,326L270,326ZM353,318L350,316L346,317L343,321L339,326L344,332L347,331L348,328L352,327L353,325L355,321Z" fill="#E0E0E0" stroke="#fff" stroke-width=".4"/><path d="M353,318L355,321L353,325L352,327L348,328L347,331L344,332L339,326L343,321L346,317L350,316Z" fill="#E0E0E0" stroke="#fff" stroke-width=".4"/><path d="M-222,358L-224,353L-221,349L-225,343L-231,339L-238,334L-240,334L-247,328L-252,328L-243,317L-235,310L-230,307L-224,302L-224,296L-227,291L-231,293L-230,289L-229,284L-229,280L-231,278L-234,280L-236,279L-237,276L-238,269L-239,267L-244,265L-247,267L-254,265L-254,255L-256,251L-253,249L-254,245L-252,242L-251,236L-253,231L-256,229L-257,226L-256,222L-270,222L-272,214L-270,213L-270,210L-272,208L-272,204L-276,202L-280,202L-283,200L-288,198L-291,196L-299,195L-306,188L-306,183L-306,181L-306,175L-315,177L-319,179L-325,182L-326,184L-330,184L-335,184L-339,185L-342,184L-342,173L-347,178L-354,177L-356,174L-361,173L-359,170L-363,166L-366,160L-364,158L-364,155L-360,153L-361,150L-359,147L-358,144L-350,139L-345,138L-344,137L-338,137L-334,118L-334,115L-335,111L-338,108L-338,103L-334,102L-333,103L-333,100L-337,99L-337,95L-323,95L-321,93L-319,95L-318,99L-316,98L-313,102L-307,101L-306,99L-301,98L-298,96L-297,94L-292,92L-292,90L-298,89L-299,85L-299,80L-302,79L-301,78L-296,79L-290,81L-288,79L-283,78L-275,75L-273,73L-274,71L-270,70L-268,72L-269,75L-267,76L-265,79L-267,82L-268,88L-267,91L-266,94L-262,98L-258,98L-258,97L-255,96L-252,95L-250,93L-246,94L-244,94L-241,94L-240,93L-241,91L-240,89L-238,90L-234,89L-230,91L-227,92L-225,90L-223,91L-223,93L-219,92L-216,89L-214,84L-210,78L-208,78L-206,81L-202,94L-198,95L-198,100L-204,105L-201,107L-189,109L-189,116L-183,111L-175,113L-163,118L-160,122L-161,126L-153,124L-139,127L-129,127L-118,133L-109,141L-104,143L-98,143L-96,145L-93,154L-92,158L-95,170L-98,175L-108,184L-113,193L-118,199L-120,199L-122,204L-121,218L-123,229L-124,234L-126,237L-127,246L-134,256L-135,264L-141,267L-143,272L-150,272L-161,275L-166,278L-174,280L-182,286L-188,294L-189,300L-188,304L-189,312L-191,316L-196,320L-204,335L-210,341L-214,345L-218,353Z" fill="#E0E0E0" stroke="#fff" stroke-width=".4"/><path d="M-210,78L-214,84L-216,89L-219,92L-223,93L-223,91L-225,90L-227,92L-230,91L-228,88L-228,85L-227,82L-229,77L-230,73L-226,67L-224,67L-219,69L-211,75ZM194,-292L197,-289L207,-287L203,-280L203,-272L201,-270L197,-271L198,-269L193,-263L192,-258L196,-260L198,-256L198,-253L200,-249L198,-246L199,-238L203,-237L202,-233L196,-227L182,-230L172,-227L171,-221L163,-220L155,-224L153,-222L140,-227L137,-230L141,-236L142,-256L135,-266L130,-272L119,-276L118,-283L127,-286L139,-283L137,-295L144,-290L160,-299L162,-308L168,-310L169,-306L172,-306L175,-302L180,-296L184,-297L190,-292L192,-291ZM211,-223L216,-226L217,-218L215,-211L212,-213L210,-219Z" fill="#E0E0E0" stroke="#fff" stroke-width=".4"/><path d="M368,266L364,266L362,266L359,265L356,265L351,262L346,261L344,256L344,253L341,252L333,244L331,240L329,239L327,233L335,234L337,234L339,234L343,229L349,223L352,223L353,220L356,218L362,217L362,219L368,219L371,221L373,222L376,223L380,225L380,235L378,240L378,245L379,247L378,252L377,252L376,258Z" fill="#E0E0E0" stroke="#fff" stroke-width=".4"/><path d="M356,265L346,271L340,276L337,281L335,284L332,285L330,289L330,291L325,293L319,292L316,290L313,289L310,291L308,295L305,297L301,301L296,301L295,299L295,294L291,287L289,285L289,263L296,263L296,237L302,236L312,234L315,237L319,234L322,234L326,232L327,233L329,239L331,240L333,244L341,252L344,253L344,256L346,261L351,262Z" fill="#E0E0E0" stroke="#fff" stroke-width=".4"/><path d="M289,285L289,314L283,318L279,319L275,317L272,317L271,313L268,311L265,315L259,309L257,304L255,296L253,290L251,278L251,269L250,265L247,262L244,256L240,247L238,242L233,235L232,230L236,228L240,227L244,227L249,230L250,230L278,230L283,233L300,234L312,231L318,230L323,230L325,232L326,232L322,234L319,234L315,237L312,234L302,236L296,237L296,263L289,263Z" fill="#E0E0E0" stroke="#fff" stroke-width=".4"/><path d="M34,11L31,5L27,3L30,2L34,-4L35,-7L38,-10L41,-9L45,-11L49,-11L52,-8L57,-7L61,-1L65,4L66,8L67,12L70,14L70,17L70,19L69,20L65,19L65,20L63,20L58,18L55,18L42,18L40,19L38,19L34,20L33,14L39,14L41,13L42,13L45,12L48,13L51,13L54,12L52,10L50,11L48,11L45,9L43,9L41,11Z" fill="#E0E0E0" stroke="#fff" stroke-width=".4"/><path d="M70,19L70,17L70,14L67,12L66,8L65,4L68,2L69,-2L71,-2L76,0L80,-1L83,-1L84,-3L112,-3L113,-8L112,-9L109,-40L105,-73L116,-73L140,-57L163,-40L165,-37L169,-35L172,-33L172,-29L180,-29L180,-12L176,-8L176,-3L170,-2L160,-1L158,1L153,1L149,2L147,0L143,1L136,4L135,6L130,10L129,11L126,13L122,12L121,14L120,19L114,25L114,27L112,30L113,34L110,35L108,36L107,33L105,34L104,34L103,36L97,36L95,35L94,35L92,33L93,31L92,30L90,31L91,29L92,27L89,24L88,22L87,20L85,20L84,21L81,22L79,24L76,23L75,21L73,21L72,22L70,22Z" fill="#E0E0E0" stroke="#fff" stroke-width=".4"/><path d="M31,-43L33,-46L60,-46L59,-56L61,-60L67,-61L67,-81L90,-80L90,-92L116,-73L105,-73L109,-40L112,-9L113,-8L112,-3L84,-3L83,-1L80,-1L76,0L71,-2L69,-2L68,2L65,4L61,-1L57,-7L52,-8L49,-11L45,-11L41,-9L38,-10L35,-7L35,-11L37,-15L38,-22L37,-29L36,-33L37,-36L35,-40Z" fill="#E0E0E0" stroke="#fff" stroke-width=".4"/><path d="M169,63L163,64L162,59L162,43L161,41L160,38L158,35L156,33L157,30L159,29L161,26L164,25L165,23L168,21L170,21L176,25L175,27L177,32L176,34L176,36L173,41L171,43L169,47L170,52Z" fill="#E0E0E0" stroke="#fff" stroke-width=".4"/><path d="M254,-57L256,-45L258,-43L259,-41L261,-39L260,-35L257,-20L257,-11L248,-4L245,6L248,8L248,13L252,13L252,16L250,17L249,19L248,19L243,11L242,11L236,15L231,13L227,13L225,14L221,13L217,16L213,17L205,13L202,15L198,15L195,12L188,9L181,10L179,12L178,16L176,19L176,25L170,21L168,21L165,23L166,18L158,16L157,13L153,8L152,5L153,1L158,1L160,-1L170,-2L176,-3L176,-8L180,-12L180,-29L190,-33L210,-47L234,-62L245,-58L249,-54Z" fill="#E0E0E0" stroke="#fff" stroke-width=".4"/><path d="M169,63L170,52L169,47L171,43L173,41L176,36L176,34L177,32L175,27L176,25L176,19L178,16L179,12L181,10L188,9L195,12L198,15L202,15L205,13L213,17L217,16L221,13L225,14L227,13L231,13L236,15L242,11L243,11L248,19L249,19L252,22L251,23L251,26L245,31L243,36L242,39L241,41L239,46L236,49L235,52L233,55L232,58L228,60L224,58L221,58L217,62L215,62L212,69L210,74L203,76L200,76L197,77L192,77L188,73L186,68L181,63L175,63Z" fill="#E0E0E0" stroke="#fff" stroke-width=".4"/><path d="M252,16L254,21L255,26L255,30L258,37L255,37L253,37L249,37L248,40L252,44L255,45L256,48L258,53L257,55L254,62L252,63L251,69L252,72L251,74L255,77L255,80L258,84L261,86L261,89L262,91L262,95L256,93L251,91L242,91L241,91L237,92L232,91L229,91L218,91L219,85L216,81L213,80L211,76L210,75L210,74L212,69L215,62L217,62L221,58L224,58L228,60L232,58L233,55L235,52L236,49L239,46L241,41L242,39L243,36L245,31L251,26L251,23L252,22L249,19L250,17Z" fill="#E0E0E0" stroke="#fff" stroke-width=".4"/><path d="M157,30L156,33L158,35L160,38L161,41L162,43L162,59L163,64L158,65L156,63L154,59L154,55L155,49L154,46L153,41L153,35L150,32L151,30Z" fill="#E0E0E0" stroke="#fff" stroke-width=".4"/><path d="M151,30L150,32L153,35L153,41L154,46L155,49L154,55L154,59L156,63L158,65L147,70L143,72L137,74L130,72L131,69L128,63L130,55L133,49L131,39L130,34L130,30L142,30L145,30L147,29Z" fill="#E0E0E0" stroke="#fff" stroke-width=".4"/><path d="M94,35L95,35L97,36L103,36L104,34L105,34L107,33L108,36L110,35L113,34L116,36L117,38L120,39L123,38L126,37L131,39L133,49L130,55L128,63L131,69L130,72L127,72L122,71L118,71L110,72L105,74L98,77L97,76L97,71L98,70L98,67L95,64L92,64L90,62L92,59L91,55L91,53L93,53L93,50L92,49L93,48L96,47L94,41L92,38L93,36Z" fill="#E0E0E0" stroke="#fff" stroke-width=".4"/><path d="M55,18L58,18L63,20L65,20L65,19L69,20L70,19L70,22L72,22L73,21L75,21L76,23L79,24L81,22L84,21L85,20L87,20L88,22L89,24L92,27L91,29L90,31L92,30L93,31L92,33L94,35L93,36L92,38L94,41L96,47L93,48L92,49L93,50L93,53L91,53L90,53L88,56L86,56L85,54L85,51L82,47L80,48L79,48L77,48L77,46L76,44L76,42L75,39L73,36L67,36L66,38L64,38L62,39L62,41L58,45L55,40L52,38L50,37L49,35L48,32L47,31L45,29L48,26L50,26L52,25L53,25L54,24L54,21L55,21Z" fill="#E0E0E0" stroke="#fff" stroke-width=".4"/><path d="M34,20L38,19L40,19L42,18L55,18L55,21L54,21L54,24L53,25L52,25L50,26L48,26L45,29L41,26L38,26L37,24L37,23L34,21Z" fill="#E0E0E0" stroke="#fff" stroke-width=".4"/><path d="M91,53L91,55L92,59L90,62L92,64L95,64L98,67L98,70L97,71L97,76L95,76L88,73L81,68L75,64L71,59L72,57L73,55L76,51L79,48L80,48L82,47L85,51L85,54L86,56L88,56L90,53Z" fill="#E0E0E0" stroke="#fff" stroke-width=".4"/><path d="M58,45L62,41L62,39L64,38L66,38L67,36L73,36L75,39L76,42L76,44L77,46L77,48L79,48L76,51L73,55L72,57L71,59L69,59L64,56L60,52L59,50Z" fill="#E0E0E0" stroke="#fff" stroke-width=".4"/><path d="M113,34L112,30L114,27L114,25L120,19L121,14L122,12L126,13L129,11L130,10L135,6L136,4L143,1L147,0L149,2L153,1L152,5L153,8L157,13L158,16L166,18L165,23L164,25L161,26L159,29L157,30L151,30L147,29L145,30L142,30L130,30L130,34L131,39L126,37L123,38L120,39L117,38L116,36Z" fill="#E0E0E0" stroke="#fff" stroke-width=".4"/><path d="M342,70L339,71L335,71L330,70L327,71L326,72L324,73L321,71L313,75L310,74L309,75L307,79L302,77L297,77L292,74L286,72L283,74L280,78L279,82L275,82L270,81L266,85L262,91L261,89L261,86L258,84L255,80L255,77L251,74L252,72L251,69L252,63L254,62L257,55L263,54L264,53L265,53L267,54L276,52L279,49L282,46L282,44L284,43L290,44L297,40L302,33L306,30L310,29L311,32L315,36L315,39L314,42L314,44L317,46L322,49L326,52L326,54L331,58L333,61L335,65L340,68Z" fill="#E0E0E0" stroke="#fff" stroke-width=".4"/><path d="M279,82L279,87L277,90L275,95L275,101L275,105L274,107L274,110L273,112L268,115L265,119L262,126L262,132L260,134L256,137L252,142L250,140L249,138L245,138L243,141L241,140L239,138L236,139L234,142L228,135L233,131L231,126L233,124L238,124L238,121L242,124L248,124L250,121L251,116L250,111L247,107L250,99L248,97L243,98L241,94L242,91L251,91L256,93L262,95L262,91L266,85L270,81L275,82Z" fill="#E0E0E0" stroke="#fff" stroke-width=".4"/><path d="M229,91L232,91L237,92L241,91L242,91L241,94L243,98L248,97L250,99L247,107L250,111L251,116L250,121L248,124L242,124L238,121L238,124L233,124L231,126L233,131L228,135L221,128L216,122L212,115L212,112L214,110L215,105L217,100L219,99L229,100Z" fill="#E0E0E0" stroke="#fff" stroke-width=".4"/><path d="M218,91L229,91L229,100L219,99L217,100L215,99Z" fill="#E0E0E0" stroke="#fff" stroke-width=".4"/><path d="M365,165L368,167L371,168L375,170L379,172L382,175L384,181L383,183L382,189L383,194L381,197L379,204L382,205L361,211L362,217L356,218L353,220L352,223L349,223L343,229L339,234L337,234L335,234L327,233L326,232L325,232L323,230L318,230L312,231L308,227L303,221L304,198L318,198L317,195L319,193L317,189L318,186L317,184L320,184L320,186L323,186L328,187L330,190L336,191L340,189L342,192L347,193L350,196L352,200L358,200L357,193L355,194L350,191L349,190L349,183L351,174L349,171L351,167L353,166L362,165Z" fill="#E0E0E0" stroke="#fff" stroke-width=".4"/><path d="M379,172L386,173L387,175L390,178L392,188L390,193L392,203L394,203L397,205L400,210L400,219L397,221L395,226L390,221L390,216L391,213L391,210L388,208L386,209L382,205L379,204L381,197L383,194L382,189L383,183L384,181L382,175Z" fill="#E0E0E0" stroke="#fff" stroke-width=".4"/><path d="M392,188L397,187L405,189L407,188L412,188L415,186L419,186L426,183L432,179L433,183L433,190L434,196L434,207L435,211L433,216L430,221L426,225L419,228L412,232L404,240L401,241L396,246L393,248L393,253L396,259L397,263L397,265L399,265L398,273L397,276L399,277L398,281L395,283L389,286L381,290L378,293L378,296L380,297L380,301L374,301L374,297L373,294L372,291L373,282L372,277L368,266L376,258L377,252L378,252L379,247L378,245L378,240L380,235L380,225L376,223L373,222L371,221L368,219L362,219L362,217L361,211L382,205L386,209L388,208L391,210L391,213L390,216L390,221L395,226L397,221L400,219L400,210L397,205L394,203L392,203L390,193Z" fill="#E0E0E0" stroke="#fff" stroke-width=".4"/><path d="M374,301L373,304L369,305L365,301L365,298L366,295L367,293L369,292L373,294L374,297Z" fill="#E0E0E0" stroke="#fff" stroke-width=".4"/><path d="M241,140L239,142L237,144L237,147L235,147L234,142L236,139L239,138ZM236,150L239,149L241,149L244,148L264,148L266,153L268,157L270,160L272,163L277,163L279,162L283,163L284,161L286,157L290,157L291,155L294,155L294,158L302,158L302,162L304,165L303,169L303,174L305,176L305,185L307,184L310,184L314,183L317,184L318,186L317,189L319,193L317,195L318,198L304,198L303,221L308,227L312,231L300,234L283,233L278,230L250,230L249,230L244,227L240,227L236,228L232,230L232,225L233,219L235,212L235,209L238,202L239,199L243,195L246,192L246,186L246,182L244,180L242,175L240,171L241,170L243,167L241,160L239,155L236,151Z" fill="#E0E0E0" stroke="#fff" stroke-width=".4"/><path d="M363,124L364,127L365,128L365,130L363,132L361,135L358,138L355,138L355,130L353,127L357,127L359,123Z" fill="#E0E0E0" stroke="#fff" stroke-width=".4"/><path d="M400,-135L399,-132L396,-134L395,-128L396,-127L395,-126L394,-124L398,-125L398,-122L394,-109L394,-111L390,-123L392,-125L391,-126L393,-130L394,-136L395,-138L396,-138L398,-138L399,-140L401,-140L401,-136L400,-135Z" fill="#E0E0E0" stroke="#fff" stroke-width=".4"/><path d="M401,-140L399,-140L398,-138L396,-138L398,-145L402,-151L402,-151L405,-151L406,-147L402,-144Z" fill="#E0E0E0" stroke="#fff" stroke-width=".4"/><path d="M496,195L498,198L500,202L501,211L503,214L502,218L501,220L499,216L497,218L499,223L498,226L496,228L496,234L493,243L489,253L485,267L482,278L479,287L474,289L467,292L463,290L458,287L456,283L455,276L453,270L452,265L454,259L457,258L457,256L460,250L461,245L459,242L458,237L457,230L460,226L461,222L464,221L468,220L471,219L474,219L478,214L483,210L486,206L485,203L488,204L491,199L492,195L494,192Z" fill="#E0E0E0" stroke="#fff" stroke-width=".4"/><path d="M398,-125L394,-124L395,-126L396,-127L395,-128L396,-134L399,-132L399,-127Z" fill="#E0E0E0" stroke="#fff" stroke-width=".4"/><path d="M34,11L41,11L43,9L45,9L48,11L50,11L52,10L54,12L51,13L48,13L45,12L42,13L41,13L39,14L33,14Z" fill="#E0E0E0" stroke="#fff" stroke-width=".4"/><path d="M217,-115L214,-130L209,-133L209,-135L204,-140L203,-147L207,-151L209,-158L208,-167L209,-171L217,-175L222,-173L221,-169L227,-172L228,-171L224,-166L224,-162L227,-160L226,-153L221,-149L223,-144L226,-144L228,-140L231,-139L230,-132L227,-130L225,-127L220,-124L221,-121L220,-117Z" fill="#E0E0E0" stroke="#fff" stroke-width=".4"/><path d="M90,-92L90,-94L90,-94L90,-104L101,-109L108,-111L114,-113L117,-117L125,-120L125,-126L129,-127L132,-130L141,-131L143,-134L141,-136L138,-145L138,-150L135,-156L142,-160L150,-162L154,-165L161,-168L172,-170L184,-170L188,-169L194,-172L202,-173L204,-170L209,-171L208,-167L209,-158L207,-151L203,-147L204,-140L209,-135L209,-133L214,-130L217,-115L219,-108L219,-104L218,-98L219,-94L218,-90L218,-85L215,-82L220,-76L220,-73L222,-69L226,-70L231,-67L234,-62L210,-47L190,-33L180,-29L172,-29L172,-33L169,-35L165,-37L163,-40L140,-57L116,-73Z" fill="#E0E0E0" stroke="#fff" stroke-width=".4"/><path d="M399,-132L400,-135L408,-132L421,-141L424,-130L423,-129L409,-125L416,-117L413,-116L412,-113L407,-112L405,-109L402,-106L394,-108L394,-109L398,-122L398,-125L399,-127Z" fill="#E0E0E0" stroke="#fff" stroke-width=".4"/><path d="M511,-68L512,-68L512,-66L517,-67L523,-67L527,-67L532,-72L537,-77L542,-82L543,-79L544,-73L541,-73L540,-68L541,-67L538,-65L538,-62L536,-59L536,-56L534,-54L513,-58L511,-66Z" fill="#E0E0E0" stroke="#fff" stroke-width=".4"/><path d="M505,-72L505,-77L507,-81L508,-82L511,-80L511,-75L509,-71L507,-70Z" fill="#E0E0E0" stroke="#fff" stroke-width=".4"/><path d="M485,-113L487,-109L486,-107L488,-101L483,-101L482,-105L476,-106L481,-113Z" fill="#E0E0E0" stroke="#fff" stroke-width=".4"/><path d="M424,-130L421,-141L437,-149L439,-160L439,-166L443,-168L446,-173L449,-175L457,-174L460,-171L463,-173L468,-163L472,-160L473,-155L469,-152L467,-145L472,-138L481,-133L484,-127L483,-121L486,-121L486,-116L489,-112L485,-113L481,-113L476,-106L463,-106L443,-122L432,-128Z" fill="#E0E0E0" stroke="#fff" stroke-width=".4"/><path d="M536,-56L536,-59L538,-62L538,-65L541,-67L540,-68L541,-73L544,-73L547,-68L551,-65L556,-64L560,-62L564,-58L565,-56L568,-55L568,-53L565,-48L564,-46L561,-44L559,-39L556,-39L554,-37L553,-34L554,-29L553,-28L550,-28L546,-25L545,-22L543,-20L539,-20L536,-18L536,-15L533,-13L529,-14L524,-11L521,-11L519,-16L513,-28L534,-36L539,-51ZM543,-79L542,-82L544,-84L545,-84L544,-80Z" fill="#E0E0E0" stroke="#fff" stroke-width=".4"/><path d="M867,21L865,13L869,7L878,5L885,6L891,9L894,4L900,7L902,12L901,20L889,26L892,30L885,30L879,33L873,32L870,29Z" fill="#E0E0E0" stroke="#fff" stroke-width=".4"/><path d="M885,6L878,5L869,7L865,13L867,21L860,18L854,18L855,12L849,12L849,20L845,31L843,37L843,42L848,42L851,49L852,55L856,59L860,60L864,63L861,66L857,67L856,64L850,60L849,62L846,59L845,56L841,52L838,48L837,52L836,48L836,44L838,37L842,30L846,23L843,17L843,13L842,9L838,4L836,0L838,-1L841,-8L838,-12L834,-18L830,-24L833,-25L836,-33L841,-34L845,-37L849,-39L852,-36L853,-32L857,-32L856,-24L856,-17L863,-22L865,-20L869,-21L871,-23L876,-23L881,-17L882,-9L888,-3L887,3Z" fill="#E0E0E0" stroke="#fff" stroke-width=".4"/><path d="M900,7L894,4L891,9L885,6L887,3L888,-3L882,-9L881,-17L876,-23L871,-23L869,-21L865,-20L863,-22L856,-17L856,-24L857,-32L853,-32L852,-36L849,-39L851,-42L857,-46L857,-45L861,-44L860,-53L864,-54L868,-48L871,-41L880,-41L882,-35L878,-33L876,-30L884,-26L890,-17L894,-11L900,-6L901,-0Z" fill="#E0E0E0" stroke="#fff" stroke-width=".4"/><path d="M849,-39L845,-37L841,-34L836,-33L833,-25L830,-24L834,-18L838,-12L841,-8L838,-1L836,0L838,4L842,9L843,13L843,17L846,23L842,30L838,37L838,32L840,27L838,22L838,14L835,11L833,2L832,-7L829,-13L824,-9L816,-4L812,-5L808,-7L810,-16L809,-22L803,-31L804,-34L800,-35L795,-41L795,-47L797,-46L797,-51L801,-53L800,-56L802,-58L802,-66L807,-65L811,-71L811,-75L815,-81L815,-86L824,-91L829,-90L828,-94L830,-96L830,-99L834,-100L836,-95L839,-93L840,-87L839,-81L833,-74L832,-65L839,-66L841,-59L845,-58L843,-51L848,-49L851,-47L857,-49L857,-46L851,-42Z" fill="#E0E0E0" stroke="#fff" stroke-width=".4"/><path d="M879,33L885,30L892,30L889,26L901,20L902,12L900,7L901,-0L900,-6L894,-11L890,-17L884,-26L876,-30L878,-33L882,-35L880,-41L871,-41L868,-48L864,-54L867,-56L873,-56L880,-57L886,-61L889,-58L895,-57L894,-52L898,-49L905,-47L895,-41L890,-34L888,-29L893,-21L900,-11L906,-7L911,-1L914,12L913,25L907,30L899,34L893,40L885,47L882,42L884,37Z" fill="#E0E0E0" stroke="#fff" stroke-width=".4"/><path d="M830,-99L830,-96L828,-94L829,-90L824,-91L815,-86L815,-81L811,-75L811,-71L807,-65L802,-66L802,-58L800,-56L801,-53L797,-51L794,-63L792,-63L791,-58L787,-62L789,-66L792,-67L795,-73L791,-75L785,-74L778,-76L778,-81L774,-81L769,-85L766,-79L771,-75L767,-72L765,-70L770,-68L768,-63L771,-57L772,-51L771,-48L766,-48L758,-47L758,-41L754,-37L744,-32L736,-23L731,-18L724,-14L724,-10L721,-9L714,-6L711,-6L709,-0L711,9L711,15L708,22L708,34L704,35L701,40L703,42L697,44L695,49L692,51L685,45L682,35L679,27L677,24L673,17L671,8L670,4L664,-6L661,-20L659,-30L659,-39L657,-46L647,-41L642,-42L633,-51L637,-54L635,-57L626,-63L631,-69L646,-68L645,-75L641,-79L640,-85L636,-89L643,-97L652,-96L659,-104L663,-113L670,-121L670,-127L676,-131L670,-135L668,-141L665,-148L669,-152L679,-150L687,-151L694,-158L701,-148L701,-142L703,-137L703,-133L698,-134L700,-125L707,-120L717,-114L712,-111L710,-103L716,-100L723,-96L732,-92L742,-91L746,-87L751,-86L759,-84L765,-84L766,-87L765,-92L766,-96L770,-98L770,-91L771,-90L777,-87L781,-88L787,-87L793,-88L793,-93L791,-95L796,-96L803,-102L811,-107L816,-105L821,-108L825,-103L822,-100Z" fill="#E0E0E0" stroke="#fff" stroke-width=".4"/><path d="M797,-51L797,-46L795,-47L795,-41L793,-45L793,-48L792,-52L789,-56L782,-57L783,-54L781,-49L778,-51L777,-50L775,-50L772,-51L771,-57L768,-63L770,-68L765,-70L767,-72L771,-75L766,-79L769,-85L774,-81L778,-81L778,-76L785,-74L791,-75L795,-73L792,-67L789,-66L787,-62L791,-58L792,-63L794,-63Z" fill="#E0E0E0" stroke="#fff" stroke-width=".4"/><path d="M791,-95L793,-93L793,-88L787,-87L781,-88L777,-87L771,-90L770,-91L775,-97L779,-99L784,-97L788,-97Z" fill="#E0E0E0" stroke="#fff" stroke-width=".4"/><path d="M766,-96L765,-92L766,-87L765,-84L759,-84L751,-86L746,-87L742,-91L732,-92L723,-96L716,-100L710,-103L712,-111L717,-114L720,-116L725,-114L732,-108L736,-107L738,-104L744,-102L750,-98L757,-97Z" fill="#E0E0E0" stroke="#fff" stroke-width=".4"/><path d="M694,-158L687,-151L679,-150L669,-152L665,-148L668,-141L670,-135L676,-131L670,-127L670,-121L663,-113L659,-104L652,-96L643,-97L636,-89L640,-85L641,-79L645,-75L646,-68L631,-69L626,-63L621,-65L619,-71L614,-77L601,-75L590,-75L580,-74L582,-83L592,-87L592,-91L589,-92L588,-99L582,-102L579,-107L575,-111L587,-107L594,-109L598,-108L600,-109L605,-109L614,-112L614,-119L618,-123L623,-123L624,-126L629,-127L632,-126L634,-128L634,-133L637,-138L641,-140L639,-146L645,-146L647,-149L647,-152L650,-156L650,-160L648,-163L652,-167L659,-169L668,-170L671,-172L675,-173L680,-169L682,-162Z" fill="#E0E0E0" stroke="#fff" stroke-width=".4"/><path d="M615,-175L619,-175L624,-173L626,-172L631,-174L633,-173L636,-177L640,-177L641,-178L642,-182L645,-185L649,-183L648,-180L650,-179L649,-172L652,-169L654,-171L658,-172L662,-176L667,-175L674,-175L675,-173L671,-172L668,-170L659,-169L652,-167L648,-163L650,-160L650,-156L647,-152L647,-149L645,-146L639,-146L641,-140L637,-138L634,-133L634,-128L632,-126L629,-127L624,-126L623,-123L618,-123L614,-119L614,-112L605,-109L600,-109L598,-108L594,-109L587,-107L575,-111L582,-119L581,-124L576,-125L575,-131L573,-137L576,-142L573,-143L575,-149L578,-160L585,-157L590,-158L592,-162L597,-163L601,-166L602,-172L608,-174L609,-177L613,-175Z" fill="#E0E0E0" stroke="#fff" stroke-width=".4"/><path d="M624,-173L628,-182L626,-188L621,-190L623,-194L629,-194L632,-199L634,-205L644,-207L642,-203L643,-200L646,-200L644,-198L636,-199L635,-194L643,-195L652,-192L665,-193L667,-185L669,-186L673,-184L673,-180L674,-175L667,-175L662,-176L658,-172L654,-171L652,-169L649,-172L650,-179L648,-180L649,-183L645,-185L642,-182L641,-178L640,-177L636,-177L633,-173L631,-174L626,-172Z" fill="#E0E0E0" stroke="#fff" stroke-width=".4"/><path d="M646,-219L647,-223L652,-225L663,-221L665,-227L669,-229L678,-225L681,-226L693,-226L703,-225L706,-221L711,-220L710,-218L699,-213L696,-209L687,-208L685,-202L677,-203L672,-202L666,-197L667,-195L665,-193L652,-192L643,-195L635,-194L636,-199L644,-198L646,-200L652,-200L660,-206L652,-211L647,-209L642,-212L648,-218Z" fill="#E0E0E0" stroke="#fff" stroke-width=".4"/><path d="M517,-215L520,-218L528,-220L533,-217L538,-210L541,-210L549,-210L548,-215L554,-218L560,-224L569,-219L570,-211L573,-209L580,-210L582,-208L586,-199L594,-192L598,-188L606,-184L615,-180L615,-175L613,-175L609,-177L608,-174L602,-172L601,-166L597,-163L592,-162L590,-158L585,-157L578,-160L577,-167L572,-167L564,-175L558,-176L551,-181L546,-181L543,-180L538,-180L533,-175L527,-173L526,-179L527,-189L521,-192L523,-198L518,-199L520,-206L526,-204L533,-207L527,-213L525,-218L520,-216L519,-209Z" fill="#E0E0E0" stroke="#fff" stroke-width=".4"/><path d="M489,-112L486,-116L486,-121L483,-121L484,-127L481,-133L472,-138L467,-145L469,-152L473,-155L472,-160L468,-163L463,-173L459,-180L461,-183L458,-193L463,-196L464,-192L468,-188L473,-187L475,-187L483,-194L486,-194L488,-192L486,-187L490,-183L492,-183L494,-177L501,-175L505,-170L515,-169L526,-171L527,-173L533,-175L538,-180L543,-180L546,-181L551,-181L558,-176L564,-175L572,-167L577,-167L578,-160L575,-149L573,-143L576,-142L573,-137L575,-131L576,-125L581,-124L582,-119L575,-111L579,-107L582,-102L588,-99L589,-92L592,-91L592,-87L582,-83L580,-74L567,-76L559,-78L551,-79L548,-89L545,-90L539,-89L532,-85L524,-88L517,-94L510,-96L505,-103L500,-114L497,-113L492,-115Z" fill="#E0E0E0" stroke="#fff" stroke-width=".4"/><path d="M400,-135L400,-135L401,-136L401,-140L402,-144L406,-147L405,-151L402,-151L401,-158L403,-161L405,-163L407,-165L407,-170L409,-168L417,-171L421,-169L426,-169L434,-172L438,-172L446,-173L443,-168L439,-166L439,-160L437,-149L421,-141L408,-132Z" fill="#E0E0E0" stroke="#fff" stroke-width=".4"/><path d="M475,-187L473,-187L470,-192L470,-193L467,-193L465,-196L463,-196L460,-198L455,-201L456,-205L455,-208L464,-210L466,-207L468,-206L467,-203L471,-200L469,-197L472,-195L475,-193Z" fill="#E0E0E0" stroke="#fff" stroke-width=".4"/><path d="M334,-157L333,-154L323,-154L323,-155L315,-157L316,-160L320,-157L325,-158L330,-157L330,-156ZM311,-211L316,-210L321,-213L326,-210L333,-210L333,-215L336,-213L334,-207L332,-206L328,-206L324,-207L316,-205L321,-199L317,-198L313,-198L310,-203L308,-201L310,-195L313,-191L311,-189L315,-185L318,-182L318,-177L312,-180L314,-175L309,-174L312,-166L307,-166L302,-170L299,-177L298,-183L295,-187L292,-192L291,-195L294,-199L295,-202L297,-204L297,-206L302,-207L304,-209L308,-209L309,-210Z" fill="#E0E0E0" stroke="#fff" stroke-width=".4"/><path d="M463,-173L460,-171L457,-174L449,-175L446,-173L438,-172L434,-172L426,-169L421,-169L417,-171L409,-168L407,-170L407,-165L405,-163L403,-161L400,-165L403,-168L399,-168L393,-170L388,-165L377,-164L372,-168L364,-169L363,-165L358,-164L351,-169L343,-169L339,-177L334,-182L338,-189L333,-193L341,-202L352,-202L355,-209L368,-208L376,-214L384,-217L396,-217L408,-211L418,-207L426,-208L432,-208L441,-212L448,-213L455,-208L456,-205L455,-201L460,-198L463,-196L458,-193L461,-183L459,-180ZM333,-215L340,-218L346,-217L347,-213L353,-210L352,-208L343,-207L340,-205L334,-200L332,-204L332,-206L334,-207L336,-213Z" fill="#E0E0E0" stroke="#fff" stroke-width=".4"/><path d="M297,-206L297,-204L295,-202L294,-199L291,-195L290,-195L290,-197L286,-201L285,-205L286,-211L287,-214L286,-216L285,-219L288,-223L289,-221L291,-222L292,-220L294,-219L294,-215L293,-212L294,-208Z" fill="#E0E0E0" stroke="#fff" stroke-width=".4"/><path d="M87,-216L90,-218L93,-219L94,-215L99,-215L100,-216L104,-216L106,-211L103,-208L103,-201L101,-200L101,-196L98,-195L101,-189L99,-184L101,-181L100,-179L98,-175L98,-172L96,-170L92,-171L88,-170L89,-177L89,-183L86,-183L84,-187L84,-193L87,-196L88,-200L89,-205L89,-209L88,-212Z" fill="#E0E0E0" stroke="#fff" stroke-width=".4"/><path d="M98,-172L98,-175L100,-179L101,-181L99,-184L101,-189L98,-195L101,-196L101,-200L103,-201L103,-208L106,-211L104,-216L100,-216L99,-215L94,-215L93,-219L90,-218L87,-216L88,-222L85,-226L95,-233L103,-232L113,-232L120,-230L126,-231L137,-230L140,-227L153,-222L155,-224L163,-220L171,-221L172,-216L165,-210L156,-208L155,-204L151,-199L148,-192L151,-187L147,-183L146,-177L140,-175L135,-169L127,-169L120,-169L116,-166L113,-162L109,-163L107,-166L105,-171Z" fill="#E0E0E0" stroke="#fff" stroke-width=".4"/><path d="M1181,419L1186,420L1186,431L1184,434L1183,442L1181,439L1176,446L1174,446L1170,445L1166,437L1165,431L1161,423L1161,419L1165,419L1172,423L1176,421ZM1031,345L1024,349L1018,351L1016,355L1014,359L1008,359L1003,360L997,358L992,359L987,359L983,364L981,364L978,366L974,369L969,368L965,368L957,363L953,361L954,356L957,355L958,353L958,350L959,345L958,340L954,331L953,327L954,322L951,317L951,315L947,312L947,305L943,299L942,296L945,299L942,292L946,294L948,297L948,293L944,287L944,285L942,283L943,278L944,276L945,272L944,268L947,263L948,268L951,263L956,261L960,257L965,255L968,254L970,255L976,252L980,251L981,250L983,249L987,249L994,247L998,244L1000,240L1004,236L1004,233L1004,229L1009,223L1012,229L1015,228L1013,224L1015,221L1018,222L1019,217L1023,213L1024,211L1028,209L1028,207L1031,208L1031,206L1034,205L1037,204L1043,208L1047,212L1051,212L1055,213L1054,209L1057,203L1060,201L1059,199L1062,195L1067,193L1070,193L1076,192L1076,188L1071,186L1074,185L1079,187L1083,190L1089,192L1091,191L1095,193L1099,191L1102,192L1103,190L1107,194L1105,198L1102,201L1100,201L1100,204L1098,207L1096,211L1096,213L1102,217L1107,219L1111,222L1116,226L1118,226L1122,228L1123,230L1129,233L1134,230L1135,226L1137,223L1138,219L1140,213L1139,210L1139,208L1138,203L1139,198L1141,197L1140,194L1141,190L1143,187L1143,184L1145,182L1147,185L1148,190L1150,191L1150,194L1152,197L1153,201L1153,204L1155,210L1160,207L1162,210L1165,213L1165,216L1166,222L1167,226L1169,227L1171,233L1170,237L1172,242L1180,246L1185,249L1190,252L1189,254L1193,259L1195,267L1198,265L1201,269L1203,267L1204,275L1209,280L1212,283L1218,289L1220,296L1220,300L1219,305L1223,312L1222,319L1221,322L1219,329L1219,334L1218,340L1215,347L1210,352L1207,358L1205,362L1203,370L1200,374L1198,380L1197,386L1198,389L1194,392L1186,392L1179,396L1176,400L1172,403L1166,399L1162,398L1163,393L1159,395L1153,401L1147,399L1143,397L1139,397L1132,394L1128,389L1126,382L1125,378L1121,374L1115,373L1117,369L1115,363L1112,369L1106,370L1109,366L1110,361L1113,357L1113,350L1107,357L1102,360L1100,367L1094,364L1095,359L1090,353L1087,350L1088,348L1079,343L1074,343L1067,339L1055,340L1046,342L1038,345Z" fill="#E0E0E0" stroke="#fff" stroke-width=".4"/><path d="M721,54L720,62L717,64L711,65L708,60L707,49L710,38L715,42L718,47Z" fill="#E0E0E0" stroke="#fff" stroke-width=".4"/><path d="M915,-22L909,-25L909,-31L912,-34L920,-36L924,-36L925,-33L922,-30L921,-26ZM711,-220L710,-225L715,-228L709,-245L723,-249L726,-251L731,-269L745,-266L749,-270L749,-281L755,-282L760,-289L763,-290L765,-282L771,-277L781,-273L786,-265L783,-253L785,-248L794,-247L803,-245L811,-239L816,-238L819,-229L823,-224L831,-224L845,-222L854,-223L861,-222L872,-216L880,-216L883,-213L891,-218L903,-221L913,-222L921,-225L926,-230L931,-233L930,-237L928,-240L931,-247L935,-246L943,-244L950,-249L960,-253L965,-260L970,-262L980,-264L986,-263L987,-266L980,-273L975,-277L969,-273L962,-275L958,-273L957,-277L962,-288L965,-296L973,-292L983,-299L983,-304L989,-316L993,-319L993,-325L989,-328L995,-334L1004,-336L1013,-336L1024,-333L1030,-329L1034,-317L1037,-312L1039,-305L1042,-295L1054,-291L1062,-284L1065,-274L1076,-274L1082,-278L1093,-281L1089,-272L1087,-268L1084,-257L1080,-247L1071,-249L1065,-245L1067,-237L1066,-226L1062,-225L1062,-220L1058,-226L1055,-221L1044,-217L1045,-212L1039,-212L1036,-215L1031,-208L1024,-203L1018,-198L1008,-195L1003,-191L996,-188L999,-192L998,-196L1003,-202L1000,-207L994,-204L986,-197L981,-191L975,-191L971,-187L975,-181L980,-179L981,-175L986,-173L994,-179L1000,-176L1005,-175L1006,-171L996,-168L993,-164L986,-159L982,-153L990,-149L993,-141L997,-133L1002,-127L1001,-120L997,-118L999,-114L1003,-111L1002,-105L1000,-99L996,-98L991,-89L985,-79L979,-70L969,-63L959,-57L952,-56L947,-52L945,-55L941,-51L931,-47L924,-46L921,-38L918,-38L916,-43L917,-46L908,-48L905,-47L898,-49L894,-52L895,-57L889,-58L886,-61L880,-57L873,-56L867,-56L864,-54L860,-53L861,-44L857,-45L857,-46L857,-49L851,-47L848,-49L843,-51L845,-58L841,-59L839,-66L832,-65L833,-74L839,-81L840,-87L839,-93L836,-95L834,-100L830,-99L822,-100L825,-103L821,-108L816,-105L811,-107L803,-102L796,-96L791,-95L788,-97L784,-97L779,-99L775,-97L770,-91L770,-98L766,-96L757,-97L750,-98L744,-102L738,-104L736,-107L732,-108L725,-114L720,-116L717,-114L707,-120L700,-125L698,-134L703,-133L703,-137L701,-142L701,-148L694,-158L682,-162L680,-169L675,-173L674,-175L673,-180L673,-184L669,-186L667,-185L665,-193L667,-195L666,-197L672,-202L677,-203L685,-202L687,-208L696,-209L699,-213L710,-218Z" fill="#E0E0E0" stroke="#fff" stroke-width=".4"/><path d="M1001,-69L996,-57L993,-50L990,-57L989,-62L993,-70L999,-76L1002,-73Z" fill="#E0E0E0" stroke="#fff" stroke-width=".4"/><path d="M223,-265L228,-263L228,-265L235,-267L237,-263L247,-261L246,-256L248,-252L242,-253L236,-249L237,-245L236,-242L238,-237L245,-232L248,-224L256,-216L262,-216L263,-214L261,-212L268,-209L273,-206L279,-202L279,-200L278,-197L274,-201L268,-202L265,-196L270,-193L269,-188L267,-188L263,-180L260,-179L260,-182L261,-187L263,-189L260,-194L258,-199L255,-200L253,-204L249,-205L246,-209L240,-210L235,-214L229,-220L224,-226L222,-235L218,-236L212,-239L209,-238L205,-234L202,-233L203,-237L199,-238L198,-246L200,-249L198,-253L198,-256L201,-253L205,-254L208,-257L210,-256L213,-256L215,-260L220,-259L223,-260ZM253,-182L259,-182L256,-175L257,-173L256,-168L250,-171L247,-172L237,-177L238,-181L246,-181ZM211,-207L215,-209L219,-203L218,-191L215,-191L212,-188L209,-191L209,-202L207,-207Z" fill="#E0E0E0" stroke="#fff" stroke-width=".4"/><path d="M474,-215L476,-215L481,-209L484,-209L485,-211L490,-215L493,-210L497,-203L500,-203L502,-201L496,-200L495,-193L494,-190L492,-188L492,-183L490,-183L486,-187L488,-192L486,-194L483,-194L475,-187L475,-193L472,-195L469,-197L471,-200L467,-203L468,-206L466,-207L464,-210L466,-211L471,-209L475,-208L476,-209L473,-214ZM473,-187L468,-188L464,-192L463,-196L465,-196L467,-193L470,-193L470,-192Z" fill="#E0E0E0" stroke="#fff" stroke-width=".4"/><path d="M994,17L990,12L996,12L999,15L997,21ZM1006,37L1008,35L1009,30L1013,30L1011,35L1017,28L1016,35L1013,37L1011,42L1009,44L1005,39ZM1033,48L1033,53L1034,57L1031,63L1029,56L1026,59L1028,65L1026,68L1018,64L1016,59L1018,55L1013,52L1011,55L1008,55L1003,59L1002,57L1004,51L1009,49L1013,46L1015,49L1020,47L1021,44L1026,44L1026,38L1032,42L1032,45ZM978,42L968,48L972,43L977,39L981,34L985,27L986,33L981,37ZM1005,-23L1003,-19L1006,-14L1004,-8L1000,-6L999,0L1000,6L1004,7L1007,6L1016,10L1015,14L1017,15L1017,19L1011,15L1009,11L1007,14L1002,10L996,11L993,9L993,6L995,4L993,3L992,5L989,1L988,-2L987,-9L990,-7L991,-18L993,-25L997,-25L1002,-22L1004,-24ZM1002,27L1001,23L1006,25L1010,25L1010,28L1007,31L1002,34L1002,30ZM1027,21L1029,29L1023,27L1023,30L1025,34L1022,36L1021,31L1019,30L1018,26L1022,27L1022,24L1018,19L1025,19Z" fill="#E0E0E0" stroke="#fff" stroke-width=".4"/><path d="M849,62L850,60L856,64L857,67L861,66L864,63L865,64L869,68L872,73L873,78L872,81L873,83L873,87L875,89L878,96L878,98L873,98L867,93L858,88L857,84L853,79L852,74L850,70L851,65ZM973,78L967,77L959,77L957,85L954,87L951,97L945,98L938,96L935,97L931,101L926,100L922,102L917,98L916,93L921,95L927,94L928,88L931,87L939,85L944,80L948,75L951,79L952,77L956,77L956,72L956,69L962,64L965,58L968,58L972,62L972,65L977,67L982,69L982,72L977,72L979,76Z" fill="#E0E0E0" stroke="#fff" stroke-width=".4"/><path d="M956,69L956,72L956,77L952,77L951,79L948,75L950,73Z" fill="#E0E0E0" stroke="#fff" stroke-width=".4"/><path d="M405,5L404,2L407,-8L408,-13L410,-15L415,-17L419,-21L423,-12L425,-6L428,-2L438,5L442,9L446,13L448,15L451,18L449,19L446,19L444,16L441,12L438,10L436,7L430,4L425,4L423,3L419,5L415,1L413,7Z" fill="#E0E0E0" stroke="#fff" stroke-width=".4"/><path d="M513,-28L519,-16L521,-11L516,-9L515,-6L515,-3L508,-0L497,3L490,8L487,9L485,8L481,11L477,13L471,13L469,13L467,15L466,16L464,18L461,17L459,18L454,18L452,14L452,10L451,8L450,2L448,-1L449,-1L449,-4L449,-6L449,-9L452,-11L451,-14L453,-18L456,-16L458,-17L466,-17L467,-16L474,-15L477,-16L479,-13L482,-14L487,-22L493,-25Z" fill="#E0E0E0" stroke="#fff" stroke-width=".4"/><path d="M394,-108L402,-106L405,-109L407,-112L412,-113L413,-116L416,-117L409,-125L423,-129L424,-130L432,-128L443,-122L463,-106L476,-106L482,-105L483,-101L488,-101L491,-94L495,-93L496,-90L501,-87L501,-83L500,-81L501,-78L503,-76L504,-73L505,-72L507,-70L509,-71L511,-68L511,-66L513,-58L534,-54L536,-56L539,-51L534,-36L513,-28L493,-25L487,-22L482,-14L479,-13L477,-16L474,-15L467,-16L466,-17L458,-17L456,-16L453,-18L451,-14L452,-11L449,-9L448,-12L446,-14L446,-17L442,-20L438,-26L436,-32L431,-37L428,-38L424,-45L423,-50L423,-55L419,-63L416,-66L412,-68L410,-72L410,-74L408,-78L406,-80L403,-86L399,-92L396,-97L392,-97L393,-102L394,-104Z" fill="#E0E0E0" stroke="#fff" stroke-width=".4"/><path d="M379,-155L379,-155L380,-158L385,-157L392,-160L387,-156L388,-155L387,-155L386,-154L384,-155L384,-154L384,-155L383,-156L382,-156L380,-155Z" fill="#E0E0E0" stroke="#fff" stroke-width=".4"/><path d="M379,-155L380,-155L382,-156L383,-156L384,-155L384,-154L384,-155L386,-154L387,-155L388,-155L388,-154L381,-151L377,-152L376,-155Z" fill="#E0E0E0" stroke="#fff" stroke-width=".4"/><path d="M135,-156L138,-150L138,-145L141,-136L143,-134L141,-131L132,-130L129,-127L125,-126L125,-120L117,-117L114,-113L108,-111L101,-109L90,-104L90,-94L89,-94L89,-90L85,-90L82,-88L79,-88L77,-89L71,-88L69,-82L66,-81L63,-72L53,-63L51,-53L48,-50L47,-47L32,-46L32,-46L32,-50L35,-52L37,-56L36,-58L39,-64L43,-69L45,-70L47,-74L47,-78L50,-83L54,-86L59,-94L59,-94L62,-97L69,-98L74,-103L78,-106L84,-112L82,-122L85,-129L85,-134L90,-139L97,-143L102,-147L107,-155L109,-161L114,-161L118,-157L125,-158L132,-156Z" fill="#E0E0E0" stroke="#fff" stroke-width=".4"/><path d="M408,-51L380,-51L353,-51L325,-51L325,-79L325,-107L323,-113L325,-118L324,-122L326,-126L335,-126L342,-124L349,-121L352,-120L358,-122L361,-125L367,-125L372,-124L374,-120L375,-123L381,-121L386,-121L390,-123L394,-111L394,-109L392,-106L391,-100L389,-95L387,-94L385,-97L382,-100L377,-112L376,-111L379,-102L383,-94L389,-82L391,-78L393,-74L400,-65L398,-64L398,-59L407,-52Z" fill="#E0E0E0" stroke="#fff" stroke-width=".4"/><path d="M325,-51L325,-36L317,-36L317,-33L289,-47L261,-61L254,-57L249,-54L245,-58L234,-62L231,-67L226,-70L222,-69L220,-73L220,-76L215,-82L218,-85L218,-90L219,-94L218,-98L219,-104L219,-108L217,-115L220,-117L221,-121L220,-124L225,-127L227,-130L230,-132L231,-139L239,-136L242,-136L248,-135L257,-131L260,-124L266,-122L276,-119L284,-115L287,-117L290,-121L289,-127L291,-131L296,-135L301,-136L310,-134L313,-131L315,-131L317,-129L324,-128L326,-126L324,-122L325,-118L323,-113L325,-107L325,-79Z" fill="#E0E0E0" stroke="#fff" stroke-width=".4"/><path d="M484,51L464,72L455,72L449,77L445,77L443,80L438,80L435,77L429,80L427,83L422,82L420,82L419,82L417,82L408,76L403,76L400,74L400,70L397,68L393,61L390,59L388,56L385,53L380,52L383,48L387,48L388,46L388,40L390,32L393,30L394,27L397,22L401,18L404,11L405,5L413,7L415,1L419,5L423,3L425,4L430,4L436,7L438,10L441,12L444,16L446,19L444,22L441,25L442,27L442,29L446,29L448,29L449,30L448,33L450,37L453,40L455,43L478,51Z" fill="#E0E0E0" stroke="#fff" stroke-width=".4"/><path d="M446,19L449,19L451,18L453,20L453,23L449,24L452,26L449,30L448,29L446,29L442,29L442,27L441,25L444,22Z" fill="#E0E0E0" stroke="#fff" stroke-width=".4"/><path d="M492,27L492,27L492,30L492,37L492,41L489,45L484,51L478,51L455,43L453,40L450,37L448,33L449,30L452,26L454,28L455,31L458,34L462,34L468,32L476,31L482,29L486,28L488,27Z" fill="#E0E0E0" stroke="#fff" stroke-width=".4"/><path d="M387,114L373,114L365,114L363,115L359,117L357,116L357,111L359,108L359,103L360,99L363,96L366,94L368,92L365,91L366,82L369,80L373,82L379,80L384,80L388,77L391,82L392,86L395,94L392,99L389,103L387,106Z" fill="#E0E0E0" stroke="#fff" stroke-width=".4"/><path d="M363,115L366,119L365,123L363,124L359,123L357,127L353,127L354,123L355,122L355,118L357,116L359,117Z" fill="#E0E0E0" stroke="#fff" stroke-width=".4"/><path d="M366,82L360,78L358,75L354,76L351,76L349,77L346,76L342,70L340,68L335,65L333,61L331,58L326,54L326,52L322,49L317,47L319,46L322,44L324,38L325,35L330,34L332,36L335,40L337,41L340,39L345,40L346,41L353,41L353,40L356,38L357,36L360,35L366,39L369,38L373,33L377,29L376,25L374,23L379,22L379,21L382,21L381,27L382,32L386,34L387,37L387,40L388,41L388,46L387,48L383,48L380,52L385,53L388,56L390,59L393,61L397,68L392,73L388,77L384,80L379,80L373,82L369,80Z" fill="#E0E0E0" stroke="#fff" stroke-width=".4"/></g><g clip-path="url(#v)"></g><circle cx="400.0" cy="150.0" r="4" fill="#E74C3C" stroke="#fff" stroke-width="2"/><text x="400.0" y="140.0" text-anchor="middle" font-family="sans-serif" font-weight="700" font-size="10" fill="#2D3436">Dodoma</text></svg>