<svg viewBox="0 0 800 300" xmlns="http://www.w3.org/2000/svg"><defs><clipPath id="v"><rect width="800" height="300"/></clipPath></defs><rect width="800" height="300" fill="#DCEEF8"/><g clip-path="url(#v)"><path d="M428,177L431,180L508,223L509,235L540,256L530,282L531,294L545,302L545,307L539,320L541,327L539,337L547,350L555,371L563,376L546,388L523,397L511,396L503,403L488,403L483,406L458,400L442,402L436,373L429,363L424,357L404,353L392,346L378,343L370,339L361,334L350,307L338,295L333,283L336,272L332,252L340,251L348,244L356,233L362,228L361,221L357,217L356,208L362,206L363,193L354,181L362,179L385,179Z" fill="#E0E0E0" stroke="#fff" stroke-width=".4"/><path d="M332,252L336,272L333,283L338,295L350,307L361,334L353,332L325,335L319,338L313,351L318,361L314,386L311,408L317,411L332,420L338,416L339,439L323,439L315,427L307,418L291,415L286,404L273,410L256,407L249,398L236,396L226,396L225,390L217,389L208,388L195,391L186,390L180,392L182,367L175,359L173,346L176,333L172,325L171,311L146,312L148,304L137,304L136,308L123,309L117,321L114,326L103,323L96,326L82,328L74,317L69,310L63,297L58,281L-5,281L-12,284L-18,283L-27,286L-30,280L-24,277L-24,268L-20,263L-13,258L-7,260L0,252L12,252L13,258L21,262L33,249L45,239L51,232L50,215L59,194L69,183L83,173L85,166L86,159L89,151L88,139L91,121L95,108L101,96L102,84L104,69L112,58L124,51L141,58L155,66L170,68L186,72L192,60L195,58L204,60L228,50L236,54L243,53L246,48L254,46L270,49L283,49L290,47L303,64L313,67L318,63L328,65L340,60L345,69L363,83L362,108L370,111L364,118L356,124L347,135L343,145L342,162L337,170L337,186L331,192L330,204L327,206L325,217L330,227Z" fill="#E0E0E0" stroke="#fff" stroke-width=".4"/><path d="M590,193L577,175L577,99L595,75L601,68L615,68L633,53L661,52L720,-12L735,-30L745,-43L745,-54L745,-75L745,-84L745,-85L752,-85L761,-88L772,-90L782,-98L790,-98L791,-92L789,-79L789,-68L785,-60L779,-37L768,-13L755,14L737,45L719,68L695,97L674,114L642,135L622,151L599,177L594,188Z" fill="#E0E0E0" stroke="#fff" stroke-width=".4"/><path d="M540,256L509,235L508,223L431,180L428,177L428,155L434,147L444,133L452,117L442,93L440,82L430,68L443,55L457,41L468,45L468,57L475,64L490,64L517,82L523,82L528,81L533,84L547,85L553,76L573,68L581,75L595,75L577,99L577,175L590,193L575,201L570,210L562,212L559,226L552,235L548,249Z" fill="#E0E0E0" stroke="#fff" stroke-width=".4"/><path d="M231,-17L215,-26L208,-32L207,-39L210,-48L210,-56L198,-70L195,-79L196,-84L188,-90L188,-103L183,-111L176,-110L178,-118L183,-127L181,-136L188,-143L184,-148L189,-161L199,-177L217,-176L216,-263L216,-273L240,-273L240,-318L325,-318L407,-318L490,-318L497,-296L492,-292L496,-268L503,-242L511,-236L523,-228L512,-216L497,-212L490,-205L488,-191L479,-158L481,-150L478,-131L469,-110L456,-99L447,-83L445,-74L435,-68L429,-45L429,-26L429,-43L426,-43L427,-54L424,-61L413,-70L411,-85L413,-101L403,-103L402,-98L389,-97L394,-90L396,-78L385,-66L374,-50L363,-48L346,-61L338,-56L335,-50L325,-46L324,-41L303,-41L300,-46L285,-47L277,-43L271,-45L261,-57L257,-63L242,-60L236,-50L231,-31L223,-27L217,-25Z" fill="#E0E0E0" stroke="#fff" stroke-width=".4"/><path d="M216,-263L217,-176L199,-177L189,-161L184,-148L188,-143L181,-136L183,-127L178,-118L176,-110L183,-111L188,-103L188,-90L196,-84L195,-79L182,-75L171,-67L156,-43L136,-33L116,-35L110,-33L112,-25L101,-18L92,-9L66,-1L60,-6L57,-6L53,-1L36,1L39,-5L32,-20L29,-29L20,-32L8,-45L12,-55L22,-53L28,-54L40,-54L28,-73L29,-88L27,-102L19,-116L21,-126L8,-127L8,-140L-1,-149L8,-177L35,-198L36,-227L44,-272L49,-281L40,-289L40,-296L32,-302L27,-338L48,-350L132,-306Z" fill="#E0E0E0" stroke="#fff" stroke-width=".4"/><path d="M-1375,70L-1387,89L-1393,105L-1402,113L-1412,114L-1415,108L-1419,107L-1426,113L-1435,109L-1430,100L-1428,90L-1424,81L-1432,69L-1434,54L-1423,36L-1416,38L-1400,43L-1378,61ZM-156,-1045L-146,-1037L-116,-1031L-126,-1009L-129,-986L-135,-981L-144,-984L-144,-976L-159,-959L-159,-945L-149,-950L-142,-936L-143,-928L-137,-916L-144,-907L-139,-884L-127,-881L-130,-868L-149,-852L-190,-859L-221,-850L-223,-833L-248,-829L-272,-842L-279,-836L-318,-849L-326,-860L-315,-878L-311,-937L-333,-969L-349,-985L-381,-997L-383,-1020L-356,-1027L-320,-1019L-327,-1055L-307,-1041L-258,-1067L-252,-1094L-233,-1101L-230,-1089L-221,-1088L-211,-1075L-196,-1059L-185,-1062L-167,-1047L-162,-1044ZM-102,-837L-89,-848L-85,-824L-92,-802L-101,-808L-106,-827Z" fill="#E0E0E0" stroke="#fff" stroke-width=".4"/><path d="M371,638L360,636L352,639L342,635L334,635L320,624L304,621L298,607L298,599L289,596L265,572L258,559L254,555L246,537L269,540L276,542L283,542L295,527L313,509L321,507L323,500L336,491L351,488L353,496L370,496L380,500L385,506L395,507L406,515L406,543L402,558L401,575L404,581L402,594L399,596L393,613Z" fill="#E0E0E0" stroke="#fff" stroke-width=".4"/><path d="M-529,-107L-528,-114L-530,-122L-538,-128L-542,-140L-543,-154L-536,-158L-532,-171L-525,-171L-511,-165L-499,-169L-491,-168L-487,-173L-403,-173L-398,-189L-402,-191L-412,-287L-422,-386L-390,-386L-319,-336L-248,-286L-243,-276L-230,-270L-220,-266L-220,-252L-196,-254L-196,-203L-208,-188L-210,-175L-228,-171L-257,-169L-265,-162L-278,-161L-292,-161L-297,-165L-309,-162L-328,-153L-332,-146L-349,-136L-352,-131L-361,-126L-371,-129L-376,-124L-380,-109L-396,-91L-396,-84L-402,-75L-400,-62L-409,-59L-414,-56L-417,-66L-423,-63L-427,-64L-431,-57L-447,-58L-453,-61L-455,-59L-462,-65L-461,-71L-463,-74L-468,-72L-467,-79L-463,-84L-471,-93L-474,-99L-479,-104L-483,-104L-488,-101L-495,-99L-500,-94L-509,-96L-515,-101L-519,-102L-524,-99L-528,-99Z" fill="#E0E0E0" stroke="#fff" stroke-width=".4"/><path d="M27,-338L32,-302L40,-296L40,-289L49,-281L44,-272L36,-227L35,-198L8,-177L-1,-149L8,-140L8,-127L21,-126L19,-116L13,-115L12,-108L8,-107L-6,-131L-11,-132L-27,-120L-43,-126L-55,-127L-61,-124L-73,-125L-86,-116L-96,-115L-122,-126L-132,-121L-143,-121L-151,-130L-172,-138L-194,-135L-200,-130L-203,-118L-209,-109L-210,-90L-226,-102L-234,-102L-241,-96L-240,-111L-265,-116L-265,-126L-277,-140L-280,-150L-278,-161L-265,-162L-257,-169L-228,-171L-210,-175L-208,-188L-196,-203L-196,-254L-167,-264L-106,-308L-34,-352L-0,-342L12,-329Z" fill="#E0E0E0" stroke="#fff" stroke-width=".4"/><path d="M-230,25L-228,-9L-229,-23L-225,-36L-218,-42L-208,-56L-210,-61L-206,-70L-211,-83L-210,-90L-209,-109L-203,-118L-200,-130L-194,-135L-172,-138L-151,-130L-143,-121L-132,-121L-122,-126L-96,-115L-86,-116L-73,-125L-61,-124L-55,-127L-43,-126L-27,-120L-11,-132L-6,-131L8,-107L12,-108L21,-99L18,-95L17,-88L-0,-71L-6,-58L-9,-47L-13,-42L-18,-27L-29,-18L-32,-7L-37,1L-39,10L-53,17L-65,8L-73,9L-86,21L-92,21L-102,42L-107,57L-129,64L-137,63L-145,68L-162,67L-173,54L-180,39L-195,25L-211,25Z" fill="#E0E0E0" stroke="#fff" stroke-width=".4"/><path d="M19,-116L27,-102L29,-88L28,-73L40,-54L28,-54L22,-53L12,-55L8,-45L20,-32L29,-29L32,-20L39,-5L36,1L25,22L20,26L18,42L20,51L19,58L29,69L30,76L38,87L48,94L49,103L51,110L49,121L33,116L16,110L-11,110L-14,108L-26,111L-39,108L-49,110L-83,109L-80,93L-88,79L-98,75L-102,66L-108,63L-107,57L-102,42L-92,21L-86,21L-73,9L-65,8L-53,17L-39,10L-37,1L-32,-7L-29,-18L-18,-27L-13,-42L-9,-47L-6,-58L-0,-71L17,-88L18,-95L21,-99L12,-108L13,-115Z" fill="#E0E0E0" stroke="#fff" stroke-width=".4"/><path d="M290,47L283,49L270,49L254,46L246,48L243,53L236,54L228,50L204,60L195,58L192,60L186,72L170,68L155,66L141,58L124,51L112,58L104,69L102,84L89,82L75,79L62,90L51,110L49,103L48,94L38,87L30,76L29,69L19,58L20,51L18,42L20,26L25,22L36,1L53,-1L57,-6L60,-6L66,-1L92,-9L101,-18L112,-25L110,-33L116,-35L136,-33L156,-43L171,-67L182,-75L195,-79L198,-70L210,-56L210,-48L207,-39L208,-32L215,-26L231,-17L243,-8L243,-1L257,10L266,19L271,32L287,40Z" fill="#E0E0E0" stroke="#fff" stroke-width=".4"/><path d="M102,84L101,96L95,108L91,121L88,139L89,151L86,159L85,166L83,173L69,183L59,194L50,215L51,232L45,239L33,249L21,262L13,258L12,252L0,252L-7,260L-13,258L-20,251L-27,255L-35,264L-53,241L-37,230L-45,216L-37,210L-23,208L-21,198L-10,209L8,209L15,199L18,185L15,169L5,157L14,132L9,128L-7,130L-12,119L-11,110L16,110L33,116L49,121L51,110L62,90L75,79L89,82Z" fill="#E0E0E0" stroke="#fff" stroke-width=".4"/><path d="M-49,110L-39,108L-26,111L-14,108L-11,110L-12,119L-7,130L9,128L14,132L5,157L15,169L18,185L15,199L8,209L-10,209L-21,198L-23,208L-37,210L-45,216L-37,230L-53,241L-74,220L-88,203L-101,181L-100,174L-96,167L-91,152L-86,136L-79,135L-49,135Z" fill="#E0E0E0" stroke="#fff" stroke-width=".4"/><path d="M-83,109L-49,110L-49,135L-79,135L-86,136L-90,133Z" fill="#E0E0E0" stroke="#fff" stroke-width=".4"/><path d="M361,334L370,339L378,343L392,346L404,353L414,362L419,380L416,386L411,404L415,421L409,429L402,449L413,455L349,473L351,488L336,491L323,500L321,507L313,509L295,527L283,542L276,542L269,540L246,537L242,535L242,534L234,529L220,527L203,532L189,519L175,501L176,431L220,432L218,424L221,416L217,406L220,396L217,389L225,390L226,396L236,396L249,398L256,407L273,410L286,404L291,415L307,418L315,427L323,439L339,439L338,416L332,420L317,411L311,408L314,386L318,361L313,351L319,338L325,335L353,332Z" fill="#E0E0E0" stroke="#fff" stroke-width=".4"/><path d="M404,353L424,357L429,363L436,373L442,402L436,418L442,446L449,446L457,453L465,469L467,497L458,501L452,516L438,503L436,487L441,477L440,469L431,463L425,465L413,455L402,449L409,429L415,421L411,404L416,386L419,380L414,362Z" fill="#E0E0E0" stroke="#fff" stroke-width=".4"/><path d="M442,402L458,400L483,406L488,403L503,403L511,396L523,397L546,388L563,376L566,386L566,407L568,426L569,460L573,470L566,486L558,501L545,515L525,523L502,534L478,558L470,562L455,578L446,583L445,599L455,616L459,629L459,636L463,635L462,657L459,668L464,672L461,681L452,689L434,697L409,710L400,719L402,728L407,730L405,742L389,742L387,732L384,721L383,713L386,687L381,671L371,638L393,613L399,596L402,594L404,581L401,575L402,558L406,543L406,515L395,507L385,506L380,500L370,496L353,496L351,488L349,473L413,455L425,465L431,463L440,469L441,477L436,487L438,503L452,516L458,501L467,497L465,469L457,453L449,446L442,446L436,418Z" fill="#E0E0E0" stroke="#fff" stroke-width=".4"/><path d="M-13,258L-20,263L-24,268L-24,277L-30,280L-35,264L-27,255L-20,251ZM-27,286L-18,283L-12,284L-5,281L58,281L63,297L69,310L74,317L82,328L96,326L103,323L114,326L117,321L123,309L136,308L137,304L148,304L146,312L171,311L172,325L176,333L173,346L175,359L182,367L180,392L186,390L195,391L208,388L217,389L220,396L217,406L221,416L218,424L220,432L176,431L175,501L189,519L203,532L164,541L113,538L98,528L13,529L10,530L-3,520L-16,520L-29,523L-39,528L-41,514L-38,494L-31,474L-30,465L-23,445L-18,437L-6,422L1,413L3,397L2,385L-4,377L-10,364L-15,351L-14,347L-8,338L-14,318L-18,304L-29,290Z" fill="#E0E0E0" stroke="#fff" stroke-width=".4"/><path d="M356,208L357,217L361,221L362,228L356,233L348,244L340,251L332,252L330,227L325,217L338,219L344,207Z" fill="#E0E0E0" stroke="#fff" stroke-width=".4"/><path d="M757,422L763,431L768,446L772,472L777,482L775,492L771,499L764,486L760,493L764,509L762,518L756,523L755,542L747,568L736,599L723,642L715,673L706,700L689,706L670,716L658,710L641,701L636,689L634,669L627,650L625,634L629,618L638,614L638,606L648,589L650,575L645,564L642,550L640,530L647,518L650,504L660,503L672,498L680,494L689,494L701,482L719,468L725,457L722,448L731,451L743,436L743,423L750,413Z" fill="#E0E0E0" stroke="#fff" stroke-width=".4"/><path d="M877,-334L877,-343L883,-353L883,-362L893,-367L889,-370L891,-385L902,-385L911,-369L923,-361L938,-358L951,-354L960,-341L966,-333L974,-330L974,-325L966,-311L963,-305L954,-298L946,-282L936,-284L932,-278L928,-267L931,-252L929,-249L919,-249L906,-241L904,-230L899,-225L886,-226L878,-220L878,-211L868,-205L856,-207L842,-200L832,-198L826,-214L809,-250L872,-273L886,-318ZM899,-403L895,-411L901,-419L904,-417L902,-408Z" fill="#E0E0E0" stroke="#fff" stroke-width=".4"/><path d="M481,-150L479,-158L488,-191L490,-205L497,-212L512,-216L523,-228L535,-203L541,-182L552,-172L581,-151L593,-139L604,-126L611,-119L621,-112L615,-107L606,-109L599,-116L590,-129L581,-136L575,-143L557,-152L542,-152L537,-157L525,-152L512,-161L506,-145Z" fill="#E0E0E0" stroke="#fff" stroke-width=".4"/><path d="M809,-250L826,-214L832,-198L817,-193L813,-183L813,-175L792,-166L758,-156L739,-141L730,-139L724,-141L711,-132L698,-127L680,-126L675,-125L670,-119L665,-118L661,-112L651,-113L644,-110L630,-111L624,-124L625,-135L621,-142L617,-158L611,-167L615,-168L613,-178L616,-182L615,-192L624,-199L622,-208L628,-219L636,-213L642,-215L666,-216L670,-213L690,-211L698,-212L704,-205L714,-209L729,-232L748,-242Z" fill="#E0E0E0" stroke="#fff" stroke-width=".4"/><path d="M450,-490L474,-486L483,-494L488,-502L504,-506L507,-514L514,-518L493,-543L535,-555L539,-559L565,-552L596,-535L656,-486L695,-484L713,-481L719,-470L734,-471L742,-450L752,-445L756,-436L770,-426L771,-417L769,-409L772,-401L778,-394L781,-387L784,-381L790,-377L796,-378L800,-369L801,-364L809,-341L872,-329L877,-334L886,-318L872,-273L809,-250L748,-242L729,-232L714,-209L704,-205L698,-212L690,-211L670,-213L666,-216L642,-215L636,-213L628,-219L622,-208L624,-199L615,-192L612,-201L606,-208L604,-217L593,-225L582,-243L576,-261L562,-277L552,-280L538,-302L536,-318L537,-331L525,-356L515,-366L503,-370L496,-384L497,-389L492,-401L486,-406L477,-424L464,-443L454,-459L443,-459L447,-472L447,-480Z" fill="#E0E0E0" stroke="#fff" stroke-width=".4"/><path d="M720,-12L661,52L633,53L615,68L601,68L595,75L581,75L573,68L553,76L547,85L533,84L528,81L523,82L517,82L490,64L475,64L468,57L468,45L457,41L445,18L435,13L432,5L421,-6L408,-7L415,-19L426,-20L429,-26L429,-45L435,-68L445,-74L447,-83L456,-99L469,-110L478,-131L481,-150L506,-145L512,-161L525,-152L537,-157L542,-152L557,-152L575,-143L581,-136L590,-129L599,-116L606,-109L598,-99L591,-89L593,-83L593,-77L605,-77L610,-78L615,-74L610,-67L618,-55L626,-45L634,-37L703,-12Z" fill="#E0E0E0" stroke="#fff" stroke-width=".4"/><path d="M606,-109L615,-107L621,-112L626,-106L626,-97L614,-92L623,-86L615,-74L610,-78L605,-77L593,-77L593,-83L591,-89L598,-99Z" fill="#E0E0E0" stroke="#fff" stroke-width=".4"/><path d="M745,-85L745,-84L745,-75L745,-54L745,-43L735,-30L720,-12L703,-12L634,-37L626,-45L618,-55L610,-67L615,-74L623,-86L629,-82L634,-73L643,-64L653,-64L673,-69L696,-72L715,-79L725,-80L733,-84Z" fill="#E0E0E0" stroke="#fff" stroke-width=".4"/><path d="M354,181L363,193L362,206L356,208L344,207L338,219L325,217L327,206L330,204L331,192L337,186L342,188Z" fill="#E0E0E0" stroke="#fff" stroke-width=".4"/><path d="M363,83L345,69L340,60L328,65L318,63L313,67L303,64L290,47L287,40L271,32L266,19L257,10L243,-1L243,-8L231,-17L217,-25L223,-27L231,-31L236,-50L242,-60L257,-63L261,-57L271,-45L277,-43L285,-47L300,-46L303,-41L324,-41L325,-46L335,-50L338,-56L346,-61L363,-48L374,-50L385,-66L396,-78L394,-90L389,-97L402,-98L403,-103L413,-101L411,-85L413,-70L424,-61L427,-54L426,-43L429,-43L429,-26L426,-20L415,-19L408,-7L421,-6L432,5L435,13L445,18L457,41L443,55L430,68L417,77L402,77L385,82L372,78Z" fill="#E0E0E0" stroke="#fff" stroke-width=".4"/></g><g clip-path="url(#v)"><path d="M427.9,178.5L425.6,178.5L421.8,178.5L418.1,178.5L414.4,178.5L410.6,178.5L406.9,178.5L403.1,178.5L399.4,178.5L395.6,178.5L391.9,178.5L388.1,178.5L384.3,178.5L380.6,178.5L376.9,178.5L373.1,178.5L369.4,178.5L365.7,178.5L363.4,178.5L363.0,178.4L362.7,178.3L361.3,178.6L359.9,179.5L358.3,179.9L356.6,179.7L356.4,179.9L355.5,179.8L354.3,179.8L353.3,180.0L352.4,180.8L351.5,182.2L350.0,183.8L348.8,185.2L347.8,186.2L345.4,187.9L344.2,188.3L343.5,188.3L343.2,188.0L342.4,185.9L342.0,185.5L337.4,186.6L336.7,186.6L336.8,186.0L336.5,181.0L336.4,177.9L337.0,176.0L337.3,173.9L337.4,172.0L338.2,168.7L337.9,166.7L339.0,159.8L339.3,158.6L339.7,155.3L340.4,154.3L341.0,153.9L341.7,151.8L343.2,148.5L344.3,146.9L344.1,143.2L344.2,140.7L344.5,140.1L346.7,139.2L349.5,136.9L350.7,134.1L352.4,132.4L355.7,131.3L355.8,131.3L365.5,121.9L370.1,116.9L372.1,114.3L372.1,113.4L372.5,112.1L371.7,111.2L370.8,110.3L370.5,109.5L369.6,109.1L368.4,109.1L367.7,108.6L366.8,107.5L365.9,106.7L363.1,106.8L361.0,105.6L361.0,104.1L361.9,100.9L363.5,97.4L363.6,96.4L363.3,95.6L363.0,94.8L362.2,94.1L361.5,93.3L362.1,90.7L363.1,88.2L363.9,86.9L364.8,85.5L364.5,84.4L363.3,83.8L363.9,82.7L365.2,80.8L367.7,78.9L369.9,77.6L371.4,77.6L374.3,78.6L376.8,79.8L378.3,79.8L379.9,79.3L383.5,77.2L384.3,77.9L385.4,79.2L386.5,81.3L388.8,82.3L389.9,83.0L390.6,83.2L391.1,83.0L391.9,81.3L392.9,80.4L394.9,79.2L399.1,78.3L402.0,78.1L403.3,77.8L405.4,77.3L408.8,75.6L412.1,77.8L415.7,78.2L419.2,78.2L420.2,77.5L420.8,77.0L424.5,73.4L429.4,68.4L432.7,75.4L433.8,75.8L433.6,76.4L433.4,77.0L435.5,78.7L438.2,79.6L439.1,80.4L439.3,81.4L438.3,85.5L438.5,86.6L439.3,90.7L440.9,91.6L442.4,95.7L445.2,97.5L445.5,98.0L446.2,100.0L447.1,102.2L447.7,102.7L448.1,102.8L449.0,105.1L448.5,106.4L449.2,110.4L450.3,113.9L450.5,118.1L450.6,120.0L450.5,121.1L450.3,122.8L449.7,123.7L448.8,124.6L447.8,126.0L447.0,127.5L446.5,128.3L446.8,130.6L446.8,131.1L446.5,131.4L445.2,131.8L443.6,132.4L442.6,133.0L441.2,134.2L440.1,135.4L438.6,139.1L436.1,142.0L435.7,142.9L433.3,144.6L432.3,146.7L431.6,149.3L430.7,151.2L428.7,153.7L428.3,157.7L428.3,165.8L427.8,174.9Z" fill="#4ECDC4" stroke="#2C3E50" stroke-width="1"/></g><circle cx="400.0" cy="150.0" r="4" fill="#E74C3C" stroke="#fff" stroke-width="2"/><text x="400.0" y="140.0" text-anchor="middle" font-family="sans-serif" font-weight="700" font-size="10" fill="#2D3436">Kampala</text></svg>