<svg viewBox="0 0 800 300" xmlns="http://www.w3.org/2000/svg"><defs><clipPath id="v"><rect width="800" height="300"/></clipPath></defs><rect width="800" height="300" fill="#DCEEF8"/><g clip-path="url(#v)"><path d="M140,669L148,685L158,711L185,733L215,742L205,760L185,762L175,749L162,748L140,748ZM370,34L364,54L359,79L359,104L354,109L353,125L351,139L378,160L375,178L388,189L387,202L367,236L336,250L294,256L271,253L276,269L271,289L275,303L263,313L241,317L221,307L213,314L216,342L230,350L242,341L248,356L229,365L212,383L209,412L204,427L184,428L168,443L162,465L182,488L202,494L195,522L170,539L157,577L138,590L129,605L136,640L150,659L141,658L122,652L71,648L63,628L63,603L49,605L42,593L40,559L56,545L63,525L60,509L71,483L79,443L77,426L86,420L84,409L74,403L81,391L71,380L66,347L75,341L71,308L76,279L82,255L94,246L88,220L88,196L104,179L103,157L115,133L115,110L110,105L100,62L113,37L111,14L119,-8L132,-30L147,-44L141,-54L145,-61L144,-100L167,-111L174,-135L172,-140L189,-161L216,-155L229,-139L237,-157L261,-156L264,-151L302,-114L319,-111L345,-94L366,-85L369,-75L349,-39L370,-33L393,-29L410,-33L429,-51L432,-71L443,-76L453,-62L453,-44L435,-31L421,-21L397,2Z" fill="#E0E0E0" stroke="#fff" stroke-width=".4"/><path d="M140,669L140,748L162,748L175,749L168,764L150,775L140,774L127,771L112,760L90,755L64,734L43,715L14,676L31,683L60,707L88,719L99,703L106,679L125,665ZM120,-255L130,-240L133,-224L144,-215L137,-193L148,-168L157,-137L172,-140L174,-135L167,-111L144,-100L145,-61L141,-54L147,-44L132,-30L119,-8L111,14L113,37L100,62L110,105L115,110L115,133L103,157L104,179L88,196L88,220L94,246L82,255L76,279L71,308L75,341L66,347L71,380L81,391L74,403L84,409L86,420L77,426L79,443L71,483L60,509L63,525L56,545L40,559L42,593L49,605L63,603L63,628L71,648L122,652L141,658L123,657L112,666L94,678L90,711L81,712L58,700L34,676L8,656L2,635L7,615L-3,593L-6,539L3,508L25,485L-7,476L13,449L20,400L44,410L55,351L41,343L34,379L21,375L27,334L35,283L44,265L38,238L36,209L45,208L58,166L72,125L81,88L76,52L83,32L80,2L92,-27L96,-72L103,-120L109,-170L108,-207L104,-238L114,-244Z" fill="#E0E0E0" stroke="#fff" stroke-width=".4"/><path d="M458,122L453,108L462,96L450,79L433,66L412,50L404,51L383,32L370,34L397,2L421,-21L435,-31L453,-44L453,-62L443,-76L432,-71L436,-85L439,-98L439,-111L432,-115L424,-111L416,-112L414,-121L412,-142L408,-149L394,-155L385,-150L363,-155L364,-185L358,-198L365,-202L363,-215L369,-225L372,-242L367,-255L356,-262L354,-270L357,-283L317,-284L309,-309L315,-309L315,-319L310,-325L310,-337L297,-344L284,-344L276,-350L262,-354L253,-362L230,-366L207,-385L209,-399L206,-407L209,-423L181,-419L170,-411L152,-403L147,-396L137,-396L121,-398L109,-394L100,-396L101,-429L84,-416L66,-417L58,-428L44,-429L48,-438L37,-451L28,-470L34,-474L34,-483L46,-489L44,-500L49,-508L51,-517L75,-532L92,-536L95,-539L114,-538L123,-595L123,-604L120,-616L111,-624L111,-639L123,-642L127,-640L128,-648L115,-650L115,-664L156,-663L163,-670L168,-664L173,-651L177,-654L188,-643L204,-644L208,-651L224,-655L232,-659L235,-668L250,-674L249,-678L231,-680L228,-693L229,-707L220,-712L223,-714L239,-712L256,-706L262,-711L277,-715L300,-723L308,-731L305,-736L316,-737L320,-733L318,-723L325,-720L330,-710L324,-703L321,-685L326,-675L327,-665L340,-655L351,-654L353,-658L359,-659L369,-663L376,-668L387,-667L392,-667L404,-666L405,-670L402,-674L404,-680L413,-678L422,-680L434,-676L443,-672L450,-677L455,-676L457,-671L467,-672L475,-680L482,-695L494,-715L501,-716L506,-704L518,-667L529,-664L530,-650L514,-632L521,-626L558,-623L558,-602L574,-616L600,-608L635,-595L645,-583L642,-572L666,-578L707,-567L738,-568L769,-550L796,-527L812,-521L829,-520L837,-513L844,-487L848,-474L839,-439L829,-425L799,-396L786,-372L770,-353L765,-353L759,-337L761,-297L755,-263L753,-249L746,-240L743,-210L721,-181L718,-158L701,-148L696,-135L673,-135L640,-126L626,-116L602,-109L578,-91L560,-68L557,-51L561,-38L557,-14L552,-3L537,11L514,53L496,72L482,84L472,108Z" fill="#E0E0E0" stroke="#fff" stroke-width=".4"/><path d="M121,-398L137,-396L147,-396L152,-403L170,-411L181,-419L209,-423L206,-407L209,-399L207,-385L230,-366L253,-362L262,-354L276,-350L284,-344L297,-344L310,-337L310,-325L315,-319L315,-309L309,-309L317,-284L357,-283L354,-270L356,-262L367,-255L372,-242L369,-225L363,-215L365,-202L358,-198L358,-204L339,-216L319,-216L283,-210L273,-190L272,-178L264,-151L261,-156L237,-157L229,-139L216,-155L189,-161L172,-140L157,-137L148,-168L137,-193L144,-215L133,-224L130,-240L120,-255L133,-278L124,-297L129,-304L125,-312L133,-323L134,-341L135,-356L139,-363Z" fill="#E0E0E0" stroke="#fff" stroke-width=".4"/><path d="M358,-198L364,-185L363,-155L385,-150L394,-155L408,-149L412,-142L414,-121L416,-112L424,-111L432,-115L439,-111L439,-98L436,-85L432,-71L429,-51L410,-33L393,-29L370,-33L349,-39L369,-75L366,-85L345,-94L319,-111L302,-114L264,-151L272,-178L273,-190L283,-210L319,-216L339,-216L358,-204Z" fill="#E0E0E0" stroke="#fff" stroke-width=".4"/></g><g clip-path="url(#v)"><path d="M458.4,121.2L457.4,122.2L456.3,123.9L455.0,128.2L450.7,134.0L449.8,137.3L445.1,140.8L441.8,144.7L439.6,144.6L437.7,146.3L426.5,151.3L422.4,150.4L419.5,150.4L416.7,148.2L410.4,147.3L406.4,148.3L401.1,150.7L399.5,150.7L398.4,150.6L395.4,149.5L393.8,147.3L385.7,144.8L379.1,139.1L371.3,139.1L365.4,139.8L364.5,139.0L363.9,137.6L362.6,135.5L357.5,130.5L353.4,125.5L352.7,120.7L353.2,115.4L354.4,109.2L354.2,107.3L355.7,106.1L357.2,105.9L358.6,104.3L359.9,101.9L360.1,100.0L359.1,96.7L358.4,91.9L357.6,89.6L359.2,85.9L359.3,84.1L358.4,82.5L358.1,80.9L358.5,79.2L358.5,77.6L357.9,76.1L358.3,74.8L359.8,73.8L360.9,72.3L361.7,70.2L362.1,68.6L362.1,67.5L361.6,66.5L360.7,65.6L361.1,63.6L362.9,60.8L364.0,58.2L364.5,56.0L364.5,54.2L363.9,52.8L364.2,51.9L365.3,51.5L365.7,50.0L365.6,46.5L364.5,43.5L365.3,41.2L367.8,38.5L369.1,36.3L369.2,34.7L369.9,33.8L371.2,35.5L374.7,36.0L378.2,36.1L378.7,35.6L380.2,32.7L382.0,31.9L384.0,31.7L386.2,31.8L388.5,33.7L395.0,40.0L399.9,44.4L401.4,46.5L402.6,48.0L403.5,49.5L403.2,53.3L403.2,54.9L403.5,55.4L404.5,55.4L406.2,55.2L407.5,54.4L408.7,53.1L409.7,52.2L410.5,51.6L410.8,50.8L411.4,50.0L411.8,49.9L412.8,50.4L415.0,52.6L416.8,54.6L417.2,55.7L417.9,56.9L418.6,58.0L419.1,58.9L420.8,60.3L422.6,61.1L423.7,60.3L426.6,63.0L433.0,65.3L434.2,66.7L435.3,68.7L437.6,71.7L440.7,74.4L443.2,75.5L445.6,76.2L447.0,76.8L447.9,77.8L449.4,78.9L450.3,79.3L450.6,80.4L451.6,82.5L452.5,85.3L453.6,87.9L455.9,90.3L458.6,92.3L461.3,93.4L462.9,94.7L463.6,96.2L461.7,98.2L459.7,100.9L457.9,103.0L456.1,104.4L455.5,105.4L455.1,107.0L455.1,115.2L454.9,118.2L455.1,119.1L455.3,119.6L456.5,120.4L457.9,121.1Z" fill="#4ECDC4" stroke="#2C3E50" stroke-width="1"/></g><circle cx="400.0" cy="150.0" r="4" fill="#E74C3C" stroke="#fff" stroke-width="2"/><text x="400.0" y="140.0" text-anchor="middle" font-family="sans-serif" font-weight="700" font-size="10" fill="#2D3436">Montevideo</text></svg>