<svg viewBox="0 0 800 300" xmlns="http://www.w3.org/2000/svg"><defs><clipPath id="v"><rect width="800" height="300"/></clipPath></defs><rect width="800" height="300" fill="#DCEEF8"/><g clip-path="url(#v)"><path d="M592,30L584,41L576,42L575,58L569,65L548,60L540,88L535,91L514,97L523,123L516,127L517,135L510,133L505,128L489,126L472,126L468,127L453,121L446,124L445,133L427,128L420,130L418,136L412,139L398,149L393,159L389,159L386,152L373,152L370,140L365,140L366,126L353,115L335,116L323,118L312,105L304,99L287,88L285,87L258,96L258,150L253,151L245,139L238,135L226,138L221,143L221,140L223,134L221,129L209,124L204,110L198,107L198,102L208,103L209,92L218,90L227,92L229,77L227,68L216,68L207,65L195,71L185,75L180,72L181,64L174,54L166,54L157,43L163,31L160,28L169,10L180,19L181,7L203,-11L220,-12L243,-0L256,7L267,-0L284,-1L297,8L300,3L315,4L318,-4L301,-16L311,-25L309,-29L319,-34L312,-46L316,-52L356,-59L362,-63L388,-70L398,-78L417,-74L420,-55L431,-59L445,-53L444,-43L454,-44L481,-61L477,-55L491,-41L514,3L520,-6L535,4L550,-1L556,2L561,12L569,15L573,22L587,20Z" fill="#E0E0E0" stroke="#fff" stroke-width=".4"/><path d="M-76,546L-84,541L-88,538L-89,535L-87,530L-87,526L-93,519L-94,514L-94,512L-98,508L-98,502L-100,498L-104,499L-103,494L-100,490L-101,485L-98,482L-100,479L-97,473L-92,465L-83,465L-84,421L-84,416L-71,416L-71,393L-29,393L13,393L55,393L58,405L56,407L58,418L61,432L66,435L71,439L66,445L58,447L55,450L54,458L49,474L50,478L49,488L44,499L38,504L33,512L32,517L27,520L24,531L24,541L24,532L23,532L23,527L21,523L16,519L15,511L16,503L11,502L10,505L4,505L6,508L7,515L2,521L-4,529L-9,530L-18,523L-22,526L-23,529L-29,531L-29,533L-40,533L-41,531L-49,531L-53,532L-56,531L-61,525L-63,522L-71,524L-74,529L-76,538L-80,540L-83,542Z" fill="#E0E0E0" stroke="#fff" stroke-width=".4"/><path d="M-84,421L-83,465L-92,465L-97,473L-100,479L-98,482L-101,485L-100,490L-103,494L-104,499L-100,498L-98,502L-98,508L-94,512L-94,514L-101,516L-106,520L-114,532L-124,537L-134,537L-137,538L-136,541L-142,545L-146,549L-160,553L-162,551L-164,551L-166,554L-175,554L-173,551L-177,544L-178,540L-183,538L-189,531L-187,526L-182,527L-179,527L-173,527L-179,517L-178,510L-179,503L-183,496L-182,490L-189,490L-189,483L-193,479L-189,465L-175,454L-175,440L-171,417L-168,412L-173,408L-173,404L-177,401L-179,383L-169,377L-126,399Z" fill="#E0E0E0" stroke="#fff" stroke-width=".4"/><path d="M661,-919L684,-934L705,-900L729,-839L726,-787L703,-781L674,-797L656,-818L648,-861L633,-874ZM757,-810L784,-778L781,-757L751,-747L721,-737L741,-807L749,-814ZM1140,-652L1169,-650L1207,-627L1199,-596L1159,-597L1142,-587L1121,-614L1126,-644ZM1240,-618L1267,-607L1255,-591L1238,-594L1218,-610L1221,-624ZM1151,-539L1162,-554L1175,-558L1190,-543L1191,-534L1175,-533L1153,-538ZM140,-890L161,-902L177,-903L179,-885L185,-901L195,-912L211,-897L207,-887L193,-879L183,-874L181,-863L169,-853L158,-868L164,-888ZM-96,-58L-115,-58L-128,-60L-126,-68L-111,-74L-100,-71L-95,-68L-96,-63ZM232,-554L258,-588L255,-607L279,-629L314,-657L349,-665L367,-682L388,-689L395,-670L388,-656L351,-634L318,-614L285,-575L269,-538L252,-503L255,-475L275,-448L269,-445L234,-449L231,-464L212,-473L210,-491L221,-498L221,-518L242,-549ZM1184,-47L1188,-30L1187,-13L1192,5L1202,34L1187,29L1180,52L1191,68L1190,79L1182,69L1175,81L1173,68L1174,53L1173,36L1176,23L1176,1L1170,-16L1171,-40L1181,-48L1176,-56L1181,-59ZM-2254,-394L-2254,-394L-2228,-371L-2200,-343L-2201,-326L-2194,-320L-2196,-339L-2167,-335L-2146,-310L-2157,-299L-2174,-296L-2175,-272L-2179,-267L-2189,-267L-2197,-276L-2211,-283L-2214,-294L-2224,-299L-2236,-295L-2242,-304L-2240,-314L-2253,-308L-2248,-296L-2254,-285L-2254,-285L-2254,-394ZM1579,-285L1579,-285L1565,-274L1551,-276L1561,-262L1567,-243L1572,-236L1573,-227L1571,-221L1551,-226L1521,-208L1511,-206L1495,-190L1480,-177L1476,-167L1461,-182L1433,-165L1428,-173L1418,-164L1404,-167L1400,-153L1387,-133L1388,-125L1400,-121L1398,-92L1389,-92L1384,-76L1388,-68L1370,-58L1366,-38L1350,-34L1347,-16L1332,0L1328,-12L1323,-37L1317,-78L1322,-104L1331,-116L1332,-125L1348,-129L1367,-155L1386,-177L1405,-194L1413,-226L1401,-224L1394,-206L1367,-181L1358,-209L1331,-201L1304,-165L1313,-152L1289,-146L1273,-144L1274,-159L1257,-162L1244,-152L1211,-156L1176,-150L1142,-110L1101,-65L1118,-63L1123,-52L1133,-48L1140,-57L1152,-56L1167,-36L1168,-21L1159,-4L1158,16L1154,42L1138,65L1134,76L1119,94L1105,111L1098,120L1084,128L1077,129L1071,121L1056,132L1055,137L1055,137L1053,134L1053,127L1059,127L1060,109L1057,96L1066,91L1079,94L1087,79L1090,62L1094,56L1100,42L1082,47L1073,53L1057,53L1053,38L1040,26L1022,21L1018,5L1014,-6L1010,-13L1003,-31L994,-37L978,-42L964,-42L951,-39L942,-30L948,-26L948,-16L942,-11L932,7L932,15L917,25L905,19L892,20L886,15L880,13L864,25L850,27L841,31L827,29L817,29L811,21L800,13L790,10L776,13L766,16L751,9L749,-4L737,-8L727,-10L715,-18L704,0L708,10L698,22L682,17L672,17L665,9L654,9L644,4L628,12L608,26L597,29L592,30L587,20L573,22L569,15L561,12L556,2L550,-1L535,4L520,-6L514,3L491,-41L477,-55L481,-61L454,-44L444,-43L445,-53L431,-59L420,-55L417,-74L398,-78L388,-70L362,-63L356,-59L316,-52L312,-46L319,-34L309,-29L311,-25L301,-16L318,-4L315,4L300,3L297,8L284,-1L267,-0L256,7L243,-0L220,-12L203,-11L181,7L180,19L169,10L160,28L163,31L157,43L166,54L174,54L181,64L180,72L185,75L180,84L170,86L159,102L169,116L168,126L180,143L173,149L171,152L167,151L159,143L156,142L150,139L147,133L137,130L130,132L128,129L114,122L98,120L89,117L88,119L74,107L62,101L53,92L61,90L69,77L63,71L79,65L79,61L69,64L70,57L75,52L85,51L87,46L85,37L89,28L89,24L73,18L67,18L61,11L52,13L39,7L39,4L35,-3L27,-4L26,-9L29,-13L22,-23L11,-21L7,-22L5,-18L1,-18L-2,-30L-4,-36L-2,-37L6,-37L10,-40L7,-45L0,-48L1,-52L-3,-55L-10,-67L-8,-72L-9,-81L-19,-85L-25,-83L-26,-88L-38,-93L-41,-104L-42,-113L-47,-118L-42,-124L-46,-143L-38,-155L-40,-159L-28,-170L-39,-181L-16,-209L-6,-222L-2,-234L-18,-250L-13,-266L-23,-284L-16,-306L-28,-336L-18,-357L-35,-376L-33,-397L-25,-399L-6,-411L5,-422L22,-404L51,-396L91,-364L100,-350L100,-332L88,-318L71,-311L24,-331L16,-328L33,-308L34,-296L34,-271L48,-263L56,-257L58,-269L51,-279L58,-289L84,-273L93,-279L86,-298L111,-324L120,-322L130,-313L137,-331L128,-347L133,-364L125,-382L155,-373L161,-357L147,-353L147,-338L156,-329L172,-335L175,-352L197,-365L234,-390L242,-389L232,-371L245,-368L253,-378L273,-379L288,-391L301,-373L313,-393L302,-410L307,-420L338,-411L353,-402L392,-368L399,-383L388,-399L388,-405L375,-408L379,-423L373,-447L372,-458L392,-488L399,-520L407,-527L435,-518L437,-498L427,-470L434,-460L437,-437L435,-395L447,-377L442,-358L421,-319L433,-316L438,-325L449,-332L452,-346L461,-359L455,-375L460,-394L449,-397L446,-413L455,-445L441,-472L460,-495L457,-520L463,-521L468,-501L464,-468L475,-462L470,-486L488,-500L510,-502L530,-482L521,-511L520,-550L538,-558L564,-556L587,-561L578,-581L590,-608L603,-609L623,-630L651,-636L655,-648L683,-652L692,-642L716,-666L735,-665L738,-685L748,-705L773,-725L792,-709L777,-697L801,-690L804,-667L814,-678L845,-678L869,-656L878,-639L875,-617L863,-605L835,-582L827,-570L840,-565L856,-555L866,-562L871,-538L876,-548L893,-554L927,-548L930,-530L974,-525L975,-553L997,-547L1014,-547L1031,-527L1036,-504L1030,-490L1043,-463L1060,-450L1070,-485L1088,-470L1106,-479L1126,-468L1134,-478L1152,-473L1144,-505L1158,-520L1207,-511L1254,-497L1263,-477L1291,-452L1334,-458L1355,-453L1364,-439L1363,-416L1376,-408L1390,-414L1409,-415L1429,-409L1449,-412L1468,-386L1481,-395L1472,-414L1477,-428L1511,-419L1533,-421L1564,-407L1579,-394L1579,-285ZM1579,-451L1567,-450L1565,-460L1579,-474L1579,-451ZM-2254,-474L-2254,-474L-2254,-474L-2253,-475L-2244,-475L-2228,-466L-2229,-461L-2240,-453L-2254,-451L-2254,-451L-2254,-474ZM18,81L21,77L29,81L32,81L34,84L35,85L35,86L40,90L51,89L49,94L38,97L23,106L17,102L20,95L8,91L10,88L20,83Z" fill="#E0E0E0" stroke="#fff" stroke-width=".4"/><path d="M-176,-833L-172,-853L-157,-856L-143,-834L-108,-792L-135,-770L-141,-732L-150,-722L-155,-682L-168,-681L-191,-710L-181,-727L-197,-742L-218,-787L-226,-832L-197,-853L-192,-832ZM-6,-411L-25,-399L-33,-397L-29,-418L-42,-430L-59,-420L-64,-397L-74,-384L-86,-391L-100,-390L-111,-406L-118,-398L-124,-397L-126,-377L-146,-382L-149,-366L-159,-366L-166,-346L-177,-316L-193,-280L-189,-271L-193,-262L-204,-262L-211,-240L-210,-209L-203,-198L-207,-172L-215,-158L-220,-146L-227,-159L-248,-135L-263,-130L-277,-140L-281,-163L-284,-213L-275,-228L-247,-247L-226,-272L-206,-308L-180,-360L-163,-382L-133,-419L-110,-433L-92,-431L-76,-458L-57,-456L-38,-463L-4,-439L-18,-431ZM-46,-856L-62,-824L-92,-817L-124,-826L-126,-843L-141,-844L-153,-872L-120,-890L-104,-875L-94,-894L-67,-878ZM-74,-733L-98,-713L-117,-724L-110,-737L-116,-754L-94,-764L-90,-745Z" fill="#E0E0E0" stroke="#fff" stroke-width=".4"/><path d="M-179,383L-177,401L-173,404L-173,408L-168,412L-171,417L-175,440L-175,454L-189,465L-193,479L-189,483L-189,490L-182,490L-183,496L-186,496L-187,500L-189,500L-196,488L-198,487L-207,494L-215,490L-221,490L-224,491L-230,491L-236,496L-242,496L-255,490L-260,493L-265,493L-269,489L-280,485L-291,486L-294,488L-295,494L-298,499L-299,509L-307,502L-311,502L-315,506L-314,498L-327,496L-327,490L-333,483L-334,478L-334,473L-327,472L-323,468L-308,468L-299,466L-298,459L-292,452L-292,426L-277,421L-246,398L-210,376L-193,381L-187,388Z" fill="#E0E0E0" stroke="#fff" stroke-width=".4"/><path d="M-309,567L-308,550L-309,543L-307,536L-303,533L-298,526L-299,523L-297,519L-300,512L-299,509L-298,499L-295,494L-294,488L-291,486L-280,485L-269,489L-265,493L-260,493L-255,490L-242,496L-236,496L-230,491L-224,491L-221,490L-215,490L-207,494L-198,487L-196,488L-189,500L-187,500L-182,504L-184,506L-184,510L-193,518L-196,525L-197,530L-200,533L-202,540L-207,545L-209,550L-212,555L-213,559L-220,563L-226,558L-230,558L-236,565L-239,565L-244,575L-247,583L-258,587L-262,586L-266,588L-275,588L-281,582L-284,574L-292,567L-300,567Z" fill="#E0E0E0" stroke="#fff" stroke-width=".4"/><path d="M-183,496L-179,503L-178,510L-179,517L-173,527L-179,527L-182,527L-187,526L-189,531L-183,538L-178,540L-177,544L-173,551L-175,554L-180,565L-183,567L-184,575L-183,580L-183,583L-178,589L-178,593L-174,598L-169,602L-168,606L-167,609L-168,615L-176,613L-185,610L-198,609L-200,609L-206,610L-212,609L-218,610L-235,609L-233,601L-237,594L-242,592L-244,587L-247,586L-247,583L-244,575L-239,565L-236,565L-230,558L-226,558L-220,563L-213,559L-212,555L-209,550L-207,545L-202,540L-200,533L-197,530L-196,525L-193,518L-184,510L-184,506L-182,504L-187,500L-186,496Z" fill="#E0E0E0" stroke="#fff" stroke-width=".4"/><path d="M43,265L41,269L37,267L35,275L37,277L35,278L34,282L39,280L40,285L34,305L33,301L27,283L30,279L30,279L32,273L35,263L36,260L36,260L40,260L41,258L44,258L44,263L42,265Z" fill="#E0E0E0" stroke="#fff" stroke-width=".4"/><path d="M44,258L41,258L40,260L36,260L40,250L45,240L46,240L50,241L52,246L46,251Z" fill="#E0E0E0" stroke="#fff" stroke-width=".4"/><path d="M39,280L34,282L35,278L37,277L35,275L37,267L41,269L41,276Z" fill="#E0E0E0" stroke="#fff" stroke-width=".4"/><path d="M41,269L43,265L55,270L75,256L80,272L78,274L56,280L67,292L63,294L62,298L54,300L51,305L46,308L35,306L34,305L40,285L39,280L41,276Z" fill="#E0E0E0" stroke="#fff" stroke-width=".4"/><path d="M212,367L213,367L214,370L222,368L231,369L237,369L245,361L253,353L259,346L261,350L263,359L257,360L257,367L258,369L254,371L254,376L250,381L250,385L248,388L216,382L212,370Z" fill="#E0E0E0" stroke="#fff" stroke-width=".4"/><path d="M203,361L203,353L206,347L208,345L212,349L212,356L210,363L207,364Z" fill="#E0E0E0" stroke="#fff" stroke-width=".4"/><path d="M173,299L175,304L174,307L178,316L170,317L168,311L158,310L166,298Z" fill="#E0E0E0" stroke="#fff" stroke-width=".4"/><path d="M80,272L75,256L99,243L103,227L102,218L108,214L113,206L118,204L130,206L134,209L139,207L146,223L153,227L154,234L148,239L146,249L153,261L166,268L172,277L170,286L173,286L174,293L179,299L173,299L166,298L158,310L138,309L108,284L93,275Z" fill="#E0E0E0" stroke="#fff" stroke-width=".4"/><path d="M250,385L250,381L254,376L254,371L258,369L257,367L257,360L263,359L268,367L274,372L281,373L288,375L292,382L295,386L299,387L299,390L295,397L294,400L289,404L285,411L280,411L278,413L276,419L278,427L277,428L272,428L265,432L264,438L262,440L255,440L251,443L251,447L246,450L240,449L233,453L228,454L224,446L216,428L248,416L255,393ZM261,350L259,346L262,342L264,343L263,348Z" fill="#E0E0E0" stroke="#fff" stroke-width=".4"/><path d="M755,503L752,490L759,481L773,478L783,480L791,484L796,477L806,481L808,488L807,501L789,510L794,516L782,517L773,521L764,520L760,514Z" fill="#E0E0E0" stroke="#fff" stroke-width=".4"/><path d="M783,480L773,478L759,481L752,490L755,503L745,498L736,498L737,490L728,490L727,502L722,517L718,527L719,535L726,535L730,545L732,554L738,560L744,562L750,567L746,572L739,573L739,567L730,563L728,565L724,561L722,555L716,549L711,544L709,550L707,544L709,538L712,527L717,516L723,506L719,496L719,491L717,485L710,476L708,471L712,469L715,459L711,452L704,444L699,434L704,432L708,420L716,419L722,414L728,411L733,415L734,422L741,422L738,434L738,444L750,438L753,439L759,439L761,435L769,436L777,445L778,456L787,466L786,475Z" fill="#E0E0E0" stroke="#fff" stroke-width=".4"/><path d="M806,481L796,477L791,484L783,480L786,475L787,466L778,456L777,445L769,436L761,435L759,439L753,439L750,438L738,444L738,434L741,422L734,422L733,415L728,411L731,407L740,400L741,403L746,403L745,390L750,388L756,397L761,408L774,408L778,418L772,420L769,425L781,431L790,445L797,454L805,462L808,470Z" fill="#E0E0E0" stroke="#fff" stroke-width=".4"/><path d="M728,411L722,414L716,419L708,420L704,432L699,434L704,444L711,452L715,459L712,469L708,471L710,476L717,485L719,491L719,496L723,506L717,516L712,527L711,519L714,511L710,505L711,493L707,487L703,474L701,460L697,451L690,456L678,464L672,463L665,461L669,447L667,436L658,423L660,419L653,418L646,409L645,399L649,401L649,393L654,390L653,385L656,381L656,369L664,372L669,362L670,357L675,347L675,340L689,332L697,334L696,327L699,324L699,320L705,319L708,326L713,329L713,338L713,348L703,358L702,371L713,370L715,380L722,382L719,392L727,396L732,398L739,395L740,400L731,407Z" fill="#E0E0E0" stroke="#fff" stroke-width=".4"/><path d="M773,521L782,517L794,516L789,510L807,501L808,488L806,481L808,470L805,462L797,454L790,445L781,431L769,425L772,420L778,418L774,408L761,408L756,397L750,388L756,385L764,385L775,384L784,378L789,382L799,384L797,391L802,396L813,399L799,408L790,419L787,427L795,439L805,453L815,460L822,469L826,489L825,509L816,516L804,523L795,532L782,542L778,535L781,527Z" fill="#E0E0E0" stroke="#fff" stroke-width=".4"/><path d="M1055,137L1055,137L1055,137ZM1053,134L1055,137L1051,136L1046,141L1043,146L1043,156L1038,159L1036,161L1032,166L1025,168L1020,172L1020,178L1019,179L1023,181L1029,187L1027,191L1023,192L1015,192L1011,198L1006,198L1006,199L1001,196L999,199L996,200L996,198L993,196L990,194L993,188L996,187L995,184L997,177L997,174L990,173L985,169L994,160L1006,153L1013,143L1018,147L1027,148L1026,140L1042,134L1046,126Z" fill="#E0E0E0" stroke="#fff" stroke-width=".4"/><path d="M597,29L608,26L628,12L644,4L654,9L665,9L672,17L682,17L698,22L708,10L704,0L715,-18L727,-10L737,-8L749,-4L751,9L766,16L776,13L790,10L800,13L811,21L817,29L827,29L841,31L850,27L864,25L880,13L886,15L892,20L905,19L899,31L892,47L895,54L901,52L911,54L919,48L928,54L938,65L936,70L928,68L913,70L905,75L897,85L881,91L870,99L859,96L853,94L848,104L851,110L853,115L846,120L838,127L825,133L810,133L792,138L780,146L775,141L762,141L747,133L736,130L722,132L700,129L688,130L682,121L677,107L671,106L658,96L643,94L631,92L627,85L631,67L624,54L608,48L599,40Z" fill="#E0E0E0" stroke="#fff" stroke-width=".4"/><path d="M699,320L699,324L696,327L697,334L689,332L675,340L675,347L670,357L669,362L664,372L656,369L656,381L653,385L654,390L649,393L643,375L641,375L639,382L633,376L636,369L641,369L646,359L640,357L630,357L620,355L619,347L614,347L605,341L602,350L609,356L603,360L600,364L607,368L605,375L609,383L610,393L609,397L602,397L588,399L589,408L583,415L568,422L556,435L548,442L537,450L537,455L532,458L523,462L518,462L514,471L517,485L517,494L513,504L513,523L507,523L502,532L505,535L496,538L492,545L488,549L478,538L473,523L469,512L465,507L459,497L457,483L455,476L445,461L441,440L438,425L438,411L436,401L420,408L413,406L399,392L404,388L401,384L388,374L395,366L419,366L417,356L411,350L409,341L403,336L414,323L427,324L438,311L444,299L455,286L455,278L464,270L455,264L451,255L448,244L453,239L469,242L481,240L491,229L503,244L501,255L506,261L505,268L498,266L501,280L511,288L526,296L519,302L515,313L525,318L535,324L549,331L564,332L570,338L578,339L591,342L600,342L601,337L600,330L601,324L607,322L608,331L608,334L618,338L625,336L634,337L642,337L643,329L639,326L647,324L657,315L669,307L678,310L686,305L691,313L687,318Z" fill="#E0E0E0" stroke="#fff" stroke-width=".4"/><path d="M649,393L649,401L645,399L646,409L643,403L642,397L640,391L636,385L626,384L627,389L623,395L619,393L617,395L614,394L610,393L609,383L605,375L607,368L600,364L603,360L609,356L602,350L605,341L614,347L619,347L620,355L630,357L640,357L646,359L641,369L636,369L633,376L639,382L641,375L643,375Z" fill="#E0E0E0" stroke="#fff" stroke-width=".4"/><path d="M639,326L643,329L642,337L634,337L625,336L618,338L608,334L608,331L615,322L621,319L628,322L634,322Z" fill="#E0E0E0" stroke="#fff" stroke-width=".4"/><path d="M601,324L600,330L601,337L600,342L591,342L578,339L570,338L564,332L549,331L535,324L525,318L515,313L519,302L526,296L530,293L539,297L550,305L556,307L559,313L568,315L576,320L588,323Z" fill="#E0E0E0" stroke="#fff" stroke-width=".4"/><path d="M491,229L481,240L469,242L453,239L448,244L451,255L455,264L464,270L455,278L455,286L444,299L438,311L427,324L414,323L403,336L409,341L411,350L417,356L419,366L395,366L388,374L380,371L377,363L369,354L349,356L332,356L317,358L321,344L337,338L336,332L331,330L330,320L320,314L316,307L311,301L328,307L339,305L345,307L348,304L355,305L369,300L369,289L375,282L383,282L384,279L392,277L396,278L400,275L400,267L404,260L411,257L407,248L417,248L420,244L420,239L425,233L424,227L421,221L427,216L439,213L451,211L456,209L463,207L470,214L474,224Z" fill="#E0E0E0" stroke="#fff" stroke-width=".4"/><path d="M371,204L377,204L385,207L388,209L396,204L399,207L403,201L409,201L411,199L412,194L416,189L422,192L421,196L424,197L423,208L427,213L431,210L436,208L442,202L450,203L461,203L463,207L456,209L451,211L439,213L427,216L421,221L424,227L425,233L420,239L420,244L417,248L407,248L411,257L404,260L400,267L400,275L396,278L392,277L384,279L383,282L375,282L369,289L369,300L355,305L348,304L345,307L339,305L328,307L311,301L320,289L319,281L311,279L310,271L307,261L311,254L307,252L310,243L314,227L325,232L333,230L335,224L344,222L350,218L352,208L361,205L362,200L367,204Z" fill="#E0E0E0" stroke="#fff" stroke-width=".4"/><path d="M385,207L391,194L388,183L380,180L383,174L392,175L397,167L401,158L415,155L413,161L414,165L418,165L415,169L403,167L402,175L414,174L427,178L447,176L449,189L453,187L459,191L459,196L461,203L450,203L442,202L436,208L431,210L427,213L423,208L424,197L421,196L422,192L416,189L412,194L411,199L409,201L403,201L399,207L396,204L388,209Z" fill="#E0E0E0" stroke="#fff" stroke-width=".4"/><path d="M418,136L420,130L427,128L445,133L446,124L453,121L468,127L472,126L489,126L505,128L510,133L517,135L515,138L499,146L495,152L481,153L477,162L466,160L459,163L448,170L450,173L447,176L427,178L414,174L402,175L403,167L415,169L418,165L427,166L440,156L428,149L420,152L412,147L421,138Z" fill="#E0E0E0" stroke="#fff" stroke-width=".4"/><path d="M221,143L226,138L238,135L245,139L253,151L258,150L270,150L269,143L278,138L287,129L301,137L302,148L306,151L318,150L321,153L326,168L339,177L346,184L357,190L371,196L371,204L367,204L362,200L361,205L352,208L350,218L344,222L335,224L333,230L325,232L314,227L313,216L305,215L293,204L285,202L273,195L265,194L261,197L253,196L246,204L237,206L235,197L236,183L228,178L230,169L223,168L226,156L236,159L245,155L237,146L234,138L226,142L225,152Z" fill="#E0E0E0" stroke="#fff" stroke-width=".4"/><path d="M179,299L174,293L173,286L170,286L172,277L166,268L153,261L146,249L148,239L154,234L153,227L146,223L139,207L133,196L135,192L132,176L139,172L141,177L146,184L154,186L158,185L170,175L174,174L177,178L174,185L180,192L183,191L186,201L196,204L204,211L219,213L235,210L237,206L246,204L253,196L261,197L265,194L273,195L285,202L293,204L305,215L313,216L314,227L310,243L307,252L311,254L307,261L310,271L311,279L319,281L320,289L311,301L316,307L320,314L330,320L331,330L336,332L337,338L321,344L317,358L297,354L285,351L273,350L269,335L264,333L256,335L245,341L232,337L221,328L211,325L204,313L196,297L190,299L183,295Z" fill="#E0E0E0" stroke="#fff" stroke-width=".4"/><path d="M43,265L42,265L44,263L44,258L46,251L52,246L50,241L46,240L45,230L47,225L50,222L53,219L54,212L57,214L69,210L74,213L83,213L95,208L101,208L113,206L108,214L102,218L103,227L99,243L75,256L55,270Z" fill="#E0E0E0" stroke="#fff" stroke-width=".4"/><path d="M158,185L154,186L149,178L149,176L145,176L142,172L139,172L135,168L127,165L128,158L126,153L141,151L143,154L147,157L145,160L151,165L148,170L153,173L157,176Z" fill="#E0E0E0" stroke="#fff" stroke-width=".4"/><path d="M-220,-146L-215,-158L-207,-172L-203,-198L-210,-209L-211,-240L-204,-262L-193,-262L-189,-271L-193,-280L-177,-316L-166,-346L-159,-366L-149,-366L-146,-382L-126,-377L-124,-397L-118,-398L-104,-383L-87,-364L-87,-321L-83,-311L-101,-304L-112,-286L-110,-271L-127,-251L-148,-231L-155,-199L-148,-183L-138,-171L-147,-148L-158,-143L-162,-109L-169,-91L-181,-93L-187,-78L-200,-77L-203,-95L-212,-117Z" fill="#E0E0E0" stroke="#fff" stroke-width=".4"/><path d="M-38,-93L-26,-88L-25,-83L-19,-85L-9,-81L-8,-72L-10,-67L-3,-55L1,-52L0,-48L7,-45L10,-40L6,-37L-2,-37L-4,-36L-2,-30L1,-18L-8,-17L-12,-14L-12,-5L-17,-7L-26,-6L-29,-10L-33,-7L-37,-9L-45,-10L-57,-14L-68,-15L-76,-15L-82,-10L-87,-9L-87,-17L-91,-25L-84,-29L-84,-36L-87,-43L-88,-51L-77,-50L-66,-57L-63,-68L-55,-74L-56,-82L-49,-85Z" fill="#E0E0E0" stroke="#fff" stroke-width=".4"/><path d="M1,-18L5,-18L7,-22L11,-21L22,-23L29,-13L26,-9L27,-4L35,-3L39,4L39,7L52,13L61,11L67,18L73,18L89,24L89,28L85,37L87,46L85,51L75,52L70,57L69,64L61,65L54,70L44,71L35,77L35,85L34,84L32,81L29,81L21,77L18,81L17,80L0,76L-0,70L-10,72L-14,80L-22,92L-27,89L-32,91L-37,89L-34,87L-32,82L-30,77L-30,74L-28,73L-27,75L-21,75L-18,74L-20,73L-19,70L-23,66L-24,60L-28,57L-28,52L-32,48L-37,47L-45,42L-52,44L-54,46L-59,46L-61,50L-69,51L-73,54L-78,50L-85,50L-91,48L-96,51L-97,47L-102,43L-100,36L-97,32L-95,33L-98,26L-88,12L-83,10L-82,5L-87,-9L-82,-10L-76,-15L-68,-15L-57,-14L-45,-10L-37,-9L-33,-7L-29,-10L-26,-6L-17,-7L-12,-5L-12,-14L-8,-17Z" fill="#E0E0E0" stroke="#fff" stroke-width=".4"/><path d="M-88,-51L-87,-43L-84,-36L-84,-29L-91,-25L-87,-17L-87,-9L-82,5L-83,10L-88,12L-98,26L-95,33L-97,32L-108,26L-115,28L-120,26L-127,30L-132,24L-136,26L-137,25L-142,17L-150,16L-151,11L-158,9L-160,14L-165,10L-165,5L-173,4L-178,-1L-182,-12L-181,-18L-184,-28L-188,-34L-185,-39L-187,-48L-180,-53L-163,-61L-150,-68L-139,-65L-139,-60L-128,-60L-115,-58L-96,-58L-90,-56Z" fill="#E0E0E0" stroke="#fff" stroke-width=".4"/><path d="M-157,48L-158,54L-164,54L-162,58L-165,68L-167,70L-176,71L-182,74L-191,73L-206,69L-208,64L-219,66L-220,69L-226,67L-232,67L-237,64L-235,60L-235,57L-232,56L-227,61L-225,56L-216,57L-208,54L-203,55L-200,58L-199,55L-200,45L-197,43L-193,35L-185,41L-179,34L-175,33L-167,38L-162,37L-157,40L-158,42Z" fill="#E0E0E0" stroke="#fff" stroke-width=".4"/><path d="M-102,43L-97,47L-96,51L-102,55L-107,65L-114,76L-122,79L-129,78L-137,82L-141,84L-150,82L-158,75L-161,73L-163,68L-165,68L-162,58L-164,54L-158,54L-157,48L-151,52L-147,53L-139,51L-138,48L-133,48L-128,45L-127,46L-122,44L-120,41L-116,40L-105,44Z" fill="#E0E0E0" stroke="#fff" stroke-width=".4"/><path d="M-54,46L-52,44L-45,42L-37,47L-32,48L-28,52L-28,57L-24,60L-23,66L-19,70L-20,73L-18,74L-21,75L-27,75L-28,73L-30,74L-30,77L-32,82L-34,87L-37,89L-39,82L-38,75L-38,68L-44,59L-48,52L-51,48Z" fill="#E0E0E0" stroke="#fff" stroke-width=".4"/><path d="M-37,89L-32,91L-27,89L-22,92L-22,95L-27,99L-31,97L-34,115L-40,114L-48,108L-60,112L-65,116L-81,115L-89,112L-93,114L-96,107L-98,105L-96,102L-98,100L-102,104L-108,99L-109,93L-115,90L-117,85L-122,79L-114,76L-107,65L-102,55L-96,51L-91,48L-85,50L-78,50L-73,54L-69,51L-61,50L-59,46L-54,46L-51,48L-48,52L-44,59L-38,68L-38,75L-39,82Z" fill="#E0E0E0" stroke="#fff" stroke-width=".4"/><path d="M-56,-82L-55,-74L-63,-68L-66,-57L-77,-50L-88,-51L-90,-56L-96,-58L-96,-63L-95,-68L-100,-71L-111,-74L-113,-90L-101,-96L-83,-94L-73,-96L-71,-92L-66,-91Z" fill="#E0E0E0" stroke="#fff" stroke-width=".4"/><path d="M-47,-118L-42,-113L-41,-104L-38,-93L-49,-85L-56,-82L-66,-91L-71,-92L-73,-96L-83,-94L-101,-96L-113,-90L-113,-104L-108,-117L-98,-123L-89,-109L-81,-109L-79,-124L-70,-128L-65,-125L-56,-118Z" fill="#E0E0E0" stroke="#fff" stroke-width=".4"/><path d="M-40,-159L-38,-155L-46,-143L-42,-124L-47,-118L-56,-118L-65,-125L-70,-128L-79,-124L-78,-136L-81,-134L-88,-141L-89,-153L-76,-158L-62,-161L-51,-158Z" fill="#E0E0E0" stroke="#fff" stroke-width=".4"/><path d="M-187,-48L-185,-39L-188,-34L-184,-28L-181,-18L-182,-12L-178,-1L-182,0L-185,-2L-188,2L-196,5L-200,9L-207,13L-205,18L-204,25L-199,29L-193,35L-197,43L-200,45L-199,55L-200,58L-203,55L-208,54L-216,57L-225,56L-227,61L-232,56L-235,57L-247,52L-249,56L-258,56L-257,44L-251,33L-267,30L-272,26L-271,19L-273,15L-272,4L-274,-14L-267,-14L-265,-21L-262,-37L-264,-43L-262,-47L-253,-48L-251,-44L-244,-52L-246,-59L-247,-70L-239,-67L-232,-70L-232,-63L-221,-59L-221,-52L-210,-56L-204,-61L-192,-54Z" fill="#E0E0E0" stroke="#fff" stroke-width=".4"/><path d="M-96,107L-93,114L-89,112L-81,115L-65,116L-60,112L-48,108L-40,114L-34,115L-39,121L-43,132L-40,140L-49,138L-60,143L-60,150L-69,151L-77,146L-85,150L-93,149L-94,140L-99,135L-98,133L-99,132L-97,127L-93,123L-98,116L-99,111Z" fill="#E0E0E0" stroke="#fff" stroke-width=".4"/><path d="M-58,231L-59,235L-74,236L-74,234L-87,232L-85,226L-79,231L-71,230L-63,231L-63,233ZM-93,149L-85,150L-77,146L-69,151L-60,150L-60,143L-54,146L-58,155L-60,157L-67,156L-72,155L-85,159L-78,167L-83,169L-89,169L-95,162L-97,165L-94,173L-89,179L-93,182L-87,189L-82,193L-82,200L-92,197L-88,204L-95,205L-91,217L-98,217L-107,211L-111,200L-113,191L-117,185L-122,177L-123,173L-118,167L-117,162L-114,160L-114,156L-107,155L-103,152L-97,152L-95,150Z" fill="#E0E0E0" stroke="#fff" stroke-width=".4"/><path d="M139,207L134,209L130,206L118,204L113,206L101,208L95,208L83,213L74,213L69,210L57,214L54,212L53,219L50,222L47,225L43,219L47,214L41,215L32,212L25,219L9,221L-0,214L-12,213L-14,219L-21,220L-32,213L-43,214L-50,200L-57,193L-52,182L-59,176L-47,162L-31,162L-26,151L-6,153L7,144L19,140L37,139L55,150L71,155L83,153L92,154L105,147L116,146L126,153L128,158L127,165L135,168L139,172L132,176L135,192L133,196ZM-60,143L-49,138L-40,140L-38,145L-29,150L-31,153L-44,154L-48,159L-57,166L-60,160L-60,157L-58,155L-54,146Z" fill="#E0E0E0" stroke="#fff" stroke-width=".4"/><path d="M-114,156L-114,160L-117,162L-118,167L-123,173L-125,172L-125,169L-131,165L-132,158L-131,148L-130,144L-131,142L-132,137L-127,130L-127,133L-124,132L-122,135L-119,137L-118,142L-120,147L-118,153Z" fill="#E0E0E0" stroke="#fff" stroke-width=".4"/><path d="M-161,73L-158,75L-150,82L-141,84L-137,82L-135,88L-131,92L-135,98L-140,95L-147,95L-157,92L-162,93L-164,96L-168,92L-170,99L-165,106L-162,110L-158,116L-153,119L-149,125L-140,131L-141,133L-151,128L-157,123L-167,118L-176,107L-174,106L-179,100L-179,95L-186,92L-189,99L-192,94L-192,89L-192,88L-184,89L-182,86L-179,89L-174,89L-174,85L-171,83L-170,77Z" fill="#E0E0E0" stroke="#fff" stroke-width=".4"/><path d="M828,437L819,433L819,423L824,418L836,415L842,415L844,420L840,425L837,431ZM517,135L516,127L523,123L514,97L535,91L540,88L548,60L569,65L575,58L576,42L584,41L592,30L597,29L599,40L608,48L624,54L631,67L627,85L631,92L643,94L658,96L671,106L677,107L682,121L688,130L700,129L722,132L736,130L747,133L762,141L775,141L780,146L792,138L810,133L825,133L838,127L846,120L853,115L851,110L848,104L853,94L859,96L870,99L881,91L897,85L905,75L913,70L928,68L936,70L938,65L928,54L919,48L911,54L901,52L895,54L892,47L899,31L905,19L917,25L932,15L932,7L942,-11L948,-16L948,-26L942,-30L951,-39L964,-42L978,-42L994,-37L1003,-31L1010,-13L1014,-6L1018,5L1022,21L1040,26L1053,38L1057,53L1073,53L1082,47L1100,42L1094,56L1090,62L1087,79L1079,94L1066,91L1057,96L1060,109L1059,127L1053,127L1053,134L1046,126L1042,134L1026,140L1027,148L1018,147L1013,143L1006,153L994,160L985,169L971,173L963,180L951,183L957,177L955,172L963,162L957,155L948,160L936,170L930,179L919,179L914,186L919,195L928,197L928,203L937,207L949,197L958,203L965,203L967,210L952,214L947,221L936,227L931,237L942,244L947,256L953,268L960,278L960,287L953,290L956,297L962,301L961,311L958,320L952,321L944,334L936,350L926,364L911,375L896,384L884,386L878,391L874,387L868,393L853,399L842,400L838,412L832,413L830,405L832,400L818,397L813,399L802,396L797,391L799,384L789,382L784,378L775,384L764,385L756,385L750,388L745,390L746,403L741,403L740,400L739,395L732,398L727,396L719,392L722,382L715,380L713,370L702,371L703,358L713,348L713,338L713,329L708,326L705,319L699,320L687,318L691,313L686,305L678,310L669,307L657,315L647,324L639,326L634,322L628,322L621,319L615,322L608,331L607,322L601,324L588,323L576,320L568,315L559,313L556,307L550,305L539,297L530,293L526,296L511,288L501,280L498,266L505,268L506,261L501,255L503,244L491,229L474,224L470,214L463,207L461,203L459,196L459,191L453,187L449,189L447,176L450,173L448,170L459,163L466,160L477,162L481,153L495,152L499,146L515,138Z" fill="#E0E0E0" stroke="#fff" stroke-width=".4"/><path d="M959,366L953,384L948,394L942,384L941,375L947,364L956,355L961,359Z" fill="#E0E0E0" stroke="#fff" stroke-width=".4"/><path d="M-226,67L-220,69L-219,66L-208,64L-206,69L-191,73L-192,81L-189,87L-198,85L-206,90L-206,98L-207,102L-204,110L-194,117L-188,129L-176,141L-168,141L-165,144L-168,147L-159,152L-151,156L-142,163L-141,166L-143,171L-149,164L-158,162L-162,171L-155,176L-156,183L-160,184L-166,196L-171,197L-171,193L-168,185L-166,183L-170,175L-173,168L-178,166L-181,160L-188,157L-193,152L-200,151L-209,144L-218,135L-226,127L-229,112L-234,110L-243,105L-248,107L-254,114L-258,115L-257,109L-263,107L-266,96L-262,91L-265,85L-265,81L-260,84L-255,83L-249,78L-247,81L-242,80L-240,74L-232,76L-227,73ZM-180,194L-172,193L-176,203L-175,207L-177,214L-185,209L-190,208L-205,201L-204,194L-191,195ZM-245,156L-240,151L-233,161L-235,180L-239,179L-244,183L-248,180L-248,163L-251,155Z" fill="#E0E0E0" stroke="#fff" stroke-width=".4"/><path d="M156,142L159,143L167,151L171,152L173,149L180,143L185,150L191,160L196,161L199,165L190,166L188,177L186,181L183,185L183,191L180,192L174,185L177,178L174,174L170,175L158,185L157,176L153,173L148,170L151,165L145,160L147,157L143,154L141,151L144,148L152,152L157,153L159,152L154,144ZM154,186L146,184L141,177L139,172L142,172L145,176L149,176L149,178Z" fill="#E0E0E0" stroke="#fff" stroke-width=".4"/><path d="M88,119L89,117L98,120L114,122L128,129L130,132L137,130L147,133L150,139L156,142L154,144L159,152L157,153L152,152L144,148L141,151L126,153L116,146L105,147L106,141L104,131L98,125L92,124Z" fill="#E0E0E0" stroke="#fff" stroke-width=".4"/><path d="M949,497L943,489L953,489L956,493L953,503ZM968,527L970,524L971,517L977,516L976,524L983,513L982,524L979,527L975,534L972,537L965,530ZM1008,544L1009,551L1010,557L1006,567L1002,556L997,561L1000,569L997,574L985,568L982,560L985,555L978,550L975,554L970,554L962,560L960,557L965,548L971,545L977,541L981,546L989,543L991,538L998,538L998,529L1006,534L1007,540ZM924,534L910,544L915,537L923,530L929,523L935,512L937,521L930,527ZM965,436L963,441L967,449L964,458L958,462L956,471L958,479L964,481L969,479L982,485L981,491L985,494L983,499L975,494L971,488L968,492L962,485L952,487L947,485L947,480L951,477L947,475L946,479L941,472L939,468L939,457L943,461L944,443L948,433L954,433L961,436L964,433ZM962,511L960,506L966,509L973,509L973,514L968,519L961,522L961,517ZM999,503L1002,515L993,512L994,516L996,523L991,525L991,518L987,517L986,510L992,511L992,507L985,499L996,499Z" fill="#E0E0E0" stroke="#fff" stroke-width=".4"/><path d="M-191,73L-182,74L-176,71L-167,70L-165,68L-163,68L-161,73L-170,77L-171,83L-174,85L-174,89L-179,89L-182,86L-184,89L-192,88L-189,87L-192,81Z" fill="#E0E0E0" stroke="#fff" stroke-width=".4"/><path d="M-33,-397L-35,-376L-18,-357L-28,-336L-16,-306L-23,-284L-13,-266L-18,-250L-2,-234L-6,-222L-16,-209L-39,-181L-58,-179L-77,-171L-94,-166L-100,-178L-111,-185L-108,-207L-113,-228L-108,-241L-99,-256L-74,-283L-67,-288L-68,-299L-83,-311L-87,-321L-87,-364L-104,-383L-118,-398L-111,-406L-100,-390L-86,-391L-74,-384L-64,-397L-59,-420L-42,-430L-29,-418Z" fill="#E0E0E0" stroke="#fff" stroke-width=".4"/><path d="M-97,32L-100,36L-102,43L-105,44L-116,40L-120,41L-122,44L-127,46L-128,45L-133,48L-138,48L-139,51L-147,53L-151,52L-157,48L-158,42L-157,40L-156,36L-151,37L-147,35L-147,34L-145,33L-144,29L-142,28L-140,25L-137,25L-136,26L-132,24L-127,30L-120,26L-115,28L-108,26Z" fill="#E0E0E0" stroke="#fff" stroke-width=".4"/><path d="M-178,-1L-173,4L-165,5L-165,10L-160,14L-158,9L-151,11L-150,16L-142,17L-137,25L-140,25L-142,28L-144,29L-145,33L-147,34L-147,35L-151,37L-156,36L-157,40L-162,37L-167,38L-175,33L-179,34L-185,41L-193,35L-199,29L-204,25L-205,18L-207,13L-200,9L-196,5L-188,2L-185,-2L-182,0Z" fill="#E0E0E0" stroke="#fff" stroke-width=".4"/><path d="M50,478L49,474L54,458L55,450L58,447L66,445L71,439L78,452L80,462L86,467L101,478L107,484L113,490L116,494L121,497L118,500L113,499L110,495L105,489L101,486L98,482L89,477L81,477L79,475L72,478L66,473L63,481Z" fill="#E0E0E0" stroke="#fff" stroke-width=".4"/><path d="M216,428L224,446L228,454L220,457L218,462L218,465L207,470L190,475L181,483L176,484L173,483L167,488L160,490L151,490L148,491L146,494L143,495L141,497L136,497L133,499L125,498L123,492L123,486L121,482L119,474L116,470L118,469L117,464L118,462L118,457L123,454L121,449L124,443L129,446L132,445L144,445L146,446L156,447L160,447L163,450L168,449L175,437L185,432Z" fill="#E0E0E0" stroke="#fff" stroke-width=".4"/><path d="M35,306L46,308L51,305L54,300L62,298L63,294L67,292L56,280L78,274L80,272L93,275L108,284L138,309L158,310L168,311L170,317L178,316L182,327L187,329L189,334L196,339L197,343L196,347L197,351L200,355L202,359L203,361L207,364L210,363L212,367L212,370L216,382L248,388L250,385L255,393L248,416L216,428L185,432L175,437L168,449L163,450L160,447L156,447L146,446L144,445L132,445L129,446L124,443L121,449L123,454L118,457L116,452L113,449L112,445L107,441L101,431L98,422L91,414L86,412L79,402L78,394L78,387L72,374L67,369L61,367L58,360L59,358L56,351L52,349L48,340L42,330L36,322L31,322L33,316L33,311Z" fill="#E0E0E0" stroke="#fff" stroke-width=".4"/><path d="M11,234L12,234L13,230L21,231L31,227L23,232L24,235L23,234L21,235L19,235L19,235L19,234L18,233L16,233L13,234Z" fill="#E0E0E0" stroke="#fff" stroke-width=".4"/><path d="M11,234L13,234L16,233L18,233L19,234L19,235L19,235L21,235L23,234L24,235L24,236L14,241L8,239L6,234Z" fill="#E0E0E0" stroke="#fff" stroke-width=".4"/><path d="M55,393L13,393L-29,393L-71,393L-71,351L-71,308L-75,298L-72,290L-74,285L-70,279L-56,279L-45,282L-35,286L-30,288L-22,284L-17,280L-8,279L-0,281L3,287L5,283L14,286L22,287L27,283L33,301L34,305L31,310L29,319L26,325L24,327L20,323L15,318L8,300L6,301L11,314L17,327L26,345L29,352L33,358L42,371L40,373L41,381L53,391Z" fill="#E0E0E0" stroke="#fff" stroke-width=".4"/><path d="M-71,393L-71,416L-84,416L-84,421L-126,399L-169,377L-179,383L-187,388L-193,381L-210,376L-215,369L-223,364L-228,366L-232,359L-232,354L-238,346L-234,341L-235,333L-234,327L-235,321L-233,311L-233,306L-237,295L-231,292L-231,287L-232,282L-224,277L-221,273L-216,269L-215,259L-203,264L-198,263L-189,265L-175,270L-170,282L-161,284L-146,289L-134,295L-129,292L-124,286L-127,277L-123,271L-116,265L-108,263L-94,266L-90,271L-86,271L-83,273L-72,275L-70,279L-74,285L-72,290L-75,298L-71,308L-71,351Z" fill="#E0E0E0" stroke="#fff" stroke-width=".4"/><path d="M171,548L141,580L127,581L118,588L111,589L108,592L101,592L96,588L87,593L84,597L76,596L74,595L72,595L68,595L55,586L47,586L44,583L44,577L38,575L32,563L27,561L25,556L20,551L13,550L17,544L23,544L24,541L24,531L27,520L32,517L33,512L38,504L44,499L49,488L50,478L63,481L66,473L72,478L79,475L81,477L89,477L98,482L101,486L105,489L110,495L113,499L110,504L106,509L107,512L107,515L113,515L115,515L118,517L116,520L119,526L123,532L127,535L162,548Z" fill="#E0E0E0" stroke="#fff" stroke-width=".4"/><path d="M113,499L118,500L121,497L124,501L123,505L117,508L122,511L118,517L115,515L113,515L107,515L107,512L106,509L110,504Z" fill="#E0E0E0" stroke="#fff" stroke-width=".4"/><path d="M-140,131L-149,125L-153,119L-158,116L-162,110L-165,106L-170,99L-168,92L-164,96L-162,93L-157,92L-147,95L-140,95L-135,98L-131,98L-134,105L-129,110L-130,117L-133,118L-135,119L-138,123Z" fill="#E0E0E0" stroke="#fff" stroke-width=".4"/><path d="M-99,135L-94,140L-93,149L-95,150L-97,152L-103,152L-107,155L-114,156L-118,153L-120,147L-118,142L-117,142L-117,139L-110,137L-108,137L-104,136Z" fill="#E0E0E0" stroke="#fff" stroke-width=".4"/><path d="M-137,82L-129,78L-122,79L-117,85L-115,90L-109,93L-108,99L-102,104L-98,100L-96,102L-98,105L-96,107L-99,111L-98,116L-93,123L-97,127L-99,132L-98,133L-99,135L-104,136L-108,137L-108,135L-107,134L-106,130L-107,130L-109,128L-111,127L-112,125L-114,124L-116,122L-118,122L-119,127L-122,128L-121,127L-125,124L-129,122L-130,120L-133,118L-130,117L-129,110L-134,105L-131,98L-135,98L-131,92L-135,88Z" fill="#E0E0E0" stroke="#fff" stroke-width=".4"/><path d="M-124,132L-127,133L-127,130L-132,137L-131,142L-134,141L-137,136L-141,133L-140,131L-138,123L-135,119L-133,118L-130,120L-129,122L-125,124L-121,127L-122,128Z" fill="#E0E0E0" stroke="#fff" stroke-width=".4"/><path d="M-118,142L-119,137L-122,135L-124,132L-122,128L-119,127L-118,122L-116,122L-114,124L-112,125L-111,127L-109,128L-107,130L-106,130L-107,134L-108,135L-108,137L-110,137L-117,139L-117,142Z" fill="#E0E0E0" stroke="#fff" stroke-width=".4"/></g><g clip-path="url(#v)"><path d="M417.8,136.5L418.1,136.2L418.7,135.9L419.7,136.4L420.6,137.1L420.8,137.4L420.7,137.7L418.6,138.9L417.4,139.5L416.8,139.6L416.6,139.8L416.2,141.1L415.4,141.4L414.4,141.8L413.7,142.4L412.5,144.0L409.6,146.2L409.6,146.6L409.8,147.0L410.7,147.2L412.0,147.9L412.7,148.4L414.5,147.7L415.0,147.9L415.5,148.6L416.0,150.5L416.8,151.1L417.9,151.5L418.6,151.6L419.5,152.1L420.7,152.3L421.5,152.1L422.5,152.5L422.7,152.3L422.8,149.4L423.6,149.9L424.1,149.9L424.5,149.5L424.8,149.0L424.9,148.1L424.7,147.1L425.1,146.7L425.4,146.6L425.6,146.7L425.7,146.9L425.8,147.8L426.4,148.2L426.8,148.4L427.1,149.1L427.5,149.8L427.7,151.5L428.5,151.6L429.5,151.9L430.2,151.6L430.7,151.8L430.9,152.6L430.9,153.3L430.9,153.9L431.2,154.0L432.1,153.7L432.8,153.6L433.5,154.0L434.4,154.5L435.6,155.9L436.0,156.1L437.8,156.2L438.2,156.5L438.8,156.5L439.5,156.2L441.0,156.7L441.1,156.9L440.8,157.3L437.2,159.2L436.9,159.7L436.2,160.5L435.4,160.9L435.0,160.9L433.2,160.2L433.0,160.3L432.9,160.7L432.9,161.0L433.3,161.8L433.1,162.3L432.8,162.7L431.7,162.3L431.4,162.1L431.4,161.9L431.0,161.9L430.4,162.1L429.1,163.5L428.6,164.2L428.5,164.6L427.9,164.9L427.3,165.0L426.5,165.6L425.7,166.1L425.4,165.8L425.2,165.3L425.0,165.2L424.5,165.3L423.8,165.3L423.2,164.9L422.3,164.4L421.6,164.3L419.3,164.5L418.2,164.7L417.9,164.9L417.3,165.0L414.6,165.4L414.1,165.3L413.7,164.5L413.3,163.7L412.7,163.4L411.9,163.2L411.6,162.9L411.6,162.5L411.7,162.1L411.7,161.9L413.5,160.4L415.1,159.0L415.3,158.9L415.4,158.6L415.6,158.2L415.6,157.9L414.5,157.3L414.4,157.1L414.7,156.8L414.7,156.5L413.8,155.5L412.4,153.9L411.9,153.8L411.6,153.9L411.0,155.4L410.8,155.8L409.1,156.8L407.7,157.5L405.3,158.7L404.6,159.1L404.1,159.0L403.7,158.8L402.3,157.5L401.4,157.1L400.8,157.5L400.3,158.1L400.4,159.4L399.8,160.0L399.2,160.3L400.2,163.7L400.2,164.1L399.4,164.2L399.9,165.5L399.4,165.6L398.2,165.3L396.5,165.2L393.3,165.7L393.1,165.9L393.0,166.2L393.2,166.5L394.7,166.5L396.3,166.3L396.7,166.6L396.7,167.0L396.6,167.3L396.1,167.3L394.9,167.5L394.8,167.8L394.8,168.1L395.1,168.8L395.6,169.3L395.6,169.5L395.4,169.8L395.2,169.9L394.9,169.5L394.6,169.6L394.6,169.9L394.5,170.2L394.2,170.5L393.7,170.4L393.2,170.5L392.9,171.8L392.6,173.3L391.8,174.3L391.3,174.7L390.6,174.8L389.6,174.6L389.0,174.5L387.2,174.3L385.4,173.9L383.4,173.5L381.5,174.4L381.0,174.9L380.6,175.4L380.3,175.6L379.5,178.7L379.5,179.1L380.0,179.4L382.3,180.0L382.6,180.2L382.8,180.5L382.9,181.9L383.1,182.1L383.9,182.3L385.1,182.3L385.9,182.1L386.9,182.3L387.5,182.6L387.8,183.0L387.9,183.5L386.9,186.6L387.0,187.7L387.3,189.2L387.9,190.4L389.0,191.7L389.9,192.4L390.1,192.8L390.2,193.3L390.0,194.1L389.5,195.2L388.9,196.2L388.2,196.6L387.3,197.9L386.5,199.4L384.9,201.4L384.4,202.6L384.2,205.8L383.8,206.8L383.8,206.4L383.2,206.0L382.2,206.1L381.5,205.9L381.2,205.5L380.4,205.6L379.1,206.3L377.8,205.9L376.5,204.6L373.9,204.1L370.6,204.4L370.5,202.9L370.5,201.0L370.7,198.5L371.8,196.6L371.8,196.2L371.5,195.8L371.2,195.5L369.2,195.0L368.7,194.7L367.9,194.0L366.9,193.4L366.1,192.9L364.8,192.3L363.6,192.0L362.8,192.3L362.2,192.6L361.6,192.6L361.0,192.4L358.7,190.9L355.2,188.3L352.5,186.5L350.8,185.7L350.4,185.4L349.5,184.6L347.1,182.4L345.5,182.7L343.3,181.2L341.3,179.8L340.8,179.5L338.5,176.9L336.2,175.2L333.7,173.3L332.1,172.2L329.4,170.2L328.1,169.0L327.6,168.6L327.2,167.7L326.5,163.6L325.7,161.7L324.5,160.7L323.5,158.7L322.7,155.7L322.0,153.8L321.5,152.9L320.4,151.9L318.7,150.9L317.1,150.3L316.6,150.4L316.3,150.5L316.0,150.7L315.3,151.5L314.4,151.6L313.8,151.5L313.1,151.3L311.1,151.0L310.4,150.7L309.2,150.8L306.7,151.2L306.0,151.1L303.3,149.3L302.2,148.6L301.9,148.2L301.9,147.5L302.3,146.5L302.7,145.8L302.5,145.1L302.0,144.3L302.0,143.5L302.4,143.0L303.1,143.1L303.3,142.8L303.2,142.4L302.8,142.1L302.4,141.3L300.8,140.7L300.6,140.4L300.7,140.1L300.9,139.8L301.0,139.1L301.0,138.1L301.2,137.7L301.3,137.3L301.0,137.0L300.5,136.6L299.7,135.8L298.7,135.7L295.4,135.7L294.3,135.4L293.5,134.9L292.7,133.1L292.3,132.7L291.8,132.5L290.9,132.4L289.8,132.3L289.2,131.9L287.7,130.3L286.2,128.8L285.6,130.2L285.0,130.5L283.7,130.4L282.7,130.1L282.1,130.4L281.5,131.0L281.6,131.4L282.1,131.7L283.0,132.4L284.4,134.2L285.0,135.1L285.1,135.5L284.9,135.7L284.8,135.8L284.5,135.8L284.1,135.8L283.9,135.5L283.8,135.0L283.4,134.3L282.9,133.9L282.4,133.6L281.7,133.4L280.7,133.0L280.2,133.0L279.7,133.4L279.3,134.0L279.1,135.2L278.4,136.7L277.9,137.3L276.6,137.7L273.3,137.8L272.3,138.3L271.7,138.8L270.5,140.7L269.6,141.2L268.9,142.1L269.1,144.7L269.5,147.9L270.1,148.7L270.5,149.0L270.5,149.3L270.3,149.6L270.0,149.9L269.5,150.5L268.9,150.5L267.8,150.3L266.9,150.2L263.7,150.0L261.2,149.8L258.4,149.7L258.4,146.4L258.4,143.2L258.4,139.9L258.4,136.6L258.4,133.3L258.4,130.0L258.4,126.6L258.4,123.3L258.4,119.9L258.4,116.5L258.4,113.2L258.4,109.8L258.4,106.4L258.4,102.9L258.4,99.5L258.4,96.1L259.7,95.6L261.4,95.1L263.0,94.6L264.9,93.9L267.1,93.2L268.9,92.7L271.1,92.0L272.8,91.4L274.3,90.9L276.4,90.3L279.5,89.3L281.2,88.8L283.0,88.3L284.7,87.8L285.8,87.6L287.0,88.3L288.5,89.3L290.0,90.3L291.4,91.3L292.9,92.3L294.4,93.3L295.9,94.3L297.3,95.3L298.8,96.3L300.3,97.2L301.7,98.2L303.2,99.2L304.7,100.2L306.1,101.2L307.6,102.2L309.1,103.2L310.6,104.2L311.9,105.1L312.5,105.7L312.9,107.2L313.5,108.4L314.7,109.7L316.0,111.0L317.5,112.7L318.5,113.9L319.6,115.1L321.3,117.1L322.4,118.4L323.3,118.4L325.0,118.1L327.4,117.7L329.3,117.4L331.5,117.0L333.7,116.7L335.4,116.4L337.9,116.6L340.4,116.8L342.2,117.0L343.9,117.1L346.0,117.3L347.2,117.4L348.5,117.5L349.1,117.2L350.2,116.6L351.3,116.0L352.4,115.4L353.4,115.1L354.5,116.1L355.3,117.2L356.2,118.4L357.3,119.5L358.3,120.2L359.7,121.1L360.5,122.6L361.6,124.7L362.3,126.0L363.0,127.4L364.0,126.8L365.1,126.2L366.2,125.7L366.0,127.4L365.9,129.0L365.7,131.3L365.6,133.2L365.2,135.5L365.2,137.2L365.2,138.8L365.2,140.0L367.1,140.0L368.6,140.1L370.4,140.1L370.6,141.6L370.8,143.7L371.2,145.6L371.5,147.2L372.0,149.3L372.2,150.4L372.6,151.7L373.1,152.0L373.8,152.2L376.1,152.1L378.1,151.9L379.7,151.8L381.3,151.7L383.6,151.6L384.3,151.9L384.9,151.7L385.7,151.5L386.3,152.4L386.6,152.9L387.0,153.4L387.6,153.8L387.3,154.8L387.0,156.2L386.9,156.9L387.6,157.7L388.1,158.2L389.5,159.1L390.8,159.6L391.7,159.7L392.5,159.5L392.8,159.0L392.7,158.3L392.3,157.5L392.3,156.6L392.6,156.0L393.4,154.8L394.2,153.7L395.4,152.5L396.9,151.3L397.5,150.5L397.7,149.1L398.7,148.2L399.7,147.7L400.9,147.3L401.3,146.6L403.0,145.3L404.1,144.7L405.4,144.3L407.3,143.6L408.7,142.6L410.1,140.8L411.2,139.6L412.1,138.9L412.9,138.9L413.4,139.5L413.9,139.5L414.2,139.2L414.7,138.5L415.3,137.6L415.8,137.2L416.8,137.0ZM414.6,155.1L414.6,154.8L414.3,154.2L413.8,153.9L413.5,154.0L413.7,154.5L414.3,155.2ZM420.5,169.7L420.0,169.9L419.0,169.8L418.4,169.7L418.8,168.6L418.8,168.3L418.8,168.3L418.5,168.2L418.0,167.7L417.9,167.0L418.1,166.4L418.4,166.1L418.6,166.2L419.2,167.1L419.7,167.4L420.7,167.6L420.2,168.5L420.6,169.5ZM426.6,168.9L426.3,169.5L425.8,169.4L425.4,169.0L425.6,168.7L426.1,168.5L426.5,168.3L426.7,168.3Z" fill="#4ECDC4" stroke="#2C3E50" stroke-width="1"/></g><circle cx="400.0" cy="150.0" r="4" fill="#E74C3C" stroke="#fff" stroke-width="2"/><text x="400.0" y="140.0" text-anchor="middle" font-family="sans-serif" font-weight="700" font-size="10" fill="#2D3436">Tashkent</text></svg>