<svg viewBox="0 0 800 300" xmlns="http://www.w3.org/2000/svg"><defs><clipPath id="v"><rect width="800" height="300"/></clipPath></defs><rect width="800" height="300" fill="#DCEEF8"/><g clip-path="url(#v)"><path d="M1502,-197L1533,-178L1566,-194L1598,-177L1599,-152L1565,-130L1544,-140L1525,-22L1484,-32L1433,-67L1351,-45L1316,-20L1213,-25L1160,-40L1133,-33L1113,-73L1100,-90L1116,-107L1099,-119L1077,-97L1036,-125L1031,-166L988,-190L980,-221L942,-261L998,-280L1041,-349L1074,-419L1116,-440L1147,-463L1190,-451L1234,-451L1267,-425L1291,-441L1342,-451L1360,-476L1389,-476L1410,-465L1432,-435L1454,-391L1495,-330L1497,-285L1489,-242Z" fill="#E0E0E0" stroke="#fff" stroke-width=".4"/><path d="M1366,740L1357,766L1257,773L1258,759L1172,742L1185,706L1224,734L1278,730L1330,736L1328,751ZM1133,202L1185,205L1241,180L1290,212L1353,203L1354,157L1388,182L1366,240L1350,250L1307,247L1271,239L1186,263L1235,314L1199,329L1161,329L1124,282L1111,302L1126,357L1161,399L1135,419L1174,460L1208,486L1209,536L1144,512L1165,557L1121,567L1147,644L1101,645L1044,607L1018,537L1005,478L978,437L942,385L938,360L970,316L974,286L997,273L998,248L1044,240L1071,220L1108,222L1120,206Z" fill="#E0E0E0" stroke="#fff" stroke-width=".4"/><path d="M998,248L997,273L974,286L970,316L938,360L926,353L924,333L886,303L880,259L885,196L895,167L883,152L879,122L909,76L913,93L932,85L947,111L964,120L968,154L960,186L969,226Z" fill="#E0E0E0" stroke="#fff" stroke-width=".4"/><path d="M687,-299L709,-286L762,-243L819,-224L845,-239L862,-200L885,-172L858,-134L826,-156L778,-155L718,-171L685,-169L670,-149L645,-171L630,-130L664,-84L680,-54L712,-18L738,3L765,43L827,79L819,95L753,60L713,26L649,-3L590,-74L604,-81L572,-122L571,-156L526,-171L505,-129L484,-162L486,-196L488,-198L537,-194L550,-211L573,-195L601,-193L601,-221L625,-231L632,-272Z" fill="#E0E0E0" stroke="#fff" stroke-width=".4"/><path d="M260,-338L302,-324L310,-343L379,-361L395,-326L495,-299L487,-249L504,-207L448,-221L392,-186L395,-137L387,-109L410,-59L475,-10L510,69L588,145L643,144L660,165L640,184L703,217L754,245L814,293L821,310L808,343L769,300L708,285L679,344L730,378L721,425L692,430L655,507L626,513L626,486L640,438L655,419L628,367L607,321L578,310L557,270L512,254L482,216L430,210L376,168L312,107L265,53L243,-43L208,-54L151,-86L119,-73L79,-28L50,-21L58,-63L20,-75L2,-151L26,-181L6,-219L8,-247L39,-226L72,-230L112,-264L124,-248L157,-251L172,-292L224,-279L254,-297ZM561,493L614,485L589,554L600,582L585,626L531,594L496,584L399,540L408,494L490,502ZM139,243L174,214L216,280L206,400L174,394L146,424L119,401L117,291L100,238Z" fill="#E0E0E0" stroke="#fff" stroke-width=".4"/><path d="M495,-299L552,-291L588,-314L649,-317L662,-334L674,-333L687,-299L632,-272L625,-231L601,-221L601,-193L573,-195L550,-211L537,-194L488,-198L504,-207L487,-249Z" fill="#E0E0E0" stroke="#fff" stroke-width=".4"/><path d="M827,79L765,43L738,3L712,-18L680,-54L664,-84L630,-130L645,-171L670,-149L685,-169L718,-171L778,-155L826,-156L858,-134L883,-135L866,-92L899,-54L889,-9L873,-4L859,4L837,27Z" fill="#E0E0E0" stroke="#fff" stroke-width=".4"/><path d="M1093,111L1128,141L1133,202L1120,206L1108,222L1071,220L1044,240L998,248L969,226L960,186L968,154L977,155L980,136L1022,121L1037,118L1061,112Z" fill="#E0E0E0" stroke="#fff" stroke-width=".4"/><path d="M845,-239L899,-265L942,-261L980,-221L988,-190L1031,-166L1036,-125L1077,-97L1099,-119L1116,-107L1100,-90L1113,-73L1095,-51L1102,-16L1135,26L1109,56L1097,86L1105,97L1093,111L1061,112L1037,118L1035,111L1043,99L1051,76L1041,77L1028,59L1016,54L1007,39L994,33L984,20L971,25L962,57L945,64L951,56L924,36L901,26L891,12L873,-4L889,-9L899,-54L866,-92L883,-135L858,-134L885,-172L862,-200Z" fill="#E0E0E0" stroke="#fff" stroke-width=".4"/><path d="M932,85L913,93L909,76L879,122L883,152L869,145L849,114L819,95L827,79L837,27L859,4L873,-4L891,12L901,26L924,36L951,56L945,64Z" fill="#E0E0E0" stroke="#fff" stroke-width=".4"/><path d="M968,154L964,120L947,111L932,85L945,64L962,57L971,25L984,20L994,33L1007,39L1016,54L1028,59L1041,77L1051,76L1043,99L1035,111L1037,118L1022,121L980,136L977,155Z" fill="#E0E0E0" stroke="#fff" stroke-width=".4"/></g><g clip-path="url(#v)"><path d="M399.3,150.1L398.5,150.3L398.5,149.9L398.5,149.4L399.3,149.4Z" fill="#4ECDC4" stroke="#2C3E50" stroke-width="1"/></g><circle cx="400.0" cy="150.0" r="4" fill="#E74C3C" stroke="#fff" stroke-width="2"/><text x="400.0" y="140.0" text-anchor="middle" font-family="sans-serif" font-weight="700" font-size="10" fill="#2D3436">Vatican City</text></svg>