<svg viewBox="0 0 800 300" xmlns="http://www.w3.org/2000/svg"><defs><clipPath id="v"><rect width="800" height="300"/></clipPath></defs><rect width="800" height="300" fill="#DCEEF8"/><g clip-path="url(#v)"><path d="M-331,-205L-330,-225L-348,-247L-331,-259L-326,-288L-332,-328L-323,-341L-269,-340L-227,-321L-209,-323L-196,-297L-158,-298L-160,-276L-129,-274L-95,-247L-121,-217L-154,-233L-186,-230L-209,-233L-222,-220L-248,-215L-259,-233L-282,-222L-310,-172L-328,-184Z" fill="#E0E0E0" stroke="#fff" stroke-width=".4"/><path d="M6,989L-7,997L-21,956L-40,934L-64,958L-200,956L-199,1000L-158,1007L-160,1034L-174,1027L-213,1038L-214,1089L-183,1115L-172,1155L-173,1185L-205,1377L-240,1339L-261,1338L-216,1266L-269,1234L-311,1240L-336,1228L-375,1246L-427,1238L-468,1164L-500,1146L-522,1113L-569,1080L-587,1087L-617,1070L-652,1047L-672,1058L-731,1049L-748,1019L-761,1020L-831,980L-840,958L-814,953L-817,918L-801,893L-766,888L-737,844L-710,807L-736,791L-723,750L-738,686L-723,667L-734,608L-762,571L-753,536L-731,541L-718,520L-734,479L-726,469L-690,471L-637,421L-608,414L-608,391L-595,331L-555,298L-511,296L-505,281L-451,287L-396,251L-368,235L-335,201L-310,205L-292,224L-305,248L-350,260L-368,296L-395,316L-415,343L-424,393L-443,435L-407,439L-398,472L-382,487L-377,516L-385,542L-383,556L-366,562L-349,587L-259,580L-219,589L-170,650L-141,642L-91,646L-51,638L-27,650L-39,688L-55,711L-60,761L-46,808L-26,829L-24,844L-59,879L-34,895L-16,919Z" fill="#E0E0E0" stroke="#fff" stroke-width=".4"/><path d="M435,713L444,732L418,759L340,785L290,796L270,813L214,795L163,786L150,793L181,811L178,858L188,902L247,908L251,923L201,942L193,972L164,983L112,1000L99,1021L44,1026L6,989L-16,919L-34,895L-59,879L-24,844L-26,829L-46,808L-60,761L-55,711L-39,688L-27,650L-51,638L-91,646L-141,642L-170,650L-219,589L-259,580L-349,587L-366,562L-383,556L-385,542L-377,516L-382,487L-398,472L-407,439L-443,435L-424,393L-415,343L-395,316L-368,296L-350,260L-305,248L-307,265L-348,273L-325,306L-326,343L-357,384L-331,440L-301,436L-285,384L-307,359L-310,306L-223,277L-233,243L-208,221L-183,271L-134,272L-89,312L-86,335L-24,336L51,328L91,360L145,369L184,347L185,329L271,325L355,324L295,345L319,378L375,383L428,418L439,475L475,473L503,490L447,531L441,557L465,583L448,596L405,608L406,640L387,659Z" fill="#E0E0E0" stroke="#fff" stroke-width=".4"/><path d="M727,944L711,946L672,940L649,959L618,971L595,974L588,988L553,984L511,951L505,919L488,884L499,824L518,800L502,767L478,756L487,726L471,710L435,713L387,659L406,640L405,608L448,596L465,583L441,557L447,531L503,490L549,516L592,562L594,598L620,600L658,634L685,658L674,722L631,740L635,756L622,792L653,843L676,843L685,883Z" fill="#E0E0E0" stroke="#fff" stroke-width=".4"/><path d="M47,-240L83,-233L96,-218L78,-200L25,-200L-16,-198L-20,-229L-10,-240Z" fill="#E0E0E0" stroke="#fff" stroke-width=".4"/><path d="M368,321L409,311L423,314L421,367L362,374L350,368L370,349Z" fill="#E0E0E0" stroke="#fff" stroke-width=".4"/></g><g clip-path="url(#v)"><path d="M403.9,149.4L401.9,150.6L396.6,145.7L397.4,140.1L400.4,137.0L403.4,135.2L406.4,135.0L407.5,139.7L406.7,146.2ZM400.2,161.1L399.2,161.9L399.7,161.9L399.2,162.5L398.9,161.9L398.2,161.6L397.7,161.5L396.6,161.5L396.6,160.9L397.7,161.3L399.4,160.9L399.4,160.4L398.9,159.9L398.7,159.5L399.2,158.9L401.2,157.7L401.9,157.0L402.2,157.3L402.2,157.5L402.2,157.8L402.4,158.0L401.4,159.0ZM392.6,182.5L392.1,182.6L391.4,182.4L391.6,182.1L392.4,182.0L392.6,181.5L392.6,180.9L392.6,180.2L393.1,179.8L393.6,179.7L393.9,179.9L394.1,180.7L393.6,181.2L393.4,181.5L393.1,182.1Z" fill="#4ECDC4" stroke="#2C3E50" stroke-width="1"/></g><circle cx="400.0" cy="150.0" r="4" fill="#E74C3C" stroke="#fff" stroke-width="2"/><text x="400.0" y="140.0" text-anchor="middle" font-family="sans-serif" font-weight="700" font-size="10" fill="#2D3436">Kingstown</text></svg>