<svg viewBox="0 0 800 300" xmlns="http://www.w3.org/2000/svg"><defs><clipPath id="v"><rect width="800" height="300"/></clipPath></defs><rect width="800" height="300" fill="#DCEEF8"/><g clip-path="url(#v)"><path d="M964,457L966,455L968,458L967,462L962,463L958,462L957,458L960,456ZM978,449L974,451L969,453L968,450L971,448L974,447L978,445L978,445L978,449ZM-1830,445L-1830,445L-1830,445L-1828,445L-1829,448L-1830,449L-1830,449L-1830,445Z" fill="#E0E0E0" stroke="#fff" stroke-width=".4"/><path d="M-161,325L-160,326L-132,342L-131,347L-120,354L-124,364L-123,369L-118,371L-118,373L-120,378L-120,381L-120,384L-117,389L-114,397L-111,399L-117,403L-126,407L-131,406L-133,409L-139,409L-141,410L-150,408L-156,408L-158,398L-161,394L-163,392L-170,390L-175,388L-180,387L-183,385L-186,383L-190,373L-195,369L-196,364L-196,360L-197,353L-194,353L-191,350L-188,346L-186,344L-186,342L-188,340L-188,337L-186,336L-185,331L-188,327L-186,326L-177,326Z" fill="#E0E0E0" stroke="#fff" stroke-width=".4"/><path d="M256,-124L250,-117L243,-115L243,-104L239,-99L223,-102L218,-82L214,-80L198,-75L205,-56L200,-54L200,-48L196,-49L192,-53L180,-54L167,-54L164,-53L153,-58L149,-55L148,-49L135,-53L130,-51L128,-47L123,-45L113,-37L110,-30L107,-30L105,-35L95,-35L93,-44L89,-44L90,-54L81,-62L67,-61L58,-60L51,-70L44,-74L32,-82L31,-83L11,-76L11,-37L7,-36L1,-44L-4,-47L-13,-45L-16,-42L-17,-44L-15,-48L-16,-52L-25,-56L-29,-65L-33,-68L-33,-72L-26,-71L-25,-79L-19,-81L-12,-79L-11,-90L-12,-97L-20,-96L-26,-99L-35,-94L-43,-92L-47,-94L-46,-99L-51,-107L-57,-107L-63,-115L-59,-124L-61,-126L-55,-139L-47,-132L-46,-141L-30,-155L-18,-155L-0,-146L9,-141L17,-147L30,-147L40,-141L42,-144L53,-144L55,-150L42,-158L50,-164L48,-168L56,-171L50,-180L54,-185L83,-189L87,-193L106,-198L113,-203L127,-200L130,-186L138,-190L148,-185L147,-178L155,-179L174,-191L171,-187L181,-177L199,-144L203,-151L214,-144L225,-147L229,-145L233,-138L238,-135L242,-130L252,-132Z" fill="#E0E0E0" stroke="#fff" stroke-width=".4"/><path d="M11,-37L11,-76L31,-83L32,-82L44,-74L51,-70L58,-60L67,-61L81,-62L90,-54L89,-44L93,-44L95,-35L105,-35L107,-30L110,-30L113,-37L123,-45L128,-47L130,-46L124,-39L129,-35L135,-37L144,-32L134,-25L128,-26L125,-25L124,-28L126,-33L115,-31L113,-24L109,-18L102,-19L100,-14L106,-12L108,-5L103,5L97,3L93,3L93,-3L83,-7L75,-12L70,-17L61,-24L57,-34L54,-36L46,-36L43,-38L42,-46L32,-52L25,-46L18,-42L20,-37Z" fill="#E0E0E0" stroke="#fff" stroke-width=".4"/><path d="M674,338L688,344L702,348L708,352L712,356L713,361L726,365L728,370L721,370L723,376L730,381L735,389L739,389L739,392L745,394L742,395L751,399L750,401L745,401L743,399L736,399L728,397L722,392L718,388L714,381L703,378L697,380L692,382L693,388L687,391L683,390L674,389L674,364ZM765,346L768,349L769,353L766,355L765,350L763,347L760,345L755,342L750,339L752,337L756,340L759,341L762,343ZM755,364L750,365L746,367L742,367L736,365L731,363L732,360L739,362L743,361L744,357L746,357L746,361L751,361L753,358L757,355L756,350L761,350L763,352L763,356L760,361L756,361ZM782,360L784,361L788,366L791,369L790,371L788,372L785,369L781,364L780,358L781,357Z" fill="#E0E0E0" stroke="#fff" stroke-width=".4"/><path d="M674,338L674,364L674,389L668,383L660,381L658,384L648,384L651,377L656,375L654,367L650,360L635,353L629,353L617,346L615,349L612,350L610,347L610,344L604,340L612,337L618,337L617,335L606,335L603,331L596,329L592,325L603,323L607,321L619,324L621,327L623,339L631,344L637,336L646,331L653,331L660,334L666,337ZM549,388L550,389L550,391L545,397L538,399L537,398L538,395L541,391ZM621,372L621,366L622,363L624,360L625,363L625,366ZM494,286L489,293L495,300L494,304L503,311L493,312L491,317L491,324L484,329L483,337L480,349L479,346L470,350L467,345L462,345L458,342L449,345L446,341L441,342L434,341L433,330L429,328L425,321L424,315L425,307L430,302L431,307L436,312L441,310L446,311L451,307L455,306L462,308L468,307L472,296L475,293L478,284L487,284ZM584,340L592,342L595,348L588,345L582,344L577,345L572,344L574,340ZM564,347L559,346L557,343L565,342L567,345ZM572,301L573,305L577,306L578,309L578,316L574,315L573,320L576,324L574,325L570,320L568,310L570,304ZM533,311L542,311L550,305L551,307L545,315L539,316L532,315L519,315L512,316L511,322L518,329L522,325L536,323L536,326L532,325L529,330L522,333L530,343L528,345L535,354L535,360L531,362L528,359L532,353L524,356L522,354L523,351L517,346L518,338L513,341L513,350L514,361L509,362L505,360L508,353L506,345L503,345L501,340L504,335L505,328L509,317L511,313L517,308L523,310ZM513,398L502,393L510,391L514,394L516,396L516,398ZM521,385L526,384L533,381L532,386L520,388L510,387L510,384L516,382ZM497,383L502,383L504,386L495,388L489,389L485,389L488,384L492,384L494,381ZM421,368L422,371L437,372L438,368L453,372L456,377L467,379L477,383L468,386L459,383L452,383L444,383L437,381L428,378L422,378L419,379L405,375L403,372L396,371L402,364L411,364L417,367ZM388,326L390,332L393,336L398,337L402,342L400,352L400,364L391,364L385,357L375,351L371,346L365,340L361,334L355,323L349,316L346,310L343,304L336,299L332,292L326,288L318,279L318,275L323,275L335,277L342,285L348,290L352,293L359,301L367,302L374,307L378,314L384,317L381,323L386,326Z" fill="#E0E0E0" stroke="#fff" stroke-width=".4"/><path d="M-197,353L-196,360L-196,364L-195,369L-190,373L-186,383L-189,382L-200,384L-202,385L-204,390L-202,393L-203,403L-204,411L-202,412L-197,415L-195,414L-194,422L-200,422L-203,418L-206,414L-212,413L-214,409L-219,412L-225,410L-228,407L-232,406L-236,406L-237,404L-239,404L-243,403L-248,404L-251,404L-253,405L-253,395L-255,393L-256,388L-255,383L-256,380L-256,375L-266,375L-265,372L-269,372L-269,374L-274,374L-276,378L-277,380L-282,379L-284,380L-289,381L-292,377L-294,374L-297,370L-298,364L-321,364L-324,365L-326,365L-330,366L-331,363L-329,362L-329,359L-327,357L-324,355L-322,356L-320,353L-315,353L-315,355L-312,357L-307,352L-303,348L-301,345L-301,339L-298,331L-294,327L-289,324L-288,321L-288,318L-287,316L-287,311L-286,304L-285,299L-282,295L-282,291L-281,285L-278,281L-274,279L-267,281L-263,284L-257,285L-251,286L-249,282L-248,281L-244,282L-235,278L-232,280L-230,279L-229,277L-226,277L-220,278L-215,278L-212,277L-208,283L-204,284L-202,283L-198,284L-194,282L-192,285L-185,290L-186,300L-183,301L-185,303L-188,306L-191,310L-193,313L-193,319L-195,322L-195,328L-197,331L-198,335L-199,336L-199,340L-197,344Z" fill="#E0E0E0" stroke="#fff" stroke-width=".4"/><path d="M-101,331L-106,325L-106,296L-99,287L-97,285L-92,285L-85,279L-75,279L-53,255L-48,249L-44,244L-44,240L-44,232L-44,228L-44,228L-41,228L-38,227L-34,226L-30,223L-27,223L-27,226L-28,230L-28,234L-29,237L-31,246L-35,255L-40,265L-47,276L-53,285L-63,296L-70,302L-82,310L-89,316L-98,325L-100,329Z" fill="#E0E0E0" stroke="#fff" stroke-width=".4"/><path d="M-120,354L-131,347L-132,342L-160,326L-161,325L-161,317L-159,314L-155,309L-152,303L-156,294L-157,290L-161,285L-156,280L-150,275L-146,276L-146,281L-144,283L-138,283L-128,290L-126,290L-124,290L-122,291L-117,291L-115,288L-108,285L-105,287L-99,287L-106,296L-106,325L-101,331L-107,334L-109,337L-112,338L-113,343L-115,347L-117,352Z" fill="#E0E0E0" stroke="#fff" stroke-width=".4"/><path d="M-234,253L-240,250L-243,248L-243,245L-242,242L-242,239L-247,234L-247,230L-247,228L-250,226L-250,221L-252,218L-255,219L-254,216L-252,213L-253,209L-250,207L-252,205L-250,200L-246,194L-239,195L-240,162L-240,159L-231,159L-231,142L-199,142L-169,142L-138,142L-136,150L-137,152L-136,160L-133,170L-130,172L-126,175L-130,180L-136,181L-138,184L-139,189L-142,201L-142,204L-143,211L-146,219L-151,223L-154,229L-155,232L-159,234L-161,243L-161,250L-161,244L-162,244L-162,240L-163,237L-167,234L-168,228L-167,222L-170,222L-171,223L-176,224L-174,226L-173,231L-177,235L-181,241L-185,242L-192,237L-195,239L-196,241L-200,243L-200,244L-208,244L-209,243L-214,242L-217,244L-219,243L-223,238L-225,236L-230,237L-232,241L-234,248L-237,250L-239,250Z" fill="#E0E0E0" stroke="#fff" stroke-width=".4"/><path d="M306,-820L323,-831L338,-806L356,-761L354,-723L337,-718L315,-730L302,-746L296,-778L286,-787ZM376,-740L396,-717L394,-701L350,-686L364,-738L371,-743ZM657,-624L678,-623L706,-606L700,-583L671,-584L658,-577L643,-596L647,-618ZM731,-599L750,-591L741,-579L729,-582L714,-594L716,-604ZM665,-542L673,-553L683,-555L694,-545L695,-537L683,-537L667,-540ZM-76,-798L-61,-807L-49,-808L-47,-795L-43,-806L-35,-814L-24,-804L-27,-796L-37,-790L-44,-787L-45,-779L-55,-772L-63,-782L-59,-797ZM-248,-189L-263,-189L-272,-190L-271,-196L-260,-201L-252,-198L-248,-196L-249,-192ZM-8,-552L10,-577L8,-591L26,-607L51,-628L77,-634L91,-647L106,-651L111,-638L106,-627L78,-611L55,-596L30,-568L19,-541L7,-515L8,-494L23,-475L18,-473L-7,-476L-9,-486L-23,-493L-24,-506L-16,-512L-17,-526L-1,-549ZM689,-181L692,-168L692,-156L695,-143L703,-122L691,-126L686,-108L694,-97L694,-89L688,-96L683,-87L681,-96L682,-108L681,-120L683,-129L683,-146L679,-158L680,-175L687,-181L684,-188L687,-190ZM-1830,-435L-1830,-435L-1811,-418L-1791,-398L-1791,-386L-1786,-381L-1788,-395L-1767,-392L-1751,-374L-1759,-366L-1772,-364L-1772,-346L-1775,-342L-1782,-342L-1788,-349L-1799,-354L-1800,-362L-1808,-365L-1817,-363L-1822,-369L-1820,-376L-1829,-372L-1826,-363L-1830,-355L-1830,-355L-1830,-435ZM978,-355L978,-355L968,-347L958,-348L965,-339L970,-324L974,-320L974,-313L972,-308L958,-312L936,-299L929,-297L917,-286L906,-276L903,-269L892,-280L872,-268L868,-273L861,-267L850,-269L848,-259L838,-244L838,-238L847,-235L846,-214L839,-214L836,-202L839,-196L825,-189L823,-174L811,-171L809,-158L797,-146L795,-155L791,-174L787,-203L791,-223L797,-231L798,-238L810,-241L824,-260L837,-276L851,-289L857,-312L848,-311L843,-297L823,-279L817,-299L797,-294L777,-267L784,-258L766,-254L754,-252L755,-263L743,-265L733,-258L709,-261L684,-256L658,-227L628,-194L641,-193L645,-184L652,-181L657,-188L666,-187L677,-173L677,-162L671,-149L670,-134L667,-115L655,-99L653,-91L642,-78L631,-65L626,-59L616,-52L611,-52L606,-57L596,-50L594,-46L594,-46L593,-48L593,-53L597,-54L598,-66L596,-76L603,-80L613,-78L618,-89L621,-101L624,-105L628,-116L615,-112L608,-108L596,-108L593,-119L584,-127L570,-131L567,-143L565,-151L562,-156L557,-169L550,-174L538,-177L528,-177L518,-175L512,-168L516,-165L516,-158L512,-154L505,-141L505,-136L494,-128L484,-133L475,-132L471,-136L466,-137L455,-128L445,-126L438,-123L428,-125L420,-125L416,-131L408,-137L400,-139L390,-137L383,-135L372,-140L370,-149L361,-153L354,-154L345,-159L337,-146L341,-139L333,-131L322,-134L314,-134L309,-140L301,-140L294,-144L282,-138L267,-128L259,-125L256,-124L252,-132L242,-130L238,-135L233,-138L229,-145L225,-147L214,-144L203,-151L199,-144L181,-177L171,-187L174,-191L155,-179L147,-178L148,-185L138,-190L130,-186L127,-200L113,-203L106,-198L87,-193L83,-189L54,-185L50,-180L56,-171L48,-168L50,-164L42,-158L55,-150L53,-144L42,-144L40,-141L30,-147L17,-147L9,-141L-0,-146L-18,-155L-30,-155L-46,-141L-47,-132L-55,-139L-61,-126L-59,-124L-63,-115L-57,-107L-51,-107L-46,-99L-47,-94L-43,-92L-46,-85L-54,-83L-62,-72L-55,-61L-55,-54L-47,-42L-51,-38L-53,-35L-56,-36L-62,-42L-64,-42L-69,-45L-71,-49L-78,-51L-83,-50L-84,-52L-95,-57L-107,-58L-113,-60L-114,-59L-124,-68L-133,-72L-140,-79L-134,-81L-128,-90L-132,-94L-120,-99L-121,-102L-128,-100L-127,-105L-123,-108L-116,-109L-115,-113L-116,-119L-113,-126L-113,-129L-125,-133L-129,-133L-134,-139L-140,-137L-150,-141L-150,-143L-153,-149L-159,-149L-159,-153L-157,-156L-162,-163L-171,-162L-173,-162L-175,-159L-178,-160L-180,-168L-182,-172L-180,-174L-174,-173L-171,-176L-173,-180L-178,-182L-178,-184L-181,-187L-186,-196L-184,-199L-185,-206L-193,-209L-197,-207L-198,-211L-206,-214L-208,-223L-209,-229L-213,-233L-210,-237L-212,-251L-206,-260L-208,-263L-199,-271L-207,-279L-190,-299L-183,-309L-180,-318L-191,-329L-188,-341L-195,-355L-190,-371L-199,-393L-192,-408L-204,-422L-203,-437L-196,-439L-183,-448L-175,-456L-162,-442L-141,-437L-111,-413L-105,-403L-105,-390L-114,-379L-126,-374L-161,-389L-167,-387L-154,-372L-154,-364L-153,-345L-143,-339L-137,-335L-136,-343L-141,-351L-136,-358L-117,-347L-110,-351L-116,-365L-97,-384L-90,-382L-83,-376L-78,-389L-85,-401L-81,-413L-87,-426L-65,-420L-61,-408L-70,-405L-70,-394L-64,-387L-52,-392L-50,-404L-34,-414L-7,-432L-1,-431L-9,-418L1,-416L7,-424L21,-424L33,-433L42,-420L51,-434L43,-447L47,-454L70,-448L80,-441L109,-416L114,-427L106,-439L106,-443L96,-446L99,-456L95,-474L95,-482L109,-504L114,-528L120,-533L141,-526L142,-511L135,-491L140,-483L142,-467L140,-436L149,-423L146,-409L130,-380L139,-378L142,-385L151,-390L153,-400L160,-409L155,-421L159,-435L150,-437L148,-449L155,-472L145,-492L158,-509L157,-527L161,-528L165,-513L162,-489L170,-485L166,-503L179,-513L196,-514L210,-500L203,-521L202,-549L216,-555L235,-554L252,-557L245,-572L254,-592L263,-593L278,-608L299,-612L302,-621L322,-624L328,-617L346,-634L360,-634L362,-648L370,-663L388,-678L402,-666L391,-657L409,-652L411,-635L418,-644L441,-643L458,-627L465,-615L463,-598L454,-589L434,-573L428,-564L437,-560L449,-553L456,-559L460,-541L463,-548L476,-552L501,-548L503,-535L535,-531L536,-552L552,-547L565,-547L577,-533L581,-516L576,-505L586,-486L598,-476L606,-502L619,-491L632,-497L647,-490L653,-497L665,-493L660,-516L670,-528L706,-521L741,-511L747,-496L768,-477L799,-482L815,-478L821,-468L820,-452L830,-445L840,-450L854,-450L869,-446L884,-448L897,-429L907,-436L901,-450L904,-460L929,-454L945,-455L968,-444L978,-435L978,-355ZM978,-477L970,-476L969,-484L978,-494L978,-477ZM-1830,-494L-1830,-494L-1830,-494L-1829,-495L-1822,-495L-1811,-488L-1812,-484L-1820,-479L-1830,-477L-1830,-477L-1830,-494ZM-165,-87L-163,-90L-157,-87L-155,-87L-154,-85L-153,-84L-153,-83L-149,-81L-141,-81L-142,-77L-151,-75L-161,-69L-166,-71L-164,-76L-173,-80L-171,-82L-164,-86Z" fill="#E0E0E0" stroke="#fff" stroke-width=".4"/><path d="M549,388L550,386L557,384L562,384L565,383L568,384L565,386L557,389L550,391L550,389Z" fill="#E0E0E0" stroke="#fff" stroke-width=".4"/><path d="M-298,551L-295,546L-291,549L-290,553L-287,553L-282,555L-278,554L-271,550L-271,517L-268,519L-264,527L-265,532L-263,535L-257,534L-253,530L-250,528L-248,524L-244,522L-241,523L-237,525L-231,526L-226,524L-225,521L-223,517L-219,516L-217,513L-214,507L-207,501L-196,495L-193,495L-189,496L-187,495L-182,496L-179,508L-177,514L-178,524L-177,527L-181,525L-184,526L-184,528L-186,532L-186,535L-182,539L-177,538L-176,534L-170,535L-172,541L-173,548L-175,552L-180,557L-181,558L-185,563L-187,567L-191,574L-200,583L-206,589L-212,593L-220,597L-224,597L-225,600L-229,598L-233,600L-242,598L-246,599L-250,599L-258,603L-264,604L-269,608L-273,608L-276,605L-279,604L-282,600L-282,602L-283,599L-283,594L-286,587L-283,586L-284,579L-289,570L-293,562L-293,562ZM-200,554L-203,551L-207,553L-211,557L-215,562L-209,569L-207,568L-205,565L-201,564L-199,561L-197,557Z" fill="#E0E0E0" stroke="#fff" stroke-width=".4"/><path d="M-182,496L-187,495L-189,496L-193,495L-196,495L-201,491L-207,490L-209,484L-209,481L-213,480L-222,471L-224,467L-226,465L-229,459L-220,459L-217,460L-215,460L-210,455L-204,448L-201,448L-200,445L-196,441L-190,440L-189,443L-183,443L-179,445L-177,447L-174,448L-170,450L-170,461L-171,466L-171,472L-170,475L-171,480L-172,480L-174,486Z" fill="#E0E0E0" stroke="#fff" stroke-width=".4"/><path d="M-196,495L-207,501L-214,507L-217,513L-219,516L-223,517L-225,521L-226,524L-231,526L-237,525L-241,523L-244,522L-248,524L-250,528L-253,530L-257,534L-263,535L-265,532L-264,527L-268,519L-271,517L-271,493L-263,492L-263,463L-257,462L-245,460L-242,463L-237,460L-234,460L-230,458L-229,459L-226,465L-224,467L-222,471L-213,480L-209,481L-209,484L-207,490L-201,491Z" fill="#E0E0E0" stroke="#fff" stroke-width=".4"/><path d="M-186,383L-183,385L-180,387L-175,388L-170,390L-167,394L-165,400L-166,403L-167,409L-166,416L-168,418L-171,426L-167,428L-190,435L-190,440L-196,441L-200,445L-201,448L-204,448L-210,455L-215,460L-217,460L-220,459L-229,459L-230,458L-230,457L-233,455L-238,455L-245,457L-250,452L-255,445L-255,419L-238,419L-239,417L-238,414L-239,410L-238,406L-239,404L-237,404L-236,406L-232,406L-228,407L-225,410L-219,412L-214,409L-212,413L-206,414L-203,418L-200,422L-194,422L-195,414L-197,415L-202,412L-204,411L-203,403L-202,393L-204,390L-202,385L-200,384L-189,382Z" fill="#E0E0E0" stroke="#fff" stroke-width=".4"/><path d="M-170,390L-163,392L-161,394L-158,398L-156,408L-158,414L-156,425L-153,425L-151,427L-147,433L-147,444L-150,445L-152,451L-158,446L-158,440L-156,436L-157,433L-160,431L-162,432L-167,428L-171,426L-168,418L-166,416L-167,409L-166,403L-165,400L-167,394Z" fill="#E0E0E0" stroke="#fff" stroke-width=".4"/><path d="M-156,408L-150,408L-141,410L-139,409L-133,409L-131,406L-126,407L-117,403L-111,399L-110,402L-110,410L-109,417L-109,430L-108,434L-110,440L-113,445L-118,450L-125,453L-134,457L-143,466L-146,468L-151,473L-154,475L-155,481L-151,488L-150,493L-150,495L-148,495L-149,503L-150,507L-148,508L-149,512L-152,515L-159,518L-168,523L-172,526L-171,529L-169,530L-170,535L-176,534L-176,531L-177,527L-178,524L-177,514L-179,508L-182,496L-174,486L-172,480L-171,480L-170,475L-171,472L-171,466L-170,461L-170,450L-174,448L-177,447L-179,445L-183,443L-189,443L-190,440L-190,435L-167,428L-162,432L-160,431L-157,433L-156,436L-158,440L-158,446L-152,451L-150,445L-147,444L-147,433L-151,427L-153,425L-156,425L-158,414Z" fill="#E0E0E0" stroke="#fff" stroke-width=".4"/><path d="M-188,337L-188,340L-186,342L-186,344L-188,346L-191,350L-194,353L-197,353L-197,344L-199,340L-195,341L-192,336Z" fill="#E0E0E0" stroke="#fff" stroke-width=".4"/><path d="M-147,48L-148,51L-151,49L-153,55L-151,56L-153,58L-153,60L-150,59L-149,62L-153,77L-154,74L-158,61L-156,58L-157,58L-155,53L-153,46L-152,44L-152,44L-149,44L-148,42L-146,42L-146,46L-147,48Z" fill="#E0E0E0" stroke="#fff" stroke-width=".4"/><path d="M-146,42L-148,42L-149,44L-152,44L-149,36L-145,30L-145,29L-141,30L-140,34L-144,37Z" fill="#E0E0E0" stroke="#fff" stroke-width=".4"/><path d="M-39,416L-37,419L-35,425L-34,434L-32,438L-33,442L-34,444L-37,440L-38,442L-37,448L-37,451L-40,453L-40,460L-43,470L-47,481L-52,497L-55,509L-58,519L-65,521L-72,525L-76,522L-82,519L-84,515L-85,507L-88,500L-88,494L-87,488L-83,487L-83,484L-80,478L-79,473L-81,469L-82,463L-83,456L-80,451L-79,446L-75,446L-71,444L-68,443L-64,443L-60,438L-54,433L-51,429L-52,426L-49,426L-45,421L-45,416L-42,413Z" fill="#E0E0E0" stroke="#fff" stroke-width=".4"/><path d="M-150,59L-153,60L-153,58L-151,56L-153,55L-151,49L-148,51L-148,56Z" fill="#E0E0E0" stroke="#fff" stroke-width=".4"/><path d="M-148,51L-147,48L-138,51L-123,41L-120,53L-122,54L-137,59L-129,68L-132,69L-133,72L-139,74L-141,77L-144,80L-153,78L-153,77L-149,62L-150,59L-148,56Z" fill="#E0E0E0" stroke="#fff" stroke-width=".4"/><path d="M-23,123L-22,122L-22,125L-16,123L-9,124L-4,124L1,118L7,113L12,107L13,110L14,117L10,117L10,123L11,124L7,125L7,129L5,132L5,136L3,138L-20,133L-23,125Z" fill="#E0E0E0" stroke="#fff" stroke-width=".4"/><path d="M-29,118L-30,112L-28,108L-26,107L-23,109L-23,114L-25,120L-27,120Z" fill="#E0E0E0" stroke="#fff" stroke-width=".4"/><path d="M-52,73L-50,77L-51,79L-48,85L-54,86L-56,81L-62,80L-57,72Z" fill="#E0E0E0" stroke="#fff" stroke-width=".4"/><path d="M-120,53L-123,41L-106,32L-103,20L-104,13L-99,11L-95,5L-92,3L-83,4L-80,7L-77,5L-71,17L-66,20L-66,25L-70,28L-71,36L-66,45L-57,50L-52,57L-54,63L-51,63L-51,68L-47,73L-52,73L-57,72L-62,80L-77,80L-99,62L-111,55Z" fill="#E0E0E0" stroke="#fff" stroke-width=".4"/><path d="M5,136L5,132L7,129L7,125L11,124L10,123L10,117L14,117L18,123L22,126L28,127L32,129L36,133L38,136L41,137L41,139L38,144L37,147L33,149L30,155L27,155L25,157L24,161L25,166L24,167L21,167L16,170L15,174L13,176L8,176L5,178L5,181L2,184L-3,183L-8,186L-11,186L-14,180L-20,167L3,159L8,142ZM13,110L12,107L14,104L15,105L14,109Z" fill="#E0E0E0" stroke="#fff" stroke-width=".4"/><path d="M879,443L884,448L881,449L878,446ZM875,442L874,439L874,433L878,436L879,442L877,441Z" fill="#E0E0E0" stroke="#fff" stroke-width=".4"/><path d="M375,222L373,212L378,206L388,204L395,205L402,209L405,203L412,206L414,211L413,221L400,227L403,232L395,232L388,236L382,234L378,230Z" fill="#E0E0E0" stroke="#fff" stroke-width=".4"/><path d="M395,205L388,204L378,206L373,212L375,222L368,218L361,219L362,212L355,212L355,221L350,233L348,240L348,245L353,246L357,253L358,260L362,264L367,265L371,269L369,272L363,273L363,269L356,266L355,267L352,264L351,260L346,256L343,252L341,257L340,253L341,248L343,240L347,232L351,224L348,217L348,213L347,209L342,203L340,198L343,197L346,190L343,185L338,179L334,171L337,170L341,161L346,161L351,157L355,155L359,158L359,163L364,163L362,172L363,179L371,174L373,176L378,175L379,173L385,173L391,180L392,188L398,195L398,202Z" fill="#E0E0E0" stroke="#fff" stroke-width=".4"/><path d="M412,206L405,203L402,209L395,205L398,202L398,195L392,188L391,180L385,173L379,173L378,175L373,176L371,174L363,179L362,172L364,163L359,163L359,158L355,155L357,152L364,147L364,149L368,149L367,139L371,138L376,145L379,152L389,152L392,160L387,162L385,165L394,170L401,179L406,186L411,192L413,198Z" fill="#E0E0E0" stroke="#fff" stroke-width=".4"/><path d="M355,155L351,157L346,161L341,161L337,170L334,171L338,179L343,185L346,190L343,197L340,198L342,203L347,209L348,213L348,217L351,224L347,232L343,240L342,234L345,228L342,223L343,215L340,210L337,201L336,191L332,184L327,188L318,194L314,193L309,191L312,181L310,173L304,164L305,161L300,160L295,153L294,146L297,148L297,142L301,140L300,136L302,133L302,124L308,126L312,119L312,115L317,108L316,103L326,97L332,98L331,93L334,91L334,88L338,87L341,92L344,95L344,101L344,108L337,116L336,126L344,124L346,132L351,134L348,141L354,144L358,146L363,143L364,147L357,152Z" fill="#E0E0E0" stroke="#fff" stroke-width=".4"/><path d="M594,-46L594,-46L594,-46ZM593,-48L594,-46L592,-47L588,-43L586,-40L586,-32L582,-30L581,-28L578,-25L573,-23L569,-21L569,-16L568,-15L571,-14L576,-9L574,-7L571,-6L566,-6L563,-1L559,-1L559,-1L555,-2L554,-1L552,0L551,-2L549,-3L547,-4L549,-9L551,-10L550,-12L552,-17L552,-19L547,-20L544,-22L550,-29L559,-35L564,-42L568,-39L574,-38L573,-44L585,-48L588,-54Z" fill="#E0E0E0" stroke="#fff" stroke-width=".4"/><path d="M559,-1L559,-1L563,-1L566,-6L571,-6L574,-7L576,-9L582,3L584,9L584,20L581,25L574,27L568,31L561,32L560,27L562,20L558,9L564,8Z" fill="#E0E0E0" stroke="#fff" stroke-width=".4"/><path d="M259,-125L267,-128L282,-138L294,-144L301,-140L309,-140L314,-134L322,-134L333,-131L341,-139L337,-146L345,-159L354,-154L361,-153L370,-149L372,-140L383,-135L390,-137L400,-139L408,-137L416,-131L420,-125L428,-125L438,-123L445,-126L455,-128L466,-137L471,-136L475,-132L484,-133L481,-123L475,-112L477,-107L482,-108L489,-107L495,-111L502,-107L509,-99L508,-95L502,-96L490,-95L485,-92L479,-84L467,-80L459,-74L451,-76L447,-77L443,-70L445,-66L447,-62L441,-59L436,-53L426,-49L415,-49L402,-45L393,-40L390,-43L380,-43L369,-49L361,-51L351,-49L334,-52L326,-51L321,-58L318,-68L313,-69L303,-76L293,-77L284,-79L281,-84L284,-97L279,-107L267,-111L261,-117Z" fill="#E0E0E0" stroke="#fff" stroke-width=".4"/><path d="M334,88L334,91L331,93L332,98L326,97L316,103L317,108L312,115L312,119L308,126L302,124L302,133L300,136L301,140L297,142L293,128L291,128L290,134L285,129L288,124L291,124L295,117L290,115L283,115L276,114L275,108L271,108L265,104L262,110L268,114L263,117L261,121L266,123L265,128L268,134L269,141L268,144L262,144L253,146L253,152L249,157L238,163L229,173L223,178L215,183L215,187L212,189L204,192L201,192L199,198L200,209L201,216L197,223L197,237L193,237L190,243L192,246L185,248L182,253L179,256L172,248L168,237L165,229L162,225L158,218L156,208L155,203L148,191L145,176L142,165L142,155L141,147L129,152L124,151L114,141L118,138L115,135L106,128L111,122L128,122L127,114L123,110L122,103L117,99L125,90L134,91L142,82L147,73L155,63L155,57L161,52L155,47L152,41L150,33L153,28L165,31L174,29L181,21L190,32L189,40L192,45L192,50L186,48L188,59L196,64L207,71L202,75L199,83L207,87L214,91L224,96L235,97L239,101L245,102L255,104L261,104L262,101L261,95L262,91L266,89L267,96L267,98L274,101L279,100L286,101L292,100L293,95L290,92L296,91L303,85L312,79L319,81L324,77L328,83L325,87Z" fill="#E0E0E0" stroke="#fff" stroke-width=".4"/><path d="M297,142L297,148L294,146L295,153L293,149L292,144L291,140L287,135L280,135L281,139L278,143L275,142L274,143L272,142L269,141L268,134L265,128L266,123L261,121L263,117L268,114L262,110L265,104L271,108L275,108L276,114L283,115L290,115L295,117L291,124L288,124L285,129L290,134L291,128L293,128Z" fill="#E0E0E0" stroke="#fff" stroke-width=".4"/><path d="M290,92L293,95L292,100L286,101L279,100L274,101L267,98L267,96L272,90L276,88L282,90L286,90Z" fill="#E0E0E0" stroke="#fff" stroke-width=".4"/><path d="M262,91L261,95L262,101L261,104L255,104L245,102L239,101L235,97L224,96L214,91L207,87L199,83L202,75L207,71L210,69L216,71L224,77L229,78L231,83L237,84L244,88L253,90Z" fill="#E0E0E0" stroke="#fff" stroke-width=".4"/><path d="M181,21L174,29L165,31L153,28L150,33L152,41L155,47L161,52L155,57L155,63L147,73L142,82L134,91L125,90L117,99L122,103L123,110L127,114L128,122L111,122L106,128L100,125L98,119L92,113L78,114L65,114L54,116L57,106L68,101L68,97L64,96L64,88L56,84L53,79L49,74L62,78L70,77L75,78L76,76L82,77L92,73L92,66L96,61L102,61L103,58L109,57L112,58L115,55L115,49L118,44L123,42L120,35L127,36L129,32L129,29L133,25L132,20L130,16L135,12L143,9L152,8L156,7L161,5L166,10L169,17Z" fill="#E0E0E0" stroke="#fff" stroke-width=".4"/><path d="M93,3L97,3L103,5L106,7L111,3L114,5L117,1L121,1L122,-0L123,-4L127,-8L131,-6L130,-3L132,-2L132,6L135,9L137,7L141,6L146,2L151,3L159,3L161,5L156,7L152,8L143,9L135,12L130,16L132,20L133,25L129,29L129,32L127,36L120,35L123,42L118,44L115,49L115,55L112,58L109,57L103,58L102,61L96,61L92,66L92,73L82,77L76,76L75,78L70,77L62,78L49,74L56,66L56,60L50,58L49,52L46,45L50,40L46,39L49,32L52,20L60,23L66,22L67,18L73,16L78,13L79,6L86,4L87,0L91,3Z" fill="#E0E0E0" stroke="#fff" stroke-width=".4"/><path d="M103,5L108,-5L106,-12L100,-14L102,-19L109,-18L113,-24L115,-31L126,-33L124,-28L125,-25L128,-26L125,-22L117,-24L116,-18L125,-19L134,-16L149,-17L151,-8L154,-9L158,-7L158,-3L159,3L151,3L146,2L141,6L137,7L135,9L132,6L132,-2L130,-3L131,-6L127,-8L123,-4L122,-0L121,1L117,1L114,5L111,3L106,7Z" fill="#E0E0E0" stroke="#fff" stroke-width=".4"/><path d="M128,-47L130,-51L135,-53L148,-49L149,-55L153,-58L164,-53L167,-54L180,-54L192,-53L196,-49L200,-48L199,-45L187,-39L184,-35L174,-34L171,-28L163,-29L158,-27L150,-22L151,-20L149,-17L134,-16L125,-19L116,-18L117,-24L125,-22L128,-26L134,-25L144,-32L135,-37L129,-35L124,-39L130,-46Z" fill="#E0E0E0" stroke="#fff" stroke-width=".4"/><path d="M-16,-42L-13,-45L-4,-47L1,-44L7,-36L11,-37L20,-37L18,-42L25,-46L32,-52L42,-46L43,-38L46,-36L54,-36L57,-34L61,-24L70,-17L75,-12L83,-7L93,-3L93,3L91,3L87,0L86,4L79,6L78,13L73,16L67,18L66,22L60,23L52,20L51,12L45,11L36,3L30,2L21,-3L16,-4L12,-2L7,-3L2,3L-5,5L-7,-2L-5,-13L-12,-16L-10,-23L-15,-23L-13,-32L-6,-30L1,-33L-4,-39L-7,-45L-13,-42L-14,-35Z" fill="#E0E0E0" stroke="#fff" stroke-width=".4"/><path d="M-47,73L-51,68L-51,63L-54,63L-52,57L-57,50L-66,45L-71,36L-70,28L-66,25L-66,20L-71,17L-77,5L-81,-3L-79,-6L-82,-17L-76,-20L-75,-16L-71,-12L-66,-10L-63,-11L-54,-18L-51,-19L-49,-16L-51,-11L-46,-6L-44,-6L-42,1L-35,3L-29,8L-18,10L-6,7L-5,5L2,3L7,-3L12,-2L16,-4L21,-3L30,2L36,3L45,11L51,12L52,20L49,32L46,39L50,40L46,45L49,52L50,58L56,60L56,66L49,74L53,79L56,84L64,88L64,96L68,97L68,101L57,106L54,116L39,113L31,111L22,110L19,99L15,98L9,99L1,104L-8,101L-16,94L-24,91L-29,83L-35,71L-39,72L-44,69Z" fill="#E0E0E0" stroke="#fff" stroke-width=".4"/><path d="M-147,48L-147,48L-146,46L-146,42L-144,37L-140,34L-141,30L-145,29L-146,22L-144,18L-142,16L-140,14L-139,9L-137,10L-128,8L-124,10L-117,10L-108,6L-104,6L-95,5L-99,11L-104,13L-103,20L-106,32L-123,41L-138,51Z" fill="#E0E0E0" stroke="#fff" stroke-width=".4"/><path d="M-63,-11L-66,-10L-69,-16L-69,-18L-72,-18L-75,-20L-76,-20L-79,-23L-85,-26L-84,-31L-86,-34L-75,-36L-73,-33L-70,-31L-72,-29L-68,-25L-70,-22L-67,-19L-63,-18Z" fill="#E0E0E0" stroke="#fff" stroke-width=".4"/><path d="M-206,-214L-198,-211L-197,-207L-193,-209L-185,-206L-184,-199L-186,-196L-181,-187L-178,-184L-178,-182L-173,-180L-171,-176L-174,-173L-180,-174L-182,-172L-180,-168L-178,-160L-185,-159L-187,-156L-187,-150L-191,-151L-198,-151L-200,-154L-203,-151L-205,-153L-212,-154L-220,-157L-228,-158L-234,-157L-239,-154L-242,-153L-242,-159L-245,-165L-240,-168L-240,-173L-242,-178L-243,-183L-235,-183L-227,-188L-225,-196L-218,-200L-219,-206L-214,-209Z" fill="#E0E0E0" stroke="#fff" stroke-width=".4"/><path d="M-178,-160L-175,-159L-173,-162L-171,-162L-162,-163L-157,-156L-159,-153L-159,-149L-153,-149L-150,-143L-150,-141L-140,-137L-134,-139L-129,-133L-125,-133L-113,-129L-113,-126L-116,-119L-115,-113L-116,-109L-123,-108L-127,-105L-128,-100L-134,-99L-139,-95L-146,-95L-153,-90L-153,-84L-154,-85L-155,-87L-157,-87L-163,-90L-165,-87L-166,-88L-178,-91L-179,-95L-186,-94L-189,-88L-195,-79L-198,-81L-202,-79L-206,-82L-204,-83L-202,-87L-200,-90L-201,-92L-199,-93L-198,-92L-194,-91L-192,-92L-193,-93L-192,-95L-195,-98L-196,-103L-199,-104L-199,-108L-202,-111L-205,-112L-211,-116L-216,-114L-218,-113L-221,-113L-223,-110L-229,-109L-232,-107L-235,-110L-240,-110L-245,-111L-249,-109L-249,-112L-254,-115L-252,-120L-250,-123L-248,-122L-250,-128L-243,-138L-239,-139L-238,-143L-242,-153L-239,-154L-234,-157L-228,-158L-220,-157L-212,-154L-205,-153L-203,-151L-200,-154L-198,-151L-191,-151L-187,-150L-187,-156L-185,-159Z" fill="#E0E0E0" stroke="#fff" stroke-width=".4"/><path d="M-218,-113L-216,-114L-211,-116L-205,-112L-202,-111L-199,-108L-199,-104L-196,-103L-195,-98L-192,-95L-193,-93L-192,-92L-194,-91L-198,-92L-199,-93L-201,-92L-200,-90L-202,-87L-204,-83L-206,-82L-207,-87L-206,-91L-206,-96L-211,-103L-213,-108L-216,-112Z" fill="#E0E0E0" stroke="#fff" stroke-width=".4"/><path d="M-206,-82L-202,-79L-198,-81L-195,-79L-195,-76L-198,-74L-201,-75L-203,-62L-208,-63L-213,-67L-222,-65L-226,-62L-238,-62L-244,-64L-247,-63L-249,-68L-250,-70L-249,-71L-251,-73L-253,-70L-258,-74L-258,-78L-263,-81L-264,-84L-268,-89L-262,-91L-257,-98L-253,-106L-249,-109L-245,-111L-240,-110L-235,-110L-232,-107L-229,-109L-223,-110L-221,-113L-218,-113L-216,-112L-213,-108L-211,-103L-206,-96L-206,-91L-207,-87Z" fill="#E0E0E0" stroke="#fff" stroke-width=".4"/><path d="M-77,5L-80,7L-83,4L-92,3L-95,5L-104,6L-108,6L-117,10L-124,10L-128,8L-137,10L-139,9L-140,14L-142,16L-144,18L-147,14L-144,10L-148,11L-155,9L-160,14L-172,15L-178,10L-187,10L-189,14L-194,15L-202,10L-210,10L-215,0L-220,-5L-217,-13L-222,-18L-213,-27L-201,-28L-198,-36L-183,-34L-173,-41L-164,-44L-151,-44L-138,-37L-127,-33L-118,-34L-111,-34L-102,-39L-93,-39L-86,-34L-84,-31L-85,-26L-79,-23L-76,-20L-82,-17L-79,-6L-81,-3ZM-222,-42L-214,-45L-207,-44L-206,-40L-200,-37L-201,-34L-210,-33L-214,-30L-220,-25L-223,-29L-223,-32L-221,-33L-218,-39Z" fill="#E0E0E0" stroke="#fff" stroke-width=".4"/><path d="M868,486L874,491L878,495L875,497L871,495L865,491L860,487L855,481L854,478L857,478L862,481L865,484Z" fill="#E0E0E0" stroke="#fff" stroke-width=".4"/><path d="M839,400L841,403L836,403L833,398L837,400ZM836,393L834,395L829,388L827,383L830,383L832,389ZM829,395L826,395L821,395L820,393L820,390L825,392L828,393ZM820,381L821,383L822,385L816,381L811,379L809,376L810,375L813,377ZM800,373L803,375L802,376L798,374L795,371L795,369Z" fill="#E0E0E0" stroke="#fff" stroke-width=".4"/><path d="M726,667L731,668L732,680L729,684L728,692L725,689L720,697L718,696L714,696L709,687L708,680L703,671L703,666L709,667L716,671L720,669ZM558,584L550,588L543,591L542,595L539,599L532,599L527,600L521,599L515,600L510,600L505,605L503,605L499,607L495,610L489,610L484,610L476,604L472,602L472,597L476,595L477,593L477,590L478,584L477,578L473,569L471,564L472,559L469,553L468,550L465,547L464,540L460,533L458,529L462,533L459,525L463,527L465,531L465,526L461,519L461,517L459,514L460,509L461,507L462,503L462,498L465,492L465,498L469,492L475,490L479,486L485,483L488,482L490,483L497,480L501,479L502,478L505,477L509,477L517,475L521,471L523,466L528,462L528,459L528,455L534,448L537,455L541,453L538,449L540,445L544,447L545,441L549,437L551,434L555,432L555,430L558,431L558,429L562,428L566,427L571,430L576,435L580,435L585,436L584,432L588,425L591,423L590,421L593,416L598,414L602,415L609,413L608,409L603,406L607,405L612,407L616,410L623,413L625,412L630,414L634,412L637,413L639,411L643,415L641,419L638,423L635,423L636,426L634,430L631,434L631,436L638,441L644,443L648,446L653,451L655,451L659,453L661,456L668,458L673,456L675,451L676,448L677,443L680,437L679,433L679,430L678,426L679,420L681,418L680,415L681,411L683,407L683,405L686,402L688,405L689,410L691,411L691,415L694,419L694,423L694,426L697,433L702,430L705,433L708,436L708,440L709,447L710,451L712,452L714,459L714,463L716,469L725,473L730,477L735,480L734,482L739,488L742,497L745,495L748,499L750,497L751,506L757,511L761,515L767,522L769,529L769,534L769,539L772,547L772,554L770,559L768,567L769,572L767,578L764,587L758,591L755,599L752,603L750,611L747,616L745,623L744,630L744,633L740,637L731,637L724,641L720,645L716,649L709,645L704,643L706,638L701,640L695,647L688,644L683,643L679,642L671,639L666,633L665,626L663,621L659,617L652,616L654,611L652,604L649,610L642,612L646,607L647,601L650,597L649,590L643,598L638,601L635,609L629,605L629,600L624,593L620,589L622,587L612,582L606,581L599,577L585,578L575,581L566,584Z" fill="#E0E0E0" stroke="#fff" stroke-width=".4"/><path d="M212,259L211,267L208,269L201,271L197,265L196,254L199,241L205,245L209,251Z" fill="#E0E0E0" stroke="#fff" stroke-width=".4"/><path d="M428,173L422,171L422,164L426,160L434,158L439,158L440,161L437,165L435,170ZM200,-48L200,-54L205,-56L198,-75L214,-80L218,-82L223,-102L239,-99L243,-104L243,-115L250,-117L256,-124L259,-125L261,-117L267,-111L279,-107L284,-97L281,-84L284,-79L293,-77L303,-76L313,-69L318,-68L321,-58L326,-51L334,-52L351,-49L361,-51L369,-49L380,-43L390,-43L393,-40L402,-45L415,-49L426,-49L436,-53L441,-59L447,-62L445,-66L443,-70L447,-77L451,-76L459,-74L467,-80L479,-84L485,-92L490,-95L502,-96L508,-95L509,-99L502,-107L495,-111L489,-107L482,-108L477,-107L475,-112L481,-123L484,-133L494,-128L505,-136L505,-141L512,-154L516,-158L516,-165L512,-168L518,-175L528,-177L538,-177L550,-174L557,-169L562,-156L565,-151L567,-143L570,-131L584,-127L593,-119L596,-108L608,-108L615,-112L628,-116L624,-105L621,-101L618,-89L613,-78L603,-80L596,-76L598,-66L597,-54L593,-53L593,-48L588,-54L585,-48L573,-44L574,-38L568,-39L564,-42L559,-35L550,-29L544,-22L533,-19L527,-15L519,-12L523,-17L521,-21L527,-27L523,-33L516,-29L508,-22L503,-16L495,-15L491,-10L495,-4L502,-2L502,2L508,5L517,-2L524,2L529,2L530,7L519,10L515,15L508,20L504,27L512,32L515,41L520,50L525,57L525,64L520,66L522,71L527,74L526,81L524,88L519,89L513,99L507,110L500,120L489,128L478,135L470,136L465,140L462,137L458,141L447,146L439,147L436,156L432,156L429,150L431,147L421,144L417,146L409,143L406,140L407,135L400,134L396,130L389,135L382,136L375,136L371,138L367,139L368,149L364,149L364,147L363,143L358,146L354,144L348,141L351,134L346,132L344,124L336,126L337,116L344,108L344,101L344,95L341,92L338,87L334,88L325,87L328,83L324,77L319,81L312,79L303,85L296,91L290,92L286,90L282,90L276,88L272,90L267,96L266,89L262,91L253,90L244,88L237,84L231,83L229,78L224,77L216,71L210,69L207,71L196,64L188,59L186,48L192,50L192,45L189,40L190,32L181,21L169,17L166,10L161,5L159,3L158,-3L158,-7L154,-9L151,-8L149,-17L151,-20L150,-22L158,-27L163,-29L171,-28L174,-34L184,-35L187,-39L199,-45Z" fill="#E0E0E0" stroke="#fff" stroke-width=".4"/><path d="M524,122L520,135L516,142L512,135L511,129L516,120L522,114L526,116Z" fill="#E0E0E0" stroke="#fff" stroke-width=".4"/><path d="M-64,-42L-62,-42L-56,-36L-53,-35L-51,-38L-47,-42L-43,-36L-39,-29L-35,-29L-33,-26L-39,-25L-40,-17L-42,-14L-45,-11L-44,-6L-46,-6L-51,-11L-49,-16L-51,-19L-54,-18L-63,-11L-63,-18L-67,-19L-70,-22L-68,-25L-72,-29L-70,-31L-73,-33L-75,-36L-73,-38L-67,-35L-63,-34L-62,-35L-66,-41ZM-66,-10L-71,-12L-75,-16L-76,-20L-75,-20L-72,-18L-69,-18L-69,-16Z" fill="#E0E0E0" stroke="#fff" stroke-width=".4"/><path d="M-114,-59L-113,-60L-107,-58L-95,-57L-84,-52L-83,-50L-78,-51L-71,-49L-69,-45L-64,-42L-66,-41L-62,-35L-63,-34L-67,-35L-73,-38L-75,-36L-86,-34L-93,-39L-102,-39L-100,-43L-102,-51L-107,-55L-111,-56Z" fill="#E0E0E0" stroke="#fff" stroke-width=".4"/><path d="M517,218L513,212L520,212L522,215L520,222ZM531,240L533,237L533,232L538,232L536,237L542,230L541,237L539,240L536,245L534,247L529,242ZM560,252L561,257L561,262L559,269L556,261L552,265L555,271L553,274L543,270L541,264L543,260L539,257L536,260L532,260L527,264L525,262L528,255L533,253L538,250L540,253L546,251L548,248L553,247L553,241L559,245L560,249ZM499,245L488,252L492,247L498,242L502,236L507,229L508,235L503,239ZM529,173L527,177L530,182L528,189L523,192L522,198L524,205L528,206L531,205L541,209L540,214L543,216L542,219L536,215L533,211L531,214L526,209L519,210L515,209L516,205L518,203L516,201L515,204L511,200L510,196L509,188L513,191L513,178L516,171L521,171L526,173L528,171ZM526,228L525,224L530,227L535,227L535,230L531,234L526,236L526,232ZM553,222L556,231L550,229L550,232L552,237L548,238L548,233L545,232L544,228L549,228L548,225L544,219L551,219Z" fill="#E0E0E0" stroke="#fff" stroke-width=".4"/><path d="M355,267L356,266L363,269L363,273L369,272L371,269L373,270L377,275L381,280L381,285L380,289L381,291L382,296L384,298L388,305L387,308L382,308L374,303L365,296L364,292L360,287L359,281L356,276L357,271ZM494,286L487,284L478,284L475,293L472,296L468,307L462,308L455,306L451,307L446,311L441,310L436,312L431,307L430,302L435,305L441,303L443,297L446,295L456,294L461,287L465,283L469,287L470,284L474,284L475,279L475,275L481,270L485,264L488,264L492,268L492,271L498,273L504,276L503,279L498,279L500,283Z" fill="#E0E0E0" stroke="#fff" stroke-width=".4"/><path d="M475,275L475,279L474,284L470,284L469,287L465,283L468,280Z" fill="#E0E0E0" stroke="#fff" stroke-width=".4"/><path d="M-142,204L-142,201L-139,189L-138,184L-136,181L-130,180L-126,175L-122,185L-119,192L-115,196L-105,204L-100,208L-96,213L-94,216L-90,218L-92,220L-95,219L-98,217L-101,212L-105,209L-107,207L-114,203L-119,203L-121,202L-125,203L-130,200L-133,206Z" fill="#E0E0E0" stroke="#fff" stroke-width=".4"/><path d="M681,-15L674,-5L674,5L671,13L672,18L668,25L658,29L645,30L634,41L628,37L628,30L614,32L605,36L596,37L604,43L599,59L594,63L590,59L592,51L587,48L584,42L591,39L595,33L603,28L609,22L624,19L633,21L641,4L646,8L658,-1L662,-5L667,-17L666,-29L669,-35L677,-37L681,-23ZM702,-65L708,-69L710,-57L698,-54L691,-44L679,-51L675,-39L666,-39L665,-50L669,-58L677,-59L679,-74L682,-82L691,-71L697,-67ZM607,41L611,35L616,36L619,32L625,34L626,37L621,43L618,40L614,42L612,48L607,45Z" fill="#E0E0E0" stroke="#fff" stroke-width=".4"/><path d="M-20,167L-14,180L-11,186L-17,188L-19,192L-19,195L-27,198L-39,202L-46,208L-49,208L-52,208L-56,211L-61,212L-68,213L-70,213L-72,215L-74,216L-75,218L-79,218L-81,219L-87,218L-89,214L-88,209L-90,207L-91,201L-93,198L-92,197L-93,194L-92,192L-92,189L-89,186L-89,183L-87,179L-84,181L-82,180L-73,180L-72,181L-64,181L-61,181L-59,184L-55,182L-50,174L-43,170Z" fill="#E0E0E0" stroke="#fff" stroke-width=".4"/><path d="M-153,78L-144,80L-141,77L-139,74L-133,72L-132,69L-129,68L-137,59L-122,54L-120,53L-111,55L-99,62L-77,80L-62,80L-56,81L-54,86L-48,85L-45,93L-41,95L-40,98L-35,102L-34,105L-35,108L-34,111L-32,114L-31,116L-29,118L-27,120L-25,120L-23,123L-23,125L-20,133L3,138L5,136L8,142L3,159L-20,167L-43,170L-50,174L-55,182L-59,184L-61,181L-64,181L-72,181L-73,180L-82,180L-84,181L-87,179L-89,183L-89,186L-92,189L-93,185L-95,183L-96,179L-100,176L-104,170L-106,163L-112,157L-115,156L-120,148L-121,142L-121,137L-125,128L-129,124L-133,122L-136,118L-136,116L-138,111L-140,109L-143,103L-148,96L-152,90L-156,90L-154,85L-154,82Z" fill="#E0E0E0" stroke="#fff" stroke-width=".4"/><path d="M-170,25L-170,25L-169,22L-163,22L-156,20L-161,24L-161,26L-162,25L-163,26L-164,26L-165,26L-165,25L-165,25L-167,24L-169,25Z" fill="#E0E0E0" stroke="#fff" stroke-width=".4"/><path d="M-170,25L-169,25L-167,24L-165,25L-165,25L-165,26L-164,26L-163,26L-162,25L-161,26L-161,26L-169,30L-172,29L-174,25Z" fill="#E0E0E0" stroke="#fff" stroke-width=".4"/><path d="M-138,142L-169,142L-199,142L-231,142L-231,110L-231,79L-233,72L-231,66L-232,62L-229,58L-219,58L-212,60L-204,63L-200,64L-194,62L-191,59L-184,58L-179,59L-176,64L-175,61L-168,63L-162,64L-158,61L-154,74L-153,77L-156,80L-157,87L-159,92L-161,93L-164,90L-167,86L-173,74L-174,74L-170,84L-166,93L-160,106L-157,111L-154,116L-147,126L-149,127L-149,133L-140,140Z" fill="#E0E0E0" stroke="#fff" stroke-width=".4"/><path d="M-53,255L-75,279L-85,279L-92,285L-97,285L-99,287L-105,287L-108,285L-115,288L-117,291L-122,291L-124,290L-126,290L-128,290L-138,283L-144,283L-146,281L-146,276L-150,275L-155,266L-159,264L-160,261L-164,258L-169,257L-166,252L-162,252L-161,250L-161,243L-159,234L-155,232L-154,229L-151,223L-146,219L-143,211L-142,204L-133,206L-130,200L-125,203L-121,202L-119,203L-114,203L-107,207L-105,209L-101,212L-98,217L-95,219L-98,223L-101,227L-100,229L-100,231L-96,231L-94,231L-92,232L-94,235L-91,239L-88,243L-85,246L-60,255Z" fill="#E0E0E0" stroke="#fff" stroke-width=".4"/><path d="M-95,219L-92,220L-90,218L-88,220L-88,224L-93,226L-89,228L-92,232L-94,231L-96,231L-100,231L-100,229L-101,227L-98,223Z" fill="#E0E0E0" stroke="#fff" stroke-width=".4"/><path d="M-44,228L-44,228L-44,232L-44,240L-44,244L-48,249L-53,255L-60,255L-85,246L-88,243L-91,239L-94,235L-92,232L-89,228L-87,229L-85,233L-82,236L-78,236L-70,234L-62,233L-55,231L-51,230L-48,229Z" fill="#E0E0E0" stroke="#fff" stroke-width=".4"/><path d="M-161,325L-177,326L-186,326L-188,327L-193,329L-195,328L-195,322L-193,319L-193,313L-191,310L-188,306L-185,303L-183,301L-186,300L-185,290L-182,288L-177,290L-171,288L-165,288L-161,285L-157,290L-156,294L-152,303L-155,309L-159,314L-161,317Z" fill="#E0E0E0" stroke="#fff" stroke-width=".4"/><path d="M-188,327L-185,331L-186,336L-188,337L-192,336L-195,341L-199,340L-199,336L-198,335L-197,331L-195,328L-193,329Z" fill="#E0E0E0" stroke="#fff" stroke-width=".4"/><path d="M-185,290L-192,285L-194,282L-198,284L-202,283L-204,284L-208,283L-212,277L-213,275L-219,271L-221,267L-225,263L-230,259L-230,257L-234,253L-239,250L-237,250L-234,248L-232,241L-230,237L-225,236L-223,238L-219,243L-217,244L-214,242L-209,243L-208,244L-200,244L-200,243L-196,241L-195,239L-192,237L-185,242L-181,241L-177,235L-173,231L-174,226L-176,224L-171,223L-170,222L-167,222L-168,228L-167,234L-163,237L-162,240L-162,244L-161,244L-161,250L-162,252L-166,252L-169,257L-164,258L-160,261L-159,264L-155,266L-150,275L-156,280L-161,285L-165,288L-171,288L-177,290L-182,288Z" fill="#E0E0E0" stroke="#fff" stroke-width=".4"/></g><g clip-path="url(#v)"><path d="M386.1,236.4L386.2,236.8L386.2,237.7L385.8,238.6L386.0,239.0L385.7,239.2L385.2,237.5L384.5,236.8L384.4,236.5L384.8,236.5L385.5,236.1L385.8,236.1ZM416.6,146.0L416.2,146.1L415.3,146.1L414.5,146.9L413.9,147.2L413.1,147.4L412.2,147.9L411.9,148.6L411.9,149.2L411.7,149.8L410.3,150.7L409.8,150.6L409.6,150.3L409.1,150.3L408.8,150.5L408.5,150.5L408.1,150.7L407.6,150.6L407.1,150.3L406.8,150.3L406.5,150.2L406.4,150.6L406.9,151.9L407.1,152.5L405.5,154.2L405.6,155.3L405.2,156.2L404.3,156.9L402.5,158.6L401.7,158.7L401.0,159.1L399.7,162.0L399.7,163.0L399.5,163.7L399.6,164.4L399.0,165.8L398.3,166.4L398.2,167.1L399.1,168.7L399.2,169.0L399.7,169.8L399.9,170.4L400.3,171.0L401.7,172.5L402.3,172.9L403.0,173.3L404.4,174.6L405.1,175.5L404.7,176.1L404.9,177.4L403.9,177.0L404.1,177.2L405.2,177.8L406.9,180.3L408.4,181.5L409.9,182.8L410.4,184.1L411.7,185.0L413.3,186.2L413.2,186.4L413.6,186.8L414.6,187.4L415.3,188.1L415.5,188.8L415.8,188.9L416.3,188.7L416.7,188.7L417.0,188.7L417.5,189.4L418.1,190.1L418.4,190.7L418.6,190.6L418.8,190.7L418.9,191.2L419.0,191.5L419.9,192.4L420.3,193.3L421.3,194.8L422.0,195.6L422.6,196.0L423.2,196.4L423.8,198.0L424.1,199.5L424.7,201.1L425.3,201.8L425.3,203.1L425.6,204.5L426.1,205.4L426.2,206.3L426.3,206.8L426.5,207.1L426.9,208.7L426.8,209.4L426.5,208.7L426.5,210.8L426.8,212.0L426.7,213.3L427.0,213.8L427.5,215.4L427.9,215.9L427.9,217.8L428.1,218.8L427.6,218.2L427.2,217.6L426.7,217.9L426.3,218.4L427.0,220.5L426.2,220.3L426.3,223.0L426.6,223.6L426.6,223.9L426.5,224.3L426.3,223.9L426.3,223.5L426.1,223.6L426.1,223.8L425.9,224.3L425.8,224.9L426.1,225.4L426.1,225.8L425.9,226.2L425.6,226.8L424.9,226.8L424.7,227.8L424.5,228.9L423.2,229.0L422.2,229.9L421.1,230.3L420.0,231.2L418.9,232.1L418.1,232.2L417.5,232.3L416.8,233.8L415.6,233.9L413.4,235.1L412.6,235.6L412.0,235.8L411.0,236.3L410.8,236.1L410.5,235.7L409.7,235.5L409.2,235.1L409.1,234.5L409.0,234.2L408.8,234.6L408.7,236.0L408.6,236.3L408.2,236.4L407.5,236.0L406.9,235.2L405.9,235.8L406.2,235.8L406.6,235.8L407.0,235.9L407.2,236.5L407.2,236.8L407.1,237.1L406.2,237.2L405,237.1L404.8,237.1L405.9,237.6L406.9,237.9L407.3,238.3L407.3,238.5L406.7,239.0L406.3,239.5L406.3,239.9L406.3,240.3L405.8,240.6L405.5,240.5L404.7,239.9L402.2,237.7L402.6,238.3L405.1,240.9L405.6,241.7L405.6,242.3L405.4,242.6L404.9,243.0L404.1,243.0L402.8,242.0L400.6,239.8L399.9,239.5L402.1,242.1L402.4,242.7L402.8,243.4L402.7,243.8L402.5,244.2L397.3,246.6L396.5,247.7L395.9,249.0L394.9,249.7L394.3,250.3L392.5,250.7L391.6,250.6L392.6,249.4L391.9,248.9L391.9,245.9L392.2,242.6L392.6,240.9L393.3,240.5L394.1,240.3L394.1,239.9L394.0,239.5L393.6,238.9L393.1,238.7L392.4,238.6L391.8,237.9L391.4,237.9L390.7,238.1L390.3,237.8L390.2,237.3L389.6,236.8L388.9,236.2L389.2,236.1L389.6,235.8L390.0,235.4L391.0,235.3L391.9,235.3L392.2,235.2L392.6,234.8L393.2,234.2L393.7,233.9L393.9,233.6L393.7,233.0L393.5,232.4L393.7,232.2L394.6,232.3L395.6,232.6L395.8,232.8L396.4,232.0L396.5,231.9L396.9,231.9L397.9,231.8L398.8,231.6L399.3,231.6L399.7,232.1L400.0,232.6L400.2,232.6L400.7,232.4L401.1,232.7L401.9,233.1L402.4,233.2L402.2,232.2L402.5,231.4L402.4,231.2L401.9,230.9L400.3,229.6L400.1,229.2L400.1,228.6L400.0,227.7L399.9,227.1L399.9,226.8L400,226.5L400.3,226.4L400.6,226.3L400.8,226.1L401.2,225.5L402.0,225.6L403.0,225.9L403.8,226.1L404.3,226.1L404.4,226.0L404.4,225.7L404.4,224.3L404.4,224.0L405.1,223.8L406.1,223.8L406.6,223.7L407.1,223.2L408.4,222.9L409.4,222.2L410.2,221.4L410.6,221.1L411.2,221.0L411.5,221.0L412.0,221.5L412.4,221.2L412.9,220.7L413.2,220.1L413.3,219.3L413.2,217.9L413.0,216.9L412.7,216.1L412.7,215.3L413.2,213.8L413.7,212.1L413.6,211.4L413.1,210.3L412.6,209.0L412.0,207.6L411.8,207.4L411.7,207.0L411.5,206.5L411.8,205.1L411.8,204.6L412.5,203.9L412.8,203.2L413.1,202.3L413.0,201.9L413.0,201.0L413.1,200.5L412.9,200.2L412.7,199.7L412.8,199.3L413.3,199.0L413.6,198.5L413.9,198.0L414.1,197.4L413.8,197.0L413.4,196.3L412.6,195.7L411.6,195.0L411.2,194.5L410.8,194.0L410.4,193.4L410.3,193.0L410.4,192.7L411.8,192.0L412.0,191.8L412.2,191.4L412.1,191.1L411.7,190.9L411.3,190.7L410.7,190.3L409.5,189.1L409.0,188.9L408.4,188.5L408.1,188.2L407.8,187.2L407.7,187.1L407.4,187.4L406.9,187.7L406.6,187.7L406.3,187.4L406.2,187.0L405.8,186.5L405.4,186.1L405.3,184.7L405.3,184.3L405.1,183.6L404.8,183.4L404.5,183.2L403.8,182.1L403.3,181.5L401.2,179.9L401.0,179.6L400.4,178.9L399.4,178.0L398.8,177.2L398.3,176.4L398.0,175.8L397.9,175.2L397.4,174.4L396.9,173.8L396.5,173.6L396.0,173.5L395.5,173.1L394.6,172.3L394.3,171.8L394.0,171.4L394.0,171.0L394.2,170.4L394.5,170.0L394.5,169.7L394.3,169.5L393.3,169.1L391.2,168.5L390.3,168.0L389.6,167.4L389.0,167.0L386.4,165.2L385.6,165.0L384.9,164.6L384.7,164.3L384.8,164.1L385.0,163.8L385.8,163.4L386.1,162.9L386.0,162.2L385.7,161.5L385.8,161.3L386.1,161.2L386.5,161.2L387.6,161.2L389.8,161.8L390.1,161.7L391.4,160.6L391.8,159.9L391.9,159.4L392.2,159.0L392.8,158.4L392.8,157.9L392.5,157.2L392.2,156.9L391.9,156.8L391.0,156.9L390.8,156.7L390.7,156.2L390.7,155.8L390.4,155.5L389.4,155.1L388.6,155.0L388.4,154.9L388.7,154.5L389.3,154.2L389.7,154.0L390.1,153.6L390.1,153.2L389.7,152.8L389.2,152.5L388.3,151.8L387.1,151.0L386.4,150.7L386.0,150.7L384.6,151.4L383.9,151.8L383.3,152.6L382.7,152.8L382.1,152.4L381.4,152.1L379.4,151.6L378.6,151.2L376.9,148.6L376.6,148.0L376.8,147.4L376.9,146.6L377.1,146.0L377.4,145.5L377.4,145.0L377.4,144.5L377.1,144.3L376.8,144.2L376.5,144.1L376.3,143.5L376.2,143.6L376.0,144.3L375.7,144.6L375.4,144.7L375.1,144.6L375.0,144.3L374.9,143.8L374.7,143.1L374.5,142.7L373.8,142.2L373.4,141.6L372.3,140.4L371.4,139.5L371.0,138.7L371.3,138.4L371.8,137.9L372.3,137.3L372.9,136.4L373.1,135.9L373.3,135.7L373.6,135.5L374.0,135.6L374.6,136.0L375.6,136.4L376.4,136.9L376.8,137.4L377.3,137.9L377.6,138.1L377.8,138.1L378.3,137.7L378.8,137.3L378.9,136.9L379.3,136.5L379.8,135.9L380.1,135.4L380.3,135.4L380.5,135.5L381.4,136.8L381.6,136.9L381.9,136.7L382.2,135.7L382.6,135.3L382.7,135.4L384.9,137.3L385.1,137.3L385.3,137.2L385.5,136.9L385.7,136.2L386.0,135.5L386.7,135.1L387.2,135.0L387.4,135.4L387.9,135.9L388.5,135.9L389.7,135.1L390.1,134.9L390.5,135.0L390.9,134.9L391.4,134.6L391.8,134.2L391.9,133.3L392.0,132.6L392.3,132.3L392.7,132.1L393.3,131.8L394.8,131.0L395.2,130.7L395.5,130.5L396.1,130.8L396.8,131.4L397.2,131.9L397.5,132.4L397.6,132.8L398.8,133.2L399.5,133.7L399.9,134.1L400.4,134.1L400.9,134.0L401.2,133.6L401.7,133.6L402.3,133.7L402.6,133.8L403.1,134.5L403.3,134.6L403.8,134.6L404.7,134.3L405.4,134.2L406.0,134.5L407.2,135.3L406.9,135.9L406.7,136.5L406.1,136.9L405.7,137.0L405.5,137.6L405.4,138.5L405.5,139.0L405.8,139.1L406.1,139.4L406.3,139.8L406.3,140.7L406.3,141.7L406.3,142.0L406.6,142.0L406.9,141.9L407.4,142.0L408.0,142.3L408.4,142.5L408.7,142.5L409.0,142.8L409.1,143.3L409.5,143.6L410.4,144.3L411.1,144.3L411.7,145.2L412.4,144.9L412.6,145.2L414.0,145.1L414.9,144.8L415.2,144.8L416.1,145.6ZM406.0,249.9L405.8,249.9L405.6,249.7L406.3,249.2L406.2,249.6L406.3,249.7ZM410.3,236.3L409.6,236.8L409.6,236.4L410.1,236.1L410.3,235.9L410.5,235.9ZM407.9,151.8L407.8,152.0L407.4,151.6L407.2,151.4L407.4,150.9L407.8,151.4ZM413.7,148.4L412.6,149.5L412.1,149.5L412.5,148.3L412.7,148.0L413.4,148.4ZM413.0,150.9L412.6,151.1L412.1,151.1L412.7,150.6L413.0,150.1L413.3,150.0L413.3,150.4ZM409.2,152.4L408.9,152.4L408.3,151.7L408.6,151.4L409.3,151.6L409.5,151.8L409.5,151.9L409.3,152.2Z" fill="#4ECDC4" stroke="#2C3E50" stroke-width="1"/></g><circle cx="400.0" cy="150.0" r="4" fill="#E74C3C" stroke="#fff" stroke-width="2"/><text x="400.0" y="140.0" text-anchor="middle" font-family="sans-serif" font-weight="700" font-size="10" fill="#2D3436">Hanoi</text></svg>