<svg viewBox="0 0 800 300" xmlns="http://www.w3.org/2000/svg"><defs><clipPath id="v"><rect width="800" height="300"/></clipPath></defs><rect width="800" height="300" fill="#DCEEF8"/><g clip-path="url(#v)"><path d="M-315,-254L-270,-236L-221,-221L-203,-207L-189,-194L-185,-178L-141,-162L-135,-148L-159,-145L-153,-128L-130,-110L-113,-82L-98,-83L-99,-72L-79,-67L-86,-62L-59,-51L-61,-43L-79,-41L-85,-48L-108,-51L-134,-55L-155,-72L-170,-87L-183,-110L-217,-121L-239,-114L-255,-105L-252,-86L-273,-76L-287,-81L-314,-82L-315,-168ZM-11,-226L-1,-217L3,-204L-6,-197L-11,-212L-17,-222L-29,-231L-43,-242L-62,-250L-55,-256L-41,-249L-32,-243L-21,-237ZM-46,-169L-60,-162L-73,-156L-87,-156L-109,-164L-124,-171L-121,-179L-98,-175L-84,-177L-80,-190L-76,-191L-73,-177L-58,-179L-51,-188L-37,-197L-39,-213L-24,-213L-18,-209L-19,-194L-28,-178L-41,-176ZM45,-182L53,-176L66,-159L78,-150L74,-143L67,-140L56,-150L44,-167L39,-187L42,-190Z" fill="#E0E0E0" stroke="#fff" stroke-width=".4"/><path d="M333,243L355,260L369,273L359,280L344,273L325,260L309,245L291,225L288,216L299,216L314,226L325,235Z" fill="#E0E0E0" stroke="#fff" stroke-width=".4"/><path d="M238,-46L245,-37L227,-37L217,-53L232,-47ZM226,-69L222,-64L203,-87L197,-103L206,-103L216,-82ZM204,-62L194,-61L178,-64L173,-68L174,-79L192,-75L200,-69ZM173,-111L179,-103L180,-97L160,-109L145,-118L135,-127L139,-130L151,-123ZM107,-137L118,-129L112,-127L101,-133L90,-144L92,-149Z" fill="#E0E0E0" stroke="#fff" stroke-width=".4"/><path d="M-140,850L-124,853L-123,894L-132,906L-134,935L-143,925L-162,950L-167,948L-183,947L-199,917L-203,893L-218,863L-217,847L-200,850L-175,862L-161,857ZM-704,570L-732,586L-755,593L-760,609L-769,622L-791,623L-808,626L-831,620L-850,624L-868,625L-883,642L-891,640L-904,649L-917,660L-936,658L-953,658L-981,638L-995,632L-995,614L-982,610L-977,602L-978,591L-975,570L-978,551L-992,520L-996,503L-995,486L-1005,466L-1006,458L-1018,446L-1021,423L-1036,399L-1039,387L-1028,400L-1037,373L-1024,381L-1016,392L-1016,377L-1029,355L-1032,345L-1038,337L-1035,320L-1030,313L-1026,299L-1029,282L-1018,262L-1016,284L-1005,264L-984,255L-971,243L-951,232L-939,230L-932,234L-911,223L-896,220L-892,214L-885,211L-870,212L-843,204L-828,192L-822,177L-806,163L-805,152L-804,137L-786,114L-775,137L-764,132L-773,119L-765,106L-754,112L-750,91L-736,78L-730,67L-717,62L-716,55L-705,58L-704,51L-693,47L-680,44L-661,56L-646,72L-630,72L-613,75L-619,60L-606,38L-594,31L-598,24L-587,9L-571,-0L-558,3L-536,-2L-536,-16L-555,-25L-542,-29L-524,-22L-510,-11L-488,-4L-481,-7L-465,1L-449,-6L-439,-4L-433,-9L-421,4L-428,18L-438,29L-447,30L-444,41L-452,54L-461,68L-459,75L-438,90L-418,99L-405,109L-386,125L-378,125L-365,132L-361,140L-336,149L-319,140L-313,125L-308,113L-305,98L-297,77L-301,64L-299,56L-302,40L-298,20L-293,15L-297,6L-291,-9L-286,-23L-285,-31L-276,-41L-268,-28L-266,-11L-260,-8L-259,3L-249,17L-247,32L-248,42L-239,63L-222,53L-213,65L-201,75L-203,87L-198,110L-194,124L-187,127L-180,151L-183,165L-174,184L-146,198L-127,212L-110,224L-113,230L-98,248L-88,279L-78,272L-67,285L-61,280L-56,310L-37,328L-25,339L-5,362L2,386L3,402L1,420L14,446L12,472L8,486L1,513L1,530L-4,552L-16,580L-35,596L-44,620L-53,636L-61,663L-71,679L-78,703L-81,726L-80,736L-95,748L-124,749L-148,763L-160,775L-176,790L-198,775L-214,769L-210,752L-224,758L-247,782L-270,773L-284,768L-299,766L-325,756L-342,735L-347,711L-353,694L-365,681L-391,677L-382,662L-388,638L-401,660L-424,666L-411,648L-407,630L-397,614L-399,591L-420,618L-436,629L-446,654L-467,641L-466,624L-482,601L-496,590L-491,582L-525,564L-543,563L-568,548L-615,551L-649,562L-679,572Z" fill="#E0E0E0" stroke="#fff" stroke-width=".4"/></g><g clip-path="url(#v)"><path d="M358.8,70.8L360.5,79.8L362.4,79.7L363.5,79.3L364.6,77.2L365.1,73.9L366.1,73.4L367.4,73.8L366.9,74.8L367.2,77.4L368.2,78.9L368.8,79.2L370.2,86.1L370.7,87.5L370.6,88.7L367.9,91.2L363.8,91.2L360.9,92.8L359.1,92.6L359.1,90.9L357.5,89.5L355.7,86.5L356.2,81.3L353.1,71.5L353.0,69.0L354.1,65.8L355.2,65.7L356.6,68.3ZM376.3,105.3L377.4,105.9L378.1,105.9L378.5,107.2L382.2,109.9L383.3,109.8L384.1,111.2L385.7,111.9L386.2,113.4L387.3,114.9L385.3,116.7L381.5,116.3L379.2,118.3L377.2,117.8L376.9,116.7L377.1,116.4L375.9,113.6L375.4,109.3L374.6,106.9L373.7,105.8L371.9,106.7L371.1,106.9L369.4,104.8L370.3,100.7L370.6,99.6L372.0,99.3L374.2,100.4ZM403.3,123.9L404.1,124.3L403.7,125.5L400.0,124.2L397.2,124.7L396.4,124.6L395.5,123.6L394.9,121.5L395.1,120.1L396.4,119.0L396.8,118.9L397.8,120.1L398.5,121.0L399.4,121.3L401.2,123.4ZM399.4,111.9L396.4,112.1L392.2,111.3L390.5,110.1L389.8,108.9L391.2,108.0L393.3,107.6L395.9,104.9L396.8,105.9L397.8,109.0L398.8,109.9L399.4,110.8ZM403.3,144.8L405.9,148.7L406.9,149.1L405.3,151.9L402.1,152.1L398.2,151.4L399.7,150.5L398.9,149.4L397.7,149.1L396.4,149.6L395.8,149.5L396.6,147.6L398.8,145.1L399.4,144.9L399.9,144.9L400.5,145.1ZM389.3,87.3L387.5,88.6L384.3,88.5L383.1,87.8L387.0,84.0L391.7,83.2ZM397.2,101.9L396.7,101.9L396.4,100.6L394.9,94.0L395.8,88.0L396.5,89.3L398.6,99.7L398.3,101.4ZM396.6,84.4L396.1,86.1L395.0,84.2L394.4,75.9L394.7,75.2L395.2,75.1L396.6,80.8ZM371.2,95.2L370.7,95.9L367.9,94.1L368.6,92.4L371.6,93.0ZM380.7,55.5L379.7,56.9L376.7,56.4L376.0,56.1L376.2,53.8L376.9,53.0L378.7,52.3L381.1,53.4ZM378.3,45.9L377.9,46.2L377.2,46.0L375.7,42.8L376.1,41.7L378.1,40.6L379.8,42.4L380.0,43.5L380.0,44.3L379.7,45.0L378.5,45.3ZM441.2,218.0L440.4,219.5L439.0,219.5L437.1,218.5L437.5,217.1L439.5,216.8L440.1,216.9ZM430.7,200.0L429.3,203.0L426.9,202.3L424.6,200.2L423.5,198.2L424.3,194.6L425.4,193.9L426.6,194.2L427.2,197.7ZM426.5,183.4L425.4,184.7L424.3,184.6L417.5,181.5L417.8,180.2L417.5,177.0L418.2,175.2L420.1,174.5L421.5,174.9L422.5,177.4L424.5,178.5L423.0,179.4L425.6,181.3Z" fill="#4ECDC4" stroke="#2C3E50" stroke-width="1"/></g><circle cx="400.0" cy="150.0" r="4" fill="#E74C3C" stroke="#fff" stroke-width="2"/><text x="400.0" y="140.0" text-anchor="middle" font-family="sans-serif" font-weight="700" font-size="10" fill="#2D3436">Port Vila</text></svg>