<svg viewBox="0 0 800 300" xmlns="http://www.w3.org/2000/svg"><defs><clipPath id="v"><rect width="800" height="300"/></clipPath></defs><rect width="800" height="300" fill="#DCEEF8"/><g clip-path="url(#v)"><path d="M1058,-717L1082,-713L1097,-736L1116,-731L1180,-741L1220,-684L1204,-663L1209,-633L1259,-628L1281,-585L1280,-566L1358,-532L1406,-547L1444,-502L1481,-503L1572,-471L1573,-444L1547,-394L1561,-342L1551,-311L1491,-305L1460,-279L1458,-238L1408,-231L1367,-202L1309,-197L1255,-163L1258,-115L1249,-118L1241,-136L1221,-139L1177,-158L1161,-136L1152,-146L1056,-169L1051,-202L994,-191L971,-142L923,-76L895,-91L866,-77L838,-93L854,-103L865,-133L882,-162L877,-178L890,-185L896,-173L933,-170L949,-177L938,-186L942,-199L920,-222L911,-261L889,-276L893,-307L865,-332L840,-335L794,-364L753,-355L738,-341L712,-341L696,-319L650,-311L629,-296L600,-319L561,-319L522,-330L496,-310L491,-335L457,-360L469,-398L486,-422L500,-417L484,-460L540,-540L571,-551L577,-578L546,-665L576,-668L610,-696L658,-698L721,-690L790,-666L838,-664L862,-650L885,-667L901,-644L957,-648L982,-639L986,-689L1005,-711Z" fill="#E0E0E0" stroke="#fff" stroke-width=".4"/><path d="M140,-332L135,-294L101,-294L112,-274L92,-215L80,-200L26,-198L-5,-178L-57,-184L-145,-208L-159,-239L-220,-224L-228,-206L-265,-219L-297,-222L-325,-238L-315,-261L-318,-277L-299,-282L-268,-256L-259,-281L-204,-277L-160,-293L-130,-291L-111,-272L-105,-287L-114,-348L-92,-359L-70,-403L-24,-372L11,-411L33,-418L81,-389L110,-394L139,-376L134,-364Z" fill="#E0E0E0" stroke="#fff" stroke-width=".4"/><path d="M457,-360L491,-335L496,-310L458,-291L428,-228L391,-167L341,-150L302,-154L255,-131L232,-117L181,-135L134,-173L114,-184L102,-215L92,-215L112,-274L101,-294L135,-294L140,-332L172,-308L195,-298L247,-310L252,-328L276,-331L306,-346L313,-340L342,-351L357,-373L377,-379L444,-350Z" fill="#E0E0E0" stroke="#fff" stroke-width=".4"/><path d="M738,-341L753,-355L794,-364L840,-335L865,-332L893,-307L889,-276L911,-261L920,-222L942,-199L938,-186L949,-177L933,-170L896,-173L890,-185L877,-178L882,-162L865,-133L854,-103L838,-93L827,-134L834,-172L832,-212L796,-266L776,-305L757,-332Z" fill="#E0E0E0" stroke="#fff" stroke-width=".4"/><path d="M838,-93L866,-77L895,-91L923,-76L924,-54L894,-35L876,-43L858,62L822,53L777,21L704,42L673,63L582,59L534,45L510,52L492,16L481,1L495,-13L480,-24L461,-5L424,-30L419,-66L382,-87L375,-115L341,-150L391,-167L428,-228L458,-291L496,-310L522,-330L561,-319L600,-319L629,-296L650,-311L696,-319L712,-341L738,-341L757,-332L776,-305L796,-266L832,-212L834,-172L827,-134Z" fill="#E0E0E0" stroke="#fff" stroke-width=".4"/><path d="M492,16L510,52L534,45L582,59L673,63L704,42L777,21L822,53L858,62L826,97L803,158L823,206L770,194L707,221L706,262L650,270L606,241L556,264L511,261L506,206L475,179L485,168L479,158L489,131L513,104L482,67L477,36Z" fill="#E0E0E0" stroke="#fff" stroke-width=".4"/><path d="M717,739L710,761L620,768L621,755L545,740L557,708L591,734L639,729L685,735L684,748ZM511,261L556,264L606,241L650,270L706,262L707,221L737,243L718,294L703,303L665,301L633,293L558,315L601,360L569,374L535,374L502,332L490,350L504,398L535,436L512,453L546,490L577,513L578,557L521,536L539,576L500,585L523,653L482,654L431,620L408,558L397,506L373,469L341,424L337,401L366,362L369,335L390,323L391,302L431,295L455,277L488,278L499,264Z" fill="#E0E0E0" stroke="#fff" stroke-width=".4"/><path d="M1864,595L1834,608L1812,588L1740,578L1713,590L1643,603L1610,601L1538,630L1487,631L1454,616L1386,638L1366,623L1362,665L1345,682L1329,699L1306,664L1330,635L1292,642L1240,624L1197,669L1103,677L1053,636L986,633L972,665L929,674L869,633L801,635L765,557L719,514L749,452L710,414L779,336L874,333L901,271L1019,282L1093,228L1166,205L1268,203L1376,261L1465,293L1537,281L1591,288L1664,245L1730,241L1790,281L1800,310L1794,350L1841,370L1865,394L1823,417L1842,508L1830,532ZM707,221L770,194L823,206L831,238L885,264L874,284L800,289L773,314L722,358L702,320L703,303L718,294L737,243Z" fill="#E0E0E0" stroke="#fff" stroke-width=".4"/><path d="M391,302L390,323L369,335L366,362L337,401L326,395L325,377L291,350L285,311L290,255L299,229L288,216L284,190L311,148L315,164L332,157L345,179L360,188L364,218L356,246L365,282Z" fill="#E0E0E0" stroke="#fff" stroke-width=".4"/><path d="M114,-184L134,-173L181,-135L232,-117L255,-131L270,-96L290,-71L266,-38L238,-58L195,-56L141,-71L112,-69L99,-51L77,-71L64,-35L94,6L108,33L136,65L160,84L183,120L238,152L231,166L173,135L137,104L80,79L28,16L41,9L12,-27L11,-57L-29,-71L-48,-33L-66,-62L-65,-93L-62,-94L-19,-91L-8,-106L13,-92L38,-90L37,-115L59,-124L65,-160Z" fill="#E0E0E0" stroke="#fff" stroke-width=".4"/><path d="M-265,-219L-228,-206L-220,-224L-159,-239L-145,-208L-57,-184L-63,-140L-48,-102L-98,-115L-148,-84L-145,-40L-153,-15L-132,29L-74,72L-43,142L26,210L75,209L90,228L73,244L128,274L174,299L227,342L233,357L222,386L187,348L133,335L107,387L152,417L145,459L119,463L86,531L60,537L60,513L73,471L86,454L62,407L43,367L17,357L-1,321L-41,307L-68,273L-114,268L-162,231L-219,176L-261,128L-280,43L-311,34L-361,5L-390,17L-426,57L-452,63L-445,26L-478,15L-494,-53L-473,-80L-491,-113L-489,-138L-462,-119L-432,-123L-397,-153L-386,-139L-357,-142L-343,-178L-297,-167L-270,-182ZM3,519L50,512L27,574L37,598L24,638L-24,609L-55,600L-142,561L-133,520L-61,527ZM-373,297L-342,272L-305,330L-313,437L-341,432L-367,458L-390,437L-393,340L-407,293Z" fill="#E0E0E0" stroke="#fff" stroke-width=".4"/><path d="M-57,-184L-5,-178L26,-198L80,-200L92,-215L102,-215L114,-184L65,-160L59,-124L37,-115L38,-90L13,-92L-8,-106L-19,-91L-62,-94L-48,-102L-63,-140Z" fill="#E0E0E0" stroke="#fff" stroke-width=".4"/><path d="M238,152L183,120L160,84L136,65L108,33L94,6L64,-35L77,-71L99,-51L112,-69L141,-71L195,-56L238,-58L266,-38L288,-38L273,-0L303,33L294,74L279,78L267,85L247,105Z" fill="#E0E0E0" stroke="#fff" stroke-width=".4"/><path d="M475,179L506,206L511,261L499,264L488,278L455,277L431,295L391,302L365,282L356,246L364,218L372,219L375,202L411,189L425,186L446,181Z" fill="#E0E0E0" stroke="#fff" stroke-width=".4"/><path d="M255,-131L302,-154L341,-150L375,-115L382,-87L419,-66L424,-30L461,-5L480,-24L495,-13L481,1L492,16L477,36L482,67L513,104L489,131L479,158L485,168L475,179L446,181L425,186L423,179L431,169L438,149L429,149L417,134L406,130L398,116L387,111L378,99L367,104L358,132L344,138L348,131L325,113L304,104L296,92L279,78L294,74L303,33L273,-0L288,-38L266,-38L290,-71L270,-96Z" fill="#E0E0E0" stroke="#fff" stroke-width=".4"/><path d="M332,157L315,164L311,148L284,190L288,216L275,210L258,183L231,166L238,152L247,105L267,85L279,78L296,92L304,104L325,113L348,131L344,138Z" fill="#E0E0E0" stroke="#fff" stroke-width=".4"/></g><g clip-path="url(#v)"><path d="M348.9,136.7L356.5,134.2L357.6,132.3L355.8,128.4L356.9,126.1L366.1,119.2L367.6,116.1L368.3,113.6L367.0,111.1L365.2,106.9L366.1,105.2L371.0,102.8L374.8,100.1L377.0,99.8L378.6,101.9L378.6,104.0L379.9,107.4L382.6,109.2L387.5,112.2L393.1,114.3L397.3,118.4L403.3,125.8L404.2,129.5L409.6,132.7L414.5,136.4L413.6,143.1L430.6,149.0L434.4,149.0L436.2,150.0L436.2,151.6L434.8,156.3L427.9,170.8L427.2,173.8L422.3,176.9L421.7,178.8L423.0,182.7L424.3,185.5L413.6,187.8L410.0,190.6L407.8,195.3L407.1,197.8L405.4,198.0L402.2,195.5L398.2,191.6L393.1,191.9L375.7,200.3L373.9,204.6L373.7,214.2L372.3,216.8L370.5,218.4L363.4,217.4L362.5,216.8L363.6,213.0L363.2,205.1L359.8,191.9L357.6,187.5L352.7,183.1L349.1,180.4L342.4,177.9L339.1,170.6L333.9,162.3L331.5,160.4L331.9,159.5L333.0,153.2L331.5,148.7L329.2,144.7L330.8,142.4L335.5,142.4L339.3,142.8L340.8,139.2Z" fill="#4ECDC4" stroke="#2C3E50" stroke-width="1"/></g><circle cx="400.0" cy="150.0" r="4" fill="#E74C3C" stroke="#fff" stroke-width="2"/><text x="400.0" y="140.0" text-anchor="middle" font-family="sans-serif" font-weight="700" font-size="10" fill="#2D3436">Pristina</text></svg>