<svg viewBox="0 0 800 300" xmlns="http://www.w3.org/2000/svg"><defs><clipPath id="v"><rect width="800" height="300"/></clipPath></defs><rect width="800" height="300" fill="#DCEEF8"/><g clip-path="url(#v)"><path d="M215,447L218,449L283,486L284,496L310,514L302,536L303,547L314,553L315,558L310,569L311,575L310,583L316,595L323,613L330,617L316,627L296,634L285,634L279,640L266,640L262,642L240,637L226,639L221,614L215,605L212,600L194,597L184,591L172,588L165,585L158,581L148,558L137,548L134,537L136,528L132,511L140,510L146,504L153,494L158,490L158,485L154,480L153,473L158,471L159,461L152,450L158,448L178,448Z" fill="#E0E0E0" stroke="#fff" stroke-width=".4"/><path d="M132,511L136,528L134,537L137,548L148,558L158,581L151,579L126,582L122,584L116,596L120,604L117,625L115,644L120,647L132,654L137,651L139,671L125,671L118,660L111,652L97,650L93,640L82,646L68,644L62,635L50,633L42,634L41,628L35,628L27,627L15,629L8,629L3,631L4,609L-2,602L-3,591L-1,580L-4,573L-5,562L-26,562L-25,555L-34,555L-35,558L-46,559L-51,570L-53,574L-63,572L-69,574L-81,576L-88,566L-92,560L-97,549L-102,536L-155,536L-161,538L-166,537L-174,540L-176,534L-172,532L-171,525L-168,520L-162,516L-157,518L-151,511L-141,511L-140,516L-133,520L-123,508L-112,499L-107,494L-108,479L-100,461L-92,452L-80,443L-78,438L-78,431L-75,425L-76,415L-73,399L-70,387L-65,378L-63,367L-62,354L-55,345L-45,339L-30,345L-19,352L-6,354L8,357L13,346L15,345L24,347L44,338L51,342L57,341L59,337L66,335L80,337L91,338L97,336L108,351L116,353L121,350L129,351L139,347L143,355L159,367L158,388L165,390L160,397L153,401L146,411L142,419L141,434L137,441L137,454L132,459L131,470L128,471L127,481L131,489Z" fill="#E0E0E0" stroke="#fff" stroke-width=".4"/><path d="M353,460L342,445L342,380L358,359L363,354L374,353L390,341L414,340L464,285L477,270L485,259L485,250L485,231L485,224L485,223L491,223L499,220L509,218L517,212L524,212L525,217L523,228L523,237L519,244L514,264L505,284L494,307L479,334L464,354L442,379L424,393L397,411L381,425L361,446L357,456Z" fill="#E0E0E0" stroke="#fff" stroke-width=".4"/><path d="M310,514L284,496L283,486L218,449L215,447L214,428L220,421L228,409L235,396L227,375L225,366L216,353L227,343L240,331L249,334L249,344L255,350L268,350L290,365L296,365L300,365L304,367L316,368L322,361L338,353L345,359L358,359L342,380L342,445L353,460L340,467L336,475L329,476L326,489L321,496L317,508Z" fill="#E0E0E0" stroke="#fff" stroke-width=".4"/><path d="M47,281L33,273L27,268L25,262L28,255L28,247L18,236L16,228L16,224L10,218L9,208L6,201L-1,202L1,195L6,187L4,179L10,174L6,169L11,158L19,144L34,145L33,71L34,63L54,62L54,24L127,24L196,24L268,24L274,43L270,46L272,66L279,89L286,94L296,101L287,111L273,115L268,120L266,133L258,160L260,168L257,184L250,202L239,211L231,225L229,232L221,238L216,257L216,273L216,259L213,259L213,249L211,243L202,236L200,223L202,209L194,208L192,212L182,213L186,218L187,229L178,239L169,253L159,254L144,244L137,248L136,253L126,256L126,260L108,260L105,256L92,256L86,259L81,257L72,247L69,242L56,244L51,253L46,269L40,272L34,274Z" fill="#E0E0E0" stroke="#fff" stroke-width=".4"/><path d="M33,71L34,145L19,144L11,158L6,169L10,174L4,179L6,187L1,195L-1,202L6,201L9,208L10,218L16,224L16,228L5,231L-5,239L-18,259L-35,267L-52,266L-57,268L-55,274L-65,280L-72,288L-95,294L-99,290L-102,290L-106,295L-121,296L-118,291L-123,279L-126,271L-134,268L-144,257L-141,249L-132,251L-127,249L-117,249L-127,233L-126,221L-128,208L-135,197L-133,188L-144,187L-144,176L-152,169L-144,144L-121,126L-120,102L-113,63L-109,55L-117,48L-117,42L-124,37L-128,7L-110,-4L-38,34Z" fill="#E0E0E0" stroke="#fff" stroke-width=".4"/><path d="M-128,7L-124,37L-117,42L-117,48L-109,55L-113,63L-120,102L-121,126L-144,144L-152,169L-144,176L-144,187L-133,188L-135,197L-140,198L-140,204L-144,204L-156,184L-160,183L-174,193L-188,188L-198,187L-203,189L-214,189L-224,197L-233,197L-255,188L-264,192L-273,192L-280,185L-298,178L-317,180L-322,184L-324,195L-329,202L-331,219L-344,208L-351,208L-357,214L-356,201L-377,197L-378,188L-388,176L-390,167L-389,158L-377,157L-371,151L-346,149L-330,146L-329,135L-319,122L-319,79L-293,70L-241,32L-180,-5L-151,4L-141,14Z" fill="#E0E0E0" stroke="#fff" stroke-width=".4"/><path d="M-347,317L-346,288L-347,276L-343,265L-338,259L-329,248L-331,243L-327,236L-331,225L-331,219L-329,202L-324,195L-322,184L-317,180L-298,178L-280,185L-273,192L-264,192L-255,188L-233,197L-224,197L-214,189L-203,189L-198,187L-188,188L-174,193L-160,183L-156,184L-144,204L-140,204L-133,211L-135,214L-136,220L-151,234L-156,246L-159,256L-162,260L-166,272L-176,280L-178,289L-183,296L-184,304L-197,310L-207,303L-213,303L-224,314L-229,314L-238,331L-243,344L-261,350L-268,350L-275,354L-289,353L-299,342L-305,329L-318,317L-331,317Z" fill="#E0E0E0" stroke="#fff" stroke-width=".4"/><path d="M-135,197L-128,208L-126,221L-127,233L-117,249L-127,249L-132,251L-141,249L-144,257L-134,268L-126,271L-123,279L-118,291L-121,296L-130,314L-134,318L-135,332L-134,339L-135,345L-126,354L-125,361L-118,370L-110,376L-109,384L-107,389L-109,399L-123,395L-138,390L-160,389L-162,388L-173,390L-184,388L-193,389L-222,389L-219,375L-226,363L-235,360L-238,352L-243,349L-243,344L-238,331L-229,314L-224,314L-213,303L-207,303L-197,310L-184,304L-183,296L-178,289L-176,280L-166,272L-162,260L-159,256L-156,246L-151,234L-136,220L-135,214L-133,211L-140,204L-140,198Z" fill="#E0E0E0" stroke="#fff" stroke-width=".4"/><path d="M97,336L91,338L80,337L66,335L59,337L57,341L51,342L44,338L24,347L15,345L13,346L8,357L-6,354L-19,352L-30,345L-45,339L-55,345L-62,354L-63,367L-75,366L-87,363L-98,372L-107,389L-109,384L-110,376L-118,370L-125,361L-126,354L-135,345L-134,339L-135,332L-134,318L-130,314L-121,296L-106,295L-102,290L-99,290L-95,294L-72,288L-65,280L-55,274L-57,268L-52,266L-35,267L-18,259L-5,239L5,231L16,228L18,236L28,247L28,255L25,262L27,268L33,273L47,281L56,289L57,295L69,304L76,312L81,323L94,330Z" fill="#E0E0E0" stroke="#fff" stroke-width=".4"/><path d="M-63,367L-65,378L-70,387L-73,399L-76,415L-75,425L-78,431L-78,438L-80,443L-92,452L-100,461L-108,479L-107,494L-112,499L-123,508L-133,520L-140,516L-141,511L-151,511L-157,518L-162,516L-168,510L-174,513L-181,521L-196,502L-182,492L-189,480L-183,475L-171,473L-169,465L-160,474L-144,474L-138,466L-136,454L-138,440L-146,429L-139,408L-143,405L-157,406L-162,397L-160,389L-138,390L-123,395L-109,399L-107,389L-98,372L-87,363L-75,366Z" fill="#E0E0E0" stroke="#fff" stroke-width=".4"/><path d="M-193,389L-184,388L-173,390L-162,388L-160,389L-162,397L-157,406L-143,405L-139,408L-146,429L-138,440L-136,454L-138,466L-144,474L-160,474L-169,465L-171,473L-183,475L-189,480L-182,492L-196,502L-214,483L-226,469L-237,450L-237,444L-233,438L-228,425L-225,412L-219,411L-192,411Z" fill="#E0E0E0" stroke="#fff" stroke-width=".4"/><path d="M-222,389L-193,389L-192,411L-219,411L-225,412L-228,409Z" fill="#E0E0E0" stroke="#fff" stroke-width=".4"/><path d="M153,473L154,480L158,485L158,490L153,494L146,504L140,510L132,511L131,489L127,481L138,482L143,472Z" fill="#E0E0E0" stroke="#fff" stroke-width=".4"/><path d="M247,-193L244,-187L238,-190L234,-176L238,-173L234,-170L233,-165L241,-168L242,-159L233,-126L231,-131L221,-162L226,-169L225,-170L230,-180L233,-196L236,-201L237,-202L243,-202L244,-205L249,-206L249,-197L247,-194Z" fill="#E0E0E0" stroke="#fff" stroke-width=".4"/><path d="M241,-168L233,-165L234,-170L238,-173L234,-176L238,-190L244,-187L244,-174Z" fill="#E0E0E0" stroke="#fff" stroke-width=".4"/><path d="M-225,-143L-233,-181L-244,-189L-244,-194L-259,-207L-260,-223L-249,-236L-245,-254L-248,-275L-244,-286L-224,-296L-212,-293L-212,-281L-197,-290L-196,-285L-205,-274L-205,-264L-199,-259L-201,-239L-213,-228L-209,-217L-200,-216L-196,-206L-189,-203L-190,-186L-199,-180L-204,-173L-217,-165L-215,-156L-216,-148Z" fill="#E0E0E0" stroke="#fff" stroke-width=".4"/><path d="M-552,-83L-551,-87L-551,-88L-552,-112L-523,-128L-505,-131L-490,-136L-483,-147L-462,-155L-461,-171L-451,-173L-443,-180L-419,-184L-416,-192L-421,-197L-427,-220L-428,-233L-435,-247L-417,-259L-398,-263L-386,-272L-369,-279L-339,-283L-309,-285L-300,-281L-283,-290L-264,-290L-256,-285L-244,-286L-248,-275L-245,-254L-249,-236L-260,-223L-259,-207L-244,-194L-244,-189L-233,-181L-225,-143L-219,-124L-218,-115L-221,-98L-220,-89L-222,-78L-221,-65L-228,-57L-217,-42L-217,-34L-210,-23L-202,-26L-187,-17L-180,-5L-241,32L-293,70L-319,79L-339,81L-339,68L-347,65L-358,60L-363,51L-423,9L-484,-34Z" fill="#E0E0E0" stroke="#fff" stroke-width=".4"/><path d="M244,-187L247,-193L267,-185L303,-208L310,-182L306,-179L270,-168L288,-147L282,-143L279,-136L266,-134L261,-126L254,-120L233,-123L233,-126L242,-159L241,-168L244,-174Z" fill="#E0E0E0" stroke="#fff" stroke-width=".4"/><path d="M533,-20L536,-21L536,-16L551,-19L565,-18L576,-18L589,-31L602,-44L613,-56L617,-49L619,-33L610,-33L609,-20L612,-18L604,-14L604,-6L598,2L598,10L594,14L540,4L533,-15Z" fill="#E0E0E0" stroke="#fff" stroke-width=".4"/><path d="M519,-30L518,-44L522,-55L527,-57L533,-51L533,-39L529,-28L524,-26Z" fill="#E0E0E0" stroke="#fff" stroke-width=".4"/><path d="M468,-136L472,-127L470,-122L476,-107L463,-106L459,-116L442,-118L456,-138Z" fill="#E0E0E0" stroke="#fff" stroke-width=".4"/><path d="M310,-182L303,-208L342,-230L349,-257L347,-273L357,-279L367,-293L374,-296L395,-293L401,-288L410,-291L422,-265L434,-258L435,-245L426,-238L422,-221L434,-200L456,-188L465,-172L463,-157L468,-157L468,-146L478,-135L468,-136L456,-138L442,-118L409,-119L358,-161L331,-176Z" fill="#E0E0E0" stroke="#fff" stroke-width=".4"/><path d="M598,10L598,2L604,-6L604,-14L612,-18L609,-20L610,-33L619,-33L627,-20L637,-13L651,-10L661,-7L669,5L674,11L681,14L681,18L674,30L671,35L664,41L657,54L649,53L645,58L642,68L644,80L643,83L634,83L623,90L621,99L617,103L606,103L599,108L599,115L590,120L580,119L568,125L560,126L554,113L540,82L594,63L606,24ZM617,-49L613,-56L619,-63L621,-61L619,-53Z" fill="#E0E0E0" stroke="#fff" stroke-width=".4"/><path d="M1356,-101L1357,-93L1351,-89L1352,-77L1339,-80L1316,-66L1317,-55L1307,-38L1306,-28L1298,-12L1284,-17L1283,4L1279,10L1281,19L1272,23L1263,-8L1258,-8L1255,5L1245,-5L1250,-17L1258,-18L1267,-34L1256,-38L1240,-38L1223,-40L1221,-54L1212,-55L1198,-64L1192,-50L1205,-40L1193,-32L1189,-25L1201,-20L1198,-8L1204,7L1207,23L1204,30L1192,30L1170,34L1171,48L1161,60L1135,72L1115,95L1101,107L1084,119L1083,128L1074,132L1058,139L1050,140L1044,154L1048,179L1049,194L1042,211L1041,243L1032,243L1024,257L1029,263L1013,269L1007,281L1000,286L983,269L974,244L967,225L961,216L952,199L947,176L944,164L928,138L920,102L915,78L915,54L911,36L885,48L873,46L849,22L858,15L852,8L831,-9L843,-22L883,-22L879,-39L869,-49L867,-65L855,-74L875,-95L896,-93L915,-115L926,-136L944,-157L943,-172L959,-184L944,-195L938,-209L932,-228L940,-238L968,-232L988,-236L1005,-254L1024,-228L1023,-211L1030,-200L1029,-189L1016,-192L1021,-168L1039,-155L1064,-140L1053,-131L1046,-111L1063,-104L1080,-94L1103,-82L1128,-80L1139,-69L1152,-68L1174,-63L1189,-63L1191,-71L1189,-84L1190,-93L1201,-97L1203,-81L1203,-77L1219,-69L1231,-72L1246,-71L1261,-72L1262,-84L1255,-91L1269,-93L1285,-108L1306,-121L1321,-116L1334,-125L1342,-112L1336,-104Z" fill="#E0E0E0" stroke="#fff" stroke-width=".4"/><path d="M1005,-254L988,-236L968,-232L940,-238L932,-228L938,-209L944,-195L959,-184L943,-172L944,-157L926,-136L915,-115L896,-93L875,-95L855,-74L867,-65L869,-49L879,-39L883,-22L843,-22L831,-9L818,-14L813,-28L799,-43L766,-40L736,-39L711,-36L718,-60L744,-70L742,-79L734,-83L733,-101L716,-110L709,-122L700,-133L730,-122L748,-125L759,-123L762,-127L775,-125L798,-134L799,-152L809,-164L822,-164L824,-170L838,-172L845,-170L852,-176L851,-189L858,-202L870,-207L863,-222L880,-221L885,-229L884,-237L893,-246L891,-257L887,-267L897,-277L917,-281L937,-284L946,-288L957,-291L970,-280L976,-263Z" fill="#E0E0E0" stroke="#fff" stroke-width=".4"/><path d="M801,-296L811,-296L825,-291L831,-288L844,-295L850,-291L855,-301L866,-301L869,-304L871,-313L879,-321L888,-316L886,-309L892,-308L890,-289L897,-282L904,-286L912,-289L923,-299L935,-297L954,-297L957,-291L946,-288L937,-284L917,-281L897,-277L887,-267L891,-257L893,-246L884,-237L885,-229L880,-221L863,-222L870,-207L858,-202L851,-189L852,-176L845,-170L838,-172L824,-170L822,-164L809,-164L799,-152L798,-134L775,-125L762,-127L759,-123L748,-125L730,-122L700,-133L716,-152L715,-165L701,-169L700,-182L694,-199L701,-211L694,-214L699,-230L706,-257L724,-249L738,-252L742,-262L756,-265L766,-272L770,-290L785,-294L788,-303L796,-297Z" fill="#E0E0E0" stroke="#fff" stroke-width=".4"/><path d="M478,-135L468,-146L468,-157L463,-157L465,-172L456,-188L434,-200L422,-221L426,-238L435,-245L434,-258L422,-265L410,-291L400,-310L404,-317L398,-343L410,-350L413,-341L422,-330L435,-327L441,-328L463,-345L469,-347L475,-340L468,-329L480,-316L484,-318L490,-301L507,-296L519,-285L545,-281L573,-287L575,-292L591,-296L603,-309L615,-309L623,-313L636,-311L656,-299L670,-297L691,-277L704,-276L706,-257L699,-230L694,-214L701,-211L694,-199L700,-182L701,-169L715,-165L716,-152L700,-133L709,-122L716,-110L733,-101L734,-83L742,-79L744,-70L718,-60L711,-36L677,-42L658,-47L637,-50L630,-74L621,-78L607,-74L589,-64L567,-71L549,-87L532,-92L520,-112L506,-139L497,-136L485,-143Z" fill="#E0E0E0" stroke="#fff" stroke-width=".4"/><path d="M247,-193L247,-194L249,-197L249,-206L253,-217L263,-226L260,-234L252,-235L251,-252L255,-261L260,-266L265,-271L266,-283L271,-279L291,-285L301,-281L316,-281L336,-290L346,-289L367,-293L357,-279L347,-273L349,-257L342,-230L303,-208L267,-185Z" fill="#E0E0E0" stroke="#fff" stroke-width=".4"/><path d="M1574,97L1560,91L1559,75L1568,66L1588,61L1598,61L1602,68L1594,77L1590,88ZM1049,-413L1047,-427L1060,-433L1043,-477L1079,-487L1088,-493L1101,-539L1137,-531L1147,-543L1148,-569L1163,-572L1176,-590L1184,-593L1188,-573L1203,-559L1229,-549L1241,-528L1235,-497L1241,-486L1262,-482L1287,-478L1308,-462L1319,-460L1328,-437L1338,-422L1358,-423L1395,-417L1419,-420L1437,-417L1464,-402L1485,-402L1493,-395L1514,-408L1543,-416L1570,-417L1591,-426L1604,-439L1617,-447L1614,-455L1608,-465L1618,-481L1628,-479L1646,-474L1664,-487L1692,-497L1705,-515L1717,-522L1744,-525L1758,-522L1760,-532L1743,-550L1729,-559L1715,-549L1697,-553L1687,-550L1683,-561L1695,-588L1704,-609L1726,-598L1751,-616L1751,-628L1767,-659L1777,-668L1777,-684L1767,-691L1782,-706L1804,-712L1828,-713L1855,-704L1871,-693L1882,-663L1889,-651L1895,-633L1902,-605L1933,-596L1954,-577L1961,-552L1989,-552L2004,-562L2034,-570L2025,-546L2018,-536L2012,-507L1999,-482L1978,-487L1962,-478L1967,-456L1964,-427L1955,-426L1955,-414L1944,-428L1936,-415L1909,-404L1912,-391L1896,-392L1887,-400L1875,-383L1855,-370L1841,-355L1815,-348L1802,-337L1783,-331L1792,-342L1789,-351L1803,-367L1793,-379L1778,-371L1757,-354L1746,-339L1729,-338L1719,-327L1729,-312L1744,-308L1744,-298L1758,-291L1779,-307L1795,-298L1806,-298L1809,-286L1784,-280L1775,-268L1758,-257L1749,-241L1768,-229L1775,-208L1786,-188L1798,-172L1798,-156L1787,-150L1791,-139L1801,-133L1799,-116L1794,-100L1784,-98L1771,-76L1756,-50L1740,-26L1715,-8L1690,9L1670,11L1659,20L1652,13L1642,23L1617,33L1598,36L1592,56L1582,57L1577,43L1581,36L1557,30L1549,33L1531,28L1522,20L1525,9L1508,5L1500,-2L1484,8L1467,10L1453,10L1443,15L1434,18L1436,40L1427,39L1425,35L1425,27L1411,33L1404,29L1390,22L1395,6L1384,2L1380,-16L1361,-13L1363,-37L1380,-53L1381,-70L1380,-85L1372,-90L1366,-102L1356,-101L1336,-104L1342,-112L1334,-125L1321,-116L1306,-121L1285,-108L1269,-93L1255,-91L1247,-96L1237,-97L1224,-101L1215,-96L1203,-81L1201,-97L1190,-93L1169,-95L1149,-99L1134,-108L1120,-112L1114,-122L1104,-125L1086,-139L1071,-145L1064,-140L1039,-155L1021,-168L1016,-192L1029,-189L1030,-200L1023,-211L1024,-228L1005,-254L976,-263L970,-280L957,-291L954,-297L951,-310L952,-319L941,-324L935,-322L930,-343L935,-349L933,-354L950,-365L962,-370L982,-367L988,-382L1011,-385L1018,-394L1046,-407Z" fill="#E0E0E0" stroke="#fff" stroke-width=".4"/><path d="M260,168L258,160L266,133L268,120L273,115L287,111L296,101L306,122L311,140L321,149L345,166L355,177L365,188L371,194L380,200L374,204L367,202L360,196L353,186L345,180L340,173L325,166L312,166L308,162L297,166L287,158L281,172Z" fill="#E0E0E0" stroke="#fff" stroke-width=".4"/><path d="M233,-123L254,-120L261,-126L266,-134L279,-136L282,-143L288,-147L270,-168L306,-179L310,-182L331,-176L358,-161L409,-119L442,-118L459,-116L463,-106L476,-107L483,-89L492,-84L495,-77L507,-69L508,-60L506,-54L509,-47L514,-41L516,-35L519,-30L524,-26L529,-28L533,-20L533,-15L540,4L594,14L598,10L606,24L594,63L540,82L488,89L472,97L459,117L450,120L446,114L439,115L421,113L418,111L397,112L392,113L385,109L380,118L382,126L374,132L372,124L367,118L365,111L356,104L346,88L341,72L329,59L321,56L309,38L307,24L307,13L297,-9L289,-17L279,-21L273,-32L274,-37L269,-47L264,-51L257,-66L246,-83L237,-97L228,-96L230,-108L231,-115Z" fill="#E0E0E0" stroke="#fff" stroke-width=".4"/><path d="M268,24L196,24L127,24L54,24L54,-48L54,-121L49,-137L54,-150L51,-159L57,-169L81,-170L99,-164L116,-158L125,-155L139,-161L146,-167L162,-169L175,-166L180,-156L184,-163L198,-158L212,-157L221,-162L231,-131L233,-126L228,-118L224,-102L219,-92L215,-88L209,-95L201,-104L188,-133L186,-131L193,-110L205,-89L218,-58L225,-47L231,-36L247,-14L243,-10L244,2L265,20Z" fill="#E0E0E0" stroke="#fff" stroke-width=".4"/><path d="M54,24L54,62L34,63L33,71L-38,34L-110,-4L-128,7L-141,14L-151,4L-180,-5L-187,-17L-202,-26L-210,-23L-217,-34L-217,-42L-228,-57L-221,-65L-222,-78L-220,-89L-221,-98L-218,-115L-219,-124L-225,-143L-216,-148L-215,-156L-217,-165L-204,-173L-199,-180L-190,-186L-189,-203L-168,-195L-160,-197L-145,-194L-121,-184L-113,-165L-97,-161L-71,-152L-52,-142L-43,-147L-35,-157L-39,-173L-33,-183L-20,-193L-8,-196L16,-192L23,-182L29,-182L35,-179L53,-176L57,-169L51,-159L54,-150L49,-137L54,-121L54,-48Z" fill="#E0E0E0" stroke="#fff" stroke-width=".4"/><path d="M464,285L414,340L390,341L374,353L363,354L358,359L345,359L338,353L322,361L316,368L304,367L300,365L296,365L290,365L268,350L255,350L249,344L249,334L240,331L229,311L221,307L218,300L209,291L197,289L204,279L213,279L216,273L216,257L221,238L229,232L231,225L239,211L250,202L257,184L260,168L281,172L287,158L297,166L308,162L312,166L325,166L340,173L345,180L353,186L360,196L367,202L360,211L354,219L356,224L356,230L366,230L370,229L374,232L370,239L377,249L384,257L390,264L449,286Z" fill="#E0E0E0" stroke="#fff" stroke-width=".4"/><path d="M367,202L374,204L380,200L384,205L383,213L373,217L381,222L374,232L370,229L366,230L356,230L356,224L354,219L360,211Z" fill="#E0E0E0" stroke="#fff" stroke-width=".4"/><path d="M485,223L485,224L485,231L485,250L485,259L477,270L464,285L449,286L390,264L384,257L377,249L370,239L374,232L381,222L387,226L390,233L398,241L407,241L424,236L444,234L460,228L469,227L475,224Z" fill="#E0E0E0" stroke="#fff" stroke-width=".4"/><path d="M215,447L178,448L158,448L152,450L141,456L137,454L137,441L141,434L142,419L146,411L153,401L160,397L165,390L158,388L159,367L167,362L178,366L193,362L205,362L216,353L225,366L227,375L235,396L228,409L220,421L214,428Z" fill="#E0E0E0" stroke="#fff" stroke-width=".4"/><path d="M152,450L159,461L158,471L153,473L143,472L138,482L127,481L128,471L131,470L132,459L137,454L141,456Z" fill="#E0E0E0" stroke="#fff" stroke-width=".4"/><path d="M159,367L143,355L139,347L129,351L121,350L116,353L108,351L97,336L94,330L81,323L76,312L69,304L57,295L56,289L47,281L34,274L40,272L46,269L51,253L56,244L69,242L72,247L81,257L86,259L92,256L105,256L108,260L126,260L126,256L136,253L137,248L144,244L159,254L169,253L178,239L187,229L186,218L182,213L192,212L194,208L202,209L200,223L202,236L211,243L213,249L213,259L216,259L216,273L213,279L204,279L197,289L209,291L218,300L221,307L229,311L240,331L227,343L216,353L205,362L193,362L178,366L167,362Z" fill="#E0E0E0" stroke="#fff" stroke-width=".4"/></g><g clip-path="url(#v)"><path d="M559.7,126.1L550.6,129.4L548.2,130.9L546.1,132.7L544.5,135.0L543.3,139.0L544.1,142.7L544.1,144.7L541.7,146.0L539.5,146.9L537.1,148.3L535.7,148.7L534.4,149.8L533.1,150.6L528.0,152.7L522.4,154.3L513.7,156.2L510.3,158.3L507.2,159.7L502.5,160.1L496.1,162.1L492.5,163.6L488.0,166.2L487.1,167.0L486.3,168.9L484.9,170.5L482.2,173.2L480.2,174.6L478.9,174.6L476.3,175.4L473.2,175.5L468.0,174.6L466.7,175.2L465.6,176.3L461.6,178.1L457.5,181.8L454.5,182.7L449.8,183.9L446.4,185.4L444.1,186.0L441.3,186.3L435.9,186.2L430.8,186.7L426.0,187.7L423.8,189.7L421.3,192.7L417.2,194.0L416.2,195.1L414.9,197.4L412.2,198.0L409.8,198.4L407.3,197.4L402.7,200.1L400.9,200.6L398.3,200.7L396.3,201.2L395.0,201.1L393.3,200.0L389.6,198.7L387.0,199.5L386.8,197.0L382.4,189.1L383.3,182.1L383.3,181.2L382.4,178.1L379.9,175.3L379.9,171.7L379.0,169.1L378.4,166.5L378.6,165.8L378.6,165.2L377.3,161.1L376.8,160.3L376.7,159.5L377.1,158.8L377.1,158.0L376.4,156.8L375.6,154.4L372.1,152.6L372.8,150.8L373.5,151.4L374.4,152.0L374.6,150.8L374.6,150.0L373.1,144.7L375.3,137.6L374.6,131.3L378.0,128.7L378.8,127.9L379.3,127.2L380.1,125.8L381.2,125.3L381.6,123.8L381.5,123.0L380.8,122.3L380.3,120.5L380.5,118.3L380.7,117.3L381.0,115.6L382.2,115.0L382.5,114.4L381.6,113.4L381.7,112.7L383.7,110.9L384.5,110.3L385.8,109.7L386.8,109.8L388.0,110.0L389.0,110.6L390.0,111.5L391.1,112.6L392.7,113.0L393.8,112.9L394.8,113.4L395.5,113.1L396.4,112.5L397.7,112.6L399.0,111.9L402.6,111.7L406.0,111.8L409.7,111.3L413.3,111.4L416.8,111.4L417.7,111.5L418.5,111.8L421.5,113.5L423.8,113.8L428.5,114.2L433.5,114.7L437.8,115.1L441.5,114.7L444.5,114.4L445.3,114.5L446.2,115.5L448.1,118.0L449.8,120.3L452.8,120.4L454.7,119.6L456.9,118.3L458.2,117.3L459.7,113.5L460.6,111.0L462.8,108.2L464.7,105.8L467.2,102.7L468.6,101.0L471.3,97.6L473.9,96.3L478.8,93.7L483.8,91.2L486.9,89.6L489.7,88.8L494.2,88.2L499.6,87.4L504.9,86.6L510.6,85.9L516.9,84.9L521.3,84.3L526.8,83.5L531.4,82.9L535.5,82.3L539.8,81.7L540.6,83.6L541.4,85.5L542.1,87.4L543.0,89.3L543.8,91.2L544.5,93.1L545.4,95.0L546.1,96.9L546.9,98.8L547.8,100.6L548.5,102.5L549.3,104.4L550.1,106.3L550.9,108.2L551.7,110.1L552.5,112.0L553.3,113.8L554.6,114.4L555.3,116.2L556.4,118.6L557.5,121.1L558.7,123.6ZM370.9,151.2L370.3,151.7L370.1,150.9L370.5,149.3L371.0,148.8L371.5,150.0L371.2,150.7ZM373.8,181.0L372.7,181.5L373.4,180.1L374.3,179.8L374.5,179.8ZM374.4,176.0L374.2,176.4L373.8,176.3L372.7,175.3L374.0,174.2L374.6,175.3ZM571.9,200.7L573.0,200.9L574.7,200.3L579.5,200.2L585.3,202.3L584.2,202.8L583.6,203.5L581.1,204.2L578.5,205.8L571.1,206.5L569.0,206.1L567.1,204.6L563.8,202.6L565.1,201.3L565.5,200.8L565.9,200.2L567.8,199.2L569.7,199.4Z" fill="#4ECDC4" stroke="#2C3E50" stroke-width="1"/></g><circle cx="400.0" cy="150.0" r="4" fill="#E74C3C" stroke="#fff" stroke-width="2"/><text x="400.0" y="140.0" text-anchor="middle" font-family="sans-serif" font-weight="700" font-size="10" fill="#2D3436">Sana'a</text></svg>