<svg viewBox="0 0 800 300" xmlns="http://www.w3.org/2000/svg"><defs><clipPath id="v"><rect width="800" height="300"/></clipPath></defs><rect width="800" height="300" fill="#DCEEF8"/><g clip-path="url(#v)"><path d="M1638,77L1640,75L1643,78L1641,82L1636,83L1632,82L1631,79L1634,76ZM1653,69L1648,71L1643,72L1642,69L1646,67L1648,67L1653,64L1653,64L1653,69ZM-1319,64L-1319,64L-1319,64L-1317,64L-1318,68L-1319,69L-1319,69L-1319,64Z" fill="#E0E0E0" stroke="#fff" stroke-width=".4"/><path d="M447,-62L449,-61L478,-45L479,-40L491,-31L487,-21L488,-17L493,-14L493,-11L491,-6L491,-4L491,0L494,5L497,14L500,16L494,20L485,24L480,24L477,26L471,26L469,27L459,25L453,26L450,14L447,10L446,8L438,6L433,4L428,2L424,1L421,-1L417,-12L412,-16L410,-21L411,-25L409,-33L413,-33L416,-36L419,-41L421,-42L421,-45L419,-47L419,-50L421,-51L422,-56L418,-61L421,-62L430,-62Z" fill="#E0E0E0" stroke="#fff" stroke-width=".4"/><path d="M1331,-49L1331,-22L1332,5L1324,-1L1316,-3L1314,-1L1303,-0L1307,-7L1312,-10L1310,-19L1306,-26L1290,-33L1283,-33L1271,-41L1268,-37L1265,-36L1263,-39L1263,-43L1257,-47L1266,-50L1272,-50L1271,-52L1259,-52L1256,-57L1248,-58L1245,-62L1256,-64L1260,-67L1273,-64L1275,-61L1277,-47L1286,-42L1292,-51L1302,-56L1309,-56L1316,-53L1322,-50ZM1199,4L1200,5L1200,8L1195,14L1187,16L1187,15L1187,12L1191,7ZM1275,-13L1274,-19L1276,-22L1278,-25L1279,-23L1279,-19ZM1140,-104L1136,-97L1142,-89L1140,-85L1150,-78L1140,-77L1137,-71L1137,-63L1130,-58L1129,-50L1126,-37L1125,-40L1116,-36L1112,-41L1106,-42L1102,-44L1092,-41L1089,-45L1084,-45L1077,-46L1076,-57L1072,-59L1068,-66L1067,-74L1068,-81L1073,-87L1074,-81L1080,-76L1085,-78L1090,-78L1095,-82L1099,-82L1107,-80L1114,-82L1118,-93L1121,-96L1124,-106L1133,-106ZM1235,-47L1244,-45L1247,-38L1240,-42L1234,-42L1229,-42L1223,-42L1225,-47ZM1215,-39L1209,-40L1207,-44L1216,-44L1218,-42ZM1223,-88L1224,-84L1229,-83L1230,-79L1229,-72L1225,-73L1224,-68L1227,-64L1225,-63L1221,-68L1219,-78L1221,-85ZM1182,-77L1192,-78L1200,-84L1201,-82L1195,-74L1188,-72L1180,-74L1167,-73L1159,-72L1158,-66L1166,-58L1170,-62L1185,-65L1185,-61L1181,-62L1178,-58L1170,-54L1178,-44L1177,-41L1184,-31L1184,-26L1180,-24L1176,-26L1180,-33L1172,-30L1170,-32L1171,-36L1165,-40L1166,-48L1160,-46L1161,-36L1161,-24L1156,-23L1153,-26L1155,-33L1154,-41L1150,-41L1148,-47L1151,-52L1152,-59L1156,-71L1158,-75L1165,-81L1172,-78ZM1160,15L1149,9L1157,8L1161,10L1164,13L1164,15ZM1169,1L1174,-0L1182,-3L1181,2L1168,4L1157,3L1157,-0L1164,-2ZM1144,-1L1149,-2L1151,2L1141,4L1135,5L1131,5L1134,-0L1138,-0L1141,-3ZM1063,-17L1064,-14L1080,-13L1082,-17L1097,-13L1100,-7L1112,-6L1122,-1L1113,2L1104,-1L1097,-1L1088,-1L1080,-3L1071,-6L1065,-7L1061,-6L1046,-9L1045,-13L1037,-13L1043,-21L1053,-21L1059,-18ZM1029,-61L1030,-55L1033,-51L1039,-50L1043,-45L1041,-35L1041,-22L1032,-22L1025,-28L1014,-35L1011,-40L1004,-47L1000,-53L994,-65L987,-72L984,-79L981,-85L974,-90L970,-97L963,-102L955,-111L954,-115L959,-115L972,-113L979,-105L986,-100L990,-96L998,-87L1007,-87L1013,-82L1018,-75L1025,-71L1021,-64L1026,-61Z" fill="#E0E0E0" stroke="#fff" stroke-width=".4"/><path d="M409,-33L411,-25L410,-21L412,-16L417,-12L421,-1L418,-2L407,-0L404,1L402,6L404,10L403,19L402,28L404,29L410,33L412,31L412,40L406,40L403,36L400,32L393,31L392,26L386,29L380,28L377,24L372,23L368,23L368,21L365,21L361,20L356,21L352,21L350,22L351,12L348,9L347,4L348,-1L347,-5L347,-10L337,-10L337,-13L333,-13L333,-11L328,-11L326,-6L324,-4L320,-5L317,-4L312,-3L308,-8L306,-10L304,-15L302,-22L278,-22L275,-21L272,-21L269,-20L268,-22L270,-23L270,-27L272,-29L275,-31L277,-30L280,-33L284,-33L285,-31L288,-29L293,-34L297,-38L299,-41L299,-48L303,-56L307,-60L312,-64L313,-67L313,-70L314,-72L314,-77L315,-85L317,-90L319,-94L320,-99L320,-105L324,-109L328,-112L335,-109L340,-106L346,-105L352,-103L355,-108L356,-109L360,-108L369,-112L372,-111L375,-111L376,-113L379,-114L385,-113L391,-113L393,-113L398,-107L402,-106L404,-107L408,-106L413,-108L415,-105L422,-99L421,-89L425,-88L422,-85L419,-83L416,-79L414,-75L413,-68L412,-65L411,-59L409,-57L409,-52L408,-51L407,-47L409,-43Z" fill="#E0E0E0" stroke="#fff" stroke-width=".4"/><path d="M511,-56L506,-63L506,-93L513,-102L515,-105L520,-105L528,-111L538,-111L562,-136L568,-143L571,-149L571,-153L571,-161L571,-165L571,-165L574,-165L578,-166L582,-167L586,-170L589,-170L589,-168L589,-163L589,-158L587,-155L585,-146L581,-137L576,-126L568,-114L561,-105L552,-94L543,-87L531,-79L523,-73L514,-63L512,-58Z" fill="#E0E0E0" stroke="#fff" stroke-width=".4"/><path d="M491,-31L479,-40L478,-45L449,-61L447,-62L447,-71L449,-74L454,-80L457,-86L453,-95L452,-99L448,-105L453,-110L459,-116L463,-114L463,-110L466,-107L472,-107L482,-100L485,-100L487,-100L488,-99L494,-98L496,-102L504,-105L507,-102L513,-102L506,-93L506,-63L511,-56L505,-53L503,-49L500,-49L498,-43L496,-40L494,-34Z" fill="#E0E0E0" stroke="#fff" stroke-width=".4"/><path d="M370,-138L364,-142L361,-144L360,-147L362,-150L362,-154L357,-159L356,-163L356,-165L353,-167L353,-172L351,-175L348,-175L349,-178L351,-182L350,-185L353,-188L351,-190L354,-195L357,-201L364,-201L364,-235L364,-239L374,-239L374,-256L407,-256L439,-256L472,-256L474,-248L472,-246L474,-237L477,-227L480,-224L484,-221L480,-216L474,-215L472,-212L471,-206L467,-194L468,-190L467,-183L463,-175L458,-171L455,-164L454,-161L450,-158L448,-150L448,-142L448,-149L447,-149L447,-153L446,-156L441,-159L440,-165L441,-171L438,-172L437,-170L432,-170L434,-167L435,-162L430,-158L426,-152L422,-151L415,-156L412,-154L411,-151L407,-150L406,-148L398,-148L397,-150L391,-150L388,-149L386,-149L382,-154L380,-157L374,-155L372,-152L370,-144L367,-142L364,-142Z" fill="#E0E0E0" stroke="#fff" stroke-width=".4"/><path d="M364,-235L364,-201L357,-201L354,-195L351,-190L353,-188L350,-185L351,-182L349,-178L348,-175L351,-175L353,-172L353,-167L356,-165L356,-163L351,-161L347,-158L341,-149L333,-145L325,-145L323,-145L323,-142L319,-139L316,-135L305,-132L303,-134L302,-134L300,-132L293,-132L295,-134L292,-140L291,-143L287,-144L282,-149L284,-153L288,-152L290,-153L295,-153L290,-161L291,-166L290,-172L287,-177L288,-181L282,-181L282,-187L279,-190L283,-201L293,-209L294,-221L297,-238L299,-242L295,-245L295,-248L292,-250L290,-264L298,-269L331,-252Z" fill="#E0E0E0" stroke="#fff" stroke-width=".4"/><path d="M736,391L742,394L750,396L750,398L747,404L735,405L735,398L736,393Z" fill="#E0E0E0" stroke="#fff" stroke-width=".4"/><path d="M407,180L409,183L407,187L405,190L401,192L399,195L396,196L390,189L395,183L399,179L403,177Z" fill="#E0E0E0" stroke="#fff" stroke-width=".4"/><path d="M-273,226L-276,221L-272,216L-277,209L-283,204L-292,198L-295,198L-303,191L-308,192L-297,179L-288,170L-283,166L-276,161L-275,153L-280,148L-284,150L-282,145L-281,139L-281,134L-284,133L-287,134L-290,134L-291,130L-292,122L-293,119L-299,117L-302,119L-311,117L-310,105L-313,100L-310,98L-311,93L-309,89L-307,82L-309,77L-314,75L-315,71L-314,66L-329,66L-333,56L-330,56L-330,52L-332,50L-332,45L-337,42L-342,42L-346,40L-351,38L-354,35L-364,34L-373,26L-372,20L-373,17L-372,11L-383,12L-387,15L-394,19L-396,21L-401,22L-407,21L-411,22L-415,21L-415,9L-421,14L-429,13L-432,9L-437,8L-435,5L-440,-0L-444,-8L-441,-9L-441,-13L-436,-15L-437,-20L-435,-23L-434,-27L-425,-32L-418,-34L-417,-35L-410,-35L-406,-57L-406,-61L-407,-66L-411,-69L-411,-75L-406,-76L-404,-75L-404,-78L-409,-79L-409,-84L-393,-84L-390,-87L-388,-84L-386,-79L-385,-80L-380,-76L-374,-77L-372,-79L-366,-81L-363,-82L-362,-86L-356,-88L-356,-90L-363,-91L-364,-96L-364,-101L-368,-104L-366,-104L-360,-103L-354,-101L-351,-103L-345,-105L-336,-108L-333,-111L-334,-113L-330,-113L-328,-112L-329,-108L-326,-107L-324,-103L-327,-100L-328,-93L-326,-89L-325,-85L-320,-81L-316,-81L-315,-82L-312,-83L-309,-84L-306,-86L-301,-86L-299,-86L-295,-85L-294,-87L-296,-88L-295,-91L-291,-90L-288,-91L-283,-89L-279,-88L-277,-90L-275,-89L-274,-87L-270,-88L-267,-91L-264,-97L-259,-104L-256,-105L-254,-100L-250,-86L-245,-84L-245,-79L-251,-72L-249,-69L-234,-68L-234,-60L-228,-65L-217,-62L-203,-57L-199,-52L-201,-48L-191,-50L-175,-46L-163,-46L-151,-40L-140,-30L-134,-28L-127,-28L-124,-25L-121,-14L-119,-9L-123,4L-127,10L-139,22L-144,31L-150,38L-152,39L-154,45L-154,61L-156,74L-157,80L-160,83L-161,95L-169,106L-171,116L-177,119L-179,125L-188,125L-201,128L-207,132L-216,135L-226,142L-233,151L-234,158L-233,163L-234,173L-236,177L-242,182L-251,199L-259,207L-264,211L-268,221Z" fill="#E0E0E0" stroke="#fff" stroke-width=".4"/><path d="M-259,-104L-264,-97L-267,-91L-270,-88L-274,-87L-275,-89L-277,-90L-279,-88L-283,-89L-281,-93L-280,-96L-279,-100L-282,-105L-282,-111L-278,-118L-275,-117L-269,-115L-261,-108ZM218,-541L222,-538L234,-536L230,-527L229,-518L227,-516L223,-517L223,-514L217,-507L217,-502L221,-504L224,-499L223,-495L226,-491L223,-487L225,-478L230,-477L229,-472L221,-466L205,-469L193,-465L192,-458L182,-457L173,-462L170,-459L155,-464L152,-469L156,-476L157,-499L149,-512L143,-518L130,-522L129,-531L140,-534L154,-531L151,-545L159,-540L178,-550L181,-560L188,-563L189,-559L193,-558L197,-553L203,-547L207,-548L214,-542L216,-541ZM239,-460L245,-464L246,-455L243,-446L240,-448L238,-456Z" fill="#E0E0E0" stroke="#fff" stroke-width=".4"/><path d="M425,118L420,117L418,119L414,117L410,117L405,113L399,112L396,106L396,103L393,102L383,92L381,87L379,86L376,79L385,80L388,81L391,80L395,75L402,68L405,67L406,64L411,61L417,60L418,63L425,63L428,64L430,66L434,67L438,70L438,81L437,87L436,93L438,96L437,101L436,102L433,108Z" fill="#E0E0E0" stroke="#fff" stroke-width=".4"/><path d="M410,117L399,124L391,130L388,136L386,140L381,140L380,145L379,148L374,150L367,149L363,147L360,146L356,148L354,152L350,155L346,159L340,160L338,157L339,151L334,142L332,141L332,115L340,114L340,83L346,83L359,80L362,83L367,80L370,80L374,78L376,79L379,86L381,87L383,92L393,102L396,103L396,106L399,112L405,113Z" fill="#E0E0E0" stroke="#fff" stroke-width=".4"/><path d="M332,141L332,175L324,180L320,181L315,179L311,178L309,174L306,172L302,176L296,169L293,162L291,153L289,147L286,133L286,122L285,117L282,113L277,106L273,96L271,90L265,82L264,75L268,73L273,72L278,72L283,76L285,75L318,75L324,79L344,80L359,77L366,75L371,75L374,77L374,78L370,80L367,80L362,83L359,80L346,83L340,83L340,114L332,115Z" fill="#E0E0E0" stroke="#fff" stroke-width=".4"/><path d="M29,-183L26,-190L22,-193L25,-195L29,-201L31,-205L34,-208L38,-207L42,-209L47,-209L51,-207L56,-204L61,-198L67,-192L67,-187L69,-182L72,-180L73,-176L72,-174L71,-173L67,-174L66,-173L64,-173L58,-175L54,-175L39,-175L37,-174L34,-175L30,-173L28,-180L36,-179L38,-181L39,-181L42,-183L46,-181L49,-181L53,-183L51,-185L49,-184L46,-184L43,-186L40,-186L38,-184Z" fill="#E0E0E0" stroke="#fff" stroke-width=".4"/><path d="M72,-174L73,-176L72,-180L69,-182L67,-187L67,-192L70,-194L71,-199L74,-199L79,-197L84,-198L87,-198L88,-200L122,-200L123,-206L122,-207L118,-244L114,-283L127,-283L154,-263L182,-244L184,-240L189,-237L193,-236L193,-230L203,-231L203,-211L198,-206L197,-200L190,-199L179,-198L176,-195L170,-195L165,-195L163,-196L158,-195L151,-192L149,-189L143,-185L142,-183L138,-181L134,-182L132,-180L131,-174L124,-167L124,-165L122,-161L123,-156L119,-155L117,-154L116,-157L114,-157L112,-157L111,-154L104,-154L102,-156L101,-155L98,-157L99,-160L98,-161L96,-160L96,-163L98,-165L95,-168L94,-171L92,-173L90,-173L88,-172L86,-170L83,-169L80,-169L78,-171L76,-172L74,-171L73,-171Z" fill="#E0E0E0" stroke="#fff" stroke-width=".4"/><path d="M26,-247L28,-250L61,-250L59,-263L61,-268L69,-269L68,-292L96,-291L96,-305L127,-283L114,-283L118,-244L122,-207L123,-206L122,-200L88,-200L87,-198L84,-198L79,-197L74,-199L71,-199L70,-194L67,-192L61,-198L56,-204L51,-207L47,-209L42,-209L38,-207L34,-208L31,-205L31,-210L33,-214L34,-222L33,-231L32,-235L33,-240L31,-244Z" fill="#E0E0E0" stroke="#fff" stroke-width=".4"/><path d="M189,-122L183,-121L181,-127L181,-146L179,-148L179,-152L176,-155L174,-157L175,-161L178,-162L179,-166L183,-167L185,-169L188,-172L191,-172L197,-167L197,-164L199,-159L197,-156L198,-154L194,-148L191,-146L190,-141L190,-135Z" fill="#E0E0E0" stroke="#fff" stroke-width=".4"/><path d="M290,-264L292,-250L295,-248L295,-245L299,-242L297,-238L294,-221L293,-209L283,-201L279,-190L282,-187L282,-181L288,-181L287,-177L285,-177L284,-174L283,-174L277,-183L275,-183L269,-179L262,-181L258,-182L256,-180L251,-181L246,-177L242,-177L232,-181L228,-179L224,-179L220,-183L212,-186L203,-185L201,-183L200,-178L198,-175L197,-167L191,-172L188,-172L185,-169L185,-175L176,-177L175,-181L171,-187L170,-191L170,-195L176,-195L179,-198L190,-199L197,-200L198,-206L203,-211L203,-231L214,-235L238,-253L266,-270L279,-266L284,-261Z" fill="#E0E0E0" stroke="#fff" stroke-width=".4"/><path d="M189,-122L190,-135L190,-141L191,-146L194,-148L198,-154L197,-156L199,-159L197,-164L197,-167L198,-175L200,-178L201,-183L203,-185L212,-186L220,-183L224,-179L228,-179L232,-181L242,-177L246,-177L251,-181L256,-180L258,-182L262,-181L269,-179L275,-183L277,-183L283,-174L284,-174L288,-171L287,-169L286,-166L279,-160L277,-154L276,-150L274,-148L273,-142L268,-139L267,-135L265,-131L264,-128L259,-125L254,-129L251,-128L246,-124L243,-123L240,-115L237,-110L229,-107L226,-107L223,-105L216,-105L212,-111L209,-117L203,-122L197,-122Z" fill="#E0E0E0" stroke="#fff" stroke-width=".4"/><path d="M287,-177L290,-172L291,-166L290,-161L295,-153L290,-153L288,-152L284,-153L282,-149L287,-144L291,-143L292,-140L295,-134L293,-132L289,-123L287,-122L287,-115L287,-112L287,-109L291,-105L291,-102L294,-98L298,-95L299,-91L299,-89L299,-84L292,-86L286,-89L275,-89L274,-89L269,-88L264,-89L260,-89L247,-89L248,-95L245,-101L241,-102L239,-106L237,-107L237,-110L240,-115L243,-123L246,-124L251,-128L254,-129L259,-125L264,-128L265,-131L267,-135L268,-139L273,-142L274,-148L276,-150L277,-154L279,-160L286,-166L287,-169L288,-171L284,-174L285,-177Z" fill="#E0E0E0" stroke="#fff" stroke-width=".4"/><path d="M175,-161L174,-157L176,-155L179,-152L179,-148L181,-146L181,-127L183,-121L176,-119L174,-122L172,-127L171,-131L173,-139L171,-142L170,-149L170,-155L167,-159L167,-162Z" fill="#E0E0E0" stroke="#fff" stroke-width=".4"/><path d="M167,-162L167,-159L170,-155L170,-149L171,-142L173,-139L171,-131L172,-127L174,-122L176,-119L163,-114L158,-111L151,-109L144,-111L144,-115L140,-122L143,-131L146,-138L144,-150L143,-156L143,-161L157,-162L161,-161L164,-162Z" fill="#E0E0E0" stroke="#fff" stroke-width=".4"/><path d="M101,-155L102,-156L104,-154L111,-154L112,-157L114,-157L116,-157L117,-154L119,-155L123,-156L126,-154L128,-152L132,-150L134,-152L138,-152L144,-150L146,-138L143,-131L140,-122L144,-115L144,-111L140,-111L134,-113L129,-113L119,-111L113,-109L105,-106L104,-106L104,-113L105,-114L105,-117L101,-121L99,-121L96,-124L98,-127L97,-131L98,-134L99,-134L99,-137L99,-139L100,-140L103,-141L101,-148L99,-151L99,-154Z" fill="#E0E0E0" stroke="#fff" stroke-width=".4"/><path d="M54,-175L58,-175L64,-173L66,-173L67,-174L71,-173L72,-174L73,-171L74,-171L76,-172L78,-171L80,-169L83,-169L86,-170L88,-172L90,-173L92,-173L94,-171L95,-168L98,-165L96,-163L96,-160L98,-161L99,-160L98,-157L101,-155L99,-154L99,-151L101,-148L103,-141L100,-140L99,-139L99,-137L99,-134L98,-134L95,-134L94,-131L91,-131L90,-132L90,-136L87,-141L85,-140L83,-140L81,-139L81,-142L79,-145L80,-147L78,-150L75,-153L69,-153L67,-152L65,-152L63,-150L62,-148L58,-144L54,-149L51,-152L49,-153L47,-155L46,-159L45,-160L42,-162L46,-166L49,-166L51,-167L53,-167L54,-168L53,-171L54,-172Z" fill="#E0E0E0" stroke="#fff" stroke-width=".4"/><path d="M30,-173L34,-175L37,-174L39,-175L54,-175L54,-172L53,-171L54,-168L53,-167L51,-167L49,-166L46,-166L42,-162L38,-165L34,-166L33,-168L33,-170L30,-171Z" fill="#E0E0E0" stroke="#fff" stroke-width=".4"/><path d="M98,-134L97,-131L98,-127L96,-124L99,-121L101,-121L105,-117L105,-114L104,-113L104,-106L101,-106L93,-110L85,-116L78,-121L73,-126L75,-129L75,-131L79,-136L83,-140L85,-140L87,-141L90,-136L90,-132L91,-131L94,-131L95,-134Z" fill="#E0E0E0" stroke="#fff" stroke-width=".4"/><path d="M58,-144L62,-148L63,-150L65,-152L67,-152L69,-153L75,-153L78,-150L80,-147L79,-145L81,-142L81,-139L83,-140L79,-136L75,-131L75,-129L73,-126L71,-127L65,-130L60,-135L59,-138Z" fill="#E0E0E0" stroke="#fff" stroke-width=".4"/><path d="M123,-156L122,-161L124,-165L124,-167L131,-174L132,-180L134,-182L138,-181L142,-183L143,-185L149,-189L151,-192L158,-195L163,-196L165,-195L170,-195L170,-191L171,-187L175,-181L176,-177L185,-175L185,-169L183,-167L179,-166L178,-162L175,-161L167,-162L164,-162L161,-161L157,-162L143,-161L143,-156L144,-150L138,-152L134,-152L132,-150L128,-152L126,-154Z" fill="#E0E0E0" stroke="#fff" stroke-width=".4"/><path d="M393,-113L391,-113L385,-113L379,-114L376,-113L375,-111L372,-111L369,-112L360,-108L356,-109L355,-108L352,-103L346,-105L340,-106L335,-109L328,-112L324,-109L320,-105L320,-99L314,-100L309,-101L304,-97L299,-89L299,-91L298,-95L294,-98L291,-102L291,-105L287,-109L287,-112L287,-115L287,-122L289,-123L293,-132L300,-132L302,-134L303,-134L305,-132L316,-135L319,-139L323,-142L323,-145L325,-145L333,-145L341,-149L347,-158L351,-161L356,-163L357,-159L362,-154L362,-150L360,-147L361,-144L364,-142L370,-138L375,-135L375,-132L380,-128L384,-124L386,-119L392,-116Z" fill="#E0E0E0" stroke="#fff" stroke-width=".4"/><path d="M320,-99L319,-94L317,-90L315,-85L314,-77L314,-72L313,-70L313,-67L312,-64L307,-60L303,-56L299,-48L299,-41L297,-38L293,-34L288,-29L285,-31L284,-33L280,-33L277,-30L275,-31L271,-33L269,-32L266,-28L259,-37L265,-42L262,-47L265,-49L270,-50L271,-54L276,-50L283,-50L285,-54L286,-59L285,-66L282,-70L285,-80L283,-82L277,-81L275,-85L275,-89L286,-89L292,-86L299,-84L299,-89L304,-97L309,-101L314,-100Z" fill="#E0E0E0" stroke="#fff" stroke-width=".4"/><path d="M260,-89L264,-89L269,-88L274,-89L275,-89L275,-85L277,-81L283,-82L285,-80L282,-70L285,-66L286,-59L285,-54L283,-50L276,-50L271,-54L270,-50L265,-49L262,-47L265,-42L259,-37L250,-46L245,-52L240,-61L240,-64L242,-66L244,-72L246,-78L248,-79L260,-79Z" fill="#E0E0E0" stroke="#fff" stroke-width=".4"/><path d="M247,-89L260,-89L260,-79L248,-79L246,-78L244,-80Z" fill="#E0E0E0" stroke="#fff" stroke-width=".4"/><path d="M421,-1L424,1L428,2L433,4L438,6L442,10L444,17L442,20L441,26L442,33L440,36L437,44L441,46L416,53L417,60L411,61L406,64L405,67L402,68L395,75L391,80L388,81L385,80L376,79L374,78L374,77L371,75L366,75L359,77L354,71L348,64L348,37L366,37L365,34L366,31L365,27L366,23L365,21L368,21L368,23L372,23L377,24L380,28L386,29L392,26L393,31L400,32L403,36L406,40L412,40L412,31L410,33L404,29L402,28L403,19L404,10L402,6L404,1L407,-0L418,-2Z" fill="#E0E0E0" stroke="#fff" stroke-width=".4"/><path d="M438,6L446,8L447,10L450,14L453,26L450,32L453,43L455,43L458,46L462,52L463,63L459,65L456,71L451,65L450,59L452,55L452,52L449,50L446,50L441,46L437,44L440,36L442,33L441,26L442,20L444,17L442,10Z" fill="#E0E0E0" stroke="#fff" stroke-width=".4"/><path d="M453,26L459,25L469,27L471,26L477,26L480,24L485,24L494,20L500,16L501,19L501,28L502,35L502,48L504,53L501,59L498,65L493,70L485,73L476,77L467,87L464,88L458,95L454,97L454,103L458,110L459,115L459,117L461,117L461,126L459,130L461,131L460,135L457,138L450,141L440,146L436,150L437,154L439,154L438,159L432,159L431,155L430,151L429,148L431,137L429,131L425,118L433,108L436,102L437,101L438,96L436,93L437,87L438,81L438,70L434,67L430,66L428,64L425,63L418,63L417,60L416,53L441,46L446,50L449,50L452,52L452,55L450,59L451,65L456,71L459,65L463,63L462,52L458,46L455,43L453,43L450,32Z" fill="#E0E0E0" stroke="#fff" stroke-width=".4"/><path d="M432,159L430,163L426,164L421,159L421,156L423,153L424,150L426,149L430,151L431,155Z" fill="#E0E0E0" stroke="#fff" stroke-width=".4"/><path d="M275,-31L272,-29L270,-27L270,-23L268,-22L266,-28L269,-32L271,-33ZM269,-20L272,-21L275,-21L278,-22L302,-22L304,-15L306,-10L308,-8L312,-3L317,-4L320,-5L324,-4L326,-6L328,-11L333,-11L333,-13L337,-13L337,-10L347,-10L347,-5L348,-1L347,4L348,9L351,12L350,22L352,21L356,21L361,20L365,21L366,23L365,27L366,31L365,34L366,37L348,37L348,64L354,71L359,77L344,80L324,79L318,75L285,75L283,76L278,72L273,72L268,73L264,75L263,70L265,62L267,54L268,50L270,43L272,39L277,34L280,30L281,24L280,19L278,16L276,11L274,6L274,4L277,1L274,-7L272,-13L268,-18Z" fill="#E0E0E0" stroke="#fff" stroke-width=".4"/><path d="M419,-50L419,-47L421,-45L421,-42L419,-41L416,-36L413,-33L409,-33L409,-43L407,-47L412,-46L414,-51Z" fill="#E0E0E0" stroke="#fff" stroke-width=".4"/><path d="M576,34L578,37L581,43L582,53L584,57L583,61L582,64L579,59L577,61L579,68L578,71L576,73L575,81L572,91L568,103L563,120L560,132L556,143L549,145L542,149L537,146L531,143L529,138L528,130L525,123L524,117L526,110L530,109L530,106L534,99L534,93L532,89L531,84L530,76L533,71L534,66L538,65L543,63L546,62L550,62L554,57L561,52L564,47L562,44L566,45L571,39L571,34L573,30Z" fill="#E0E0E0" stroke="#fff" stroke-width=".4"/><path d="M29,-183L38,-184L40,-186L43,-186L46,-184L49,-184L51,-185L53,-183L49,-181L46,-181L42,-183L39,-181L38,-181L36,-179L28,-180Z" fill="#E0E0E0" stroke="#fff" stroke-width=".4"/><path d="M1036,-189L1028,-190L1017,-189L1012,-182L1014,-171L1007,-175L1000,-175L1001,-182L994,-182L993,-173L989,-160L986,-153L986,-147L992,-146L995,-139L997,-132L1001,-127L1006,-126L1011,-122L1008,-118L1002,-117L1002,-121L995,-125L994,-124L990,-127L989,-131L984,-136L980,-140L979,-135L978,-139L978,-145L981,-153L985,-161L989,-169L986,-177L986,-181L985,-185L980,-192L978,-196L981,-198L984,-205L980,-211L975,-217L971,-225L975,-227L978,-236L984,-237L989,-240L994,-242L997,-240L998,-234L1003,-234L1001,-225L1002,-217L1010,-222L1013,-221L1018,-221L1019,-224L1025,-223L1032,-216L1032,-208L1039,-200L1039,-193Z" fill="#E0E0E0" stroke="#fff" stroke-width=".4"/><path d="M1054,-189L1046,-192L1043,-186L1036,-189L1039,-193L1039,-200L1032,-208L1032,-216L1025,-223L1019,-224L1018,-221L1013,-221L1010,-222L1002,-217L1001,-225L1003,-234L998,-234L997,-240L994,-242L996,-246L1003,-251L1003,-249L1008,-249L1006,-259L1011,-261L1016,-253L1019,-245L1029,-245L1033,-238L1027,-235L1025,-232L1035,-227L1042,-217L1047,-209L1053,-203L1055,-197Z" fill="#E0E0E0" stroke="#fff" stroke-width=".4"/><path d="M994,-242L989,-240L984,-237L978,-236L975,-227L971,-225L975,-217L980,-211L984,-205L981,-198L978,-196L980,-192L985,-185L986,-181L986,-177L989,-169L985,-161L981,-153L980,-159L983,-165L980,-170L981,-179L977,-184L974,-194L973,-205L969,-212L964,-208L955,-202L950,-202L945,-204L948,-215L946,-223L940,-233L941,-236L936,-237L930,-245L929,-252L932,-250L932,-257L936,-259L936,-263L937,-266L938,-275L944,-273L948,-280L948,-285L953,-293L953,-298L963,-304L969,-303L968,-308L971,-310L971,-314L976,-314L978,-309L982,-306L982,-299L982,-292L974,-284L973,-273L982,-275L984,-267L989,-265L987,-257L993,-254L996,-252L1002,-255L1003,-251L996,-246Z" fill="#E0E0E0" stroke="#fff" stroke-width=".4"/><path d="M971,-314L971,-310L968,-308L969,-303L963,-304L953,-298L953,-293L948,-285L948,-280L944,-273L938,-275L937,-266L936,-263L936,-259L932,-257L928,-271L926,-271L924,-265L920,-270L922,-275L926,-275L930,-283L925,-285L917,-285L910,-286L909,-292L905,-293L898,-297L895,-290L901,-286L896,-282L894,-279L900,-276L898,-271L901,-264L902,-257L901,-254L895,-254L885,-252L886,-245L881,-240L869,-234L860,-224L854,-218L846,-213L846,-209L842,-207L834,-204L830,-203L828,-197L830,-185L830,-178L827,-170L827,-156L822,-156L819,-149L821,-147L813,-144L811,-138L807,-136L800,-144L796,-156L793,-164L790,-168L785,-176L783,-187L782,-192L774,-204L771,-221L768,-232L768,-242L767,-251L755,-245L749,-246L738,-257L742,-260L740,-264L730,-272L736,-278L754,-278L752,-285L747,-290L747,-297L741,-301L750,-311L760,-310L768,-320L774,-330L782,-339L782,-346L789,-352L782,-357L779,-363L776,-372L780,-376L793,-374L802,-375L810,-384L819,-372L818,-364L821,-359L821,-354L815,-355L817,-345L825,-338L837,-332L832,-327L828,-319L836,-315L844,-310L855,-305L866,-304L871,-299L877,-298L887,-296L894,-296L895,-300L894,-306L895,-310L900,-312L900,-305L901,-303L908,-299L913,-301L920,-300L927,-300L928,-306L924,-309L931,-310L938,-317L948,-323L955,-321L961,-325L965,-319L962,-315Z" fill="#E0E0E0" stroke="#fff" stroke-width=".4"/><path d="M842,-132L841,-124L838,-121L831,-119L827,-126L825,-138L829,-152L835,-147L838,-141Z" fill="#E0E0E0" stroke="#fff" stroke-width=".4"/><path d="M994,-124L995,-125L1002,-121L1002,-117L1008,-118L1011,-122L1012,-121L1017,-116L1021,-110L1021,-105L1020,-101L1021,-98L1022,-93L1025,-91L1028,-84L1028,-81L1022,-80L1014,-86L1004,-93L1003,-97L999,-103L997,-110L994,-114L995,-120ZM1140,-104L1133,-106L1124,-106L1121,-96L1118,-93L1114,-82L1107,-80L1099,-82L1095,-82L1090,-78L1085,-78L1080,-76L1074,-81L1073,-87L1079,-84L1085,-85L1087,-92L1090,-94L1100,-96L1106,-102L1110,-108L1114,-103L1116,-106L1120,-106L1120,-111L1120,-115L1127,-121L1131,-127L1134,-127L1138,-123L1139,-120L1144,-117L1151,-115L1151,-112L1145,-111L1147,-107Z" fill="#E0E0E0" stroke="#fff" stroke-width=".4"/><path d="M468,-190L467,-194L471,-206L472,-212L474,-215L480,-216L484,-221L489,-211L491,-203L496,-199L507,-191L512,-186L516,-181L519,-178L523,-176L520,-174L517,-174L514,-177L511,-182L507,-185L505,-188L498,-191L492,-191L490,-193L485,-191L480,-195L478,-189Z" fill="#E0E0E0" stroke="#fff" stroke-width=".4"/><path d="M597,-230L603,-216L606,-210L600,-207L598,-203L598,-201L590,-197L577,-193L569,-187L566,-186L563,-187L558,-183L553,-182L546,-181L544,-181L542,-179L540,-178L539,-176L535,-176L532,-175L526,-175L524,-180L524,-185L523,-187L521,-194L519,-197L521,-198L520,-202L521,-203L520,-207L524,-210L523,-213L525,-218L529,-215L531,-216L541,-216L542,-215L550,-215L553,-215L555,-212L559,-214L565,-223L573,-227Z" fill="#E0E0E0" stroke="#fff" stroke-width=".4"/><path d="M562,-136L538,-111L528,-111L520,-105L515,-105L513,-102L507,-102L504,-105L496,-102L494,-98L488,-99L487,-100L485,-100L482,-100L472,-107L466,-107L463,-110L463,-114L459,-116L454,-125L450,-127L449,-130L444,-134L439,-135L442,-139L447,-140L448,-142L448,-150L450,-158L454,-161L455,-164L458,-171L463,-175L467,-183L468,-190L478,-189L480,-195L485,-191L490,-193L492,-191L498,-191L505,-188L507,-185L511,-182L514,-177L517,-174L514,-171L511,-167L512,-164L512,-162L517,-162L519,-162L520,-161L519,-158L522,-153L525,-149L528,-146L555,-136Z" fill="#E0E0E0" stroke="#fff" stroke-width=".4"/><path d="M517,-174L520,-174L523,-176L525,-173L525,-170L520,-168L523,-165L520,-161L519,-162L517,-162L512,-162L512,-164L511,-167L514,-171Z" fill="#E0E0E0" stroke="#fff" stroke-width=".4"/><path d="M571,-165L571,-165L571,-161L571,-153L571,-149L568,-143L562,-136L555,-136L528,-146L525,-149L522,-153L519,-158L520,-161L523,-165L526,-164L528,-160L531,-157L536,-157L543,-159L552,-160L560,-163L564,-163L567,-165Z" fill="#E0E0E0" stroke="#fff" stroke-width=".4"/><path d="M447,-62L430,-62L421,-62L418,-61L413,-58L411,-59L412,-65L413,-68L414,-75L416,-79L419,-83L422,-85L425,-88L421,-89L422,-99L425,-101L430,-100L437,-101L443,-101L448,-105L452,-99L453,-95L457,-86L454,-80L449,-74L447,-71Z" fill="#E0E0E0" stroke="#fff" stroke-width=".4"/><path d="M418,-61L422,-56L421,-51L419,-50L414,-51L412,-46L407,-47L408,-51L409,-52L409,-57L411,-59L413,-58Z" fill="#E0E0E0" stroke="#fff" stroke-width=".4"/><path d="M422,-99L415,-105L413,-108L408,-106L404,-107L402,-106L398,-107L393,-113L392,-116L386,-119L384,-124L380,-128L375,-132L375,-135L370,-138L364,-142L367,-142L370,-144L372,-152L374,-155L380,-157L382,-154L386,-149L388,-149L391,-150L397,-150L398,-148L406,-148L407,-150L411,-151L412,-154L415,-156L422,-151L426,-152L430,-158L435,-162L434,-167L432,-170L437,-170L438,-172L441,-171L440,-165L441,-159L446,-156L447,-153L447,-149L448,-149L448,-142L447,-140L442,-139L439,-135L444,-134L449,-130L450,-127L454,-125L459,-116L453,-110L448,-105L443,-101L437,-101L430,-100L425,-101Z" fill="#E0E0E0" stroke="#fff" stroke-width=".4"/></g><g clip-path="url(#v)"><path d="M409.7,117.9L409.8,117.9L412.2,117.4L414.1,117.8L416.5,118.7L418.8,119.1L420.8,118.8L422.5,118.7L423.8,118.9L424.8,119.2L425.6,119.7L425.6,120.2L425.7,120.4L426.1,121.6L426.7,123.5L427.0,125.2L427.6,127.6L427.6,128.9L427.7,129.4L428.2,130.0L428.8,131.1L429.0,131.8L429.2,132.2L429.8,133.1L430.3,134.4L430.7,136.2L431.1,137.1L431.2,137.5L431.3,138.3L431.3,139.9L431.3,141.7L431.3,143.8L431.4,145.5L431.3,146.4L431.3,148.9L430.8,150.2L430.9,151.2L431.0,151.9L430.8,152.0L430.4,152.1L428.5,151.1L426.6,150.0L426.4,149.9L426.0,150.0L424.9,150.9L423.9,152.1L423.5,153.2L422.7,154.3L421.6,156.1L421.5,156.5L421.4,157.9L421.5,159.3L421.6,159.5L422.2,159.6L422.7,160.7L423.7,162.6L425.5,163.7L427.1,164.3L429.3,164.4L431.1,164.4L431.0,163.1L431.2,161.2L431.4,159.8L431.7,159.8L432.1,159.9L432.4,160.0L433.1,160.0L434.4,160.2L435.4,160.2L436.3,160.2L437.9,160.1L438.8,160.1L438.5,162.3L437.3,165.6L436.9,167.2L435.9,172.7L434.6,175.5L433.8,176.6L431.7,178.7L431.1,179.1L430.6,179.4L429.6,179.6L426.0,183.8L424.6,185.8L423.4,188.8L422.2,190.4L420.4,193.9L418.8,196.5L417.3,199.0L414.7,202.4L413.6,203.4L412.8,203.8L410.7,205.8L407.7,209.0L405.5,211.8L402.1,215.1L400.2,216.5L397.3,219.3L396.5,219.7L393.2,222.3L390.8,223.9L387.0,225.7L385.5,226.3L381.8,225.8L380.3,226.0L379.0,227.2L378.9,228.8L378.4,229.0L377.6,228.9L375.1,228.3L373.7,228.4L372.9,229.3L372.2,230.3L370.3,230.4L366.9,229.3L362.9,228.6L362.0,228.5L360.1,229.3L359.4,229.5L356.6,229.3L355.0,228.8L353.5,228.8L352.3,229.2L350.9,229.3L347.2,232.4L345.2,232.4L343.5,232.7L342.7,232.7L341.1,232.3L340.6,232.3L339.7,232.5L338.8,233.1L336.8,233.3L336.0,233.7L332.6,236.5L331.8,236.4L331.1,236.2L329.4,236.2L327.4,234.7L326.6,234.8L326.8,234.4L326.9,233.6L326.4,233.0L326.1,232.8L325.4,232.8L325.0,232.1L323.7,232.1L323.3,232.3L322.7,232.3L322.7,231.6L322.7,231.2L322.7,230.5L322.6,229.7L322.1,229.5L321.7,229.4L320.9,229.4L320.3,229.5L320.0,229.8L319.7,230.3L319.7,232.1L319.3,231.6L318.8,230.5L318.6,229.4L318.8,228.0L319.7,227.5L319.6,226.6L319.5,225.9L318.4,223.8L318.0,222.9L317.2,222.3L316.5,220.8L315.8,220.3L315.5,219.2L314.9,218.4L314.6,217.1L315.0,216.3L315.6,215.9L316.2,216.5L316.9,216.3L317.9,215.3L318.6,213.9L318.6,211.6L318.4,210.2L317.6,206.5L317.2,205.6L315.4,203.0L313.2,199.5L310.5,194.0L309.2,190.7L307.2,184.0L305.5,180.3L303.3,176.8L303.1,176.6L303.4,176.2L304.5,175.4L305.0,175.2L305.3,175.3L305.6,175.1L305.9,174.5L305.9,174.0L306.1,173.3L306.3,172.9L306.6,172.0L307.1,171.5L308.1,171.1L308.9,171.6L309.2,172.1L309.3,172.7L309.7,173.0L310.2,173.0L310.6,173.4L310.8,174.1L310.8,174.7L310.5,175.1L310.5,175.5L310.9,176.1L311.0,176.6L311.3,177.4L312.7,177.8L313.4,178.0L314.6,178.1L315.7,178.4L316.7,179.0L318.4,179.1L320.8,178.9L322.8,179.0L324.3,179.5L325.5,179.6L326.2,179.3L326.5,178.8L326.4,178.1L326.7,177.7L327.5,177.5L328.1,177.0L328.6,176.2L329.7,175.6L331.4,175.0L332.2,175.0L332.2,173.7L332.2,169.6L332.2,165.4L332.2,161.3L332.2,157.2L332.2,153.1L332.2,149.0L332.2,144.9L332.2,141.1L332.6,141.4L335.2,143.4L336.0,144.5L336.3,145.2L337.4,147.6L338.2,149.9L338.9,151.5L339.0,152.3L339.1,153.0L339.2,153.4L339.1,153.8L338.6,154.7L338.2,155.4L337.6,156.4L337.5,157.6L337.7,159.1L338.0,159.9L338.5,160.1L339.6,159.7L340.3,159.9L341.2,160.1L344.4,160.0L344.8,160.1L346.0,160.2L346.4,160.1L346.7,159.7L347.2,158.8L347.5,158.5L348.2,158.4L349.0,158.2L349.7,157.6L350.7,155.9L352.8,154.3L353.4,153.9L353.8,153.5L354.2,152.9L354.9,151.0L355.5,149.3L355.7,148.6L356.2,147.3L356.8,146.5L357.3,146.1L357.6,146.0L358.4,145.8L359.3,145.6L360.4,145.8L361.5,146.3L362.7,147.1L364.0,148.1L364.5,148.6L365.2,148.9L366.3,148.9L367.0,148.9L368.1,149.9L368.7,150.0L370.0,150.3L371.6,150.6L372.6,150.6L373.7,150.0L374.4,150.0L375.4,150.1L376.5,149.9L377.3,149.7L377.9,149.2L378.5,148.7L379.1,147.1L379.5,145.9L380.0,144.5L380.7,142.6L380.9,141.2L381.2,140.9L382.2,140.4L383.0,140.2L385.2,139.6L385.6,139.4L386.1,138.7L387.0,137.7L388.2,136.8L388.8,136.3L389.9,131.9L390.1,131.4L390.9,130.3L391.4,129.8L391.7,129.8L392.2,129.5L392.7,128.9L393.5,128.5L394.3,128.4L394.8,128.0L395.1,127.3L395.5,127.0L396.1,127.0L396.4,126.8L396.5,126.4L396.9,126.0L397.5,125.7L397.9,125.4L397.9,125.0L398.7,123.9L400.2,122.3L401.6,121.4L402.9,121.2L404.2,120.9L405.4,120.4L406.2,119.7L406.8,118.6L407.8,118.0ZM404.5,190.7L405.9,190.1L406.5,189.7L406.9,189.4L407.5,188.9L407.7,187.8L407.8,186.9L408.3,186.4L408.7,186.1L409.1,185.6L409.6,184.4L409.9,183.2L409.9,182.8L409.7,182.3L409.5,181.8L409.2,181.1L408.8,181.0L408.1,180.6L407.2,179.8L406.3,179.1L405.5,178.1L405.2,178.0L404.4,177.3L404.0,176.9L403.8,176.4L403.6,176.3L403.2,176.4L402.3,176.6L400.4,177.4L399.1,178.2L398.1,179.0L397.0,179.4L396.3,179.7L395.6,180.7L395.0,181.6L394.5,182.4L394.2,182.8L394.0,183.1L393.7,183.6L393.1,184.5L392.6,185.1L391.9,185.5L391.0,185.9L390.6,186.1L390.6,186.5L390.9,187.4L391.3,188.2L391.8,189.2L392.2,189.8L392.7,190.7L393.1,191.2L393.1,192.1L393.2,192.4L393.4,192.7L393.6,192.8L393.7,192.9L394.2,193.2L394.4,193.3L394.7,193.6L395.0,194.2L395.7,194.9L396.4,195.4L397.6,195.7L398.6,195.8L398.9,195.7L399.2,195.3L399.5,194.7L399.6,194.0L399.9,193.6L401.0,191.8L401.7,191.1L402.1,191.1L402.6,190.9L403.2,190.9L403.7,190.9L403.8,190.9ZM479.8,369.9L479.4,370.1L477.8,369.9L477.6,369.4L478.1,368.7L478.4,368.4L479.2,368.6L479.9,369.2L480.1,369.3Z" fill="#4ECDC4" stroke="#2C3E50" stroke-width="1"/></g><circle cx="400.0" cy="150.0" r="4" fill="#E74C3C" stroke="#fff" stroke-width="2"/><text x="400.0" y="140.0" text-anchor="middle" font-family="sans-serif" font-weight="700" font-size="10" fill="#2D3436">Pretoria</text></svg>