<svg viewBox="0 0 800 300" xmlns="http://www.w3.org/2000/svg"><defs><clipPath id="v"><rect width="800" height="300"/></clipPath></defs><rect width="800" height="300" fill="#DCEEF8"/><g clip-path="url(#v)"><path d="M2199,176L2202,174L2206,178L2204,185L2197,186L2190,185L2189,179L2193,175ZM2221,165L2214,168L2206,170L2204,166L2211,163L2214,162L2221,158L2221,158L2221,165ZM-2101,158L-2101,158L-2101,158L-2099,158L-2100,164L-2101,165L-2101,165L-2101,158Z" fill="#E0E0E0" stroke="#fff" stroke-width=".4"/><path d="M467,-26L469,-24L513,0L513,7L531,19L525,34L526,41L534,45L534,48L531,56L531,59L531,65L535,73L540,85L544,87L534,95L521,99L514,99L510,103L502,103L498,105L484,101L475,102L472,86L467,80L465,77L453,74L447,71L439,69L434,67L429,63L423,48L416,41L413,34L414,28L412,17L417,16L422,12L426,6L429,3L429,-1L426,-3L426,-8L429,-10L430,-17L425,-23L429,-25L443,-25Z" fill="#E0E0E0" stroke="#fff" stroke-width=".4"/><path d="M412,17L414,28L413,34L416,41L423,48L429,63L424,62L408,64L405,66L402,73L404,79L402,93L401,106L404,108L412,113L416,110L417,124L407,123L402,117L398,111L389,110L386,103L379,107L369,105L365,100L358,99L352,99L351,95L347,95L342,94L334,96L329,96L326,97L327,82L323,78L322,70L323,63L321,58L321,51L306,51L307,46L301,47L301,49L293,49L290,56L288,59L282,57L278,59L270,60L265,54L262,50L259,43L256,34L221,33L216,35L213,35L208,36L206,33L209,31L210,26L212,23L216,20L219,22L223,17L230,17L231,21L235,23L242,15L249,9L252,5L252,-4L257,-16L262,-22L270,-28L272,-32L272,-36L274,-41L273,-47L275,-58L277,-65L281,-72L282,-79L283,-88L287,-94L294,-98L304,-93L311,-89L320,-88L329,-85L333,-93L334,-94L340,-92L353,-98L358,-96L362,-96L363,-99L368,-100L377,-99L385,-99L389,-100L396,-90L401,-89L405,-91L410,-90L417,-92L420,-87L430,-79L429,-65L434,-64L430,-59L426,-56L421,-50L419,-44L418,-35L415,-30L415,-21L412,-18L411,-10L410,-10L408,-3L411,3Z" fill="#E0E0E0" stroke="#fff" stroke-width=".4"/><path d="M559,-17L552,-27L552,-71L563,-84L566,-88L574,-88L584,-97L600,-97L634,-133L642,-144L648,-151L648,-157L648,-170L648,-175L648,-175L652,-175L657,-177L663,-178L669,-182L674,-183L674,-179L673,-172L673,-166L670,-161L667,-148L661,-134L654,-119L643,-101L633,-88L619,-71L607,-62L589,-50L578,-41L565,-26L562,-20Z" fill="#E0E0E0" stroke="#fff" stroke-width=".4"/><path d="M531,19L513,7L513,0L469,-24L467,-26L467,-38L470,-43L476,-51L481,-60L475,-74L474,-80L468,-88L476,-95L484,-103L490,-101L490,-94L494,-91L502,-91L518,-80L521,-80L524,-81L527,-79L535,-78L539,-83L549,-88L554,-84L563,-84L552,-71L552,-27L559,-17L551,-12L548,-7L543,-6L542,2L538,7L536,15Z" fill="#E0E0E0" stroke="#fff" stroke-width=".4"/><path d="M355,-136L346,-142L342,-145L341,-149L343,-154L343,-159L336,-166L335,-172L335,-175L330,-178L330,-185L328,-190L323,-189L325,-194L328,-199L326,-204L330,-208L328,-211L331,-219L336,-228L347,-227L346,-277L346,-282L360,-282L360,-308L408,-308L455,-308L503,-308L507,-295L504,-293L506,-280L510,-265L515,-262L521,-257L515,-250L506,-248L502,-244L501,-235L496,-217L497,-212L495,-201L491,-189L483,-183L478,-174L477,-169L471,-165L468,-153L468,-142L468,-151L466,-151L466,-158L465,-162L459,-167L457,-175L459,-184L453,-185L452,-183L445,-182L448,-178L449,-171L442,-164L436,-155L430,-154L420,-161L416,-159L414,-155L408,-153L408,-150L396,-150L394,-153L386,-153L381,-151L378,-152L372,-159L370,-163L361,-161L358,-155L355,-145L350,-142L347,-141Z" fill="#E0E0E0" stroke="#fff" stroke-width=".4"/><path d="M346,-277L347,-227L336,-228L331,-219L328,-211L330,-208L326,-204L328,-199L325,-194L323,-189L328,-190L330,-185L330,-178L335,-175L335,-172L327,-170L321,-165L312,-151L301,-146L289,-146L286,-145L287,-141L281,-137L276,-132L261,-127L258,-130L256,-130L253,-127L243,-126L245,-130L242,-138L240,-143L235,-145L228,-152L230,-158L236,-157L239,-158L246,-158L239,-169L240,-177L239,-185L234,-193L235,-199L228,-199L228,-207L223,-211L228,-228L243,-240L244,-256L248,-282L251,-287L246,-292L246,-296L241,-299L238,-319L250,-326L298,-301Z" fill="#E0E0E0" stroke="#fff" stroke-width=".4"/><path d="M256,321L262,315L267,318L269,324L274,325L282,328L288,327L299,320L299,270L302,272L309,285L308,293L311,298L319,296L325,290L331,286L334,280L340,277L345,278L351,282L360,283L368,280L369,275L371,269L378,268L382,263L386,254L396,245L413,235L418,235L424,237L428,236L434,237L440,255L443,265L441,280L442,284L436,282L433,283L432,287L428,292L428,296L436,304L443,302L445,296L454,296L451,306L450,317L447,324L438,331L436,333L431,340L428,347L421,357L407,371L399,380L390,386L377,392L371,393L370,397L362,395L356,397L343,395L336,396L331,396L319,401L308,404L301,409L295,409L290,404L286,404L281,397L281,399L279,396L279,387L275,378L279,375L279,364L271,351L265,339L265,339ZM408,326L403,322L397,325L391,330L384,339L393,350L397,348L400,344L406,342L408,337L412,331Z" fill="#E0E0E0" stroke="#fff" stroke-width=".4"/><path d="M408,326L412,331L408,337L406,342L400,344L397,348L393,350L384,339L391,330L397,325L403,322Z" fill="#E0E0E0" stroke="#fff" stroke-width=".4"/><path d="M-560,-87L-567,-76L-571,-67L-576,-63L-582,-62L-583,-65L-586,-66L-590,-62L-595,-65L-592,-70L-591,-75L-589,-81L-593,-88L-594,-96L-588,-106L-584,-105L-575,-102L-562,-92ZM134,-722L140,-718L157,-714L151,-702L150,-689L146,-686L141,-688L141,-683L132,-673L132,-665L138,-668L142,-660L142,-656L145,-649L141,-644L144,-631L151,-629L149,-622L138,-612L115,-617L97,-611L96,-601L82,-599L68,-607L64,-603L42,-611L37,-617L43,-627L46,-661L33,-679L24,-688L6,-695L5,-708L20,-712L41,-707L37,-728L48,-720L76,-735L80,-750L90,-754L92,-747L97,-747L103,-740L111,-731L118,-732L128,-724L131,-722ZM165,-604L173,-610L175,-596L171,-584L165,-587L163,-598Z" fill="#E0E0E0" stroke="#fff" stroke-width=".4"/><path d="M434,237L428,236L424,237L418,235L413,235L406,229L396,227L393,219L393,215L388,213L374,199L370,192L368,190L363,179L377,181L381,182L385,182L391,174L402,163L406,162L408,158L414,153L423,151L424,156L434,156L440,159L442,162L448,163L454,167L454,182L452,191L452,201L453,204L452,212L450,213L447,222Z" fill="#E0E0E0" stroke="#fff" stroke-width=".4"/><path d="M413,235L396,245L386,254L382,263L378,268L371,269L369,275L368,280L360,283L351,282L345,278L340,277L334,280L331,286L325,290L319,296L311,298L308,293L309,285L302,272L299,270L299,232L311,231L311,186L320,186L338,181L343,186L351,181L354,181L361,178L363,179L368,190L370,192L374,199L388,213L393,215L393,219L396,227L406,229Z" fill="#E0E0E0" stroke="#fff" stroke-width=".4"/><path d="M299,270L299,320L288,327L282,328L274,325L269,324L267,318L262,315L256,321L247,311L243,301L240,288L237,278L233,258L233,242L231,235L226,230L220,219L214,204L211,196L202,184L201,174L207,172L214,169L222,170L229,175L231,175L279,174L288,180L317,182L339,177L349,174L356,175L361,177L361,178L354,181L351,181L343,186L338,181L320,186L311,186L311,231L299,232Z" fill="#E0E0E0" stroke="#fff" stroke-width=".4"/><path d="M-141,-202L-146,-212L-152,-216L-146,-218L-141,-227L-138,-233L-134,-237L-128,-236L-122,-239L-115,-239L-109,-236L-101,-232L-94,-223L-86,-215L-86,-207L-83,-200L-79,-196L-78,-191L-78,-188L-80,-187L-87,-188L-87,-187L-90,-186L-99,-189L-105,-189L-127,-190L-130,-189L-134,-189L-140,-187L-142,-196L-131,-196L-128,-198L-126,-198L-122,-201L-117,-198L-111,-198L-106,-201L-109,-204L-113,-202L-116,-202L-121,-205L-125,-205L-128,-202Z" fill="#E0E0E0" stroke="#fff" stroke-width=".4"/><path d="M-78,-188L-78,-191L-79,-196L-83,-200L-86,-207L-86,-215L-82,-217L-80,-224L-76,-224L-68,-221L-61,-223L-57,-223L-55,-225L-7,-226L-4,-234L-6,-236L-12,-290L-18,-347L1,-347L41,-318L82,-290L85,-284L92,-280L98,-278L98,-270L111,-271L111,-242L105,-234L104,-226L93,-224L77,-223L72,-219L64,-218L57,-218L54,-221L47,-219L36,-214L34,-210L24,-204L23,-201L18,-199L12,-200L9,-197L7,-189L-3,-179L-2,-175L-6,-169L-5,-162L-10,-160L-13,-159L-15,-164L-18,-163L-20,-163L-22,-159L-32,-160L-35,-161L-36,-160L-40,-164L-40,-167L-41,-169L-44,-168L-43,-172L-41,-175L-46,-180L-47,-183L-50,-186L-52,-186L-55,-185L-59,-183L-62,-180L-67,-181L-71,-184L-73,-185L-76,-183L-78,-183Z" fill="#E0E0E0" stroke="#fff" stroke-width=".4"/><path d="M92,-112L82,-111L79,-119L80,-147L78,-150L77,-156L73,-160L69,-164L71,-170L75,-171L77,-177L83,-178L86,-181L90,-185L94,-185L103,-178L103,-174L106,-167L103,-162L104,-159L99,-151L95,-147L93,-140L93,-132Z" fill="#E0E0E0" stroke="#fff" stroke-width=".4"/><path d="M238,-319L241,-299L246,-296L246,-292L251,-287L248,-282L244,-256L243,-240L228,-228L223,-211L228,-207L228,-199L235,-199L234,-193L231,-192L230,-188L228,-188L220,-201L217,-202L208,-195L198,-199L192,-199L188,-198L181,-198L174,-193L168,-192L154,-199L148,-196L142,-196L137,-201L125,-205L112,-204L109,-201L108,-194L104,-189L103,-178L94,-185L90,-185L86,-181L86,-190L72,-193L72,-199L65,-207L64,-212L64,-218L72,-219L77,-223L93,-224L104,-226L105,-234L111,-242L111,-271L128,-277L163,-302L204,-327L223,-321L230,-314Z" fill="#E0E0E0" stroke="#fff" stroke-width=".4"/><path d="M92,-112L93,-132L93,-140L95,-147L99,-151L104,-159L103,-162L106,-167L103,-174L103,-178L104,-189L108,-194L109,-201L112,-204L125,-205L137,-201L142,-196L148,-196L154,-199L168,-192L174,-193L181,-198L188,-198L192,-199L198,-199L208,-195L217,-202L220,-201L228,-188L230,-188L235,-183L234,-181L233,-177L223,-168L220,-160L218,-153L215,-151L213,-142L207,-137L205,-131L202,-126L201,-121L193,-117L186,-122L181,-122L174,-115L171,-115L165,-103L162,-94L150,-90L145,-91L140,-88L131,-88L124,-96L120,-105L112,-113L103,-112Z" fill="#E0E0E0" stroke="#fff" stroke-width=".4"/><path d="M234,-193L239,-185L240,-177L239,-169L246,-158L239,-158L236,-157L230,-158L228,-152L235,-145L240,-143L242,-138L245,-130L243,-126L237,-114L234,-112L234,-103L235,-98L234,-94L239,-88L240,-83L245,-77L250,-73L251,-68L252,-64L251,-58L242,-61L232,-64L217,-64L215,-65L208,-63L201,-65L195,-64L176,-64L178,-74L173,-82L167,-84L165,-89L162,-91L162,-94L165,-103L171,-115L174,-115L181,-122L186,-122L193,-117L201,-121L202,-126L205,-131L207,-137L213,-142L215,-151L218,-153L220,-160L223,-168L233,-177L234,-181L235,-183L230,-188L231,-192Z" fill="#E0E0E0" stroke="#fff" stroke-width=".4"/><path d="M71,-170L69,-164L73,-160L77,-156L78,-150L80,-147L79,-119L82,-111L73,-108L70,-113L67,-120L66,-126L68,-137L65,-142L64,-151L64,-160L59,-166L60,-170Z" fill="#E0E0E0" stroke="#fff" stroke-width=".4"/><path d="M60,-170L59,-166L64,-160L64,-151L65,-142L68,-137L66,-126L67,-120L70,-113L73,-108L54,-101L47,-97L36,-94L26,-97L26,-102L21,-112L24,-126L29,-136L26,-153L24,-163L25,-170L45,-170L51,-169L55,-171Z" fill="#E0E0E0" stroke="#fff" stroke-width=".4"/><path d="M-36,-160L-35,-161L-32,-160L-22,-159L-20,-163L-18,-163L-15,-164L-13,-159L-10,-160L-5,-162L0,-160L3,-156L8,-153L12,-156L18,-157L26,-153L29,-136L24,-126L21,-112L26,-102L26,-97L20,-97L12,-99L4,-99L-10,-97L-18,-94L-30,-89L-33,-90L-32,-99L-31,-101L-31,-106L-36,-111L-40,-112L-43,-115L-41,-120L-42,-126L-41,-130L-40,-130L-39,-135L-40,-137L-39,-139L-34,-140L-37,-150L-40,-155L-39,-159Z" fill="#E0E0E0" stroke="#fff" stroke-width=".4"/><path d="M-105,-189L-99,-189L-90,-186L-87,-187L-87,-188L-80,-187L-78,-188L-78,-183L-76,-183L-73,-185L-71,-184L-67,-181L-62,-180L-59,-183L-55,-185L-52,-186L-50,-186L-47,-183L-46,-180L-41,-175L-43,-172L-44,-168L-41,-169L-40,-167L-40,-164L-36,-160L-39,-159L-40,-155L-37,-150L-34,-140L-39,-139L-40,-137L-39,-135L-40,-130L-41,-130L-45,-130L-47,-125L-51,-125L-53,-128L-52,-133L-57,-140L-60,-139L-63,-138L-66,-138L-66,-142L-68,-145L-68,-149L-70,-154L-74,-158L-83,-158L-86,-156L-89,-156L-91,-153L-93,-150L-99,-144L-104,-152L-109,-156L-112,-158L-115,-160L-117,-166L-118,-168L-122,-170L-116,-176L-113,-176L-110,-178L-107,-178L-105,-180L-106,-184L-105,-185Z" fill="#E0E0E0" stroke="#fff" stroke-width=".4"/><path d="M-140,-187L-134,-189L-130,-189L-127,-190L-105,-189L-105,-185L-106,-184L-105,-180L-107,-178L-110,-178L-113,-176L-116,-176L-122,-170L-128,-176L-133,-176L-136,-180L-136,-182L-140,-184Z" fill="#E0E0E0" stroke="#fff" stroke-width=".4"/><path d="M-41,-130L-42,-126L-41,-120L-43,-115L-40,-112L-36,-111L-31,-106L-31,-101L-32,-99L-33,-90L-36,-89L-48,-95L-59,-104L-69,-111L-77,-119L-75,-123L-74,-126L-68,-133L-63,-138L-60,-139L-57,-140L-52,-133L-53,-128L-51,-125L-47,-125L-45,-130Z" fill="#E0E0E0" stroke="#fff" stroke-width=".4"/><path d="M-99,-144L-93,-150L-91,-153L-89,-156L-86,-156L-83,-158L-74,-158L-70,-154L-68,-149L-68,-145L-66,-142L-66,-138L-63,-138L-68,-133L-74,-126L-75,-123L-77,-119L-81,-120L-89,-125L-96,-131L-98,-135Z" fill="#E0E0E0" stroke="#fff" stroke-width=".4"/><path d="M-5,-162L-6,-169L-2,-175L-3,-179L7,-189L9,-197L12,-200L18,-199L23,-201L24,-204L34,-210L36,-214L47,-219L54,-221L57,-218L64,-218L64,-212L65,-207L72,-199L72,-193L86,-190L86,-181L83,-178L77,-177L75,-171L71,-170L60,-170L55,-171L51,-169L45,-170L25,-170L24,-163L26,-153L18,-157L12,-156L8,-153L3,-156L0,-160Z" fill="#E0E0E0" stroke="#fff" stroke-width=".4"/><path d="M389,-100L385,-99L377,-99L368,-100L363,-99L362,-96L358,-96L353,-98L340,-92L334,-94L333,-93L329,-85L320,-88L311,-89L304,-93L294,-98L287,-94L283,-88L282,-79L274,-80L266,-82L259,-75L252,-64L251,-68L250,-73L245,-77L240,-83L239,-88L234,-94L235,-98L234,-103L234,-112L237,-114L243,-126L253,-127L256,-130L258,-130L261,-127L276,-132L281,-137L287,-141L286,-145L289,-146L301,-146L312,-151L321,-165L327,-170L335,-172L336,-166L343,-159L343,-154L341,-149L342,-145L346,-142L355,-136L362,-131L362,-127L370,-121L375,-116L378,-109L387,-104Z" fill="#E0E0E0" stroke="#fff" stroke-width=".4"/><path d="M282,-79L281,-72L277,-65L275,-58L273,-47L274,-41L272,-36L272,-32L270,-28L262,-22L257,-16L252,-4L252,5L249,9L242,15L235,23L231,21L230,17L223,17L219,22L216,20L211,16L208,18L203,24L193,11L202,4L198,-4L202,-7L210,-8L211,-14L217,-8L228,-7L232,-13L233,-21L232,-30L226,-38L231,-51L228,-54L219,-53L216,-59L217,-64L232,-64L242,-61L251,-58L252,-64L259,-75L266,-82L274,-80Z" fill="#E0E0E0" stroke="#fff" stroke-width=".4"/><path d="M195,-64L201,-65L208,-63L215,-65L217,-64L216,-59L219,-53L228,-54L231,-51L226,-38L232,-30L233,-21L232,-13L228,-7L217,-8L211,-14L210,-8L202,-7L198,-4L202,4L193,11L181,-1L173,-11L166,-24L166,-28L169,-32L171,-40L174,-49L178,-50L195,-50Z" fill="#E0E0E0" stroke="#fff" stroke-width=".4"/><path d="M176,-64L195,-64L195,-50L178,-50L174,-49L172,-51Z" fill="#E0E0E0" stroke="#fff" stroke-width=".4"/><path d="M453,74L465,77L467,80L472,86L475,102L472,112L475,128L479,127L483,131L488,140L489,156L484,159L481,168L473,160L472,151L474,145L474,140L469,137L466,138L459,132L452,129L456,118L460,113L458,103L460,93L462,90L459,80Z" fill="#E0E0E0" stroke="#fff" stroke-width=".4"/><path d="M475,102L484,101L498,105L502,103L510,103L514,99L521,99L534,95L544,87L546,93L546,105L547,116L547,135L550,141L546,150L541,159L534,167L523,171L509,178L496,191L491,193L483,202L478,205L477,214L482,224L485,232L485,236L487,235L487,248L485,254L487,256L486,262L481,266L471,271L456,278L451,283L452,288L455,289L454,296L445,296L444,290L442,284L441,280L443,265L440,255L434,237L447,222L450,213L452,212L453,204L452,201L452,191L454,182L454,167L448,163L442,162L440,159L434,156L424,156L423,151L422,143L459,132L466,138L469,137L474,140L474,145L472,151L473,160L481,168L484,159L489,156L488,140L483,131L479,127L475,128L472,112Z" fill="#E0E0E0" stroke="#fff" stroke-width=".4"/><path d="M445,296L443,302L436,304L428,296L428,292L432,287L433,283L436,282L442,284L444,290Z" fill="#E0E0E0" stroke="#fff" stroke-width=".4"/><path d="M216,20L212,23L210,26L209,31L206,33L203,24L208,18L211,16ZM208,36L213,35L216,35L221,33L256,34L259,43L262,50L265,54L270,60L278,59L282,57L288,59L290,56L293,49L301,49L301,47L307,46L306,51L321,51L321,58L323,63L322,70L323,78L327,82L326,97L329,96L334,96L342,94L347,95L348,99L347,105L349,110L347,115L348,119L323,119L323,159L331,169L339,177L317,182L288,180L279,174L231,175L229,175L222,170L214,169L207,172L201,174L200,166L201,155L206,144L206,138L210,127L213,122L220,114L224,109L225,99L224,93L221,88L217,81L215,73L215,71L219,66L215,54L213,46L207,39Z" fill="#E0E0E0" stroke="#fff" stroke-width=".4"/><path d="M426,-8L426,-3L429,-1L429,3L426,6L422,12L417,16L412,17L411,3L408,-3L416,-2L419,-9Z" fill="#E0E0E0" stroke="#fff" stroke-width=".4"/><path d="M655,114L658,119L661,127L663,142L666,148L665,154L663,158L659,150L656,154L659,163L658,169L654,171L654,182L649,197L643,214L635,239L631,257L625,272L616,275L605,281L598,278L589,273L585,266L585,254L580,244L579,235L581,225L587,223L587,219L593,209L594,201L591,195L589,187L588,175L592,168L594,160L600,160L606,157L611,155L616,155L623,148L633,140L636,134L635,129L640,130L646,122L647,114L651,109Z" fill="#E0E0E0" stroke="#fff" stroke-width=".4"/><path d="M-141,-202L-128,-202L-125,-205L-121,-205L-116,-202L-113,-202L-109,-204L-106,-201L-111,-198L-117,-198L-122,-201L-126,-198L-128,-198L-131,-196L-142,-196Z" fill="#E0E0E0" stroke="#fff" stroke-width=".4"/><path d="M1229,-391L1230,-386L1225,-383L1226,-375L1218,-378L1202,-368L1203,-361L1196,-349L1195,-343L1190,-332L1181,-335L1180,-322L1177,-317L1179,-312L1173,-309L1166,-329L1163,-329L1161,-321L1155,-328L1158,-335L1164,-336L1169,-347L1162,-349L1151,-349L1140,-351L1139,-360L1133,-361L1123,-367L1119,-357L1128,-350L1120,-345L1118,-341L1125,-337L1123,-329L1127,-319L1129,-309L1127,-304L1119,-304L1104,-301L1105,-292L1099,-284L1081,-276L1068,-261L1059,-253L1047,-244L1047,-239L1041,-236L1030,-231L1024,-230L1021,-221L1023,-205L1024,-195L1019,-183L1019,-162L1013,-162L1007,-152L1011,-148L1000,-145L996,-137L991,-133L980,-144L974,-161L969,-174L965,-180L959,-191L956,-207L954,-215L943,-232L938,-256L934,-272L934,-288L932,-300L915,-292L906,-293L890,-309L896,-314L893,-319L879,-330L887,-339L913,-339L911,-350L904,-357L903,-367L895,-373L908,-387L922,-386L934,-401L942,-415L954,-429L953,-439L964,-447L954,-454L950,-464L946,-476L951,-483L970,-479L983,-481L995,-493L1007,-476L1006,-465L1011,-457L1011,-450L1002,-452L1005,-436L1017,-427L1034,-418L1026,-411L1022,-398L1033,-393L1045,-387L1060,-379L1077,-377L1084,-370L1093,-369L1107,-366L1117,-366L1119,-371L1117,-380L1118,-386L1125,-389L1126,-378L1127,-375L1138,-370L1145,-372L1155,-371L1165,-372L1166,-380L1161,-384L1171,-386L1182,-396L1195,-405L1206,-402L1214,-407L1220,-399L1216,-393Z" fill="#E0E0E0" stroke="#fff" stroke-width=".4"/><path d="M497,-212L496,-217L501,-235L502,-244L506,-248L515,-250L521,-257L528,-242L531,-231L538,-225L554,-213L561,-206L568,-199L571,-195L577,-191L574,-188L569,-189L564,-193L559,-200L554,-204L551,-208L541,-213L532,-213L529,-216L522,-213L515,-219L511,-210Z" fill="#E0E0E0" stroke="#fff" stroke-width=".4"/><path d="M684,-270L694,-249L698,-240L689,-237L687,-231L686,-227L674,-221L655,-216L644,-207L639,-206L636,-207L629,-202L621,-199L611,-199L608,-198L605,-195L602,-194L600,-191L594,-191L590,-189L582,-190L579,-197L579,-204L577,-208L575,-217L572,-222L574,-223L573,-228L574,-231L574,-236L579,-240L578,-245L581,-252L586,-248L589,-249L603,-250L605,-248L617,-247L621,-248L624,-244L630,-246L639,-259L650,-265Z" fill="#E0E0E0" stroke="#fff" stroke-width=".4"/><path d="M634,-133L600,-97L584,-97L574,-88L566,-88L563,-84L554,-84L549,-88L539,-83L535,-78L527,-79L524,-81L521,-80L518,-80L502,-91L494,-91L490,-94L490,-101L484,-103L477,-116L471,-119L469,-124L463,-130L456,-131L460,-138L466,-138L468,-142L468,-153L471,-165L477,-169L478,-174L483,-183L491,-189L495,-201L497,-212L511,-210L515,-219L522,-213L529,-216L532,-213L541,-213L551,-208L554,-204L559,-200L564,-193L569,-189L564,-183L560,-178L561,-174L561,-171L568,-170L571,-171L574,-169L571,-165L575,-158L580,-152L584,-148L624,-133Z" fill="#E0E0E0" stroke="#fff" stroke-width=".4"/><path d="M569,-189L574,-188L577,-191L580,-187L580,-182L573,-179L578,-176L574,-169L571,-171L568,-170L561,-171L561,-174L560,-178L564,-183Z" fill="#E0E0E0" stroke="#fff" stroke-width=".4"/><path d="M648,-175L648,-175L648,-170L648,-157L648,-151L642,-144L634,-133L624,-133L584,-148L580,-152L575,-158L571,-165L574,-169L578,-176L582,-173L584,-168L590,-163L596,-163L607,-166L620,-168L631,-172L637,-172L641,-175Z" fill="#E0E0E0" stroke="#fff" stroke-width=".4"/><path d="M467,-26L443,-25L429,-25L425,-23L418,-20L415,-21L415,-30L418,-35L419,-44L421,-50L426,-56L430,-59L434,-64L429,-65L430,-79L435,-83L443,-80L452,-83L461,-83L468,-88L474,-80L475,-74L481,-60L476,-51L470,-43L467,-38Z" fill="#E0E0E0" stroke="#fff" stroke-width=".4"/><path d="M425,-23L430,-17L429,-10L426,-8L419,-9L416,-2L408,-3L410,-10L411,-10L412,-18L415,-21L418,-20Z" fill="#E0E0E0" stroke="#fff" stroke-width=".4"/><path d="M430,-79L420,-87L417,-92L410,-90L405,-91L401,-89L396,-90L389,-100L387,-104L378,-109L375,-116L370,-121L362,-127L362,-131L355,-136L347,-141L350,-142L355,-145L358,-155L361,-161L370,-163L372,-159L378,-152L381,-151L386,-153L394,-153L396,-150L408,-150L408,-153L414,-155L416,-159L420,-161L430,-154L436,-155L442,-164L449,-171L448,-178L445,-182L452,-183L453,-185L459,-184L457,-175L459,-167L465,-162L466,-158L466,-151L468,-151L468,-142L466,-138L460,-138L456,-131L463,-130L469,-124L471,-119L477,-116L484,-103L476,-95L468,-88L461,-83L452,-83L443,-80L435,-83Z" fill="#E0E0E0" stroke="#fff" stroke-width=".4"/></g><g clip-path="url(#v)"><path d="M424.9,153.1L423.2,153.2L420.1,153.2L416.9,153.2L414.0,153.8L411.6,154.8L408.8,156.4L407.8,157.0L407.1,157.5L406.7,158.1L406.4,159.4L406.4,161.4L406.2,162.9L405.3,164.3L400.9,165.9L398.1,167.2L395.3,168.8L393.3,170.9L391.8,173.4L389.4,176.6L387.0,179.3L384.4,182.2L381.5,183.2L379.1,183.0L376.1,181.8L373.8,181.6L372.1,182.3L370.5,182.1L369.0,180.9L367.8,180.5L366.8,180.8L365.5,180.8L363.3,180.1L361.2,178.1L360.1,177.3L359.3,177.0L356.9,176.6L351.4,176.2L350.8,176.3L348.6,176.7L345.7,177.2L343.3,177.7L340.7,178.2L338.3,176.1L335.6,173.7L332.8,171.1L330.7,169L329.6,167.8L327.8,166.2L326.4,165.5L325.9,165.1L324.6,160.9L323.9,157.0L323.9,154.2L323.9,150.2L323.9,146.2L323.9,142.2L323.9,138.2L323.9,134.2L323.9,130.3L323.9,126.3L323.9,122.3L323.9,120.4L326.6,120.4L329.7,120.4L333.0,120.4L336.6,120.4L340.2,120.4L343.8,120.4L346.3,120.4L346.9,120.4L347.7,120.2L347.7,119.9L346.7,117.9L346.8,117.2L347.0,115.9L347.5,114.8L348.0,113.3L348.1,112.4L347.6,109.5L347.7,108.0L347.8,106.3L347.9,104.7L347.8,103.6L347.9,103.0L348.3,102.2L348.5,101.2L348.7,100.8L348.6,100.4L348.4,99.7L348.3,98.1L348.0,95.9L347.7,94.3L348.2,94.4L349.1,94.5L349.5,95.3L349.8,96.2L350.4,96.2L352.0,96.7L352.5,97.4L352.9,99.0L352.7,99.8L352.1,100.4L352.7,100.9L353.7,101.3L354.3,101.2L356.2,100.2L356.9,100.0L357.8,99.8L358.7,99.5L361.0,99.0L362.3,98.8L363.1,98.4L363.6,98.4L364.0,98.7L363.6,99.8L363.5,100.8L364.0,102.6L364.3,103.5L365.1,104.1L365.7,104.4L366.3,105.1L367.6,104.9L370.4,105.9L371.2,106.3L372.5,106.8L373.3,106.9L376.2,107.2L377.3,107.5L379.3,107.8L380.9,107.8L382.1,107.7L382.8,107.4L383.3,107.1L383.5,106.9L383.9,105.9L384.5,104.0L384.7,103.4L385.3,103.1L386.1,102.9L386.5,103.2L387.0,105.4L389.2,107.4L390.0,109.1L390.6,110.5L391.0,110.9L391.9,111.4L393.3,111.6L394.5,111.6L397.0,112.6L399.0,113.4L400.5,114.0L401.1,114.5L401.6,115.2L401.9,115.8L402.3,117.2L402.8,118.4L403.5,118.6L404.2,118.7L404.9,119.5L405.4,120.2L406.5,121.9L407.2,123.0L407.5,124.2L408.3,124.9L409.5,125.3L410.6,125.3L411.2,125.0L412.7,124.4L414.0,123.7L414.8,123.5L415.3,123.6L415.7,124.1L415.9,125.0L416.0,125.5L416.9,126.0L417.5,125.8L417.7,125.2L417.7,125.0L417.7,122.5L417.7,120.3L417.7,118.3L417.7,115.8L417.7,113.6L417.7,111.9L417.7,110.0L417.2,110.1L416.5,110.5L414.9,110.6L414.3,110.9L414.1,111.4L414.2,112.0L414.2,112.8L414.0,113.2L413.3,113.4L412.3,113.1L410.5,112.6L408.9,112.4L407.9,111.3L406.4,109.6L405.4,108.7L403.1,107.0L402.7,106.6L401.9,105.8L401.3,104.4L401.0,103.5L400.8,102.8L400.4,101.8L401.0,100.2L401.8,97.2L402.4,95.0L402.7,93.4L403.8,91.8L403.9,90.4L403.5,88.5L403.6,87.4L403.6,84.8L403.7,82.6L403.7,81.6L403.4,79.7L402.6,77.6L400.9,74.8L400.9,74.2L402.0,73.5L403.5,72.3L404.3,71.6L405.3,70.6L405.7,70.1L406.6,68.8L407.2,67.8L407.4,66.5L407.0,65.2L407.8,64.9L410.8,64.5L414.0,64.0L417.4,63.5L420.8,63.0L424.1,62.4L427.1,62.0L429.2,61.7L429.5,62.5L430.1,64.0L430.9,65.1L431.8,66.0L432.6,66.6L433.1,66.7L436.4,66.7L437.6,67.2L438.6,68.0L438.9,69.1L439.6,69.8L440.3,70.3L440.6,70.4L441.1,70.3L442.0,70.3L442.8,70.5L443.2,70.7L443.3,71.7L443.5,72.1L444.6,72.3L445.7,72.3L446.9,73.0L448.0,73.1L449.4,73.4L450.1,74.0L451.5,74.8L453.3,75.4L454.6,76.1L455.2,76.4L455.3,76.7L455.6,77.4L455.9,77.8L456.0,78.4L456.1,79.0L456.7,79.2L457.1,79.2L457.4,78.8L458.0,78.8L458.5,79.1L458.7,79.8L459.2,80.7L459.9,81.3L460.4,81.9L460.3,83.1L460.0,84.1L460.9,85.1L462.2,86.1L462.5,86.5L462.6,87.9L462.9,88.4L463.7,89.6L464.1,90.4L464.1,90.8L461.8,93.2L461.0,93.4L460.3,93.6L459.7,94.0L459.3,94.5L459.5,94.8L459.7,95.6L460.3,96.9L460.8,97.8L460.3,98.9L459.4,100.8L459.0,100.9L458.9,102.4L459.2,102.9L459.7,103.3L459.8,104.3L459.9,105.7L459.8,106.7L459.2,109.5L460.3,111.9L460.6,112.2L462.1,112.2L462.3,112.4L462.0,113.0L461.4,113.8L461.0,114.1L459.1,114.9L456.5,115.8L455.9,116.7L455.5,118.0L455.8,118.7L456.2,119.2L456.1,120.3L455.8,121.4L455.9,122.3L455.8,123.2L455.5,123.6L455.0,124.8L454.4,126.0L453.9,126.6L453.3,127.2L452.3,127.7L452.3,127.9L453.5,128.5L453.8,128.9L453.9,129.2L453.6,129.4L453.4,129.8L453.9,130.2L454.6,130.5L455.2,131.3L455.8,132.5L456.0,132.9L456.1,133.0L456.3,133.0L456.7,132.9L457.4,132.2L458.0,132.0L458.6,132.9L456.0,133.8L454.7,134.3L450.8,135.6L447.5,136.7L446.6,137.0L444.8,137.5L444.0,137.9L440.9,138.9L439.7,139.4L438.6,139.9L436.1,140.6L433.8,141.4L431.2,142.1L428.3,142.9L426.6,143.5L425.5,144.0L423.0,145.0L422.8,145.3L422.9,146.0L423.2,147.4L423.9,148.7L424.4,149.5L424.7,151.4Z" fill="#4ECDC4" stroke="#2C3E50" stroke-width="1"/></g><circle cx="400.0" cy="150.0" r="4" fill="#E74C3C" stroke="#fff" stroke-width="2"/><text x="400.0" y="140.0" text-anchor="middle" font-family="sans-serif" font-weight="700" font-size="10" fill="#2D3436">Lusaka</text></svg>