<svg viewBox="0 0 800 300" xmlns="http://www.w3.org/2000/svg"><defs><clipPath id="v"><rect width="800" height="300"/></clipPath></defs><rect width="800" height="300" fill="#DCEEF8"/><g clip-path="url(#v)"><path d="M2867,144L2871,141L2877,146L2874,156L2864,158L2854,156L2853,148L2859,142ZM2898,128L2888,132L2877,136L2875,129L2883,126L2888,125L2898,119L2898,119L2898,128ZM-3140,119L-3140,119L-3140,119L-3136,118L-3138,127L-3140,128L-3140,128L-3140,119Z" fill="#E0E0E0" stroke="#fff" stroke-width=".4"/><path d="M448,-138L451,-136L512,-102L513,-92L537,-75L529,-55L530,-45L541,-39L541,-35L537,-24L538,-19L536,-11L542,-1L549,16L555,20L542,30L524,37L514,36L508,41L496,42L492,44L471,39L459,41L454,17L448,9L445,5L429,1L419,-4L408,-6L402,-9L395,-14L386,-35L376,-44L373,-54L374,-63L371,-78L378,-79L384,-85L391,-94L395,-98L395,-103L391,-107L390,-114L395,-116L396,-126L389,-135L395,-137L414,-137Z" fill="#E0E0E0" stroke="#fff" stroke-width=".4"/><path d="M371,-78L374,-63L373,-54L376,-44L386,-35L395,-14L388,-15L366,-12L361,-10L356,0L360,8L357,28L355,45L360,48L371,55L376,52L377,70L365,70L358,61L351,53L339,51L335,42L325,47L311,45L306,37L295,36L287,36L286,31L280,30L273,29L262,32L255,32L251,33L252,13L246,6L245,-4L247,-14L244,-21L244,-31L223,-31L225,-37L216,-37L215,-34L205,-34L201,-24L198,-20L189,-22L183,-20L172,-18L166,-27L162,-33L157,-43L153,-55L104,-55L98,-53L93,-54L86,-52L84,-57L88,-58L88,-66L91,-70L97,-74L102,-72L107,-78L116,-78L118,-74L124,-71L134,-81L143,-89L148,-95L147,-108L154,-125L162,-133L173,-142L175,-147L175,-153L178,-159L177,-168L179,-183L183,-194L188,-203L189,-213L190,-225L197,-233L206,-238L220,-233L230,-227L242,-225L255,-222L260,-232L262,-233L270,-231L289,-240L295,-236L301,-237L303,-241L309,-242L322,-241L333,-240L338,-242L349,-228L356,-226L361,-229L368,-228L378,-231L382,-224L396,-213L395,-193L402,-191L397,-185L390,-181L384,-172L380,-164L379,-151L375,-144L375,-131L371,-127L370,-117L368,-116L366,-106L370,-99Z" fill="#E0E0E0" stroke="#fff" stroke-width=".4"/><path d="M577,-126L567,-140L567,-201L581,-220L586,-225L597,-225L611,-237L633,-238L681,-289L692,-303L700,-313L700,-322L700,-339L700,-346L700,-347L706,-347L713,-350L722,-351L730,-357L736,-357L737,-352L735,-342L735,-334L732,-327L727,-309L719,-290L709,-268L694,-244L680,-225L660,-202L643,-188L618,-172L603,-159L584,-139L581,-130Z" fill="#E0E0E0" stroke="#fff" stroke-width=".4"/><path d="M537,-75L513,-92L512,-102L451,-136L448,-138L448,-156L453,-163L461,-174L467,-186L459,-205L458,-214L450,-225L460,-235L471,-247L480,-244L480,-234L486,-229L497,-229L519,-214L524,-214L528,-215L532,-213L543,-211L548,-218L563,-225L570,-220L581,-220L567,-201L567,-140L577,-126L565,-119L561,-112L555,-111L552,-99L547,-92L544,-81Z" fill="#E0E0E0" stroke="#fff" stroke-width=".4"/><path d="M153,347L161,337L168,342L171,350L178,352L189,355L198,354L213,344L213,275L217,278L227,295L226,307L230,313L242,311L250,303L258,298L262,289L270,284L277,287L285,292L299,293L310,288L311,283L314,274L323,272L328,265L334,253L349,239L373,226L380,226L388,229L393,227L402,229L410,255L415,268L412,288L413,295L405,292L400,293L398,298L394,305L394,312L404,322L414,320L417,312L430,312L426,325L424,341L419,350L408,360L405,362L397,372L393,382L383,396L364,416L353,428L340,437L322,445L314,446L312,452L301,449L293,453L275,449L265,451L258,450L241,458L226,461L216,469L208,470L201,462L195,462L188,453L187,456L185,450L185,439L180,425L185,422L185,406L174,388L165,372L165,371ZM365,354L358,348L350,352L341,359L332,371L345,386L351,384L354,378L363,375L366,369L371,360Z" fill="#E0E0E0" stroke="#fff" stroke-width=".4"/><path d="M365,354L371,360L366,369L363,375L354,378L351,384L345,386L332,371L341,359L350,352L358,348Z" fill="#E0E0E0" stroke="#fff" stroke-width=".4"/><path d="M-987,-224L-997,-208L-1002,-196L-1009,-190L-1017,-188L-1019,-193L-1023,-194L-1028,-189L-1035,-193L-1031,-200L-1030,-208L-1027,-215L-1033,-225L-1035,-236L-1026,-251L-1020,-249L-1008,-245L-990,-231ZM-17,-1111L-9,-1105L15,-1100L7,-1083L4,-1065L-0,-1060L-8,-1063L-7,-1056L-19,-1043L-20,-1032L-12,-1035L-6,-1025L-7,-1018L-2,-1009L-8,-1002L-3,-983L6,-980L4,-970L-11,-957L-44,-964L-69,-956L-71,-942L-90,-939L-109,-950L-115,-945L-146,-955L-153,-964L-144,-978L-141,-1025L-158,-1051L-171,-1063L-196,-1073L-198,-1091L-176,-1097L-148,-1090L-153,-1119L-137,-1108L-98,-1129L-93,-1150L-79,-1156L-76,-1146L-68,-1146L-61,-1135L-49,-1123L-40,-1125L-26,-1113L-22,-1111ZM26,-946L37,-955L40,-935L34,-918L26,-922L23,-937Z" fill="#E0E0E0" stroke="#fff" stroke-width=".4"/><path d="M373,226L349,239L334,253L328,265L323,272L314,274L311,283L310,288L299,293L285,292L277,287L270,284L262,289L258,298L250,303L242,311L230,313L226,307L227,295L217,278L213,275L213,222L229,221L230,157L242,157L268,151L275,158L285,151L291,151L300,147L303,148L309,162L313,166L318,176L337,195L344,197L344,204L349,215L362,218Z" fill="#E0E0E0" stroke="#fff" stroke-width=".4"/><path d="M213,275L213,344L198,354L189,355L178,352L171,350L168,342L161,337L153,347L141,332L134,318L131,300L127,287L121,258L120,236L118,226L112,219L103,204L94,183L91,171L77,154L76,141L84,137L94,134L105,135L115,143L118,142L186,141L197,149L238,152L269,145L282,141L293,142L300,146L300,147L291,151L285,151L275,158L268,151L242,157L230,157L229,221L213,222Z" fill="#E0E0E0" stroke="#fff" stroke-width=".4"/><path d="M122,-372L129,-361L130,-349L130,-338L139,-322L129,-322L125,-321L117,-323L113,-315L123,-305L130,-302L133,-295L138,-283L136,-279L127,-262L123,-259L122,-246L123,-238L122,-233L130,-225L131,-219L138,-210L145,-205L146,-197L148,-192L147,-183L133,-187L120,-191L99,-192L96,-193L87,-191L76,-193L68,-192L41,-192L43,-206L37,-217L29,-220L26,-227L22,-229L22,-234L26,-246L34,-262L39,-262L49,-272L55,-273L65,-266L76,-271L78,-278L82,-285L84,-294L93,-301L96,-313L100,-316L102,-325L107,-336L121,-349L122,-355L124,-358L117,-365L118,-371Z" fill="#E0E0E0" stroke="#fff" stroke-width=".4"/><path d="M338,-242L333,-240L322,-241L309,-242L303,-241L301,-237L295,-236L289,-240L270,-231L262,-233L260,-232L255,-222L242,-225L230,-227L220,-233L206,-238L197,-233L190,-225L189,-213L178,-214L167,-217L157,-208L148,-192L146,-197L145,-205L138,-210L131,-219L130,-225L122,-233L123,-238L122,-246L123,-259L127,-262L136,-279L149,-280L152,-284L155,-284L159,-280L181,-287L188,-293L196,-299L195,-305L199,-307L216,-306L231,-314L244,-332L252,-339L263,-342L265,-335L274,-324L274,-317L272,-310L273,-305L278,-300L291,-293L300,-286L301,-280L312,-271L319,-264L323,-254L336,-247Z" fill="#E0E0E0" stroke="#fff" stroke-width=".4"/><path d="M189,-213L188,-203L183,-194L179,-183L177,-168L178,-159L175,-153L175,-147L173,-142L162,-133L154,-125L147,-108L148,-95L143,-89L134,-81L124,-71L118,-74L116,-78L107,-78L102,-72L97,-74L91,-80L86,-77L79,-69L65,-87L78,-96L72,-108L77,-112L89,-114L90,-121L99,-113L114,-113L119,-120L121,-132L119,-145L111,-155L119,-174L114,-177L102,-176L97,-185L99,-192L120,-191L133,-187L147,-183L148,-192L157,-208L167,-217L178,-214Z" fill="#E0E0E0" stroke="#fff" stroke-width=".4"/><path d="M68,-192L76,-193L87,-191L96,-193L99,-192L97,-185L102,-176L114,-177L119,-174L111,-155L119,-145L121,-132L119,-120L114,-113L99,-113L90,-121L89,-114L77,-112L72,-108L78,-96L65,-87L48,-104L37,-118L27,-135L27,-141L31,-146L35,-158L38,-171L44,-172L68,-172Z" fill="#E0E0E0" stroke="#fff" stroke-width=".4"/><path d="M41,-192L68,-192L68,-172L44,-172L38,-171L35,-173Z" fill="#E0E0E0" stroke="#fff" stroke-width=".4"/><path d="M395,-14L402,-9L408,-6L419,-4L429,1L437,9L441,24L438,28L435,42L438,56L433,62L427,78L436,83L385,97L387,109L374,112L365,119L363,125L357,126L342,141L333,152L327,152L322,150L303,148L300,147L300,146L293,142L282,141L269,145L258,134L246,119L247,64L282,64L281,58L283,52L280,44L282,36L280,30L286,31L287,36L295,36L306,37L311,45L325,47L335,42L339,51L351,53L358,61L365,70L377,70L376,52L371,55L360,48L355,45L357,28L360,8L356,0L361,-10L366,-12L388,-15Z" fill="#E0E0E0" stroke="#fff" stroke-width=".4"/><path d="M429,1L445,5L448,9L454,17L459,41L454,54L459,76L465,76L471,81L478,94L479,116L472,120L467,132L456,121L455,109L458,101L457,94L451,89L446,91L436,83L427,78L433,62L438,56L435,42L438,28L441,24L437,9Z" fill="#E0E0E0" stroke="#fff" stroke-width=".4"/><path d="M459,41L471,39L492,44L496,42L508,41L514,36L524,37L542,30L555,20L558,28L557,45L560,60L560,87L563,95L558,108L552,120L541,131L526,137L507,146L488,165L481,168L470,181L463,185L461,197L469,211L472,222L473,227L476,226L475,244L472,252L476,255L474,263L467,270L453,276L433,286L426,293L427,301L431,302L430,312L417,312L416,303L413,295L412,288L415,268L410,255L402,229L420,208L424,196L427,194L429,183L426,178L427,165L430,153L430,130L421,125L413,123L410,119L402,115L388,116L387,109L385,97L436,83L446,91L451,89L457,94L458,101L455,109L456,121L467,132L472,120L479,116L478,94L471,81L465,76L459,76L454,54Z" fill="#E0E0E0" stroke="#fff" stroke-width=".4"/><path d="M417,312L414,320L404,322L394,312L394,305L398,298L400,293L405,292L413,295L416,303Z" fill="#E0E0E0" stroke="#fff" stroke-width=".4"/><path d="M97,-74L91,-70L88,-66L88,-58L84,-57L79,-69L86,-77L91,-80ZM86,-52L93,-54L98,-53L104,-55L153,-55L157,-43L162,-33L166,-27L172,-18L183,-20L189,-22L198,-20L201,-24L205,-34L215,-34L216,-37L225,-37L223,-31L244,-31L244,-21L247,-14L245,-4L246,6L252,13L251,33L255,32L262,32L273,29L280,30L282,36L280,44L283,52L281,58L282,64L247,64L246,119L258,134L269,145L238,152L197,149L186,141L118,142L115,143L105,135L94,134L84,137L76,141L74,130L77,114L83,98L83,91L89,75L93,68L102,57L108,49L110,37L109,27L104,21L99,11L95,0L96,-3L101,-10L96,-26L93,-38L84,-48Z" fill="#E0E0E0" stroke="#fff" stroke-width=".4"/><path d="M390,-114L391,-107L395,-103L395,-98L391,-94L384,-85L378,-79L371,-78L370,-99L366,-106L376,-105L381,-115Z" fill="#E0E0E0" stroke="#fff" stroke-width=".4"/><path d="M710,57L715,64L719,76L722,96L726,104L724,113L721,118L716,108L712,113L716,126L714,133L709,137L708,152L702,173L693,197L683,232L677,257L669,278L656,283L641,290L631,286L618,279L613,269L612,253L606,238L605,225L608,212L615,209L615,203L624,190L625,178L621,170L618,159L617,143L622,133L625,122L633,121L642,117L649,114L656,114L666,104L679,93L684,85L682,77L689,79L698,67L699,57L704,49Z" fill="#E0E0E0" stroke="#fff" stroke-width=".4"/><path d="M448,-138L414,-137L395,-137L389,-135L379,-130L375,-131L375,-144L379,-151L380,-164L384,-172L390,-181L397,-185L402,-191L395,-193L396,-213L403,-217L414,-214L427,-218L439,-218L450,-225L458,-214L459,-205L467,-186L461,-174L453,-163L448,-156Z" fill="#E0E0E0" stroke="#fff" stroke-width=".4"/><path d="M389,-135L396,-126L395,-116L390,-114L381,-115L376,-105L366,-106L368,-116L370,-117L371,-127L375,-131L379,-130Z" fill="#E0E0E0" stroke="#fff" stroke-width=".4"/></g><g clip-path="url(#v)"><path d="M404.0,231.7L402.5,230.7L400.4,230.0L397.7,229.7L394.3,229.8L390.1,230.4L385.6,229.7L380.8,227.7L376.7,227.0L372.0,227.9L371.7,227.9L370.9,227.3L369.6,225.9L367.4,225.6L366.8,225.3L366.3,224.8L366.0,224.1L365.9,223.3L366.2,221.0L366.0,220.7L365.4,220.5L364.3,220.2L361.4,219.1L357.8,218.1L351.9,217.0L349.6,216.7L349.1,216.3L348.4,215.5L347.3,212.8L346.2,211.1L343.7,208.4L343.3,207.5L343.4,205.4L343.6,203.7L343.9,202.2L343.8,200.8L343.7,199.1L343.8,198.0L343.5,197.5L342.6,197.1L340.0,197.0L336.8,197.0L336.7,195.3L336.4,192.6L335.8,191.1L335.1,190.3L333.6,189.4L330.7,188.3L326.7,186.6L323.2,184.0L319.4,180.8L318.1,180.2L316.6,177.2L314.5,172.1L314.6,170.4L314.3,169.6L312.1,167.1L311.7,165.8L311.3,164.5L307.9,160.8L306.7,159.2L305.8,157.1L305.0,155.5L304.2,154.8L303.2,153.7L302.6,152.4L302.3,151.5L302.5,150.2L302.9,149.4L306.1,150.3L307.9,150.3L309.3,149.9L311.0,150.5L313.0,152.1L315.3,152.5L317.6,151.4L320.9,151.7L325.0,153.4L328.4,153.7L332.4,152.3L336.0,148.2L339.4,144.4L342.7,140.0L344.8,136.5L347.7,133.6L351.6,131.4L355.5,129.5L361.6,127.2L362.8,125.3L363.2,123.3L363.2,120.4L363.5,118.6L364.2,117.7L365.1,117.0L366.5,116.2L370.4,114.0L373.8,112.6L377.9,111.7L382.3,111.7L386.6,111.7L389.0,111.7L389.0,114.4L389.2,117.5L389.7,117.8L393.0,117.9L398.2,118.1L403.1,118.3L406.3,120.6L407.4,121.0L410.7,121.6L414.9,125.4L420.0,125.7L423.5,126.9L426.6,128.2L428.4,129.8L429.5,130.1L431.1,130.2L431.9,130.4L431.7,131.5L430.6,133.4L430.8,136.1L432.2,139.8L432.4,143.1L431.9,148.9L432.0,154.5L432.1,156.5L432.3,157.8L432.6,158.5L432.6,159.3L431.7,161.7L431.1,164.2L431.0,165.2L430.8,165.9L430.3,166.5L428.1,167.6L427.7,168.3L427.7,169.6L427.9,170.7L428.8,171.1L429.8,171.7L430.2,172.5L430.2,173.4L429.9,175.0L429.0,177.6L429.9,180.6L430.9,182.6L432.2,184.8L432.8,186.2L432.8,187.2L432.6,188.2L430.5,192.4L429.0,194.9L427.2,197.7L424.8,199.4L424.2,200.3L423.9,201.2L424.0,203.3L423.9,205.5L421.9,208.8L423.2,211.7L422.9,212L422.1,212.4L419.2,215.7L416.2,218.9L414.0,221.4L411.5,224.1L408.7,227.2L406.4,229.8Z" fill="#4ECDC4" stroke="#2C3E50" stroke-width="1"/></g><circle cx="400.0" cy="150.0" r="4" fill="#E74C3C" stroke="#fff" stroke-width="2"/><text x="400.0" y="140.0" text-anchor="middle" font-family="sans-serif" font-weight="700" font-size="10" fill="#2D3436">Harare</text></svg>